<?xml version="1.0" encoding="iso-8859-1"?>
<!-- Generator: Adobe Illustrator 15.1.0, SVG Export Plug-In . SVG Version: 6.00 Build 0)  -->
<!DOCTYPE svg PUBLIC "-//W3C//DTD SVG 1.1//EN" "http://www.w3.org/Graphics/SVG/1.1/DTD/svg11.dtd">
<svg version="1.1" id="flash0.ai" xmlns="http://www.w3.org/2000/svg" xmlns:xlink="http://www.w3.org/1999/xlink" x="0px" y="0px"
	 width="82.85px" height="39.2px" viewBox="0 0 82.85 39.2" style="enable-background:new 0 0 82.85 39.2;" xml:space="preserve">
<symbol  id="flash0.ai_x5F_5_x2F_Layer_11_x2F__x3C_Path_x3E__x5F_10" viewBox="-0.013 -4.133 5.263 4.133">
	<g id="Layer_1_48_">
		<path style="fill-rule:evenodd;clip-rule:evenodd;" d="M4.9-0.7c0.033-0.233,0.033-0.483,0-0.75c-0.033-0.167-0.1-0.433-0.2-0.8
			c-0.067-0.433,0.117-0.733,0.55-0.9L4.4-3.6C3.067-4.133,2.017-4.267,1.25-4C0.783-3.8,0.433-3.6,0.2-3.4
			C-0.067-3.167-0.083-3.033,0.15-3C1.25-2.767,2.1-2.467,2.7-2.1C3.3-1.733,3.95-1.033,4.65,0C4.75-0.133,4.833-0.367,4.9-0.7z"/>
	</g>
</symbol>
<symbol  id="flash0.ai_x5F_5_x2F_Layer_11_x2F__x3C_Path_x3E__x5F_15" viewBox="0.047 -1.839 1.557 1.867">
	<g id="Layer_1_47_">
		<path style="fill-rule:evenodd;clip-rule:evenodd;fill:#F7F7F7;" d="M1.6-0.55C1.533-1.083,1.25-1.467,0.75-1.7
			c-0.5-0.267-0.733-0.15-0.7,0.35C0.083-0.817,0.383-0.4,0.95-0.1C1.417,0.167,1.633,0.017,1.6-0.55z"/>
	</g>
</symbol>
<symbol  id="flash0.ai_x5F_5_x2F_Layer_11_x2F__x3C_Path_x3E__x5F_16" viewBox="0.033 -0.639 1.177 0.664">
	<g id="Layer_1_46_">
		<path style="fill-rule:evenodd;clip-rule:evenodd;fill:#F7F7F7;" d="M1.2-0.1C1.1-0.267,0.883-0.417,0.55-0.55
			C0.283-0.683,0.117-0.667,0.05-0.5c-0.066,0.2,0.067,0.333,0.4,0.4C1.017,0.067,1.267,0.067,1.2-0.1z"/>
	</g>
</symbol>
<symbol  id="flash0.ai_x5F_5_x2F_Layer_11_x2F__x3C_Path_x3E__x5F_17" viewBox="0 -0.889 1.6 0.883">
	<g id="Layer_1_45_">
		<path style="fill-rule:evenodd;clip-rule:evenodd;fill:#F7F7F7;" d="M0.2-0.45C0.933-0.017,1.4,0.1,1.6-0.1
			C1.5-0.133,1.417-0.233,1.35-0.4C1.317-0.533,1.133-0.65,0.8-0.75C0.433-0.917,0.183-0.933,0.05-0.8C-0.05-0.7,0-0.583,0.2-0.45z"
			/>
	</g>
</symbol>
<symbol  id="flash0.ai_x5F_5_x2F_Layer_11_x2F__x3C_Path_x3E__x5F_18" viewBox="0.03 -9.961 11.972 9.995">
	<g id="Layer_1_44_">
		<path style="fill-rule:evenodd;clip-rule:evenodd;fill:#F7F7F7;" d="M11.95-0.5c-0.034-0.067-0.167-0.15-0.4-0.25
			c-0.367-0.133-0.8-0.35-1.3-0.65c-0.367-0.233-0.867-0.4-1.5-0.5C8.283-2,7.867-2.283,7.5-2.75C7.233-3.083,6.867-3.433,6.4-3.8
			C6.067-4.033,5.767-4.467,5.5-5.1C5.233-5.667,4.733-6.05,4-6.25C3.233-6.417,2.767-6.7,2.6-7.1C2.233-8,1.8-8.517,1.3-8.65
			c-0.333-0.567-0.566-0.9-0.7-1c-0.333-0.3-0.517-0.383-0.55-0.25c-0.066,0.1,0.034,0.467,0.3,1.1C1.517-6.4,3-4.583,4.8-3.35
			c2.667,1.833,4.667,2.917,6,3.25C11.767,0.167,12.15,0.033,11.95-0.5z"/>
	</g>
</symbol>
<symbol  id="flash0.ai_x5F_5_x2F_Layer_11_x2F__x3C_Path_x3E__x5F_19" viewBox="0 -0.773 1.09 0.753">
	<g id="Layer_1_43_">
		<path style="fill-rule:evenodd;clip-rule:evenodd;fill:#F1FCED;" d="M0.45-0.1C0.983,0.033,1.183,0,1.05-0.2
			C0.917-0.4,0.7-0.567,0.4-0.7C0.167-0.833,0.033-0.783,0-0.55C0-0.317,0.15-0.167,0.45-0.1z"/>
	</g>
</symbol>
<symbol  id="flash0.ai_x5F_5_x2F_Layer_11_x2F__x3C_Path_x3E__x5F_20" viewBox="-0.033 -1.004 0.74 1.032">
	<g id="Layer_1_42_">
		<path style="fill-rule:evenodd;clip-rule:evenodd;fill:#F1FCED;" d="M0.7-0.15C0.733-0.45,0.633-0.7,0.4-0.9
			C0.2-1.067,0.067-1.033,0-0.8c-0.067,0.233-0.033,0.417,0.1,0.55C0.433,0.083,0.633,0.117,0.7-0.15z"/>
	</g>
</symbol>
<symbol  id="flash0.ai_x5F_5_x2F_Layer_11_x2F__x3C_Path_x3E__x5F_21" viewBox="-0.006 -0.823 0.805 0.827">
	<g id="Layer_1_41_">
		<path style="fill-rule:evenodd;clip-rule:evenodd;fill:#F1FCED;" d="M0.8-0.2c0-0.233-0.15-0.417-0.45-0.55
			C0.083-0.883-0.033-0.833,0-0.6c0.033,0.2,0.167,0.367,0.4,0.5C0.667,0.067,0.8,0.033,0.8-0.2z"/>
	</g>
</symbol>
<symbol  id="flash0.ai_x5F_5_x2F_Layer_11_x2F__x3C_Path_x3E__x5F_22" viewBox="0.044 -0.68 0.657 0.73">
	<g id="Layer_1_40_">
		<path style="fill-rule:evenodd;clip-rule:evenodd;fill:#F1FCED;" d="M0.7-0.1c0-0.2-0.117-0.367-0.35-0.5s-0.333-0.1-0.3,0.1
			c0,0.167,0.083,0.3,0.25,0.4C0.567,0.1,0.7,0.1,0.7-0.1z"/>
	</g>
</symbol>
<symbol  id="flash0.ai_x5F_5_x2F_Layer_11_x2F__x3C_Path_x3E__x5F_23" viewBox="0 -0.629 0.65 0.659">
	<g id="Layer_1_39_">
		<path style="fill-rule:evenodd;clip-rule:evenodd;fill:#F1FCED;" d="M0.65-0.15c0-0.2-0.117-0.35-0.35-0.45
			C0.1-0.667,0-0.617,0-0.45c0.033,0.2,0.133,0.333,0.3,0.4C0.533,0.083,0.65,0.05,0.65-0.15z"/>
	</g>
</symbol>
<symbol  id="flash0.ai_x5F_5_x2F_Layer_11_x2F__x3C_Path_x3E__x5F_24" viewBox="0 -0.606 0.706 0.612">
	<g id="Layer_1_38_">
		<path style="fill-rule:evenodd;clip-rule:evenodd;fill:#F1FCED;" d="M0.7-0.15c0.033-0.167-0.083-0.3-0.35-0.4
			C0.117-0.65,0-0.617,0-0.45c0.033,0.167,0.117,0.3,0.25,0.4C0.483,0.05,0.633,0.017,0.7-0.15z"/>
	</g>
</symbol>
<symbol  id="flash0.ai_x5F_5_x2F_Layer_11_x2F__x3C_Path_x3E__x5F_25" viewBox="0 -0.639 0.606 0.639">
	<g id="Layer_1_37_">
		<path style="fill-rule:evenodd;clip-rule:evenodd;fill:#F1FCED;" d="M0.25-0.1c0.233,0.133,0.35,0.133,0.35,0
			c0.033-0.167-0.067-0.316-0.3-0.45C0.1-0.683,0-0.667,0-0.5S0.083-0.2,0.25-0.1z"/>
	</g>
</symbol>
<symbol  id="flash0.ai_x5F_5_x2F_Layer_11_x2F__x3C_Path_x3E__x5F_26" viewBox="0.05 -0.675 0.878 0.655">
	<g id="Layer_1_36_">
		<path style="fill-rule:evenodd;clip-rule:evenodd;fill:#F1FCED;" d="M0.4-0.1C0.833,0.033,1,0,0.9-0.2
			C0.8-0.4,0.617-0.55,0.35-0.65c-0.2-0.067-0.3,0-0.3,0.2C0.05-0.25,0.167-0.133,0.4-0.1z"/>
	</g>
</symbol>
<symbol  id="flash0.ai_x5F_5_x2F_Layer_11_x2F__x3C_Path_x3E__x5F_27" viewBox="0 -0.891 0.834 0.93">
	<g id="Layer_1_35_">
		<path style="fill-rule:evenodd;clip-rule:evenodd;fill:#F1FCED;" d="M0.8-0.25c0.1-0.267-0.017-0.467-0.35-0.6
			C0.15-0.95,0-0.867,0-0.6c0,0.233,0.083,0.417,0.25,0.55C0.517,0.117,0.7,0.05,0.8-0.25z"/>
	</g>
</symbol>
<symbol  id="flash0.ai_x5F_5_x2F_Layer_11_x2F__x3C_Path_x3E__x5F_28" viewBox="-0.008 -0.679 0.663 0.692">
	<g id="Layer_1_34_">
		<path style="fill-rule:evenodd;clip-rule:evenodd;fill:#F1FCED;" d="M0.65-0.15C0.617-0.35,0.5-0.517,0.3-0.65
			C0.133-0.717,0.033-0.667,0-0.5c-0.033,0.2,0.033,0.333,0.2,0.4C0.533,0.067,0.683,0.05,0.65-0.15z"/>
	</g>
</symbol>
<symbol  id="flash0.ai_x5F_5_x2F_Layer_11_x2F__x3C_Path_x3E__x5F_29" viewBox="0 -0.7 0.606 0.7">
	<g id="Layer_1_33_">
		<path style="fill-rule:evenodd;clip-rule:evenodd;fill:#F1FCED;" d="M0.3-0.05C0.533,0.05,0.633,0,0.6-0.2
			C0.567-0.433,0.45-0.583,0.25-0.65C0.083-0.75,0-0.7,0-0.5S0.1-0.15,0.3-0.05z"/>
	</g>
</symbol>
<symbol  id="flash0.ai_x5F_5_x2F_Layer_11_x2F__x3C_Path_x3E__x5F_30" viewBox="-0.018 -0.896 1.141 0.91">
	<g id="Layer_1_32_">
		<path style="fill-rule:evenodd;clip-rule:evenodd;fill:#F1FCED;" d="M1.1-0.2C0.967-0.433,0.717-0.633,0.35-0.8
			C0.05-0.967-0.067-0.917,0-0.65c0.1,0.267,0.233,0.433,0.4,0.5C0.967,0.083,1.2,0.067,1.1-0.2z"/>
	</g>
</symbol>
<symbol  id="flash0.ai_x5F_5_x2F_Layer_11_x2F__x3C_Path_x3E__x5F_31" viewBox="0.015 -1.106 1.21 1.099">
	<g id="Layer_1_31_">
		<path style="fill-rule:evenodd;clip-rule:evenodd;fill:#F1FCED;" d="M0.6-0.2c0.5,0.3,0.7,0.25,0.6-0.15
			C1.067-0.783,0.8-1.033,0.4-1.1C0.067-1.133-0.05-1.033,0.05-0.8C0.117-0.567,0.3-0.367,0.6-0.2z"/>
	</g>
</symbol>
<symbol  id="flash0.ai_x5F_5_x2F_Layer_11_x2F__x3C_Path_x3E__x5F_32" viewBox="0.011 -1.117 0.959 1.142">
	<g id="Layer_1_30_">
		<path style="fill-rule:evenodd;clip-rule:evenodd;fill:#F1FCED;" d="M0.95-0.25c0.066-0.367-0.034-0.633-0.3-0.8
			C0.417-1.183,0.233-1.117,0.1-0.85s-0.117,0.467,0.05,0.6C0.617,0.117,0.883,0.117,0.95-0.25z"/>
	</g>
</symbol>
<symbol  id="flash0.ai_x5F_5_x2F_Layer_11_x2F__x3C_Path_x3E__x5F_33" viewBox="0 -0.97 0.705 0.953">
	<g id="Layer_1_29_">
		<path style="fill-rule:evenodd;clip-rule:evenodd;fill:#F1FCED;" d="M0.3-0.1c0.3,0.167,0.434,0.083,0.4-0.25
			c-0.067-0.3-0.2-0.5-0.4-0.6C0.1-1.017,0-0.917,0-0.65S0.1-0.2,0.3-0.1z"/>
	</g>
</symbol>
<symbol  id="flash0.ai_x5F_5_x2F_Layer_11_x2F__x3C_Path_x3E__x5F_34" viewBox="-0.007 -1.087 0.811 1.074">
	<g id="Layer_1_28_">
		<path style="fill-rule:evenodd;clip-rule:evenodd;fill:#F1FCED;" d="M0.25-0.15c0.4,0.233,0.583,0.167,0.55-0.2
			c-0.033-0.333-0.167-0.566-0.4-0.7c-0.233-0.1-0.367,0-0.4,0.3S0.05-0.25,0.25-0.15z"/>
	</g>
</symbol>
<symbol  id="flash0.ai_x5F_5_x2F_Layer_11_x2F__x3C_Path_x3E__x5F_35" viewBox="-0.006 -0.922 0.662 0.966">
	<g id="Layer_1_27_">
		<path style="fill-rule:evenodd;clip-rule:evenodd;fill:#F1FCED;" d="M0.65-0.25C0.683-0.583,0.567-0.8,0.3-0.9
			C0.067-0.967-0.033-0.883,0-0.65c0,0.2,0.083,0.383,0.25,0.55C0.517,0.133,0.65,0.083,0.65-0.25z"/>
	</g>
</symbol>
<symbol  id="flash0.ai_x5F_5_x2F_Layer_11_x2F__x3C_Path_x3E__x5F_36" viewBox="-0.007 -0.956 0.773 0.968">
	<g id="Layer_1_26_">
		<path style="fill-rule:evenodd;clip-rule:evenodd;fill:#F1FCED;" d="M0.75-0.3c-0.1-0.367-0.267-0.583-0.5-0.65
			C0.05-0.983-0.033-0.867,0-0.6s0.133,0.434,0.3,0.5C0.667,0.1,0.817,0.033,0.75-0.3z"/>
	</g>
</symbol>
<symbol  id="flash0.ai_x5F_5_x2F_Layer_11_x2F__x3C_Path_x3E__x5F_37" viewBox="-0.004 -1.211 1.117 1.271">
	<g id="Layer_1_25_">
		<path style="fill-rule:evenodd;clip-rule:evenodd;fill:#F1FCED;" d="M1.1-0.3C1.033-0.7,0.833-0.983,0.5-1.15
			C0.2-1.283,0.033-1.2,0-0.9c-0.033,0.333,0.133,0.6,0.5,0.8C0.967,0.167,1.167,0.1,1.1-0.3z"/>
	</g>
</symbol>
<symbol  id="flash0.ai_x5F_5_x2F_Layer_11_x2F__x3C_Path_x3E__x5F_38" viewBox="-0.008 -0.629 0.615 0.659">
	<g id="Layer_1_24_">
		<path style="fill-rule:evenodd;clip-rule:evenodd;fill:#F1FCED;" d="M0.6-0.15C0.633-0.383,0.55-0.533,0.35-0.6
			C0.15-0.667,0.033-0.617,0-0.45c-0.033,0.167,0.033,0.3,0.2,0.4C0.433,0.083,0.567,0.05,0.6-0.15z"/>
	</g>
</symbol>
<symbol  id="flash0.ai_x5F_5_x2F_Layer_11_x2F__x3C_Path_x3E__x5F_39" viewBox="-0.007 -1.15 1.332 1.207">
	<g id="Layer_1_23_">
		<path style="fill-rule:evenodd;clip-rule:evenodd;fill:#F1FCED;" d="M1.25-0.4c-0.2-0.5-0.5-0.75-0.9-0.75
			c-0.333,0-0.434,0.117-0.3,0.35c0.133,0.2,0.333,0.4,0.6,0.6C1.25,0.2,1.45,0.133,1.25-0.4z"/>
	</g>
</symbol>
<symbol  id="flash0.ai_x5F_5_x2F_Layer_11_x2F__x3C_Path_x3E__x5F_40" viewBox="0.005 -1.167 0.968 1.167">
	<g id="Layer_1_22_">
		<path style="fill-rule:evenodd;clip-rule:evenodd;fill:#F1FCED;" d="M0.25-0.1c0.567,0.2,0.8,0.1,0.7-0.3
			c-0.067-0.4-0.233-0.65-0.5-0.75c-0.2-0.067-0.333,0.066-0.4,0.4C-0.05-0.383,0.017-0.167,0.25-0.1z"/>
	</g>
</symbol>
<symbol  id="flash0.ai_x5F_5_x2F_Layer_11_x2F__x3C_Path_x3E__x5F_41" viewBox="0.01 -0.807 0.694 0.81">
	<g id="Layer_1_21_">
		<path style="fill-rule:evenodd;clip-rule:evenodd;fill:#F1FCED;" d="M0.7-0.25c0-0.3-0.117-0.483-0.35-0.55
			c-0.167-0.034-0.267,0.05-0.3,0.25C-0.017-0.35,0-0.217,0.1-0.15C0.533,0.083,0.733,0.05,0.7-0.25z"/>
	</g>
</symbol>
<symbol  id="flash0.ai_x5F_5_x2F_Layer_11_x2F__x3C_Path_x3E__x5F_42" viewBox="0 -1.038 0.992 1.021">
	<g id="Layer_1_20_">
		<path style="fill-rule:evenodd;clip-rule:evenodd;fill:#F1FCED;" d="M0.4-0.1c0.5,0.167,0.684,0.083,0.55-0.25
			C0.817-0.683,0.617-0.9,0.35-1C0.117-1.1,0-1,0-0.7C0.033-0.367,0.167-0.167,0.4-0.1z"/>
	</g>
</symbol>
<symbol  id="flash0.ai_x5F_5_x2F_Layer_11_x2F__x3C_Path_x3E__x5F_43" viewBox="-0.002 -0.861 0.769 0.905">
	<g id="Layer_1_19_">
		<path style="fill-rule:evenodd;clip-rule:evenodd;fill:#F1FCED;" d="M0.75-0.25c-0.033-0.367-0.2-0.567-0.5-0.6
			c-0.367-0.066-0.333,0.184,0.1,0.75C0.683,0.133,0.817,0.083,0.75-0.25z"/>
	</g>
</symbol>
<symbol  id="flash0.ai_x5F_5_x2F_Layer_11_x2F__x3C_Path_x3E__x5F_44" viewBox="0.018 -1.268 0.932 1.284">
	<g id="Layer_1_18_">
		<path style="fill-rule:evenodd;clip-rule:evenodd;fill:#F1FCED;" d="M0.95-0.5c0-0.433-0.167-0.683-0.5-0.75
			C0.083-1.317-0.05-1.2,0.05-0.9c0.1,0.3,0.3,0.583,0.6,0.85C0.85,0.117,0.95-0.033,0.95-0.5z"/>
	</g>
</symbol>
<symbol  id="flash0.ai_x5F_5_x2F_Layer_11_x2F__x3C_Path_x3E__x5F_45" viewBox="0 -0.765 0.705 0.821">
	<g id="Layer_1_17_">
		<path style="fill-rule:evenodd;clip-rule:evenodd;fill:#F1FCED;" d="M0.7-0.3C0.667-0.667,0.533-0.817,0.3-0.75
			C0.1-0.717,0-0.617,0-0.45c0.033,0.167,0.133,0.3,0.3,0.4C0.6,0.15,0.733,0.067,0.7-0.3z"/>
	</g>
</symbol>
<symbol  id="flash0.ai_x5F_5_x2F_Layer_11_x2F__x3C_Path_x3E__x5F_46" viewBox="0.01 -0.956 0.996 0.973">
	<g id="Layer_1_16_">
		<path style="fill-rule:evenodd;clip-rule:evenodd;fill:#F1FCED;" d="M0.1-0.8C0-0.667-0.017-0.517,0.05-0.35
			c0.034,0.133,0.1,0.233,0.2,0.3C0.383,0.017,0.533,0.033,0.7,0C0.9-0.067,1-0.2,1-0.4c0.033-0.2-0.067-0.367-0.3-0.5
			C0.467-1,0.267-0.967,0.1-0.8z"/>
	</g>
</symbol>
<symbol  id="flash0.ai_x5F_5_x2F_Layer_11_x2F__x3C_Path_x3E__x5F_47" viewBox="-0.02 -1.156 1.426 1.178">
	<g id="Layer_1_15_">
		<path style="fill-rule:evenodd;clip-rule:evenodd;fill:#F1FCED;" d="M0.95,0C1.217-0.067,1.367-0.183,1.4-0.35
			c0.033-0.133-0.066-0.3-0.3-0.5c-0.267-0.2-0.533-0.3-0.8-0.3C0.033-1.183-0.067-1.083,0-0.85c0.033,0.033,0.133,0.233,0.3,0.6
			C0.4-0.017,0.617,0.067,0.95,0z"/>
	</g>
</symbol>
<symbol  id="flash0.ai_x5F_5_x2F_Layer_11_x2F__x3C_Path_x3E__x5F_48" viewBox="-0.005 -1.054 0.873 1.05">
	<g id="Layer_1_14_">
		<path style="fill-rule:evenodd;clip-rule:evenodd;fill:#F1FCED;" d="M0.4-0.1c0.233,0.167,0.383,0.117,0.45-0.15
			c0.066-0.3-0.05-0.533-0.35-0.7C0.233-1.117,0.067-1.083,0-0.85C-0.033-0.583,0.1-0.333,0.4-0.1z"/>
	</g>
</symbol>
<symbol  id="flash0.ai_x5F_5_x2F_Layer_11_x2F__x3C_Path_x3E__x5F_49" viewBox="-0.014 -1.017 0.814 0.992">
	<g id="Layer_1_13_">
		<path style="fill-rule:evenodd;clip-rule:evenodd;fill:#F1FCED;" d="M0.1-0.25c0.433,0.3,0.667,0.3,0.7,0
			c0-0.3-0.117-0.533-0.35-0.7c-0.2-0.133-0.333-0.066-0.4,0.2C-0.05-0.517-0.033-0.35,0.1-0.25z"/>
	</g>
</symbol>
<symbol  id="flash0.ai_x5F_5_x2F_Layer_11_x2F__x3C_Path_x3E__x5F_50" viewBox="0.01 -0.972 1 0.975">
	<g id="Layer_1_12_">
		<path style="fill-rule:evenodd;clip-rule:evenodd;fill:#F1FCED;" d="M0.95-0.15c0.167-0.333-0.017-0.6-0.55-0.8
			C0.233-1.017,0.117-0.933,0.05-0.7C-0.017-0.5,0-0.35,0.1-0.25C0.567,0.05,0.85,0.083,0.95-0.15z"/>
	</g>
</symbol>
<symbol  id="flash0.ai_x5F_5_x2F_Layer_11_x2F__x3C_Path_x3E__x5F_51" viewBox="0.044 -0.66 0.706 0.656">
	<g id="Layer_1_11_">
		<path style="fill-rule:evenodd;clip-rule:evenodd;fill:#F1FCED;" d="M0.3-0.1c0.3,0.167,0.45,0.117,0.45-0.15
			c0-0.233-0.133-0.367-0.4-0.4C0.117-0.683,0.017-0.633,0.05-0.5C0.05-0.333,0.133-0.2,0.3-0.1z"/>
	</g>
</symbol>
<symbol  id="flash0.ai_x5F_5_x2F_Layer_11_x2F__x3C_Path_x3E__x5F_52" viewBox="-0.02 -0.75 0.729 0.788">
	<g id="Layer_1_10_">
		<path style="fill-rule:evenodd;clip-rule:evenodd;fill:#F1FCED;" d="M0.7-0.3c0-0.3-0.133-0.45-0.4-0.45
			C0.033-0.75-0.067-0.667,0-0.5S0.233-0.167,0.5,0C0.667,0.1,0.733,0,0.7-0.3z"/>
	</g>
</symbol>
<symbol  id="flash0.ai_x5F_5_x2F_Layer_11_x2F__x3C_Path_x3E__x5F_53" viewBox="0.032 -1.206 1.084 1.25">
	<g id="Layer_1_9_">
		<path style="fill-rule:evenodd;clip-rule:evenodd;fill:#F1FCED;" d="M1.1-0.25C1.167-0.583,1.017-0.867,0.65-1.1
			c-0.333-0.2-0.533-0.117-0.6,0.25C-0.017-0.517,0.1-0.267,0.4-0.1C0.767,0.133,1,0.083,1.1-0.25z"/>
	</g>
</symbol>
<symbol  id="flash0.ai_x5F_5_x2F_Layer_11_x2F__x3C_Path_x3E__x5F_54" viewBox="-0.014 -0.804 0.971 0.829">
	<g id="Layer_1_8_">
		<path style="fill-rule:evenodd;clip-rule:evenodd;fill:#F1FCED;" d="M0.9-0.1c0.133-0.2,0.033-0.4-0.3-0.6
			C0.3-0.867,0.117-0.833,0.05-0.6c-0.1,0.267-0.083,0.434,0.05,0.5C0.467,0.067,0.733,0.067,0.9-0.1z"/>
	</g>
</symbol>
<symbol  id="flash0.ai_x5F_5_x2F_Layer_11_x2F__x3C_Path_x3E__x5F_55" viewBox="0.03 -0.757 0.77 0.796">
	<g id="Layer_1_7_">
		<path style="fill-rule:evenodd;clip-rule:evenodd;fill:#F1FCED;" d="M0.8-0.25c0-0.333-0.15-0.5-0.45-0.5
			C0.083-0.783-0.017-0.7,0.05-0.5C0.083-0.333,0.2-0.183,0.4-0.05C0.667,0.117,0.8,0.05,0.8-0.25z"/>
	</g>
</symbol>
<symbol  id="flash0.ai_x5F_5_x2F_Layer_11_x2F__x3C_Path_x3E__x5F_56" viewBox="-0.023 -1.156 1.01 1.2">
	<g id="Layer_1_6_">
		<path style="fill-rule:evenodd;clip-rule:evenodd;fill:#F1FCED;" d="M0.95-0.25c0.1-0.333,0-0.6-0.3-0.8
			c-0.3-0.2-0.5-0.117-0.6,0.25C-0.083-0.467-0.033-0.233,0.2-0.1C0.567,0.133,0.817,0.083,0.95-0.25z"/>
	</g>
</symbol>
<symbol  id="flash0.ai_x5F_5_x2F_Layer_11_x2F__x3C_Path_x3E__x5F_57" viewBox="-0.006 -0.991 0.911 0.98">
	<g id="Layer_1_5_">
		<path style="fill-rule:evenodd;clip-rule:evenodd;fill:#F1FCED;" d="M0.3-0.1C0.7,0.067,0.9,0,0.9-0.3
			c0.033-0.3-0.117-0.517-0.45-0.65C0.183-1.05,0.033-0.967,0-0.7C-0.033-0.433,0.067-0.233,0.3-0.1z"/>
	</g>
</symbol>
<symbol  id="flash0.ai_x5F_5_x2F_Layer_11_x2F__x3C_Path_x3E__x5F_65" viewBox="0 -11.9 14.575 11.909">
	<g id="Layer_1_4_">
		<path style="fill-rule:evenodd;clip-rule:evenodd;fill:#5C5C5C;" d="M13.95-2.45c1.167-1.7,0.7-3.25-1.4-4.65
			C10.917-8.2,8.967-8.85,6.7-9.05C5.533-9.183,4.233-9.3,2.8-9.4C2-9.733,1.617-10.1,1.65-10.5c0-0.267,0.267-0.733,0.8-1.4L0-10.7
			l0.15,1.45l4.2,7.35c0.2,0.333,0.533,0.667,1,1c1,0.667,2.267,0.967,3.8,0.9C11.25-0.1,12.85-0.917,13.95-2.45z"/>
	</g>
</symbol>
<symbol  id="flash0.ai_x5F_5_x2F_Layer_11_x2F__x3C_Path_x3E__x5F_83" viewBox="0.023 -33.05 41.026 33.05">
	<g id="Layer_1_3_">
		<path style="fill-rule:evenodd;clip-rule:evenodd;" d="M40.55-0.35L41.05,0c-0.1-0.367-0.35-0.783-0.75-1.25
			c-0.767-0.967-1.816-1.683-3.15-2.15C36.217-3.733,35.167-3.917,34-3.95c-1.367-0.066-2.067-0.1-2.1-0.1
			c-0.367-0.067-0.583-0.267-0.65-0.6c-0.1-0.767-0.683-2.684-1.75-5.75c-1.2-3.367-2.25-5.917-3.15-7.65
			c-1.067-2.1-2.75-4.233-5.05-6.4c-2.367-2.2-4.95-4.033-7.75-5.5c-3.8-2.066-7.066-3.1-9.8-3.1c-1.367,0-2.417,0.117-3.15,0.35
			c-0.467,0.833-0.65,1.4-0.55,1.7c0.2,0.467,1,0.783,2.4,0.95c1.167,0.1,2.767,0.05,4.8-0.15c2.133,0.2,4.817,1.5,8.05,3.9
			c3.967,2.966,6.8,5.5,8.5,7.6c1.4,1.767,2.733,4.25,4,7.45c0.767,2,1.467,3.917,2.1,5.75c0.333,0.867,0.7,1.45,1.1,1.75
			c0.333,0.267,0.733,0.4,1.2,0.4c0.733,0,1.5,0.1,2.3,0.3c1.333,0.333,2.9,1.283,4.7,2.85C39.933-0.433,40.383-0.483,40.55-0.35z"
			/>
	</g>
</symbol>
<symbol  id="flash0.ai_x5F_5_x2F_Layer_11_x2F__x3C_Path_x3E__x5F_84" viewBox="0 -29.788 34.95 29.779">
	<g id="Layer_1_2_">
		<path style="fill-rule:evenodd;clip-rule:evenodd;" d="M34.45-0.3l0.5-0.35c-1,0-1.667-0.017-2-0.05
			c-0.534-0.066-0.833-0.283-0.9-0.65c-0.1-0.767-0.683-2.683-1.75-5.75c-1.2-3.367-2.25-5.917-3.15-7.65
			c-1.066-2.1-2.75-4.233-5.05-6.4c-2.367-2.2-4.95-4.033-7.75-5.5c-3.434-1.867-6.7-2.9-9.8-3.1c-1.133-0.1-2.066,0-2.8,0.3
			c-0.133,0.067-0.717,0.434-1.75,1.1c0.033,0.133,0.35,0.467,0.95,1l0.9,0.75c-0.133-1.133,0.7-1.85,2.5-2.15
			c2.033-0.367,4.533,0.117,7.5,1.45c3.3,1.466,6.316,3.45,9.05,5.95c3.1,2.833,5.5,6.067,7.2,9.7c1.4,3,2.367,5.75,2.9,8.25
			c0.4,1.867,0.667,2.85,0.8,2.95C32.433,0.083,33.317,0.133,34.45-0.3z"/>
	</g>
</symbol>
<linearGradient id="SVGID_1_" gradientUnits="userSpaceOnUse" x1="-9.8687" y1="26.7344" x2="-8.2685" y2="26.7344" gradientTransform="matrix(-0.0156 -0.9999 0.9999 -0.0156 -1.137732e-004 7.859021e-004)">
	<stop  offset="0" style="stop-color:#3B3B3B"/>
	<stop  offset="1" style="stop-color:#919191"/>
</linearGradient>
<path style="fill-rule:evenodd;clip-rule:evenodd;fill:url(#SVGID_1_);" d="M23.8,10.5c0.233-0.333,0.667-0.717,1.3-1.15
	c0.667-0.467,1.233-0.75,1.7-0.85c0.767-0.2,1.05-0.2,0.85,0l-0.1,0.1l0.25-0.2c0.2-0.167,0.4-0.25,0.6-0.25
	c0.3,0,0.35,0.083,0.15,0.25l0.5-0.15c0.333-0.1,0.534-0.117,0.6-0.05c0.167,0.1,0.133,0.2-0.1,0.3c0.434-0.033,0.534,0.033,0.3,0.2
	c-0.267,0.2-2.267,0.85-6,1.95L23.8,10.5z"/>
<linearGradient id="SVGID_2_" gradientUnits="userSpaceOnUse" x1="-9.9824" y1="18.5869" x2="-3.9413" y2="18.5869" gradientTransform="matrix(0.509 -0.8608 0.8608 0.509 -9.143353e-005 2.325773e-004)">
	<stop  offset="0" style="stop-color:#454545"/>
	<stop  offset="1" style="stop-color:#BABABA"/>
</linearGradient>
<path style="fill-rule:evenodd;clip-rule:evenodd;fill:url(#SVGID_2_);" d="M9.9,16.55c0.2-0.466,0.5-0.966,0.9-1.5
	c0.4-0.5,0.733-0.833,1-1c0.367-0.267,0.55-0.267,0.55,0v0.15l0.25-0.1c0.167-0.033,0.316,0,0.45,0.1l0.25,0.2l0.3-0.15
	c0.233-0.067,0.383-0.083,0.45-0.05l0.2,0.1c0.867-0.2,1.1-0.167,0.7,0.1c-0.434,0.233-1.15,0.783-2.15,1.65
	c-1.2,0.934-1.883,1.583-2.05,1.95c-0.833,1.667-1.25,2.3-1.25,1.9C9.367,18.6,9.5,17.483,9.9,16.55z"/>
<linearGradient id="SVGID_3_" gradientUnits="userSpaceOnUse" x1="-39.3618" y1="1.6875" x2="-20.5967" y2="1.6875" gradientTransform="matrix(-0.6848 -0.7287 0.7287 -0.6848 1.648664e-004 -4.149079e-004)">
	<stop  offset="0" style="stop-color:#CF8D8D"/>
	<stop  offset="0.1765" style="stop-color:#CA9E9E"/>
	<stop  offset="0.4314" style="stop-color:#C4B0B0"/>
	<stop  offset="0.702" style="stop-color:#C0BBBB"/>
	<stop  offset="1" style="stop-color:#BFBFBF"/>
</linearGradient>
<path style="fill-rule:evenodd;clip-rule:evenodd;fill:url(#SVGID_3_);" d="M43.1,7.15c-0.767,0.967-1.816,1.684-3.149,2.15
	c-1.034,0.367-2.383,0.55-4.05,0.55c-1.167,0.033-1.783,0.267-1.85,0.7c-0.1,0.767-0.683,2.684-1.75,5.75
	c-1.2,3.367-2.25,5.917-3.15,7.65c-1.066,2.1-2.75,4.233-5.05,6.399c-2.367,2.2-4.95,4.034-7.75,5.5
	c-3.8,2.067-7.067,3.101-9.8,3.101c-2.066,0-3.6-0.351-4.6-1.05c-0.333-0.267-0.35-0.834-0.05-1.7c0.567-1.233,1.017-2.3,1.35-3.2
	c2.533-6.233,4.567-10.634,6.1-13.2c2.3-3.767,6.45-6.65,12.45-8.65c0.633-0.2,2.934-0.883,6.9-2.05c1.7-0.5,2.75-0.967,3.15-1.4
	c0.4-0.4,0.45-0.917,0.15-1.55c-0.467-0.933-0.683-1.667-0.65-2.2c0.066-1.3,0.767-2.617,2.1-3.95l1.05,1.7
	c0.767,1.233,1.367,2,1.8,2.3c0.067,0.033,0.417,0.333,1.05,0.9c0.3,0.267,0.733,0.417,1.3,0.45c0.467,0,1.367,0.2,2.7,0.6
	c1.167,0.333,1.834,0.433,2,0.3l0.5-0.35C43.75,6.267,43.5,6.683,43.1,7.15z"/>
<use xlink:href="#flash0.ai_x5F_5_x2F_Layer_11_x2F__x3C_Path_x3E__x5F_84"  width="34.95" height="29.779" y="-29.788" transform="matrix(1 0 0 -1 2 9.2002)" style="overflow:visible;opacity:0.3008;enable-background:new    ;"/>
<use xlink:href="#flash0.ai_x5F_5_x2F_Layer_11_x2F__x3C_Path_x3E__x5F_83"  width="41.026" height="33.05" x="0.023" y="-33.05" transform="matrix(1 0 0 -1 2.7998 5.8999)" style="overflow:visible;opacity:0.1719;enable-background:new    ;"/>
<path style="fill-rule:evenodd;clip-rule:evenodd;fill:#595959;" d="M5.45,27.5L2.5,36c-0.3,0.767,0.333,1.783,1.9,3.05
	C4.167,39.15,3.85,39.2,3.45,39.2C2.617,39.233,1.8,38.983,1,38.45c-0.8-0.5-1.017-1.316-0.65-2.45c0.1-0.366,0.633-1.45,1.6-3.25
	c0.3-0.533,0.917-1.434,1.85-2.7C4.667,28.917,5.217,28.066,5.45,27.5z"/>
<path style="fill-rule:evenodd;clip-rule:evenodd;fill:#595959;" d="M32.75,8.7c-0.067,0.133-1.467,0.716-4.2,1.75
	c-3.367,1.233-6.816,3.25-10.35,6.05c-3,2.4-5.25,4.733-6.75,7c-0.867,1.333-2.417,3.733-4.65,7.2c-1.3,1.767-2.283,2.833-2.95,3.2
	C3.45,34.134,3,34.25,2.5,34.25l0.6-1.35c2.267-5.867,4.3-10.267,6.1-13.2c2.267-3.8,6.4-6.684,12.4-8.65
	c0.533-0.167,2.85-0.85,6.95-2.05c1.667-0.5,2.717-0.967,3.15-1.4C32,7.267,32.1,6.917,32,6.55c0-0.066-0.167-0.466-0.5-1.2
	c0.767,0.467,1.25,1,1.45,1.6C33.183,7.55,33.117,8.133,32.75,8.7z"/>
<path style="fill-rule:evenodd;clip-rule:evenodd;fill:#969696;" d="M32.4,7.8c0.067,0.1,0.05,0.267-0.05,0.5
	c-0.067,0.267-0.233,0.517-0.5,0.75c-2.667,1-4.35,1.667-5.05,2c-2.8,1.333-5.667,3.15-8.6,5.45c-2.733,2.2-4.784,4.25-6.15,6.15
	c-0.833,1.166-2.017,3.05-3.55,5.649c-1.1,0.634-2.183,0.983-3.25,1.05c0.2-0.333,0.733-1.533,1.6-3.6
	c0.833-2,1.717-3.783,2.65-5.35c1.133-1.867,2.467-3.4,4-4.601c1.233-0.933,2.967-1.9,5.2-2.9c1.566-0.733,3.633-1.467,6.2-2.2
	c3.133-0.9,4.733-1.367,4.8-1.4c0.8-0.267,1.5-0.633,2.1-1.1C32.167,7.9,32.367,7.767,32.4,7.8z"/>
<path style="fill-rule:evenodd;clip-rule:evenodd;fill:#737373;" d="M6.95,26.75c0.6-0.467,0.883-0.417,0.85,0.15
	c0,0.533-0.183,0.966-0.55,1.3C6.917,28.467,6.7,28.35,6.6,27.85C6.5,27.384,6.617,27.017,6.95,26.75z"/>
<path style="fill-rule:evenodd;clip-rule:evenodd;fill:#737373;" d="M8.9,23.75c0.233-0.2,0.45-0.267,0.65-0.2
	c0.2,0.066,0.233,0.25,0.1,0.55c-0.4,1-0.816,1.483-1.25,1.45c-0.267,0-0.316-0.25-0.15-0.75C8.383,24.333,8.6,23.983,8.9,23.75z"/>
<path style="fill-rule:evenodd;clip-rule:evenodd;fill:#737373;" d="M8.35,26.75c0.5-0.566,0.733-0.6,0.7-0.1
	c-0.066,0.5-0.233,0.916-0.5,1.25c-0.233,0.233-0.367,0.149-0.4-0.25C8.083,27.283,8.15,26.983,8.35,26.75z"/>
<path style="fill-rule:evenodd;clip-rule:evenodd;fill:#737373;" d="M8.85,22.95c-0.4,0.166-0.317-0.3,0.25-1.4
	c0.267-0.633,0.867-1.383,1.8-2.25c0.934-0.9,1.633-1.383,2.1-1.45c0.4-0.033,0.5,0.117,0.3,0.45c-0.2,0.3-0.45,0.534-0.75,0.7
	c-0.133,0.1-0.267,0.3-0.4,0.6c-0.133,0.333-0.3,0.617-0.5,0.85L10.4,21.9C10.033,22.3,9.517,22.65,8.85,22.95z"/>
<path style="fill-rule:evenodd;clip-rule:evenodd;fill:#737373;" d="M10.65,22.4c0.367-0.467,0.55-0.434,0.55,0.1
	c0,0.467-0.233,0.8-0.7,1c-0.4,0.167-0.55,0.116-0.45-0.15C10.117,23.217,10.317,22.9,10.65,22.4z"/>
<path style="fill-rule:evenodd;clip-rule:evenodd;fill:#737373;" d="M17.65,15.05c0.5-0.3,0.867-0.383,1.1-0.25
	c0.2,0.1,0.05,0.284-0.45,0.55c-0.833,0.5-1.433,0.883-1.8,1.15c-0.467,0.4-0.817,0.767-1.05,1.1c-0.333,0.5-0.65,0.9-0.95,1.2
	c-0.5,0.534-0.8,0.517-0.9-0.05c-0.133-0.567-0.05-0.967,0.25-1.2c1.433-1.3,2.367-1.95,2.8-1.95
	C16.75,15.6,17.083,15.417,17.65,15.05z"/>
<path style="fill-rule:evenodd;clip-rule:evenodd;fill:#737373;" d="M16.25,14.55c0.567-0.333,0.967-0.45,1.2-0.35
	c0.233,0.1,0.083,0.316-0.45,0.65c-0.5,0.3-0.817,0.367-0.95,0.2C15.917,14.883,15.983,14.717,16.25,14.55z"/>
<path style="fill-rule:evenodd;clip-rule:evenodd;fill:#737373;" d="M12.8,19.8c0.667-0.5,0.917-0.483,0.75,0.05
	c-0.2,0.534-0.517,0.917-0.95,1.15c-0.367,0.2-0.533,0.134-0.5-0.2C12.133,20.434,12.367,20.1,12.8,19.8z"/>
<path style="fill-rule:evenodd;clip-rule:evenodd;fill:#737373;" d="M20.1,12.85c1.033-0.4,1.55-0.467,1.55-0.2
	c0,0.167-0.117,0.467-0.35,0.9c-0.033,0.333-0.667,0.55-1.9,0.65c-0.533,0.066-0.717-0.083-0.55-0.45
	C19.05,13.417,19.467,13.117,20.1,12.85z"/>
<path style="fill-rule:evenodd;clip-rule:evenodd;fill:#737373;" d="M23.15,12.05c0.633-0.167,0.8-0.083,0.5,0.25
	c-0.267,0.333-0.683,0.517-1.25,0.55c-0.533,0.033-0.65-0.067-0.35-0.3C22.35,12.35,22.717,12.183,23.15,12.05z"/>
<path style="fill-rule:evenodd;clip-rule:evenodd;fill:#737373;" d="M24.45,10.9c0.566-0.167,0.8-0.1,0.7,0.2
	c-0.066,0.3-0.3,0.483-0.7,0.55c-0.3,0.067-0.434-0.017-0.4-0.25C24.083,11.133,24.217,10.967,24.45,10.9z"/>
<path style="fill-rule:evenodd;clip-rule:evenodd;fill:#737373;" d="M26.4,10.3c0.867-0.233,1.167-0.216,0.9,0.05
	c-0.267,0.267-0.633,0.433-1.1,0.5c-0.367,0.033-0.5-0.033-0.4-0.2C25.9,10.483,26.1,10.367,26.4,10.3z"/>
<path style="fill-rule:evenodd;clip-rule:evenodd;fill:#737373;" d="M30.8,8.6c0.4-0.133,0.617-0.133,0.65,0
	c0.033,0.1-0.083,0.2-0.35,0.3c-0.233,0.1-0.4,0.1-0.5,0S30.567,8.7,30.8,8.6z"/>
<linearGradient id="SVGID_4_" gradientUnits="userSpaceOnUse" x1="23.9849" y1="23.4092" x2="34.0787" y2="23.4092" gradientTransform="matrix(0.8495 -0.5275 0.5275 0.8495 3.405809e-004 -2.055168e-004)">
	<stop  offset="0" style="stop-color:#424242"/>
	<stop  offset="1" style="stop-color:#D1D1D1"/>
</linearGradient>
<path style="fill-rule:evenodd;clip-rule:evenodd;fill:url(#SVGID_4_);" d="M41.35,5.95c1.167,0.333,1.834,0.433,2,0.3l0.5-0.35
	c-0.1,0.367-0.35,0.783-0.75,1.25c-0.767,0.967-1.816,1.684-3.149,2.15c-0.9,0.3-2.333,0.5-4.3,0.6C35.917,9.267,36,8.733,35.9,8.3
	c-0.433-2.3-1.533-3.417-3.3-3.35c-0.2,0-0.434,0.117-0.7,0.35l-0.25,0.2c-0.3-0.467-0.45-0.883-0.45-1.25
	c0-1.167,0.383-2.217,1.15-3.15c0.367-0.5,0.733-0.867,1.1-1.1l1.05,1.7c0.767,1.233,1.367,2,1.8,2.3
	c0.067,0.033,0.417,0.333,1.05,0.9c0.3,0.267,0.733,0.417,1.3,0.45C39.117,5.35,40.017,5.55,41.35,5.95z"/>
<g>
	<path style="fill-rule:evenodd;clip-rule:evenodd;fill:#454545;" d="M42.3,7.5c0.667-0.5,1.184-1.033,1.55-1.6
		c-0.1,0.367-0.35,0.783-0.75,1.25c-0.767,0.967-1.816,1.684-3.149,2.15c-0.9,0.3-2.333,0.5-4.3,0.6C35.917,9.267,36,8.733,35.9,8.3
		c-0.433-2.3-1.533-3.417-3.3-3.35c-0.167,0-0.3,0.05-0.4,0.15c-0.434-1.2-0.434-2.217,0-3.05l0.45-0.9
		C32.55,1.383,32.467,1.667,32.4,2c-0.167,0.633-0.2,1.133-0.1,1.5l0.2,0.9c0.367,0.4,0.667,0.383,0.9-0.05
		c0.267-0.5,0.517-1.133,0.75-1.9l-0.1,0.7C33.983,3.65,34,4,34.1,4.2c0.1,0.167,0.15,0.333,0.15,0.5c0.067,0.066,0.217,0,0.45-0.2
		l0.75-0.35c-0.3,0.233-0.417,0.567-0.35,1c0.066,0.434,0.217,0.717,0.45,0.85c0.233,0.133,0.467,0.083,0.7-0.15L37,5.1
		c0,0.533-0.133,0.9-0.4,1.1l-0.85,0.6l0.15,0.5c0.167,0.267,0.5,0.267,1,0c0.8-0.4,1.533-0.983,2.2-1.75
		c-0.067,0.233-0.3,0.65-0.7,1.25c-0.233,0.367-0.65,0.733-1.25,1.1l-0.8,0.4l0.2,0.1c0.233,0.033,0.667-0.017,1.3-0.15
		c1.2-0.233,2.183-0.8,2.95-1.7l0.3-0.3c0.034,0.4-0.45,0.967-1.45,1.7c-0.633,0.466-1.3,0.816-2,1.05l-0.8,0.2l0.45,0.15
		c0.467,0.066,1.133-0.05,2-0.35c1-0.333,1.6-0.55,1.8-0.65C41.233,8.283,41.634,8,42.3,7.5z"/>
</g>
<use xlink:href="#flash0.ai_x5F_5_x2F_Layer_11_x2F__x3C_Path_x3E__x5F_65"  width="14.575" height="11.909" y="-11.9" transform="matrix(1 0 0 -1 2.0498 27.2998)" style="overflow:visible;opacity:0.6094;enable-background:new    ;"/>
<linearGradient id="SVGID_5_" gradientUnits="userSpaceOnUse" x1="1.6685" y1="33.5928" x2="13.4817" y2="33.5928" gradientTransform="matrix(0.9968 -0.0804 0.0804 0.9968 7.531047e-005 -1.822412e-005)">
	<stop  offset="0" style="stop-color:#878787"/>
	<stop  offset="0" style="stop-color:#878787"/>
	<stop  offset="0.1882" style="stop-color:#A8A8A8"/>
	<stop  offset="0.3765" style="stop-color:#C2C2C2"/>
	<stop  offset="0.5725" style="stop-color:#D4D4D4"/>
	<stop  offset="0.7765" style="stop-color:#DFDFDF"/>
	<stop  offset="1" style="stop-color:#E3E3E3"/>
</linearGradient>
<path style="fill-rule:evenodd;clip-rule:evenodd;fill:url(#SVGID_5_);" d="M15.55,29.3c1.1,1.233,0.867,2.5-0.7,3.8
	c-0.8,0.634-1.7,1.15-2.7,1.551l-1.8,0.699c-0.567,0.2-1.6,0.334-3.1,0.4c-1.467,0.066-2.6,0.233-3.4,0.5
	c-0.934,0.333-1.117,0.9-0.55,1.7c0.3,0.366,0.684,0.717,1.15,1.05L2.9,38.8c-1.467-0.233-2.2-0.816-2.2-1.75
	c0.033-0.934,1.033-2.95,3-6.05c1.533-2.267,3.583-3.517,6.15-3.75C12.25,27.05,14.15,27.733,15.55,29.3z"/>
<path style="fill-rule:evenodd;clip-rule:evenodd;fill:#707070;" d="M12.1,34.7l-1.8,0.649c-0.566,0.233-1.6,0.384-3.1,0.45
	s-2.633,0.233-3.4,0.5c-0.933,0.334-1.117,0.884-0.55,1.65C3.55,38.35,3.933,38.7,4.4,39l-1.55-0.2C1.917,38.7,1.283,38.4,0.95,37.9
	c-0.167-0.267-0.267-0.5-0.3-0.7v-0.15l0.15-0.8c0.4-0.566,1.367-0.917,2.9-1.05C4.833,35.1,6.4,35.033,8.4,35
	c1.833-0.1,3.55-0.5,5.15-1.2L14.4,33.4C13.667,33.934,12.9,34.366,12.1,34.7z"/>
<linearGradient id="SVGID_6_" gradientUnits="userSpaceOnUse" x1="-2.1382" y1="32.8203" x2="2.6746" y2="32.8203" gradientTransform="matrix(0.9869 -0.161 0.161 0.9869 4.027486e-004 -9.888411e-005)">
	<stop  offset="0" style="stop-color:#878787"/>
	<stop  offset="0" style="stop-color:#878787"/>
	<stop  offset="0.1882" style="stop-color:#A8A8A8"/>
	<stop  offset="0.3765" style="stop-color:#C2C2C2"/>
	<stop  offset="0.5725" style="stop-color:#D4D4D4"/>
	<stop  offset="0.7765" style="stop-color:#DFDFDF"/>
	<stop  offset="1" style="stop-color:#E3E3E3"/>
</linearGradient>
<path style="fill-rule:evenodd;clip-rule:evenodd;fill:url(#SVGID_6_);" d="M3,32.5c0.033-0.366,0.3-0.767,0.8-1.2
	c0.5-0.467,0.983-0.733,1.45-0.8c0.7-0.1,1.2-0.116,1.5-0.05c0.633,0.133,1.083,0.566,1.35,1.3c0.2,0.566,0.1,1.1-0.3,1.6
	c-0.466,0.534-1.216,0.817-2.25,0.851C3.717,34.233,2.867,33.667,3,32.5z"/>
<path style="fill-rule:evenodd;clip-rule:evenodd;fill:#FFFFFF;" d="M4,31.6c0.933-0.833,1.783-1,2.55-0.5
	c0.767,0.5,0.967,1.017,0.6,1.551c-0.267,0.5-0.566,0.833-0.9,1C5.85,33.85,5.3,33.917,4.6,33.85c-0.7-0.066-1.083-0.383-1.15-0.949
	C3.383,32.4,3.567,31.967,4,31.6z"/>
<path style="fill-rule:evenodd;clip-rule:evenodd;fill:#454545;" d="M4.25,31.6c0.567-0.399,1.083-0.517,1.55-0.35
	c0.4,0.167,0.633,0.417,0.7,0.75c0.1,0.333,0.017,0.65-0.25,0.95c-0.3,0.366-0.733,0.533-1.3,0.5c-0.6,0-0.967-0.233-1.1-0.7
	C3.75,32.283,3.883,31.9,4.25,31.6z"/>
<path style="fill-rule:evenodd;clip-rule:evenodd;fill:#FFFFFF;" d="M5.05,31.9c0.2,0.333,0.117,0.649-0.25,0.949
	c-0.4,0.233-0.716,0.167-0.95-0.199c-0.233-0.334-0.15-0.634,0.25-0.9C4.467,31.55,4.783,31.6,5.05,31.9z"/>
<path style="fill-rule:evenodd;clip-rule:evenodd;fill:#FFFFFF;" d="M6.3,32.25c0.1,0.167,0.067,0.3-0.1,0.4
	C6.033,32.717,5.9,32.7,5.8,32.6c-0.066-0.166-0.017-0.3,0.15-0.399C6.117,32.1,6.233,32.116,6.3,32.25z"/>
<use xlink:href="#flash0.ai_x5F_5_x2F_Layer_11_x2F__x3C_Path_x3E__x5F_57"  width="0.911" height="0.98" x="-0.006" y="-0.991" transform="matrix(1 0 0 -1 13.3999 24.7998)" style="overflow:visible;opacity:0.8203;enable-background:new    ;"/>
<use xlink:href="#flash0.ai_x5F_5_x2F_Layer_11_x2F__x3C_Path_x3E__x5F_56"  width="1.01" height="1.2" x="-0.023" y="-1.156" transform="matrix(1 0 0 -1 15.2002 24.4502)" style="overflow:visible;opacity:0.8203;enable-background:new    ;"/>
<use xlink:href="#flash0.ai_x5F_5_x2F_Layer_11_x2F__x3C_Path_x3E__x5F_55"  width="0.77" height="0.796" x="0.03" y="-0.757" transform="matrix(1 0 0 -1 14.3501 26)" style="overflow:visible;opacity:0.8203;enable-background:new    ;"/>
<use xlink:href="#flash0.ai_x5F_5_x2F_Layer_11_x2F__x3C_Path_x3E__x5F_54"  width="0.971" height="0.829" x="-0.014" y="-0.804" transform="matrix(1 0 0 -1 16.2002 25.6504)" style="overflow:visible;opacity:0.8203;enable-background:new    ;"/>
<use xlink:href="#flash0.ai_x5F_5_x2F_Layer_11_x2F__x3C_Path_x3E__x5F_53"  width="1.084" height="1.25" x="0.032" y="-1.206" transform="matrix(1 0 0 -1 16.6499 23.75)" style="overflow:visible;opacity:0.8203;enable-background:new    ;"/>
<use xlink:href="#flash0.ai_x5F_5_x2F_Layer_11_x2F__x3C_Path_x3E__x5F_52"  width="0.729" height="0.788" x="-0.02" y="-0.75" transform="matrix(1 0 0 -1 14.75 23.2998)" style="overflow:visible;opacity:0.8203;enable-background:new    ;"/>
<use xlink:href="#flash0.ai_x5F_5_x2F_Layer_11_x2F__x3C_Path_x3E__x5F_51"  width="0.706" height="0.656" x="0.044" y="-0.66" transform="matrix(1 0 0 -1 13.2998 23.4502)" style="overflow:visible;opacity:0.8203;enable-background:new    ;"/>
<use xlink:href="#flash0.ai_x5F_5_x2F_Layer_11_x2F__x3C_Path_x3E__x5F_50"  width="1" height="0.975" x="0.01" y="-0.972" transform="matrix(1 0 0 -1 16.3501 22.1504)" style="overflow:visible;opacity:0.8203;enable-background:new    ;"/>
<use xlink:href="#flash0.ai_x5F_5_x2F_Layer_11_x2F__x3C_Path_x3E__x5F_49"  width="0.814" height="0.992" x="-0.014" y="-1.017" transform="matrix(1 0 0 -1 15.3999 21.2002)" style="overflow:visible;opacity:0.8203;enable-background:new    ;"/>
<use xlink:href="#flash0.ai_x5F_5_x2F_Layer_11_x2F__x3C_Path_x3E__x5F_48"  width="0.873" height="1.05" x="-0.005" y="-1.054" transform="matrix(1 0 0 -1 16.9502 20.4502)" style="overflow:visible;opacity:0.8203;enable-background:new    ;"/>
<use xlink:href="#flash0.ai_x5F_5_x2F_Layer_11_x2F__x3C_Path_x3E__x5F_47"  width="1.426" height="1.178" x="-0.02" y="-1.156" transform="matrix(1 0 0 -1 17.7002 21.7002)" style="overflow:visible;opacity:0.8203;enable-background:new    ;"/>
<use xlink:href="#flash0.ai_x5F_5_x2F_Layer_11_x2F__x3C_Path_x3E__x5F_46"  width="0.996" height="0.973" x="0.01" y="-0.956" transform="matrix(1 0 0 -1 18.3501 23.4004)" style="overflow:visible;opacity:0.8203;enable-background:new    ;"/>
<use xlink:href="#flash0.ai_x5F_5_x2F_Layer_11_x2F__x3C_Path_x3E__x5F_45"  width="0.705" height="0.821" y="-0.765" transform="matrix(1 0 0 -1 17.75 25.1504)" style="overflow:visible;opacity:0.8203;enable-background:new    ;"/>
<use xlink:href="#flash0.ai_x5F_5_x2F_Layer_11_x2F__x3C_Path_x3E__x5F_44"  width="0.932" height="1.284" x="0.018" y="-1.268" transform="matrix(1 0 0 -1 19.1001 19.25)" style="overflow:visible;opacity:0.8203;enable-background:new    ;"/>
<use xlink:href="#flash0.ai_x5F_5_x2F_Layer_11_x2F__x3C_Path_x3E__x5F_43"  width="0.769" height="0.905" x="-0.002" y="-0.861" transform="matrix(1 0 0 -1 19.6001 21.25)" style="overflow:visible;opacity:0.8203;enable-background:new    ;"/>
<use xlink:href="#flash0.ai_x5F_5_x2F_Layer_11_x2F__x3C_Path_x3E__x5F_42"  width="0.992" height="1.021" y="-1.038" transform="matrix(1 0 0 -1 21.0498 20.75)" style="overflow:visible;opacity:0.8203;enable-background:new    ;"/>
<use xlink:href="#flash0.ai_x5F_5_x2F_Layer_11_x2F__x3C_Path_x3E__x5F_41"  width="0.694" height="0.81" x="0.01" y="-0.807" transform="matrix(1 0 0 -1 17.7998 19.25)" style="overflow:visible;opacity:0.8203;enable-background:new    ;"/>
<use xlink:href="#flash0.ai_x5F_5_x2F_Layer_11_x2F__x3C_Path_x3E__x5F_40"  width="0.968" height="1.167" x="0.005" y="-1.167" transform="matrix(1 0 0 -1 21 17.7002)" style="overflow:visible;opacity:0.8203;enable-background:new    ;"/>
<use xlink:href="#flash0.ai_x5F_5_x2F_Layer_11_x2F__x3C_Path_x3E__x5F_39"  width="1.332" height="1.207" x="-0.007" y="-1.15" transform="matrix(1 0 0 -1 22.3999 18.0498)" style="overflow:visible;opacity:0.8203;enable-background:new    ;"/>
<use xlink:href="#flash0.ai_x5F_5_x2F_Layer_11_x2F__x3C_Path_x3E__x5F_38"  width="0.615" height="0.659" x="-0.008" y="-0.629" transform="matrix(1 0 0 -1 21.25 19.6499)" style="overflow:visible;opacity:0.8203;enable-background:new    ;"/>
<use xlink:href="#flash0.ai_x5F_5_x2F_Layer_11_x2F__x3C_Path_x3E__x5F_37"  width="1.117" height="1.271" x="-0.004" y="-1.211" transform="matrix(1 0 0 -1 23.5498 15.75)" style="overflow:visible;opacity:0.8203;enable-background:new    ;"/>
<use xlink:href="#flash0.ai_x5F_5_x2F_Layer_11_x2F__x3C_Path_x3E__x5F_36"  width="0.773" height="0.968" x="-0.007" y="-0.956" transform="matrix(1 0 0 -1 24.3501 17.4502)" style="overflow:visible;opacity:0.8203;enable-background:new    ;"/>
<use xlink:href="#flash0.ai_x5F_5_x2F_Layer_11_x2F__x3C_Path_x3E__x5F_35"  width="0.662" height="0.966" x="-0.006" y="-0.922" transform="matrix(1 0 0 -1 22.75 19.8501)" style="overflow:visible;opacity:0.8203;enable-background:new    ;"/>
<use xlink:href="#flash0.ai_x5F_5_x2F_Layer_11_x2F__x3C_Path_x3E__x5F_34"  width="0.811" height="1.074" x="-0.007" y="-1.087" transform="matrix(1 0 0 -1 20.0498 22.6504)" style="overflow:visible;opacity:0.8203;enable-background:new    ;"/>
<use xlink:href="#flash0.ai_x5F_5_x2F_Layer_11_x2F__x3C_Path_x3E__x5F_33"  width="0.705" height="0.953" y="-0.97" transform="matrix(1 0 0 -1 11.6001 25.1504)" style="overflow:visible;opacity:0.8203;enable-background:new    ;"/>
<use xlink:href="#flash0.ai_x5F_5_x2F_Layer_11_x2F__x3C_Path_x3E__x5F_32"  width="0.959" height="1.142" x="0.011" y="-1.117" transform="matrix(1 0 0 -1 21.6001 16)" style="overflow:visible;opacity:0.8203;enable-background:new    ;"/>
<use xlink:href="#flash0.ai_x5F_5_x2F_Layer_11_x2F__x3C_Path_x3E__x5F_31"  width="1.21" height="1.099" x="0.015" y="-1.106" transform="matrix(1 0 0 -1 19.2002 17.1499)" style="overflow:visible;opacity:0.8203;enable-background:new    ;"/>
<use xlink:href="#flash0.ai_x5F_5_x2F_Layer_11_x2F__x3C_Path_x3E__x5F_30"  width="1.141" height="0.91" x="-0.018" y="-0.896" transform="matrix(1 0 0 -1 22.7002 14.6499)" style="overflow:visible;opacity:0.8203;enable-background:new    ;"/>
<use xlink:href="#flash0.ai_x5F_5_x2F_Layer_11_x2F__x3C_Path_x3E__x5F_29"  width="0.606" height="0.7" y="-0.7" transform="matrix(1 0 0 -1 24.6499 13.2002)" style="overflow:visible;opacity:0.8203;enable-background:new    ;"/>
<use xlink:href="#flash0.ai_x5F_5_x2F_Layer_11_x2F__x3C_Path_x3E__x5F_28"  width="0.663" height="0.692" x="-0.008" y="-0.679" transform="matrix(1 0 0 -1 24.6499 14.3501)" style="overflow:visible;opacity:0.8203;enable-background:new    ;"/>
<use xlink:href="#flash0.ai_x5F_5_x2F_Layer_11_x2F__x3C_Path_x3E__x5F_27"  width="0.834" height="0.93" y="-0.891" transform="matrix(1 0 0 -1 25.3999 15.4502)" style="overflow:visible;opacity:0.8203;enable-background:new    ;"/>
<use xlink:href="#flash0.ai_x5F_5_x2F_Layer_11_x2F__x3C_Path_x3E__x5F_26"  width="0.878" height="0.655" x="0.05" y="-0.675" transform="matrix(1 0 0 -1 25.8501 13.1499)" style="overflow:visible;opacity:0.8203;enable-background:new    ;"/>
<use xlink:href="#flash0.ai_x5F_5_x2F_Layer_11_x2F__x3C_Path_x3E__x5F_25"  width="0.606" height="0.639" y="-0.639" transform="matrix(1 0 0 -1 20.2002 16.1001)" style="overflow:visible;opacity:0.8203;enable-background:new    ;"/>
<use xlink:href="#flash0.ai_x5F_5_x2F_Layer_11_x2F__x3C_Path_x3E__x5F_24"  width="0.706" height="0.612" y="-0.606" transform="matrix(1 0 0 -1 25.4502 12.4502)" style="overflow:visible;opacity:0.8203;enable-background:new    ;"/>
<use xlink:href="#flash0.ai_x5F_5_x2F_Layer_11_x2F__x3C_Path_x3E__x5F_23"  width="0.65" height="0.659" y="-0.629" transform="matrix(1 0 0 -1 26.7998 12.0498)" style="overflow:visible;opacity:0.8203;enable-background:new    ;"/>
<use xlink:href="#flash0.ai_x5F_5_x2F_Layer_11_x2F__x3C_Path_x3E__x5F_22"  width="0.657" height="0.73" x="0.044" y="-0.68" transform="matrix(1 0 0 -1 28.25 11.3999)" style="overflow:visible;opacity:0.8203;enable-background:new    ;"/>
<use xlink:href="#flash0.ai_x5F_5_x2F_Layer_11_x2F__x3C_Path_x3E__x5F_21"  width="0.805" height="0.827" x="-0.006" y="-0.823" transform="matrix(1 0 0 -1 27.1001 13.3999)" style="overflow:visible;opacity:0.8203;enable-background:new    ;"/>
<use xlink:href="#flash0.ai_x5F_5_x2F_Layer_11_x2F__x3C_Path_x3E__x5F_20"  width="0.74" height="1.032" x="-0.033" y="-1.004" transform="matrix(1 0 0 -1 26.7002 14.8501)" style="overflow:visible;opacity:0.8203;enable-background:new    ;"/>
<use xlink:href="#flash0.ai_x5F_5_x2F_Layer_11_x2F__x3C_Path_x3E__x5F_19"  width="1.09" height="0.753" y="-0.773" transform="matrix(1 0 0 -1 29.6499 10.8501)" style="overflow:visible;opacity:0.8203;enable-background:new    ;"/>
<use xlink:href="#flash0.ai_x5F_5_x2F_Layer_11_x2F__x3C_Path_x3E__x5F_18"  width="11.972" height="9.995" x="0.03" y="-9.961" transform="matrix(1 0 0 -1 8.75 12.5)" style="overflow:visible;opacity:0.5391;enable-background:new    ;"/>
<use xlink:href="#flash0.ai_x5F_5_x2F_Layer_11_x2F__x3C_Path_x3E__x5F_17"  width="1.6" height="0.883" x="0" y="-0.889" transform="matrix(1 0 0 -1 21.6001 11.2998)" style="overflow:visible;opacity:0.5391;enable-background:new    ;"/>
<use xlink:href="#flash0.ai_x5F_5_x2F_Layer_11_x2F__x3C_Path_x3E__x5F_16"  width="1.177" height="0.664" x="0.033" y="-0.639" transform="matrix(1 0 0 -1 24.6001 10.5498)" style="overflow:visible;opacity:0.5391;enable-background:new    ;"/>
<use xlink:href="#flash0.ai_x5F_5_x2F_Layer_11_x2F__x3C_Path_x3E__x5F_15"  width="1.557" height="1.867" x="0.047" y="-1.839" transform="matrix(1 0 0 -1 7.1001 24.1504)" style="overflow:visible;opacity:0.5391;enable-background:new    ;"/>
<path style="fill-rule:evenodd;clip-rule:evenodd;fill:#F1FCED;" d="M22.25,13.45c1.8-1.067,2.983-1.684,3.55-1.85
	c0.333-0.1,0.333,0.017,0,0.35c-0.267,0.333-0.633,0.65-1.1,0.95c-1.233,0.733-2,1.317-2.3,1.75c-0.2,0.3-0.517,0.6-0.95,0.9
	c-0.567,0.333-1.017,0.6-1.35,0.8c-0.4,0.233-0.633,0.417-0.7,0.55c-0.033,0.133-0.133,0.417-0.3,0.85
	c-0.167,0.367-0.483,0.633-0.95,0.8c-0.6,0.233-0.967,0.4-1.1,0.5c-0.267,0.233-0.483,0.55-0.65,0.95c-0.2,0.467-0.4,0.816-0.6,1.05
	c-0.167,0.233-0.617,0.55-1.35,0.95c-0.733,0.434-1.333,0.934-1.8,1.5c-0.6,0.733-0.9,0.85-0.9,0.35
	c-0.033-0.5,0.217-1.116,0.75-1.85c1.233-1.733,2.617-3.283,4.15-4.65C18.117,16.083,19.983,14.783,22.25,13.45z"/>
<path style="fill-rule:evenodd;clip-rule:evenodd;fill:#F1FCED;" d="M10.9,24.7c0.5-0.3,0.667-0.233,0.5,0.2
	c-0.133,0.433-0.35,0.75-0.65,0.949c-0.267,0.167-0.4,0.084-0.4-0.25C10.35,25.233,10.533,24.934,10.9,24.7z"/>
<path style="fill-rule:evenodd;clip-rule:evenodd;fill:#F1FCED;" d="M28.2,10.25c0.533-0.2,0.85-0.233,0.95-0.1
	c0.067,0.1,0.017,0.25-0.15,0.45c-0.267,0.333-0.767,0.5-1.5,0.5c-0.333-0.033-0.417-0.133-0.25-0.3
	C27.383,10.6,27.7,10.417,28.2,10.25z"/>
<path style="fill-rule:evenodd;clip-rule:evenodd;fill:#F1FCED;" d="M30.45,9.55c0.566-0.133,0.8-0.083,0.7,0.15
	c-0.133,0.233-0.367,0.367-0.7,0.4c-0.267,0.033-0.4-0.033-0.4-0.2C30.017,9.7,30.15,9.583,30.45,9.55z"/>
<use xlink:href="#flash0.ai_x5F_5_x2F_Layer_11_x2F__x3C_Path_x3E__x5F_10"  width="5.263" height="4.133" x="-0.013" y="-4.133" transform="matrix(1 0 0 -1 17.1499 25.6504)" style="overflow:visible;opacity:0.1719;enable-background:new    ;"/>
<linearGradient id="SVGID_7_" gradientUnits="userSpaceOnUse" x1="-11.6797" y1="33.2715" x2="-4.4288" y2="33.2715" gradientTransform="matrix(0.6516 -0.7585 0.7585 0.6516 -1.800656e-004 3.024340e-004)">
	<stop  offset="0" style="stop-color:#3D3D3D"/>
	<stop  offset="1" style="stop-color:#C7C7C7"/>
</linearGradient>
<path style="fill-rule:evenodd;clip-rule:evenodd;fill:url(#SVGID_7_);" d="M17.25,28.05c0.433-0.133,1.283-0.6,2.55-1.399
	c0.633-0.301,1.184-0.784,1.65-1.45l0.15,0.55c0.066,0.467,0,1.033-0.2,1.7c-0.2,0.666-0.15,1.05,0.15,1.149
	c0.167,0.034,0.333,0,0.5-0.1l-0.7,0.45c-0.8,0.5-1.917,0.649-3.35,0.45c-0.633-0.101-1.017-0.317-1.15-0.65
	C16.717,28.45,16.85,28.217,17.25,28.05z"/>
<path style="fill-rule:evenodd;clip-rule:evenodd;fill:#F1FCED;" d="M16.75,29.35c-0.6-0.3-0.933-0.649-1-1.05
	c-0.067-0.2,0.017-0.434,0.25-0.7s0.483-0.399,0.75-0.399c0.233,0,0.317,0.05,0.25,0.149c-0.033,0.067-0.2,0.284-0.5,0.65
	C16.167,28.5,16.25,28.95,16.75,29.35z"/>
<path style="fill-rule:evenodd;clip-rule:evenodd;fill:#9E9E9E;" d="M7.5,30c0.467-0.1,0.917,0.1,1.35,0.6
	c0.433,0.467,0.667,0.967,0.7,1.5c0.034,0.667-0.3,1.134-1,1.4l0.2-1.4c0.067-0.466-0.117-0.949-0.55-1.449L7.5,30z"/>
<path style="fill-rule:evenodd;clip-rule:evenodd;fill:#F1FCED;" d="M10.75,32c0.2-0.233,0.45-0.283,0.75-0.15
	c0.3,0.134,0.35,0.284,0.15,0.45c-0.233,0.134-0.5,0.167-0.8,0.101C10.55,32.333,10.517,32.2,10.75,32z"/>
<path style="fill-rule:evenodd;clip-rule:evenodd;fill:#F1FCED;" d="M10.95,29.9c0.6-0.334,1.05-0.267,1.35,0.199
	c0.3,0.467,0.2,0.767-0.3,0.9c-0.4,0.134-0.717,0.017-0.95-0.35C10.783,30.283,10.75,30.033,10.95,29.9z"/>
<path style="fill-rule:evenodd;clip-rule:evenodd;fill:#F1FCED;" d="M11.05,28.1c0.4-0.166,0.617-0.149,0.65,0.051
	c0.033,0.233-0.15,0.383-0.55,0.449c-0.333,0.067-0.517,0.034-0.55-0.1S10.717,28.233,11.05,28.1z"/>
<path style="fill-rule:evenodd;clip-rule:evenodd;fill:#F1FCED;" d="M12.7,28.45c0.333-0.101,0.55-0.066,0.65,0.1
	c0.1,0.167,0,0.283-0.3,0.351c-0.267,0.1-0.433,0.066-0.5-0.101C12.483,28.634,12.533,28.517,12.7,28.45z"/>
<path style="fill-rule:evenodd;clip-rule:evenodd;fill:#F1FCED;" d="M13.35,30.55c0.533-0.2,0.8-0.116,0.8,0.25
	c0,0.4-0.167,0.667-0.5,0.8c-0.267,0.134-0.433,0.017-0.5-0.35C13.05,30.85,13.117,30.616,13.35,30.55z"/>
<path style="fill-rule:evenodd;clip-rule:evenodd;fill:#454545;" d="M18.35,27.65c-0.533,0.333-0.733,0.483-0.6,0.449
	c0.167,0,0.383-0.083,0.65-0.25c0.5-0.333,0.767-0.5,0.8-0.5l1.35-0.8c-0.566,0.601-1.033,0.983-1.4,1.15l-1.3,0.7l0.75,0.05
	c0.6-0.134,1.15-0.384,1.65-0.75l0.3-0.2c-0.367,0.434-0.783,0.75-1.25,0.95c-0.433,0.233-0.883,0.366-1.35,0.399l0.25,0.25
	c0.2,0.134,0.433,0.167,0.7,0.101c0.434-0.101,0.767-0.217,1-0.351c-0.2,0.301-0.483,0.467-0.85,0.5l-0.8,0.051l0.475,0.25
	c-0.152-0.046-0.26-0.079-0.325-0.101c-0.9-0.267-1.4-0.483-1.5-0.649c-0.1-0.2-0.15-0.317-0.15-0.351
	c0.033-0.033,0.083-0.116,0.15-0.25c0.133-0.166,0.467-0.366,1-0.6l1.1-0.65C18.733,27.384,18.517,27.583,18.35,27.65z"/>
<linearGradient id="SVGID_8_" gradientUnits="userSpaceOnUse" x1="19.29" y1="28.4473" x2="24.2084" y2="28.4473" gradientTransform="matrix(0.8489 -0.5286 0.5286 0.8489 -7.259846e-005 -1.233220e-004)">
	<stop  offset="0" style="stop-color:#3B3B3B"/>
	<stop  offset="1" style="stop-color:#A1A1A1"/>
</linearGradient>
<path style="fill-rule:evenodd;clip-rule:evenodd;fill:url(#SVGID_8_);" d="M33.35,11.3c0.167-1.1,0.583-1.533,1.25-1.3
	c0.333,0.1,0.333,0.217,0,0.35l0.15,0.1c0.133,0.133,0.233,0.316,0.3,0.55c0.1,0.367-0.05,0.533-0.45,0.5l0.15,0.1
	c0.1,0.133,0.133,0.3,0.1,0.5c-0.033,0.3-0.117,0.467-0.25,0.5l0.05,0.25c0.033,0.1-0.25,0.417-0.85,0.95
	c-0.233,0.233-0.533,0.617-0.9,1.15l-0.45,0.7l0.35-0.95C32.967,14.2,33.15,13.067,33.35,11.3z"/>
</svg>
