<?xml version="1.0" encoding="iso-8859-1"?>
<!-- Generator: Adobe Illustrator 15.1.0, SVG Export Plug-In . SVG Version: 6.00 Build 0)  -->
<!DOCTYPE svg PUBLIC "-//W3C//DTD SVG 1.1//EN" "http://www.w3.org/Graphics/SVG/1.1/DTD/svg11.dtd">
<svg version="1.1" id="FlashAICB" xmlns="http://www.w3.org/2000/svg" xmlns:xlink="http://www.w3.org/1999/xlink" x="0px" y="0px"
	 width="57.85px" height="25.95px" viewBox="0 0 57.85 25.95" style="enable-background:new 0 0 57.85 25.95;" xml:space="preserve"
	>
<g>
	<g>
		<path style="fill-rule:evenodd;clip-rule:evenodd;fill:#C6B64E;" d="M21.3,7.35c-0.4,0.1-0.683,0.1-0.85,0
			c-0.2-0.167-0.184-0.434,0.05-0.8l0.25-0.25c0.1-0.1,0.167-0.216,0.2-0.35C20.983,5.883,21,5.633,21,5.2
			c-0.267-0.034-0.45,0.1-0.55,0.4c-0.1,0.333-0.184,0.55-0.25,0.65c-0.233,0.267-0.583,0.45-1.05,0.55
			c-0.533,0.133-0.883,0.017-1.05-0.35L17.6,6.1c0.2-0.267,0.417-0.717,0.65-1.35c0.267-0.533,0.633-0.833,1.1-0.9
			c1.667-0.267,2.6,0.017,2.8,0.85C22.483,6.267,22.2,7.15,21.3,7.35z"/>
		<g>
			<path style="fill-rule:evenodd;clip-rule:evenodd;fill:#817633;" d="M22.15,4.7c0.133,1.033,0.05,1.767-0.25,2.2l-0.35,0.35
				l-0.25,0.1c-0.4,0.1-0.683,0.1-0.85,0c-0.2-0.167-0.184-0.434,0.05-0.8l0.25-0.25c0.1-0.1,0.167-0.216,0.2-0.35
				C20.983,5.883,21,5.633,21,5.2c-0.267-0.034-0.45,0.1-0.55,0.4c-0.1,0.333-0.184,0.55-0.25,0.65
				c-0.233,0.267-0.583,0.45-1.05,0.55c-0.533,0.133-0.883,0.017-1.05-0.35L17.6,6.1c0.066-0.133,0.217-0.45,0.45-0.95L18.1,5.2
				c0.167,0.1,0.417,0.167,0.75,0.2c0.367,0.033,0.633,0.017,0.8-0.05c0.133-0.1,0.267-0.283,0.4-0.55
				c0.367-0.533,0.85-0.816,1.45-0.85C21.833,4.117,22.05,4.367,22.15,4.7z"/>
			<path style="fill-rule:evenodd;clip-rule:evenodd;fill:#F9E97B;" d="M18.2,4.85c0.3-0.633,0.683-0.967,1.15-1l1-0.1L20,3.85
				c-0.333,0.1-0.65,0.267-0.95,0.5C18.65,4.683,18.367,4.85,18.2,4.85z"/>
		</g>
		<path style="fill-rule:evenodd;clip-rule:evenodd;fill:#534A22;" d="M28.35,1.1c0.967,0.267,1.784,0.7,2.45,1.3
			c0.7,0.533,1.65,0.767,2.851,0.7c1.767-0.133,2.733-0.184,2.899-0.15c1.7,0.167,2.9,1.1,3.601,2.8
			c0.767,1.767,0.75,3.867-0.051,6.3c-0.3,0.9-0.983,1.9-2.05,3c-1,1.066-1.833,1.717-2.5,1.95c-2.434,0.967-5.116,1.5-8.05,1.6
			c-1.566,0.067-2.767,0.217-3.6,0.45c-1.233,0.367-2.383,1.05-3.45,2.05c-1.667,1.534-2.9,2.4-3.7,2.601
			c-2.066,0.566-3.533,0.149-4.4-1.25c-1.033-1.667-0.9-3.4,0.4-5.2c1.1-1.566,2.267-2.467,3.5-2.7c1.067-0.2,2.467-0.217,4.2-0.05
			c2.433,0.267,3.85,0.4,4.25,0.4c1.566,0.066,2.883-0.051,3.95-0.351c1.966-0.533,2.883-1.55,2.75-3.05
			c-0.134-1.667-0.801-2.667-2-3c-0.101-0.033-1.084-0.083-2.95-0.15c-0.833,0-1.317-0.017-1.45-0.05
			c-0.7-0.133-1.117-0.533-1.25-1.2c-0.3-1.7-1.3-2.35-3-1.95c-2.4,0.567-3.65,0.833-3.75,0.8c-0.2-0.034-0.267-0.233-0.2-0.6
			c0.034-0.333,0.15-0.467,0.35-0.4c0.233,0.066,1.5-0.217,3.8-0.85c1.667-0.467,2.75,0.1,3.25,1.7c0.4,1.367,1.6,1.917,3.6,1.65
			c2.066-0.3,3.351,0.25,3.851,1.65c1.466,4.1-0.15,6.4-4.851,6.9c-1.5,0.134-3.333,0.1-5.5-0.1c-1.966-0.267-3.116-0.4-3.45-0.4
			c-1.6-0.033-3.1,0.767-4.5,2.4c-0.133,2.166,0.033,3.533,0.5,4.1c0.333,0.467,1.233,0.7,2.7,0.7c0.2,0,0.483-0.117,0.85-0.351
			c0.434-0.267,1.55-1.149,3.35-2.649c1.3-1.101,2.45-1.767,3.45-2c1.7-0.4,4.149-0.667,7.35-0.8c2.8-0.4,5.117-1.684,6.95-3.851
			c2.066-2.733,2.184-5.433,0.35-8.1C37.717,4.117,36.566,3.8,35.4,4c-0.367,0-1.434,0.083-3.2,0.25c-0.5,0.033-1.167-0.267-2-0.9
			c-1-0.733-1.667-1.15-2-1.25c-1.967-0.6-3.217-0.95-3.75-1.05c-1.434-0.233-2.7-0.133-3.8,0.3C18.883,2.183,17.6,2.967,16.8,3.7
			c0-0.034-0.05-0.05-0.15-0.05C16.283,3.717,16.017,4,15.85,4.5L15.8,4.55L15.55,4.9c-0.2-1.267,0.534-2.4,2.2-3.4
			c1.133-0.667,2.267-1.1,3.4-1.3c1.133-0.233,2.333-0.233,3.6,0C25.55,0.333,26.75,0.633,28.35,1.1z"/>
		<g>
			<path style="fill-rule:evenodd;clip-rule:evenodd;fill:#383217;" d="M40.1,12.05c-0.3,0.9-0.983,1.9-2.05,3
				c-1,1.066-1.833,1.717-2.5,1.95c-2.434,0.967-5.116,1.5-8.05,1.6c-1.566,0.067-2.767,0.217-3.6,0.45
				c-1.233,0.367-2.383,1.05-3.45,2.05c-1.667,1.534-2.9,2.4-3.7,2.601c-2.066,0.566-3.533,0.149-4.4-1.25
				c-0.333-0.533-0.55-1.117-0.65-1.75l1.8,0.75c0.133,0.366,0.333,0.649,0.6,0.85c-0.1,0.101-0.15,0.167-0.15,0.2
				c-0.067,0.3,0.033,0.533,0.3,0.7c0.3,0.233,0.717,0.25,1.25,0.05c1.967-0.6,3.65-1.517,5.05-2.75c1-0.866,2.25-1.5,3.75-1.9
				c1.3-0.366,3.067-0.649,5.3-0.85c5.2-0.366,8.351-1.917,9.45-4.65c0.867-2.133,1.3-3.216,1.3-3.25
				c0.2-0.567,0.284-1.35,0.25-2.35V7.2C40.866,8.633,40.7,10.25,40.1,12.05z"/>
			<path style="fill-rule:evenodd;clip-rule:evenodd;fill:#383217;" d="M31.75,9.45c1.267,3.899-0.434,6.083-5.1,6.55
				c-1.466,0.134-3.267,0.1-5.4-0.1c-1.933-0.267-3.066-0.4-3.4-0.4c-1.333-0.033-2.6,0.517-3.8,1.65L13.3,17.1l2.55-2.449
				l0.4-0.101L17.6,14.4c0,0.199,0.066,0.316,0.2,0.35c0.2,0.167,0.55,0.316,1.05,0.45c0.5,0.1,0.833,0.083,1-0.05
				c0.2-0.167,0.383-0.384,0.55-0.65l3.15,0.35c-0.133,0.367-0.083,0.567,0.15,0.601c0.466,0.133,1.45,0.133,2.95,0
				c1.767-0.134,2.933-0.467,3.5-1c0.733-0.667,1.199-1.15,1.399-1.45c0.267-0.433,0.384-0.967,0.351-1.6
				C31.9,10.667,31.85,10.017,31.75,9.45z"/>
			<path style="fill-rule:evenodd;clip-rule:evenodd;fill:#383217;" d="M23.4,6c-0.5-0.933-1.533-1.167-3.1-0.7
				c-1.9,0.534-3,0.75-3.3,0.65c-0.2-0.034-0.267-0.233-0.2-0.6l0.45-0.4l0.3,0.1c-0.066,0.3,0,0.434,0.2,0.4
				c0.067,0,0.583-0.167,1.55-0.5c0.9-0.3,1.6-0.45,2.1-0.45c0.667,0,1.117,0.067,1.35,0.2c0.233,0.1,0.417,0.367,0.55,0.8L23.4,6z"
				/>
			<path style="fill-rule:evenodd;clip-rule:evenodd;fill:#383217;" d="M29.55,7.75c0.934,0.3,1.367,0.917,1.3,1.85
				C30.417,8.9,29.7,8.483,28.7,8.35c-1.1,0.033-1.85,0.033-2.25,0c-0.8,0-1.284-0.017-1.45-0.05c-0.667-0.133-1.066-0.5-1.2-1.1
				c0.233,0.333,0.65,0.55,1.25,0.65c0.534,0.033,1.384,0,2.55-0.1C28.566,7.65,29.217,7.65,29.55,7.75z"/>
			<path style="fill-rule:evenodd;clip-rule:evenodd;fill:#383217;" d="M29.3,1.95c0.134,0.066,0.517,0.367,1.15,0.9
				c0.5,0.367,0.934,0.566,1.3,0.6c0.3,0.033,1.2,0.017,2.7-0.05c1.5,0,2.55,0.117,3.149,0.35c0.801,0.367,1.317,0.933,1.551,1.7
				l-0.301-0.5C37.717,4.117,36.566,3.8,35.4,4c-0.367,0-1.434,0.083-3.2,0.25c-0.5,0.033-1.167-0.267-2-0.9
				c-1-0.733-1.667-1.15-2-1.25c-1.967-0.6-3.217-0.95-3.75-1.05c-1.434-0.233-2.7-0.133-3.8,0.3C18.883,2.183,17.6,2.967,16.8,3.7
				c0-0.034-0.05-0.05-0.15-0.05C16.283,3.717,16.017,4,15.85,4.5L15.8,4.55L15.55,4.9c-0.1-0.566,0.017-1.15,0.35-1.75
				c0.267,0,0.55-0.15,0.85-0.45c2.033-1.934,4.233-2.7,6.6-2.3C26.017,0.867,28,1.383,29.3,1.95z"/>
			<path style="fill-rule:evenodd;clip-rule:evenodd;fill:#383217;" d="M17.15,4.95h0.1l-0.45,0.4
				C16.867,5.05,16.983,4.917,17.15,4.95z"/>
		</g>
		<path style="fill-rule:evenodd;clip-rule:evenodd;fill:#7C6E3F;" d="M10.05,15.55c1.3-0.3,2.083-0.95,2.35-1.95
			c0.233-0.866,0.083-1.6-0.45-2.2c-0.833-0.933-1.133-1.767-0.9-2.5C7.417,9.567,5.067,10.85,4,12.75c-0.733,1.4-0.467,2.733,0.8,4
			L10.05,15.55z M23.95,11.5c-0.7,0.5-1.784,0.9-3.25,1.2c-2.267,0.434-2.85,1.684-1.75,3.75c0.3,0.6,0.883,1.55,1.75,2.85
			c2-0.434,3.633-1.1,4.9-2c1.167-0.866,1.833-1.783,2-2.75c0.267-1.6-0.733-2.983-3-4.15c0.066,0.167,0.05,0.317-0.05,0.45
			C24.483,11.05,24.283,11.267,23.95,11.5z M26.8,9.7c2.367,1.6,3.4,3.366,3.101,5.3c-0.267,1.934-1.851,3.55-4.75,4.85
			c-3.3,1.467-7.3,2-12,1.601c-4.7-0.367-8.1-1.483-10.2-3.351c-1.867-1.633-2.3-3.399-1.3-5.3C2.583,11.033,4.367,9.55,7,8.35
			c2.767-1.267,5.684-1.833,8.75-1.7C20.45,6.85,24.133,7.867,26.8,9.7z"/>
		<g>
			<path style="fill-rule:evenodd;clip-rule:evenodd;fill:#675C35;" d="M3.55,13.85C3.017,14.05,2.333,14.1,1.5,14l-0.15-0.4
				c0.066-0.3,0.167-0.566,0.3-0.8l0.05-0.05l2.05,0.7l-0.1,0.25L3.55,13.85z"/>
			<path style="fill-rule:evenodd;clip-rule:evenodd;fill:#675C35;" d="M10.2,8.45c0.2,0.133,0.333,0.316,0.4,0.55L9.55,9.25L9.5,9
				C9.267,8.767,8.867,8.75,8.3,8.95C7.567,9.15,6.967,9.5,6.5,10c-0.533,0.333-0.9,0.633-1.1,0.9l-0.15,0.4
				c-0.5,0.4-0.917,0.883-1.25,1.45L3.9,13c0.067-1,0.35-1.75,0.85-2.25l1.15-1.1c0.3-0.267,0.85-0.6,1.65-1
				C8.383,8.217,8.833,8,8.9,8C9.333,7.933,9.767,8.083,10.2,8.45z"/>
			<path style="fill-rule:evenodd;clip-rule:evenodd;fill:#675C35;" d="M11.85,6.9l0.3-0.05C12.017,7.683,11.8,8.367,11.5,8.9
				l-0.2,0.2c0.13-0.158,0.247-0.391,0.35-0.7C11.783,7.933,11.85,7.433,11.85,6.9z"/>
			<path style="fill-rule:evenodd;clip-rule:evenodd;fill:#675C35;" d="M26.75,10.2c0.133-0.034,0.25-0.133,0.35-0.3
				c0.6,0.467,1.016,0.833,1.25,1.1c-0.066,0.367-0.199,0.55-0.399,0.55c-0.4-0.333-0.684-0.517-0.85-0.55
				c-0.567-0.133-1.05-0.133-1.45,0l-0.85-0.5l0.15-0.15c0.2-0.133,0.5-0.184,0.9-0.15C26.283,10.267,26.583,10.267,26.75,10.2z"/>
			<path style="fill-rule:evenodd;clip-rule:evenodd;fill:#675C35;" d="M20.3,7.2c0.767,0.133,1.65,0.35,2.65,0.65l1.1,1.35
				c0.134,0.167,0.233,0.466,0.3,0.9c0.033,0.5,0.05,0.833,0.05,1c-0.2,0.267-0.6,0.55-1.2,0.85c-0.067-0.167-0.117-0.45-0.15-0.85
				c-0.133-0.3-0.616-0.45-1.45-0.45c-0.9,0.067-1.45,0.1-1.65,0.1L20.3,7.2z"/>
			<path style="fill-rule:evenodd;clip-rule:evenodd;fill:#675C35;" d="M2.2,15.5l-0.65-1.45L1.8,14.15
				c0.5,0.133,0.884,0.35,1.15,0.649c0.167,0.167,0.383,0.533,0.65,1.101c0.167,0.333,0.55,0.616,1.15,0.85l0.8,0.35
				c-0.466-0.1-0.833,0.15-1.1,0.75C4.283,18.217,4.267,18.65,4.4,19.15C3.3,18.517,2.5,17.816,2,17.05V17
				C1.9,16.134,1.967,15.634,2.2,15.5z"/>
			<path style="fill-rule:evenodd;clip-rule:evenodd;fill:#675C35;" d="M25.5,18.4c0,0.5-0.1,0.966-0.3,1.399
				c-2.3,1.066-5.067,1.65-8.3,1.75l0.05-0.899c1.233-0.101,2.383-0.301,3.45-0.601c0.5-0.1,1.017-0.267,1.55-0.5
				c0.8-0.333,1.233-0.666,1.3-1c0.733-0.3,1.35-0.616,1.85-0.95C25.367,17.667,25.5,17.934,25.5,18.4z"/>
			<path style="fill-rule:evenodd;clip-rule:evenodd;fill:#504729;" d="M27.6,14.55l0.05-0.6l1.55-1.85
				c0.166,0.233,0.35,0.617,0.55,1.15l-2.3,2.8c0.167,0,0.4,0.15,0.7,0.45c0.166,0.2,0.25,0.4,0.25,0.6
				c0,0.034-0.017,0.233-0.051,0.601c-0.8,0.8-1.85,1.5-3.149,2.1c0.2-0.434,0.3-0.899,0.3-1.399c0-0.467-0.133-0.733-0.4-0.801
				C26.567,16.634,27.4,15.616,27.6,14.55z"/>
			<path style="fill-rule:evenodd;clip-rule:evenodd;fill:#504729;" d="M2.2,15.5C1.967,15.634,1.9,16.134,2,17v0.05
				c-0.8-1.1-1.017-2.25-0.65-3.45L1.5,14l0.05,0.05L2.2,15.5z"/>
			<path style="fill-rule:evenodd;clip-rule:evenodd;fill:#504729;" d="M10.6,9c-0.067-0.233-0.2-0.417-0.4-0.55
				C9.767,8.083,9.333,7.933,8.9,8C8.833,8,8.383,8.217,7.55,8.65c-0.8,0.4-1.35,0.733-1.65,1l-1.15,1.1C4.25,11.25,3.967,12,3.9,13
				l-0.15,0.45l-2.05-0.7c0.733-1.367,2.017-2.583,3.85-3.65c1.867-1.1,3.967-1.833,6.3-2.2c0,0.533-0.067,1.033-0.2,1.5
				c-0.167,0.5-0.367,0.817-0.6,0.95H11l0.05-0.45L10.6,9z"/>
			<path style="fill-rule:evenodd;clip-rule:evenodd;fill:#504729;" d="M26.75,10.2c-0.167,0.066-0.467,0.066-0.9,0
				c-0.4-0.034-0.7,0.017-0.9,0.15L24.8,10.5l-0.2-0.1c0.066,0.167,0.05,0.317-0.05,0.45L24.4,11.1c0-0.167-0.017-0.5-0.05-1
				c-0.067-0.434-0.167-0.733-0.3-0.9l-1.1-1.35c1.633,0.533,3.017,1.217,4.15,2.05C27,10.067,26.883,10.167,26.75,10.2z"/>
			<path style="fill-rule:evenodd;clip-rule:evenodd;fill:#504729;" d="M19.5,12.1c-0.066,0.4,0.017,0.7,0.25,0.9
				c-0.7,0.267-1.133,0.684-1.3,1.25L17.9,14.2c-0.367-0.033-0.583-0.101-0.65-0.2c-0.066-0.066-0.1-0.283-0.1-0.65
				c0-0.667,0.167-1.35,0.5-2.05c0.167-0.367,0.534-0.983,1.1-1.85l1.65,1.75C19.867,11.1,19.567,11.4,19.5,12.1z"/>
			<path style="fill-rule:evenodd;clip-rule:evenodd;fill:#3D361F;" d="M28.15,16.5c-0.3-0.3-0.534-0.45-0.7-0.45l2.3-2.8
				c0.2,0.6,0.25,1.184,0.15,1.75c-0.167,0.967-0.684,1.866-1.551,2.7c0.034-0.367,0.051-0.566,0.051-0.601
				C28.4,16.9,28.316,16.7,28.15,16.5z"/>
			<path style="fill-rule:evenodd;clip-rule:evenodd;fill:#7C6E3F;" d="M5.9,17.65v2.25l-0.25-0.15V19.2c0-0.8,0.067-1.316,0.2-1.55
				H5.9z"/>
			<path style="fill-rule:evenodd;clip-rule:evenodd;fill:#7C6E3F;" d="M9.25,20.9l-0.1-3.2l2.05,0.05c0.2-0.1,0.75,0,1.65,0.3
				l-1.1,0.601c-0.1,0.133-0.133,0.316-0.1,0.55v2.1L9.25,20.9z"/>
			<path style="fill-rule:evenodd;clip-rule:evenodd;fill:#7C6E3F;" d="M13.9,21.5l-0.05-3.2L16,18.65
				c0.133,0.033,0.267,0.05,0.4,0.05c0.067,0.033,0.133,0.116,0.2,0.25c0.167,0.267,0.283,0.833,0.35,1.7L16.9,21.55
				C16.3,21.583,15.3,21.566,13.9,21.5z"/>
			<path style="fill-rule:evenodd;clip-rule:evenodd;fill:#928149;" d="M11.65,19.2c-0.033-0.233,0-0.417,0.1-0.55l2.1-1.15l0.05,4
				l-2.25-0.2V19.2z"/>
			<path style="fill-rule:evenodd;clip-rule:evenodd;fill:#928149;" d="M5.9,19.9v-2.25c0.067-0.733,0.133-1.117,0.2-1.15l0.05-0.05
				l2.2-0.5l-0.05,1.2L7.75,18.4l-0.1-0.051c-0.2,1.134-0.283,1.817-0.25,2.051L5.9,19.9z"/>
			<path style="fill-rule:evenodd;clip-rule:evenodd;fill:#B49F5A;" d="M8.9,15.8l0.2-0.05l0.15,5.15
				c-0.867-0.2-1.483-0.367-1.85-0.5c-0.033-0.233,0.05-0.917,0.25-2.051l0.1,0.051L8.9,15.8z"/>
		</g>
		<path style="fill-rule:evenodd;clip-rule:evenodd;fill:#BDA75E;" d="M10.05,13.7c1.3-0.3,2.083-0.95,2.35-1.95
			c0.233-0.867,0.083-1.6-0.45-2.2c-0.9-1-1.184-1.833-0.85-2.5C7.434,7.717,5.067,9,4,10.9c-0.733,1.4-0.467,2.734,0.8,4
			L10.05,13.7z M26.9,8.3c2.3,1.367,3.317,2.983,3.05,4.851c-0.3,1.933-1.9,3.55-4.8,4.85c-3.267,1.467-7.25,2-11.95,1.6
			c-4.733-0.366-8.15-1.483-10.25-3.35c-1.867-1.634-2.3-3.4-1.3-5.3c0.9-1.7,2.717-3.034,5.45-4c2.667-0.967,5.6-1.383,8.8-1.25
			C20.667,5.9,24.333,6.767,26.9,8.3z M25.6,15.45c1.167-0.867,1.833-1.783,2-2.75c0.267-1.6-0.733-2.983-3-4.15
			c0.066,0.167,0.05,0.317-0.05,0.45c-0.066,0.2-0.267,0.417-0.6,0.65c-0.7,0.5-1.784,0.9-3.25,1.2
			c-2.267,0.433-2.85,1.683-1.75,3.75l1.75,2.851C22.7,17.017,24.333,16.35,25.6,15.45z"/>
		<g>
			<path style="fill-rule:evenodd;clip-rule:evenodd;fill:#9E8C4F;" d="M16.95,13.5c0.267,0.533,0.6,1.25,1,2.15
				c0.566,0.6,0.867,0.949,0.9,1.05c0.133,0.3-0.1,0.566-0.7,0.8c-0.7,0.3-1.933,0.384-3.7,0.25c-1.9-0.134-3.617-0.467-5.15-1
				c-1.533-0.533-2.133-0.983-1.8-1.35c0.233-0.267,0.833-0.483,1.8-0.65c0.467-0.066,1.467-0.55,3-1.45
				c1.5-0.867,2.417-1.3,2.75-1.3C15.85,12,16.483,12.5,16.95,13.5z"/>
			<path style="fill-rule:evenodd;clip-rule:evenodd;fill:#9E8C4F;" d="M18.15,7c1.5,0.267,2.65,0.617,3.45,1.05
				c0.7,0.367,0.967,0.684,0.8,0.95c-0.1,0.267-0.167,0.433-0.2,0.5c-0.067,0.167-0.3,0.283-0.7,0.35
				c-2.667,0.667-4.483,0.967-5.45,0.9c-1.033-0.067-2.216-0.95-3.55-2.65c-0.5-0.667,0.017-1.083,1.55-1.25
				C15.383,6.717,16.75,6.767,18.15,7z"/>
			<path style="fill-rule:evenodd;clip-rule:evenodd;fill:#9E8C4F;" d="M5.3,15.65c0.634,0.166,0.85,0.366,0.65,0.6
				C5.783,16.517,5.4,16.566,4.8,16.4c-0.533-0.134-0.65-0.317-0.35-0.551C4.717,15.616,5,15.55,5.3,15.65z M5.2,16.4
				c0.2-0.034,0.367-0.084,0.5-0.15L5.35,16c-0.434,0-0.633,0.083-0.6,0.25S4.934,16.467,5.2,16.4z"/>
			<path style="fill-rule:evenodd;clip-rule:evenodd;fill:#9E8C4F;" d="M9.1,17.4l-0.15,0.1h-0.2L8.7,17.75l-0.225,0.2
				c0.05-0.05,0.092-0.117,0.125-0.2l-0.4-0.4l0.05,0.101c0.033,0.1,0.017,0.2-0.05,0.3c-0.067,0.1-0.1,0.184-0.1,0.25
				c-0.4-0.013-0.6-0.097-0.6-0.25c0-0.033,0.117-0.167,0.35-0.4c-0.367-0.033-0.767-0.267-1.2-0.699
				c0.167-0.267,0.483-0.284,0.95-0.051C7.9,16.767,8.4,17.033,9.1,17.4z"/>
			<path style="fill-rule:evenodd;clip-rule:evenodd;fill:#9E8C4F;" d="M9.6,18.3c-0.1-0.533,0.25-0.8,1.05-0.8l0.25,0.55
				c-0.033,0.2-0.1,0.316-0.2,0.351l0.05-0.101l-0.6-0.25c-0.133,0.033-0.233,0.101-0.3,0.2c-0.067,0.1-0.05,0.217,0.05,0.35
				C9.7,18.533,9.6,18.434,9.6,18.3z"/>
			<path style="fill-rule:evenodd;clip-rule:evenodd;fill:#9E8C4F;" d="M13.25,18.3c0.1,0.233,0.15,0.4,0.15,0.5
				c0,0.101-0.033,0.184-0.1,0.25c-0.167,0.033-0.3-0.017-0.4-0.149c-0.033-0.067-0.033-0.184,0-0.351l-0.3-0.05
				c-0.133-0.134-0.2-0.25-0.2-0.35c0.034-0.134,0.15-0.184,0.35-0.15c0.133,0,0.3,0.033,0.5,0.1c0.4,0.034,1.033,0.101,1.9,0.2
				l-0.9,0.4L13.25,18.3z"/>
			<path style="fill-rule:evenodd;clip-rule:evenodd;fill:#9E8C4F;" d="M16.3,19.15l-0.05-0.2V18.9c0.033-0.067,0.2-0.267,0.5-0.601
				l0.75,0.25L17.4,18.9v0.05l-0.6-0.15c-0.2,0-0.3,0.134-0.3,0.4L16.3,19.15z"/>
			<path style="fill-rule:evenodd;clip-rule:evenodd;fill:#9E8C4F;" d="M18.85,18.9c-0.067,0.1-0.05,0.183,0.05,0.25h-0.35
				c-0.4,0-0.533-0.167-0.4-0.5c0.1-0.334,0.583-0.5,1.45-0.5L18.55,18.3l0.95,0.4l0.1,0.1l-0.55-0.05
				C18.95,18.75,18.883,18.8,18.85,18.9z"/>
			<path style="fill-rule:evenodd;clip-rule:evenodd;fill:#9E8C4F;" d="M20.7,18.65h-0.35c-0.067-0.167-0.05-0.367,0.05-0.601
				l0.4,0.25v0.15l-0.25-0.05C20.55,18.564,20.6,18.647,20.7,18.65z"/>
			<path style="fill-rule:evenodd;clip-rule:evenodd;fill:#9E8C4F;" d="M21.95,18.25c-0.167-0.033-0.3-0.184-0.4-0.45l0.55,0.15
				c-0.1,0.1-0.05,0.184,0.15,0.25L21.95,18.25z"/>
			<path style="fill-rule:evenodd;clip-rule:evenodd;fill:#9E8C4F;" d="M3.05,14.9L3.2,15H3.1c-0.2-0.066-0.317-0.167-0.35-0.3
				c-0.066-0.3,0.1-0.45,0.5-0.45L3.4,14.6C3.033,14.6,2.917,14.7,3.05,14.9z"/>
			<path style="fill-rule:evenodd;clip-rule:evenodd;fill:#615630;" d="M3.4,14.6h0.3l-0.05,0.25L3.55,15H3.2l-0.15-0.1
				C2.917,14.7,3.033,14.6,3.4,14.6z"/>
			<path style="fill-rule:evenodd;clip-rule:evenodd;fill:#615630;" d="M5.7,16.25c-0.133,0.066-0.3,0.116-0.5,0.15
				c-0.267,0.066-0.417,0.017-0.45-0.15S4.917,16,5.35,16L5.7,16.25z"/>
			<path style="fill-rule:evenodd;clip-rule:evenodd;fill:#615630;" d="M8.125,17.3c-0.075-0.075-0.25-0.158-0.525-0.25
				c0-0.033,0.05-0.083,0.15-0.149L8.125,17.3z"/>
			<path style="fill-rule:evenodd;clip-rule:evenodd;fill:#615630;" d="M8.3,18H8.1c0-0.066,0.033-0.15,0.1-0.25
				c0.066-0.1,0.083-0.2,0.05-0.3L8.2,17.35l0.4,0.4C8.533,17.917,8.434,18,8.3,18z"/>
			<path style="fill-rule:evenodd;clip-rule:evenodd;fill:#615630;" d="M10.15,18.05l0.6,0.25L10.7,18.4
				c-0.067,0.133-0.167,0.233-0.3,0.3c-0.167,0.066-0.316,0.05-0.45-0.05L9.9,18.6c-0.1-0.133-0.117-0.25-0.05-0.35
				C9.917,18.15,10.017,18.083,10.15,18.05z"/>
			<path style="fill-rule:evenodd;clip-rule:evenodd;fill:#615630;" d="M14.3,18.75l-0.05,0.1l-0.2,0.25
				c-0.167,0.167-0.433,0.233-0.8,0.2c-0.033-0.033-0.017-0.116,0.05-0.25c0.067-0.066,0.1-0.149,0.1-0.25
				c0-0.1-0.05-0.267-0.15-0.5l1,0.4L14.3,18.75z"/>
			<path style="fill-rule:evenodd;clip-rule:evenodd;fill:#615630;" d="M14.8,19.1l0.15-0.25l0.1,0.051l0.45,0.149
				c-0.033,0.134-0.133,0.2-0.3,0.2C15,19.25,14.867,19.2,14.8,19.1z"/>
			<path style="fill-rule:evenodd;clip-rule:evenodd;fill:#615630;" d="M17.4,18.95v0.1c-0.2,0.267-0.5,0.351-0.9,0.25v-0.1
				c0-0.267,0.1-0.4,0.3-0.4L17.4,18.95z"/>
			<path style="fill-rule:evenodd;clip-rule:evenodd;fill:#615630;" d="M19.6,18.8l0.15,0.101c-0.333,0.333-0.6,0.416-0.8,0.25H18.9
				c-0.1-0.067-0.117-0.15-0.05-0.25c0.033-0.101,0.1-0.15,0.2-0.15L19.6,18.8z"/>
			<path style="fill-rule:evenodd;clip-rule:evenodd;fill:#615630;" d="M20.7,18.65c-0.1,0-0.15-0.084-0.15-0.25l0.25,0.05
				l0.15,0.05C20.917,18.6,20.833,18.65,20.7,18.65z"/>
			<path style="fill-rule:evenodd;clip-rule:evenodd;fill:#615630;" d="M22.25,18.2c-0.2-0.066-0.25-0.15-0.15-0.25l0.05-0.05
				l0.9-0.25c0.034,0.233-0.033,0.399-0.2,0.5C22.684,18.283,22.483,18.3,22.25,18.2z"/>
			<polygon style="fill-rule:evenodd;clip-rule:evenodd;fill:#615630;" points="23.95,17.4 24.45,17.5 24.05,17.65 23.85,17.5 			
				"/>
			<path style="fill-rule:evenodd;clip-rule:evenodd;fill:#615630;" d="M2.45,13l0.15,0.25H2.3c-0.033-0.066-0.033-0.15,0-0.25H2.45
				z"/>
			<path style="fill-rule:evenodd;clip-rule:evenodd;fill:#EFD98C;" d="M15.9,5.7c4.3,0.2,7.717,0.933,10.25,2.2
				c2.3,1.167,3.567,2.583,3.8,4.25c-0.601-1.133-1.367-2.033-2.3-2.7c-1.133-0.833-2.8-1.567-5-2.2
				c-1.966-0.533-4.417-0.8-7.35-0.8L11.5,6.6c-1,0.167-2.383,0.5-4.15,1c-1.233,0.367-2.267,0.883-3.1,1.55
				C3.55,9.683,2.833,10.5,2.1,11.6c-0.467,0.733-0.617,1.733-0.45,3c-0.633-1.233-0.633-2.45,0-3.649c0.9-1.7,2.717-3.034,5.45-4
				C9.767,5.983,12.7,5.567,15.9,5.7z"/>
			<path style="fill-rule:evenodd;clip-rule:evenodd;fill:#EFD98C;" d="M11.1,7.05c0.033,0.2,0.117,0.434,0.25,0.7
				c0.233,0.533,0.533,0.983,0.9,1.35c0.434,0.433,0.717,0.85,0.85,1.25c0.1,0.367,0.066,0.867-0.1,1.5s-0.467,1.117-0.9,1.45
				c-0.467,0.334-1.25,0.617-2.35,0.851l-4.75,1L4.95,14.85l5.1-1.149c1.3-0.3,2.083-0.95,2.35-1.95c0.233-0.867,0.083-1.6-0.45-2.2
				C11.05,8.55,10.767,7.717,11.1,7.05z"/>
			<path style="fill-rule:evenodd;clip-rule:evenodd;fill:#EFD98C;" d="M26.7,9.85c1.3,1.066,1.8,2.083,1.5,3.05
				c-0.367,1.167-0.7,1.917-1,2.25c-0.267,0.3-1.067,0.783-2.4,1.449c-1.1,0.534-2.116,0.834-3.05,0.9l-1.05-0.05
				c2-0.434,3.633-1.101,4.9-2c1.167-0.867,1.833-1.783,2-2.75c0.204-1.222-0.33-2.314-1.6-3.275L26.7,9.85z"/>
			<path style="fill-rule:evenodd;clip-rule:evenodd;fill:#EFD98C;" d="M2.15,13.9c-0.167-0.267,0.133-0.4,0.9-0.4
				c-0.066,0.233-0.15,0.366-0.25,0.4H2.15z"/>
			<path style="fill-rule:evenodd;clip-rule:evenodd;fill:#EFD98C;" d="M3.7,14.6v-0.1l0.5,0.65c-0.133,0.166-0.233,0.267-0.3,0.3
				C3.8,15.55,3.667,15.6,3.5,15.6c-0.367-0.1-0.566-0.216-0.6-0.35c0-0.1,0.067-0.184,0.2-0.25h0.55v-0.15L3.7,14.6z"/>
			<path style="fill-rule:evenodd;clip-rule:evenodd;fill:#EFD98C;" d="M5.95,16.35l0.5,0.301c-0.267,0.533-0.583,0.783-0.95,0.75
				c-0.633-0.101-0.867-0.317-0.7-0.65C5.2,16.75,5.583,16.616,5.95,16.35z"/>
			<path style="fill-rule:evenodd;clip-rule:evenodd;fill:#EFD98C;" d="M8.9,18.5c-0.066,0.033-0.167,0.033-0.3,0
				s-0.217-0.083-0.25-0.15c-0.033-0.066,0-0.166,0.1-0.3c0.167-0.166,0.25-0.267,0.25-0.3l0.05-0.25h0.2l0.4,0.05
				C9.184,18.15,9.033,18.467,8.9,18.5z"/>
			<path style="fill-rule:evenodd;clip-rule:evenodd;fill:#EFD98C;" d="M11.5,18.15c-0.066,0.6-0.283,0.883-0.65,0.85
				c-0.033-0.134,0.017-0.3,0.15-0.5c0.133-0.167,0.184-0.333,0.15-0.5L11.5,18.15z"/>
			<path style="fill-rule:evenodd;clip-rule:evenodd;fill:#EFD98C;" d="M14.95,18.85L14.8,19.1c-0.267,0.334-0.517,0.4-0.75,0.2
				c-0.066-0.066-0.066-0.133,0-0.2l0.2-0.25c0.067-0.1,0.2-0.199,0.4-0.3l0.1-0.05l0.3,0.05L15,18.8L14.95,18.85z"/>
			<path style="fill-rule:evenodd;clip-rule:evenodd;fill:#EFD98C;" d="M16.25,18.8v0.351c-0.6,0.1-0.85-0.017-0.75-0.351H16.25z"/>
			<path style="fill-rule:evenodd;clip-rule:evenodd;fill:#EFD98C;" d="M17.4,19.05V18.9l0.1-0.351l0.15-0.25l0.4,0.351
				C18.05,18.983,17.833,19.116,17.4,19.05z"/>
			<path style="fill-rule:evenodd;clip-rule:evenodd;fill:#EFD98C;" d="M19.75,18.9L19.6,18.8l-0.1-0.1
				c-0.066-0.101-0.05-0.2,0.05-0.3L19.9,18.3c0.233,0.033,0.367,0.15,0.4,0.351c0.067,0.199-0.017,0.316-0.25,0.35
				C19.917,19,19.817,18.967,19.75,18.9z"/>
			<path style="fill-rule:evenodd;clip-rule:evenodd;fill:#EFD98C;" d="M21.65,18.25c0.034,0.3-0.083,0.45-0.35,0.45
				c-0.267,0.033-0.383-0.066-0.35-0.3L21.65,18.25z"/>
			<path style="fill-rule:evenodd;clip-rule:evenodd;fill:#EFD98C;" d="M23.65,17.75c-0.066,0.3-0.2,0.4-0.4,0.3l-0.05-0.3H23.65z"
				/>
			<path style="fill-rule:evenodd;clip-rule:evenodd;fill:#EFD98C;" d="M24.05,17.65l1.25-0.5c-0.167,0.566-0.5,0.8-1,0.699
				c-0.2-0.033-0.316-0.1-0.35-0.199H24.05z"/>
		</g>
		<path style="fill-rule:evenodd;clip-rule:evenodd;fill:#73653B;" d="M9.3,14.75c0.467-0.066,1.467-0.55,3-1.45
			c1.5-0.867,2.417-1.3,2.75-1.3c0.9,0,1.617,0.683,2.15,2.05l-0.75,0.4H16.3l0.25-0.3c0.3-0.4,0.317-0.801,0.05-1.2
			c-0.267-0.367-0.633-0.583-1.1-0.65c-0.3-0.033-0.717,0.15-1.25,0.55c-0.533,0.433-0.883,0.7-1.05,0.8
			c-0.567,0.399-1.3,0.833-2.2,1.3c-1.367,0.666-2.117,1.033-2.25,1.1c-0.167,0.101-0.267,0.217-0.3,0.351
			C6.783,15.667,7.067,15.116,9.3,14.75z"/>
		<path style="fill-rule:evenodd;clip-rule:evenodd;fill:#73653B;" d="M14.25,8.55c-0.133,0.6,0.083,1.2,0.65,1.8
			c-0.7-0.367-1.5-1.117-2.4-2.25c-0.5-0.667,0.017-1.083,1.55-1.25c1.333-0.133,2.7-0.083,4.1,0.15c1.5,0.267,2.65,0.617,3.45,1.05
			c0.7,0.367,0.967,0.684,0.8,0.95c-0.066-0.1-0.216-0.183-0.45-0.25l-0.9-0.05l-0.2-0.3c-1.133-1-2.8-1.316-5-0.95
			C14.95,7.583,14.417,7.95,14.25,8.55z"/>
		<path style="fill-rule:evenodd;clip-rule:evenodd;fill:#EFD98C;" d="M22.35,9.35c0.133-0.4,0.066-0.767-0.2-1.1
			c0.333-0.1,0.65-0.1,0.95,0c0.3,0.1,0.467,0.317,0.5,0.65c0.033,0.533-0.317,0.9-1.05,1.1c-1.233,0.4-1.9,0.617-2,0.65
			c-0.833,0.233-1.533,0.267-2.1,0.1c1.133-0.467,1.85-0.683,2.15-0.65h0.9C21.934,10,22.217,9.75,22.35,9.35z"/>
		<path style="fill-rule:evenodd;clip-rule:evenodd;fill:#EFD98C;" d="M14.5,10.7l0.25,0.4c-0.066,0.167-0.217,0.283-0.45,0.35
			c-0.233,0.1-0.417,0.066-0.55-0.1c-0.1-0.2-0.05-0.367,0.15-0.5C14.1,10.717,14.3,10.667,14.5,10.7z"/>
		<path style="fill-rule:evenodd;clip-rule:evenodd;fill:#EFD98C;" d="M15.25,11.2l0.35,0.15c0.1,0.433-0.033,0.533-0.4,0.3
			C14.8,11.417,14.817,11.267,15.25,11.2z"/>
		<path style="fill-rule:evenodd;clip-rule:evenodd;fill:#EFD98C;" d="M16.25,11.35l3-0.5c-0.066,0.167-0.333,0.3-0.8,0.4
			c-0.534,0.1-0.85,0.183-0.95,0.25c-0.2,0.3-0.4,0.483-0.6,0.55c-0.267,0.133-0.483,0.117-0.65-0.05
			C16.083,11.8,16.083,11.583,16.25,11.35z"/>
		<path style="fill-rule:evenodd;clip-rule:evenodd;fill:#EFD98C;" d="M17.35,12.35l0.5,0.5c0.066,0.066,0.066,0.133,0,0.2
			c-0.567,0.101-0.867,0.033-0.9-0.2C16.95,12.783,17.083,12.617,17.35,12.35z"/>
		<path style="fill-rule:evenodd;clip-rule:evenodd;fill:#EFD98C;" d="M17.35,13.6l0.4-0.25c0.434,0.733,0.583,1.384,0.45,1.95
			c-0.2,0.033-0.4-0.184-0.6-0.649C17.434,14.217,17.35,13.866,17.35,13.6z"/>
		<path style="fill-rule:evenodd;clip-rule:evenodd;fill:#EFD98C;" d="M18.5,16.6l0.75-0.399c0,1.1-0.083,1.75-0.25,1.95
			c-0.133,0.166-0.4,0.25-0.8,0.25c-0.5-0.034-0.833-0.051-1-0.051c-0.333,0-0.767-0.05-1.3-0.149c-0.7-0.134-1.15-0.217-1.35-0.25
			c-1.2-0.101-1.883-0.184-2.05-0.25c-0.143-0.121-0.276-0.222-0.4-0.3c0.03,0.017,0.063,0.033,0.1,0.05
			c0.3,0.1,0.75,0.184,1.35,0.25l2.3,0.149c0.566,0,1.15-0.1,1.75-0.3c0.467-0.133,0.717-0.217,0.75-0.25
			C18.483,17.2,18.533,16.967,18.5,16.6z"/>
		<path style="fill-rule:evenodd;clip-rule:evenodd;fill:#675C34;" d="M16.05,8.1c0,0.333-0.183,0.6-0.55,0.8
			c-0.4,0.233-0.883,0.35-1.45,0.35c-0.533,0-1-0.117-1.4-0.35c-0.367-0.2-0.55-0.467-0.55-0.8c0-0.333,0.183-0.6,0.55-0.8
			c0.4-0.233,0.867-0.35,1.4-0.35c0.567,0,1.05,0.117,1.45,0.35C15.867,7.5,16.05,7.767,16.05,8.1z"/>
		<path style="fill-rule:evenodd;clip-rule:evenodd;fill:#675C34;" d="M22.4,9c0,0.333-0.2,0.6-0.6,0.8
			c-0.366,0.233-0.833,0.35-1.4,0.35c-0.566,0-1.033-0.117-1.4-0.35c-0.4-0.2-0.6-0.466-0.6-0.8s0.2-0.617,0.6-0.85
			s0.867-0.35,1.4-0.35c0.534,0,1,0.117,1.4,0.35C22.2,8.383,22.4,8.667,22.4,9z"/>
		<path style="fill-rule:evenodd;clip-rule:evenodd;fill:#675C34;" d="M17.5,14.7c0,0.467-0.3,0.883-0.9,1.25
			c-0.6,0.333-1.317,0.5-2.15,0.5c-0.833,0-1.55-0.167-2.15-0.5c-0.6-0.367-0.9-0.783-0.9-1.25c0-0.5,0.3-0.917,0.9-1.25
			c0.6-0.367,1.317-0.55,2.15-0.55c0.867,0,1.583,0.183,2.15,0.55C17.2,13.783,17.5,14.2,17.5,14.7z"/>
		<path style="fill-rule:evenodd;clip-rule:evenodd;fill:#4C4325;" d="M14.65,13.85c-0.533-0.199-1.066-0.199-1.6,0
			c-0.566,0.233-0.883,0.634-0.95,1.2c-0.033,0.367,0.033,0.667,0.2,0.9c-0.6-0.367-0.9-0.783-0.9-1.25c0-0.5,0.3-0.917,0.9-1.25
			c0.6-0.367,1.317-0.55,2.15-0.55c0.867,0,1.583,0.183,2.15,0.55c0.6,0.333,0.9,0.75,0.9,1.25c0,0.366-0.183,0.7-0.55,1v-0.15
			L16.9,15.5l-0.05-0.1V15.35c-0.267-0.566-0.7-0.933-1.3-1.1L14.65,13.85z"/>
		<path style="fill-rule:evenodd;clip-rule:evenodd;fill:#4C4325;" d="M12.95,9.05c-0.567-0.2-0.85-0.517-0.85-0.95
			c0-0.333,0.183-0.6,0.55-0.8c0.4-0.233,0.867-0.35,1.4-0.35c0.567,0,1.05,0.117,1.45,0.35c0.367,0.2,0.55,0.467,0.55,0.8L16,8.4
			l-0.05-0.3c-0.067-0.233-0.317-0.383-0.75-0.45c-0.567-0.133-1.133-0.033-1.7,0.3c-0.4,0.3-0.617,0.5-0.65,0.6L12.95,9.05z"/>
		<path style="fill-rule:evenodd;clip-rule:evenodd;fill:#4C4325;" d="M22.35,9c-0.1-0.267-0.467-0.5-1.1-0.7
			c-0.867-0.2-1.566-0.15-2.1,0.15c-0.233,0.133-0.433,0.35-0.6,0.65l-0.1,0.15L18.4,9c0-0.333,0.2-0.617,0.6-0.85
			s0.867-0.35,1.4-0.35c0.534,0,1,0.117,1.4,0.35c0.4,0.233,0.6,0.517,0.6,0.85H22.35z"/>
		<path style="fill-rule:evenodd;clip-rule:evenodd;fill:#594ED4;" d="M14.95,12.5c0.8,0.1,1.367,0.6,1.7,1.5l0.2,1.35
			c-0.167,0.4-0.95,0.65-2.35,0.75c-0.867,0.034-1.533-0.083-2-0.35l-0.4-0.4l0.2-1.399c0.1-0.467,0.417-0.851,0.95-1.15
			C13.817,12.5,14.383,12.4,14.95,12.5z"/>
		<path style="fill-rule:evenodd;clip-rule:evenodd;fill:#9FD7A1;" d="M14.45,6.9c0.566,0.067,0.95,0.367,1.15,0.9l0.15,0.75
			c-0.1,0.233-0.633,0.383-1.6,0.45c-0.566,0.033-1.017-0.033-1.35-0.2l-0.3-0.25l0.15-0.75c0.067-0.3,0.284-0.533,0.65-0.7
			C13.667,6.933,14.05,6.867,14.45,6.9z"/>
		<path style="fill-rule:evenodd;clip-rule:evenodd;fill:#B94839;" d="M20.7,7.5c0.867,0.067,1.283,0.6,1.25,1.6
			c0.066,0.4-0.383,0.617-1.35,0.65c-0.567,0.033-1.05-0.067-1.45-0.3l-0.4-0.35l0.15-0.75c0.034-0.3,0.25-0.533,0.65-0.7
			C19.917,7.483,20.3,7.433,20.7,7.5z"/>
		<g>
			<path style="fill-rule:evenodd;clip-rule:evenodd;fill:#739B75;" d="M14.15,9c-0.566,0.033-1.017-0.033-1.35-0.2l-0.3-0.25
				l0.1-0.45c0.267,0.167,0.816,0.25,1.65,0.25c0.367-0.033,0.817-0.217,1.35-0.55l0.15,0.75C15.65,8.783,15.117,8.933,14.15,9z"/>
			<path style="fill-rule:evenodd;clip-rule:evenodd;fill:#ECFEEE;" d="M13.5,7.5c-0.133,0.067-0.383,0.1-0.75,0.1
				c0.3-0.533,0.867-0.767,1.7-0.7L14.8,7l-0.3,0.1H14C13.8,7.3,13.633,7.433,13.5,7.5z"/>
		</g>
		<g>
			<path style="fill-rule:evenodd;clip-rule:evenodd;fill:#8C362B;" d="M21.95,9.1c0.066,0.4-0.383,0.617-1.35,0.65
				c-0.567,0.033-1.05-0.067-1.45-0.3l-0.4-0.35l0.1-0.55c0.267,0.2,0.517,0.3,0.75,0.3c0.7,0,1.1-0.017,1.2-0.05
				c0.134-0.033,0.45-0.216,0.95-0.55C21.883,8.517,21.95,8.8,21.95,9.1z"/>
			<path style="fill-rule:evenodd;clip-rule:evenodd;fill:#E9ABA7;" d="M20.25,7.95c-0.4,0.133-0.75,0.117-1.05-0.05
				c0.433-0.367,0.933-0.5,1.5-0.4h0.05C20.617,7.767,20.45,7.917,20.25,7.95z"/>
		</g>
		<g>
			<path style="fill-rule:evenodd;clip-rule:evenodd;fill:#41399B;" d="M16.85,15.35c-0.167,0.4-0.95,0.65-2.35,0.75
				c-0.867,0.034-1.533-0.083-2-0.35l-0.4-0.4l0.05-0.649c0.133,0.066,0.417,0.149,0.85,0.25c1.1,0.267,2.017,0.217,2.75-0.15
				l0.9-0.75L16.85,15.35z"/>
			<path style="fill-rule:evenodd;clip-rule:evenodd;fill:#9F95FA;" d="M13,13.7c-0.2-0.134-0.3-0.283-0.3-0.45
				c0.6-0.667,1.35-0.917,2.25-0.75c0.5,0.067,0.883,0.25,1.15,0.55v0.15c-0.2,0.767-0.733,1.05-1.6,0.85
				c0.033-0.267-0.167-0.383-0.6-0.35C13.367,13.733,13.067,13.733,13,13.7z"/>
		</g>
	</g>
</g>
</svg>
