<?xml version="1.0" encoding="iso-8859-1"?>
<!-- Generator: Adobe Illustrator 15.1.0, SVG Export Plug-In . SVG Version: 6.00 Build 0)  -->
<!DOCTYPE svg PUBLIC "-//W3C//DTD SVG 1.1//EN" "http://www.w3.org/Graphics/SVG/1.1/DTD/svg11.dtd">
<svg version="1.1" id="FlashAICB" xmlns="http://www.w3.org/2000/svg" xmlns:xlink="http://www.w3.org/1999/xlink" x="0px" y="0px"
	 width="42.05px" height="36.5px" viewBox="0 0 42.05 36.5" style="enable-background:new 0 0 42.05 36.5;" xml:space="preserve">
<g>
	
		<linearGradient id="SVGID_1_" gradientUnits="userSpaceOnUse" x1="643.248" y1="213.5176" x2="682.7791" y2="213.5176" gradientTransform="matrix(0.7951 -1.0603 1.086 0.9543 -736.6003 517.4998)">
		<stop  offset="0" style="stop-color:#9E9E9E"/>
		<stop  offset="0.1843" style="stop-color:#EAEAEA"/>
		<stop  offset="0.5647" style="stop-color:#969696"/>
		<stop  offset="0.7529" style="stop-color:#E3E3E3"/>
		<stop  offset="1" style="stop-color:#9C9C9C"/>
	</linearGradient>
	<path style="fill-rule:evenodd;clip-rule:evenodd;fill:url(#SVGID_1_);" d="M12.028,29.375c-2.744,4.46-4.192,6.734-4.342,6.821
		c-0.177,0.215-0.366,0.324-0.564,0.325c-0.299,0.004-0.802-0.129-1.51-0.396c-3.056-0.773-4.73-1.329-5.025-1.667
		c-0.247-0.251-0.439-0.846-0.577-1.781c-0.07-0.467,0.872-1.575,2.823-3.322c1.147-1.056,3.257-2.923,6.329-5.599
		c5.364-4.789,9.293-7.762,11.787-8.92c1.352-0.611,2.245-1.154,2.672-1.627c0.19-0.279,0.333-0.728,0.429-1.347
		c0.344-2.793,1.301-5.263,2.872-7.411c1.836-2.469,4.158-3.923,6.967-4.36L33.45,0.766c-0.306,0.515-0.336,0.984-0.092,1.407
		c0.206,0.445,0.599,0.472,1.177,0.082c0.602-0.348,1.434-1.082,2.492-2.201l0.057-0.033c-0.105,0.512-0.208,0.854-0.311,1.025
		c-0.306,0.515-0.335,0.983-0.091,1.406c0.205,0.445,0.609,0.494,1.213,0.146c0.501-0.346,0.99-1.023,1.463-2.029l0.13,0.095
		c0.052,0.872-0.068,1.534-0.36,1.984c-0.329,0.473-0.372,0.92-0.129,1.343c0.269,0.465,0.673,0.513,1.214,0.146
		c0.554-0.433,0.984-0.992,1.291-1.676c0.792,1.46,0.739,3.323-0.16,5.591c-0.771,1.967-1.759,3.383-2.966,4.25
		c-1.383,1.081-2.762,1.735-4.135,1.964c-2.034,0.215-3.986,0.44-5.858,0.676c-2.397,0.368-4.035,0.834-4.914,1.398
		c-1.271,1.186-2.651,2.405-4.135,3.656C17.561,21.529,15.124,24.655,12.028,29.375z"/>
	<g>
		<path style="fill-rule:evenodd;clip-rule:evenodd;fill:#E9E9E9;" d="M33.784,2.519c0.3-0.004,0.549-0.091,0.751-0.264
			c0.564-0.326,1.376-1.048,2.437-2.168c-0.481,0.729-1.133,1.472-1.952,2.227C34.39,2.959,33.978,3.027,33.784,2.519z"/>
		<path style="fill-rule:evenodd;clip-rule:evenodd;fill:#E9E9E9;" d="M41.026,3.329c-0.069,0.661-0.263,1.11-0.577,1.348
			c-0.528,0.475-0.914,0.33-1.153-0.434c0.235,0.147,0.541,0.111,0.917-0.106C40.401,4.028,40.672,3.759,41.026,3.329z"/>
		<path style="fill-rule:evenodd;clip-rule:evenodd;fill:#E9E9E9;" d="M12.229,21.9c-3.135,2.655-5.288,4.574-6.46,5.759
			c-0.631,0.647-1.892,1.46-3.786,2.44c1.197-1.143,3.59-3.258,7.178-6.344c5.364-4.789,9.293-7.762,11.787-8.92
			c1.352-0.611,2.245-1.154,2.672-1.627c0.19-0.279,0.333-0.728,0.429-1.347c0.344-2.793,1.301-5.263,2.872-7.411
			c1.836-2.469,4.158-3.923,6.967-4.36l-1.73,0.914c-1.267,0.675-2.534,1.52-3.805,2.536c-1.309,1.037-2.231,2.698-2.77,4.982
			c-0.353,2.346-0.675,3.83-0.97,4.451c-0.281,0.727-0.761,1.201-1.437,1.422c-1.439,0.549-2.536,1.041-3.289,1.476
			C18.458,16.696,15.905,18.707,12.229,21.9z"/>
		<path style="fill-rule:evenodd;clip-rule:evenodd;fill:#E9E9E9;" d="M36.572,2.262c0.167,0.638,0.607,0.75,1.323,0.336
			c0.501-0.346,0.99-1.023,1.463-2.029c-0.087,1.066-0.521,1.88-1.301,2.443c-0.464,0.324-0.856,0.297-1.177-0.083
			C36.722,2.74,36.6,2.529,36.515,2.295L36.572,2.262z"/>
	</g>
	<g>
		<path style="fill-rule:evenodd;clip-rule:evenodd;fill:#F5F5F5;" d="M2.804,33.347c-0.981-0.223-1.912-0.531-2.792-0.925
			l0.571-0.837c0.508,0.271,1.408,0.568,2.7,0.894c0.968,0.287,2.115,0.273,3.439-0.039l-0.133,0.161l0.088,0.542
			C5.449,33.625,4.158,33.693,2.804,33.347z"/>
		<path style="fill-rule:evenodd;clip-rule:evenodd;fill:#C2C2C2;" d="M1.655,34.095c-0.747-0.076-1.261-0.314-1.543-0.716
			l-0.104-0.702l0.002-0.255c0.88,0.394,1.811,0.702,2.792,0.925c1.354,0.347,2.645,0.278,3.872-0.204l0.27,0.859l-0.273-0.604
			c-0.005,0.511-0.028,0.862-0.068,1.055c-0.053,0.257-0.273,0.439-0.661,0.551c-0.176,0.045-0.914-0.149-2.217-0.581
			C3.192,34.279,2.501,34.17,1.655,34.095z"/>
		<path style="fill-rule:evenodd;clip-rule:evenodd;fill:#7D7D7D;" d="M12.579,28.635c-2.68,4.31-4.229,6.755-4.647,7.335
			c-0.207-0.444-0.536-1.101-0.986-1.968l-0.27-0.859l-0.088-0.542l0.133-0.161c0.29-0.28,1.59-1.68,3.9-4.198
			c2.336-2.646,3.966-4.602,4.892-5.869c1.23-1.781,3.002-3.622,5.317-5.522c2.404-2.008,4.274-3.116,5.609-3.323
			c0.238-0.024,2.132-0.046,5.684-0.067c2.754-0.011,4.839-0.396,6.256-1.159c-1.383,1.081-2.762,1.735-4.135,1.964
			c-2.034,0.215-3.986,0.44-5.858,0.676c-2.397,0.368-4.035,0.834-4.914,1.398c-1.271,1.186-2.651,2.405-4.135,3.656
			C17.673,21.464,15.421,24.343,12.579,28.635z"/>
		<path style="fill-rule:evenodd;clip-rule:evenodd;fill:#878787;" d="M5.611,36.125c-3.056-0.773-4.73-1.329-5.025-1.667
			c-0.223-0.209-0.38-0.569-0.474-1.079c0.282,0.401,0.796,0.64,1.543,0.716c0.846,0.075,1.537,0.185,2.071,0.327
			c1.303,0.432,2.042,0.626,2.217,0.581c0.387-0.111,0.607-0.294,0.661-0.551c0.04-0.192,0.063-0.544,0.068-1.055l0.273,0.604
			c0.451,0.867,0.78,1.523,0.986,1.968l-0.246,0.227c-0.177,0.215-0.366,0.324-0.564,0.325C6.822,36.525,6.319,36.393,5.611,36.125z
			"/>
		
			<radialGradient id="SVGID_2_" cx="706.9004" cy="-37.25" r="6.7" gradientTransform="matrix(1.1291 -0.6519 -0.4797 -0.8309 -781.7568 439.2844)" gradientUnits="userSpaceOnUse">
			<stop  offset="0" style="stop-color:#E3E3E3"/>
			<stop  offset="1" style="stop-color:#969696"/>
		</radialGradient>
		<path style="fill-rule:evenodd;clip-rule:evenodd;fill:url(#SVGID_2_);" d="M39.988,5.704c-0.398,1.132-1.153,2.216-2.263,3.252
			c-2.218,2.07-5.048,2.858-8.494,2.366c-2.451-0.333-2.892-1.968-1.325-4.902c0.88-1.692,1.777-2.746,2.691-3.161
			c0.688-0.285,1.674-0.317,2.954-0.099c0.734,0.141,1.3,0.209,1.698,0.204c0.101-0.002,0.268,0.071,0.502,0.217
			c0.063,0.021,0.371,0.294,0.926,0.82c0.308,0.273,0.613,0.323,0.914,0.149C38.081,4.268,38.88,4.652,39.988,5.704z"/>
	</g>
	<g>
		<path style="fill-rule:evenodd;clip-rule:evenodd;fill:#575757;" d="M29.48,13.97c-0.311-0.103-0.488-0.281-0.536-0.537
			l0.057-0.032l1.682,0.044l0.708,0.184l-0.635-0.057C30.47,13.512,30.045,13.644,29.48,13.97z"/>
		<path style="fill-rule:evenodd;clip-rule:evenodd;fill:#575757;" d="M8.288,34.241c0.249,0.082,0.691-0.455,1.328-1.612
			c0.383-0.729,1.143-2.238,2.278-4.529c0.753-1.394,2.364-3.339,4.835-5.837c2.157-2.261,3.225-3.498,3.203-3.71
			c-0.056-0.532-1.529,0.741-4.418,3.819c1.23-1.781,3.002-3.622,5.317-5.522c2.404-2.008,4.274-3.116,5.609-3.323
			c0.55-0.092,1.403-0.134,2.563-0.126l-0.057,0.032l-0.972,1.577c-2.159,0.344-3.697,0.81-4.614,1.395
			c-1.272,1.186-2.614,2.383-4.023,3.591c-1.663,1.468-3.914,4.347-6.757,8.639c-2.68,4.31-4.229,6.755-4.647,7.335
			c-0.207-0.444-0.536-1.101-0.986-1.968l-0.27-0.859l-0.088-0.542l0.512-0.55c0.21,0.104,0.43,0.485,0.659,1.143
			C7.988,33.851,8.164,34.2,8.288,34.241z"/>
		<path style="fill-rule:evenodd;clip-rule:evenodd;fill:#575757;" d="M28.944,13.433c0.048,0.255,0.226,0.434,0.536,0.537
			c0.559,0.186,1.25,0.209,2.073,0.072c1.323-0.143,2.285-0.389,2.888-0.736c1.57-0.061,2.883-0.396,3.937-1.004
			c-1.383,1.081-2.762,1.735-4.135,1.964c-2.034,0.215-3.986,0.44-5.858,0.676l-0.412,0.068L28.944,13.433z"/>
	</g>
</g>
</svg>
