<?xml version="1.0" encoding="iso-8859-1"?>
<!-- Generator: Adobe Illustrator 15.1.0, SVG Export Plug-In . SVG Version: 6.00 Build 0)  -->
<!DOCTYPE svg PUBLIC "-//W3C//DTD SVG 1.1//EN" "http://www.w3.org/Graphics/SVG/1.1/DTD/svg11.dtd">
<svg version="1.1" id="FlashAICB" xmlns="http://www.w3.org/2000/svg" xmlns:xlink="http://www.w3.org/1999/xlink" x="0px" y="0px"
	 width="37.5px" height="21.9px" viewBox="0 0 37.5 21.9" style="enable-background:new 0 0 37.5 21.9;" xml:space="preserve">
<g>
	<g>
		<path style="fill-rule:evenodd;clip-rule:evenodd;fill:#654C25;" d="M0.1,11.85C-0.067,11.05,0,9.667,0.3,7.7
			c0.267-1.633,1.483-3.284,3.65-4.95c1.966-1.533,3.8-2.417,5.5-2.65c1.3-0.2,2.466-0.067,3.5,0.4c0.5,0.2,0.866,0.433,1.1,0.7
			c1.3,1.066,1.7,2.316,1.2,3.75c-0.4,1.1-1.167,2.05-2.3,2.85c-0.6,0.434-1.7,1.45-3.3,3.05c-1.767,1.733-2.9,2.817-3.4,3.25
			C5.483,14.7,4.867,14.934,4.4,14.8c-0.767-0.366-1.55-0.684-2.35-0.95C0.983,13.483,0.333,12.816,0.1,11.85z"/>
		<g>
			<path style="fill-rule:evenodd;clip-rule:evenodd;fill:#564020;" d="M0,10.7c0-0.4,0.1-1.4,0.3-3c0.067-0.467,0.317-1.1,0.75-1.9
				C1.45,6.3,2,6.433,2.7,6.2c0.533-0.167,1.35-0.767,2.45-1.8c0.567-0.433,1.333-1.133,2.3-2.1c0.633-0.5,1.7-1.267,3.2-2.3
				c0.767,0.033,1.5,0.183,2.2,0.45c-0.967,0-1.717,0.167-2.25,0.5C9.967,1.083,9.233,1.367,8.4,1.8
				C7.967,2.067,7.517,2.483,7.05,3.05c-0.5,0.667-0.9,1.15-1.2,1.45c-0.767,0.867-1.3,1.6-1.6,2.2
				c-0.367,0.733-0.567,1.583-0.6,2.55C3.717,9.783,3.733,10.2,3.7,10.5c0,0.5-0.134,0.85-0.4,1.05
				c-0.433,0.3-1.017,0.334-1.75,0.101C0.883,11.45,0.367,11.134,0,10.7z"/>
			<path style="fill-rule:evenodd;clip-rule:evenodd;fill:#48361A;" d="M15.15,3.8l0.05-1.2C15.767,4,15.367,5.417,14,6.85
				C14.667,5.85,15.05,4.833,15.15,3.8z"/>
			<path style="fill-rule:evenodd;clip-rule:evenodd;fill:#48361A;" d="M0.15,11.85C0.05,11.55,0,11.167,0,10.7
				c0.367,0.434,0.883,0.75,1.55,0.95c0.733,0.233,1.317,0.199,1.75-0.101c0.267-0.2,0.4-0.55,0.4-1.05
				c0.033-0.3,0.017-0.717-0.05-1.25c0.033-0.967,0.233-1.817,0.6-2.55c0.3-0.6,0.833-1.333,1.6-2.2c0.3-0.3,0.7-0.783,1.2-1.45
				C7.517,2.483,7.967,2.067,8.4,1.8c0.833-0.433,1.567-0.716,2.2-0.85L10.4,1.1c-1.2,0.867-2.2,1.75-3,2.65
				c-0.767,0.833-1.316,1.467-1.65,1.9C5.117,6.417,4.667,7.133,4.4,7.8C4.133,8.4,4.05,9,4.15,9.6c0.033,0.2,0.1,0.417,0.2,0.65
				c0.167,0.3,0.267,0.5,0.3,0.6c0.133,0.466,0.05,0.883-0.25,1.25c-0.167,0.2-0.417,0.317-0.75,0.351c-0.4-0.033-0.7-0.05-0.9-0.05
				C1.617,12.4,0.75,12.217,0.15,11.85z"/>
			<path style="fill-rule:evenodd;clip-rule:evenodd;fill:#332614;" d="M14.05,1.2c0.467,0.367,0.85,0.833,1.15,1.4l-0.05,1.2
				c-0.1,1.034-0.483,2.05-1.15,3.05c-0.3,0.367-0.65,0.683-1.05,0.95c-0.6,0.434-1.7,1.45-3.3,3.05
				c-1.767,1.733-2.9,2.817-3.4,3.25C5.483,14.7,4.867,14.934,4.4,14.8c-0.767-0.366-1.55-0.684-2.35-0.95c-1.066-0.333-1.7-1-1.9-2
				c0.6,0.367,1.467,0.551,2.6,0.551c0.2,0,0.5,0.017,0.9,0.05C3.983,12.417,4.233,12.3,4.4,12.1c0.3-0.366,0.383-0.783,0.25-1.25
				c-0.033-0.1-0.133-0.3-0.3-0.6c-0.1-0.233-0.167-0.45-0.2-0.65C4.05,9,4.133,8.4,4.4,7.8c0.267-0.667,0.717-1.383,1.35-2.15
				c0.333-0.433,0.883-1.066,1.65-1.9c0.8-0.9,1.8-1.783,3-2.65l0.2-0.15c0.533-0.333,1.283-0.5,2.25-0.5
				C13.383,0.683,13.783,0.933,14.05,1.2z"/>
			<path style="fill-rule:evenodd;clip-rule:evenodd;fill:#75582B;" d="M9.35,0.1L9.2,0.2C7.7,1.167,6.867,1.733,6.7,1.9
				C6.167,2.4,5.3,3.083,4.1,3.95c-0.7,0.633-1.35,0.867-1.95,0.7C2.117,4.483,2.2,4.35,2.4,4.25H2.25C3.217,3.217,4.4,2.3,5.8,1.5
				C7.133,0.733,8.316,0.267,9.35,0.1z"/>
		</g>
	</g>
	<g>
		<path style="fill-rule:evenodd;clip-rule:evenodd;fill:#654C25;" d="M35.5,4.95c1.2,0.767,1.833,1.5,1.9,2.2
			c0.133,1-1.301,1.167-4.301,0.5c-0.833-0.2-1.883-0.35-3.149-0.45L28.3,7.05l1.95,0.65c1.6,0.633,3.116,1.383,4.55,2.25
			c1.667,1,2.483,2.166,2.45,3.5c-0.066,1.2-0.667,1.983-1.8,2.35c-1,0.3-1.834,0.4-2.5,0.3c-0.667-0.1-1.566-0.483-2.7-1.149
			c-1.134-0.667-2.517-1.3-4.15-1.9c-1.633-0.633-2.699-0.934-3.199-0.899c-0.733,0.033,0.25,1.1,2.949,3.199
			c1.301,1,2.067,1.634,2.301,1.9c0.566,0.634,0.8,1.45,0.699,2.45c-0.066,1.166-0.399,1.866-1,2.1
			c-0.666,0.233-1.767,0.017-3.3-0.649c-0.5-0.233-1.967-1.067-4.399-2.5c-2.034-1.233-4.117-2.2-6.25-2.9l-1.3-0.45
			c-0.467,0.367-0.817,0.667-1.05,0.9c-0.4,0.366-0.583,0.866-0.55,1.5c0.167,1.1,0.25,1.85,0.25,2.25
			c-0.033,0.633-0.4,1.133-1.1,1.5C9.35,21.85,8.5,21.833,7.6,21.4c-0.833-0.434-1.333-1-1.5-1.7c-0.133-0.467-0.184-1.233-0.15-2.3
			c0-1.301-0.017-2.134-0.05-2.5l-0.5-2.95c0.1-0.134,0.133-0.351,0.1-0.65c-0.022-0.155-0.005-0.28,0.05-0.375
			C5.44,10.828,5.257,10.586,5,10.2C4.233,9.033,4.683,7.533,6.35,5.7C7.617,4.367,9.3,3.067,11.4,1.8c1.367-0.8,3.033-0.966,5-0.5
			c1,0.267,1.867,0.6,2.6,1c0.733,0.133,2.566,0.267,5.5,0.4c2.934,0.167,5.066,0.35,6.4,0.55C32.667,3.55,34.2,4.117,35.5,4.95z"/>
		<g>
			<path style="fill-rule:evenodd;clip-rule:evenodd;fill:#564020;" d="M12.85,10.2V8.95l0.1,0.1c0.433,0.667,0.65,1.534,0.65,2.601
				v1.05L13.55,13.1H13.5c0-1.033-0.017-1.649-0.05-1.85c-0.1,0.6-0.184,1.033-0.25,1.3l-0.2,0.4l-0.25,0.25v-3.15L12.85,10.2z"/>
			<path style="fill-rule:evenodd;clip-rule:evenodd;fill:#564020;" d="M9.85,8.15L9.6,8.5c0.133,0.067,0.333,0.1,0.6,0.1
				C9.7,8.8,9.15,9.083,8.55,9.45c-1,0.7-1.617,1.183-1.85,1.45l-0.4,0.5c0.233-0.867,0.684-1.583,1.35-2.15
				c0.533-0.4,1-0.7,1.4-0.9C9.25,8.25,9.433,8.2,9.6,8.2L9.85,8.15z"/>
			<polygon style="fill-rule:evenodd;clip-rule:evenodd;fill:#564020;" points="13.4,8 13.45,8.3 13.45,8.35 13,8.3 			"/>
			<path style="fill-rule:evenodd;clip-rule:evenodd;fill:#564020;" d="M10.45,8.5V8.15c0.3,0,0.6,0.05,0.9,0.15L10.45,8.5z"/>
			<path style="fill-rule:evenodd;clip-rule:evenodd;fill:#564020;" d="M24.65,11.25c-0.301,0-0.534,0.066-0.7,0.2
				c-0.167,0.233-0.316,0.399-0.45,0.5c0.066-0.167,0.167-0.417,0.3-0.75c0.134-0.233,0.316-0.4,0.55-0.5
				c0.267-0.133,0.634-0.167,1.101-0.1c0.233,0.033,0.583,0.1,1.05,0.2l2,0.45c0.4,0.066,0.816,0.233,1.25,0.5h0.05l0.05,0.05
				l0.95,0.5l-1.149-0.35c0.533,0.333,0.916,0.6,1.149,0.8c0.167,0.134,0.417,0.467,0.75,1v0.05l-1-0.399
				c0.134,0.333,0.584,0.666,1.351,1c-0.233,0.133-0.634,0.199-1.2,0.199h-1.15L27,13.4c0.066-0.2,0.283-0.284,0.65-0.25
				c0.199,0.033,0.466,0.1,0.8,0.199c1,0.167,1.6,0.233,1.8,0.2c0.066-0.267,0.066-0.467,0-0.6c-0.033-0.134-0.167-0.283-0.4-0.45
				c-0.3-0.267-0.716-0.517-1.25-0.75c-0.333-0.2-0.866-0.366-1.6-0.5C26.634,11.184,25.85,11.184,24.65,11.25z"/>
			<path style="fill-rule:evenodd;clip-rule:evenodd;fill:#564020;" d="M22.5,11.15c0.366,0.6,0.583,0.933,0.65,1H22.9l-0.2,0.05
				c-0.2-0.134-0.367-0.283-0.5-0.45c-0.767-1-1.434-1.7-2-2.1c-0.267-0.2-0.617-0.333-1.05-0.4c-0.5-0.067-0.884-0.133-1.15-0.2
				l-3.7-0.6L14.25,8.1L13.45,8h0.05c0.566-0.167,1.433-0.167,2.6,0c0.6,0.067,1.45,0.333,2.55,0.8
				c0.399,0.133,0.966,0.383,1.699,0.75c0.601,0.167,1.017,0.3,1.25,0.4C21.866,10.117,22.167,10.517,22.5,11.15z"/>
			<path style="fill-rule:evenodd;clip-rule:evenodd;fill:#564020;" d="M28.7,5.8c-0.033,0.267-0.334,0.367-0.9,0.3
				c-0.666-0.033-1.149-0.083-1.45-0.15c-0.233,0-0.483-0.067-0.75-0.2c-0.233-0.2-0.416-0.317-0.55-0.35
				C23.483,5.233,22.4,4.95,21.8,4.55c-0.8-0.566-1.233-1.066-1.3-1.5l0.05-0.4c0.767,0,1.3-0.033,1.601-0.1l1.449,0.1l0.101,0.1
				c-0.2,0.3-0.283,0.633-0.25,1c0.033,0.4,0.184,0.717,0.45,0.95c0.267,0.233,0.633,0.367,1.1,0.4c0.267,0,0.65-0.017,1.15-0.05
				H27.6l0.7,0.25C28.6,5.4,28.733,5.567,28.7,5.8z"/>
			<path style="fill-rule:evenodd;clip-rule:evenodd;fill:#564020;" d="M34.55,5.75c0.134-0.233,0.15-0.583,0.05-1.05l0.2-0.15
				c0.434,0.233,0.917,0.55,1.45,0.95l-0.1,0.6c-0.267,0.433-0.934,0.617-2,0.55C33.616,6.583,32.917,6.367,32.05,6
				c-1.1-0.433-1.816-0.7-2.149-0.8H30.1c0.434,0.167,0.851,0.25,1.25,0.25h0.301l0.399,0.1c0.334,0.067,0.834,0.217,1.5,0.45
				C34.05,6.1,34.384,6.017,34.55,5.75z"/>
			<path style="fill-rule:evenodd;clip-rule:evenodd;fill:#564020;" d="M16.825,5.3c0.119,0.03,0.244,0.063,0.375,0.1l0.85,0.25
				L17.2,5.4C17.069,5.363,16.944,5.33,16.825,5.3z M16.55,5.225L13.75,4.4L13.2,4.15c-0.967-0.433-1.934-0.983-2.9-1.65L11,2.05
				c0.467,0.4,0.767,0.633,0.9,0.7C13.039,3.769,14.588,4.594,16.55,5.225z"/>
			<path style="fill-rule:evenodd;clip-rule:evenodd;fill:#564020;" d="M8.35,18.45c0.066,0.1,0.133,0.217,0.2,0.35
				c0.067,0.101,0.167,0.167,0.3,0.2l0.45,0.05L9.1,19.2c-0.233,0.1-0.367,0.149-0.4,0.149c0.1,0.067,0.267,0.101,0.5,0.101
				c0.233-0.033,0.4-0.017,0.5,0.05c-0.067,0.167-0.467,0.25-1.2,0.25c-0.233-0.066-0.583-0.134-1.05-0.2L7.1,19.2
				c-0.267-0.3-0.45-0.717-0.55-1.25L6.4,17.4L6.5,16.8c0.3,0.4,0.566,0.7,0.8,0.9L8.35,18.45z"/>
			<path style="fill-rule:evenodd;clip-rule:evenodd;fill:#564020;" d="M9.8,20.05c-0.533,0.3-1.167,0.233-1.9-0.2l0.6-0.05
				C9,19.967,9.433,20.05,9.8,20.05z"/>
			<path style="fill-rule:evenodd;clip-rule:evenodd;fill:#564020;" d="M27.85,17.35L27.9,17.15L28.1,18.2l-0.1,1
				c0.4-0.334,0.634-0.617,0.7-0.851L28.6,18.9l-0.05,0.149L28.15,19.4l-0.101,0.05c-0.467,0.233-0.8,0.366-1,0.399
				c-0.399-0.033-0.684-0.033-0.85,0c-0.601-0.133-1.017-0.199-1.25-0.199l-1.5-0.25l-2-0.9c-0.4-0.267-1.117-0.816-2.15-1.65
				c-0.899-0.699-1.633-1.199-2.2-1.5l3.1,0.9c0.666,0.233,1.45,0.733,2.35,1.5c1.101,0.833,2.2,1.25,3.3,1.25
				c0.567,0,0.884-0.033,0.95-0.1l0.25-0.45l0.2-0.05v0.25C27.65,18.783,27.85,18.35,27.85,17.35z"/>
			<path style="fill-rule:evenodd;clip-rule:evenodd;fill:#564020;" d="M13.5,13.1h0.05l0.35,0.051v0.399l0.85,1.05l0.05-1.05
				c0.233,0.167,0.55,0.434,0.95,0.8c0.4,0.4,0.717,0.667,0.95,0.801c-0.467-0.233-0.884-0.351-1.25-0.351
				c-0.534,0-0.867-0.033-1-0.1C13.883,14.434,13.566,13.9,13.5,13.1z"/>
			<path style="fill-rule:evenodd;clip-rule:evenodd;fill:#564020;" d="M11.5,12.2c-0.1-0.467,0-0.684,0.3-0.65l0.65-0.1
				c-0.134,0.434-0.217,0.783-0.25,1.05c-0.233,0.033-0.384,0.033-0.45,0C11.617,12.467,11.533,12.366,11.5,12.2z"/>
			<path style="fill-rule:evenodd;clip-rule:evenodd;fill:#564020;" d="M11.05,9.65c-0.033-0.2-0.017-0.316,0.05-0.35
				c0.066-0.033,0.233-0.05,0.5-0.05l0.45,0.3c0.467,0.267,0.567,0.633,0.3,1.1c-0.267,0.466-0.55,0.484-0.85,0.05l-0.1-0.5
				C11.367,10.067,11.25,9.883,11.05,9.65z"/>
			<path style="fill-rule:evenodd;clip-rule:evenodd;fill:#564020;" d="M10.45,8.15V8.6H10.2c-0.267,0-0.467-0.033-0.6-0.1
				l0.25-0.35H10.45z"/>
			<path style="fill-rule:evenodd;clip-rule:evenodd;fill:#564020;" d="M13.9,13.55V13.15c0.067-0.334,0.217-0.483,0.45-0.45
				s0.383,0.316,0.45,0.85l-0.05,1.05L13.9,13.55z"/>
			<path style="fill-rule:evenodd;clip-rule:evenodd;fill:#564020;" d="M14.65,11.65c-0.167,0.033-0.267-0.017-0.3-0.15
				c-0.034-0.167,0-0.283,0.1-0.35V10.5C14.683,10.667,14.75,11.05,14.65,11.65z"/>
			<path style="fill-rule:evenodd;clip-rule:evenodd;fill:#564020;" d="M13.45,8l0.8,0.1l0.05,0.35c0.2,1,0.067,1.3-0.4,0.9
				c-0.167-0.167-0.316-0.5-0.45-1V8.3L13.4,8H13.45z"/>
			<path style="fill-rule:evenodd;clip-rule:evenodd;fill:#48361A;" d="M7.1,19.2l0.35,0.35c-0.6-0.066-0.967-0.316-1.1-0.75
				C6.283,18.434,6.3,17.967,6.4,17.4l0.15,0.55C6.65,18.483,6.833,18.9,7.1,19.2z"/>
			<path style="fill-rule:evenodd;clip-rule:evenodd;fill:#48361A;" d="M26,19.9c0.8,0.166,1.75,0.133,2.85-0.101l-0.1,0.65
				c-0.733,0.333-1.616,0.35-2.65,0.05c-0.633-0.167-1.517-0.533-2.649-1.1l1.5,0.25c0.233,0,0.649,0.066,1.25,0.199L26,19.9z"/>
			<path style="fill-rule:evenodd;clip-rule:evenodd;fill:#48361A;" d="M12.75,13.2L13,12.95l0.2-0.4c0.066-0.267,0.15-0.7,0.25-1.3
				c0.033,0.2,0.05,0.816,0.05,1.85c0.066,0.801,0.383,1.334,0.95,1.601c0.133,0.066,0.466,0.1,1,0.1
				c0.366,0,0.783,0.117,1.25,0.351l0.4,0.199c0.566,0.301,1.3,0.801,2.2,1.5c1.033,0.834,1.75,1.384,2.15,1.65l-0.65-0.25
				c-0.366-0.2-0.866-0.55-1.5-1.05c-0.666-0.5-1.166-0.851-1.5-1.05c-0.367-0.2-0.867-0.367-1.5-0.5
				c-0.767-0.2-1.267-0.334-1.5-0.4c-0.94-0.345-1.44-1.203-1.5-2.575c-0.032,0.482-0.316,0.991-0.85,1.525
				c-0.567,0.267-0.95,0.533-1.15,0.8c-0.333,0.4-0.517,0.934-0.55,1.6c0,0.801,0,1.384,0,1.75c0,0.667-0.133,1.15-0.4,1.45
				c-0.267,0.334-0.483,0.517-0.65,0.55H9c-0.667,0-1.133-0.083-1.4-0.25L7.3,19.9l0.6-0.051c0.733,0.434,1.367,0.5,1.9,0.2
				c-0.367,0-0.8-0.083-1.3-0.25l0.1-0.05c0.669-0.008,1.036-0.091,1.1-0.25c-0.1-0.066-0.267-0.083-0.5-0.05
				c-0.233,0-0.4-0.033-0.5-0.101c0.033,0,0.167-0.05,0.4-0.149l0.2-0.15l0.35-0.399L10.1,18l0.25-0.5c0.167-0.3,0.316-0.967,0.45-2
				l0.05-0.5c0.1-0.533,0.367-0.934,0.8-1.2L12.75,13.2z"/>
			<path style="fill-rule:evenodd;clip-rule:evenodd;fill:#48361A;" d="M30.35,15l-0.8-0.4h1.15c0.566,0,0.967-0.066,1.2-0.199
				l0.149,0.1l0.3,0.15C32.083,14.816,31.417,14.934,30.35,15z"/>
			<path style="fill-rule:evenodd;clip-rule:evenodd;fill:#48361A;" d="M23.8,11.2c-0.133,0.333-0.233,0.583-0.3,0.75l-0.1,0.25
				l-0.25-0.05c-0.067-0.067-0.284-0.4-0.65-1c-0.333-0.634-0.634-1.034-0.9-1.2c-0.233-0.1-0.649-0.233-1.25-0.4
				c-0.733-0.367-1.3-0.617-1.699-0.75C17.55,8.333,16.7,8.067,16.1,8c-1.167-0.167-2.034-0.167-2.6,0h-0.1L13,8.3
				c-0.1,0.167-0.15,0.383-0.15,0.65v1.25l-0.1-0.15l-0.25-0.8l-0.05-0.1V9.1c-0.134-0.233-0.333-0.434-0.6-0.6l-0.5-0.2
				c-0.3-0.1-0.6-0.15-0.9-0.15h-0.6L9.6,8.2c-0.146,0-0.304,0.042-0.475,0.125C9.865,7.939,10.59,7.714,11.3,7.65l-0.2-0.1
				c0.433,0.1,0.783,0.333,1.05,0.7c0.3-0.367,0.5-0.567,0.6-0.6c0.833-0.133,1.783-0.083,2.85,0.15c0.1,0.034,0.617,0.133,1.55,0.3
				c0.633,0.1,1.133,0.233,1.5,0.4c0.333,0.133,0.833,0.35,1.5,0.65c0.633,0.233,1.166,0.367,1.6,0.4
				c0.467,0.233,0.783,0.483,0.95,0.75c0.066,0.2,0.116,0.367,0.149,0.5c0.067,0.2,0.167,0.3,0.301,0.3
				c0.066,0,0.166-0.149,0.3-0.45c0.166-0.3,0.316-0.483,0.45-0.55c0.267-0.133,0.949-0.1,2.05,0.1
				c0.467,0.033,1.149,0.233,2.05,0.6l0.85,0.3c0.2,0.101,0.5,0.317,0.9,0.65c-0.434-0.267-0.85-0.434-1.25-0.5l-2-0.45
				c-0.467-0.1-0.816-0.167-1.05-0.2c-0.467-0.067-0.834-0.033-1.101,0.1C24.116,10.8,23.934,10.967,23.8,11.2z"/>
			<path style="fill-rule:evenodd;clip-rule:evenodd;fill:#48361A;" d="M34.15,6.65c1.066,0.067,1.733-0.117,2-0.55l0.1-0.6
				c0.434,0.367,0.733,0.683,0.9,0.95L37,6.55c-0.5,0.2-1.533,0.3-3.1,0.3c-0.834,0-1.434-0.033-1.801-0.1
				c-0.666-0.3-1.216-0.45-1.649-0.45l-4.2,0.1c-1.7,0-2.967-0.1-3.8-0.3c-0.934-0.233-1.783-0.667-2.55-1.3
				c-0.2-0.167-0.4-0.466-0.601-0.9c-0.2-0.433-0.283-0.833-0.25-1.2l1.5-0.05l-0.05,0.4c0.066,0.434,0.5,0.934,1.3,1.5
				c0.601,0.4,1.684,0.684,3.25,0.85c0.134,0.033,0.316,0.15,0.55,0.35c0.267,0.133,0.517,0.2,0.75,0.2
				c0.301,0.066,0.784,0.117,1.45,0.15c0.566,0.066,0.867-0.033,0.9-0.3c0.033-0.233-0.101-0.4-0.4-0.5l-0.7-0.25H27.7
				c0.7-0.167,1.434-0.117,2.2,0.15c0.333,0.1,1.05,0.367,2.149,0.8C32.917,6.367,33.616,6.583,34.15,6.65z"/>
			<path style="fill-rule:evenodd;clip-rule:evenodd;fill:#332614;" d="M23.45,19.4c1.133,0.566,2.017,0.933,2.649,1.1
				c1.034,0.3,1.917,0.283,2.65-0.05c-0.167,0.833-0.566,1.3-1.2,1.399c-0.633,0.134-1.633-0.1-3-0.699
				c-0.5-0.233-1.967-1.067-4.399-2.5c-2.034-1.233-4.117-2.2-6.25-2.9l-1.3-0.45c-0.467,0.367-0.817,0.667-1.05,0.9
				c-0.4,0.366-0.583,0.866-0.55,1.5c0.167,1.1,0.25,1.85,0.25,2.25c-0.033,0.633-0.4,1.133-1.1,1.5
				c-0.767,0.399-1.583,0.399-2.45,0c-0.8-0.367-1.317-0.9-1.55-1.601c0.533,0.067,0.917,0.084,1.15,0.051L7.6,20.1
				c0.267,0.167,0.733,0.25,1.4,0.25h0.7c0.167-0.033,0.383-0.216,0.65-0.55c0.267-0.3,0.4-0.783,0.4-1.45c0-0.366,0-0.949,0-1.75
				c0.033-0.666,0.217-1.199,0.55-1.6c0.2-0.267,0.583-0.533,1.15-0.8c0.534-0.534,0.817-1.043,0.85-1.525
				c0.06,1.372,0.56,2.23,1.5,2.575c0.233,0.066,0.733,0.2,1.5,0.4c0.633,0.133,1.133,0.3,1.5,0.5c0.334,0.199,0.834,0.55,1.5,1.05
				c0.634,0.5,1.134,0.85,1.5,1.05L23.45,19.4z"/>
			<path style="fill-rule:evenodd;clip-rule:evenodd;fill:#332614;" d="M32.25,10.3c0.767,0.267,1.417,0.417,1.95,0.45v0.05
				c0.233,0.167,0.649,0.4,1.25,0.7c0.533,0.3,0.934,0.55,1.2,0.75c0.199,0.167,0.35,0.5,0.449,1l0.051,0.65
				c-0.2,0.933-0.767,1.566-1.7,1.899c-1,0.3-1.816,0.4-2.45,0.3c-0.667-0.1-1.55-0.466-2.65-1.1c1.067-0.066,1.733-0.184,2-0.35
				c0.967,0.366,1.634,0.517,2,0.449l-0.5-0.55c0.5,0,0.784-0.05,0.851-0.149c0.066-0.067,0.1-0.317,0.1-0.75
				c-0.033-0.301-0.217-0.617-0.55-0.95c-0.634-0.667-1.616-1.434-2.95-2.3c-0.1-0.066-0.483-0.316-1.149-0.75L30.35,9.7
				C30.75,9.833,31.384,10.033,32.25,10.3z"/>
			<path style="fill-rule:evenodd;clip-rule:evenodd;fill:#332614;" d="M20.15,6.8c-1.5-0.7-2.934-1.283-4.3-1.75L18.9,5.9
				C19.267,6,20.4,6.35,22.3,6.95l1.05,0.35L20.15,6.8z"/>
			<path style="fill-rule:evenodd;clip-rule:evenodd;fill:#332614;" d="M22.75,9.15l0.7,0.5c1.127,0.191,2.094,0.391,2.899,0.6
				c-0.15-0.025-0.283-0.042-0.399-0.05c-1.101-0.2-1.783-0.233-2.05-0.1c-0.134,0.066-0.284,0.25-0.45,0.55
				c-0.134,0.3-0.233,0.45-0.3,0.45c-0.134,0-0.233-0.1-0.301-0.3c-0.033-0.133-0.083-0.3-0.149-0.5
				c-0.167-0.267-0.483-0.517-0.95-0.75h0.15C22.267,9.55,22.55,9.417,22.75,9.15z"/>
			<path style="fill-rule:evenodd;clip-rule:evenodd;fill:#332614;" d="M37,6.55l0.15-0.1c0.166,0.267,0.25,0.5,0.25,0.7
				c0.133,1-1.301,1.167-4.301,0.5c-0.833-0.2-1.883-0.35-3.149-0.45L28.3,7.05l1.95,0.65c1.6,0.633,3.116,1.383,4.55,2.25l1.2,0.9
				h-1.25l-0.55-0.1c-0.533-0.033-1.184-0.183-1.95-0.45c-0.866-0.267-1.5-0.466-1.9-0.6L30.15,9.65
				C28.184,8.583,25.917,7.8,23.35,7.3L22.3,6.95C20.4,6.35,19.267,6,18.9,5.9l-1.7-0.5c-2.267-0.633-4.034-1.517-5.3-2.65
				c-0.133-0.067-0.433-0.3-0.9-0.7l0.4-0.25c0.367-0.233,0.767-0.4,1.2-0.5l5.85,1.65c-0.066-0.067-0.066-0.133,0-0.2l0.6-0.05
				c-0.033,0.367,0.05,0.767,0.25,1.2c0.2,0.434,0.4,0.733,0.601,0.9c0.767,0.633,1.616,1.067,2.55,1.3c0.833,0.2,2.1,0.3,3.8,0.3
				l4.2-0.1c0.434,0,0.983,0.15,1.649,0.45c0.367,0.067,0.967,0.1,1.801,0.1C35.467,6.85,36.5,6.75,37,6.55z"/>
			<path style="fill-rule:evenodd;clip-rule:evenodd;fill:#332614;" d="M22.75,9.15c-0.2,0.267-0.483,0.4-0.85,0.4h-0.15
				c-0.434-0.033-0.967-0.167-1.6-0.4c-0.667-0.3-1.167-0.517-1.5-0.65c-0.367-0.167-0.867-0.3-1.5-0.4
				c-0.933-0.167-1.45-0.267-1.55-0.3c-1.067-0.233-2.017-0.283-2.85-0.15c-0.1,0.033-0.3,0.233-0.6,0.6
				c-0.267-0.367-0.617-0.6-1.05-0.7l-3.95-2.6c0.767-0.7,1.45-1.267,2.05-1.7c1.066,0.2,2.116,0.45,3.15,0.75l3.5,1.05
				c1.367,0.467,2.8,1.05,4.3,1.75L19.35,6.75L22.75,9.15z"/>
			<path style="fill-rule:evenodd;clip-rule:evenodd;fill:#332614;" d="M5.4,11.95c0.1-0.134,0.15-0.316,0.15-0.55
				c-0.033-0.233-0.033-0.384,0-0.45L5,10.2C4.1,8.8,4.816,7.05,7.15,4.95l3.95,2.6l0.2,0.1c-0.733,0.067-1.483,0.3-2.25,0.7
				c-0.4,0.2-0.867,0.5-1.4,0.9C6.983,9.817,6.533,10.533,6.3,11.4L6.25,11.55c-0.167,0.566-0.217,1.316-0.15,2.25
				c0.066,1.233,0.083,2,0.05,2.3c0.067-0.3,0.2-0.55,0.4-0.75c0.1,0.367,0.083,0.851-0.05,1.45L6.4,17.4
				c-0.1,0.566-0.117,1.033-0.05,1.399c0.133,0.434,0.5,0.684,1.1,0.75c0.466,0.066,0.816,0.134,1.05,0.2h0.1L8.5,19.8L7.3,19.9
				c-0.233,0.033-0.617,0.017-1.15-0.051L6.1,19.7c-0.133-0.467-0.184-1.233-0.15-2.3c0-1.301-0.017-2.134-0.05-2.5L5.4,11.95z"/>
			<path style="fill-rule:evenodd;clip-rule:evenodd;fill:#332614;" d="M28.55,19.05L28.6,18.9L28.7,18.35V18.2
				c0.166,0.399,0.217,0.899,0.149,1.5v0.1c-1.1,0.233-2.05,0.267-2.85,0.101l0.2-0.051c0.166-0.033,0.45-0.033,0.85,0
				c0.2-0.033,0.533-0.166,1-0.399l0.101-0.05C28.35,19.3,28.483,19.184,28.55,19.05z"/>
			<path style="fill-rule:evenodd;clip-rule:evenodd;fill:#332614;" d="M32.5,14.45l1.35,0.1l0.5,0.55
				c-0.366,0.067-1.033-0.083-2-0.449l-0.3-0.15L31.9,14.4c-0.767-0.334-1.217-0.667-1.351-1l1,0.399
				C31.783,14.2,32.1,14.417,32.5,14.45z"/>
			<path style="fill-rule:evenodd;clip-rule:evenodd;fill:#332614;" d="M28.85,11.1l-0.05-0.05c-0.434-0.133-0.75-0.233-0.95-0.3
				c-0.966-0.4-2.433-0.767-4.399-1.1l-4.101-2.9L20.15,6.8l3.199,0.5c2.567,0.5,4.834,1.284,6.801,2.35
				c0.666,0.434,1.05,0.684,1.149,0.75c1.334,0.867,2.316,1.633,2.95,2.3c0.333,0.333,0.517,0.649,0.55,0.95
				c0,0.433-0.033,0.683-0.1,0.75c-0.066,0.1-0.351,0.149-0.851,0.149l-1.35-0.1c-0.4-0.033-0.717-0.25-0.95-0.65v-0.05
				c-0.333-0.533-0.583-0.866-0.75-1c-0.233-0.2-0.616-0.467-1.149-0.8L30.8,12.3L31.4,12.4c-0.7-0.233-1.217-0.434-1.551-0.601
				l-0.05-0.05h-0.05C29.35,11.417,29.05,11.2,28.85,11.1z"/>
			<path style="fill-rule:evenodd;clip-rule:evenodd;fill:#332614;" d="M20.55,2.65l-2.1,0.1c-0.066,0.067-0.066,0.133,0,0.2
				L12.6,1.3c0.767-0.233,1.583-0.3,2.45-0.2l0.35,0.05C16.7,1.317,17.9,1.7,19,2.3l3.15,0.25C21.85,2.617,21.316,2.65,20.55,2.65z"
				/>
			<path style="fill-rule:evenodd;clip-rule:evenodd;fill:#75582B;" d="M9.6,9.55c-0.034-0.433,0.25-0.7,0.85-0.8
				c0.155-0.031,0.555-0.048,1.2-0.05c-0.733,0.033-1.1,0.566-1.1,1.6c0,0.534,0.034,0.917,0.1,1.15c0,0.066,0.25,0.383,0.75,0.95
				c0.267,0.333,0.317,0.566,0.15,0.699c-0.333,0.134-0.617,0.25-0.85,0.351c-0.5,0.2-1,0.583-1.5,1.149
				c-0.134,0.233-0.233,0.367-0.3,0.4c-0.066,0.066-0.217,0.1-0.45,0.1C7.417,15.2,6.767,15.15,6.5,14.95
				c0.267-0.467,0.583-0.783,0.95-0.95c0.622-0.287,1.081-0.462,1.375-0.525c-0.287,0.024-0.545,0.05-0.775,0.075
				C7.45,13.583,7.1,13.533,7,13.4c-0.133-0.167-0.067-0.584,0.2-1.25c0.733-1.5,1.466-2.3,2.2-2.4l0.75-0.1L9.6,9.55z"/>
			<path style="fill-rule:evenodd;clip-rule:evenodd;fill:#75582B;" d="M9.25,15.8c0.2-0.267,0.383-0.416,0.55-0.45l0.75-0.75
				c0,2.067-0.316,3.217-0.95,3.45c-0.267,0.101-0.583,0.117-0.95,0.05c-0.4-0.066-0.7-0.199-0.9-0.399
				C7.683,17.634,7.533,17.434,7.3,17.1c-0.167-0.267-0.333-0.433-0.5-0.5c0.967,0,1.583-0.083,1.85-0.25
				C8.783,16.283,8.983,16.1,9.25,15.8z"/>
			<path style="fill-rule:evenodd;clip-rule:evenodd;fill:#75582B;" d="M15.95,12.2c0.066-0.167,0.3-0.384,0.7-0.65
				c0.333-0.233,0.467-0.517,0.4-0.85c-0.7-0.034-1.216-0.083-1.55-0.15c0.1-0.333,0.333-0.583,0.7-0.75
				c0.366-0.267,0.966-0.45,1.8-0.55l0.75,0.1c0.134,0.167,0.634,0.55,1.5,1.15c0.733,0.566,1,1.05,0.8,1.45
				c-0.066,0.166-0.467,0.316-1.2,0.45c-0.8,0.199-1.216,0.3-1.25,0.3c-0.233,0.133-0.716,0.2-1.45,0.2
				c-0.333,0.066-0.6,0.083-0.8,0.05C15.95,12.884,15.816,12.634,15.95,12.2z"/>
			<path style="fill-rule:evenodd;clip-rule:evenodd;fill:#75582B;" d="M22.85,13.25h0.5c0.467,0.467,1.301,1.167,2.5,2.1
				c1.134,0.867,1.817,1.417,2.051,1.65v0.15L27.85,17.35c-0.1,0.5-0.3,0.851-0.6,1.051l-0.2,0.05
				c-0.399,0.2-1.149,0.166-2.25-0.101c-0.967-0.267-1.717-0.666-2.25-1.199l1,0.199c0.066,0,0.316,0.101,0.75,0.301
				c0.334,0.166,0.584,0.233,0.75,0.199c0.334,0,0.5-0.133,0.5-0.399s-0.283-0.483-0.85-0.65c-0.601-0.233-0.95-0.399-1.05-0.5
				c-0.034-0.033-0.084-0.133-0.15-0.3c-0.033-0.066-0.033-0.184,0-0.35l-0.7-0.25c-0.366-0.233-0.7-0.384-1-0.45
				c-0.467-0.167-1.1-0.233-1.899-0.2c-0.934,0.033-1.567,0.017-1.9-0.05c-0.067-0.434,0.45-0.851,1.55-1.25
				c0.434-0.167,0.983-0.25,1.65-0.25C21.566,13.2,22.116,13.217,22.85,13.25z"/>
			<path style="fill-rule:evenodd;clip-rule:evenodd;fill:#75582B;" d="M28.3,12.6c-0.633,0.167-1.366,0.167-2.2,0
				c-0.3-0.066-0.566-0.149-0.8-0.25c-0.399-0.133-0.616-0.267-0.649-0.399c-0.2-0.5,0.283-0.667,1.449-0.5L28.3,12.6z"/>
			<path style="fill-rule:evenodd;clip-rule:evenodd;fill:#75582B;" d="M34.8,4.55L34.6,4.7l-0.05,0.05
				c-0.866,0.533-1.833,0.767-2.899,0.7H31.35c-0.399,0-0.816-0.083-1.25-0.25l-0.5-0.15C28.066,4.417,26.1,4.167,23.7,4.3
				c0.366-0.066,0.916-0.283,1.649-0.65C25.483,3.617,26.1,3.6,27.2,3.6c0.399,0,1.017,0.017,1.85,0.05c0.767,0,1.4-0.033,1.9-0.1
				c-0.033-0.033-0.467-0.15-1.3-0.35l-2-0.15c-1.5,0-2.634-0.033-3.4-0.1c-0.134-0.034-0.316-0.1-0.55-0.2L23.6,2.65
				c3.267,0.133,5.7,0.333,7.301,0.6C32.3,3.483,33.6,3.917,34.8,4.55z"/>
		</g>
	</g>
	<g>
		<path style="fill-rule:evenodd;clip-rule:evenodd;fill:#A49E89;" d="M37.3,12.25c0.267,0.8,0.233,1.55-0.1,2.25
			c-0.533,0.934-1.3,1.517-2.3,1.75c-0.7,0.267-1.233,0.417-1.601,0.45c-0.566,0.033-1.467-0.15-2.7-0.55
			c-1-0.334-2.583-1.034-4.75-2.101c-1.833-0.866-2.8-1.283-2.899-1.25c-0.3,0.134-0.384,0.033-0.25-0.3
			c0.133-0.233,0.45-0.233,0.95,0l2.55,0.8c1.434,0.467,2.783,1.017,4.05,1.65c2.2,1.166,3.366,1.25,3.5,0.25
			c0.134-0.967-0.267-1.834-1.2-2.601c-0.833-0.633-2.149-1.267-3.95-1.899c-1.466-0.5-2.8-0.883-4-1.15
			C24.2,9.45,22.983,9.2,20.95,8.8c-2.2-0.533-3.917-0.933-5.15-1.2c-2.3-0.5-4.05-0.617-5.25-0.35c-2.466,0.533-3.966,1.4-4.5,2.6
			l-0.4,0.95c-0.167-0.167-0.333-0.367-0.5-0.6C4.783,9.7,4.6,9.233,4.6,8.8c0-1.2,0.9-2.667,2.7-4.4
			c2.367-2.167,4.333-3.283,5.9-3.35c1.333-0.066,2.15-0.1,2.45-0.1c0.633,0.033,1.217,0.133,1.75,0.3l1.15,0.45
			c-0.066,0.233-0.116,0.5-0.149,0.8c-0.067,0.567,0.017,1.033,0.25,1.4c0.399,0.667,3.616,1.717,9.649,3.15
			c1.167,0.267,2.7,0.867,4.601,1.8c1.333,0.633,2.416,1.217,3.25,1.75C36.684,10.967,37.066,11.517,37.3,12.25z"/>
		<g>
			<polygon style="fill-rule:evenodd;clip-rule:evenodd;fill:#7E7969;" points="31.45,15.5 30.4,16.1 30.1,16 30.7,15.2 			"/>
			<path style="fill-rule:evenodd;clip-rule:evenodd;fill:#7E7969;" d="M33.2,13.25c0.3,0,0.517-0.066,0.649-0.2l0.2-0.399
				L34.15,12.8c0.566,0.467,1.017,0.566,1.35,0.3l0.25-0.399l0.3-0.05c0.134-0.134,0.2-0.367,0.2-0.7V11.35L36.2,11.1l0.5,0.051
				c0.533,0.666,0.8,1.383,0.8,2.149c-0.634,0.767-1.217,1.184-1.75,1.25c-0.5,0.134-0.917,0.184-1.25,0.15
				c-0.134-0.033-0.267-0.101-0.4-0.2c-0.166-0.1-0.283-0.167-0.35-0.2H33.7C33.6,13.9,33.434,13.55,33.2,13.25z"/>
			<path style="fill-rule:evenodd;clip-rule:evenodd;fill:#7E7969;" d="M23.1,5.7c-0.199,0-0.5,0.066-0.899,0.2
				c-0.033,0.3,0.033,0.517,0.2,0.65c0.1,0.067,0.333,0.167,0.699,0.3l1.95,0.5c0.167,0.066,0.4,0.167,0.7,0.3
				c0.277,0.093,0.494,0.143,0.65,0.15l-2-0.05C24.1,7.717,23.85,7.7,23.65,7.7c-0.367,0-0.601,0.033-0.7,0.1
				c-0.2,0.133,0.116,0.383,0.95,0.75c0.433,0.167,0.933,0.35,1.5,0.55c0.133,0.066,0.433,0.183,0.899,0.35
				c0.434,0.167,0.684,0.333,0.75,0.5v0.25c-1.467-0.434-3.5-0.9-6.1-1.4L19.85,8.6c0.101-0.267,0.117-0.533,0.051-0.8
				c-0.034-0.3-0.233-0.583-0.601-0.85c-0.434-0.3-0.733-0.517-0.899-0.65C18.2,6.133,18.083,6,18.05,5.9
				c0-0.1,0.033-0.283,0.101-0.55c-0.267,0.3-0.484,0.483-0.65,0.55c-0.4,0.033-0.717,0.167-0.95,0.4
				c-0.133,0.167-0.233,0.25-0.3,0.25C16.217,6.583,16.1,6.6,15.9,6.6c-0.333,0-0.583,0.017-0.75,0.05c-0.333,0-0.5,0.1-0.5,0.3
				l-0.9,0.3c-1.3-0.167-2.367-0.167-3.2,0C10.017,7.383,9.4,7.567,8.7,7.8L8.05,7.35c0.133-0.367,0.534-0.567,1.2-0.6
				c0.367,0,0.883,0,1.55,0c0.133-0.033,0.3-0.117,0.5-0.25l0.55-0.4c0.033,0,0.183-0.017,0.45-0.05c0.233-0.033,0.383-0.1,0.45-0.2
				c0.066-0.067,0.117-0.167,0.15-0.3c0-0.167,0.033-0.283,0.1-0.35c0.066-0.1,0.367-0.217,0.9-0.35l1.4-0.35
				c0.867-0.333,1.25-0.883,1.15-1.65C16.417,2.617,16.267,2.367,16,2.1c-0.067-0.367,0.15-0.65,0.65-0.85L17.1,1.2l0.3,0.05
				l1.15,0.45C18.45,1.933,18.4,2.2,18.4,2.5L18,3.25C17.833,3.55,17.767,3.8,17.8,4c0.034,0.4,0.5,0.5,1.4,0.3
				C19.833,4.633,21.134,5.1,23.1,5.7z"/>
			<path style="fill-rule:evenodd;clip-rule:evenodd;fill:#4E4B41;" d="M30.6,16.15L30.4,16.1l1.05-0.6
				c1.399,0.533,2.166,0.434,2.3-0.3c0.033-0.2,0.017-0.5-0.05-0.9h0.05c0.066,0.033,0.184,0.101,0.35,0.2
				c0.134,0.1,0.267,0.167,0.4,0.2c0.333,0.033,0.75-0.017,1.25-0.15c0.533-0.066,1.116-0.483,1.75-1.25c0,0.4-0.1,0.8-0.3,1.2
				c-0.533,0.934-1.3,1.517-2.3,1.75c-0.7,0.267-1.233,0.417-1.601,0.45C32.733,16.733,31.833,16.55,30.6,16.15z"/>
			<path style="fill-rule:evenodd;clip-rule:evenodd;fill:#4E4B41;" d="M18.4,6.3c0.166,0.133,0.466,0.35,0.899,0.65
				C19.667,7.217,19.866,7.5,19.9,7.8c0.066,0.267,0.05,0.534-0.051,0.8c-3.167-0.8-5.2-1.25-6.1-1.35l0.9-0.3
				c0-0.2,0.167-0.3,0.5-0.3c0.167-0.033,0.417-0.05,0.75-0.05c0.2,0,0.317-0.017,0.35-0.05c0.066,0,0.167-0.083,0.3-0.25
				c0.233-0.233,0.55-0.367,0.95-0.4c0.167-0.066,0.383-0.25,0.65-0.55C18.083,5.617,18.05,5.8,18.05,5.9
				C18.083,6,18.2,6.133,18.4,6.3z"/>
			<path style="fill-rule:evenodd;clip-rule:evenodd;fill:#4E4B41;" d="M19.2,4.3c-0.9,0.2-1.367,0.1-1.4-0.3
				c-0.033-0.2,0.034-0.45,0.2-0.75l0.4-0.75c-0.067,0.567,0.017,1.033,0.25,1.4C18.717,4,18.9,4.133,19.2,4.3z"/>
			<path style="fill-rule:evenodd;clip-rule:evenodd;fill:#BAB29C;" d="M12.8,1.45c0.467-0.1,0.883-0.25,1.25-0.45l1.4-0.05
				c-1.567,0.4-2.534,0.683-2.9,0.85c-0.633,0.233-1.05,0.55-1.25,0.95c-0.133,0.233-0.117,0.383,0.05,0.45
				c0.1,0.033,0.283,0.1,0.55,0.2c-0.066,0.133-0.2,0.2-0.4,0.2c-0.3,0-0.483,0-0.55,0c-0.4,0.2-0.684,0.333-0.85,0.4
				C9.767,4.2,9.566,4.433,9.5,4.7C9.467,4.767,9.433,5.083,9.4,5.65C9.066,5.783,8.566,5.9,7.9,6
				C7.222,6.129,6.73,6.246,6.425,6.35L6.55,6.3c0.333-0.2,0.733-0.6,1.2-1.2c0.566-0.434,1.333-1.133,2.3-2.1l0.1-0.05
				C10.783,2.683,11.667,2.183,12.8,1.45z"/>
			<path style="fill-rule:evenodd;clip-rule:evenodd;fill:#BAB29C;" d="M31.95,10.7l-0.2,0.05l0.1,0.3
				c-0.5-0.1-0.949-0.25-1.35-0.45C30.8,10.567,31.283,10.6,31.95,10.7z"/>
			<path style="fill-rule:evenodd;clip-rule:evenodd;fill:#BAB29C;" d="M33.25,10.5l-0.05,0.2h-0.55c-0.367-0.333-0.934-0.6-1.7-0.8
				c-0.9-0.167-1.533-0.316-1.9-0.45c-0.866-0.133-1.366-0.267-1.5-0.4c0.2-0.167,0.566-0.216,1.101-0.15
				c0.566,0.067,0.933,0.05,1.1-0.05c-0.3-0.2-0.833-0.367-1.6-0.5c-0.667,0-1.034-0.05-1.101-0.15C27.017,8.167,27,8.067,27,7.9
				c0-0.167,0.017-0.283,0.05-0.35c0.033-0.066,0.167-0.133,0.4-0.2c0.133,0,0.3-0.017,0.5-0.05L27.4,6.8L28.3,7.05
				c1.134,0.267,2.601,0.833,4.4,1.7c0.133,0.133,0.35,0.317,0.649,0.55c0.267,0.233,0.434,0.45,0.5,0.65
				c0.134,0.267,0.134,0.433,0,0.5C33.616,10.483,33.417,10.5,33.25,10.5z"/>
			<path style="fill-rule:evenodd;clip-rule:evenodd;fill:#CDC5AC;" d="M10.05,3c-0.966,0.967-1.733,1.667-2.3,2.1
				c-0.467,0.6-0.867,1-1.2,1.2L6.4,6.35c-0.367,0.2-0.583,0.4-0.65,0.6c-0.1,0.167-0.184,0.466-0.25,0.9
				C5.4,8.25,5.3,8.533,5.2,8.7H4.6c0.066-1.067,0.833-2.367,2.3-3.9c0.633-0.267,1.267-0.667,1.9-1.2
				C8.867,3.533,9.283,3.333,10.05,3z"/>
			<path style="fill-rule:evenodd;clip-rule:evenodd;fill:#CDC5AC;" d="M33.85,9.95c-0.066-0.2-0.233-0.417-0.5-0.65
				c-0.3-0.233-0.517-0.417-0.649-0.55c1.133,0.533,2.283,1.15,3.45,1.85l0.55,0.55L36.2,11.1l-0.45,0.051
				c-0.134,0.033-0.333,0.216-0.6,0.55c-0.067,0.066-0.301,0.184-0.7,0.35c-0.2,0.101-0.334,0.3-0.4,0.601l-0.2,0.399
				c-0.133,0.134-0.35,0.2-0.649,0.2c-0.367-0.4-0.783-0.75-1.25-1.05c0.6,0.267,1.017,0.399,1.25,0.399
				c0.399,0.034,0.75-0.133,1.05-0.5c0.518-0.73,0.885-1.198,1.1-1.399c-0.142,0.113-0.358,0.212-0.649,0.3
				c-0.467,0.167-0.717,0.25-0.75,0.25c-0.267,0.134-0.5,0.233-0.7,0.3c-0.333,0.134-0.55,0.101-0.65-0.1l-0.899,0.6
				c-0.267-0.166-0.733-0.383-1.4-0.649l0.601-0.15c0.133-0.1,0.3-0.134,0.5-0.1c0.1,0,0.25,0.017,0.449,0.05v-0.15l-0.1-0.3
				l0.2-0.05h1.25l0.05-0.2c0.167,0,0.366-0.017,0.6-0.05C33.983,10.383,33.983,10.217,33.85,9.95z"/>
			<path style="fill-rule:evenodd;clip-rule:evenodd;fill:#ECE2C5;" d="M34.25,12.1c-0.3,0.367-0.65,0.534-1.05,0.5
				c-0.233,0-0.65-0.133-1.25-0.399l-0.25-0.15l0.899-0.6c0.101,0.2,0.317,0.233,0.65,0.1c0.2-0.066,0.434-0.166,0.7-0.3
				c0.033,0,0.283-0.083,0.75-0.25c0.291-0.087,0.508-0.187,0.649-0.3C35.135,10.902,34.768,11.369,34.25,12.1z"/>
			<path style="fill-rule:evenodd;clip-rule:evenodd;fill:#ECE2C5;" d="M13.2,1.05L13.9,1L13,1.35l-0.2,0.1
				c-1.133,0.733-2.017,1.233-2.65,1.5L10.05,3C9.283,3.333,8.867,3.533,8.8,3.6C8.167,4.133,7.533,4.533,6.9,4.8l0.4-0.4
				C9.667,2.233,11.633,1.117,13.2,1.05z"/>
		</g>
		<path style="fill-rule:evenodd;clip-rule:evenodd;fill:#C9C1A8;" d="M24.7,8.9c2.833,0.667,4.767,1.2,5.8,1.6
			c2.7,1.033,3.983,2.366,3.85,4c-0.033,0.833-0.267,1.55-0.699,2.15c-0.733,0.133-1.75-0.034-3.051-0.5
			c-1-0.334-2.583-1.034-4.75-2.101c-1.833-0.866-2.8-1.283-2.899-1.25c-0.3,0.134-0.384,0.033-0.25-0.3
			c0.133-0.233,0.45-0.233,0.95,0l2.55,0.8c1.434,0.467,2.783,1.017,4.05,1.65c2.2,1.166,3.366,1.25,3.5,0.25
			c0.134-0.967-0.267-1.834-1.2-2.601c-0.833-0.633-2.149-1.267-3.95-1.899c-1.466-0.5-2.8-0.883-4-1.15
			C24.2,9.45,22.983,9.2,20.95,8.8c-2.2-0.533-3.917-0.933-5.15-1.2c-2.3-0.5-4.05-0.617-5.25-0.35c-2.466,0.533-3.966,1.4-4.5,2.6
			l-0.4,0.95c-0.066-0.066-0.15-0.15-0.25-0.25c-0.2-0.2-0.367-0.433-0.5-0.7c0.167-1.633,0.967-2.567,2.4-2.8
			c1.934-0.367,3.4-0.566,4.4-0.6c1.733-0.034,3.633,0.2,5.7,0.7C18.934,7.55,21.366,8.133,24.7,8.9z"/>
	</g>
</g>
</svg>
