<?xml version="1.0" encoding="iso-8859-1"?>
<!-- Generator: Adobe Illustrator 15.1.0, SVG Export Plug-In . SVG Version: 6.00 Build 0)  -->
<!DOCTYPE svg PUBLIC "-//W3C//DTD SVG 1.1//EN" "http://www.w3.org/Graphics/SVG/1.1/DTD/svg11.dtd">
<svg version="1.1" id="FlashAICB" xmlns="http://www.w3.org/2000/svg" xmlns:xlink="http://www.w3.org/1999/xlink" x="0px" y="0px"
	 width="32.25px" height="36.6px" viewBox="0 0 32.25 36.6" style="enable-background:new 0 0 32.25 36.6;" xml:space="preserve">
<symbol  id="FlashAICB_x2F_Layer_113_x2F__x3C_Group_x3E_" viewBox="-0.023 -31.8 31.959 31.8">
	<g id="Layer_1_3_">
		<g>
			<path style="fill-rule:evenodd;clip-rule:evenodd;fill:#BCB349;" d="M28.15-9c0.033,0.367-0.133,0.8-0.5,1.3
				c-0.433,0.567-0.733,0.95-0.9,1.15h0.1c1.667-0.934,2.983-2.483,3.95-4.65c0.967-2.167,1.317-4.35,1.05-6.55
				c-0.167-1.567-0.567-3.233-1.2-5l-0.3-0.05c-0.333-0.1-0.7-0.517-1.1-1.25c-0.433-0.767-0.567-1.284-0.4-1.55
				c0.066-0.133,0.2-0.2,0.4-0.2c-0.533-1-0.983-1.767-1.35-2.3l-0.6-0.3c-1.667-0.733-2.566-0.567-2.7,0.5
				c-0.1-0.033-0.233-0.217-0.4-0.55c-0.133-0.267-0.35-0.383-0.65-0.35c-0.066-0.434-0.233-0.967-0.5-1.6l-0.2-0.05l-0.5-0.05H22.3
				l-0.45-0.05H21.7l-0.9-0.3l-1.5-0.8l-0.45-0.15c-0.833,0.167-1.35,0.3-1.55,0.4c-0.233,0.1-0.433,0.3-0.6,0.6
				c-0.233,0.433-0.383,0.683-0.45,0.75c-0.2,0.2-0.517,0.333-0.95,0.4c-0.4,0.033-0.75,0-1.05-0.1c-0.533-0.167-0.867-0.383-1-0.65
				c-0.133-0.233-0.133-0.417,0-0.55c0.067-0.1,0.233-0.233,0.5-0.4l0.2-0.25l-0.9,0.15c-0.3,0.067-0.617,0.083-0.95,0.05
				c-0.633-0.133-1.283-0.067-1.95,0.2l-0.6,0.25l-1.4,0.8L6.6-29l-0.1,0.1l-0.95,0.75h1.3C6.983-28.183,7.3-28.3,7.8-28.5
				c0.367-0.133,0.684-0.183,0.95-0.15c0.367,0.066,0.833,0.35,1.4,0.85c0.167-0.067,0.3-0.284,0.4-0.65
				c0.133-0.333,0.317-0.533,0.55-0.6c0.533-0.1,1.1-0.05,1.7,0.15c0.333,0.1,0.817,0.267,1.45,0.5c0.433,0.267,0.6,0.683,0.5,1.25
				c-0.033,0.233-0.15,0.5-0.35,0.8c-0.2,0.367-0.35,0.633-0.45,0.8c-0.167,0.367-0.333,0.883-0.5,1.55
				c-0.067,0.433-0.133,0.683-0.2,0.75c-0.067,0.1-0.3,0.2-0.7,0.3c-1.2,0.267-2.033,0.733-2.5,1.4
				c0.133,0.066,0.217,0.167,0.25,0.3c0,0.2,0.017,0.35,0.05,0.45c0.267,0.4,0.45,0.716,0.55,0.95c0.133,0.3,0.2,0.767,0.2,1.4
				c-0.033,0.7-0.017,1.167,0.05,1.4c0.167,0.066,0.417-0.184,0.75-0.75c0.267-0.5,0.417-0.883,0.45-1.15v-0.8
				c0.1-0.667,0.267-1.083,0.5-1.25c0.1-0.067,0.333-0.083,0.7-0.05c0.333,0,0.55,0.033,0.65,0.1c0.167,0.1,0.283,0.317,0.35,0.65
				c0.034,0.367,0.05,0.65,0.05,0.85c0.133,1.333,0.35,2.25,0.65,2.75c0.133-1.167,0.133-2.917,0-5.25c-0.067-0.633-0.067-1.1,0-1.4
				c0.067-0.3,0.317-0.683,0.75-1.15c0.5-0.6,0.8-0.983,0.9-1.15c0.233-0.4,0.317-0.95,0.25-1.65c0.033-0.233,0.083-0.4,0.15-0.5
				c0.067-0.1,0.2-0.25,0.4-0.45c0.233-0.3,0.383-0.55,0.45-0.75c0-0.067,0-0.167,0-0.3c-0.033-0.067-0.017-0.15,0.05-0.25
				c0.1-0.167,0.483-0.483,1.15-0.95c0.633,0.233,1.033,0.433,1.2,0.6c0.333,0.233,0.55,0.6,0.65,1.1
				c0.133,0.466,0.617,1.15,1.45,2.05c0.333,0.333,0.567,0.583,0.7,0.75c0.167,0.233,0.3,0.55,0.4,0.95
				c0.067,0.3,0.083,0.6,0.05,0.9c-0.1,0.333-0.167,0.617-0.2,0.85c-0.033,0.333,0.017,0.716,0.15,1.15
				c0.133,0.467,0.217,0.833,0.25,1.1c0,0.333,0.033,0.55,0.1,0.65c0.4,0.3,0.617,0.633,0.65,1c0.033,0.333,0,0.733-0.1,1.2
				c-0.1,0.5-0.183,0.883-0.25,1.15L24.25-16c-0.3,0.833-0.417,1.4-0.35,1.7c0.4-0.233,0.8-0.6,1.2-1.1
				c0.433-0.533,0.717-1.017,0.85-1.45c0.1-0.233,0.2-0.583,0.3-1.05c0.167-0.367,0.417-0.617,0.75-0.75
				c0.467-0.167,0.783-0.033,0.95,0.4c0.1,0.2,0.167,0.6,0.2,1.2v1.5c0,0.3-0.05,0.55-0.15,0.75c-0.067,0.1-0.233,0.3-0.5,0.6
				c-0.2,0.2-0.367,0.55-0.5,1.05c-0.133,0.566-0.95,0.9-2.45,1c0.3,0.167,0.9,0.383,1.8,0.65c0.767,0.267,1.2,0.633,1.3,1.1
				l0.1,0.6C27.983-9.467,28.117-9.2,28.15-9z"/>
			<path style="fill-rule:evenodd;clip-rule:evenodd;fill:#BCB349;" d="M7-22.8l2.5-0.85c0.467-0.067,0.517-0.567,0.15-1.5
				c-0.167-0.5-0.417-1.083-0.75-1.75c-0.367-0.067-0.783,0.017-1.25,0.25s-0.767,0.517-0.9,0.85c-0.133,0.333-0.117,0.833,0.05,1.5
				C6.967-23.567,7.033-23.067,7-22.8z"/>
			<path style="fill-rule:evenodd;clip-rule:evenodd;fill:#BCB349;" d="M5-22.3l0.4-0.35c0.033-0.367,0-0.7-0.1-1
				C5.167-24.017,4.95-24.133,4.65-24c-0.4,0.133-0.483,0.417-0.25,0.85C4.733-22.717,4.933-22.433,5-22.3z"/>
			<path style="fill-rule:evenodd;clip-rule:evenodd;fill:#BCB349;" d="M23.75-8.8c-0.067-0.333-0.3-0.467-0.7-0.4
				c-0.4,0.034-0.633,0.217-0.7,0.55c-0.033,0.167,0.05,0.367,0.25,0.6c0.2,0.2,0.383,0.333,0.55,0.4c0.267,0.1,0.6,0.1,1,0
				L23.75-8.8z"/>
			<path style="fill-rule:evenodd;clip-rule:evenodd;fill:#BCB349;" d="M12-5.95c-0.033-0.066-0.017-0.167,0.05-0.3L12.2-6.3
				c-0.1-0.233-0.383-0.333-0.85-0.3c-0.5,0.033-0.833,0.05-1,0.05c-0.267-0.034-0.583-0.2-0.95-0.5c-0.133-0.133-0.233-0.2-0.3-0.2
				c-0.067,0-0.184-0.017-0.35-0.05c-0.167-0.034-0.467-0.034-0.9,0C7.417-7.233,7.1-7.233,6.9-7.3c0.033,0-0.183-0.167-0.65-0.5
				L4.3-9.2C4.033-9.433,3.85-9.7,3.75-10c0,0.533,0.05,1.05,0.15,1.55c0.934,1.034,1.733,1.8,2.4,2.3l0.9,0.6
				C7.8-5.583,8.617-5.7,9.65-5.9C10.15-5.967,10.933-5.983,12-5.95z"/>
			<path style="fill-rule:evenodd;clip-rule:evenodd;fill:#BCB349;" d="M13.35-1.2l0.25-0.2C13.367-1.767,13.167-2,13-2.1
				c-0.433-0.1-0.733-0.117-0.9-0.05c-0.167,0.2-0.317,0.316-0.45,0.35c-0.033,0.033-0.316-0.017-0.85-0.15
				c-0.133-0.033-0.367-0.017-0.7,0.05c0,0.833,0.017,1.283,0.05,1.35c0.1,0.2,0.3,0.383,0.6,0.55h0.05l0.25-0.1
				c0.633-0.233,1.133-0.45,1.5-0.65h0.05L13.35-1.2z"/>
			<path style="fill-rule:evenodd;clip-rule:evenodd;fill:#BCB349;" d="M13.25-2.9c-0.067,0.4,0.017,0.683,0.25,0.85L14-2.3V-3
				C13.833-3.067,13.583-3.033,13.25-2.9z"/>
			<path style="fill-rule:evenodd;clip-rule:evenodd;fill:#BCB349;" d="M10.9-3.8c-0.967,0-1.55,0.017-1.75,0.05
				c-0.066,0.167-0.066,0.35,0,0.55C9.45-3.1,9.733-3.217,10-3.55L10.9-3.8z"/>
			<path style="fill-rule:evenodd;clip-rule:evenodd;fill:#BCB349;" d="M15.55-2.9v0.05c0.2,0.667,0.367,1.15,0.5,1.45
				C16.25-1,16.567-0.533,17,0l-0.2-1.05c-0.267-0.267-0.45-0.5-0.55-0.7c-0.067-0.2,0-0.783,0.2-1.75
				c0.233-0.867,0.1-1.383-0.4-1.55C15.717-5.183,15.467-5,15.3-4.5c-0.1,0.6-0.167,1-0.2,1.2l-0.15,0.75l0.4-0.6L15.4-3.2l0.05-0.1
				L15.55-2.9z"/>
			<path style="fill-rule:evenodd;clip-rule:evenodd;fill:#BCB349;" d="M17.4-5.65c-0.066,0.3,0,0.617,0.2,0.95
				c0.2,0.367,0.467,0.55,0.8,0.55l0.25-0.5c-0.233-0.4-0.4-0.65-0.5-0.75C17.95-5.633,17.7-5.717,17.4-5.65z"/>
			<path style="fill-rule:evenodd;clip-rule:evenodd;fill:#BCB349;" d="M22.75-5.05L24.4-5.6l0.35-0.15l0.6-0.15l-0.2-0.25
				C24.85-6.35,24.233-6.3,23.3-6C22.833-5.9,22.65-5.583,22.75-5.05z"/>
			<path style="fill-rule:evenodd;clip-rule:evenodd;fill:#BCB349;" d="M16.5-23.9c-0.067,0.4,0.15,0.9,0.65,1.5h1.75
				c0.5-1.233,0.55-2.2,0.15-2.9c-0.267-0.467-0.683-0.534-1.25-0.2c-0.2,0.1-0.466,0.333-0.8,0.7C16.667-24.4,16.5-24.1,16.5-23.9z
				"/>
			<path style="fill-rule:evenodd;clip-rule:evenodd;fill:#BCB349;" d="M19.4-20.9l-0.05-0.6c-0.367-0.067-0.6,0-0.7,0.2
				c-0.1,0.233,0.067,0.367,0.5,0.4H19.4z"/>
			<path style="fill-rule:evenodd;clip-rule:evenodd;fill:#BCB349;" d="M2.4-12.9c-0.8-1.2-1.233-2.417-1.3-3.65
				c0-0.133,0-0.367,0-0.7c-0.033-0.267-0.167-0.433-0.4-0.5C0.133-17.917-0.1-17.5,0-16.5c0.067,0.933,0.367,1.75,0.9,2.45
				L2.4-12.9z"/>
		</g>
	</g>
</symbol>
<symbol  id="FlashAICB_x2F_Layer_113_x2F__x3C_Group_x3E__x5F_1" viewBox="-0.023 -31.8 31.959 31.8">
	<g id="Layer_1_2_">
		<g>
			<path style="fill-rule:evenodd;clip-rule:evenodd;fill:#BCB349;" d="M28.15-9c0.033,0.367-0.133,0.8-0.5,1.3
				c-0.433,0.567-0.733,0.95-0.9,1.15h0.1c1.667-0.934,2.983-2.483,3.95-4.65c0.967-2.167,1.317-4.35,1.05-6.55
				c-0.167-1.567-0.567-3.233-1.2-5l-0.3-0.05c-0.333-0.1-0.7-0.517-1.1-1.25c-0.433-0.767-0.567-1.284-0.4-1.55
				c0.066-0.133,0.2-0.2,0.4-0.2c-0.533-1-0.983-1.767-1.35-2.3l-0.6-0.3c-1.667-0.733-2.566-0.567-2.7,0.5
				c-0.1-0.033-0.233-0.217-0.4-0.55c-0.133-0.267-0.35-0.383-0.65-0.35c-0.066-0.434-0.233-0.967-0.5-1.6l-0.2-0.05l-0.5-0.05H22.3
				l-0.45-0.05H21.7l-0.9-0.3l-1.5-0.8l-0.45-0.15c-0.833,0.167-1.35,0.3-1.55,0.4c-0.233,0.1-0.433,0.3-0.6,0.6
				c-0.233,0.433-0.383,0.683-0.45,0.75c-0.2,0.2-0.517,0.333-0.95,0.4c-0.4,0.033-0.75,0-1.05-0.1c-0.533-0.167-0.867-0.383-1-0.65
				c-0.133-0.233-0.133-0.417,0-0.55c0.067-0.1,0.233-0.233,0.5-0.4l0.2-0.25l-0.9,0.15c-0.3,0.067-0.617,0.083-0.95,0.05
				c-0.633-0.133-1.283-0.067-1.95,0.2l-0.6,0.25l-1.4,0.8L6.6-29l-0.1,0.1l-0.95,0.75h1.3C6.983-28.183,7.3-28.3,7.8-28.5
				c0.367-0.133,0.684-0.183,0.95-0.15c0.367,0.066,0.833,0.35,1.4,0.85c0.167-0.067,0.3-0.284,0.4-0.65
				c0.133-0.333,0.317-0.533,0.55-0.6c0.533-0.1,1.1-0.05,1.7,0.15c0.333,0.1,0.817,0.267,1.45,0.5c0.433,0.267,0.6,0.683,0.5,1.25
				c-0.033,0.233-0.15,0.5-0.35,0.8c-0.2,0.367-0.35,0.633-0.45,0.8c-0.167,0.367-0.333,0.883-0.5,1.55
				c-0.067,0.433-0.133,0.683-0.2,0.75c-0.067,0.1-0.3,0.2-0.7,0.3c-1.2,0.267-2.033,0.733-2.5,1.4
				c0.133,0.066,0.217,0.167,0.25,0.3c0,0.2,0.017,0.35,0.05,0.45c0.267,0.4,0.45,0.716,0.55,0.95c0.133,0.3,0.2,0.767,0.2,1.4
				c-0.033,0.7-0.017,1.167,0.05,1.4c0.167,0.066,0.417-0.184,0.75-0.75c0.267-0.5,0.417-0.883,0.45-1.15v-0.8
				c0.1-0.667,0.267-1.083,0.5-1.25c0.1-0.067,0.333-0.083,0.7-0.05c0.333,0,0.55,0.033,0.65,0.1c0.167,0.1,0.283,0.317,0.35,0.65
				c0.034,0.367,0.05,0.65,0.05,0.85c0.133,1.333,0.35,2.25,0.65,2.75c0.133-1.167,0.133-2.917,0-5.25c-0.067-0.633-0.067-1.1,0-1.4
				c0.067-0.3,0.317-0.683,0.75-1.15c0.5-0.6,0.8-0.983,0.9-1.15c0.233-0.4,0.317-0.95,0.25-1.65c0.033-0.233,0.083-0.4,0.15-0.5
				c0.067-0.1,0.2-0.25,0.4-0.45c0.233-0.3,0.383-0.55,0.45-0.75c0-0.067,0-0.167,0-0.3c-0.033-0.067-0.017-0.15,0.05-0.25
				c0.1-0.167,0.483-0.483,1.15-0.95c0.633,0.233,1.033,0.433,1.2,0.6c0.333,0.233,0.55,0.6,0.65,1.1
				c0.133,0.466,0.617,1.15,1.45,2.05c0.333,0.333,0.567,0.583,0.7,0.75c0.167,0.233,0.3,0.55,0.4,0.95
				c0.067,0.3,0.083,0.6,0.05,0.9c-0.1,0.333-0.167,0.617-0.2,0.85c-0.033,0.333,0.017,0.716,0.15,1.15
				c0.133,0.467,0.217,0.833,0.25,1.1c0,0.333,0.033,0.55,0.1,0.65c0.4,0.3,0.617,0.633,0.65,1c0.033,0.333,0,0.733-0.1,1.2
				c-0.1,0.5-0.183,0.883-0.25,1.15L24.25-16c-0.3,0.833-0.417,1.4-0.35,1.7c0.4-0.233,0.8-0.6,1.2-1.1
				c0.433-0.533,0.717-1.017,0.85-1.45c0.1-0.233,0.2-0.583,0.3-1.05c0.167-0.367,0.417-0.617,0.75-0.75
				c0.467-0.167,0.783-0.033,0.95,0.4c0.1,0.2,0.167,0.6,0.2,1.2v1.5c0,0.3-0.05,0.55-0.15,0.75c-0.067,0.1-0.233,0.3-0.5,0.6
				c-0.2,0.2-0.367,0.55-0.5,1.05c-0.133,0.566-0.95,0.9-2.45,1c0.3,0.167,0.9,0.383,1.8,0.65c0.767,0.267,1.2,0.633,1.3,1.1
				l0.1,0.6C27.983-9.467,28.117-9.2,28.15-9z"/>
			<path style="fill-rule:evenodd;clip-rule:evenodd;fill:#BCB349;" d="M7-22.8l2.5-0.85c0.467-0.067,0.517-0.567,0.15-1.5
				c-0.167-0.5-0.417-1.083-0.75-1.75c-0.367-0.067-0.783,0.017-1.25,0.25s-0.767,0.517-0.9,0.85c-0.133,0.333-0.117,0.833,0.05,1.5
				C6.967-23.567,7.033-23.067,7-22.8z"/>
			<path style="fill-rule:evenodd;clip-rule:evenodd;fill:#BCB349;" d="M5-22.3l0.4-0.35c0.033-0.367,0-0.7-0.1-1
				C5.167-24.017,4.95-24.133,4.65-24c-0.4,0.133-0.483,0.417-0.25,0.85C4.733-22.717,4.933-22.433,5-22.3z"/>
			<path style="fill-rule:evenodd;clip-rule:evenodd;fill:#BCB349;" d="M23.75-8.8c-0.067-0.333-0.3-0.467-0.7-0.4
				c-0.4,0.034-0.633,0.217-0.7,0.55c-0.033,0.167,0.05,0.367,0.25,0.6c0.2,0.2,0.383,0.333,0.55,0.4c0.267,0.1,0.6,0.1,1,0
				L23.75-8.8z"/>
			<path style="fill-rule:evenodd;clip-rule:evenodd;fill:#BCB349;" d="M12-5.95c-0.033-0.066-0.017-0.167,0.05-0.3L12.2-6.3
				c-0.1-0.233-0.383-0.333-0.85-0.3c-0.5,0.033-0.833,0.05-1,0.05c-0.267-0.034-0.583-0.2-0.95-0.5c-0.133-0.133-0.233-0.2-0.3-0.2
				c-0.067,0-0.184-0.017-0.35-0.05c-0.167-0.034-0.467-0.034-0.9,0C7.417-7.233,7.1-7.233,6.9-7.3c0.033,0-0.183-0.167-0.65-0.5
				L4.3-9.2C4.033-9.433,3.85-9.7,3.75-10c0,0.533,0.05,1.05,0.15,1.55c0.934,1.034,1.733,1.8,2.4,2.3l0.9,0.6
				C7.8-5.583,8.617-5.7,9.65-5.9C10.15-5.967,10.933-5.983,12-5.95z"/>
			<path style="fill-rule:evenodd;clip-rule:evenodd;fill:#BCB349;" d="M13.35-1.2l0.25-0.2C13.367-1.767,13.167-2,13-2.1
				c-0.433-0.1-0.733-0.117-0.9-0.05c-0.167,0.2-0.317,0.316-0.45,0.35c-0.033,0.033-0.316-0.017-0.85-0.15
				c-0.133-0.033-0.367-0.017-0.7,0.05c0,0.833,0.017,1.283,0.05,1.35c0.1,0.2,0.3,0.383,0.6,0.55h0.05l0.25-0.1
				c0.633-0.233,1.133-0.45,1.5-0.65h0.05L13.35-1.2z"/>
			<path style="fill-rule:evenodd;clip-rule:evenodd;fill:#BCB349;" d="M13.25-2.9c-0.067,0.4,0.017,0.683,0.25,0.85L14-2.3V-3
				C13.833-3.067,13.583-3.033,13.25-2.9z"/>
			<path style="fill-rule:evenodd;clip-rule:evenodd;fill:#BCB349;" d="M10.9-3.8c-0.967,0-1.55,0.017-1.75,0.05
				c-0.066,0.167-0.066,0.35,0,0.55C9.45-3.1,9.733-3.217,10-3.55L10.9-3.8z"/>
			<path style="fill-rule:evenodd;clip-rule:evenodd;fill:#BCB349;" d="M15.55-2.9v0.05c0.2,0.667,0.367,1.15,0.5,1.45
				C16.25-1,16.567-0.533,17,0l-0.2-1.05c-0.267-0.267-0.45-0.5-0.55-0.7c-0.067-0.2,0-0.783,0.2-1.75
				c0.233-0.867,0.1-1.383-0.4-1.55C15.717-5.183,15.467-5,15.3-4.5c-0.1,0.6-0.167,1-0.2,1.2l-0.15,0.75l0.4-0.6L15.4-3.2l0.05-0.1
				L15.55-2.9z"/>
			<path style="fill-rule:evenodd;clip-rule:evenodd;fill:#BCB349;" d="M17.4-5.65c-0.066,0.3,0,0.617,0.2,0.95
				c0.2,0.367,0.467,0.55,0.8,0.55l0.25-0.5c-0.233-0.4-0.4-0.65-0.5-0.75C17.95-5.633,17.7-5.717,17.4-5.65z"/>
			<path style="fill-rule:evenodd;clip-rule:evenodd;fill:#BCB349;" d="M22.75-5.05L24.4-5.6l0.35-0.15l0.6-0.15l-0.2-0.25
				C24.85-6.35,24.233-6.3,23.3-6C22.833-5.9,22.65-5.583,22.75-5.05z"/>
			<path style="fill-rule:evenodd;clip-rule:evenodd;fill:#BCB349;" d="M16.5-23.9c-0.067,0.4,0.15,0.9,0.65,1.5h1.75
				c0.5-1.233,0.55-2.2,0.15-2.9c-0.267-0.467-0.683-0.534-1.25-0.2c-0.2,0.1-0.466,0.333-0.8,0.7C16.667-24.4,16.5-24.1,16.5-23.9z
				"/>
			<path style="fill-rule:evenodd;clip-rule:evenodd;fill:#BCB349;" d="M19.4-20.9l-0.05-0.6c-0.367-0.067-0.6,0-0.7,0.2
				c-0.1,0.233,0.067,0.367,0.5,0.4H19.4z"/>
			<path style="fill-rule:evenodd;clip-rule:evenodd;fill:#BCB349;" d="M2.4-12.9c-0.8-1.2-1.233-2.417-1.3-3.65
				c0-0.133,0-0.367,0-0.7c-0.033-0.267-0.167-0.433-0.4-0.5C0.133-17.917-0.1-17.5,0-16.5c0.067,0.933,0.367,1.75,0.9,2.45
				L2.4-12.9z"/>
		</g>
	</g>
</symbol>
<symbol  id="FlashAICB_x2F_Layer_113_x2F__x3C_Path_x3E_" viewBox="0.05 -36.55 32.173 36.55">
	<g id="Layer_1_4_">
		
			<radialGradient id="SVGID_1_" cx="13.75" cy="-18.3999" r="19.1875" gradientTransform="matrix(1 0 0 -1 0 -36.7998)" gradientUnits="userSpaceOnUse">
			<stop  offset="0" style="stop-color:#FFFFFF;stop-opacity:0.7294"/>
			<stop  offset="0.0863" style="stop-color:#F4F4F4;stop-opacity:0.7098"/>
			<stop  offset="0.2392" style="stop-color:#D7D7D7;stop-opacity:0.6667"/>
			<stop  offset="0.4353" style="stop-color:#A7A7A7;stop-opacity:0.5882"/>
			<stop  offset="0.6745" style="stop-color:#656565;stop-opacity:0.4863"/>
			<stop  offset="0.9451" style="stop-color:#121212;stop-opacity:0.3569"/>
			<stop  offset="1" style="stop-color:#000000;stop-opacity:0.3294"/>
		</radialGradient>
		<path style="fill-rule:evenodd;clip-rule:evenodd;fill:url(#SVGID_1_);" d="M22-0.1h0.35C22.683-0.033,23.3,0,24.2,0l-2.7-1.1
			l-0.05-1.15c-1.233-1.133-2.017-1.917-2.35-2.35c-0.267-0.333-0.55-0.833-0.85-1.5c-0.333-0.7-0.5-1.2-0.5-1.5
			c0-0.267,0.117-0.633,0.35-1.1h0.35c1.267-0.1,2.4-0.283,3.4-0.55L21.9-9.3l0.65-0.15V-9.5h0.05l2.1-0.7l0.35-0.15l0.85-0.25
			c2-0.6,3.617-2.083,4.85-4.45c1.2-2.367,1.667-4.8,1.4-7.3c-0.433-3.9-1.967-7.65-4.6-11.25l-0.4-0.45L27-34.15l-0.3-0.25
			l-0.15-0.05L26.1-34.7l-0.5-0.1l-0.15-0.05l-0.4-0.05l-0.2-0.05l-2.2-0.15H22.6l-0.45-0.05H22l-0.9-0.3l-1.5-0.8l-0.45-0.15
			c-0.633-0.2-1.467-0.2-2.5,0H16.5l-0.55,0.1h-0.6c-0.6,0-1.167,0.066-1.7,0.2c-0.467,0.1-0.883,0.133-1.25,0.1
			c-0.633-0.133-1.283-0.067-1.95,0.2L9-35.1l-2.1,1.5l-0.1,0.1l-2.15,1.85C3.917-30.917,3.3-30.233,2.8-29.6
			c-1.1,1.3-1.867,2.633-2.3,4l-0.45,2.65v2.3l0.2,1.4L0.8-17.4l0.7,1.3l0.15,0.15c0.167,0.3,0.417,0.617,0.75,0.95l1,1.05
			c1.3,1.5,2.367,2.567,3.2,3.2C7.167-10.283,7.783-9.9,8.45-9.6l-0.6,0.25h-0.1L7.3-9.1L7.25-9.05l-0.3,0.2L6.9-8.8L6.7-8.65
			l-0.05,0.1l-0.1,0.1L6.3-8.1L6.1-7.95c-0.167,0.1-0.3,0.233-0.4,0.4l-0.1,0.2l1.2,1.3L7.05-5.7h-0.1L6.9-5.75L6.75-5.8h-0.1
			L4.2-6.25L3.5-5.1v0.05l-0.05,0.3L3.4-4.65V-4l0.05,0.2v0.05L3.5-3.5l0.3-0.1h0.05l0.4-0.1h0.1L4.7-3.75
			C4.867-3.783,5.167-3.8,5.6-3.8l0.35-0.05h1.1l0.8-0.1H7.9l0.9-0.1h0.05l0.9-0.2H9.8l1.3-0.35l1.75-0.75h0.05l1.55-1
			c0.566-0.467,0.966-0.933,1.2-1.4L15.7-7.8l0.05-0.1l0.1,0.4v0.05c0.233,0.833,0.433,1.417,0.6,1.75
			c0.267,0.467,0.816,1.117,1.65,1.95c0.433,0.433,0.9,0.9,1.4,1.4c0.3,0.3,0.5,0.567,0.6,0.8l0.1,0.35l0.05,0.45l0.1,0.3l0.05,0.1
			l0.2,0.2l0.2,0.05l0.05,0.05h0.3C21.383-0.017,21.667-0.033,22-0.1z"/>
	</g>
</symbol>
<g>
	<g>
		<path style="fill-rule:evenodd;clip-rule:evenodd;fill:#6B5C1D;" d="M12.2,8.7c3.934-0.167,6.866-0.05,8.8,0.35
			c1.167,0.267,2.8,0.784,4.9,1.55c2,0.6,3.616,2.083,4.85,4.45c1.2,2.367,1.667,4.8,1.4,7.3c-0.434,3.9-1.967,7.65-4.601,11.25
			c-0.633,0.834-1.733,1.301-3.3,1.4c-1.866,0.1-3.116,0.35-3.75,0.75c-0.934,0.6-1.866,0.866-2.8,0.8
			c-0.967-0.166-1.75-0.25-2.35-0.25s-1.167-0.066-1.7-0.2c-0.466-0.1-0.883-0.133-1.25-0.1c-0.633,0.1-1.25,0.05-1.85-0.15
			c-0.833-0.267-1.816-0.833-2.95-1.699c-1.6-1.2-3-2.467-4.2-3.801c-1.566-1.8-2.55-3.483-2.95-5.05c-0.5-1.833-0.6-3.666-0.3-5.5
			c0.3-1.966,1.05-3.566,2.25-4.8c0.833-0.833,2.117-2.167,3.85-4C7.983,9.567,9.967,8.8,12.2,8.7z"/>
		<g>
			<path style="fill-rule:evenodd;clip-rule:evenodd;fill:#60521A;" d="M11.85,10.5l-0.5,0.05L11.2,10.5l0.4-0.3
				c0.367,0.066,0.716,0.066,1.05,0l-0.05,0.4l-0.55,0.05L11.85,10.5z"/>
			<path style="fill-rule:evenodd;clip-rule:evenodd;fill:#60521A;" d="M11.85,12.7h-1c-0.9,0-2.184,0.433-3.85,1.3
				c-0.9,0.467-1.767,1.1-2.6,1.9c-0.267,0.267-1,1.067-2.2,2.4c-0.034-0.367,0.167-0.816,0.6-1.35c0.233-0.3,0.567-0.7,1-1.2
				c0.8-1.1,1.784-2.05,2.95-2.85c0.6-0.433,1.583-0.95,2.95-1.55l0.95-0.55L12,10.7l-0.65,0.2c-0.8,0.267-1.367,0.517-1.7,0.75
				c-0.833,0.5-1.35,0.883-1.55,1.15c1.533-0.833,3.133-1.3,4.8-1.4l0.2,0.15c-0.2,0.167-0.467,0.483-0.8,0.95l-0.15,0.1l0.2-0.6
				L11.85,12.7z"/>
			<polygon style="fill-rule:evenodd;clip-rule:evenodd;fill:#60521A;" points="11.85,10.5 12.05,10.65 12,10.7 11.35,10.55 			"/>
			<path style="fill-rule:evenodd;clip-rule:evenodd;fill:#60521A;" d="M8.8,17.9l-0.05,0.4L8.7,18.35
				c-0.6,1.133-0.884,2.067-0.85,2.8c0.1-0.301,0.283-0.617,0.55-0.95l-0.05,0.3C8.15,20.767,8,21.066,7.9,21.4
				c-0.167,0.733-0.3,1.283-0.4,1.649c-0.2,0.867-0.3,1.334-0.3,1.4C7.267,21.85,7.8,19.667,8.8,17.9z"/>
			<path style="fill-rule:evenodd;clip-rule:evenodd;fill:#60521A;" d="M11.3,32.85c-0.4-0.466-0.667-0.833-0.8-1.1
				c0.333,0.4,0.833,0.816,1.5,1.25l0.25,0.15L12.3,33.3c0.1,0.134,0.25,0.334,0.45,0.601c0.167,0.267,0.25,0.517,0.25,0.75h-0.15
				L12.8,34.55C12.1,33.816,11.6,33.25,11.3,32.85z"/>
			<path style="fill-rule:evenodd;clip-rule:evenodd;fill:#60521A;" d="M12.95,13.35c0.4-0.567,0.8-1.05,1.2-1.45h0.2
				c-0.233,0.4-0.317,1.017-0.25,1.85l-0.9,1.2l-0.7,0.25c-0.133,0.233-0.267,0.55-0.4,0.95l0.25-0.95
				C12.65,14.2,12.85,13.583,12.95,13.35z"/>
			<path style="fill-rule:evenodd;clip-rule:evenodd;fill:#60521A;" d="M10.35,16.95l0.45-0.8l0.4-0.45
				c0,1.466-0.017,2.55-0.05,3.25c0.067-0.1,0.184-0.35,0.35-0.75c-0.1,0.7-0.15,1.434-0.15,2.2L11.2,21.35
				c-0.1,0.667-0.15,1.317-0.15,1.95c-0.267,0.967-0.333,1.7-0.2,2.2L11,25.15c-0.033,1.699-0.05,2.616-0.05,2.75
				c0,1.033,0.133,1.899,0.4,2.6l0.5,0.85c-0.034,0.334,0,0.7,0.1,1.101c-0.733-0.934-1.167-1.816-1.3-2.65
				c-0.2-1.066-0.3-1.85-0.3-2.35c0-0.467,0.033-1.2,0.1-2.2c0.066-0.967,0.083-1.717,0.05-2.25l-0.15,0.5l-0.3,2.4L10,23.5
				c0-0.4,0.017-1.033,0.05-1.9C10.083,20.833,10.066,20.2,10,19.7c-0.434-0.033-0.816,0.05-1.15,0.25l0.05-0.4l0.25-0.35l0.9-1.7
				L9.7,18.3C9.767,18.2,9.983,17.75,10.35,16.95z"/>
			<path style="fill-rule:evenodd;clip-rule:evenodd;fill:#60521A;" d="M15.35,15.7V16l-0.3-0.55c0.034-0.233,0.184-0.583,0.45-1.05
				v1L15.35,15.7z"/>
			<path style="fill-rule:evenodd;clip-rule:evenodd;fill:#60521A;" d="M12.95,33.8l0.1,0.351L12.5,33.35
				c0.566,0.334,0.983,0.733,1.25,1.2l-0.3,0.05L12.95,33.8z"/>
			<path style="fill-rule:evenodd;clip-rule:evenodd;fill:#60521A;" d="M8.7,34.2l-0.65-0.4c-0.333-0.434-0.583-0.934-0.75-1.5
				c-0.1-0.5-0.15-1.017-0.15-1.55c0.6,1.533,1.15,2.684,1.65,3.45H8.7z"/>
			<path style="fill-rule:evenodd;clip-rule:evenodd;fill:#60521A;" d="M14.05,24.9c0.6,0.399,0.967-0.017,1.1-1.25V23.8
				c-0.2,1.2-0.3,1.834-0.3,1.9v1.35l-0.15-0.5c-0.067-0.166-0.217-0.416-0.45-0.75C14.05,25.467,13.983,25.167,14.05,24.9z"/>
			<polygon style="fill-rule:evenodd;clip-rule:evenodd;fill:#60521A;" points="17.45,35.5 17.2,35.65 16.35,34.7 			"/>
			<path style="fill-rule:evenodd;clip-rule:evenodd;fill:#60521A;" d="M13.85,34.2c-0.434-0.233-0.967-0.7-1.6-1.4
				c-0.267-0.6-0.4-1.066-0.4-1.399c0.533,0.733,1.517,1.533,2.95,2.399l0.05,0.25L15,34.5h-0.6
				C14.066,34.333,13.883,34.233,13.85,34.2z"/>
			<path style="fill-rule:evenodd;clip-rule:evenodd;fill:#60521A;" d="M14.65,12.95l0.35-0.9l0.15,0.05
				c-0.066,0.433-0.117,0.733-0.15,0.9c-0.066,0.5-0.066,1.267,0,2.3l-0.3-0.6c0,2.033,0.017,3.183,0.05,3.45l-0.4-1.35
				c-0.167-0.566-0.2-1.183-0.1-1.85c0-0.034,0.117-0.633,0.35-1.8l0.05-0.25V12.95z"/>
			<path style="fill-rule:evenodd;clip-rule:evenodd;fill:#60521A;" d="M14.85,28.7v-3c0-0.066,0.1-0.7,0.3-1.9
				C15.184,24.667,15.083,26.3,14.85,28.7z"/>
			<path style="fill-rule:evenodd;clip-rule:evenodd;fill:#60521A;" d="M14.7,14.7l0.3,0.6v0.65l0.05-0.5l0.3,0.55
				c-0.233,1.133-0.117,2.733,0.35,4.8c0.133-0.2,0.2-0.566,0.2-1.1c0-0.3-0.017-0.684-0.05-1.15V18.1l0.05,0.25
				c0.067,0.333,0.1,1.067,0.1,2.2c0,0.967-0.1,2.517-0.3,4.65c-0.134,1.233-0.2,3.1-0.2,5.6c0,0.533,0.167,1.25,0.5,2.15
				c0.233,0.7,0.35,1.283,0.35,1.75L16.2,34.5c-0.6,0-0.917-0.533-0.95-1.6c-0.033-0.601,0-1.4,0.1-2.4c0-0.7,0.05-1.884,0.15-3.55
				c0.033-1.5-0.066-2.684-0.3-3.55v-2.2c0-0.233-0.134-1.15-0.4-2.75l-0.05-0.3C14.717,17.883,14.7,16.733,14.7,14.7z"/>
			<path style="fill-rule:evenodd;clip-rule:evenodd;fill:#60521A;" d="M16.75,9.65l1.7-0.95l2.1,0.25
				C19.05,8.883,17.9,9.167,17.1,9.8L16.75,9.65z"/>
			<path style="fill-rule:evenodd;clip-rule:evenodd;fill:#60521A;" d="M19.75,34.7c-0.333,0.166-0.566,0.2-0.7,0.1L19,34.45
				l0.5-0.65c0.134-0.366,0.233-0.816,0.3-1.35L19.85,33C19.85,33.733,19.816,34.3,19.75,34.7z"/>
			<path style="fill-rule:evenodd;clip-rule:evenodd;fill:#60521A;" d="M15.85,9.5C15.95,9.3,16,9.067,16,8.8l0.05-0.15h0.25
				C16.2,8.917,16.15,9.2,16.15,9.5H15.85z"/>
			<path style="fill-rule:evenodd;clip-rule:evenodd;fill:#60521A;" d="M27.4,25.35c0.066,0.367,0.05,0.634-0.051,0.801
				c-0.066,0.267-0.25,0.6-0.55,1l0.05-0.9L27.4,25.35z"/>
			<path style="fill-rule:evenodd;clip-rule:evenodd;fill:#60521A;" d="M21.7,13.75c-0.267-0.467-0.5-0.783-0.7-0.95l-0.15-0.2
				l0.801,0.1c0.566,0.133,1.183,0.533,1.85,1.2c0.367,0.333,0.867,0.867,1.5,1.6c0.1-0.4,0-0.933-0.3-1.6
				c0.2,0.167,0.649,0.667,1.35,1.5c0.5,0.6,1,0.983,1.5,1.15c0.367,0.133,0.634,0.333,0.8,0.6l0.2,0.9
				c0.267,0.633,0.467,1.117,0.601,1.45c0.5,1.1,0.783,1.9,0.85,2.4c0.033,0.267,0.017,0.517-0.05,0.75
				c-0.101,0.3-0.184,0.533-0.25,0.699l-0.3,1l0.1-1.3c-0.633,1.867-1.033,3.017-1.2,3.45c0-0.5,0.017-1.267,0.05-2.3
				c-0.033-0.667-0.232-1.45-0.6-2.351L27.3,20.4c-0.2-0.567-0.717-1.267-1.55-2.101c-0.533-0.8-0.967-1.35-1.3-1.65L24,15.5
				l0.05,0.95L23.9,16.4c-0.167,0.567-0.134,1.217,0.1,1.95l0.05,0.05l0.15,2.95c0,0.534-0.066,1.367-0.2,2.5
				c-0.167,1.634-0.283,2.617-0.35,2.95c-0.367,1.033-0.634,1.8-0.801,2.3C22.95,28.634,23,27.934,23,27c0-0.5,0.1-1.233,0.3-2.2
				c0.13,0.84,0.196,1.49,0.2,1.95c0.004-0.378,0.054-1.128,0.15-2.25c0.1-0.967,0.116-1.733,0.05-2.3c-0.134-1.2-0.2-2.55-0.2-4.05
				c0-1.1-0.033-1.767-0.1-2c-0.134-0.4-0.384-0.816-0.75-1.25C22.217,14.4,21.9,14.017,21.7,13.75z"/>
			<path style="fill-rule:evenodd;clip-rule:evenodd;fill:#60521A;" d="M25.5,30.2c-0.066,0.434-0.316,0.967-0.75,1.6
				c0.099-0.193,0.182-0.427,0.25-0.7c0.1-0.399,0.217-0.983,0.35-1.75l0.301-0.8C25.65,29.15,25.6,29.7,25.5,30.2z M24.525,32.175
				c-0.366,0.588-0.592,0.979-0.676,1.175l-0.699,1.7L22.6,35.1L22.7,34.65l0.649-1.45c0.268-0.566,0.483-1.217,0.65-1.95l0.05,1.25
				C24.229,32.445,24.387,32.337,24.525,32.175z"/>
			<path style="fill-rule:evenodd;clip-rule:evenodd;fill:#60521A;" d="M20,34.6v-3.05c0.1-0.6,0.184-1.767,0.25-3.5
				c0.033-1.5,0.184-2.666,0.45-3.5c0.066,2.033,0.05,3.566-0.05,4.601c-0.167,1.833-0.217,3.066-0.15,3.699
				c0.1,0.634,0.233,1.034,0.4,1.2L20,34.6z"/>
			<path style="fill-rule:evenodd;clip-rule:evenodd;fill:#60521A;" d="M19.35,13.7c-0.033-0.467-0.199-0.967-0.5-1.5l0.45,0.1
				c0.3,0.3,0.717,0.633,1.25,1c0.5,0.534,0.917,1.167,1.25,1.9c0.334,0.6,0.567,1.05,0.7,1.35c0.233,0.534,0.35,1.017,0.35,1.45
				v0.75l-0.3-0.5c-0.633-1-1.2-1.783-1.7-2.35c-0.133-0.667-0.183-1.183-0.149-1.55l-0.25,1.1l-0.3-0.25L19.35,13.7z"/>
			<path style="fill-rule:evenodd;clip-rule:evenodd;fill:#60521A;" d="M12.65,10.2c0.4,0,0.7-0.017,0.9-0.05h0.1v0.15
				c-0.267,0.067-0.45,0.15-0.55,0.25l-0.5,0.05L12.65,10.2z"/>
			<path style="fill-rule:evenodd;clip-rule:evenodd;fill:#60521A;" d="M17.2,35.65l0.95-0.601c-0.134,0.233-0.283,0.4-0.45,0.5
				l-0.4,0.2L17.2,35.65z"/>
			<path style="fill-rule:evenodd;clip-rule:evenodd;fill:#60521A;" d="M17.55,13.8c-0.399-0.533-0.767-0.8-1.1-0.8l0.399-0.45
				c0.233,0.1,0.601,0.217,1.101,0.35L18,13v-0.1l0.3,0.15c0.3,0.233,0.483,0.65,0.55,1.25c0.067,0.667,0.167,1.1,0.301,1.3
				c0.033-0.367,0.1-0.883,0.199-1.55V13.7l0.801,1.5l0.199,0.7L20,17.5c0-0.067-0.1-0.333-0.3-0.8
				c-0.134-0.233-0.351-0.517-0.65-0.85c-0.366-0.4-0.6-0.684-0.7-0.85C18.05,14.467,17.783,14.067,17.55,13.8z"/>
			<path style="fill-rule:evenodd;clip-rule:evenodd;fill:#60521A;" d="M6.05,30.7L7,32.5V33c-0.167,0.033-0.333-0.017-0.5-0.15
				c-0.233-0.199-0.383-0.316-0.45-0.35v0.4l-1.4-1.25l0.5,0.05c0.4-0.033,0.65-0.117,0.75-0.25
				C5.934,31.384,5.983,31.134,6.05,30.7z"/>
			<path style="fill-rule:evenodd;clip-rule:evenodd;fill:#60521A;" d="M3.2,29.25l0.5,1.4L2.8,29.6
				c-0.233-0.933-0.383-2.083-0.45-3.449C2.383,26.55,2.5,27.066,2.7,27.7C3,28.6,3.167,29.116,3.2,29.25z"/>
			<path style="fill-rule:evenodd;clip-rule:evenodd;fill:#60521A;" d="M8.05,33.8l0.65,0.4h0.1c0.367,0.133,0.767,0.166,1.2,0.1
				c0.233-0.066,0.617-0.2,1.15-0.399c0.233,0.5,0.8,0.75,1.7,0.75H13c0,0.366-0.184,0.616-0.55,0.75
				c-0.167,0.066-0.567,0.133-1.2,0.199c-0.467-0.267-0.867-0.483-1.2-0.649c-0.566-0.167-0.966-0.334-1.2-0.5
				C8.55,34.283,8.283,34.066,8.05,33.8z"/>
			<polygon style="fill-rule:evenodd;clip-rule:evenodd;fill:#60521A;" points="13.75,34.55 13.9,35 13.75,35 13.45,34.6 			"/>
			<polygon style="fill-rule:evenodd;clip-rule:evenodd;fill:#60521A;" points="15.1,34.85 14.4,34.5 15,34.5 			"/>
			<polygon style="fill-rule:evenodd;clip-rule:evenodd;fill:#524616;" points="13.4,11.35 13.1,11.55 12.9,11.4 			"/>
			<path style="fill-rule:evenodd;clip-rule:evenodd;fill:#524616;" d="M14.35,11.9h-0.2c0.567-0.566,1.133-0.9,1.7-1L16,10.95V11
				c-0.434,0.3-0.7,0.583-0.8,0.85l-0.05,0.25L15,12.05c0.2-0.367,0.434-0.65,0.7-0.85l-0.85,0.3L14.35,11.9z"/>
			<polygon style="fill-rule:evenodd;clip-rule:evenodd;fill:#524616;" points="17.1,9.8 17.05,9.85 16.4,9.85 16.75,9.65 			"/>
			<polygon style="fill-rule:evenodd;clip-rule:evenodd;fill:#524616;" points="15.75,9.5 16.15,9.5 16.15,9.9 15.75,9.9 16,9.7 
				15.7,9.85 15.65,9.75 			"/>
			<path style="fill-rule:evenodd;clip-rule:evenodd;fill:#524616;" d="M14,10.55V10.5c-0.4,0-0.7,0.017-0.9,0.05
				c0.1-0.1,0.283-0.183,0.55-0.25v-0.15l0.1,0.05l0.45,0.1v0.05l-0.05,0.2H14z"/>
			<polygon style="fill-rule:evenodd;clip-rule:evenodd;fill:#524616;" points="13.75,11.1 13.9,10.75 14.25,10.8 			"/>
			<path style="fill-rule:evenodd;clip-rule:evenodd;fill:#524616;" d="M12,10.7l0.05-0.05l1.05-0.1c0.2-0.033,0.5-0.05,0.9-0.05
				v0.05h-0.3l0.15,0.15H13.7l0.2,0.05l-0.2,0.45l-0.3,0.15l-0.5,0.05c-1.667,0.1-3.267,0.567-4.8,1.4
				c0.2-0.267,0.716-0.65,1.55-1.15c0.333-0.233,0.9-0.483,1.7-0.75L12,10.7z"/>
			<path style="fill-rule:evenodd;clip-rule:evenodd;fill:#524616;" d="M12.35,15.2l-0.85,3c-0.167,0.4-0.283,0.65-0.35,0.75
				c0.034-0.7,0.05-1.784,0.05-3.25l1.75-2.35C12.85,13.583,12.65,14.2,12.35,15.2z"/>
			<path style="fill-rule:evenodd;clip-rule:evenodd;fill:#524616;" d="M13.7,11.2l0.05-0.1l0.5-0.3l0.1,0.05L14.3,10.8l0.45,0.05
				c-0.7,0.333-1.5,0.983-2.4,1.95l-0.4,0.45l0.1-0.35l0.25-0.4c0.333-0.467,0.6-0.783,0.8-0.95l0.3-0.2L13.7,11.2z"/>
			<polygon style="fill-rule:evenodd;clip-rule:evenodd;fill:#524616;" points="16,9.7 15.75,9.9 15.7,9.85 			"/>
			<path style="fill-rule:evenodd;clip-rule:evenodd;fill:#524616;" d="M7.85,21.15c-0.034-0.733,0.25-1.667,0.85-2.8l0.05-0.05
				L8.4,20.2C8.133,20.533,7.95,20.85,7.85,21.15z"/>
			<path style="fill-rule:evenodd;clip-rule:evenodd;fill:#524616;" d="M12.35,12l-0.4,1.25c-0.6,0.667-1.034,1.267-1.3,1.8
				c-0.233,1.1-0.433,1.917-0.6,2.45l-0.9,1.7L8.9,19.55l0.1-1.7l2.85-5.15L12.35,12z"/>
			<path style="fill-rule:evenodd;clip-rule:evenodd;fill:#524616;" d="M10.05,25.9l0.3-2.4L10.5,23
				c0.033,0.533,0.017,1.283-0.05,2.25c-0.067,1-0.1,1.733-0.1,2.2c0,0.5,0.1,1.283,0.3,2.35c0.133,0.834,0.567,1.717,1.3,2.65
				l0.3,0.7L12,33c-0.667-0.434-1.167-0.85-1.5-1.25c-0.3-0.4-0.467-0.816-0.5-1.25C9.934,29.233,9.95,27.7,10.05,25.9z"/>
			<path style="fill-rule:evenodd;clip-rule:evenodd;fill:#524616;" d="M15.1,34.85l0.25,0.45c-0.267,0.066-0.483,0.066-0.65,0
				c-0.034-0.1-0.034-0.2,0-0.3h-0.8l-0.15-0.45c-0.267-0.467-0.684-0.866-1.25-1.2l-0.25-0.55c0.633,0.7,1.167,1.167,1.6,1.4
				c0.033,0.033,0.216,0.133,0.55,0.3L15.1,34.85z"/>
			<path style="fill-rule:evenodd;clip-rule:evenodd;fill:#524616;" d="M12.95,33.8l0.8,1.2H13.5c-0.033-0.167-0.184-0.45-0.45-0.85
				L12.95,33.8z"/>
			<path style="fill-rule:evenodd;clip-rule:evenodd;fill:#524616;" d="M6.05,32.9v-0.4c0.067,0.033,0.217,0.15,0.45,0.35
				C6.667,32.983,6.833,33.033,7,33v-2.65c0-0.733,0.066-1.833,0.2-3.3c-0.067,1.134-0.1,2-0.1,2.601
				c-0.034,1.1,0.033,1.983,0.2,2.649c0.167,0.566,0.417,1.066,0.75,1.5c0.233,0.267,0.5,0.483,0.8,0.65
				c0.233,0.166,0.633,0.333,1.2,0.5c0.333,0.166,0.733,0.383,1.2,0.649c-0.4,0.067-0.667,0.134-0.8,0.2
				c-0.767-0.267-1.717-0.816-2.85-1.649L6.05,32.9z"/>
			<path style="fill-rule:evenodd;clip-rule:evenodd;fill:#524616;" d="M15,12.05l-0.35,0.9l-0.1,0.2
				c-0.212,0.585-0.337,1.119-0.375,1.6c-0.008-0.25-0.033-0.583-0.075-1c-0.067-0.833,0.017-1.45,0.25-1.85l0.5-0.4l0.85-0.3
				C15.434,11.4,15.2,11.683,15,12.05z"/>
			<path style="fill-rule:evenodd;clip-rule:evenodd;fill:#524616;" d="M18.85,14.3c-0.066-0.6-0.25-1.017-0.55-1.25L18,12.9v-0.35
				c0.333-0.066,0.583-0.183,0.75-0.35h0.1c0.301,0.533,0.467,1.033,0.5,1.5v0.35c-0.1,0.667-0.166,1.184-0.199,1.55
				C19.017,15.4,18.917,14.967,18.85,14.3z"/>
			<path style="fill-rule:evenodd;clip-rule:evenodd;fill:#524616;" d="M17.95,12.9c-0.5-0.133-0.867-0.25-1.101-0.35
				c0.268,0.1,0.584,0.117,0.95,0.05L17.95,12.9z"/>
			<path style="fill-rule:evenodd;clip-rule:evenodd;fill:#524616;" d="M19.3,12.3l1.3,0.25c0.301,0.233,0.5,0.434,0.601,0.6
				L21,12.8c0.2,0.167,0.434,0.483,0.7,0.95c0.2,0.267,0.517,0.65,0.95,1.15c0.366,0.434,0.616,0.85,0.75,1.25
				c0.066,0.233,0.1,0.9,0.1,2c0,1.5,0.066,2.85,0.2,4.05c0.066,0.566,0.05,1.333-0.05,2.3c-0.097,1.122-0.146,1.872-0.15,2.25
				c-0.004-0.46-0.07-1.11-0.2-1.95C23.1,23.366,23,22.566,23,22.4L22.85,18c0-0.433-0.116-0.917-0.35-1.45
				c-0.133-0.3-0.366-0.75-0.7-1.35c-0.333-0.733-0.75-1.367-1.25-1.9C20.017,12.933,19.6,12.6,19.3,12.3z"/>
			<path style="fill-rule:evenodd;clip-rule:evenodd;fill:#524616;" d="M22.35,32.5L23,31.1V32C22.9,32.2,22.684,32.366,22.35,32.5z
				"/>
			<path style="fill-rule:evenodd;clip-rule:evenodd;fill:#524616;" d="M18.95,34.2l0.1,0.6c0.134,0.101,0.367,0.066,0.7-0.1
				l-0.1,0.3l-0.301,0.2l-0.05,0.05c-0.633,0.366-1.283,0.55-1.95,0.55l-0.05-0.05l0.4-0.2c0.167-0.1,0.316-0.267,0.45-0.5
				C18.483,34.55,18.75,34.267,18.95,34.2z"/>
			<path style="fill-rule:evenodd;clip-rule:evenodd;fill:#524616;" d="M24.35,28.65L24.3,29.2c0,0.666-0.1,1.35-0.3,2.05
				c-0.167,0.733-0.383,1.384-0.65,1.95L22.7,34.65c0.2-1.2,0.3-2.117,0.3-2.75c0.033-0.067,0.05-0.351,0.05-0.851
				c0.267-0.6,0.7-1.483,1.3-2.649V28.65z"/>
			<path style="fill-rule:evenodd;clip-rule:evenodd;fill:#524616;" d="M20,34.6l0.9-0.55l0.25-0.2L20.9,34.2
				c-0.267,0.267-0.567,0.483-0.9,0.649V34.6z"/>
			<path style="fill-rule:evenodd;clip-rule:evenodd;fill:#524616;" d="M20.4,10c0.199-0.067,0.383-0.183,0.55-0.35
				c0.167-0.167,0.233-0.35,0.2-0.55l1.399,0.4C21.717,9.967,21,10.133,20.4,10z"/>
			<path style="fill-rule:evenodd;clip-rule:evenodd;fill:#524616;" d="M23,12c-0.667-0.233-1.066-0.55-1.2-0.95l1.05,0.3
				c1.367,0.4,2.384,0.833,3.051,1.3c1.566,1.067,2.399,1.633,2.5,1.7c0.933,0.733,1.483,1.533,1.649,2.4
				c0.101,0.767,0.233,1.35,0.4,1.75c0.267,0.533,0.399,1,0.399,1.4c0.067,2.3-0.033,3.899-0.3,4.8c-0.399,1.967-0.8,3.399-1.2,4.3
				c-0.732,1.7-1.433,2.65-2.1,2.85c0.333-0.133,0.617-0.466,0.85-1c0.034-0.133,0.15-0.566,0.351-1.3
				c0.133-0.399,0.366-0.967,0.7-1.7c0.066-0.399,0.066-1.033,0-1.899l0.25-1.601l0.3-1c0.066-0.166,0.149-0.399,0.25-0.699
				c0.066-0.233,0.083-0.483,0.05-0.75c-0.066-0.5-0.35-1.301-0.85-2.4c-0.134-0.333-0.334-0.817-0.601-1.45l-0.2-0.9
				c-0.166-0.267-0.433-0.467-0.8-0.6c-0.5-0.167-1-0.55-1.5-1.15c-0.7-0.833-1.149-1.333-1.35-1.5c0.3,0.667,0.399,1.2,0.3,1.6
				c-0.633-0.733-1.133-1.267-1.5-1.6c-0.667-0.667-1.283-1.066-1.85-1.2l-0.801-0.1l-0.699-1.15L20.3,11.5
				c0.267,0.267,0.9,0.483,1.9,0.65c0.6,0.2,1.417,0.5,2.45,0.9c0.467,0.167,0.967,0.434,1.5,0.8c0.6,0.467,0.949,0.9,1.05,1.3
				c0.133-1.1-0.7-1.983-2.5-2.65C23.934,12.3,23.367,12.133,23,12z"/>
			<path style="fill-rule:evenodd;clip-rule:evenodd;fill:#524616;" d="M27.4,25.35l-0.051-2.5c-0.033-0.399-0.133-0.916-0.3-1.55
				c-0.233-0.767-0.366-1.3-0.399-1.6l1.1,2.149c0.367,0.9,0.566,1.684,0.6,2.351c-0.033,1.033-0.05,1.8-0.05,2.3l-0.35,0.85
				L27.4,29.4c-0.233,0.8-0.584,1.366-1.051,1.699c0.067-1.233,0.167-2.166,0.301-2.8L26.8,27.15c0.3-0.4,0.483-0.733,0.55-1
				C27.45,25.983,27.467,25.717,27.4,25.35z"/>
			<path style="fill-rule:evenodd;clip-rule:evenodd;fill:#524616;" d="M20.6,12.55l-1.75-0.35h-0.1
				c0.167-0.233,0.25-0.467,0.25-0.7c0.066,0.033,0.5,0.317,1.3,0.85L20.6,12.55z"/>
			<path style="fill-rule:evenodd;clip-rule:evenodd;fill:#524616;" d="M18.45,8.7L16.4,9.85L16.15,9.9V9.5
				c0-0.3,0.05-0.583,0.149-0.85L18.45,8.7z"/>
			<path style="fill-rule:evenodd;clip-rule:evenodd;fill:#524616;" d="M13.5,10.15c0.033-0.3-0.917-0.717-2.85-1.25l1.55-0.2
				l2.4-0.05l0.5,0.4c0.2,0.4,0.383,0.667,0.55,0.8v-0.1l0.05,0.1l0.05,0.05c-0.767,0.067-1.283,0.2-1.55,0.4l-0.45-0.1l-0.1-0.05
				H13.5z"/>
			<path style="fill-rule:evenodd;clip-rule:evenodd;fill:#524616;" d="M12,10.7l-1.35,0.1c-1.4,0.133-2.566,0.317-3.5,0.55
				c-0.533,0.066-1.066,0.167-1.6,0.3l1.05-0.9l0.1-0.05c1.3-0.133,2.8-0.2,4.5-0.2l0.15,0.05L12,10.7z"/>
			<path style="fill-rule:evenodd;clip-rule:evenodd;fill:#423911;" d="M14.2,10.35V10.3c0.267-0.2,0.783-0.333,1.55-0.4h0.4
				l0.25-0.05h0.649c-0.2,0.133-0.333,0.25-0.399,0.35l-0.15,0.15l-0.8,0.1l-0.5-0.1c-0.1,0.133-0.45,0.2-1.05,0.2L14.2,10.35z"/>
			<path style="fill-rule:evenodd;clip-rule:evenodd;fill:#423911;" d="M17.8,12.6c-0.366,0.066-0.683,0.05-0.95-0.05
				C17.217,12.183,17.533,12.2,17.8,12.6z"/>
			<path style="fill-rule:evenodd;clip-rule:evenodd;fill:#423911;" d="M18.75,12.2c-0.167,0.167-0.417,0.283-0.75,0.35v-1.4
				l0.7,0.15l0.3,0.2C19,11.733,18.917,11.967,18.75,12.2z"/>
			<path style="fill-rule:evenodd;clip-rule:evenodd;fill:#423911;" d="M20.15,11.45c-0.334-0.434-0.551-0.684-0.65-0.75l1.15,0.1
				L20.2,11c-0.101,0.167-0.066,0.333,0.1,0.5L20.15,11.45z"/>
			<polygon style="fill-rule:evenodd;clip-rule:evenodd;fill:#423911;" points="15.7,10.45 16.5,10.35 16.5,10.4 15.8,10.45 			"/>
			<path style="fill-rule:evenodd;clip-rule:evenodd;fill:#423911;" d="M13.7,10.55h0.45c0.6,0,0.95-0.066,1.05-0.2l0.5,0.1h0.1
				l-0.3,0.05l-0.75,0.35l-0.9-0.15L13.7,10.55z"/>
			<path style="fill-rule:evenodd;clip-rule:evenodd;fill:#423911;" d="M17.05,9.85L17.1,9.8c0.801-0.633,1.95-0.917,3.45-0.85
				L21.15,9.1c0.033,0.2-0.033,0.383-0.2,0.55C20.783,9.817,20.6,9.933,20.4,10c0.6,0.133,1.316-0.033,2.149-0.5l3.351,1.1
				c2,0.6,3.616,2.083,4.85,4.45c1.2,2.367,1.667,4.8,1.4,7.3c-0.434,3.9-1.967,7.65-4.601,11.25c-0.467,0.634-1.133,1.051-2,1.25
				c-0.3,0.067-1.1,0.134-2.399,0.2l0.699-1.7c0.101-0.233,0.4-0.75,0.9-1.55c0.434-0.633,0.684-1.166,0.75-1.6
				c0.1-0.5,0.15-1.05,0.15-1.65l0.05-4.7c0-0.5-0.05-1.333-0.15-2.5c-0.033-1.033,0.017-1.85,0.15-2.45
				c0.6,0.867,0.967,1.85,1.1,2.95c0.033,0.367,0.05,1.417,0.05,3.15l-0.05,2.15L26.65,28.3c-0.134,0.634-0.233,1.566-0.301,2.8
				c0.467-0.333,0.817-0.899,1.051-1.699l0.55-2.051l0.35-0.85c0.167-0.434,0.567-1.583,1.2-3.45l-0.35,2.9
				c0.066,0.866,0.066,1.5,0,1.899c-0.334,0.733-0.567,1.301-0.7,1.7c-0.2,0.733-0.316,1.167-0.351,1.3
				c-0.232,0.534-0.517,0.867-0.85,1c0.667-0.199,1.367-1.149,2.1-2.85c0.4-0.9,0.801-2.333,1.2-4.3c0.267-0.9,0.367-2.5,0.3-4.8
				c0-0.4-0.133-0.867-0.399-1.4c-0.167-0.4-0.3-0.983-0.4-1.75c-0.166-0.867-0.717-1.667-1.649-2.4
				c-0.101-0.067-0.934-0.633-2.5-1.7c-0.667-0.467-1.684-0.9-3.051-1.3l-1.05-0.3c-0.1-0.2-0.133-0.433-0.1-0.7l-1.05,0.45
				l-1.15-0.1c-0.434-0.434-0.934-0.6-1.5-0.5l-1.5,0.2v-0.05l0.15-0.15C16.717,10.1,16.85,9.983,17.05,9.85z"/>
			<path style="fill-rule:evenodd;clip-rule:evenodd;fill:#423911;" d="M19.7,30.35c0-0.833,0.1-1.466,0.3-1.899v6.399L19.65,35
				l0.1-0.3c0.066-0.4,0.1-0.967,0.1-1.7l-0.05-0.55C19.8,32.017,19.767,31.316,19.7,30.35z"/>
			<path style="fill-rule:evenodd;clip-rule:evenodd;fill:#423911;" d="M11.95,13.25l0.4-0.45c0.9-0.966,1.7-1.617,2.4-1.95
				l0.75-0.35l2.5-0.3c0.566-0.1,1.066,0.066,1.5,0.5c0.1,0.066,0.316,0.316,0.65,0.75l0.699,1.15L21,12.8l0.2,0.35
				c-0.101-0.167-0.3-0.367-0.601-0.6l-0.3-0.2c-0.8-0.533-1.233-0.817-1.3-0.85l-0.3-0.2l-0.5-0.25L18,11v2l-0.2-0.4
				c-0.267-0.4-0.583-0.417-0.95-0.05L16.45,13l-0.95,1.4c-0.267,0.467-0.417,0.817-0.45,1.05L15,15.95V15.3
				c-0.066-1.033-0.066-1.8,0-2.3c0.033-0.167,0.083-0.467,0.15-0.9l0.05-0.25c0.1-0.267,0.366-0.55,0.8-0.85l0.15-0.15l-0.3,0.05
				c-0.567,0.1-1.133,0.434-1.7,1c-0.4,0.4-0.8,0.883-1.2,1.45L11.2,15.7l-0.4,0.45l-0.45,0.8c-0.367,0.8-0.583,1.25-0.65,1.35
				l0.35-0.8c0.167-0.533,0.367-1.35,0.6-2.45C10.917,14.517,11.35,13.917,11.95,13.25z"/>
			<path style="fill-rule:evenodd;clip-rule:evenodd;fill:#423911;" d="M20.2,11l1.5-0.65c-0.033,0.267,0,0.5,0.1,0.7
				c0.134,0.4,0.533,0.717,1.2,0.95c0.367,0.133,0.934,0.3,1.7,0.5c1.8,0.667,2.633,1.55,2.5,2.65c-0.101-0.4-0.45-0.833-1.05-1.3
				c-0.533-0.367-1.033-0.633-1.5-0.8c-1.033-0.4-1.851-0.7-2.45-0.9c-1-0.167-1.634-0.383-1.9-0.65
				C20.134,11.333,20.1,11.167,20.2,11z"/>
			<path style="fill-rule:evenodd;clip-rule:evenodd;fill:#423911;" d="M15.15,23.8v-0.55l0.05,0.1V23.4
				c0.233,0.866,0.333,2.05,0.3,3.55c-0.1,1.666-0.15,2.85-0.15,3.55c-0.1,1-0.133,1.8-0.1,2.4c0.033,1.066,0.35,1.6,0.95,1.6
				l0.149,0.2l1,1.1c-0.399,0-0.616-0.1-0.649-0.3l-0.05,0.1c-0.134-0.199-0.567-0.3-1.3-0.3l-0.25-0.45l-0.25-0.8L14.8,33.8
				c-0.233-1.399-0.267-2.7-0.1-3.899l0.15-1.2C15.083,26.3,15.184,24.667,15.15,23.8z"/>
			<path style="fill-rule:evenodd;clip-rule:evenodd;fill:#423911;" d="M17.35,35.8c0.667,0,1.317-0.184,1.95-0.55l-0.55,1.25
				c-0.566,0.134-1.283,0.1-2.15-0.1l0.051-0.2c0.166-0.3,0.166-0.5,0-0.601l0.05-0.1C16.733,35.7,16.95,35.8,17.35,35.8z"/>
			<path style="fill-rule:evenodd;clip-rule:evenodd;fill:#423911;" d="M22.35,32.5C22.684,32.366,22.9,32.2,23,32
				c-0.01,0.628-0.11,1.512-0.3,2.65L22.6,35.1c-0.8,0.067-1.5,0.284-2.1,0.65c-0.566,0.4-1.15,0.65-1.75,0.75l0.55-1.25l0.05-0.05
				L19.65,35L20,34.85c0.333-0.166,0.634-0.383,0.9-0.649l0.25-0.351c0.433-0.733,0.666-1.1,0.699-1.1
				c0.134-0.134,0.284-0.217,0.45-0.25H22.35z"/>
			<path style="fill-rule:evenodd;clip-rule:evenodd;fill:#423911;" d="M16.65,36.2l-0.15,0.2L15.35,36.3
				c-0.6,0-1.167-0.066-1.7-0.2c-0.466-0.1-0.883-0.133-1.25-0.1c-0.633,0.134-1.283,0.066-1.95-0.2c0.133-0.066,0.4-0.133,0.8-0.2
				c0.633-0.066,1.033-0.133,1.2-0.199c0.366-0.134,0.55-0.384,0.55-0.75c0-0.233-0.083-0.483-0.25-0.75
				c-0.2-0.267-0.35-0.467-0.45-0.601l-0.05-0.149l-0.3-0.7c-0.095-0.381-0.128-0.73-0.1-1.05c0,0.333,0.133,0.8,0.4,1.399
				l0.25,0.55l0.55,0.801c0.267,0.399,0.417,0.683,0.45,0.85h1.2c-0.034,0.1-0.034,0.2,0,0.3c0.167,0.066,0.383,0.066,0.65,0
				c0.733,0,1.167,0.101,1.3,0.3C16.816,35.7,16.816,35.9,16.65,36.2z"/>
			<path style="fill-rule:evenodd;clip-rule:evenodd;fill:#7A6928;" d="M9.35,15L7,18.85V17.7l-1.5,1.15
				C5.2,19.083,4.983,19.134,4.85,19c-0.1-0.1-0.217-0.317-0.35-0.65c-0.033-0.167-0.083-0.117-0.15,0.15
				c-0.167,0.733-0.383,1.517-0.65,2.35C3.333,21.884,3.283,23.7,3.55,26.3L4,29.85L3.5,28.5C1.9,24.3,2.017,20.8,3.85,18l0.65-0.95
				C4.167,17.617,4,18.2,4,18.8c0.267-0.6,0.783-1.15,1.55-1.65c0.434-0.267,1.1-0.633,2-1.1c0.733-0.433,1.7-1.267,2.9-2.5L9.35,15
				z"/>
			<path style="fill-rule:evenodd;clip-rule:evenodd;fill:#7A6928;" d="M4,14.2l0.3-0.25L3,15.35c-0.4,0.5-0.717,1.183-0.95,2.05
				c0,0.033-0.183,0.783-0.55,2.25C1,20.85,0.717,21.816,0.65,22.55L0.5,25.6l-0.05-0.3c-0.4-1.5-0.534-3.05-0.4-4.649
				c0.233-0.4,0.483-1.15,0.75-2.25c0.267-1.033,0.567-1.767,0.9-2.2C2.033,15.8,2.8,15.133,4,14.2z"/>
			<path style="fill-rule:evenodd;clip-rule:evenodd;fill:#7A6928;" d="M7.95,9.85l0.6-0.3L10.4,9.5
				c0.133,0.033,0.35,0.083,0.65,0.15c0.233,0.067,0.434,0.067,0.6,0c0-0.3-0.383-0.533-1.15-0.7l0.15-0.05
				c1.934,0.533,2.883,0.95,2.85,1.25h0.05c-0.2,0.033-0.5,0.05-0.9,0.05c-0.333,0.066-0.683,0.066-1.05,0
				C10.767,10.167,9.55,10.05,7.95,9.85z"/>
			<path style="fill-rule:evenodd;clip-rule:evenodd;fill:#7A6928;" d="M15.95,8.65h0.1l-0.4,1.1v0.1
				c-0.167-0.133-0.35-0.4-0.55-0.8l-0.2-0.4h0.15l0.25,0.3C15.633,9.217,15.85,9.117,15.95,8.65z"/>
			<path style="fill-rule:evenodd;clip-rule:evenodd;fill:#7A6928;" d="M13.2,14.9l0.5-0.55l0.5,0.85c-0.3,0.2-0.45,0.833-0.45,1.9
				c0.066,1.133,0.1,1.816,0.1,2.05c0.033,0.633,0.05,1.116,0.05,1.449c0,0.601-0.033,1.067-0.1,1.4c-0.033,0.2-0.133,0.366-0.3,0.5
				c-0.167,0.167-0.267,0.3-0.3,0.4c-0.067,0.199-0.117,0.517-0.15,0.949c-0.033,0.567-0.066,0.9-0.1,1
				c-0.134,1-0.167,3.117-0.1,6.351l-0.2-0.851c-0.233-0.933-0.333-1.85-0.3-2.75L12.5,21.2c-0.167,0.467-0.283,1.1-0.35,1.899
				l0.05-2.35c-0.032,0.215-0.099,0.465-0.2,0.75c-0.233,0.667-0.35,1.017-0.35,1.05c-0.367,1.566-0.583,2.434-0.65,2.601
				l-0.15,0.35c-0.133-0.5-0.067-1.233,0.2-2.2L11.2,22.4c0.1-0.601,0.15-1.267,0.15-2c0-0.767,0.05-1.5,0.15-2.2l0.525-1.625
				c-0.117,0.389-0.175,0.848-0.175,1.375c-0.267,1.866-0.383,3.267-0.35,4.2c0.333-2.034,0.55-3.234,0.65-3.601
				c0.467-2,1.034-3.283,1.7-3.85L13.2,14.9z"/>
			<path style="fill-rule:evenodd;clip-rule:evenodd;fill:#7A6928;" d="M9,16.85v1l-0.15,2.1c-0.3,2.633-0.517,4.6-0.65,5.899
				C7.934,28.217,7.816,30.2,7.85,31.8C7.417,30.967,7.2,29.7,7.2,28c0-1.934,0.1-3.3,0.3-4.1c0.066-0.267,0.15-0.7,0.25-1.301
				C7.85,22.066,8,21.65,8.2,21.35L9,16.85z"/>
			<path style="fill-rule:evenodd;clip-rule:evenodd;fill:#7A6928;" d="M15.85,18.1v-2.9c-0.233,0.033-0.4,0.25-0.5,0.65V15.7
				l0.85-1.5c1.133,0.267,2.017,1.15,2.649,2.65c0.567,1.4,0.717,2.683,0.45,3.85c-0.166-0.533-0.3-0.934-0.399-1.2
				c-0.233-0.467-0.584-0.617-1.051-0.45c-0.066,1.967-0.116,3.417-0.149,4.351l-0.05,1.649c-0.167-2.033-0.434-3.116-0.801-3.25
				L16.5,25.15c0.066-1.2,0.066-2.417,0-3.65C16.467,20.7,16.25,19.566,15.85,18.1z"/>
			<path style="fill-rule:evenodd;clip-rule:evenodd;fill:#7A6928;" d="M20.85,22.95c0-0.706-0.05-1.739-0.149-3.101
				c0.233-0.066,0.383-0.316,0.45-0.75c0.267,1,0.433,1.75,0.5,2.25c0.133,1.101,0.199,2.75,0.199,4.95
				c0.067,1.033,0.084,1.867,0.051,2.5c-0.101,1.167-0.45,1.783-1.051,1.851c-0.066-0.467-0.083-1.084-0.05-1.851
				c0-0.399,0.017-1.017,0.05-1.85V22.95z"/>
			<path style="fill-rule:evenodd;clip-rule:evenodd;fill:#7A6928;" d="M24.85,18.35c0-0.934-0.267-1.567-0.8-1.9L24,15.5l0.45,1.15
				c0.467,0.9,0.733,1.583,0.8,2.05c0.1,0.767-0.2,1.3-0.9,1.6L24.2,18.6l0.5,0.75C24.6,19.083,24.65,18.75,24.85,18.35z"/>
			<path style="fill-rule:evenodd;clip-rule:evenodd;fill:#7A6928;" d="M21.2,18.4l0.05-0.6c0.333,0.2,0.517,0.684,0.55,1.45
				c-0.066,0.9-0.1,1.483-0.1,1.75l-0.5-2.4V18.4z"/>
			<path style="fill-rule:evenodd;clip-rule:evenodd;fill:#907C2F;" d="M10.55,13.15L11,13.2l-0.3,0.15l-0.25,0.2
				c-1.2,1.233-2.167,2.067-2.9,2.5c-0.9,0.467-1.566,0.833-2,1.1C4.783,17.65,4.267,18.2,4,18.8c0-0.6,0.167-1.183,0.5-1.75
				l1.5-1.6C7.867,13.917,9.383,13.15,10.55,13.15z"/>
			<path style="fill-rule:evenodd;clip-rule:evenodd;fill:#907C2F;" d="M5.55,11.65c0.534-0.133,1.067-0.233,1.6-0.3
				c0.5-0.067,0.934-0.05,1.3,0.05C8.217,11.633,7.833,11.833,7.3,12c-0.633,0.233-1.05,0.417-1.25,0.55
				c-0.533,0.367-1.116,0.833-1.75,1.4L4,14.2c-1.2,0.933-1.967,1.6-2.3,2c-0.333,0.433-0.634,1.167-0.9,2.2
				c-0.267,1.1-0.517,1.85-0.75,2.25C0.283,18.283,1.066,16.4,2.4,15C3.1,14.3,4.15,13.183,5.55,11.65z"/>
			<path style="fill-rule:evenodd;clip-rule:evenodd;fill:#907C2F;" d="M10.4,9.5L8.55,9.55c0.6-0.233,1.25-0.433,1.95-0.6
				c0.767,0.167,1.15,0.4,1.15,0.7c-0.167,0.067-0.367,0.067-0.6,0C10.75,9.583,10.533,9.533,10.4,9.5z"/>
			<path style="fill-rule:evenodd;clip-rule:evenodd;fill:#907C2F;" d="M15.95,8.65c-0.1,0.467-0.317,0.567-0.65,0.3l-0.25-0.3
				H15.95z"/>
			<path style="fill-rule:evenodd;clip-rule:evenodd;fill:#907C2F;" d="M12.05,16.35l0.05-0.2c0.133-0.4,0.267-0.717,0.4-0.95
				l0.7-0.25V14.9l0.65-0.2c-0.667,0.566-1.233,1.85-1.7,3.85c-0.1,0.367-0.316,1.566-0.65,3.601c-0.033-0.934,0.083-2.334,0.35-4.2
				C11.85,17.317,11.917,16.783,12.05,16.35z"/>
			<path style="fill-rule:evenodd;clip-rule:evenodd;fill:#907C2F;" d="M15.85,15.2v3.35c0.033,0.467,0.05,0.851,0.05,1.15
				c0,0.533-0.066,0.899-0.2,1.1c-0.467-2.066-0.583-3.667-0.35-4.8v-0.15C15.45,15.45,15.617,15.233,15.85,15.2z"/>
			<path style="fill-rule:evenodd;clip-rule:evenodd;fill:#907C2F;" d="M21.2,18.4v0.2l-0.05,0.5
				c-0.067,0.434-0.217,0.684-0.45,0.75l-0.05-0.55c0-0.2-0.051-0.4-0.15-0.6l-0.4-0.75L20,17.5l0.7-3.15
				c-0.033,0.367,0.017,0.883,0.149,1.55c0.233,0.967,0.367,1.6,0.4,1.9L21.2,18.4z"/>
			<path style="fill-rule:evenodd;clip-rule:evenodd;fill:#907C2F;" d="M24.7,19.35l-0.65-0.95L24,18.35
				c-0.233-0.733-0.267-1.383-0.1-1.95l0.149,0.05c0.533,0.333,0.8,0.966,0.8,1.9C24.65,18.75,24.6,19.083,24.7,19.35z"/>
		</g>
		<g>
			<path style="fill-rule:evenodd;clip-rule:evenodd;fill:#6B5C1D;" d="M4.2,6.25l-0.5-0.8c-0.2-0.367-0.3-0.8-0.3-1.3
				C3.434,3.917,3.467,3.7,3.5,3.5l0.7,0.2c0.633,0.1,1.4,0.15,2.3,0.15c1.3,0,2.617,0.183,3.95,0.55
				c1.633,0.467,2.966,1.117,4,1.95c0.933,0.767,1.45,1.533,1.55,2.3L15.85,9.6l-0.4,1.35l-3.5-0.5C10.883,10.283,9.717,10,8.45,9.6
				C7.65,9.333,7.066,9.017,6.7,8.65c-0.267-0.367-0.467-0.6-0.6-0.7c-0.167-0.1-0.3-0.233-0.4-0.4l-0.1-0.2L6.25,6.6
				c0.3-0.267,0.583-0.567,0.85-0.9C6.833,5.8,6.467,5.883,6,5.95L4.2,6.25z"/>
			<path style="fill-rule:evenodd;clip-rule:evenodd;fill:#60521A;" d="M4.2,6.25l-0.5-0.8c-0.167-0.267-0.25-0.5-0.25-0.7
				c0.1,0,0.183,0.033,0.25,0.1C3.767,4.883,3.867,5.067,4,5.4c0.066,0.267,0.2,0.417,0.4,0.45l0.05-0.2L4.5,5.7
				c0.167,0.1,0.55,0.066,1.15-0.1L6.2,5.55l0.3,0.3L4.2,6.25z"/>
			<path style="fill-rule:evenodd;clip-rule:evenodd;fill:#60521A;" d="M10.4,6.4l0.05-0.15c0.4,0.133,0.966,0.433,1.7,0.9
				c-0.267-0.133-0.5-0.2-0.7-0.2c0.066,0.033,0.45,0.316,1.15,0.85c0.466,0.333,0.867,0.583,1.2,0.75c0.2,0,0.317,0.05,0.35,0.15
				c0.034,0,0.05,0.066,0.05,0.2l-0.4,0.05c-0.5-0.434-0.883-0.7-1.15-0.8c-0.867-0.566-1.583-0.917-2.15-1.05
				C10.167,7,9.533,6.7,8.6,6.2L8.15,5.95L8.1,5.9C7.967,5.8,7.917,5.65,7.95,5.45l0.4,0.35v0.05H8.4
				c0.267,0.267,0.534,0.433,0.8,0.5C9.434,6.45,9.833,6.467,10.4,6.4z"/>
			<path style="fill-rule:evenodd;clip-rule:evenodd;fill:#60521A;" d="M6.1,7.95c-0.167-0.1-0.3-0.233-0.4-0.4l-0.1-0.2l0.6-0.7
				c-0.067,0.434,0.283,0.8,1.05,1.1l1.3,0.4l0.25,0.1c0.134,0.2,0.55,0.4,1.25,0.6c0.6,0.167,0.9,0.3,0.9,0.4l-0.1,0.2L10.6,9.4
				l0.2,0.05c-0.133,0.1-0.366,0.133-0.7,0.1C9.733,9.517,9.517,9.5,9.45,9.5c-0.667,0-1.284-0.133-1.85-0.4L6.55,8.45L6.1,7.95z"/>
			<path style="fill-rule:evenodd;clip-rule:evenodd;fill:#60521A;" d="M10.85,4.9l0.35,0.2c0.167,0.133,0.316,0.333,0.45,0.6
				c0.1,0.167,0.217,0.417,0.35,0.75c0.131,0.235,0.348,0.443,0.65,0.625c-0.302-0.174-0.669-0.382-1.1-0.625
				c-0.466-0.333-0.783-0.667-0.95-1c0,0.4-0.05,0.633-0.15,0.7c-0.034-0.333-0.2-0.583-0.5-0.75L8.8,5.05l-0.1-0.3
				C8.167,4.783,7.517,4.667,6.75,4.4C6.25,4.1,5.867,3.9,5.6,3.8L6.65,4L6.6,4.1c0.133,0.066,0.7,0.167,1.7,0.3l2,0.35L10.85,4.9z"
				/>
			<path style="fill-rule:evenodd;clip-rule:evenodd;fill:#60521A;" d="M12.65,9.15c-0.433-0.033-0.767-0.033-1,0
				C11.35,9.117,10.967,9,10.5,8.8c0.133,0,0.617,0.017,1.45,0.05c0.566,0.033,1.033,0.1,1.4,0.2L12.65,9.15z"/>
			<path style="fill-rule:evenodd;clip-rule:evenodd;fill:#524616;" d="M3.7,4.85c-0.067-0.067-0.15-0.1-0.25-0.1L3.4,4.55L3.9,4.5
				v0.2h0.05c0.033,0.333,0.066,0.566,0.1,0.7C4.083,5.633,4.2,5.783,4.4,5.85C4.2,5.817,4.066,5.667,4,5.4
				C3.867,5.067,3.767,4.883,3.7,4.85z"/>
			<path style="fill-rule:evenodd;clip-rule:evenodd;fill:#524616;" d="M11.25,9.4l0.5,0.15l-0.9-0.1l0.1-0.2
				c0-0.1-0.3-0.233-0.9-0.4c-0.7-0.2-1.116-0.4-1.25-0.6L8.75,8.2C9.017,8.233,9.6,8.433,10.5,8.8c0.467,0.2,0.85,0.317,1.15,0.35
				C11.417,9.217,11.283,9.3,11.25,9.4z"/>
			<path style="fill-rule:evenodd;clip-rule:evenodd;fill:#524616;" d="M8.45,9.6c-0.934-0.3-1.567-0.684-1.9-1.15L7.6,9.1
				c0.566,0.267,1.183,0.4,1.85,0.4c0.066,0,0.283,0.017,0.65,0.05c0.333,0.034,0.566,0,0.7-0.1l0.35,0.05
				c0.534,0.2,0.784,0.4,0.75,0.6c0,0.133-0.3,0.2-0.9,0.2C10.3,10.2,9.45,9.967,8.45,9.6z"/>
			<path style="fill-rule:evenodd;clip-rule:evenodd;fill:#524616;" d="M10.45,6.25L10.3,6.2l0.15-0.05c0.1-0.066,0.15-0.3,0.15-0.7
				c0.167,0.333,0.483,0.667,0.95,1c1.3,0.733,1.983,1.117,2.05,1.15l0.45,0.2l-0.2,0.05l-1.7-0.7
				C11.417,6.683,10.85,6.383,10.45,6.25z"/>
			<path style="fill-rule:evenodd;clip-rule:evenodd;fill:#524616;" d="M12.65,9.15L14.2,8.9c0.066,0.5,0.033,0.817-0.1,0.95h-0.35
				l-1.1-0.25c-0.4,0-0.7-0.017-0.9-0.05l-0.5-0.15c0.033-0.1,0.167-0.183,0.4-0.25C11.883,9.117,12.217,9.117,12.65,9.15z"/>
			<path style="fill-rule:evenodd;clip-rule:evenodd;fill:#524616;" d="M13.85,7.85l0.2-0.05c0.333-0.1,0.55-0.25,0.65-0.45
				c0.1-0.167,0.116-0.367,0.05-0.6V6.6l0.6,0.7C15.083,7.767,14.783,8,14.45,8C14.25,8,14.05,7.95,13.85,7.85z"/>
			<path style="fill-rule:evenodd;clip-rule:evenodd;fill:#423911;" d="M12.15,7.15l1.7,0.7c0.2,0.1,0.4,0.15,0.6,0.15
				c0.333,0,0.633-0.233,0.9-0.7c0.7,0.9,0.867,1.667,0.5,2.3l-0.4,1.35L11,10.3c0.6,0,0.9-0.066,0.9-0.2
				c0.034-0.2-0.216-0.4-0.75-0.6l0.6,0.05c0.2,0.034,0.5,0.05,0.9,0.05l1.1,0.25h0.35c0.133-0.133,0.167-0.45,0.1-0.95
				c0-0.133-0.017-0.2-0.05-0.2C14.117,8.6,14,8.55,13.8,8.55c-0.333-0.167-0.733-0.417-1.2-0.75c-0.7-0.533-1.083-0.816-1.15-0.85
				C11.65,6.95,11.883,7.017,12.15,7.15z"/>
			<path style="fill-rule:evenodd;clip-rule:evenodd;fill:#423911;" d="M3.9,4.5L3.4,4.55l0.1-0.9L3.8,3.6h0.05
				C3.816,3.867,3.917,4.333,4.15,5c0.167,0.267,0.267,0.483,0.3,0.65L4.4,5.85C4.2,5.783,4.083,5.633,4.05,5.4
				c-0.033-0.133-0.066-0.367-0.1-0.7L3.9,4.5z"/>
			<path style="fill-rule:evenodd;clip-rule:evenodd;fill:#423911;" d="M6.15,4.3C5.717,4,5.483,3.833,5.45,3.8H5.6
				c0.267,0.1,0.65,0.3,1.15,0.6C7.517,4.667,8.167,4.783,8.7,4.75L8.85,5.2L7.2,4.75L6.15,4.3z"/>
			<path style="fill-rule:evenodd;clip-rule:evenodd;fill:#7A6928;" d="M4.3,4.1l0.05-0.4L4.7,3.75L4.9,4H4.75
				c-0.167,0.167-0.3,0.233-0.4,0.2L4.3,4.1z"/>
			<path style="fill-rule:evenodd;clip-rule:evenodd;fill:#7A6928;" d="M4.25,4.4c-0.1-0.333-0.1-0.55,0-0.65L4.3,4.1
				C4.233,4.6,4.383,4.817,4.75,4.75h0.5L5.7,5.1l0.05,0.05L4.9,5.3C4.8,5.3,4.667,5.2,4.5,5C4.4,4.867,4.316,4.667,4.25,4.4z"/>
			<path style="fill-rule:evenodd;clip-rule:evenodd;fill:#7A6928;" d="M11.4,7.95L9.85,7.5c-0.867-0.3-1.5-0.517-1.9-0.65
				c-0.3-0.067-0.5-0.184-0.6-0.35l-0.1-0.25h0.1l1.4,0.7l0.9,0.3c0.133,0.048,0.258,0.099,0.375,0.15
				C9.623,7.167,9.314,6.967,9.1,6.8L8.65,6.45C9.217,6.783,9.583,6.967,9.75,7c0.233,0.1,0.617,0.217,1.15,0.35
				C11.367,7.483,11.667,7.7,11.8,8C11.733,8.033,11.6,8.017,11.4,7.95z"/>
			<path style="fill-rule:evenodd;clip-rule:evenodd;fill:#7A6928;" d="M8.4,5.85H8.35V5.8C8.45,5.5,8.7,5.35,9.1,5.35l1.15,0.5
				C10.117,6.017,9.5,6.017,8.4,5.85z"/>
			<path style="fill-rule:evenodd;clip-rule:evenodd;fill:#7A6928;" d="M10.75,4.5l0.6,0.2c0.167,0.1,0.417,0.25,0.75,0.45
				c0.267,0.167,0.517,0.233,0.75,0.2c0.633,0.3,1.167,0.633,1.6,1l0.05,0.1v0.2c-0.133,0.033-0.533-0.083-1.2-0.35
				c-0.6-0.233-0.933-0.25-1-0.05c-0.066-0.067-0.116-0.183-0.15-0.35C12.083,5.7,12.033,5.567,12,5.5
				c-0.066-0.1-0.333-0.267-0.8-0.5l-0.9-0.25l-2-0.35c-1-0.133-1.566-0.233-1.7-0.3L6.65,4L6.8,3.85H7L6.9,3.9
				C6.934,4,7.1,4.1,7.4,4.2c0.167,0.033,0.383,0.083,0.65,0.15c0.267,0.066,0.717,0.066,1.35,0L10.75,4.5z"/>
			<path style="fill-rule:evenodd;clip-rule:evenodd;fill:#907C2F;" d="M10.025,7.4C9.908,7.349,9.783,7.298,9.65,7.25l-0.9-0.3
				l-1.4-0.7h-0.1L6.8,6.05L7.1,5.7L6.5,5.85L5.7,5.1L5.25,4.75h-0.5C4.383,4.817,4.233,4.6,4.3,4.1l0.05,0.1
				c0.1,0.033,0.233-0.034,0.4-0.2H4.9c0.233,0.033,0.65,0.25,1.25,0.65l1.25,0.7L8.1,5.9l0.55,0.55L9.1,6.8
				C9.314,6.967,9.623,7.167,10.025,7.4z"/>
			<path style="fill-rule:evenodd;clip-rule:evenodd;fill:#907C2F;" d="M8.05,4.35C7.783,4.283,7.566,4.233,7.4,4.2
				C7.1,4.1,6.934,4,6.9,3.9L7,3.85c1.267,0.066,2.517,0.283,3.75,0.65L9.4,4.35C8.767,4.417,8.316,4.417,8.05,4.35z"/>
			<path style="fill-rule:evenodd;clip-rule:evenodd;fill:#907C2F;" d="M12.85,5.35c-0.233,0.033-0.483-0.033-0.75-0.2
				c-0.333-0.2-0.583-0.35-0.75-0.45C12.15,5,12.65,5.217,12.85,5.35z"/>
		</g>
		<path style="fill-rule:evenodd;clip-rule:evenodd;fill:#6B5C1D;" d="M21.5,1.1l-0.05,1.15C20.217,3.383,19.434,4.167,19.1,4.6
			c-0.267,0.333-0.55,0.833-0.85,1.5c-0.333,0.7-0.5,1.2-0.5,1.5c0,0.267,0.134,0.683,0.4,1.25l0.8,1.65
			c-0.101,0.267-0.283,0.483-0.55,0.65c-0.567,0.367-1.301,0.4-2.2,0.1c-0.333-0.1-0.6-0.283-0.8-0.55l-0.2-0.35l0.65-2.85
			c0.2-0.833,0.4-1.417,0.6-1.75c0.267-0.467,0.816-1.133,1.649-2c0.601-0.6,1.167-1.167,1.7-1.7c0.267-0.333,0.417-0.767,0.45-1.3
			c0.033-0.467,0.333-0.7,0.9-0.7c0.3,0,0.699,0.017,1.199,0.05C22.684,0.033,23.3,0,24.2,0L21.5,1.1z"/>
		<g>
			<path style="fill-rule:evenodd;clip-rule:evenodd;fill:#60521A;" d="M20.1,1.55c0.101-0.2,0.15-0.466,0.15-0.8
				c0.033-0.4,0.267-0.633,0.7-0.7c0.1,0,0.45,0.017,1.05,0.05c-0.267,0.133-0.533,0.333-0.8,0.6
				c-0.233,0.167-0.384,0.417-0.45,0.75c-0.033,0.4-0.083,0.7-0.15,0.9L20.45,2.7L18.9,4.15c-0.601,0.567-1.067,1.133-1.4,1.7
				L17.45,6c0.033-0.133,0.083-0.35,0.149-0.65c0.034-0.133,0.2-0.417,0.5-0.85l0.801-1c0.066-0.067,0.267-0.233,0.6-0.5
				c0.267-0.233,0.45-0.433,0.55-0.6C20.117,2.167,20.134,1.883,20.1,1.55z"/>
			<path style="fill-rule:evenodd;clip-rule:evenodd;fill:#60521A;" d="M16.5,6.65l-0.15,0.5c-0.366,1-0.466,1.617-0.3,1.85h0.05
				c-0.066,0.5-0.116,0.867-0.149,1.1c0,0.3-0.034,0.5-0.1,0.6c-0.067,0.1-0.184,0.15-0.35,0.15l-0.3-0.5l0.65-2.85V7.45l0.05,0.1
				L16.5,6.65z"/>
			<path style="fill-rule:evenodd;clip-rule:evenodd;fill:#60521A;" d="M17,8.75l0.1-0.1l0.15,1.5c0.033,0.167,0,0.35-0.1,0.55
				c-0.134,0.2-0.301,0.283-0.5,0.25l-0.2-0.25c-0.033-0.267-0.066-0.633-0.101-1.1l-0.1,0.3c-0.066-0.4-0.066-0.816,0-1.25
				l0.05-0.4C16.4,8.783,16.634,8.95,17,8.75z"/>
			<path style="fill-rule:evenodd;clip-rule:evenodd;fill:#524616;" d="M16.65,10.95c0.199,0.033,0.366-0.05,0.5-0.25
				c0.1-0.2,0.133-0.383,0.1-0.55l-0.15-1.5V8c0.167,0.767,0.25,1.367,0.25,1.8c0.167,0.833,0.184,1.383,0.051,1.65
				c-0.367,0-0.667-0.034-0.9-0.1l-0.05-0.55v-0.1L16.65,10.95z"/>
			<path style="fill-rule:evenodd;clip-rule:evenodd;fill:#524616;" d="M15.5,10.85c0.167,0,0.283-0.05,0.35-0.15
				c0.066-0.1,0.1-0.3,0.1-0.6C15.983,9.867,16.033,9.5,16.1,9V8.9l0.15-0.75v0.5c-0.066,0.434-0.066,0.85,0,1.25
				c-0.1,0.233-0.184,0.667-0.25,1.3L15.5,10.85z"/>
			<path style="fill-rule:evenodd;clip-rule:evenodd;fill:#524616;" d="M20.75,1.45c0.066-0.333,0.217-0.583,0.45-0.75
				c0.267-0.267,0.533-0.467,0.8-0.6h0.35C22.684,0.033,23.3,0,24.2,0l-2.95,1c-0.167,0.1-0.267,0.217-0.3,0.35v0.5
				c-0.033,0.3-0.134,0.517-0.3,0.65l-0.2,0.2L20.6,2.35C20.667,2.15,20.717,1.85,20.75,1.45z"/>
			<path style="fill-rule:evenodd;clip-rule:evenodd;fill:#423911;" d="M23.7,0.2l-2.2,0.9l-0.05,1.15
				C20.217,3.383,19.434,4.167,19.1,4.6c-0.267,0.333-0.55,0.833-0.85,1.5c-0.333,0.7-0.5,1.2-0.5,1.5c0,0.267,0.134,0.683,0.4,1.25
				l0.8,1.65c-0.267,0.6-0.783,0.917-1.55,0.95c0.133-0.267,0.116-0.817-0.051-1.65c0-0.433-0.083-1.033-0.25-1.8V7.9
				c0-0.7,0.117-1.333,0.351-1.9l0.05-0.15c0.333-0.567,0.8-1.133,1.4-1.7l1.75-1.65c0.166-0.133,0.267-0.35,0.3-0.65v-0.5
				c0.033-0.133,0.133-0.25,0.3-0.35L23.7,0.2z"/>
			<path style="fill-rule:evenodd;clip-rule:evenodd;fill:#423911;" d="M16.5,11.35L16,11.2c0.066-0.633,0.15-1.067,0.25-1.3
				l0.1-0.3c0.034,0.467,0.067,0.833,0.101,1.1v0.1L16.5,11.35z"/>
		</g>
		<path style="fill-rule:evenodd;clip-rule:evenodd;fill:#524616;" d="M19.6,18.475c0.057,0.12,0.123,0.229,0.2,0.325
			c0.101,0.1,0.267,0.217,0.5,0.351c0.101,0.166,0.15,0.5,0.15,1c0.033,0.767,0.033,1.316,0,1.649c-0.066,0.601-0.367,1-0.9,1.2
			c-1.233,0.434-1.899,0.083-2-1.05v-1.5c0-0.334,0.05-0.8,0.15-1.4c0.434-0.033,0.7-0.017,0.8,0.05
			c0.134,0.067,0.233,0.284,0.3,0.65c0.101,0.333,0.15,0.6,0.15,0.8c0.033,0.367-0.05,0.566-0.25,0.601c0-0.601-0.134-0.9-0.4-0.9
			c-0.333,0-0.5,0.3-0.5,0.9c0,0.5,0.15,0.8,0.45,0.899c0.3,0.101,0.617-0.033,0.95-0.399c0.566-0.7,0.767-1.45,0.6-2.25
			C19.727,19.08,19.66,18.771,19.6,18.475z M19.3,17c-0.233-1.272-0.35-2.272-0.35-3l0.35,1.75C19.3,16.321,19.3,16.738,19.3,17z"/>
		<path style="fill-rule:evenodd;clip-rule:evenodd;fill:#524616;" d="M8.35,26.05c-0.1,0.434-0.417,1.3-0.95,2.601
			c-0.159,0.476-0.233,1.15-0.225,2.024L7.1,30.75c-0.133-0.267-0.2-0.65-0.2-1.15c0-0.267,0.017-0.666,0.05-1.199
			c0-0.4,0.017-0.684,0.05-0.851c0.066-0.166,0.217-0.399,0.45-0.7c0.3-0.366,0.5-0.949,0.6-1.75c0.067-0.866,0.233-1.466,0.5-1.8
			c0.034,0.134,0,0.533-0.1,1.2C8.45,25.2,8.417,25.717,8.35,26.05z M7.2,30.65l0.85,2.75c-0.533,0.1-0.816-0.567-0.85-2
			c-0.014-0.256-0.022-0.498-0.025-0.726L7.2,30.65z"/>
		<path style="fill-rule:evenodd;clip-rule:evenodd;fill:#524616;" d="M10.1,13.9l3.35-2.25c-0.1,0.167-0.317,0.417-0.65,0.75
			c-0.433,0.434-0.667,0.667-0.7,0.7l-1.4,1.7c-0.667,0.833-1.1,1.333-1.3,1.5l-0.7,1c-0.367,0.5-0.8,1.284-1.3,2.351
			c-0.267,0.6-0.483,0.933-0.65,1c-0.167,0.1-0.434-0.067-0.8-0.5c-0.233-0.267-0.384-0.467-0.45-0.601
			c-0.133-0.166-0.2-0.383-0.2-0.65c0-0.533,0.083-0.983,0.25-1.35c-0.066,0.667,0.1,1.2,0.5,1.601c0.267-0.167,0.634-0.567,1.1-1.2
			c0.1-0.167,0.3-0.45,0.6-0.85c0.267-0.333,0.45-0.617,0.55-0.85c0.167-0.3,0.333-0.767,0.5-1.4C8.9,14.717,9.333,14.4,10.1,13.9z"
			/>
		<path style="fill-rule:evenodd;clip-rule:evenodd;fill:#423911;" d="M13.55,11.25L15.8,11c-0.767,0.167-1.333,0.433-1.7,0.8
			c-0.733,0.667-1.367,1.317-1.9,1.95c-1,0.733-1.717,1.317-2.15,1.75c-0.533,0.633-0.95,1.1-1.25,1.4
			c-0.5,0.533-0.983,0.9-1.45,1.1c0.4-0.4,0.783-0.967,1.15-1.7l1.1-1.65c0.3-0.467,0.716-0.967,1.25-1.5
			c0.767-0.8,1.167-1.217,1.2-1.25C12.617,11.367,13.117,11.15,13.55,11.25z"/>
		<path style="fill-rule:evenodd;clip-rule:evenodd;fill:#423911;" d="M17.95,12.9l0.6-0.5v2.4C18.5,14.308,18.3,13.675,17.95,12.9z
			"/>
		<path style="fill-rule:evenodd;clip-rule:evenodd;fill:#423911;" d="M19.8,20.45c0-0.2,0.05-0.351,0.15-0.45l0.1-0.35
			c0,0.866-0.017,1.366-0.05,1.5c-0.066,0.566-0.333,0.899-0.8,1c-0.58,0.11-1.03-0.031-1.351-0.426
			c0.21,0.091,0.609,0.017,1.2-0.225c0.367-0.2,0.584-0.4,0.65-0.6C19.733,20.833,19.767,20.684,19.8,20.45z"/>
		<path style="fill-rule:evenodd;clip-rule:evenodd;fill:#907C2F;" d="M19.1,24c-0.633-0.167-0.982-0.45-1.05-0.85
			c0.2,0,0.483,0,0.851,0c0.3-0.034,0.566-0.117,0.8-0.25c0.3-0.167,0.533-0.367,0.7-0.601c0.166-0.333,0.1-0.6-0.2-0.8l0.25-0.85
			c0.033,0.666,0.05,1.166,0.05,1.5c0,0.666-0.066,1.166-0.2,1.5C20.1,24.05,19.7,24.167,19.1,24z"/>
		<path style="fill-rule:evenodd;clip-rule:evenodd;fill:#907C2F;" d="M18.3,20.8L17.7,20.9C17.566,20.5,17.667,20.3,18,20.3
			c0.367-0.033,0.517,0.167,0.45,0.601h0.1L18.6,21c0.213,0.03,0.354-0.128,0.426-0.475c-0.054,0.304-0.096,0.546-0.125,0.725
			C18.5,21.417,18.3,21.267,18.3,20.8z"/>
	</g>
	<g>
		
			<use xlink:href="#FlashAICB_x2F_Layer_113_x2F__x3C_Group_x3E__x5F_1"  width="31.959" height="31.8" x="-0.023" y="-31.8" transform="matrix(1 0 0 -1 0.2998 4.6001)" style="overflow:visible;opacity:0.1719;enable-background:new    ;"/>
		
			<use xlink:href="#FlashAICB_x2F_Layer_113_x2F__x3C_Group_x3E_"  width="31.959" height="31.8" x="-0.023" y="-31.8" transform="matrix(1 0 0 -1 0.2998 4.6001)" style="overflow:visible;enable-background:new    ;"/>
	</g>
	<g>
		
			<use xlink:href="#FlashAICB_x2F_Layer_113_x2F__x3C_Path_x3E_"  width="32.173" height="36.55" x="0.05" y="-36.55" transform="matrix(1 0 0 -1 0 0)" style="overflow:visible;enable-background:new    ;"/>
	</g>
</g>
</svg>
