<?xml version="1.0" encoding="iso-8859-1"?>
<!-- Generator: Adobe Illustrator 15.1.0, SVG Export Plug-In . SVG Version: 6.00 Build 0)  -->
<!DOCTYPE svg PUBLIC "-//W3C//DTD SVG 1.1//EN" "http://www.w3.org/Graphics/SVG/1.1/DTD/svg11.dtd">
<svg version="1.1" id="FlashAICB" xmlns="http://www.w3.org/2000/svg" xmlns:xlink="http://www.w3.org/1999/xlink" x="0px" y="0px"
	 width="20.6px" height="21.4px" viewBox="0 0 20.6 21.4" style="enable-background:new 0 0 20.6 21.4;" xml:space="preserve">
<symbol  id="FlashAICB_x2F_Layer_63_x2F__x3C_Path_x3E_" viewBox="-0.012 -0.55 0.662 0.56">
	<g id="Layer_1_19_">
		<path style="fill-rule:evenodd;clip-rule:evenodd;fill:#909BCB;" d="M0.65,0l-0.1-0.5C0.517-0.533,0.333-0.55,0-0.55
			c-0.033,0.167,0,0.3,0.1,0.4C0.233-0.017,0.367,0.033,0.5,0H0.65z"/>
	</g>
</symbol>
<symbol  id="FlashAICB_x2F_Layer_63_x2F__x3C_Path_x3E__x5F_1" viewBox="-0.004 -0.85 1.412 0.85">
	<g id="Layer_1_18_">
		<path style="fill-rule:evenodd;clip-rule:evenodd;fill:#909BCB;" d="M0.55-0.1L1,0c0.2-0.067,0.333-0.167,0.4-0.3
			c0.033-0.133-0.033-0.25-0.2-0.35c-0.167-0.133-0.4-0.2-0.7-0.2C0.133-0.85-0.033-0.767,0-0.6C0.067-0.333,0.25-0.167,0.55-0.1z"
			/>
	</g>
</symbol>
<symbol  id="FlashAICB_x2F_Layer_63_x2F__x3C_Path_x3E__x5F_10" viewBox="0.017 -3.95 9.133 3.95">
	<g id="Layer_1_9_">
		<path style="fill-rule:evenodd;clip-rule:evenodd;fill:#909BCB;" d="M7.95-1.75C8.05-1.817,8.133-1.933,8.2-2.1l0.4-0.6
			c0.066-0.267,0.133-0.433,0.2-0.5l0.35-0.25L7.3-3.95l-0.05,0.8C7.083-2.683,6.8-2.383,6.4-2.25C6.167-2.183,5.7-2.233,5-2.4
			C3.6-2.667,2.267-2.517,1-1.95C0.6-1.783,0.283-1.6,0.05-1.4C-0.017-0.9,0.017-0.433,0.15,0L0.8-0.5
			c0.233-0.133,0.567-0.333,1-0.6c0.233-0.133,0.784-0.233,1.65-0.3c0.4-0.067,0.767-0.05,1.1,0.05c0.267,0.067,0.667,0.1,1.2,0.1
			c0.567,0.067,0.95,0.067,1.15,0L7.25-1.5C7.417-1.567,7.65-1.65,7.95-1.75z"/>
	</g>
</symbol>
<symbol  id="FlashAICB_x2F_Layer_63_x2F__x3C_Path_x3E__x5F_11" viewBox="0 -7.65 5.3 7.65">
	<g id="Layer_1_8_">
		<path style="fill-rule:evenodd;clip-rule:evenodd;fill:#909BCB;" d="M5.3-4.4L5.15-4.05c-0.5,0.867-1.2,1.283-2.1,1.25
			c-0.867-0.067-1.4-0.417-1.6-1.05c-0.233-0.8-0.267-1.483-0.1-2.05C1.45-6.3,1.7-6.467,2.1-6.4c0.533,0,0.8,0.2,0.8,0.6
			C3-5.267,2.95-4.95,2.75-4.85S2.367-4.783,2.2-4.95c-0.067-0.033-0.1-0.167-0.1-0.4c-0.2,0.1-0.2,0.4,0,0.9
			C2.2-4.183,2.383-3.967,2.65-3.8c0.267,0.133,0.533,0.167,0.8,0.1c0.267-0.066,0.466-0.216,0.6-0.45
			c0.1-0.233,0.117-0.667,0.05-1.3C4.033-5.983,3.933-6.367,3.8-6.6C3.667-6.867,3.3-7.167,2.7-7.5C2.533-7.567,2.183-7.6,1.65-7.6
			C1.417-7.633,1.233-7.65,1.1-7.65c-0.233,0-0.417,0.05-0.55,0.15c-0.2,0.133-0.367,0.467-0.5,1c-0.066,0.5-0.066,1,0,1.5
			c0,0.533,0.083,0.967,0.25,1.3C0.8-2.967,1.183-2.4,1.45-2C1.983-1.367,2.4-0.917,2.7-0.65C3.233-0.217,3.767,0,4.3,0
			c0.3,0,0.517-0.083,0.65-0.25L5.3-4.4z"/>
	</g>
</symbol>
<symbol  id="FlashAICB_x2F_Layer_63_x2F__x3C_Path_x3E__x5F_12">
	<g id="Layer_1_7_">
	</g>
</symbol>
<symbol  id="FlashAICB_x2F_Layer_63_x2F__x3C_Path_x3E__x5F_13">
	<g id="Layer_1_6_">
	</g>
</symbol>
<symbol  id="FlashAICB_x2F_Layer_63_x2F__x3C_Path_x3E__x5F_14">
	<g id="Layer_1_5_">
	</g>
</symbol>
<symbol  id="FlashAICB_x2F_Layer_63_x2F__x3C_Path_x3E__x5F_15">
	<g id="Layer_1_4_">
	</g>
</symbol>
<symbol  id="FlashAICB_x2F_Layer_63_x2F__x3C_Path_x3E__x5F_16" viewBox="0 -7.65 9.2 7.6">
	<g id="Layer_1_3_">
		<path style="fill-rule:evenodd;clip-rule:evenodd;fill:#D57C64;" d="M5.5-1.55C5.767-1.383,6.117-1.1,6.55-0.7L7.3-0.25l0.95,0.2
			H9.2c-0.2-0.034-0.534-0.167-1-0.4l-1-0.4c-0.167-0.066-0.6-0.367-1.3-0.9c-0.633-0.5-1.117-1.133-1.45-1.9
			c-0.133-0.3-0.2-0.617-0.2-0.95c0-0.5,0.017-0.8,0.05-0.9c0.067-0.167,0.333-0.567,0.8-1.2c0.133-0.167,0.333-0.333,0.6-0.5
			L3.65-7.65L3.6-7.6c-0.133,0.233-0.184,0.567-0.15,1C3.483-5.933,3.5-5.583,3.5-5.55C3.467-5.283,3.233-4.9,2.8-4.4
			c-0.4,0.467-0.733,0.717-1,0.75C1.5-3.617,0.9-3.717,0-3.95L0.4-3.4l0.05,0.05l0.9,1.25c0.3,0.333,0.5,0.617,0.6,0.85H2
			C2.133-1.417,2.317-1.667,2.55-2C2.65-2.1,2.9-2.15,3.3-2.15c0.534,0,0.85,0.017,0.95,0.05C4.417-2.067,4.833-1.883,5.5-1.55z"/>
	</g>
</symbol>
<symbol  id="FlashAICB_x2F_Layer_63_x2F__x3C_Path_x3E__x5F_17" viewBox="0 -3.87 7.45 3.87">
	<g id="Layer_1_2_">
		<path style="fill-rule:evenodd;clip-rule:evenodd;fill:#D57C64;" d="M6.05-0.9L6.7-0.55C6.767-0.483,6.883-0.433,7.05-0.4
			l0.4,0.35l-0.2-0.4v0.05L6.6-1.3L6.55-1.35l-1.3-1.8L4.8-3.6C4.6-3.767,4.283-3.85,3.85-3.85c-1.3-0.066-2.2,0.033-2.7,0.3
			C0.65-3.283,0.267-2.967,0-2.6l0.05,0.1C0.517-1.833,1.017-1,1.55,0c0.067-0.333,0.2-0.6,0.4-0.8C2.317-1.133,3.133-1.3,4.4-1.3
			C4.9-1.3,5.45-1.167,6.05-0.9z"/>
	</g>
</symbol>
<symbol  id="FlashAICB_x2F_Layer_63_x2F__x3C_Path_x3E__x5F_2" viewBox="-0.015 -0.945 1.515 0.945">
	<g id="Layer_1_17_">
		<path style="fill-rule:evenodd;clip-rule:evenodd;fill:#909BCB;" d="M0.45-0.15L1.2,0c0.066-0.067,0.15-0.133,0.25-0.2
			c0.066-0.066,0.066-0.167,0-0.3C1.35-0.667,1.133-0.8,0.8-0.9C0.3-1,0.033-0.933,0-0.7C-0.067-0.4,0.083-0.217,0.45-0.15z"/>
	</g>
</symbol>
<symbol  id="FlashAICB_x2F_Layer_63_x2F__x3C_Path_x3E__x5F_3" viewBox="0.006 -1.1 1.274 1.104">
	<g id="Layer_1_16_">
		<path style="fill-rule:evenodd;clip-rule:evenodd;fill:#909BCB;" d="M0.3-1.1c-0.333,0.033-0.383,0.233-0.15,0.6
			c0.2,0.367,0.434,0.533,0.7,0.5L1.2-0.2c0.133-0.1,0.1-0.316-0.1-0.65C0.967-1.017,0.7-1.1,0.3-1.1z"/>
	</g>
</symbol>
<symbol  id="FlashAICB_x2F_Layer_63_x2F__x3C_Path_x3E__x5F_4" viewBox="0 -7.35 8.946 7.35">
	<g id="Layer_1_15_">
		<path style="fill-rule:evenodd;clip-rule:evenodd;fill:#D57C64;" d="M6.5-0.05C7.433-0.217,8.15-0.967,8.65-2.3
			c0.5-1.3,0.367-2.167-0.4-2.6c-1.5-0.767-3.1-1.3-4.8-1.6L0.1-7.35c-0.033,0.033-0.033,0.133,0,0.3c0.1,0.233,0.316,0.4,0.65,0.5
			c0.4,0.1,0.667,0.183,0.8,0.25c0.467,0.167,0.733,0.25,0.8,0.25l0.7,0.15l1.2,0.1c0.8,0.066,1.533,0.283,2.2,0.65
			C6.783-4.917,6.9-4.617,6.8-4.25C6.6-3.483,6.067-3.067,5.2-3C4.833-2.967,4.383-3.033,3.85-3.2C3.283-3.433,2.867-3.6,2.6-3.7
			C1.767-3.967,1.3-4.133,1.2-4.2C0.667-4.433,0.267-4.717,0-5.05C0.133-4.683,0.233-4.467,0.3-4.4
			c0.034,0.066,0.383,0.383,1.05,0.95c0.267,0.2,0.9,0.517,1.9,0.95C3.983-2.2,4.7-1.95,5.4-1.75c0.6,0.133,0.9,0.3,0.9,0.5
			C6.333-0.95,6.117-0.8,5.65-0.8c-0.233,0-0.4,0-0.5,0C4.983-0.767,4.933-0.65,5-0.45C5.067-0.217,5.25-0.067,5.55,0
			C5.983,0,6.3-0.017,6.5-0.05z"/>
	</g>
</symbol>
<symbol  id="FlashAICB_x2F_Layer_63_x2F__x3C_Path_x3E__x5F_5">
	<g id="Layer_1_14_">
	</g>
</symbol>
<symbol  id="FlashAICB_x2F_Layer_63_x2F__x3C_Path_x3E__x5F_6">
	<g id="Layer_1_13_">
	</g>
</symbol>
<symbol  id="FlashAICB_x2F_Layer_63_x2F__x3C_Path_x3E__x5F_7" viewBox="0 -2.417 1.75 2.417">
	<g id="Layer_1_12_">
		<path style="fill-rule:evenodd;clip-rule:evenodd;fill:#D57C64;" d="M0.6-1.15C0.667-0.883,0.7-0.5,0.7,0
			c0.233-1.133,0.4-1.85,0.5-2.15L1.75-2.1C1.517-2.2,1.1-2.283,0.5-2.35C0.233-2.417,0.067-2.433,0-2.4v0.05l0.4,0.7L0.6-1.15z"/>
	</g>
</symbol>
<symbol  id="FlashAICB_x2F_Layer_63_x2F__x3C_Path_x3E__x5F_8" viewBox="0 -2.489 5.55 2.489">
	<g id="Layer_1_11_">
		<path style="fill-rule:evenodd;clip-rule:evenodd;fill:#D57C64;" d="M5.25-0.8l0.3-1.5C5.25-2.233,4.8-2.2,4.2-2.2
			c-0.5-0.3-0.833-0.367-1-0.2C3.133-2.333,3.083-2.233,3.05-2.1c-0.033,0.2-0.066,0.317-0.1,0.35c-0.233,0.4-0.784,0.767-1.65,1.1
			C1.033-0.55,0.633-0.5,0.1-0.5H0l0.45,0.45L1.15,0c0.267-0.033,0.7-0.083,1.3-0.15c0.167-0.067,0.333-0.2,0.5-0.4
			C3.15-0.75,3.3-0.867,3.4-0.9C3.6-1,3.9-0.983,4.3-0.85C4.533-0.817,4.85-0.8,5.25-0.8z"/>
	</g>
</symbol>
<symbol  id="FlashAICB_x2F_Layer_63_x2F__x3C_Path_x3E__x5F_9" viewBox="0 -2.106 5.9 2.106">
	<g id="Layer_1_10_">
		<path style="fill-rule:evenodd;clip-rule:evenodd;fill:#D57C64;" d="M5.9-2v-0.1C5.267-2.133,4.433-2.017,3.4-1.75
			c-1.033,0.333-1.733,0.533-2.1,0.6C0.767-1.05,0.333-0.667,0,0l0.15-0.05C0.583-0.283,0.9-0.433,1.1-0.5l1.3-0.45
			C3.233-1.25,3.983-1.4,4.65-1.4C5.35-1.4,5.767-1.6,5.9-2z"/>
	</g>
</symbol>
<g>
	<g>
		<path style="fill-rule:evenodd;clip-rule:evenodd;fill:#E4D5B1;" d="M0.7,16.2C1.233,15.467,2.017,14.1,3.05,12.1
			C4.15,10,4.983,8.533,5.55,7.7C6.15,6.833,7.1,5.333,8.4,3.2c1.167-1.767,2.2-2.8,3.1-3.1c0.866-0.267,1.9,0.05,3.1,0.95
			c0.434,1.6,0.733,3.5,0.9,5.7c0.2,3.067,0.467,5.066,0.8,6c0.667-0.1,1.283-0.1,1.851,0C19.083,12.917,19.8,13.667,20.3,15
			c0.5,1.3,0.367,2.167-0.399,2.6C18.4,18.366,16.8,18.9,15.1,19.2L10,20.45c-1.333,0.467-2.517,0.783-3.55,0.95
			c-0.633,0.066-1.5-0.034-2.6-0.301c-1.133-0.366-1.883-0.583-2.25-0.649C0.934,20.316,0.467,19.833,0.2,19
			C-0.133,18.1,0.033,17.167,0.7,16.2z"/>
		<g>
			<path style="fill-rule:evenodd;clip-rule:evenodd;fill:#C4B698;" d="M7.15,18.75C6.717,18.583,6.7,18,7.1,17
				c0.2-0.533,0.55-1.283,1.05-2.25c0.333-0.767,0.55-1.6,0.65-2.5l0.5-0.9c0.333-0.366,0.851-0.883,1.55-1.55
				c0.967-0.867,1.65-1.35,2.051-1.45c0.6-0.133,1.1,0.1,1.5,0.7c0.399,0.633,0.267,1.317-0.4,2.05c-1.1,1.134-1.917,2-2.45,2.601
				c-0.967,1.033-1.6,1.883-1.9,2.55C8.75,18.184,7.917,19.017,7.15,18.75z"/>
			<path style="fill-rule:evenodd;clip-rule:evenodd;fill:#C4B698;" d="M6.65,15.5l0.7-0.9L5.4,17.75
				C4.733,18.884,3.684,19.3,2.25,19c-1.066-0.2-1.75-0.8-2.05-1.8c0.133-0.4,0.3-0.733,0.5-1l0.55-0.8L1.6,16
				c0.367,0.5,0.967,0.767,1.8,0.8c0.733,0.033,1.4-0.1,2-0.399C6.033,16.1,6.45,15.8,6.65,15.5z"/>
			<path style="fill-rule:evenodd;clip-rule:evenodd;fill:#C4B698;" d="M12.9,16.4c1.066-0.301,2.033-0.667,2.899-1.101l0.851-0.45
				c-0.2,0.2-0.2,0.25,0,0.15c0.233-0.1,0.583-0.116,1.05-0.05c0.533,0.1,0.85,0.316,0.95,0.649c0.3,0.934,0.166,1.717-0.4,2.351
				c0.1-0.167,0.15-0.367,0.15-0.601c0-0.267-0.084-0.466-0.25-0.6c-0.134-0.066-0.367-0.083-0.7-0.05
				c-0.367,0.033-0.601,0.05-0.7,0.05c-0.134,0-0.583,0.083-1.35,0.25l-2.9,1.35c-0.233-0.033-0.55,0.134-0.95,0.5
				c-0.399,0.367-0.649,0.567-0.75,0.601c-0.267-0.233-0.434-0.617-0.5-1.15l0.3-1.149l0.9-0.2L12.9,16.4z"/>
			<path style="fill-rule:evenodd;clip-rule:evenodd;fill:#C4B698;" d="M11.9,4.6l0.55-0.95c-0.934,2.7-1.601,4.483-2,5.35l0.3-0.9
				c0.033-0.067,0.2-0.667,0.5-1.8C11.417,5.6,11.634,5.033,11.9,4.6z"/>
			<path style="fill-rule:evenodd;clip-rule:evenodd;fill:#C4B698;" d="M13.45,1.05v0.2L13.1,2.05c-0.5-0.433-1.149-0.733-1.949-0.9
				C11.05,1.117,10.684,1.1,10.05,1.1c0.367-0.367,0.75-0.65,1.15-0.85C12.6,0.35,13.35,0.617,13.45,1.05z"/>
			<path style="fill-rule:evenodd;clip-rule:evenodd;fill:#A3987F;" d="M10.25,18c0-0.5,0.267-1.083,0.8-1.75l-0.45,0.9L10.3,18.3
				L10.25,18z"/>
			<path style="fill-rule:evenodd;clip-rule:evenodd;fill:#A3987F;" d="M6.55,18.05c-0.433,0.634-0.9,1.233-1.4,1.8
				C4.517,20.616,3.2,20.533,1.2,19.6c-0.333-0.1-0.717-0.433-1.15-1c-0.066-0.533-0.017-1,0.15-1.399c0.3,1,0.983,1.6,2.05,1.8
				c1.434,0.3,2.483-0.116,3.15-1.25l3.4-5.5c-0.1,0.9-0.316,1.733-0.65,2.5C7.65,15.717,7.3,16.467,7.1,17
				c-0.4,1-0.383,1.583,0.05,1.75c0.767,0.267,1.6-0.566,2.5-2.5c0.3-0.667,0.933-1.517,1.9-2.55C12.083,13.1,12.9,12.233,14,11.1
				c0.667-0.733,0.8-1.417,0.4-2.05c-0.4-0.6-0.9-0.833-1.5-0.7c-0.4,0.1-1.084,0.583-2.051,1.45
				c-0.699,0.667-1.216,1.184-1.55,1.55H9.25L10.45,9c0.399-0.867,1.066-2.65,2-5.35L12.5,3.5l0.95-2.25c0,0.5-0.25,1.433-0.75,2.8
				c-0.434,1.067-0.834,1.983-1.2,2.75c-0.467,1-0.65,1.483-0.55,1.45L12,6.6c0.7-1.1,1.25-1.7,1.65-1.8
				c0.733-0.167,1.233,1.4,1.5,4.7c0.1,1.8-0.117,2.917-0.65,3.35l-0.75,0.9l0.5-0.15l-1.35,0.75c-0.634,0.134-1.384,0.601-2.25,1.4
				c-0.267,0.267-0.767,1.05-1.5,2.35C8.617,19.1,8,19.634,7.3,19.7c-0.733,0.066-1.083-0.184-1.05-0.75
				C6.283,18.65,6.383,18.35,6.55,18.05z"/>
			<path style="fill-rule:evenodd;clip-rule:evenodd;fill:#A3987F;" d="M16.3,18.775c-1.772,0.488-3.105,0.797-4,0.925
				c-0.666,0.1-1.149,0.033-1.45-0.2l1.65-0.15C13.844,19.256,15.11,19.064,16.3,18.775z"/>
			<path style="fill-rule:evenodd;clip-rule:evenodd;fill:#A3987F;" d="M18,12.75c-0.033,0.434-0.366,0.967-1,1.6
				c0.434-0.733,0.616-1.283,0.55-1.649L18,12.75z"/>
			<path style="fill-rule:evenodd;clip-rule:evenodd;fill:#A3987F;" d="M19.15,16.25c-0.067,0.134-0.117,0.25-0.15,0.35
				c-0.066,0.267-0.05,0.417,0.05,0.45C19.15,16.75,19.184,16.483,19.15,16.25z M16.65,15c-0.2,0.1-0.2,0.05,0-0.15l0.3-0.5
				c0.033,0,0.217-0.05,0.55-0.149c0.434-0.066,0.9-0.066,1.4,0c0.566,0.066,0.866,0.533,0.899,1.399c0,0.867-0.184,1.351-0.55,1.45
				c-0.1,0.033-0.167,0.033-0.2,0c-0.033,0.233-0.149,0.467-0.35,0.7c-0.033,0.066-0.316,0.233-0.851,0.5l0.4-0.3
				c0.566-0.634,0.7-1.417,0.4-2.351c-0.101-0.333-0.417-0.55-0.95-0.649C17.233,14.884,16.884,14.9,16.65,15z"/>
			<path style="fill-rule:evenodd;clip-rule:evenodd;fill:#756D5B;" d="M6.25,18.95c-0.033,0.566,0.317,0.816,1.05,0.75
				C8,19.634,8.617,19.1,9.15,18.1c0.733-1.3,1.234-2.083,1.5-2.35c0.866-0.8,1.616-1.267,2.25-1.4
				c-0.367,0.301-0.75,0.667-1.15,1.101l-0.4,0.399l-0.3,0.4c-0.533,0.667-0.8,1.25-0.8,1.75l0.05,0.3
				c0.066,0.533,0.233,0.917,0.5,1.15l0.05,0.05c0.301,0.233,0.784,0.3,1.45,0.2c0.934-0.134,2.351-0.467,4.25-1l1.3-0.45
				c0.534-0.267,0.817-0.434,0.851-0.5c0.2-0.233,0.316-0.467,0.35-0.7c0.033,0.033,0.101,0.033,0.2,0
				c0.366-0.1,0.55-0.583,0.55-1.45c-0.033-0.866-0.333-1.333-0.899-1.399c-0.5-0.066-0.967-0.066-1.4,0
				c-0.242,0.072-0.409,0.122-0.5,0.149c0.634-0.633,0.967-1.166,1-1.6h0.15C19.083,12.917,19.8,13.667,20.3,15
				c0.5,1.3,0.367,2.167-0.399,2.6C18.4,18.366,16.8,18.9,15.1,19.2L10,20.45c-1.333,0.467-2.517,0.783-3.55,0.95
				c-0.633,0.066-1.5-0.034-2.6-0.301c-1.133-0.366-1.883-0.583-2.25-0.649c-0.333-0.066-0.65-0.267-0.95-0.601
				c-0.3-0.366-0.5-0.783-0.6-1.25c0.434,0.567,0.817,0.9,1.15,1c2,0.934,3.316,1.017,3.95,0.25c0.5-0.566,0.967-1.166,1.4-1.8
				C6.383,18.35,6.283,18.65,6.25,18.95z"/>
			<path style="fill-rule:evenodd;clip-rule:evenodd;fill:#756D5B;" d="M19.15,16.25c0.033,0.233,0,0.5-0.101,0.8
				c-0.1-0.033-0.116-0.184-0.05-0.45C19.033,16.5,19.083,16.384,19.15,16.25z"/>
			<path style="fill-rule:evenodd;clip-rule:evenodd;fill:#756D5B;" d="M13.45,1.05c-0.101-0.433-0.851-0.7-2.25-0.8l0.3-0.15
				c0.866-0.267,1.9,0.05,3.1,0.95c0.434,1.6,0.733,3.5,0.9,5.7c0.2,3.067,0.467,5.066,0.8,6c-0.399,0.233-0.983,0.483-1.75,0.75
				l-0.8,0.25l0.75-0.9c0.533-0.433,0.75-1.55,0.65-3.35c-0.267-3.3-0.767-4.867-1.5-4.7C13.25,4.9,12.7,5.5,12,6.6l-1.05,1.65
				C10.85,8.283,11.033,7.8,11.5,6.8c0.366-0.767,0.767-1.683,1.2-2.75c0.5-1.367,0.75-2.3,0.75-2.8V1.05z"/>
			<path style="fill-rule:evenodd;clip-rule:evenodd;fill:#F9EBCD;" d="M15.05,13.6c0.9-0.166,1.4-0.1,1.5,0.2
				c0.101,0.267-0.017,0.533-0.35,0.8c-0.233,0.2-0.733,0.384-1.5,0.551c-0.733,0.133-1.3,0.166-1.7,0.1
				c-0.366-0.066-0.267-0.316,0.3-0.75C13.833,14.033,14.417,13.733,15.05,13.6z"/>
			<path style="fill-rule:evenodd;clip-rule:evenodd;fill:#F9EBCD;" d="M3,12.25C4.167,9.983,5.017,8.467,5.55,7.7
				c0.267-0.367,0.8-1.233,1.6-2.6c0.7-1.167,1.284-2.05,1.75-2.65c0.534-0.3,0.95-0.367,1.25-0.2C10.35,2.383,10.6,2.733,10.9,3.3
				c0.267,0.6,0.166,1.483-0.301,2.65c-0.333,0.833-0.95,2-1.85,3.5c-0.733,1.2-1.55,2.166-2.45,2.899
				c-0.866,0.667-1.667,1.034-2.4,1.101C3.3,13.45,3,13.05,3,12.25z"/>
		</g>
	</g>
	<g>
		<path style="fill-rule:evenodd;clip-rule:evenodd;fill:#A3987F;" d="M11.05,19.35l2.15-1.75c1.566-1.166,2.767-1.699,3.6-1.6
			c0.934,0.134,1.334,0.483,1.2,1.05c-0.1,0.566-0.5,0.884-1.2,0.95C15.667,18.1,13.75,18.55,11.05,19.35z"/>
		<path style="fill-rule:evenodd;clip-rule:evenodd;fill:#756D5B;" d="M16.8,16c0.8,0.1,1.217,0.4,1.25,0.9
			c0,0.433-0.267,0.767-0.8,1c-0.267-0.467-0.717-0.684-1.35-0.65c-0.5,0.033-1.334,0.333-2.5,0.9L11.55,19.05L11.5,19
			c0.767-0.733,1.583-1.384,2.45-1.95C15.15,16.25,16.1,15.9,16.8,16z"/>
	</g>
	<g>
		
			<use xlink:href="#FlashAICB_x2F_Layer_63_x2F__x3C_Path_x3E__x5F_17"  width="7.45" height="3.87" y="-3.87" transform="matrix(1 0 0 -1 0.6499 13.7002)" style="overflow:visible;enable-background:new    ;"/>
		
			<use xlink:href="#FlashAICB_x2F_Layer_63_x2F__x3C_Path_x3E__x5F_16"  width="9.2" height="7.6" y="-7.65" transform="matrix(1 0 0 -1 5.8999 12.9004)" style="overflow:visible;enable-background:new    ;"/>
		
			<use xlink:href="#FlashAICB_x2F_Layer_63_x2F__x3C_Path_x3E__x5F_15"  width="-32766" height="-32766" x="16383" y="16383" transform="matrix(1 0 0 -1 5.8999 16.25)" style="overflow:visible;enable-background:new    ;"/>
		
			<use xlink:href="#FlashAICB_x2F_Layer_63_x2F__x3C_Path_x3E__x5F_14"  width="-32766" height="-32766" x="16383" y="16383" transform="matrix(1 0 0 -1 5.8999 16.25)" style="overflow:visible;enable-background:new    ;"/>
		
			<use xlink:href="#FlashAICB_x2F_Layer_63_x2F__x3C_Path_x3E__x5F_13"  width="-32766" height="-32766" x="16383" y="16383" transform="matrix(1 0 0 -1 7.25 14.0996)" style="overflow:visible;enable-background:new    ;"/>
		
			<use xlink:href="#FlashAICB_x2F_Layer_63_x2F__x3C_Path_x3E__x5F_12"  width="-32766" height="-32766" x="16383" y="16383" transform="matrix(1 0 0 -1 7.25 14.0996)" style="overflow:visible;enable-background:new    ;"/>
		
			<use xlink:href="#FlashAICB_x2F_Layer_63_x2F__x3C_Path_x3E__x5F_11"  width="5.3" height="7.65" y="-7.65" transform="matrix(1 0 0 -1 10.4004 4.9502)" style="overflow:visible;enable-background:new    ;"/>
		
			<use xlink:href="#FlashAICB_x2F_Layer_63_x2F__x3C_Path_x3E__x5F_10"  width="9.133" height="3.95" x="0.017" y="-3.95" transform="matrix(1 0 0 -1 0 17.25)" style="overflow:visible;enable-background:new    ;"/>
		
			<use xlink:href="#FlashAICB_x2F_Layer_63_x2F__x3C_Path_x3E__x5F_9"  width="5.9" height="2.106" y="-2.106" transform="matrix(1 0 0 -1 0.2998 19.2998)" style="overflow:visible;enable-background:new    ;"/>
		
			<use xlink:href="#FlashAICB_x2F_Layer_63_x2F__x3C_Path_x3E__x5F_8"  width="5.55" height="2.489" y="-2.489" transform="matrix(1 0 0 -1 9.5498 1.1001)" style="overflow:visible;enable-background:new    ;"/>
		
			<use xlink:href="#FlashAICB_x2F_Layer_63_x2F__x3C_Path_x3E__x5F_7"  width="1.75" height="2.417" y="-2.417" transform="matrix(1 0 0 -1 15.0996 10.6001)" style="overflow:visible;enable-background:new    ;"/>
		
			<use xlink:href="#FlashAICB_x2F_Layer_63_x2F__x3C_Path_x3E__x5F_6"  width="-32766" height="-32766" x="16383" y="16383" transform="matrix(1 0 0 -1 15.0996 12.9502)" style="overflow:visible;enable-background:new    ;"/>
		
			<use xlink:href="#FlashAICB_x2F_Layer_63_x2F__x3C_Path_x3E__x5F_5"  width="-32766" height="-32766" x="16383" y="16383" transform="matrix(1 0 0 -1 15.0996 12.9502)" style="overflow:visible;enable-background:new    ;"/>
		
			<use xlink:href="#FlashAICB_x2F_Layer_63_x2F__x3C_Path_x3E__x5F_4"  width="8.946" height="7.35" y="-7.35" transform="matrix(1 0 0 -1 11.6504 12.7002)" style="overflow:visible;enable-background:new    ;"/>
		
			<use xlink:href="#FlashAICB_x2F_Layer_63_x2F__x3C_Path_x3E__x5F_3"  width="1.274" height="1.104" x="0.006" y="-1.1" transform="matrix(1 0 0 -1 11.0498 15.5996)" style="overflow:visible;enable-background:new    ;"/>
		
			<use xlink:href="#FlashAICB_x2F_Layer_63_x2F__x3C_Path_x3E__x5F_2"  width="1.515" height="0.945" x="-0.015" y="-0.945" transform="matrix(1 0 0 -1 12.9502 14.5996)" style="overflow:visible;enable-background:new    ;"/>
		
			<use xlink:href="#FlashAICB_x2F_Layer_63_x2F__x3C_Path_x3E__x5F_1"  width="1.412" height="0.85" x="-0.004" y="-0.85" transform="matrix(1 0 0 -1 14.9502 13.8496)" style="overflow:visible;enable-background:new    ;"/>
		
			<use xlink:href="#FlashAICB_x2F_Layer_63_x2F__x3C_Path_x3E_"  width="0.662" height="0.56" x="-0.012" y="-0.55" transform="matrix(1 0 0 -1 16.75 13.7002)" style="overflow:visible;enable-background:new    ;"/>
	</g>
</g>
</svg>
