<?xml version="1.0" encoding="iso-8859-1"?>
<!-- Generator: Adobe Illustrator 15.1.0, SVG Export Plug-In . SVG Version: 6.00 Build 0)  -->
<!DOCTYPE svg PUBLIC "-//W3C//DTD SVG 1.1//EN" "http://www.w3.org/Graphics/SVG/1.1/DTD/svg11.dtd">
<svg version="1.1" id="Layer_1" xmlns="http://www.w3.org/2000/svg" xmlns:xlink="http://www.w3.org/1999/xlink" x="0px" y="0px"
	 width="171.7px" height="171.75px" viewBox="0 0 171.7 171.75" style="enable-background:new 0 0 171.7 171.75;"
	 xml:space="preserve">
<symbol  id="FlashAICB_x2F_Layer_1_x2F__x3C_Path_x3E_" viewBox="0 -61.9 128.65 61.9">
	<g id="Layer_1_3_">
		
			<radialGradient id="SVGID_1_" cx="64.3252" cy="-30.9502" r="50.4757" gradientTransform="matrix(1 0 0 -1 0 -61.9004)" gradientUnits="userSpaceOnUse">
			<stop  offset="0" style="stop-color:#CCEFE7;stop-opacity:0"/>
			<stop  offset="0.0941" style="stop-color:#C2E8E0;stop-opacity:0.0784"/>
			<stop  offset="0.2549" style="stop-color:#A6D6CF;stop-opacity:0.298"/>
			<stop  offset="0.4667" style="stop-color:#7BB8B2;stop-opacity:0.6471"/>
			<stop  offset="0.651" style="stop-color:#519A96"/>
		</radialGradient>
		<path style="fill-rule:evenodd;clip-rule:evenodd;fill:url(#SVGID_1_);" d="M128.05-0.25l0.6,0.25
			c-0.667-17.233-7.217-31.85-19.65-43.85C96.533-55.883,81.633-61.9,64.3-61.9c-17.033,0-31.75,5.816-44.15,17.45
			C7.817-32.85,1.1-18.633,0-1.8c5-13,13.233-23.517,24.7-31.55c11.7-8.2,24.716-12.3,39.05-12.3c14.633,0,27.883,4.267,39.75,12.8
			C115.1-24.517,123.283-13.65,128.05-0.25z"/>
	</g>
</symbol>
<symbol  id="FlashAICB_x2F_Layer_1_x2F__x3C_Path_x3E__x5F_0" viewBox="0 -66.434 119.25 66.434">
	<g id="Layer_1_5_">
		<path style="fill-rule:evenodd;clip-rule:evenodd;fill:#FFFFFF;" d="M115.45-37.25c2.533-6.1,3.8-11.85,3.8-17.25
			c0-5.367-1.567-8.75-4.7-10.15c-2.533-1.133-6.783-1.117-12.75,0.05c-7.9,1.9-14.216,3.367-18.95,4.4
			c-8.667,1.833-16.4,2.75-23.2,2.75c-6.867,0-14.6-1-23.2-3c-9.067-2.367-15.4-3.966-19-4.8c-6-1.367-10.25-1.55-12.75-0.55
			C1.567-64.533,0-61.217,0-55.85c0,5.934,1.267,12.067,3.8,18.4c2.7,6.7,6.483,12.75,11.35,18.15C26.75-6.433,41.583,0,59.65,0
			C77.483,0,92.3-6.5,104.1-19.5C108.933-24.833,112.717-30.75,115.45-37.25z"/>
	</g>
</symbol>
<symbol  id="FlashAICB_x2F_Layer_1_x2F__x3C_Path_x3E__x5F_1" viewBox="0 -128.6 128.85 128.6">
	<g id="Layer_1_2_">
		
			<radialGradient id="SVGID_2_" cx="64.4248" cy="-64.2998" r="64.3626" gradientTransform="matrix(1 0 0 -1 0 -128.5996)" gradientUnits="userSpaceOnUse">
			<stop  offset="0" style="stop-color:#CCEFE7"/>
			<stop  offset="0.0863" style="stop-color:#C2E8E0"/>
			<stop  offset="0.2392" style="stop-color:#A6D6CF"/>
			<stop  offset="0.4353" style="stop-color:#7BB8B2"/>
			<stop  offset="0.6078" style="stop-color:#519A96"/>
			<stop  offset="0.8039" style="stop-color:#539A96"/>
			<stop  offset="0.8745" style="stop-color:#589A96"/>
			<stop  offset="0.9255" style="stop-color:#629B96"/>
			<stop  offset="0.9686" style="stop-color:#719B96"/>
			<stop  offset="1" style="stop-color:#839C96"/>
		</radialGradient>
		<path style="fill-rule:evenodd;clip-rule:evenodd;fill:url(#SVGID_2_);" d="M128.85-64.3c0-17.767-6.283-32.917-18.85-45.45
			c-12.6-12.567-27.783-18.85-45.55-18.85c-17.8,0-32.983,6.283-45.55,18.85C6.3-97.217,0-82.067,0-64.3
			c0,17.767,6.3,32.917,18.9,45.45C31.467-6.283,46.65,0,64.45,0C82.217,0,97.4-6.283,110-18.85
			C122.567-31.417,128.85-46.567,128.85-64.3z"/>
	</g>
</symbol>
<symbol  id="FlashAICB_x2F_Layer_1_x2F__x3C_Path_x3E__x5F_1_x5F_0" viewBox="0 -60.45 119.25 60.45">
	<g id="Layer_1_4_">
		
			<linearGradient id="SVGID_3_" gradientUnits="userSpaceOnUse" x1="16160.585" y1="-58.4917" x2="16220.9766" y2="-58.4917" gradientTransform="matrix(1.654944e-005 1 -1 -0.001 0.8657 -16221.1064)">
			<stop  offset="0.1294" style="stop-color:#E2B8B2"/>
			<stop  offset="0.9255" style="stop-color:#FFFFFF"/>
		</linearGradient>
		<path style="fill-rule:evenodd;clip-rule:evenodd;fill:url(#SVGID_3_);" d="M104.1-19.5c4.833-5.333,8.617-11.25,11.35-17.75
			c2.533-6.1,3.8-11.85,3.8-17.25c0-1.833-0.183-3.45-0.55-4.85c-2,12-7.85,22.65-17.55,31.95c-11.4,11-25.233,16.5-41.5,16.5
			c-16.533,0-30.45-5.483-41.75-16.45C8.133-36.783,2.333-47.817,0.5-60.45c-0.333,1.4-0.5,2.934-0.5,4.6
			c0,5.934,1.267,12.067,3.8,18.4c2.7,6.7,6.483,12.75,11.35,18.15C26.75-6.433,41.583,0,59.65,0C77.483,0,92.3-6.5,104.1-19.5z"/>
	</g>
</symbol>
<g>
	<path style="fill-rule:evenodd;clip-rule:evenodd;fill:#FFFFFF;" d="M85.85,0c11.634,0,22.767,2.25,33.4,6.75
		c10.267,4.367,19.366,10.5,27.3,18.4c7.9,7.934,14.033,17.034,18.4,27.3c4.5,10.633,6.75,21.767,6.75,33.4s-2.25,22.767-6.75,33.4
		c-4.367,10.3-10.5,19.417-18.4,27.35c-7.934,7.9-17.033,14.033-27.3,18.4c-10.634,4.5-21.767,6.75-33.4,6.75
		c-11.633,0-22.766-2.25-33.399-6.75c-10.267-4.367-19.367-10.5-27.3-18.4c-7.933-7.933-14.066-17.05-18.4-27.35
		C2.25,108.617,0,97.483,0,85.85s2.25-22.767,6.75-33.4c4.333-10.267,10.467-19.367,18.4-27.3c7.934-7.9,17.033-14.033,27.3-18.4
		C63.083,2.25,74.217,0,85.85,0z"/>
	<g>
		<g>
			
				<linearGradient id="SVGID_4_" gradientUnits="userSpaceOnUse" x1="-157.6851" y1="85.8257" x2="-14.2354" y2="85.8257" gradientTransform="matrix(6.973501e-006 -1 1 -0.001 -1.064519e-004 4.449275e-004)">
				<stop  offset="0.0745" style="stop-color:#3C5350"/>
				<stop  offset="0.1922" style="stop-color:#486D66"/>
				<stop  offset="0.4431" style="stop-color:#67AF9D"/>
				<stop  offset="0.4784" style="stop-color:#6CB9A6"/>
				<stop  offset="0.9216" style="stop-color:#E0D1B7"/>
			</linearGradient>
			<path style="fill-rule:evenodd;clip-rule:evenodd;fill:url(#SVGID_4_);" d="M85.85,14.15c19.767,0,36.65,7.017,50.65,21.05
				c6.634,6.6,11.767,14.2,15.4,22.8c3.767,8.867,5.649,18.15,5.649,27.85c0,9.7-1.883,19-5.649,27.9
				c-3.634,8.566-8.767,16.167-15.4,22.8c-6.6,6.634-14.2,11.767-22.8,15.4c-8.867,3.767-18.15,5.649-27.851,5.649
				c-19.766,0-36.667-7.017-50.7-21.05c-6.633-6.633-11.767-14.233-15.4-22.8c-3.767-8.9-5.65-18.2-5.65-27.9
				c0-9.7,1.883-18.983,5.65-27.85c3.633-8.6,8.767-16.2,15.4-22.8c6.633-6.634,14.233-11.767,22.8-15.4
				C66.85,16.033,76.15,14.15,85.85,14.15z"/>
			<path style="fill-rule:evenodd;clip-rule:evenodd;fill:#1C3330;" d="M85.85,15.05c-9.6,0-18.8,1.85-27.6,5.55
				c-8.467,3.6-15.967,8.667-22.5,15.2c-6.533,6.534-11.6,14.034-15.2,22.5C16.85,67.066,15,76.25,15,85.85
				c0,19.567,6.917,36.267,20.75,50.1c6.533,6.533,14.033,11.6,22.5,15.2c8.8,3.699,18,5.55,27.6,5.55
				c9.601,0,18.784-1.851,27.551-5.55c8.466-3.601,15.966-8.667,22.5-15.2c6.533-6.533,11.6-14.05,15.199-22.55
				c3.7-8.768,5.551-17.95,5.551-27.55S154.8,67.066,151.1,58.3c-3.6-8.466-8.666-15.966-15.199-22.5
				C122.1,21.967,105.417,15.05,85.85,15.05z M85.85,13.25c9.7,0,18.95,1.833,27.75,5.5c8.867,3.667,16.717,8.934,23.551,15.8
				c6.866,6.833,12.133,14.667,15.8,23.5c3.666,8.833,5.5,18.1,5.5,27.8c0,9.7-1.834,18.966-5.5,27.8
				c-3.667,8.866-8.934,16.717-15.8,23.55c-6.834,6.866-14.684,12.133-23.551,15.8c-8.8,3.667-18.05,5.5-27.75,5.5
				c-9.7,0-18.966-1.833-27.8-5.5c-8.867-3.667-16.716-8.934-23.55-15.8c-6.867-6.833-12.133-14.684-15.8-23.55
				c-3.667-8.834-5.5-18.101-5.5-27.8c0-9.7,1.833-18.967,5.5-27.8c3.667-8.833,8.933-16.667,15.8-23.5
				c6.833-6.866,14.683-12.133,23.55-15.8C66.883,15.083,76.15,13.25,85.85,13.25z"/>
		</g>
		
			<use xlink:href="#FlashAICB_x2F_Layer_1_x2F__x3C_Path_x3E__x5F_1"  width="128.85" height="128.6" y="-128.6" transform="matrix(1 0 0 -1 21.3999 19.25)" style="overflow:visible;opacity:0.3789;enable-background:new    ;"/>
		<g>
			<g>
				<path style="fill-rule:evenodd;clip-rule:evenodd;fill:#BFE8DC;" d="M93.2,32.4c0,2.367-0.983,4.184-2.95,5.45
					c1.3,0.6,2.35,1.466,3.15,2.6c0.8,1.167,1.199,2.433,1.199,3.8c0,2.167-0.866,4.017-2.6,5.55c-1.733,1.567-3.866,2.35-6.4,2.35
					c-2.433,0-4.516-0.767-6.25-2.3c-1.533-1.367-2.3-2.833-2.3-4.4c0-0.667,0.3-1.233,0.9-1.7c0.533-0.467,1.15-0.7,1.85-0.7
					c0.667,0,1.45,0.7,2.35,2.1c0.867,1.4,2.05,2.1,3.55,2.1c0.934,0,1.717-0.316,2.35-0.95c0.667-0.667,1-1.466,1-2.4
					c0-1.733-1.017-2.75-3.05-3.05c-2.033-0.3-3.05-1.133-3.05-2.5c0-1.2,0.85-2.034,2.55-2.5c1.7-0.433,2.55-1.317,2.55-2.65
					c0-0.7-0.233-1.267-0.7-1.7c-0.466-0.467-1.1-0.7-1.899-0.7c-1.2,0-2.2,0.583-3,1.75c-0.833,1.167-1.617,1.75-2.35,1.75
					c-0.7,0-1.267-0.267-1.7-0.8c-0.4-0.533-0.6-1.15-0.6-1.85c0-1.4,0.8-2.7,2.4-3.9c1.633-1.233,3.433-1.85,5.399-1.85
					c2.367,0,4.267,0.733,5.7,2.2C92.566,29.4,93.2,30.833,93.2,32.4z"/>
			</g>
			<g>
				
					<linearGradient id="SVGID_5_" gradientUnits="userSpaceOnUse" x1="-50.9839" y1="85.8267" x2="-24.7339" y2="85.8267" gradientTransform="matrix(3.809524e-005 -1 1 -0.001 -2.387897e-004 4.449275e-004)">
					<stop  offset="0" style="stop-color:#112924"/>
					<stop  offset="0.4549" style="stop-color:#21423D"/>
					<stop  offset="0.9686" style="stop-color:#36625F"/>
				</linearGradient>
				<path style="fill-rule:evenodd;clip-rule:evenodd;fill:url(#SVGID_5_);" d="M93.2,31.15c0,2.434-0.983,4.25-2.95,5.45
					c1.3,0.6,2.35,1.466,3.15,2.6c0.8,1.167,1.199,2.433,1.199,3.8c0,2.167-0.866,4.017-2.6,5.55c-1.733,1.567-3.866,2.35-6.4,2.35
					c-2.433,0-4.516-0.767-6.25-2.3c-1.533-1.367-2.3-2.833-2.3-4.4c0-0.667,0.3-1.233,0.9-1.7c0.533-0.467,1.15-0.7,1.85-0.7
					c0.667,0,1.45,0.7,2.35,2.1c0.867,1.4,2.05,2.1,3.55,2.1c0.934,0,1.717-0.316,2.35-0.95c0.667-0.667,1-1.466,1-2.4
					c0-1.733-1.017-2.75-3.05-3.05c-2.033-0.3-3.05-1.117-3.05-2.45c0-1.233,0.85-2.066,2.55-2.5c1.7-0.466,2.55-1.367,2.55-2.7
					c0-0.7-0.233-1.267-0.7-1.7c-0.466-0.467-1.1-0.7-1.899-0.7c-1.2,0-2.2,0.583-3,1.75c-0.833,1.167-1.617,1.75-2.35,1.75
					c-0.7,0-1.267-0.267-1.7-0.8c-0.4-0.533-0.6-1.15-0.6-1.85c0-1.4,0.8-2.7,2.4-3.9c1.633-1.233,3.433-1.85,5.399-1.85
					c2.367,0,4.267,0.733,5.7,2.2C92.566,28.15,93.2,29.583,93.2,31.15z"/>
			</g>
		</g>
		<g>
			<path style="fill-rule:evenodd;clip-rule:evenodd;fill:#DBF0E8;" d="M68.05,64.45c0.467-1.367,1.35-2.634,2.65-3.8
				c1.933-1.767,4.6-3.017,8-3.75c4.867-1,9.066-0.667,12.6,1l4.4-0.3l1.399,0.1l0.301,0.1c0.533,0.167,0.983,0.384,1.35,0.65
				l0.35,0.25c5.634,0.733,10.351,3.033,14.15,6.9c2.366,2.4,4.167,5.133,5.4,8.2c0.866,1.7,1.316,3.567,1.35,5.6l0.05,0.1V81
				c0.934,1.333,1.634,3.05,2.101,5.15c0.733,3.366,1.05,6,0.949,7.899c-0.1,1.601-0.5,2.884-1.199,3.851
				c-1.301,1.967-4.017,3.166-8.15,3.6c-1.233,0.434-2.2,0.717-2.9,0.85l-0.35,0.051c-1.733,0.366-4,1.133-6.8,2.3L103,105l1,1.9
				c1,2.066,1.684,3.949,2.05,5.649c0.7,3.167,0.617,6.25-0.25,9.25l0.2,0.4l2.25,0.5c0.7-0.233,1.366-0.351,2-0.351
				c0.967,0,1.884,0.268,2.75,0.801c1.2,0.767,1.9,1.85,2.1,3.25c0.634,1.232,0.684,2.5,0.15,3.8c-1.033,2.433-2.283,4.133-3.75,5.1
				l-0.55,0.3c-0.5,0.867-1.25,1.518-2.25,1.95l-0.25,0.25c-0.5,0.434-1.066,0.75-1.7,0.95h-0.05c-0.167,0.633-0.384,1.167-0.65,1.6
				c-0.566,1-1.35,1.7-2.35,2.101c-0.533,0.633-1.217,1.083-2.05,1.35c-1.467,0.567-3.15,0.851-5.051,0.851
				c-1.466,0-2.683-0.233-3.649-0.7c-0.9-0.4-1.667-0.867-2.3-1.4c-0.267,0.267-0.667,0.55-1.2,0.851
				c-1.2,0.699-2.55,1.05-4.05,1.05c-1,0-1.95-0.15-2.851-0.45c-0.367-0.1-0.733-0.283-1.1-0.55l-0.6-0.4
				c-2.7-0.467-5.35-1.1-7.95-1.899c-3.3-0.967-5.85-2.033-7.65-3.2c-3.3-2.134-4.833-4.733-4.6-7.8l-1.2-0.15H59.4
				c-1.6,0.167-3.183-0.2-4.75-1.1c-1.3-0.733-2.2-1.834-2.7-3.301c-0.434-1.199-0.534-2.449-0.3-3.75
				c0.2-1.433,0.95-2.533,2.25-3.3c0.3-0.533,0.65-1.033,1.05-1.5c1.066-1.066,2.283-1.75,3.65-2.05l0.05-1.1
				c0.434-8.101,3.7-15.2,9.8-21.301c-3.267-0.1-7.017-0.783-11.25-2.05c-3.667-1.233-5.567-1.883-5.7-1.95
				c-0.9-0.333-1.617-0.916-2.15-1.75c-0.533-0.8-0.8-1.683-0.8-2.649c0-1.467,0.434-3.15,1.3-5.05c1.5-3.267,4.066-6.35,7.7-9.25
				C61.083,67.066,64.583,65.25,68.05,64.45z"/>
			<g>
				
					<linearGradient id="SVGID_6_" gradientUnits="userSpaceOnUse" x1="-143.7466" y1="85.835" x2="-55.4209" y2="85.835" gradientTransform="matrix(1.132182e-005 -1 1 -0.001 -1.084883e-005 4.449275e-004)">
					<stop  offset="0" style="stop-color:#1E7B6A"/>
					<stop  offset="0.7098" style="stop-color:#9FE0B8"/>
				</linearGradient>
				<path style="fill-rule:evenodd;clip-rule:evenodd;fill:url(#SVGID_6_);" d="M68.05,63.45c0.467-1.367,1.35-2.634,2.65-3.8
					c1.933-1.767,4.6-3.017,8-3.75c4.867-1,9.066-0.667,12.6,1l4.4-0.3l1.399,0.1l0.301,0.1c0.533,0.167,0.983,0.384,1.35,0.65
					l0.35,0.25c5.634,0.733,10.351,3.033,14.15,6.9c2.366,2.4,4.167,5.133,5.4,8.2c0.866,1.7,1.316,3.567,1.35,5.6l0.05,0.1V80
					c0.934,1.333,1.634,3.05,2.101,5.15c0.733,3.367,1.05,6,0.949,7.9c-0.1,1.601-0.5,2.884-1.199,3.851
					c-1.301,1.967-4.017,3.166-8.15,3.6c-1.233,0.434-2.2,0.717-2.9,0.85l-0.35,0.051c-1.733,0.366-4,1.133-6.8,2.3L103,104l1,1.9
					c1,2.066,1.684,3.949,2.05,5.649c0.7,3.167,0.617,6.25-0.25,9.25l0.2,0.4l2.25,0.5c0.7-0.233,1.366-0.351,2-0.351
					c0.967,0,1.884,0.268,2.75,0.801c1.2,0.767,1.9,1.85,2.1,3.25c0.634,1.232,0.684,2.5,0.15,3.8
					c-1.033,2.433-2.283,4.133-3.75,5.1l-0.55,0.3c-0.5,0.867-1.25,1.518-2.25,1.95l-0.25,0.25c-0.5,0.434-1.066,0.75-1.7,0.95
					h-0.05c-0.167,0.633-0.384,1.167-0.65,1.6c-0.566,1-1.35,1.7-2.35,2.101c-0.533,0.633-1.217,1.083-2.05,1.35
					c-1.467,0.567-3.15,0.851-5.051,0.851c-1.466,0-2.683-0.233-3.649-0.7c-0.9-0.4-1.667-0.867-2.3-1.4
					c-0.267,0.267-0.667,0.55-1.2,0.851c-1.2,0.699-2.55,1.05-4.05,1.05c-1,0-1.95-0.15-2.851-0.45c-0.367-0.1-0.733-0.283-1.1-0.55
					l-0.6-0.4c-2.7-0.467-5.35-1.1-7.95-1.899c-3.3-0.967-5.85-2.033-7.65-3.2c-3.3-2.134-4.833-4.733-4.6-7.8l-1.2-0.15H59.4
					c-1.6,0.167-3.183-0.2-4.75-1.1c-1.3-0.733-2.2-1.834-2.7-3.301c-0.434-1.199-0.534-2.449-0.3-3.75
					c0.2-1.433,0.95-2.533,2.25-3.3c0.3-0.533,0.65-1.033,1.05-1.5c1.066-1.066,2.283-1.75,3.65-2.05l0.05-1.1
					c0.434-8.101,3.7-15.2,9.8-21.301c-3.267-0.1-7.017-0.783-11.25-2.05c-3.667-1.233-5.567-1.883-5.7-1.95
					c-0.9-0.333-1.617-0.916-2.15-1.75c-0.533-0.8-0.8-1.683-0.8-2.65c0-1.467,0.434-3.15,1.3-5.05c1.5-3.267,4.066-6.35,7.7-9.25
					C61.083,66.066,64.583,64.25,68.05,63.45z"/>
				<path style="fill-rule:evenodd;clip-rule:evenodd;fill:none;stroke:#DBF0E8;stroke-width:0.25;" d="M68.05,63.45
					c-3.466,0.8-6.966,2.616-10.5,5.45c-3.633,2.9-6.2,5.983-7.7,9.25c-0.867,1.9-1.3,3.583-1.3,5.05c0,0.967,0.267,1.85,0.8,2.65
					c0.533,0.833,1.25,1.417,2.15,1.75c0.133,0.067,2.033,0.717,5.7,1.95c4.233,1.267,7.983,1.95,11.25,2.05
					c-6.1,6.101-9.367,13.2-9.8,21.301L58.6,114c-1.367,0.3-2.583,0.983-3.65,2.05c-0.4,0.467-0.75,0.967-1.05,1.5
					c-1.3,0.767-2.05,1.867-2.25,3.3c-0.233,1.301-0.133,2.551,0.3,3.75c0.5,1.467,1.4,2.567,2.7,3.301
					c1.567,0.899,3.15,1.267,4.75,1.1h0.05l1.2,0.15c-0.233,3.066,1.3,5.666,4.6,7.8c1.8,1.167,4.35,2.233,7.65,3.2
					c2.6,0.8,5.25,1.433,7.95,1.899l0.6,0.4c0.367,0.267,0.733,0.45,1.1,0.55c0.9,0.3,1.85,0.45,2.851,0.45
					c1.5,0,2.85-0.351,4.05-1.05c0.533-0.301,0.934-0.584,1.2-0.851c0.633,0.533,1.399,1,2.3,1.4c0.967,0.467,2.184,0.7,3.649,0.7
					c1.9,0,3.584-0.283,5.051-0.851c0.833-0.267,1.517-0.717,2.05-1.35c1-0.4,1.783-1.101,2.35-2.101
					c0.267-0.433,0.483-0.967,0.65-1.6h0.05c0.634-0.2,1.2-0.517,1.7-0.95l0.25-0.25c1-0.433,1.75-1.083,2.25-1.95l0.55-0.3
					c1.467-0.967,2.717-2.667,3.75-5.1c0.533-1.3,0.483-2.567-0.15-3.8c-0.199-1.4-0.899-2.483-2.1-3.25
					c-0.866-0.533-1.783-0.801-2.75-0.801c-0.634,0-1.3,0.117-2,0.351l-2.25-0.5l-0.2-0.4c0.867-3,0.95-6.083,0.25-9.25
					c-0.366-1.7-1.05-3.583-2.05-5.649l-1-1.9l0.7-0.3c2.8-1.167,5.066-1.934,6.8-2.3l0.35-0.051c0.7-0.133,1.667-0.416,2.9-0.85
					c4.134-0.434,6.85-1.633,8.15-3.6c0.699-0.967,1.1-2.25,1.199-3.851c0.101-1.899-0.216-4.533-0.949-7.9
					c-0.467-2.1-1.167-3.816-2.101-5.15v-1.5L120,78.4c-0.033-2.033-0.483-3.9-1.35-5.6c-1.233-3.066-3.034-5.8-5.4-8.2
					c-3.8-3.867-8.517-6.167-14.15-6.9l-0.35-0.25c-0.366-0.267-0.816-0.483-1.35-0.65L97.1,56.7L95.7,56.6l-4.4,0.3
					c-3.533-1.667-7.733-2-12.6-1c-3.4,0.733-6.067,1.983-8,3.75C69.4,60.816,68.517,62.083,68.05,63.45z"/>
			</g>
			<path style="fill-rule:evenodd;clip-rule:evenodd;fill:#1C3330;" d="M72.45,66.9l0.75,0.05c-0.733-0.733-1.15-1.2-1.25-1.4
				c-0.167-0.167-0.217-0.383-0.15-0.65c0.133-0.633,0.567-1.3,1.3-2c1.4-1.433,3.533-2.45,6.4-3.05c1.467-0.333,2.933-0.5,4.4-0.5
				c2.534,0,4.75,0.567,6.65,1.7l0.5-0.1c2.9-0.333,4.634-0.45,5.2-0.35v0.05l0.25,0.1L96.75,61v0.1l0.05,0.05v0.15l0.05,0.2
				c4.767,0.3,8.834,1.85,12.2,4.65c2.667,2.267,4.65,5.05,5.95,8.35c0.667,1.2,1.017,2.583,1.05,4.15v0.15
				c0.033,0.534,0,1.017-0.1,1.45l-0.15,1.1c1.101,0.733,1.917,2.283,2.45,4.65c1,4.8,1.116,7.667,0.35,8.6
				c-0.566,1.033-2.5,1.684-5.8,1.95c-1.033,0.4-1.95,0.684-2.75,0.851l-0.399,0.1c-1.834,0.367-4.317,1.2-7.45,2.5
				c-2.066,0.833-3.267,1.717-3.601,2.65c-0.166,0.433-0.133,0.982,0.101,1.649c0.133,0.4,0.45,1.05,0.95,1.95l0.75,1.35
				c0.933,2,1.55,3.75,1.85,5.25c0.533,2.834,0.283,5.567-0.75,8.2l1.85,3.601l1.551,0.399c0.666,0.134,1.833,0.417,3.5,0.851
				l0.85-0.301c0.566-0.166,0.9-0.25,1-0.25c0.233,0,0.4,0.051,0.5,0.15c0.3,0.167,0.45,0.434,0.45,0.8
				c0,0.167-0.05,0.317-0.15,0.45c0.167,0.066,0.3,0.167,0.4,0.3c0.133,0.2,0.149,0.434,0.05,0.7
				c-0.066,0.267-0.283,0.717-0.65,1.35c-0.5,0.867-1.017,1.483-1.55,1.851c-0.467,0.333-1,0.533-1.6,0.6
				c0.066,0.333,0.033,0.65-0.101,0.95c-0.233,0.333-0.583,0.5-1.05,0.5l-0.45-0.05V133l0.051,0.25v0.05l-0.051,0.15l-0.05,0.05
				l-0.1,0.15l-0.05,0.1l-0.301,0.15l-0.25,0.05c-0.966,0.267-1.883,0.399-2.75,0.399c-0.566,0-1.066-0.083-1.5-0.25
				c0.934,1.067,1.467,1.801,1.601,2.2c0.133,0.434,0.1,0.783-0.101,1.05c-0.233,0.4-0.6,0.601-1.1,0.601
				c-0.233,0-0.5-0.05-0.8-0.15l0.1,0.101c0.134,0.267,0.15,0.482,0.05,0.649c-0.033,0.233-0.183,0.384-0.449,0.45
				c-1.301,0.434-2.567,0.65-3.801,0.65c-0.866,0-1.55-0.117-2.05-0.351c-0.866-0.366-1.649-1.033-2.35-2l-0.05-0.05
				c-0.467-0.7-0.7-1.167-0.7-1.4l-0.05-0.1v-0.05c-0.134-1-0.384-2.134-0.75-3.4h-0.2l-1.15,0.45c0.167,0.233,0.233,0.45,0.2,0.65
				c0,0.267-0.1,0.5-0.3,0.699l0.3,0.051h0.05l0.3,0.1l0.25,0.25v0.05l0.101,0.25l-0.05,0.3c-0.034,0.233-0.184,0.601-0.45,1.101
				c-0.334,0.7-0.7,1.3-1.101,1.8c-0.466,0.467-0.833,0.767-1.1,0.9c-0.634,0.366-1.333,0.55-2.1,0.55
				c-0.867,0-1.384-0.083-1.55-0.25l-0.2-0.101l-1.3-0.85l-0.05-0.05c-2.367-0.3-5.117-0.934-8.25-1.9
				c-6.6-1.933-9.733-4.283-9.4-7.05c0.067-0.5,0.283-1.05,0.65-1.65c0.267-0.533,0.467-1.066,0.6-1.6l-0.25-0.35L65,124.55
				c-0.867,0.434-1.967,0.65-3.3,0.65h-0.25l-1-0.101l-0.9-0.199l-0.9,0.1c-0.667,0-1.333-0.184-2-0.55c-0.5-0.3-0.833-0.767-1-1.4
				c-0.133-0.5-0.15-1.017-0.05-1.55c0.066-0.4,0.316-0.6,0.75-0.6c0.2,0,0.4,0.1,0.6,0.3c0-0.967,0.316-1.767,0.95-2.4
				c0.667-0.7,1.5-1.033,2.5-1c0.967,0.033,1.65,0.367,2.05,1l0.2,0.3l0.3-0.3c-0.333-1.967-0.45-3.85-0.35-5.649
				c0.333-5.567,2.25-10.684,5.75-15.351c2.033-2.667,4.367-4.933,7-6.8c-0.533-1.333-0.983-2.7-1.35-4.1
				c-1.333,0.467-2.883,0.699-4.65,0.699c-3.033,0-6.617-0.6-10.75-1.8c-3.6-1.2-5.467-1.833-5.6-1.9
				c-0.3-0.133-0.45-0.367-0.45-0.7c0.034-0.934,0.367-2.067,1-3.4c1.233-2.667,3.4-5.25,6.5-7.75
				C64.35,68.617,68.483,66.9,72.45,66.9z"/>
			<g>
				<path style="fill-rule:evenodd;clip-rule:evenodd;fill:#F99499;" d="M92.6,64l0.101,3c-0.467,2.333-2.134,4.383-5,6.15
					c-2.267,1.434-5.483,0.517-9.65-2.75l-5.55-5.3c0.133-0.534,0.517-1.117,1.15-1.75c1.333-1.267,3.35-2.2,6.05-2.8
					c4.1-0.866,7.483-0.55,10.149,0.95C91.184,62.233,92.1,63.066,92.6,64z"/>
				<path style="fill-rule:evenodd;clip-rule:evenodd;fill:#FBB3B8;" d="M58.95,122.6c1.233,0.467,1.566,0.884,1,1.25
					c-0.833,0.601-1.817,0.584-2.95-0.05c-0.4-0.233-0.633-0.667-0.7-1.3v-0.85l0.15,0.399c0.133,0.3,0.35,0.517,0.65,0.65
					C57.7,122.967,58.317,122.934,58.95,122.6z"/>
				<path style="fill-rule:evenodd;clip-rule:evenodd;fill:#FBB3B8;" d="M59.65,121.45c0.2,0.366,0.55,0.5,1.05,0.399
					c0.191-0.031,0.383-0.09,0.575-0.175L60.8,121.8c0.6-0.7,0.534-1.2-0.2-1.5c-0.367-0.133-0.667-0.05-0.9,0.25
					C59.5,120.85,59.483,121.15,59.65,121.45z M58.4,119.35c0.533-0.566,1.184-0.833,1.95-0.8c0.967,0.067,1.566,0.483,1.8,1.25
					c0.1,0.367,0.117,0.733,0.05,1.101l-0.025,0.05c0.196-0.247,0.455-0.598,0.775-1.05c0.433-0.567,0.833-0.867,1.2-0.9
					c0.533-0.066,1.05,0.217,1.55,0.85c0.566,0.634,0.783,1.317,0.65,2.051c-0.3,1.767-1.934,2.616-4.9,2.55
					c-1.2-0.033-2.133-0.333-2.8-0.9c-0.6-0.533-0.933-1.233-1-2.1C57.617,120.65,57.867,119.95,58.4,119.35z"/>
				<path style="fill-rule:evenodd;clip-rule:evenodd;fill:#F99499;" d="M61.45,124.45c-1.4,0-2.45-0.434-3.15-1.3l0.45,0.25
					c0.9,0.633,1.917,0.899,3.05,0.8c1.167-0.134,1.817-0.583,1.95-1.351c0.133-0.666,0.017-1.3-0.35-1.899l-0.6-0.75h-0.05
					c0.567-0.767,1.033-1.167,1.4-1.2c0.533-0.066,1.05,0.217,1.55,0.85c0.566,0.634,0.783,1.317,0.65,2.051
					C66.05,123.667,64.417,124.517,61.45,124.45z"/>
				<path style="fill-rule:evenodd;clip-rule:evenodd;fill:#C96F62;" d="M109,126.5c0.866-0.3,1.316-0.434,1.35-0.4
					c0.334,0.233-0.116,0.684-1.35,1.351h1.85l-0.6,1.149c-0.467,0.867-0.934,1.45-1.4,1.75c-0.733,0.5-1.5,0.634-2.3,0.4l-1.75-1.2
					c0.134-0.433,0.283-0.85,0.45-1.25c0.366-0.866,0.717-1.3,1.05-1.3C107.1,126.967,108,126.8,109,126.5z"/>
				<path style="fill-rule:evenodd;clip-rule:evenodd;fill:#AA5E54;" d="M107.05,128.7c1.533,0.3,2.783-0.117,3.75-1.25h0.05
					l-0.6,1.149c-0.467,0.867-0.934,1.45-1.4,1.75c-0.733,0.5-1.5,0.634-2.3,0.4l-1.7-1.35c0.134-0.367,0.2-0.733,0.2-1.101
					l-0.05-0.45L107.05,128.7z"/>
				<path style="fill-rule:evenodd;clip-rule:evenodd;fill:#F99499;" d="M98.6,114.75c1.7,1.9,2.351,3.816,1.95,5.75
					c-0.399,1.867-0.8,2.95-1.2,3.25l1.25,0.7c1.167,0.533,2.551,0.967,4.15,1.3c1.233,0.267,2.533,0.6,3.9,1
					c-0.367-0.033-0.767-0.017-1.2,0.05c-0.834,0.134-1.384,0.467-1.65,1c-0.467,0.8-0.55,1.5-0.25,2.101
					c-2.233-0.233-4.883-0.75-7.95-1.551c-6-1.5-8.866-3.199-8.6-5.1c0.467-0.833,0.816-1.533,1.05-2.1
					c0.4-1.033,0.2-2.317-0.6-3.851c-1.033-2-1.584-3.183-1.65-3.55c-0.133-1.167,0.851-1.816,2.95-1.95
					C94.017,111.6,96.634,112.583,98.6,114.75z"/>
				<path style="fill-rule:evenodd;clip-rule:evenodd;fill:#C96F62;" d="M98.65,127.3l1.449-0.25c1.067-0.1,1.817-0.05,2.25,0.15
					c0.667,0.3,1.634,1.083,2.9,2.35c1.366,1.333,1.934,2.184,1.7,2.55c-0.334,0.533-1.316,0.117-2.95-1.25l1.4,2.351
					c-1.934,0.566-3.434,0.6-4.5,0.1c-0.667-0.3-1.217-0.833-1.65-1.6l-0.5-1L98.65,127.3z"/>
				<path style="fill-rule:evenodd;clip-rule:evenodd;fill:#AA5E54;" d="M100.7,129l0.6,1.9c0.8,1.3,2.167,2.05,4.101,2.25v0.05
					c-1.934,0.566-3.434,0.6-4.5,0.1c-0.667-0.3-1.217-0.833-1.65-1.6l-0.5-1L98.7,129.6L100.7,129z"/>
				<path style="fill-rule:evenodd;clip-rule:evenodd;fill:#FBB3B8;" d="M89.25,113.7c1.566-3.601,3.45-4.867,5.65-3.8
					c1.833,0.899,3.033,2.583,3.6,5.05c0.733,3.066,2.066,6.333,4,9.8c0.967,1.733,1.866,3.167,2.7,4.3l-1.2,0.7
					c-1.167,0.633-2.366,0.833-3.6,0.6l-1.5-0.55c-0.134-0.7-0.417-1.533-0.851-2.5c-0.934-1.899-2.233-3.533-3.899-4.899
					c-2.2-1.801-3.684-3.783-4.45-5.95L89.25,113.7z"/>
				<path style="fill-rule:evenodd;clip-rule:evenodd;fill:#F99499;" d="M91.35,119.55l-0.5-3.45c0.034-0.3,0.634-0.967,1.801-2
					c1.1-0.933,2.383-1.916,3.85-2.949c1,1.166,1.667,2.433,2,3.8c0.6,2.433,1.533,4.933,2.8,7.5
					c-0.899-0.134-1.533,0.217-1.899,1.05c-0.367,0.833-0.351,1.833,0.05,3c0.5,1.533,1.6,2.783,3.3,3.75
					c-0.9,0.267-1.816,0.267-2.75,0l-1.1-0.45c-0.134-0.7-0.417-1.533-0.851-2.5c-0.934-1.899-2.233-3.533-3.899-4.899
					C93.15,121.6,92.217,120.65,91.35,119.55z"/>
				<path style="fill-rule:evenodd;clip-rule:evenodd;fill:#C96F62;" d="M91.9,131.55l1.699-0.35c1.267-0.167,2.167-0.134,2.7,0.1
					c0.8,0.333,1.983,1.233,3.55,2.7c1.667,1.533,2.367,2.517,2.101,2.95c-0.367,0.667-1.533,0.217-3.5-1.351l1.7,2.7
					c-0.567,0.2-1.217,0.351-1.95,0.45c-1.467,0.267-2.601,0.217-3.4-0.15c-0.8-0.366-1.483-0.967-2.05-1.8l-0.6-1.2L91.9,131.55z"
					/>
				<path style="fill-rule:evenodd;clip-rule:evenodd;fill:#AA5E54;" d="M94.4,133.5l0.8,2.25c1,1.533,2.649,2.383,4.95,2.55
					c-0.567,0.2-1.217,0.351-1.95,0.45c-1.467,0.267-2.601,0.217-3.4-0.15c-0.8-0.366-1.483-0.967-2.05-1.8l-0.6-1.2l-0.101-1.3
					L94.4,133.5z"/>
				<path style="fill-rule:evenodd;clip-rule:evenodd;fill:#FBB3B8;" d="M76.3,91.3c-1.8-3.967-2.617-8.116-2.45-12.45
					c0.367-8.7,5.533-14.034,15.5-16c8.134-1.6,14.717-0.15,19.75,4.35c3.801,3.433,5.867,7.316,6.2,11.65
					c0.101,1.433-0.3,1.933-1.2,1.5c-0.399-0.233-0.633-0.333-0.699-0.3c-0.101,0.034-0.017,0.384,0.25,1.05l0.699,6.8
					c0.367,4.6,0.25,7.033-0.35,7.3c-1.667,0.767-3.267,1.3-4.8,1.6c-1.7,0.367-4.134,1.2-7.3,2.5
					c-2.801,1.167-4.184,2.517-4.15,4.05c0.033,0.4,0.684,1.934,1.95,4.601c1.6,3.3,2.25,6.35,1.95,9.149
					c-0.434,4.533-3.134,8.717-8.101,12.551c-2.467,1.899-5.483,3.05-9.05,3.449c-3.567,0.367-6.95-0.1-10.15-1.399
					c-7.833-3.134-11.5-9.3-11-18.5c0.367-6.033,2.633-11.483,6.8-16.351c1.3-1.533,2.717-2.916,4.25-4.149L76.3,91.3z"/>
				<path style="fill-rule:evenodd;clip-rule:evenodd;fill:#F99499;" d="M97.75,103.35c0.033,0.4,0.684,1.934,1.95,4.601
					c1.6,3.3,2.25,6.35,1.95,9.149c-0.434,4.533-3.134,8.717-8.101,12.551c-2.767,2.133-6.184,3.3-10.25,3.5
					c-4.1,0.232-7.833-0.601-11.2-2.5l1.5-2.601l3.65,1.101c1.6,1.232,3.467,1.949,5.6,2.149c3.2,0.267,6.3-0.866,9.3-3.399
					c3.033-2.533,4.85-5.634,5.449-9.301c0.434-2.633,0.25-5.033-0.55-7.199c-0.934-1.9-1.566-3.317-1.899-4.25
					c-0.567-1.601-0.417-3.067,0.449-4.4c0.434-0.667,1.184-1.3,2.25-1.9c1.467-0.767,2.717-1.449,3.75-2.05
					c1.867-1.033,3.534-3.133,5-6.3c1.101-2.867,1.684-4.267,1.75-4.2c3.667,4.4,5.617,6.65,5.851,6.75L114,95.2
					c-1.667,0.767-3.267,1.3-4.8,1.6c-1.7,0.367-4.134,1.2-7.3,2.5C99.1,100.467,97.717,101.816,97.75,103.35z"/>
				<path style="fill-rule:evenodd;clip-rule:evenodd;fill:#FBB3B8;" d="M77.55,68.95l0.8,0.9c0.566,0.8,1,1.716,1.3,2.75
					c0.9,3.233,0.133,6.867-2.3,10.9c-1.9,3.2-6.483,4.117-13.75,2.75c-2.267-0.434-4.667-1.066-7.2-1.9l-3.1-1.15
					c0-0.8,0.3-1.833,0.9-3.1c1.2-2.567,3.316-5.067,6.35-7.5c4.3-3.467,8.434-5.117,12.4-4.95
					C74.917,67.75,76.45,68.184,77.55,68.95z"/>
				<path style="fill-rule:evenodd;clip-rule:evenodd;fill:#F3918A;" d="M79.3,71.6c1,2.433,0.934,5.2-0.2,8.3
					c-0.7,0.833-1.583,1.467-2.65,1.9c-4.267,1.867-8.25,2.184-11.95,0.95c-1.133-0.367-2.183-0.867-3.15-1.5l-1.1-0.85
					c-0.033-0.633,0.25-1.433,0.85-2.4c1.2-1.934,3.417-3.75,6.65-5.45c2.733-1.433,5.267-2.116,7.6-2.05
					C76.85,70.566,78.167,70.934,79.3,71.6z"/>
				<path style="fill-rule:evenodd;clip-rule:evenodd;fill:#C96F62;" d="M67.75,72.55c2.733-1.433,5.267-2.116,7.6-2.05
					c1.5,0.066,2.816,0.434,3.95,1.1c0.2,0.466,0.35,0.966,0.45,1.5c-1.1-0.4-2.35-0.617-3.75-0.65
					c-2.4-0.033-4.917,0.483-7.55,1.55c-2.567,1.066-4.617,2.3-6.15,3.7c-1,0.933-1.667,1.816-2,2.65c-0.1-0.633,0.217-1.5,0.95-2.6
					C62.483,75.917,64.65,74.184,67.75,72.55z"/>
				<path style="fill-rule:evenodd;clip-rule:evenodd;fill:#FBB3B8;" d="M79.95,71c0.533,0.3,0.867,0.8,1,1.5
					c0.167,0.733,0.05,1.467-0.35,2.2l-0.75,0.15c-0.533,0.1-1.017,0.466-1.45,1.1c-0.2,0.333-0.367,0.65-0.5,0.95l-0.4-1
					c-0.167-0.4-0.15-0.833,0.05-1.3l0.3-0.55l-1.4,0.75c-0.767,0.467-1.383,1.117-1.85,1.95l0.65-1.55
					c0.267-0.634,0.867-1.317,1.8-2.05l1.3-0.9l-0.9,0.2c-0.367,0.1-0.95,0.333-1.75,0.7l-1.1,0.5l1.7-1.3
					C77.267,71.617,78.483,71.167,79.95,71z"/>
				<path style="fill-rule:evenodd;clip-rule:evenodd;fill:#FEF2F3;" d="M115.25,79.95c-0.167,1.7-0.634,3.066-1.4,4.1
					c-0.767,1.067-1.616,1.5-2.55,1.3c-0.934-0.167-1.666-0.9-2.2-2.2c-0.533-1.333-0.733-2.833-0.6-4.5
					c0.167-1.667,0.634-3.033,1.4-4.1c0.767-1.066,1.616-1.5,2.55-1.3c0.934,0.167,1.666,0.917,2.2,2.25
					C115.217,76.8,115.417,78.283,115.25,79.95z"/>
				<path style="fill-rule:evenodd;clip-rule:evenodd;fill:#292727;" d="M114.1,79.8c0,1.134-0.25,2.1-0.75,2.9
					c-0.533,0.8-1.166,1.2-1.899,1.2s-1.351-0.4-1.851-1.2c-0.5-0.8-0.75-1.767-0.75-2.9c0-1.133,0.25-2.1,0.75-2.9
					c0.5-0.8,1.117-1.2,1.851-1.2s1.366,0.4,1.899,1.2C113.85,77.7,114.1,78.667,114.1,79.8z"/>
				<path style="fill-rule:evenodd;clip-rule:evenodd;fill:#FEF2F3;" d="M112.65,77.55c0,0.534-0.167,0.983-0.5,1.35
					c-0.301,0.367-0.684,0.55-1.15,0.55s-0.866-0.184-1.2-0.55c-0.333-0.367-0.5-0.816-0.5-1.35c0-0.5,0.167-0.933,0.5-1.3
					c0.334-0.367,0.733-0.55,1.2-0.55s0.85,0.183,1.15,0.55C112.483,76.617,112.65,77.05,112.65,77.55z"/>
				<path style="fill-rule:evenodd;clip-rule:evenodd;fill:#9A5459;" d="M110.45,82.7c0.5,0.167,1.066,0.017,1.7-0.45
					c0.533-0.367,0.933-0.883,1.199-1.55l0.25-0.85L113.55,81c-0.133,0.867-0.483,1.533-1.05,2c-0.5,0.434-0.983,0.517-1.45,0.25
					L110.45,82.7z"/>
				<path style="fill-rule:evenodd;clip-rule:evenodd;fill:#FEF2F3;" d="M100,83.4c-0.167,2.067-1.066,3.784-2.7,5.15
					c-1.6,1.333-3.467,1.9-5.6,1.7c-2.101-0.167-3.834-1.05-5.2-2.65c-1.366-1.633-1.967-3.483-1.8-5.55
					c0.2-2.066,1.116-3.783,2.75-5.15c1.6-1.333,3.45-1.917,5.55-1.75c2.1,0.2,3.833,1.1,5.2,2.7
					C99.566,79.483,100.167,81.333,100,83.4z"/>
				<path style="fill-rule:evenodd;clip-rule:evenodd;fill:#292727;" d="M97,83.55c0,1.467-0.533,2.733-1.6,3.8
					c-1.067,1.033-2.367,1.551-3.9,1.551s-2.833-0.518-3.9-1.551c-1.066-1.066-1.6-2.333-1.6-3.8c0-1.466,0.533-2.733,1.6-3.8
					c1.067-1.033,2.367-1.55,3.9-1.55s2.833,0.517,3.9,1.55C96.467,80.816,97,82.083,97,83.55z"/>
				<path style="fill-rule:evenodd;clip-rule:evenodd;fill:#FEF2F3;" d="M93.05,81.25c0,0.833-0.3,1.55-0.899,2.15
					c-0.567,0.6-1.267,0.9-2.101,0.9c-0.833,0-1.55-0.3-2.149-0.9c-0.567-0.566-0.851-1.283-0.851-2.15
					c0-0.833,0.283-1.55,0.851-2.15c0.6-0.6,1.316-0.9,2.149-0.9c0.834,0,1.533,0.3,2.101,0.9C92.75,79.7,93.05,80.417,93.05,81.25z
					"/>
				<path style="fill-rule:evenodd;clip-rule:evenodd;fill:#9A5459;" d="M89.4,87.1c1.033,0.233,2.216,0.051,3.55-0.55
					c1.066-0.5,1.883-1.183,2.45-2.05l0.5-1.15l-0.051,1.5c-0.3,1.133-1.033,2.017-2.199,2.65c-1.034,0.566-2.051,0.667-3.051,0.3
					L89.4,87.1z"/>
				<path style="fill-rule:evenodd;clip-rule:evenodd;fill:#F99499;" d="M81.8,115.3l0.6-2l8.2,6.601l0.301,11.6l-9.101,0.95
					c0.633-0.167,1.284-0.434,1.95-0.8c1.366-0.733,2.184-1.617,2.45-2.65c0.2-0.833-0.25-1.917-1.35-3.25
					c-1.4-1.7-2.317-3.35-2.75-4.95C81.567,118.833,81.467,117,81.8,115.3z"/>
				<path style="fill-rule:evenodd;clip-rule:evenodd;fill:#F99499;" d="M92.65,116.3l0.449-3.5l0.7,0.75
					c0.566,0.9,1.117,2.333,1.65,4.3c0.833,3.134,1.517,5.117,2.05,5.95c-0.767,0.533-1.566,0.884-2.4,1.05
					c-1.633,0.367-2.517-0.3-2.649-2C92.316,121.15,92.384,118.967,92.65,116.3z"/>
				<path style="fill-rule:evenodd;clip-rule:evenodd;fill:#FBB3B8;" d="M82.45,113.8c2.267-4.033,4.967-4.583,8.1-1.649
					c1.167,1.133,2.167,2.566,3,4.3c0.8,1.667,1.2,3.066,1.2,4.2c0,2.366,0.75,5.25,2.25,8.649c0.767,1.7,1.517,3.15,2.25,4.351
					l-1.5,0.699c-1.033,0.467-2.9,0.884-5.6,1.25c-0.101-1.1-0.4-2.399-0.9-3.899c-0.967-2.967-2.35-5.351-4.15-7.15
					c-2.366-2.366-3.85-4.866-4.45-7.5L82.45,113.8z"/>
				<path style="fill-rule:evenodd;clip-rule:evenodd;fill:#F99499;" d="M67.35,118.1c0.5-0.5,1.467-1.033,2.9-1.6
					c2.467-0.967,4.917-0.267,7.35,2.1c2.4,2.334,3.283,4.733,2.65,7.2c-0.633,2.634-0.183,4.351,1.35,5.15
					c0.8,0.399,1.65,0.533,2.55,0.399l-0.55,0.601c-0.467,0.467-0.967,0.883-1.5,1.25c-3.533,0-6.783-0.8-9.75-2.4
					c-3.2-1.767-5.583-4.25-7.15-7.45l0.1-0.6C65.6,120.65,66.283,119.1,67.35,118.1z"/>
				<path style="fill-rule:evenodd;clip-rule:evenodd;fill:#C96F62;" d="M86.95,134.65l2.5,0.199c-0.601,1.733-1.367,2.867-2.3,3.4
					c-0.934,0.533-1.967,0.617-3.101,0.25l-2.55-1.75c0.1-0.533,0.25-1.05,0.45-1.55c0.4-1.033,0.816-1.533,1.25-1.5
					c1.1,0.1,2.316,0,3.649-0.3c1.101-0.233,1.684-0.334,1.75-0.301C89.1,133.434,88.55,133.95,86.95,134.65z"/>
				<path style="fill-rule:evenodd;clip-rule:evenodd;fill:#AA5E54;" d="M81.55,134.65l2.9,1.3c2.133,0.6,3.8,0.233,5-1.101
					c-0.601,1.733-1.367,2.867-2.3,3.4c-0.934,0.533-1.967,0.617-3.101,0.25l-2.5-1.95c0.133-0.399,0.167-0.833,0.1-1.3
					L81.55,134.65z"/>
				<path style="fill-rule:evenodd;clip-rule:evenodd;fill:#FBB3B8;" d="M78.05,118.7c1.2,2.2,1.583,4.566,1.15,7.1
					c-0.233,1.434-0.833,2.55-1.8,3.351c-0.5,0.433-0.967,0.699-1.4,0.8l1.3,0.85c1.2,0.667,2.617,1.2,4.25,1.601
					c1.267,0.333,2.6,0.732,4,1.199c-0.366-0.033-0.767-0.017-1.2,0.051c-0.867,0.199-1.45,0.616-1.75,1.25
					c-0.434,0.967-0.5,1.833-0.2,2.6c-2.3-0.333-5.017-0.967-8.15-1.9c-6.2-1.833-9.15-3.916-8.85-6.25
					c0.5-1.033,0.867-1.899,1.1-2.6c0.433-1.267,0.233-2.833-0.6-4.7c-0.7-1.633-0.65-3.133,0.15-4.5
					c0.867-1.566,2.467-2.433,4.8-2.6C74.117,114.717,76.517,115.967,78.05,118.7z"/>
				<path style="fill-rule:evenodd;clip-rule:evenodd;fill:#F99499;" d="M96.05,61.35l0.05,0.2c0,0.134-0.05,0.233-0.149,0.3
					c-0.434,0.4-0.95,0.567-1.55,0.5l0.699,0.2c0.601,0.2,1.167,0.45,1.7,0.75c0.733,0.4,1.517,0.9,2.351,1.5
					c0.166,0.267-0.601,0.384-2.301,0.35c-0.899-0.033-1.666-0.117-2.3-0.25L93.9,64.7l0.3,0.25c0.2,0.233,0.35,0.533,0.45,0.9
					c0.199,0.6,0.183,1.017-0.051,1.25c-0.3,0-0.85-0.217-1.649-0.65c-0.5-0.267-0.9-0.533-1.2-0.8L91.4,65.3l-2.75-0.25L88.2,64.5
					c-0.101-0.033-0.117-0.083-0.05-0.15c0.166-0.167,0.716-0.383,1.649-0.65c0.167-0.2,0.351-0.4,0.55-0.6
					c0.467-0.467,0.9-0.767,1.301-0.9C92.316,62,93.783,61.717,96.05,61.35z"/>
				<path style="fill-rule:evenodd;clip-rule:evenodd;fill:#FBB3B8;" d="M84.2,64.7c0.433-0.4,1.05-0.833,1.85-1.3
					c1.601-0.933,3.3-1.5,5.101-1.7c2.866-0.333,4.517-0.45,4.949-0.35c-0.166,0.4-0.666,0.65-1.5,0.75l-1.3,0.1l1.601,0.55
					c1.133,0.434,1.966,0.816,2.5,1.15l1.3,0.85c-0.5,0.167-1.483,0.15-2.95-0.05c-0.9-0.1-1.6-0.233-2.1-0.4l-0.5-0.2
					c0.899,1.233,1.3,1.95,1.199,2.15l-0.1,0.3c-1-0.466-1.7-0.866-2.1-1.2L91.6,64.8L85.7,65.25c-0.533,0.033-0.934-0.05-1.2-0.25
					L84.2,64.7z"/>
				<path style="fill-rule:evenodd;clip-rule:evenodd;fill:#F99499;" d="M106.35,84.85c1.233-0.6,2.634-0.8,4.2-0.6
					c0.8,0.1,1.467,0.25,2,0.45c-1-0.167-2.233-0.033-3.7,0.4c-1.333,0.4-2.633,0.95-3.899,1.65c-0.834,0.5-1.717,1.15-2.65,1.95
					c0.233-0.434,0.584-0.917,1.05-1.45C104.283,86.184,105.283,85.383,106.35,84.85z"/>
				<path style="fill-rule:evenodd;clip-rule:evenodd;fill:#FCC6C8;" d="M106.25,91.5c0.667-2.566,1.5-4.617,2.5-6.15
					c1.533-2.367,3.116-3.65,4.75-3.85c1.934-0.267,3.267,1.283,4,4.65c0.667,3.066,0.95,5.316,0.85,6.75
					c-0.033,0.732-0.149,1.149-0.35,1.25c-0.066,0.199-0.35,0.433-0.85,0.699c-0.967,0.467-2.5,0.783-4.601,0.95
					c-1.767,0.134-3.467,0.033-5.1-0.3l-1.9-0.6C105.684,93.934,105.917,92.8,106.25,91.5z"/>
				<path style="fill-rule:evenodd;clip-rule:evenodd;fill:#F29B94;" d="M112.3,85.35c-0.267,0.7-0.366,1.433-0.3,2.2l0.45,0.7
					c0.3,0.5,0.434,0.85,0.399,1.05c-0.033,1.233-0.383,2.233-1.05,3c-0.666,0.733-1.149,0.75-1.45,0.05
					c-0.533-1.166-0.366-2.683,0.5-4.55L112.3,85.35z"/>
				<path style="fill-rule:evenodd;clip-rule:evenodd;fill:#F29B94;" d="M115.75,85.2l0.8,1.6c0.533,1.267,0.75,2.384,0.65,3.351
					c-0.101,1.1-0.316,1.75-0.65,1.949c-0.333,0.2-0.633,0-0.899-0.6c-0.367-0.867-0.334-2.066,0.1-3.6
					c0.2-0.634,0.267-1.268,0.2-1.9L115.75,85.2z"/>
			</g>
		</g>
		
			<use xlink:href="#FlashAICB_x2F_Layer_1_x2F__x3C_Path_x3E_"  width="128.65" height="61.9" y="-61.9" transform="matrix(1 0 0 -1 21.5 85.9502)" style="overflow:visible;opacity:0.4688;enable-background:new    ;"/>
		<g>
			<g>
				<g>
					<g>
						<g>
							<g>
								<g>
									
										<linearGradient id="SVGID_7_" gradientUnits="userSpaceOnUse" x1="-66.1064" y1="51.1162" x2="-33.1963" y2="51.1162" gradientTransform="matrix(0.0395 -0.9992 0.9992 0.0395 -1.055077e-004 -3.378019e-004)">
										<stop  offset="0" style="stop-color:#1E7B6A"/>
										<stop  offset="0.7098" style="stop-color:#9FE0B8"/>
									</linearGradient>
									<path style="fill-rule:evenodd;clip-rule:evenodd;fill:url(#SVGID_7_);" d="M64,37.35v0.05
										c1.233,2.233,0.433,4.967-2.4,8.2c-2.267,2.5-4.5,4.017-6.7,4.55l-0.5,0.05l-0.1,0.05l-0.9,1.7
										c-1.7,2.833-3.6,4.75-5.7,5.75l-0.25,0.1c-0.067,0.634-0.2,1.35-0.4,2.15c-0.8,3.233-2.066,5.616-3.8,7.15l-0.45,0.35
										l-0.25,0.15c-0.4,0.133-0.716,0.2-0.95,0.2c-0.4,0-0.8-0.083-1.2-0.25c-0.9-0.466-1.583-1.133-2.05-2
										c-0.033,0.034-0.267,0.134-0.7,0.3L36.85,66c-0.833,0-1.483-0.3-1.95-0.9c-1-1.167-1.35-2.7-1.05-4.6
										c0.233-1.434,0.75-2.8,1.55-4.1c1.233-1.8,2.75-3.167,4.55-4.1c-0.233-1.267,0.066-2.633,0.9-4.1
										c0.6-1.134,1.4-2.15,2.4-3.05c1.633-1.267,3.35-2.1,5.15-2.5c0.2-1.167,0.817-2.3,1.85-3.4
										c0.8-0.934,1.717-1.684,2.75-2.25c1.433-0.767,3-1.233,4.7-1.4c1.667-0.133,3.167,0.033,4.5,0.5
										C63,36.267,63.6,36.684,64,37.35z"/>
									<path style="fill-rule:evenodd;clip-rule:evenodd;fill:none;stroke:#DBF0E8;stroke-width:0.25;" d="M64,37.35
										c-0.4-0.667-1-1.083-1.8-1.25c-1.333-0.467-2.833-0.633-4.5-0.5C56,35.767,54.433,36.233,53,37
										c-1.033,0.566-1.95,1.316-2.75,2.25c-1.033,1.1-1.65,2.233-1.85,3.4c-1.8,0.4-3.517,1.233-5.15,2.5
										c-1,0.9-1.8,1.917-2.4,3.05c-0.833,1.467-1.133,2.833-0.9,4.1c-1.8,0.934-3.317,2.3-4.55,4.1
										c-0.8,1.3-1.316,2.667-1.55,4.1c-0.3,1.9,0.05,3.434,1.05,4.6c0.467,0.6,1.117,0.9,1.95,0.9l0.8-0.15
										c0.434-0.167,0.667-0.267,0.7-0.3c0.467,0.867,1.15,1.534,2.05,2c0.4,0.167,0.8,0.25,1.2,0.25c0.233,0,0.55-0.066,0.95-0.2
										l0.25-0.15l0.45-0.35c1.733-1.534,3-3.917,3.8-7.15c0.2-0.8,0.333-1.517,0.4-2.15l0.25-0.1c2.1-1,4-2.917,5.7-5.75l0.9-1.7
										l0.1-0.05l0.5-0.05c2.2-0.533,4.434-2.05,6.7-4.55c2.833-3.233,3.633-5.967,2.4-8.2V37.35z"/>
								</g>
							</g>
							<path style="fill-rule:evenodd;clip-rule:evenodd;fill:#1C3330;" d="M51.25,40.7c0.733-0.9,1.6-1.634,2.6-2.2
								c1.267-0.667,2.633-1.066,4.1-1.2c1.433-0.133,2.716,0.034,3.85,0.5h0.05c0.267,0,0.483,0.134,0.65,0.4
								c0.5,0.9,0.45,2.017-0.15,3.35c-0.467,1-1.133,1.95-2,2.85c-2.033,2.267-4,3.633-5.9,4.1h-0.3c-0.233,0-0.433-0.1-0.6-0.3
								l-0.2-0.4c-0.267,1.067-0.733,2.134-1.4,3.2c-1.6,2.633-3.267,4.35-5,5.15l-0.3,0.1H46.6c-0.233,0-0.417-0.066-0.55-0.2
								l-0.3-0.3c0.133,1.066,0.017,2.316-0.35,3.75c-0.8,2.934-1.9,5.05-3.3,6.35l-0.55,0.25l-0.4-0.1
								c-0.967-0.5-1.6-1.483-1.9-2.95c-0.767,0.534-1.483,0.917-2.15,1.15l-0.2,0.05h-0.1c-0.233,0-0.433-0.083-0.6-0.25
								c-0.7-0.833-0.9-2-0.6-3.5c0.2-1.1,0.617-2.167,1.25-3.2c1.5-2.167,3.4-3.55,5.7-4.15h-0.2c-0.233-0.1-0.4-0.25-0.5-0.45
								c-0.434-1-0.3-2.184,0.4-3.55c0.567-1.033,1.283-1.933,2.15-2.7c1.667-1.367,3.583-2.134,5.75-2.3L50.1,44.1
								C49.867,43.033,50.25,41.9,51.25,40.7z"/>
							<g>
								<g>
									<g>
										<g>
											<g>
												<g>
													<g>
														
															<linearGradient id="SVGID_8_" gradientUnits="userSpaceOnUse" x1="14.0386" y1="67.3945" x2="25.708" y2="67.3945" gradientTransform="matrix(0.7969 -0.6041 0.6041 0.7969 8.583069e-006 1.906753e-004)">
															<stop  offset="0" style="stop-color:#58E1A8"/>
															<stop  offset="0.1216" style="stop-color:#53CC98"/>
															<stop  offset="0.3922" style="stop-color:#49A378"/>
															<stop  offset="0.6353" style="stop-color:#428560"/>
															<stop  offset="0.8471" style="stop-color:#3E7352"/>
															<stop  offset="1" style="stop-color:#3C6C4D"/>
														</linearGradient>
														<path style="fill-rule:evenodd;clip-rule:evenodd;fill:url(#SVGID_8_);" d="M61.5,38.55
															c0.1,0.767-0.333,1.567-1.3,2.4c-0.733,0.633-1.617,1.183-2.65,1.65c-2.633,1.2-4.833,1.65-6.6,1.35
															c0.267-0.233,0.9-0.717,1.9-1.45c1.066-0.767,1.833-1.35,2.3-1.75C57.15,39.05,59.267,38.316,61.5,38.55z"/>
														<path style="fill-rule:evenodd;clip-rule:evenodd;fill:#DEF3EA;" d="M50.85,43.95c-0.167-0.833,0.15-1.733,0.95-2.7
															c0.667-0.867,1.483-1.566,2.45-2.1c1.167-0.6,2.4-0.966,3.7-1.1c1.333-0.133,2.517,0.017,3.55,0.45
															c-0.9-0.066-1.833,0.133-2.8,0.6c-0.567,0.267-1.417,0.767-2.55,1.5C54.15,42.133,52.383,43.25,50.85,43.95z"/>
													</g>
													<g>
														
															<linearGradient id="SVGID_9_" gradientUnits="userSpaceOnUse" x1="-14.7817" y1="72.3433" x2="-3.1162" y2="72.3433" gradientTransform="matrix(0.4929 -0.8701 0.8701 0.4929 7.331371e-005 -5.978346e-005)">
															<stop  offset="0" style="stop-color:#58E1A8"/>
															<stop  offset="0.1216" style="stop-color:#53CC98"/>
															<stop  offset="0.3922" style="stop-color:#49A378"/>
															<stop  offset="0.6353" style="stop-color:#428560"/>
															<stop  offset="0.8471" style="stop-color:#3E7352"/>
															<stop  offset="1" style="stop-color:#3C6C4D"/>
														</linearGradient>
														<path style="fill-rule:evenodd;clip-rule:evenodd;fill:url(#SVGID_9_);" d="M61.85,38.6
															c0.367,0.667,0.283,1.583-0.25,2.75c-0.434,0.867-1.033,1.716-1.8,2.55c-1.933,2.133-3.767,3.417-5.5,3.85
															c1.2-2.033,2.05-3.583,2.55-4.65C58.05,40.733,59.717,39.233,61.85,38.6z"/>
														<path style="fill-rule:evenodd;clip-rule:evenodd;fill:#DEF3EA;" d="M54.2,47.75c-0.467-0.7-0.534-1.65-0.2-2.85
															c0.267-1.033,0.733-2,1.4-2.9c0.8-1,1.783-1.816,2.95-2.45c1.2-0.633,2.367-0.966,3.5-1
															c-0.867,0.3-1.667,0.85-2.4,1.65c-0.4,0.467-0.967,1.267-1.7,2.4C56.517,44.8,55.333,46.517,54.2,47.75z"/>
													</g>
												</g>
											</g>
										</g>
									</g>
								</g>
								<g>
									<g>
										<g>
											<g>
												<g>
													<g>
														
															<linearGradient id="SVGID_10_" gradientUnits="userSpaceOnUse" x1="-10.8667" y1="68.2378" x2="0.8047" y2="68.2378" gradientTransform="matrix(0.6641 -0.7476 0.7476 0.6641 2.589226e-004 4.611611e-004)">
															<stop  offset="0" style="stop-color:#58E1A8"/>
															<stop  offset="0.1216" style="stop-color:#53CC98"/>
															<stop  offset="0.3922" style="stop-color:#49A378"/>
															<stop  offset="0.6353" style="stop-color:#428560"/>
															<stop  offset="0.8471" style="stop-color:#3E7352"/>
															<stop  offset="1" style="stop-color:#3C6C4D"/>
														</linearGradient>
														<path style="fill-rule:evenodd;clip-rule:evenodd;fill:url(#SVGID_10_);" d="M51.95,45.05
															c0.233,0.733-0.05,1.6-0.85,2.6c-0.6,0.8-1.35,1.5-2.25,2.1c-2.3,1.733-4.367,2.617-6.2,2.65
															c1.6-1.733,2.75-3.066,3.45-4C47.8,46.333,49.75,45.217,51.95,45.05z"/>
														<path style="fill-rule:evenodd;clip-rule:evenodd;fill:#DEF3EA;" d="M42.55,52.4c-0.333-0.767-0.216-1.716,0.35-2.85
															c0.5-0.933,1.167-1.767,2-2.5c1-0.833,2.15-1.433,3.45-1.8c1.3-0.4,2.5-0.483,3.6-0.25
															c-0.867,0.1-1.75,0.467-2.65,1.1c-0.5,0.367-1.233,1.033-2.2,2C45.3,50.1,43.783,51.533,42.55,52.4z"/>
													</g>
													<g>
														
															<linearGradient id="SVGID_11_" gradientUnits="userSpaceOnUse" x1="-37.936" y1="63.3003" x2="-26.2672" y2="63.3003" gradientTransform="matrix(0.3149 -0.9491 0.9491 0.3149 -2.915561e-004 7.116795e-005)">
															<stop  offset="0" style="stop-color:#58E1A8"/>
															<stop  offset="0.1216" style="stop-color:#53CC98"/>
															<stop  offset="0.3922" style="stop-color:#49A378"/>
															<stop  offset="0.6353" style="stop-color:#428560"/>
															<stop  offset="0.8471" style="stop-color:#3E7352"/>
															<stop  offset="1" style="stop-color:#3C6C4D"/>
														</linearGradient>
														<path style="fill-rule:evenodd;clip-rule:evenodd;fill:url(#SVGID_11_);" d="M52.25,45c0.5,0.6,0.6,1.517,0.3,2.75
															c-0.233,0.967-0.65,1.917-1.25,2.85c-1.466,2.5-3.017,4.117-4.65,4.85c0.067-0.3,0.317-1.067,0.75-2.3
															c0.434-1.2,0.717-2.117,0.85-2.75C48.983,47.867,50.317,46.066,52.25,45z"/>
														<path style="fill-rule:evenodd;clip-rule:evenodd;fill:#DEF3EA;" d="M46.55,55.5c-0.6-0.566-0.85-1.483-0.75-2.75
															c0.067-1.066,0.333-2.117,0.8-3.15c0.6-1.133,1.417-2.117,2.45-2.95c1.034-0.867,2.1-1.417,3.2-1.65
															c-0.767,0.434-1.433,1.117-2,2.05c-0.333,0.567-0.733,1.467-1.2,2.7C48.183,52.25,47.35,54.167,46.55,55.5z"/>
													</g>
												</g>
											</g>
										</g>
									</g>
								</g>
								<g>
									<g>
										<g>
											<g>
												<g>
													<g>
														
															<linearGradient id="SVGID_12_" gradientUnits="userSpaceOnUse" x1="-42.0444" y1="61.7456" x2="-30.3562" y2="61.7456" gradientTransform="matrix(0.4214 -0.9069 0.9069 0.4214 -4.513860e-004 2.571344e-004)">
															<stop  offset="0" style="stop-color:#58E1A8"/>
															<stop  offset="0.1216" style="stop-color:#53CC98"/>
															<stop  offset="0.3922" style="stop-color:#49A378"/>
															<stop  offset="0.6353" style="stop-color:#428560"/>
															<stop  offset="0.8471" style="stop-color:#3E7352"/>
															<stop  offset="1" style="stop-color:#3C6C4D"/>
														</linearGradient>
														<path style="fill-rule:evenodd;clip-rule:evenodd;fill:url(#SVGID_12_);" d="M43.65,53.75
															c0.434,0.633,0.417,1.55-0.05,2.75c-0.333,0.9-0.85,1.8-1.55,2.7c-1.767,2.3-3.5,3.733-5.2,4.3
															c1.066-2.133,1.8-3.75,2.2-4.85C40.083,56.184,41.617,54.55,43.65,53.75z"/>
														<path style="fill-rule:evenodd;clip-rule:evenodd;fill:#DEF3EA;" d="M36.8,63.5c-0.533-0.633-0.683-1.566-0.45-2.8
															c0.167-1.033,0.55-2.033,1.15-3c0.733-1.1,1.65-2,2.75-2.7c1.133-0.733,2.267-1.15,3.4-1.25
															c-0.8,0.333-1.533,0.934-2.2,1.8c-0.367,0.467-0.883,1.317-1.55,2.55C38.8,60.467,37.767,62.267,36.8,63.5z"/>
													</g>
													<g>
														
															<linearGradient id="SVGID_13_" gradientUnits="userSpaceOnUse" x1="-64.1118" y1="44.9746" x2="-52.4323" y2="44.9746" gradientTransform="matrix(0.0278 -0.9996 0.9996 0.0278 -4.100204e-004 2.802610e-004)">
															<stop  offset="0" style="stop-color:#58E1A8"/>
															<stop  offset="0.1216" style="stop-color:#53CC98"/>
															<stop  offset="0.3922" style="stop-color:#49A378"/>
															<stop  offset="0.6353" style="stop-color:#428560"/>
															<stop  offset="0.8471" style="stop-color:#3E7352"/>
															<stop  offset="1" style="stop-color:#3C6C4D"/>
														</linearGradient>
														<path style="fill-rule:evenodd;clip-rule:evenodd;fill:url(#SVGID_13_);" d="M44,53.65
															c0.633,0.434,0.983,1.284,1.05,2.55c0.034,1-0.1,2.033-0.4,3.1c-0.767,2.833-1.783,4.817-3.05,5.95
															c-0.033-0.333-0.017-1.133,0.05-2.4c0.067-1.3,0.083-2.25,0.05-2.85C41.633,57.367,42.4,55.25,44,53.65z"/>
														<path style="fill-rule:evenodd;clip-rule:evenodd;fill:#DEF3EA;" d="M41.5,65.3c-0.733-0.366-1.233-1.167-1.5-2.4
															c-0.233-1.033-0.267-2.1-0.1-3.2c0.267-1.3,0.75-2.5,1.45-3.6c0.767-1.1,1.633-1.917,2.6-2.45
															c-0.633,0.633-1.067,1.467-1.3,2.5c-0.167,0.633-0.3,1.617-0.4,2.95C42.117,61.867,41.867,63.934,41.5,65.3z"/>
													</g>
												</g>
											</g>
										</g>
									</g>
								</g>
							</g>
						</g>
					</g>
				</g>
			</g>
			<g>
				<g>
					<g>
						<g>
							<g>
								<g>
									<linearGradient id="SVGID_14_" gradientUnits="userSpaceOnUse" x1="124.0068" y1="35.2607" x2="120.8068" y2="68.0107">
										<stop  offset="0" style="stop-color:#1E7B6A"/>
										<stop  offset="0.7098" style="stop-color:#9FE0B8"/>
									</linearGradient>
									<path style="fill-rule:evenodd;clip-rule:evenodd;fill:url(#SVGID_14_);" d="M107.7,37.35
										c0.366-0.667,0.95-1.083,1.75-1.25c1.333-0.467,2.833-0.633,4.5-0.5c1.7,0.167,3.283,0.633,4.75,1.4
										c1,0.566,1.916,1.316,2.75,2.25c1,1.1,1.6,2.233,1.8,3.4c1.8,0.4,3.517,1.233,5.15,2.5c1,0.9,1.8,1.917,2.399,3.05
										c0.834,1.467,1.134,2.833,0.9,4.1c1.8,0.934,3.316,2.3,4.55,4.1c0.833,1.3,1.35,2.667,1.55,4.1
										c0.3,1.9-0.05,3.434-1.05,4.6c-0.434,0.6-1.083,0.9-1.95,0.9l-0.8-0.15l-0.7-0.3c-0.467,0.867-1.149,1.534-2.05,2
										c-0.4,0.167-0.8,0.25-1.2,0.25c-0.233,0-0.55-0.066-0.95-0.2l-0.25-0.15L128.4,67.1c-1.733-1.534-3-3.917-3.801-7.15
										c-0.199-0.8-0.333-1.517-0.399-2.15l-0.25-0.1c-2.101-1-4-2.917-5.7-5.75l-0.9-1.7l-0.1-0.05l-0.5-0.05
										c-2.2-0.533-4.434-2.05-6.7-4.55c-2.833-3.233-3.633-5.967-2.399-8.2L107.7,37.35z"/>
									<path style="fill-rule:evenodd;clip-rule:evenodd;fill:none;stroke:#DBF0E8;stroke-width:0.25;" d="M107.7,37.35
										c0.366-0.667,0.95-1.083,1.75-1.25c1.333-0.467,2.833-0.633,4.5-0.5c1.7,0.167,3.283,0.633,4.75,1.4
										c1,0.566,1.916,1.316,2.75,2.25c1,1.1,1.6,2.233,1.8,3.4c1.8,0.4,3.517,1.233,5.15,2.5c1,0.9,1.8,1.917,2.399,3.05
										c0.834,1.467,1.134,2.833,0.9,4.1c1.8,0.934,3.316,2.3,4.55,4.1c0.833,1.3,1.35,2.667,1.55,4.1
										c0.3,1.9-0.05,3.434-1.05,4.6c-0.434,0.6-1.083,0.9-1.95,0.9l-0.8-0.15l-0.7-0.3c-0.467,0.867-1.149,1.534-2.05,2
										c-0.4,0.167-0.8,0.25-1.2,0.25c-0.233,0-0.55-0.066-0.95-0.2l-0.25-0.15L128.4,67.1c-1.733-1.534-3-3.917-3.801-7.15
										c-0.199-0.8-0.333-1.517-0.399-2.15l-0.25-0.1c-2.101-1-4-2.917-5.7-5.75l-0.9-1.7l-0.1-0.05l-0.5-0.05
										c-2.2-0.533-4.434-2.05-6.7-4.55c-2.833-3.233-3.633-5.967-2.399-8.2L107.7,37.35z"/>
								</g>
							</g>
							<path style="fill-rule:evenodd;clip-rule:evenodd;fill:#1C3330;" d="M111.3,44.4c-0.866-0.9-1.517-1.85-1.95-2.85
								c-0.633-1.333-0.699-2.45-0.199-3.35c0.166-0.267,0.399-0.4,0.699-0.4h0.051c1.1-0.466,2.366-0.633,3.8-0.5
								c1.467,0.134,2.833,0.534,4.1,1.2c1,0.566,1.884,1.3,2.65,2.2c0.967,1.2,1.333,2.333,1.1,3.4l-0.05,0.05
								c2.167,0.167,4.083,0.934,5.75,2.3c0.9,0.767,1.616,1.667,2.15,2.7c0.699,1.367,0.833,2.55,0.399,3.55
								c-0.1,0.2-0.267,0.35-0.5,0.45h-0.2c2.301,0.6,4.2,1.983,5.7,4.15c0.634,1.034,1.05,2.1,1.25,3.2
								c0.3,1.5,0.101,2.667-0.6,3.5c-0.167,0.167-0.367,0.25-0.601,0.25h-0.1l-0.2-0.05c-0.7-0.233-1.399-0.617-2.1-1.15
								c-0.367,1.5-1.017,2.483-1.95,2.95l-0.4,0.1l-0.55-0.25c-1.5-1.4-2.583-3.517-3.25-6.35c-0.399-1.333-0.533-2.583-0.399-3.75
								l-0.25,0.3c-0.134,0.134-0.317,0.2-0.551,0.2H125l-0.3-0.1c-1.767-0.833-3.434-2.55-5-5.15c-0.667-1.1-1.117-2.167-1.351-3.2
								l-0.25,0.4c-0.133,0.2-0.333,0.3-0.6,0.3h-0.3C115.3,48.033,113.333,46.667,111.3,44.4z"/>
							<g>
								<g>
									<g>
										<g>
											<g>
												<g>
													<g>
														<linearGradient id="SVGID_15_" gradientUnits="userSpaceOnUse" x1="119.75" y1="45.2251" x2="110.451" y2="38.1758">
															<stop  offset="0" style="stop-color:#58E1A8"/>
															<stop  offset="0.1216" style="stop-color:#53CC98"/>
															<stop  offset="0.3922" style="stop-color:#49A378"/>
															<stop  offset="0.6353" style="stop-color:#428560"/>
															<stop  offset="0.8471" style="stop-color:#3E7352"/>
															<stop  offset="1" style="stop-color:#3C6C4D"/>
														</linearGradient>
														<path style="fill-rule:evenodd;clip-rule:evenodd;fill:url(#SVGID_15_);" d="M110.15,38.55
															c2.233-0.233,4.35,0.5,6.35,2.2c0.467,0.4,1.233,0.983,2.3,1.75c1.033,0.733,1.667,1.217,1.9,1.45
															c-1.767,0.3-3.967-0.15-6.601-1.35c-1.033-0.467-1.916-1.017-2.649-1.65C110.483,40.117,110.05,39.316,110.15,38.55z"
															/>
														<path style="fill-rule:evenodd;clip-rule:evenodd;fill:#DEF3EA;" d="M120.8,43.95c-1.533-0.7-3.3-1.817-5.3-3.35
															c-1.134-0.733-1.983-1.233-2.55-1.5c-0.967-0.467-1.9-0.667-2.8-0.6c1.033-0.434,2.216-0.583,3.55-0.45
															c1.333,0.134,2.566,0.5,3.7,1.1c0.966,0.534,1.783,1.233,2.449,2.1C120.65,42.217,120.967,43.117,120.8,43.95z"/>
													</g>
													<g>
														
															<linearGradient id="SVGID_16_" gradientUnits="userSpaceOnUse" x1="116.0156" y1="48.5342" x2="110.2656" y2="38.3842">
															<stop  offset="0" style="stop-color:#58E1A8"/>
															<stop  offset="0.1216" style="stop-color:#53CC98"/>
															<stop  offset="0.3922" style="stop-color:#49A378"/>
															<stop  offset="0.6353" style="stop-color:#428560"/>
															<stop  offset="0.8471" style="stop-color:#3E7352"/>
															<stop  offset="1" style="stop-color:#3C6C4D"/>
														</linearGradient>
														<path style="fill-rule:evenodd;clip-rule:evenodd;fill:url(#SVGID_16_);" d="M109.8,38.6c2.134,0.633,3.8,2.133,5,4.5
															c0.5,1.067,1.367,2.617,2.601,4.65c-1.767-0.434-3.617-1.717-5.551-3.85c-0.767-0.833-1.35-1.683-1.75-2.55
															C109.533,40.184,109.434,39.267,109.8,38.6z"/>
														<path style="fill-rule:evenodd;clip-rule:evenodd;fill:#DEF3EA;" d="M117.45,47.75c-1.134-1.233-2.316-2.95-3.55-5.15
															c-0.7-1.133-1.267-1.933-1.7-2.4c-0.733-0.8-1.517-1.35-2.351-1.65c1.134,0.034,2.284,0.367,3.45,1
															c1.167,0.634,2.15,1.45,2.95,2.45c0.667,0.9,1.15,1.867,1.45,2.9C118,46.1,117.917,47.05,117.45,47.75z"/>
													</g>
												</g>
											</g>
										</g>
									</g>
								</g>
								<g>
									<g>
										<g>
											<g>
												<g>
													<g>
														
															<linearGradient id="SVGID_17_" gradientUnits="userSpaceOnUse" x1="127.8555" y1="53.4355" x2="120.1042" y2="44.7091">
															<stop  offset="0" style="stop-color:#58E1A8"/>
															<stop  offset="0.1216" style="stop-color:#53CC98"/>
															<stop  offset="0.3922" style="stop-color:#49A378"/>
															<stop  offset="0.6353" style="stop-color:#428560"/>
															<stop  offset="0.8471" style="stop-color:#3E7352"/>
															<stop  offset="1" style="stop-color:#3C6C4D"/>
														</linearGradient>
														<path style="fill-rule:evenodd;clip-rule:evenodd;fill:url(#SVGID_17_);" d="M119.7,45.05
															c2.233,0.167,4.184,1.284,5.85,3.35c0.367,0.5,1,1.233,1.9,2.2c0.833,0.933,1.35,1.533,1.55,1.8
															c-1.833-0.033-3.884-0.917-6.15-2.65c-0.899-0.6-1.666-1.3-2.3-2.1C119.75,46.65,119.467,45.783,119.7,45.05z"/>
														<path style="fill-rule:evenodd;clip-rule:evenodd;fill:#DEF3EA;" d="M129.1,52.4c-1.233-0.867-2.75-2.3-4.55-4.3
															c-1-1-1.717-1.667-2.149-2c-0.9-0.633-1.784-1-2.65-1.1c1.1-0.233,2.3-0.15,3.6,0.25c1.267,0.367,2.4,0.967,3.4,1.8
															c0.833,0.733,1.5,1.567,2,2.5C129.316,50.684,129.434,51.633,129.1,52.4z"/>
													</g>
													<g>
														
															<linearGradient id="SVGID_18_" gradientUnits="userSpaceOnUse" x1="123.5186" y1="55.9414" x2="119.8436" y2="44.8664">
															<stop  offset="0" style="stop-color:#58E1A8"/>
															<stop  offset="0.1216" style="stop-color:#53CC98"/>
															<stop  offset="0.3922" style="stop-color:#49A378"/>
															<stop  offset="0.6353" style="stop-color:#428560"/>
															<stop  offset="0.8471" style="stop-color:#3E7352"/>
															<stop  offset="1" style="stop-color:#3C6C4D"/>
														</linearGradient>
														<path style="fill-rule:evenodd;clip-rule:evenodd;fill:url(#SVGID_18_);" d="M119.4,45c1.933,1.066,3.267,2.867,4,5.4
															c0.133,0.6,0.433,1.517,0.899,2.75c0.4,1.167,0.634,1.934,0.7,2.3c-1.634-0.767-3.184-2.384-4.65-4.85
															c-0.6-0.933-1.017-1.883-1.25-2.85C118.8,46.517,118.9,45.6,119.4,45z"/>
														<path style="fill-rule:evenodd;clip-rule:evenodd;fill:#DEF3EA;" d="M125.1,55.5c-0.866-1.434-1.683-3.35-2.449-5.75
															c-0.534-1.3-0.95-2.2-1.25-2.7c-0.567-0.933-1.233-1.616-2-2.05c1.1,0.233,2.166,0.783,3.199,1.65
															c1.034,0.833,1.851,1.817,2.45,2.95c0.467,1.033,0.733,2.083,0.8,3.15C125.95,54.017,125.7,54.934,125.1,55.5z"/>
													</g>
												</g>
											</g>
										</g>
									</g>
								</g>
								<g>
									<g>
										<g>
											<g>
												<g>
													<g>
														<linearGradient id="SVGID_19_" gradientUnits="userSpaceOnUse" x1="133.374" y1="64.145" x2="128.449" y2="53.545">
															<stop  offset="0" style="stop-color:#58E1A8"/>
															<stop  offset="0.1216" style="stop-color:#53CC98"/>
															<stop  offset="0.3922" style="stop-color:#49A378"/>
															<stop  offset="0.6353" style="stop-color:#428560"/>
															<stop  offset="0.8471" style="stop-color:#3E7352"/>
															<stop  offset="1" style="stop-color:#3C6C4D"/>
														</linearGradient>
														<path style="fill-rule:evenodd;clip-rule:evenodd;fill:url(#SVGID_19_);" d="M128,53.75
															c2.1,0.833,3.634,2.467,4.6,4.9c0.4,1.1,1.134,2.717,2.2,4.85c-1.7-0.566-3.434-2-5.2-4.3
															c-0.699-0.9-1.216-1.8-1.55-2.7C127.583,55.3,127.566,54.383,128,53.75z"/>
														<path style="fill-rule:evenodd;clip-rule:evenodd;fill:#DEF3EA;" d="M134.85,63.5c-0.933-1.233-1.966-3.033-3.1-5.4
															c-0.667-1.233-1.184-2.083-1.55-2.55c-0.634-0.866-1.367-1.466-2.2-1.8c1.134,0.1,2.267,0.517,3.4,1.25
															c1.1,0.7,2.017,1.6,2.75,2.7c0.6,0.967,1,1.967,1.199,3C135.55,61.934,135.384,62.867,134.85,63.5z"/>
													</g>
													<g>
														
															<linearGradient id="SVGID_20_" gradientUnits="userSpaceOnUse" x1="128.4766" y1="65.3384" x2="128.1516" y2="53.6634">
															<stop  offset="0" style="stop-color:#58E1A8"/>
															<stop  offset="0.1216" style="stop-color:#53CC98"/>
															<stop  offset="0.3922" style="stop-color:#49A378"/>
															<stop  offset="0.6353" style="stop-color:#428560"/>
															<stop  offset="0.8471" style="stop-color:#3E7352"/>
															<stop  offset="1" style="stop-color:#3C6C4D"/>
														</linearGradient>
														<path style="fill-rule:evenodd;clip-rule:evenodd;fill:url(#SVGID_20_);" d="M127.65,53.65
															c1.6,1.6,2.366,3.717,2.3,6.35c-0.066,1.167-0.017,2.917,0.149,5.25c-1.3-1.133-2.333-3.117-3.1-5.95
															c-0.3-1.066-0.434-2.1-0.4-3.1C126.667,54.934,127.017,54.083,127.65,53.65z"/>
														<path style="fill-rule:evenodd;clip-rule:evenodd;fill:#DEF3EA;" d="M130.15,65.3c-0.367-1.366-0.617-3.433-0.75-6.2
															c-0.101-1.333-0.233-2.317-0.4-2.95c-0.233-1.033-0.667-1.867-1.3-2.5c1,0.534,1.866,1.35,2.6,2.45
															s1.217,2.3,1.45,3.6c0.167,1.1,0.134,2.167-0.1,3.2C131.384,64.133,130.884,64.934,130.15,65.3z"/>
													</g>
												</g>
											</g>
										</g>
									</g>
								</g>
							</g>
						</g>
					</g>
				</g>
			</g>
		</g>
		<g>
			
				<use xlink:href="#FlashAICB_x2F_Layer_1_x2F__x3C_Path_x3E__x5F_1_x5F_0"  width="119.25" height="60.45" y="-60.45" transform="matrix(1 0 0 -1 26.2002 22.2002)" style="overflow:visible;opacity:0.1992;enable-background:new    ;"/>
			
				<use xlink:href="#FlashAICB_x2F_Layer_1_x2F__x3C_Path_x3E__x5F_0"  width="119.25" height="66.434" y="-66.434" transform="matrix(1 0 0 -1 26.2002 22.2002)" style="overflow:visible;opacity:0.1211;enable-background:new    ;"/>
		</g>
	</g>
</g>
</svg>
