<?xml version="1.0" encoding="iso-8859-1"?>
<!-- Generator: Adobe Illustrator 15.1.0, SVG Export Plug-In . SVG Version: 6.00 Build 0)  -->
<!DOCTYPE svg PUBLIC "-//W3C//DTD SVG 1.1//EN" "http://www.w3.org/Graphics/SVG/1.1/DTD/svg11.dtd">
<svg version="1.1" id="FlashAICB" xmlns="http://www.w3.org/2000/svg" xmlns:xlink="http://www.w3.org/1999/xlink" x="0px" y="0px"
	 width="171px" height="171.3px" viewBox="0 0 171 171.3" style="enable-background:new 0 0 171 171.3;" xml:space="preserve">
<symbol  id="FlashAICB_x5F_0_x2F_Layer_1_x2F__x3C_Clip_Group_0_x3E_" viewBox="0 -34.8 23.85 34.8">
	<g id="Layer_1_18_">
	</g>
	<g>
		<defs>
			<polygon id="SVGID_1_" points="1.6,0 0,-33.75 22.25,-34.8 23.85,-1.05 			"/>
		</defs>
		<clipPath id="SVGID_2_">
			<use xlink:href="#SVGID_1_"  style="overflow:visible;"/>
		</clipPath>
		<g id="Layer_3_13_" style="clip-path:url(#SVGID_2_);">
			
				<use xlink:href="#FlashAICB_x5F_0_x2F_Layer_1_x2F__x3C_Clip_Group_0_x3E__x5F_0"  width="23.85" height="34.8" y="-34.8" style="overflow:visible;"/>
		</g>
	</g>
	<g id="Layer_4_13_">
	</g>
</symbol>
<symbol  id="FlashAICB_x5F_0_x2F_Layer_1_x2F__x3C_Clip_Group_0_x3E__x5F_0" viewBox="0 -34.8 23.85 34.8">
	<g id="Layer_1_11_">
	</g>
	<g>
		<defs>
			<path id="SVGID_3_" d="M12.1-0.5l-1.2-24.45l-0.25-1.4c-0.3-1.167-0.75-2.217-1.35-3.15c-1.585-2.433-3.952-3.825-7.1-4.175
				c4.305,0.285,8.455,1.327,12.45,3.125c3.967,1.767,6.65,3.65,8.05,5.65l1.15,23.85L12.1-0.5z"/>
		</defs>
		<clipPath id="SVGID_4_">
			<use xlink:href="#SVGID_3_"  style="overflow:visible;"/>
		</clipPath>
		<g id="Layer_3_9_" style="clip-path:url(#SVGID_4_);">
			<linearGradient id="SVGID_5_" gradientUnits="userSpaceOnUse" x1="0.7983" y1="-16.8735" x2="22.9983" y2="-17.9235">
				<stop  offset="0" style="stop-color:#FF283A"/>
				<stop  offset="0.9725" style="stop-color:#CA1D0D"/>
				<stop  offset="1" style="stop-color:#C91D0B"/>
			</linearGradient>
			<polygon style="fill-rule:evenodd;clip-rule:evenodd;fill:url(#SVGID_5_);" points="1.6,0 23.85,-1.05 22.25,-34.8 0,-33.75 			
				"/>
		</g>
	</g>
	<g id="Layer_4_9_">
	</g>
</symbol>
<symbol  id="FlashAICB_x5F_0_x2F_Layer_1_x2F__x3C_Clip_Group_0_x3E__x5F_1" viewBox="0 -19 54.85 19">
	<g id="Layer_1_13_">
	</g>
	<g>
		<defs>
			<path id="SVGID_6_" d="M48.1-5.1c-0.133,0.067,0.033,0.4,0.5,1c0.467,0.567,0.617,0.883,0.45,0.95
				c-0.2,0.066-2.283-0.083-6.25-0.45c-0.8-0.066-2.833,0.25-6.1,0.95C33-1.85,30.033-1.4,27.8-1.3
				C20.333-0.967,13.917-1.467,8.55-2.8C3.217-4.167,0.5-5.983,0.4-8.25s2.45-4.317,7.65-6.15c5.2-1.867,11.534-2.967,19-3.3
				c7.434-0.367,13.833,0.133,19.2,1.5c5.367,1.333,8.1,3.133,8.2,5.4C54.55-8.7,52.433-6.8,48.1-5.1z"/>
		</defs>
		<clipPath id="SVGID_7_">
			<use xlink:href="#SVGID_6_"  style="overflow:visible;"/>
		</clipPath>
		<g id="Layer_3_11_" style="clip-path:url(#SVGID_7_);">
			<linearGradient id="SVGID_8_" gradientUnits="userSpaceOnUse" x1="0.4624" y1="-8.228" x2="54.3374" y2="-10.778">
				<stop  offset="0" style="stop-color:#373737"/>
				<stop  offset="0.3686" style="stop-color:#595959"/>
				<stop  offset="0.5765" style="stop-color:#525252"/>
				<stop  offset="0.7647" style="stop-color:#5E5E5E"/>
				<stop  offset="1" style="stop-color:#525252"/>
			</linearGradient>
			<polygon style="fill-rule:evenodd;clip-rule:evenodd;fill:url(#SVGID_8_);" points="54.05,-19 0,-16.45 0.8,0 54.85,-2.6 			"/>
		</g>
	</g>
	<g id="Layer_4_11_">
	</g>
</symbol>
<symbol  id="FlashAICB_x5F_0_x2F_Layer_1_x2F__x3C_Clip_Group_0_x3E__x5F_10" viewBox="0 -11.9 12.2 11.9">
	<g id="Layer_1_3_">
	</g>
	<g>
		<defs>
			<path id="SVGID_9_" d="M5.05-2.85L4.65-2.8C4.083-2.767,3.367-2.817,2.5-2.95L2.65-4c0.033-0.133,0.467-0.267,1.3-0.4
				C4.883-4.533,5.633-4.9,6.2-5.5C7.333-6.633,7.933-7.717,8-8.75C8.5-9.017,8.933-8.633,9.3-7.6c0.367,1,0.583,2.417,0.65,4.25
				C7.183-3.117,5.55-2.95,5.05-2.85z"/>
		</defs>
		<clipPath id="SVGID_10_">
			<use xlink:href="#SVGID_9_"  style="overflow:visible;"/>
		</clipPath>
		<g id="Layer_3_1_" style="clip-path:url(#SVGID_10_);">
			<linearGradient id="SVGID_11_" gradientUnits="userSpaceOnUse" x1="1.9727" y1="-3.9053" x2="4.6977" y2="-5.2553">
				<stop  offset="0" style="stop-color:#6E7073"/>
				<stop  offset="1" style="stop-color:#565759"/>
			</linearGradient>
			<polygon style="fill-rule:evenodd;clip-rule:evenodd;fill:url(#SVGID_11_);" points="3.85,0 12.2,-4.15 8.35,-11.9 0,-7.75 			
				"/>
		</g>
	</g>
	<g id="Layer_4_1_">
	</g>
</symbol>
<symbol  id="FlashAICB_x5F_0_x2F_Layer_1_x2F__x3C_Clip_Group_0_x3E__x5F_11" viewBox="0 -7.65 7.9 7.65">
	<g id="Layer_1_14_">
	</g>
	<g>
		<defs>
			<path id="SVGID_12_" d="M7.75-0.35c-0.5-0.167-1-0.283-1.5-0.35c-0.167-0.033-1.233-0.117-3.2-0.25
				c-1.5-0.133-2.316-0.233-2.45-0.3c-0.167-0.1-0.05-0.633,0.35-1.6c0.333-0.833,0.7-1.583,1.1-2.25c0.6-0.967,1.4-0.9,2.4,0.2
				c0.5,0.6,1.117,1.417,1.85,2.45C7.033-1.85,7.517-1.3,7.75-0.8C7.917-0.5,7.917-0.35,7.75-0.35z"/>
		</defs>
		<clipPath id="SVGID_13_">
			<use xlink:href="#SVGID_12_"  style="overflow:visible;"/>
		</clipPath>
		<g id="Layer_3_12_" style="clip-path:url(#SVGID_13_);">
			<linearGradient id="SVGID_14_" gradientUnits="userSpaceOnUse" x1="0.4258" y1="-3.6548" x2="7.6758" y2="-4.0048">
				<stop  offset="0" style="stop-color:#4D4D4D"/>
				<stop  offset="1" style="stop-color:#696969"/>
			</linearGradient>
			<polygon style="fill-rule:evenodd;clip-rule:evenodd;fill:url(#SVGID_14_);" points="0.35,0 7.9,-0.35 7.55,-7.65 0,-7.3 			"/>
		</g>
	</g>
	<g id="Layer_4_12_">
	</g>
</symbol>
<symbol  id="FlashAICB_x5F_0_x2F_Layer_1_x2F__x3C_Clip_Group_0_x3E__x5F_2" viewBox="0 -29.45 8.85 29.45">
	<g id="Layer_1_12_">
	</g>
	<g>
		<defs>
			<path id="SVGID_15_" d="M1.4,0L0.2-25.65c2.066-1.567,4.483-2.833,7.25-3.8l1.4,29.1L1.4,0z"/>
		</defs>
		<clipPath id="SVGID_16_">
			<use xlink:href="#SVGID_15_"  style="overflow:visible;"/>
		</clipPath>
		<g id="Layer_3_10_" style="clip-path:url(#SVGID_16_);">
			<linearGradient id="SVGID_17_" gradientUnits="userSpaceOnUse" x1="0.686" y1="-14.5488" x2="8.111" y2="-14.8988">
				<stop  offset="0" style="stop-color:#FF283A"/>
				<stop  offset="0.9725" style="stop-color:#CA1D0D"/>
				<stop  offset="1" style="stop-color:#C91D0B"/>
			</linearGradient>
			<polygon style="fill-rule:evenodd;clip-rule:evenodd;fill:url(#SVGID_17_);" points="1.4,0 8.85,-0.35 7.45,-29.45 0,-29.1 			
				"/>
		</g>
	</g>
	<g id="Layer_4_10_">
	</g>
</symbol>
<symbol  id="FlashAICB_x5F_0_x2F_Layer_1_x2F__x3C_Clip_Group_0_x3E__x5F_3" viewBox="0 -36.4 55.65 36.4">
	<g id="Layer_1_10_">
	</g>
	<g>
		<defs>
			<path id="SVGID_18_" d="M1.6,0L0.5-23.9c1.567-2.7,4.083-4.983,7.55-6.85c4.833-2.567,11.15-4.033,18.95-4.4
				c7.5-0.333,13.85,0.55,19.05,2.65c3.9,1.567,6.717,3.6,8.45,6.1l1.15,23.85L1.6,0z"/>
		</defs>
		<clipPath id="SVGID_19_">
			<use xlink:href="#SVGID_18_"  style="overflow:visible;"/>
		</clipPath>
		<g id="Layer_3_8_" style="clip-path:url(#SVGID_19_);">
			<linearGradient id="SVGID_20_" gradientUnits="userSpaceOnUse" x1="0.9126" y1="-16.9263" x2="54.7876" y2="-19.4763">
				<stop  offset="0" style="stop-color:#C71B00"/>
				<stop  offset="1" style="stop-color:#981300"/>
			</linearGradient>
			<polygon style="fill-rule:evenodd;clip-rule:evenodd;fill:url(#SVGID_20_);" points="54.05,-36.4 0,-33.85 1.6,0 55.65,-2.55 			
				"/>
		</g>
	</g>
	<g id="Layer_4_8_">
	</g>
</symbol>
<symbol  id="FlashAICB_x5F_0_x2F_Layer_1_x2F__x3C_Clip_Group_0_x3E__x5F_4" viewBox="0 -6.8 5.7 6.8">
	<g id="Layer_1_9_">
	</g>
	<g>
		<defs>
			<path id="SVGID_21_" d="M0.15-3.3C3.483-5.633,5.167-6.533,5.2-6c0,0.567,0.167,2.483,0.5,5.75L0.15-3.3z"/>
		</defs>
		<clipPath id="SVGID_22_">
			<use xlink:href="#SVGID_21_"  style="overflow:visible;"/>
		</clipPath>
		<g id="Layer_3_7_" style="clip-path:url(#SVGID_22_);">
			<linearGradient id="SVGID_23_" gradientUnits="userSpaceOnUse" x1="0.1479" y1="-3.2749" x2="5.5513" y2="-3.5251">
				<stop  offset="0" style="stop-color:#C71B00"/>
				<stop  offset="1" style="stop-color:#981300"/>
			</linearGradient>
			<polygon style="fill-rule:evenodd;clip-rule:evenodd;fill:url(#SVGID_23_);" points="0.3,0 5.7,-0.25 5.4,-6.8 0,-6.55 			"/>
		</g>
	</g>
	<g id="Layer_4_7_">
	</g>
</symbol>
<symbol  id="FlashAICB_x5F_0_x2F_Layer_1_x2F__x3C_Clip_Group_0_x3E__x5F_5" viewBox="0 -16.35 18.15 16.35">
	<g id="Layer_1_8_">
	</g>
	<g>
		<defs>
			<path id="SVGID_24_" d="M7.75-4.95L6.6-4.85C4.867-4.783,3.483-5.033,2.45-5.6l11.4-6l1.9,2.4L7.75-4.95z"/>
		</defs>
		<clipPath id="SVGID_25_">
			<use xlink:href="#SVGID_24_"  style="overflow:visible;"/>
		</clipPath>
		<g id="Layer_3_6_" style="clip-path:url(#SVGID_25_);">
			<linearGradient id="SVGID_26_" gradientUnits="userSpaceOnUse" x1="10.7646" y1="-8.9707" x2="3.4396" y2="-5.5207">
				<stop  offset="0" style="stop-color:#7C7E80"/>
				<stop  offset="0.5882" style="stop-color:#B1B3B4"/>
				<stop  offset="1" style="stop-color:#D9DBDC"/>
			</linearGradient>
			<polygon style="fill-rule:evenodd;clip-rule:evenodd;fill:url(#SVGID_26_);" points="13.45,-16.35 0,-10 4.7,0 18.15,-6.35 			
				"/>
		</g>
	</g>
	<g id="Layer_4_6_">
	</g>
</symbol>
<symbol  id="FlashAICB_x5F_0_x2F_Layer_1_x2F__x3C_Clip_Group_0_x3E__x5F_6" viewBox="0 -34.8 38.3 34.8">
	<g id="Layer_1_7_">
	</g>
	<g>
		<defs>
			<polygon id="SVGID_27_" points="8.95,-10.3 5.3,-11.85 29.25,-24.5 32.95,-23.05 			"/>
		</defs>
		<clipPath id="SVGID_28_">
			<use xlink:href="#SVGID_27_"  style="overflow:visible;"/>
		</clipPath>
		<g id="Layer_3_5_" style="clip-path:url(#SVGID_28_);">
			<linearGradient id="SVGID_29_" gradientUnits="userSpaceOnUse" x1="5.6431" y1="-10.6636" x2="15.5681" y2="-15.6136">
				<stop  offset="0" style="stop-color:#7E8082"/>
				<stop  offset="0.7569" style="stop-color:#BFC1C2"/>
				<stop  offset="1" style="stop-color:#D5D7D8"/>
			</linearGradient>
			<polygon style="fill-rule:evenodd;clip-rule:evenodd;fill:url(#SVGID_29_);" points="10.45,0 38.3,-13.85 27.8,-34.8 0,-20.95 
							"/>
		</g>
	</g>
	<g id="Layer_4_5_">
	</g>
</symbol>
<symbol  id="FlashAICB_x5F_0_x2F_Layer_1_x2F__x3C_Clip_Group_0_x3E__x5F_7" viewBox="0 -23.05 24.9 23.05">
	<g id="Layer_1_6_">
	</g>
	<g>
		<defs>
			<path id="SVGID_30_" d="M11.7-6.95C10.4-6.583,7.983-6.067,4.45-5.4c-0.233-0.533-0.333-1.283-0.3-2.25
				c0-1.167,0.117-1.867,0.35-2.1C5.633-9.683,7.133-9.967,9-10.6c3.767-1.233,7.567-3.583,11.4-7.05l0.6,5.6
				C16.1-8.983,13-7.283,11.7-6.95z"/>
		</defs>
		<clipPath id="SVGID_31_">
			<use xlink:href="#SVGID_30_"  style="overflow:visible;"/>
		</clipPath>
		<g id="Layer_3_4_" style="clip-path:url(#SVGID_31_);">
			<linearGradient id="SVGID_32_" gradientUnits="userSpaceOnUse" x1="3.6973" y1="-7.8511" x2="13.8223" y2="-12.1011">
				<stop  offset="0" style="stop-color:#444245"/>
				<stop  offset="1" style="stop-color:#58595B"/>
			</linearGradient>
			<polygon style="fill-rule:evenodd;clip-rule:evenodd;fill:url(#SVGID_32_);" points="6.4,0 24.9,-7.7 18.45,-23.05 0,-15.35 			
				"/>
		</g>
	</g>
	<g id="Layer_4_4_">
	</g>
</symbol>
<symbol  id="FlashAICB_x5F_0_x2F_Layer_1_x2F__x3C_Clip_Group_0_x3E__x5F_8" viewBox="0 -17.5 20.55 17.5">
	<g id="Layer_1_5_">
	</g>
	<g>
		<defs>
			<path id="SVGID_33_" d="M9.45-6.75H8.4c-1.7,0-3.2-0.467-4.5-1.4c-1.4-1-1.4-1.367,0-1.1c1.533,0.267,4.217-0.183,8.05-1.35
				c0.733-0.233,3.066,0.4,7,1.9C15.25-7.533,12.083-6.883,9.45-6.75z M10.4-7.8c-0.2-0.233-0.55-0.417-1.05-0.55
				C8.683-8.517,8.1-8.583,7.6-8.55c-0.667,0-1.1,0.2-1.3,0.6c-0.133,0.333,0.267,0.6,1.2,0.8c1,0.233,1.9,0.2,2.7-0.1
				C10.567-7.383,10.633-7.567,10.4-7.8z"/>
		</defs>
		<clipPath id="SVGID_34_">
			<use xlink:href="#SVGID_33_"  style="overflow:visible;"/>
		</clipPath>
		<g id="Layer_3_3_" style="clip-path:url(#SVGID_34_);">
			<linearGradient id="SVGID_35_" gradientUnits="userSpaceOnUse" x1="4.5215" y1="-5.8579" x2="9.1965" y2="-8.2079">
				<stop  offset="0" style="stop-color:#AFB1B4"/>
				<stop  offset="1" style="stop-color:#D9DBDC"/>
			</linearGradient>
			<polygon style="fill-rule:evenodd;clip-rule:evenodd;fill:url(#SVGID_35_);" points="4.8,0 20.55,-7.85 15.7,-17.5 0,-9.65 			
				"/>
		</g>
	</g>
	<g id="Layer_4_3_">
	</g>
</symbol>
<symbol  id="FlashAICB_x5F_0_x2F_Layer_1_x2F__x3C_Clip_Group_0_x3E__x5F_9" viewBox="0 -2.5 6.9 2.5">
	<g id="Layer_1_4_">
	</g>
	<g>
		<defs>
			<path id="SVGID_36_" d="M6.05-1c-0.5,0.367-1.466,0.65-2.9,0.85H3c-0.5,0.033-1.083-0.1-1.75-0.4C0.617-0.783,0.25-1,0.15-1.2
				C0.083-1.467,0.2-1.75,0.5-2.05c0.267,0.433,0.867,0.733,1.8,0.9c1,0.167,1.917,0.033,2.75-0.4c0.767-0.4,1.217-0.467,1.35-0.2
				S6.417-1.233,6.05-1z"/>
		</defs>
		<clipPath id="SVGID_37_">
			<use xlink:href="#SVGID_36_"  style="overflow:visible;"/>
		</clipPath>
		<g id="Layer_3_2_" style="clip-path:url(#SVGID_37_);">
			<linearGradient id="SVGID_38_" gradientUnits="userSpaceOnUse" x1="0.5752" y1="-1.25" x2="4.8252" y2="-1.25">
				<stop  offset="0" style="stop-color:#6B6C6F"/>
				<stop  offset="0.4039" style="stop-color:#A0A1A3"/>
				<stop  offset="0.7686" style="stop-color:#D4D5D6"/>
				<stop  offset="0.8627" style="stop-color:#D2D3D4"/>
				<stop  offset="0.902" style="stop-color:#CBCCCD"/>
				<stop  offset="0.9333" style="stop-color:#BEBFC1"/>
				<stop  offset="0.9569" style="stop-color:#ACAEAF"/>
				<stop  offset="0.9804" style="stop-color:#959799"/>
				<stop  offset="1" style="stop-color:#7A7C7F"/>
			</linearGradient>
			<polygon style="fill-rule:evenodd;clip-rule:evenodd;fill:url(#SVGID_38_);" points="0,0 6.9,0 6.9,-2.45 0,-2.5 			"/>
		</g>
	</g>
	<g id="Layer_4_2_">
	</g>
</symbol>
<symbol  id="FlashAICB_x5F_0_x2F_Layer_1_x2F__x3C_Group_x3E_" viewBox="0 -34.8 23.85 34.8">
	<g id="Layer_1_19_">
		<g>
			
				<use xlink:href="#FlashAICB_x5F_0_x2F_Layer_1_x2F__x3C_Clip_Group_0_x3E_"  width="23.85" height="34.8" y="-34.8" style="overflow:visible;"/>
		</g>
	</g>
</symbol>
<symbol  id="FlashAICB_x5F_0_x2F_Layer_1_x2F__x3C_Path_x3E_" viewBox="0 -118.1 118.35 118.1">
	<g id="Layer_1_2_">
		
			<radialGradient id="SVGID_39_" cx="59.1748" cy="-59.0498" r="59.1126" gradientTransform="matrix(1 0 0 -1 0 -118.0996)" gradientUnits="userSpaceOnUse">
			<stop  offset="0" style="stop-color:#FFB9DB"/>
			<stop  offset="0.2392" style="stop-color:#FDB7D8"/>
			<stop  offset="0.4157" style="stop-color:#F6AFCF"/>
			<stop  offset="0.5686" style="stop-color:#EBA3BF"/>
			<stop  offset="0.6627" style="stop-color:#E198B1"/>
			<stop  offset="1" style="stop-color:#822E7D;stop-opacity:0.4078"/>
		</radialGradient>
		<path style="fill-rule:evenodd;clip-rule:evenodd;fill:url(#SVGID_39_);" d="M118.35-59.05c0-16.3-5.783-30.217-17.35-41.75
			c-11.533-11.534-25.467-17.3-41.8-17.3c-16.333,0-30.284,5.767-41.85,17.3C5.783-89.267,0-75.35,0-59.05
			c0,16.3,5.783,30.216,17.35,41.75C28.917-5.767,42.867,0,59.2,0C75.533,0,89.467-5.767,101-17.3
			C112.567-28.833,118.35-42.75,118.35-59.05z"/>
	</g>
</symbol>
<symbol  id="FlashAICB_x5F_1_x2F_Layer_1_x2F__x3C_Path_x3E_" viewBox="0 -56.85 118.15 56.85">
	<g id="Layer_1_15_">
		
			<radialGradient id="SVGID_40_" cx="59.0752" cy="-28.4248" r="46.3564" gradientTransform="matrix(1 0 0 -1 0 -56.8496)" gradientUnits="userSpaceOnUse">
			<stop  offset="0" style="stop-color:#C9EEE7;stop-opacity:0"/>
			<stop  offset="0.0784" style="stop-color:#C7E6DD;stop-opacity:0.0392"/>
			<stop  offset="0.2118" style="stop-color:#C1D0C0;stop-opacity:0.1451"/>
			<stop  offset="0.3882" style="stop-color:#B6AD93;stop-opacity:0.3216"/>
			<stop  offset="0.5961" style="stop-color:#A97D54;stop-opacity:0.5647"/>
			<stop  offset="0.651" style="stop-color:#A57043;stop-opacity:0.6275"/>
		</radialGradient>
		<path style="fill-rule:evenodd;clip-rule:evenodd;fill:url(#SVGID_40_);" d="M95.1-30.2c10.667,7.633,18.183,17.617,22.55,29.95
			l0.5,0.25c-0.566-15.833-6.566-29.267-18-40.3c-11.467-11.034-25.167-16.55-41.1-16.55c-15.667,0-29.183,5.333-40.55,16
			C7.167-30.183,1-17.133,0-1.7c4.6-11.933,12.15-21.583,22.65-28.95c10.767-7.533,22.733-11.3,35.9-11.3
			C72.017-41.95,84.2-38.033,95.1-30.2z"/>
	</g>
</symbol>
<symbol  id="FlashAICB_x5F_1_x2F_Layer_1_x2F__x3C_Path_x3E__x5F_0" viewBox="0 -61.044 109.55 61.044">
	<g id="Layer_1_17_">
		<path style="fill-rule:evenodd;clip-rule:evenodd;fill:#FFFFFF;" d="M106.05-34.25c2.333-5.6,3.5-10.883,3.5-15.85
			c0-4.933-1.433-8.033-4.3-9.3c-2.333-1.033-6.25-1.017-11.75,0.05c-7.233,1.733-13.033,3.067-17.4,4
			c-7.967,1.7-15.067,2.55-21.3,2.55c-6.3,0-13.4-0.917-21.3-2.75c-8.333-2.2-14.15-3.667-17.45-4.4
			c-5.5-1.267-9.417-1.433-11.75-0.5C1.433-59.283,0-56.233,0-51.3c0,5.466,1.167,11.1,3.5,16.9
			c2.467,6.167,5.933,11.717,10.4,16.65C24.567-5.917,38.2,0,54.8,0c16.367,0,29.967-5.967,40.8-17.9
			C100.067-22.8,103.55-28.25,106.05-34.25z"/>
	</g>
</symbol>
<symbol  id="FlashAICB_x5F_1_x2F_Layer_1_x2F__x3C_Path_x3E__x5F_1" viewBox="0 -55.55 109.55 55.55">
	<g id="Layer_1_16_">
		
			<linearGradient id="SVGID_41_" gradientUnits="userSpaceOnUse" x1="16165.4902" y1="-53.6299" x2="16220.9854" y2="-53.6299" gradientTransform="matrix(1.800991e-005 1 -1 -0.001 0.854 -16221.1064)">
			<stop  offset="0.1294" style="stop-color:#E5B9B2"/>
			<stop  offset="0.9255" style="stop-color:#FFFFFF"/>
		</linearGradient>
		<path style="fill-rule:evenodd;clip-rule:evenodd;fill:url(#SVGID_41_);" d="M95.6-17.9c4.467-4.9,7.95-10.35,10.45-16.35
			c2.333-5.6,3.5-10.883,3.5-15.85c0-1.533-0.167-3-0.5-4.4c-1.833,11-7.2,20.783-16.1,29.35C82.45-15.05,69.733-10,54.8-10
			c-15.2,0-27.983-5.05-38.35-15.15c-8.967-8.667-14.3-18.8-16-30.4C0.15-54.35,0-52.933,0-51.3c0,5.466,1.167,11.1,3.5,16.9
			c2.467,6.167,5.933,11.717,10.4,16.65C24.567-5.917,38.2,0,54.8,0C71.167,0,84.767-5.967,95.6-17.9z"/>
	</g>
</symbol>
<path style="fill-rule:evenodd;clip-rule:evenodd;fill:#68757B;" d="M85.35,0c11.567,0,22.634,2.233,33.2,6.7
	c10.2,4.333,19.233,10.45,27.101,18.35c7.866,7.867,13.967,16.9,18.3,27.1c4.467,10.567,6.7,21.633,6.7,33.2s-2.233,22.633-6.7,33.2
	c-4.333,10.2-10.434,19.233-18.3,27.101c-7.867,7.899-16.9,14.017-27.101,18.35c-10.566,4.467-21.633,6.7-33.2,6.7
	c-11.566,0-22.633-2.233-33.2-6.7c-10.2-4.333-19.25-10.45-27.15-18.35c-7.867-7.867-13.967-16.9-18.3-27.101
	C2.233,107.983,0,96.917,0,85.35s2.233-22.633,6.7-33.2c4.333-10.2,10.433-19.233,18.3-27.1c7.9-7.9,16.95-14.017,27.15-18.35
	C62.717,2.233,73.783,0,85.35,0z"/>
<linearGradient id="SVGID_42_" gradientUnits="userSpaceOnUse" x1="-171.3848" y1="85.3252" x2="-0.6851" y2="85.3252" gradientTransform="matrix(5.859089e-006 -1 1 -0.001 1.466054e-004 -4.747650e-005)">
	<stop  offset="0.0196" style="stop-color:#353746"/>
	<stop  offset="0.251" style="stop-color:#6C6E76;stop-opacity:0.6863"/>
	<stop  offset="0.4941" style="stop-color:#A1A3A3;stop-opacity:0.3922"/>
	<stop  offset="0.7098" style="stop-color:#C7C9C4;stop-opacity:0.1765"/>
	<stop  offset="0.8824" style="stop-color:#DEE1D9;stop-opacity:0.0471"/>
	<stop  offset="0.9882" style="stop-color:#E7E9E0;stop-opacity:0"/>
</linearGradient>
<path style="fill-rule:evenodd;clip-rule:evenodd;fill:url(#SVGID_42_);" d="M85.35,0.6c11.567,0,22.634,2.233,33.2,6.7
	c10.2,4.333,19.233,10.45,27.101,18.35c7.866,7.867,13.967,16.9,18.3,27.1c4.467,10.566,6.7,21.633,6.7,33.2
	c0,11.566-2.233,22.633-6.7,33.2c-4.333,10.199-10.434,19.232-18.3,27.1c-7.867,7.9-16.9,14.017-27.101,18.35
	c-10.566,4.467-21.633,6.7-33.2,6.7c-11.566,0-22.633-2.233-33.2-6.7C41.95,160.267,32.9,154.15,25,146.25
	c-7.867-7.867-13.967-16.9-18.3-27.1C2.233,108.583,0,97.517,0,85.95c0-11.567,2.233-22.634,6.7-33.2
	c4.333-10.2,10.433-19.233,18.3-27.1c7.9-7.9,16.95-14.017,27.15-18.35C62.717,2.833,73.783,0.6,85.35,0.6z"/>
<g>
	<g>
		
			<linearGradient id="SVGID_43_" gradientUnits="userSpaceOnUse" x1="-157.4854" y1="85.3262" x2="-13.3848" y2="85.3262" gradientTransform="matrix(6.939625e-006 -1 1 -0.001 1.071970e-004 4.449275e-004)">
			<stop  offset="0" style="stop-color:#BCD1DF"/>
			<stop  offset="0.0235" style="stop-color:#BBCEDC;stop-opacity:0.9647"/>
			<stop  offset="0.2784" style="stop-color:#ABB0BF;stop-opacity:0.6353"/>
			<stop  offset="0.502" style="stop-color:#A19DAE;stop-opacity:0.4314"/>
			<stop  offset="0.6549" style="stop-color:#9E96A8;stop-opacity:0.3569"/>
			<stop  offset="1" style="stop-color:#403C5C"/>
		</linearGradient>
		<path style="fill-rule:evenodd;clip-rule:evenodd;fill:url(#SVGID_43_);" d="M136.3,34.4c6.634,6.633,11.783,14.267,15.45,22.9
			c3.767,8.934,5.65,18.284,5.65,28.05c0,9.767-1.884,19.117-5.65,28.05c-3.667,8.633-8.816,16.267-15.45,22.899
			c-6.666,6.634-14.3,11.783-22.899,15.45c-8.934,3.767-18.283,5.65-28.051,5.65c-9.766,0-19.116-1.884-28.05-5.65
			c-8.633-3.667-16.267-8.816-22.9-15.45c-6.667-6.633-11.833-14.267-15.5-22.899c-3.767-8.934-5.65-18.283-5.65-28.05
			c0-9.767,1.883-19.117,5.65-28.05c3.667-8.633,8.833-16.267,15.5-22.9c14.067-14.066,31.05-21.1,50.95-21.1
			C105.217,13.3,122.2,20.333,136.3,34.4z"/>
	</g>
</g>
<g>
	
		<linearGradient id="SVGID_44_" gradientUnits="userSpaceOnUse" x1="-151.2354" y1="85.3262" x2="-19.4849" y2="85.3262" gradientTransform="matrix(7.590133e-006 -1 1 -0.001 9.770805e-006 4.449275e-004)">
		<stop  offset="0.0745" style="stop-color:#362439"/>
		<stop  offset="0.1882" style="stop-color:#4F3450"/>
		<stop  offset="0.4353" style="stop-color:#8F5E89"/>
		<stop  offset="0.6" style="stop-color:#BE7CB4"/>
		<stop  offset="0.9216" style="stop-color:#EFEBC5"/>
	</linearGradient>
	<path style="fill-rule:evenodd;clip-rule:evenodd;fill:url(#SVGID_44_);" d="M85.35,19.4c18.167,0,33.684,6.434,46.551,19.3
		c12.866,12.9,19.3,28.433,19.3,46.6c0,18.167-6.434,33.684-19.3,46.55c-12.867,12.867-28.384,19.301-46.551,19.301
		c-18.166,0-33.7-6.434-46.6-19.301c-12.867-12.866-19.3-28.383-19.3-46.55c0-18.167,6.433-33.7,19.3-46.6
		C51.65,25.833,67.184,19.4,85.35,19.4z"/>
	<path style="fill-rule:evenodd;clip-rule:evenodd;fill:#3B223B;" d="M85.35,20.25c-17.966,0-33.316,6.35-46.05,19.05
		C26.6,52,20.25,67.333,20.25,85.3c0,17.967,6.35,33.3,19.05,46c12.733,12.7,28.083,19.05,46.05,19.05
		c17.967,0,33.301-6.35,46-19.05c12.7-12.7,19.051-28.033,19.051-46c0-17.966-6.351-33.3-19.051-46
		C118.65,26.6,103.316,20.25,85.35,20.25z M85.35,18.6c8.9,0,17.417,1.683,25.551,5.05c8.1,3.367,15.3,8.184,21.6,14.45
		c6.3,6.3,11.134,13.517,14.5,21.65c3.367,8.1,5.05,16.617,5.05,25.55c0,8.9-1.683,17.417-5.05,25.55
		c-3.366,8.101-8.2,15.301-14.5,21.601s-13.5,11.133-21.6,14.5c-8.134,3.366-16.65,5.05-25.551,5.05
		c-8.933,0-17.45-1.684-25.55-5.05c-8.133-3.367-15.35-8.2-21.65-14.5c-6.3-6.3-11.133-13.5-14.5-21.601
		C20.283,102.717,18.6,94.2,18.6,85.3c0-8.933,1.683-17.45,5.05-25.55c3.367-8.133,8.2-15.35,14.5-21.65
		c6.3-6.267,13.517-11.083,21.65-14.45C67.934,20.283,76.45,18.6,85.35,18.6z"/>
</g>
<use xlink:href="#FlashAICB_x5F_0_x2F_Layer_1_x2F__x3C_Path_x3E_"  width="118.35" height="118.1" y="-118.1" transform="matrix(1 0 0 -1 27.3501 26.8999)" style="overflow:visible;opacity:0.3789;enable-background:new    ;"/>
<g>
	<g>
		<path style="fill-rule:evenodd;clip-rule:evenodd;fill:#FFE7FF;" d="M72.95,39.4v18.85c0,0.8-0.233,1.433-0.7,1.9
			c-0.467,0.433-1.066,0.65-1.8,0.65s-1.317-0.217-1.75-0.65c-0.467-0.467-0.7-1.1-0.7-1.9V41.6h-1.95c-0.733,0-1.3-0.233-1.7-0.7
			c-0.367-0.433-0.55-0.967-0.55-1.6c0-0.6,0.2-1.117,0.6-1.55c0.4-0.467,0.95-0.7,1.65-0.7h4.7c0.7,0,1.25,0.217,1.65,0.65
			C72.767,38.133,72.95,38.7,72.95,39.4z"/>
		<path style="fill-rule:evenodd;clip-rule:evenodd;fill:#FFE7FF;" d="M79.2,38.35c1.5-1.133,3.167-1.7,5-1.7
			c2.2,0,3.967,0.683,5.3,2.05c1.167,1.167,1.75,2.5,1.75,4c0,2.233-0.917,3.917-2.75,5.05c1.233,0.566,2.217,1.367,2.95,2.4
			c0.733,1.067,1.1,2.25,1.1,3.55c0,2-0.8,3.716-2.399,5.15C88.517,60.283,86.533,61,84.2,61c-2.3,0-4.233-0.7-5.8-2.1
			c-1.433-1.3-2.15-2.667-2.15-4.1c0-0.633,0.283-1.167,0.85-1.6c0.5-0.434,1.066-0.65,1.7-0.65c0.634,0,1.367,0.65,2.2,1.95
			s1.934,1.95,3.3,1.95c0.867,0,1.601-0.3,2.2-0.9c0.6-0.6,0.9-1.333,0.9-2.2c0-1.6-0.934-2.55-2.8-2.85
			c-1.9-0.267-2.85-1.033-2.85-2.3c0-1.134,0.783-1.9,2.35-2.3s2.35-1.233,2.35-2.5c0-0.633-0.217-1.15-0.65-1.55
			c-0.433-0.434-1-0.65-1.7-0.65c-1.133,0-2.083,0.55-2.85,1.65c-0.767,1.066-1.483,1.6-2.15,1.6c-0.633,0-1.167-0.25-1.6-0.75
			c-0.367-0.5-0.55-1.067-0.55-1.7C76.95,40.7,77.7,39.483,79.2,38.35z"/>
		<path style="fill-rule:evenodd;clip-rule:evenodd;fill:#FFE7FF;" d="M95.25,40.9c-0.366-0.433-0.55-0.967-0.55-1.6
			s0.184-1.15,0.55-1.55c0.434-0.467,1.066-0.7,1.9-0.7h12c0.767,0,1.383,0.283,1.85,0.85c0.367,0.467,0.55,0.967,0.55,1.5
			c0,0.3-0.083,0.65-0.25,1.05c-0.1,0.233-0.267,0.616-0.5,1.15l-8.25,16.7c-0.5,1-0.883,1.65-1.149,1.95
			c-0.367,0.367-0.9,0.55-1.601,0.55c-0.833,0-1.517-0.267-2.05-0.8c-0.467-0.467-0.7-0.983-0.7-1.55c0-0.3,0.101-0.684,0.3-1.15
			l8.301-15.7h-8.5C96.316,41.6,95.684,41.367,95.25,40.9z"/>
	</g>
	<g>
		
			<linearGradient id="SVGID_45_" gradientUnits="userSpaceOnUse" x1="-59.8687" y1="68.3779" x2="-36.0937" y2="68.3779" gradientTransform="matrix(4.206099e-005 -1 1 -0.001 1.681365e-004 4.449275e-004)">
			<stop  offset="0.3255" style="stop-color:#472444"/>
			<stop  offset="0.5294" style="stop-color:#4A2447"/>
			<stop  offset="0.6627" style="stop-color:#52254F"/>
			<stop  offset="0.7725" style="stop-color:#61265E"/>
			<stop  offset="0.8706" style="stop-color:#762772"/>
			<stop  offset="0.9647" style="stop-color:#91288C"/>
			<stop  offset="1" style="stop-color:#9E2999"/>
		</linearGradient>
		<path style="fill-rule:evenodd;clip-rule:evenodd;fill:url(#SVGID_45_);" d="M72.95,38.4v18.8c0,0.833-0.233,1.483-0.7,1.95
			c-0.467,0.433-1.066,0.65-1.8,0.65s-1.317-0.217-1.75-0.65c-0.467-0.467-0.7-1.117-0.7-1.95V40.6h-1.95
			c-0.733,0-1.3-0.233-1.7-0.7c-0.367-0.433-0.55-0.967-0.55-1.6c0-0.6,0.2-1.133,0.6-1.6c0.4-0.467,0.95-0.7,1.65-0.7h4.7
			c0.667,0,1.217,0.233,1.65,0.7C72.767,37.133,72.95,37.7,72.95,38.4z"/>
		
			<linearGradient id="SVGID_46_" gradientUnits="userSpaceOnUse" x1="-60.083" y1="84.4028" x2="-35.708" y2="84.4028" gradientTransform="matrix(4.102564e-005 -1 1 -0.001 7.536012e-005 4.449275e-004)">
			<stop  offset="0.3255" style="stop-color:#472444"/>
			<stop  offset="0.5294" style="stop-color:#4A2447"/>
			<stop  offset="0.6627" style="stop-color:#52254F"/>
			<stop  offset="0.7725" style="stop-color:#61265E"/>
			<stop  offset="0.8706" style="stop-color:#762772"/>
			<stop  offset="0.9647" style="stop-color:#91288C"/>
			<stop  offset="1" style="stop-color:#9E2999"/>
		</linearGradient>
		<path style="fill-rule:evenodd;clip-rule:evenodd;fill:url(#SVGID_46_);" d="M79.2,37.35c1.5-1.133,3.167-1.7,5-1.7
			c2.2,0,3.967,0.683,5.3,2.05c1.167,1.167,1.75,2.5,1.75,4c0,2.233-0.917,3.917-2.75,5.05c1.233,0.566,2.217,1.367,2.95,2.4
			c0.733,1.067,1.1,2.25,1.1,3.55c0,2-0.8,3.716-2.399,5.15C88.517,59.283,86.533,60,84.2,60c-2.3,0-4.233-0.7-5.8-2.1
			c-1.433-1.3-2.15-2.667-2.15-4.1c0-0.633,0.283-1.167,0.85-1.6c0.5-0.434,1.066-0.65,1.7-0.65c0.634,0,1.367,0.65,2.2,1.95
			s1.934,1.95,3.3,1.95c0.867,0,1.601-0.3,2.2-0.9c0.6-0.6,0.9-1.333,0.9-2.2c0-1.6-0.934-2.55-2.8-2.85
			c-1.9-0.267-2.85-1.033-2.85-2.3c0-1.134,0.783-1.9,2.35-2.3s2.35-1.233,2.35-2.5c0-0.633-0.217-1.15-0.65-1.55
			c-0.433-0.434-1-0.65-1.7-0.65c-1.133,0-2.083,0.55-2.85,1.65c-0.767,1.066-1.483,1.6-2.15,1.6c-0.633,0-1.167-0.25-1.6-0.75
			c-0.367-0.5-0.55-1.067-0.55-1.7C76.95,39.7,77.7,38.483,79.2,37.35z"/>
		
			<linearGradient id="SVGID_47_" gradientUnits="userSpaceOnUse" x1="-59.8984" y1="103.127" x2="-36.1234" y2="103.127" gradientTransform="matrix(4.206099e-005 -1 1 -0.001 1.681365e-004 4.449275e-004)">
			<stop  offset="0.3255" style="stop-color:#472444"/>
			<stop  offset="0.5294" style="stop-color:#4A2447"/>
			<stop  offset="0.6627" style="stop-color:#52254F"/>
			<stop  offset="0.7725" style="stop-color:#61265E"/>
			<stop  offset="0.8706" style="stop-color:#762772"/>
			<stop  offset="0.9647" style="stop-color:#91288C"/>
			<stop  offset="1" style="stop-color:#9E2999"/>
		</linearGradient>
		<path style="fill-rule:evenodd;clip-rule:evenodd;fill:url(#SVGID_47_);" d="M94.7,38.3c0-0.633,0.184-1.167,0.55-1.6
			c0.434-0.467,1.066-0.7,1.9-0.7h12c0.767,0,1.383,0.3,1.85,0.9c0.367,0.467,0.55,0.967,0.55,1.5c0,0.267-0.25,1-0.75,2.2
			l-8.25,16.7c-0.5,1-0.883,1.65-1.149,1.95c-0.367,0.367-0.9,0.55-1.601,0.55c-0.833,0-1.517-0.267-2.05-0.8
			c-0.467-0.467-0.7-0.983-0.7-1.55c0-0.3,0.101-0.684,0.3-1.15l8.301-15.7h-8.5c-0.834,0-1.467-0.233-1.9-0.7
			C94.884,39.467,94.7,38.933,94.7,38.3z"/>
	</g>
</g>
<g>
	<path style="fill-rule:evenodd;clip-rule:evenodd;fill:#FDE6FF;" d="M122.35,83.95c0.667,0.933,0.934,1.983,0.801,3.149
		c2.633,1.834,4.05,3.9,4.25,6.2c0.066,0.233,0.1,0.566,0.1,1l-1.15,23.9c0,0.767-0.232,1.483-0.699,2.149
		c-1.367,1.9-3.25,3.601-5.65,5.101c-3.7,2.366-8.233,3.95-13.6,4.75c-1.5,0.267-2.884,0.45-4.15,0.55l-0.75-0.05
		c-2.066,0.133-4.35,0.149-6.85,0.05c-3.834-0.2-7.267-0.617-10.3-1.25c-9.533-2-16.05-6-19.55-12c-0.366-0.733-0.55-1.467-0.55-2.2
		L65,100.35h-0.15c-0.533,0.2-1.117,0.301-1.75,0.301L63,100.6l-0.6-0.05c-0.867-0.233-1.683-0.55-2.45-0.95L58.1,98.45L58,98.4
		L57.9,98.3l-1.5-1.1c-1-0.834-2.233-2.017-3.7-3.55c-1.233-1.268-2.133-2.117-2.7-2.551c-0.833-0.633-1.75-1.05-2.75-1.25
		c-0.8-0.133-1.483-0.199-2.05-0.199H45l-0.6,0.05c-0.4,0-0.8,0.05-1.2,0.149c-0.833,0.634-1.767,0.917-2.8,0.851l-0.25-0.05
		c-0.767-0.034-1.383-0.184-1.85-0.45c-1.333-0.601-2.083-1.65-2.25-3.15c-0.167-0.333-0.35-0.6-0.55-0.8l-0.4-0.1l-0.75-0.101
		c-1.767-0.367-2.917-1.367-3.45-3c-0.167-0.533-0.283-1.133-0.35-1.8c-0.1-0.934,0.1-1.833,0.6-2.7
		c0.667-1.167,1.833-2.15,3.5-2.95c1.7-0.8,3.434-1.2,5.2-1.2h1.25c1.167,0.067,2.45,0.217,3.85,0.45h0.1l0.55-0.1L47,74.7
		l1.55,0.25c0.567,0.1,1.267,0.283,2.1,0.55l2.8,1c1.833,0.7,3.95,1.667,6.35,2.9c3.767,1.933,6.833,3.933,9.2,6
		c2.733-1.933,6.817-3.317,12.25-4.15c4.767-0.7,10-0.917,15.7-0.65c4.7,0.2,8.899,0.7,12.6,1.5l1.75,0.45l0.75,0.05
		c0.601,0.033,1.384-0.034,2.351-0.2c1.267-0.2,2.416-0.3,3.449-0.3H118c0.5-0.067,1.033-0.034,1.6,0.1
		C120.767,82.467,121.684,83.05,122.35,83.95z"/>
	
		<linearGradient id="SVGID_48_" gradientUnits="userSpaceOnUse" x1="-108.4756" y1="97.2432" x2="-54.9385" y2="97.2432" gradientTransform="matrix(0.206 -0.9786 0.9786 0.206 3.188401e-004 -3.671646e-004)">
		<stop  offset="0.0549" style="stop-color:#6E2669"/>
		<stop  offset="0.5882" style="stop-color:#D1A9B1"/>
		<stop  offset="0.8392" style="stop-color:#FCE3D0"/>
	</linearGradient>
	<path style="fill-rule:evenodd;clip-rule:evenodd;fill:url(#SVGID_48_);" d="M122.55,83.1c0.667,0.933,0.934,1.983,0.8,3.15
		c2.567,1.833,3.983,3.9,4.25,6.2c0.067,0.467,0.084,0.8,0.051,1l-1.101,23.899c-0.066,0.834-0.316,1.551-0.75,2.15
		c-1.333,1.866-3.2,3.566-5.6,5.1c-3.7,2.367-8.25,3.967-13.65,4.801c-1.8,0.267-3.183,0.433-4.149,0.5h-0.7
		c-2.2,0.1-4.483,0.1-6.851,0c-3.6-0.134-7.033-0.551-10.3-1.25c-5.366-1.134-9.816-2.934-13.35-5.4c-2.7-1.9-4.767-4.1-6.2-6.6
		c-0.4-0.667-0.583-1.4-0.55-2.2l0.7-14.95h-0.1c-0.566,0.267-1.15,0.366-1.75,0.3h-0.15l-0.55-0.1
		c-0.633-0.134-1.467-0.45-2.5-0.95l-1.85-1.1L58.2,97.55l-0.15-0.05l-1.45-1.15c-0.833-0.666-2.083-1.833-3.75-3.5
		c-1.167-1.233-2.05-2.083-2.65-2.55c-0.833-0.633-1.75-1.05-2.75-1.25c-0.534-0.133-1.233-0.2-2.1-0.2h-0.8L43.4,89h-0.05
		c-0.9,0.667-1.833,0.95-2.8,0.85L40.3,89.8c-0.566,0-1.183-0.133-1.85-0.399c-1.3-0.667-2.034-1.717-2.2-3.15
		c-0.167-0.333-0.367-0.617-0.6-0.85l-1.15-0.2c-1.733-0.367-2.883-1.35-3.45-2.95c-0.2-0.867-0.3-1.483-0.3-1.85
		c-0.1-0.9,0.083-1.8,0.55-2.7c0.667-1.134,1.85-2.1,3.55-2.9c1.667-0.8,3.383-1.217,5.15-1.25h0.65l0.65,0.05
		c1.034,0.033,2.3,0.167,3.8,0.4h0.15l0.55-0.05c0.733-0.1,1.2-0.117,1.4-0.05c0.367,0,0.883,0.067,1.55,0.2
		c0.967,0.233,1.667,0.417,2.1,0.55l1.55,0.55l0.1,0.05l1.15,0.4c1.7,0.633,3.8,1.6,6.3,2.9c3.5,1.8,6.583,3.8,9.25,6
		c2.733-1.933,6.816-3.3,12.25-4.1c4.7-0.7,9.934-0.934,15.7-0.7c4.5,0.2,8.699,0.717,12.6,1.55l2.45,0.5
		c0.467,0,1.267-0.066,2.399-0.2c1.467-0.233,2.617-0.35,3.45-0.35h0.15c0.6,0,1.116,0.033,1.55,0.1
		C120.917,81.617,121.85,82.2,122.55,83.1z"/>
	<path style="fill-rule:evenodd;clip-rule:evenodd;fill:none;stroke:#FDE6FF;stroke-width:0.25;" d="M122.55,83.1
		c-0.7-0.9-1.633-1.483-2.8-1.75c-0.434-0.067-0.95-0.1-1.55-0.1h-0.15c-0.833,0-1.983,0.117-3.45,0.35
		c-1.133,0.133-1.933,0.2-2.399,0.2l-2.45-0.5c-3.9-0.833-8.1-1.35-12.6-1.55c-5.767-0.233-11,0-15.7,0.7
		c-5.434,0.8-9.517,2.167-12.25,4.1c-2.667-2.2-5.75-4.2-9.25-6c-2.5-1.3-4.6-2.267-6.3-2.9l-1.15-0.4l-0.1-0.05l-1.55-0.55
		c-0.434-0.133-1.133-0.317-2.1-0.55c-0.667-0.133-1.183-0.2-1.55-0.2c-0.2-0.067-0.667-0.05-1.4,0.05L45.25,74H45.1
		c-1.5-0.233-2.767-0.367-3.8-0.4l-0.65-0.05H40c-1.767,0.033-3.483,0.45-5.15,1.25c-1.7,0.8-2.883,1.767-3.55,2.9
		c-0.466,0.9-0.65,1.8-0.55,2.7c0,0.367,0.1,0.983,0.3,1.85c0.567,1.6,1.717,2.583,3.45,2.95l1.15,0.2
		c0.233,0.233,0.434,0.517,0.6,0.85c0.167,1.434,0.9,2.483,2.2,3.15c0.667,0.267,1.283,0.399,1.85,0.399l0.25,0.05
		c0.967,0.101,1.9-0.183,2.8-0.85h0.05l1.15-0.15h0.8c0.867,0,1.566,0.067,2.1,0.2c1,0.2,1.917,0.617,2.75,1.25
		c0.6,0.467,1.483,1.316,2.65,2.55c1.667,1.667,2.917,2.834,3.75,3.5l1.45,1.15l0.15,0.05l0.05,0.101l1.85,1.1
		c1.033,0.5,1.867,0.816,2.5,0.95l0.55,0.1h0.15c0.6,0.066,1.184-0.033,1.75-0.3h0.1l-0.7,14.95c-0.034,0.8,0.15,1.533,0.55,2.2
		c1.434,2.5,3.5,4.699,6.2,6.6c3.533,2.467,7.983,4.267,13.35,5.4c3.267,0.699,6.7,1.116,10.3,1.25c2.367,0.1,4.65,0.1,6.851,0h0.7
		c0.967-0.067,2.35-0.233,4.149-0.5c5.4-0.834,9.95-2.434,13.65-4.801c2.399-1.533,4.267-3.233,5.6-5.1
		c0.434-0.6,0.684-1.316,0.75-2.15l1.101-23.899c0.033-0.2,0.017-0.533-0.051-1c-0.267-2.3-1.683-4.367-4.25-6.2
		C123.483,85.083,123.217,84.033,122.55,83.1z"/>
	<g>
		<path style="fill-rule:evenodd;clip-rule:evenodd;fill:#3C243B;" d="M124.25,93.05l0.05,0.25l-1.149,23.9l-0.101,0.35
			c-1.166,1.601-2.8,3.05-4.899,4.351c-3.267,2.033-7.317,3.416-12.15,4.149c-1.2,0.2-2.483,0.351-3.85,0.45l-0.25-0.05
			c-2.467,0.166-4.767,0.183-6.9,0.05c-3.434-0.134-6.684-0.517-9.75-1.15c-8.6-1.833-14.367-5.3-17.3-10.399
			c-0.067-0.067-0.1-0.184-0.1-0.351l0.8-17.649c-0.6-0.267-1.316-0.483-2.15-0.65s-1.517-0.25-2.05-0.25l-0.65,0.3L63.5,96.4
			c-0.433-0.034-1.033-0.25-1.8-0.65l-0.65-0.35l-0.9-0.601l-0.1-0.05l-1.3-1c-0.9-0.733-2.033-1.816-3.4-3.25
			c-1.333-1.4-2.383-2.384-3.15-2.95c-1.233-0.934-2.583-1.55-4.05-1.85c-0.933-0.167-1.85-0.25-2.75-0.25h-1.1
			c-0.7,0.066-1.3,0.167-1.8,0.3l-0.4,0.1l-0.75,0.4c-0.133,0.2-0.3,0.267-0.5,0.2l-0.2-0.05c-0.4-0.034-0.633-0.051-0.7-0.051
			c-0.233-0.1-0.35-0.283-0.35-0.55c-0.067-0.9-0.6-1.85-1.6-2.85c-0.4-0.434-0.95-0.733-1.65-0.9L35.2,81.9
			c-0.5-0.167-0.8-0.4-0.9-0.7c-0.1-0.3-0.15-0.667-0.15-1.1c-0.066-0.2-0.033-0.434,0.1-0.7c0.333-0.567,1.033-1.1,2.1-1.6
			c1.2-0.533,2.433-0.816,3.7-0.85h1.05c1.133,0.033,2.467,0.216,4,0.55l0.5-0.1l0.15-0.05l0.35-0.05l0.95-0.05l4.2,1.1l0.1,0.05
			l1.05,0.4c2.3,0.967,4.3,1.9,6,2.8c4.5,2.3,7.817,4.567,9.95,6.8c0.133,0.133,0.2,0.3,0.2,0.5V89l-0.05,0.15l0.7,0.35
			c0.966-2.167,4.05-3.85,9.25-5.05c5.233-1.2,11.417-1.634,18.55-1.3c4.367,0.2,8.384,0.683,12.05,1.45l1.8,0.45l1.101,0.1
			c1,0.033,2.05-0.033,3.149-0.2c1.2-0.2,2.184-0.3,2.95-0.3h0.2c0.367,0,0.634,0.017,0.8,0.05c0.7,0.1,1,0.5,0.9,1.2l-0.2,2.15
			C122.65,89.55,124.15,91.217,124.25,93.05z"/>
	</g>
	<g>
		
			<use xlink:href="#FlashAICB_x5F_0_x2F_Layer_1_x2F__x3C_Clip_Group_0_x3E__x5F_10"  width="12.2" height="11.9" y="-11.9" transform="matrix(1 0 0 -1 32.25 77)" style="overflow:visible;"/>
		
			<use xlink:href="#FlashAICB_x5F_0_x2F_Layer_1_x2F__x3C_Clip_Group_0_x3E__x5F_9"  width="6.9" height="2.5" y="-2.5" transform="matrix(1 0 0 -1 37.3501 77.4502)" style="overflow:visible;"/>
		
			<use xlink:href="#FlashAICB_x5F_0_x2F_Layer_1_x2F__x3C_Clip_Group_0_x3E__x5F_8"  width="20.55" height="17.5" y="-17.5" transform="matrix(1 0 0 -1 31.6499 70.8501)" style="overflow:visible;"/>
		<g>
			<path style="fill-rule:evenodd;clip-rule:evenodd;fill:#6C3E21;" d="M62.5,86.35c1.467,0.4,3.267,1.233,5.4,2.5L67.05,94.2
				l-3.5,1.55c-0.866-1.9-1.633-3.434-2.3-4.6c-0.433-0.733-0.35-1.75,0.25-3.051L62.5,86.35z"/>
			<path style="fill-rule:evenodd;clip-rule:evenodd;fill:#8E4E1F;" d="M40.2,80.8l6.65-2.65l16.75,10.5l-0.2,3.3
				c-0.267,2.366-0.216,3.633,0.15,3.8c-0.9-0.033-2.366-0.867-4.4-2.5c-2.6-2.667-4.55-4.55-5.85-5.65
				c-2.167-1.833-4.8-2.767-7.9-2.8c-1.533-0.033-2.75,0.133-3.65,0.5l-0.85,0.55c-0.566-0.867-0.85-1.967-0.85-3.3L40.2,80.8z"/>
			<path style="fill-rule:evenodd;clip-rule:evenodd;fill:#6C3C1B;" d="M51.85,83.85c0.5,0.867,1.233,1.417,2.2,1.65
				c0.967,0.267,1.867,0.15,2.7-0.35c0.233-0.133,0.533-0.2,0.9-0.2l3.9,2.399c-1.466-0.533-2.533-0.983-3.2-1.35
				c-0.434-0.233-0.95-0.333-1.55-0.3c-0.533,0.033-0.966,0.133-1.3,0.3c-0.3,0.167-0.9,0.1-1.8-0.2c-0.9-0.333-1.5-0.717-1.8-1.15
				c-0.833-1.2-1.667-2-2.5-2.4c-0.466-0.267-1.167-0.45-2.1-0.55c-1.066-0.1-1.9,0-2.5,0.3c-0.6,0.3-1.316,0.333-2.15,0.1
				c-0.733-0.2-1.433-0.567-2.1-1.1l-0.3-0.25l0.65-0.25c0.667,0.5,1.5,0.833,2.5,1c0.7,0.1,1.4,0.066,2.1-0.1
				c0.833-0.167,1.45-0.25,1.85-0.25c0.8,0.033,1.6,0.283,2.4,0.75C50.684,82.4,51.383,83.05,51.85,83.85z"/>
			<path style="fill-rule:evenodd;clip-rule:evenodd;fill:#6C3C1B;" d="M53.7,86.15c0.966,0.3,2.15,0.6,3.55,0.899
				c1.167,0.333,2.2,0.884,3.1,1.65c0.933,0.767,1.95,1.75,3.05,2.95v0.3L63.35,92l-0.85-0.8c-0.9-0.967-1.617-1.684-2.15-2.15
				c-0.967-0.8-2.1-1.366-3.4-1.7c-1.934-0.467-3.117-0.767-3.55-0.899c-0.9-0.3-1.583-0.65-2.05-1.05
				c-1.1-1.033-1.667-1.567-1.7-1.6c-0.767-0.633-1.483-1.033-2.15-1.2c-0.566-0.1-1.3-0.034-2.2,0.2
				c-0.966,0.233-1.65,0.333-2.05,0.3c-0.933-0.1-2-0.383-3.2-0.85l0.05-0.75c1.2,0.867,2.367,1.25,3.5,1.15
				c0.533-0.033,1.267-0.167,2.2-0.4c0.867-0.167,1.684-0.117,2.45,0.15c0.533,0.2,1.317,0.8,2.35,1.8
				C51.6,85.167,52.633,85.816,53.7,86.15z"/>
			<path style="fill-rule:evenodd;clip-rule:evenodd;fill:#6C3C1B;" d="M42.3,85.1l-0.85,0.35c-0.267-0.067-0.517-0.05-0.75,0.05
				l-0.25-0.45C41.017,84.816,41.633,84.833,42.3,85.1z"/>
			<path style="fill-rule:evenodd;clip-rule:evenodd;fill:#6C3C1B;" d="M42.95,84.35c-1.1-0.233-1.983-0.167-2.65,0.2l-0.15-0.5
				c1.7-0.267,3.367-0.05,5,0.65l0.25,0.1c-0.533,0-0.917,0.017-1.15,0.05C43.917,84.617,43.483,84.45,42.95,84.35z"/>
			<path style="fill-rule:evenodd;clip-rule:evenodd;fill:#6C3C1B;" d="M63.35,95.3L62,95.2l-1.6-1c1.2,0.467,2.167,0.717,2.9,0.75
				L63.35,95.3z"/>
			<path style="fill-rule:evenodd;clip-rule:evenodd;fill:#6C3C1B;" d="M54.45,88.05c-1.333-1.066-2.284-1.684-2.85-1.85L50.95,86
				c-1-0.5-2.133-0.85-3.4-1.05L45.1,84.2c-2.033-0.667-3.65-0.9-4.85-0.7l-0.15,0.05l-0.05-0.8c1.067,0.4,2.25,0.633,3.55,0.7
				c0.7,0.033,1.483,0.183,2.35,0.45c1.233,0.4,2.066,0.65,2.5,0.75c1.767,0.4,3.55,1.25,5.35,2.55c0.567,0.399,1.567,1.149,3,2.25
				c1.4,1,2.733,1.7,4,2.1c1.167,0.434,2,0.783,2.5,1.05v0.45l-0.8-0.45c-2.3-0.833-3.983-1.583-5.05-2.25
				C57.15,90.15,56.15,89.383,54.45,88.05z"/>
			<path style="fill-rule:evenodd;clip-rule:evenodd;fill:#6C3C1B;" d="M63.25,93.75v0.5c-0.967-0.3-1.883-0.634-2.75-1
				c-0.566-0.233-1.267-0.634-2.1-1.2c-1.3-0.866-1.983-1.333-2.05-1.399l-0.8-0.851L58.3,91.4
				C59.934,92.467,61.583,93.25,63.25,93.75z"/>
			<path style="fill-rule:evenodd;clip-rule:evenodd;fill:#6C3C1B;" d="M57.45,88.05c0.833,0.2,1.517,0.483,2.05,0.851
				c0.633,0.433,0.967,0.866,1,1.3c0.067,0.433-0.133,0.616-0.6,0.55c-0.433-0.066-1.017-0.333-1.75-0.8
				C57.383,89.517,57,89.2,57,89c0.033-0.167,0.3-0.217,0.8-0.15c0.5,0.101,0.85,0.233,1.05,0.4c0.267,0.233,0.083,0.333-0.55,0.3
				c0.134-0.233,0.117-0.366-0.05-0.399c-0.5-0.101-0.617,0.017-0.35,0.35c0.233,0.233,0.55,0.417,0.95,0.55
				c0.433,0.167,0.7,0.134,0.8-0.1c0.233-0.467-0.3-0.95-1.6-1.45l-1.7-0.6L57.45,88.05z"/>
			<path style="fill-rule:evenodd;clip-rule:evenodd;fill:#6C3C1B;" d="M47.9,83.45c-0.233-0.167-0.483-0.25-0.75-0.25l-1.25,0.2
				l0.6-0.25c0.467-0.133,0.9-0.117,1.3,0.05c0.467,0.2,0.75,0.45,0.85,0.75c0.1,0.333-0.05,0.466-0.45,0.4
				c-0.434-0.1-0.8-0.233-1.1-0.4c-0.333-0.167-0.383-0.3-0.15-0.4c0.333-0.1,0.633-0.017,0.9,0.25H47.3
				c0.1,0.1,0.284,0.184,0.55,0.25c0.3,0.1,0.433,0.067,0.4-0.1C48.217,83.783,48.1,83.617,47.9,83.45z"/>
			<path style="fill-rule:evenodd;clip-rule:evenodd;fill:#E4803B;" d="M52.7,83.5c-3.434-1.5-6.55-2.383-9.35-2.65l-3.2,0.05
				c0.133-0.2,0.333-0.433,0.6-0.7c0.533-0.567,1.167-1,1.9-1.3c1.733-0.733,3.184-1.067,4.35-1l2.55,0.6
				c2.367,0.733,5.217,1.95,8.55,3.65c2.8,1.433,5.283,2.983,7.45,4.65c1.067,0.833,1.85,1.517,2.35,2.05L63.5,90.7
				c-0.8-0.767-1.867-1.634-3.2-2.601C57.7,86.133,55.167,84.6,52.7,83.5z"/>
			<path style="fill-rule:evenodd;clip-rule:evenodd;fill:#BC6A30;" d="M46.2,77.95c1.167,0.466,2.3,0.65,3.4,0.55h0.05l2.5,0.9
				L49,78.95c-1.467-0.2-2.667-0.5-3.6-0.9L46.2,77.95z"/>
			<path style="fill-rule:evenodd;clip-rule:evenodd;fill:#BC6A30;" d="M49.85,82c0.467,0.233,0.967,0.55,1.5,0.95l-1.95-0.7
				c-0.367-0.367-0.933-0.567-1.7-0.6h-0.2l-1.15-0.3C47.95,81.417,49.117,81.633,49.85,82z"/>
			<path style="fill-rule:evenodd;clip-rule:evenodd;fill:#BC6A30;" d="M52,80.15c-2.933-0.3-5.117-0.7-6.55-1.2l-1.5-0.55l0.7-0.15
				c1.733,0.833,3.2,1.283,4.4,1.35l4.5,0.35l1.8,0.85C54.283,80.533,53.167,80.316,52,80.15z"/>
			<path style="fill-rule:evenodd;clip-rule:evenodd;fill:#BC6A30;" d="M64.15,90.45l-0.5,0.2l-0.9-1.15
				c-0.467-0.566-1.1-1.117-1.9-1.65C59.883,87.184,58.9,86.7,57.9,86.4l-1.55-0.95c1.3,0.3,2.167,0.517,2.6,0.649
				c1.8,0.634,3.3,1.767,4.5,3.4L64.15,90.45z"/>
			<path style="fill-rule:evenodd;clip-rule:evenodd;fill:#BC6A30;" d="M57.55,82.45c-1.7-0.634-3.1-1.067-4.2-1.3
				c-6.1-1.333-9.383-2.083-9.85-2.25l-0.45-0.2l0.5-0.15l0.65,0.2c0.333,0.066,1.417,0.367,3.25,0.9c1.966,0.533,3.566,0.867,4.8,1
				c1.267,0.133,2.417,0.367,3.45,0.7l3.15,1.15c1.167,0.667,2.45,1.433,3.85,2.3c0.3,0.3,0.983,1.05,2.05,2.25
				c1,1.134,1.717,1.884,2.15,2.25l-0.2,0.05l-1.3-0.899c-0.167-0.167-0.816-0.867-1.95-2.101c-0.967-1.066-1.733-1.8-2.3-2.2
				C60.417,83.683,59.217,83.117,57.55,82.45z"/>
			<path style="fill-rule:evenodd;clip-rule:evenodd;fill:#BC6A30;" d="M58.85,83.55c-1.2-0.6-2.267-1.033-3.2-1.3
				c-1.633-0.5-4.867-1.233-9.7-2.2c-1.934-0.433-3.117-0.783-3.55-1.05l0.25-0.1h0.05c0.7,0.333,1.9,0.667,3.6,1
				c0.9,0.2,2.567,0.533,5,1c2.233,0.5,3.983,1,5.25,1.5c1,0.4,2.067,0.8,3.2,1.2c0.767,0.367,1.567,1.083,2.4,2.15
				c1.467,1.8,2.817,3.066,4.05,3.8l-0.25,0.15c-0.7-0.467-1.067-0.717-1.1-0.75c-1.167-1.067-2.35-2.317-3.55-3.75
				C60.9,84.733,60.083,84.183,58.85,83.55z"/>
			<path style="fill-rule:evenodd;clip-rule:evenodd;fill:#BC6A30;" d="M66.85,87.85c0.167,0.267,0.433,0.634,0.8,1.101l-0.4,0.149
				c-0.4-0.267-0.667-0.55-0.8-0.85l-0.7-1.3L66.85,87.85z"/>
			<path style="fill-rule:evenodd;clip-rule:evenodd;fill:#BC6A30;" d="M40.35,80.6l0.25-0.3l1.75,0.5
				c-0.633-0.033-1.133-0.033-1.5,0L40.35,80.6z"/>
			<path style="fill-rule:evenodd;clip-rule:evenodd;fill:#BC6A30;" d="M59.85,86.3c-1.467-0.767-2.783-1.367-3.95-1.8
				c-0.8-0.3-1.867-0.817-3.2-1.55c-1.367-0.733-2.233-1.184-2.6-1.35c-0.5-0.233-1.867-0.534-4.1-0.9
				c-2.367-0.367-3.75-0.617-4.15-0.75l-0.65-0.2l0.55-0.4c0.2,0.167,0.8,0.367,1.8,0.6c0.7,0.167,2.067,0.417,4.1,0.75
				c1.867,0.366,3.217,0.783,4.05,1.25c0.667,0.366,1.5,0.85,2.5,1.45c0.966,0.5,2.25,1.083,3.85,1.75c3.067,1.3,5.3,2.683,6.7,4.15
				l0.55,0.65L64.9,90.1c-0.466-0.666-1.017-1.25-1.65-1.75C62.55,87.783,61.417,87.1,59.85,86.3z"/>
			<path style="fill-rule:evenodd;clip-rule:evenodd;fill:#BC6A30;" d="M58.55,84.1c0.5,0.233,0.917,0.517,1.25,0.85
				c0.367,0.366,0.317,0.517-0.15,0.45c-0.5-0.033-1.5-0.45-3-1.25c-1.5-0.767-2.283-1.267-2.35-1.5
				c-0.133-0.433,1.05-0.183,3.55,0.75c1.3,0.467,2.217,1.05,2.75,1.75c-1.1-1-2.417-1.683-3.95-2.05c-0.6-0.1-0.933-0.15-1-0.15
				c-0.2,0.033-0.133,0.167,0.2,0.4c0.333,0.3,0.883,0.6,1.65,0.9c0.733,0.333,1.167,0.467,1.3,0.4c0.233-0.1-0.133-0.35-1.1-0.75
				c-0.2-0.067-0.284-0.05-0.25,0.05c0,0.066,0.033,0.133,0.1,0.2c-0.267-0.067-0.5-0.217-0.7-0.45c-0.133-0.167,0-0.2,0.4-0.1
				C57.684,83.7,58.117,83.867,58.55,84.1z"/>
		</g>
		
			<use xlink:href="#FlashAICB_x5F_0_x2F_Layer_1_x2F__x3C_Clip_Group_0_x3E__x5F_7"  width="24.9" height="23.05" y="-23.05" transform="matrix(1 0 0 -1 59.6499 85.6499)" style="overflow:visible;"/>
		
			<use xlink:href="#FlashAICB_x5F_0_x2F_Layer_1_x2F__x3C_Clip_Group_0_x3E__x5F_6"  width="38.3" height="34.8" y="-34.8" transform="matrix(1 0 0 -1 58.7998 79.1499)" style="overflow:visible;"/>
		
			<use xlink:href="#FlashAICB_x5F_0_x2F_Layer_1_x2F__x3C_Clip_Group_0_x3E__x5F_5"  width="18.15" height="16.35" y="-16.35" transform="matrix(1 0 0 -1 63.3501 86.2998)" style="overflow:visible;"/>
		
			<use xlink:href="#FlashAICB_x5F_0_x2F_Layer_1_x2F__x3C_Clip_Group_0_x3E__x5F_4"  width="5.7" height="6.8" y="-6.8" transform="matrix(1 0 0 -1 113.6504 85.2998)" style="overflow:visible;"/>
		
			<use xlink:href="#FlashAICB_x5F_0_x2F_Layer_1_x2F__x3C_Clip_Group_0_x3E__x5F_3"  width="55.65" height="36.4" y="-36.4" transform="matrix(1 0 0 -1 68 90.75)" style="overflow:visible;"/>
		<g>
			
				<use xlink:href="#FlashAICB_x5F_0_x2F_Layer_1_x2F__x3C_Group_x3E_"  width="23.85" height="34.8" y="-34.8" transform="matrix(1 0 0 -1 99.7998 92.25)" style="overflow:visible;opacity:0.4219;enable-background:new    ;"/>
			<path style="fill-rule:evenodd;clip-rule:evenodd;fill:#7D0D00;" d="M123.65,93.3l-1.15,23.851c-1,1.466-2.616,2.899-4.85,4.3
				l1.35-28.4L123.65,93.3z"/>
		</g>
		
			<use xlink:href="#FlashAICB_x5F_0_x2F_Layer_1_x2F__x3C_Clip_Group_0_x3E__x5F_2"  width="8.85" height="29.45" y="-29.45" transform="matrix(1 0 0 -1 72.6001 93.75)" style="overflow:visible;"/>
		<g>
			<path style="fill-rule:evenodd;clip-rule:evenodd;fill:#7D0D00;" d="M69.6,90.75l2.05,0.1L70.4,117.2
				c-0.767-0.8-1.4-1.65-1.9-2.55L69.6,90.75z"/>
		</g>
		
			<use xlink:href="#FlashAICB_x5F_0_x2F_Layer_1_x2F__x3C_Clip_Group_0_x3E__x5F_1"  width="54.85" height="19" y="-19" transform="matrix(1 0 0 -1 69.1499 82.5)" style="overflow:visible;"/>
		
			<use xlink:href="#FlashAICB_x5F_0_x2F_Layer_1_x2F__x3C_Clip_Group_0_x3E__x5F_11"  width="7.9" height="7.65" y="-7.65" transform="matrix(1 0 0 -1 110.4502 84.8501)" style="overflow:visible;"/>
		<g>
			<path style="fill-rule:evenodd;clip-rule:evenodd;fill:#909090;" d="M118.4,86.55c-0.801,0.7-1.067,1.101-0.801,1.2
				c4.101,1.7,6.101,3.55,6,5.55c-0.1,2.267-2.833,4.066-8.199,5.4c-5.367,1.366-11.767,1.866-19.2,1.5
				c-7.467-0.334-13.8-1.434-19-3.3c-5.2-1.834-7.75-3.884-7.65-6.15c0.1-2.267,2.817-4.083,8.15-5.45
				c5.367-1.333,11.783-1.833,19.25-1.5c5.2,0.233,9.983,0.883,14.35,1.95c0.4,0.1,1.717,0.033,3.95-0.2
				c2.2-0.267,3.483-0.333,3.85-0.2C119.434,85.483,119.2,85.883,118.4,86.55z M113.9,86.05c-2,0.2-3.167,0.267-3.5,0.2
				c-4-0.9-8.434-1.467-13.301-1.7c-7.1-0.333-13.183,0.083-18.25,1.25c-5.1,1.167-7.684,2.733-7.75,4.7
				c-0.1,2,2.333,3.816,7.3,5.45c4.9,1.6,10.917,2.583,18.05,2.95c7.066,0.333,13.149-0.084,18.25-1.25
				c5.066-1.167,7.649-2.733,7.75-4.7c0.1-1.733-1.867-3.384-5.9-4.95c-0.3-0.1-0.133-0.467,0.5-1.1c0.601-0.601,0.7-0.95,0.3-1.05
				C117.017,85.75,115.867,85.816,113.9,86.05z"/>
		</g>
	</g>
</g>
<g>
	
		<linearGradient id="SVGID_49_" gradientUnits="userSpaceOnUse" x1="-37.2637" y1="73.313" x2="-16.9142" y2="73.313" gradientTransform="matrix(0.457 -0.8895 0.8895 0.457 -1.411140e-004 -3.784895e-005)">
		<stop  offset="0.0549" style="stop-color:#6E2669"/>
		<stop  offset="0.5882" style="stop-color:#D1A9B1"/>
		<stop  offset="0.8392" style="stop-color:#FCE3D0"/>
	</linearGradient>
	<path style="fill-rule:evenodd;clip-rule:evenodd;fill:url(#SVGID_49_);" d="M59.5,50.45c0.434,0.767,0.633,1.583,0.6,2.45
		l-0.05,1.55l1.2,0.9c0.733,0.566,1.267,1.25,1.6,2.05c0.333,0.833,0.417,1.683,0.25,2.55c-0.2,1.066-0.667,1.933-1.4,2.6
		c-0.6,0.533-1.25,0.9-1.95,1.1l-1.45,0.4l-0.5,1.45c-0.3,0.8-0.7,1.433-1.2,1.9c-0.733,0.733-1.617,1.15-2.65,1.25l-0.7,0.05
		c-0.633,0-1.316-0.167-2.05-0.5c-0.7-0.333-1.284-0.85-1.75-1.55l-0.85-1.3H47c-0.867-0.034-1.667-0.284-2.4-0.75
		c-0.767-0.5-1.333-1.133-1.7-1.9c-0.4-0.833-0.55-1.684-0.45-2.55c0.066-0.9,0.383-1.7,0.95-2.4l0.95-1.2L43.9,55.1
		c-0.267-0.833-0.283-1.7-0.05-2.6c0.233-0.867,0.667-1.6,1.3-2.2c0.967-0.9,2.083-1.333,3.35-1.3c0.5,0,1,0.1,1.5,0.3l1.45,0.5
		l1.2-0.9c0.867-0.567,1.817-0.85,2.85-0.85c0.633,0,1.317,0.167,2.05,0.5l0.1,0.05C58.417,49.066,59.033,49.683,59.5,50.45z"/>
	<path style="fill-rule:evenodd;clip-rule:evenodd;fill:none;stroke:#FDE6FF;stroke-width:0.25;" d="M59.5,50.45
		c0.434,0.767,0.633,1.583,0.6,2.45l-0.05,1.55l1.2,0.9c0.733,0.566,1.267,1.25,1.6,2.05c0.333,0.833,0.417,1.683,0.25,2.55
		c-0.2,1.066-0.667,1.933-1.4,2.6c-0.6,0.533-1.25,0.9-1.95,1.1l-1.45,0.4l-0.5,1.45c-0.3,0.8-0.7,1.433-1.2,1.9
		c-0.733,0.733-1.617,1.15-2.65,1.25l-0.7,0.05c-0.633,0-1.316-0.167-2.05-0.5c-0.7-0.333-1.284-0.85-1.75-1.55l-0.85-1.3H47
		c-0.867-0.034-1.667-0.284-2.4-0.75c-0.767-0.5-1.333-1.133-1.7-1.9c-0.4-0.833-0.55-1.684-0.45-2.55c0.066-0.9,0.383-1.7,0.95-2.4
		l0.95-1.2L43.9,55.1c-0.267-0.833-0.283-1.7-0.05-2.6c0.233-0.867,0.667-1.6,1.3-2.2c0.967-0.9,2.083-1.333,3.35-1.3
		c0.5,0,1,0.1,1.5,0.3l1.45,0.5l1.2-0.9c0.867-0.567,1.817-0.85,2.85-0.85c0.633,0,1.317,0.167,2.05,0.5l0.1,0.05
		C58.417,49.066,59.033,49.683,59.5,50.45z"/>
	<path style="fill-rule:evenodd;clip-rule:evenodd;fill:#3C243B;" d="M54.25,51.1c0.267-0.233,0.6-0.35,1-0.35
		c0.4-0.033,0.767,0.033,1.1,0.2c0.767,0.433,1.117,1.05,1.05,1.85l-0.1,2.95l2.35,1.75c0.7,0.5,0.967,1.167,0.8,2
		c-0.034,0.367-0.233,0.733-0.6,1.1c-0.333,0.267-0.617,0.433-0.85,0.5l-2.8,0.8l-0.95,2.75c-0.1,0.367-0.267,0.65-0.5,0.85
		c-0.267,0.267-0.65,0.45-1.15,0.55c-0.767,0.1-1.417-0.2-1.95-0.9L50,62.7h-2.95c-0.833-0.067-1.417-0.45-1.75-1.15
		c-0.366-0.767-0.3-1.483,0.2-2.15l1.8-2.3l-0.85-2.8c-0.267-0.767-0.083-1.467,0.55-2.1c0.6-0.6,1.3-0.733,2.1-0.4l2.75,1
		L54.25,51.1z"/>
	
		<linearGradient id="SVGID_50_" gradientUnits="userSpaceOnUse" x1="-33.6489" y1="73.2988" x2="-20.5195" y2="73.2988" gradientTransform="matrix(0.4571 -0.8894 0.8894 0.4571 -5.049109e-004 2.480149e-004)">
		<stop  offset="0.0235" style="stop-color:#808080"/>
		<stop  offset="0.7294" style="stop-color:#E6E6E6"/>
		<stop  offset="1" style="stop-color:#B3B3B3"/>
	</linearGradient>
	<path style="fill-rule:evenodd;clip-rule:evenodd;fill:url(#SVGID_50_);" d="M55.9,51.8c0.4,0.233,0.6,0.567,0.6,1l-0.15,3.4
		l2.75,2.05c0.367,0.267,0.5,0.617,0.4,1.05c0,0.2-0.1,0.4-0.3,0.6c-0.067,0.1-0.217,0.183-0.45,0.25l-3.3,0.95l-1.1,3.25
		c-0.033,0.167-0.117,0.316-0.25,0.45l-0.6,0.3c-0.433,0.066-0.783-0.1-1.05-0.5l-1.9-2.85H47.1c-0.467,0-0.783-0.217-0.95-0.65
		c-0.233-0.4-0.2-0.767,0.1-1.1l2.1-2.7l-1-3.3c-0.1-0.434,0-0.8,0.3-1.1c0.267-0.267,0.633-0.35,1.1-0.25l3.2,1.2l2.8-2
		C55.15,51.617,55.533,51.6,55.9,51.8z"/>
	<path style="fill-rule:evenodd;clip-rule:evenodd;fill:#FFFFFF;" d="M56.5,52.8l-0.15,3.4l2.75,2.05
		c0.367,0.267,0.5,0.617,0.4,1.05c0,0.2-0.1,0.4-0.3,0.6c-0.067,0.1-0.217,0.183-0.45,0.25l0.15-0.35
		c0.067-0.433-0.083-0.783-0.45-1.05L55.7,56.7l0.15-3.4c0-0.467-0.2-0.8-0.6-1c-0.4-0.233-0.767-0.217-1.1,0.05l-2.8,2l-3.25-1.2
		c-0.2-0.033-0.4-0.033-0.6,0c0.067-0.167,0.117-0.25,0.15-0.25c0.267-0.267,0.633-0.35,1.1-0.25l3.2,1.2l2.8-2
		c0.4-0.233,0.783-0.25,1.15-0.05C56.3,52.033,56.5,52.367,56.5,52.8z"/>
	
		<linearGradient id="SVGID_51_" gradientUnits="userSpaceOnUse" x1="-122.7754" y1="76.4717" x2="-100.3868" y2="76.4717" gradientTransform="matrix(-0.4913 -0.871 0.871 -0.4913 2.435446e-004 -7.373095e-005)">
		<stop  offset="0.0549" style="stop-color:#6E2669"/>
		<stop  offset="0.5882" style="stop-color:#D1A9B1"/>
		<stop  offset="0.8392" style="stop-color:#FCE3D0"/>
	</linearGradient>
	<path style="fill-rule:evenodd;clip-rule:evenodd;fill:url(#SVGID_51_);" d="M120.4,48.9l1.199,0.9l1.45-0.5c0.5-0.2,1-0.3,1.5-0.3
		c1.267-0.033,2.384,0.4,3.351,1.3c0.666,0.6,1.1,1.333,1.3,2.2c0.233,0.9,0.217,1.767-0.05,2.6l-0.45,1.45l0.95,1.2
		c0.533,0.7,0.85,1.5,0.949,2.4c0.101,0.867-0.033,1.717-0.399,2.55c-0.367,0.767-0.934,1.4-1.7,1.9
		c-0.767,0.466-1.583,0.716-2.45,0.75h-1.6l-0.851,1.3c-0.466,0.7-1.05,1.217-1.75,1.55c-0.666,0.333-1.35,0.5-2.05,0.5l-0.7-0.05
		c-0.966-0.1-1.85-0.517-2.649-1.25c-0.5-0.467-0.9-1.1-1.2-1.9l-0.5-1.45l-1.45-0.4c-0.7-0.2-1.35-0.567-1.95-1.1
		c-0.732-0.667-1.199-1.533-1.399-2.6c-0.134-0.867-0.05-1.717,0.25-2.55c0.333-0.8,0.866-1.483,1.6-2.05l1.2-0.9l-0.05-1.55
		c-0.033-0.867,0.184-1.683,0.649-2.45c0.434-0.767,1.034-1.384,1.801-1.85l0.1-0.05c0.733-0.333,1.417-0.5,2.05-0.5
		C118.583,48.05,119.533,48.333,120.4,48.9z"/>
	<path style="fill-rule:evenodd;clip-rule:evenodd;fill:none;stroke:#FDE6FF;stroke-width:0.25;" d="M120.4,48.9l1.199,0.9l1.45-0.5
		c0.5-0.2,1-0.3,1.5-0.3c1.267-0.033,2.384,0.4,3.351,1.3c0.666,0.6,1.1,1.333,1.3,2.2c0.233,0.9,0.217,1.767-0.05,2.6l-0.45,1.45
		l0.95,1.2c0.533,0.7,0.85,1.5,0.949,2.4c0.101,0.867-0.033,1.717-0.399,2.55c-0.367,0.767-0.934,1.4-1.7,1.9
		c-0.767,0.466-1.583,0.716-2.45,0.75h-1.6l-0.851,1.3c-0.466,0.7-1.05,1.217-1.75,1.55c-0.666,0.333-1.35,0.5-2.05,0.5l-0.7-0.05
		c-0.966-0.1-1.85-0.517-2.649-1.25c-0.5-0.467-0.9-1.1-1.2-1.9l-0.5-1.45l-1.45-0.4c-0.7-0.2-1.35-0.567-1.95-1.1
		c-0.732-0.667-1.199-1.533-1.399-2.6c-0.134-0.867-0.05-1.717,0.25-2.55c0.333-0.8,0.866-1.483,1.6-2.05l1.2-0.9l-0.05-1.55
		c-0.033-0.867,0.184-1.683,0.649-2.45c0.434-0.767,1.034-1.384,1.801-1.85l0.1-0.05c0.733-0.333,1.417-0.5,2.05-0.5
		C118.583,48.05,119.533,48.333,120.4,48.9z"/>
	<path style="fill-rule:evenodd;clip-rule:evenodd;fill:#47260B;" d="M118.85,51.1l2.351,1.7l2.8-1c0.767-0.333,1.45-0.2,2.05,0.4
		c0.634,0.6,0.817,1.3,0.55,2.1l-0.85,2.8l1.8,2.3c0.5,0.667,0.567,1.383,0.2,2.15c-0.333,0.7-0.917,1.083-1.75,1.15h-2.95
		l-1.649,2.45c-0.533,0.7-1.184,1-1.95,0.9c-0.5-0.1-0.884-0.283-1.15-0.55c-0.2-0.2-0.366-0.483-0.5-0.85l-0.95-2.75l-2.8-0.8
		c-0.233-0.067-0.517-0.233-0.85-0.5c-0.3-0.3-0.5-0.667-0.601-1.1c-0.166-0.833,0.101-1.5,0.801-2l2.35-1.75l-0.1-2.95
		c-0.067-0.8,0.283-1.417,1.05-1.85C117.467,50.55,118.184,50.6,118.85,51.1z"/>
	<linearGradient id="SVGID_52_" gradientUnits="userSpaceOnUse" x1="126.0918" y1="60.6074" x2="114.1362" y2="55.1799">
		<stop  offset="0.0235" style="stop-color:#808080"/>
		<stop  offset="0.7294" style="stop-color:#E6E6E6"/>
		<stop  offset="1" style="stop-color:#B3B3B3"/>
	</linearGradient>
	<path style="fill-rule:evenodd;clip-rule:evenodd;fill:url(#SVGID_52_);" d="M122.5,61.75l-1.9,2.85
		c-0.232,0.4-0.583,0.566-1.05,0.5l-0.6-0.3c-0.134-0.133-0.217-0.283-0.25-0.45L117.6,61.1l-3.3-0.95
		c-0.233-0.067-0.383-0.15-0.45-0.25c-0.199-0.2-0.3-0.4-0.3-0.6c-0.1-0.433,0.033-0.783,0.4-1.05l2.75-2.05l-0.101-3.4
		c-0.033-0.433,0.15-0.767,0.551-1c0.366-0.2,0.75-0.183,1.149,0.05l2.8,2l3.2-1.2c0.467-0.1,0.834-0.017,1.101,0.25
		c0.333,0.333,0.433,0.7,0.3,1.1l-1,3.3l2.1,2.7c0.3,0.333,0.334,0.7,0.101,1.1c-0.167,0.433-0.483,0.65-0.95,0.65H122.5z"/>
	<path style="fill-rule:evenodd;clip-rule:evenodd;fill:#FFFFFF;" d="M121.7,54.35l-2.8-2c-0.334-0.267-0.7-0.284-1.101-0.05
		c-0.399,0.233-0.6,0.567-0.6,1l0.149,3.4l-2.75,2.05c-0.366,0.267-0.517,0.617-0.449,1.05l0.149,0.35
		c-0.233-0.067-0.383-0.15-0.45-0.25c-0.199-0.2-0.3-0.4-0.3-0.6c-0.1-0.433,0.033-0.783,0.4-1.05l2.75-2.05l-0.101-3.4
		c-0.033-0.433,0.15-0.767,0.551-1c0.366-0.2,0.75-0.183,1.149,0.05l2.8,2l3.2-1.2c0.467-0.1,0.834-0.017,1.101,0.25
		c0.033,0,0.083,0.083,0.149,0.25c-0.2-0.033-0.399-0.033-0.6,0L121.7,54.35z"/>
</g>
<use xlink:href="#FlashAICB_x5F_1_x2F_Layer_1_x2F__x3C_Path_x3E_"  width="118.15" height="56.85" y="-56.85" transform="matrix(1 0 0 -1 27.4502 86.7998)" style="overflow:visible;opacity:0.2813;enable-background:new    ;"/>
<g>
	
		<use xlink:href="#FlashAICB_x5F_1_x2F_Layer_1_x2F__x3C_Path_x3E__x5F_1"  width="109.55" height="55.55" y="-55.55" transform="matrix(1 0 0 -1 31.75 28.25)" style="overflow:visible;opacity:0.1992;enable-background:new    ;"/>
	
		<use xlink:href="#FlashAICB_x5F_1_x2F_Layer_1_x2F__x3C_Path_x3E__x5F_0"  width="109.55" height="61.044" y="-61.044" transform="matrix(1 0 0 -1 31.75 28.25)" style="overflow:visible;opacity:0.1211;enable-background:new    ;"/>
</g>
</svg>
