<?xml version="1.0" encoding="iso-8859-1"?>
<!-- Generator: Adobe Illustrator 15.1.0, SVG Export Plug-In . SVG Version: 6.00 Build 0)  -->
<!DOCTYPE svg PUBLIC "-//W3C//DTD SVG 1.1//EN" "http://www.w3.org/Graphics/SVG/1.1/DTD/svg11.dtd">
<svg version="1.1" id="Layer_1" xmlns="http://www.w3.org/2000/svg" xmlns:xlink="http://www.w3.org/1999/xlink" x="0px" y="0px"
	 width="171.7px" height="171.8px" viewBox="0 0 171.7 171.8" style="enable-background:new 0 0 171.7 171.8;" xml:space="preserve"
	>
<symbol  id="FlashAICB_x2F_Layer_1_x2F__x3C_Clip_Group_0_x3E_" viewBox="0 -56.65 87.8 56.65">
	<g id="Layer_1_4_">
	</g>
	<g>
		<defs>
			<polygon id="SVGID_1_" points="6.1,0 0,-45.7 81.65,-56.65 87.8,-11 			"/>
		</defs>
		<clipPath id="SVGID_2_">
			<use xlink:href="#SVGID_1_"  style="overflow:visible;"/>
		</clipPath>
		<g id="Layer_3_2_" style="clip-path:url(#SVGID_2_);">
			<path style="fill-rule:evenodd;clip-rule:evenodd;fill:#FFFFFF;" d="M31.65-16.25l8.05,2.6l-4.95-36.7
				c-1.867,0.2-3.85,0.783-5.95,1.75l-1.4,0.7L31.65-16.25z"/>
			<path style="fill-rule:evenodd;clip-rule:evenodd;fill:#FFFFFF;" d="M1.4-35.25l1.25,9.35c5.633,1.967,13.283,4.517,22.95,7.65
				L21.95-45.3C15.75-42.333,8.9-38.983,1.4-35.25z"/>
			<path style="fill-rule:evenodd;clip-rule:evenodd;fill:#FFFFFF;" d="M85.4-26.55c0.733-1.4-0.65-3.05-4.15-4.95l-2.15-1.1
				l1.2,9.05C83.233-24.717,84.933-25.717,85.4-26.55z"/>
			<path style="fill-rule:evenodd;clip-rule:evenodd;fill:#FFFFFF;" d="M71.3-19.6l-2.4-17.75l-4.25-1.9l3.2,24.05
				c1.2,0.3,2.167,0.784,2.9,1.45c0.433,0.4,0.967,1.017,1.6,1.85l-0.75-5.55c-0.3-0.2-0.583-0.483-0.85-0.85
				C70.55-18.633,70.733-19.067,71.3-19.6z"/>
			<path style="fill-rule:evenodd;clip-rule:evenodd;fill:#FFFFFF;" d="M66.05-15.5l-3.3-24.55L52.8-44.4l4.05,30.35
				c1.967-0.7,3.05-1.083,3.25-1.15c1-0.3,2.117-0.45,3.35-0.45C64.45-15.65,65.317-15.6,66.05-15.5z"/>
			<path style="fill-rule:evenodd;clip-rule:evenodd;fill:#FFFFFF;" d="M82.1-10.2c0.933-0.466,1.467-1.05,1.6-1.75
				c0.133-0.767-0.25-1.517-1.15-2.25c-0.367-0.333-0.733-0.583-1.1-0.75L82.1-10.2z"/>
		</g>
	</g>
	<g id="Layer_4_2_">
	</g>
</symbol>
<symbol  id="FlashAICB_x2F_Layer_1_x2F__x3C_Clip_Group_0_x3E__x5F_0" viewBox="0 -26.65 29 26.65">
	<g id="Layer_1_5_">
	</g>
	<g>
		<defs>
			<path id="SVGID_3_" d="M25.2-14.4c-2.034,2.4-4.8,5-8.3,7.8C12.333-2.867,7.833-0.667,3.4,0H3.1C3.067-0.9,3.167-2.167,3.4-3.8
				c0.4-3.3,1.2-6.883,2.4-10.75c1.1-3.5,2.083-6.2,2.95-8.1c0.433-0.967,0.767-1.567,1-1.8c2.8,2.4,5.65,4.317,8.55,5.75
				c2.1,1.034,4.217,1.617,6.35,1.75c1.067,0.034,1.917-0.017,2.55-0.15C26.9-16.467,26.233-15.567,25.2-14.4z"/>
		</defs>
		<clipPath id="SVGID_4_">
			<use xlink:href="#SVGID_3_"  style="overflow:visible;"/>
		</clipPath>
		<g id="Layer_3_3_" style="clip-path:url(#SVGID_4_);">
			<linearGradient id="SVGID_5_" gradientUnits="userSpaceOnUse" x1="1.7739" y1="-11.5947" x2="27.2239" y2="-15.0197">
				<stop  offset="0" style="stop-color:#949494"/>
				<stop  offset="1" style="stop-color:#D5D5D5"/>
			</linearGradient>
			<polygon style="fill-rule:evenodd;clip-rule:evenodd;fill:url(#SVGID_5_);" points="3.1,0 29,-3.45 25.9,-26.65 0,-23.15 			"/>
		</g>
	</g>
	<g id="Layer_4_3_">
	</g>
</symbol>
<symbol  id="FlashAICB_x2F_Layer_1_x2F__x3C_Clip_Group_0_x3E__x5F_1" viewBox="0 -11.45 14.25 11.45">
	<g id="Layer_1_3_">
	</g>
	<g>
		<defs>
			<path id="SVGID_6_" d="M9.15-3.4l-0.9,0.25c-1.4,0.167-2.867-0.167-4.4-1c-1.5-0.867-1.867-1.6-1.1-2.2
				c1.233-0.933,3.1-0.9,5.6,0.1S11.117-4.3,9.15-3.4z"/>
		</defs>
		<clipPath id="SVGID_7_">
			<use xlink:href="#SVGID_6_"  style="overflow:visible;"/>
		</clipPath>
		<g id="Layer_3_1_" style="clip-path:url(#SVGID_7_);">
			<linearGradient id="SVGID_8_" gradientUnits="userSpaceOnUse" x1="3.8647" y1="-4.6553" x2="10.1397" y2="-6.7303">
				<stop  offset="0" style="stop-color:#9B7C36"/>
				<stop  offset="1" style="stop-color:#E0A858"/>
			</linearGradient>
			<polygon style="fill-rule:evenodd;clip-rule:evenodd;fill:url(#SVGID_8_);" points="2.25,0 14.25,-4.15 11.95,-11.45 0,-7.25 			
				"/>
		</g>
	</g>
	<g id="Layer_4_1_">
	</g>
</symbol>
<symbol  id="FlashAICB_x2F_Layer_1_x2F__x3C_Group_x3E_" viewBox="0 -56.65 87.8 56.65">
	<g id="Layer_1_9_">
		<g>
			
				<use xlink:href="#FlashAICB_x2F_Layer_1_x2F__x3C_Clip_Group_0_x3E_"  width="87.8" height="56.65" y="-56.65" style="overflow:visible;"/>
		</g>
	</g>
</symbol>
<symbol  id="FlashAICB_x2F_Layer_1_x2F__x3C_Path_x3E_" viewBox="0 -61.9 128.6 61.9">
	<g id="Layer_1_6_">
		
			<radialGradient id="SVGID_9_" cx="64.2998" cy="-30.9502" r="50.4599" gradientTransform="matrix(1 0 0 -1 0 -61.9004)" gradientUnits="userSpaceOnUse">
			<stop  offset="0" style="stop-color:#F3A32D;stop-opacity:0"/>
			<stop  offset="0.1098" style="stop-color:#EB982C;stop-opacity:0.1294"/>
			<stop  offset="0.302" style="stop-color:#D37B29;stop-opacity:0.4863"/>
			<stop  offset="0.5216" style="stop-color:#B25225"/>
		</radialGradient>
		<path style="fill-rule:evenodd;clip-rule:evenodd;fill:url(#SVGID_9_);" d="M128.05-0.3L128.6,0
			c-0.633-17.233-7.167-31.85-19.6-43.85C96.5-55.883,81.583-61.9,64.25-61.9c-17.033,0-31.733,5.816-44.1,17.45
			C7.783-32.883,1.067-18.683,0-1.85c4.967-12.967,13.183-23.467,24.65-31.5c11.7-8.2,24.717-12.3,39.05-12.3
			c14.667,0,27.917,4.25,39.75,12.75C115.05-24.567,123.25-13.7,128.05-0.3z"/>
	</g>
</symbol>
<symbol  id="FlashAICB_x2F_Layer_1_x2F__x3C_Path_x3E__x5F_0" viewBox="0 -66.434 119.2 66.434">
	<g id="Layer_1_8_">
		<path style="fill-rule:evenodd;clip-rule:evenodd;fill:#FFFFFF;" d="M115.4-37.25c2.533-6.1,3.8-11.85,3.8-17.25
			c0-5.367-1.567-8.75-4.7-10.15c-2.533-1.133-6.783-1.117-12.75,0.05c-7.9,1.9-14.217,3.367-18.95,4.4
			c-8.667,1.833-16.4,2.75-23.2,2.75c-6.867,0-14.6-1-23.2-3c-9.033-2.367-15.35-3.966-18.95-4.8c-6-1.367-10.25-1.55-12.75-0.55
			C1.567-64.533,0-61.217,0-55.85c0,5.967,1.267,12.117,3.8,18.45c2.667,6.7,6.434,12.733,11.3,18.1C26.7-6.433,41.533,0,59.6,0
			c17.833,0,32.65-6.5,44.45-19.5C108.883-24.833,112.667-30.75,115.4-37.25z"/>
	</g>
</symbol>
<symbol  id="FlashAICB_x2F_Layer_1_x2F__x3C_Path_x3E__x5F_1" viewBox="0 -128.55 128.8 128.55">
	<g id="Layer_1_2_">
		
			<radialGradient id="SVGID_10_" cx="64.3999" cy="-64.2749" r="64.3374" gradientTransform="matrix(1 0 0 -1 0 -128.5498)" gradientUnits="userSpaceOnUse">
			<stop  offset="0" style="stop-color:#E2E5BD"/>
			<stop  offset="0.0824" style="stop-color:#E3DCB2"/>
			<stop  offset="0.2235" style="stop-color:#E5C596"/>
			<stop  offset="0.4078" style="stop-color:#E99F6A"/>
			<stop  offset="0.6078" style="stop-color:#EE6E33"/>
			<stop  offset="0.6745" style="stop-color:#E86C33;stop-opacity:0.9725"/>
			<stop  offset="0.7608" style="stop-color:#D76732;stop-opacity:0.898"/>
			<stop  offset="0.8667" style="stop-color:#BB5F31;stop-opacity:0.7804"/>
			<stop  offset="0.9765" style="stop-color:#955430;stop-opacity:0.6157"/>
			<stop  offset="1" style="stop-color:#8C5130;stop-opacity:0.5765"/>
		</radialGradient>
		<path style="fill-rule:evenodd;clip-rule:evenodd;fill:url(#SVGID_10_);" d="M128.8-64.3c0-17.733-6.283-32.883-18.85-45.45
			c-12.6-12.533-27.784-18.8-45.55-18.8c-17.8,0-32.983,6.267-45.55,18.8C6.283-97.217,0-82.067,0-64.3
			c0,17.767,6.283,32.933,18.85,45.5C31.417-6.267,46.6,0,64.4,0c17.767,0,32.95-6.267,45.55-18.8
			C122.517-31.367,128.8-46.533,128.8-64.3z"/>
	</g>
</symbol>
<symbol  id="FlashAICB_x2F_Layer_1_x2F__x3C_Path_x3E__x5F_1_x5F_0" viewBox="0 -60.45 119.2 60.45">
	<g id="Layer_1_7_">
		
			<linearGradient id="SVGID_11_" gradientUnits="userSpaceOnUse" x1="16160.6572" y1="-58.4668" x2="16221.0479" y2="-58.4668" gradientTransform="matrix(1.654944e-005 1 -1 -0.001 0.8657 -16221.1064)">
			<stop  offset="0.1294" style="stop-color:#E2B8B2"/>
			<stop  offset="0.9255" style="stop-color:#FFFFFF"/>
		</linearGradient>
		<path style="fill-rule:evenodd;clip-rule:evenodd;fill:url(#SVGID_11_);" d="M104.05-19.5c4.833-5.333,8.617-11.25,11.35-17.75
			c2.533-6.1,3.8-11.85,3.8-17.25c0-1.8-0.184-3.4-0.55-4.8c-2,11.966-7.85,22.6-17.55,31.9c-11.434,11-25.267,16.5-41.5,16.5
			c-16.533,0-30.45-5.483-41.75-16.45c-9.733-9.433-15.533-20.467-17.4-33.1C0.15-59.15,0-57.617,0-55.85
			c0,5.967,1.267,12.117,3.8,18.45c2.667,6.7,6.434,12.733,11.3,18.1C26.7-6.433,41.533,0,59.6,0C77.433,0,92.25-6.5,104.05-19.5z"
			/>
	</g>
</symbol>
<g>
	<path style="fill-rule:evenodd;clip-rule:evenodd;fill:#FFFFFF;" d="M0,85.9c0-11.633,2.25-22.767,6.75-33.4
		c4.367-10.267,10.5-19.367,18.4-27.3c7.934-7.934,17.033-14.083,27.3-18.45C63.083,2.25,74.217,0,85.85,0
		c11.634,0,22.767,2.25,33.4,6.75c10.267,4.367,19.366,10.517,27.3,18.45c7.9,7.933,14.033,17.033,18.4,27.3
		c4.5,10.633,6.75,21.767,6.75,33.4s-2.25,22.767-6.75,33.4c-4.367,10.267-10.5,19.367-18.4,27.3
		c-7.934,7.934-17.033,14.084-27.3,18.45c-10.634,4.5-21.767,6.75-33.4,6.75c-11.633,0-22.766-2.25-33.399-6.75
		c-10.267-4.366-19.367-10.517-27.3-18.45c-7.9-7.933-14.033-17.033-18.4-27.3C2.25,108.667,0,97.533,0,85.9z"/>
	<g>
		<g>
			
				<linearGradient id="SVGID_12_" gradientUnits="userSpaceOnUse" x1="-157.6851" y1="85.876" x2="-14.2856" y2="85.876" gradientTransform="matrix(6.973501e-006 -1 1 -0.001 -1.064519e-004 4.449275e-004)">
				<stop  offset="0.0745" style="stop-color:#8C5130"/>
				<stop  offset="0.1922" style="stop-color:#A56741"/>
				<stop  offset="0.4431" style="stop-color:#E59F6C"/>
				<stop  offset="0.4784" style="stop-color:#EFA773"/>
				<stop  offset="0.5961" style="stop-color:#EEAB77"/>
				<stop  offset="0.7176" style="stop-color:#ECB684"/>
				<stop  offset="0.8431" style="stop-color:#E8C799"/>
				<stop  offset="0.9725" style="stop-color:#E3DFB6"/>
				<stop  offset="1" style="stop-color:#E2E5BD"/>
			</linearGradient>
			<path style="fill-rule:evenodd;clip-rule:evenodd;fill:url(#SVGID_12_);" d="M57.95,19.85c8.9-3.767,18.2-5.65,27.899-5.65
				c9.7,0,19,1.883,27.9,5.65c8.566,3.633,16.167,8.75,22.8,15.35c6.601,6.633,11.717,14.233,15.351,22.8
				c3.767,8.9,5.649,18.2,5.649,27.9s-1.883,19-5.649,27.9c-3.634,8.567-8.75,16.167-15.351,22.8
				c-6.633,6.601-14.233,11.717-22.8,15.351c-8.9,3.767-18.2,5.649-27.9,5.649c-9.7,0-19-1.883-27.899-5.649
				c-8.567-3.634-16.15-8.75-22.75-15.351c-6.6-6.633-11.717-14.232-15.35-22.8c-3.767-8.899-5.65-18.2-5.65-27.9
				s1.883-19,5.65-27.9c3.6-8.566,8.717-16.167,15.35-22.8C41.8,28.6,49.383,23.483,57.95,19.85z"/>
			<path style="fill-rule:evenodd;clip-rule:evenodd;fill:#421804;" d="M20.65,58.35c-3.7,8.767-5.55,17.95-5.55,27.55
				s1.85,18.784,5.55,27.55c3.567,8.467,8.617,15.967,15.15,22.5c6.534,6.533,14.034,11.6,22.5,15.2
				c8.767,3.699,17.95,5.55,27.55,5.55c9.601,0,18.784-1.851,27.551-5.55c8.466-3.601,15.966-8.667,22.5-15.2
				c6.533-6.533,11.6-14.033,15.199-22.5c3.7-8.767,5.551-17.95,5.551-27.55S154.8,67.117,151.1,58.35
				c-3.6-8.467-8.666-15.967-15.199-22.5c-6.534-6.533-14.034-11.6-22.5-15.2c-8.767-3.7-17.95-5.55-27.551-5.55
				c-19.533,0-36.216,6.917-50.05,20.75C29.3,42.383,24.25,49.883,20.65,58.35z M34.5,34.55c6.867-6.833,14.717-12.083,23.55-15.75
				c8.833-3.667,18.1-5.5,27.8-5.5c9.7,0,18.967,1.833,27.801,5.5c8.833,3.634,16.683,8.884,23.55,15.75
				c6.866,6.867,12.116,14.717,15.75,23.55c3.666,8.833,5.5,18.1,5.5,27.8s-1.834,18.967-5.5,27.8
				c-3.634,8.866-8.884,16.717-15.75,23.55c-6.867,6.867-14.717,12.117-23.55,15.75c-8.834,3.667-18.101,5.5-27.801,5.5
				c-9.7,0-18.966-1.833-27.8-5.5c-8.833-3.633-16.683-8.883-23.55-15.75c-6.833-6.833-12.083-14.684-15.75-23.55
				c-3.633-8.833-5.45-18.101-5.45-27.8s1.817-18.966,5.45-27.8C22.417,49.233,27.667,41.383,34.5,34.55z"/>
		</g>
		
			<use xlink:href="#FlashAICB_x2F_Layer_1_x2F__x3C_Path_x3E__x5F_1"  width="128.8" height="128.55" y="-128.55" transform="matrix(1 0 0 -1 21.4502 19.2998)" style="overflow:visible;opacity:0.3789;enable-background:new    ;"/>
		<g>
			<g>
				<g>
					<path style="fill-rule:evenodd;clip-rule:evenodd;fill:#F3D3A5;" d="M82.15,31.95V52c0,0.867-0.25,1.55-0.75,2.05
						c-0.5,0.467-1.133,0.7-1.9,0.7s-1.4-0.233-1.9-0.7c-0.5-0.5-0.75-1.183-0.75-2.05V34.3H74.8c-0.8,0-1.417-0.25-1.85-0.75
						c-0.367-0.466-0.55-1.033-0.55-1.7c0-0.633,0.2-1.184,0.6-1.65c0.467-0.5,1.067-0.75,1.8-0.75h5c0.733,0,1.317,0.25,1.75,0.75
						C81.95,30.633,82.15,31.217,82.15,31.95z"/>
				</g>
				<g>
					
						<linearGradient id="SVGID_13_" gradientUnits="userSpaceOnUse" x1="-53.2783" y1="77.2773" x2="-28.0033" y2="77.2773" gradientTransform="matrix(3.956479e-005 -1 1 -0.001 -4.901881e-005 4.449275e-004)">
						<stop  offset="0.3882" style="stop-color:#510D02"/>
						<stop  offset="0.4039" style="stop-color:#540F02"/>
						<stop  offset="0.8078" style="stop-color:#933B07"/>
						<stop  offset="1" style="stop-color:#AC4C0B"/>
					</linearGradient>
					<path style="fill-rule:evenodd;clip-rule:evenodd;fill:url(#SVGID_13_);" d="M82.15,30.4v20.05c0,0.867-0.25,1.55-0.75,2.05
						c-0.5,0.467-1.133,0.7-1.9,0.7s-1.4-0.233-1.9-0.7c-0.5-0.5-0.75-1.183-0.75-2.05v-17.7H74.8c-0.8,0-1.417-0.25-1.85-0.75
						c-0.367-0.467-0.55-1.033-0.55-1.7c0-0.633,0.2-1.183,0.6-1.65c0.467-0.5,1.067-0.75,1.8-0.75h5c0.733,0,1.317,0.25,1.75,0.75
						C81.95,29.083,82.15,29.667,82.15,30.4z"/>
				</g>
			</g>
			<g>
				<g>
					<path style="fill-rule:evenodd;clip-rule:evenodd;fill:#F3D3A5;" d="M97.3,31.95V52c0,0.867-0.25,1.55-0.75,2.05
						c-0.5,0.467-1.133,0.7-1.899,0.7s-1.4-0.233-1.9-0.7C92.25,53.55,92,52.867,92,52V34.3h-2.05c-0.8,0-1.417-0.25-1.851-0.75
						c-0.366-0.466-0.55-1.033-0.55-1.7c0-0.633,0.2-1.184,0.601-1.65c0.466-0.5,1.066-0.75,1.8-0.75h5
						c0.733,0,1.316,0.25,1.75,0.75C97.1,30.633,97.3,31.217,97.3,31.95z"/>
				</g>
				<g>
					
						<linearGradient id="SVGID_14_" gradientUnits="userSpaceOnUse" x1="-53.2935" y1="92.4277" x2="-28.0185" y2="92.4277" gradientTransform="matrix(3.956479e-005 -1 1 -0.001 -4.901881e-005 4.449275e-004)">
						<stop  offset="0.3882" style="stop-color:#510D02"/>
						<stop  offset="0.4039" style="stop-color:#540F02"/>
						<stop  offset="0.8078" style="stop-color:#933B07"/>
						<stop  offset="1" style="stop-color:#AC4C0B"/>
					</linearGradient>
					<path style="fill-rule:evenodd;clip-rule:evenodd;fill:url(#SVGID_14_);" d="M87.55,30.3c0-0.633,0.2-1.183,0.601-1.65
						c0.466-0.5,1.066-0.75,1.8-0.75h5c0.733,0,1.316,0.25,1.75,0.75c0.399,0.434,0.6,1.017,0.6,1.75v20.05
						c0,0.867-0.25,1.55-0.75,2.05c-0.5,0.467-1.133,0.7-1.899,0.7s-1.4-0.233-1.9-0.7C92.25,52,92,51.317,92,50.45v-17.7h-2.05
						c-0.8,0-1.417-0.25-1.851-0.75C87.733,31.533,87.55,30.967,87.55,30.3z"/>
				</g>
			</g>
		</g>
		<g>
			<path style="fill-rule:evenodd;clip-rule:evenodd;fill:#F3D3A5;" d="M33.65,100.1c0.067-3.3,0.4-5.966,1-8
				c0.6-2.566,2.167-4.416,4.7-5.55c2.8-1.2,14.033-5.05,33.7-11.55c-0.066-0.933-0.1-1.85-0.1-2.75
				c0.066-1.767,0.683-3.267,1.85-4.5C76,66.55,77.4,66,79,66.1l1.25,0.15l0.35,0.1L81,66.4l0.15,0.05h0.15l1.25,0.35l0.3,0.05
				l0.6,0.2c2.166,0.7,4.25,1.617,6.25,2.75c2.533-0.6,4.899-0.75,7.1-0.45c1.033,0.167,2.117,0.4,3.25,0.7
				c1.967,0.5,4.017,1.15,6.15,1.95c0.967,0.367,1.649,0.6,2.05,0.7c0.5,0.133,1.066,0.183,1.7,0.15c1.934,0,3.133-0.133,3.6-0.4
				L113.9,72c1.366-1.733,2.866-2.967,4.5-3.7c2.966-1.366,5.933-1.85,8.899-1.45c2.8,0.367,4.983,1.467,6.55,3.3
				c2.034,2.233,2.534,6.2,1.5,11.9c-0.133,0.867-0.333,1.617-0.6,2.25c1.533,1.267,2.467,2.884,2.8,4.851
				c0.3,1.399,0.384,3.066,0.25,5c-0.133,1.6-0.366,3.033-0.7,4.3c-0.5,1.899-1.399,3.483-2.699,4.75
				c-0.967,0.967-2.617,2.116-4.95,3.45c-3.066,1.733-8.834,4.467-17.3,8.199l-4.301,1.9l-0.149,0.05l-14.9,6.45l-0.45,0.3
				c-2.066,1.033-3.267,1.617-3.6,1.75c-1.134,0.4-2.2,0.7-3.2,0.9l-1.6,0.25c-1.434,0.2-3,0.184-4.7-0.05
				c-2.333-0.301-4.667-1-7-2.101c-4.767-2.267-10.5-5.033-17.2-8.3c-7.333-3.566-11.783-5.783-13.35-6.65l-0.55-0.3
				c-2.367-1.267-4.033-2.366-5-3.3C34.483,104.15,33.65,102.267,33.65,100.1z"/>
			<g>
				
					<linearGradient id="SVGID_15_" gradientUnits="userSpaceOnUse" x1="-125.3315" y1="85.9438" x2="-64.6167" y2="85.9438" gradientTransform="matrix(1.647447e-005 -1 1 -0.001 -2.254475e-004 4.458711e-004)">
					<stop  offset="0.1098" style="stop-color:#AB3D15"/>
					<stop  offset="0.4588" style="stop-color:#C8834E"/>
					<stop  offset="0.8275" style="stop-color:#E6C588"/>
					<stop  offset="1" style="stop-color:#F1DF9F"/>
				</linearGradient>
				<path style="fill-rule:evenodd;clip-rule:evenodd;fill:url(#SVGID_15_);" d="M39.5,85.05c2.433-1.066,13.65-4.917,33.65-11.55
					c-0.1-0.967-0.15-1.867-0.15-2.7c0.067-1.833,0.717-3.35,1.95-4.55c1.233-1.233,2.667-1.8,4.3-1.7l1.25,0.15l1.65,0.35l0.65,0.2
					l0.25,0.05l0.65,0.2c2.066,0.667,4.149,1.583,6.25,2.75c2.434-0.6,4.783-0.75,7.05-0.45c0.967,0.134,2.066,0.367,3.3,0.7
					c1.934,0.5,3.967,1.15,6.101,1.95c1.533,0.566,2.767,0.85,3.699,0.85c1.934,0,3.134-0.133,3.601-0.4l0.149-0.25L114,70.5
					c1.434-1.767,2.95-3.017,4.55-3.75c3.066-1.367,6.05-1.85,8.95-1.45c2.833,0.367,5.033,1.483,6.6,3.35
					c2.101,2.2,2.634,6.2,1.601,12c-0.134,0.767-0.334,1.483-0.601,2.15c1.534,1.333,2.45,2.967,2.75,4.9
					c0.334,1.399,0.417,3.083,0.25,5.05c-0.133,1.6-0.366,3.033-0.699,4.3c-0.5,1.9-1.417,3.5-2.75,4.8
					c-0.967,0.934-2.617,2.084-4.95,3.45c-2.634,1.567-8.417,4.317-17.351,8.25l-4.25,1.851l-0.149,0.05l-14.9,6.5l-0.45,0.25
					c-1.333,0.733-2.533,1.316-3.6,1.75s-2.15,0.75-3.25,0.95l-1.6,0.25c-0.467,0.066-1.167,0.1-2.1,0.1
					c-0.867,0-1.75-0.05-2.65-0.15c-2.233-0.3-4.566-1.017-7-2.149c-4.267-2-10-4.75-17.2-8.25c-7.267-3.566-11.733-5.8-13.4-6.7
					l-0.55-0.3c-2.367-1.267-4.033-2.367-5-3.3c-1.667-1.634-2.517-3.533-2.55-5.7c0-0.767,0.066-1.816,0.2-3.15
					c0.2-2.033,0.483-3.683,0.85-4.95C35.283,88.033,36.867,86.184,39.5,85.05z"/>
				<path style="fill-rule:evenodd;clip-rule:evenodd;fill:none;stroke:#F3D3A5;stroke-width:0.25;" d="M39.5,85.05
					c2.433-1.066,13.65-4.917,33.65-11.55c-0.1-0.967-0.15-1.867-0.15-2.7c0.067-1.833,0.717-3.35,1.95-4.55
					c1.233-1.233,2.667-1.8,4.3-1.7l1.25,0.15l1.65,0.35l0.65,0.2l0.25,0.05l0.65,0.2c2.066,0.667,4.149,1.583,6.25,2.75
					c2.434-0.6,4.783-0.75,7.05-0.45c0.967,0.134,2.066,0.367,3.3,0.7c1.934,0.5,3.967,1.15,6.101,1.95
					c1.533,0.566,2.767,0.85,3.699,0.85c1.934,0,3.134-0.133,3.601-0.4l0.149-0.25L114,70.5c1.434-1.767,2.95-3.017,4.55-3.75
					c3.066-1.367,6.05-1.85,8.95-1.45c2.833,0.367,5.033,1.483,6.6,3.35c2.101,2.2,2.634,6.2,1.601,12
					c-0.134,0.767-0.334,1.483-0.601,2.15c1.534,1.333,2.45,2.967,2.75,4.9c0.334,1.399,0.417,3.083,0.25,5.05
					c-0.133,1.6-0.366,3.033-0.699,4.3c-0.5,1.9-1.417,3.5-2.75,4.8c-0.967,0.934-2.617,2.084-4.95,3.45
					c-2.634,1.567-8.417,4.317-17.351,8.25l-4.25,1.851l-0.149,0.05l-14.9,6.5l-0.45,0.25c-1.333,0.733-2.533,1.316-3.6,1.75
					s-2.15,0.75-3.25,0.95l-1.6,0.25c-0.467,0.066-1.167,0.1-2.1,0.1c-0.867,0-1.75-0.05-2.65-0.15c-2.233-0.3-4.566-1.017-7-2.149
					c-4.267-2-10-4.75-17.2-8.25c-7.267-3.566-11.733-5.8-13.4-6.7l-0.55-0.3c-2.367-1.267-4.033-2.367-5-3.3
					c-1.667-1.634-2.517-3.533-2.55-5.7c0-0.767,0.066-1.816,0.2-3.15c0.2-2.033,0.483-3.683,0.85-4.95
					C35.283,88.033,36.867,86.184,39.5,85.05z"/>
			</g>
			<path style="fill-rule:evenodd;clip-rule:evenodd;fill:#421804;" d="M39.85,100.85c-0.934-0.767-1.4-1.533-1.4-2.3
				c0.133-3.166,0.433-5.399,0.9-6.7c0.066-0.866,0.667-1.533,1.8-2c2.8-1.232,15.217-5.466,37.25-12.7l-0.4-2.7
				c-0.133-2.4-0.2-3.617-0.2-3.65c0-0.333,0.1-0.6,0.3-0.8c0.2-0.2,0.45-0.3,0.75-0.3l0.85,0.15h0.15l1.7,0.4l0.1,0.05l0.65,0.2
				c2.233,0.7,4.517,1.767,6.851,3.2c2.833-0.767,5.216-1.017,7.149-0.75c0.9,0.1,1.816,0.283,2.75,0.55
				c1.667,0.434,3.584,1.05,5.75,1.85c1.134,0.433,1.983,0.717,2.55,0.85c0.834,0.2,1.733,0.3,2.7,0.3
				c2.434-0.033,4.233-0.316,5.4-0.85c0.733-0.333,1.45-0.95,2.149-1.85c0.9-1.1,1.801-1.866,2.7-2.3c2.233-1,4.4-1.367,6.5-1.1
				c1.767,0.267,3.05,0.9,3.851,1.9c0.966,0.9,1.083,3.384,0.35,7.45c-0.134,0.733-0.316,1.283-0.55,1.65
				c-0.2,0.3-0.634,0.733-1.3,1.3c-0.733,0.667-1.65,1.117-2.75,1.35l0.699,0.3c1.9,0.733,3.233,1.333,4,1.8
				c1.267,0.8,1.967,1.699,2.101,2.699c0.2,0.867,0.25,2.034,0.149,3.5c-0.066,1.268-0.233,2.384-0.5,3.351
				c-0.233,0.967-0.683,1.767-1.35,2.399c-0.667,0.634-1.983,1.518-3.95,2.65c-2.6,1.533-8.233,4.2-16.899,8l-20.25,8.9
				c-1.233,0.699-2.2,1.183-2.9,1.449c-0.967,0.334-1.8,0.567-2.5,0.7c-0.3,0.101-0.6,0.15-0.9,0.15L83.75,120
				c-1.233,0.167-2.45,0.15-3.65-0.05c-1.833-0.233-3.75-0.816-5.75-1.75c-4.4-2.066-10.083-4.8-17.05-8.2
				c-7.233-3.533-11.65-5.733-13.25-6.6l-0.6-0.351C41.717,102.117,40.517,101.384,39.85,100.85z"/>
			<g>
				<path style="fill-rule:evenodd;clip-rule:evenodd;fill:#A78343;" d="M62.8,86.75c13.267-2.467,20.233-3.816,20.9-4.05
					c3.967-1.3,6.85-2.034,8.649-2.2c1.601-0.167,3.483,0.033,5.65,0.6c1.366,0.367,3.533,1.083,6.5,2.15
					c1.6,0.567,3.167,0.85,4.7,0.85c3.5,0,5.85-0.817,7.05-2.45c0.533-0.933,0.934-1.617,1.2-2.05c0.5-0.733,1.1-1.267,1.8-1.6
					c2.467-1.433,4.384-2.517,5.75-3.25c2.533-1.4,4.2-1.883,5-1.45c0.366,0.2,0.517,1.15,0.45,2.85c-0.066,1.267-0.2,2.467-0.4,3.6
					c-0.1,0.567-0.233,0.983-0.399,1.25c-0.134,0.233-0.483,0.583-1.051,1.05c-1.267,1.067-3.566,1.483-6.899,1.25
					c-3.066-0.2-5,0.284-5.8,1.45c-0.367,0.533,1.966,1.1,7,1.7c5.466,0.667,8.483,1.383,9.05,2.149
					c0.399,0.534,0.55,1.617,0.45,3.25c-0.067,1.4-0.25,2.667-0.551,3.801c-0.199,0.733-0.55,1.333-1.05,1.8
					c-0.6,0.566-1.85,1.399-3.75,2.5c-2.866,1.667-9.45,4.733-19.75,9.2c-10.1,4.333-15.616,6.717-16.55,7.149
					c-3.2,1.5-5.033,2.3-5.5,2.4c-3.3,0.767-6.817,0.267-10.55-1.5c-4.6-2.167-10.333-4.95-17.2-8.351
					c-7.167-3.5-11.517-5.683-13.05-6.55c-1.633-0.899-2.7-1.5-3.2-1.8c-1.2-0.833-1.8-1.533-1.8-2.1c0-0.801,0.083-1.95,0.25-3.45
					c0.267-2.101,0.583-3.233,0.95-3.4C42.483,90.75,49.867,89.15,62.8,86.75z"/>
				<path style="fill-rule:evenodd;clip-rule:evenodd;fill:#8F7139;" d="M53.75,99.25L49.9,98.6l-1,6.101l-1.1-0.5l1.05-6.101
					l-1.4-2.149l-1.4,0.7l-1.1,5.949l-0.5-0.3c-0.367-0.133-0.7-0.3-1-0.5l1.2-5.899l-1.9-1.051l-0.9,6L40.2,99.8l0.9-7L62.65,92.4
					l16.9,8l4.4,11.8l1.5,6.55c-1.5,0.333-3.117,0.4-4.85,0.2l1.05-7.351l-4.6-0.149l-1.1,6.35l-2.6-1.1l0.6-6.601l-3-1.399
					l-1.4,6.149l-1.65-0.75l0.55-7.149l-1.5-2.8l-3.25,1.1l-1.5,6l-2.8-1.4l1.35-6L56.2,100.4L55,101.05l-0.8,6.101l-1.65-0.75
					L53.75,99.25z"/>
				<path style="fill-rule:evenodd;clip-rule:evenodd;fill:#876930;" d="M125.05,75.15c-0.066,0.2-0.217,0.367-0.45,0.5
					c-4.633,2.5-5.166,5.083-1.6,7.75c-2.434-0.133-3.8-0.183-4.1-0.15c-1.4,0.1-2.4,0.6-3,1.5c-0.367,0.533,1.966,1.1,7,1.7
					c5.466,0.667,8.483,1.383,9.05,2.149c0.399,0.534,0.55,1.617,0.45,3.25c-0.067,1.4-0.25,2.667-0.551,3.801
					c-0.199,0.733-0.55,1.333-1.05,1.8c-0.6,0.566-1.85,1.399-3.75,2.5c-2.866,1.667-9.45,4.733-19.75,9.2
					c-10.1,4.333-15.616,6.717-16.55,7.149c-1.167,0.7-2.217,1.25-3.15,1.65c-1.767,0.767-3.566,1.133-5.399,1.1
					c0.3-0.3,0.517-0.683,0.65-1.149c0.033-0.134,0.2-1,0.5-2.601c0.533-2.899,0.533-5.8,0-8.7l-1-3.5
					c9.867-7.133,18.867-13.466,27-19c3.4-0.033,5.7-0.867,6.9-2.5c0.533-0.9,0.934-1.567,1.2-2c0.5-0.733,1.1-1.267,1.8-1.6
					c0.566-0.267,1.45-0.75,2.65-1.45c1.566-0.933,2.6-1.533,3.1-1.8C125.066,74.817,125.083,74.95,125.05,75.15z"/>
				<path style="fill-rule:evenodd;clip-rule:evenodd;fill:#795D2B;" d="M130.4,96.8c1.199-1.366,1.783-3.95,1.75-7.75
					c0.267,0.7,0.35,1.783,0.25,3.25c-0.101,1.233-0.284,2.351-0.551,3.351c-0.199,0.733-0.55,1.333-1.05,1.8
					c-0.6,0.566-1.85,1.399-3.75,2.5c-2.866,1.667-9.45,4.733-19.75,9.2c-10.1,4.333-15.616,6.717-16.55,7.149
					c-1.167,0.7-2.217,1.25-3.15,1.65c-1.767,0.767-3.566,1.133-5.399,1.1c0.267-0.3,0.45-0.583,0.55-0.85
					c0.367-0.033,1.017-0.117,1.95-0.25c1.033-0.2,2.383-0.684,4.05-1.45c1.6-0.7,7.1-3.116,16.5-7.25c7.8-3.4,13.134-5.767,16-7.1
					C126.283,99.783,129.333,98,130.4,96.8z"/>
				<path style="fill-rule:evenodd;clip-rule:evenodd;fill:#DFB768;" d="M41.5,90.75c3.2-1.366,17.567-6.2,43.1-14.5
					c3.933-1.3,6.817-2.033,8.65-2.2c1.6-0.167,3.467,0.034,5.6,0.6c1.434,0.367,3.601,1.083,6.5,2.15c1.634,0.6,3.217,0.9,4.75,0.9
					c3.534,0,5.967-0.633,7.301-1.9c0-0.033,0.483-0.6,1.449-1.7c0.534-0.633,1.15-1.117,1.851-1.45c3.033-1.4,5.7-1.55,8-0.45
					c2.233,1.1,2.399,2.45,0.5,4.05c-1.233,1.067-3.384,1.733-6.45,2c-2.767,0.233-4.55,0.934-5.35,2.1
					c-0.467,0.7,0.649,1.65,3.35,2.85c0.233,0.1,2.233,0.867,6,2.3c3,1.233,4.75,2.25,5.25,3.05c0.8,1.4-0.566,3.067-4.1,5
					c-4.733,2.601-16.834,8.033-36.301,16.3c-2.699,1.334-4.55,2.117-5.55,2.351c-3.3,0.733-6.833,0.217-10.6-1.55
					c-16.4-7.834-26.434-12.75-30.1-14.75c-2.267-1.267-3.65-2.117-4.15-2.551C39.9,92.25,40,91.384,41.5,90.75z"/>
				<path style="fill-rule:evenodd;clip-rule:evenodd;fill:#CAA455;" d="M46.05,96.25l-1.4-0.75c4.967-1.4,8.6-3.066,10.9-5
					c3.267-2.733,5.684-4.617,7.25-5.65c2.833-1.9,5.517-3.083,8.05-3.55c1.333-0.233,4.717-0.65,10.15-1.25
					c4.533-0.466,7.833-1,9.9-1.6c2.1-0.567,4.616-1.867,7.55-3.9l1.3,0.35c-3.167,2.2-6.15,3.767-8.95,4.7
					c-3.767,1.267-8.55,1.95-14.35,2.05c-5.567,0.1-9.733,1.184-12.5,3.25c-1.633,1.2-3.967,3.333-7,6.4
					C54.55,93.1,50.917,94.75,46.05,96.25z"/>
				<path style="fill-rule:evenodd;clip-rule:evenodd;fill:#CAA455;" d="M58.15,94.95c-2.967,0.3-5.733,1.383-8.3,3.25l-1-0.5
					c2.467-1.367,5.316-2.601,8.55-3.7c3.833-1.3,7.483-2.167,10.95-2.6c3.733-0.434,7.9-1.65,12.5-3.65c2.3-1,4.233-1.967,5.8-2.9
					l4.199-3.1c1.7-1.3,4.967-3.5,9.801-6.6L102,75.6c-1.267,0.9-4.25,3.367-8.95,7.4c-3.6,3.1-6.483,5.184-8.65,6.25
					C79.133,91.816,70.383,93.717,58.15,94.95z"/>
				<path style="fill-rule:evenodd;clip-rule:evenodd;fill:#CAA455;" d="M42.75,92.45c1.7-0.4,3.533-1.184,5.5-2.351
					c0.967-0.566,2.7-1.75,5.2-3.55l8.45-2.85l-3.1,2.1c-3.233,2.267-5.767,3.917-7.6,4.95c-1.7,0.934-4.017,1.983-6.95,3.15
					l-1.55,0.5c-0.867-0.5-1.517-0.983-1.95-1.45L42.75,92.45z"/>
				<path style="fill-rule:evenodd;clip-rule:evenodd;fill:#CAA455;" d="M78.65,78.2l7.9-2.55h0.05c3.434,0.034,6.167-0.533,8.2-1.7
					l1.2,0.1c-2.233,1.567-4.833,2.667-7.8,3.3C85.8,77.85,82.617,78.133,78.65,78.2z"/>
				<path style="fill-rule:evenodd;clip-rule:evenodd;fill:#CAA455;" d="M119.3,97.7c2.3-4.8,6.233-8.167,11.8-10.101
					c0.534,0.4,0.884,0.834,1.051,1.301c-3.567,1-6.233,3.183-8,6.55L119.3,97.7z"/>
				<path style="fill-rule:evenodd;clip-rule:evenodd;fill:#CAA455;" d="M75.95,99.15c3.966-0.101,8.216-1.483,12.75-4.15
					c2.899-1.733,6.149-4.184,9.75-7.35c2.934-2.667,5.149-4.583,6.649-5.75c2.567-2.033,5.051-3.483,7.45-4.35
					c1.834-0.167,3.217-0.583,4.15-1.25c4.6-1.4,8.233-2.883,10.899-4.45c0.567,0.167,1.067,0.367,1.5,0.6l-1.149,0.75
					c-1.7,1.133-4.917,2.417-9.65,3.85c-4.767,1.434-8.083,2.75-9.95,3.95c-1.866,1.2-4.483,3.517-7.85,6.95
					c-3.467,3.566-6.233,6.05-8.3,7.45c-2.634,1.833-6.617,3.35-11.95,4.55c-2.233,0.5-5.783,1.116-10.65,1.85
					c-1.733,0.267-3.717,1.283-5.95,3.05l-2.9-1.399c1.733-1.134,3.767-2.066,6.1-2.8C69.75,99.75,72.783,99.25,75.95,99.15z"/>
				<path style="fill-rule:evenodd;clip-rule:evenodd;fill:#CAA455;" d="M110.8,90.55c2.634-3.233,5.634-5.833,9-7.8l3.101,1.35
					c-2.2,1.267-4.867,3.383-8,6.35c-1.767,1.7-4.551,4.399-8.351,8.1c-3.366,3.134-6.967,5.233-10.8,6.3
					c-4.767,0.9-8.667,1.684-11.7,2.351c-2.533,0.566-4.883,1.85-7.05,3.85l-3.1-1.35c2.033-1.434,4.783-2.617,8.25-3.55
					c2-0.567,5.216-1.367,9.65-2.4c4.167-1.133,7.95-2.967,11.351-5.5C105.75,96.283,108.3,93.717,110.8,90.55z"/>
				<path style="fill-rule:evenodd;clip-rule:evenodd;fill:#CAA455;" d="M65.1,97.7c-4.2,0.399-7.583,1.383-10.15,2.95L53.2,99.8
					c3.233-2.066,7.917-3.483,14.05-4.25c5.833-0.7,11.25-2.116,16.25-4.25c5.3-2.3,9.45-5.133,12.45-8.5
					c2.533-2.9,5.25-5.05,8.149-6.45c1.5,0.533,2.584,0.883,3.25,1.05c-2.833,1.333-5.883,3.4-9.149,6.2
					c-3.867,3.3-6.767,5.55-8.7,6.75c-3.866,2.367-7.75,4.101-11.65,5.2C74.617,96.45,70.367,97.167,65.1,97.7z"/>
				<path style="fill-rule:evenodd;clip-rule:evenodd;fill:#CAA455;" d="M126.3,85.35l1.9,0.75
					c-2.533,0.834-5.316,2.768-8.351,5.801c-2.433,2.5-4.75,5.383-6.949,8.649c-13.067,5.667-20.167,8.767-21.301,9.3
					c-1.6,0.834-2.85,1.384-3.75,1.65c-2.133,0.667-4.333,0.867-6.6,0.6c2.4-1.866,5.967-3.383,10.7-4.55
					c5.267-1.3,8.566-2.316,9.899-3.05c5.034-2.833,10.834-7.917,17.4-15.25C120.816,87.417,123.167,86.117,126.3,85.35z"/>
				<path style="fill-rule:evenodd;clip-rule:evenodd;fill:#CAA455;" d="M93.6,97.45c3.233-1.2,7.2-3.867,11.9-8
					c4.7-4.5,7.65-7.317,8.85-8.45c1.934-1.8,7.134-4.383,15.601-7.75c0.333,0.434,0.45,0.9,0.35,1.4c-1.7,0.3-3.3,0.8-4.8,1.5
					c-1.3,0.667-2.517,1.383-3.65,2.15c-2.233,0.233-3.716,0.917-4.449,2.05c-0.167,0.267-0.067,0.617,0.3,1.05
					c-3.467,2.767-7.467,6.4-12,10.9c-3.334,3.4-6.717,5.834-10.15,7.3c-2.633,1.134-7.033,2.301-13.2,3.5
					c-4.967,0.967-8.767,2.7-11.4,5.2l-2.7-1.3c3.8-1.7,8.267-3.467,13.4-5.3C84.483,100.667,88.467,99.25,93.6,97.45z"/>
				<path style="fill-rule:evenodd;clip-rule:evenodd;fill:#CAA455;" d="M64,89.9c-0.167-0.167-0.25-0.417-0.25-0.75
					c0-0.733,0.383-1.601,1.15-2.601s1.617-1.733,2.55-2.2c1.5-0.767,3.716-1.233,6.65-1.4c3.967-0.233,6.55-0.117,7.75,0.35
					c1.233,0.5,0.9,1.3-1,2.4c-2,1.167-4.317,2.167-6.95,3c-2.733,0.866-4.55,1.149-5.45,0.85c-1-0.333-1.15-1.066-0.45-2.2
					c0.7-1.133,1.883-1.899,3.55-2.3c1.967-0.433,3.35-0.65,4.15-0.65c1-0.033,1.433,0.233,1.3,0.8c-0.233,0.767-1.367,1.3-3.4,1.6
					c1.733-0.399,2.117-0.767,1.15-1.1c-0.767-0.267-1.533-0.284-2.3-0.05c-0.833,0.233-1.4,0.683-1.7,1.35
					c-0.333,0.667,0.017,0.983,1.05,0.95c1.034-0.033,2.367-0.4,4-1.101c2.067-0.866,3.217-1.383,3.45-1.55
					c0.533-0.366,0.317-0.733-0.65-1.1c-1.167-0.434-2.583-0.567-4.25-0.4c-1.934,0.233-3.95,0.85-6.05,1.85
					c-1.066,0.534-2.1,1.4-3.1,2.6C64.7,88.85,64.3,89.4,64,89.9z"/>
				
					<use xlink:href="#FlashAICB_x2F_Layer_1_x2F__x3C_Clip_Group_0_x3E__x5F_1"  width="14.25" height="11.45" y="-11.45" transform="matrix(1 0 0 -1 118.0996 69.5)" style="overflow:visible;"/>
				
					<use xlink:href="#FlashAICB_x2F_Layer_1_x2F__x3C_Group_x3E_"  width="87.8" height="56.65" y="-56.65" transform="matrix(1 0 0 -1 46.6499 62.0498)" style="overflow:visible;opacity:0.0898;enable-background:new    ;"/>
				<path style="fill-rule:evenodd;clip-rule:evenodd;fill:#6B4024;" d="M79.25,77.85l5.35-1.6l5.75,4.6
					c4.167,3.333,7.051,5.7,8.65,7.1c1.934,1.7,3.967,4.217,6.1,7.55c2.134,3.367,3.117,5.634,2.95,6.8
					c-0.166,1.233-0.649,2.367-1.45,3.4c-0.833,1.033-1.767,1.616-2.8,1.75c-1.166,0.133-1.883-0.15-2.149-0.851l-0.101-1.149
					c0.434-0.2,0.95-0.533,1.55-1c0.567-0.434,0.733-1.333,0.5-2.7c-0.233-1.533-0.933-2.65-2.1-3.35
					c-0.7-0.434-1.1-0.801-1.2-1.101v-1.6c-0.033-0.7-0.383-1.217-1.05-1.55L98.2,93.85c-1,0.367-2.617,0.817-4.851,1.351
					c-1.399,0.366-3.199,0.633-5.399,0.8L85.1,96.2L83,91.35c-0.867-2-1.75-4.85-2.65-8.55L79.25,77.85z"/>
				<path style="fill-rule:evenodd;clip-rule:evenodd;fill:#7A7A7A;" d="M85.4,95.3l0.649-5l4.4-4.4l5.649,0.45
					c3.834,0.4,5.917,0.784,6.25,1.15c0.567,0.634,0.7,1.467,0.4,2.5c-0.134,0.5-0.333,0.95-0.6,1.35
					c-0.634,0.667-3.75,1.617-9.351,2.851c-2.566,0.566-4.566,0.917-6,1.05L85.4,95.3z"/>
				<path style="fill-rule:evenodd;clip-rule:evenodd;fill:#979797;" d="M89.6,91.25c-0.066,0.233-0.233,0.8-0.5,1.7
					c-0.1,0.866,0.15,1.483,0.75,1.85c-1.5,0.3-2.683,0.467-3.55,0.5H85.4l0.449-3.649L89.6,91.25z"/>
				
					<use xlink:href="#FlashAICB_x2F_Layer_1_x2F__x3C_Clip_Group_0_x3E__x5F_0"  width="29" height="26.65" y="-26.65" transform="matrix(1 0 0 -1 75.6499 70.8501)" style="overflow:visible;"/>
				<path style="fill-rule:evenodd;clip-rule:evenodd;fill:#ECECEC;" d="M78.75,70.85l4.05,1c3.334,1.167,6.584,3.033,9.75,5.6
					c3.5,2.8,6.267,5.4,8.3,7.8c1.034,1.167,1.7,2.066,2,2.7L102,87.8c-1.667-2.167-2.9-3.683-3.7-4.55
					c-2.467-2.733-5.05-5.066-7.75-7c-2.767-1.967-5.366-3.4-7.8-4.3c-1.1-0.4-2.433-0.733-4-1V70.85z"/>
				<path style="fill-rule:evenodd;clip-rule:evenodd;fill:#C7C7C7;" d="M78.75,70.85l0.9,0.15c0.733,0.133,1.533,0.333,2.4,0.6
					c-0.066,3.733,1.017,8.467,3.25,14.2c0.967,2.367,2.267,4.567,3.9,6.601c-1.5,1.033-2.767,2-3.8,2.899
					c-0.233-0.233-0.567-0.833-1-1.8c-0.867-1.9-1.85-4.6-2.95-8.1c-1.2-3.867-2-7.45-2.4-10.75L78.75,70.85z"/>
				<polygon style="fill-rule:evenodd;clip-rule:evenodd;fill:#E4E4E4;" points="82.9,78.2 79.75,78.8 79.5,77.45 82.7,77.25 				
					"/>
				<path style="fill-rule:evenodd;clip-rule:evenodd;fill:#E4E4E4;" d="M78.85,72.85L82.1,73c0.066,1,0.183,1.983,0.35,2.95
					l-3.2,0.15C79.017,74.633,78.883,73.55,78.85,72.85z"/>
				<path style="fill-rule:evenodd;clip-rule:evenodd;fill:#E4E4E4;" d="M88.25,91.15c-1.2,0.866-2.35,1.933-3.45,3.199l-0.95-2.05
					c1.1-0.866,2.266-1.683,3.5-2.45L88.25,91.15z"/>
				<polygon style="fill-rule:evenodd;clip-rule:evenodd;fill:#E4E4E4;" points="84.1,82.45 81,83.95 80.15,80.65 83.25,79.55 				
					"/>
				<polygon style="fill-rule:evenodd;clip-rule:evenodd;fill:#E4E4E4;" points="84.45,83.5 85.65,86.6 82.5,88.65 81.55,85.7 				
					"/>
				<path style="fill-rule:evenodd;clip-rule:evenodd;fill:#909090;" d="M99.25,93.45L98,91.9V89.6l1.05,0.15
					c0.8,0.134,1.4,0.184,1.8,0.15l2.5,0.699l-0.149,1.45l-1.45,0.65c-0.566,0.267-1.15,0.467-1.75,0.6L99.25,93.45z"/>
				<path style="fill-rule:evenodd;clip-rule:evenodd;fill:#B3B3B3;" d="M98,89.6l0.7-0.3c0.6-0.233,1.217-0.416,1.85-0.55
					c0.566-0.1,1.084-0.116,1.55-0.05l1,1.399l0.25,0.5c-0.767,0.034-1.5,0.15-2.199,0.351l-1.75,0.5L98,89.6z"/>
				<path style="fill-rule:evenodd;clip-rule:evenodd;fill:#8E5B2C;" d="M98.85,93.65L99.3,90.8l1,0.101
					c0.8,0.1,1.517,0.233,2.15,0.399c1,0.267,1.866,1.05,2.6,2.351l3.7,5.899l-0.1,2.601c-0.4,1.899-1.4,3.166-3,3.8
					c-2.834,1.167-4.217,0.783-4.15-1.15c0.033-1.566,0.4-2.616,1.1-3.149c0.601-0.467,0.867-0.95,0.801-1.45
					c-0.034-0.467-0.551-1.05-1.551-1.75c-0.899-0.634-1.316-1.134-1.25-1.5c0.267-1.066,0.051-1.934-0.649-2.601L98.85,93.65z"/>
				<path style="fill-rule:evenodd;clip-rule:evenodd;fill:#6E4523;" d="M105.5,100.8c0.934-1,1.783-1.783,2.55-2.35l1.4,1.1
					l-0.25,2.851c-0.467,2-1.517,3.25-3.15,3.75c-1.899,0.6-3.217,0.666-3.95,0.199c-0.199-0.6-0.216-1.399-0.05-2.399
					c0.134-0.833,0.3-1.384,0.5-1.65c0.2-0.233,0.75-0.55,1.65-0.95C104.667,101.15,105.1,100.967,105.5,100.8z"/>
				<path style="fill-rule:evenodd;clip-rule:evenodd;fill:#A47244;" d="M100.5,91.8c-0.233-0.233-0.55-0.467-0.95-0.7
					c-0.533-0.3-0.3-0.633,0.7-1c1.033-0.366,1.983-0.466,2.85-0.3c0.967,0.2,1.851,0.7,2.65,1.5c0.967,1.033,1.95,2.667,2.95,4.9
					c1.1,2.467,1.066,4.399-0.101,5.8c-1.166,1.434-3.149,1.833-5.949,1.2c-0.834-0.167-0.884-0.75-0.15-1.75
					c1.134-1.267,1.884-2.184,2.25-2.75c0.467-0.7,0.283-1.283-0.55-1.75c-1.467-0.767-2.25-1.2-2.351-1.3
					c-0.399-0.434-0.55-0.95-0.449-1.551c0.133-0.6,0.083-1.033-0.15-1.3C100.884,92.3,100.634,91.967,100.5,91.8z"/>
				<path style="fill-rule:evenodd;clip-rule:evenodd;fill:#C2854F;" d="M103.45,100.25c0.5-0.5,0.883-0.95,1.149-1.35
					c-0.033,0.699-0.183,1.399-0.449,2.1c-0.167,0.5-0.217,1.3-0.15,2.4l-0.9-0.101C103.167,102.066,103.283,101.05,103.45,100.25z"
					/>
				<path style="fill-rule:evenodd;clip-rule:evenodd;fill:#C2854F;" d="M99.95,90.2c1.033,1.033,1.684,1.816,1.95,2.35l2.55,4.55
					l-1.05-0.5c-0.367-1.3-0.834-2.232-1.4-2.8l-0.5-0.6c-0.066-0.2-0.15-0.333-0.25-0.4l-0.15-0.149
					c-0.5-0.934-1.033-1.65-1.6-2.15L99.95,90.2z"/>
				<path style="fill-rule:evenodd;clip-rule:evenodd;fill:#C2854F;" d="M109.05,97.9L109,96.85c0.8,2.268,0.616,4.034-0.55,5.301
					C108.85,100.617,109.05,99.2,109.05,97.9z"/>
				<path style="fill-rule:evenodd;clip-rule:evenodd;fill:#C2854F;" d="M102.45,91.3c0.399,0.367,0.899,0.8,1.5,1.3
					c0.434,0.4,0.717,0.867,0.85,1.4c0.066,0.233,0.283,0.717,0.65,1.45c0.3,0.533,0.45,1.149,0.45,1.85
					c0,0.467-0.117,1.417-0.351,2.851c-0.2,1.5-0.316,2.6-0.35,3.3h-0.65c0-0.634,0.05-1.25,0.15-1.851
					c0.366-1.399,0.6-2.466,0.7-3.199c0.166-1.267-0.034-2.25-0.601-2.95c-2.2-2.634-3.55-4.4-4.05-5.3l-0.1-0.2l0.6-0.101
					C101.583,90.384,101.983,90.867,102.45,91.3z"/>
				<path style="fill-rule:evenodd;clip-rule:evenodd;fill:#C2854F;" d="M105.45,92c0.967,0.7,1.517,1.117,1.649,1.25
					c0.601,0.634,0.967,1.7,1.101,3.2c0.033,0.5-0.084,1.566-0.351,3.2c-0.3,1.633-0.416,2.699-0.35,3.199l-0.65,0.301
					c0-1.134,0.117-2.267,0.351-3.4c0.733-3.4,0.6-5.517-0.4-6.35c-0.967-0.767-1.717-1.367-2.25-1.801
					c-0.899-0.732-1.45-1.333-1.649-1.8h0.199l0.351,0.101l0.3,0.5C104.083,90.9,104.65,91.434,105.45,92z"/>
				<path style="fill-rule:evenodd;clip-rule:evenodd;fill:#C2854F;" d="M102.55,90.1c0.334,0.334,0.9,0.9,1.7,1.7
					c0.667,0.767,1.066,1.384,1.2,1.851c0.066,0.267,0.399,0.883,1,1.85c0.467,0.767,0.684,1.417,0.649,1.95
					c0,0.267-0.149,1.184-0.449,2.75c-0.267,1.467-0.384,2.5-0.351,3.1l-0.6,0.101c0-0.7,0.1-1.5,0.3-2.4
					c0.667-2.9,0.634-4.8-0.1-5.7c-0.233-0.3-0.467-0.767-0.7-1.399c-0.2-0.533-0.533-1.017-1-1.45c-1.101-1-1.917-1.9-2.45-2.7
					h0.55L102.55,90.1z"/>
				<path style="fill-rule:evenodd;clip-rule:evenodd;fill:#C2854F;" d="M104.1,90.4L103.95,90.1l0.45,0.2
					c0.433,0.567,1.033,1.084,1.8,1.55l0.05,0.051l0.7,0.949c-0.767-0.5-1.334-0.883-1.7-1.149
					C104.65,91.3,104.267,90.867,104.1,90.4z"/>
				<path style="fill-rule:evenodd;clip-rule:evenodd;fill:#6E4523;" d="M107.55,101.45c-0.5,0.8-1.383,1.066-2.649,0.8
					c-0.867-0.167-1.034-0.616-0.5-1.35c0.5-0.733,1.216-1.033,2.149-0.9C107.684,100.167,108.017,100.65,107.55,101.45z"/>
				<path style="fill-rule:evenodd;clip-rule:evenodd;fill:#B1B1B1;" d="M107.7,100.95c-0.033,0.434-0.3,0.783-0.8,1.05
					c-0.567,0.333-1.233,0.417-2,0.25c-0.5-0.1-0.75-0.35-0.75-0.75c0.399-0.566,1.116-0.9,2.149-1
					C106.8,100.5,107.267,100.65,107.7,100.95z"/>
				<path style="fill-rule:evenodd;clip-rule:evenodd;fill:#7D7D7D;" d="M107.7,100.95c-0.033,0.434-0.3,0.783-0.8,1.05
					c-0.567,0.333-1.233,0.417-2,0.25c-0.334-0.1-0.551-0.25-0.65-0.45c0.7,0.467,1.384,0.434,2.05-0.1c0.4-0.3,0.7-0.634,0.9-1
					L107.7,100.95z"/>
				<path style="fill-rule:evenodd;clip-rule:evenodd;fill:#FFFFFF;" d="M105.5,100.85c0.267-0.166,0.517-0.183,0.75-0.05
					c0.366,0.2,0.333,0.351-0.1,0.45c-0.467,0.134-0.767,0.134-0.9,0C105.15,101.117,105.233,100.983,105.5,100.85z"/>
				<path style="fill-rule:evenodd;clip-rule:evenodd;fill:#C2854F;" d="M106.95,93.95c-0.066-0.033-0.134-0.066-0.2-0.101
					c-0.134-0.033-0.25-0.017-0.35,0.051c-0.233,0.1-0.167,0.399,0.199,0.899c0.101,0.167,0.184,0.217,0.25,0.15
					c0.067-0.101,0.067-0.2,0-0.3c-0.033-0.101-0.066-0.117-0.1-0.051c-0.033,0.034-0.05,0.067-0.05,0.101
					c-0.134-0.167-0.167-0.316-0.101-0.45c0.067-0.1,0.167-0.066,0.301,0.1c0.166,0.2,0.267,0.434,0.3,0.7
					c0.033,0.3-0.033,0.45-0.2,0.45s-0.35-0.167-0.55-0.5s-0.351-0.65-0.45-0.95c-0.066-0.3-0.017-0.467,0.15-0.5
					C106.384,93.55,106.65,93.684,106.95,93.95z"/>
			</g>
		</g>
		
			<use xlink:href="#FlashAICB_x2F_Layer_1_x2F__x3C_Path_x3E_"  width="128.6" height="61.9" y="-61.9" transform="matrix(1 0 0 -1 21.5498 85.9502)" style="overflow:visible;opacity:0.3398;enable-background:new    ;"/>
		<g>
			<g>
				<g>
					<g>
						<g>
							<g>
								<g>
									<g>
										
											<linearGradient id="SVGID_16_" gradientUnits="userSpaceOnUse" x1="-32.4453" y1="66.083" x2="-13.5384" y2="66.083" gradientTransform="matrix(0.4562 -0.8899 0.8899 0.4562 4.385114e-004 1.941919e-004)">
											<stop  offset="0.1098" style="stop-color:#AB3D15"/>
											<stop  offset="0.4588" style="stop-color:#C8834E"/>
											<stop  offset="0.8275" style="stop-color:#E6C588"/>
											<stop  offset="1" style="stop-color:#F1DF9F"/>
										</linearGradient>
										<path style="fill-rule:evenodd;clip-rule:evenodd;fill:url(#SVGID_16_);" d="M40.45,49.65L40,48.3
											c-0.233-0.8-0.25-1.6-0.05-2.4c0.2-0.8,0.6-1.483,1.2-2.05c0.9-0.867,1.95-1.267,3.15-1.2c0.467,0,0.917,0.083,1.35,0.25
											L47,43.4l1.15-0.85c0.733-0.533,1.617-0.8,2.65-0.8c0.6,0,1.233,0.167,1.9,0.5h0.1c0.733,0.434,1.3,1,1.7,1.7
											c0.433,0.733,0.617,1.5,0.55,2.3L55,47.7l1.15,0.85c0.667,0.5,1.15,1.134,1.45,1.9c0.333,0.767,0.417,1.566,0.25,2.4
											c-0.133,0.9-0.567,1.683-1.3,2.35c-0.466,0.466-1.066,0.816-1.8,1.05l-1.35,0.4l-0.45,1.3
											c-0.233,0.667-0.617,1.267-1.15,1.8c-0.667,0.667-1.483,1.05-2.45,1.15l-0.65,0.05c-0.6,0-1.233-0.167-1.9-0.5
											c-0.7-0.333-1.25-0.817-1.65-1.45l-0.8-1.15H42.9c-0.833-0.033-1.6-0.267-2.3-0.7c-0.667-0.466-1.184-1.066-1.55-1.8
											c-0.367-0.767-0.5-1.55-0.4-2.35c0.067-0.833,0.367-1.583,0.9-2.25L40.45,49.65z"/>
										<path style="fill-rule:evenodd;clip-rule:evenodd;fill:none;stroke:#F3D3A5;stroke-width:0.25;" d="M40.45,49.65L40,48.3
											c-0.233-0.8-0.25-1.6-0.05-2.4c0.2-0.8,0.6-1.483,1.2-2.05c0.9-0.867,1.95-1.267,3.15-1.2c0.467,0,0.917,0.083,1.35,0.25
											L47,43.4l1.15-0.85c0.733-0.533,1.617-0.8,2.65-0.8c0.6,0,1.233,0.167,1.9,0.5h0.1c0.733,0.434,1.3,1,1.7,1.7
											c0.433,0.733,0.617,1.5,0.55,2.3L55,47.7l1.15,0.85c0.667,0.5,1.15,1.134,1.45,1.9c0.333,0.767,0.417,1.566,0.25,2.4
											c-0.133,0.9-0.567,1.683-1.3,2.35c-0.466,0.466-1.066,0.816-1.8,1.05l-1.35,0.4l-0.45,1.3
											c-0.233,0.667-0.617,1.267-1.15,1.8c-0.667,0.667-1.483,1.05-2.45,1.15l-0.65,0.05c-0.6,0-1.233-0.167-1.9-0.5
											c-0.7-0.333-1.25-0.817-1.65-1.45l-0.8-1.15H42.9c-0.833-0.033-1.6-0.267-2.3-0.7c-0.667-0.466-1.184-1.066-1.55-1.8
											c-0.367-0.767-0.5-1.55-0.4-2.35c0.067-0.833,0.367-1.583,0.9-2.25L40.45,49.65z"/>
									</g>
								</g>
								<path style="fill-rule:evenodd;clip-rule:evenodd;fill:#421804;" d="M42.9,45.65c0.533-0.533,1.167-0.683,1.9-0.45l2.6,0.95
									l2.2-1.55c0.633-0.467,1.3-0.517,2-0.15c0.667,0.367,1,0.95,1,1.75l-0.1,2.7l2.15,1.65c0.667,0.434,0.917,1.05,0.75,1.85
									c-0.033,0.4-0.217,0.733-0.55,1c-0.167,0.2-0.434,0.35-0.8,0.45l-2.6,0.75l-0.9,2.6c-0.033,0.267-0.183,0.517-0.45,0.75
									c-0.333,0.3-0.684,0.466-1.05,0.5c-0.767,0.1-1.383-0.167-1.85-0.8l-1.5-2.25l-2.75-0.05c-0.733,0-1.284-0.35-1.65-1.05
									c-0.333-0.733-0.267-1.4,0.2-2l1.7-2.15l-0.8-2.6C42.133,46.783,42.3,46.15,42.9,45.65z"/>
								
									<linearGradient id="SVGID_17_" gradientUnits="userSpaceOnUse" x1="-29.0313" y1="66.0869" x2="-16.8328" y2="66.0869" gradientTransform="matrix(0.457 -0.8895 0.8895 0.457 4.651248e-004 2.577305e-004)">
									<stop  offset="0.0235" style="stop-color:#808080"/>
									<stop  offset="0.7294" style="stop-color:#E6E6E6"/>
									<stop  offset="1" style="stop-color:#B3B3B3"/>
								</linearGradient>
								<path style="fill-rule:evenodd;clip-rule:evenodd;fill:url(#SVGID_17_);" d="M43.5,46.25c0.3-0.3,0.633-0.367,1-0.2l3,1.1
									l2.6-1.85c0.367-0.267,0.733-0.283,1.1-0.05c0.333,0.167,0.5,0.467,0.5,0.9l-0.1,3.2l2.55,1.9
									c0.333,0.233,0.467,0.55,0.4,0.95c-0.066,0.267-0.167,0.45-0.3,0.55c-0.133,0.133-0.283,0.217-0.45,0.25l-3.05,0.9l-1,3
									l-0.25,0.4c-0.133,0.167-0.333,0.267-0.6,0.3c-0.4,0.066-0.717-0.083-0.95-0.45l-1.8-2.65L43,54.45
									c-0.433,0-0.733-0.184-0.9-0.55c-0.2-0.367-0.167-0.716,0.1-1.05l1.95-2.5L43.2,47.3C43.1,46.867,43.2,46.517,43.5,46.25z"
									/>
								<path style="fill-rule:evenodd;clip-rule:evenodd;fill:#FFFFFF;" d="M46.9,47.6l-3-1.1l-0.55-0.05
									c0.033-0.1,0.083-0.167,0.15-0.2c0.3-0.3,0.633-0.367,1-0.2l3,1.1l2.6-1.85c0.367-0.267,0.733-0.283,1.1-0.05
									c0.333,0.167,0.5,0.467,0.5,0.9l-0.1,3.2l2.55,1.9c0.333,0.233,0.467,0.55,0.4,0.95c-0.066,0.267-0.167,0.45-0.3,0.55
									c-0.133,0.133-0.283,0.217-0.45,0.25l0.15-0.3c0.066-0.467-0.067-0.8-0.4-1L51,49.8l0.1-3.2c0-0.434-0.167-0.733-0.5-0.9
									c-0.333-0.2-0.7-0.184-1.1,0.05L46.9,47.6z"/>
							</g>
						</g>
					</g>
				</g>
			</g>
			<g>
				<g>
					<g>
						<g>
							<g>
								<g>
									<g>
										<linearGradient id="SVGID_18_" gradientUnits="userSpaceOnUse" x1="119.0576" y1="42.1699" x2="127.6869" y2="59.0282">
											<stop  offset="0.1098" style="stop-color:#AB3D15"/>
											<stop  offset="0.4588" style="stop-color:#C8834E"/>
											<stop  offset="0.8275" style="stop-color:#E6C588"/>
											<stop  offset="1" style="stop-color:#F1DF9F"/>
										</linearGradient>
										<path style="fill-rule:evenodd;clip-rule:evenodd;fill:url(#SVGID_18_);" d="M119,42.25c0.6-0.333,1.217-0.5,1.85-0.5
											c1.034,0,1.917,0.267,2.65,0.8l1.15,0.85l1.35-0.5c0.5-0.167,0.967-0.25,1.4-0.25c1.199-0.066,2.233,0.333,3.1,1.2
											c0.6,0.533,1,1.217,1.2,2.05c0.233,0.8,0.233,1.6,0,2.4l-0.45,1.35l0.85,1.1c0.534,0.667,0.851,1.417,0.95,2.25
											c0.066,0.833-0.083,1.617-0.45,2.35c-0.366,0.733-0.883,1.333-1.55,1.8c-0.7,0.434-1.45,0.667-2.25,0.7h-1.5L126.5,59
											c-0.4,0.667-0.934,1.15-1.6,1.45c-0.667,0.333-1.301,0.5-1.9,0.5l-0.7-0.05c-0.934-0.1-1.733-0.483-2.399-1.15
											c-0.567-0.533-0.95-1.133-1.15-1.8l-0.45-1.3l-1.35-0.4c-0.7-0.2-1.3-0.55-1.8-1.05c-0.7-0.667-1.134-1.45-1.301-2.35
											c-0.133-0.833-0.05-1.633,0.25-2.4c0.301-0.767,0.784-1.4,1.45-1.9l1.101-0.85l-0.051-1.45
											c-0.066-1.733,0.7-3.066,2.301-4H119z"/>
										<path style="fill-rule:evenodd;clip-rule:evenodd;fill:none;stroke:#F3D3A5;stroke-width:0.25;" d="M119,42.25
											c0.6-0.333,1.217-0.5,1.85-0.5c1.034,0,1.917,0.267,2.65,0.8l1.15,0.85l1.35-0.5c0.5-0.167,0.967-0.25,1.4-0.25
											c1.199-0.066,2.233,0.333,3.1,1.2c0.6,0.533,1,1.217,1.2,2.05c0.233,0.8,0.233,1.6,0,2.4l-0.45,1.35l0.85,1.1
											c0.534,0.667,0.851,1.417,0.95,2.25c0.066,0.833-0.083,1.617-0.45,2.35c-0.366,0.733-0.883,1.333-1.55,1.8
											c-0.7,0.434-1.45,0.667-2.25,0.7h-1.5L126.5,59c-0.4,0.667-0.934,1.15-1.6,1.45c-0.667,0.333-1.301,0.5-1.9,0.5l-0.7-0.05
											c-0.934-0.1-1.733-0.483-2.399-1.15c-0.567-0.533-0.95-1.133-1.15-1.8l-0.45-1.3l-1.35-0.4c-0.7-0.2-1.3-0.55-1.8-1.05
											c-0.7-0.667-1.134-1.45-1.301-2.35c-0.133-0.833-0.05-1.633,0.25-2.4c0.301-0.767,0.784-1.4,1.45-1.9l1.101-0.85
											l-0.051-1.45c-0.066-1.733,0.7-3.066,2.301-4H119z"/>
									</g>
								</g>
								<path style="fill-rule:evenodd;clip-rule:evenodd;fill:#421804;" d="M119.1,46.2c0-0.8,0.334-1.383,1-1.75
									c0.7-0.333,1.351-0.284,1.95,0.15l2.25,1.55l2.55-0.95c0.767-0.233,1.417-0.083,1.95,0.45c0.566,0.5,0.733,1.133,0.5,1.9
									l-0.8,2.6l1.65,2.15c0.5,0.6,0.583,1.267,0.25,2c-0.334,0.7-0.9,1.05-1.7,1.05L126,55.4l-1.55,2.25
									c-0.467,0.633-1.066,0.9-1.8,0.8c-0.367-0.034-0.717-0.2-1.051-0.5c-0.199-0.167-0.366-0.417-0.5-0.75l-0.85-2.6l-2.65-0.75
									c-0.333-0.133-0.583-0.283-0.75-0.45c-0.3-0.267-0.483-0.6-0.55-1c-0.166-0.767,0.066-1.383,0.7-1.85l2.2-1.65L119.1,46.2z"
									/>
								<linearGradient id="SVGID_19_" gradientUnits="userSpaceOnUse" x1="128.8154" y1="53.4214" x2="117.7154" y2="48.3714">
									<stop  offset="0.0235" style="stop-color:#808080"/>
									<stop  offset="0.7294" style="stop-color:#E6E6E6"/>
									<stop  offset="1" style="stop-color:#B3B3B3"/>
								</linearGradient>
								<path style="fill-rule:evenodd;clip-rule:evenodd;fill:url(#SVGID_19_);" d="M120.5,45.25c0.4-0.233,0.75-0.217,1.05,0.05
									l2.601,1.85l3-1.1c0.366-0.167,0.716-0.1,1.05,0.2c0.3,0.3,0.383,0.65,0.25,1.05l-0.95,3.05l2,2.5
									c0.233,0.333,0.267,0.683,0.1,1.05c-0.166,0.367-0.466,0.55-0.899,0.55l-3.2,0.05l-1.75,2.65c-0.3,0.333-0.634,0.483-1,0.45
									c-0.233-0.067-0.417-0.167-0.55-0.3l-0.25-0.4l-1-3L117.85,53c-0.199-0.066-0.333-0.15-0.399-0.25
									c-0.134-0.1-0.233-0.283-0.3-0.55c-0.067-0.4,0.066-0.717,0.399-0.95l2.55-1.9l-0.1-3.2
									C119.934,45.717,120.1,45.417,120.5,45.25z"/>
								<path style="fill-rule:evenodd;clip-rule:evenodd;fill:#FFFFFF;" d="M120.7,49.8l-2.55,1.9c-0.334,0.2-0.467,0.533-0.4,1
									l0.15,0.3h-0.051c-0.199-0.066-0.333-0.15-0.399-0.25c-0.134-0.1-0.233-0.283-0.3-0.55c-0.067-0.4,0.066-0.717,0.399-0.95
									l2.55-1.9l-0.1-3.2c-0.066-0.433,0.1-0.733,0.5-0.9c0.4-0.233,0.75-0.217,1.05,0.05l2.601,1.85l3-1.1
									c0.366-0.167,0.716-0.1,1.05,0.2l0.1,0.2l-0.55,0.05l-3,1.1l-2.6-1.85c-0.334-0.233-0.684-0.25-1.051-0.05
									c-0.399,0.167-0.566,0.466-0.5,0.9L120.7,49.8z"/>
							</g>
						</g>
					</g>
				</g>
			</g>
		</g>
		<g>
			
				<use xlink:href="#FlashAICB_x2F_Layer_1_x2F__x3C_Path_x3E__x5F_1_x5F_0"  width="119.2" height="60.45" y="-60.45" transform="matrix(1 0 0 -1 26.25 22.25)" style="overflow:visible;opacity:0.1992;enable-background:new    ;"/>
			
				<use xlink:href="#FlashAICB_x2F_Layer_1_x2F__x3C_Path_x3E__x5F_0"  width="119.2" height="66.434" y="-66.434" transform="matrix(1 0 0 -1 26.25 22.25)" style="overflow:visible;opacity:0.1211;enable-background:new    ;"/>
		</g>
	</g>
</g>
</svg>
