<?xml version="1.0" encoding="iso-8859-1"?>
<!-- Generator: Adobe Illustrator 15.1.0, SVG Export Plug-In . SVG Version: 6.00 Build 0)  -->
<!DOCTYPE svg PUBLIC "-//W3C//DTD SVG 1.1//EN" "http://www.w3.org/Graphics/SVG/1.1/DTD/svg11.dtd">
<svg version="1.1" id="FlashAICB" xmlns="http://www.w3.org/2000/svg" xmlns:xlink="http://www.w3.org/1999/xlink" x="0px" y="0px"
	 width="170.7px" height="171.25px" viewBox="0 0 170.7 171.25" style="enable-background:new 0 0 170.7 171.25;"
	 xml:space="preserve">
<symbol  id="FlashAICB_x5F_0_x2F_Isolation_Mode_x2F__x3C_Path_x3E_" viewBox="0 -57.1 118.7 57.1">
	<g id="Layer_1_2_">
		
			<radialGradient id="SVGID_1_" cx="59.3501" cy="-28.5498" r="46.5701" gradientTransform="matrix(1 0 0 -1 0 -57.0996)" gradientUnits="userSpaceOnUse">
			<stop  offset="0" style="stop-color:#C9EEE7;stop-opacity:0"/>
			<stop  offset="0.0627" style="stop-color:#C4ECDC;stop-opacity:0.0431"/>
			<stop  offset="0.1686" style="stop-color:#B7E7C0;stop-opacity:0.1686"/>
			<stop  offset="0.3059" style="stop-color:#A2DF92;stop-opacity:0.3725"/>
			<stop  offset="0.4706" style="stop-color:#84D353;stop-opacity:0.651"/>
			<stop  offset="0.651" style="stop-color:#60C503"/>
		</radialGradient>
		<path style="fill-rule:evenodd;clip-rule:evenodd;fill:url(#SVGID_1_);" d="M95.5-30.35c10.7,7.7,18.25,17.733,22.65,30.1L118.7,0
			c-0.6-15.9-6.633-29.383-18.1-40.45C89.067-51.55,75.3-57.1,59.3-57.1c-15.733,0-29.316,5.367-40.75,16.1
			C7.183-30.3,1-17.183,0-1.65c4.6-12,12.183-21.7,22.75-29.1C33.55-38.317,45.567-42.1,58.8-42.1
			C72.333-42.1,84.567-38.183,95.5-30.35z"/>
	</g>
</symbol>
<symbol  id="FlashAICB_x5F_0_x2F_Isolation_Mode_x2F__x3C_Path_x3E__x5F_0" viewBox="0 -61.294 110.05 61.294">
	<g id="Layer_1_4_">
		<path style="fill-rule:evenodd;clip-rule:evenodd;fill:#FFFFFF;" d="M106.5-34.35c2.367-5.633,3.55-10.933,3.55-15.9
			s-1.45-8.083-4.35-9.35c-2.333-1.066-6.25-1.066-11.75,0c-7.267,1.767-13.1,3.117-17.5,4.05c-8,1.7-15.133,2.55-21.4,2.55
			c-6.333,0-13.483-0.917-21.45-2.75c-8.333-2.2-14.15-3.683-17.45-4.45c-5.566-1.267-9.5-1.433-11.8-0.5C1.45-59.5,0-56.433,0-51.5
			c0,5.5,1.167,11.167,3.5,17C6-28.333,9.483-22.767,13.95-17.8C24.683-5.933,38.383,0,55.05,0c16.434,0,30.1-5.983,41-17.95
			C100.517-22.883,104-28.35,106.5-34.35z"/>
	</g>
</symbol>
<symbol  id="FlashAICB_x5F_0_x2F_Isolation_Mode_x2F__x3C_Path_x3E__x5F_1" viewBox="0 -55.75 110.05 55.75">
	<g id="Layer_1_3_">
		
			<linearGradient id="SVGID_2_" gradientUnits="userSpaceOnUse" x1="16165.3574" y1="-53.8804" x2="16221.1328" y2="-53.8804" gradientTransform="matrix(1.792918e-005 1 -1 -0.001 0.8545 -16221.1064)">
			<stop  offset="0.1294" style="stop-color:#E5B9B2"/>
			<stop  offset="0.9255" style="stop-color:#FFFFFF"/>
		</linearGradient>
		<path style="fill-rule:evenodd;clip-rule:evenodd;fill:url(#SVGID_2_);" d="M96.05-17.95c4.467-4.933,7.95-10.4,10.45-16.4
			c2.367-5.633,3.55-10.933,3.55-15.9c0-1.633-0.167-3.117-0.5-4.45c-1.867,11.034-7.267,20.85-16.2,29.45
			c-10.533,10.133-23.3,15.2-38.3,15.2c-15.267,0-28.117-5.05-38.55-15.15C7.533-33.9,2.183-44.083,0.45-55.75
			C0.15-54.317,0-52.9,0-51.5c0,5.5,1.167,11.167,3.5,17C6-28.333,9.483-22.767,13.95-17.8C24.683-5.933,38.383,0,55.05,0
			C71.483,0,85.15-5.983,96.05-17.95z"/>
	</g>
</symbol>
<g>
	<path style="fill-rule:evenodd;clip-rule:evenodd;fill:#66757A;" d="M118.7,7.55c10.2,4.333,19.233,10.434,27.1,18.3
		c7.9,7.9,14.017,16.95,18.351,27.15c4.467,10.567,6.699,21.633,6.699,33.2c0,11.566-2.232,22.633-6.699,33.2
		c-4.334,10.199-10.45,19.233-18.351,27.1c-7.866,7.866-16.899,13.967-27.1,18.3c-10.566,4.467-21.634,6.7-33.2,6.7
		s-22.633-2.233-33.2-6.7c-10.2-4.333-19.233-10.434-27.1-18.3c-7.9-7.866-14.017-16.9-18.35-27.1
		c-4.467-10.567-6.7-21.634-6.7-33.2c0-11.567,2.233-22.633,6.7-33.2C11.184,42.8,17.3,33.75,25.2,25.85
		c7.866-7.867,16.9-13.967,27.1-18.3c10.567-4.466,21.634-6.7,33.2-6.7S108.134,3.083,118.7,7.55z"/>
	
		<linearGradient id="SVGID_3_" gradientUnits="userSpaceOnUse" x1="-172.1846" y1="85.5" x2="-1.5352" y2="85.5" gradientTransform="matrix(5.859089e-006 -1 1 -0.001 1.466054e-004 -4.747650e-005)">
		<stop  offset="0.0196" style="stop-color:#343745"/>
		<stop  offset="0.251" style="stop-color:#6C6F75;stop-opacity:0.6863"/>
		<stop  offset="0.4941" style="stop-color:#A0A3A3;stop-opacity:0.3922"/>
		<stop  offset="0.7098" style="stop-color:#C7C9C5;stop-opacity:0.1765"/>
		<stop  offset="0.8824" style="stop-color:#DEE0D9;stop-opacity:0.0471"/>
		<stop  offset="0.9882" style="stop-color:#E7E9E1;stop-opacity:0"/>
	</linearGradient>
	<path style="fill-rule:evenodd;clip-rule:evenodd;fill:url(#SVGID_3_);" d="M118.7,8.15c10.2,4.333,19.233,10.434,27.1,18.3
		c7.9,7.867,14.017,16.9,18.351,27.1c4.467,10.567,6.699,21.633,6.699,33.2c0,11.566-2.232,22.634-6.699,33.2
		c-4.334,10.2-10.45,19.25-18.351,27.149c-7.866,7.867-16.899,13.967-27.1,18.301c-10.566,4.466-21.634,6.699-33.2,6.699
		s-22.633-2.233-33.2-6.699c-10.2-4.334-19.233-10.434-27.1-18.301C17.3,139.2,11.184,130.15,6.85,119.95
		c-4.467-10.566-6.7-21.634-6.7-33.2c0-11.567,2.233-22.633,6.7-33.2c4.333-10.167,10.45-19.2,18.35-27.1
		c7.866-7.867,16.9-13.967,27.1-18.3c10.567-4.467,21.634-6.7,33.2-6.7S108.134,3.683,118.7,8.15z"/>
	<g>
		<g>
			
				<linearGradient id="SVGID_4_" gradientUnits="userSpaceOnUse" x1="-158.335" y1="85.501" x2="-14.1851" y2="85.501" gradientTransform="matrix(6.939625e-006 -1 1 -0.001 1.071970e-004 4.449275e-004)">
				<stop  offset="0" style="stop-color:#B8D1DE"/>
				<stop  offset="0.0235" style="stop-color:#B7CEDB;stop-opacity:0.9647"/>
				<stop  offset="0.2784" style="stop-color:#AAB0BE;stop-opacity:0.6353"/>
				<stop  offset="0.502" style="stop-color:#A29EAD;stop-opacity:0.4314"/>
				<stop  offset="0.6549" style="stop-color:#9F97A7;stop-opacity:0.3569"/>
				<stop  offset="1" style="stop-color:#403D5A"/>
			</linearGradient>
			<path style="fill-rule:evenodd;clip-rule:evenodd;fill:url(#SVGID_4_);" d="M136.45,35.25c6.633,6.633,11.783,14.267,15.45,22.9
				c3.767,8.934,5.649,18.283,5.649,28.05c0,9.767-1.883,19.116-5.649,28.05c-3.667,8.634-8.817,16.267-15.45,22.9
				c-6.634,6.633-14.267,11.783-22.9,15.449c-8.933,3.767-18.283,5.65-28.05,5.65s-19.117-1.884-28.05-5.65
				c-8.634-3.666-16.267-8.816-22.9-15.449c-6.633-6.634-11.783-14.267-15.45-22.9c-3.767-8.934-5.65-18.283-5.65-28.05
				c0-9.767,1.883-19.117,5.65-28.05c3.667-8.633,8.816-16.267,15.45-22.9c6.634-6.667,14.267-11.833,22.9-15.5
				c8.933-3.767,18.283-5.65,28.05-5.65s19.117,1.883,28.05,5.65C122.184,23.417,129.816,28.583,136.45,35.25z"/>
		</g>
	</g>
	<g>
		
			<linearGradient id="SVGID_5_" gradientUnits="userSpaceOnUse" x1="-153.5352" y1="85.501" x2="-21.7852" y2="85.501" gradientTransform="matrix(7.590133e-006 -1 1 -0.001 9.770805e-006 4.449275e-004)">
			<stop  offset="0.0745" style="stop-color:#64953A"/>
			<stop  offset="0.2196" style="stop-color:#7AAE4D"/>
			<stop  offset="0.3686" style="stop-color:#94CC63"/>
			<stop  offset="0.5882" style="stop-color:#CCDC58"/>
			<stop  offset="0.8118" style="stop-color:#D3DE57"/>
			<stop  offset="1" style="stop-color:#FFECB6"/>
		</linearGradient>
		<path style="fill-rule:evenodd;clip-rule:evenodd;fill:url(#SVGID_5_);" d="M132.05,41c12.9,12.9,19.351,28.433,19.351,46.6
			c0,18.134-6.45,33.65-19.351,46.551c-12.866,12.866-28.383,19.3-46.55,19.3c-18.167,0-33.7-6.434-46.6-19.3
			C26.033,121.283,19.6,105.767,19.6,87.6c0-18.167,6.433-33.7,19.3-46.6c12.9-12.867,28.434-19.3,46.6-19.3
			C103.667,21.7,119.184,28.133,132.05,41z"/>
		<path style="fill-rule:evenodd;clip-rule:evenodd;fill:#174718;" d="M85.5,20.9c8.9,0,17.417,1.684,25.55,5.05
			c8.101,3.367,15.3,8.183,21.601,14.45c6.3,6.3,11.133,13.517,14.5,21.65c3.366,8.1,5.05,16.617,5.05,25.55
			c0,8.9-1.684,17.417-5.05,25.551c-3.367,8.1-8.2,15.3-14.5,21.6c-6.301,6.3-13.5,11.134-21.601,14.5
			c-8.133,3.366-16.649,5.05-25.55,5.05c-8.9,0-17.4-1.684-25.5-5.05c-8.133-3.366-15.35-8.2-21.65-14.5
			c-6.3-6.3-11.133-13.5-14.5-21.6C20.483,105.017,18.8,96.5,18.8,87.6c0-8.933,1.684-17.45,5.05-25.55
			c3.367-8.133,8.2-15.35,14.5-21.65c6.3-6.267,13.517-11.083,21.65-14.45C68.1,22.583,76.6,20.9,85.5,20.9z M131.5,41.6
			c-12.7-12.7-28.033-19.05-46-19.05s-33.3,6.35-46,19.05c-12.7,12.7-19.05,28.033-19.05,46c0,17.967,6.35,33.301,19.05,46
			c12.7,12.7,28.033,19.051,46,19.051s33.3-6.351,46-19.051c12.7-12.699,19.05-28.033,19.05-46C150.55,69.633,144.2,54.3,131.5,41.6
			z"/>
	</g>
	
		<radialGradient id="SVGID_6_" cx="85.5" cy="85.4502" r="59.1001" gradientTransform="matrix(1 0 0 -1 0 170.9004)" gradientUnits="userSpaceOnUse">
		<stop  offset="0" style="stop-color:#FFECB6"/>
		<stop  offset="0.1882" style="stop-color:#D3DE57"/>
		<stop  offset="0.5137" style="stop-color:#CCDC58"/>
		<stop  offset="1" style="stop-color:#97CD63;stop-opacity:0.5373"/>
	</radialGradient>
	<path style="fill-rule:evenodd;clip-rule:evenodd;fill:url(#SVGID_6_);" d="M127.35,43.7c11.534,11.533,17.301,25.45,17.301,41.75
		c0,16.3-5.767,30.217-17.301,41.75c-11.566,11.533-25.517,17.3-41.85,17.3c-16.333,0-30.283-5.767-41.85-17.3
		c-11.533-11.533-17.3-25.45-17.3-41.75c0-16.3,5.767-30.217,17.3-41.75C55.217,32.167,69.167,26.4,85.5,26.4
		C101.833,26.4,115.783,32.167,127.35,43.7z"/>
	<g>
		<g>
			<path style="fill-rule:evenodd;clip-rule:evenodd;fill:#F0F6CF;" d="M75.4,35.8c0.767,0.767,1.15,1.833,1.15,3.2v9.85h0.55
				c0.633,0,1.167,0.2,1.6,0.6c0.433,0.4,0.65,0.917,0.65,1.55s-0.217,1.15-0.65,1.55c-0.434,0.367-0.967,0.55-1.6,0.55h-0.55v2.75
				c0,1.667-0.767,2.5-2.3,2.5c-1.566,0-2.35-0.833-2.35-2.5V53.1h-7.75c-0.733,0-1.3-0.217-1.7-0.65
				c-0.367-0.333-0.55-0.75-0.55-1.25c0-0.4,0.15-0.867,0.45-1.4l7.2-13.05c0.667-1.267,1.767-1.9,3.3-1.9
				C73.883,34.85,74.733,35.167,75.4,35.8z M71.9,39.9h-0.05l-4.35,8.95h4.4V39.9z"/>
			<path style="fill-rule:evenodd;clip-rule:evenodd;fill:#F0F6CF;" d="M89.1,39.25c-2.333,0-3.5,2.483-3.5,7.45
				c0,5,1.167,7.5,3.5,7.5c2.334,0,3.5-2.5,3.5-7.5C92.6,41.733,91.434,39.25,89.1,39.25z M97.65,46.7
				c0,3.133-0.617,5.767-1.851,7.9c-1.5,2.633-3.733,3.95-6.7,3.95c-2.966,0-5.2-1.316-6.7-3.95c-1.233-2.133-1.85-4.767-1.85-7.9
				s0.617-5.767,1.85-7.9c1.5-2.633,3.734-3.95,6.7-3.95c2.967,0,5.2,1.316,6.7,3.95C97.033,40.933,97.65,43.567,97.65,46.7z"/>
			<path style="fill-rule:evenodd;clip-rule:evenodd;fill:#F0F6CF;" d="M100.35,39.7c-0.732,0-1.283-0.233-1.649-0.7
				c-0.333-0.4-0.5-0.917-0.5-1.55c0-0.567,0.184-1.067,0.55-1.5c0.434-0.467,0.967-0.7,1.6-0.7h4.601c0.667,0,1.2,0.217,1.6,0.65
				c0.367,0.434,0.55,0.983,0.55,1.65v18.3c0,0.767-0.232,1.383-0.699,1.85c-0.434,0.433-1,0.65-1.7,0.65
				c-0.733,0-1.316-0.217-1.75-0.65c-0.467-0.467-0.7-1.083-0.7-1.85V39.7H100.35z"/>
		</g>
		<g>
			
				<linearGradient id="SVGID_7_" gradientUnits="userSpaceOnUse" x1="-57.4736" y1="70.6279" x2="-33.9722" y2="70.6279" gradientTransform="matrix(4.255319e-005 -1 1 -0.001 -2.258746e-004 -4.747650e-005)">
				<stop  offset="0.3451" style="stop-color:#224C16"/>
				<stop  offset="0.5216" style="stop-color:#33651E"/>
				<stop  offset="0.902" style="stop-color:#5DA634"/>
				<stop  offset="0.9686" style="stop-color:#65B238"/>
			</linearGradient>
			<path style="fill-rule:evenodd;clip-rule:evenodd;fill:url(#SVGID_7_);" d="M72.85,33.9c1.033,0,1.883,0.317,2.55,0.95
				c0.767,0.733,1.15,1.783,1.15,3.15v9.9h0.55c0.633,0,1.167,0.2,1.6,0.6c0.433,0.4,0.65,0.9,0.65,1.5
				c0,0.633-0.217,1.15-0.65,1.55c-0.434,0.4-0.967,0.6-1.6,0.6h-0.55v2.75c0,1.667-0.767,2.5-2.3,2.5c-1.566,0-2.35-0.833-2.35-2.5
				v-2.75h-7.75c-0.733,0-1.3-0.217-1.7-0.65c-0.367-0.333-0.55-0.75-0.55-1.25c0-0.467,0.15-0.933,0.45-1.4l7.2-13.1
				C70.217,34.517,71.316,33.9,72.85,33.9z M71.85,38.9l-4.35,9h4.4v-9H71.85z"/>
			
				<linearGradient id="SVGID_8_" gradientUnits="userSpaceOnUse" x1="-57.688" y1="89.1025" x2="-33.9878" y2="89.1025" gradientTransform="matrix(4.219409e-005 -1 1 -0.001 -2.176434e-004 4.449275e-004)">
				<stop  offset="0.3451" style="stop-color:#224C16"/>
				<stop  offset="0.5216" style="stop-color:#33651E"/>
				<stop  offset="0.902" style="stop-color:#5DA634"/>
				<stop  offset="0.9686" style="stop-color:#65B238"/>
			</linearGradient>
			<path style="fill-rule:evenodd;clip-rule:evenodd;fill:url(#SVGID_8_);" d="M89.1,38.25c-2.333,0-3.5,2.5-3.5,7.5
				c0,4.967,1.167,7.45,3.5,7.45c2.334,0,3.5-2.483,3.5-7.45C92.6,40.75,91.434,38.25,89.1,38.25z M97.65,45.75
				c0,3.133-0.617,5.767-1.851,7.9c-1.5,2.633-3.733,3.95-6.7,3.95c-2.966,0-5.2-1.317-6.7-3.95c-1.233-2.133-1.85-4.767-1.85-7.9
				s0.617-5.767,1.85-7.9c1.5-2.633,3.734-3.95,6.7-3.95c2.967,0,5.2,1.317,6.7,3.95C97.033,39.983,97.65,42.617,97.65,45.75z"/>
			
				<linearGradient id="SVGID_9_" gradientUnits="userSpaceOnUse" x1="-57.5044" y1="102.6514" x2="-34.3794" y2="102.6514" gradientTransform="matrix(4.324325e-005 -1 1 -0.001 -2.319270e-005 4.439838e-004)">
				<stop  offset="0.3451" style="stop-color:#224C16"/>
				<stop  offset="0.5216" style="stop-color:#33651E"/>
				<stop  offset="0.902" style="stop-color:#5DA634"/>
				<stop  offset="0.9686" style="stop-color:#65B238"/>
			</linearGradient>
			<path style="fill-rule:evenodd;clip-rule:evenodd;fill:url(#SVGID_9_);" d="M100.35,38.7c-0.732,0-1.283-0.233-1.649-0.7
				c-0.333-0.4-0.5-0.9-0.5-1.5s0.184-1.117,0.55-1.55c0.434-0.467,0.967-0.7,1.6-0.7h4.601c0.667,0,1.2,0.217,1.6,0.65
				c0.367,0.434,0.55,0.983,0.55,1.65V54.9c0,0.767-0.232,1.383-0.699,1.85c-0.434,0.433-1,0.65-1.7,0.65
				c-0.733,0-1.316-0.217-1.75-0.65c-0.467-0.467-0.7-1.083-0.7-1.85V38.7H100.35z"/>
		</g>
	</g>
	<g>
		<path style="fill-rule:evenodd;clip-rule:evenodd;fill:#FFFFFF;" d="M72.3,73.75l-0.05-0.65l0.1-0.9c0.4-2.1,1.083-3.767,2.05-5
			c-0.3-0.867-0.35-1.667-0.15-2.4c0.333-1.167,1-2.033,2-2.6c0.233-0.133,0.55-0.267,0.95-0.4c1.333-0.433,2.6-0.316,3.8,0.35
			c0.733-0.233,1.35-0.333,1.85-0.3c1.933,0.033,3.483,0.75,4.65,2.15c1.066,1.267,1.6,2.767,1.6,4.5c0,1.167-0.416,2.133-1.25,2.9
			l-0.199,0.75c-0.2,0.567-0.517,1.033-0.95,1.4c0.1,1.633,0.017,3.083-0.25,4.35c0.467,1.4,0.899,2.867,1.3,4.4l2.3-2.45l0.15-0.1
			l1.5-1.5l0.1-0.05c2.967-2.8,5.684-4.9,8.15-6.3c0-0.167,0.066-0.45,0.2-0.85c0.1-0.3,0.233-0.583,0.399-0.85
			c1.2-2.233,2.55-3.784,4.05-4.65c-0.166-0.9,0.034-1.8,0.601-2.7c0.633-1,1.55-1.633,2.75-1.9c0.5-0.1,0.85-0.15,1.05-0.15
			c1.467,0,2.733,0.567,3.8,1.7c0.733-0.033,1.45,0.067,2.15,0.3c1.934,0.633,3.267,1.85,4,3.65c0.667,1.633,0.717,3.333,0.149,5.1
			c-0.399,1.2-1.166,2.034-2.3,2.5c-0.066,0.2-0.233,0.467-0.5,0.8c-0.366,0.467-0.866,0.867-1.5,1.2
			c-0.5,1.934-1.133,3.517-1.899,4.75c0.166,4.3-0.334,9.5-1.5,15.601c-1.134,6.133-2.617,11.449-4.45,15.949
			c0.767,0.7,1.316,1.334,1.649,1.9c2.434,3.566,2.584,7.884,0.45,12.95c-1.1,2.566-2.649,5.05-4.649,7.45c-0.9,1-2,1.5-3.301,1.5
			c-0.732,0-1.433-0.184-2.1-0.551c-1-0.5-1.684-1.316-2.05-2.449L95.6,134.85c-1.933,2.101-4.267,3.884-7,5.351
			c-3.066,1.666-6.016,2.583-8.85,2.75H79c-0.4,0-0.7-0.017-0.9-0.05c-0.434,0-0.9-0.051-1.4-0.15l-0.3-0.05l-2.55-0.7l-2.4-1.25
			l-0.1-0.1l-0.8-0.601H69.8L69.55,140c-0.633-0.1-0.966-0.15-1-0.15l-1.15-0.25l-0.1-0.05l-0.9-0.3l-0.1-0.05l-0.85-0.351
			l-0.1-0.05l-0.15-0.05l-1.35-0.8l-0.1-0.101l-0.7-0.55l-0.15-0.1l-0.7-0.601c-1.767-1.433-3.267-3.699-4.5-6.8
			c-1.134-2.833-1.8-5.717-2-8.649c-0.034-1,0-2.217,0.1-3.65c-1,0-1.883-0.3-2.65-0.9c-0.833-0.666-1.35-1.533-1.55-2.6
			c-0.1-0.634-0.083-1.566,0.05-2.8c0.167-1.7,0.7-3.184,1.6-4.45c0.934-1.3,2.117-2.233,3.55-2.8
			c0.733-0.334,1.55-0.533,2.45-0.601l0.85-4.05l1.2-4.25l0.05-0.25l1.4-4l3.5-7.85V82.9l1-1.8
			C68.983,77.933,70.667,75.483,72.3,73.75z"/>
		
			<linearGradient id="SVGID_10_" gradientUnits="userSpaceOnUse" x1="-142.0791" y1="85.5146" x2="-59.9585" y2="85.5146" gradientTransform="matrix(1.217656e-005 -1 1 -0.001 8.256453e-005 4.449275e-004)">
			<stop  offset="0.3569" style="stop-color:#658234"/>
			<stop  offset="0.4627" style="stop-color:#759B44"/>
			<stop  offset="0.6314" style="stop-color:#94CC63"/>
			<stop  offset="0.9647" style="stop-color:#D9E480"/>
		</linearGradient>
		<path style="fill-rule:evenodd;clip-rule:evenodd;fill:url(#SVGID_10_);" d="M72.3,72.8l-0.05-0.65l0.1-0.95
			c0.4-2.067,1.083-3.717,2.05-4.95c-0.3-0.867-0.35-1.667-0.15-2.4c0.3-1.167,0.967-2.033,2-2.6c0.3-0.2,0.617-0.35,0.95-0.45
			c1.333-0.4,2.6-0.283,3.8,0.35c0.8-0.2,1.417-0.283,1.85-0.25c1.933,0.033,3.483,0.75,4.65,2.15c1.066,1.267,1.6,2.767,1.6,4.5
			c0,1.167-0.416,2.133-1.25,2.9L87.65,71.2c-0.2,0.566-0.517,1.033-0.95,1.4c0.1,1.633,0.017,3.083-0.25,4.35
			c0.533,1.5,0.967,2.966,1.3,4.4l2.3-2.45l0.15-0.1l1.5-1.5l0.1-0.05c2.967-2.8,5.684-4.9,8.15-6.3c0-0.167,0.066-0.45,0.2-0.85
			c0.133-0.367,0.267-0.65,0.399-0.85c1.2-2.233,2.55-3.783,4.05-4.65c-0.133-0.934,0.067-1.833,0.601-2.7
			c0.633-1,1.55-1.633,2.75-1.9c0.5-0.1,0.85-0.15,1.05-0.15c1.467,0,2.733,0.566,3.8,1.7c0.733-0.033,1.45,0.067,2.15,0.3
			c1.934,0.633,3.267,1.85,4,3.65c0.667,1.633,0.717,3.333,0.149,5.1c-0.399,1.2-1.166,2.033-2.3,2.5
			c-0.066,0.2-0.233,0.467-0.5,0.8c-0.366,0.467-0.866,0.867-1.5,1.2c-0.5,1.933-1.133,3.517-1.899,4.75
			c0.166,4.3-0.334,9.5-1.5,15.6c-1.134,6.133-2.617,11.45-4.45,15.95c0.733,0.699,1.283,1.316,1.649,1.85
			c2.434,3.6,2.584,7.934,0.45,13c-1.1,2.566-2.649,5.05-4.649,7.45c-0.9,1-2,1.5-3.301,1.5c-0.732,0-1.433-0.184-2.1-0.55
			c-1-0.567-1.684-1.384-2.05-2.45L95.6,133.85c-1.933,2.101-4.267,3.9-7,5.4c-3.066,1.667-6.016,2.583-8.85,2.75H79
			c-0.4,0-0.7-0.017-0.9-0.05c-0.434,0-0.9-0.05-1.4-0.15l-0.3-0.05l-2.55-0.7l-0.25-0.1l-2.15-1.15l-0.1-0.1l-0.8-0.601H69.8
			l-0.25-0.05c-0.633-0.1-0.966-0.149-1-0.149l-1.15-0.25l-0.1-0.051l-0.9-0.3l-0.1-0.05l-0.85-0.35l-0.1-0.051l-0.15-0.05
			l-0.55-0.3l-0.8-0.5l-0.1-0.1l-0.7-0.551l-0.15-0.1l-0.7-0.6c-1.767-1.434-3.267-3.7-4.5-6.801c-1.134-2.833-1.8-5.716-2-8.649
			c-0.034-1,0-2.217,0.1-3.65c-1,0-1.883-0.3-2.65-0.899c-0.833-0.667-1.35-1.534-1.55-2.601c-0.1-0.633-0.083-1.566,0.05-2.8
			c0.167-1.733,0.7-3.233,1.6-4.5s2.083-2.184,3.55-2.75c0.733-0.333,1.55-0.533,2.45-0.6l0.85-4.051l1.2-4.25l0.05-0.25L66.25,82
			v-0.05l0.95-1.75l0.05-0.05C68.983,76.983,70.667,74.533,72.3,72.8z"/>
		<path style="fill-rule:evenodd;clip-rule:evenodd;fill:none;stroke:#DCF1A5;stroke-width:0.25;" d="M72.3,72.8
			c-1.633,1.733-3.316,4.184-5.05,7.35L67.2,80.2l-0.95,1.75V82l-4.9,11.85L61.3,94.1l-1.2,4.25l-0.85,4.051
			c-0.9,0.066-1.717,0.267-2.45,0.6c-1.466,0.566-2.65,1.483-3.55,2.75s-1.434,2.767-1.6,4.5c-0.133,1.233-0.15,2.167-0.05,2.8
			c0.2,1.066,0.716,1.934,1.55,2.601c0.767,0.6,1.65,0.899,2.65,0.899c-0.1,1.434-0.133,2.65-0.1,3.65
			c0.2,2.934,0.866,5.816,2,8.649c1.233,3.101,2.733,5.367,4.5,6.801l0.7,0.6l0.15,0.1l0.7,0.551l0.1,0.1l0.8,0.5l0.55,0.3
			l0.15,0.05l0.1,0.051l0.85,0.35l0.1,0.05l0.9,0.3l0.1,0.051l1.15,0.25c0.034,0,0.367,0.05,1,0.149l0.25,0.05h0.75l0.8,0.601
			l0.1,0.1l2.15,1.15l0.25,0.1l2.55,0.7l0.3,0.05c0.5,0.101,0.966,0.15,1.4,0.15c0.2,0.033,0.5,0.05,0.9,0.05h0.75
			c2.833-0.167,5.783-1.083,8.85-2.75c2.733-1.5,5.067-3.3,7-5.4l1.351-1.649c0.366,1.066,1.05,1.883,2.05,2.45
			c0.667,0.366,1.367,0.55,2.1,0.55c1.301,0,2.4-0.5,3.301-1.5c2-2.4,3.55-4.884,4.649-7.45c2.134-5.066,1.983-9.4-0.45-13
			c-0.366-0.533-0.916-1.15-1.649-1.85c1.833-4.5,3.316-9.817,4.45-15.95c1.166-6.101,1.666-11.3,1.5-15.6
			c0.767-1.233,1.399-2.817,1.899-4.75c0.634-0.333,1.134-0.733,1.5-1.2c0.267-0.333,0.434-0.6,0.5-0.8c1.134-0.467,1.9-1.3,2.3-2.5
			c0.567-1.767,0.518-3.467-0.149-5.1c-0.733-1.8-2.066-3.017-4-3.65c-0.7-0.233-1.417-0.333-2.15-0.3
			c-1.066-1.133-2.333-1.7-3.8-1.7c-0.2,0-0.55,0.05-1.05,0.15c-1.2,0.267-2.117,0.9-2.75,1.9c-0.533,0.867-0.733,1.767-0.601,2.7
			c-1.5,0.867-2.85,2.417-4.05,4.65c-0.133,0.2-0.267,0.483-0.399,0.85c-0.134,0.4-0.2,0.683-0.2,0.85
			c-2.467,1.4-5.184,3.5-8.15,6.3l-0.1,0.05l-1.5,1.5l-0.15,0.1l-2.3,2.45c-0.333-1.434-0.767-2.9-1.3-4.4
			c0.267-1.267,0.35-2.717,0.25-4.35c0.434-0.367,0.75-0.833,0.95-1.4l0.199-0.75c0.834-0.767,1.25-1.733,1.25-2.9
			c0-1.733-0.533-3.233-1.6-4.5c-1.167-1.4-2.717-2.117-4.65-2.15c-0.434-0.033-1.05,0.05-1.85,0.25c-1.2-0.633-2.467-0.75-3.8-0.35
			c-0.333,0.1-0.65,0.25-0.95,0.45c-1.033,0.567-1.7,1.433-2,2.6c-0.2,0.733-0.15,1.533,0.15,2.4c-0.966,1.233-1.65,2.883-2.05,4.95
			l-0.1,0.95L72.3,72.8z"/>
		<path style="fill-rule:evenodd;clip-rule:evenodd;fill:#174718;" d="M77.95,64.1L78.2,64c0.433-0.133,0.883-0.067,1.35,0.2
			c0.434,0.333,0.767,0.833,1,1.5c0.6-1,1.35-1.5,2.25-1.5c1.034,0.033,1.8,0.45,2.3,1.25c0.4,0.633,0.601,1.333,0.601,2.1
			c0,0.4-0.2,0.65-0.601,0.75c-0.433,0.133-0.733,0.017-0.899-0.35c-0.434-0.667-0.784-0.95-1.05-0.85c-0.066,0-0.183,0.1-0.35,0.3
			l-0.35,0.55L83,68.2l1.2,0.85c0.333,0.2,0.433,0.517,0.3,0.95c-0.167,0.4-0.467,0.567-0.9,0.5c-0.3,0.033-0.583,0.117-0.85,0.25
			c0.333,0.433,0.517,1.033,0.55,1.8c0.134,1.9-0.017,3.4-0.45,4.5c1.233,3.034,2.216,6.967,2.95,11.8l3.75-4.5l4.5-4.65l0.101-0.05
			c2.066-1.967,4.033-3.583,5.899-4.85c2.634-1.767,4.65-2.533,6.05-2.3c0.268-0.9,0.434-1.583,0.5-2.05
			c-0.6,0.333-1.083,0.75-1.449,1.25l-0.101,0.25c-0.166,0.333-0.45,0.5-0.85,0.5l-0.351-0.05c-0.566-0.233-0.732-0.633-0.5-1.2
			l0.2-0.35c1.167-2.333,2.417-3.567,3.75-3.7c0.434-0.066,0.8-0.017,1.101,0.15c0.1-0.433,0.116-0.833,0.05-1.2l-0.5-1.75
			c-0.066-0.267-0.017-0.5,0.149-0.7c0.101-0.2,0.301-0.333,0.601-0.4l0.3-0.05c0.533,0,0.983,0.216,1.35,0.65
			c0.367,0.467,0.551,1.117,0.551,1.95c1-0.833,2-1.1,3-0.8c1.1,0.367,1.783,1.083,2.05,2.15c0.2,0.8,0.167,1.6-0.101,2.4
			c-0.166,0.434-0.482,0.65-0.949,0.65c-0.467-0.067-0.75-0.3-0.851-0.7c-0.2-0.867-0.467-1.3-0.8-1.3l-0.45,0.2l-0.6,0.5l0.5,0.45
			l1,1.3c0.3,0.4,0.283,0.783-0.05,1.15c-0.301,0.367-0.667,0.45-1.101,0.25c-0.333-0.1-0.666-0.1-1,0
			c0.2,0.534,0.184,1.25-0.05,2.15c-0.566,2.267-1.267,3.816-2.1,4.65c0.366,4.333-0.117,9.883-1.45,16.65
			c-1.333,6.866-3.05,12.533-5.15,17l-0.2,0.4c1.334,0.3,2.4,1.033,3.2,2.199c1.834,2.767,1.767,6.284-0.2,10.551
			c-1,2.166-2.267,4.133-3.8,5.899c-0.333,0.334-0.717,0.4-1.149,0.2c-0.467-0.233-0.617-0.6-0.45-1.1
			c0.434-1.233,0.75-2.65,0.95-4.25c0.233-2.134,0.133-3.834-0.301-5.101c-2.8,3.066-4.783,5.7-5.949,7.9
			c-0.533,0.899-1.134,1.7-1.801,2.399c-1.633,1.767-3.616,3.317-5.949,4.65c-2.7,1.5-5.234,2.3-7.601,2.4H78.3l-2.25-0.4l-0.95-0.3
			l-0.15-0.101l-1.6-0.8l-0.1-0.1l-0.6-0.45l-0.1-0.05l-0.8-0.75c-0.167,0.033-0.434,0.05-0.8,0.05H69.9l-1.55-0.3l-0.1-0.05
			l-0.6-0.2l-1.3-0.601l-0.1-0.1l-0.45-0.25l-1.35-1.1c-1.4-1.067-2.617-2.95-3.65-5.65c-0.966-2.5-1.533-5.017-1.7-7.55
			c-0.067-0.8,0-2.3,0.2-4.5l0.1-1l-0.35-2.8l-0.1-0.45c-0.2-0.033-0.417-0.033-0.65,0c-0.733,0.267-1.333,0.816-1.8,1.649
			l-0.4,0.351c-0.3,0.133-0.567,0.083-0.8-0.15c-0.2-0.166-0.316-0.383-0.35-0.649c-0.034-0.301,0-0.917,0.1-1.851
			c0.2-2.3,1.233-3.8,3.1-4.5c1.1-0.566,2.383-0.434,3.85,0.4l2.55-11.4l0.05-0.25l2.1-5.649l0.1-0.301l2.45-5.35l0.05-0.05
			l0.85-1.65l0.05-0.05c1.2-2.167,2.417-4.033,3.65-5.6c1.733-2.2,3.216-3.383,4.45-3.55c0-0.767-0.033-1.383-0.1-1.85
			c-0.5,0.5-0.8,0.967-0.9,1.4l-0.05,0.25c0,0.3-0.184,0.517-0.55,0.65h-0.3c-0.5,0-0.75-0.267-0.75-0.8l0.05-0.4
			c0.366-2.233,1.083-3.6,2.15-4.1c0.333-0.133,0.667-0.183,1-0.15c-0.067-0.434-0.184-0.767-0.35-1l-0.85-1.35
			c-0.1-0.233-0.133-0.45-0.1-0.65C77.617,64.367,77.75,64.2,77.95,64.1z"/>
		<g>
			<path style="fill-rule:evenodd;clip-rule:evenodd;fill:#F8E36F;" d="M82.15,66.9c-0.533,0.7-0.983,1.767-1.35,3.2
				c-0.167,0.7-0.283,1.333-0.35,1.9l0.95-0.85c0.633-0.333,1,0.167,1.1,1.5c0.133,2.1-0.017,3.483-0.45,4.15
				c0.1-0.767,0.117-1.483,0.05-2.15c-0.067-1.367-0.4-1.816-1-1.35c-0.6,0.434-1.1,1.317-1.5,2.65c-0.2,0.7-0.333,1.333-0.4,1.9
				l-0.1-3.4c0.066-1,0.066-1.95,0-2.85c-0.1-1.767-0.467-2.367-1.1-1.8c-0.633,0.567-1.083,1.15-1.35,1.75
				c-0.078,0.175-0.136,0.326-0.175,0.45c0.08-0.452,0.205-0.919,0.375-1.4c0.367-1.167,0.816-1.867,1.35-2.1
				c0.533-0.233,1-0.067,1.4,0.5c0.2,0.267,0.333,0.567,0.4,0.9c0.133-0.8,0.333-1.617,0.6-2.45c0.6-1.633,1.333-2.434,2.2-2.4
				c0.867,0,1.483,0.417,1.85,1.25c0.167,0.434,0.25,0.85,0.25,1.25c-0.233-0.4-0.533-0.716-0.9-0.95
				C83.3,66.1,82.684,66.2,82.15,66.9z"/>
			<path style="fill-rule:evenodd;clip-rule:evenodd;fill:#FFFAD8;" d="M83.7,69.7c-0.8-0.1-1.55,0.283-2.25,1.15L80.4,72.2
				l0.45,0.95c0.3,0.833,0.433,1.65,0.4,2.45l-0.2,2.55c0-3.367-0.35-4.75-1.05-4.15c-0.467,0.4-0.65,0.283-0.55-0.35l0.25-1.05
				c0.033-1.567,0.05-2.75,0.05-3.55c-0.033-1.367-0.217-2.333-0.55-2.9l-0.85-1.35l0.75,0.1c0.5,0.333,0.833,1.267,1,2.8l0.35,3.6
				l0.6-1.5c0.5-0.966,1-1.283,1.5-0.95L83.7,69.7z"/>
			<path style="fill-rule:evenodd;clip-rule:evenodd;fill:#007120;" d="M59.7,109.3c-0.1-0.434-0.333-0.85-0.7-1.25l-0.55-0.5
				c-0.2,0-0.35-0.033-0.45-0.1c-0.2-0.134-0.033-0.351,0.5-0.65c0.733-0.399,1.7-0.316,2.9,0.25c1.333,0.667,2.333,1.8,3,3.4
				c-0.9,5.8-1.5,8.8-1.8,9c-0.534,0.434-1.05-0.367-1.55-2.4C60.316,112.583,59.867,110,59.7,109.3z"/>
			<path style="fill-rule:evenodd;clip-rule:evenodd;fill:#F9DF51;" d="M85.6,107c-1.133,8.6-3.033,15.4-5.7,20.4
				c-2.933,5.466-6.367,7.767-10.3,6.899c-4.9-1.066-7.5-5.783-7.8-14.149c-0.2-5.101,0.483-11.467,2.05-19.101
				c1.233-6.2,3.517-12.366,6.85-18.5c3.267-6,5.883-9.05,7.85-9.15c2.3-0.133,4.267,4.05,5.9,12.55
				C85.983,94.083,86.367,101.1,85.6,107z"/>
			<path style="fill-rule:evenodd;clip-rule:evenodd;fill:#EBAD3A;" d="M76.1,74.85c-0.1,0.267-0.15,0.517-0.15,0.75
				c-0.267,0.4-0.767,0.933-1.5,1.6c-0.467,0.433-0.767,1.017-0.9,1.75c-0.066,0.367-0.083,0.683-0.05,0.95
				c-0.833,0.667-1.633,1.617-2.4,2.85c-0.467,0.767-0.85,1.667-1.15,2.7c-0.134,0.533-0.217,0.983-0.25,1.35L68,89.25
				c-0.434,0.6-0.75,1.45-0.95,2.55c-0.1,0.533-0.167,1.017-0.2,1.45L65.3,96.4c-0.433,0.866-0.616,1.916-0.55,3.149
				c0.033,0.634,0.1,1.167,0.2,1.601l-0.5,1.649c-0.3,1.134-0.483,2.767-0.55,4.9l-0.85,2.6c-0.233,0.8-0.083,1.783,0.45,2.95
				c0.267,0.6,0.55,1.1,0.85,1.5l-0.85,1c-0.4,0.467-0.566,1.4-0.5,2.8c0.1,1.2,0.333,2.483,0.7,3.851
				c0.366,1.3,1.167,2.199,2.4,2.699c1.3,0.567,2.5,0.317,3.6-0.75c0.933-0.899,1.583-2.066,1.95-3.5l0.3-1.85l1.75-0.65
				c1.267-0.699,2.167-1.666,2.7-2.899c0.534-1.2,0.65-2.533,0.35-4l-0.55-1.8l0.75-0.301c0.566-0.533,1.083-1.666,1.55-3.399
				s0.517-3.233,0.15-4.5l-0.65-1.4l0.85-0.05c0.6-0.333,1-1.167,1.2-2.5c0.2-1.3,0.067-2.65-0.4-4.05L78.9,91.8l0.7-0.5
				c0.533-0.6,0.917-1.517,1.15-2.75c0.267-1.2,0.117-2.316-0.45-3.35L79.4,84c0.7-0.333,1.167-1.183,1.4-2.55
				c0.134-0.867-0.066-1.684-0.6-2.45l-0.8-0.95l0.35-0.15c0.2-0.267,0.15-0.867-0.15-1.8c-0.3-1.167-0.767-2.033-1.4-2.6l0.35-0.1
				c2.3-0.133,4.267,4.05,5.9,12.55C85.983,94.083,86.367,101.1,85.6,107c-1.133,8.6-3.033,15.4-5.7,20.4
				c-2.933,5.466-6.367,7.767-10.3,6.899c-4.9-1.066-7.5-5.783-7.8-14.149c-0.2-5.101,0.483-11.467,2.05-19.101
				c1-5,2.767-10.166,5.3-15.5C71.583,80.517,73.9,76.95,76.1,74.85z"/>
			<path style="fill-rule:evenodd;clip-rule:evenodd;fill:#00972E;" d="M60.35,111.15c-0.967-1-2.017-1.084-3.15-0.25l-1.4,1.5
				c0.1-0.434,0.217-0.9,0.35-1.4c0.3-0.967,0.55-1.634,0.75-2c0.9-1.6,1.534-2.167,1.9-1.7
				C59.167,107.767,59.684,109.05,60.35,111.15z"/>
			<path style="fill-rule:evenodd;clip-rule:evenodd;fill:#00AF37;" d="M67.5,131.05c0.4,0.367,1,0.783,1.8,1.25
				c0,0.233-0.15,0.45-0.45,0.65c-0.534,0.366-1.434,0.399-2.7,0.1c-1.466-0.3-2.833-1.866-4.1-4.7
				c-1.233-2.666-1.95-5.483-2.15-8.449c-0.033-0.7,0.067-2.367,0.3-5c0.103-1.386,0.137-2.428,0.1-3.125l0.5,3.074
				c0.534,3.067,1.034,5.551,1.5,7.45c0.5,1.934,1.434,3.9,2.8,5.9C65.967,129.434,66.767,130.384,67.5,131.05z"/>
			<path style="fill-rule:evenodd;clip-rule:evenodd;fill:#70DD48;" d="M68.7,130.9l-0.45,0.8c-0.233,0.066-0.583-0.033-1.05-0.3
				c-0.9-0.567-1.95-1.733-3.15-3.5c-1.6-2.301-2.667-5.051-3.2-8.25c-0.4-3.634-0.733-6.334-1-8.101
				c-0.233-1.666-0.617-2.717-1.15-3.149c-0.4-0.334-0.8-0.25-1.2,0.25c-0.333,0.466-0.717,1.233-1.15,2.3
				c-0.2,0.533-0.383,1.017-0.55,1.45c-0.1,0.1-0.083-0.483,0.05-1.75c0.1-0.934,0.383-1.75,0.85-2.45
				c0.466-0.7,1.066-1.167,1.8-1.4c1.3-0.467,2.383,3.367,3.25,11.5c0.333,3.3,1.267,6.066,2.8,8.3
				C65.35,127.8,66.733,129.233,68.7,130.9z"/>
			<path style="fill-rule:evenodd;clip-rule:evenodd;fill:#00AF37;" d="M83.5,123.05c-0.367,2.033-1.583,4.283-3.65,6.75
				c-2.3,2.7-4.667,4.334-7.1,4.9c-2.167,0.533-4.167,0.25-6-0.851l-2.15-1.8l2.15-0.25c1.767-0.533,3.383-1.616,4.85-3.25
				c2.4-2.7,4.617-6.217,6.65-10.55c1.767-3.8,3.133-6.033,4.1-6.7c1.367-0.934,2.633-1,3.8-0.2c0.6,0.4,1.05,0.9,1.35,1.5
				l-1.65,3.4C84.65,118.667,83.867,121.017,83.5,123.05z"/>
			<path style="fill-rule:evenodd;clip-rule:evenodd;fill:#00972E;" d="M78.75,116.45c1.3-2.467,2.367-4.066,3.2-4.8
				c0.6-0.2,1.75-0.517,3.45-0.95c0.899,0.333,1.6,0.967,2.1,1.899l-1.65,3.4c-1.2,2.667-1.983,5.017-2.35,7.05
				s-1.583,4.283-3.65,6.75c-2.3,2.7-4.667,4.334-7.1,4.9c-2.733,0.7-5.167,0.116-7.3-1.75l-0.85-0.9l1.25,0.851
				c1.1,0.6,2.333,1,3.7,1.199c1.233,0.167,2.35,0.017,3.35-0.449c1.8-0.801,3.784-2.65,5.95-5.551c1.4-1.866,2.466-3.8,3.2-5.8
				c0.767-2.1,0.983-3.833,0.65-5.2c-0.3-1.3-0.917-1.733-1.85-1.3c-0.8,0.4-1.733,1.4-2.8,3
				C78.217,118.1,78.45,117.316,78.75,116.45z"/>
			<path style="fill-rule:evenodd;clip-rule:evenodd;fill:#00972E;" d="M89.15,109.1c2.1,1.7,2.866,4.534,2.3,8.5
				c-0.267,2-0.75,3.817-1.45,5.45c0.134-1,0.134-2.133,0-3.399c-0.233-2.567-0.95-4.551-2.15-5.95
				c-1.433-1.634-3.25-2.101-5.45-1.4l-2.9,1.601l3.15-3.7C85.117,108,87.283,107.634,89.15,109.1z"/>
			<path style="fill-rule:evenodd;clip-rule:evenodd;fill:#70DD48;" d="M82.7,112.75c-0.9,0.267-1.867,1.134-2.9,2.6
				c-0.566,0.801-1.316,2.467-2.25,5c-0.866,2.367-2.05,4.483-3.55,6.351c-2.167,2.733-4.383,4.45-6.65,5.149l-2.75,0.2l2.5-0.75
				c1.966-0.899,3.716-2.35,5.25-4.35c1.9-2.467,3.617-5.601,5.15-9.4c1.133-2.8,2.434-4.633,3.9-5.5
				c1.567-0.934,3.133-1.017,4.7-0.25c1.467,0.7,2.534,1.9,3.2,3.601c0.834,2.166,1.067,4.716,0.7,7.649c0-1.5-0.184-3.066-0.55-4.7
				c-0.733-3.199-2.017-5.017-3.851-5.449C84.3,112.6,83.333,112.55,82.7,112.75z"/>
			<path style="fill-rule:evenodd;clip-rule:evenodd;fill:#FFF4A4;" d="M66,115.95c1-0.2,1.85,0.083,2.55,0.85
				c0.634,0.7,0.9,1.5,0.8,2.4c-0.1,0.899-0.534,1.6-1.3,2.1c-0.8,0.566-1.65,0.566-2.55,0c-0.934-0.566-1.3-1.55-1.1-2.95
				C64.566,116.95,65.1,116.15,66,115.95z"/>
			<path style="fill-rule:evenodd;clip-rule:evenodd;fill:#FFF4A4;" d="M66.7,108.85c0.8-0.133,1.6,0.134,2.4,0.801
				c0.8,0.666,1.133,1.333,1,2c-0.1,0.733-0.55,1.283-1.35,1.649c-0.867,0.367-1.7,0.316-2.5-0.149c-0.8-0.5-1.1-1.317-0.9-2.45
				C65.55,109.6,66,108.983,66.7,108.85z"/>
			<path style="fill-rule:evenodd;clip-rule:evenodd;fill:#FFF4A4;" d="M67.15,102.2c0.867-0.566,1.85-0.717,2.95-0.45
				c1,0.267,1.566,0.667,1.7,1.2c0.167,0.633-0.017,1.3-0.55,2c-0.667,0.899-1.667,1.416-3,1.55c-1.367,0.134-2.133-0.4-2.3-1.6
				C65.816,103.767,66.217,102.866,67.15,102.2z"/>
			<path style="fill-rule:evenodd;clip-rule:evenodd;fill:#FFF4A4;" d="M67.95,95.05c1.066-0.566,2.05-0.633,2.95-0.2
				c0.867,0.4,1.184,1.067,0.95,2c-0.233,0.834-0.733,1.384-1.5,1.65c-0.567,0.2-1.4,0.233-2.5,0.1
				c-0.9-0.133-1.317-0.649-1.25-1.55C66.7,96.15,67.15,95.483,67.95,95.05z"/>
			<path style="fill-rule:evenodd;clip-rule:evenodd;fill:#FFF4A4;" d="M70.2,88.9c0.966-0.467,1.683-0.517,2.15-0.15
				c0.4,0.3,0.533,0.8,0.4,1.5c-0.3,1.134-1.283,1.65-2.95,1.55c-0.733-0.033-1.017-0.45-0.85-1.25
				C69.15,89.783,69.566,89.233,70.2,88.9z"/>
			<path style="fill-rule:evenodd;clip-rule:evenodd;fill:#FFF4A4;" d="M72.15,83.75c1.3-0.433,1.817-0.083,1.55,1.05
				s-0.917,1.717-1.95,1.75c-0.934,0.033-1.267-0.383-1-1.25C71.017,84.5,71.483,83.983,72.15,83.75z"/>
			<path style="fill-rule:evenodd;clip-rule:evenodd;fill:#FFF4A4;" d="M74.6,80.1c0.4-0.1,0.667,0.066,0.8,0.5
				c0.167,0.433-0.066,0.783-0.7,1.05c-0.634,0.233-0.967,0.083-1-0.45C73.7,80.633,74,80.267,74.6,80.1z"/>
			<path style="fill-rule:evenodd;clip-rule:evenodd;fill:#FFF4A4;" d="M76.35,76.25c0.433-0.4,0.667-0.233,0.7,0.5
				c0.034,0.733-0.25,1.383-0.85,1.95c-0.634,0.566-0.917,0.45-0.85-0.35C75.417,77.55,75.75,76.85,76.35,76.25z"/>
			<path style="fill-rule:evenodd;clip-rule:evenodd;fill:#FFEE6E;" d="M77.75,80c0.434-0.033,0.783,0.183,1.05,0.65
				c0.267,0.434,0.35,0.867,0.25,1.3c-0.133,0.733-0.683,0.833-1.65,0.3c-0.5-0.3-0.716-0.75-0.65-1.35
				C76.85,80.3,77.184,80,77.75,80z"/>
			<path style="fill-rule:evenodd;clip-rule:evenodd;fill:#FFEE6E;" d="M77.1,85.25c0.566,0.1,1,0.583,1.3,1.45
				c0.267,0.733,0.367,1.55,0.3,2.45c-0.067,0.833-0.567,1.283-1.5,1.35c-0.934,0.066-1.7-0.35-2.3-1.25s-0.6-1.833,0-2.8
				S76.233,85.083,77.1,85.25z"/>
			<path style="fill-rule:evenodd;clip-rule:evenodd;fill:#FFEE6E;" d="M74.15,94.6c0.867-1.033,1.817-1.199,2.85-0.5
				c0.867,0.567,1.367,1.267,1.5,2.101c0.133,0.666,0,1.233-0.4,1.7c-0.434,0.566-1.1,0.767-2,0.6
				c-0.867-0.134-1.517-0.717-1.95-1.75C73.75,95.783,73.75,95.066,74.15,94.6z"/>
			<path style="fill-rule:evenodd;clip-rule:evenodd;fill:#FFEE6E;" d="M74.25,102.4c0.8-0.2,1.566,0.116,2.3,0.949
				c0.7,0.801,0.917,1.551,0.65,2.25c-0.5,1.467-1.4,1.934-2.7,1.4c-0.7-0.267-1.033-1.083-1-2.45
				C73.5,103.25,73.75,102.533,74.25,102.4z"/>
			<path style="fill-rule:evenodd;clip-rule:evenodd;fill:#FFEE6E;" d="M73.45,110.75c0.533,0,1.1,0.4,1.7,1.2
				c0.567,0.767,0.817,1.399,0.75,1.899c-0.1,0.667-0.4,1.233-0.9,1.7c-0.633,0.601-1.283,0.65-1.95,0.15
				c-0.733-0.566-1.033-1.533-0.9-2.9C72.283,111.467,72.717,110.783,73.45,110.75z"/>
			<path style="fill-rule:evenodd;clip-rule:evenodd;fill:#F9DF51;" d="M82.1,85.05l0.6,0.2c0.4,0.3,0.616,0.95,0.65,1.95
				c0.033,1-0.184,1.717-0.65,2.149l-0.75,0.301c-0.067-0.301,0.017-0.817,0.25-1.551c0.133-0.466,0.15-1.116,0.05-1.949L82.1,85.05
				z"/>
			<path style="fill-rule:evenodd;clip-rule:evenodd;fill:#F9DF51;" d="M81.95,93.85c0.366-0.366,0.816-0.05,1.35,0.95
				c0.6,1.033,0.7,2.15,0.3,3.351c-0.367,1.1-0.85,1.566-1.45,1.399L81.35,99l0.45-1.7c0.2-0.733,0.284-1.533,0.25-2.399
				L81.95,93.85z"/>
			<path style="fill-rule:evenodd;clip-rule:evenodd;fill:#F9DF51;" d="M81.5,102.7l0.75,0.95c0.367,0.866,0.25,1.85-0.35,2.949
				c-0.566,1.134-1.133,1.684-1.7,1.65l-0.65-0.35l0.5-1C80.417,106.2,80.9,104.8,81.5,102.7z"/>
			<path style="fill-rule:evenodd;clip-rule:evenodd;fill:#F9DF51;" d="M83.6,104.7c0.367-0.934,0.6-0.783,0.7,0.45
				c0.1,1.233-0.066,2.133-0.5,2.699c-0.4,0.534-0.6,0.301-0.6-0.699C83.2,106.184,83.333,105.366,83.6,104.7z"/>
			<path style="fill-rule:evenodd;clip-rule:evenodd;fill:#F9DF51;" d="M84.35,98.3c0.167-0.833,0.367-0.916,0.6-0.25
				c0.233,0.634,0.217,1.25-0.05,1.851c-0.267,0.533-0.466,0.566-0.6,0.1C84.167,99.5,84.184,98.934,84.35,98.3z"/>
			<path style="fill-rule:evenodd;clip-rule:evenodd;fill:#F9DF51;" d="M83.8,89.05c0.167-0.467,0.317-0.467,0.45,0
				c0.167,0.467,0.167,0.816,0,1.05c-0.133,0.233-0.267,0.2-0.4-0.1S83.7,89.384,83.8,89.05z"/>
			<path style="fill-rule:evenodd;clip-rule:evenodd;fill:#F9DF51;" d="M81.95,79.1c0.566,0.667,0.75,1.45,0.55,2.35
				c-0.367,1.433-0.517,1.583-0.45,0.45c0-0.1-0.083-0.767-0.25-2C81.7,79.1,81.75,78.833,81.95,79.1z"/>
			<path style="fill-rule:evenodd;clip-rule:evenodd;fill:#F9DF51;" d="M80.65,75.4c0.233,0.067,0.367,0.367,0.4,0.9
				c0.067,0.534-0.017,0.817-0.25,0.85c-0.233,0.067-0.366-0.233-0.4-0.9C80.333,75.617,80.417,75.333,80.65,75.4z"/>
		</g>
		<g>
			<path style="fill-rule:evenodd;clip-rule:evenodd;fill:#F8E36F;" d="M105.2,69.9c0.8-1.133,1.533-1.75,2.2-1.85
				c0.666-0.066,1.116,0.267,1.35,1c0.1,0.367,0.134,0.75,0.1,1.15l1.5-2.45c1.2-1.567,2.284-2.2,3.25-1.9
				c0.934,0.3,1.434,0.967,1.5,2c0.067,0.5,0.018,0.967-0.149,1.4c-0.101-0.5-0.3-0.933-0.601-1.3c-0.566-0.767-1.267-0.867-2.1-0.3
				c-0.833,0.6-1.684,1.6-2.55,3L108.6,72.6l1.301-0.65c0.833-0.133,1.066,0.533,0.699,2c-0.566,2.367-1.216,3.816-1.949,4.35
				c0.366-0.8,0.649-1.566,0.85-2.3c0.4-1.467,0.2-2.067-0.6-1.8c-0.801,0.3-1.667,1.1-2.601,2.4l-1.1,1.9l1.1-3.7
				c0.434-1.066,0.767-2.083,1-3.05c0.5-1.967,0.317-2.75-0.55-2.35c-0.9,0.367-1.6,0.833-2.1,1.4L105.2,69.9z"/>
			<path style="fill-rule:evenodd;clip-rule:evenodd;fill:#FFFAD8;" d="M109.65,64.45c0.433,0.533,0.467,1.65,0.1,3.35l-0.9,4.05
				l1.2-1.45c0.867-0.867,1.5-1.033,1.9-0.5l1,1.3c-0.2-0.1-0.483-0.15-0.851-0.15c-0.699-0.033-1.366,0.184-2,0.65l-1.6,1.1
				l0.15,1.2c0.066,0.967-0.084,1.883-0.45,2.75L107.1,79.5c0.301-0.933,0.534-1.833,0.7-2.7c0.367-1.733,0.233-2.466-0.399-2.2
				c-0.601,0.267-0.75,0.083-0.45-0.55L107.6,73c0.601-1.7,1.034-2.983,1.301-3.85c0.5-1.467,0.649-2.566,0.449-3.3l-0.449-1.7
				L109.65,64.45z"/>
			<path style="fill-rule:evenodd;clip-rule:evenodd;fill:#007120;" d="M73.15,105.9c0.034-0.534-0.083-1.084-0.35-1.65l-0.4-0.7
				c-0.2-0.066-0.333-0.149-0.4-0.25c-0.167-0.233,0.083-0.416,0.75-0.55c0.934-0.2,1.934,0.217,3,1.25
				c1.233,1.2,1.917,2.767,2.05,4.7c-2.966,5.934-4.65,8.983-5.05,9.149c-0.333,0.101-0.566-0.1-0.7-0.6
				c-0.2-0.533-0.25-1.384-0.15-2.55C72.667,109.634,73.083,106.7,73.15,105.9z"/>
			<path style="fill-rule:evenodd;clip-rule:evenodd;fill:#F9DF51;" d="M94.4,80.7c5.633-5.367,9.533-7.784,11.699-7.25
				c2.567,0.633,3.233,5.8,2,15.5c-1.199,9.3-3.25,17.017-6.149,23.149c-4.233,8.934-8.667,15.634-13.3,20.101
				c-5.101,4.934-9.617,6.267-13.55,4c-7.934-4.5-6.133-17.117,5.4-37.851C84,92.083,88.634,86.2,94.4,80.7z"/>
			<path style="fill-rule:evenodd;clip-rule:evenodd;fill:#EBAD3A;" d="M102.9,74.2l-0.4,0.75c-0.4,0.367-1.133,0.783-2.2,1.25
				c-0.633,0.3-1.149,0.833-1.55,1.6l-0.4,1c-1.133,0.4-2.333,1.15-3.6,2.25c-0.8,0.7-1.533,1.55-2.2,2.55l-0.75,1.35L89.15,87
				c-0.7,0.533-1.367,1.35-2,2.45l-0.7,1.5L83.7,93.85c-0.767,0.801-1.333,1.867-1.7,3.2c-0.2,0.667-0.316,1.25-0.35,1.75l-1.1,1.65
				c-0.433,0.7-0.95,1.75-1.55,3.149c-0.3,0.733-0.55,1.384-0.75,1.95l-1.8,2.55c-0.567,0.801-0.767,1.9-0.6,3.301
				c0.1,0.733,0.25,1.366,0.45,1.899l-1.3,0.8c-0.6,0.367-1.1,1.334-1.5,2.9c-0.3,1.3-0.5,2.75-0.6,4.35
				c-0.066,1.5,0.467,2.75,1.6,3.75c1.267,1.034,2.65,1.167,4.15,0.4c1.367-0.7,2.5-1.733,3.4-3.1c0.467-0.7,0.784-1.334,0.95-1.9
				l2.15-0.15c1.633-0.333,2.933-1.066,3.899-2.199c0.967-1.134,1.567-2.534,1.8-4.2v-2.101l0.9-0.1c0.833-0.4,1.8-1.45,2.9-3.15
				c1.1-1.699,1.683-3.3,1.75-4.8l-0.2-1.75l0.899,0.2c0.733-0.134,1.45-0.884,2.15-2.25s1.033-2.866,1-4.5L100,93.45l0.95-0.3
				c0.767-0.467,1.5-1.317,2.2-2.551c0.699-1.233,0.933-2.5,0.699-3.8l-0.55-1.6c0.867-0.1,1.65-0.867,2.351-2.3
				c0.433-0.867,0.517-1.816,0.25-2.85l-0.551-1.25l0.45-0.05c0.3-0.233,0.467-0.9,0.5-2c0-1.4-0.2-2.5-0.6-3.3h0.399
				c2.567,0.633,3.233,5.8,2,15.5c-1.199,9.3-3.25,17.017-6.149,23.149c-4.233,8.934-8.667,15.634-13.3,20.101
				c-5.101,4.934-9.617,6.267-13.55,4c-7.934-4.5-6.133-17.117,5.4-37.851c2.867-5.066,6.6-10.033,11.2-14.899
				C96.066,78.783,99.8,75.7,102.9,74.2z"/>
			<path style="fill-rule:evenodd;clip-rule:evenodd;fill:#00972E;" d="M73.25,108.1c-0.7-1.399-1.816-1.85-3.35-1.35l-2.05,1.15
				l0.9-1.351c0.633-1,1.133-1.649,1.5-1.95c1.5-1.433,2.383-1.833,2.65-1.199C73.133,104,73.25,105.566,73.25,108.1z"/>
			<path style="fill-rule:evenodd;clip-rule:evenodd;fill:#00AF37;" d="M73,108.475l-0.55,3.775c-0.5,3.467-0.833,6.3-1,8.5
				c-0.167,2.267,0.15,4.717,0.95,7.35c0.5,1.601,1.034,2.9,1.6,3.9c0.3,0.5,0.783,1.15,1.45,1.95c-0.1,0.267-0.333,0.45-0.7,0.55
				c-0.7,0.233-1.684-0.033-2.95-0.8c-1.466-0.834-2.383-3-2.75-6.5c-0.4-3.334-0.183-6.601,0.65-9.8c0.2-0.834,0.866-2.617,2-5.351
				C72.372,110.429,72.805,109.237,73,108.475z"/>
			<path style="fill-rule:evenodd;clip-rule:evenodd;fill:#70DD48;" d="M72.55,108.35c0.333-1.866,0.284-3.133-0.15-3.8
				c-0.3-0.533-0.75-0.583-1.35-0.149c-0.533,0.399-1.233,1.1-2.1,2.1l-1.1,1.4c-0.133,0.066,0.1-0.567,0.7-1.9
				c0.934-2.1,2.333-3.184,4.2-3.25c0.867-0.033,1.233,1.15,1.1,3.55c-0.133,2.134-0.684,5.45-1.65,9.95c-0.8,3.7-0.767,7,0.1,9.9
				c0.5,1.666,1.517,3.683,3.05,6.05l-0.75,0.75c-0.267,0-0.6-0.233-1-0.7c-0.833-0.934-1.583-2.55-2.25-4.85
				c-0.9-3.034-1.1-6.367-0.6-10C71.617,113.366,72.217,110.35,72.55,108.35z"/>
			<path style="fill-rule:evenodd;clip-rule:evenodd;fill:#00AF37;" d="M99,121.9c-2.2,2.5-3.85,4.783-4.95,6.85
				c-1.1,2.1-3.2,4.116-6.3,6.05c-3.434,2.134-6.566,3.101-9.4,2.9c-2.534-0.167-4.6-1.15-6.2-2.95l-1.7-2.65l2.45,0.45
				c2.067,0.033,4.184-0.583,6.35-1.85c3.566-2.101,7.217-5.15,10.95-9.15c3.233-3.5,5.483-5.45,6.75-5.85
				c1.8-0.566,3.184-0.217,4.149,1.05c0.467,0.634,0.768,1.316,0.9,2.05C101.134,119.634,100.134,120.667,99,121.9z"/>
			<path style="fill-rule:evenodd;clip-rule:evenodd;fill:#00972E;" d="M95.3,122.05c0.134-1.533-0.383-2.2-1.55-2
				c-1,0.134-2.366,0.9-4.1,2.3l1.6-2.35c2.2-2.2,3.9-3.566,5.1-4.1c1.167,0,2.518,0.066,4.051,0.199
				c0.866,0.634,1.399,1.534,1.6,2.7c-0.866,0.834-1.866,1.867-3,3.101c-2.2,2.5-3.85,4.783-4.95,6.85c-1.1,2.1-3.2,4.116-6.3,6.05
				c-3.434,2.134-6.566,3.101-9.4,2.9c-3.233-0.2-5.65-1.65-7.25-4.351l-0.65-1.25l1.1,1.351c1,1.033,2.184,1.866,3.55,2.5
				c1.267,0.6,2.517,0.833,3.75,0.7c2.233-0.301,5.05-1.65,8.45-4.051c2.134-1.533,3.95-3.25,5.45-5.149
				C94.316,125.417,95.167,123.616,95.3,122.05z"/>
			<path style="fill-rule:evenodd;clip-rule:evenodd;fill:#00972E;" d="M105,115.6c1.7,2.534,1.566,5.851-0.4,9.95
				c-1,2.066-2.166,3.867-3.5,5.4c0.467-1.033,0.867-2.267,1.2-3.7c0.601-2.833,0.5-5.217-0.3-7.15
				c-0.967-2.233-2.767-3.333-5.4-3.3l-3.699,0.7l4.699-2.95C101.033,113.05,103.5,113.4,105,115.6z"/>
			<path style="fill-rule:evenodd;clip-rule:evenodd;fill:#70DD48;" d="M88.55,123.85c-1.767,2.233-3.783,4.117-6.05,5.65
				c-3.3,2.2-6.3,3.3-9,3.3l-3.05-0.7l3,0.051c2.466-0.301,4.866-1.267,7.2-2.9c2.934-2.033,5.883-4.85,8.85-8.45
				c2.2-2.666,4.25-4.217,6.15-4.649c2.033-0.467,3.767-0.017,5.199,1.35c1.334,1.267,2.051,2.934,2.15,5
				c0.1,1.634-0.184,3.533-0.85,5.7c-0.334,1.066-0.684,1.983-1.051,2.75c0.534-1.634,0.884-3.367,1.051-5.2
				c0.3-3.7-0.467-6.1-2.301-7.2c-1.3-0.8-2.316-1.2-3.05-1.2c-1.066,0-2.416,0.617-4.05,1.851
				C91.85,119.866,90.45,121.417,88.55,123.85z"/>
			<path style="fill-rule:evenodd;clip-rule:evenodd;fill:#FFF4A4;" d="M77.65,115.2c1.133,0.1,1.95,0.684,2.45,1.75
				c0.466,1,0.483,1.95,0.05,2.85c-0.466,0.934-1.183,1.55-2.15,1.851c-1.1,0.333-2.033,0.05-2.8-0.851
				c-0.767-0.934-0.8-2.133-0.1-3.6C75.767,115.767,76.617,115.1,77.65,115.2z"/>
			<path style="fill-rule:evenodd;clip-rule:evenodd;fill:#FFF4A4;" d="M80.85,107.75c0.933,0.134,1.716,0.7,2.35,1.7
				c0.633,0.967,0.767,1.8,0.4,2.5c-0.367,0.733-1.05,1.166-2.05,1.3c-1.066,0.134-1.95-0.2-2.65-1c-0.7-0.8-0.75-1.783-0.15-2.95
				C79.35,108.167,80.05,107.65,80.85,107.75z"/>
			<path style="fill-rule:evenodd;clip-rule:evenodd;fill:#FFF4A4;" d="M83.7,100.75c1.133-0.333,2.25-0.167,3.35,0.5
				c0.967,0.6,1.434,1.217,1.4,1.85c-0.033,0.733-0.467,1.4-1.3,2c-1.033,0.733-2.284,0.95-3.75,0.65
				c-1.533-0.333-2.183-1.167-1.95-2.5C81.717,101.95,82.467,101.116,83.7,100.75z"/>
			<path style="fill-rule:evenodd;clip-rule:evenodd;fill:#FFF4A4;" d="M87.05,93.25c1.334-0.233,2.417,0.017,3.25,0.75
				c0.834,0.733,0.95,1.566,0.351,2.5c-0.533,0.833-1.267,1.267-2.2,1.3c-0.667,0-1.583-0.25-2.75-0.75
				c-0.934-0.434-1.2-1.133-0.8-2.1C85.3,94.017,86.017,93.45,87.05,93.25z"/>
			<path style="fill-rule:evenodd;clip-rule:evenodd;fill:#FFF4A4;" d="M91.65,87.4c1.199-0.2,2-0.017,2.399,0.55
				c0.334,0.467,0.283,1.05-0.149,1.75c-0.667,1.166-1.9,1.399-3.7,0.7c-0.767-0.301-0.917-0.851-0.45-1.65
				C90.184,87.983,90.816,87.533,91.65,87.4z"/>
			<path style="fill-rule:evenodd;clip-rule:evenodd;fill:#FFF4A4;" d="M95.55,82.5c1.533-0.033,1.967,0.517,1.3,1.65
				c-0.666,1.133-1.566,1.533-2.699,1.2c-1.033-0.267-1.25-0.817-0.65-1.65C94.033,82.9,94.717,82.5,95.55,82.5z"/>
			<path style="fill-rule:evenodd;clip-rule:evenodd;fill:#FFF4A4;" d="M99.45,79.35c0.5,0,0.733,0.267,0.7,0.8
				c0,0.567-0.367,0.867-1.101,0.9c-0.8,0.067-1.1-0.216-0.899-0.85C98.316,79.6,98.75,79.317,99.45,79.35z"/>
			<path style="fill-rule:evenodd;clip-rule:evenodd;fill:#FFF4A4;" d="M102.7,75.8c0.6-0.267,0.783,0,0.55,0.8
				c-0.2,0.8-0.717,1.4-1.55,1.8c-0.9,0.4-1.167,0.167-0.8-0.7C101.267,76.867,101.867,76.233,102.7,75.8z"/>
			<path style="fill-rule:evenodd;clip-rule:evenodd;fill:#FFEE6E;" d="M102.9,80.3c0.467,0.133,0.767,0.5,0.899,1.1
				c0.134,0.533,0.084,1.017-0.149,1.45c-0.467,0.733-1.101,0.65-1.9-0.25c-0.467-0.467-0.55-1.017-0.25-1.65
				C101.8,80.35,102.267,80.133,102.9,80.3z"/>
			<path style="fill-rule:evenodd;clip-rule:evenodd;fill:#FFEE6E;" d="M100.35,85.8c0.601,0.3,0.9,0.967,0.9,2
				c0.033,0.9-0.15,1.816-0.55,2.75c-0.367,0.867-1.05,1.167-2.05,0.9c-1.033-0.233-1.717-0.934-2.051-2.101
				c-0.366-1.166-0.05-2.166,0.95-3C98.517,85.517,99.45,85.333,100.35,85.8z"/>
			<path style="fill-rule:evenodd;clip-rule:evenodd;fill:#FFEE6E;" d="M93.9,94.85c1.3-0.8,2.383-0.649,3.25,0.45
				c0.699,0.934,1,1.867,0.899,2.8c-0.1,0.767-0.45,1.334-1.05,1.7c-0.667,0.467-1.45,0.467-2.35,0c-0.9-0.5-1.4-1.366-1.5-2.6
				C93.083,96,93.333,95.217,93.9,94.85z"/>
			<path style="fill-rule:evenodd;clip-rule:evenodd;fill:#FFEE6E;" d="M91.3,103.35c0.934,0.034,1.634,0.634,2.101,1.801
				c0.5,1.1,0.5,1.983,0,2.649c-0.533,0.7-1.067,1.117-1.601,1.25c-0.566,0.134-1.2-0.083-1.899-0.649
				c-0.667-0.567-0.733-1.567-0.2-3C90.167,104,90.7,103.316,91.3,103.35z"/>
			<path style="fill-rule:evenodd;clip-rule:evenodd;fill:#FFEE6E;" d="M87.5,112.1c0.6,0.167,1.066,0.784,1.4,1.851
				c0.333,1.033,0.383,1.8,0.149,2.3c-0.333,0.667-0.866,1.184-1.6,1.55c-0.867,0.434-1.566,0.267-2.101-0.5
				c-0.6-0.866-0.583-2,0.051-3.399C86,112.5,86.7,111.9,87.5,112.1z"/>
			<path style="fill-rule:evenodd;clip-rule:evenodd;fill:#F9DF51;" d="M105.8,87.25l0.601,0.4c0.333,0.5,0.35,1.283,0.05,2.35
				c-0.3,1.1-0.8,1.783-1.5,2.05l-0.9,0.101c0-0.067,0.033-0.2,0.101-0.4c0.166-0.333,0.399-0.733,0.699-1.2
				C105.35,89.85,105.667,88.75,105.8,87.25z"/>
			<path style="fill-rule:evenodd;clip-rule:evenodd;fill:#F9DF51;" d="M102.6,96.7c0.534-0.267,0.917,0.233,1.15,1.5
				c0.233,1.333-0.066,2.566-0.9,3.7c-0.732,1.066-1.399,1.416-2,1.05l-0.699-0.9l1.1-1.7C101.95,99.217,102.4,98,102.6,96.7z"/>
			<path style="fill-rule:evenodd;clip-rule:evenodd;fill:#F9DF51;" d="M99,106.1l0.45,1.301c0.1,1.033-0.367,2.05-1.4,3.05
				c-1.033,1.033-1.833,1.434-2.399,1.2l-0.601-0.601L96,110.15C96.634,109.517,97.634,108.167,99,106.1z"/>
			<path style="fill-rule:evenodd;clip-rule:evenodd;fill:#F9DF51;" d="M100.55,108.95c0.7-0.834,0.9-0.566,0.601,0.8
				c-0.301,1.333-0.783,2.233-1.45,2.7c-0.634,0.434-0.767,0.116-0.4-0.95C99.6,110.467,100.017,109.616,100.55,108.95z"/>
			<path style="fill-rule:evenodd;clip-rule:evenodd;fill:#F9DF51;" d="M103.6,102.35c0.5-0.833,0.768-0.866,0.801-0.1
				s-0.217,1.417-0.75,1.95c-0.5,0.533-0.733,0.517-0.7-0.05C103.017,103.616,103.233,103.017,103.6,102.35z"/>
			<path style="fill-rule:evenodd;clip-rule:evenodd;fill:#F9DF51;" d="M106.4,93.45c-0.267,0.2-0.4,0.116-0.4-0.25
				c-0.033-0.367,0.066-0.717,0.3-1.05c0.334-0.434,0.5-0.384,0.5,0.149C106.767,92.833,106.634,93.217,106.4,93.45z"/>
			<path style="fill-rule:evenodd;clip-rule:evenodd;fill:#F9DF51;" d="M107.75,80.8c0.4,0.934,0.333,1.817-0.2,2.65
				c-0.8,1.3-1.033,1.433-0.7,0.4c0.067-0.167,0.217-0.917,0.45-2.25C107.467,80.7,107.617,80.433,107.75,80.8z"/>
			<path style="fill-rule:evenodd;clip-rule:evenodd;fill:#F9DF51;" d="M107.75,77.45c-0.133,0.6-0.333,0.883-0.6,0.85
				c-0.267-0.033-0.301-0.4-0.101-1.1c0.167-0.7,0.367-0.983,0.601-0.85C107.85,76.517,107.884,76.883,107.75,77.45z"/>
		</g>
	</g>
	<g>
		<g>
			<g>
				<g>
					<g>
						<g>
							<g>
								<g>
									<g>
										
											<linearGradient id="SVGID_11_" gradientUnits="userSpaceOnUse" x1="-83.8477" y1="33.7783" x2="-50.9528" y2="33.7783" gradientTransform="matrix(-0.1771 -0.9842 0.9842 -0.1771 -2.934337e-004 -2.042651e-004)">
											<stop  offset="0.3569" style="stop-color:#658234"/>
											<stop  offset="0.4627" style="stop-color:#759B44"/>
											<stop  offset="0.6314" style="stop-color:#94CC63"/>
											<stop  offset="0.9647" style="stop-color:#D9E480"/>
										</linearGradient>
										<path style="fill-rule:evenodd;clip-rule:evenodd;fill:url(#SVGID_11_);" d="M56.65,43.25c1.1,1.233,1.4,2.9,0.9,5
											c-0.3,1.133-0.8,2.317-1.5,3.55c-1.6,2.833-3.45,4.8-5.55,5.9l-0.45,0.15l-0.1,0.05l-0.55,1.85
											c-1.033,3.167-2.466,5.45-4.3,6.85l-0.2,0.15c0.034,0.333,0.05,1.067,0.05,2.2c-0.1,3.333-0.817,5.933-2.15,7.8l-0.6,0.6
											c-0.233,0.2-0.534,0.35-0.9,0.45c-0.4,0.1-0.8,0.1-1.2,0c-0.967-0.267-1.767-0.767-2.4-1.5l-1.15,0.65l-0.25,0.1
											c-0.8,0.167-1.5,0.017-2.1-0.45c-1.233-0.934-1.9-2.35-2-4.25c-0.1-1.434,0.1-2.9,0.6-4.4
											c0.833-2.034,2.034-3.684,3.6-4.95c-0.5-1.2-0.517-2.6-0.05-4.2c0.4-1.267,0.983-2.433,1.75-3.5
											c1.233-1.566,2.716-2.75,4.45-3.55c-0.033-1.167,0.317-2.417,1.05-3.75c0.6-1.033,1.333-1.95,2.2-2.75
											c1.233-1.067,2.667-1.867,4.3-2.4c1.6-0.5,3.1-0.65,4.5-0.45c0.8-0.033,1.466,0.233,2,0.8L56.65,43.25z"/>
										<path style="fill-rule:evenodd;clip-rule:evenodd;fill:none;stroke:#DCF1A5;stroke-width:0.25;" d="M56.65,43.25
											L56.6,43.2c-0.534-0.567-1.2-0.833-2-0.8c-1.4-0.2-2.9-0.05-4.5,0.45c-1.633,0.533-3.067,1.333-4.3,2.4
											c-0.866,0.8-1.6,1.717-2.2,2.75c-0.733,1.333-1.083,2.583-1.05,3.75c-1.733,0.8-3.216,1.983-4.45,3.55
											c-0.767,1.067-1.35,2.233-1.75,3.5c-0.467,1.6-0.45,3,0.05,4.2c-1.566,1.267-2.767,2.917-3.6,4.95
											c-0.5,1.5-0.7,2.966-0.6,4.4c0.1,1.9,0.767,3.316,2,4.25c0.6,0.467,1.3,0.617,2.1,0.45l0.25-0.1l1.15-0.65
											c0.633,0.733,1.433,1.233,2.4,1.5c0.4,0.1,0.8,0.1,1.2,0c0.367-0.1,0.667-0.25,0.9-0.45l0.6-0.6
											c1.333-1.867,2.05-4.467,2.15-7.8c0-1.133-0.017-1.867-0.05-2.2l0.2-0.15c1.833-1.4,3.267-3.684,4.3-6.85l0.55-1.85
											l0.1-0.05l0.45-0.15c2.1-1.1,3.95-3.067,5.55-5.9c0.7-1.233,1.2-2.417,1.5-3.55C58.05,46.15,57.75,44.483,56.65,43.25z"/>
									</g>
								</g>
								<path style="fill-rule:evenodd;clip-rule:evenodd;fill:#174718;" d="M55.35,44.4c0.667,0.733,0.85,1.817,0.55,3.25
									c-0.233,1.067-0.667,2.15-1.3,3.25c-1.467,2.6-3.083,4.35-4.85,5.25l-0.2,0.05H49.5l-0.1,0.05c-0.267,0-0.466-0.067-0.6-0.2
									l-0.35-0.35c0,1-0.217,2.15-0.65,3.45c-0.9,2.8-2.15,4.833-3.75,6.1L43.9,65.3l-0.1,0.1h-0.1
									c-0.233,0.067-0.434,0.05-0.6-0.05l-0.3-0.25c0.4,1.2,0.534,2.45,0.4,3.75c0,2.933-0.6,5.233-1.8,6.9l-0.2,0.15L41.15,76
									l-0.25,0.1c-0.133,0.033-0.267,0.033-0.4,0c-1-0.267-1.833-1.083-2.5-2.45c-0.7,0.767-1.3,1.3-1.8,1.6l-0.25,0.1H35.9
									c-0.267,0.066-0.483,0.033-0.65-0.1c-0.9-0.7-1.35-1.8-1.35-3.3c-0.033-1.133,0.15-2.267,0.55-3.4
									c0.984-2.427,2.5-4.177,4.55-5.25h-0.1c-0.233,0-0.433-0.117-0.6-0.35c-0.633-0.867-0.75-2.034-0.35-3.5
									c0.3-1.1,0.8-2.133,1.5-3.1c1.366-1.733,3.066-2.9,5.1-3.5V52.8c-0.466-1-0.35-2.183,0.35-3.55c0.5-1,1.184-1.917,2.05-2.75
									c1.1-0.933,2.35-1.617,3.75-2.05c1.4-0.434,2.683-0.534,3.85-0.3l0.05-0.05C54.934,44.033,55.184,44.133,55.35,44.4z"/>
								<g>
									<g>
										<g>
											<g>
												<g>
													<g>
														<g>
															
																<linearGradient id="SVGID_12_" gradientUnits="userSpaceOnUse" x1="-10.7007" y1="70.0801" x2="0.9703" y2="70.0801" gradientTransform="matrix(0.6469 -0.7626 0.7626 0.6469 -7.939339e-005 9.298325e-005)">
																<stop  offset="0.2275" style="stop-color:#5DD948"/>
																<stop  offset="0.6392" style="stop-color:#62AE3D"/>
																<stop  offset="0.9255" style="stop-color:#64953A"/>
															</linearGradient>
															<path style="fill-rule:evenodd;clip-rule:evenodd;fill:url(#SVGID_12_);" d="M54.45,44.9
																c0.233,0.733-0.017,1.617-0.75,2.65c-0.634,0.833-1.384,1.55-2.25,2.15c-2.267,1.733-4.317,2.667-6.15,2.8
																c0.2-0.267,0.717-0.883,1.55-1.85c0.867-0.967,1.483-1.717,1.85-2.25C50.3,46.333,52.217,45.167,54.45,44.9z"/>
															<path style="fill-rule:evenodd;clip-rule:evenodd;fill:#E8F7BC;" d="M45.25,52.5c-0.367-0.767-0.267-1.717,0.3-2.85
																c0.434-0.933,1.083-1.8,1.95-2.6c1-0.833,2.117-1.45,3.35-1.85c1.3-0.434,2.5-0.534,3.6-0.3
																c-0.867,0.1-1.733,0.483-2.6,1.15c-0.5,0.367-1.217,1.034-2.15,2C48,50.05,46.517,51.533,45.25,52.5z"/>
														</g>
														<g>
															
																<linearGradient id="SVGID_13_" gradientUnits="userSpaceOnUse" x1="-38.5176" y1="65.082" x2="-26.8467" y2="65.082" gradientTransform="matrix(0.2936 -0.9559 0.9559 0.2936 1.399517e-004 -4.690886e-004)">
																<stop  offset="0.2275" style="stop-color:#5DD948"/>
																<stop  offset="0.6392" style="stop-color:#62AE3D"/>
																<stop  offset="0.9255" style="stop-color:#64953A"/>
															</linearGradient>
															<path style="fill-rule:evenodd;clip-rule:evenodd;fill:url(#SVGID_13_);" d="M54.8,44.9
																c0.5,0.567,0.617,1.483,0.35,2.75c-0.233,0.934-0.633,1.883-1.2,2.85c-1.5,2.533-3.017,4.183-4.55,4.95
																c0.067-0.333,0.3-1.1,0.7-2.3c0.4-1.233,0.667-2.15,0.8-2.75C51.566,47.8,52.867,45.967,54.8,44.9z"/>
															<path style="fill-rule:evenodd;clip-rule:evenodd;fill:#E8F7BC;" d="M49.3,55.5c-0.633-0.567-0.917-1.483-0.85-2.75
																c0.066-1.033,0.333-2.083,0.8-3.15c0.566-1.167,1.35-2.184,2.35-3.05c1.033-0.867,2.1-1.433,3.2-1.7
																c-0.767,0.467-1.417,1.183-1.95,2.15c-0.3,0.533-0.7,1.433-1.2,2.7C50.85,52.2,50.066,54.133,49.3,55.5z"/>
														</g>
													</g>
												</g>
											</g>
										</g>
									</g>
									<g>
										<g>
											<g>
												<g>
													<g>
														<g>
															
																<linearGradient id="SVGID_14_" gradientUnits="userSpaceOnUse" x1="-35.667" y1="66.0537" x2="-23.9946" y2="66.0537" gradientTransform="matrix(0.4862 -0.8739 0.8739 0.4862 5.801320e-004 6.324053e-005)">
																<stop  offset="0.2275" style="stop-color:#5DD948"/>
																<stop  offset="0.6392" style="stop-color:#62AE3D"/>
																<stop  offset="0.9255" style="stop-color:#64953A"/>
															</linearGradient>
															<path style="fill-rule:evenodd;clip-rule:evenodd;fill:url(#SVGID_14_);" d="M46.5,53.3
																c0.367,0.667,0.283,1.583-0.25,2.75c-0.434,0.9-1.017,1.75-1.75,2.55c-1.967,2.167-3.8,3.467-5.5,3.9
																c1.233-2.033,2.083-3.583,2.55-4.65C42.75,55.483,44.4,53.967,46.5,53.3z"/>
															<path style="fill-rule:evenodd;clip-rule:evenodd;fill:#E8F7BC;" d="M38.95,62.5c-0.5-0.667-0.583-1.6-0.25-2.8
																c0.267-1.034,0.733-2,1.4-2.9c0.8-1.033,1.783-1.867,2.95-2.5c1.167-0.667,2.317-1,3.45-1
																c-0.833,0.267-1.617,0.817-2.35,1.65c-0.4,0.433-0.966,1.233-1.7,2.4C41.15,59.65,39.983,61.367,38.95,62.5z"/>
														</g>
														<g>
															
																<linearGradient id="SVGID_15_" gradientUnits="userSpaceOnUse" x1="-59.8306" y1="51.5781" x2="-48.1438" y2="51.5781" gradientTransform="matrix(0.1027 -0.9947 0.9947 0.1027 -4.308671e-004 -1.664609e-004)">
																<stop  offset="0.2275" style="stop-color:#5DD948"/>
																<stop  offset="0.6392" style="stop-color:#62AE3D"/>
																<stop  offset="0.9255" style="stop-color:#64953A"/>
															</linearGradient>
															<path style="fill-rule:evenodd;clip-rule:evenodd;fill:url(#SVGID_15_);" d="M46.85,53.2
																c0.6,0.466,0.883,1.35,0.85,2.65c-0.034,1-0.233,2.017-0.6,3.05c-0.934,2.733-2.1,4.65-3.5,5.75
																c0-0.367,0.083-1.167,0.25-2.4c0.167-1.333,0.25-2.3,0.25-2.9C44.267,56.75,45.184,54.7,46.85,53.2z"/>
															<path style="fill-rule:evenodd;clip-rule:evenodd;fill:#E8F7BC;" d="M43.5,64.7c-0.7-0.434-1.15-1.267-1.35-2.5
																c-0.167-1.067-0.117-2.15,0.15-3.25c0.367-1.267,0.95-2.417,1.75-3.45c0.8-1.067,1.717-1.833,2.75-2.3
																c-0.667,0.6-1.167,1.417-1.5,2.45c-0.2,0.6-0.4,1.567-0.6,2.9C44.367,61.25,43.967,63.3,43.5,64.7z"/>
														</g>
													</g>
												</g>
											</g>
										</g>
									</g>
									<g>
										<g>
											<g>
												<g>
													<g>
														<g>
															
																<linearGradient id="SVGID_16_" gradientUnits="userSpaceOnUse" x1="-65.0537" y1="52.6484" x2="-53.3774" y2="52.6484" gradientTransform="matrix(0.2163 -0.9763 0.9763 0.2163 3.439188e-004 -3.251433e-005)">
																<stop  offset="0.2275" style="stop-color:#5DD948"/>
																<stop  offset="0.6392" style="stop-color:#62AE3D"/>
																<stop  offset="0.9255" style="stop-color:#64953A"/>
															</linearGradient>
															<path style="fill-rule:evenodd;clip-rule:evenodd;fill:url(#SVGID_16_);" d="M40.3,63.6c0.6,0.533,0.8,1.433,0.6,2.7
																c-0.167,1.034-0.5,2.017-1,2.95c-1.233,2.667-2.6,4.45-4.1,5.35c0.034-0.4,0.2-1.184,0.5-2.35
																c0.333-1.333,0.534-2.283,0.6-2.85C37.3,66.833,38.434,64.9,40.3,63.6z"/>
															<path style="fill-rule:evenodd;clip-rule:evenodd;fill:#E8F7BC;" d="M35.7,74.6c-0.667-0.5-1.017-1.383-1.05-2.65
																c-0.033-1.067,0.133-2.117,0.5-3.15c0.467-1.2,1.167-2.283,2.1-3.25c0.934-0.966,1.95-1.617,3.05-1.95
																c-0.733,0.5-1.333,1.25-1.8,2.25c-0.267,0.6-0.566,1.533-0.9,2.8C36.967,71.317,36.333,73.3,35.7,74.6z"/>
														</g>
														<g>
															
																<linearGradient id="SVGID_17_" gradientUnits="userSpaceOnUse" x1="-81.6602" y1="27.4541" x2="-69.9762" y2="27.4541" gradientTransform="matrix(-0.1883 -0.9821 0.9821 -0.1883 1.097322e-004 3.510714e-004)">
																<stop  offset="0.2275" style="stop-color:#5DD948"/>
																<stop  offset="0.6392" style="stop-color:#62AE3D"/>
																<stop  offset="0.9255" style="stop-color:#64953A"/>
															</linearGradient>
															<path style="fill-rule:evenodd;clip-rule:evenodd;fill:url(#SVGID_17_);" d="M40.6,63.45
																c0.733,0.267,1.267,1.017,1.6,2.25c0.233,0.966,0.316,2,0.25,3.1c-0.067,2.867-0.634,5.034-1.7,6.5
																c-0.367-2.333-0.7-4.066-1-5.2C39.117,67.533,39.4,65.317,40.6,63.45z"/>
															<path style="fill-rule:evenodd;clip-rule:evenodd;fill:#E8F7BC;" d="M40.7,75.35c-0.8-0.2-1.467-0.867-2-2
																c-0.434-0.967-0.7-2.017-0.8-3.15c-0.033-1.3,0.2-2.55,0.7-3.75c0.466-1.267,1.133-2.267,2-3
																c-0.467,0.767-0.717,1.683-0.75,2.75c-0.034,0.667,0.033,1.65,0.2,2.95C40.517,71.617,40.733,73.683,40.7,75.35z"/>
														</g>
													</g>
												</g>
											</g>
										</g>
									</g>
								</g>
							</g>
						</g>
					</g>
				</g>
			</g>
		</g>
		<g>
			<g>
				<g>
					<g>
						<g>
							<g>
								<g>
									<g>
										<linearGradient id="SVGID_18_" gradientUnits="userSpaceOnUse" x1="130.8008" y1="44.6797" x2="120.6008" y2="75.9547">
											<stop  offset="0.3569" style="stop-color:#658234"/>
											<stop  offset="0.4627" style="stop-color:#759B44"/>
											<stop  offset="0.6314" style="stop-color:#94CC63"/>
											<stop  offset="0.9647" style="stop-color:#D9E480"/>
										</linearGradient>
										<path style="fill-rule:evenodd;clip-rule:evenodd;fill:url(#SVGID_18_);" d="M128.45,51.75
											c1.733,0.8,3.217,1.983,4.45,3.55c0.767,1.067,1.35,2.233,1.75,3.5c0.467,1.6,0.449,3-0.051,4.2
											c1.567,1.267,2.768,2.917,3.601,4.95c0.5,1.5,0.7,2.966,0.6,4.4c-0.1,1.9-0.767,3.316-2,4.25
											c-0.6,0.467-1.3,0.617-2.1,0.45l-0.25-0.1l-1.15-0.65c-0.633,0.733-1.433,1.233-2.399,1.5c-0.4,0.1-0.801,0.1-1.2,0
											c-0.333-0.1-0.634-0.25-0.9-0.45l-0.6-0.6c-1.333-1.867-2.05-4.467-2.15-7.8c0-1.133,0.017-1.867,0.05-2.2L125.9,66.6
											c-1.801-1.4-3.233-3.684-4.301-6.85l-0.55-1.85l-0.1-0.05l-0.45-0.15c-2.1-1.1-3.95-3.067-5.55-5.9
											c-0.7-1.233-1.2-2.417-1.5-3.55c-0.5-2.1-0.2-3.767,0.899-5l0.051-0.05c0.533-0.567,1.199-0.833,2-0.8
											c1.399-0.2,2.899-0.05,4.5,0.45c1.633,0.533,3.066,1.333,4.3,2.4c0.866,0.8,1.6,1.717,2.2,2.75
											C128.134,49.333,128.483,50.583,128.45,51.75z"/>
										<path style="fill-rule:evenodd;clip-rule:evenodd;fill:none;stroke:#DCF1A5;stroke-width:0.25;" d="M128.45,51.75
											c1.733,0.8,3.217,1.983,4.45,3.55c0.767,1.067,1.35,2.233,1.75,3.5c0.467,1.6,0.449,3-0.051,4.2
											c1.567,1.267,2.768,2.917,3.601,4.95c0.5,1.5,0.7,2.966,0.6,4.4c-0.1,1.9-0.767,3.316-2,4.25
											c-0.6,0.467-1.3,0.617-2.1,0.45l-0.25-0.1l-1.15-0.65c-0.633,0.733-1.433,1.233-2.399,1.5c-0.4,0.1-0.801,0.1-1.2,0
											c-0.333-0.1-0.634-0.25-0.9-0.45l-0.6-0.6c-1.333-1.867-2.05-4.467-2.15-7.8c0-1.133,0.017-1.867,0.05-2.2L125.9,66.6
											c-1.801-1.4-3.233-3.684-4.301-6.85l-0.55-1.85l-0.1-0.05l-0.45-0.15c-2.1-1.1-3.95-3.067-5.55-5.9
											c-0.7-1.233-1.2-2.417-1.5-3.55c-0.5-2.1-0.2-3.767,0.899-5l0.051-0.05c0.533-0.567,1.199-0.833,2-0.8
											c1.399-0.2,2.899-0.05,4.5,0.45c1.633,0.533,3.066,1.333,4.3,2.4c0.866,0.8,1.6,1.717,2.2,2.75
											C128.134,49.333,128.483,50.583,128.45,51.75z"/>
									</g>
								</g>
								<path style="fill-rule:evenodd;clip-rule:evenodd;fill:#174718;" d="M116.4,50.9c-0.634-1.1-1.067-2.183-1.301-3.25
									c-0.3-1.433-0.116-2.517,0.551-3.25c0.166-0.267,0.416-0.367,0.75-0.3l0.05,0.05c1.167-0.233,2.45-0.133,3.85,0.3
									c1.4,0.433,2.65,1.117,3.75,2.05c0.867,0.833,1.55,1.75,2.05,2.75c0.7,1.367,0.817,2.55,0.351,3.55v0.05
									c2.033,0.6,3.733,1.767,5.1,3.5c0.7,0.967,1.2,2,1.5,3.1c0.4,1.466,0.283,2.633-0.35,3.5
									c-0.167,0.233-0.367,0.35-0.601,0.35H132c2.049,1.073,3.566,2.823,4.55,5.25c0.4,1.1,0.584,2.233,0.55,3.4
									c-0.033,1.5-0.482,2.6-1.35,3.3c-0.167,0.133-0.383,0.167-0.65,0.1h-0.05l-0.25-0.1c-0.5-0.3-1.1-0.833-1.8-1.6
									c-0.667,1.367-1.5,2.184-2.5,2.45c-0.167,0.066-0.3,0.066-0.4,0l-0.25-0.1l-0.05-0.1l-0.2-0.15
									c-1.1-1.533-1.716-3.833-1.85-6.9c-0.066-1.367,0.083-2.617,0.45-3.75l-0.3,0.25c-0.167,0.1-0.367,0.117-0.601,0.05h-0.1
									l-0.101-0.1l-0.149-0.05c-1.601-1.267-2.851-3.3-3.75-6.1c-0.434-1.1-0.65-2.25-0.65-3.45l-0.35,0.35
									c-0.134,0.133-0.351,0.2-0.65,0.2l-0.05-0.05h-0.05l-0.2-0.05C119.483,55.25,117.867,53.5,116.4,50.9z"/>
								<g>
									<g>
										<g>
											<g>
												<g>
													<g>
														<g>
															
																<linearGradient id="SVGID_19_" gradientUnits="userSpaceOnUse" x1="124.4814" y1="53.4951" x2="116.9314" y2="44.5951">
																<stop  offset="0.2275" style="stop-color:#5DD948"/>
																<stop  offset="0.6392" style="stop-color:#62AE3D"/>
																<stop  offset="0.9255" style="stop-color:#64953A"/>
															</linearGradient>
															<path style="fill-rule:evenodd;clip-rule:evenodd;fill:url(#SVGID_19_);" d="M116.55,44.9
																c2.233,0.267,4.15,1.434,5.75,3.5c0.367,0.533,0.983,1.283,1.851,2.25c0.833,0.967,1.35,1.583,1.55,1.85
																c-1.833-0.133-3.884-1.067-6.15-2.8c-0.866-0.6-1.616-1.317-2.25-2.15C116.566,46.517,116.316,45.633,116.55,44.9z"
																/>
															<path style="fill-rule:evenodd;clip-rule:evenodd;fill:#E8F7BC;" d="M125.75,52.5c-1.267-0.967-2.75-2.45-4.45-4.45
																c-0.933-0.966-1.649-1.633-2.149-2c-0.834-0.667-1.7-1.05-2.601-1.15c1.101-0.233,2.3-0.133,3.601,0.3
																c1.233,0.4,2.35,1.017,3.35,1.85c0.867,0.8,1.517,1.667,1.95,2.6C126.017,50.783,126.117,51.733,125.75,52.5z"/>
														</g>
														<g>
															
																<linearGradient id="SVGID_20_" gradientUnits="userSpaceOnUse" x1="120.1113" y1="55.9253" x2="116.6846" y2="44.7698">
																<stop  offset="0.2275" style="stop-color:#5DD948"/>
																<stop  offset="0.6392" style="stop-color:#62AE3D"/>
																<stop  offset="0.9255" style="stop-color:#64953A"/>
															</linearGradient>
															<path style="fill-rule:evenodd;clip-rule:evenodd;fill:url(#SVGID_20_);" d="M116.2,44.9
																c1.934,1.067,3.233,2.9,3.899,5.5c0.134,0.6,0.4,1.517,0.801,2.75c0.399,1.2,0.633,1.967,0.699,2.3
																c-1.633-0.8-3.149-2.45-4.55-4.95c-0.566-0.967-0.95-1.917-1.149-2.85C115.6,46.383,115.7,45.467,116.2,44.9z"/>
															<path style="fill-rule:evenodd;clip-rule:evenodd;fill:#E8F7BC;" d="M121.7,55.5c-0.767-1.367-1.55-3.3-2.351-5.8
																c-0.5-1.267-0.899-2.167-1.199-2.7c-0.533-0.967-1.184-1.683-1.95-2.15c1.1,0.267,2.167,0.833,3.2,1.7
																c1,0.867,1.783,1.883,2.35,3.05c0.467,1.066,0.733,2.117,0.8,3.15C122.617,54.017,122.333,54.933,121.7,55.5z"/>
														</g>
													</g>
												</g>
											</g>
										</g>
									</g>
									<g>
										<g>
											<g>
												<g>
													<g>
														<g>
															
																<linearGradient id="SVGID_21_" gradientUnits="userSpaceOnUse" x1="130.6172" y1="63.2822" x2="124.9422" y2="53.0822">
																<stop  offset="0.2275" style="stop-color:#5DD948"/>
																<stop  offset="0.6392" style="stop-color:#62AE3D"/>
																<stop  offset="0.9255" style="stop-color:#64953A"/>
															</linearGradient>
															<path style="fill-rule:evenodd;clip-rule:evenodd;fill:url(#SVGID_21_);" d="M124.5,53.3
																c2.1,0.7,3.75,2.217,4.95,4.55c0.467,1.066,1.316,2.617,2.55,4.65c-1.767-0.433-3.6-1.733-5.5-3.9
																c-0.733-0.8-1.316-1.65-1.75-2.55C124.217,54.883,124.134,53.967,124.5,53.3z"/>
															<path style="fill-rule:evenodd;clip-rule:evenodd;fill:#E8F7BC;" d="M132.05,62.5c-1.033-1.133-2.2-2.85-3.5-5.15
																c-0.733-1.167-1.3-1.967-1.7-2.4c-0.732-0.833-1.517-1.383-2.35-1.65c1.134,0,2.283,0.333,3.45,1
																c1.167,0.633,2.149,1.467,2.95,2.5c0.666,0.9,1.133,1.867,1.399,2.9C132.634,60.9,132.55,61.833,132.05,62.5z"/>
														</g>
														<g>
															
																<linearGradient id="SVGID_22_" gradientUnits="userSpaceOnUse" x1="125.8379" y1="64.8115" x2="124.6379" y2="53.1865">
																<stop  offset="0.2275" style="stop-color:#5DD948"/>
																<stop  offset="0.6392" style="stop-color:#62AE3D"/>
																<stop  offset="0.9255" style="stop-color:#64953A"/>
															</linearGradient>
															<path style="fill-rule:evenodd;clip-rule:evenodd;fill:url(#SVGID_22_);" d="M124.15,53.2
																c1.666,1.5,2.583,3.55,2.75,6.15c0.033,0.6,0.116,1.566,0.25,2.9c0.166,1.233,0.25,2.033,0.25,2.4
																c-1.4-1.1-2.567-3.017-3.5-5.75c-0.367-1.033-0.567-2.05-0.601-3.05C123.267,54.55,123.55,53.667,124.15,53.2z"/>
															<path style="fill-rule:evenodd;clip-rule:evenodd;fill:#E8F7BC;" d="M127.5,64.7c-0.467-1.4-0.866-3.45-1.2-6.15
																c-0.2-1.333-0.399-2.3-0.6-2.9c-0.333-1.033-0.833-1.85-1.5-2.45c1.033,0.466,1.967,1.233,2.8,2.3
																c0.767,1.033,1.333,2.183,1.7,3.45c0.233,1.133,0.283,2.216,0.149,3.25C128.65,63.433,128.2,64.267,127.5,64.7z"/>
														</g>
													</g>
												</g>
											</g>
										</g>
									</g>
									<g>
										<g>
											<g>
												<g>
													<g>
														<g>
															<linearGradient id="SVGID_23_" gradientUnits="userSpaceOnUse" x1="133.665" y1="74.8994" x2="131.14" y2="63.4994">
																<stop  offset="0.2275" style="stop-color:#5DD948"/>
																<stop  offset="0.6392" style="stop-color:#62AE3D"/>
																<stop  offset="0.9255" style="stop-color:#64953A"/>
															</linearGradient>
															<path style="fill-rule:evenodd;clip-rule:evenodd;fill:url(#SVGID_23_);" d="M130.7,63.6
																c1.866,1.3,3,3.233,3.399,5.8c0.101,0.567,0.301,1.517,0.601,2.85c0.3,1.167,0.467,1.95,0.5,2.35
																c-1.5-0.9-2.867-2.684-4.101-5.35c-0.5-0.933-0.833-1.917-1-2.95C129.934,65.033,130.134,64.133,130.7,63.6z"/>
															<path style="fill-rule:evenodd;clip-rule:evenodd;fill:#E8F7BC;" d="M135.3,74.6c-0.6-1.3-1.233-3.283-1.899-5.95
																c-0.334-1.267-0.634-2.2-0.9-2.8c-0.467-1-1.066-1.75-1.8-2.25c1.1,0.333,2.116,0.983,3.05,1.95
																c0.934,0.967,1.634,2.05,2.1,3.25c0.367,1.034,0.534,2.083,0.5,3.15C136.316,73.217,135.967,74.1,135.3,74.6z"/>
														</g>
														<g>
															
																<linearGradient id="SVGID_24_" gradientUnits="userSpaceOnUse" x1="128.6611" y1="75.0303" x2="130.8611" y2="63.5553">
																<stop  offset="0.2275" style="stop-color:#5DD948"/>
																<stop  offset="0.6392" style="stop-color:#62AE3D"/>
																<stop  offset="0.9255" style="stop-color:#64953A"/>
															</linearGradient>
															<path style="fill-rule:evenodd;clip-rule:evenodd;fill:url(#SVGID_24_);" d="M130.4,63.45
																c1.199,1.867,1.483,4.083,0.85,6.65c-0.3,1.133-0.633,2.867-1,5.2c-1.066-1.466-1.633-3.633-1.7-6.5
																c-0.066-1.1,0.017-2.133,0.25-3.1C129.134,64.467,129.667,63.717,130.4,63.45z"/>
															<path style="fill-rule:evenodd;clip-rule:evenodd;fill:#E8F7BC;" d="M130.3,75.35c-0.066-1.5,0.15-3.567,0.65-6.2
																c0.167-1.3,0.233-2.283,0.2-2.95c-0.033-1.067-0.283-1.983-0.75-2.75c0.866,0.733,1.55,1.733,2.05,3
																c0.467,1.2,0.684,2.45,0.649,3.75c-0.1,1.133-0.366,2.183-0.8,3.15C131.767,74.483,131.1,75.15,130.3,75.35z"/>
														</g>
													</g>
												</g>
											</g>
										</g>
									</g>
								</g>
							</g>
						</g>
					</g>
				</g>
			</g>
		</g>
	</g>
</g>
<use xlink:href="#FlashAICB_x5F_0_x2F_Isolation_Mode_x2F__x3C_Path_x3E_"  width="118.7" height="57.1" y="-57.1" transform="matrix(1 0 0 -1 26 87.25)" style="overflow:visible;opacity:0.4688;enable-background:new    ;"/>
<g>
	
		<use xlink:href="#FlashAICB_x5F_0_x2F_Isolation_Mode_x2F__x3C_Path_x3E__x5F_1"  width="110.05" height="55.75" y="-55.75" transform="matrix(1 0 0 -1 30.2998 28.4502)" style="overflow:visible;opacity:0.1094;enable-background:new    ;"/>
	
		<use xlink:href="#FlashAICB_x5F_0_x2F_Isolation_Mode_x2F__x3C_Path_x3E__x5F_0"  width="110.05" height="61.294" y="-61.294" transform="matrix(1 0 0 -1 30.2998 28.4502)" style="overflow:visible;opacity:0.0898;enable-background:new    ;"/>
</g>
</svg>
