<?xml version="1.0" encoding="iso-8859-1"?>
<!-- Generator: Adobe Illustrator 15.1.0, SVG Export Plug-In . SVG Version: 6.00 Build 0)  -->
<!DOCTYPE svg PUBLIC "-//W3C//DTD SVG 1.1//EN" "http://www.w3.org/Graphics/SVG/1.1/DTD/svg11.dtd">
<svg version="1.1" xmlns="http://www.w3.org/2000/svg" xmlns:xlink="http://www.w3.org/1999/xlink" x="0px" y="0px" width="171px"
	 height="171.3px" viewBox="0 0 171 171.3" style="enable-background:new 0 0 171 171.3;" xml:space="preserve">
<symbol  id="FlashAICB_x5F_0_x2F_Isolation_Mode_x2F__x3C_Path_x3E_" viewBox="0 -60.894 109.35 60.894">
	<g id="Layer_1_3_">
		<path style="fill-rule:evenodd;clip-rule:evenodd;fill:#FFFFFF;" d="M105.85-34.15c2.333-5.6,3.5-10.867,3.5-15.8
			c0-4.933-1.434-8.033-4.3-9.3c-2.333-1.033-6.233-1.017-11.7,0.05c-7.233,1.733-13.033,3.067-17.4,4
			c-7.967,1.7-15.067,2.55-21.3,2.55c-6.267,0-13.35-0.917-21.25-2.75c-8.3-2.2-14.1-3.667-17.4-4.4c-5.5-1.267-9.4-1.434-11.7-0.5
			C1.433-59.133,0-56.1,0-51.2c0,5.434,1.167,11.067,3.5,16.9c2.467,6.133,5.917,11.667,10.35,16.6C24.517-5.9,38.117,0,54.65,0
			c16.367,0,29.967-5.95,40.8-17.85C99.883-22.75,103.35-28.183,105.85-34.15z"/>
	</g>
</symbol>
<symbol  id="FlashAICB_x5F_0_x2F_Isolation_Mode_x2F__x3C_Path_x3E__x5F_0" viewBox="0 -56.8 117.95 56.8">
	<g id="Layer_1_4_">
		
			<radialGradient id="SVGID_1_" cx="58.9751" cy="-28.3999" r="46.2851" gradientTransform="matrix(1 0 0 -1 0 -56.7998)" gradientUnits="userSpaceOnUse">
			<stop  offset="0" style="stop-color:#C9EEE7;stop-opacity:0"/>
			<stop  offset="0.0941" style="stop-color:#BFE7E0;stop-opacity:0.0784"/>
			<stop  offset="0.2549" style="stop-color:#A3D5CF;stop-opacity:0.298"/>
			<stop  offset="0.4667" style="stop-color:#75B7B2;stop-opacity:0.6471"/>
			<stop  offset="0.651" style="stop-color:#499996"/>
		</radialGradient>
		<path style="fill-rule:evenodd;clip-rule:evenodd;fill:url(#SVGID_1_);" d="M94.9-30.2c10.633,7.667,18.15,17.633,22.55,29.9
			l0.5,0.3c-0.567-15.8-6.567-29.217-18-40.25c-11.434-11.033-25.1-16.55-41-16.55c-15.633,0-29.133,5.333-40.5,16
			C7.15-30.167,1-17.133,0-1.7c4.567-11.933,12.1-21.566,22.6-28.9c10.733-7.533,22.683-11.3,35.85-11.3
			C71.883-41.9,84.033-38,94.9-30.2z"/>
	</g>
</symbol>
<symbol  id="FlashAICB_x5F_0_x2F_Isolation_Mode_x2F__x3C_Path_x3E__x5F_1" viewBox="0 -55.4 109.35 55.4">
	<g id="Layer_1_2_">
		
			<linearGradient id="SVGID_2_" gradientUnits="userSpaceOnUse" x1="16165.6396" y1="-53.5298" x2="16221.0645" y2="-53.5298" gradientTransform="matrix(1.804240e-005 1 -1 -0.001 0.8535 -16221.1064)">
			<stop  offset="0.1294" style="stop-color:#E5B9B2"/>
			<stop  offset="0.9255" style="stop-color:#FFFFFF"/>
		</linearGradient>
		<path style="fill-rule:evenodd;clip-rule:evenodd;fill:url(#SVGID_2_);" d="M95.45-17.85c4.433-4.9,7.9-10.333,10.4-16.3
			c2.333-5.6,3.5-10.867,3.5-15.8c0-1.566-0.167-3.05-0.5-4.45c-1.833,11-7.2,20.767-16.1,29.3C82.283-15.033,69.583-10,54.65-10
			c-15.133,0-27.883-5.017-38.25-15.05C7.467-33.717,2.15-43.833,0.45-55.4C0.15-54.267,0-52.867,0-51.2
			c0,5.434,1.167,11.067,3.5,16.9c2.467,6.133,5.917,11.667,10.35,16.6C24.517-5.9,38.117,0,54.65,0
			C71.017,0,84.617-5.95,95.45-17.85z"/>
	</g>
</symbol>
<g id="Layer_1">
	<g>
		<path style="fill-rule:evenodd;clip-rule:evenodd;fill:#68757B;" d="M118.55,6.7c10.2,4.333,19.25,10.45,27.15,18.35
			c7.866,7.867,13.967,16.9,18.3,27.1c4.467,10.567,6.7,21.633,6.7,33.2s-2.233,22.633-6.7,33.2
			c-4.333,10.2-10.434,19.233-18.3,27.101c-7.9,7.899-16.95,14.017-27.15,18.35c-10.566,4.467-21.633,6.7-33.2,6.7
			c-11.566,0-22.633-2.233-33.2-6.7c-10.2-4.333-19.233-10.45-27.1-18.35c-7.9-7.867-14.017-16.9-18.35-27.101
			C2.233,107.983,0,96.917,0,85.35s2.233-22.633,6.7-33.2c4.333-10.2,10.45-19.233,18.35-27.1c7.867-7.9,16.9-14.017,27.1-18.35
			C62.717,2.233,73.783,0,85.35,0C96.917,0,107.983,2.233,118.55,6.7z"/>
		
			<linearGradient id="SVGID_3_" gradientUnits="userSpaceOnUse" x1="-171.3848" y1="85.375" x2="-0.6851" y2="85.375" gradientTransform="matrix(5.859089e-006 -1 1 -0.001 1.466054e-004 -4.747650e-005)">
			<stop  offset="0.0196" style="stop-color:#353746"/>
			<stop  offset="0.251" style="stop-color:#6C6E76;stop-opacity:0.6863"/>
			<stop  offset="0.4941" style="stop-color:#A1A3A3;stop-opacity:0.3922"/>
			<stop  offset="0.7098" style="stop-color:#C7C9C4;stop-opacity:0.1765"/>
			<stop  offset="0.8824" style="stop-color:#DEE1D9;stop-opacity:0.0471"/>
			<stop  offset="0.9882" style="stop-color:#E7E9E0;stop-opacity:0"/>
		</linearGradient>
		<path style="fill-rule:evenodd;clip-rule:evenodd;fill:url(#SVGID_3_);" d="M118.55,7.3c10.2,4.333,19.25,10.45,27.15,18.35
			c7.866,7.867,13.967,16.9,18.3,27.1c4.467,10.567,6.7,21.633,6.7,33.2c0,11.566-2.233,22.633-6.7,33.2
			c-4.333,10.199-10.434,19.233-18.3,27.1c-7.9,7.9-16.95,14.017-27.15,18.35c-10.566,4.467-21.633,6.7-33.2,6.7
			c-11.566,0-22.633-2.233-33.2-6.7c-10.2-4.333-19.233-10.449-27.1-18.35c-7.867-7.866-13.966-16.9-18.3-27.1
			c-4.467-10.567-6.7-21.634-6.7-33.2c0-11.567,2.233-22.633,6.7-33.2c4.333-10.2,10.433-19.233,18.3-27.1
			c7.9-7.9,16.934-14.017,27.1-18.35c10.567-4.466,21.633-6.7,33.2-6.7C96.917,0.6,107.983,2.833,118.55,7.3z"/>
		<g>
			<g>
				
					<linearGradient id="SVGID_4_" gradientUnits="userSpaceOnUse" x1="-157.4854" y1="85.3506" x2="-13.3848" y2="85.3506" gradientTransform="matrix(6.939625e-006 -1 1 -0.001 1.071970e-004 4.449275e-004)">
					<stop  offset="0" style="stop-color:#BCD1DF"/>
					<stop  offset="0.0235" style="stop-color:#BBCEDC;stop-opacity:0.9647"/>
					<stop  offset="0.2784" style="stop-color:#ABB0BF;stop-opacity:0.6353"/>
					<stop  offset="0.502" style="stop-color:#A19DAE;stop-opacity:0.4314"/>
					<stop  offset="0.6549" style="stop-color:#9E96A8;stop-opacity:0.3569"/>
					<stop  offset="1" style="stop-color:#403C5C"/>
				</linearGradient>
				<path style="fill-rule:evenodd;clip-rule:evenodd;fill:url(#SVGID_4_);" d="M151.75,57.3c3.767,8.934,5.65,18.284,5.65,28.05
					c0,9.766-1.884,19.117-5.65,28.05c-3.667,8.633-8.816,16.267-15.45,22.899c-6.633,6.634-14.267,11.783-22.899,15.45
					c-8.934,3.767-18.284,5.65-28.051,5.65c-9.766,0-19.116-1.884-28.05-5.65c-8.633-3.667-16.267-8.816-22.9-15.45
					c-6.633-6.633-11.783-14.267-15.45-22.899c-3.767-8.934-5.65-18.284-5.65-28.05c0-9.767,1.883-19.117,5.65-28.05
					c3.667-8.633,8.816-16.267,15.45-22.9c14.067-14.066,31.05-21.1,50.95-21.1c19.9,0,36.884,7.034,50.95,21.1
					C142.934,41.033,148.083,48.667,151.75,57.3z"/>
			</g>
		</g>
		<g>
			
				<linearGradient id="SVGID_5_" gradientUnits="userSpaceOnUse" x1="-151.1846" y1="85.376" x2="-19.6851" y2="85.376" gradientTransform="matrix(7.603118e-006 -1 1 -0.001 1.150390e-004 4.449275e-004)">
				<stop  offset="0.0745" style="stop-color:#3C5350"/>
				<stop  offset="0.1922" style="stop-color:#486D66"/>
				<stop  offset="0.4431" style="stop-color:#67AF9D"/>
				<stop  offset="0.4784" style="stop-color:#6CB9A6"/>
				<stop  offset="0.9216" style="stop-color:#CCCED7"/>
			</linearGradient>
			<path style="fill-rule:evenodd;clip-rule:evenodd;fill:url(#SVGID_5_);" d="M131.85,131.8c-12.866,12.867-28.366,19.3-46.5,19.3
				c-18.133,0-33.616-6.433-46.45-19.3c-12.867-12.833-19.3-28.316-19.3-46.45s6.433-33.617,19.3-46.45
				c12.833-12.867,28.317-19.3,46.45-19.3c18.134,0,33.634,6.433,46.5,19.3c12.867,12.833,19.301,28.317,19.301,46.45
				S144.717,118.967,131.85,131.8z"/>
			<path style="fill-rule:evenodd;clip-rule:evenodd;fill:#24433F;" d="M131.3,131.25c12.667-12.667,19-27.967,19-45.9
				c0-17.934-6.333-33.233-19-45.9c-12.7-12.7-28.017-19.05-45.95-19.05c-17.933,0-33.233,6.35-45.899,19.05
				c-12.667,12.667-19,27.966-19,45.9c0,17.933,6.333,33.233,19,45.9c12.667,12.7,27.966,19.05,45.899,19.05
				C103.283,150.3,118.6,143.95,131.3,131.25z M110.85,23.85c8.134,3.333,15.334,8.15,21.601,14.45
				c6.3,6.267,11.133,13.45,14.5,21.55c3.333,8.1,5,16.6,5,25.5s-1.667,17.4-5,25.5c-3.367,8.101-8.2,15.301-14.5,21.601
				c-6.267,6.267-13.467,11.083-21.601,14.45c-8.1,3.366-16.6,5.05-25.5,5.05c-8.866,0-17.35-1.684-25.45-5.05
				c-8.133-3.367-15.333-8.184-21.6-14.45c-6.3-6.3-11.117-13.5-14.45-21.601c-3.367-8.1-5.05-16.6-5.05-25.5s1.684-17.4,5.05-25.5
				C27.183,51.75,32,44.567,38.3,38.3c6.267-6.3,13.467-11.117,21.6-14.45c8.067-3.367,16.55-5.05,25.45-5.05
				C94.25,18.8,102.75,20.483,110.85,23.85z"/>
		</g>
		<g>
			<g>
				<path style="fill-rule:evenodd;clip-rule:evenodd;fill:#BFE8DC;" d="M64.55,37c-0.733,0-1.283-0.233-1.65-0.7
					c-0.333-0.4-0.5-0.917-0.5-1.55c0-0.567,0.184-1.067,0.55-1.5c0.433-0.467,0.966-0.7,1.6-0.7h4.55c0.667,0,1.2,0.217,1.6,0.65
					c0.366,0.4,0.55,0.933,0.55,1.6v18.3c0,0.8-0.217,1.417-0.65,1.85c-0.434,0.433-1.017,0.65-1.75,0.65
					c-0.7,0-1.267-0.217-1.7-0.65c-0.467-0.467-0.7-1.083-0.7-1.85V37H64.55z"/>
				<path style="fill-rule:evenodd;clip-rule:evenodd;fill:#BFE8DC;" d="M79.15,44c0,4.933,1.167,7.4,3.5,7.4s3.5-2.467,3.5-7.4
					c0-4.967-1.167-7.45-3.5-7.45S79.15,39.033,79.15,44z M89.35,36.1c1.2,2.133,1.801,4.767,1.801,7.9s-0.601,5.75-1.801,7.85
					c-1.5,2.633-3.733,3.95-6.7,3.95c-2.933,0-5.15-1.316-6.65-3.95c-1.233-2.133-1.85-4.75-1.85-7.85c0-3.133,0.617-5.767,1.85-7.9
					c1.5-2.633,3.717-3.95,6.65-3.95C85.616,32.15,87.85,33.467,89.35,36.1z"/>
				<path style="fill-rule:evenodd;clip-rule:evenodd;fill:#BFE8DC;" d="M106.45,38.05c0,2.133-0.884,3.767-2.65,4.9
					c1.167,0.533,2.117,1.3,2.851,2.3c0.733,1.067,1.1,2.217,1.1,3.45c0,1.933-0.783,3.6-2.35,5c-1.567,1.4-3.483,2.1-5.75,2.1
					c-2.2,0-4.084-0.683-5.65-2.05c-1.366-1.233-2.05-2.567-2.05-4c0-0.6,0.267-1.117,0.8-1.55c0.5-0.4,1.05-0.6,1.65-0.6
					c0.633,0,1.35,0.633,2.149,1.9c0.8,1.233,1.851,1.85,3.15,1.85c0.833,0,1.533-0.283,2.1-0.85c0.601-0.567,0.9-1.283,0.9-2.15
					c0-1.533-0.9-2.434-2.7-2.7c-1.833-0.3-2.75-1.05-2.75-2.25c0-1.1,0.767-1.85,2.3-2.25c1.5-0.4,2.25-1.2,2.25-2.4
					c0-0.633-0.2-1.15-0.6-1.55c-0.434-0.4-1-0.6-1.7-0.6c-1.1,0-2,0.533-2.7,1.6c-0.733,1.033-1.434,1.55-2.1,1.55
					c-0.634,0-1.15-0.25-1.55-0.75c-0.367-0.467-0.551-1.017-0.551-1.65c0-1.267,0.717-2.45,2.15-3.55
					c1.467-1.1,3.083-1.65,4.85-1.65c2.134,0,3.851,0.667,5.15,2C105.884,35.317,106.45,36.617,106.45,38.05z"/>
			</g>
			<g>
				
					<linearGradient id="SVGID_6_" gradientUnits="userSpaceOnUse" x1="-54.6919" y1="66.8262" x2="-31.6419" y2="66.8262" gradientTransform="matrix(4.338395e-005 -1 1 -0.001 1.409492e-004 4.439838e-004)">
					<stop  offset="0" style="stop-color:#112924"/>
					<stop  offset="0.4549" style="stop-color:#21423D"/>
					<stop  offset="0.9686" style="stop-color:#36625F"/>
				</linearGradient>
				<path style="fill-rule:evenodd;clip-rule:evenodd;fill:url(#SVGID_6_);" d="M64.55,36c-0.733,0-1.283-0.233-1.65-0.7
					c-0.333-0.4-0.5-0.9-0.5-1.5c0-0.6,0.184-1.117,0.55-1.55c0.433-0.467,0.966-0.7,1.6-0.7h4.55c0.667,0,1.2,0.217,1.6,0.65
					c0.366,0.433,0.55,0.983,0.55,1.65V52.1c0,0.8-0.217,1.433-0.65,1.9c-0.434,0.433-1.017,0.65-1.75,0.65
					c-0.7,0-1.267-0.217-1.7-0.65c-0.467-0.467-0.7-1.1-0.7-1.9V36H64.55z"/>
				
					<linearGradient id="SVGID_7_" gradientUnits="userSpaceOnUse" x1="-54.8818" y1="82.6528" x2="-31.2568" y2="82.6528" gradientTransform="matrix(4.232804e-005 -1 1 -0.001 -9.801816e-005 -4.747650e-005)">
					<stop  offset="0" style="stop-color:#112924"/>
					<stop  offset="0.4549" style="stop-color:#21423D"/>
					<stop  offset="0.9686" style="stop-color:#36625F"/>
				</linearGradient>
				<path style="fill-rule:evenodd;clip-rule:evenodd;fill:url(#SVGID_7_);" d="M79.15,43c0,4.967,1.167,7.45,3.5,7.45
					s3.5-2.483,3.5-7.45s-1.167-7.45-3.5-7.45S79.15,38.033,79.15,43z M89.35,35.15c1.2,2.1,1.801,4.717,1.801,7.85
					s-0.601,5.75-1.801,7.85c-1.5,2.633-3.733,3.95-6.7,3.95c-2.933,0-5.15-1.316-6.65-3.95c-1.233-2.1-1.85-4.717-1.85-7.85
					s0.617-5.75,1.85-7.85c1.5-2.633,3.717-3.95,6.65-3.95C85.616,31.2,87.85,32.517,89.35,35.15z"/>
				
					<linearGradient id="SVGID_8_" gradientUnits="userSpaceOnUse" x1="-54.8989" y1="99.8535" x2="-31.2739" y2="99.8535" gradientTransform="matrix(4.232804e-005 -1 1 -0.001 -9.801816e-005 -4.747650e-005)">
					<stop  offset="0" style="stop-color:#112924"/>
					<stop  offset="0.4549" style="stop-color:#21423D"/>
					<stop  offset="0.9686" style="stop-color:#36625F"/>
				</linearGradient>
				<path style="fill-rule:evenodd;clip-rule:evenodd;fill:url(#SVGID_8_);" d="M106.45,37.05c0,2.167-0.884,3.817-2.65,4.95
					c1.167,0.533,2.117,1.3,2.851,2.3c0.733,1.034,1.1,2.167,1.1,3.4c0,1.933-0.783,3.6-2.35,5c-1.567,1.4-3.483,2.1-5.75,2.1
					c-2.2,0-4.084-0.683-5.65-2.05c-1.366-1.233-2.05-2.55-2.05-3.95c0-0.6,0.267-1.117,0.8-1.55c0.5-0.4,1.05-0.6,1.65-0.6
					c0.633,0,1.35,0.633,2.149,1.9c0.8,1.233,1.851,1.85,3.15,1.85c0.833,0,1.533-0.283,2.1-0.85c0.601-0.6,0.9-1.316,0.9-2.15
					c0-1.566-0.9-2.483-2.7-2.75c-1.833-0.3-2.75-1.05-2.75-2.25c0-1.1,0.767-1.85,2.3-2.25c1.5-0.367,2.25-1.167,2.25-2.4
					c0-0.633-0.2-1.133-0.6-1.5c-0.434-0.433-1-0.65-1.7-0.65c-1.1,0-2,0.533-2.7,1.6c-0.733,1.033-1.434,1.55-2.1,1.55
					c-0.634,0-1.15-0.233-1.55-0.7c-0.367-0.466-0.551-1.017-0.551-1.65c0-1.267,0.717-2.45,2.15-3.55
					c1.467-1.1,3.083-1.65,4.85-1.65c2.134,0,3.851,0.667,5.15,2C105.884,34.333,106.45,35.617,106.45,37.05z"/>
			</g>
		</g>
		<g>
			<path style="fill-rule:evenodd;clip-rule:evenodd;fill:#DBF0E8;" d="M96.5,65.9c0.167,0.9,0.2,1.883,0.1,2.95l0.65,0.35
				c1.2-0.2,2.3-0.284,3.3-0.25l0.5-0.5l0.05-1.3c0.267-1.9,1.134-3.483,2.601-4.75c1.467-1.3,3.166-1.95,5.1-1.95l1.15,0.1
				c2.066,0.267,3.75,1.25,5.05,2.95c1.333,1.767,1.85,3.7,1.55,5.8c-0.233,1.767-1,3.267-2.3,4.5c-1.3,1.233-2.833,1.934-4.6,2.1
				c3.833,2.2,6.533,5.267,8.1,9.2l0.05,0.1l0.5,1.45v0.1l0.101,0.3l0.55,2.7v0.1l0.149,1.7v0.4c0.067,0.566,0.067,1.116,0,1.649
				L118.7,97.15L117.6,101.6l-0.399,1.15c-0.5,2.9-1.533,5.5-3.101,7.8l0.051,1.3c1.066,1.5,1.333,3.167,0.8,5
				c-0.334,1.367-1.066,2.467-2.2,3.301l-0.7,1.949c-1,2.601-2.666,4.934-5,7c0.467,1.2,0.417,2.417-0.149,3.65
				c-1.267,2.667-3.25,4-5.95,4c-1.467,0-2.95-0.483-4.45-1.45c0,1.233-0.384,2.283-1.15,3.15c-1.533,1.899-3.399,2.85-5.6,2.85
				c-2.667,0-4.9-1.467-6.7-4.399l-0.75-1.2c-1.1-0.233-2.25-0.8-3.45-1.7c-0.6-0.467-1.034-0.85-1.3-1.15l-0.4,0.801
				c-1.4,2.267-3.316,3.399-5.75,3.399c-2.2,0-4.217-1.066-6.05-3.2c-1-1.1-1.667-2.033-2-2.8c-0.5-1.2-0.5-2.517,0-3.95l0.6-1.149
				l-1.15-1.45l-0.15-0.3l-0.6-0.9L62,123.15l-0.6-1.25l-0.05-0.15l-0.35-0.8l-0.1-0.3l-0.4-1.601c-0.667-1.1-1.133-2.35-1.4-3.75
				l-1.25,0.45c-1,0.434-2.017,0.5-3.05,0.2c-1.033-0.3-1.833-0.884-2.4-1.75c-0.5-0.733-0.767-1.517-0.8-2.351
				c-0.034-0.833,0.167-1.616,0.6-2.35c-0.233-1-0.15-1.967,0.25-2.9c0.433-0.966,1.116-1.683,2.05-2.149
				c0.1-0.566,0.367-1.15,0.8-1.75c-0.966-0.967-1.417-2.117-1.35-3.45c0.066-1.066,0.466-1.983,1.2-2.75s1.617-1.217,2.65-1.35
				c0.534-0.101,1.167-0.134,1.9-0.101c0.7-0.467,1.466-0.733,2.3-0.8h0.35c0.767,0,1.566,0.116,2.4,0.35c0.6-1,1.517-1.666,2.75-2
				l0.25-0.75c0.367-0.8,0.933-1.433,1.7-1.899c0.767-0.5,1.583-0.733,2.45-0.7c0-1.7,0.767-2.983,2.3-3.85l0.5-0.25
				c-0.5-0.967-0.6-2.017-0.3-3.15c0.367-1.3,1.167-2.25,2.4-2.85c-0.333-1.3-0.117-2.483,0.65-3.55c0.733-1.1,1.733-1.75,3-1.95
				c-0.867-1.066-1.45-2.3-1.75-3.7c-0.467-2.434-0.034-4.717,1.3-6.85s3.183-3.483,5.55-4.05c0.767-0.2,1.5-0.3,2.2-0.3
				c2.134,0,4.017,0.667,5.65,2C95,62.083,96.033,63.8,96.5,65.9z"/>
			<g>
				
					<linearGradient id="SVGID_9_" gradientUnits="userSpaceOnUse" x1="-140.439" y1="85.3755" x2="-57.9375" y2="85.3755" gradientTransform="matrix(1.211754e-005 -1 1 -0.001 9.749057e-005 -4.842016e-005)">
					<stop  offset="0" style="stop-color:#1E7B6A"/>
					<stop  offset="0.7098" style="stop-color:#A0EFB8"/>
				</linearGradient>
				<path style="fill-rule:evenodd;clip-rule:evenodd;fill:url(#SVGID_9_);" d="M108.8,59.5l1.15,0.1c2.1,0.3,3.783,1.3,5.05,3
					c1.333,1.7,1.85,3.617,1.55,5.75c-0.233,1.767-1,3.283-2.3,4.55c-1.3,1.233-2.833,1.934-4.6,2.1
					c3.833,2.133,6.533,5.183,8.1,9.15l0.55,1.55v0.1l0.101,0.351l0.55,2.649V88.9L119.1,90.6V91c0.067,0.566,0.067,1.116,0,1.65
					l-0.399,3.6l-1.25,4.9l-0.25,0.699c-0.5,2.834-1.533,5.434-3.101,7.801l0.051,1.25c1.033,1.533,1.3,3.216,0.8,5.05
					c-0.367,1.333-1.101,2.416-2.2,3.25l-0.7,2c-1,2.566-2.666,4.883-5,6.95c0.467,1.233,0.417,2.449-0.149,3.649
					c-1.267,2.667-3.25,4-5.95,4c-1.434,0-2.917-0.467-4.45-1.399c0,1.199-0.384,2.233-1.15,3.1c-1.533,1.9-3.399,2.85-5.6,2.85
					c-2.667,0-4.9-1.449-6.7-4.35l-0.75-1.25c-1.167-0.267-2.316-0.833-3.45-1.7c-0.6-0.467-1.034-0.833-1.3-1.1l-0.4,0.8
					c-1.433,2.267-3.35,3.4-5.75,3.4c-2.167,0-4.183-1.067-6.05-3.2c-1.034-1.167-1.7-2.117-2-2.851c-0.5-1.199-0.5-2.5,0-3.899
					c0.167-0.434,0.367-0.816,0.6-1.15l-0.3-0.399l-0.15-0.15l-0.7-0.95l-0.15-0.3l-0.6-0.9L62,122.2l-0.55-1.15L61.4,121l-0.05-0.2
					L61,120l-0.1-0.3l-0.4-1.601c-0.667-1.1-1.133-2.35-1.4-3.75c-0.567,0.167-0.983,0.334-1.25,0.5c-1,0.434-2.017,0.5-3.05,0.2
					c-1.033-0.333-1.833-0.934-2.4-1.8c-0.5-0.733-0.767-1.517-0.8-2.35c-0.034-0.834,0.167-1.617,0.6-2.351
					c-0.233-1-0.15-1.967,0.25-2.899c0.433-0.967,1.116-1.667,2.05-2.101c0.1-0.6,0.367-1.2,0.8-1.8
					c-0.966-0.9-1.417-2.05-1.35-3.45c0.066-1.033,0.466-1.934,1.2-2.7s1.617-1.233,2.65-1.399c0.333-0.066,0.967-0.101,1.9-0.101
					c0.7-0.466,1.466-0.733,2.3-0.8h0.35c0.633,0,1.433,0.117,2.4,0.351c0.667-1.034,1.583-1.684,2.75-1.95l0.25-0.8
					c0.367-0.801,0.933-1.434,1.7-1.9c0.767-0.5,1.583-0.733,2.45-0.7c0-0.767,0.217-1.5,0.65-2.2c0.4-0.7,0.95-1.25,1.65-1.649
					l0.5-0.2c-0.534-1-0.634-2.05-0.3-3.15c0.367-1.367,1.167-2.317,2.4-2.85c-0.333-1.333-0.117-2.533,0.65-3.6
					c0.733-1.1,1.733-1.733,3-1.9C79.583,71.617,79,70.367,78.7,69c-0.467-2.4-0.034-4.667,1.3-6.8s3.183-3.5,5.55-4.1
					c0.634-0.167,1.367-0.25,2.2-0.25c2.134,0,4.017,0.667,5.65,2c1.633,1.3,2.666,3,3.1,5.1c0.167,0.9,0.2,1.883,0.1,2.95
					l0.65,0.35c1.2-0.2,2.3-0.283,3.3-0.25l0.5-0.5l0.05-1.3c0.267-1.9,1.134-3.483,2.601-4.75
					C105.167,60.15,106.866,59.5,108.8,59.5z"/>
				<path style="fill-rule:evenodd;clip-rule:evenodd;fill:none;stroke:#DBF0E8;stroke-width:0.25;" d="M108.8,59.5
					c-1.934,0-3.633,0.65-5.1,1.95c-1.467,1.267-2.334,2.85-2.601,4.75l-0.05,1.3l-0.5,0.5c-1-0.033-2.1,0.05-3.3,0.25L96.6,67.9
					c0.101-1.066,0.067-2.05-0.1-2.95c-0.434-2.1-1.467-3.8-3.1-5.1c-1.634-1.333-3.517-2-5.65-2c-0.833,0-1.566,0.083-2.2,0.25
					c-2.367,0.6-4.216,1.967-5.55,4.1s-1.767,4.4-1.3,6.8c0.3,1.367,0.883,2.617,1.75,3.75c-1.267,0.167-2.267,0.8-3,1.9
					c-0.767,1.067-0.983,2.267-0.65,3.6c-1.233,0.533-2.033,1.483-2.4,2.85c-0.333,1.1-0.233,2.15,0.3,3.15l-0.5,0.2
					c-0.7,0.4-1.25,0.95-1.65,1.649c-0.433,0.7-0.65,1.434-0.65,2.2c-0.867-0.033-1.683,0.2-2.45,0.7
					c-0.767,0.467-1.333,1.1-1.7,1.9l-0.25,0.8c-1.167,0.267-2.083,0.916-2.75,1.95c-0.967-0.233-1.767-0.351-2.4-0.351H62
					c-0.833,0.066-1.6,0.334-2.3,0.8c-0.934,0-1.567,0.034-1.9,0.101c-1.033,0.166-1.917,0.633-2.65,1.399s-1.133,1.667-1.2,2.7
					c-0.067,1.4,0.383,2.55,1.35,3.45c-0.433,0.6-0.7,1.2-0.8,1.8c-0.934,0.434-1.617,1.134-2.05,2.101
					c-0.4,0.933-0.483,1.899-0.25,2.899c-0.434,0.733-0.634,1.517-0.6,2.351c0.033,0.833,0.3,1.616,0.8,2.35
					c0.567,0.866,1.367,1.467,2.4,1.8c1.034,0.3,2.05,0.233,3.05-0.2c0.267-0.166,0.683-0.333,1.25-0.5
					c0.267,1.4,0.733,2.65,1.4,3.75l0.4,1.601L61,120l0.35,0.8l0.05,0.2l0.05,0.05L62,122.2l0.05,0.149l0.6,0.9l0.15,0.3l0.7,0.95
					l0.15,0.15l0.3,0.399c-0.233,0.334-0.434,0.717-0.6,1.15c-0.5,1.399-0.5,2.7,0,3.899c0.3,0.733,0.966,1.684,2,2.851
					c1.867,2.133,3.883,3.2,6.05,3.2c2.4,0,4.317-1.134,5.75-3.4l0.4-0.8c0.267,0.267,0.7,0.633,1.3,1.1
					c1.133,0.867,2.283,1.434,3.45,1.7l0.75,1.25c1.8,2.9,4.033,4.35,6.7,4.35c2.2,0,4.066-0.949,5.6-2.85
					c0.767-0.866,1.15-1.9,1.15-3.1c1.533,0.933,3.017,1.399,4.45,1.399c2.7,0,4.684-1.333,5.95-4
					c0.566-1.2,0.616-2.416,0.149-3.649c2.334-2.067,4-4.384,5-6.95l0.7-2c1.1-0.834,1.833-1.917,2.2-3.25
					c0.5-1.834,0.233-3.517-0.8-5.05l-0.051-1.25c1.567-2.367,2.601-4.967,3.101-7.801l0.25-0.699l1.25-4.9l0.399-3.6
					c0.067-0.534,0.067-1.084,0-1.65v-0.4L118.95,88.9V88.8l-0.55-2.649L118.3,85.8v-0.1l-0.55-1.55
					c-1.566-3.967-4.267-7.017-8.1-9.15c1.767-0.167,3.3-0.867,4.6-2.1c1.3-1.267,2.066-2.783,2.3-4.55
					c0.3-2.133-0.217-4.05-1.55-5.75c-1.267-1.7-2.95-2.7-5.05-3L108.8,59.5z"/>
			</g>
			<path style="fill-rule:evenodd;clip-rule:evenodd;fill:#24433F;" d="M70.75,100.3L70.1,100l-2-0.5l1.25,1.4
				C69.816,100.634,70.283,100.434,70.75,100.3z M101.45,73.5c-2.134,0.567-3.8,1.25-5,2.05l-1.05,0.7L96.9,76
				c1.566-0.2,2.75-0.283,3.55-0.25C100.65,75.183,100.983,74.433,101.45,73.5z M94.7,71.35c0.333-0.1,0.6,0,0.8,0.3
				c0.167,0.367,0.134,0.667-0.1,0.9L95.05,72.9c1.5-0.767,3.134-1.15,4.9-1.15c1.333-0.033,2.083,0.033,2.25,0.2h0.05
				c0.866-1.367,1.85-2.35,2.95-2.95c-0.367-0.733-0.5-1.5-0.4-2.3c0.167-1.067,0.684-1.934,1.55-2.6
				c0.9-0.667,1.917-0.934,3.051-0.8c1.1,0.167,1.983,0.684,2.649,1.55c0.7,0.933,0.967,1.933,0.8,3
				c-0.166,1.066-0.683,1.933-1.55,2.6c-0.866,0.7-1.866,0.966-3,0.8l-0.85-0.2c-0.934,1.434-1.483,2.717-1.65,3.85
				c-0.1,0.733-0.033,1.483,0.2,2.25c0.4,0.2,0.884,0.5,1.45,0.9c3.233,1.733,5.517,4.25,6.85,7.55v0.05l0.5,1.45l0.45,2.2l0.1,1.5
				V90.9L115.4,91.1l-0.051,1.851L114.9,96.2l-1.351,4.7c-0.467,2.966-1.583,5.533-3.35,7.699c0.2,1.233,0.25,2.483,0.149,3.75
				l0.25,0.2c0.767,0.601,1.017,1.384,0.75,2.351c-0.267,0.933-0.85,1.533-1.75,1.8c-0.267,0.934-0.616,1.967-1.05,3.1
				c-1.233,3.134-3.45,5.634-6.649,7.5c-0.101,0.4-0.217,0.7-0.351,0.9c1.033,0.267,1.684,0.633,1.95,1.1
				c0.167,0.3,0.167,0.601,0,0.9c-0.566,1.267-1.417,1.899-2.55,1.899c-0.667,0-1.533-0.316-2.601-0.949
				c-1.1-0.733-1.699-1.334-1.8-1.801c-1.233,0.2-2.35,0.284-3.35,0.25L92.85,130.7c-0.3,0.8-0.85,1.467-1.649,2
				c0.899,0.467,1.416,0.95,1.55,1.45c0.066,0.399-0.017,0.716-0.25,0.949c-0.8,1-1.717,1.5-2.75,1.5c-1.267,0-2.45-0.866-3.55-2.6
				c-0.634-1-1-1.684-1.101-2.05c-0.133-0.434-0.066-0.917,0.2-1.45c0.233-0.434,0.65-0.65,1.25-0.65c0.467,0,0.9,0.084,1.3,0.25
				c0.601-0.066,1.034-0.25,1.301-0.55c0.1-0.1,0.183-0.267,0.25-0.5c-1.233-0.333-2.301-0.866-3.2-1.6l-0.45,0.1l0.4,0.45
				c0.133,0.3,0.149,0.616,0.05,0.95c-0.5,1.233-1.184,1.95-2.05,2.149c-0.867,0.2-1.867-0.133-3-1c-0.6-0.5-1-0.85-1.2-1.05
				c-0.233-0.267-0.384-0.55-0.45-0.85c-1.967-0.033-3.934-0.4-5.9-1.101c-0.167,0.601-0.5,1.15-1,1.65
				c0.833,0.3,1.316,0.667,1.45,1.1c0.133,0.267,0.117,0.567-0.05,0.9c-0.733,1.1-1.6,1.65-2.6,1.65c-1.066,0-2.15-0.65-3.25-1.95
				c-0.733-0.8-1.167-1.367-1.3-1.7c-0.167-0.366-0.167-0.8,0-1.3c0.2-0.5,0.667-0.75,1.4-0.75l1.45,0.149c0.3,0,0.5-0.05,0.6-0.149
				c0-0.267-0.033-0.483-0.1-0.65c-0.134-0.333-0.2-0.583-0.2-0.75l-0.55-0.35l-1-0.8L68.2,124l-0.7-0.7l-0.25-0.2l-0.7-0.8
				l-0.1-0.149l-0.55-0.7l-1.05-1.9l-0.3-0.75l-0.35-1.2l-0.1-0.8l-0.05-0.1c-1.2-1.667-1.583-3.667-1.15-6
				c-0.333-0.066-0.533-0.2-0.6-0.4l-0.1-0.2l-1.6,0.051c-0.733,0.1-1.667,0.333-2.8,0.699l-1.45,0.551
				c-0.367,0.199-0.667,0.116-0.9-0.25c-0.167-0.367-0.134-0.667,0.1-0.9c0.034,0,0.367-0.25,1-0.75
				c0.767-0.566,1.567-1.017,2.4-1.35l-2.4,0.05c-0.4,0-0.633-0.184-0.7-0.55c-0.133-0.367-0.017-0.634,0.35-0.801
				c0.3-0.133,0.716-0.283,1.25-0.449c0.933-0.267,1.866-0.4,2.8-0.4c-0.233-0.2-0.3-0.434-0.2-0.7l0.2-0.35l-1.3,0.2
				c-0.4,0.066-0.65-0.067-0.75-0.4c-0.167-0.267-0.117-0.533,0.15-0.8c0.233-0.233,0.667-0.517,1.3-0.851
				c1.033-0.533,2.133-0.866,3.3-1h1l-0.7-0.55c-0.767-0.566-1.833-1.116-3.2-1.649c-1.066-0.4-1.683-0.601-1.85-0.601
				c-0.333-0.1-0.5-0.35-0.5-0.75c0-0.366,0.2-0.583,0.6-0.649c0.034,0,0.367-0.017,1-0.051c0.767,0,1.534,0.067,2.3,0.2
				l-0.05-0.399c0.067-0.4,0.3-0.601,0.7-0.601c0.033-0.033,0.283-0.017,0.75,0.05c0.6,0.101,1.233,0.267,1.9,0.5
				c1.4-0.233,2.434-0.35,3.1-0.35c0.767,0,1.6,0.083,2.5,0.25l-2.2-0.8c-0.333-0.101-0.5-0.351-0.5-0.75
				c0.067-0.367,0.284-0.584,0.65-0.65l2,0.05c1.566,0.2,2.983,0.65,4.25,1.351c-0.534-0.733-1.233-1.517-2.1-2.351
				c-0.8-0.666-1.217-1.017-1.25-1.05c-0.3-0.233-0.367-0.517-0.2-0.85c0.167-0.334,0.434-0.467,0.8-0.4
				c0.066,0.033,0.7,0.267,1.9,0.7c1.4,0.634,2.533,1.483,3.4,2.55c0.9-0.399,1.8-0.583,2.7-0.55c-0.567-0.434-1.317-0.85-2.25-1.25
				l-1.2-0.45c-0.333-0.1-0.5-0.333-0.5-0.7c0-0.333,0.183-0.55,0.55-0.649c0.034,0,0.467-0.05,1.3-0.15c1.833,0,3.4,0.634,4.7,1.9
				c-0.033-0.634-0.033-1.283,0-1.95c-0.966-0.767-1.783-1.316-2.45-1.65c-0.6-0.3-1.4-0.533-2.4-0.699l-1.35-0.101
				c-0.367,0-0.6-0.166-0.7-0.5c-0.066-0.366,0.05-0.633,0.35-0.8c0.1-0.1,0.417-0.233,0.95-0.4C77.717,87.116,78.467,87,79.2,87
				c1.167,0,2.2,0.3,3.1,0.9l0.6,0.5L83,88.1c-0.567-1.3-1.033-2.216-1.4-2.75c-0.534-0.767-1.617-1.583-3.25-2.45
				c-0.367-0.167-0.483-0.433-0.35-0.8c0.1-0.367,0.333-0.55,0.7-0.55c0.066,0.034,0.616,0.133,1.65,0.3c1.2,0.3,2.2,0.733,3,1.3
				L83,81.6c-0.233-0.8-0.7-1.7-1.4-2.7l-1-1.3c-0.233-0.3-0.25-0.583-0.05-0.85c0.167-0.333,0.434-0.433,0.8-0.3
				c0.033,0.033,0.417,0.216,1.15,0.55c0.8,0.5,1.5,1.083,2.1,1.75c-0.2-0.9-0.284-1.733-0.25-2.5c0.1-1.533,0.333-3.017,0.7-4.45
				c-1.466-0.767-2.35-1.95-2.65-3.55c-0.3-1.433-0.05-2.783,0.75-4.05c0.8-1.267,1.9-2.083,3.3-2.45c0.399-0.133,0.833-0.2,1.3-0.2
				c1.233,0,2.333,0.383,3.3,1.15c0.934,0.767,1.517,1.767,1.75,3c0.3,1.433,0.05,2.8-0.75,4.1c-0.8,1.267-1.916,2.083-3.35,2.45
				h-0.2l0.25,0.95l0.45,1.1L88.6,74.75l0.65-0.35l0.3,0.5l-0.5,0.5l0.55-0.35l0.351,0.5l0.1,0.05L90.3,76l0.101-0.3
				c0.399-1.333,1.216-2.45,2.449-3.35C93.483,71.917,94.1,71.583,94.7,71.35z"/>
			<g>
				<path style="fill-rule:evenodd;clip-rule:evenodd;fill:#4E4817;" d="M82.15,120.15c0.7-0.067,1.15,0.166,1.35,0.699l0.4,0.851
					c0.233,0.733,0.367,1.483,0.4,2.25c0.034,1.233-0.316,2.366-1.05,3.399c1.767,0.301,2.533,0.75,2.3,1.351
					c-0.8,2-2.117,2.283-3.95,0.85c-0.7-0.566-1.117-0.95-1.25-1.149c-0.133-0.2-0.184-0.5-0.15-0.9c0-0.3,0.2-0.55,0.6-0.75
					c0.2-0.1,0.4-0.167,0.6-0.2c0.333-0.267,0.6-0.616,0.8-1.05c0.433-0.833,0.417-1.684-0.05-2.55c-0.333-0.601-0.517-1.2-0.55-1.8
					C81.6,120.517,81.783,120.184,82.15,120.15z"/>
				<path style="fill-rule:evenodd;clip-rule:evenodd;fill:#4E4817;" d="M99.05,122.4c0.733,0,1.217,0.233,1.45,0.699l0.4,0.75
					c0.3,0.634,0.466,1.284,0.5,1.95c0.066,1.066-0.25,2.017-0.95,2.851c1.866,0.333,2.684,0.75,2.45,1.25
					c-0.801,1.733-2.184,1.949-4.15,0.649c-0.733-0.5-1.184-0.85-1.35-1.05c-0.134-0.167-0.2-0.417-0.2-0.75
					c0-0.233,0.217-0.434,0.649-0.6c0.2-0.101,0.4-0.167,0.601-0.2l0.8-0.851c0.434-0.733,0.384-1.483-0.15-2.25
					c-0.366-0.533-0.566-1.066-0.6-1.6S98.65,122.434,99.05,122.4z"/>
				<path style="fill-rule:evenodd;clip-rule:evenodd;fill:#3BB6F9;" d="M105.1,74.8c-0.166,1.167,0.051,2.367,0.65,3.6
					c0.267,0.6,0.566,1.083,0.9,1.45c-1.867,0.133-3.101,0.117-3.7-0.05c-0.367-0.1-0.884-0.517-1.55-1.25l-0.851-1.05
					c0.066-0.267,0.2-0.633,0.4-1.1c0.366-1,0.833-2.066,1.399-3.2c0.801-1.567,1.801-2.717,3-3.45
					c0.567-0.367,1.067-0.583,1.5-0.65l1,0.25c-0.399,0.433-0.8,0.983-1.199,1.65C105.783,72.333,105.267,73.6,105.1,74.8z"/>
				<path style="fill-rule:evenodd;clip-rule:evenodd;fill:#4BFEFC;" d="M112.15,67.75c-0.134,0.9-0.551,1.617-1.25,2.15
					c-0.733,0.567-1.567,0.783-2.5,0.65c-0.934-0.133-1.684-0.566-2.25-1.3c-0.567-0.733-0.784-1.55-0.65-2.45
					c0.134-0.9,0.566-1.617,1.3-2.15c0.733-0.566,1.566-0.783,2.5-0.65c0.9,0.133,1.634,0.567,2.2,1.3
					C112.066,66.033,112.283,66.85,112.15,67.75z"/>
				<path style="fill-rule:evenodd;clip-rule:evenodd;fill:#FFFFFF;" d="M110.15,66.2c-0.034,0.4-0.217,0.716-0.551,0.95
					c-0.333,0.267-0.699,0.367-1.1,0.3c-0.4-0.034-0.733-0.217-1-0.55c-0.233-0.333-0.333-0.7-0.3-1.1
					c0.066-0.4,0.267-0.716,0.6-0.95c0.334-0.233,0.7-0.333,1.101-0.3c0.399,0.067,0.716,0.267,0.949,0.6
					C110.116,65.45,110.217,65.8,110.15,66.2z"/>
				<path style="fill-rule:evenodd;clip-rule:evenodd;fill:#706829;" d="M108.9,109.4c0.767,0.966,0.35,3.316-1.25,7.05
					c-1.9,4.399-4.733,7.767-8.5,10.1c-3.301,2.033-6.417,2.65-9.351,1.851l-3.45-1.75c-1.466,0.5-3.266,0.783-5.399,0.85
					c-4.233,0.134-7.934-0.9-11.1-3.1c-2.633-1.867-4.267-4.117-4.9-6.75l-0.15-3.4l21.7-2.9
					C101.033,109.517,108.5,108.866,108.9,109.4z"/>
				<path style="fill-rule:evenodd;clip-rule:evenodd;fill:#5A5620;" d="M64.7,115.35c0.267,0.367,0.417,0.584,0.45,0.65
					c0.833,2.4,1.267,3.616,1.3,3.65c0.9,1.533,2.667,2.85,5.3,3.949c2.2,0.934,4.367,1.051,6.5,0.351
					c2.066-0.733,3.5-2.033,4.3-3.9l5.2,1c3.6,1,5.717,2.233,6.35,3.7c0.467,1.066,0.434,2.333-0.1,3.8
					c-2,0.367-3.866,0.15-5.6-0.649l-2.051-1.25c-1.466,0.5-3.266,0.783-5.399,0.85c-4.233,0.134-7.934-0.9-11.1-3.1
					c-2.034-1.434-3.467-3.117-4.3-5.051C64.95,118.05,64.667,116.717,64.7,115.35z"/>
				<path style="fill-rule:evenodd;clip-rule:evenodd;fill:#3BB6F9;" d="M97,76.7c2.6-0.333,5.25-0.017,7.95,0.95
					c2.967,1.1,5.3,2.817,7,5.15c4.399,5.967,3.633,14.2-2.3,24.7c-2.301,4.1-2.934,6.434-1.9,7c0.267,0.134,0.634,0.283,1.1,0.45
					c0.267,0.3,0.117,0.916-0.449,1.85c-2.134,3.601-5.801,5.634-11,6.101c-2.801,0.267-8.551-0.067-17.25-1
					c-6.6-0.733-11.217-2.051-13.85-3.95c-2.367-1.733-3.267-4.101-2.7-7.101c0.867-4.666,2.917-7.8,6.15-9.399
					c2.8-1.367,6.133-1.5,10-0.4c1.933,0.566,2.95,0.834,3.05,0.8c1.067-0.267,1.317-2.05,0.75-5.35
					c-0.833-4.934-0.216-9.167,1.851-12.7C87.733,79.767,91.6,77.4,97,76.7z"/>
				<path style="fill-rule:evenodd;clip-rule:evenodd;fill:#4BFEFC;" d="M97,76.7c2.167-0.3,3.917-0.333,5.25-0.1
					c1.8,0.267,3.533,1.033,5.2,2.3c-0.334,1.3-1.934,2.017-4.8,2.15c-2.667,0.133-4.617-0.2-5.851-1
					c-1.233-0.8-2.45-1.233-3.649-1.3c-0.5-0.033-1.534,0.067-3.101,0.3C92.116,77.817,94.434,77.033,97,76.7z"/>
				<path style="fill-rule:evenodd;clip-rule:evenodd;fill:#2F84E2;" d="M112.95,90.1c0.767-0.666,1-2.066,0.7-4.2
					c2.233,5.7,0.899,12.9-4,21.6c-2.301,4.1-2.934,6.434-1.9,7c0.267,0.134,0.634,0.283,1.1,0.45c0.267,0.3,0.117,0.916-0.449,1.85
					c-2.134,3.601-5.801,5.634-11,6.101c-2.801,0.267-8.551-0.067-17.25-1c-6.6-0.733-11.217-2.051-13.85-3.95
					c-2.367-1.733-3.267-4.101-2.7-7.101l0.3-1.449c0.733,2.333,2.467,4.233,5.2,5.699c2.7,1.434,5.017,1.733,6.95,0.9
					c2.067-0.866,3.483-1.767,4.25-2.7c0.367-0.434,0.534-0.8,0.5-1.1l0.6,2.399c0.633,1.4,1.583,1.551,2.85,0.45
					c1.2-1.033,2.333-1.85,3.4-2.45c1.3-0.699,2-1.083,2.1-1.149l2.85-2.101c-1.633-0.366-3.333-1.383-5.1-3.05
					c-1.134-1.033-1.934-1.883-2.4-2.55l-0.45-0.85l2.2,2.25c1.801,1.233,3.534,1.183,5.2-0.15c1.233-1,2.267-2.833,3.101-5.5
					c0.866-2.833,2.233-5.134,4.1-6.9c1.4-1.3,3.184-2.133,5.35-2.5c1.834-0.3,3.601-0.216,5.301,0.25
					C111.333,90.684,112.35,90.6,112.95,90.1z"/>
				<path style="fill-rule:evenodd;clip-rule:evenodd;fill:#706829;" d="M109.8,93.85c2.4,0.9,3.45,2.917,3.15,6.051
					c-0.2,2.267-0.851,4.366-1.95,6.3l-1.6,2.2l0.3,2.899c-0.033,2.533-0.634,5.283-1.8,8.25c-1.534,3.867-4.45,6.634-8.75,8.3
					c-4.667,1.834-8.983,1.351-12.95-1.449c-2.167-1.534-2-4.15,0.5-7.851c2-2.934,4.25-5.217,6.75-6.85
					c2-1.3,3.583-2.167,4.75-2.601c0.566-0.199,0.934-0.267,1.1-0.199c-0.267-1.467-0.35-3.117-0.25-4.95
					c0.233-3.601,1.316-6.25,3.25-7.95C104.9,93.7,107.4,92.983,109.8,93.85z"/>
				<path style="fill-rule:evenodd;clip-rule:evenodd;fill:#5A5620;" d="M110.9,94.5c1.6,1.1,2.283,2.9,2.05,5.4
					c-0.2,2.267-0.851,4.366-1.95,6.3l-1.6,2.2l0.3,2.899c-0.033,2.533-0.634,5.283-1.8,8.25c-1.534,3.867-4.45,6.634-8.75,8.3
					c-4.667,1.834-8.983,1.351-12.95-1.449c-1.101-0.801-1.567-1.884-1.4-3.25c0.167-0.167,0.25-0.184,0.25-0.051l0.7,1.25
					c0.667,0.867,1.45,1.384,2.35,1.551c1.767,0.3,3.584,0.35,5.45,0.149c3.101-0.366,5.684-1.467,7.75-3.3
					c2-1.8,3.217-4.533,3.65-8.2l0.05-4.899l-1.3-0.101c-0.934,0-1.95-0.1-3.05-0.3L99.3,108.9c-0.233-1.267-0.316-2.717-0.25-4.351
					c1.033,1.601,2.517,2.267,4.45,2s3.816-1.383,5.65-3.35C111.517,100.667,112.1,97.767,110.9,94.5z"/>
				<path style="fill-rule:evenodd;clip-rule:evenodd;fill:#827B30;" d="M95.85,112.85c2.2-1.3,3.584-1.366,4.15-0.199
					c0.434,0.866,0.4,1.983-0.1,3.35c-0.434,1.233-1.4,2.417-2.9,3.55c-1.833,1.434-3.7,1.983-5.6,1.65
					c-1.934-0.334-2.134-1.584-0.601-3.75C92.167,115.55,93.85,114.017,95.85,112.85z"/>
				<path style="fill-rule:evenodd;clip-rule:evenodd;fill:#827B30;" d="M105.75,95.85c1.866-0.133,2.05,1.084,0.55,3.65
					c-1.5,2.6-2.783,3.533-3.85,2.8c-1-0.666-1-1.899,0-3.7C103.45,96.833,104.55,95.917,105.75,95.85z"/>
				<path style="fill-rule:evenodd;clip-rule:evenodd;fill:#595097;" d="M95.95,80.7c0.666,0.9,0.767,1.9,0.3,3
					c-0.566,1.3-1.816,2.467-3.75,3.5c-2.8,1.5-4.566,1.133-5.3-1.101c-0.733-2.167-0.184-3.95,1.649-5.35
					c1.367-1.033,2.75-1.517,4.15-1.45C94.3,79.367,95.283,79.833,95.95,80.7z"/>
				<path style="fill-rule:evenodd;clip-rule:evenodd;fill:#2F84E2;" d="M75.45,101.55c3.167,0.434,4.3,1.617,3.4,3.55
					c-0.867,1.867-3,3.084-6.4,3.65c-2.767,0.467-4.7,0.467-5.8,0l-0.85-0.85l1-2.051c0.534-1.033,1.733-2.05,3.6-3.05
					C72.367,101.767,74.05,101.35,75.45,101.55z"/>
				<path style="fill-rule:evenodd;clip-rule:evenodd;fill:#2F84E2;" d="M84.2,103.45l3.3,2.85c-0.1,0.467-0.483,1-1.15,1.601
					c-0.633,0.566-1.55,0.783-2.75,0.649c-1.367-0.133-2.4-0.767-3.1-1.899c-0.733-1.267-0.65-2.267,0.25-3
					C81.65,102.884,82.8,102.816,84.2,103.45z"/>
				<path style="fill-rule:evenodd;clip-rule:evenodd;fill:#2F84E2;" d="M83.9,91.75c0.067-2.167,0.533-3.783,1.4-4.85
					c0.3-0.367,0.566-0.567,0.8-0.601c0.233,0,0.317,0.184,0.25,0.55c-0.433,0.733-0.767,1.301-1,1.7
					c-0.466,0.834-0.183,0.483,0.851-1.05c1.3-1.867,2.217,0.116,2.75,5.95c0.533,5.833,0.05,8.866-1.45,9.1
					c-1.366,0.233-2.366-0.866-3-3.3C84.033,97.316,83.833,94.816,83.9,91.75z"/>
				<path style="fill-rule:evenodd;clip-rule:evenodd;fill:#4BFEFC;" d="M74.3,102.7c1.934,0.2,1.8,1.066-0.4,2.6
					c-2.233,1.533-4.05,2.017-5.45,1.45c-0.9-0.366-0.5-1.167,1.2-2.4C71.35,103.116,72.9,102.566,74.3,102.7z"/>
				<path style="fill-rule:evenodd;clip-rule:evenodd;fill:#4BFEFC;" d="M84.05,103.95c0.333,0.6,0.967,1.116,1.9,1.55
					c-0.267,0.233-0.601,0.434-1,0.6c-0.833,0.367-1.6,0.367-2.3,0c-1.033-0.5-1.15-1.116-0.35-1.85
					C83.133,103.45,83.717,103.35,84.05,103.95z"/>
				<path style="fill-rule:evenodd;clip-rule:evenodd;fill:#4BFEFC;" d="M87.2,89.9c0.267,1.399,0.316,3.267,0.149,5.6
					c-0.199,2.667-0.666,3.634-1.399,2.9c-0.767-0.767-1.217-2.351-1.35-4.75c-0.167-2.233-0.05-3.7,0.35-4.4
					c0.434-0.767,0.833-1.167,1.2-1.2C86.616,87.983,86.967,88.6,87.2,89.9z"/>
				<path style="fill-rule:evenodd;clip-rule:evenodd;fill:#595097;" d="M85.5,87.2c0.434-1.3,0.85-2.117,1.25-2.45
					c0.2-0.167,0.35-0.2,0.45-0.1l0.25,2.6c0.1,1.1,0.733,2.134,1.899,3.1c0.601,0.5,1.184,0.884,1.75,1.15
					c-0.899,0.1-1.733,0.05-2.5-0.15c-0.466-0.1-0.949-0.383-1.449-0.85l-0.601-0.65l-0.1,0.851c-0.033,0.767,0.066,1.583,0.3,2.45
					c0.366,1.399,1.634,2.983,3.8,4.75c-0.3,0-1.05-0.25-2.25-0.75c-0.733-0.334-1.383-0.817-1.95-1.45l-0.6-0.851l-0.4,1.75
					c-0.133,0.634-0.166,1.434-0.1,2.4c0.434-0.634,1-0.917,1.7-0.85c0.666,0.1,1.033,0.466,1.1,1.1c0.101,0.767,0.55,1.434,1.351,2
					c0.399,0.3,0.783,0.517,1.149,0.65c-0.866,0.1-1.6,0.116-2.2,0.05c-0.366-0.033-0.733-0.15-1.1-0.351l-0.45-0.3l0.05,0.8
					c0.034,0.667,0.117,1.233,0.25,1.7c0.233,0.767,1.034,1.65,2.4,2.65c-0.4,0.1-0.9,0.033-1.5-0.2
					c0.134,0.866,0.017,1.55-0.35,2.05c-0.301,0.434-0.884,0.8-1.75,1.101l-1.15,0.8c-0.967,0.533-2.033,0.833-3.2,0.899L80.1,111
					l0.6-0.2c0.5-0.166,0.983-0.399,1.45-0.7c0.767-0.433,1.067-0.833,0.9-1.199c-0.433,0.333-1.233,0.416-2.4,0.25
					c-0.9-0.134-1.633-0.4-2.2-0.801l-0.05,0.101c-0.5,0.166-1.2,0.3-2.1,0.399L75.9,109l-0.55-0.05h-0.1
					c-0.867,0.033-1.85,0.6-2.95,1.7l-1.4,1.699l0.6-1.35c0.167-0.434,0.383-0.833,0.65-1.2L71.4,110
					c-0.533,0.167-1.066,0.634-1.6,1.4l-0.65,1.1c0-0.3,0.017-0.65,0.05-1.05c0.066-0.767,0.2-1.3,0.4-1.601l-0.4,0.051
					c-0.567,0.1-1.2,0.466-1.9,1.1l-0.9,0.9l0.3-0.801c0.1-0.3,0.267-0.616,0.5-0.949c0.1-0.134,0.2-0.25,0.3-0.351l-1.05-0.2
					c-0.434-0.066-1.15-0.017-2.15,0.15L62.9,110l0.6-0.5c0.533-0.333,1.083-0.6,1.65-0.8l-1.05-0.25
					c-0.867-0.2-1.817-0.117-2.85,0.25l-1.3,0.649l0.3-0.449c0.3-0.334,0.75-0.65,1.35-0.95c0.667-0.334,1.633-0.417,2.9-0.25
					c1.233,0.133,2.183,0.434,2.85,0.899c1.2,0,2.117,0.217,2.75,0.65c0.8-0.733,1.583-0.934,2.35-0.6l0.4,0.149l0.25-0.3
					c-0.9-0.2-1.467-0.6-1.7-1.2l-0.1-0.8l1.45,0.35c0.467,0.134,1.283,0.233,2.45,0.301l0.45-0.101l0.55,0.101l1.2-0.051
					l-0.75-1.35l1.7,0.75c0.533,0.233,1.117,0.417,1.75,0.55c-0.534-0.533-0.934-1.149-1.2-1.85l-0.25-0.9l1.55,1.05
					c1.333,0.801,2.65,1.4,3.95,1.801c1.067-0.134,1.734-0.167,2-0.101c0.267-0.967,0.416-1.5,0.449-1.6
					c-0.533-0.467-0.983-1.217-1.35-2.25l-0.4-1.351c-0.1-0.533-0.117-1.05-0.05-1.55c-0.367-0.533-0.566-1.366-0.6-2.5
					c-0.067-1.267,0.05-2.45,0.35-3.55L85,93C84.633,91.2,84.8,89.267,85.5,87.2z"/>
				<path style="fill-rule:evenodd;clip-rule:evenodd;fill:#595097;" d="M62.7,107.1c1.033,0.334,1.8,0.801,2.3,1.4
					c0.267,0.3,0.417,0.566,0.45,0.8c-1.6-0.7-3.034-1.217-4.3-1.55c-0.8-0.2-1.816-0.3-3.05-0.3l-1.6,0.05l1.9-0.6
					C59.967,106.6,61.4,106.667,62.7,107.1z"/>
				<path style="fill-rule:evenodd;clip-rule:evenodd;fill:#595097;" d="M61.75,108.3c1.1-0.033,1.983,0.15,2.65,0.55
					c0.333,0.2,0.567,0.4,0.7,0.601c-1.733-0.134-3.25-0.134-4.55,0c-0.8,0.1-1.8,0.35-3,0.75l-1.5,0.55l1.6-1.2
					C59.017,108.75,60.383,108.333,61.75,108.3z"/>
				<path style="fill-rule:evenodd;clip-rule:evenodd;fill:#595097;" d="M77.8,97.5c0.233,0.566,0.417,1.184,0.55,1.85
					c0.8,0.067,1.517,0.2,2.15,0.4c0.733,0.3,1.267,0.583,1.6,0.85c-0.4-0.5-0.767-0.899-1.1-1.199
					C80.333,98.733,79.267,98.1,77.8,97.5z M78.1,92.95l-1.4-0.55l1.85-0.101c1.434,0.167,2.667,0.767,3.7,1.8
					c0.8,0.834,1.316,1.733,1.55,2.7c0.133,0.5,0.184,0.9,0.15,1.2l-0.05-0.1l0.05,0.199c-1.3-0.699-2.467-1.216-3.5-1.55
					c-0.934-0.267-2.034-0.35-3.3-0.25l0.45,0.851c2.2,0,3.9,0.683,5.1,2.05c1,1.1,1.433,2.283,1.3,3.55l0.1,0.25
					c-2.034-1-3.85-1.7-5.45-2.1l-0.25-0.051c-0.066,0.667-0.217,1.167-0.45,1.5l-0.1-0.149L76.3,100.6l-1.45,0.051
					c0.3,0.399,0.466,0.75,0.5,1.05c-0.5-0.3-1.117-0.617-1.85-0.95l-0.6,0.05l0.35-0.2c-0.967-0.466-1.95-0.883-2.95-1.25
					c-0.933-0.333-2.15-0.583-3.65-0.75l-2-0.199l2.4-0.4c1.934-0.167,3.667,0.1,5.2,0.8c0.8,0.334,1.483,0.75,2.05,1.25l1-0.35
					l-1.6-1.25c-0.8-0.601-1.917-1.184-3.35-1.75L68.5,96l2.5,0.15c1.9,0.333,3.5,1.066,4.8,2.199c0.434,0.4,0.767,0.75,1,1.051
					h0.05L75.7,97c-0.5-0.9-1.3-1.884-2.4-2.95l-1.5-1.3l1.9,0.7c1.433,0.7,2.55,1.616,3.35,2.75c1.5-0.867,3-1,4.5-0.4
					c0.534,0.267,0.9,0.483,1.1,0.65c-0.533-0.634-1.183-1.3-1.95-2C80.066,93.917,79.2,93.417,78.1,92.95z"/>
				<path style="fill-rule:evenodd;clip-rule:evenodd;fill:#595097;" d="M83.9,91.75c-1.267-1.134-2.433-1.967-3.5-2.5
					c-0.667-0.366-1.533-0.616-2.6-0.75l-1.45-0.15l1.8-0.6c1.434-0.233,2.684,0.017,3.75,0.75c0.833,0.566,1.417,1.283,1.75,2.15
					C83.816,91.083,83.9,91.45,83.9,91.75z"/>
				<path style="fill-rule:evenodd;clip-rule:evenodd;fill:#595097;" d="M85.45,82.15c0.3,1.7,0.017,3.083-0.85,4.15
					c0.1,0.934-0.133,1.684-0.7,2.25c-0.467-1.434-1.05-2.633-1.75-3.6c-0.4-0.567-1.1-1.184-2.1-1.85l-1.4-0.85l2.3,0.5
					c1.633,0.533,2.733,1.333,3.3,2.4l0.05,0.2c-0.167-1.767-0.383-3.067-0.65-3.9c-0.233-0.867-0.733-1.85-1.5-2.95l-1.05-1.4
					l1.95,1.15C84.417,79.317,85.217,80.617,85.45,82.15z"/>
				<path style="fill-rule:evenodd;clip-rule:evenodd;fill:#595097;" d="M99.35,72.45c1.067-0.067,1.967-0.017,2.7,0.15
					c-2.434,0.533-4.434,1.316-6,2.35c-1.133,0.733-2.6,1.9-4.399,3.5l-0.2,0.8l-0.2-0.4l-0.3,0.2l0.1-0.6
					c-0.267-0.7-0.267-1.55,0-2.55c0.367-1.167,1.117-2.15,2.25-2.95c0.566-0.434,1.101-0.733,1.601-0.9
					c-0.301,0.3-0.617,0.65-0.95,1.05c-0.7,0.833-1.184,1.583-1.45,2.25L92.3,76c0.434-0.533,0.95-1.033,1.55-1.5
					C95.417,73.267,97.25,72.583,99.35,72.45z"/>
				<path style="fill-rule:evenodd;clip-rule:evenodd;fill:#595097;" d="M63.5,97.95c1,0.233,1.983,0.633,2.95,1.2
					c1.5,0.933,2.55,2.116,3.15,3.55c0.333,0.733-0.233,1.283-1.7,1.649v0.45l-0.4-0.35h-0.2l-0.05,0.6
					c-0.067,0.4-0.55,0.667-1.45,0.8c-0.767,0.334-1.617,0.5-2.55,0.5c-0.567,0-1.167-0.133-1.8-0.399l-0.75-0.45l1.3-0.15
					c0.833-0.066,1.767-0.199,2.8-0.399c-0.433-0.5-1.066-0.783-1.9-0.851c-0.533-0.066-1.383-0.033-2.55,0.101l-1.55,0.25
					l1.15-0.75c0.966-0.5,1.983-0.8,3.05-0.9c1.066-0.1,1.983,0,2.75,0.3c0.367,0.167,0.633,0.334,0.8,0.5v-0.149
					c-0.867-0.867-1.833-1.7-2.9-2.5c-0.8-0.601-1.917-1.167-3.35-1.7l-1.9-0.65l2.5,0.051c1.934,0.267,3.55,0.966,4.85,2.1L66,101
					c-0.1-0.333-0.25-0.65-0.45-0.95c-0.4-0.7-1.066-1.283-2-1.75l-1.3-0.55L63.5,97.95z"/>
				<path style="fill-rule:evenodd;clip-rule:evenodd;fill:#3BB6F9;" d="M87.75,71.65c0.1,1.867,0.884,3.583,2.35,5.15
					c1.467,1.534,2.7,2.55,3.7,3.05l0.65,1.9c-0.033,1.433-1.134,2.583-3.3,3.45c-1.367,0.533-2.467,0.35-3.301-0.55L87,83.15
					c-0.366-0.633-0.717-1.4-1.05-2.3c-0.667-1.767-0.967-3.283-0.9-4.55c0.134-2.033,0.483-3.85,1.05-5.45L86.9,69.1l1.149,0.2
					L87.75,71.65z"/>
				<path style="fill-rule:evenodd;clip-rule:evenodd;fill:#3098D0;" d="M87.5,74.8c-0.5-1.867-0.7-3.767-0.6-5.7l1.1,0.3
					c-0.233,0.8-0.3,1.667-0.2,2.6c0.167,1.733,0.934,3.333,2.3,4.8c1.467,1.534,2.7,2.55,3.7,3.05l0.55,1.3
					c0.2,1.033-0.133,1.95-1,2.75c0.101-0.867-0.216-1.767-0.949-2.7c-0.601-0.8-1.384-1.517-2.351-2.15
					C88.95,78.317,88.1,76.9,87.5,74.8z"/>
				<path style="fill-rule:evenodd;clip-rule:evenodd;fill:#4BFEFC;" d="M92.15,65.85c0.267,1.267,0.05,2.45-0.65,3.55
					c-0.733,1.1-1.717,1.817-2.95,2.15c-1.233,0.333-2.399,0.167-3.5-0.5c-1.066-0.7-1.733-1.683-2-2.95
					c-0.233-1.267,0-2.45,0.7-3.55c0.7-1.1,1.667-1.816,2.9-2.15c1.233-0.3,2.399-0.117,3.5,0.55
					C91.217,63.617,91.884,64.583,92.15,65.85z"/>
				<path style="fill-rule:evenodd;clip-rule:evenodd;fill:#FFFFFF;" d="M88.8,64.9c0.134,0.533,0.05,1.05-0.25,1.55
					s-0.733,0.816-1.3,0.95s-1.083,0.05-1.55-0.25c-0.467-0.3-0.75-0.717-0.85-1.25c-0.133-0.566-0.05-1.1,0.25-1.6
					c0.301-0.466,0.733-0.783,1.301-0.95c0.566-0.133,1.083-0.05,1.55,0.25C88.417,63.9,88.7,64.333,88.8,64.9z"/>
				<path style="fill-rule:evenodd;clip-rule:evenodd;fill:#5A5620;" d="M91.35,126.05c0.867,0.467,1.25,0.816,1.15,1.05l0.1,1.051
					c0.034,0.833-0.1,1.6-0.399,2.3c-0.434,1.133-1.283,1.899-2.55,2.3c1.966,0.767,2.75,1.4,2.35,1.9
					c-1.733,2.033-3.467,1.683-5.2-1.051c-0.633-0.966-0.983-1.6-1.05-1.899c-0.066-0.233,0-0.533,0.2-0.9
					c0.133-0.233,0.467-0.3,1-0.2c0.3,0.034,0.566,0.101,0.8,0.2l1.4-0.35c0.866-0.467,1.166-1.267,0.899-2.4
					c-0.133-0.733-0.066-1.316,0.2-1.75C90.517,125.9,90.884,125.816,91.35,126.05z"/>
				<path style="fill-rule:evenodd;clip-rule:evenodd;fill:#5A5620;" d="M70.9,124.5c0.267-0.3,0.65-0.35,1.15-0.15
					c0.8,0.301,1.133,0.634,1,1l0.1,0.15c0.033,0.2-0.017,0.616-0.15,1.25c-0.233,1-0.883,1.75-1.95,2.25
					c1.833,0.467,2.617,0.917,2.35,1.35c-1.233,1.934-2.8,1.817-4.7-0.35c-0.667-0.767-1.067-1.267-1.2-1.5
					c-0.1-0.233-0.1-0.5,0-0.8c0.1-0.233,0.4-0.334,0.9-0.3c0.267,0,0.517,0.033,0.75,0.1h1.15c0.733-0.2,0.917-0.767,0.55-1.7
					C70.617,125.2,70.633,124.767,70.9,124.5z"/>
				<path style="fill-rule:evenodd;clip-rule:evenodd;fill:#4E4817;" d="M110.2,113.1c0.633,0.5,0.767,1.134,0.399,1.9
					c-0.366,0.767-0.966,1.15-1.8,1.15c-1.666,0-2.85,0.966-3.55,2.899c-0.366,0.967-0.816,1.101-1.35,0.4
					c-0.467-0.667-0.733-1.65-0.801-2.95c-0.066-1.2,0.867-2.25,2.801-3.15C107.8,112.417,109.233,112.333,110.2,113.1z"/>
				<path style="fill-rule:evenodd;clip-rule:evenodd;fill:#5A5620;" d="M96.5,110.95c0.5-0.033,1.167,0.333,2,1.1
					c0.9,0.834,1.667,1.267,2.3,1.3c0.533,0.034,1.533-0.233,3-0.8c1.167-0.5,1.934-0.533,2.3-0.1c0.534,0.566,0.934,1.416,1.2,2.55
					c0.3,1.1,0.283,1.816-0.05,2.15c-0.233,0.267-0.533,0.216-0.9-0.15c-0.399-0.533-0.733-0.9-1-1.1
					c-0.3-0.267-0.899-0.334-1.8-0.2c-1.166,0.233-2.083,0.383-2.75,0.45c-1.899,0.233-3.767-0.483-5.6-2.15
					c-0.767-0.733-0.95-1.417-0.55-2.05C94.983,111.35,95.6,111.017,96.5,110.95z"/>
			</g>
		</g>
		<g>
			<g>
				<g>
					<g>
						<g>
							<g>
								
									<linearGradient id="SVGID_10_" gradientUnits="userSpaceOnUse" x1="-77.668" y1="40.2813" x2="-44.7668" y2="40.2813" gradientTransform="matrix(-0.1033 -0.9946 0.9946 -0.1033 6.367266e-005 5.077720e-004)">
									<stop  offset="0" style="stop-color:#1E7B6A"/>
									<stop  offset="0.7098" style="stop-color:#9FE0B8"/>
								</linearGradient>
								<path style="fill-rule:evenodd;clip-rule:evenodd;fill:url(#SVGID_10_);" d="M48.15,41.65c1.333-0.967,2.817-1.65,4.45-2.05
									s3.133-0.45,4.5-0.15c0.867,0.066,1.517,0.383,1.95,0.95l0.05,0.05c1,1.333,1.167,3.033,0.5,5.1
									c-0.4,1.2-0.983,2.333-1.75,3.4c-1.833,2.767-3.817,4.583-5.95,5.45l-0.45,0.15H51.3c-0.1,0.5-0.316,1.117-0.65,1.85
									c-1.233,3.033-2.833,5.2-4.8,6.5l-0.2,0.15l-0.1,2.2c-0.333,3.267-1.25,5.8-2.75,7.6l-0.4,0.4l-0.25,0.15
									c-0.2,0.133-0.5,0.267-0.9,0.4c-0.367,0.034-0.767,0-1.2-0.1c-0.933-0.3-1.7-0.85-2.3-1.65L37.1,72.4l-0.55,0.2l-0.25,0.05
									c-0.767,0.167-1.45-0.033-2.05-0.6c-1.167-1.033-1.733-2.5-1.7-4.4c0-1.467,0.317-2.9,0.95-4.3
									c0.967-1.934,2.283-3.483,3.95-4.65c-0.4-1.233-0.3-2.633,0.3-4.2c0.433-1.233,1.083-2.35,1.95-3.35
									c1.267-1.433,2.833-2.517,4.7-3.25c0.033-1.167,0.483-2.383,1.35-3.65C46.417,43.25,47.217,42.383,48.15,41.65z"/>
								<path style="fill-rule:evenodd;clip-rule:evenodd;fill:none;stroke:#DBF0E8;stroke-width:0.25;" d="M48.15,41.65
									c-0.933,0.733-1.733,1.6-2.4,2.6c-0.867,1.267-1.317,2.483-1.35,3.65c-1.867,0.733-3.433,1.817-4.7,3.25
									c-0.867,1-1.517,2.117-1.95,3.35c-0.6,1.567-0.7,2.967-0.3,4.2c-1.667,1.167-2.983,2.716-3.95,4.65
									c-0.633,1.4-0.95,2.833-0.95,4.3c-0.033,1.9,0.534,3.367,1.7,4.4c0.6,0.567,1.283,0.767,2.05,0.6l0.25-0.05l0.55-0.2
									l0.65-0.35c0.6,0.8,1.367,1.35,2.3,1.65c0.434,0.1,0.833,0.133,1.2,0.1c0.4-0.133,0.7-0.267,0.9-0.4l0.25-0.15l0.4-0.4
									c1.5-1.8,2.417-4.333,2.75-7.6l0.1-2.2l0.2-0.15c1.966-1.3,3.566-3.467,4.8-6.5c0.333-0.733,0.55-1.35,0.65-1.85h0.15
									l0.45-0.15c2.133-0.867,4.117-2.683,5.95-5.45c0.767-1.067,1.35-2.2,1.75-3.4c0.667-2.066,0.5-3.767-0.5-5.1l-0.05-0.05
									c-0.433-0.566-1.083-0.883-1.95-0.95c-1.367-0.3-2.867-0.25-4.5,0.15S49.483,40.683,48.15,41.65z"/>
							</g>
						</g>
						<path style="fill-rule:evenodd;clip-rule:evenodd;fill:#1C3330;" d="M49.2,43c1.133-0.833,2.433-1.417,3.9-1.75
							c1.4-0.333,2.683-0.35,3.85-0.05H57c0.267-0.034,0.517,0.066,0.75,0.3c0.6,0.8,0.7,1.9,0.3,3.3
							c-0.333,1.1-0.867,2.15-1.6,3.15c-1.567,2.466-3.3,4.083-5.2,4.85l-0.15,0.05h-0.05L51,52.9h-0.05
							c-0.2,0-0.417-0.083-0.65-0.25L50,52.3c-0.1,1.133-0.4,2.267-0.9,3.4c-1.167,2.767-2.567,4.7-4.2,5.8l-0.3,0.1l-0.05,0.05
							c-0.2,0-0.4-0.05-0.6-0.15l-0.3-0.25c0.3,1.133,0.35,2.383,0.15,3.75c-0.2,2.9-0.966,5.15-2.3,6.75
							c-0.033,0.1-0.1,0.15-0.2,0.15l-0.05,0.05l-0.3,0.15l-0.35-0.05c-1.034-0.367-1.817-1.233-2.35-2.6
							c-0.667,0.633-1.317,1.1-1.95,1.4l-0.2,0.1H36c-0.233,0.066-0.434,0.017-0.6-0.15c-0.833-0.733-1.2-1.867-1.1-3.4
							c0.067-1.133,0.333-2.25,0.8-3.35c1.167-2.4,2.833-4.033,5-4.9h-0.2c-0.233-0.066-0.417-0.183-0.55-0.35
							c-0.567-0.933-0.6-2.117-0.1-3.55c0.4-1.1,0.983-2.1,1.75-3c1.533-1.633,3.316-2.667,5.35-3.1L46.3,49.1
							c-0.367-1-0.15-2.167,0.65-3.5C47.517,44.633,48.267,43.767,49.2,43z"/>
						<g>
							<g>
								<g>
									<g>
										<g>
											<g>
												<g>
													
														<linearGradient id="SVGID_11_" gradientUnits="userSpaceOnUse" x1="-1.7363" y1="69.417" x2="9.9507" y2="69.417" gradientTransform="matrix(0.7017 -0.7124 0.7124 0.7017 -1.586676e-004 0)">
														<stop  offset="0" style="stop-color:#58E1A8"/>
														<stop  offset="0.1216" style="stop-color:#53CC98"/>
														<stop  offset="0.3922" style="stop-color:#49A378"/>
														<stop  offset="0.6353" style="stop-color:#428560"/>
														<stop  offset="0.8471" style="stop-color:#3E7352"/>
														<stop  offset="1" style="stop-color:#3C6C4D"/>
													</linearGradient>
													<path style="fill-rule:evenodd;clip-rule:evenodd;fill:url(#SVGID_11_);" d="M50.8,45.05c1.767-2,3.767-3.017,6-3.05
														c0.167,0.733-0.167,1.583-1,2.55c-0.633,0.767-1.417,1.434-2.35,2c-2.467,1.567-4.583,2.333-6.35,2.3
														c0.233-0.267,0.8-0.85,1.7-1.75C49.733,46.2,50.4,45.517,50.8,45.05z"/>
													<path style="fill-rule:evenodd;clip-rule:evenodd;fill:#DEF3EA;" d="M47.05,48.85c-0.3-0.767-0.133-1.7,0.5-2.8
														c0.534-0.933,1.233-1.75,2.1-2.45c1.067-0.767,2.233-1.3,3.5-1.6c1.333-0.333,2.55-0.35,3.65-0.05
														c-0.9,0.033-1.8,0.35-2.7,0.95c-0.534,0.333-1.3,0.95-2.3,1.85C50.1,46.517,48.517,47.883,47.05,48.85z"/>
												</g>
												<g>
													
														<linearGradient id="SVGID_12_" gradientUnits="userSpaceOnUse" x1="-29.9805" y1="67.9985" x2="-18.3045" y2="67.9985" gradientTransform="matrix(0.364 -0.9314 0.9314 0.364 4.439950e-004 -5.805492e-005)">
														<stop  offset="0" style="stop-color:#58E1A8"/>
														<stop  offset="0.1216" style="stop-color:#53CC98"/>
														<stop  offset="0.3922" style="stop-color:#49A378"/>
														<stop  offset="0.6353" style="stop-color:#428560"/>
														<stop  offset="0.8471" style="stop-color:#3E7352"/>
														<stop  offset="1" style="stop-color:#3C6C4D"/>
													</linearGradient>
													<path style="fill-rule:evenodd;clip-rule:evenodd;fill:url(#SVGID_12_);" d="M52.85,47.15
														c0.833-2.533,2.25-4.25,4.25-5.15c0.5,0.6,0.55,1.517,0.15,2.75c-0.3,0.933-0.767,1.85-1.4,2.75
														c-1.6,2.4-3.233,3.933-4.9,4.6c0.1-0.333,0.4-1.083,0.9-2.25C52.35,48.65,52.683,47.75,52.85,47.15z"/>
													<path style="fill-rule:evenodd;clip-rule:evenodd;fill:#DEF3EA;" d="M50.85,52.15c-0.567-0.633-0.767-1.566-0.6-2.8
														c0.133-1.033,0.467-2.05,1-3.05c0.667-1.133,1.517-2.1,2.55-2.9c1.1-0.8,2.2-1.283,3.3-1.45
														c-0.8,0.4-1.5,1.05-2.1,1.95c-0.367,0.533-0.817,1.4-1.35,2.6C52.683,48.933,51.75,50.817,50.85,52.15z"/>
												</g>
											</g>
										</g>
									</g>
								</g>
							</g>
							<g>
								<g>
									<g>
										<g>
											<g>
												<g>
													
														<linearGradient id="SVGID_13_" gradientUnits="userSpaceOnUse" x1="-26.7217" y1="67.1777" x2="-15.0451" y2="67.1777" gradientTransform="matrix(0.5502 -0.835 0.835 0.5502 -5.574822e-004 -1.654625e-004)">
														<stop  offset="0" style="stop-color:#58E1A8"/>
														<stop  offset="0.1216" style="stop-color:#53CC98"/>
														<stop  offset="0.3922" style="stop-color:#49A378"/>
														<stop  offset="0.6353" style="stop-color:#428560"/>
														<stop  offset="0.8471" style="stop-color:#3E7352"/>
														<stop  offset="1" style="stop-color:#3C6C4D"/>
													</linearGradient>
													<path style="fill-rule:evenodd;clip-rule:evenodd;fill:url(#SVGID_13_);" d="M48.25,49.75
														c0.333,0.7,0.183,1.617-0.45,2.75c-0.5,0.867-1.15,1.667-1.95,2.4c-2.034,1.967-3.95,3.133-5.75,3.5
														c0.167-0.3,0.6-0.967,1.3-2c0.733-1.066,1.25-1.883,1.55-2.45C44.283,51.717,46.05,50.317,48.25,49.75z"/>
													<path style="fill-rule:evenodd;clip-rule:evenodd;fill:#DEF3EA;" d="M40,58.4c-0.434-0.7-0.434-1.65,0-2.85
														c0.333-1.033,0.867-1.966,1.6-2.8c0.9-0.967,1.933-1.717,3.1-2.25c1.233-0.567,2.417-0.817,3.55-0.75
														c-0.867,0.233-1.684,0.717-2.45,1.45c-0.533,0.5-1.167,1.267-1.9,2.3C42.367,55.733,41.066,57.367,40,58.4z"/>
												</g>
												<g>
													
														<linearGradient id="SVGID_14_" gradientUnits="userSpaceOnUse" x1="-52.0747" y1="56.0488" x2="-40.3934" y2="56.0488" gradientTransform="matrix(0.1755 -0.9845 0.9845 0.1755 3.058761e-004 4.307628e-004)">
														<stop  offset="0" style="stop-color:#58E1A8"/>
														<stop  offset="0.1216" style="stop-color:#53CC98"/>
														<stop  offset="0.3922" style="stop-color:#49A378"/>
														<stop  offset="0.6353" style="stop-color:#428560"/>
														<stop  offset="0.8471" style="stop-color:#3E7352"/>
														<stop  offset="1" style="stop-color:#3C6C4D"/>
													</linearGradient>
													<path style="fill-rule:evenodd;clip-rule:evenodd;fill:url(#SVGID_14_);" d="M48.6,49.7c0.566,0.5,0.783,1.4,0.65,2.7
														c-0.1,0.967-0.383,1.95-0.85,2.95c-1.033,2.633-2.333,4.467-3.9,5.5c0.033-0.367,0.167-1.167,0.4-2.4
														c0.233-1.3,0.383-2.25,0.45-2.85C45.717,52.967,46.8,51,48.6,49.7z"/>
													<path style="fill-rule:evenodd;clip-rule:evenodd;fill:#DEF3EA;" d="M44.4,60.9c-0.667-0.5-1.05-1.367-1.15-2.6
														c-0.067-1.1,0.066-2.183,0.4-3.25c0.434-1.233,1.083-2.333,1.95-3.3c0.9-1,1.883-1.683,2.95-2.05
														c-0.7,0.533-1.267,1.3-1.7,2.3c-0.233,0.567-0.5,1.517-0.8,2.85C45.55,57.483,45,59.5,44.4,60.9z"/>
												</g>
											</g>
										</g>
									</g>
								</g>
							</g>
							<g>
								<g>
									<g>
										<g>
											<g>
												<g>
													
														<linearGradient id="SVGID_15_" gradientUnits="userSpaceOnUse" x1="-56.9019" y1="56.1958" x2="-45.2355" y2="56.1958" gradientTransform="matrix(0.2872 -0.9579 0.9579 0.2872 -3.366470e-004 1.502633e-004)">
														<stop  offset="0" style="stop-color:#58E1A8"/>
														<stop  offset="0.1216" style="stop-color:#53CC98"/>
														<stop  offset="0.3922" style="stop-color:#49A378"/>
														<stop  offset="0.6353" style="stop-color:#428560"/>
														<stop  offset="0.8471" style="stop-color:#3E7352"/>
														<stop  offset="1" style="stop-color:#3C6C4D"/>
													</linearGradient>
													<path style="fill-rule:evenodd;clip-rule:evenodd;fill:url(#SVGID_15_);" d="M41.3,59.6
														c0.5,0.566,0.617,1.483,0.35,2.75c-0.2,0.967-0.583,1.917-1.15,2.85c-1.434,2.5-2.95,4.167-4.55,5
														c0.767-2.267,1.267-3.967,1.5-5.1C38.15,62.5,39.433,60.667,41.3,59.6z"/>
													<path style="fill-rule:evenodd;clip-rule:evenodd;fill:#DEF3EA;" d="M35.9,70.2c-0.633-0.567-0.917-1.467-0.85-2.7
														c0.034-1.067,0.284-2.117,0.75-3.15c0.567-1.167,1.333-2.184,2.3-3.05c1.033-0.9,2.1-1.483,3.2-1.75
														c-0.767,0.467-1.417,1.184-1.95,2.15c-0.267,0.466-0.65,1.367-1.15,2.7C37.5,66.8,36.733,68.733,35.9,70.2z"/>
												</g>
												<g>
													
														<linearGradient id="SVGID_16_" gradientUnits="userSpaceOnUse" x1="-75.5332" y1="33.9688" x2="-63.8442" y2="33.9688" gradientTransform="matrix(-0.1156 -0.9933 0.9933 -0.1156 2.572387e-004 -7.633865e-004)">
														<stop  offset="0" style="stop-color:#58E1A8"/>
														<stop  offset="0.1216" style="stop-color:#53CC98"/>
														<stop  offset="0.3922" style="stop-color:#49A378"/>
														<stop  offset="0.6353" style="stop-color:#428560"/>
														<stop  offset="0.8471" style="stop-color:#3E7352"/>
														<stop  offset="1" style="stop-color:#3C6C4D"/>
													</linearGradient>
													<path style="fill-rule:evenodd;clip-rule:evenodd;fill:url(#SVGID_16_);" d="M41.6,59.45c0.733,0.3,1.2,1.083,1.4,2.35
														c0.2,1,0.217,2.034,0.05,3.1c-0.267,2.833-0.983,4.967-2.15,6.4c-0.066-0.367-0.167-1.167-0.3-2.4
														c-0.1-1.3-0.217-2.267-0.35-2.9C39.85,63.4,40.3,61.217,41.6,59.45z"/>
													<path style="fill-rule:evenodd;clip-rule:evenodd;fill:#DEF3EA;" d="M40.85,71.35c-0.8-0.267-1.434-0.983-1.9-2.15
														c-0.367-1-0.55-2.067-0.55-3.2c0.067-1.3,0.383-2.55,0.95-3.75c0.6-1.2,1.35-2.15,2.25-2.85
														c-0.534,0.733-0.85,1.633-0.95,2.7c-0.066,0.6-0.066,1.583,0,2.95C40.95,67.55,41.017,69.65,40.85,71.35z"/>
												</g>
											</g>
										</g>
									</g>
								</g>
							</g>
						</g>
					</g>
				</g>
			</g>
			<g>
				<g>
					<g>
						<g>
							<g>
								<linearGradient id="SVGID_17_" gradientUnits="userSpaceOnUse" x1="128.1143" y1="40.6855" x2="120.2643" y2="72.6355">
									<stop  offset="0" style="stop-color:#1E7B6A"/>
									<stop  offset="0.7098" style="stop-color:#9FE0B8"/>
								</linearGradient>
								<path style="fill-rule:evenodd;clip-rule:evenodd;fill:url(#SVGID_17_);" d="M122.6,41.65c0.934,0.733,1.733,1.6,2.4,2.6
									c0.866,1.267,1.316,2.483,1.35,3.65c1.801,0.733,3.367,1.817,4.7,3.25c0.867,1,1.517,2.117,1.95,3.35
									c0.6,1.567,0.7,2.967,0.3,4.2c1.7,1.2,3.017,2.75,3.95,4.65c0.6,1.433,0.9,2.867,0.9,4.3c0.033,1.9-0.518,3.367-1.65,4.4
									c-0.6,0.567-1.3,0.767-2.1,0.6l-0.2-0.05l-0.55-0.2L133,72.05c-0.667,0.8-1.434,1.35-2.3,1.65
									c-0.434,0.1-0.834,0.133-1.2,0.1c-0.4-0.1-0.717-0.233-0.95-0.4l-0.2-0.15l-0.399-0.4c-1.5-1.733-2.417-4.267-2.75-7.6
									c-0.101-0.867-0.134-1.6-0.101-2.2l-0.25-0.15c-1.833-1.233-3.433-3.4-4.8-6.5l-0.649-1.85H119.3l-0.45-0.15
									c-2.166-0.9-4.166-2.717-6-5.45c-2.399-3.6-2.8-6.434-1.199-8.5l0.05-0.05c0.434-0.566,1.066-0.883,1.899-0.95
									c1.4-0.3,2.917-0.25,4.551,0.15C119.783,40,121.267,40.683,122.6,41.65z"/>
								<path style="fill-rule:evenodd;clip-rule:evenodd;fill:none;stroke:#DBF0E8;stroke-width:0.25;" d="M122.6,41.65
									c0.934,0.733,1.733,1.6,2.4,2.6c0.866,1.267,1.316,2.483,1.35,3.65c1.801,0.733,3.367,1.817,4.7,3.25
									c0.867,1,1.517,2.117,1.95,3.35c0.6,1.567,0.7,2.967,0.3,4.2c1.7,1.2,3.017,2.75,3.95,4.65c0.6,1.433,0.9,2.867,0.9,4.3
									c0.033,1.9-0.518,3.367-1.65,4.4c-0.6,0.567-1.3,0.767-2.1,0.6l-0.2-0.05l-0.55-0.2L133,72.05
									c-0.667,0.8-1.434,1.35-2.3,1.65c-0.434,0.1-0.834,0.133-1.2,0.1c-0.4-0.1-0.717-0.233-0.95-0.4l-0.2-0.15l-0.399-0.4
									c-1.5-1.733-2.417-4.267-2.75-7.6c-0.101-0.867-0.134-1.6-0.101-2.2l-0.25-0.15c-1.833-1.233-3.433-3.4-4.8-6.5l-0.649-1.85
									H119.3l-0.45-0.15c-2.166-0.9-4.166-2.717-6-5.45c-2.399-3.6-2.8-6.434-1.199-8.5l0.05-0.05
									c0.434-0.566,1.066-0.883,1.899-0.95c1.4-0.3,2.917-0.25,4.551,0.15C119.783,40,121.267,40.683,122.6,41.65z"/>
							</g>
						</g>
						<path style="fill-rule:evenodd;clip-rule:evenodd;fill:#1C3330;" d="M117.65,41.25c1.433,0.333,2.733,0.917,3.899,1.75
							c0.934,0.767,1.684,1.633,2.25,2.6c0.8,1.333,1,2.5,0.601,3.5v0.05c2.033,0.434,3.816,1.467,5.35,3.1
							c0.767,0.933,1.35,1.933,1.75,3c0.5,1.433,0.467,2.617-0.1,3.55c-0.134,0.167-0.334,0.284-0.601,0.35h-0.2
							c2.2,0.867,3.884,2.5,5.051,4.9c0.466,1.1,0.732,2.217,0.8,3.35c0.1,1.533-0.267,2.667-1.101,3.4
							c-0.166,0.167-0.383,0.217-0.649,0.15h-0.05l-0.25-0.1c-0.667-0.333-1.301-0.8-1.9-1.4c-0.533,1.367-1.316,2.233-2.35,2.6
							l-0.4,0.05l-0.25-0.15l-0.05-0.05c-0.067,0-0.134-0.05-0.2-0.15c-1.233-1.5-2.017-3.75-2.35-6.75
							c-0.134-1.433-0.084-2.683,0.149-3.75l-0.3,0.25c-0.134,0.1-0.316,0.15-0.55,0.15l-0.2-0.1l-0.15-0.05
							c-1.633-1.1-3.033-3.033-4.199-5.8c-0.5-1.1-0.817-2.233-0.95-3.4c-0.067,0.167-0.167,0.284-0.3,0.35
							c-0.167,0.167-0.367,0.25-0.601,0.25h-0.05l-0.05-0.05h-0.05l-0.15-0.05c-1.767-0.7-3.517-2.316-5.25-4.85
							c-0.733-1-1.25-2.05-1.55-3.15c-0.4-1.4-0.3-2.5,0.3-3.3c0.2-0.267,0.45-0.367,0.75-0.3h0.05
							C114.967,40.9,116.25,40.917,117.65,41.25z"/>
						<g>
							<g>
								<g>
									<g>
										<g>
											<g>
												<g>
													
														<linearGradient id="SVGID_18_" gradientUnits="userSpaceOnUse" x1="122.5088" y1="49.9541" x2="114.3088" y2="41.6291">
														<stop  offset="0" style="stop-color:#58E1A8"/>
														<stop  offset="0.1216" style="stop-color:#53CC98"/>
														<stop  offset="0.3922" style="stop-color:#49A378"/>
														<stop  offset="0.6353" style="stop-color:#428560"/>
														<stop  offset="0.8471" style="stop-color:#3E7352"/>
														<stop  offset="1" style="stop-color:#3C6C4D"/>
													</linearGradient>
													<path style="fill-rule:evenodd;clip-rule:evenodd;fill:url(#SVGID_18_);" d="M113.95,42c2.233,0.033,4.233,1.05,6,3.05
														c0.399,0.467,1.066,1.15,2,2.05c0.899,0.9,1.45,1.483,1.649,1.75c-1.733,0.033-3.833-0.733-6.3-2.3
														c-0.934-0.6-1.733-1.267-2.399-2C114.066,43.583,113.75,42.733,113.95,42z"/>
													<path style="fill-rule:evenodd;clip-rule:evenodd;fill:#DEF3EA;" d="M123.7,48.85c-1.467-0.967-3.05-2.333-4.75-4.1
														c-1.066-0.933-1.834-1.55-2.3-1.85c-0.934-0.6-1.834-0.917-2.7-0.95c1.066-0.3,2.267-0.284,3.6,0.05
														c1.3,0.3,2.467,0.833,3.5,1.6c0.9,0.7,1.617,1.517,2.15,2.45C123.833,47.15,124,48.083,123.7,48.85z"/>
												</g>
												<g>
													
														<linearGradient id="SVGID_19_" gradientUnits="userSpaceOnUse" x1="118.3291" y1="52.6753" x2="114.0791" y2="41.8003">
														<stop  offset="0" style="stop-color:#58E1A8"/>
														<stop  offset="0.1216" style="stop-color:#53CC98"/>
														<stop  offset="0.3922" style="stop-color:#49A378"/>
														<stop  offset="0.6353" style="stop-color:#428560"/>
														<stop  offset="0.8471" style="stop-color:#3E7352"/>
														<stop  offset="1" style="stop-color:#3C6C4D"/>
													</linearGradient>
													<path style="fill-rule:evenodd;clip-rule:evenodd;fill:url(#SVGID_19_);" d="M113.6,42
														c2.034,0.9,3.467,2.617,4.301,5.15c0.166,0.6,0.517,1.5,1.05,2.7c0.467,1.167,0.75,1.917,0.85,2.25
														c-1.666-0.667-3.3-2.2-4.899-4.6c-0.634-0.9-1.101-1.817-1.4-2.75C113.1,43.517,113.134,42.6,113.6,42z"/>
													<path style="fill-rule:evenodd;clip-rule:evenodd;fill:#DEF3EA;" d="M119.85,52.15c-0.8-1.233-1.716-3.117-2.75-5.65
														c-0.6-1.267-1.05-2.133-1.35-2.6c-0.6-0.9-1.3-1.55-2.1-1.95c1.133,0.167,2.233,0.65,3.3,1.45
														c1.033,0.8,1.883,1.767,2.55,2.9c0.533,1,0.866,2.017,1,3.05C120.633,50.583,120.417,51.517,119.85,52.15z"/>
												</g>
											</g>
										</g>
									</g>
								</g>
							</g>
							<g>
								<g>
									<g>
										<g>
											<g>
												<g>
													<linearGradient id="SVGID_20_" gradientUnits="userSpaceOnUse" x1="129.332" y1="59.2686" x2="122.907" y2="49.5186">
														<stop  offset="0" style="stop-color:#58E1A8"/>
														<stop  offset="0.1216" style="stop-color:#53CC98"/>
														<stop  offset="0.3922" style="stop-color:#49A378"/>
														<stop  offset="0.6353" style="stop-color:#428560"/>
														<stop  offset="0.8471" style="stop-color:#3E7352"/>
														<stop  offset="1" style="stop-color:#3C6C4D"/>
													</linearGradient>
													<path style="fill-rule:evenodd;clip-rule:evenodd;fill:url(#SVGID_20_);" d="M122.5,49.75
														c2.167,0.533,3.917,1.933,5.25,4.2c0.566,1.033,1.533,2.517,2.9,4.45c-1.801-0.367-3.717-1.533-5.75-3.5
														c-0.801-0.733-1.45-1.533-1.95-2.4C122.316,51.367,122.167,50.45,122.5,49.75z"/>
													<path style="fill-rule:evenodd;clip-rule:evenodd;fill:#DEF3EA;" d="M130.75,58.4c-1.233-1.2-2.533-2.833-3.9-4.9
														c-0.833-1.1-1.467-1.867-1.899-2.3c-0.767-0.733-1.584-1.217-2.45-1.45c1.133-0.067,2.316,0.183,3.55,0.75
														c1.167,0.533,2.2,1.283,3.101,2.25c0.732,0.833,1.283,1.767,1.649,2.8C131.2,56.75,131.184,57.7,130.75,58.4z"/>
												</g>
												<g>
													
														<linearGradient id="SVGID_21_" gradientUnits="userSpaceOnUse" x1="124.6846" y1="61.0981" x2="122.6346" y2="49.5981">
														<stop  offset="0" style="stop-color:#58E1A8"/>
														<stop  offset="0.1216" style="stop-color:#53CC98"/>
														<stop  offset="0.3922" style="stop-color:#49A378"/>
														<stop  offset="0.6353" style="stop-color:#428560"/>
														<stop  offset="0.8471" style="stop-color:#3E7352"/>
														<stop  offset="1" style="stop-color:#3C6C4D"/>
													</linearGradient>
													<path style="fill-rule:evenodd;clip-rule:evenodd;fill:url(#SVGID_21_);" d="M122.15,49.7
														c1.767,1.267,2.833,3.233,3.199,5.9c0.067,0.633,0.217,1.583,0.45,2.85c0.267,1.267,0.417,2.066,0.45,2.4
														c-1.566-1.067-2.867-2.9-3.9-5.5c-0.467-1-0.75-1.983-0.85-2.95C121.366,51.1,121.583,50.2,122.15,49.7z"/>
													<path style="fill-rule:evenodd;clip-rule:evenodd;fill:#DEF3EA;" d="M126.3,60.9c-0.566-1.433-1.1-3.45-1.6-6.05
														c-0.3-1.333-0.567-2.283-0.8-2.85c-0.434-1-1-1.767-1.7-2.3c1.066,0.367,2.05,1.05,2.95,2.05
														c0.866,0.967,1.517,2.067,1.949,3.3c0.334,1.1,0.45,2.184,0.351,3.25C127.383,59.567,127,60.433,126.3,60.9z"/>
												</g>
											</g>
										</g>
									</g>
								</g>
							</g>
							<g>
								<g>
									<g>
										<g>
											<g>
												<g>
													
														<linearGradient id="SVGID_22_" gradientUnits="userSpaceOnUse" x1="133.2637" y1="70.6455" x2="129.9109" y2="59.4614">
														<stop  offset="0" style="stop-color:#58E1A8"/>
														<stop  offset="0.1216" style="stop-color:#53CC98"/>
														<stop  offset="0.3922" style="stop-color:#49A378"/>
														<stop  offset="0.6353" style="stop-color:#428560"/>
														<stop  offset="0.8471" style="stop-color:#3E7352"/>
														<stop  offset="1" style="stop-color:#3C6C4D"/>
													</linearGradient>
													<path style="fill-rule:evenodd;clip-rule:evenodd;fill:url(#SVGID_22_);" d="M129.45,59.6
														c1.866,1.066,3.149,2.9,3.85,5.5c0.134,0.6,0.4,1.533,0.8,2.8c0.367,1.2,0.584,1.967,0.65,2.3
														c-1.566-0.833-3.066-2.5-4.5-5c-0.566-0.967-0.95-1.917-1.15-2.85C128.8,61.083,128.917,60.167,129.45,59.6z"/>
													<path style="fill-rule:evenodd;clip-rule:evenodd;fill:#DEF3EA;" d="M134.85,70.2c-0.833-1.467-1.6-3.4-2.3-5.8
														c-0.5-1.3-0.883-2.2-1.149-2.7c-0.534-0.967-1.184-1.684-1.95-2.15c1.1,0.267,2.149,0.85,3.149,1.75
														c0.967,0.867,1.75,1.883,2.351,3.05c0.467,1.033,0.717,2.083,0.75,3.15C135.767,68.733,135.483,69.633,134.85,70.2z"/>
												</g>
												<g>
													
														<linearGradient id="SVGID_23_" gradientUnits="userSpaceOnUse" x1="128.2744" y1="71.1001" x2="129.6256" y2="59.4895">
														<stop  offset="0" style="stop-color:#58E1A8"/>
														<stop  offset="0.1216" style="stop-color:#53CC98"/>
														<stop  offset="0.3922" style="stop-color:#49A378"/>
														<stop  offset="0.6353" style="stop-color:#428560"/>
														<stop  offset="0.8471" style="stop-color:#3E7352"/>
														<stop  offset="1" style="stop-color:#3C6C4D"/>
													</linearGradient>
													<path style="fill-rule:evenodd;clip-rule:evenodd;fill:url(#SVGID_23_);" d="M129.15,59.45
														c1.3,1.767,1.75,3.95,1.35,6.55c-0.134,0.633-0.25,1.6-0.35,2.9c-0.134,1.233-0.233,2.033-0.301,2.4
														c-1.133-1.4-1.866-3.533-2.199-6.4c-0.134-1.1-0.101-2.133,0.1-3.1C127.983,60.533,128.45,59.75,129.15,59.45z"/>
													<path style="fill-rule:evenodd;clip-rule:evenodd;fill:#DEF3EA;" d="M129.9,71.35c-0.167-1.7-0.101-3.8,0.199-6.3
														c0.067-1.367,0.067-2.35,0-2.95c-0.1-1.067-0.416-1.967-0.949-2.7c0.933,0.7,1.683,1.65,2.25,2.85
														c0.566,1.2,0.866,2.45,0.899,3.75c0.033,1.133-0.133,2.2-0.5,3.2C131.333,70.367,130.7,71.083,129.9,71.35z"/>
												</g>
											</g>
										</g>
									</g>
								</g>
							</g>
						</g>
					</g>
				</g>
			</g>
		</g>
	</g>
</g>
<g id="Isolation_Mode">
	<g>
		
			<use xlink:href="#FlashAICB_x5F_0_x2F_Isolation_Mode_x2F__x3C_Path_x3E__x5F_1"  width="109.35" height="55.4" y="-55.4" transform="matrix(1 0 0 -1 31.8501 28.3501)" style="overflow:visible;opacity:0.1992;enable-background:new    ;"/>
		
			<use xlink:href="#FlashAICB_x5F_0_x2F_Isolation_Mode_x2F__x3C_Path_x3E_"  width="109.35" height="60.894" y="-60.894" transform="matrix(1 0 0 -1 31.8501 28.3501)" style="overflow:visible;opacity:0.1211;enable-background:new    ;"/>
	</g>
	
		<use xlink:href="#FlashAICB_x5F_0_x2F_Isolation_Mode_x2F__x3C_Path_x3E__x5F_0"  width="117.95" height="56.8" y="-56.8" transform="matrix(1 0 0 -1 27.5498 86.75)" style="overflow:visible;opacity:0.3398;enable-background:new    ;"/>
</g>
</svg>
