<?xml version="1.0" encoding="iso-8859-1"?>
<!-- Generator: Adobe Illustrator 15.1.0, SVG Export Plug-In . SVG Version: 6.00 Build 0)  -->
<!DOCTYPE svg PUBLIC "-//W3C//DTD SVG 1.1//EN" "http://www.w3.org/Graphics/SVG/1.1/DTD/svg11.dtd">
<svg version="1.1" id="Layer_1" xmlns="http://www.w3.org/2000/svg" xmlns:xlink="http://www.w3.org/1999/xlink" x="0px" y="0px"
	 width="171.75px" height="171.7px" viewBox="0 0 171.75 171.7" style="enable-background:new 0 0 171.75 171.7;"
	 xml:space="preserve">
<symbol  id="FlashAICB_x2F_Layer_1_x2F__x3C_Path_x3E_" viewBox="0.023 -23.391 34.43 23.33">
	<g id="Layer_1_3_">
		<path style="fill-rule:evenodd;clip-rule:evenodd;fill:#966054;" d="M32.1-9.45c0.233-0.267,0.717-0.816,1.45-1.65
			c0.633-0.8,0.934-1.417,0.9-1.85c0-0.267-0.117-0.633-0.35-1.1c-0.233-0.467-0.467-0.767-0.7-0.9c-0.167-0.133-0.3-0.183-0.4-0.15
			c-0.333,0.033-0.517,0.05-0.55,0.05c-0.5,0-1.15,0.2-1.95,0.6c-0.833,0.4-1.467,0.617-1.9,0.65c-0.233,0.033-0.533-0.05-0.9-0.25
			c-0.567-0.267-0.883-0.417-0.95-0.45c-0.567-0.067-0.95-0.167-1.15-0.3c-0.3-0.233-0.617-0.633-0.95-1.2
			c-0.4-0.833-0.633-1.283-0.7-1.35c-1.067-1.5-2-2.55-2.8-3.15c-0.933-0.667-1.983-1.067-3.15-1.2s-2.283,0.034-3.35,0.5
			c-0.233,0.1-0.65,0.35-1.25,0.75c-0.533,0.333-1,0.534-1.4,0.6c-1.267,0.267-2.333,0.217-3.2-0.15
			c-0.466-0.2-0.983-0.667-1.55-1.4c-0.3-0.4-0.717-0.967-1.25-1.7l-0.4,0.35c-0.434-0.3-0.934-0.5-1.5-0.6
			c-0.633-0.1-1.167-0.017-1.6,0.25c-0.267,0.2-0.533,0.717-0.8,1.55c-0.5,1.6-0.95,3.6-1.35,6c-0.4,2.466-0.434,4.867-0.1,7.2
			C0.617-5.517,1.483-3.3,2.85-1.7c0.733,0.867,1.633,1.383,2.7,1.55C6.317-0.017,7.4-0.033,8.8-0.2
			c1.967-0.267,4.35-0.816,7.15-1.65c1.566-0.5,3.9-1.25,7-2.25c2.633-0.867,4.9-1.95,6.8-3.25C30.783-8.083,31.567-8.783,32.1-9.45
			z"/>
	</g>
</symbol>
<symbol  id="FlashAICB_x2F_Layer_1_x2F__x3C_Path_x3E__x5F_0" viewBox="0 -61.85 128.6 61.85">
	<g id="Layer_1_5_">
		
			<radialGradient id="SVGID_1_" cx="64.2998" cy="-30.9248" r="50.4522" gradientTransform="matrix(1 0 0 -1 0 -61.8496)" gradientUnits="userSpaceOnUse">
			<stop  offset="0" style="stop-color:#DE98DD;stop-opacity:0"/>
			<stop  offset="0.149" style="stop-color:#D491D2;stop-opacity:0.1451"/>
			<stop  offset="0.4" style="stop-color:#B87DB7;stop-opacity:0.5333"/>
			<stop  offset="0.651" style="stop-color:#976696"/>
		</radialGradient>
		<path style="fill-rule:evenodd;clip-rule:evenodd;fill:url(#SVGID_1_);" d="M128.05-0.25L128.6,0
			c-0.633-17.233-7.167-31.85-19.6-43.85c-12.467-12-27.383-18-44.75-18c-17.033,0-31.733,5.817-44.1,17.45
			C7.783-32.833,1.067-18.633,0-1.8c4.967-13,13.183-23.5,24.65-31.5c11.7-8.167,24.733-12.25,39.1-12.25
			c14.633,0,27.883,4.25,39.75,12.75C115.1-24.5,123.283-13.65,128.05-0.25z"/>
	</g>
</symbol>
<symbol  id="FlashAICB_x2F_Layer_1_x2F__x3C_Path_x3E__x5F_1" viewBox="0 -128.55 128.8 128.55">
	<g id="Layer_1_2_">
		
			<radialGradient id="SVGID_2_" cx="64.3999" cy="-64.2749" r="64.3374" gradientTransform="matrix(1 0 0 -1 0 -128.5498)" gradientUnits="userSpaceOnUse">
			<stop  offset="0" style="stop-color:#FBB6DB"/>
			<stop  offset="0.2392" style="stop-color:#F9B4D8"/>
			<stop  offset="0.4157" style="stop-color:#F3ADCF"/>
			<stop  offset="0.5686" style="stop-color:#E7A0BF"/>
			<stop  offset="0.6627" style="stop-color:#DD95B1"/>
			<stop  offset="1" style="stop-color:#7F257D;stop-opacity:0.4078"/>
		</radialGradient>
		<path style="fill-rule:evenodd;clip-rule:evenodd;fill:url(#SVGID_2_);" d="M128.8-64.3c0-17.733-6.283-32.883-18.85-45.45
			c-12.6-12.533-27.784-18.8-45.55-18.8s-32.95,6.267-45.55,18.8C6.283-97.183,0-82.033,0-64.3c0,17.733,6.283,32.883,18.85,45.45
			C31.45-6.283,46.633,0,64.4,0s32.95-6.283,45.55-18.85C122.517-31.417,128.8-46.567,128.8-64.3z"/>
	</g>
</symbol>
<symbol  id="FlashAICB_x2F_Layer_1_x2F__x3C_Path_x3E__x5F_1_x5F_0" viewBox="0.009 -42.313 45.886 42.314">
	<g id="Layer_1_4_">
		<path style="fill-rule:evenodd;clip-rule:evenodd;fill:#966054;" d="M43.65-8.55c-0.066,0.066-0.267-0.367-0.6-1.3
			c-0.333-0.867-0.517-1.4-0.55-1.6c-0.1-1.066,0.067-1.983,0.5-2.75c0.367-0.633,0.7-1.466,1-2.5c0.167-0.566,0.383-1.45,0.65-2.65
			c0.067-0.4,0.167-0.767,0.3-1.1c0.367-1.233,0.6-2.017,0.7-2.35c0.233-0.967,0.3-1.8,0.2-2.5c-0.567,0-0.983-0.05-1.25-0.15
			c-0.934-0.267-1.667-0.833-2.2-1.7c-0.533-0.9-0.65-1.833-0.35-2.8c0.267-0.833,0.483-1.75,0.65-2.75L42.6-32l0.15-0.9L42-32.95
			c-1.267,0.1-2.167,0.833-2.7,2.2c-1.033,2.7-2.15,4.533-3.35,5.5c-0.6,0.467-1.333,0.817-2.2,1.05l-1.1,0.2l2.3-3.85
			c1.566-2.833,2.483-4.95,2.75-6.35c0.333-1.633,0.267-3.117-0.2-4.45c-0.233-0.7-0.567-1.233-1-1.6
			c-0.267-0.233-0.8-0.55-1.6-0.95c-2.066-1.066-3.5-1.367-4.3-0.9c-0.333,0.367-0.617,0.617-0.85,0.75
			c-0.667,0.3-1.183,0.533-1.55,0.7c-2.434,0.9-4.034,1.517-4.8,1.85c-1.333,0.633-2.383,1.533-3.15,2.7
			c-0.8,1.2-1.25,2.55-1.35,4.05c-0.033,0-0.316-0.133-0.85-0.4c-0.3-0.133-0.617-0.167-0.95-0.1c-0.667,0.133-1.033,0.183-1.1,0.15
			c-0.3-0.033-0.433-0.3-0.4-0.8c0.167-1.7,0.217-2.75,0.15-3.15c-0.3-1.8-1.183-3.316-2.65-4.55c-0.967-0.833-2.25-1.233-3.85-1.2
			c-1.7,0.067-2.867,0.65-3.5,1.75c-0.3,0.467-0.533,0.85-0.7,1.15c-0.267,0.534-0.367,0.967-0.3,1.3
			c0.033,0.233,0.217,0.583,0.55,1.05c0.367,0.6,0.583,0.967,0.65,1.1c0.9,1.8,1.15,3.5,0.75,5.1l-0.95,4.2
			c-0.5,2.633-0.817,3.95-0.95,3.95c-1.7,0.233-2.9,0.95-3.6,2.15c-1.067,1.934-1.417,4.367-1.05,7.3
			c0.367,3.033,1.4,5.583,3.1,7.65c1.867,2.233,3.833,3.783,5.9,4.65c2.267,0.967,4.333,1,6.2,0.1c0.4-0.2,0.833-0.533,1.3-1
			c1.533,0.5,3.15,0.7,4.85,0.6c6.533-0.5,11.75-1.567,15.65-3.2C39.283-5.15,41.45-6.583,43.65-8.55z"/>
	</g>
</symbol>
<symbol  id="FlashAICB_x2F_Layer_1_x2F__x3C_Path_x3E__x5F_1_x5F_1" viewBox="0 -60.45 119.2 60.45">
	<g id="Layer_1_6_">
		
			<linearGradient id="SVGID_3_" gradientUnits="userSpaceOnUse" x1="16160.585" y1="-58.4668" x2="16220.9766" y2="-58.4668" gradientTransform="matrix(1.654944e-005 1 -1 -0.001 0.8657 -16221.1064)">
			<stop  offset="0.1294" style="stop-color:#E2B8B2"/>
			<stop  offset="0.9255" style="stop-color:#FFFFFF"/>
		</linearGradient>
		<path style="fill-rule:evenodd;clip-rule:evenodd;fill:url(#SVGID_3_);" d="M104.05-19.5c4.833-5.333,8.617-11.25,11.35-17.75
			c2.533-6.1,3.8-11.85,3.8-17.25c0-1.833-0.184-3.433-0.55-4.8c-1.967,11.966-7.8,22.6-17.5,31.9
			c-11.433,11-25.283,16.5-41.55,16.5c-16.533,0-30.45-5.483-41.75-16.45C8.117-36.783,2.333-47.817,0.5-60.45
			C0.167-59.217,0-57.683,0-55.85c0,5.934,1.267,12.067,3.8,18.4c2.667,6.7,6.434,12.75,11.3,18.15C26.7-6.433,41.533,0,59.6,0
			C77.433,0,92.25-6.5,104.05-19.5z"/>
	</g>
</symbol>
<symbol  id="FlashAICB_x2F_Layer_1_x2F__x3C_Path_x3E__x5F_2" viewBox="0 -66.434 119.2 66.434">
	<g id="Layer_1_7_">
		<path style="fill-rule:evenodd;clip-rule:evenodd;fill:#FFFFFF;" d="M115.4-37.25c2.533-6.1,3.8-11.85,3.8-17.25
			c0-5.367-1.567-8.75-4.7-10.15c-2.533-1.133-6.783-1.117-12.75,0.05c-7.9,1.9-14.217,3.367-18.95,4.4
			c-8.667,1.833-16.4,2.75-23.2,2.75c-6.833,0-14.567-1-23.2-3c-9.033-2.367-15.35-3.966-18.95-4.8c-6-1.367-10.25-1.55-12.75-0.55
			C1.567-64.533,0-61.217,0-55.85c0,5.934,1.267,12.067,3.8,18.4c2.667,6.7,6.434,12.75,11.3,18.15C26.7-6.433,41.533,0,59.6,0
			c17.833,0,32.65-6.5,44.45-19.5C108.883-24.833,112.667-30.75,115.4-37.25z"/>
	</g>
</symbol>
<g>
	<path style="fill-rule:evenodd;clip-rule:evenodd;fill:#FFFFFF;" d="M85.85,0c11.634,0,22.767,2.25,33.4,6.75
		c10.267,4.367,19.366,10.5,27.3,18.4c7.934,7.934,14.084,17.033,18.45,27.3c4.5,10.633,6.75,21.767,6.75,33.4
		S169.5,108.6,165,119.2c-4.366,10.267-10.517,19.366-18.45,27.3s-17.033,14.083-27.3,18.45c-10.634,4.5-21.767,6.75-33.4,6.75
		c-11.633,0-22.766-2.25-33.399-6.75c-10.267-4.367-19.367-10.517-27.3-18.45c-7.9-7.934-14.033-17.033-18.4-27.3
		C2.25,108.566,0,97.45,0,85.85c0-11.633,2.25-22.767,6.75-33.4c4.367-10.267,10.5-19.367,18.4-27.3
		c7.934-7.9,17.033-14.033,27.3-18.4C63.083,2.25,74.217,0,85.85,0z"/>
	<g>
		<g>
			
				<linearGradient id="SVGID_4_" gradientUnits="userSpaceOnUse" x1="-157.5854" y1="85.876" x2="-14.2354" y2="85.876" gradientTransform="matrix(6.973501e-006 -1 1 -0.001 -1.064519e-004 4.449275e-004)">
				<stop  offset="0.0745" style="stop-color:#362439"/>
				<stop  offset="0.1882" style="stop-color:#4F3450"/>
				<stop  offset="0.4353" style="stop-color:#8F5E89"/>
				<stop  offset="0.6" style="stop-color:#BE7CB4"/>
				<stop  offset="0.9216" style="stop-color:#EFEBC5"/>
			</linearGradient>
			<path style="fill-rule:evenodd;clip-rule:evenodd;fill:url(#SVGID_4_);" d="M57.95,19.8c8.9-3.767,18.2-5.65,27.899-5.65
				c9.7,0,19,1.883,27.9,5.65c8.566,3.633,16.167,8.75,22.8,15.35c6.601,6.633,11.717,14.233,15.351,22.8
				c3.767,8.9,5.649,18.2,5.649,27.9c0,9.7-1.883,19-5.649,27.9c-3.634,8.566-8.75,16.15-15.351,22.75
				c-6.633,6.6-14.233,11.717-22.8,15.35c-8.9,3.767-18.2,5.65-27.9,5.65c-9.7,0-19-1.884-27.899-5.65
				c-8.567-3.633-16.15-8.75-22.75-15.35c-6.633-6.6-11.75-14.184-15.35-22.75c-3.767-8.9-5.65-18.2-5.65-27.9
				c0-9.7,1.883-19,5.65-27.9c3.6-8.567,8.717-16.167,15.35-22.8C41.8,28.55,49.383,23.433,57.95,19.8z"/>
			<path style="fill-rule:evenodd;clip-rule:evenodd;fill:#3B223B;" d="M35.8,35.8C21.967,49.633,15.05,66.316,15.05,85.85
				c0,19.567,6.917,36.25,20.75,50.05c6.534,6.533,14.034,11.6,22.5,15.199c8.767,3.7,17.95,5.551,27.55,5.551
				c9.601,0,18.784-1.851,27.551-5.551c8.466-3.6,15.966-8.666,22.5-15.199c6.533-6.534,11.6-14.034,15.199-22.5
				c3.7-8.767,5.551-17.95,5.551-27.55S154.8,67.066,151.1,58.3c-3.6-8.466-8.666-15.966-15.199-22.5
				C122.1,21.967,105.417,15.05,85.85,15.05C66.317,15.05,49.633,21.967,35.8,35.8z M85.85,13.25c9.7,0,18.967,1.833,27.801,5.5
				c8.866,3.667,16.716,8.917,23.55,15.75c6.866,6.867,12.116,14.717,15.75,23.55c3.666,8.833,5.5,18.1,5.5,27.8
				c0,9.7-1.834,18.966-5.5,27.8c-3.667,8.833-8.917,16.666-15.75,23.5c-6.834,6.866-14.684,12.116-23.55,15.75
				c-8.834,3.666-18.101,5.5-27.801,5.5c-9.7,0-18.966-1.834-27.8-5.5c-8.833-3.634-16.683-8.884-23.55-15.75
				c-6.833-6.801-12.083-14.634-15.75-23.5c-3.633-8.834-5.45-18.101-5.45-27.8c0-9.7,1.817-18.967,5.45-27.8
				c3.667-8.833,8.917-16.683,15.75-23.55c6.867-6.833,14.717-12.083,23.55-15.75C66.883,15.083,76.15,13.25,85.85,13.25z"/>
		</g>
		
			<use xlink:href="#FlashAICB_x2F_Layer_1_x2F__x3C_Path_x3E__x5F_1"  width="128.8" height="128.55" y="-128.55" transform="matrix(1 0 0 -1 21.4502 19.25)" style="overflow:visible;opacity:0.3789;enable-background:new    ;"/>
		<g>
			<g>
				<g>
					<path style="fill-rule:evenodd;clip-rule:evenodd;fill:#FEE6FF;" d="M75.5,32.95c-0.733,0-1.317-0.25-1.75-0.75
						c-0.367-0.434-0.55-0.95-0.55-1.55c0-0.633,0.2-1.167,0.6-1.6c0.434-0.5,1-0.75,1.7-0.75h4.8c0.7,0,1.25,0.233,1.65,0.7
						c0.4,0.433,0.6,1,0.6,1.7v19.1c0,0.833-0.25,1.483-0.75,1.95c-0.466,0.467-1.066,0.7-1.8,0.7s-1.333-0.233-1.8-0.7
						c-0.467-0.467-0.7-1.117-0.7-1.95V32.95H75.5z"/>
				</g>
				<g>
					
						<linearGradient id="SVGID_5_" gradientUnits="userSpaceOnUse" x1="-50.8794" y1="77.877" x2="-26.7754" y2="77.877" gradientTransform="matrix(4.149377e-005 -1 1 -0.001 -2.549601e-005 -4.747650e-005)">
						<stop  offset="0.3255" style="stop-color:#462244"/>
						<stop  offset="0.5294" style="stop-color:#482146"/>
						<stop  offset="0.6627" style="stop-color:#51214F"/>
						<stop  offset="0.7725" style="stop-color:#5F205D"/>
						<stop  offset="0.8706" style="stop-color:#741E72"/>
						<stop  offset="0.9647" style="stop-color:#8E198C"/>
						<stop  offset="1" style="stop-color:#9B1699"/>
					</linearGradient>
					<path style="fill-rule:evenodd;clip-rule:evenodd;fill:url(#SVGID_5_);" d="M75.5,31.35c-0.733,0-1.317-0.25-1.75-0.75
						c-0.367-0.434-0.55-0.967-0.55-1.6c0-0.6,0.2-1.133,0.6-1.6c0.434-0.467,1-0.7,1.7-0.7h4.8c0.7,0,1.25,0.233,1.65,0.7
						c0.4,0.434,0.6,1,0.6,1.7v19.1c0,0.833-0.25,1.483-0.75,1.95c-0.433,0.434-1.033,0.65-1.8,0.65c-0.733,0-1.333-0.216-1.8-0.65
						c-0.467-0.467-0.7-1.117-0.7-1.95V31.35H75.5z"/>
				</g>
			</g>
			<g>
				<g>
					<path style="fill-rule:evenodd;clip-rule:evenodd;fill:#FEE6FF;" d="M91.45,32.95c-0.733,0-1.316-0.25-1.75-0.75
						c-0.367-0.434-0.55-0.95-0.55-1.55c0-0.633,0.199-1.167,0.6-1.6c0.434-0.5,1-0.75,1.7-0.75h4.8c0.7,0,1.25,0.233,1.65,0.7
						c0.399,0.433,0.6,1,0.6,1.7v19.1c0,0.833-0.25,1.483-0.75,1.95c-0.467,0.467-1.066,0.7-1.8,0.7s-1.334-0.233-1.8-0.7
						c-0.467-0.467-0.7-1.117-0.7-1.95V32.95H91.45z"/>
				</g>
				<g>
					
						<linearGradient id="SVGID_6_" gradientUnits="userSpaceOnUse" x1="-50.8955" y1="93.8281" x2="-26.791" y2="93.8281" gradientTransform="matrix(4.149377e-005 -1 1 -0.001 -2.549601e-005 -4.747650e-005)">
						<stop  offset="0.3255" style="stop-color:#462244"/>
						<stop  offset="0.5294" style="stop-color:#482146"/>
						<stop  offset="0.6627" style="stop-color:#51214F"/>
						<stop  offset="0.7725" style="stop-color:#5F205D"/>
						<stop  offset="0.8706" style="stop-color:#741E72"/>
						<stop  offset="0.9647" style="stop-color:#8E198C"/>
						<stop  offset="1" style="stop-color:#9B1699"/>
					</linearGradient>
					<path style="fill-rule:evenodd;clip-rule:evenodd;fill:url(#SVGID_6_);" d="M91.45,31.35c-0.733,0-1.316-0.25-1.75-0.75
						c-0.367-0.434-0.55-0.967-0.55-1.6c0-0.6,0.199-1.133,0.6-1.6c0.434-0.467,1-0.7,1.7-0.7h4.8c0.7,0,1.25,0.233,1.65,0.7
						c0.399,0.434,0.6,1,0.6,1.7v19.1c0,0.833-0.25,1.483-0.75,1.95c-0.434,0.434-1.033,0.65-1.8,0.65
						c-0.733,0-1.334-0.216-1.8-0.65c-0.467-0.467-0.7-1.117-0.7-1.95V31.35H91.45z"/>
				</g>
			</g>
		</g>
		<g>
			<path style="fill-rule:evenodd;clip-rule:evenodd;fill:#FCE5FF;" d="M61.5,63.5l1.75-1.9c3.633-3.467,7.317-5.2,11.05-5.2
				c1.567,0,3.067,0.333,4.5,1l0.4,0.2c1.367-0.3,2.816-0.417,4.35-0.35c7,0.333,12.8,1.383,17.4,3.15c2.5,1,4.934,2.517,7.3,4.55
				c2.4,2.033,4.083,4.033,5.05,6c1.066,2.233,1.434,4.45,1.101,6.65c-0.267,1.966-1.051,3.583-2.351,4.85
				c0.434,1.5,0.601,2.966,0.5,4.399v1l0.101,0.801c2.033,5.633,3.05,9.35,3.05,11.149c0,1.533-0.483,2.783-1.45,3.75
				c-0.833,0.867-1.866,1.351-3.1,1.45c-1.867,0.2-3.483,0.5-4.851,0.9l-1.05,0.55c-0.434,0.267-0.85,0.467-1.25,0.6
				c-2.833,1.267-4.983,1.9-6.45,1.9H97.2l0.05,0.45l0.8,0.6l0.2,0.1c1.066,0.867,2.066,1.867,3,3l0.25,0.2
				c1.8,1.533,2.8,3.351,3,5.45c2.033,5.7,3.05,9.4,3.05,11.1c0,1.534-0.483,2.784-1.45,3.75c-0.833,0.867-1.866,1.351-3.1,1.45
				c-1.934,0.2-3.55,0.517-4.85,0.95c-3.967,2-6.884,3-8.75,3c-1.334,0-2.784-0.667-4.351-2c-0.833-0.8-1.566-1.65-2.2-2.55l-1.35-1
				c-0.4,0.2-0.7,0.316-0.9,0.35c-0.6,0.267-3.717,1.517-9.35,3.75l-0.1,0.05c-0.433,0.167-0.867,0.25-1.3,0.25
				c-0.767,0-1.467-0.216-2.1-0.649c-0.633-0.4-1.083-0.95-1.35-1.65c-0.4-0.934-0.4-1.866,0-2.8c0.367-0.967,1.017-1.65,1.95-2.05
				c0.3-0.134,0.6-0.434,0.9-0.9l0.05-0.1l3-4.75c0.867-1.334,1.567-2.316,2.1-2.95c-0.8-0.134-1.533-0.3-2.2-0.5
				c-1.233-0.4-2.667-1.033-4.3-1.9c-1.4-0.767-2.633-1.35-3.7-1.75c-3.034-1.1-4.983-2.449-5.85-4.05c-0.8-1.533-1-3.05-0.6-4.55
				c0.2-0.967,0.467-1.667,0.8-2.1l0.85-1.5c0.067-1.067,0.167-2.034,0.3-2.9l0.3-1.55c0.433-1.566,1.167-2.867,2.2-3.9
				c0.4-0.566,0.966-1.166,1.7-1.8c0-1.6-0.433-4.2-1.3-7.8l-0.25-0.95c-1.6-0.667-2.85-1.8-3.75-3.4
				c-1.4-2.567-1.867-5.75-1.4-9.55C57.667,69.767,59.1,66.333,61.5,63.5z"/>
			
				<linearGradient id="SVGID_7_" gradientUnits="userSpaceOnUse" x1="-138.3389" y1="86.3643" x2="-55.7236" y2="86.3643" gradientTransform="matrix(1.210287e-005 -1 1 -0.001 -2.140347e-005 -4.747650e-005)">
				<stop  offset="0.0549" style="stop-color:#6C1F69"/>
				<stop  offset="0.5882" style="stop-color:#CEA8B1"/>
				<stop  offset="0.8392" style="stop-color:#FAE3D0"/>
			</linearGradient>
			<path style="fill-rule:evenodd;clip-rule:evenodd;fill:url(#SVGID_7_);" d="M61.5,62.75c0.633-0.733,1.217-1.35,1.75-1.85
				c3.667-3.5,7.35-5.25,11.05-5.25c1.567,0,3.067,0.333,4.5,1l0.4,0.25c1.566-0.333,3.017-0.45,4.35-0.35
				c7.167,0.333,12.967,1.383,17.4,3.15c2.5,0.966,4.934,2.483,7.3,4.55c2.4,2.033,4.083,4.033,5.05,6
				c1.066,2.2,1.434,4.4,1.101,6.6c-0.267,2-1.051,3.617-2.351,4.85c0.434,1.5,0.601,2.983,0.5,4.45v1l0.101,0.8
				c2.033,5.633,3.05,9.333,3.05,11.1c0,1.533-0.483,2.783-1.45,3.75c-0.833,0.867-1.866,1.351-3.1,1.45
				c-1.934,0.2-3.551,0.517-4.851,0.95l-1.05,0.5c-0.4,0.3-0.816,0.5-1.25,0.6c-2.833,1.267-4.983,1.9-6.45,1.9H97.2l0.05,0.45
				l1,0.75c1.134,0.933,2.134,1.916,3,2.949l0.25,0.25c1.8,1.534,2.8,3.351,3,5.45c2.033,5.634,3.05,9.316,3.05,11.05
				c0,1.567-0.483,2.834-1.45,3.801c-0.833,0.833-1.866,1.3-3.1,1.399c-1.934,0.2-3.55,0.517-4.85,0.95c-3.967,2-6.884,3-8.75,3
				c-1.367,0-2.817-0.65-4.351-1.95c-0.867-0.866-1.6-1.717-2.2-2.55l-1.35-1.05c-0.267,0.166-0.567,0.283-0.9,0.35
				c-1.5,0.667-4.617,1.917-9.35,3.75l-0.1,0.05c-0.433,0.167-0.867,0.25-1.3,0.25c-0.767,0-1.467-0.199-2.1-0.6
				c-0.633-0.434-1.083-1-1.35-1.7c-0.4-0.934-0.4-1.866,0-2.8c0.367-0.934,1.017-1.616,1.95-2.05c0.3-0.134,0.6-0.434,0.9-0.9
				l0.05-0.1c1-1.5,2-3.084,3-4.75c0.867-1.334,1.567-2.316,2.1-2.95c-0.8-0.134-1.533-0.3-2.2-0.5
				c-1.133-0.366-2.567-0.983-4.3-1.85c-0.967-0.567-2.2-1.167-3.7-1.801c-3.034-1.066-4.983-2.416-5.85-4.05
				c-0.8-1.533-1-3.05-0.6-4.55c0.2-0.967,0.467-1.667,0.8-2.1l0.85-1.5c0.067-1.101,0.167-2.067,0.3-2.9l0.3-1.5
				c0.4-1.533,1.133-2.85,2.2-3.95c0.4-0.566,0.966-1.166,1.7-1.8c0-1.634-0.433-4.217-1.3-7.75l-0.25-1
				c-1.633-0.7-2.883-1.833-3.75-3.4c-1.4-2.567-1.867-5.75-1.4-9.55C57.667,69.017,59.1,65.583,61.5,62.75z"/>
			<path style="fill-rule:evenodd;clip-rule:evenodd;fill:none;stroke:#FCE5FF;stroke-width:0.25;" d="M61.5,62.75
				c-2.4,2.833-3.833,6.267-4.3,10.3c-0.467,3.8,0,6.983,1.4,9.55c0.867,1.566,2.117,2.7,3.75,3.4l0.25,1
				c0.867,3.533,1.3,6.116,1.3,7.75c-0.733,0.634-1.3,1.233-1.7,1.8c-1.067,1.101-1.8,2.417-2.2,3.95l-0.3,1.5
				c-0.133,0.833-0.233,1.8-0.3,2.9l-0.85,1.5c-0.333,0.433-0.6,1.133-0.8,2.1c-0.4,1.5-0.2,3.017,0.6,4.55
				c0.867,1.634,2.816,2.983,5.85,4.05c1.5,0.634,2.733,1.233,3.7,1.801c1.733,0.866,3.167,1.483,4.3,1.85
				c0.667,0.2,1.4,0.366,2.2,0.5c-0.533,0.634-1.233,1.616-2.1,2.95c-1,1.666-2,3.25-3,4.75l-0.05,0.1c-0.3,0.467-0.6,0.767-0.9,0.9
				c-0.934,0.434-1.583,1.116-1.95,2.05c-0.4,0.934-0.4,1.866,0,2.8c0.267,0.7,0.717,1.267,1.35,1.7c0.633,0.4,1.333,0.6,2.1,0.6
				c0.433,0,0.867-0.083,1.3-0.25l0.1-0.05c4.733-1.833,7.85-3.083,9.35-3.75c0.333-0.066,0.633-0.184,0.9-0.35l1.35,1.05
				c0.6,0.833,1.333,1.684,2.2,2.55c1.533,1.3,2.983,1.95,4.351,1.95c1.866,0,4.783-1,8.75-3c1.3-0.434,2.916-0.75,4.85-0.95
				c1.233-0.1,2.267-0.566,3.1-1.399c0.967-0.967,1.45-2.233,1.45-3.801c0-1.733-1.017-5.416-3.05-11.05c-0.2-2.1-1.2-3.916-3-5.45
				l-0.25-0.25c-0.866-1.033-1.866-2.017-3-2.949l-1-0.75l-0.05-0.45h0.35c1.467,0,3.617-0.634,6.45-1.9
				c0.434-0.1,0.85-0.3,1.25-0.6l1.05-0.5c1.3-0.434,2.917-0.75,4.851-0.95c1.233-0.1,2.267-0.583,3.1-1.45
				c0.967-0.967,1.45-2.217,1.45-3.75c0-1.767-1.017-5.467-3.05-11.1l-0.101-0.8v-1c0.101-1.467-0.066-2.95-0.5-4.45
				c1.3-1.233,2.084-2.85,2.351-4.85c0.333-2.2-0.034-4.4-1.101-6.6c-0.967-1.967-2.649-3.967-5.05-6
				c-2.366-2.067-4.8-3.583-7.3-4.55c-4.434-1.767-10.233-2.817-17.4-3.15c-1.333-0.1-2.783,0.017-4.35,0.35l-0.4-0.25
				c-1.433-0.667-2.933-1-4.5-1c-3.7,0-7.383,1.75-11.05,5.25C62.717,61.4,62.133,62.017,61.5,62.75z"/>
			<path style="fill-rule:evenodd;clip-rule:evenodd;fill:#3B223B;" d="M63.45,64.45c0.566-0.667,1.1-1.233,1.6-1.7
				c3.1-3,6.184-4.5,9.25-4.5c1.233,0,2.367,0.25,3.4,0.75l1.05,0.6c1.667-0.434,3.233-0.6,4.7-0.5c3.133,0.133,6.184,0.466,9.149,1
				c2.9,0.5,5.367,1.15,7.4,1.95c2.2,0.867,4.366,2.217,6.5,4.05c2.134,1.8,3.634,3.55,4.5,5.25c0.866,1.8,1.15,3.566,0.85,5.3
				c-0.267,1.567-0.916,2.75-1.949,3.55l-0.851,0.55c0.733,1.9,1.05,3.65,0.95,5.25l-0.05,1.4c0.1,0.366,0.149,0.716,0.149,1.05
				c2.034,5.6,3.051,9.133,3.051,10.6c0,1.634-0.733,2.517-2.2,2.65c-2.233,0.267-4.101,0.633-5.601,1.1l-1.449,0.75
				c-0.2,0.134-0.434,0.233-0.7,0.3c-2.601,1.2-4.483,1.801-5.65,1.801c-0.366,0-0.75-0.101-1.149-0.301
				c-0.634,0.2-1.2,0.301-1.7,0.301l-0.45-0.051c0.233,0.601,0.35,1.117,0.35,1.551c0.034,1.033,0.117,1.949,0.25,2.75
				c0.467,0.466,1.067,0.949,1.801,1.449c0.933,0.801,1.85,1.717,2.75,2.75l0.35,0.4c1.4,1.1,2.134,2.45,2.2,4.05
				c2.033,5.601,3.05,9.117,3.05,10.55c0,1-0.3,1.733-0.9,2.2c-0.433,0.3-0.883,0.45-1.35,0.45c-2.233,0.267-4.083,0.634-5.55,1.1
				c-3.7,1.9-6.3,2.851-7.8,2.851c-0.801,0-1.667-0.45-2.601-1.351c-0.8-0.699-1.483-1.517-2.05-2.449
				c-1.267-0.834-2.3-1.667-3.1-2.5c-0.333,0.333-0.717,0.633-1.15,0.899l-0.4,0.25v-0.1c-0.467,0.267-3.75,1.6-9.85,4
				c-0.3,0.133-0.6,0.133-0.9,0c-0.267-0.134-0.467-0.351-0.6-0.65c-0.133-0.267-0.133-0.55,0-0.85s0.333-0.517,0.6-0.65
				c0.867-0.333,1.566-0.983,2.1-1.95l3.05-4.8c1.4-2.2,2.533-3.566,3.4-4.1l1.45-0.95l0.55-3.85
				c-0.833,0.733-1.933,1.366-3.3,1.899c-1,0.3-2.217,0.217-3.65-0.25c-1.3-0.434-2.583-1-3.85-1.7c-1.5-0.8-2.817-1.433-3.95-1.899
				c-2.5-0.834-4-1.783-4.5-2.851c-0.533-0.933-0.683-1.833-0.45-2.699c0.167-0.667,0.333-1.134,0.5-1.4
				c0.733-1.233,1.133-1.967,1.2-2.2l0.6-4.45c0.3-1.066,0.85-2.033,1.65-2.899c0.667-0.867,1.434-1.584,2.3-2.15V94.9
				c0.033-1.733-0.434-4.567-1.4-8.5l-0.45-1.9l-0.55-0.6c-1.466-0.433-2.533-1.267-3.2-2.5c-1.167-2.133-1.533-4.833-1.1-8.1
				C60.183,69.8,61.417,66.85,63.45,64.45z"/>
			<g>
				<path style="fill-rule:evenodd;clip-rule:evenodd;fill:#41B239;" d="M65.3,74.9c0.233-0.4,0.517-0.8,0.85-1.2
					c0.434,0.866,0.934,1.75,1.5,2.65L65.3,74.9z"/>
				<path style="fill-rule:evenodd;clip-rule:evenodd;fill:#41B239;" d="M80.65,66.25l1.5-0.3c-1.433,3.5-3.15,5.767-5.15,6.8
					c-1.967,1.1-4.517,1.217-7.65,0.35c-0.633-0.2-1.233-0.5-1.8-0.9l1.25-1.1l1.05,0.4c2.133,0.533,4.133,0.483,6-0.15
					c2.533-0.767,4.1-2.267,4.7-4.5L80.65,66.25z"/>
				<path style="fill-rule:evenodd;clip-rule:evenodd;fill:#60DC4F;" d="M79.85,66.45l0.8-0.2l-0.1,0.6
					c-0.6,2.233-2.167,3.733-4.7,4.5c-1.934,0.667-3.934,0.716-6,0.15l-1.05-0.4C71.333,69.167,75.017,67.617,79.85,66.45z"/>
				<path style="fill-rule:evenodd;clip-rule:evenodd;fill:#1B8229;" d="M82.9,65.8l1.6-0.3c0.2,1.633,0.2,2.85,0,3.65
					c-0.1,0.367-0.6,1.533-1.5,3.5c-1.033,2.067-1.767,3.333-2.2,3.8c0.667-1.5,1.233-3.083,1.7-4.75
					C83.133,69.8,83.267,67.833,82.9,65.8z"/>
				<path style="fill-rule:evenodd;clip-rule:evenodd;fill:#1B8229;" d="M67.65,76.35c-0.566-0.9-1.066-1.784-1.5-2.65
					c0.5-0.6,0.967-1.1,1.4-1.5c0.567,0.4,1.167,0.7,1.8,0.9c3.133,0.867,5.683,0.75,7.65-0.35c2-1.033,3.717-3.3,5.15-6.8
					c-0.3,1.366-0.683,2.517-1.15,3.45c-1,1.733-1.883,3.383-2.65,4.95c-0.867,1.8-2.133,2.85-3.8,3.15
					c-1.767,0.167-3.333-0.033-4.7-0.6C68.45,76.333,67.717,76.15,67.65,76.35z"/>
				<path style="fill-rule:evenodd;clip-rule:evenodd;fill:#156F0B;" d="M65.2,77.25l2.45-0.9c0.067-0.2,0.8-0.017,2.2,0.55
					c1.367,0.567,2.933,0.767,4.7,0.6c1.667-0.3,2.934-1.35,3.8-3.15C79.117,72.783,80,71.133,81,69.4
					c0.467-0.933,0.85-2.083,1.15-3.45l0.75-0.15c0.367,2.034,0.233,4-0.4,5.9c-0.467,1.667-1.033,3.25-1.7,4.75
					c-0.1,0.366-0.333,0.833-0.7,1.4c-0.934,1.433-2.35,2.5-4.25,3.2c-0.667,0.233-1.633,0.167-2.9-0.2
					c-1.2-0.4-2.434-0.95-3.7-1.65C68.017,78.5,66.667,77.85,65.2,77.25z"/>
				<path style="fill-rule:evenodd;clip-rule:evenodd;fill:#41B239;" d="M93.3,67.55c0,1.233,0.267,2.317,0.8,3.25
					c0.601,0.9,1.334,1.35,2.2,1.35c0.667,0.733,1.283,1.2,1.851,1.4c0.233,0.167,0.533,0.633,0.899,1.4l0.101,0.25
					c0.166,0.667,0.216,1.85,0.149,3.55c-0.733,1.033-1.583,1.733-2.55,2.1c0.833,0.4,1.9,0.667,3.2,0.8l4.2,0.55
					c0.866,0.767,1.699,1.616,2.5,2.55l0.5,0.45l-0.851-0.45c-1.866-1.167-4.083-1.75-6.649-1.75
					c-1.767,0.267-2.884,0.467-3.351,0.6c-1.1,0.833-2.066,1.95-2.899,3.35C92.1,89.116,91.667,91.2,92.1,93.2
					c0,1.333,0.667,2.517,2,3.55c1.367,1,3.017,1.5,4.95,1.5l4.851,0.8c-2.233,2.4-3.767,3.601-4.601,3.601
					c-1.333,0-2.333-0.084-3-0.25c-1.2-0.301-2.166-0.983-2.899-2.051c-2.233-4.6-3.351-7.333-3.351-8.199
					c0-2.567,0.617-4.684,1.851-6.351c1.233-1.633,1.85-2.783,1.85-3.45c0-0.5-0.116-1.05-0.35-1.65l-1.95-3.9l0.45-9.1L93.3,67.55z
					 M96.05,75.5c-1.166-1.434-2.133-3-2.899-4.7c-1.167,1.767-1.351,3.617-0.551,5.55c0.601,1.433,1.601,2,3,1.7
					C96.667,77.35,96.816,76.5,96.05,75.5z"/>
				<path style="fill-rule:evenodd;clip-rule:evenodd;fill:#1B8229;" d="M95.35,68.85c0.634,0.966,0.95,2.083,0.95,3.35
					c-0.833,0-1.566-0.467-2.2-1.4c-0.533-0.933-0.8-2.017-0.8-3.25C94.1,67.55,94.783,67.983,95.35,68.85z M99.05,74.95
					c1.767,1.466,2.351,2.883,1.75,4.25c-0.633,1.333-0.916,2.15-0.85,2.45c-1.3-0.133-2.367-0.4-3.2-0.8
					c0.967-0.367,1.816-1.067,2.55-2.1c0.066-1.7,0.017-2.883-0.149-3.55L99.05,74.95z M108.4,92.35c0,1.467-0.417,3.167-1.25,5.101
					c-0.601,1.3-1.334,2.717-2.2,4.25c-3.667,1.866-6.134,2.8-7.4,2.8c-0.467,0-1.083-0.35-1.85-1.05c-0.733-0.7-1.384-1.5-1.95-2.4
					l-0.35-0.7c0.733,1.067,1.699,1.75,2.899,2.051c0.667,0.166,1.667,0.25,3,0.25c0.834,0,2.367-1.2,4.601-3.601l-4.851-0.8
					c1.967,0.134,3.816-0.4,5.55-1.6c1.634-1.334,2.551-2.983,2.75-4.95c0.301-2-0.183-3.834-1.449-5.5l0.899,1.1
					C107.866,88.934,108.4,90.616,108.4,92.35z"/>
				<path style="fill-rule:evenodd;clip-rule:evenodd;fill:#60DC4F;" d="M96.05,75.5c0.767,1,0.617,1.85-0.45,2.55
					c-1.399,0.3-2.399-0.267-3-1.7c-0.8-1.934-0.616-3.784,0.551-5.55C93.917,72.5,94.884,74.066,96.05,75.5z M93.4,80.7
					c0.233,0.6,0.35,1.15,0.35,1.65c0,0.667-0.616,1.816-1.85,3.45c-1.233,1.667-1.851,3.783-1.851,6.351
					c0,0.866,1.117,3.6,3.351,8.199l0.35,0.7c-1.566-1.033-2.65-1.934-3.25-2.7c-1.233-1.399-1.85-3.5-1.85-6.3
					c0-2.6,0.699-5.333,2.1-8.2c0.967-2.2,1.2-4.55,0.7-7.05L93.4,80.7z M105.9,86.2c1.267,1.666,1.75,3.5,1.449,5.5
					c-0.199,1.967-1.116,3.616-2.75,4.95c-1.733,1.199-3.583,1.733-5.55,1.6c-1.934,0-3.583-0.5-4.95-1.5
					c-1.333-1.033-2-2.217-2-3.55c0.834,1.133,2.15,1.7,3.95,1.7c4.934,0,7.4-1.851,7.4-5.551c0-1.899-0.767-3.433-2.3-4.6
					c-1.534-1-3.15-1.383-4.851-1.15c0.467-0.133,1.584-0.333,3.351-0.6l1.25,0.35c2.133,0.267,3.783,1.2,4.949,2.8L105.9,86.2z"/>
				<path style="fill-rule:evenodd;clip-rule:evenodd;fill:#156F0B;" d="M99.05,74.95c-0.366-0.767-0.684-1.233-0.95-1.4
					c-0.533-0.2-1.133-0.667-1.8-1.4c3.533,1.667,5.3,3.3,5.3,4.9c0.034,1.434,0.15,2.5,0.351,3.2c0.2,0.433,0.934,1.083,2.2,1.95
					l-4.2-0.55c-0.066-0.3,0.217-1.117,0.85-2.45C101.4,77.833,100.816,76.417,99.05,74.95z M107.15,85.2c1.199,1,1.8,2.166,1.8,3.5
					c2.033,5.6,3.05,9.05,3.05,10.35c0,0.967-0.4,1.467-1.2,1.5c-2.1,0.233-4.05,0.617-5.85,1.15c0.866-1.533,1.6-2.95,2.2-4.25
					c0.833-1.934,1.25-3.634,1.25-5.101c0-1.733-0.534-3.416-1.601-5.05l-0.899-1.1l-0.051-0.05c-1.166-1.601-2.816-2.534-4.949-2.8
					L99.65,83c2.6,0,4.816,0.583,6.649,1.75L107.15,85.2z"/>
				<path style="fill-rule:evenodd;clip-rule:evenodd;fill:#94F67F;" d="M96.3,83.6c1.7-0.233,3.316,0.15,4.851,1.15
					c1.533,1.167,2.3,2.7,2.3,4.6c0,3.7-2.467,5.551-7.4,5.551c-1.8,0-3.116-0.567-3.95-1.7c-0.433-2,0-4.084,1.301-6.25
					C94.233,85.55,95.2,84.433,96.3,83.6z"/>
				<path style="fill-rule:evenodd;clip-rule:evenodd;fill:#41B239;" d="M66.95,105.55c0.833,1.2,1.917,1.967,3.25,2.3
					c2.066,0.534,4.066,0.5,6-0.1c2.5-0.733,4.083-2.233,4.75-4.5c0.5-2.434-0.083-4.283-1.75-5.55
					c-0.633-0.566-1.317-0.95-2.05-1.15L77,96.45h-0.35c-0.867-0.7-1.867-1.084-3-1.15c-1.167-0.1-2.233,0.167-3.2,0.8
					c-1.2,0.567-2.133,1.717-2.8,3.45L67.2,100l-0.25,0.6c-0.267,0.301-0.483,0.717-0.65,1.25
					C65.967,103.116,66.183,104.35,66.95,105.55z M63.375,102.675c-0.077,0.561-0.069,1.169,0.025,1.825l0.2,3.95
					c0.233-2.767,0.467-4.65,0.7-5.65c0.7-2.366,2.55-4.533,5.55-6.5c3.033-2,4.617-3.3,4.75-3.899l0.1-0.801
					c0.4-1.133,1.483-2.333,3.25-3.6c1.667-1.3,2.55-2.15,2.65-2.55c0.167-0.5,0.2-1.267,0.1-2.3c-0.167-1.033-0.2-1.65-0.1-1.85
					c0.9-0.167,1.633-0.167,2.2,0l1.15,0.15c-0.534,2.833-0.534,5.166,0,7c0.367,1.666,0.367,3.217,0,4.649
					c-0.3,1.067-1.5,1.45-3.6,1.15l0.8,1.75l-3.55-1.05c2.033,1.033,3.417,2.1,4.15,3.2L82.1,99c0.433,0.9,0.583,1.967,0.45,3.2
					c-1.4,3.566-3.133,5.883-5.2,6.95c-2,1.033-4.533,1.149-7.6,0.35c-1.333-0.4-2.417-1.217-3.25-2.45
					c-0.633-1.033-0.9-2-0.8-2.899l-0.25,1.05c-0.2,2,0.65,4.5,2.55,7.5c-3.2-1.934-4.817-2.9-4.85-2.9
					c-0.533-0.133-0.95-0.399-1.25-0.8c-0.167-0.233-0.25-0.417-0.25-0.55c0.8-1.367,1.267-2.25,1.4-2.65
					C63.083,104.832,63.19,103.791,63.375,102.675z M77.15,91c0.967-0.533,1.5-0.65,1.6-0.35c0.033,0.233,0.567,0.35,1.6,0.35
					c0.933-0.033,1.433-0.65,1.5-1.85c-0.167-0.067-0.2-0.217-0.1-0.45c0-0.2-0.233-0.617-0.7-1.25c-0.6-0.8-1.517-0.533-2.75,0.8
					c-1.233,1.2-2.083,2.233-2.55,3.1C75.817,91.65,76.283,91.533,77.15,91z"/>
				<path style="fill-rule:evenodd;clip-rule:evenodd;fill:#60DC4F;" d="M67.65,99.55c0,0.733,0.083,1.351,0.25,1.851
					c0.567,1.267,1.567,2.066,3,2.399c2.033,0.566,3.767,0.351,5.2-0.649c0.933-0.667,1.617-1.483,2.05-2.45
					c0.2-0.4,0.317-0.7,0.35-0.9c0.3-1.2-0.15-2.283-1.35-3.25c0.733,0.2,1.417,0.584,2.05,1.15c1.667,1.267,2.25,3.116,1.75,5.55
					c-0.667,2.267-2.25,3.767-4.75,4.5c-1.934,0.6-3.934,0.634-6,0.1c-1.333-0.333-2.417-1.1-3.25-2.3
					c-0.767-1.2-0.983-2.434-0.65-3.7c0.167-0.466,0.383-0.883,0.65-1.25l0.25-0.6L67.65,99.55z M63.4,102.55l0.2-1.149
					c0.267-0.967,0.733-1.784,1.4-2.45c0.833-1.101,1.917-1.983,3.25-2.65c3.533-1.833,5.65-3.133,6.35-3.899
					C74.467,93,72.883,94.3,69.85,96.3c-3,1.967-4.85,4.134-5.55,6.5c-0.233,1-0.466,2.884-0.7,5.65l-0.2-3.95
					C63.3,103.8,63.3,103.15,63.4,102.55z M81.05,87.45c0.467,0.633,0.7,1.05,0.7,1.25c-0.1,0.233-0.067,0.383,0.1,0.45
					c-0.067,1.199-0.567,1.816-1.5,1.85c-1.033,0-1.567-0.116-1.6-0.35c-0.1-0.301-0.633-0.184-1.6,0.35
					c-0.867,0.533-1.333,0.65-1.4,0.35c0.467-0.866,1.317-1.899,2.55-3.1C79.533,86.917,80.45,86.65,81.05,87.45z"/>
				<path style="fill-rule:evenodd;clip-rule:evenodd;fill:#1B8229;" d="M65.7,104.15c-0.1,0.899,0.167,1.866,0.8,2.899
					c0.833,1.233,1.917,2.05,3.25,2.45c3.067,0.8,5.6,0.684,7.6-0.35c2.066-1.067,3.8-3.384,5.2-6.95
					c-0.267,1.366-0.65,2.566-1.15,3.6c-0.867,1.434-1.75,3.084-2.65,4.95c-0.867,1.767-2.133,2.8-3.8,3.1
					c-1.833,0.167-3.417-0.017-4.75-0.55c-1.367-0.533-2.1-0.733-2.2-0.6c-1.9-3-2.75-5.5-2.55-7.5L65.7,104.15z M68,112.7
					l-2.4,0.95c-2.233-0.801-3.55-1.584-3.95-2.351c-0.367-0.7-0.483-1.3-0.35-1.8c0.133-0.6,0.25-0.95,0.35-1.05
					c0,0.133,0.083,0.316,0.25,0.55c0.3,0.4,0.717,0.667,1.25,0.8C63.183,109.8,64.8,110.767,68,112.7z M83.95,88.45
					c-0.534-1.834-0.534-4.167,0-7C84.083,82.717,84.2,86.1,84.3,91.6c0.034,4.867,0.1,7.551,0.2,8.051
					c0.533,2.767,0.65,4.733,0.35,5.899c-0.033,0.4-0.533,1.55-1.5,3.45c-0.867,1.866-1.6,3.134-2.2,3.8
					c0.733-1.533,1.317-3.1,1.75-4.7c0.633-2.066,0.75-4.066,0.35-6c-0.133-0.966-0.517-2.017-1.15-3.149l-0.35-0.8
					c-0.733-1.101-2.117-2.167-4.15-3.2L81.15,96l-0.8-1.75c2.1,0.3,3.3-0.083,3.6-1.15C84.283,91.634,84.283,90.083,83.95,88.45z"
					/>
				<path style="fill-rule:evenodd;clip-rule:evenodd;fill:#94F67F;" d="M67.65,99.55c0.667-1.733,1.6-2.883,2.8-3.45
					c0.966-0.633,2.033-0.899,3.2-0.8c1.133,0.066,2.133,0.45,3,1.15H77l0.15,0.1c1.2,0.967,1.65,2.05,1.35,3.25
					c-0.033,0.2-0.15,0.5-0.35,0.9c-0.433,0.967-1.117,1.783-2.05,2.45c-1.434,1-3.167,1.216-5.2,0.649
					c-1.433-0.333-2.433-1.133-3-2.399C67.733,100.9,67.65,100.283,67.65,99.55z"/>
				<path style="fill-rule:evenodd;clip-rule:evenodd;fill:#156F0B;" d="M68,112.7c0.1-0.134,0.833,0.066,2.2,0.6
					c1.333,0.533,2.917,0.717,4.75,0.55c1.667-0.3,2.933-1.333,3.8-3.1c0.9-1.866,1.783-3.517,2.65-4.95
					c0.5-1.033,0.883-2.233,1.15-3.6c0.167-1.2,0.017-2.283-0.45-3.25c0.633,1.133,1.017,2.184,1.15,3.149
					c0.4,1.934,0.283,3.934-0.35,6c-0.433,1.601-1.017,3.167-1.75,4.7c-0.167,0.5-0.383,0.967-0.65,1.4
					c-0.967,1.5-2.4,2.583-4.3,3.25c-0.733,0.2-1.7,0.116-2.9-0.25c-1.233-0.434-2.466-0.967-3.7-1.601
					c-1.167-0.666-2.5-1.316-4-1.949L68,112.7z M83.95,81.45l1.35,7.25c0.101,1.233-0.166,4.883-0.8,10.95
					c-0.1-0.5-0.167-3.184-0.2-8.051C84.2,86.1,84.083,82.717,83.95,81.45z"/>
				<path style="fill-rule:evenodd;clip-rule:evenodd;fill:#41B239;" d="M85,100.9c-1.167,1.767-1.35,3.616-0.55,5.55
					c0.6,1.467,1.6,2.033,3,1.7c1.033-0.7,1.184-1.534,0.45-2.5C86.7,104.15,85.733,102.566,85,100.9z M88.15,102.3
					c0.699,0.7,1.3,1.15,1.8,1.351c0.3,0.233,0.616,0.699,0.95,1.399l0.1,0.25c0.167,0.7,0.217,1.884,0.15,3.55
					c-0.801,1.101-1.65,1.801-2.551,2.101c0.834,0.399,1.9,0.666,3.2,0.8l4.15,0.55c0.866,0.7,1.717,1.55,2.55,2.55l0.5,0.45
					l-0.85-0.45c-1.834-1.133-4.067-1.699-6.7-1.699c-1.334,0.133-2.434,0.316-3.3,0.55c-1.101,0.833-2.067,1.95-2.9,3.35
					c-1.3,2.167-1.733,4.25-1.3,6.25c0,1.334,0.667,2.517,2,3.55c1.366,0.967,3.017,1.45,4.95,1.45l4.85,0.8
					c-2.233,2.4-3.767,3.601-4.6,3.601c-1.334,0-2.334-0.084-3-0.25c-1.2-0.3-2.167-0.983-2.9-2.05
					c-2.233-4.567-3.35-7.284-3.35-8.15c0-2.566,0.617-4.684,1.85-6.35c1.233-1.634,1.85-2.784,1.85-3.45
					c0-0.5-0.116-1.05-0.35-1.65L83.3,106.9l0.45-9.101l1.35-0.149c0,1.199,0.284,2.283,0.851,3.25
					C86.583,101.833,87.316,102.3,88.15,102.3z"/>
				<path style="fill-rule:evenodd;clip-rule:evenodd;fill:#1B8229;" d="M88.1,102.3c-0.8,0-1.517-0.467-2.149-1.399
					c-0.566-0.967-0.851-2.051-0.851-3.25c0.834,0,1.534,0.433,2.101,1.3C87.8,99.85,88.1,100.967,88.1,102.3z M90.9,105.05
					c1.767,1.467,2.35,2.884,1.75,4.25c-0.634,1.334-0.917,2.15-0.851,2.45c-1.3-0.134-2.366-0.4-3.2-0.8
					c0.9-0.3,1.75-1,2.551-2.101c0.066-1.666,0.017-2.85-0.15-3.55L90.9,105.05z M98.65,117.4c1.066,1.633,1.6,3.333,1.6,5.1
					c0,1.5-0.434,3.167-1.3,5c-0.434,1.1-1.15,2.533-2.15,4.3c-3.7,1.834-6.166,2.75-7.399,2.75c-0.467,0-1.084-0.35-1.851-1.05
					c-0.866-0.8-1.517-1.6-1.95-2.4l-0.35-0.699c0.7,1.066,1.65,1.75,2.85,2.05c0.733,0.166,1.75,0.25,3.051,0.25
					c0.833,0,2.366-1.2,4.6-3.601l-4.85-0.8c2.033,0.167,3.883-0.35,5.55-1.55c1.566-1.3,2.483-2.95,2.75-4.95
					c0.3-2-0.184-3.833-1.45-5.5L98.65,117.4z"/>
				<path style="fill-rule:evenodd;clip-rule:evenodd;fill:#60DC4F;" d="M83.3,106.9l1.95,3.899c0.233,0.601,0.35,1.15,0.35,1.65
					c0,0.666-0.616,1.816-1.85,3.45c-1.233,1.666-1.85,3.783-1.85,6.35c0,0.866,1.117,3.583,3.35,8.15l0.35,0.699
					c-1.566-1-2.649-1.883-3.25-2.649c-1.233-1.334-1.85-3.434-1.85-6.3c0-2.601,0.7-5.334,2.1-8.2
					C83.567,111.75,83.8,109.4,83.3,106.9z M84.45,106.45c-0.8-1.934-0.617-3.783,0.55-5.55c0.733,1.666,1.7,3.25,2.9,4.75
					c0.733,0.966,0.583,1.8-0.45,2.5C86.05,108.483,85.05,107.917,84.45,106.45z M92.75,113.5c2.033,0.2,3.684,1.116,4.95,2.75
					l0.05,0.05c1.267,1.667,1.75,3.5,1.45,5.5c-0.2,1.967-1.117,3.617-2.75,4.95c-1.667,1.2-3.517,1.717-5.55,1.55
					c-1.934,0-3.584-0.483-4.95-1.45c-1.333-1.033-2-2.216-2-3.55c0.833,1.134,2.149,1.7,3.95,1.7c4.933,0,7.399-1.833,7.399-5.5
					c0-1.934-0.783-3.483-2.35-4.65c-1.4-0.966-3-1.35-4.8-1.149c0.866-0.233,1.966-0.417,3.3-0.55L92.75,113.5z"/>
				<path style="fill-rule:evenodd;clip-rule:evenodd;fill:#156F0B;" d="M89.95,103.65c-0.467-0.2-1.084-0.65-1.851-1.351
					c3.567,1.601,5.351,3.217,5.351,4.851c0.066,1.633,0.184,2.699,0.35,3.199c0.233,0.5,0.95,1.15,2.15,1.95l-4.15-0.55
					c-0.066-0.3,0.217-1.116,0.851-2.45c0.6-1.366,0.017-2.783-1.75-4.25C90.566,104.35,90.25,103.884,89.95,103.65z M98.15,114.85
					L99,115.3c1.2,1.066,1.8,2.233,1.8,3.5c2,5.566,3,9,3,10.3c0,0.967-0.383,1.467-1.149,1.5c-2.2,0.267-4.15,0.667-5.851,1.2
					c0.9-1.633,1.634-3.066,2.2-4.3c0.833-1.866,1.25-3.533,1.25-5c0-1.767-0.533-3.467-1.6-5.1l-0.9-1.101l-0.05-0.05
					c-1.267-1.634-2.917-2.55-4.95-2.75l-1.3-0.35C94.083,113.15,96.316,113.717,98.15,114.85z"/>
				<path style="fill-rule:evenodd;clip-rule:evenodd;fill:#94F67F;" d="M88.1,113.7c1.834-0.2,3.45,0.184,4.851,1.149
					c1.566,1.167,2.35,2.717,2.35,4.65c0,3.667-2.467,5.5-7.399,5.5c-1.801,0-3.117-0.566-3.95-1.7c-0.434-2,0-4.083,1.3-6.25
					C86.083,115.684,87.033,114.566,88.1,113.7z"/>
				<g>
					<path style="fill-rule:evenodd;clip-rule:evenodd;fill:#9A7618;" d="M91.55,77.5l0.3-0.05c-0.6,0.667-1.033,1.116-1.3,1.35
						c-1.866,1.867-3.583,2.8-5.149,2.8c-0.667,0-1.351-0.684-2.05-2.05c-0.4-0.867-0.684-1.583-0.85-2.15l-0.45-4.8l1.85,2.25
						c1.966,2,3.95,3,5.95,3C90.316,77.85,90.884,77.733,91.55,77.5z"/>
					<path style="fill-rule:evenodd;clip-rule:evenodd;fill:#9A7618;" d="M90.7,64.95c1.233,0,2.45,0.05,3.649,0.15l-0.1,2.85
						c-0.7,0.2-1.634,0.3-2.8,0.3c-3.367,0-5.767-0.733-7.2-2.2L83.9,65.6C86.4,65.2,88.667,64.983,90.7,64.95z"/>
					<path style="fill-rule:evenodd;clip-rule:evenodd;fill:#7B842C;" d="M82.1,65.95l1.8-0.35l0.35,0.45
						c1.434,1.467,3.833,2.2,7.2,2.2c1.166,0,2.1-0.1,2.8-0.3l0.1-2.85l0.95,0.05c0.634,0.567,1.033,0.95,1.2,1.15
						c0.566,0.567,1.116,1.383,1.65,2.45c0.633,1.333,1.199,2.4,1.699,3.2c0.801,1.133,3.301,2.017,7.5,2.65
						c-3.1,0.566-5.55,0.95-7.35,1.15c-1.566,0.066-2.884,0.033-3.95-0.1L94.1,75.4c-0.899,5.033-2.816,8.65-5.75,10.85
						c-0.733,0.6-1.666,1.15-2.8,1.65l-2,0.649c-0.133,0.101-0.3,0.15-0.5,0.15c-2.633,0.733-5.816,1.166-9.55,1.3h-1.9
						c3.4-1.134,5.45-3.517,6.15-7.15c0.367-1.934,1.283-3.417,2.75-4.45c0.633-0.5,1.3-0.833,2-1c0.167,0.567,0.45,1.283,0.85,2.15
						c0.7,1.367,1.383,2.05,2.05,2.05c1.566,0,3.283-0.934,5.149-2.8c0.267-0.233,0.7-0.683,1.3-1.35
						c0.634-0.733,1.15-1.417,1.551-2.05c-2.567-0.1-5.15-1.25-7.75-3.45c-0.9-0.833-1.851-2.333-2.851-4.5L82.1,65.95z"/>
					<path style="fill-rule:evenodd;clip-rule:evenodd;fill:#7B842C;" d="M82.95,104.45c1.533,1.166,2.85,1.1,3.95-0.2
						c0.366-0.4,1.283-1.6,2.75-3.6l-2.45,5.6c-0.9,2.066-1.834,3.417-2.8,4.05c-0.533,0.334-1.4,0.584-2.6,0.75
						c-1.4,0.3-3.433,0.384-6.1,0.25c-2.733-0.2-4.85-0.666-6.35-1.399c2.1,0.267,4.15-0.233,6.15-1.5
						c0.467-0.5,1.15-1.684,2.05-3.551c0.6-1.199,2.367-2.35,5.3-3.449C82.917,102.134,82.95,103.15,82.95,104.45z"/>
					<path style="fill-rule:evenodd;clip-rule:evenodd;fill:#7B842C;" d="M83.1,90.95L83.2,91c1.866,2.6,3.6,3.95,5.2,4.05
						c2.066,0.066,3.333,0.084,3.8,0.05l0.899-5.35c2.233,0.667,3.367,2.25,3.4,4.75c0.667,3.467,2.866,6.2,6.6,8.2
						c-3.3,0-5.433,0.1-6.399,0.3c-0.4,0.033-1.351-0.15-2.851-0.55c-1.399-0.367-2.416-0.717-3.05-1.05
						c-0.3-0.134-0.684-0.384-1.149-0.75c-0.567-0.4-1.067-0.817-1.5-1.25c-1.767-1.601-3.367-4.217-4.8-7.851
						c0-0.1-0.033-0.184-0.1-0.25C83.25,91.167,83.2,91.05,83.1,90.95z"/>
					<path style="fill-rule:evenodd;clip-rule:evenodd;fill:#8A570B;" d="M81.35,66.1l0.75-0.15l0.7,1.5
						c1,2.167,1.95,3.667,2.851,4.5c2.6,2.2,5.183,3.35,7.75,3.45c-0.4,0.633-0.917,1.317-1.551,2.05l-0.3,0.05
						c-0.666,0.233-1.233,0.35-1.7,0.35c-2,0-3.983-1-5.95-3l-1.85-2.25c0-0.4-0.066-1-0.2-1.8
						C81.783,69.733,81.617,68.167,81.35,66.1z"/>
					<path style="fill-rule:evenodd;clip-rule:evenodd;fill:#7E4006;" d="M83.05,90.75l0.05,0.2c0.1,0.1,0.15,0.217,0.15,0.35
						c0.067,0.066,0.1,0.15,0.1,0.25c1.433,3.634,3.034,6.25,4.8,7.851c0.433,0.433,0.933,0.85,1.5,1.25
						c0.466,0.366,0.85,0.616,1.149,0.75c-0.434,1.833-1.083,4.1-1.95,6.8c-1.733,2.3-3.716,3.75-5.95,4.35l-0.25,1.5
						c-0.233,1.066-0.316,2.15-0.25,3.25c0.133,0.867,0.517,1.95,1.15,3.25c-0.667,0.5-1.167,0.8-1.5,0.9
						c-0.733,0.267-1.267,0.184-1.6-0.25l1.35-10.15c1.2-0.166,2.067-0.416,2.6-0.75c0.966-0.633,1.9-1.983,2.8-4.05l2.45-5.6
						L89.6,100.7c-2.267,0.666-3.883,0.383-4.85-0.851c-1-1.166-1.567-2.399-1.7-3.699C83.117,94.417,83.117,92.616,83.05,90.75z
						 M93.7,83.95c-0.834,1.4-1.884,2.633-3.15,3.7c-2.3,1.8-4.8,2.816-7.5,3.05v-2c0.2,0,0.367-0.05,0.5-0.15l2-0.649
						c1.134-0.5,2.066-1.051,2.8-1.65c2.934-2.2,4.851-5.817,5.75-10.85L93.7,83.95z"/>
					<path style="fill-rule:evenodd;clip-rule:evenodd;fill:#8F8C36;" d="M82.85,101.4c0.133-2.267,0.2-4.017,0.2-5.25
						c0.133,1.3,0.7,2.533,1.7,3.699c0.967,1.233,2.583,1.517,4.85,0.851l0.051-0.05c-1.467,2-2.384,3.199-2.75,3.6
						c-1.101,1.3-2.417,1.366-3.95,0.2C82.95,103.15,82.917,102.134,82.85,101.4z M84,113.85c-0.567-0.566-0.933-1-1.1-1.3
						c2.234-0.6,4.216-2.05,5.95-4.35l-2.1,6.149c-0.333,0.301-0.7,0.467-1.1,0.5C85.283,114.95,84.733,114.616,84,113.85z
						 M90.55,87.65c1.267-1.067,2.316-2.3,3.15-3.7L92.2,95.1c-0.467,0.034-1.733,0.017-3.8-0.05c-1.601-0.1-3.334-1.45-5.2-4.05
						l-0.1-0.05l-0.05-0.2c0.034-0.033,0.034-0.05,0-0.05C85.75,90.467,88.25,89.45,90.55,87.65z"/>
					<path style="fill-rule:evenodd;clip-rule:evenodd;fill:#778E1E;" d="M83.55,120.55l-1.55,3.7
						c-0.767,2.233-1.483,3.934-2.15,5.1c0,0.067-3.35,1.417-10.05,4.051c1.133-0.5,2.017-1.317,2.65-2.45l3.05-4.8
						c1.233-2,2.233-3.233,3-3.7l1.95-1.25c0.333,0.434,0.867,0.517,1.6,0.25C82.383,121.35,82.883,121.05,83.55,120.55
						c-0.633-1.3-1.017-2.383-1.15-3.25c-0.066-1.1,0.017-2.184,0.25-3.25l0.25-1.5c0.167,0.3,0.533,0.733,1.1,1.3
						c0.733,0.767,1.283,1.101,1.65,1c0.399-0.033,0.767-0.199,1.1-0.5l0.55-1.5l0.9,0.95c0.666,0.601,1.149,1.101,1.45,1.5
						c0.733,1,1.033,1.983,0.899,2.95l-0.649,4.6c-0.034,0.934,0.699,2.834,2.199,5.7l-6.75-5.899
						c-0.466-0.334-0.899-0.784-1.3-1.351L83.55,120.55z"/>
					<path style="fill-rule:evenodd;clip-rule:evenodd;fill:#90881B;" d="M82,124.25l1.55-3.7l0.5,0.75
						c-0.167,0.9-0.483,2.167-0.95,3.8c-0.467,1.7-1.55,3.117-3.25,4.25C80.517,128.184,81.233,126.483,82,124.25z"/>
				</g>
			</g>
			
				<use xlink:href="#FlashAICB_x2F_Layer_1_x2F__x3C_Path_x3E_"  width="34.43" height="23.33" x="0.023" y="-23.391" transform="matrix(1 0 0 -1 70.1001 71.8501)" style="overflow:visible;opacity:0.7188;enable-background:new    ;"/>
			<g>
				
					<use xlink:href="#FlashAICB_x2F_Layer_1_x2F__x3C_Path_x3E__x5F_1_x5F_0"  width="45.886" height="42.314" x="0.009" y="-42.313" transform="matrix(1 0 0 -1 63.2002 62.4502)" style="overflow:visible;opacity:0.7188;enable-background:new    ;"/>
				<path style="fill-rule:evenodd;clip-rule:evenodd;fill:#FFFFFF;" d="M68,94.9c0-1.634-0.267-3.7-0.8-6.2
					c-0.667-2.733-1.133-4.717-1.4-5.95c-1.767-0.167-2.983-0.867-3.65-2.1c-1.066-1.967-1.383-4.433-0.95-7.4
					c0.433-3.1,1.55-5.717,3.35-7.85c1.934-2.3,3.983-3.917,6.15-4.85c2.333-1.033,4.466-1.1,6.4-0.2c0.533,0.3,0.967,0.633,1.3,1
					c1.633-0.567,3.3-0.8,5-0.7c6.567,0.3,11.917,1.25,16.05,2.85c2.066,0.833,4.116,2.117,6.149,3.85c1.967,1.7,3.301,3.267,4,4.7
					c0.7,1.4,0.967,2.784,0.801,4.15c-0.167,1.233-0.634,2.15-1.4,2.75c-0.634,0.466-1.233,0.633-1.8,0.5l-0.7-0.4l1.1,2.15
					c0.7,1.7,1,3.267,0.9,4.7c-0.1,1.767-0.283,2.966-0.55,3.6c-0.3,0.667-1,1.467-2.101,2.4c-0.666,0.566-1.466,0.767-2.399,0.6
					c-1.101-0.2-1.884-0.917-2.351-2.15c-0.966-2.733-2.066-4.566-3.3-5.5c-0.633-0.467-1.383-0.8-2.25-1l-1.1-0.2l2.25,3.85
					c1.566,2.866,2.483,5,2.75,6.4c0.3,1.699,0.166,3.267-0.4,4.699c-0.533,1.467-1.416,2.517-2.649,3.15
					c-1.367,0.733-2.817,0.8-4.351,0.2c-1.7-0.634-2.75-1.884-3.149-3.75c-0.467-2.033-1.284-4.033-2.45-6
					c-1.2-2.066-2.434-3.517-3.7-4.351c-1.4-0.933-2.733-1.383-4-1.35c-1.367,0.066-2.15,0.717-2.35,1.95
					c-0.167,0.866-0.1,2.233,0.2,4.1c0.267,1.834,0.316,3.184,0.15,4.05c-0.233,1.434-0.933,2.767-2.1,4
					c-1.233,1.367-2.45,1.95-3.65,1.75C68.933,102.017,67.933,99.533,68,94.9z"/>
				<g>
					<path style="fill-rule:evenodd;clip-rule:evenodd;fill:#CFBDB4;" d="M99.2,92.95l0.25,0.95c0.3,1.699,0.166,3.267-0.4,4.699
						c-0.533,1.467-1.416,2.517-2.649,3.15c-1.367,0.733-2.817,0.8-4.351,0.2c-1.7-0.634-2.75-1.884-3.149-3.75
						c-0.467-2.033-1.284-4.033-2.45-6c-1.2-2.066-2.434-3.517-3.7-4.351c-1.4-0.933-2.733-1.383-4-1.35
						c-1.367,0.066-2.15,0.717-2.35,1.95c-0.167,0.866-0.1,2.233,0.2,4.1c0.267,1.834,0.316,3.184,0.15,4.05
						c-0.233,1.434-0.933,2.767-2.1,4c-1.233,1.367-2.45,1.95-3.65,1.75c-1.8-0.3-2.8-2.216-3-5.75
						c0.533,0.967,1.383,1.25,2.55,0.851c1.3-0.434,2.017-1.684,2.15-3.75c0.233-3.634,0.433-6.033,0.6-7.2
						c0.4-2.367,1.034-3.717,1.9-4.05c1.2-0.434,2.966-0.184,5.3,0.75c2.6,1,4.533,2.45,5.8,4.35c0.334,0.467,1.7,2.584,4.101,6.351
						c1.466,2.3,2.466,3.633,3,4c0.899,0.6,1.883,0.699,2.949,0.3c1.367-0.5,2.25-1.767,2.65-3.8
						C99.134,93.866,99.2,93.384,99.2,92.95z"/>
					<polygon style="fill-rule:evenodd;clip-rule:evenodd;fill:#CFBDB4;" points="66.65,86.4 66.85,84.25 67.1,88.35 					"/>
					<path style="fill-rule:evenodd;clip-rule:evenodd;fill:#CFBDB4;" d="M91.2,80.5c-0.3-0.5-0.75-1.117-1.351-1.85l-0.8-0.95
						l2.7-0.1c2.167,0.233,4.25,1.083,6.25,2.55c1.5,1.067,2.85,2.7,4.05,4.9c1.101,2.033,2.084,3.267,2.95,3.7
						c0.4,0.233,0.983,0.116,1.75-0.35c0.8-0.5,1.384-1.184,1.75-2.051c-0.1,1.534-0.3,2.617-0.6,3.25
						c-0.301,0.634-0.983,1.4-2.051,2.301c-0.666,0.566-1.466,0.767-2.399,0.6c-1.101-0.2-1.884-0.917-2.351-2.15
						c-0.966-2.733-2.066-4.566-3.3-5.5c-0.633-0.467-1.383-0.8-2.25-1l-1.1-0.2l1.5,2.55c1.133,1.967,2.017,3.666,2.649,5.1
						c-0.833-1.066-1.649-2.133-2.449-3.2C94.616,86,92.967,83.467,91.2,80.5z"/>
					<path style="fill-rule:evenodd;clip-rule:evenodd;fill:#CFBDB4;" d="M102.6,71.2c2.767,2.233,4.267,3.433,4.5,3.6
						c1.601,0.967,2.684,0.85,3.25-0.35c0.134,0.966,0.084,1.866-0.149,2.7c-0.267,0.8-0.667,1.4-1.2,1.8
						c-0.634,0.466-1.233,0.633-1.8,0.5l-0.7-0.4l0.9,1.65c-1.067-1.767-3.351-4.4-6.851-7.9c-0.633-0.6-1.649-1.267-3.05-2
						l-1.9-0.95l2.301-0.3C99.7,69.583,101.267,70.133,102.6,71.2z"/>
					<path style="fill-rule:evenodd;clip-rule:evenodd;fill:#CFBDB4;" d="M67.2,70.85c-1.867,4.466-2.55,8.4-2.05,11.8
						c-1.433-0.3-2.433-0.967-3-2c-1.033-1.9-1.367-4.283-1-7.15c0.3,0.3,0.65,0.433,1.05,0.4c0.633-0.1,1.533-1.066,2.7-2.9
						c1.533-2.434,2.783-4.133,3.75-5.1c3-3.033,5.85-4.633,8.55-4.8l0.9-0.05c0.033,0.034,0.066,0.034,0.1,0
						c0.033-0.033,0.066-0.033,0.1,0c0.3-0.1,0.633-0.216,1-0.35c-0.1,0.033-1.767,0.767-5,2.2
						C70.9,64.933,68.533,67.583,67.2,70.85z"/>
				</g>
				<path style="fill-rule:evenodd;clip-rule:evenodd;fill:#A93F95;" d="M66.6,73.15c-0.833,2.633-1.117,5.033-0.85,7.2
					c0.133,1,0.583,2.833,1.35,5.5c1,4,1.5,7.016,1.5,9.05c-0.033,4.267,0.8,6.55,2.5,6.85c0.667,0.1,1.417-0.15,2.25-0.75
					c0.667-0.533,1.267-1.217,1.8-2.05c0.567-0.867,0.917-1.7,1.05-2.5c0.133-0.767,0.066-2.033-0.2-3.8
					c-0.3-1.834-0.367-3.267-0.2-4.301l0.25-0.75L76,87.55c-0.033-0.267-0.267-0.416-0.7-0.45l-0.6,0.051
					c0.133-0.167,0.3-0.367,0.5-0.601c0.433-0.399,0.883-0.65,1.35-0.75c1.267-0.333,2.367-0.283,3.3,0.15
					c1.066,0.2,2.15,0.649,3.25,1.35c1.3,0.867,2.567,2.351,3.8,4.45s2.083,4.217,2.55,6.35c0.333,1.434,1.1,2.45,2.3,3.051
					c0.667,0.366,1.4,0.55,2.2,0.55s1.517-0.184,2.149-0.55l0.7-0.4c0.9-0.7,1.533-1.65,1.9-2.85c0.366-1.2,0.416-2.5,0.149-3.9
					c-0.233-1.366-1.116-3.417-2.649-6.15c-1.467-2.5-2.217-3.766-2.25-3.8L93.3,83h0.05l-0.05-0.05c-0.533-0.833-1.2-1.75-2-2.75
					l-1.1-1.25L92,79.6c1.366,0.6,2.483,1.267,3.35,2c2.233,1.867,3.551,3.167,3.95,3.9c0.767,0.934,1.566,2.483,2.4,4.65
					c0.3,0.833,0.816,1.383,1.55,1.649c0.833,0.233,1.55,0.117,2.15-0.35l0.1-0.05c1.033-0.867,1.667-1.601,1.9-2.2
					c0.233-0.533,0.399-1.65,0.5-3.35c0.1-1.333-0.184-2.8-0.851-4.4c-0.666-1.333-1.017-2.017-1.05-2.05h0.05
					c-1.666-2.233-2.583-3.45-2.75-3.65c-1.133-1.4-2.666-2.767-4.6-4.1l-2.55-1.55l4,1.85c2.966,1.767,5.233,4,6.8,6.7
					c0.467,0.367,1.033,0.3,1.7-0.2c0.633-0.5,1.017-1.317,1.149-2.45c0.134-1.2-0.1-2.417-0.7-3.65
					c-0.666-1.333-1.933-2.817-3.8-4.45c-2-1.733-4.017-3-6.05-3.8c-2-0.8-4.5-1.5-7.5-2.1c-3.2-0.667-6.267-1.067-9.2-1.2
					c-2.333-0.1-4.466,0.3-6.4,1.2c-2.033,0.933-4.066,2.517-6.1,4.75C68.583,68.35,67.433,70.483,66.6,73.15z M64.15,65.05
					c0.567-0.667,1.083-1.216,1.55-1.65c2-1.933,4.017-3.217,6.05-3.85S75.633,59,77.3,59.8c0.434,0.2,0.833,0.483,1.2,0.85
					c1.733-0.533,3.367-0.75,4.9-0.65c6.633,0.333,12.05,1.3,16.25,2.9c2.066,0.833,4.149,2.117,6.25,3.85
					c2.066,1.767,3.483,3.433,4.25,5c0.767,1.566,1.033,3.117,0.8,4.65c-0.2,1.4-0.733,2.434-1.601,3.1
					c-0.566,0.4-1.1,0.617-1.6,0.65c1.033,2.1,1.483,4.033,1.35,5.8c-0.1,1.833-0.3,3.1-0.6,3.8c-0.333,0.767-1.1,1.65-2.3,2.65
					c-0.867,0.8-1.967,1-3.3,0.6c-1.067-0.267-1.851-1.066-2.351-2.4c-0.967-2.633-2-4.383-3.1-5.25
					c-0.533-0.367-1.117-0.633-1.75-0.8c2.5,4.033,3.95,7.101,4.35,9.2c0.3,1.634,0.217,3.167-0.25,4.6
					c-0.467,1.434-1.233,2.567-2.3,3.4l-0.85,0.55c-0.801,0.434-1.684,0.65-2.65,0.65s-1.884-0.217-2.75-0.65
					c-1.566-0.767-2.55-2.083-2.95-3.95c-0.434-1.933-1.217-3.883-2.35-5.85c-1.167-1.967-2.333-3.35-3.5-4.15
					c-0.9-0.6-1.817-0.983-2.75-1.149c-0.934-0.134-1.633-0.017-2.1,0.35c-0.333,0.267-0.533,0.617-0.6,1.05
					c-0.167,0.834-0.1,2.117,0.2,3.851c0.267,1.899,0.316,3.316,0.15,4.25c-0.167,0.967-0.567,1.934-1.2,2.899
					c-0.6,1-1.3,1.801-2.1,2.4c-1.066,0.833-2.117,1.167-3.15,1c-2.4-0.4-3.566-3.1-3.5-8.1c0-1.767-0.483-4.684-1.45-8.75
					l-0.65-2.9c-1.733-0.233-2.95-1-3.65-2.3c-1.1-2-1.45-4.534-1.05-7.6C61.033,70.05,62.217,67.283,64.15,65.05z M66.45,64.25
					c-0.333,0.333-0.833,0.85-1.5,1.55c-1.767,2.067-2.85,4.617-3.25,7.65c-0.367,2.8-0.067,5.1,0.9,6.9
					c0.5,0.867,1.316,1.417,2.45,1.65l-0.15-0.9c-0.333-2.367-0.066-4.883,0.8-7.55c0.833-2.7,2.066-4.933,3.7-6.7
					c2.567-2.767,5.167-4.684,7.8-5.75l-0.35-0.2c-1.5-0.7-3.15-0.767-4.95-0.2C70.1,61.3,68.283,62.483,66.45,64.25z"/>
			</g>
		</g>
		<g>
			<g>
				<g>
					<g>
						<g>
							<g>
								<g>
									
										<linearGradient id="SVGID_8_" gradientUnits="userSpaceOnUse" x1="-55.7446" y1="58.5259" x2="-22.8491" y2="58.5259" gradientTransform="matrix(0.1284 -0.9917 0.9917 0.1284 2.910495e-004 -6.246567e-005)">
										<stop  offset="0.0549" style="stop-color:#6C1F69"/>
										<stop  offset="0.5882" style="stop-color:#CEA8B1"/>
										<stop  offset="0.8392" style="stop-color:#FAE3D0"/>
									</linearGradient>
									<path style="fill-rule:evenodd;clip-rule:evenodd;fill:url(#SVGID_8_);" d="M62.95,31.3c1.667,0,3.15,0.3,4.45,0.9
										c0.767,0.2,1.317,0.65,1.65,1.35l0.05,0.05c0.667,1.533,0.45,3.233-0.65,5.1c-0.667,1.066-1.5,2.033-2.5,2.9
										c-2.467,2.233-4.833,3.55-7.1,3.95h-0.6c-0.333,0.633-0.683,1.167-1.05,1.6c-1.9,2.667-3.95,4.417-6.15,5.25l-0.25,0.1
										c-0.133,0.633-0.333,1.333-0.6,2.1c-1.2,3.2-2.684,5.466-4.45,6.8l-0.7,0.4c-0.367,0.1-0.7,0.133-1,0.1
										c-0.367,0-0.75-0.117-1.15-0.35c-0.867-0.533-1.483-1.25-1.85-2.15l-1.3,0.3H39.5c-0.767-0.067-1.4-0.417-1.9-1.05
										c-0.867-1.267-1.067-2.833-0.6-4.7c0.333-1.4,0.967-2.717,1.9-3.95c1.333-1.633,2.967-2.85,4.9-3.65
										c-0.1-1.3,0.317-2.65,1.25-4.05c0.767-1.1,1.667-2.017,2.7-2.75c1.6-1.1,3.383-1.783,5.35-2.05c0.3-1.167,1-2.267,2.1-3.3
										c0.9-0.8,1.883-1.45,2.95-1.95C59.65,31.617,61.25,31.3,62.95,31.3z"/>
									<path style="fill-rule:evenodd;clip-rule:evenodd;fill:none;stroke:#FCE5FF;stroke-width:0.25;" d="M62.95,31.3
										c-1.7,0-3.3,0.317-4.8,0.95c-1.066,0.5-2.05,1.15-2.95,1.95c-1.1,1.033-1.8,2.133-2.1,3.3
										c-1.967,0.267-3.75,0.95-5.35,2.05c-1.033,0.733-1.933,1.65-2.7,2.75c-0.933,1.4-1.35,2.75-1.25,4.05
										c-1.933,0.8-3.566,2.017-4.9,3.65c-0.933,1.233-1.566,2.55-1.9,3.95c-0.467,1.866-0.267,3.433,0.6,4.7
										c0.5,0.633,1.133,0.983,1.9,1.05h0.25l1.3-0.3c0.367,0.9,0.983,1.617,1.85,2.15c0.4,0.233,0.783,0.35,1.15,0.35
										c0.3,0.033,0.633,0,1-0.1l0.7-0.4c1.767-1.333,3.25-3.6,4.45-6.8c0.267-0.767,0.466-1.467,0.6-2.1l0.25-0.1
										c2.2-0.833,4.25-2.583,6.15-5.25c0.367-0.433,0.716-0.967,1.05-1.6h0.6c2.267-0.4,4.633-1.716,7.1-3.95
										c1-0.867,1.833-1.833,2.5-2.9c1.1-1.867,1.316-3.567,0.65-5.1l-0.05-0.05c-0.333-0.7-0.883-1.15-1.65-1.35
										C66.1,31.6,64.617,31.3,62.95,31.3z"/>
								</g>
							</g>
							<path style="fill-rule:evenodd;clip-rule:evenodd;fill:#3B223B;" d="M48.75,40.9c1.8-1.2,3.783-1.8,5.95-1.8l-0.05-0.05
								c-0.133-1.066,0.333-2.15,1.4-3.25c0.8-0.8,1.733-1.466,2.8-2c1.333-0.566,2.733-0.833,4.2-0.8c1.467,0,2.733,0.283,3.8,0.85
								h0.05c0.267,0,0.467,0.15,0.6,0.45c0.433,0.9,0.283,2-0.45,3.3c-0.566,1-1.316,1.9-2.25,2.7c-2.133,2.034-4.2,3.217-6.2,3.55
								h-0.3c-0.267-0.067-0.45-0.2-0.55-0.4L57.55,43c-0.367,1.1-0.933,2.133-1.7,3.1c-1.767,2.433-3.567,4-5.4,4.7h-0.2l-0.1,0.05
								h-0.1c-0.233,0-0.4-0.083-0.5-0.25l-0.25-0.3c0,1.233-0.25,2.467-0.75,3.7c-0.867,2.733-2.133,4.733-3.8,6l-0.25,0.1
								l-0.05,0.05l-0.3,0.05l-0.35-0.1c-0.933-0.567-1.483-1.6-1.65-3.1c-0.8,0.467-1.55,0.783-2.25,0.95L39.7,58l-0.05-0.05
								L39.6,58c-0.267-0.067-0.45-0.184-0.55-0.35c-0.633-0.9-0.733-2.066-0.3-3.5c0.3-1.1,0.817-2.133,1.55-3.1
								c1.7-2.066,3.7-3.283,6-3.65h-0.2c-0.167-0.1-0.317-0.267-0.45-0.5c-0.333-1.033-0.083-2.2,0.75-3.5
								C47.033,42.433,47.817,41.6,48.75,40.9z"/>
							<g>
								<g>
									<g>
										<g>
											<g>
												<g>
													<g>
														
															<linearGradient id="SVGID_9_" gradientUnits="userSpaceOnUse" x1="26.3374" y1="64.0835" x2="38.022" y2="64.0835" gradientTransform="matrix(0.8475 -0.5308 0.5308 0.8475 -4.475117e-004 -1.534224e-004)">
															<stop  offset="0.1608" style="stop-color:#E253EA"/>
															<stop  offset="0.4941" style="stop-color:#B04AB1"/>
															<stop  offset="0.9882" style="stop-color:#603956"/>
														</linearGradient>
														<path style="fill-rule:evenodd;clip-rule:evenodd;fill:url(#SVGID_9_);" d="M66.5,34.55c0,0.767-0.517,1.534-1.55,2.3
															c-0.8,0.566-1.717,1.033-2.75,1.4c-2.733,0.933-4.967,1.183-6.7,0.75c2.033-1.2,3.517-2.15,4.45-2.85
															C62.083,34.683,64.267,34.15,66.5,34.55z"/>
														<path style="fill-rule:evenodd;clip-rule:evenodd;fill:#FCE5FF;" d="M55.4,39c-0.1-0.833,0.283-1.717,1.15-2.65
															c0.733-0.767,1.617-1.383,2.65-1.85c1.2-0.5,2.45-0.75,3.75-0.75c1.367,0,2.55,0.267,3.55,0.8
															c-0.867-0.167-1.817-0.066-2.85,0.3c-0.533,0.167-1.417,0.583-2.65,1.25C58.933,37.433,57.067,38.4,55.4,39z"/>
													</g>
													<g>
														
															<linearGradient id="SVGID_10_" gradientUnits="userSpaceOnUse" x1="-2.2046" y1="74.1748" x2="9.4595" y2="74.1748" gradientTransform="matrix(0.568 -0.823 0.823 0.568 5.180836e-004 -4.754066e-004)">
															<stop  offset="0.1608" style="stop-color:#E253EA"/>
															<stop  offset="0.4941" style="stop-color:#B04AB1"/>
															<stop  offset="0.9882" style="stop-color:#603956"/>
														</linearGradient>
														<path style="fill-rule:evenodd;clip-rule:evenodd;fill:url(#SVGID_10_);" d="M66.8,34.65c0.333,0.7,0.167,1.6-0.5,2.7
															c-0.5,0.867-1.167,1.65-2,2.35c-2.033,1.966-3.966,3.083-5.8,3.35c0.167-0.3,0.617-0.95,1.35-1.95
															c0.767-1.067,1.3-1.867,1.6-2.4C62.85,36.433,64.633,35.083,66.8,34.65z"/>
														<path style="fill-rule:evenodd;clip-rule:evenodd;fill:#FCE5FF;" d="M58.4,43.05c-0.4-0.7-0.383-1.65,0.05-2.85
															c0.367-1,0.917-1.917,1.65-2.75c0.933-0.934,1.983-1.667,3.15-2.2c1.233-0.533,2.417-0.75,3.55-0.65
															c-0.867,0.2-1.7,0.667-2.5,1.4c-0.433,0.433-1.066,1.183-1.9,2.25C60.867,40.383,59.533,41.983,58.4,43.05z"/>
													</g>
												</g>
											</g>
										</g>
									</g>
								</g>
								<g>
									<g>
										<g>
											<g>
												<g>
													<g>
														
															<linearGradient id="SVGID_11_" gradientUnits="userSpaceOnUse" x1="1.8657" y1="67.3965" x2="13.5383" y2="67.3965" gradientTransform="matrix(0.7282 -0.6854 0.6854 0.7282 1.108646e-005 -4.923344e-005)">
															<stop  offset="0.1608" style="stop-color:#E253EA"/>
															<stop  offset="0.4941" style="stop-color:#B04AB1"/>
															<stop  offset="0.9882" style="stop-color:#603956"/>
														</linearGradient>
														<path style="fill-rule:evenodd;clip-rule:evenodd;fill:url(#SVGID_11_);" d="M56.4,40.15
															c0.167,0.767-0.2,1.617-1.1,2.55c-0.7,0.767-1.517,1.4-2.45,1.9c-2.5,1.5-4.633,2.2-6.4,2.1
															c0.267-0.3,0.85-0.867,1.75-1.7c1-0.9,1.7-1.567,2.1-2C52.133,41.1,54.167,40.15,56.4,40.15z"/>
														<path style="fill-rule:evenodd;clip-rule:evenodd;fill:#FCE5FF;" d="M46.4,46.65c-0.267-0.767-0.066-1.683,0.6-2.75
															c0.567-0.9,1.3-1.683,2.2-2.35c1.1-0.733,2.3-1.233,3.6-1.5c1.333-0.267,2.534-0.233,3.6,0.1
															c-0.9,0-1.816,0.283-2.75,0.85c-0.566,0.333-1.35,0.933-2.35,1.8C49.533,44.433,47.9,45.717,46.4,46.65z"/>
													</g>
													<g>
														
															<linearGradient id="SVGID_12_" gradientUnits="userSpaceOnUse" x1="-25.9966" y1="67.541" x2="-14.3069" y2="67.541" gradientTransform="matrix(0.3978 -0.9175 0.9175 0.3978 3.193617e-004 -8.225441e-006)">
															<stop  offset="0.1608" style="stop-color:#E253EA"/>
															<stop  offset="0.4941" style="stop-color:#B04AB1"/>
															<stop  offset="0.9882" style="stop-color:#603956"/>
														</linearGradient>
														<path style="fill-rule:evenodd;clip-rule:evenodd;fill:url(#SVGID_12_);" d="M56.7,40.2
															c0.466,0.633,0.483,1.55,0.05,2.75c-0.333,0.933-0.833,1.833-1.5,2.7c-1.633,2.267-3.317,3.75-5.05,4.45
															c0.1-0.367,0.417-1.117,0.95-2.25c0.567-1.2,0.934-2.083,1.1-2.65C53.217,42.733,54.7,41.066,56.7,40.2z"/>
														<path style="fill-rule:evenodd;clip-rule:evenodd;fill:#FCE5FF;" d="M50.1,50.1c-0.567-0.633-0.733-1.567-0.5-2.8
															c0.167-1.033,0.533-2.05,1.1-3.05c0.7-1.1,1.583-2.017,2.65-2.75c1.1-0.767,2.217-1.217,3.35-1.35
															c-0.8,0.367-1.517,0.983-2.15,1.85c-0.4,0.533-0.9,1.4-1.5,2.6C52.017,46.933,51.033,48.767,50.1,50.1z"/>
													</g>
												</g>
											</g>
										</g>
									</g>
								</g>
								<g>
									<g>
										<g>
											<g>
												<g>
													<g>
														
															<linearGradient id="SVGID_13_" gradientUnits="userSpaceOnUse" x1="-29.6021" y1="64.626" x2="-17.9302" y2="64.626" gradientTransform="matrix(0.5012 -0.8653 0.8653 0.5012 3.135204e-004 8.076429e-005)">
															<stop  offset="0.1608" style="stop-color:#E253EA"/>
															<stop  offset="0.4941" style="stop-color:#B04AB1"/>
															<stop  offset="0.9882" style="stop-color:#603956"/>
														</linearGradient>
														<path style="fill-rule:evenodd;clip-rule:evenodd;fill:url(#SVGID_13_);" d="M47.35,48.15
															c0.367,0.667,0.283,1.567-0.25,2.7c-0.434,0.867-1.033,1.716-1.8,2.55c-1.867,2.067-3.716,3.333-5.55,3.8
															c0.133-0.3,0.533-0.983,1.2-2.05c0.667-1.133,1.133-1.983,1.4-2.55C43.517,50.3,45.183,48.816,47.35,48.15z"/>
														<path style="fill-rule:evenodd;clip-rule:evenodd;fill:#FCE5FF;" d="M39.65,57.2c-0.467-0.667-0.533-1.6-0.2-2.8
															c0.3-1.033,0.783-2,1.45-2.9c0.833-1.033,1.833-1.85,3-2.45c1.167-0.633,2.317-0.95,3.45-0.95
															c-0.833,0.267-1.617,0.8-2.35,1.6c-0.4,0.433-0.983,1.233-1.75,2.4C41.883,54.4,40.683,56.1,39.65,57.2z"/>
													</g>
													<g>
														
															<linearGradient id="SVGID_14_" gradientUnits="userSpaceOnUse" x1="-53.793" y1="52.5273" x2="-42.1157" y2="52.5273" gradientTransform="matrix(0.1177 -0.993 0.993 0.1177 -1.062676e-004 4.568398e-004)">
															<stop  offset="0.1608" style="stop-color:#E253EA"/>
															<stop  offset="0.4941" style="stop-color:#B04AB1"/>
															<stop  offset="0.9882" style="stop-color:#603956"/>
														</linearGradient>
														<path style="fill-rule:evenodd;clip-rule:evenodd;fill:url(#SVGID_14_);" d="M47.7,48.05
															c0.6,0.467,0.867,1.333,0.8,2.6c-0.033,1-0.25,2.017-0.65,3.05c-0.9,2.667-2.1,4.566-3.6,5.7
															c0.367-2.333,0.567-4.083,0.6-5.25C45.05,51.45,46,49.417,47.7,48.05z"/>
														<path style="fill-rule:evenodd;clip-rule:evenodd;fill:#FCE5FF;" d="M44.2,59.45c-0.7-0.434-1.133-1.284-1.3-2.55
															c-0.167-1.066-0.1-2.133,0.2-3.2c0.367-1.267,0.95-2.417,1.75-3.45c0.833-1.067,1.783-1.817,2.85-2.25
															c-0.7,0.6-1.217,1.417-1.55,2.45c-0.233,0.6-0.467,1.55-0.7,2.85C45.15,55.833,44.733,57.883,44.2,59.45z"/>
													</g>
												</g>
											</g>
										</g>
									</g>
								</g>
							</g>
						</g>
					</g>
				</g>
			</g>
			<g>
				<g>
					<g>
						<g>
							<g>
								<g>
									<linearGradient id="SVGID_15_" gradientUnits="userSpaceOnUse" x1="118.7178" y1="30.0366" x2="118.4428" y2="62.9616">
										<stop  offset="0.0549" style="stop-color:#6C1F69"/>
										<stop  offset="0.5882" style="stop-color:#CEA8B1"/>
										<stop  offset="0.8392" style="stop-color:#FAE3D0"/>
									</linearGradient>
									<path style="fill-rule:evenodd;clip-rule:evenodd;fill:url(#SVGID_15_);" d="M113.55,32.25c1.066,0.5,2.05,1.15,2.95,1.95
										c1.1,1.033,1.8,2.133,2.1,3.3c1.967,0.267,3.75,0.95,5.351,2.05c1.066,0.733,1.967,1.65,2.7,2.75
										c0.933,1.4,1.35,2.75,1.25,4.05c1.933,0.8,3.566,2.017,4.899,3.65c0.934,1.233,1.566,2.55,1.9,3.95
										c0.467,1.866,0.267,3.433-0.601,4.7c-0.5,0.633-1.133,0.983-1.899,1.05h-0.25l-1.3-0.3c-0.367,0.9-0.983,1.617-1.851,2.15
										c-0.399,0.233-0.783,0.35-1.149,0.35c-0.301,0.033-0.634,0-1-0.1l-0.7-0.4c-1.767-1.333-3.25-3.6-4.45-6.8
										c-0.267-0.767-0.467-1.467-0.6-2.1l-0.25-0.1c-2.2-0.833-4.25-2.583-6.15-5.25c-0.366-0.433-0.717-0.967-1.05-1.6h-0.601
										c-2.267-0.4-4.633-1.716-7.1-3.95c-1-0.867-1.816-1.833-2.45-2.9c-1.133-1.867-1.366-3.567-0.7-5.1l0.051-0.05
										c0.333-0.7,0.883-1.15,1.649-1.35c1.3-0.6,2.783-0.9,4.45-0.9C110.45,31.3,112.05,31.617,113.55,32.25z"/>
									<path style="fill-rule:evenodd;clip-rule:evenodd;fill:none;stroke:#FCE5FF;stroke-width:0.25;" d="M113.55,32.25
										c1.066,0.5,2.05,1.15,2.95,1.95c1.1,1.033,1.8,2.133,2.1,3.3c1.967,0.267,3.75,0.95,5.351,2.05
										c1.066,0.733,1.967,1.65,2.7,2.75c0.933,1.4,1.35,2.75,1.25,4.05c1.933,0.8,3.566,2.017,4.899,3.65
										c0.934,1.233,1.566,2.55,1.9,3.95c0.467,1.866,0.267,3.433-0.601,4.7c-0.5,0.633-1.133,0.983-1.899,1.05h-0.25l-1.3-0.3
										c-0.367,0.9-0.983,1.617-1.851,2.15c-0.399,0.233-0.783,0.35-1.149,0.35c-0.301,0.033-0.634,0-1-0.1l-0.7-0.4
										c-1.767-1.333-3.25-3.6-4.45-6.8c-0.267-0.767-0.467-1.467-0.6-2.1l-0.25-0.1c-2.2-0.833-4.25-2.583-6.15-5.25
										c-0.366-0.433-0.717-0.967-1.05-1.6h-0.601c-2.267-0.4-4.633-1.716-7.1-3.95c-1-0.867-1.816-1.833-2.45-2.9
										c-1.133-1.867-1.366-3.567-0.7-5.1l0.051-0.05c0.333-0.7,0.883-1.15,1.649-1.35c1.3-0.6,2.783-0.9,4.45-0.9
										C110.45,31.3,112.05,31.617,113.55,32.25z"/>
								</g>
							</g>
							<path style="fill-rule:evenodd;clip-rule:evenodd;fill:#3B223B;" d="M114.15,43l-0.2,0.45c-0.101,0.2-0.283,0.333-0.55,0.4
								H113.1c-2-0.333-4.066-1.517-6.199-3.55c-0.934-0.8-1.684-1.7-2.25-2.7c-0.733-1.3-0.884-2.4-0.45-3.3
								c0.133-0.3,0.333-0.45,0.6-0.45h0.05c1.067-0.567,2.334-0.85,3.801-0.85c1.466-0.033,2.866,0.233,4.199,0.8
								c1.067,0.534,2,1.2,2.801,2c1.066,1.1,1.533,2.184,1.399,3.25L117,39.1c2.167,0,4.15,0.6,5.95,1.8
								c0.967,0.7,1.75,1.533,2.35,2.5c0.834,1.3,1.084,2.467,0.75,3.5c-0.133,0.233-0.283,0.4-0.45,0.5H125.4
								c2.3,0.367,4.3,1.583,6,3.65c0.733,0.967,1.25,2,1.55,3.1c0.434,1.434,0.333,2.6-0.3,3.5
								c-0.101,0.167-0.284,0.283-0.551,0.35l-0.05-0.05L132,58l-0.2-0.05c-0.7-0.167-1.45-0.483-2.25-0.95
								c-0.166,1.5-0.717,2.533-1.649,3.1l-0.351,0.1l-0.3-0.05l-0.05-0.05l-0.25-0.1c-0.934-0.7-1.783-1.75-2.55-3.15
								c-0.534-0.967-0.95-1.917-1.25-2.85c-0.5-1.233-0.75-2.467-0.75-3.7l-0.25,0.3c-0.101,0.167-0.267,0.25-0.5,0.25h-0.101
								l-0.1-0.05h-0.2c-1.833-0.7-3.634-2.267-5.4-4.7C115.083,45.133,114.517,44.1,114.15,43z"/>
							<g>
								<g>
									<g>
										<g>
											<g>
												<g>
													<g>
														
															<linearGradient id="SVGID_16_" gradientUnits="userSpaceOnUse" x1="115.3652" y1="40.3325" x2="105.4624" y2="34.1307">
															<stop  offset="0.1608" style="stop-color:#E253EA"/>
															<stop  offset="0.4941" style="stop-color:#B04AB1"/>
															<stop  offset="0.9882" style="stop-color:#603956"/>
														</linearGradient>
														<path style="fill-rule:evenodd;clip-rule:evenodd;fill:url(#SVGID_16_);" d="M111.75,36.15
															c0.934,0.7,2.417,1.65,4.45,2.85c-1.733,0.433-3.967,0.183-6.7-0.75c-1.033-0.367-1.95-0.833-2.75-1.4
															c-1.033-0.767-1.55-1.534-1.55-2.3C107.434,34.15,109.616,34.683,111.75,36.15z"/>
														<path style="fill-rule:evenodd;clip-rule:evenodd;fill:#FCE5FF;" d="M116.3,39c-1.666-0.6-3.533-1.567-5.6-2.9
															c-1.334-0.667-2.217-1.083-2.65-1.25c-1.033-0.367-1.983-0.467-2.85-0.3c1-0.533,2.166-0.8,3.5-0.8
															c1.3,0,2.566,0.25,3.8,0.75c1.033,0.467,1.917,1.083,2.65,1.85C116.017,37.283,116.4,38.167,116.3,39z"/>
													</g>
													<g>
														
															<linearGradient id="SVGID_17_" gradientUnits="userSpaceOnUse" x1="111.9043" y1="43.9448" x2="105.2793" y2="34.3448">
															<stop  offset="0.1608" style="stop-color:#E253EA"/>
															<stop  offset="0.4941" style="stop-color:#B04AB1"/>
															<stop  offset="0.9882" style="stop-color:#603956"/>
														</linearGradient>
														<path style="fill-rule:evenodd;clip-rule:evenodd;fill:url(#SVGID_17_);" d="M110.25,38.7
															c0.3,0.533,0.833,1.333,1.6,2.4c0.733,1,1.184,1.65,1.351,1.95c-1.834-0.267-3.767-1.383-5.8-3.35
															c-0.834-0.7-1.5-1.483-2-2.35c-0.667-1.1-0.834-2-0.5-2.7C107.066,35.083,108.85,36.433,110.25,38.7z"/>
														<path style="fill-rule:evenodd;clip-rule:evenodd;fill:#FCE5FF;" d="M113.3,43.05c-1.133-1.066-2.467-2.667-4-4.8
															c-0.833-1.067-1.467-1.817-1.899-2.25c-0.801-0.733-1.634-1.2-2.5-1.4c1.133-0.1,2.316,0.117,3.55,0.65
															c1.166,0.533,2.217,1.267,3.149,2.2c0.733,0.833,1.301,1.75,1.7,2.75C113.7,41.4,113.7,42.35,113.3,43.05z"/>
													</g>
												</g>
											</g>
										</g>
									</g>
								</g>
								<g>
									<g>
										<g>
											<g>
												<g>
													<g>
														
															<linearGradient id="SVGID_18_" gradientUnits="userSpaceOnUse" x1="124.1504" y1="47.7993" x2="115.6504" y2="39.7993">
															<stop  offset="0.1608" style="stop-color:#E253EA"/>
															<stop  offset="0.4941" style="stop-color:#B04AB1"/>
															<stop  offset="0.9882" style="stop-color:#603956"/>
														</linearGradient>
														<path style="fill-rule:evenodd;clip-rule:evenodd;fill:url(#SVGID_18_);" d="M115.3,40.15
															c2.233,0,4.267,0.95,6.101,2.85c0.399,0.433,1.1,1.1,2.1,2c0.9,0.833,1.483,1.4,1.75,1.7c-1.767,0.1-3.9-0.6-6.4-2.1
															c-0.933-0.5-1.75-1.133-2.449-1.9C115.5,41.767,115.134,40.917,115.3,40.15z"/>
														<path style="fill-rule:evenodd;clip-rule:evenodd;fill:#FCE5FF;" d="M125.3,46.65c-1.5-0.933-3.133-2.217-4.899-3.85
															c-1-0.867-1.784-1.466-2.351-1.8c-0.934-0.567-1.85-0.85-2.75-0.85c1.066-0.333,2.267-0.367,3.601-0.1
															c1.3,0.267,2.5,0.767,3.6,1.5c0.9,0.667,1.634,1.45,2.2,2.35C125.366,44.967,125.566,45.883,125.3,46.65z"/>
													</g>
													<g>
														
															<linearGradient id="SVGID_19_" gradientUnits="userSpaceOnUse" x1="120.0723" y1="50.7188" x2="115.4227" y2="39.9948">
															<stop  offset="0.1608" style="stop-color:#E253EA"/>
															<stop  offset="0.4941" style="stop-color:#B04AB1"/>
															<stop  offset="0.9882" style="stop-color:#603956"/>
														</linearGradient>
														<path style="fill-rule:evenodd;clip-rule:evenodd;fill:url(#SVGID_19_);" d="M114.95,40.2
															c2.033,0.833,3.533,2.5,4.5,5c0.2,0.566,0.566,1.45,1.1,2.65c0.533,1.133,0.851,1.883,0.95,2.25
															c-1.733-0.7-3.417-2.184-5.05-4.45c-0.667-0.833-1.167-1.733-1.5-2.7C114.517,41.75,114.517,40.833,114.95,40.2z"/>
														<path style="fill-rule:evenodd;clip-rule:evenodd;fill:#FCE5FF;" d="M121.6,50.1c-0.933-1.333-1.916-3.167-2.949-5.5
															c-0.601-1.2-1.101-2.067-1.5-2.6c-0.634-0.867-1.351-1.483-2.15-1.85c1.134,0.133,2.25,0.583,3.35,1.35
															c1.067,0.733,1.95,1.65,2.65,2.75c0.566,1,0.95,2.017,1.15,3.05C122.35,48.533,122.167,49.467,121.6,50.1z"/>
													</g>
												</g>
											</g>
										</g>
									</g>
								</g>
								<g>
									<g>
										<g>
											<g>
												<g>
													<g>
														<linearGradient id="SVGID_20_" gradientUnits="userSpaceOnUse" x1="130.625" y1="58.0005" x2="124.775" y2="47.9005">
															<stop  offset="0.1608" style="stop-color:#E253EA"/>
															<stop  offset="0.4941" style="stop-color:#B04AB1"/>
															<stop  offset="0.9882" style="stop-color:#603956"/>
														</linearGradient>
														<path style="fill-rule:evenodd;clip-rule:evenodd;fill:url(#SVGID_20_);" d="M124.35,48.15
															c2.167,0.667,3.834,2.15,5,4.45c0.267,0.566,0.733,1.417,1.4,2.55c0.667,1.067,1.066,1.75,1.2,2.05
															c-1.834-0.467-3.684-1.733-5.55-3.8c-0.767-0.833-1.351-1.683-1.75-2.55C124.083,49.717,123.983,48.816,124.35,48.15z
															"/>
														<path style="fill-rule:evenodd;clip-rule:evenodd;fill:#FCE5FF;" d="M132.05,57.2c-1.033-1.1-2.233-2.8-3.6-5.1
															c-0.767-1.167-1.351-1.967-1.75-2.4c-0.733-0.8-1.517-1.333-2.351-1.6c1.134,0,2.284,0.316,3.45,0.95
															c1.167,0.6,2.167,1.417,3,2.45c0.667,0.9,1.15,1.867,1.45,2.9C132.583,55.6,132.517,56.533,132.05,57.2z"/>
													</g>
													<g>
														
															<linearGradient id="SVGID_21_" gradientUnits="userSpaceOnUse" x1="125.8701" y1="59.6025" x2="124.4956" y2="48.007">
															<stop  offset="0.1608" style="stop-color:#E253EA"/>
															<stop  offset="0.4941" style="stop-color:#B04AB1"/>
															<stop  offset="0.9882" style="stop-color:#603956"/>
														</linearGradient>
														<path style="fill-rule:evenodd;clip-rule:evenodd;fill:url(#SVGID_21_);" d="M124,48.05c1.7,1.367,2.65,3.4,2.85,6.1
															c0.034,1.167,0.233,2.917,0.601,5.25c-1.5-1.133-2.7-3.033-3.601-5.7c-0.399-1.034-0.616-2.05-0.649-3.05
															C123.134,49.383,123.4,48.517,124,48.05z"/>
														<path style="fill-rule:evenodd;clip-rule:evenodd;fill:#FCE5FF;" d="M127.5,59.45c-0.533-1.567-0.95-3.617-1.25-6.15
															c-0.233-1.3-0.45-2.25-0.65-2.85c-0.366-1.034-0.899-1.85-1.6-2.45c1.066,0.433,2.017,1.183,2.85,2.25
															c0.801,1.033,1.384,2.183,1.75,3.45c0.301,1.066,0.367,2.133,0.2,3.2C128.634,58.167,128.2,59.017,127.5,59.45z"/>
													</g>
												</g>
											</g>
										</g>
									</g>
								</g>
							</g>
						</g>
					</g>
				</g>
			</g>
		</g>
		
			<use xlink:href="#FlashAICB_x2F_Layer_1_x2F__x3C_Path_x3E__x5F_0"  width="128.6" height="61.85" y="-61.85" transform="matrix(1 0 0 -1 21.5498 85.9502)" style="overflow:visible;opacity:0.3398;enable-background:new    ;"/>
		<g>
			
				<use xlink:href="#FlashAICB_x2F_Layer_1_x2F__x3C_Path_x3E__x5F_1_x5F_1"  width="119.2" height="60.45" y="-60.45" transform="matrix(1 0 0 -1 26.25 22.2002)" style="overflow:visible;opacity:0.1992;enable-background:new    ;"/>
			
				<use xlink:href="#FlashAICB_x2F_Layer_1_x2F__x3C_Path_x3E__x5F_2"  width="119.2" height="66.434" y="-66.434" transform="matrix(1 0 0 -1 26.25 22.2002)" style="overflow:visible;opacity:0.0781;enable-background:new    ;"/>
		</g>
	</g>
</g>
</svg>
