<?xml version="1.0" encoding="iso-8859-1"?>
<!-- Generator: Adobe Illustrator 15.1.0, SVG Export Plug-In . SVG Version: 6.00 Build 0)  -->
<!DOCTYPE svg PUBLIC "-//W3C//DTD SVG 1.1//EN" "http://www.w3.org/Graphics/SVG/1.1/DTD/svg11.dtd">
<svg version="1.1" id="Layer_36_copy_11" xmlns="http://www.w3.org/2000/svg" xmlns:xlink="http://www.w3.org/1999/xlink" x="0px"
	 y="0px" width="171.5px" height="171.5px" viewBox="0 0 171.5 171.5" style="enable-background:new 0 0 171.5 171.5;"
	 xml:space="preserve">
<symbol  id="FlashAICB_x2F_Layer_36_copy_11_x2F__x3C_Clip_Group_0_x3E_" viewBox="0 -118.7 118.9 118.7">
	<g id="Layer_1_3_">
	</g>
	<g>
		<defs>
			<path id="SVGID_1_" d="M101.5-17.4C89.9-5.8,75.883,0,59.45,0c-16.4,0-30.4-5.8-42-17.4C5.817-29,0-42.983,0-59.35
				S5.817-89.7,17.45-101.3c11.6-11.6,25.6-17.4,42-17.4c16.433,0,30.45,5.8,42.05,17.4c11.6,11.6,17.4,25.583,17.4,41.95
				S113.1-29,101.5-17.4z"/>
		</defs>
		<clipPath id="SVGID_2_">
			<use xlink:href="#SVGID_1_"  style="overflow:visible;"/>
		</clipPath>
		<g id="Layer_3_2_" style="clip-path:url(#SVGID_2_);">
			<radialGradient id="SVGID_3_" cx="59.4502" cy="-59.3501" r="59.4" gradientUnits="userSpaceOnUse">
				<stop  offset="0" style="stop-color:#DEEA89"/>
				<stop  offset="0.0353" style="stop-color:#DEEA89"/>
				<stop  offset="0.302" style="stop-color:#DEE986"/>
				<stop  offset="0.4627" style="stop-color:#E0E57E"/>
				<stop  offset="0.5922" style="stop-color:#E2DE71"/>
				<stop  offset="0.7098" style="stop-color:#E6D45D"/>
				<stop  offset="0.8118" style="stop-color:#EAC845"/>
				<stop  offset="0.8706" style="stop-color:#EDBF35"/>
				<stop  offset="1" style="stop-color:#EDBF35"/>
			</radialGradient>
			<polygon style="fill-rule:evenodd;clip-rule:evenodd;fill:url(#SVGID_3_);" points="0,0 118.9,0 118.9,-118.7 0,-118.7 			"/>
		</g>
	</g>
	<g id="Layer_4_2_">
	</g>
</symbol>
<symbol  id="FlashAICB_x2F_Layer_36_copy_11_x2F__x3C_Clip_Group_0_x3E__x5F_1" viewBox="0 -132.35 132.35 132.35">
	<g id="Layer_1_2_">
	</g>
	<g>
		<defs>
			<path id="SVGID_4_" d="M112.95-19.4C100.017-6.467,84.433,0,66.2,0C47.933,0,32.333-6.467,19.4-19.4
				C6.467-32.333,0-47.933,0-66.2c0-18.233,6.467-33.816,19.4-46.75c12.934-12.933,28.533-19.4,46.8-19.4
				c18.267,0,33.85,6.467,46.75,19.4c12.933,12.9,19.4,28.483,19.4,46.75C132.35-47.933,125.883-32.333,112.95-19.4z"/>
		</defs>
		<clipPath id="SVGID_5_">
			<use xlink:href="#SVGID_4_"  style="overflow:visible;"/>
		</clipPath>
		<g id="Layer_3_1_" style="clip-path:url(#SVGID_5_);">
			<linearGradient id="SVGID_6_" gradientUnits="userSpaceOnUse" x1="66.1748" y1="-132.3501" x2="66.1748" y2="0">
				<stop  offset="0" style="stop-color:#B1812F"/>
				<stop  offset="0.2941" style="stop-color:#C89A33"/>
				<stop  offset="0.6745" style="stop-color:#EDC13A"/>
				<stop  offset="0.9647" style="stop-color:#D7E989"/>
				<stop  offset="1" style="stop-color:#D7E989"/>
			</linearGradient>
			<polygon style="fill-rule:evenodd;clip-rule:evenodd;fill:url(#SVGID_6_);" points="0,-132.35 0,0 132.35,0 132.35,-132.35 			
				"/>
		</g>
	</g>
	<g id="Layer_4_1_">
	</g>
</symbol>
<symbol  id="FlashAICB_x2F_Layer_36_copy_11_x2F__x3C_Path_x3E_" viewBox="0 -61.294 110 61.294">
	<g id="Layer_1_6_">
		<path style="fill-rule:evenodd;clip-rule:evenodd;fill:#FFFFFF;" d="M106.5-34.35c2.333-5.633,3.5-10.933,3.5-15.9
			s-1.433-8.083-4.3-9.35c-2.367-1.066-6.3-1.066-11.8,0c-7.267,1.767-13.1,3.117-17.5,4.05C68.4-53.85,61.267-53,55-53
			c-6.3,0-13.433-0.917-21.4-2.75c-8.333-2.2-14.167-3.683-17.5-4.45c-5.533-1.267-9.45-1.433-11.75-0.5C1.45-59.5,0-56.433,0-51.5
			c0,5.5,1.167,11.167,3.5,17c2.467,6.167,5.95,11.733,10.45,16.7C24.65-5.933,38.333,0,55,0c16.467,0,30.133-5.983,41-17.95
			C100.467-22.883,103.967-28.35,106.5-34.35z"/>
	</g>
</symbol>
<symbol  id="FlashAICB_x2F_Layer_36_copy_11_x2F__x3C_Path_x3E__x5F_1" viewBox="0 -55.75 110 55.75">
	<g id="Layer_1_5_">
		
			<linearGradient id="SVGID_7_" gradientUnits="userSpaceOnUse" x1="16165.3574" y1="-53.8555" x2="16221.1328" y2="-53.8555" gradientTransform="matrix(1.792918e-005 1 -1 -0.001 0.8545 -16221.1064)">
			<stop  offset="0.1294" style="stop-color:#E2B8B2"/>
			<stop  offset="0.9255" style="stop-color:#FFFFFF"/>
		</linearGradient>
		<path style="fill-rule:evenodd;clip-rule:evenodd;fill:url(#SVGID_7_);" d="M96-17.95c4.467-4.933,7.967-10.4,10.5-16.4
			c2.333-5.633,3.5-10.933,3.5-15.9c0-1.767-0.15-3.25-0.45-4.45c-1.867,11.034-7.267,20.85-16.2,29.45
			C82.783-15.117,70-10.05,55-10.05c-15.233,0-28.067-5.05-38.5-15.15c-9-8.733-14.35-18.917-16.05-30.55
			C0.15-54.55,0-53.133,0-51.5c0,5.5,1.167,11.167,3.5,17c2.467,6.167,5.95,11.733,10.45,16.7C24.65-5.933,38.333,0,55,0
			C71.467,0,85.133-5.983,96-17.95z"/>
	</g>
</symbol>
<symbol  id="FlashAICB_x2F_Layer_36_copy_11_x2F__x3C_Path_x3E__x5F_2" viewBox="0 -57.1 118.7 57.1">
	<g id="Layer_1_4_">
		
			<radialGradient id="SVGID_8_" cx="59.3501" cy="-28.5498" r="46.5701" gradientTransform="matrix(1 0 0 -1 0 -57.0996)" gradientUnits="userSpaceOnUse">
			<stop  offset="0" style="stop-color:#000000;stop-opacity:0"/>
			<stop  offset="0.651" style="stop-color:#000000;stop-opacity:0.4"/>
		</radialGradient>
		<path style="fill-rule:evenodd;clip-rule:evenodd;fill:url(#SVGID_8_);" d="M95.5-30.35c10.733,7.7,18.3,17.733,22.7,30.1L118.7,0
			c-0.567-15.9-6.6-29.383-18.1-40.45C89.1-51.55,75.333-57.1,59.3-57.1c-15.7,0-29.267,5.367-40.7,16.1C7.2-30.3,1-17.183,0-1.65
			c4.6-12,12.183-21.7,22.75-29.1c10.833-7.567,22.867-11.35,36.1-11.35C72.35-42.1,84.567-38.183,95.5-30.35z"/>
	</g>
</symbol>
<g>
	<path style="fill-rule:evenodd;clip-rule:evenodd;fill:#68757B;" d="M52.4,6.75C63.033,2.25,74.15,0,85.75,0
		c11.6,0,22.717,2.25,33.35,6.75c10.268,4.333,19.351,10.467,27.25,18.4c7.934,7.9,14.067,16.983,18.4,27.25
		c4.5,10.633,6.75,21.75,6.75,33.35c0,11.6-2.25,22.717-6.75,33.35c-4.333,10.268-10.467,19.351-18.4,27.25
		c-7.899,7.934-16.982,14.067-27.25,18.4c-10.633,4.5-21.75,6.75-33.35,6.75c-11.6,0-22.717-2.25-33.35-6.75
		c-10.267-4.333-19.35-10.467-27.25-18.4c-7.933-7.899-14.067-16.982-18.4-27.25C2.25,108.467,0,97.35,0,85.75
		c0-11.6,2.25-22.717,6.75-33.35c4.333-10.267,10.467-19.35,18.4-27.25C33.05,17.217,42.133,11.083,52.4,6.75z"/>
	
		<linearGradient id="SVGID_9_" gradientUnits="userSpaceOnUse" x1="-171.5854" y1="85.75" x2="-0.0854" y2="85.75" gradientTransform="matrix(5.830904e-006 -1 1 -0.001 -9.214067e-005 4.449275e-004)">
		<stop  offset="0.0039" style="stop-color:#4F1D1F"/>
		<stop  offset="0.2078" style="stop-color:#7D5F3C"/>
		<stop  offset="0.5569" style="stop-color:#B09A68"/>
		<stop  offset="0.7412" style="stop-color:#EEEDCF"/>
		<stop  offset="0.7922" style="stop-color:#E7E1AD"/>
		<stop  offset="1" style="stop-color:#B9A57A"/>
	</linearGradient>
	<path style="fill-rule:evenodd;clip-rule:evenodd;fill:url(#SVGID_9_);" d="M52.4,6.75C63.033,2.25,74.15,0,85.75,0
		c11.6,0,22.717,2.25,33.35,6.75c10.268,4.333,19.351,10.467,27.25,18.4c7.934,7.9,14.067,16.983,18.4,27.25
		c4.5,10.633,6.75,21.75,6.75,33.35c0,11.6-2.25,22.717-6.75,33.35c-4.333,10.268-10.467,19.351-18.4,27.25
		c-7.899,7.934-16.982,14.067-27.25,18.4c-10.633,4.5-21.75,6.75-33.35,6.75c-11.6,0-22.717-2.25-33.35-6.75
		c-10.267-4.333-19.35-10.467-27.25-18.4c-7.933-7.899-14.067-16.982-18.4-27.25C2.25,108.467,0,97.35,0,85.75
		c0-11.6,2.25-22.717,6.75-33.35c4.333-10.267,10.467-19.35,18.4-27.25C33.05,17.217,42.133,11.083,52.4,6.75z"/>
	<g>
		<g>
			
				<linearGradient id="SVGID_10_" gradientUnits="userSpaceOnUse" x1="-158.2358" y1="85.751" x2="-13.4355" y2="85.751" gradientTransform="matrix(6.906077e-006 -1 1 -0.001 -1.647736e-004 4.449275e-004)">
				<stop  offset="0.0431" style="stop-color:#BAA270"/>
				<stop  offset="1" style="stop-color:#73624A"/>
			</linearGradient>
			<path style="fill-rule:evenodd;clip-rule:evenodd;fill:url(#SVGID_10_);" d="M85.75,13.35c9.833,0,19.233,1.9,28.2,5.7
				c8.667,3.667,16.333,8.833,23,15.5c6.667,6.667,11.833,14.333,15.5,23c3.8,8.967,5.7,18.367,5.7,28.2
				c0,9.833-1.9,19.233-5.7,28.2c-3.667,8.667-8.833,16.333-15.5,23s-14.333,11.833-23,15.5c-8.967,3.8-18.367,5.7-28.2,5.7
				c-9.833,0-19.233-1.9-28.2-5.7c-8.667-3.667-16.333-8.833-23-15.5c-6.667-6.667-11.833-14.333-15.5-23
				c-3.8-8.967-5.7-18.367-5.7-28.2c0-9.833,1.9-19.233,5.7-28.2c3.667-8.667,8.833-16.333,15.5-23
				c6.667-6.667,14.333-11.833,23-15.5C66.517,15.25,75.917,13.35,85.75,13.35z"/>
		</g>
	</g>
</g>
<use xlink:href="#FlashAICB_x2F_Layer_36_copy_11_x2F__x3C_Clip_Group_0_x3E__x5F_1"  width="132.35" height="132.35" y="-132.35" transform="matrix(1 0 0 -1 19.5498 19.5498)" style="overflow:visible;"/>
<g>
	<path style="fill-rule:evenodd;clip-rule:evenodd;fill:#30144F;" d="M151.1,85.75c0-18.033-6.383-33.434-19.149-46.2
		c-12.733-12.767-28.134-19.15-46.2-19.15c-18.033,0-33.434,6.383-46.2,19.15S20.4,67.717,20.4,85.75s6.383,33.434,19.15,46.2
		S67.717,151.1,85.75,151.1s33.434-6.383,46.2-19.149S151.1,103.783,151.1,85.75z M60.1,23.8c8.133-3.366,16.683-5.05,25.65-5.05
		s17.517,1.684,25.65,5.05c8.133,3.367,15.366,8.217,21.699,14.55c6.334,6.333,11.2,13.583,14.601,21.75
		c3.366,8.133,5.05,16.683,5.05,25.65s-1.684,17.517-5.05,25.65c-3.4,8.133-8.267,15.366-14.601,21.699
		c-6.333,6.334-13.566,11.2-21.699,14.601c-8.134,3.366-16.684,5.05-25.65,5.05s-17.517-1.684-25.65-5.05
		c-8.167-3.4-15.417-8.267-21.75-14.601c-6.333-6.333-11.184-13.566-14.55-21.699c-3.366-8.134-5.05-16.684-5.05-25.65
		s1.684-17.517,5.05-25.65c3.367-8.167,8.217-15.417,14.55-21.75S51.934,27.167,60.1,23.8z"/>
</g>
<use xlink:href="#FlashAICB_x2F_Layer_36_copy_11_x2F__x3C_Clip_Group_0_x3E_"  width="118.9" height="118.7" y="-118.7" transform="matrix(1 0 0 -1 25.2998 23.8999)" style="overflow:visible;"/>
<g>
	<linearGradient id="SVGID_11_" gradientUnits="userSpaceOnUse" x1="54.6343" y1="100.2305" x2="118.8496" y2="100.2305">
		<stop  offset="0" style="stop-color:#B1812F"/>
		<stop  offset="0.1569" style="stop-color:#C89A33"/>
		<stop  offset="0.3686" style="stop-color:#EDC13A"/>
		<stop  offset="0.9647" style="stop-color:#DEEA89"/>
	</linearGradient>
	<path style="fill-rule:evenodd;clip-rule:evenodd;fill:url(#SVGID_11_);" d="M90.95,66.9c0.399,0.434,0.649,0.967,0.75,1.6
		c0.066,0.633,0.05,1.167-0.05,1.6c1.066,1.233,1.566,2.816,1.5,4.75H93.3c0.601,0,1.167,0.167,1.7,0.5c1,0.633,1.517,1.7,1.55,3.2
		V79c0.067,0.8,0.067,1.65,0,2.55l-0.35,2.2c0.333,0.667,0.366,1.417,0.1,2.25c-0.267,0.833-0.649,1.633-1.149,2.4l0.199,0.05H95.4
		c2.033,0,3.8,0.649,5.3,1.95c5.6,4.899,8.1,8.699,7.5,11.399c-0.167,0.833-0.55,1.55-1.15,2.15c-0.5,0.767-1.2,1.383-2.1,1.85
		c1.3,1.833,1.533,4.283,0.7,7.351c-0.2,0.833-0.601,1.55-1.2,2.149l-0.4,0.5c1.067-0.267,2.45-0.683,4.15-1.25
		c1.833-0.667,3.25-1,4.25-1s2,0.217,3,0.65c2.167,0.866,3.3,2.333,3.399,4.399c0,1.533-0.683,2.917-2.05,4.15
		c0.434,1.1,0.351,2.184-0.25,3.25c-0.633,1.1-1.767,1.883-3.399,2.35c-1.533,0.268-2.334,0.4-2.4,0.4h-0.05
		c0.066,0.934-0.217,1.783-0.851,2.55c-0.467,0.567-1.066,0.95-1.8,1.15c0.267,0.767,0.4,1.55,0.4,2.35c0,1.533-0.4,2.867-1.2,4
		c-0.8,1.167-1.883,1.95-3.25,2.351c-1.367,0.566-2.75,0.633-4.15,0.199c-1.232-0.467-2.449-1.433-3.649-2.899l-0.4,0.45
		c-1.167,1.066-2.35,1.732-3.55,2L92.1,141c-0.967,0.667-1.883,1-2.75,1c-1.199,0-2.467-0.133-3.8-0.4
		c-0.933-0.166-1.767-0.566-2.5-1.199v-0.051c-0.566-0.199-1.1-0.533-1.6-1c-0.434-0.366-0.75-0.767-0.95-1.199
		c-1.434,1.732-2.75,2.8-3.95,3.199c-1.233,0.4-2.533,0.367-3.9-0.1c-1.466-0.367-2.633-1.117-3.5-2.25
		c-0.867-1.167-1.3-2.566-1.3-4.2c0-1.467,0.617-3.283,1.85-5.45l-2.25,1.801c-1.934,1.566-3.3,2.6-4.1,3.1
		c-1.1,0.667-2.083,1-2.95,1l-0.8-0.1l-0.75-0.2l-0.35-0.05c-1.867-0.434-3.066-1.4-3.6-2.9c-0.7-1.9-0.017-4.2,2.05-6.9
		c1.7-2.166,4.05-4.017,7.05-5.55c0.767-1,2.033-1.917,3.8-2.75c-0.366-0.333-0.667-0.649-0.9-0.95c-1.2-1.633-1.733-3.6-1.6-5.899
		c0.167-2.5,1.1-4.667,2.8-6.5c1.2-1.2,2.7-2.05,4.5-2.55l-0.05-0.15l-0.2-1c-0.4-2-0.35-3.733,0.15-5.2
		c0.4-1.2,1.233-2.316,2.5-3.35c1.333-1.101,2.684-1.717,4.05-1.851c-0.2-0.699-0.333-1.35-0.4-1.949l-0.05-0.15
		c-0.167-1.533-0.167-2.717,0-3.55c0.233-1.4,0.883-2.35,1.95-2.85c0.467-0.267,0.967-0.367,1.5-0.3c0-0.433,0.067-0.833,0.2-1.2
		c0-0.1,0.05-0.25,0.15-0.45c-0.2-0.5-0.317-0.816-0.35-0.95c-0.4-1.367-0.333-2.55,0.2-3.55L82.2,74
		c-0.267-0.267-0.483-0.583-0.65-0.95c-0.3-0.733-0.35-1.483-0.15-2.25c-0.267-0.267-0.533-0.616-0.8-1.05l-0.2-0.2
		c-0.466-0.5-0.783-1.116-0.95-1.85c-0.134-0.767-0.083-1.483,0.15-2.15l-0.05-0.15c-0.133-0.533-0.133-1.083,0-1.65l-0.35-0.8
		c-0.233-1.067-0.083-1.983,0.45-2.75c0.367-0.667,0.9-1.15,1.6-1.45s1.467-0.367,2.3-0.2c0.667,0.1,1.283,0.4,1.851,0.9L85.8,59.8
		c0.934,0.1,1.7,0.55,2.3,1.35c0.167,0.233,0.317,0.5,0.45,0.8c1.233,0.366,2.033,1.233,2.4,2.6c0.133,0.367,0.2,0.767,0.2,1.2
		C91.15,66.05,91.083,66.434,90.95,66.9z M100.65,100.5l0.75,0.05l0.6-0.05c-0.533-0.867-1.4-1.9-2.6-3.1l0.1,0.399
		C99.934,99.233,100.316,100.133,100.65,100.5z M95.85,113.2c-1,0.399-1.967,0.366-2.899-0.101v0.051l0.1,0.75h0.5
		c0.601,0.066,1.167,0.066,1.7,0l0.5-0.101L95.85,113.2z M95.25,119.9c-0.533,0.066-1.133,0.066-1.8,0L90.7,120
		c-0.8,0.066-1.5-0.133-2.101-0.6c-0.6-0.5-0.967-1.134-1.1-1.9l-0.05-0.5c-0.233,0.4-0.55,0.717-0.95,0.95
		c-0.333,0.2-0.566,0.316-0.7,0.35l-0.2,1.05l-0.1,0.301c-0.233,0.633-0.633,1.149-1.2,1.55c-0.6,0.366-1.233,0.517-1.9,0.45h-3.3
		l-0.35-0.051c0.333,0.9,0.3,1.75-0.1,2.551l-0.1,1.85c0.134,0.867-0.116,1.684-0.75,2.45c-1.167,1.3-2.15,2.616-2.95,3.95
		c-0.633,1.133-0.967,1.933-1,2.399c0,0.367,0.083,0.583,0.25,0.65c0.233,0,0.417,0.05,0.55,0.149c0.467-0.366,1.017-1,1.65-1.899
		c0.733-1.033,1.283-2.083,1.65-3.15c0.433-1.066,0.933-2,1.5-2.8c0.333-0.533,0.783-0.917,1.35-1.15c0.6-0.199,1.2-0.232,1.8-0.1
		c1.333,0.333,2.1,1.167,2.3,2.5c0.1,0.767,0.233,1.25,0.4,1.45c0.567,0.3,1,0.733,1.3,1.3c0.268,0.566,0.334,1.167,0.2,1.8
		l-0.3,1.9l0.35,0.3l2,0.2c0.634-0.4,1.2-0.667,1.7-0.8c-0.333-1.7-0.583-3.334-0.75-4.9l-0.05-0.35
		c-0.1-0.834,0.117-1.601,0.65-2.301c0.533-0.633,1.232-1,2.1-1.1l1.65-0.1c1.199-0.101,2.133,0.333,2.8,1.3
		c0.667,1,1.167,1.95,1.5,2.85c0.366,1.067,0.917,2.117,1.649,3.15c0.634,0.899,1.184,1.533,1.65,1.899l0.5-0.199
		c0.133,0,0.2-0.2,0.2-0.601c0-0.7-0.617-1.95-1.851-3.75c-0.333-0.5-0.5-1.05-0.5-1.649c0-0.634,0.167-1.2,0.5-1.7
		c0.134-0.233,0.351-0.467,0.65-0.7l-0.75-0.75c-0.434-0.4-0.717-0.883-0.85-1.45c-0.134-0.6-0.084-1.183,0.149-1.75
		c0.233-0.733,0.733-1.283,1.5-1.649l-1.75-0.15l-1.5,0.05C96.783,121.4,95.85,120.934,95.25,119.9z M109,120.6
		c-1.066,0.4-2.217,0.75-3.45,1.051c1.467,0.5,2.4,0.8,2.8,0.899C108.35,121.85,108.566,121.2,109,120.6z M78.3,98.95v0.1l0.05,0.05
		c0.167-0.133,0.45-0.267,0.85-0.399l0.75-0.2c0.133-0.467,0.3-0.816,0.5-1.05c0.466-0.533,1.017-0.884,1.65-1.05l-0.35-0.2
		c-0.967-0.634-1.7-0.934-2.2-0.9c-0.167,0.067-0.4,0.233-0.7,0.5c-0.333,0.267-0.567,0.5-0.7,0.7c-0.1,0.6-0.067,1.333,0.1,2.2
		L78.3,98.95z M73.15,112.8l0.2-1.8c0.2-2.066,0.517-3.517,0.95-4.35c-0.8,0.199-1.417,0.517-1.85,0.949
		c-0.7,0.733-1.083,1.601-1.15,2.601c-0.066,0.833,0.067,1.5,0.4,2c0.333,0.2,0.583,0.399,0.75,0.6
		C72.483,112.8,72.717,112.8,73.15,112.8z M69.5,122.65l-0.6,0.399L69.5,122.65z"/>
	<path style="fill-rule:evenodd;clip-rule:evenodd;fill:none;stroke:#FBFCC9;stroke-width:0.25;" d="M90.95,66.9
		c0.399,0.434,0.649,0.967,0.75,1.6c0.066,0.633,0.05,1.167-0.05,1.6c1.066,1.233,1.566,2.816,1.5,4.75H93.3
		c0.601,0,1.167,0.167,1.7,0.5c1,0.633,1.517,1.7,1.55,3.2V79c0.067,0.8,0.067,1.65,0,2.55l-0.35,2.2
		c0.333,0.667,0.366,1.417,0.1,2.25c-0.267,0.833-0.649,1.633-1.149,2.4l0.199,0.05H95.4c2.033,0,3.8,0.649,5.3,1.95
		c5.6,4.899,8.1,8.699,7.5,11.399c-0.167,0.833-0.55,1.55-1.15,2.15c-0.5,0.767-1.2,1.383-2.1,1.85c1.3,1.833,1.533,4.283,0.7,7.351
		c-0.2,0.833-0.601,1.55-1.2,2.149l-0.4,0.5c1.067-0.267,2.45-0.683,4.15-1.25c1.833-0.667,3.25-1,4.25-1s2,0.217,3,0.65
		c2.167,0.866,3.3,2.333,3.399,4.399c0,1.533-0.683,2.917-2.05,4.15c0.434,1.1,0.351,2.184-0.25,3.25
		c-0.633,1.1-1.767,1.883-3.399,2.35c-1.533,0.268-2.334,0.4-2.4,0.4h-0.05c0.066,0.934-0.217,1.783-0.851,2.55
		c-0.467,0.567-1.066,0.95-1.8,1.15c0.267,0.767,0.4,1.55,0.4,2.35c0,1.533-0.4,2.867-1.2,4c-0.8,1.167-1.883,1.95-3.25,2.351
		c-1.367,0.566-2.75,0.633-4.15,0.199c-1.232-0.467-2.449-1.433-3.649-2.899l-0.4,0.45c-1.167,1.066-2.35,1.732-3.55,2L92.1,141
		c-0.967,0.667-1.883,1-2.75,1c-1.199,0-2.467-0.133-3.8-0.4c-0.933-0.166-1.767-0.566-2.5-1.199v-0.051
		c-0.566-0.199-1.1-0.533-1.6-1c-0.434-0.366-0.75-0.767-0.95-1.199c-1.434,1.732-2.75,2.8-3.95,3.199
		c-1.233,0.4-2.533,0.367-3.9-0.1c-1.466-0.367-2.633-1.117-3.5-2.25c-0.867-1.167-1.3-2.566-1.3-4.2c0-1.467,0.617-3.283,1.85-5.45
		l-2.25,1.801c-1.934,1.566-3.3,2.6-4.1,3.1c-1.1,0.667-2.083,1-2.95,1l-0.8-0.1l-0.75-0.2l-0.35-0.05
		c-1.867-0.434-3.066-1.4-3.6-2.9c-0.7-1.9-0.017-4.2,2.05-6.9c1.7-2.166,4.05-4.017,7.05-5.55c0.767-1,2.033-1.917,3.8-2.75
		c-0.366-0.333-0.667-0.649-0.9-0.95c-1.2-1.633-1.733-3.6-1.6-5.899c0.167-2.5,1.1-4.667,2.8-6.5c1.2-1.2,2.7-2.05,4.5-2.55
		l-0.05-0.15l-0.2-1c-0.4-2-0.35-3.733,0.15-5.2c0.4-1.2,1.233-2.316,2.5-3.35c1.333-1.101,2.684-1.717,4.05-1.851
		c-0.2-0.699-0.333-1.35-0.4-1.949l-0.05-0.15c-0.167-1.533-0.167-2.717,0-3.55c0.233-1.4,0.883-2.35,1.95-2.85
		c0.467-0.267,0.967-0.367,1.5-0.3c0-0.433,0.067-0.833,0.2-1.2c0-0.1,0.05-0.25,0.15-0.45c-0.2-0.5-0.317-0.816-0.35-0.95
		c-0.4-1.367-0.333-2.55,0.2-3.55L82.2,74c-0.267-0.267-0.483-0.583-0.65-0.95c-0.3-0.733-0.35-1.483-0.15-2.25
		c-0.267-0.267-0.533-0.616-0.8-1.05l-0.2-0.2c-0.466-0.5-0.783-1.116-0.95-1.85c-0.134-0.767-0.083-1.483,0.15-2.15l-0.05-0.15
		c-0.133-0.533-0.133-1.083,0-1.65l-0.35-0.8c-0.233-1.067-0.083-1.983,0.45-2.75c0.367-0.667,0.9-1.15,1.6-1.45
		s1.467-0.367,2.3-0.2c0.667,0.1,1.283,0.4,1.851,0.9L85.8,59.8c0.934,0.1,1.7,0.55,2.3,1.35c0.167,0.233,0.317,0.5,0.45,0.8
		c1.233,0.366,2.033,1.233,2.4,2.6c0.133,0.367,0.2,0.767,0.2,1.2C91.15,66.05,91.083,66.434,90.95,66.9z M100.65,100.5l0.75,0.05
		l0.6-0.05c-0.533-0.867-1.4-1.9-2.6-3.1l0.1,0.399C99.934,99.233,100.316,100.133,100.65,100.5z M95.85,113.2
		c-1,0.399-1.967,0.366-2.899-0.101v0.051l0.1,0.75h0.5c0.601,0.066,1.167,0.066,1.7,0l0.5-0.101L95.85,113.2z M95.25,119.9
		c-0.533,0.066-1.133,0.066-1.8,0L90.7,120c-0.8,0.066-1.5-0.133-2.101-0.6c-0.6-0.5-0.967-1.134-1.1-1.9l-0.05-0.5
		c-0.233,0.4-0.55,0.717-0.95,0.95c-0.333,0.2-0.566,0.316-0.7,0.35l-0.2,1.05l-0.1,0.301c-0.233,0.633-0.633,1.149-1.2,1.55
		c-0.6,0.366-1.233,0.517-1.9,0.45h-3.3l-0.35-0.051c0.333,0.9,0.3,1.75-0.1,2.551l-0.1,1.85c0.134,0.867-0.116,1.684-0.75,2.45
		c-1.167,1.3-2.15,2.616-2.95,3.95c-0.633,1.133-0.967,1.933-1,2.399c0,0.367,0.083,0.583,0.25,0.65c0.233,0,0.417,0.05,0.55,0.149
		c0.467-0.366,1.017-1,1.65-1.899c0.733-1.033,1.283-2.083,1.65-3.15c0.433-1.066,0.933-2,1.5-2.8
		c0.333-0.533,0.783-0.917,1.35-1.15c0.6-0.199,1.2-0.232,1.8-0.1c1.333,0.333,2.1,1.167,2.3,2.5c0.1,0.767,0.233,1.25,0.4,1.45
		c0.567,0.3,1,0.733,1.3,1.3c0.268,0.566,0.334,1.167,0.2,1.8l-0.3,1.9l0.35,0.3l2,0.2c0.634-0.4,1.2-0.667,1.7-0.8
		c-0.333-1.7-0.583-3.334-0.75-4.9l-0.05-0.35c-0.1-0.834,0.117-1.601,0.65-2.301c0.533-0.633,1.232-1,2.1-1.1l1.65-0.1
		c1.199-0.101,2.133,0.333,2.8,1.3c0.667,1,1.167,1.95,1.5,2.85c0.366,1.067,0.917,2.117,1.649,3.15
		c0.634,0.899,1.184,1.533,1.65,1.899l0.5-0.199c0.133,0,0.2-0.2,0.2-0.601c0-0.7-0.617-1.95-1.851-3.75
		c-0.333-0.5-0.5-1.05-0.5-1.649c0-0.634,0.167-1.2,0.5-1.7c0.134-0.233,0.351-0.467,0.65-0.7l-0.75-0.75
		c-0.434-0.4-0.717-0.883-0.85-1.45c-0.134-0.6-0.084-1.183,0.149-1.75c0.233-0.733,0.733-1.283,1.5-1.649l-1.75-0.15l-1.5,0.05
		C96.783,121.4,95.85,120.934,95.25,119.9z M109,120.6c-1.066,0.4-2.217,0.75-3.45,1.051c1.467,0.5,2.4,0.8,2.8,0.899
		C108.35,121.85,108.566,121.2,109,120.6z M78.3,98.95v0.1l0.05,0.05c0.167-0.133,0.45-0.267,0.85-0.399l0.75-0.2
		c0.133-0.467,0.3-0.816,0.5-1.05c0.466-0.533,1.017-0.884,1.65-1.05l-0.35-0.2c-0.967-0.634-1.7-0.934-2.2-0.9
		c-0.167,0.067-0.4,0.233-0.7,0.5c-0.333,0.267-0.567,0.5-0.7,0.7c-0.1,0.6-0.067,1.333,0.1,2.2L78.3,98.95z M73.15,112.8l0.2-1.8
		c0.2-2.066,0.517-3.517,0.95-4.35c-0.8,0.199-1.417,0.517-1.85,0.949c-0.7,0.733-1.083,1.601-1.15,2.601
		c-0.066,0.833,0.067,1.5,0.4,2c0.333,0.2,0.583,0.399,0.75,0.6C72.483,112.8,72.717,112.8,73.15,112.8z M69.5,122.65l-0.6,0.399"/>
	<path style="fill-rule:evenodd;clip-rule:evenodd;fill:#470B17;" d="M89.4,70.7l0.399,0.35c0.5,0.434,0.867,1.05,1.101,1.85
		c0.267,0.8,0.333,1.6,0.199,2.4l0.051,0.6h0.399l0.101,1.9l0.5-0.4c0.366-0.367,0.75-0.55,1.149-0.55c0.833,0,1.25,0.583,1.25,1.75
		v0.5c0.067,0.733,0.067,1.5,0,2.3L94.4,82.35v0.1c-0.067,0.566-0.167,1.1-0.301,1.6l0.75,0.1l-0.449,1.2
		c-0.768,2.267-1.967,3.683-3.601,4.25l-0.05,0.9l0.75-0.4c0.5-0.199,0.967-0.3,1.4-0.3c0.699,0,1.3,0.233,1.8,0.7
		c1.899-0.167,3.467,0.3,4.7,1.4c4.967,4.366,7.25,7.533,6.85,9.5c-0.1,0.467-0.367,0.916-0.8,1.35c-0.634,1.2-1.983,1.8-4.05,1.8
		c-1.134,0-2.051-0.2-2.75-0.6l-0.4-0.25c0.167,0.3,0.267,0.616,0.3,0.95c1.033,0.1,2.017,0.383,2.95,0.85
		c1.566,0.767,2.45,1.983,2.65,3.65c0.1,0.866-0.033,2.033-0.4,3.5c-0.133,0.533-0.417,0.982-0.85,1.35
		c-0.533,0.833-1.367,1.25-2.5,1.25c-0.4,0-0.851-0.05-1.351-0.15c-0.399-0.133-0.616-0.199-0.649-0.199l-0.851-0.351l0.25-0.85
		c0.4-1.533,0.434-2.533,0.101-3c-0.134-0.267-0.434-0.601-0.9-1c-0.833,1.167-1.667,1.75-2.5,1.75c-0.633,0-1.133-0.3-1.5-0.9
		c-0.8,0.533-1.517,1.15-2.15,1.851l0.45,3.55l2.25-0.05c0.601,0.066,1.233,0.066,1.9,0l1.1-0.2c1.101-0.267,1.934-0.351,2.5-0.25
		l0.7,0.05l0.15,0.7c0.066,0.333,0,0.683-0.2,1.05c1.433,0,2.783,0.233,4.05,0.7c0.9-0.233,2.617-0.733,5.15-1.5
		c1.666-0.601,2.85-0.9,3.55-0.9c0.767,0,1.5,0.167,2.2,0.5c1.366,0.567,2.1,1.417,2.199,2.55c0,1.367-1,2.617-3,3.75
		c0.367,0.167,0.667,0.417,0.9,0.75c0.4,0.667,0.417,1.301,0.05,1.9c-0.333,0.633-1.033,1.1-2.1,1.4c-0.7,0.232-1.367,0.35-2,0.35
		h-0.2c-1.333,0-2.684-0.2-4.05-0.6l0.05,0.05l0.85,0.6c0.801,0.567,1.25,1.2,1.351,1.9c0.066,0.5-0.067,0.933-0.4,1.3
		c-0.333,0.434-0.917,0.65-1.75,0.65H105.9l-0.351-0.051h-0.5c0.934,1.634,1.4,3.033,1.4,4.2c0,1.233-0.333,2.25-1,3.05
		c-0.567,0.7-1.283,1.167-2.15,1.4c-0.933,0.4-1.866,0.467-2.8,0.2c-0.934-0.333-1.983-1.267-3.15-2.8
		c-1.199-1.533-2.083-3.117-2.649-4.75l-0.75-1.5l-0.101,0.05c0.233,2,0.584,3.917,1.051,5.75l0.149,0.6l-0.6,0.601
		c-0.867,0.866-1.767,1.383-2.7,1.55c-0.233,0.033-0.483,0.167-0.75,0.399c-0.566,0.434-1.117,0.65-1.65,0.65
		c-0.899,0-2.05-0.117-3.449-0.35c-0.601-0.101-1.101-0.351-1.5-0.75c-0.233-0.2-0.383-0.301-0.45-0.301
		c-0.534-0.199-0.917-0.449-1.15-0.75c-0.267-0.199-0.45-0.399-0.55-0.6l-0.15-0.3l0.1-0.351l0.55-3.05
		c-0.4-0.333-0.767-0.816-1.1-1.45c-0.6,1.634-1.483,3.184-2.65,4.65c-1.133,1.467-2.167,2.367-3.1,2.7
		c-0.833,0.267-1.716,0.233-2.65-0.101c-0.934-0.232-1.7-0.683-2.3-1.35c-0.733-0.833-1.1-1.9-1.1-3.2c0-1.133,0.483-2.55,1.45-4.25
		c0.867-1.533,1.95-3.033,3.25-4.5l0.1-1.75c-0.8,0.4-1.583,0.833-2.35,1.3l-0.7,0.5c-1.2,0.768-2.133,1.233-2.8,1.4l-2.6,2.1
		c-1.8,1.467-3.067,2.417-3.8,2.851c-1,0.633-1.8,0.883-2.4,0.75l-0.7-0.25h-0.4c-1.1-0.233-1.8-0.783-2.1-1.65
		c-0.433-1.2,0.15-2.85,1.75-4.95c1.533-2.033,3.8-3.767,6.8-5.199c0.6-1,1.716-1.851,3.35-2.551l0.45-0.199
		c1.067-0.4,1.817-0.667,2.25-0.801c0.833-0.232,1.683-0.35,2.55-0.35c0.433,0,1.05,0.033,1.85,0.1l-0.05-0.05
		c-0.367-0.366-0.566-0.683-0.6-0.95c-0.733,0.334-1.483,0.5-2.25,0.5c-1.367,0-2.45-0.399-3.25-1.199
		c-0.466-0.268-0.85-0.601-1.15-1c-0.867-1.2-1.283-2.667-1.25-4.4c0.066-2.033,0.833-3.833,2.3-5.4c1.4-1.5,3.5-2.3,6.3-2.399
		c-0.633-0.533-1.067-1.233-1.3-2.101L74.5,100.2l-0.2-0.8c-0.333-1.634-0.316-3.033,0.05-4.2c0.3-0.833,0.95-1.65,1.95-2.45
		c1.033-0.867,2.017-1.333,2.95-1.4c1.4-0.133,2.8,0.268,4.2,1.2L82.5,91.8c-0.7-0.667-1.184-1.616-1.45-2.85
		c-0.233-0.601-0.383-1.184-0.45-1.75v-0.15c-0.133-1.366-0.15-2.35-0.05-2.95c0.1-0.733,0.384-1.217,0.85-1.45l0.5-0.25l0.5,0.3
		c0.467,0.3,1.05,0.8,1.75,1.5l1.05,1l1.149,0.75l0.4,0.2l0.2-2.25c-0.967-0.267-1.717-0.767-2.25-1.5
		c-0.634-0.767-0.817-1.617-0.55-2.55l0.15-0.55l0.6-0.15h0.25c-0.567-0.4-0.967-0.983-1.2-1.75c-0.067-0.233-0.117-0.5-0.15-0.8
		c-0.033-0.6,0.05-1.05,0.25-1.35l0.3-0.45c-0.167-0.433-0.15-0.95,0.05-1.55l0.15-0.3l-0.2-0.05H83.7l-0.3-0.6
		c-0.2-0.566-0.15-1.1,0.15-1.6c0.167-0.2,0.333-0.35,0.5-0.45L83.8,70c-0.7-0.2-1.25-0.717-1.65-1.55l-0.3-0.25
		c-0.267-0.3-0.434-0.684-0.5-1.15c-0.067-0.533,0.083-0.966,0.45-1.3l0.1-0.1c-0.2-0.2-0.333-0.433-0.4-0.7
		c-0.1-0.333-0.066-0.667,0.1-1l0.25-0.35l-0.3-0.4l-0.2-0.05l-0.2-0.7c-0.133-0.467-0.067-0.867,0.2-1.2
		c0.2-0.533,0.65-0.8,1.35-0.8l0.45,0.05c0.3,0.033,0.583,0.167,0.85,0.4h0.45l0.15,0.6l0.5,0.3c0.601-0.1,1.067,0.083,1.4,0.55
		c0.2,0.267,0.3,0.667,0.3,1.2l0.3,0.3c0.733-0.2,1.301,0.033,1.7,0.7l0.3-0.05l0.051,1.2c0,0.533-0.25,1.05-0.75,1.55v0.05
		l0.05,0.6l0.5,0.05L89.6,68.1l0.101,0.7C89.8,69.434,89.7,70.066,89.4,70.7z M92.4,82c0.033-0.033,0.083-0.3,0.149-0.8l0.05-1.5
		c-0.566,0.6-0.982,1.183-1.25,1.75c-0.199,0.4-0.399,1-0.6,1.8l-1.1,4.55c0.933-0.1,1.717-0.733,2.35-1.9h-1l0.75-1.45
		c0.4-0.634,0.617-1.367,0.65-2.2V82z M90.85,93.05l-2.199,3.8L88.8,87.9l0.3-0.051L88.9,84.7L88.5,88.1v0.351l-1.1,0.85
		l-1.25-1.149l-0.801-0.5c-0.466-0.233-0.933-0.533-1.399-0.9L82.5,85.4l0.1,1.45V87c0.066,0.467,0.183,0.9,0.35,1.3L83,88.45
		c0.167,0.833,0.467,1.467,0.9,1.899c0.2,0.2,0.633,0.518,1.3,0.95c0.8,0.533,1.467,0.884,2,1.05l0.75,0.25l-0.45,3.7l-1.35-0.8
		c-0.733-0.467-1.667-0.733-2.8-0.8H83.1l-0.25-0.15c-1.3-0.933-2.45-1.333-3.45-1.2c-0.5,0.033-1.117,0.351-1.85,0.95
		c-0.7,0.567-1.133,1.083-1.3,1.55C75.983,96.617,76,97.7,76.3,99.1l0.1,0.45v0.15c0.367,1.1,0.983,1.649,1.85,1.649l0.8-0.1
		l0.2-0.45l2.75-0.75l-0.45-1.75h2.05l0.7-1.8l1.601-0.4L86.3,96.7c0.333,0.566,0.583,1.35,0.75,2.35l0.05,0.5v0.101l-1,9.75
		l0.051,0.05l-0.051,0.5c-0.133,1.833-0.199,3.649-0.199,5.45v0.55l-0.75,0.5l-0.45,0.05c-1.3-0.1-2.934-0.033-4.9,0.2l-0.7,0.05
		l0.15,0.05c0.833,0.233,1.733,0.367,2.7,0.4l2.25,0.149l-0.85,2.4l-0.8-0.1H79.1l-5.15-0.4c-1.1,0-2.434,0.333-4,1l-0.5,0.2
		c-1.333,0.533-2.167,1.167-2.5,1.899l-0.15,0.301l-0.3,0.149c-2.8,1.267-4.934,2.851-6.4,4.75c-0.7,0.9-1.15,1.667-1.35,2.3
		c-0.133,0.367-0.167,0.617-0.1,0.75c0.1,0.167,0.333,0.301,0.7,0.4l0.35-0.1L60,131.1l0.45,0.15c0.333-0.033,1.833-1.1,4.5-3.2
		c1.267-1.066,2.216-1.816,2.85-2.25l0.15-0.149l0.25-0.051c0.5-0.1,1.25-0.482,2.25-1.149l0.75-0.55c0.8-0.5,1.883-1.067,3.25-1.7
		l0.1-0.05L78,121.3l-1.15,2c-0.133,0.167-0.2,0.434-0.2,0.8l-0.05,0.95c-0.067,0.467-0.067,0.867,0,1.2l0.05,0.5l-0.3,0.35
		c-1.267,1.4-2.333,2.834-3.2,4.301s-1.3,2.6-1.3,3.399c0,1.5,0.617,2.367,1.85,2.601l0.2,0.05c0.433,0.2,0.9,0.233,1.4,0.1
		c0.567-0.2,1.333-0.917,2.3-2.149c1-1.367,1.75-2.75,2.25-4.15c0.2-0.633,0.617-1.434,1.25-2.4l1.45-2.149l0.35,2.6
		c0.233,1.601,0.7,2.55,1.4,2.851l0.65,0.35l-0.7,4l0.45,0.25c0.399,0.167,0.733,0.383,1,0.65c0.167,0.133,0.35,0.217,0.55,0.25
		c1.066,0.232,2.1,0.35,3.1,0.35c0.134,0,0.301-0.1,0.5-0.3c0.667-0.4,1.184-0.634,1.551-0.7c0.166-0.033,0.583-0.267,1.25-0.7
		l0.149-0.149c-0.467-2.067-0.8-4.101-1-6.101l-0.2-1.45l3.351-0.3l0.35,0.5c0.601,0.934,1.017,1.75,1.25,2.45
		c0.533,1.4,1.3,2.783,2.3,4.15c0.967,1.232,1.717,1.949,2.25,2.149c0.467,0.101,0.967,0.05,1.5-0.149l0.15-0.051
		c1.133-0.267,1.7-1.116,1.7-2.55c0-1.133-0.733-2.75-2.2-4.85l-1.45-2.101l2.5,0.551c0.634,0.133,1.351,0.199,2.15,0.199l1,0.051
		l-0.25-0.25l-0.8-0.551c-0.667-0.399-1.283-0.866-1.851-1.399l-3.25-3.2l2.25-0.15c0.4,0,0.7-0.017,0.9-0.05h0.25l0.2,0.101
		c2.699,1.066,4.899,1.6,6.6,1.6h0.2c0.366,0,0.8-0.066,1.3-0.2c0.467-0.133,0.783-0.283,0.95-0.45l-4.4-1.449l3.351-1.551
		c1.967-0.933,2.949-1.75,2.949-2.449c0-0.301-0.316-0.551-0.949-0.75c-0.667-0.268-1.317-0.367-1.95-0.301
		c-0.467,0.067-1.267,0.301-2.4,0.7c-1.7,0.634-3.5,1.167-5.399,1.601L103.6,120l-0.35-0.1c-1.066-0.434-2.3-0.65-3.7-0.65
		c-0.399,0-0.967,0.033-1.7,0.1l-2.05,0.15l1.15-1.7l0.1-0.2l-0.1,0.051c-0.601,0.133-1.05,0.199-1.351,0.199
		c-0.633,0.101-1.333,0.117-2.1,0.051l-3.85,0.199L89.5,117.2c-0.367-2.233-0.6-3.917-0.7-5.05l-0.05,0.05l-0.15-2.55l-0.1,0.149
		l0.15-12.6l0.199-0.25c0.733-1,1.551-1.75,2.45-2.25l1.3-0.75l0.4,3.8l0.75-0.05c0.467-0.101,0.717-0.601,0.75-1.5l0.1-3.3
		l1.75,2.8c0.533,0.833,0.917,1.6,1.15,2.3l0.1,0.4c0.733,2.199,1.4,3.467,2,3.8c0.367,0.233,0.967,0.35,1.801,0.35
		c0.6,0,1.116-0.083,1.55-0.25c0.433-0.133,0.683-0.3,0.75-0.5l0.1-0.3l0.25-0.2c0.167-0.133,0.25-0.233,0.25-0.3
		c0.101-0.434-0.316-1.267-1.25-2.5c-1.133-1.5-2.8-3.2-5-5.1c-0.933-0.834-2.116-1.117-3.55-0.851l-0.6,0.101l-0.4-0.5
		c-0.167-0.233-0.367-0.351-0.6-0.351L92.3,91.95C91.667,92.217,91.184,92.583,90.85,93.05z M95.65,98.8
		c-0.467,0.5-0.983,0.783-1.551,0.851c-0.199,0.066-0.517,0.1-0.949,0.1c-1.167,0-1.884-0.533-2.15-1.6l-0.05-0.601l-0.3,0.351
		l-0.101,5.5c0.733-0.834,1.467-1.334,2.2-1.5c0.3-0.101,0.9-0.117,1.8-0.051h0.55c0.733,0,1.417,0.2,2.051,0.601
		c-0.5-0.8-0.983-1.967-1.45-3.5L95.65,98.8z M92.95,104.45c1,0,1.583,0.517,1.75,1.55l0.1,1.1l-1.45,0.9l1.2-0.65L94.6,109
		l0.051,0.35c0.467-0.399,0.8-0.816,1-1.25l0.75-1.449l0.949,0.699c1.067,0.834,1.817,1.584,2.25,2.25
		c0.533,0.867,0.65,2.067,0.351,3.601l0.45,0.05c0.467,0,0.75-0.117,0.85-0.35l0.1-0.2l0.2-0.15c0.134-0.133,0.217-0.267,0.25-0.399
		c0.367-1.301,0.483-2.301,0.351-3c-0.167-0.834-0.684-1.467-1.551-1.9c-0.933-0.434-1.933-0.65-3-0.65h-1l0.051-1.05l-0.051-0.5
		c-0.133-0.733-0.649-1.133-1.55-1.2H94.4c-0.601-0.066-1-0.066-1.2,0c-0.3,0.033-0.65,0.283-1.05,0.75
		C92.417,104.5,92.684,104.45,92.95,104.45z M85.45,65.35l-0.55,0.2l0.2,0.5L84.45,65.8H84.4l0.6,1.9l-1.1-0.2
		c0.2,0.4,0.367,0.6,0.5,0.6h0.65l0.3,0.6l0.2,0.1l0.2,0.05l0.55-0.15c0.101-0.2,0.15-0.467,0.15-0.8l-0.9-0.55l0.5-0.5L85.9,66.8
		l-0.45-0.7V65.35z M88.65,77.5l0.3-0.65L89,76.7l-0.45-0.75l-0.05,0.2l0.1,0.5l-0.1-0.1L88.65,77.5z M87.35,81.75
		c-0.467-0.267-0.816-0.434-1.05-0.5c0.367,0.467,0.867,0.733,1.5,0.8L87.35,81.75z M81,105.15c-1.4-0.5-2.883-0.75-4.45-0.75
		c-2.566,0-4.417,0.6-5.55,1.8c-1.066,1.167-1.633,2.517-1.7,4.05c-0.033,1.3,0.25,2.367,0.85,3.2c0.067,0.167,0.25,0.333,0.55,0.5
		l0.3,0.2c0.367,0.467,1,0.699,1.9,0.699c0.467,0,0.9-0.083,1.3-0.25c0.366-0.166,0.6-0.35,0.7-0.55
		c0.167-0.366,0.317-1.316,0.45-2.85c0.2-2.101,0.517-3.417,0.95-3.95c0.434-0.566,1.05-0.917,1.85-1.05l1.95-0.45l-0.8,1.85
		c-0.633,1.367-0.483,2.4,0.45,3.101c0.467,0.3,0.983,0.45,1.55,0.45l0.35-0.051c0.1-0.199,0.1-0.899,0-2.1l-0.1-2.65l1.5,0.851
		c0.733,0.399,1.4,0.85,2,1.35l-0.55-0.8c-0.434-0.6-0.883-1.1-1.35-1.5l-1.3-1.05l0.25-0.15l-0.85,0.15L81,105.15z M81.35,103.15
		c0.4-0.067,1.017-0.101,1.85-0.101l1.5,0.101L85,100.3h-0.9l0.3,1.15l-3.8,1.05l-0.4,0.35L81.35,103.15z M83.7,110
		c0.066,1.066-0.117,1.85-0.55,2.35c-0.367,0.533-0.983,0.801-1.85,0.801c-0.9,0-1.8-0.268-2.7-0.801
		c-0.567-0.399-0.983-0.833-1.25-1.3v0.3c-0.133,1.634-0.35,2.801-0.65,3.5v0.051h0.05c0.4-0.101,0.967-0.15,1.7-0.15l1.15-0.05
		c1.466-0.2,2.9-0.283,4.3-0.25l0.15-4.15L83.7,110z"/>
	<g>
		<path style="fill-rule:evenodd;clip-rule:evenodd;fill:#326B15;" d="M92.95,102.85c0.233-0.066,0.583-0.083,1.05-0.05
			c0.267,0,0.617,0.017,1.05,0.05c1.434,0.067,2.283,0.733,2.55,2c0.101,0.601,0.033,1.25-0.199,1.95
			c-0.067,0.2-0.351,0.783-0.851,1.75c-0.267,0.567-0.683,1.067-1.25,1.5c-0.7,0.601-1.217,0.55-1.55-0.149
			c-0.167-0.4-0.2-1.018-0.1-1.851c0.133-0.933,0.166-1.55,0.1-1.85c-0.167-0.767-0.65-0.95-1.45-0.55
			c-0.6,0.267-1.167,0.683-1.7,1.25c-0.533,0.666-0.949,1.166-1.25,1.5c-0.066,0.066-0.366,0.3-0.899,0.699
			c-0.386,0.258-0.619,0.516-0.7,0.775l0.6-2.175c0.268-0.067,0.518-0.283,0.75-0.65c0.134-0.2,0.317-0.483,0.551-0.85l1.3-1.7
			C91.783,103.5,92.45,102.95,92.95,102.85z"/>
		<path style="fill-rule:evenodd;clip-rule:evenodd;fill:#326B15;" d="M85.95,104.85c0.333,0.2,0.616,0.317,0.85,0.351l0.4,2.35
			c-0.533-0.667-0.95-1.149-1.25-1.45c-0.567-0.6-1.184-0.85-1.85-0.75c-1,0.2-1.5,1.101-1.5,2.7c0,0.3,0.05,0.934,0.15,1.9
			c0,0.866-0.117,1.45-0.35,1.75c-0.3,0.399-0.833,0.533-1.6,0.399c-0.633-0.1-1.183-0.3-1.65-0.6c-1.067-0.733-1.466-1.767-1.2-3.1
			c0.2-1.033,0.75-2.117,1.65-3.25c0.566-0.733,1.767-1.101,3.6-1.101c0.767,0,1.4,0.083,1.899,0.25
			C85.2,104.333,85.483,104.517,85.95,104.85z"/>
		<path style="fill-rule:evenodd;clip-rule:evenodd;fill:#326B15;" d="M79.3,92.35c0.833-0.066,1.667,0.084,2.5,0.45
			c0.533,0.233,1.25,0.65,2.15,1.25c0.4,0.3,1.033,0.634,1.899,1c1.033,0.467,1.617,0.833,1.75,1.101l-0.8,6.55
			c-0.366-0.8-0.616-1.983-0.75-3.55c-0.233-1.867-1-2.867-2.3-3c-1.133-0.067-1.934-0.033-2.4,0.1
			c-0.767,0.167-1.184,0.633-1.25,1.4c-0.034,0.366-0.017,1.217,0.05,2.55c0,1.2-0.283,1.866-0.85,2c-1.9,0.5-3.183-0.233-3.85-2.2
			c-0.167-0.566-0.284-1.3-0.35-2.2c-0.034-0.967,0.033-1.733,0.2-2.3c0.233-0.667,0.783-1.333,1.65-2
			C77.816,92.8,78.6,92.417,79.3,92.35z"/>
		<path style="fill-rule:evenodd;clip-rule:evenodd;fill:#326B15;" d="M66.95,126.5c-1.333-0.5-1.7-1.85-1.1-4.05
			c0.333-1.2,1.417-2.167,3.25-2.9c1.133-0.467,1.9-0.767,2.3-0.899c0.833-0.268,1.683-0.4,2.55-0.4c1.066,0,2.6,0.117,4.6,0.35
			c0.3,0.033,1.283,0.051,2.95,0.051c1.533,0,2.35,0.149,2.45,0.449l-0.2,2c-0.267,0.167-0.733,0.25-1.4,0.25
			c-0.733-0.066-1.233-0.1-1.5-0.1c-0.567,0-1.383,0.167-2.45,0.5c-2.5,0.833-4.716,1.833-6.65,3c-0.934,0.7-1.667,1.184-2.2,1.45
			C68.617,126.667,67.75,126.767,66.95,126.5z"/>
		<path style="fill-rule:evenodd;clip-rule:evenodd;fill:#326B15;" d="M90.3,121.15c-0.866,0-1.316-0.184-1.35-0.551l5.55-2
			c1.133-0.033,2.8-0.149,5-0.35c2.2,0,3.934,0.434,5.2,1.3c1,0.667,2.399,1.367,4.2,2.101l2.699,0.949
			c1.367,0.4,2.134,0.733,2.301,1c0.399,0.667,0.1,1.217-0.9,1.65c-0.767,0.333-1.533,0.5-2.3,0.5c-1.533,0.033-3.2-0.25-5-0.85
			c-2.033-0.801-3.601-1.4-4.7-1.801c-1.267-0.533-2.2-0.933-2.8-1.199c-1.067-0.4-2.067-0.617-3-0.65l-3-0.15
			C91.4,121.167,90.767,121.184,90.3,121.15z"/>
		<path style="fill-rule:evenodd;clip-rule:evenodd;fill:#326B15;" d="M90.8,129.55c-1.133-0.033-1.967-0.25-2.5-0.649
			c-0.267-0.2-0.616-0.7-1.05-1.5c-0.367-0.667-0.816-1.051-1.35-1.15c-0.567-0.1-1.334-0.1-2.3,0c-1.467,0.133-2.233,0.2-2.3,0.2
			c-0.533,0-1.25,0.149-2.15,0.45c-0.966,0.333-1.667,0.517-2.1,0.55c-0.866,0.1-1.35-0.283-1.45-1.15
			c0.066-1.033,0.083-1.767,0.05-2.2c-0.033-1.133,0.583-1.967,1.85-2.5c0.733-0.333,1.917-0.732,3.55-1.199l17.5,1.5
			c0.867-0.033,1.983,0.5,3.351,1.6c0.566,0.434,1.333,1.184,2.3,2.25c0.2,0.167,1.05,0.783,2.55,1.85c0.9,0.7,1.167,1.283,0.8,1.75
			c-0.167,0.2-0.483,0.301-0.95,0.301c-0.533-0.033-0.899-0.051-1.1-0.051c-1.434,0-2.717-0.217-3.85-0.649
			c-1.634-0.601-3.033-1.417-4.2-2.45c-1.634-1.467-2.601-2.3-2.9-2.5c0.067,0.2,0.267,0.467,0.601,0.8
			c0.399,0.367,0.649,0.634,0.75,0.8c0.399,0.634,0.566,1.417,0.5,2.351c0,0.433-0.018,0.683-0.051,0.75
			c-0.066,0.2-0.283,0.35-0.649,0.45c-0.4,0.133-1.117,0.232-2.15,0.3C92.217,129.55,91.3,129.583,90.8,129.55z"/>
		<path style="fill-rule:evenodd;clip-rule:evenodd;fill:#326B15;" d="M94.35,91.65c0.301,0.399,0.617,1.232,0.95,2.5
			c0.233,0.967,0.283,1.833,0.15,2.6c-0.134,1.133-0.634,1.783-1.5,1.95c-1.167,0.2-1.817-0.033-1.95-0.7
			c-0.033-1.167-0.1-2.05-0.2-2.65c-0.7-0.066-1.383,0.033-2.05,0.301c-0.367,0.1-0.967,0.383-1.8,0.85l0.8-2.5
			c0.267-0.066,0.517-0.267,0.75-0.6c0.133-0.2,0.316-0.5,0.55-0.9c0.367-0.6,0.983-1.083,1.851-1.45
			C92.967,90.583,93.783,90.783,94.35,91.65z"/>
		<path style="fill-rule:evenodd;clip-rule:evenodd;fill:#326B15;" d="M90.25,85.3c0.667-0.333,1.75-0.433,3.25-0.3
			c-1.033,2.8-2.617,4.066-4.75,3.8c-0.033-0.133,0.033-0.233,0.2-0.3l-0.4,0.15c-0.066-0.533,0.067-1.15,0.4-1.851
			C89.316,86.066,89.75,85.566,90.25,85.3z"/>
		<path style="fill-rule:evenodd;clip-rule:evenodd;fill:#326B15;" d="M85.1,80.15c0.667-0.133,1.467,0.034,2.4,0.5
			c0.934,0.5,1.467,1.05,1.6,1.65l0.2,0.35c-0.866,0.633-1.85,0.617-2.95-0.05C85.25,81.9,84.833,81.083,85.1,80.15z"/>
		<path style="fill-rule:evenodd;clip-rule:evenodd;fill:#326B15;" d="M90.35,78.55c-0.267,0.4-0.732,0.75-1.399,1.05l-0.4-1l0.9-1
			c0.366-0.4,0.767-0.617,1.2-0.65C90.717,77.617,90.617,78.15,90.35,78.55z"/>
		<path style="fill-rule:evenodd;clip-rule:evenodd;fill:#326B15;" d="M88.15,74.95L87.4,75.1c-1.768,0-2.45-0.5-2.051-1.5
			c0.5,0.033,1,0.216,1.5,0.55C87.483,74.617,87.917,74.883,88.15,74.95z"/>
		<path style="fill-rule:evenodd;clip-rule:evenodd;fill:#88DF45;" d="M89.85,85.8c0,1.867-0.116,9.384-0.35,22.55
			c0,2.733,0.483,6.834,1.45,12.301c1.1,6.199,1.667,9.399,1.7,9.6c0.199,2.2,0.566,4.333,1.1,6.4
			c-0.833,0.767-1.566,1.217-2.2,1.35c-0.3,0.033-0.683,0.217-1.149,0.55c-0.434,0.3-0.783,0.45-1.051,0.45
			c-0.732,0-1.833-0.117-3.3-0.35c-0.366-0.067-0.667-0.2-0.899-0.4c-0.367-0.333-0.634-0.533-0.8-0.6
			c-0.333-0.134-0.583-0.283-0.75-0.45l-0.2-0.2c0.367-1.667,0.717-3.717,1.05-6.15c0.633-4.866,0.85-9.183,0.649-12.949
			c-0.166-3.667,0.2-9.533,1.101-17.601c1.033-8.066,1.616-12.95,1.75-14.65c0.133-1.4,0.1-3.183-0.101-5.35l0.551,0.15
			c0.366,0.1,0.6-0.017,0.699-0.35c0.067-0.3-0.066-0.517-0.399-0.65l-0.95-0.25c-0.233-1.634-0.383-2.567-0.45-2.8
			c0.467,0.133,0.75,0.034,0.851-0.3l0.1-0.5C89.316,79.434,89.85,82.833,89.85,85.8z"/>
		<path style="fill-rule:evenodd;clip-rule:evenodd;fill:#356808;" d="M86.35,123.5c-3.033-1.066-6.017-1.383-8.95-0.95
			c-2.466,0.367-4.8,1.233-7,2.601c-0.867,0.566-2.85,2.1-5.95,4.6c-2.233,1.767-3.634,2.6-4.2,2.5c-2-0.467-1.95-2.117,0.15-4.95
			c1.367-1.8,3.317-3.35,5.85-4.649c2.733-1.4,5.667-2.217,8.8-2.45c2.7-0.2,5.117-0.117,7.25,0.25c1.067,0.167,1.867,0.366,2.4,0.6
			C86.2,122.816,86.75,123.633,86.35,123.5z"/>
		<path style="fill-rule:evenodd;clip-rule:evenodd;fill:#88DF45;" d="M97.1,124.2c-6.1-0.167-8.633-0.9-7.6-2.2
			c0.1-0.1,1.7-0.4,4.8-0.9c3.9-0.633,6.934-1.199,9.101-1.699c0.8-0.2,2.883-0.851,6.25-1.95c1.399-0.467,2.649-0.467,3.75,0
			c1.399,0.633,1.816,1.483,1.25,2.55c-0.634,1.133-2.167,2.133-4.601,3C107.383,123.967,103.066,124.367,97.1,124.2z"/>
		<path style="fill-rule:evenodd;clip-rule:evenodd;fill:#356808;" d="M86.9,122.7c0.566,0,0.933,0.283,1.1,0.85
			c0.133,0.533-0.1,0.851-0.7,0.95c-0.733,0.1-1.833,0.9-3.3,2.4c-1.633,1.666-2.7,3.217-3.2,4.649
			c-0.533,1.533-1.35,3.017-2.45,4.45c-1.067,1.4-1.983,2.233-2.75,2.5c-0.867,0.267-1.717,0.133-2.55-0.4
			c-1-0.633-1.5-1.666-1.5-3.1c0-1.533,1.017-3.667,3.05-6.4c2.033-2.699,3.966-4.517,5.8-5.449c1.567-0.733,3.117-1.033,4.65-0.9
			C85.816,122.316,86.434,122.467,86.9,122.7z"/>
		<path style="fill-rule:evenodd;clip-rule:evenodd;fill:#88DF45;" d="M101.85,128.6c2.033,2.733,3.051,4.867,3.051,6.4
			c0,1.434-0.5,2.467-1.5,3.1c-0.834,0.533-1.7,0.667-2.601,0.4c-0.767-0.267-1.683-1.1-2.75-2.5c-1.066-1.4-1.883-2.883-2.45-4.45
			c-0.5-1.433-1.55-2.983-3.149-4.649c-1.467-1.5-2.567-2.301-3.3-2.4c-0.634-0.1-0.867-0.417-0.7-0.95
			c0.133-0.566,0.483-0.85,1.05-0.85l1.85-0.45c1.567-0.133,3.117,0.167,4.65,0.9C97.867,124.083,99.816,125.9,101.85,128.6z"/>
		<path style="fill-rule:evenodd;clip-rule:evenodd;fill:#356808;" d="M76.65,104.15c2.3-0.067,4.367,0.35,6.2,1.25
			c1.367,0.699,2.583,2.083,3.65,4.149c0.533,1.033,0.917,2,1.15,2.9c-2.434-2.867-4.767-4.601-7-5.2
			c-1.7-0.434-2.883-0.233-3.55,0.6c-0.333,0.4-0.567,1.434-0.7,3.101c-0.167,1.833-0.367,3-0.6,3.5
			c-0.4,0.833-1.283,1.283-2.65,1.35c-1.433,0.067-2.466-0.333-3.1-1.2c-0.733-1-1.066-2.267-1-3.8c0.1-1.767,0.75-3.3,1.95-4.6
			S74.083,104.217,76.65,104.15z"/>
		<path style="fill-rule:evenodd;clip-rule:evenodd;fill:#88DF45;" d="M100.3,114.25l-1.55-0.3c0.5-1.767,0.5-3.033,0-3.8
			c-0.3-0.467-0.8-1-1.5-1.601l-0.9-0.7c-0.933,0.233-1.982,0.7-3.149,1.4c-2.333,1.4-4.117,3.3-5.351,5.7L86.9,114.3l1.5-2.5
			l1.55-1.5c1.167-1.1,2.133-1.967,2.899-2.6c0.967-0.767,2.167-1.233,3.601-1.4c1.5-0.167,2.883,0.083,4.149,0.75
			c1.167,0.601,1.851,1.483,2.051,2.65c0.133,0.8,0.017,1.883-0.351,3.25C102.066,113.85,101.4,114.283,100.3,114.25z"/>
		<path style="fill-rule:evenodd;clip-rule:evenodd;fill:#88DF45;" d="M87.1,117.1l-0.75,0.65c-0.467,0.333-1.183,0.517-2.149,0.55
			c-0.434,0.033-1.2,0-2.3-0.1c-0.966-0.033-1.95-0.184-2.95-0.45c-0.4-0.1-0.75-0.184-1.05-0.25c-0.533-0.167-0.867-0.316-1-0.45
			c-0.267-0.267-0.35-0.433-0.25-0.5c0.034-0.033,0.284-0.083,0.75-0.149c0.333-0.067,0.784-0.101,1.35-0.101
			c0.6-0.033,1.033-0.066,1.3-0.1C84.75,115.767,87.1,116.066,87.1,117.1z"/>
		<path style="fill-rule:evenodd;clip-rule:evenodd;fill:#88DF45;" d="M90.75,122.05c-0.633-0.066-1.267-0.233-1.9-0.5
			c-0.732-0.333-1.199-0.733-1.399-1.2l1.5-2.8c0.767,0.033,1.983-0.017,3.649-0.149h2.7c0.134,0,0.684-0.101,1.65-0.301
			c0.667-0.166,1.2-0.217,1.6-0.149c0.033,0.133,0.017,0.233-0.05,0.3c-0.1,0.1-0.184,0.2-0.25,0.3
			c-0.434,0.833-0.983,1.601-1.65,2.3c-0.767,0.834-1.566,1.384-2.399,1.65C92.767,121.9,91.617,122.083,90.75,122.05z"/>
		<path style="fill-rule:evenodd;clip-rule:evenodd;fill:#88DF45;" d="M91.35,95.85c-1.633,1.134-2.8,3-3.5,5.601
			c0.233-1,0.5-2.05,0.801-3.15c0.566-2.167,0.967-3.433,1.199-3.8c0.533-0.733,1.634-1.333,3.301-1.8
			c2.133-0.634,3.883-0.351,5.25,0.85c1.866,1.634,3.35,3.15,4.449,4.55c1.4,1.733,2.018,3.018,1.851,3.851
			c-0.2,0.833-1,1.35-2.4,1.55c-1.3,0.2-2.35,0.066-3.149-0.4c-0.934-0.533-1.801-2.133-2.601-4.8c-0.233-0.667-0.6-1.383-1.1-2.149
			c-0.533-0.867-0.967-1.301-1.3-1.301C93.25,94.85,92.316,95.184,91.35,95.85z"/>
		<path style="fill-rule:evenodd;clip-rule:evenodd;fill:#356808;" d="M76.1,101l-0.3-1.55l2.2-2.8c1.2-1.434,2.867-2.15,5-2.15
			c1.167,0,2.233,0.233,3.2,0.7c0.5,0.2,0.866,0.417,1.1,0.649c0.601,1.634,0.783,2.184,0.55,1.65c-0.166-0.367-0.683-0.5-1.55-0.4
			l-1.25,0.2l-0.75,2h-1.45l0.35,1.5l-3.9,0.95C77.667,102.184,76.6,101.934,76.1,101z"/>
		<path style="fill-rule:evenodd;clip-rule:evenodd;fill:#356808;" d="M85.6,92.7C84.5,92.1,83.7,91.55,83.2,91.05
			c-0.733-0.633-1.167-1.633-1.3-3c-0.167-2.167-0.1-3.333,0.2-3.5c0.7,0.434,1.583,1.233,2.65,2.4c0.233,0.167,0.7,0.467,1.4,0.899
			c0.6,0.367,1.033,0.684,1.3,0.95c0.633,0.567,0.95,1.483,0.95,2.75l-0.2,1.65C87.867,93.667,87,93.5,85.6,92.7z"/>
		<path style="fill-rule:evenodd;clip-rule:evenodd;fill:#88DF45;" d="M93.4,79.75v2.6c-0.167,1.7-0.967,3.283-2.4,4.75
			c-0.767,0.634-1.316,1.134-1.65,1.5c-0.232,0.268-0.449,0.617-0.649,1.051l-0.5,1.1V87.6c-0.033-0.267,0.217-0.8,0.75-1.6
			c0.333-0.533,0.583-1.083,0.75-1.65c0.3-1.233,0.55-2.017,0.75-2.35c0.467-1,1.2-1.917,2.2-2.75c0.3-0.267,0.5-0.35,0.6-0.25
			C93.316,79.066,93.367,79.316,93.4,79.75z"/>
		<path style="fill-rule:evenodd;clip-rule:evenodd;fill:#88DF45;" d="M88.95,73.65c0.133-0.267,0.2-0.45,0.2-0.55V73
			c0.732,0.667,1.066,1.667,1,3c-0.101,1.434-0.684,2.233-1.75,2.4l-0.2-0.85c-0.367-0.066-0.467-0.466-0.3-1.2l0.25-0.25
			l0.199-0.95L88.9,73.9L88.95,73.65z"/>
		<path style="fill-rule:evenodd;clip-rule:evenodd;fill:#88DF45;" d="M87.5,73.15L87,72.3l-0.05-0.75
			c0.066-0.333,0.233-0.633,0.5-0.9c0.267-0.3,0.566-0.466,0.899-0.5L88,71.5C87.767,72,87.6,72.55,87.5,73.15z"/>
		<path style="fill-rule:evenodd;clip-rule:evenodd;fill:#88DF45;" d="M86.65,69.85c-0.2-0.967-0.567-2.383-1.101-4.25
			c0.333-0.133,0.601-0.1,0.8,0.1c0.167,0.133,0.25,0.366,0.25,0.7c0,0.2-0.017,0.45-0.05,0.75l0.3,0.05
			C87.184,68.4,87.117,69.283,86.65,69.85z"/>
		<linearGradient id="SVGID_12_" gradientUnits="userSpaceOnUse" x1="83.1748" y1="102.7754" x2="93.9248" y2="102.7754">
			<stop  offset="0" style="stop-color:#3D7D1B"/>
			<stop  offset="1" style="stop-color:#72E237"/>
		</linearGradient>
		<path style="fill-rule:evenodd;clip-rule:evenodd;fill:url(#SVGID_12_);" d="M89.85,84.8c0,1.9-0.116,9.533-0.35,22.9
			c0,2.833,0.5,7,1.5,12.5c1.2,6.467,1.8,9.717,1.8,9.75c0.2,2.233,0.583,4.399,1.15,6.5c-0.9,0.8-1.667,1.25-2.3,1.35
			c-0.334,0.067-0.733,0.25-1.2,0.55c-0.467,0.301-0.833,0.45-1.101,0.45c-1.166,0-2.3-0.116-3.399-0.35
			c-0.367-0.067-0.684-0.2-0.95-0.4c-0.367-0.3-0.65-0.5-0.85-0.6c-0.367-0.134-0.633-0.283-0.8-0.45l-0.2-0.2
			c0.4-1.7,0.767-3.783,1.1-6.25c0.667-4.933,0.9-9.316,0.7-13.149c-0.2-3.733,0.183-9.684,1.149-17.851
			c1.067-8.2,1.667-13.167,1.801-14.9c0.267-3.566-0.15-7.617-1.25-12.15l-1.7-5.75c1.3,2.033,2.45,4.816,3.45,8.35
			C89.367,78.667,89.85,81.9,89.85,84.8z"/>
		
			<linearGradient id="SVGID_13_" gradientUnits="userSpaceOnUse" x1="-133.272" y1="72.0264" x2="-116.872" y2="72.0264" gradientTransform="matrix(6.097561e-005 -1 1 -0.001 1.784213e-004 4.439838e-004)">
			<stop  offset="0" style="stop-color:#3D7D1B"/>
			<stop  offset="1" style="stop-color:#72E237"/>
		</linearGradient>
		<path style="fill-rule:evenodd;clip-rule:evenodd;fill:url(#SVGID_13_);" d="M86.25,123.1c-5.9-2.066-11.417-1.517-16.55,1.65
			c-0.934,0.566-3.017,2.117-6.25,4.65c-2.3,1.833-3.733,2.683-4.3,2.55c-2.067-0.467-2-2.134,0.2-5c1.4-1.833,3.417-3.4,6.05-4.7
			c2.833-1.434,5.867-2.267,9.1-2.5c2.8-0.2,5.316-0.117,7.55,0.25c1.1,0.167,1.917,0.367,2.45,0.6
			C86.1,122.4,86.684,123.233,86.25,123.1z"/>
		
			<linearGradient id="SVGID_14_" gradientUnits="userSpaceOnUse" x1="70.0059" y1="139.498" x2="85.7982" y2="139.498" gradientTransform="matrix(0.9799 -0.1995 0.1995 0.9799 -2.621412e-004 8.432567e-005)">
			<stop  offset="0" style="stop-color:#3D7D1B"/>
			<stop  offset="1" style="stop-color:#72E237"/>
		</linearGradient>
		<path style="fill-rule:evenodd;clip-rule:evenodd;fill:url(#SVGID_14_);" d="M97.35,123.8c-6.333-0.2-8.949-0.95-7.85-2.25
			c0.1-0.1,1.75-0.399,4.95-0.899c4.066-0.634,7.217-1.2,9.45-1.7c0.767-0.167,2.933-0.817,6.5-1.95
			c1.467-0.5,2.767-0.517,3.899-0.05c1.5,0.633,1.934,1.5,1.3,2.6c-0.633,1.134-2.217,2.15-4.75,3.05
			C108.083,123.6,103.583,124,97.35,123.8z"/>
		
			<linearGradient id="SVGID_15_" gradientUnits="userSpaceOnUse" x1="-137.3042" y1="79.4341" x2="-122.3542" y2="79.4341" gradientTransform="matrix(6.688964e-005 -1 1 -0.001 -2.164163e-004 4.439838e-004)">
			<stop  offset="0" style="stop-color:#3D7D1B"/>
			<stop  offset="1" style="stop-color:#72E237"/>
		</linearGradient>
		<path style="fill-rule:evenodd;clip-rule:evenodd;fill:url(#SVGID_15_);" d="M86.8,122.25c0.601,0,0.983,0.283,1.15,0.85
			c0.167,0.601-0.083,0.934-0.75,1c-0.767,0.101-1.917,0.917-3.45,2.45c-1.667,1.667-2.767,3.25-3.3,4.75
			c-0.567,1.567-1.4,3.067-2.5,4.5c-1.1,1.4-2.05,2.233-2.85,2.5c-0.934,0.3-1.833,0.167-2.7-0.399
			c-1.033-0.634-1.55-1.667-1.55-3.101c0-1.6,1.066-3.783,3.2-6.55c2.1-2.733,4.117-4.566,6.05-5.5c1.6-0.767,3.2-1.083,4.8-0.95
			C85.7,121.867,86.333,122.017,86.8,122.25z"/>
		
			<linearGradient id="SVGID_16_" gradientUnits="userSpaceOnUse" x1="-136.5469" y1="96.9102" x2="-123.2469" y2="96.9102" gradientTransform="matrix(7.518797e-005 -1 1 -0.001 1.790041e-004 -4.842016e-005)">
			<stop  offset="0" style="stop-color:#3D7D1B"/>
			<stop  offset="1" style="stop-color:#72E237"/>
		</linearGradient>
		<path style="fill-rule:evenodd;clip-rule:evenodd;fill:url(#SVGID_16_);" d="M102.3,128.25c2.101,2.767,3.15,4.95,3.15,6.55
			c0,1.434-0.517,2.467-1.55,3.101c-0.867,0.566-1.75,0.699-2.65,0.399c-0.8-0.267-1.75-1.1-2.85-2.5
			c-1.134-1.467-1.983-2.967-2.551-4.5c-0.533-1.5-1.633-3.083-3.3-4.75c-1.533-1.533-2.667-2.35-3.399-2.45
			c-0.667-0.066-0.917-0.399-0.75-1c0.133-0.566,0.5-0.85,1.1-0.85l1.95-0.45c1.6-0.133,3.2,0.184,4.8,0.95
			C98.184,123.684,100.2,125.517,102.3,128.25z"/>
		
			<linearGradient id="SVGID_17_" gradientUnits="userSpaceOnUse" x1="-115.2031" y1="77.9541" x2="-102.1531" y2="77.9541" gradientTransform="matrix(7.662836e-005 -1 1 -0.001 1.220769e-004 4.439838e-004)">
			<stop  offset="0" style="stop-color:#3D7D1B"/>
			<stop  offset="1" style="stop-color:#72E237"/>
		</linearGradient>
		<path style="fill-rule:evenodd;clip-rule:evenodd;fill:url(#SVGID_17_);" d="M76.15,103.45c2.4-0.067,4.55,0.35,6.45,1.25
			c1.433,0.7,2.7,2.1,3.8,4.2c0.533,1.066,0.933,2.066,1.199,3c-2.533-2.934-4.966-4.7-7.3-5.301
			c-1.733-0.433-2.95-0.232-3.65,0.601c-0.367,0.433-0.617,1.5-0.75,3.2c-0.167,1.866-0.367,3.033-0.6,3.5
			c-0.4,0.866-1.333,1.333-2.8,1.399c-1.467,0.067-2.533-0.35-3.2-1.25c-0.733-1.033-1.066-2.316-1-3.85
			c0.1-1.767,0.767-3.317,2-4.65S73.483,103.517,76.15,103.45z"/>
		
			<linearGradient id="SVGID_18_" gradientUnits="userSpaceOnUse" x1="-113.7573" y1="95.0117" x2="-104.2323" y2="95.0117" gradientTransform="matrix(1.049869e-004 -1 1 -0.001 5.448138e-005 4.449275e-004)">
			<stop  offset="0" style="stop-color:#3D7D1B"/>
			<stop  offset="1" style="stop-color:#72E237"/>
		</linearGradient>
		<path style="fill-rule:evenodd;clip-rule:evenodd;fill:url(#SVGID_18_);" d="M100.7,113.7l-1.601-0.3
			c0.533-1.801,0.533-3.084,0-3.851c-0.3-0.467-0.816-1-1.55-1.6l-0.95-0.75c-0.967,0.233-2.05,0.7-3.25,1.399
			c-2.433,1.434-4.3,3.367-5.6,5.801l-0.95-0.65l1.55-2.55l1.601-1.5c1.2-1.134,2.2-2.017,3-2.65c1-0.767,2.25-1.233,3.75-1.399
			c1.6-0.167,3.05,0.066,4.35,0.699c1.2,0.601,1.9,1.5,2.101,2.7c0.133,0.833,0,1.95-0.4,3.351
			C102.517,113.3,101.833,113.733,100.7,113.7z"/>
		<linearGradient id="SVGID_19_" gradientUnits="userSpaceOnUse" x1="76.1123" y1="116.6279" x2="86.9873" y2="116.6279">
			<stop  offset="0" style="stop-color:#3D7D1B"/>
			<stop  offset="1" style="stop-color:#72E237"/>
		</linearGradient>
		<path style="fill-rule:evenodd;clip-rule:evenodd;fill:url(#SVGID_19_);" d="M87,116.55l-0.75,0.7
			c-0.467,0.333-1.217,0.517-2.25,0.55c-0.467,0.033-1.25,0-2.35-0.1c-1.2-0.067-2.233-0.217-3.1-0.45
			c-0.4-0.1-0.75-0.184-1.05-0.25c-0.566-0.167-0.917-0.316-1.05-0.45c-0.3-0.267-0.384-0.433-0.25-0.5
			c0.033-0.033,0.283-0.1,0.75-0.2c0.333-0.066,0.8-0.1,1.4-0.1c0.633,0,1.083-0.017,1.35-0.05c1.433-0.2,2.8-0.283,4.1-0.25
			C85.934,115.483,87,115.85,87,116.55z"/>
		<linearGradient id="SVGID_20_" gradientUnits="userSpaceOnUse" x1="87.3877" y1="118.998" x2="98.9043" y2="118.998">
			<stop  offset="0" style="stop-color:#3D7D1B"/>
			<stop  offset="1" style="stop-color:#72E237"/>
		</linearGradient>
		<path style="fill-rule:evenodd;clip-rule:evenodd;fill:url(#SVGID_20_);" d="M90.8,121.6c-0.633-0.033-1.3-0.199-2-0.5
			c-0.733-0.333-1.2-0.732-1.399-1.199l1.55-2.851c0.767,0.033,2.017-0.017,3.75-0.149h2.8c0.2-0.033,0.767-0.134,1.7-0.301
			c0.733-0.166,1.3-0.232,1.7-0.199c0.033,0.133,0.017,0.25-0.051,0.35c-0.166,0.167-0.25,0.267-0.25,0.3
			c-0.6,1-1.166,1.767-1.699,2.3c-0.867,0.9-1.717,1.467-2.551,1.7C92.85,121.45,91.667,121.633,90.8,121.6z"/>
		
			<linearGradient id="SVGID_21_" gradientUnits="userSpaceOnUse" x1="-102.709" y1="96.5273" x2="-91.684" y2="96.5273" gradientTransform="matrix(9.070295e-005 -1 1 -0.001 -3.297082e-005 4.439838e-004)">
			<stop  offset="0" style="stop-color:#3D7D1B"/>
			<stop  offset="1" style="stop-color:#72E237"/>
		</linearGradient>
		<path style="fill-rule:evenodd;clip-rule:evenodd;fill:url(#SVGID_21_);" d="M98.75,92.65c1.934,1.699,3.467,3.25,4.6,4.649
			c1.467,1.767,2.101,3.067,1.9,3.9c-0.167,0.866-0.967,1.399-2.4,1.6c-1.366,0.167-2.482,0.017-3.35-0.45
			c-0.667-0.366-1.267-1.133-1.8-2.3c-0.167-0.366-0.467-1.217-0.9-2.55c-0.233-0.7-0.6-1.434-1.1-2.2
			c-0.567-0.866-1.033-1.3-1.4-1.3c-0.933,0-1.899,0.35-2.899,1.05c-1.7,1.134-2.917,3.017-3.65,5.65
			c0.267-1.033,0.55-2.101,0.85-3.2c0.634-2.2,1.067-3.483,1.301-3.85c0.5-0.733,1.633-1.351,3.399-1.851
			C95.5,91.133,97.316,91.417,98.75,92.65z"/>
		
			<linearGradient id="SVGID_22_" gradientUnits="userSpaceOnUse" x1="-101.1689" y1="81.5967" x2="-93.3939" y2="81.5967" gradientTransform="matrix(1.286174e-004 -1 1 -0.001 2.102547e-004 4.439838e-004)">
			<stop  offset="0" style="stop-color:#3D7D1B"/>
			<stop  offset="1" style="stop-color:#72E237"/>
		</linearGradient>
		<path style="fill-rule:evenodd;clip-rule:evenodd;fill:url(#SVGID_22_);" d="M78.95,101c-1.7,0.434-2.817,0.184-3.35-0.75
			l-0.3-1.55l2.3-2.851c1.167-1.467,2.9-2.199,5.2-2.199c1.9,0,3.367,0.449,4.4,1.35c0.633,1.667,0.816,2.217,0.55,1.65
			c-0.133-0.334-0.65-0.45-1.55-0.351l-1.3,0.2l-0.8,2h-1.5l0.35,1.5L78.95,101z"/>
		
			<linearGradient id="SVGID_23_" gradientUnits="userSpaceOnUse" x1="-123.2256" y1="26.498" x2="-114.7105" y2="26.498" gradientTransform="matrix(-0.5197 -0.8544 0.8544 -0.5197 -2.427101e-004 7.169247e-004)">
			<stop  offset="0" style="stop-color:#3D7D1B"/>
			<stop  offset="1" style="stop-color:#72E237"/>
		</linearGradient>
		<path style="fill-rule:evenodd;clip-rule:evenodd;fill:url(#SVGID_23_);" d="M84.6,85.95c0.267,0.2,0.733,0.517,1.4,0.95
			c0.633,0.366,1.1,0.683,1.4,0.949c0.633,0.601,0.949,1.533,0.949,2.801L88.15,92.35c-0.334,0.467-1.217,0.301-2.65-0.5
			c-1.133-0.633-1.983-1.199-2.55-1.699c-0.767-0.733-1.217-1.75-1.35-3.051c-0.167-2.2-0.083-3.383,0.25-3.55
			c0.4,0.233,0.867,0.617,1.4,1.15C83.883,85.333,84.333,85.75,84.6,85.95z"/>
		<linearGradient id="SVGID_24_" gradientUnits="userSpaceOnUse" x1="88.1377" y1="83.8291" x2="93.5627" y2="83.8291">
			<stop  offset="0" style="stop-color:#3D7D1B"/>
			<stop  offset="1" style="stop-color:#72E237"/>
		</linearGradient>
		<path style="fill-rule:evenodd;clip-rule:evenodd;fill:url(#SVGID_24_);" d="M93.55,78.65v2.65c-0.1,0.967-0.366,1.85-0.8,2.65
			c-0.367,0.667-0.934,1.4-1.7,2.2c-0.8,0.633-1.366,1.133-1.7,1.5c-0.232,0.267-0.449,0.616-0.649,1.05
			c-0.3,0.6-0.483,0.967-0.55,1.1V86.65c-0.033-0.268,0.232-0.817,0.8-1.65c0.333-0.533,0.583-1.083,0.75-1.65
			c0.267-1.133,0.517-1.934,0.75-2.4c0.667-1.134,1.433-2.067,2.3-2.8c0.333-0.267,0.55-0.35,0.65-0.25
			C93.467,77.967,93.517,78.217,93.55,78.65z"/>
		<linearGradient id="SVGID_25_" gradientUnits="userSpaceOnUse" x1="84.8374" y1="77.1499" x2="88.3624" y2="77.1499">
			<stop  offset="0" style="stop-color:#3D7D1B"/>
			<stop  offset="1" style="stop-color:#72E237"/>
		</linearGradient>
		<path style="fill-rule:evenodd;clip-rule:evenodd;fill:url(#SVGID_25_);" d="M87.95,77.6l0.399,1.2c-1,0-1.699-0.083-2.1-0.25
			c-0.667-0.233-1.117-0.716-1.35-1.45c-0.167-0.633-0.167-1.067,0-1.3c0.133-0.2,0.217-0.3,0.25-0.3s0.199,0.083,0.5,0.25
			c0.333,0.133,0.732,0.434,1.199,0.9C87.383,77.184,87.75,77.5,87.95,77.6z"/>
		<linearGradient id="SVGID_26_" gradientUnits="userSpaceOnUse" x1="87.75" y1="74.5498" x2="90.15" y2="74.5498">
			<stop  offset="0" style="stop-color:#3D7D1B"/>
			<stop  offset="1" style="stop-color:#72E237"/>
		</linearGradient>
		<path style="fill-rule:evenodd;clip-rule:evenodd;fill:url(#SVGID_26_);" d="M88.15,76.45c-0.533-0.134-0.533-0.833,0-2.1
			c0.666-1.633,1-2.483,1-2.55c0.767,0.667,1.1,1.684,1,3.05c-0.067,1.466-0.667,2.283-1.801,2.45L88.15,76.45z"/>
		<linearGradient id="SVGID_27_" gradientUnits="userSpaceOnUse" x1="84.2749" y1="72.8096" x2="88.1249" y2="72.8096">
			<stop  offset="0" style="stop-color:#3D7D1B"/>
			<stop  offset="1" style="stop-color:#72E237"/>
		</linearGradient>
		<path style="fill-rule:evenodd;clip-rule:evenodd;fill:url(#SVGID_27_);" d="M87.2,72.6l0.95,2.15
			c-0.434,0.1-1.018-0.333-1.75-1.3c-0.733-1.034-1.417-1.55-2.05-1.55c-0.133-0.3-0.067-0.566,0.2-0.8s0.567-0.3,0.9-0.2
			c0.233,0.067,0.533,0.333,0.899,0.8C86.816,72.233,87.1,72.533,87.2,72.6z"/>
		<linearGradient id="SVGID_28_" gradientUnits="userSpaceOnUse" x1="86.7871" y1="70.7539" x2="88.7121" y2="70.7539">
			<stop  offset="0" style="stop-color:#3D7D1B"/>
			<stop  offset="1" style="stop-color:#72E237"/>
		</linearGradient>
		<path style="fill-rule:evenodd;clip-rule:evenodd;fill:url(#SVGID_28_);" d="M86.8,70.95c-0.066-0.5,0.083-0.983,0.45-1.45
			c0.4-0.5,0.883-0.684,1.45-0.55c0.066,0.433-0.083,1.05-0.45,1.85c-0.367,0.767-0.533,1.367-0.5,1.8L86.8,70.95z"/>
		<linearGradient id="SVGID_29_" gradientUnits="userSpaceOnUse" x1="84.2627" y1="68.4131" x2="87.437" y2="68.4131">
			<stop  offset="0" style="stop-color:#3D7D1B"/>
			<stop  offset="1" style="stop-color:#72E237"/>
		</linearGradient>
		<path style="fill-rule:evenodd;clip-rule:evenodd;fill:url(#SVGID_29_);" d="M85.25,68.05c-0.001-0.371,0.199-0.671,0.6-0.9
			c0.467-0.267,0.917-0.25,1.351,0.05c0.167,0.133,0.25,0.433,0.25,0.9c0,0.433-0.067,0.767-0.2,1c-0.133,0.3-0.4,0.517-0.8,0.65
			c-0.4,0.133-0.783,0.15-1.15,0.05c-0.866-0.233-1.183-0.9-0.95-2c0.233-0.1,0.466-0.083,0.7,0.05
			C85.139,67.909,85.206,67.976,85.25,68.05z"/>
		<linearGradient id="SVGID_30_" gradientUnits="userSpaceOnUse" x1="82.8252" y1="65.748" x2="86.9752" y2="65.748">
			<stop  offset="0" style="stop-color:#3D7D1B"/>
			<stop  offset="1" style="stop-color:#72E237"/>
		</linearGradient>
		<path style="fill-rule:evenodd;clip-rule:evenodd;fill:url(#SVGID_30_);" d="M83.55,66.4l-0.6-1.5c0.2-0.133,0.4-0.15,0.6-0.05
			c-0.267-0.9-0.4-1.367-0.4-1.4c-0.1-0.6,0.1-0.95,0.6-1.05c0.533-0.066,0.85,0.184,0.95,0.75c0.066,0.333,0.083,0.8,0.05,1.4
			c0.133-0.033,0.367-0.133,0.7-0.3c0.333-0.1,0.6-0.05,0.8,0.15c0.167,0.133,0.25,0.367,0.25,0.7c0,0.2-0.017,0.466-0.05,0.8
			l0.35,0.05c0.434,1.466,0.184,2.517-0.75,3.15H84.5c-0.7,0.066-1.217-0.4-1.55-1.4C82.617,66.667,82.816,66.233,83.55,66.4z"/>
		<path style="fill-rule:evenodd;clip-rule:evenodd;fill:#8A5240;" d="M83.7,68.1c-0.634-0.267-1-0.467-1.1-0.6
			c-0.1-0.1-0.167-0.267-0.2-0.5c-0.067-0.233-0.05-0.417,0.05-0.55c0.033-0.034,0.4-0.05,1.1-0.05c0.167,0,0.483,0.1,0.95,0.3
			c0.4,0.167,0.983,0.716,1.75,1.65l-0.1,0.5c-0.134-0.133-0.518-0.25-1.15-0.35L83.7,68.1z"/>
		<path style="fill-rule:evenodd;clip-rule:evenodd;fill:#8A5240;" d="M86.35,68.475V67.35c0-0.633,0.134-1.233,0.4-1.8
			c0.167-0.433,0.316-0.667,0.45-0.7c0.566-0.233,0.85,0,0.85,0.7c0.067,0.4-0.2,0.9-0.8,1.5
			C86.66,67.641,86.359,68.115,86.35,68.475z"/>
		<path style="fill-rule:evenodd;clip-rule:evenodd;fill:#8A5240;" d="M85,65.4l0.45,1c-1.067-0.367-1.833-0.7-2.3-1
			c-0.567-0.367-0.783-0.7-0.65-1c0.167-0.333,0.583-0.3,1.25,0.1C84.316,64.8,84.733,65.1,85,65.4z"/>
		<path style="fill-rule:evenodd;clip-rule:evenodd;fill:#8A5240;" d="M85.35,64.75l-0.05,0.5c-0.333-0.367-0.5-0.617-0.5-0.75v-0.6
			c0-0.367,0-0.566,0-0.6c0.067-0.233,0.2-0.383,0.4-0.45c0.433-0.167,0.633,0.066,0.6,0.7C85.733,64.15,85.583,64.55,85.35,64.75z"
			/>
		<path style="fill-rule:evenodd;clip-rule:evenodd;fill:#8A5240;" d="M83.65,62.5l0.75,1.55c-0.6-0.2-1.017-0.383-1.25-0.55
			c-0.6-0.533-0.917-1.033-0.95-1.5c-0.034-0.467,0.216-0.633,0.75-0.5C83.417,61.6,83.65,61.934,83.65,62.5z"/>
		<path style="fill-rule:evenodd;clip-rule:evenodd;fill:#683D2F;" d="M83.1,61.9h0.55c0.034,0.133,0.167,0.5,0.4,1.1
			c0.233,0.467,0.317,0.816,0.25,1.05c-0.2,0.034-0.433-0.05-0.7-0.25c-0.2-0.2-0.35-0.4-0.45-0.6c-0.133-0.2-0.183-0.417-0.15-0.65
			C83.066,62.283,83.1,62.066,83.1,61.9z"/>
		<path style="fill-rule:evenodd;clip-rule:evenodd;fill:#683D2F;" d="M84.9,65.25l0.55,0.9v0.25
			c-0.233,0.067-0.517-0.183-0.85-0.75l-0.5-0.55c-0.3-0.2-0.5-0.367-0.6-0.5C84.233,64.733,84.7,64.95,84.9,65.25z"/>
		<path style="fill-rule:evenodd;clip-rule:evenodd;fill:#683D2F;" d="M85.65,63.5l-0.2,0.3v1.25c0,0.167-0.067,0.4-0.2,0.7
			c0,0.267-0.017,0.417-0.05,0.45c-0.3-0.333-0.367-0.767-0.2-1.3C85.233,64.033,85.45,63.566,85.65,63.5z"/>
		<path style="fill-rule:evenodd;clip-rule:evenodd;fill:#683D2F;" d="M87.6,65.75l0.551-0.1c0,0.267-0.117,0.534-0.351,0.8
			c-0.333,0.333-0.566,0.566-0.7,0.7c-0.166,0.3-0.3,0.534-0.399,0.7c-0.233,0.3-0.483,0.4-0.75,0.3c-0.033-0.433,0.167-0.9,0.6-1.4
			C87.05,66.15,87.4,65.816,87.6,65.75z"/>
		<path style="fill-rule:evenodd;clip-rule:evenodd;fill:#683D2F;" d="M85.75,67.75l0.3,0.65c-0.433,0.034-0.883-0.167-1.35-0.6
			c-0.467-0.466-0.617-0.866-0.45-1.2c0.267,0.033,0.6,0.167,1,0.4C85.65,67.267,85.816,67.517,85.75,67.75z"/>
		<path style="fill-rule:evenodd;clip-rule:evenodd;fill:#D98269;" d="M87.2,65.05l0.3,0.1c-0.133,0.4-0.267,0.684-0.4,0.85
			c-0.232,0.333-0.449,0.5-0.649,0.5c0.1-0.333,0.183-0.617,0.25-0.85C86.833,65.25,87,65.05,87.2,65.05z"/>
		<path style="fill-rule:evenodd;clip-rule:evenodd;fill:#D98269;" d="M82.95,66.6l0.8,0.15c0,0.3-0.017,0.483-0.05,0.55
			c-0.067,0.1-0.25,0.134-0.55,0.1c-0.333-0.033-0.55-0.167-0.65-0.4C82.367,66.767,82.517,66.633,82.95,66.6z"/>
		<path style="fill-rule:evenodd;clip-rule:evenodd;fill:#D98269;" d="M82.7,64.3l0.65,0.2c0.066,0.066,0.066,0.25,0,0.55
			c-0.333,0.034-0.583-0.017-0.75-0.15C82.4,64.767,82.434,64.566,82.7,64.3z"/>
		<path style="fill-rule:evenodd;clip-rule:evenodd;fill:#D98269;" d="M82.3,61.8l0.4-0.05c0.133,0.066,0.116,0.217-0.05,0.45
			c-0.167,0.066-0.35,0.066-0.55,0C82,61.934,82.066,61.8,82.3,61.8z"/>
		<path style="fill-rule:evenodd;clip-rule:evenodd;fill:#D98269;" d="M85.1,65.15l0.351,0.35c0.366,0.066,0.5,0.4,0.399,1
			c-0.666,0.066-1.017-0.066-1.05-0.4c0-0.1,0.05-0.25,0.15-0.45C85.083,65.45,85.133,65.283,85.1,65.15z"/>
		<path style="fill-rule:evenodd;clip-rule:evenodd;fill:#356808;" d="M102,98.95c-2.566-3.733-5.05-5.95-7.45-6.65
			c-0.733-0.233-1.417-0.3-2.05-0.2l-0.75,0.25l0.8-0.3c0.634-0.233,1.184-0.35,1.65-0.35c0.767,0,1.417,0.083,1.95,0.25
			c0.8,0.3,1.55,0.833,2.25,1.6C99.434,94.684,100.633,96.483,102,98.95z"/>
		<path style="fill-rule:evenodd;clip-rule:evenodd;fill:#356808;" d="M101.3,109.9c-0.3-1.268-1.083-2.283-2.35-3.051
			c-0.767-0.467-1.517-0.783-2.25-0.949l-0.9-0.15l2.4,0.35C99.9,106.7,100.934,107.967,101.3,109.9z"/>
		<path style="fill-rule:evenodd;clip-rule:evenodd;fill:#356808;" d="M108.9,119.8c-3.934,1.4-8.067,2.101-12.4,2.101l-3.75-0.351
			l2.05-0.2c1.634-0.166,3.167-0.267,4.601-0.3C101.7,120.95,104.867,120.533,108.9,119.8z"/>
		<path style="fill-rule:evenodd;clip-rule:evenodd;fill:#356808;" d="M93.85,124l-2.5-0.7l-0.6-1.25L90.9,122
			c0.1-0.033,0.25-0.017,0.449,0.05c0.634,0.167,1.434,0.45,2.4,0.851c1.533,0.666,2.6,1.35,3.2,2.05
			c0.967,1.066,2.5,3.017,4.6,5.85C98.684,127.4,96.117,125.133,93.85,124z"/>
		<path style="fill-rule:evenodd;clip-rule:evenodd;fill:#356808;" d="M65.25,124.2l2.55-2.15c2.167-1.433,4.4-2.2,6.7-2.3
			c3.733-0.133,6.267-0.033,7.6,0.3l-0.15,0.851c-1.434-0.4-3.217-0.567-5.35-0.5C72.4,120.533,68.617,121.8,65.25,124.2z"/>
		<path style="fill-rule:evenodd;clip-rule:evenodd;fill:#356808;" d="M91.75,119.2c-0.633,0.133-1.55,0.2-2.75,0.2l1.2-1.601
			c-0.134,0.367,0.333,0.601,1.399,0.7c0.301,0.033,1.018,0.05,2.15,0.05c-0.267,0.033-0.6,0.134-1,0.3
			C92.25,119.05,91.917,119.167,91.75,119.2z"/>
		<path style="fill-rule:evenodd;clip-rule:evenodd;fill:#356808;" d="M84.55,115.65l1.3,0.649c-1.166-0.033-2.017,0-2.55,0.101
			c-0.033,0-0.35,0.166-0.95,0.5c-0.467,0.232-0.784,0.283-0.95,0.149c0.8-0.5,1.167-0.883,1.1-1.149
			c-0.967,0.066-1.667,0.05-2.1-0.051c0.1-0.066,0.517-0.1,1.25-0.1C82.917,115.75,83.883,115.717,84.55,115.65z"/>
		<path style="fill-rule:evenodd;clip-rule:evenodd;fill:#356808;" d="M87.25,89.3l0.2-0.899c-0.033,0.3-0.017,0.616,0.05,0.949
			c0.066,0.434,0.233,0.634,0.5,0.601l0.45,0.6c-0.333,0-0.767-0.05-1.3-0.149c-0.7-0.101-1.134-0.167-1.301-0.2
			c-0.899,0-1.416-0.117-1.55-0.351c1.2,0.134,1.8,0.051,1.8-0.25c-0.533-0.366-0.85-0.6-0.949-0.699
			c-0.7-0.634-1.184-1.367-1.45-2.2c0.1,0.066,0.65,0.6,1.649,1.6C86.117,89.066,86.75,89.4,87.25,89.3z"/>
		<path style="fill-rule:evenodd;clip-rule:evenodd;fill:#356808;" d="M89.6,84.7c0.9-0.9,1.634-1.784,2.2-2.65
			c0,0.434-0.183,0.934-0.55,1.5c-0.434,0.6-0.75,1.05-0.95,1.35c-0.483,0.797-1.116,1.573-1.899,2.325
			c0.009,0.209,0.025,0.483,0.05,0.825h-1c0.339-0.275,0.656-0.55,0.95-0.825c0-0.087,0-0.162,0-0.225c0-0.467,0.05-0.833,0.149-1.1
			C88.684,85.6,89.033,85.2,89.6,84.7z"/>
		<path style="fill-rule:evenodd;clip-rule:evenodd;fill:#356808;" d="M88,77.55l-0.25,0.35c-0.367,0.034-0.733-0.017-1.1-0.15
			c-0.434-0.167-0.601-0.4-0.5-0.7C86.717,77.383,87.333,77.55,88,77.55z"/>
		<path style="fill-rule:evenodd;clip-rule:evenodd;fill:#356808;" d="M87.75,76.4c0.267-0.1,0.483-0.35,0.65-0.75
			c0.166-0.466,0.283-0.783,0.35-0.95c-0.033,0.333,0,0.816,0.1,1.45c0,0.5-0.232,0.917-0.699,1.25L87.75,76.4z"/>
		<path style="fill-rule:evenodd;clip-rule:evenodd;fill:#356808;" d="M78.65,98.2l0.6-1.3c0.566-0.934,1.283-1.667,2.15-2.2
			c0.833-0.533,1.75-0.767,2.75-0.7c0.534,0,1.05,0.066,1.55,0.2c-0.533-0.067-1.284,0.05-2.25,0.35
			C81.45,95.184,79.85,96.4,78.65,98.2z"/>
		<path style="fill-rule:evenodd;clip-rule:evenodd;fill:#356808;" d="M72,110c-0.1-3.9,1.283-6.05,4.15-6.45
			c1.433-0.2,2.883-0.017,4.35,0.55c-1.733-0.566-3.45-0.517-5.15,0.15c-1.067,0.434-1.95,1.517-2.65,3.25
			C72.367,108.367,72.133,109.2,72,110z"/>
		
			<linearGradient id="SVGID_31_" gradientUnits="userSpaceOnUse" x1="-136.0371" y1="87.082" x2="-118.3371" y2="87.082" gradientTransform="matrix(5.649717e-005 -1 1 -0.001 0 4.439838e-004)">
			<stop  offset="0" style="stop-color:#3D7D1B"/>
			<stop  offset="1" style="stop-color:#7CEC3F"/>
		</linearGradient>
		<path style="fill-rule:evenodd;clip-rule:evenodd;fill:url(#SVGID_31_);" d="M89.9,117.3c0.5,1.134,0.75,2.283,0.75,3.45
			c0,0.167,0.316,1.65,0.949,4.45c0.601,2.733,0.867,4.816,0.801,6.25c-0.101,1.566-0.9,2.383-2.4,2.45
			c-2-0.233-3.517-0.384-4.55-0.45c-1.534-0.067-2.567-0.8-3.1-2.2c-0.534-1.434-0.717-3.983-0.55-7.65
			c0.167-3.3,0.817-5.666,1.95-7.1c0.8-1.066,1.816-1.6,3.05-1.6C88.167,114.9,89.2,115.7,89.9,117.3z"/>
		<path style="fill-rule:evenodd;clip-rule:evenodd;fill:#356808;" d="M86.8,114.9c0.634,0.767,0.7,4.949,0.2,12.55
			c-0.566-2-0.9-4.101-1-6.3c-0.066-1.367,0.05-2.817,0.35-4.351L86.8,114.9z"/>
		<path style="fill-rule:evenodd;clip-rule:evenodd;fill:#85D543;" d="M83.3,125.95c0.167-0.2,0.417-0.4,0.75-0.601
			c0.1-0.033,0.35-0.116,0.75-0.25c0.333-0.1,0.517-0.217,0.55-0.35l0.2,0.25c0.033,0.267,0,0.65-0.1,1.15v0.449
			c-0.067,0.5-0.217,0.95-0.45,1.351c-0.4,0.566-0.733,0.866-1,0.899c-0.7,0.101-1.1-0.133-1.2-0.699
			C82.633,127.283,82.8,126.55,83.3,125.95z"/>
		<path style="fill-rule:evenodd;clip-rule:evenodd;fill:#8FE449;" d="M84.3,121.85h0.8c-0.033,0.233-0.133,0.584-0.3,1.051
			c0,0.232-0.066,0.482-0.2,0.75c-0.6,0.933-1.217,1.217-1.85,0.85c-0.233-0.133-0.333-0.4-0.3-0.8
			c0.033-0.367,0.116-0.65,0.25-0.851C83.2,122.15,83.733,121.816,84.3,121.85z"/>
		<path style="fill-rule:evenodd;clip-rule:evenodd;fill:#A3F565;" d="M84.4,118l0.8,0.4c0.033,0.199-0.017,0.383-0.15,0.55
			c-0.167,0.2-0.283,0.35-0.35,0.45l-0.35,0.6c-0.6,0.733-1,0.816-1.2,0.25C82.95,119.684,83.367,118.934,84.4,118z"/>
		<path style="fill-rule:evenodd;clip-rule:evenodd;fill:#A3F565;" d="M84.8,115.75l1.55-0.2c-0.133,0.067-0.482,0.367-1.05,0.9
			c-0.467,0.399-0.883,0.566-1.25,0.5c-0.066-0.233-0.033-0.483,0.1-0.75C84.316,115.967,84.533,115.816,84.8,115.75z"/>
		<path style="fill-rule:evenodd;clip-rule:evenodd;fill:#A3F565;" d="M87.6,115.65l0.65,0.1c0.566,0.267,0.85,0.7,0.85,1.3
			c0,0.233-0.017,0.384-0.05,0.45c-0.033,0.1-0.167,0.1-0.399,0c-0.367-0.167-0.684-0.434-0.95-0.8
			C87.4,116.267,87.367,115.917,87.6,115.65z"/>
		<path style="fill-rule:evenodd;clip-rule:evenodd;fill:#A3F565;" d="M88.15,118.75l0.699,0.5c0.2,0.167,0.351,0.434,0.45,0.8
			c0.134,0.434,0.134,0.75,0,0.95c-0.267,0.367-0.633,0.316-1.1-0.15C87.367,119.717,87.35,119.017,88.15,118.75z"/>
		<path style="fill-rule:evenodd;clip-rule:evenodd;fill:#8FE449;" d="M89.85,123c0.268,0.2,0.434,0.417,0.5,0.65
			c0.067,0.133,0.101,0.333,0.101,0.6c0,0.566-0.317,0.783-0.95,0.65c-0.3-0.067-0.617-0.301-0.95-0.7
			c-0.3-0.467-0.517-0.783-0.649-0.95c-0.434-0.6-0.25-0.983,0.55-1.15l0.649,0.4C89.133,122.533,89.383,122.7,89.85,123z"/>
		<path style="fill-rule:evenodd;clip-rule:evenodd;fill:#85D543;" d="M90.25,126.15c0.233,0.267,0.367,0.6,0.4,1
			c0.066,0.399,0.033,0.8-0.101,1.199c-0.066,0.2-0.233,0.5-0.5,0.9c-0.533-0.033-0.933-0.217-1.2-0.55
			c-0.1-0.134-0.333-0.533-0.699-1.2c-0.301-0.6-0.45-1.283-0.45-2.05l1.5,0.149C89.633,125.633,89.983,125.816,90.25,126.15z"/>
		<path style="fill-rule:evenodd;clip-rule:evenodd;fill:#93EF4B;" d="M78.85,128.65c-0.1,0.199-0.133,0.482-0.1,0.85
			c0,0.4-0.017,0.684-0.05,0.85l-0.25,1.101c-0.067,0.533-0.2,0.899-0.4,1.1c-0.533,0.533-0.917,0.634-1.15,0.3
			c-0.067-0.133-0.083-0.383-0.05-0.75c0.033-0.3,0-0.5-0.1-0.6c-0.2,0.2-0.35,0.35-0.45,0.45c-0.233,0.2-0.433,0.316-0.6,0.35
			c-0.034-0.233,0.116-0.767,0.45-1.6l0.85-2c0.267-0.634,0.483-1.05,0.65-1.25c0.433-0.7,0.667-1.067,0.7-1.101
			c0.566-0.833,1.05-1.3,1.45-1.399l1.55-0.601c-0.233,0.167-0.417,0.5-0.55,1c-0.1,0.301-0.2,0.7-0.3,1.2
			c-0.066,0.134-0.184,0.634-0.35,1.5c-0.1,0.7-0.25,1.083-0.45,1.15C79.4,129.3,79.117,129.117,78.85,128.65z"/>
		<path style="fill-rule:evenodd;clip-rule:evenodd;fill:#93EF4B;" d="M74.9,133.7l0.3-0.601c0.366,2.4,0.216,3.384-0.45,2.95
			c-0.1-0.066-0.15-0.366-0.15-0.899C74.6,134.85,74.7,134.367,74.9,133.7z"/>
		<path style="fill-rule:evenodd;clip-rule:evenodd;fill:#93EF4B;" d="M66.9,123l1.85-0.9c0.434-0.267,1.017-0.482,1.75-0.649
			c0.4-0.101,1.017-0.25,1.85-0.45l1.25-0.25c1-0.066,1.75-0.066,2.25,0c-0.133,0.2-0.467,0.333-1,0.4c-0.6,0-1,0.017-1.2,0.05
			c-0.367,0.033-0.883,0.2-1.55,0.5c-0.4,0.133-0.967,0.533-1.7,1.2c-0.466,0.467-0.883,0.666-1.25,0.6v-0.2
			c-0.6,1.167-1.317,1.7-2.15,1.601v-0.25c-0.3-0.101-1,0.3-2.1,1.199c-1.133,0.733-1.966,1.317-2.5,1.75c0-0.3,0.417-0.8,1.25-1.5
			l1.45-1.35c0.2-0.133,0.566-0.383,1.1-0.75C66.633,123.633,66.867,123.3,66.9,123z"/>
		<path style="fill-rule:evenodd;clip-rule:evenodd;fill:#93EF4B;" d="M98.9,127.25c-0.301-0.233-0.768-0.783-1.4-1.65l-0.475-0.925
			c0.06,0.079,0.168,0.171,0.324,0.275l1.5,1c0.101,0.1,0.283,0.217,0.551,0.35c0.199,0.167,0.333,0.317,0.399,0.45
			c-0.233-0.033-0.316,0.033-0.25,0.2c0.033,0.133,0.117,0.233,0.25,0.3c0.2,0.1,0.517,0.233,0.95,0.4
			c0.367,0.166,0.617,0.366,0.75,0.6c-0.3,0.033-0.483,0.1-0.55,0.2c-0.067,0.1,0.033,0.233,0.3,0.399
			c0.133,0.067,0.316,0.167,0.55,0.301c0.667,0.566,1.083,1.033,1.25,1.399c0.101,0.267,0.05,0.434-0.149,0.5
			c-0.167,0.033-0.384-0.033-0.65-0.2l-0.65-0.8c-1.433-1.566-2.416-2.8-2.949-3.7L98.9,127.25z"/>
		<path style="fill-rule:evenodd;clip-rule:evenodd;fill:#93EF4B;" d="M95.15,126.45l0.6-0.45c0.033,0.434,0,1.017-0.1,1.75
			c-0.167,0.934-0.417,1.383-0.75,1.35c-0.033-0.366-0.018-0.8,0.05-1.3C95.05,127.2,95.117,126.75,95.15,126.45z"/>
		<path style="fill-rule:evenodd;clip-rule:evenodd;fill:#93EF4B;" d="M97.2,128.2l0.75,1.25c0,0.967-0.033,1.7-0.101,2.2
			c0,0.232-0.066,0.583-0.199,1.05c-0.233,0.267-0.45,0.2-0.65-0.2c-0.133-0.2-0.2-0.733-0.2-1.6v-1.5
			C96.833,129.033,96.967,128.633,97.2,128.2z"/>
		<path style="fill-rule:evenodd;clip-rule:evenodd;fill:#93EF4B;" d="M100,130.6l0.25,0.101c0.133,1.533,0.15,2.683,0.05,3.45
			c-0.033,0.399-0.083,0.616-0.149,0.649c-0.101,0.067-0.233,0.101-0.4,0.101c-0.167-0.033-0.283-0.101-0.35-0.2
			c-0.033-0.033-0.051-0.317-0.051-0.851L99.3,132.4c0.033-0.4,0.083-0.733,0.15-1C99.55,130.9,99.733,130.633,100,130.6z"/>
		<path style="fill-rule:evenodd;clip-rule:evenodd;fill:#93EF4B;" d="M101.5,133.2l1,0.399c0.2,0.367,0.333,0.884,0.4,1.551
			c0.1,0.767-0.067,1.05-0.5,0.85c-0.367-0.133-0.667-0.7-0.9-1.7V133.2z"/>
		<path style="fill-rule:evenodd;clip-rule:evenodd;fill:#93EF4B;" d="M95.45,118.25l-0.101,0.3c-0.866,1-1.783,1.583-2.75,1.75
			c-0.267,0.033-0.55,0.017-0.85-0.05c-0.4-0.066-0.583-0.2-0.55-0.4c0.033-0.166,0.366-0.3,1-0.399c0.366-0.033,0.8-0.083,1.3-0.15
			C94.367,119.033,95.017,118.684,95.45,118.25z"/>
		<path style="fill-rule:evenodd;clip-rule:evenodd;fill:#93EF4B;" d="M93.15,118.15c-0.667,0-1.051,0-1.15,0
			c-0.467-0.101-0.733-0.317-0.8-0.65c0.2-0.133,0.85-0.117,1.95,0.05c1.1,0.167,1.767,0.25,2,0.25L93.15,118.15z"/>
		<path style="fill-rule:evenodd;clip-rule:evenodd;fill:#93EF4B;" d="M79.9,116.25l1.65,0.5c-0.8,0.033-1.5,0.05-2.1,0.05
			c-1.167-0.033-1.684-0.183-1.55-0.45c0.167-0.033,0.433-0.05,0.8-0.05C78.967,116.3,79.367,116.283,79.9,116.25z"/>
		<path style="fill-rule:evenodd;clip-rule:evenodd;fill:#82DD38;" d="M73.55,106.45l0.75-0.4c0.2,0.267,0.3,0.817,0.3,1.65
			c0,0.133,0.017,0.417,0.05,0.85c0,0.367-0.117,0.567-0.35,0.601c-0.467,0.033-0.733-0.334-0.8-1.101
			C73.533,107.184,73.55,106.65,73.55,106.45z"/>
		<path style="fill-rule:evenodd;clip-rule:evenodd;fill:#82DD38;" d="M75.65,104.6l0.5,0.25c0.133,0.167,0.167,0.483,0.1,0.95
			c-0.1,0.467-0.267,0.717-0.5,0.75c-0.2,0.033-0.3-0.05-0.3-0.25c0-0.233,0-0.399,0-0.5c-0.034-0.267-0.05-0.483-0.05-0.649
			C75.434,104.816,75.517,104.633,75.65,104.6z"/>
		<path style="fill-rule:evenodd;clip-rule:evenodd;fill:#82DD38;" d="M77.9,104.45l0.45,0.1c0,0.667-0.2,0.884-0.6,0.65
			c-0.1-0.067-0.133-0.2-0.1-0.4C77.684,104.6,77.767,104.483,77.9,104.45z"/>
		<path style="fill-rule:evenodd;clip-rule:evenodd;fill:#82DD38;" d="M71.65,105.95l0.65,0.1c-0.533,0.434-0.917,0.733-1.15,0.9
			c-0.2,0.133-0.35,0.233-0.45,0.3c-0.2,0.133-0.367,0.167-0.5,0.1c-0.067-0.399,0.066-0.699,0.4-0.899
			C70.8,106.316,71.15,106.15,71.65,105.95z"/>
		<path style="fill-rule:evenodd;clip-rule:evenodd;fill:#82DD38;" d="M71.05,108.4l-0.3,0.399c-0.267,0.733-0.434,1.134-0.5,1.2
			c-0.3,0.5-0.667,0.7-1.1,0.6c-0.067-0.5,0.117-0.933,0.55-1.3C69.967,109.1,70.417,108.8,71.05,108.4z"/>
		<path style="fill-rule:evenodd;clip-rule:evenodd;fill:#82DD38;" d="M79.95,97.7l0.3,0.399c0.667,0.5,0.8,1.117,0.4,1.851
			c-0.367,0.066-0.733,0.066-1.1,0c-0.066-0.367-0.083-0.767-0.05-1.2C79.533,98.217,79.684,97.867,79.95,97.7z"/>
		<path style="fill-rule:evenodd;clip-rule:evenodd;fill:#82DD38;" d="M81.4,96.1l0.55,0.101c0.433,0.133,0.667,0.366,0.7,0.7
			c0,0.199-0.05,0.5-0.15,0.899c-0.6,0.067-1.017,0.033-1.25-0.1c-0.233-0.134-0.333-0.4-0.3-0.8
			C80.983,96.533,81.133,96.267,81.4,96.1z"/>
		<path style="fill-rule:evenodd;clip-rule:evenodd;fill:#82DD38;" d="M84,94.7h1.55c0,0.433-0.383,0.783-1.15,1.05
			c-0.733,0.233-1.3,0.217-1.7-0.05c0.133-0.367,0.267-0.601,0.4-0.7S83.533,94.8,84,94.7z"/>
		<path style="fill-rule:evenodd;clip-rule:evenodd;fill:#82DD38;" d="M80.25,93.95l1.7,0.149c-0.833,0.634-1.934,0.867-3.3,0.7
			C78.816,94.533,79.35,94.25,80.25,93.95z"/>
		<path style="fill-rule:evenodd;clip-rule:evenodd;fill:#82DD38;" d="M94.65,92.7L95.35,92.6c1.434,1.2,2.167,1.817,2.2,1.851
			c0.833,0.833,1.2,1.616,1.101,2.35c-0.567,0.134-1.167-0.066-1.801-0.6c-0.267-0.267-0.683-0.767-1.25-1.5
			c-0.467-0.567-0.732-0.867-0.8-0.9c-0.566-0.167-0.967-0.316-1.2-0.45c-0.333-0.267-0.316-0.449,0.051-0.55
			C93.917,92.7,94.25,92.667,94.65,92.7z"/>
		<path style="fill-rule:evenodd;clip-rule:evenodd;fill:#82DD38;" d="M97.4,92.7l-0.45-0.75l0.75,0.1
			c0.467,0.367,1.167,0.917,2.1,1.65c0.767,0.633,1.351,1.267,1.75,1.899c0.267,0.334,0.367,0.75,0.3,1.25
			c-0.399,0.067-0.883-0.199-1.449-0.8c-0.567-0.7-0.95-1.149-1.15-1.35c-0.467-0.4-0.816-0.717-1.05-0.95
			C97.7,93.316,97.434,92.967,97.4,92.7z"/>
		<path style="fill-rule:evenodd;clip-rule:evenodd;fill:#82DD38;" d="M83.25,85.35c0.133,0.1,0.333,0.25,0.6,0.45l3.3,1.75
			c0.033,0.167-0.033,0.417-0.2,0.75c-0.367-0.066-0.634-0.149-0.8-0.25c-0.134-0.066-0.301-0.2-0.5-0.399
			c-0.233-0.233-0.4-0.384-0.5-0.45c-0.734-0.467-1.267-0.851-1.601-1.15c-0.233-0.167-0.417-0.3-0.55-0.4
			c-0.267-0.167-0.417-0.316-0.45-0.45C82.75,85.133,82.983,85.184,83.25,85.35z"/>
		<path style="fill-rule:evenodd;clip-rule:evenodd;fill:#82DD38;" d="M83.4,87.3l0.3,1.25c-0.034,0.333-0.267,0.4-0.7,0.2
			c-0.4-0.2-0.65-0.4-0.75-0.6c-0.267-0.467-0.3-0.983-0.1-1.551L83.4,87.3z"/>
		<path style="fill-rule:evenodd;clip-rule:evenodd;fill:#82DD38;" d="M91.2,80.4l0.85-0.1c-0.1,0.233-0.267,0.8-0.5,1.7
			c-0.267,0.733-0.717,1.033-1.35,0.9C90.1,82.033,90.434,81.2,91.2,80.4z"/>
	</g>
</g>
<g>
	<g>
		<path style="fill-rule:evenodd;clip-rule:evenodd;fill:#ECF8BD;" d="M52.2,39.75c-0.767,0-1.367-0.25-1.8-0.75
			c-0.367-0.434-0.55-0.967-0.55-1.6s0.2-1.167,0.6-1.6c0.466-0.5,1.05-0.75,1.75-0.75H57c0.7,0,1.267,0.233,1.7,0.7
			c0.4,0.434,0.6,1,0.6,1.7V56.8c0,0.833-0.25,1.483-0.75,1.95c-0.467,0.467-1.066,0.7-1.8,0.7c-0.767,0-1.383-0.233-1.85-0.7
			c-0.466-0.467-0.7-1.117-0.7-1.95V39.75H52.2z"/>
		
			<linearGradient id="SVGID_32_" gradientUnits="userSpaceOnUse" x1="-59.4419" y1="54.5771" x2="-34.4669" y2="54.5771" gradientTransform="matrix(4.004004e-005 -1 1 -0.001 -1.024090e-004 4.449275e-004)">
			<stop  offset="0" style="stop-color:#4A2805"/>
			<stop  offset="0.1529" style="stop-color:#4A2805"/>
			<stop  offset="0.2471" style="stop-color:#502905"/>
			<stop  offset="0.3765" style="stop-color:#622B07"/>
			<stop  offset="0.5333" style="stop-color:#80300B"/>
			<stop  offset="0.7059" style="stop-color:#AA3510"/>
			<stop  offset="0.8902" style="stop-color:#DE3C16"/>
			<stop  offset="0.8941" style="stop-color:#E03C16"/>
			<stop  offset="1" style="stop-color:#E03C16"/>
		</linearGradient>
		<path style="fill-rule:evenodd;clip-rule:evenodd;fill:url(#SVGID_32_);" d="M58.7,34.6c0.4,0.433,0.6,1,0.6,1.7v19.35
			c0,0.833-0.25,1.483-0.75,1.95c-0.467,0.466-1.066,0.7-1.8,0.7c-0.767,0-1.383-0.233-1.85-0.7c-0.466-0.467-0.7-1.117-0.7-1.95
			V38.6h-2c-0.767,0-1.367-0.25-1.8-0.75c-0.367-0.434-0.55-0.967-0.55-1.6s0.2-1.167,0.6-1.6c0.466-0.5,1.05-0.75,1.75-0.75H57
			C57.7,33.9,58.267,34.133,58.7,34.6z"/>
	</g>
	<g>
		<path style="fill-rule:evenodd;clip-rule:evenodd;fill:#ECF8BD;" d="M109.9,43.15c0,0.967,0.267,1.784,0.8,2.45
			c0.6,0.733,1.417,1.1,2.45,1.1c0.933,0,1.699-0.333,2.3-1c0.6-0.7,0.899-1.55,0.899-2.55s-0.283-1.833-0.85-2.5
			c-0.6-0.7-1.383-1.05-2.35-1.05s-1.75,0.35-2.351,1.05C110.2,41.316,109.9,42.15,109.9,43.15z M119.35,37.25
			c1.533,1.6,2.301,3.566,2.301,5.9s-1,5.167-3,8.5c-1.7,2.8-3.567,5.15-5.601,7.05l-1.1,0.8c-0.267,0.167-0.601,0.25-1,0.25
			c-0.533,0-1.067-0.267-1.601-0.8c-0.566-0.534-0.85-1.1-0.85-1.7c0-0.333,0.25-0.8,0.75-1.4c0.3-0.367,1.1-1.267,2.4-2.7
			c1.066-1.2,1.816-2.1,2.25-2.7l-0.051-0.1c-0.533,0.267-1.25,0.4-2.149,0.4c-2,0-3.684-0.767-5.05-2.3
			c-1.367-1.5-2.051-3.267-2.051-5.3c0-2.267,0.801-4.216,2.4-5.85c1.633-1.7,3.684-2.55,6.15-2.55
			C115.684,34.75,117.75,35.583,119.35,37.25z"/>
		
			<linearGradient id="SVGID_33_" gradientUnits="userSpaceOnUse" x1="-59.6133" y1="113.127" x2="-34.6157" y2="113.127" gradientTransform="matrix(4.000000e-005 -1 1 -0.001 6.127130e-005 4.449275e-004)">
			<stop  offset="0" style="stop-color:#4A2805"/>
			<stop  offset="0.1529" style="stop-color:#4A2805"/>
			<stop  offset="0.2471" style="stop-color:#502905"/>
			<stop  offset="0.3765" style="stop-color:#622B07"/>
			<stop  offset="0.5333" style="stop-color:#80300B"/>
			<stop  offset="0.7059" style="stop-color:#AA3510"/>
			<stop  offset="0.8902" style="stop-color:#DE3C16"/>
			<stop  offset="0.8941" style="stop-color:#E03C16"/>
			<stop  offset="1" style="stop-color:#E03C16"/>
		</linearGradient>
		<path style="fill-rule:evenodd;clip-rule:evenodd;fill:url(#SVGID_33_);" d="M109.9,42.05c0,0.967,0.267,1.784,0.8,2.45
			c0.6,0.7,1.417,1.05,2.45,1.05c0.933,0,1.699-0.333,2.3-1c0.6-0.667,0.899-1.5,0.899-2.5s-0.283-1.833-0.85-2.5
			c-0.6-0.7-1.383-1.05-2.35-1.05s-1.75,0.35-2.351,1.05C110.2,40.217,109.9,41.05,109.9,42.05z M119.35,36.1
			c1.533,1.633,2.301,3.617,2.301,5.95c0,2.333-1,5.15-3,8.45c-1.7,2.8-3.567,5.15-5.601,7.05c-0.066,0.067-0.433,0.35-1.1,0.85
			c-0.267,0.133-0.601,0.2-1,0.2c-0.533,0-1.067-0.25-1.601-0.75c-0.566-0.567-0.85-1.133-0.85-1.7c0-0.367,0.25-0.833,0.75-1.4
			c0.367-0.434,1.167-1.35,2.4-2.75c1.1-1.2,1.85-2.1,2.25-2.7l-0.051-0.05c-0.633,0.267-1.35,0.4-2.149,0.4
			c-2,0-3.684-0.767-5.05-2.3c-1.367-1.5-2.051-3.267-2.051-5.3c0-2.3,0.801-4.267,2.4-5.9c1.633-1.7,3.684-2.55,6.15-2.55
			C115.684,33.6,117.75,34.434,119.35,36.1z"/>
	</g>
	<g>
		<path style="fill-rule:evenodd;clip-rule:evenodd;fill:#ECF8BD;" d="M79,38.9c1.3,2.267,1.95,5.05,1.95,8.35S80.3,53.333,79,55.6
			c-1.6,2.767-3.967,4.15-7.1,4.15s-5.483-1.383-7.05-4.15c-1.3-2.267-1.95-5.05-1.95-8.35s0.65-6.083,1.95-8.35
			c1.566-2.767,3.917-4.15,7.05-4.15S77.4,36.133,79,38.9z M75.6,47.25c0-5.267-1.233-7.9-3.7-7.9c-2.466,0-3.7,2.633-3.7,7.9
			s1.233,7.9,3.7,7.9C74.367,55.15,75.6,52.517,75.6,47.25z"/>
		
			<linearGradient id="SVGID_34_" gradientUnits="userSpaceOnUse" x1="-59.5718" y1="71.9277" x2="-34.5718" y2="71.9277" gradientTransform="matrix(4.000000e-005 -1 1 -0.001 6.127130e-005 4.449275e-004)">
			<stop  offset="0" style="stop-color:#4A2805"/>
			<stop  offset="0.1529" style="stop-color:#4A2805"/>
			<stop  offset="0.2471" style="stop-color:#502905"/>
			<stop  offset="0.3765" style="stop-color:#622B07"/>
			<stop  offset="0.5333" style="stop-color:#80300B"/>
			<stop  offset="0.7059" style="stop-color:#AA3510"/>
			<stop  offset="0.8902" style="stop-color:#DE3C16"/>
			<stop  offset="0.8941" style="stop-color:#E03C16"/>
			<stop  offset="1" style="stop-color:#E03C16"/>
		</linearGradient>
		<path style="fill-rule:evenodd;clip-rule:evenodd;fill:url(#SVGID_34_);" d="M79,37.75c1.3,2.267,1.95,5.05,1.95,8.35
			c0,3.3-0.65,6.083-1.95,8.35c-1.6,2.767-3.967,4.15-7.1,4.15s-5.483-1.383-7.05-4.15c-1.3-2.267-1.95-5.05-1.95-8.35
			c0-3.3,0.65-6.083,1.95-8.35c1.566-2.767,3.917-4.15,7.05-4.15S77.4,34.983,79,37.75z M75.6,46.1c0-5.267-1.233-7.9-3.7-7.9
			c-2.466,0-3.7,2.633-3.7,7.9s1.233,7.9,3.7,7.9C74.367,54,75.6,51.367,75.6,46.1z"/>
	</g>
	<g>
		<path style="fill-rule:evenodd;clip-rule:evenodd;fill:#ECF8BD;" d="M96.3,47.25c0-5.267-1.233-7.9-3.7-7.9
			s-3.699,2.633-3.699,7.9s1.232,7.9,3.699,7.9S96.3,52.517,96.3,47.25z M92.6,59.75c-3.133,0-5.482-1.383-7.05-4.15
			c-1.3-2.267-1.95-5.05-1.95-8.35s0.65-6.083,1.95-8.35c1.567-2.767,3.917-4.15,7.05-4.15c3.134,0,5.5,1.383,7.101,4.15
			c1.267,2.233,1.899,5.017,1.899,8.35s-0.633,6.117-1.899,8.35C98.1,58.367,95.733,59.75,92.6,59.75z"/>
		
			<linearGradient id="SVGID_35_" gradientUnits="userSpaceOnUse" x1="-59.5928" y1="92.6025" x2="-34.5928" y2="92.6025" gradientTransform="matrix(4.000000e-005 -1 1 -0.001 6.127130e-005 4.449275e-004)">
			<stop  offset="0" style="stop-color:#4A2805"/>
			<stop  offset="0.1529" style="stop-color:#4A2805"/>
			<stop  offset="0.2471" style="stop-color:#502905"/>
			<stop  offset="0.3765" style="stop-color:#622B07"/>
			<stop  offset="0.5333" style="stop-color:#80300B"/>
			<stop  offset="0.7059" style="stop-color:#AA3510"/>
			<stop  offset="0.8902" style="stop-color:#DE3C16"/>
			<stop  offset="0.8941" style="stop-color:#E03C16"/>
			<stop  offset="1" style="stop-color:#E03C16"/>
		</linearGradient>
		<path style="fill-rule:evenodd;clip-rule:evenodd;fill:url(#SVGID_35_);" d="M96.3,46.1c0-5.267-1.233-7.9-3.7-7.9
			S88.9,40.833,88.9,46.1S90.133,54,92.6,54S96.3,51.367,96.3,46.1z M92.6,58.6c-3.133,0-5.482-1.383-7.05-4.15
			c-1.3-2.267-1.95-5.05-1.95-8.35c0-3.3,0.65-6.083,1.95-8.35c1.567-2.767,3.917-4.15,7.05-4.15c3.134,0,5.5,1.383,7.101,4.15
			c1.267,2.233,1.899,5.017,1.899,8.35s-0.633,6.117-1.899,8.35C98.1,57.217,95.733,58.6,92.6,58.6z"/>
	</g>
</g>
<g>
	<g>
		<g>
			<g>
				<g>
					<g>
						<linearGradient id="SVGID_36_" gradientUnits="userSpaceOnUse" x1="43.2627" y1="78.4482" x2="60.4377" y2="78.4482">
							<stop  offset="0.1098" style="stop-color:#C39616"/>
							<stop  offset="0.9647" style="stop-color:#DEEA89"/>
						</linearGradient>
						<path style="fill-rule:evenodd;clip-rule:evenodd;fill:url(#SVGID_36_);" d="M56,70.4c0.633,0.367,1.133,0.883,1.5,1.55
							c0.367,0.633,0.533,1.316,0.5,2.05l-0.1,1.25l1,0.8c1.3,0.967,1.784,2.25,1.45,3.85c-0.133,0.8-0.534,1.5-1.2,2.1
							c-0.466,0.434-1,0.717-1.6,0.85l-1.2,0.35l-0.45,1.15c-0.2,0.6-0.533,1.133-1,1.6c-0.633,0.566-1.367,0.899-2.2,1h-0.6
							c-0.567,0-1.133-0.15-1.7-0.45c-0.6-0.333-1.067-0.767-1.4-1.3l-0.7-1.05L47,84.1c-0.733-0.034-1.4-0.25-2-0.65
							c-0.633-0.4-1.1-0.934-1.4-1.6c-0.667-1.467-0.483-2.817,0.55-4.05l0.75-1l-0.35-1.2c-0.2-0.7-0.2-1.4,0-2.1
							c0.2-0.733,0.567-1.35,1.1-1.85c0.8-0.733,1.733-1.083,2.8-1.05c0.6,0.066,1.017,0.15,1.25,0.25l1.15,0.45l1.05-0.7
							c0.733-0.467,1.517-0.684,2.35-0.65c0.6,0,1.167,0.15,1.7,0.45H56z"/>
						<path style="fill-rule:evenodd;clip-rule:evenodd;fill:none;stroke:#ECF8BD;stroke-width:0.25;" d="M56,70.4
							c0.633,0.367,1.133,0.883,1.5,1.55c0.367,0.633,0.533,1.316,0.5,2.05l-0.1,1.25l1,0.8c1.3,0.967,1.784,2.25,1.45,3.85
							c-0.133,0.8-0.534,1.5-1.2,2.1c-0.466,0.434-1,0.717-1.6,0.85l-1.2,0.35l-0.45,1.15c-0.2,0.6-0.533,1.133-1,1.6
							c-0.633,0.566-1.367,0.899-2.2,1h-0.6c-0.567,0-1.133-0.15-1.7-0.45c-0.6-0.333-1.067-0.767-1.4-1.3l-0.7-1.05L47,84.1
							c-0.733-0.034-1.4-0.25-2-0.65c-0.633-0.4-1.1-0.934-1.4-1.6c-0.667-1.467-0.483-2.817,0.55-4.05l0.75-1l-0.35-1.2
							c-0.2-0.7-0.2-1.4,0-2.1c0.2-0.733,0.567-1.35,1.1-1.85c0.8-0.733,1.733-1.083,2.8-1.05c0.6,0.066,1.017,0.15,1.25,0.25
							l1.15,0.45l1.05-0.7c0.733-0.467,1.517-0.684,2.35-0.65c0.6,0,1.167,0.15,1.7,0.45H56z"/>
					</g>
				</g>
				<path style="fill-rule:evenodd;clip-rule:evenodd;fill:#22480E;" d="M48.9,72.95l2.25,0.85l2-1.35c0.6-0.4,1.183-0.434,1.75-0.1
					c0.633,0.3,0.917,0.816,0.85,1.55l-0.1,2.4l1.9,1.5c0.533,0.4,0.75,0.95,0.65,1.65c-0.1,0.366-0.267,0.667-0.5,0.9
					c-0.134,0.133-0.367,0.267-0.7,0.4l-2.35,0.6l-0.85,2.3c-0.066,0.267-0.2,0.483-0.4,0.65c-0.3,0.267-0.617,0.417-0.95,0.45
					c-0.7,0.1-1.233-0.15-1.6-0.75l-1.35-2.05l-2.4-0.05c-0.667,0-1.167-0.316-1.5-0.95c-0.267-0.667-0.184-1.267,0.25-1.8l1.5-1.85
					l-0.65-2.35c-0.2-0.634-0.05-1.2,0.45-1.7C47.684,72.783,48.267,72.684,48.9,72.95z"/>
				
					<linearGradient id="SVGID_37_" gradientUnits="userSpaceOnUse" x1="-49.5479" y1="82.4272" x2="-38.7214" y2="82.4272" gradientTransform="matrix(0.4711 -0.8821 0.8821 0.4711 -4.620254e-004 -1.087785e-004)">
					<stop  offset="0" style="stop-color:#EDBF35"/>
					<stop  offset="0.2941" style="stop-color:#F0CA31"/>
					<stop  offset="0.8039" style="stop-color:#F9E728"/>
					<stop  offset="0.9647" style="stop-color:#FCF226"/>
				</linearGradient>
				<path style="fill-rule:evenodd;clip-rule:evenodd;fill:url(#SVGID_37_);" d="M54.55,73c0.3,0.2,0.45,0.483,0.45,0.85l-0.15,2.85
					l2.25,1.7c0.3,0.233,0.4,0.534,0.3,0.9c0,0.167-0.083,0.333-0.25,0.5L56.8,80l-2.75,0.7l-0.95,2.7l-0.25,0.35L52.35,84
					c-0.367,0-0.65-0.15-0.85-0.45l-1.55-2.35l-2.85-0.1c-0.4,0-0.65-0.167-0.75-0.5c-0.167-0.3-0.133-0.617,0.1-0.95l1.8-2.2
					l-0.8-2.7c-0.1-0.367-0.017-0.667,0.25-0.9s0.566-0.3,0.9-0.2l2.65,1l2.35-1.6C53.967,72.883,54.283,72.867,54.55,73z"/>
				<path style="fill-rule:evenodd;clip-rule:evenodd;fill:#F5FAD7;" d="M54.55,73c0.3,0.2,0.45,0.483,0.45,0.85l-0.15,2.85
					l2.25,1.7c0.3,0.233,0.4,0.534,0.3,0.9c0,0.167-0.083,0.333-0.25,0.5L56.8,80h-0.05l0.15-0.3c0.067-0.367-0.05-0.667-0.35-0.9
					l-2.25-1.7l0.15-2.85c0-0.367-0.15-0.65-0.45-0.85c-0.333-0.167-0.65-0.15-0.95,0.05l-2.35,1.6l-2.65-1L47.55,74l0.15-0.15
					c0.267-0.233,0.566-0.3,0.9-0.2l2.65,1l2.35-1.6C53.967,72.883,54.283,72.867,54.55,73z"/>
			</g>
		</g>
	</g>
	<g>
		<g>
			<g>
				<g>
					<g>
						<linearGradient id="SVGID_38_" gradientUnits="userSpaceOnUse" x1="114.4775" y1="79.3696" x2="131.6275" y2="79.3696">
							<stop  offset="0.1098" style="stop-color:#C39616"/>
							<stop  offset="0.9647" style="stop-color:#DEEA89"/>
						</linearGradient>
						<path style="fill-rule:evenodd;clip-rule:evenodd;fill:url(#SVGID_38_);" d="M130.8,78.7c0.967,1.233,1.134,2.6,0.5,4.1
							c-0.3,0.634-0.767,1.167-1.399,1.6c-0.601,0.4-1.268,0.617-2,0.65H126.6L125.9,86.1c-0.334,0.5-0.801,0.95-1.4,1.351
							c-0.566,0.267-1.133,0.417-1.7,0.45l-0.6-0.051c-0.867-0.1-1.583-0.433-2.15-1c-0.5-0.399-0.85-0.916-1.05-1.55l-0.4-1.2
							l-1.25-0.3c-0.533-0.133-1.066-0.433-1.6-0.9c-0.633-0.533-1.033-1.233-1.2-2.1c-0.133-0.733-0.083-1.45,0.15-2.15
							c0.267-0.7,0.7-1.267,1.3-1.7l1-0.75l-0.05-1.25c-0.101-1.6,0.55-2.8,1.95-3.6l0.1-0.05c0.5-0.233,1.05-0.383,1.65-0.45
							c0.899-0.067,1.683,0.167,2.35,0.7l1.05,0.7l1.2-0.45c0.434-0.167,0.833-0.25,1.2-0.25c1.1-0.066,2.033,0.267,2.8,1
							c0.533,0.5,0.9,1.117,1.1,1.85c0.2,0.7,0.2,1.4,0,2.1L130,77.7L130.8,78.7z"/>
						<path style="fill-rule:evenodd;clip-rule:evenodd;fill:none;stroke:#ECF8BD;stroke-width:0.25;" d="M130.8,78.7
							c0.967,1.233,1.134,2.6,0.5,4.1c-0.3,0.634-0.767,1.167-1.399,1.6c-0.601,0.4-1.268,0.617-2,0.65H126.6L125.9,86.1
							c-0.334,0.5-0.801,0.95-1.4,1.351c-0.566,0.267-1.133,0.417-1.7,0.45l-0.6-0.051c-0.867-0.1-1.583-0.433-2.15-1
							c-0.5-0.399-0.85-0.916-1.05-1.55l-0.4-1.2l-1.25-0.3c-0.533-0.133-1.066-0.433-1.6-0.9c-0.633-0.533-1.033-1.233-1.2-2.1
							c-0.133-0.733-0.083-1.45,0.15-2.15c0.267-0.7,0.7-1.267,1.3-1.7l1-0.75l-0.05-1.25c-0.101-1.6,0.55-2.8,1.95-3.6l0.1-0.05
							c0.5-0.233,1.05-0.383,1.65-0.45c0.899-0.067,1.683,0.167,2.35,0.7l1.05,0.7l1.2-0.45c0.434-0.167,0.833-0.25,1.2-0.25
							c1.1-0.066,2.033,0.267,2.8,1c0.533,0.5,0.9,1.117,1.1,1.85c0.2,0.7,0.2,1.4,0,2.1L130,77.7L130.8,78.7z"/>
					</g>
				</g>
				<path style="fill-rule:evenodd;clip-rule:evenodd;fill:#22480E;" d="M119.15,74.8c-0.067-0.667,0.217-1.183,0.85-1.55
					c0.566-0.333,1.15-0.3,1.75,0.1l2,1.35l2.25-0.85c0.667-0.267,1.25-0.15,1.75,0.35c0.5,0.433,0.667,1,0.5,1.7l-0.7,2.3l1.5,1.9
					c0.434,0.533,0.517,1.117,0.25,1.75c-0.3,0.633-0.783,0.95-1.45,0.95l-2.449,0.1l-1.351,2c-0.366,0.6-0.899,0.867-1.6,0.8
					c-0.333-0.034-0.634-0.184-0.9-0.45s-0.417-0.5-0.45-0.7l-0.85-2.25l-2.3-0.65c-0.233-0.033-0.467-0.167-0.7-0.4
					c-0.233-0.167-0.417-0.467-0.55-0.9c-0.101-0.667,0.116-1.217,0.649-1.65l1.9-1.45L119.15,74.8z"/>
				<linearGradient id="SVGID_39_" gradientUnits="userSpaceOnUse" x1="127.8584" y1="81.1025" x2="117.9334" y2="76.7775">
					<stop  offset="0" style="stop-color:#EDBF35"/>
					<stop  offset="0.2941" style="stop-color:#F0CA31"/>
					<stop  offset="0.8039" style="stop-color:#F9E728"/>
					<stop  offset="0.9647" style="stop-color:#FCF226"/>
				</linearGradient>
				<path style="fill-rule:evenodd;clip-rule:evenodd;fill:url(#SVGID_39_);" d="M117.8,79.35l2.25-1.75l-0.149-2.8
					c0-0.4,0.149-0.683,0.449-0.85c0.367-0.167,0.684-0.15,0.95,0.05l2.351,1.6l2.649-1c0.367-0.167,0.684-0.117,0.95,0.15
					c0.233,0.3,0.3,0.6,0.2,0.9l-0.75,2.75l1.75,2.2c0.2,0.267,0.25,0.566,0.149,0.9c-0.166,0.367-0.433,0.55-0.8,0.55l-2.85,0.05
					l-1.55,2.4c-0.2,0.333-0.483,0.467-0.851,0.4c-0.167,0-0.333-0.083-0.5-0.25l-0.25-0.35l-0.95-2.65l-2.699-0.75l-0.4-0.2
					c-0.167-0.167-0.25-0.333-0.25-0.5C117.4,79.867,117.5,79.583,117.8,79.35z"/>
				<path style="fill-rule:evenodd;clip-rule:evenodd;fill:#F5FAD7;" d="M117.8,79.35l2.25-1.75l-0.149-2.8
					c0-0.4,0.149-0.683,0.449-0.85c0.367-0.167,0.684-0.15,0.95,0.05l2.351,1.6l2.649-1c0.367-0.167,0.684-0.117,0.95,0.15l0.1,0.2
					c-0.199-0.067-0.366-0.05-0.5,0.05l-2.649,1l-2.351-1.6c-0.3-0.2-0.616-0.216-0.949-0.05c-0.301,0.167-0.45,0.433-0.45,0.8
					L120.6,78l-2.25,1.75c-0.3,0.233-0.399,0.517-0.3,0.85l0.101,0.3l-0.4-0.2c-0.167-0.167-0.25-0.333-0.25-0.5
					C117.4,79.867,117.5,79.583,117.8,79.35z"/>
			</g>
		</g>
	</g>
</g>
<g>
	
		<use xlink:href="#FlashAICB_x2F_Layer_36_copy_11_x2F__x3C_Path_x3E__x5F_2"  width="118.7" height="57.1" y="-57.1" transform="matrix(1 0 0 -1 26.5 86.4502)" style="overflow:visible;opacity:0.2813;enable-background:new    ;"/>
	
		<use xlink:href="#FlashAICB_x2F_Layer_36_copy_11_x2F__x3C_Path_x3E__x5F_1"  width="110" height="55.75" y="-55.75" transform="matrix(1 0 0 -1 30.6499 27.6499)" style="overflow:visible;opacity:0.1094;enable-background:new    ;"/>
	
		<use xlink:href="#FlashAICB_x2F_Layer_36_copy_11_x2F__x3C_Path_x3E_"  width="110" height="61.294" y="-61.294" transform="matrix(1 0 0 -1 30.6499 27.6499)" style="overflow:visible;opacity:0.0898;enable-background:new    ;"/>
</g>
</svg>
