<?xml version="1.0" encoding="iso-8859-1"?>
<!-- Generator: Adobe Illustrator 15.1.0, SVG Export Plug-In . SVG Version: 6.00 Build 0)  -->
<!DOCTYPE svg PUBLIC "-//W3C//DTD SVG 1.1//EN" "http://www.w3.org/Graphics/SVG/1.1/DTD/svg11.dtd">
<svg version="1.1" id="Layer_1" xmlns="http://www.w3.org/2000/svg" xmlns:xlink="http://www.w3.org/1999/xlink" x="0px" y="0px"
	 width="171.75px" height="171.8px" viewBox="0 0 171.75 171.8" style="enable-background:new 0 0 171.75 171.8;"
	 xml:space="preserve">
<symbol  id="FlashAICB_x2F_Layer_1_x2F__x3C_Path_x3E_" viewBox="0 -66.434 119.2 66.434">
	<g id="Layer_1_3_">
		<path style="fill-rule:evenodd;clip-rule:evenodd;fill:#FFFFFF;" d="M115.4-37.25c2.533-6.1,3.8-11.85,3.8-17.25
			c0-5.367-1.567-8.75-4.7-10.15c-2.533-1.133-6.783-1.117-12.75,0.05c-7.9,1.9-14.217,3.367-18.95,4.4
			c-8.667,1.833-16.4,2.75-23.2,2.75c-6.867,0-14.6-1-23.2-3c-9.033-2.367-15.35-3.966-18.95-4.8c-6-1.367-10.25-1.55-12.75-0.55
			C1.567-64.533,0-61.217,0-55.85c0,5.967,1.267,12.117,3.8,18.45c2.667,6.7,6.434,12.733,11.3,18.1C26.7-6.433,41.533,0,59.6,0
			c17.833,0,32.65-6.5,44.45-19.5C108.883-24.833,112.667-30.75,115.4-37.25z"/>
	</g>
</symbol>
<symbol  id="FlashAICB_x2F_Layer_1_x2F__x3C_Path_x3E__x5F_0" viewBox="0 -61.85 128.6 61.85">
	<g id="Layer_1_4_">
		
			<radialGradient id="SVGID_1_" cx="64.2998" cy="-30.9248" r="50.4522" gradientTransform="matrix(1 0 0 -1 0 -61.8496)" gradientUnits="userSpaceOnUse">
			<stop  offset="0" style="stop-color:#CCEFE7;stop-opacity:0"/>
			<stop  offset="0.0667" style="stop-color:#C7E4E0;stop-opacity:0.051"/>
			<stop  offset="0.1804" style="stop-color:#BCC7CD;stop-opacity:0.1882"/>
			<stop  offset="0.3294" style="stop-color:#A999AF;stop-opacity:0.4118"/>
			<stop  offset="0.5059" style="stop-color:#905885;stop-opacity:0.7176"/>
			<stop  offset="0.651" style="stop-color:#7A1960"/>
		</radialGradient>
		<path style="fill-rule:evenodd;clip-rule:evenodd;fill:url(#SVGID_1_);" d="M128.05-0.25L128.6,0
			c-0.633-17.2-7.167-31.8-19.6-43.8C96.5-55.833,81.583-61.85,64.25-61.85c-17.033,0-31.733,5.817-44.1,17.45
			C7.783-32.833,1.067-18.633,0-1.8c4.967-12.967,13.183-23.467,24.65-31.5c11.7-8.2,24.717-12.3,39.05-12.3
			c14.667,0,27.917,4.25,39.75,12.75C115.05-24.517,123.25-13.65,128.05-0.25z"/>
	</g>
</symbol>
<symbol  id="FlashAICB_x2F_Layer_1_x2F__x3C_Path_x3E__x5F_1" viewBox="0 -60.45 119.2 60.45">
	<g id="Layer_1_2_">
		
			<linearGradient id="SVGID_2_" gradientUnits="userSpaceOnUse" x1="16160.585" y1="-58.4668" x2="16220.9756" y2="-58.4668" gradientTransform="matrix(1.654944e-005 1 -1 -0.001 0.8657 -16221.1064)">
			<stop  offset="0.1294" style="stop-color:#E2B8B2"/>
			<stop  offset="0.9255" style="stop-color:#FFFFFF"/>
		</linearGradient>
		<path style="fill-rule:evenodd;clip-rule:evenodd;fill:url(#SVGID_2_);" d="M104.05-19.5c4.833-5.333,8.617-11.25,11.35-17.75
			c2.533-6.1,3.8-11.85,3.8-17.25c0-1.833-0.184-3.433-0.55-4.8c-2,11.966-7.85,22.6-17.55,31.9c-11.434,11-25.267,16.5-41.5,16.5
			c-16.533,0-30.45-5.483-41.75-16.45c-9.733-9.433-15.533-20.467-17.4-33.1C0.15-59.15,0-57.617,0-55.85
			c0,5.967,1.267,12.117,3.8,18.45c2.667,6.7,6.434,12.733,11.3,18.1C26.7-6.433,41.533,0,59.6,0C77.433,0,92.25-6.5,104.05-19.5z"
			/>
	</g>
</symbol>
<g>
	<path style="fill-rule:evenodd;clip-rule:evenodd;fill:#FFFFFF;" d="M146.55,25.2c7.934,7.933,14.084,17.033,18.45,27.3
		c4.5,10.633,6.75,21.767,6.75,33.4s-2.25,22.767-6.75,33.4c-4.366,10.267-10.517,19.367-18.45,27.3
		c-7.934,7.934-17.033,14.084-27.3,18.45c-10.634,4.5-21.767,6.75-33.4,6.75c-11.633,0-22.766-2.25-33.399-6.75
		c-10.267-4.366-19.367-10.517-27.3-18.45c-7.9-7.933-14.033-17.033-18.4-27.3C2.25,108.667,0,97.533,0,85.9s2.25-22.767,6.75-33.4
		c4.367-10.267,10.5-19.367,18.4-27.3c7.934-7.934,17.033-14.083,27.3-18.45C63.083,2.25,74.217,0,85.85,0
		c11.634,0,22.767,2.25,33.4,6.75C129.517,11.117,138.616,17.267,146.55,25.2z"/>
	<g>
		<g>
			
				<linearGradient id="SVGID_3_" gradientUnits="userSpaceOnUse" x1="-157.6851" y1="85.8506" x2="-14.2856" y2="85.8506" gradientTransform="matrix(6.973501e-006 -1 1 -0.001 -1.064519e-004 4.449275e-004)">
				<stop  offset="0.0745" style="stop-color:#B85E97"/>
				<stop  offset="0.2667" style="stop-color:#D167A8"/>
				<stop  offset="0.5333" style="stop-color:#F976C5"/>
				<stop  offset="1" style="stop-color:#F8EFD5"/>
			</linearGradient>
			<path style="fill-rule:evenodd;clip-rule:evenodd;fill:url(#SVGID_3_);" d="M151.9,58c3.767,8.9,5.649,18.2,5.649,27.9
				s-1.883,19-5.649,27.9c-3.634,8.566-8.75,16.167-15.351,22.8c-6.633,6.601-14.233,11.717-22.8,15.351
				c-8.9,3.767-18.2,5.649-27.9,5.649c-9.7,0-19-1.883-27.899-5.649c-8.567-3.634-16.167-8.75-22.8-15.351
				c-6.6-6.633-11.717-14.233-15.35-22.8c-3.767-8.899-5.65-18.2-5.65-27.9s1.883-19,5.65-27.9c3.633-8.567,8.75-16.167,15.35-22.8
				c6.633-6.6,14.233-11.717,22.8-15.35c8.9-3.767,18.2-5.65,27.899-5.65c9.7,0,19,1.883,27.9,5.65
				c8.566,3.633,16.167,8.75,22.8,15.35C143.15,41.833,148.267,49.433,151.9,58z"/>
			<path style="fill-rule:evenodd;clip-rule:evenodd;fill:#630F50;" d="M151.1,113.45c3.7-8.767,5.551-17.95,5.551-27.55
				S154.8,67.117,151.1,58.35c-3.6-8.467-8.666-15.967-15.199-22.5C122.1,22.017,105.417,15.1,85.85,15.1
				c-19.533,0-36.216,6.917-50.05,20.75C21.967,49.683,15.05,66.367,15.05,85.9c0,19.567,6.917,36.25,20.75,50.05
				c6.534,6.533,14.034,11.6,22.5,15.2c8.767,3.699,17.95,5.55,27.55,5.55c9.601,0,18.784-1.851,27.551-5.55
				c8.466-3.601,15.966-8.667,22.5-15.2C142.434,129.417,147.5,121.917,151.1,113.45z M137.2,34.55
				c6.866,6.867,12.116,14.717,15.75,23.55c3.666,8.833,5.5,18.1,5.5,27.8s-1.834,18.966-5.5,27.8
				c-3.634,8.866-8.884,16.717-15.75,23.55c-6.867,6.866-14.717,12.116-23.55,15.75c-8.834,3.667-18.101,5.5-27.801,5.5
				c-9.7,0-18.966-1.833-27.8-5.5c-8.833-3.634-16.683-8.884-23.55-15.75c-6.833-6.833-12.083-14.684-15.75-23.55
				c-3.667-8.834-5.5-18.101-5.5-27.8s1.833-18.967,5.5-27.8c3.633-8.833,8.883-16.684,15.75-23.55
				c6.867-6.833,14.717-12.083,23.55-15.75c8.833-3.667,18.1-5.5,27.8-5.5c9.7,0,18.967,1.833,27.801,5.5
				C122.483,22.433,130.333,27.683,137.2,34.55z"/>
		</g>
		
			<radialGradient id="SVGID_4_" cx="85.8496" cy="83.5747" r="64.3377" gradientTransform="matrix(1 0 0 -1 0 167.1494)" gradientUnits="userSpaceOnUse">
			<stop  offset="0.1059" style="stop-color:#F8EFD5"/>
			<stop  offset="0.5882" style="stop-color:#FA8BC5"/>
			<stop  offset="0.7098" style="stop-color:#F789C3;stop-opacity:0.9686"/>
			<stop  offset="0.8039" style="stop-color:#ED82BC;stop-opacity:0.8706"/>
			<stop  offset="0.8824" style="stop-color:#DE78B1;stop-opacity:0.7059"/>
			<stop  offset="0.9608" style="stop-color:#C768A2;stop-opacity:0.4745"/>
			<stop  offset="1" style="stop-color:#B85E97;stop-opacity:0.3176"/>
		</radialGradient>
		<path style="fill-rule:evenodd;clip-rule:evenodd;fill:url(#SVGID_4_);" d="M131.4,38.15c12.566,12.567,18.85,27.717,18.85,45.45
			c0,17.733-6.283,32.883-18.85,45.45c-12.601,12.533-27.784,18.8-45.551,18.8c-17.8,0-32.983-6.267-45.55-18.8
			c-12.566-12.533-18.85-27.684-18.85-45.45c0-17.767,6.283-32.917,18.85-45.45C52.867,25.583,68.05,19.3,85.85,19.3
			C103.616,19.3,118.8,25.583,131.4,38.15z"/>
		<g>
			<path style="fill-rule:evenodd;clip-rule:evenodd;fill:#F7E0E7;" d="M93.9,65.9c0.199,1.033,0.233,2.033,0.1,3l0.65,0.3
				c0.933-0.167,2.05-0.25,3.35-0.25l0.45-0.5c0-0.567,0.033-1,0.1-1.3c0.267-1.9,1.117-3.483,2.55-4.75
				c1.467-1.267,3.167-1.9,5.101-1.9l1.149,0.1c2.101,0.267,3.801,1.25,5.101,2.95c1.3,1.667,1.816,3.583,1.55,5.75
				c-0.233,1.8-1.017,3.317-2.35,4.55c-1.267,1.233-2.801,1.933-4.601,2.1c3.8,2.133,6.5,5.183,8.101,9.15l0.55,1.6l0.05,0.1
				l0.05,0.3l0.3,1.051l0.25,1.649V89.9l0.15,1.699v0.051l0.05,0.35l-0.149,3.4l-1.4,6.25l-0.4,1.149c-0.5,2.9-1.533,5.5-3.1,7.8
				l0.05,1.25c1.101,1.5,1.384,3.184,0.851,5.051c-0.367,1.3-1.117,2.399-2.25,3.3l-0.7,1.95c-1.033,2.633-2.684,4.949-4.95,6.949
				c0.467,1.233,0.417,2.45-0.15,3.65c-1.3,2.7-3.283,4.05-5.949,4.05c-1.434,0-2.917-0.483-4.45-1.45
				c0,1.167-0.384,2.217-1.15,3.15c-1.633,1.9-3.5,2.85-5.6,2.85c-2.633,0-4.883-1.466-6.75-4.399l-0.75-1.25
				c-1.2-0.267-2.333-0.834-3.4-1.7c-0.3-0.2-0.75-0.566-1.35-1.1c-0.1,0.333-0.233,0.6-0.4,0.8c-1.433,2.267-3.333,3.399-5.7,3.399
				c-2.2,0-4.233-1.066-6.1-3.199c-1-1.167-1.65-2.117-1.95-2.851c-0.533-1.2-0.55-2.5-0.05-3.899
				c0.167-0.467,0.383-0.851,0.65-1.15l-0.35-0.4l-1-1.35l-0.55-0.95l-0.1-0.1l-0.6-1.25l-0.7-2.05l-0.15-0.801
				c-0.733-1.267-1.2-2.533-1.4-3.8l-1.3,0.5c-0.967,0.434-1.967,0.5-3,0.2s-1.85-0.884-2.45-1.75
				c-0.466-0.733-0.716-1.517-0.75-2.35c-0.033-0.867,0.15-1.65,0.55-2.351c-0.233-1-0.15-1.967,0.25-2.899
				c0.433-0.967,1.117-1.684,2.05-2.15c0.167-0.7,0.434-1.283,0.8-1.75c-0.967-0.967-1.4-2.116-1.3-3.45
				c0.067-1.033,0.467-1.95,1.2-2.75c0.7-0.767,1.566-1.233,2.6-1.399c0.167,0,0.816-0.034,1.95-0.101
				c0.633-0.434,1.4-0.684,2.3-0.75l0.3-0.05c0.633,0,1.433,0.116,2.4,0.35c0.7-1,1.617-1.649,2.75-1.949l0.3-0.75
				c0.367-0.801,0.933-1.45,1.7-1.95c0.733-0.467,1.533-0.684,2.4-0.65c0.034-0.8,0.25-1.55,0.65-2.25c0.433-0.7,1-1.233,1.7-1.6
				l0.45-0.25c-0.5-1.034-0.6-2.083-0.3-3.15c0.4-1.333,1.217-2.283,2.45-2.85c-0.333-1.267-0.133-2.467,0.6-3.6
				c0.733-1.067,1.733-1.7,3-1.9c-0.833-1.1-1.4-2.333-1.7-3.7c-0.5-2.433-0.083-4.717,1.25-6.85c1.333-2.133,3.2-3.5,5.6-4.1
				c0.767-0.167,1.5-0.25,2.2-0.25c2.133,0,4.017,0.667,5.649,2C92.45,62.133,93.467,63.833,93.9,65.9z"/>
			<g>
				
					<linearGradient id="SVGID_5_" gradientUnits="userSpaceOnUse" x1="-140.4873" y1="82.7998" x2="-57.9351" y2="82.7998" gradientTransform="matrix(1.211754e-005 -1 1 -0.001 9.749057e-005 -4.842016e-005)">
					<stop  offset="0" style="stop-color:#CA2897"/>
					<stop  offset="0.1686" style="stop-color:#D148A0"/>
					<stop  offset="0.5255" style="stop-color:#E58FB7"/>
					<stop  offset="0.902" style="stop-color:#FDDDD1"/>
				</linearGradient>
				<path style="fill-rule:evenodd;clip-rule:evenodd;fill:url(#SVGID_5_);" d="M93.9,65c0.199,1.067,0.233,2.05,0.1,2.95l0.65,0.35
					c1.199-0.2,2.316-0.283,3.35-0.25l0.45-0.5c0-0.6,0.033-1.033,0.1-1.3c0.267-1.9,1.117-3.483,2.55-4.75
					c1.467-1.3,3.167-1.95,5.101-1.95l1.149,0.1c2.101,0.267,3.801,1.25,5.101,2.95c1.3,1.7,1.816,3.633,1.55,5.8
					c-0.233,1.767-1.017,3.267-2.35,4.5c-1.267,1.233-2.801,1.934-4.601,2.1c3.834,2.2,6.533,5.267,8.101,9.2l0.05,0.1l0.5,1.45
					l0.05,0.1l0.05,0.3l0.55,2.699v0.101l0.15,1.7v0.05l0.05,0.35l-0.25,4.05l-0.6,3.15l-0.05,0.15l-0.101,0.449l-0.95,3
					c-0.5,2.9-1.533,5.5-3.1,7.801l0.05,1.3c1.101,1.467,1.384,3.133,0.851,5c-0.4,1.366-1.15,2.467-2.25,3.3l-0.7,1.95
					c-1,2.566-2.65,4.899-4.95,7c0.467,1.2,0.417,2.416-0.15,3.649c-1.3,2.667-3.283,4-5.949,4c-1.5,0-2.983-0.483-4.45-1.449
					c0,1.166-0.384,2.216-1.15,3.149c-1.6,1.9-3.467,2.851-5.6,2.851c-2.667,0-4.917-1.467-6.75-4.4l-0.75-1.2
					c-1.1-0.233-2.233-0.8-3.4-1.7c-0.6-0.466-1.05-0.85-1.35-1.149c-0.1,0.333-0.233,0.6-0.4,0.8c-1.4,2.267-3.3,3.4-5.7,3.4
					c-2.233,0-4.267-1.067-6.1-3.2c-1-1.134-1.65-2.066-1.95-2.8c-0.533-1.233-0.55-2.551-0.05-3.95
					c0.2-0.434,0.417-0.816,0.65-1.15l-0.35-0.35l-0.1-0.2l-1.55-2.25L58.8,121l-0.45-1.25l-0.4-1.6
					c-0.733-1.233-1.2-2.483-1.4-3.75l-1.3,0.449c-0.967,0.434-1.967,0.5-3,0.2s-1.85-0.883-2.45-1.75
					c-0.466-0.733-0.716-1.517-0.75-2.35c-0.033-0.834,0.15-1.617,0.55-2.351c-0.233-1-0.15-1.966,0.25-2.899
					c0.433-0.967,1.117-1.684,2.05-2.15c0.167-0.666,0.434-1.25,0.8-1.75c-0.967-0.967-1.4-2.116-1.3-3.45
					c0.067-1.066,0.467-1.983,1.2-2.75c0.7-0.767,1.566-1.216,2.6-1.35c0.533-0.1,1.183-0.134,1.95-0.1
					c0.7-0.467,1.467-0.733,2.3-0.801h0.3c0.767,0,1.567,0.117,2.4,0.351c0.667-1.033,1.583-1.7,2.75-2l0.3-0.75
					c0.367-0.8,0.933-1.434,1.7-1.9c0.767-0.5,1.567-0.733,2.4-0.7c0.067-1.733,0.85-3.016,2.35-3.85l0.45-0.25
					c-0.5-1.033-0.6-2.083-0.3-3.15c0.4-1.333,1.217-2.283,2.45-2.85c-0.333-1.3-0.133-2.483,0.6-3.55c0.733-1.1,1.733-1.75,3-1.95
					c-0.833-1.1-1.4-2.333-1.7-3.7c-0.5-2.433-0.083-4.716,1.25-6.85c1.333-2.133,3.2-3.483,5.6-4.05c0.7-0.2,1.433-0.3,2.2-0.3
					c2.133,0,4.017,0.667,5.649,2C92.45,61.183,93.467,62.9,93.9,65z"/>
				<path style="fill-rule:evenodd;clip-rule:evenodd;fill:none;stroke:#F7E0E7;stroke-width:0.25;" d="M93.9,65
					c-0.434-2.1-1.45-3.817-3.051-5.15c-1.633-1.333-3.517-2-5.649-2c-0.767,0-1.5,0.1-2.2,0.3c-2.4,0.567-4.267,1.917-5.6,4.05
					c-1.333,2.133-1.75,4.417-1.25,6.85c0.3,1.367,0.867,2.6,1.7,3.7c-1.267,0.2-2.267,0.85-3,1.95
					c-0.733,1.066-0.934,2.25-0.6,3.55c-1.233,0.567-2.05,1.517-2.45,2.85c-0.3,1.066-0.2,2.117,0.3,3.15l-0.45,0.25
					c-1.5,0.833-2.283,2.116-2.35,3.85c-0.833-0.033-1.633,0.2-2.4,0.7c-0.767,0.467-1.333,1.101-1.7,1.9l-0.3,0.75
					c-1.167,0.3-2.083,0.967-2.75,2c-0.833-0.233-1.633-0.351-2.4-0.351h-0.3c-0.833,0.067-1.6,0.334-2.3,0.801
					c-0.767-0.034-1.417,0-1.95,0.1c-1.034,0.134-1.9,0.583-2.6,1.35c-0.733,0.767-1.133,1.684-1.2,2.75
					c-0.1,1.334,0.333,2.483,1.3,3.45c-0.367,0.5-0.633,1.084-0.8,1.75c-0.933,0.467-1.617,1.184-2.05,2.15
					c-0.4,0.934-0.483,1.899-0.25,2.899c-0.4,0.733-0.583,1.517-0.55,2.351c0.034,0.833,0.284,1.616,0.75,2.35
					c0.6,0.867,1.417,1.45,2.45,1.75s2.033,0.233,3-0.2l1.3-0.449c0.2,1.267,0.667,2.517,1.4,3.75l0.4,1.6L58.8,121l0.6,1.25
					l1.55,2.25l0.1,0.2l0.35,0.35c-0.233,0.334-0.45,0.717-0.65,1.15c-0.5,1.399-0.483,2.717,0.05,3.95
					c0.3,0.733,0.95,1.666,1.95,2.8c1.833,2.133,3.867,3.2,6.1,3.2c2.4,0,4.3-1.134,5.7-3.4c0.167-0.2,0.3-0.467,0.4-0.8
					c0.3,0.3,0.75,0.684,1.35,1.149c1.167,0.9,2.3,1.467,3.4,1.7l0.75,1.2c1.833,2.934,4.083,4.4,6.75,4.4c2.133,0,4-0.95,5.6-2.851
					c0.767-0.934,1.15-1.983,1.15-3.149c1.467,0.966,2.95,1.449,4.45,1.449c2.666,0,4.649-1.333,5.949-4
					c0.567-1.233,0.617-2.449,0.15-3.649c2.3-2.101,3.95-4.434,4.95-7l0.7-1.95c1.1-0.833,1.85-1.934,2.25-3.3
					c0.533-1.867,0.25-3.533-0.851-5l-0.05-1.3c1.566-2.301,2.6-4.9,3.1-7.801l0.95-3l0.101-0.449l0.05-0.15l0.6-3.15l0.25-4.05
					l-0.05-0.35v-0.05l-0.15-1.7V88.85l-0.55-2.699l-0.05-0.3l-0.05-0.1l-0.5-1.45l-0.05-0.1c-1.567-3.934-4.267-7-8.101-9.2
					c1.8-0.167,3.334-0.867,4.601-2.1c1.333-1.233,2.116-2.733,2.35-4.5c0.267-2.167-0.25-4.1-1.55-5.8c-1.3-1.7-3-2.684-5.101-2.95
					l-1.149-0.1c-1.934,0-3.634,0.65-5.101,1.95c-1.433,1.267-2.283,2.85-2.55,4.75c-0.066,0.267-0.1,0.7-0.1,1.3L98,68.05
					c-1.033-0.033-2.15,0.05-3.35,0.25L94,67.95C94.134,67.05,94.1,66.067,93.9,65z"/>
			</g>
			<path style="fill-rule:evenodd;clip-rule:evenodd;fill:#630F50;" d="M68.2,100.3l-0.7-0.25c-0.4-0.133-1.067-0.3-2-0.5
				c0.5,0.434,0.917,0.884,1.25,1.351L68.2,100.3z M92.8,76.3l1.5-0.25c1.566-0.2,2.75-0.283,3.55-0.25l1-2.25
				c-2.066,0.534-3.733,1.2-5,2L92.8,76.3z M83.9,61.75c0.4-0.1,0.833-0.15,1.3-0.15c1.233,0,2.316,0.383,3.25,1.15
				c0.967,0.767,1.566,1.767,1.8,3c0.3,1.433,0.05,2.8-0.75,4.1c-0.8,1.267-1.917,2.066-3.35,2.4l-0.2,0.05l0.2,0.9l0.449,1.15
				l-0.55,0.4l0.601-0.3l0.3,0.5l-0.5,0.5l0.6-0.4l0.351,0.5l0.05,0.1l0.3,0.35l0.05-0.25c0.4-1.333,1.217-2.45,2.45-3.35
				c0.634-0.433,1.25-0.767,1.85-1c0.367-0.133,0.634-0.033,0.801,0.3c0.233,0.333,0.199,0.617-0.101,0.85l-0.3,0.4
				c1.467-0.733,3.083-1.117,4.85-1.15c0.9-0.033,1.65,0.017,2.25,0.15L99.7,72c0.833-1.367,1.8-2.35,2.899-2.95
				c-0.333-0.733-0.449-1.5-0.35-2.3c0.167-1.1,0.684-1.983,1.55-2.65c0.9-0.667,1.9-0.917,3-0.75c1.066,0.167,1.967,0.683,2.7,1.55
				c0.7,0.9,0.967,1.9,0.8,3c-0.133,1.067-0.649,1.934-1.55,2.6c-0.9,0.7-1.917,0.967-3.05,0.8l-0.8-0.25
				c-0.934,1.367-1.483,2.65-1.65,3.85c-0.1,0.767-0.033,1.533,0.2,2.3l1.45,0.9c3.267,1.767,5.533,4.283,6.8,7.55l0.05,0.05
				l0.7,2.35l0.35,2.75v1.75l-0.45,3.65l-0.3,1.149v0.15l-1.05,3.45c-0.467,3.1-1.6,5.666-3.4,7.7c0.233,0.899,0.301,2.149,0.2,3.75
				l0.25,0.199c0.767,0.601,1.017,1.384,0.75,2.351c-0.267,0.934-0.866,1.533-1.8,1.8c-0.2,0.833-0.533,1.866-1,3.1
				c-1.233,3.067-3.45,5.567-6.65,7.5l-0.35,0.9c1.033,0.267,1.684,0.634,1.95,1.1c0.133,0.367,0.133,0.667,0,0.9
				c-0.601,1.233-1.45,1.85-2.55,1.85c-0.801,0-1.667-0.316-2.601-0.949c-0.666-0.4-1.1-0.7-1.3-0.9
				c-0.3-0.267-0.483-0.55-0.55-0.85c-1.033,0.199-2.15,0.267-3.351,0.199c-0.066,0.434-0.166,0.817-0.3,1.15
				c-0.333,0.767-0.883,1.434-1.649,2c0.866,0.5,1.366,0.983,1.5,1.45c0.1,0.3,0.033,0.616-0.2,0.95c-0.834,1-1.75,1.5-2.75,1.5
				c-1.3,0-2.483-0.867-3.55-2.601c-0.667-1.066-1.05-1.767-1.15-2.1c-0.133-0.434-0.05-0.917,0.25-1.45
				c0.233-0.4,0.65-0.6,1.25-0.6c0.2,0,0.633,0.066,1.3,0.199c0.533,0,0.967-0.183,1.3-0.55l0.25-0.45
				c-1.267-0.333-2.35-0.866-3.25-1.6l-0.4,0.1c0.133,0.101,0.25,0.25,0.35,0.45c0.167,0.367,0.184,0.684,0.05,0.95
				c-0.5,1.233-1.184,1.95-2.05,2.15c-0.867,0.199-1.85-0.134-2.95-1c-1.033-0.834-1.583-1.467-1.65-1.9
				c-2.133-0.1-4.1-0.467-5.9-1.1c-0.2,0.6-0.55,1.133-1.05,1.6c0.833,0.366,1.333,0.75,1.5,1.15c0.1,0.267,0.067,0.566-0.1,0.899
				c-0.667,1.066-1.517,1.601-2.55,1.601c-1.1,0-2.184-0.634-3.25-1.9c-0.733-0.866-1.167-1.434-1.3-1.7c-0.2-0.366-0.2-0.8,0-1.3
				c0.133-0.5,0.6-0.75,1.4-0.75c0.333,0,0.667,0.033,1,0.1l0.4,0.051c0.4,0,0.6-0.051,0.6-0.15c0.1-0.1,0.066-0.333-0.1-0.7
				l-0.2-0.7l-2.7-2.199c-0.367-0.367-0.617-0.65-0.75-0.851l-0.1-0.1l-1.2-1.8L62.3,119.6l-0.1-0.149l-0.3-0.9l-0.25-0.899
				l-0.15-0.801v-0.1c-1.2-1.6-1.6-3.6-1.2-6v-0.05c-0.233,0-0.433-0.117-0.6-0.351l-0.05-0.25c-0.467,0-1,0.034-1.6,0.101
				c-0.767,0.066-1.7,0.3-2.8,0.7c-0.967,0.366-1.467,0.55-1.5,0.55c-0.333,0.1-0.617,0.017-0.85-0.25
				c-0.2-0.334-0.167-0.634,0.1-0.9c0.233-0.233,0.55-0.5,0.95-0.8c0.767-0.566,1.566-1,2.4-1.3H54
				c-0.367,0.066-0.617-0.101-0.75-0.5c-0.1-0.4,0.033-0.667,0.4-0.8c0.1-0.101,0.5-0.25,1.2-0.45c0.967-0.3,1.917-0.434,2.85-0.4
				c-0.2-0.2-0.284-0.434-0.25-0.7L57.7,105l-1.35,0.2c-0.333,0.066-0.583-0.066-0.75-0.4c-0.133-0.366-0.067-0.649,0.2-0.85
				c0.333-0.267,0.767-0.533,1.3-0.8c1.033-0.534,2.117-0.867,3.25-1l1.05-0.051l-0.75-0.55c-0.733-0.566-1.783-1.116-3.15-1.649
				L55.65,99.3c-0.4-0.1-0.566-0.333-0.5-0.7c0-0.366,0.2-0.583,0.6-0.649l0.95-0.05c0.767,0,1.55,0.066,2.35,0.199l-0.1-0.399
				c0.066-0.4,0.3-0.601,0.7-0.601c0.033-0.033,0.3-0.017,0.8,0.051c0.6,0.1,1.216,0.267,1.85,0.5
				c0.934-0.233,1.983-0.351,3.15-0.351c1,0,1.816,0.084,2.45,0.25c-1.3-0.566-2.033-0.85-2.2-0.85
				c-0.367-0.134-0.517-0.384-0.45-0.75c0-0.334,0.2-0.533,0.6-0.601l2,0.051c1.566,0.199,2.983,0.649,4.25,1.35
				c-0.533-0.733-1.233-1.517-2.1-2.35l-1.2-1.051c-0.3-0.233-0.367-0.517-0.2-0.85c0.1-0.333,0.35-0.467,0.75-0.4
				c0.066,0.034,0.717,0.267,1.95,0.7c1.367,0.634,2.5,1.483,3.4,2.55c0.833-0.399,1.716-0.583,2.65-0.55
				c-0.567-0.467-1.3-0.883-2.2-1.25l-1.2-0.45c-0.4-0.1-0.567-0.333-0.5-0.699c0-0.367,0.167-0.584,0.5-0.65
				c0.1-0.1,0.55-0.15,1.35-0.15c1.8,0,3.35,0.617,4.65,1.851v-1.9c-0.767-0.633-1.583-1.184-2.45-1.649
				c-0.6-0.301-1.4-0.534-2.4-0.7c-0.867-0.066-1.317-0.101-1.35-0.101c-0.367,0-0.583-0.183-0.65-0.55
				c-0.1-0.333,0.017-0.583,0.35-0.75c0.1-0.1,0.417-0.233,0.95-0.399c0.733-0.267,1.467-0.4,2.2-0.4c1.133,0,2.167,0.316,3.1,0.95
				l0.65,0.5l0.05-0.3c-0.4-1.134-0.85-2.051-1.35-2.75c-0.333-0.467-0.883-0.967-1.65-1.5c-0.633-0.433-1.183-0.75-1.65-0.95
				c-0.333-0.167-0.45-0.45-0.35-0.85c0.1-0.333,0.35-0.5,0.75-0.5c0.333,0,0.883,0.1,1.65,0.3c1.167,0.3,2.15,0.717,2.95,1.25
				l-0.35-1.5c-0.2-0.8-0.65-1.7-1.35-2.7c-0.6-0.867-0.95-1.3-1.05-1.3c-0.2-0.267-0.217-0.566-0.05-0.9
				c0.2-0.267,0.483-0.35,0.85-0.25c0.034,0.033,0.417,0.217,1.15,0.55c0.8,0.5,1.483,1.067,2.05,1.7
				c-0.167-0.933-0.233-1.75-0.2-2.45c0.1-1.533,0.333-3.017,0.7-4.45c-1.433-0.7-2.333-1.883-2.7-3.55
				c-0.3-1.433-0.05-2.8,0.75-4.1C81.35,62.933,82.467,62.117,83.9,61.75z"/>
			<g>
				<path style="fill-rule:evenodd;clip-rule:evenodd;fill:#4E4817;" d="M79.55,120.15c0.7-0.034,1.15,0.216,1.35,0.75l0.4,0.85
					c0.233,0.733,0.367,1.483,0.4,2.25c0.033,1.233-0.317,2.35-1.05,3.35l1.3,0.351c0.8,0.333,1.133,0.684,1,1.05
					c-0.8,2-2.1,2.283-3.9,0.85c-0.733-0.566-1.167-0.949-1.3-1.149s-0.183-0.5-0.15-0.9c0.033-0.3,0.25-0.55,0.65-0.75l0.6-0.2
					c0.333-0.267,0.6-0.616,0.8-1.05c0.434-0.833,0.4-1.684-0.1-2.55c-0.333-0.6-0.517-1.217-0.55-1.85
					C79,120.517,79.183,120.184,79.55,120.15z"/>
				<path style="fill-rule:evenodd;clip-rule:evenodd;fill:#4E4817;" d="M96.45,122.45c0.767,0,1.25,0.217,1.45,0.649l0.449,0.75
					c0.301,0.667,0.467,1.317,0.5,1.95c0.067,1.066-0.267,2.033-1,2.9l1.351,0.35c0.866,0.3,1.233,0.601,1.1,0.9
					c-0.767,1.7-2.133,1.916-4.1,0.649c-0.767-0.5-1.233-0.85-1.4-1.05c-0.133-0.166-0.184-0.434-0.149-0.8
					c0-0.233,0.216-0.434,0.649-0.6c0.2-0.101,0.4-0.167,0.601-0.2c0.333-0.2,0.6-0.483,0.8-0.851
					c0.434-0.699,0.383-1.433-0.15-2.199c-0.366-0.567-0.583-1.101-0.649-1.601C95.866,122.733,96.05,122.45,96.45,122.45z"/>
				<path style="fill-rule:evenodd;clip-rule:evenodd;fill:#3BB6F9;" d="M102.55,74.8c-0.166,1.167,0.05,2.367,0.65,3.6
					c0.267,0.633,0.566,1.133,0.899,1.5c-1.866,0.133-3.116,0.117-3.75-0.05c-0.366-0.1-0.883-0.517-1.55-1.25l-0.85-1.1
					c0.3-1.033,0.916-2.45,1.85-4.25c0.8-1.6,1.8-2.767,3-3.5c0.566-0.367,1.066-0.567,1.5-0.6l1,0.2
					c-0.399,0.433-0.8,0.983-1.2,1.65C103.233,72.333,102.717,73.6,102.55,74.8z"/>
				<path style="fill-rule:evenodd;clip-rule:evenodd;fill:#4BFEFC;" d="M109.6,67.8c-0.133,0.9-0.566,1.617-1.3,2.15
					c-0.733,0.566-1.566,0.783-2.5,0.65c-0.899-0.167-1.633-0.6-2.2-1.3c-0.566-0.733-0.783-1.55-0.649-2.45
					c0.133-0.9,0.566-1.633,1.3-2.2c0.733-0.533,1.55-0.733,2.45-0.6c0.934,0.133,1.684,0.567,2.25,1.3S109.733,66.9,109.6,67.8z"/>
				<path style="fill-rule:evenodd;clip-rule:evenodd;fill:#FFFFFF;" d="M107.6,66.25c-0.033,0.4-0.216,0.717-0.55,0.95
					c-0.333,0.267-0.717,0.367-1.149,0.3c-0.4-0.067-0.717-0.267-0.95-0.6c-0.233-0.3-0.334-0.65-0.3-1.05
					c0.066-0.4,0.25-0.717,0.55-0.95c0.333-0.233,0.7-0.333,1.1-0.3c0.4,0.066,0.733,0.25,1,0.55
					C107.566,65.483,107.667,65.85,107.6,66.25z"/>
				<path style="fill-rule:evenodd;clip-rule:evenodd;fill:#706829;" d="M106.35,109.45c0.767,0.967,0.334,3.316-1.3,7.05
					c-1.899,4.4-4.733,7.75-8.5,10.05c-3.3,2.033-6.416,2.667-9.35,1.9l-3.45-1.75c-1.467,0.5-3.25,0.783-5.35,0.85
					c-4.233,0.134-7.933-0.916-11.1-3.149c-2.633-1.834-4.283-4.067-4.95-6.7l-0.15-3.45
					C90.934,110.217,105.65,108.616,106.35,109.45z"/>
				<path style="fill-rule:evenodd;clip-rule:evenodd;fill:#5A5620;" d="M79.95,120.1l5.2,1c3.6,1,5.716,2.233,6.35,3.7
					c0.467,1.134,0.45,2.4-0.05,3.8c-2.033,0.367-3.917,0.15-5.65-0.649l-2.05-1.25c-1.467,0.5-3.25,0.783-5.35,0.85
					c-4.233,0.134-7.933-0.916-11.1-3.149c-3.466-2.4-5.2-5.4-5.2-9c0.1,0.133,0.267,0.35,0.5,0.649
					c0.833,2.367,1.267,3.566,1.3,3.601c0.9,1.533,2.667,2.866,5.3,4c2.167,0.933,4.316,1.05,6.45,0.35
					C77.75,123.267,79.183,121.967,79.95,120.1z"/>
				<path style="fill-rule:evenodd;clip-rule:evenodd;fill:#3BB6F9;" d="M102.35,77.7c2.967,1.1,5.301,2.8,7,5.1
					c4.434,6,3.684,14.25-2.25,24.75c-2.3,4.101-2.933,6.434-1.899,7c0.233,0.134,0.6,0.283,1.1,0.45
					c0.267,0.267,0.117,0.866-0.45,1.8c-2.166,3.634-5.85,5.684-11.05,6.15c-2.833,0.267-8.566-0.084-17.2-1.05
					c-6.633-0.7-11.25-2.017-13.85-3.95c-2.367-1.733-3.283-4.101-2.75-7.101c0.867-4.666,2.917-7.783,6.15-9.35
					c2.8-1.366,6.133-1.5,10-0.4c1.967,0.567,3,0.834,3.1,0.801c1.033-0.301,1.267-2.101,0.7-5.4c-0.833-4.9-0.217-9.116,1.85-12.65
					c2.334-4.033,6.2-6.4,11.601-7.1C97,76.417,99.65,76.733,102.35,77.7z"/>
				<path style="fill-rule:evenodd;clip-rule:evenodd;fill:#4BFEFC;" d="M99.7,76.65c1.8,0.267,3.533,1.033,5.2,2.3
					c-0.367,1.3-1.983,2.017-4.851,2.15c-2.666,0.133-4.616-0.2-5.85-1c-1.233-0.8-2.434-1.233-3.601-1.3
					c-0.466-0.033-1.5,0.05-3.1,0.25c1.934-1.2,4.233-1.966,6.9-2.3C96.6,76.45,98.366,76.417,99.7,76.65z"/>
				<path style="fill-rule:evenodd;clip-rule:evenodd;fill:#2F84E2;" d="M107.1,107.55c-2.3,4.101-2.933,6.434-1.899,7
					c0.233,0.134,0.6,0.283,1.1,0.45c0.267,0.267,0.117,0.866-0.45,1.8c-2.166,3.634-5.85,5.684-11.05,6.15
					c-2.833,0.267-8.566-0.084-17.2-1.05c-6.633-0.7-11.25-2.017-13.85-3.95c-2.367-1.733-3.283-4.101-2.75-7.101l0.35-1.399
					c0.733,2.333,2.467,4.233,5.2,5.7c2.667,1.433,4.983,1.733,6.95,0.899c2.067-0.866,3.483-1.767,4.25-2.7l0.5-1.1l0.6,2.4
					c0.633,1.399,1.566,1.55,2.8,0.449c1.2-1.066,2.333-1.883,3.4-2.449c1.367-0.733,2.084-1.117,2.15-1.15l2.85-2.1
					c-1.666-0.4-3.383-1.417-5.15-3.051c-1.1-1.033-1.883-1.899-2.35-2.6l-0.4-0.75l2.1,2.15c1.8,1.267,3.533,1.216,5.2-0.15
					c1.233-1,2.267-2.833,3.1-5.5c0.867-2.8,2.25-5.083,4.15-6.85c1.399-1.301,3.184-2.134,5.35-2.5
					c1.8-0.301,3.566-0.233,5.3,0.199c1.4,0.367,2.4,0.284,3-0.25c0.767-0.633,1.017-2.017,0.75-4.149
					C113.3,91.717,111.967,98.917,107.1,107.55z"/>
				<path style="fill-rule:evenodd;clip-rule:evenodd;fill:#706829;" d="M105.3,119.6c-1.5,3.867-4.399,6.634-8.7,8.301
					c-4.699,1.833-9.017,1.35-12.95-1.45c-2.167-1.566-2-4.184,0.5-7.851c2-2.966,4.234-5.25,6.7-6.85
					c2.034-1.333,3.617-2.2,4.75-2.6c0.567-0.2,0.934-0.267,1.101-0.2c-0.267-1.467-0.334-3.117-0.2-4.95
					c0.233-3.634,1.316-6.3,3.25-8c2.6-2.267,5.1-2.967,7.5-2.1c2.4,0.899,3.45,2.916,3.15,6.05c-0.2,2.267-0.851,4.366-1.95,6.3
					c-0.566,0.967-1.101,1.7-1.601,2.2l0.301,2.899C107.083,113.884,106.467,116.634,105.3,119.6z"/>
				<path style="fill-rule:evenodd;clip-rule:evenodd;fill:#5A5620;" d="M108.3,94.5c1.634,1.2,2.334,3.017,2.101,5.45
					c-0.2,2.267-0.851,4.366-1.95,6.3c-0.566,0.967-1.101,1.7-1.601,2.2l0.301,2.899c-0.067,2.534-0.684,5.284-1.851,8.25
					c-1.5,3.867-4.399,6.634-8.7,8.301c-4.699,1.833-9.017,1.35-12.95-1.45c-1.066-0.767-1.55-1.867-1.45-3.3
					c0.133-0.067,0.216-0.084,0.25-0.051c0.033,0,0.05,0.017,0.05,0.051l0.7,1.25c0.667,0.866,1.45,1.383,2.35,1.55
					c1.733,0.333,3.533,0.383,5.4,0.149c3.133-0.366,5.733-1.483,7.8-3.35c2-1.8,3.217-4.517,3.65-8.15V109.7l-1.25-0.101
					c-0.967,0-2-0.1-3.101-0.3l-1.35-0.35c-0.233-1.267-0.316-2.717-0.25-4.351c1.066,1.601,2.566,2.267,4.5,2
					s3.816-1.383,5.649-3.35C108.934,100.75,109.5,97.833,108.3,94.5z"/>
				<path style="fill-rule:evenodd;clip-rule:evenodd;fill:#827B30;" d="M97.45,112.7c0.399,0.833,0.366,1.95-0.101,3.35
					c-0.433,1.2-1.399,2.384-2.899,3.55c-1.834,1.434-3.7,1.983-5.601,1.65c-1.933-0.333-2.133-1.6-0.6-3.8
					c1.333-1.9,3-3.417,5-4.55C95.483,111.6,96.884,111.533,97.45,112.7z"/>
				<path style="fill-rule:evenodd;clip-rule:evenodd;fill:#827B30;" d="M103.15,95.9c1.899-0.134,2.1,1.083,0.6,3.649
					c-1.533,2.601-2.833,3.533-3.9,2.8c-0.966-0.666-0.949-1.899,0.051-3.699C100.9,96.884,101.983,95.967,103.15,95.9z"/>
				<path style="fill-rule:evenodd;clip-rule:evenodd;fill:#595097;" d="M86.25,80.8c1.366-1.033,2.75-1.517,4.15-1.45
					c1.3,0.066,2.283,0.533,2.949,1.4c0.7,0.9,0.801,1.9,0.301,3c-0.534,1.3-1.767,2.467-3.7,3.5c-2.8,1.467-4.584,1.1-5.35-1.1
					C83.867,83.983,84.417,82.2,86.25,80.8z"/>
				<path style="fill-rule:evenodd;clip-rule:evenodd;fill:#2F84E2;" d="M72.85,101.6c3.167,0.434,4.316,1.601,3.45,3.5
					c-0.867,1.867-3,3.101-6.4,3.7c-2.8,0.467-4.75,0.467-5.85,0L63.2,107.9l1.05-2c0.533-1.067,1.733-2.084,3.6-3.051
					C69.783,101.816,71.45,101.4,72.85,101.6z"/>
				<path style="fill-rule:evenodd;clip-rule:evenodd;fill:#2F84E2;" d="M81.6,103.5l3.3,2.85l-0.2,0.45
					c-0.2,0.4-0.517,0.783-0.95,1.15c-0.633,0.533-1.533,0.75-2.7,0.649c-1.4-0.166-2.433-0.816-3.1-1.949
					c-0.767-1.267-0.7-2.267,0.2-3C79.05,102.884,80.2,102.833,81.6,103.5z"/>
				<path style="fill-rule:evenodd;clip-rule:evenodd;fill:#2F84E2;" d="M83.75,86.9c-1.767,2.866-1.8,3.066-0.1,0.6
					c1.267-1.867,2.167,0.134,2.7,6c0.534,5.833,0.051,8.866-1.45,9.1c-1.367,0.233-2.35-0.883-2.95-3.35
					c-0.5-1.967-0.7-4.467-0.6-7.5c0.033-2.167,0.483-3.767,1.35-4.8c0.3-0.4,0.566-0.601,0.8-0.601S83.817,86.533,83.75,86.9z"/>
				<path style="fill-rule:evenodd;clip-rule:evenodd;fill:#4BFEFC;" d="M71.7,102.75c1.966,0.167,1.833,1.033-0.4,2.6
					c-2.233,1.534-4.033,2.017-5.4,1.45c-0.9-0.366-0.517-1.166,1.15-2.399C68.75,103.167,70.3,102.616,71.7,102.75z"/>
				<path style="fill-rule:evenodd;clip-rule:evenodd;fill:#4BFEFC;" d="M81.5,104c0.333,0.6,0.967,1.1,1.9,1.5
					c-0.267,0.267-0.6,0.483-1,0.65c-0.833,0.366-1.6,0.366-2.3,0c-1.033-0.534-1.167-1.167-0.4-1.9
					C80.533,103.483,81.133,103.4,81.5,104z"/>
				<path style="fill-rule:evenodd;clip-rule:evenodd;fill:#4BFEFC;" d="M84.65,89.9c0.267,1.433,0.317,3.3,0.15,5.6
					c-0.2,2.667-0.667,3.634-1.4,2.9s-1.183-2.317-1.35-4.75c-0.167-2.2-0.066-3.65,0.3-4.351c0.433-0.767,0.833-1.166,1.2-1.2
					C84.05,88,84.417,88.6,84.65,89.9z"/>
				<path style="fill-rule:evenodd;clip-rule:evenodd;fill:#595097;" d="M82.9,87.25c0.434-1.3,0.85-2.117,1.25-2.45
					c0.233-0.167,0.4-0.216,0.5-0.15l0.25,2.6c0.1,1.1,0.734,2.15,1.9,3.15c0.566,0.5,1.134,0.883,1.7,1.149
					c-0.866,0.066-1.684,0.017-2.45-0.149c-0.467-0.101-0.967-0.384-1.5-0.851l-0.6-0.7l-0.1,0.851c0,0.767,0.117,1.583,0.35,2.45
					c0.367,1.399,1.616,3,3.75,4.8c-0.3,0-1.033-0.267-2.2-0.8c-0.733-0.301-1.383-0.784-1.95-1.45l-0.65-0.851l-0.4,1.801
					c-0.133,0.733-0.15,1.517-0.05,2.35c0.433-0.6,0.983-0.866,1.65-0.8c0.667,0.066,1.034,0.416,1.1,1.05
					c0.1,0.767,0.55,1.45,1.35,2.05c0.434,0.3,0.834,0.517,1.2,0.65c-0.9,0.066-1.65,0.083-2.25,0.05
					c-0.366-0.033-0.733-0.15-1.1-0.35l-0.4-0.301l0.05,0.801c0.034,0.633,0.117,1.183,0.25,1.649c0.2,0.767,1,1.667,2.4,2.7
					c-0.434,0.066-0.95,0-1.55-0.2c0.133,0.9,0.033,1.584-0.301,2.05c-0.399,0.434-0.983,0.801-1.75,1.101
					c-0.3,0.267-0.7,0.517-1.2,0.75c-1.566,0.866-3.1,1.133-4.6,0.8c0.567-0.1,1.233-0.384,2-0.85
					c0.467-0.301,0.767-0.584,0.9-0.851v-0.35c-0.434,0.333-1.233,0.416-2.4,0.25c-0.9-0.134-1.617-0.4-2.15-0.8l-0.1,0.1
					c-0.466,0.167-1.167,0.3-2.1,0.4l-0.4,0.149l-0.55-0.1H72.7c-0.867,0.033-1.867,0.616-3,1.75c-0.534,0.566-1,1.133-1.4,1.7
					l1.25-2.601l-0.75,0.25c-0.533,0.167-1.066,0.634-1.6,1.4c-0.267,0.399-0.483,0.767-0.65,1.1c0.034-1.3,0.2-2.2,0.5-2.7
					l-0.45,0.101c-0.567,0.1-1.2,0.467-1.9,1.1c-0.333,0.3-0.617,0.601-0.85,0.9l0.25-0.8c0.1-0.334,0.267-0.65,0.5-0.95l0.35-0.351
					l-1.05-0.199c-0.433-0.067-1.15-0.034-2.15,0.1l-1.4,0.25c0.167-0.134,0.367-0.283,0.6-0.45c0.533-0.333,1.083-0.6,1.65-0.8
					l-1.1-0.3c-0.867-0.2-1.817-0.101-2.85,0.3l-1.3,0.65c0.033-0.101,0.133-0.25,0.3-0.45c0.333-0.334,0.783-0.65,1.35-0.95
					c0.7-0.333,1.667-0.434,2.9-0.3c1.233,0.166,2.2,0.483,2.9,0.95c1.167,0,2.067,0.216,2.7,0.649c0.8-0.733,1.6-0.95,2.4-0.649
					l0.35,0.199l0.25-0.3c-0.9-0.2-1.467-0.6-1.7-1.2l-0.1-0.8l1.5,0.351c0.533,0.166,1.35,0.25,2.45,0.25l0.45-0.051l0.5,0.051h1.2
					l-0.75-1.351l1.7,0.75c0.633,0.267,1.233,0.45,1.8,0.55c-0.533-0.533-0.933-1.166-1.2-1.899l-0.3-0.9l1.6,1.05
					c1.3,0.801,2.617,1.4,3.95,1.801c1.133-0.067,1.783-0.084,1.95-0.051c0.3-0.733,0.45-1.267,0.45-1.6
					c-0.533-0.467-0.983-1.217-1.35-2.25l-0.35-1.35c-0.133-0.5-0.167-1.034-0.1-1.601c-0.333-0.566-0.534-1.383-0.6-2.45
					c-0.067-1.267,0.05-2.449,0.35-3.55L82.4,93C82.033,91.233,82.2,89.316,82.9,87.25z"/>
				<path style="fill-rule:evenodd;clip-rule:evenodd;fill:#595097;" d="M60.1,107.15c1.033,0.333,1.8,0.8,2.3,1.399
					c0.267,0.267,0.417,0.517,0.45,0.75c-1.567-0.666-2.983-1.166-4.25-1.5c-0.8-0.2-1.817-0.3-3.05-0.3h-1.6l1.9-0.55
					C57.383,106.65,58.8,106.717,60.1,107.15z"/>
				<path style="fill-rule:evenodd;clip-rule:evenodd;fill:#595097;" d="M55,110.25l-1.5,0.55c0.4-0.399,0.933-0.8,1.6-1.2
					c1.333-0.8,2.683-1.216,4.05-1.25c1.1-0.033,1.983,0.15,2.65,0.551c0.333,0.199,0.567,0.399,0.7,0.6
					c-1.733-0.134-3.25-0.134-4.55,0C57.15,109.6,56.167,109.85,55,110.25z"/>
				<path style="fill-rule:evenodd;clip-rule:evenodd;fill:#595097;" d="M79.55,100.6l-1.1-1.149c-0.733-0.7-1.8-1.334-3.2-1.9
					c0.267,0.533,0.45,1.15,0.55,1.851c0.7,0,1.4,0.116,2.1,0.35C78.5,99.983,79.05,100.267,79.55,100.6z M76,92.3
					c1.433,0.167,2.65,0.783,3.65,1.851c0.8,0.833,1.333,1.733,1.6,2.699c0.133,0.5,0.183,0.9,0.15,1.2l-0.1-0.1l0.1,0.2
					c-1.333-0.733-2.517-1.25-3.55-1.551c-0.867-0.267-1.967-0.35-3.3-0.25l0.5,0.851c2.167-0.101,3.867,0.583,5.1,2.05
					c1.067,1.2,1.483,2.366,1.25,3.5l0.1,0.3c-2-1-3.8-1.7-5.4-2.1l-0.3-0.05c-0.066,0.633-0.216,1.133-0.45,1.5l-0.05-0.15
					l-1.6-1.6h-1.45c0.333,0.399,0.517,0.75,0.55,1.05l-1.85-0.95l-0.65,0.1l0.35-0.199c-0.933-0.467-1.9-0.884-2.9-1.25
					c-0.967-0.334-2.2-0.584-3.7-0.75l-2-0.2l2.4-0.4c1.933-0.166,3.683,0.101,5.25,0.8c0.7,0.301,1.383,0.717,2.05,1.25l0.95-0.35
					l-1.55-1.25c-0.8-0.6-1.917-1.184-3.35-1.75l-1.85-0.7l2.45,0.15c1.9,0.333,3.5,1.05,4.8,2.149c0.3,0.267,0.65,0.634,1.05,1.101
					c-0.3-0.834-0.667-1.634-1.1-2.4c-0.533-0.899-1.35-1.883-2.45-2.95l-1.5-1.3l1.9,0.7c1.433,0.667,2.566,1.583,3.4,2.75
					c1.367-0.9,2.85-1.033,4.45-0.4c0.466,0.2,0.833,0.417,1.1,0.65c-0.633-0.8-1.283-1.467-1.95-2
					c-0.633-0.566-1.483-1.083-2.55-1.55l-1.4-0.55L76,92.3z"/>
				<path style="fill-rule:evenodd;clip-rule:evenodd;fill:#595097;" d="M81.35,91.75c-1.267-1.1-2.434-1.934-3.5-2.5
					c-0.667-0.333-1.55-0.566-2.65-0.7L73.75,88.4l1.8-0.601c1.434-0.233,2.684,0.017,3.75,0.75c0.867,0.566,1.467,1.267,1.8,2.101
					C81.267,91.083,81.35,91.45,81.35,91.75z"/>
				<path style="fill-rule:evenodd;clip-rule:evenodd;fill:#595097;" d="M78.55,77.15l1.95,1.15c1.333,1.034,2.133,2.317,2.4,3.85
					c0.3,1.7,0,3.1-0.9,4.2c0.1,0.9-0.133,1.65-0.7,2.25c-0.466-1.466-1.033-2.667-1.7-3.6c-0.4-0.567-1.1-1.183-2.1-1.85l-1.4-0.85
					l2.3,0.5c1.633,0.534,2.717,1.333,3.25,2.4l0.1,0.2c-0.133-1.566-0.35-2.883-0.65-3.95c-0.233-0.867-0.733-1.85-1.5-2.95
					L78.55,77.15z"/>
				<path style="fill-rule:evenodd;clip-rule:evenodd;fill:#595097;" d="M88.5,75.95c0.366-1.2,1.116-2.2,2.25-3
					c0.566-0.434,1.1-0.733,1.6-0.9c-0.3,0.3-0.616,0.65-0.949,1.05c-0.7,0.833-1.184,1.583-1.45,2.25l-0.25,0.7
					c0.434-0.533,0.967-1.05,1.6-1.55c1.566-1.2,3.4-1.867,5.5-2c1.033-0.067,1.917-0.017,2.65,0.15
					c-2.434,0.533-4.417,1.3-5.95,2.3c-1.267,0.833-2.75,2.017-4.45,3.55L88.9,79.25l-0.25-0.4L88.4,79.1l0.1-0.6
					C88.233,77.7,88.233,76.85,88.5,75.95z"/>
				<path style="fill-rule:evenodd;clip-rule:evenodd;fill:#595097;" d="M55.8,98.65l2.5,0.05c1.934,0.233,3.55,0.916,4.85,2.05
					l0.3,0.25l-0.5-0.95c-0.4-0.7-1.067-1.283-2-1.75l-1.3-0.5L60.9,98c1,0.233,1.983,0.634,2.95,1.2
					c1.533,0.899,2.583,2.083,3.15,3.55c0.333,0.733-0.233,1.283-1.7,1.65v0.449l-0.35-0.399l-0.2,0.05l-0.1,0.6
					c-0.033,0.367-0.517,0.634-1.45,0.801c-0.733,0.333-1.567,0.5-2.5,0.5c-0.567,0-1.167-0.15-1.8-0.45l-0.75-0.45l4.05-0.5
					c-0.434-0.5-1.067-0.8-1.9-0.9c-0.533-0.033-1.367,0.017-2.5,0.15l-1.55,0.25l1.15-0.75c0.967-0.5,1.983-0.8,3.05-0.9
					c1.667-0.166,2.85,0.084,3.55,0.75v-0.1c-1.133-1.066-2.1-1.9-2.9-2.5c-0.833-0.6-1.967-1.167-3.4-1.7L55.8,98.65z"/>
				<path style="fill-rule:evenodd;clip-rule:evenodd;fill:#3BB6F9;" d="M85.15,71.7c0.133,1.867,0.933,3.583,2.399,5.15
					c1.434,1.533,2.667,2.55,3.7,3.05l0.65,1.9c-0.034,1.434-1.134,2.583-3.301,3.45c-1.399,0.533-2.517,0.35-3.35-0.55l-0.8-1.55
					c-0.367-0.633-0.717-1.383-1.05-2.25c-0.667-1.767-0.967-3.283-0.9-4.55c0.133-2.033,0.467-3.85,1-5.45l0.8-1.75l1.15,0.2
					L85.15,71.7z"/>
				<path style="fill-rule:evenodd;clip-rule:evenodd;fill:#3098D0;" d="M84.95,74.85c-0.5-1.8-0.717-3.7-0.65-5.7l1.15,0.3
					c-0.267,0.7-0.351,1.566-0.25,2.6c0.166,1.733,0.95,3.333,2.35,4.8c1.434,1.533,2.667,2.55,3.7,3.05l0.55,1.3
					c0.2,1.033-0.133,1.95-1,2.75c0.066-0.833-0.25-1.733-0.95-2.7c-0.6-0.8-1.383-1.533-2.35-2.2
					C86.4,78.317,85.55,76.917,84.95,74.85z"/>
				<path style="fill-rule:evenodd;clip-rule:evenodd;fill:#4BFEFC;" d="M89.55,65.9c0.267,1.267,0.05,2.45-0.649,3.55
					c-0.7,1.1-1.684,1.816-2.95,2.15c-1.233,0.3-2.383,0.117-3.45-0.55c-1.067-0.667-1.733-1.633-2-2.9
					c-0.233-1.267-0.017-2.467,0.65-3.6c0.7-1.1,1.667-1.8,2.9-2.1c1.267-0.333,2.434-0.15,3.5,0.55
					C88.65,63.667,89.316,64.633,89.55,65.9z"/>
				<path style="fill-rule:evenodd;clip-rule:evenodd;fill:#FFFFFF;" d="M86.25,64.9c0.134,0.567,0.033,1.1-0.3,1.6
					c-0.3,0.467-0.733,0.783-1.3,0.95c-0.566,0.133-1.066,0.05-1.5-0.25c-0.467-0.3-0.767-0.733-0.9-1.3
					c-0.133-0.533-0.033-1.05,0.3-1.55c0.3-0.467,0.733-0.783,1.3-0.95c0.533-0.133,1.033-0.05,1.5,0.25
					C85.816,63.917,86.116,64.333,86.25,64.9z"/>
				<path style="fill-rule:evenodd;clip-rule:evenodd;fill:#5A5620;" d="M88.8,126.1c0.834,0.434,1.217,0.784,1.15,1.051l0.1,1.05
					c0,0.833-0.133,1.6-0.399,2.3c-0.467,1.1-1.334,1.866-2.601,2.3l1.4,0.65c0.899,0.533,1.217,0.95,0.95,1.25
					c-0.767,0.899-1.551,1.316-2.351,1.25c-1-0.101-1.95-0.867-2.85-2.3c-0.6-0.967-0.934-1.601-1-1.9
					c-0.067-0.233-0.017-0.533,0.15-0.9c0.133-0.233,0.483-0.3,1.05-0.199c0.267,0.033,0.533,0.1,0.8,0.199
					c0.467,0,0.916-0.133,1.35-0.399c0.867-0.467,1.184-1.25,0.95-2.351c-0.167-0.733-0.116-1.316,0.15-1.75
					C87.917,125.95,88.3,125.866,88.8,126.1z"/>
				<path style="fill-rule:evenodd;clip-rule:evenodd;fill:#5A5620;" d="M69.5,124.35c0.8,0.301,1.117,0.634,0.95,1l0.1,0.15
					c0.034,0.233-0.017,0.667-0.15,1.3c-0.233,1-0.867,1.733-1.9,2.2l1.3,0.45c0.867,0.333,1.2,0.649,1,0.95
					c-0.533,0.866-1.167,1.316-1.9,1.35c-0.867,0-1.8-0.566-2.8-1.7c-0.667-0.767-1.067-1.267-1.2-1.5
					c-0.1-0.233-0.083-0.5,0.05-0.8c0.1-0.233,0.4-0.333,0.9-0.3c0.233,0,0.467,0.033,0.7,0.1l1.2-0.05c0.7-0.2,0.867-0.767,0.5-1.7
					c-0.233-0.566-0.2-1,0.1-1.3C68.617,124.233,69,124.184,69.5,124.35z"/>
				<path style="fill-rule:evenodd;clip-rule:evenodd;fill:#4E4817;" d="M107.6,113.15c0.634,0.5,0.767,1.133,0.4,1.899
					s-0.967,1.15-1.8,1.15c-1.667,0-2.851,0.967-3.55,2.899c-0.367,0.967-0.801,1.101-1.301,0.4s-0.783-1.684-0.85-2.95
					c-0.033-1.2,0.9-2.25,2.8-3.149C105.233,112.467,106.667,112.384,107.6,113.15z"/>
				<path style="fill-rule:evenodd;clip-rule:evenodd;fill:#5A5620;" d="M98.2,113.4c0.5,0.033,1.5-0.25,3-0.851
					c1.2-0.467,1.983-0.483,2.35-0.05c0.5,0.566,0.9,1.417,1.2,2.55c0.267,1.101,0.25,1.816-0.05,2.15
					c-0.267,0.233-0.566,0.166-0.9-0.2c-0.399-0.5-0.733-0.866-1-1.1c-0.3-0.233-0.899-0.301-1.8-0.2
					c-1.167,0.233-2.1,0.399-2.8,0.5c-1.9,0.233-3.75-0.5-5.55-2.2c-0.767-0.7-0.95-1.384-0.551-2.05c0.334-0.566,0.934-0.9,1.801-1
					c0.5-0.033,1.166,0.35,2,1.149C96.8,112.934,97.566,113.366,98.2,113.4z"/>
			</g>
		</g>
		<g>
			<g>
				<path style="fill-rule:evenodd;clip-rule:evenodd;fill:#F7E0E7;" d="M93.2,33.95c0,2.4-0.983,4.216-2.95,5.45
					c1.333,0.6,2.384,1.467,3.15,2.6c0.8,1.167,1.199,2.433,1.199,3.8c0,2.167-0.866,4.017-2.6,5.55
					c-1.733,1.566-3.85,2.35-6.35,2.35c-2.467,0-4.567-0.767-6.3-2.3c-1.533-1.367-2.3-2.833-2.3-4.4c0-0.667,0.3-1.233,0.9-1.7
					c0.533-0.466,1.15-0.7,1.85-0.7c0.7,0,1.483,0.7,2.35,2.1c0.9,1.367,2.083,2.05,3.55,2.05c0.934,0,1.717-0.317,2.35-0.95
					c0.667-0.633,1-1.417,1-2.35c0-1.733-1-2.75-3-3.05C84.017,42.1,83,41.267,83,39.9c0-1.233,0.85-2.066,2.55-2.5
					c1.667-0.433,2.5-1.316,2.5-2.65c0-0.7-0.217-1.267-0.649-1.7c-0.5-0.466-1.134-0.7-1.9-0.7c-1.2,0-2.217,0.583-3.05,1.75
					c-0.8,1.167-1.567,1.75-2.3,1.75c-0.7,0-1.283-0.283-1.75-0.85c-0.4-0.5-0.6-1.1-0.6-1.8c0-1.4,0.8-2.717,2.4-3.95
					c1.633-1.233,3.433-1.85,5.399-1.85c2.367,0,4.284,0.75,5.75,2.25C92.583,30.917,93.2,32.35,93.2,33.95z"/>
			</g>
			<g>
				
					<linearGradient id="SVGID_6_" gradientUnits="userSpaceOnUse" x1="-52.5347" y1="85.8267" x2="-26.2847" y2="85.8267" gradientTransform="matrix(3.809524e-005 -1 1 -0.001 -2.387897e-004 4.449275e-004)">
					<stop  offset="0.0745" style="stop-color:#6A034E"/>
					<stop  offset="0.2667" style="stop-color:#830B61"/>
					<stop  offset="0.6706" style="stop-color:#C22193"/>
					<stop  offset="0.9922" style="stop-color:#F934BE"/>
				</linearGradient>
				<path style="fill-rule:evenodd;clip-rule:evenodd;fill:url(#SVGID_6_);" d="M93.2,32.7c0,2.4-0.983,4.216-2.95,5.45
					c1.333,0.6,2.384,1.467,3.15,2.6c0.8,1.167,1.199,2.433,1.199,3.8c0,2.167-0.866,4.017-2.6,5.55
					c-1.733,1.566-3.85,2.35-6.35,2.35c-2.467,0-4.567-0.767-6.3-2.3c-1.533-1.367-2.3-2.833-2.3-4.4c0-0.667,0.3-1.233,0.9-1.7
					c0.533-0.466,1.15-0.7,1.85-0.7c0.7,0,1.483,0.7,2.35,2.1c0.9,1.367,2.083,2.05,3.55,2.05c0.934,0,1.717-0.317,2.35-0.95
					c0.667-0.633,1-1.417,1-2.35c0-1.733-1-2.75-3-3.05c-2.033-0.3-3.05-1.133-3.05-2.5c0-1.233,0.85-2.066,2.55-2.5
					c1.667-0.433,2.5-1.316,2.5-2.65c0-0.7-0.217-1.267-0.649-1.7c-0.5-0.466-1.134-0.7-1.9-0.7c-1.2,0-2.217,0.583-3.05,1.75
					c-0.8,1.167-1.567,1.75-2.3,1.75c-0.7,0-1.283-0.283-1.75-0.85c-0.4-0.5-0.6-1.1-0.6-1.8c0-1.4,0.8-2.717,2.4-3.95
					c1.633-1.233,3.433-1.85,5.399-1.85c2.367,0,4.284,0.75,5.75,2.25C92.583,29.667,93.2,31.1,93.2,32.7z"/>
			</g>
		</g>
		<g>
			<g>
				<g>
					<g>
						
							<linearGradient id="SVGID_7_" gradientUnits="userSpaceOnUse" x1="-61.4434" y1="52.915" x2="-30.7095" y2="52.915" gradientTransform="matrix(3.252033e-005 -1 1 -0.001 -1.934437e-005 -4.747650e-005)">
							<stop  offset="0" style="stop-color:#CA2897"/>
							<stop  offset="0.1686" style="stop-color:#D148A0"/>
							<stop  offset="0.5255" style="stop-color:#E58FB7"/>
							<stop  offset="0.902" style="stop-color:#FDDDD1"/>
						</linearGradient>
						<path style="fill-rule:evenodd;clip-rule:evenodd;fill:url(#SVGID_7_);" d="M68.35,38.2c-0.633,1.066-1.467,2.05-2.5,2.95
							c-2.5,2.267-4.883,3.583-7.15,3.95h-0.45l-0.1-0.1v0.1l-1.05,1.55c-2,2.733-4.083,4.483-6.25,5.25l-0.2,0.05
							c-0.1,0.5-0.3,1.183-0.6,2.05c-1.1,3.133-2.6,5.417-4.5,6.85L45,61.15l-0.25,0.1c-0.233,0.1-0.517,0.15-0.85,0.15h-0.15
							c-0.4-0.033-0.817-0.167-1.25-0.4c-0.8-0.533-1.417-1.233-1.85-2.1l-1.2,0.25L39.2,59.1c-0.833-0.067-1.483-0.434-1.95-1.1
							c-0.9-1.3-1.1-2.883-0.6-4.75c0.367-1.467,1.017-2.817,1.95-4.05c1.367-1.633,2.983-2.833,4.85-3.6
							c-0.067-1.267,0.35-2.567,1.25-3.9c0.733-1.133,1.667-2.1,2.8-2.9c1.6-1.1,3.383-1.783,5.35-2.05
							c0.333-1.1,1.033-2.15,2.1-3.15c0.9-0.833,1.9-1.517,3-2.05c1.5-0.633,3.133-0.933,4.9-0.9c1.7,0,3.2,0.3,4.5,0.9
							c0.767,0.2,1.333,0.684,1.7,1.45C69.75,34.6,69.517,36.333,68.35,38.2z"/>
						<path style="fill-rule:evenodd;clip-rule:evenodd;fill:none;stroke:#F7E0E7;stroke-width:0.25;" d="M68.35,38.2
							c-0.633,1.066-1.467,2.05-2.5,2.95c-2.5,2.267-4.883,3.583-7.15,3.95h-0.45l-0.1-0.1v0.1l-1.05,1.55
							c-2,2.733-4.083,4.483-6.25,5.25l-0.2,0.05c-0.1,0.5-0.3,1.183-0.6,2.05c-1.1,3.133-2.6,5.417-4.5,6.85L45,61.15l-0.25,0.1
							c-0.233,0.1-0.517,0.15-0.85,0.15h-0.15c-0.4-0.033-0.817-0.167-1.25-0.4c-0.8-0.533-1.417-1.233-1.85-2.1l-1.2,0.25
							L39.2,59.1c-0.833-0.067-1.483-0.434-1.95-1.1c-0.9-1.3-1.1-2.883-0.6-4.75c0.367-1.467,1.017-2.817,1.95-4.05
							c1.367-1.633,2.983-2.833,4.85-3.6c-0.067-1.267,0.35-2.567,1.25-3.9c0.733-1.133,1.667-2.1,2.8-2.9
							c1.6-1.1,3.383-1.783,5.35-2.05c0.333-1.1,1.033-2.15,2.1-3.15c0.9-0.833,1.9-1.517,3-2.05c1.5-0.633,3.133-0.933,4.9-0.9
							c1.7,0,3.2,0.3,4.5,0.9c0.767,0.2,1.333,0.684,1.7,1.45C69.75,34.6,69.517,36.333,68.35,38.2z"/>
					</g>
				</g>
				<path style="fill-rule:evenodd;clip-rule:evenodd;fill:#630F50;" d="M67.4,33.8c0.4,0.9,0.233,2-0.5,3.3
					c-0.566,0.967-1.316,1.85-2.25,2.65c-2.267,2.033-4.35,3.2-6.25,3.5h-0.3c-0.267-0.067-0.45-0.183-0.55-0.35l-0.2-0.45
					c-0.367,1.1-0.934,2.117-1.7,3.05c-1.767,2.433-3.583,3.983-5.45,4.65L50,50.2l-0.1,0.05h-0.1c-0.233-0.067-0.4-0.167-0.5-0.3
					l-0.25-0.3c0,1.267-0.25,2.5-0.75,3.7c-1.033,2.867-2.316,4.867-3.85,6l-0.25,0.1l-0.05,0.05l-0.3,0.05
					c-0.133,0-0.25-0.05-0.35-0.15c-0.933-0.566-1.483-1.6-1.65-3.1c-0.767,0.5-1.5,0.817-2.2,0.95L39.4,57.3v-0.05l-0.05,0.05H39.3
					c-0.233-0.066-0.417-0.183-0.55-0.35c-0.633-0.9-0.717-2.083-0.25-3.55c0.3-1.066,0.817-2.083,1.55-3.05
					c1.667-2,3.684-3.2,6.05-3.6H46l-0.1-0.05c-0.233-0.067-0.383-0.217-0.45-0.45c-0.333-1.033-0.083-2.2,0.75-3.5
					c0.633-0.967,1.433-1.783,2.4-2.45c1.833-1.267,3.8-1.867,5.9-1.8c-0.133-1.1,0.333-2.2,1.4-3.3
					c0.833-0.833,1.783-1.483,2.85-1.95c1.333-0.533,2.733-0.8,4.2-0.8c1.433,0,2.683,0.283,3.75,0.85h0.05
					C67.083,33.367,67.3,33.533,67.4,33.8z"/>
				<g>
					<g>
						<g>
							<g>
								<g>
									<g>
										<g>
											
												<linearGradient id="SVGID_8_" gradientUnits="userSpaceOnUse" x1="-37.4512" y1="61.5781" x2="-32.5502" y2="61.5781" gradientTransform="matrix(0.0204 -0.9998 0.9998 0.0204 -2.202038e-004 -9.402633e-005)">
												<stop  offset="0" style="stop-color:#FB8EFE"/>
												<stop  offset="0.4863" style="stop-color:#E575C4"/>
												<stop  offset="0.7373" style="stop-color:#DB6AAB"/>
											</linearGradient>
											<path style="fill-rule:evenodd;clip-rule:evenodd;fill:url(#SVGID_8_);" d="M66.35,34.05
												c0.033,0.767-0.483,1.517-1.55,2.25c-0.833,0.6-1.767,1.05-2.8,1.35c-2.667,1-4.883,1.25-6.65,0.75
												c0.233-0.167,0.917-0.583,2.05-1.25c1.067-0.633,1.867-1.15,2.4-1.55C61.967,34.1,64.15,33.583,66.35,34.05z"/>
											<path style="fill-rule:evenodd;clip-rule:evenodd;fill:#F6E7EB;" d="M60.85,35.55c-2.1,1.333-3.967,2.284-5.6,2.85
												c-0.1-0.833,0.283-1.7,1.15-2.6c0.767-0.767,1.65-1.383,2.65-1.85c1.233-0.5,2.5-0.75,3.8-0.75
												c1.333,0,2.5,0.267,3.5,0.8c-0.867-0.167-1.8-0.067-2.8,0.3C63.017,34.5,62.117,34.917,60.85,35.55z"/>
										</g>
										<g>
											
												<linearGradient id="SVGID_9_" gradientUnits="userSpaceOnUse" x1="-41.2715" y1="63.3535" x2="-32.7447" y2="63.3535" gradientTransform="matrix(0.0205 -0.9998 0.9998 0.0205 1.610909e-004 -2.400652e-004)">
												<stop  offset="0" style="stop-color:#FB8EFE"/>
												<stop  offset="0.4863" style="stop-color:#E575C4"/>
												<stop  offset="0.7373" style="stop-color:#DB6AAB"/>
											</linearGradient>
											<path style="fill-rule:evenodd;clip-rule:evenodd;fill:url(#SVGID_9_);" d="M66.7,34.1c0.3,0.733,0.133,1.633-0.5,2.7
												c-0.534,0.867-1.217,1.65-2.05,2.35c-2.1,1.967-4.05,3.083-5.85,3.35c0.167-0.333,0.617-1,1.35-2
												c0.8-1.067,1.35-1.85,1.65-2.35C62.7,35.917,64.5,34.567,66.7,34.1z"/>
											<path style="fill-rule:evenodd;clip-rule:evenodd;fill:#F6E7EB;" d="M58.2,42.5c-0.4-0.733-0.383-1.683,0.05-2.85
												c0.367-1,0.933-1.917,1.7-2.75c0.9-0.933,1.966-1.65,3.2-2.15c1.233-0.533,2.417-0.75,3.55-0.65
												c-0.9,0.167-1.733,0.617-2.5,1.35c-0.467,0.433-1.117,1.183-1.95,2.25C60.717,39.833,59.367,41.433,58.2,42.5z"/>
										</g>
									</g>
								</g>
							</g>
						</g>
					</g>
					<g>
						<g>
							<g>
								<g>
									<g>
										<g>
											
												<linearGradient id="SVGID_10_" gradientUnits="userSpaceOnUse" x1="-45.1387" y1="52.0469" x2="-38.5125" y2="52.0469" gradientTransform="matrix(0.0189 -0.9998 0.9998 0.0189 1.312662e-004 -3.499128e-004)">
												<stop  offset="0" style="stop-color:#FB8EFE"/>
												<stop  offset="0.4863" style="stop-color:#E575C4"/>
												<stop  offset="0.7373" style="stop-color:#DB6AAB"/>
											</linearGradient>
											<path style="fill-rule:evenodd;clip-rule:evenodd;fill:url(#SVGID_10_);" d="M50.1,42.4c1.9-1.9,3.933-2.833,6.1-2.8
												c0.167,0.733-0.2,1.566-1.1,2.5c-0.7,0.767-1.517,1.4-2.45,1.9c-2.433,1.467-4.566,2.15-6.4,2.05
												C48.017,44.483,49.3,43.267,50.1,42.4z"/>
											<path style="fill-rule:evenodd;clip-rule:evenodd;fill:#F6E7EB;" d="M46.15,46c-0.267-0.767-0.05-1.683,0.65-2.75
												c0.567-0.9,1.317-1.683,2.25-2.35c1.1-0.733,2.284-1.233,3.55-1.5c1.333-0.233,2.533-0.183,3.6,0.15
												c-0.867,0-1.767,0.284-2.7,0.85c-0.5,0.267-1.3,0.85-2.4,1.75C49.2,43.917,47.55,45.2,46.15,46z"/>
										</g>
										<g>
											
												<linearGradient id="SVGID_11_" gradientUnits="userSpaceOnUse" x1="-48.459" y1="54.3066" x2="-38.4785" y2="54.3066" gradientTransform="matrix(0.02 -0.9998 0.9998 0.02 2.659913e-004 -4.277341e-004)">
												<stop  offset="0" style="stop-color:#FB8EFE"/>
												<stop  offset="0.4863" style="stop-color:#E575C4"/>
												<stop  offset="0.7373" style="stop-color:#DB6AAB"/>
											</linearGradient>
											<path style="fill-rule:evenodd;clip-rule:evenodd;fill:url(#SVGID_11_);" d="M56.55,42.35
												c-0.333,0.933-0.833,1.833-1.5,2.7c-1.733,2.3-3.433,3.767-5.1,4.4c0.1-0.333,0.433-1.067,1-2.2
												c0.533-1.167,0.9-2.05,1.1-2.65c0.934-2.467,2.434-4.133,4.5-5C56.983,40.233,56.983,41.15,56.55,42.35z"/>
											<path style="fill-rule:evenodd;clip-rule:evenodd;fill:#F6E7EB;" d="M49.85,49.45c-0.533-0.633-0.7-1.567-0.5-2.8
												c0.167-1.033,0.55-2.033,1.15-3c0.7-1.1,1.6-2.017,2.7-2.75c1.1-0.767,2.216-1.217,3.35-1.35
												c-0.833,0.367-1.566,0.983-2.2,1.85c-0.367,0.5-0.85,1.367-1.45,2.6C51.7,46.567,50.683,48.383,49.85,49.45z"/>
										</g>
									</g>
								</g>
							</g>
						</g>
					</g>
					<g>
						<g>
							<g>
								<g>
									<g>
										<g>
											
												<linearGradient id="SVGID_12_" gradientUnits="userSpaceOnUse" x1="-55.7515" y1="44.4004" x2="-46.5748" y2="44.4004" gradientTransform="matrix(0.0191 -0.9998 0.9998 0.0191 -1.815297e-004 4.375242e-004)">
												<stop  offset="0" style="stop-color:#FB8EFE"/>
												<stop  offset="0.4863" style="stop-color:#E575C4"/>
												<stop  offset="0.7373" style="stop-color:#DB6AAB"/>
											</linearGradient>
											<path style="fill-rule:evenodd;clip-rule:evenodd;fill:url(#SVGID_12_);" d="M47.15,47.5
												c0.367,0.667,0.267,1.567-0.3,2.7c-0.434,0.867-1.033,1.716-1.8,2.55c-2.066,2.133-3.933,3.383-5.6,3.75
												c1.267-2,2.15-3.533,2.65-4.6C43.4,49.533,45.083,48.067,47.15,47.5z"/>
											<path style="fill-rule:evenodd;clip-rule:evenodd;fill:#F6E7EB;" d="M39.4,56.5c-0.467-0.7-0.533-1.65-0.2-2.85
												c0.3-0.967,0.783-1.917,1.45-2.85c0.833-1,1.833-1.8,3-2.4c1.2-0.633,2.367-0.95,3.5-0.95
												c-0.867,0.267-1.667,0.8-2.4,1.6c-0.4,0.434-0.983,1.217-1.75,2.35C41.633,53.7,40.433,55.4,39.4,56.5z"/>
										</g>
										<g>
											
												<linearGradient id="SVGID_13_" gradientUnits="userSpaceOnUse" x1="-57.8701" y1="47.2153" x2="-46.4679" y2="47.2153" gradientTransform="matrix(0.0197 -0.9998 0.9998 0.0197 4.828535e-004 1.856759e-004)">
												<stop  offset="0" style="stop-color:#FB8EFE"/>
												<stop  offset="0.4863" style="stop-color:#E575C4"/>
												<stop  offset="0.7373" style="stop-color:#DB6AAB"/>
											</linearGradient>
											<path style="fill-rule:evenodd;clip-rule:evenodd;fill:url(#SVGID_13_);" d="M47.5,47.4c0.6,0.467,0.867,1.333,0.8,2.6
												c-0.066,1-0.3,2.017-0.7,3.05c-0.9,2.633-2.1,4.534-3.6,5.7c0-0.367,0.1-1.167,0.3-2.4c0.2-1.3,0.3-2.25,0.3-2.85
												C44.8,50.833,45.767,48.8,47.5,47.4z"/>
											<path style="fill-rule:evenodd;clip-rule:evenodd;fill:#F6E7EB;" d="M43.9,58.8c-0.7-0.466-1.133-1.316-1.3-2.55
												c-0.133-1.033-0.067-2.117,0.2-3.25c0.4-1.233,1-2.367,1.8-3.4c0.867-1.033,1.816-1.767,2.85-2.2
												c-0.667,0.567-1.184,1.367-1.55,2.4c-0.2,0.534-0.433,1.483-0.7,2.85C44.9,55.217,44.467,57.267,43.9,58.8z"/>
										</g>
									</g>
								</g>
							</g>
						</g>
					</g>
				</g>
			</g>
			<g>
				<g>
					<g>
						
							<linearGradient id="SVGID_14_" gradientUnits="userSpaceOnUse" x1="-61.4814" y1="118.7754" x2="-30.7564" y2="118.7754" gradientTransform="matrix(3.254678e-005 -1 1 -0.001 1.849069e-004 4.458711e-004)">
							<stop  offset="0" style="stop-color:#CA2897"/>
							<stop  offset="0.1686" style="stop-color:#D148A0"/>
							<stop  offset="0.5255" style="stop-color:#E58FB7"/>
							<stop  offset="0.902" style="stop-color:#FDDDD1"/>
						</linearGradient>
						<path style="fill-rule:evenodd;clip-rule:evenodd;fill:url(#SVGID_14_);" d="M113.5,45.05l0.05-0.05h-0.05V45.05V45h0.05
							L113.5,45.05v0.05H113c-2.267-0.367-4.65-1.684-7.15-3.95c-1-0.833-1.85-1.8-2.55-2.9c-1.133-1.9-1.366-3.633-0.7-5.2
							c0.367-0.8,0.967-1.3,1.801-1.5c1.233-0.6,2.716-0.9,4.449-0.9c1.733-0.033,3.351,0.267,4.851,0.9
							c1.133,0.534,2.149,1.217,3.05,2.05c1.066,1,1.767,2.05,2.1,3.15c1.9,0.233,3.684,0.917,5.351,2.05
							c1.133,0.8,2.066,1.767,2.8,2.9c0.866,1.333,1.267,2.633,1.2,3.9c1.899,0.767,3.533,1.967,4.899,3.6
							c0.934,1.233,1.584,2.583,1.95,4.05c0.5,1.867,0.3,3.45-0.6,4.75c-0.467,0.667-1.117,1.033-1.95,1.1l-0.15,0.05l-0.75-0.1
							L131,58.9c-0.4,0.867-1.017,1.567-1.85,2.1c-0.4,0.233-0.801,0.367-1.2,0.4h-0.2c-0.267,0-0.533-0.05-0.8-0.15l-0.8-0.4
							c-1.867-1.434-3.367-3.717-4.5-6.85c-0.301-0.867-0.5-1.55-0.601-2.05l-0.2-0.05c-1.333-0.467-2.683-1.367-4.05-2.7
							c-0.866-0.833-1.6-1.684-2.2-2.55C114.233,46.217,113.866,45.683,113.5,45.05z"/>
						<path style="fill-rule:evenodd;clip-rule:evenodd;fill:none;stroke:#F7E0E7;stroke-width:0.25;" d="M113.5,45.05v0.05H113
							c-2.267-0.367-4.65-1.684-7.15-3.95c-1-0.833-1.85-1.8-2.55-2.9c-1.133-1.9-1.366-3.633-0.7-5.2
							c0.367-0.8,0.967-1.3,1.801-1.5c1.233-0.6,2.716-0.9,4.449-0.9c1.733-0.033,3.351,0.267,4.851,0.9
							c1.133,0.534,2.149,1.217,3.05,2.05c1.066,1,1.767,2.05,2.1,3.15c1.9,0.233,3.684,0.917,5.351,2.05
							c1.133,0.8,2.066,1.767,2.8,2.9c0.866,1.333,1.267,2.633,1.2,3.9c1.899,0.767,3.533,1.967,4.899,3.6
							c0.934,1.233,1.584,2.583,1.95,4.05c0.5,1.867,0.3,3.45-0.6,4.75c-0.467,0.667-1.117,1.033-1.95,1.1l-0.15,0.05l-0.75-0.1
							L131,58.9c-0.4,0.867-1.017,1.567-1.85,2.1c-0.4,0.233-0.801,0.367-1.2,0.4h-0.2c-0.267,0-0.533-0.05-0.8-0.15l-0.8-0.4
							c-1.867-1.434-3.367-3.717-4.5-6.85c-0.301-0.867-0.5-1.55-0.601-2.05l-0.2-0.05c-1.333-0.467-2.683-1.367-4.05-2.7
							c-0.866-0.833-1.6-1.684-2.2-2.55C114.233,46.217,113.866,45.683,113.5,45.05l0.05-0.05h-0.05V45.05z"/>
					</g>
				</g>
				<path style="fill-rule:evenodd;clip-rule:evenodd;fill:#630F50;" d="M123.1,40.3c0.934,0.667,1.733,1.483,2.4,2.45
					c0.833,1.3,1.083,2.467,0.75,3.5c-0.134,0.267-0.283,0.417-0.45,0.45l-0.1,0.05H125.6c2.367,0.4,4.384,1.6,6.051,3.6
					c0.733,0.967,1.25,1.983,1.55,3.05c0.467,1.467,0.383,2.65-0.25,3.55c-0.134,0.167-0.334,0.283-0.601,0.35l-0.05-0.05v0.05
					l-0.25-0.05c-0.7-0.133-1.434-0.45-2.2-0.95c-0.166,1.467-0.716,2.5-1.649,3.1c-0.101,0.1-0.217,0.15-0.351,0.15l-0.3-0.05
					l-0.3-0.15c-0.934-0.7-1.8-1.75-2.6-3.15c-0.534-0.934-0.95-1.883-1.25-2.85c-0.5-1.2-0.75-2.434-0.75-3.7l-0.25,0.3
					c-0.134,0.133-0.317,0.233-0.551,0.3h-0.05l-0.3-0.1c-1.866-0.667-3.684-2.217-5.45-4.65c-0.767-0.933-1.333-1.95-1.7-3.05
					l-0.199,0.45c-0.101,0.167-0.284,0.283-0.551,0.35h-0.3c-2.033-0.3-4.116-1.467-6.25-3.5c-0.934-0.8-1.684-1.683-2.25-2.65
					c-0.733-1.3-0.899-2.4-0.5-3.3c0.101-0.267,0.316-0.433,0.65-0.5H105c1.066-0.566,2.316-0.85,3.75-0.85c1.5,0,2.9,0.267,4.2,0.8
					c1.066,0.467,2.017,1.117,2.85,1.95c1.066,1.1,1.533,2.2,1.4,3.3C119.281,38.443,121.248,39.043,123.1,40.3z"/>
				<g>
					<g>
						<g>
							<g>
								<g>
									<g>
										<g>
											<linearGradient id="SVGID_15_" gradientUnits="userSpaceOnUse" x1="113.0527" y1="35.1797" x2="108.6277" y2="37.2797">
												<stop  offset="0" style="stop-color:#FB8EFE"/>
												<stop  offset="0.4863" style="stop-color:#E575C4"/>
												<stop  offset="0.7373" style="stop-color:#DB6AAB"/>
											</linearGradient>
											<path style="fill-rule:evenodd;clip-rule:evenodd;fill:url(#SVGID_15_);" d="M105.35,34.05
												c2.167-0.466,4.334,0.05,6.5,1.55c0.967,0.7,2.467,1.633,4.5,2.8c-1.767,0.5-4,0.25-6.699-0.75
												c-1.034-0.333-1.95-0.783-2.75-1.35C105.833,35.567,105.316,34.817,105.35,34.05z"/>
											<path style="fill-rule:evenodd;clip-rule:evenodd;fill:#F6E7EB;" d="M116.45,38.4c-1.634-0.566-3.5-1.517-5.601-2.85
												c-1.233-0.633-2.133-1.05-2.699-1.25c-1.034-0.367-1.983-0.466-2.851-0.3c1-0.533,2.184-0.8,3.55-0.8
												c1.301,0,2.551,0.25,3.75,0.75c1.034,0.466,1.934,1.083,2.7,1.85C116.167,36.7,116.55,37.567,116.45,38.4z"/>
										</g>
										<g>
											<linearGradient id="SVGID_16_" gradientUnits="userSpaceOnUse" x1="113.0771" y1="39.832" x2="105.1272" y2="36.757">
												<stop  offset="0" style="stop-color:#FB8EFE"/>
												<stop  offset="0.4863" style="stop-color:#E575C4"/>
												<stop  offset="0.7373" style="stop-color:#DB6AAB"/>
											</linearGradient>
											<path style="fill-rule:evenodd;clip-rule:evenodd;fill:url(#SVGID_16_);" d="M105,34.1c2.134,0.433,3.934,1.783,5.4,4.05
												c0.3,0.533,0.833,1.317,1.6,2.35s1.233,1.7,1.4,2c-1.801-0.267-3.75-1.383-5.851-3.35c-0.833-0.7-1.5-1.483-2-2.35
												C104.884,35.733,104.7,34.833,105,34.1z"/>
											<path style="fill-rule:evenodd;clip-rule:evenodd;fill:#F6E7EB;" d="M113.5,42.5c-1.167-1.067-2.517-2.667-4.05-4.8
												c-0.8-1.034-1.45-1.784-1.95-2.25c-0.8-0.733-1.634-1.184-2.5-1.35c1.134-0.1,2.316,0.117,3.55,0.65
												c1.233,0.5,2.3,1.217,3.2,2.15c0.767,0.833,1.333,1.75,1.7,2.75C113.884,40.817,113.9,41.767,113.5,42.5z"/>
										</g>
									</g>
								</g>
							</g>
						</g>
					</g>
					<g>
						<g>
							<g>
								<g>
									<g>
										<g>
											<linearGradient id="SVGID_17_" gradientUnits="userSpaceOnUse" x1="123.7637" y1="42.6494" x2="117.1387" y2="42.9994">
												<stop  offset="0" style="stop-color:#FB8EFE"/>
												<stop  offset="0.4863" style="stop-color:#E575C4"/>
												<stop  offset="0.7373" style="stop-color:#DB6AAB"/>
											</linearGradient>
											<path style="fill-rule:evenodd;clip-rule:evenodd;fill:url(#SVGID_17_);" d="M115.45,39.6c2.2-0.033,4.25,0.9,6.149,2.8
												c0.434,0.467,1.134,1.133,2.101,2c0.934,0.867,1.517,1.417,1.75,1.65c-1.834,0.1-3.983-0.583-6.45-2.05
												c-0.934-0.5-1.75-1.133-2.45-1.9C115.65,41.167,115.283,40.333,115.45,39.6z"/>
											<path style="fill-rule:evenodd;clip-rule:evenodd;fill:#F6E7EB;" d="M125.5,46c-1.333-0.767-2.967-2.05-4.9-3.85
												c-1.1-0.9-1.899-1.483-2.399-1.75c-0.934-0.566-1.851-0.85-2.75-0.85c1.1-0.333,2.3-0.383,3.6-0.15
												c1.3,0.267,2.5,0.767,3.601,1.5c0.899,0.667,1.633,1.45,2.199,2.35C125.55,44.317,125.767,45.233,125.5,46z"/>
										</g>
										<g>
											<linearGradient id="SVGID_18_" gradientUnits="userSpaceOnUse" x1="121.8789" y1="47.9199" x2="114.6539" y2="41.0449">
												<stop  offset="0" style="stop-color:#FB8EFE"/>
												<stop  offset="0.4863" style="stop-color:#E575C4"/>
												<stop  offset="0.7373" style="stop-color:#DB6AAB"/>
											</linearGradient>
											<path style="fill-rule:evenodd;clip-rule:evenodd;fill:url(#SVGID_18_);" d="M115.15,39.6c2.033,0.867,3.533,2.533,4.5,5
												c0.199,0.6,0.583,1.483,1.149,2.65c0.533,1.133,0.851,1.867,0.95,2.2c-1.767-0.633-3.467-2.1-5.1-4.4
												c-0.667-0.867-1.167-1.767-1.5-2.7C114.717,41.15,114.717,40.233,115.15,39.6z"/>
											<path style="fill-rule:evenodd;clip-rule:evenodd;fill:#F6E7EB;" d="M121.8,49.45c-0.967-1.3-1.967-3.117-3-5.45
												c-0.6-1.233-1.083-2.1-1.45-2.6c-0.633-0.867-1.366-1.483-2.199-1.85c1.133,0.133,2.25,0.583,3.35,1.35
												c1.1,0.733,2,1.65,2.7,2.75c0.566,0.967,0.95,1.967,1.149,3C122.55,47.883,122.366,48.817,121.8,49.45z"/>
										</g>
									</g>
								</g>
							</g>
						</g>
					</g>
					<g>
						<g>
							<g>
								<g>
									<g>
										<g>
											<linearGradient id="SVGID_19_" gradientUnits="userSpaceOnUse" x1="132.2285" y1="54.2998" x2="124.3035" y2="49.6498">
												<stop  offset="0" style="stop-color:#FB8EFE"/>
												<stop  offset="0.4863" style="stop-color:#E575C4"/>
												<stop  offset="0.7373" style="stop-color:#DB6AAB"/>
											</linearGradient>
											<path style="fill-rule:evenodd;clip-rule:evenodd;fill:url(#SVGID_19_);" d="M124.55,47.5
												c2.066,0.567,3.75,2.033,5.05,4.4c0.5,1.067,1.384,2.6,2.65,4.6c-1.767-0.4-3.634-1.65-5.6-3.75
												c-0.767-0.8-1.367-1.65-1.801-2.55C124.283,49.067,124.184,48.167,124.55,47.5z"/>
											<path style="fill-rule:evenodd;clip-rule:evenodd;fill:#F6E7EB;" d="M132.3,56.5c-1.2-1.267-2.399-2.967-3.6-5.1
												c-0.733-1.1-1.316-1.883-1.75-2.35c-0.767-0.8-1.566-1.333-2.4-1.6c1.134,0,2.3,0.316,3.5,0.95
												c1.167,0.6,2.167,1.4,3,2.4c0.667,0.934,1.15,1.883,1.45,2.85C132.833,54.85,132.767,55.8,132.3,56.5z"/>
										</g>
										<g>
											<linearGradient id="SVGID_20_" gradientUnits="userSpaceOnUse" x1="126.8564" y1="58.6455" x2="124.2814" y2="47.5455">
												<stop  offset="0" style="stop-color:#FB8EFE"/>
												<stop  offset="0.4863" style="stop-color:#E575C4"/>
												<stop  offset="0.7373" style="stop-color:#DB6AAB"/>
											</linearGradient>
											<path style="fill-rule:evenodd;clip-rule:evenodd;fill:url(#SVGID_20_);" d="M124.2,47.4c1.733,1.4,2.7,3.434,2.899,6.1
												c0.034,0.6,0.134,1.55,0.301,2.85c0.199,1.233,0.3,2.033,0.3,2.4c-1.5-1.133-2.7-3.033-3.601-5.7
												c-0.399-1-0.633-2.017-0.699-3.05C123.333,48.733,123.6,47.867,124.2,47.4z"/>
											<path style="fill-rule:evenodd;clip-rule:evenodd;fill:#F6E7EB;" d="M127.8,58.8c-0.5-1.4-0.95-3.45-1.35-6.15
												c-0.233-1.3-0.45-2.25-0.65-2.85c-0.366-1.033-0.899-1.833-1.6-2.4c1.066,0.434,2.017,1.167,2.85,2.2
												c0.834,1.033,1.434,2.167,1.8,3.4c0.301,1.1,0.384,2.183,0.25,3.25C128.934,57.483,128.5,58.333,127.8,58.8z"/>
										</g>
									</g>
								</g>
							</g>
						</g>
					</g>
				</g>
			</g>
		</g>
		<g>
			
				<use xlink:href="#FlashAICB_x2F_Layer_1_x2F__x3C_Path_x3E__x5F_1"  width="119.2" height="60.45" y="-60.45" transform="matrix(1 0 0 -1 26.25 22.25)" style="overflow:visible;opacity:0.1992;enable-background:new    ;"/>
			
				<use xlink:href="#FlashAICB_x2F_Layer_1_x2F__x3C_Path_x3E_"  width="119.2" height="66.434" y="-66.434" transform="matrix(1 0 0 -1 26.25 22.25)" style="overflow:visible;opacity:0.1211;enable-background:new    ;"/>
		</g>
		
			<use xlink:href="#FlashAICB_x2F_Layer_1_x2F__x3C_Path_x3E__x5F_0"  width="128.6" height="61.85" y="-61.85" transform="matrix(1 0 0 -1 21.5498 86)" style="overflow:visible;opacity:0.2813;enable-background:new    ;"/>
	</g>
</g>
</svg>
