<?xml version="1.0" encoding="iso-8859-1"?>
<!-- Generator: Adobe Illustrator 15.1.0, SVG Export Plug-In . SVG Version: 6.00 Build 0)  -->
<!DOCTYPE svg PUBLIC "-//W3C//DTD SVG 1.1//EN" "http://www.w3.org/Graphics/SVG/1.1/DTD/svg11.dtd">
<svg version="1.1" id="FlashAICB" xmlns="http://www.w3.org/2000/svg" xmlns:xlink="http://www.w3.org/1999/xlink" x="0px" y="0px"
	 width="171.75px" height="172.4px" viewBox="0 0 171.75 172.4" style="enable-background:new 0 0 171.75 172.4;"
	 xml:space="preserve">
<symbol  id="FlashAICB_x5F_0_x2F_Layer_1_x2F__x3C_Clip_Group_0_x3E_" viewBox="-0.026 -25.738 42.426 25.74">
	<g id="Layer_1_2_">
	</g>
	<g>
		<defs>
			<polygon id="SVGID_1_" points="0,0 0,-25.7 42.35,-25.7 42.35,0 			"/>
		</defs>
		<clipPath id="SVGID_2_">
			<use xlink:href="#SVGID_1_"  style="overflow:visible;"/>
		</clipPath>
		<g id="Layer_3_1_" style="clip-path:url(#SVGID_2_);">
			<path style="fill-rule:evenodd;clip-rule:evenodd;" d="M42.4-10.15c-0.033-2.5-0.783-4.883-2.25-7.15c-3.867-6-10.867-8.8-21-8.4
				C14.183-25.5,10-24.2,6.6-21.8c-3.033,2.133-5.05,4.8-6.05,8c-0.933,3.066-0.733,5.883,0.6,8.45c1.434,2.7,3.867,4.434,7.3,5.2
				c2.2,0.5,4.4-0.233,6.6-2.2c-0.3,0.133-0.5,0.217-0.6,0.25c-2.034,0.633-3.767,0.45-5.2-0.55c-1.3-0.9-2.183-2.3-2.65-4.2
				c-0.434-1.833-0.367-3.717,0.2-5.65c0.633-2.033,1.717-3.65,3.25-4.85c3.267-2.533,7.9-3.733,13.9-3.6
				c6.066,0.133,10.55,1.6,13.45,4.4c1.9,1.833,3.133,3.917,3.7,6.25c0.5,2.167,0.333,3.95-0.5,5.35
				C41.8-6.083,42.4-7.817,42.4-10.15z"/>
		</g>
	</g>
	<g id="Layer_4_1_">
	</g>
</symbol>
<symbol  id="FlashAICB_x5F_0_x2F_Layer_1_x2F__x3C_Clip_Group_0_x3E__x5F_0" viewBox="-0.026 -25.731 42.326 25.731">
	<g id="Layer_1_3_">
	</g>
	<g>
		<defs>
			<polygon id="SVGID_3_" points="0,0 0,-25.7 42.3,-25.7 42.3,0 			"/>
		</defs>
		<clipPath id="SVGID_4_">
			<use xlink:href="#SVGID_3_"  style="overflow:visible;"/>
		</clipPath>
		<g id="Layer_3_2_" style="clip-path:url(#SVGID_4_);">
			<path style="fill-rule:evenodd;clip-rule:evenodd;" d="M36.95-18.65c2.7,2.333,4.483,4.7,5.35,7.1
				c-0.466-3.867-2.417-7.117-5.85-9.75c-4.233-3.2-10-4.667-17.3-4.4C14.183-25.5,10-24.2,6.6-21.8c-3.033,2.133-5.05,4.8-6.05,8
				c-0.933,3.066-0.733,5.883,0.6,8.45c1.434,2.7,3.867,4.434,7.3,5.2C8.85-0.05,9.25,0,9.65,0l-0.2-0.05C6.217-1.05,4-2.7,2.8-5
				c-1.133-2.233-1.25-4.983-0.35-8.25c1-3.633,3.5-6.383,7.5-8.25c4.267-2,9.617-2.667,16.05-2
				C29.967-23.1,33.617-21.483,36.95-18.65z"/>
		</g>
	</g>
	<g id="Layer_4_2_">
	</g>
</symbol>
<symbol  id="FlashAICB_x5F_0_x2F_Layer_1_x2F__x3C_Clip_Group_0_x3E__x5F_1" viewBox="-0.048 -8.667 10.348 8.697">
	<g id="Layer_1_4_">
	</g>
	<g>
		<defs>
			<polygon id="SVGID_5_" points="0,0 0,-8.65 10.3,-8.65 10.3,0 			"/>
		</defs>
		<clipPath id="SVGID_6_">
			<use xlink:href="#SVGID_5_"  style="overflow:visible;"/>
		</clipPath>
		<g id="Layer_3_3_" style="clip-path:url(#SVGID_6_);">
			<path style="fill-rule:evenodd;clip-rule:evenodd;fill:#FFFFFF;" d="M5.45-2.6c0.2,1.1,0.733,1.883,1.6,2.35S8.667,0.1,9.3-0.6
				c0.867-1,1.167-2.2,0.9-3.6c-0.3-1.566-1.3-2.767-3-3.6C5.433-8.667,3.65-8.883,1.85-8.45c-1.767,0.467-2.3,1.217-1.6,2.25
				c0.4,0.6,1.383,1.167,2.95,1.7C4.567-4,5.317-3.367,5.45-2.6z"/>
		</g>
	</g>
	<g id="Layer_4_3_">
	</g>
</symbol>
<symbol  id="FlashAICB_x5F_0_x2F_Layer_1_x2F__x3C_Clip_Group_0_x3E__x5F_10" viewBox="-0.017 -15.272 22.006 15.272">
	<g id="Layer_1_13_">
	</g>
	<g>
		<defs>
			<polygon id="SVGID_7_" points="0,0 0,-15.25 21.9,-15.25 21.9,0 			"/>
		</defs>
		<clipPath id="SVGID_8_">
			<use xlink:href="#SVGID_7_"  style="overflow:visible;"/>
		</clipPath>
		<g id="Layer_3_12_" style="clip-path:url(#SVGID_8_);">
			<path style="fill-rule:evenodd;clip-rule:evenodd;fill:#FFFFFF;" d="M21.15-9.3c-1.533-2.833-4.983-4.717-10.35-5.65
				c-3.633-0.633-6.5-0.333-8.6,0.9c-1.733,1-2.45,2.167-2.15,3.5C0.25-9.75,1.233-9.2,3-8.9c1.067,0.2,3.067,0.517,6,0.95
				c2.033,0.434,3.55,1.383,4.55,2.85c0.567,0.833,1.167,2.033,1.8,3.6c0.533,0.9,1.333,1.383,2.4,1.45
				c1.3,0.133,2.383-0.617,3.25-2.25C22.267-4.767,22.317-7.1,21.15-9.3z"/>
		</g>
	</g>
	<g id="Layer_4_12_">
	</g>
</symbol>
<symbol  id="FlashAICB_x5F_0_x2F_Layer_1_x2F__x3C_Clip_Group_0_x3E__x5F_2" viewBox="-0.026 -11.8 16.693 11.8">
	<g id="Layer_1_5_">
	</g>
	<g>
		<defs>
			<polygon id="SVGID_9_" points="0,0 0,-11.8 16.65,-11.8 16.65,0 			"/>
		</defs>
		<clipPath id="SVGID_10_">
			<use xlink:href="#SVGID_9_"  style="overflow:visible;"/>
		</clipPath>
		<g id="Layer_3_4_" style="clip-path:url(#SVGID_10_);">
			<path style="fill-rule:evenodd;clip-rule:evenodd;fill:#FFFFFF;" d="M16.6-8.15c0.267-1-0.267-1.9-1.6-2.7
				c-1.6-0.933-3.767-1.167-6.5-0.7C4.433-10.85,1.817-9.4,0.65-7.2c-0.933,1.733-0.9,3.55,0.1,5.45c0.667,1.233,1.5,1.8,2.5,1.7
				C4.05-0.117,4.633-0.483,5-1.15c0.3-0.533,0.767-1.467,1.4-2.8c0.733-1.133,1.883-1.867,3.45-2.2c1.167-0.267,2.683-0.5,4.55-0.7
				C15.733-7.117,16.467-7.55,16.6-8.15z"/>
		</g>
	</g>
	<g id="Layer_4_4_">
	</g>
</symbol>
<symbol  id="FlashAICB_x5F_0_x2F_Layer_1_x2F__x3C_Clip_Group_0_x3E__x5F_3" viewBox="0 -30.65 51.379 30.682">
	<g id="Layer_1_6_">
	</g>
	<g>
		<defs>
			<polygon id="SVGID_11_" points="0,0 0,-30.65 51.3,-30.65 51.3,0 			"/>
		</defs>
		<clipPath id="SVGID_12_">
			<use xlink:href="#SVGID_11_"  style="overflow:visible;"/>
		</clipPath>
		<g id="Layer_3_5_" style="clip-path:url(#SVGID_12_);">
			<path style="fill-rule:evenodd;clip-rule:evenodd;" d="M41.1-0.15c4.133-0.934,7.083-3,8.85-6.2
				c1.633-3.066,1.867-6.433,0.7-10.1c-1.2-3.8-3.633-6.966-7.3-9.5c-4.1-2.867-9.167-4.417-15.2-4.65
				c-12.267-0.467-20.733,2.867-25.4,10c-1.8,2.7-2.7,5.533-2.7,8.5C0.017-9.333,0.733-7.267,2.2-5.9
				c-1.034-1.7-1.233-3.833-0.6-6.4c0.7-2.733,2.183-5.2,4.45-7.4c3.5-3.367,8.934-5.133,16.3-5.3
				c7.233-0.133,12.833,1.317,16.8,4.35c1.867,1.433,3.184,3.367,3.95,5.8c0.667,2.267,0.75,4.5,0.25,6.7
				c-0.567,2.267-1.633,3.933-3.2,5c-1.733,1.2-3.833,1.417-6.3,0.65c-0.1-0.033-0.333-0.133-0.7-0.3
				C35.75-0.433,38.4,0.45,41.1-0.15z"/>
		</g>
	</g>
	<g id="Layer_4_5_">
	</g>
</symbol>
<symbol  id="FlashAICB_x5F_0_x2F_Layer_1_x2F__x3C_Clip_Group_0_x3E__x5F_4" viewBox="0 -30.65 51.229 30.65">
	<g id="Layer_1_7_">
	</g>
	<g>
		<defs>
			<polygon id="SVGID_13_" points="0,0 0,-30.65 51.15,-30.65 51.15,0 			"/>
		</defs>
		<clipPath id="SVGID_14_">
			<use xlink:href="#SVGID_13_"  style="overflow:visible;"/>
		</clipPath>
		<g id="Layer_3_6_" style="clip-path:url(#SVGID_14_);">
			<path style="fill-rule:evenodd;clip-rule:evenodd;" d="M40.95-0.15c4.133-0.934,7.083-3,8.85-6.2
				c1.633-3.066,1.867-6.433,0.7-10.1c-1.2-3.8-3.633-6.966-7.3-9.5c-4.1-2.867-9.167-4.417-15.2-4.65
				c-8.8-0.333-15.767,1.4-20.9,5.2C2.967-22.3,0.6-18.433,0-13.8c1.067-2.867,3.233-5.667,6.5-8.4c4.033-3.4,8.45-5.333,13.25-5.8
				c7.767-0.767,14.233,0.033,19.4,2.4c4.833,2.233,7.85,5.5,9.05,9.8c1.1,3.9,0.966,7.167-0.4,9.8
				c-1.433,2.767-4.133,4.75-8.1,5.95L39.5,0C39.967,0,40.45-0.05,40.95-0.15z"/>
		</g>
	</g>
	<g id="Layer_4_6_">
	</g>
</symbol>
<symbol  id="FlashAICB_x5F_0_x2F_Layer_1_x2F__x3C_Clip_Group_0_x3E__x5F_5" viewBox="-0.022 -10.372 12.547 10.408">
	<g id="Layer_1_8_">
	</g>
	<g>
		<defs>
			<polygon id="SVGID_15_" points="0,0 0,-10.3 12.45,-10.3 12.45,0 			"/>
		</defs>
		<clipPath id="SVGID_16_">
			<use xlink:href="#SVGID_15_"  style="overflow:visible;"/>
		</clipPath>
		<g id="Layer_3_7_" style="clip-path:url(#SVGID_16_);">
			<path style="fill-rule:evenodd;clip-rule:evenodd;fill:#FFFFFF;" d="M5.85-3.15c0.167-0.934,1.066-1.684,2.7-2.25
				c1.9-0.633,3.1-1.317,3.6-2.05c0.867-1.2,0.233-2.083-1.9-2.65c-2.167-0.533-4.333-0.283-6.5,0.75c-2.067,1-3.283,2.434-3.65,4.3
				c-0.333,1.667,0.017,3.1,1.05,4.3C1.917,0.117,2.833,0.267,3.9-0.3C4.967-0.867,5.617-1.817,5.85-3.15z"/>
		</g>
	</g>
	<g id="Layer_4_7_">
	</g>
</symbol>
<symbol  id="FlashAICB_x5F_0_x2F_Layer_1_x2F__x3C_Clip_Group_0_x3E__x5F_6" viewBox="-0.007 -14.033 20.121 14.043">
	<g id="Layer_1_9_">
	</g>
	<g>
		<defs>
			<polygon id="SVGID_17_" points="0,0 0,-14 20.1,-14 20.1,0 			"/>
		</defs>
		<clipPath id="SVGID_18_">
			<use xlink:href="#SVGID_17_"  style="overflow:visible;"/>
		</clipPath>
		<g id="Layer_3_8_" style="clip-path:url(#SVGID_18_);">
			<path style="fill-rule:evenodd;clip-rule:evenodd;fill:#FFFFFF;" d="M2.05-12.9c-1.6,0.933-2.267,2-2,3.2
				c0.2,0.733,1.083,1.25,2.65,1.55c1,0.167,2.833,0.45,5.5,0.85c1.867,0.4,3.267,1.283,4.2,2.65c0.533,0.733,1.083,1.833,1.65,3.3
				c0.5,0.8,1.233,1.25,2.2,1.35c1.2,0.1,2.183-0.6,2.95-2.1c1.167-2.267,1.216-4.417,0.15-6.45c-1.4-2.6-4.567-4.333-9.5-5.2
				C6.55-14.317,3.95-14.033,2.05-12.9z"/>
		</g>
	</g>
	<g id="Layer_4_8_">
	</g>
</symbol>
<symbol  id="FlashAICB_x5F_0_x2F_Layer_1_x2F__x3C_Clip_Group_0_x3E__x5F_7" viewBox="0 -33.3 56.011 33.3">
	<g id="Layer_1_10_">
	</g>
	<g>
		<defs>
			<polygon id="SVGID_19_" points="0,0 0,-33.3 55.95,-33.3 55.95,0 			"/>
		</defs>
		<clipPath id="SVGID_20_">
			<use xlink:href="#SVGID_19_"  style="overflow:visible;"/>
		</clipPath>
		<g id="Layer_3_9_" style="clip-path:url(#SVGID_20_);">
			<path style="fill-rule:evenodd;clip-rule:evenodd;" d="M44.8-0.2c4.534-1,7.75-3.25,9.65-6.75c1.767-3.3,2.033-6.933,0.8-10.9
				c-1.3-4.167-3.95-7.617-7.95-10.35c-4.5-3.133-10.033-4.816-16.6-5.05C17.3-33.75,8.05-30.133,2.95-22.4
				C0.983-19.433,0-16.35,0-13.15c0,3,0.783,5.233,2.35,6.7c-1.1-1.833-1.3-4.133-0.6-6.9c0.733-3,2.333-5.683,4.8-8.05
				c3.833-3.667,9.767-5.6,17.8-5.8c7.933-0.167,14.05,1.417,18.35,4.75c2.033,1.567,3.466,3.667,4.3,6.3
				c0.733,2.467,0.817,4.9,0.25,7.3c-0.6,2.467-1.75,4.283-3.45,5.45c-1.9,1.267-4.2,1.5-6.9,0.7l-0.75-0.35
				C39.05-0.517,41.933,0.433,44.8-0.2z"/>
		</g>
	</g>
	<g id="Layer_4_9_">
	</g>
</symbol>
<symbol  id="FlashAICB_x5F_0_x2F_Layer_1_x2F__x3C_Clip_Group_0_x3E__x5F_8" viewBox="0 -33.3 55.861 33.3">
	<g id="Layer_1_11_">
	</g>
	<g>
		<defs>
			<polygon id="SVGID_21_" points="0,0 0,-33.3 55.8,-33.3 55.8,0 			"/>
		</defs>
		<clipPath id="SVGID_22_">
			<use xlink:href="#SVGID_21_"  style="overflow:visible;"/>
		</clipPath>
		<g id="Layer_3_10_" style="clip-path:url(#SVGID_22_);">
			<path style="fill-rule:evenodd;clip-rule:evenodd;" d="M44.65-0.2c4.533-1,7.75-3.25,9.65-6.75c1.767-3.3,2.034-6.933,0.8-10.9
				c-1.3-4.167-3.95-7.617-7.95-10.35c-4.5-3.133-10.033-4.816-16.6-5.05c-9.633-0.367-17.233,1.517-22.8,5.65
				C3.217-24.233,0.633-20.033,0-15c1.133-3.1,3.5-6.15,7.1-9.15c4.367-3.667,9.167-5.767,14.4-6.3c8.5-0.833,15.567,0.034,21.2,2.6
				c5.3,2.434,8.6,5.983,9.9,10.65c1.167,4.267,1,7.833-0.5,10.7c-1.533,3-4.467,5.15-8.8,6.45L43.1,0
				C43.4,0,43.917-0.067,44.65-0.2z"/>
		</g>
	</g>
	<g id="Layer_4_10_">
	</g>
</symbol>
<symbol  id="FlashAICB_x5F_0_x2F_Layer_1_x2F__x3C_Clip_Group_0_x3E__x5F_9" viewBox="-0.031 -11.233 13.711 11.286">
	<g id="Layer_1_12_">
	</g>
	<g>
		<defs>
			<polygon id="SVGID_23_" points="0,0 0,-11.2 13.6,-11.2 13.6,0 			"/>
		</defs>
		<clipPath id="SVGID_24_">
			<use xlink:href="#SVGID_23_"  style="overflow:visible;"/>
		</clipPath>
		<g id="Layer_3_11_" style="clip-path:url(#SVGID_24_);">
			<path style="fill-rule:evenodd;clip-rule:evenodd;fill:#FFFFFF;" d="M6.4-3.4c0.167-1,1.15-1.8,2.95-2.4
				c2.1-0.7,3.417-1.45,3.95-2.25c0.9-1.333,0.2-2.3-2.1-2.9c-2.367-0.566-4.733-0.283-7.1,0.85c-2.267,1.067-3.6,2.617-4,4.65
				C-0.267-3.683,0.133-2.133,1.3-0.8c0.833,0.933,1.833,1.1,3,0.5C5.433-0.933,6.133-1.967,6.4-3.4z"/>
		</g>
	</g>
	<g id="Layer_4_11_">
	</g>
</symbol>
<symbol  id="FlashAICB_x5F_0_x2F_Layer_1_x2F__x3C_Group_x3E_" viewBox="-0.017 -15.272 22.006 15.272">
	<g id="Layer_1_28_">
		<g>
			
				<use xlink:href="#FlashAICB_x5F_0_x2F_Layer_1_x2F__x3C_Clip_Group_0_x3E__x5F_10"  width="22.006" height="15.272" x="-0.017" y="-15.272" style="overflow:visible;"/>
		</g>
	</g>
</symbol>
<symbol  id="FlashAICB_x5F_0_x2F_Layer_1_x2F__x3C_Group_x3E__x5F_0" viewBox="0 -61.344 110 61.344">
	<g id="Layer_1_29_">
		<g>
			
				<use xlink:href="#FlashAICB_x5F_0_x2F_Layer_1_x2F__x3C_Path_x3E__x5F_1"  width="110" height="55.8" y="-55.8" style="overflow:visible;opacity:0.1992;enable-background:new    ;"/>
			
				<use xlink:href="#FlashAICB_x5F_0_x2F_Layer_1_x2F__x3C_Path_x3E_"  width="110" height="61.344" y="-61.344" style="overflow:visible;opacity:0.1211;enable-background:new    ;"/>
		</g>
	</g>
</symbol>
<symbol  id="FlashAICB_x5F_0_x2F_Layer_1_x2F__x3C_Group_x3E__x5F_1" viewBox="-0.031 -11.233 13.711 11.286">
	<g id="Layer_1_27_">
		<g>
			
				<use xlink:href="#FlashAICB_x5F_0_x2F_Layer_1_x2F__x3C_Clip_Group_0_x3E__x5F_9"  width="13.711" height="11.286" x="-0.031" y="-11.233" style="overflow:visible;"/>
		</g>
	</g>
</symbol>
<symbol  id="FlashAICB_x5F_0_x2F_Layer_1_x2F__x3C_Group_x3E__x5F_10" viewBox="-0.026 -25.731 42.326 25.731">
	<g id="Layer_1_18_">
		<g>
			
				<use xlink:href="#FlashAICB_x5F_0_x2F_Layer_1_x2F__x3C_Clip_Group_0_x3E__x5F_0"  width="42.326" height="25.731" x="-0.026" y="-25.731" style="overflow:visible;"/>
		</g>
	</g>
</symbol>
<symbol  id="FlashAICB_x5F_0_x2F_Layer_1_x2F__x3C_Group_x3E__x5F_11" viewBox="-0.026 -25.738 42.426 25.74">
	<g id="Layer_1_17_">
		<g>
			
				<use xlink:href="#FlashAICB_x5F_0_x2F_Layer_1_x2F__x3C_Clip_Group_0_x3E_"  width="42.426" height="25.74" x="-0.026" y="-25.738" style="overflow:visible;"/>
		</g>
	</g>
</symbol>
<symbol  id="FlashAICB_x5F_0_x2F_Layer_1_x2F__x3C_Group_x3E__x5F_2" viewBox="0 -33.3 55.861 33.3">
	<g id="Layer_1_26_">
		<g>
			
				<use xlink:href="#FlashAICB_x5F_0_x2F_Layer_1_x2F__x3C_Clip_Group_0_x3E__x5F_8"  width="55.861" height="33.3" y="-33.3" style="overflow:visible;"/>
		</g>
	</g>
</symbol>
<symbol  id="FlashAICB_x5F_0_x2F_Layer_1_x2F__x3C_Group_x3E__x5F_3" viewBox="0 -33.3 56.011 33.3">
	<g id="Layer_1_25_">
		<g>
			
				<use xlink:href="#FlashAICB_x5F_0_x2F_Layer_1_x2F__x3C_Clip_Group_0_x3E__x5F_7"  width="56.011" height="33.3" y="-33.3" style="overflow:visible;"/>
		</g>
	</g>
</symbol>
<symbol  id="FlashAICB_x5F_0_x2F_Layer_1_x2F__x3C_Group_x3E__x5F_4" viewBox="-0.007 -14.033 20.121 14.043">
	<g id="Layer_1_24_">
		<g>
			
				<use xlink:href="#FlashAICB_x5F_0_x2F_Layer_1_x2F__x3C_Clip_Group_0_x3E__x5F_6"  width="20.121" height="14.043" x="-0.007" y="-14.033" style="overflow:visible;"/>
		</g>
	</g>
</symbol>
<symbol  id="FlashAICB_x5F_0_x2F_Layer_1_x2F__x3C_Group_x3E__x5F_5" viewBox="-0.022 -10.372 12.547 10.408">
	<g id="Layer_1_23_">
		<g>
			
				<use xlink:href="#FlashAICB_x5F_0_x2F_Layer_1_x2F__x3C_Clip_Group_0_x3E__x5F_5"  width="12.547" height="10.408" x="-0.022" y="-10.372" style="overflow:visible;"/>
		</g>
	</g>
</symbol>
<symbol  id="FlashAICB_x5F_0_x2F_Layer_1_x2F__x3C_Group_x3E__x5F_6" viewBox="0 -30.65 51.229 30.65">
	<g id="Layer_1_22_">
		<g>
			
				<use xlink:href="#FlashAICB_x5F_0_x2F_Layer_1_x2F__x3C_Clip_Group_0_x3E__x5F_4"  width="51.229" height="30.65" y="-30.65" style="overflow:visible;"/>
		</g>
	</g>
</symbol>
<symbol  id="FlashAICB_x5F_0_x2F_Layer_1_x2F__x3C_Group_x3E__x5F_7" viewBox="0 -30.65 51.379 30.682">
	<g id="Layer_1_21_">
		<g>
			
				<use xlink:href="#FlashAICB_x5F_0_x2F_Layer_1_x2F__x3C_Clip_Group_0_x3E__x5F_3"  width="51.379" height="30.682" y="-30.65" style="overflow:visible;"/>
		</g>
	</g>
</symbol>
<symbol  id="FlashAICB_x5F_0_x2F_Layer_1_x2F__x3C_Group_x3E__x5F_8" viewBox="-0.026 -11.8 16.693 11.8">
	<g id="Layer_1_20_">
		<g>
			
				<use xlink:href="#FlashAICB_x5F_0_x2F_Layer_1_x2F__x3C_Clip_Group_0_x3E__x5F_2"  width="16.693" height="11.8" x="-0.026" y="-11.8" style="overflow:visible;"/>
		</g>
	</g>
</symbol>
<symbol  id="FlashAICB_x5F_0_x2F_Layer_1_x2F__x3C_Group_x3E__x5F_9" viewBox="-0.048 -8.667 10.348 8.697">
	<g id="Layer_1_19_">
		<g>
			
				<use xlink:href="#FlashAICB_x5F_0_x2F_Layer_1_x2F__x3C_Clip_Group_0_x3E__x5F_1"  width="10.348" height="8.697" x="-0.048" y="-8.667" style="overflow:visible;"/>
		</g>
	</g>
</symbol>
<symbol  id="FlashAICB_x5F_0_x2F_Layer_1_x2F__x3C_Path_x3E_" viewBox="0 -61.344 110 61.344">
	<g id="Layer_1_15_">
		<path style="fill-rule:evenodd;clip-rule:evenodd;fill:#FFFFFF;" d="M106.5-34.4c2.333-5.633,3.5-10.934,3.5-15.9
			c0-4.967-1.45-8.083-4.35-9.35c-2.333-1.067-6.25-1.067-11.75,0c-7.267,1.767-13.1,3.117-17.5,4.05c-8,1.7-15.133,2.55-21.4,2.55
			c-6.333,0-13.467-0.917-21.4-2.75c-8.333-2.2-14.167-3.684-17.5-4.45c-5.533-1.267-9.467-1.433-11.8-0.5
			c-2.867,1.2-4.3,4.267-4.3,9.2c0,5.5,1.167,11.167,3.5,17c2.467,6.167,5.95,11.733,10.45,16.7C24.65-5.95,38.333,0,55,0
			c16.467,0,30.133-6,41-18C100.467-22.9,103.967-28.367,106.5-34.4z"/>
	</g>
</symbol>
<symbol  id="FlashAICB_x5F_0_x2F_Layer_1_x2F__x3C_Path_x3E__x5F_0" viewBox="0 -57.15 118.7 57.15">
	<g id="Layer_1_16_">
		
			<radialGradient id="SVGID_25_" cx="59.3501" cy="-28.5752" r="46.5777" gradientTransform="matrix(1 0 0 -1 0 -57.1504)" gradientUnits="userSpaceOnUse">
			<stop  offset="0" style="stop-color:#C9EEE7;stop-opacity:0"/>
			<stop  offset="0.0784" style="stop-color:#C7E6DD;stop-opacity:0.0392"/>
			<stop  offset="0.2118" style="stop-color:#C1D0C0;stop-opacity:0.1451"/>
			<stop  offset="0.3882" style="stop-color:#B6AD93;stop-opacity:0.3216"/>
			<stop  offset="0.5961" style="stop-color:#A97D54;stop-opacity:0.5647"/>
			<stop  offset="0.651" style="stop-color:#A57043;stop-opacity:0.6275"/>
		</radialGradient>
		<path style="fill-rule:evenodd;clip-rule:evenodd;fill:url(#SVGID_25_);" d="M95.5-30.35c10.7,7.667,18.25,17.684,22.65,30.05
			L118.7,0c-0.6-15.9-6.633-29.4-18.1-40.5C89.067-51.6,75.3-57.15,59.3-57.15c-15.7,0-29.267,5.367-40.7,16.1
			C7.2-30.35,1-17.233,0-1.7c4.6-12,12.183-21.7,22.75-29.1c10.8-7.567,22.817-11.35,36.05-11.35
			C72.3-42.15,84.533-38.217,95.5-30.35z"/>
	</g>
</symbol>
<symbol  id="FlashAICB_x5F_0_x2F_Layer_1_x2F__x3C_Path_x3E__x5F_1" viewBox="0 -55.8 110 55.8">
	<g id="Layer_1_14_">
		
			<linearGradient id="SVGID_26_" gradientUnits="userSpaceOnUse" x1="16164.3076" y1="-52.8555" x2="16220.0527" y2="-52.8555" gradientTransform="matrix(1.792918e-005 1 -1 -0.001 1.8545 -16220.1055)">
			<stop  offset="0.1294" style="stop-color:#E5B9B2"/>
			<stop  offset="0.9255" style="stop-color:#FFFFFF"/>
		</linearGradient>
		<path style="fill-rule:evenodd;clip-rule:evenodd;fill:url(#SVGID_26_);" d="M96-18c4.467-4.9,7.967-10.367,10.5-16.4
			c2.333-5.633,3.5-10.934,3.5-15.9c0-1.767-0.167-3.25-0.5-4.45c-1.867,11.067-7.267,20.9-16.2,29.5
			C82.767-15.117,70-10.05,55-10.05c-15.267,0-28.117-5.067-38.55-15.2C7.483-33.95,2.133-44.133,0.4-55.8
			C0.133-54.533,0-53.117,0-51.55c0,5.5,1.167,11.167,3.5,17c2.467,6.167,5.95,11.733,10.45,16.7C24.65-5.95,38.333,0,55,0
			C71.467,0,85.133-6,96-18z"/>
	</g>
</symbol>
<g>
	<g>
		<path style="fill-rule:evenodd;clip-rule:evenodd;fill:#DE9E56;" d="M102.5,32.4l-0.05-11.2c-0.101-6.534-0.101-13.1,0-19.7
			l1.2,0.25c-0.167,9.133-0.034,17.233,0.399,24.3l0.101,5.9c0.1,5.4,0.316,13.466,0.649,24.2c0.066,9.267-0.483,17.184-1.649,23.75
			c-0.2,1.7-0.351,3.4-0.45,5.1c-0.267,1.7-0.434,3.467-0.5,5.3c0.2,3.033,0.649,6.584,1.35,10.65l2.15,10
			c1.533,8.066,1.967,17.633,1.3,28.7c-0.366,6.366-1.2,15.883-2.5,28.55l0.05,1.649l-0.05,0.051l-0.2-2.051
			c-0.333-1.199-0.483-2.666-0.45-4.399c0.067-1.934,0.101-3.4,0.101-4.4c1.233-10.467,2.033-18.3,2.399-23.5
			c0.601-9,0.2-16.783-1.199-23.35c-0.5-1.934-0.934-3.45-1.301-4.55c-0.566-1.733-1.183-3.417-1.85-5.051
			c-0.4-1.433-0.684-3.232-0.85-5.399c-0.134-2.467-0.233-4.283-0.301-5.45c0-1.133,0.051-2.25,0.15-3.35
			c0.134-1.534,0.267-2.667,0.4-3.4c0.066-1.566,0.166-3.1,0.3-4.6c1.066-6.1,1.483-14.017,1.25-23.75
			C102.583,42.617,102.434,34.533,102.5,32.4z"/>
		<path style="fill-rule:evenodd;clip-rule:evenodd;fill:#DE9E56;" d="M110.4,3.4l-0.45,26.8c0,4.866,0,12.167,0,21.9
			c-0.033,8.5-0.233,15.833-0.601,22L109,79c0,0.6-0.167,2.333-0.5,5.2c-0.267,2.1-0.3,3.816-0.1,5.149
			c0,3.367,0.133,6.967,0.399,10.801l0.3,3.6c1.267,8.2,1.65,18.8,1.15,31.8c-0.7,18.367-1.017,29.017-0.95,31.95v1.2l-2.85,0.75
			l0.05-3.3c1.4-13.967,2.2-23.434,2.4-28.4c0.366-10.667-0.334-20.066-2.101-28.2c-0.399-1.533-0.85-3.083-1.35-4.649
			c-0.4-1.4-0.9-2.983-1.5-4.75c-0.733-2-0.65-4.717,0.25-8.15c1.033-4.066,1.5-6.85,1.399-8.35l0.301-4.8
			C106.3,73.217,106.35,66,106.05,57.2c-0.399-12.2-0.6-19.517-0.6-21.95L105.8,2.2L110.4,3.4z"/>
		<path style="fill-rule:evenodd;clip-rule:evenodd;fill:#DE9E56;" d="M159.9,41.35l-0.15,7.3c0.1,3.633,0.533,8.684,1.3,15.15
			c0.9,7.2,1.434,12.35,1.601,15.45l0.699,45c-1.6,3.233-3.449,6.4-5.55,9.5c0-3.533,0.15-10.1,0.45-19.7l0.2-18
			c-0.033-1.633-0.134-3.283-0.3-4.95L158,85.7c0-0.534,0.05-2.483,0.15-5.85c0.066-2.233,0-4.133-0.2-5.7
			c-1.267-8.033-2.101-14.333-2.5-18.9l-0.25-4.7c-0.033-4.333,0.233-9.35,0.8-15.05C157.4,37.4,158.7,39.35,159.9,41.35z"/>
		<path style="fill-rule:evenodd;clip-rule:evenodd;fill:#DE9E56;" d="M115.35,47.85l0.101-3.4c0.166-8.833,0.283-21.934,0.35-39.3
			l1.351,0.55c0,0.533-0.134,7.3-0.4,20.3c-0.167,8.2-0.15,15,0.05,20.4l-0.1,4.1c-0.134,8.1-0.434,14.917-0.9,20.45l-0.649,9.25
			c-0.601,9.967-0.967,24.934-1.101,44.899c-0.267-11.8-0.166-20.966,0.3-27.5l0.051-3.649c0.166-6.867,0.383-13,0.649-18.4
			l0.25-10.4C115.233,58.75,115.25,52.983,115.35,47.85z"/>
		<path style="fill-rule:evenodd;clip-rule:evenodd;fill:#DE9E56;" d="M100.8,1.2c0,6.667,0.15,13.316,0.45,19.95l0.25,16.6
			c0,4.467,0.033,11.05,0.1,19.75c-0.066,7.533-0.366,14.15-0.899,19.85l-0.25,5.15c-0.5,7-0.767,11.384-0.8,13.15
			c-0.034,1.467-0.034,2.933,0,4.399l1.5,4.05c0.633,1.534,1.183,3.117,1.649,4.75c0.467,1.534,0.884,3.134,1.25,4.801
			c1.033,6.666,1.217,14.217,0.55,22.649c-0.433,5.033-1.466,12.617-3.1,22.75c-0.5,3.267-0.35,6.233,0.45,8.9l0.45,2.35l-1,0.15
			c-0.334-1.9-0.617-4.167-0.851-6.8l-0.2-4.45l1.2-7.15c1.7-10.333,2.634-17.967,2.8-22.899c0.301-8.801-0.899-16.351-3.6-22.65
			c-0.634-1.967-1.233-3.733-1.8-5.3c-0.334-1.833-0.533-3.267-0.601-4.3c-0.466-4.634-0.1-9.184,1.101-13.65l0.399-4.8
			c0.667-12.767,0.75-26.634,0.25-41.6L99.7,14.8C99.467,9.633,99.333,5.033,99.3,1L100.8,1.2z"/>
		<path style="fill-rule:evenodd;clip-rule:evenodd;fill:#DE9E56;" d="M50.5,40.8l0.95,4.55l0.8,9.85
			c-1.133-4.567-1.883-8.217-2.25-10.95c-0.333-2.133-0.133-4.617,0.6-7.45C50.333,38.3,50.3,39.633,50.5,40.8z"/>
		<path style="fill-rule:evenodd;clip-rule:evenodd;fill:#DE9E56;" d="M63.85,7.25c-0.233-0.9-0.233-2.167,0-3.8l0.05-0.4l3.45-0.85
			C67.083,4,67,5.95,67.1,8.05c0.033,1.3,0.133,2.634,0.3,4c0.5,2.134,0.75,5.5,0.75,10.1c0,6.867-0.267,26.5-0.8,58.9
			c-0.434,24.067-0.4,43.767,0.1,59.101l0.2,10.05c-0.167,2.533-0.15,5.783,0.05,9.75c0.3,5.6,0.45,8.883,0.45,9.85l-2.95-0.7
			v-33.05c0-2.166-0.167-5.3-0.5-9.399c-0.333-4.101-0.5-7.2-0.5-9.301c-0.1-7.267,0.117-21.333,0.65-42.2
			c0.467-17.733,0.417-31.8-0.15-42.2c0-0.634,0.183-1.45,0.55-2.45c0.467-1.133,0.783-1.95,0.95-2.45
			c0.2-2.767-0.017-6.216-0.65-10.35C64.717,13.1,64.15,9.617,63.85,7.25z"/>
		<path style="fill-rule:evenodd;clip-rule:evenodd;fill:#DE9E56;" d="M72.8,10.85v-9.7l4.6-0.65l0.05,16.85
			C77.684,35.25,77.633,55,77.3,76.6c-0.267,15.133-0.733,34.883-1.4,59.25c-0.033,1.367-0.017,3.4,0.05,6.101l0.4,10.649
			c0.6,9.233,0.95,15.384,1.05,18.45v0.25l-4.2-0.55c-0.067-2.767-0.233-6.184-0.5-10.25c-0.3-4.566-0.517-8-0.65-10.3l-0.25-4.4
			c-0.1-1.233-0.15-2.467-0.15-3.7L71.6,138.4c0-18.867,0.25-43.95,0.75-75.25l0.2-3.2c0.4-4,0.6-8.483,0.6-13.45
			c-0.033-2.7-0.15-7.167-0.35-13.4L73,16.5C73,14.467,72.934,12.583,72.8,10.85z"/>
		<path style="fill-rule:evenodd;clip-rule:evenodd;fill:#DE9E56;" d="M78.45,0.4l2.9-0.2l0.05,20.7c0,26.233-0.066,45.867-0.2,58.9
			c-0.233,21.7-0.7,41.317-1.4,58.851c-0.033,1.366,0,2.883,0.1,4.55c0.034,1,0.15,2.5,0.35,4.5l0.35,4.7
			c0.433,5.933,0.583,10.55,0.45,13.85l-0.1,5.35l-2.4-0.199l-1-13.15c-0.167-3.934-0.267-5.983-0.3-6.15L77.2,137.45
			c0.633-26.5,1.066-46.367,1.3-59.6c0.4-23.1,0.4-42.967,0-59.6L78.45,0.4z"/>
		<path style="fill-rule:evenodd;clip-rule:evenodd;fill:#DE9E56;" d="M82.25,0.15L83.8,0.1l0.05,26.15
			c0.167,6.333,0.25,15.767,0.25,28.3c0,12.6,0.083,22.083,0.25,28.45c0,3.033-0.333,11.783-1,26.25
			c-0.533,10.7-0.483,19.5,0.15,26.4v5c0,3.333-0.05,6.649-0.15,9.949V171.7l-1.3-0.05c0.1-5.967,0.067-12.45-0.1-19.45l-0.3-9.45
			c-0.066-2.033-0.117-3.55-0.15-4.55c-0.033-8.634,0.217-28.017,0.75-58.15c0.434-24.167,0.434-43.6,0-58.3V0.15z"/>
		<path style="fill-rule:evenodd;clip-rule:evenodd;fill:#DE9E56;" d="M68.2,4.2l0.3-2.25l3.1-0.6v13
			c-0.133,5.733-0.167,16.35-0.1,31.85c0.1,13.5-0.033,24.133-0.4,31.9c-0.333,12.4-0.5,29.284-0.5,50.65l0.25,20.5l0.1,1.25
			c0.233,5.367,0.617,11.184,1.15,17.45l0.15,2.649l-2.85-0.55c0.034-2.366-0.017-5.183-0.15-8.45c-0.167-3.767-0.3-6.649-0.4-8.649
			L68.1,137.7c-0.633-14.333-0.6-35.167,0.1-62.5c0.733-28.034,0.833-48.8,0.3-62.3c-0.133-1.433-0.233-2.9-0.3-4.4
			C68.1,7.1,68.1,5.667,68.2,4.2z"/>
		<path style="fill-rule:evenodd;clip-rule:evenodd;fill:#DE9E56;" d="M84.75,0.05L86.55,0c1.233,0,3.084,0.066,5.55,0.2v52.6
			c0.101,3.5,0.084,6.8-0.05,9.9l-0.1,4.95c-0.066,4.233-0.184,10.617-0.351,19.15l-0.05,3.851c-0.1,4.133-0.116,7.683-0.05,10.649
			l0.1,10.2c-0.166,4.367-0.116,9.917,0.15,16.65c0.366,9.066,0.566,14.6,0.6,16.6v14.05l0.351,3.25c0.233,1.8,0.733,4.934,1.5,9.4
			c-2.967,0.233-5.517,0.35-7.65,0.35l-2.4-0.05c0.2-6.2,0.35-12.35,0.45-18.45l0.05-15c-0.633-13.633-0.716-32.649-0.25-57.05
			c0.534-26.667,0.65-45.733,0.35-57.2V0.05z"/>
		<path style="fill-rule:evenodd;clip-rule:evenodd;fill:#DE9E56;" d="M92.6,87.15l0.5-16.95c0.067-12.733,0.15-20.817,0.25-24.25
			V0.3l2.2,0.2c0,12.667,0.15,25.367,0.45,38.1l0.1,4.65c0.167,3.6,0.417,8.917,0.75,15.95c0.167,5.966-0.05,11.216-0.649,15.75
			L95.25,87.8c-0.4,3.4-0.4,7.184,0,11.351l1.55,8.8c1.5,5.934,2.3,12.533,2.4,19.8c0.1,5.733-0.25,12.467-1.05,20.2l-1.25,11.5
			l0.05,3.2c0.1,2.933,0.366,5.733,0.8,8.399l-1.6,0.2c-0.733-3.333-1.25-6.35-1.551-9.05L93.55,144.1
			c-0.366-4.833-0.533-10.616-0.5-17.35c0.101-7.667,0.15-13.35,0.15-17.05L93,104.1C92.733,96.634,92.6,90.983,92.6,87.15z"/>
		<path style="fill-rule:evenodd;clip-rule:evenodd;fill:#DE9E56;" d="M95.9,0.55l2.8,0.35l0.25,35.25
			c0.133,16.2-0.017,29.4-0.45,39.6l-0.85,8.75c-0.567,4.2-0.617,8.566-0.15,13.1c0.167,1.467,0.366,2.917,0.6,4.351l1.101,4.75
			c1.934,8.467,3.017,15.95,3.25,22.45c0.3,8.267-0.667,15.783-2.9,22.55c-0.366,1.066-0.583,2.533-0.649,4.399v4.2
			c0,0.9,0.066,2.184,0.199,3.851c0.2,2.333,0.567,4.517,1.101,6.55l-0.75,0.1c-0.434-2.767-0.7-5.666-0.8-8.7L98.55,158.7l0.7-9.45
			c0.8-8.866,1.2-15.967,1.2-21.3c0-7.8-0.75-14.833-2.25-21.101L96.35,98.3c-0.533-3.899-0.6-7.416-0.199-10.55l0.75-13.8
			c0.566-8.7,0.733-19.583,0.5-32.65L97.3,36.9c-0.267-10.367-0.666-20.683-1.2-30.95L95.9,0.55z"/>
		<path style="fill-rule:evenodd;clip-rule:evenodd;fill:#DE9E56;" d="M111.15,30.2l0.399-26.45l3.3,1.1l-0.05,2.2
			c0.167,3.934,0.134,9.384-0.1,16.35c-0.267,8.034-0.384,13.534-0.351,16.5l-0.05,5.45c-0.033,2.2-0.083,5.833-0.149,10.9
			l-0.15,5.4c-0.2,6-0.384,10.534-0.55,13.6l-0.3,4.5c-0.4,4.967-0.551,10.417-0.45,16.35l0.05,3.301
			c0.033,7.133,0.283,17.866,0.75,32.199c0.3,12.9,0.05,23.7-0.75,32.4l-0.25,3.45v0.3l-2.55,0.75v-1.45
			c0.934-14.666,1.467-25.583,1.6-32.75c0.233-12.166-0.233-23.017-1.399-32.55l-0.2-3.25c-0.4-6.1-0.467-11.517-0.2-16.25L110.1,77
			C111.267,59.333,111.616,43.733,111.15,30.2z"/>
		<path style="fill-rule:evenodd;clip-rule:evenodd;fill:#DE9E56;" d="M147.8,126.9c0,7,0.067,13.3,0.2,18.899l-0.4,0.4
			C147.533,139.333,147.6,132.9,147.8,126.9z"/>
		<path style="fill-rule:evenodd;clip-rule:evenodd;fill:#DE9E56;" d="M163.65,75.65l0.3-2.8l0.649,34.4
			c-0.232,4-0.267,8.867-0.1,14.6l-0.4,0.851v-0.25c-0.066-7.233-0.05-12.684,0.051-16.351L163.65,75.65z"/>
		<path style="fill-rule:evenodd;clip-rule:evenodd;fill:#DE9E56;" d="M149.5,27.55l2.3,2.6c-0.467,8.1-0.7,15.067-0.7,20.9
			l0.851,18.25c0.267,5.267,0.434,9.667,0.5,13.2l-0.15,24.75c-0.033,3.767-0.149,9.45-0.35,17.05
			c-0.101,6.733-0.083,12.45,0.05,17.15l-2.65,2.95c-0.333-7.667-0.482-13.917-0.449-18.75c0.033-6.867,0.416-13.117,1.149-18.75
			c0.101-1.5,0.15-3,0.15-4.5c0.066-1.567,0.066-3.15,0-4.75c-0.033-1.367-0.167-2.917-0.4-4.65l-0.05-8.9
			c-0.033-5.2-0.217-13-0.55-23.4l-0.101-5.2C149.1,49.333,149.233,40.017,149.5,27.55z"/>
		<path style="fill-rule:evenodd;clip-rule:evenodd;fill:#DE9E56;" d="M168.8,69.8l-0.2-9.25c2.534,8.167,3.801,16.617,3.801,25.35
			c0,7.534-0.934,14.8-2.801,21.8L169.4,94.45C169,78.15,168.8,69.934,168.8,69.8z"/>
		<path style="fill-rule:evenodd;clip-rule:evenodd;fill:#DE9E56;" d="M152.45,30.9c1.1,1.3,2.05,2.517,2.85,3.65
			c-0.3,2.634-0.733,5.7-1.3,9.2c0,0.833-0.033,1.983-0.1,3.45c-0.033,1.267,0.116,2.433,0.449,3.5l0.351,5.2
			c0.333,3.5,0.883,8.717,1.649,15.65c0.601,6.134,0.75,11.384,0.45,15.75V112c-0.666,6.733-0.8,14.667-0.399,23.8l-3.051,3.95
			c-0.633-12.1-0.616-21.65,0.051-28.65c0.133-2,0.199-3.466,0.199-4.399l-0.1-19.3c0.066-1.267,0.066-2.567,0-3.9
			c-0.066-3-0.283-6.95-0.65-11.85c-0.433-6.2-0.699-10.1-0.8-11.7l-0.399-4.9C151.483,49.417,151.75,41.367,152.45,30.9z"/>
		<path style="fill-rule:evenodd;clip-rule:evenodd;fill:#DE9E56;" d="M124.35,31.25c0.2-10.566,0.317-17.983,0.351-22.25l0.95,0.5
			c0,4.4-0.101,11.4-0.301,21c-0.166,9.1-0.25,16.117-0.25,21.05l-0.1,24.9c0.167,2.333,0.233,4.333,0.2,6
			c0,1.733-0.083,3.716-0.25,5.95c-2.066,10.399-3.2,22.666-3.4,36.8c-0.033,3.5,0.167,15.767,0.601,36.8v2.05l-0.301,0.101
			l-0.699-7.051c-0.801-10.333-0.75-22.767,0.149-37.3c1.334-16.533,2.233-29,2.7-37.4c0.066-2.3,0.05-4.333-0.05-6.1l0.149-22.85
			C124.1,48.083,124.184,40.684,124.35,31.25z"/>
		<path style="fill-rule:evenodd;clip-rule:evenodd;fill:#DE9E56;" d="M163,48.9v-2c1.5,2.934,2.717,5.65,3.65,8.15
			c0.166,2.5,0.449,5.3,0.85,8.4l0.05,5.7c0.267,7.967,0.467,15.917,0.601,23.85v19.55c-0.834,2.533-1.617,4.667-2.351,6.4
			l-0.1-22.8c-0.066-3.4-0.3-10.984-0.7-22.75v-5.5c-0.233-1.066-0.517-2.667-0.85-4.8c-0.334-1.333-0.567-2.95-0.7-4.85
			c-0.134-2.133-0.233-3.684-0.3-4.65C163.05,52.066,163,50.5,163,48.9z"/>
		<path style="fill-rule:evenodd;clip-rule:evenodd;fill:#DE9E56;" d="M53.15,123.2c0.1,0.866,0.434,2.833,1,5.899
			c0.467,2.534,0.75,4.584,0.85,6.15C54.033,131.35,53.417,127.333,53.15,123.2z"/>
		<path style="fill-rule:evenodd;clip-rule:evenodd;fill:#DE9E56;" d="M128.3,35.05c-0.2-11.2-0.316-19.316-0.35-24.35
			c2.1,1.167,4.267,2.483,6.5,3.95c0.066,2.267,0.167,4.534,0.3,6.8c0.333,7.5,1.1,14,2.3,19.5c0.5,4.8,0.634,9.25,0.4,13.35
			c-0.9,3.6-1.417,5.75-1.55,6.45l-1.45,13.2c-0.134,1.966-0.15,4.283-0.05,6.95c0.066,1.5,0.166,3.733,0.3,6.7l0.05,3.15l-1.7,9.25
			c-3.899,18.566-3.899,36.717,0,54.45l0.65,3.149c-1.934,1.301-4.367,2.75-7.3,4.351c-0.367-2.233-0.65-3.851-0.851-4.851
			c-0.399-1.866-0.767-4-1.1-6.399c-0.434-5.8-0.767-10.967-1-15.5c0-6.533,0.533-14.467,1.6-23.8c1.334-10.4,2.25-18.2,2.75-23.4
			l0.3-3.9c0.268-4.233,0.334-8.15,0.2-11.75l0.3-12.9C128.6,53.717,128.5,45.583,128.3,35.05z"/>
		<path style="fill-rule:evenodd;clip-rule:evenodd;fill:#DE9E56;" d="M143,40.8c-0.667-7.2-1.083-12.6-1.25-16.2
			c-0.133-1.534-0.233-3.1-0.3-4.7c2.167,1.867,3.917,3.467,5.25,4.8c0.3,15.767,0.45,26.233,0.45,31.4L146.8,86.6
			c0.2,3.966,0.3,7.917,0.3,11.85v8.05c-0.866,11.033-1.116,24.684-0.75,40.95c-1.8,1.767-3.566,3.366-5.3,4.8
			c-0.399-5.667-0.816-10.767-1.25-15.3c-0.6-4.467-0.616-10.017-0.05-16.65c0.967-10.8,1.45-16.383,1.45-16.75l0.3-13.5
			c0.066-3.7,0.017-7.417-0.15-11.15l1.601-21.8C143.45,52.7,143.467,47.267,143,40.8z"/>
		<path style="fill-rule:evenodd;clip-rule:evenodd;fill:#DE9E56;" d="M126.1,32.85c0-0.467,0.067-8.15,0.2-23.05l0.65,0.35
			c0.033,5.467,0.167,13.217,0.399,23.25c0.233,10.7,0.367,18.434,0.4,23.2l-0.15,17c-0.033,2.466-0.033,6.15,0,11.05l-0.149,3.6
			c-3.4,13.1-4.733,28.75-4,46.95c0,5.333,0.333,10.5,1,15.5l1.1,11.7l-1.6,0.8l-0.351-3.15c-3.133-22.2-2.333-46.083,2.4-71.649
			c0.267-2.601,0.434-4.55,0.5-5.851c0.1-2.233,0.134-4.233,0.1-6l0.051-3.95c0.033-2.633,0.017-6.617-0.051-11.95l-0.1-4.8
			C126.2,49.25,126.066,41.583,126.1,32.85z"/>
		<path style="fill-rule:evenodd;clip-rule:evenodd;fill:#DE9E56;" d="M62.75,89.85c0.3-2.166,0.5-4.383,0.6-6.649
			c-0.3,21.934-0.05,40.75,0.75,56.45l0.05,3.85c0.067,8.467,0.067,16.9,0,25.3l-2.2-0.6c0.1-5.434,0.35-13.233,0.75-23.4l0.05-5.25
			c-0.566-11-0.933-19.233-1.1-24.7C61.35,105.35,61.717,97.017,62.75,89.85z"/>
		<path style="fill-rule:evenodd;clip-rule:evenodd;fill:#DE9E56;" d="M138.35,36.65c-0.933-9.167-1.6-16.05-2-20.65
			c1.667,1.2,3.084,2.283,4.25,3.25c0.233,7.934,0.784,14.783,1.65,20.55c0.233,2.4,0.283,5.1,0.15,8.1
			c-0.101,1.8-0.317,4.5-0.65,8.1l-0.4,4.6c-0.8,10.033-1.232,15.533-1.3,16.5l-0.8,29.35c-0.434,7.033-0.566,14.85-0.4,23.45
			c0.101,5.733,0.4,13.517,0.9,23.35L136.1,156c-0.8-9.633-1.35-17.417-1.649-23.35c-0.434-8.601-0.533-16.45-0.3-23.551l0.6-8.449
			l1.1-6.351c0.233-1.333,0.4-2.783,0.5-4.35c0.101-1.434,0.15-2.851,0.15-4.25l-0.05-2.8l2.25-25.5
			C139.134,51.566,139.017,44.65,138.35,36.65z"/>
		<path style="fill-rule:evenodd;clip-rule:evenodd;fill:#DE9E56;" d="M117.8,49.3c-0.2-5.8-0.217-13.017-0.05-21.65
			c0.233-9.6,0.366-16.783,0.4-21.55c1.8,0.667,3.467,1.383,5,2.15c0,1.333-0.15,8.434-0.45,21.3c-0.2,8.6-0.233,15.717-0.101,21.35
			l-0.3,23.5c0.067,1.5,0.067,3,0,4.5c0,1-0.066,2.5-0.2,4.5c-0.633,8.534-1.633,21.183-3,37.95
			c-0.767,14.367-0.416,27.101,1.051,38.2c0.166,1.434,0.066,3.267-0.301,5.5c-0.966,0.434-2.449,1.017-4.449,1.75l0.35-4.3
			c0.134-6.767,0.316-20.267,0.55-40.5c0.167-16.9,0.384-30.417,0.65-40.55l0.55-7.9c0.233-4.366,0.35-10.883,0.35-19.55L117.8,49.3
			z"/>
		<path style="fill-rule:evenodd;clip-rule:evenodd;fill:#DE9E56;" d="M36.85,37c-0.067-2.066-0.1-5.05-0.1-8.95
			c-0.233-1.533-0.633-3.25-1.2-5.15c-0.033-0.167-0.533-1.8-1.5-4.9l2.05-1.55c1,6.167,1.617,10.167,1.85,12
			c0.533,4.533,0.667,8.583,0.4,12.15l-0.25,4.8c-0.167,2.667-0.467,6.667-0.9,12c-0.367,4.667-0.567,8.6-0.6,11.8l0.1,4.25
			c0.033,5.533,0.283,19.05,0.75,40.55l0.1,4.5c0.167,5.2,0.15,10.233-0.05,15.1l-0.85,22.15c-1.8-1.3-3.05-2.25-3.75-2.85
			l0.05-10.351c0.566-7,0.85-17.333,0.85-31L33.75,68.4c0-3.466,0.367-7.95,1.1-13.45c1-7.467,1.566-11.95,1.7-13.45
			C36.717,40,36.817,38.5,36.85,37z"/>
		<path style="fill-rule:evenodd;clip-rule:evenodd;fill:#DE9E56;" d="M58.6,4.7v0.75c-0.067,2.267,0.617,6.033,2.05,11.3
			c1.267,4.7,1.633,8.467,1.1,11.3c-0.3,1.467-0.867,3.667-1.7,6.6c-0.566,2.6-0.65,4.817-0.25,6.65
			c1.634,10.367,2.267,22.684,1.9,36.95c-0.2,8.167-0.667,20.384-1.4,36.65c0,2.399,0.317,6.083,0.95,11.05
			c0.667,4.899,0.983,8.616,0.95,11.149l-0.05,5.101c-0.267,3.6-0.433,7.899-0.5,12.899c-0.066,2.867-0.133,7.184-0.2,12.95
			c-1.534-0.467-3.8-1.267-6.8-2.399c0.4-5.567,0.7-9.75,0.9-12.551c0.367-4.933,0.583-9.083,0.65-12.449
			c0.066-1.467,0.066-2.9,0-4.301c-0.067-1.767-0.667-6.149-1.8-13.149c-0.9-5.434-1.066-9.833-0.5-13.2
			c1.7-10.5,2.35-21.083,1.95-31.75l0.05-1.65c0-2.667-0.283-5.667-0.85-9c-0.8-7.167-2-14.583-3.6-22.25l-0.5-5.55
			c-0.133-1.1-0.133-2.517,0-4.25l0.4-1.25c0.233-0.667,0.95-2.333,2.15-5c0.934-2.1,1.567-3.833,1.9-5.2
			c0.567-2.434,0.267-5.233-0.9-8.4c-1.566-3.534-2.65-6.217-3.25-8.05C53.783,6.483,56.233,5.5,58.6,4.7z"/>
		<path style="fill-rule:evenodd;clip-rule:evenodd;fill:#DE9E56;" d="M33.15,44.7c0.133-1.5,0.2-3.217,0.2-5.15
			c-0.267-5.133-0.95-11.566-2.05-19.3l1.4-1.2c0.6,3.667,1.45,7.317,2.55,10.95c0.434,1.434,0.633,3.15,0.6,5.15
			c0,1.133-0.05,2.833-0.15,5.1c-0.133,1.633-0.333,3.316-0.6,5.05c-0.4,2.8-1.1,7-2.1,12.6c-0.767,4.967-1.083,9.233-0.95,12.8
			l0.05,5.25c0.367,4.066,0.517,8.833,0.45,14.3c-0.033,3.167-0.133,7.867-0.3,14.1l-0.05,4.7c-0.034,1.434,0.033,7.3,0.2,17.601
			c0.133,7.133-0.15,12.983-0.85,17.55l-0.1,7.55L29.4,150l-0.1-2.95c-0.366-2.166-0.6-3.816-0.7-4.95
			c-0.233-1.966-0.133-3.683,0.3-5.149c0.867-4.2,1.434-8.783,1.7-13.75c0.167-3.4,0.2-8.017,0.1-13.851
			c-0.167-1.399-0.267-2.783-0.3-4.149c-0.033-1.434-0.05-4.967-0.05-10.601C30.383,90.2,30.267,86.667,30,84l-0.2-15.2
			c-0.033-2-0.05-3.483-0.05-4.45c0-1.733,0.2-3.2,0.6-4.4C31.817,55.117,32.75,50.033,33.15,44.7z"/>
		<path style="fill-rule:evenodd;clip-rule:evenodd;fill:#DE9E56;" d="M13.8,77.05l0.3-10.65c0.367-9.867,0.467-18.867,0.3-27
			c1.233-1.933,2.45-3.683,3.65-5.25c0.2,7.067,0.083,18.684-0.35,34.85l-0.1,4.75c-0.233,9.167-0.35,17.033-0.35,23.6
			c-0.033,1.534-0.033,3.101,0,4.7c-0.066,1-0.1,6.351-0.1,16.05c-0.033,6.367-0.533,11.684-1.5,15.95l-0.05,0.2
			c-1-1.434-1.95-2.934-2.85-4.5l0.1-1.35c0.566-8.334,0.8-16.584,0.7-24.75L13.5,99.2C13.5,94.233,13.6,86.85,13.8,77.05z"/>
		<path style="fill-rule:evenodd;clip-rule:evenodd;fill:#DE9E56;" d="M44.3,36.85c0.867-5,1.35-9.317,1.45-12.95
			c0.1-4.667-0.4-8.9-1.5-12.7c1.767-1,3.567-1.95,5.4-2.85c1.9,4.566,2.15,10.767,0.75,18.6c-1.566,8.833-2.033,14.917-1.4,18.25
			c0.2,1.133,0.867,4.55,2,10.25c0.833,4.133,1.467,7.517,1.9,10.15c0.7,13.233,0.9,25.817,0.6,37.75l-0.55,2.7
			c-0.9,4.8-1.067,10.2-0.5,16.2c0.667,4.134,1.1,7.066,1.3,8.8c0.367,3.267,0.5,6.15,0.4,8.65l-0.1,3.899
			c-0.1,2.867-0.316,6.4-0.65,10.601c-0.167,2.366-0.433,5.899-0.8,10.6c-2.1-0.933-4-1.85-5.7-2.75l0.35-7.05
			c0.3-5.3,0.4-9.967,0.3-14l-0.1-3.55c-0.534-2.7-0.917-5.283-1.15-7.75c-0.667-9.7-0.316-20.45,1.05-32.25V97.3L48.5,87.4
			c0.7-5.434,0.684-11.234-0.05-17.4c-0.567-4.934-1.684-10.75-3.35-17.45c-0.5-1.767-0.883-3.417-1.15-4.95
			C43.917,44.367,44.033,40.783,44.3,36.85z"/>
		<path style="fill-rule:evenodd;clip-rule:evenodd;fill:#DE9E56;" d="M0.75,90c0.1-3.5,0.15-7.033,0.15-10.6
			c0.633-8.267,2.45-16.35,5.45-24.25l-0.95,50.6c0.167,2.867,0.217,5.75,0.15,8.65C2.75,106.533,1.15,98.4,0.75,90z"/>
		<path style="fill-rule:evenodd;clip-rule:evenodd;fill:#DE9E56;" d="M40.1,38.75l-0.15-5.25c-0.067-2.566-0.383-5.583-0.95-9.05
			c-0.7-3.967-1.217-6.95-1.55-8.95c1.867-1.3,3.55-2.4,5.05-3.3c0.567,4.066,0.883,8.9,0.95,14.5c0,3.233-0.05,8.066-0.15,14.5
			c-0.4,4.3-0.3,8.083,0.3,11.35l0.15,0.5c0.233,2.833,0.833,6.767,1.8,11.8c1.067,5.566,1.733,9.483,2,11.75
			c0.567,5.167,0.4,9.75-0.5,13.75c-1.133,7.434-1.833,15.351-2.1,23.75c-0.2,6.5-0.15,14.351,0.15,23.551V161.1
			c-1.967-1.066-4.083-2.35-6.35-3.85l0.15-13.65c0.067-3.933,0.05-7.482-0.05-10.649l0.1-13.25c0.066-3.7,0.183-20.333,0.35-49.9
			l-0.05-5.1C39.95,54.867,40.233,46.217,40.1,38.75z"/>
		<path style="fill-rule:evenodd;clip-rule:evenodd;fill:#DE9E56;" d="M20.2,37.25L20,31.7c0.967-1.2,2.184-2.6,3.65-4.2l0.55,3.85
			c0.1,1.2,0.183,2.933,0.25,5.2c0.1,4.134-0.184,10.167-0.85,18.1c-0.633,8.1-0.934,14.1-0.9,18l0.2,30.85
			c0.034,2.667,0.2,6.75,0.5,12.25c0.1,4.767-0.367,8.566-1.4,11.4c-0.7,2.3-1.05,4.8-1.05,7.5c0,2.033,0.216,4.483,0.65,7.35
			c-1.633-1.833-3.184-3.783-4.65-5.85c0.066-1.434,0.283-2.801,0.65-4.101c0.933-3.467,1.283-8.217,1.05-14.25
			c-0.267-7.333-0.267-12.233,0-14.7l-0.1-5.449c-0.066-5.233-0.017-11.8,0.15-19.7l0.25-10.3c0.033-3.167,0.267-8.233,0.7-15.2
			C20.05,45.883,20.233,40.816,20.2,37.25z"/>
		<path style="fill-rule:evenodd;clip-rule:evenodd;fill:#DE9E56;" d="M8.05,73l0.15-9.85c-0.1-2.7-0.117-6.8-0.05-12.3
			c1.567-3.467,3.233-6.65,5-9.55c0,2.767-0.05,6.934-0.15,12.5c-0.066,5.034-0.05,9.284,0.05,12.75L12.8,76.8
			c-0.3,8.3-0.466,15.417-0.5,21.351l-0.05,4.25c-0.267,2.8-0.35,6.683-0.25,11.649c0.067,5.3,0.017,9.15-0.15,11.55l-0.2,2.301
			c-1.466-2.601-2.816-5.334-4.05-8.2c0-0.3-0.083-2.9-0.25-7.8c-0.1-3.167-0.083-5.817,0.05-7.95l0.05-3.851
			C7.717,88.1,7.917,79.066,8.05,73z"/>
		<path style="fill-rule:evenodd;clip-rule:evenodd;fill:#DE9E56;" d="M27.25,39.5c0.1-1.533,0.15-3.066,0.15-4.6
			c-0.867-2.8-1.633-5.767-2.3-8.9l0.85-0.9c0.3,1.4,0.816,3.466,1.55,6.2c0.267,1.733,0.45,3.284,0.55,4.65
			c0.367,5.1,0,9.816-1.1,14.15c-0.967,4.2-1.617,7.383-1.95,9.55c-0.467,3.5-0.517,6.633-0.15,9.4c0.1,1.4,0.15,2.784,0.15,4.15
			l0.35,33.05c0.167,4.3-0.033,10.75-0.6,19.35c-0.566,8.534-0.75,14.95-0.55,19.25l-2.1-2.25c-0.2-2.1-0.233-4.133-0.1-6.1
			c0.067-1.434,0.517-6.75,1.35-15.95c0.566-6.467,0.733-11.85,0.5-16.149L24,72.15c-0.333-4.333,0-9.816,1-16.45
			C26.367,46.4,27.117,41,27.25,39.5z"/>
		<path style="fill-rule:evenodd;clip-rule:evenodd;fill:#DE9E56;" d="M29.85,37.55c0.066-1.633,0.017-3.283-0.15-4.95
			c-0.8-2.467-1.6-5.4-2.4-8.8l2.6-2.35c0.5,2.866,1.15,5.716,1.95,8.55c0.4,1.467,0.583,3.184,0.55,5.15c0,1.133-0.066,2.8-0.2,5
			c-0.1,1.633-0.25,3.317-0.45,5.05c-0.1,1.066-0.667,5.25-1.7,12.55c-0.7,5.066-1.1,9.233-1.2,12.5l0.2,15.65
			c-0.066,2.034,0,4.917,0.2,8.65c0.167,4,0.25,6.9,0.25,8.7l-0.15,3.5c0.066,13.934-0.25,24.667-0.95,32.2
			c-0.533,2.667-0.417,5.1,0.35,7.3l0.2,3.3c-0.9-0.8-2.217-2.066-3.95-3.8c-0.4-2.6-0.633-4.383-0.7-5.35
			c-0.2-2.033-0.15-3.834,0.15-5.4c0.966-3.533,1.4-8.184,1.3-13.95c-0.1-7.267-0.033-11.933,0.2-14v-36.6
			c0.167-0.9,0.083-2.267-0.25-4.1c-0.333-1.833-0.417-3.15-0.25-3.95c1.433-5.533,2.417-9.683,2.95-12.45
			C29.333,45.35,29.817,41.217,29.85,37.55z"/>
		<path style="fill-rule:evenodd;clip-rule:evenodd;fill:#DE9E56;" d="M6.45,101.25L6.6,117.2l-0.35-0.75
			c0.2-3.601,0.233-7.066,0.1-10.4l0.05-4.5c0.046-1.758,0.096-3.458,0.15-5.1C6.526,97.998,6.493,99.598,6.45,101.25z"/>
		<path style="fill-rule:evenodd;clip-rule:evenodd;fill:#DE9E56;" d="M63.25,23.1c0.4-2.267,0.217-4.85-0.55-7.75
			c-1.1-3.267-1.883-5.684-2.35-7.25C60.083,7,59.867,5.75,59.7,4.35l2.55-0.8L62.3,5.5c0.067,1.133,0.217,2.25,0.45,3.35
			c1.3,6.633,1.95,13.85,1.95,21.65c-0.233,8.967-0.6,22.417-1.1,40.35c-0.5-10.534-0.85-18.45-1.05-23.75
			C62.15,37.7,62.383,29.7,63.25,23.1z"/>
		<path style="fill-rule:evenodd;clip-rule:evenodd;fill:#B46A20;" d="M0.65,85.9c0-1.933,0.083-4.1,0.25-6.5
			c0,3.567-0.05,7.1-0.15,10.6L0.65,85.9z"/>
		<path style="fill-rule:evenodd;clip-rule:evenodd;fill:#B46A20;" d="M6.35,55.15L7.4,52.5v3.1c-0.1,2.367-0.15,3.583-0.15,3.65
			l-0.1,10.6c-0.133,7.066-0.383,17.633-0.75,31.7l-0.05,4.5c0.133,3.334,0.1,6.8-0.1,10.4l-0.7-2.05
			c0.067-2.9,0.017-5.783-0.15-8.65L6.35,55.15z"/>
		<path style="fill-rule:evenodd;clip-rule:evenodd;fill:#B46A20;" d="M7.15,69.55L7.4,52.5l0.75-1.65
			c-0.066,5.5-0.05,9.6,0.05,12.3L8.05,73c-0.133,6.066-0.333,15.1-0.6,27.1L7.4,103.95c-0.133,2.133-0.15,4.783-0.05,7.95
			c0.167,4.899,0.25,7.5,0.25,7.8l-1-2.5l-0.15-15.95C6.817,87.15,7.05,76.583,7.15,69.55z"/>
		<path style="fill-rule:evenodd;clip-rule:evenodd;fill:#B46A20;" d="M12.8,76.8l0.25-10.25c-0.1-3.466-0.116-7.716-0.05-12.75
			c0.1-5.566,0.15-9.733,0.15-12.5l1.25-1.9c0.167,8.133,0.067,17.133-0.3,27l-0.3,10.65c-0.2,9.8-0.3,17.184-0.3,22.15l0.05,4.45
			c0.1,8.166-0.133,16.416-0.7,24.75l-0.1,1.35l-1.1-1.85l0.2-2.301c0.167-2.399,0.217-6.25,0.15-11.55
			c-0.1-4.967-0.017-8.85,0.25-11.649l0.05-4.25C12.333,92.217,12.5,85.1,12.8,76.8z"/>
		<path style="fill-rule:evenodd;clip-rule:evenodd;fill:#B46A20;" d="M20,31.7l0.2,5.55c0.033,3.566-0.15,8.633-0.55,15.2
			c-0.433,6.966-0.667,12.033-0.7,15.2l-0.25,10.3c-0.167,7.9-0.217,14.467-0.15,19.7l0.1,5.449c-0.267,2.467-0.267,7.367,0,14.7
			c0.233,6.033-0.117,10.783-1.05,14.25c-0.367,1.3-0.583,2.667-0.65,4.101l-1.35-1.9l0.05-0.2c0.967-4.267,1.467-9.583,1.5-15.95
			c0-9.699,0.034-15.05,0.1-16.05c-0.033-1.6-0.033-3.166,0-4.7c0-6.566,0.117-14.433,0.35-23.6L17.7,69
			c0.433-16.167,0.55-27.783,0.35-34.85C18.95,32.983,19.6,32.167,20,31.7z"/>
		<path style="fill-rule:evenodd;clip-rule:evenodd;fill:#B46A20;" d="M24.45,36.55c-0.067-2.267-0.15-4-0.25-5.2l-0.55-3.85
			L25.1,26c0.667,3.133,1.433,6.1,2.3,8.9c0,1.534-0.05,3.067-0.15,4.6C27.117,41,26.367,46.4,25,55.7
			c-1,6.633-1.333,12.116-1,16.45l-0.15,32.25c0.233,4.3,0.066,9.683-0.5,16.149c-0.833,9.2-1.283,14.517-1.35,15.95
			c-0.133,1.967-0.1,4,0.1,6.1l-0.5-0.6c-0.434-2.866-0.65-5.316-0.65-7.35c0-2.7,0.35-5.2,1.05-7.5c1.033-2.834,1.5-6.634,1.4-11.4
			c-0.3-5.5-0.466-9.583-0.5-12.25l-0.2-30.85c-0.034-3.9,0.267-9.9,0.9-18C24.267,46.717,24.55,40.684,24.45,36.55z"/>
		<path style="fill-rule:evenodd;clip-rule:evenodd;fill:#B46A20;" d="M28.05,35.95c-0.1-1.367-0.283-2.917-0.55-4.65
			c-0.733-2.733-1.25-4.8-1.55-6.2l1.35-1.3c0.8,3.4,1.6,6.333,2.4,8.8c0.167,1.667,0.216,3.316,0.15,4.95
			c-0.033,3.667-0.517,7.8-1.45,12.4c-0.533,2.767-1.517,6.917-2.95,12.45c-0.167,0.8-0.083,2.117,0.25,3.95
			c0.333,1.833,0.417,3.2,0.25,4.1v36.6c-0.233,2.067-0.3,6.733-0.2,14c0.1,5.767-0.333,10.417-1.3,13.95
			c-0.3,1.566-0.35,3.367-0.15,5.4c0.067,0.967,0.3,2.75,0.7,5.35l-0.8-0.9c-0.2-4.3-0.017-10.716,0.55-19.25
			c0.567-8.6,0.767-15.05,0.6-19.35L25,73.2c0-1.367-0.05-2.75-0.15-4.15c-0.367-2.767-0.317-5.9,0.15-9.4
			c0.333-2.167,0.983-5.35,1.95-9.55C28.05,45.767,28.417,41.05,28.05,35.95z"/>
		<path style="fill-rule:evenodd;clip-rule:evenodd;fill:#B46A20;" d="M32.2,40.15c0.133-2.2,0.2-3.867,0.2-5
			c0.034-1.966-0.15-3.683-0.55-5.15c-0.8-2.833-1.45-5.684-1.95-8.55l1.4-1.2c1.1,7.733,1.784,14.167,2.05,19.3
			c0,1.934-0.067,3.65-0.2,5.15c-0.4,5.333-1.333,10.417-2.8,15.25c-0.4,1.2-0.6,2.667-0.6,4.4c0,0.966,0.017,2.45,0.05,4.45L30,84
			c0.267,2.667,0.383,6.2,0.35,10.6c0,5.634,0.017,9.167,0.05,10.601c0.034,1.366,0.133,2.75,0.3,4.149
			c0.1,5.834,0.066,10.45-0.1,13.851c-0.267,4.967-0.833,9.55-1.7,13.75c-0.433,1.467-0.533,3.184-0.3,5.149
			c0.1,1.134,0.333,2.784,0.7,4.95l0.1,2.95l-0.45-0.45l-0.2-3.3c-0.767-2.2-0.883-4.633-0.35-7.3c0.7-7.533,1.017-18.267,0.95-32.2
			l0.15-3.5c0-1.8-0.083-4.7-0.25-8.7c-0.2-3.733-0.267-6.616-0.2-8.65l-0.2-15.65c0.1-3.267,0.5-7.434,1.2-12.5
			c1.034-7.3,1.6-11.483,1.7-12.55C31.95,43.467,32.1,41.783,32.2,40.15z"/>
		<path style="fill-rule:evenodd;clip-rule:evenodd;fill:#B46A20;" d="M32.7,19.05L34.05,18c0.967,3.1,1.467,4.733,1.5,4.9
			c0.567,1.9,0.967,3.617,1.2,5.15c0,3.9,0.033,6.884,0.1,8.95c-0.033,1.5-0.133,3-0.3,4.5c-0.133,1.5-0.7,5.983-1.7,13.45
			c-0.733,5.5-1.1,9.983-1.1,13.45l0.05,43.15c0,13.667-0.283,24-0.85,31L32.9,152.9l-1.45-1.15l0.1-7.55
			c0.7-4.566,0.983-10.417,0.85-17.55c-0.167-10.301-0.233-16.167-0.2-17.601l0.05-4.7c0.167-6.232,0.267-10.933,0.3-14.1
			c0.067-5.467-0.083-10.233-0.45-14.3l-0.05-5.25c-0.133-3.567,0.184-7.833,0.95-12.8c1-5.6,1.7-9.8,2.1-12.6
			c0.267-1.733,0.467-3.417,0.6-5.05c0.1-2.267,0.15-3.967,0.15-5.1c0.033-2-0.167-3.716-0.6-5.15
			C34.15,26.367,33.3,22.717,32.7,19.05z"/>
		<path style="fill-rule:evenodd;clip-rule:evenodd;fill:#B46A20;" d="M39.8,38.9c0.034-2.4,0.05-4.216,0.05-5.45
			c-0.033-2.2-0.25-4-0.65-5.4c-0.833-4.167-1.45-8.333-1.85-12.5l0.1-0.05c0.333,2,0.85,4.983,1.55,8.95
			c0.567,3.466,0.883,6.483,0.95,9.05l0.15,5.25c0.133,7.467-0.15,16.117-0.85,25.95l0.05,5.1c-0.167,29.567-0.283,46.2-0.35,49.9
			l-0.1,13.25c0.1,3.167,0.117,6.717,0.05,10.649l-0.15,13.65l-1.15-0.8l0.4-7l0.3-29.15c-0.033-3.7,0.083-12.116,0.35-25.25
			c0.167-10.5,0.133-18.917-0.1-25.25L38.5,65c0.033-2.833,0.184-6.45,0.45-10.85c0.4-6.566,0.617-10.2,0.65-10.9L39.8,38.9z"/>
		<path style="fill-rule:evenodd;clip-rule:evenodd;fill:#B46A20;" d="M38.35,40.6c0.267-3.567,0.133-7.617-0.4-12.15
			c-0.233-1.833-0.85-5.833-1.85-12L36.75,16c1.267,6.667,2,10.8,2.2,12.4c0.6,4.733,0.667,8.967,0.2,12.7l-0.45,4.6
			c-0.633,6.133-1,9.983-1.1,11.55c-0.3,4.3-0.317,8.1-0.05,11.4l0.25,52.3c-0.1,3.033-0.116,6.566-0.05,10.6l-0.3,24.75l-0.8-0.55
			l0.85-22.15c0.2-4.866,0.217-9.899,0.05-15.1l-0.1-4.5c-0.467-21.5-0.717-35.017-0.75-40.55l-0.1-4.25
			c0.033-3.2,0.233-7.134,0.6-11.8c0.433-5.333,0.733-9.333,0.9-12L38.35,40.6z"/>
		<path style="fill-rule:evenodd;clip-rule:evenodd;fill:#B46A20;" d="M39.15,41.1c0.467-3.733,0.4-7.967-0.2-12.7
			c-0.2-1.6-0.934-5.733-2.2-12.4l0.6-0.45c0.4,4.167,1.017,8.333,1.85,12.5c0.4,1.4,0.617,3.2,0.65,5.4
			c0,1.233-0.017,3.05-0.05,5.45l-0.2,4.35c-0.033,0.7-0.25,4.333-0.65,10.9c-0.267,4.4-0.417,8.017-0.45,10.85l0.05,4.8
			c0.233,6.333,0.267,14.75,0.1,25.25c-0.267,13.134-0.383,21.55-0.35,25.25L38,149.45l-0.35,3.45l0.1-21.351
			c-0.066-4.033-0.05-7.566,0.05-10.6l-0.25-52.3c-0.267-3.3-0.25-7.1,0.05-11.4c0.1-1.566,0.467-5.417,1.1-11.55L39.15,41.1z"/>
		<path style="fill-rule:evenodd;clip-rule:evenodd;fill:#B46A20;" d="M43.3,41.2c0.1-6.434,0.15-11.267,0.15-14.5
			c-0.067-5.6-0.383-10.434-0.95-14.5l0.5-0.3c0.967,5.967,1.5,9.383,1.6,10.25c0.233,2.667,0.167,5.867-0.2,9.6
			C44.2,33.85,43.833,37,43.3,41.2z"/>
		<path style="fill-rule:evenodd;clip-rule:evenodd;fill:#B46A20;" d="M44.3,36.85c-0.267,3.933-0.383,7.517-0.35,10.75
			c-0.467-2.6-0.583-5.034-0.35-7.3L44.3,36.85z"/>
		<path style="fill-rule:evenodd;clip-rule:evenodd;fill:#B46A20;" d="M46.475,106.25c-0.614,8.398-0.672,16.215-0.175,23.45
			c-0.5-4.9-0.616-10.267-0.35-16.101C46.05,111.384,46.225,108.934,46.475,106.25z"/>
		<path style="fill-rule:evenodd;clip-rule:evenodd;fill:#B46A20;" d="M47.05,90.35c0.9-4,1.067-8.583,0.5-13.75
			c-0.267-2.267-0.933-6.184-2-11.75c-0.966-5.034-1.566-8.967-1.8-11.8l1.8,7.35c1.167,6.733,1.884,11.1,2.15,13.1
			c0.233,2.5,0.35,4.684,0.35,6.55c0.1,4.5-0.55,13.851-1.95,28.05c-1.167,11.768-1.2,21.284-0.1,28.551l-0.35,24.75L45.1,161.1
			V137.65c-0.3-9.2-0.35-17.051-0.15-23.551C45.217,105.7,45.917,97.783,47.05,90.35z"/>
		<path style="fill-rule:evenodd;clip-rule:evenodd;fill:#B46A20;" d="M48.35,88.9c0.367-4.601,0.15-9.734-0.65-15.4
			c-0.333-3.633-1.05-8-2.15-13.1c-0.733-4.333-1.216-7.6-1.45-9.8l-0.15-3c0.267,1.533,0.65,3.183,1.15,4.95
			c1.667,6.7,2.783,12.517,3.35,17.45c0.733,6.167,0.75,11.967,0.05,17.4L48.35,88.9z"/>
		<path style="fill-rule:evenodd;clip-rule:evenodd;fill:#B46A20;" d="M44.3,36.85c0.434-7.1,0.65-11.35,0.65-12.75
			c0.1-4.8-0.2-9.067-0.9-12.8l0.2-0.1c1.1,3.8,1.6,8.033,1.5,12.7C45.65,27.533,45.167,31.85,44.3,36.85z"/>
		<path style="fill-rule:evenodd;clip-rule:evenodd;fill:#B46A20;" d="M43.6,51.6l0.15,1.45l-0.15-0.5
			c-0.6-3.267-0.7-7.05-0.3-11.35C43.3,45.367,43.4,48.833,43.6,51.6z"/>
		<path style="fill-rule:evenodd;clip-rule:evenodd;fill:#B46A20;" d="M47,140.7l-0.05-4.55c-0.267-1.9-0.483-4.051-0.65-6.45
			c0.233,2.467,0.617,5.05,1.15,7.75l0.1,3.55c0.1,4.033,0,8.7-0.3,14l-0.35,7.05l-0.45-0.2l0.1-3
			C46.85,149.783,47,143.733,47,140.7z"/>
		<path style="fill-rule:evenodd;clip-rule:evenodd;fill:#B46A20;" d="M48.05,80.05c0-1.866-0.116-4.05-0.35-6.55
			c0.8,5.667,1.017,10.8,0.65,15.4l-1,8.399v0.15c-0.733,6.333-1.2,11.717-1.4,16.149c-0.267,5.834-0.15,11.2,0.35,16.101
			c0.167,2.399,0.384,4.55,0.65,6.45L47,140.7c0,3.033-0.15,9.083-0.45,18.149l-0.1,3l-0.8-0.449L46,136.65
			c-1.1-7.267-1.066-16.783,0.1-28.551C47.5,93.9,48.15,84.55,48.05,80.05z"/>
		<path style="fill-rule:evenodd;clip-rule:evenodd;fill:#B46A20;" d="M43.3,41.2c0.534-4.2,0.9-7.35,1.1-9.45
			c0.367-3.733,0.434-6.934,0.2-9.6c-0.1-0.867-0.633-4.283-1.6-10.25l1.05-0.6c0.7,3.733,1,8,0.9,12.8c0,1.4-0.217,5.65-0.65,12.75
			l-0.7,3.45c-0.233,2.267-0.117,4.7,0.35,7.3l0.15,3c0.233,2.2,0.717,5.466,1.45,9.8l-1.8-7.35L43.6,51.6
			C43.4,48.833,43.3,45.367,43.3,41.2z"/>
		<path style="fill-rule:evenodd;clip-rule:evenodd;fill:#B46A20;" d="M55.9,76.6l-0.05,1.65c-0.133-2.967-0.4-6.517-0.8-10.65
			C55.617,70.934,55.9,73.934,55.9,76.6z"/>
		<path style="fill-rule:evenodd;clip-rule:evenodd;fill:#B46A20;" d="M52.85,14.9c0.433,2.833,0.333,6.35-0.3,10.55
			c-0.366,2.3-0.883,5.616-1.55,9.95l-0.4,1.4c-0.733,2.833-0.934,5.317-0.6,7.45c0.367,2.733,1.117,6.383,2.25,10.95l0.65,10.4
			c-0.433-2.633-1.066-6.017-1.9-10.15c-1.133-5.7-1.8-9.117-2-10.25c-0.633-3.333-0.167-9.417,1.4-18.25
			c1.4-7.833,1.15-14.034-0.75-18.6l0.95-0.4l0.2,0.65c0.2,0.333,0.45,0.85,0.75,1.55L52.85,14.9z"/>
		<path style="fill-rule:evenodd;clip-rule:evenodd;fill:#B46A20;" d="M55.1,136.7c0,1.667-0.05,3.316-0.15,4.95
			c-0.133,3.133-0.367,7.033-0.7,11.699c-0.2,2.601-0.5,6.518-0.9,11.75l-0.75-0.3c0.367-4.7,0.633-8.233,0.8-10.6
			c0.333-4.2,0.55-7.733,0.65-10.601l0.1-3.899c0.1-2.5-0.033-5.384-0.4-8.65c-0.2-1.733-0.633-4.666-1.3-8.8
			c-0.567-6-0.4-11.4,0.5-16.2l0.55-2.7l-0.05,2.75c-0.367,4.167-0.534,8.018-0.5,11.551v0.199c-0.133,1.567-0.067,3.351,0.2,5.351
			c0.267,4.133,0.883,8.149,1.85,12.05L55.1,136.7z"/>
		<path style="fill-rule:evenodd;clip-rule:evenodd;fill:#B46A20;" d="M51.45,45.35c1.6,7.667,2.8,15.083,3.6,22.25
			c-0.4-2.3-1.333-6.434-2.8-12.4L51.45,45.35z"/>
		<path style="fill-rule:evenodd;clip-rule:evenodd;fill:#B46A20;" d="M50.5,40.8c-0.2-1.167-0.167-2.5,0.1-4l0.35-1.25
			c-0.133,1.733-0.133,3.15,0,4.25l0.5,5.55L50.5,40.8z"/>
		<path style="fill-rule:evenodd;clip-rule:evenodd;fill:#B46A20;" d="M54.95,90.5c0.466-4.934,0.767-9.017,0.9-12.25
			C56.25,88.917,55.6,99.5,53.9,110c-0.566,3.367-0.4,7.767,0.5,13.2c1.133,7,1.733,11.383,1.8,13.149
			c0.066,1.4,0.066,2.834,0,4.301c-0.067,3.366-0.284,7.517-0.65,12.449c-0.2,2.801-0.5,6.983-0.9,12.551l-0.75-0.301
			c0.434-5.433,0.733-9.5,0.9-12.199c0.3-4.667,0.467-8.733,0.5-12.2l-0.1-5.05l-0.2-0.65c-0.1-1.566-0.383-3.616-0.85-6.15
			c-0.566-3.066-0.9-5.033-1-5.899c-0.133-1.634-0.2-3.483-0.2-5.55l0.85-16C54.4,98.117,54.783,94.4,54.95,90.5z"/>
		<path style="fill-rule:evenodd;clip-rule:evenodd;fill:#B46A20;" d="M52.9,65.6c1.567,9.6,2.25,17.9,2.05,24.9l-1.45,12.85
			C53.8,91.417,53.6,78.833,52.9,65.6z"/>
		<path style="fill-rule:evenodd;clip-rule:evenodd;fill:#B46A20;" d="M51.55,10.15L51,7.75l0.25-0.1
			c0.6,1.833,1.684,4.517,3.25,8.05c1.167,3.167,1.467,5.966,0.9,8.4c-0.333,1.367-0.966,3.1-1.9,5.2
			c-1.125,2.5-1.825,4.125-2.1,4.875c1.37-4.164,2.204-6.872,2.5-8.125c0.3-1.833,0.333-3.75,0.1-5.75
			c-0.2-1.466-0.583-3.267-1.15-5.4C52.583,13.133,52.15,11.55,51.55,10.15z"/>
		<path style="fill-rule:evenodd;clip-rule:evenodd;fill:#B46A20;" d="M53.9,26.05c-0.3,1.267-1.15,4.017-2.55,8.25L51,35.4
			c0.667-4.333,1.184-7.65,1.55-9.95c0.634-4.2,0.733-7.717,0.3-10.55c0.566,2.133,0.95,3.934,1.15,5.4
			C54.233,22.3,54.2,24.217,53.9,26.05z"/>
		<path style="fill-rule:evenodd;clip-rule:evenodd;fill:#B46A20;" d="M52.9,65.6l-0.65-10.4c1.467,5.966,2.4,10.1,2.8,12.4
			c0.4,4.133,0.667,7.683,0.8,10.65c-0.133,3.233-0.434,7.316-0.9,12.25C55.15,83.5,54.467,75.2,52.9,65.6z"/>
		<path style="fill-rule:evenodd;clip-rule:evenodd;fill:#B46A20;" d="M55.2,135.9l0.1,5.05c-0.033,3.467-0.2,7.533-0.5,12.2
			c-0.167,2.699-0.466,6.767-0.9,12.199l-0.55-0.25c0.4-5.232,0.7-9.149,0.9-11.75c0.333-4.666,0.567-8.566,0.7-11.699
			c0.1-1.634,0.15-3.283,0.15-4.95l-0.1-1.45L55.2,135.9z"/>
		<path style="fill-rule:evenodd;clip-rule:evenodd;fill:#B46A20;" d="M51,7.75l0.55,2.4C51.25,9.45,51,8.934,50.8,8.6l-0.2-0.65
			L51,7.75z"/>
		<path style="fill-rule:evenodd;clip-rule:evenodd;fill:#B46A20;" d="M62.7,15.35c0.767,2.9,0.95,5.483,0.55,7.75
			c-0.867,6.6-1.1,14.6-0.7,24c0.2,5.3,0.55,13.216,1.05,23.75L63.35,83.2c-0.1,2.267-0.3,4.483-0.6,6.649
			c-1.033,7.167-1.4,15.5-1.1,25c0.167,5.467,0.534,13.7,1.1,24.7l-0.05,5.25c-0.4,10.167-0.65,17.967-0.75,23.4l-0.5-0.15
			c0.066-5.767,0.133-10.083,0.2-12.95c0.067-5,0.233-9.3,0.5-12.899l0.05-5.101c0.033-2.533-0.284-6.25-0.95-11.149
			c-0.633-4.967-0.95-8.65-0.95-11.05c0.733-16.267,1.2-28.484,1.4-36.65c0.367-14.267-0.267-26.583-1.9-36.95
			c-0.4-1.833-0.316-4.05,0.25-6.65c0.833-2.933,1.4-5.133,1.7-6.6c0.533-2.833,0.167-6.6-1.1-11.3
			c-1.433-5.267-2.117-9.033-2.05-11.3V4.7l1.1-0.35c0.167,1.4,0.383,2.65,0.65,3.75C60.817,9.667,61.6,12.083,62.7,15.35z"/>
		<path style="fill-rule:evenodd;clip-rule:evenodd;fill:#B46A20;" d="M62.3,5.5l-0.05-1.95l1.65-0.5l-0.05,0.4
			c-0.233,1.633-0.233,2.9,0,3.8c0.3,2.367,0.867,5.85,1.7,10.45c0.634,4.133,0.85,7.583,0.65,10.35
			c-0.167,0.5-0.483,1.317-0.95,2.45c-0.367,1-0.55,1.816-0.55,2.45c0.566,10.4,0.617,24.466,0.15,42.2
			c-0.533,20.867-0.75,34.933-0.65,42.2c0,2.101,0.167,5.2,0.5,9.301c0.333,4.1,0.5,7.233,0.5,9.399v33.05l-1.05-0.3
			c0.067-8.399,0.067-16.833,0-25.3l-0.05-3.85c-0.8-15.7-1.05-34.517-0.75-56.45c0.267-3.8,0.35-7.917,0.25-12.35
			c0.5-17.934,0.867-31.383,1.1-40.35c0-7.8-0.65-15.017-1.95-21.65C62.517,7.75,62.367,6.633,62.3,5.5z"/>
		<path style="fill-rule:evenodd;clip-rule:evenodd;fill:#B46A20;" d="M67.1,8.05C67,5.95,67.083,4,67.35,2.2l1.15-0.25L68.2,4.2
			c-0.1,1.466-0.1,2.9,0,4.3c0.066,1.5,0.167,2.967,0.3,4.4c0.533,13.5,0.434,34.267-0.3,62.3c-0.7,27.333-0.733,48.167-0.1,62.5
			l0.75,15.25c0.1,2,0.233,4.883,0.4,8.649c0.133,3.268,0.184,6.084,0.15,8.45l-1.25-0.25c0-0.967-0.15-4.25-0.45-9.85
			c-0.2-3.967-0.217-7.217-0.05-9.75l-0.2-10.05c-0.5-15.334-0.534-35.033-0.1-59.101c0.533-32.4,0.8-52.033,0.8-58.9
			c0-4.6-0.25-7.966-0.75-10.1C67.233,10.684,67.133,9.35,67.1,8.05z"/>
		<path style="fill-rule:evenodd;clip-rule:evenodd;fill:#B46A20;" d="M71.5,46.2c-0.066-15.5-0.033-26.117,0.1-31.85v-0.8
			l0.05,0.95c0.333,14.867,0.284,33.883-0.15,57.05c-0.195,11.049-0.403,20.558-0.625,28.525C70.858,91.625,70.934,84.3,71.1,78.1
			C71.467,70.333,71.6,59.7,71.5,46.2z"/>
		<path style="fill-rule:evenodd;clip-rule:evenodd;fill:#B46A20;" d="M72.6,14.55V1.15h0.2v9.7c0.134,1.733,0.2,3.617,0.2,5.65
			l-0.2,16.6C72.533,24.9,72.467,18.717,72.6,14.55z"/>
		<polygon style="fill-rule:evenodd;clip-rule:evenodd;fill:#B46A20;" points="71.6,8.1 71.6,1.35 71.8,1.3 71.8,6.05 		"/>
		<path style="fill-rule:evenodd;clip-rule:evenodd;fill:#B46A20;" d="M71.65,143.45c-0.039-1.17-0.072-2.069-0.1-2.7v-3.45
			c-0.133-16.467-0.2-28.816-0.2-37.05c0-14.467,0.333-26.833,1-37.1c-0.5,31.3-0.75,56.383-0.75,75.25l0.05,3.699
			C71.65,142.551,71.65,143.001,71.65,143.45z M71.7,144.25c0.024,0.517,0.058,1.033,0.1,1.55l0.25,4.4
			c0.134,2.3,0.35,5.733,0.65,10.3c0.267,4.066,0.433,7.483,0.5,10.25l-0.15-0.05v-0.3c-0.667-6.134-1.083-13.101-1.25-20.9
			L71.7,144.25z"/>
		<path style="fill-rule:evenodd;clip-rule:evenodd;fill:#B46A20;" d="M72.8,33.1c0.2,6.233,0.317,10.7,0.35,13.4
			c0,4.967-0.2,9.45-0.6,13.45l-0.2,3.2L72.8,33.1z"/>
		<path style="fill-rule:evenodd;clip-rule:evenodd;fill:#B46A20;" d="M71.8,6.05V1.3l0.8-0.15v13.4
			c-0.133,4.167-0.067,10.35,0.2,18.55l-0.45,30.05c-0.667,10.267-1,22.633-1,37.1c0,8.233,0.066,20.583,0.2,37.05v3.45
			c0.034,0.767,0.083,1.934,0.15,3.5l0.1,5.25c0.167,7.8,0.583,14.767,1.25,20.9v0.3L72.3,170.6l-1.35-20.1l-0.35-21.75
			c0.033-6,0.333-25.066,0.9-57.2c0.434-23.167,0.483-42.183,0.15-57.05L71.6,8.1L71.8,6.05z"/>
		<path style="fill-rule:evenodd;clip-rule:evenodd;fill:#B46A20;" d="M77.4,0.5l1.05-0.1l0.05,17.85c0.4,16.633,0.4,36.5,0,59.6
			c-0.233,13.233-0.667,33.1-1.3,59.6l0.05,14.649c0.033,0.167,0.133,2.217,0.3,6.15l1,13.15L77.4,171.3v-0.25
			c-0.1-3.066-0.45-9.217-1.05-18.45l-0.4-10.649c-0.067-2.7-0.083-4.733-0.05-6.101c0.667-24.366,1.133-44.116,1.4-59.25
			c0.333-21.6,0.384-41.35,0.15-59.25L77.4,0.5z"/>
		<path style="fill-rule:evenodd;clip-rule:evenodd;fill:#B46A20;" d="M81.35,0.2l0.9-0.05v21.6c0.434,14.7,0.434,34.133,0,58.3
			c-0.533,30.134-0.783,49.517-0.75,58.15c0.033,1,0.083,2.517,0.15,4.55l0.3,9.45c0.167,7,0.2,13.483,0.1,19.45l-1.1-0.051
			l0.1-5.35c0.134-3.3-0.017-7.917-0.45-13.85l-0.35-4.7c-0.2-2-0.316-3.5-0.35-4.5c-0.1-1.667-0.133-3.184-0.1-4.55
			c0.7-17.533,1.167-37.15,1.4-58.851c0.133-13.033,0.2-32.667,0.2-58.9L81.35,0.2z"/>
		<path style="fill-rule:evenodd;clip-rule:evenodd;fill:#B46A20;" d="M83.8,0.1l0.95-0.05v24c0.3,11.467,0.184,30.534-0.35,57.2
			c-0.466,24.4-0.383,43.417,0.25,57.05l-0.05,15c-0.1,6.101-0.25,12.25-0.45,18.45c-0.167-0.033-0.433-0.05-0.8-0.05V150.6
			c0.1-3.3,0.15-6.616,0.15-9.949v-5c-0.633-6.9-0.683-15.7-0.15-26.4c0.667-14.467,1-23.217,1-26.25
			c-0.167-6.367-0.25-15.85-0.25-28.45c0-12.533-0.083-21.966-0.25-28.3L83.8,0.1z"/>
		<path style="fill-rule:evenodd;clip-rule:evenodd;fill:#B46A20;" d="M92.1,0.2l1.25,0.1v45.65c-0.1,3.433-0.183,11.517-0.25,24.25
			l-0.5,16.95c0,3.833,0.134,9.483,0.4,16.949l0.2,5.601c0,3.7-0.05,9.383-0.15,17.05c-0.033,6.733,0.134,12.517,0.5,17.35
			L94.6,162.2c0.301,2.7,0.817,5.717,1.551,9.05l-1.95,0.2c-0.767-4.467-1.267-7.601-1.5-9.4l-0.351-3.25v-14.05
			c-0.033-2-0.233-7.533-0.6-16.6c-0.267-6.733-0.316-12.283-0.15-16.65l-0.1-10.2c-0.066-2.967-0.05-6.517,0.05-10.649L91.6,86.8
			c0.167-8.533,0.284-14.917,0.351-19.15l0.1-4.95c0.134-3.1,0.15-6.4,0.05-9.9V0.2z"/>
		<path style="fill-rule:evenodd;clip-rule:evenodd;fill:#B46A20;" d="M95.55,0.5L95.9,0.55l0.199,5.4
			c0.534,10.267,0.934,20.583,1.2,30.95l0.101,4.4c0.233,13.067,0.066,23.95-0.5,32.65l-0.75,13.8
			c-0.4,3.134-0.334,6.65,0.199,10.55l1.851,8.55c1.5,6.268,2.25,13.301,2.25,21.101c0,5.333-0.4,12.434-1.2,21.3l-0.7,9.45
			l0.101,3.399c0.1,3.034,0.366,5.934,0.8,8.7l-1.7,0.25c-0.434-2.666-0.7-5.467-0.8-8.399l-0.05-3.2l1.25-11.5
			c0.8-7.733,1.149-14.467,1.05-20.2c-0.101-7.267-0.9-13.866-2.4-19.8l-1.55-8.8c-0.4-4.167-0.4-7.95,0-11.351l0.95-12.85
			c0.6-4.534,0.816-9.784,0.649-15.75c-0.333-7.034-0.583-12.35-0.75-15.95L96,38.6C95.7,25.867,95.55,13.167,95.55,0.5z"/>
		<path style="fill-rule:evenodd;clip-rule:evenodd;fill:#B46A20;" d="M99.7,14.8l0.399,22.05c0.5,14.966,0.417,28.833-0.25,41.6
			l-0.399,4.8c-1.2,4.467-1.566,9.017-1.101,13.65c0.067,1.033,0.267,2.467,0.601,4.3c0.566,1.566,1.166,3.333,1.8,5.3
			c2.7,6.3,3.9,13.85,3.6,22.65c-0.166,4.933-1.1,12.566-2.8,22.899l-1.2,7.15l0.2,4.45c0.233,2.633,0.517,4.899,0.851,6.8
			l-1.2,0.25c-0.533-2.033-0.9-4.217-1.101-6.55c-0.133-1.667-0.199-2.95-0.199-3.851v-4.2c0.066-1.866,0.283-3.333,0.649-4.399
			c2.233-6.767,3.2-14.283,2.9-22.55c-0.233-6.5-1.316-13.983-3.25-22.45l-1.101-4.75c-0.233-1.434-0.433-2.884-0.6-4.351
			c-0.467-4.533-0.417-8.899,0.15-13.1l0.85-8.75c0.434-10.2,0.583-23.4,0.45-39.6L98.7,0.9L99.3,1
			C99.333,5.033,99.467,9.633,99.7,14.8z"/>
		<path style="fill-rule:evenodd;clip-rule:evenodd;fill:#B46A20;" d="M101.5,37.75l-0.25-16.6c-0.3-6.633-0.45-13.283-0.45-19.95
			l1.65,0.3c-0.101,6.6-0.101,13.167,0,19.7l0.05,11.2c-0.066,2.133,0.083,10.217,0.45,24.25c0.233,9.733-0.184,17.65-1.25,23.75
			c-0.134,1.5-0.233,3.034-0.3,4.6c-0.134,0.733-0.267,1.867-0.4,3.4c-0.1,1.1-0.15,2.217-0.15,3.35
			c0.067,1.167,0.167,2.983,0.301,5.45c0.166,2.167,0.449,3.967,0.85,5.399c0.667,1.634,1.283,3.317,1.85,5.051
			c0.367,1.1,0.801,2.616,1.301,4.55c1.399,6.566,1.8,14.35,1.199,23.35c-0.366,5.2-1.166,13.033-2.399,23.5
			c0,1-0.033,2.467-0.101,4.4c-0.033,1.733,0.117,3.2,0.45,4.399l0.2,2.051l-2.1,0.399l-0.45-2.35c-0.8-2.667-0.95-5.634-0.45-8.9
			c1.634-10.133,2.667-17.717,3.1-22.75c0.667-8.433,0.483-15.983-0.55-22.649c-0.366-1.667-0.783-3.267-1.25-4.801
			c-0.467-1.633-1.017-3.216-1.649-4.75l-1.5-4.05c-0.034-1.467-0.034-2.933,0-4.399c0.033-1.767,0.3-6.15,0.8-13.15l0.25-5.15
			c0.533-5.7,0.833-12.317,0.899-19.85C101.533,48.8,101.5,42.217,101.5,37.75z"/>
		<path style="fill-rule:evenodd;clip-rule:evenodd;fill:#B46A20;" d="M105.8,2.2l-0.35,33.05c0,2.434,0.2,9.75,0.6,21.95
			c0.3,8.8,0.25,16.017-0.149,21.65l-0.301,4.8c0.101,1.5-0.366,4.284-1.399,8.35c-0.9,3.434-0.983,6.15-0.25,8.15
			c0.6,1.767,1.1,3.35,1.5,4.75c0.5,1.566,0.95,3.116,1.35,4.649c1.767,8.134,2.467,17.533,2.101,28.2c-0.2,4.967-1,14.434-2.4,28.4
			l-0.05,3.3l-1.9,0.399l-0.05-1.649c1.3-12.667,2.134-22.184,2.5-28.55c0.667-11.067,0.233-20.634-1.3-28.7l-2.15-10
			c-0.7-4.066-1.149-7.617-1.35-10.65c0.066-1.833,0.233-3.6,0.5-5.3c0.1-1.7,0.25-3.4,0.45-5.1
			c1.166-6.566,1.716-14.483,1.649-23.75c-0.333-10.733-0.55-18.8-0.649-24.2l-0.101-5.9c-0.434-7.066-0.566-15.167-0.399-24.3
			L105.8,2.2z"/>
		<path style="fill-rule:evenodd;clip-rule:evenodd;fill:#B46A20;" d="M111.55,3.75L111.15,30.2
			c0.466,13.533,0.116,29.133-1.051,46.8l-0.35,5.25c-0.267,4.733-0.2,10.15,0.2,16.25l0.2,3.25
			c1.166,9.533,1.633,20.384,1.399,32.55c-0.133,7.167-0.666,18.084-1.6,32.75v1.45l-0.65,0.2v-1.2
			c-0.066-2.934,0.25-13.583,0.95-31.95c0.5-13,0.116-23.6-1.15-31.8l-0.3-3.6c-0.267-3.834-0.399-7.434-0.399-10.801
			c-0.2-1.333-0.167-3.05,0.1-5.149c0.333-2.867,0.5-4.6,0.5-5.2l0.35-4.9c0.367-6.167,0.567-13.5,0.601-22c0-9.733,0-17.034,0-21.9
			l0.45-26.8L111.55,3.75z"/>
		<path style="fill-rule:evenodd;clip-rule:evenodd;fill:#B46A20;" d="M114.35,39.9c-0.033-2.966,0.084-8.466,0.351-16.5
			c0.233-6.966,0.267-12.417,0.1-16.35l0.05-2.2l0.95,0.3c-0.066,17.367-0.184,30.467-0.35,39.3l-0.101,3.4
			c-0.1,5.133-0.116,10.9-0.05,17.3l-0.25,10.4c-0.267,5.4-0.483,11.533-0.649,18.4L114.35,97.6c-0.466,6.534-0.566,15.7-0.3,27.5
			c-0.066,19.733-0.267,33.851-0.6,42.351l-0.95,0.3v-0.3l0.25-3.45c0.8-8.7,1.05-19.5,0.75-32.4
			c-0.467-14.333-0.717-25.066-0.75-32.199L112.7,96.1c-0.101-5.933,0.05-11.383,0.45-16.35l0.3-4.5c0.166-3.066,0.35-7.6,0.55-13.6
			l0.15-5.4c0.066-5.066,0.116-8.7,0.149-10.9L114.35,39.9z"/>
		<path style="fill-rule:evenodd;clip-rule:evenodd;fill:#B46A20;" d="M116.8,46.4c-0.2-5.4-0.217-12.2-0.05-20.4
			c0.267-13,0.4-19.767,0.4-20.3l1,0.4c-0.034,4.767-0.167,11.95-0.4,21.55c-0.167,8.633-0.15,15.85,0.05,21.65l0.05,4.7
			c0,8.667-0.116,15.184-0.35,19.55l-0.55,7.9c-0.267,10.133-0.483,23.649-0.65,40.55c-0.233,20.233-0.416,33.733-0.55,40.5
			l-0.35,4.3L113.6,167.4c0.167-0.867,0.267-1.733,0.301-2.601c0.466-5.767,0.666-12.383,0.6-19.85c0-2.066-0.15-8.684-0.45-19.851
			c0.134-19.966,0.5-34.933,1.101-44.899l0.649-9.25c0.467-5.534,0.767-12.35,0.9-20.45L116.8,46.4z"/>
		<path style="fill-rule:evenodd;clip-rule:evenodd;fill:#B46A20;" d="M114.05,125.1c0.3,11.167,0.45,17.784,0.45,19.851
			c0.066,7.467-0.134,14.083-0.6,19.85c-0.034,0.867-0.134,1.733-0.301,2.601l-0.149,0.05
			C113.783,158.95,113.983,144.833,114.05,125.1z"/>
		<path style="fill-rule:evenodd;clip-rule:evenodd;fill:#B46A20;" d="M122.7,29.55c0.3-12.866,0.45-19.966,0.45-21.3L124.7,9
			c-0.033,4.267-0.15,11.684-0.351,22.25c-0.166,9.434-0.25,16.833-0.25,22.2L123.95,76.3c0.1,1.767,0.116,3.8,0.05,6.1
			c-0.467,8.4-1.366,20.867-2.7,37.4c-0.899,14.533-0.95,26.967-0.149,37.3l0.699,7.051l-2,0.899c0.367-2.233,0.467-4.066,0.301-5.5
			c-1.467-11.1-1.817-23.833-1.051-38.2c1.367-16.767,2.367-29.416,3-37.95c0.134-2,0.2-3.5,0.2-4.5c0.067-1.5,0.067-3,0-4.5
			l0.3-23.5C122.467,45.267,122.5,38.15,122.7,29.55z"/>
		<path style="fill-rule:evenodd;clip-rule:evenodd;fill:#B46A20;" d="M125.35,30.5c0.2-9.6,0.301-16.6,0.301-21l0.649,0.3
			c-0.133,14.9-0.2,22.583-0.2,23.05c-0.033,8.733,0.101,16.4,0.4,23l0.1,4.8c0.067,5.333,0.084,9.317,0.051,11.95l-0.051,3.95
			c0.034,1.767,0,3.767-0.1,6c-0.066,1.3-0.233,3.25-0.5,5.851c-4.733,25.566-5.533,49.449-2.4,71.649l0.351,3.15l-1.8,0.85V162
			c-0.434-21.033-0.634-33.3-0.601-36.8c0.2-14.134,1.334-26.4,3.4-36.8c0.167-2.234,0.25-4.217,0.25-5.95
			c0.033-1.667-0.033-3.667-0.2-6l0.1-24.9C125.1,46.617,125.184,39.6,125.35,30.5z"/>
		<path style="fill-rule:evenodd;clip-rule:evenodd;fill:#B46A20;" d="M127.35,33.4c-0.232-10.033-0.366-17.783-0.399-23.25l1,0.55
			c0.033,5.033,0.149,13.15,0.35,24.35c0.2,10.534,0.3,18.667,0.3,24.4l-0.3,12.9c0.134,3.6,0.067,7.517-0.2,11.75l-0.3,3.9
			c-0.5,5.2-1.416,13-2.75,23.4c-1.066,9.333-1.6,17.267-1.6,23.8c-0.733-18.2,0.6-33.851,4-46.95l0.149-3.6
			c-0.033-4.9-0.033-8.583,0-11.05l0.15-17C127.717,51.833,127.583,44.1,127.35,33.4z"/>
		<path style="fill-rule:evenodd;clip-rule:evenodd;fill:#B46A20;" d="M124.45,150.7c0.333,2.399,0.7,4.533,1.1,6.399
			c0.2,1,0.483,2.617,0.851,4.851l-0.851,0.45L124.45,150.7z"/>
		<path style="fill-rule:evenodd;clip-rule:evenodd;fill:#B46A20;" d="M124.45,150.7c-0.667-5-1-10.167-1-15.5
			C123.684,139.733,124.017,144.9,124.45,150.7z"/>
		<path style="fill-rule:evenodd;clip-rule:evenodd;fill:#B46A20;" d="M134.7,87.6c-0.134-2.966-0.233-5.2-0.3-6.7
			c-0.101-2.667-0.084-4.983,0.05-6.95l1.45-13.2c0.133-0.7,0.649-2.85,1.55-6.45L135.1,74.45c0.268,3.733,0.301,7.616,0.101,11.65
			l-0.3,3.8l-0.15,0.85L134.7,87.6z"/>
		<path style="fill-rule:evenodd;clip-rule:evenodd;fill:#B46A20;" d="M135.75,92.7l0.7-9.8l0.05,2.8c0,1.399-0.05,2.816-0.15,4.25
			c-0.1,1.566-0.267,3.017-0.5,4.35l-1.1,6.351C134.983,98.283,135.316,95.634,135.75,92.7z"/>
		<path style="fill-rule:evenodd;clip-rule:evenodd;fill:#B46A20;" d="M134.75,21.45c0.167,2.633,0.384,4.983,0.65,7.05
			c0.899,6.4,1.449,10.55,1.649,12.45C135.85,35.45,135.083,28.95,134.75,21.45z"/>
		<path style="fill-rule:evenodd;clip-rule:evenodd;fill:#B46A20;" d="M134.75,100.65l-0.6,8.449
			c-0.233,7.101-0.134,14.95,0.3,23.551c0.3,5.933,0.85,13.717,1.649,23.35l-0.649,0.45c-0.533-5.634-1.384-11.3-2.55-17
			c-0.867-4.733-1.134-10.033-0.801-15.9c0.134-2.666,0.65-7.833,1.551-15.5L134.75,100.65z"/>
		<path style="fill-rule:evenodd;clip-rule:evenodd;fill:#B46A20;" d="M134.75,90.75l-0.05,1.35l-1.65,9.7
			c-3.133,18.867-3.133,36.417,0,52.65c-3.899-17.733-3.899-35.884,0-54.45L134.75,90.75z"/>
		<path style="fill-rule:evenodd;clip-rule:evenodd;fill:#B46A20;" d="M137.05,40.95l0.8,3.3c0.667,2.7,0.534,6.05-0.399,10.05
			C137.684,50.2,137.55,45.75,137.05,40.95z"/>
		<path style="fill-rule:evenodd;clip-rule:evenodd;fill:#B46A20;" d="M137.7,33.65c-0.767-7.9-1.3-13.833-1.601-17.8l0.25,0.15
			c0.4,4.6,1.067,11.483,2,20.65c0.667,8,0.784,14.917,0.351,20.75l-2.25,25.5l-0.05-5.65L137.8,59c0.033-0.8,0.2-2.033,0.5-3.7
			c0.334-1.633,0.5-2.866,0.5-3.7C138.667,46.767,138.3,40.783,137.7,33.65z"/>
		<path style="fill-rule:evenodd;clip-rule:evenodd;fill:#B46A20;" d="M136.1,15.85c0.301,3.966,0.834,9.9,1.601,17.8
			c0.6,7.133,0.967,13.117,1.1,17.95c0,0.833-0.166,2.066-0.5,3.7c-0.3,1.667-0.467,2.9-0.5,3.7L136.4,77.25l0.05,5.65l-0.7,9.8
			c-0.434,2.934-0.767,5.583-1,7.95l-1.1,7.399c-0.9,7.667-1.417,12.834-1.551,15.5c-0.333,5.867-0.066,11.167,0.801,15.9
			c1.166,5.7,2.017,11.366,2.55,17l-1.65,1.1l-0.75-3.1c-3.133-16.233-3.133-33.783,0-52.65l1.65-9.7l0.05-1.35l0.15-0.85l0.3-3.8
			c0.2-4.034,0.167-7.917-0.101-11.65l2.351-20.15c0.934-4,1.066-7.35,0.399-10.05l-0.8-3.3c-0.2-1.9-0.75-6.05-1.649-12.45
			c-0.267-2.066-0.483-4.417-0.65-7.05l-0.2-6.7L136.1,15.85z"/>
		<path style="fill-rule:evenodd;clip-rule:evenodd;fill:#B46A20;" d="M142.4,47.9c0.133-3,0.083-5.7-0.15-8.1
			c-0.866-5.767-1.417-12.616-1.65-20.55l0.851,0.65c0.066,1.6,0.167,3.167,0.3,4.7c0.167,3.6,0.583,9,1.25,16.2
			c0.467,6.467,0.45,11.9-0.05,16.3l-1.601,21.8c0.167,3.733,0.217,7.45,0.15,11.15l-0.3,13.5c0,0.367-0.483,5.95-1.45,16.75
			c-0.566,6.634-0.55,12.184,0.05,16.65c0.434,4.533,0.851,9.633,1.25,15.3l-1.3,1c-0.5-9.833-0.8-17.616-0.9-23.35
			c-0.166-8.601-0.033-16.417,0.4-23.45l0.8-29.35c0.067-0.967,0.5-6.467,1.3-16.5l0.4-4.6C142.083,52.4,142.3,49.7,142.4,47.9z"/>
		<path style="fill-rule:evenodd;clip-rule:evenodd;fill:#B46A20;" d="M146.7,24.7l1.45,1.45l0.149,80.05
			c-0.267,6.434-0.433,13.333-0.5,20.7c-0.2,6-0.267,12.433-0.2,19.3l-1.25,1.25c-0.366-16.267-0.116-29.917,0.75-40.95v-8.05
			c0-3.934-0.1-7.884-0.3-11.85l0.351-30.5C147.15,50.934,147,40.467,146.7,24.7z"/>
		<path style="fill-rule:evenodd;clip-rule:evenodd;fill:#B46A20;" d="M148.15,26.15l1.35,1.4c-0.267,12.467-0.4,21.784-0.4,27.95
			l0.101,5.2c0.333,10.4,0.517,18.2,0.55,23.4l0.05,8.9c0.233,1.733,0.367,3.283,0.4,4.65c0.066,1.6,0.066,3.183,0,4.75
			c0,1.5-0.05,3-0.15,4.5c-0.733,5.633-1.116,11.883-1.149,18.75c-0.033,4.833,0.116,11.083,0.449,18.75L148,145.8
			c-0.133-5.6-0.2-11.899-0.2-18.899c0.2-7.101,0.517-13.767,0.95-20c0-2.101-0.033-3.667-0.1-4.7c-0.067-1.7-0.184-3.267-0.351-4.7
			L148.15,26.15z"/>
		<path style="fill-rule:evenodd;clip-rule:evenodd;fill:#B46A20;" d="M148.15,90.6l-0.025-2.55L148.15,90.6z M148.3,97.5
			c0.167,1.434,0.283,3,0.351,4.7c0.066,1.033,0.1,2.6,0.1,4.7c-0.434,6.233-0.75,12.899-0.95,20c0.067-7.367,0.233-14.267,0.5-20.7
			l-0.1-12.15L148.3,97.5z"/>
		<path style="fill-rule:evenodd;clip-rule:evenodd;fill:#B46A20;" d="M151.8,30.15l0.65,0.75c-0.7,10.467-0.967,18.517-0.8,24.15
			l0.399,4.9c0.101,1.6,0.367,5.5,0.8,11.7c0.367,4.9,0.584,8.85,0.65,11.85c0.066,1.333,0.066,2.633,0,3.9l0.1,19.3
			c0,0.934-0.066,2.399-0.199,4.399c-0.667,7-0.684,16.551-0.051,28.65l-1.35,1.7c-0.133-4.7-0.15-10.417-0.05-17.15
			c0.2-7.6,0.316-13.283,0.35-17.05l0.15-24.75c-0.066-3.533-0.233-7.934-0.5-13.2L151.1,51.05
			C151.1,45.217,151.333,38.25,151.8,30.15z"/>
		<path style="fill-rule:evenodd;clip-rule:evenodd;fill:#B46A20;" d="M153.9,47.2c0.066-1.467,0.1-2.617,0.1-3.45
			c0.566-3.5,1-6.566,1.3-9.2l0.7,0.95c-0.566,5.7-0.833,10.717-0.8,15.05l0.25,4.7c0.399,4.566,1.233,10.867,2.5,18.9
			c0.2,1.567,0.267,3.467,0.2,5.7c-0.101,3.367-0.15,5.316-0.15,5.85l0.15,5.399c0.166,1.667,0.267,3.317,0.3,4.95l-0.2,18
			c-0.3,9.601-0.45,16.167-0.45,19.7l-1.399,2.05c-0.4-9.133-0.267-17.066,0.399-23.8V87.3c0.3-4.366,0.15-9.616-0.45-15.75
			c-0.767-6.933-1.316-12.15-1.649-15.65l-0.351-5.2C154.017,49.633,153.867,48.467,153.9,47.2z"/>
		<path style="fill-rule:evenodd;clip-rule:evenodd;fill:#B46A20;" d="M159.75,48.65l0.15-7.3l1.55,2.6
			c-0.367,6.633,0.25,13.866,1.85,21.7c0.367,2.733,0.584,5.133,0.65,7.2l-0.3,2.8l0.5,30.45c-0.101,3.667-0.117,9.117-0.051,16.351
			v0.25l-0.75,1.55l-0.699-45c-0.167-3.1-0.7-8.25-1.601-15.45C160.283,57.333,159.85,52.283,159.75,48.65z"/>
		<path style="fill-rule:evenodd;clip-rule:evenodd;fill:#B46A20;" d="M161.7,44.4l1.3,2.5v2c0,1.6,0.05,3.167,0.15,4.7
			c0.066,0.966,0.166,2.517,0.3,4.65c0.133,1.9,0.366,3.517,0.7,4.85c0.333,2.133,0.616,3.733,0.85,4.8v5.5
			c0.4,11.767,0.634,19.35,0.7,22.75l0.1,22.8l-1.3,2.899c-0.167-5.732-0.133-10.6,0.1-14.6l-0.649-34.4
			c0.133-2.034,0.1-3.567-0.101-4.6l-0.55-2.6c-0.767-4.667-1.283-8.183-1.55-10.55C161.316,51.066,161.3,47.5,161.7,44.4z"/>
		<path style="fill-rule:evenodd;clip-rule:evenodd;fill:#B46A20;" d="M163.85,68.25c0.2,1.033,0.233,2.566,0.101,4.6
			c-0.066-2.067-0.283-4.467-0.65-7.2L163.85,68.25z"/>
		<path style="fill-rule:evenodd;clip-rule:evenodd;fill:#B46A20;" d="M168.6,60.55l0.2,9.25c0,0.134,0.2,8.35,0.601,24.65
			l0.199,13.25c-0.333,1.434-0.816,3.05-1.449,4.85V93c-0.134-7.934-0.334-15.883-0.601-23.85l-0.05-5.7
			c-0.4-3.1-0.684-5.9-0.85-8.4C167.316,56.783,167.967,58.617,168.6,60.55z"/>
	</g>
	
		<linearGradient id="SVGID_27_" gradientUnits="userSpaceOnUse" x1="-172.4863" y1="86.5254" x2="-0.686" y2="86.5254" gradientTransform="matrix(5.822417e-006 -1 1 -0.001 -1.609481e-004 4.683650e-004)">
		<stop  offset="0.0196" style="stop-color:#833C00"/>
		<stop  offset="0.1255" style="stop-color:#925521;stop-opacity:0.851"/>
		<stop  offset="0.3569" style="stop-color:#B08964;stop-opacity:0.549"/>
		<stop  offset="0.5686" style="stop-color:#C7B299;stop-opacity:0.3137"/>
		<stop  offset="0.7529" style="stop-color:#D9D0C0;stop-opacity:0.1412"/>
		<stop  offset="0.898" style="stop-color:#E3E2D7;stop-opacity:0.0353"/>
		<stop  offset="0.9882" style="stop-color:#E7E9E0;stop-opacity:0"/>
	</linearGradient>
	<path style="fill-rule:evenodd;clip-rule:evenodd;fill:url(#SVGID_27_);" d="M0.65,86.5c0-11.633,2.25-22.767,6.75-33.4
		c4.367-10.267,10.517-19.367,18.45-27.3c7.933-7.933,17.033-14.083,27.3-18.45c10.633-4.5,21.767-6.75,33.4-6.75
		c11.634,0,22.767,2.25,33.4,6.75c10.267,4.367,19.366,10.517,27.3,18.45c7.9,7.934,14.033,17.034,18.4,27.3
		c4.5,10.633,6.75,21.767,6.75,33.4c0,11.634-2.25,22.767-6.75,33.4c-4.367,10.267-10.5,19.366-18.4,27.3
		c-7.934,7.934-17.033,14.083-27.3,18.45c-10.634,4.5-21.767,6.75-33.4,6.75c-11.633,0-22.767-2.25-33.4-6.75
		c-10.267-4.367-19.367-10.517-27.3-18.45c-7.934-7.934-14.083-17.033-18.45-27.3C2.9,109.267,0.65,98.134,0.65,86.5z"/>
	<g>
		<g>
			
				<linearGradient id="SVGID_28_" gradientUnits="userSpaceOnUse" x1="-158.4863" y1="86.5254" x2="-13.4858" y2="86.5254" gradientTransform="matrix(6.895364e-006 -1 1 -0.001 2.366505e-004 4.683650e-004)">
				<stop  offset="0" style="stop-color:#F0D9C1"/>
				<stop  offset="0.0863" style="stop-color:#E7CCB4;stop-opacity:0.8745"/>
				<stop  offset="0.3176" style="stop-color:#D3AF96;stop-opacity:0.5922"/>
				<stop  offset="0.5176" style="stop-color:#C69C84;stop-opacity:0.4196"/>
				<stop  offset="0.6549" style="stop-color:#C2967D;stop-opacity:0.3569"/>
				<stop  offset="1" style="stop-color:#5A2E21"/>
			</linearGradient>
			<path style="fill-rule:evenodd;clip-rule:evenodd;fill:url(#SVGID_28_);" d="M86.55,13.4c9.834,0,19.233,1.9,28.2,5.7
				c8.7,3.667,16.384,8.85,23.05,15.55c6.7,6.667,11.884,14.35,15.55,23.05c3.801,8.966,5.7,18.366,5.7,28.2s-1.899,19.234-5.7,28.2
				c-3.666,8.7-8.85,16.384-15.55,23.051c-6.666,6.699-14.35,11.883-23.05,15.55c-8.967,3.8-18.366,5.7-28.2,5.7
				c-9.833,0-19.25-1.9-28.25-5.7c-8.667-3.667-16.35-8.851-23.05-15.55c-6.7-6.667-11.883-14.351-15.55-23.051
				c-3.8-8.966-5.7-18.366-5.7-28.2s1.9-19.233,5.7-28.2c3.667-8.7,8.85-16.384,15.55-23.05c6.7-6.7,14.383-11.883,23.05-15.55
				C67.3,15.3,76.717,13.4,86.55,13.4z"/>
		</g>
	</g>
	<g>
		
			<linearGradient id="SVGID_29_" gradientUnits="userSpaceOnUse" x1="-152.1855" y1="86.5259" x2="-19.7861" y2="86.5259" gradientTransform="matrix(7.555724e-006 -1 1 -0.001 2.190953e-004 4.683650e-004)">
			<stop  offset="0" style="stop-color:#B5812B"/>
			<stop  offset="0.2863" style="stop-color:#CC992E"/>
			<stop  offset="0.6745" style="stop-color:#F1C033"/>
			<stop  offset="0.9647" style="stop-color:#D8E787"/>
		</linearGradient>
		<path style="fill-rule:evenodd;clip-rule:evenodd;fill:url(#SVGID_29_);" d="M86.55,19.7c18.233,0,33.816,6.466,46.75,19.4
			c12.934,12.933,19.4,28.533,19.4,46.8c0,18.267-6.467,33.867-19.4,46.8S104.783,152.1,86.55,152.1
			c-18.267,0-33.866-6.466-46.8-19.399c-12.933-12.934-19.4-28.533-19.4-46.8c0-18.267,6.467-33.867,19.4-46.8
			C52.684,26.167,68.283,19.7,86.55,19.7z"/>
		<path style="fill-rule:evenodd;clip-rule:evenodd;fill:#47260B;" d="M86.55,20.55c-18.033,0-33.433,6.384-46.2,19.15
			S21.2,67.867,21.2,85.9c0,18.067,6.383,33.467,19.15,46.2c12.767,12.768,28.167,19.15,46.2,19.15
			c18.066,0,33.467-6.383,46.2-19.15c12.767-12.732,19.15-28.133,19.15-46.2c0-18.033-6.384-33.433-19.15-46.2
			C120.017,26.934,104.616,20.55,86.55,20.55z M60.9,23.95c8.133-3.367,16.684-5.05,25.65-5.05c8.967,0,17.517,1.684,25.65,5.05
			c8.133,3.366,15.366,8.216,21.7,14.55c6.333,6.367,11.183,13.617,14.55,21.75c3.399,8.167,5.1,16.717,5.1,25.65
			s-1.7,17.484-5.1,25.65c-3.367,8.167-8.217,15.417-14.55,21.75c-6.334,6.334-13.567,11.184-21.7,14.55
			c-8.134,3.367-16.684,5.051-25.65,5.051c-8.966,0-17.517-1.684-25.65-5.051c-8.167-3.366-15.417-8.216-21.75-14.55
			c-6.333-6.333-11.183-13.583-14.55-21.75c-3.367-8.133-5.05-16.683-5.05-25.65c0-8.933,1.684-17.483,5.05-25.65
			c3.367-8.133,8.217-15.383,14.55-21.75C45.483,32.167,52.733,27.316,60.9,23.95z"/>
	</g>
	
		<radialGradient id="SVGID_30_" cx="86.5254" cy="83.75" r="59.3872" gradientTransform="matrix(1 0 0 -1 0 167.5)" gradientUnits="userSpaceOnUse">
		<stop  offset="0.0353" style="stop-color:#DFE887"/>
		<stop  offset="0.302" style="stop-color:#E0E784;stop-opacity:0.9922"/>
		<stop  offset="0.4627" style="stop-color:#E1E37C;stop-opacity:0.9804"/>
		<stop  offset="0.5922" style="stop-color:#E4DC6E;stop-opacity:0.9529"/>
		<stop  offset="0.7098" style="stop-color:#E9D35A;stop-opacity:0.9176"/>
		<stop  offset="0.8118" style="stop-color:#EEC640;stop-opacity:0.8706"/>
		<stop  offset="0.8706" style="stop-color:#F2BE2D;stop-opacity:0.8392"/>
	</radialGradient>
	<path style="fill-rule:evenodd;clip-rule:evenodd;fill:url(#SVGID_30_);" d="M86.55,24.4c16.4,0,30.4,5.8,42,17.4
		c11.601,11.6,17.4,25.583,17.4,41.95c0,16.367-5.8,30.35-17.4,41.95c-11.6,11.6-25.6,17.399-42,17.399
		c-16.433,0-30.45-5.8-42.05-17.399C32.9,114.1,27.1,100.117,27.1,83.75c0-16.367,5.8-30.35,17.4-41.95
		C56.1,30.2,70.117,24.4,86.55,24.4z"/>
	<g>
		<path style="fill-rule:evenodd;clip-rule:evenodd;fill:#ECF6BC;" d="M98.1,99.2c-1.366-0.033-2.833-0.217-4.399-0.55
			c-0.367,1.233-0.9,2.483-1.601,3.75c0.233,0.066,0.634,0.1,1.2,0.1c1.134,0,1.95-0.217,2.45-0.65L98.1,99.2z M36.05,98.6
			c-1.033-3.166-1.233-6.183-0.6-9.05c0.6-2.866,1.917-5.05,3.95-6.55c2.733-2.033,5.55-3.05,8.45-3.05c4,0,7.633,1.866,10.9,5.6
			c0.267,0.3,0.7,0.567,1.3,0.8c0.667,0.233,1.367,0.35,2.1,0.35c0.9,0,1.567-0.184,2-0.55c0.333-0.3,0.9-0.917,1.7-1.85
			c1.633-1.9,2.983-3.3,4.05-4.2c1.867-1.6,3.8-2.633,5.8-3.1c0.533-2.867,1.816-5.333,3.85-7.4c2.034-2.1,4.567-3.483,7.601-4.15
			c0.666-0.167,1.466-0.25,2.399-0.25c2.367,0,4.617,0.8,6.75,2.4c1.2,0.9,2.617,2.316,4.25,4.25l1.351,1.55
			c0.333,0.167,0.716,0.25,1.149,0.25c1.101,0,1.851-0.25,2.25-0.75c2.834-3.3,6.017-4.95,9.55-4.95c2.567,0,5.051,0.9,7.45,2.7
			c1.8,1.367,2.967,3.333,3.5,5.9c0.567,2.567,0.384,5.267-0.55,8.1c-1.066,3.467-3.167,6.467-6.3,9
			c3.2,1.633,5.633,3.949,7.3,6.949c1.7,3.034,2.384,6.384,2.05,10.051c-0.5,5.733-3.133,10.699-7.899,14.899
			c-5.4,4.767-12.483,7.317-21.25,7.65l-2.4,0.05c-8.634,0-15.783-1.816-21.45-5.45c-4.833-3.1-8.133-7.149-9.9-12.149h-0.1
			c-9.5,0-16.966-2.334-22.4-7C39.6,105.816,37.317,102.467,36.05,98.6z"/>
		
			<linearGradient id="SVGID_31_" gradientUnits="userSpaceOnUse" x1="-132.4458" y1="81.7373" x2="-64.3394" y2="81.7373" gradientTransform="matrix(1.468968e-005 -1 1 -0.001 -5.137426e-005 4.683650e-004)">
			<stop  offset="0" style="stop-color:#B5812B"/>
			<stop  offset="0.149" style="stop-color:#CC992E"/>
			<stop  offset="0.349" style="stop-color:#F1C033"/>
			<stop  offset="0.9647" style="stop-color:#FFF82D"/>
		</linearGradient>
		<path style="fill-rule:evenodd;clip-rule:evenodd;fill:url(#SVGID_31_);" d="M97.6,98.85l0.5-0.55
			c-1.3-0.1-2.767-0.283-4.399-0.55c-0.367,1.233-0.9,2.483-1.601,3.75l1.2,0.1c1.167,0,1.983-0.232,2.45-0.699
			C95.917,100.733,96.533,100.05,97.6,98.85z M36.05,97.7c-1.033-3.167-1.233-6.2-0.6-9.101c0.6-2.866,1.917-5.05,3.95-6.55
			c2.8-2.033,5.617-3.05,8.45-3.05c4,0,7.633,1.867,10.9,5.6c0.267,0.3,0.7,0.566,1.3,0.8c0.667,0.233,1.367,0.35,2.1,0.35
			c0.934,0,1.6-0.167,2-0.5l1.7-1.9c1.633-1.9,2.983-3.3,4.05-4.2c1.867-1.6,3.8-2.633,5.8-3.1c0.533-2.866,1.816-5.333,3.85-7.4
			c2.034-2.066,4.567-3.45,7.601-4.15c0.899-0.167,1.699-0.25,2.399-0.25c2.367,0,4.617,0.8,6.75,2.4c1.2,0.9,2.617,2.333,4.25,4.3
			c0.334,0.366,0.783,0.866,1.351,1.5c0.333,0.167,0.716,0.25,1.149,0.25c1.101,0,1.851-0.233,2.25-0.7
			c2.8-3.3,5.983-4.95,9.55-4.95c2.567,0,5.051,0.9,7.45,2.7c1.8,1.367,2.967,3.333,3.5,5.9c0.567,2.567,0.384,5.267-0.55,8.1
			c-1.1,3.467-3.2,6.45-6.3,8.95c3.2,1.633,5.633,3.95,7.3,6.95c1.7,3.033,2.384,6.383,2.05,10.05
			c-0.5,5.767-3.133,10.733-7.899,14.899c-5.4,4.801-12.483,7.367-21.25,7.7l-2.4,0.05c-8.634,0-15.783-1.816-21.45-5.449
			c-4.833-3.101-8.133-7.167-9.9-12.2h-0.1c-9.5,0-16.966-2.333-22.4-7C39.6,104.867,37.317,101.533,36.05,97.7z"/>
		<path style="fill-rule:evenodd;clip-rule:evenodd;fill:none;stroke:#FCFBC8;stroke-width:0.25;" d="M36.05,97.7
			c1.267,3.833,3.55,7.167,6.85,10c5.434,4.667,12.9,7,22.4,7h0.1c1.767,5.033,5.067,9.1,9.9,12.2
			c5.667,3.633,12.816,5.449,21.45,5.449l2.4-0.05c8.767-0.333,15.85-2.899,21.25-7.7c4.767-4.166,7.399-9.133,7.899-14.899
			c0.334-3.667-0.35-7.017-2.05-10.05c-1.667-3-4.1-5.317-7.3-6.95c3.1-2.5,5.2-5.483,6.3-8.95c0.934-2.833,1.117-5.533,0.55-8.1
			c-0.533-2.566-1.7-4.533-3.5-5.9c-2.399-1.8-4.883-2.7-7.45-2.7c-3.566,0-6.75,1.65-9.55,4.95c-0.399,0.467-1.149,0.7-2.25,0.7
			c-0.434,0-0.816-0.083-1.149-0.25c-0.567-0.634-1.017-1.134-1.351-1.5c-1.633-1.967-3.05-3.4-4.25-4.3
			c-2.133-1.6-4.383-2.4-6.75-2.4c-0.7,0-1.5,0.083-2.399,0.25c-3.034,0.7-5.567,2.083-7.601,4.15
			c-2.033,2.067-3.316,4.534-3.85,7.4c-2,0.467-3.934,1.5-5.8,3.1c-1.066,0.9-2.417,2.3-4.05,4.2l-1.7,1.9
			c-0.4,0.333-1.066,0.5-2,0.5c-0.733,0-1.433-0.117-2.1-0.35c-0.6-0.233-1.033-0.5-1.3-0.8c-3.267-3.733-6.9-5.6-10.9-5.6
			c-2.833,0-5.65,1.017-8.45,3.05c-2.033,1.5-3.35,3.684-3.95,6.55C34.817,91.5,35.017,94.533,36.05,97.7z M97.6,98.85
			c-1.066,1.2-1.683,1.884-1.85,2.051c-0.467,0.467-1.283,0.699-2.45,0.699l-1.2-0.1c0.7-1.267,1.233-2.517,1.601-3.75
			c1.633,0.267,3.1,0.45,4.399,0.55L97.6,98.85z"/>
		<path style="fill-rule:evenodd;clip-rule:evenodd;fill:#47260B;" d="M39.1,96.7c-0.8-2.467-1-4.816-0.6-7.05
			c0.434-2.233,1.367-3.884,2.8-4.95c2.2-1.634,4.384-2.45,6.55-2.45c3.033,0,5.867,1.517,8.5,4.55c0.6,0.667,1.417,1.2,2.45,1.601
			c1.067,0.399,2.184,0.6,3.35,0.6c1.767,0,3.15-0.467,4.15-1.4c0.367-0.333,1.017-1.033,1.95-2.1c1.7-2,3.117-3.434,4.25-4.3
			c1.967-1.5,3.967-2.25,6-2.25h0.2c-0.067-2.767,0.716-5.167,2.35-7.2c1.667-2.066,3.934-3.417,6.8-4.05
			c0.534-0.134,1.101-0.2,1.7-0.2c1.7,0,3.367,0.633,5,1.9c0.967,0.733,2.15,1.95,3.55,3.65l1.65,1.8c0.8,0.733,1.9,1.1,3.3,1.1
			c2.066,0,3.617-0.6,4.65-1.8c2.2-2.566,4.583-3.85,7.149-3.85c1.834,0,3.684,0.684,5.551,2.05c1.233,0.933,2.017,2.367,2.35,4.3
			c0.333,1.9,0.167,3.917-0.5,6.05c-0.9,2.8-2.6,5.233-5.1,7.3c-4.067,3.4-9.634,5.1-16.7,5.1l-1.75-0.05
			c-2.7-0.1-5.167-0.517-7.4-1.25c-0.366,3.2-1.7,6.184-4,8.95c1.5,1.4,3.5,2.1,6,2.1c1.967,0,3.5-0.517,4.601-1.55
			c0.566-0.5,1.283-1.283,2.149-2.35c1.867-2.167,3.4-3.717,4.601-4.65c2.133-1.6,4.3-2.399,6.5-2.399c0.8,0,1.517,0.083,2.149,0.25
			c3.934,0.866,6.967,2.683,9.101,5.449c2.166,2.768,3.083,6.034,2.75,9.801c-0.434,5-2.783,9.316-7.051,12.949
			c-4.866,4.167-11.233,6.4-19.1,6.7l-2.25,0.05c-8.566,0-15.483-1.899-20.75-5.699c-4.433-3.2-7.167-7.2-8.2-12l-2.5,0.05
			c-8.533,0-15.25-2.033-20.15-6.101C42.184,102.884,40.167,100,39.1,96.7z"/>
		<g>
			<path style="fill-rule:evenodd;clip-rule:evenodd;fill:#35A633;" d="M86.2,90.25c-3.034-2.133-5.05-4.8-6.05-8
				c-0.933-3.066-0.733-5.883,0.6-8.45c1.434-2.7,3.867-4.433,7.3-5.2c2.3-0.534,4.533,0.167,6.7,2.1
				c1.167,1.066,2.616,2.667,4.35,4.8c1.134,1.066,2.717,1.517,4.75,1.35c2-0.2,3.517-0.9,4.551-2.1c1.833-2.133,3.767-3.3,5.8-3.5
				c1.866-0.2,3.75,0.417,5.649,1.85c1.334,1,2.051,2.667,2.15,5c0.1,2.5-0.566,4.917-2,7.25c-3.767,6.267-10.85,9.2-21.25,8.8
				C93.783,93.95,89.6,92.65,86.2,90.25z"/>
			
				<use xlink:href="#FlashAICB_x5F_0_x2F_Layer_1_x2F__x3C_Group_x3E__x5F_11"  width="42.426" height="25.74" x="-0.026" y="-25.738" transform="matrix(1 0 0 -1 79.6001 68.4502)" style="overflow:visible;opacity:0.1484;enable-background:new    ;"/>
			
				<use xlink:href="#FlashAICB_x5F_0_x2F_Layer_1_x2F__x3C_Group_x3E__x5F_10"  width="42.326" height="25.731" x="-0.026" y="-25.731" transform="matrix(1 0 0 -1 79.6001 68.4502)" style="overflow:visible;opacity:0.1914;enable-background:new    ;"/>
			
				<use xlink:href="#FlashAICB_x5F_0_x2F_Layer_1_x2F__x3C_Group_x3E__x5F_9"  width="10.348" height="8.697" x="-0.048" y="-8.667" transform="matrix(1 0 0 -1 109 73.8999)" style="overflow:visible;opacity:0.1992;enable-background:new    ;"/>
			
				<use xlink:href="#FlashAICB_x5F_0_x2F_Layer_1_x2F__x3C_Group_x3E__x5F_8"  width="16.693" height="11.8" x="-0.026" y="-11.8" transform="matrix(1 0 0 -1 89.5498 73.3501)" style="overflow:visible;opacity:0.1992;enable-background:new    ;"/>
			<path style="fill-rule:evenodd;clip-rule:evenodd;fill:#FFFFFF;" d="M93.65,74.95c0.5,0.1,1.166,1,2,2.7
				c0.8,1.633,2.316,2.567,4.55,2.8c1.666,0.167,1.583,0.333-0.25,0.5c-1.367,0.1-2.783-0.2-4.25-0.9
				c-2.066-1.033-3.217-2.216-3.45-3.55C92.017,75.2,92.483,74.684,93.65,74.95z"/>
			<path style="fill-rule:evenodd;clip-rule:evenodd;fill:#FFFFFF;" d="M116.15,75.35c0.1-0.4,0.35-0.467,0.75-0.2
				c0.399,0.267,0.483,0.684,0.25,1.25c-0.267,0.567-0.717,1.017-1.351,1.35c-0.633,0.333-0.783,0.267-0.45-0.2
				C115.616,77.15,115.884,76.417,116.15,75.35z"/>
			<path style="fill-rule:evenodd;clip-rule:evenodd;fill:#FFFFFF;" d="M113.9,78.55c0.366-0.233,0.517-0.15,0.449,0.25
				c-0.066,0.367-0.3,0.634-0.699,0.8c-0.534,0.233-0.884,0.267-1.051,0.1C112.434,79.5,112.866,79.117,113.9,78.55z"/>
			<path style="fill-rule:evenodd;clip-rule:evenodd;fill:#FFFFFF;" d="M103,80.75c0.467-0.1,0.684,0.05,0.65,0.45
				c-0.034,0.366-0.301,0.533-0.801,0.5c-0.5-0.034-0.75-0.167-0.75-0.4C102.134,81.066,102.434,80.883,103,80.75z"/>
			<path style="fill-rule:evenodd;clip-rule:evenodd;fill:#4BB041;" d="M41.8,85.45c2.333-1.7,4.634-2.434,6.9-2.2
				c2.466,0.233,4.8,1.617,7,4.15c1.267,1.433,3.083,2.267,5.45,2.5c2.467,0.233,4.383-0.301,5.75-1.601c2.1-2.5,3.867-4.4,5.3-5.7
				c2.633-2.3,5.333-3.15,8.1-2.55c4.134,0.934,7.084,3,8.851,6.2c1.633,3.066,1.866,6.434,0.699,10.1
				c-1.199,3.801-3.633,6.967-7.3,9.5c-4.1,2.867-9.167,4.417-15.2,4.65c-12.567,0.467-21.133-3.017-25.7-10.45
				c-1.733-2.8-2.533-5.683-2.4-8.649C39.35,88.6,40.2,86.617,41.8,85.45z"/>
			
				<use xlink:href="#FlashAICB_x5F_0_x2F_Layer_1_x2F__x3C_Group_x3E__x5F_7"  width="51.379" height="30.682" y="-30.65" transform="matrix(1 0 0 -1 39.2002 79.8999)" style="overflow:visible;opacity:0.1484;enable-background:new    ;"/>
			
				<use xlink:href="#FlashAICB_x5F_0_x2F_Layer_1_x2F__x3C_Group_x3E__x5F_6"  width="51.229" height="30.65" y="-30.65" transform="matrix(1 0 0 -1 39.3501 79.8999)" style="overflow:visible;opacity:0.1914;enable-background:new    ;"/>
			
				<use xlink:href="#FlashAICB_x5F_0_x2F_Layer_1_x2F__x3C_Group_x3E__x5F_5"  width="12.547" height="10.408" x="-0.022" y="-10.372" transform="matrix(1 0 0 -1 42.5 86.3501)" style="overflow:visible;opacity:0.1992;enable-background:new    ;"/>
			
				<use xlink:href="#FlashAICB_x5F_0_x2F_Layer_1_x2F__x3C_Group_x3E__x5F_4"  width="20.121" height="14.043" x="-0.007" y="-14.033" transform="matrix(1 0 0 -1 58.3501 85.75)" style="overflow:visible;opacity:0.1992;enable-background:new    ;"/>
			<path style="fill-rule:evenodd;clip-rule:evenodd;fill:#FFFFFF;" d="M73.5,87.65c1.434-0.334,2,0.283,1.7,1.85
				c-0.267,1.6-1.667,3-4.2,4.2c-1.767,0.866-3.467,1.233-5.1,1.1c-2.1-0.2-2.2-0.416-0.3-0.649c2.733-0.301,4.566-1.4,5.5-3.301
				C72.1,88.85,72.9,87.783,73.5,87.65z"/>
			<path style="fill-rule:evenodd;clip-rule:evenodd;fill:#FFFFFF;" d="M46.3,88.15c0.067,0.233,0.167,0.616,0.3,1.149
				c0.167,0.5,0.4,0.983,0.7,1.45c0.4,0.6,0.2,0.684-0.6,0.25c-0.767-0.4-1.3-0.95-1.6-1.65c-0.3-0.666-0.217-1.149,0.25-1.449
				C45.85,87.566,46.167,87.65,46.3,88.15z"/>
			<path style="fill-rule:evenodd;clip-rule:evenodd;fill:#FFFFFF;" d="M49.05,91.9c1.233,0.699,1.75,1.166,1.55,1.399
				c-0.2,0.2-0.633,0.167-1.3-0.1c-0.466-0.233-0.733-0.566-0.8-1C48.4,91.733,48.583,91.634,49.05,91.9z"/>
			<path style="fill-rule:evenodd;clip-rule:evenodd;fill:#FFFFFF;" d="M62.25,94.55c0.667,0.134,1.017,0.351,1.05,0.65
				c0,0.267-0.316,0.434-0.95,0.5c-0.6,0.066-0.917-0.134-0.95-0.601C61.4,94.634,61.684,94.45,62.25,94.55z"/>
			<path style="fill-rule:evenodd;clip-rule:evenodd;fill:#4BB041;" d="M113.1,95.05c4.534,1,7.75,3.25,9.65,6.75
				c1.767,3.3,2.033,6.934,0.8,10.9c-1.3,4.167-3.95,7.616-7.95,10.35c-4.5,3.134-10.033,4.817-16.6,5.05
				c-13.733,0.534-23.1-3.25-28.1-11.35c-1.867-3.033-2.733-6.167-2.6-9.4c0.134-3.033,1.083-5.199,2.85-6.5
				c2.534-1.833,5.034-2.616,7.5-2.35c2.667,0.267,5.2,1.767,7.6,4.5c1.366,1.566,3.366,2.467,6,2.7c2.667,0.267,4.75-0.3,6.25-1.7
				c2.3-2.767,4.233-4.833,5.8-6.2C107.167,95.3,110.1,94.384,113.1,95.05z"/>
			
				<use xlink:href="#FlashAICB_x5F_0_x2F_Layer_1_x2F__x3C_Group_x3E__x5F_3"  width="56.011" height="33.3" y="-33.3" transform="matrix(1 0 0 -1 68.2998 94.8496)" style="overflow:visible;opacity:0.1484;enable-background:new    ;"/>
			
				<use xlink:href="#FlashAICB_x5F_0_x2F_Layer_1_x2F__x3C_Group_x3E__x5F_2"  width="55.861" height="33.3" y="-33.3" transform="matrix(1 0 0 -1 68.4502 94.8496)" style="overflow:visible;opacity:0.1914;enable-background:new    ;"/>
			
				<use xlink:href="#FlashAICB_x5F_0_x2F_Layer_1_x2F__x3C_Group_x3E__x5F_1"  width="13.711" height="11.286" x="-0.031" y="-11.233" transform="matrix(1 0 0 -1 71.8501 101.9004)" style="overflow:visible;opacity:0.1992;enable-background:new    ;"/>
			
				<use xlink:href="#FlashAICB_x5F_0_x2F_Layer_1_x2F__x3C_Group_x3E_"  width="22.006" height="15.272" x="-0.017" y="-15.272" transform="matrix(1 0 0 -1 89.1504 101.2002)" style="overflow:visible;opacity:0.1992;enable-background:new    ;"/>
			<path style="fill-rule:evenodd;clip-rule:evenodd;fill:#FFFFFF;" d="M105.75,103.25c1.533-0.333,2.15,0.333,1.85,2
				c-0.333,1.767-1.866,3.3-4.6,4.6c-1.934,0.934-3.8,1.334-5.6,1.2c-2.467-0.2-2.567-0.416-0.301-0.649
				c2.967-0.334,4.967-1.551,6-3.65c0.434-1.033,0.767-1.767,1-2.2C104.5,103.816,105.05,103.384,105.75,103.25z"/>
			<path style="fill-rule:evenodd;clip-rule:evenodd;fill:#FFFFFF;" d="M76,103.8c0.333,1.267,0.7,2.2,1.1,2.8
				c0.433,0.634,0.217,0.733-0.65,0.301c-0.833-0.434-1.417-1.017-1.75-1.75c-0.333-0.767-0.233-1.317,0.3-1.65
				S75.867,103.267,76,103.8z"/>
			<path style="fill-rule:evenodd;clip-rule:evenodd;fill:#FFFFFF;" d="M79,107.9c1.333,0.767,1.883,1.267,1.65,1.5
				c-0.2,0.233-0.65,0.199-1.35-0.101c-0.5-0.233-0.8-0.583-0.9-1.05C78.3,107.75,78.5,107.634,79,107.9z"/>
			<path style="fill-rule:evenodd;clip-rule:evenodd;fill:#FFFFFF;" d="M93.4,110.8c0.733,0.134,1.116,0.351,1.149,0.65
				s-0.3,0.483-1,0.55c-0.666,0.066-1.017-0.15-1.05-0.65S92.767,110.667,93.4,110.8z"/>
		</g>
	</g>
	<g>
		<g>
			<path style="fill-rule:evenodd;clip-rule:evenodd;fill:#ECF6BC;" d="M62.25,41.3V60c0,0.8-0.233,1.434-0.7,1.9
				c-0.433,0.467-1.017,0.7-1.75,0.7c-0.733,0-1.333-0.233-1.8-0.7c-0.467-0.466-0.7-1.1-0.7-1.9V43.5h-1.9
				c-0.733,0-1.3-0.233-1.7-0.7c-0.367-0.433-0.55-0.95-0.55-1.55s0.2-1.117,0.6-1.55c0.4-0.467,0.95-0.7,1.65-0.7h4.65
				c0.667,0,1.217,0.217,1.65,0.65C62.067,40.083,62.25,40.633,62.25,41.3z"/>
			<path style="fill-rule:evenodd;clip-rule:evenodd;fill:#ECF6BC;" d="M80.75,42.65c1.267,2.167,1.9,4.85,1.9,8.05
				c0,3.2-0.633,5.883-1.9,8.05c-1.533,2.7-3.816,4.05-6.85,4.05c-3,0-5.267-1.35-6.8-4.05c-1.267-2.167-1.9-4.85-1.9-8.05
				c0-3.2,0.633-5.884,1.9-8.05c1.533-2.7,3.8-4.05,6.8-4.05C76.934,38.6,79.217,39.95,80.75,42.65z M77.5,50.7
				c0-5.1-1.2-7.65-3.6-7.65c-2.367,0-3.55,2.55-3.55,7.65c0,5.066,1.183,7.6,3.55,7.6C76.3,58.3,77.5,55.767,77.5,50.7z"/>
			<path style="fill-rule:evenodd;clip-rule:evenodd;fill:#ECF6BC;" d="M92.8,38.6c3.033,0,5.316,1.35,6.851,4.05
				c1.233,2.167,1.85,4.85,1.85,8.05c0,3.2-0.616,5.883-1.85,8.05c-1.534,2.7-3.817,4.05-6.851,4.05s-5.316-1.35-6.85-4.05
				c-1.233-2.167-1.85-4.85-1.85-8.05c0-3.2,0.617-5.884,1.85-8.05C87.483,39.95,89.767,38.6,92.8,38.6z M92.8,58.3
				c2.4,0,3.601-2.533,3.601-7.6c0-5.1-1.2-7.65-3.601-7.65c-2.399,0-3.6,2.55-3.6,7.65C89.2,55.767,90.4,58.3,92.8,58.3z"/>
			<path style="fill-rule:evenodd;clip-rule:evenodd;fill:#ECF6BC;" d="M109.35,49.1c0.567,0.7,1.334,1.05,2.301,1.05
				c0.933,0,1.699-0.316,2.3-0.95c0.566-0.634,0.85-1.45,0.85-2.45c0-0.967-0.267-1.767-0.8-2.4c-0.6-0.667-1.384-1-2.35-1
				c-0.9,0-1.65,0.333-2.25,1c-0.567,0.633-0.851,1.433-0.851,2.4C108.55,47.684,108.816,48.467,109.35,49.1z M111.65,38.6
				c2.466,0,4.483,0.816,6.05,2.45c1.467,1.534,2.2,3.434,2.2,5.7s-0.967,5-2.9,8.2c-1.667,2.767-3.483,5.033-5.45,6.8
				c-0.166,0.2-0.517,0.467-1.05,0.8c-0.233,0.167-0.55,0.25-0.95,0.25c-0.5,0-1.017-0.25-1.55-0.75
				c-0.533-0.533-0.8-1.083-0.8-1.65c0-0.3,0.233-0.75,0.7-1.35c2.3-2.5,3.816-4.25,4.55-5.25l-0.101-0.1
				c-0.633,0.267-1.316,0.4-2.05,0.4c-1.934,0-3.583-0.75-4.95-2.25c-1.3-1.434-1.949-3.133-1.949-5.1c0-2.2,0.767-4.1,2.3-5.7
				C107.3,39.417,109.283,38.6,111.65,38.6z"/>
		</g>
		<g>
			
				<linearGradient id="SVGID_32_" gradientUnits="userSpaceOnUse" x1="-61.2085" y1="57.7026" x2="-37.604" y2="57.7026" gradientTransform="matrix(4.237289e-005 -1 1 -0.001 -2.330195e-004 4.674215e-004)">
				<stop  offset="0.1529" style="stop-color:#4C2803"/>
				<stop  offset="0.2471" style="stop-color:#532903"/>
				<stop  offset="0.3765" style="stop-color:#652D04"/>
				<stop  offset="0.5333" style="stop-color:#843205"/>
				<stop  offset="0.7059" style="stop-color:#AF3A07"/>
				<stop  offset="0.8902" style="stop-color:#E54309"/>
				<stop  offset="0.8941" style="stop-color:#E74409"/>
			</linearGradient>
			<path style="fill-rule:evenodd;clip-rule:evenodd;fill:url(#SVGID_32_);" d="M62.25,39.85v18.7c0,0.8-0.233,1.434-0.7,1.9
				c-0.433,0.466-1.017,0.7-1.75,0.7c-0.733,0-1.333-0.233-1.8-0.7c-0.467-0.467-0.7-1.1-0.7-1.9v-16.5h-1.9
				c-0.733,0-1.3-0.233-1.7-0.7c-0.367-0.434-0.55-0.95-0.55-1.55c0-0.6,0.2-1.116,0.6-1.55c0.4-0.467,0.95-0.7,1.65-0.7h4.65
				c0.667,0,1.217,0.217,1.65,0.65C62.067,38.633,62.25,39.184,62.25,39.85z"/>
			
				<linearGradient id="SVGID_33_" gradientUnits="userSpaceOnUse" x1="-61.4233" y1="73.9277" x2="-37.2483" y2="73.9277" gradientTransform="matrix(4.136505e-005 -1 1 -0.001 -9.239795e-005 -2.403907e-005)">
				<stop  offset="0.1529" style="stop-color:#4C2803"/>
				<stop  offset="0.2471" style="stop-color:#532903"/>
				<stop  offset="0.3765" style="stop-color:#652D04"/>
				<stop  offset="0.5333" style="stop-color:#843205"/>
				<stop  offset="0.7059" style="stop-color:#AF3A07"/>
				<stop  offset="0.8902" style="stop-color:#E54309"/>
				<stop  offset="0.8941" style="stop-color:#E74409"/>
			</linearGradient>
			<path style="fill-rule:evenodd;clip-rule:evenodd;fill:url(#SVGID_33_);" d="M70.35,49.25c0,5.066,1.183,7.6,3.55,7.6
				c2.4,0,3.6-2.534,3.6-7.6c0-5.1-1.2-7.65-3.6-7.65C71.533,41.6,70.35,44.15,70.35,49.25z M82.65,49.25
				c0,3.2-0.633,5.883-1.9,8.05c-1.533,2.7-3.816,4.05-6.85,4.05c-3,0-5.267-1.35-6.8-4.05c-1.267-2.167-1.9-4.85-1.9-8.05
				s0.633-5.883,1.9-8.05c1.533-2.7,3.8-4.05,6.8-4.05c3.034,0,5.317,1.35,6.85,4.05C82.017,43.367,82.65,46.05,82.65,49.25z"/>
			
				<linearGradient id="SVGID_34_" gradientUnits="userSpaceOnUse" x1="-61.4424" y1="92.8027" x2="-37.2674" y2="92.8027" gradientTransform="matrix(4.136505e-005 -1 1 -0.001 -9.239795e-005 -2.403907e-005)">
				<stop  offset="0.1529" style="stop-color:#4C2803"/>
				<stop  offset="0.2471" style="stop-color:#532903"/>
				<stop  offset="0.3765" style="stop-color:#652D04"/>
				<stop  offset="0.5333" style="stop-color:#843205"/>
				<stop  offset="0.7059" style="stop-color:#AF3A07"/>
				<stop  offset="0.8902" style="stop-color:#E54309"/>
				<stop  offset="0.8941" style="stop-color:#E74409"/>
			</linearGradient>
			<path style="fill-rule:evenodd;clip-rule:evenodd;fill:url(#SVGID_34_);" d="M89.2,49.25c0,5.066,1.2,7.6,3.6,7.6
				c2.4,0,3.601-2.534,3.601-7.6c0-5.1-1.2-7.65-3.601-7.65C90.4,41.6,89.2,44.15,89.2,49.25z M92.8,37.15
				c3.033,0,5.316,1.35,6.851,4.05c1.233,2.167,1.85,4.85,1.85,8.05s-0.616,5.883-1.85,8.05c-1.534,2.7-3.817,4.05-6.851,4.05
				S87.483,60,85.95,57.3c-1.233-2.167-1.85-4.85-1.85-8.05s0.617-5.883,1.85-8.05C87.483,38.5,89.767,37.15,92.8,37.15z"/>
			
				<linearGradient id="SVGID_35_" gradientUnits="userSpaceOnUse" x1="-61.459" y1="111.6533" x2="-37.2612" y2="111.6533" gradientTransform="matrix(4.136505e-005 -1 1 -0.001 -9.239795e-005 -2.403907e-005)">
				<stop  offset="0.1529" style="stop-color:#4C2803"/>
				<stop  offset="0.2471" style="stop-color:#532903"/>
				<stop  offset="0.3765" style="stop-color:#652D04"/>
				<stop  offset="0.5333" style="stop-color:#843205"/>
				<stop  offset="0.7059" style="stop-color:#AF3A07"/>
				<stop  offset="0.8902" style="stop-color:#E54309"/>
				<stop  offset="0.8941" style="stop-color:#E74409"/>
			</linearGradient>
			<path style="fill-rule:evenodd;clip-rule:evenodd;fill:url(#SVGID_35_);" d="M114.8,45.3c0-0.966-0.267-1.767-0.8-2.4
				c-0.6-0.7-1.384-1.05-2.35-1.05c-0.9,0-1.65,0.333-2.25,1c-0.567,0.667-0.851,1.483-0.851,2.45c0,0.934,0.267,1.717,0.8,2.35
				c0.567,0.7,1.334,1.05,2.301,1.05c0.933,0,1.699-0.317,2.3-0.95C114.517,47.117,114.8,46.3,114.8,45.3z M111.65,37.15
				c2.466,0,4.483,0.817,6.05,2.45c1.467,1.533,2.2,3.433,2.2,5.7s-0.967,5-2.9,8.2c-1.667,2.7-3.483,4.967-5.45,6.8l-1.05,0.8
				c-0.233,0.167-0.55,0.25-0.95,0.25c-0.5,0-1.017-0.25-1.55-0.75c-0.533-0.534-0.8-1.083-0.8-1.65c0-0.3,0.233-0.75,0.7-1.35
				c0.366-0.467,1.149-1.367,2.35-2.7c1.066-1.167,1.8-2.033,2.2-2.6l-0.101-0.05c-0.633,0.267-1.316,0.4-2.05,0.4
				c-1.934,0-3.583-0.75-4.95-2.25c-1.3-1.433-1.949-3.133-1.949-5.1c0-2.2,0.767-4.1,2.3-5.7
				C107.3,37.967,109.283,37.15,111.65,37.15z"/>
		</g>
	</g>
	
		<use xlink:href="#FlashAICB_x5F_0_x2F_Layer_1_x2F__x3C_Group_x3E__x5F_0"  width="110" height="61.344" y="-61.344" transform="matrix(1 0 0 -1 31.5498 27.1499)" style="overflow:visible;opacity:0.8203;enable-background:new    ;"/>
	
		<use xlink:href="#FlashAICB_x5F_0_x2F_Layer_1_x2F__x3C_Path_x3E__x5F_0"  width="118.7" height="57.15" y="-57.15" transform="matrix(1 0 0 -1 27.2002 85.9502)" style="overflow:visible;opacity:0.2813;enable-background:new    ;"/>
</g>
</svg>
