<?xml version="1.0" encoding="iso-8859-1"?>
<!-- Generator: Adobe Illustrator 15.1.0, SVG Export Plug-In . SVG Version: 6.00 Build 0)  -->
<!DOCTYPE svg PUBLIC "-//W3C//DTD SVG 1.1//EN" "http://www.w3.org/Graphics/SVG/1.1/DTD/svg11.dtd">
<svg version="1.1" id="Layer_1" xmlns="http://www.w3.org/2000/svg" xmlns:xlink="http://www.w3.org/1999/xlink" x="0px" y="0px"
	 width="171.75px" height="171.75px" viewBox="0 0 171.75 171.75" style="enable-background:new 0 0 171.75 171.75;"
	 xml:space="preserve">
<symbol  id="FlashAICB_x2F_Layer_1_x2F__x3C_Group_x3E_" viewBox="-0.013 -69.264 52.449 69.292">
	<g id="Layer_1_3_">
		<g>
			<path style="fill-rule:evenodd;clip-rule:evenodd;fill:#D1B25D;" d="M48.2-4.3c-0.567,0.733-1.65,0.417-3.25-0.95
				c-1.667-1.433-2.417-3.1-2.25-5c0.167-1.833-0.434-2.583-1.8-2.25c-1.433,0.367-2.033,0.9-1.8,1.6
				c0.433,1.533,0.9,2.917,1.4,4.15c0.967,2.367,1.983,3.817,3.05,4.35c1.067,0.533,2.167,0.383,3.3-0.45
				C47.417-3.283,47.867-3.767,48.2-4.3z"/>
			<path style="fill-rule:evenodd;clip-rule:evenodd;fill:#C6A954;" d="M51-2.35V-2.4c0.8-0.767,1.267-1.8,1.4-3.1
				S52.3-7.967,51.7-9c-0.367-0.633-2.717-3.733-7.05-9.3c-5.8-7.367-10.233-12.983-13.3-16.85L22.7-46.1
				c-1.7-2.2-2.55-4.283-2.55-6.25c-0.066-2.867-0.25-5.017-0.55-6.45c-0.733-3.534-2.25-6.333-4.55-8.4
				c-1.9-1.7-4.167-2.35-6.8-1.95c-1.3,0.2-2.417,0.566-3.35,1.1c-1,0.533-1.917,1.3-2.75,2.3c-1.667,1.933-2.1,4-1.3,6.2
				c1.1,2.966,3.517,5.583,7.25,7.85c2.1,1.267,4.417,2.317,6.95,3.15c1.133,0.433,2.25,1.283,3.35,2.55
				c0.934,1.267,1.45,1.967,1.55,2.1V-44l7.15,12.05c3.367,5.567,8.25,13.817,14.65,24.75c-0.233-1.2-0.033-2.017,0.6-2.45
				c0.467-0.333,1.066-0.317,1.8,0.05s1.367,0.983,1.9,1.85c0.534,0.833,0.833,1.667,0.9,2.5c0.033,0.833-0.184,1.433-0.65,1.8
				c-0.733,0.467-1.633,0.25-2.7-0.65l1.95,3.05c0.633,0.767,1.417,0.966,2.35,0.6c0.067-0.033,0.95-0.566,2.65-1.6h0.05L51-2.35z"
				/>
			<path style="fill-rule:evenodd;clip-rule:evenodd;fill:#FCE191;" d="M48.6-0.85C49.4-1.65,49.867-2.7,50-4
				c0.1-1.267-0.133-2.433-0.7-3.5c-0.367-0.667-2.716-3.767-7.05-9.3c-5.833-7.367-10.283-12.983-13.35-16.85L20.3-44.6
				c-1.7-2.2-2.566-4.283-2.6-6.25c0-2.7-0.167-4.85-0.5-6.45c-0.733-3.5-2.25-6.284-4.55-8.35c-3-2.7-6.233-3.033-9.7-1v0.05H2.9
				c-0.933,0.833-1.65,1.8-2.15,2.9c-1,2.167-1.017,4.483-0.05,6.95c1.133,2.9,3.2,5.283,6.2,7.15c1.3,0.8,3.2,1.667,5.7,2.6
				c1.167,0.4,2.3,1.233,3.4,2.5c0.933,1.267,1.45,1.967,1.55,2.1v-0.1l7.15,12.05C27.267-26.183,30.95-20,35.75-11.9
				c3.667,6.1,5.733,9.433,6.2,10C42.717-1,43.7-0.4,44.9-0.1c1.233,0.267,2.317,0.117,3.25-0.45L48.2-0.5l0.2-0.2L48.6-0.85z
				 M46.95-5.25c0.033,0.833-0.184,1.433-0.65,1.8c-0.466,0.333-1.066,0.317-1.8-0.05c-0.767-0.4-1.417-1.017-1.95-1.85
				c-0.566-0.867-0.867-1.717-0.9-2.55c-0.033-0.833,0.2-1.417,0.7-1.75c0.467-0.333,1.066-0.317,1.8,0.05s1.367,0.983,1.9,1.85
				C46.583-6.917,46.883-6.083,46.95-5.25z"/>
			<g>
				<path style="fill-rule:evenodd;clip-rule:evenodd;fill:#EACC76;" d="M41.85-9c0.133-0.3,0.3-0.517,0.5-0.65
					c0.167-0.133,0.417-0.2,0.75-0.2c-0.533-1.3-1.184-2.983-1.95-5.05l-2.05-5.85l-3.55-4.5C37.05-20.583,39.15-15.167,41.85-9z"/>
				<path style="fill-rule:evenodd;clip-rule:evenodd;fill:#EACC76;" d="M23-41.15l-2.7-3.45c-1.4-1.867-2.233-3.6-2.5-5.2
					l-0.45-0.4c-0.434-0.4-2.333-1.316-5.7-2.75c-2.933-1.2-4.867-2.6-5.8-4.2c-1.133-1.967-2.35-4.867-3.65-8.7
					c-0.333,0.333-0.684,0.817-1.05,1.45C2.217-61.833,3.5-59.433,5-57.2c2.067,3.1,4.2,5.25,6.4,6.45
					c2.9,1.567,5.717,4.35,8.45,8.35c2.867,4.233,4.517,8.267,4.95,12.1l4.4,7.4c-0.3-0.967-1.2-3.833-2.7-8.6
					c-0.967-3.033-1.667-5.117-2.1-6.25L23-41.15z"/>
				<path style="fill-rule:evenodd;clip-rule:evenodd;fill:#EACC76;" d="M8.5-67.8c1.433,3.133,2.667,5.466,3.7,7
					c1.566,2.333,3.316,4,5.25,5c-0.233-1.733-0.7-3.4-1.4-5c-2.2-1.1-3.617-2.434-4.25-4c-0.233-0.6-0.4-1.233-0.5-1.9
					C10.4-67.267,9.467-67.633,8.5-67.8z"/>
				<path style="fill-rule:evenodd;clip-rule:evenodd;fill:#EACC76;" d="M41.95-1.9c0.5,0.533,1.033,0.95,1.6,1.25
					c-1.833-3.067-3.683-6.5-5.55-10.3c-1.767-3.633-3.017-6.566-3.75-8.8c-0.733-2.2-1.483-5.533-2.25-10l-4-5.1
					c2.7,9.4,4.867,16.35,6.5,20.85C39.1-6.367,41.583-2.333,41.95-1.9z"/>
				<path style="fill-rule:evenodd;clip-rule:evenodd;fill:#EACC76;" d="M48.9-1.25c0.3-0.4,0.55-0.85,0.75-1.35
					c-0.467-1.3-1.167-3.733-2.1-7.3l-4.75-6.15l3.2,8.2l0.05,0.1c0.467,0.667,0.75,1.333,0.85,2
					C47.567-4.083,48.233-2.583,48.9-1.25z"/>
				<path style="fill-rule:evenodd;clip-rule:evenodd;fill:#EACC76;" d="M0.7-56.75C2-53.517,4.4-50.933,7.9-49
					C4.333-52.233,1.933-54.817,0.7-56.75z"/>
				<path style="fill-rule:evenodd;clip-rule:evenodd;fill:#EACC76;" d="M44.3-3.6L46.1,0c0.633-0.067,1.167-0.183,1.6-0.35l-1.6-3
					C45.6-3.15,45-3.233,44.3-3.6z"/>
			</g>
			<path style="fill-rule:evenodd;clip-rule:evenodd;fill:#FDF3D0;" d="M12.75-51.15c1.633-0.5,2.45-1.867,2.45-4.1
				c0-2.033-0.583-3.95-1.75-5.75c-1.733-2.6-3.483-4.233-5.25-4.9c-2.034-0.767-3.8-0.184-5.3,1.75c-1.533,1.967-0.867,4.8,2,8.5
				C7.8-51.95,10.417-50.45,12.75-51.15z"/>
			
				<linearGradient id="SVGID_1_" gradientUnits="userSpaceOnUse" x1="193.106" y1="-16806.8164" x2="210.7596" y2="-16806.8164" gradientTransform="matrix(-0.0779 -0.997 1.0015 -0.0192 16856.9805 -179.21)">
				<stop  offset="0" style="stop-color:#BFA04A"/>
				<stop  offset="1" style="stop-color:#FCE191"/>
			</linearGradient>
			<path style="fill-rule:evenodd;clip-rule:evenodd;fill:url(#SVGID_1_);" d="M12.55-50.3c1.633-0.5,2.45-1.867,2.45-4.1
				c0-2.067-0.6-3.983-1.8-5.75c-1.733-2.6-3.483-4.25-5.25-4.95c-1.967-0.767-3.717-0.183-5.25,1.75c-1.567,2-0.9,4.85,2,8.55
				C7.567-51.1,10.183-49.6,12.55-50.3z"/>
		</g>
	</g>
</symbol>
<symbol  id="FlashAICB_x2F_Layer_1_x2F__x3C_Group_x3E__x5F_1" viewBox="-0.013 -69.264 52.449 69.292">
	<g id="Layer_1_2_">
		<g>
			<path style="fill-rule:evenodd;clip-rule:evenodd;fill:#D1B25D;" d="M48.2-4.3c-0.567,0.733-1.65,0.417-3.25-0.95
				c-1.667-1.433-2.417-3.1-2.25-5c0.167-1.833-0.434-2.583-1.8-2.25c-1.433,0.367-2.033,0.9-1.8,1.6
				c0.433,1.533,0.9,2.917,1.4,4.15c0.967,2.367,1.983,3.817,3.05,4.35c1.067,0.533,2.167,0.383,3.3-0.45
				C47.417-3.283,47.867-3.767,48.2-4.3z"/>
			<path style="fill-rule:evenodd;clip-rule:evenodd;fill:#C6A954;" d="M51-2.35V-2.4c0.8-0.767,1.267-1.8,1.4-3.1
				S52.3-7.967,51.7-9c-0.367-0.633-2.717-3.733-7.05-9.3c-5.8-7.367-10.233-12.983-13.3-16.85L22.7-46.1
				c-1.7-2.2-2.55-4.283-2.55-6.25c-0.066-2.867-0.25-5.017-0.55-6.45c-0.733-3.534-2.25-6.333-4.55-8.4
				c-1.9-1.7-4.167-2.35-6.8-1.95c-1.3,0.2-2.417,0.566-3.35,1.1c-1,0.533-1.917,1.3-2.75,2.3c-1.667,1.933-2.1,4-1.3,6.2
				c1.1,2.966,3.517,5.583,7.25,7.85c2.1,1.267,4.417,2.317,6.95,3.15c1.133,0.433,2.25,1.283,3.35,2.55
				c0.934,1.267,1.45,1.967,1.55,2.1V-44l7.15,12.05c3.367,5.567,8.25,13.817,14.65,24.75c-0.233-1.2-0.033-2.017,0.6-2.45
				c0.467-0.333,1.066-0.317,1.8,0.05s1.367,0.983,1.9,1.85c0.534,0.833,0.833,1.667,0.9,2.5c0.033,0.833-0.184,1.433-0.65,1.8
				c-0.733,0.467-1.633,0.25-2.7-0.65l1.95,3.05c0.633,0.767,1.417,0.966,2.35,0.6c0.067-0.033,0.95-0.566,2.65-1.6h0.05L51-2.35z"
				/>
			<path style="fill-rule:evenodd;clip-rule:evenodd;fill:#FCE191;" d="M48.6-0.85C49.4-1.65,49.867-2.7,50-4
				c0.1-1.267-0.133-2.433-0.7-3.5c-0.367-0.667-2.716-3.767-7.05-9.3c-5.833-7.367-10.283-12.983-13.35-16.85L20.3-44.6
				c-1.7-2.2-2.566-4.283-2.6-6.25c0-2.7-0.167-4.85-0.5-6.45c-0.733-3.5-2.25-6.284-4.55-8.35c-3-2.7-6.233-3.033-9.7-1v0.05H2.9
				c-0.933,0.833-1.65,1.8-2.15,2.9c-1,2.167-1.017,4.483-0.05,6.95c1.133,2.9,3.2,5.283,6.2,7.15c1.3,0.8,3.2,1.667,5.7,2.6
				c1.167,0.4,2.3,1.233,3.4,2.5c0.933,1.267,1.45,1.967,1.55,2.1v-0.1l7.15,12.05C27.267-26.183,30.95-20,35.75-11.9
				c3.667,6.1,5.733,9.433,6.2,10C42.717-1,43.7-0.4,44.9-0.1c1.233,0.267,2.317,0.117,3.25-0.45L48.2-0.5l0.2-0.2L48.6-0.85z
				 M46.95-5.25c0.033,0.833-0.184,1.433-0.65,1.8c-0.466,0.333-1.066,0.317-1.8-0.05c-0.767-0.4-1.417-1.017-1.95-1.85
				c-0.566-0.867-0.867-1.717-0.9-2.55c-0.033-0.833,0.2-1.417,0.7-1.75c0.467-0.333,1.066-0.317,1.8,0.05s1.367,0.983,1.9,1.85
				C46.583-6.917,46.883-6.083,46.95-5.25z"/>
			<g>
				<path style="fill-rule:evenodd;clip-rule:evenodd;fill:#EACC76;" d="M41.85-9c0.133-0.3,0.3-0.517,0.5-0.65
					c0.167-0.133,0.417-0.2,0.75-0.2c-0.533-1.3-1.184-2.983-1.95-5.05l-2.05-5.85l-3.55-4.5C37.05-20.583,39.15-15.167,41.85-9z"/>
				<path style="fill-rule:evenodd;clip-rule:evenodd;fill:#EACC76;" d="M23-41.15l-2.7-3.45c-1.4-1.867-2.233-3.6-2.5-5.2
					l-0.45-0.4c-0.434-0.4-2.333-1.316-5.7-2.75c-2.933-1.2-4.867-2.6-5.8-4.2c-1.133-1.967-2.35-4.867-3.65-8.7
					c-0.333,0.333-0.684,0.817-1.05,1.45C2.217-61.833,3.5-59.433,5-57.2c2.067,3.1,4.2,5.25,6.4,6.45
					c2.9,1.567,5.717,4.35,8.45,8.35c2.867,4.233,4.517,8.267,4.95,12.1l4.4,7.4c-0.3-0.967-1.2-3.833-2.7-8.6
					c-0.967-3.033-1.667-5.117-2.1-6.25L23-41.15z"/>
				<path style="fill-rule:evenodd;clip-rule:evenodd;fill:#EACC76;" d="M8.5-67.8c1.433,3.133,2.667,5.466,3.7,7
					c1.566,2.333,3.316,4,5.25,5c-0.233-1.733-0.7-3.4-1.4-5c-2.2-1.1-3.617-2.434-4.25-4c-0.233-0.6-0.4-1.233-0.5-1.9
					C10.4-67.267,9.467-67.633,8.5-67.8z"/>
				<path style="fill-rule:evenodd;clip-rule:evenodd;fill:#EACC76;" d="M41.95-1.9c0.5,0.533,1.033,0.95,1.6,1.25
					c-1.833-3.067-3.683-6.5-5.55-10.3c-1.767-3.633-3.017-6.566-3.75-8.8c-0.733-2.2-1.483-5.533-2.25-10l-4-5.1
					c2.7,9.4,4.867,16.35,6.5,20.85C39.1-6.367,41.583-2.333,41.95-1.9z"/>
				<path style="fill-rule:evenodd;clip-rule:evenodd;fill:#EACC76;" d="M48.9-1.25c0.3-0.4,0.55-0.85,0.75-1.35
					c-0.467-1.3-1.167-3.733-2.1-7.3l-4.75-6.15l3.2,8.2l0.05,0.1c0.467,0.667,0.75,1.333,0.85,2
					C47.567-4.083,48.233-2.583,48.9-1.25z"/>
				<path style="fill-rule:evenodd;clip-rule:evenodd;fill:#EACC76;" d="M0.7-56.75C2-53.517,4.4-50.933,7.9-49
					C4.333-52.233,1.933-54.817,0.7-56.75z"/>
				<path style="fill-rule:evenodd;clip-rule:evenodd;fill:#EACC76;" d="M44.3-3.6L46.1,0c0.633-0.067,1.167-0.183,1.6-0.35l-1.6-3
					C45.6-3.15,45-3.233,44.3-3.6z"/>
			</g>
			<path style="fill-rule:evenodd;clip-rule:evenodd;fill:#FDF3D0;" d="M12.75-51.15c1.633-0.5,2.45-1.867,2.45-4.1
				c0-2.033-0.583-3.95-1.75-5.75c-1.733-2.6-3.483-4.233-5.25-4.9c-2.034-0.767-3.8-0.184-5.3,1.75c-1.533,1.967-0.867,4.8,2,8.5
				C7.8-51.95,10.417-50.45,12.75-51.15z"/>
			
				<linearGradient id="SVGID_2_" gradientUnits="userSpaceOnUse" x1="193.106" y1="-16806.8164" x2="210.7596" y2="-16806.8164" gradientTransform="matrix(-0.0779 -0.997 1.0015 -0.0192 16856.9805 -179.21)">
				<stop  offset="0" style="stop-color:#BFA04A"/>
				<stop  offset="1" style="stop-color:#FCE191"/>
			</linearGradient>
			<path style="fill-rule:evenodd;clip-rule:evenodd;fill:url(#SVGID_2_);" d="M12.55-50.3c1.633-0.5,2.45-1.867,2.45-4.1
				c0-2.067-0.6-3.983-1.8-5.75c-1.733-2.6-3.483-4.25-5.25-4.95c-1.967-0.767-3.717-0.183-5.25,1.75c-1.567,2-0.9,4.85,2,8.55
				C7.567-51.1,10.183-49.6,12.55-50.3z"/>
		</g>
	</g>
</symbol>
<symbol  id="FlashAICB_x2F_Layer_1_x2F__x3C_Path_x3E_" viewBox="0 -61.85 128.6 61.85">
	<g id="Layer_1_4_">
		
			<radialGradient id="SVGID_3_" cx="64.2998" cy="-30.9248" r="50.4522" gradientTransform="matrix(1 0 0 -1 0 -61.8496)" gradientUnits="userSpaceOnUse">
			<stop  offset="0" style="stop-color:#CCEFE7;stop-opacity:0"/>
			<stop  offset="0.0627" style="stop-color:#C7EDDC;stop-opacity:0.0431"/>
			<stop  offset="0.1686" style="stop-color:#BAE9C1;stop-opacity:0.1686"/>
			<stop  offset="0.3059" style="stop-color:#A5E193;stop-opacity:0.3725"/>
			<stop  offset="0.4706" style="stop-color:#88D755;stop-opacity:0.651"/>
			<stop  offset="0.651" style="stop-color:#66C912"/>
		</radialGradient>
		<path style="fill-rule:evenodd;clip-rule:evenodd;fill:url(#SVGID_3_);" d="M128.05-0.25L128.6,0
			c-0.633-17.2-7.167-31.8-19.6-43.8C96.533-55.833,81.617-61.85,64.25-61.85c-17.033,0-31.733,5.817-44.1,17.45
			C7.783-32.833,1.067-18.633,0-1.8c4.967-13,13.183-23.5,24.65-31.5c11.7-8.2,24.733-12.3,39.1-12.3
			c14.633,0,27.883,4.25,39.75,12.75C115.1-24.517,123.283-13.65,128.05-0.25z"/>
	</g>
</symbol>
<symbol  id="FlashAICB_x2F_Layer_1_x2F__x3C_Path_x3E__x5F_0" viewBox="0 -66.434 119.2 66.434">
	<g id="Layer_1_6_">
		<path style="fill-rule:evenodd;clip-rule:evenodd;fill:#FFFFFF;" d="M115.4-37.25c2.533-6.1,3.8-11.85,3.8-17.25
			c0-5.367-1.567-8.75-4.7-10.15c-2.533-1.133-6.783-1.117-12.75,0.05c-7.867,1.9-14.183,3.367-18.95,4.4
			c-8.667,1.833-16.4,2.75-23.2,2.75c-6.833,0-14.567-1-23.2-3c-9.033-2.367-15.35-3.966-18.95-4.8c-6-1.367-10.25-1.55-12.75-0.55
			C1.567-64.533,0-61.217,0-55.85c0,5.967,1.267,12.117,3.8,18.45c2.667,6.7,6.434,12.733,11.3,18.1C26.7-6.433,41.533,0,59.6,0
			c17.833,0,32.65-6.5,44.45-19.5C108.883-24.833,112.667-30.75,115.4-37.25z"/>
	</g>
</symbol>
<symbol  id="FlashAICB_x2F_Layer_1_x2F__x3C_Path_x3E__x5F_1" viewBox="0 -60.45 119.2 60.45">
	<g id="Layer_1_5_">
		
			<linearGradient id="SVGID_4_" gradientUnits="userSpaceOnUse" x1="16160.585" y1="-58.4668" x2="16220.9766" y2="-58.4668" gradientTransform="matrix(1.654944e-005 1 -1 -0.001 0.8657 -16221.1064)">
			<stop  offset="0.1294" style="stop-color:#E2B8B2"/>
			<stop  offset="0.9255" style="stop-color:#FFFFFF"/>
		</linearGradient>
		<path style="fill-rule:evenodd;clip-rule:evenodd;fill:url(#SVGID_4_);" d="M104.05-19.5c4.833-5.333,8.617-11.25,11.35-17.75
			c2.533-6.1,3.8-11.85,3.8-17.25c0-1.967-0.167-3.567-0.5-4.8c-2,11.966-7.85,22.6-17.55,31.9c-11.433,11-25.283,16.5-41.55,16.5
			c-16.5,0-30.4-5.483-41.7-16.45C8.133-36.783,2.333-47.817,0.5-60.45C0.167-59.217,0-57.683,0-55.85
			c0,5.967,1.267,12.117,3.8,18.45c2.667,6.7,6.434,12.733,11.3,18.1C26.7-6.433,41.533,0,59.6,0C77.433,0,92.25-6.5,104.05-19.5z"
			/>
	</g>
</symbol>
<g>
	<path style="fill-rule:evenodd;clip-rule:evenodd;fill:#FFFFFF;" d="M146.55,25.2c7.934,7.933,14.084,17.033,18.45,27.3
		c4.5,10.633,6.75,21.767,6.75,33.4s-2.25,22.767-6.75,33.4c-4.366,10.267-10.517,19.367-18.45,27.3
		c-7.934,7.9-17.033,14.034-27.3,18.4c-10.634,4.5-21.767,6.75-33.4,6.75c-11.633,0-22.766-2.25-33.399-6.75
		c-10.267-4.366-19.367-10.5-27.3-18.4c-7.9-7.933-14.033-17.033-18.4-27.3C2.25,108.667,0,97.533,0,85.9s2.25-22.767,6.75-33.4
		c4.367-10.267,10.5-19.367,18.4-27.3c7.934-7.934,17.033-14.083,27.3-18.45C63.083,2.25,74.217,0,85.85,0
		c11.634,0,22.767,2.25,33.4,6.75C129.517,11.117,138.616,17.267,146.55,25.2z"/>
	<g>
		
			<linearGradient id="SVGID_5_" gradientUnits="userSpaceOnUse" x1="-157.4858" y1="85.6504" x2="-14.0854" y2="85.6504" gradientTransform="matrix(6.973501e-006 -1 1 -0.001 -1.064519e-004 4.449275e-004)">
			<stop  offset="0.0745" style="stop-color:#6C9726"/>
			<stop  offset="0.2196" style="stop-color:#82B13A"/>
			<stop  offset="0.3686" style="stop-color:#9DCF52"/>
			<stop  offset="0.5882" style="stop-color:#CEE03A"/>
			<stop  offset="0.8118" style="stop-color:#D4E237"/>
			<stop  offset="1" style="stop-color:#FDEEB0"/>
		</linearGradient>
		<path style="fill-rule:evenodd;clip-rule:evenodd;fill:url(#SVGID_5_);" d="M151.7,57.8c3.767,8.9,5.649,18.2,5.649,27.9
			s-1.883,19-5.649,27.899c-3.634,8.567-8.75,16.167-15.351,22.801c-6.633,6.6-14.233,11.716-22.8,15.35
			c-8.899,3.767-18.2,5.65-27.899,5.65c-9.7,0-19-1.884-27.9-5.65c-8.567-3.634-16.167-8.75-22.8-15.35
			c-6.6-6.634-11.717-14.233-15.35-22.801C15.833,104.7,13.95,95.4,13.95,85.7s1.883-19,5.65-27.9
			c3.633-8.566,8.75-16.167,15.35-22.8c6.633-6.6,14.233-11.717,22.8-15.35c8.9-3.767,18.2-5.65,27.9-5.65
			c9.699,0,19,1.883,27.899,5.65c8.566,3.633,16.167,8.75,22.8,15.35C142.95,41.633,148.066,49.233,151.7,57.8z"/>
		<path style="fill-rule:evenodd;clip-rule:evenodd;fill:#22480E;" d="M150.9,58.15c-3.601-8.466-8.667-15.966-15.2-22.5
			c-6.533-6.533-14.033-11.6-22.5-15.2c-8.767-3.7-17.95-5.55-27.55-5.55c-19.534,0-36.217,6.917-50.05,20.75
			C21.767,49.483,14.85,66.167,14.85,85.7c0,9.6,1.85,18.783,5.55,27.55c3.6,8.467,8.667,15.967,15.2,22.5s14.033,11.6,22.5,15.2
			c8.767,3.7,17.95,5.55,27.55,5.55c9.6,0,18.783-1.85,27.55-5.55c8.467-3.601,15.967-8.667,22.5-15.2s11.6-14.033,15.2-22.5
			c3.699-8.767,5.55-17.95,5.55-27.55C156.45,76.1,154.6,66.917,150.9,58.15z M137,34.35c6.866,6.867,12.116,14.716,15.75,23.55
			c3.667,8.833,5.5,18.1,5.5,27.8s-1.833,18.967-5.5,27.8c-3.634,8.866-8.884,16.717-15.75,23.55
			c-6.833,6.867-14.684,12.117-23.55,15.75c-8.834,3.667-18.101,5.5-27.8,5.5c-9.7,0-18.967-1.833-27.8-5.5
			c-8.833-3.633-16.684-8.883-23.55-15.75c-6.833-6.833-12.083-14.684-15.75-23.55c-3.667-8.833-5.5-18.1-5.5-27.8
			s1.833-18.967,5.5-27.8c3.633-8.833,8.883-16.683,15.75-23.55S49.017,22.233,57.85,18.6c8.833-3.667,18.1-5.5,27.8-5.5
			c9.699,0,18.966,1.833,27.8,5.5C122.316,22.267,130.167,27.517,137,34.35z"/>
	</g>
	
		<radialGradient id="SVGID_6_" cx="85.6504" cy="83.375" r="64.3374" gradientTransform="matrix(1 0 0 -1 0 166.75)" gradientUnits="userSpaceOnUse">
		<stop  offset="0" style="stop-color:#FDEEB0"/>
		<stop  offset="0.1882" style="stop-color:#D4E237"/>
		<stop  offset="0.5137" style="stop-color:#CEE03A"/>
		<stop  offset="1" style="stop-color:#A0D051;stop-opacity:0.5373"/>
	</radialGradient>
	<path style="fill-rule:evenodd;clip-rule:evenodd;fill:url(#SVGID_6_);" d="M131.2,37.95c12.566,12.533,18.85,27.683,18.85,45.45
		c0,17.767-6.283,32.917-18.85,45.45c-12.566,12.534-27.75,18.801-45.55,18.801c-17.767,0-32.95-6.267-45.55-18.801
		c-12.567-12.566-18.85-27.717-18.85-45.45c0-17.733,6.283-32.883,18.85-45.45C52.7,25.383,67.883,19.1,85.65,19.1
		C103.45,19.1,118.634,25.383,131.2,37.95z"/>
	<g>
		<path style="fill-rule:evenodd;clip-rule:evenodd;fill:#ECF8BD;" d="M137.15,68.6c0.267,0.167,0.416,0.283,0.449,0.35l0.25,0.15
			c0.434,0.333,0.784,0.7,1.051,1.1c1.3,1.566,2.033,3.433,2.199,5.6c0.2,2.167-0.216,4.184-1.25,6.05
			c-0.433,0.8-4.383,5.95-11.85,15.45l1.7,22.8c0.166,2.167-0.467,4.084-1.9,5.75c-1.399,1.634-3.184,2.534-5.35,2.7l-14.101,1.05
			c-0.933,4.867-2.983,8.75-6.149,11.65c-2.467,2.2-5.334,3.3-8.601,3.3c-2.566,0-4.949-0.6-7.149-1.8
			c-1.167-0.767-2-1.384-2.5-1.85l-0.55-0.5c-2.533-2.4-3.917-5.267-4.15-8.601l-9.6,0.7H69.3c-0.5,0-1-0.083-1.5-0.25
			c-0.5,0.267-1.1,0.434-1.8,0.5l-15,1.15h-0.6c-2.033,0-3.816-0.7-5.35-2.101c-1.5-1.366-2.333-3.083-2.5-5.149L38.2,68.2
			c-0.167-2.167,0.45-4.067,1.85-5.7c1.434-1.667,3.233-2.583,5.4-2.75l26.9-2c2.167-0.167,4.066,0.467,5.7,1.9
			c1.667,1.4,2.567,3.184,2.7,5.35v0.2l37.3-2.8c1.566,0,3,0.434,4.3,1.3c1.267,0.833,2.217,1.933,2.851,3.3
			c2.133-1.133,4.333-1.483,6.6-1.05c0.634,0.133,1.267,0.333,1.9,0.6L137.15,68.6z"/>
		
			<linearGradient id="SVGID_7_" gradientUnits="userSpaceOnUse" x1="-143.5933" y1="89.6621" x2="-56.7051" y2="89.6621" gradientTransform="matrix(1.151742e-005 -1 1 -0.001 1.100110e-004 4.449275e-004)">
			<stop  offset="0.3569" style="stop-color:#698424"/>
			<stop  offset="0.4627" style="stop-color:#7B9E33"/>
			<stop  offset="0.6314" style="stop-color:#9DCF52"/>
			<stop  offset="0.9647" style="stop-color:#DAE772"/>
		</linearGradient>
		<path style="fill-rule:evenodd;clip-rule:evenodd;fill:url(#SVGID_7_);" d="M137.15,67.5l0.449,0.35l0.25,0.15
			c0.334,0.267,0.684,0.633,1.051,1.1c1.3,1.566,2.033,3.433,2.199,5.6c0.2,2.2-0.216,4.216-1.25,6.05
			c-0.433,0.8-4.383,5.95-11.85,15.45l1.7,22.85c0.166,2.167-0.467,4.066-1.9,5.7c-1.399,1.634-3.184,2.533-5.35,2.7l-14.101,1.05
			c-0.899,4.9-2.949,8.783-6.149,11.65c-2.434,2.233-5.3,3.35-8.601,3.35c-2.5,0-4.883-0.616-7.149-1.85
			c-1.167-0.767-2-1.384-2.5-1.851l-0.55-0.45c-2.533-2.399-3.917-5.283-4.15-8.649l-9.6,0.7H69.3c-0.6,0-1.1-0.067-1.5-0.2
			c-0.633,0.3-1.233,0.467-1.8,0.5l-15.6,1.149c-2.033,0-3.816-0.699-5.35-2.1c-1.5-1.4-2.333-3.134-2.5-5.2L38.2,67.1
			c-0.167-2.167,0.45-4.067,1.85-5.7c1.434-1.633,3.233-2.533,5.4-2.7l26.9-2.05c2.167-0.133,4.066,0.5,5.7,1.9
			c1.667,1.434,2.567,3.217,2.7,5.35v0.2l37.3-2.8c1.566,0,3,0.434,4.3,1.3c1.267,0.833,2.217,1.933,2.851,3.3
			c2.233-1.133,4.434-1.466,6.6-1c0.8,0.167,1.434,0.35,1.9,0.55l0.899,0.45L137.15,67.5z"/>
		<path style="fill-rule:evenodd;clip-rule:evenodd;fill:none;stroke:#DFF39B;stroke-width:0.25;" d="M137.15,67.5l-2.551-1.6
			l-0.899-0.45c-0.467-0.2-1.101-0.384-1.9-0.55c-2.166-0.466-4.366-0.133-6.6,1c-0.634-1.367-1.584-2.466-2.851-3.3
			c-1.3-0.867-2.733-1.3-4.3-1.3l-37.3,2.8v-0.2c-0.133-2.133-1.033-3.917-2.7-5.35c-1.633-1.4-3.533-2.033-5.7-1.9l-26.9,2.05
			c-2.167,0.167-3.967,1.066-5.4,2.7c-1.4,1.633-2.017,3.534-1.85,5.7l4.35,58.45c0.167,2.066,1,3.8,2.5,5.2
			c1.534,1.4,3.317,2.1,5.35,2.1L66,131.7c0.567-0.033,1.167-0.2,1.8-0.5c0.4,0.133,0.9,0.2,1.5,0.2h0.35l9.6-0.7
			c0.233,3.366,1.617,6.25,4.15,8.649l0.55,0.45c0.5,0.467,1.333,1.084,2.5,1.851c2.267,1.233,4.649,1.85,7.149,1.85
			c3.301,0,6.167-1.116,8.601-3.35c3.2-2.867,5.25-6.75,6.149-11.65l14.101-1.05c2.166-0.167,3.95-1.066,5.35-2.7
			c1.434-1.634,2.066-3.533,1.9-5.7L128,96.2c7.467-9.5,11.417-14.65,11.85-15.45c1.034-1.833,1.45-3.85,1.25-6.05
			c-0.166-2.167-0.899-4.034-2.199-5.6c-0.367-0.467-0.717-0.833-1.051-1.1l-0.25-0.15L137.15,67.5z"/>
		<path style="fill-rule:evenodd;clip-rule:evenodd;fill:#22480E;" d="M129.2,76.7c0.1-0.1,0.25-0.367,0.45-0.8l0.25-0.8
			c-1.134,0.867-1.851,1.883-2.15,3.05C128.283,77.85,128.767,77.367,129.2,76.7z M42,66.8c-0.1-1.1,0.217-2.066,0.95-2.9
			c0.733-0.867,1.65-1.333,2.75-1.4l26.9-2.05c1.133-0.067,2.117,0.267,2.95,1c0.867,0.733,1.333,1.65,1.4,2.75l0.3,4l40.55-3.05
			h0.25c1.066,0,2,0.35,2.8,1.05c0.767,0.733,1.184,1.616,1.25,2.65l0.45,5.95l2.25-3.55l0.101-0.1l0.1-0.2l0.15-0.2l0.85-0.8
			l1-0.65c1.366-0.733,2.717-0.966,4.05-0.7c0.434,0.1,0.867,0.25,1.3,0.45l0.25,0.1l2.95,1.9l0.25,0.35
			c0.867,0.934,1.367,2.117,1.5,3.55c0.134,1.4-0.133,2.716-0.8,3.95c-0.5,0.9-4.634,6.267-12.4,16.1l1.801,24.3
			c0.066,1.134-0.25,2.117-0.95,2.95c-0.733,0.866-1.65,1.333-2.75,1.4l-14.851,1.1c-0.267,0.033-0.5-0.033-0.699-0.2
			c-0.2-0.166-0.301-0.383-0.301-0.649L106,119.85c0-0.3,0.083-0.533,0.25-0.699l0.15-0.15c0.333-0.366,0.5-0.85,0.5-1.45
			c-0.034-0.233-0.084-0.399-0.15-0.5c-1.134,1.733-1.7,3.316-1.7,4.75v0.351c0,2.666-0.217,4.949-0.649,6.85
			c-0.834,3.467-2.417,6.25-4.75,8.35c-1.733,1.534-3.75,2.301-6.051,2.301c-1.199,0-2.416-0.217-3.649-0.65
			c-1.033-0.4-1.566-0.616-1.601-0.65c-0.633-0.366-1.3-0.866-2-1.5l-0.05-0.05l-0.2-0.149c-0.966-0.867-1.733-1.95-2.3-3.25
			c-0.966-2.167-1.066-4.45-0.3-6.851l-14.1,1.05c-0.267,0.034-0.5-0.033-0.7-0.199c-0.2-0.167-0.317-0.384-0.35-0.65l-0.3-4.05
			c0-0.3,0.083-0.533,0.25-0.7l0.1-0.15c0.4-0.399,0.567-0.883,0.5-1.449c-0.033-0.467-0.233-0.884-0.6-1.25
			c-0.367-0.334-0.8-0.5-1.3-0.5h-0.15c-0.467,0.033-0.9,0.25-1.3,0.649c-0.333,0.467-0.483,0.934-0.45,1.4
			c0.033,0.533,0.267,0.983,0.7,1.35l0.15,0.101c0.167,0.133,0.283,0.35,0.35,0.649l0.3,4.05c0.033,0.267-0.033,0.5-0.2,0.7
			c-0.2,0.2-0.433,0.316-0.7,0.351l-15,1.1l-0.3,0.05c-1.033,0-1.95-0.366-2.75-1.1c-0.767-0.7-1.2-1.584-1.3-2.65L42,66.8z"/>
		<g>
			<g>
				<path style="fill-rule:evenodd;clip-rule:evenodd;fill:#FEF8EE;" d="M43.35,66.7c-0.033-0.733,0.183-1.384,0.65-1.95
					c0.467-0.533,1.067-0.833,1.8-0.9l26.9-2.05c0.767-0.033,1.433,0.184,2,0.65c0.566,0.5,0.867,1.116,0.9,1.85l0.4,5.35l41.9-3.15
					c0.733-0.033,1.383,0.184,1.949,0.65c0.567,0.467,0.867,1.067,0.9,1.8l3.8,50.45c0.066,0.767-0.149,1.433-0.649,2
					c-0.5,0.566-1.117,0.866-1.851,0.899L107.65,123.4l-0.25-3.5c0.6-0.733,0.883-1.551,0.85-2.45c-0.066-0.9-0.45-1.65-1.15-2.25
					c-0.666-0.566-1.449-0.816-2.35-0.75s-1.65,0.45-2.25,1.149c-0.566,0.667-0.833,1.45-0.8,2.351c0.1,0.934,0.5,1.7,1.2,2.3
					l0.25,3.45l-33.45,2.55l-0.25-3.5c0.633-0.733,0.9-1.55,0.8-2.45c-0.033-0.899-0.4-1.649-1.1-2.25
					c-0.7-0.566-1.5-0.816-2.4-0.75s-1.65,0.45-2.25,1.15c-0.567,0.666-0.817,1.45-0.75,2.35c0.067,0.934,0.467,1.7,1.2,2.3
					l0.25,3.45l-14.6,1.101c-0.733,0.066-1.383-0.15-1.95-0.65c-0.533-0.467-0.833-1.066-0.9-1.8L43.35,66.7z"/>
			</g>
			<g>
				<g>
					<path style="fill-rule:evenodd;clip-rule:evenodd;fill:#724C26;" d="M50.1,81.3c0,0.267,0.117,0.367,0.35,0.3
						c0.267,0,0.367-0.117,0.3-0.35c-0.033-0.5-0.067-1-0.1-1.5c0-1,0.067-1.5,0.2-1.5c0.133-0.033,0.25,0.467,0.35,1.5
						c0.066,0.5,0.117,1,0.15,1.5c0,0.233,0.133,0.35,0.4,0.35c0.2,0,0.3-0.133,0.3-0.4l-0.2-2.5c0.4,0.366,0.733,0.883,1,1.55
						c0.267,0.633,0.433,1.233,0.5,1.8c0.1,1.267-0.3,2.184-1.2,2.75l0.65,8.851c0.067,0.5-0.183,0.783-0.75,0.85
						c-0.5,0.066-0.783-0.184-0.85-0.75l-0.65-8.85c-1-0.4-1.55-1.233-1.65-2.5c-0.066-1.466,0.267-2.65,1-3.55L50.1,81.3z"/>
				</g>
				<g>
					<path style="fill-rule:evenodd;clip-rule:evenodd;fill:#724C26;" d="M57.25,77.3c0.3,0,0.45,0.134,0.45,0.4l1.2,15.85
						c0,0.233-0.133,0.384-0.4,0.45l-0.55,0.05c-0.3,0-0.45-0.133-0.45-0.399L56.85,86.1l-0.9-1.149l-0.45-5.9
						c0-0.533,0.117-0.883,0.35-1.05L57.25,77.3z"/>
				</g>
			</g>
			<g>
				<g>
					<path style="fill-rule:evenodd;clip-rule:evenodd;fill:#724C26;" d="M48.15,67.5l0.1,1.3L49,68.75
						c0.433-0.066,0.65-0.316,0.65-0.75c-0.066-0.434-0.316-0.617-0.75-0.55L48.15,67.5z M48.85,66.4c1.2-0.1,1.85,0.417,1.95,1.55
						c0.034,0.767-0.383,1.267-1.25,1.5l1.35,1.25l0.15,0.3c0.067,0.4-0.1,0.6-0.5,0.6c-0.133,0.066-0.283,0.017-0.45-0.15
						l-1.8-1.85l0.1,1.6c0.067,0.4-0.1,0.6-0.5,0.6c-0.333,0.067-0.533-0.1-0.6-0.5L47,67.1c0-0.367,0.183-0.567,0.55-0.6
						L48.85,66.4z"/>
				</g>
				<g>
					<path style="fill-rule:evenodd;clip-rule:evenodd;fill:#724C26;" d="M53.15,69.2l0.1,1.15l1.35-0.1
						c0.367-0.066,0.55,0.083,0.55,0.45c0.067,0.366-0.083,0.55-0.45,0.55l-1.95,0.15c-0.333,0.067-0.533-0.1-0.6-0.5l-0.3-4.05
						c0-0.467,0.183-0.7,0.55-0.7L54.2,66c0.333,0,0.533,0.15,0.6,0.45c0,0.366-0.167,0.55-0.5,0.55L53,67.1l0.05,1.1l1.25-0.1
						c0.367,0,0.55,0.167,0.55,0.5c0.066,0.3-0.1,0.483-0.5,0.55L53.15,69.2z"/>
				</g>
				<g>
					<path style="fill-rule:evenodd;clip-rule:evenodd;fill:#724C26;" d="M58.3,65.6c1.067-0.1,1.617,0.133,1.65,0.7
						c0,0.3-0.133,0.483-0.4,0.55c-0.367-0.167-0.75-0.233-1.15-0.2c-0.933,0.1-1.367,0.7-1.3,1.8c0.133,1.066,0.65,1.583,1.55,1.55
						c0.233-0.033,0.467-0.1,0.7-0.2c0.233-0.133,0.383-0.2,0.45-0.2c0.133-0.034,0.25,0.017,0.35,0.15c0.1,0.1,0.15,0.2,0.15,0.3
						c0.034,0.567-0.5,0.9-1.6,1c-0.733,0.067-1.367-0.15-1.9-0.65c-0.5-0.5-0.783-1.133-0.85-1.9
						c-0.034-0.767,0.167-1.417,0.6-1.95C56.983,65.983,57.567,65.667,58.3,65.6z"/>
				</g>
				<g>
					<path style="fill-rule:evenodd;clip-rule:evenodd;fill:#724C26;" d="M62.35,65.9l0.35,4.2c0,0.367-0.167,0.583-0.5,0.65
						c-0.4,0-0.6-0.184-0.6-0.55L61.25,66c0-0.4,0.167-0.6,0.5-0.6C62.15,65.333,62.35,65.5,62.35,65.9z"/>
				</g>
				<g>
					<path style="fill-rule:evenodd;clip-rule:evenodd;fill:#724C26;" d="M64.3,65.25l1.3-0.1c0.566-0.033,1.033,0.083,1.4,0.35
						c0.4,0.3,0.617,0.717,0.65,1.25s-0.117,0.983-0.45,1.35c-0.3,0.333-0.717,0.517-1.25,0.55L65.1,68.7l0.1,1.25
						c0.066,0.4-0.1,0.6-0.5,0.6c-0.4,0.067-0.6-0.116-0.6-0.55l-0.3-4.15C63.733,65.45,63.9,65.25,64.3,65.25z M64.9,66.2
						l0.15,1.55l0.75-0.05c0.467-0.067,0.7-0.35,0.7-0.85c-0.067-0.5-0.35-0.75-0.85-0.75L64.9,66.2z"/>
				</g>
				<g>
					<path style="fill-rule:evenodd;clip-rule:evenodd;fill:#724C26;" d="M68.65,65.55c-0.066-0.433,0.1-0.65,0.5-0.65L71,64.75
						c0.367-0.066,0.55,0.083,0.55,0.45c0.034,0.133,0,0.25-0.1,0.35c-0.1,0.134-0.233,0.2-0.4,0.2l-1.3,0.1l0.1,1.1l1.2-0.1
						c0.333-0.034,0.534,0.117,0.6,0.45c0,0.367-0.167,0.55-0.5,0.55l-1.25,0.1L70,69.1l1.4-0.1c0.3-0.033,0.483,0.117,0.55,0.45
						c0,0.366-0.167,0.55-0.5,0.55l-1.9,0.15c-0.4,0-0.6-0.167-0.6-0.5L68.65,65.55z"/>
				</g>
			</g>
			<g>
				<path style="fill-rule:evenodd;clip-rule:evenodd;fill:#724C26;" d="M117.2,74l-54.4,4.05c-0.233,0-0.383-0.133-0.45-0.4
					c0-0.3,0.133-0.45,0.4-0.45l54.4-4.1c0.3,0,0.449,0.133,0.449,0.4S117.467,73.934,117.2,74z"/>
			</g>
			<g>
				<path style="fill-rule:evenodd;clip-rule:evenodd;fill:#724C26;" d="M117.6,79.35L63.2,83.4c-0.233,0-0.383-0.133-0.45-0.4
					c0-0.3,0.133-0.45,0.4-0.45l54.4-4.1c0.3,0,0.45,0.133,0.45,0.4S117.866,79.283,117.6,79.35z"/>
			</g>
			<g>
				<path style="fill-rule:evenodd;clip-rule:evenodd;fill:#724C26;" d="M118,84.7l-54.4,4.05c-0.233,0-0.383-0.134-0.45-0.4
					c0-0.3,0.133-0.449,0.4-0.449l54.4-4.101c0.3,0,0.45,0.134,0.45,0.4S118.267,84.633,118,84.7z"/>
			</g>
			<g>
				<path style="fill-rule:evenodd;clip-rule:evenodd;fill:#724C26;" d="M118.4,90L64,94.1c-0.233,0-0.383-0.133-0.45-0.399
					c0-0.3,0.133-0.45,0.4-0.45l54.399-4.1c0.301,0,0.45,0.133,0.45,0.399C118.8,89.85,118.667,90,118.4,90z"/>
			</g>
			<g>
				<path style="fill-rule:evenodd;clip-rule:evenodd;fill:#724C26;" d="M118.8,95.35l-69.65,5.25c-0.233,0-0.383-0.133-0.45-0.399
					c0-0.3,0.133-0.45,0.4-0.45l69.65-5.25c0.3,0,0.45,0.133,0.45,0.4C119.2,95.2,119.066,95.35,118.8,95.35z"/>
			</g>
			<g>
				<path style="fill-rule:evenodd;clip-rule:evenodd;fill:#724C26;" d="M119.2,100.7l-69.65,5.25c-0.233,0-0.383-0.134-0.45-0.4
					c0-0.3,0.133-0.45,0.4-0.45l69.65-5.25c0.3,0,0.449,0.134,0.449,0.4C119.6,100.55,119.467,100.7,119.2,100.7z"/>
			</g>
			<g>
				<path style="fill-rule:evenodd;clip-rule:evenodd;fill:#724C26;" d="M119.6,106.05L49.95,111.3c-0.233,0-0.383-0.133-0.45-0.399
					c0-0.301,0.133-0.45,0.4-0.45l69.65-5.25c0.3,0,0.45,0.133,0.45,0.399C120,105.9,119.866,106.05,119.6,106.05z"/>
			</g>
			<g>
				<path style="fill-rule:evenodd;clip-rule:evenodd;fill:#724C26;" d="M120,111.4l-69.65,5.25c-0.233,0-0.383-0.134-0.45-0.4
					c0-0.267,0.133-0.434,0.4-0.5l69.65-5.2c0.3,0,0.45,0.134,0.45,0.4C120.4,111.25,120.267,111.4,120,111.4z"/>
			</g>
		</g>
		<g>
			<path style="fill-rule:evenodd;clip-rule:evenodd;fill:#D1B25D;" d="M132.15,73.75c-0.567-0.733-1.65-0.417-3.25,0.95
				c-1.667,1.433-2.417,3.1-2.25,5c0.166,1.833-0.434,2.583-1.801,2.25c-1.433-0.367-2.033-0.9-1.8-1.6
				c0.434-1.534,0.9-2.917,1.4-4.15c0.967-2.367,1.983-3.817,3.05-4.35c1.066-0.534,2.167-0.383,3.3,0.45
				C131.366,72.733,131.816,73.217,132.15,73.75z"/>
			<path style="fill-rule:evenodd;clip-rule:evenodd;fill:#C6A954;" d="M134.55,71.5l0.4,0.3v0.05c0.8,0.767,1.267,1.8,1.399,3.1
				c0.134,1.3-0.1,2.466-0.699,3.5c-0.367,0.633-2.717,3.733-7.051,9.3c-2.566,3.267-7,8.883-13.3,16.85l-8.649,10.95
				c-1.7,2.2-2.551,4.283-2.551,6.25c-0.066,2.867-0.25,5.017-0.55,6.45c-0.733,3.533-2.25,6.333-4.55,8.4
				c-1.9,1.699-4.167,2.35-6.8,1.949l-3.351-1.1c-1-0.533-1.916-1.3-2.75-2.3c-1.667-1.934-2.1-4-1.3-6.2
				c1.101-2.967,3.517-5.583,7.25-7.85c2.101-1.267,4.417-2.317,6.95-3.15c1.134-0.434,2.25-1.283,3.35-2.55
				c0.934-1.267,1.45-1.967,1.551-2.101v0.101l7.149-12.05c7.267-12.301,12.15-20.55,14.65-24.75c-0.233,1.2-0.033,2.017,0.6,2.45
				c0.467,0.333,1.066,0.316,1.8-0.05c0.733-0.366,1.367-0.983,1.9-1.85c0.533-0.833,0.833-1.667,0.9-2.5
				c0.033-0.833-0.184-1.434-0.65-1.8c-0.733-0.466-1.634-0.25-2.7,0.65l1.95-3.05c0.634-0.767,1.417-0.967,2.35-0.6
				c0.067,0.034,0.95,0.567,2.65,1.6H134.55z"/>
			<path style="fill-rule:evenodd;clip-rule:evenodd;fill:#FCE191;" d="M128.45,72.95c-0.767,0.4-1.417,1.017-1.95,1.85
				c-0.566,0.867-0.866,1.717-0.9,2.55c-0.033,0.833,0.2,1.417,0.7,1.75c0.467,0.333,1.066,0.316,1.8-0.05
				c0.733-0.366,1.367-0.983,1.9-1.85c0.533-0.833,0.833-1.667,0.9-2.5c0.033-0.833-0.184-1.434-0.65-1.8
				C129.783,72.566,129.184,72.583,128.45,72.95z M132.1,70l0.051-0.05l0.199,0.2l0.2,0.15c0.8,0.8,1.267,1.85,1.4,3.15
				c0.1,1.267-0.134,2.433-0.7,3.5c-0.366,0.667-2.717,3.767-7.05,9.3c-2.566,3.267-7.017,8.883-13.351,16.85l-8.6,10.95
				c-1.7,2.2-2.566,4.283-2.6,6.25c0,2.7-0.167,4.851-0.5,6.45c-0.733,3.5-2.25,6.283-4.551,8.35c-3,2.7-6.233,3.034-9.699,1v-0.05
				H86.85c-0.933-0.833-1.649-1.8-2.149-2.899c-1-2.167-1.017-4.483-0.05-6.95c1.133-2.9,3.2-5.283,6.2-7.15
				c1.301-0.8,3.2-1.666,5.7-2.6c1.167-0.4,2.3-1.233,3.4-2.5c0.934-1.267,1.45-1.967,1.55-2.101v0.101l7.15-12.05
				c5.233-8.801,8.916-14.984,11.05-18.55c3.666-6.1,5.733-9.434,6.2-10c0.767-0.9,1.75-1.5,2.949-1.8
				C130.083,69.283,131.167,69.434,132.1,70z"/>
			<g>
				<path style="fill-rule:evenodd;clip-rule:evenodd;fill:#EACC76;" d="M125.8,78.45c0.134,0.3,0.3,0.517,0.5,0.65
					c0.167,0.133,0.417,0.2,0.75,0.2c-0.533,1.3-1.184,2.983-1.95,5.05l-2.05,5.85l-3.55,4.5C121,90.033,123.1,84.617,125.8,78.45z"
					/>
				<path style="fill-rule:evenodd;clip-rule:evenodd;fill:#EACC76;" d="M106.95,110.6l-2.7,3.45c-1.4,1.867-2.233,3.601-2.5,5.2
					l-0.45,0.4c-0.434,0.399-2.333,1.316-5.7,2.75c-2.933,1.199-4.866,2.6-5.8,4.199c-1.133,1.967-2.35,4.867-3.649,8.7
					c-0.334-0.333-0.684-0.816-1.051-1.45c1.067-2.566,2.351-4.966,3.851-7.199c2.066-3.101,4.2-5.25,6.399-6.45
					c2.9-1.566,5.717-4.351,8.45-8.351c2.867-4.233,4.517-8.267,4.95-12.1l4.4-7.4c-0.301,0.967-1.2,3.834-2.7,8.601
					c-0.967,3.033-1.667,5.116-2.101,6.25L106.95,110.6z"/>
				<path style="fill-rule:evenodd;clip-rule:evenodd;fill:#EACC76;" d="M96.15,130.25c1.566-2.333,3.316-4,5.25-5
					c-0.233,1.733-0.7,3.4-1.4,5c-2.2,1.1-3.616,2.434-4.25,4c-0.233,0.6-0.4,1.233-0.5,1.9c-0.9,0.566-1.833,0.933-2.8,1.1
					C93.884,134.116,95.116,131.783,96.15,130.25z"/>
				<path style="fill-rule:evenodd;clip-rule:evenodd;fill:#EACC76;" d="M115.95,99.2l-4,5.1c2.7-9.399,4.866-16.35,6.5-20.85
					c4.6-7.634,7.083-11.667,7.45-12.1c0.5-0.534,1.033-0.95,1.6-1.25c-1.833,3.066-3.684,6.5-5.55,10.3
					c-1.767,3.633-3.017,6.567-3.75,8.8C117.467,91.4,116.717,94.733,115.95,99.2z"/>
				<path style="fill-rule:evenodd;clip-rule:evenodd;fill:#EACC76;" d="M132.85,70.7c0.301,0.4,0.551,0.85,0.75,1.35
					c-0.466,1.3-1.166,3.733-2.1,7.3l-4.75,6.15l3.2-8.2l0.05-0.1c0.467-0.667,0.75-1.333,0.85-2
					C131.517,73.533,132.184,72.033,132.85,70.7z"/>
				<path style="fill-rule:evenodd;clip-rule:evenodd;fill:#EACC76;" d="M84.65,126.2c1.3-3.233,3.7-5.816,7.2-7.75
					C88.283,121.684,85.884,124.267,84.65,126.2z"/>
				<path style="fill-rule:evenodd;clip-rule:evenodd;fill:#EACC76;" d="M131.65,69.8l-1.601,3c-0.5-0.2-1.1-0.116-1.8,0.25l1.8-3.6
					C130.684,69.517,131.217,69.633,131.65,69.8z"/>
			</g>
			<path style="fill-rule:evenodd;clip-rule:evenodd;fill:#FDF3D0;" d="M92.15,135.35c-2.034,0.767-3.801,0.184-5.301-1.75
				c-1.533-1.966-0.866-4.8,2-8.5c2.9-3.699,5.517-5.199,7.851-4.5c1.633,0.5,2.45,1.867,2.45,4.101c0,2.033-0.584,3.95-1.75,5.75
				C95.667,133.05,93.917,134.684,92.15,135.35z"/>
			
				<linearGradient id="SVGID_8_" gradientUnits="userSpaceOnUse" x1="116.9961" y1="-102.0176" x2="134.6497" y2="-102.0176" gradientTransform="matrix(-0.0779 0.997 -1.0015 -0.0192 -4.747361e-004 8.537993e-005)">
				<stop  offset="0" style="stop-color:#BFA04A"/>
				<stop  offset="1" style="stop-color:#FCE191"/>
			</linearGradient>
			<path style="fill-rule:evenodd;clip-rule:evenodd;fill:url(#SVGID_8_);" d="M91.9,134.55c-1.967,0.767-3.717,0.184-5.25-1.75
				c-1.567-2-0.9-4.85,2-8.55c2.866-3.7,5.483-5.2,7.85-4.5c1.634,0.5,2.45,1.866,2.45,4.1c0,2.067-0.601,3.983-1.8,5.75
				C95.417,132.2,93.667,133.85,91.9,134.55z"/>
		</g>
		
			<use xlink:href="#FlashAICB_x2F_Layer_1_x2F__x3C_Group_x3E__x5F_1"  width="52.449" height="69.292" x="-0.013" y="-69.264" transform="matrix(1 0 0 -1 83.9502 69.4502)" style="overflow:visible;enable-background:new    ;"/>
		
			<use xlink:href="#FlashAICB_x2F_Layer_1_x2F__x3C_Group_x3E_"  width="52.449" height="69.292" x="-0.013" y="-69.264" transform="matrix(1 0 0 -1 83.9502 69.4502)" style="overflow:visible;enable-background:new    ;"/>
	</g>
	<g>
		<path style="fill-rule:evenodd;clip-rule:evenodd;fill:#EFF4D9;" d="M80.7,31.45c-0.833,0-1.467-0.25-1.9-0.75
			c-0.4-0.434-0.6-0.967-0.6-1.6c0-0.667,0.183-1.2,0.55-1.6c0.433-0.5,1.083-0.75,1.95-0.75h12.35c0.767,0,1.384,0.3,1.851,0.9
			c0.399,0.5,0.6,1.017,0.6,1.55c0,0.366-0.267,1.116-0.8,2.25L86.25,48.6c-0.533,1.066-0.934,1.733-1.2,2
			c-0.367,0.4-0.917,0.6-1.65,0.6c-0.833,0-1.533-0.284-2.1-0.85c-0.466-0.5-0.7-1.034-0.7-1.6c0-0.3,0.1-0.684,0.3-1.15l8.5-16.15
			H80.7z"/>
		
			<linearGradient id="SVGID_9_" gradientUnits="userSpaceOnUse" x1="-51.2241" y1="86.8516" x2="-26.2491" y2="86.8516" gradientTransform="matrix(4.004004e-005 -1 1 -0.001 -1.024090e-004 4.449275e-004)">
			<stop  offset="0.149" style="stop-color:#0E2904"/>
			<stop  offset="0.302" style="stop-color:#143004"/>
			<stop  offset="0.5176" style="stop-color:#244304"/>
			<stop  offset="0.7765" style="stop-color:#3E6206"/>
			<stop  offset="0.9686" style="stop-color:#567E09"/>
		</linearGradient>
		<path style="fill-rule:evenodd;clip-rule:evenodd;fill:url(#SVGID_9_);" d="M80.7,30.35c-0.833,0-1.467-0.25-1.9-0.75
			c-0.4-0.434-0.6-0.967-0.6-1.6c0-1.566,0.833-2.35,2.5-2.35h12.35c0.767,0,1.384,0.3,1.851,0.9c0.399,0.467,0.6,0.983,0.6,1.55
			c0,0.367-0.267,1.117-0.8,2.25l-8.45,17.1c-0.533,1.066-0.934,1.733-1.2,2c-0.367,0.4-0.917,0.6-1.65,0.6
			c-0.833,0-1.533-0.283-2.1-0.85c-0.466-0.467-0.7-0.983-0.7-1.55c0-0.333,0.1-0.733,0.3-1.2l8.5-16.1H80.7z"/>
	</g>
	<g>
		<g>
			<g>
				<g>
					<g>
						<linearGradient id="SVGID_10_" gradientUnits="userSpaceOnUse" x1="54.9497" y1="35.2998" x2="54.9497" y2="55.8248">
							<stop  offset="0.3569" style="stop-color:#698424"/>
							<stop  offset="0.4627" style="stop-color:#7B9E33"/>
							<stop  offset="0.6314" style="stop-color:#9DCF52"/>
							<stop  offset="0.9647" style="stop-color:#DAE772"/>
						</linearGradient>
						<path style="fill-rule:evenodd;clip-rule:evenodd;fill:url(#SVGID_10_);" d="M53.35,37.15c1.5-1.233,3.233-1.85,5.2-1.85
							c0.8,0,1.483,0.083,2.05,0.25l0.25,0.05c2,0.7,3.267,1.667,3.8,2.9c0.467,1.033,0.467,2.05,0,3.05
							c-0.2,0.467-0.433,0.833-0.7,1.1c0.633,0.4,1.183,0.934,1.65,1.6c0.566,0.867,0.917,1.85,1.05,2.95
							c0.1,1.1-0.066,2.167-0.5,3.2c-0.533,1.3-1.383,2.317-2.55,3.05c-1.167,0.733-2.5,1.1-4,1.1c-1.367,0-2.583-0.267-3.65-0.8
							c-1.267,1.367-2.883,2.05-4.85,2.05c-1.2,0-2.367-0.267-3.5-0.8c-1.167-0.566-2.117-1.316-2.85-2.25
							c-1.367-1.767-1.817-3.667-1.35-5.7c0.3-1.167,0.867-2.167,1.7-3l-0.15-0.35c-0.633-1.567-0.483-3.134,0.45-4.7
							c1-1.7,2.533-2.6,4.6-2.7c0.767,0,1.4,0.25,1.9,0.75c0.267,0.267,0.434,0.483,0.5,0.65L53.35,37.15z"/>
						<path style="fill-rule:evenodd;clip-rule:evenodd;fill:none;stroke:#DFF39B;stroke-width:0.25;" d="M53.35,37.15
							c1.5-1.233,3.233-1.85,5.2-1.85c0.8,0,1.483,0.083,2.05,0.25l0.25,0.05c2,0.7,3.267,1.667,3.8,2.9
							c0.467,1.033,0.467,2.05,0,3.05c-0.2,0.467-0.433,0.833-0.7,1.1c0.633,0.4,1.183,0.934,1.65,1.6
							c0.566,0.867,0.917,1.85,1.05,2.95c0.1,1.1-0.066,2.167-0.5,3.2c-0.533,1.3-1.383,2.317-2.55,3.05c-1.167,0.733-2.5,1.1-4,1.1
							c-1.367,0-2.583-0.267-3.65-0.8c-1.267,1.367-2.883,2.05-4.85,2.05c-1.2,0-2.367-0.267-3.5-0.8
							c-1.167-0.566-2.117-1.316-2.85-2.25c-1.367-1.767-1.817-3.667-1.35-5.7c0.3-1.167,0.867-2.167,1.7-3l-0.15-0.35
							c-0.633-1.567-0.483-3.134,0.45-4.7c1-1.7,2.533-2.6,4.6-2.7c0.767,0,1.4,0.25,1.9,0.75c0.267,0.267,0.434,0.483,0.5,0.65
							L53.35,37.15z"/>
					</g>
					<g>
						<path style="fill-rule:evenodd;clip-rule:evenodd;fill:#22480E;" d="M50.3,45.3l-0.05,0.05c-0.567,0.867-0.7,1.617-0.4,2.25
							c0.1,0.2,0.25,0.333,0.45,0.4c0.233,0.033,0.45-0.017,0.65-0.15c0.367-0.4,0.583-1.284,0.65-2.65c-0.2,0.066-0.5,0.1-0.9,0.1
							H50.3z M48.15,44.55c-0.6-0.4-1.033-0.933-1.3-1.6c-0.367-1-0.267-1.983,0.3-2.95c0.633-1.033,1.617-1.583,2.95-1.65
							c0.167,0,0.3,0.05,0.4,0.15c0.133,0.133,0.2,0.267,0.2,0.4l-0.05,0.5c-0.033,0.3-0.033,0.5,0,0.6
							c0.2,0.1,0.417,0.15,0.65,0.15c0.9,0,2.034-0.483,3.4-1.45c1.033-0.934,2.316-1.4,3.85-1.4c0.367,0,0.883,0.067,1.55,0.2h0.05
							c1.467,0.566,2.35,1.184,2.65,1.85c0.2,0.433,0.2,0.9,0,1.4c-0.3,0.667-1,1.083-2.1,1.25l-0.8,0.15
							c-0.566,0.267-1.05,0.883-1.45,1.85c-0.434,1.066-0.467,1.95-0.1,2.65c0.2,0.333,0.517,0.55,0.95,0.65h0.15
							c0.433,0,0.7-0.133,0.8-0.4c0.2-0.367,0.183-0.75-0.05-1.15c-0.267-0.633-0.4-1.1-0.4-1.4c0.067-0.3,0.25-0.483,0.55-0.55
							h0.45c1.4,0,2.434,0.517,3.1,1.55c0.867,1.3,0.983,2.733,0.35,4.3c-0.333,0.9-0.917,1.617-1.75,2.15
							c-0.833,0.5-1.8,0.75-2.9,0.75c-1.767,0-3.2-0.55-4.3-1.65l-0.05,0.15c-0.2,0.467-0.4,0.833-0.6,1.1
							c-0.9,1.1-2.083,1.65-3.55,1.65c-0.867,0-1.733-0.2-2.6-0.6c-0.9-0.434-1.617-1-2.15-1.7c-0.934-1.2-1.25-2.533-0.95-4
							C45.767,46,46.683,45.017,48.15,44.55z"/>
					</g>
					<g>
						<g>
							
								<linearGradient id="SVGID_11_" gradientUnits="userSpaceOnUse" x1="-53.2676" y1="54.958" x2="-37.9426" y2="54.958" gradientTransform="matrix(6.525286e-005 -1 1 -0.001 1.861027e-004 4.439838e-004)">
								<stop  offset="0.0745" style="stop-color:#6EB627"/>
								<stop  offset="0.5569" style="stop-color:#75D01B"/>
								<stop  offset="0.7725" style="stop-color:#78DD17"/>
							</linearGradient>
							<path style="fill-rule:evenodd;clip-rule:evenodd;fill:url(#SVGID_11_);" d="M61.8,45.3c0,0.1,0.034,0.4,0.1,0.9
								c-0.033,0.6-0.283,1.2-0.75,1.8c-0.667,0.833-1.267,1.217-1.8,1.15c-0.033,0-0.35-0.15-0.95-0.45
								c0.267,0.366,0.684,0.583,1.25,0.65c0.567,0.066,1.1-0.034,1.6-0.3c0.567-0.267,0.967-0.883,1.2-1.85
								C62.65,46.2,62.433,45.566,61.8,45.3z M57.25,40.85c-1,0.667-1.683,1.566-2.05,2.7c-0.833,2.634-0.383,4.75,1.35,6.35
								c-0.3-0.466-0.566-1.066-0.8-1.8c-0.467-1.5-0.5-2.967-0.1-4.4c0.167-0.567,0.733-1.317,1.7-2.25
								c0.867-0.8,1.367-1.2,1.5-1.2C58.583,40.083,58.05,40.283,57.25,40.85z M48.65,45.85c-0.767-0.267-1.4,0.283-1.9,1.65
								c-0.533,1.4-0.183,2.65,1.05,3.75c-0.4-0.566-0.617-1.283-0.65-2.15C47.117,47.833,47.617,46.75,48.65,45.85z M53.25,41.7
								c-0.333,0.167-0.733,0.283-1.2,0.35c-0.9,0.067-1.633-0.216-2.2-0.85c0.633,1.667,2.083,2,4.35,1
								c0.7-0.467,1.333-0.884,1.9-1.25c1.1-0.733,1.983-1.117,2.65-1.15c-0.6-0.6-1.6-0.5-3,0.3
								C54.383,41.066,53.55,41.6,53.25,41.7z M53.6,44.15l-0.75,0.3c0.2,1.066,0.133,2.267-0.2,3.6c-0.3,0.9-0.833,1.4-1.6,1.5
								c-0.733,0.134-1.1,0.233-1.1,0.3c1.867,0.5,3.033-0.267,3.5-2.3C53.55,45.35,53.6,44.217,53.6,44.15z M49.55,44.55
								c-0.966-0.267-1.65-0.783-2.05-1.55c-0.433-0.833-0.383-1.733,0.15-2.7c0.533-0.866,1.35-1.333,2.45-1.4
								c0,0.167-0.017,0.434-0.05,0.8c-0.033,0.333,0.05,0.6,0.25,0.8c1.167,0.6,2.75,0.133,4.75-1.4
								c0.667-0.567,1.45-0.934,2.35-1.1c0.833-0.167,1.684-0.15,2.55,0.05c1.933,0.733,2.7,1.567,2.3,2.5
								c-0.167,0.434-0.55,0.7-1.15,0.8c-0.7,0.1-1.184,0.2-1.45,0.3c-0.7,0.333-1.267,1.034-1.7,2.1
								c-0.367,0.867-0.483,1.684-0.35,2.45c0.167,0.933,0.7,1.483,1.6,1.65c0.3,0.066,0.6,0.033,0.9-0.1
								c0.3-0.133,0.517-0.316,0.65-0.55c0.3-0.5,0.333-1,0.1-1.5c-0.3-0.634-0.45-1.067-0.45-1.3c1.467-0.133,2.533,0.367,3.2,1.5
								c0.6,1.1,0.65,2.284,0.15,3.55c-0.667,1.667-2.033,2.5-4.1,2.5c-1.967,0.033-3.467-0.65-4.5-2.05
								c-0.167,0.233-0.316,0.567-0.45,1c-0.167,0.4-0.333,0.7-0.5,0.9c-1.367,1.7-3.2,1.983-5.5,0.85
								c-2.333-1.167-3.25-2.833-2.75-5c0.2-0.833,0.65-1.5,1.35-2c0.667-0.5,1.383-0.716,2.15-0.65l0.3,0.05
								c-0.433,0.634-0.633,1.317-0.6,2.05c0.067,0.833,0.417,1.316,1.05,1.45c0.767,0.167,1.316-0.267,1.65-1.3
								c0.267-0.767,0.367-1.7,0.3-2.8C51.317,44.783,50.45,44.816,49.55,44.55z M48.3,40.95c-0.367,0.933-0.216,1.733,0.45,2.4
								c0.567,0.6,1.15,0.833,1.75,0.7c-0.833-0.733-1.317-1.2-1.45-1.4c-0.433-0.733-0.367-1.617,0.2-2.65
								C48.917,40.033,48.6,40.35,48.3,40.95z"/>
							<path style="fill-rule:evenodd;clip-rule:evenodd;fill:#EAF9B6;" d="M61.25,49.05c-0.5,0.267-1.033,0.367-1.6,0.3
								c-0.566-0.067-0.983-0.284-1.25-0.65c0.6,0.3,0.917,0.45,0.95,0.45c0.533,0.067,1.133-0.316,1.8-1.15
								c0.467-0.6,0.717-1.2,0.75-1.8c-0.066-0.5-0.1-0.8-0.1-0.9c0.633,0.267,0.85,0.9,0.65,1.9
								C62.217,48.167,61.817,48.783,61.25,49.05z"/>
							<path style="fill-rule:evenodd;clip-rule:evenodd;fill:#EAF9B6;" d="M58.85,40.25c-0.133,0-0.633,0.4-1.5,1.2
								c-0.967,0.933-1.533,1.683-1.7,2.25c-0.4,1.433-0.367,2.9,0.1,4.4c0.233,0.733,0.5,1.333,0.8,1.8
								c-1.733-1.6-2.183-3.716-1.35-6.35c0.367-1.133,1.05-2.033,2.05-2.7C58.05,40.283,58.583,40.083,58.85,40.25z"/>
							<path style="fill-rule:evenodd;clip-rule:evenodd;fill:#EAF9B6;" d="M54.2,42.2c-2.267,1-3.717,0.667-4.35-1
								c0.566,0.633,1.3,0.917,2.2,0.85c0.467-0.066,0.867-0.183,1.2-0.35c0.3-0.1,1.133-0.634,2.5-1.6c1.4-0.8,2.4-0.9,3-0.3
								c-0.667,0.034-1.55,0.417-2.65,1.15C55.533,41.316,54.9,41.733,54.2,42.2z"/>
							<path style="fill-rule:evenodd;clip-rule:evenodd;fill:#EAF9B6;" d="M49.95,49.85c0-0.067,0.367-0.167,1.1-0.3
								c0.767-0.1,1.3-0.6,1.6-1.5c0.333-1.333,0.4-2.533,0.2-3.6l0.75-0.3c0,0.067-0.05,1.2-0.15,3.4
								C52.983,49.583,51.817,50.35,49.95,49.85z"/>
							<path style="fill-rule:evenodd;clip-rule:evenodd;fill:#EAF9B6;" d="M48.3,40.95c0.3-0.6,0.617-0.917,0.95-0.95
								c-0.567,1.033-0.633,1.917-0.2,2.65c0.133,0.2,0.617,0.667,1.45,1.4c-0.6,0.134-1.183-0.1-1.75-0.7
								C48.083,42.684,47.933,41.883,48.3,40.95z"/>
							<path style="fill-rule:evenodd;clip-rule:evenodd;fill:#EAF9B6;" d="M48.65,45.85c-1.033,0.9-1.533,1.983-1.5,3.25
								c0.033,0.867,0.25,1.583,0.65,2.15c-1.233-1.1-1.583-2.35-1.05-3.75C47.25,46.133,47.883,45.583,48.65,45.85z"/>
						</g>
					</g>
				</g>
			</g>
		</g>
		<g>
			<g>
				<g>
					<g>
						
							<linearGradient id="SVGID_12_" gradientUnits="userSpaceOnUse" x1="-55.9194" y1="116.376" x2="-35.4121" y2="116.376" gradientTransform="matrix(4.872107e-005 -1 1 -0.001 -4.803176e-005 4.439838e-004)">
							<stop  offset="0.3569" style="stop-color:#698424"/>
							<stop  offset="0.4627" style="stop-color:#7B9E33"/>
							<stop  offset="0.6314" style="stop-color:#9DCF52"/>
							<stop  offset="0.9647" style="stop-color:#DAE772"/>
						</linearGradient>
						<path style="fill-rule:evenodd;clip-rule:evenodd;fill:url(#SVGID_12_);" d="M117.95,37.15l0.95,0.55
							c0.066-0.167,0.233-0.384,0.5-0.65c0.5-0.5,1.133-0.75,1.899-0.75c2.066,0.1,3.601,1,4.601,2.7
							c0.933,1.566,1.083,3.133,0.449,4.7l-0.149,0.35c0.8,0.767,1.366,1.767,1.7,3c0.466,2.067,0.017,3.967-1.351,5.7
							c-0.733,0.934-1.684,1.684-2.85,2.25c-1.134,0.533-2.3,0.8-3.5,0.8c-1.967,0-3.584-0.683-4.851-2.05
							c-1.066,0.533-2.283,0.8-3.649,0.8c-1.5,0-2.834-0.366-4-1.1c-1.167-0.733-2.017-1.75-2.55-3.05
							c-0.4-1.066-0.551-2.133-0.45-3.2c0.1-1.134,0.434-2.117,1-2.95c0.467-0.667,1.017-1.2,1.649-1.6
							c-0.267-0.267-0.5-0.633-0.699-1.1c-0.467-1-0.467-2.017,0-3.05c0.566-1.233,1.833-2.2,3.8-2.9l0.25-0.05
							c0.6-0.167,1.283-0.25,2.05-0.25C114.783,35.3,116.517,35.917,117.95,37.15z"/>
						<path style="fill-rule:evenodd;clip-rule:evenodd;fill:none;stroke:#DFF39B;stroke-width:0.25;" d="M117.95,37.15
							c-1.434-1.233-3.167-1.85-5.2-1.85c-0.767,0-1.45,0.083-2.05,0.25l-0.25,0.05c-1.967,0.7-3.233,1.667-3.8,2.9
							c-0.467,1.033-0.467,2.05,0,3.05c0.199,0.467,0.433,0.833,0.699,1.1c-0.633,0.4-1.183,0.934-1.649,1.6
							c-0.566,0.833-0.9,1.816-1,2.95c-0.101,1.066,0.05,2.133,0.45,3.2c0.533,1.3,1.383,2.317,2.55,3.05c1.166,0.733,2.5,1.1,4,1.1
							c1.366,0,2.583-0.267,3.649-0.8c1.267,1.367,2.884,2.05,4.851,2.05c1.2,0,2.366-0.267,3.5-0.8
							c1.166-0.566,2.116-1.316,2.85-2.25c1.367-1.733,1.816-3.633,1.351-5.7c-0.334-1.233-0.9-2.233-1.7-3l0.149-0.35
							c0.634-1.567,0.483-3.134-0.449-4.7c-1-1.7-2.534-2.6-4.601-2.7c-0.767,0-1.399,0.25-1.899,0.75
							c-0.267,0.267-0.434,0.483-0.5,0.65L117.95,37.15z"/>
					</g>
					<g>
						<path style="fill-rule:evenodd;clip-rule:evenodd;fill:#22480E;" d="M121,48c0.267-0.066,0.417-0.2,0.45-0.4
							c0.3-0.633,0.166-1.383-0.4-2.25L121,45.3h-0.4c-0.399,0-0.699-0.033-0.899-0.1c0.066,1.3,0.283,2.183,0.649,2.65
							C120.55,47.983,120.767,48.033,121,48z M120.8,38.5c0.101-0.1,0.25-0.15,0.45-0.15c1.3,0.066,2.267,0.617,2.9,1.65
							c0.633,1.033,0.733,2.017,0.3,2.95c-0.267,0.667-0.7,1.2-1.3,1.6c1.533,0.467,2.449,1.45,2.75,2.95
							c0.366,1.434,0.05,2.767-0.95,4c-0.533,0.7-1.25,1.267-2.15,1.7c-0.866,0.4-1.733,0.6-2.6,0.6c-1.467,0-2.65-0.55-3.55-1.65
							c-0.267-0.333-0.45-0.7-0.551-1.1L116,50.9c-1.1,1.1-2.533,1.65-4.3,1.65c-1.101,0-2.066-0.25-2.9-0.75
							c-0.8-0.533-1.383-1.25-1.75-2.15c-0.633-1.566-0.517-3,0.351-4.3c0.666-1.034,1.699-1.55,3.1-1.55h0.45
							c0.366,0.067,0.55,0.25,0.55,0.55c0,0.466-0.134,0.933-0.4,1.4c-0.199,0.434-0.216,0.816-0.05,1.15
							c0.101,0.267,0.367,0.4,0.8,0.4H112c0.434-0.1,0.75-0.316,0.95-0.65c0.366-0.7,0.333-1.583-0.101-2.65
							c-0.399-0.967-0.883-1.583-1.449-1.85L110.6,42c-1.1-0.167-1.8-0.583-2.1-1.25c-0.2-0.5-0.2-0.967,0-1.4
							c0.3-0.667,1.184-1.284,2.65-1.85h0.05c0.666-0.133,1.184-0.2,1.55-0.2c1.5,0,2.8,0.467,3.9,1.4
							c1.366,0.966,2.483,1.45,3.35,1.45c0.233,0,0.45-0.05,0.65-0.15c0.066-0.1,0.066-0.3,0-0.6v-0.5
							C120.65,38.733,120.7,38.6,120.8,38.5z"/>
					</g>
					<g>
						<g>
							<linearGradient id="SVGID_13_" gradientUnits="userSpaceOnUse" x1="116.3535" y1="37.8999" x2="116.3535" y2="53.1999">
								<stop  offset="0.0745" style="stop-color:#6EB627"/>
								<stop  offset="0.5569" style="stop-color:#75D01B"/>
								<stop  offset="0.7725" style="stop-color:#78DD17"/>
							</linearGradient>
							<path style="fill-rule:evenodd;clip-rule:evenodd;fill:url(#SVGID_13_);" d="M124.55,47.5c-0.5-1.367-1.116-1.917-1.85-1.65
								c1,0.9,1.483,1.983,1.45,3.25c-0.034,0.867-0.25,1.583-0.65,2.15C124.733,50.15,125.083,48.9,124.55,47.5z M111.65,49.35
								c0.566-0.067,0.983-0.284,1.25-0.65c-0.601,0.3-0.917,0.45-0.95,0.45c-0.533,0.067-1.134-0.316-1.8-1.15
								c-0.467-0.6-0.717-1.2-0.75-1.8c0.066-0.5,0.1-0.8,0.1-0.9c-0.634,0.267-0.833,0.9-0.6,1.9
								c0.199,0.966,0.583,1.583,1.149,1.85C110.55,49.316,111.083,49.417,111.65,49.35z M114.05,40.85
								c-0.8-0.567-1.333-0.767-1.6-0.6c0.133,0,0.633,0.4,1.5,1.2c0.967,0.933,1.533,1.683,1.7,2.25
								c0.433,1.433,0.416,2.9-0.051,4.4c-0.233,0.733-0.517,1.333-0.85,1.8c1.033-0.933,1.616-2.1,1.75-3.5
								c0.066-0.966-0.066-1.917-0.4-2.85C115.733,42.417,115.05,41.517,114.05,40.85z M121.25,39.7
								c-0.033-0.367-0.05-0.634-0.05-0.8c1.1,0.034,1.916,0.5,2.45,1.4c0.533,0.967,0.6,1.867,0.199,2.7
								c-0.399,0.767-1.083,1.283-2.05,1.55c-0.899,0.267-1.783,0.233-2.649-0.1c-0.067,1.1,0.033,2.033,0.3,2.8
								c0.333,1.033,0.883,1.467,1.649,1.3c0.667-0.133,1.017-0.616,1.051-1.45c0.033-0.733-0.167-1.417-0.601-2.05l0.3-0.05
								c0.801-0.066,1.534,0.15,2.2,0.65c0.667,0.5,1.101,1.167,1.3,2c0.5,2.167-0.416,3.833-2.75,5c-2.3,1.133-4.133,0.85-5.5-0.85
								c-0.166-0.2-0.316-0.5-0.449-0.9c-0.167-0.433-0.334-0.767-0.5-1c-1.034,1.4-2.534,2.083-4.5,2.05
								c-2.034,0-3.384-0.833-4.051-2.5c-0.533-1.267-0.5-2.45,0.101-3.55c0.666-1.133,1.733-1.633,3.2-1.5
								c0,0.233-0.15,0.667-0.45,1.3c-0.233,0.5-0.2,1,0.1,1.5c0.334,0.566,0.851,0.783,1.55,0.65c0.9-0.167,1.434-0.717,1.601-1.65
								c0.133-0.767,0.017-1.583-0.351-2.45c-0.433-1.066-1-1.767-1.699-2.1c-0.634-0.133-1.117-0.233-1.45-0.3
								c-0.601-0.1-0.983-0.367-1.15-0.8c-0.399-0.933,0.367-1.767,2.3-2.5c1.934-0.433,3.567-0.083,4.9,1.05
								c2,1.533,3.583,2,4.75,1.4C121.2,40.3,121.283,40.033,121.25,39.7z M123,40.95c-0.3-0.6-0.616-0.917-0.95-0.95
								c0.566,1.033,0.634,1.917,0.2,2.65c-0.134,0.2-0.616,0.667-1.45,1.4c0.601,0.134,1.2-0.1,1.8-0.7
								C123.233,42.684,123.366,41.883,123,40.95z M118.05,41.7c-0.934-0.667-1.767-1.2-2.5-1.6c-1.399-0.8-2.399-0.9-3-0.3
								c0.7,0.034,1.601,0.417,2.7,1.15c0.566,0.366,1.184,0.783,1.85,1.25c2.267,1,3.717,0.667,4.351-1
								c-0.566,0.633-1.3,0.917-2.2,0.85L118.05,41.7z M118.45,44.45l-0.75-0.3c0.033,0.067,0.083,1.2,0.149,3.4
								c0.467,2.034,1.634,2.8,3.5,2.3c0-0.067-0.366-0.167-1.1-0.3c-0.767-0.1-1.283-0.6-1.55-1.5
								C118.366,46.717,118.283,45.517,118.45,44.45z"/>
							<path style="fill-rule:evenodd;clip-rule:evenodd;fill:#EAF9B6;" d="M110.05,49.05c-0.566-0.267-0.95-0.883-1.149-1.85
								c-0.233-1-0.034-1.634,0.6-1.9c0,0.1-0.033,0.4-0.1,0.9c0.033,0.6,0.283,1.2,0.75,1.8c0.666,0.833,1.267,1.217,1.8,1.15
								c0.033,0,0.35-0.15,0.95-0.45c-0.267,0.366-0.684,0.583-1.25,0.65C111.083,49.417,110.55,49.316,110.05,49.05z"/>
							<path style="fill-rule:evenodd;clip-rule:evenodd;fill:#EAF9B6;" d="M112.45,40.25c0.267-0.167,0.8,0.033,1.6,0.6
								c1,0.667,1.684,1.566,2.05,2.7c0.334,0.934,0.467,1.884,0.4,2.85c-0.134,1.4-0.717,2.567-1.75,3.5
								c0.333-0.466,0.616-1.066,0.85-1.8c0.467-1.5,0.483-2.967,0.051-4.4c-0.167-0.567-0.733-1.317-1.7-2.25
								C113.083,40.65,112.583,40.25,112.45,40.25z"/>
							<path style="fill-rule:evenodd;clip-rule:evenodd;fill:#EAF9B6;" d="M112.55,39.8c0.601-0.6,1.601-0.5,3,0.3
								c0.733,0.4,1.566,0.933,2.5,1.6l1.2,0.35c0.9,0.067,1.634-0.216,2.2-0.85c-0.634,1.667-2.084,2-4.351,1
								c-0.666-0.467-1.283-0.884-1.85-1.25C114.15,40.217,113.25,39.833,112.55,39.8z"/>
							<path style="fill-rule:evenodd;clip-rule:evenodd;fill:#EAF9B6;" d="M121.35,49.85c-1.866,0.5-3.033-0.267-3.5-2.3
								c-0.066-2.2-0.116-3.333-0.149-3.4l0.75,0.3c-0.167,1.066-0.084,2.267,0.25,3.6c0.267,0.9,0.783,1.4,1.55,1.5
								C120.983,49.684,121.35,49.783,121.35,49.85z"/>
							<path style="fill-rule:evenodd;clip-rule:evenodd;fill:#EAF9B6;" d="M123,40.95c0.366,0.933,0.233,1.733-0.4,2.4
								c-0.6,0.6-1.199,0.833-1.8,0.7c0.834-0.733,1.316-1.2,1.45-1.4c0.434-0.733,0.366-1.617-0.2-2.65
								C122.384,40.033,122.7,40.35,123,40.95z"/>
							<path style="fill-rule:evenodd;clip-rule:evenodd;fill:#EAF9B6;" d="M122.7,45.85c0.733-0.267,1.35,0.283,1.85,1.65
								c0.533,1.4,0.184,2.65-1.05,3.75c0.4-0.566,0.616-1.283,0.65-2.15C124.184,47.833,123.7,46.75,122.7,45.85z"/>
						</g>
					</g>
				</g>
			</g>
		</g>
	</g>
	
		<use xlink:href="#FlashAICB_x2F_Layer_1_x2F__x3C_Path_x3E_"  width="128.6" height="61.85" y="-61.85" transform="matrix(1 0 0 -1 21.3501 85.7998)" style="overflow:visible;opacity:0.4688;enable-background:new    ;"/>
	<g>
		
			<use xlink:href="#FlashAICB_x2F_Layer_1_x2F__x3C_Path_x3E__x5F_1"  width="119.2" height="60.45" y="-60.45" transform="matrix(1 0 0 -1 26.0498 22.0498)" style="overflow:visible;opacity:0.1992;enable-background:new    ;"/>
		
			<use xlink:href="#FlashAICB_x2F_Layer_1_x2F__x3C_Path_x3E__x5F_0"  width="119.2" height="66.434" y="-66.434" transform="matrix(1 0 0 -1 26.0498 22.0498)" style="overflow:visible;opacity:0.1211;enable-background:new    ;"/>
	</g>
</g>
</svg>
