<?xml version="1.0" encoding="iso-8859-1"?>
<!-- Generator: Adobe Illustrator 15.1.0, SVG Export Plug-In . SVG Version: 6.00 Build 0)  -->
<!DOCTYPE svg PUBLIC "-//W3C//DTD SVG 1.1//EN" "http://www.w3.org/Graphics/SVG/1.1/DTD/svg11.dtd">
<svg version="1.1" id="Layer_1" xmlns="http://www.w3.org/2000/svg" xmlns:xlink="http://www.w3.org/1999/xlink" x="0px" y="0px"
	 width="171.7px" height="171.75px" viewBox="0 0 171.7 171.75" style="enable-background:new 0 0 171.7 171.75;"
	 xml:space="preserve">
<symbol  id="FlashAICB_x2F_Layer_1_x2F__x3C_Clip_Group_0_x3E_" viewBox="0 -27.5 26.3 27.5">
	<g id="Layer_1_6_">
	</g>
	<g>
		<defs>
			<path id="SVGID_1_" d="M18.9-9.95c-3.033-2.133-6.217-3.8-9.55-5c-1.633-0.6-2.983-0.983-4.05-1.15l-0.45-0.75
				c-0.333-0.633-0.6-1.35-0.8-2.15L3.9-20.5c2.833,0.267,5.817,1.15,8.95,2.65c4.3,2.067,7.066,4.3,8.3,6.7
				c0.767,1.467,1.1,2.8,1,4C21.983-7.617,20.9-8.55,18.9-9.95z"/>
		</defs>
		<clipPath id="SVGID_2_">
			<use xlink:href="#SVGID_1_"  style="overflow:visible;"/>
		</clipPath>
		<g id="Layer_3_5_" style="clip-path:url(#SVGID_2_);">
			<linearGradient id="SVGID_3_" gradientUnits="userSpaceOnUse" x1="5.6812" y1="-15.3589" x2="23.2062" y2="-11.5839">
				<stop  offset="0" style="stop-color:#A2A3A7"/>
				<stop  offset="1" style="stop-color:#8F9092"/>
			</linearGradient>
			<polygon style="fill-rule:evenodd;clip-rule:evenodd;fill:url(#SVGID_3_);" points="0,-4.65 21.35,0 26.3,-22.9 4.95,-27.5 			
				"/>
		</g>
	</g>
	<g id="Layer_4_5_">
	</g>
</symbol>
<symbol  id="FlashAICB_x2F_Layer_1_x2F__x3C_Clip_Group_0_x3E__x5F_1" viewBox="0 -5.15 4.9 5.15">
	<g id="Layer_1_5_">
	</g>
	<g>
		<defs>
			<path id="SVGID_4_" d="M1.3-0.35L0.75-3.5c-0.033-0.433,0.317-0.767,1.05-1c0.7-0.2,1.233-0.183,1.6,0.05l1.5,3.2L1.3-0.35z"/>
		</defs>
		<clipPath id="SVGID_5_">
			<use xlink:href="#SVGID_4_"  style="overflow:visible;"/>
		</clipPath>
		<g id="Layer_3_4_" style="clip-path:url(#SVGID_5_);">
			<linearGradient id="SVGID_6_" gradientUnits="userSpaceOnUse" x1="1.4316" y1="-2.2065" x2="3.7816" y2="-3.0565">
				<stop  offset="0" style="stop-color:#525254"/>
				<stop  offset="0.0745" style="stop-color:#58585A"/>
				<stop  offset="0.1725" style="stop-color:#67686A"/>
				<stop  offset="0.2667" style="stop-color:#7C7E80"/>
				<stop  offset="0.3686" style="stop-color:#676769"/>
				<stop  offset="0.5255" style="stop-color:#4E4C4E"/>
				<stop  offset="0.6784" style="stop-color:#3B383B"/>
				<stop  offset="0.8392" style="stop-color:#302D2F"/>
				<stop  offset="1" style="stop-color:#2D292B"/>
			</linearGradient>
			<polygon style="fill-rule:evenodd;clip-rule:evenodd;fill:url(#SVGID_6_);" points="1.4,0 4.9,-1.25 3.5,-5.15 0,-3.9 			"/>
		</g>
	</g>
	<g id="Layer_4_4_">
	</g>
</symbol>
<symbol  id="FlashAICB_x2F_Layer_1_x2F__x3C_Clip_Group_0_x3E__x5F_2" viewBox="0 -4.9 4.15 4.9">
	<g id="Layer_1_4_">
	</g>
	<g>
		<defs>
			<path id="SVGID_7_" d="M1.25-0.35l-0.6-3.1C0.583-3.883,0.833-4.183,1.4-4.35c0.567-0.133,1-0.083,1.3,0.15l1.45,3.25L1.25-0.35z
				"/>
		</defs>
		<clipPath id="SVGID_8_">
			<use xlink:href="#SVGID_7_"  style="overflow:visible;"/>
		</clipPath>
		<g id="Layer_3_3_" style="clip-path:url(#SVGID_8_);">
			<linearGradient id="SVGID_9_" gradientUnits="userSpaceOnUse" x1="1.2793" y1="-2.1626" x2="3.1293" y2="-2.8126">
				<stop  offset="0" style="stop-color:#525254"/>
				<stop  offset="0.051" style="stop-color:#58585A"/>
				<stop  offset="0.1137" style="stop-color:#68686A"/>
				<stop  offset="0.1882" style="stop-color:#828285"/>
				<stop  offset="0.2667" style="stop-color:#A6A7AA"/>
				<stop  offset="0.3569" style="stop-color:#8A8A8D"/>
				<stop  offset="0.4824" style="stop-color:#69676A"/>
				<stop  offset="0.6078" style="stop-color:#4E4C4E"/>
				<stop  offset="0.7373" style="stop-color:#3C383B"/>
				<stop  offset="0.8667" style="stop-color:#302D2F"/>
				<stop  offset="1" style="stop-color:#2D292B"/>
			</linearGradient>
			<polygon style="fill-rule:evenodd;clip-rule:evenodd;fill:url(#SVGID_9_);" points="1.4,0 4.15,-0.95 2.75,-4.9 0,-3.9 			"/>
		</g>
	</g>
	<g id="Layer_4_3_">
	</g>
</symbol>
<symbol  id="FlashAICB_x2F_Layer_1_x2F__x3C_Clip_Group_0_x3E__x5F_3" viewBox="0 -4.9 4.1 4.9">
	<g id="Layer_1_3_">
	</g>
	<g>
		<defs>
			<path id="SVGID_10_" d="M1.25-0.35l-0.6-3.1C0.583-3.883,0.833-4.183,1.4-4.35c0.567-0.167,1-0.117,1.3,0.15L4.1-1L1.25-0.35z"/>
		</defs>
		<clipPath id="SVGID_11_">
			<use xlink:href="#SVGID_10_"  style="overflow:visible;"/>
		</clipPath>
		<g id="Layer_3_2_" style="clip-path:url(#SVGID_11_);">
			<linearGradient id="SVGID_12_" gradientUnits="userSpaceOnUse" x1="1.2715" y1="-2.1851" x2="3.1215" y2="-2.8351">
				<stop  offset="0" style="stop-color:#525254"/>
				<stop  offset="0.0745" style="stop-color:#58585A"/>
				<stop  offset="0.1725" style="stop-color:#67686A"/>
				<stop  offset="0.2667" style="stop-color:#7C7E80"/>
				<stop  offset="0.3686" style="stop-color:#676769"/>
				<stop  offset="0.5255" style="stop-color:#4E4C4E"/>
				<stop  offset="0.6784" style="stop-color:#3B383B"/>
				<stop  offset="0.8392" style="stop-color:#302D2F"/>
				<stop  offset="1" style="stop-color:#2D292B"/>
			</linearGradient>
			<polygon style="fill-rule:evenodd;clip-rule:evenodd;fill:url(#SVGID_12_);" points="1.35,0 4.1,-1 2.7,-4.9 0,-3.9 			"/>
		</g>
	</g>
	<g id="Layer_4_2_">
	</g>
</symbol>
<symbol  id="FlashAICB_x2F_Layer_1_x2F__x3C_Clip_Group_0_x3E__x5F_4" viewBox="0 -22.6 25.15 22.6">
	<g id="Layer_1_2_">
	</g>
	<g>
		<defs>
			<path id="SVGID_13_" d="M19.55-13.9c-2.2,2.667-4.6,4.533-7.2,5.6l-0.6,0.2c-2.033,0.733-4.233,1.033-6.6,0.9
				C3.95-7.267,2.967-7.4,2.2-7.6c1.6-0.233,4.767-1.383,9.5-3.45c3.633-1.633,7.083-3.817,10.35-6.55
				C21.483-16.467,20.65-15.233,19.55-13.9z"/>
		</defs>
		<clipPath id="SVGID_14_">
			<use xlink:href="#SVGID_13_"  style="overflow:visible;"/>
		</clipPath>
		<g id="Layer_3_1_" style="clip-path:url(#SVGID_14_);">
			<linearGradient id="SVGID_15_" gradientUnits="userSpaceOnUse" x1="8.8174" y1="-8.5654" x2="19.6424" y2="-16.3904">
				<stop  offset="0" style="stop-color:#636466"/>
				<stop  offset="0.4627" style="stop-color:#7B7C7E"/>
				<stop  offset="1" style="stop-color:#9C9DA0"/>
			</linearGradient>
			<polygon style="fill-rule:evenodd;clip-rule:evenodd;fill:url(#SVGID_15_);" points="6.7,0 25.15,-13.3 18.45,-22.6 0,-9.25 			
				"/>
		</g>
	</g>
	<g id="Layer_4_1_">
	</g>
</symbol>
<symbol  id="FlashAICB_x2F_Layer_1_x2F__x3C_Group_x3E_" viewBox="0 -66.434 119.2 66.434">
	<g id="Layer_1_11_">
		<g>
			
				<use xlink:href="#FlashAICB_x2F_Layer_1_x2F__x3C_Path_x3E__x5F_1"  width="119.2" height="60.45" y="-60.45" style="overflow:visible;opacity:0.1992;enable-background:new    ;"/>
			
				<use xlink:href="#FlashAICB_x2F_Layer_1_x2F__x3C_Path_x3E__x5F_0"  width="119.2" height="66.434" y="-66.434" style="overflow:visible;opacity:0.1211;enable-background:new    ;"/>
		</g>
	</g>
</symbol>
<symbol  id="FlashAICB_x2F_Layer_1_x2F__x3C_Group_x3E__x5F_1" viewBox="0 -61.9 128.65 61.9">
	<g id="Layer_1_10_">
		<g>
			
				<use xlink:href="#FlashAICB_x2F_Layer_1_x2F__x3C_Path_x3E_"  width="128.65" height="61.9" y="-61.9" style="overflow:visible;opacity:0.4688;enable-background:new    ;"/>
		</g>
	</g>
</symbol>
<symbol  id="FlashAICB_x2F_Layer_1_x2F__x3C_Path_x3E_" viewBox="0 -61.9 128.65 61.9">
	<g id="Layer_1_7_">
		
			<radialGradient id="SVGID_16_" cx="64.3252" cy="-30.9502" r="50.4757" gradientTransform="matrix(1 0 0 -1 0 -61.9004)" gradientUnits="userSpaceOnUse">
			<stop  offset="0" style="stop-color:#CCEFE7;stop-opacity:0"/>
			<stop  offset="0.0627" style="stop-color:#C7EDDC;stop-opacity:0.0431"/>
			<stop  offset="0.1686" style="stop-color:#BAE9C1;stop-opacity:0.1686"/>
			<stop  offset="0.3059" style="stop-color:#A5E193;stop-opacity:0.3725"/>
			<stop  offset="0.4706" style="stop-color:#88D755;stop-opacity:0.651"/>
			<stop  offset="0.651" style="stop-color:#66C912"/>
		</radialGradient>
		<path style="fill-rule:evenodd;clip-rule:evenodd;fill:url(#SVGID_16_);" d="M128.05-0.25l0.6,0.25
			c-0.667-17.233-7.217-31.85-19.65-43.85C96.533-55.883,81.617-61.9,64.25-61.9c-17.033,0-31.733,5.816-44.1,17.45
			C7.817-32.85,1.1-18.633,0-1.8c5-13,13.217-23.5,24.65-31.5c11.7-8.2,24.733-12.3,39.1-12.3c14.633,0,27.883,4.25,39.75,12.75
			C115.1-24.517,123.283-13.65,128.05-0.25z"/>
	</g>
</symbol>
<symbol  id="FlashAICB_x2F_Layer_1_x2F__x3C_Path_x3E__x5F_0" viewBox="0 -66.434 119.2 66.434">
	<g id="Layer_1_9_">
		<path style="fill-rule:evenodd;clip-rule:evenodd;fill:#FFFFFF;" d="M115.4-37.25c2.533-6.1,3.8-11.85,3.8-17.25
			c0-5.367-1.567-8.75-4.7-10.15c-2.533-1.133-6.783-1.117-12.75,0.05c-7.867,1.9-14.183,3.367-18.95,4.4
			c-8.667,1.833-16.4,2.75-23.2,2.75c-6.833,0-14.567-1-23.2-3c-9.033-2.367-15.35-3.966-18.95-4.8c-6-1.367-10.25-1.55-12.75-0.55
			C1.567-64.533,0-61.217,0-55.85c0,5.934,1.267,12.067,3.8,18.4c2.7,6.7,6.467,12.75,11.3,18.15C26.733-6.433,41.567,0,59.6,0
			c17.833,0,32.65-6.5,44.45-19.5C108.883-24.833,112.667-30.75,115.4-37.25z"/>
	</g>
</symbol>
<symbol  id="FlashAICB_x2F_Layer_1_x2F__x3C_Path_x3E__x5F_1" viewBox="0 -60.45 119.2 60.45">
	<g id="Layer_1_8_">
		
			<linearGradient id="SVGID_17_" gradientUnits="userSpaceOnUse" x1="16160.585" y1="-58.4668" x2="16220.9766" y2="-58.4668" gradientTransform="matrix(1.654944e-005 1 -1 -0.001 0.8657 -16221.1064)">
			<stop  offset="0.1294" style="stop-color:#E2B8B2"/>
			<stop  offset="0.9255" style="stop-color:#FFFFFF"/>
		</linearGradient>
		<path style="fill-rule:evenodd;clip-rule:evenodd;fill:url(#SVGID_17_);" d="M104.05-19.5c4.833-5.333,8.617-11.25,11.35-17.75
			c2.533-6.1,3.8-11.85,3.8-17.25c0-1.967-0.167-3.567-0.5-4.8c-2,11.966-7.85,22.6-17.55,31.9c-11.433,11-25.283,16.5-41.55,16.5
			c-16.5,0-30.4-5.483-41.7-16.45c-9.767-9.467-15.566-20.5-17.4-33.1C0.167-59.217,0-57.683,0-55.85c0,5.934,1.267,12.067,3.8,18.4
			c2.7,6.7,6.467,12.75,11.3,18.15C26.733-6.433,41.567,0,59.6,0C77.433,0,92.25-6.5,104.05-19.5z"/>
	</g>
</symbol>
<g>
	<path style="fill-rule:evenodd;clip-rule:evenodd;fill:#FFFFFF;" d="M6.75,52.45c4.333-10.267,10.467-19.367,18.4-27.3
		c7.934-7.9,17.017-14.033,27.25-18.4C63.033,2.25,74.167,0,85.8,0c11.634,0,22.767,2.25,33.4,6.75
		c10.267,4.367,19.366,10.5,27.3,18.4c7.934,7.934,14.083,17.033,18.45,27.3c4.5,10.633,6.75,21.767,6.75,33.4
		s-2.25,22.767-6.75,33.4c-4.367,10.267-10.517,19.367-18.45,27.3c-7.934,7.934-17.033,14.083-27.3,18.45
		c-10.634,4.5-21.767,6.75-33.4,6.75c-11.633,0-22.767-2.25-33.4-6.75c-10.267-4.367-19.35-10.517-27.25-18.45
		c-7.933-7.933-14.066-17.033-18.4-27.3C2.25,108.617,0,97.483,0,85.85S2.25,63.083,6.75,52.45z"/>
	<g>
		<g>
			
				<linearGradient id="SVGID_18_" gradientUnits="userSpaceOnUse" x1="-157.6851" y1="85.8506" x2="-14.2354" y2="85.8506" gradientTransform="matrix(6.973501e-006 -1 1 -0.001 -1.064519e-004 4.449275e-004)">
				<stop  offset="0.0745" style="stop-color:#6C9726"/>
				<stop  offset="0.2196" style="stop-color:#82B13A"/>
				<stop  offset="0.3686" style="stop-color:#9DCF52"/>
				<stop  offset="0.5882" style="stop-color:#CEE03A"/>
				<stop  offset="0.8118" style="stop-color:#D4E237"/>
				<stop  offset="1" style="stop-color:#FDEEB0"/>
			</linearGradient>
			<path style="fill-rule:evenodd;clip-rule:evenodd;fill:url(#SVGID_18_);" d="M57.9,19.8c8.9-3.767,18.2-5.65,27.9-5.65
				c9.7,0,19,1.883,27.9,5.65c8.566,3.633,16.166,8.75,22.8,15.35c6.634,6.633,11.767,14.233,15.4,22.8
				c3.767,8.9,5.649,18.2,5.649,27.9c0,9.7-1.883,19-5.649,27.9c-3.634,8.566-8.767,16.167-15.4,22.8
				c-14.033,14.033-30.934,21.05-50.7,21.05s-36.65-7.017-50.65-21.05c-6.6-6.633-11.717-14.233-15.35-22.8
				c-3.767-8.9-5.65-18.2-5.65-27.9c0-9.7,1.883-19,5.65-27.9c3.6-8.567,8.717-16.167,15.35-22.8
				C41.75,28.55,49.333,23.433,57.9,19.8z"/>
			<path style="fill-rule:evenodd;clip-rule:evenodd;fill:#22480E;" d="M35.75,35.8c-6.5,6.534-11.55,14.034-15.15,22.5
				c-3.7,8.767-5.55,17.95-5.55,27.55c0,19.567,6.9,36.267,20.7,50.1c6.533,6.533,14.033,11.6,22.5,15.2
				c8.767,3.699,17.95,5.55,27.55,5.55c9.601,0,18.8-1.851,27.601-5.55c8.466-3.601,15.966-8.667,22.5-15.2
				c6.533-6.533,11.6-14.05,15.199-22.55c3.7-8.768,5.551-17.95,5.551-27.55S154.8,67.066,151.1,58.3
				c-3.6-8.466-8.666-15.966-15.199-22.5C122.066,21.967,105.366,15.05,85.8,15.05C66.267,15.05,49.583,21.967,35.75,35.8z
				 M18.7,58.05c3.667-8.833,8.917-16.683,15.75-23.55C41.317,27.633,49.167,22.383,58,18.75c8.833-3.667,18.1-5.5,27.8-5.5
				c9.7,0,18.967,1.833,27.8,5.5c8.867,3.667,16.717,8.917,23.551,15.75c6.866,6.867,12.116,14.717,15.75,23.55
				c3.666,8.833,5.5,18.1,5.5,27.8c0,9.7-1.834,18.966-5.5,27.8c-3.634,8.866-8.884,16.717-15.75,23.55
				c-6.834,6.866-14.684,12.116-23.551,15.75c-8.833,3.667-18.1,5.5-27.8,5.5c-9.7,0-18.966-1.833-27.8-5.5
				c-8.833-3.634-16.683-8.884-23.55-15.75c-6.833-6.833-12.083-14.684-15.75-23.55c-3.633-8.834-5.45-18.101-5.45-27.8
				C13.25,76.15,15.067,66.883,18.7,58.05z"/>
		</g>
		
			<radialGradient id="SVGID_19_" cx="85.7998" cy="83.5498" r="64.3501" gradientTransform="matrix(1 0 0 -1 0 167.0996)" gradientUnits="userSpaceOnUse">
			<stop  offset="0" style="stop-color:#FDEEB0"/>
			<stop  offset="0.1882" style="stop-color:#D4E237"/>
			<stop  offset="0.5137" style="stop-color:#CEE03A"/>
			<stop  offset="1" style="stop-color:#A0D051;stop-opacity:0.5373"/>
		</radialGradient>
		<path style="fill-rule:evenodd;clip-rule:evenodd;fill:url(#SVGID_19_);" d="M131.35,38.1
			C143.917,50.633,150.2,65.783,150.2,83.55s-6.283,32.917-18.851,45.45c-12.566,12.566-27.75,18.85-45.55,18.85
			c-17.767,0-32.95-6.283-45.55-18.85C27.683,116.467,21.4,101.316,21.4,83.55c0-17.733,6.283-32.883,18.85-45.45
			c12.6-12.567,27.783-18.85,45.55-18.85C103.6,19.25,118.783,25.533,131.35,38.1z"/>
		<g>
			<path style="fill-rule:evenodd;clip-rule:evenodd;fill:#DFF39B;" d="M84.5,63.6c1.667-1.333,3.267-2.284,4.8-2.85l0.5-0.15
				c1.434-0.267,3.517-0.117,6.25,0.45c1.101,0.067,2.417-0.033,3.95-0.3c5.634-0.867,10.783,0.066,15.45,2.8l0.35,0.15
				c2.101,0.667,4.65,2.8,7.65,6.4c1.133,1.367,2.25,3.183,3.35,5.45c0.634,1.333,1.134,2.284,1.5,2.85
				c1.134,1.2,1.884,2.083,2.25,2.65l0.4,0.7c0.533,1.467,0.833,2.433,0.899,2.9l0.15,1.7c-0.233,1.533-0.583,3.051-1.05,4.551
				c-1.066,3.267-2.617,6.482-4.65,9.649c-1.866,2.867-3.666,5.233-5.399,7.101c-1.034,1.1-1.9,1.883-2.601,2.35
				c-0.633,0.434-1.366,0.65-2.2,0.65c-0.466,0-1.383-0.101-2.75-0.301l0.051,1c-0.067,1.5-0.384,2.917-0.95,4.25
				c0,0.167-0.05,0.317-0.15,0.45l-1.399,3.2c-0.267,0.633-0.634,1.1-1.101,1.4c-0.566,0.5-1.267,0.8-2.1,0.899
				c-1.533,1.233-3.45,2.4-5.75,3.5c-2.101,1-4.533,1.833-7.3,2.5c-0.367,0.634-0.817,1.117-1.351,1.45
				c-0.767,0.5-1.684,0.733-2.75,0.7c-0.533,1-1.366,1.816-2.5,2.45c-2.267,1.232-5.6,1.217-10-0.051l-1.35-0.449
				c-2.967-1.033-7.05-2.95-12.25-5.75c-5.133-2.801-9.467-5.434-13-7.9c-2.7-1.833-4.667-3.566-5.9-5.2
				c-1.733-2.267-2.3-4.5-1.7-6.7c0.233-1.3,0.816-2.35,1.75-3.149c0.533-0.434,1.15-0.75,1.85-0.95c-0.3-0.833-0.3-1.684,0-2.55
				l0.95-2.75l0.05-0.351c0.233-1.133,0.933-2.116,2.1-2.949c0.967-0.733,2.517-1.518,4.65-2.351c3.933-1.6,7.833-2.684,11.7-3.25
				c2.2-0.333,3.934-0.45,5.2-0.35c0.333,0,0.617,0.05,0.85,0.149c0-3.266,1.367-8,4.1-14.2C78.85,69.367,81.333,66.1,84.5,63.6z"/>
			<g>
				
					<linearGradient id="SVGID_20_" gradientUnits="userSpaceOnUse" x1="-119.6313" y1="100.5283" x2="-44.3306" y2="100.5283" gradientTransform="matrix(0.1382 -0.9904 0.9904 0.1382 -2.051145e-004 -8.830428e-005)">
					<stop  offset="0.3569" style="stop-color:#698424"/>
					<stop  offset="0.4627" style="stop-color:#7B9E33"/>
					<stop  offset="0.6314" style="stop-color:#9DCF52"/>
					<stop  offset="0.9647" style="stop-color:#DAE772"/>
				</linearGradient>
				<path style="fill-rule:evenodd;clip-rule:evenodd;fill:url(#SVGID_20_);" d="M107.45,59.75c3.066,0.467,5.85,1.433,8.35,2.9
					l0.351,0.1c2.166,0.767,4.733,2.917,7.699,6.45c1.101,1.3,2.217,3.133,3.351,5.5c0.633,1.333,1.116,2.267,1.45,2.8
					c1.5,1.6,2.25,2.483,2.25,2.65l0.449,0.75c0.534,1.5,0.834,2.467,0.9,2.9l0.15,1.75c-0.233,1.5-0.584,3.017-1.051,4.55
					c-1.066,3.301-2.633,6.533-4.699,9.7c-1.834,2.867-3.634,5.25-5.4,7.15c-1.033,1.1-1.9,1.883-2.6,2.35
					c-0.634,0.434-1.384,0.65-2.25,0.65l-2.551-0.25h-0.05v0.85c-0.066,1.533-0.383,2.967-0.95,4.3c0,0.067-0.05,0.2-0.149,0.4
					l-1.4,3.25c-0.267,0.566-0.649,1.05-1.149,1.45c-0.7,0.5-1.417,0.8-2.15,0.899c-1.5,1.2-3.4,2.351-5.7,3.45
					c-2.366,1.167-4.8,2-7.3,2.5c-0.267,0.533-0.717,1.033-1.35,1.5c-0.801,0.467-1.717,0.7-2.75,0.7
					c-0.634,1.033-1.467,1.85-2.5,2.45c-1.634,0.899-3.717,1.167-6.25,0.8c-1.2-0.167-2.483-0.45-3.85-0.85l-1.35-0.45
					c-3-1.067-7.083-3-12.25-5.8c-5.2-2.801-9.55-5.417-13.05-7.851c-2.733-1.933-4.7-3.683-5.9-5.25
					c-1.767-2.3-2.333-4.566-1.7-6.8c0.133-1.233,0.733-2.3,1.8-3.2c0.566-0.434,1.15-0.75,1.75-0.95c-0.267-0.767-0.267-1.6,0-2.5
					l1-2.75l0.05-0.3c0.233-1.167,0.934-2.184,2.1-3.05c1-0.733,2.567-1.533,4.7-2.4c3.966-1.566,7.867-2.633,11.7-3.199
					c1.833-0.268,3.583-0.4,5.25-0.4l0.75,0.1c0-3.233,1.367-7.933,4.1-14.1c1.8-4.033,4.283-7.3,7.45-9.8
					c1.7-1.367,3.316-2.333,4.85-2.9l0.5-0.15c1.066-0.167,2.417-0.133,4.05,0.1c1.067,0.167,1.817,0.3,2.25,0.4
					c1.034,0.033,2.351-0.066,3.95-0.3C102.6,59.483,104.983,59.45,107.45,59.75z"/>
				<path style="fill-rule:evenodd;clip-rule:evenodd;fill:none;stroke:#DFF39B;stroke-width:0.25;" d="M107.45,59.75
					c3.066,0.467,5.85,1.433,8.35,2.9l0.351,0.1c2.166,0.767,4.733,2.917,7.699,6.45c1.101,1.3,2.217,3.133,3.351,5.5
					c0.633,1.333,1.116,2.267,1.45,2.8c1.5,1.6,2.25,2.483,2.25,2.65l0.449,0.75c0.534,1.5,0.834,2.467,0.9,2.9l0.15,1.75
					c-0.233,1.5-0.584,3.017-1.051,4.55c-1.066,3.301-2.633,6.533-4.699,9.7c-1.834,2.867-3.634,5.25-5.4,7.15
					c-1.033,1.1-1.9,1.883-2.6,2.35c-0.634,0.434-1.384,0.65-2.25,0.65l-2.551-0.25h-0.05v0.85c-0.066,1.533-0.383,2.967-0.95,4.3
					c0,0.067-0.05,0.2-0.149,0.4l-1.4,3.25c-0.267,0.566-0.649,1.05-1.149,1.45c-0.7,0.5-1.417,0.8-2.15,0.899
					c-1.5,1.2-3.4,2.351-5.7,3.45c-2.366,1.167-4.8,2-7.3,2.5c-0.267,0.533-0.717,1.033-1.35,1.5c-0.801,0.467-1.717,0.7-2.75,0.7
					c-0.634,1.033-1.467,1.85-2.5,2.45c-1.634,0.899-3.717,1.167-6.25,0.8c-1.2-0.167-2.483-0.45-3.85-0.85l-1.35-0.45
					c-3-1.067-7.083-3-12.25-5.8c-5.2-2.801-9.55-5.417-13.05-7.851c-2.733-1.933-4.7-3.683-5.9-5.25
					c-1.767-2.3-2.333-4.566-1.7-6.8c0.133-1.233,0.733-2.3,1.8-3.2c0.566-0.434,1.15-0.75,1.75-0.95c-0.267-0.767-0.267-1.6,0-2.5
					l1-2.75l0.05-0.3c0.233-1.167,0.934-2.184,2.1-3.05c1-0.733,2.567-1.533,4.7-2.4c3.966-1.566,7.867-2.633,11.7-3.199
					c1.833-0.268,3.583-0.4,5.25-0.4l0.75,0.1c0-3.233,1.367-7.933,4.1-14.1c1.8-4.033,4.283-7.3,7.45-9.8
					c1.7-1.367,3.316-2.333,4.85-2.9l0.5-0.15c1.066-0.167,2.417-0.133,4.05,0.1c1.067,0.167,1.817,0.3,2.25,0.4
					c1.034,0.033,2.351-0.066,3.95-0.3C102.6,59.483,104.983,59.45,107.45,59.75z"/>
			</g>
			<path style="fill-rule:evenodd;clip-rule:evenodd;fill:#22480E;" d="M86.7,65.1c2.533-1.534,3.833-2.317,3.899-2.35H90.7
				c0.2-0.067,0.633-0.083,1.3-0.05c1.1,0.033,2.417,0.216,3.95,0.55c1.333,0.1,2.95,0,4.85-0.3c5.066-0.833,9.65,0.033,13.75,2.6
				l0.55,0.15c1.567,0.533,3.684,2.366,6.351,5.5c0.934,1.133,1.899,2.75,2.899,4.85c0.634,1.333,1.25,2.467,1.851,3.4
				c1.434,1.533,2.149,2.383,2.149,2.55l0.101,0.15c0.3,0.6,0.533,1.317,0.7,2.15l0.1,0.75v0.15c0,0.733-0.3,2.033-0.9,3.899
				c-0.966,3.033-2.399,6.033-4.3,9c-1.733,2.733-3.434,4.967-5.1,6.7c-0.834,0.9-1.517,1.533-2.05,1.9l-0.4,0.1
				c-1.033-0.033-2.134-0.167-3.3-0.399c-0.767,0-1.934-0.167-3.5-0.5c-0.033,0.399-0.167,0.85-0.4,1.35
				c-0.166,0.367-0.399,0.733-0.7,1.1l1.75,1.15l0.25,0.3c0.067,0.167,0.084,0.333,0.051,0.5c0,1.2-0.25,2.384-0.75,3.55L109.85,114
				l-1.449,3.2c0,0.066-0.051,0.149-0.15,0.25c-0.566,0.267-1.033,0.383-1.4,0.35c-1.433,1.233-3.399,2.467-5.899,3.7
				s-5.2,2.083-8.101,2.55l-0.649,1.3L92,125.6c-0.4,0.4-1.116,0.434-2.15,0.101l-0.199-0.05c-0.967-0.334-1.4-0.867-1.301-1.601
				l0.2-1.1c-5.333-2.267-12.55-5.9-21.65-10.9c-5.2-2.866-9.3-5.55-12.3-8.05l-0.1,0.25l-0.2,0.25
				c-0.466,0.333-1.05,0.417-1.75,0.25l1.55,0.9c5.667,4,11.167,7.467,16.5,10.399c4.4,2.434,9.417,4.9,15.05,7.4
				c1.733,0.833,2.699,1.667,2.899,2.5c0.101,0.399,0.05,0.75-0.149,1.05c-0.301,0.733-0.817,1.3-1.551,1.7
				c-1.466,0.8-4.033,0.7-7.7-0.3L78,128c-2.833-1-6.8-2.883-11.9-5.65c-5.067-2.732-9.283-5.283-12.65-7.649
				c-2.967-2.067-4.917-3.9-5.85-5.5c-0.667-1.134-0.817-2.233-0.45-3.3c0-0.567,0.233-1.034,0.7-1.4
				c0.633-0.566,1.55-0.717,2.75-0.45c0.233,0.033,0.617,0.15,1.15,0.351c-0.433-0.367-0.617-0.801-0.55-1.301l0.4-1.8l-0.95-1.05
				c-0.1-0.233-0.133-0.434-0.1-0.6l1.15-3.2v-0.3c0.233-0.867,1.867-1.917,4.9-3.15c3.767-1.5,7.467-2.5,11.1-3
				c1.833-0.267,3.35-0.384,4.55-0.35h0.15l2.75,0.949c1.233,0.4,2.467,0.867,3.7,1.4c0.167-0.5,0.467-0.967,0.9-1.4
				c-0.9-0.767-1.717-1.517-2.45-2.25c-0.533-0.566-0.816-0.866-0.85-0.899c-0.1-0.101-0.15-0.217-0.15-0.351
				c-0.066-0.633,0.034-1.649,0.3-3.05c0.533-2.8,1.7-6.216,3.5-10.25C81.7,70.233,83.9,67.333,86.7,65.1z"/>
			<g>
				<path style="fill-rule:evenodd;clip-rule:evenodd;fill:#CACAD2;" d="M79.4,94.35C79,92.95,79.283,91.833,80.25,91l1.55-0.8
					l27.101,12.55l-1.351,3.65c-1.1,1.566-1.816,2.416-2.149,2.55c-0.167,0.066-1.45-0.333-3.851-1.2
					c-3.434-1.3-5.467-2.05-6.1-2.25c-2.066-0.7-5.084-2.35-9.05-4.95C82.067,97.684,79.733,95.616,79.4,94.35z"/>
				<path style="fill-rule:evenodd;clip-rule:evenodd;fill:#626266;" d="M108.7,107c-0.267,0.566-0.617,1-1.05,1.3
					c-0.434,0.267-0.834,0.317-1.2,0.15c-0.4-0.167-0.617-0.517-0.65-1.05c-0.033-0.467,0.084-1.018,0.351-1.65
					c0.267-0.566,0.616-1,1.05-1.3c0.467-0.267,0.899-0.317,1.3-0.15c0.366,0.134,0.55,0.483,0.55,1.05
					C109.083,105.85,108.967,106.4,108.7,107z"/>
				<path style="fill-rule:evenodd;clip-rule:evenodd;fill:#9E9EA4;" d="M120.9,71.6c0.933,1.133,1.833,2.6,2.699,4.4
					c0.934,1.967,1.784,3.483,2.551,4.55c0.484,0.692,0.726,1.101,0.725,1.225l0.925,0.575l0.7,2.05l0.1,0.75l-0.85,3.7
					c-0.967,3.033-2.4,6-4.3,8.9c-1.733,2.7-3.417,4.917-5.05,6.65c-0.801,0.866-1.434,1.449-1.9,1.75
					c-0.967-0.034-2.033-0.167-3.2-0.4c-2.333-0.434-3.95-1.117-4.85-2.05c-0.9-0.9-1.967-7.667-3.2-20.3l-1.55-18.7
					c3.233-0.067,6.916,0.466,11.05,1.6l1.6,0.85C117.717,68.15,119.233,69.633,120.9,71.6z"/>
				<path style="fill-rule:evenodd;clip-rule:evenodd;fill:#EAEAF4;" d="M100.85,63.55c3.567-0.566,6.934-0.25,10.101,0.95
					c3.767,1.433,6.95,4.066,9.55,7.9c1.833,2.7,3.15,4.967,3.95,6.8c0.434,0.966,0.816,1.933,1.149,2.9
					c0.4,0.933-10.966-5.284-34.1-18.65c0.167,0,1.384,0.116,3.65,0.35C96.75,64,98.65,63.917,100.85,63.55z"/>
				<path style="fill-rule:evenodd;clip-rule:evenodd;fill:#EAEAF4;" d="M90.8,63.35l4.15,0.35c4,0.767,9.066,2.517,15.2,5.25
					c4.933,2.2,9.35,5.1,13.25,8.7c1.966,1.8,3.433,3.367,4.399,4.7l-0.7,3.4c-0.8,2.9-2.1,5.95-3.899,9.15
					c-2.533,4.533-4.75,7.699-6.65,9.5c-0.967,0.933-1.666,1.399-2.1,1.399c-1.167,0.101-2.934-0.133-5.3-0.7
					c-4.767-1.1-10.217-3.267-16.351-6.5c-4.533-2.399-8.55-5.05-12.05-7.949L76.9,87c-0.066-0.533,0.033-1.483,0.3-2.85
					c0.533-2.7,1.7-6.066,3.5-10.1c1.566-3.5,3.716-6.333,6.45-8.5L90.8,63.35z"/>
				
					<use xlink:href="#FlashAICB_x2F_Layer_1_x2F__x3C_Clip_Group_0_x3E__x5F_4"  width="25.15" height="22.6" y="-22.6" transform="matrix(1 0 0 -1 98.75 57.5)" style="overflow:visible;"/>
				<path style="fill-rule:evenodd;clip-rule:evenodd;fill:#343436;" d="M90.45,64.4l2.399-0.05
					c2.567,0.333,6.267,1.417,11.101,3.25c4.8,1.8,9.85,4.767,15.149,8.9c2.667,2.033,4.834,3.9,6.5,5.6l-6.05,10.25
					c-2.2,3.601-3.733,6.584-4.6,8.95c-0.434,1.2-0.65,2.033-0.65,2.5c-1.166,0.267-2.916,0.217-5.25-0.149
					c-4.6-0.7-9.75-2.567-15.45-5.601c-5-2.667-9.1-5.383-12.3-8.149L78,86.55c-0.067-0.7,0.033-1.75,0.3-3.15
					c0.534-2.8,1.65-5.917,3.35-9.35c1.533-3.2,3.466-5.767,5.8-7.7L90.45,64.4z"/>
				<path style="fill-rule:evenodd;clip-rule:evenodd;fill:#444245;" d="M91.85,64.4l3.851,0.3c3.7,0.733,8.399,2.366,14.1,4.9
					c4.601,2.033,8.717,4.733,12.351,8.1c1.8,1.667,3.149,3.133,4.05,4.4l-0.65,3.15c-0.733,2.7-1.95,5.533-3.649,8.5
					c-2.367,4.233-4.434,7.2-6.2,8.9c-0.9,0.866-1.55,1.3-1.95,1.3c-1.066,0.1-2.717-0.101-4.95-0.601
					c-4.399-1.033-9.45-3.05-15.149-6.05c-4.233-2.233-7.967-4.7-11.2-7.399l-3.55-3.4c-0.066-0.5,0.017-1.383,0.25-2.65
					c0.5-2.534,1.583-5.684,3.25-9.45c1.467-3.267,3.484-5.917,6.05-7.95L91.85,64.4z"/>
				<path style="fill-rule:evenodd;clip-rule:evenodd;fill:#444245;" d="M95.6,65.6l-7.5,14c-0.833,1.566-1.933,3.75-3.3,6.55
					c-1.066,2.033-1.767,3.116-2.1,3.25c-0.567,0.232-1.017,0.116-1.35-0.351c-0.4-0.667-0.617-1.267-0.65-1.8
					c0-0.833,0.55-2.4,1.65-4.7c2.1-4.333,4.317-8.367,6.65-12.1c2.134-3.434,3.517-5.267,4.15-5.5c0.466-0.2,1.017-0.15,1.649,0.15
					C95.134,65.267,95.4,65.433,95.6,65.6z"/>
				<path style="fill-rule:evenodd;clip-rule:evenodd;fill:#343436;" d="M93.65,67.85c0.666-1.067,0.85-2.05,0.55-2.95
					c0.833,0.133,1.116,0.684,0.85,1.65L88.1,79.6c-0.833,1.566-1.933,3.75-3.3,6.55c-1.066,2.033-1.767,3.116-2.1,3.25
					c-0.567,0.232-1.083,0.066-1.55-0.5c-0.167-0.5-0.217-0.75-0.15-0.75c0.1,0,0.4,0.149,0.9,0.449
					c0.333,0.167,1.567-1.85,3.7-6.05C88.7,76.417,91.384,71.517,93.65,67.85z"/>
				<path style="fill-rule:evenodd;clip-rule:evenodd;fill:#444245;" d="M101.9,67l-8.15,15.45c-0.9,1.733-2.1,4.133-3.6,7.2
					c-1.134,2.232-1.9,3.433-2.301,3.6c-0.6,0.3-1.083,0.184-1.449-0.35c-0.467-0.768-0.717-1.434-0.75-2c0-0.934,0.6-2.667,1.8-5.2
					c2.3-4.8,4.717-9.25,7.25-13.35c2.333-3.8,3.833-5.833,4.5-6.1c0.533-0.2,1.133-0.133,1.8,0.2
					C101.366,66.617,101.667,66.8,101.9,67z"/>
				<path style="fill-rule:evenodd;clip-rule:evenodd;fill:#343436;" d="M99.75,69.5c0.7-1.167,0.9-2.267,0.6-3.3
					c0.567,0.1,0.9,0.433,1,1c0.034,0.3,0.017,0.583-0.05,0.85l-7.55,14.4c-0.9,1.733-2.1,4.133-3.6,7.2
					c-1.134,2.232-1.9,3.433-2.301,3.6c-0.6,0.3-1.149,0.133-1.649-0.5C86,92.184,85.934,91.9,86,91.9c0.1,0,0.417,0.166,0.95,0.5
					c0.366,0.199,1.717-2.034,4.05-6.7C94.4,78.9,97.316,73.5,99.75,69.5z"/>
				<path style="fill-rule:evenodd;clip-rule:evenodd;fill:#444245;" d="M108.25,69.6l-8.55,16c-0.934,1.8-2.184,4.283-3.75,7.45
					C94.783,95.383,94,96.633,93.6,96.8c-0.633,0.267-1.133,0.134-1.5-0.399c-0.5-0.768-0.767-1.45-0.8-2.051
					c-0.033-0.933,0.584-2.733,1.851-5.399c2.399-5,4.933-9.617,7.6-13.85c2.434-3.934,4-6.034,4.7-6.3
					c0.533-0.2,1.166-0.133,1.899,0.2C107.717,69.2,108.017,69.4,108.25,69.6z"/>
				<path style="fill-rule:evenodd;clip-rule:evenodd;fill:#343436;" d="M106,72.15c0.733-1.2,0.95-2.333,0.65-3.4
					c0.6,0.1,0.949,0.45,1.05,1.05c0.033,0.3,0.017,0.583-0.05,0.85L99.7,85.6c-0.934,1.8-2.184,4.283-3.75,7.45
					C94.783,95.383,94,96.633,93.6,96.8c-0.633,0.267-1.216,0.083-1.75-0.55c-0.199-0.566-0.267-0.85-0.199-0.85
					c0.1,0,0.433,0.166,1,0.5c0.366,0.199,1.767-2.117,4.199-6.95C100.45,81.883,103.5,76.283,106,72.15z"/>
				<path style="fill-rule:evenodd;clip-rule:evenodd;fill:#444245;" d="M114.6,72.9L106.2,88.85c-0.9,1.801-2.117,4.283-3.65,7.45
					c-1.166,2.3-1.95,3.533-2.35,3.7c-0.634,0.267-1.134,0.133-1.5-0.4c-0.5-0.767-0.75-1.449-0.75-2.05
					c-0.033-0.967,0.566-2.767,1.8-5.399c2.366-4.967,4.85-9.55,7.45-13.75c2.399-3.933,3.95-6.033,4.649-6.3
					c0.534-0.2,1.15-0.133,1.851,0.2C114.066,72.5,114.366,72.7,114.6,72.9z"/>
				<path style="fill-rule:evenodd;clip-rule:evenodd;fill:#343436;" d="M114.05,73.1c0.033,0.3,0.017,0.583-0.05,0.85l-7.8,14.899
					c-0.9,1.801-2.117,4.267-3.65,7.4c-1.166,2.3-1.95,3.55-2.35,3.75c-0.634,0.267-1.2,0.083-1.7-0.55
					c-0.2-0.567-0.267-0.851-0.2-0.851c0.101,0,0.417,0.167,0.95,0.5c0.366,0.2,1.75-2.116,4.15-6.949c3.5-7.034,6.5-12.601,9-16.7
					c0.733-1.233,0.933-2.367,0.6-3.4C113.6,72.15,113.95,72.5,114.05,73.1z"/>
				<path style="fill-rule:evenodd;clip-rule:evenodd;fill:#444245;" d="M112.5,91.8c-0.866,1.7-2.05,4.033-3.55,7
					c-1.101,2.167-1.834,3.333-2.2,3.5c-0.6,0.267-1.083,0.15-1.45-0.35c-0.434-0.733-0.666-1.384-0.7-1.95
					c0-0.9,0.584-2.583,1.75-5.05C108.616,90.316,111,86,113.5,82c2.267-3.667,3.733-5.633,4.4-5.9c0.5-0.2,1.1-0.133,1.8,0.2
					c0.333,0.167,0.616,0.35,0.85,0.55L112.5,91.8z"/>
				<path style="fill-rule:evenodd;clip-rule:evenodd;fill:#343436;" d="M119.95,77.85L112.5,91.8c-0.866,1.7-2.05,4.033-3.55,7
					c-1.101,2.167-1.834,3.333-2.2,3.5c-0.6,0.267-1.15,0.101-1.65-0.5c-0.166-0.566-0.216-0.85-0.149-0.85s0.366,0.166,0.899,0.5
					c0.367,0.166,1.684-2,3.95-6.5c3.367-6.601,6.233-11.833,8.601-15.7c0.733-1.2,0.933-2.25,0.6-3.15c0.566,0.1,0.9,0.417,1,0.95
					C120.033,77.316,120.017,77.583,119.95,77.85z"/>
				<path style="fill-rule:evenodd;clip-rule:evenodd;fill:#444245;" d="M119.15,85.8c1.966-3.267,3.233-5.017,3.8-5.25
					c0.467-0.167,0.983-0.1,1.55,0.2c0.3,0.133,0.55,0.283,0.75,0.45l-6.9,13.25c-0.733,1.467-1.75,3.517-3.05,6.149
					c-0.967,1.934-1.6,2.967-1.899,3.101c-0.334,0.133-0.634,0.116-0.9-0.05l-0.35-0.301c-0.4-0.633-0.601-1.199-0.601-1.699
					c-0.033-0.801,0.467-2.284,1.5-4.45C114.983,93.1,117.017,89.3,119.15,85.8z"/>
				<path style="fill-rule:evenodd;clip-rule:evenodd;fill:#343436;" d="M124.75,82.1l-6.4,12.35
					c-0.733,1.467-1.75,3.517-3.05,6.149c-0.967,1.934-1.6,2.967-1.899,3.101c-0.534,0.2-1.017,0.033-1.45-0.5
					c-0.167-0.467-0.2-0.7-0.101-0.7c0.067,0,0.334,0.15,0.801,0.45c0.267,0.133,1.399-1.783,3.399-5.75
					c2.834-5.733,5.3-10.351,7.4-13.85c0.633-1.034,0.8-1.967,0.5-2.8C124.717,80.683,124.983,81.2,124.75,82.1z"/>
				<path style="fill-rule:evenodd;clip-rule:evenodd;fill:#424245;" d="M108.2,106.85c-0.134,0.334-0.334,0.584-0.601,0.75
					c-0.233,0.167-0.433,0.2-0.6,0.101c-0.167-0.067-0.267-0.25-0.3-0.55c0-0.268,0.083-0.567,0.25-0.9
					c0.166-0.3,0.366-0.533,0.6-0.7s0.434-0.217,0.601-0.149C108.55,105.633,108.566,106.116,108.2,106.85z"/>
				<path style="fill-rule:evenodd;clip-rule:evenodd;fill:#F0F0F0;" d="M80.4,91.85c3.533,2.367,8.133,5,13.8,7.9
					c2.633,1.366,5.666,2.85,9.1,4.45c1.601,0.767,2.334,1.2,2.2,1.3c-0.366,0.366-5-1.9-13.9-6.8
					c-7.133-3.867-10.883-6.033-11.25-6.5c-0.167-0.167-0.233-0.283-0.2-0.351C80.183,91.783,80.267,91.783,80.4,91.85z"/>
				
					<use xlink:href="#FlashAICB_x2F_Layer_1_x2F__x3C_Clip_Group_0_x3E__x5F_3"  width="4.1" height="4.9" y="-4.9" transform="matrix(1 0 0 -1 51.2002 99.75)" style="overflow:visible;"/>
				
					<use xlink:href="#FlashAICB_x2F_Layer_1_x2F__x3C_Clip_Group_0_x3E__x5F_2"  width="4.15" height="4.9" y="-4.9" transform="matrix(1 0 0 -1 105.0996 112.75)" style="overflow:visible;"/>
				
					<use xlink:href="#FlashAICB_x2F_Layer_1_x2F__x3C_Clip_Group_0_x3E__x5F_1"  width="4.9" height="5.15" y="-5.15" transform="matrix(1 0 0 -1 88.2002 120.5996)" style="overflow:visible;"/>
				<path style="fill-rule:evenodd;clip-rule:evenodd;fill:#FFFFFF;" d="M99.05,119.1l-3.399,2c-2.5,1.301-4.267,1.801-5.301,1.5
					c-1.333-0.399-7.667-3.816-19-10.25c-11.434-6.467-17.45-10.1-18.05-10.899c-0.533-0.7-0.95-1.283-1.25-1.75l-0.3-0.55
					l0.95-1.601l-0.35-1.1c-0.133-0.101-0.05-0.3,0.25-0.601c0.6-0.6,2-1.35,4.2-2.25c3.767-1.5,7.467-2.5,11.1-3
					c1.8-0.233,3.233-0.333,4.3-0.3l5,1.75c4.2,1.634,8.483,3.634,12.85,6c7.033,3.8,13.667,7.783,19.9,11.95l-0.7,2.55
					c-0.134,0.8-0.816,1.583-2.05,2.351C104.533,116.467,101.816,117.867,99.05,119.1z"/>
				<path style="fill-rule:evenodd;clip-rule:evenodd;fill:#7D7D7D;" d="M107.6,114.8l-50.2-10.05
					c-1.267-0.934-2.316-1.767-3.15-2.5l-2.5-2.35L52.2,98.1l0.2,0.45c0.2,0.101,0.567-0.333,1.1-1.3
					c0.633-1.134,2.317-2.283,5.05-3.45c2.5-1.1,5.017-1.866,7.55-2.3c1.933-0.367,3.633-0.583,5.1-0.65
					c0.733-0.033,1.267-0.033,1.6,0l5.2,1.9c4.733,2,10.3,4.8,16.7,8.4c7.5,4.199,12.434,7.267,14.8,9.199L107.6,114.8z"/>
				<path style="fill-rule:evenodd;clip-rule:evenodd;fill:#343436;" d="M78.5,100.85l30.2,10.2l-1.5,3.851l-1.9,1.649
					c-1.733,1.3-3.717,2.4-5.95,3.3c-2.566,1.033-4.8,1.717-6.699,2.051L90.55,122.1c-2.133-0.833-4.75-1.933-7.85-3.3
					c-6.133-2.733-11.517-5.433-16.15-8.1c-4.633-2.7-8.4-5.15-11.3-7.351l-3-2.55l1.05-2.55l8.65,0.7
					C68.617,99.583,74.133,100.217,78.5,100.85z"/>
				<path style="fill-rule:evenodd;clip-rule:evenodd;fill:#444245;" d="M74.7,92.9c3.333,1.232,7.617,3.166,12.85,5.8
					c6.434,3.267,11.851,6.35,16.25,9.25c2.2,1.467,3.75,2.6,4.65,3.399l-1.4,1.45c-1.666,1.267-4.316,2.684-7.95,4.25
					c-1.633,0.7-3.399,1.333-5.3,1.9L91.4,119.6c-1.767-0.699-4.184-1.767-7.25-3.199c-6.133-2.9-12.383-6.2-18.75-9.9
					c-4.367-2.566-7.7-4.717-10-6.45l-2.1-1.8c0.5-0.5,1.25-1.083,2.25-1.75c2-1.333,4.25-2.417,6.75-3.25
					c2.467-0.867,4.7-1.35,6.7-1.45c1-0.066,1.75-0.05,2.25,0.05L74.7,92.9z"/>
				<path style="fill-rule:evenodd;clip-rule:evenodd;fill:#444245;" d="M75.55,93.15c-3.633,1.366-7.2,2.649-10.7,3.85
					c-2.434,0.866-4.117,1.467-5.05,1.8c-1.6,0.566-2.55,0.816-2.85,0.75c-0.3-0.033-0.55-0.167-0.75-0.399l-0.25-0.301
					c0.2-0.633,0.35-1,0.45-1.1c0.4-0.333,1.5-0.85,3.3-1.55c3.3-1.233,6.533-2.3,9.7-3.2c2.967-0.8,4.7-1.15,5.2-1.05
					C75.233,92.116,75.55,92.517,75.55,93.15z"/>
				<path style="fill-rule:evenodd;clip-rule:evenodd;fill:#343436;" d="M73.65,93.55c0.9-0.267,1.467-0.667,1.7-1.2
					c0.267,0.267,0.35,0.567,0.25,0.9L64.85,97c-2.434,0.866-4.117,1.467-5.05,1.8c-1.6,0.566-2.55,0.816-2.85,0.75
					c-0.3-0.033-0.55-0.167-0.75-0.399l-0.25-0.301c0.333-0.399,0.617-0.616,0.85-0.649c0.2-0.033,0.417,0.1,0.65,0.399
					c0.133,0.2,1.716-0.233,4.75-1.3C66.767,95.667,70.583,94.417,73.65,93.55z"/>
				<path style="fill-rule:evenodd;clip-rule:evenodd;fill:#444245;" d="M69.95,100.05c-2.6,1.033-4.417,1.75-5.45,2.15
					c-1.7,0.666-2.717,0.967-3.05,0.899c-0.3-0.066-0.567-0.217-0.8-0.449L60.4,102.3c0.3-0.733,0.5-1.149,0.6-1.25
					c0.433-0.434,1.617-1.05,3.55-1.85c3.534-1.467,7-2.717,10.4-3.75c3.167-0.934,5.017-1.334,5.55-1.2
					c0.667,0.133,0.983,0.55,0.95,1.25C77.55,97.133,73.717,98.65,69.95,100.05z"/>
				<path style="fill-rule:evenodd;clip-rule:evenodd;fill:#343436;" d="M81.45,95.65c-3.9,1.533-7.733,3-11.5,4.399
					c-2.6,1.033-4.417,1.75-5.45,2.15c-1.7,0.666-2.717,0.967-3.05,0.899c-0.3-0.066-0.567-0.217-0.8-0.449L60.4,102.3
					c0.4-0.467,0.717-0.717,0.95-0.75S61.8,101.667,62,102c0.167,0.233,1.883-0.3,5.15-1.6c4.9-1.9,9-3.367,12.3-4.4
					c0.966-0.3,1.566-0.75,1.8-1.35C81.55,94.95,81.617,95.283,81.45,95.65z"/>
				<path style="fill-rule:evenodd;clip-rule:evenodd;fill:#444245;" d="M70.6,106.05c-1.733,0.7-2.75,1.017-3.05,0.95
					c-0.3-0.066-0.566-0.217-0.8-0.45l-0.25-0.35c0.333-0.8,0.55-1.25,0.65-1.351c0.434-0.433,1.633-1.083,3.6-1.949
					c3.6-1.567,7.117-2.917,10.55-4.051c3.167-1.033,5.017-1.483,5.55-1.35c0.667,0.167,1.017,0.616,1.051,1.35
					c-4.034,1.7-7.967,3.317-11.8,4.851C73.467,104.833,71.633,105.616,70.6,106.05z"/>
				<path style="fill-rule:evenodd;clip-rule:evenodd;fill:#343436;" d="M87.9,98.95l-11.8,4.75c-2.633,1.133-4.467,1.916-5.5,2.35
					c-1.733,0.7-2.75,1.017-3.05,0.95c-0.3-0.066-0.566-0.217-0.8-0.45l-0.25-0.35c0.4-0.5,0.733-0.783,1-0.851
					c0.233-0.033,0.45,0.134,0.65,0.5c0.133,0.233,1.85-0.333,5.15-1.699c5-2.101,9.133-3.7,12.4-4.801
					c1-0.3,1.616-0.783,1.85-1.449C87.85,98.2,87.967,98.55,87.9,98.95z"/>
				<path style="fill-rule:evenodd;clip-rule:evenodd;fill:#444245;" d="M73.15,109.55c0.333-0.767,0.55-1.2,0.65-1.3
					c0.467-0.434,1.667-1.083,3.6-1.95c3.567-1.566,7.083-2.917,10.55-4.05c3.133-1.033,4.983-1.5,5.55-1.4
					c0.667,0.167,1,0.667,1,1.5l-11.75,4.75c-2.633,1.101-4.467,1.867-5.5,2.301c-1.733,0.699-2.75,1.017-3.05,0.949
					c-0.3-0.066-0.567-0.217-0.8-0.449L73.15,109.55z"/>
				<path style="fill-rule:evenodd;clip-rule:evenodd;fill:#343436;" d="M82.75,107.1c-2.633,1.101-4.467,1.867-5.5,2.301
					c-1.733,0.699-2.75,1.017-3.05,0.949c-0.3-0.066-0.567-0.217-0.8-0.449l-0.25-0.351c0.4-0.5,0.733-0.767,1-0.8
					c0.2-0.033,0.417,0.133,0.65,0.5c0.133,0.233,1.85-0.35,5.15-1.75c4.9-2.033,9.033-3.617,12.399-4.75
					c1-0.3,1.617-0.783,1.851-1.45c0.3,0.3,0.434,0.667,0.399,1.101L82.75,107.1z"/>
				<path style="fill-rule:evenodd;clip-rule:evenodd;fill:#444245;" d="M80.6,113.4c0.3-0.733,0.5-1.167,0.6-1.301
					c0.433-0.433,1.6-1.066,3.5-1.899c3.434-1.533,6.833-2.851,10.2-3.95c3.033-1,4.816-1.45,5.35-1.35
					c0.634,0.166,0.967,0.649,1,1.449L89.85,111c-2.566,1.066-4.333,1.8-5.3,2.2c-1.7,0.7-2.683,1.033-2.95,1
					c-0.3-0.067-0.567-0.217-0.8-0.45L80.6,113.4z"/>
				<path style="fill-rule:evenodd;clip-rule:evenodd;fill:#343436;" d="M89.85,111c-2.566,1.066-4.333,1.8-5.3,2.2
					c-1.7,0.7-2.683,1.033-2.95,1c-0.3-0.067-0.567-0.217-0.8-0.45l-0.2-0.35c0.4-0.5,0.717-0.768,0.95-0.801
					c0.2-0.033,0.4,0.117,0.6,0.45c0.133,0.233,1.8-0.316,5-1.649c4.899-2.033,8.899-3.584,12-4.65c0.966-0.367,1.566-0.833,1.8-1.4
					c0.267,0.267,0.366,0.601,0.3,1L89.85,111z"/>
				<path style="fill-rule:evenodd;clip-rule:evenodd;fill:#444245;" d="M87.55,117.05c0.233-0.7,0.417-1.116,0.55-1.25
					c0.434-0.433,1.551-1.05,3.351-1.85c3.267-1.467,6.5-2.733,9.7-3.8c2.933-0.967,4.649-1.4,5.149-1.301
					c0.601,0.167,0.867,0.584,0.8,1.25c-3.633,1.634-7.216,3.167-10.75,4.601c-2.433,1.033-4.116,1.75-5.05,2.149
					c-1.6,0.667-2.533,0.967-2.8,0.9c-0.3-0.033-0.55-0.167-0.75-0.4L87.55,117.05z"/>
				<path style="fill-rule:evenodd;clip-rule:evenodd;fill:#343436;" d="M88.45,116.25c0.2-0.033,0.383,0.117,0.55,0.45
					c0.134,0.233,1.733-0.3,4.8-1.601c4.634-1.967,8.45-3.467,11.45-4.5c0.9-0.3,1.467-0.75,1.7-1.35
					c0.267,0.267,0.333,0.583,0.2,0.95c-3.667,1.566-7.267,3.066-10.801,4.5c-2.433,1.033-4.116,1.75-5.05,2.149
					c-1.6,0.667-2.533,0.967-2.8,0.9c-0.3-0.033-0.55-0.167-0.75-0.4l-0.2-0.35C87.917,116.533,88.217,116.283,88.45,116.25z"/>
				<path style="fill-rule:evenodd;clip-rule:evenodd;fill:#FFFFFF;" d="M109.6,109.95l0.351,0.05l-0.15,1.15
					c-0.133,0.6-0.649,1.433-1.55,2.5l-8.7,6.05L94,119.5l-1.25-1.25c3.4-0.833,6.884-2.15,10.45-3.95
					C106.566,112.6,108.7,111.15,109.6,109.95z"/>
				
					<use xlink:href="#FlashAICB_x2F_Layer_1_x2F__x3C_Clip_Group_0_x3E_"  width="26.3" height="27.5" y="-27.5" transform="matrix(1 0 0 -1 87.7998 103.0498)" style="overflow:visible;"/>
				<path style="fill-rule:evenodd;clip-rule:evenodd;fill:#C7C7C7;" d="M85.15,120c2.566,1.133,4.466,1.917,5.699,2.35
					c0.134-0.133,0.334-0.433,0.601-0.899l1.3-3.2l1.4,0.65l-0.2,0.3c-0.2,0.3-0.4,0.717-0.601,1.25
					c-0.333,0.866-0.883,1.899-1.649,3.1c-1.167-0.399-3.066-1.217-5.7-2.45c-5.267-2.399-11.55-5.616-18.85-9.649
					c-5.233-2.867-9.467-5.667-12.7-8.4l-3.3-3.2l1.2-3.399l1.15,0.8l-1.1,2.7l2.95,2.899c2.967,2.533,7.033,5.25,12.2,8.15
					C74.15,114.667,80.017,117.667,85.15,120z"/>
				<path style="fill-rule:evenodd;clip-rule:evenodd;fill:#323232;" d="M86.95,125.35l0.95,0.75c0.033,0.801-0.417,1.467-1.351,2
					c-1.333,0.733-3.75,0.617-7.25-0.35c-2.4-0.667-6.316-2.45-11.75-5.35c-5.5-2.9-10.083-5.634-13.75-8.2
					c-3.167-2.2-5.117-4.101-5.85-5.7c-0.434-0.9-0.45-1.833-0.05-2.8c0.167-0.4,0.35-0.65,0.55-0.75c0.2-0.067,0.566-0.067,1.1,0
					c1.067,0.1,1.75,0.2,2.05,0.3c0.733,0.2,1.566,0.667,2.5,1.4c1.433,1.1,4.9,3.416,10.4,6.949c2.167,1.467,6.1,3.584,11.8,6.351
					c2.9,1.433,6.017,2.917,9.351,4.45C86.983,125.066,87.417,125.383,86.95,125.35z"/>
				<path style="fill-rule:evenodd;clip-rule:evenodd;fill:#323232;" d="M71.45,117.75c1.7,0.967,4.633,2.383,8.8,4.25
					c3.933,1.733,6.05,2.7,6.35,2.9c0.567,0.399,0.867,0.666,0.9,0.8l-0.35,0.75c-0.2,0.467-0.717,0.667-1.551,0.6
					c-0.866-0.066-2.85-0.45-5.95-1.149c-2.767-0.634-7.1-2.601-13-5.9c-4.2-2.333-8.467-4.917-12.8-7.75
					c-2.533-1.633-4.167-3.1-4.9-4.4l-0.4-1.449c-0.133-0.034-0.233-0.101-0.3-0.2c-0.133-0.2,0.017-0.5,0.45-0.9
					c0.633-0.566,2.066-0.399,4.3,0.5c0.233,0.101,1.15,0.783,2.75,2.05c1.833,1.4,3.3,2.45,4.4,3.15
					C60.583,111.267,64.35,113.517,71.45,117.75z"/>
				<path style="fill-rule:evenodd;clip-rule:evenodd;fill:#404040;" d="M74.25,123.6c-3.467-1.6-5.8-2.699-7-3.3
					c-2.4-1.2-4.85-2.566-7.35-4.1c-2.367-1.434-4.633-3.017-6.8-4.75l-2.55-2.2c-0.6-0.867-0.417-1.25,0.55-1.15
					c1,0.101,2.25,0.7,3.75,1.801c5.233,3.899,11.233,7.467,18,10.699c2.1,1,4.9,2.301,8.4,3.9c2.233,1.133,2.783,1.833,1.65,2.1
					c-1.066,0.233-2.167,0.101-3.3-0.399C77.8,125.267,76.017,124.4,74.25,123.6z"/>
				<path style="fill-rule:evenodd;clip-rule:evenodd;fill:#979797;" d="M48.9,107.75c0.333-0.1,0.6,0.017,0.8,0.35
					c0.167,0.334,0.2,0.634,0.1,0.9c-0.133,0.367-0.017,0.9,0.35,1.6c0.167,0.334,0.117,0.384-0.15,0.15
					c-0.5-0.434-0.883-1.017-1.15-1.75S48.6,107.85,48.9,107.75z"/>
				<path style="fill-rule:evenodd;clip-rule:evenodd;fill:#575757;" d="M85.35,124.05c1.4,0.634,2.233,1.25,2.5,1.851
					c0.267,0.6-0.033,1.033-0.899,1.3c-2.233,0.6-5.883-0.2-10.95-2.4c-5.7-2.5-11.4-5.5-17.1-9
					c-6.333-3.933-9.983-6.917-10.95-8.95c-0.367-0.8-0.3-1.416,0.2-1.85c0.5-0.467,1.267-0.583,2.3-0.35
					c0.966,0.199,2.05,0.716,3.25,1.55c5.867,4.133,11.583,7.717,17.15,10.75C75.117,119.316,79.95,121.684,85.35,124.05z
					 M75.2,123.8c4.833,2.134,8.316,3.05,10.45,2.75c0.833-0.133,1.1-0.45,0.8-0.95c-0.334-0.533-1.217-1.116-2.65-1.75
					c-5.7-2.5-10.216-4.633-13.55-6.399c-5.2-2.8-10.55-6.167-16.05-10.101c-1.733-1.233-3.133-1.85-4.2-1.85
					c-1,0-1.25,0.517-0.75,1.55c0.867,1.767,4.133,4.45,9.8,8.05C64.45,118.533,69.833,121.434,75.2,123.8z"/>
			</g>
		</g>
		<g>
			<g>
				<g>
					<path style="fill-rule:evenodd;clip-rule:evenodd;fill:#F1F7CC;" d="M75.75,32.25c-0.8,0-1.417-0.25-1.85-0.75
						c-0.367-0.467-0.55-1.033-0.55-1.7c0-0.633,0.217-1.183,0.65-1.65c0.467-0.5,1.05-0.75,1.75-0.75h5
						c0.733,0,1.317,0.25,1.75,0.75c0.4,0.434,0.6,1.017,0.6,1.75v20.05c0,0.866-0.25,1.55-0.75,2.05c-0.467,0.467-1.1,0.7-1.9,0.7
						c-0.767,0-1.383-0.233-1.85-0.7c-0.5-0.5-0.75-1.184-0.75-2.05v-17.7H75.75z"/>
				</g>
				<g>
					
						<linearGradient id="SVGID_21_" gradientUnits="userSpaceOnUse" x1="-51.1792" y1="78.2275" x2="-25.9243" y2="78.2275" gradientTransform="matrix(3.956479e-005 -1 1 -0.001 -4.901881e-005 4.449275e-004)">
						<stop  offset="0.3451" style="stop-color:#2A4E07"/>
						<stop  offset="0.5216" style="stop-color:#3C6708"/>
						<stop  offset="0.902" style="stop-color:#6BA90C"/>
						<stop  offset="0.9686" style="stop-color:#73B50D"/>
					</linearGradient>
					<path style="fill-rule:evenodd;clip-rule:evenodd;fill:url(#SVGID_21_);" d="M75.75,30.7c-0.8,0-1.417-0.25-1.85-0.75
						c-0.367-0.467-0.55-1.034-0.55-1.7s0.217-1.217,0.65-1.65c0.433-0.5,1.017-0.75,1.75-0.75h5c0.733,0,1.317,0.233,1.75,0.7
						c0.4,0.467,0.6,1.067,0.6,1.8v20c0,0.867-0.25,1.55-0.75,2.05c-0.467,0.467-1.1,0.7-1.9,0.7c-0.767,0-1.383-0.233-1.85-0.7
						c-0.5-0.5-0.75-1.183-0.75-2.05V30.7H75.75z"/>
				</g>
			</g>
			<g>
				<g>
					<path style="fill-rule:evenodd;clip-rule:evenodd;fill:#F1F7CC;" d="M90.9,32.25c-0.801,0-1.417-0.25-1.851-0.75
						c-0.366-0.467-0.55-1.033-0.55-1.7c0-0.633,0.217-1.183,0.65-1.65c0.466-0.5,1.05-0.75,1.75-0.75h5
						c0.733,0,1.316,0.25,1.75,0.75c0.399,0.434,0.6,1.017,0.6,1.75v20.05c0,0.866-0.25,1.55-0.75,2.05
						c-0.467,0.467-1.083,0.7-1.85,0.7c-0.801,0-1.434-0.233-1.9-0.7c-0.5-0.5-0.75-1.184-0.75-2.05v-17.7H90.9z"/>
				</g>
				<g>
					
						<linearGradient id="SVGID_22_" gradientUnits="userSpaceOnUse" x1="-51.1943" y1="93.377" x2="-25.9395" y2="93.377" gradientTransform="matrix(3.956479e-005 -1 1 -0.001 -4.901881e-005 4.449275e-004)">
						<stop  offset="0.3451" style="stop-color:#2A4E07"/>
						<stop  offset="0.5216" style="stop-color:#3C6708"/>
						<stop  offset="0.902" style="stop-color:#6BA90C"/>
						<stop  offset="0.9686" style="stop-color:#73B50D"/>
					</linearGradient>
					<path style="fill-rule:evenodd;clip-rule:evenodd;fill:url(#SVGID_22_);" d="M90.9,30.7c-0.801,0-1.417-0.25-1.851-0.75
						c-0.366-0.467-0.55-1.034-0.55-1.7s0.217-1.217,0.65-1.65c0.433-0.5,1.017-0.75,1.75-0.75h5c0.767,0,1.35,0.233,1.75,0.7
						c0.399,0.467,0.6,1.067,0.6,1.8v20c0,0.867-0.25,1.55-0.75,2.05c-0.467,0.467-1.083,0.7-1.85,0.7c-0.801,0-1.434-0.233-1.9-0.7
						c-0.5-0.5-0.75-1.183-0.75-2.05V30.7H90.9z"/>
				</g>
			</g>
		</g>
		<g>
			<g>
				<g>
					<g>
						
							<linearGradient id="SVGID_23_" gradientUnits="userSpaceOnUse" x1="-64.5503" y1="50.5278" x2="-31.6421" y2="50.5278" gradientTransform="matrix(3.039514e-005 -1 1 -0.001 -1.686597e-004 4.449275e-004)">
							<stop  offset="0.3569" style="stop-color:#698424"/>
							<stop  offset="0.4627" style="stop-color:#7B9E33"/>
							<stop  offset="0.6314" style="stop-color:#9DCF52"/>
							<stop  offset="0.9647" style="stop-color:#DAE772"/>
						</linearGradient>
						<path style="fill-rule:evenodd;clip-rule:evenodd;fill:url(#SVGID_23_);" d="M63,32.05c0.767,0.067,1.367,0.45,1.8,1.15
							l0.05,0.05c0.867,1.4,0.867,3.1,0,5.1c-0.5,1.133-1.2,2.2-2.1,3.2c-2.2,2.567-4.367,4.167-6.5,4.8l-0.5,0.1h-0.1
							c-0.2,0.5-0.483,1.083-0.85,1.75c-1.633,2.933-3.45,4.933-5.45,6l-0.25,0.1c-0.033,0.8-0.133,1.517-0.3,2.15
							c-0.667,3.233-1.833,5.667-3.5,7.3l-0.45,0.35l-0.25,0.15c-0.333,0.167-0.65,0.25-0.95,0.25c-0.367,0.033-0.767-0.033-1.2-0.2
							c-0.833-0.4-1.534-1.033-2.1-1.9c-0.267,0.167-0.5,0.267-0.7,0.3c-0.2,0.1-0.383,0.15-0.55,0.15l-0.25,0.05
							c-0.8,0.067-1.467-0.2-2-0.8c-1.033-1.133-1.45-2.65-1.25-4.55c0.167-1.433,0.633-2.833,1.4-4.2
							c1.2-1.867,2.667-3.284,4.4-4.25c-0.267-1.267-0.017-2.65,0.75-4.15c0.567-1.134,1.333-2.167,2.3-3.1
							c1.466-1.3,3.133-2.217,5-2.75c0.167-1.167,0.733-2.333,1.7-3.5c0.8-0.934,1.684-1.7,2.65-2.3c1.4-0.833,2.95-1.367,4.65-1.6
							C60.117,31.467,61.633,31.583,63,32.05z"/>
						<path style="fill-rule:evenodd;clip-rule:evenodd;fill:none;stroke:#DFF39B;stroke-width:0.25;" d="M63,32.05
							c-1.367-0.466-2.883-0.583-4.55-0.35c-1.7,0.233-3.25,0.767-4.65,1.6c-0.966,0.6-1.85,1.367-2.65,2.3
							c-0.967,1.167-1.533,2.333-1.7,3.5c-1.867,0.533-3.534,1.45-5,2.75c-0.967,0.933-1.733,1.966-2.3,3.1
							c-0.767,1.5-1.017,2.883-0.75,4.15c-1.733,0.966-3.2,2.383-4.4,4.25c-0.767,1.367-1.233,2.767-1.4,4.2
							c-0.2,1.9,0.217,3.417,1.25,4.55c0.533,0.6,1.2,0.867,2,0.8l0.25-0.05c0.167,0,0.35-0.05,0.55-0.15
							c0.2-0.034,0.434-0.134,0.7-0.3c0.566,0.867,1.267,1.5,2.1,1.9c0.433,0.167,0.833,0.233,1.2,0.2c0.3,0,0.617-0.083,0.95-0.25
							l0.25-0.15l0.45-0.35c1.667-1.633,2.833-4.067,3.5-7.3c0.167-0.634,0.267-1.35,0.3-2.15l0.25-0.1c2-1.067,3.816-3.067,5.45-6
							c0.367-0.667,0.65-1.25,0.85-1.75h0.1l0.5-0.1c2.133-0.633,4.3-2.233,6.5-4.8c0.9-1,1.6-2.066,2.1-3.2
							c0.867-2,0.867-3.7,0-5.1L64.8,33.2C64.367,32.5,63.767,32.117,63,32.05z"/>
					</g>
				</g>
				<path style="fill-rule:evenodd;clip-rule:evenodd;fill:#22480E;" d="M62.65,33.75h0.05c0.3-0.067,0.517,0.05,0.65,0.35
					l0.05,0.05c0.5,0.833,0.483,1.934-0.05,3.3c-0.434,1-1.067,1.983-1.9,2.95c-1.967,2.333-3.867,3.767-5.7,4.3l-0.15,0.05
					l-0.05-0.05l-0.05,0.05h-0.05c-0.233,0-0.434-0.1-0.6-0.3l-0.25-0.4c-0.233,1.167-0.667,2.25-1.3,3.25
					c-1.3,2.6-2.883,4.383-4.75,5.35l-0.3,0.1H48.2c-0.133,0.033-0.333-0.017-0.6-0.15l-0.25-0.3c0.167,1.133,0.083,2.383-0.25,3.75
					c-0.567,2.9-1.583,5.067-3.05,6.5l-0.15,0.1l-0.35,0.15l-0.4-0.05c-0.967-0.467-1.65-1.417-2.05-2.85
					c-0.633,0.5-1.317,0.9-2.05,1.2l-0.25,0.05h-0.05c-0.267,0.067-0.483-0.017-0.65-0.25c-0.733-0.8-0.983-1.95-0.75-3.45
					c0.2-1.134,0.583-2.217,1.15-3.25c1.4-2.233,3.25-3.684,5.55-4.35H43.9l-0.05-0.05c-0.267-0.066-0.45-0.2-0.55-0.4
					c-0.466-0.967-0.367-2.15,0.3-3.55c0.467-1,1.133-1.934,2-2.8c1.733-1.466,3.617-2.3,5.65-2.5V40.5
					c-0.3-1.067,0.017-2.217,0.95-3.45c0.7-0.933,1.55-1.7,2.55-2.3c1.233-0.733,2.583-1.184,4.05-1.35
					C60.233,33.2,61.517,33.316,62.65,33.75z"/>
				<g>
					<g>
						<g>
							<g>
								<g>
									<g>
										<g>
											
												<linearGradient id="SVGID_24_" gradientUnits="userSpaceOnUse" x1="14.5034" y1="65.7998" x2="26.1709" y2="65.7998" gradientTransform="matrix(0.7714 -0.6364 0.6364 0.7714 2.275109e-004 5.882978e-005)">
												<stop  offset="0.2275" style="stop-color:#78DD17"/>
												<stop  offset="0.6392" style="stop-color:#70B11F"/>
												<stop  offset="0.9255" style="stop-color:#6C9726"/>
											</linearGradient>
											<path style="fill-rule:evenodd;clip-rule:evenodd;fill:url(#SVGID_24_);" d="M62.4,34.5c0.1,0.767-0.316,1.583-1.25,2.45
												c-0.7,0.667-1.55,1.25-2.55,1.75c-2.6,1.267-4.783,1.816-6.55,1.65c0.267-0.267,0.883-0.784,1.85-1.55
												c1.033-0.833,1.767-1.466,2.2-1.9C58.133,35.133,60.233,34.333,62.4,34.5z"/>
											<path style="fill-rule:evenodd;clip-rule:evenodd;fill:#EAF9B6;" d="M52,40.3c-0.233-0.8,0.017-1.716,0.75-2.75
												c0.633-0.867,1.433-1.6,2.4-2.2c1.167-0.633,2.383-1.034,3.65-1.2c1.333-0.2,2.534-0.1,3.6,0.3
												c-0.867-0.034-1.783,0.2-2.75,0.7c-0.533,0.267-1.367,0.8-2.5,1.6C55.117,38.417,53.4,39.6,52,40.3z"/>
										</g>
										<g>
											
												<linearGradient id="SVGID_25_" gradientUnits="userSpaceOnUse" x1="-13.6279" y1="71.0928" x2="-1.9547" y2="71.0928" gradientTransform="matrix(0.4583 -0.8888 0.8888 0.4583 3.446341e-004 -3.511906e-004)">
												<stop  offset="0.2275" style="stop-color:#78DD17"/>
												<stop  offset="0.6392" style="stop-color:#70B11F"/>
												<stop  offset="0.9255" style="stop-color:#6C9726"/>
											</linearGradient>
											<path style="fill-rule:evenodd;clip-rule:evenodd;fill:url(#SVGID_25_);" d="M62.75,34.55c0.4,0.633,0.35,1.55-0.15,2.75
												c-0.4,0.867-0.967,1.733-1.7,2.6c-1.9,2.233-3.683,3.583-5.35,4.05c0.133-0.333,0.5-1.05,1.1-2.15
												c0.6-1.133,1.017-1.983,1.25-2.55C59.067,36.816,60.683,35.25,62.75,34.55z"/>
											<path style="fill-rule:evenodd;clip-rule:evenodd;fill:#EAF9B6;" d="M55.45,44c-0.5-0.667-0.617-1.617-0.35-2.85
												c0.233-1.033,0.667-2.017,1.3-2.95c0.8-1.034,1.75-1.9,2.85-2.6c1.167-0.667,2.317-1.034,3.45-1.1
												c-0.833,0.3-1.583,0.883-2.25,1.75c-0.434,0.467-0.983,1.283-1.65,2.45C57.533,41.066,56.417,42.833,55.45,44z"/>
										</g>
									</g>
								</g>
							</g>
						</g>
					</g>
					<g>
						<g>
							<g>
								<g>
									<g>
										<g>
											
												<linearGradient id="SVGID_26_" gradientUnits="userSpaceOnUse" x1="-9.9902" y1="66.7744" x2="1.6807" y2="66.7744" gradientTransform="matrix(0.6341 -0.7733 0.7733 0.6341 4.500151e-005 2.341866e-004)">
												<stop  offset="0.2275" style="stop-color:#78DD17"/>
												<stop  offset="0.6392" style="stop-color:#70B11F"/>
												<stop  offset="0.9255" style="stop-color:#6C9726"/>
											</linearGradient>
											<path style="fill-rule:evenodd;clip-rule:evenodd;fill:url(#SVGID_26_);" d="M53.1,41.35
												c0.233,0.733-0.017,1.617-0.75,2.65c-0.6,0.833-1.333,1.566-2.2,2.2c-2.2,1.8-4.217,2.767-6.05,2.9
												c0.2-0.3,0.7-0.934,1.5-1.9c0.867-1,1.467-1.75,1.8-2.25C49.067,42.816,50.967,41.617,53.1,41.35z"/>
											<path style="fill-rule:evenodd;clip-rule:evenodd;fill:#EAF9B6;" d="M44,49.1c-0.367-0.767-0.283-1.717,0.25-2.85
												c0.433-0.967,1.067-1.85,1.9-2.65c1-0.867,2.117-1.5,3.35-1.9c1.267-0.434,2.467-0.567,3.6-0.4
												c-0.867,0.133-1.733,0.534-2.6,1.2c-0.5,0.4-1.217,1.1-2.15,2.1C46.717,46.6,45.267,48.1,44,49.1z"/>
										</g>
										<g>
											
												<linearGradient id="SVGID_27_" gradientUnits="userSpaceOnUse" x1="-36.6406" y1="62.2529" x2="-24.9615" y2="62.2529" gradientTransform="matrix(0.2761 -0.9611 0.9611 0.2761 3.799796e-005 2.879500e-004)">
												<stop  offset="0.2275" style="stop-color:#78DD17"/>
												<stop  offset="0.6392" style="stop-color:#70B11F"/>
												<stop  offset="0.9255" style="stop-color:#6C9726"/>
											</linearGradient>
											<path style="fill-rule:evenodd;clip-rule:evenodd;fill:url(#SVGID_27_);" d="M53.4,41.3
												c0.533,0.567,0.667,1.483,0.4,2.75c-0.2,0.967-0.583,1.934-1.15,2.9c-1.3,2.5-2.783,4.183-4.45,5.05
												c0.066-0.333,0.283-1.117,0.65-2.35c0.4-1.233,0.65-2.15,0.75-2.75C50.233,44.3,51.5,42.433,53.4,41.3z"/>
											<path style="fill-rule:evenodd;clip-rule:evenodd;fill:#EAF9B6;" d="M48.1,52c-0.633-0.533-0.917-1.434-0.85-2.7
												c0.033-1.033,0.267-2.083,0.7-3.15c0.566-1.2,1.333-2.233,2.3-3.1c1-0.9,2.05-1.483,3.15-1.75
												c-0.733,0.467-1.367,1.184-1.9,2.15c-0.267,0.466-0.65,1.366-1.15,2.7C49.583,48.75,48.833,50.7,48.1,52z"/>
										</g>
									</g>
								</g>
							</g>
						</g>
					</g>
					<g>
						<g>
							<g>
								<g>
									<g>
										<g>
											
												<linearGradient id="SVGID_28_" gradientUnits="userSpaceOnUse" x1="-40.7847" y1="60.6187" x2="-29.1077" y2="60.6187" gradientTransform="matrix(0.3854 -0.9228 0.9228 0.3854 2.517402e-004 6.407499e-005)">
												<stop  offset="0.2275" style="stop-color:#78DD17"/>
												<stop  offset="0.6392" style="stop-color:#70B11F"/>
												<stop  offset="0.9255" style="stop-color:#6C9726"/>
											</linearGradient>
											<path style="fill-rule:evenodd;clip-rule:evenodd;fill:url(#SVGID_28_);" d="M45.15,50.4c0.467,0.633,0.5,1.55,0.1,2.75
												c-0.333,0.967-0.833,1.883-1.5,2.75c-1.567,2.3-3.233,3.8-5,4.5c0.1-0.3,0.417-1.05,0.95-2.25
												c0.533-1.167,0.883-2.05,1.05-2.65C41.683,53,43.15,51.3,45.15,50.4z"/>
											<path style="fill-rule:evenodd;clip-rule:evenodd;fill:#EAF9B6;" d="M38.7,60.4c-0.567-0.6-0.75-1.533-0.55-2.8
												c0.133-1.034,0.483-2.05,1.05-3.05c0.7-1.1,1.566-2.033,2.6-2.8c1.1-0.767,2.217-1.217,3.35-1.35
												c-0.8,0.367-1.517,1-2.15,1.9c-0.367,0.534-0.833,1.383-1.4,2.55C40.633,57.183,39.667,59.033,38.7,60.4z"/>
										</g>
										<g>
											
												<linearGradient id="SVGID_29_" gradientUnits="userSpaceOnUse" x1="-62.4619" y1="44.46" x2="-50.7832" y2="44.46" gradientTransform="matrix(-0.0107 -0.9999 0.9999 -0.0107 2.300870e-004 1.493432e-004)">
												<stop  offset="0.2275" style="stop-color:#78DD17"/>
												<stop  offset="0.6392" style="stop-color:#70B11F"/>
												<stop  offset="0.9255" style="stop-color:#6C9726"/>
											</linearGradient>
											<path style="fill-rule:evenodd;clip-rule:evenodd;fill:url(#SVGID_29_);" d="M45.5,50.3c0.667,0.367,1.05,1.2,1.15,2.5
												c0.067,0.967-0.033,1.983-0.3,3.05c-0.5,2.733-1.434,4.783-2.8,6.15c-0.033-0.367-0.05-1.167-0.05-2.4
												c0.033-1.333,0.017-2.3-0.05-2.9C43.283,54,43.967,51.867,45.5,50.3z"/>
											<path style="fill-rule:evenodd;clip-rule:evenodd;fill:#EAF9B6;" d="M43.45,62.05c-0.767-0.333-1.3-1.117-1.6-2.35
												c-0.267-1.034-0.333-2.117-0.2-3.25c0.167-1.267,0.6-2.467,1.3-3.6c0.7-1.167,1.533-2.034,2.5-2.6
												c-0.6,0.667-1,1.533-1.2,2.6c-0.133,0.566-0.233,1.55-0.3,2.95C43.95,58.4,43.783,60.483,43.45,62.05z"/>
										</g>
									</g>
								</g>
							</g>
						</g>
					</g>
				</g>
			</g>
			<g>
				<g>
					<g>
						<linearGradient id="SVGID_30_" gradientUnits="userSpaceOnUse" x1="123.2334" y1="31.7344" x2="118.7334" y2="64.3344">
							<stop  offset="0.3569" style="stop-color:#698424"/>
							<stop  offset="0.4627" style="stop-color:#7B9E33"/>
							<stop  offset="0.6314" style="stop-color:#9DCF52"/>
							<stop  offset="0.9647" style="stop-color:#DAE772"/>
						</linearGradient>
						<path style="fill-rule:evenodd;clip-rule:evenodd;fill:url(#SVGID_30_);" d="M106.8,33.25V33.2
							c0.434-0.7,1.05-1.083,1.851-1.15c1.333-0.466,2.833-0.583,4.5-0.35c1.699,0.233,3.25,0.767,4.649,1.6
							c1,0.6,1.884,1.367,2.65,2.3c0.967,1.167,1.533,2.333,1.7,3.5c1.899,0.533,3.583,1.45,5.05,2.75
							c0.967,0.933,1.733,1.966,2.3,3.1c0.767,1.5,1.017,2.883,0.75,4.15c1.767,1,3.217,2.417,4.35,4.25
							c0.767,1.333,1.233,2.733,1.4,4.2c0.233,1.9-0.167,3.417-1.2,4.55c-0.533,0.6-1.2,0.867-2,0.8l-0.25-0.05
							c-0.2,0-0.399-0.05-0.6-0.15c-0.233-0.067-0.45-0.167-0.65-0.3c-0.566,0.867-1.267,1.5-2.1,1.9
							c-0.467,0.167-0.867,0.233-1.2,0.2c-0.3,0-0.616-0.083-0.95-0.25l-0.25-0.15l-0.45-0.35c-1.666-1.633-2.833-4.067-3.5-7.3
							c-0.133-0.567-0.25-1.284-0.35-2.15l-0.2-0.1c-1.233-0.667-2.416-1.7-3.55-3.1c-0.767-0.934-1.4-1.9-1.9-2.9
							c-0.366-0.667-0.649-1.25-0.85-1.75h-0.15l-0.449-0.1c-2.267-0.667-4.434-2.267-6.5-4.8c-0.9-1-1.601-2.066-2.101-3.2
							C105.934,36.35,105.934,34.65,106.8,33.25z"/>
						<path style="fill-rule:evenodd;clip-rule:evenodd;fill:none;stroke:#DFF39B;stroke-width:0.25;" d="M106.8,33.25V33.2
							c0.434-0.7,1.05-1.083,1.851-1.15c1.333-0.466,2.833-0.583,4.5-0.35c1.699,0.233,3.25,0.767,4.649,1.6
							c1,0.6,1.884,1.367,2.65,2.3c0.967,1.167,1.533,2.333,1.7,3.5c1.899,0.533,3.583,1.45,5.05,2.75
							c0.967,0.933,1.733,1.966,2.3,3.1c0.767,1.5,1.017,2.883,0.75,4.15c1.767,1,3.217,2.417,4.35,4.25
							c0.767,1.333,1.233,2.733,1.4,4.2c0.233,1.9-0.167,3.417-1.2,4.55c-0.533,0.6-1.2,0.867-2,0.8l-0.25-0.05
							c-0.2,0-0.399-0.05-0.6-0.15c-0.233-0.067-0.45-0.167-0.65-0.3c-0.566,0.867-1.267,1.5-2.1,1.9
							c-0.467,0.167-0.867,0.233-1.2,0.2c-0.3,0-0.616-0.083-0.95-0.25l-0.25-0.15l-0.45-0.35c-1.666-1.633-2.833-4.067-3.5-7.3
							c-0.133-0.567-0.25-1.284-0.35-2.15l-0.2-0.1c-1.233-0.667-2.416-1.7-3.55-3.1c-0.767-0.934-1.4-1.9-1.9-2.9
							c-0.366-0.667-0.649-1.25-0.85-1.75h-0.15l-0.449-0.1c-2.267-0.667-4.434-2.267-6.5-4.8c-0.9-1-1.601-2.066-2.101-3.2
							C105.934,36.35,105.934,34.65,106.8,33.25z"/>
					</g>
				</g>
				<path style="fill-rule:evenodd;clip-rule:evenodd;fill:#22480E;" d="M110.15,40.4c-0.834-0.967-1.45-1.95-1.851-2.95
					c-0.533-1.367-0.55-2.467-0.05-3.3V34.1c0.2-0.267,0.434-0.383,0.7-0.35H109c1.134-0.434,2.417-0.55,3.85-0.35
					c1.467,0.167,2.817,0.617,4.051,1.35c0.966,0.6,1.8,1.367,2.5,2.3c0.933,1.233,1.267,2.383,1,3.45l-0.051,0.05
					c2.101,0.233,3.983,1.067,5.65,2.5c0.866,0.833,1.55,1.767,2.05,2.8c0.667,1.4,0.75,2.583,0.25,3.55
					c-0.1,0.233-0.267,0.367-0.5,0.4l-0.1,0.05H127.6c2.301,0.667,4.134,2.117,5.5,4.35c0.601,1,1,2.083,1.2,3.25
					c0.233,1.5-0.033,2.65-0.8,3.45c-0.167,0.2-0.366,0.283-0.6,0.25H132.8l-0.2-0.05c-0.733-0.3-1.433-0.7-2.1-1.2
					c-0.366,1.4-1.05,2.35-2.05,2.85L128.1,62.8l-0.3-0.1l-0.05-0.05l-0.2-0.1c-1.434-1.433-2.434-3.6-3-6.5
					c-0.333-1.367-0.416-2.617-0.25-3.75l-0.3,0.3c-0.2,0.133-0.384,0.183-0.55,0.15h-0.101l-0.1-0.05l-0.15-0.05
					c-1.767-0.933-3.366-2.717-4.8-5.35c-0.6-1.066-1.017-2.15-1.25-3.25l-0.25,0.4c-0.133,0.2-0.333,0.3-0.6,0.3h-0.05l-0.101-0.05
					v0.05L115.9,44.7C114.066,44.167,112.15,42.733,110.15,40.4z"/>
				<g>
					<g>
						<g>
							<g>
								<g>
									<g>
										<g>
											<linearGradient id="SVGID_31_" gradientUnits="userSpaceOnUse" x1="118.5459" y1="41.5186" x2="109.5459" y2="34.0936">
												<stop  offset="0.2275" style="stop-color:#78DD17"/>
												<stop  offset="0.6392" style="stop-color:#70B11F"/>
												<stop  offset="0.9255" style="stop-color:#6C9726"/>
											</linearGradient>
											<path style="fill-rule:evenodd;clip-rule:evenodd;fill:url(#SVGID_31_);" d="M115.5,36.9
												c0.434,0.434,1.167,1.067,2.2,1.9c1,0.767,1.633,1.284,1.899,1.55c-1.8,0.167-3.983-0.383-6.55-1.65
												c-1-0.467-1.85-1.05-2.55-1.75c-0.934-0.867-1.35-1.684-1.25-2.45C111.417,34.333,113.5,35.133,115.5,36.9z"/>
											<path style="fill-rule:evenodd;clip-rule:evenodd;fill:#EAF9B6;" d="M119.65,40.3c-1.4-0.7-3.117-1.883-5.15-3.55
												c-1.134-0.8-1.95-1.333-2.45-1.6c-1-0.5-1.934-0.733-2.8-0.7c1.066-0.4,2.267-0.5,3.6-0.3
												c1.267,0.167,2.483,0.567,3.65,1.2c0.934,0.633,1.717,1.367,2.35,2.2C119.583,38.583,119.85,39.5,119.65,40.3z"/>
										</g>
										<g>
											<linearGradient id="SVGID_32_" gradientUnits="userSpaceOnUse" x1="114.6787" y1="44.6836" x2="109.3287" y2="34.3086">
												<stop  offset="0.2275" style="stop-color:#78DD17"/>
												<stop  offset="0.6392" style="stop-color:#70B11F"/>
												<stop  offset="0.9255" style="stop-color:#6C9726"/>
											</linearGradient>
											<path style="fill-rule:evenodd;clip-rule:evenodd;fill:url(#SVGID_32_);" d="M109.05,37.3
												c-0.5-1.167-0.55-2.083-0.149-2.75c2.1,0.733,3.699,2.3,4.8,4.7c0.233,0.566,0.666,1.417,1.3,2.55
												c0.6,1.1,0.967,1.817,1.1,2.15c-1.767-0.5-3.55-1.85-5.35-4.05C110.017,39.066,109.45,38.2,109.05,37.3z"/>
											<path style="fill-rule:evenodd;clip-rule:evenodd;fill:#EAF9B6;" d="M116.2,44c-0.9-1.033-2.017-2.8-3.351-5.3
												c-0.666-1.167-1.216-1.983-1.649-2.45c-0.7-0.867-1.467-1.45-2.3-1.75c1.133,0.033,2.283,0.4,3.449,1.1
												c1.101,0.7,2.051,1.566,2.851,2.6c0.633,0.933,1.083,1.917,1.35,2.95C116.816,42.383,116.7,43.333,116.2,44z"/>
										</g>
									</g>
								</g>
							</g>
						</g>
					</g>
					<g>
						<g>
							<g>
								<g>
									<g>
										<g>
											<linearGradient id="SVGID_33_" gradientUnits="userSpaceOnUse" x1="126.333" y1="50.0767" x2="118.933" y2="41.0517">
												<stop  offset="0.2275" style="stop-color:#78DD17"/>
												<stop  offset="0.6392" style="stop-color:#70B11F"/>
												<stop  offset="0.9255" style="stop-color:#6C9726"/>
											</linearGradient>
											<path style="fill-rule:evenodd;clip-rule:evenodd;fill:url(#SVGID_33_);" d="M118.55,41.35
												c2.134,0.267,4.033,1.466,5.7,3.6c0.333,0.533,0.934,1.283,1.8,2.25c0.834,0.966,1.334,1.6,1.5,1.9
												c-1.8-0.133-3.833-1.1-6.1-2.9c-0.867-0.634-1.601-1.367-2.2-2.2C118.517,42.967,118.283,42.083,118.55,41.35z"/>
											<path style="fill-rule:evenodd;clip-rule:evenodd;fill:#EAF9B6;" d="M127.65,49.1c-1.367-1.1-2.834-2.6-4.4-4.5
												c-0.967-1.034-1.667-1.733-2.1-2.1c-0.867-0.667-1.733-1.067-2.601-1.2c1.101-0.167,2.3-0.033,3.601,0.4
												c1.267,0.4,2.383,1.033,3.35,1.9c0.8,0.767,1.434,1.65,1.9,2.65C127.9,47.383,127.983,48.333,127.65,49.1z"/>
										</g>
										<g>
											<linearGradient id="SVGID_34_" gradientUnits="userSpaceOnUse" x1="121.915" y1="52.4121" x2="118.69" y2="41.1871">
												<stop  offset="0.2275" style="stop-color:#78DD17"/>
												<stop  offset="0.6392" style="stop-color:#70B11F"/>
												<stop  offset="0.9255" style="stop-color:#6C9726"/>
											</linearGradient>
											<path style="fill-rule:evenodd;clip-rule:evenodd;fill:url(#SVGID_34_);" d="M118.2,41.3c1.899,1.133,3.166,3,3.8,5.6
												c0.134,0.6,0.4,1.517,0.8,2.75c0.367,1.2,0.584,1.983,0.65,2.35c-1.601-0.8-3.101-2.483-4.5-5.05
												c-0.533-0.967-0.9-1.934-1.101-2.9C117.583,42.783,117.7,41.867,118.2,41.3z"/>
											<path style="fill-rule:evenodd;clip-rule:evenodd;fill:#EAF9B6;" d="M123.5,52c-0.767-1.434-1.517-3.383-2.25-5.85
												c-0.434-1.267-0.8-2.167-1.1-2.7c-0.5-0.967-1.134-1.684-1.9-2.15c1.1,0.267,2.15,0.85,3.15,1.75
												c0.966,0.9,1.733,1.934,2.3,3.1c0.434,1.067,0.666,2.117,0.7,3.15C124.434,50.566,124.134,51.467,123.5,52z"/>
										</g>
									</g>
								</g>
							</g>
						</g>
					</g>
					<g>
						<g>
							<g>
								<g>
									<g>
										<g>
											<linearGradient id="SVGID_35_" gradientUnits="userSpaceOnUse" x1="131.4082" y1="60.9839" x2="126.9082" y2="50.2089">
												<stop  offset="0.2275" style="stop-color:#78DD17"/>
												<stop  offset="0.6392" style="stop-color:#70B11F"/>
												<stop  offset="0.9255" style="stop-color:#6C9726"/>
											</linearGradient>
											<path style="fill-rule:evenodd;clip-rule:evenodd;fill:url(#SVGID_35_);" d="M126.45,50.4c2.066,0.9,3.533,2.6,4.399,5.1
												c0.167,0.533,0.534,1.417,1.101,2.65c0.5,1.133,0.8,1.883,0.899,2.25c-1.666-0.667-3.333-2.167-5-4.5
												c-0.633-0.867-1.116-1.783-1.449-2.75C126,51.95,126.017,51.033,126.45,50.4z"/>
											<path style="fill-rule:evenodd;clip-rule:evenodd;fill:#EAF9B6;" d="M132.95,60.4c-1.033-1.433-2-3.283-2.9-5.55
												c-0.566-1.167-1.033-2.017-1.399-2.55c-0.634-0.9-1.367-1.533-2.2-1.9c1.133,0.133,2.25,0.583,3.35,1.35
												c1.066,0.767,1.95,1.7,2.65,2.8c0.566,1,0.916,2.017,1.05,3.05C133.7,58.833,133.517,59.767,132.95,60.4z"/>
										</g>
										<g>
											<linearGradient id="SVGID_36_" gradientUnits="userSpaceOnUse" x1="126.5088" y1="61.937" x2="126.6338" y2="50.259">
												<stop  offset="0.2275" style="stop-color:#78DD17"/>
												<stop  offset="0.6392" style="stop-color:#70B11F"/>
												<stop  offset="0.9255" style="stop-color:#6C9726"/>
											</linearGradient>
											<path style="fill-rule:evenodd;clip-rule:evenodd;fill:url(#SVGID_36_);" d="M126.15,50.3
												c1.466,1.567,2.149,3.7,2.05,6.4c-0.134,1.167-0.167,2.933-0.101,5.3c-1.3-1.333-2.25-3.383-2.85-6.15
												c-0.267-1.067-0.35-2.083-0.25-3.05C125.1,51.5,125.483,50.667,126.15,50.3z"/>
											<path style="fill-rule:evenodd;clip-rule:evenodd;fill:#EAF9B6;" d="M128.15,62.05c-0.367-1.667-0.517-3.75-0.45-6.25
												c-0.066-1.333-0.167-2.316-0.3-2.95c-0.233-1.067-0.65-1.934-1.25-2.6c0.966,0.566,1.816,1.433,2.55,2.6
												c0.666,1.1,1.1,2.3,1.3,3.6c0.134,1.133,0.05,2.216-0.25,3.25C129.45,60.933,128.917,61.717,128.15,62.05z"/>
										</g>
									</g>
								</g>
							</g>
						</g>
					</g>
				</g>
			</g>
		</g>
		
			<use xlink:href="#FlashAICB_x2F_Layer_1_x2F__x3C_Group_x3E__x5F_1"  width="128.65" height="61.9" y="-61.9" transform="matrix(1 0 0 -1 21.5 85.9502)" style="overflow:visible;opacity:0.5898;enable-background:new    ;"/>
		
			<use xlink:href="#FlashAICB_x2F_Layer_1_x2F__x3C_Group_x3E_"  width="119.2" height="66.434" y="-66.434" transform="matrix(1 0 0 -1 26.2002 22.2002)" style="overflow:visible;opacity:0.6797;enable-background:new    ;"/>
	</g>
</g>
</svg>
