<?xml version="1.0" encoding="iso-8859-1"?>
<!-- Generator: Adobe Illustrator 15.1.0, SVG Export Plug-In . SVG Version: 6.00 Build 0)  -->
<!DOCTYPE svg PUBLIC "-//W3C//DTD SVG 1.1//EN" "http://www.w3.org/Graphics/SVG/1.1/DTD/svg11.dtd">
<svg version="1.1" id="FlashAICB" xmlns="http://www.w3.org/2000/svg" xmlns:xlink="http://www.w3.org/1999/xlink" x="0px" y="0px"
	 width="171px" height="171.3px" viewBox="0 0 171 171.3" style="enable-background:new 0 0 171 171.3;" xml:space="preserve">
<symbol  id="FlashAICB_x5F_0_x2F_Isolation_Mode_x2F__x3C_Clip_Group_0_x3E_" viewBox="0 -27.5 26.25 27.5">
	<g id="Layer_1_7_">
	</g>
	<g>
		<defs>
			<path id="SVGID_1_" d="M18.9-9.95c-3.033-2.133-6.217-3.8-9.55-5c-1.633-0.6-2.983-0.983-4.05-1.15l-0.45-0.75
				c-0.333-0.633-0.6-1.35-0.8-2.15l-0.2-1.45c2.867,0.233,5.867,1.1,9,2.6c4.333,2.1,7.1,4.333,8.3,6.7c0.767,1.467,1.1,2.8,1,4
				C21.983-7.617,20.9-8.55,18.9-9.95z"/>
		</defs>
		<clipPath id="SVGID_2_">
			<use xlink:href="#SVGID_1_"  style="overflow:visible;"/>
		</clipPath>
		<g id="Layer_3_5_" style="clip-path:url(#SVGID_2_);">
			<linearGradient id="SVGID_3_" gradientUnits="userSpaceOnUse" x1="5.6812" y1="-15.3589" x2="23.2062" y2="-11.5839">
				<stop  offset="0" style="stop-color:#A2A3A7"/>
				<stop  offset="1" style="stop-color:#8F9092"/>
			</linearGradient>
			<polygon style="fill-rule:evenodd;clip-rule:evenodd;fill:url(#SVGID_3_);" points="0,-4.65 21.35,0 26.25,-22.9 4.95,-27.5 			
				"/>
		</g>
	</g>
	<g id="Layer_4_5_">
	</g>
</symbol>
<symbol  id="FlashAICB_x5F_0_x2F_Isolation_Mode_x2F__x3C_Clip_Group_0_x3E__x5F_1" viewBox="0 -5.15 4.9 5.15">
	<g id="Layer_1_6_">
	</g>
	<g>
		<defs>
			<path id="SVGID_4_" d="M1.25-0.35L0.75-3.5c-0.033-0.433,0.317-0.767,1.05-1c0.7-0.2,1.233-0.183,1.6,0.05l1.5,3.2L1.25-0.35z"/>
		</defs>
		<clipPath id="SVGID_5_">
			<use xlink:href="#SVGID_4_"  style="overflow:visible;"/>
		</clipPath>
		<g id="Layer_3_4_" style="clip-path:url(#SVGID_5_);">
			<linearGradient id="SVGID_6_" gradientUnits="userSpaceOnUse" x1="1.4316" y1="-2.2065" x2="3.7816" y2="-3.0565">
				<stop  offset="0" style="stop-color:#525254"/>
				<stop  offset="0.0745" style="stop-color:#58585A"/>
				<stop  offset="0.1725" style="stop-color:#67686A"/>
				<stop  offset="0.2667" style="stop-color:#7C7E80"/>
				<stop  offset="0.3686" style="stop-color:#676769"/>
				<stop  offset="0.5255" style="stop-color:#4E4C4E"/>
				<stop  offset="0.6784" style="stop-color:#3B393B"/>
				<stop  offset="0.8392" style="stop-color:#312D2F"/>
				<stop  offset="1" style="stop-color:#2D292B"/>
			</linearGradient>
			<polygon style="fill-rule:evenodd;clip-rule:evenodd;fill:url(#SVGID_6_);" points="1.4,0 4.9,-1.25 3.5,-5.15 0,-3.9 			"/>
		</g>
	</g>
	<g id="Layer_4_4_">
	</g>
</symbol>
<symbol  id="FlashAICB_x5F_0_x2F_Isolation_Mode_x2F__x3C_Clip_Group_0_x3E__x5F_2" viewBox="0 -4.9 4.1 4.9">
	<g id="Layer_1_5_">
	</g>
	<g>
		<defs>
			<path id="SVGID_7_" d="M1.25-0.35l-0.6-3.1C0.583-3.883,0.833-4.183,1.4-4.35c0.567-0.133,1-0.083,1.3,0.15l1.4,3.25L1.25-0.35z"
				/>
		</defs>
		<clipPath id="SVGID_8_">
			<use xlink:href="#SVGID_7_"  style="overflow:visible;"/>
		</clipPath>
		<g id="Layer_3_3_" style="clip-path:url(#SVGID_8_);">
			<linearGradient id="SVGID_9_" gradientUnits="userSpaceOnUse" x1="1.2769" y1="-2.1694" x2="3.1269" y2="-2.8194">
				<stop  offset="0" style="stop-color:#525254"/>
				<stop  offset="0.051" style="stop-color:#58585A"/>
				<stop  offset="0.1137" style="stop-color:#68686A"/>
				<stop  offset="0.1882" style="stop-color:#828385"/>
				<stop  offset="0.2667" style="stop-color:#A6A7AA"/>
				<stop  offset="0.3569" style="stop-color:#8A8A8D"/>
				<stop  offset="0.4824" style="stop-color:#69676A"/>
				<stop  offset="0.6078" style="stop-color:#4F4C4E"/>
				<stop  offset="0.7373" style="stop-color:#3C383B"/>
				<stop  offset="0.8667" style="stop-color:#312D2F"/>
				<stop  offset="1" style="stop-color:#2D292B"/>
			</linearGradient>
			<polygon style="fill-rule:evenodd;clip-rule:evenodd;fill:url(#SVGID_9_);" points="1.4,0 4.1,-0.95 2.75,-4.9 0,-3.9 			"/>
		</g>
	</g>
	<g id="Layer_4_3_">
	</g>
</symbol>
<symbol  id="FlashAICB_x5F_0_x2F_Isolation_Mode_x2F__x3C_Clip_Group_0_x3E__x5F_3" viewBox="0 -4.9 4.15 4.9">
	<g id="Layer_1_4_">
	</g>
	<g>
		<defs>
			<path id="SVGID_10_" d="M1.3-0.35l-0.65-3.1c-0.033-0.433,0.233-0.733,0.8-0.9c0.533-0.167,0.966-0.117,1.3,0.15L4.15-1L1.3-0.35
				z"/>
		</defs>
		<clipPath id="SVGID_11_">
			<use xlink:href="#SVGID_10_"  style="overflow:visible;"/>
		</clipPath>
		<g id="Layer_3_2_" style="clip-path:url(#SVGID_11_);">
			<linearGradient id="SVGID_12_" gradientUnits="userSpaceOnUse" x1="1.2769" y1="-2.1694" x2="3.1269" y2="-2.8194">
				<stop  offset="0" style="stop-color:#525254"/>
				<stop  offset="0.0745" style="stop-color:#58585A"/>
				<stop  offset="0.1725" style="stop-color:#67686A"/>
				<stop  offset="0.2667" style="stop-color:#7C7E80"/>
				<stop  offset="0.3686" style="stop-color:#676769"/>
				<stop  offset="0.5255" style="stop-color:#4E4C4E"/>
				<stop  offset="0.6784" style="stop-color:#3B393B"/>
				<stop  offset="0.8392" style="stop-color:#312D2F"/>
				<stop  offset="1" style="stop-color:#2D292B"/>
			</linearGradient>
			<polygon style="fill-rule:evenodd;clip-rule:evenodd;fill:url(#SVGID_12_);" points="1.4,0 4.15,-1 2.75,-4.9 0,-3.9 			"/>
		</g>
	</g>
	<g id="Layer_4_2_">
	</g>
</symbol>
<symbol  id="FlashAICB_x5F_0_x2F_Isolation_Mode_x2F__x3C_Clip_Group_0_x3E__x5F_4" viewBox="0 -22.6 25.15 22.6">
	<g id="Layer_1_3_">
	</g>
	<g>
		<defs>
			<path id="SVGID_13_" d="M19.55-13.9c-2.2,2.667-4.6,4.533-7.2,5.6l-0.6,0.2c-2.033,0.733-4.233,1.033-6.6,0.9
				C3.95-7.267,2.967-7.4,2.2-7.6c1.6-0.233,4.767-1.383,9.5-3.45c2.267-1,4.667-2.4,7.2-4.2c1.3-0.867,2.35-1.65,3.15-2.35
				C21.483-16.467,20.65-15.233,19.55-13.9z"/>
		</defs>
		<clipPath id="SVGID_14_">
			<use xlink:href="#SVGID_13_"  style="overflow:visible;"/>
		</clipPath>
		<g id="Layer_3_1_" style="clip-path:url(#SVGID_14_);">
			<linearGradient id="SVGID_15_" gradientUnits="userSpaceOnUse" x1="8.7847" y1="-8.5415" x2="19.6097" y2="-16.3665">
				<stop  offset="0" style="stop-color:#636466"/>
				<stop  offset="0.4627" style="stop-color:#7B7C7E"/>
				<stop  offset="1" style="stop-color:#9C9DA0"/>
			</linearGradient>
			<polygon style="fill-rule:evenodd;clip-rule:evenodd;fill:url(#SVGID_15_);" points="6.7,0 25.15,-13.3 18.45,-22.6 0,-9.25 			
				"/>
		</g>
	</g>
	<g id="Layer_4_1_">
	</g>
</symbol>
<symbol  id="FlashAICB_x5F_0_x2F_Isolation_Mode_x2F__x3C_Path_x3E_" viewBox="0 -118.1 118.35 118.1">
	<g id="Layer_1_2_">
		
			<radialGradient id="SVGID_16_" cx="59.1748" cy="-59.0498" r="59.1126" gradientTransform="matrix(1 0 0 -1 0 -118.0996)" gradientUnits="userSpaceOnUse">
			<stop  offset="0" style="stop-color:#E3E4BC"/>
			<stop  offset="0.0824" style="stop-color:#E4DBB1"/>
			<stop  offset="0.2235" style="stop-color:#E8C595"/>
			<stop  offset="0.4078" style="stop-color:#EEA068"/>
			<stop  offset="0.6078" style="stop-color:#F5712E"/>
			<stop  offset="0.6745" style="stop-color:#EF6F2E;stop-opacity:0.9725"/>
			<stop  offset="0.7608" style="stop-color:#DD6A2E;stop-opacity:0.898"/>
			<stop  offset="0.8667" style="stop-color:#C0612E;stop-opacity:0.7804"/>
			<stop  offset="0.9765" style="stop-color:#99552E;stop-opacity:0.6157"/>
			<stop  offset="1" style="stop-color:#90522E;stop-opacity:0.5765"/>
		</radialGradient>
		<path style="fill-rule:evenodd;clip-rule:evenodd;fill:url(#SVGID_16_);" d="M118.35-59.05c0-16.3-5.783-30.217-17.35-41.75
			c-11.533-11.534-25.467-17.3-41.8-17.3c-16.333,0-30.284,5.767-41.85,17.3C5.783-89.267,0-75.35,0-59.05
			c0,16.3,5.783,30.216,17.35,41.75C28.917-5.767,42.867,0,59.2,0C75.533,0,89.467-5.767,101-17.3
			C112.567-28.833,118.35-42.75,118.35-59.05z"/>
	</g>
</symbol>
<symbol  id="FlashAICB_x5F_1_x2F_Isolation_Mode_x2F__x3C_Path_x3E_" viewBox="0 -61.044 109.5 61.044">
	<g id="Layer_1_9_">
		<path style="fill-rule:evenodd;clip-rule:evenodd;fill:#FFFFFF;" d="M106-34.25c2.333-5.6,3.5-10.883,3.5-15.85
			c0-4.933-1.433-8.033-4.3-9.3c-2.333-1.033-6.25-1.017-11.75,0.05c-7.233,1.733-13.034,3.067-17.4,4
			c-7.966,1.7-15.066,2.55-21.3,2.55c-6.3,0-13.4-0.917-21.3-2.75c-8.3-2.2-14.1-3.667-17.4-4.4c-5.533-1.267-9.45-1.433-11.75-0.5
			C1.433-59.283,0-56.233,0-51.3c0,5.466,1.167,11.1,3.5,16.9c2.467,6.167,5.933,11.717,10.4,16.65C24.533-5.917,38.15,0,54.75,0
			c16.4,0,30.017-5.967,40.85-17.9C100.033-22.8,103.5-28.25,106-34.25z"/>
	</g>
</symbol>
<symbol  id="FlashAICB_x5F_1_x2F_Isolation_Mode_x2F__x3C_Path_x3E__x5F_0" viewBox="0 -56.85 118.15 56.85">
	<g id="Layer_1_10_">
		
			<radialGradient id="SVGID_17_" cx="59.0752" cy="-28.4248" r="46.3564" gradientTransform="matrix(1 0 0 -1 0 -56.8496)" gradientUnits="userSpaceOnUse">
			<stop  offset="0" style="stop-color:#F9A324;stop-opacity:0"/>
			<stop  offset="0.1098" style="stop-color:#F09824;stop-opacity:0.1294"/>
			<stop  offset="0.302" style="stop-color:#D97C23;stop-opacity:0.4863"/>
			<stop  offset="0.5216" style="stop-color:#B75421"/>
		</radialGradient>
		<path style="fill-rule:evenodd;clip-rule:evenodd;fill:url(#SVGID_17_);" d="M95.1-30.2c10.667,7.633,18.183,17.617,22.55,29.95
			l0.5,0.25c-0.566-15.833-6.566-29.267-18-40.3c-11.467-11.034-25.167-16.55-41.1-16.55c-15.667,0-29.183,5.333-40.55,16
			C7.167-30.183,1-17.133,0-1.7c4.6-11.933,12.15-21.583,22.65-28.95c10.767-7.533,22.733-11.3,35.9-11.3
			C72.017-41.95,84.2-38.033,95.1-30.2z"/>
	</g>
</symbol>
<symbol  id="FlashAICB_x5F_1_x2F_Isolation_Mode_x2F__x3C_Path_x3E__x5F_1" viewBox="0 -55.55 109.5 55.55">
	<g id="Layer_1_8_">
		
			<linearGradient id="SVGID_18_" gradientUnits="userSpaceOnUse" x1="16165.4902" y1="-53.605" x2="16220.9854" y2="-53.605" gradientTransform="matrix(1.800991e-005 1 -1 -0.001 0.854 -16221.1064)">
			<stop  offset="0.1294" style="stop-color:#E5B9B2"/>
			<stop  offset="0.9255" style="stop-color:#FFFFFF"/>
		</linearGradient>
		<path style="fill-rule:evenodd;clip-rule:evenodd;fill:url(#SVGID_18_);" d="M95.6-17.9c4.433-4.9,7.9-10.35,10.4-16.35
			c2.333-5.6,3.5-10.883,3.5-15.85c0-1.7-0.15-3.167-0.45-4.4c-1.867,11-7.25,20.783-16.15,29.35C82.4-15.05,69.683-10,54.75-10
			c-15.167,0-27.933-5.05-38.3-15.15c-8.967-8.667-14.3-18.8-16-30.4C0.15-54.35,0-52.933,0-51.3c0,5.466,1.167,11.1,3.5,16.9
			c2.467,6.167,5.933,11.717,10.4,16.65C24.533-5.917,38.15,0,54.75,0C71.15,0,84.767-5.967,95.6-17.9z"/>
	</g>
</symbol>
<g>
	<path style="fill-rule:evenodd;clip-rule:evenodd;fill:#68757B;" d="M85.35,0c11.567,0,22.634,2.233,33.2,6.7
		c10.2,4.333,19.233,10.45,27.101,18.35c7.866,7.867,13.966,16.9,18.3,27.1c4.467,10.567,6.7,21.633,6.7,33.2
		s-2.233,22.633-6.7,33.2c-4.334,10.2-10.434,19.233-18.3,27.101c-7.867,7.899-16.9,14.017-27.101,18.35
		c-10.566,4.467-21.633,6.7-33.2,6.7c-11.566,0-22.633-2.233-33.2-6.7c-10.2-4.333-19.25-10.45-27.15-18.35
		c-7.867-7.867-13.967-16.9-18.3-27.101C2.233,107.983,0,96.917,0,85.35s2.233-22.633,6.7-33.2c4.333-10.2,10.433-19.233,18.3-27.1
		c7.9-7.9,16.95-14.017,27.15-18.35C62.717,2.233,73.783,0,85.35,0z"/>
	
		<linearGradient id="SVGID_19_" gradientUnits="userSpaceOnUse" x1="-171.3848" y1="85.3252" x2="-0.6851" y2="85.3252" gradientTransform="matrix(5.859089e-006 -1 1 -0.001 1.466054e-004 -4.747650e-005)">
		<stop  offset="0.0196" style="stop-color:#353746"/>
		<stop  offset="0.251" style="stop-color:#6C6E76;stop-opacity:0.6863"/>
		<stop  offset="0.4941" style="stop-color:#A1A3A3;stop-opacity:0.3922"/>
		<stop  offset="0.7098" style="stop-color:#C7C9C4;stop-opacity:0.1765"/>
		<stop  offset="0.8824" style="stop-color:#DEE1D9;stop-opacity:0.0471"/>
		<stop  offset="0.9882" style="stop-color:#E7E9E0;stop-opacity:0"/>
	</linearGradient>
	<path style="fill-rule:evenodd;clip-rule:evenodd;fill:url(#SVGID_19_);" d="M85.35,0.6c11.567,0,22.634,2.233,33.2,6.7
		c10.2,4.333,19.233,10.45,27.101,18.35c7.866,7.867,13.966,16.9,18.3,27.1c4.467,10.566,6.7,21.633,6.7,33.2
		c0,11.566-2.233,22.633-6.7,33.2c-4.334,10.199-10.434,19.232-18.3,27.1c-7.867,7.9-16.9,14.017-27.101,18.35
		c-10.566,4.467-21.633,6.7-33.2,6.7c-11.566,0-22.633-2.233-33.2-6.7C41.95,160.267,32.9,154.15,25,146.25
		c-7.867-7.867-13.967-16.9-18.3-27.1C2.233,108.583,0,97.517,0,85.95c0-11.567,2.233-22.634,6.7-33.2
		c4.333-10.2,10.433-19.233,18.3-27.1c7.9-7.9,16.95-14.017,27.15-18.35C62.717,2.833,73.783,0.6,85.35,0.6z"/>
	<g>
		<g>
			
				<linearGradient id="SVGID_20_" gradientUnits="userSpaceOnUse" x1="-157.4854" y1="85.3262" x2="-13.3848" y2="85.3262" gradientTransform="matrix(6.939625e-006 -1 1 -0.001 1.071970e-004 4.449275e-004)">
				<stop  offset="0" style="stop-color:#BCD1DF"/>
				<stop  offset="0.0235" style="stop-color:#BBCEDC;stop-opacity:0.9647"/>
				<stop  offset="0.2784" style="stop-color:#ABB0BF;stop-opacity:0.6353"/>
				<stop  offset="0.502" style="stop-color:#A19DAE;stop-opacity:0.4314"/>
				<stop  offset="0.6549" style="stop-color:#9E96A8;stop-opacity:0.3569"/>
				<stop  offset="1" style="stop-color:#403C5C"/>
			</linearGradient>
			<path style="fill-rule:evenodd;clip-rule:evenodd;fill:url(#SVGID_20_);" d="M85.35,13.3c19.9,0,36.884,7.034,50.95,21.1
				c6.634,6.633,11.783,14.267,15.45,22.9c3.767,8.934,5.65,18.284,5.65,28.05c0,9.766-1.884,19.117-5.65,28.05
				c-3.667,8.633-8.816,16.267-15.45,22.899c-6.633,6.634-14.267,11.783-22.899,15.45c-8.934,3.767-18.284,5.65-28.051,5.65
				c-9.766,0-19.116-1.884-28.05-5.65c-8.633-3.667-16.267-8.816-22.9-15.45c-6.667-6.633-11.833-14.267-15.5-22.899
				c-3.767-8.934-5.65-18.284-5.65-28.05c0-9.767,1.883-19.117,5.65-28.05c3.667-8.633,8.833-16.267,15.5-22.9
				c6.633-6.633,14.267-11.783,22.9-15.45C66.233,15.184,75.583,13.3,85.35,13.3z"/>
		</g>
	</g>
	<g>
		
			<linearGradient id="SVGID_21_" gradientUnits="userSpaceOnUse" x1="-151.2354" y1="85.3262" x2="-19.4849" y2="85.3262" gradientTransform="matrix(7.590133e-006 -1 1 -0.001 9.770805e-006 4.449275e-004)">
			<stop  offset="0.0745" style="stop-color:#8C5130"/>
			<stop  offset="0.1922" style="stop-color:#A56741"/>
			<stop  offset="0.4431" style="stop-color:#E59F6C"/>
			<stop  offset="0.4784" style="stop-color:#EFA773"/>
			<stop  offset="0.5961" style="stop-color:#EEAB77"/>
			<stop  offset="0.7176" style="stop-color:#ECB684"/>
			<stop  offset="0.8431" style="stop-color:#E8C799"/>
			<stop  offset="0.9725" style="stop-color:#E3DFB6"/>
			<stop  offset="1" style="stop-color:#E2E5BD"/>
		</linearGradient>
		<path style="fill-rule:evenodd;clip-rule:evenodd;fill:url(#SVGID_21_);" d="M85.35,19.4c18.167,0,33.684,6.434,46.551,19.3
			c12.866,12.9,19.3,28.433,19.3,46.6c0,18.167-6.434,33.684-19.3,46.55c-12.867,12.867-28.384,19.301-46.551,19.301
			c-18.166,0-33.7-6.434-46.6-19.301c-12.867-12.866-19.3-28.383-19.3-46.55c0-18.167,6.433-33.7,19.3-46.6
			C51.65,25.833,67.184,19.4,85.35,19.4z"/>
		<path style="fill-rule:evenodd;clip-rule:evenodd;fill:#421804;" d="M85.35,18.6c8.9,0,17.417,1.683,25.551,5.05
			c8.1,3.333,15.3,8.15,21.6,14.45c6.3,6.3,11.133,13.517,14.5,21.65c3.366,8.1,5.05,16.617,5.05,25.55
			c0,8.9-1.684,17.417-5.05,25.55c-3.367,8.101-8.2,15.301-14.5,21.601s-13.5,11.133-21.6,14.5c-8.134,3.366-16.65,5.05-25.551,5.05
			c-8.933,0-17.45-1.684-25.55-5.05c-8.133-3.367-15.35-8.2-21.65-14.5c-6.3-6.3-11.117-13.5-14.45-21.601
			c-3.367-8.133-5.05-16.649-5.05-25.55c0-8.933,1.684-17.45,5.05-25.55c3.333-8.133,8.15-15.35,14.45-21.65
			c6.3-6.3,13.517-11.117,21.65-14.45C67.9,20.283,76.417,18.6,85.35,18.6z M85.35,20.25c-17.966,0-33.316,6.35-46.05,19.05
			C26.6,52,20.25,67.333,20.25,85.3c0,17.967,6.35,33.3,19.05,46c12.733,12.7,28.083,19.05,46.05,19.05
			c17.967,0,33.301-6.35,46-19.05c12.7-12.7,19.051-28.033,19.051-46c0-17.966-6.351-33.3-19.051-46
			C118.65,26.6,103.316,20.25,85.35,20.25z"/>
	</g>
</g>
<use xlink:href="#FlashAICB_x5F_0_x2F_Isolation_Mode_x2F__x3C_Path_x3E_"  width="118.35" height="118.1" y="-118.1" transform="matrix(1 0 0 -1 26.4502 25.8501)" style="overflow:visible;opacity:0.3789;enable-background:new    ;"/>
<g>
	<g>
		<path style="fill-rule:evenodd;clip-rule:evenodd;fill:#F6D3A4;" d="M64.5,39.65c-0.733,0-1.3-0.233-1.7-0.7
			c-0.367-0.434-0.55-0.967-0.55-1.6c0-0.6,0.2-1.117,0.6-1.55c0.4-0.466,0.95-0.7,1.65-0.7h4.7c0.7,0,1.25,0.216,1.65,0.65
			c0.367,0.434,0.55,1,0.55,1.7V56.3c0,0.8-0.233,1.434-0.7,1.9c-0.467,0.433-1.067,0.65-1.8,0.65s-1.316-0.217-1.75-0.65
			c-0.467-0.467-0.7-1.1-0.7-1.9V39.65H64.5z"/>
		<path style="fill-rule:evenodd;clip-rule:evenodd;fill:#F6D3A4;" d="M77.65,36.4c1.5-1.133,3.167-1.7,5-1.7
			c2.2,0,3.966,0.683,5.3,2.05c1.166,1.167,1.75,2.5,1.75,4c0,2.233-0.917,3.917-2.75,5.05c1.233,0.567,2.217,1.367,2.95,2.4
			c0.732,1.1,1.1,2.283,1.1,3.55c0,2-0.8,3.717-2.4,5.15c-1.633,1.434-3.616,2.15-5.95,2.15c-2.3,0-4.233-0.7-5.8-2.1
			c-1.434-1.3-2.15-2.667-2.15-4.1c0-0.633,0.283-1.167,0.85-1.6c0.534-0.434,1.1-0.65,1.7-0.65c0.633,0,1.367,0.65,2.2,1.95
			c0.833,1.3,1.933,1.95,3.3,1.95c0.867,0,1.6-0.3,2.2-0.9c0.6-0.6,0.899-1.333,0.899-2.2c0-1.6-0.933-2.533-2.8-2.8
			c-1.9-0.3-2.85-1.067-2.85-2.3c0-1.167,0.783-1.95,2.35-2.35c1.567-0.4,2.35-1.217,2.35-2.45c0-0.667-0.2-1.2-0.6-1.6
			c-0.433-0.433-1.017-0.65-1.75-0.65c-1.133,0-2.083,0.55-2.85,1.65c-0.767,1.067-1.483,1.6-2.15,1.6c-0.633,0-1.167-0.25-1.6-0.75
			c-0.367-0.467-0.55-1.033-0.55-1.7C75.4,38.75,76.15,37.533,77.65,36.4z"/>
		<path style="fill-rule:evenodd;clip-rule:evenodd;fill:#F6D3A4;" d="M109.45,35.95c0.366,0.466,0.55,0.966,0.55,1.5
			c0,0.466-0.25,1.2-0.75,2.2L101,56.35c-0.5,1-0.884,1.65-1.15,1.95c-0.366,0.367-0.899,0.55-1.6,0.55
			c-0.867,0-1.55-0.267-2.05-0.8c-0.467-0.466-0.7-0.983-0.7-1.55c0-0.3,0.1-0.684,0.3-1.15l8.3-15.7h-8.5
			c-0.8,0-1.433-0.233-1.899-0.7c-0.367-0.434-0.55-0.967-0.55-1.6s0.183-1.15,0.55-1.55c0.433-0.466,1.066-0.7,1.899-0.7h12
			C108.366,35.1,108.983,35.383,109.45,35.95z"/>
	</g>
	<g>
		
			<linearGradient id="SVGID_22_" gradientUnits="userSpaceOnUse" x1="-57.9541" y1="66.8271" x2="-34.1997" y2="66.8271" gradientTransform="matrix(4.206099e-005 -1 1 -0.001 1.681365e-004 4.449275e-004)">
			<stop  offset="0.3882" style="stop-color:#541100"/>
			<stop  offset="0.4039" style="stop-color:#571300"/>
			<stop  offset="0.8078" style="stop-color:#973D00"/>
			<stop  offset="1" style="stop-color:#B14E00"/>
		</linearGradient>
		<path style="fill-rule:evenodd;clip-rule:evenodd;fill:url(#SVGID_22_);" d="M64.5,38.65c-0.733,0-1.3-0.233-1.7-0.7
			c-0.367-0.434-0.55-0.967-0.55-1.6c0-0.6,0.2-1.117,0.6-1.55c0.4-0.466,0.95-0.7,1.65-0.7h4.7c0.7,0,1.25,0.216,1.65,0.65
			c0.367,0.434,0.55,1,0.55,1.7V55.3c0,0.8-0.233,1.434-0.7,1.9c-0.467,0.433-1.067,0.65-1.8,0.65s-1.316-0.217-1.75-0.65
			c-0.467-0.467-0.7-1.1-0.7-1.9V38.65H64.5z"/>
		
			<linearGradient id="SVGID_23_" gradientUnits="userSpaceOnUse" x1="-58.1704" y1="82.853" x2="-33.7954" y2="82.853" gradientTransform="matrix(4.102564e-005 -1 1 -0.001 7.536012e-005 4.449275e-004)">
			<stop  offset="0.3882" style="stop-color:#541100"/>
			<stop  offset="0.4039" style="stop-color:#571300"/>
			<stop  offset="0.8078" style="stop-color:#973D00"/>
			<stop  offset="1" style="stop-color:#B14E00"/>
		</linearGradient>
		<path style="fill-rule:evenodd;clip-rule:evenodd;fill:url(#SVGID_23_);" d="M77.65,35.4c1.5-1.133,3.167-1.7,5-1.7
			c2.2,0,3.966,0.683,5.3,2.05c1.166,1.167,1.75,2.5,1.75,4c0,2.233-0.917,3.917-2.75,5.05c1.233,0.567,2.217,1.367,2.95,2.4
			c0.732,1.1,1.1,2.283,1.1,3.55c0,2-0.8,3.717-2.4,5.15c-1.633,1.434-3.616,2.15-5.95,2.15c-2.3,0-4.233-0.7-5.8-2.1
			c-1.434-1.3-2.15-2.667-2.15-4.1c0-0.633,0.283-1.167,0.85-1.6c0.534-0.434,1.1-0.65,1.7-0.65c0.633,0,1.367,0.65,2.2,1.95
			c0.833,1.3,1.933,1.95,3.3,1.95c0.867,0,1.6-0.3,2.2-0.9c0.6-0.6,0.899-1.333,0.899-2.2c0-1.6-0.933-2.533-2.8-2.8
			c-1.9-0.3-2.85-1.067-2.85-2.3c0-1.167,0.783-1.95,2.35-2.35c1.567-0.4,2.35-1.217,2.35-2.45c0-0.667-0.2-1.2-0.6-1.6
			c-0.433-0.433-1.017-0.65-1.75-0.65c-1.133,0-2.083,0.55-2.85,1.65c-0.767,1.067-1.483,1.6-2.15,1.6c-0.633,0-1.167-0.25-1.6-0.75
			c-0.367-0.467-0.55-1.033-0.55-1.7C75.4,37.75,76.15,36.533,77.65,35.4z"/>
		
			<linearGradient id="SVGID_24_" gradientUnits="userSpaceOnUse" x1="-57.9893" y1="101.5771" x2="-34.2368" y2="101.5771" gradientTransform="matrix(4.206099e-005 -1 1 -0.001 1.681365e-004 4.449275e-004)">
			<stop  offset="0.3882" style="stop-color:#541100"/>
			<stop  offset="0.4039" style="stop-color:#571300"/>
			<stop  offset="0.8078" style="stop-color:#973D00"/>
			<stop  offset="1" style="stop-color:#B14E00"/>
		</linearGradient>
		<path style="fill-rule:evenodd;clip-rule:evenodd;fill:url(#SVGID_24_);" d="M109.45,34.95c0.366,0.466,0.55,0.966,0.55,1.5
			c0,0.466-0.25,1.2-0.75,2.2L101,55.35c-0.5,1-0.884,1.65-1.15,1.95c-0.366,0.367-0.899,0.55-1.6,0.55
			c-0.833,0-1.517-0.267-2.05-0.8c-0.467-0.466-0.7-0.983-0.7-1.55c0-0.3,0.1-0.684,0.3-1.15l8.3-15.7h-8.5
			c-0.8,0-1.433-0.233-1.899-0.7c-0.367-0.434-0.55-0.967-0.55-1.6s0.183-1.15,0.55-1.55c0.433-0.466,1.066-0.7,1.899-0.7h12
			C108.366,34.1,108.983,34.383,109.45,34.95z"/>
	</g>
</g>
<g>
	<g>
		<g>
			<g>
				<g>
					<g>
						<g>
							<g>
								
									<linearGradient id="SVGID_25_" gradientUnits="userSpaceOnUse" x1="-85.689" y1="34.1016" x2="-52.7725" y2="34.1016" gradientTransform="matrix(-0.1854 -0.9827 0.9827 -0.1854 2.951920e-005 8.419752e-004)">
									<stop  offset="0.1098" style="stop-color:#B0410E"/>
									<stop  offset="0.2549" style="stop-color:#B14511"/>
									<stop  offset="0.3961" style="stop-color:#B7501C"/>
									<stop  offset="0.5373" style="stop-color:#BF642E"/>
									<stop  offset="0.6784" style="stop-color:#CB8047"/>
									<stop  offset="0.8196" style="stop-color:#DAA368"/>
									<stop  offset="0.9529" style="stop-color:#EDCE8F"/>
									<stop  offset="1" style="stop-color:#F4DE9E"/>
								</linearGradient>
								<path style="fill-rule:evenodd;clip-rule:evenodd;fill:url(#SVGID_25_);" d="M57.65,44.45l0.05,0.05
									c1.1,1.233,1.4,2.9,0.9,5c-0.267,1.167-0.75,2.35-1.45,3.55c-1.633,2.934-3.467,4.9-5.5,5.9L51.1,59.2
									c-0.034,0.167-0.2,0.783-0.5,1.85c-1,3.167-2.417,5.467-4.25,6.9l-0.2,0.15c0.1,0.9,0.117,1.633,0.05,2.2
									c0,3.267-0.7,5.867-2.1,7.8l-0.35,0.45l-0.2,0.15c-0.167,0.167-0.466,0.316-0.9,0.45c-0.4,0.1-0.8,0.1-1.2,0
									c-0.9-0.2-1.717-0.683-2.45-1.45l-0.6,0.4c-0.033,0.033-0.217,0.133-0.55,0.3l-0.2,0.05c-0.767,0.2-1.483,0.066-2.15-0.4
									c-1.233-0.933-1.917-2.35-2.05-4.25c-0.067-1.466,0.15-2.933,0.65-4.4c0.767-2,1.933-3.65,3.5-4.95
									c-0.5-1.2-0.517-2.617-0.05-4.25c0.367-1.267,0.934-2.434,1.7-3.5c1.233-1.534,2.7-2.717,4.4-3.55
									c-0.033-1.2,0.317-2.466,1.05-3.8c0.566-1.034,1.283-1.95,2.15-2.75c1.233-1.1,2.667-1.917,4.3-2.45
									c1.567-0.5,3.067-0.667,4.5-0.5C56.45,43.583,57.117,43.85,57.65,44.45z"/>
								<path style="fill-rule:evenodd;clip-rule:evenodd;fill:none;stroke:#F6D3A4;stroke-width:0.25;" d="M57.65,44.45
									c-0.533-0.6-1.2-0.867-2-0.8c-1.433-0.167-2.933,0-4.5,0.5c-1.633,0.534-3.066,1.35-4.3,2.45
									c-0.867,0.8-1.583,1.716-2.15,2.75c-0.733,1.333-1.083,2.6-1.05,3.8c-1.7,0.833-3.167,2.017-4.4,3.55
									c-0.767,1.066-1.333,2.233-1.7,3.5c-0.466,1.633-0.45,3.05,0.05,4.25c-1.567,1.3-2.733,2.95-3.5,4.95
									c-0.5,1.467-0.717,2.934-0.65,4.4c0.133,1.9,0.816,3.317,2.05,4.25c0.667,0.467,1.383,0.6,2.15,0.4l0.2-0.05
									c0.333-0.167,0.517-0.267,0.55-0.3l0.6-0.4c0.733,0.767,1.55,1.25,2.45,1.45c0.4,0.1,0.8,0.1,1.2,0
									c0.434-0.133,0.733-0.283,0.9-0.45l0.2-0.15l0.35-0.45c1.4-1.934,2.1-4.534,2.1-7.8c0.066-0.566,0.05-1.3-0.05-2.2l0.2-0.15
									c1.833-1.434,3.25-3.733,4.25-6.9c0.3-1.066,0.466-1.683,0.5-1.85l0.55-0.25c2.033-1,3.867-2.967,5.5-5.9
									c0.7-1.2,1.184-2.383,1.45-3.55c0.5-2.1,0.2-3.767-0.9-5L57.65,44.45z"/>
							</g>
						</g>
						<path style="fill-rule:evenodd;clip-rule:evenodd;fill:#441903;" d="M55.65,45.4c0.333-0.1,0.583-0.017,0.75,0.25
							c0.667,0.733,0.85,1.817,0.55,3.25c-0.2,1.067-0.617,2.15-1.25,3.25c-1.467,2.633-3.067,4.4-4.8,5.3l-0.2,0.05l-0.05,0.05
							H50.6c-0.233,0.067-0.45,0-0.65-0.2L49.6,57c0,1.1-0.2,2.25-0.6,3.45c-1.033,2.966-2.267,5.017-3.7,6.15L45,66.75l-0.05,0.05
							c-0.167,0.034-0.367,0-0.6-0.1l-0.3-0.25c0.367,1.133,0.517,2.383,0.45,3.75c-0.1,3.1-0.7,5.417-1.8,6.95l-0.2,0.2l-0.3,0.15
							h-0.35c-1.034-0.267-1.883-1.083-2.55-2.45c-0.566,0.7-1.167,1.233-1.8,1.6l-0.2,0.1h-0.05L37.2,76.8
							c-0.233,0.067-0.45,0.017-0.65-0.15c-0.867-0.667-1.316-1.75-1.35-3.25c-0.034-1.133,0.133-2.283,0.5-3.45
							c0.918-2.396,2.418-4.146,4.5-5.25h-0.1c-0.233,0-0.417-0.1-0.55-0.3c-0.667-0.9-0.8-2.083-0.4-3.55
							c0.3-1.133,0.8-2.184,1.5-3.15c1.4-1.767,3.083-2.934,5.05-3.5l-0.05-0.05c-0.467-1-0.367-2.183,0.3-3.55
							c0.533-1.034,1.233-1.95,2.1-2.75c1.067-0.934,2.3-1.633,3.7-2.1c1.367-0.434,2.65-0.55,3.85-0.35H55.65z"/>
						<g>
							<g>
								<g>
									<g>
										<g>
											<g>
												<g>
													
														<linearGradient id="SVGID_26_" gradientUnits="userSpaceOnUse" x1="-11.6343" y1="71.7383" x2="0.0352" y2="71.7383" gradientTransform="matrix(0.64 -0.7684 0.7684 0.64 -3.862977e-004 -3.982186e-004)">
														<stop  offset="0" style="stop-color:#F4C44F"/>
														<stop  offset="0.498" style="stop-color:#F0AB38"/>
														<stop  offset="0.8039" style="stop-color:#ED9928"/>
													</linearGradient>
													<path style="fill-rule:evenodd;clip-rule:evenodd;fill:url(#SVGID_26_);" d="M55.5,46.2
														c0.267,0.733,0.033,1.616-0.7,2.65c-0.6,0.8-1.35,1.517-2.25,2.15c-2.233,1.767-4.267,2.717-6.1,2.85
														c0.2-0.3,0.716-0.917,1.55-1.85c0.867-1,1.467-1.75,1.8-2.25C51.433,47.617,53.333,46.434,55.5,46.2z"/>
													<path style="fill-rule:evenodd;clip-rule:evenodd;fill:#F7E0C4;" d="M46.35,53.8c-0.333-0.767-0.233-1.716,0.3-2.85
														c0.467-0.934,1.1-1.784,1.9-2.55c1-0.867,2.117-1.5,3.35-1.9c1.3-0.434,2.5-0.55,3.6-0.35
														c-0.867,0.1-1.733,0.5-2.6,1.2c-0.5,0.367-1.217,1.05-2.15,2.05C49.117,51.333,47.65,52.8,46.35,53.8z"/>
												</g>
												<g>
													
														<linearGradient id="SVGID_27_" gradientUnits="userSpaceOnUse" x1="-40.0171" y1="66.1772" x2="-28.334" y2="66.1772" gradientTransform="matrix(0.2846 -0.9586 0.9586 0.2846 -4.415214e-004 -2.377629e-004)">
														<stop  offset="0" style="stop-color:#F4C44F"/>
														<stop  offset="0.498" style="stop-color:#F0AB38"/>
														<stop  offset="0.8039" style="stop-color:#ED9928"/>
													</linearGradient>
													<path style="fill-rule:evenodd;clip-rule:evenodd;fill:url(#SVGID_27_);" d="M55.85,46.15
														c0.5,0.567,0.617,1.483,0.35,2.75c-0.2,0.967-0.583,1.917-1.15,2.85c-1.4,2.533-2.9,4.2-4.5,5
														c0.067-0.333,0.284-1.1,0.65-2.3c0.4-1.233,0.667-2.167,0.8-2.8C52.6,49.15,53.883,47.316,55.85,46.15z"/>
													<path style="fill-rule:evenodd;clip-rule:evenodd;fill:#F7E0C4;" d="M50.45,56.8c-0.634-0.566-0.917-1.466-0.85-2.7
														c0.033-1.1,0.283-2.15,0.75-3.15c0.566-1.2,1.333-2.233,2.3-3.1c1.033-0.9,2.1-1.467,3.2-1.7
														c-0.767,0.434-1.417,1.133-1.95,2.1c-0.267,0.467-0.65,1.367-1.15,2.7C52.05,53.35,51.283,55.3,50.45,56.8z"/>
												</g>
											</g>
										</g>
									</g>
								</g>
							</g>
							<g>
								<g>
									<g>
										<g>
											<g>
												<g>
													
														<linearGradient id="SVGID_28_" gradientUnits="userSpaceOnUse" x1="-36.8115" y1="67.5229" x2="-25.1315" y2="67.5229" gradientTransform="matrix(0.4795 -0.8776 0.8776 0.4795 -1.538992e-004 -4.070401e-004)">
														<stop  offset="0" style="stop-color:#F4C44F"/>
														<stop  offset="0.498" style="stop-color:#F0AB38"/>
														<stop  offset="0.8039" style="stop-color:#ED9928"/>
													</linearGradient>
													<path style="fill-rule:evenodd;clip-rule:evenodd;fill:url(#SVGID_28_);" d="M47.65,54.65
														c0.367,0.667,0.3,1.583-0.2,2.75c-0.434,0.9-1.017,1.75-1.75,2.55c-1.934,2.2-3.75,3.517-5.45,3.95
														c0.133-0.333,0.5-1.033,1.1-2.1c0.667-1.167,1.117-2.017,1.35-2.55C43.9,56.85,45.55,55.316,47.65,54.65z"/>
													<path style="fill-rule:evenodd;clip-rule:evenodd;fill:#F7E0C4;" d="M40.15,63.9c-0.5-0.667-0.583-1.6-0.25-2.8
														c0.233-1,0.684-1.983,1.35-2.95c0.833-1.033,1.816-1.867,2.95-2.5c1.167-0.667,2.316-1.017,3.45-1.05
														c-0.833,0.3-1.617,0.867-2.35,1.7c-0.4,0.434-0.966,1.233-1.7,2.4C42.4,60.9,41.25,62.633,40.15,63.9z"/>
												</g>
												<g>
													
														<linearGradient id="SVGID_29_" gradientUnits="userSpaceOnUse" x1="-61.4858" y1="52.3975" x2="-49.8089" y2="52.3975" gradientTransform="matrix(0.0942 -0.9956 0.9956 0.0942 8.554757e-005 3.532916e-004)">
														<stop  offset="0" style="stop-color:#F4C44F"/>
														<stop  offset="0.498" style="stop-color:#F0AB38"/>
														<stop  offset="0.8039" style="stop-color:#ED9928"/>
													</linearGradient>
													<path style="fill-rule:evenodd;clip-rule:evenodd;fill:url(#SVGID_29_);" d="M47.95,54.55
														c0.633,0.467,0.933,1.333,0.9,2.6c-0.034,1.034-0.233,2.05-0.6,3.05c-0.867,2.767-2.017,4.7-3.45,5.8
														c0.3-2.333,0.45-4.1,0.45-5.3C45.417,58.033,46.316,55.983,47.95,54.55z"/>
													<path style="fill-rule:evenodd;clip-rule:evenodd;fill:#F7E0C4;" d="M44.75,66.05c-0.733-0.433-1.2-1.267-1.4-2.5
														c-0.167-1.066-0.117-2.15,0.15-3.25c0.333-1.267,0.9-2.417,1.7-3.45c0.8-1.067,1.716-1.833,2.75-2.3
														c-0.667,0.6-1.167,1.417-1.5,2.45c-0.2,0.6-0.4,1.566-0.6,2.9C45.617,62.467,45.25,64.517,44.75,66.05z"/>
												</g>
											</g>
										</g>
									</g>
								</g>
							</g>
							<g>
								<g>
									<g>
										<g>
											<g>
												<g>
													
														<linearGradient id="SVGID_30_" gradientUnits="userSpaceOnUse" x1="-66.6763" y1="53.6514" x2="-54.9922" y2="53.6514" gradientTransform="matrix(0.2076 -0.9782 0.9782 0.2076 -3.536344e-004 -1.148582e-004)">
														<stop  offset="0" style="stop-color:#F4C44F"/>
														<stop  offset="0.498" style="stop-color:#F0AB38"/>
														<stop  offset="0.8039" style="stop-color:#ED9928"/>
													</linearGradient>
													<path style="fill-rule:evenodd;clip-rule:evenodd;fill:url(#SVGID_30_);" d="M41.2,70.65
														c-1.233,2.667-2.6,4.45-4.1,5.35c0.033-0.333,0.2-1.117,0.5-2.35c0.3-1.267,0.483-2.216,0.55-2.85
														c0.434-2.6,1.567-4.533,3.4-5.8c0.567,0.533,0.767,1.434,0.6,2.7C41.983,68.7,41.667,69.684,41.2,70.65z"/>
													<path style="fill-rule:evenodd;clip-rule:evenodd;fill:#F7E0C4;" d="M38.85,70.05c-0.534,2.467-1.15,4.467-1.85,6
														c-0.667-0.5-1.017-1.383-1.05-2.65c-0.034-1.066,0.133-2.133,0.5-3.2c0.466-1.2,1.15-2.284,2.05-3.25
														c0.933-0.967,1.933-1.617,3-1.95c-0.7,0.5-1.283,1.25-1.75,2.25C39.483,67.85,39.183,68.783,38.85,70.05z"/>
												</g>
												<g>
													
														<linearGradient id="SVGID_31_" gradientUnits="userSpaceOnUse" x1="-83.4756" y1="27.7373" x2="-71.7969" y2="27.7373" gradientTransform="matrix(-0.1969 -0.9804 0.9804 -0.1969 3.483891e-005 8.759499e-004)">
														<stop  offset="0" style="stop-color:#F4C44F"/>
														<stop  offset="0.498" style="stop-color:#F0AB38"/>
														<stop  offset="0.8039" style="stop-color:#ED9928"/>
													</linearGradient>
													<path style="fill-rule:evenodd;clip-rule:evenodd;fill:url(#SVGID_31_);" d="M43.75,70.15
														c-0.067,2.833-0.617,5.017-1.65,6.55c-0.1-0.333-0.267-1.117-0.5-2.35c-0.233-1.3-0.434-2.25-0.6-2.85
														c-0.633-2.6-0.35-4.816,0.85-6.65c0.7,0.233,1.216,0.966,1.55,2.2C43.667,68.017,43.783,69.05,43.75,70.15z"/>
													<path style="fill-rule:evenodd;clip-rule:evenodd;fill:#F7E0C4;" d="M41.35,70.55c0.5,2.567,0.733,4.634,0.7,6.2
														c-0.833-0.2-1.517-0.867-2.05-2c-0.434-0.934-0.7-1.967-0.8-3.1c-0.034-1.333,0.167-2.6,0.6-3.8
														c0.467-1.267,1.133-2.284,2-3.05c-0.466,0.767-0.716,1.7-0.75,2.8C41.05,68.233,41.15,69.217,41.35,70.55z"/>
												</g>
											</g>
										</g>
									</g>
								</g>
							</g>
						</g>
					</g>
				</g>
			</g>
		</g>
	</g>
	<g>
		<g>
			<g>
				<g>
					<g>
						<g>
							<g>
								<linearGradient id="SVGID_32_" gradientUnits="userSpaceOnUse" x1="130.7266" y1="46.062" x2="120.2516" y2="77.262">
									<stop  offset="0.1098" style="stop-color:#B0410E"/>
									<stop  offset="0.2549" style="stop-color:#B14511"/>
									<stop  offset="0.3961" style="stop-color:#B7501C"/>
									<stop  offset="0.5373" style="stop-color:#BF642E"/>
									<stop  offset="0.6784" style="stop-color:#CB8047"/>
									<stop  offset="0.8196" style="stop-color:#DAA368"/>
									<stop  offset="0.9529" style="stop-color:#EDCE8F"/>
									<stop  offset="1" style="stop-color:#F4DE9E"/>
								</linearGradient>
								<path style="fill-rule:evenodd;clip-rule:evenodd;fill:url(#SVGID_32_);" d="M114.3,44.5l0.05-0.05
									c0.533-0.567,1.2-0.833,2-0.8c1.434-0.167,2.934,0,4.5,0.5c1.634,0.534,3.067,1.35,4.301,2.45
									c0.866,0.8,1.583,1.716,2.149,2.75c0.733,1.333,1.066,2.6,1,3.8c1.733,0.8,3.217,1.983,4.45,3.55
									c0.767,1.1,1.333,2.267,1.7,3.5c0.467,1.633,0.45,3.05-0.05,4.25c1.566,1.3,2.732,2.95,3.5,4.95
									c0.5,1.467,0.699,2.934,0.6,4.4c-0.134,1.9-0.816,3.317-2.05,4.25c-0.634,0.467-1.334,0.6-2.101,0.4l-0.199-0.05
									c-0.334-0.167-0.518-0.267-0.551-0.3l-0.6-0.4c-0.7,0.767-1.517,1.25-2.45,1.45c-0.399,0.1-0.8,0.1-1.2,0
									c-0.433-0.133-0.733-0.283-0.899-0.45l-0.2-0.15l-0.4-0.45c-1.366-1.934-2.05-4.534-2.05-7.8
									c-0.066-0.566-0.05-1.3,0.05-2.2l-0.199-0.15c-1.801-1.4-3.217-3.7-4.25-6.9c-0.2-0.466-0.367-1.083-0.5-1.85l-0.15-0.05
									l-0.45-0.2c-2.033-1-3.866-2.967-5.5-5.9c-0.7-1.2-1.184-2.383-1.45-3.55C112.85,47.4,113.167,45.733,114.3,44.5z"/>
								<path style="fill-rule:evenodd;clip-rule:evenodd;fill:none;stroke:#F6D3A4;stroke-width:0.25;" d="M114.3,44.5l0.05-0.05
									c0.533-0.567,1.2-0.833,2-0.8c1.434-0.167,2.934,0,4.5,0.5c1.634,0.534,3.067,1.35,4.301,2.45
									c0.866,0.8,1.583,1.716,2.149,2.75c0.733,1.333,1.066,2.6,1,3.8c1.733,0.8,3.217,1.983,4.45,3.55
									c0.767,1.1,1.333,2.267,1.7,3.5c0.467,1.633,0.45,3.05-0.05,4.25c1.566,1.3,2.732,2.95,3.5,4.95
									c0.5,1.467,0.699,2.934,0.6,4.4c-0.134,1.9-0.816,3.317-2.05,4.25c-0.634,0.467-1.334,0.6-2.101,0.4l-0.199-0.05
									c-0.334-0.167-0.518-0.267-0.551-0.3l-0.6-0.4c-0.7,0.767-1.517,1.25-2.45,1.45c-0.399,0.1-0.8,0.1-1.2,0
									c-0.433-0.133-0.733-0.283-0.899-0.45l-0.2-0.15l-0.4-0.45c-1.366-1.934-2.05-4.534-2.05-7.8
									c-0.066-0.566-0.05-1.3,0.05-2.2l-0.199-0.15c-1.801-1.4-3.217-3.7-4.25-6.9c-0.2-0.466-0.367-1.083-0.5-1.85l-0.15-0.05
									l-0.45-0.2c-2.033-1-3.866-2.967-5.5-5.9c-0.7-1.2-1.184-2.383-1.45-3.55C112.85,47.4,113.167,45.733,114.3,44.5z"/>
							</g>
						</g>
						<path style="fill-rule:evenodd;clip-rule:evenodd;fill:#441903;" d="M116.3,52.15c-0.633-1.066-1.066-2.15-1.3-3.25
							c-0.3-1.433-0.117-2.517,0.55-3.25h0.05c0.167-0.267,0.417-0.35,0.75-0.25c1.2-0.2,2.5-0.083,3.9,0.35
							c1.4,0.467,2.633,1.167,3.7,2.1c0.866,0.8,1.566,1.716,2.1,2.75c0.667,1.367,0.767,2.55,0.3,3.55l-0.05,0.05
							c2,0.6,3.684,1.767,5.05,3.5c0.7,0.966,1.2,2.017,1.5,3.15c0.4,1.466,0.267,2.65-0.399,3.55c-0.2,0.2-0.384,0.3-0.55,0.3
							H131.8l-0.149-0.05c2.1,1.067,3.649,2.833,4.649,5.3c0.367,1.167,0.533,2.316,0.5,3.45c-0.033,1.5-0.483,2.583-1.35,3.25
							c-0.2,0.167-0.417,0.217-0.65,0.15l-0.3-0.15c-0.667-0.4-1.267-0.933-1.8-1.6c-0.667,1.367-1.517,2.184-2.55,2.45h-0.4
							l-0.25-0.15l-0.2-0.2c-1.2-1.7-1.8-4.017-1.8-6.95c-0.066-1.367,0.083-2.617,0.45-3.75l-0.3,0.25
							c-0.233,0.1-0.434,0.133-0.601,0.1l-0.2-0.1l-0.149-0.1c-1.601-1.233-2.834-3.284-3.7-6.15c-0.4-1.2-0.6-2.35-0.6-3.45
							l-0.351,0.35c-0.233,0.167-0.45,0.233-0.649,0.2h-0.051l-0.05-0.05h-0.05l-0.15-0.05
							C119.366,56.55,117.767,54.783,116.3,52.15z"/>
						<g>
							<g>
								<g>
									<g>
										<g>
											<g>
												<g>
													<linearGradient id="SVGID_33_" gradientUnits="userSpaceOnUse" x1="124.335" y1="54.8408" x2="116.8665" y2="45.8737">
														<stop  offset="0" style="stop-color:#F4C44F"/>
														<stop  offset="0.498" style="stop-color:#F0AB38"/>
														<stop  offset="0.8039" style="stop-color:#ED9928"/>
													</linearGradient>
													<path style="fill-rule:evenodd;clip-rule:evenodd;fill:url(#SVGID_33_);" d="M119.45,51
														c-0.9-0.633-1.634-1.35-2.2-2.15c-0.767-1.034-1.017-1.917-0.75-2.65c2.2,0.233,4.1,1.417,5.7,3.55
														c0.366,0.533,0.967,1.283,1.8,2.25s1.35,1.583,1.55,1.85C123.717,53.717,121.684,52.767,119.45,51z"/>
													<path style="fill-rule:evenodd;clip-rule:evenodd;fill:#F7E0C4;" d="M119.1,47.35c-0.866-0.7-1.733-1.1-2.6-1.2
														c1.1-0.2,2.3-0.083,3.6,0.35c1.233,0.4,2.351,1.033,3.351,1.9c0.8,0.767,1.433,1.617,1.899,2.55
														c0.533,1.133,0.634,2.083,0.301,2.85c-1.2-0.933-2.684-2.4-4.45-4.4C120.267,48.4,119.566,47.717,119.1,47.35z"/>
												</g>
												<g>
													
														<linearGradient id="SVGID_34_" gradientUnits="userSpaceOnUse" x1="119.9463" y1="57.1968" x2="116.6213" y2="45.9968">
														<stop  offset="0" style="stop-color:#F4C44F"/>
														<stop  offset="0.498" style="stop-color:#F0AB38"/>
														<stop  offset="0.8039" style="stop-color:#ED9928"/>
													</linearGradient>
													<path style="fill-rule:evenodd;clip-rule:evenodd;fill:url(#SVGID_34_);" d="M116.95,51.75
														c-0.567-0.967-0.95-1.917-1.15-2.85c-0.3-1.267-0.184-2.183,0.351-2.75c1.899,1.133,3.183,2.967,3.85,5.5
														c0.133,0.633,0.4,1.567,0.8,2.8c0.367,1.2,0.583,1.966,0.65,2.3C119.85,55.95,118.35,54.283,116.95,51.75z"/>
													<path style="fill-rule:evenodd;clip-rule:evenodd;fill:#F7E0C4;" d="M119.25,50.95c-0.5-1.333-0.884-2.233-1.15-2.7
														c-0.533-0.967-1.183-1.667-1.949-2.1c1.1,0.233,2.166,0.8,3.199,1.7c0.967,0.867,1.733,1.9,2.301,3.1
														c0.466,1,0.716,2.05,0.75,3.15c0.066,1.233-0.217,2.133-0.851,2.7C120.717,55.3,119.95,53.35,119.25,50.95z"/>
												</g>
											</g>
										</g>
									</g>
								</g>
							</g>
							<g>
								<g>
									<g>
										<g>
											<g>
												<g>
													
														<linearGradient id="SVGID_35_" gradientUnits="userSpaceOnUse" x1="130.3809" y1="64.6865" x2="124.7809" y2="54.4365">
														<stop  offset="0" style="stop-color:#F4C44F"/>
														<stop  offset="0.498" style="stop-color:#F0AB38"/>
														<stop  offset="0.8039" style="stop-color:#ED9928"/>
													</linearGradient>
													<path style="fill-rule:evenodd;clip-rule:evenodd;fill:url(#SVGID_35_);" d="M124.35,54.65
														c2.134,0.667,3.767,2.2,4.9,4.6c0.267,0.566,0.717,1.417,1.35,2.55c0.634,1.1,1.017,1.8,1.15,2.1
														c-1.8-0.466-3.617-1.783-5.45-3.95c-0.733-0.8-1.316-1.65-1.75-2.55C124.017,56.233,123.95,55.316,124.35,54.65z"/>
													<path style="fill-rule:evenodd;clip-rule:evenodd;fill:#F7E0C4;" d="M131.85,63.9c-1.1-1.267-2.25-3-3.449-5.2
														c-0.733-1.167-1.301-1.967-1.7-2.4c-0.733-0.833-1.517-1.4-2.351-1.7c1.134,0.033,2.283,0.383,3.45,1.05
														c1.134,0.633,2.117,1.467,2.95,2.5c0.633,0.934,1.083,1.917,1.35,2.95C132.4,62.3,132.316,63.233,131.85,63.9z"/>
												</g>
												<g>
													
														<linearGradient id="SVGID_36_" gradientUnits="userSpaceOnUse" x1="125.6094" y1="66.1509" x2="124.5094" y2="54.5259">
														<stop  offset="0" style="stop-color:#F4C44F"/>
														<stop  offset="0.498" style="stop-color:#F0AB38"/>
														<stop  offset="0.8039" style="stop-color:#ED9928"/>
													</linearGradient>
													<path style="fill-rule:evenodd;clip-rule:evenodd;fill:url(#SVGID_36_);" d="M124,54.55c1.7,1.467,2.6,3.517,2.7,6.15
														c0.033,0.633,0.116,1.6,0.25,2.9c0.166,1.233,0.25,2.033,0.25,2.4c-1.4-1.066-2.55-3-3.45-5.8
														c-0.367-1-0.566-2.017-0.6-3.05C123.116,55.883,123.4,55.017,124,54.55z"/>
													<path style="fill-rule:evenodd;clip-rule:evenodd;fill:#F7E0C4;" d="M127.25,66.05c-0.5-1.533-0.867-3.583-1.1-6.15
														c-0.268-1.466-0.467-2.433-0.601-2.9c-0.333-1.033-0.833-1.85-1.5-2.45c1.033,0.467,1.95,1.233,2.75,2.3
														c0.8,1.033,1.367,2.183,1.7,3.45c0.233,1.1,0.267,2.184,0.1,3.25C128.4,64.783,127.95,65.617,127.25,66.05z"/>
												</g>
											</g>
										</g>
									</g>
								</g>
							</g>
							<g>
								<g>
									<g>
										<g>
											<g>
												<g>
													<linearGradient id="SVGID_37_" gradientUnits="userSpaceOnUse" x1="133.374" y1="76.3599" x2="130.9482" y2="64.9309">
														<stop  offset="0" style="stop-color:#F4C44F"/>
														<stop  offset="0.498" style="stop-color:#F0AB38"/>
														<stop  offset="0.8039" style="stop-color:#ED9928"/>
													</linearGradient>
													<path style="fill-rule:evenodd;clip-rule:evenodd;fill:url(#SVGID_37_);" d="M130.45,65c1.8,1.267,2.933,3.2,3.399,5.8
														c0.134,1.167,0.483,2.9,1.051,5.2c-1.5-0.9-2.867-2.684-4.101-5.35c-0.467-0.966-0.767-1.95-0.899-2.95
														C129.7,66.434,129.883,65.533,130.45,65z"/>
													<path style="fill-rule:evenodd;clip-rule:evenodd;fill:#F7E0C4;" d="M133.15,70.05c-0.4-1.366-0.717-2.3-0.95-2.8
														c-0.434-1-1.017-1.75-1.75-2.25c1.066,0.333,2.066,0.983,3,1.95c0.933,0.933,1.633,2.017,2.1,3.25
														c0.367,1.066,0.533,2.133,0.5,3.2c-0.066,1.267-0.434,2.15-1.1,2.65C134.283,74.517,133.684,72.517,133.15,70.05z"/>
												</g>
												<g>
													<linearGradient id="SVGID_38_" gradientUnits="userSpaceOnUse" x1="128.3662" y1="76.3789" x2="130.664" y2="64.9399">
														<stop  offset="0" style="stop-color:#F4C44F"/>
														<stop  offset="0.498" style="stop-color:#F0AB38"/>
														<stop  offset="0.8039" style="stop-color:#ED9928"/>
													</linearGradient>
													<path style="fill-rule:evenodd;clip-rule:evenodd;fill:url(#SVGID_38_);" d="M128.25,70.15
														c-0.033-1.1,0.083-2.133,0.35-3.1c0.334-1.233,0.851-1.966,1.551-2.2c1.199,1.867,1.482,4.083,0.85,6.65
														c-0.167,0.6-0.367,1.55-0.6,2.85c-0.233,1.233-0.4,2.017-0.5,2.35C128.866,75.167,128.316,72.983,128.25,70.15z"/>
													<path style="fill-rule:evenodd;clip-rule:evenodd;fill:#F7E0C4;" d="M130.65,70.55c0.166-1.466,0.25-2.45,0.25-2.95
														c0-1.1-0.233-2.034-0.7-2.8c0.833,0.767,1.5,1.784,2,3.05c0.467,1.233,0.666,2.5,0.6,3.8c-0.1,1.1-0.366,2.133-0.8,3.1
														c-0.566,1.133-1.25,1.8-2.05,2C129.917,75.184,130.15,73.117,130.65,70.55z"/>
												</g>
											</g>
										</g>
									</g>
								</g>
							</g>
						</g>
					</g>
				</g>
			</g>
		</g>
	</g>
</g>
<g>
	<path style="fill-rule:evenodd;clip-rule:evenodd;fill:#F6D3A4;" d="M81.7,66.9c1.833-1.466,3.45-2.417,4.85-2.85
		c0.033-0.033,0.2-0.083,0.5-0.15c1.4-0.267,3.483-0.117,6.25,0.45c1.101,0.066,2.417-0.034,3.95-0.3
		c5.633-0.866,10.783,0.067,15.45,2.8l0.35,0.15c2.101,0.667,4.65,2.8,7.65,6.4c1.1,1.267,2.217,3.083,3.35,5.45
		c0.667,1.367,1.15,2.316,1.45,2.85c1.4,1.433,2.15,2.316,2.25,2.65c0.066,0.066,0.217,0.3,0.45,0.7c0.467,1.3,0.75,2.267,0.85,2.9
		l0.15,0.7c0.066,0.3,0.066,0.633,0,1c-0.101,1.1-0.45,2.616-1.05,4.55c-1.067,3.267-2.617,6.483-4.65,9.649
		c-1.833,2.867-3.617,5.233-5.35,7.101c-1.034,1.1-1.9,1.883-2.601,2.35c-0.633,0.434-1.366,0.65-2.2,0.65
		c-0.467,0-1.383-0.101-2.75-0.3c0.033,0.333,0.033,0.666,0,1c0,1.399-0.3,2.816-0.899,4.25l-0.15,0.449l-1.399,3.2
		c-0.268,0.567-0.634,1.033-1.101,1.4c-0.7,0.5-1.399,0.8-2.1,0.899c-1.533,1.233-3.45,2.4-5.75,3.5
		c-2.233,1.033-4.684,1.867-7.351,2.5c-0.3,0.601-0.733,1.084-1.3,1.45c-0.8,0.467-1.717,0.7-2.75,0.7
		c-0.633,1.066-1.483,1.883-2.55,2.45c-2.267,1.233-5.583,1.217-9.95-0.05l-1.35-0.45c-3.034-1.067-7.117-3-12.25-5.8
		c-5.233-2.801-9.583-5.417-13.05-7.851c-2.667-1.866-4.617-3.6-5.85-5.2c-1.733-2.267-2.3-4.5-1.7-6.699
		c0.233-1.301,0.816-2.351,1.75-3.15c0.533-0.434,1.15-0.75,1.85-0.95c-0.333-0.899-0.333-1.75,0-2.55l0.95-2.75l0.05-0.35
		c0.233-1.134,0.933-2.117,2.1-2.95c0.967-0.733,2.517-1.533,4.65-2.4c3.933-1.566,7.833-2.633,11.7-3.2
		c2.2-0.333,3.934-0.449,5.2-0.35l0.85,0.1c0.014-3.297,1.38-8.014,4.1-14.149C76.1,72.667,78.566,69.4,81.7,66.9z"/>
	<g>
		
			<linearGradient id="SVGID_39_" gradientUnits="userSpaceOnUse" x1="-123.2856" y1="98.2402" x2="-47.9785" y2="98.2402" gradientTransform="matrix(0.1382 -0.9904 0.9904 0.1382 -2.051145e-004 -8.830428e-005)">
			<stop  offset="0.1098" style="stop-color:#B0410E"/>
			<stop  offset="0.2549" style="stop-color:#B14511"/>
			<stop  offset="0.3961" style="stop-color:#B7501C"/>
			<stop  offset="0.5373" style="stop-color:#BF642E"/>
			<stop  offset="0.6784" style="stop-color:#CB8047"/>
			<stop  offset="0.8196" style="stop-color:#DAA368"/>
			<stop  offset="0.9529" style="stop-color:#EDCE8F"/>
			<stop  offset="1" style="stop-color:#F4DE9E"/>
		</linearGradient>
		<path style="fill-rule:evenodd;clip-rule:evenodd;fill:url(#SVGID_39_);" d="M113.4,66.05c2.199,0.833,4.767,2.983,7.699,6.45
			c1.101,1.3,2.217,3.133,3.351,5.5c0.633,1.333,1.116,2.267,1.45,2.8c1,1.067,1.75,1.95,2.25,2.65l0.449,0.75
			c0.5,1.466,0.783,2.434,0.851,2.899l0.149,0.75c0.067,0.301,0.067,0.634,0,1c-0.1,1.101-0.449,2.617-1.05,4.551
			c-1.066,3.267-2.616,6.5-4.649,9.699c-1.867,2.867-3.667,5.233-5.4,7.101c-1.033,1.1-1.9,1.883-2.6,2.35
			c-0.601,0.467-1.351,0.7-2.25,0.7L111.1,113H111c0.066,0.267,0.066,0.55,0,0.85c0,1.434-0.3,2.867-0.9,4.301l-1.55,3.649
			c-0.267,0.567-0.649,1.05-1.149,1.45c-0.7,0.5-1.417,0.8-2.15,0.9c-1.5,1.199-3.4,2.35-5.7,3.449c-2.366,1.167-4.8,2-7.3,2.5
			c-0.367,0.634-0.816,1.117-1.35,1.45c-0.7,0.5-1.617,0.75-2.75,0.75c-0.634,1.067-1.483,1.884-2.551,2.45
			c-1.6,0.867-3.683,1.133-6.25,0.8c-1.167-0.167-2.434-0.45-3.8-0.85l-1.35-0.45c-3-1.066-7.083-3-12.25-5.8
			c-5.2-2.8-9.55-5.417-13.05-7.851c-2.733-1.899-4.717-3.649-5.95-5.25c-1.733-2.3-2.284-4.566-1.65-6.8
			c0.167-1.267,0.75-2.333,1.75-3.2c0.633-0.466,1.233-0.783,1.8-0.949c-0.3-0.834-0.3-1.667,0-2.5l1-2.75L45.9,98.8
			c0.233-1.133,0.934-2.133,2.1-3c0.967-0.733,2.533-1.533,4.7-2.399c3.966-1.601,7.866-2.667,11.7-3.2
			c1.767-0.267,3.517-0.4,5.25-0.4L70.4,89.9c0-3.267,1.367-7.967,4.1-14.101c1.8-4.033,4.283-7.316,7.45-9.85
			c1.667-1.3,3.283-2.25,4.85-2.85l0.5-0.15c1.066-0.167,2.417-0.134,4.05,0.1c1,0.134,1.75,0.267,2.25,0.4
			c1.033,0.033,2.351-0.067,3.95-0.3c2.233-0.367,4.617-0.4,7.15-0.1c3.066,0.467,5.85,1.434,8.35,2.9L113.4,66.05z"/>
		<path style="fill-rule:evenodd;clip-rule:evenodd;fill:none;stroke:#F6D3A4;stroke-width:0.25;" d="M113.4,66.05
			c2.199,0.833,4.767,2.983,7.699,6.45c1.101,1.3,2.217,3.133,3.351,5.5c0.633,1.333,1.116,2.267,1.45,2.8
			c1,1.067,1.75,1.95,2.25,2.65l0.449,0.75c0.5,1.466,0.783,2.434,0.851,2.899l0.149,0.75c0.067,0.301,0.067,0.634,0,1
			c-0.1,1.101-0.449,2.617-1.05,4.551c-1.066,3.267-2.616,6.5-4.649,9.699c-1.867,2.867-3.667,5.233-5.4,7.101
			c-1.033,1.1-1.9,1.883-2.6,2.35c-0.601,0.467-1.351,0.7-2.25,0.7L111.1,113H111c0.066,0.267,0.066,0.55,0,0.85
			c0,1.434-0.3,2.867-0.9,4.301l-1.55,3.649c-0.267,0.567-0.649,1.05-1.149,1.45c-0.7,0.5-1.417,0.8-2.15,0.9
			c-1.5,1.199-3.4,2.35-5.7,3.449c-2.366,1.167-4.8,2-7.3,2.5c-0.367,0.634-0.816,1.117-1.35,1.45c-0.7,0.5-1.617,0.75-2.75,0.75
			c-0.634,1.067-1.483,1.884-2.551,2.45c-1.6,0.867-3.683,1.133-6.25,0.8c-1.167-0.167-2.434-0.45-3.8-0.85l-1.35-0.45
			c-3-1.066-7.083-3-12.25-5.8c-5.2-2.8-9.55-5.417-13.05-7.851c-2.733-1.899-4.717-3.649-5.95-5.25
			c-1.733-2.3-2.284-4.566-1.65-6.8c0.167-1.267,0.75-2.333,1.75-3.2c0.633-0.466,1.233-0.783,1.8-0.949c-0.3-0.834-0.3-1.667,0-2.5
			l1-2.75L45.9,98.8c0.233-1.133,0.934-2.133,2.1-3c0.967-0.733,2.533-1.533,4.7-2.399c3.966-1.601,7.866-2.667,11.7-3.2
			c1.767-0.267,3.517-0.4,5.25-0.4L70.4,89.9c0-3.267,1.367-7.967,4.1-14.101c1.8-4.033,4.283-7.316,7.45-9.85
			c1.667-1.3,3.283-2.25,4.85-2.85l0.5-0.15c1.066-0.167,2.417-0.134,4.05,0.1c1,0.134,1.75,0.267,2.25,0.4
			c1.033,0.033,2.351-0.067,3.95-0.3c2.233-0.367,4.617-0.4,7.15-0.1c3.066,0.467,5.85,1.434,8.35,2.9L113.4,66.05z"/>
	</g>
	<path style="fill-rule:evenodd;clip-rule:evenodd;fill:#441903;" d="M111.8,68.85l0.55,0.15c1.634,0.6,3.733,2.434,6.301,5.5
		c0.966,1.167,1.949,2.783,2.949,4.85c0.733,1.533,1.334,2.667,1.801,3.4c1.466,1.533,2.199,2.383,2.199,2.55l0.101,0.1
		c0.033,0.1,0.267,0.833,0.7,2.2l0.1,0.75v0.15c0,0.733-0.3,2.033-0.9,3.9c-0.967,3.033-2.416,6.033-4.35,9
		c-1.733,2.733-3.417,4.967-5.05,6.699c-0.834,0.9-1.517,1.533-2.05,1.9l-0.4,0.1c-1.033-0.033-2.15-0.166-3.35-0.399
		c-1.134-0.101-2.284-0.267-3.45-0.5c-0.033,0.399-0.167,0.85-0.4,1.35c-0.167,0.367-0.399,0.733-0.7,1.101l1.75,1.149l0.25,0.3
		c0.067,0.167,0.084,0.334,0.051,0.5c0,1.2-0.25,2.384-0.75,3.551L107.1,117.3l-1.449,3.2c-0.067,0.133-0.134,0.217-0.2,0.25
		c-0.3,0.3-0.767,0.417-1.4,0.35c-1.467,1.268-3.417,2.5-5.85,3.7c-2.533,1.233-5.25,2.083-8.15,2.55l-0.6,1.301
		c-0.067,0.133-0.15,0.217-0.25,0.25c-0.033,0.1-0.233,0.183-0.601,0.25c-0.467,0.066-0.983,0.017-1.55-0.15l-0.149-0.05
		c-0.967-0.333-1.4-0.867-1.301-1.601l0.15-1.1c-5.434-2.367-12.65-6-21.65-10.9c-4.934-2.767-9.017-5.449-12.25-8.05l-0.1,0.25
		l-0.2,0.25c-0.466,0.333-1.05,0.417-1.75,0.25l1.5,0.9c5.667,4,11.184,7.467,16.55,10.399c4.367,2.434,9.367,4.9,15,7.4
		c1.767,0.8,2.75,1.633,2.95,2.5c0.101,0.4,0.05,0.75-0.149,1.05c-0.301,0.733-0.817,1.3-1.55,1.7c-1.5,0.8-4.067,0.7-7.7-0.3
		l-1.15-0.4c-2.867-1.033-6.833-2.917-11.9-5.649c-5.1-2.768-9.317-5.317-12.65-7.65c-2.967-2.066-4.917-3.9-5.85-5.5
		c-0.667-1.133-0.817-2.233-0.45-3.3c0-0.533,0.217-1.017,0.65-1.45c0.667-0.533,1.6-0.667,2.8-0.4
		c0.233,0.033,0.617,0.15,1.15,0.351c-0.434-0.367-0.617-0.8-0.55-1.3l0.35-1.801l-0.9-1.05c-0.133-0.166-0.167-0.366-0.1-0.6
		l1.15-3.2v-0.3c0.133-0.834,1.767-1.884,4.9-3.15c3.767-1.5,7.466-2.5,11.1-3c1.833-0.267,3.35-0.383,4.55-0.35h0.15l6.45,2.35
		c0.167-0.5,0.466-0.967,0.9-1.399c-0.9-0.767-1.717-1.517-2.45-2.25c-0.533-0.567-0.816-0.867-0.85-0.9
		c-0.1-0.1-0.15-0.217-0.15-0.35c-0.167-0.334-0.083-1.351,0.25-3.051c0.567-2.766,1.75-6.183,3.55-10.25
		c1.6-3.567,3.8-6.467,6.6-8.7c2.533-1.533,3.833-2.316,3.899-2.35h0.101c0.2-0.066,0.633-0.083,1.3-0.05
		c1.1,0.033,2.417,0.217,3.95,0.55c1.333,0.1,2.933,0,4.8-0.3C103.1,65.417,107.7,66.283,111.8,68.85z"/>
	<g>
		<path style="fill-rule:evenodd;clip-rule:evenodd;fill:#CACAD2;" d="M106.1,106.05l-1.3,3.65c-1.1,1.566-1.816,2.417-2.149,2.55
			c-0.2,0.066-1.483-0.333-3.851-1.2c-3.399-1.267-5.45-2.017-6.149-2.25c-2.067-0.7-5.067-2.35-9-4.95
			c-4.333-2.866-6.667-4.933-7-6.199c-0.4-1.4-0.117-2.517,0.85-3.351l1.55-0.8L106.1,106.05z"/>
		<path style="fill-rule:evenodd;clip-rule:evenodd;fill:#626266;" d="M105.9,110.3c-0.233,0.567-0.567,0.983-1,1.25
			c-0.434,0.3-0.851,0.367-1.25,0.2c-0.367-0.167-0.567-0.517-0.601-1.05c-0.033-0.5,0.083-1.05,0.351-1.65
			c0.267-0.566,0.616-1,1.05-1.3c0.467-0.267,0.899-0.316,1.3-0.15c0.366,0.134,0.55,0.483,0.55,1.051
			C106.333,109.15,106.2,109.7,105.9,110.3z"/>
		<path style="fill-rule:evenodd;clip-rule:evenodd;fill:#9E9EA4;" d="M113.6,70.45c1.367,1,2.884,2.483,4.551,4.45
			c0.933,1.133,1.833,2.6,2.699,4.4c0.934,1.967,1.783,3.483,2.551,4.55c0.484,0.692,0.726,1.1,0.725,1.225l0.925,0.575l0.65,2.05
			l0.149,0.75l-0.85,3.7c-0.967,3.033-2.4,6-4.3,8.899c-1.733,2.7-3.417,4.917-5.05,6.65c-0.801,0.866-1.434,1.45-1.9,1.75
			c-0.967-0.033-2.033-0.167-3.2-0.4c-2.333-0.433-3.95-1.116-4.85-2.05c-0.9-0.9-1.967-7.667-3.2-20.3L100.9,68
			c3.267-0.066,6.966,0.467,11.1,1.6L113.6,70.45z"/>
		<path style="fill-rule:evenodd;clip-rule:evenodd;fill:#EAEAF4;" d="M108.2,67.8c3.767,1.434,6.95,4.05,9.55,7.85
			c1.833,2.7,3.15,4.983,3.95,6.85c0.433,0.967,0.816,1.934,1.149,2.9c0.4,0.933-10.983-5.283-34.149-18.65
			c0.2,0,1.416,0.117,3.649,0.35c1.634,0.2,3.551,0.117,5.75-0.25C101.667,66.283,105.033,66.6,108.2,67.8z"/>
		<path style="fill-rule:evenodd;clip-rule:evenodd;fill:#EAEAF4;" d="M88.05,66.65L92.2,67c4,0.767,9.066,2.517,15.2,5.25
			c4.933,2.2,9.35,5.1,13.25,8.7c1.966,1.8,3.433,3.366,4.399,4.7l-0.7,3.4c-0.8,2.9-2.1,5.95-3.899,9.15
			c-2.567,4.533-4.8,7.7-6.7,9.5c-0.934,0.933-1.617,1.399-2.05,1.399c-1.167,0.101-2.934-0.133-5.3-0.699
			c-4.768-1.101-10.217-3.267-16.351-6.5C85.517,99.5,81.5,96.85,78,93.95l-3.85-3.65c-0.066-0.566,0.033-1.517,0.3-2.85
			c0.533-2.733,1.7-6.1,3.5-10.1c1.533-3.5,3.683-6.333,6.45-8.5L88.05,66.65z"/>
		
			<use xlink:href="#FlashAICB_x5F_0_x2F_Isolation_Mode_x2F__x3C_Clip_Group_0_x3E__x5F_4"  width="25.15" height="22.6" y="-22.6" transform="matrix(1 0 0 -1 96 60.7998)" style="overflow:visible;"/>
		<path style="fill-rule:evenodd;clip-rule:evenodd;fill:#343436;" d="M87.7,67.7l2.399-0.05c2.567,0.333,6.25,1.4,11.051,3.2
			c4.833,1.833,9.899,4.816,15.199,8.95c2.667,2.034,4.834,3.9,6.5,5.6l-6.1,10.25c-2.167,3.6-3.684,6.583-4.55,8.949
			c-0.434,1.2-0.65,2.033-0.65,2.5c-1.167,0.268-2.917,0.217-5.25-0.149c-4.6-0.7-9.75-2.566-15.45-5.601
			c-5-2.666-9.1-5.383-12.3-8.149L75.2,89.85c-0.067-0.699,0.05-1.75,0.35-3.149c0.534-2.8,1.633-5.917,3.3-9.35
			c1.566-3.2,3.517-5.767,5.85-7.7L87.7,67.7z"/>
		<path style="fill-rule:evenodd;clip-rule:evenodd;fill:#444245;" d="M89.05,67.7L92.9,68c3.732,0.733,8.449,2.367,14.149,4.9
			c4.601,2.034,8.717,4.733,12.351,8.1c1.8,1.667,3.149,3.133,4.05,4.4l-0.65,3.15c-0.767,2.7-1.983,5.533-3.649,8.5
			c-2.367,4.233-4.434,7.2-6.2,8.9c-0.9,0.866-1.55,1.3-1.95,1.3c-1.066,0.1-2.717-0.1-4.95-0.6
			c-4.399-1.033-9.45-3.051-15.149-6.051c-4.233-2.233-7.967-4.699-11.2-7.399l-3.55-3.4c-0.066-0.5,0.017-1.383,0.25-2.649
			c0.5-2.534,1.583-5.684,3.25-9.45c1.467-3.267,3.467-5.917,6-7.95L89.05,67.7z"/>
		<path style="fill-rule:evenodd;clip-rule:evenodd;fill:#444245;" d="M92.85,68.9l-7.5,14c-0.833,1.567-1.95,3.734-3.35,6.5
			c-1.033,2.033-1.717,3.133-2.05,3.3c-0.567,0.233-1.017,0.116-1.35-0.351c-0.434-0.666-0.65-1.267-0.65-1.8
			c-0.034-0.833,0.517-2.399,1.65-4.7c2.1-4.333,4.316-8.367,6.65-12.1c2.133-3.434,3.517-5.267,4.15-5.5
			c0.466-0.2,1.017-0.15,1.649,0.15C92.35,68.566,92.616,68.733,92.85,68.9z"/>
		<path style="fill-rule:evenodd;clip-rule:evenodd;fill:#343436;" d="M90.85,71.15c0.7-1.1,0.9-2.083,0.601-2.95
			c0.833,0.133,1.116,0.683,0.85,1.65L85.35,82.9c-0.833,1.567-1.95,3.734-3.35,6.5c-1.033,2.033-1.717,3.133-2.05,3.3
			c-0.567,0.233-1.083,0.066-1.55-0.5c-0.167-0.5-0.217-0.75-0.15-0.75l0.85,0.45c0.333,0.166,1.566-1.851,3.7-6.05
			C85.967,79.65,88.65,74.75,90.85,71.15z"/>
		<path style="fill-rule:evenodd;clip-rule:evenodd;fill:#444245;" d="M99.15,70.3l-8.2,15.45c-0.867,1.733-2.067,4.134-3.601,7.2
			c-1.133,2.233-1.883,3.434-2.25,3.6c-0.6,0.267-1.083,0.15-1.45-0.35c-0.467-0.767-0.717-1.434-0.75-2
			c-0.033-0.934,0.567-2.667,1.8-5.2c2.3-4.8,4.717-9.25,7.25-13.35c2.333-3.8,3.833-5.833,4.5-6.1c0.533-0.2,1.133-0.133,1.8,0.2
			C98.616,69.917,98.917,70.1,99.15,70.3z"/>
		<path style="fill-rule:evenodd;clip-rule:evenodd;fill:#343436;" d="M97.6,69.5c0.567,0.1,0.9,0.434,1,1
			c0.033,0.3,0.017,0.583-0.05,0.85l-7.6,14.4c-0.867,1.733-2.067,4.134-3.601,7.2c-1.133,2.233-1.883,3.434-2.25,3.6
			c-0.6,0.267-1.149,0.101-1.649-0.5c-0.2-0.566-0.267-0.85-0.2-0.85c0.1,0,0.417,0.166,0.95,0.5c0.366,0.2,1.717-2.033,4.05-6.7
			c3.434-6.833,6.35-12.25,8.75-16.25C97.7,71.617,97.9,70.533,97.6,69.5z"/>
		<path style="fill-rule:evenodd;clip-rule:evenodd;fill:#444245;" d="M104.6,72.3c0.367,0.167,0.667,0.35,0.9,0.55L96.95,88.9
			c-0.934,1.8-2.184,4.283-3.75,7.449c-1.167,2.334-1.95,3.584-2.351,3.75c-0.633,0.267-1.149,0.134-1.55-0.399
			c-0.5-0.767-0.75-1.45-0.75-2.05c-0.033-0.967,0.583-2.767,1.851-5.4c2.399-5,4.933-9.617,7.6-13.85c2.434-3.933,4-6.033,4.7-6.3
			C103.233,71.9,103.866,71.967,104.6,72.3z"/>
		<path style="fill-rule:evenodd;clip-rule:evenodd;fill:#343436;" d="M104.9,73.1c0.066,0.3,0.05,0.583-0.051,0.85L96.95,88.9
			c-0.934,1.8-2.184,4.283-3.75,7.449c-1.167,2.334-1.95,3.584-2.351,3.75c-0.633,0.267-1.217,0.084-1.75-0.55
			C88.9,98.983,88.833,98.7,88.9,98.7c0.1,0,0.433,0.166,1,0.5c0.366,0.2,1.767-2.117,4.199-6.95
			c3.533-7.033,6.584-12.633,9.15-16.8c0.733-1.233,0.95-2.367,0.65-3.4C104.5,72.15,104.833,72.5,104.9,73.1z"/>
		<path style="fill-rule:evenodd;clip-rule:evenodd;fill:#444245;" d="M109.05,75.4c0.533-0.2,1.167-0.133,1.9,0.2
			c0.366,0.2,0.666,0.4,0.899,0.6l-8.399,15.95c-0.9,1.8-2.117,4.267-3.65,7.399c-1.167,2.3-1.95,3.55-2.35,3.75
			c-0.634,0.267-1.134,0.134-1.5-0.399c-0.5-0.801-0.75-1.483-0.75-2.051c-0.033-0.966,0.566-2.767,1.8-5.399
			c2.366-4.934,4.85-9.517,7.45-13.75C106.85,77.767,108.383,75.667,109.05,75.4z"/>
		<path style="fill-rule:evenodd;clip-rule:evenodd;fill:#343436;" d="M111.2,77.25l-7.75,14.9c-0.9,1.8-2.117,4.267-3.65,7.399
			c-1.167,2.3-1.95,3.55-2.35,3.75c-0.634,0.267-1.217,0.084-1.75-0.55c-0.2-0.6-0.267-0.9-0.2-0.9c0.1,0,0.434,0.184,1,0.551
			c0.366,0.199,1.75-2.117,4.15-6.95c3.5-7.033,6.5-12.6,9-16.7c0.699-1.2,0.899-2.333,0.6-3.4c0.6,0.1,0.934,0.45,1,1.05
			C111.283,76.7,111.267,76.983,111.2,77.25z"/>
		<path style="fill-rule:evenodd;clip-rule:evenodd;fill:#444245;" d="M115.15,79.4c0.5-0.2,1.1-0.133,1.8,0.2
			c0.333,0.167,0.616,0.35,0.85,0.55l-8.05,14.95c-0.867,1.7-2.05,4.034-3.55,7c-1.101,2.167-1.834,3.334-2.2,3.5
			c-0.6,0.268-1.083,0.15-1.45-0.35c-0.467-0.733-0.7-1.384-0.7-1.95c-0.033-0.899,0.551-2.583,1.75-5.05
			c2.233-4.6,4.601-8.917,7.101-12.95C113,81.633,114.483,79.667,115.15,79.4z"/>
		<path style="fill-rule:evenodd;clip-rule:evenodd;fill:#343436;" d="M117.2,81.15l-7.45,13.95c-0.867,1.7-2.05,4.034-3.55,7
			c-1.101,2.167-1.834,3.334-2.2,3.5c-0.6,0.268-1.15,0.101-1.65-0.5c-0.199-0.566-0.267-0.85-0.199-0.85
			c0.1,0,0.416,0.167,0.949,0.5c0.367,0.167,1.684-2,3.95-6.5c3.367-6.6,6.233-11.833,8.601-15.7c0.699-1.167,0.899-2.233,0.6-3.2
			c0.566,0.1,0.9,0.433,1,1C117.283,80.617,117.267,80.883,117.2,81.15z"/>
		<path style="fill-rule:evenodd;clip-rule:evenodd;fill:#444245;" d="M122.5,84.5l-6.9,13.25c-0.767,1.467-1.783,3.517-3.05,6.15
			c-0.967,1.899-1.6,2.916-1.899,3.05c-0.534,0.233-0.95,0.133-1.25-0.3c-0.4-0.634-0.601-1.2-0.601-1.7
			c-0.033-0.8,0.45-2.283,1.45-4.45c1.934-4.1,3.967-7.9,6.1-11.4c2-3.266,3.283-5.016,3.851-5.25c0.433-0.167,0.95-0.1,1.55,0.2
			C122.05,84.184,122.3,84.333,122.5,84.5z"/>
		<path style="fill-rule:evenodd;clip-rule:evenodd;fill:#343436;" d="M120.7,86.65c0.6-0.967,0.767-1.9,0.5-2.8
			c0.767,0.133,1.033,0.65,0.8,1.55l-6.4,12.35c-0.767,1.467-1.783,3.517-3.05,6.15c-0.967,1.899-1.6,2.916-1.899,3.05
			c-0.534,0.233-1.018,0.083-1.45-0.45c-0.167-0.467-0.217-0.7-0.15-0.7s0.333,0.15,0.8,0.45c0.301,0.167,1.434-1.75,3.4-5.75
			C116.15,94.7,118.633,90.083,120.7,86.65z"/>
		<path style="fill-rule:evenodd;clip-rule:evenodd;fill:#424245;" d="M105.45,110.15c-0.434,0.8-0.851,1.083-1.25,0.85
			c-0.4-0.167-0.417-0.65-0.05-1.45c0.399-0.733,0.816-1.017,1.25-0.85C105.8,108.934,105.816,109.417,105.45,110.15z"/>
		<path style="fill-rule:evenodd;clip-rule:evenodd;fill:#F0F0F0;" d="M88.85,102c-7.133-3.866-10.899-6.033-11.3-6.5
			c-0.167-0.167-0.216-0.3-0.15-0.4c0.033-0.066,0.117-0.05,0.25,0.051c3.667,2.433,8.267,5.066,13.8,7.899
			c2.633,1.367,5.649,2.851,9.05,4.45c1.6,0.767,2.35,1.2,2.25,1.3C102.383,109.167,97.75,106.9,88.85,102z"/>
		
			<use xlink:href="#FlashAICB_x5F_0_x2F_Isolation_Mode_x2F__x3C_Clip_Group_0_x3E__x5F_3"  width="4.15" height="4.9" y="-4.9" transform="matrix(1 0 0 -1 48.3999 103.0498)" style="overflow:visible;"/>
		
			<use xlink:href="#FlashAICB_x5F_0_x2F_Isolation_Mode_x2F__x3C_Clip_Group_0_x3E__x5F_2"  width="4.1" height="4.9" y="-4.9" transform="matrix(1 0 0 -1 102.3496 116.0498)" style="overflow:visible;"/>
		
			<use xlink:href="#FlashAICB_x5F_0_x2F_Isolation_Mode_x2F__x3C_Clip_Group_0_x3E__x5F_1"  width="4.9" height="5.15" y="-5.15" transform="matrix(1 0 0 -1 85.4502 123.9004)" style="overflow:visible;"/>
		<path style="fill-rule:evenodd;clip-rule:evenodd;fill:#FFFFFF;" d="M87.3,101.35c7.033,3.801,13.667,7.783,19.9,11.95l-0.7,2.55
			c-0.134,0.801-0.816,1.584-2.05,2.351c-2.667,1.566-5.384,2.967-8.15,4.2c-1.033,0.699-2.167,1.366-3.399,2
			c-2.5,1.3-4.284,1.8-5.351,1.5c-1.333-0.4-7.65-3.817-18.95-10.25c-11.434-6.467-17.45-10.101-18.05-10.9l-1.6-2.3l1-1.601
			l-0.35-1.1c-0.133-0.134-0.05-0.35,0.25-0.65c0.6-0.6,2-1.333,4.2-2.199c3.733-1.5,7.417-2.5,11.05-3
			c1.833-0.233,3.283-0.334,4.35-0.301l5,1.75C78.65,96.983,82.933,98.983,87.3,101.35z"/>
		<path style="fill-rule:evenodd;clip-rule:evenodd;fill:#7D7D7D;" d="M104.85,118.1l-50.2-10.05c-1.267-0.933-2.316-1.767-3.15-2.5
			L49,103.2l0.45-1.8l0.2,0.449c0.2,0.101,0.567-0.333,1.1-1.3c0.6-1.133,2.267-2.3,5-3.5c2.5-1.066,5.017-1.816,7.55-2.25
			c1.934-0.366,3.633-0.583,5.1-0.649c0.767-0.034,1.317-0.034,1.65,0l5.2,1.899c4.733,2,10.3,4.8,16.7,8.4
			c7.467,4.2,12.399,7.267,14.8,9.2L104.85,118.1z"/>
		<path style="fill-rule:evenodd;clip-rule:evenodd;fill:#343436;" d="M105.95,114.35l-1.5,3.851l-1.9,1.649
			c-1.733,1.301-3.717,2.4-5.95,3.301c-2.6,1.033-4.85,1.717-6.75,2.05l-2.05,0.149c-2.133-0.833-4.75-1.916-7.85-3.25
			c-6.134-2.732-11.517-5.433-16.15-8.1c-4.633-2.7-8.417-5.15-11.35-7.35L49.5,104.1l1.05-2.55l8.65,0.7
			c6.667,0.634,12.183,1.267,16.55,1.9L105.95,114.35z"/>
		<path style="fill-rule:evenodd;clip-rule:evenodd;fill:#444245;" d="M96.35,120.35c-1.633,0.7-3.399,1.334-5.3,1.9l-2.399,0.65
			c-1.768-0.7-4.184-1.768-7.25-3.2c-6.133-2.9-12.383-6.2-18.75-9.9c-4.367-2.566-7.7-4.717-10-6.45l-2.1-1.8
			c0.5-0.5,1.25-1.083,2.25-1.75c2-1.333,4.233-2.416,6.7-3.25c2.5-0.866,4.75-1.35,6.75-1.45c1-0.066,1.75-0.05,2.25,0.051
			l3.45,1.05c3.333,1.233,7.616,3.166,12.85,5.8c6.434,3.267,11.851,6.35,16.25,9.25c2.2,1.467,3.75,2.6,4.65,3.4l-1.4,1.449
			C102.633,117.367,99.983,118.783,96.35,120.35z"/>
		<path style="fill-rule:evenodd;clip-rule:evenodd;fill:#444245;" d="M53.15,102.15c0.233-0.634,0.4-1,0.5-1.101
			c0.434-0.333,1.533-0.85,3.3-1.55c3.3-1.233,6.533-2.3,9.7-3.2c2.967-0.8,4.7-1.149,5.2-1.05c0.633,0.167,0.95,0.566,0.95,1.2
			c-3.633,1.366-7.2,2.649-10.7,3.85c-2.434,0.867-4.117,1.467-5.05,1.8c-1.6,0.567-2.55,0.817-2.85,0.75
			c-0.3-0.033-0.567-0.166-0.8-0.399L53.15,102.15z"/>
		<path style="fill-rule:evenodd;clip-rule:evenodd;fill:#343436;" d="M54,101.5c0.233-0.033,0.467,0.1,0.7,0.4
			c0.133,0.199,1.716-0.233,4.75-1.301c4.566-1.633,8.383-2.883,11.45-3.75c0.9-0.267,1.467-0.666,1.7-1.199
			c0.267,0.267,0.333,0.566,0.2,0.899l-10.7,3.75c-2.434,0.867-4.117,1.467-5.05,1.8c-1.6,0.567-2.55,0.817-2.85,0.75
			c-0.3-0.033-0.567-0.166-0.8-0.399l-0.25-0.3C53.483,101.75,53.767,101.533,54,101.5z"/>
		<path style="fill-rule:evenodd;clip-rule:evenodd;fill:#444245;" d="M57.65,105.6c0.267-0.733,0.45-1.149,0.55-1.25
			c0.466-0.433,1.65-1.05,3.55-1.85c3.566-1.467,7.05-2.717,10.45-3.75c3.167-0.934,5.017-1.333,5.55-1.2
			c0.667,0.134,0.983,0.55,0.95,1.25c-3.9,1.634-7.75,3.15-11.55,4.55c-2.6,1.034-4.4,1.75-5.4,2.15
			c-1.733,0.633-2.75,0.934-3.05,0.9c-0.3-0.067-0.567-0.217-0.8-0.45L57.65,105.6z"/>
		<path style="fill-rule:evenodd;clip-rule:evenodd;fill:#343436;" d="M57.65,105.6c0.367-0.5,0.667-0.767,0.9-0.8
			s0.467,0.134,0.7,0.5c0.167,0.233,1.883-0.3,5.15-1.6c4.9-1.9,9-3.367,12.3-4.4c0.966-0.3,1.566-0.75,1.8-1.35
			c0.3,0.3,0.367,0.633,0.2,1c-3.9,1.533-7.75,3-11.55,4.399c-2.6,1.034-4.4,1.733-5.4,2.101c-1.733,0.667-2.75,0.967-3.05,0.899
			c-0.3-0.066-0.567-0.217-0.8-0.449L57.65,105.6z"/>
		<path style="fill-rule:evenodd;clip-rule:evenodd;fill:#444245;" d="M85.1,102.15c-4.033,1.699-7.95,3.316-11.75,4.85
			c-0.067,0.033-1.9,0.8-5.5,2.3c-1.733,0.733-2.75,1.067-3.05,1c-0.3-0.066-0.566-0.217-0.8-0.45l-0.25-0.35
			c0.333-0.8,0.55-1.25,0.65-1.35c0.434-0.434,1.633-1.084,3.6-1.95c3.6-1.566,7.117-2.917,10.55-4.05
			c3.167-1.034,5.017-1.483,5.55-1.351C84.733,100.967,85.066,101.417,85.1,102.15z"/>
		<path style="fill-rule:evenodd;clip-rule:evenodd;fill:#343436;" d="M82.95,102.65c1-0.301,1.616-0.784,1.85-1.45
			c0.3,0.3,0.417,0.649,0.351,1.05L73.35,107c-0.067,0.033-1.9,0.8-5.5,2.3c-1.733,0.733-2.75,1.067-3.05,1
			c-0.3-0.066-0.566-0.217-0.8-0.45l-0.25-0.35c0.4-0.5,0.717-0.783,0.95-0.85c0.233-0.033,0.45,0.133,0.65,0.5
			c0.167,0.232,1.9-0.334,5.2-1.7C75.583,105.35,79.717,103.75,82.95,102.65z"/>
		<path style="fill-rule:evenodd;clip-rule:evenodd;fill:#444245;" d="M80,110.4c-2.633,1.1-4.467,1.866-5.5,2.3
			c-1.733,0.7-2.75,1.017-3.05,0.95c-0.3-0.067-0.567-0.217-0.8-0.45l-0.25-0.351c0.3-0.732,0.5-1.166,0.6-1.3
			c0.467-0.433,1.683-1.083,3.65-1.95c3.567-1.566,7.083-2.916,10.55-4.05c3.133-1.033,4.983-1.5,5.55-1.399
			c0.633,0.166,0.967,0.649,1,1.449L80,110.4z"/>
		<path style="fill-rule:evenodd;clip-rule:evenodd;fill:#343436;" d="M91.85,105.7L80,110.4c-2.633,1.1-4.467,1.866-5.5,2.3
			c-1.733,0.7-2.75,1.017-3.05,0.95c-0.3-0.067-0.567-0.217-0.8-0.45l-0.25-0.351c0.4-0.5,0.717-0.767,0.95-0.8s0.45,0.134,0.65,0.5
			c0.133,0.2,1.867-0.383,5.2-1.75c4.9-2.033,9.033-3.616,12.399-4.75c1.033-0.366,1.65-0.85,1.851-1.45
			C91.75,104.9,91.883,105.267,91.85,105.7z"/>
		<path style="fill-rule:evenodd;clip-rule:evenodd;fill:#444245;" d="M81.8,116.5c-1.7,0.7-2.683,1.033-2.95,1
			c-0.3-0.066-0.567-0.217-0.8-0.45l-0.2-0.35c0.3-0.733,0.5-1.167,0.6-1.3c0.433-0.434,1.6-1.067,3.5-1.9
			c3.433-1.533,6.833-2.85,10.2-3.95c3.033-1,4.816-1.45,5.35-1.35c0.633,0.167,0.967,0.649,1,1.45L87.1,114.3
			C84.533,115.367,82.767,116.1,81.8,116.5z"/>
		<path style="fill-rule:evenodd;clip-rule:evenodd;fill:#343436;" d="M98.5,109.65L87.1,114.3c-2.566,1.067-4.333,1.8-5.3,2.2
			c-1.7,0.7-2.683,1.033-2.95,1c-0.3-0.066-0.567-0.217-0.8-0.45l-0.2-0.35c0.367-0.5,0.667-0.767,0.9-0.8s0.45,0.116,0.65,0.449
			c0.133,0.233,1.8-0.316,5-1.649c4.9-2.033,8.9-3.583,12-4.65c0.966-0.366,1.566-0.833,1.8-1.399
			C98.467,108.917,98.566,109.25,98.5,109.65z"/>
		<path style="fill-rule:evenodd;clip-rule:evenodd;fill:#444245;" d="M84.8,120.3c0.267-0.667,0.45-1.066,0.55-1.2
			c0.434-0.433,1.551-1.05,3.351-1.85c3.267-1.467,6.5-2.733,9.7-3.8c2.899-0.967,4.6-1.4,5.1-1.3
			c0.633,0.166,0.917,0.583,0.85,1.25c-3.633,1.633-7.217,3.166-10.75,4.6c-2.433,1.033-4.116,1.75-5.05,2.15
			c-1.6,0.666-2.533,0.967-2.8,0.899c-0.3-0.066-0.55-0.217-0.75-0.45L84.8,120.3z"/>
		<path style="fill-rule:evenodd;clip-rule:evenodd;fill:#343436;" d="M85.7,119.55c0.2-0.033,0.383,0.117,0.55,0.45
			c0.133,0.233,1.733-0.3,4.8-1.6c4.634-1.967,8.434-3.467,11.4-4.5c0.933-0.301,1.517-0.75,1.75-1.351
			c0.267,0.267,0.316,0.583,0.149,0.95c-3.633,1.566-7.217,3.066-10.75,4.5c-2.433,1.033-4.116,1.75-5.05,2.15
			c-1.6,0.666-2.533,0.967-2.8,0.899c-0.3-0.066-0.55-0.217-0.75-0.45l-0.2-0.3C85.167,119.833,85.467,119.583,85.7,119.55z"/>
		<path style="fill-rule:evenodd;clip-rule:evenodd;fill:#FFFFFF;" d="M106.85,113.25l0.351,0.05l-0.15,1.15
			c-0.133,0.6-0.649,1.433-1.55,2.5L96.8,123l-5.55-0.2l-1.3-1.25c3.433-0.833,6.916-2.149,10.45-3.95
			C103.8,115.9,105.95,114.45,106.85,113.25z"/>
		
			<use xlink:href="#FlashAICB_x5F_0_x2F_Isolation_Mode_x2F__x3C_Clip_Group_0_x3E_"  width="26.25" height="27.5" y="-27.5" transform="matrix(1 0 0 -1 85.0498 106.3496)" style="overflow:visible;"/>
		<path style="fill-rule:evenodd;clip-rule:evenodd;fill:#C7C7C7;" d="M50.75,100.55l-1.15,2.7l2.95,2.9
			c3,2.533,7.083,5.25,12.25,8.149c6.6,3.667,12.467,6.667,17.6,9c2.567,1.134,4.466,1.917,5.7,2.351l0.601-0.9l1.25-3.2l1.45,0.65
			l-0.2,0.3c-0.2,0.3-0.4,0.717-0.601,1.25c-0.366,0.867-0.933,1.883-1.699,3.05c-1.167-0.399-3.067-1.2-5.7-2.399
			c-5.233-2.4-11.5-5.617-18.8-9.65c-5.233-2.867-9.467-5.667-12.7-8.4l-3.3-3.199l1.2-3.4L50.75,100.55z"/>
		<path style="fill-rule:evenodd;clip-rule:evenodd;fill:#323232;" d="M61.75,116.9c2.167,1.467,6.083,3.583,11.75,6.35
			c2.933,1.434,6.066,2.917,9.4,4.45c1.333,0.667,1.767,0.967,1.3,0.899l0.95,0.801c0.033,0.8-0.434,1.467-1.4,2
			c-1.3,0.732-3.7,0.616-7.2-0.351c-2.4-0.667-6.316-2.45-11.75-5.35c-5.5-2.9-10.083-5.634-13.75-8.2
			c-3.167-2.233-5.133-4.133-5.9-5.7c-0.433-0.899-0.45-1.833-0.05-2.8c0.167-0.4,0.367-0.65,0.6-0.75c0.2-0.066,0.55-0.066,1.05,0
			c1.1,0.1,1.8,0.2,2.1,0.3c0.7,0.2,1.533,0.667,2.5,1.4C52.75,111.05,56.217,113.367,61.75,116.9z"/>
		<path style="fill-rule:evenodd;clip-rule:evenodd;fill:#323232;" d="M45.8,109.7c-0.133-0.033-0.233-0.101-0.3-0.2
			c-0.133-0.2,0.017-0.5,0.45-0.9c0.667-0.6,2.083-0.433,4.25,0.5c0.267,0.101,1.2,0.768,2.8,2c1.9,1.467,3.367,2.533,4.4,3.2
			c1.2,0.767,4.967,3,11.3,6.7c1.7,1,4.633,2.434,8.8,4.3c3.933,1.733,6.05,2.7,6.35,2.9c0.566,0.433,0.867,0.7,0.9,0.8l-0.35,0.75
			c-0.2,0.467-0.717,0.667-1.55,0.6c-0.867-0.066-2.85-0.467-5.95-1.199c-2.767-0.601-7.1-2.551-13-5.851
			c-4.2-2.333-8.467-4.917-12.8-7.75c-2.534-1.633-4.167-3.1-4.9-4.399L45.8,109.7z"/>
		<path style="fill-rule:evenodd;clip-rule:evenodd;fill:#404040;" d="M47.8,112.55c-0.6-0.866-0.417-1.25,0.55-1.149
			c1,0.1,2.25,0.699,3.75,1.8c5.066,3.833,11.066,7.399,18,10.7c2.1,1,4.9,2.3,8.4,3.899c2.233,1.134,2.783,1.833,1.65,2.101
			c-1.066,0.232-2.167,0.1-3.3-0.4c-1.8-0.934-3.583-1.8-5.35-2.6c-3.3-1.5-5.633-2.601-7-3.301c-2.367-1.166-4.817-2.533-7.35-4.1
			c-2.367-1.434-4.633-3.017-6.8-4.75L47.8,112.55z"/>
		<path style="fill-rule:evenodd;clip-rule:evenodd;fill:#979797;" d="M46.15,111.05c0.333-0.1,0.6,0.017,0.8,0.351
			c0.167,0.333,0.2,0.633,0.1,0.899c-0.133,0.367-0.017,0.884,0.35,1.55c0.167,0.367,0.117,0.434-0.15,0.2
			c-0.5-0.433-0.883-1.017-1.15-1.75S45.85,111.15,46.15,111.05z"/>
		<path style="fill-rule:evenodd;clip-rule:evenodd;fill:#575757;" d="M45.4,108.3c0.5-0.467,1.267-0.583,2.3-0.35
			c1.066,0.233,2.15,0.75,3.25,1.55c5.833,4.1,11.55,7.684,17.15,10.75c4.133,2.267,8.966,4.633,14.5,7.1
			c1.4,0.634,2.233,1.25,2.5,1.851c0.267,0.6-0.033,1.033-0.899,1.3c-2.267,0.6-5.917-0.2-10.95-2.4c-5.7-2.5-11.4-5.5-17.1-9
			c-6.367-3.933-10.017-6.916-10.95-8.949C44.833,109.35,44.9,108.733,45.4,108.3z M47.25,108.8c-1,0-1.25,0.517-0.75,1.55
			c0.867,1.768,4.133,4.45,9.8,8.051c5.4,3.433,10.784,6.333,16.15,8.699c4.833,2.134,8.316,3.051,10.45,2.75
			c0.833-0.133,1.1-0.449,0.8-0.949c-0.333-0.533-1.217-1.117-2.65-1.75c-5.7-2.5-10.216-4.634-13.55-6.4
			c-5.2-2.8-10.55-6.167-16.05-10.1C49.717,109.417,48.316,108.8,47.25,108.8z"/>
	</g>
</g>
<g>
	
		<use xlink:href="#FlashAICB_x5F_1_x2F_Isolation_Mode_x2F__x3C_Path_x3E__x5F_1"  width="109.5" height="55.55" y="-55.55" transform="matrix(1 0 0 -1 30.7998 29)" style="overflow:visible;opacity:0.1992;enable-background:new    ;"/>
	
		<use xlink:href="#FlashAICB_x5F_1_x2F_Isolation_Mode_x2F__x3C_Path_x3E_"  width="109.5" height="61.044" y="-61.044" transform="matrix(1 0 0 -1 30.7998 29)" style="overflow:visible;opacity:0.1211;enable-background:new    ;"/>
</g>
<use xlink:href="#FlashAICB_x5F_1_x2F_Isolation_Mode_x2F__x3C_Path_x3E__x5F_0"  width="118.15" height="56.85" y="-56.85" transform="matrix(1 0 0 -1 26.5498 87.5498)" style="overflow:visible;opacity:0.3398;enable-background:new    ;"/>
</svg>
