<?xml version="1.0" encoding="iso-8859-1"?>
<!-- Generator: Adobe Illustrator 15.1.0, SVG Export Plug-In . SVG Version: 6.00 Build 0)  -->
<!DOCTYPE svg PUBLIC "-//W3C//DTD SVG 1.1//EN" "http://www.w3.org/Graphics/SVG/1.1/DTD/svg11.dtd">
<svg version="1.1" id="FlashAICB" xmlns="http://www.w3.org/2000/svg" xmlns:xlink="http://www.w3.org/1999/xlink" x="0px" y="0px"
	 width="171.7px" height="171.8px" viewBox="0 0 171.7 171.8" style="enable-background:new 0 0 171.7 171.8;" xml:space="preserve"
	>
<symbol  id="FlashAICB_x2F_Layer_5_x2F__x3C_Path_x3E__x5F_14">
	<g id="Layer_1_17_">
	</g>
</symbol>
<symbol  id="FlashAICB_x2F_Layer_5_x2F__x3C_Path_x3E__x5F_16">
	<g id="Layer_1_16_">
	</g>
</symbol>
<symbol  id="FlashAICB_x2F_Layer_5_x2F__x3C_Path_x3E__x5F_17">
	<g id="Layer_1_15_">
	</g>
</symbol>
<symbol  id="FlashAICB_x2F_Layer_5_x2F__x3C_Path_x3E__x5F_18">
	<g id="Layer_1_14_">
	</g>
</symbol>
<symbol  id="FlashAICB_x2F_Layer_5_x2F__x3C_Path_x3E__x5F_21">
	<g id="Layer_1_13_">
	</g>
</symbol>
<symbol  id="FlashAICB_x2F_Layer_5_x2F__x3C_Path_x3E__x5F_22">
	<g id="Layer_1_12_">
	</g>
</symbol>
<symbol  id="FlashAICB_x2F_Layer_5_x2F__x3C_Path_x3E__x5F_24">
	<g id="Layer_1_11_">
	</g>
</symbol>
<symbol  id="FlashAICB_x2F_Layer_5_x2F__x3C_Path_x3E__x5F_25">
	<g id="Layer_1_10_">
	</g>
</symbol>
<symbol  id="FlashAICB_x2F_Layer_5_x2F__x3C_Path_x3E__x5F_29">
	<g id="Layer_1_9_">
	</g>
</symbol>
<symbol  id="FlashAICB_x2F_Layer_5_x2F__x3C_Path_x3E__x5F_30">
	<g id="Layer_1_8_">
	</g>
</symbol>
<symbol  id="FlashAICB_x2F_Layer_5_x2F__x3C_Path_x3E__x5F_34">
	<g id="Layer_1_7_">
	</g>
</symbol>
<symbol  id="FlashAICB_x2F_Layer_5_x2F__x3C_Path_x3E__x5F_35">
	<g id="Layer_1_6_">
	</g>
</symbol>
<symbol  id="FlashAICB_x2F_Layer_5_x2F__x3C_Path_x3E__x5F_39">
	<g id="Layer_1_5_">
	</g>
</symbol>
<symbol  id="FlashAICB_x2F_Layer_5_x2F__x3C_Path_x3E__x5F_40">
	<g id="Layer_1_4_">
	</g>
</symbol>
<symbol  id="FlashAICB_x2F_Layer_5_x2F__x3C_Path_x3E__x5F_41">
	<g id="Layer_1_3_">
	</g>
</symbol>
<symbol  id="FlashAICB_x5F_0_x2F_Isolation_Mode_x2F__x3C_Path_x3E_" viewBox="0 -118.3 118.45 118.3">
	<g id="Layer_1_2_">
		
			<radialGradient id="SVGID_1_" cx="59.2251" cy="-59.1499" r="59.1875" gradientTransform="matrix(1 0 0 -1 0 -118.2998)" gradientUnits="userSpaceOnUse">
			<stop  offset="0" style="stop-color:#FFB9DB"/>
			<stop  offset="0.2392" style="stop-color:#FDB7D8"/>
			<stop  offset="0.4157" style="stop-color:#F6AFCF"/>
			<stop  offset="0.5686" style="stop-color:#EBA3BF"/>
			<stop  offset="0.6627" style="stop-color:#E198B1"/>
			<stop  offset="1" style="stop-color:#822E7D;stop-opacity:0.4078"/>
		</radialGradient>
		<path style="fill-rule:evenodd;clip-rule:evenodd;fill:url(#SVGID_1_);" d="M118.45-59.15c0-16.333-5.784-30.267-17.35-41.8
			c-11.567-11.566-25.517-17.35-41.85-17.35c-16.367,0-30.333,5.783-41.9,17.35C5.783-89.417,0-75.483,0-59.15
			c0,16.333,5.783,30.267,17.35,41.8C28.917-5.783,42.883,0,59.25,0c16.333,0,30.283-5.783,41.85-17.35
			C112.667-28.883,118.45-42.817,118.45-59.15z"/>
	</g>
</symbol>
<symbol  id="FlashAICB_x5F_1_x2F_Isolation_Mode_x2F__x3C_Path_x3E_" viewBox="0 -61.294 110 61.294">
	<g id="Layer_1_20_">
		<path style="fill-rule:evenodd;clip-rule:evenodd;fill:#FFFFFF;" d="M106.5-34.35c2.333-5.633,3.5-10.95,3.5-15.95
			c0-4.967-1.433-8.083-4.3-9.35c-2.367-1.067-6.3-1.05-11.8,0.05c-7.267,1.767-13.1,3.117-17.5,4.05C68.4-53.85,61.267-53,55-53
			c-6.333,0-13.467-0.917-21.4-2.75c-8.333-2.2-14.167-3.683-17.5-4.45c-5.533-1.267-9.467-1.433-11.8-0.5
			C1.433-59.5,0-56.433,0-51.5c0,5.467,1.167,11.117,3.5,16.95C5.967-28.383,9.45-22.8,13.95-17.8C24.65-5.933,38.333,0,55,0
			c16.467,0,30.133-5.983,41-17.95C100.467-22.883,103.967-28.35,106.5-34.35z"/>
	</g>
</symbol>
<symbol  id="FlashAICB_x5F_1_x2F_Isolation_Mode_x2F__x3C_Path_x3E__x5F_1" viewBox="0 -55.8 110 55.8">
	<g id="Layer_1_19_">
		
			<linearGradient id="SVGID_2_" gradientUnits="userSpaceOnUse" x1="16165.3076" y1="-53.8555" x2="16221.0527" y2="-53.8555" gradientTransform="matrix(1.792918e-005 1 -1 -0.001 0.8545 -16221.1064)">
			<stop  offset="0.1294" style="stop-color:#E5B9B2"/>
			<stop  offset="0.9255" style="stop-color:#FFFFFF"/>
		</linearGradient>
		<path style="fill-rule:evenodd;clip-rule:evenodd;fill:url(#SVGID_2_);" d="M96-17.95c4.467-4.933,7.967-10.4,10.5-16.4
			c2.333-5.633,3.5-10.95,3.5-15.95c0-1.767-0.167-3.25-0.5-4.45c-1.833,11.067-7.217,20.9-16.15,29.5
			C82.783-15.117,70-10.05,55-10.05c-15.233,0-28.067-5.05-38.5-15.15c-9-8.733-14.35-18.933-16.05-30.6C0.15-54.6,0-53.167,0-51.5
			c0,5.467,1.167,11.117,3.5,16.95C5.967-28.383,9.45-22.8,13.95-17.8C24.65-5.933,38.333,0,55,0C71.467,0,85.133-5.983,96-17.95z"
			/>
	</g>
</symbol>
<symbol  id="FlashAICB_x5F_1_x2F_Isolation_Mode_x2F__x3C_Path_x3E__x5F_2" viewBox="0 -57.1 118.7 57.1">
	<g id="Layer_1_18_">
		
			<radialGradient id="SVGID_3_" cx="59.3501" cy="-28.5498" r="46.5701" gradientTransform="matrix(1 0 0 -1 0 -57.0996)" gradientUnits="userSpaceOnUse">
			<stop  offset="0" style="stop-color:#000000;stop-opacity:0"/>
			<stop  offset="0.651" style="stop-color:#000000;stop-opacity:0.4"/>
		</radialGradient>
		<path style="fill-rule:evenodd;clip-rule:evenodd;fill:url(#SVGID_3_);" d="M95.5-30.35c10.733,7.7,18.283,17.733,22.65,30.1
			L118.7,0c-0.567-15.9-6.6-29.383-18.1-40.45C89.1-51.55,75.333-57.1,59.3-57.1c-15.7,0-29.267,5.367-40.7,16.1
			C7.2-30.333,1-17.233,0-1.7c4.6-12,12.183-21.683,22.75-29.05C33.55-38.317,45.567-42.1,58.8-42.1
			C72.333-42.1,84.567-38.183,95.5-30.35z"/>
	</g>
</symbol>
<g>
	<path style="fill-rule:evenodd;clip-rule:evenodd;fill:#FFFFFF;" d="M7.4,53.05c4.333-10.267,10.467-19.366,18.4-27.3
		c7.934-7.934,17.017-14.083,27.25-18.45c10.633-4.5,21.767-6.75,33.4-6.75c11.633,0,22.767,2.25,33.399,6.75
		c10.267,4.367,19.367,10.517,27.301,18.45c7.933,7.934,14.083,17.033,18.449,27.3c4.5,10.634,6.75,21.767,6.75,33.4
		c0,11.633-2.25,22.767-6.75,33.399c-4.366,10.267-10.517,19.367-18.449,27.301c-7.934,7.933-17.034,14.083-27.301,18.449
		c-10.633,4.5-21.767,6.75-33.399,6.75c-11.633,0-22.767-2.25-33.4-6.75c-10.267-4.366-19.35-10.517-27.25-18.449
		c-7.933-7.934-14.066-17.034-18.4-27.301C2.9,109.217,0.65,98.083,0.65,86.45C0.65,74.816,2.9,63.684,7.4,53.05z"/>
	<g>
		<g>
			
				<linearGradient id="SVGID_4_" gradientUnits="userSpaceOnUse" x1="-158.2363" y1="86.4756" x2="-14.8359" y2="86.4756" gradientTransform="matrix(6.973501e-006 -1 1 -0.001 -1.064519e-004 4.449275e-004)">
				<stop  offset="0.0745" style="stop-color:#392538"/>
				<stop  offset="0.1882" style="stop-color:#53364E"/>
				<stop  offset="0.4353" style="stop-color:#956086"/>
				<stop  offset="0.6" style="stop-color:#C680B0"/>
				<stop  offset="0.9216" style="stop-color:#F0EAC8"/>
			</linearGradient>
			<path style="fill-rule:evenodd;clip-rule:evenodd;fill:url(#SVGID_4_);" d="M58.55,20.4c8.9-3.767,18.2-5.65,27.9-5.65
				s19,1.883,27.899,5.65c8.567,3.633,16.167,8.75,22.801,15.35c6.6,6.633,11.716,14.233,15.35,22.8c3.767,8.9,5.65,18.2,5.65,27.9
				s-1.884,19-5.65,27.899c-3.634,8.567-8.75,16.167-15.35,22.801c-6.634,6.6-14.233,11.716-22.801,15.35
				c-8.899,3.767-18.199,5.65-27.899,5.65s-19-1.884-27.9-5.65c-8.566-3.634-16.15-8.75-22.75-15.35
				c-6.6-6.634-11.716-14.233-15.35-22.801C16.683,105.45,14.8,96.15,14.8,86.45s1.883-19,5.65-27.9
				c3.6-8.566,8.716-16.167,15.35-22.8C42.4,29.15,49.983,24.033,58.55,20.4z"/>
			<path style="fill-rule:evenodd;clip-rule:evenodd;fill:#3E2439;" d="M19.35,58.65c3.667-8.867,8.917-16.716,15.75-23.55
				c6.867-6.867,14.717-12.117,23.55-15.75c8.833-3.667,18.1-5.5,27.8-5.5s18.967,1.833,27.8,5.5
				c8.866,3.667,16.717,8.917,23.55,15.75c6.867,6.867,12.117,14.716,15.75,23.55c3.667,8.833,5.5,18.1,5.5,27.8
				s-1.833,18.967-5.5,27.8c-3.633,8.833-8.883,16.684-15.75,23.55c-6.833,6.867-14.684,12.117-23.55,15.75
				c-8.833,3.667-18.1,5.5-27.8,5.5s-18.967-1.833-27.8-5.5c-8.833-3.633-16.683-8.883-23.55-15.75
				c-6.833-6.833-12.083-14.684-15.75-23.55c-3.633-8.833-5.45-18.1-5.45-27.8S15.717,67.483,19.35,58.65z M58.9,21.2
				c-8.467,3.6-15.967,8.667-22.5,15.2C22.567,50.233,15.65,66.917,15.65,86.45c0,19.566,6.917,36.25,20.75,50.05
				c6.533,6.533,14.033,11.6,22.5,15.2c8.767,3.7,17.95,5.55,27.55,5.55c9.6,0,18.8-1.85,27.6-5.55
				c8.467-3.601,15.967-8.667,22.5-15.2c6.5-6.533,11.55-14.033,15.15-22.5c3.7-8.767,5.55-17.95,5.55-27.55
				c0-9.6-1.85-18.784-5.55-27.55c-3.601-8.466-8.65-15.966-15.15-22.5c-13.833-13.833-30.533-20.75-50.1-20.75
				C76.85,15.65,67.667,17.5,58.9,21.2z"/>
		</g>
	</g>
</g>
<use xlink:href="#FlashAICB_x5F_0_x2F_Isolation_Mode_x2F__x3C_Path_x3E_"  width="118.45" height="118.3" y="-118.3" transform="matrix(1 0 0 -1 26.1499 24.5498)" style="overflow:visible;opacity:0.3789;enable-background:new    ;"/>
<g>
	<g>
		<path style="fill-rule:evenodd;clip-rule:evenodd;fill:#FFE7FD;" d="M81.55,37.4h-6.3l-0.5,3.55c1.233-0.233,2.067-0.35,2.5-0.35
			c2,0,3.65,0.7,4.95,2.1c1.3,1.367,1.95,3.033,1.95,5c0,2.867-0.75,5.117-2.25,6.75c-1.533,1.667-3.717,2.5-6.55,2.5
			c-1.5,0-3.017-0.383-4.55-1.15c-1.867-0.9-2.8-2-2.8-3.3c0-0.633,0.233-1.167,0.7-1.6c0.433-0.466,0.95-0.7,1.55-0.7
			c0.367,0,1.117,0.367,2.25,1.1c1.133,0.7,2.117,1.05,2.95,1.05c1.1,0,1.966-0.467,2.6-1.4c0.6-0.833,0.9-1.817,0.9-2.95
			c0-1.033-0.267-1.85-0.8-2.45c-0.566-0.633-1.367-0.95-2.4-0.95c-0.633,0-1.3,0.183-2,0.55s-1.333,0.55-1.9,0.55
			c-0.6,0-1.1-0.184-1.5-0.55c-0.333-0.333-0.5-0.667-0.5-1L70.8,36c0.167-1.267,0.45-2.117,0.85-2.55
			c0.333-0.434,0.917-0.65,1.75-0.65h8.05c0.733,0,1.316,0.2,1.75,0.6c0.433,0.4,0.65,0.9,0.65,1.5
			C83.85,36.567,83.083,37.4,81.55,37.4z"/>
		<path style="fill-rule:evenodd;clip-rule:evenodd;fill:#FFE7FD;" d="M102.2,38.5c0,2.267-0.917,3.967-2.75,5.1
			c1.233,0.566,2.217,1.367,2.95,2.4c0.767,1.1,1.149,2.3,1.149,3.6c0,2-0.816,3.733-2.45,5.2c-1.633,1.434-3.616,2.15-5.949,2.15
			c-2.301,0-4.25-0.717-5.851-2.15c-1.434-1.267-2.149-2.633-2.149-4.1c0-0.633,0.283-1.167,0.85-1.6c0.5-0.434,1.066-0.65,1.7-0.65
			c0.633,0,1.366,0.65,2.2,1.95c0.833,1.3,1.933,1.95,3.3,1.95c0.866,0,1.616-0.3,2.25-0.9c0.6-0.6,0.899-1.333,0.899-2.2
			c0-1.6-0.949-2.55-2.85-2.85c-1.9-0.3-2.85-1.066-2.85-2.3c0-1.133,0.8-1.917,2.399-2.35c1.566-0.4,2.351-1.233,2.351-2.5
			c0-0.633-0.217-1.167-0.65-1.6C96.316,37.217,95.733,37,95,37c-1.134,0-2.083,0.55-2.85,1.65S90.667,40.3,90,40.3
			c-0.634,0-1.167-0.267-1.6-0.8c-0.367-0.467-0.551-1.033-0.551-1.7c0-1.3,0.75-2.517,2.25-3.65c1.5-1.167,3.167-1.75,5-1.75
			c2.2,0,3.983,0.7,5.351,2.1C101.616,35.667,102.2,37,102.2,38.5z"/>
	</g>
	<g>
		
			<linearGradient id="SVGID_5_" gradientUnits="userSpaceOnUse" x1="-56.0239" y1="76.0776" x2="-31.8989" y2="76.0776" gradientTransform="matrix(4.145078e-005 -1 1 -0.001 1.039544e-004 4.449275e-004)">
			<stop  offset="0.3255" style="stop-color:#4A2442"/>
			<stop  offset="0.5294" style="stop-color:#4C2444"/>
			<stop  offset="0.6627" style="stop-color:#55244C"/>
			<stop  offset="0.7725" style="stop-color:#65255A"/>
			<stop  offset="0.8706" style="stop-color:#7B266E"/>
			<stop  offset="0.9647" style="stop-color:#972787"/>
			<stop  offset="1" style="stop-color:#A52893"/>
		</linearGradient>
		<path style="fill-rule:evenodd;clip-rule:evenodd;fill:url(#SVGID_5_);" d="M81.55,36.4h-6.3l-0.5,3.55
			c1.233-0.233,2.067-0.35,2.5-0.35c2,0,3.65,0.7,4.95,2.1c1.3,1.367,1.95,3.033,1.95,5c0,2.867-0.75,5.117-2.25,6.75
			c-1.533,1.667-3.717,2.5-6.55,2.5c-1.5,0-3.017-0.383-4.55-1.15c-1.867-0.9-2.8-2-2.8-3.3c0-0.633,0.233-1.167,0.7-1.6
			c0.433-0.466,0.95-0.7,1.55-0.7c0.367,0,1.117,0.367,2.25,1.1c1.133,0.7,2.117,1.05,2.95,1.05c1.1,0,1.966-0.467,2.6-1.4
			c0.6-0.833,0.9-1.817,0.9-2.95c0-1.033-0.267-1.85-0.8-2.45c-0.566-0.633-1.367-0.95-2.4-0.95c-0.633,0-1.3,0.183-2,0.55
			s-1.333,0.55-1.9,0.55c-0.6,0-1.1-0.184-1.5-0.55c-0.333-0.333-0.5-0.667-0.5-1L70.8,35c0.167-1.267,0.45-2.117,0.85-2.55
			c0.333-0.434,0.917-0.65,1.75-0.65h8.05c0.733,0,1.316,0.2,1.75,0.6c0.433,0.4,0.65,0.9,0.65,1.5
			C83.85,35.567,83.083,36.4,81.55,36.4z"/>
		
			<linearGradient id="SVGID_6_" gradientUnits="userSpaceOnUse" x1="-56.0439" y1="95.3535" x2="-31.5189" y2="95.3535" gradientTransform="matrix(4.077472e-005 -1 1 -0.001 -5.712569e-006 4.439838e-004)">
			<stop  offset="0.3255" style="stop-color:#4A2442"/>
			<stop  offset="0.5294" style="stop-color:#4C2444"/>
			<stop  offset="0.6627" style="stop-color:#55244C"/>
			<stop  offset="0.7725" style="stop-color:#65255A"/>
			<stop  offset="0.8706" style="stop-color:#7B266E"/>
			<stop  offset="0.9647" style="stop-color:#972787"/>
			<stop  offset="1" style="stop-color:#A52893"/>
		</linearGradient>
		<path style="fill-rule:evenodd;clip-rule:evenodd;fill:url(#SVGID_6_);" d="M102.2,37.5c0,2.267-0.917,3.967-2.75,5.1
			c1.233,0.566,2.217,1.367,2.95,2.4c0.767,1.1,1.149,2.3,1.149,3.6c0,2-0.816,3.733-2.45,5.2c-1.633,1.434-3.616,2.15-5.949,2.15
			c-2.301,0-4.25-0.717-5.851-2.15c-1.434-1.267-2.149-2.633-2.149-4.1c0-0.633,0.283-1.167,0.85-1.6c0.5-0.434,1.066-0.65,1.7-0.65
			c0.633,0,1.366,0.65,2.2,1.95c0.833,1.3,1.933,1.95,3.3,1.95c0.866,0,1.616-0.3,2.25-0.9c0.6-0.6,0.899-1.333,0.899-2.2
			c0-1.6-0.949-2.55-2.85-2.85c-1.9-0.3-2.85-1.066-2.85-2.3c0-1.133,0.8-1.917,2.399-2.35c1.566-0.4,2.351-1.233,2.351-2.5
			c0-0.633-0.217-1.167-0.65-1.6C96.316,36.217,95.733,36,95,36c-1.134,0-2.083,0.55-2.85,1.65S90.667,39.3,90,39.3
			c-0.634,0-1.167-0.267-1.6-0.8c-0.367-0.467-0.551-1.033-0.551-1.7c0-1.3,0.75-2.517,2.25-3.65c1.5-1.167,3.167-1.75,5-1.75
			c2.2,0,3.983,0.7,5.351,2.1C101.616,34.667,102.2,36,102.2,37.5z"/>
	</g>
</g>
<g>
	
		<linearGradient id="SVGID_7_" gradientUnits="userSpaceOnUse" x1="-106.9058" y1="80.6602" x2="-68.4558" y2="80.6602" gradientTransform="matrix(2.600780e-005 -1 1 -0.001 -9.223969e-005 4.449275e-004)">
		<stop  offset="0.0549" style="stop-color:#722565"/>
		<stop  offset="0.5882" style="stop-color:#D4A9B0"/>
		<stop  offset="0.8392" style="stop-color:#FEE3D2"/>
	</linearGradient>
	<path style="fill-rule:evenodd;clip-rule:evenodd;fill:url(#SVGID_7_);" d="M42.75,69.7c1.2,0.1,2.317,0.4,3.35,0.9
		c0.667,0.333,1.25,0.683,1.75,1.05l0.6,0.5l0.8,0.85c0.567,0.6,1,1.15,1.3,1.65c2.667,2.867,6.167,5.434,10.5,7.7
		c1.233-1.5,2.684-2.684,4.35-3.55c1.7-0.866,3.483-1.35,5.35-1.45c0.2-1.033,0.5-2.017,0.9-2.95c1.233-2.966,3.133-5.35,5.7-7.15
		c2.6-1.8,5.45-2.7,8.55-2.7c2.166,0,4.267,0.483,6.3,1.45c3.6,1.7,6.217,4.467,7.85,8.3c1.601,3.767,1.816,7.617,0.65,11.55
		c1.934-0.167,3.783,0.183,5.55,1.05c1.566,0.767,2.917,1.816,4.05,3.149c1.134,1.367,1.917,2.9,2.351,4.601
		c1.3,0.1,2.416,0.149,3.35,0.149c1.434,0,2.65-0.133,3.65-0.399l0.899-0.351c0.8-0.6,1.7-0.767,2.7-0.5
		c1.066-0.1,2.184,0.117,3.35,0.65c2.4,1.133,4.084,2.917,5.051,5.35c1,2.467,1.133,5.184,0.399,8.15l-0.45,1.399
		c-0.699,2.134-1.866,3.9-3.5,5.301c-1.633,1.399-3.483,2.217-5.55,2.449h-0.1c-0.533,0.067-1.05,0.067-1.55,0
		c-0.301,0-0.75-0.066-1.351-0.199l-1.75-0.601c-0.833-0.366-1.666-0.967-2.5-1.8c-0.733-0.5-2.45-1.434-5.149-2.8
		c-0.101,0.899-0.334,1.866-0.7,2.899c-0.934,2.667-2.517,4.834-4.75,6.5c-2.233,1.634-4.7,2.45-7.4,2.45
		c-1.633,0-3.2-0.3-4.7-0.899l-2.699-1.5l-0.301-0.25c-0.5-0.434-0.8-0.7-0.899-0.801l-0.2-0.149c-2.5-2.367-3.9-5.283-4.2-8.75
		L77,105c-1.767,0.8-3.617,1.2-5.55,1.2c-1.967,0-3.833-0.417-5.6-1.25c-0.467-0.2-0.934-0.467-1.4-0.8l-0.35-0.2l-1.4-1.05
		l-2.1-2.301l-0.25-0.399l-0.1-0.101l-0.8-1.35l-0.8-1.85L48.25,96.8l-0.35,0.05L46.7,96.9l-0.25,0.05l-1.1,0.1H45.3l-1.05,0.101
		h-0.1l-0.75,0.1h-0.05l-1,0.15c-2.633,0.666-5.033,0.416-7.2-0.75c-0.4-0.167-0.867-0.467-1.4-0.9l-0.25-0.2
		c-0.3-0.2-0.667-0.517-1.1-0.95L32.25,94.4c-1.167-1.233-2.067-2.783-2.7-4.65V89.7c-0.5-1.533-0.75-3.117-0.75-4.75l0.1-1.65
		l0.05-0.2l0.25-1.55v-0.1c0.3-1.267,0.6-2.217,0.9-2.85c0.4-0.967,0.816-1.8,1.25-2.5l0.1-0.15c0.8-1.233,1.716-2.3,2.75-3.2
		l0.15-0.15c1.033-0.9,2.167-1.6,3.4-2.1l0.1-0.05l0.25-0.05l1.1-0.4l1.05-0.2h0.15l1.05-0.1l0.15-0.05L42.75,69.7z M121.95,101.2
		c-1.733,0.533-3.717,0.8-5.95,0.8c-1.967,0-4.267-0.167-6.9-0.5c-0.899-0.1-1.649-0.483-2.25-1.15
		c-0.6-0.699-0.899-1.5-0.899-2.399c-0.033-1-0.283-1.917-0.75-2.75c-0.5-0.833-1.167-1.434-2-1.8
		c-1.101-0.533-2.184-0.567-3.25-0.101c-0.334,0.167-0.667,0.25-1,0.25l-0.15,0.3c0.667,1.2,0.65,2.4-0.05,3.601
		c-0.533,1-1.434,1.583-2.7,1.75c0.2,0.467,0.316,0.866,0.351,1.2c0.066,0.699-0.067,1.366-0.4,2c-0.333,0.633-0.8,1.116-1.4,1.449
		c-0.899,0.533-1.616,1.233-2.149,2.101c-0.367,0.633-0.9,1.083-1.601,1.35c0.4,0.601,0.601,1.3,0.601,2.101
		c-0.101,2,0.566,3.717,2,5.149l0.1,0.101l1.15,0.8l0.6,0.3c0.601,0.233,1.267,0.35,2,0.35c1.2,0,2.283-0.366,3.25-1.1
		c1-0.733,1.717-1.733,2.15-3c0.6-1.767,0.55-3.45-0.15-5.05c-0.267-0.667-0.333-1.367-0.2-2.101c0.134-0.699,0.467-1.3,1-1.8
		c0.534-0.533,1.15-0.866,1.851-1c0.733-0.133,1.434-0.05,2.1,0.25c6.066,2.567,10.2,4.667,12.4,6.3
		c0.233,0.134,0.434,0.317,0.6,0.551c0.233,0.232,0.417,0.366,0.55,0.399l0.25,0.101l0.351,0.05h0.3c0.6-0.067,1.167-0.333,1.7-0.8
		c0.633-0.533,1.083-1.233,1.35-2.101l0.25-0.85c0.667-2.7,0.167-4.45-1.5-5.25l-0.5,0.1H123l-0.05,0.05L121.95,101.2z M89.15,72.5
		c-1.034-0.5-2.117-0.75-3.25-0.75c-1.634,0-3.15,0.483-4.55,1.45c-1.367,1-2.383,2.316-3.05,3.95c-0.5,1.133-0.75,2.467-0.75,4
		c0.067,1.2-0.383,2.167-1.35,2.9c-0.967,0.767-2.017,0.983-3.15,0.65c-0.966-0.267-1.95-0.284-2.95-0.05
		c-0.967,0.233-1.833,0.667-2.6,1.3c0.7,1.2,0.733,2.366,0.1,3.5c-0.367,0.7-0.95,1.25-1.75,1.649c0.7,0.667,1.1,1.45,1.2,2.351
		c0.067,1-0.216,1.883-0.85,2.649h0.05l0.15,0.25l0.45,0.551l0.1,0.149l0.6,0.55l0.7,0.5l0.7,0.351c2.1,1,4.15,0.8,6.15-0.601
		c0.4-0.333,0.917-0.55,1.55-0.649c0.067-0.7,0.217-1.267,0.45-1.7l0.1-0.15c0.4-0.699,0.966-1.199,1.7-1.5
		c0.767-0.333,1.533-0.399,2.3-0.199l1.6,0.449c-0.033-0.232-0.033-0.482,0-0.75c0.067-0.899,0.434-1.666,1.1-2.3
		c0.633-0.6,1.4-0.933,2.3-1c0.7,0,1.35-0.1,1.95-0.3c1.899-0.6,3.066-1.133,3.5-1.6c0.333-0.4,0.699-0.684,1.1-0.851
		c-0.066-0.6,0.066-1.2,0.4-1.8l0.35-0.8c0.967-2.367,1.033-4.733,0.2-7.1C92.833,75.2,91.316,73.5,89.15,72.5z M53.7,89.55
		c2.133,0,4.267,0.101,6.4,0.3c-6.267-2.899-11.3-6.433-15.1-10.6c-0.267-0.367-0.417-0.583-0.45-0.65l-0.6-0.8l-0.35-0.35
		l-0.55-0.35c-0.2-0.1-0.517-0.184-0.95-0.25h-0.4l-0.3,0.05h-0.05L41,76.95L40.95,77l-0.35,0.1l-0.1,0.05
		c-0.533,0.2-1.017,0.5-1.45,0.9l-0.1,0.05c-0.567,0.5-1.05,1.083-1.45,1.75l-0.1,0.1l-0.7,1.35l-0.5,1.65l-0.15,0.95l-3.6-0.2
		l3.6,0.35l-0.05,1c0,0.934,0.117,1.75,0.35,2.45s0.6,1.367,1.1,2l0.5,0.45l0.1,0.05l0.45,0.3c0.567,0.334,1.283,0.384,2.15,0.15
		L41,90.35l2.35-0.3L43.5,90l1.1-0.1h0.1l1.2-0.101l0.25-0.05l1.3-0.05l0.4-0.05L53.7,89.55z"/>
	<path style="fill-rule:evenodd;clip-rule:evenodd;fill:none;stroke:#FFE6FD;stroke-width:0.25;" d="M42.75,69.7
		c1.2,0.1,2.317,0.4,3.35,0.9c0.667,0.333,1.25,0.683,1.75,1.05l0.6,0.5l0.8,0.85c0.567,0.6,1,1.15,1.3,1.65
		c2.667,2.867,6.167,5.434,10.5,7.7c1.233-1.5,2.684-2.684,4.35-3.55c1.7-0.866,3.483-1.35,5.35-1.45c0.2-1.033,0.5-2.017,0.9-2.95
		c1.233-2.966,3.133-5.35,5.7-7.15c2.6-1.8,5.45-2.7,8.55-2.7c2.166,0,4.267,0.483,6.3,1.45c3.6,1.7,6.217,4.467,7.85,8.3
		c1.601,3.767,1.816,7.617,0.65,11.55c1.934-0.167,3.783,0.183,5.55,1.05c1.566,0.767,2.917,1.816,4.05,3.149
		c1.134,1.367,1.917,2.9,2.351,4.601c1.3,0.1,2.416,0.149,3.35,0.149c1.434,0,2.65-0.133,3.65-0.399l0.899-0.351
		c0.8-0.6,1.7-0.767,2.7-0.5c1.066-0.1,2.184,0.117,3.35,0.65c2.4,1.133,4.084,2.917,5.051,5.35c1,2.467,1.133,5.184,0.399,8.15
		l-0.45,1.399c-0.699,2.134-1.866,3.9-3.5,5.301c-1.633,1.399-3.483,2.217-5.55,2.449h-0.1c-0.533,0.067-1.05,0.067-1.55,0
		c-0.301,0-0.75-0.066-1.351-0.199l-1.75-0.601c-0.833-0.366-1.666-0.967-2.5-1.8c-0.733-0.5-2.45-1.434-5.149-2.8
		c-0.101,0.899-0.334,1.866-0.7,2.899c-0.934,2.667-2.517,4.834-4.75,6.5c-2.233,1.634-4.7,2.45-7.4,2.45
		c-1.633,0-3.2-0.3-4.7-0.899l-2.699-1.5l-0.301-0.25c-0.5-0.434-0.8-0.7-0.899-0.801l-0.2-0.149c-2.5-2.367-3.9-5.283-4.2-8.75
		L77,105c-1.767,0.8-3.617,1.2-5.55,1.2c-1.967,0-3.833-0.417-5.6-1.25c-0.467-0.2-0.934-0.467-1.4-0.8l-0.35-0.2l-1.4-1.05
		l-2.1-2.301l-0.25-0.399l-0.1-0.101l-0.8-1.35l-0.8-1.85L48.25,96.8l-0.35,0.05L46.7,96.9l-0.25,0.05l-1.1,0.1H45.3l-1.05,0.101
		h-0.1l-0.75,0.1h-0.05l-1,0.15c-2.633,0.666-5.033,0.416-7.2-0.75c-0.4-0.167-0.867-0.467-1.4-0.9l-0.25-0.2
		c-0.3-0.2-0.667-0.517-1.1-0.95L32.25,94.4c-1.167-1.233-2.067-2.783-2.7-4.65V89.7c-0.5-1.533-0.75-3.117-0.75-4.75l0.1-1.65
		l0.05-0.2l0.25-1.55v-0.1c0.3-1.267,0.6-2.217,0.9-2.85c0.4-0.967,0.816-1.8,1.25-2.5l0.1-0.15c0.8-1.233,1.716-2.3,2.75-3.2
		l0.15-0.15c1.033-0.9,2.167-1.6,3.4-2.1l0.1-0.05l0.25-0.05l1.1-0.4l1.05-0.2h0.15l1.05-0.1l0.15-0.05L42.75,69.7z M121.95,101.2
		c-1.733,0.533-3.717,0.8-5.95,0.8c-1.967,0-4.267-0.167-6.9-0.5c-0.899-0.1-1.649-0.483-2.25-1.15
		c-0.6-0.699-0.899-1.5-0.899-2.399c-0.033-1-0.283-1.917-0.75-2.75c-0.5-0.833-1.167-1.434-2-1.8
		c-1.101-0.533-2.184-0.567-3.25-0.101c-0.334,0.167-0.667,0.25-1,0.25l-0.15,0.3c0.667,1.2,0.65,2.4-0.05,3.601
		c-0.533,1-1.434,1.583-2.7,1.75c0.2,0.467,0.316,0.866,0.351,1.2c0.066,0.699-0.067,1.366-0.4,2c-0.333,0.633-0.8,1.116-1.4,1.449
		c-0.899,0.533-1.616,1.233-2.149,2.101c-0.367,0.633-0.9,1.083-1.601,1.35c0.4,0.601,0.601,1.3,0.601,2.101
		c-0.101,2,0.566,3.717,2,5.149l0.1,0.101l1.15,0.8l0.6,0.3c0.601,0.233,1.267,0.35,2,0.35c1.2,0,2.283-0.366,3.25-1.1
		c1-0.733,1.717-1.733,2.15-3c0.6-1.767,0.55-3.45-0.15-5.05c-0.267-0.667-0.333-1.367-0.2-2.101c0.134-0.699,0.467-1.3,1-1.8
		c0.534-0.533,1.15-0.866,1.851-1c0.733-0.133,1.434-0.05,2.1,0.25c6.066,2.567,10.2,4.667,12.4,6.3
		c0.233,0.134,0.434,0.317,0.6,0.551c0.233,0.232,0.417,0.366,0.55,0.399l0.25,0.101l0.351,0.05h0.3c0.6-0.067,1.167-0.333,1.7-0.8
		c0.633-0.533,1.083-1.233,1.35-2.101l0.25-0.85c0.667-2.7,0.167-4.45-1.5-5.25l-0.5,0.1H123l-0.05,0.05L121.95,101.2z M89.15,72.5
		c-1.034-0.5-2.117-0.75-3.25-0.75c-1.634,0-3.15,0.483-4.55,1.45c-1.367,1-2.383,2.316-3.05,3.95c-0.5,1.133-0.75,2.467-0.75,4
		c0.067,1.2-0.383,2.167-1.35,2.9c-0.967,0.767-2.017,0.983-3.15,0.65c-0.966-0.267-1.95-0.284-2.95-0.05
		c-0.967,0.233-1.833,0.667-2.6,1.3c0.7,1.2,0.733,2.366,0.1,3.5c-0.367,0.7-0.95,1.25-1.75,1.649c0.7,0.667,1.1,1.45,1.2,2.351
		c0.067,1-0.216,1.883-0.85,2.649h0.05l0.15,0.25l0.45,0.551l0.1,0.149l0.6,0.55l0.7,0.5l0.7,0.351c2.1,1,4.15,0.8,6.15-0.601
		c0.4-0.333,0.917-0.55,1.55-0.649c0.067-0.7,0.217-1.267,0.45-1.7l0.1-0.15c0.4-0.699,0.966-1.199,1.7-1.5
		c0.767-0.333,1.533-0.399,2.3-0.199l1.6,0.449c-0.033-0.232-0.033-0.482,0-0.75c0.067-0.899,0.434-1.666,1.1-2.3
		c0.633-0.6,1.4-0.933,2.3-1c0.7,0,1.35-0.1,1.95-0.3c1.899-0.6,3.066-1.133,3.5-1.6c0.333-0.4,0.699-0.684,1.1-0.851
		c-0.066-0.6,0.066-1.2,0.4-1.8l0.35-0.8c0.967-2.367,1.033-4.733,0.2-7.1C92.833,75.2,91.316,73.5,89.15,72.5z M53.7,89.55
		c2.133,0,4.267,0.101,6.4,0.3c-6.267-2.899-11.3-6.433-15.1-10.6c-0.267-0.367-0.417-0.583-0.45-0.65l-0.6-0.8l-0.35-0.35
		l-0.55-0.35c-0.2-0.1-0.517-0.184-0.95-0.25h-0.4l-0.3,0.05h-0.05L41,76.95L40.95,77l-0.35,0.1l-0.1,0.05
		c-0.533,0.2-1.017,0.5-1.45,0.9l-0.1,0.05c-0.567,0.5-1.05,1.083-1.45,1.75l-0.1,0.1l-0.7,1.35l-0.5,1.65l-0.15,0.95l-3.6-0.2
		l3.6,0.35l-0.05,1c0,0.934,0.117,1.75,0.35,2.45s0.6,1.367,1.1,2l0.5,0.45l0.1,0.05l0.45,0.3c0.567,0.334,1.283,0.384,2.15,0.15
		L41,90.35l2.35-0.3L43.5,90l1.1-0.1h0.1l1.2-0.101l0.25-0.05l1.3-0.05l0.4-0.05L53.7,89.55z"/>
	
		<path style="fill-rule:evenodd;clip-rule:evenodd;fill:none;stroke:#3E2439;stroke-width:1.35;stroke-linejoin:round;stroke-miterlimit:3;" d="
		M81.55,69.05c-3.066,1.267-5.267,3.517-6.6,6.75c-0.7,1.7-1.017,3.517-0.95,5.45c-2.3-0.633-4.533-0.417-6.7,0.65
		c-2.2,1.034-3.833,2.7-4.9,5l1.85,0.8l0.15,0.1l-0.1-0.05l-1.35-0.55c-6.367-2.733-11.467-6.184-15.3-10.35
		c-0.267-0.467-0.617-0.95-1.05-1.45l-0.7-0.7c-0.533-0.434-0.983-0.717-1.35-0.85c-0.633-0.3-1.333-0.483-2.1-0.55H42.4l-0.75-0.05
		H41.6l-0.75,0.1H40.8l-0.7,0.15H40l-0.7,0.25l-0.1,0.05c-0.9,0.367-1.733,0.884-2.5,1.55l-0.1,0.1
		c-0.833,0.667-1.55,1.483-2.15,2.45L34.4,78c-0.4,0.7-0.733,1.35-1,1.95c-0.333,0.833-0.566,1.583-0.7,2.25l-0.25,1.5l-0.05,1.25
		c0,1.233,0.184,2.434,0.55,3.6v0.05c0.4,1.334,1.05,2.467,1.95,3.4l0.8,0.75l0.2,0.15l0.95,0.6c1.4,0.733,2.983,0.867,4.75,0.4
		l2.2-0.301h0.05l1.1-0.149H45l1.2-0.101h0.2l1.3-0.1l5.95-0.15c2.367,0.067,4.967,0.217,7.8,0.45c0.167,1.033,0.466,2,0.9,2.9
		l1.15,2.05l1.55,1.7l1.3,0.95l1.05,0.55c1.633,0.8,3.333,1.1,5.1,0.899c1.7-0.199,3.267-0.816,4.7-1.85l1.1,0.75
		c1.167,0.8,2.5,1.816,4,3.05l5.55,4.7c-0.033,1.5,0.217,2.934,0.75,4.3c0.567,1.4,1.367,2.583,2.4,3.55l0.1,0.15l0.7,0.55L92,118
		l0.7,0.4l0.25,0.199l1,0.45c2.434,0.967,4.833,0.884,7.2-0.25c2.366-1.133,4.017-3,4.949-5.6c0.9-2.567,0.834-5.101-0.199-7.601
		c5.767,2.467,9.683,4.434,11.75,5.9c0.466,0.566,1.033,1,1.699,1.3c0.267,0.167,0.534,0.267,0.801,0.3l1,0.2
		c0.433,0,0.75-0.017,0.949-0.05h0.051c1.3-0.133,2.5-0.667,3.6-1.6c1.134-0.967,1.95-2.2,2.45-3.7l0.35-1.101v-0.05
		c0.566-2.233,0.5-4.183-0.2-5.85c-0.633-1.601-1.716-2.767-3.25-3.5c-0.8-0.333-1.75-0.384-2.85-0.15l0.05-0.05l-0.25,0.1
		c-0.434,0.101-0.816,0.25-1.149,0.45c-1.134,0.334-2.351,0.533-3.65,0.601c-1.967,0.066-4.55-0.084-7.75-0.45
		c0-1.667-0.417-3.2-1.25-4.601c-0.9-1.433-2.083-2.5-3.55-3.199c-2.033-0.967-4.066-1.017-6.101-0.15l-1.25-1.4L96.7,87.7h-0.05
		L96.3,87.15l0.5-1.101c1.334-3.233,1.4-6.483,0.2-9.75c-1.2-3.267-3.3-5.616-6.3-7.05C87.667,67.817,84.617,67.75,81.55,69.05z
		 M94.75,91.05l0.65,0.75l0.25,0.351c-0.634,0.733-1.134,1.533-1.5,2.399c-0.034,0.067-0.034,0.184,0,0.351
		c0.466,0.066,0.816,0.149,1.05,0.25l0.45,0.449L86.35,93.65c1-0.067,1.95-0.217,2.851-0.45c1.333-0.4,2.316-0.75,2.95-1.05
		c0.866-0.434,1.583-0.967,2.149-1.601L94.75,91V91.05z M80.25,97.25l0.05-0.1c4.534,1.133,8.7,2.333,12.5,3.6
		c-1.333,0.733-2.467,1.833-3.399,3.3c-2.034-1.333-3.917-2.649-5.65-3.95l-0.1-0.1L80.25,97.25z M63,93.85l-1.125-0.225L63.45,93.8
		L63,93.85z M61.65,93.6l-0.15-0.05l0.375,0.075L61.65,93.6z"/>
	<g>
		
			<radialGradient id="SVGID_8_" cx="89.2471" cy="-70.4702" r="19.1766" gradientTransform="matrix(0.1766 0.9843 0.9204 -0.1864 133.9451 -27.1302)" gradientUnits="userSpaceOnUse">
			<stop  offset="0" style="stop-color:#FA56F5"/>
			<stop  offset="1" style="stop-color:#952478"/>
		</radialGradient>
		<path style="fill-rule:evenodd;clip-rule:evenodd;fill:url(#SVGID_8_);" d="M90.7,69.25c3,1.434,5.1,3.783,6.3,7.05
			c1.2,3.267,1.134,6.517-0.2,9.75c-1.3,3.233-3.483,5.483-6.55,6.75c-3.066,1.3-6.117,1.233-9.15-0.2
			c-3.033-1.433-5.15-3.783-6.35-7.05c-1.2-3.3-1.133-6.55,0.2-9.75c1.333-3.233,3.533-5.483,6.6-6.75
			C84.617,67.75,87.667,67.817,90.7,69.25z"/>
		
			<use xlink:href="#FlashAICB_x2F_Layer_5_x2F__x3C_Path_x3E__x5F_41"  width="-32766" height="-32766" x="16383" y="16383" transform="matrix(1 0 0 -1 77.5498 78.0498)" style="overflow:visible;opacity:0.1797;enable-background:new    ;"/>
		
			<use xlink:href="#FlashAICB_x2F_Layer_5_x2F__x3C_Path_x3E__x5F_40"  width="-32766" height="-32766" x="16383" y="16383" transform="matrix(1 0 0 -1 77.5498 78.0498)" style="overflow:visible;opacity:0.25;enable-background:new    ;"/>
		
			<use xlink:href="#FlashAICB_x2F_Layer_5_x2F__x3C_Path_x3E__x5F_39"  width="-32766" height="-32766" x="16383" y="16383" transform="matrix(1 0 0 -1 77 68.8999)" style="overflow:visible;opacity:0.2617;enable-background:new    ;"/>
		<path style="fill-rule:evenodd;clip-rule:evenodd;fill:#FFE7B2;" d="M72.2,84.15c0.966-0.133,2-0.833,3.1-2.1
			c0.5-0.8,1.1-1.533,1.8-2.2c1.4-1.367,2.617-1.7,3.65-1c1.433,0.967,1.683,2.25,0.75,3.85c-0.533,0.933-1.717,2.6-3.55,5
			c-0.367,0.633-1.434,0.233-3.2-1.2L72.2,84.15z"/>
		<g>
			<path style="fill-rule:evenodd;clip-rule:evenodd;fill:#CEAD65;" d="M76.35,81.3c0.8-0.633,1.4-1.183,1.8-1.65l0.8-1
				c0.133-0.066,0.35-0.117,0.65-0.15l-3.15,3.9c-1.133,1.034-1.583,1.817-1.35,2.35c0.4-0.133,1-0.6,1.8-1.4
				c0.9-0.8,1.617-1.617,2.15-2.45c0.767-0.9,1.317-1.583,1.65-2.05h0.05l0.1,0.1l-0.5,0.7c-0.367,0.534-1.3,1.7-2.8,3.5
				c-0.333,0.367-0.583,0.733-0.75,1.1c-0.1,0.133-0.316,0.383-0.65,0.75c-0.267,0.333-0.367,0.6-0.3,0.8
				c0.3,0.034,0.65-0.066,1.05-0.3c0.033-0.033,0.317-0.267,0.85-0.7c0.233-0.133,0.783-0.566,1.65-1.3
				c0.267-0.167,0.483-0.316,0.65-0.45c0.3-0.267,0.35-0.483,0.15-0.65c-0.1-0.1-0.317-0.066-0.65,0.1
				c-0.25,0.156-0.408,0.298-0.475,0.425c0.754-1.549,1.512-2.241,2.275-2.075c-0.033,0.133,0,0.283,0.1,0.45l0.65-0.65
				c0.1,0.767-0.333,1.817-1.3,3.15c-0.566,0.767-1.517,2.067-2.85,3.9c-0.367,0.633-1.434,0.233-3.2-1.2l-2.55-2.35
				c0.667-0.1,1.4-0.517,2.2-1.25h0.05C74.75,82.6,75.383,82.067,76.35,81.3z"/>
		</g>
		<path style="fill-rule:evenodd;clip-rule:evenodd;fill:#FFE7B2;" d="M122.25,97.3c1.1-0.233,2.05-0.183,2.85,0.15
			c1.667,0.8,2.801,2.083,3.4,3.85c0.634,1.934,0.533,4.15-0.3,6.65c-0.7,2.1-1.95,3.633-3.75,4.6c-1.8,0.934-3.5,1.017-5.101,0.25
			c-0.666-0.3-1.233-0.733-1.699-1.3c-2.767-1.867-7.267-4.083-13.5-6.65C94.483,100.917,83.767,97.7,72,95.2
			c-6.833-1.467-13.65-2.15-20.45-2.05c-3.733,0.033-7.05,0.283-9.95,0.75c-1.767,0.467-3.35,0.333-4.75-0.4
			c-2.1-1.1-3.467-2.983-4.1-5.65c-0.667-2.6-0.45-5.233,0.65-7.899c1.067-2.633,2.7-4.55,4.9-5.75
			c2.167-1.167,4.25-1.284,6.25-0.35c0.367,0.133,0.817,0.417,1.35,0.85c0.733,0.633,1.317,1.35,1.75,2.15
			c2.333,2.5,5.184,4.783,8.55,6.85c5.033,3.1,10.867,5.45,17.5,7.05c16.566,3.967,28.7,6.384,36.399,7.25
			c4.867,0.566,8.467,0.5,10.801-0.2c0.333-0.2,0.716-0.35,1.149-0.45l0.25-0.1L122.25,97.3z"/>
		<g>
			<path style="fill-rule:evenodd;clip-rule:evenodd;fill:#CEAD65;" d="M121.65,98.95c-0.4,0.2-2.15,0.233-5.25,0.1
				c-2.801-0.1-5.184-0.25-7.15-0.45c-2.9-0.333-6.417-0.316-10.55,0.051c-2.566,0.166-5.15-0.351-7.75-1.551
				c-2.334-1.232-4.217-2.183-5.65-2.85c-2.6-1.267-4.85-2.05-6.75-2.35c-5.833-0.967-8.816-1.45-8.95-1.45
				c-3.934-0.7-6.684-1.3-8.25-1.8c-1.467-0.434-3.467-1.417-6-2.95c-2.8-1.733-4.8-2.934-6-3.6c-1.6-0.9-2.85-1.383-3.75-1.45
				c-0.567-0.066-1.15,0.067-1.75,0.4c-0.633,0.3-1.067,0.617-1.3,0.95c-0.267,0.4,0.067,0.55,1,0.45
				c2.633-0.3,5.034,0.417,7.2,2.15c1.567,1.267,3.817,2.583,6.75,3.95c3.233,1.5,5.917,2.367,8.05,2.601
				c5.767,0.699,8.667,1.05,8.7,1.05c3.833,0.6,6.633,1.333,8.4,2.2c1.367,0.699,3.45,1.816,6.25,3.35
				c2.466,1.2,4.733,1.833,6.8,1.9c1.8,0.066,4.434,0.05,7.899-0.051c3.7-0.1,6.134-0.133,7.301-0.1c1.366,0.033,4.149,0.1,8.35,0.2
				c3.634-0.066,5.816-0.566,6.55-1.5L126,98l0.85,0.7c-0.566,0.233-0.949,0.5-1.149,0.8c-0.334,0.5-2.351,1.05-6.05,1.65
				c-3.567,0.566-6.233,0.8-8,0.699c-6.134-0.366-10.084-0.699-11.851-1c-2.533-0.267-4.649-0.533-6.35-0.8
				C90.184,99.583,87.8,98.9,86.3,98c-1.9-1.133-3.517-1.934-4.85-2.4c-1.467-0.533-3.35-0.933-5.65-1.199c-3-0.334-6-0.851-9-1.551
				c-3.933-0.933-7.15-2.017-9.65-3.25c-3.333-1.966-5.75-3.3-7.25-4c-2.5-1.133-5-1.367-7.5-0.7
				c-2.633,0.733-3.883,1.317-3.75,1.75c0.033,0.133,0.833,0.616,2.4,1.449c1.133,0.601,2.383,1.051,3.75,1.351
				c1.367,0.267,3.233,0.467,5.6,0.6c2.367,0.134,5,0.567,7.9,1.3c2.9,0.768,5.467,1.667,7.7,2.7l0.2,0.101
				c-2.6-0.367-4.35-0.584-5.25-0.65l-1.9-0.9c-1.867-0.8-3.683-1.283-5.45-1.449c-1.533-0.134-3.667-0.084-6.4,0.149
				c-2.5,0.2-4.317,0.233-5.45,0.101c-0.967-0.101-1.933-0.434-2.9-1c-0.967-0.5-1.467-0.75-1.5-0.75c-0.1,0.033,0,0.449,0.3,1.25
				c0.3,0.8,1.1,1.316,2.4,1.55c1.233,0.233,3.434,0.267,6.6,0.1c2.434-0.1,4.767,0.084,7,0.55C49.017,93.066,45,93.333,41.6,93.9
				c-0.533,0.133-0.967,0.199-1.3,0.199l-0.25-0.05c-1.833-0.899-3-2.217-3.5-3.95c-0.167-0.633-0.4-1.083-0.7-1.35
				c-0.3-0.267-0.55-0.25-0.75,0.05l-1.3,1.7c-0.367-0.633-0.65-1.267-0.85-1.9c0.5-0.633,1.05-1.1,1.65-1.399
				c1.033-0.467,1.683-1.033,1.95-1.7c0.333-0.733,0.083-1.25-0.75-1.55c-1.1-0.434-2.233-0.1-3.4,1c0-0.867,0.1-1.784,0.3-2.75
				c0.733,0,1.4-0.15,2-0.45c0.7-0.3,1.583-0.667,2.65-1.1c0.6-0.3,0.55-0.55-0.15-0.75c-1-0.2-1.667-0.367-2-0.5
				c-0.6-0.233-0.867-0.7-0.8-1.4c0.633-1.033,1.4-1.917,2.3-2.65c0,1,0.2,1.617,0.6,1.85c0.3,0.2,0.9,0.65,1.8,1.35
				c0.733,0.4,0.967,0.1,0.7-0.9c-0.267-0.966-0.433-1.667-0.5-2.1c-0.167-0.733-0.2-1.316-0.1-1.75c1.033-0.433,2.117-0.6,3.25-0.5
				c-1.167,0.6-1.75,1.317-1.75,2.15c0.033,0.767-0.083,1.75-0.35,2.95c-0.067,0.4,0.066,0.184,0.4-0.65
				c0.333-0.8,0.883-1.517,1.65-2.15c0.867-0.733,1.817-1.2,2.85-1.4l0.65,0.5l0.75,0.75c-1.9-0.333-3.3,0.2-4.2,1.6
				c-1.567,2.5-1.1,2.417,1.4-0.25l1.25,0.05c0.933,0.167,1.683,0.55,2.25,1.15c0.467,0.467,1.417,1.434,2.85,2.9
				c1.5,1.367,3,2.417,4.5,3.15c2.933,1.333,5.4,2.25,7.4,2.75c3.433,1.567,7.3,2.884,11.6,3.95l12.25,2.8
				c2.566,1.167,4.533,1.95,5.899,2.351c1.834,0.533,3.601,0.75,5.301,0.649l2.899-0.25c1.967,0.3,4.167,0.767,6.601,1.4
				c1.633,0.434,2.783,0.6,3.449,0.5c1.834,0.267,3.801,0.399,5.9,0.399c2.967,0.034,4.816-0.267,5.55-0.899l2-0.55
				C122.483,98.283,121.85,98.884,121.65,98.95z"/>
			<path style="fill-rule:evenodd;clip-rule:evenodd;fill:#CEAD65;" d="M126.05,111.35c-0.6,0.567-1.25,1.018-1.95,1.351
				c-1.366-0.233-2.399-0.45-3.1-0.65c-1.233-0.3-2.566-0.767-4-1.399c-2.6-1.5-4.066-2.301-4.4-2.4
				c-0.333-0.2-1.566-0.75-3.699-1.65c-2.334-0.967-3.733-1.566-4.2-1.8c1.434,0.233,3.133,0.817,5.1,1.75
				c2.533,1.2,5.4,2.3,8.601,3.3C122.233,111.083,124.783,111.583,126.05,111.35z"/>
			<path style="fill-rule:evenodd;clip-rule:evenodd;fill:#CEAD65;" d="M85.05,98.3l0.55,0.25l-5.1-1.35
				c0.667-0.167,1.3-0.167,1.9,0C82.833,97.333,83.717,97.7,85.05,98.3z"/>
			<path style="fill-rule:evenodd;clip-rule:evenodd;fill:#CEAD65;" d="M127.6,106.35l1.15-0.649
				c-0.134,0.833-0.316,1.583-0.55,2.25l-0.3,0.75c-2.233,0.5-4.167,0.467-5.801-0.101c-2.166-0.767-5.233-1.699-9.199-2.8
				c-4.467-1.267-7.5-2-9.101-2.2c-0.6-0.066-2.649-0.416-6.149-1.05l-2.9-1.1l2.1,0.3c2.034,0.134,4.483,0.483,7.351,1.05
				c2.767,0.533,4.717,1.033,5.85,1.5c1.533,0.601,4.467,1.217,8.8,1.851C123.75,106.917,126.667,106.983,127.6,106.35z"/>
		</g>
		<path style="fill-rule:evenodd;clip-rule:evenodd;fill:#CEAD65;" d="M53.4,88.75c-0.833-0.4-1.717-0.75-2.65-1.05
			c-1.833-0.634-2.933-0.717-3.3-0.25c-0.567,0.733,0.5,1.116,3.2,1.149c-0.167,0.2-0.45,0.367-0.85,0.5
			c-0.767,0.268-1.683,0.184-2.75-0.25c-1.3-0.5-1.716-1.199-1.25-2.1c0.434-0.9,1.35-1.133,2.75-0.7
			C50.383,86.617,52,87.517,53.4,88.75z"/>
		
			<use xlink:href="#FlashAICB_x2F_Layer_5_x2F__x3C_Path_x3E__x5F_35"  width="-32766" height="-32766" x="16383" y="16383" transform="matrix(1 0 0 -1 33.5 86.5)" style="overflow:visible;opacity:0.25;enable-background:new    ;"/>
		
			<use xlink:href="#FlashAICB_x2F_Layer_5_x2F__x3C_Path_x3E__x5F_34"  width="-32766" height="-32766" x="16383" y="16383" transform="matrix(1 0 0 -1 33.5 89.9502)" style="overflow:visible;opacity:0.3516;enable-background:new    ;"/>
		
			<radialGradient id="SVGID_9_" cx="-105.2563" cy="-0.2549" r="20.0141" gradientTransform="matrix(-0.4372 -0.8994 -0.8338 0.5215 -0.4299 0.2687)" gradientUnits="userSpaceOnUse">
			<stop  offset="0" style="stop-color:#CEAD65"/>
			<stop  offset="1" style="stop-color:#745D2D"/>
		</radialGradient>
		<path style="fill-rule:evenodd;clip-rule:evenodd;fill:url(#SVGID_9_);" d="M44.55,85.7c-0.9,2.667-1.95,4.483-3.15,5.45
			c-1.066,0.866-2.417,1.133-4.05,0.8C35.817,91.617,34.7,90.5,34,88.6c-0.667-1.933-0.717-4.083-0.15-6.45
			c0.566-2.367,1.617-4.267,3.15-5.7c1.5-1.467,3.033-2.034,4.6-1.7c1.7,0.367,2.85,1.45,3.45,3.25
			C45.717,80,45.55,82.567,44.55,85.7z"/>
		<path style="fill-rule:evenodd;clip-rule:evenodd;fill:#FFE7B2;" d="M93.25,89.35L91.3,87.45c-0.133-0.267-0.184-0.601-0.149-1
			c0-0.767,0.333-1.417,1-1.95c0.666-0.566,1.3-0.75,1.899-0.55c0.3,0.133,0.533,0.3,0.7,0.5l0.8,1.45c0.634,1.1,1.233,2,1.8,2.7
			c0.867,1.134,1.817,2.084,2.851,2.851L98.85,93.2c-1.066,1-1.916,0.983-2.55-0.05C95.667,92.117,94.65,90.85,93.25,89.35z"/>
		<g>
			<path style="fill-rule:evenodd;clip-rule:evenodd;fill:#CEAD65;" d="M91.3,87.45c-0.166-0.367-0.217-0.8-0.149-1.3
				c0.199,0.566,0.583,1.133,1.149,1.699c1,1,1.733,1.65,2.2,1.95c0.366,0.233,0.7,0.317,1,0.25c-1.267-0.833-2.267-1.767-3-2.8
				l-1.15-1.75c0.134-0.267,0.284-0.483,0.45-0.65c0.066,0.467,0.184,0.867,0.351,1.2c0.866,1.5,1.833,2.533,2.899,3.101
				c0.3,0.199,0.584,0.399,0.851,0.6c0.1,0.066,0.166-0.1,0.199-0.5c0-0.934-0.816-2.184-2.449-3.75l-1.301-1.15L93,84
				c0.267,0.5,0.55,0.85,0.85,1.05c1.134,0.667,1.917,1.733,2.351,3.2c0.467,1.4,0.717,1.967,0.75,1.7
				c0.066-0.333,0.017-0.75-0.15-1.25c-0.366-0.833-0.616-1.483-0.75-1.95c0.634,0.934,1.066,1.55,1.3,1.85
				c0.434,0.567,0.917,1.117,1.45,1.65c-0.267,1.4-0.483,2.1-0.649,2.1l-2.75-0.5c-0.7-0.899-1.601-1.899-2.7-3L91.3,87.45z"/>
			<path style="fill-rule:evenodd;clip-rule:evenodd;fill:#CEAD65;" d="M94.75,84.45l0.65,1.2c-0.7-0.767-1.184-1.333-1.45-1.7
				C94.283,84.05,94.55,84.217,94.75,84.45z"/>
		</g>
		
			<radialGradient id="SVGID_10_" cx="120.2344" cy="-70.5498" r="12.0861" gradientTransform="matrix(0.2772 0.9608 0.8977 -0.2948 130.4085 -42.818)" gradientUnits="userSpaceOnUse">
			<stop  offset="0" style="stop-color:#5BFE73"/>
			<stop  offset="1" style="stop-color:#00913C"/>
		</radialGradient>
		<path style="fill-rule:evenodd;clip-rule:evenodd;fill:url(#SVGID_10_);" d="M109,94.9c0.8,2.199,0.75,4.383-0.15,6.55
			c-0.866,2.167-2.333,3.667-4.399,4.5c-2.066,0.866-4.117,0.816-6.15-0.15c-2.133-1-3.583-2.683-4.35-5.05l0.25,0.1
			c1.133-0.633,1.833-1.566,2.1-2.8c0.167-0.8,0.033-1.517-0.399-2.149l-0.7-0.75c-0.233-0.101-0.584-0.184-1.05-0.25
			c-0.034-0.167-0.034-0.283,0-0.351c0.899-2.166,2.383-3.683,4.449-4.55c2.034-0.833,4.067-0.783,6.101,0.15
			C106.767,91.117,108.2,92.7,109,94.9z"/>
		
			<use xlink:href="#FlashAICB_x2F_Layer_5_x2F__x3C_Path_x3E__x5F_30"  width="-32766" height="-32766" x="16383" y="16383" transform="matrix(1 0 0 -1 94.7998 89.8496)" style="overflow:visible;opacity:0.1797;enable-background:new    ;"/>
		
			<use xlink:href="#FlashAICB_x2F_Layer_5_x2F__x3C_Path_x3E__x5F_29"  width="-32766" height="-32766" x="16383" y="16383" transform="matrix(1 0 0 -1 93.9502 95.5498)" style="overflow:visible;opacity:0.1016;enable-background:new    ;"/>
		<path style="fill-rule:evenodd;clip-rule:evenodd;fill:#FFE7B2;" d="M94.75,106.6c0.634-1.033,1.15-2.3,1.55-3.8l0.351-1.95
			c0.166-0.333,0.433-0.666,0.8-1c0.733-0.666,1.6-0.933,2.6-0.8c1.334,0.167,2.217,0.983,2.65,2.45
			c0.399,1.3,0.316,2.417-0.25,3.35c-0.4,0.634-1.167,1.983-2.3,4.051L94.75,106.6z"/>
		<path style="fill-rule:evenodd;clip-rule:evenodd;fill:#CEAD65;" d="M100.95,99.3c0.333,0.167,0.666,0.417,1,0.75v1l-0.55,2.8
			c0.133,0.268,0.283,0.233,0.449-0.1c0.434-0.967,0.717-1.75,0.851-2.35c0.434,1.333,0.35,2.483-0.25,3.449l-1.101,1.9
			c-0.1,0.066-0.199,0.066-0.3,0c-1.2-0.4-2.967-1.133-5.3-2.2c0.3-0.8,0.533-1.649,0.7-2.55l0.2-1.15
			c0.1-0.199,0.267-0.416,0.5-0.649l-0.2,1.399c0,0.301,0.083,0.551,0.25,0.75c0.133,0.233,0.25,0.217,0.35-0.05
			c0.134-0.366,0.167-1.233,0.101-2.6l0.85-0.5l-0.1,2.45c-0.034,0.533,0.033,0.967,0.199,1.3c0.167,0.366,0.317,0.383,0.45,0.05
			c0.101-0.233,0.167-0.833,0.2-1.8c0.066-1.167,0.116-1.884,0.15-2.15h0.6c0.066,1.267,0.167,2.084,0.3,2.45
			c0.101,0.3,0.167,0.767,0.2,1.4c0.033,0.267,0.134,0.267,0.3,0C101.066,102.533,101.116,101.333,100.95,99.3z"/>
		
			<radialGradient id="SVGID_11_" cx="123.1348" cy="-73.522" r="14.5021" gradientTransform="matrix(0.2112 0.9774 0.9137 -0.2232 138.6208 -33.8706)" gradientUnits="userSpaceOnUse">
			<stop  offset="0" style="stop-color:#FF5259"/>
			<stop  offset="1" style="stop-color:#B72A30"/>
		</radialGradient>
		<path style="fill-rule:evenodd;clip-rule:evenodd;fill:url(#SVGID_11_);" d="M106.1,113.2c-0.933,2.6-2.583,4.467-4.949,5.6
			c-2.367,1.134-4.767,1.217-7.2,0.25s-4.184-2.733-5.25-5.3c-1.101-2.533-1.184-5.1-0.25-7.7c0.899-2.6,2.533-4.467,4.899-5.6
			c2.367-1.134,4.767-1.217,7.2-0.25s4.2,2.733,5.3,5.3C106.917,108.033,107,110.6,106.1,113.2z"/>
		
			<use xlink:href="#FlashAICB_x2F_Layer_5_x2F__x3C_Path_x3E__x5F_25"  width="-32766" height="-32766" x="16383" y="16383" transform="matrix(1 0 0 -1 88.2002 108.7002)" style="overflow:visible;opacity:0.1914;enable-background:new    ;"/>
		
			<use xlink:href="#FlashAICB_x2F_Layer_5_x2F__x3C_Path_x3E__x5F_24"  width="-32766" height="-32766" x="16383" y="16383" transform="matrix(1 0 0 -1 90.8496 100.4004)" style="overflow:visible;opacity:0.1406;enable-background:new    ;"/>
		<path style="fill-rule:evenodd;clip-rule:evenodd;fill:#FFE7B2;" d="M77.35,94.55c0.933,0.967,2.133,2.067,3.6,3.3
			c3.533,3.034,7.133,5.567,10.8,7.601l0.45,0.649c0.2,0.634,0.066,1.417-0.4,2.351c-0.467,0.933-1.066,1.533-1.8,1.8l-0.95,0.1
			c-1.7-1.6-3.633-3.283-5.8-5.05c-4.3-3.566-7.583-5.783-9.85-6.649c-2.267-0.867-2.433-2-0.5-3.4l3.55-1.8L77.35,94.55z"/>
		<g>
			<path style="fill-rule:evenodd;clip-rule:evenodd;fill:#CEAD65;" d="M90.35,110.05c-0.267,0.2-0.566,0.3-0.899,0.3
				c-0.601-0.8-1.101-1.399-1.5-1.8c-1.033-1.1-2.351-1.967-3.95-2.6l-1.95-1.601c1.767,0.667,2.883,1.15,3.351,1.45
				C87.366,107.033,89.017,108.45,90.35,110.05z"/>
			<path style="fill-rule:evenodd;clip-rule:evenodd;fill:#CEAD65;" d="M86.2,101.9c1.205,0.849,2.389,1.632,3.55,2.35l1.35,1.45
				c0.5,0.5,0.9,0.833,1.2,1l-0.1,0.649c-0.434-0.3-0.967-0.732-1.601-1.3c-0.399-0.333-1.05-0.983-1.949-1.95
				C87.884,103.3,87.066,102.566,86.2,101.9z M83.05,100.3c-1.333-0.399-2.133-0.683-2.4-0.85L77.6,97.1l-0.1,0.2
				c0.1,0.3,0.667,0.851,1.7,1.65c0.833,0.633,1.983,1.566,3.45,2.8c1.267,1.066,2.367,1.867,3.3,2.4
				c0.666,0.399,1.75,1.033,3.25,1.899c1.267,0.767,2.2,1.434,2.8,2l-0.45,0.851c-1.1-1.033-2.1-1.867-3-2.5
				c-0.566-0.4-2.133-1.268-4.7-2.601c-2.1-1.133-3.417-2-3.95-2.6l-3-3.601c-0.467-0.066-0.85-0.083-1.15-0.05
				c-0.667,0.067-0.65,0.317,0.05,0.75c0.5,0.3,0.967,0.783,1.4,1.45c0.267,0.4,0.683,1.033,1.25,1.9
				c-1.6-1.134-2.967-1.983-4.1-2.551c-1.2-1.833-1.25-3-0.15-3.5c0.633-0.267,1.5-0.216,2.6,0.15c0.567,0.167,1.05,0.367,1.45,0.6
				l0.95,0.9c0.933,0.733,2.1,1.417,3.5,2.05c1.006,0.786,1.998,1.527,2.975,2.226C84.919,101.031,84.044,100.623,83.05,100.3z"/>
		</g>
		
			<use xlink:href="#FlashAICB_x2F_Layer_5_x2F__x3C_Path_x3E__x5F_22"  width="-32766" height="-32766" x="16383" y="16383" transform="matrix(1 0 0 -1 74.6499 96.2002)" style="overflow:visible;opacity:0.3398;enable-background:new    ;"/>
		
			<use xlink:href="#FlashAICB_x2F_Layer_5_x2F__x3C_Path_x3E__x5F_21"  width="-32766" height="-32766" x="16383" y="16383" transform="matrix(1 0 0 -1 71.6001 93.9004)" style="overflow:visible;opacity:0.25;enable-background:new    ;"/>
		<path style="fill-rule:evenodd;clip-rule:evenodd;fill:#00ACDD;" d="M75.55,81.8c2.567,1.233,4.367,3.25,5.4,6.05
			c1.033,2.801,0.983,5.567-0.15,8.301c-1.133,2.767-3,4.683-5.6,5.75c-2.633,1.1-5.233,1.033-7.8-0.2c-1.6-0.733-2.933-1.833-4-3.3
			c-1.033-1.467-1.683-3.084-1.95-4.851l1.55,0.3c0.3,0,0.633-0.1,1-0.3c0.733-0.467,1.25-1.267,1.55-2.399
			c0.267-1.033,0.133-1.917-0.4-2.65l-0.9-0.8l-1.85-0.8c1.2-2.601,3.067-4.384,5.6-5.351C70.533,80.55,73.05,80.633,75.55,81.8z"/>
		<path style="fill-rule:evenodd;clip-rule:evenodd;fill:#2BC8F3;" d="M77.1,84.8c0.967,1.167,1.217,2.45,0.75,3.851
			c-0.533,1.566-1.85,2.899-3.95,4c-1.333,0.733-2.833,0.883-4.5,0.449c-1.467-0.366-2.75-1.1-3.85-2.199
			c0.2-0.967,0.034-1.783-0.5-2.45l-0.8-0.75L64,87.6v-0.25c0.2-1.566,1.083-2.966,2.65-4.2c1.467-1.1,2.783-1.6,3.95-1.5
			c1.767,0.167,3.083,0.467,3.95,0.9C75.317,82.95,76.167,83.7,77.1,84.8z"/>
		
			<use xlink:href="#FlashAICB_x2F_Layer_5_x2F__x3C_Path_x3E__x5F_18"  width="-32766" height="-32766" x="16383" y="16383" transform="matrix(1 0 0 -1 62.6499 87.7002)" style="overflow:visible;opacity:0.2695;enable-background:new    ;"/>
		
			<use xlink:href="#FlashAICB_x2F_Layer_5_x2F__x3C_Path_x3E__x5F_17"  width="-32766" height="-32766" x="16383" y="16383" transform="matrix(1 0 0 -1 61.4502 80.8999)" style="overflow:visible;opacity:0.5117;enable-background:new    ;"/>
		
			<use xlink:href="#FlashAICB_x2F_Layer_5_x2F__x3C_Path_x3E__x5F_16"  width="-32766" height="-32766" x="16383" y="16383" transform="matrix(1 0 0 -1 62.1499 87.6504)" style="overflow:visible;opacity:0.1289;enable-background:new    ;"/>
		<path style="fill-rule:evenodd;clip-rule:evenodd;fill:#FFFFFF;" d="M45.675,86.925c0.421-1.1,0.763-2.292,1.025-3.575
			c0.6-2.967,0.433-5.067-0.5-6.3c-0.967-1.333-2.133-2.2-3.5-2.6c-1.5-0.434-2.917-0.217-4.25,0.65
			c-1.227,0.783-2.169,1.492-2.825,2.125c0.689-0.705,1.464-1.379,2.325-2.025c2.133-1.567,3.9-2.034,5.3-1.4
			c1.667,0.733,2.8,1.733,3.4,3c0.4,0.8,0.633,1.967,0.7,3.5C47.414,81.789,46.855,83.997,45.675,86.925z"/>
		
			<use xlink:href="#FlashAICB_x2F_Layer_5_x2F__x3C_Path_x3E__x5F_14"  width="-32766" height="-32766" x="16383" y="16383" transform="matrix(1 0 0 -1 49.1001 80.8501)" style="overflow:visible;opacity:0.7695;enable-background:new    ;"/>
		<path style="fill-rule:evenodd;clip-rule:evenodd;fill:#FFFFFF;" d="M91.35,95.65c1.801,0.666,1.184,0.683-1.85,0.05
			c-3-0.601-4.583-1.083-4.75-1.45c-0.133-0.333,0.7-0.283,2.5,0.15C88.783,94.767,90.15,95.184,91.35,95.65z"/>
		<path style="fill-rule:evenodd;clip-rule:evenodd;fill:#FFFFFF;" d="M123.9,97.95c0.533,0.066,1.166,0.467,1.899,1.2
			c0.867,0.8,1.45,1.683,1.75,2.649c0.4,1.434,0.217,3.25-0.55,5.45c0.1-1.467,0.033-2.75-0.2-3.85c-0.166-0.7-0.383-1.367-0.649-2
			l-0.4-0.75c-0.033,1.5-0.267,2.149-0.7,1.949c-0.399-0.399-0.783-0.732-1.149-1c-0.7-0.533-1.601-0.8-2.7-0.8
			c-1.101,0-3.4-0.35-6.9-1.05l-4.95-1.1c6.7,1.066,10.483,1.433,11.351,1.1c0.434-0.167,0.833-0.333,1.2-0.5
			c0.166-0.066,0.449,0,0.85,0.2c0.6,0.267,1.267,0.967,2,2.1c0.134-0.866,0-1.583-0.4-2.149c-0.433-0.533-0.699-0.9-0.8-1.101
			C123.384,98.033,123.5,97.917,123.9,97.95z"/>
		<path style="fill-rule:evenodd;clip-rule:evenodd;fill:#FFFFFF;" d="M72.25,82.9c0.767,0.5,0.867,0.967,0.3,1.4
			c-0.5,0.4-1.167,0.583-2,0.55c-1.167-0.033-1.85-0.083-2.05-0.15c-0.6-0.133-0.75-0.483-0.45-1.05c0.3-0.6,0.95-0.966,1.95-1.1
			C70.933,82.417,71.683,82.533,72.25,82.9z"/>
		<path style="fill-rule:evenodd;clip-rule:evenodd;fill:#FFFFFF;" d="M66.6,84.9c0.433,0.1,0.55,0.434,0.35,1
			c-0.2,0.567-0.483,0.717-0.85,0.45c-0.333-0.232-0.4-0.55-0.2-0.95C66.1,85,66.333,84.833,66.6,84.9z"/>
		<path style="fill-rule:evenodd;clip-rule:evenodd;fill:#FFFFFF;" d="M98.05,101.2c0.601,0.267,0.816,0.633,0.65,1.1
			c-0.134,0.4-0.483,0.717-1.05,0.95c-0.667,0.3-1.334,0.45-2,0.45c-0.834,0-1.25-0.25-1.25-0.75c0-0.566,0.449-1.066,1.35-1.5
			S97.417,100.934,98.05,101.2z"/>
		<path style="fill-rule:evenodd;clip-rule:evenodd;fill:#FFFFFF;" d="M93.25,103.75c0.434,0.066,0.566,0.316,0.4,0.75
			c-0.134,0.434-0.417,0.566-0.851,0.4c-0.399-0.134-0.5-0.367-0.3-0.7C92.733,103.867,92.983,103.717,93.25,103.75z"/>
		<path style="fill-rule:evenodd;clip-rule:evenodd;fill:#CEAD65;" d="M87.75,104.7c-0.566,0.333-1.2,0.083-1.9-0.75
			c-0.833-0.934-0.883-1.233-0.149-0.9C86.467,103.417,87.15,103.967,87.75,104.7z"/>
		<path style="fill-rule:evenodd;clip-rule:evenodd;fill:#FFFFFF;" d="M84.8,101.6c0.667,0.7,2.8,2.45,6.4,5.25
			c0.934,0.7,0.883,0.75-0.15,0.15c-1-0.6-2.05-1.316-3.149-2.15c-4.134-3.133-6.217-4.933-6.25-5.399
			c-0.033-0.3,0.367-0.167,1.2,0.399C83.65,100.417,84.3,101,84.8,101.6z"/>
		<path style="fill-rule:evenodd;clip-rule:evenodd;fill:#FFFFFF;" d="M86.75,70.05c0.7,0.4,0.917,0.817,0.65,1.25
			c-0.2,0.367-0.634,0.684-1.301,0.95c-1.566,0.667-2.649,0.883-3.25,0.65c-0.567-0.167-0.667-0.7-0.3-1.6
			c0.333-0.8,0.967-1.3,1.9-1.5C85.316,69.6,86.083,69.684,86.75,70.05z"/>
		<path style="fill-rule:evenodd;clip-rule:evenodd;fill:#FFFFFF;" d="M81,73.1c0.567,0.267,0.75,0.617,0.55,1.05
			c-0.2,0.434-0.566,0.517-1.1,0.25c-0.467-0.233-0.567-0.55-0.3-0.95C80.417,73.05,80.7,72.934,81,73.1z"/>
		<path style="fill-rule:evenodd;clip-rule:evenodd;fill:#FFFFFF;" d="M101.25,91c0.4,0.4,0.384,0.733-0.05,1
			c-0.233,0.167-0.684,0.384-1.351,0.65c-0.433,0.199-0.833,0.183-1.199-0.051c-0.4-0.267-0.417-0.583-0.051-0.949
			c0.4-0.4,0.851-0.684,1.351-0.851C100.517,90.667,100.95,90.733,101.25,91z"/>
		<path style="fill-rule:evenodd;clip-rule:evenodd;fill:#FFFFFF;" d="M97.7,92.9c0.2,0.3,0.116,0.566-0.25,0.8
			c-0.334,0.233-0.584,0.217-0.75-0.05c-0.134-0.267-0.05-0.517,0.25-0.75S97.5,92.667,97.7,92.9z"/>
		<path style="fill-rule:evenodd;clip-rule:evenodd;fill:#CEAD65;" d="M94.8,87.95c-0.133-0.2-0.283-0.384-0.45-0.55
			c-0.333-0.367-0.6-0.533-0.8-0.5S93.4,87.083,93.7,87.35c0.166,0.134,0.35,0.268,0.55,0.4c-0.533-0.1-0.9-0.35-1.1-0.75
			c-0.134-0.366-0.134-0.6,0-0.7c0.166-0.133,0.416-0.017,0.75,0.351C94.333,87.15,94.634,87.583,94.8,87.95z"/>
		<path style="fill-rule:evenodd;clip-rule:evenodd;fill:#FFFFFF;" d="M95.45,87.1c0.399,0.667,0.333,1.067-0.2,1.2
			c-0.167,0.067-0.583-0.283-1.25-1.05c-0.866-0.934-1.316-1.417-1.35-1.45c-0.2-0.2-0.25-0.417-0.15-0.65s0.267-0.35,0.5-0.35
			c0.2-0.033,0.616,0.25,1.25,0.85C94.783,86.217,95.184,86.7,95.45,87.1z"/>
	</g>
</g>
<g>
	
		<use xlink:href="#FlashAICB_x5F_1_x2F_Isolation_Mode_x2F__x3C_Path_x3E__x5F_2"  width="118.7" height="57.1" y="-57.1" transform="matrix(1 0 0 -1 25.9502 85.1001)" style="overflow:visible;opacity:0.2813;enable-background:new    ;"/>
	
		<use xlink:href="#FlashAICB_x5F_1_x2F_Isolation_Mode_x2F__x3C_Path_x3E__x5F_1"  width="110" height="55.8" y="-55.8" transform="matrix(1 0 0 -1 30.1001 26.2998)" style="overflow:visible;opacity:0.1094;enable-background:new    ;"/>
	
		<use xlink:href="#FlashAICB_x5F_1_x2F_Isolation_Mode_x2F__x3C_Path_x3E_"  width="110" height="61.294" y="-61.294" transform="matrix(1 0 0 -1 30.1001 26.2998)" style="overflow:visible;opacity:0.0898;enable-background:new    ;"/>
</g>
</svg>
