<?xml version="1.0" encoding="iso-8859-1"?>
<!-- Generator: Adobe Illustrator 15.1.0, SVG Export Plug-In . SVG Version: 6.00 Build 0)  -->
<!DOCTYPE svg PUBLIC "-//W3C//DTD SVG 1.1//EN" "http://www.w3.org/Graphics/SVG/1.1/DTD/svg11.dtd">
<svg version="1.1" id="FlashAICB" xmlns="http://www.w3.org/2000/svg" xmlns:xlink="http://www.w3.org/1999/xlink" x="0px" y="0px"
	 width="170.7px" height="171.3px" viewBox="0 0 170.7 171.3" style="enable-background:new 0 0 170.7 171.3;" xml:space="preserve"
	>
<symbol  id="FlashAICB_x5F_0_x2F_Isolation_Mode_x2F__x3C_Path_x3E_" viewBox="0 -118.65 118.85 118.65">
	<g id="Layer_1_2_">
		
			<radialGradient id="SVGID_1_" cx="59.4248" cy="-59.3252" r="59.375" gradientTransform="matrix(1 0 0 -1 0 -118.6504)" gradientUnits="userSpaceOnUse">
			<stop  offset="0" style="stop-color:#C9EEE7"/>
			<stop  offset="0.0863" style="stop-color:#BFE7E0"/>
			<stop  offset="0.2392" style="stop-color:#A3D5CF"/>
			<stop  offset="0.4353" style="stop-color:#75B7B2"/>
			<stop  offset="0.6078" style="stop-color:#499996"/>
			<stop  offset="0.8039" style="stop-color:#4A9996"/>
			<stop  offset="0.8745" style="stop-color:#519996"/>
			<stop  offset="0.9255" style="stop-color:#5D9A96"/>
			<stop  offset="0.9686" style="stop-color:#6D9A96"/>
			<stop  offset="1" style="stop-color:#819B96"/>
		</radialGradient>
		<path style="fill-rule:evenodd;clip-rule:evenodd;fill:url(#SVGID_1_);" d="M118.85-59.35c0-16.367-5.8-30.35-17.4-41.95
			c-11.6-11.567-25.6-17.35-42-17.35c-16.434,0-30.45,5.783-42.05,17.35C5.8-89.7,0-75.717,0-59.35c0,16.4,5.8,30.383,17.4,41.95
			C29-5.8,43.017,0,59.45,0c16.4,0,30.4-5.8,42-17.4C113.05-28.967,118.85-42.95,118.85-59.35z"/>
	</g>
</symbol>
<symbol  id="FlashAICB_x5F_1_x2F_Layer_34_copy_2_x2F__x3C_Path_x3E_" viewBox="0 -61.294 110.05 61.294">
	<g id="Layer_1_5_">
		<path style="fill-rule:evenodd;clip-rule:evenodd;fill:#FFFFFF;" d="M106.5-34.35c2.367-5.633,3.55-10.933,3.55-15.9
			s-1.45-8.083-4.35-9.35c-2.333-1.066-6.25-1.066-11.75,0c-7.267,1.767-13.1,3.117-17.5,4.05c-8,1.7-15.133,2.55-21.4,2.55
			c-6.333,0-13.483-0.917-21.45-2.75c-8.333-2.2-14.15-3.683-17.45-4.45c-5.566-1.267-9.5-1.433-11.8-0.5C1.45-59.5,0-56.433,0-51.5
			c0,5.5,1.167,11.167,3.5,17C6-28.333,9.483-22.767,13.95-17.8C24.683-5.933,38.383,0,55.05,0c16.434,0,30.1-5.983,41-17.95
			C100.517-22.883,104-28.35,106.5-34.35z"/>
	</g>
</symbol>
<symbol  id="FlashAICB_x5F_1_x2F_Layer_34_copy_2_x2F__x3C_Path_x3E__x5F_1" viewBox="0 -55.75 110.05 55.75">
	<g id="Layer_1_4_">
		
			<linearGradient id="SVGID_2_" gradientUnits="userSpaceOnUse" x1="16165.2637" y1="-53.8804" x2="16221.0391" y2="-53.8804" gradientTransform="matrix(1.792918e-005 1 -1 -0.001 0.8545 -16221.1064)">
			<stop  offset="0.1294" style="stop-color:#E5B9B2"/>
			<stop  offset="0.9255" style="stop-color:#FFFFFF"/>
		</linearGradient>
		<path style="fill-rule:evenodd;clip-rule:evenodd;fill:url(#SVGID_2_);" d="M96.05-17.95c4.467-4.933,7.95-10.4,10.45-16.4
			c2.367-5.633,3.55-10.933,3.55-15.9c0-1.633-0.167-3.117-0.5-4.45c-1.867,11.034-7.267,20.85-16.2,29.45
			c-10.533,10.133-23.3,15.2-38.3,15.2c-15.267,0-28.117-5.05-38.55-15.15C7.533-33.9,2.183-44.083,0.45-55.75
			C0.15-54.383,0-52.967,0-51.5c0,5.5,1.167,11.167,3.5,17C6-28.333,9.483-22.767,13.95-17.8C24.683-5.933,38.383,0,55.05,0
			C71.483,0,85.15-5.983,96.05-17.95z"/>
	</g>
</symbol>
<symbol  id="FlashAICB_x5F_1_x2F_Layer_34_copy_2_x2F__x3C_Path_x3E__x5F_2" viewBox="0 -57.1 118.7 57.1">
	<g id="Layer_1_3_">
		
			<radialGradient id="SVGID_3_" cx="59.3501" cy="-28.5498" r="46.5701" gradientTransform="matrix(1 0 0 -1 0 -57.0996)" gradientUnits="userSpaceOnUse">
			<stop  offset="0" style="stop-color:#000000;stop-opacity:0"/>
			<stop  offset="0.651" style="stop-color:#000000;stop-opacity:0.4"/>
		</radialGradient>
		<path style="fill-rule:evenodd;clip-rule:evenodd;fill:url(#SVGID_3_);" d="M95.5-30.35c10.733,7.7,18.3,17.733,22.7,30.1L118.7,0
			c-0.567-15.9-6.6-29.383-18.1-40.45C89.1-51.55,75.35-57.1,59.35-57.1c-15.733,0-29.317,5.367-40.75,16.1
			C7.233-30.3,1.033-17.183,0-1.65c4.633-12,12.217-21.7,22.75-29.1c10.833-7.567,22.867-11.35,36.1-11.35
			C72.35-42.1,84.567-38.183,95.5-30.35z"/>
	</g>
</symbol>
<g>
	<path style="fill-rule:evenodd;clip-rule:evenodd;fill:#66757A;" d="M146.45,25.5c7.866,7.867,13.967,16.9,18.3,27.1
		c4.467,10.566,6.7,21.633,6.7,33.2c0,11.567-2.233,22.634-6.7,33.2c-4.333,10.2-10.434,19.233-18.3,27.1
		c-7.9,7.9-16.95,14.017-27.15,18.351c-10.566,4.467-21.633,6.7-33.2,6.7c-11.566,0-22.633-2.233-33.2-6.7
		C42.7,160.116,33.667,154,25.8,146.1C17.9,138.233,11.783,129.2,7.45,119c-4.467-10.566-6.7-21.633-6.7-33.2
		c0-11.566,2.233-22.633,6.7-33.2C11.783,42.4,17.9,33.367,25.8,25.5c7.867-7.9,16.9-14.017,27.1-18.35
		c10.567-4.466,21.633-6.7,33.2-6.7c11.567,0,22.634,2.233,33.2,6.7C129.5,11.483,138.55,17.6,146.45,25.5z"/>
	
		<linearGradient id="SVGID_4_" gradientUnits="userSpaceOnUse" x1="-171.8354" y1="86.125" x2="-1.1353" y2="86.125" gradientTransform="matrix(5.859089e-006 -1 1 -0.001 1.466054e-004 -4.747650e-005)">
		<stop  offset="0.0196" style="stop-color:#343745"/>
		<stop  offset="0.251" style="stop-color:#6C6F75;stop-opacity:0.6863"/>
		<stop  offset="0.4941" style="stop-color:#A0A3A3;stop-opacity:0.3922"/>
		<stop  offset="0.7098" style="stop-color:#C7C9C5;stop-opacity:0.1765"/>
		<stop  offset="0.8824" style="stop-color:#DEE0D9;stop-opacity:0.0471"/>
		<stop  offset="0.9882" style="stop-color:#E7E9E1;stop-opacity:0"/>
	</linearGradient>
	<path style="fill-rule:evenodd;clip-rule:evenodd;fill:url(#SVGID_4_);" d="M146.45,26.1c7.866,7.867,13.967,16.9,18.3,27.1
		c4.467,10.566,6.7,21.633,6.7,33.2c0,11.566-2.233,22.633-6.7,33.199c-4.333,10.2-10.434,19.233-18.3,27.101
		c-7.9,7.899-16.95,14.017-27.15,18.35c-10.566,4.467-21.633,6.7-33.2,6.7c-11.566,0-22.633-2.233-33.2-6.7
		c-10.2-4.333-19.233-10.45-27.1-18.35c-7.867-7.867-13.966-16.9-18.3-27.101C3.033,109.033,0.8,97.967,0.8,86.4
		c0-11.567,2.233-22.634,6.7-33.2C11.833,43,17.933,33.967,25.8,26.1c7.9-7.9,16.934-14.017,27.1-18.35
		c10.567-4.467,21.633-6.7,33.2-6.7c11.567,0,22.634,2.233,33.2,6.7C129.5,12.083,138.55,18.2,146.45,26.1z"/>
	<g>
		<g>
			
				<linearGradient id="SVGID_5_" gradientUnits="userSpaceOnUse" x1="-157.9351" y1="86.126" x2="-13.8354" y2="86.126" gradientTransform="matrix(6.939625e-006 -1 1 -0.001 1.071970e-004 4.449275e-004)">
				<stop  offset="0" style="stop-color:#B8D1DE"/>
				<stop  offset="0.0235" style="stop-color:#B7CEDB;stop-opacity:0.9647"/>
				<stop  offset="0.2784" style="stop-color:#AAB0BE;stop-opacity:0.6353"/>
				<stop  offset="0.502" style="stop-color:#A29EAD;stop-opacity:0.4314"/>
				<stop  offset="0.6549" style="stop-color:#9F97A7;stop-opacity:0.3569"/>
				<stop  offset="1" style="stop-color:#403D5A"/>
			</linearGradient>
			<path style="fill-rule:evenodd;clip-rule:evenodd;fill:url(#SVGID_5_);" d="M152.5,57.75c3.8,8.934,5.7,18.283,5.7,28.05
				s-1.9,19.117-5.7,28.05c-3.634,8.634-8.783,16.267-15.45,22.9c-6.633,6.634-14.267,11.783-22.899,15.45
				c-8.934,3.767-18.284,5.649-28.051,5.649c-9.766,0-19.116-1.883-28.05-5.649c-8.633-3.667-16.267-8.816-22.9-15.45
				s-11.783-14.267-15.45-22.9c-3.767-8.933-5.65-18.283-5.65-28.05s1.883-19.116,5.65-28.05c3.667-8.633,8.816-16.267,15.45-22.9
				s14.267-11.784,22.9-15.45c8.934-3.767,18.284-5.65,28.05-5.65c19.9,0,36.884,7.033,50.95,21.1
				C143.717,41.483,148.866,49.117,152.5,57.75z"/>
		</g>
	</g>
	<g>
		
			<linearGradient id="SVGID_6_" gradientUnits="userSpaceOnUse" x1="-151.7358" y1="86.126" x2="-19.9355" y2="86.126" gradientTransform="matrix(7.590133e-006 -1 1 -0.001 9.770805e-006 4.449275e-004)">
			<stop  offset="0.0745" style="stop-color:#375350"/>
			<stop  offset="0.1922" style="stop-color:#3F6D66"/>
			<stop  offset="0.4431" style="stop-color:#54AE9F"/>
			<stop  offset="0.4784" style="stop-color:#57B7A7"/>
			<stop  offset="0.9216" style="stop-color:#E3D1B9"/>
		</linearGradient>
		<path style="fill-rule:evenodd;clip-rule:evenodd;fill:url(#SVGID_6_);" d="M86.1,19.85c18.167,0,33.7,6.433,46.601,19.3
			c12.866,12.9,19.3,28.434,19.3,46.6c0,18.167-6.434,33.684-19.3,46.55c-12.9,12.9-28.434,19.351-46.601,19.351
			c-18.133,0-33.649-6.45-46.55-19.351c-12.867-12.866-19.3-28.383-19.3-46.55c0-18.167,6.433-33.7,19.3-46.6
			C52.417,26.283,67.933,19.85,86.1,19.85z"/>
		<path style="fill-rule:evenodd;clip-rule:evenodd;fill:#153330;" d="M86.1,20.7c-17.966,0-33.3,6.35-46,19.05
			c-12.7,12.7-19.05,28.033-19.05,46s6.35,33.3,19.05,46c12.733,12.7,28.066,19.05,46,19.05c17.967,0,33.301-6.35,46-19.05
			c12.7-12.7,19.051-28.033,19.051-46s-6.351-33.3-19.051-46C119.4,27.05,104.066,20.7,86.1,20.7z M111.65,24.1
			c8.133,3.367,15.35,8.2,21.649,14.5c6.3,6.267,11.134,13.466,14.5,21.6c3.333,8.1,5,16.616,5,25.55c0,8.9-1.667,17.417-5,25.55
			c-3.366,8.101-8.2,15.3-14.5,21.601c-6.3,6.3-13.517,11.133-21.649,14.5c-8.101,3.366-16.617,5.05-25.551,5.05
			c-8.899,0-17.399-1.684-25.5-5.05c-8.133-3.367-15.35-8.2-21.65-14.5c-6.3-6.301-11.134-13.5-14.5-21.601
			c-3.367-8.133-5.05-16.649-5.05-25.55c0-8.934,1.684-17.45,5.05-25.55c3.366-8.134,8.2-15.333,14.5-21.6
			c6.3-6.3,13.517-11.133,21.65-14.5c8.1-3.367,16.6-5.05,25.5-5.05C95.033,19.05,103.55,20.733,111.65,24.1z"/>
	</g>
</g>
<use xlink:href="#FlashAICB_x5F_0_x2F_Isolation_Mode_x2F__x3C_Path_x3E_"  width="118.85" height="118.65" y="-118.65" transform="matrix(1 0 0 -1 25.6001 25.4502)" style="overflow:visible;opacity:0.3789;enable-background:new    ;"/>
<linearGradient id="SVGID_7_" gradientUnits="userSpaceOnUse" x1="-110.4561" y1="81.0898" x2="-72.0061" y2="81.0898" gradientTransform="matrix(2.600780e-005 -1 1 -0.001 -9.223969e-005 4.449275e-004)">
	<stop  offset="0" style="stop-color:#007A6B"/>
	<stop  offset="0.7098" style="stop-color:#91DEBC"/>
</linearGradient>
<path style="fill-rule:evenodd;clip-rule:evenodd;fill:url(#SVGID_7_);" d="M43.2,73.25c1.2,0.1,2.3,0.4,3.3,0.9
	c0.667,0.3,1.267,0.65,1.8,1.05l0.6,0.5l0.8,0.85c0.566,0.6,1,1.15,1.3,1.65c2.667,2.866,6.167,5.433,10.5,7.7
	c1.233-1.5,2.684-2.683,4.35-3.55c1.7-0.867,3.483-1.35,5.35-1.45c0.2-1.033,0.5-2.017,0.9-2.95c1.233-2.967,3.133-5.35,5.7-7.15
	c2.6-1.8,5.434-2.7,8.5-2.7c2.2,0,4.316,0.483,6.351,1.45c3.6,1.7,6.216,4.467,7.85,8.3c1.6,3.767,1.816,7.617,0.65,11.55
	c1.933-0.167,3.783,0.183,5.55,1.05c1.566,0.733,2.916,1.783,4.05,3.149c1.1,1.367,1.884,2.9,2.35,4.601
	c1.267,0.1,2.384,0.149,3.351,0.149c1.467,0,2.666-0.133,3.6-0.399l0.9-0.351c0.833-0.6,1.75-0.767,2.75-0.5
	c1.033-0.1,2.149,0.117,3.35,0.65c2.367,1.134,4.05,2.917,5.05,5.35c0.967,2.467,1.084,5.184,0.351,8.15
	c-0.134,0.6-0.267,1.066-0.4,1.4c-0.7,2.133-1.866,3.899-3.5,5.3c-1.633,1.399-3.483,2.217-5.55,2.45h-0.1
	c-0.534,0.066-1.051,0.066-1.551,0c-0.3,0-0.75-0.067-1.35-0.2l-0.35-0.101c-0.601-0.166-1.067-0.333-1.4-0.5
	c-0.8-0.333-1.634-0.933-2.5-1.8c-1-0.633-2.717-1.566-5.15-2.8c-0.166,1.134-0.399,2.1-0.699,2.9
	c-0.934,2.666-2.517,4.833-4.75,6.5c-2.233,1.633-4.717,2.449-7.45,2.449c-1.601,0-3.15-0.3-4.65-0.899l-2.7-1.5l-1.25-1.05
	l-0.149-0.15c-2.5-2.366-3.9-5.283-4.2-8.75l-7.3-5.95c-1.767,0.8-3.617,1.2-5.55,1.2c-1.966,0-3.833-0.417-5.6-1.25
	c-0.466-0.2-0.933-0.467-1.4-0.8l-0.35-0.2l-1.4-1.05L62,105.3l-0.95-1.149l-0.25-0.4l-0.1-0.1l-0.8-1.351l-0.8-1.85l-10.4-0.101
	l-0.35,0.051l-1.25,0.05l-0.2,0.05l-1.1,0.1h-0.05L44.7,100.7h-0.1l-1.8,0.25c-2.667,0.667-5.066,0.417-7.2-0.75
	c-0.4-0.167-0.867-0.467-1.4-0.9l-0.3-0.2l-1.05-0.949l-0.15-0.2c-1.233-1.3-2.133-2.851-2.7-4.65l-0.05-0.05
	c-0.467-1.6-0.7-3.184-0.7-4.75l0.1-1.85c0.167-0.967,0.267-1.484,0.3-1.55V85c0.2-1.033,0.5-1.983,0.9-2.85
	c0.4-0.966,0.817-1.8,1.25-2.5l0.1-0.15c0.8-1.233,1.717-2.3,2.75-3.2l0.15-0.15c1.034-0.9,2.167-1.6,3.4-2.1L38.3,74l0.25-0.05
	l0.9-0.35l1.2-0.25h0.2l1.05-0.1l0.15-0.05c0.467,0,0.817,0.017,1.05,0.05H43.2z M86.3,75.3c-1.633,0-3.133,0.483-4.5,1.45
	c-1.4,1-2.417,2.316-3.05,3.95c-0.533,1.267-0.783,2.6-0.75,4c0.067,1.2-0.383,2.167-1.35,2.899c-0.966,0.768-2.033,0.983-3.2,0.65
	c-0.934-0.267-1.9-0.283-2.9-0.05c-0.966,0.233-1.833,0.667-2.6,1.3c0.7,1.2,0.733,2.367,0.1,3.5c-0.366,0.7-0.95,1.25-1.75,1.65
	C67,95.316,67.4,96.1,67.5,97c0.067,1-0.217,1.884-0.85,2.65h0.05l0.55,0.8l0.6,0.6l0.85,0.601l0.65,0.35c2.133,1,4.2,0.8,6.2-0.6
	c0.4-0.334,0.917-0.551,1.55-0.65c0-0.566,0.15-1.133,0.45-1.7l0.1-0.149c0.4-0.7,0.967-1.2,1.7-1.5c0.767-0.334,1.533-0.4,2.3-0.2
	l1.6,0.45c-0.033-0.233-0.033-0.483,0-0.75c0.067-0.9,0.434-1.667,1.1-2.301c0.633-0.6,1.4-0.933,2.3-1c0.699,0,1.35-0.1,1.949-0.3
	c1.9-0.6,3.067-1.133,3.5-1.6c0.334-0.4,0.7-0.684,1.101-0.851c-0.066-0.6,0.066-1.199,0.399-1.8l0.351-0.8
	c0.967-2.367,1.017-4.733,0.149-7.1c-0.866-2.4-2.366-4.1-4.5-5.1C88.566,75.55,87.467,75.3,86.3,75.3z M54.15,93.1
	c2.133,0,4.267,0.101,6.4,0.301c-6.267-2.9-11.3-6.434-15.1-10.601l-0.5-0.65c-0.067-0.167-0.25-0.433-0.55-0.8L44.05,81l-0.6-0.35
	c-0.167-0.1-0.467-0.183-0.9-0.25h-0.4l-0.3,0.05H41.8l-0.35,0.05l-0.1,0.05l-0.3,0.1l-0.1,0.05c-0.5,0.2-1,0.5-1.5,0.9l-0.05,0.05
	c-0.566,0.5-1.05,1.083-1.45,1.75l-0.1,0.1l-0.7,1.35l-0.5,1.65l-0.15,0.95l-3.6-0.2l3.6,0.35l-0.05,0.9l-0.05,0.1
	c0.067,1,0.2,1.817,0.4,2.45c0.233,0.7,0.6,1.367,1.1,2l0.5,0.45l0.1,0.05l0.45,0.3c0.566,0.334,1.283,0.384,2.15,0.15l0.35-0.1
	L43.8,93.6l0.15-0.05l1.1-0.1h0.1l1.2-0.101l0.25-0.05l3.6-0.2H54.15z M99.35,97.1l-0.1,0.301C99.917,98.6,99.9,99.8,99.2,101
	c-0.533,1-1.434,1.583-2.7,1.75c0.2,0.467,0.3,0.867,0.3,1.2c0.066,0.7-0.05,1.366-0.35,2c-0.334,0.6-0.8,1.083-1.4,1.45
	c-0.899,0.533-1.616,1.233-2.149,2.1c-0.434,0.667-0.967,1.116-1.601,1.35c0.4,0.601,0.601,1.301,0.601,2.101
	c-0.101,2.033,0.566,3.75,2,5.149L94,118.2l1.1,0.8l0.65,0.3c0.6,0.233,1.25,0.351,1.95,0.351c1.233,0,2.333-0.367,3.3-1.101
	s1.684-1.733,2.15-3c0.566-1.7,0.517-3.383-0.15-5.05c-0.267-0.667-0.333-1.366-0.2-2.1c0.134-0.7,0.467-1.301,1-1.801
	c0.533-0.533,1.15-0.866,1.851-1c0.733-0.133,1.416-0.05,2.05,0.25c6.066,2.567,10.217,4.667,12.45,6.301l0.6,0.55
	c0.233,0.233,0.417,0.366,0.55,0.399l0.25,0.101l0.3,0.05h0.351c0.6-0.066,1.166-0.333,1.7-0.8c0.633-0.533,1.083-1.233,1.35-2.101
	l0.25-0.85c0.667-2.7,0.167-4.45-1.5-5.25l-0.55,0.1l-0.05,0.051c-0.034,0-0.2,0.05-0.5,0.149l-0.551,0.2
	c-1.666,0.533-3.633,0.8-5.899,0.8c-1.967,0-4.267-0.166-6.9-0.5c-0.899-0.1-1.649-0.483-2.25-1.149c-0.6-0.7-0.899-1.5-0.899-2.4
	c-0.034-1-0.284-1.917-0.75-2.75c-0.5-0.833-1.167-1.434-2-1.8c-1.101-0.533-2.184-0.566-3.25-0.101
	C100,97.017,99.65,97.1,99.35,97.1z"/>
<path style="fill-rule:evenodd;clip-rule:evenodd;fill:none;stroke:#D8EFE9;stroke-width:0.25;" d="M43.2,73.25
	c1.2,0.1,2.3,0.4,3.3,0.9c0.667,0.3,1.267,0.65,1.8,1.05l0.6,0.5l0.8,0.85c0.566,0.6,1,1.15,1.3,1.65
	c2.667,2.866,6.167,5.433,10.5,7.7c1.233-1.5,2.684-2.683,4.35-3.55c1.7-0.867,3.483-1.35,5.35-1.45c0.2-1.033,0.5-2.017,0.9-2.95
	c1.233-2.967,3.133-5.35,5.7-7.15c2.6-1.8,5.434-2.7,8.5-2.7c2.2,0,4.316,0.483,6.351,1.45c3.6,1.7,6.216,4.467,7.85,8.3
	c1.6,3.767,1.816,7.617,0.65,11.55c1.933-0.167,3.783,0.183,5.55,1.05c1.566,0.733,2.916,1.783,4.05,3.149
	c1.1,1.367,1.884,2.9,2.35,4.601c1.267,0.1,2.384,0.149,3.351,0.149c1.467,0,2.666-0.133,3.6-0.399l0.9-0.351
	c0.833-0.6,1.75-0.767,2.75-0.5c1.033-0.1,2.149,0.117,3.35,0.65c2.367,1.134,4.05,2.917,5.05,5.35
	c0.967,2.467,1.084,5.184,0.351,8.15c-0.134,0.6-0.267,1.066-0.4,1.4c-0.7,2.133-1.866,3.899-3.5,5.3
	c-1.633,1.399-3.483,2.217-5.55,2.45h-0.1c-0.534,0.066-1.051,0.066-1.551,0c-0.3,0-0.75-0.067-1.35-0.2l-0.35-0.101
	c-0.601-0.166-1.067-0.333-1.4-0.5c-0.8-0.333-1.634-0.933-2.5-1.8c-1-0.633-2.717-1.566-5.15-2.8c-0.166,1.134-0.399,2.1-0.699,2.9
	c-0.934,2.666-2.517,4.833-4.75,6.5c-2.233,1.633-4.717,2.449-7.45,2.449c-1.601,0-3.15-0.3-4.65-0.899l-2.7-1.5l-1.25-1.05
	l-0.149-0.15c-2.5-2.366-3.9-5.283-4.2-8.75l-7.3-5.95c-1.767,0.8-3.617,1.2-5.55,1.2c-1.966,0-3.833-0.417-5.6-1.25
	c-0.466-0.2-0.933-0.467-1.4-0.8l-0.35-0.2l-1.4-1.05L62,105.3l-0.95-1.149l-0.25-0.4l-0.1-0.1l-0.8-1.351l-0.8-1.85l-10.4-0.101
	l-0.35,0.051l-1.25,0.05l-0.2,0.05l-1.1,0.1h-0.05L44.7,100.7h-0.1l-1.8,0.25c-2.667,0.667-5.066,0.417-7.2-0.75
	c-0.4-0.167-0.867-0.467-1.4-0.9l-0.3-0.2l-1.05-0.949l-0.15-0.2c-1.233-1.3-2.133-2.851-2.7-4.65l-0.05-0.05
	c-0.467-1.6-0.7-3.184-0.7-4.75l0.1-1.85c0.167-0.967,0.267-1.484,0.3-1.55V85c0.2-1.033,0.5-1.983,0.9-2.85
	c0.4-0.966,0.817-1.8,1.25-2.5l0.1-0.15c0.8-1.233,1.717-2.3,2.75-3.2l0.15-0.15c1.034-0.9,2.167-1.6,3.4-2.1L38.3,74l0.25-0.05
	l0.9-0.35l1.2-0.25h0.2l1.05-0.1l0.15-0.05c0.467,0,0.817,0.017,1.05,0.05H43.2z M86.3,75.3c-1.633,0-3.133,0.483-4.5,1.45
	c-1.4,1-2.417,2.316-3.05,3.95c-0.533,1.267-0.783,2.6-0.75,4c0.067,1.2-0.383,2.167-1.35,2.899c-0.966,0.768-2.033,0.983-3.2,0.65
	c-0.934-0.267-1.9-0.283-2.9-0.05c-0.966,0.233-1.833,0.667-2.6,1.3c0.7,1.2,0.733,2.367,0.1,3.5c-0.366,0.7-0.95,1.25-1.75,1.65
	C67,95.316,67.4,96.1,67.5,97c0.067,1-0.217,1.884-0.85,2.65h0.05l0.55,0.8l0.6,0.6l0.85,0.601l0.65,0.35c2.133,1,4.2,0.8,6.2-0.6
	c0.4-0.334,0.917-0.551,1.55-0.65c0-0.566,0.15-1.133,0.45-1.7l0.1-0.149c0.4-0.7,0.967-1.2,1.7-1.5c0.767-0.334,1.533-0.4,2.3-0.2
	l1.6,0.45c-0.033-0.233-0.033-0.483,0-0.75c0.067-0.9,0.434-1.667,1.1-2.301c0.633-0.6,1.4-0.933,2.3-1c0.699,0,1.35-0.1,1.949-0.3
	c1.9-0.6,3.067-1.133,3.5-1.6c0.334-0.4,0.7-0.684,1.101-0.851c-0.066-0.6,0.066-1.199,0.399-1.8l0.351-0.8
	c0.967-2.367,1.017-4.733,0.149-7.1c-0.866-2.4-2.366-4.1-4.5-5.1C88.566,75.55,87.467,75.3,86.3,75.3z M54.15,93.1
	c2.133,0,4.267,0.101,6.4,0.301c-6.267-2.9-11.3-6.434-15.1-10.601l-0.5-0.65c-0.067-0.167-0.25-0.433-0.55-0.8L44.05,81l-0.6-0.35
	c-0.167-0.1-0.467-0.183-0.9-0.25h-0.4l-0.3,0.05H41.8l-0.35,0.05l-0.1,0.05l-0.3,0.1l-0.1,0.05c-0.5,0.2-1,0.5-1.5,0.9l-0.05,0.05
	c-0.566,0.5-1.05,1.083-1.45,1.75l-0.1,0.1l-0.7,1.35l-0.5,1.65l-0.15,0.95l-3.6-0.2l3.6,0.35l-0.05,0.9l-0.05,0.1
	c0.067,1,0.2,1.817,0.4,2.45c0.233,0.7,0.6,1.367,1.1,2l0.5,0.45l0.1,0.05l0.45,0.3c0.566,0.334,1.283,0.384,2.15,0.15l0.35-0.1
	L43.8,93.6l0.15-0.05l1.1-0.1h0.1l1.2-0.101l0.25-0.05l3.6-0.2H54.15z M99.35,97.1l-0.1,0.301C99.917,98.6,99.9,99.8,99.2,101
	c-0.533,1-1.434,1.583-2.7,1.75c0.2,0.467,0.3,0.867,0.3,1.2c0.066,0.7-0.05,1.366-0.35,2c-0.334,0.6-0.8,1.083-1.4,1.45
	c-0.899,0.533-1.616,1.233-2.149,2.1c-0.434,0.667-0.967,1.116-1.601,1.35c0.4,0.601,0.601,1.301,0.601,2.101
	c-0.101,2.033,0.566,3.75,2,5.149L94,118.2l1.1,0.8l0.65,0.3c0.6,0.233,1.25,0.351,1.95,0.351c1.233,0,2.333-0.367,3.3-1.101
	s1.684-1.733,2.15-3c0.566-1.7,0.517-3.383-0.15-5.05c-0.267-0.667-0.333-1.366-0.2-2.1c0.134-0.7,0.467-1.301,1-1.801
	c0.533-0.533,1.15-0.866,1.851-1c0.733-0.133,1.416-0.05,2.05,0.25c6.066,2.567,10.217,4.667,12.45,6.301l0.6,0.55
	c0.233,0.233,0.417,0.366,0.55,0.399l0.25,0.101l0.3,0.05h0.351c0.6-0.066,1.166-0.333,1.7-0.8c0.633-0.533,1.083-1.233,1.35-2.101
	l0.25-0.85c0.667-2.7,0.167-4.45-1.5-5.25l-0.55,0.1l-0.05,0.051c-0.034,0-0.2,0.05-0.5,0.149l-0.551,0.2
	c-1.666,0.533-3.633,0.8-5.899,0.8c-1.967,0-4.267-0.166-6.9-0.5c-0.899-0.1-1.649-0.483-2.25-1.149c-0.6-0.7-0.899-1.5-0.899-2.4
	c-0.034-1-0.284-1.917-0.75-2.75c-0.5-0.833-1.167-1.434-2-1.8c-1.101-0.533-2.184-0.566-3.25-0.101
	C100,97.017,99.65,97.1,99.35,97.1z"/>
<path style="fill-rule:evenodd;clip-rule:evenodd;fill:none;stroke:#153330;stroke-width:1.35;stroke-linejoin:round;stroke-miterlimit:3;" d="
	M89.65,96.75c1.333-0.4,2.316-0.75,2.949-1.05c0.867-0.434,1.584-0.967,2.15-1.601l1.1,1.25L96.1,95.7
	c-0.633,0.733-1.133,1.533-1.5,2.399c-0.033,0.067-0.033,0.184,0,0.351c0.467,0.066,0.817,0.149,1.051,0.25l0.449,0.45l-9.3-1.95
	C87.767,97.167,88.717,97.017,89.65,96.75z M74.45,84.8c-2.3-0.633-4.534-0.417-6.7,0.65c-2.2,1.033-3.833,2.7-4.9,5l1.85,0.8
	l0.15,0.1l-0.1-0.05l-1.35-0.55c-6.367-2.733-11.466-6.184-15.3-10.35c-0.267-0.466-0.617-0.95-1.05-1.45l-0.7-0.7V78.2l-0.05,0.05
	c-0.466-0.4-0.9-0.684-1.3-0.85c-0.633-0.3-1.35-0.483-2.15-0.55L42.1,76.8h-0.05l-0.75,0.1h-0.05l-0.7,0.15h-0.1l-0.7,0.25
	l-0.1,0.05c-1,0.4-1.833,0.917-2.5,1.55L37,79c-0.8,0.7-1.5,1.517-2.1,2.45l-0.05,0.1c-0.3,0.467-0.633,1.117-1,1.95
	c-0.333,0.833-0.567,1.583-0.7,2.25l-0.25,1.5l-0.05,1.25c0,1.4,0.183,2.6,0.55,3.6v0.051c0.4,1.333,1.05,2.467,1.95,3.399l0.8,0.75
	l0.2,0.15l0.95,0.6c1.367,0.733,2.95,0.867,4.75,0.4l2.2-0.3h0.05L45.4,97h0.05l1.2-0.1h0.2l7.25-0.25
	c2.367,0.066,4.967,0.217,7.8,0.449c0.167,1.034,0.467,2,0.9,2.9l0.25,0.6l0.9,1.45l0.7,0.851l0.85,0.85l1.3,0.95l1.05,0.55
	c1.633,0.8,3.333,1.1,5.1,0.9c1.7-0.2,3.267-0.817,4.7-1.851l1.1,0.75c1.167,0.8,2.5,1.817,4,3.05l5.55,4.7
	c-0.033,1.5,0.217,2.934,0.75,4.3c0.566,1.4,1.367,2.584,2.4,3.551l0.1,0.149l0.7,0.55l0.2,0.2l0.7,0.4l0.25,0.2l1,0.449
	c2.433,0.967,4.833,0.884,7.199-0.25c2.367-1.133,4.017-3,4.95-5.6c0.9-2.6,0.816-5.134-0.25-7.6c5.7,2.399,9.617,4.366,11.75,5.899
	c0.533,0.601,1.117,1.033,1.75,1.3c0.267,0.167,0.533,0.267,0.8,0.301l1,0.199c0.434,0,0.75-0.017,0.95-0.05h0.05
	c1.301-0.133,2.5-0.666,3.601-1.6c1.133-0.967,1.95-2.2,2.45-3.7l0.35-1.1v-0.051c0.566-2.233,0.5-4.183-0.2-5.85
	c-0.633-1.6-1.733-2.767-3.3-3.5c-0.767-0.333-1.7-0.383-2.8-0.15l0.05-0.05l-0.25,0.101c-0.434,0.1-0.816,0.25-1.15,0.449
	c-1.133,0.334-2.35,0.534-3.649,0.601c-1.967,0.066-4.55-0.083-7.75-0.45c0-1.667-0.417-3.2-1.25-4.6c-0.9-1.434-2.084-2.5-3.55-3.2
	c-2-0.967-4.051-1.017-6.15-0.15l-0.4-0.399l-1.449-1.9H97.1l-0.35-0.55l0.5-1.101c1.333-3.232,1.4-6.483,0.2-9.75
	s-3.316-5.617-6.351-7.05c-3-1.433-6.033-1.5-9.1-0.2c-3.066,1.267-5.267,3.517-6.6,6.75C74.7,81.05,74.383,82.867,74.45,84.8z
	 M63.45,97.4l-1.125-0.226L63.9,97.35L63.45,97.4z M61.95,97.1l0.375,0.075L62.1,97.15L61.95,97.1z M84.1,103.55l-3.4-2.75l0.05-0.1
	c4.533,1.133,8.7,2.333,12.5,3.6c-1.333,0.733-2.467,1.834-3.4,3.3c-2.3-1.5-4.183-2.816-5.649-3.949L84.1,103.55z"/>
<g>
	
		<radialGradient id="SVGID_8_" cx="92.8164" cy="-70.2861" r="19.1766" gradientTransform="matrix(0.1766 0.9843 0.9204 -0.1864 133.5952 -27.0593)" gradientUnits="userSpaceOnUse">
		<stop  offset="0" style="stop-color:#FA56F5"/>
		<stop  offset="1" style="stop-color:#952478"/>
	</radialGradient>
	<path style="fill-rule:evenodd;clip-rule:evenodd;fill:url(#SVGID_8_);" d="M75.4,79.35c1.333-3.233,3.534-5.483,6.6-6.75
		c3.066-1.3,6.1-1.233,9.1,0.2c3.034,1.434,5.15,3.784,6.351,7.05s1.133,6.517-0.2,9.75c-1.3,3.233-3.483,5.483-6.55,6.75
		c-3.066,1.301-6.117,1.233-9.15-0.199c-3.033-1.434-5.15-3.783-6.35-7.051C74,85.8,74.067,82.55,75.4,79.35z"/>
	<path style="fill-rule:evenodd;clip-rule:evenodd;fill:#FFE7B2;" d="M72.65,87.7c0.967-0.134,2-0.833,3.1-2.1
		c0.5-0.8,1.1-1.534,1.8-2.2c1.4-1.367,2.617-1.7,3.65-1c1.433,0.967,1.683,2.25,0.75,3.85c-0.534,0.934-1.717,2.6-3.55,5
		c-0.367,0.634-1.433,0.233-3.2-1.2L72.65,87.7z"/>
	<g>
		<path style="fill-rule:evenodd;clip-rule:evenodd;fill:#CEAD65;" d="M81.15,82.4h0.05l0.1,0.1L78,86.7
			c-0.333,0.366-0.583,0.733-0.75,1.1c-0.1,0.134-0.316,0.384-0.65,0.75c-0.267,0.334-0.383,0.601-0.35,0.8
			c0.4,0.067,1.05-0.267,1.95-1c0.233-0.133,0.783-0.566,1.65-1.3c0.267-0.166,0.483-0.316,0.65-0.45
			c0.3-0.267,0.35-0.482,0.15-0.649c-0.1-0.1-0.316-0.067-0.65,0.1c-0.267,0.167-0.433,0.317-0.5,0.45
			c0.7-1.566,1.467-2.267,2.3-2.1c-0.033,0.1,0,0.25,0.1,0.45l0.65-0.65c0.067,0.767-0.366,1.816-1.3,3.149
			c-0.566,0.768-1.517,2.067-2.85,3.9c-0.367,0.634-1.433,0.233-3.2-1.2l-2.55-2.35c0.667-0.101,1.4-0.517,2.2-1.25h0.05
			c0.333-0.333,0.95-0.867,1.85-1.6c0.833-0.667,1.45-1.217,1.85-1.65l0.8-1c0.133-0.067,0.35-0.117,0.65-0.15l-3.15,3.9
			c-1.133,1.033-1.583,1.816-1.35,2.35c0.4-0.133,1-0.6,1.8-1.399c0.9-0.801,1.617-1.617,2.15-2.45
			C80.267,83.55,80.817,82.867,81.15,82.4z"/>
	</g>
	<path style="fill-rule:evenodd;clip-rule:evenodd;fill:#FFE7B2;" d="M72.4,98.75C65.567,97.283,58.767,96.6,52,96.7
		c-3.733,0.033-7.05,0.283-9.95,0.75c-1.8,0.467-3.383,0.333-4.75-0.4c-2.1-1.1-3.466-2.983-4.1-5.649
		c-0.667-2.601-0.45-5.233,0.65-7.9c1.066-2.633,2.7-4.55,4.9-5.75C40.917,76.583,43,76.467,45,77.4c0.4,0.167,0.833,0.45,1.3,0.85
		l0.05-0.05v0.05c0.733,0.633,1.316,1.35,1.75,2.15c2.333,2.5,5.183,4.784,8.55,6.85c5.034,3.1,10.867,5.45,17.5,7.05
		c16.567,3.967,28.7,6.384,36.4,7.25c4.834,0.567,8.434,0.5,10.8-0.2c0.334-0.199,0.717-0.35,1.15-0.449l0.25-0.101l-0.05,0.05
		c1.1-0.232,2.033-0.183,2.8,0.15c1.667,0.8,2.816,2.083,3.45,3.85c0.633,1.934,0.533,4.15-0.3,6.65c-0.7,2.1-1.967,3.634-3.801,4.6
		c-1.767,0.934-3.449,1.017-5.05,0.25c-0.633-0.267-1.217-0.699-1.75-1.3c-2.666-1.833-7.149-4.05-13.45-6.649
		C94.934,104.467,84.2,101.25,72.4,98.75z"/>
	<g>
		<path style="fill-rule:evenodd;clip-rule:evenodd;fill:#CEAD65;" d="M74.15,94.3l12.25,2.8c2.5,1.167,4.466,1.95,5.899,2.351
			c1.834,0.566,3.601,0.783,5.3,0.649l2.9-0.25c1.967,0.301,4.167,0.768,6.6,1.4c1.601,0.434,2.75,0.6,3.45,0.5
			c1.834,0.267,3.8,0.4,5.9,0.4c2.967,0.033,4.816-0.267,5.55-0.9l1.95-0.55c-1,1.133-1.617,1.733-1.851,1.8
			c-0.399,0.2-2.149,0.233-5.25,0.1c-2.8-0.1-5.183-0.25-7.149-0.449c-2.9-0.334-6.417-0.317-10.55,0.05
			c-2.567,0.167-5.15-0.351-7.75-1.55c-2.334-1.233-4.217-2.184-5.65-2.851c-2.633-1.267-4.883-2.05-6.75-2.35
			C73.167,94.483,70.184,94,70.05,94c-3.933-0.7-6.683-1.3-8.25-1.8c-1.466-0.434-3.466-1.417-6-2.95c-2.8-1.733-4.8-2.934-6-3.6
			c-1.6-0.9-2.85-1.383-3.75-1.45c-0.566-0.067-1.15,0.066-1.75,0.4c-0.633,0.3-1.066,0.617-1.3,0.95c-0.267,0.4,0.067,0.55,1,0.45
			c2.633-0.3,5.033,0.417,7.2,2.15c1.566,1.267,3.8,2.583,6.7,3.949c3.267,1.5,5.95,2.367,8.05,2.601
			c5.667,0.7,8.583,1.05,8.75,1.05c3.833,0.6,6.633,1.333,8.4,2.2c1.367,0.7,3.45,1.816,6.25,3.35c2.467,1.2,4.733,1.834,6.801,1.9
			c1.8,0.066,4.433,0.05,7.899-0.05c3.7-0.101,6.134-0.134,7.3-0.101c1.367,0.033,4.134,0.101,8.301,0.2
			c3.666-0.066,5.866-0.566,6.6-1.5l0.2-0.2l0.85,0.7c-0.566,0.233-0.95,0.5-1.149,0.8c-0.334,0.5-2.351,1.05-6.051,1.65
			c-3.6,0.566-6.267,0.8-8,0.7c-6.133-0.367-10.083-0.7-11.85-1c-2.533-0.267-4.65-0.533-6.35-0.801
			c-3.267-0.466-5.65-1.149-7.15-2.05c-1.9-1.133-3.517-1.933-4.85-2.399c-1.466-0.533-3.35-0.934-5.65-1.2c-3-0.333-6-0.851-9-1.55
			c-3.933-0.934-7.15-2.017-9.65-3.25c-3.333-1.967-5.75-3.301-7.25-4c-2.5-1.134-5-1.367-7.5-0.7
			c-2.633,0.733-3.883,1.316-3.75,1.75c0.033,0.133,0.833,0.616,2.4,1.45c1.133,0.6,2.383,1.05,3.75,1.35
			c1.367,0.267,3.233,0.467,5.6,0.6c2.367,0.134,5,0.567,7.9,1.301c2.9,0.767,5.467,1.666,7.7,2.699l0.2,0.101
			c-2.6-0.367-4.35-0.583-5.25-0.65l-1.95-0.899c-1.833-0.801-3.633-1.283-5.4-1.45c-1.533-0.134-3.683-0.083-6.45,0.149
			c-2.467,0.2-4.267,0.233-5.4,0.101c-0.967-0.101-1.934-0.434-2.9-1c-0.966-0.5-1.466-0.75-1.5-0.75c-0.1,0.033,0,0.45,0.3,1.25
			c0.3,0.8,1.1,1.316,2.4,1.55c1.233,0.233,3.434,0.267,6.6,0.1c2.433-0.1,4.767,0.084,7,0.551c-4.633-0.033-8.65,0.233-12.05,0.8
			c-0.6,0.133-1.033,0.2-1.3,0.2L40.5,97.6c-1.833-0.899-3-2.216-3.5-3.949c-0.167-0.634-0.4-1.084-0.7-1.351
			c-0.333-0.267-0.583-0.25-0.75,0.05l-1.3,1.7c-0.367-0.633-0.65-1.267-0.85-1.899c0.5-0.634,1.05-1.101,1.65-1.4
			c1.034-0.467,1.684-1.033,1.95-1.7c0.333-0.733,0.083-1.25-0.75-1.55c-1.1-0.434-2.233-0.1-3.4,1c0-0.866,0.1-1.783,0.3-2.75
			c0.733,0,1.4-0.15,2-0.45c0.7-0.3,1.583-0.667,2.65-1.1c0.6-0.3,0.534-0.55-0.2-0.75c-0.967-0.2-1.617-0.367-1.95-0.5
			c-0.6-0.233-0.867-0.7-0.8-1.4c0.633-1.033,1.4-1.917,2.3-2.65c0,1,0.2,1.617,0.6,1.85c0.3,0.2,0.9,0.65,1.8,1.35
			c0.733,0.4,0.967,0.1,0.7-0.9c-0.267-0.967-0.433-1.667-0.5-2.1c-0.167-0.733-0.2-1.317-0.1-1.75c1.034-0.434,2.1-0.6,3.2-0.5
			c-1.133,0.633-1.7,1.35-1.7,2.15c0.034,0.767-0.083,1.75-0.35,2.95c-0.066,0.4,0.067,0.183,0.4-0.65
			c0.333-0.8,0.883-1.517,1.65-2.15c0.867-0.733,1.816-1.2,2.85-1.4l0.6,0.5l0.05-0.05v0.05L47.1,79c-1.9-0.333-3.3,0.2-4.2,1.6
			c-0.966,1.566-1.033,2-0.2,1.3l1.6-1.55l1.25,0.05c0.934,0.167,1.684,0.55,2.25,1.15c0.467,0.467,1.417,1.434,2.85,2.9
			c1.467,1.4,2.967,2.45,4.5,3.149c2.934,1.334,5.4,2.25,7.4,2.75C65.983,91.917,69.85,93.233,74.15,94.3z"/>
		<path style="fill-rule:evenodd;clip-rule:evenodd;fill:#CEAD65;" d="M109.35,110.15c-2.333-0.967-3.733-1.567-4.199-1.801
			c1.433,0.233,3.133,0.817,5.1,1.75c2.533,1.2,5.4,2.301,8.6,3.301c3.834,1.233,6.384,1.733,7.65,1.5
			c-0.6,0.566-1.25,1.017-1.95,1.35c-1.366-0.233-2.399-0.45-3.1-0.65c-1.233-0.3-2.566-0.767-4-1.399c-2.601-1.5-4.066-2.3-4.4-2.4
			C112.717,111.6,111.483,111.05,109.35,110.15z"/>
		<path style="fill-rule:evenodd;clip-rule:evenodd;fill:#CEAD65;" d="M85.5,101.85l0.55,0.25l-5.1-1.35
			c0.667-0.167,1.3-0.167,1.9,0C83.283,100.884,84.167,101.25,85.5,101.85z"/>
		<path style="fill-rule:evenodd;clip-rule:evenodd;fill:#CEAD65;" d="M104.65,106.35c2.767,0.534,4.716,1.034,5.85,1.5
			c1.533,0.601,4.467,1.217,8.8,1.851c4.9,0.767,7.816,0.833,8.75,0.2l1.15-0.65c-0.134,0.833-0.316,1.583-0.55,2.25l-0.301,0.75
			c-2.233,0.5-4.166,0.467-5.8-0.1c-2.166-0.767-5.233-1.7-9.2-2.801c-4.466-1.267-7.5-2-9.1-2.199
			c-0.6-0.067-2.65-0.417-6.15-1.051L95.2,105l2.1,0.3C99.333,105.434,101.783,105.783,104.65,106.35z"/>
	</g>
	<path style="fill-rule:evenodd;clip-rule:evenodd;fill:#CEAD65;" d="M53.85,92.3c-0.833-0.399-1.717-0.75-2.65-1.05
		c-1.833-0.633-2.934-0.717-3.3-0.25c-0.566,0.733,0.5,1.117,3.2,1.15c-0.167,0.199-0.45,0.366-0.85,0.5
		c-0.767,0.267-1.683,0.183-2.75-0.25c-1.3-0.5-1.717-1.2-1.25-2.101c0.434-0.899,1.35-1.133,2.75-0.7
		C50.833,90.167,52.45,91.066,53.85,92.3z"/>
	
		<radialGradient id="SVGID_9_" cx="-108.5229" cy="-1.4023" r="20.0141" gradientTransform="matrix(-0.4372 -0.8994 -0.8338 0.5215 -2.365 1.479)" gradientUnits="userSpaceOnUse">
		<stop  offset="0" style="stop-color:#CEAD65"/>
		<stop  offset="1" style="stop-color:#745D2D"/>
	</radialGradient>
	<path style="fill-rule:evenodd;clip-rule:evenodd;fill:url(#SVGID_9_);" d="M45,89.25c-0.9,2.667-1.95,4.483-3.15,5.45
		c-1.067,0.866-2.417,1.133-4.05,0.8c-1.533-0.333-2.65-1.45-3.35-3.35c-0.667-1.934-0.717-4.084-0.15-6.45
		c0.567-2.367,1.617-4.267,3.15-5.7c1.5-1.467,3.033-2.033,4.6-1.7c1.7,0.367,2.85,1.45,3.45,3.25C46.167,83.55,46,86.117,45,89.25z
		"/>
	<path style="fill-rule:evenodd;clip-rule:evenodd;fill:#FFE7B2;" d="M94.5,87.5c0.3,0.134,0.533,0.3,0.7,0.5l0.8,1.45
		c0.634,1.1,1.233,2,1.8,2.7c0.867,1.133,1.816,2.083,2.851,2.85L99.3,96.75c-1.066,1-1.916,0.983-2.55-0.05s-1.65-2.3-3.05-3.8
		L91.75,91c-0.134-0.267-0.184-0.6-0.15-1c0-0.767,0.334-1.417,1-1.95C93.267,87.483,93.9,87.3,94.5,87.5z"/>
	<g>
		<path style="fill-rule:evenodd;clip-rule:evenodd;fill:#CEAD65;" d="M91.75,91c-0.167-0.366-0.217-0.8-0.15-1.3
			c0.2,0.6,0.584,1.167,1.15,1.7c1,1,1.733,1.649,2.2,1.949c0.366,0.233,0.7,0.317,1,0.25c-1.3-0.833-2.3-1.767-3-2.8
			c-0.733-1.1-1.117-1.683-1.15-1.75c0.134-0.267,0.283-0.483,0.45-0.649c0.066,0.566,0.184,0.967,0.35,1.199
			c0.867,1.5,1.817,2.534,2.851,3.101c0.333,0.2,0.633,0.399,0.899,0.6c0.101,0.067,0.15-0.1,0.15-0.5
			c0.066-0.899-0.733-2.149-2.4-3.75c-0.8-0.633-1.25-1.017-1.35-1.149l0.7-0.351c0.267,0.5,0.55,0.851,0.85,1.05
			c1.134,0.733,1.917,1.801,2.351,3.2c0.466,1.4,0.716,1.967,0.75,1.7c0.066-0.333,0.017-0.75-0.15-1.25
			c-0.366-0.833-0.616-1.483-0.75-1.95c0.634,0.934,1.066,1.55,1.3,1.851c0.434,0.566,0.917,1.116,1.45,1.649
			c-0.267,1.4-0.483,2.101-0.65,2.101l-2.75-0.5c-0.699-0.9-1.6-1.9-2.699-3L91.75,91z"/>
		<path style="fill-rule:evenodd;clip-rule:evenodd;fill:#CEAD65;" d="M95.2,88l0.649,1.2c-0.699-0.767-1.183-1.333-1.449-1.7
			C94.733,87.6,95,87.767,95.2,88z"/>
	</g>
	
		<radialGradient id="SVGID_10_" cx="123.75" cy="-69.9985" r="12.0861" gradientTransform="matrix(0.2772 0.9608 0.8977 -0.2948 129.3895 -42.4834)" gradientUnits="userSpaceOnUse">
		<stop  offset="0" style="stop-color:#5BFE73"/>
		<stop  offset="1" style="stop-color:#00913C"/>
	</radialGradient>
	<path style="fill-rule:evenodd;clip-rule:evenodd;fill:url(#SVGID_10_);" d="M99.05,93.55c2.033-0.833,4.066-0.783,6.101,0.15
		c2.033,0.967,3.449,2.55,4.25,4.75c0.8,2.2,0.767,4.383-0.101,6.55c-0.899,2.167-2.383,3.667-4.45,4.5
		c-2.033,0.866-4.066,0.816-6.1-0.15c-2.134-1-3.583-2.683-4.35-5.05l0.25,0.101c1.133-0.634,1.833-1.567,2.1-2.801
		c0.167-0.8,0.033-1.517-0.4-2.149L95.65,98.7c-0.233-0.101-0.584-0.184-1.051-0.25c-0.033-0.167-0.033-0.283,0-0.351
		C95.5,95.934,96.983,94.417,99.05,93.55z"/>
	<path style="fill-rule:evenodd;clip-rule:evenodd;fill:#FFE7B2;" d="M95.2,110.15c0.633-1.034,1.149-2.301,1.55-3.801l0.35-1.949
		c0.167-0.334,0.434-0.667,0.801-1c0.733-0.667,1.6-0.934,2.6-0.801c1.333,0.167,2.217,0.983,2.65,2.45
		c0.399,1.3,0.316,2.417-0.25,3.351c-0.4,0.633-1.167,1.983-2.301,4.05L95.2,110.15z"/>
	<path style="fill-rule:evenodd;clip-rule:evenodd;fill:#CEAD65;" d="M101.4,102.85c0.366,0.2,0.683,0.45,0.949,0.75
		c0.067,0.5,0.084,0.834,0.051,1l-0.551,2.801c0.134,0.267,0.284,0.233,0.45-0.101c0.434-0.967,0.717-1.75,0.851-2.35
		c0.399,1.399,0.316,2.55-0.25,3.45L101.8,110.3c-0.1,0.066-0.2,0.066-0.3,0c-1.2-0.399-2.967-1.133-5.3-2.2
		c0.3-0.8,0.533-1.649,0.7-2.55L97.1,104.4c0.101-0.2,0.267-0.417,0.5-0.65l-0.199,1.4c0,0.3,0.083,0.55,0.25,0.75
		c0.133,0.233,0.25,0.217,0.35-0.051c0.066-0.166,0.1-1.033,0.1-2.6l0.851-0.5l-0.101,2.45c-0.033,0.5,0.034,0.934,0.2,1.3
		c0.167,0.367,0.316,0.384,0.45,0.05c0.1-0.233,0.167-0.833,0.2-1.8c0.066-1.167,0.116-1.883,0.149-2.15h0.601
		c0,0.967,0.083,1.784,0.25,2.45c0.1,0.3,0.184,0.767,0.25,1.4c0.033,0.267,0.133,0.267,0.3,0
		C101.517,106.083,101.566,104.884,101.4,102.85z"/>
	
		<radialGradient id="SVGID_11_" cx="126.6914" cy="-73.2124" r="14.5021" gradientTransform="matrix(0.2112 0.9774 0.9137 -0.2232 138.0371 -33.7279)" gradientUnits="userSpaceOnUse">
		<stop  offset="0" style="stop-color:#FF5259"/>
		<stop  offset="1" style="stop-color:#B72A30"/>
	</radialGradient>
	<path style="fill-rule:evenodd;clip-rule:evenodd;fill:url(#SVGID_11_);" d="M88.9,109.6c0.899-2.6,2.533-4.466,4.899-5.6
		c2.367-1.133,4.767-1.217,7.2-0.25s4.2,2.733,5.3,5.3c1.066,2.533,1.15,5.101,0.25,7.7c-0.934,2.6-2.583,4.467-4.95,5.6
		c-2.366,1.134-4.767,1.217-7.199,0.25c-2.434-0.966-4.2-2.733-5.301-5.3C88.033,114.767,87.967,112.2,88.9,109.6z"/>
	<path style="fill-rule:evenodd;clip-rule:evenodd;fill:#FFE7B2;" d="M76.9,97l0.9,1.1c0.934,0.967,2.134,2.067,3.6,3.301
		c3.534,3.033,7.133,5.566,10.8,7.6l0.45,0.65c0.199,0.633,0.066,1.416-0.4,2.35s-1.066,1.533-1.8,1.8L89.5,113.9
		c-1.7-1.601-3.634-3.284-5.8-5.051c-4.3-3.566-7.583-5.783-9.85-6.649c-2.267-0.867-2.434-2-0.5-3.4L76.9,97z"/>
	<g>
		<path style="fill-rule:evenodd;clip-rule:evenodd;fill:#CEAD65;" d="M89.9,113.9c-0.601-0.801-1.101-1.4-1.5-1.801
			c-1.034-1.1-2.351-1.966-3.95-2.6l-1.95-1.6c1.767,0.666,2.884,1.149,3.35,1.449c1.967,1.233,3.617,2.65,4.95,4.25
			C90.533,113.8,90.233,113.9,89.9,113.9z"/>
		<path style="fill-rule:evenodd;clip-rule:evenodd;fill:#CEAD65;" d="M83.5,103.85c-1.333-0.399-2.133-0.683-2.4-0.85l-3.05-2.35
			l-0.1,0.199c0.1,0.301,0.667,0.851,1.7,1.65c0.8,0.634,1.934,1.566,3.4,2.8c1.3,1.033,2.417,1.834,3.351,2.4
			c0.666,0.399,1.75,1.033,3.25,1.899c1.267,0.767,2.199,1.434,2.8,2L92,112.45c-1.1-1.033-2.1-1.867-3-2.5
			c-0.566-0.4-2.134-1.267-4.7-2.601c-2.1-1.133-3.417-2-3.95-2.6l-3-3.6c-0.467-0.067-0.85-0.084-1.15-0.051
			c-0.667,0.067-0.65,0.317,0.05,0.75c0.5,0.301,0.967,0.784,1.4,1.45c0.267,0.4,0.684,1.033,1.25,1.9
			c-1.6-1.134-2.966-1.983-4.1-2.55c-1.2-1.834-1.25-3-0.15-3.5c0.633-0.267,1.5-0.217,2.6,0.149c0.567,0.167,1.05,0.367,1.45,0.601
			l0.95,0.899c0.934,0.733,2.1,1.417,3.5,2.05c1.006,0.786,1.998,1.528,2.975,2.226C85.369,104.581,84.495,104.173,83.5,103.85z
			 M89.05,107.65c-0.733-0.801-1.533-1.533-2.399-2.2c1.205,0.849,2.388,1.632,3.55,2.35l1.35,1.45c0.5,0.5,0.9,0.833,1.2,1
			l-0.1,0.65L91,109.6C90.6,109.233,89.95,108.583,89.05,107.65z"/>
	</g>
	<path style="fill-rule:evenodd;clip-rule:evenodd;fill:#00ACDD;" d="M76,85.35c2.567,1.233,4.367,3.25,5.4,6.05
		c1.034,2.8,0.983,5.566-0.15,8.3c-1.133,2.767-3,4.684-5.6,5.75c-2.633,1.1-5.233,1.033-7.8-0.2c-1.6-0.733-2.934-1.833-4-3.3
		c-1.033-1.467-1.684-3.083-1.95-4.851l1.55,0.301c0.3,0,0.633-0.101,1-0.301c0.733-0.466,1.233-1.267,1.5-2.399
		c0.267-1.033,0.133-1.917-0.4-2.65l-0.85-0.8l-1.85-0.8c1.167-2.566,3.033-4.351,5.6-5.35C70.983,84.1,73.5,84.184,76,85.35z"/>
	<path style="fill-rule:evenodd;clip-rule:evenodd;fill:#2BC8F3;" d="M77.55,88.35c0.967,1.134,1.2,2.417,0.7,3.851
		c-0.533,1.533-1.833,2.866-3.9,4c-1.333,0.733-2.833,0.883-4.5,0.45c-1.467-0.367-2.75-1.101-3.85-2.2
		c0.2-0.967,0.033-1.783-0.5-2.45l-0.8-0.75l-0.25-0.1V90.9c0.2-1.567,1.083-2.967,2.65-4.2c1.467-1.1,2.783-1.6,3.95-1.5
		c1.767,0.167,3.083,0.466,3.95,0.899C75.767,86.5,76.617,87.25,77.55,88.35z"/>
	<path style="fill-rule:evenodd;clip-rule:evenodd;fill:#FFFFFF;" d="M43.15,78c-1.5-0.434-2.917-0.217-4.25,0.65
		c-1.33,0.849-2.322,1.616-2.975,2.3c0.693-0.774,1.501-1.507,2.425-2.2c2.133-1.566,3.917-2.033,5.35-1.4
		c1.667,0.733,2.8,1.733,3.4,3c0.4,0.8,0.633,1.966,0.7,3.5c0.063,1.489-0.495,3.697-1.675,6.625c0.421-1.1,0.763-2.291,1.025-3.574
		c0.6-2.967,0.434-5.067-0.5-6.3C45.684,79.267,44.517,78.4,43.15,78z"/>
	<path style="fill-rule:evenodd;clip-rule:evenodd;fill:#FFFFFF;" d="M89.95,99.25c-3-0.6-4.584-1.083-4.75-1.45
		c-0.134-0.333,0.7-0.283,2.5,0.15c1.533,0.366,2.899,0.783,4.1,1.25C93.6,99.867,92.983,99.884,89.95,99.25z"/>
	<path style="fill-rule:evenodd;clip-rule:evenodd;fill:#FFFFFF;" d="M122.35,102.8c0.167-0.066,0.45,0,0.851,0.2
		c0.6,0.267,1.267,0.967,2,2.1c0.133-0.866,0-1.583-0.4-2.149c-0.434-0.533-0.7-0.9-0.8-1.101c-0.167-0.267-0.05-0.383,0.35-0.35
		c0.534,0.066,1.167,0.467,1.9,1.2c0.866,0.8,1.45,1.684,1.75,2.649c0.4,1.434,0.217,3.25-0.55,5.45c0.1-1.467,0.017-2.75-0.25-3.85
		c-0.134-0.7-0.351-1.367-0.65-2l-0.35-0.75c-0.033,1.5-0.267,2.149-0.7,1.95c-0.4-0.4-0.783-0.733-1.15-1
		c-0.699-0.533-1.6-0.801-2.699-0.801c-1.101,0-3.4-0.35-6.9-1.05l-4.95-1.1c6.7,1.066,10.483,1.434,11.351,1.1
		C121.583,103.134,121.983,102.967,122.35,102.8z"/>
	<path style="fill-rule:evenodd;clip-rule:evenodd;fill:#FFFFFF;" d="M72.7,86.45c0.733,0.5,0.833,0.967,0.3,1.399
		c-0.5,0.4-1.167,0.584-2,0.551c-1.167-0.033-1.85-0.084-2.05-0.15c-0.6-0.133-0.767-0.483-0.5-1.05c0.333-0.601,1-0.967,2-1.101
		C71.383,85.967,72.133,86.083,72.7,86.45z"/>
	<path style="fill-rule:evenodd;clip-rule:evenodd;fill:#FFFFFF;" d="M67.05,88.45c0.434,0.1,0.55,0.434,0.35,1
		c-0.2,0.566-0.483,0.717-0.85,0.45c-0.333-0.233-0.4-0.551-0.2-0.95C66.55,88.55,66.783,88.384,67.05,88.45z"/>
	<path style="fill-rule:evenodd;clip-rule:evenodd;fill:#FFFFFF;" d="M98.45,104.75c0.6,0.267,0.833,0.634,0.7,1.1
		c-0.134,0.4-0.483,0.717-1.051,0.95c-0.699,0.3-1.383,0.45-2.05,0.45c-0.8,0-1.2-0.25-1.2-0.75c0-0.566,0.45-1.066,1.351-1.5
		C97.1,104.566,97.85,104.483,98.45,104.75z"/>
	<path style="fill-rule:evenodd;clip-rule:evenodd;fill:#FFFFFF;" d="M93.7,107.3c0.434,0.067,0.566,0.316,0.399,0.75
		c-0.133,0.434-0.416,0.566-0.85,0.4c-0.4-0.134-0.5-0.367-0.3-0.7C93.184,107.417,93.434,107.267,93.7,107.3z"/>
	<path style="fill-rule:evenodd;clip-rule:evenodd;fill:#CEAD65;" d="M88.15,108.25c-0.567,0.333-1.2,0.083-1.9-0.75
		c-0.8-0.9-0.833-1.2-0.1-0.9C86.917,106.967,87.583,107.517,88.15,108.25z"/>
	<path style="fill-rule:evenodd;clip-rule:evenodd;fill:#FFFFFF;" d="M88.35,108.4c-4.133-3.134-6.216-4.934-6.25-5.4
		c-0.033-0.3,0.367-0.167,1.2,0.4c0.8,0.566,1.45,1.149,1.95,1.75c0.667,0.699,2.8,2.449,6.4,5.25
		c0.933,0.699,0.883,0.75-0.15,0.149C90.5,109.95,89.45,109.233,88.35,108.4z"/>
	<path style="fill-rule:evenodd;clip-rule:evenodd;fill:#FFFFFF;" d="M87.2,73.6c0.7,0.4,0.916,0.816,0.649,1.25
		c-0.199,0.367-0.649,0.683-1.35,0.95c-1.566,0.667-2.65,0.884-3.25,0.65c-0.533-0.167-0.617-0.7-0.25-1.6
		c0.333-0.8,0.967-1.3,1.9-1.5C85.767,73.15,86.533,73.233,87.2,73.6z"/>
	<path style="fill-rule:evenodd;clip-rule:evenodd;fill:#FFFFFF;" d="M81.45,76.65c0.566,0.267,0.75,0.617,0.55,1.05
		c-0.2,0.433-0.566,0.517-1.1,0.25c-0.466-0.233-0.566-0.55-0.3-0.95S81.15,76.483,81.45,76.65z"/>
	<path style="fill-rule:evenodd;clip-rule:evenodd;fill:#FFFFFF;" d="M101.7,94.55c0.399,0.4,0.383,0.733-0.05,1
		c-0.233,0.167-0.684,0.384-1.351,0.65c-0.434,0.2-0.833,0.184-1.2-0.05c-0.399-0.267-0.416-0.584-0.05-0.95
		c0.4-0.4,0.851-0.684,1.351-0.851C100.967,94.217,101.4,94.283,101.7,94.55z"/>
	<path style="fill-rule:evenodd;clip-rule:evenodd;fill:#FFFFFF;" d="M98.1,96.45c0.233,0.3,0.167,0.566-0.199,0.8
		c-0.334,0.267-0.584,0.25-0.75-0.05c-0.134-0.267-0.051-0.517,0.25-0.75C97.7,96.217,97.934,96.217,98.1,96.45z"/>
	<path style="fill-rule:evenodd;clip-rule:evenodd;fill:#CEAD65;" d="M95.25,91.5c-0.134-0.2-0.283-0.383-0.45-0.55
		c-0.333-0.367-0.6-0.533-0.8-0.5s-0.15,0.184,0.15,0.45c0.166,0.133,0.35,0.267,0.55,0.399c-0.566-0.1-0.934-0.35-1.101-0.75
		c-0.133-0.366-0.133-0.6,0-0.7c0.167-0.133,0.417-0.017,0.75,0.351C94.783,90.7,95.083,91.134,95.25,91.5z"/>
	<path style="fill-rule:evenodd;clip-rule:evenodd;fill:#FFFFFF;" d="M95.9,90.65c0.399,0.666,0.333,1.066-0.2,1.199
		c-0.167,0.067-0.601-0.283-1.3-1.05c-0.834-0.933-1.267-1.416-1.301-1.45C92.9,89.15,92.85,88.934,92.95,88.7
		c0.1-0.233,0.267-0.351,0.5-0.351c0.2-0.033,0.616,0.25,1.25,0.851C95.233,89.767,95.634,90.25,95.9,90.65z"/>
</g>
<g>
	<path style="fill-rule:evenodd;clip-rule:evenodd;fill:#B7E7DD;" d="M52.15,47.75c0-1.967,0.75-3.667,2.25-5.1
		c1.5-1.4,3.233-2.1,5.2-2.1c2,0,3.667,0.6,5,1.8c1.367,1.233,2.05,2.833,2.05,4.8c0,1.833-0.933,4-2.8,6.5
		c-1.033,1.367-2.633,3.267-4.8,5.7h5.8c1.633,0,2.45,0.7,2.45,2.1c0,0.7-0.216,1.233-0.65,1.6c-0.433,0.333-0.966,0.5-1.6,0.5
		h-10.6c-1.667,0-2.5-0.7-2.5-2.1c0-0.534,0.25-1.083,0.75-1.65c0.167-0.2,1.517-1.733,4.05-4.6c1.6-1.867,2.883-3.5,3.85-4.9
		c0.733-1.066,1.1-2.05,1.1-2.95c0-0.667-0.217-1.233-0.65-1.7c-0.466-0.466-1.017-0.7-1.65-0.7c-1.267,0-2.167,0.85-2.7,2.55
		c-0.534,1.7-1.284,2.55-2.25,2.55c-0.733,0-1.3-0.233-1.7-0.7C52.35,48.95,52.15,48.417,52.15,47.75z"/>
	<path style="fill-rule:evenodd;clip-rule:evenodd;fill:#B7E7DD;" d="M83.5,44.45c1.2,2.1,1.8,4.7,1.8,7.8
		c0,3.066-0.6,5.65-1.8,7.75c-1.5,2.6-3.7,3.9-6.6,3.9s-5.1-1.3-6.6-3.9c-1.2-2.1-1.8-4.684-1.8-7.75c0-3.1,0.6-5.7,1.8-7.8
		c1.5-2.6,3.7-3.9,6.6-3.9S82,41.85,83.5,44.45z M80.35,52.25c0-4.934-1.15-7.4-3.45-7.4c-2.3,0-3.45,2.466-3.45,7.4
		c0,4.9,1.15,7.35,3.45,7.35C79.2,59.6,80.35,57.15,80.35,52.25z"/>
	<path style="fill-rule:evenodd;clip-rule:evenodd;fill:#B7E7DD;" d="M98.55,52.25c0-4.934-1.149-7.4-3.45-7.4
		c-2.3,0-3.449,2.466-3.449,7.4c0,4.9,1.149,7.35,3.449,7.35C97.4,59.6,98.55,57.15,98.55,52.25z M95.1,63.9
		c-2.899,0-5.1-1.3-6.6-3.9c-1.2-2.1-1.8-4.684-1.8-7.75c0-3.1,0.6-5.7,1.8-7.8c1.5-2.6,3.7-3.9,6.6-3.9c2.9,0,5.101,1.3,6.601,3.9
		c1.2,2.1,1.8,4.7,1.8,7.8c0,3.066-0.6,5.65-1.8,7.75C100.2,62.6,98,63.9,95.1,63.9z"/>
	<path style="fill-rule:evenodd;clip-rule:evenodd;fill:#B7E7DD;" d="M118.6,46.35c0,2.133-0.866,3.75-2.6,4.85
		c1.167,0.533,2.1,1.3,2.8,2.3c0.733,1.033,1.101,2.167,1.101,3.4c0,1.934-0.767,3.583-2.301,4.95
		c-1.566,1.367-3.466,2.05-5.699,2.05c-2.2,0-4.067-0.683-5.601-2.05c-1.366-1.2-2.05-2.5-2.05-3.9c0-0.6,0.267-1.117,0.8-1.55
		c0.5-0.4,1.05-0.6,1.65-0.6c0.633,0,1.333,0.634,2.1,1.9c0.8,1.233,1.851,1.85,3.15,1.85c0.833,0,1.533-0.283,2.1-0.85
		c0.601-0.567,0.9-1.267,0.9-2.1c0-1.534-0.9-2.45-2.7-2.75c-1.8-0.267-2.7-1-2.7-2.2c0-1.066,0.75-1.8,2.25-2.2
		c1.5-0.4,2.25-1.2,2.25-2.4c0-0.6-0.2-1.1-0.6-1.5c-0.434-0.4-1-0.6-1.7-0.6c-1.066,0-1.967,0.517-2.7,1.55s-1.416,1.55-2.05,1.55
		c-0.6,0-1.1-0.25-1.5-0.75c-0.366-0.433-0.55-0.966-0.55-1.6c0-1.267,0.717-2.434,2.149-3.5c1.434-1.1,3.017-1.65,4.75-1.65
		c2.101,0,3.801,0.667,5.101,2C118.05,43.684,118.6,44.95,118.6,46.35z"/>
</g>
<g>
	
		<linearGradient id="SVGID_12_" gradientUnits="userSpaceOnUse" x1="-62.647" y1="59.6279" x2="-39.6919" y2="59.6279" gradientTransform="matrix(4.352557e-005 -1 1 -0.001 -1.604094e-004 -4.842016e-005)">
		<stop  offset="0" style="stop-color:#092924"/>
		<stop  offset="0.4549" style="stop-color:#17413E"/>
		<stop  offset="0.9686" style="stop-color:#2A615F"/>
	</linearGradient>
	<path style="fill-rule:evenodd;clip-rule:evenodd;fill:url(#SVGID_12_);" d="M52.15,46.8c0-1.966,0.75-3.667,2.25-5.1
		c1.5-1.4,3.233-2.1,5.2-2.1c2,0,3.667,0.6,5,1.8c1.367,1.233,2.05,2.833,2.05,4.8c0,1.833-0.933,4-2.8,6.5
		c-1.033,1.366-2.633,3.267-4.8,5.7h5.8c1.633,0,2.45,0.684,2.45,2.05c0,1.4-0.75,2.1-2.25,2.1h-10.6c-1.667,0-2.5-0.7-2.5-2.1
		c0-0.5,0.25-1.034,0.75-1.6c0.167-0.2,1.517-1.733,4.05-4.6c1.6-1.867,2.883-3.5,3.85-4.9c0.733-1.067,1.1-2.05,1.1-2.95
		c0-0.667-0.217-1.233-0.65-1.7c-0.466-0.5-1.017-0.75-1.65-0.75c-1.267,0-2.167,0.866-2.7,2.6c-0.534,1.7-1.284,2.55-2.25,2.55
		c-0.733,0-1.3-0.233-1.7-0.7C52.35,48,52.15,47.467,52.15,46.8z"/>
	
		<linearGradient id="SVGID_13_" gradientUnits="userSpaceOnUse" x1="-63.002" y1="76.9028" x2="-39.6519" y2="76.9028" gradientTransform="matrix(4.282656e-005 -1 1 -0.001 2.691853e-005 4.449275e-004)">
		<stop  offset="0" style="stop-color:#092924"/>
		<stop  offset="0.4549" style="stop-color:#17413E"/>
		<stop  offset="0.9686" style="stop-color:#2A615F"/>
	</linearGradient>
	<path style="fill-rule:evenodd;clip-rule:evenodd;fill:url(#SVGID_13_);" d="M83.5,43.5c1.2,2.1,1.8,4.684,1.8,7.75
		c0,3.1-0.6,5.7-1.8,7.8c-1.5,2.6-3.7,3.9-6.6,3.9s-5.1-1.3-6.6-3.9c-1.2-2.1-1.8-4.7-1.8-7.8c0-3.066,0.6-5.65,1.8-7.75
		c1.5-2.6,3.7-3.9,6.6-3.9S82,40.9,83.5,43.5z M80.35,51.25c0-4.9-1.15-7.35-3.45-7.35c-2.3,0-3.45,2.45-3.45,7.35
		c0,4.934,1.15,7.4,3.45,7.4C79.2,58.65,80.35,56.184,80.35,51.25z"/>
	
		<linearGradient id="SVGID_14_" gradientUnits="userSpaceOnUse" x1="-63.02" y1="95.1035" x2="-39.6699" y2="95.1035" gradientTransform="matrix(4.282656e-005 -1 1 -0.001 2.691853e-005 4.449275e-004)">
		<stop  offset="0" style="stop-color:#092924"/>
		<stop  offset="0.4549" style="stop-color:#17413E"/>
		<stop  offset="0.9686" style="stop-color:#2A615F"/>
	</linearGradient>
	<path style="fill-rule:evenodd;clip-rule:evenodd;fill:url(#SVGID_14_);" d="M98.55,51.25c0-4.9-1.149-7.35-3.45-7.35
		c-2.3,0-3.449,2.45-3.449,7.35c0,4.934,1.149,7.4,3.449,7.4C97.4,58.65,98.55,56.184,98.55,51.25z M95.1,62.95
		c-2.899,0-5.1-1.3-6.6-3.9c-1.2-2.1-1.8-4.7-1.8-7.8c0-3.066,0.6-5.65,1.8-7.75c1.5-2.6,3.7-3.9,6.6-3.9c2.9,0,5.101,1.3,6.601,3.9
		c1.2,2.1,1.8,4.684,1.8,7.75c0,3.1-0.6,5.7-1.8,7.8C100.2,61.65,98,62.95,95.1,62.95z"/>
	
		<linearGradient id="SVGID_15_" gradientUnits="userSpaceOnUse" x1="-63.0371" y1="112.0781" x2="-39.687" y2="112.0781" gradientTransform="matrix(4.282656e-005 -1 1 -0.001 2.691853e-005 4.449275e-004)">
		<stop  offset="0" style="stop-color:#092924"/>
		<stop  offset="0.4549" style="stop-color:#17413E"/>
		<stop  offset="0.9686" style="stop-color:#2A615F"/>
	</linearGradient>
	<path style="fill-rule:evenodd;clip-rule:evenodd;fill:url(#SVGID_15_);" d="M118.6,45.4c0,2.133-0.866,3.75-2.6,4.85
		c1.167,0.533,2.1,1.3,2.8,2.3c0.733,1.034,1.101,2.167,1.101,3.4c0,1.933-0.767,3.583-2.301,4.95
		c-1.566,1.367-3.466,2.05-5.699,2.05c-2.2,0-4.067-0.684-5.601-2.05c-1.366-1.2-2.05-2.5-2.05-3.9c0-0.6,0.267-1.117,0.8-1.55
		c0.5-0.4,1.05-0.6,1.65-0.6c0.633,0,1.333,0.617,2.1,1.85c0.8,1.233,1.851,1.85,3.15,1.85c0.833,0,1.533-0.283,2.1-0.85
		c0.601-0.567,0.9-1.267,0.9-2.1c0-1.534-0.9-2.434-2.7-2.7s-2.7-1-2.7-2.2c0-1.1,0.75-1.85,2.25-2.25c1.5-0.4,2.25-1.184,2.25-2.35
		c0-0.633-0.2-1.133-0.6-1.5c-0.434-0.434-1-0.65-1.7-0.65c-1.066,0-1.967,0.533-2.7,1.6c-0.733,1.034-1.416,1.55-2.05,1.55
		c-0.6,0-1.1-0.25-1.5-0.75c-0.366-0.434-0.55-0.967-0.55-1.6c0-1.267,0.717-2.434,2.149-3.5c1.434-1.1,3.017-1.65,4.75-1.65
		c2.134,0,3.834,0.65,5.101,1.95C118.05,42.684,118.6,43.967,118.6,45.4z"/>
</g>
<g>
	
		<use xlink:href="#FlashAICB_x5F_1_x2F_Layer_34_copy_2_x2F__x3C_Path_x3E__x5F_2"  width="118.7" height="57.1" y="-57.1" transform="matrix(1 0 0 -1 25.7002 87.5498)" style="overflow:visible;opacity:0.2813;enable-background:new    ;"/>
	
		<use xlink:href="#FlashAICB_x5F_1_x2F_Layer_34_copy_2_x2F__x3C_Path_x3E__x5F_1"  width="110.05" height="55.75" y="-55.75" transform="matrix(1 0 0 -1 29.8501 28.75)" style="overflow:visible;opacity:0.1094;enable-background:new    ;"/>
	
		<use xlink:href="#FlashAICB_x5F_1_x2F_Layer_34_copy_2_x2F__x3C_Path_x3E_"  width="110.05" height="61.294" y="-61.294" transform="matrix(1 0 0 -1 29.8501 28.75)" style="overflow:visible;opacity:0.0898;enable-background:new    ;"/>
</g>
</svg>
