<?xml version="1.0" encoding="iso-8859-1"?>
<!-- Generator: Adobe Illustrator 15.1.0, SVG Export Plug-In . SVG Version: 6.00 Build 0)  -->
<!DOCTYPE svg PUBLIC "-//W3C//DTD SVG 1.1//EN" "http://www.w3.org/Graphics/SVG/1.1/DTD/svg11.dtd">
<svg version="1.1" id="Layer_2" xmlns="http://www.w3.org/2000/svg" xmlns:xlink="http://www.w3.org/1999/xlink" x="0px" y="0px"
	 width="171.75px" height="171.75px" viewBox="0 0 171.75 171.75" style="enable-background:new 0 0 171.75 171.75;"
	 xml:space="preserve">
<symbol  id="FlashAICB_x2F_Layer_2_x2F__x3C_Group_x3E_" viewBox="0 -66.434 119.2 66.434">
	<g id="Layer_1_7_">
		<g>
			
				<use xlink:href="#FlashAICB_x2F_Layer_2_x2F__x3C_Path_x3E__x5F_1_x5F_0"  width="119.2" height="60.45" y="-60.45" style="overflow:visible;opacity:0.2695;enable-background:new    ;"/>
			
				<use xlink:href="#FlashAICB_x2F_Layer_2_x2F__x3C_Path_x3E_"  width="119.2" height="66.434" y="-66.434" style="overflow:visible;opacity:0.1719;enable-background:new    ;"/>
		</g>
	</g>
</symbol>
<symbol  id="FlashAICB_x2F_Layer_2_x2F__x3C_Path_x3E_" viewBox="0 -66.434 119.2 66.434">
	<g id="Layer_1_5_">
		<path style="fill-rule:evenodd;clip-rule:evenodd;fill:#FFFFFF;" d="M115.4-37.25c2.533-6.1,3.8-11.85,3.8-17.25
			c0-5.367-1.567-8.75-4.7-10.15c-2.533-1.133-6.783-1.117-12.75,0.05c-7.867,1.9-14.183,3.367-18.95,4.4
			c-8.667,1.833-16.4,2.75-23.2,2.75c-6.833,0-14.567-1-23.2-3c-9.033-2.367-15.35-3.966-18.95-4.8c-6-1.367-10.25-1.55-12.75-0.55
			C1.567-64.533,0-61.217,0-55.85c0,5.934,1.267,12.067,3.8,18.4c2.7,6.7,6.467,12.75,11.3,18.15C26.733-6.433,41.567,0,59.6,0
			c17.833,0,32.65-6.5,44.45-19.5C108.883-24.833,112.667-30.75,115.4-37.25z"/>
	</g>
</symbol>
<symbol  id="FlashAICB_x2F_Layer_2_x2F__x3C_Path_x3E__x5F_0" viewBox="0 -61.9 128.6 61.9">
	<g id="Layer_1_6_">
		
			<radialGradient id="SVGID_1_" cx="64.2998" cy="-30.9502" r="50.4599" gradientTransform="matrix(1 0 0 -1 0 -61.9004)" gradientUnits="userSpaceOnUse">
			<stop  offset="0" style="stop-color:#F3A32D;stop-opacity:0"/>
			<stop  offset="0.0627" style="stop-color:#E99A2C;stop-opacity:0.0627"/>
			<stop  offset="0.1725" style="stop-color:#CD832A;stop-opacity:0.2392"/>
			<stop  offset="0.3176" style="stop-color:#A05E27;stop-opacity:0.5216"/>
			<stop  offset="0.4863" style="stop-color:#632B23;stop-opacity:0.9098"/>
			<stop  offset="0.5216" style="stop-color:#551F23"/>
		</radialGradient>
		<path style="fill-rule:evenodd;clip-rule:evenodd;fill:url(#SVGID_1_);" d="M128.05-0.25L128.6,0
			c-0.633-17.233-7.167-31.85-19.6-43.85C96.533-55.883,81.617-61.9,64.25-61.9c-17.033,0-31.733,5.816-44.1,17.45
			C7.783-32.85,1.067-18.633,0-1.8c5-13,13.217-23.5,24.65-31.5c11.7-8.2,24.733-12.3,39.1-12.3c14.633,0,27.883,4.25,39.75,12.75
			C115.1-24.517,123.283-13.65,128.05-0.25z"/>
	</g>
</symbol>
<symbol  id="FlashAICB_x2F_Layer_2_x2F__x3C_Path_x3E__x5F_1" viewBox="0 -36.076 41.557 36.051">
	<g id="Layer_1_3_">
		<path style="fill-rule:evenodd;clip-rule:evenodd;fill:#231F20;" d="M41.3-15.55c0-2.733-0.283-4.534-0.85-5.4
			c-1.5-2.267-5-3.417-10.5-3.45c-5.133-0.067-6.733-0.1-4.8-0.1l-1.35-1.95c0.267-1.033,0.167-1.95-0.3-2.75
			c-1-1.7-3.467-3.966-7.4-6.8c-0.434-0.3-0.967,0.283-1.6,1.75c0.1,0.467,0.417,0.983,0.95,1.55c0.667,0.6,1.133,1.05,1.4,1.35
			c0.7,0.767,1.1,1.684,1.2,2.75c0.1,1.3-0.4,2.434-1.5,3.4l-2.1,1c-4.167,0.133-6.784,0.367-7.85,0.7
			c-3.167,0.933-5.217,3.133-6.15,6.6c-0.4,1.467-0.534,3.133-0.4,5c0.034,0.1,0.233,1.583,0.6,4.45C1.05-4.817,2.5-2.833,5-1.5
			c1.609,0.847,3.326,1.338,5.15,1.475c2.429-0.017,8.362-0.025,17.8-0.025c4.533,0,7.816-0.6,9.85-1.8c2.067-1.2,3.267-3.3,3.6-6.3
			c0.167-1.467,0.2-2.733,0.1-3.8C41.367-13.917,41.3-15.117,41.3-15.55z"/>
	</g>
</symbol>
<symbol  id="FlashAICB_x2F_Layer_2_x2F__x3C_Path_x3E__x5F_1_x5F_0" viewBox="0 -60.45 119.2 60.45">
	<g id="Layer_1_4_">
		
			<linearGradient id="SVGID_2_" gradientUnits="userSpaceOnUse" x1="16160.585" y1="-58.4668" x2="16220.9766" y2="-58.4668" gradientTransform="matrix(1.654944e-005 1 -1 -0.001 0.8657 -16221.1064)">
			<stop  offset="0.1294" style="stop-color:#E2B8B2"/>
			<stop  offset="0.9255" style="stop-color:#FFFFFF"/>
		</linearGradient>
		<path style="fill-rule:evenodd;clip-rule:evenodd;fill:url(#SVGID_2_);" d="M104.05-19.5c4.833-5.333,8.617-11.25,11.35-17.75
			c2.533-6.1,3.8-11.85,3.8-17.25c0-1.933-0.167-3.55-0.5-4.85c-2,12-7.85,22.65-17.55,31.95c-11.433,11-25.283,16.5-41.55,16.5
			c-16.5,0-30.4-5.483-41.7-16.45c-9.767-9.467-15.566-20.5-17.4-33.1C0.167-59.217,0-57.683,0-55.85c0,5.934,1.267,12.067,3.8,18.4
			c2.7,6.7,6.467,12.75,11.3,18.15C26.733-6.433,41.567,0,59.6,0C77.433,0,92.25-6.5,104.05-19.5z"/>
	</g>
</symbol>
<symbol  id="FlashAICB_x2F_Layer_2_x2F__x3C_Path_x3E__x5F_2" viewBox="0 -128.6 128.8 128.6">
	<g id="Layer_1_2_">
		
			<radialGradient id="SVGID_3_" cx="64.3999" cy="-64.2998" r="64.35" gradientTransform="matrix(1 0 0 -1 0 -128.5996)" gradientUnits="userSpaceOnUse">
			<stop  offset="0" style="stop-color:#F6BD8E"/>
			<stop  offset="0.0196" style="stop-color:#F5BA8C"/>
			<stop  offset="0.2471" style="stop-color:#ED9B78"/>
			<stop  offset="0.4431" style="stop-color:#E9886B"/>
			<stop  offset="0.5843" style="stop-color:#E78267"/>
			<stop  offset="0.5882" style="stop-color:#E68066;stop-opacity:0.9922"/>
			<stop  offset="0.6745" style="stop-color:#DA6858;stop-opacity:0.902"/>
			<stop  offset="0.7686" style="stop-color:#D1564E;stop-opacity:0.8392"/>
			<stop  offset="0.8706" style="stop-color:#CC4B48;stop-opacity:0.8"/>
			<stop  offset="1" style="stop-color:#CA4846;stop-opacity:0.7882"/>
		</radialGradient>
		<path style="fill-rule:evenodd;clip-rule:evenodd;fill:url(#SVGID_3_);" d="M128.8-64.3c0-17.767-6.283-32.917-18.85-45.45
			C97.383-122.317,82.2-128.6,64.4-128.6c-17.767,0-32.95,6.283-45.55,18.85C6.283-97.217,0-82.067,0-64.3
			c0,17.733,6.283,32.883,18.85,45.45C31.45-6.283,46.633,0,64.4,0c17.8,0,32.983-6.283,45.55-18.85
			C122.517-31.383,128.8-46.533,128.8-64.3z"/>
	</g>
</symbol>
<g>
	<path style="fill-rule:evenodd;clip-rule:evenodd;fill:#FFFFFF;" d="M165,52.45c4.5,10.633,6.75,21.767,6.75,33.4
		s-2.25,22.766-6.75,33.4c-4.366,10.267-10.517,19.366-18.45,27.3s-17.033,14.083-27.3,18.45c-10.634,4.5-21.767,6.75-33.4,6.75
		c-11.633,0-22.766-2.25-33.399-6.75c-10.267-4.367-19.367-10.517-27.3-18.45c-7.9-7.934-14.033-17.033-18.4-27.3
		C2.25,108.616,0,97.483,0,85.85s2.25-22.767,6.75-33.4c4.367-10.267,10.5-19.367,18.4-27.3c7.934-7.9,17.033-14.033,27.3-18.4
		C63.083,2.25,74.217,0,85.85,0c11.634,0,22.767,2.25,33.4,6.75c10.267,4.367,19.366,10.5,27.3,18.4
		C154.483,33.083,160.634,42.184,165,52.45z"/>
	<g>
		<g>
			
				<linearGradient id="SVGID_4_" gradientUnits="userSpaceOnUse" x1="-157.6851" y1="85.876" x2="-14.2354" y2="85.876" gradientTransform="matrix(6.973501e-006 -1 1 -0.001 -1.064519e-004 4.449275e-004)">
				<stop  offset="0.0353" style="stop-color:#722F2A"/>
				<stop  offset="0.5843" style="stop-color:#E76267"/>
				<stop  offset="1" style="stop-color:#DCB574"/>
			</linearGradient>
			<path style="fill-rule:evenodd;clip-rule:evenodd;fill:url(#SVGID_4_);" d="M157.55,85.85c0,9.7-1.883,19-5.649,27.9
				c-3.634,8.566-8.75,16.167-15.351,22.8c-6.633,6.634-14.233,11.767-22.8,15.4c-8.9,3.767-18.2,5.649-27.9,5.649
				c-9.7,0-19-1.883-27.899-5.649c-8.567-3.634-16.15-8.767-22.75-15.4c-6.6-6.633-11.717-14.233-15.35-22.8
				c-3.767-8.9-5.65-18.2-5.65-27.9c0-9.7,1.883-19,5.65-27.9c3.6-8.567,8.717-16.167,15.35-22.8c6.6-6.6,14.183-11.717,22.75-15.35
				c8.9-3.767,18.2-5.65,27.899-5.65c9.7,0,19,1.883,27.9,5.65c8.566,3.633,16.167,8.75,22.8,15.35
				c6.601,6.633,11.717,14.233,15.351,22.8C155.667,66.85,157.55,76.15,157.55,85.85z"/>
			<path style="fill-rule:evenodd;clip-rule:evenodd;fill:#470B17;" d="M156.65,85.85c0-9.6-1.851-18.784-5.551-27.55
				c-3.6-8.466-8.666-15.966-15.199-22.5C122.1,21.967,105.417,15.05,85.85,15.05c-9.6,0-18.783,1.85-27.55,5.55
				c-8.466,3.6-15.966,8.667-22.5,15.2c-6.5,6.534-11.55,14.034-15.15,22.5c-3.7,8.767-5.55,17.95-5.55,27.55
				c0,19.567,6.9,36.266,20.7,50.1c6.534,6.533,14.034,11.6,22.5,15.2c8.767,3.699,17.95,5.55,27.55,5.55
				c9.601,0,18.784-1.851,27.551-5.55c8.466-3.601,15.966-8.667,22.5-15.2c6.533-6.533,11.6-14.05,15.199-22.55
				C154.8,104.633,156.65,95.45,156.65,85.85z M152.95,58.05c3.666,8.833,5.5,18.1,5.5,27.8c0,9.7-1.834,18.966-5.5,27.8
				c-3.634,8.866-8.884,16.716-15.75,23.55c-6.834,6.866-14.684,12.116-23.55,15.75c-8.834,3.666-18.101,5.5-27.801,5.5
				c-9.7,0-18.966-1.834-27.8-5.5c-8.833-3.634-16.683-8.884-23.55-15.75c-6.833-6.834-12.083-14.684-15.75-23.55
				c-3.633-8.834-5.45-18.101-5.45-27.8c0-9.7,1.817-18.967,5.45-27.8c3.667-8.833,8.917-16.683,15.75-23.55
				c6.867-6.867,14.717-12.117,23.55-15.75c8.833-3.667,18.1-5.5,27.8-5.5c9.7,0,18.967,1.833,27.801,5.5
				c8.866,3.667,16.716,8.917,23.55,15.75C144.066,41.367,149.316,49.217,152.95,58.05z"/>
		</g>
		
			<use xlink:href="#FlashAICB_x2F_Layer_2_x2F__x3C_Path_x3E__x5F_2"  width="128.8" height="128.6" y="-128.6" transform="matrix(1 0 0 -1 21.4502 19.25)" style="overflow:visible;opacity:0.9102;enable-background:new    ;"/>
		<g>
			<g>
				<g>
					<g>
						<g>
							<g>
								
									<linearGradient id="SVGID_5_" gradientUnits="userSpaceOnUse" x1="-45.7979" y1="85.4175" x2="-24.0729" y2="85.4175" gradientTransform="matrix(4.602992e-005 -1 1 -0.001 1.074325e-004 4.439838e-004)">
									<stop  offset="0.2824" style="stop-color:#AB3A48"/>
									<stop  offset="0.2863" style="stop-color:#AB3B48"/>
									<stop  offset="0.702" style="stop-color:#D88F62"/>
									<stop  offset="0.8941" style="stop-color:#E9B06C"/>
								</linearGradient>
								<path style="fill-rule:evenodd;clip-rule:evenodd;fill:url(#SVGID_5_);" d="M96.35,32.1c0.301,1.033,0.267,2.083-0.1,3.15
									c-0.267,0.767-0.7,1.434-1.3,2l-1.2,1.1l0.25,1.6c0.134,0.767,0.066,1.566-0.2,2.4c-0.366,1-1,1.833-1.899,2.5l-0.65,0.4
									c-0.767,0.333-1.5,0.5-2.2,0.5c-0.833,0-1.649-0.217-2.45-0.65L85.2,44.3l-1.5,0.75c-0.833,0.434-1.733,0.6-2.7,0.5
									c-0.933-0.1-1.783-0.433-2.55-1c-0.767-0.566-1.317-1.3-1.65-2.2c-0.333-0.867-0.417-1.784-0.25-2.75l0.3-1.6l-1.15-1.15
									c-0.633-0.667-1.067-1.483-1.3-2.45c-0.2-0.933-0.15-1.85,0.15-2.75c0.467-1.267,1.317-2.216,2.55-2.85
									c0.5-0.233,1.033-0.383,1.6-0.45l1.6-0.2l0.75-1.45c0.534-1.034,1.3-1.767,2.3-2.2c0.633-0.333,1.35-0.5,2.15-0.5h0.1
									c0.967,0.033,1.851,0.3,2.65,0.8c0.8,0.534,1.4,1.233,1.8,2.1l0.7,1.45l1.6,0.25c0.967,0.167,1.801,0.566,2.5,1.2
									C95.583,30.434,96.083,31.2,96.35,32.1z"/>
								<path style="fill-rule:evenodd;clip-rule:evenodd;fill:none;stroke:#F7E0E7;stroke-width:0.25;" d="M96.35,32.1
									c0.301,1.033,0.267,2.083-0.1,3.15c-0.267,0.767-0.7,1.434-1.3,2l-1.2,1.1l0.25,1.6c0.134,0.767,0.066,1.566-0.2,2.4
									c-0.366,1-1,1.833-1.899,2.5l-0.65,0.4c-0.767,0.333-1.5,0.5-2.2,0.5c-0.833,0-1.649-0.217-2.45-0.65L85.2,44.3l-1.5,0.75
									c-0.833,0.434-1.733,0.6-2.7,0.5c-0.933-0.1-1.783-0.433-2.55-1c-0.767-0.566-1.317-1.3-1.65-2.2
									c-0.333-0.867-0.417-1.784-0.25-2.75l0.3-1.6l-1.15-1.15c-0.633-0.667-1.067-1.483-1.3-2.45c-0.2-0.933-0.15-1.85,0.15-2.75
									c0.467-1.267,1.317-2.216,2.55-2.85c0.5-0.233,1.033-0.383,1.6-0.45l1.6-0.2l0.75-1.45c0.534-1.034,1.3-1.767,2.3-2.2
									c0.633-0.333,1.35-0.5,2.15-0.5h0.1c0.967,0.033,1.851,0.3,2.65,0.8c0.8,0.534,1.4,1.233,1.8,2.1l0.7,1.45l1.6,0.25
									c0.967,0.167,1.801,0.566,2.5,1.2C95.583,30.434,96.083,31.2,96.35,32.1z"/>
							</g>
						</g>
						<path style="fill-rule:evenodd;clip-rule:evenodd;fill:#470B17;" d="M91.9,31.45c0.866,0.167,1.433,0.667,1.699,1.5
							c0.167,0.466,0.167,0.917,0,1.35c-0.166,0.333-0.366,0.617-0.6,0.85l-2.3,2.15l0.5,3.1c0.033,0.3,0,0.65-0.101,1.05
							c-0.133,0.366-0.399,0.716-0.8,1.05c-0.767,0.5-1.533,0.533-2.3,0.1l-2.75-1.5l-2.8,1.4c-0.833,0.4-1.583,0.333-2.25-0.2
							c-0.733-0.533-1.017-1.25-0.85-2.15l0.6-3.1l-2.2-2.2c-0.6-0.667-0.767-1.417-0.5-2.25c0.3-0.867,0.9-1.35,1.8-1.45l3.1-0.35
							L83.6,28c0.167-0.367,0.433-0.65,0.8-0.85c0.367-0.233,0.75-0.333,1.15-0.3c0.867,0,1.5,0.417,1.9,1.25l1.35,2.85L91.9,31.45z
							"/>
						
							<linearGradient id="SVGID_6_" gradientUnits="userSpaceOnUse" x1="-41.9355" y1="85.4092" x2="-27.9355" y2="85.4092" gradientTransform="matrix(7.142858e-005 -1 1 -0.001 -4.033314e-005 4.439838e-004)">
							<stop  offset="0.2824" style="stop-color:#E94B46"/>
							<stop  offset="0.6784" style="stop-color:#E99459"/>
							<stop  offset="0.8941" style="stop-color:#EAB562"/>
						</linearGradient>
						<path style="fill-rule:evenodd;clip-rule:evenodd;fill:url(#SVGID_6_);" d="M91.7,32.45c0.467,0.066,0.783,0.333,0.95,0.8
							c0.066,0.3,0.05,0.533-0.051,0.7c-0.033,0.2-0.133,0.35-0.3,0.45l-2.649,2.5l0.55,3.65l-0.05,0.55
							c-0.101,0.233-0.25,0.417-0.45,0.55c-0.4,0.3-0.8,0.317-1.2,0.05l-3.2-1.75L82,41.6c-0.433,0.233-0.833,0.183-1.2-0.15
							c-0.4-0.3-0.55-0.667-0.45-1.1l0.7-3.6l-2.55-2.6c-0.367-0.367-0.467-0.767-0.3-1.2c0.133-0.434,0.45-0.7,0.95-0.8l3.65-0.45
							l1.7-3.25c0.233-0.4,0.583-0.6,1.05-0.6s0.8,0.216,1,0.65l1.55,3.35L91.7,32.45z"/>
						<path style="fill-rule:evenodd;clip-rule:evenodd;fill:#F7E0E7;" d="M91.7,32.45c0.467,0.066,0.783,0.333,0.95,0.8
							c0.066,0.3,0.05,0.533-0.051,0.7c-0.033,0.2-0.133,0.35-0.3,0.45L92.25,34c-0.1-0.434-0.4-0.7-0.9-0.8l-3.6-0.6l-1.55-3.3
							c-0.2-0.433-0.55-0.65-1.05-0.65c-0.467-0.066-0.817,0.133-1.05,0.6l-1.7,3.25l-3.6,0.45c-0.3,0.066-0.5,0.15-0.6,0.25v-0.25
							c0.133-0.434,0.45-0.7,0.95-0.8l3.65-0.45l1.7-3.25c0.233-0.4,0.583-0.6,1.05-0.6s0.8,0.216,1,0.65l1.55,3.35L91.7,32.45z"/>
					</g>
				</g>
			</g>
			<g>
				<g>
					<g>
						
							<linearGradient id="SVGID_7_" gradientUnits="userSpaceOnUse" x1="-58.0547" y1="52.3779" x2="-29.6196" y2="52.3779" gradientTransform="matrix(0.0193 -0.9998 0.9998 0.0193 3.003739e-004 2.000220e-004)">
							<stop  offset="0.2824" style="stop-color:#AB3A48"/>
							<stop  offset="0.2863" style="stop-color:#AB3B48"/>
							<stop  offset="0.702" style="stop-color:#D88F62"/>
							<stop  offset="0.8941" style="stop-color:#E9B06C"/>
						</linearGradient>
						<path style="fill-rule:evenodd;clip-rule:evenodd;fill:url(#SVGID_7_);" d="M66.3,32.95V33c0.633,1.4,0.417,2.95-0.65,4.65
							c-0.6,0.967-1.367,1.85-2.3,2.65c-2.167,2.067-4.333,3.267-6.5,3.6H56.3l-1,1.5c-1.9,2.5-3.8,4.1-5.7,4.8l-0.25,0.05
							L48.8,52.2c-1.033,2.866-2.4,4.933-4.1,6.2l-0.45,0.3L44,58.8c-0.2,0.067-0.5,0.1-0.9,0.1c-0.434-0.066-0.783-0.183-1.05-0.35
							c-0.7-0.433-1.267-1.1-1.7-2l-0.65,0.2l-0.55,0.1l-0.2-0.05c-0.733-0.033-1.317-0.35-1.75-0.95
							c-0.8-1.167-0.983-2.617-0.55-4.35c0.333-1.267,0.934-2.467,1.8-3.6c1.233-1.5,2.733-2.617,4.5-3.35
							c-0.1-1.2,0.3-2.433,1.2-3.7c0.667-0.967,1.5-1.817,2.5-2.55c1.467-0.966,3.1-1.583,4.9-1.85c0.3-1.034,0.967-2.034,2-3
							c0.833-0.733,1.733-1.333,2.7-1.8c1.4-0.566,2.883-0.85,4.45-0.85c1.533,0.034,2.883,0.333,4.05,0.9
							C65.483,31.867,66,32.283,66.3,32.95z"/>
						<path style="fill-rule:evenodd;clip-rule:evenodd;fill:none;stroke:#F7E0E7;stroke-width:0.25;" d="M66.3,32.95
							c-0.3-0.667-0.816-1.083-1.55-1.25c-1.167-0.567-2.517-0.867-4.05-0.9c-1.567,0-3.05,0.284-4.45,0.85
							c-0.967,0.467-1.867,1.067-2.7,1.8c-1.033,0.966-1.7,1.966-2,3c-1.8,0.267-3.433,0.883-4.9,1.85
							c-1,0.733-1.833,1.583-2.5,2.55c-0.9,1.267-1.3,2.5-1.2,3.7c-1.767,0.733-3.267,1.85-4.5,3.35
							c-0.867,1.133-1.467,2.333-1.8,3.6c-0.433,1.733-0.25,3.184,0.55,4.35c0.433,0.6,1.017,0.917,1.75,0.95l0.2,0.05l0.55-0.1
							l0.65-0.2c0.433,0.9,1,1.567,1.7,2c0.267,0.167,0.617,0.284,1.05,0.35c0.4,0,0.7-0.033,0.9-0.1l0.25-0.1l0.45-0.3
							c1.7-1.267,3.066-3.333,4.1-6.2l0.55-1.95l0.25-0.05c1.9-0.7,3.8-2.3,5.7-4.8l1-1.5h0.55c2.167-0.333,4.333-1.533,6.5-3.6
							c0.933-0.8,1.7-1.683,2.3-2.65c1.067-1.7,1.283-3.25,0.65-4.65V32.95z"/>
					</g>
				</g>
				<path style="fill-rule:evenodd;clip-rule:evenodd;fill:#470B17;" d="M64.3,33.2c0.233,0,0.417,0.15,0.55,0.45
					c0.367,0.833,0.217,1.833-0.45,3c-0.5,0.867-1.183,1.684-2.05,2.45c-1.967,1.867-3.883,2.95-5.75,3.25h-0.3
					c-0.2-0.067-0.367-0.184-0.5-0.35l-0.2-0.4c-0.333,0.966-0.85,1.9-1.55,2.8c-1.533,2.2-3.2,3.633-5,4.3H48.9l-0.15,0.05H48.7
					c-0.167,0-0.333-0.083-0.5-0.25L48,48.2c0,1.133-0.233,2.267-0.7,3.4c-0.9,2.633-2.083,4.483-3.55,5.55l-0.2,0.1L43.5,57.3h-0.3
					c-0.133,0-0.233-0.033-0.3-0.1c-0.867-0.534-1.383-1.483-1.55-2.85c-0.7,0.433-1.383,0.716-2.05,0.85l-0.2,0.05h-0.05
					c-0.233,0-0.417-0.1-0.55-0.3c-0.567-0.833-0.65-1.917-0.25-3.25c0.3-1.034,0.783-1.983,1.45-2.85
					c1.566-1.867,3.417-2.967,5.55-3.3h-0.1L45.1,45.5c-0.2-0.033-0.35-0.167-0.45-0.4c-0.3-0.967-0.066-2.034,0.7-3.2
					c0.566-0.867,1.3-1.633,2.2-2.3c1.667-1.1,3.483-1.65,5.45-1.65c-0.1-1,0.333-2,1.3-3c0.733-0.733,1.6-1.35,2.6-1.85
					c1.233-0.5,2.517-0.733,3.85-0.7c1.367,0,2.533,0.267,3.5,0.8H64.3z"/>
				<g>
					<g>
						<g>
							<g>
								<g>
									<g>
										<g>
											
												<linearGradient id="SVGID_8_" gradientUnits="userSpaceOnUse" x1="-37.1147" y1="59.416" x2="-32.6141" y2="59.416" gradientTransform="matrix(0.0167 -0.9999 0.9999 0.0167 -4.578941e-005 -4.397966e-004)">
												<stop  offset="0.1059" style="stop-color:#EAB562"/>
												<stop  offset="0.3216" style="stop-color:#E99459"/>
												<stop  offset="0.7176" style="stop-color:#E94B46"/>
											</linearGradient>
											<path style="fill-rule:evenodd;clip-rule:evenodd;fill:url(#SVGID_8_);" d="M63.9,33.85c0.033,0.7-0.433,1.4-1.4,2.1
												c-0.733,0.5-1.583,0.917-2.55,1.25c-2.5,0.866-4.567,1.1-6.2,0.7c1.9-1.1,3.283-1.966,4.15-2.6
												C59.9,33.934,61.9,33.45,63.9,33.85z"/>
											<path style="fill-rule:evenodd;clip-rule:evenodd;fill:#F7DED7;" d="M53.7,37.85c-0.1-0.767,0.267-1.567,1.1-2.4
												c0.667-0.7,1.467-1.267,2.4-1.7c1.133-0.467,2.3-0.7,3.5-0.7c1.233,0,2.316,0.25,3.25,0.75
												c-0.8-0.167-1.684-0.066-2.65,0.3c-0.5,0.167-1.316,0.55-2.45,1.15C57.017,36.417,55.3,37.283,53.7,37.85z"/>
										</g>
										<g>
											
												<linearGradient id="SVGID_9_" gradientUnits="userSpaceOnUse" x1="-40.5625" y1="61.1426" x2="-32.7111" y2="61.1426" gradientTransform="matrix(0.0191 -0.9998 0.9998 0.0191 -1.238715e-004 -1.650974e-004)">
												<stop  offset="0.1059" style="stop-color:#EAB562"/>
												<stop  offset="0.3216" style="stop-color:#E99459"/>
												<stop  offset="0.7176" style="stop-color:#E94B46"/>
											</linearGradient>
											<path style="fill-rule:evenodd;clip-rule:evenodd;fill:url(#SVGID_9_);" d="M64.2,33.9c0.3,0.633,0.15,1.467-0.45,2.5
												c-0.5,0.8-1.117,1.517-1.85,2.15c-2,1.8-3.8,2.833-5.4,3.1c0.167-0.3,0.583-0.917,1.25-1.85c0.733-1,1.233-1.733,1.5-2.2
												C60.583,35.533,62.233,34.3,64.2,33.9z"/>
											<path style="fill-rule:evenodd;clip-rule:evenodd;fill:#F7DED7;" d="M56.4,41.65c-0.367-0.667-0.35-1.55,0.05-2.65
												c0.333-0.934,0.85-1.767,1.55-2.5c0.867-0.867,1.85-1.533,2.95-2c1.133-0.5,2.216-0.7,3.25-0.6
												c-0.8,0.167-1.567,0.6-2.3,1.3c-0.367,0.333-0.967,1-1.8,2C58.833,39.066,57.6,40.55,56.4,41.65z"/>
										</g>
									</g>
								</g>
							</g>
						</g>
					</g>
					<g>
						<g>
							<g>
								<g>
									<g>
										<g>
											
												<linearGradient id="SVGID_10_" gradientUnits="userSpaceOnUse" x1="-43.9175" y1="50.8662" x2="-37.8162" y2="50.8662" gradientTransform="matrix(0.0205 -0.9998 0.9998 0.0205 4.364923e-004 1.683906e-004)">
												<stop  offset="0.1059" style="stop-color:#EAB562"/>
												<stop  offset="0.3216" style="stop-color:#E99459"/>
												<stop  offset="0.7176" style="stop-color:#E94B46"/>
											</linearGradient>
											<path style="fill-rule:evenodd;clip-rule:evenodd;fill:url(#SVGID_10_);" d="M54.6,38.95c0.133,0.7-0.2,1.483-1,2.35
												c-0.633,0.667-1.4,1.233-2.3,1.7c-2.3,1.367-4.267,2-5.9,1.9c1.633-1.433,2.817-2.55,3.55-3.35
												C50.65,39.816,52.533,38.95,54.6,38.95z"/>
											<path style="fill-rule:evenodd;clip-rule:evenodd;fill:#F7DED7;" d="M45.35,44.85c-0.267-0.733-0.067-1.583,0.6-2.55
												c0.5-0.8,1.183-1.517,2.05-2.15c1-0.667,2.083-1.117,3.25-1.35c1.233-0.233,2.35-0.2,3.35,0.1
												c-0.833,0.034-1.667,0.3-2.5,0.8c-0.533,0.3-1.267,0.833-2.2,1.6C48.2,42.867,46.683,44.05,45.35,44.85z"/>
										</g>
										<g>
											
												<linearGradient id="SVGID_11_" gradientUnits="userSpaceOnUse" x1="-47.0889" y1="52.8301" x2="-37.9122" y2="52.8301" gradientTransform="matrix(0.0191 -0.9998 0.9998 0.0191 -1.815297e-004 4.375242e-004)">
												<stop  offset="0.1059" style="stop-color:#EAB562"/>
												<stop  offset="0.3216" style="stop-color:#E99459"/>
												<stop  offset="0.7176" style="stop-color:#E94B46"/>
											</linearGradient>
											<path style="fill-rule:evenodd;clip-rule:evenodd;fill:url(#SVGID_11_);" d="M54.9,38.95c0.4,0.566,0.4,1.417,0,2.55
												c-0.3,0.867-0.767,1.7-1.4,2.5c-1.533,2.133-3.1,3.483-4.7,4.05c0.934-1.966,1.583-3.466,1.95-4.5
												C51.65,41.283,53.033,39.75,54.9,38.95z"/>
											<path style="fill-rule:evenodd;clip-rule:evenodd;fill:#F7DED7;" d="M48.75,48.05c-0.5-0.566-0.65-1.433-0.45-2.6
												c0.133-0.967,0.467-1.884,1-2.75c0.667-1,1.5-1.85,2.5-2.55c1.034-0.7,2.067-1.1,3.1-1.2c-0.733,0.333-1.4,0.9-2,1.7
												c-0.333,0.434-0.8,1.217-1.4,2.35C50.567,45.133,49.65,46.816,48.75,48.05z"/>
										</g>
									</g>
								</g>
							</g>
						</g>
					</g>
					<g>
						<g>
							<g>
								<g>
									<g>
										<g>
											
												<linearGradient id="SVGID_12_" gradientUnits="userSpaceOnUse" x1="-53.728" y1="43.8389" x2="-45.2762" y2="43.8389" gradientTransform="matrix(0.0207 -0.9998 0.9998 0.0207 4.197862e-004 -3.072433e-004)">
												<stop  offset="0.1059" style="stop-color:#EAB562"/>
												<stop  offset="0.3216" style="stop-color:#E99459"/>
												<stop  offset="0.7176" style="stop-color:#E94B46"/>
											</linearGradient>
											<path style="fill-rule:evenodd;clip-rule:evenodd;fill:url(#SVGID_12_);" d="M46.25,46.2
												c0.333,0.633,0.233,1.483-0.3,2.55c-0.4,0.833-0.95,1.6-1.65,2.3c-1.8,1.934-3.517,3.1-5.15,3.5
												c1.167-1.866,1.983-3.283,2.45-4.25C42.767,48.167,44.317,46.8,46.25,46.2z"/>
											<path style="fill-rule:evenodd;clip-rule:evenodd;fill:#F7DED7;" d="M39.1,54.55c-0.434-0.633-0.483-1.5-0.15-2.6
												c0.233-0.934,0.667-1.817,1.3-2.65c0.8-0.933,1.733-1.683,2.8-2.25c1.067-0.566,2.133-0.85,3.2-0.85
												c-0.8,0.233-1.533,0.716-2.2,1.45c-0.333,0.367-0.883,1.1-1.65,2.2C41.167,51.95,40.067,53.517,39.1,54.55z"/>
										</g>
										<g>
											
												<linearGradient id="SVGID_13_" gradientUnits="userSpaceOnUse" x1="-55.7134" y1="46.2983" x2="-45.2365" y2="46.2983" gradientTransform="matrix(0.0191 -0.9998 0.9998 0.0191 -3.124401e-004 -3.025457e-004)">
												<stop  offset="0.1059" style="stop-color:#EAB562"/>
												<stop  offset="0.3216" style="stop-color:#E99459"/>
												<stop  offset="0.7176" style="stop-color:#E94B46"/>
											</linearGradient>
											<path style="fill-rule:evenodd;clip-rule:evenodd;fill:url(#SVGID_13_);" d="M46.55,46.15
												c0.567,0.434,0.817,1.25,0.75,2.45c-0.066,0.9-0.283,1.816-0.65,2.75c-0.867,2.5-1.983,4.25-3.35,5.25
												c0.367-2.167,0.567-3.784,0.6-4.85C44.1,49.316,44.983,47.45,46.55,46.15z"/>
											<path style="fill-rule:evenodd;clip-rule:evenodd;fill:#F7DED7;" d="M43.25,56.6c-0.633-0.4-1.033-1.167-1.2-2.3
												c-0.133-1-0.066-2,0.2-3c0.367-1.133,0.933-2.167,1.7-3.1c0.767-0.967,1.633-1.667,2.6-2.1
												c-0.633,0.533-1.117,1.283-1.45,2.25c-0.167,0.466-0.383,1.35-0.65,2.65C44.15,53.3,43.75,55.167,43.25,56.6z"/>
										</g>
									</g>
								</g>
							</g>
						</g>
					</g>
				</g>
			</g>
			<g>
				<g>
					<g>
						<linearGradient id="SVGID_14_" gradientUnits="userSpaceOnUse" x1="118.6738" y1="30.7148" x2="121.8988" y2="58.9648">
							<stop  offset="0.2824" style="stop-color:#AB3A48"/>
							<stop  offset="0.2863" style="stop-color:#AB3B48"/>
							<stop  offset="0.702" style="stop-color:#D88F62"/>
							<stop  offset="0.8941" style="stop-color:#E9B06C"/>
						</linearGradient>
						<path style="fill-rule:evenodd;clip-rule:evenodd;fill:url(#SVGID_14_);" d="M115.45,31.65c1,0.467,1.899,1.067,2.7,1.8
							c1.033,0.966,1.699,1.966,2,3c1.866,0.267,3.517,0.883,4.949,1.85c1,0.733,1.834,1.583,2.5,2.55
							c0.867,1.267,1.25,2.5,1.15,3.7c1.8,0.733,3.3,1.85,4.5,3.35c0.866,1.1,1.467,2.3,1.8,3.6c0.434,1.7,0.25,3.15-0.55,4.35
							c-0.434,0.6-1,0.917-1.7,0.95l-0.25,0.05l-0.55-0.1l-0.6-0.2c-0.4,0.867-0.967,1.534-1.7,2c-0.3,0.167-0.667,0.284-1.101,0.35
							c-0.399,0-0.699-0.033-0.899-0.1l-0.2-0.1l-0.45-0.3c-1.666-1.233-3.033-3.3-4.1-6.2c-0.2-0.5-0.4-1.15-0.601-1.95l-0.25-0.05
							c-1.899-0.7-3.8-2.3-5.699-4.8l-1-1.5h-0.551c-2.166-0.333-4.333-1.533-6.5-3.6c-0.933-0.8-1.699-1.683-2.3-2.65
							c-1.033-1.7-1.25-3.25-0.649-4.65v-0.05c0.3-0.667,0.816-1.083,1.55-1.25c1.166-0.567,2.517-0.867,4.05-0.9
							C112.566,30.8,114.05,31.083,115.45,31.65z"/>
						<path style="fill-rule:evenodd;clip-rule:evenodd;fill:none;stroke:#F7E0E7;stroke-width:0.25;" d="M115.45,31.65
							c1,0.467,1.899,1.067,2.7,1.8c1.033,0.966,1.699,1.966,2,3c1.866,0.267,3.517,0.883,4.949,1.85c1,0.733,1.834,1.583,2.5,2.55
							c0.867,1.267,1.25,2.5,1.15,3.7c1.8,0.733,3.3,1.85,4.5,3.35c0.866,1.1,1.467,2.3,1.8,3.6c0.434,1.7,0.25,3.15-0.55,4.35
							c-0.434,0.6-1,0.917-1.7,0.95l-0.25,0.05l-0.55-0.1l-0.6-0.2c-0.4,0.867-0.967,1.534-1.7,2c-0.3,0.167-0.667,0.284-1.101,0.35
							c-0.399,0-0.699-0.033-0.899-0.1l-0.2-0.1l-0.45-0.3c-1.666-1.233-3.033-3.3-4.1-6.2c-0.2-0.5-0.4-1.15-0.601-1.95l-0.25-0.05
							c-1.899-0.7-3.8-2.3-5.699-4.8l-1-1.5h-0.551c-2.166-0.333-4.333-1.533-6.5-3.6c-0.933-0.8-1.699-1.683-2.3-2.65
							c-1.033-1.7-1.25-3.25-0.649-4.65v-0.05c0.3-0.667,0.816-1.083,1.55-1.25c1.166-0.567,2.517-0.867,4.05-0.9
							C112.566,30.8,114.05,31.083,115.45,31.65z"/>
					</g>
				</g>
				<path style="fill-rule:evenodd;clip-rule:evenodd;fill:#470B17;" d="M110.95,32.4c1.333-0.033,2.616,0.2,3.85,0.7
					c1.033,0.5,1.9,1.117,2.601,1.85c1,1,1.433,2,1.3,3c2,0,3.816,0.55,5.45,1.65c0.899,0.667,1.633,1.433,2.199,2.3
					c0.767,1.167,1,2.233,0.7,3.2c-0.033,0.2-0.166,0.333-0.399,0.4l-0.101,0.05h-0.1c2.2,0.333,4.05,1.434,5.55,3.3
					c0.667,0.867,1.15,1.816,1.45,2.85c0.399,1.333,0.316,2.417-0.25,3.25c-0.134,0.2-0.3,0.3-0.5,0.3H132.6L132.4,55.2
					c-0.667-0.134-1.351-0.417-2.051-0.85c-0.166,1.367-0.666,2.316-1.5,2.85c-0.066,0.066-0.183,0.1-0.35,0.1h-0.25l-0.3-0.15
					c-1.467-1.066-2.65-2.917-3.55-5.55c-0.467-1.133-0.7-2.267-0.7-3.4l-0.2,0.3c-0.1,0.167-0.267,0.25-0.5,0.25h-0.05l-0.101-0.05
					h-0.199c-1.634-0.6-3.301-2.034-5-4.3c-0.7-0.9-1.217-1.833-1.551-2.8L115.9,42c-0.134,0.167-0.301,0.283-0.5,0.35H115.1
					c-1.733-0.3-3.649-1.383-5.75-3.25c-0.866-0.767-1.55-1.583-2.05-2.45c-0.666-1.167-0.816-2.167-0.45-3
					c0.134-0.3,0.334-0.45,0.601-0.45h0.05C108.467,32.667,109.616,32.4,110.95,32.4z"/>
				<g>
					<g>
						<g>
							<g>
								<g>
									<g>
										<g>
											<linearGradient id="SVGID_15_" gradientUnits="userSpaceOnUse" x1="114.9023" y1="34.918" x2="110.8273" y2="36.843">
												<stop  offset="0.1059" style="stop-color:#EAB562"/>
												<stop  offset="0.3216" style="stop-color:#E99459"/>
												<stop  offset="0.7176" style="stop-color:#E94B46"/>
											</linearGradient>
											<path style="fill-rule:evenodd;clip-rule:evenodd;fill:url(#SVGID_15_);" d="M113.8,35.3c0.867,0.634,2.25,1.5,4.15,2.6
												c-1.634,0.4-3.684,0.167-6.15-0.7c-0.967-0.333-1.816-0.75-2.55-1.25c-0.967-0.7-1.45-1.4-1.45-2.1
												C109.866,33.417,111.866,33.9,113.8,35.3z"/>
											<path style="fill-rule:evenodd;clip-rule:evenodd;fill:#F7DED7;" d="M118,37.85c-1.467-0.5-3.184-1.367-5.15-2.6
												c-1.133-0.6-1.949-0.983-2.449-1.15c-0.934-0.367-1.801-0.467-2.601-0.3c0.9-0.5,1.967-0.75,3.2-0.75
												c1.2,0,2.366,0.233,3.5,0.7c0.934,0.434,1.75,1,2.45,1.7C117.75,36.283,118.1,37.083,118,37.85z"/>
										</g>
										<g>
											<linearGradient id="SVGID_16_" gradientUnits="userSpaceOnUse" x1="114.9551" y1="39.1846" x2="107.6301" y2="36.3596">
												<stop  offset="0.1059" style="stop-color:#EAB562"/>
												<stop  offset="0.3216" style="stop-color:#E99459"/>
												<stop  offset="0.7176" style="stop-color:#E94B46"/>
											</linearGradient>
											<path style="fill-rule:evenodd;clip-rule:evenodd;fill:url(#SVGID_16_);" d="M112.45,37.6c0.267,0.466,0.767,1.2,1.5,2.2
												c0.666,0.934,1.083,1.55,1.25,1.85c-1.634-0.267-3.417-1.3-5.351-3.1c-0.767-0.633-1.383-1.35-1.85-2.15
												c-0.634-1-0.8-1.833-0.5-2.5C109.467,34.3,111.116,35.533,112.45,37.6z"/>
											<path style="fill-rule:evenodd;clip-rule:evenodd;fill:#F7DED7;" d="M115.3,41.65c-1.2-1.1-2.434-2.583-3.7-4.45
												c-0.833-1-1.433-1.667-1.8-2c-0.733-0.7-1.5-1.134-2.3-1.3c1.033-0.1,2.116,0.1,3.25,0.6c1.134,0.467,2.116,1.133,2.95,2
												c0.7,0.767,1.217,1.6,1.55,2.5C115.684,40.1,115.7,40.983,115.3,41.65z"/>
										</g>
									</g>
								</g>
							</g>
						</g>
					</g>
					<g>
						<g>
							<g>
								<g>
									<g>
										<g>
											<linearGradient id="SVGID_17_" gradientUnits="userSpaceOnUse" x1="124.752" y1="41.7642" x2="118.652" y2="42.0892">
												<stop  offset="0.1059" style="stop-color:#EAB562"/>
												<stop  offset="0.3216" style="stop-color:#E99459"/>
												<stop  offset="0.7176" style="stop-color:#E94B46"/>
											</linearGradient>
											<path style="fill-rule:evenodd;clip-rule:evenodd;fill:url(#SVGID_17_);" d="M117.15,38.95c2.066,0,3.933,0.866,5.6,2.6
												c0.733,0.8,1.917,1.917,3.55,3.35c-1.633,0.1-3.6-0.533-5.899-1.9c-0.9-0.467-1.667-1.033-2.301-1.7
												C117.3,40.434,116.983,39.65,117.15,38.95z"/>
											<path style="fill-rule:evenodd;clip-rule:evenodd;fill:#F7DED7;" d="M126.4,44.85c-1.434-0.8-2.95-1.983-4.551-3.55
												c-0.933-0.767-1.666-1.3-2.199-1.6c-0.834-0.5-1.667-0.767-2.5-0.8c1-0.3,2.1-0.333,3.3-0.1s2.3,0.684,3.3,1.35
												c0.833,0.6,1.517,1.317,2.05,2.15C126.434,43.267,126.634,44.117,126.4,44.85z"/>
										</g>
										<g>
											<linearGradient id="SVGID_18_" gradientUnits="userSpaceOnUse" x1="123.0479" y1="46.6387" x2="116.3979" y2="40.3137">
												<stop  offset="0.1059" style="stop-color:#EAB562"/>
												<stop  offset="0.3216" style="stop-color:#E99459"/>
												<stop  offset="0.7176" style="stop-color:#E94B46"/>
											</linearGradient>
											<path style="fill-rule:evenodd;clip-rule:evenodd;fill:url(#SVGID_18_);" d="M116.8,38.95c1.867,0.8,3.25,2.333,4.15,4.6
												c0.2,0.534,0.55,1.35,1.05,2.45c0.5,1.033,0.8,1.717,0.9,2.05c-1.534-0.566-3.101-1.917-4.7-4.05
												c-0.601-0.8-1.066-1.633-1.4-2.5C116.4,40.367,116.4,39.517,116.8,38.95z"/>
											<path style="fill-rule:evenodd;clip-rule:evenodd;fill:#F7DED7;" d="M122.95,48.05c-0.867-1.233-1.783-2.917-2.75-5.05
												c-0.601-1.133-1.05-1.917-1.351-2.35c-0.6-0.8-1.267-1.367-2-1.7c1.034,0.1,2.067,0.5,3.101,1.2
												c0.967,0.667,1.783,1.517,2.45,2.55c0.533,0.9,0.883,1.816,1.05,2.75C123.65,46.617,123.483,47.483,122.95,48.05z"/>
										</g>
									</g>
								</g>
							</g>
						</g>
					</g>
					<g>
						<g>
							<g>
								<g>
									<g>
										<g>
											<linearGradient id="SVGID_19_" gradientUnits="userSpaceOnUse" x1="132.5654" y1="52.5103" x2="125.2654" y2="48.2353">
												<stop  offset="0.1059" style="stop-color:#EAB562"/>
												<stop  offset="0.3216" style="stop-color:#E99459"/>
												<stop  offset="0.7176" style="stop-color:#E94B46"/>
											</linearGradient>
											<path style="fill-rule:evenodd;clip-rule:evenodd;fill:url(#SVGID_19_);" d="M125.45,46.2c2,0.6,3.55,1.966,4.649,4.1
												c0.467,0.967,1.284,2.384,2.45,4.25c-1.666-0.4-3.366-1.566-5.1-3.5c-0.7-0.7-1.267-1.466-1.7-2.3
												C125.217,47.684,125.116,46.833,125.45,46.2z"/>
											<path style="fill-rule:evenodd;clip-rule:evenodd;fill:#F7DED7;" d="M132.65,54.55c-1.067-1.133-2.184-2.7-3.351-4.7
												c-0.7-1.034-1.233-1.767-1.6-2.2c-0.7-0.733-1.434-1.216-2.2-1.45c1.033,0,2.1,0.283,3.2,0.85
												c1.066,0.567,1.983,1.317,2.75,2.25c0.633,0.8,1.083,1.684,1.35,2.65C133.134,53.05,133.083,53.917,132.65,54.55z"/>
										</g>
										<g>
											<linearGradient id="SVGID_20_" gradientUnits="userSpaceOnUse" x1="127.5977" y1="56.4478" x2="125.2227" y2="46.2478">
												<stop  offset="0.1059" style="stop-color:#EAB562"/>
												<stop  offset="0.3216" style="stop-color:#E99459"/>
												<stop  offset="0.7176" style="stop-color:#E94B46"/>
											</linearGradient>
											<path style="fill-rule:evenodd;clip-rule:evenodd;fill:url(#SVGID_20_);" d="M125.15,46.15c1.6,1.333,2.5,3.2,2.699,5.6
												c0.034,1.066,0.217,2.684,0.551,4.85c-1.367-1.067-2.483-2.817-3.351-5.25c-0.366-0.934-0.566-1.85-0.6-2.75
												C124.35,47.4,124.583,46.583,125.15,46.15z"/>
											<path style="fill-rule:evenodd;clip-rule:evenodd;fill:#F7DED7;" d="M128.45,56.6c-0.5-1.434-0.9-3.3-1.2-5.6
												c-0.267-1.3-0.483-2.184-0.65-2.65c-0.333-0.967-0.8-1.717-1.399-2.25c0.967,0.433,1.833,1.133,2.6,2.1
												c0.767,0.933,1.316,1.966,1.65,3.1c0.267,1.034,0.333,2.034,0.2,3C129.517,55.434,129.116,56.2,128.45,56.6z"/>
										</g>
									</g>
								</g>
							</g>
						</g>
					</g>
				</g>
			</g>
		</g>
		<g>
			<g>
				<path style="fill-rule:evenodd;clip-rule:evenodd;fill:#F7E0E7;" d="M64.85,66.45c1.566,0.7,3.033,1.517,4.4,2.45l1.65,1.15
					c0.967,0.733,1.783,1.417,2.45,2.05c-0.4-0.8-0.783-1.833-1.15-3.1c-0.434-1.533-0.617-3.133-0.55-4.8
					c0.067-0.967,0.233-2.3,0.5-4l0.2-1.25c0.467-3.134,2.05-5.6,4.75-7.4c2.367-1.633,5.133-2.483,8.3-2.55l19.649,0.05
					c4.8,0,8.434,0.617,10.9,1.85c3.3,1.633,5.2,4.583,5.7,8.85c0.199,1.5,0.267,2.867,0.199,4.1c1.934,0.1,3.75,0.667,5.45,1.7
					l0.25,0.05l0.15,0.15l0.35,0.2l0.101,0.15c1.433,1.167,2.267,2.6,2.5,4.3c0.267,1.667-0.117,3.434-1.15,5.3
					c-0.767,1.4-1.733,2.933-2.9,4.6l-1.6,2.1c1.233,4.167,1.4,8.433,0.5,12.8c-0.5,2.333-1.533,4.35-3.1,6.05
					c-1.233,1.366-2.684,2.417-4.351,3.15c-1.066,0.5-2.267,0.949-3.6,1.35l1.1,0.95c2.9,2.7,4.617,6,5.15,9.899
					c0.6,4,0.283,7.867-0.95,11.601c-1.066,3.2-2.467,6.133-4.2,8.8c-1.866,2.9-4.116,5.333-6.75,7.3
					c-2.033,1.533-4.184,2.3-6.45,2.3c-1.767,0-3.483-0.467-5.149-1.399c-3.8-2.033-6.217-5.3-7.25-9.8c-0.2-1.034-0.634-2-1.3-2.9
					l-0.101-0.2l-0.1-0.1c-1.101-1.567-1.967-3.117-2.601-4.65c-0.733,1.7-1.566,3.217-2.5,4.55l-0.05,0.051l-0.25,0.35
					c-0.633,0.9-1.066,1.866-1.3,2.9c-1.033,4.5-3.45,7.767-7.25,9.8c-1.933,1.066-3.9,1.517-5.9,1.35
					c-2-0.133-3.883-0.883-5.65-2.25c-2.7-2.033-4.967-4.467-6.8-7.3c-1.733-2.667-3.133-5.583-4.2-8.75
					c-1.233-3.867-1.55-7.733-0.95-11.6c0.6-3.967,2.333-7.284,5.2-9.95l1.1-0.95c-1.333-0.367-2.55-0.816-3.65-1.35
					c-1.6-0.733-3.033-1.768-4.3-3.101c-1.567-1.767-2.6-3.816-3.1-6.149C45.317,90.85,45.467,86.6,46.7,82.4l-1.6-2.15
					c-1-1.4-1.95-2.934-2.85-4.6c-1.033-1.8-1.433-3.533-1.2-5.2c0.233-1.667,1.034-3.083,2.4-4.25l0.1-0.2l0.85-0.45
					c1.833-1.1,3.8-1.683,5.9-1.75h0.9c1.466,0,2.783,0.067,3.95,0.2c2.033,0.233,3.7,0.533,5,0.9
					C61.917,65.333,63.483,65.85,64.85,66.45z M54.55,69.85c-1.233-0.133-2.583-0.2-4.05-0.2c-1.133,0.067-2.167,0.367-3.1,0.9
					l-0.2,0.15c-0.5,0.366-0.467,1.083,0.1,2.15c0.867,1.466,1.717,2.8,2.55,4c0.8,1.133,1.583,2.15,2.35,3.05l1.1,1.3l-0.6,1.6
					c-1.333,3.733-1.6,7.45-0.8,11.15c0.3,1.333,0.867,2.433,1.7,3.3c0.7,0.8,1.533,1.4,2.5,1.8c0.833,0.434,1.833,0.8,3,1.101
					c1.7,0.399,3.433,0.6,5.2,0.6l16.9-1.25l-1.65-5c-0.5-1.667-1.083-3.333-1.75-5c-0.7-1.7-1.483-3.367-2.35-5
					c-0.534-1-1.184-2.083-1.95-3.25c-1-1.4-2.083-2.733-3.25-4c-0.967-1-2.1-1.967-3.4-2.9l-0.1-0.1l-0.7-0.45
					c-0.966-0.667-2.133-1.316-3.5-1.95c-1.333-0.567-2.6-0.983-3.8-1.25C57.35,70.267,55.95,70.017,54.55,69.85z M81.8,55.65
					c-2.167,0.833-3.4,2.233-3.7,4.2l-0.2,1.35c-0.233,1.366-0.367,2.383-0.4,3.05c-0.067,1.133,0.033,2.2,0.3,3.2
					c0.333,1.167,0.8,2.216,1.4,3.15l0.15,0.25l0.1,0.3c0.7,1.733,1.867,2.9,3.5,3.5c1.2,0.4,3.184,0.617,5.95,0.65h2.05l0.8,0.75
					c2.4,2.267,3.65,4.333,3.75,6.2c0.066,1.233-0.333,2.3-1.2,3.2c-0.467,0.533-0.816,1.283-1.05,2.25l0.1,0.1l0.75,1.25
					L93.55,90.4c-0.666,1.8-1.133,3.166-1.399,4.1l-1.7,5l14.85,1.15c0.867,0.066,1.55,0.1,2.05,0.1h0.101c1.767,0,3.5-0.2,5.2-0.6
					c1.033-0.268,2.017-0.617,2.949-1.051c1-0.467,1.834-1.083,2.5-1.85c0.834-0.867,1.4-1.967,1.7-3.3
					c0.8-3.8,0.533-7.517-0.8-11.15l-0.6-1.6l1.1-1.3c0.767-0.9,1.55-1.917,2.35-3.05c0.9-1.233,1.75-2.567,2.551-4
					c0.366-0.667,0.533-1.184,0.5-1.55c-0.034-0.267-0.184-0.483-0.45-0.65l-0.15-0.1c-0.899-0.533-1.934-0.833-3.1-0.9l-5.5,0.25
					l0.25-5.4c0.1-1.267,0.083-2.617-0.05-4.05c-0.233-1.934-0.917-3.267-2.051-4c-1.566-1.034-4.5-1.55-8.8-1.55l-19.6-0.05
					C84.05,54.983,82.833,55.25,81.8,55.65z M84.95,99.2l0.6-0.05l-0.7,0.3l-2.15,4.5l-1.05-3.2l-14.9,5.95
					c-2.467,1.066-4.667,2.5-6.6,4.3c-1.867,1.767-3,3.934-3.4,6.5c-0.467,3.033-0.217,6,0.75,8.9c0.867,2.6,2.05,5.066,3.55,7.399
					c1.6,2.367,3.4,4.3,5.4,5.8c1.7,1.301,3.466,1.45,5.3,0.45c2.267-1.267,3.7-3.25,4.3-5.95c0.4-1.833,1.133-3.483,2.2-4.949
					l0.1-0.2l0.25-0.25c1.467-2.134,2.5-4.483,3.1-7.05c0.3-1.233,0.55-2.601,0.75-4.101l0.75-5.35l2.95,2.6l2.5-1.45l0.649,4.25
					c0.2,1.4,0.45,2.75,0.75,4.051c0.601,2.533,1.601,4.85,3,6.949l0.5,0.351l0.101,0.45c0.899,1.333,1.566,2.899,2,4.699
					c0.633,2.733,2.083,4.717,4.35,5.95c1.8,1,3.566,0.851,5.3-0.45c2-1.5,3.8-3.433,5.4-5.8c1.5-2.366,2.666-4.833,3.5-7.399
					c0.967-2.9,1.217-5.867,0.75-8.9c-0.4-2.634-1.517-4.783-3.351-6.45c-2-1.833-4.199-3.283-6.6-4.35l-0.7-0.25l-0.3-0.15
					l-13.95-5.55l-2.899,8.2L85.5,98.1L84.95,99.2z"/>
				
					<linearGradient id="SVGID_21_" gradientUnits="userSpaceOnUse" x1="-136.8608" y1="85.8599" x2="-50.7108" y2="85.8599" gradientTransform="matrix(1.160766e-005 -1 1 -0.001 -1.349679e-004 4.449275e-004)">
					<stop  offset="0.2824" style="stop-color:#AB3A48"/>
					<stop  offset="0.2863" style="stop-color:#AB3B48"/>
					<stop  offset="0.702" style="stop-color:#D88F62"/>
					<stop  offset="0.8941" style="stop-color:#E9B06C"/>
				</linearGradient>
				<path style="fill-rule:evenodd;clip-rule:evenodd;fill:url(#SVGID_21_);" d="M64.85,66.35c1.267,0.533,2.733,1.333,4.4,2.4
					l1.65,1.15c0.967,0.733,1.783,1.417,2.45,2.05c-0.367-0.767-0.75-1.784-1.15-3.05c-0.434-1.533-0.617-3.133-0.55-4.8
					c0.067-0.967,0.233-2.284,0.5-3.95l0.2-1.25c0.467-3.1,2.05-5.55,4.75-7.35c2.367-1.633,5.133-2.483,8.3-2.55l19.649,0.05
					c4.8,0,8.434,0.6,10.9,1.8c3.3,1.667,5.2,4.617,5.7,8.85c0.199,1.5,0.267,2.833,0.199,4c2.034,0.167,3.851,0.733,5.45,1.7
					l0.25,0.1l0.15,0.15l0.35,0.2l0.101,0.1c1.433,1.167,2.267,2.583,2.5,4.25c0.267,1.7-0.117,3.466-1.15,5.3
					c-0.833,1.5-1.8,3.017-2.9,4.55l-1.6,2.1c1.233,4.133,1.4,8.367,0.5,12.7c-0.5,2.301-1.533,4.317-3.1,6.051
					c-1.267,1.333-2.717,2.366-4.351,3.1c-1.066,0.5-2.267,0.95-3.6,1.35l1.1,0.95c2.9,2.634,4.617,5.917,5.15,9.851
					c0.6,3.966,0.283,7.8-0.95,11.5c-1.066,3.166-2.467,6.083-4.2,8.75c-1.899,2.866-4.149,5.283-6.75,7.25
					c-2.1,1.533-4.25,2.3-6.45,2.3c-1.666,0-3.383-0.467-5.149-1.4c-3.8-2.033-6.217-5.283-7.25-9.75c-0.2-1.033-0.634-2-1.3-2.899
					l-0.101-0.15l-0.1-0.1c-1.101-1.567-1.967-3.117-2.601-4.65c-0.767,1.733-1.6,3.233-2.5,4.5l-0.05,0.05l-0.25,0.351
					c-0.633,0.899-1.066,1.866-1.3,2.899c-1.033,4.467-3.45,7.717-7.25,9.75c-1.967,1.066-3.933,1.517-5.9,1.351
					c-2-0.167-3.883-0.917-5.65-2.25c-2.667-2-4.934-4.417-6.8-7.25c-1.7-2.634-3.1-5.534-4.2-8.7
					c-1.233-3.834-1.55-7.684-0.95-11.55c0.6-3.967,2.333-7.25,5.2-9.851l1.1-0.95c-1.333-0.366-2.55-0.816-3.65-1.35
					c-1.6-0.7-3.033-1.733-4.3-3.1c-1.567-1.733-2.6-3.75-3.1-6.051c-0.967-4.3-0.817-8.533,0.45-12.7l-1.6-2.1
					c-0.967-1.333-1.917-2.85-2.85-4.55c-1.033-1.8-1.433-3.533-1.2-5.2c0.233-1.633,1.034-3.033,2.4-4.2l0.1-0.2l0.85-0.5
					c1.867-1.066,3.833-1.633,5.9-1.7h0.9c1.466,0,2.783,0.066,3.95,0.2c1.7,0.167,3.367,0.467,5,0.9
					C61.65,65.133,63.217,65.65,64.85,66.35z M54.55,69.7c-1.4-0.134-2.75-0.184-4.05-0.15c-1.1,0-2.133,0.284-3.1,0.85l-0.2,0.15
					c-0.5,0.367-0.467,1.067,0.1,2.1c0.7,1.2,1.55,2.534,2.55,4c0.8,1.133,1.583,2.15,2.35,3.05l1.1,1.3l-0.6,1.55
					c-1.333,3.7-1.6,7.384-0.8,11.05c0.3,1.367,0.867,2.483,1.7,3.351c0.7,0.767,1.533,1.35,2.5,1.75c0.833,0.433,1.833,0.8,3,1.1
					c1.7,0.4,3.433,0.601,5.2,0.601l16.9-1.25l-1.65-5c-0.466-1.567-1.05-3.217-1.75-4.95c-0.633-1.567-1.417-3.217-2.35-4.95
					c-0.567-1.1-1.217-2.167-1.95-3.2c-0.867-1.233-1.95-2.566-3.25-4c-0.967-1-2.1-1.966-3.4-2.9l-0.1-0.05l-0.7-0.5
					c-1.233-0.8-2.4-1.434-3.5-1.9c-1.333-0.567-2.6-0.983-3.8-1.25C57.35,70.117,55.95,69.867,54.55,69.7z M81.8,55.6
					c-2.167,0.833-3.4,2.216-3.7,4.15l-0.2,1.35c-0.233,1.367-0.367,2.383-0.4,3.05c-0.067,1.133,0.033,2.184,0.3,3.15
					c0.333,1.167,0.8,2.217,1.4,3.15l0.15,0.25l0.1,0.3c0.7,1.733,1.867,2.9,3.5,3.5c1.2,0.4,3.184,0.6,5.95,0.6l2.05,0.05l0.8,0.75
					c2.4,2.2,3.65,4.233,3.75,6.1c0.066,1.233-0.333,2.3-1.2,3.2c-0.467,0.5-0.816,1.233-1.05,2.2l0.85,1.35l-0.55,1.35
					c-0.733,2.033-1.2,3.384-1.399,4.051l-1.7,5l14.85,1.149c0.867,0.066,1.55,0.101,2.05,0.101h0.101c1.767,0,3.5-0.2,5.2-0.601
					c1.033-0.267,2.017-0.616,2.949-1.05c1-0.467,1.834-1.083,2.5-1.85c0.801-0.801,1.367-1.9,1.7-3.301
					c0.8-3.733,0.533-7.416-0.8-11.05L118.4,81l1.1-1.3c1.066-1.333,1.85-2.35,2.35-3.05c1.034-1.4,1.884-2.733,2.551-4
					c0.366-0.667,0.533-1.167,0.5-1.5c-0.034-0.267-0.184-0.483-0.45-0.65l-0.15-0.1c-0.934-0.566-1.967-0.85-3.1-0.85l-5.5,0.2
					l0.25-5.4c0.1-1.2,0.083-2.534-0.05-4c-0.233-1.9-0.917-3.217-2.051-3.95c-1.566-1.033-4.5-1.55-8.8-1.55h-19.6
					C84.283,54.85,83.067,55.1,81.8,55.6z M84.95,98.85l0.6-0.05l-0.7,0.3l-2.15,4.45l-1.05-3.149l-14.9,5.899
					c-2.567,1.134-4.767,2.566-6.6,4.3c-1.867,1.7-3,3.834-3.4,6.4c-0.467,3.033-0.217,5.983,0.75,8.85
					c0.833,2.533,2.017,4.983,3.55,7.351c1.534,2.3,3.333,4.233,5.4,5.8c1.7,1.267,3.466,1.417,5.3,0.45
					c2.267-1.267,3.7-3.25,4.3-5.95c0.4-1.8,1.133-3.434,2.2-4.9l0.1-0.199l0.25-0.25c1.467-2.134,2.5-4.467,3.1-7
					c0.3-1.233,0.55-2.601,0.75-4.101l0.75-5.3l2.95,2.6l2.5-1.449L89.3,117.1c0.2,1.4,0.45,2.75,0.75,4.051
					c0.601,2.533,1.601,4.816,3,6.85l0.5,0.4l0.101,0.449c0.933,1.367,1.6,2.917,2,4.65c0.666,2.767,2.116,4.733,4.35,5.9
					c1.8,1,3.566,0.866,5.3-0.4c2.066-1.566,3.867-3.5,5.4-5.8c1.5-2.3,2.666-4.75,3.5-7.351c0.967-2.866,1.217-5.816,0.75-8.85
					c-0.4-2.6-1.517-4.733-3.351-6.4c-1.933-1.8-4.133-3.233-6.6-4.3l-0.7-0.25L104,105.9l-13.95-5.551l-2.899,8.2l-1.65-10.8
					L84.95,98.85z"/>
				<path style="fill-rule:evenodd;clip-rule:evenodd;fill:none;stroke:#F7E0E7;stroke-width:0.25;" d="M64.85,66.35
					c1.267,0.533,2.733,1.333,4.4,2.4l1.65,1.15c0.967,0.733,1.783,1.417,2.45,2.05c-0.367-0.767-0.75-1.784-1.15-3.05
					c-0.434-1.533-0.617-3.133-0.55-4.8c0.067-0.967,0.233-2.284,0.5-3.95l0.2-1.25c0.467-3.1,2.05-5.55,4.75-7.35
					c2.367-1.633,5.133-2.483,8.3-2.55l19.649,0.05c4.8,0,8.434,0.6,10.9,1.8c3.3,1.667,5.2,4.617,5.7,8.85
					c0.199,1.5,0.267,2.833,0.199,4c2.034,0.167,3.851,0.733,5.45,1.7l0.25,0.1l0.15,0.15l0.35,0.2l0.101,0.1
					c1.433,1.167,2.267,2.583,2.5,4.25c0.267,1.7-0.117,3.466-1.15,5.3c-0.833,1.5-1.8,3.017-2.9,4.55l-1.6,2.1
					c1.233,4.133,1.4,8.367,0.5,12.7c-0.5,2.301-1.533,4.317-3.1,6.051c-1.267,1.333-2.717,2.366-4.351,3.1
					c-1.066,0.5-2.267,0.95-3.6,1.35l1.1,0.95c2.9,2.634,4.617,5.917,5.15,9.851c0.6,3.966,0.283,7.8-0.95,11.5
					c-1.066,3.166-2.467,6.083-4.2,8.75c-1.899,2.866-4.149,5.283-6.75,7.25c-2.1,1.533-4.25,2.3-6.45,2.3
					c-1.666,0-3.383-0.467-5.149-1.4c-3.8-2.033-6.217-5.283-7.25-9.75c-0.2-1.033-0.634-2-1.3-2.899l-0.101-0.15l-0.1-0.1
					c-1.101-1.567-1.967-3.117-2.601-4.65c-0.767,1.733-1.6,3.233-2.5,4.5l-0.05,0.05l-0.25,0.351
					c-0.633,0.899-1.066,1.866-1.3,2.899c-1.033,4.467-3.45,7.717-7.25,9.75c-1.967,1.066-3.933,1.517-5.9,1.351
					c-2-0.167-3.883-0.917-5.65-2.25c-2.667-2-4.934-4.417-6.8-7.25c-1.7-2.634-3.1-5.534-4.2-8.7
					c-1.233-3.834-1.55-7.684-0.95-11.55c0.6-3.967,2.333-7.25,5.2-9.851l1.1-0.95c-1.333-0.366-2.55-0.816-3.65-1.35
					c-1.6-0.7-3.033-1.733-4.3-3.1c-1.567-1.733-2.6-3.75-3.1-6.051c-0.967-4.3-0.817-8.533,0.45-12.7l-1.6-2.1
					c-0.967-1.333-1.917-2.85-2.85-4.55c-1.033-1.8-1.433-3.533-1.2-5.2c0.233-1.633,1.034-3.033,2.4-4.2l0.1-0.2l0.85-0.5
					c1.867-1.066,3.833-1.633,5.9-1.7h0.9c1.466,0,2.783,0.066,3.95,0.2c1.7,0.167,3.367,0.467,5,0.9
					C61.65,65.133,63.217,65.65,64.85,66.35z M54.55,69.7c-1.4-0.134-2.75-0.184-4.05-0.15c-1.1,0-2.133,0.284-3.1,0.85l-0.2,0.15
					c-0.5,0.367-0.467,1.067,0.1,2.1c0.7,1.2,1.55,2.534,2.55,4c0.8,1.133,1.583,2.15,2.35,3.05l1.1,1.3l-0.6,1.55
					c-1.333,3.7-1.6,7.384-0.8,11.05c0.3,1.367,0.867,2.483,1.7,3.351c0.7,0.767,1.533,1.35,2.5,1.75c0.833,0.433,1.833,0.8,3,1.1
					c1.7,0.4,3.433,0.601,5.2,0.601l16.9-1.25l-1.65-5c-0.466-1.567-1.05-3.217-1.75-4.95c-0.633-1.567-1.417-3.217-2.35-4.95
					c-0.567-1.1-1.217-2.167-1.95-3.2c-0.867-1.233-1.95-2.566-3.25-4c-0.967-1-2.1-1.966-3.4-2.9l-0.1-0.05l-0.7-0.5
					c-1.233-0.8-2.4-1.434-3.5-1.9c-1.333-0.567-2.6-0.983-3.8-1.25C57.35,70.117,55.95,69.867,54.55,69.7z M81.8,55.6
					c-2.167,0.833-3.4,2.216-3.7,4.15l-0.2,1.35c-0.233,1.367-0.367,2.383-0.4,3.05c-0.067,1.133,0.033,2.184,0.3,3.15
					c0.333,1.167,0.8,2.217,1.4,3.15l0.15,0.25l0.1,0.3c0.7,1.733,1.867,2.9,3.5,3.5c1.2,0.4,3.184,0.6,5.95,0.6l2.05,0.05l0.8,0.75
					c2.4,2.2,3.65,4.233,3.75,6.1c0.066,1.233-0.333,2.3-1.2,3.2c-0.467,0.5-0.816,1.233-1.05,2.2l0.85,1.35l-0.55,1.35
					c-0.733,2.033-1.2,3.384-1.399,4.051l-1.7,5l14.85,1.149c0.867,0.066,1.55,0.101,2.05,0.101h0.101c1.767,0,3.5-0.2,5.2-0.601
					c1.033-0.267,2.017-0.616,2.949-1.05c1-0.467,1.834-1.083,2.5-1.85c0.801-0.801,1.367-1.9,1.7-3.301
					c0.8-3.733,0.533-7.416-0.8-11.05L118.4,81l1.1-1.3c1.066-1.333,1.85-2.35,2.35-3.05c1.034-1.4,1.884-2.733,2.551-4
					c0.366-0.667,0.533-1.167,0.5-1.5c-0.034-0.267-0.184-0.483-0.45-0.65l-0.15-0.1c-0.934-0.566-1.967-0.85-3.1-0.85l-5.5,0.2
					l0.25-5.4c0.1-1.2,0.083-2.534-0.05-4c-0.233-1.9-0.917-3.217-2.051-3.95c-1.566-1.033-4.5-1.55-8.8-1.55h-19.6
					C84.283,54.85,83.067,55.1,81.8,55.6z M84.95,98.85l0.6-0.05l-0.7,0.3l-2.15,4.45l-1.05-3.149l-14.9,5.899
					c-2.567,1.134-4.767,2.566-6.6,4.3c-1.867,1.7-3,3.834-3.4,6.4c-0.467,3.033-0.217,5.983,0.75,8.85
					c0.833,2.533,2.017,4.983,3.55,7.351c1.534,2.3,3.333,4.233,5.4,5.8c1.7,1.267,3.466,1.417,5.3,0.45
					c2.267-1.267,3.7-3.25,4.3-5.95c0.4-1.8,1.133-3.434,2.2-4.9l0.1-0.199l0.25-0.25c1.467-2.134,2.5-4.467,3.1-7
					c0.3-1.233,0.55-2.601,0.75-4.101l0.75-5.3l2.95,2.6l2.5-1.449L89.3,117.1c0.2,1.4,0.45,2.75,0.75,4.051
					c0.601,2.533,1.601,4.816,3,6.85l0.5,0.4l0.101,0.449c0.933,1.367,1.6,2.917,2,4.65c0.666,2.767,2.116,4.733,4.35,5.9
					c1.8,1,3.566,0.866,5.3-0.4c2.066-1.566,3.867-3.5,5.4-5.8c1.5-2.3,2.666-4.75,3.5-7.351c0.967-2.866,1.217-5.816,0.75-8.85
					c-0.4-2.6-1.517-4.733-3.351-6.4c-1.933-1.8-4.133-3.233-6.6-4.3l-0.7-0.25L104,105.9l-13.95-5.551l-2.899,8.2l-1.65-10.8
					L84.95,98.85z"/>
			</g>
			<g>
				<g>
					<path style="fill-rule:evenodd;clip-rule:evenodd;fill:#470B17;" d="M67.65,71.2l0.85,0.55c1.4,1,2.683,2.1,3.85,3.3
						c1.267,1.333,2.45,2.767,3.55,4.3c0.867,1.267,1.583,2.45,2.15,3.55c0.967,1.867,1.784,3.583,2.45,5.15
						c0.6,1.434,1.217,3.2,1.85,5.3l0.8,2.5l0.55-0.75c0.433-0.366,0.933-0.649,1.5-0.85c0.767-0.267,1.517-0.033,2.25,0.7
						c0.5,0.533,0.767,1.1,0.8,1.7l1.1-3.301c0.534-1.767,1.167-3.533,1.9-5.3c0.667-1.633,1.483-3.35,2.45-5.15
						c0.633-1.2,1.35-2.383,2.149-3.55c1.067-1.534,2.25-2.967,3.551-4.3c1.1-1.167,2.366-2.267,3.8-3.3l0.899-0.6
						c1.467-0.933,2.767-1.633,3.9-2.1c1.467-0.633,2.9-1.116,4.3-1.45c1.4-0.367,2.934-0.633,4.601-0.8
						c1.3-0.133,2.767-0.2,4.399-0.2c1.634,0.066,3.2,0.533,4.7,1.4l0.05,0.05c2,1.467,2.3,3.483,0.9,6.05
						c-0.7,1.267-1.601,2.683-2.7,4.25c-0.866,1.2-1.7,2.267-2.5,3.2c1.5,4.167,1.8,8.4,0.9,12.7c-0.4,1.8-1.2,3.35-2.4,4.65
						c-1.033,1.1-2.167,1.916-3.4,2.449c-1.066,0.5-2.25,0.917-3.55,1.25c-1.833,0.467-3.783,0.7-5.85,0.7h-0.101
						c-0.533,0-1.3-0.033-2.3-0.1l1.05,0.45c2.767,1.166,5.25,2.767,7.45,4.8c2.367,2.166,3.8,4.883,4.3,8.149
						c0.5,3.434,0.217,6.817-0.85,10.15c-0.967,2.9-2.267,5.583-3.9,8.05c-1.666,2.566-3.683,4.733-6.05,6.5
						c-1.467,1.134-3.033,1.7-4.7,1.7c-1.233,0-2.483-0.333-3.75-1c-3-1.634-4.933-4.25-5.8-7.85c-0.366-1.601-1-2.967-1.899-4.101
						c-1.767-2.5-3-5.25-3.7-8.25c-0.3-1.2-0.566-2.616-0.8-4.25l-0.45,0.15H85.85c-0.199,0-0.366-0.067-0.5-0.2
						c-0.333,1.934-0.616,3.366-0.85,4.3c-0.7,3-1.933,5.75-3.7,8.25c-0.9,1.233-1.533,2.601-1.9,4.101
						c-0.8,3.566-2.733,6.183-5.8,7.85c-1.267,0.667-2.517,1-3.75,1c-1.633,0-3.184-0.566-4.65-1.7c-2.4-1.733-4.434-3.899-6.1-6.5
						c-1.633-2.533-2.917-5.217-3.85-8.05c-1.1-3.333-1.383-6.717-0.85-10.15c0.467-3.267,1.883-5.983,4.25-8.149
						c2.233-2.033,4.717-3.634,7.45-4.8l1.05-0.45l-2.35,0.1c-2.1,0-4.066-0.233-5.9-0.7c-1.3-0.333-2.483-0.75-3.55-1.25
						c-1.233-0.533-2.367-1.35-3.4-2.449c-1.233-1.334-2.017-2.884-2.35-4.65c-0.967-4.3-0.667-8.533,0.9-12.7
						c-0.6-0.667-1.433-1.733-2.5-3.2c-0.933-1.267-1.833-2.684-2.7-4.25c-1.433-2.567-1.133-4.583,0.9-6.05V68h0.05
						c1.467-0.867,3.017-1.333,4.65-1.4c1.633,0,3.1,0.066,4.4,0.2c1.733,0.167,3.284,0.434,4.65,0.8
						c1.333,0.333,2.75,0.816,4.25,1.45C65,69.583,66.317,70.3,67.65,71.2z"/>
					<g>
						<g>
							<g>
								<path style="fill-rule:evenodd;clip-rule:evenodd;fill:#6C582F;" d="M86.85,95.55c0.5,0.434,0.717,1,0.65,1.7
									c-0.033,0.667-0.25,1.15-0.65,1.45l-0.3,0.149L86.4,98.9l-0.45-0.15c-0.434,0-0.75,0.05-0.95,0.15
									c-0.3-0.101-0.55-0.25-0.75-0.45C83.883,98.083,83.7,97.6,83.7,97c0-0.5,0.183-0.934,0.55-1.3c0.4-0.334,0.8-0.567,1.2-0.7
									C85.917,94.833,86.384,95.017,86.85,95.55z"/>
								<path style="fill-rule:evenodd;clip-rule:evenodd;fill:#6E6A48;" d="M86.55,98.85h0.5c0.267,0,0.533,0.217,0.8,0.65
									c0.2,0.4,0.301,0.917,0.301,1.55c0,0.767-0.101,1.351-0.301,1.75c-0.199,0.3-0.483,0.55-0.85,0.75l-0.35-0.3
									c-0.334-0.134-0.601-0.2-0.801-0.2H85.8l-0.05-1.35c0.066-0.7,0.184-1.3,0.35-1.8l0.301-1L86.55,98.85z M85,98.9
									c0.366,0.1,0.566,0.649,0.6,1.649l0.051,2.5l-0.4,0.05L85,103.2l-0.15,0.149l-0.1,0.2l-0.05,0.05
									c-0.633-0.3-1.05-0.649-1.25-1.05c-0.167-0.399-0.25-0.934-0.25-1.6c0-0.5,0.167-0.967,0.5-1.4
									c0.367-0.434,0.65-0.649,0.85-0.649H85z"/>
								<path style="fill-rule:evenodd;clip-rule:evenodd;fill:#3F3822;" d="M86.4,98.9l-0.301,1c-0.166,0.5-0.283,1.1-0.35,1.8
									l0.05,1.35h0.05c0.2,0,0.467,0.066,0.801,0.2l0.35,0.3l0.3,1.4c0.066,0.899,0.084,1.649,0.05,2.25
									c-0.033,0.899-0.133,1.649-0.3,2.25c-0.267,1.133-0.717,1.666-1.35,1.6c-0.9,0-1.333-1.184-1.3-3.55l0.1-2.6l0.2-1.301
									l0.05-0.05l0.1-0.2L85,103.2l0.25-0.101l0.4-0.05l-0.051-2.5c-0.033-1-0.233-1.55-0.6-1.649c0.2-0.101,0.517-0.15,0.95-0.15
									L86.4,98.9z"/>
								<path style="fill-rule:evenodd;clip-rule:evenodd;fill:#7E754C;" d="M84.7,103.6l-0.2,1.301l-0.1,2.6
									c-0.033,2.366,0.4,3.55,1.3,3.55c0.633,0.066,1.083-0.467,1.35-1.6c0.167-0.601,0.267-1.351,0.3-2.25
									c0.034-0.601,0.017-1.351-0.05-2.25l-0.3-1.4c0.2,0.2,0.384,0.55,0.55,1.05c0.2,0.667,0.3,1.634,0.3,2.9
									c-0.033,1.667-0.233,3.517-0.6,5.55c-0.4,2.5-0.866,3.783-1.4,3.851c-0.366-0.7-0.8-2.184-1.3-4.45
									c-0.533-2.334-0.8-4.15-0.8-5.45c0-0.767,0.1-1.517,0.3-2.25C84.217,104.25,84.433,103.866,84.7,103.6z"/>
							</g>
						</g>
						<g>
							<g>
								<path style="fill-rule:evenodd;clip-rule:evenodd;fill:#75632F;" d="M55,75.5c-1.267-0.033-2.467,0.3-3.6,1
									c-0.933,0.6-1.066,1.283-0.4,2.05c1,1.1,2.133,1.617,3.4,1.55l1.25-0.25l8.05,0.5c1.9,0.3,3.367,0.583,4.4,0.85
									c2,0.466,3.5,0.85,4.5,1.15c1.2,0.3,2.55,0.767,4.05,1.4l0.45,0.95l-4.5-1.6c-1.1-0.333-2.233-0.583-3.4-0.75l-5.15-0.75
									l-3.65,0.1c-1.6,0.1-3.05,0.316-4.35,0.65c-1.767,0.433-3.117,1.55-4.05,3.35c-0.667,1.333-0.367,2.116,0.9,2.35
									c1.2,0.167,2.35,0.101,3.45-0.2c-0.667,0.2-1.333,0.45-2,0.75c-0.967,0.4-1.733,1.101-2.3,2.101
									c-0.633,1.333-0.55,2.583,0.25,3.75c0.233,0.366,0.567,0.583,1,0.649c2.667-0.267,5.467-0.616,8.4-1.05l6.95-0.35l3.25,0.25
									c1.6,0.166,3.117,0.416,4.55,0.75c1.367,0.3,2.75,0.7,4.15,1.2l0.1,0.6l-8.5-2.05c-0.967-0.101-2.417-0.184-4.35-0.25
									c-1.4-0.033-2.934,0-4.6,0.1l-2.3,0.3c-1.6,0.267-3.05,0.7-4.35,1.301c-0.934,0.366-1.5,1.066-1.7,2.1
									c-0.1,0.4-0.017,0.75,0.25,1.05c1.1,1.167,2.467,1.667,4.1,1.5c1.633-0.033,3.217-0.233,4.75-0.6l6.1-1.101
									c1.566-0.199,3.117-0.3,4.65-0.3c1.633,0,3.183,0.267,4.65,0.8c0.833,0.301,1.667,0.667,2.5,1.101l0.8,1.149l-2.75,0.15
									c-0.9,0-1.667-0.15-2.3-0.45c-1.333-0.5-2.7-0.55-4.1-0.149c-3,0.899-6.05,1.35-9.15,1.35c-2.033,0-3.967-0.217-5.8-0.65
									c-1.2-0.3-2.333-0.699-3.4-1.199c-1.233-0.567-2.284-1.334-3.15-2.301c-1.1-1.166-1.833-2.6-2.2-4.3
									c-0.934-4.366-0.583-8.583,1.05-12.65c-1-1.167-1.917-2.333-2.75-3.5c-1.066-1.433-1.95-2.833-2.65-4.2
									c-1.267-2.167-1.05-3.833,0.65-5L46,69c0.933,2.033,2.567,2.867,4.9,2.5l5.7-0.95c1.433-0.233,2.9-0.183,4.4,0.15
									c1.233,0.333,2.533,0.85,3.9,1.55l1.65,0.9l-4-1.3c-1.367-0.367-2.683-0.55-3.95-0.55c-1.6-0.066-3.15,0.034-4.65,0.3
									l-2.05,0.3c-1.066,0.1-2.017,0.534-2.85,1.3c-0.3,0.267-0.316,0.533-0.05,0.8c0.867,1,1.967,1.283,3.3,0.85l4.75-0.3
									c1.467,0,2.917,0.15,4.35,0.45l9.75,1.75l1,1.05c-1.867-0.533-3.267-0.9-4.2-1.1c-1.4-0.333-2.883-0.634-4.45-0.9
									c-1.5-0.233-3-0.383-4.5-0.45C57.7,75.35,56.367,75.4,55,75.5z M65.2,87.3c1.933,0.134,3.35,0.267,4.25,0.4
									c1.367,0.166,2.816,0.45,4.35,0.85l4.4,1.25l0.75,0.15l0.2,0.6c-1.367-0.533-2.833-0.95-4.4-1.25l-14.2-2.05L65.2,87.3z"/>
								<path style="fill-rule:evenodd;clip-rule:evenodd;fill:#3F2B14;" d="M63.4,69.75c1.233,0.566,2.5,1.267,3.8,2.1l0.85,0.6
									L64,70.95L67.8,74l-1-0.65l-0.25-0.2l-1.65-0.9c-1.367-0.7-2.667-1.217-3.9-1.55c-1.5-0.333-2.967-0.384-4.4-0.15l-5.7,0.95
									c-2.333,0.367-3.967-0.467-4.9-2.5l0.15-0.3c1.333-0.8,2.767-1.233,4.3-1.3c1.167-0.033,2.6,0.034,4.3,0.2
									c1.5,0.167,3,0.417,4.5,0.75C60.483,68.65,61.867,69.117,63.4,69.75z"/>
								<path style="fill-rule:evenodd;clip-rule:evenodd;fill:#9EFDFE;" d="M54.15,73.1c-1.133,0.2-1.75,0.783-1.85,1.75
									C50.967,75.283,49.867,75,49,74c-0.267-0.267-0.25-0.533,0.05-0.8c0.833-0.767,1.784-1.2,2.85-1.3l4.15,0.9
									C54.85,73,54.217,73.1,54.15,73.1z M58.25,76.8l3.5,0.45c-2.4-0.233-4.617,0.25-6.65,1.45c-0.833,0.833-1.067,1.3-0.7,1.4
									c-1.267,0.066-2.4-0.45-3.4-1.55c-0.667-0.767-0.533-1.45,0.4-2.05c1.133-0.7,2.333-1.033,3.6-1
									C56.033,76.267,57.117,76.7,58.25,76.8z M64.05,81.6c-1.3,0.267-1.95,1.133-1.95,2.6c0,0.466,0.117,0.816,0.35,1.05
									c0.767,0.967,1.683,1.65,2.75,2.05l-4.65-0.05c-2.233-1.5-4.517-1.967-6.85-1.4c2.933-0.867,5.167-2.25,6.7-4.15L64.05,81.6
									z M67.15,89.4c-1.066,2.133-0.566,3.566,1.5,4.3l-6.95,0.35c-2.034-1.366-4.633-2.133-7.8-2.3c3.3-0.967,5.5-2.467,6.6-4.5
									h0.05l8.05,0.95C68,88.333,67.517,88.733,67.15,89.4z M63.25,94.3c1.667-0.1,3.2-0.133,4.6-0.1
									c1.933,0.066,3.383,0.149,4.35,0.25c-0.567,0-1.133,0.183-1.7,0.55c-1.633,1.1-1.767,2.383-0.4,3.85L64,99.95
									c-1.233-0.667-2.367-1.117-3.4-1.351c-1.2-0.3-2.517-0.449-3.95-0.449c1-0.467,1.833-1.018,2.5-1.65
									c0.6-0.533,1.2-1.167,1.8-1.9L63.25,94.3z"/>
								<path style="fill-rule:evenodd;clip-rule:evenodd;fill:#6BB3FB;" d="M58.6,71.3c1.267,0,2.583,0.184,3.95,0.55l4,1.3
									l0.25,0.2l-4.4-0.6c-1.533-0.167-3-0.2-4.4-0.1l-1.95,0.15l-4.15-0.9l2.05-0.3C55.45,71.333,57,71.233,58.6,71.3z M59,75.35
									c1.5,0.066,3,0.216,4.5,0.45c1.567,0.267,3.05,0.567,4.45,0.9c0.933,0.2,2.333,0.566,4.2,1.1l1.9,2l-4.15-1.15
									c-1.5-0.466-2.85-0.783-4.05-0.95l-7.6-0.9c-1.133-0.1-2.217-0.533-3.25-1.3C56.367,75.4,57.7,75.35,59,75.35z M60.4,81.7
									c-1.533,1.9-3.767,3.283-6.7,4.15c2.333-0.567,4.617-0.1,6.85,1.4H60.5c-1.1,2.033-3.3,3.533-6.6,4.5
									c3.167,0.167,5.767,0.934,7.8,2.3c-2.934,0.434-5.733,0.783-8.4,1.05c-0.433-0.066-0.767-0.283-1-0.649
									c-0.8-1.167-0.883-2.417-0.25-3.75c0.567-1,1.333-1.7,2.3-2.101c0.667-0.3,1.333-0.55,2-0.75
									c-1.1,0.301-2.25,0.367-3.45,0.2c-1.267-0.233-1.566-1.017-0.9-2.35c0.933-1.8,2.283-2.917,4.05-3.35
									C57.35,82.017,58.8,81.8,60.4,81.7z M54.9,98c0.2-1.033,0.767-1.733,1.7-2.1c1.3-0.601,2.75-1.034,4.35-1.301
									c-0.6,0.733-1.2,1.367-1.8,1.9c-0.667,0.633-1.5,1.184-2.5,1.65c1.434,0,2.75,0.149,3.95,0.449
									c1.033,0.233,2.167,0.684,3.4,1.351c-1.533,0.366-3.117,0.566-4.75,0.6c-1.633,0.167-3-0.333-4.1-1.5
									C54.883,98.75,54.8,98.4,54.9,98z"/>
								<path style="fill-rule:evenodd;clip-rule:evenodd;fill:#9B9168;" d="M68.05,72.45c1.267,0.833,2.5,1.883,3.7,3.15
									c1.4,1.466,2.55,2.867,3.45,4.2c0.8,1.1,1.5,2.25,2.1,3.45c0.7,1.267,1.517,2.967,2.45,5.1c0.6,1.467,1.217,3.2,1.85,5.2
									c0.6,1.967,1.217,3.783,1.85,5.45c0.5,1.233,0.25,2.1-0.75,2.6l-0.8-1.149l-1.2-3.95l-0.1-0.6l-3.5-11.2l-0.45-0.95
									l-2.6-3.95l-2.9-3.05L64,70.95L68.05,72.45z"/>
								<path style="fill-rule:evenodd;clip-rule:evenodd;fill:#6581FE;" d="M58,72.65c1.4-0.1,2.867-0.066,4.4,0.1l4.4,0.6l1,0.65
									l3.35,2.75L61.4,75c-1.433-0.3-2.883-0.45-4.35-0.45l-4.75,0.3c0.1-0.967,0.717-1.55,1.85-1.75c0.067,0,0.7-0.1,1.9-0.3
									L58,72.65z M55.1,78.7c2.033-1.2,4.25-1.684,6.65-1.45l4.1,0.45c1.2,0.167,2.55,0.483,4.05,0.95l4.15,1.15l2.6,3.95
									c-1.5-0.633-2.85-1.1-4.05-1.4c-1-0.3-2.5-0.684-4.5-1.15c-1.033-0.267-2.5-0.55-4.4-0.85l-8.05-0.5L54.4,80.1
									C54.033,80,54.267,79.533,55.1,78.7z M62.1,84.2c0-1.467,0.65-2.333,1.95-2.6l5.15,0.75c1.167,0.167,2.3,0.417,3.4,0.75
									l4.5,1.6l1.85,5.25L78.2,89.8l-4.4-1.25c-1.533-0.399-2.983-0.684-4.35-0.85c-0.9-0.134-2.317-0.267-4.25-0.4
									c-1.067-0.399-1.983-1.083-2.75-2.05C62.217,85.017,62.1,84.667,62.1,84.2z M68.6,88.2l6.15,1.1
									c1.567,0.3,3.033,0.717,4.4,1.25L80.6,95.9c-1.4-0.5-2.783-0.9-4.15-1.2c-1.434-0.334-2.95-0.584-4.55-0.75l-3.25-0.25
									c-2.066-0.733-2.566-2.167-1.5-4.3C67.517,88.733,68,88.333,68.6,88.2z M72.2,94.45l8.5,2.05l1.2,3.95
									c-0.833-0.434-1.667-0.8-2.5-1.101c-1.467-0.533-3.017-0.8-4.65-0.8c-1.533,0-3.083,0.101-4.65,0.3
									c-1.367-1.467-1.233-2.75,0.4-3.85C71.067,94.633,71.633,94.45,72.2,94.45z"/>
							</g>
						</g>
						<g>
							<g>
								<path style="fill-rule:evenodd;clip-rule:evenodd;fill:#6581FE;" d="M70.75,105.75c-1.833,0.767-3.483,1.5-4.95,2.2
									c-2.833,1.3-4.917,3.366-6.25,6.2c-0.4,0.899-0.233,1.55,0.5,1.949c1.934,1,3.717,0.533,5.35-1.399
									c1.9-2.267,4.017-4.4,6.35-6.4l2.9-1.8l-9.3,8.55c-2.233,2.233-3.7,4.884-4.4,7.95c-0.3,1.1,0.066,1.733,1.1,1.9
									c2.267,0.267,4-0.851,5.2-3.351c1.433-3,2.833-5.783,4.2-8.35l0.15-0.25c1-2.5,2.566-4.533,4.7-6.101
									c-2.4,3.834-4.383,7.25-5.95,10.25l-1.75,3.2c-1.5,2.634-2.533,5.5-3.1,8.601c0,0.133,0.033,0.199,0.1,0.199
									c1.8,0.667,3.167,0.051,4.1-1.85c-0.4,1.333-0.267,2.684,0.4,4.05l0.15,0.25c3-4.167,4.767-8.917,5.3-14.25l1.45-5.05
									l-2.65,12.1c-0.5,2.267-0.4,4.45,0.3,6.551c1.533-1.567,2.417-3.467,2.65-5.7c0.4-2.934,0.633-6.134,0.7-9.601
									c0.067-3.267,0.733-6.3,2-9.1c0.6-1.434,1.567-2.733,2.9-3.9C78.7,102.667,74.65,103.717,70.75,105.75z M76.3,106.85
									l0.2-0.35v0.25L76.3,106.85z M83.2,102.4l0.1,0.25c-1.6,2.466-2.75,5.232-3.45,8.3c-0.667,2.967-1,5.933-1,8.899
									c0,3.367-0.367,6.584-1.1,9.65c-0.667,2.866-1.933,5.533-3.8,8c-0.267-0.1-0.5-0.25-0.7-0.45
									c-0.233-0.167-0.4-0.417-0.5-0.75c-0.133-0.267-0.2-0.616-0.2-1.05l0.05-0.85h-0.2c-0.033,1.5-0.533,2.8-1.5,3.899
									c-0.7,0.767-1.55,1.05-2.55,0.851c-0.8-0.167-1.4-0.584-1.8-1.25c-0.9-1.334-0.867-2.65,0.1-3.95h-0.2
									c-0.3,0.866-0.85,1.433-1.65,1.7c-0.667,0.232-1.367,0.199-2.1-0.101c-0.733-0.399-1.167-1.017-1.3-1.85
									c-0.433-2.267,0.1-4.317,1.6-6.15h-0.2c-1,1.4-2.117,1.7-3.35,0.9c-1.034-0.667-1.5-1.634-1.4-2.9
									c0.067-1.167,0.35-2.3,0.85-3.399c0.6-1.301,1.233-2.467,1.9-3.5c-1,0.699-1.75,0.55-2.25-0.45
									c-0.433-0.834-0.55-1.717-0.35-2.65c0.667-2.733,2.033-5,4.1-6.8c2.233-1.967,4.767-3.533,7.6-4.7
									C74.2,102.283,78.633,101.733,83.2,102.4z M70.25,125.95l5.4-14.55l-3.2,9.6C71.55,123.233,70.817,124.883,70.25,125.95z"/>
								<path style="fill-rule:evenodd;clip-rule:evenodd;fill:#6A5C39;" d="M83.2,102.4c-4.567-0.667-9-0.117-13.3,1.649
									c-2.833,1.167-5.367,2.733-7.6,4.7c-2.066,1.8-3.433,4.066-4.1,6.8c-0.2,0.934-0.083,1.816,0.35,2.65
									c0.5,1,1.25,1.149,2.25,0.45c-0.667,1.033-1.3,2.199-1.9,3.5c-0.5,1.1-0.783,2.232-0.85,3.399
									c-0.1,1.267,0.367,2.233,1.4,2.9c1.233,0.8,2.35,0.5,3.35-0.9H63c-1.5,1.833-2.033,3.884-1.6,6.15
									c0.133,0.833,0.567,1.45,1.3,1.85c0.733,0.3,1.433,0.333,2.1,0.101c0.8-0.268,1.35-0.834,1.65-1.7h0.2
									c-0.967,1.3-1,2.616-0.1,3.95c0.4,0.666,1,1.083,1.8,1.25c1,0.199,1.85-0.084,2.55-0.851c0.967-1.1,1.467-2.399,1.5-3.899
									h0.2l-0.05,0.85c0,0.434,0.067,0.783,0.2,1.05c0.1,0.333,0.267,0.583,0.5,0.75c0.2,0.2,0.433,0.351,0.7,0.45
									c1.867-2.467,3.133-5.134,3.8-8c0.733-3.066,1.1-6.283,1.1-9.65c0-2.967,0.333-5.933,1-8.899c0.7-3.067,1.85-5.834,3.45-8.3
									l0.2,0.5c-1.667,2.232-2.7,4.85-3.1,7.85c-0.333,3.1-0.583,6.233-0.75,9.4c-0.167,3.166,0,6.232,0.5,9.199
									c-1,1.367-1.667,2.817-2,4.351c-0.8,3.366-2.6,5.816-5.4,7.35c-2.633,1.4-5.167,1.2-7.6-0.6
									c-2.3-1.733-4.267-3.851-5.9-6.351c-1.667-2.633-2.917-5.25-3.75-7.85c-1.067-3.233-1.35-6.5-0.85-9.8
									c0.5-3.167,1.85-5.717,4.05-7.65c2.133-1.967,4.533-3.533,7.2-4.7c2.533-1.033,5.033-1.816,7.5-2.35
									c3.2-0.7,6.4-0.75,9.6-0.15L83.2,102.4z"/>
								<path style="fill-rule:evenodd;clip-rule:evenodd;fill:#95885B;" d="M80.4,111c0.4-3,1.434-5.617,3.1-7.85
									c1.133,3.033,1.634,6.216,1.5,9.55c-0.167,3.1-0.583,6.083-1.25,8.95c-0.7,2.899-1.9,5.55-3.6,7.949
									c-0.5-2.967-0.667-6.033-0.5-9.199C79.817,117.233,80.067,114.1,80.4,111z"/>
								<path style="fill-rule:evenodd;clip-rule:evenodd;fill:#9EFDFE;" d="M80,106.5c-1.267,2.8-1.933,5.833-2,9.1l-1.9,5.301
									l-0.1-3.75l1-4.9l-1.45,5.05l-2.9,5.601l0.85-4.7l2.15-6.8l-1.9,5.399c-1.133,1.867-2.467,3.55-4,5.05l-0.4,0.4l1-5.15
									c1.566-3,3.55-6.416,5.95-10.25c-2.133,1.567-3.7,3.601-4.7,6.101l-0.15,0.25l-5.6,5.3l2.85-6.65l5.95-5.35l-2.9,1.8
									c-2,0.367-3.85,1.033-5.55,2l-0.35,0.2c1.667-1.3,3.3-2.884,4.9-4.75c3.9-2.033,7.95-3.083,12.15-3.15
									C81.567,103.767,80.6,105.066,80,106.5z"/>
								<path style="fill-rule:evenodd;clip-rule:evenodd;fill:#6BB3FB;" d="M70.75,105.75c-1.6,1.866-3.233,3.45-4.9,4.75l0.35-0.2
									c1.7-0.967,3.55-1.633,5.55-2c-2.333,2-4.45,4.134-6.35,6.4c-1.633,1.933-3.417,2.399-5.35,1.399
									c-0.733-0.399-0.9-1.05-0.5-1.949c1.333-2.834,3.417-4.9,6.25-6.2C67.267,107.25,68.917,106.517,70.75,105.75z M72.45,121
									l1.05-2.8l-0.85,4.7l2.9-5.601c-0.533,5.333-2.3,10.083-5.3,14.25l-0.15-0.25c-0.667-1.366-0.8-2.717-0.4-4.05
									c-0.934,1.9-2.3,2.517-4.1,1.85c-0.067,0-0.1-0.066-0.1-0.199c0.567-3.101,1.6-5.967,3.1-8.601l1.75-3.2l-1,5.15l0.4-0.4
									c1.533-1.5,2.867-3.183,4-5.05l-3.5,9.15C70.817,124.883,71.55,123.233,72.45,121z M74.35,124.35L76,117.15l0.1,3.75
									L78,115.6c-0.067,3.467-0.3,6.667-0.7,9.601c-0.233,2.233-1.117,4.133-2.65,5.7C73.95,128.8,73.85,126.616,74.35,124.35z
									 M65.85,118.5l5.6-5.3c-1.367,2.566-2.767,5.35-4.2,8.35c-1.2,2.5-2.933,3.617-5.2,3.351c-1.033-0.167-1.4-0.801-1.1-1.9
									c0.7-3.066,2.167-5.717,4.4-7.95l3.35-3.2L65.85,118.5z"/>
							</g>
						</g>
						<g>
							<g>
								<path style="fill-rule:evenodd;clip-rule:evenodd;fill:#75632F;" d="M102.55,82.35c-1.133,0.133-2.267,0.383-3.399,0.75
									l-4.5,1.6l0.399-0.95c1.601-0.633,2.967-1.1,4.101-1.4c1-0.3,2.5-0.684,4.5-1.15c0.966-0.233,2.416-0.517,4.35-0.85
									l8.05-0.5l1.3,0.25c1.233,0.066,2.351-0.45,3.351-1.55c0.7-0.767,0.566-1.45-0.4-2.05c-1.133-0.7-2.333-1.033-3.6-1
									c-1.334-0.1-2.667-0.15-4-0.15c-1.5,0.066-3,0.216-4.5,0.45c-1.434,0.233-2.9,0.534-4.4,0.9
									c-1.066,0.233-2.483,0.6-4.25,1.1l1.05-1.05l9.7-1.75c1.467-0.3,2.934-0.45,4.4-0.45l4.7,0.3
									c1.333,0.433,2.433,0.15,3.3-0.85c0.3-0.267,0.283-0.533-0.05-0.8c-0.834-0.767-1.784-1.2-2.851-1.3
									c-0.666-0.033-1.333-0.133-2-0.3c-1.533-0.233-3.1-0.333-4.7-0.3c-1.267,0-2.583,0.184-3.949,0.55l-4,1.3l1.649-0.9
									c1.4-0.733,2.717-1.25,3.95-1.55c1.434-0.333,2.9-0.384,4.4-0.15l5.699,0.95c2.267,0.367,3.9-0.467,4.9-2.5l-0.2-0.3
									c1.667,1.167,1.9,2.833,0.7,5c-0.733,1.333-1.616,2.733-2.65,4.2c-1.199,1.6-2.116,2.767-2.75,3.5
									c1.601,4.2,1.934,8.417,1,12.65c-0.333,1.7-1.066,3.134-2.199,4.3c-0.867,0.967-1.917,1.733-3.15,2.301
									c-1.066,0.5-2.2,0.899-3.4,1.199c-1.833,0.434-3.75,0.65-5.75,0.65c-3.1,0-6.149-0.45-9.149-1.35
									c-1.4-0.4-2.783-0.351-4.15,0.149c-0.633,0.3-1.399,0.45-2.3,0.45L89,101.6l0.85-1.149c0.733-0.434,1.551-0.8,2.45-1.101
									c1.5-0.533,3.066-0.8,4.7-0.8c1.5,0,3.05,0.101,4.65,0.3l6.1,1.101c1.566,0.366,3.134,0.566,4.7,0.6
									c1.633,0.134,3-0.366,4.1-1.5c0.267-0.3,0.367-0.649,0.3-1.05c-0.267-1.066-0.833-1.767-1.699-2.1
									c-1.334-0.601-2.801-1.034-4.4-1.301l-2.25-0.3c-1.733-0.1-3.283-0.133-4.65-0.1c-1.933,0.066-3.383,0.149-4.35,0.25
									L91,96.5l0.15-0.6c1.267-0.467,2.633-0.867,4.1-1.2c1.5-0.367,3.017-0.617,4.55-0.75l3.25-0.25l6.95,0.35
									c2.8,0.4,5.6,0.75,8.4,1.05c0.399-0.066,0.75-0.283,1.05-0.649c0.8-1.134,0.866-2.384,0.2-3.75c-0.5-1-1.25-1.7-2.25-2.101
									l-2-0.75c1.066,0.301,2.199,0.367,3.399,0.2c1.3-0.267,1.617-1.05,0.95-2.35c-0.934-1.8-2.3-2.917-4.1-3.35
									c-1.301-0.333-2.75-0.55-4.351-0.65l-3.6-0.1C106,81.8,104.283,82.05,102.55,82.35z M106.5,87.3l4.65-0.05l-14.2,2.05
									c-1.634,0.333-3.101,0.75-4.4,1.25l0.2-0.6l0.75-0.15l4.4-1.25c1.6-0.399,3.05-0.684,4.35-0.85
									C103.217,87.566,104.634,87.434,106.5,87.3z"/>
								<path style="fill-rule:evenodd;clip-rule:evenodd;fill:#3F2B14;" d="M105.15,73.15l-1.2,0.85l3.8-3.05l-4.1,1.5l0.899-0.6
									c1.2-0.8,2.45-1.5,3.75-2.1c1.566-0.633,2.967-1.1,4.2-1.4c1.467-0.333,2.967-0.583,4.5-0.75
									c1.634-0.167,3.066-0.233,4.3-0.2c1.5,0.067,2.917,0.5,4.25,1.3l0.2,0.3c-1,2.033-2.634,2.867-4.9,2.5l-5.699-0.95
									c-1.5-0.233-2.967-0.183-4.4,0.15c-1.233,0.3-2.55,0.816-3.95,1.55L105.15,73.15z"/>
								<path style="fill-rule:evenodd;clip-rule:evenodd;fill:#9EFDFE;" d="M104.55,89.4c-0.3-0.634-0.767-1.034-1.399-1.2l8-0.95
									h0.1c1.033,2,3.217,3.5,6.55,4.5c-3.166,0.167-5.767,0.934-7.8,2.3l-6.95-0.35C105.15,92.934,105.65,91.5,104.55,89.4z
									 M109.6,84.2c0-1.467-0.633-2.333-1.899-2.6l3.6,0.1c1.533,1.866,3.783,3.25,6.75,4.15c-2.333-0.534-4.633-0.067-6.899,1.4
									l-4.65,0.05c1.033-0.366,1.967-1.05,2.8-2.05C109.533,84.95,109.634,84.6,109.6,84.2z M108.5,94.3l2.25,0.3
									c0.634,0.767,1.25,1.4,1.85,1.9c0.733,0.667,1.567,1.217,2.5,1.65c-1.466,0-2.783,0.149-3.949,0.449
									c-1,0.2-2.134,0.65-3.4,1.351l-6.1-1.101c1.366-1.5,1.216-2.783-0.45-3.85c-0.533-0.367-1.101-0.55-1.7-0.55
									c0.967-0.101,2.417-0.184,4.35-0.25C105.217,94.167,106.767,94.2,108.5,94.3z M119.8,71.9c1.066,0.1,2.017,0.534,2.851,1.3
									c0.333,0.267,0.35,0.533,0.05,0.8c-0.867,1-1.967,1.283-3.3,0.85c-0.101-0.967-0.717-1.55-1.851-1.75
									c-0.166-0.034-0.8-0.133-1.899-0.3L119.8,71.9z M116.7,75.5c1.267-0.033,2.467,0.3,3.6,1c0.967,0.6,1.101,1.283,0.4,2.05
									c-1,1.1-2.117,1.617-3.351,1.55c0.334-0.1,0.084-0.567-0.75-1.4c-2.033-1.2-4.233-1.684-6.6-1.45l3.45-0.45
									C114.583,76.7,115.667,76.267,116.7,75.5z"/>
								<path style="fill-rule:evenodd;clip-rule:evenodd;fill:#6BB3FB;" d="M99.55,77.8c1.767-0.5,3.184-0.866,4.25-1.1
									c1.5-0.367,2.967-0.667,4.4-0.9c1.5-0.233,3-0.383,4.5-0.45c1.333,0,2.666,0.05,4,0.15c-1.033,0.767-2.117,1.2-3.25,1.3
									L109,77.4c-1.033,0.067-2.083,0.167-3.15,0.3c-1.133,0.167-2.483,0.483-4.05,0.95l-4.1,1.15L99.55,77.8z M105.15,73.15
									l4-1.3c1.366-0.367,2.683-0.55,3.949-0.55c1.601-0.033,3.167,0.067,4.7,0.3c0.667,0.167,1.334,0.267,2,0.3l-4.149,0.9
									l-1.95-0.15c-1.367-0.1-2.834-0.066-4.4,0.1l-4.399,0.6L105.15,73.15z M115.65,82.35c1.8,0.433,3.166,1.55,4.1,3.35
									c0.667,1.3,0.35,2.083-0.95,2.35c-1.2,0.167-2.333,0.101-3.399-0.2l2,0.75c1,0.4,1.75,1.101,2.25,2.101
									c0.666,1.366,0.6,2.616-0.2,3.75c-0.3,0.366-0.65,0.583-1.05,0.649c-2.801-0.3-5.601-0.649-8.4-1.05
									c2.033-1.366,4.634-2.133,7.8-2.3c-3.333-1-5.517-2.5-6.55-4.5h-0.1c2.267-1.467,4.566-1.934,6.899-1.4
									c-2.967-0.9-5.217-2.284-6.75-4.15C112.9,81.8,114.35,82.017,115.65,82.35z M115.15,95.9c0.866,0.333,1.433,1.033,1.699,2.1
									c0.067,0.4-0.033,0.75-0.3,1.05c-1.1,1.134-2.467,1.634-4.1,1.5c-1.566-0.033-3.134-0.233-4.7-0.6
									c1.267-0.7,2.4-1.15,3.4-1.351c1.166-0.3,2.483-0.449,3.949-0.449c-0.933-0.434-1.767-0.983-2.5-1.65
									c-0.6-0.5-1.216-1.134-1.85-1.9C112.35,94.866,113.816,95.3,115.15,95.9z"/>
								<path style="fill-rule:evenodd;clip-rule:evenodd;fill:#9B9168;" d="M107.75,70.95l-7.15,5.8L97.7,79.8l-2.65,3.95l-2.5,6.8
									l-2.7,9.9L89,101.6c-1-0.5-1.25-1.366-0.75-2.6c0.667-1.667,1.283-3.483,1.85-5.45c0.634-2,1.25-3.733,1.851-5.2
									c0.934-2.133,1.75-3.833,2.45-5.1c0.6-1.2,1.3-2.35,2.1-3.45c1.066-1.5,2.217-2.9,3.45-4.2
									c1.133-1.167,2.366-2.217,3.7-3.15L107.75,70.95z"/>
								<path style="fill-rule:evenodd;clip-rule:evenodd;fill:#6581FE;" d="M107.7,81.6c1.267,0.267,1.899,1.133,1.899,2.6
									c0.034,0.4-0.066,0.75-0.3,1.05c-0.833,1-1.767,1.684-2.8,2.05c-1.866,0.134-3.283,0.267-4.25,0.4
									c-1.3,0.166-2.75,0.45-4.35,0.85l-4.4,1.25l-0.75,0.15l1.9-5.25l4.5-1.6c1.133-0.367,2.267-0.617,3.399-0.75
									C104.283,82.05,106,81.8,107.7,81.6z M105.85,77.7c1.067-0.134,2.117-0.233,3.15-0.3l1-0.15
									c2.366-0.233,4.566,0.25,6.6,1.45c0.834,0.833,1.084,1.3,0.75,1.4l-1.3-0.25l-8.05,0.5c-1.934,0.333-3.384,0.617-4.35,0.85
									c-2,0.466-3.5,0.85-4.5,1.15c-1.134,0.3-2.5,0.767-4.101,1.4l2.65-3.95l4.1-1.15C103.366,78.184,104.717,77.867,105.85,77.7
									z M109.3,72.75c1.566-0.167,3.033-0.2,4.4-0.1l1.95,0.15c1.1,0.167,1.733,0.267,1.899,0.3c1.134,0.2,1.75,0.783,1.851,1.75
									l-4.7-0.3c-1.467,0-2.934,0.15-4.4,0.45l-9.7,1.75L103.95,74l0.95-0.65L109.3,72.75z M99.8,93.95
									c-1.533,0.133-3.05,0.383-4.55,0.75c-1.467,0.333-2.833,0.733-4.1,1.2l1.399-5.351c1.3-0.5,2.767-0.917,4.4-1.25l6.2-1.1
									c0.633,0.166,1.1,0.566,1.399,1.2c1.101,2.1,0.601,3.533-1.5,4.3L99.8,93.95z M91,96.5l8.5-2.05c0.6,0,1.167,0.183,1.7,0.55
									c1.666,1.066,1.816,2.35,0.45,3.85c-1.601-0.199-3.15-0.3-4.65-0.3c-1.634,0-3.2,0.267-4.7,0.8
									c-0.899,0.301-1.717,0.667-2.45,1.101L91,96.5z"/>
							</g>
						</g>
						<g>
							<g>
								<path style="fill-rule:evenodd;clip-rule:evenodd;fill:#6581FE;" d="M91.75,106.5c1.267,2.866,1.917,5.9,1.95,9.1
									c0.033,3.033,0.267,6.233,0.7,9.601c0.3,2.3,1.183,4.2,2.649,5.7c0.7-2.101,0.8-4.284,0.3-6.551l-2.649-12.1l1.45,5.05
									c0.533,5.333,2.3,10.083,5.3,14.25l0.149-0.25c0.667-1.3,0.801-2.649,0.4-4.05c0.934,1.9,2.316,2.517,4.15,1.85
									c0.033,0,0.05-0.066,0.05-0.199c-0.566-3.067-1.584-5.934-3.05-8.601l-1.75-3.2c-1.534-2.866-3.517-6.283-5.95-10.25
									c2.066,1.533,3.633,3.567,4.7,6.101l0.1,0.25c1.366,2.566,2.767,5.35,4.2,8.35c1.2,2.467,2.95,3.583,5.25,3.351
									c0.967-0.134,1.333-0.768,1.1-1.9c-0.733-3.066-2.217-5.717-4.45-7.95l-9.3-8.55l2.9,1.8c2.2,1.867,4.316,4,6.35,6.4
									c1.634,1.933,3.417,2.399,5.351,1.399c0.733-0.399,0.899-1.05,0.5-1.949c-1.334-2.834-3.417-4.9-6.25-6.2
									c-1.067-0.533-2.7-1.267-4.9-2.2c-3.9-2.033-7.967-3.083-12.2-3.15C90.1,103.7,91.083,105,91.75,106.5z M101.85,104.05
									c2.834,1.167,5.367,2.733,7.601,4.7c2.1,1.8,3.45,4.066,4.05,6.8c0.2,0.9,0.1,1.783-0.3,2.65c-0.5,1-1.267,1.149-2.3,0.45
									c0.767,1.199,1.416,2.366,1.949,3.5c0.467,0.966,0.75,2.1,0.851,3.399c0.066,1.3-0.4,2.267-1.4,2.9
									c-1.3,0.8-2.416,0.5-3.35-0.9h-0.2c1.5,1.8,2.017,3.851,1.55,6.15c-0.133,0.833-0.566,1.45-1.3,1.85
									c-0.733,0.3-1.434,0.333-2.1,0.101c-0.801-0.268-1.351-0.834-1.65-1.7h-0.2c0.967,1.267,1.017,2.583,0.15,3.95
									c-0.434,0.699-1.05,1.116-1.851,1.25c-1,0.199-1.85-0.084-2.55-0.851c-0.934-1.1-1.434-2.399-1.5-3.899h-0.2l0.051,0.85
									c0.033,0.3-0.017,0.65-0.15,1.05c-0.167,0.333-0.333,0.583-0.5,0.75c-0.2,0.2-0.45,0.351-0.75,0.45
									c-1.8-2.4-3.05-5.066-3.75-8c-0.767-3.233-1.15-6.45-1.15-9.65c0-2.967-0.333-5.933-1-8.899
									c-0.699-3.067-1.85-5.834-3.449-8.3l0.1-0.25C93.066,101.767,97.517,102.316,101.85,104.05z M96.05,111.4l5.45,14.55
									c-0.7-1.3-1.45-2.95-2.25-4.95L96.05,111.4z"/>
								<path style="fill-rule:evenodd;clip-rule:evenodd;fill:#6A5C39;" d="M88.5,102.4l0.2-0.551c3.2-0.6,6.399-0.55,9.6,0.15
									c2.533,0.533,5.033,1.316,7.5,2.35c2.7,1.167,5.101,2.733,7.2,4.7c2.267,2,3.616,4.55,4.05,7.65
									c0.5,3.366,0.233,6.633-0.8,9.8c-0.967,2.833-2.233,5.45-3.8,7.85c-1.634,2.5-3.601,4.617-5.9,6.351
									c-2.399,1.8-4.916,2-7.55,0.6c-2.833-1.533-4.634-3.983-5.4-7.35c-0.399-1.667-1.083-3.117-2.05-4.351
									c0.5-3.133,0.684-6.199,0.55-9.199c-0.133-2.667-0.399-5.801-0.8-9.4c-0.333-2.9-1.366-5.517-3.1-7.85l0.2-0.5
									c1.6,2.466,2.75,5.232,3.449,8.3c0.667,2.967,1,5.933,1,8.899c0,3.2,0.384,6.417,1.15,9.65c0.7,2.934,1.95,5.6,3.75,8
									c0.3-0.1,0.55-0.25,0.75-0.45c0.167-0.167,0.333-0.417,0.5-0.75c0.134-0.399,0.184-0.75,0.15-1.05L99.1,134.4h0.2
									c0.066,1.5,0.566,2.8,1.5,3.899c0.7,0.767,1.55,1.05,2.55,0.851c0.801-0.134,1.417-0.551,1.851-1.25
									c0.866-1.367,0.816-2.684-0.15-3.95h0.2c0.3,0.866,0.85,1.433,1.65,1.7c0.666,0.232,1.366,0.199,2.1-0.101
									c0.733-0.399,1.167-1.017,1.3-1.85c0.467-2.3-0.05-4.351-1.55-6.15h0.2c0.934,1.4,2.05,1.7,3.35,0.9
									c1-0.634,1.467-1.601,1.4-2.9c-0.101-1.3-0.384-2.434-0.851-3.399c-0.533-1.134-1.183-2.301-1.949-3.5
									c1.033,0.699,1.8,0.55,2.3-0.45c0.399-0.867,0.5-1.75,0.3-2.65c-0.6-2.733-1.95-5-4.05-6.8
									c-2.233-1.967-4.767-3.533-7.601-4.7C97.517,102.316,93.066,101.767,88.5,102.4z"/>
								<path style="fill-rule:evenodd;clip-rule:evenodd;fill:#95885B;" d="M91.3,111c0.4,3.6,0.667,6.733,0.8,9.4
									c0.134,3-0.05,6.066-0.55,9.199c-1.733-2.433-2.916-5.083-3.55-7.949c-0.733-3.034-1.167-6.018-1.3-8.95
									c-0.134-3.334,0.366-6.517,1.5-9.55C89.934,105.483,90.967,108.1,91.3,111z"/>
								<path style="fill-rule:evenodd;clip-rule:evenodd;fill:#9EFDFE;" d="M91.75,106.5c-0.667-1.5-1.65-2.8-2.95-3.9
									c4.233,0.067,8.3,1.117,12.2,3.15c1.434,1.733,3.05,3.316,4.85,4.75l-0.3-0.2c-1.7-0.967-3.566-1.633-5.6-2l-2.9-1.8l6,5.35
									l2.8,6.65l-5.6-5.3l-0.1-0.25c-1.067-2.533-2.634-4.567-4.7-6.101c2.434,3.967,4.416,7.384,5.95,10.25l1,5.15l-0.45-0.4
									c-1.367-1.366-2.7-3.05-4-5.05l-1.9-5.399l2.15,6.8l0.85,4.7L96.15,117.3l-1.45-5.05l1,4.9l-0.05,3.75L93.7,115.6
									C93.667,112.4,93.017,109.366,91.75,106.5z"/>
								<path style="fill-rule:evenodd;clip-rule:evenodd;fill:#6BB3FB;" d="M105.9,107.95c2.833,1.3,4.916,3.366,6.25,6.2
									c0.399,0.899,0.233,1.55-0.5,1.949c-1.934,1-3.717,0.533-5.351-1.399c-2.033-2.4-4.149-4.533-6.35-6.4
									c2.033,0.367,3.899,1.033,5.6,2l0.3,0.2c-1.8-1.434-3.416-3.017-4.85-4.75C103.2,106.684,104.833,107.417,105.9,107.95z
									 M109.7,124.9c-2.3,0.232-4.05-0.884-5.25-3.351c-1.434-3-2.834-5.783-4.2-8.35l5.6,5.3l-2.8-6.65l3.3,3.2
									c2.233,2.233,3.717,4.884,4.45,7.95C111.033,124.133,110.667,124.767,109.7,124.9z M103.15,120.3
									c1.466,2.667,2.483,5.533,3.05,8.601c0,0.133-0.017,0.199-0.05,0.199c-1.834,0.667-3.217,0.051-4.15-1.85
									c0.4,1.4,0.267,2.75-0.4,4.05l-0.149,0.25c-3-4.167-4.767-8.917-5.3-14.25l2.899,5.601l-0.85-4.7l1.05,2.8
									c0.8,2,1.55,3.65,2.25,4.95l-3.55-9.15c1.3,2,2.633,3.684,4,5.05l0.45,0.4l-1-5.15L103.15,120.3z M94.4,125.2
									c-0.434-3.367-0.667-6.567-0.7-9.601l1.95,5.301l0.05-3.75l1.649,7.199c0.5,2.267,0.4,4.45-0.3,6.551
									C95.583,129.4,94.7,127.5,94.4,125.2z"/>
							</g>
						</g>
					</g>
				</g>
				<g>
					<g>
						
							<use xlink:href="#FlashAICB_x2F_Layer_2_x2F__x3C_Path_x3E__x5F_1"  width="41.557" height="36.051" x="0" y="-36.076" transform="matrix(1 0 0 -1 75.8501 53.8501)" style="overflow:visible;opacity:0.75;enable-background:new    ;"/>
						<path style="fill-rule:evenodd;clip-rule:evenodd;fill:#FFFFFF;" d="M105.05,51.95c4.634,0,7.983,0.6,10.05,1.8
							c2.101,1.2,3.317,3.3,3.65,6.3c0.167,1.467,0.217,2.733,0.15,3.8c-0.134,2.133-0.2,3.333-0.2,3.6c0,2.7-0.3,4.5-0.9,5.4
							c-1.533,2.267-5.083,3.417-10.649,3.45l-7.25,0.1l-1.65,1.9c0.3,1.233,0.283,2.217-0.05,2.95
							c-0.834,1.867-3.25,4.184-7.25,6.95c-0.667,0.467-0.834-0.033-0.5-1.5c0.333-1.467,0.899-2.617,1.7-3.45
							c1.066-1.167,0.166-3-2.7-5.5l-2.5-1.7c-3.3-0.1-5.583-0.433-6.85-1c-2.4-1.1-4.1-3.417-5.1-6.95
							c-0.4-1.467-0.533-3.034-0.4-4.7c0.3-1.867,0.517-3.233,0.65-4.1c0.367-2.633,1.833-4.616,4.4-5.95
							c1.9-0.967,3.983-1.45,6.25-1.45L105.05,51.95z"/>
						<path style="fill-rule:evenodd;clip-rule:evenodd;fill:#470B17;" d="M84.95,51.55h20.1c4.767,0.034,8.217,0.684,10.351,1.95
							c2.133,1.267,3.383,3.434,3.75,6.5c0.166,1.7,0.199,3.25,0.1,4.65c-0.1,0.767-0.15,1.7-0.15,2.8v0.75c0.034,1.2,0,2.1-0.1,2.7
							c-0.233,1.133-0.717,2.083-1.45,2.85c-1.833,1.934-5.3,2.917-10.399,2.95l-7.101,0.05L98.65,78.4l0.05,0.1
							c0.366,1.1,0.267,2.167-0.3,3.2c-1,1.866-3.417,4.133-7.25,6.8c-0.167,0.133-0.351,0.2-0.551,0.2
							c-0.267,0-0.449-0.134-0.55-0.4c-0.233-0.5-0.133-1.35,0.3-2.55c0.4-1.2,0.917-2.133,1.551-2.8c0.199-0.2,0.3-0.467,0.3-0.8
							c-0.066-1.033-1.066-2.417-3-4.15l-2.351-1.6H86.4c-3.067-0.066-5.3-0.45-6.7-1.15c-2.367-1.167-4.05-3.517-5.05-7.05
							c-0.566-2.034-0.566-4.583,0-7.65l0.2-1.3c0.367-2.4,1.617-4.3,3.75-5.7C80.367,52.383,82.483,51.717,84.95,51.55z
							 M80.55,53.4c-2.867,1.233-4.517,3.233-4.95,6l-0.2,1.3c-0.533,3-0.55,5.433-0.05,7.3c0.967,3.3,2.533,5.5,4.7,6.6
							c1.3,0.633,3.417,0.983,6.351,1.05l0.55,0.05l0.2,0.05l2.55,1.65c2.133,1.934,3.217,3.5,3.25,4.7c0,0.566-0.167,1.033-0.5,1.4
							c-0.533,0.566-1,1.383-1.4,2.45c-0.333,0.933-0.45,1.583-0.35,1.95l0.05-0.051c3.634-2.5,5.934-4.6,6.9-6.3
							c0.533-0.9,0.649-1.833,0.35-2.8l-0.1-0.35c-0.034-0.066-0.017-0.183,0.05-0.35l1.6-1.85c0.134-0.134,0.233-0.2,0.3-0.2
							l7.301-0.05c4.933-0.034,8.216-0.934,9.85-2.7c0.634-0.667,1.05-1.517,1.25-2.55c0.1-0.6,0.134-1.417,0.1-2.45v-0.8
							c0-1.134,0.051-2.083,0.15-2.85c0.1-1.367,0.066-2.867-0.1-4.5c-0.334-2.867-1.483-4.883-3.45-6.05
							c-2-1.133-5.3-1.716-9.9-1.75h-19.7C83.817,52.3,82.217,52.667,80.55,53.4z"/>
					</g>
					<g>
						
							<path style="fill-rule:evenodd;clip-rule:evenodd;fill:none;stroke:#470B17;stroke-width:0.5;stroke-linecap:round;stroke-linejoin:round;stroke-miterlimit:3;" d="
							M80.75,57.25h1.2c0.533-0.066,1.25-0.267,2.15-0.6c0.867-0.233,1.633-0.25,2.3-0.05c0.899,0.267,1.933,0.45,3.1,0.55
							c0.333,0.034,0.816,0.1,1.45,0.2c0.533,0.033,1-0.034,1.399-0.2c0.267-0.1,0.617-0.283,1.051-0.55
							c0.399-0.133,0.8-0.133,1.199,0c0.067,0.033,0.301,0.2,0.7,0.5c0.3,0.2,0.584,0.283,0.851,0.25
							c0.166-0.034,0.433-0.167,0.8-0.4c0.333-0.2,0.616-0.333,0.85-0.4c0.5-0.1,1.033,0.034,1.601,0.4
							c0.366,0.3,0.833,0.417,1.399,0.35c0.767-0.033,1.533-0.233,2.3-0.6c0.467-0.233,0.9-0.284,1.301-0.15
							c0.166,0.067,0.35,0.2,0.55,0.4c0.233,0.233,0.416,0.366,0.55,0.4c0.533,0.167,1.566,0.017,3.1-0.45
							c1.034-0.1,2-0.083,2.9,0.05c0.233,0.033,0.667,0.133,1.3,0.3c0.566,0.133,1,0.2,1.3,0.2"/>
						
							<path style="fill-rule:evenodd;clip-rule:evenodd;fill:none;stroke:#470B17;stroke-width:0.5;stroke-linecap:round;stroke-linejoin:round;stroke-miterlimit:3;" d="
							M80.6,61.75c1.133-0.367,1.883-0.533,2.25-0.5c0.267,0.033,0.633,0.133,1.1,0.3c0.433,0.1,0.833,0.083,1.2-0.05
							c0.633-0.233,1.083-0.35,1.35-0.35c0.467,0.067,0.833,0.15,1.1,0.25c1.267,0.467,2.617,0.733,4.051,0.8
							c0.466,0,1.116-0.15,1.949-0.45c0.834-0.333,1.467-0.5,1.9-0.5c0.5-0.033,1.05,0.1,1.65,0.4
							c1.033,0.367,2.166,0.583,3.399,0.65c0.367,0,0.983-0.116,1.851-0.35c0.767-0.2,1.383-0.267,1.85-0.2
							c0.434,0.066,0.967,0.15,1.6,0.25c0.534,0.033,1.067-0.066,1.601-0.3c1.2-0.5,2.467-0.667,3.8-0.5
							c0.333,0.033,0.816,0.183,1.45,0.45c0.6,0.267,1.05,0.4,1.35,0.4"/>
						
							<path style="fill-rule:evenodd;clip-rule:evenodd;fill:none;stroke:#470B17;stroke-width:0.5;stroke-linecap:round;stroke-linejoin:round;stroke-miterlimit:3;" d="
							M80.55,66.65c0.2-0.066,0.5-0.183,0.9-0.35c0.4-0.167,0.75-0.267,1.05-0.3c0.567-0.033,1.117,0.167,1.65,0.6
							c0.467,0.167,1.15,0.15,2.05-0.05c0.5-0.1,1.2-0.05,2.1,0.15c0.467,0,1.233-0.167,2.3-0.5c0.9-0.3,1.684-0.384,2.351-0.25
							c0.434,0.1,1.083,0.3,1.95,0.6c0.5,0.067,1.316-0.017,2.449-0.25c0.767-0.167,1.434-0.216,2-0.15
							c0.233,0.034,0.634,0.133,1.2,0.3c0.467,0.167,0.851,0.267,1.15,0.3c0.533,0.066,1.2,0.017,2-0.15
							c0.934-0.233,1.6-0.35,2-0.35c0.399-0.033,0.899,0.017,1.5,0.15c0.7,0.167,1.184,0.25,1.45,0.25s0.716-0.066,1.35-0.2
							c0.566-0.1,1.017-0.134,1.35-0.1c0.233,0,0.7,0.117,1.4,0.35c0.566,0.167,1.033,0.2,1.4,0.1"/>
						
							<path style="fill-rule:evenodd;clip-rule:evenodd;fill:none;stroke:#470B17;stroke-width:0.5;stroke-linecap:round;stroke-linejoin:round;stroke-miterlimit:3;" d="
							M80.4,71.3c0.167,0,0.417-0.066,0.75-0.2c0.333-0.1,0.6-0.15,0.8-0.15c1,0,1.6-0.017,1.8-0.05
							c1.233-0.167,1.917-0.25,2.05-0.25c0.334,0.034,0.767,0.133,1.3,0.3c0.567,0.233,0.983,0.366,1.25,0.4
							c0.534,0.1,1.184,0,1.95-0.3c0.8-0.267,1.417-0.366,1.851-0.3c0.233,0.033,0.6,0.15,1.1,0.35c0.467,0.167,0.85,0.267,1.15,0.3
							c0.699,0.1,1.416,0,2.149-0.3c1.167-0.4,2.233-0.583,3.2-0.55c0.467,0.034,1.1,0.184,1.9,0.45c0.866,0.3,1.5,0.483,1.899,0.55
							c0.467,0.067,0.983,0.034,1.55-0.1c0.334-0.067,0.834-0.2,1.5-0.4c0.367-0.066,0.7-0.033,1,0.1
							c0.4,0.2,0.667,0.317,0.801,0.35c0.199,0.033,0.366,0.033,0.5,0c0.1-0.033,0.25-0.1,0.449-0.2c0.601-0.2,1.084-0.267,1.45-0.2
							c0.267,0.033,0.783,0.117,1.55,0.25c0.634,0.133,1.167,0.2,1.601,0.2"/>
					</g>
				</g>
			</g>
		</g>
		
			<use xlink:href="#FlashAICB_x2F_Layer_2_x2F__x3C_Group_x3E_"  width="119.2" height="66.434" y="-66.434" transform="matrix(1 0 0 -1 26.25 22.2002)" style="overflow:visible;opacity:0.6602;enable-background:new    ;"/>
		
			<use xlink:href="#FlashAICB_x2F_Layer_2_x2F__x3C_Path_x3E__x5F_0"  width="128.6" height="61.9" y="-61.9" transform="matrix(1 0 0 -1 21.5498 85.9502)" style="overflow:visible;opacity:0.25;enable-background:new    ;"/>
	</g>
</g>
</svg>
