<?xml version="1.0" encoding="iso-8859-1"?>
<!-- Generator: Adobe Illustrator 15.1.0, SVG Export Plug-In . SVG Version: 6.00 Build 0)  -->
<!DOCTYPE svg PUBLIC "-//W3C//DTD SVG 1.1//EN" "http://www.w3.org/Graphics/SVG/1.1/DTD/svg11.dtd">
<svg version="1.1" id="Layer_1" xmlns="http://www.w3.org/2000/svg" xmlns:xlink="http://www.w3.org/1999/xlink" x="0px" y="0px"
	 width="171.75px" height="171.75px" viewBox="0 0 171.75 171.75" style="enable-background:new 0 0 171.75 171.75;"
	 xml:space="preserve">
<symbol  id="FlashAICB_x2F_Layer_1_x2F__x3C_Clip_Group_0_x3E_" viewBox="0 -70.85 68.5 70.85">
	<g id="Layer_1_17_">
	</g>
	<g>
		<defs>
			<polygon id="SVGID_1_" points="64.1,-0.25 0,-4.55 4.4,-70.75 68.5,-66.5 			"/>
		</defs>
		<clipPath id="SVGID_2_">
			<use xlink:href="#SVGID_1_"  style="overflow:visible;"/>
		</clipPath>
		<g id="Layer_3_11_" style="clip-path:url(#SVGID_2_);">
			
				<use xlink:href="#FlashAICB_x2F_Layer_1_x2F__x3C_Clip_Group_0_x3E__x5F_5"  width="64.85" height="70.85" y="-70.85" transform="matrix(1 0 0 1 3 0)" style="overflow:visible;"/>
			
				<use xlink:href="#FlashAICB_x2F_Layer_1_x2F__x3C_Clip_Group_0_x3E__x5F_4"  width="12.95" height="16.8" y="-16.8" transform="matrix(1 0 0 1 26.8501 -49.3501)" style="overflow:visible;"/>
			
				<use xlink:href="#FlashAICB_x2F_Layer_1_x2F__x3C_Clip_Group_0_x3E__x5F_3"  width="15.6" height="18.55" y="-18.55" transform="matrix(1 0 0 1 45.5498 -47.25)" style="overflow:visible;"/>
			
				<use xlink:href="#FlashAICB_x2F_Layer_1_x2F__x3C_Clip_Group_0_x3E__x5F_2"  width="20.85" height="13.4" y="-13.4" transform="matrix(1 0 0 1 5.75 -36.6001)" style="overflow:visible;"/>
			
				<use xlink:href="#FlashAICB_x2F_Layer_1_x2F__x3C_Clip_Group_0_x3E__x5F_1"  width="10.3" height="10.85" y="-10.85" transform="matrix(1 0 0 1 40.7002 -30.1001)" style="overflow:visible;"/>
			
				<use xlink:href="#FlashAICB_x2F_Layer_1_x2F__x3C_Clip_Group_0_x3E__x5F_0"  width="40.8" height="19.9" y="-19.9" transform="matrix(1 0 0 1 22.4502 -14.4502)" style="overflow:visible;"/>
		</g>
	</g>
	<g id="Layer_4_11_">
	</g>
</symbol>
<symbol  id="FlashAICB_x2F_Layer_1_x2F__x3C_Clip_Group_0_x3E__x5F_0" viewBox="0 -19.9 40.8 19.9">
	<g id="Layer_1_16_">
	</g>
	<g>
		<defs>
			<polygon id="SVGID_3_" points="39.7,0 1.05,-2.6 2.15,-18.95 40.8,-16.4 			"/>
		</defs>
		<clipPath id="SVGID_4_">
			<use xlink:href="#SVGID_3_"  style="overflow:visible;"/>
		</clipPath>
		<g id="Layer_3_10_" style="clip-path:url(#SVGID_4_);">
			
				<use xlink:href="#FlashAICB_x2F_Layer_1_x2F__x3C_Clip_Group_0_x3E__x5F_3_x5F_0"  width="18.1" height="19.3" y="-19.3" transform="matrix(1 0 0 1 0 -0.6001)" style="overflow:visible;"/>
			
				<use xlink:href="#FlashAICB_x2F_Layer_1_x2F__x3C_Clip_Group_0_x3E__x5F_2_x5F_0"  width="13.95" height="15.25" y="-15.25" transform="matrix(1 0 0 1 26.8501 -2)" style="overflow:visible;"/>
			
				<use xlink:href="#FlashAICB_x2F_Layer_1_x2F__x3C_Clip_Group_0_x3E__x5F_1_x5F_0"  width="9.45" height="9.7" y="-9.7" transform="matrix(1 0 0 1 2.0498 -8)" style="overflow:visible;"/>
			
				<use xlink:href="#FlashAICB_x2F_Layer_1_x2F__x3C_Clip_Group_0_x3E__x5F_6"  width="8.55" height="8.8" y="-8.8" transform="matrix(1 0 0 1 26.25 -7.7002)" style="overflow:visible;"/>
		</g>
	</g>
	<g id="Layer_4_10_">
	</g>
</symbol>
<symbol  id="FlashAICB_x2F_Layer_1_x2F__x3C_Clip_Group_0_x3E__x5F_1" viewBox="0 -10.85 10.3 10.85">
	<g id="Layer_1_8_">
	</g>
	<g>
		<defs>
			<polygon id="SVGID_5_" points="9.65,0 0,-0.65 0.7,-10.85 10.3,-10.2 			"/>
		</defs>
		<clipPath id="SVGID_6_">
			<use xlink:href="#SVGID_5_"  style="overflow:visible;"/>
		</clipPath>
		<g id="Layer_3_5_" style="clip-path:url(#SVGID_6_);">
			<path style="fill-rule:evenodd;clip-rule:evenodd;fill:#AA1509;" d="M9.95-4.4C9.75-5.6,8.567-6.867,6.4-8.2
				C3.5-7.467,1.6-6.017,0.7-3.85L0.6-3.7L0.55-3.65c0.233,0.566,0.5,1.05,0.8,1.45L1.5-2c0.9,1.033,2,1.583,3.3,1.65
				c1.367,0.1,2.55-0.3,3.55-1.2C9.217-2.383,9.75-3.333,9.95-4.4z M8.75-8.15c-1.4-2.767-3.533-3.083-6.4-0.95
				c-1.567,1.233-2.233,2.817-2,4.75c1.233-2.633,3.316-4.233,6.25-4.8C7.933-8.35,9.017-7.3,9.85-6L8.75-8.15z"/>
		</g>
	</g>
	<g id="Layer_4_5_">
	</g>
</symbol>
<symbol  id="FlashAICB_x2F_Layer_1_x2F__x3C_Clip_Group_0_x3E__x5F_1_x5F_0" viewBox="0 -9.7 9.45 9.7">
	<g id="Layer_1_11_">
	</g>
	<g>
		<defs>
			<polygon id="SVGID_7_" points="8.85,0 0,-0.6 0.6,-9.7 9.45,-9.15 			"/>
		</defs>
		<clipPath id="SVGID_8_">
			<use xlink:href="#SVGID_7_"  style="overflow:visible;"/>
		</clipPath>
		<g id="Layer_3_8_" style="clip-path:url(#SVGID_8_);">
			<path style="fill-rule:evenodd;clip-rule:evenodd;" d="M1.8-2.55c-0.2-0.133-0.316-0.333-0.35-0.6
				c-0.4-1.067-0.167-1.883,0.7-2.45L2.1-5.65c1.066-1.167,2-1.15,2.8,0.05c0.8,1.2,0.9,2.167,0.3,2.9
				C4.567-1.967,3.833-1.667,3-1.8C2.7-1.8,2.3-2.05,1.8-2.55z M1.1-2.05c0.767,1,1.733,1.566,2.9,1.7L4.35-0.3
				C6.083-0.167,7.533-0.9,8.7-2.5c0.566-1.567,0.583-3.1,0.05-4.6l-0.5-0.7C7.55-8.667,6.567-9.2,5.3-9.4
				C4.133-9.533,3.1-9.233,2.2-8.5C1.233-7.767,0.617-6.75,0.35-5.45C0.15-4.183,0.4-3.05,1.1-2.05z"/>
			<path style="fill-rule:evenodd;clip-rule:evenodd;fill:#FFFFFF;" d="M5.2-2.7c0.6-0.733,0.5-1.7-0.3-2.9
				C4.1-6.8,3.167-6.817,2.1-5.65L2.15-5.6c-0.867,0.567-1.1,1.383-0.7,2.45C1.483-2.883,1.6-2.683,1.8-2.55C2.3-2.05,2.7-1.8,3-1.8
				C3.833-1.667,4.567-1.967,5.2-2.7z"/>
		</g>
	</g>
	<g id="Layer_4_8_">
	</g>
</symbol>
<symbol  id="FlashAICB_x2F_Layer_1_x2F__x3C_Clip_Group_0_x3E__x5F_2" viewBox="0 -13.4 20.85 13.4">
	<g id="Layer_1_7_">
	</g>
	<g>
		<defs>
			<polygon id="SVGID_9_" points="20.05,0 0,-1.35 0.8,-13.4 20.85,-12.05 			"/>
		</defs>
		<clipPath id="SVGID_10_">
			<use xlink:href="#SVGID_9_"  style="overflow:visible;"/>
		</clipPath>
		<g id="Layer_3_4_" style="clip-path:url(#SVGID_10_);">
			<path style="fill-rule:evenodd;clip-rule:evenodd;fill:#BF4213;" d="M13.45-0.8c1.4-0.333,2.833-0.967,4.3-1.9
				c1.533-0.966,2.417-1.966,2.65-3c0.2-1.066-0.133-1.966-1-2.7c-0.867-0.833-1.65-1.2-2.35-1.1c-0.133-1.7-1.083-2.55-2.85-2.55
				c-0.967,0.066-1.883,0.283-2.75,0.65h-0.1c-1.934-1.333-3.5-1.783-4.7-1.35c-1.3,0.567-2.117,1.317-2.45,2.25
				c-0.267,0.4-0.3,0.75-0.1,1.05c-1.867,0.034-3.033,0.267-3.5,0.7c-0.067,0.067-0.133,0.367-0.2,0.9c-0.1,1.333,0.633,2.7,2.2,4.1
				C3.567-2.85,4.833-2,6.4-1.2L6.8-1L6.3-1.35c-1.433-1.133-2.517-2.033-3.25-2.7C1.517-5.483,0.8-6.733,0.9-7.8
				c0-0.333,0.05-0.517,0.15-0.55c0.167-0.167,0.517-0.3,1.05-0.4L4.3-8.6c0.867,1.467,1.633,2.217,2.3,2.25
				c0.6,0,0.917-0.066,0.95-0.2C7.783-6.983,7.533-7.5,6.8-8.1C6.033-8.667,5.45-8.983,5.05-9.05c-0.267-0.5-0.4-0.934-0.4-1.3
				l0.1-0.1c1.433-1.6,3.133-1.917,5.1-0.95c0.267,0.1,0.517,0.233,0.75,0.4l-0.65,1L10-8.95l0.65,1c0.6,0.534,1.133,0.567,1.6,0.1
				c0.1-0.066,0.15-0.133,0.15-0.2l0.05-0.6c0-0.333-0.067-0.617-0.2-0.85c0-0.167-0.033-0.283-0.1-0.35L12-10.8
				c1.233-0.6,2.467-0.633,3.7-0.1c0.3,0.233,0.483,0.45,0.55,0.65l0.2,0.6l-0.7,0.05c-0.967,0-1.583,0.55-1.85,1.65
				c-0.2,0.434-0.1,0.733,0.3,0.9c0,0.1,0.117,0.15,0.35,0.15c0.367,0.033,0.867,0.033,1.5,0c0.367-0.033,0.733-0.283,1.1-0.75
				l0.4-0.9c0.5,0.1,0.934,0.55,1.3,1.35c0.333,0.633,0.483,1.2,0.45,1.7c-0.033,0.8-1.45,2.05-4.25,3.75L13.45-0.8z M11.85-8.45
				c-0.3,0.167-0.6,0.067-0.9-0.3c-0.3-0.367-0.434-0.65-0.4-0.85l0.1-0.35v-0.1c0.067-0.167,0.167-0.284,0.3-0.35
				c0.1-0.1,0.216-0.117,0.35-0.05h0.1l0.2,0.6c0,0.1,0.033,0.167,0.1,0.2l0.15,1.05V-8.45z M16.2-7.8
				c-0.4,0.333-0.817,0.383-1.25,0.15c-0.667-0.367-0.534-0.75,0.4-1.15l1.5,0.2C16.617-8.367,16.4-8.1,16.2-7.8z M5.2-8.45
				C5.6-8.417,5.95-8.267,6.25-8L7.1-7.05v0.15C6.867-6.967,6.567-7.15,6.2-7.45C5.733-7.717,5.433-7.933,5.3-8.1L5.2-8.45z"/>
			<path style="fill-rule:evenodd;clip-rule:evenodd;fill:#FAC81A;" d="M15.05-1.75c2.8-1.7,4.217-2.95,4.25-3.75
				c0.034-0.5-0.117-1.067-0.45-1.7c-0.367-0.8-0.8-1.25-1.3-1.35l-0.4,0.9c-0.367,0.467-0.733,0.717-1.1,0.75
				c-0.633,0.033-1.133,0.033-1.5,0c-0.233,0-0.35-0.05-0.35-0.15c-0.4-0.167-0.5-0.467-0.3-0.9c0.267-1.1,0.883-1.65,1.85-1.65
				l0.7-0.05l-0.2-0.6c-0.067-0.167-0.233-0.383-0.5-0.65c-1.267-0.533-2.517-0.5-3.75,0.1l0.15,0.95
				c0.067,0.067,0.1,0.184,0.1,0.35c0.133,0.233,0.2,0.517,0.2,0.85l-0.05,0.6c0,0.066-0.05,0.133-0.15,0.2
				c-0.467,0.467-1,0.434-1.6-0.1l-0.65-1L9.95-10l0.65-1c-0.233-0.167-0.483-0.3-0.75-0.4c-1.967-0.967-3.667-0.65-5.1,0.95
				l-0.1,0.1c0,0.367,0.133,0.8,0.4,1.3C5.45-8.983,6.033-8.667,6.8-8.1c0.733,0.6,0.983,1.117,0.75,1.55
				C7.517-6.417,7.2-6.35,6.6-6.35C5.933-6.383,5.167-7.133,4.3-8.6L2.1-8.75c-0.533,0.1-0.883,0.233-1.05,0.4
				C0.95-8.317,0.9-8.133,0.9-7.8C0.8-6.733,1.517-5.483,3.05-4.05c0.733,0.667,1.817,1.566,3.25,2.7L6.8-1L6.4-1.2l0.3,0.3
				l5.8,0.25l1.6-0.5L15.05-1.75z M11.85-8.45V-8.6L11.7-9.65c-0.067-0.033-0.1-0.1-0.1-0.2l-0.2-0.6h-0.1
				c-0.133-0.066-0.25-0.05-0.35,0.05c-0.167,0.066-0.25,0.183-0.25,0.35l-0.05,0.1l-0.1,0.35c-0.033,0.2,0.1,0.483,0.4,0.85
				C11.25-8.383,11.55-8.283,11.85-8.45z M16.85-8.6l-1.5-0.2c-0.934,0.4-1.067,0.783-0.4,1.15c0.433,0.233,0.85,0.183,1.25-0.15
				C16.4-8.1,16.617-8.367,16.85-8.6z M6.2-7.45c0.367,0.3,0.667,0.483,0.9,0.55v-0.15L6.25-8C5.95-8.267,5.6-8.417,5.2-8.45
				L5.3-8.1C5.433-7.933,5.733-7.717,6.2-7.45z"/>
		</g>
	</g>
	<g id="Layer_4_4_">
	</g>
</symbol>
<symbol  id="FlashAICB_x2F_Layer_1_x2F__x3C_Clip_Group_0_x3E__x5F_2_x5F_0" viewBox="0 -15.25 13.95 15.25">
	<g id="Layer_1_10_">
	</g>
	<g>
		<defs>
			<polygon id="SVGID_11_" points="13,0 0,-0.85 0.95,-15.25 13.95,-14.4 			"/>
		</defs>
		<clipPath id="SVGID_12_">
			<use xlink:href="#SVGID_11_"  style="overflow:visible;"/>
		</clipPath>
		<g id="Layer_3_7_" style="clip-path:url(#SVGID_12_);">
			<path style="fill-rule:evenodd;clip-rule:evenodd;" d="M2.25-2.7C3.417-1.3,4.867-0.55,6.6-0.45
				c1.767,0.133,3.316-0.417,4.65-1.65c1.3-1.2,2.033-2.783,2.2-4.75c0.1-1.933-0.417-3.583-1.55-4.95
				c-1.167-1.434-2.633-2.2-4.4-2.3s-3.3,0.467-4.6,1.7c-1.367,1.267-2.117,2.833-2.25,4.7C0.55-5.767,1.083-4.1,2.25-2.7z"/>
			<path style="fill-rule:evenodd;clip-rule:evenodd;fill:#FFFFFF;" d="M2.05-3.4C3.217-2,4.667-1.25,6.4-1.15
				c1.8,0.1,3.35-0.45,4.65-1.65c1.367-1.333,2.1-2.917,2.2-4.75c0.133-1.867-0.383-3.517-1.55-4.95
				c-1.133-1.433-2.583-2.2-4.35-2.3c-1.767-0.133-3.317,0.433-4.65,1.7c-1.367,1.267-2.1,2.833-2.2,4.7
				C0.367-6.567,0.883-4.9,2.05-3.4z"/>
		</g>
	</g>
	<g id="Layer_4_7_">
	</g>
</symbol>
<symbol  id="FlashAICB_x2F_Layer_1_x2F__x3C_Clip_Group_0_x3E__x5F_3" viewBox="0 -18.55 15.6 18.55">
	<g id="Layer_1_6_">
	</g>
	<g>
		<defs>
			<polygon id="SVGID_13_" points="3.9,0 0,-15.65 11.7,-18.55 15.6,-2.9 			"/>
		</defs>
		<clipPath id="SVGID_14_">
			<use xlink:href="#SVGID_13_"  style="overflow:visible;"/>
		</clipPath>
		<g id="Layer_3_3_" style="clip-path:url(#SVGID_14_);">
			<path style="fill-rule:evenodd;clip-rule:evenodd;fill:#AA1509;" d="M15.35-4.05c-4.067,0.1-7.167-0.784-9.3-2.65
				C5.55-7.133,5.133-7.717,4.8-8.45c1.833,1.3,3.817,1.717,5.95,1.25l0.05-0.05l-0.05-0.2L8.5-8.05
				c-1.667-0.5-2.917-1.034-3.75-1.6c-0.433-0.4-0.917-0.95-1.45-1.65c-0.066-0.067-0.15-0.417-0.25-1.05l0.1-0.95
				c0.067-0.534,0.067-0.934,0-1.2L3.1-14.6c0.033-0.3,0.033-0.566,0-0.8l-0.25-0.8L2.4-16.25l-0.3,0.2H2
				c-0.267,2.566-0.4,4.083-0.4,4.55c-0.033,0.267,0.017,0.917,0.15,1.95L1.5-9.65L1.75-9.5L2.1-7.95c0.4,1.6,1.117,3,2.15,4.2
				C5.583-2.217,7.2-1.4,9.1-1.3l0.05-0.2c-2-0.7-3.55-1.817-4.65-3.35C4-5.55,3.617-6.367,3.35-7.3C3.617-6.533,4.9-5.483,7.2-4.15
				c2.4,1.333,5.117,1.4,8.15,0.2V-4.05z"/>
		</g>
	</g>
	<g id="Layer_4_3_">
	</g>
</symbol>
<symbol  id="FlashAICB_x2F_Layer_1_x2F__x3C_Clip_Group_0_x3E__x5F_3_x5F_0" viewBox="0 -19.3 18.1 19.3">
	<g id="Layer_1_9_">
	</g>
	<g>
		<defs>
			<polygon id="SVGID_15_" points="14.45,0 0,-3.3 3.65,-19.3 18.1,-16 			"/>
		</defs>
		<clipPath id="SVGID_16_">
			<use xlink:href="#SVGID_15_"  style="overflow:visible;"/>
		</clipPath>
		<g id="Layer_3_6_" style="clip-path:url(#SVGID_16_);">
			<path style="fill-rule:evenodd;clip-rule:evenodd;" d="M12.6-2.75c1.733-1.133,2.85-2.783,3.35-4.95
				c0.466-2.167,0.167-4.1-0.9-5.8c-1-1.833-2.5-2.967-4.5-3.4c-1.966-0.467-3.8-0.1-5.5,1.1c-1.733,1.133-2.833,2.767-3.3,4.9
				C1.25-8.833,1.533-6.883,2.6-5.05C3.633-3.283,5.133-2.167,7.1-1.7C9.067-1.233,10.9-1.583,12.6-2.75z"/>
			<path style="fill-rule:evenodd;clip-rule:evenodd;fill:#FFFFFF;" d="M13.05-3.45c1.767-1.2,2.867-2.85,3.3-4.95
				c0.5-2.067,0.217-4.017-0.85-5.85c-1.033-1.767-2.533-2.883-4.5-3.35c-1.933-0.467-3.783-0.117-5.55,1.05
				c-1.733,1.233-2.817,2.867-3.25,4.9C1.7-9.55,1.967-7.583,3-5.75c1.033,1.8,2.55,2.917,4.55,3.35
				C9.517-1.933,11.35-2.283,13.05-3.45z"/>
		</g>
	</g>
	<g id="Layer_4_6_">
	</g>
</symbol>
<symbol  id="FlashAICB_x2F_Layer_1_x2F__x3C_Clip_Group_0_x3E__x5F_4" viewBox="0 -16.8 12.95 16.8">
	<g id="Layer_1_5_">
	</g>
	<g>
		<defs>
			<polygon id="SVGID_17_" points="0.9,0 0,-16.1 12.05,-16.8 12.95,-0.7 			"/>
		</defs>
		<clipPath id="SVGID_18_">
			<use xlink:href="#SVGID_17_"  style="overflow:visible;"/>
		</clipPath>
		<g id="Layer_3_2_" style="clip-path:url(#SVGID_18_);">
			<path style="fill-rule:evenodd;clip-rule:evenodd;fill:#AA1509;" d="M12.9-1.85C8.833-2.55,5.95-4,4.25-6.2
				C3.817-6.767,3.533-7.417,3.4-8.15C4.933-6.517,6.8-5.733,9-5.8l0.05-0.05v-0.2l-2.15-1c-1.533-0.8-2.65-1.567-3.35-2.3
				c-0.433-0.5-0.8-1.117-1.1-1.85L2.4-12.3l0.25-0.9c0.133-0.433,0.2-0.833,0.2-1.2v-0.1C2.95-14.767,3-15.033,3-15.3l-0.1-0.85
				l-0.4-0.1L2.15-16.1l-0.1-0.05l-1.25,4.4c-0.133,0.433-0.2,1.083-0.2,1.95L0.35-9.95l0.25,0.2l0.05,1.6
				c0.1,1.7,0.533,3.2,1.3,4.5C2.95-1.917,4.4-0.8,6.3-0.3l0.05-0.2C4.517-1.567,3.2-2.95,2.4-4.65
				c-0.333-0.867-0.55-1.733-0.65-2.6c0.167,0.833,1.233,2.1,3.2,3.8c2.133,1.767,4.767,2.333,7.9,1.7L12.9-1.85z"/>
		</g>
	</g>
	<g id="Layer_4_2_">
	</g>
</symbol>
<symbol  id="FlashAICB_x2F_Layer_1_x2F__x3C_Clip_Group_0_x3E__x5F_5" viewBox="0 -70.85 64.85 70.85">
	<g id="Layer_1_4_">
	</g>
	<g>
		<defs>
			<polygon id="SVGID_19_" points="3.25,-4.15 0,-70.85 61.65,-66.75 64.85,0 			"/>
		</defs>
		<clipPath id="SVGID_20_">
			<use xlink:href="#SVGID_19_"  style="overflow:visible;"/>
		</clipPath>
		<g id="Layer_3_1_" style="clip-path:url(#SVGID_20_);">
			<path style="fill-rule:evenodd;clip-rule:evenodd;fill:#FAC81A;" d="M62.4-20.55c-0.3,0.233-1.083,0.65-2.35,1.25l1-2.5
				c0.3,0,0.45,0.033,0.45,0.1c-0.033,0.034,0,0.083,0.1,0.15l0.05-0.4c-0.033-0.066-0.15-0.133-0.35-0.2l-0.15,0.05
				c0.3-0.9,0.45-1.467,0.45-1.7l-0.3-1.65c0.5-0.466,0.75-0.8,0.75-1v-0.05c0.333-0.367,0.5-0.817,0.5-1.35l-0.1-0.45l-0.1-0.05
				l-0.2,0.75c-0.033,0.2-0.117,0.434-0.25,0.7l-0.1-0.15l0.3-1.05c0.133-0.533,0.2-1.066,0.2-1.6l0.45-0.7l-0.35-0.05l0.05-0.05
				l0.1-0.4c0-0.2-0.133-0.467-0.4-0.8l-0.25-0.25l0.4-0.4c0.167-0.233,0.333-0.633,0.5-1.2c0.233-0.6,0.367-0.917,0.4-0.95
				l-1.4,1.85l-0.25-1.85l0.3-0.65c0.7-0.4,1.05-0.733,1.05-1l-0.05-0.25l-0.1-0.1c-0.133,0.167-0.417,0.417-0.85,0.75l-0.1-0.35
				v-0.1l0.05-0.15l-0.4-0.15H61.3l-0.75-0.3l-0.1-0.05l0.35-0.75c0.333,0.033,0.55,0.133,0.65,0.3c0.033,0.1,0.033,0.216,0,0.35
				v0.45h0.05l0.15-0.5c0-0.267-0.1-0.5-0.3-0.7c0.267-0.066,0.467-0.167,0.6-0.3s0.2-0.25,0.2-0.35c0-0.066-0.117-0.367-0.35-0.9
				v0.75l-0.1,0.4l-0.6-0.15l0.45-1.15l-0.05-0.1c-0.133,0.133-0.35,0.5-0.65,1.1l-0.15-0.15l0.1-0.3l-0.2-0.25l-0.05-0.05l0.4-0.2
				l0.3-0.45l0.4,0.2l-0.2-0.55c0-0.167,0.033-0.3,0.1-0.4l0.1-0.35v-0.3c-0.033-0.2-0.183-0.3-0.45-0.3
				c-0.434-0.033-0.833,0.067-1.2,0.3l0.4-0.85l0.25-0.4l0.05-0.05l0.1-0.4l-0.05-0.15v-0.55c0-0.4-0.083-0.767-0.25-1.1l-0.05-0.05
				l0.95-1.3c-0.4,0.233-0.783,0.55-1.15,0.95c-0.3-0.367-0.75-0.583-1.35-0.65l-0.35,0.1v-0.3l0.05-0.15v-0.25l0.4,0.1h1.25
				l0.15-0.1l0.05-0.3c0-0.133-0.534-0.783-1.6-1.95l-0.1-0.1c-0.067-0.767-0.133-1.283-0.2-1.55l-0.25-0.1l0.1,1.3l-1.1-1
				c-0.1-0.233-0.216-0.367-0.35-0.4L56.9-50.4l0.05,0.15L56.6-50.4c0.066-0.267,0.083-0.417,0.05-0.45c0-0.367-0.1-0.6-0.3-0.7
				l-0.1-1.4c0.4-0.6,0.767-0.983,1.1-1.15l0.05-0.05h-0.1c0-0.033-0.066-0.05-0.2-0.05c-0.533-0.033-1.017,0.267-1.45,0.9l-0.2-0.7
				l-0.25-0.45c0-0.566-0.8-1.767-2.4-3.6l-0.1-0.1l2.45-1.75v-0.05c-0.333,0.133-1.183,0.684-2.55,1.65l-0.85-1L53.3-60v-0.1
				c0-0.066-0.083-0.1-0.25-0.1c-0.533,0-1.083,0.167-1.65,0.5l-0.95-1.25l-0.05-0.4c-0.066-0.2-0.233-0.333-0.5-0.4l-1.1-0.15
				l-0.1-0.75l0.05-0.05l-0.05-0.15v-0.05l-0.35-0.4l-0.2,0.5H46.7l0.9-1.8l-0.15-0.15c-0.4,0.2-0.75,0.5-1.05,0.9l-0.45-0.3
				l0.85-0.4l0.05-0.15l-0.2-0.1l-0.7-0.1c-0.633-0.067-1.233,0.117-1.8,0.55l-0.05-0.6c-0.033-0.267-0.15-0.517-0.35-0.75
				l-0.1,0.05c-0.033,0.033-0.033,0.083,0,0.15L43.7-65l-0.3-0.1l-1.1-0.85l0.05-0.55l0.7-0.25L42.7-66.8h-0.5v0.05l-0.65,0.25
				l-0.2-0.15l0.4-0.05c-0.167-0.066-0.333-0.066-0.5,0l-0.4-0.25c-0.533-0.066-0.983-0.033-1.35,0.1c-0.3,0.2-0.55,0.3-0.75,0.3
				l-1.85-0.1l0.1-0.5l-0.2-0.1c-0.167,0-0.25,0.133-0.25,0.4v0.15c-0.1-0.167-0.216-0.267-0.35-0.3l-1.75-0.2
				c0.033,0,0.033-0.017,0-0.05v-0.45l-0.1-0.15h-0.2L34-67.2c-0.433-0.066-0.833-0.017-1.2,0.15c-0.333,0.1-0.633,0.283-0.9,0.55
				l-0.05-0.3c1.167-0.7,1.967-1.117,2.4-1.25c-0.867-0.067-1.683,0.1-2.45,0.5c-0.1-0.4-0.333-0.633-0.7-0.7l-1.2,0.35l-0.3-0.15
				l-0.3-0.2c-0.566,0-0.9,0.033-1,0.1h-0.05c-0.1-0.1-0.217-0.15-0.35-0.15c-0.167,0-0.283,0.033-0.35,0.1H27.5
				c-0.2,0-0.383,0.05-0.55,0.15l-0.45,0.3v0.25l-0.05,0.05v0.1l-0.4,0.2c0-0.1-0.066-0.283-0.2-0.55
				c-0.2-0.367-0.417-0.617-0.65-0.75v0.1l0.45,0.8l-0.8-0.7l-0.3,0.05l0.05,0.75l-0.25-0.2L23.9-68.1l0.4-0.3l1.1-0.6l-0.15-0.1
				c-0.133-0.066-0.333-0.1-0.6-0.1c-0.933-0.1-1.5,0.083-1.7,0.55l-0.1,0.1l0.1,0.15L23-68.05h-0.15l-0.4,0.3l-0.6-0.45l0.1-0.15
				l0.6-0.45l0.1-0.05c0-0.066-0.167-0.117-0.5-0.15c-0.3,0-0.55,0.05-0.75,0.15l-0.55-0.05h-0.3c-0.167-0.033-0.367-0.017-0.6,0.05
				l0.05-0.1c-0.867-0.3-1.4-0.233-1.6,0.2l-0.05,0.25l-0.1-0.05L18.2-68.6c-1.034-0.433-1.633-0.7-1.8-0.8
				c-0.033-0.1-0.05-0.05-0.05,0.15s0.2,0.4,0.6,0.6l-0.5,0.1l-0.15-0.1l-0.05,0.05l-0.05,0.1l-0.35,0.15
				c-0.6-0.2-1.017-0.3-1.25-0.3h-0.3l-0.15,0.1l0.4,0.35l0.05-0.05l0.95,0.15l-0.15,0.15l-0.1,0.2l-2.75-0.65H12.3l-0.05,0.25
				l0.1,0.2c-0.5,0.1-1.184,0.333-2.05,0.7l-2.25,0.9c-1.167,0.1-1.983,0.434-2.45,1c-0.233,0.367-0.333,0.85-0.3,1.45l0.1,0.45
				l-0.5,0.1l-0.05,0.1l0.05,0.9l-0.4,0.2l-0.15-0.1l-0.25,0.3c-0.367-0.367-0.85-0.583-1.45-0.65L2-62.55v0.1
				c0.633,0.2,1.15,0.417,1.55,0.65H3.5l-1-0.05c-0.2,0.033-0.3,0.067-0.3,0.1c0.267,0.3,0.55,0.45,0.85,0.45l-0.3,0.2L2.55-61
				l-0.7-0.25h-0.1l-0.05,0.1c0,0.1,0.15,0.25,0.45,0.45C1.117-60,0.6-59.417,0.6-58.95c0,0.434,0.1,0.733,0.3,0.9
				c0.267,0.233,1,0.5,2.2,0.8v0.45l-0.65-0.35H2.4L2.25-57.2l-0.9-0.5l-0.2-0.15c-0.2-0.066-0.267,0.067-0.2,0.4
				c0,0.3,0.733,0.8,2.2,1.5l0.05,0.1c0,0.2,0.05,0.4,0.15,0.6c-0.3-0.1-0.583-0.15-0.85-0.15l-0.35-0.7l-0.1,0.05l0.2,0.65H1.6
				l-0.25,0.05L1.3-55.1l0.4,0.25c0.066,0.2,0.15,0.383,0.25,0.55L1.9-53.6c0.067,1.3,0.434,2.467,1.1,3.5l0.15,0.3L2.5-50.25
				c-0.1-0.1-0.15-0.067-0.15,0.1c0.087,0.174,0.329,0.407,0.725,0.7C3.025-49.401,3-49.234,3-48.95c0.067,0.3,0.117,0.45,0.15,0.45
				l0.25-0.05l0.55,0.1L4-48.15l-0.15,0.5l-0.1,0.2l-0.3-0.1v-0.15h0.3L3.7-47.75H3.25v0.2c0,0.1,0.133,0.2,0.4,0.3v0.05l0.5,1.4
				l-0.4,0.95c0.033,0.833,0.217,1.767,0.55,2.8l1,2.35c0.233,0.5,0.517,1.217,0.85,2.15L4.85-38L4.8-37.9l1.55,0.95L6.4-36.7H6.35
				l0.1,0.1c0.233,0.9,0.367,1.684,0.4,2.35l-0.1-0.2l-0.1,0.05L6.6-34.2c0,0.133,0.1,0.3,0.3,0.5v1.4l0.05,0.15
				c0.066,0.3,0.333,0.833,0.8,1.6L7.2-30.7c-0.034-0.033-0.05,0-0.05,0.1c0.067,0.167,0.367,0.367,0.9,0.6
				c0.3,0.4,0.583,0.717,0.85,0.95c-0.267,0.033-0.45,0.1-0.55,0.2c-0.1,0.133-0.15,0.267-0.15,0.4H8.15L8.2-28.4h0.05l1.25,0.7
				l-0.75-0.15c-0.1-0.066-0.217-0.066-0.35,0L8.25-27.8c-0.033,0.1-0.033,0.25,0,0.45c0,0.3,0.183,0.583,0.55,0.85
				c0.467,0.233,1.233,0.45,2.3,0.65c0.133,0.033,0.233,0.117,0.3,0.25l-0.1,0.4l-0.65-0.55c-0.033-0.033-0.05,0.017-0.05,0.15
				l0.1,0.2h-0.65c-0.066,0-0.066,0.083,0,0.25c0,0.533,0.467,0.917,1.4,1.15l-0.05,0.05c-0.066,0.067-0.1,0.15-0.1,0.25l0.1,0.15
				l0.05,0.35l-0.05,0.05l0.1,0.05c0.1,0.233,0.25,0.45,0.45,0.65c0.3,0.233,0.633,0.434,1,0.6c0,0.267,0.066,0.5,0.2,0.7l0.2,0.15
				l-0.2,0.15L13.1-20.8l-0.35-0.15c-0.4-0.033-0.683-0.017-0.85,0.05c0.267,0.367,0.733,0.7,1.4,1l0.3,0.35
				c0.4,0.267,0.8,0.383,1.2,0.35l0.1,0.2c-0.133-0.033-0.433-0.05-0.9-0.05c-0.467-0.034-0.8-0.034-1,0
				c-0.033-0.067-0.05,0-0.05,0.2l0.2,0.15l1.3,0.2l-0.05,0.15l-0.1,0.05C14.1-18.167,14-18,14-17.8c0.067,0.6,0.283,1,0.65,1.2
				c0.267,0.133,0.667,0.283,1.2,0.45c0,0.133,0.083,0.25,0.25,0.35c0.066,0.3,0.283,0.716,0.65,1.25l-0.1,0.1
				c-0.167,0.233-0.25,0.467-0.25,0.7v0.55h0.2l0.6-0.85l0.2,0.2c0.2,0.233,0.6,0.583,1.2,1.05l-0.35,0.35
				c0.133,0.034,0.217,0.1,0.25,0.2l0.55-0.25l0.2,0.2l-0.8,0.6l-0.1,0.15l0.25,0.1l0.65-0.4l0.35-0.05l0.3,0.3l0.05,0.1
				c-0.3,0.033-0.45,0.2-0.45,0.5c0.067,0.433,0.083,0.717,0.05,0.85c0,0.033,0.05,0.05,0.15,0.05v-0.75c0-0.267,0.1-0.467,0.3-0.6
				l0.9,0.8L20.7-9.7l0.15,1.3h0.05l0.15-1.75l0.05-0.3L21.6-10h0.05l0.6,0.5v0.1c0,0.1,0.133,0.316,0.4,0.65
				c0.133,0.2,0.367,0.433,0.7,0.7c-0.133,0.133-0.2,0.267-0.2,0.4l0.2,1.3h0.25c0.167-0.533,0.55-1.066,1.15-1.6l0.9,0.45L25.4-7
				c-0.333,0.667-0.5,1.15-0.5,1.45L25-5.2h0.05c0.167-0.833,0.434-1.5,0.8-2l0.05,0.7l-0.05,0.3l0.05,0.05v0.3h0.25l0.05-0.3
				L26.7-7l0.85,0.3l-0.1,0.15C27.083-6.017,26.9-5.6,26.9-5.3L27-4.95c0.067,0.2,0.133,0.3,0.2,0.3c0.033-0.033,0.033-0.05,0-0.05
				l-0.05-0.2c0-0.233,0.2-0.717,0.6-1.45L27.9-6.6l0.6,0.2l-0.15,0.35c0.233,0.167,0.7,0.283,1.4,0.35l0.2-0.25V-6l0.3,0.1
				l-1.2,2.4l0.1,0.25c0.7,0.133,1.217-0.183,1.55-0.95c0.2-0.5,0.316-0.983,0.35-1.45v-0.1l1.1,0.15v0.1
				c-0.2,0.5-0.3,0.883-0.3,1.15l0.05,0.5c0.033,0.167,0.117,0.317,0.25,0.45c-0.1-0.7-0.033-1.417,0.2-2.15h0.2l0.2,3.3l0.45,0.1
				c0.133,0,0.183-0.167,0.15-0.5L33-5.45l1.25,0.1l0.15,0.8h0.05c0.066-0.233,0.05-0.5-0.05-0.8l0.7,0.05l0.3,1.2
				c0.4,1,1.083,1.733,2.05,2.2c-0.567-0.467-1.083-1.283-1.55-2.45L35.55-5.3h0.7l3.1,2.45c-0.1-0.133-0.717-0.667-1.85-1.6
				L36.6-5.3h0.65l2.3,2.05l-0.1-0.25c0.433,0.3,0.816,0.467,1.15,0.5c-0.967-0.733-1.9-1.5-2.8-2.3
				c0.167-0.034,0.434-0.05,0.8-0.05l1.1,0.55c1.3,0.566,2.383,0.85,3.25,0.85c-0.633-0.133-1.517-0.466-2.65-1
				c-0.5-0.233-0.8-0.4-0.9-0.5l1.15-0.1l0.9,0.75c0.7,0.4,1.35,0.65,1.95,0.75l-2-1.1L40.8-5.6l2.1-0.35l1.45,1
				c1.1,0.633,2.367,1.034,3.8,1.2C47.083-3.983,45.9-4.467,44.6-5.2l-1.25-0.75c1,0.1,1.867,0.1,2.6,0l-2.25-0.2l1.95-0.6l0.6,0.2
				c0.5,0.2,1.05,0.35,1.65,0.45l1.6,0.4c-0.133-0.133-0.767-0.417-1.9-0.85L46.5-7.1l1.15-0.5l1,0.25c1.233,0.267,2.3,0.3,3.2,0.1
				c-1.167-0.1-2.4-0.3-3.7-0.6L48.4-8l1.95,0.05c0.733-0.066,1.117-0.133,1.15-0.2c-0.133-0.1-0.883-0.2-2.25-0.3l1.5-1.05l0.8-0.1
				c1.233-0.2,2.1-0.566,2.6-1.1l-0.1-0.15L53.2-10.6l-1.3,0.15l0.35-0.35c0.3,0.167,0.733,0.15,1.3-0.05
				c0.4-0.033,0.7-0.217,0.9-0.55c0.167-0.3,0.216-0.517,0.15-0.65c0.733-0.133,1.25-0.467,1.55-1L57-13.3l0.2-0.5l-0.55,0.05
				c0.267-0.2,0.567-0.35,0.9-0.45c0.667-0.2,1.05-0.6,1.15-1.2c0.1-0.733,0.2-1.15,0.3-1.25c0.733-0.733,1.133-1.2,1.2-1.4
				l-0.15-0.8c1.367-0.667,2.167-1.217,2.4-1.65L62.4-20.55z M61-22.45l-0.65-0.45l0.45-0.45l0.1-0.15v-0.4l0.3-0.3l-0.05,1.05
				C61.15-22.883,61.1-22.65,61-22.45z M61.15-24.45l-0.2,0.2v-0.05L60.2-24v-0.25l0.9-0.35L61.15-24.45z M53.6-11.2
				c-0.333,0.233-0.7,0.3-1.1,0.2l0.7-0.7l1.1-0.2C54.2-11.633,53.967-11.4,53.6-11.2z M57.6-14.8l0.3-0.7v-0.05l-0.25-0.2h-0.5
				v-0.15H57.1L56.3-16l0.7-0.5l0.25,0.1c0.2,0.2,0.583,0.25,1.15,0.15l0.05,0.1l0.05,0.25c0,0.333-0.1,0.633-0.3,0.9
				c-0.2,0.333-0.534,0.533-1,0.6L57.6-14.8z M55.8-13.6h-0.15l-0.15-0.1l0.2-0.05L55.8-13.6z M58.05-16.85l0.25,0.2
				c-0.066,0.066-0.216,0.083-0.45,0.05c-0.267,0-0.4-0.033-0.4-0.1L58.05-16.85z M58.45-16.95L58.2-17.1l0.7,0.05l-0.3,0.25
				L58.45-16.95z M59.1-18.3l-0.55,0.2l0.3-0.25l0.1-0.05l0.15,0.05l0.3,0.25l0.05,0.1c-0.133,0.133-0.317,0.2-0.55,0.2L59.1-18.3z
				 M59.5-18.55v-0.05l0.25-0.15v0.45L59.5-18.55z M55.4-12.65c-0.233,0.267-0.533,0.333-0.9,0.2l-0.35-0.2l0.75-0.15L55.4-12.65z
				 M59.6-19.9l0.05-0.1l0.45-0.4l0.25-0.55l-0.1,0.6c-0.1,0.434-0.283,0.7-0.55,0.8l0.1-0.25l-0.15,0.1L59.6-19.9z M58.35-19.1
				l-0.6-0.15l0.1-0.25h0.3l0.05,0.05l0.05,0.25l0.1,0.05V-19.1z M59.4-21.05l0.35-0.25v-0.05H60v0.05l-0.55,0.35L59.4-21.05z
				 M60.2-24.7l0.4-0.25h0.2l-0.1,0.1c-0.267,0.2-0.434,0.3-0.5,0.3l-0.05-0.1L60.2-24.7z M60.6-25.85l-0.7,0.3l-0.05-0.05l0.45-0.5
				L60.6-25.85z M59.95-25.45l0.8-0.2h0.05l-0.55,0.4L60-25.2L59.95-25.45z M60.2-33.15v0.8l-0.2,0.2V-33L60.2-33.15z M60.45-32.6
				l0.05-0.6l0.1-0.05l0.8,0.1l0.05,0.85H61.4l-0.15-0.1H61.1L61-32.55h-0.1v0.1l-0.05,0.05H60.5L60.45-32.6z M60-37.1
				c0-0.133,0.067-0.3,0.2-0.5L60.1-37L60-37.1z M60.1-35.9v-0.05l0.2-0.3l0.35,0.15l-0.5,0.4L60.1-35.9z M60.65-38h-0.1v-0.05
				l-0.1-0.05l0.05-0.05l0.1-0.25l0.15,0.2l-0.05,0.05L60.65-38z M59.3-38.9h-0.05l-0.1-0.5h0.15V-38.9z M60.2-40.05l0.75,0.1
				c-0.3,0.3-0.617,0.367-0.95,0.2C60.067-39.783,60.133-39.883,60.2-40.05z M60.6-41.15l0.6,0.05c0.066-0.133,0.1-0.066,0.1,0.2
				c0.067,0.2,0.017,0.35-0.15,0.45c-0.2,0.133-0.5,0.184-0.9,0.15l-0.05-0.05l-0.1-0.4C60.2-40.917,60.367-41.05,60.6-41.15z
				 M59.65-43.6l0.05-0.05h0.25l0.25,0.2l-0.45-0.1L59.65-43.6z M59.6-44.2l-0.1,0.25l-0.25,0.25l-0.3-0.15l0.15-0.4L59-44.7
				c-0.067-0.167-0.217-0.25-0.45-0.25l0.1-0.2c0.267,0.1,0.633,0.35,1.1,0.75L59.6-44.2z M59.95-44.7l-0.2-0.1l-0.25-0.25v-0.05
				l0.5,0.35L59.95-44.7z M59.95-44l0.1-0.15L60.2-44H59.95z M58-47.7l-0.35-0.2l-0.15,0.15v-0.65l0.1,0.1
				c0.267,0.233,0.417,0.433,0.45,0.6H58z M56.6-47.35l-0.3-0.75l0.15,0.05l0.5,0.7H56.6z M56.85-48.1L57-48.15l0.2-0.1l-0.05,0.45
				L56.9-48L56.85-48.1z M55.95-48.85l-0.5-1.1v-0.75l0.6-0.25l0.05,0.7l-0.2,0.4l-0.05,0.6l0.1,0.3V-48.85z M57.6-49.05l-0.05-0.45
				l-0.1-0.15l1,1v0.7c-0.267-0.167-0.483-0.35-0.65-0.55l-0.25-0.25L57.6-49.05z M60.1-46.6l-0.85-0.05l0.15-0.5L60-46.9L60.1-46.6
				z M58.9-47.05l-0.1-0.2v-0.15l0.2,0.05v0.15L58.9-47V-47.05z M61.6-26.55l-0.35,0.3c-0.133,0-0.2-0.017-0.2-0.05l-0.1-0.3
				l0.6-0.1L61.6-26.55z M60.9-27.05l-0.05-0.1l0.3-0.25l0.15,0.2l-0.05,0.15H60.9z M61.3-27.65l-0.2-0.3l1-1.4v0.05l-0.25,0.9
				c-0.2,0.433-0.3,0.75-0.3,0.95L61.3-27.65z M61.5-30.45l0.1,0.15c-0.267,0.1-0.5,0.233-0.7,0.4h-0.05
				C61.117-30.167,61.333-30.35,61.5-30.45z M60.75-33.6l0.5-0.5v0.5H60.75z M23.4-8.1l-0.8-1.1l0.05-0.05l1.2,0.8L23.4-8.1z
				 M26.1-7L26-7.35l0.2,0.1L26.1-7z M14.85-17.45h-0.2l0.1-0.2l0.05,0.05L14.85-17.45z M10.4-25l0.95,0.2l0.15,0.6l-1.05-0.55
				l-0.05-0.2V-25z M10.6-26.4l-0.8-0.2c-0.667-0.2-1.05-0.383-1.15-0.55l-0.05-0.2v-0.1c0.533,0.067,1,0.233,1.4,0.5l0.3,0.2
				L10.6-26.4z M8.2-30.6c-0.133-0.4-0.184-0.7-0.15-0.9L8-31.55c0.133,0.033,0.467,0.167,1,0.4l1,0.2l0.2,0.2l-1-0.2
				C8.9-31.017,8.7-31,8.6-30.9c0.066,0.066,0.4,0.183,1,0.35h0.1l-0.4,0.4L9-30.2H8.75l-0.4-0.15L8.2-30.6z M9.1-32.3l-0.25-0.25
				h0.2l0.1,0.2L9.1-32.3z M9.05-31.65L9.2-31.8l0.1,0.15l0.3,0.25H9.4L9.05-31.65z M8.6-32.05l-0.15-0.2L8.6-32.4l0.2,0.25
				C8.767-32.083,8.7-32.05,8.6-32.05z M7.75-32.3c-0.133-0.1-0.25-0.3-0.35-0.6l-0.15-0.55L7.5-33.3v0.05l0.35,0.85L7.75-32.3z
				 M8.4-33.15l-0.3-0.5L8.05-33.6L8-33.4v0.1l-0.15-0.1l-0.1-0.3L7.7-33.8c0.4,0,0.733,0.083,1,0.25l0.15,0.15L8.9-33H8.8
				L8.4-33.15z M6.85-35.95L7.8-35.1H7.4c-0.233,0-0.4-0.217-0.5-0.65L6.85-35.95z M7-36.55L6.8-36.5H6.75v-0.2L7-36.55z
				 M8.95-35.25L8.6-35.6l-0.35-0.55L9.2-35.4L8.95-35.25z M7.75-34.8l0.35-0.05l0.2,0.2c0,0.133,0.05,0.283,0.15,0.45L8-34.3
				c-0.067-0.167-0.183-0.267-0.35-0.3L7.75-34.8z M5.85-39.05c-0.333-0.467-0.533-0.967-0.6-1.5h0.3C5.75-40.317,5.9-40.133,6-40
				l-0.15,0.2V-39.05z M5.3-41.45v0.4L5.25-41.1L5.2-41.4L5.3-41.45z M6-42.7l0.1,0.15H5.45v0.35l-0.7-0.75
				c0.1,0.367,0.267,0.733,0.5,1.1l-0.5,0.15L4.6-41.85L4.55-42L4.5-43l1.2,0.05L6-42.7z M5.05-45.45c0.1,0.2,0.35,0.5,0.75,0.9
				l-0.35,0.3L5.4-44.2H5.3l-0.65-1.3L5.05-45.45z M4.3-44.3l-0.15-0.55l0.05-0.5l0.25-0.15c0.066,0.467,0.233,0.917,0.5,1.35
				l-0.4,0.3L4.3-44.3z M4.95-46.7c0,0.133,0.183,0.417,0.55,0.85L4.5-46l-0.35-0.7l-0.1-0.4l0.35,0.15l0.55,0.15V-46.7z M4.95-47
				l-0.7-0.3L5-47.15L4.95-47z M4.35-47.85l0.25,0.1l0.05,0.1l-0.6,0.1L4.1-47.6C4.2-47.767,4.283-47.85,4.35-47.85z M3.95-49.25
				L3.9-49.3v-0.15h0.7v0.2H3.95z M5.65-45.25L5.7-45.3l0.05,0.2L5.5-45.3L5.65-45.25z M5.5-43.35L4.7-43.4
				c0.233-0.233,0.4-0.35,0.5-0.35L5.5-43.35z M28.35-66.8l-0.95-0.1l0.7-0.5h0.05c0.1,0.1,0.15,0.233,0.15,0.4L28.35-66.8z
				 M28.6-67.65l0.35-0.15c0.439,0.039,0.756,0.156,0.95,0.35h-0.05l-0.35,0.3l0.15,0.5l-0.8-0.1v-0.05c0-0.267-0.067-0.534-0.2-0.8
				L28.6-67.65z M21.9-67.2l-0.1-0.45v-0.15l0.65,0.6H21.9z M20.6-67.85l0.5-0.45l0.05,0.05l0.05,0.85l-0.45-0.15L20.6-67.85z
				 M23.8-67.55l0.3,0.4h-0.2L23.8-67.55z M22.85-67.7H23l0.1,0.5H23l-0.15-0.4V-67.7z M24.9-67.75c0.333,0.167,0.6,0.4,0.8,0.7
				l-0.6-0.05l-0.15-0.1l-0.05-0.45V-67.75z M39.85-64.45c0.133-0.033,0.417-0.233,0.85-0.6l0.7-0.75l0.55,0.15L41.9-65.3l-0.8,0.4
				h-0.05l0.1-0.1c-0.633,0.133-1,0.317-1.1,0.55v0.1L39.85-64.45z M38.8-64.95l0.35-0.15l0.05,0.45l-0.45-0.15L38.8-64.95z
				 M37.5-65.2l-0.4-0.1l-0.2-0.8l1.2,0.1c-0.367,0.167-0.567,0.383-0.6,0.65V-65.2z M35.8-65.65l0.25-0.15l0.4-0.3h0.15l0.1,0.7
				L35.8-65.65z M40.1-65.5l0.6-0.3h0.1l-0.55,0.65c-0.233,0.167-0.433,0.25-0.6,0.25c0-0.1,0.083-0.267,0.25-0.5
				c0.167,0.1,0.3,0.15,0.4,0.15C40.333-65.283,40.267-65.367,40.1-65.5z M30.55-67.55h-0.4c0.033-0.1,0.267-0.2,0.7-0.3
				c0.333,0.067,0.55,0.217,0.65,0.45L30.55-67.55z M32.75-66.45c0.5-0.2,0.817-0.283,0.95-0.25c-0.267,0.1-0.434,0.233-0.5,0.4
				v0.15h-0.05l-0.8-0.1L32.75-66.45z M35.15-65.8l-0.45-0.1l0.1-0.3l0.4-0.35l0.65,0.05c-0.133,0-0.383,0.1-0.75,0.3L35.15-65.8z
				 M5.45-49.8l0.25,0.35L5.3-49.5H5.25l0.15-0.15L5.45-49.8z M3.8-50.95c-0.2-0.2-0.333-0.367-0.4-0.5l0.35,0.05l0.55,0.15v0.35
				L3.8-50.95z M3.9-50.45l0.2,0.1l0.45,0.45l-0.8-0.05l0.05-0.3L3.9-50.45z M3.35-50.3c-0.233-0.133-0.434-0.4-0.6-0.8l-0.2-0.75
				l0.1,0.05c0.2,0.333,0.517,0.7,0.95,1.1l-0.05,0.1L3.35-50.3z M3.75-52.5l0.1,0.15L3.8-52.3l-1.1-0.2l-0.05-0.05L3.75-52.5z
				 M2.45-52.95l-0.1-0.15c0.1-0.1,0.217-0.15,0.35-0.15l0.2-0.05l0.2,0.2v0.15L2.5-52.9L2.45-52.95z M2.3-53.55
				c-0.033-0.133-0.033-0.25,0-0.35l0.3,0.3l-0.3,0.15V-53.55z M4.15-52.85C4.083-52.983,3.933-53.1,3.7-53.2l-0.1-0.1l0.5,0.05
				L4.2-53L4.15-52.85z M3.15-54l0.5,0.3h-0.4L3.15-54z M3.15-58.75L3.3-58.9l-0.1,0.45L3.15-58.75z M1-58.55l-0.05-0.9l0.1-0.05
				L1-59l0.25,0.4v0.1h-0.1L1-58.55z M1.85-57.8l-0.1-0.15l-0.05-0.1l0.2-0.05l0.2,0.15l0.4,0.2L1.85-57.8z M1.65-59.3
				c0.033-0.267,0.217-0.483,0.55-0.65l0.5,0.9l-0.25,0.2L1.65-59.3z M3.05-60.9l0.75-0.25L3.75-60.4l-0.4-0.4L3.05-60.9z
				 M4.95-61.65L4.8-61.7v-0.05l0.1-0.05L4.95-61.65z M9.5-64.85l-0.55-0.4l-0.1-0.25l0.35,0.05h0.05
				c0.033,0.167,0.167,0.333,0.4,0.5L9.5-64.85z M8.75-64.5l-1.2-1.25L7.9-65.9L8.05-66L8-65.45c0,0.167,0.117,0.3,0.35,0.4l0.7,0.4
				L8.75-64.5z M7-63.35L6.9-63.3l-0.2,0.05l-0.35-0.8l0.15-0.1l0.45,0.1L7-63.4V-63.35z M6.2-63.35L5.75-63.4
				c0.067-0.167,0.183-0.317,0.35-0.45l0.225,0.575L6.2-63.35z M6.15-64.8c-0.033-0.167,0-0.284,0.1-0.35l0.3-0.05
				c0,0.1,0.1,0.317,0.3,0.65L6.9-64.5c-0.333,0-0.566,0.033-0.7,0.1L6.15-64.8z M5.65-64.15L5.8-64.7l0.15,0.4L5.65-64.15z
				 M7.25-64.65H7.2v-0.5l0.15,0.1c0.066,0.233,0.2,0.417,0.4,0.55L7.5-64.55L7.25-64.65z M16.9-67.65l1.3,0.55L17.05-67v-0.1
				l-0.3-0.5L16.9-67.65z M19-67.75l0.05-0.1l0.15,0.05l-0.05,0.1L19-67.75z M10.5-66.15h-0.2c-0.133-0.2-0.316-0.3-0.55-0.3
				l0.5-0.25l0.5-0.15c0,0.067,0.067,0.233,0.2,0.5l0.2,0.25H10.9L10.5-66.15z M11.25-66.9l0.1,0.5l-0.25-0.4l0.15-0.15V-66.9z
				 M19.25-68.15l0.25-0.3l0.4-0.35v0.2c-0.133,0.067-0.3,0.233-0.5,0.5L19.25-68.15z M56-51.55l-0.6,0.3v-0.3l0.55-1L56-51.55z
				 M54.45-52.2v0.4l-0.25-0.4H54.45z M52.8-54.35l-0.5-0.7c0.067-0.1,0.167-0.15,0.3-0.15C52.733-54.933,52.8-54.65,52.8-54.35z
				 M52.4-55.55c-0.2,0.066-0.35-0.05-0.45-0.35v-0.55H52l0.45,0.85L52.4-55.55z M55-53.5l0.2,0.05l-0.05,0.25l-0.2-0.2L55-53.5z
				 M53.65-53.2l-0.05-0.1v-0.1l0.15-0.05v0.25H53.65z M53.6-54.4l-0.1-0.9h0.1l0.15,0.8L53.6-54.4z M52.6-56.4l0.65,0.05L53-56.05
				L52.6-56.4z M51.65-58.45L51.5-58.7c-0.3,0.1-0.5,0.317-0.6,0.65l-0.25,0.15l-0.05,0.25l-0.25-0.3h0.2l0.05,0.05l0.05-0.15
				l-0.05-0.1l0.3-0.2c0.367-0.267,0.583-0.45,0.65-0.55l0.4,0.15l0.05,0.6h-0.3L51.65-58.45z M52.4-57.5c0.3,0,0.567,0.2,0.8,0.6
				l-1.15-0.05l0.1-0.3C52.183-57.417,52.267-57.5,52.4-57.5z M51.05-59.4c-0.466,0.333-0.733,0.583-0.8,0.75
				c-0.167,0.1-0.267,0.217-0.3,0.35l-0.45-0.3l-0.2,0.05l-0.15-0.9c0.233-0.066,0.383-0.133,0.45-0.2l0.65-0.3
				c0.2,0,0.383,0.067,0.55,0.2l0.35,0.25L51.05-59.4z M45.5-61.8l0.2,0.1l-0.05,0.25H45.6l-0.2-0.3L45.5-61.8z M47.75-59.9
				l-0.65-0.5l0.15-0.2l0.15,0.1h0.7v0.05l-0.25,0.05c-0.1,0.1-0.133,0.25-0.1,0.45V-59.9z M46.65-60.95
				c-0.233-0.4-0.4-0.617-0.5-0.65l-0.05-0.05l1,0.4l-0.4,0.35L46.65-60.95z M47.4-60.8l0.2-0.2l0.15,0.15L47.4-60.8z M48.05-61.45
				v0.25l-0.15-0.1L48.05-61.45z M49-60.55l-0.1-0.85l0.3,0.05l0.05,0.05l0.25,0.05l0.05,0.1V-61c0,0.133-0.066,0.283-0.2,0.45H49z
				 M50-60.7l-0.1,0.2l-0.2-0.05l0.2-0.4l-0.1-0.35h0.1l0.1,0.1c0.033,0,0.05,0.067,0.05,0.2L50-60.7z M46-63
				c-0.067,0.067-0.283,0.233-0.65,0.5l-0.75-0.35l-0.2-0.3l0.05-0.05l1-0.65c0.333,0.1,0.533,0.2,0.6,0.3
				c0.067,0.1,0.067,0.2,0,0.3v0.05L46-63z M46.45-62.45h0.35l1.3,0.1l-0.6,0.75l-1.2-0.55L46.45-62.45z M43.85-64.3v0.15H43.8
				l-0.05-0.65L43.85-64.3z M42.5-63.25l-0.9-0.45c0.167-0.1,0.333-0.25,0.5-0.45c0.367-0.367,0.533-0.667,0.5-0.9L42.95-65
				c0,0.267-0.067,0.55-0.2,0.85L42.5-63.25z M41.2-64.5c0.1-0.133,0.283-0.233,0.55-0.3l-0.2,0.4c-0.2,0.167-0.383,0.267-0.55,0.3
				L41.2-64.5z M41.85-66.3l0.3-0.1l-0.05,0.25L41.85-66.3z"/>
		</g>
	</g>
	<g id="Layer_4_1_">
	</g>
</symbol>
<symbol  id="FlashAICB_x2F_Layer_1_x2F__x3C_Clip_Group_0_x3E__x5F_6" viewBox="0 -8.8 8.55 8.8">
	<g id="Layer_1_12_">
	</g>
	<g>
		<defs>
			<polygon id="SVGID_21_" points="7.3,0 0,-1.2 1.25,-8.8 8.55,-7.55 			"/>
		</defs>
		<clipPath id="SVGID_22_">
			<use xlink:href="#SVGID_21_"  style="overflow:visible;"/>
		</clipPath>
		<g id="Layer_3_9_" style="clip-path:url(#SVGID_22_);">
			<path style="fill-rule:evenodd;clip-rule:evenodd;" d="M7.8-5.9C7.767-6.067,7.65-6.283,7.45-6.55
				C6.883-7.383,6.117-7.9,5.15-8.1c-1-0.267-1.9-0.117-2.7,0.45c-0.867,0.6-1.467,1.417-1.8,2.45C0.383-4.133,0.5-3.183,1-2.35
				c0.533,0.867,1.3,1.434,2.3,1.7L3.6-0.6c1.433,0.233,2.717-0.267,3.85-1.5C8.017-3.333,8.133-4.6,7.8-5.9z M2.6-1.95
				C2.367-1.983,2.05-2.233,1.65-2.7C1.483-2.8,1.4-2.967,1.4-3.2c-0.267-0.933,0-1.6,0.8-2L2.15-5.25c1-0.9,1.783-0.817,2.35,0.25
				s0.567,1.883,0,2.45C3.9-1.95,3.267-1.75,2.6-1.95z"/>
			<path style="fill-rule:evenodd;clip-rule:evenodd;fill:#FFFFFF;" d="M4.5-2.55C5.067-3.117,5.067-3.933,4.5-5
				S3.15-6.15,2.15-5.25L2.2-5.2c-0.8,0.4-1.067,1.067-0.8,2c0,0.233,0.083,0.4,0.25,0.5c0.4,0.467,0.717,0.717,0.95,0.75
				C3.267-1.75,3.9-1.95,4.5-2.55z"/>
		</g>
	</g>
	<g id="Layer_4_9_">
	</g>
</symbol>
<symbol  id="FlashAICB_x2F_Layer_1_x2F__x3C_Group_x3E__x5F_2" viewBox="0.043 -78.518 73.593 78.516">
	<g id="Layer_1_3_">
		<g>
			<path style="fill-rule:evenodd;clip-rule:evenodd;fill:#FFFFFF;" d="M52.65-6.25l-0.05,0.3L50.95-6.6
				C51.683-6.4,52.25-6.283,52.65-6.25z M60.85-7.15c0.633-0.7,1.05-1.517,1.25-2.45l1.1-1l0.7-1.1l0.2-0.1
				c0.933-0.4,1.7-1.034,2.3-1.9c1.333-1,2.167-2.267,2.5-3.8c0.333-0.367,0.667-0.833,1-1.4c1.033-0.733,1.817-1.6,2.35-2.6
				c0.467-0.867,0.667-1.8,0.6-2.8c-0.033-0.967-0.317-1.867-0.85-2.7v-0.65c0.7-1.167,1.017-2.5,0.95-4l-0.05-0.6
				c0.367-1,0.383-2.067,0.05-3.2L73-35.5c0.733-1.4,0.833-2.85,0.3-4.35v-0.1c-0.033-1.033-0.316-1.983-0.85-2.85
				c-0.034-0.5-0.167-1-0.4-1.5v-0.45L72-45c0-0.5-0.067-0.95-0.2-1.35l-0.45-1.05c0.433-0.967,0.566-1.983,0.4-3.05
				c-0.167-1.033-0.6-1.966-1.3-2.8c-0.4-0.4-0.8-0.733-1.2-1l-0.35-0.4l-0.2-0.7c-0.2-0.7-0.517-1.316-0.95-1.85
				c0.167-1.933-0.5-3.517-2-4.75L65.4-62.2c0.434-1.933-0.017-3.617-1.35-5.05c-1.233-1.3-2.683-1.867-4.35-1.7l-0.8-0.2
				c-0.3-0.3-0.65-0.55-1.05-0.75l-0.25-0.3c-0.3-0.733-0.75-1.4-1.35-2c-0.5-0.433-0.95-0.75-1.35-0.95
				c-0.7-0.367-1.467-0.567-2.3-0.6l-0.5-0.1l-0.85-0.8c-1.2-0.9-2.583-1.3-4.15-1.2c-0.9-0.233-2-0.25-3.3-0.05
				c-0.5-0.167-1.1-0.283-1.8-0.35c-0.667-0.433-1.45-0.7-2.35-0.8h-0.2c-0.6-0.067-1.184-0.067-1.75,0
				c-0.934-0.267-1.817-0.317-2.65-0.15l-2-0.15l-0.5-0.25c-0.8-0.367-1.683-0.583-2.65-0.65c-1.033-0.067-1.933,0.017-2.7,0.25
				c-0.3-0.033-0.75-0.017-1.35,0.05c-0.833-0.2-1.7-0.267-2.6-0.2c-1.767-0.633-3.433-0.45-5,0.55l-0.65,0.15
				c-0.967-0.033-1.934,0.184-2.9,0.65c-0.467,0.233-0.817,0.466-1.05,0.7l-2,0.8c-2.4,0.4-4.233,1.417-5.5,3.05l-0.5,0.8
				c-1.066,0.267-1.967,0.784-2.7,1.55c-0.767,0.8-1.25,1.733-1.45,2.8l-0.05,0.5L1.4-66.45c-0.967,1.3-1.417,2.717-1.35,4.25
				c0,0.7,0.133,1.4,0.4,2.1c0.066,0.5,0.167,0.883,0.3,1.15c-0.1,1,0.117,1.983,0.65,2.95c0.133,0.867,0.267,1.533,0.4,2v0.6
				c0.034,1,0.333,1.9,0.9,2.7c0.066,0.733,0.2,1.333,0.4,1.8l-0.05,0.6c-0.1,1.4,0.184,2.783,0.85,4.15l0.55,1.4
				c-0.2,0.933-0.217,1.783-0.05,2.55c0.3,1.133,0.85,2.067,1.65,2.8c0,0.433,0.083,0.933,0.25,1.5l0.2,1.45l0.1,0.35v0.3
				c0.066,1.1,0.417,2.083,1.05,2.95v0.2c0.1,1.933,0.917,3.517,2.45,4.75c0.3,0.633,0.717,1.183,1.25,1.65c0,1.033,0.3,2,0.9,2.9
				l0.3,0.35c0.233,0.967,0.75,1.85,1.55,2.65c0.4,0.934,0.983,1.7,1.75,2.3c0.167,1.1,0.6,2.05,1.3,2.85
				c0.434,0.534,1,0.983,1.7,1.35c0.233,0.3,0.517,0.6,0.85,0.9l0.1,0.2c0.267,0.4,0.583,0.767,0.95,1.1
				c0.633,1.367,1.633,2.3,3,2.8c0.567,0.867,1.3,1.5,2.2,1.9c1.033,1.067,2.283,1.633,3.75,1.7l0.25,0.1
				c0.767,0.867,1.75,1.433,2.95,1.7c0.533,0.133,1.067,0.184,1.6,0.15c0.6,0.466,1.35,0.783,2.25,0.95
				c0.767,0.167,1.483,0.2,2.15,0.1L40-0.5c0.9,0.433,1.867,0.583,2.9,0.45c1.033-0.1,1.934-0.434,2.7-1c1.2,0,2.25-0.35,3.15-1.05
				c0.167,0,0.433-0.05,0.8-0.15l0.25-0.1c1.067,0.3,1.983,0.467,2.75,0.5l0.1,0.05h0.1c1.2,0.033,2.3-0.267,3.3-0.9
				c0.967-0.633,1.667-1.483,2.1-2.55L58.5-5.6C59.433-5.9,60.217-6.417,60.85-7.15z"/>
			<polygon style="fill-rule:evenodd;clip-rule:evenodd;fill:#EBC9ED;" points="52.7,-5.9 52.8,-6.2 52.75,-6.3 52.7,-6.35 
				50.95,-6.7 50.8,-6.65 50.9,-6.5 52.55,-5.85 52.65,-5.85 			"/>
		</g>
	</g>
</symbol>
<symbol  id="FlashAICB_x2F_Layer_1_x2F__x3C_Path_x3E_" viewBox="0 -61.9 128.6 61.9">
	<g id="Layer_1_13_">
		
			<radialGradient id="SVGID_23_" cx="64.2998" cy="-30.9502" r="50.4599" gradientTransform="matrix(1 0 0 -1 0 -61.9004)" gradientUnits="userSpaceOnUse">
			<stop  offset="0" style="stop-color:#CCEFE7;stop-opacity:0"/>
			<stop  offset="0.0941" style="stop-color:#C2E4E4;stop-opacity:0.0784"/>
			<stop  offset="0.2549" style="stop-color:#A7C7DD;stop-opacity:0.2941"/>
			<stop  offset="0.4627" style="stop-color:#7D99D1;stop-opacity:0.6431"/>
			<stop  offset="0.651" style="stop-color:#5369C5"/>
		</radialGradient>
		<path style="fill-rule:evenodd;clip-rule:evenodd;fill:url(#SVGID_23_);" d="M128.05-0.3L128.6,0
			c-0.633-17.233-7.167-31.85-19.6-43.85C96.5-55.883,81.583-61.9,64.25-61.9c-17.033,0-31.733,5.816-44.1,17.45
			C7.783-32.85,1.067-18.65,0-1.85c4.967-13,13.183-23.5,24.65-31.5c11.7-8.2,24.733-12.3,39.1-12.3
			c14.633,0,27.883,4.25,39.75,12.75C115.1-24.567,123.283-13.7,128.05-0.3z"/>
	</g>
</symbol>
<symbol  id="FlashAICB_x2F_Layer_1_x2F__x3C_Path_x3E__x5F_0" viewBox="0 -66.417 119.2 66.417">
	<g id="Layer_1_15_">
		<path style="fill-rule:evenodd;clip-rule:evenodd;fill:#FFFFFF;" d="M115.4-37.25c2.533-6.1,3.8-11.85,3.8-17.25
			c0-5.367-1.567-8.75-4.7-10.15c-2.533-1.133-6.783-1.117-12.75,0.05c-7.9,1.9-14.217,3.367-18.95,4.4
			c-8.667,1.833-16.4,2.75-23.2,2.75c-6.833,0-14.567-1-23.2-3c-9.033-2.367-15.35-3.966-18.95-4.8c-6-1.367-10.25-1.533-12.75-0.5
			C1.567-64.483,0-61.167,0-55.8c0,5.933,1.267,12.066,3.8,18.4c2.667,6.7,6.434,12.733,11.3,18.1C26.7-6.433,41.533,0,59.6,0
			c17.833,0,32.65-6.483,44.45-19.45C108.883-24.783,112.667-30.717,115.4-37.25z"/>
	</g>
</symbol>
<symbol  id="FlashAICB_x2F_Layer_1_x2F__x3C_Path_x3E__x5F_1" viewBox="0 -128.6 128.8 128.6">
	<g id="Layer_1_2_">
		
			<radialGradient id="SVGID_24_" cx="64.3999" cy="-64.2998" r="64.35" gradientTransform="matrix(1 0 0 -1 0 -128.5996)" gradientUnits="userSpaceOnUse">
			<stop  offset="0.1412" style="stop-color:#8CA5BB"/>
			<stop  offset="0.5569" style="stop-color:#7082AD;stop-opacity:0.9725"/>
			<stop  offset="1" style="stop-color:#5560A0;stop-opacity:0.949"/>
		</radialGradient>
		<path style="fill-rule:evenodd;clip-rule:evenodd;fill:url(#SVGID_24_);" d="M128.8-64.3c0-17.767-6.283-32.917-18.85-45.45
			c-12.6-12.567-27.784-18.85-45.55-18.85s-32.95,6.283-45.55,18.85C6.283-97.217,0-82.067,0-64.3
			c0,17.733,6.283,32.883,18.85,45.45C31.45-6.283,46.633,0,64.4,0s32.95-6.283,45.55-18.85C122.517-31.417,128.8-46.567,128.8-64.3
			z"/>
	</g>
</symbol>
<symbol  id="FlashAICB_x2F_Layer_1_x2F__x3C_Path_x3E__x5F_1_x5F_0" viewBox="0 -60.45 119.2 60.45">
	<g id="Layer_1_14_">
		
			<linearGradient id="SVGID_25_" gradientUnits="userSpaceOnUse" x1="16160.6563" y1="-58.4668" x2="16221.0479" y2="-58.4668" gradientTransform="matrix(1.654944e-005 1 -1 -0.001 0.8657 -16221.1064)">
			<stop  offset="0.1294" style="stop-color:#E2B8B2"/>
			<stop  offset="0.9255" style="stop-color:#FFFFFF"/>
		</linearGradient>
		<path style="fill-rule:evenodd;clip-rule:evenodd;fill:url(#SVGID_25_);" d="M104.05-19.45c4.833-5.333,8.617-11.267,11.35-17.8
			c2.533-6.1,3.8-11.85,3.8-17.25c0-1.8-0.184-3.4-0.55-4.8c-1.967,11.966-7.8,22.617-17.5,31.95
			C89.717-16.383,75.867-10.9,59.6-10.9c-16.533,0-30.45-5.483-41.75-16.45C8.117-36.783,2.333-47.817,0.5-60.45
			C0.167-59.217,0-57.667,0-55.8c0,5.933,1.267,12.066,3.8,18.4c2.667,6.7,6.434,12.733,11.3,18.1C26.7-6.433,41.533,0,59.6,0
			C77.433,0,92.25-6.483,104.05-19.45z"/>
	</g>
</symbol>
<g>
	<path style="fill-rule:evenodd;clip-rule:evenodd;fill:#FFFFFF;" d="M0,85.9c0-11.633,2.25-22.767,6.75-33.4
		c4.367-10.267,10.5-19.367,18.4-27.3c7.934-7.934,17.033-14.083,27.3-18.45C63.083,2.25,74.217,0,85.85,0
		c11.634,0,22.767,2.25,33.4,6.75c10.267,4.367,19.366,10.517,27.3,18.45c7.934,7.933,14.084,17.033,18.45,27.3
		c4.5,10.633,6.75,21.767,6.75,33.4s-2.25,22.767-6.75,33.4c-4.366,10.267-10.517,19.367-18.45,27.3
		c-7.934,7.9-17.033,14.033-27.3,18.4c-10.634,4.5-21.767,6.75-33.4,6.75c-11.633,0-22.766-2.25-33.399-6.75
		c-10.267-4.367-19.367-10.5-27.3-18.4c-7.9-7.933-14.033-17.033-18.4-27.3C2.25,108.667,0,97.533,0,85.9z"/>
	<g>
		<g>
			
				<linearGradient id="SVGID_26_" gradientUnits="userSpaceOnUse" x1="-157.6851" y1="85.8506" x2="-14.2856" y2="85.8506" gradientTransform="matrix(6.973501e-006 -1 1 -0.001 -1.064519e-004 4.449275e-004)">
				<stop  offset="0.098" style="stop-color:#253457"/>
				<stop  offset="0.3961" style="stop-color:#37568A"/>
				<stop  offset="0.5529" style="stop-color:#3E649F"/>
				<stop  offset="0.9686" style="stop-color:#AAA1B4"/>
			</linearGradient>
			<path style="fill-rule:evenodd;clip-rule:evenodd;fill:url(#SVGID_26_);" d="M57.95,19.85c8.9-3.767,18.2-5.65,27.899-5.65
				c9.7,0,19,1.883,27.9,5.65c8.566,3.633,16.167,8.75,22.8,15.35c6.601,6.633,11.717,14.233,15.351,22.8
				c3.767,8.9,5.649,18.2,5.649,27.9s-1.883,19-5.649,27.9c-3.634,8.566-8.75,16.167-15.351,22.8
				c-6.633,6.601-14.233,11.717-22.8,15.351c-8.9,3.767-18.2,5.649-27.9,5.649c-9.7,0-19-1.883-27.899-5.649
				c-8.567-3.634-16.167-8.75-22.8-15.351c-6.6-6.633-11.717-14.233-15.35-22.8c-3.767-8.899-5.65-18.2-5.65-27.9
				s1.883-19,5.65-27.9c3.633-8.567,8.75-16.167,15.35-22.8C41.783,28.6,49.383,23.483,57.95,19.85z"/>
			<path style="fill-rule:evenodd;clip-rule:evenodd;fill:#171E48;" d="M58.3,20.65c-8.466,3.6-15.966,8.667-22.5,15.2
				C21.967,49.683,15.05,66.367,15.05,85.9c0,19.567,6.917,36.25,20.75,50.05c6.534,6.533,14.034,11.6,22.5,15.2
				c8.767,3.699,17.95,5.55,27.55,5.55c19.567,0,36.25-6.917,50.051-20.75c6.533-6.533,11.6-14.033,15.199-22.5
				c3.7-8.767,5.551-17.95,5.551-27.55S154.8,67.117,151.1,58.35c-3.6-8.467-8.666-15.967-15.199-22.5
				C122.1,22.017,105.417,15.1,85.85,15.1C76.25,15.1,67.067,16.95,58.3,20.65z M34.5,34.55c6.867-6.833,14.717-12.083,23.55-15.75
				c8.833-3.667,18.1-5.5,27.8-5.5c9.7,0,18.967,1.833,27.801,5.5c8.866,3.667,16.716,8.917,23.55,15.75
				c6.866,6.867,12.116,14.717,15.75,23.55c3.666,8.833,5.5,18.1,5.5,27.8s-1.834,18.966-5.5,27.8
				c-3.634,8.833-8.884,16.683-15.75,23.55c-6.834,6.866-14.684,12.116-23.55,15.75c-8.834,3.667-18.101,5.5-27.801,5.5
				c-9.7,0-18.966-1.833-27.8-5.5c-8.833-3.634-16.683-8.884-23.55-15.75c-6.867-6.867-12.117-14.717-15.75-23.55
				c-3.667-8.834-5.5-18.101-5.5-27.8s1.833-18.967,5.5-27.8C22.417,49.267,27.667,41.417,34.5,34.55z"/>
		</g>
		
			<use xlink:href="#FlashAICB_x2F_Layer_1_x2F__x3C_Path_x3E__x5F_1"  width="128.8" height="128.6" y="-128.6" transform="matrix(1 0 0 -1 21.4502 19.25)" style="overflow:visible;opacity:0.9102;enable-background:new    ;"/>
		<g>
			<g>
				<path style="fill-rule:evenodd;clip-rule:evenodd;fill:#C0C3EF;" d="M80.2,28c1.633-1.233,3.433-1.85,5.399-1.85
					c2.367,0,4.284,0.75,5.75,2.25c1.233,1.267,1.851,2.7,1.851,4.3c0,2.4-0.967,4.216-2.9,5.45c1.3,0.6,2.351,1.467,3.15,2.6
					c0.8,1.167,1.2,2.433,1.2,3.8c0,2.167-0.867,4.017-2.601,5.55c-1.767,1.566-3.899,2.35-6.399,2.35c-2.467,0-4.567-0.767-6.3-2.3
					c-1.533-1.367-2.3-2.833-2.3-4.4c0-0.667,0.3-1.233,0.9-1.7c0.566-0.466,1.183-0.7,1.85-0.7c0.7,0,1.483,0.7,2.35,2.1
					c0.9,1.366,2.083,2.05,3.55,2.05c0.934,0,1.717-0.317,2.35-0.95c0.667-0.633,1-1.417,1-2.35c0-1.733-1-2.75-3-3.05
					c-2.033-0.3-3.05-1.133-3.05-2.5c0-1.233,0.85-2.066,2.55-2.5c1.667-0.433,2.5-1.316,2.5-2.65c0-0.7-0.217-1.267-0.649-1.7
					c-0.5-0.466-1.134-0.7-1.9-0.7c-1.2,0-2.217,0.583-3.05,1.75c-0.8,1.167-1.567,1.75-2.3,1.75c-0.7,0-1.283-0.267-1.75-0.8
					c-0.4-0.5-0.6-1.117-0.6-1.85C77.8,30.55,78.6,29.233,80.2,28z"/>
			</g>
			<g>
				
					<linearGradient id="SVGID_27_" gradientUnits="userSpaceOnUse" x1="-51.2847" y1="85.8521" x2="-25.0347" y2="85.8521" gradientTransform="matrix(3.809524e-005 -1 1 -0.001 -2.387897e-004 4.449275e-004)">
					<stop  offset="0.2824" style="stop-color:#030F2C"/>
					<stop  offset="0.3961" style="stop-color:#05133D"/>
					<stop  offset="0.8039" style="stop-color:#0F1F74"/>
					<stop  offset="1" style="stop-color:#142389"/>
				</linearGradient>
				<path style="fill-rule:evenodd;clip-rule:evenodd;fill:url(#SVGID_27_);" d="M85.6,24.9c2.367,0,4.284,0.75,5.75,2.25
					c1.233,1.267,1.851,2.7,1.851,4.3c0,2.4-0.967,4.216-2.9,5.45c1.3,0.6,2.351,1.467,3.15,2.6c0.8,1.167,1.2,2.433,1.2,3.8
					c0,2.167-0.867,4.017-2.601,5.55c-1.767,1.566-3.899,2.35-6.399,2.35c-2.467,0-4.567-0.767-6.3-2.3
					c-1.533-1.367-2.3-2.833-2.3-4.4c0-0.667,0.3-1.233,0.9-1.7c0.566-0.466,1.183-0.7,1.85-0.7c0.7,0,1.483,0.7,2.35,2.1
					c0.9,1.366,2.083,2.05,3.55,2.05c0.934,0,1.717-0.317,2.35-0.95c0.667-0.633,1-1.417,1-2.35c0-1.733-1-2.75-3-3.05
					C84.017,39.6,83,38.767,83,37.4c0-1.233,0.85-2.066,2.55-2.5c1.667-0.433,2.5-1.316,2.5-2.65c0-0.7-0.217-1.267-0.649-1.7
					c-0.5-0.466-1.134-0.7-1.9-0.7c-1.2,0-2.217,0.583-3.05,1.75c-0.8,1.167-1.567,1.75-2.3,1.75c-0.7,0-1.283-0.267-1.75-0.8
					c-0.4-0.5-0.6-1.117-0.6-1.85c0-1.4,0.8-2.717,2.4-3.95C81.833,25.517,83.633,24.9,85.6,24.9z"/>
			</g>
		</g>
		<g>
			
				<use xlink:href="#FlashAICB_x2F_Layer_1_x2F__x3C_Group_x3E__x5F_2"  width="73.593" height="78.516" x="0.043" y="-78.518" transform="matrix(1 0 0 -1 46.7002 60.25)" style="overflow:visible;opacity:0.9102;enable-background:new    ;"/>
			<g>
				
					<linearGradient id="SVGID_28_" gradientUnits="userSpaceOnUse" x1="-142.3213" y1="76.0898" x2="-64.9673" y2="76.0898" gradientTransform="matrix(-0.0663 -0.9978 0.9978 -0.0663 -2.405122e-004 -4.458874e-004)">
					<stop  offset="0" style="stop-color:#26313D"/>
					<stop  offset="0.2196" style="stop-color:#3E4C5E"/>
					<stop  offset="0.702" style="stop-color:#7A90B1"/>
					<stop  offset="1" style="stop-color:#A2BCE7"/>
				</linearGradient>
				<path style="fill-rule:evenodd;clip-rule:evenodd;fill:url(#SVGID_28_);" d="M99.3,65.55l-0.05-0.3l-1.7,0.65
					C98.384,65.7,98.967,65.583,99.3,65.55z M63.8,72.5c0.434-0.533,1-0.983,1.7-1.35c0.3-0.4,0.583-0.7,0.85-0.9l0.1-0.2
					c0.267-0.4,0.583-0.767,0.95-1.1c0.633-1.367,1.633-2.3,3-2.8c0.567-0.867,1.283-1.5,2.15-1.9c1.1-1.1,2.367-1.667,3.8-1.7
					l0.25-0.1c0.767-0.867,1.75-1.434,2.95-1.7c0.667-0.133,1.2-0.184,1.6-0.15c0.633-0.467,1.383-0.784,2.25-0.95
					c0.733-0.167,1.434-0.2,2.1-0.1l1.1,0.25c0.934-0.433,1.9-0.583,2.9-0.45c1.033,0.1,1.95,0.433,2.75,1
					c1.167,0,2.2,0.35,3.1,1.05c0.034,0,0.301,0.05,0.801,0.15l0.3,0.1c1.066-0.3,1.983-0.467,2.75-0.5l0.1-0.05H99.4
					c1.199-0.034,2.3,0.267,3.3,0.9c0.967,0.633,1.666,1.483,2.1,2.55l0.351,0.35c0.899,0.3,1.683,0.817,2.35,1.55
					c0.634,0.7,1.05,1.517,1.25,2.45c0.366,0.267,0.717,0.6,1.05,1c0.334,0.367,0.584,0.733,0.75,1.1l0.2,0.1
					c0.934,0.4,1.7,1.033,2.3,1.9c1.334,1,2.167,2.267,2.5,3.8c0.467,0.6,0.783,1.067,0.95,1.4c1.1,0.733,1.884,1.6,2.35,2.6
					c0.467,0.867,0.684,1.8,0.65,2.8c-0.033,0.966-0.333,1.867-0.9,2.7c0.067,0.2,0.067,0.4,0,0.601v0.05
					c0.733,1.233,1.067,2.566,1,4l-0.05,0.6c0.367,1,0.384,2.066,0.05,3.2v0.05c0.767,1.4,0.884,2.851,0.351,4.351v0.1
					c-0.066,1.066-0.351,2.017-0.851,2.85c-0.133,0.667-0.267,1.184-0.399,1.551l-0.05,0.399v0.25c0,0.3-0.067,0.75-0.2,1.351
					L118,106.7c0.4,1,0.517,2.017,0.35,3.05c-0.166,1.066-0.6,2-1.3,2.8c-0.233,0.267-0.616,0.601-1.149,1l-0.351,0.4l-0.2,0.7
					c-0.166,0.6-0.483,1.216-0.949,1.85c0.166,1.934-0.5,3.517-2,4.75l-0.351,0.25c0.434,1.934-0.033,3.616-1.399,5.05
					c-1.167,1.267-2.617,1.851-4.351,1.75l-0.75,0.15l-1.05,0.8l-0.25,0.25c-0.333,0.8-0.783,1.467-1.35,2
					c-0.367,0.366-0.817,0.684-1.351,0.95c-0.7,0.333-1.467,0.533-2.3,0.6l-0.5,0.101l-0.85,0.8c-1.167,0.899-2.551,1.3-4.15,1.2
					c-0.9,0.232-2,0.25-3.3,0.05c-0.533,0.2-1.134,0.316-1.8,0.35c-0.667,0.434-1.45,0.7-2.351,0.8h-0.25
					c-0.566,0.033-1.15,0.033-1.75,0c-0.867,0.267-1.733,0.317-2.6,0.15l-2,0.15l-0.5,0.25c-0.7,0.366-1.583,0.583-2.65,0.649
					c-1.033,0.066-1.933-0.017-2.7-0.25c-0.3,0.033-0.75,0.017-1.35-0.05c-1,0.233-1.867,0.3-2.6,0.2
					c-1.767,0.633-3.433,0.45-5-0.55l-0.65-0.15c-1.067,0.066-2.033-0.15-2.9-0.65c-0.467-0.233-0.833-0.467-1.1-0.699L58.3,134.6
					c-2.4-0.399-4.233-1.416-5.5-3.05l-0.5-0.8c-1.066-0.267-1.966-0.783-2.7-1.55c-0.767-0.8-1.25-1.733-1.45-2.8l-0.05-0.5
					l-0.05-0.15c-1-1.3-1.466-2.717-1.4-4.25c0.033-0.667,0.167-1.367,0.4-2.1l0.3-1.15c-0.033-1.033,0.2-2.017,0.7-2.95
					c0.034-0.6,0.167-1.267,0.4-2v-0.6c0.033-0.934,0.316-1.834,0.85-2.7c0.067-0.634,0.217-1.233,0.45-1.8L49.7,107.6
					c-0.1-1.399,0.183-2.783,0.85-4.149l0.5-1.4c-0.2-0.833-0.2-1.684,0-2.55c0.233-1.033,0.767-1.967,1.6-2.8
					c0.067-0.533,0.167-1.017,0.3-1.45l0.2-1.5l0.1-0.35V93.1c0-1,0.35-1.983,1.05-2.949V90c0.1-1.967,0.917-3.566,2.45-4.8
					c0.3-0.6,0.7-1.15,1.2-1.65c0.066-1.066,0.383-2.033,0.95-2.9l0.3-0.35c0.267-1.033,0.767-1.9,1.5-2.6
					c0.466-0.967,1.066-1.75,1.8-2.35C62.667,74.25,63.1,73.3,63.8,72.5z"/>
				
					<path style="fill-rule:evenodd;clip-rule:evenodd;fill:none;stroke:#D1DEEF;stroke-width:0.25;stroke-linejoin:round;stroke-miterlimit:3;" d="
					M63.8,72.5c-0.7,0.8-1.133,1.75-1.3,2.85c-0.733,0.6-1.333,1.383-1.8,2.35c-0.733,0.7-1.233,1.566-1.5,2.6l-0.3,0.35
					c-0.566,0.867-0.883,1.833-0.95,2.9c-0.5,0.5-0.9,1.05-1.2,1.65c-1.533,1.233-2.35,2.833-2.45,4.8v0.15
					c-0.7,0.966-1.05,1.949-1.05,2.949V93.4l-0.1,0.35l-0.2,1.5c-0.133,0.434-0.233,0.917-0.3,1.45
					c-0.833,0.833-1.367,1.767-1.6,2.8c-0.2,0.866-0.2,1.717,0,2.55l-0.5,1.4c-0.667,1.366-0.95,2.75-0.85,4.149l0.05,0.601
					c-0.233,0.566-0.383,1.166-0.45,1.8c-0.533,0.866-0.816,1.767-0.85,2.7v0.6c-0.233,0.733-0.367,1.4-0.4,2
					c-0.5,0.934-0.733,1.917-0.7,2.95l-0.3,1.15c-0.233,0.732-0.367,1.433-0.4,2.1c-0.066,1.533,0.4,2.95,1.4,4.25l0.05,0.15
					l0.05,0.5c0.2,1.066,0.684,2,1.45,2.8c0.733,0.767,1.633,1.283,2.7,1.55l0.5,0.8c1.267,1.634,3.1,2.65,5.5,3.05l1.95,0.801
					c0.267,0.232,0.633,0.466,1.1,0.699c0.867,0.5,1.833,0.717,2.9,0.65l0.65,0.15c1.567,1,3.233,1.183,5,0.55
					c0.733,0.1,1.6,0.033,2.6-0.2c0.6,0.066,1.05,0.083,1.35,0.05c0.767,0.233,1.667,0.316,2.7,0.25
					c1.067-0.066,1.95-0.283,2.65-0.649l0.5-0.25l2-0.15c0.867,0.167,1.733,0.116,2.6-0.15c0.6,0.033,1.184,0.033,1.75,0h0.25
					c0.9-0.1,1.684-0.366,2.351-0.8c0.666-0.033,1.267-0.149,1.8-0.35c1.3,0.2,2.399,0.183,3.3-0.05c1.6,0.1,2.983-0.301,4.15-1.2
					l0.85-0.8l0.5-0.101c0.833-0.066,1.6-0.267,2.3-0.6c0.533-0.267,0.983-0.584,1.351-0.95c0.566-0.533,1.017-1.2,1.35-2l0.25-0.25
					l1.05-0.8l0.75-0.15c1.733,0.101,3.184-0.483,4.351-1.75c1.366-1.434,1.833-3.116,1.399-5.05l0.351-0.25
					c1.5-1.233,2.166-2.816,2-4.75c0.466-0.634,0.783-1.25,0.949-1.85l0.2-0.7l0.351-0.4c0.533-0.399,0.916-0.733,1.149-1
					c0.7-0.8,1.134-1.733,1.3-2.8c0.167-1.033,0.051-2.05-0.35-3.05l0.45-1.05c0.133-0.601,0.2-1.051,0.2-1.351v-0.25l0.05-0.399
					c0.133-0.367,0.267-0.884,0.399-1.551c0.5-0.833,0.784-1.783,0.851-2.85v-0.1c0.533-1.5,0.416-2.95-0.351-4.351v-0.05
					c0.334-1.134,0.317-2.2-0.05-3.2l0.05-0.6c0.067-1.434-0.267-2.767-1-4V86.9c0.067-0.2,0.067-0.4,0-0.601
					c0.567-0.833,0.867-1.733,0.9-2.7c0.033-1-0.184-1.934-0.65-2.8c-0.466-1-1.25-1.867-2.35-2.6c-0.167-0.333-0.483-0.8-0.95-1.4
					c-0.333-1.533-1.166-2.8-2.5-3.8c-0.6-0.867-1.366-1.5-2.3-1.9l-0.2-0.1c-0.166-0.367-0.416-0.733-0.75-1.1
					c-0.333-0.4-0.684-0.733-1.05-1c-0.2-0.933-0.616-1.75-1.25-2.45c-0.667-0.733-1.45-1.25-2.35-1.55l-0.351-0.35
					c-0.434-1.066-1.133-1.917-2.1-2.55c-1-0.633-2.101-0.934-3.3-0.9H99.3l-0.1,0.05c-0.767,0.033-1.684,0.2-2.75,0.5l-0.3-0.1
					c-0.5-0.1-0.767-0.15-0.801-0.15c-0.899-0.7-1.933-1.05-3.1-1.05c-0.8-0.567-1.717-0.9-2.75-1c-1-0.133-1.967,0.017-2.9,0.45
					l-1.1-0.25c-0.667-0.1-1.367-0.066-2.1,0.1c-0.867,0.167-1.617,0.483-2.25,0.95c-0.4-0.034-0.933,0.017-1.6,0.15
					c-1.2,0.267-2.183,0.833-2.95,1.7l-0.25,0.1c-1.434,0.034-2.7,0.6-3.8,1.7c-0.867,0.4-1.583,1.033-2.15,1.9
					c-1.367,0.5-2.367,1.434-3,2.8c-0.367,0.333-0.683,0.7-0.95,1.1l-0.1,0.2c-0.267,0.2-0.55,0.5-0.85,0.9
					C64.8,71.517,64.233,71.967,63.8,72.5z M99.3,65.55c-0.333,0.034-0.916,0.15-1.75,0.35l1.7-0.65L99.3,65.55z"/>
				<path style="fill-rule:evenodd;clip-rule:evenodd;fill:#A9ABD8;" d="M99.3,65.65L97.6,66h-0.05l-0.1-0.05l0.05-0.15l1.7-0.65
					h0.1l0.05,0.1L99.4,65.5c0.033,0.033,0.033,0.066,0,0.1L99.3,65.65z"/>
			</g>
			<path style="fill-rule:evenodd;clip-rule:evenodd;fill:#171E48;" d="M64.45,80.5c0.066-0.934,0.483-1.617,1.25-2.05l0.95-0.4
				h0.05L67,77.4c-0.1-0.233-0.15-0.467-0.15-0.7v-0.5c-0.033-0.3,0.05-0.583,0.25-0.85c0.233-0.233,0.483-0.367,0.75-0.4h0.25
				c0.267,0,0.467,0.05,0.6,0.15l0.15-0.4c-0.067-0.2-0.067-0.417,0-0.65c0.167-0.333,0.383-0.55,0.65-0.65l0.5-0.2
				c-0.067-0.267-0.017-0.534,0.15-0.8c0.2-0.333,0.567-0.517,1.1-0.55l0.05-0.65c0-0.267,0.1-0.5,0.3-0.7
				c0.2-0.2,0.433-0.317,0.7-0.35c0.333,0,0.617,0.083,0.85,0.25l0.3,0.35l0.15-0.15v-0.15c0-0.4,0.05-0.75,0.15-1.05l0.05-0.25
				c0.067-0.633,0.417-0.983,1.05-1.05h0.25l0.3,0.05L75.45,68c0-0.267,0.1-0.5,0.3-0.7c0.2-0.2,0.433-0.316,0.7-0.35
				c0.4-0.034,0.75,0.116,1.05,0.45l0.05-0.05c0.133-0.4,0.4-0.7,0.8-0.9c0.367-0.1,0.667-0.083,0.9,0.05l0.3,0.2
				c-0.1-0.233-0.1-0.483,0-0.75l0.1-0.25c0.167-0.367,0.434-0.583,0.8-0.65l0.4-0.05c0.7-0.067,1.316,0.183,1.85,0.75
				c0.066-0.133,0.233-0.283,0.5-0.45V65c0.066-0.667,0.4-1,1-1l0.15-0.05c0.267-0.067,0.45-0.083,0.55-0.05
				c0.234,0,0.45,0.1,0.65,0.3c0.334,0.267,0.483,0.716,0.45,1.35l-0.05,0.75h0.1c0.533-1.133,1.351-1.983,2.45-2.55
				c0.6-0.233,1.066-0.1,1.4,0.4c0.166,0.267,0.216,0.55,0.149,0.85l0.25-0.2c0.434-0.267,0.867-0.25,1.3,0.05l0.351-0.1
				c0.566-0.1,0.967,0.1,1.2,0.6l0.1,0.5c0.467-0.1,0.9-0.15,1.3-0.15L95,65.8c0.467,0.067,0.783,0.3,0.95,0.7
				c1.066-0.5,2.283-0.833,3.649-1c0.7,0,1.101,0.316,1.2,0.95c0.066,0.633-0.184,1.033-0.75,1.2c0.5-0.1,0.767-0.15,0.8-0.15
				c0.534-0.1,0.917,0.083,1.15,0.55c0.134,0.233,0.167,0.5,0.1,0.8c0.567,0,1.067,0.05,1.5,0.15c0.601,0.167,0.9,0.55,0.9,1.15
				c-0.066,0.333-0.184,0.583-0.35,0.75c0,0.2-0.051,0.4-0.15,0.6c1.1,0.233,1.934,0.667,2.5,1.3c0.2,0.2,0.3,0.417,0.3,0.65
				l0.351,0.6c0.466,0.2,0.883,0.5,1.25,0.9l0.55,0.2c0.3,0.1,0.517,0.3,0.649,0.6l0.15,0.35c0.934,0.4,1.45,1.05,1.55,1.95
				l0.15,0.85c0.899,0.9,1.366,1.533,1.399,1.9v0.3c1.101,0.566,1.801,1.133,2.101,1.7c0.267,0.434,0.233,0.833-0.101,1.2
				c-0.166,0.233-0.366,0.367-0.6,0.4v0.05c0.134,0.3,0.1,0.6-0.1,0.9l-0.101,0.2l0.2,1.15l-0.2,1.1V87.9
				c0.3,0.333,0.5,0.666,0.601,1c0.433,0.566,0.616,1.183,0.55,1.85c0,0.233-0.066,0.517-0.2,0.85l-0.1,0.15l0.05,0.45l0.3,0.5
				c0.2,0.3,0.217,0.633,0.05,1l-0.1,0.25c-0.033,0.267-0.134,0.533-0.3,0.8c0.166,0.3,0.333,0.75,0.5,1.35l0.25,0.601
				c0.333,0.467,0.3,0.933-0.101,1.399l-0.2,0.15c0.134,0.233,0.2,0.517,0.2,0.85c0,0.434-0.166,0.783-0.5,1.051l-0.5,0.25
				c0.167,0.333,0.25,0.616,0.25,0.85c-0.066,0.4-0.217,0.85-0.45,1.35l-0.1,0.15l-0.05,0.2l-0.05,0.1l0.149,0.75l-0.05,0.3v0.25
				c-0.167,0.467-0.45,0.783-0.85,0.95l0.05,0.2c0.066,0.233,0.05,0.45-0.05,0.65v0.35c0,0.333-0.051,0.65-0.15,0.95l0.6,0.8
				c0.334,0.434,0.317,0.9-0.05,1.4c-0.3,0.232-0.566,0.35-0.8,0.35c-0.134,0.3-0.667,0.967-1.6,2c-0.034,0.5-0.117,0.967-0.25,1.4
				c-0.101,0.399-0.334,0.649-0.7,0.75l-0.3,0.1c-0.367,0.066-0.65,0.033-0.851-0.1c-0.1,0.333-0.217,0.583-0.35,0.75l-0.05,0.6
				c0.199,0.233,0.35,0.366,0.449,0.4c0.334,0.133,0.551,0.399,0.65,0.8c0.066,0.533-0.066,0.916-0.4,1.149l-0.25,0.15
				c-0.466,0.233-1,0.233-1.6,0c-0.333,0.7-0.967,1.65-1.9,2.85l1.45,1c0.167,0.134,0.3,0.283,0.4,0.45
				c0.166,0.467,0.1,0.884-0.2,1.25c-0.366,0.367-0.767,0.45-1.2,0.25l-0.55-0.25c-0.233,0.367-0.583,0.566-1.05,0.601
				c-0.533,0-1.017-0.084-1.45-0.25l-0.2,0.25l-0.1,0.5c-0.167,0.566-0.601,0.899-1.3,1l-0.25,0.05l-0.15,0.5l-0.15,0.25
				l-0.35,0.399c-0.134,0.2-0.3,0.317-0.5,0.351c0.066,0.467-0.05,0.816-0.35,1.05c-0.034,0.1-0.167,0.2-0.4,0.3
				c-0.2,0.134-0.467,0.167-0.8,0.101l-0.15,0.05c-0.233,0.1-0.566,0.149-1,0.149c-0.3,0.033-0.666,0-1.1-0.1
				c-0.033,0.167-0.134,0.333-0.3,0.5c-0.101,0.133-0.267,0.233-0.5,0.3c0.066,0.333-0.067,0.634-0.4,0.9
				c-0.4,0.3-0.866,0.399-1.4,0.3c-0.233,0-0.399-0.033-0.5-0.1l-0.25,0.05l-0.05,0.05c-0.133,0.1-0.316,0.15-0.55,0.15
				c-0.767,0.066-1.384,0-1.85-0.2l-0.5-0.2l-0.65,0.05c-0.2,0.4-0.566,0.617-1.1,0.65c-0.334,0-0.584-0.084-0.75-0.25l-0.65,0.1
				l-0.15,0.2l-0.05,0.1c-0.166,0.367-0.467,0.584-0.899,0.65h-0.15c-0.667,0.033-1.317-0.05-1.95-0.25
				c-0.3,0.233-0.667,0.383-1.1,0.45c-0.167,0-0.5-0.084-1-0.25h-0.1c-0.167,0.133-0.4,0.2-0.7,0.2c-0.4,0.033-0.717,0.033-0.95,0
				c-0.4,0.166-0.8,0.149-1.2-0.051c-0.133,0-0.367-0.066-0.7-0.199c0,0.267-0.1,0.5-0.3,0.699l-0.45,0.351
				c-0.333,0.133-0.683,0.2-1.05,0.2c-0.833,0.033-1.467-0.067-1.9-0.301l-0.55,0.101c-0.367,0-0.7-0.05-1-0.15l-0.35,0.05h-0.3
				c-0.1,0.067-0.2,0.067-0.3,0c-1,0.334-1.783,0.301-2.35-0.1l-0.85,0.4c-0.533,0.433-1.033,0.416-1.5-0.051
				c-0.167-0.166-0.283-0.366-0.35-0.6c-0.466,0.133-0.867,0.167-1.2,0.1l-0.2-0.1l-0.45-0.3l-0.65,0.1
				c-0.333,0.101-0.65,0.066-0.95-0.1c-0.233-0.067-0.417-0.25-0.55-0.55l-3.4-1.351c-1.467-0.2-2.5-0.667-3.1-1.399
				c-0.367-0.534-0.55-1.15-0.55-1.851l-0.2-0.2l-0.25-0.55c-0.6,0.267-1.233,0.333-1.9,0.2c-0.533-0.1-0.833-0.4-0.9-0.9
				c-0.067-0.233-0.05-0.449,0.05-0.649l-0.05-0.05c-0.233-0.233-0.35-0.567-0.35-1l0.05-0.101c-0.8-0.733-1.184-1.434-1.15-2.1
				c0.067-0.5,0.184-0.917,0.35-1.25v-0.25c0-0.4,0.25-0.8,0.75-1.2c-0.133-0.134-0.233-0.316-0.3-0.55l-0.05-0.25
				c-0.167-0.467-0.033-0.851,0.4-1.15l0.15-0.1v-0.55c0.066-0.967,0.267-1.884,0.6-2.75c-0.1-0.2-0.15-0.434-0.15-0.7
				c0.067-0.4,0.284-0.767,0.65-1.101v-0.1c0.033-0.4,0.133-0.733,0.3-1l-0.05-0.4c0-0.366,0.167-0.683,0.5-0.949l0.25-0.601
				l0.1-0.149l-0.15-0.2c-0.2-0.267-0.3-0.65-0.3-1.15c-0.067-0.7,0.117-1.45,0.55-2.25L54.7,105l0.1-0.45l1.15-2.7
				c-0.2-0.1-0.35-0.25-0.45-0.449c-0.2-0.334-0.25-0.617-0.15-0.851c0.066-0.366,0.217-0.616,0.45-0.75l1.1-0.649L56.95,99
				l0.25-1.2c-0.1-0.2-0.15-0.467-0.15-0.8c0-0.267,0.1-0.55,0.3-0.85V95l0.05-0.25L57.7,94l-0.1-0.6c0.033-0.5,0.433-0.967,1.2-1.4
				l-0.1-0.35l-0.05-0.301c-0.033-0.1-0.017-0.267,0.05-0.5V90.15c0-0.7,0.367-1.268,1.1-1.7l0.7-0.351V87.95
				c0-0.767,0.45-1.384,1.35-1.851h0.05V86c0-0.267,0.083-0.517,0.25-0.75l0.55-0.7c-0.434-0.433-0.483-0.9-0.15-1.4
				c0.2-0.333,0.5-0.633,0.9-0.9l-0.05-0.6C63.467,81.017,63.817,80.633,64.45,80.5z"/>
			<g>
				
					<use xlink:href="#FlashAICB_x2F_Layer_1_x2F__x3C_Clip_Group_0_x3E_"  width="68.5" height="70.85" y="-70.85" transform="matrix(1 0 0 -1 48.5498 62.8501)" style="overflow:visible;"/>
			</g>
		</g>
		<g>
			<g>
				<g>
					<g>
						<g>
							<g>
								
									<linearGradient id="SVGID_29_" gradientUnits="userSpaceOnUse" x1="-35.0176" y1="73.1211" x2="-15.8367" y2="73.1211" gradientTransform="matrix(0.4705 -0.8824 0.8824 0.4705 1.910329e-004 4.739761e-004)">
									<stop  offset="0" style="stop-color:#26313D"/>
									<stop  offset="0.2196" style="stop-color:#3E4C5E"/>
									<stop  offset="0.702" style="stop-color:#7A90B1"/>
									<stop  offset="1" style="stop-color:#A2BCE7"/>
								</linearGradient>
								<path style="fill-rule:evenodd;clip-rule:evenodd;fill:url(#SVGID_29_);" d="M57.25,48.45c1.567,0.933,2.3,2.3,2.2,4.1
									L59.4,54l1.15,0.9c0.667,0.5,1.15,1.15,1.45,1.95c0.3,0.767,0.367,1.566,0.2,2.4c-0.2,0.967-0.65,1.767-1.35,2.4
									c-0.567,0.533-1.184,0.867-1.85,1l-1.4,0.4l-0.5,1.3c-0.2,0.7-0.583,1.3-1.15,1.8c-0.733,0.667-1.567,1.05-2.5,1.15
									l-0.7,0.05c-0.733-0.067-1.367-0.25-1.9-0.55c-0.7-0.367-1.25-0.85-1.65-1.45l-0.75-1.25h-1.5
									c-0.833-0.034-1.6-0.284-2.3-0.75c-0.7-0.5-1.217-1.117-1.55-1.85c-0.8-1.633-0.6-3.184,0.6-4.65l0.9-1.1l-0.45-1.4
									c-0.233-0.8-0.233-1.6,0-2.4c0.233-0.833,0.65-1.534,1.25-2.1c0.867-0.833,1.934-1.217,3.2-1.15c0.433,0,0.9,0.083,1.4,0.25
									l1.35,0.55l1.2-0.8c0.8-0.567,1.7-0.833,2.7-0.8c0.7,0.067,1.333,0.233,1.9,0.5L57.25,48.45z"/>
								
									<path style="fill-rule:evenodd;clip-rule:evenodd;fill:none;stroke:#D1DEEF;stroke-width:0.25;stroke-linejoin:round;stroke-miterlimit:3;" d="
									M57.25,48.45c1.567,0.933,2.3,2.3,2.2,4.1L59.4,54l1.15,0.9c0.667,0.5,1.15,1.15,1.45,1.95c0.3,0.767,0.367,1.566,0.2,2.4
									c-0.2,0.967-0.65,1.767-1.35,2.4c-0.567,0.533-1.184,0.867-1.85,1l-1.4,0.4l-0.5,1.3c-0.2,0.7-0.583,1.3-1.15,1.8
									c-0.733,0.667-1.567,1.05-2.5,1.15l-0.7,0.05c-0.733-0.067-1.367-0.25-1.9-0.55c-0.7-0.367-1.25-0.85-1.65-1.45l-0.75-1.25
									h-1.5c-0.833-0.034-1.6-0.284-2.3-0.75c-0.7-0.5-1.217-1.117-1.55-1.85c-0.8-1.633-0.6-3.184,0.6-4.65l0.9-1.1l-0.45-1.4
									c-0.233-0.8-0.233-1.6,0-2.4c0.233-0.833,0.65-1.534,1.25-2.1c0.867-0.833,1.934-1.217,3.2-1.15c0.433,0,0.9,0.083,1.4,0.25
									l1.35,0.55l1.2-0.8c0.8-0.567,1.7-0.833,2.7-0.8c0.7,0.067,1.333,0.233,1.9,0.5L57.25,48.45z"/>
							</g>
						</g>
						<path style="fill-rule:evenodd;clip-rule:evenodd;fill:#171E48;" d="M53.95,50.75c0.7-0.467,1.383-0.5,2.05-0.1
							c0.7,0.367,1.017,0.967,0.95,1.8L56.8,55.2l2.2,1.7c0.633,0.434,0.867,1.05,0.7,1.85c-0.034,0.367-0.217,0.717-0.55,1.05
							c-0.267,0.2-0.533,0.35-0.8,0.45l-2.7,0.7l-0.9,2.6c-0.067,0.267-0.233,0.517-0.5,0.75c-0.267,0.267-0.633,0.434-1.1,0.5
							c-0.8,0.1-1.4-0.183-1.8-0.85l-1.5-2.3l-2.8-0.1c-0.767,0-1.316-0.367-1.65-1.1c-0.4-0.733-0.316-1.4,0.25-2l1.7-2.15
							l-0.75-2.65c-0.233-0.767-0.05-1.417,0.55-1.95c0.567-0.567,1.217-0.7,1.95-0.4l2.6,1L53.95,50.75z"/>
						
							<linearGradient id="SVGID_30_" gradientUnits="userSpaceOnUse" x1="-31.625" y1="73.1172" x2="-19.2441" y2="73.1172" gradientTransform="matrix(0.4705 -0.8824 0.8824 0.4705 -5.645454e-004 -3.176928e-005)">
							<stop  offset="0" style="stop-color:#EDBF35"/>
							<stop  offset="0.2941" style="stop-color:#F0CA31"/>
							<stop  offset="0.8039" style="stop-color:#F9E728"/>
							<stop  offset="0.9647" style="stop-color:#FCF226"/>
						</linearGradient>
						<path style="fill-rule:evenodd;clip-rule:evenodd;fill:url(#SVGID_30_);" d="M54.5,51.5c0.3-0.267,0.65-0.283,1.05-0.05
							c0.4,0.233,0.567,0.55,0.5,0.95l-0.15,3.2l2.55,2c0.333,0.2,0.466,0.533,0.4,1c-0.067,0.233-0.167,0.417-0.3,0.55
							c-0.2,0.133-0.35,0.2-0.45,0.2L55,60.2l-1.1,3.05l-0.25,0.4l-0.6,0.3c-0.433,0-0.75-0.167-0.95-0.5l-1.8-2.7l-3.2-0.1
							c-0.434,0-0.733-0.183-0.9-0.55c-0.167-0.4-0.133-0.767,0.1-1.1l2.05-2.5l-0.9-3.1c-0.1-0.433,0-0.783,0.3-1.05
							c0.3-0.3,0.65-0.367,1.05-0.2l3,1.15L54.5,51.5z"/>
						<path style="fill-rule:evenodd;clip-rule:evenodd;fill:#F5FAD7;" d="M54.5,51.5c0.3-0.267,0.65-0.283,1.05-0.05
							c0.4,0.233,0.567,0.55,0.5,0.95l-0.15,3.2l2.55,2c0.333,0.2,0.466,0.533,0.4,1c-0.067,0.233-0.167,0.417-0.3,0.55
							c-0.19,0.127-0.332,0.194-0.425,0.2l0.075-0.3c0.1-0.433-0.017-0.767-0.35-1l-2.55-2l0.15-3.2c0-0.4-0.167-0.717-0.5-0.95
							c-0.367-0.233-0.733-0.217-1.1,0.05l-2.65,1.8l-3.05-1.15c-0.2-0.067-0.383-0.083-0.55-0.05c0.033-0.1,0.083-0.167,0.15-0.2
							c0.3-0.3,0.65-0.367,1.05-0.2l3,1.15L54.5,51.5z"/>
					</g>
				</g>
			</g>
			<g>
				<g>
					<g>
						<g>
							<g>
								<linearGradient id="SVGID_31_" gradientUnits="userSpaceOnUse" x1="114.6357" y1="48.3887" x2="123.6607" y2="65.3137">
									<stop  offset="0" style="stop-color:#26313D"/>
									<stop  offset="0.2196" style="stop-color:#3E4C5E"/>
									<stop  offset="0.702" style="stop-color:#7A90B1"/>
									<stop  offset="1" style="stop-color:#A2BCE7"/>
								</linearGradient>
								<path style="fill-rule:evenodd;clip-rule:evenodd;fill:url(#SVGID_31_);" d="M126.3,49.85c0.601,0.566,1.017,1.267,1.25,2.1
									c0.233,0.8,0.233,1.6,0,2.4l-0.45,1.4l0.9,1.1c1.167,1.433,1.366,2.983,0.6,4.65c-0.333,0.733-0.85,1.35-1.55,1.85
									c-0.7,0.466-1.467,0.716-2.3,0.75h-1.5l-0.75,1.25c-0.467,0.633-1.017,1.117-1.65,1.45c-0.533,0.3-1.166,0.483-1.899,0.55
									l-0.7-0.05c-0.934-0.1-1.767-0.483-2.5-1.15c-0.566-0.467-0.95-1.066-1.15-1.8l-0.5-1.3l-1.399-0.4
									c-0.667-0.133-1.283-0.467-1.851-1c-0.699-0.633-1.149-1.433-1.35-2.4c-0.167-0.833-0.1-1.633,0.2-2.4
									c0.3-0.8,0.783-1.45,1.45-1.95L112.3,54l-0.1-1.45c-0.066-1.833,0.684-3.2,2.25-4.1l0.1-0.05c0.566-0.267,1.2-0.433,1.9-0.5
									c1-0.033,1.899,0.233,2.7,0.8l1.199,0.8l1.351-0.55c0.5-0.167,0.967-0.25,1.399-0.25
									C124.366,48.633,125.434,49.017,126.3,49.85z"/>
								
									<path style="fill-rule:evenodd;clip-rule:evenodd;fill:none;stroke:#D1DEEF;stroke-width:0.25;stroke-linejoin:round;stroke-miterlimit:3;" d="
									M126.3,49.85c0.601,0.566,1.017,1.267,1.25,2.1c0.233,0.8,0.233,1.6,0,2.4l-0.45,1.4l0.9,1.1
									c1.167,1.433,1.366,2.983,0.6,4.65c-0.333,0.733-0.85,1.35-1.55,1.85c-0.7,0.466-1.467,0.716-2.3,0.75h-1.5l-0.75,1.25
									c-0.467,0.633-1.017,1.117-1.65,1.45c-0.533,0.3-1.166,0.483-1.899,0.55l-0.7-0.05c-0.934-0.1-1.767-0.483-2.5-1.15
									c-0.566-0.467-0.95-1.066-1.15-1.8l-0.5-1.3l-1.399-0.4c-0.667-0.133-1.283-0.467-1.851-1
									c-0.699-0.633-1.149-1.433-1.35-2.4c-0.167-0.833-0.1-1.633,0.2-2.4c0.3-0.8,0.783-1.45,1.45-1.95L112.3,54l-0.1-1.45
									c-0.066-1.833,0.684-3.2,2.25-4.1l0.1-0.05c0.566-0.267,1.2-0.433,1.9-0.5c1-0.033,1.899,0.233,2.7,0.8l1.199,0.8
									l1.351-0.55c0.5-0.167,0.967-0.25,1.399-0.25C124.366,48.633,125.434,49.017,126.3,49.85z"/>
							</g>
						</g>
						<path style="fill-rule:evenodd;clip-rule:evenodd;fill:#171E48;" d="M117.7,50.75l2.3,1.55l2.6-1
							c0.733-0.3,1.384-0.167,1.95,0.4c0.601,0.533,0.783,1.183,0.55,1.95l-0.75,2.65l1.7,2.15c0.566,0.6,0.65,1.267,0.25,2
							c-0.333,0.733-0.883,1.1-1.649,1.1l-2.801,0.1l-1.5,2.3c-0.433,0.667-1.033,0.95-1.8,0.85c-0.467-0.066-0.833-0.233-1.1-0.5
							c-0.233-0.233-0.4-0.483-0.5-0.75l-0.9-2.6l-2.7-0.7c-0.267-0.1-0.533-0.25-0.8-0.45c-0.333-0.333-0.517-0.683-0.55-1.05
							c-0.167-0.8,0.066-1.417,0.7-1.85l2.2-1.7l-0.15-2.75c-0.066-0.833,0.25-1.434,0.95-1.8
							C116.4,50.25,117.066,50.283,117.7,50.75z"/>
						<linearGradient id="SVGID_32_" gradientUnits="userSpaceOnUse" x1="124.707" y1="59.5859" x2="113.357" y2="54.6609">
							<stop  offset="0" style="stop-color:#EDBF35"/>
							<stop  offset="0.2941" style="stop-color:#F0CA31"/>
							<stop  offset="0.8039" style="stop-color:#F9E728"/>
							<stop  offset="0.9647" style="stop-color:#FCF226"/>
						</linearGradient>
						<path style="fill-rule:evenodd;clip-rule:evenodd;fill:url(#SVGID_32_);" d="M117.2,51.5l2.7,1.8l3-1.15
							c0.399-0.167,0.75-0.1,1.05,0.2c0.3,0.267,0.399,0.617,0.3,1.05l-0.9,3.1l2,2.5c0.267,0.3,0.317,0.667,0.15,1.1
							c-0.167,0.367-0.467,0.55-0.9,0.55l-3.199,0.1l-1.801,2.7c-0.199,0.333-0.517,0.5-0.949,0.5l-0.601-0.3l-0.25-0.4l-1.1-3.05
							l-3.101-0.85c-0.1,0-0.25-0.067-0.449-0.2c-0.134-0.133-0.233-0.316-0.301-0.55c-0.066-0.467,0.067-0.8,0.4-1l2.55-2
							l-0.149-3.2c-0.067-0.4,0.1-0.717,0.5-0.95C116.55,51.217,116.9,51.233,117.2,51.5z"/>
						<path style="fill-rule:evenodd;clip-rule:evenodd;fill:#F5FAD7;" d="M117.2,51.5l2.7,1.8l3-1.15
							c0.399-0.167,0.75-0.1,1.05,0.2c0.066,0.033,0.116,0.1,0.149,0.2c-0.133-0.033-0.333-0.017-0.6,0.05l-3,1.15l-2.65-1.8
							c-0.366-0.267-0.733-0.284-1.1-0.05c-0.4,0.233-0.566,0.55-0.5,0.95l0.15,3.2l-2.551,2c-0.333,0.2-0.466,0.534-0.399,1
							l0.125,0.3c-0.098-0.009-0.239-0.076-0.425-0.2c-0.134-0.133-0.233-0.316-0.301-0.55c-0.066-0.467,0.067-0.8,0.4-1l2.55-2
							l-0.149-3.2c-0.067-0.4,0.1-0.717,0.5-0.95C116.55,51.217,116.9,51.233,117.2,51.5z"/>
					</g>
				</g>
			</g>
		</g>
		
			<use xlink:href="#FlashAICB_x2F_Layer_1_x2F__x3C_Path_x3E_"  width="128.6" height="61.9" y="-61.9" transform="matrix(1 0 0 -1 21.5498 85.9502)" style="overflow:visible;opacity:0.4688;enable-background:new    ;"/>
		<g>
			
				<use xlink:href="#FlashAICB_x2F_Layer_1_x2F__x3C_Path_x3E__x5F_1_x5F_0"  width="119.2" height="60.45" y="-60.45" transform="matrix(1 0 0 -1 26.25 22.25)" style="overflow:visible;opacity:0.1992;enable-background:new    ;"/>
			
				<use xlink:href="#FlashAICB_x2F_Layer_1_x2F__x3C_Path_x3E__x5F_0"  width="119.2" height="66.417" y="-66.417" transform="matrix(1 0 0 -1 26.25 22.25)" style="overflow:visible;opacity:0.0781;enable-background:new    ;"/>
		</g>
	</g>
</g>
</svg>
