<?xml version="1.0" encoding="iso-8859-1"?>
<!-- Generator: Adobe Illustrator 15.1.0, SVG Export Plug-In . SVG Version: 6.00 Build 0)  -->
<!DOCTYPE svg PUBLIC "-//W3C//DTD SVG 1.1//EN" "http://www.w3.org/Graphics/SVG/1.1/DTD/svg11.dtd">
<svg version="1.1" id="Layer_36_copy_5" xmlns="http://www.w3.org/2000/svg" xmlns:xlink="http://www.w3.org/1999/xlink" x="0px"
	 y="0px" width="171.5px" height="171.5px" viewBox="0 0 171.5 171.5" style="enable-background:new 0 0 171.5 171.5;"
	 xml:space="preserve">
<symbol  id="FlashAICB_x2F_Layer_36_copy_5_x2F__x3C_Path_x3E_" viewBox="0 -61.294 110 61.294">
	<g id="Layer_1_4_">
		<path style="fill-rule:evenodd;clip-rule:evenodd;fill:#FFFFFF;" d="M106.5-34.4c2.333-5.633,3.5-10.934,3.5-15.9
			c0-4.967-1.45-8.083-4.35-9.35c-2.333-1.067-6.25-1.05-11.75,0.05c-7.267,1.767-13.1,3.117-17.5,4.05C68.4-53.85,61.267-53,55-53
			c-6.333,0-13.467-0.917-21.4-2.75c-8.333-2.2-14.167-3.683-17.5-4.45c-5.533-1.267-9.467-1.433-11.8-0.5
			C1.433-59.5,0-56.433,0-51.5c0,5.467,1.167,11.117,3.5,16.95C5.967-28.383,9.45-22.8,13.95-17.8C24.65-5.933,38.333,0,55,0
			c16.467,0,30.133-6,41-18C100.467-22.9,103.967-28.367,106.5-34.4z"/>
	</g>
</symbol>
<symbol  id="FlashAICB_x2F_Layer_36_copy_5_x2F__x3C_Path_x3E__x5F_1" viewBox="0 -55.8 110 55.8">
	<g id="Layer_1_3_">
		
			<linearGradient id="SVGID_1_" gradientUnits="userSpaceOnUse" x1="16165.3076" y1="-53.8555" x2="16221.0527" y2="-53.8555" gradientTransform="matrix(1.792918e-005 1 -1 -0.001 0.8545 -16221.1064)">
			<stop  offset="0.1294" style="stop-color:#E2B8B2"/>
			<stop  offset="0.9255" style="stop-color:#FFFFFF"/>
		</linearGradient>
		<path style="fill-rule:evenodd;clip-rule:evenodd;fill:url(#SVGID_1_);" d="M96-18c4.467-4.9,7.967-10.367,10.5-16.4
			c2.333-5.633,3.5-10.934,3.5-15.9c0-1.767-0.167-3.25-0.5-4.45c-1.833,11.067-7.217,20.9-16.15,29.5
			C82.783-15.117,70-10.05,55-10.05c-15.267,0-28.1-5.05-38.5-15.15c-9-8.733-14.35-18.933-16.05-30.6C0.15-54.6,0-53.167,0-51.5
			c0,5.467,1.167,11.117,3.5,16.95C5.967-28.383,9.45-22.8,13.95-17.8C24.65-5.933,38.333,0,55,0C71.467,0,85.133-6,96-18z"/>
	</g>
</symbol>
<symbol  id="FlashAICB_x2F_Layer_36_copy_5_x2F__x3C_Path_x3E__x5F_2" viewBox="0 -57.15 118.7 57.15">
	<g id="Layer_1_2_">
		
			<radialGradient id="SVGID_2_" cx="59.3501" cy="-28.5752" r="46.5777" gradientTransform="matrix(1 0 0 -1 0 -57.1504)" gradientUnits="userSpaceOnUse">
			<stop  offset="0" style="stop-color:#000000;stop-opacity:0"/>
			<stop  offset="0.651" style="stop-color:#000000;stop-opacity:0.4"/>
		</radialGradient>
		<path style="fill-rule:evenodd;clip-rule:evenodd;fill:url(#SVGID_2_);" d="M95.5-30.35c10.7,7.7,18.25,17.733,22.65,30.1L118.7,0
			c-0.6-15.9-6.65-29.4-18.15-40.5S75.3-57.15,59.3-57.15c-15.733,0-29.316,5.367-40.75,16.1C7.183-30.35,1-17.233,0-1.7
			c4.6-12,12.183-21.683,22.75-29.05C33.55-38.317,45.567-42.1,58.8-42.1C72.333-42.1,84.567-38.183,95.5-30.35z"/>
	</g>
</symbol>
<g>
	<path style="fill-rule:evenodd;clip-rule:evenodd;fill:#68757B;" d="M146.35,25.15c7.934,7.899,14.067,16.982,18.4,27.25
		c4.5,10.633,6.75,21.75,6.75,33.35s-2.25,22.717-6.75,33.35c-4.333,10.267-10.467,19.351-18.4,27.25
		c-7.899,7.934-16.982,14.067-27.25,18.4c-10.633,4.5-21.75,6.75-33.35,6.75c-11.6,0-22.717-2.25-33.35-6.75
		c-10.267-4.333-19.35-10.467-27.25-18.4c-7.933-7.899-14.066-16.983-18.4-27.25C2.25,108.467,0,97.35,0,85.75
		S2.25,63.033,6.75,52.4c4.333-10.268,10.467-19.351,18.4-27.25c7.9-7.934,16.983-14.067,27.25-18.4C63.033,2.25,74.15,0,85.75,0
		c11.6,0,22.717,2.25,33.35,6.75C129.367,11.083,138.45,17.217,146.35,25.15z"/>
	
		<linearGradient id="SVGID_3_" gradientUnits="userSpaceOnUse" x1="-171.5854" y1="85.75" x2="-0.0854" y2="85.75" gradientTransform="matrix(5.830904e-006 -1 1 -0.001 -9.214067e-005 4.449275e-004)">
		<stop  offset="0.0039" style="stop-color:#4F1D1F"/>
		<stop  offset="0.2078" style="stop-color:#7D5F3C"/>
		<stop  offset="0.5569" style="stop-color:#B09A68"/>
		<stop  offset="0.7412" style="stop-color:#EEEDCF"/>
		<stop  offset="0.7922" style="stop-color:#E7E1AD"/>
		<stop  offset="1" style="stop-color:#B9A57A"/>
	</linearGradient>
	<path style="fill-rule:evenodd;clip-rule:evenodd;fill:url(#SVGID_3_);" d="M146.35,25.15c7.934,7.899,14.067,16.982,18.4,27.25
		c4.5,10.633,6.75,21.75,6.75,33.35s-2.25,22.717-6.75,33.35c-4.333,10.267-10.467,19.351-18.4,27.25
		c-7.899,7.934-16.982,14.067-27.25,18.4c-10.633,4.5-21.75,6.75-33.35,6.75c-11.6,0-22.717-2.25-33.35-6.75
		c-10.267-4.333-19.35-10.467-27.25-18.4c-7.933-7.899-14.066-16.983-18.4-27.25C2.25,108.467,0,97.35,0,85.75
		S2.25,63.033,6.75,52.4c4.333-10.268,10.467-19.351,18.4-27.25c7.9-7.934,16.983-14.067,27.25-18.4C63.033,2.25,74.15,0,85.75,0
		c11.6,0,22.717,2.25,33.35,6.75C129.367,11.083,138.45,17.217,146.35,25.15z"/>
	<g>
		<g>
			
				<linearGradient id="SVGID_4_" gradientUnits="userSpaceOnUse" x1="-158.2358" y1="85.751" x2="-13.4351" y2="85.751" gradientTransform="matrix(6.906077e-006 -1 1 -0.001 -1.647736e-004 4.449275e-004)">
				<stop  offset="0.0431" style="stop-color:#BAA270"/>
				<stop  offset="1" style="stop-color:#73624A"/>
			</linearGradient>
			<path style="fill-rule:evenodd;clip-rule:evenodd;fill:url(#SVGID_4_);" d="M152.45,57.55c3.8,8.967,5.7,18.367,5.7,28.2
				s-1.9,19.233-5.7,28.2c-3.667,8.666-8.833,16.333-15.5,23c-6.667,6.666-14.333,11.833-23,15.5c-8.967,3.8-18.367,5.7-28.2,5.7
				c-9.833,0-19.233-1.9-28.2-5.7c-8.667-3.667-16.333-8.834-23-15.5c-6.667-6.667-11.833-14.334-15.5-23
				c-3.8-8.967-5.7-18.367-5.7-28.2s1.9-19.233,5.7-28.2c3.667-8.667,8.833-16.333,15.5-23c6.667-6.667,14.333-11.833,23-15.5
				c8.967-3.8,18.367-5.7,28.2-5.7c9.833,0,19.233,1.9,28.2,5.7c8.667,3.667,16.333,8.833,23,15.5S148.783,48.883,152.45,57.55z"/>
		</g>
	</g>
</g>
<g>
	
		<linearGradient id="SVGID_5_" gradientUnits="userSpaceOnUse" x1="-151.9858" y1="85.7759" x2="-19.6353" y2="85.7759" gradientTransform="matrix(7.555724e-006 -1 1 -0.001 2.190953e-004 4.449275e-004)">
		<stop  offset="0.0745" style="stop-color:#B85E97"/>
		<stop  offset="0.2667" style="stop-color:#D167A8"/>
		<stop  offset="0.5333" style="stop-color:#F976C5"/>
		<stop  offset="1" style="stop-color:#F8EFD5"/>
	</linearGradient>
	<path style="fill-rule:evenodd;clip-rule:evenodd;fill:url(#SVGID_5_);" d="M85.75,19.55c18.267,0,33.867,6.467,46.8,19.4
		c12.934,12.933,19.4,28.533,19.4,46.8c0,18.233-6.467,33.816-19.4,46.75c-12.933,12.934-28.533,19.4-46.8,19.4
		c-18.233,0-33.816-6.467-46.75-19.4c-12.934-12.9-19.4-28.483-19.4-46.75s6.466-33.867,19.4-46.8
		C51.934,26.017,67.517,19.55,85.75,19.55z"/>
	<path style="fill-rule:evenodd;clip-rule:evenodd;fill:#2A4821;" d="M85.75,20.4c-18.033,0-33.434,6.383-46.2,19.149
		S20.4,67.717,20.4,85.75c0,18.066,6.383,33.467,19.15,46.2c12.767,12.767,28.167,19.149,46.2,19.149
		c18.066,0,33.467-6.383,46.2-19.149c12.767-12.733,19.149-28.134,19.149-46.2c0-18.033-6.383-33.434-19.149-46.2
		C119.217,26.783,103.816,20.4,85.75,20.4z M133.15,38.35c6.333,6.334,11.183,13.584,14.55,21.75
		c3.366,8.134,5.05,16.684,5.05,25.65s-1.684,17.517-5.05,25.65c-3.367,8.133-8.217,15.366-14.55,21.699
		c-6.301,6.334-13.551,11.2-21.75,14.601c-8.134,3.366-16.684,5.05-25.65,5.05s-17.517-1.684-25.65-5.05
		c-8.133-3.4-15.367-8.267-21.7-14.601c-6.333-6.333-11.2-13.566-14.6-21.699c-3.366-8.134-5.05-16.684-5.05-25.65
		s1.684-17.517,5.05-25.65c3.4-8.166,8.267-15.416,14.6-21.75c6.333-6.333,13.567-11.183,21.7-14.55
		c8.133-3.366,16.683-5.05,25.65-5.05s17.517,1.684,25.65,5.05C119.566,27.167,126.816,32.017,133.15,38.35z"/>
</g>
<radialGradient id="SVGID_6_" cx="85.75" cy="83.75" r="59.3999" gradientTransform="matrix(1 0 0 -1 0 167.5)" gradientUnits="userSpaceOnUse">
	<stop  offset="0.1059" style="stop-color:#F8EFD5"/>
	<stop  offset="0.5882" style="stop-color:#FA8BC5"/>
	<stop  offset="0.7098" style="stop-color:#F789C3;stop-opacity:0.9686"/>
	<stop  offset="0.8039" style="stop-color:#ED82BC;stop-opacity:0.8706"/>
	<stop  offset="0.8824" style="stop-color:#DE78B1;stop-opacity:0.7059"/>
	<stop  offset="0.9608" style="stop-color:#C768A2;stop-opacity:0.4745"/>
	<stop  offset="1" style="stop-color:#B85E97;stop-opacity:0.3176"/>
</radialGradient>
<path style="fill-rule:evenodd;clip-rule:evenodd;fill:url(#SVGID_6_);" d="M127.8,41.8C139.4,53.4,145.2,67.383,145.2,83.75
	c0,16.366-5.8,30.35-17.4,41.95c-11.6,11.6-25.616,17.399-42.05,17.399c-16.4,0-30.4-5.8-42-17.399
	C32.117,114.1,26.3,100.116,26.3,83.75c0-16.367,5.817-30.35,17.45-41.95c11.6-11.6,25.6-17.399,42-17.399
	C102.184,24.4,116.2,30.2,127.8,41.8z"/>
<g>
	<path style="fill-rule:evenodd;clip-rule:evenodd;fill:#D1DEEF;" d="M83.45,65.75h2.05c11.434,0,20.75,3.866,27.95,11.6
		c6.3,6.801,9.85,15.051,10.649,24.75c0.667,8.267-0.833,15.867-4.5,22.801c-4.399,8.3-11.316,13.982-20.75,17.05l-0.5,0.2
		c-2.3,0.666-4.217,1.116-5.75,1.35l-0.55,0.1C89.717,144,87.4,144.2,85.1,144.2H84.95c-11.3,0-20.517-4.25-27.65-12.75
		c-6.433-7.7-9.767-16.817-10-27.351c-0.233-10.033,2.55-18.566,8.35-25.6C62.217,70.533,71.483,66.283,83.45,65.75z"/>
	
		<path style="fill-rule:evenodd;clip-rule:evenodd;fill:none;stroke:#D1DEEF;stroke-width:0.25;stroke-linejoin:round;stroke-miterlimit:3;" d="
		M83.45,65.75c-11.967,0.533-21.233,4.783-27.8,12.75c-5.8,7.033-8.583,15.566-8.35,25.6c0.233,10.533,3.567,19.65,10,27.351
		c7.134,8.5,16.35,12.75,27.65,12.75H85.1c2.301,0,4.617-0.2,6.95-0.601l0.55-0.1c1.533-0.233,3.45-0.684,5.75-1.35l0.5-0.2
		c9.434-3.067,16.351-8.75,20.75-17.05c3.667-6.934,5.167-14.534,4.5-22.801c-0.8-9.699-4.35-17.949-10.649-24.75
		c-7.2-7.733-16.517-11.6-27.95-11.6H83.45z"/>
	
		<linearGradient id="SVGID_7_" gradientUnits="userSpaceOnUse" x1="-143.2847" y1="85.771" x2="-64.835" y2="85.771" gradientTransform="matrix(1.274697e-005 -1 1 -0.001 -1.759078e-004 4.449275e-004)">
		<stop  offset="0" style="stop-color:#CA2897"/>
		<stop  offset="0.1686" style="stop-color:#D148A0"/>
		<stop  offset="0.5255" style="stop-color:#E58FB7"/>
		<stop  offset="0.902" style="stop-color:#FDDDD1"/>
	</linearGradient>
	<path style="fill-rule:evenodd;clip-rule:evenodd;fill:url(#SVGID_7_);" d="M83.45,64.8l2.05-0.05c11.434,0,20.75,3.866,27.95,11.6
		c6.3,6.801,9.85,15.067,10.649,24.801c0.667,8.232-0.833,15.816-4.5,22.75c-4.433,8.333-11.35,14.033-20.75,17.1l-0.5,0.15
		c-1.8,0.566-3.717,1.033-5.75,1.399l-0.55,0.101c-2.467,0.366-4.783,0.55-6.95,0.55H84.95c-11.3,0-20.517-4.25-27.65-12.75
		c-6.433-7.7-9.767-16.817-10-27.351c-0.233-10.033,2.55-18.566,8.35-25.6C62.217,69.566,71.483,65.333,83.45,64.8z"/>
	<path style="fill-rule:evenodd;clip-rule:evenodd;fill:none;stroke:#F7E0E7;stroke-width:0.25;" d="M83.45,64.8
		c-11.967,0.533-21.233,4.767-27.8,12.7c-5.8,7.033-8.583,15.566-8.35,25.6c0.233,10.533,3.567,19.65,10,27.351
		c7.134,8.5,16.35,12.75,27.65,12.75H85.1c2.167,0,4.483-0.184,6.95-0.55l0.55-0.101c2.033-0.366,3.95-0.833,5.75-1.399l0.5-0.15
		c9.4-3.066,16.317-8.767,20.75-17.1c3.667-6.934,5.167-14.518,4.5-22.75c-0.8-9.733-4.35-18-10.649-24.801
		c-7.2-7.733-16.517-11.6-27.95-11.6L83.45,64.8z"/>
	<path style="fill-rule:evenodd;clip-rule:evenodd;fill:#111838;" d="M111.3,78.45c5.833,6.3,9.117,13.95,9.851,22.95
		c0.666,8-0.851,15.267-4.551,21.8c-4.1,7.3-10.316,12.3-18.649,15l-0.25,0.1l-0.25,0.05c-1.867,0.601-3.684,1.033-5.45,1.301
		l-0.3,0.05c-2.233,0.399-4.434,0.6-6.601,0.6H84.95c-10.4-0.033-18.9-3.983-25.5-11.85c-5.934-7.167-9-15.634-9.2-25.4
		c-0.233-9.233,2.333-17.1,7.7-23.6c6.033-7.334,14.566-11.233,25.6-11.7l1.95-0.05C96.066,67.7,104.667,71.283,111.3,78.45z"/>
	<g>
		<path style="fill-rule:evenodd;clip-rule:evenodd;fill:#F9F2E1;" d="M109.6,77.7c6.167,5.967,9.75,13.517,10.75,22.649
			c1,9.134-0.866,17.25-5.6,24.351c-5.2,7.833-12.883,12.583-23.05,14.25c-11.1,1.899-20.467-0.55-28.1-7.351
			c-6.9-6.066-11-14.1-12.3-24.1c-1.3-10.033,0.667-18.7,5.9-26c5.866-8.2,14.667-12.55,26.4-13.05
			C94.1,68.017,102.767,71.1,109.6,77.7z"/>
		
			<linearGradient id="SVGID_8_" gradientUnits="userSpaceOnUse" x1="71.3516" y1="-85.9014" x2="138.4766" y2="-85.9014" gradientTransform="matrix(1.489758e-005 1 -1 -0.001 -3.190722e-004 -4.335376e-005)">
			<stop  offset="0" style="stop-color:#EDE6D5"/>
			<stop  offset="1" style="stop-color:#CEC8BA"/>
		</linearGradient>
		<path style="fill-rule:evenodd;clip-rule:evenodd;fill:url(#SVGID_8_);" d="M109.25,78.6c6.066,5.867,9.6,13.317,10.6,22.351
			c0.967,9-0.866,16.983-5.5,23.95c-5.133,7.732-12.683,12.416-22.649,14.05c-10.867,1.866-20.067-0.533-27.6-7.2
			c-6.733-6-10.733-13.917-12-23.75c-1.3-9.9,0.617-18.45,5.75-25.65c5.767-8.066,14.4-12.35,25.9-12.85
			C94.05,69.066,102.55,72.1,109.25,78.6z"/>
		<path style="fill-rule:evenodd;clip-rule:evenodd;fill:#F6F0DF;" d="M104.45,86.05c4.667,4.434,7.366,10.083,8.1,16.95
			c0.767,6.833-0.633,12.9-4.2,18.2c-3.899,5.866-9.683,9.433-17.35,10.7c-8.333,1.399-15.383-0.434-21.15-5.5
			c-5.2-4.567-8.284-10.584-9.25-18.051c-0.967-7.5,0.517-13.983,4.45-19.449c4.4-6.134,11.017-9.384,19.85-9.75
			C92.8,78.816,99.316,81.116,104.45,86.05z"/>
		<path style="fill-rule:evenodd;clip-rule:evenodd;fill:#314C59;" d="M104.45,85.2c4.667,4.433,7.366,10.05,8.1,16.85
			c0.767,6.767-0.633,12.8-4.2,18.101c-3.899,5.8-9.683,9.316-17.35,10.55c-8.333,1.399-15.383-0.417-21.15-5.45
			c-5.2-4.5-8.284-10.467-9.25-17.9c-0.967-7.433,0.517-13.866,4.45-19.3c4.4-6.1,11.017-9.333,19.85-9.7
			C92.8,78.017,99.316,80.3,104.45,85.2z"/>
		<path style="fill-rule:evenodd;clip-rule:evenodd;fill:#426375;" d="M103.8,86.2c4.5,4.333,7.101,9.833,7.8,16.5
			c0.733,6.633-0.616,12.517-4.05,17.649c-3.767,5.7-9.333,9.15-16.7,10.351c-8.033,1.366-14.833-0.417-20.399-5.351
			c-5-4.399-7.967-10.217-8.9-17.449c-0.933-7.301,0.5-13.601,4.3-18.9c4.233-5.967,10.6-9.134,19.1-9.5
			C92.55,79.167,98.833,81.4,103.8,86.2z"/>
		<path style="fill-rule:evenodd;clip-rule:evenodd;fill:#274655;" d="M78.8,117.95l-1.35,1.25H97.7l-1.351-1.25H78.8z
			 M94.45,114.75c0.2-0.2,0.45-0.3,0.75-0.3c0.3-0.033,0.566,0.05,0.8,0.25l7.5,6.8c0.233,0.2,0.35,0.45,0.35,0.75
			c0,0.267-0.1,0.517-0.3,0.75c-0.233,0.2-0.5,0.316-0.8,0.35c-0.3,0-0.566-0.1-0.8-0.3l-1.55-1.45l-0.25,0.051H75l-0.2-0.051
			l-1.6,1.45c-0.233,0.2-0.5,0.3-0.8,0.3c-0.3-0.033-0.55-0.149-0.75-0.35c-0.233-0.233-0.333-0.483-0.3-0.75
			c0-0.3,0.117-0.55,0.35-0.75l7.5-6.8c0.2-0.2,0.45-0.283,0.75-0.25c0.3,0,0.566,0.1,0.8,0.3c0.2,0.267,0.3,0.517,0.3,0.75H94.15
			C94.117,115.267,94.217,115.017,94.45,114.75z"/>
		<path style="fill-rule:evenodd;clip-rule:evenodd;fill:#274655;" d="M82.1,102.5c-0.434-0.4-0.95-0.6-1.55-0.6
			c-0.566,0-1.066,0.199-1.5,0.6c-0.4,0.4-0.6,0.866-0.6,1.4c0,0.566,0.2,1.05,0.6,1.449c0.434,0.4,0.934,0.601,1.5,0.601
			c0.6,0,1.117-0.2,1.55-0.601c0.4-0.399,0.6-0.883,0.6-1.449C82.7,103.333,82.5,102.866,82.1,102.5z M79.55,89.45
			c-0.433,0-0.816,0.166-1.15,0.5c-0.333,0.333-0.5,0.717-0.5,1.149v5.7c0,0.467,0.167,0.851,0.5,1.15
			c0.333,0.333,0.717,0.5,1.15,0.5h7.2v-9H79.55z M94.6,101.9c-0.566,0-1.066,0.199-1.5,0.6c-0.399,0.4-0.6,0.866-0.6,1.4
			c0,0.566,0.2,1.05,0.6,1.449c0.434,0.4,0.934,0.601,1.5,0.601c0.601,0,1.117-0.2,1.551-0.601c0.399-0.399,0.6-0.883,0.6-1.449
			c0-0.567-0.2-1.034-0.6-1.4C95.717,102.1,95.2,101.9,94.6,101.9z M98.85,87.7c0.567,0.533,0.851,1.2,0.851,2v20.649
			c0,0.767-0.283,1.434-0.851,2c-0.6,0.567-1.3,0.851-2.1,0.851h-18.3c-0.833,0-1.534-0.283-2.1-0.851c-0.6-0.566-0.9-1.233-0.9-2
			V89.7c0-0.8,0.3-1.467,0.9-2c0.566-0.567,1.267-0.851,2.1-0.851h18.3C97.55,86.85,98.25,87.133,98.85,87.7z M96.8,89.95
			c-0.3-0.334-0.683-0.5-1.149-0.5h-7.2v9h7.2c0.467,0,0.85-0.167,1.149-0.5c0.333-0.3,0.5-0.684,0.5-1.15v-5.7
			C97.3,90.667,97.133,90.283,96.8,89.95z"/>
		<path style="fill-rule:evenodd;clip-rule:evenodd;fill:#F9F2E1;" d="M77.95,116.45l-1.35,1.2h20.25l-1.35-1.2H77.95z M93.25,114
			c0-0.3,0.1-0.55,0.3-0.75c0.233-0.233,0.5-0.35,0.8-0.35c0.301,0,0.567,0.1,0.801,0.3l7.5,6.75c0.232,0.2,0.35,0.45,0.35,0.75
			c0,0.267-0.1,0.517-0.3,0.75c-0.233,0.233-0.5,0.35-0.8,0.35c-0.301,0-0.567-0.1-0.801-0.3l-1.6-1.45l-0.25,0.05H74.1l-0.15-0.05
			l-1.6,1.45c-0.233,0.2-0.5,0.3-0.8,0.3c-0.3,0-0.55-0.116-0.75-0.35c-0.233-0.233-0.333-0.483-0.3-0.75
			c0-0.3,0.117-0.55,0.35-0.75l7.45-6.75c0.534-0.5,1.067-0.483,1.6,0.05c0.2,0.2,0.3,0.45,0.3,0.75H93.25z"/>
		<path style="fill-rule:evenodd;clip-rule:evenodd;fill:#F9F2E1;" d="M81.25,100.95c-0.434-0.4-0.95-0.601-1.55-0.601
			c-0.567,0-1.067,0.2-1.5,0.601c-0.434,0.399-0.65,0.883-0.65,1.45c0,0.533,0.217,1,0.65,1.399c0.433,0.4,0.933,0.601,1.5,0.601
			c0.6,0,1.116-0.2,1.55-0.601c0.4-0.366,0.6-0.833,0.6-1.399C81.85,101.833,81.65,101.35,81.25,100.95z M77.5,88.4
			c-0.3,0.333-0.45,0.716-0.45,1.149v5.7c0,0.467,0.15,0.85,0.45,1.15c0.333,0.333,0.717,0.5,1.15,0.5h7.25v-8.95h-7.25
			C78.217,87.95,77.833,88.1,77.5,88.4z M93.75,100.35c-0.566,0-1.066,0.2-1.5,0.601c-0.4,0.399-0.6,0.883-0.6,1.45
			c0,0.566,0.199,1.033,0.6,1.399c0.434,0.4,0.934,0.601,1.5,0.601c0.6,0,1.117-0.2,1.55-0.601c0.4-0.366,0.601-0.833,0.601-1.399
			c0-0.567-0.2-1.051-0.601-1.45C94.867,100.55,94.35,100.35,93.75,100.35z M97.95,86.15c0.6,0.533,0.899,1.199,0.899,2V108.8
			c0,0.8-0.3,1.483-0.899,2.05c-0.567,0.533-1.267,0.801-2.101,0.801H77.6c-0.833,0-1.534-0.268-2.1-0.801
			c-0.6-0.566-0.9-1.25-0.9-2.05V88.15c0-0.801,0.3-1.467,0.9-2c0.566-0.567,1.267-0.851,2.1-0.851h18.25
			C96.684,85.3,97.383,85.583,97.95,86.15z M95.95,88.4c-0.3-0.301-0.684-0.45-1.15-0.45h-7.2v8.95h7.2
			c0.434,0,0.817-0.167,1.15-0.5c0.3-0.301,0.45-0.684,0.45-1.15v-5.7C96.4,89.116,96.25,88.733,95.95,88.4z"/>
		<path style="fill-rule:evenodd;clip-rule:evenodd;fill:#E2DCCD;" d="M78.15,117l-1.35,1.2h20.25L95.7,117H78.15z M93.45,114.55
			c0-0.3,0.1-0.55,0.3-0.75c0.533-0.533,1.066-0.55,1.6-0.05l7.45,6.75c0.233,0.2,0.351,0.45,0.351,0.75
			c0.033,0.3-0.067,0.55-0.301,0.75c-0.199,0.233-0.449,0.35-0.75,0.35c-0.3,0-0.566-0.1-0.8-0.3l-1.6-1.45l-0.25,0.051H74.1
			l-1.55,1.399c-0.233,0.2-0.5,0.3-0.8,0.3s-0.566-0.116-0.8-0.35c-0.2-0.2-0.3-0.45-0.3-0.75s0.117-0.55,0.35-0.75l7.5-6.75
			c0.233-0.2,0.5-0.3,0.8-0.3c0.3,0,0.55,0.116,0.75,0.35c0.267,0.2,0.367,0.45,0.3,0.75H93.45z"/>
		<path style="fill-rule:evenodd;clip-rule:evenodd;fill:#E2DCCD;" d="M81.4,101.5c-0.433-0.4-0.933-0.6-1.5-0.6
			c-0.6,0-1.1,0.199-1.5,0.6c-0.433,0.4-0.65,0.883-0.65,1.45c0,0.566,0.217,1.05,0.65,1.45c0.4,0.399,0.9,0.6,1.5,0.6
			c0.567,0,1.067-0.2,1.5-0.6c0.4-0.4,0.6-0.884,0.6-1.45C82,102.383,81.8,101.9,81.4,101.5z M77.7,88.95
			c-0.333,0.333-0.5,0.717-0.5,1.149v5.7c0,0.467,0.167,0.851,0.5,1.15c0.333,0.333,0.716,0.5,1.15,0.5h7.2V88.5h-7.2
			C78.383,88.5,78,88.65,77.7,88.95z M93.95,100.9c-0.601,0-1.101,0.199-1.5,0.6c-0.434,0.4-0.65,0.883-0.65,1.45
			c0,0.566,0.217,1.05,0.65,1.45c0.399,0.399,0.899,0.6,1.5,0.6c0.566,0,1.066-0.2,1.5-0.6c0.399-0.4,0.6-0.884,0.6-1.45
			c0-0.567-0.2-1.05-0.6-1.45C95.017,101.1,94.517,100.9,93.95,100.9z M98.15,86.7c0.6,0.566,0.899,1.233,0.899,2v20.649
			c0,0.801-0.3,1.483-0.899,2.051c-0.567,0.533-1.268,0.8-2.101,0.8H77.8c-0.833,0-1.533-0.267-2.1-0.8
			c-0.6-0.567-0.9-1.25-0.9-2.051V88.7c0-0.767,0.3-1.434,0.9-2c0.566-0.567,1.267-0.851,2.1-0.851h18.25
			C96.883,85.85,97.583,86.133,98.15,86.7z M96.15,88.95c-0.334-0.3-0.733-0.45-1.2-0.45h-7.2v8.95h7.2c0.467,0,0.866-0.167,1.2-0.5
			c0.3-0.3,0.449-0.684,0.449-1.15v-5.7C96.6,89.633,96.45,89.25,96.15,88.95z"/>
	</g>
</g>
<g>
	<g>
		<path style="fill-rule:evenodd;clip-rule:evenodd;fill:#FEE6FF;" d="M112.25,38.4c0,2.3-0.934,4.033-2.8,5.199
			c1.267,0.601,2.267,1.417,3,2.45c0.767,1.101,1.149,2.316,1.149,3.65c0,2.066-0.816,3.833-2.449,5.3
			c-1.667,1.467-3.7,2.2-6.101,2.2c-2.366,0-4.35-0.733-5.95-2.2c-1.467-1.3-2.199-2.7-2.199-4.2c0-0.633,0.283-1.167,0.85-1.6
			c0.533-0.434,1.117-0.65,1.75-0.65s1.383,0.667,2.25,2c0.833,1.3,1.95,1.95,3.35,1.95c0.9,0,1.667-0.3,2.301-0.9
			c0.6-0.6,0.899-1.35,0.899-2.25c0-1.633-0.95-2.6-2.85-2.899c-1.934-0.3-2.9-1.084-2.9-2.351c0-1.166,0.8-1.967,2.4-2.399
			c1.6-0.4,2.399-1.25,2.399-2.55c0-0.667-0.217-1.2-0.649-1.601c-0.434-0.434-1.033-0.649-1.8-0.649c-1.134,0-2.101,0.55-2.9,1.649
			c-0.767,1.101-1.5,1.65-2.2,1.65c-0.667,0-1.2-0.267-1.6-0.8c-0.4-0.467-0.601-1.034-0.601-1.7c0-1.334,0.768-2.584,2.301-3.75
			c1.533-1.167,3.232-1.75,5.1-1.75c2.267,0,4.083,0.7,5.45,2.1C111.65,35.5,112.25,36.866,112.25,38.4z"/>
		
			<linearGradient id="SVGID_9_" gradientUnits="userSpaceOnUse" x1="-57.0552" y1="105.2529" x2="-32.0552" y2="105.2529" gradientTransform="matrix(4.000000e-005 -1 1 -0.001 6.127130e-005 4.449275e-004)">
			<stop  offset="0.0745" style="stop-color:#6A034E"/>
			<stop  offset="0.2667" style="stop-color:#830B61"/>
			<stop  offset="0.6706" style="stop-color:#C22193"/>
			<stop  offset="0.9922" style="stop-color:#F934BE"/>
		</linearGradient>
		<path style="fill-rule:evenodd;clip-rule:evenodd;fill:url(#SVGID_9_);" d="M112.25,37.3c0,2.3-0.934,4.033-2.8,5.2
			c1.233,0.566,2.233,1.383,3,2.45c0.767,1.1,1.149,2.3,1.149,3.6c0,2.066-0.816,3.833-2.449,5.3c-1.667,1.5-3.7,2.25-6.101,2.25
			c-2.333,0-4.316-0.733-5.95-2.199C97.633,52.6,96.9,51.2,96.9,49.7c0-0.634,0.283-1.184,0.85-1.65
			c0.533-0.434,1.117-0.649,1.75-0.649s1.383,0.666,2.25,2c0.833,1.333,1.95,2,3.35,2c0.9,0,1.667-0.301,2.301-0.9
			c0.6-0.6,0.899-1.35,0.899-2.25c0-1.667-0.95-2.65-2.85-2.95c-1.934-0.3-2.9-1.083-2.9-2.35c0-1.167,0.8-1.95,2.4-2.351
			c1.6-0.433,2.399-1.283,2.399-2.55c0-0.667-0.217-1.217-0.649-1.649c-0.434-0.434-1.033-0.65-1.8-0.65
			c-1.134,0-2.101,0.566-2.9,1.7c-0.767,1.1-1.5,1.649-2.2,1.649c-0.667,0-1.2-0.267-1.6-0.8c-0.4-0.5-0.601-1.083-0.601-1.75
			c0-1.333,0.768-2.583,2.301-3.75s3.232-1.75,5.1-1.75c2.267,0,4.083,0.717,5.45,2.15C111.65,34.4,112.25,35.767,112.25,37.3z"/>
	</g>
	<g>
		<path style="fill-rule:evenodd;clip-rule:evenodd;fill:#FEE6FF;" d="M71.7,37.1h-6.4L64.8,40.7
			c0.934-0.233,1.784-0.351,2.55-0.351c2.033,0,3.716,0.717,5.05,2.15c1.333,1.366,2,3.066,2,5.1c0,2.867-0.767,5.134-2.3,6.801
			c-1.6,1.732-3.833,2.6-6.7,2.6c-1.533,0-3.083-0.384-4.65-1.15c-1.9-0.899-2.85-2.033-2.85-3.399c0-0.634,0.233-1.167,0.7-1.601
			c0.433-0.467,0.966-0.699,1.6-0.699c0.366,0,1.133,0.366,2.3,1.1c1.167,0.7,2.167,1.05,3,1.05c1.1,0,2-0.467,2.7-1.399
			c0.6-0.867,0.9-1.884,0.9-3.051c0-1.033-0.284-1.85-0.85-2.449c-0.566-0.634-1.383-0.95-2.45-0.95c-0.667,0-1.35,0.183-2.05,0.55
			c-0.733,0.366-1.383,0.55-1.95,0.55c-0.6,0-1.1-0.184-1.5-0.55c-0.333-0.333-0.5-0.684-0.5-1.05l0.95-8.3
			c0.2-1.301,0.5-2.184,0.9-2.65c0.333-0.4,0.917-0.6,1.75-0.6h8.2c0.767,0,1.383,0.199,1.85,0.6c0.433,0.4,0.65,0.917,0.65,1.55
			c0,1-0.317,1.717-0.95,2.15C72.75,36.967,72.267,37.1,71.7,37.1z"/>
		
			<linearGradient id="SVGID_10_" gradientUnits="userSpaceOnUse" x1="-56.8159" y1="66.1523" x2="-31.8159" y2="66.1523" gradientTransform="matrix(4.000000e-005 -1 1 -0.001 6.127130e-005 4.449275e-004)">
			<stop  offset="0.0745" style="stop-color:#6A034E"/>
			<stop  offset="0.2667" style="stop-color:#830B61"/>
			<stop  offset="0.6706" style="stop-color:#C22193"/>
			<stop  offset="0.9922" style="stop-color:#F934BE"/>
		</linearGradient>
		<path style="fill-rule:evenodd;clip-rule:evenodd;fill:url(#SVGID_10_);" d="M71.7,35.95h-6.4l-0.5,3.6
			c1.233-0.233,2.083-0.35,2.55-0.35c2.033,0,3.716,0.717,5.05,2.149c1.333,1.4,2,3.101,2,5.101c0,2.899-0.767,5.183-2.3,6.85
			c-1.6,1.733-3.833,2.601-6.7,2.601c-1.533,0-3.083-0.384-4.65-1.15c-1.9-0.934-2.85-2.083-2.85-3.45c0-0.633,0.233-1.167,0.7-1.6
			c0.433-0.467,0.966-0.7,1.6-0.7c0.366,0,1.133,0.366,2.3,1.1s2.167,1.101,3,1.101c1.1,0,2-0.483,2.7-1.45
			c0.6-0.833,0.9-1.833,0.9-3c0-1.033-0.284-1.867-0.85-2.5c-0.566-0.634-1.383-0.95-2.45-0.95c-0.667,0-1.35,0.184-2.05,0.55
			c-0.733,0.367-1.383,0.551-1.95,0.551c-0.6,0-1.1-0.184-1.5-0.551c-0.333-0.333-0.5-0.683-0.5-1.05l0.95-8.3
			c0.2-1.3,0.5-2.167,0.9-2.6c0.333-0.434,0.917-0.65,1.75-0.65h8.2c0.767,0,1.383,0.217,1.85,0.65c0.433,0.399,0.65,0.899,0.65,1.5
			c0,1-0.317,1.716-0.95,2.149C72.75,35.816,72.267,35.95,71.7,35.95z"/>
	</g>
	<g>
		<path style="fill-rule:evenodd;clip-rule:evenodd;fill:#FEE6FF;" d="M85.5,52.6c2.5,0,3.75-2.633,3.75-7.899S88,36.8,85.5,36.8
			c-2.467,0-3.7,2.634-3.7,7.9S83.033,52.6,85.5,52.6z M76.5,44.7c0-3.3,0.65-6.084,1.95-8.351c1.566-2.767,3.917-4.149,7.05-4.149
			c3.133,0,5.5,1.383,7.1,4.149c1.301,2.267,1.95,5.051,1.95,8.351s-0.649,6.083-1.95,8.35c-1.6,2.767-3.967,4.15-7.1,4.15
			c-3.133,0-5.483-1.384-7.05-4.15C77.15,50.783,76.5,48,76.5,44.7z"/>
		
			<linearGradient id="SVGID_11_" gradientUnits="userSpaceOnUse" x1="-57.0356" y1="85.5273" x2="-32.0356" y2="85.5273" gradientTransform="matrix(4.000000e-005 -1 1 -0.001 6.127130e-005 4.449275e-004)">
			<stop  offset="0.0745" style="stop-color:#6A034E"/>
			<stop  offset="0.2667" style="stop-color:#830B61"/>
			<stop  offset="0.6706" style="stop-color:#C22193"/>
			<stop  offset="0.9922" style="stop-color:#F934BE"/>
		</linearGradient>
		<path style="fill-rule:evenodd;clip-rule:evenodd;fill:url(#SVGID_11_);" d="M85.5,51.45c2.5,0,3.75-2.634,3.75-7.9
			c0-5.233-1.25-7.85-3.75-7.85c-2.467,0-3.7,2.616-3.7,7.85C81.8,48.816,83.033,51.45,85.5,51.45z M76.5,43.55
			c0-3.3,0.65-6.066,1.95-8.3c1.6-2.8,3.95-4.2,7.05-4.2c3.133,0,5.5,1.4,7.1,4.2c1.301,2.233,1.95,5,1.95,8.3
			c0,3.333-0.649,6.117-1.95,8.351C91,54.7,88.633,56.1,85.5,56.1c-3.133,0-5.483-1.399-7.05-4.199
			C77.15,49.633,76.5,46.85,76.5,43.55z"/>
	</g>
</g>
<g>
	<g>
		<g>
			
				<linearGradient id="SVGID_12_" gradientUnits="userSpaceOnUse" x1="-87.4619" y1="24.1182" x2="-59.0879" y2="24.1182" gradientTransform="matrix(-0.2865 -0.9581 0.9581 -0.2865 1.070797e-004 7.811785e-004)">
				<stop  offset="0" style="stop-color:#CA2897"/>
				<stop  offset="0.1686" style="stop-color:#D148A0"/>
				<stop  offset="0.5255" style="stop-color:#E58FB7"/>
				<stop  offset="0.902" style="stop-color:#FDDDD1"/>
			</linearGradient>
			<path style="fill-rule:evenodd;clip-rule:evenodd;fill:url(#SVGID_12_);" d="M48.45,60.95L48.35,61
				c-0.133,0.667-0.3,1.233-0.5,1.7c-0.9,2.866-2.217,4.95-3.95,6.25L43.7,69.1c0.033,0.301,0.05,0.983,0.05,2.051
				c-0.1,3.033-0.767,5.416-2,7.149l-0.35,0.4l-0.2,0.149c-0.134,0.101-0.4,0.233-0.8,0.4c-0.4,0.1-0.783,0.1-1.15,0
				c-0.867-0.267-1.6-0.717-2.2-1.35l-0.55,0.35l-0.55,0.25l-0.15,0.05c-0.733,0.167-1.383,0.033-1.95-0.399
				c-1.133-0.867-1.75-2.184-1.85-3.95c-0.1-1.334,0.1-2.667,0.6-4c0.7-1.8,1.8-3.317,3.3-4.55c-0.433-1.101-0.433-2.384,0-3.851
				c0.333-1.133,0.85-2.2,1.55-3.2c1.2-1.467,2.583-2.55,4.15-3.25c-0.034-1.1,0.3-2.25,1-3.449c0.533-0.967,1.2-1.817,2-2.551
				c1.133-0.967,2.45-1.683,3.95-2.149c1.467-0.467,2.85-0.617,4.15-0.45c0.7-0.033,1.316,0.217,1.85,0.75v0.05
				c1.034,1.134,1.3,2.667,0.8,4.601C55.083,53.217,54.633,54.3,54,55.4c-1.467,2.633-3.184,4.433-5.15,5.399L48.45,60.95z"/>
			<path style="fill-rule:evenodd;clip-rule:evenodd;fill:none;stroke:#F7E0E7;stroke-width:0.25;" d="M48.45,60.95l0.4-0.15
				c1.966-0.967,3.683-2.767,5.15-5.399c0.633-1.101,1.083-2.184,1.35-3.25c0.5-1.934,0.233-3.467-0.8-4.601V47.5
				c-0.533-0.533-1.15-0.783-1.85-0.75c-1.3-0.167-2.684-0.017-4.15,0.45c-1.5,0.467-2.816,1.183-3.95,2.149
				c-0.8,0.733-1.467,1.584-2,2.551c-0.7,1.199-1.034,2.35-1,3.449c-1.567,0.7-2.95,1.783-4.15,3.25c-0.7,1-1.217,2.067-1.55,3.2
				c-0.433,1.467-0.433,2.75,0,3.851c-1.5,1.232-2.6,2.75-3.3,4.55c-0.5,1.333-0.7,2.666-0.6,4c0.1,1.767,0.717,3.083,1.85,3.95
				c0.566,0.433,1.216,0.566,1.95,0.399l0.15-0.05l0.55-0.25l0.55-0.35c0.6,0.633,1.333,1.083,2.2,1.35c0.367,0.1,0.75,0.1,1.15,0
				c0.4-0.167,0.667-0.3,0.8-0.4l0.2-0.149l0.35-0.4c1.233-1.733,1.9-4.116,2-7.149c0-1.067-0.017-1.75-0.05-2.051l0.2-0.149
				c1.733-1.3,3.05-3.384,3.95-6.25c0.2-0.467,0.367-1.033,0.5-1.7L48.45,60.95z"/>
		</g>
	</g>
	<path style="fill-rule:evenodd;clip-rule:evenodd;fill:#630F50;" d="M43.7,53.05c0.5-0.967,1.15-1.816,1.95-2.55
		c1-0.833,2.15-1.45,3.45-1.85c1.3-0.4,2.483-0.5,3.55-0.301h0.05c0.267-0.033,0.5,0.051,0.7,0.25c0.6,0.667,0.75,1.667,0.45,3
		c-0.2,0.967-0.6,1.95-1.2,2.95c-1.367,2.367-2.867,3.967-4.5,4.8L48,59.4l-0.05,0.05H47.9c-0.233,0.066-0.433,0.017-0.6-0.15
		L47,58.95c0,1-0.2,2.066-0.6,3.2c-0.9,2.6-2.05,4.466-3.45,5.6l-0.2,0.05l-0.1,0.05L42.6,67.9c-0.167,0.033-0.35,0-0.55-0.101
		l-0.3-0.2c0.333,0.967,0.467,2.117,0.4,3.45c-0.1,2.767-0.667,4.884-1.7,6.351l-0.2,0.199L40,77.7c-0.1,0.066-0.217,0.066-0.35,0
		c-1-0.233-1.767-0.983-2.3-2.25c-0.567,0.6-1.133,1.083-1.7,1.45l-0.2,0.1H35.4c-0.233,0.066-0.433,0.033-0.6-0.1
		c-0.8-0.634-1.216-1.65-1.25-3.051c0-1.066,0.184-2.116,0.55-3.149c0.9-2.233,2.333-3.834,4.3-4.8h-0.2
		c-0.2,0-0.384-0.101-0.55-0.301c-0.566-0.8-0.667-1.883-0.3-3.25c0.3-1.033,0.767-1.983,1.4-2.85c1.233-1.533,2.8-2.6,4.7-3.2H43.4
		C42.967,55.366,43.066,54.283,43.7,53.05z"/>
	<g>
		<g>
			<g>
				<g>
					<g>
						<g>
							<g>
								
									<linearGradient id="SVGID_13_" gradientUnits="userSpaceOnUse" x1="-66.5435" y1="31.0571" x2="-62.0493" y2="31.0571" gradientTransform="matrix(-0.2894 -0.9572 0.9572 -0.2894 9.131432e-005 -2.008677e-005)">
									<stop  offset="0" style="stop-color:#FB8EFE"/>
									<stop  offset="0.4863" style="stop-color:#E575C4"/>
									<stop  offset="0.7373" style="stop-color:#DB6AAB"/>
								</linearGradient>
								<path style="fill-rule:evenodd;clip-rule:evenodd;fill:url(#SVGID_13_);" d="M47.25,52.25c1.533-1.9,3.3-2.967,5.3-3.2
									c0.233,0.7,0,1.517-0.7,2.45c-0.567,0.733-1.267,1.383-2.1,1.95c-2.066,1.6-3.95,2.45-5.65,2.55
									C45.566,54.4,46.617,53.15,47.25,52.25z"/>
								<path style="fill-rule:evenodd;clip-rule:evenodd;fill:#F6E7EB;" d="M44.05,56c-0.333-0.7-0.233-1.566,0.3-2.6
									c0.4-0.867,1-1.667,1.8-2.4c0.934-0.767,1.967-1.333,3.1-1.7c1.167-0.366,2.267-0.45,3.3-0.25c-0.8,0.101-1.6,0.45-2.4,1.05
									c-0.466,0.334-1.133,0.95-2,1.851C46.617,53.717,45.25,55.066,44.05,56z"/>
							</g>
							<g>
								
									<linearGradient id="SVGID_14_" gradientUnits="userSpaceOnUse" x1="-69.9585" y1="32.873" x2="-62.0972" y2="32.873" gradientTransform="matrix(-0.2865 -0.9581 0.9581 -0.2865 1.204908e-004 3.769994e-004)">
									<stop  offset="0" style="stop-color:#FB8EFE"/>
									<stop  offset="0.4863" style="stop-color:#E575C4"/>
									<stop  offset="0.7373" style="stop-color:#DB6AAB"/>
								</linearGradient>
								<path style="fill-rule:evenodd;clip-rule:evenodd;fill:url(#SVGID_14_);" d="M48.5,56.6c0.367-1.133,0.617-1.967,0.75-2.5
									c0.633-2.366,1.833-4.05,3.6-5.05c0.466,0.533,0.566,1.367,0.3,2.5c-0.2,0.9-0.566,1.783-1.1,2.65
									c-1.366,2.3-2.767,3.816-4.2,4.55C47.917,58.417,48.133,57.7,48.5,56.6z"/>
								<path style="fill-rule:evenodd;clip-rule:evenodd;fill:#F6E7EB;" d="M47.75,53.4c0.533-1.067,1.267-2,2.2-2.801
									c0.933-0.8,1.9-1.316,2.9-1.55c-0.7,0.4-1.3,1.033-1.8,1.9c-0.267,0.5-0.633,1.333-1.1,2.5c-0.733,2.3-1.45,4.066-2.15,5.3
									c-0.566-0.5-0.816-1.333-0.75-2.5C47.083,55.283,47.316,54.333,47.75,53.4z"/>
							</g>
						</g>
					</g>
				</g>
			</g>
		</g>
		<g>
			<g>
				<g>
					<g>
						<g>
							<g>
								
									<linearGradient id="SVGID_15_" gradientUnits="userSpaceOnUse" x1="-73.4741" y1="22.5459" x2="-67.368" y2="22.5459" gradientTransform="matrix(-0.2866 -0.9581 0.9581 -0.2866 2.767146e-004 1.267791e-004)">
									<stop  offset="0" style="stop-color:#FB8EFE"/>
									<stop  offset="0.4863" style="stop-color:#E575C4"/>
									<stop  offset="0.7373" style="stop-color:#DB6AAB"/>
								</linearGradient>
								<path style="fill-rule:evenodd;clip-rule:evenodd;fill:url(#SVGID_15_);" d="M45.2,56.75c0.366,0.633,0.3,1.483-0.2,2.55
									c-0.4,0.833-0.95,1.617-1.65,2.351c-1.767,1.966-3.45,3.149-5.05,3.55c0.134-0.3,0.5-0.95,1.1-1.95
									c0.6-1.033,1.017-1.8,1.25-2.3C41.75,58.783,43.267,57.383,45.2,56.75z"/>
								<path style="fill-rule:evenodd;clip-rule:evenodd;fill:#F6E7EB;" d="M38.25,65.2C37.783,64.566,37.7,63.7,38,62.6
									c0.267-0.933,0.7-1.816,1.3-2.649c0.767-0.934,1.684-1.7,2.75-2.3c1.067-0.601,2.117-0.9,3.15-0.9
									c-0.767,0.233-1.483,0.733-2.15,1.5c-0.333,0.366-0.866,1.1-1.6,2.2C40.283,62.55,39.217,64.133,38.25,65.2z"/>
							</g>
							<g>
								
									<linearGradient id="SVGID_16_" gradientUnits="userSpaceOnUse" x1="-76.5293" y1="24.6309" x2="-67.3461" y2="24.6309" gradientTransform="matrix(-0.2858 -0.9583 0.9583 -0.2858 2.982616e-004 -2.133846e-005)">
									<stop  offset="0" style="stop-color:#FB8EFE"/>
									<stop  offset="0.4863" style="stop-color:#E575C4"/>
									<stop  offset="0.7373" style="stop-color:#DB6AAB"/>
								</linearGradient>
								<path style="fill-rule:evenodd;clip-rule:evenodd;fill:url(#SVGID_16_);" d="M45.5,56.7c0.566,0.433,0.833,1.233,0.8,2.399
									c-0.033,0.867-0.216,1.801-0.55,2.801c-0.867,2.533-1.95,4.283-3.25,5.25c0.3-2.134,0.45-3.75,0.45-4.851
									C43.117,59.866,43.967,58,45.5,56.7z"/>
								<path style="fill-rule:evenodd;clip-rule:evenodd;fill:#F6E7EB;" d="M43.55,61.55c-0.333,2.5-0.7,4.384-1.1,5.65
									c-0.667-0.4-1.083-1.167-1.25-2.3c-0.134-0.967-0.083-1.95,0.15-2.95c0.3-1.167,0.816-2.233,1.55-3.2
									c0.767-0.967,1.633-1.667,2.6-2.1c-0.6,0.566-1.066,1.316-1.4,2.25C43.934,59.4,43.75,60.283,43.55,61.55z"/>
							</g>
						</g>
					</g>
				</g>
			</g>
		</g>
		<g>
			<g>
				<g>
					<g>
						<g>
							<g>
								
									<linearGradient id="SVGID_17_" gradientUnits="userSpaceOnUse" x1="-83.2407" y1="15.4209" x2="-74.8095" y2="15.4209" gradientTransform="matrix(-0.2876 -0.9577 0.9577 -0.2876 3.536642e-004 -1.899004e-004)">
									<stop  offset="0" style="stop-color:#FB8EFE"/>
									<stop  offset="0.4863" style="stop-color:#E575C4"/>
									<stop  offset="0.7373" style="stop-color:#DB6AAB"/>
								</linearGradient>
								<path style="fill-rule:evenodd;clip-rule:evenodd;fill:url(#SVGID_17_);" d="M39.5,66.25c0.5,0.5,0.667,1.333,0.5,2.5
									c-0.133,0.9-0.434,1.783-0.9,2.65c-1.133,2.399-2.4,4.033-3.8,4.899c0.034-0.333,0.184-1.05,0.45-2.149
									c0.3-1.167,0.483-2.034,0.55-2.601C36.767,69.15,37.833,67.383,39.5,66.25z"/>
								<path style="fill-rule:evenodd;clip-rule:evenodd;fill:#F6E7EB;" d="M35.2,76.3c-0.6-0.467-0.917-1.267-0.95-2.399
									c0-0.967,0.167-1.95,0.5-2.95c0.467-1.134,1.117-2.117,1.95-2.95c0.866-0.867,1.8-1.467,2.8-1.8
									c-0.7,0.467-1.25,1.149-1.65,2.05c-0.267,0.533-0.567,1.4-0.9,2.6C36.483,73.017,35.9,74.833,35.2,76.3z"/>
							</g>
							<g>
								
									<linearGradient id="SVGID_18_" gradientUnits="userSpaceOnUse" x1="-85.1602" y1="18.0498" x2="-74.6959" y2="18.0498" gradientTransform="matrix(-0.2867 -0.958 0.958 -0.2867 -3.334880e-004 -7.906556e-004)">
									<stop  offset="0" style="stop-color:#FB8EFE"/>
									<stop  offset="0.4863" style="stop-color:#E575C4"/>
									<stop  offset="0.7373" style="stop-color:#DB6AAB"/>
								</linearGradient>
								<path style="fill-rule:evenodd;clip-rule:evenodd;fill:url(#SVGID_18_);" d="M39.75,66.05
									c0.667,0.267,1.15,0.967,1.45,2.101C41.434,69.05,41.517,70,41.45,71c-0.067,2.6-0.583,4.583-1.55,5.95
									c-0.1-0.3-0.233-1.017-0.4-2.15c-0.2-1.167-0.383-2.033-0.55-2.6C38.383,69.833,38.65,67.783,39.75,66.05z"/>
								<path style="fill-rule:evenodd;clip-rule:evenodd;fill:#F6E7EB;" d="M39.8,77.05c-0.733-0.2-1.333-0.833-1.8-1.899
									c-0.4-0.867-0.65-1.817-0.75-2.851c-0.033-1.2,0.184-2.366,0.65-3.5c0.434-1.167,1.05-2.083,1.85-2.75
									c-0.434,0.667-0.667,1.517-0.7,2.55c0,0.467,0.067,1.367,0.2,2.7C39.684,73.733,39.867,75.65,39.8,77.05z"/>
							</g>
						</g>
					</g>
				</g>
			</g>
		</g>
	</g>
</g>
<g>
	<g>
		<g>
			<linearGradient id="SVGID_19_" gradientUnits="userSpaceOnUse" x1="130.6729" y1="48.9707" x2="124.0979" y2="76.5707">
				<stop  offset="0" style="stop-color:#CA2897"/>
				<stop  offset="0.1686" style="stop-color:#D148A0"/>
				<stop  offset="0.5255" style="stop-color:#E58FB7"/>
				<stop  offset="0.902" style="stop-color:#FDDDD1"/>
			</linearGradient>
			<path style="fill-rule:evenodd;clip-rule:evenodd;fill:url(#SVGID_19_);" d="M135.45,65.4c1.399,1.232,2.433,2.783,3.1,4.649
				c0.434,1.367,0.583,2.717,0.45,4.05c-0.167,1.733-0.833,3.017-2,3.851c-0.6,0.433-1.25,0.55-1.95,0.35l-0.7-0.3l-0.55-0.4
				c-0.7,0.7-1.45,1.117-2.25,1.25c-0.399,0.101-0.783,0.084-1.149-0.05c-0.268-0.066-0.533-0.2-0.801-0.399l-0.5-0.551
				c-1.166-1.8-1.75-4.217-1.75-7.25c0-0.767,0.051-1.433,0.15-2l-0.2-0.149c-1.533-1.3-2.783-3.45-3.75-6.45
				c-0.2-0.767-0.333-1.35-0.399-1.75h-0.101l-0.45-0.2c-1.8-1-3.433-2.866-4.899-5.6c-1.833-3.5-1.917-6.117-0.25-7.851l0.05-0.05
				c0.5-0.533,1.117-0.75,1.85-0.649c1.268-0.134,2.634,0.05,4.101,0.55c1.467,0.533,2.767,1.316,3.899,2.35
				c0.768,0.733,1.4,1.601,1.9,2.601c0.667,1.232,0.95,2.399,0.85,3.5c1.567,0.767,2.9,1.899,4,3.399c0.7,1,1.2,2.083,1.5,3.25
				C135.967,63.05,135.917,64.333,135.45,65.4z"/>
			<path style="fill-rule:evenodd;clip-rule:evenodd;fill:none;stroke:#F7E0E7;stroke-width:0.25;" d="M135.45,65.4
				c1.399,1.232,2.433,2.783,3.1,4.649c0.434,1.367,0.583,2.717,0.45,4.05c-0.167,1.733-0.833,3.017-2,3.851
				c-0.6,0.433-1.25,0.55-1.95,0.35l-0.7-0.3l-0.55-0.4c-0.7,0.7-1.45,1.117-2.25,1.25c-0.399,0.101-0.783,0.084-1.149-0.05
				c-0.268-0.066-0.533-0.2-0.801-0.399l-0.5-0.551c-1.166-1.8-1.75-4.217-1.75-7.25c0-0.767,0.051-1.433,0.15-2l-0.2-0.149
				c-1.533-1.3-2.783-3.45-3.75-6.45c-0.2-0.767-0.333-1.35-0.399-1.75h-0.101l-0.45-0.2c-1.8-1-3.433-2.866-4.899-5.6
				c-1.833-3.5-1.917-6.117-0.25-7.851l0.05-0.05c0.5-0.533,1.117-0.75,1.85-0.649c1.268-0.134,2.634,0.05,4.101,0.55
				c1.467,0.533,2.767,1.316,3.899,2.35c0.768,0.733,1.4,1.601,1.9,2.601c0.667,1.232,0.95,2.399,0.85,3.5
				c1.567,0.767,2.9,1.899,4,3.399c0.7,1,1.2,2.083,1.5,3.25C135.967,63.05,135.917,64.333,135.45,65.4z"/>
		</g>
	</g>
	<path style="fill-rule:evenodd;clip-rule:evenodd;fill:#630F50;" d="M132.8,59.15c0.601,0.933,1.033,1.899,1.3,2.899
		c0.334,1.367,0.184,2.45-0.449,3.25c-0.134,0.2-0.317,0.3-0.551,0.3l-0.05-0.05H132.9c1.933,1,3.316,2.667,4.149,5
		c0.3,1.066,0.434,2.117,0.4,3.15c-0.067,1.399-0.517,2.383-1.351,2.95c-0.199,0.166-0.399,0.216-0.6,0.149v-0.05h-0.1l-0.2-0.1
		c-0.4-0.268-0.934-0.768-1.601-1.5c-0.6,1.267-1.399,1.982-2.399,2.149c-0.101,0.066-0.217,0.066-0.351,0l-0.25-0.1l-0.05-0.101
		L130.4,76.95c-0.967-1.467-1.45-3.601-1.45-6.4c0-1.333,0.167-2.467,0.5-3.399l-0.3,0.199c-0.2,0.067-0.367,0.084-0.5,0.051
		l-0.2-0.101l-0.15-0.1c-1.399-1.134-2.483-3.033-3.25-5.7c-0.333-1.134-0.5-2.2-0.5-3.2l-0.3,0.3
		c-0.167,0.167-0.367,0.217-0.6,0.15h-0.101l-0.149-0.1c-1.667-0.9-3.101-2.551-4.301-4.95c-0.566-1.033-0.933-2.033-1.1-3
		c-0.233-1.334-0.033-2.334,0.6-3c0.167-0.2,0.4-0.283,0.7-0.25v0.05c1.101-0.167,2.283-0.033,3.55,0.4
		c1.301,0.466,2.434,1.133,3.4,2c0.767,0.767,1.383,1.633,1.85,2.6c0.567,1.267,0.617,2.35,0.15,3.25v0.05
		C130.05,56.4,131.566,57.517,132.8,59.15z"/>
	<g>
		<g>
			<g>
				<g>
					<g>
						<g>
							<g>
								<linearGradient id="SVGID_20_" gradientUnits="userSpaceOnUse" x1="125.6855" y1="51.6157" x2="121.2105" y2="52.0407">
									<stop  offset="0" style="stop-color:#FB8EFE"/>
									<stop  offset="0.4863" style="stop-color:#E575C4"/>
									<stop  offset="0.7373" style="stop-color:#DB6AAB"/>
								</linearGradient>
								<path style="fill-rule:evenodd;clip-rule:evenodd;fill:url(#SVGID_20_);" d="M119.4,48.2
									c2.066,0.333,3.783,1.467,5.149,3.399c0.601,0.9,1.601,2.184,3,3.851c-1.633-0.167-3.483-1.084-5.55-2.75
									c-0.8-0.601-1.45-1.283-1.95-2.05C119.383,49.684,119.167,48.866,119.4,48.2z"/>
								<path style="fill-rule:evenodd;clip-rule:evenodd;fill:#F6E7EB;" d="M127.65,55.45c-1.233-1-2.551-2.4-3.95-4.2
									c-0.934-1-1.567-1.65-1.9-1.95c-0.8-0.633-1.6-1-2.399-1.1c1.033-0.167,2.133-0.05,3.3,0.35
									c1.133,0.434,2.149,1.05,3.05,1.851c0.733,0.732,1.3,1.55,1.7,2.449C127.917,53.883,127.983,54.75,127.65,55.45z"/>
							</g>
							<g>
								<linearGradient id="SVGID_21_" gradientUnits="userSpaceOnUse" x1="124.3086" y1="55.6797" x2="118.3836" y2="50.5297">
									<stop  offset="0" style="stop-color:#FB8EFE"/>
									<stop  offset="0.4863" style="stop-color:#E575C4"/>
									<stop  offset="0.7373" style="stop-color:#DB6AAB"/>
								</linearGradient>
								<path style="fill-rule:evenodd;clip-rule:evenodd;fill:url(#SVGID_21_);" d="M119.1,48.2c1.768,1.066,2.9,2.783,3.4,5.149
									c0.1,0.533,0.316,1.384,0.65,2.551c0.333,1.1,0.517,1.816,0.55,2.149c-1.467-0.8-2.8-2.366-4-4.7
									c-0.5-0.866-0.833-1.75-1-2.649C118.467,49.533,118.6,48.7,119.1,48.2z"/>
								<path style="fill-rule:evenodd;clip-rule:evenodd;fill:#F6E7EB;" d="M123.8,58.1c-0.633-1.267-1.3-3.083-2-5.449
									c-0.366-1.134-0.683-1.967-0.95-2.5c-0.467-0.9-1.05-1.567-1.75-2c1,0.267,1.95,0.833,2.851,1.699
									c0.899,0.801,1.6,1.75,2.1,2.851c0.367,0.967,0.567,1.933,0.601,2.899C124.65,56.767,124.367,57.6,123.8,58.1z"/>
							</g>
						</g>
					</g>
				</g>
			</g>
		</g>
		<g>
			<g>
				<g>
					<g>
						<g>
							<g>
								<linearGradient id="SVGID_22_" gradientUnits="userSpaceOnUse" x1="132.6074" y1="61.4048" x2="126.7824" y2="59.6298">
									<stop  offset="0" style="stop-color:#FB8EFE"/>
									<stop  offset="0.4863" style="stop-color:#E575C4"/>
									<stop  offset="0.7373" style="stop-color:#DB6AAB"/>
								</linearGradient>
								<path style="fill-rule:evenodd;clip-rule:evenodd;fill:url(#SVGID_22_);" d="M130.85,60.5c0.2,0.533,0.584,1.333,1.15,2.4
									c0.566,1,0.9,1.649,1,1.949c-1.6-0.433-3.233-1.683-4.9-3.75c-0.666-0.733-1.183-1.517-1.55-2.35
									c-0.433-1.1-0.467-1.95-0.1-2.55C128.35,56.866,129.816,58.3,130.85,60.5z"/>
								<path style="fill-rule:evenodd;clip-rule:evenodd;fill:#F6E7EB;" d="M133.1,64.9c-0.967-1.2-1.982-2.834-3.05-4.9
									c-0.667-1.1-1.167-1.85-1.5-2.25c-0.667-0.767-1.366-1.3-2.1-1.6c1.033,0.066,2.083,0.416,3.149,1.05
									c1.033,0.6,1.9,1.383,2.601,2.35c0.6,0.867,1,1.783,1.2,2.75C133.667,63.4,133.566,64.267,133.1,64.9z"/>
							</g>
							<g>
								<linearGradient id="SVGID_23_" gradientUnits="userSpaceOnUse" x1="129.3955" y1="65.4272" x2="125.2955" y2="57.2272">
									<stop  offset="0" style="stop-color:#FB8EFE"/>
									<stop  offset="0.4863" style="stop-color:#E575C4"/>
									<stop  offset="0.7373" style="stop-color:#DB6AAB"/>
								</linearGradient>
								<path style="fill-rule:evenodd;clip-rule:evenodd;fill:url(#SVGID_23_);" d="M126.15,56.1c1.467,1.334,2.232,3.233,2.3,5.7
									c0,0.566,0.05,1.467,0.149,2.7c0.134,1.133,0.184,1.866,0.15,2.2c-1.267-1.101-2.267-2.9-3-5.4
									c-0.3-0.934-0.45-1.866-0.45-2.8C125.3,57.3,125.583,56.5,126.15,56.1z"/>
								<path style="fill-rule:evenodd;clip-rule:evenodd;fill:#F6E7EB;" d="M130.1,61.5c0.2,1.033,0.217,2.017,0.051,2.95
									c-0.2,1.133-0.65,1.883-1.351,2.25c-0.366-1.267-0.649-3.15-0.85-5.65c-0.167-1.3-0.333-2.2-0.5-2.7
									c-0.267-0.967-0.7-1.733-1.3-2.3c0.933,0.467,1.767,1.2,2.5,2.2C129.35,59.25,129.833,60.333,130.1,61.5z"/>
							</g>
						</g>
					</g>
				</g>
			</g>
		</g>
		<g>
			<g>
				<g>
					<g>
						<g>
							<g>
								<linearGradient id="SVGID_24_" gradientUnits="userSpaceOnUse" x1="136.3252" y1="74.1563" x2="130.9502" y2="67.6813">
									<stop  offset="0" style="stop-color:#FB8EFE"/>
									<stop  offset="0.4863" style="stop-color:#E575C4"/>
									<stop  offset="0.7373" style="stop-color:#DB6AAB"/>
								</linearGradient>
								<path style="fill-rule:evenodd;clip-rule:evenodd;fill:url(#SVGID_24_);" d="M134.75,71.25
									c0.066,0.566,0.217,1.45,0.45,2.65c0.267,1.133,0.399,1.85,0.399,2.149c-1.366-0.899-2.566-2.566-3.6-5
									c-0.434-0.899-0.7-1.816-0.8-2.75c-0.134-1.167,0.066-1.983,0.6-2.45C133.467,67.05,134.45,68.85,134.75,71.25z"/>
								<path style="fill-rule:evenodd;clip-rule:evenodd;fill:#F6E7EB;" d="M135.7,76.1c-0.634-1.399-1.15-3.25-1.55-5.55
									c-0.334-1.267-0.601-2.133-0.801-2.6c-0.366-0.9-0.883-1.601-1.55-2.101c1,0.334,1.917,0.95,2.75,1.851
									c0.8,0.899,1.4,1.916,1.8,3.05c0.334,1,0.467,1.983,0.4,2.95C136.684,74.866,136.333,75.667,135.7,76.1z"/>
							</g>
							<g>
								<linearGradient id="SVGID_25_" gradientUnits="userSpaceOnUse" x1="130.2939" y1="76.2026" x2="131.5439" y2="65.8026">
									<stop  offset="0" style="stop-color:#FB8EFE"/>
									<stop  offset="0.4863" style="stop-color:#E575C4"/>
									<stop  offset="0.7373" style="stop-color:#DB6AAB"/>
								</linearGradient>
								<path style="fill-rule:evenodd;clip-rule:evenodd;fill:url(#SVGID_25_);" d="M132.1,71.85c-0.133,0.5-0.333,1.351-0.6,2.551
									c-0.2,1.1-0.367,1.816-0.5,2.149c-0.9-1.333-1.35-3.333-1.35-6c-0.033-1,0.083-1.95,0.35-2.85
									c0.333-1.101,0.85-1.767,1.55-2C132.617,67.434,132.8,69.483,132.1,71.85z"/>
								<path style="fill-rule:evenodd;clip-rule:evenodd;fill:#F6E7EB;" d="M131.05,76.65c0-1.534,0.267-3.434,0.8-5.7
									c0.2-1.2,0.301-2.101,0.301-2.7c0-1.033-0.2-1.9-0.601-2.6c0.767,0.732,1.351,1.666,1.75,2.8c0.4,1.166,0.567,2.35,0.5,3.55
									c-0.133,1.033-0.417,1.983-0.85,2.85C132.45,75.883,131.816,76.483,131.05,76.65z"/>
							</g>
						</g>
					</g>
				</g>
			</g>
		</g>
	</g>
</g>
<g>
	
		<use xlink:href="#FlashAICB_x2F_Layer_36_copy_5_x2F__x3C_Path_x3E__x5F_2"  width="118.7" height="57.15" y="-57.15" transform="matrix(1 0 0 -1 26.4502 86.9004)" style="overflow:visible;opacity:0.2813;enable-background:new    ;"/>
	
		<use xlink:href="#FlashAICB_x2F_Layer_36_copy_5_x2F__x3C_Path_x3E__x5F_1"  width="110" height="55.8" y="-55.8" transform="matrix(1 0 0 -1 30.6001 28.1001)" style="overflow:visible;opacity:0.1094;enable-background:new    ;"/>
	
		<use xlink:href="#FlashAICB_x2F_Layer_36_copy_5_x2F__x3C_Path_x3E_"  width="110" height="61.294" y="-61.294" transform="matrix(1 0 0 -1 30.6001 28.1001)" style="overflow:visible;opacity:0.0898;enable-background:new    ;"/>
</g>
</svg>
