<?xml version="1.0" encoding="iso-8859-1"?>
<!-- Generator: Adobe Illustrator 15.1.0, SVG Export Plug-In . SVG Version: 6.00 Build 0)  -->
<!DOCTYPE svg PUBLIC "-//W3C//DTD SVG 1.1//EN" "http://www.w3.org/Graphics/SVG/1.1/DTD/svg11.dtd">
<svg version="1.1" xmlns="http://www.w3.org/2000/svg" xmlns:xlink="http://www.w3.org/1999/xlink" x="0px" y="0px" width="60px"
	 height="60px" viewBox="0 0 60 60" style="enable-background:new 0 0 60 60;" xml:space="preserve">
<symbol  id="FlashAICB_x5F_0_x2F_Layer_1_x2F__x3C_Path_x3E__x5F_11" viewBox="0 -8.45 12.55 8.45">
	<g id="Layer_1_5_">
		<path style="fill-rule:evenodd;clip-rule:evenodd;" d="M12.45-1.95h0.05l0.05-4.4H12.5c-0.6,0-1.083-0.217-1.45-0.65
			c-0.333-0.4-0.483-0.883-0.45-1.45H1.8c0.034,0.534-0.1,1-0.4,1.4C1.067-6.617,0.6-6.383,0-6.35l0.1,4.4
			C1.267-1.917,1.883-1.267,1.95,0h8.55c0.033-0.533,0.217-0.983,0.55-1.35C11.383-1.75,11.85-1.95,12.45-1.95z"/>
	</g>
</symbol>
<symbol  id="FlashAICB_x5F_0_x2F_Layer_1_x2F__x3C_Path_x3E__x5F_14" viewBox="0 -19.1 19.3 19.1">
	<g id="Layer_1_4_">
		<polygon style="fill-rule:evenodd;clip-rule:evenodd;fill:#FFFFFF;" points="19.3,-19.1 0,-19.1 0.55,0 18.9,0 		"/>
	</g>
</symbol>
<symbol  id="FlashAICB_x5F_0_x2F_Layer_1_x2F__x3C_Path_x3E__x5F_23" viewBox="0 -4.4 49.25 4.4">
	<g id="Layer_1_3_">
		
			<radialGradient id="SVGID_1_" cx="24.5498" cy="-3" r="23.7" gradientTransform="matrix(1 0 0 -0.1403 0 -3.4209)" gradientUnits="userSpaceOnUse">
			<stop  offset="0" style="stop-color:#000000"/>
			<stop  offset="0.9216" style="stop-color:#000000;stop-opacity:0.1686"/>
			<stop  offset="1" style="stop-color:#000000;stop-opacity:0"/>
		</radialGradient>
		<path style="fill-rule:evenodd;clip-rule:evenodd;fill:url(#SVGID_1_);" d="M49.25-2.65c0-0.733-1.817-1.217-5.45-1.45
			c-3.233-0.2-9.75-0.3-19.55-0.3C14.183-4.4,7.667-4.3,4.7-4.1C1.567-3.867,0-3.383,0-2.65S2.4-1.3,7.2-0.8C12-0.267,17.8,0,24.6,0
			c6.8,0,12.617-0.267,17.45-0.8C46.85-1.3,49.25-1.917,49.25-2.65z"/>
	</g>
</symbol>
<symbol  id="FlashAICB_x5F_0_x2F_Layer_1_x2F__x3C_Path_x3E__x5F_9" viewBox="0 -17.65 26.3 17.65">
	<g id="Layer_1_6_">
		<path style="fill-rule:evenodd;clip-rule:evenodd;fill:#FFFFFF;" d="M26.3-5.05c-6-0.434-11.517-2.067-16.55-4.9
			c-3.633-2.033-6.883-4.6-9.75-7.7L0.5,0h25.7L26.3-5.05z"/>
	</g>
</symbol>
<symbol  id="transparent_x5F_box_1_" viewBox="0 -50 50 50">
	<g id="Layer_1_2_">
		<polygon style="fill-rule:evenodd;clip-rule:evenodd;fill:#CCCCCC;" points="50,-50 0,-50 0,0 50,0 		"/>
	</g>
</symbol>
<g id="transparent_x5F_box">
	
		<use xlink:href="#transparent_x5F_box_1_"  width="50" height="50" y="-50" transform="matrix(1.2 0 0 -1.2 0 0)" style="overflow:visible;opacity:0;"/>
</g>
<g id="Layer_1">
	<g>
		
			<use xlink:href="#FlashAICB_x5F_0_x2F_Layer_1_x2F__x3C_Path_x3E__x5F_23"  width="49.25" height="4.4" y="-4.4" transform="matrix(1.2 0 0 -1.2 0.6001 53.9502)" style="overflow:visible;opacity:0.6406;enable-background:new    ;"/>
		
			<linearGradient id="SVGID_2_" gradientUnits="userSpaceOnUse" x1="185.4902" y1="-161.2568" x2="188.7121" y2="-161.2568" gradientTransform="matrix(-0.1397 1.1918 -1.1918 -0.1397 -146.1015 -188.7001)">
			<stop  offset="0" style="stop-color:#341706"/>
			<stop  offset="1" style="stop-color:#7E3F1B"/>
		</linearGradient>
		<polygon style="fill-rule:evenodd;clip-rule:evenodd;fill:url(#SVGID_2_);" points="18.299,49.979 24.659,53.1 22.799,59.159 
			15.419,59.159 		"/>
		
			<linearGradient id="SVGID_3_" gradientUnits="userSpaceOnUse" x1="153.8232" y1="206.1836" x2="154.1982" y2="202.9836" gradientTransform="matrix(1.2 0 0 1.2 -146.1005 -188.7001)">
			<stop  offset="0" style="stop-color:#341706"/>
			<stop  offset="1" style="stop-color:#7E3F1B"/>
		</linearGradient>
		<polygon style="fill-rule:evenodd;clip-rule:evenodd;fill:url(#SVGID_3_);" points="40.56,49.979 43.38,59.159 36.06,59.159 
			34.199,53.1 		"/>
		
			<radialGradient id="SVGID_4_" cx="146" cy="180.6504" r="21.0625" gradientTransform="matrix(1.2 0 0 -1.1395 -146.1005 233.9243)" gradientUnits="userSpaceOnUse">
			<stop  offset="0" style="stop-color:#201B1B"/>
			<stop  offset="1" style="stop-color:#3B3B3B"/>
		</radialGradient>
		<polygon style="fill-rule:evenodd;clip-rule:evenodd;fill:url(#SVGID_4_);" points="50.28,55.439 7.919,55.439 9.899,0.719 
			48.54,0.719 		"/>
		
			<radialGradient id="SVGID_5_" cx="146" cy="180.5752" r="20.4266" gradientTransform="matrix(1.2 0 0 -1.1397 -146.1005 233.7984)" gradientUnits="userSpaceOnUse">
			<stop  offset="0" style="stop-color:#595959"/>
			<stop  offset="0.9922" style="stop-color:#372F30"/>
		</radialGradient>
		<polygon style="fill-rule:evenodd;clip-rule:evenodd;fill:url(#SVGID_5_);" points="47.999,1.439 49.619,54.539 8.58,54.539 
			10.5,1.439 		"/>
		
			<radialGradient id="SVGID_6_" cx="146" cy="180.5254" r="19.7728" gradientTransform="matrix(1.2 0 0 -1.1401 -146.1005 233.7488)" gradientUnits="userSpaceOnUse">
			<stop  offset="0" style="stop-color:#201B1B"/>
			<stop  offset="1" style="stop-color:#3B3B3B"/>
		</radialGradient>
		<polygon style="fill-rule:evenodd;clip-rule:evenodd;fill:url(#SVGID_6_);" points="47.459,2.219 48.959,53.64 9.24,53.64 
			10.98,2.219 		"/>
		
			<radialGradient id="SVGID_7_" cx="146" cy="180.4248" r="18.8022" gradientTransform="matrix(1.2 0 0 -1.1401 -146.1005 233.5144)" gradientUnits="userSpaceOnUse">
			<stop  offset="0" style="stop-color:#595959"/>
			<stop  offset="0.9922" style="stop-color:#372F30"/>
		</radialGradient>
		<polygon style="fill-rule:evenodd;clip-rule:evenodd;fill:url(#SVGID_7_);" points="46.56,3.359 47.939,52.259 10.259,52.259 
			11.88,3.359 		"/>
		
			<linearGradient id="SVGID_8_" gradientUnits="userSpaceOnUse" x1="210.7461" y1="-3.1426" x2="254.4415" y2="-3.1426" gradientTransform="matrix(0.7408 0.944 -0.944 0.7408 -146.0996 -188.7)">
			<stop  offset="0" style="stop-color:#EAE3DD"/>
			<stop  offset="1" style="stop-color:#CCC5C0"/>
		</linearGradient>
		<polygon style="fill-rule:evenodd;clip-rule:evenodd;fill:url(#SVGID_8_);" points="45.3,4.439 46.499,50.939 11.7,50.939 
			13.14,4.439 		"/>
		
			<radialGradient id="SVGID_9_" cx="146" cy="180.1992" r="15.5131" gradientTransform="matrix(1.2 0 0 -1.1787 -146.1005 239.9435)" gradientUnits="userSpaceOnUse">
			<stop  offset="0" style="stop-color:#595959"/>
			<stop  offset="0.9922" style="stop-color:#282222"/>
		</radialGradient>
		<polygon style="fill-rule:evenodd;clip-rule:evenodd;fill:url(#SVGID_9_);" points="44.34,48.659 13.919,48.659 15.059,6.419 
			43.38,6.419 		"/>
		
			<use xlink:href="#FlashAICB_x5F_0_x2F_Layer_1_x2F__x3C_Path_x3E__x5F_14"  width="19.3" height="19.1" y="-19.1" transform="matrix(1.2 0 0 -1.2 18.1001 9.7002)" style="overflow:visible;opacity:0.2383;enable-background:new    ;"/>
		<polygon style="fill-rule:evenodd;clip-rule:evenodd;" points="40.14,31.259 17.04,31.259 17.759,8.519 39.719,8.519 		"/>
		
			<radialGradient id="SVGID_10_" cx="146" cy="170.5498" r="13.2625" gradientTransform="matrix(1.2 0 0 -1.2 -146.1005 220.6184)" gradientUnits="userSpaceOnUse">
			<stop  offset="0" style="stop-color:#004FC7"/>
			<stop  offset="1" style="stop-color:#00449F"/>
		</radialGradient>
		<polygon style="fill-rule:evenodd;clip-rule:evenodd;fill:url(#SVGID_10_);" points="40.8,31.859 17.7,31.859 18.419,9.059 
			40.38,9.059 		"/>
		<path style="fill-rule:evenodd;clip-rule:evenodd;fill:#005DE3;" d="M29.34,20.64l-0.121-0.06c-0.32,0.04-0.539,0.259-0.66,0.66
			c-0.12,0.359-0.1,0.699,0.06,1.019c0.24-0.119,0.5-0.1,0.78,0.06c0.24,0.24,0.34,0.48,0.3,0.721c-0.08,0.28-0.3,0.419-0.66,0.419
			h-0.121l-0.6-0.3c-0.239-0.24-0.379-0.42-0.419-0.541c-0.32-0.6-0.34-1.22-0.06-1.859c0.24-0.561,0.64-0.96,1.2-1.2l-0.42-1.5
			c-1.439,0.68-2.14,1.7-2.1,3.06c0,0.92,0.361,1.681,1.081,2.281c0.8,0.68,1.68,0.88,2.64,0.6L29.34,20.64z M31.739,21.78
			c-0.039-0.401-0.2-0.741-0.48-1.021c-0.359-0.32-0.759-0.459-1.199-0.42l0.84,3.24C31.539,23.179,31.819,22.579,31.739,21.78z
			 M28.259,16.559l-0.12-0.479c-0.56-1.44-0.54-2.801,0.06-4.08c0.4-0.801,0.88-1.2,1.44-1.2c0.72-0.04,1.24,0.5,1.56,1.62
			c0.399,1.4,0.14,2.821-0.78,4.261c-0.159,0.239-0.499,0.539-1.02,0.9l0.419,1.739c0.92-0.04,1.661,0.26,2.221,0.9
			c0.64,0.681,0.82,1.5,0.54,2.461c-0.24,0.88-0.741,1.459-1.5,1.739c0.239,0.961,0.239,1.78,0,2.461
			c-0.28,0.759-0.86,1.2-1.74,1.319c-0.84,0.12-1.48-0.12-1.921-0.72c-0.32-0.4-0.399-0.84-0.239-1.32
			c0.199-0.479,0.559-0.74,1.08-0.779c0.56-0.041,0.92,0.179,1.081,0.66c0.119,0.32,0.08,0.6-0.121,0.84
			c-0.159,0.239-0.419,0.399-0.779,0.479c0.32,0.24,0.7,0.3,1.141,0.181c0.439-0.121,0.72-0.34,0.839-0.66
			c0.28-0.641,0.28-1.361,0-2.161c-1.28,0.44-2.42,0.32-3.419-0.36c-0.88-0.6-1.42-1.48-1.62-2.64
			C25.14,19.68,26.1,17.959,28.259,16.559z M29.04,13.019c-0.44,0.961-0.42,2.04,0.06,3.24c1.08-0.64,1.52-1.66,1.319-3.06
			c-0.119-0.8-0.359-1.16-0.72-1.081C29.459,12.119,29.239,12.419,29.04,13.019z"/>
		
			<linearGradient id="SVGID_11_" gradientUnits="userSpaceOnUse" x1="-213.979" y1="90.6406" x2="-204.2809" y2="90.6406" gradientTransform="matrix(-0.3403 -1.1507 1.1507 -0.3403 -146.0997 -188.7009)">
			<stop  offset="0" style="stop-color:#00235D"/>
			<stop  offset="1" style="stop-color:#001C52"/>
		</linearGradient>
		<path style="fill-rule:evenodd;clip-rule:evenodd;fill:url(#SVGID_11_);" d="M29.159,20.519h-0.12c-0.32,0-0.54,0.2-0.66,0.6
			c-0.121,0.401-0.101,0.761,0.06,1.081c0.36-0.12,0.64-0.1,0.84,0.06c0.239,0.201,0.32,0.421,0.239,0.66
			c-0.04,0.28-0.239,0.42-0.6,0.42H28.74c-0.201,0-0.38-0.08-0.541-0.24c-0.119-0.08-0.28-0.28-0.48-0.6
			c-0.32-0.6-0.32-1.22,0-1.859c0.24-0.521,0.641-0.92,1.2-1.2L28.5,18c-1.44,0.64-2.16,1.639-2.16,3c0.04,0.92,0.419,1.7,1.14,2.34
			c0.759,0.64,1.62,0.82,2.58,0.541L29.159,20.519z M31.56,21.659c0-0.36-0.16-0.68-0.479-0.96c-0.32-0.32-0.701-0.48-1.141-0.48
			l0.779,3.3C31.36,23.159,31.639,22.539,31.56,21.659z M25.98,18.48c0.519-0.801,1.24-1.46,2.16-1.98l-0.181-0.48
			c-0.52-1.439-0.479-2.82,0.121-4.139c0.359-0.761,0.839-1.16,1.439-1.2c0.72-0.041,1.241,0.519,1.561,1.679
			c0.399,1.4,0.14,2.821-0.78,4.26c-0.161,0.201-0.501,0.48-1.02,0.84l0.419,1.74c0.841-0.04,1.58,0.26,2.22,0.9
			c0.641,0.72,0.82,1.56,0.54,2.52c-0.24,0.88-0.739,1.46-1.5,1.74c0.24,0.88,0.24,1.681,0,2.4c-0.28,0.761-0.86,1.2-1.74,1.321
			c-0.88,0.12-1.54-0.121-1.979-0.721c-0.32-0.439-0.38-0.88-0.181-1.319c0.201-0.441,0.56-0.68,1.081-0.721
			c0.521-0.08,0.86,0.121,1.02,0.6c0.24,0.721-0.06,1.18-0.9,1.38c0.36,0.2,0.76,0.24,1.2,0.12c0.401-0.12,0.68-0.34,0.841-0.66
			c0.24-0.6,0.24-1.319,0-2.16c-1.28,0.439-2.42,0.34-3.42-0.3c-0.92-0.64-1.46-1.54-1.621-2.7
			C25.1,20.519,25.339,19.479,25.98,18.48z M28.859,12.899c-0.4,0.959-0.38,2.04,0.06,3.24c1.12-0.68,1.561-1.701,1.32-3.06
			c-0.12-0.76-0.339-1.12-0.659-1.08C29.379,12.039,29.139,12.339,28.859,12.899z"/>
		
			<use xlink:href="#FlashAICB_x5F_0_x2F_Layer_1_x2F__x3C_Path_x3E__x5F_11"  width="12.55" height="8.45" y="-8.45" transform="matrix(1.2 0 0 -1.2 21.6001 36.7998)" style="overflow:visible;opacity:0.3008;enable-background:new    ;"/>
		
			<linearGradient id="SVGID_12_" gradientUnits="userSpaceOnUse" x1="139.7998" y1="191.8496" x2="152.2998" y2="191.8496" gradientTransform="matrix(1.2 0 0 1.2 -146.1005 -188.7001)">
			<stop  offset="0" style="stop-color:#FFD852"/>
			<stop  offset="0.1529" style="stop-color:#FFEE4F"/>
			<stop  offset="0.3686" style="stop-color:#F4AC3C"/>
			<stop  offset="0.6549" style="stop-color:#C99104"/>
			<stop  offset="0.8157" style="stop-color:#FFB34A"/>
			<stop  offset="1" style="stop-color:#EDED74"/>
		</linearGradient>
		<path style="fill-rule:evenodd;clip-rule:evenodd;fill:url(#SVGID_12_);" d="M23.34,38.039c0.36-0.4,0.56-0.92,0.6-1.56h10.259
			c0.04,0.64,0.261,1.181,0.66,1.62c0.4,0.48,0.96,0.719,1.681,0.719h0.06l0.06,5.281l-0.06-0.061c-0.72,0-1.3,0.28-1.74,0.841
			c-0.399,0.479-0.601,1.039-0.601,1.679h-10.5c0.04-0.64-0.12-1.199-0.479-1.679c-0.4-0.48-0.961-0.741-1.68-0.78l0.12-5.281
			C22.4,38.779,22.939,38.519,23.34,38.039z"/>
		<path style="fill-rule:evenodd;clip-rule:evenodd;fill:#CF7923;" d="M22.5,39.239l-0.06,4.38c1.24,0.16,1.899,0.94,1.979,2.34
			h9.24c0-0.68,0.221-1.24,0.66-1.68c0.36-0.36,0.859-0.58,1.5-0.66l-0.061-4.38c-1.279-0.12-1.999-0.82-2.159-2.1h-9
			C24.439,38.419,23.739,39.119,22.5,39.239z M22.319,38.999c0.6,0,1.101-0.22,1.5-0.659c0.32-0.401,0.5-0.881,0.541-1.44h9.48
			c0,0.56,0.179,1.039,0.54,1.44c0.399,0.439,0.92,0.659,1.56,0.659h0.06l0.061,4.86h-0.061c-0.68,0-1.22,0.24-1.619,0.721
			c-0.361,0.439-0.521,0.979-0.48,1.619H24.18c0.04-0.6-0.101-1.12-0.421-1.56c-0.399-0.48-0.92-0.741-1.56-0.78L22.319,38.999z"/>
		<g>
			<path style="fill-rule:evenodd;clip-rule:evenodd;fill:#FFFFFF;" d="M31.68,39.18c0.8,0.68,1.2,1.54,1.2,2.579
				c0,1.12-0.421,2.001-1.261,2.641c-0.399,0.359-0.839,0.6-1.319,0.72c-0.481,0.12-1.121,0.18-1.92,0.18h-1.621l0.06-7.02h1.621
				c0.84,0,1.46,0.061,1.86,0.18C30.78,38.58,31.239,38.818,31.68,39.18z M27.959,39.239v5.101H28.5c0.52,0,0.959-0.061,1.319-0.181
				c0.441-0.12,0.76-0.3,0.961-0.54c0.6-0.479,0.899-1.1,0.899-1.86c0-0.759-0.28-1.379-0.84-1.859
				c-0.561-0.439-1.341-0.66-2.34-0.66H27.959z"/>
			
				<linearGradient id="SVGID_13_" gradientUnits="userSpaceOnUse" x1="-242.8823" y1="21.8213" x2="-236.4243" y2="21.8213" gradientTransform="matrix(-0.6364 -1.0173 1.0173 -0.6364 -146.1004 -188.7)">
				<stop  offset="0" style="stop-color:#975300"/>
				<stop  offset="0.9922" style="stop-color:#813E00"/>
			</linearGradient>
			<path style="fill-rule:evenodd;clip-rule:evenodd;fill:url(#SVGID_13_);" d="M31.499,38.999c0.801,0.68,1.2,1.54,1.2,2.581
				c0,1.119-0.419,1.999-1.26,2.639c-0.44,0.361-0.88,0.6-1.32,0.721c-0.4,0.119-1.02,0.18-1.86,0.18H26.58l0.06-7.02h1.679
				c0.761,0,1.38,0.06,1.861,0.18C30.619,38.399,31.06,38.64,31.499,38.999z M27.84,39.059l-0.06,5.101h0.539
				c0.56,0,1.021-0.06,1.38-0.18c0.32-0.12,0.64-0.3,0.96-0.54c0.561-0.48,0.84-1.101,0.84-1.859c0-0.761-0.279-1.381-0.84-1.861
				c-0.561-0.439-1.319-0.66-2.279-0.66H27.84z"/>
		</g>
		
			<use xlink:href="#FlashAICB_x5F_0_x2F_Layer_1_x2F__x3C_Path_x3E__x5F_9"  width="26.3" height="17.65" y="-17.65" transform="matrix(1.2 0 0 -1.2 13.2002 5.1001)" style="overflow:visible;opacity:0.1992;enable-background:new    ;"/>
		
			<linearGradient id="SVGID_14_" gradientUnits="userSpaceOnUse" x1="-204.146" y1="146.1563" x2="-202.846" y2="146.1563" gradientTransform="matrix(9.230744e-004 -1.2 1.2 -0.0012 -146.0996 -188.7007)">
			<stop  offset="0" style="stop-color:#341706"/>
			<stop  offset="1" style="stop-color:#7E3F1B"/>
		</linearGradient>
		<rect x="7.5" y="54.239" style="fill-rule:evenodd;clip-rule:evenodd;fill:url(#SVGID_14_);" width="43.2" height="1.44"/>
		<path style="fill-rule:evenodd;clip-rule:evenodd;fill:#663214;" d="M12.059,54.659l-0.179-1.141l0.779-0.3L13.5,53.1l0.24,1.38
			c0.199,0.56,0.439,0.96,0.72,1.2c-0.439,0.28-0.72,0.42-0.84,0.42l-0.839-0.48L12.059,54.659z"/>
		<polygon style="fill-rule:evenodd;clip-rule:evenodd;fill:#C66630;" points="11.04,54.419 9.659,53.34 10.799,53.1 13.5,53.1 
			12.659,53.34 		"/>
		<path style="fill-rule:evenodd;clip-rule:evenodd;fill:#7E3F1B;" d="M13.619,56.1h-3.9c-0.16-0.12-0.259-0.4-0.3-0.841
			c-0.08-0.319-0.06-0.739,0.061-1.26l0.179-0.659h3.121l0.06,1.02C12.919,55.159,13.18,55.739,13.619,56.1z"/>
		<path style="fill-rule:evenodd;clip-rule:evenodd;fill:#9F5025;" d="M46.439,54.659c0.08,0.04-0.16,0.359-0.721,0.96
			c-0.399,0.279-0.68,0.44-0.839,0.48l-0.84-0.42c0.279-0.24,0.499-0.641,0.659-1.2l0.3-1.38l0.841,0.119l0.779,0.3
			C46.46,54.279,46.399,54.659,46.439,54.659z"/>
		<polygon style="fill-rule:evenodd;clip-rule:evenodd;fill:#C66630;" points="47.399,54.419 45.84,53.34 44.999,53.1 47.699,53.1 
			48.78,53.34 		"/>
		<path style="fill-rule:evenodd;clip-rule:evenodd;fill:#7E3F1B;" d="M44.88,56.1c0.399-0.36,0.66-0.94,0.779-1.74l0.06-1.02h3.062
			l0.179,0.659c0.121,0.521,0.161,0.94,0.121,1.26c-0.081,0.44-0.181,0.721-0.3,0.841H44.88z"/>
	</g>
</g>
</svg>
