<?xml version="1.0" encoding="iso-8859-1"?>
<!-- Generator: Adobe Illustrator 15.1.0, SVG Export Plug-In . SVG Version: 6.00 Build 0)  -->
<!DOCTYPE svg PUBLIC "-//W3C//DTD SVG 1.1//EN" "http://www.w3.org/Graphics/SVG/1.1/DTD/svg11.dtd">
<svg version="1.1" xmlns="http://www.w3.org/2000/svg" xmlns:xlink="http://www.w3.org/1999/xlink" x="0px" y="0px" width="60px"
	 height="60px" viewBox="0 0 60 60" style="enable-background:new 0 0 60 60;" xml:space="preserve">
<symbol  id="transparent_x5F_box_1_" viewBox="0 -50 50 50">
	<g id="Layer_1_2_">
		<polygon style="fill-rule:evenodd;clip-rule:evenodd;fill:#CCCCCC;" points="50,-50 0,-50 0,0 50,0 		"/>
	</g>
</symbol>
<g id="transparent_x5F_box">
	
		<use xlink:href="#transparent_x5F_box_1_"  width="50" height="50" y="-50" transform="matrix(1.2 0 0 -1.2 0 0)" style="overflow:visible;opacity:0;"/>
</g>
<g id="flash0.ai">
	<g>
		<path style="fill-rule:evenodd;clip-rule:evenodd;fill:#6E4819;" d="M37.95,14l1.95,0.85c0.433,0.133,0.767,0.283,1,0.45
			c0.866,0.467,1.316,1.034,1.35,1.7c0.4,0,0.616,0.017,0.65,0.05c0.1,0.133,0.116,0.417,0.05,0.85c0.2-0.033,0.316-0.066,0.35-0.1
			l0.05,0.6c0.267-0.033,0.417,0,0.45,0.1c0.066,0.3,0.117,0.45,0.15,0.45c0.1,0.2,0.25,0.3,0.45,0.3
			c0.033,0.133,0.066,0.233,0.1,0.3c-0.533,0.233-0.816,0.383-0.85,0.45l-0.101,0.35l0.75-0.05c0.233,0.034,0.384,0.117,0.45,0.25
			c0.033,0.067,0.033,0.184,0,0.35l-0.05,0.05c-0.267,0.667-0.816,0.933-1.65,0.8l-0.399,0.2c-0.267,0.1-0.4,0.25-0.4,0.45v0.4
			c-0.767,0.667-1.45,1.034-2.05,1.1c-0.767,0.033-1.15-0.066-1.15-0.3l-0.2-1.75l-0.35,1.2c-0.434,0.8-1.1,1.284-2,1.45l-2.55,0.35
			l1.05,0.3c0.8,0.167,1.4,0.233,1.8,0.2c0.7-0.067,1.316-0.283,1.851-0.65L38.6,24.95c0,0.2,0.084,0.35,0.25,0.45
			c0,0.033,0,0.067,0,0.1c-0.699,0.3-1.483,0.517-2.35,0.65c-0.134,0.067-0.267,0.1-0.4,0.1c-0.666-0.467-1.149-0.433-1.449,0.1
			c-0.134-0.033-0.233-0.05-0.301-0.05v-0.05c-0.166,0-0.366,0.05-0.6,0.15c-0.8-0.033-1.65-0.083-2.55-0.15
			c-0.267-0.233-0.467-0.5-0.601-0.8c0.301,0.1,0.684,0.167,1.15,0.2c0.5,0,0.833-0.1,1-0.3c-0.233-0.1-0.65-0.583-1.25-1.45l1,0.3
			l-0.25-0.75c0.233,0.466,0.8,0.75,1.7,0.85c0.233,0.1,0.483,0.1,0.75,0c0.133,0,0.366-0.066,0.7-0.2l0.199,0.05
			c1.134,0.133,1.867-0.217,2.2-1.05l0.15-0.3c0.233-0.433,0.233-1.117,0-2.05c0.166,0.133,0.45,0.35,0.85,0.65
			c0.334,0.267,0.5,0.517,0.5,0.75c0.533,0.033,0.967-0.117,1.3-0.45c0,0.033,0.017,0.05,0.051,0.05c1,0.133,1.633-0.133,1.899-0.8
			c0.066-0.4,0.117-0.733,0.15-1c0.066-0.367,0.267-0.534,0.6-0.5c0.101-0.333-0.033-0.7-0.399-1.1c-0.5-0.6-0.767-0.95-0.801-1.05
			c-0.166,0.067-0.283,0.217-0.35,0.45c-0.167,0.3-0.3,0.5-0.4,0.6c0-0.067-0.017-0.517-0.05-1.35c0-0.5-0.133-0.867-0.399-1.1
			c-0.13,0.42-0.196,0.836-0.2,1.25c-0.006-0.581-0.14-1.181-0.4-1.8c-0.233-0.533-0.399-0.533-0.5,0
			c-0.033,0.133-0.066,0.35-0.1,0.65s-0.134,0.517-0.3,0.65c-0.067-0.167-0.15-0.383-0.25-0.65c-0.034-0.367-0.067-0.617-0.101-0.75
			c-0.133-0.333-0.267-0.583-0.399-0.75C38.35,14.333,38.116,14.167,37.95,14z M28.6,6.3l-0.2-0.4c-0.066-0.8-0.3-1.333-0.7-1.6
			c-0.434-0.167-0.75-0.283-0.95-0.35c-0.4-0.167-0.533-0.45-0.4-0.85c-0.167,0.267-0.317,0.35-0.45,0.25L25.95,3l0.15-0.05
			l0.05-0.05c0.2-0.2,0.417-0.367,0.65-0.5c-0.2,0.434-0.267,0.7-0.2,0.8L26.8,3c0.1,0.067,0.217,0.1,0.35,0.1
			c-0.066,0.267-0.066,0.45,0,0.55c0.1,0.2,0.25,0.2,0.45,0c0.2-0.267,0.35-0.45,0.45-0.55c0.4-0.3,0.6-0.25,0.6,0.15
			c0.1,0.633,0.15,1,0.15,1.1c0.1-0.1,0.233-0.333,0.4-0.7c0.1-0.3,0.233-0.483,0.4-0.55l0.1,1c0,0.533,0.033,0.833,0.1,0.9
			c0.1-0.1,0.2-0.333,0.3-0.7c0.134-0.367,0.25-0.583,0.351-0.65c0.524,0.394,0.842,0.819,0.95,1.275
			c-0.168-0.787-0.284-1.378-0.351-1.775V3.1c0.167,0.167,0.283,0.316,0.351,0.45l0.05,0.05l0.3,0.4c0.267,0.4,0.5,0.867,0.7,1.4
			v0.05c0,0.333,0.116,0.933,0.35,1.8c0.066,0.5,0.167,1.233,0.3,2.2c-0.233-0.7-0.433-1.167-0.6-1.4c-0.467-0.533-0.75-1-0.85-1.4
			V8.8c0,0.7-0.067,1.133-0.2,1.3c-0.066-0.167-0.334-0.967-0.8-2.4C30.517,7.233,30.4,6.883,30.3,6.65
			c-0.066,0.233-0.149,0.517-0.25,0.85c-0.033,0.367-0.083,0.633-0.15,0.8c-0.1-0.2-0.15-0.45-0.15-0.75
			c0-0.433-0.017-0.716-0.05-0.85c-0.233-0.867-0.367-1.35-0.4-1.45C29.1,5.35,28.867,5.7,28.6,6.3z M34.2,13.65
			c-0.167,0.434-0.316,0.7-0.45,0.8c-0.2-0.6-0.4-1.017-0.6-1.25h0.199l0.25-0.1h0.351L34.2,13.65z M34.95,13.1l-0.15,0.65
			c-0.033,0.333-0.05,0.833-0.05,1.5c-0.134-0.033-0.316-0.55-0.55-1.55l0.1,0.2c-0.033-0.267,0.066-0.533,0.3-0.8v0.6l0.15-0.6
			H34.95z M35.7,13.15l0.8,0.3c-0.066,0.033-0.116,0.233-0.15,0.6c-0.033,0.333-0.133,0.55-0.3,0.65
			C36.05,14.333,35.934,13.817,35.7,13.15z M37.65,17.85L37.3,17.7c-0.033-0.167-0.083-0.267-0.149-0.3
			c-0.2-0.167-0.483-0.2-0.851-0.1c-0.934,0.133-1.366,0.383-1.3,0.75c0.2-0.3,0.533-0.45,1-0.45c0.1,0,0.333-0.033,0.7-0.1
			c0.267,0,0.434,0.067,0.5,0.2l-0.05,0.1L37.65,17.85l0.399,0.05c0.3-0.066,0.483,0.2,0.55,0.8c0.167,0.1,0.301,0.233,0.4,0.4
			c0.066,0.2-0.083,0.367-0.45,0.5c-0.133,0.5-0.35,0.833-0.649,1c-0.4,0.233-0.834,0.316-1.301,0.25
			c-0.566-0.1-0.933-0.217-1.1-0.35c-0.467-0.467-0.684-0.8-0.65-1l0.301,0.25L34.9,19.6c0.1,0.433,0.716,0.65,1.85,0.65
			c0.533,0,0.9-0.083,1.1-0.25l0.4-0.5l0.5-0.05c0.066-0.434-0.2-0.767-0.8-1c-0.334-0.067-0.5,0.15-0.5,0.65
			c-0.101,0.367-0.184,0.6-0.25,0.7c-0.2-0.233-0.316-0.533-0.351-0.9c-0.033-0.367,0.034-0.667,0.2-0.9
			c-0.333-0.133-0.517-0.2-0.55-0.2c-0.467,0-0.8,0.083-1,0.25l-0.15,0.2l-0.25,0.2c-0.033,0.033-0.05,0.066-0.05,0.1
			c-0.133,0.133-0.267,0.15-0.399,0.05c-0.233-0.1-0.301-0.3-0.2-0.6c0.133-0.267,0.283-0.483,0.45-0.65
			C35.134,17.117,35.45,17,35.85,17l-0.05,0.1c0-0.033,0.167-0.067,0.5-0.1c0.3,0,0.483-0.017,0.55-0.05l0.45-0.4
			c0.167-0.167,0.334-0.233,0.5-0.2c0,0.133-0.05,0.283-0.149,0.45c-0.034,0.1-0.15,0.25-0.351,0.45l0.5,0.25
			c0.134,0.133,0.2,0.25,0.2,0.35H37.65z M37.9,14c-0.034,0.1-0.051,0.4-0.051,0.9c0.034,0.4-0.033,0.633-0.199,0.7l-0.15-1.05
			c-0.134-0.367-0.333-0.667-0.6-0.9L36.8,13.5L37.9,14z M25.05,5.35c0.4,0.3,0.583,0.733,0.55,1.3c0.033-0.1,0.133-0.2,0.3-0.3
			c0.133,0.767,0.2,1.283,0.2,1.55c0.1-0.267,0.167-0.483,0.2-0.65c0.067-0.367,0.184-0.517,0.35-0.45
			c0.198,0.066,0.298,0.783,0.3,2.15c0.008-0.252,0.075-0.519,0.2-0.8c0.2-0.433,0.417-0.6,0.65-0.5c0.2,0.1,0.284,0.5,0.25,1.2
			c0,0.333-0.033,0.75-0.1,1.25c0.066-0.2,0.183-0.333,0.35-0.4c0.2-0.1,0.367,0.017,0.5,0.35c0.133,0.397,0.149,1.289,0.05,2.675
			c0.012-0.095,0.079-0.204,0.2-0.325c0.133-0.1,0.233-0.133,0.3-0.1c0.133,0.034,0.217,0.083,0.25,0.15c0,0.033,0,0.117,0,0.25
			c0.1,0.533,0.133,1.316,0.1,2.35c-0.034-0.066-0.1-0.533-0.2-1.4c-0.167,0.1-0.333,0.15-0.5,0.15
			c-0.333-1.033-0.517-1.667-0.55-1.9c0-0.667-0.083-1.017-0.25-1.05c-0.267-0.033-0.483,0.233-0.65,0.8
			c0.034-0.367,0.05-0.667,0.05-0.9c-0.033-0.4-0.117-0.667-0.25-0.8l-0.3,0.15c-0.066-0.833-0.45-1.633-1.15-2.4
			c-0.133,0.033-0.233,0.167-0.3,0.4c-0.067,0.233-0.05,0.417,0.05,0.55c0.1,0.1,0.25,0.133,0.45,0.1c0.133,0.1,0.233,0.25,0.3,0.45
			L26.65,9c-0.1,0.133-0.217,0.217-0.35,0.25c-0.167,0.067-0.283,0.133-0.35,0.2c0.066,0.133,0.233,0.283,0.5,0.45
			c0.233,0.167,0.4,0.333,0.5,0.5c0.066,0.167,0.066,0.533,0,1.1c0.066,0.467,0.367,0.95,0.9,1.45l0.4,0.6
			c0.033,0.167,0.233,0.467,0.6,0.9l0.55,0.8c0,0.033,0.083,0.15,0.25,0.35c0.067,0.133,0.133,0.217,0.2,0.25l0.1-0.7l-0.15,0.1
			l-0.05-0.1c0.366-0.3,0.6-0.433,0.7-0.4c0.066,0.133,0.033,0.7-0.101,1.7c-1.133-0.434-1.983-0.75-2.55-0.95
			c0.034-0.133,0.233-0.2,0.6-0.2c0.167,0,0.417,0,0.75,0c-0.2-0.066-0.566-0.183-1.1-0.35c-0.433-0.034-0.7-0.083-0.8-0.15
			c-0.2-0.2-0.167-0.367,0.1-0.5c0.367-0.133,0.6-0.216,0.7-0.25c-0.466-0.1-0.833-0.2-1.1-0.3c-0.534-0.167-0.75-0.383-0.65-0.65
			l0.45-0.05c-0.633-0.033-1-0.15-1.1-0.35c-0.167-0.267,0.033-0.4,0.6-0.4c-0.067-0.133-0.267-0.233-0.6-0.3
			c-0.333-0.167-0.483-0.333-0.45-0.5c0.033-0.2,0.167-0.333,0.4-0.4c0.133,0,0.35-0.033,0.65-0.1c-0.133-0.1-0.45-0.25-0.95-0.45
			c-0.5-0.1-0.816-0.25-0.95-0.45c-0.133-0.3,0.167-0.45,0.9-0.45c-0.133-0.167-0.467-0.417-1-0.75
			c-0.333-0.167-0.467-0.333-0.4-0.5c0.3,0,0.533-0.05,0.7-0.15C24.517,8.083,24.4,7.933,24.2,7.8
			c-0.233-0.133-0.383-0.233-0.45-0.3H24c0.2,0.133,0.367,0.15,0.5,0.05l0.3,0.05c-0.1-0.3-0.216-0.567-0.35-0.8
			c0-0.566,0.017-0.9,0.05-1c0.067-0.2,0.167-0.35,0.3-0.45l0.15-0.1L25.05,5.35z M30,17.35c0-0.167,0-0.283,0-0.35
			c0.2,0.1,0.45,0.083,0.75-0.05c0.366-0.267,0.583-0.45,0.65-0.55c0.066,0.233,0.033,0.517-0.101,0.85
			c-0.166,0.333-0.35,0.517-0.55,0.55c0.033,0.133,0.1,0.333,0.2,0.6c0.066,0.233,0.083,0.417,0.05,0.55c-0.134,0.1-0.267,0.1-0.4,0
			c-0.1-0.067-0.166-0.133-0.199-0.2c0,0.767-0.051,1.167-0.15,1.2c-0.3,0.033-0.45-0.467-0.45-1.5c-0.167,0.533-0.316,0.867-0.45,1
			c-0.033-0.4-0.05-0.733-0.05-1c0-0.567,0.067-0.883,0.2-0.95l-0.1-0.25c0.067,0.067,0.117,0.117,0.15,0.15
			c0.067,0.067,0.15,0.1,0.25,0.1C29.933,17.467,30,17.417,30,17.35z M14.2,52.7l-0.1-0.3c0.033-0.534,0.033-0.917,0-1.15L14,50
			c0,0.8-0.15,1.434-0.45,1.9c-0.133,0.333-0.283,0.5-0.45,0.5h-0.05l-0.4-0.851c0.167-0.399,0.383-0.666,0.65-0.8
			c0.034,0.134,0.05,0.384,0.05,0.75c0.1-0.467,0.25-0.816,0.45-1.05v0.8c0.067-0.233,0.083-0.65,0.05-1.25c0-0.667,0-1.134,0-1.4
			l0.35-0.25l0.1-0.399c0.367,0.5,0.517,1.283,0.45,2.35l-0.2,0.601v0.05l-0.1,0.2L14.2,52.7z M18.95,42.25
			c-0.567-0.167-0.75-0.434-0.55-0.8c0.267,0.066,0.65,0.434,1.15,1.1L18.95,42.25z M14.85,48.75c0-0.167,0.083-0.25,0.25-0.25
			c0.1,0,0.233,0.033,0.4,0.1l0.65,0.301c-0.1,0.199-0.35,0.283-0.75,0.25C15,49.116,14.817,48.983,14.85,48.75z M16.25,47l0.4,0.55
			c-0.066,0.267-0.4,0.283-1,0.05c-0.566-0.166-0.767-0.383-0.6-0.649c0.167,0,0.367,0.033,0.6,0.1
			C15.85,47.116,16.05,47.1,16.25,47z M15.4,46.1c0.133-0.033,0.35-0.033,0.65,0c0.167,0.034,0.4,0.084,0.7,0.15l-0.4,0.25
			C15.783,46.566,15.467,46.434,15.4,46.1z M17.15,44.8l-0.3,0.4c-0.333,0.033-0.6-0.017-0.8-0.15
			c-0.167-0.133-0.183-0.333-0.05-0.6C16.2,44.75,16.583,44.866,17.15,44.8z M17.8,43.4l0.05,0.55c-0.3,0.033-0.467-0.066-0.5-0.3
			c-0.033-0.067-0.05-0.317-0.05-0.75C17.4,43.167,17.567,43.333,17.8,43.4z M37.85,28.1c-0.1-0.1-0.183-0.2-0.25-0.3
			c0.2-0.066,0.45-0.167,0.75-0.3c0.167,0.367,0.25,0.75,0.25,1.15C38.533,28.45,38.283,28.267,37.85,28.1z M36.2,29.65
			c0.399,0.8,0.833,1.367,1.3,1.7c0.2,0.334,0.35,0.634,0.45,0.9c0.166,0.434,0.649,1.4,1.45,2.9c0.267,0.566,0.35,1.166,0.25,1.8
			c-0.233,0.666-0.667,0.767-1.301,0.3c-0.033,0.167,0.067,0.417,0.301,0.75c0.267,0.366,0.399,0.616,0.399,0.75
			c-0.166,0.1-0.467,0.033-0.899-0.2c-0.334-0.133-0.584-0.25-0.75-0.35c0.267,0.166,0.55,0.467,0.85,0.899
			c0.366,0.567,0.467,1.017,0.3,1.351c-0.166,0-0.3-0.084-0.399-0.25c0.433,0.899,0.666,1.6,0.699,2.1
			c0.067,0.533,0.15,0.917,0.25,1.15L38.8,46.1c-0.1,1-0.149,1.851-0.149,2.551c0,0.733,0.383,1.333,1.149,1.8
			c0.267,0.2,0.667,0.684,1.2,1.45c0.033-0.2-0.033-0.417-0.2-0.65c-0.166-0.267-0.3-0.5-0.399-0.7c0.267-0.066,0.633,0.2,1.1,0.8
			c0.233,0.267,0.366,0.5,0.4,0.7c0.033,0.167,0.033,0.45,0,0.851c0.233-0.134,0.366-0.084,0.399,0.149c0,0.167,0,0.367,0,0.601
			l0.3-0.2l0.051,0.7L42.8,54.1c0.066,0.2,0.066,0.351,0,0.45c-0.3,0.033-0.483,0-0.55-0.1c-0.033-0.033-0.15-0.217-0.35-0.55
			c-0.233-0.467-0.517-0.801-0.851-1l0.05,0.25c-0.267,0.033-0.566,0.149-0.899,0.35c-0.134,0.167-0.384,0.384-0.75,0.65
			c-0.101-0.4,0.184-1,0.85-1.801c-0.366,0-0.8,0.101-1.3,0.301c-0.467,0.233-0.816,0.483-1.05,0.75
			c-0.167-0.733,0.333-1.284,1.5-1.65c-0.2-0.066-0.5-0.083-0.9-0.05c-0.5,0.033-0.833,0.033-1,0c0.033-0.233,0.267-0.384,0.7-0.45
			c0.2,0,0.483-0.017,0.85-0.05c-0.633-0.4-1.133-0.65-1.5-0.75c-0.466,0-0.75-0.084-0.85-0.25c-0.267-0.2-0.384-0.467-0.35-0.8
			c0-0.367,0.116-0.634,0.35-0.801c0.134-0.1,0.25-0.166,0.35-0.199c0.067-0.067,0.084-0.217,0.051-0.45l-0.4-1.101
			c-0.434-0.833-0.583-1.3-0.45-1.399c0.101-0.066,0.434-0.066,1,0c0-0.2-0.166-0.584-0.5-1.15c-0.7-1.1-1.3-1.866-1.8-2.3
			c0.233-0.033,0.6,0,1.1,0.1c0.467,0.101,0.817,0.117,1.051,0.051c0.033-0.2,0-0.434-0.101-0.7c-0.066-0.167-0.233-0.483-0.5-0.95
			c-0.267-0.366-0.383-0.65-0.35-0.85c0.399,0.133,0.717,0.183,0.95,0.149c0.033-0.566-0.351-1.283-1.15-2.149
			c-0.866-0.834-1.316-1.551-1.35-2.15c0.333,0,0.899,0.283,1.699,0.85c0.534,0.233,0.9,0.367,1.101,0.4
			c-0.334-0.467-0.533-0.767-0.601-0.9L35.65,33.4c-0.367-0.634-0.733-1.084-1.101-1.351c-0.366-0.333-0.633-0.55-0.8-0.649
			c-0.3-0.267-0.616-0.4-0.95-0.4c-0.767,0.066-1.399,0.3-1.899,0.7V31.35L31,31l-0.1,0.15v-0.2c0.767,0.133,1.75-0.45,2.949-1.75
			c0.334-0.4,0.634-0.733,0.9-1c0.233,0,0.483-0.017,0.75-0.05l0.3,0.65c-0.133-0.1-0.233-0.133-0.3-0.1
			C35.634,28.867,35.866,29.183,36.2,29.65z M30.6,30.8l-0.149,0.4c0-0.167-0.017-0.334-0.05-0.5
			C30.434,30.733,30.5,30.767,30.6,30.8z M30,29.2c-0.1-0.233-0.2-0.483-0.3-0.75c0.167,0.133,0.35,0.283,0.55,0.45
			C30.116,28.967,30.033,29.067,30,29.2z M30.3,32.45L30.25,32.6c-0.167-0.1-0.35-0.149-0.55-0.149c-0.1,0.333,0.233,0.833,1,1.5
			l0.05,0.25c-0.2-0.3-0.583-0.617-1.15-0.95c-0.633-0.3-1.033-0.616-1.2-0.95c0.8,0.4,1.2,0.066,1.2-1
			C29.767,31.8,30,32.184,30.3,32.45z M33.3,56.7L33.25,57.1c-0.6-0.1-0.95-0.6-1.05-1.5c-0.033-0.166-0.05-0.85-0.05-2.05
			c0-1.1-0.034-1.916-0.101-2.45l-0.25-1.75c-0.066-1.199-0.233-2.017-0.5-2.449C31.2,47.1,31.15,47.4,31.15,47.8
			c-0.034,0.233-0.051,0.584-0.051,1.05c0,1.067-0.033,1.75-0.1,2.051c-0.134,0.366-0.384,0.85-0.75,1.449
			c-0.467,0.667-0.883,1.017-1.25,1.051c0.133,0,0.3-0.017,0.5-0.051c0.2,0.034,0.283,0.101,0.25,0.2c0,0.2-0.133,0.351-0.4,0.45
			c-0.333,0.1-0.517,0.184-0.55,0.25c1.067,0,1.783-0.233,2.15-0.7c-0.134,0.434-0.55,0.767-1.25,1l-0.9,0.4
			c-0.466,0.133-0.75,0.25-0.85,0.35c0.367,0.066,0.7,0.066,1,0l-0.3,0.101c-0.533,0.133-1.066,0.1-1.6-0.101
			c-0.5-0.166-0.883-0.333-1.15-0.5c0.333,0.5,0.317,1.084-0.05,1.75C25.65,56.85,25.367,57,25,57
			c-0.133,0.033-0.367,0.017-0.7-0.05c-0.2-0.101-0.35-0.15-0.45-0.15c-0.133,0.167-0.267,0.267-0.4,0.3H23
			c-0.433,0-0.75,0.017-0.95,0.051V57.3c-0.167-0.1-0.417-0.184-0.75-0.25c-0.4-0.1-0.65-0.133-0.75-0.1L20.5,57.1
			c-0.8-0.133-1.317-0.316-1.55-0.55v0.25c-0.3,0.066-0.684-0.033-1.15-0.3c-0.667-0.4-1.017-0.616-1.05-0.65L16.7,55.95
			c-0.267-0.033-0.55-0.217-0.85-0.55H15.8c-0.033-0.067-0.066-0.117-0.1-0.15l-0.05-0.05c0.167,0.1,0.333,0.066,0.5-0.101
			c0.1-0.199,0.167-0.366,0.2-0.5c0.367,0.934,0.7,1.4,1,1.4c0.2,0,0.333-0.1,0.4-0.3l0.05-0.2c0.167,0.066,0.3,0.217,0.4,0.45
			c0.667,0.366,1.033,0.55,1.1,0.55h0.2l-0.2-0.6l0.5,0.399V56c0.3,0.167,0.667,0.4,1.1,0.7c0.6,0.233,0.95,0.217,1.05-0.05
			c-0.133-0.233-0.217-0.4-0.25-0.5c-0.1-0.2-0.133-0.384-0.1-0.551c0.367,0.167,0.8,0.65,1.3,1.45c0.233,0,0.4-0.133,0.5-0.399
			l0.1,0.05l-0.3-1c0.7,0.233,1.267,0.6,1.7,1.1c0.1-0.1,0.184-0.149,0.25-0.149c0.033,0,0.217-0.051,0.55-0.15
			c0.1-0.434,0.1-0.767,0-1v-0.05c-0.534-0.5-1.034-0.8-1.5-0.9l-0.7,0.15h-0.1h-0.3l0.05-0.15c-0.433-0.033-0.783-0.066-1.05-0.1
			c-0.533-0.033-0.833,0.05-0.9,0.25l-0.9-0.15c-0.333-0.066-0.667-0.184-1-0.35c0.2-0.033,0.717,0.017,1.55,0.149
			c0.7,0.034,1.183-0.083,1.45-0.35c0.167-0.2,0.3-0.616,0.4-1.25c0-0.2,0.066-0.366,0.2-0.5l0.85-0.8
			c0.467-0.601,0.817-1.351,1.05-2.25c0.233-0.834,0.3-1.7,0.2-2.601c-0.1-0.8-0.4-1.517-0.9-2.149c-0.3-0.334-0.783-0.667-1.45-1
			c-0.8-0.334-1.316-0.634-1.55-0.9c0.8-0.1,1.7,0.017,2.7,0.351c0.434,0.1,0.917,0.466,1.45,1.1h-0.1
			c0.133,0.3,0.45,0.75,0.95,1.35c0.1,0.101,0.217,0.517,0.35,1.25l0.2,1.351c-0.233,0.5-0.233,0.816,0,0.95v0.05L26.5,50.5
			l0.1,0.35l-0.1,0.301l0.25,0.1c0.167,0.167,0.567,0.25,1.2,0.25c0.667,0.066,1.233-0.283,1.7-1.05c0.3-0.434,0.5-0.783,0.6-1.05
			c0-0.7,0.017-1.2,0.05-1.5c0.2-0.967,0.601-1.917,1.2-2.851V44.15c0-0.567-0.167-0.917-0.5-1.051l-0.3,0.7l-0.3,0.15
			c-0.067,0.066-0.134,0.233-0.2,0.5c-0.333,0.366-0.617,0.85-0.85,1.45c-0.2,0.533-0.3,1.216-0.3,2.05l-0.25,0.2
			c-0.066-0.767-0.117-1.334-0.15-1.7c-0.033-0.733,0.033-1.334,0.2-1.8c0.133-0.367,0.383-0.733,0.75-1.101l1.05-1.2
			c0.1-0.5,0.033-0.916-0.2-1.25c-0.5-0.767-0.65-1.6-0.45-2.5c0.167,0.101,0.267,0.367,0.3,0.801
			c0.033,0.466,0.134,0.783,0.3,0.949c0.067-0.267,0.134-0.983,0.2-2.149c0.101-0.9,0.267-1.617,0.5-2.15
			c0,0.934,0.25,2.517,0.75,4.75L32.1,41L32,41.3h0.15c0.1,0.667,0.05,1.684-0.15,3.05L32.2,44c0.1,0.6,0.133,1.167,0.1,1.7
			l0.5,0.899l-0.5,0.051c-0.066,1.1-0.033,2.017,0.101,2.75c0.333,1.533,0.483,2.649,0.449,3.35c-0.033,0.434-0.1,1.116-0.199,2.05
			c-0.034,0.733,0.149,1.351,0.55,1.851L33.3,56.7z M27.05,40.55l0.1-0.75L26.4,41.15c-0.4,0.699-0.55,1.233-0.45,1.6L25.9,43.4
			l-0.5,0.05c-0.4-0.733-0.367-1.566,0.1-2.5c0.133-0.3,0.5-0.634,1.1-1c0.5-0.4,0.8-0.8,0.9-1.2
			C27.367,39.583,27.217,40.184,27.05,40.55z M27.55,44.15l-0.1,0.3v1.5l-0.2,0.5l-0.1-0.15l-0.2-0.45V45.8
			c-0.233-0.8-0.2-1.7,0.1-2.7c0.167-0.5,0.583-1.05,1.25-1.649c0.633-0.634,0.983-1.134,1.05-1.5c0.033,0.7-0.15,1.416-0.55,2.149
			l0.05-0.25H28.8C27.967,42.583,27.55,43.35,27.55,44.15z M22.9,45.45l-0.35,0.7c-0.033,0.066-0.15,0.199-0.35,0.399
			c-0.167,0.2-0.267,0.351-0.3,0.45c0.067-0.3,0.2-0.65,0.4-1.05c0.167-0.4,0.35-0.684,0.55-0.851L23,45L22.9,45.45z M22.35,40.2
			c0.3,0.133,0.4,0.684,0.3,1.649C22.317,41.783,22.217,41.233,22.35,40.2z M23.95,42.45h-0.3c-0.133-1.634,0.217-2.667,1.05-3.101
			c-0.067,0.4-0.267,0.967-0.6,1.7C24,41.283,23.95,41.75,23.95,42.45z M22.85,41.85L22.8,42.15
			c-0.033-0.034-0.083-0.134-0.15-0.301C22.717,41.917,22.783,41.917,22.85,41.85z M21.25,42.25l-0.35-0.1
			c-0.4-0.567-0.6-1.017-0.6-1.351c0-0.267,0.117-0.616,0.35-1.05C20.817,39.816,21.017,40.65,21.25,42.25z M21.65,43.95
			c0.1,1.333-0.183,2.1-0.85,2.3c-0.133-0.134-0.15-0.434-0.05-0.9c0.067-0.466,0.183-0.767,0.35-0.899l0.2-0.5
			C21.4,43.884,21.517,43.884,21.65,43.95z M26.15,52.9l-0.05-0.15c0.1-0.366-0.05-0.634-0.45-0.8c0.333-0.533,0.533-1.65,0.6-3.351
			c0.033-1.699-0.333-3-1.1-3.899l-1.2-0.75l0.7,0.55c0.467,0.634,0.783,1.517,0.95,2.65c0.167,1.066,0.05,2.166-0.35,3.3
			c-0.233,0.533-0.45,1.017-0.65,1.45v0.05c-0.2,0-0.417,0.05-0.65,0.149c0.2,0.467,0.033,0.884-0.5,1.25
			c-0.034,0.034-0.25,0.101-0.65,0.2c-0.267,0.167-0.4,0.316-0.4,0.45c0.1,0,0.217,0,0.35,0h0.45c0.267,0,0.566,0.017,0.9,0.05
			c0.066,0,0.133,0,0.2,0h0.2c0.467,0.101,0.85,0.25,1.15,0.45c-0.1-0.167-0.133-0.333-0.1-0.5c0.1-0.066,0.567-0.05,1.4,0.05
			c0.633,0.033,1-0.05,1.1-0.25C27.217,53.634,26.583,53.333,26.15,52.9c0.1,0.199,0.083,0.35-0.05,0.449L25.8,53.4l0.25-0.551
			L26.15,52.9z M34.35,57.3c0.301,0.066,0.9,0.101,1.801,0.101c1.133,0,2.017-0.134,2.649-0.4c0.667-0.267,1.3-0.616,1.9-1.05
			c0.7-0.4,1-0.917,0.899-1.55l0.2,0.55c0.033,0.566-0.1,0.934-0.399,1.1c-0.134,0.134-0.5,0.367-1.101,0.7
			c-0.866,0.434-2.149,0.733-3.85,0.9c-0.167,0.033-0.684-0.017-1.55-0.15L34.35,57.3z M23.1,49.75L23,49.7c-0.6,0-1,0.05-1.2,0.149
			c-0.133-0.133-0.183-0.25-0.15-0.35c0.1-0.033,0.317-0.05,0.65-0.05c0.333,0,0.567-0.017,0.7-0.05
			c0.233-0.301,0.417-0.5,0.55-0.601l-0.3,0.601C23.317,49.566,23.267,49.684,23.1,49.75z M22.25,48.45
			c-0.167,0-0.283-0.05-0.35-0.15c0.033-0.133,0.333-0.316,0.9-0.55c0.434-0.2,0.617-0.467,0.55-0.8l0.2,0.3
			c0.034,0.1,0.017,0.25-0.05,0.45l-0.05-0.15v0.25c-0.1,0.167-0.25,0.316-0.45,0.45c-0.161,0.129-0.319,0.195-0.475,0.2H22.25z
			 M41.1,53.2c0.034,0.166,0.167,0.483,0.4,0.95c-0.533,0.366-0.967,0.583-1.3,0.649c-0.101-0.267-0.033-0.566,0.2-0.899
			C40.733,53.566,40.967,53.333,41.1,53.2z M20.35,50.85c0.8,0.534,1.4,0.667,1.8,0.4l-0.4,0.65c-0.467,0-0.833-0.067-1.1-0.2
			C20.217,51.533,20.117,51.25,20.35,50.85z M19.55,53c-0.1-0.167-0.1-0.366,0-0.6c0.167,0,0.4,0.216,0.7,0.649
			c0.067,0.066,0.25,0.184,0.55,0.351v0.05c-0.167,0.133-0.333,0.166-0.5,0.1l0.3-0.1C20.1,53.217,19.75,53.066,19.55,53z
			 M14.75,54.35c0.067-0.3,0.183-0.483,0.35-0.55c0.066,0.066,0.133,0.3,0.2,0.7c0.034,0.167,0.067,0.3,0.1,0.4
			c-0.066-0.134-0.117-0.267-0.15-0.4l-0.05,0.3C14.967,54.866,14.817,54.717,14.75,54.35z"/>
		<path style="fill-rule:evenodd;clip-rule:evenodd;fill:#7E541D;" d="M37.9,14v-0.05L37.95,14c0.166,0.167,0.399,0.333,0.7,0.5
			c0.133,0.167,0.267,0.417,0.399,0.75c0.033,0.133,0.066,0.383,0.101,0.75c0.1,0.267,0.183,0.483,0.25,0.65
			c0.166-0.133,0.267-0.35,0.3-0.65s0.066-0.517,0.1-0.65c0.101-0.533,0.267-0.533,0.5,0c0.261,0.619,0.395,1.219,0.4,1.8
			c0.004-0.414,0.07-0.83,0.2-1.25c0.267,0.233,0.399,0.6,0.399,1.1c0.033,0.833,0.05,1.283,0.05,1.35c0.101-0.1,0.233-0.3,0.4-0.6
			c0.066-0.233,0.184-0.383,0.35-0.45c0.034,0.1,0.301,0.45,0.801,1.05c0.366,0.4,0.5,0.767,0.399,1.1
			c-0.333-0.034-0.533,0.133-0.6,0.5c-0.033,0.267-0.084,0.6-0.15,1c-0.267,0.667-0.899,0.933-1.899,0.8
			c-0.034,0-0.051-0.017-0.051-0.05c-0.333,0.333-0.767,0.483-1.3,0.45c0-0.233-0.166-0.483-0.5-0.75
			c-0.399-0.3-0.684-0.517-0.85-0.65c0.233,0.933,0.233,1.617,0,2.05l-0.15,0.3c-0.333,0.833-1.066,1.183-2.2,1.05L35.4,24.1
			c-0.334,0.133-0.567,0.2-0.7,0.2c-0.267,0.1-0.517,0.1-0.75,0c-0.9-0.1-1.467-0.383-1.7-0.85l0.25,0.75l-1-0.3
			c0.6,0.867,1.017,1.35,1.25,1.45c-0.167,0.2-0.5,0.3-1,0.3c-0.467-0.033-0.85-0.1-1.15-0.2c0.134,0.3,0.334,0.566,0.601,0.8
			c-0.134-0.067-0.267-0.1-0.4-0.1l-1.8-0.5v0.3c-0.067-0.367-0.2-0.817-0.4-1.35c-0.267-0.867-0.417-1.684-0.45-2.45l-0.2-5.1
			c-0.467-0.566-0.9-1.1-1.3-1.6c-0.2-0.667-0.583-1.45-1.15-2.35c-0.467-0.733-0.883-1.467-1.25-2.2
			c-0.6-1.433-0.767-2.633-0.5-3.6L24,7.5h-0.25c0.067,0.067,0.217,0.167,0.45,0.3c0.2,0.133,0.316,0.284,0.35,0.45
			c-0.167,0.1-0.4,0.15-0.7,0.15c-0.067,0.167,0.066,0.333,0.4,0.5c0.533,0.333,0.867,0.583,1,0.75c-0.733,0-1.033,0.15-0.9,0.45
			c0.133,0.2,0.45,0.35,0.95,0.45c0.5,0.2,0.817,0.35,0.95,0.45c-0.3,0.067-0.517,0.1-0.65,0.1c-0.233,0.066-0.367,0.2-0.4,0.4
			c-0.034,0.167,0.117,0.333,0.45,0.5c0.333,0.067,0.533,0.167,0.6,0.3c-0.567,0-0.767,0.133-0.6,0.4c0.1,0.2,0.467,0.316,1.1,0.35
			L26.3,13.1c-0.1,0.267,0.117,0.483,0.65,0.65c0.267,0.1,0.633,0.2,1.1,0.3c-0.1,0.034-0.333,0.117-0.7,0.25
			c-0.267,0.133-0.3,0.3-0.1,0.5c0.1,0.067,0.367,0.117,0.8,0.15c0.534,0.167,0.9,0.283,1.1,0.35c-0.333,0-0.583,0-0.75,0
			c-0.367,0-0.566,0.067-0.6,0.2c0.567,0.2,1.417,0.517,2.55,0.95c0.134-1,0.167-1.567,0.101-1.7c-0.101-0.033-0.334,0.1-0.7,0.4
			L29.7,15.2v-0.15c0.033-1.033,0-1.816-0.1-2.35c0-0.133,0-0.217,0-0.25c-0.033-0.067-0.117-0.117-0.25-0.15
			c-0.067-0.033-0.167,0-0.3,0.1c-0.121,0.122-0.188,0.23-0.2,0.325c0.099-1.386,0.083-2.278-0.05-2.675
			c-0.133-0.333-0.3-0.45-0.5-0.35c-0.167,0.066-0.283,0.2-0.35,0.4c0.066-0.5,0.1-0.917,0.1-1.25c0.034-0.7-0.05-1.1-0.25-1.2
			c-0.233-0.1-0.45,0.067-0.65,0.5c-0.125,0.281-0.191,0.548-0.2,0.8c-0.002-1.368-0.103-2.084-0.3-2.15
			c-0.167-0.066-0.283,0.083-0.35,0.45c-0.033,0.167-0.1,0.383-0.2,0.65c0-0.267-0.067-0.783-0.2-1.55c-0.167,0.1-0.267,0.2-0.3,0.3
			c0.033-0.566-0.15-1-0.55-1.3c0.1,0,0.267,0.05,0.5,0.15c0.1,0,0.333,0.033,0.7,0.1c0.267,0.1,0.467,0.217,0.6,0.35
			c0.1,0.066,0.267,0.25,0.5,0.55c0.267,0.267,0.45,0.317,0.55,0.15c0.133-0.1,0.184-0.25,0.15-0.45l1.15,2.65
			c0.1,0.433,0.3,0.867,0.6,1.3c0.267,0.4,0.65,1.017,1.15,1.85c0.133,0.167,0.434,0.383,0.899,0.65l0.301,0.1
			c0.566,0.2,0.899,0.35,1,0.45c0.199,0.233,0.399,0.65,0.6,1.25c0.134-0.1,0.283-0.367,0.45-0.8v0.05
			c0.233,1,0.416,1.517,0.55,1.55c0-0.667,0.017-1.167,0.05-1.5l0.15-0.65l0.75,0.05c0.233,0.667,0.35,1.184,0.35,1.55
			c0.167-0.1,0.267-0.317,0.3-0.65c0.034-0.367,0.084-0.566,0.15-0.6c0.066-0.034,0.167-0.017,0.3,0.05l0.101,0.15
			c0.267,0.233,0.466,0.533,0.6,0.9l0.15,1.05c0.166-0.067,0.233-0.3,0.199-0.7C37.85,14.4,37.866,14.1,37.9,14z M44.75,20.9
			c0.033-0.167,0.033-0.283,0-0.35c-0.033-0.233-0.066-0.466-0.1-0.7c0.1,0.4,0.149,0.767,0.149,1.1c0,0.117-0.017,0.258-0.05,0.425
			C44.779,21.204,44.779,21.046,44.75,20.9z M34.55,12.05c0.134,0.233,0.667,0.5,1.601,0.8c1.5,0.467,2.616,0.867,3.35,1.2
			c-2.333-0.8-3.783-1.316-4.35-1.55C34.85,12.4,34.65,12.25,34.55,12.05z M33.5,8.4c0.134,0.434,0.267,0.934,0.4,1.5
			c0.1,0.567,0.216,1.017,0.35,1.35c-0.1-0.2-0.184-0.45-0.25-0.75C33.833,9.733,33.667,9.033,33.5,8.4z M28.4,5.9l0.2,0.4l-0.1,0.2
			L28.4,5.9z M25.9,3.85l-0.6-0.1h-0.15c-0.167,0.024-0.343,0.083-0.525,0.175c0.129-0.072,0.237-0.131,0.325-0.175
			c0.233-0.033,0.367-0.033,0.4,0c0-0.033,0.017-0.067,0.05-0.1h0.1l0.65,0.275L25.9,3.85z M27.8,5.6
			c-0.066-0.133-0.2-0.317-0.4-0.55C27.133,4.65,26.783,4.3,26.35,4h0.05c0.533,0.2,0.917,0.55,1.15,1.05L27.8,5.6z M37.65,17.85H38
			c0-0.1-0.066-0.217-0.2-0.35l-0.5-0.25c0.2-0.2,0.316-0.35,0.351-0.45c0.1-0.167,0.149-0.316,0.149-0.45
			c-0.166-0.033-0.333,0.033-0.5,0.2l-0.45,0.4C36.783,16.983,36.6,17,36.3,17c-0.333,0.033-0.5,0.067-0.5,0.1l0.05-0.1
			c-0.399,0-0.716,0.117-0.949,0.35c-0.167,0.167-0.317,0.383-0.45,0.65c-0.101,0.3-0.033,0.5,0.2,0.6
			c0.133,0.1,0.267,0.083,0.399-0.05c-0.2,0.267-0.283,0.567-0.25,0.9c0.934,0.066,1.4-0.383,1.4-1.35L36.1,18
			c-0.267-0.067-0.517,0.017-0.75,0.25l0.15-0.2c0.2-0.167,0.533-0.25,1-0.25c0.033,0,0.217,0.067,0.55,0.2
			c-0.166,0.233-0.233,0.533-0.2,0.9c0.034,0.367,0.15,0.667,0.351,0.9l-0.15,0.05c-0.2,0.066-0.55,0.1-1.05,0.1
			c-0.4-0.1-0.684-0.167-0.85-0.2L34.85,19.5c-0.033,0.2,0.184,0.533,0.65,1c0.167,0.133,0.533,0.25,1.1,0.35
			c0.467,0.066,0.9-0.017,1.301-0.25c0.3-0.167,0.517-0.5,0.649-1c0.367-0.133,0.517-0.3,0.45-0.5c-0.1-0.167-0.233-0.3-0.4-0.4
			c-0.066-0.6-0.25-0.867-0.55-0.8L37.65,17.85z M40.3,48.75c0.134,0.333,0.283,0.583,0.45,0.75c-0.167-0.134-0.283-0.267-0.35-0.4
			L40.3,48.75z M30.45,31.2l-0.15,1.25c-0.3-0.267-0.533-0.65-0.7-1.15c0,1.066-0.4,1.4-1.2,1c0.167,0.334,0.567,0.65,1.2,0.95
			c0.567,0.333,0.95,0.65,1.15,0.95l-0.05-0.25l0.2,0.1V31.7c0.5-0.4,1.133-0.634,1.899-0.7c0.334,0,0.65,0.134,0.95,0.4
			c0.167,0.1,0.434,0.316,0.8,0.649c0.367,0.267,0.733,0.717,1.101,1.351l1.199,2.449c0.067,0.134,0.267,0.434,0.601,0.9
			c-0.2-0.033-0.566-0.167-1.101-0.4c-0.8-0.566-1.366-0.85-1.699-0.85c0.033,0.6,0.483,1.316,1.35,2.15
			c0.8,0.866,1.184,1.583,1.15,2.149c-0.233,0.033-0.551-0.017-0.95-0.149c-0.033,0.199,0.083,0.483,0.35,0.85
			c0.267,0.467,0.434,0.783,0.5,0.95c0.101,0.267,0.134,0.5,0.101,0.7c-0.233,0.066-0.584,0.05-1.051-0.051
			C35.6,42,35.233,41.967,35,42c0.5,0.434,1.1,1.2,1.8,2.3c0.334,0.566,0.5,0.95,0.5,1.15c-0.566-0.066-0.899-0.066-1,0
			c-0.133,0.1,0.017,0.566,0.45,1.399l0.4,1.101c0.033,0.233,0.017,0.383-0.051,0.45c-0.1,0.033-0.216,0.1-0.35,0.199
			c-0.233,0.167-0.35,0.434-0.35,0.801c-0.034,0.333,0.083,0.6,0.35,0.8c0.1,0.166,0.384,0.25,0.85,0.25
			c0.367,0.1,0.867,0.35,1.5,0.75c-0.366,0.033-0.649,0.05-0.85,0.05c-0.434,0.066-0.667,0.217-0.7,0.45c0.167,0.033,0.5,0.033,1,0
			c0.4-0.033,0.7-0.017,0.9,0.05c-1.167,0.366-1.667,0.917-1.5,1.65c0.233-0.267,0.583-0.517,1.05-0.75
			c0.5-0.2,0.934-0.301,1.3-0.301c-0.666,0.801-0.95,1.4-0.85,1.801c0.366-0.267,0.616-0.483,0.75-0.65
			c0.333-0.2,0.633-0.316,0.899-0.35H41.2L41.1,53.2c-0.133,0.133-0.366,0.366-0.699,0.7c-0.233,0.333-0.301,0.633-0.2,0.899
			c0.333-0.066,0.767-0.283,1.3-0.649l0.1,0.25C41.7,55.033,41.4,55.55,40.7,55.95c-0.601,0.434-1.233,0.783-1.9,1.05
			c-0.633,0.267-1.517,0.4-2.649,0.4c-0.9,0-1.5-0.034-1.801-0.101H34.3c-0.166-0.1-0.35-0.283-0.55-0.55l-0.3-0.15V56.9l-0.15-0.2
			l-0.1-0.05c-0.4-0.5-0.584-1.117-0.55-1.851c0.1-0.934,0.166-1.616,0.199-2.05c0.034-0.7-0.116-1.816-0.449-3.35
			c-0.134-0.733-0.167-1.65-0.101-2.75l0.5-0.051L32.3,45.7c0.033-0.533,0-1.101-0.1-1.7L32,44.35c0.2-1.366,0.25-2.383,0.15-3.05
			H32l0.1-0.3l-0.05-0.2c-0.5-2.233-0.75-3.816-0.75-4.75c-0.233,0.533-0.399,1.25-0.5,2.15c-0.066,1.166-0.133,1.883-0.2,2.149
			c-0.166-0.166-0.267-0.483-0.3-0.949c-0.033-0.434-0.133-0.7-0.3-0.801c-0.2,0.9-0.05,1.733,0.45,2.5
			c0.233,0.334,0.3,0.75,0.2,1.25l-1.05,1.2c-0.367,0.367-0.617,0.733-0.75,1.101c-0.167,0.466-0.233,1.066-0.2,1.8
			c0.033,0.366,0.083,0.934,0.15,1.7l0.25-0.2c0-0.834,0.1-1.517,0.3-2.05c0.233-0.601,0.517-1.084,0.85-1.45
			c0.066-0.267,0.133-0.434,0.2-0.5l0.3-0.15l0.3-0.7c0.333,0.134,0.5,0.483,0.5,1.051v0.899c-0.6,0.934-1,1.884-1.2,2.851
			c-0.033,0.3-0.05,0.8-0.05,1.5c-0.1,0.267-0.3,0.616-0.6,1.05c-0.467,0.767-1.033,1.116-1.7,1.05c-0.633,0-1.034-0.083-1.2-0.25
			l-0.25-0.1l0.1-0.301l-0.1-0.35l0.15-1.55L26.6,50.85c0,0.067,0.05,0.2,0.15,0.4l0.45-0.05c0.1-0.2,0.167-0.517,0.2-0.95
			c0-0.4,0-0.7,0-0.9c0.133-0.966,0.117-1.767-0.05-2.399l-0.4-1.101l0.2,0.45l0.1,0.15l0.2-0.5v-1.5l0.1-0.3v0.3
			c0.133,0,0.25-0.15,0.35-0.45c0.2-0.3,0.317-0.5,0.35-0.6c0.367-0.467,0.55-0.9,0.55-1.301c0.4-0.733,0.583-1.449,0.55-2.149
			c-0.067,0.366-0.417,0.866-1.05,1.5c-0.667,0.6-1.083,1.149-1.25,1.649c-0.3,1-0.333,1.9-0.1,2.7c-0.1-0.233-0.267-0.5-0.5-0.8
			c-0.534-0.667-0.934-1-1.2-1c-0.533-0.634-1.017-1-1.45-1.1c-1-0.334-1.9-0.45-2.7-0.351c0.233,0.267,0.75,0.566,1.55,0.9
			c0.667,0.333,1.15,0.666,1.45,1c0.5,0.633,0.8,1.35,0.9,2.149c0.1,0.9,0.033,1.767-0.2,2.601c-0.233,0.899-0.583,1.649-1.05,2.25
			l-0.85,0.8c-0.133,0.134-0.2,0.3-0.2,0.5c-0.1,0.634-0.233,1.05-0.4,1.25c-0.267,0.267-0.75,0.384-1.45,0.35
			c-0.833-0.133-1.35-0.183-1.55-0.149c0.333,0.166,0.667,0.283,1,0.35h-0.35c-0.267-0.033-0.767-0.149-1.5-0.35
			c-0.667-0.2-1.184-0.3-1.55-0.3c0.533,0.6,1.3,1,2.3,1.199c0.4,0.067,0.966,0.167,1.7,0.301h2.45c0.1,0,0.367,0.017,0.8,0.05
			c0.367-0.033,0.517-0.15,0.45-0.351L23.4,54.7l-0.3,0.05V54.7h0.3h0.1l0.7-0.15c0.466,0.101,0.966,0.4,1.5,0.9v0.05
			c0.1,0.233,0.1,0.566,0,1c-0.333,0.1-0.517,0.15-0.55,0.15c-0.066,0-0.15,0.05-0.25,0.149c-0.433-0.5-1-0.866-1.7-1.1l0.3,1
			l-0.1-0.05c-0.1,0.267-0.267,0.399-0.5,0.399c-0.5-0.8-0.933-1.283-1.3-1.45c-0.033,0.167,0,0.351,0.1,0.551
			c0.033,0.1,0.117,0.267,0.25,0.5c-0.1,0.267-0.45,0.283-1.05,0.05c-0.433-0.3-0.8-0.533-1.1-0.7v0.3L19.3,55.9l0.2,0.6h-0.2
			c-0.066,0-0.433-0.184-1.1-0.55c-0.1-0.233-0.233-0.384-0.4-0.45l-0.05,0.2c-0.067,0.2-0.2,0.3-0.4,0.3c-0.3,0-0.633-0.467-1-1.4
			c-0.033,0.134-0.1,0.301-0.2,0.5c-0.167,0.167-0.333,0.2-0.5,0.101c-0.1-0.134-0.183-0.233-0.25-0.3
			c-0.033-0.101-0.066-0.233-0.1-0.4c-0.066-0.4-0.133-0.634-0.2-0.7c-0.167,0.066-0.283,0.25-0.35,0.55V53.7l-0.5-0.15l-0.2,0.101
			l0.1,0.1c-1.233-1.1-1.733-2.134-1.5-3.1c0.2-1,0.567-1.667,1.1-2l0.45-0.301c0.867-4.866,1.417-7.733,1.65-8.6
			c0.233-0.967,1.133-2.4,2.7-4.3c1.934-2.3,3.9-3.851,5.9-4.65c2.033-0.8,3.383-1.617,4.05-2.45c0.2-0.267,0.35-0.583,0.45-0.95
			v0.05l1.3,0.35c0.267,0.067,0.55,0.117,0.85,0.15c-0.033,0-0.066,0.033-0.1,0.1c-0.4,0.3-0.65,0.583-0.75,0.85
			c-0.2-0.167-0.383-0.316-0.55-0.45c0.1,0.267,0.2,0.517,0.3,0.75c-0.033,0.066-0.05,0.117-0.05,0.15
			c-0.034,0.167-0.034,0.333,0,0.5c-0.067,0.1-0.067,0.216,0,0.35c0.166,0.166,0.316,0.333,0.45,0.5
			C30.434,30.866,30.45,31.033,30.45,31.2z M40.2,50.1c-0.101-0.233-0.066-0.449,0.1-0.649l-0.1,0.75V50.1z M41.2,19.6l0.2-0.7
			h-0.95c-0.3,0.033-0.55,0.2-0.75,0.5c-0.233,0.267-0.351,0.55-0.351,0.85c-0.033,0.267,0,0.433,0.101,0.5
			c0.1,0.1,0.3,0.15,0.6,0.15c0.4,0,0.667-0.117,0.8-0.35C40.95,20.417,41.066,20.1,41.2,19.6z M41.75,19.3l-0.15-0.1
			c-0.267,0.267-0.3,0.517-0.1,0.75C41.7,19.85,41.783,19.633,41.75,19.3z M30.3,2.5c0.268,0.175,0.518,0.391,0.75,0.65
			c0.066,0.396,0.183,0.988,0.351,1.775c-0.108-0.456-0.426-0.881-0.95-1.275C30.35,3.717,30.233,3.933,30.1,4.3
			C30,4.667,29.9,4.9,29.8,5c-0.066-0.067-0.1-0.367-0.1-0.9l-0.1-1c-0.167,0.066-0.3,0.25-0.4,0.55c-0.167,0.367-0.3,0.6-0.4,0.7
			c0-0.1-0.05-0.467-0.15-1.1c0-0.4-0.2-0.45-0.6-0.15c-0.1,0.1-0.25,0.283-0.45,0.55c-0.2,0.2-0.35,0.2-0.45,0
			c-0.066-0.1-0.066-0.283,0-0.55c0.167,0,0.434-0.117,0.8-0.35c0.4-0.233,0.65-0.35,0.75-0.35c0.1,0,0.3,0.1,0.6,0.3
			c0.267,0.167,0.5,0.216,0.7,0.15C30.167,2.75,30.267,2.633,30.3,2.5z M26.8,2.4c-0.033,0.367-0.033,0.567,0,0.6l-0.2,0.2
			C26.533,3.1,26.6,2.833,26.8,2.4z M26.95,2.35C27.45,2.117,28,2,28.6,2l-0.5,0.1L26.95,2.35z M24.45,6.8
			c0.133,0.233,0.25,0.5,0.35,0.8l-0.3-0.05L24.45,6.8z M30,17.35c0,0.066-0.067,0.117-0.2,0.15c-0.1,0-0.183-0.033-0.25-0.1
			c-0.033-0.033-0.083-0.083-0.15-0.15l0.1,0.25c-0.133,0.067-0.2,0.383-0.2,0.95c0,0.267,0.017,0.6,0.05,1
			c0.133-0.133,0.283-0.467,0.45-1c0,1.033,0.15,1.533,0.45,1.5c0.1-0.034,0.15-0.434,0.15-1.2c0.033,0.067,0.1,0.133,0.199,0.2
			c0.134,0.1,0.267,0.1,0.4,0c0.033-0.133,0.017-0.317-0.05-0.55c-0.101-0.267-0.167-0.467-0.2-0.6c0.2-0.033,0.384-0.216,0.55-0.55
			c0.134-0.333,0.167-0.617,0.101-0.85c-0.067,0.1-0.284,0.283-0.65,0.55C30.45,17.083,30.2,17.1,30,17
			C30,17.067,30,17.183,30,17.35z M29.3,20.25c-0.333,0.033-0.55,0.35-0.65,0.95c-0.066,0.5-0.017,0.9,0.15,1.2
			c0.067,0.167,0.217,0.3,0.45,0.4c0.2,0.133,0.383,0.167,0.55,0.1c0.334-0.167,0.4-0.917,0.2-2.25L29.3,20.25z M29.5,23.9
			c-0.333,0.367-0.333,0.633,0,0.8c0.3,0.167,0.467,0.05,0.5-0.35c0.033-0.333-0.033-0.567-0.2-0.7L29.5,23.9z M35.25,13.8l-0.4,0.7
			c0.367,0.333,0.551,0.1,0.551-0.7H35.25z M31.8,18.35c-0.1,0.167-0.3,0.417-0.6,0.75c-0.334,0.467-0.467,1-0.4,1.6
			c0.167,0,0.3-0.05,0.4-0.15c0.066,0.267,0.1,0.6,0.1,1c0,0.333,0.117,0.633,0.351,0.9l0.5,0.5c0.433,0.433,0.75,0.6,0.949,0.5
			c0.067-0.333,0.117-0.55,0.15-0.65l0.4-0.65c0.5-0.566,0.767-0.967,0.8-1.2c0.1-0.3,0.05-0.5-0.15-0.6
			c-0.3-0.067-0.517-0.133-0.649-0.2c-0.367-0.167-0.601-0.566-0.7-1.2c-0.101-0.6,0.184-1.367,0.85-2.3
			c-0.166-0.033-0.45,0.1-0.85,0.4l-0.8,0.35C32.184,17.633,32.066,17.95,31.8,18.35z M17.025,38.325L17,38.35
			c-0.1,0.067-0.117,0.15-0.05,0.25c-0.2,0.233-0.45,0.634-0.75,1.2c-0.333,0.667-0.534,1.95-0.6,3.851
			c0.066-0.434,0.217-0.917,0.45-1.45c0.333-0.767,0.534-1.25,0.6-1.45v0.65c0.2-0.167,0.367-0.467,0.5-0.9
			c0.167-0.434,0.333-0.717,0.5-0.85c0,0.199,0.05,0.333,0.15,0.399l1.1-2.45c0.1,0.233,0.15,0.601,0.15,1.101
			c0.233-0.033,0.483-0.384,0.75-1.05c0.233-0.733,0.383-1.167,0.45-1.301c0.067,0.067,0.133,0.434,0.2,1.101
			c0,0.533,0.117,0.783,0.35,0.75c0.1-0.233,0.184-0.584,0.25-1.05c0.1-0.534,0.184-0.9,0.25-1.101c0,0.033,0.017,0.184,0.05,0.45
			c0.033,0.2,0.1,0.35,0.2,0.45c0.333-0.167,0.583-0.4,0.75-0.7c0.034-0.366,0.1-0.616,0.2-0.75l0.05,0.6
			c0.3,0.101,0.534-0.017,0.7-0.35c0.167-0.434,0.267-0.7,0.3-0.8L23.6,36.1c0.2,0.101,0.433-0.116,0.7-0.649
			c0.267-0.634,0.434-1.017,0.5-1.15v0.75c0.567-0.033,1.067-0.517,1.5-1.45c0,0.034,0,0.2,0,0.5c0,0.233,0.067,0.367,0.2,0.4
			c0.2,0.033,0.367-0.267,0.5-0.9c0.033,0.101,0.05,0.25,0.05,0.45c0.034,0.2,0.15,0.283,0.35,0.25l0.15-0.7
			c0.1,0.434,0.3,0.584,0.6,0.45c0.033-0.467,0.05-0.816,0.05-1.05c0.033-0.333,0.133-0.65,0.3-0.95c0.333-0.467,0.45-1,0.35-1.6
			L28.5,30.7l-0.05-0.85l-0.5-0.15l-0.1,0.399c-0.033,0.233-0.067,0.351-0.1,0.351s-0.133-0.017-0.3-0.05
			c-0.2-0.134-0.333-0.25-0.4-0.351c-0.066-0.033-0.183,0.033-0.35,0.2c-0.133,0.1-0.284,0.283-0.45,0.55
			c-0.233-0.233-0.383-0.35-0.45-0.35c-0.133-0.033-0.3,0.1-0.5,0.399c-0.3,0.367-0.466,0.567-0.5,0.601
			c-0.1-0.467-0.333-0.467-0.7,0c-0.2,0.233-0.45,0.55-0.75,0.95c-0.167-0.267-0.267-0.4-0.3-0.4c-0.1,0-0.267,0.1-0.5,0.3
			c-0.267,0.3-0.633,0.75-1.1,1.351c-0.1-0.601-0.4-0.417-0.9,0.55c-0.033,0.1-0.167,0.3-0.4,0.6s-0.35,0.517-0.35,0.65
			c-0.4,0-0.816,0.184-1.25,0.55c-0.367,0.366-0.6,0.767-0.7,1.2l-0.1-0.25c-0.267,0.133-0.433,0.35-0.5,0.649L17.025,38.325z
			 M18.95,42.25l0.6,0.3c-0.5-0.666-0.883-1.033-1.15-1.1C18.2,41.816,18.383,42.083,18.95,42.25z M14.2,52.7l0.25-1.55l0.1-0.2
			V50.9l0.2-0.601c0.067-1.066-0.083-1.85-0.45-2.35l-0.1,0.399l-0.35,0.25c0,0.267,0,0.733,0,1.4c0.033,0.6,0.017,1.017-0.05,1.25
			v-0.8c-0.2,0.233-0.35,0.583-0.45,1.05c0-0.366-0.017-0.616-0.05-0.75c-0.267,0.134-0.483,0.4-0.65,0.8l0.4,0.851l0.5,0.699v-0.05
			c0.167,0.233,0.4,0.4,0.7,0.5h0.1c0.4-0.1,1.033-0.149,1.9-0.149c-0.133-0.034-0.5-0.101-1.1-0.2
			C14.65,53.134,14.333,52.967,14.2,52.7z M14.85,48.75c-0.033,0.233,0.15,0.366,0.55,0.4c0.4,0.033,0.65-0.051,0.75-0.25L15.5,48.6
			c-0.167-0.066-0.3-0.1-0.4-0.1C14.933,48.5,14.85,48.583,14.85,48.75z M19.9,43.8l-0.15-0.1c-0.333-0.101-0.65,0.217-0.95,0.95
			c-0.333,0.699-0.283,0.966,0.15,0.8c0.233-0.134,0.517-0.384,0.85-0.75c0.333-0.4,0.467-0.7,0.4-0.9
			C20.133,43.733,20.033,43.733,19.9,43.8z M17.8,43.4c-0.233-0.067-0.4-0.233-0.5-0.5c0,0.433,0.017,0.683,0.05,0.75
			c0.033,0.233,0.2,0.333,0.5,0.3L17.8,43.4z M17.15,44.8c-0.566,0.066-0.95-0.05-1.15-0.35c-0.133,0.267-0.117,0.467,0.05,0.6
			c0.2,0.134,0.467,0.184,0.8,0.15L17.15,44.8z M15.4,46.1c0.067,0.334,0.383,0.467,0.95,0.4l0.4-0.25
			c-0.3-0.066-0.533-0.116-0.7-0.15C15.75,46.066,15.533,46.066,15.4,46.1z M16.25,47c-0.2,0.1-0.4,0.116-0.6,0.05
			c-0.233-0.066-0.433-0.1-0.6-0.1c-0.167,0.267,0.034,0.483,0.6,0.649c0.6,0.233,0.934,0.217,1-0.05L16.25,47z M30.9,31.35V31.15
			L31,31L30.9,31.35z M32.05,36.8c0.267-0.267,0.4-0.05,0.4,0.65c-0.033,0.333-0.066,0.733-0.101,1.2l0.25,0.05
			c0.134,0.6-0.033,1.366-0.5,2.3l0.051,0.3L32.35,41.4c0.067,0.399,0.067,1.116,0,2.149c0.301,0,0.4,0.417,0.301,1.25
			c-0.101,0.9-0.017,1.351,0.25,1.351c0.133,0.466,0.166,1.116,0.1,1.949c-0.066,0.967-0.083,1.634-0.05,2
			c0,1.034,0.3,1.851,0.899,2.45c0.034-0.166,0.017-0.399-0.05-0.7c-0.133-0.5-0.2-0.783-0.2-0.85l-0.05-1.95
			c0-0.666,0.05-1.166,0.15-1.5c0.233-0.434,0.35-0.767,0.35-1c0-0.2-0.116-0.399-0.35-0.6c-0.3-0.134-0.467-0.283-0.5-0.45
			c-0.066-0.2-0.017-0.5,0.149-0.9c0.267-0.433,0.367-0.767,0.301-1l-0.2-0.399V42.6c0.066-0.433,0.316-0.75,0.75-0.949
			c0.399-0.233,0.366-0.467-0.101-0.7c-0.533-0.334-0.683-0.65-0.449-0.95c0.066-0.1,0.267-0.2,0.6-0.3
			c0.3-0.101,0.483-0.2,0.55-0.3c0.066-0.2,0-0.417-0.2-0.65c-0.366-0.267-0.55-0.417-0.55-0.45c-0.133-0.3-0.217-0.649-0.25-1.05
			c0.033-0.5,0.05-0.866,0.05-1.1c0.034-0.334-0.149-0.717-0.55-1.15c-0.233-0.667-0.383-1.017-0.45-1.05L32.8,35.35
			c-0.233,0.034-0.45,0.233-0.649,0.601C31.917,36.35,31.884,36.634,32.05,36.8z M26.65,47.95l0.05-0.15L26.65,48.9
			C26.417,48.767,26.417,48.45,26.65,47.95z M29.7,45.45c-0.267,0.899-0.383,1.5-0.35,1.8c0.233-0.134,0.417-0.384,0.55-0.75
			c0.234-0.366,0.383-0.667,0.45-0.9c0.233-0.399,0.384-0.716,0.45-0.949c0.2-0.534,0.167-0.817-0.1-0.851l-0.5,0.65L29.7,45.45z
			 M26.15,52.9l-0.1-0.051L25.9,52.4l0.2,0.35L26.15,52.9z M21.65,43.95c-0.133-0.066-0.25-0.066-0.35,0l-0.2,0.5
			c-0.167,0.133-0.283,0.434-0.35,0.899c-0.1,0.467-0.083,0.767,0.05,0.9C21.467,46.05,21.75,45.283,21.65,43.95z M25.95,42.75
			c0.233-0.066,0.6-0.7,1.1-1.9v-0.3c0.167-0.366,0.317-0.967,0.45-1.8c-0.1,0.4-0.4,0.8-0.9,1.2c-0.6,0.366-0.967,0.7-1.1,1
			c-0.467,0.934-0.5,1.767-0.1,2.5l0.5-0.05L25.95,42.75z M24.6,40.1c-0.1,0.134-0.15,0.4-0.15,0.801c0,0.399,0.033,0.633,0.1,0.699
			l0.25-1.5H24.6z M21.25,42.25c-0.233-1.6-0.433-2.434-0.6-2.5c-0.233,0.434-0.35,0.783-0.35,1.05c0,0.334,0.2,0.783,0.6,1.351
			L21.25,42.25z M22.85,41.85c-0.067,0.067-0.133,0.067-0.2,0c0.067,0.167,0.117,0.267,0.15,0.301L22.85,41.85z M23.95,42.45
			c0-0.7,0.05-1.167,0.15-1.4c0.333-0.733,0.533-1.3,0.6-1.7c-0.833,0.434-1.184,1.467-1.05,3.101H23.95z M22.35,40.2
			c-0.133,1.033-0.033,1.583,0.3,1.649C22.75,40.884,22.65,40.333,22.35,40.2z M22.9,45.45L23,45l-0.15,0.1
			c-0.2,0.167-0.383,0.45-0.55,0.851c-0.2,0.399-0.333,0.75-0.4,1.05l-0.1,0.15v0.1c0.333,0.033,0.633-0.1,0.9-0.4
			c0.133-0.267,0.233-0.566,0.3-0.899l0.05-0.601L22.9,45.45z M22.25,48.45c-0.233,0.033-0.383,0.133-0.45,0.3
			c0.267,0.167,0.6,0.217,1,0.15c0.333-0.067,0.583-0.217,0.75-0.45L23.5,47.7l-0.05,0.1c-0.067,0.334-0.267,0.55-0.6,0.65h-0.325
			c0.156-0.005,0.314-0.071,0.475-0.2c0.2-0.134,0.35-0.283,0.45-0.45v-0.25l0.05,0.15c0.067-0.2,0.083-0.351,0.05-0.45l-0.2-0.3
			c0.066,0.333-0.117,0.6-0.55,0.8c-0.566,0.233-0.867,0.417-0.9,0.55C21.967,48.4,22.083,48.45,22.25,48.45z M23.1,49.75
			c0.167-0.066,0.217-0.184,0.15-0.35l0.3-0.601C23.417,48.9,23.233,49.1,23,49.4c-0.133,0.033-0.367,0.05-0.7,0.05
			c-0.333,0-0.55,0.017-0.65,0.05c-0.033,0.1,0.017,0.217,0.15,0.35L21.7,49.9c0.066,0.267,0.4,0.433,1,0.5
			c0.5,0,0.816-0.134,0.95-0.4L23.1,49.75z M20.75,52.25c-0.3-0.233-0.483-0.35-0.55-0.35c-0.167,0.066,0,0.283,0.5,0.649
			c0.233,0.134,0.55,0.2,0.95,0.2L21.4,52.4C21.2,52.434,20.983,52.384,20.75,52.25z M36.8,51.9l-0.3,0.649
			c-1.2,0.2-2.017,0.566-2.45,1.101c-0.133,0.166-0.25,0.433-0.35,0.8c-0.134,0.467-0.25,0.767-0.351,0.899
			c0.301-0.066,0.667-0.383,1.101-0.949c-0.434,0.933-0.584,1.533-0.45,1.8c0.4-0.4,0.684-0.7,0.85-0.9
			c0.334-0.333,0.65-0.566,0.95-0.7c0.667-0.033,1.101-0.116,1.3-0.25c-0.399,0.634-0.566,1.051-0.5,1.25
			c0.167,0.034,0.367-0.066,0.601-0.3c0.233-0.3,0.383-0.5,0.45-0.6c0.333-0.3,0.5-0.467,0.5-0.5c0.133-0.2,0.166-0.417,0.1-0.65
			l-0.8-0.05c-0.167-0.267-0.167-0.55,0-0.85c-0.101,0-0.3,0.05-0.601,0.149C36.65,52.9,36.5,52.917,36.4,52.85
			c0-0.033,0.133-0.183,0.399-0.449C36.967,52.134,36.967,51.967,36.8,51.9z M20.35,50.85c-0.233,0.4-0.133,0.684,0.3,0.851
			c0.267,0.133,0.633,0.2,1.1,0.2l0.4-0.65C21.75,51.517,21.15,51.384,20.35,50.85z M19.55,53c-0.167-0.066-0.283-0.083-0.35-0.05
			c-0.233,0.133-0.2,0.283,0.1,0.45c0.233,0.166,0.467,0.267,0.7,0.3l0.3-0.15c0.167,0.066,0.333,0.033,0.5-0.1V53.4
			c-0.3-0.167-0.483-0.284-0.55-0.351c-0.3-0.434-0.533-0.649-0.7-0.649C19.45,52.634,19.45,52.833,19.55,53z"/>
		<path style="fill-rule:evenodd;clip-rule:evenodd;fill:#523512;" d="M38.85,25.5c0-0.033,0-0.067,0-0.1
			c-0.166-0.1-0.25-0.25-0.25-0.45l0.051-0.25c-0.534,0.367-1.15,0.583-1.851,0.65c-0.399,0.033-1-0.033-1.8-0.2l-1.05-0.3
			l2.55-0.35c0.9-0.167,1.566-0.65,2-1.45l0.35-1.2l0.2,1.75c0,0.233,0.384,0.333,1.15,0.3c0.6-0.066,1.283-0.433,2.05-1.1v-0.4
			c0-0.2,0.134-0.35,0.4-0.45l0.399-0.2c0.834,0.133,1.384-0.133,1.65-0.8l0.05-0.05c0.029,0.146,0.029,0.304,0,0.475v0.275
			l-0.05,0.1c-0.033,0.067-0.066,0.133-0.101,0.2c-0.199,0.533-0.866,1.1-2,1.7c-0.267,0.2-0.833,0.467-1.699,0.8
			c-0.334,0.133-0.567,0.283-0.7,0.45l-0.05-0.1C39.783,25.067,39.35,25.3,38.85,25.5z M44.75,20.55
			c-0.066-0.133-0.217-0.216-0.45-0.25l-0.75,0.05L43.65,20c0.033-0.067,0.316-0.217,0.85-0.45l0.15,0.3
			C44.684,20.083,44.717,20.317,44.75,20.55z M38.35,27.5H38.4c0.566-0.167,1.133-0.433,1.699-0.8c0.034,0.1,0.067,0.2,0.101,0.3
			c0.133,0.4,0.184,0.717,0.149,0.95l-0.449-0.1c0.033,0.3,0.183,0.75,0.449,1.35H39.6c-0.399-0.034-0.633,0-0.699,0.1
			c-0.034,0.034,0.267,0.467,0.899,1.3c0.334,0.567,0.617,1.617,0.851,3.15c0.066,0.866,0.083,1.55,0.05,2.05
			c-0.033,0.267-0.15,0.65-0.351,1.15C40.15,37.417,40.033,37.767,40,38c0.233,0,0.467-0.1,0.7-0.3c-0.134,0.3-0.267,0.649-0.4,1.05
			c-0.1,1.134-0.1,1.983,0,2.55c-0.1,0.4-0.166,0.8-0.2,1.2c0,0.1,0,0.217,0,0.35L40,44.45c0,0.267,0,0.517,0,0.75v0.25
			c-0.033,1.467,0.066,2.566,0.3,3.3L40.4,49.1c0.066,0.134,0.183,0.267,0.35,0.4c0.033,0.033,0.05,0.083,0.05,0.15
			c0.967,0.866,1.584,1.55,1.851,2.05c0.6,1.133,0.933,1.866,1,2.2c0.033,0.3-0.034,0.633-0.2,1c-0.101,0.433-0.267,0.683-0.5,0.75
			L42.6,55.85c-0.933,1.2-1.699,1.851-2.3,1.95c-0.366,0.066-1.934,0.101-4.7,0.101c-0.199,0-0.783-0.067-1.75-0.2
			c-1-0.2-1.949-0.3-2.85-0.3h-0.45c-0.633,0-1.216,0.017-1.75,0.05l-1.25,0.05c-0.4,0-0.75,0.033-1.05,0.1L26,57.65
			c-0.467,0.1-1.433,0.083-2.9-0.051c-1.7-0.133-3.15-0.366-4.35-0.699c-3.133-0.867-4.7-1.601-4.7-2.2l0.1-0.95l-0.1-0.1l0.2-0.101
			l0.5,0.15v0.649c0.067,0.367,0.217,0.517,0.45,0.45l0.05-0.3c0.033,0.134,0.083,0.267,0.15,0.4c0.067,0.066,0.15,0.166,0.25,0.3
			l0.05,0.05c0.033,0.033,0.066,0.083,0.1,0.15h0.05c0.3,0.333,0.583,0.517,0.85,0.55l0.05-0.101c0.033,0.034,0.383,0.25,1.05,0.65
			c0.467,0.267,0.85,0.366,1.15,0.3v-0.25c0.233,0.233,0.75,0.417,1.55,0.55l0.05-0.149c0.1-0.033,0.35,0,0.75,0.1
			c0.333,0.066,0.583,0.15,0.75,0.25V57.15c0.2-0.034,0.517-0.051,0.95-0.051h0.45c0.133-0.033,0.267-0.133,0.4-0.3
			c0.1,0,0.25,0.05,0.45,0.15c0.333,0.066,0.567,0.083,0.7,0.05c0.367,0,0.65-0.15,0.85-0.45c0.367-0.666,0.383-1.25,0.05-1.75
			c0.267,0.167,0.65,0.334,1.15,0.5c0.534,0.2,1.067,0.233,1.6,0.101l0.3-0.101c-0.3,0.066-0.633,0.066-1,0
			c0.1-0.1,0.383-0.217,0.85-0.35l0.9-0.4c0.7-0.233,1.116-0.566,1.25-1c-0.367,0.467-1.083,0.7-2.15,0.7
			c0.034-0.066,0.217-0.15,0.55-0.25c0.267-0.1,0.4-0.25,0.4-0.45c0.033-0.1-0.05-0.166-0.25-0.2C29.3,53.384,29.133,53.4,29,53.4
			c0.367-0.034,0.783-0.384,1.25-1.051c0.366-0.6,0.616-1.083,0.75-1.449c0.066-0.301,0.1-0.983,0.1-2.051
			c0-0.466,0.017-0.816,0.051-1.05c0-0.399,0.05-0.7,0.149-0.899c0.267,0.433,0.434,1.25,0.5,2.449l0.25,1.75
			c0.066,0.534,0.101,1.351,0.101,2.45c0,1.2,0.017,1.884,0.05,2.05c0.1,0.9,0.45,1.4,1.05,1.5L33.3,56.7l0.15,0.2V56.6l0.3,0.15
			c0.2,0.267,0.384,0.45,0.55,0.55h0.05l0.551,0.2c0.866,0.134,1.383,0.184,1.55,0.15c1.7-0.167,2.983-0.467,3.85-0.9
			c0.601-0.333,0.967-0.566,1.101-0.7c0.3-0.166,0.433-0.533,0.399-1.1l-0.2-0.55l-0.1-0.25c-0.233-0.467-0.366-0.784-0.4-0.95
			l0.101-0.05H41.1l-0.05-0.25c0.334,0.199,0.617,0.533,0.851,1c0.199,0.333,0.316,0.517,0.35,0.55c0.066,0.1,0.25,0.133,0.55,0.1
			c0.066-0.1,0.066-0.25,0-0.45L42.65,54.15l-0.051-0.7l-0.3,0.2c0-0.233,0-0.434,0-0.601c-0.033-0.233-0.166-0.283-0.399-0.149
			c0.033-0.4,0.033-0.684,0-0.851c-0.034-0.2-0.167-0.434-0.4-0.7c-0.467-0.6-0.833-0.866-1.1-0.8c0.1,0.2,0.233,0.434,0.399,0.7
			c0.167,0.233,0.233,0.45,0.2,0.65c-0.533-0.767-0.934-1.25-1.2-1.45c-0.767-0.467-1.149-1.066-1.149-1.8
			c0-0.7,0.05-1.551,0.149-2.551l0.3-2.649c-0.1-0.233-0.183-0.617-0.25-1.15c-0.033-0.5-0.267-1.2-0.699-2.1
			c0.1,0.166,0.233,0.25,0.399,0.25c0.167-0.334,0.066-0.783-0.3-1.351c-0.3-0.433-0.583-0.733-0.85-0.899
			c0.166,0.1,0.416,0.217,0.75,0.35c0.433,0.233,0.733,0.3,0.899,0.2c0-0.134-0.133-0.384-0.399-0.75
			c-0.233-0.333-0.334-0.583-0.301-0.75c0.634,0.467,1.067,0.366,1.301-0.3c0.1-0.634,0.017-1.233-0.25-1.8
			c-0.801-1.5-1.284-2.467-1.45-2.9c-0.101-0.267-0.25-0.566-0.45-0.9c0.233,0.101,0.483,0.15,0.75,0.15
			c0.066,0,0.116-0.033,0.15-0.1c1.433,0.233,1.3-0.801-0.4-3.101c-0.066-0.066-0.116-0.133-0.15-0.2
			c0.434,0.167,0.684,0.35,0.75,0.55C38.6,28.25,38.517,27.867,38.35,27.5z M37.95,14l-0.05-0.05V14L36.8,13.5
			c-0.133-0.067-0.233-0.083-0.3-0.05l-0.8-0.3l-0.75-0.05h-0.2l-0.15,0.6v-0.6c-0.233,0.267-0.333,0.533-0.3,0.8l-0.1-0.2v-0.05
			l-0.25-0.55H33.6l-0.25,0.1H33.15c-0.101-0.1-0.434-0.25-1-0.45l-0.301-0.1c-0.466-0.267-0.767-0.483-0.899-0.65
			c-0.5-0.833-0.884-1.45-1.15-1.85c-0.3-0.433-0.5-0.867-0.6-1.3L28.05,6.2L27.8,5.6l-0.25-0.55C27.317,4.55,26.933,4.2,26.4,4
			h-0.05H26.3l-0.15-0.075L25.5,3.65h-0.1c0.133-0.133,0.267-0.283,0.4-0.45L25.95,3L25.9,3.35c0.133,0.1,0.283,0.017,0.45-0.25
			c-0.133,0.4,0,0.683,0.4,0.85c0.2,0.066,0.517,0.183,0.95,0.35c0.4,0.267,0.633,0.8,0.7,1.6l0.1,0.6l0.1-0.2
			c0.267-0.6,0.5-0.95,0.7-1.05c0.034,0.1,0.167,0.583,0.4,1.45c0.033,0.133,0.05,0.417,0.05,0.85c0,0.3,0.05,0.55,0.15,0.75
			c0.067-0.167,0.117-0.433,0.15-0.8c0.101-0.333,0.184-0.617,0.25-0.85C30.4,6.883,30.517,7.233,30.65,7.7
			c0.466,1.433,0.733,2.233,0.8,2.4c0.133-0.167,0.2-0.6,0.2-1.3V6.65c0.1,0.4,0.383,0.867,0.85,1.4c0.167,0.233,0.366,0.7,0.6,1.4
			c-0.133-0.967-0.233-1.7-0.3-2.2c-0.233-0.867-0.35-1.467-0.35-1.8V5.4l0.3,0.6c0.033,0.167,0.083,0.35,0.15,0.55l0.6,1.85
			c0.167,0.633,0.333,1.333,0.5,2.1c0.066,0.3,0.15,0.55,0.25,0.75l0.05,0.25c0.066,0.333,0.15,0.517,0.25,0.55
			c0.101,0.2,0.3,0.35,0.601,0.45c0.566,0.233,2.017,0.75,4.35,1.55c2.267,0.934,3.866,2.534,4.8,4.8
			c0.033,0.133,0.066,0.267,0.101,0.4c-0.2,0-0.351-0.1-0.45-0.3c-0.033,0-0.084-0.15-0.15-0.45c-0.033-0.1-0.184-0.133-0.45-0.1
			l-0.05-0.6c-0.033,0.034-0.149,0.067-0.35,0.1c0.066-0.433,0.05-0.717-0.05-0.85C42.866,17.017,42.65,17,42.25,17
			c-0.033-0.667-0.483-1.233-1.35-1.7c-0.233-0.167-0.567-0.316-1-0.45L37.95,14z M40.2,50.1V50.2l0.1-0.75
			C40.134,49.65,40.1,49.866,40.2,50.1z M30.3,32.45l0.15-1.25l0.149-0.4c0.101,0.033,0.2,0.084,0.301,0.15v0.2v0.199V31.7v2.35
			l-0.2-0.1c-0.767-0.667-1.1-1.167-1-1.5c0.2,0,0.383,0.05,0.55,0.149L30.3,32.45z M29.7,15.05v0.15l0.05-0.05l0.05,0.1l0.15-0.1
			l-0.1,0.7c-0.067-0.033-0.133-0.117-0.2-0.25c-0.167-0.2-0.25-0.317-0.25-0.35l-0.55-0.8c-0.367-0.434-0.567-0.733-0.6-0.9
			l-0.4-0.6c-0.533-0.5-0.833-0.983-0.9-1.45c0.066-0.567,0.066-0.933,0-1.1c-0.1-0.167-0.267-0.333-0.5-0.5
			c-0.267-0.167-0.434-0.316-0.5-0.45c0.066-0.067,0.183-0.133,0.35-0.2c0.133-0.033,0.25-0.117,0.35-0.25L26.4,9.2
			c-0.066-0.2-0.167-0.35-0.3-0.45c-0.2,0.033-0.35,0-0.45-0.1c-0.1-0.133-0.117-0.316-0.05-0.55c0.066-0.233,0.167-0.367,0.3-0.4
			c0.7,0.767,1.083,1.566,1.15,2.4l0.3-0.15c0.133,0.133,0.217,0.4,0.25,0.8c0,0.233-0.017,0.533-0.05,0.9
			c0.167-0.566,0.383-0.833,0.65-0.8c0.167,0.033,0.25,0.383,0.25,1.05c0.033,0.233,0.216,0.867,0.55,1.9
			c0.167,0,0.333-0.05,0.5-0.15C29.6,14.517,29.667,14.983,29.7,15.05z M35.15,19.75c0.166,0.033,0.449,0.1,0.85,0.2
			c0.5,0,0.85-0.034,1.05-0.1l0.15-0.05c0.066-0.1,0.149-0.333,0.25-0.7c0-0.5,0.166-0.717,0.5-0.65c0.6,0.233,0.866,0.566,0.8,1
			l-0.5,0.05l-0.4,0.5c-0.199,0.167-0.566,0.25-1.1,0.25c-1.134,0-1.75-0.217-1.85-0.65L35.15,19.75z M37.65,17.85l-0.5-0.05
			l0.05-0.1c-0.066-0.133-0.233-0.2-0.5-0.2c-0.367,0.067-0.601,0.1-0.7,0.1c-0.467,0-0.8,0.15-1,0.45
			c-0.066-0.367,0.366-0.617,1.3-0.75c0.367-0.1,0.65-0.066,0.851,0.1c0.066,0.033,0.116,0.133,0.149,0.3L37.65,17.85z M13.05,52.4
			h0.05c0.167,0,0.316-0.167,0.45-0.5C13.85,51.434,14,50.8,14,50l0.1,1.25c0.033,0.233,0.033,0.616,0,1.15l0.1,0.3
			c0.133,0.267,0.45,0.434,0.95,0.5c0.6,0.1,0.967,0.166,1.1,0.2c-0.867,0-1.5,0.05-1.9,0.149h-0.1c-0.3-0.1-0.533-0.267-0.7-0.5
			v0.05L13.05,52.4z M35.8,28.8l0.25,0.5c0.066,0.1,0.117,0.217,0.15,0.35c-0.334-0.467-0.566-0.783-0.7-0.95
			C35.566,28.667,35.667,28.7,35.8,28.8z M26.1,52.75l-0.2-0.35l0.15,0.449L25.8,53.4l0.3-0.051c0.133-0.1,0.15-0.25,0.05-0.449
			c0.434,0.433,1.067,0.733,1.9,0.899c-0.1,0.2-0.466,0.283-1.1,0.25c-0.833-0.1-1.3-0.116-1.4-0.05c-0.033,0.167,0,0.333,0.1,0.5
			c-0.3-0.2-0.683-0.35-1.15-0.45h-0.2c-0.066,0-0.133,0-0.2,0C23.767,54.017,23.467,54,23.2,54h-0.45c-0.133,0-0.25,0-0.35,0
			c0-0.134,0.133-0.283,0.4-0.45c0.4-0.1,0.617-0.166,0.65-0.2c0.533-0.366,0.7-0.783,0.5-1.25c0.233-0.1,0.45-0.149,0.65-0.149
			V51.9c0.2-0.434,0.417-0.917,0.65-1.45c0.4-1.134,0.517-2.233,0.35-3.3c-0.167-1.134-0.483-2.017-0.95-2.65l-0.7-0.55l1.2,0.75
			c0.767,0.899,1.133,2.2,1.1,3.899c-0.067,1.7-0.267,2.817-0.6,3.351C26.05,52.116,26.2,52.384,26.1,52.75z"/>
		<path style="fill-rule:evenodd;clip-rule:evenodd;fill:#946322;" d="M26.35,4c0.433,0.3,0.783,0.65,1.05,1.05
			c0.2,0.233,0.333,0.417,0.4,0.55l0.25,0.6c0.034,0.2-0.017,0.35-0.15,0.45c-0.1,0.167-0.283,0.117-0.55-0.15
			c-0.233-0.3-0.4-0.483-0.5-0.55c-0.133-0.133-0.333-0.25-0.6-0.35c-0.367-0.067-0.6-0.1-0.7-0.1c-0.233-0.1-0.4-0.15-0.5-0.15
			l-0.1-0.1l-0.15,0.1c-0.133,0.1-0.233,0.25-0.3,0.45c-0.033,0.1-0.05,0.434-0.05,1l0.05,0.75c-0.133,0.1-0.3,0.083-0.5-0.05
			l-0.25-0.2c-0.267,0.967-0.1,2.167,0.5,3.6c0.367,0.733,0.783,1.467,1.25,2.2c0.567,0.9,0.95,1.683,1.15,2.35
			c-0.167-0.233-0.3-0.434-0.4-0.6c-0.9-1.167-1.6-2.217-2.1-3.15c-0.133-0.133-0.233-0.267-0.3-0.4C23.483,10.6,23.2,9.917,23,9.25
			c-0.133-0.333-0.217-0.667-0.25-1c-0.067-1.2,0.183-2.167,0.75-2.9l0.8-0.85c0.233-0.1,0.534-0.2,0.9-0.3
			c0.066,0,0.183,0.033,0.35,0.1c0.133,0,0.233-0.05,0.3-0.15c0.066-0.1,0.083-0.2,0.05-0.3l0.25,0.075L26.3,4H26.35z M41.75,19.3
			c0.033,0.333-0.05,0.55-0.25,0.65c-0.2-0.233-0.167-0.483,0.1-0.75L41.75,19.3z M41.2,19.6c-0.134,0.5-0.25,0.816-0.351,0.95
			c-0.133,0.233-0.399,0.35-0.8,0.35c-0.3,0-0.5-0.05-0.6-0.15c-0.101-0.067-0.134-0.233-0.101-0.5c0-0.3,0.117-0.583,0.351-0.85
			c0.2-0.3,0.45-0.467,0.75-0.5h0.95L41.2,19.6z M26.8,3c-0.033-0.033-0.033-0.233,0-0.6c0.034,0,0.083-0.017,0.15-0.05V2.5
			c0.4,0,0.783-0.133,1.15-0.4L28.6,2c0.033,0,0.066,0,0.1,0h0.2c0.467,0.067,0.934,0.233,1.4,0.5c-0.033,0.133-0.133,0.25-0.3,0.35
			c-0.2,0.066-0.433,0.017-0.7-0.15c-0.3-0.2-0.5-0.3-0.6-0.3c-0.1,0-0.35,0.117-0.75,0.35c-0.367,0.233-0.633,0.35-0.8,0.35
			C27.017,3.1,26.9,3.067,26.8,3z M29.3,20.25l0.7,0.4c0.2,1.333,0.134,2.083-0.2,2.25c-0.167,0.067-0.35,0.033-0.55-0.1
			c-0.233-0.1-0.383-0.233-0.45-0.4c-0.167-0.3-0.216-0.7-0.15-1.2C28.75,20.6,28.967,20.283,29.3,20.25z M29.35,20.9h-0.3
			c0.067,0.233,0.034,0.617-0.1,1.15c0.233,0.034,0.383,0.034,0.45,0c0.067-0.066,0.133-0.183,0.2-0.35
			C29.733,21.233,29.65,20.967,29.35,20.9z M29.5,23.9l0.3-0.25c0.167,0.133,0.233,0.367,0.2,0.7c-0.033,0.4-0.2,0.517-0.5,0.35
			C29.167,24.533,29.167,24.267,29.5,23.9z M35.35,18.25c0.233-0.233,0.483-0.317,0.75-0.25l0.101,0.1c0,0.967-0.467,1.417-1.4,1.35
			c-0.033-0.333,0.05-0.633,0.25-0.9c0-0.033,0.017-0.066,0.05-0.1L35.35,18.25z M35.25,13.8h0.15c0,0.8-0.184,1.034-0.551,0.7
			L35.25,13.8z M31.8,18.35c0.267-0.4,0.384-0.717,0.351-0.95l0.8-0.35c0.399-0.3,0.684-0.433,0.85-0.4
			c-0.666,0.934-0.95,1.7-0.85,2.3c0.1,0.633,0.333,1.033,0.7,1.2c0.133,0.067,0.35,0.133,0.649,0.2c0.2,0.1,0.25,0.3,0.15,0.6
			c-0.033,0.233-0.3,0.633-0.8,1.2l-0.4,0.65c-0.033,0.1-0.083,0.317-0.15,0.65c-0.199,0.1-0.517-0.067-0.949-0.5l-0.5-0.5
			c-0.233-0.267-0.351-0.567-0.351-0.9c0-0.4-0.033-0.733-0.1-1c-0.101,0.1-0.233,0.15-0.4,0.15c-0.066-0.6,0.066-1.133,0.4-1.6
			C31.5,18.767,31.7,18.517,31.8,18.35z M40.4,19.3c-0.601,0.3-0.834,0.583-0.7,0.85c0.7,0.067,1.017-0.167,0.95-0.7L40.4,19.3z
			 M32.15,22.3c0.066,0.067,0.283,0.1,0.649,0.1l0.05-0.65l-0.5-0.2c-0.1,0.034-0.166,0.133-0.199,0.3
			C32.083,22.017,32.083,22.167,32.15,22.3z M32.8,18.7l-0.649-0.1c-0.233,0.1-0.4,0.383-0.5,0.85
			c-0.101,0.433-0.051,0.733,0.149,0.9C32.467,20.85,32.8,20.3,32.8,18.7z M19.1,36.35c-0.267,0-0.517,0.067-0.75,0.2
			c-0.2,0.2-0.283,0.434-0.25,0.7c0.566,0.066,0.917-0.15,1.05-0.65l-0.2,0.351L19.1,36.35z M16.95,38.6L17,38.65
			c0.3,0.066,0.417-0.017,0.35-0.25l-0.3-0.101l-0.025,0.025L17.25,37.6c0.067-0.3,0.233-0.517,0.5-0.649l0.1,0.25
			c0.1-0.434,0.333-0.834,0.7-1.2c0.434-0.366,0.85-0.55,1.25-0.55c0-0.134,0.117-0.351,0.35-0.65s0.367-0.5,0.4-0.6
			c0.5-0.967,0.8-1.15,0.9-0.55c0.466-0.601,0.833-1.051,1.1-1.351c0.233-0.2,0.4-0.3,0.5-0.3c0.034,0,0.133,0.134,0.3,0.4
			c0.3-0.4,0.55-0.717,0.75-0.95c0.367-0.467,0.6-0.467,0.7,0c0.034-0.033,0.2-0.233,0.5-0.601c0.2-0.3,0.367-0.433,0.5-0.399
			c0.067,0,0.217,0.116,0.45,0.35c0.167-0.267,0.317-0.45,0.45-0.55c0.167-0.167,0.283-0.233,0.35-0.2
			c0.067,0.101,0.2,0.217,0.4,0.351c0.167,0.033,0.267,0.05,0.3,0.05s0.067-0.117,0.1-0.351l0.1-0.399l0.5,0.15l0.05,0.85l0.35-0.25
			c0.1,0.6-0.017,1.133-0.35,1.6c-0.167,0.3-0.267,0.617-0.3,0.95c0,0.233-0.017,0.583-0.05,1.05c-0.3,0.134-0.5-0.017-0.6-0.45
			l-0.15,0.7c-0.2,0.033-0.316-0.05-0.35-0.25c0-0.2-0.017-0.35-0.05-0.45c-0.133,0.634-0.3,0.934-0.5,0.9
			c-0.133-0.033-0.2-0.167-0.2-0.4c0-0.3,0-0.466,0-0.5c-0.433,0.934-0.933,1.417-1.5,1.45V34.3c-0.066,0.134-0.233,0.517-0.5,1.15
			c-0.267,0.533-0.5,0.75-0.7,0.649l-0.05-1.149c-0.033,0.1-0.133,0.366-0.3,0.8c-0.167,0.333-0.4,0.45-0.7,0.35l-0.05-0.6
			c-0.1,0.134-0.167,0.384-0.2,0.75c-0.167,0.3-0.417,0.533-0.75,0.7c-0.1-0.101-0.167-0.25-0.2-0.45
			c-0.033-0.267-0.05-0.417-0.05-0.45c-0.066,0.2-0.15,0.566-0.25,1.101c-0.066,0.466-0.15,0.816-0.25,1.05
			c-0.233,0.033-0.35-0.217-0.35-0.75c-0.067-0.667-0.133-1.033-0.2-1.101c-0.067,0.134-0.217,0.567-0.45,1.301
			c-0.267,0.666-0.517,1.017-0.75,1.05c0-0.5-0.05-0.867-0.15-1.101l-1.1,2.45c-0.1-0.066-0.15-0.2-0.15-0.399
			c-0.167,0.133-0.333,0.416-0.5,0.85c-0.133,0.434-0.3,0.733-0.5,0.9v-0.65c-0.066,0.2-0.267,0.684-0.6,1.45
			c-0.233,0.533-0.383,1.017-0.45,1.45c0.066-1.9,0.267-3.184,0.6-3.851C16.5,39.233,16.75,38.833,16.95,38.6z M19.6,44.15h-0.3
			c-0.267,0.199-0.383,0.416-0.35,0.649C19.383,44.934,19.6,44.717,19.6,44.15z M19.9,43.8c0.133-0.066,0.233-0.066,0.3,0
			c0.066,0.2-0.067,0.5-0.4,0.9c-0.333,0.366-0.617,0.616-0.85,0.75c-0.434,0.166-0.483-0.101-0.15-0.8
			c0.3-0.733,0.617-1.051,0.95-0.95L19.9,43.8z M32.05,36.8c-0.166-0.166-0.133-0.45,0.101-0.85
			c0.199-0.367,0.416-0.566,0.649-0.601l0.05-1.399c0.067,0.033,0.217,0.383,0.45,1.05c0.4,0.434,0.584,0.816,0.55,1.15
			c0,0.233-0.017,0.6-0.05,1.1c0.033,0.4,0.117,0.75,0.25,1.05c0,0.033,0.184,0.184,0.55,0.45c0.2,0.233,0.267,0.45,0.2,0.65
			c-0.066,0.1-0.25,0.199-0.55,0.3c-0.333,0.1-0.533,0.2-0.6,0.3c-0.233,0.3-0.084,0.616,0.449,0.95
			c0.467,0.233,0.5,0.467,0.101,0.7c-0.434,0.199-0.684,0.517-0.75,0.949V43.2l0.2,0.399c0.066,0.233-0.034,0.567-0.301,1
			c-0.166,0.4-0.216,0.7-0.149,0.9c0.033,0.167,0.2,0.316,0.5,0.45c0.233,0.2,0.35,0.399,0.35,0.6c0,0.233-0.116,0.566-0.35,1
			c-0.101,0.334-0.15,0.834-0.15,1.5L33.6,51c0,0.066,0.067,0.35,0.2,0.85c0.066,0.301,0.084,0.534,0.05,0.7
			c-0.6-0.6-0.899-1.416-0.899-2.45c-0.033-0.366-0.017-1.033,0.05-2c0.066-0.833,0.033-1.483-0.1-1.949
			c-0.267,0-0.351-0.45-0.25-1.351c0.1-0.833,0-1.25-0.301-1.25c0.067-1.033,0.067-1.75,0-2.149L32.15,41.3L32.1,41
			c0.467-0.934,0.634-1.7,0.5-2.3l-0.25-0.05c0.034-0.467,0.067-0.867,0.101-1.2C32.45,36.75,32.316,36.533,32.05,36.8z M25.3,31.85
			c-0.233,0.367-0.4,0.567-0.5,0.601c-0.167-0.233-0.367-0.233-0.6,0L23.65,33l-0.1-0.1c-0.1,0.033-0.233,0.116-0.4,0.25
			c-0.2,0.133-0.316,0.216-0.35,0.25c-0.3,0-0.55,0.05-0.75,0.149c-0.3,0.2-0.767,0.667-1.4,1.4c0.6-0.601,1.15-0.934,1.65-1
			c0.067,0,0.233,0.033,0.5,0.1c0.133,0,0.3-0.066,0.5-0.2c0.2-0.199,0.367-0.316,0.5-0.35h0.4c0.2-0.066,0.45-0.283,0.75-0.65
			c0.167,0.067,0.316,0.034,0.45-0.1c0.2-0.2,0.333-0.35,0.4-0.45c0.067-0.033,0.167-0.05,0.3-0.05c0.133-0.033,0.2-0.116,0.2-0.25
			c0.067-0.167,0.067-0.283,0-0.35c-0.1-0.134-0.233-0.184-0.4-0.15v-0.15C25.667,31.417,25.467,31.583,25.3,31.85z M26.65,47.95
			l-0.2-1.351c-0.133-0.733-0.25-1.149-0.35-1.25c-0.5-0.6-0.817-1.05-0.95-1.35h0.1c0.267,0,0.667,0.333,1.2,1
			c0.233,0.3,0.4,0.566,0.5,0.8v0.05l0.4,1.101c0.167,0.633,0.183,1.434,0.05,2.399c0,0.2,0,0.5,0,0.9
			c-0.033,0.434-0.1,0.75-0.2,0.95l-0.45,0.05c-0.1-0.2-0.15-0.333-0.15-0.4l0.05-1.899l0.1,0.05c0.2,0.033,0.3-0.167,0.3-0.6
			c0-0.467,0-0.75,0-0.851l-0.1-0.1c-0.1,0.066-0.184,0.184-0.25,0.35L26.65,47.95z M29.7,45.45l0.5-1l0.5-0.65
			c0.267,0.033,0.3,0.316,0.1,0.851c-0.066,0.233-0.217,0.55-0.45,0.949c-0.066,0.233-0.216,0.534-0.45,0.9
			c-0.133,0.366-0.316,0.616-0.55,0.75C29.317,46.95,29.433,46.35,29.7,45.45z M23.1,54.75l0.3-0.05l1.2,0.399
			c0.066,0.2-0.083,0.317-0.45,0.351c-0.433-0.033-0.7-0.05-0.8-0.05H20.9c-0.733-0.134-1.3-0.233-1.7-0.301
			c-1-0.199-1.767-0.6-2.3-1.199c0.367,0,0.883,0.1,1.55,0.3c0.733,0.2,1.233,0.316,1.5,0.35h0.35l0.9,0.15l-0.1,0.1l0.8,0.05
			c0.1,0,0.283,0.017,0.55,0.051c0.267,0.033,0.466,0,0.6-0.101L23.1,54.75z M27.05,40.55v0.3c-0.5,1.2-0.867,1.834-1.1,1.9
			c-0.1-0.366,0.05-0.9,0.45-1.6l0.75-1.351L27.05,40.55z M28.8,42.1c0,0.4-0.183,0.834-0.55,1.301c-0.033,0.1-0.15,0.3-0.35,0.6
			c-0.1,0.3-0.217,0.45-0.35,0.45v-0.3c0-0.801,0.417-1.567,1.25-2.301h0.05L28.8,42.1z M24.6,40.1h0.2l-0.25,1.5
			c-0.066-0.066-0.1-0.3-0.1-0.699C24.45,40.5,24.5,40.233,24.6,40.1z M22.9,45.45l0.15-0.101L23,45.95
			c-0.067,0.333-0.167,0.633-0.3,0.899c-0.267,0.301-0.567,0.434-0.9,0.4v-0.1L21.9,47c0.033-0.1,0.133-0.25,0.3-0.45
			c0.2-0.2,0.316-0.333,0.35-0.399L22.9,45.45z M22.25,48.45h0.275h0.325c0.333-0.101,0.533-0.316,0.6-0.65l0.05-0.1l0.05,0.75
			c-0.167,0.233-0.417,0.383-0.75,0.45c-0.4,0.066-0.733,0.017-1-0.15C21.867,48.583,22.017,48.483,22.25,48.45z M20.75,52.25
			c0.233,0.134,0.45,0.184,0.65,0.15l0.25,0.35c-0.4,0-0.717-0.066-0.95-0.2c-0.5-0.366-0.667-0.583-0.5-0.649
			C20.267,51.9,20.45,52.017,20.75,52.25z M23.1,49.75L23.65,50c-0.133,0.267-0.45,0.4-0.95,0.4c-0.6-0.067-0.934-0.233-1-0.5
			l0.1-0.051C22,49.75,22.4,49.7,23,49.7L23.1,49.75z M32.65,40.85L32.55,41.15c-0.033,0.199-0.017,0.333,0.05,0.399
			c0.101,0.167,0.2,0.15,0.301-0.05c0.133-0.066,0.166-0.217,0.1-0.45C32.934,40.884,32.816,40.816,32.65,40.85z M33.2,39.4
			c0.1-0.034,0.149-0.367,0.149-1c-0.033-0.634-0.05-1.017-0.05-1.15l-0.2-0.3c-0.166,0.166-0.267,0.633-0.3,1.399
			C32.8,39.083,32.934,39.434,33.2,39.4z M36.8,51.9c0.167,0.066,0.167,0.233,0,0.5c-0.267,0.267-0.399,0.416-0.399,0.449
			c0.1,0.067,0.25,0.051,0.449-0.05c0.301-0.1,0.5-0.149,0.601-0.149c-0.167,0.3-0.167,0.583,0,0.85l0.8,0.05
			c0.066,0.233,0.033,0.45-0.1,0.65c0,0.033-0.167,0.2-0.5,0.5c-0.067,0.1-0.217,0.3-0.45,0.6c-0.233,0.233-0.434,0.334-0.601,0.3
			c-0.066-0.199,0.101-0.616,0.5-1.25c-0.199,0.134-0.633,0.217-1.3,0.25c-0.3,0.134-0.616,0.367-0.95,0.7
			c-0.166,0.2-0.449,0.5-0.85,0.9c-0.134-0.267,0.017-0.867,0.45-1.8c-0.434,0.566-0.8,0.883-1.101,0.949
			c0.101-0.133,0.217-0.433,0.351-0.899c0.1-0.367,0.217-0.634,0.35-0.8c0.434-0.534,1.25-0.9,2.45-1.101L36.8,51.9z M36.75,53.3
			L36,53.15c-0.9,0.366-1.267,0.833-1.1,1.399c0.3,0.101,0.699,0,1.199-0.3C36.566,53.917,36.783,53.6,36.75,53.3z M20.3,53.55
			L20,53.7c-0.233-0.033-0.467-0.134-0.7-0.3c-0.3-0.167-0.333-0.317-0.1-0.45c0.066-0.033,0.183-0.017,0.35,0.05
			c0.2,0.066,0.55,0.217,1.05,0.45L20.3,53.55z"/>
		<linearGradient id="SVGID_1_" gradientUnits="userSpaceOnUse" x1="28.9751" y1="26.5" x2="40.6251" y2="26.5">
			<stop  offset="0" style="stop-color:#2F9869"/>
			<stop  offset="0.4863" style="stop-color:#5BCF9B"/>
			<stop  offset="1" style="stop-color:#1B593D"/>
		</linearGradient>
		<path style="fill-rule:evenodd;clip-rule:evenodd;fill:url(#SVGID_1_);" d="M31.1,27.95c-0.3-0.034-0.583-0.083-0.85-0.15
			l-1.3-0.35V27.4L29,25.95v-0.3l1.8,0.5c0.134,0,0.267,0.033,0.4,0.1c0.899,0.067,1.75,0.117,2.55,0.15
			c-0.533,0.167-1.184,0.517-1.95,1.05C31.533,27.617,31.3,27.783,31.1,27.95z M38.35,27.5c-0.3,0.133-0.55,0.233-0.75,0.3
			c-0.566-0.733-1.066-1.25-1.5-1.55c0.134,0,0.267-0.033,0.4-0.1c0.866-0.133,1.65-0.35,2.35-0.65c0.5-0.2,0.934-0.433,1.301-0.7
			l0.05,0.1l0.1,0.65l0.351,0.8c-0.067,0-0.101,0.017-0.101,0.05c-0.166,0.067-0.316,0.167-0.45,0.3
			c-0.566,0.367-1.133,0.633-1.699,0.8H38.35z M34.75,28.2c0.167-0.267,0.333-0.517,0.5-0.75l0.25,0.7
			C35.233,28.183,34.983,28.2,34.75,28.2z"/>
		<path style="fill-rule:evenodd;clip-rule:evenodd;fill:#40290E;" d="M40.1,26.7c0.134-0.133,0.284-0.233,0.45-0.3
			c0.233,0.533,0.566,1.25,1,2.15c0.3,0.733,0.434,1.917,0.4,3.55c-0.033,1.567-0.2,2.851-0.5,3.851c-0.2,0.666-0.4,1.366-0.601,2.1
			l-0.3,1.65c-0.1,0.5-0.184,1.066-0.25,1.7V41.3c-0.1-0.566-0.1-1.416,0-2.55c0.134-0.4,0.267-0.75,0.4-1.05
			C40.467,37.9,40.233,38,40,38c0.033-0.233,0.15-0.583,0.35-1.05c0.2-0.5,0.317-0.884,0.351-1.15c0.033-0.5,0.017-1.184-0.05-2.05
			c-0.233-1.533-0.517-2.583-0.851-3.15c-0.633-0.833-0.934-1.266-0.899-1.3c0.066-0.1,0.3-0.133,0.699-0.1h0.75
			c-0.267-0.6-0.416-1.05-0.449-1.35l0.449,0.1c0.034-0.233-0.017-0.55-0.149-0.95C40.167,26.9,40.134,26.8,40.1,26.7z"/>
		<path style="fill-rule:evenodd;clip-rule:evenodd;fill:#C99F67;" d="M24.625,3.925c0.182-0.092,0.357-0.151,0.525-0.175h0.15
			l0.6,0.1c0.033,0.1,0.017,0.2-0.05,0.3c-0.067,0.1-0.167,0.15-0.3,0.15c-0.167-0.066-0.283-0.1-0.35-0.1
			c-0.367,0.1-0.667,0.2-0.9,0.3l-0.8,0.85c-0.567,0.733-0.817,1.7-0.75,2.9c-0.033-0.2-0.067-0.417-0.1-0.65
			c-0.167-1.367,0.1-2.333,0.8-2.9l0.45-0.3c0.2-0.133,0.367-0.25,0.5-0.35C24.479,4.004,24.555,3.963,24.625,3.925z M26.95,2.35
			L28.1,2.1c-0.367,0.267-0.75,0.4-1.15,0.4V2.35z M29.35,20.9c0.3,0.067,0.383,0.333,0.25,0.8c-0.067,0.167-0.133,0.283-0.2,0.35
			c-0.066,0.034-0.217,0.034-0.45,0c0.133-0.533,0.167-0.917,0.1-1.15H29.35z M32.8,18.7c0,1.6-0.333,2.15-1,1.65
			c-0.2-0.167-0.25-0.467-0.149-0.9c0.1-0.467,0.267-0.75,0.5-0.85L32.8,18.7z M32.15,22.3c-0.067-0.133-0.067-0.283,0-0.45
			c0.033-0.167,0.1-0.267,0.199-0.3l0.5,0.2L32.8,22.4C32.434,22.4,32.217,22.367,32.15,22.3z M40.4,19.3l0.25,0.15
			c0.066,0.533-0.25,0.767-0.95,0.7C39.566,19.883,39.8,19.6,40.4,19.3z M19.1,36.35l-0.15,0.601l0.2-0.351
			c-0.133,0.5-0.483,0.717-1.05,0.65c-0.033-0.267,0.05-0.5,0.25-0.7C18.583,36.417,18.833,36.35,19.1,36.35z M16.95,38.6
			c-0.067-0.1-0.05-0.183,0.05-0.25l0.025-0.024L17.05,38.3l0.3,0.101c0.066,0.233-0.05,0.316-0.35,0.25L16.95,38.6z M19.6,44.15
			c0,0.566-0.217,0.783-0.65,0.649c-0.034-0.233,0.083-0.45,0.35-0.649H19.6z M25.3,31.85c0.167-0.267,0.367-0.433,0.6-0.5v0.15
			c0.167-0.033,0.3,0.017,0.4,0.15c0.067,0.066,0.067,0.183,0,0.35c0,0.134-0.066,0.217-0.2,0.25c-0.133,0-0.233,0.017-0.3,0.05
			c-0.066,0.101-0.2,0.25-0.4,0.45c-0.133,0.134-0.283,0.167-0.45,0.1c-0.3,0.367-0.55,0.584-0.75,0.65h-0.4
			c-0.133,0.033-0.3,0.15-0.5,0.35c-0.2,0.134-0.367,0.2-0.5,0.2c-0.267-0.066-0.433-0.1-0.5-0.1c-0.5,0.066-1.05,0.399-1.65,1
			c0.633-0.733,1.1-1.2,1.4-1.4c0.2-0.1,0.45-0.149,0.75-0.149c0.034-0.034,0.15-0.117,0.35-0.25c0.167-0.134,0.3-0.217,0.4-0.25
			l0.1,0.1l0.55-0.55c0.233-0.233,0.433-0.233,0.6,0C24.9,32.417,25.067,32.217,25.3,31.85z M26.65,48.9L26.7,47.8
			c0.066-0.166,0.15-0.283,0.25-0.35l0.1,0.1c0,0.101,0,0.384,0,0.851c0,0.433-0.1,0.633-0.3,0.6l-0.1-0.05V48.9z M23.1,54.7v0.05
			l-0.05,0.05c-0.133,0.101-0.333,0.134-0.6,0.101C22.183,54.866,22,54.85,21.9,54.85l-0.8-0.05l0.1-0.1
			c0.066-0.2,0.367-0.283,0.9-0.25c0.267,0.033,0.617,0.066,1.05,0.1L23.1,54.7z M33.2,39.4c-0.267,0.033-0.4-0.317-0.4-1.051
			c0.033-0.767,0.134-1.233,0.3-1.399l0.2,0.3c0,0.134,0.017,0.517,0.05,1.15C33.35,39.033,33.3,39.366,33.2,39.4z M32.65,40.85
			c0.166-0.033,0.283,0.034,0.35,0.2c0.066,0.233,0.033,0.384-0.1,0.45c-0.101,0.2-0.2,0.217-0.301,0.05
			c-0.066-0.066-0.083-0.2-0.05-0.399L32.65,40.85z M36.75,53.3c0.033,0.3-0.184,0.617-0.65,0.95c-0.5,0.3-0.899,0.4-1.199,0.3
			c-0.167-0.566,0.199-1.033,1.1-1.399L36.75,53.3z"/>
		<linearGradient id="SVGID_2_" gradientUnits="userSpaceOnUse" x1="34.5752" y1="28.6777" x2="39.2252" y2="28.6777">
			<stop  offset="0" style="stop-color:#2F9869"/>
			<stop  offset="0.4863" style="stop-color:#5BCF9B"/>
			<stop  offset="1" style="stop-color:#1B593D"/>
		</linearGradient>
		<path style="fill-rule:evenodd;clip-rule:evenodd;fill:url(#SVGID_2_);" d="M34.95,26.4c-0.101-0.033-0.2-0.05-0.3-0.05
			c0.3-0.533,0.783-0.567,1.449-0.1c0.434,0.3,0.934,0.817,1.5,1.55c0.067,0.1,0.15,0.2,0.25,0.3c0.034,0.066,0.084,0.133,0.15,0.2
			c1.7,2.3,1.833,3.334,0.4,3.101c0.133-0.301-0.2-1.117-1-2.45c-0.067-0.034-0.101-0.067-0.101-0.1
			C36.3,27.217,35.517,26.4,34.95,26.4z"/>
		
			<linearGradient id="SVGID_3_" gradientUnits="userSpaceOnUse" x1="-44.792" y1="20.3262" x2="-39.8164" y2="20.3262" gradientTransform="matrix(-0.4371 -0.8994 0.8994 -0.4371 1.527667e-004 9.757876e-004)">
			<stop  offset="0" style="stop-color:#2F9869"/>
			<stop  offset="1" style="stop-color:#14422D"/>
		</linearGradient>
		<path style="fill-rule:evenodd;clip-rule:evenodd;fill:url(#SVGID_3_);" d="M38.4,31.4c-0.034,0.066-0.084,0.1-0.15,0.1
			c-0.267,0-0.517-0.05-0.75-0.15c-0.467-0.333-0.9-0.899-1.3-1.7c-0.033-0.133-0.084-0.25-0.15-0.35l-0.25-0.5l-0.3-0.65l-0.25-0.7
			l-0.55-1l0.25-0.05c0.566,0,1.35,0.817,2.35,2.45c0,0.033,0.033,0.066,0.101,0.1C38.2,30.283,38.533,31.1,38.4,31.4z"/>
		<linearGradient id="SVGID_4_" gradientUnits="userSpaceOnUse" x1="29.9248" y1="28.0498" x2="34.3748" y2="28.0498">
			<stop  offset="0" style="stop-color:#2F9869"/>
			<stop  offset="1" style="stop-color:#14422D"/>
		</linearGradient>
		<path style="fill-rule:evenodd;clip-rule:evenodd;fill:url(#SVGID_4_);" d="M31.1,27.95c0.2-0.167,0.434-0.333,0.7-0.5
			c0.767-0.534,1.417-0.883,1.95-1.05c0.233-0.1,0.434-0.15,0.6-0.15v0.05c-0.033,0-0.116,0-0.25,0l-0.149,0.05
			c-0.066,0.467-0.834,1.167-2.3,2.1c-0.4,0.167-0.717,0.35-0.95,0.55c-0.033,0-0.066,0.017-0.101,0.05
			c-0.199,0.2-0.366,0.367-0.5,0.5c-0.066,0.067-0.116,0.167-0.149,0.3c-0.034-0.167-0.034-0.333,0-0.5
			c0-0.033,0.017-0.083,0.05-0.15c0.033-0.133,0.116-0.233,0.25-0.3c0.1-0.267,0.35-0.55,0.75-0.85
			C31.033,27.983,31.066,27.95,31.1,27.95z"/>
		
			<linearGradient id="SVGID_5_" gradientUnits="userSpaceOnUse" x1="1.6768" y1="43.29" x2="7.0013" y2="43.29" gradientTransform="matrix(0.7325 -0.6808 0.6808 0.7325 3.340244e-004 -1.116991e-004)">
			<stop  offset="0" style="stop-color:#2F9869"/>
			<stop  offset="0.4863" style="stop-color:#5BCF9B"/>
			<stop  offset="1" style="stop-color:#1B593D"/>
		</linearGradient>
		<path style="fill-rule:evenodd;clip-rule:evenodd;fill:url(#SVGID_5_);" d="M30.4,30.7c-0.134-0.167-0.284-0.334-0.45-0.5
			c-0.067-0.134-0.067-0.25,0-0.35c0.033-0.133,0.083-0.233,0.149-0.3c0.134-0.133,0.301-0.3,0.5-0.5
			C30.634,29.017,30.667,29,30.7,29c0.233-0.2,0.55-0.383,0.95-0.55c1.466-0.934,2.233-1.633,2.3-2.1L34.1,26.3
			c0.134,0,0.217,0,0.25,0c0.067,0,0.167,0.017,0.301,0.05c0.1,0,0.199,0.017,0.3,0.05l-0.25,0.05l0.55,1
			c-0.167,0.233-0.333,0.483-0.5,0.75c-0.267,0.267-0.566,0.6-0.9,1c-1.199,1.3-2.183,1.883-2.949,1.75
			c-0.101-0.066-0.2-0.117-0.301-0.15C30.5,30.767,30.434,30.733,30.4,30.7z"/>
	</g>
</g>
</svg>
