<?xml version="1.0" encoding="iso-8859-1"?>
<!-- Generator: Adobe Illustrator 15.1.0, SVG Export Plug-In . SVG Version: 6.00 Build 0)  -->
<!DOCTYPE svg PUBLIC "-//W3C//DTD SVG 1.1//EN" "http://www.w3.org/Graphics/SVG/1.1/DTD/svg11.dtd">
<svg version="1.1" xmlns="http://www.w3.org/2000/svg" xmlns:xlink="http://www.w3.org/1999/xlink" x="0px" y="0px" width="60px"
	 height="60px" viewBox="0 0 60 60" style="enable-background:new 0 0 60 60;" xml:space="preserve">
<symbol  id="FlashAICB_x5F_0_x2F_Layer_1_x2F__x3C_Path_x3E__x5F_11" viewBox="0 -8.45 12.5 8.45">
	<g id="Layer_1_5_">
		<path style="fill-rule:evenodd;clip-rule:evenodd;" d="M12.4-1.95h0.05l0.05-4.4h-0.05c-0.6,0-1.083-0.217-1.45-0.65
			c-0.333-0.4-0.483-0.883-0.45-1.45H1.8c0,0.534-0.15,1-0.45,1.4C1.017-6.617,0.567-6.383,0-6.35l0.05,4.4
			c0.567,0.034,1.034,0.233,1.4,0.6C1.75-0.983,1.917-0.533,1.95,0h8.55c0.033-0.533,0.2-0.983,0.5-1.35
			C11.333-1.75,11.8-1.95,12.4-1.95z"/>
	</g>
</symbol>
<symbol  id="FlashAICB_x5F_0_x2F_Layer_1_x2F__x3C_Path_x3E__x5F_14" viewBox="-0.003 -19.6 19.907 19.6">
	<g id="Layer_1_4_">
		<path style="fill-rule:evenodd;clip-rule:evenodd;fill:#FFFFFF;" d="M19.9-9.6c0.067-2.767-0.883-5.117-2.85-7.05
			c-1.933-1.967-4.316-2.95-7.15-2.95c-2.8,0-5.167,0.983-7.1,2.95C0.867-14.717-0.067-12.367,0-9.6c0.067,2.667,1.067,4.934,3,6.8
			S7.25,0,9.95,0c2.7,0,5.017-0.933,6.95-2.8C18.867-4.667,19.867-6.933,19.9-9.6z"/>
	</g>
</symbol>
<symbol  id="FlashAICB_x5F_0_x2F_Layer_1_x2F__x3C_Path_x3E__x5F_23" viewBox="0 -4.4 49.25 4.4">
	<g id="Layer_1_3_">
		
			<radialGradient id="SVGID_1_" cx="24.5498" cy="-3" r="23.7" gradientTransform="matrix(1 0 0 -0.1403 0 -3.4209)" gradientUnits="userSpaceOnUse">
			<stop  offset="0" style="stop-color:#000000"/>
			<stop  offset="0.9216" style="stop-color:#000000;stop-opacity:0.1686"/>
			<stop  offset="1" style="stop-color:#000000;stop-opacity:0"/>
		</radialGradient>
		<path style="fill-rule:evenodd;clip-rule:evenodd;fill:url(#SVGID_1_);" d="M49.25-2.65c0-0.733-1.817-1.217-5.45-1.45
			c-3.233-0.2-9.75-0.3-19.55-0.3C14.217-4.4,7.7-4.3,4.7-4.1C1.567-3.867,0-3.383,0-2.65S2.417-1.3,7.25-0.8
			c4.8,0.533,10.6,0.8,17.4,0.8c6.8,0,12.6-0.267,17.4-0.8C46.85-1.3,49.25-1.917,49.25-2.65z"/>
	</g>
</symbol>
<symbol  id="FlashAICB_x5F_0_x2F_Layer_1_x2F__x3C_Path_x3E__x5F_9" viewBox="0 -17.65 26.3 17.65">
	<g id="Layer_1_6_">
		<path style="fill-rule:evenodd;clip-rule:evenodd;fill:#FFFFFF;" d="M26.3-5.05c-6-0.434-11.517-2.067-16.55-4.9
			c-3.7-2.033-6.95-4.6-9.75-7.7L0.5,0h25.65L26.3-5.05z"/>
	</g>
</symbol>
<symbol  id="transparent_x5F_box_1_" viewBox="0 -50 50 50">
	<g id="Layer_1_2_">
		<polygon style="fill-rule:evenodd;clip-rule:evenodd;fill:#CCCCCC;" points="50,-50 0,-50 0,0 50,0 		"/>
	</g>
</symbol>
<g id="transparent_x5F_box">
	
		<use xlink:href="#transparent_x5F_box_1_"  width="50" height="50" y="-50" transform="matrix(1.2 0 0 -1.2 0 0)" style="overflow:visible;opacity:0;"/>
</g>
<g id="Layer_1">
	<g>
		
			<use xlink:href="#FlashAICB_x5F_0_x2F_Layer_1_x2F__x3C_Path_x3E__x5F_23"  width="49.25" height="4.4" y="-4.4" transform="matrix(1.2 0 0 -1.2 0.8999 53.7002)" style="overflow:visible;opacity:0.6406;enable-background:new    ;"/>
		
			<linearGradient id="SVGID_2_" gradientUnits="userSpaceOnUse" x1="197.2979" y1="-60.521" x2="200.5197" y2="-60.521" gradientTransform="matrix(-0.1397 1.1918 -1.1918 -0.1397 -24.0507 -188.9003)">
			<stop  offset="0" style="stop-color:#341706"/>
			<stop  offset="1" style="stop-color:#7E3F1B"/>
		</linearGradient>
		<polygon style="fill-rule:evenodd;clip-rule:evenodd;fill:url(#SVGID_2_);" points="23.11,58.959 15.791,58.959 18.61,49.779 
			24.97,52.899 		"/>
		
			<linearGradient id="SVGID_3_" gradientUnits="userSpaceOnUse" x1="52.3975" y1="206.1865" x2="52.7725" y2="202.9865" gradientTransform="matrix(1.2 0 0 1.2 -24.0497 -188.9003)">
			<stop  offset="0" style="stop-color:#341706"/>
			<stop  offset="1" style="stop-color:#7E3F1B"/>
		</linearGradient>
		<polygon style="fill-rule:evenodd;clip-rule:evenodd;fill:url(#SVGID_3_);" points="40.869,49.779 43.75,58.959 36.369,58.959 
			34.51,52.899 		"/>
		
			<radialGradient id="SVGID_4_" cx="44.6006" cy="180.6504" r="21.0621" gradientTransform="matrix(1.2 0 0 -1.1395 -24.0497 233.7241)" gradientUnits="userSpaceOnUse">
			<stop  offset="0" style="stop-color:#201B1B"/>
			<stop  offset="1" style="stop-color:#3B3B3B"/>
		</radialGradient>
		<polygon style="fill-rule:evenodd;clip-rule:evenodd;fill:url(#SVGID_4_);" points="48.91,0.519 50.65,55.239 8.291,55.239 
			10.27,0.519 		"/>
		
			<radialGradient id="SVGID_5_" cx="44.5996" cy="180.5752" r="20.4266" gradientTransform="matrix(1.2 0 0 -1.1397 -24.0497 233.5982)" gradientUnits="userSpaceOnUse">
			<stop  offset="0" style="stop-color:#595959"/>
			<stop  offset="0.9922" style="stop-color:#372F30"/>
		</radialGradient>
		<polygon style="fill-rule:evenodd;clip-rule:evenodd;fill:url(#SVGID_5_);" points="48.31,1.239 49.99,54.339 8.95,54.339 
			10.81,1.239 		"/>
		
			<radialGradient id="SVGID_6_" cx="44.5996" cy="180.5254" r="19.7728" gradientTransform="matrix(1.2 0 0 -1.1401 -24.0497 233.5486)" gradientUnits="userSpaceOnUse">
			<stop  offset="0" style="stop-color:#201B1B"/>
			<stop  offset="1" style="stop-color:#3B3B3B"/>
		</radialGradient>
		<polygon style="fill-rule:evenodd;clip-rule:evenodd;fill:url(#SVGID_6_);" points="47.77,2.019 49.33,53.439 9.61,53.439 
			11.35,2.019 		"/>
		
			<radialGradient id="SVGID_7_" cx="44.5996" cy="180.4248" r="18.8022" gradientTransform="matrix(1.2 0 0 -1.1401 -24.0497 233.3142)" gradientUnits="userSpaceOnUse">
			<stop  offset="0" style="stop-color:#595959"/>
			<stop  offset="0.9922" style="stop-color:#372F30"/>
		</radialGradient>
		<polygon style="fill-rule:evenodd;clip-rule:evenodd;fill:url(#SVGID_7_);" points="46.931,3.159 48.31,52.059 10.63,52.059 
			12.25,3.159 		"/>
		
			<linearGradient id="SVGID_8_" gradientUnits="userSpaceOnUse" x1="148.1475" y1="76.6289" x2="191.8429" y2="76.6289" gradientTransform="matrix(0.7408 0.944 -0.944 0.7408 -24.0498 -188.9002)">
			<stop  offset="0" style="stop-color:#EAE3DD"/>
			<stop  offset="1" style="stop-color:#CCC5C0"/>
		</linearGradient>
		<polygon style="fill-rule:evenodd;clip-rule:evenodd;fill:url(#SVGID_8_);" points="45.67,4.239 46.869,50.739 12.07,50.739 
			13.45,4.239 		"/>
		
			<radialGradient id="SVGID_9_" cx="44.5996" cy="180.1992" r="15.5131" gradientTransform="matrix(1.2 0 0 -1.1787 -24.0497 239.7433)" gradientUnits="userSpaceOnUse">
			<stop  offset="0" style="stop-color:#595959"/>
			<stop  offset="0.9922" style="stop-color:#282222"/>
		</radialGradient>
		<polygon style="fill-rule:evenodd;clip-rule:evenodd;fill:url(#SVGID_9_);" points="15.37,6.219 43.75,6.219 44.71,48.459 
			14.23,48.459 		"/>
		
			<use xlink:href="#FlashAICB_x5F_0_x2F_Layer_1_x2F__x3C_Path_x3E__x5F_14"  width="19.907" height="19.6" x="-0.003" y="-19.6" transform="matrix(1.2 0 0 -1.2 17.6001 10.2002)" style="overflow:visible;opacity:0.2383;enable-background:new    ;"/>
		<path style="fill-rule:evenodd;clip-rule:evenodd;" d="M21.25,12.28c2.32-2.241,5.08-3.361,8.281-3.361
			c3.239,0,6.02,1.121,8.338,3.361c2.36,2.239,3.561,4.959,3.601,8.16c0.081,3.28-1.06,6.08-3.42,8.4
			c-2.32,2.36-5.159,3.541-8.519,3.541c-3.361,0-6.201-1.181-8.521-3.541c-2.32-2.32-3.459-5.12-3.419-8.4
			C17.67,17.239,18.89,14.519,21.25,12.28z"/>
		
			<radialGradient id="SVGID_10_" cx="168.749" cy="-44.7446" r="15.6875" gradientTransform="matrix(3.824692e-005 1.2 1.2631 3.824692e-005 86.1613 -188.8967)" gradientUnits="userSpaceOnUse">
			<stop  offset="0" style="stop-color:#00F800"/>
			<stop  offset="1" style="stop-color:#007300"/>
		</radialGradient>
		<path style="fill-rule:evenodd;clip-rule:evenodd;fill:url(#SVGID_10_);" d="M21.19,12.939c2.32-2.241,5.1-3.36,8.34-3.36
			c3.239,0,6.02,1.119,8.338,3.36c2.36,2.239,3.561,4.959,3.601,8.16c0.081,3.32-1.06,6.139-3.42,8.459
			c-2.32,2.36-5.18,3.54-8.58,3.54c-3.36,0-6.199-1.18-8.52-3.54c-2.281-2.32-3.4-5.14-3.36-8.459
			C17.67,17.899,18.87,15.179,21.19,12.939z"/>
		<path style="fill-rule:evenodd;clip-rule:evenodd;fill:#00FA65;" d="M29.65,21.639l-0.119-0.06c-0.361,0.04-0.62,0.259-0.781,0.66
			c-0.12,0.36-0.1,0.7,0.06,1.02c0.4-0.12,0.721-0.1,0.959,0.06c0.24,0.201,0.341,0.421,0.3,0.661
			c-0.08,0.28-0.32,0.419-0.719,0.419c-0.04,0.08-0.1,0.08-0.181,0c-0.159,0-0.359-0.08-0.6-0.24c-0.239-0.159-0.42-0.34-0.539-0.54
			c-0.361-0.6-0.381-1.22-0.061-1.86c0.28-0.56,0.741-0.959,1.38-1.2l-0.48-1.5c-1.6,0.64-2.4,1.66-2.4,3.06
			c0.041,0.92,0.46,1.68,1.261,2.28c0.88,0.68,1.86,0.88,2.939,0.6L29.65,21.639z M32.35,22.779c-0.039-0.4-0.22-0.74-0.54-1.021
			c-0.399-0.32-0.84-0.459-1.319-0.419l0.9,3.24C32.109,24.179,32.43,23.579,32.35,22.779z M28.45,17.559l-0.12-0.479
			c-0.641-1.44-0.62-2.821,0.06-4.14c0.12-0.28,0.34-0.541,0.66-0.781c0.32-0.28,0.64-0.419,0.959-0.419
			c0.4-0.04,0.78,0.14,1.141,0.541c0.279,0.32,0.48,0.68,0.6,1.079c0.48,1.4,0.2,2.841-0.84,4.321c-0.08,0.159-0.46,0.459-1.141,0.9
			l0.48,1.739c1-0.04,1.82,0.26,2.46,0.9c0.721,0.681,0.939,1.5,0.659,2.461c-0.319,0.88-0.899,1.459-1.738,1.739
			c0.279,0.88,0.279,1.681,0,2.4c-0.28,0.761-0.92,1.2-1.921,1.321c-1,0.12-1.72-0.121-2.16-0.721c-0.36-0.36-0.461-0.799-0.3-1.319
			c0.201-0.439,0.6-0.68,1.2-0.72c0.64-0.081,1.04,0.12,1.2,0.6c0.32,0.72,0,1.18-0.959,1.379c0.36,0.2,0.779,0.24,1.26,0.121
			c0.48-0.121,0.8-0.341,0.96-0.661c0.279-0.519,0.279-1.22,0-2.1c-1.44,0.44-2.72,0.32-3.84-0.36c-1-0.6-1.6-1.48-1.8-2.64
			C24.91,20.68,25.97,18.959,28.45,17.559z M29.291,13.959c-0.441,1-0.421,2.08,0.06,3.24c1.24-0.64,1.74-1.661,1.5-3.06
			c-0.119-0.76-0.379-1.12-0.78-1.08C29.831,13.139,29.57,13.438,29.291,13.959z"/>
		
			<linearGradient id="SVGID_11_" gradientUnits="userSpaceOnUse" x1="-186.5054" y1="-7.0137" x2="-176.0411" y2="-7.0137" gradientTransform="matrix(-0.3403 -1.1507 1.1507 -0.3403 -24.0506 -188.8986)">
			<stop  offset="0" style="stop-color:#006602"/>
			<stop  offset="1" style="stop-color:#005E00"/>
		</linearGradient>
		<path style="fill-rule:evenodd;clip-rule:evenodd;fill:url(#SVGID_11_);" d="M29.47,21.519h-0.12c-0.36,0-0.6,0.201-0.72,0.6
			c-0.16,0.401-0.141,0.741,0.06,1.021c0.32-0.121,0.62-0.08,0.9,0.12c0.28,0.2,0.38,0.421,0.3,0.66
			c-0.08,0.28-0.32,0.421-0.721,0.421H28.99l-0.6-0.24c-0.2-0.12-0.379-0.32-0.54-0.6c-0.36-0.6-0.38-1.22-0.06-1.86
			c0.28-0.52,0.739-0.92,1.379-1.2l-0.419-1.44c-1.639,0.64-2.459,1.661-2.459,3.06c0.04,0.88,0.459,1.621,1.26,2.221
			c0.88,0.64,1.859,0.839,2.94,0.6L29.47,21.519z M32.17,22.659c0-0.36-0.18-0.7-0.539-1.02c-0.361-0.32-0.801-0.46-1.321-0.42
			l0.9,3.24C31.931,24.099,32.25,23.499,32.17,22.659z M28.27,17.499l-0.12-0.48c-0.64-1.48-0.6-2.879,0.12-4.2
			c0.361-0.72,0.9-1.119,1.621-1.2c0.719-0.04,1.299,0.521,1.741,1.681c0.439,1.44,0.139,2.86-0.9,4.26
			c-0.081,0.16-0.461,0.46-1.14,0.9l0.479,1.74c1.001-0.04,1.82,0.26,2.461,0.9c0.72,0.68,0.94,1.5,0.66,2.459
			c-0.32,0.88-0.9,1.46-1.74,1.74c0.28,0.88,0.28,1.701,0,2.46c-0.28,0.721-0.92,1.16-1.919,1.321
			c-0.961,0.12-1.681-0.121-2.161-0.721c-0.36-0.479-0.439-0.92-0.239-1.32c0.199-0.48,0.6-0.74,1.2-0.78s0.979,0.181,1.139,0.66
			c0.32,0.681,0,1.121-0.96,1.321c0.36,0.199,0.781,0.24,1.26,0.12c0.48-0.12,0.801-0.34,0.961-0.66c0.28-0.521,0.28-1.22,0-2.1
			c-1.44,0.439-2.7,0.34-3.78-0.3c-1.04-0.64-1.661-1.54-1.86-2.7c-0.161-1.081,0.12-2.12,0.84-3.12
			C26.49,18.679,27.27,18.02,28.27,17.499z M29.169,13.899c-0.479,1.04-0.459,2.12,0.061,3.24c1.24-0.64,1.739-1.66,1.5-3.06
			c-0.121-0.8-0.4-1.18-0.84-1.14C29.61,13.019,29.37,13.339,29.169,13.899z"/>
		
			<use xlink:href="#FlashAICB_x5F_0_x2F_Layer_1_x2F__x3C_Path_x3E__x5F_11"  width="12.5" height="8.45" y="-8.45" transform="matrix(1.2 0 0 -1.2 21.9502 36.5498)" style="overflow:visible;opacity:0.3008;enable-background:new    ;"/>
		
			<linearGradient id="SVGID_12_" gradientUnits="userSpaceOnUse" x1="38.3496" y1="191.8496" x2="50.8496" y2="191.8496" gradientTransform="matrix(1.2 0 0 1.2 -24.0497 -188.9003)">
			<stop  offset="0" style="stop-color:#FFD852"/>
			<stop  offset="0.1529" style="stop-color:#FFEE4F"/>
			<stop  offset="0.3686" style="stop-color:#F4AC3C"/>
			<stop  offset="0.6549" style="stop-color:#C99104"/>
			<stop  offset="0.8157" style="stop-color:#FFB34A"/>
			<stop  offset="1" style="stop-color:#EDED74"/>
		</linearGradient>
		<path style="fill-rule:evenodd;clip-rule:evenodd;fill:url(#SVGID_12_);" d="M24.13,46.358c0-0.64-0.18-1.199-0.54-1.679
			c-0.401-0.48-0.94-0.741-1.621-0.78l0.061-5.281c0.68-0.039,1.24-0.3,1.679-0.779c0.36-0.44,0.56-0.959,0.6-1.56h10.259
			c0.041,0.64,0.24,1.181,0.601,1.62c0.4,0.48,0.961,0.719,1.68,0.719h0.061l0.06,5.281l-0.06-0.061c-0.72,0-1.3,0.28-1.74,0.841
			c-0.4,0.479-0.58,1.039-0.539,1.679H24.13z"/>
		<path style="fill-rule:evenodd;clip-rule:evenodd;fill:#CF7923;" d="M22.87,39.039l-0.06,4.38c1.24,0.16,1.9,0.94,1.98,2.34h9.179
			c0.081-0.68,0.3-1.24,0.661-1.68c0.439-0.4,0.939-0.619,1.5-0.66v-4.38c-1.281-0.12-2.001-0.82-2.161-2.1h-9.06
			C24.75,38.219,24.07,38.919,22.87,39.039z M24.07,44.439c-0.36-0.48-0.859-0.741-1.5-0.78l0.061-4.86c0.64,0,1.139-0.22,1.5-0.659
			c0.36-0.401,0.539-0.881,0.539-1.44h9.481c0.079,1.4,0.8,2.1,2.159,2.1h0.06v4.86h-0.06c-0.68,0-1.22,0.24-1.619,0.721
			c-0.36,0.439-0.521,0.979-0.48,1.619h-9.66C24.55,45.359,24.39,44.839,24.07,44.439z"/>
		<g>
			<path style="fill-rule:evenodd;clip-rule:evenodd;fill:#FFFFFF;" d="M31.99,38.979c0.76,0.6,1.18,1.459,1.26,2.579
				c0,1.12-0.439,2.001-1.319,2.641c-0.44,0.359-0.88,0.6-1.321,0.72c-0.399,0.12-1.019,0.18-1.859,0.18h-1.62v-7.02h1.68
				c0.76,0,1.38,0.061,1.86,0.18C31.11,38.38,31.55,38.618,31.99,38.979z M28.331,39.039v5.101h0.539
				c0.521,0,0.961-0.061,1.321-0.181c0.319-0.12,0.64-0.3,0.96-0.54c0.6-0.479,0.899-1.1,0.899-1.86c0-0.759-0.3-1.379-0.899-1.859
				c-0.561-0.439-1.32-0.66-2.281-0.66H28.331z"/>
			
				<linearGradient id="SVGID_13_" gradientUnits="userSpaceOnUse" x1="-189.105" y1="-64.1523" x2="-182.6469" y2="-64.1523" gradientTransform="matrix(-0.6364 -1.0173 1.0173 -0.6364 -24.0501 -188.9012)">
				<stop  offset="0" style="stop-color:#975300"/>
				<stop  offset="0.9922" style="stop-color:#813E00"/>
			</linearGradient>
			<path style="fill-rule:evenodd;clip-rule:evenodd;fill:url(#SVGID_13_);" d="M28.15,38.858v5.101h0.541
				c0.52,0,0.959-0.06,1.319-0.18c0.32-0.12,0.64-0.3,0.96-0.54c0.6-0.48,0.899-1.101,0.899-1.859c0-0.761-0.3-1.381-0.899-1.861
				c-0.52-0.439-1.28-0.66-2.279-0.66H28.15z M28.63,37.899c0.76,0,1.379,0.06,1.86,0.18c0.521,0.12,0.96,0.36,1.319,0.72
				c0.841,0.68,1.26,1.54,1.26,2.581c0,1.119-0.419,1.999-1.26,2.639c-0.399,0.361-0.86,0.6-1.379,0.721
				c-0.401,0.119-1.021,0.18-1.861,0.18h-1.62l0.06-7.02H28.63z"/>
		</g>
		
			<use xlink:href="#FlashAICB_x5F_0_x2F_Layer_1_x2F__x3C_Path_x3E__x5F_9"  width="26.3" height="17.65" y="-17.65" transform="matrix(1.2 0 0 -1.2 13.5498 4.8999)" style="overflow:visible;opacity:0.1992;enable-background:new    ;"/>
		
			<linearGradient id="SVGID_14_" gradientUnits="userSpaceOnUse" x1="-204.0449" y1="44.7061" x2="-202.7449" y2="44.7061" gradientTransform="matrix(9.230744e-004 -1.2 1.2 -0.0012 -24.0498 -188.8999)">
			<stop  offset="0" style="stop-color:#341706"/>
			<stop  offset="1" style="stop-color:#7E3F1B"/>
		</linearGradient>
		<rect x="7.81" y="54.039" style="fill-rule:evenodd;clip-rule:evenodd;fill:url(#SVGID_14_);" width="43.2" height="1.44"/>
		<path style="fill-rule:evenodd;clip-rule:evenodd;fill:#663214;" d="M12.37,54.459c0.041,0-0.02-0.38-0.179-1.141l0.779-0.3
			l0.84-0.119l0.3,1.38c0.161,0.56,0.38,0.96,0.66,1.2c-0.399,0.28-0.68,0.42-0.839,0.42l-0.84-0.48L12.37,54.459z"/>
		<polygon style="fill-rule:evenodd;clip-rule:evenodd;fill:#C66630;" points="11.41,54.219 10.03,53.14 11.11,52.899 13.81,52.899 
			12.97,53.14 		"/>
		<path style="fill-rule:evenodd;clip-rule:evenodd;fill:#7E3F1B;" d="M13.931,55.899H10.03c-0.12-0.12-0.22-0.4-0.3-0.841
			c-0.04-0.319,0-0.739,0.12-1.26l0.18-0.659h3.061l0.06,1.02C13.27,54.959,13.53,55.539,13.931,55.899z"/>
		<path style="fill-rule:evenodd;clip-rule:evenodd;fill:#9F5025;" d="M46.75,54.459c0.08,0.04-0.16,0.359-0.72,0.96l-0.78,0.48
			l-0.9-0.42c0.28-0.24,0.521-0.641,0.72-1.2l0.24-1.38l0.841,0.119l0.78,0.3L46.75,54.459z"/>
		<polygon style="fill-rule:evenodd;clip-rule:evenodd;fill:#C66630;" points="47.77,54.219 46.15,53.14 45.31,52.899 48.01,52.899 
			49.15,53.14 		"/>
		<path style="fill-rule:evenodd;clip-rule:evenodd;fill:#7E3F1B;" d="M45.25,55.899c0.399-0.36,0.66-0.94,0.78-1.74v-1.02h3.12
			l0.18,0.659c0.12,0.521,0.16,0.94,0.12,1.26c-0.08,0.44-0.181,0.721-0.3,0.841H45.25z"/>
	</g>
</g>
</svg>
