<?xml version="1.0" encoding="iso-8859-1"?>
<!-- Generator: Adobe Illustrator 15.1.0, SVG Export Plug-In . SVG Version: 6.00 Build 0)  -->
<!DOCTYPE svg PUBLIC "-//W3C//DTD SVG 1.1//EN" "http://www.w3.org/Graphics/SVG/1.1/DTD/svg11.dtd">
<svg version="1.1" id="FlashAICB" xmlns="http://www.w3.org/2000/svg" xmlns:xlink="http://www.w3.org/1999/xlink" x="0px" y="0px"
	 width="47.35px" height="48.35px" viewBox="0 0 47.35 48.35" style="enable-background:new 0 0 47.35 48.35;" xml:space="preserve"
	>
<g>
	<g>
		
			<radialGradient id="SVGID_1_" cx="24.75" cy="44.2002" r="22.35" gradientTransform="matrix(1 0 0 -0.1834 0 52.3085)" gradientUnits="userSpaceOnUse">
			<stop  offset="0.1882" style="stop-color:#000000;stop-opacity:0.9294"/>
			<stop  offset="0.8235" style="stop-color:#000000;stop-opacity:0"/>
		</radialGradient>
		<path style="fill-rule:evenodd;clip-rule:evenodd;fill:url(#SVGID_1_);" d="M47.35,43.3c0,1.4-2.316,2.601-6.949,3.601
			C35.8,47.866,30.233,48.35,23.7,48.35c-6.567,0-12.15-0.483-16.75-1.449C2.317,45.9,0,44.7,0,43.3c0-1.399,2.317-2.583,6.95-3.55
			c4.6-1,10.183-1.5,16.75-1.5c6.533,0,12.1,0.5,16.7,1.5C45.033,40.717,47.35,41.9,47.35,43.3z"/>
	</g>
	<g>
		
			<linearGradient id="SVGID_2_" gradientUnits="userSpaceOnUse" x1="18.9409" y1="-26.5708" x2="46.4783" y2="-26.5708" gradientTransform="matrix(0.3549 0.9349 -0.9349 0.3549 4.100800e-004 1.770556e-004)">
			<stop  offset="0" style="stop-color:#4D7C93"/>
			<stop  offset="1" style="stop-color:#314B57"/>
		</linearGradient>
		<path style="fill-rule:evenodd;clip-rule:evenodd;fill:url(#SVGID_2_);" d="M35.55,15.55l-0.6-0.25L34.6,14.85
			c-0.166-0.233-0.283-0.6-0.35-1.1c-0.033-0.367-0.083-0.633-0.15-0.8l-0.25-0.5c-0.199-0.833-0.649-1.4-1.35-1.7
			c-0.733-0.1-1.25-0.183-1.55-0.25c-0.134,0-0.25,0.017-0.351,0.05v-0.3V10c0.233-0.3,1.084-0.8,2.551-1.5
			C33.717,8.233,34.6,7.75,35.8,7.05c0.134,0.333,0.316,0.617,0.55,0.85c0.134,0.133,0.284,0.233,0.45,0.3
			c0.334,0.133,0.75,0.05,1.25-0.25c0.767-0.5,1.084-0.867,0.95-1.1c-0.167-0.267-0.217-0.45-0.15-0.55
			c0.301-0.333,0.667-0.933,1.101-1.8c0.267-0.167,0.55-0.35,0.85-0.55c0.733-0.5,1.3-1.034,1.7-1.6c0.533,0.5,0.917,1.167,1.15,2
			V4.6c0.166,1.033,0.25,4.117,0.25,9.25c0.033,3.233,0.033,5.767,0,7.6l-0.2-0.2c-0.5,0-0.95,0.033-1.351,0.1
			c-0.1,0-0.183,0.017-0.25,0.05c-0.433,0.133-0.699,0.467-0.8,1c-0.066,0.233-0.1,0.717-0.1,1.45c0,0.566-0.017,0.9-0.05,1
			c-0.067,0.2-0.267,0.466-0.601,0.8c-0.267,0.399-0.434,0.85-0.5,1.35C40.017,27.167,40,27.65,40,28.45
			c0,0.133-0.017,0.383-0.05,0.75c-0.033,0.333,0,0.566,0.1,0.7l0.05,0.05c-0.366,0.233-0.733,0.5-1.1,0.8
			c-0.134,0.1-0.25,0.2-0.35,0.3c-1.867,1.4-3.2,2.283-4,2.65c-0.434,0.233-1.467,0.633-3.101,1.2c-1.5,0.533-2.517,0.866-3.05,1
			h-0.05c0.033-0.034,0.05-0.067,0.05-0.101c0.066-0.133,0.134-0.25,0.2-0.35c0.533-0.601,0.95-1.267,1.25-2
			c0.133-0.3,0.2-0.733,0.2-1.3C30.116,31.55,30.1,31.116,30.1,30.85L30.15,30.2c0-0.066,0-0.117,0-0.15h0.05V30l0.05-0.05
			c0.033-0.033,0.066-0.066,0.1-0.101L30.7,29.8c0.033,0,0.267-0.133,0.7-0.399l0.25-0.15l0.85-0.75c0.2-0.2,0.55-0.85,1.05-1.95
			c0.101-0.133,0.2-0.35,0.3-0.649l0.5-0.801c0.067-0.2,0.267-0.333,0.601-0.399c0.3-0.067,0.75-0.1,1.35-0.1h1.75l0.4-0.3
			c0.3-0.267,0.533-0.783,0.7-1.55c0.1-0.167,0.199-0.3,0.3-0.4l0.75-1c0.1-0.033,0.217-0.05,0.35-0.05c0.233,0,0.45-0.05,0.65-0.15
			l0.55-0.25c0.333-0.233,0.517-0.467,0.55-0.7c0.134-0.133,0.233-0.367,0.3-0.7c0.034-0.367,0.017-0.633-0.05-0.8
			c-0.066-0.133-0.184-0.25-0.35-0.35h-0.05c-0.101-0.033-0.2-0.067-0.301-0.1H41.8c-0.066-0.033-0.116-0.05-0.149-0.05l-0.15-0.05
			h-0.05c-0.101-0.066-0.184-0.117-0.25-0.15c-0.066-0.1-0.15-0.233-0.25-0.4c-0.101-0.2-0.15-0.6-0.15-1.2c0-0.3-0.033-0.5-0.1-0.6
			c0-0.033-0.033-0.066-0.101-0.1c-0.066-0.1-0.166-0.184-0.3-0.25c-0.533-0.2-0.934-0.4-1.2-0.6L39,14.8
			c-0.233-0.167-0.467-0.267-0.7-0.3c-0.333-0.033-0.666,0.05-1,0.25c-0.333,0.267-0.616,0.45-0.85,0.55
			c-0.033,0-0.05,0.017-0.05,0.05c-0.101,0-0.184,0.017-0.25,0.05l-0.25,0.1C35.767,15.5,35.65,15.517,35.55,15.55z"/>
		<path style="fill-rule:evenodd;clip-rule:evenodd;fill:#BEF0FE;" d="M39.95,4.5C38.65,5.3,37.533,6,36.6,6.6
			c-0.267,0.167-0.533,0.316-0.8,0.45c-1.2,0.7-2.083,1.184-2.649,1.45C31.684,9.2,30.833,9.7,30.6,10v0.25h-0.1
			c-0.366,0-0.733,0.05-1.1,0.15H29.35c-0.033,0-0.066,0.017-0.1,0.05c-0.1,0-0.184,0.017-0.25,0.05v-0.2l-6.35-0.95
			C20.983,9.117,18.2,8.767,14.3,8.3C9.967,7.767,7.433,7.483,6.7,7.45c-1.067-0.034-1.983-0.133-2.75-0.3
			c0.267-0.1,0.767-0.167,1.5-0.2c1.5-0.1,3.433,0,5.8,0.3c3.8,0.5,9.333,1.083,16.6,1.75c1.134,0.133,2.167,0,3.101-0.4
			c0.467-0.2,1.899-0.95,4.3-2.25c0.1-0.067,0.217-0.133,0.35-0.2c0,0.033,0.017,0.067,0.051,0.1c0,0.067,0,0.15,0,0.25v0.05
			c0,0.1,0,0.233,0,0.4c0.033-0.034,0.066-0.05,0.1-0.05c0.333-0.2,0.684-0.417,1.05-0.65c0.967-0.567,2.017-1.183,3.15-1.85L40,3.8
			c-0.5,0.3-0.884,0.5-1.15,0.6c0.5-0.267,1-0.533,1.5-0.8c0.7-0.4,1.417-0.817,2.15-1.25c-0.4,0.566-0.967,1.1-1.7,1.6
			C40.5,4.15,40.217,4.333,39.95,4.5z M6.55,17.5c0.434,0.133,0.784,0.45,1.05,0.95C8,19.15,8.2,20,8.2,21
			c-0.034,0.9-0.317,1.567-0.85,2C6.75,23.467,6,23.517,5.1,23.15c-0.6-0.267-0.95-0.8-1.05-1.6c0.1,0.7,0.434,1.167,1,1.4
			c0.9,0.367,1.633,0.333,2.2-0.1c0.567-0.434,0.85-1.083,0.85-1.95c0-0.967-0.184-1.783-0.55-2.45
			C7.283,17.983,6.95,17.667,6.55,17.5z"/>
		<path style="fill-rule:evenodd;clip-rule:evenodd;fill:#6B9EB2;" d="M40.4,3.45c0.033-0.267,0-0.534-0.101-0.8
			c-0.1-0.333-0.316-0.6-0.649-0.8c0.866,0.066,1.316,0.3,1.35,0.7C41.033,2.783,40.95,3,40.75,3.2L40.4,3.45z M9.9,4.7
			C9.916,4.747,9.94,4.797,9.975,4.85C10.021,4.897,10.079,4.947,10.15,5l0.1,0.05c0.1,0.067,0.233,0.117,0.4,0.15
			c0.633,0.133,1.934,0.233,3.9,0.3c2,0.033,3.4,0.133,4.2,0.3c0.8,0.133,1.733,0.417,2.8,0.85c1.1,0.467,1.983,0.75,2.65,0.85
			c1.5,0.267,3.383-0.05,5.649-0.95C30.65,6.25,31.7,6.067,33,6c0.967-0.033,1.767-0.017,2.4,0.05c0.066,0,0.133,0.017,0.199,0.05
			v0.05c-0.133,0.067-0.25,0.133-0.35,0.2C34.684,6.383,33.8,6.467,32.6,6.6c-0.133,0.033-1.1,0.283-2.899,0.75
			c-1.233,0.333-2.55,0.483-3.95,0.45c-1.366-0.033-2.384-0.183-3.05-0.45c-1.233-0.533-1.95-0.833-2.15-0.9
			C19.583,6.183,18.1,6,16.1,5.9c-2.267-0.033-3.9-0.083-4.9-0.15c-1.233-0.067-1.817-0.267-1.75-0.6L9.9,4.7z"/>
		
			<linearGradient id="SVGID_3_" gradientUnits="userSpaceOnUse" x1="3.9644" y1="4.54" x2="42.5039" y2="4.54" gradientTransform="matrix(1 0.002 -0.002 1 -1.902177e-004 2.093473e-004)">
			<stop  offset="0" style="stop-color:#A8E0F1"/>
			<stop  offset="1" style="stop-color:#87C9DD"/>
		</linearGradient>
		<path style="fill-rule:evenodd;clip-rule:evenodd;fill:url(#SVGID_3_);" d="M40.35,3.6c0-0.067,0.017-0.117,0.051-0.15l0.35-0.25
			C40.95,3,41.033,2.783,41,2.55c-0.033-0.4-0.483-0.633-1.35-0.7C39.483,1.717,39.3,1.617,39.1,1.55c0.233,0,0.467,0.017,0.7,0.05
			c1.5,0.167,2.4,0.417,2.7,0.75C41.767,2.783,41.05,3.2,40.35,3.6z M9.95,4.55C9.917,4.583,9.9,4.633,9.9,4.7L9.45,5.15
			c-0.067,0.333,0.517,0.533,1.75,0.6c1,0.067,2.633,0.117,4.9,0.15c2,0.1,3.483,0.283,4.45,0.55c0.2,0.066,0.917,0.367,2.15,0.9
			c0.666,0.267,1.684,0.417,3.05,0.45c1.4,0.034,2.717-0.117,3.95-0.45c1.8-0.467,2.767-0.717,2.899-0.75
			c1.2-0.133,2.084-0.217,2.65-0.25c-2.4,1.3-3.833,2.05-4.3,2.25C30.017,9,28.983,9.133,27.85,9c-7.266-0.667-12.8-1.25-16.6-1.75
			c-2.367-0.3-4.3-0.4-5.8-0.3c-0.733,0.033-1.233,0.1-1.5,0.2c0.3-0.467,0.566-0.783,0.8-0.95c1.433-0.967,3.483-2.133,6.15-3.5
			c3.2-1.633,5.383-2.483,6.55-2.55h0.5c0.966-0.033,2.033-0.033,3.2,0c-1.133,0.2-2.083,0.35-2.85,0.45
			c-0.6,0.1-1.383,0.316-2.35,0.65c-1.133,0.433-1.833,0.8-2.1,1.1c-0.2,0.2-0.434,0.283-0.7,0.25c-0.333-0.067-0.683,0-1.05,0.2
			c-0.934,0.567-1.55,0.983-1.85,1.25c-0.067,0.067-0.117,0.117-0.15,0.15c-0.033,0.066-0.067,0.117-0.1,0.15
			C9.967,4.417,9.95,4.483,9.95,4.55z"/>
		<path style="fill-rule:evenodd;clip-rule:evenodd;fill:#334F5C;" d="M41.2,18c-0.066-0.033-0.117-0.05-0.15-0.05
			c-0.033-0.034-0.083-0.067-0.149-0.1l-0.176-0.175c-0.38-0.394-0.521-0.769-0.425-1.125c0.167-0.267,0.267-0.466,0.3-0.6
			c0.034-0.1,0.034-0.184,0-0.25c0.067,0.033,0.101,0.066,0.101,0.1c0.066,0.1,0.1,0.3,0.1,0.6c0,0.6,0.05,1,0.15,1.2
			C41.05,17.767,41.134,17.9,41.2,18z M40.2,21.35c0.066-0.1,0.133-0.184,0.2-0.25c0.267-0.267,0.466-0.434,0.6-0.5
			c0.066-0.033,0.283-0.067,0.65-0.1c0.3-0.067,0.517-0.167,0.649-0.3c-0.033,0.233-0.217,0.466-0.55,0.7l-0.55,0.25
			c-0.2,0.1-0.417,0.15-0.65,0.15C40.417,21.3,40.3,21.317,40.2,21.35z M30.35,29.85c0.101-0.1,0.217-0.25,0.351-0.449
			c0.566-0.467,0.934-0.884,1.1-1.25c0.3-0.767,0.55-1.317,0.75-1.65c0.134-0.2,0.316-0.55,0.55-1.05
			c0.2-0.467,0.434-0.784,0.7-0.95c0.334-0.267,0.867-0.4,1.601-0.4h2c0.466,0,0.8-0.083,1-0.25c0.1-0.1,0.3-0.4,0.6-0.9l0.1-0.1
			c0-0.033,0.017-0.067,0.051-0.1c-0.167,0.767-0.4,1.283-0.7,1.55l-0.4,0.3H36.3c-0.6,0-1.05,0.033-1.35,0.1
			c-0.334,0.066-0.533,0.2-0.601,0.399l-0.5,0.801c-0.1,0.3-0.199,0.517-0.3,0.649c-0.5,1.101-0.85,1.75-1.05,1.95l-0.85,0.75
			L31.4,29.4c-0.434,0.267-0.667,0.399-0.7,0.399L30.35,29.85z M35.55,15.55c-0.087,0.029-0.171,0.046-0.25,0.05H35.15
			c-0.134,0-0.25,0-0.351,0l-0.25-0.05c-0.066-0.033-0.116-0.066-0.149-0.1c-0.034-0.034-0.067-0.05-0.101-0.05
			C34,15.2,33.9,14.633,34,13.7c0-0.467-0.05-0.883-0.15-1.25l0.25,0.5c0.067,0.167,0.117,0.433,0.15,0.8
			c0.066,0.5,0.184,0.867,0.35,1.1l0.351,0.45L35.55,15.55z"/>
		
			<linearGradient id="SVGID_4_" gradientUnits="userSpaceOnUse" x1="16.2637" y1="20.2163" x2="42.6137" y2="20.2163" gradientTransform="matrix(1 0.0019 -0.0019 1 1.743834e-004 2.382018e-004)">
			<stop  offset="0" style="stop-color:#83A35C"/>
			<stop  offset="1" style="stop-color:#527524"/>
		</linearGradient>
		<path style="fill-rule:evenodd;clip-rule:evenodd;fill:url(#SVGID_4_);" d="M39.15,22.75c-0.034,0.033-0.051,0.067-0.051,0.1
			l-0.1,0.1c-0.3,0.5-0.5,0.8-0.6,0.9c-0.2,0.167-0.534,0.25-1,0.25h-2c-0.733,0-1.267,0.133-1.601,0.4
			c-0.267,0.167-0.5,0.483-0.7,0.95c-0.233,0.5-0.416,0.85-0.55,1.05c-0.2,0.333-0.45,0.884-0.75,1.65
			c-0.166,0.366-0.533,0.783-1.1,1.25c-0.134,0.199-0.25,0.35-0.351,0.449c-0.033,0.034-0.066,0.067-0.1,0.101L30.2,30v0.05h-0.05
			c0.133-3.133,0.216-5.533,0.25-7.2l0.199-12.3c0.101-0.033,0.217-0.05,0.351-0.05c0.3,0.067,0.816,0.15,1.55,0.25
			c0.7,0.3,1.15,0.867,1.35,1.7C33.95,12.817,34,13.233,34,13.7c-0.1,0.933,0,1.5,0.3,1.7c0.033,0,0.066,0.017,0.101,0.05v0.05
			l0.399,0.3c0.167,0.067,0.467,0.1,0.9,0.1c0.5,0.033,1.033-0.083,1.6-0.35c0.233-0.1,0.55-0.316,0.95-0.65
			c0.134-0.066,0.333-0.1,0.6-0.1l0.25,0.05c0.267,0.2,0.667,0.4,1.2,0.6c0.134,0.066,0.233,0.15,0.3,0.25
			c0.034,0.066,0.034,0.15,0,0.25c-0.033,0.133-0.133,0.333-0.3,0.6c-0.097,0.356,0.045,0.731,0.425,1.125L40.6,17.55
			c0,0.3,0.184,0.534,0.551,0.7c0.166,0.067,0.449,0.1,0.85,0.1h0.15h0.05c0.166,0.1,0.283,0.217,0.35,0.35
			c0.066,0.167,0.084,0.433,0.05,0.8c-0.066,0.333-0.166,0.567-0.3,0.7c-0.133,0.133-0.35,0.233-0.649,0.3
			c-0.367,0.033-0.584,0.067-0.65,0.1c-0.134,0.066-0.333,0.233-0.6,0.5c-0.067,0.066-0.134,0.15-0.2,0.25l-0.75,1
			C39.35,22.45,39.25,22.583,39.15,22.75z"/>
		<path style="fill-rule:evenodd;clip-rule:evenodd;fill:#7FAA49;" d="M41.05,17.95L41.1,18c0.101,0.033,0.217,0.083,0.351,0.15
			h0.05l0.15,0.05c0.033,0,0.083,0.017,0.149,0.05h0.05c0.101,0.033,0.2,0.067,0.301,0.1H42c-0.4,0-0.684-0.033-0.85-0.1
			c-0.367-0.167-0.551-0.4-0.551-0.7l0.125,0.125L40.9,17.85C40.967,17.883,41.017,17.917,41.05,17.95z M40.75,30
			c-0.3,0.134-0.517,0.116-0.65-0.05l-0.05-0.05c-0.1-0.134-0.133-0.367-0.1-0.7c0.033-0.367,0.05-0.617,0.05-0.75
			c0-0.8,0.017-1.283,0.05-1.45c0.066-0.5,0.233-0.95,0.5-1.35c0.334-0.334,0.533-0.601,0.601-0.8c0.033-0.1,0.05-0.434,0.05-1
			c0-0.733,0.033-1.217,0.1-1.45c0.101-0.533,0.367-0.867,0.8-1c0.067-0.033,0.15-0.05,0.25-0.05l-0.1,0.2l-0.15,0.1
			c-0.366,0.467-0.55,1.083-0.55,1.85c0.033,0.433,0.084,1.083,0.15,1.95l-0.05,0.05c-0.667,0.4-1.051,0.967-1.15,1.7
			c-0.033,0.267-0.033,0.517,0,0.75l-0.05,0.6c-0.167,0.601-0.084,1.066,0.25,1.4L40.75,30z M34.4,15.45
			c0.033,0.033,0.083,0.066,0.149,0.1l0.25,0.05c0.101,0,0.217,0,0.351,0H35.3c0.182-0.004,0.382-0.038,0.601-0.1l0.25-0.1
			c0.066-0.033,0.149-0.05,0.25-0.05c0-0.033,0.017-0.05,0.05-0.05c0.233-0.1,0.517-0.283,0.85-0.55c0.334-0.2,0.667-0.283,1-0.25
			c0.233,0.033,0.467,0.133,0.7,0.3l0.1,0.05l-0.25-0.05c-0.267,0-0.466,0.034-0.6,0.1c-0.4,0.333-0.717,0.55-0.95,0.65
			c-0.566,0.267-1.1,0.383-1.6,0.35c-0.434,0-0.733-0.033-0.9-0.1L34.4,15.5V15.45z"/>
		
			<linearGradient id="SVGID_5_" gradientUnits="userSpaceOnUse" x1="16.1387" y1="20.5703" x2="42.6387" y2="20.5703" gradientTransform="matrix(1 0.0019 -0.0019 1 1.302869e-004 -2.279738e-004)">
			<stop  offset="0" style="stop-color:#AFDA7B"/>
			<stop  offset="1" style="stop-color:#5D8428"/>
		</linearGradient>
		<path style="fill-rule:evenodd;clip-rule:evenodd;fill:url(#SVGID_5_);" d="M41.05,17.95c0.033,0,0.084,0.017,0.15,0.05
			s0.149,0.083,0.25,0.15C41.316,18.083,41.2,18.033,41.1,18L41.05,17.95z M17.05,21.5c-0.233-0.167-0.383-0.3-0.45-0.4
			c-0.167-0.167-0.267-0.4-0.3-0.7c0.034,0.133,0.1,0.317,0.2,0.55l-0.05-0.15l-0.05-0.3c0-0.233,0.117-0.7,0.35-1.4
			c-0.067,0-0.1-0.067-0.1-0.2c-0.066-0.267-0.066-0.533,0-0.8c0.067-0.3,0.2-0.583,0.4-0.85l0.65-0.5
			c0.233-0.167,0.367-0.267,0.4-0.3l0.15-0.2c0.167-0.333,0.283-0.433,0.35-0.3v0.4l0.05,0.3l1.1-1.2l0.15-0.3l0.3-0.45l1.65-1.5
			c0.2-0.1,0.417-0.15,0.65-0.15l1.2-0.2l0.25-0.1l0.5-0.35c0.666-0.333,1.083-0.517,1.25-0.55l0.45-0.05h2.399l0.5-0.25l0.05,1.1
			c0,0.633,0.084,1.533,0.25,2.7c0.067,2.667,0.067,5.316,0,7.95c0,2.167-0.033,4.101-0.1,5.8c-0.233,0-0.4,0-0.5,0
			c-0.467,0-0.75-0.033-0.85-0.1c-0.134-0.066-0.2-0.2-0.2-0.4c-0.033-0.267-0.05-0.416-0.05-0.449c0-0.067-0.134-0.101-0.4-0.101
			l-0.05-0.3l-0.15-0.1L26.8,27.35L26.45,27.2l-0.7-0.7l-1.55-0.85c-0.066-0.034-0.483-0.134-1.25-0.301
			c-0.567-0.066-0.967-0.149-1.2-0.25c-0.333-0.2-0.55-0.383-0.65-0.55l-0.35-1L20.7,23.5c-0.133-0.4-0.4-0.633-0.8-0.7
			c-0.867-0.133-1.733-0.5-2.6-1.1C17.2,21.633,17.117,21.567,17.05,21.5z M21.85,22.85c-0.033,1.2,0.4,1.983,1.3,2.35
			c1.1,0.399,2.017,0.35,2.75-0.15c0.699-0.466,1.05-1.2,1.05-2.2c0.033-1.1-0.184-2.033-0.65-2.8c-0.6-0.966-1.416-1.333-2.45-1.1
			H23.8L23.7,19c-1.034,0.5-1.583,1.267-1.65,2.3c-0.066,0.167-0.117,0.35-0.15,0.55C21.833,22.217,21.817,22.55,21.85,22.85z
			 M27.65,29.65c-0.134-0.067-0.233-0.184-0.301-0.351c0.101,0.2,0.25,0.334,0.45,0.4C27.733,29.7,27.684,29.684,27.65,29.65z
			 M35.3,15.6c0.079-0.004,0.163-0.021,0.25-0.05c0.101-0.033,0.217-0.05,0.351-0.05C35.682,15.563,35.481,15.596,35.3,15.6z"/>
		
			<linearGradient id="SVGID_6_" gradientUnits="userSpaceOnUse" x1="37.8125" y1="25.5215" x2="43.0125" y2="25.5215" gradientTransform="matrix(1 0.0024 -0.0024 1 2.222329e-004 2.021296e-004)">
			<stop  offset="0" style="stop-color:#83A35C"/>
			<stop  offset="1" style="stop-color:#527524"/>
		</linearGradient>
		<path style="fill-rule:evenodd;clip-rule:evenodd;fill:url(#SVGID_6_);" d="M43.9,21.45l0.25,0.25
			c-0.034,0.267-0.017,0.633,0.05,1.1l0.05,1.1c0,0.267,0,0.7,0,1.3c-0.033,0.533-0.15,0.967-0.35,1.3L43.6,26.9L43.4,27.4
			c-0.733,0.699-1.15,1.1-1.25,1.199c-0.233,0.2-0.334,0.351-0.301,0.45c0.034,0.101-0.083,0.233-0.35,0.4
			c-0.267,0.233-0.5,0.399-0.7,0.5c-0.033,0-0.05,0.017-0.05,0.05l-0.05-0.05c-0.334-0.334-0.417-0.8-0.25-1.4l0.05-0.6
			c-0.033-0.233-0.033-0.483,0-0.75c0.1-0.733,0.483-1.3,1.15-1.7l0.05-0.05c-0.066-0.867-0.117-1.517-0.15-1.95
			c0-0.767,0.184-1.383,0.55-1.85l0.15-0.1l0.1-0.2c0.4-0.067,0.851-0.1,1.351-0.1L43.9,21.45z"/>
		
			<linearGradient id="SVGID_7_" gradientUnits="userSpaceOnUse" x1="9.9102" y1="3.3979" x2="40.3602" y2="3.3979" gradientTransform="matrix(1 0.0021 -0.0021 1 -1.059524e-004 -1.544210e-004)">
			<stop  offset="0" style="stop-color:#FFFFFF"/>
			<stop  offset="1" style="stop-color:#D2F1FA"/>
		</linearGradient>
		<path style="fill-rule:evenodd;clip-rule:evenodd;fill:url(#SVGID_7_);" d="M10.1,4.2c0.033-0.034,0.083-0.083,0.15-0.15
			c0.3-0.267,0.917-0.683,1.85-1.25c0.367-0.2,0.717-0.267,1.05-0.2c0.267,0.033,0.5-0.05,0.7-0.25c0.267-0.3,0.967-0.667,2.1-1.1
			C16.917,0.917,17.7,0.7,18.3,0.6c0.767-0.1,1.717-0.25,2.85-0.45c0.033,0,0.067,0,0.1,0c1.1-0.133,2.417-0.183,3.95-0.15
			c1.399,0.033,3.233,0.183,5.5,0.45C33.533,0.783,35.6,1,36.9,1.1C37.8,1.167,38.533,1.317,39.1,1.55
			c0.2,0.067,0.384,0.167,0.551,0.3c0.333,0.2,0.55,0.467,0.649,0.8c0.101,0.267,0.134,0.533,0.101,0.8
			C40.366,3.483,40.35,3.533,40.35,3.6c-0.5,0.267-1,0.533-1.5,0.8c-0.433,0.133-0.783,0.267-1.05,0.4l-1.95,1.05
			c-0.466-0.233-1.1-0.383-1.899-0.45c-1.101-0.1-2.334,0.033-3.7,0.4c-1.434,0.467-2.483,0.767-3.15,0.9
			C26.2,6.867,25.384,6.933,24.65,6.9c-0.434,0-1.101-0.083-2-0.25c-0.533-0.1-1.2-0.35-2-0.75C19.717,5.467,19,5.167,18.5,5
			c-0.633-0.2-1.817-0.3-3.55-0.3c-2.167,0.033-3.35,0.033-3.55,0C10.6,4.667,10.167,4.5,10.1,4.2z M9.975,4.85
			C9.94,4.797,9.916,4.747,9.9,4.7c0-0.067,0.017-0.117,0.05-0.15C9.909,4.653,9.917,4.753,9.975,4.85z"/>
		<path style="fill-rule:evenodd;clip-rule:evenodd;fill:#FFFFFF;" d="M9.975,4.85C9.917,4.753,9.909,4.653,9.95,4.55
			c0-0.066,0.017-0.133,0.05-0.2c0.033-0.033,0.067-0.083,0.1-0.15c0.066,0.3,0.5,0.466,1.3,0.5c0.2,0.033,1.383,0.033,3.55,0
			c1.733,0,2.917,0.1,3.55,0.3c0.5,0.167,1.217,0.467,2.15,0.9c0.8,0.4,1.467,0.65,2,0.75c0.9,0.167,1.567,0.25,2,0.25
			c0.733,0.033,1.55-0.033,2.449-0.2c0.667-0.133,1.717-0.434,3.15-0.9c1.366-0.367,2.6-0.5,3.7-0.4
			c0.8,0.067,1.434,0.217,1.899,0.45L37.8,4.8c0.267-0.133,0.617-0.267,1.05-0.4C39.116,4.3,39.5,4.1,40,3.8l-0.05,0.6
			c-1.134,0.667-2.184,1.283-3.15,1.85c-0.366,0.233-0.717,0.45-1.05,0.65c-0.033,0-0.066,0.017-0.1,0.05c0-0.167,0-0.3,0-0.4V6.5
			c0-0.1,0-0.183,0-0.25C35.616,6.217,35.6,6.183,35.6,6.15V6.1c-0.066-0.033-0.133-0.05-0.199-0.05C34.767,5.983,33.967,5.967,33,6
			c-1.3,0.067-2.35,0.25-3.15,0.55C27.583,7.45,25.7,7.767,24.2,7.5c-0.667-0.1-1.55-0.383-2.65-0.85c-1.066-0.433-2-0.717-2.8-0.85
			c-0.8-0.167-2.2-0.267-4.2-0.3c-1.966-0.067-3.267-0.167-3.9-0.3c-0.167-0.034-0.3-0.083-0.4-0.15L10.15,5
			C10.079,4.947,10.021,4.897,9.975,4.85z"/>
		<path style="fill-rule:evenodd;clip-rule:evenodd;fill:#A6D56C;" d="M30.15,30.2l-0.9-0.101h-0.1c0-0.033,0-0.083,0-0.149
			c0.033-0.267,0.066-0.55,0.1-0.851c0.066-1.699,0.1-3.633,0.1-5.8c0.067-2.633,0.067-5.283,0-7.95
			c-0.166-1.167-0.25-2.067-0.25-2.7l-0.05-1.1L29,10.5c0.066-0.033,0.15-0.05,0.25-0.05c0.033-0.034,0.066-0.05,0.1-0.05H29.4
			c0.366-0.1,0.733-0.15,1.1-0.15h0.1v0.3L30.4,22.85c-0.034,1.667-0.117,4.067-0.25,7.2C30.15,30.083,30.15,30.134,30.15,30.2z"/>
		
			<linearGradient id="SVGID_8_" gradientUnits="userSpaceOnUse" x1="15.6123" y1="6.3008" x2="40.2123" y2="6.3008" gradientTransform="matrix(1 0.0021 -0.0021 1 -9.350944e-006 1.973086e-004)">
			<stop  offset="0" style="stop-color:#9DACB3"/>
			<stop  offset="1" style="stop-color:#A6D2DD"/>
		</linearGradient>
		<path style="fill-rule:evenodd;clip-rule:evenodd;fill:url(#SVGID_8_);" d="M36.8,8.2c0.367,0.1,0.75,0.017,1.15-0.25
			c-0.634,0.066-1.05,0-1.25-0.2s-0.267-0.5-0.2-0.9c0.033-0.1,0.066-0.184,0.1-0.25C37.533,6,38.65,5.3,39.95,4.5
			c-0.434,0.867-0.8,1.467-1.101,1.8C38.783,6.4,38.833,6.583,39,6.85c0.134,0.233-0.184,0.6-0.95,1.1
			C37.55,8.25,37.134,8.333,36.8,8.2z"/>
		<path style="fill-rule:evenodd;clip-rule:evenodd;fill:#D6F2FA;" d="M36.8,8.2c-0.166-0.067-0.316-0.167-0.45-0.3
			c-0.233-0.233-0.416-0.517-0.55-0.85c0.267-0.133,0.533-0.283,0.8-0.45c-0.033,0.066-0.066,0.15-0.1,0.25
			c-0.066,0.4,0,0.7,0.2,0.9s0.616,0.267,1.25,0.2C37.55,8.217,37.167,8.3,36.8,8.2z"/>
		<path style="fill-rule:evenodd;clip-rule:evenodd;fill:#B4DC84;" d="M29,10.5l0.05,1.05l-0.5,0.25H26.15l-0.45,0.05
			c-0.167,0.033-0.584,0.217-1.25,0.55l-0.5,0.35l-0.25,0.1l-1.2,0.2c-0.233,0-0.45,0.05-0.65,0.15l-1.65,1.5l-0.3,0.45l-0.15,0.3
			l-1.1,1.2l-0.05-0.3v-0.4c-0.067-0.133-0.184-0.034-0.35,0.3l-0.15,0.2c-0.033,0.033-0.167,0.133-0.4,0.3l-0.65,0.5
			c-0.2,0.267-0.333,0.55-0.4,0.85c-0.066,0.267-0.066,0.533,0,0.8c0,0.133,0.033,0.2,0.1,0.2c-0.233,0.7-0.35,1.167-0.35,1.4
			l0.05,0.3l0.05,0.15c-0.1-0.233-0.167-0.417-0.2-0.55l-0.05-0.1c-0.1-0.3-0.15-0.767-0.15-1.4c0-0.566,0.083-0.983,0.25-1.25
			c0.3-0.667,0.517-1.083,0.65-1.25c0.2-0.267,0.55-0.55,1.05-0.85c0.567-0.367,0.934-0.633,1.1-0.8c0.1-0.067,0.417-0.567,0.95-1.5
			c0.333-0.533,0.983-0.9,1.95-1.1c1.267-0.267,2.017-0.467,2.25-0.6c0.5-0.3,1.167-0.45,2-0.45C27.5,11.033,28.4,10.833,29,10.5z
			 M23.85,18.95c1.034-0.233,1.851,0.133,2.45,1.1c0.467,0.767,0.684,1.7,0.65,2.8c0,1-0.351,1.733-1.05,2.2
			c-0.733,0.5-1.65,0.55-2.75,0.15c-0.9-0.367-1.333-1.15-1.3-2.35c0,1.1,0.433,1.816,1.3,2.15c1.066,0.4,1.966,0.35,2.699-0.15
			c0.667-0.467,1-1.184,1-2.15c0.034-1.034-0.183-1.934-0.649-2.7C25.634,19.1,24.85,18.75,23.85,18.95z M3.55,15.75
			C3.517,15.717,3.5,15.667,3.5,15.6c-0.1-0.233-0.083-0.533,0.05-0.9c0.067-0.233,0.233-0.45,0.5-0.65l0.65-0.5
			c0.233-0.5,0.45-0.833,0.65-1c0.2-0.167,0.467-0.216,0.8-0.15l1.2,0.25l0.4,0.25c0,0.2-0.2,0.267-0.6,0.2
			C6.683,13,6.333,12.917,6.1,12.85c-0.3-0.067-0.483-0.067-0.55,0L5.3,13.4c-0.066,0.2-0.233,0.4-0.5,0.6
			c-0.133,0.1-0.4,0.3-0.8,0.6C3.767,14.833,3.617,15.217,3.55,15.75z M18.1,30.1c-0.033-0.1-0.067-0.216-0.1-0.35
			c-0.033-0.267-0.033-0.5,0-0.7s0.117-0.383,0.25-0.55c0.267-0.333,0.417-0.6,0.45-0.8c0-0.334,0.167-0.55,0.5-0.65
			c0.2-0.033,0.533-0.033,1,0c0.433,0.066,0.783,0.05,1.05-0.05c0.333-0.167,0.533-0.25,0.6-0.25c0.3-0.033,0.617,0,0.95,0.1
			c0.233,0.067,0.617,0.25,1.15,0.551l0.1,0.1H23.65l-1.5-0.25L22,27.2l-0.25,0.1H21.5L21.15,27.4h-1.1
			c-0.6,0-0.966,0.066-1.1,0.199L18.8,28.2c-0.033,0.1-0.133,0.233-0.3,0.399c-0.2,0.167-0.333,0.4-0.4,0.7V30.1z"/>
		
			<linearGradient id="SVGID_9_" gradientUnits="userSpaceOnUse" x1="10.417" y1="-9.2725" x2="41.5747" y2="-9.2725" gradientTransform="matrix(0.3054 0.9522 -0.9522 0.3054 4.386902e-004 -5.948842e-004)">
			<stop  offset="0" style="stop-color:#85C6DD"/>
			<stop  offset="1" style="stop-color:#497586"/>
		</linearGradient>
		<path style="fill-rule:evenodd;clip-rule:evenodd;fill:url(#SVGID_9_);" d="M7.15,10L7.1,9.95C7,9.817,6.85,9.683,6.65,9.55
			c-0.267-0.1-0.467-0.1-0.6,0C5.883,9.683,5.817,9.9,5.85,10.2c0,0.233,0.05,0.417,0.15,0.55c0.033,0.2,0.1,0.35,0.2,0.45
			c0.267,0.333,0.583,0.417,0.95,0.25c0.3-0.1,0.4-0.4,0.3-0.9C7.383,10.25,7.283,10.067,7.15,10z M3.35,12.15
			c0.066,0.1,0.167,0.217,0.3,0.35c0.3,0.233,0.617,0.233,0.95,0c0.333-0.267,0.517-0.517,0.55-0.75v-0.4
			c0.033-0.167,0.017-0.333-0.05-0.5l-0.35-0.4c-0.333-0.333-0.567-0.517-0.7-0.55C3.783,9.833,3.567,9.867,3.4,10
			c-0.133,0.1-0.233,0.267-0.3,0.5c0.167-1.467,0.45-2.583,0.85-3.35c0.767,0.167,1.683,0.267,2.75,0.3
			c0.733,0.033,3.267,0.316,7.6,0.85c3.9,0.467,6.684,0.817,8.35,1.05L29,10.3v0.2c-0.6,0.333-1.5,0.533-2.7,0.6
			c-0.833,0-1.5,0.15-2,0.45c-0.233,0.133-0.983,0.333-2.25,0.6c-0.966,0.2-1.617,0.567-1.95,1.1c-0.533,0.933-0.85,1.433-0.95,1.5
			c-0.167,0.167-0.533,0.433-1.1,0.8c-0.5,0.3-0.85,0.583-1.05,0.85c-0.133,0.167-0.35,0.583-0.65,1.25
			c-0.167,0.267-0.25,0.684-0.25,1.25c0,0.633,0.05,1.1,0.15,1.4l0.05,0.1c0.034,0.3,0.133,0.533,0.3,0.7
			c0.066,0.1,0.217,0.233,0.45,0.4c0.067,0.1,0.167,0.217,0.3,0.35c0.133,0.233,0.333,0.45,0.6,0.65l0.75,0.65l0.4,0.2l1.7,0.5
			c0.034,0.3,0.067,0.467,0.1,0.5c0.1,0.367,0.317,0.667,0.65,0.9c0.167,0.1,0.434,0.233,0.8,0.4l0.05,0.05l0.45,0.6
			c0.3,0.267,0.817,0.434,1.55,0.5c0.466,0.066,0.716,0.134,0.75,0.2c0.6,0.733,1.083,1.184,1.449,1.35
			c0.101,0.034,0.25,0.217,0.45,0.551l0.25,0.3l0.05,0.1c0.067,0.167,0.167,0.283,0.301,0.351c0.399,0.433,0.666,0.666,0.8,0.699
			c0.133,0.034,0.283,0,0.45-0.1c0.1,0,0.149-0.033,0.149-0.1c0.033-0.034,0.05-0.101,0.05-0.2h0.051c0,0.066,0,0.116,0,0.149
			C29.116,30.3,29.1,30.5,29.1,30.7c-0.033,0.566-0.033,1.467,0,2.7c-0.233,1.233-0.399,1.933-0.5,2.1
			c0.034-0.033,0.067-0.05,0.101-0.05c-0.066,0.1-0.134,0.217-0.2,0.35c0,0.033-0.017,0.066-0.05,0.101c-0.033,0-0.167,0-0.4,0
			c-0.6-0.067-1.7-0.2-3.3-0.4c-2.333-0.233-4.1-0.366-5.3-0.4c-0.934-0.033-2.583-0.199-4.95-0.5c0.167,0,0.35,0,0.55,0
			c-0.033-0.399,0.133-0.816,0.5-1.25c0.267-0.267,0.35-0.566,0.25-0.899c0-0.064-0.108-0.314-0.325-0.75l-0.025-0.05l-0.1-0.101
			c-0.167-0.233-0.267-0.483-0.3-0.75c-0.1-0.533-0.183-0.899-0.25-1.1l-0.7-1.95L14,27.5c0.033,0,0.05-0.017,0.05-0.05
			c-0.1-0.334-0.35-0.517-0.75-0.55c-0.5-0.067-0.95,0.033-1.35,0.3c-0.233,0.133-0.6,0.434-1.1,0.899
			c-0.3,0.267-0.7,0.45-1.2,0.551c-0.833-0.134-1.467-0.534-1.9-1.2c-0.467-1.101-0.85-1.9-1.15-2.4
			c-0.267-0.4-0.633-0.716-1.1-0.95c-0.3-0.267-0.55-0.434-0.75-0.5L4.1,23.45H4.05c-0.1,0-0.2,0.033-0.3,0.1
			c-0.133,0.1-0.267,0.233-0.4,0.4c-0.033,0.033-0.05,0.066-0.05,0.1c-0.066,0.1-0.117,0.233-0.15,0.4c-0.1-2.2-0.167-4.133-0.2-5.8
			c0.033,0.067,0.066,0.133,0.1,0.2c0,0.167,0.067,0.383,0.2,0.65c0.5,0.067,0.8-0.1,0.9-0.5l0.05-0.3
			c0.066-0.034,0.133-0.05,0.2-0.05c-0.167,0.367-0.283,0.833-0.35,1.4c-0.066,0.367-0.083,0.7-0.05,1l0.05,0.5
			c0.1,0.8,0.45,1.333,1.05,1.6C6,23.517,6.75,23.467,7.35,23c0.533-0.433,0.816-1.1,0.85-2c0-1-0.2-1.85-0.6-2.55
			c-0.267-0.5-0.617-0.817-1.05-0.95c-0.267-0.1-0.583-0.117-0.95-0.05c-0.333,0.066-0.617,0.267-0.85,0.6v-0.1
			c-0.033-0.233-0.117-0.417-0.25-0.55c-0.2-0.133-0.367-0.25-0.5-0.35c-0.433-0.367-0.783-0.466-1.05-0.3
			c-0.034,0-0.05,0.017-0.05,0.05c-0.033-1.1-0.05-2.05-0.05-2.85c0.033-0.934,0.083-1.767,0.15-2.5c0,0.066,0.017,0.15,0.05,0.25
			C3.117,11.9,3.217,12.05,3.35,12.15z M4.6,16.45l0.15,0.05c0.033,0.033,0.2,0.083,0.5,0.15l2.55,0.5
			c0.534,0.167,0.983,0.167,1.35,0c0.4-0.133,0.733-0.35,1-0.65c0.333-0.4,0.4-0.783,0.2-1.15c-0.067-0.1-0.15-0.2-0.25-0.3
			c-0.067-0.1-0.15-0.2-0.25-0.3l-0.3-0.25c-0.033-0.033-0.066-0.05-0.1-0.05c-0.034-0.034-0.067-0.067-0.1-0.1
			c-0.434-0.3-0.783-0.6-1.05-0.9c-0.4-0.467-0.716-0.733-0.95-0.8l-1.2-0.25c-0.333-0.066-0.6-0.017-0.8,0.15
			c-0.2,0.167-0.417,0.5-0.65,1l-0.65,0.5c-0.267,0.2-0.433,0.417-0.5,0.65c-0.133,0.367-0.15,0.667-0.05,0.9
			c0,0.066,0.017,0.117,0.05,0.15L3.6,15.8c0.167,0.267,0.45,0.467,0.85,0.6C4.483,16.4,4.533,16.417,4.6,16.45z M9.15,19.85
			c0.033,0.3,0.133,0.517,0.3,0.65c0.367,0.267,0.633,0.417,0.8,0.45c0.533,0.133,1.1-0.017,1.7-0.45c0.4-0.2,0.7-0.317,0.9-0.35
			c0.367-0.066,0.566-0.25,0.6-0.55c0.066-0.3-0.067-0.533-0.4-0.7c-0.066-0.2-0.267-0.383-0.6-0.55c-0.034,0-0.333-0.217-0.9-0.65
			c-0.333-0.267-0.633-0.367-0.9-0.3c-0.267,0.067-0.617,0.317-1.05,0.75c-0.4,0.467-0.617,0.867-0.65,1.2L9,19.55
			C9,19.65,9.05,19.75,9.15,19.85z M18.85,31.1l0.35,0.45c0.1,0.101,0.316,0.217,0.65,0.351l0.55,0.05l2.05,0.55l1.649-0.05
			l0.7-0.351l0.4-0.35c0.066-0.066,0.133-0.25,0.2-0.55c0.1-0.3,0.149-0.783,0.149-1.45c-0.066-0.333-0.133-0.533-0.2-0.6
			l-0.399-0.5c-0.2-0.534-0.533-0.95-1-1.25c-0.533-0.301-0.917-0.483-1.15-0.551c-0.333-0.1-0.65-0.133-0.95-0.1
			c-0.067,0-0.267,0.083-0.6,0.25c-0.267,0.1-0.617,0.116-1.05,0.05c-0.467-0.033-0.8-0.033-1,0c-0.333,0.101-0.5,0.316-0.5,0.65
			c-0.034,0.2-0.184,0.467-0.45,0.8c-0.133,0.167-0.217,0.35-0.25,0.55s-0.033,0.434,0,0.7c0.033,0.134,0.067,0.25,0.1,0.35
			c0.1,0.301,0.267,0.567,0.5,0.801C18.667,30.967,18.75,31.033,18.85,31.1z M3.85,31.4l0.1,0.199c0.033,0.067,0.066,0.15,0.1,0.25
			C3.983,31.717,3.917,31.566,3.85,31.4z"/>
		
			<linearGradient id="SVGID_10_" gradientUnits="userSpaceOnUse" x1="-28.0801" y1="20.9707" x2="-22.6495" y2="20.9707" gradientTransform="matrix(-0.1391 -0.9903 0.9903 -0.1391 -8.888543e-005 8.897483e-005)">
			<stop  offset="0" style="stop-color:#7CA34A"/>
			<stop  offset="1" style="stop-color:#516735"/>
		</linearGradient>
		<path style="fill-rule:evenodd;clip-rule:evenodd;fill:url(#SVGID_10_);" d="M23.85,18.95c1-0.2,1.784,0.15,2.351,1.05
			c0.467,0.767,0.684,1.667,0.649,2.7c0,0.966-0.333,1.683-1,2.15c-0.733,0.5-1.633,0.55-2.699,0.15c-0.867-0.333-1.3-1.05-1.3-2.15
			c-0.033-0.3-0.017-0.633,0.05-1c0.033-0.2,0.083-0.383,0.15-0.55c0.067-1.033,0.617-1.8,1.65-2.3l0.1-0.05H23.85z M23.35,24.35
			c0.867,0.3,1.601,0.267,2.2-0.1c0.533-0.4,0.8-0.983,0.8-1.75c0-0.867-0.183-1.583-0.55-2.15c-0.467-0.733-1.1-1.017-1.899-0.85
			c-0.801,0.167-1.317,0.933-1.55,2.3C22.15,23.167,22.483,24.017,23.35,24.35z"/>
		<path style="fill-rule:evenodd;clip-rule:evenodd;fill:#628436;" d="M20.75,23.55l0.35,1c0.1,0.167,0.316,0.35,0.65,0.55
			c0.233,0.101,0.633,0.184,1.2,0.25c0.767,0.167,1.184,0.267,1.25,0.301l1.55,0.85l0.7,0.7l0.35,0.149l0.25,0.301l0.15,0.1
			l0.05,0.3c0.267,0,0.4,0.033,0.4,0.101c0,0.033,0.017,0.183,0.05,0.449c0,0.2,0.066,0.334,0.2,0.4c0.1,0.066,0.383,0.1,0.85,0.1
			c0.1,0,0.267,0,0.5,0c-0.033,0.301-0.066,0.584-0.1,0.851H29.1c-0.5-0.066-0.85-0.134-1.05-0.2h-0.1
			c-0.066,0-0.117-0.017-0.15-0.05c-0.2-0.066-0.35-0.2-0.45-0.4l-0.05-0.1c-0.066-0.101-0.1-0.217-0.1-0.351
			C27.134,28.45,27,28.2,26.8,28.1c-0.333-0.1-0.583-0.3-0.75-0.6c-0.267-0.5-0.767-0.866-1.5-1.1
			c-0.934-0.301-1.667-0.551-2.2-0.75c-0.367-0.167-0.633-0.301-0.8-0.4c-0.333-0.233-0.55-0.533-0.65-0.9
			c-0.033-0.033-0.066-0.2-0.1-0.5c-0.033-0.033-0.05-0.067-0.05-0.1s0-0.067,0-0.1S20.75,23.583,20.75,23.55z M10.1,15.05
			c0.033,0.067,0.066,0.15,0.1,0.25l0.05,0.25c0,0.034-0.017,0.083-0.05,0.15c0,0.033,0,0.066,0,0.1c-0.034,0-0.05,0.017-0.05,0.05
			c-0.2,0.367-0.633,0.633-1.3,0.8c-0.133,0.033-0.533,0.05-1.2,0.05c-0.533,0-1.017-0.067-1.45-0.2
			c-0.333-0.133-0.6-0.183-0.8-0.15c-0.388,0.064-0.621,0.098-0.7,0.1c0.037-0.002,0.087-0.019,0.15-0.05
			c0.1-0.033,0.267-0.1,0.5-0.2c0.233-0.133,0.433-0.2,0.6-0.2c0.133,0,0.333,0.067,0.6,0.2l0.7,0.15
			c0.833,0.133,1.517,0.066,2.05-0.2c0.333-0.2,0.517-0.417,0.55-0.65c0.033-0.2,0-0.383-0.1-0.55c-0.167-0.2-0.283-0.367-0.35-0.5
			l-0.1-0.1h0.05c0.033,0.033,0.066,0.066,0.1,0.1c0.033,0,0.066,0.017,0.1,0.05l0.3,0.25C9.95,14.85,10.033,14.95,10.1,15.05z
			 M25.025,28.925l0.024,0.125l0.05,0.15l0.051,0.6c0,0.601-0.017,0.967-0.051,1.101c-0.1,0.366-0.333,0.633-0.699,0.8
			c-0.634,0.233-1.15,0.316-1.55,0.25l-1.35-0.2c-0.8-0.267-1.25-0.4-1.35-0.4h-0.4c0.133-0.033,0.283-0.1,0.45-0.199
			c0.2-0.067,0.383-0.067,0.55,0l0.3,0.199c0.534,0.267,1.034,0.4,1.5,0.4c0.5,0,0.9-0.116,1.2-0.35
			c0.5-0.167,0.767-0.351,0.8-0.551c0.066-0.133,0.101-0.433,0.101-0.899c0-0.767-0.134-1.283-0.4-1.55
			c-0.1-0.101-0.15-0.233-0.15-0.4s0.067-0.267,0.2-0.3C24.668,28.068,24.91,28.477,25.025,28.925z"/>
		<path style="fill-rule:evenodd;clip-rule:evenodd;fill:#426677;" d="M20.8,23.85l-1.7-0.5l-0.4-0.2l-0.75-0.65
			c-0.267-0.2-0.467-0.417-0.6-0.65c-0.133-0.133-0.233-0.25-0.3-0.35c0.067,0.067,0.15,0.133,0.25,0.2
			c0.867,0.6,1.733,0.966,2.6,1.1c0.4,0.067,0.667,0.3,0.8,0.7l0.05,0.05c0,0.034,0,0.067,0,0.1s0,0.067,0,0.1
			S20.767,23.817,20.8,23.85z M27.3,29.2l-0.25-0.3c-0.2-0.334-0.35-0.517-0.45-0.551c-0.366-0.166-0.85-0.616-1.449-1.35
			c-0.034-0.066-0.284-0.134-0.75-0.2c-0.733-0.066-1.25-0.233-1.55-0.5l-0.45-0.6l-0.05-0.05c0.533,0.199,1.266,0.449,2.2,0.75
			c0.733,0.233,1.233,0.6,1.5,1.1c0.167,0.3,0.417,0.5,0.75,0.6c0.2,0.101,0.334,0.351,0.4,0.75C27.2,28.983,27.233,29.1,27.3,29.2z
			 M29.1,29.95c0,0.1-0.017,0.166-0.05,0.2c0,0.066-0.05,0.1-0.149,0.1c-0.167,0.1-0.317,0.134-0.45,0.1
			c-0.134-0.033-0.4-0.267-0.8-0.699c0.033,0.033,0.083,0.05,0.149,0.05c0.033,0.033,0.084,0.05,0.15,0.05h0.1
			C28.25,29.816,28.6,29.884,29.1,29.95z M9.65,28.65c-0.066,0-0.133,0-0.2,0c-0.6,0.033-1.1-0.051-1.5-0.25
			C7.383,28.1,6.9,27.517,6.5,26.65c-0.067-0.167-0.2-0.617-0.4-1.351c-0.133-0.533-0.333-0.933-0.6-1.2
			c0.467,0.233,0.833,0.55,1.1,0.95c0.3,0.5,0.683,1.3,1.15,2.4C8.183,28.116,8.817,28.517,9.65,28.65z M15.475,31.7
			c0.217,0.436,0.325,0.686,0.325,0.75c0.1,0.333,0.017,0.633-0.25,0.899c-0.367,0.434-0.533,0.851-0.5,1.25c-0.2,0-0.383,0-0.55,0
			c-0.267,0-0.517,0-0.75,0c0-0.033,0.017-0.066,0.05-0.1c0.034-0.1,0.034-0.217,0-0.35c0-0.334,0.017-0.551,0.05-0.65
			c0.1-0.233,0.333-0.384,0.7-0.45c0.434-0.066,0.717-0.166,0.85-0.3C15.658,32.491,15.683,32.142,15.475,31.7z M15.35,31.55
			c-0.367-0.467-0.633-0.816-0.8-1.05c-0.233-0.4-0.35-0.816-0.35-1.25l-0.1-1.45v-0.05l0.7,1.95c0.067,0.2,0.15,0.566,0.25,1.1
			C15.083,31.066,15.183,31.316,15.35,31.55z M24.95,28.65l0.399,0.5c0.067,0.066,0.134,0.267,0.2,0.6c0,0.667-0.05,1.15-0.149,1.45
			c-0.067,0.3-0.134,0.483-0.2,0.55l-0.4,0.35l-0.7,0.351L22.45,32.5l-2.05-0.55l-0.55-0.05c-0.333-0.134-0.55-0.25-0.65-0.351
			l-0.35-0.45c0.2,0.134,0.5,0.217,0.9,0.25h0.4c0.1,0,0.55,0.134,1.35,0.4l1.35,0.2c0.4,0.066,0.917-0.017,1.55-0.25
			c0.366-0.167,0.6-0.434,0.699-0.8c0.034-0.134,0.051-0.5,0.051-1.101L25.1,29.2l-0.05-0.15l-0.024-0.125
			C25,28.816,24.975,28.725,24.95,28.65z"/>
		
			<radialGradient id="SVGID_11_" cx="31.2822" cy="-4.7183" r="3.7099" gradientTransform="matrix(0.6402 0.7682 0.7581 -0.6537 7.1507 -6.1656)" gradientUnits="userSpaceOnUse">
			<stop  offset="0" style="stop-color:#75684D"/>
			<stop  offset="1" style="stop-color:#2E281D"/>
		</radialGradient>
		<path style="fill-rule:evenodd;clip-rule:evenodd;fill:url(#SVGID_11_);" d="M23.35,24.35c-0.866-0.333-1.2-1.184-1-2.55
			c0.233-1.367,0.75-2.133,1.55-2.3c0.8-0.167,1.433,0.117,1.899,0.85c0.367,0.566,0.55,1.283,0.55,2.15
			c0,0.767-0.267,1.35-0.8,1.75C24.95,24.617,24.217,24.65,23.35,24.35z"/>
		
			<linearGradient id="SVGID_12_" gradientUnits="userSpaceOnUse" x1="7.2026" y1="9.5107" x2="21.8408" y2="9.5107" gradientTransform="matrix(0.9557 0.2942 -0.2942 0.9557 -1.573861e-004 -3.907681e-004)">
			<stop  offset="0" style="stop-color:#AFDA7B"/>
			<stop  offset="1" style="stop-color:#5D8428"/>
		</linearGradient>
		<path style="fill-rule:evenodd;clip-rule:evenodd;fill:url(#SVGID_12_);" d="M5.15,11.35c-0.033,0.133-0.1,0.267-0.2,0.4l-0.2,0.2
			L4.6,12c-0.067,0.033-0.133,0.117-0.2,0.25c-0.2,0.233-0.45,0.267-0.75,0.1c-0.1-0.067-0.2-0.133-0.3-0.2
			c-0.133-0.1-0.233-0.25-0.3-0.45C3.017,11.6,3,11.517,3,11.45c-0.033-0.2-0.033-0.417,0-0.65c0.033-0.1,0.067-0.2,0.1-0.3
			c0.066-0.233,0.167-0.4,0.3-0.5c0.167-0.133,0.383-0.167,0.65-0.1c0.133,0.033,0.367,0.217,0.7,0.55l0.35,0.4
			C5.167,11.017,5.183,11.183,5.15,11.35z"/>
		<path style="fill-rule:evenodd;clip-rule:evenodd;fill:#548195;" d="M3.35,12.15c0.1,0.067,0.2,0.133,0.3,0.2
			c0.3,0.167,0.55,0.133,0.75-0.1c0.067-0.133,0.133-0.217,0.2-0.25l0.15-0.05l0.2-0.2c0.1-0.133,0.167-0.267,0.2-0.4v0.4
			c-0.033,0.233-0.217,0.483-0.55,0.75c-0.333,0.233-0.65,0.233-0.95,0C3.517,12.367,3.417,12.25,3.35,12.15z M7.15,10
			c0.133,0.067,0.233,0.25,0.3,0.55c0.1,0.5,0,0.8-0.3,0.9c-0.367,0.167-0.683,0.083-0.95-0.25c-0.1-0.1-0.167-0.25-0.2-0.45
			l0.05,0.05c0.367,0.367,0.7,0.45,1,0.25c0.133-0.1,0.2-0.267,0.2-0.5C7.25,10.317,7.217,10.133,7.15,10z M10.1,15.05
			c0.1,0.1,0.183,0.2,0.25,0.3c0.2,0.367,0.133,0.75-0.2,1.15c-0.267,0.3-0.6,0.517-1,0.65c-0.367,0.167-0.816,0.167-1.35,0
			l-2.55-0.5c-0.3-0.066-0.467-0.117-0.5-0.15L4.6,16.45c0.066-0.034,0.15-0.05,0.25-0.05c-0.063,0.031-0.113,0.048-0.15,0.05
			c0.079-0.002,0.312-0.036,0.7-0.1c0.2-0.033,0.467,0.017,0.8,0.15c0.433,0.133,0.917,0.2,1.45,0.2c0.667,0,1.067-0.017,1.2-0.05
			c0.667-0.167,1.1-0.433,1.3-0.8c0-0.033,0.017-0.05,0.05-0.05c0-0.033,0-0.066,0-0.1c0.033-0.067,0.05-0.117,0.05-0.15L10.2,15.3
			C10.167,15.2,10.133,15.117,10.1,15.05z M3.05,18.85c0.067,0.066,0.133,0.133,0.2,0.2l0.4-0.2c0.133-0.1,0.317-0.15,0.55-0.15
			L4.15,19c-0.1,0.4-0.4,0.567-0.9,0.5C3.117,19.233,3.05,19.017,3.05,18.85z M13.05,18.9c0.333,0.167,0.467,0.4,0.4,0.7
			c-0.034,0.3-0.233,0.483-0.6,0.55c-0.2,0.033-0.5,0.15-0.9,0.35c-0.6,0.433-1.167,0.583-1.7,0.45
			c-0.167-0.034-0.433-0.184-0.8-0.45c-0.167-0.133-0.267-0.35-0.3-0.65c0.1,0.1,0.267,0.2,0.5,0.3c0.367,0.167,0.833,0.25,1.4,0.25
			c0.333,0.033,0.65-0.1,0.95-0.4c0.5-0.333,0.8-0.55,0.9-0.65C13.033,19.183,13.083,19.033,13.05,18.9z"/>
		
			<linearGradient id="SVGID_13_" gradientUnits="userSpaceOnUse" x1="8.127" y1="7.9365" x2="22.7963" y2="7.9365" gradientTransform="matrix(0.9556 0.2945 -0.2945 0.9556 -1.850724e-004 -3.325939e-005)">
			<stop  offset="0" style="stop-color:#AFDA7B"/>
			<stop  offset="1" style="stop-color:#5D8428"/>
		</linearGradient>
		<path style="fill-rule:evenodd;clip-rule:evenodd;fill:url(#SVGID_13_);" d="M7.15,10c0.067,0.133,0.1,0.317,0.1,0.55
			c0,0.233-0.067,0.4-0.2,0.5c-0.3,0.2-0.633,0.117-1-0.25L6,10.75c-0.1-0.133-0.15-0.317-0.15-0.55
			c-0.033-0.3,0.033-0.517,0.2-0.65c0.133-0.1,0.333-0.1,0.6,0C6.85,9.683,7,9.817,7.1,9.95L7.15,10z"/>
		
			<linearGradient id="SVGID_14_" gradientUnits="userSpaceOnUse" x1="7.1997" y1="12.1489" x2="21.814" y2="12.1489" gradientTransform="matrix(0.9558 0.2942 -0.2942 0.9558 -2.044737e-004 7.945299e-005)">
			<stop  offset="0" style="stop-color:#AFDA7B"/>
			<stop  offset="1" style="stop-color:#5D8428"/>
		</linearGradient>
		<path style="fill-rule:evenodd;clip-rule:evenodd;fill:url(#SVGID_14_);" d="M9.35,14.35H9.3l0.1,0.1
			c0.067,0.133,0.184,0.3,0.35,0.5c0.1,0.167,0.133,0.35,0.1,0.55c-0.033,0.233-0.217,0.45-0.55,0.65
			c-0.533,0.267-1.216,0.333-2.05,0.2l-0.7-0.15C6.283,16.067,6.083,16,5.95,16c-0.167,0-0.367,0.067-0.6,0.2
			c-0.233,0.1-0.4,0.167-0.5,0.2c-0.1,0-0.184,0.017-0.25,0.05c-0.067-0.034-0.117-0.05-0.15-0.05c-0.4-0.133-0.684-0.333-0.85-0.6
			l-0.05-0.05C3.617,15.217,3.767,14.833,4,14.6c0.4-0.3,0.667-0.5,0.8-0.6c0.267-0.2,0.434-0.4,0.5-0.6l0.25-0.55
			c0.067-0.067,0.25-0.067,0.55,0C6.333,12.917,6.683,13,7.15,13.1c0.4,0.066,0.6,0,0.6-0.2l-0.4-0.25
			c0.233,0.067,0.55,0.333,0.95,0.8C8.567,13.75,8.917,14.05,9.35,14.35z"/>
		
			<linearGradient id="SVGID_15_" gradientUnits="userSpaceOnUse" x1="-23.4858" y1="3.1021" x2="-18.5856" y2="3.1021" gradientTransform="matrix(-0.1389 -0.9903 0.9903 -0.1389 2.482682e-004 4.598498e-005)">
			<stop  offset="0" style="stop-color:#4D7C93"/>
			<stop  offset="1" style="stop-color:#314B57"/>
		</linearGradient>
		<path style="fill-rule:evenodd;clip-rule:evenodd;fill:url(#SVGID_15_);" d="M4.05,21.55L4,21.05c-0.033-0.3-0.017-0.633,0.05-1
			c0.067-0.566,0.184-1.033,0.35-1.4c0.1-0.233,0.217-0.433,0.35-0.6c0.233-0.333,0.517-0.533,0.85-0.6
			c0.367-0.067,0.683-0.05,0.95,0.05c0.4,0.167,0.733,0.483,1,0.95c0.367,0.667,0.55,1.483,0.55,2.45c0,0.867-0.283,1.517-0.85,1.95
			c-0.567,0.433-1.3,0.467-2.2,0.1C4.483,22.717,4.15,22.25,4.05,21.55z M7,22.25c0.433-0.333,0.65-0.85,0.65-1.55
			c0.033-0.767-0.1-1.434-0.4-2c-0.367-0.667-0.9-0.917-1.6-0.75c-0.667,0.167-1.083,0.867-1.25,2.1c-0.167,1.233,0.117,2,0.85,2.3
			C5.95,22.65,6.533,22.617,7,22.25z"/>
		
			<linearGradient id="SVGID_16_" gradientUnits="userSpaceOnUse" x1="7.0063" y1="16.1035" x2="19.4223" y2="16.1035" gradientTransform="matrix(0.9557 0.2942 -0.2942 0.9557 -1.419187e-004 4.735291e-004)">
			<stop  offset="0" style="stop-color:#AFDA7B"/>
			<stop  offset="1" style="stop-color:#5D8428"/>
		</linearGradient>
		<path style="fill-rule:evenodd;clip-rule:evenodd;fill:url(#SVGID_16_);" d="M4.2,18.7c-0.233,0-0.417,0.05-0.55,0.15l-0.4,0.2
			c-0.067-0.066-0.133-0.133-0.2-0.2c-0.033-0.067-0.066-0.133-0.1-0.2c-0.1-0.167-0.15-0.367-0.15-0.6
			c-0.1-0.667-0.066-1.083,0.1-1.25c0-0.033,0.017-0.05,0.05-0.05c0.267-0.167,0.617-0.067,1.05,0.3c0.133,0.1,0.3,0.217,0.5,0.35
			c0.133,0.133,0.217,0.317,0.25,0.55v0.1c-0.133,0.167-0.25,0.367-0.35,0.6C4.333,18.65,4.267,18.667,4.2,18.7z"/>
		<path style="fill-rule:evenodd;clip-rule:evenodd;fill:#908061;" d="M5.5,24.1c0.267,0.267,0.467,0.667,0.6,1.2
			c0.2,0.733,0.333,1.184,0.4,1.351c0.4,0.866,0.883,1.449,1.45,1.75c0.4,0.199,0.9,0.283,1.5,0.25c0.066,0,0.133,0,0.2,0
			c0.5-0.101,0.9-0.284,1.2-0.551c0.5-0.466,0.867-0.767,1.1-0.899c0.4-0.267,0.85-0.367,1.35-0.3c0.4,0.033,0.65,0.216,0.75,0.55
			c0,0.033-0.017,0.05-0.05,0.05c-0.167,0.167-0.5,0.217-1,0.15c-0.333-0.101-0.617-0.084-0.85,0.05l-0.85,0.5
			c-0.066,0.066-0.167,0.184-0.3,0.35c-0.1,0.167-0.217,0.267-0.35,0.3c-0.2,0.101-0.533,0.134-1,0.101s-0.8-0.05-1-0.05
			c-1.133,0-1.95-0.233-2.45-0.7c-0.5-0.5-0.8-1.033-0.9-1.601c-0.066-0.833-0.233-1.466-0.5-1.899c-0.2-0.4-0.433-0.617-0.7-0.65
			H3.3c0-0.033,0.017-0.066,0.05-0.1c0.133-0.167,0.267-0.3,0.4-0.4c0.1-0.066,0.2-0.1,0.3-0.1H4.1l0.65,0.15
			C4.95,23.667,5.2,23.833,5.5,24.1z"/>
		
			<linearGradient id="SVGID_17_" gradientUnits="userSpaceOnUse" x1="3.0015" y1="29.3906" x2="15.6015" y2="29.3906" gradientTransform="matrix(1 0.002 -0.002 1 -5.563535e-005 1.456619e-004)">
			<stop  offset="0" style="stop-color:#897655"/>
			<stop  offset="1" style="stop-color:#675D47"/>
		</linearGradient>
		<path style="fill-rule:evenodd;clip-rule:evenodd;fill:url(#SVGID_17_);" d="M3.15,24.45c0.033-0.167,0.083-0.3,0.15-0.4h0.8
			c0.267,0.034,0.5,0.25,0.7,0.65c0.267,0.434,0.434,1.066,0.5,1.899C5.4,27.167,5.7,27.7,6.2,28.2c0.5,0.467,1.316,0.7,2.45,0.7
			c0.2,0,0.533,0.017,1,0.05s0.8,0,1-0.101c0.133-0.033,0.25-0.133,0.35-0.3c0.133-0.166,0.233-0.283,0.3-0.35l0.85-0.5
			c0.233-0.134,0.517-0.15,0.85-0.05c0.5,0.066,0.833,0.017,1-0.15l0.1,0.25v0.05l0.1,1.45c0,0.434,0.117,0.85,0.35,1.25
			c0.167,0.233,0.434,0.583,0.8,1.05l0.1,0.101l0.025,0.05c0.208,0.441,0.183,0.791-0.075,1.05c-0.133,0.134-0.417,0.233-0.85,0.3
			c-0.367,0.066-0.6,0.217-0.7,0.45c-0.033,0.1-0.05,0.316-0.05,0.65c0.034,0.133,0.034,0.25,0,0.35
			c-0.033,0.033-0.05,0.066-0.05,0.1c-0.033,0.034-0.083,0.067-0.15,0.101c-0.133,0.066-0.383,0.083-0.75,0.05
			s-0.617-0.05-0.75-0.05h-0.05c-0.333,0-1.05-0.084-2.15-0.25c-0.467,0.033-0.8,0.033-1,0c-0.2,0-0.433-0.05-0.7-0.15
			c-0.4-0.133-0.633-0.2-0.7-0.2c-1.067-0.066-1.767-0.183-2.1-0.35c-0.467-0.2-0.883-0.634-1.25-1.3
			c-0.033-0.233-0.066-0.434-0.1-0.601c-0.033-0.1-0.066-0.183-0.1-0.25L3.85,31.4c-0.1-0.2-0.283-0.517-0.55-0.95
			c-0.233-0.5-0.35-1.167-0.35-2v-3C2.983,25.05,3.05,24.717,3.15,24.45z"/>
		
			<linearGradient id="SVGID_18_" gradientUnits="userSpaceOnUse" x1="9.1406" y1="14.9214" x2="23.7549" y2="14.9214" gradientTransform="matrix(0.9558 0.2939 -0.2939 0.9558 -2.467632e-005 -6.812811e-005)">
			<stop  offset="0" style="stop-color:#AFDA7B"/>
			<stop  offset="1" style="stop-color:#5D8428"/>
		</linearGradient>
		<path style="fill-rule:evenodd;clip-rule:evenodd;fill:url(#SVGID_18_);" d="M13.05,18.9c0.034,0.133-0.017,0.283-0.15,0.45
			c-0.1,0.1-0.4,0.316-0.9,0.65c-0.3,0.3-0.617,0.433-0.95,0.4c-0.566,0-1.033-0.083-1.4-0.25c-0.233-0.1-0.4-0.2-0.5-0.3
			S9,19.65,9,19.55l-0.05-0.2c0.033-0.333,0.25-0.733,0.65-1.2c0.433-0.433,0.783-0.683,1.05-0.75c0.267-0.066,0.567,0.033,0.9,0.3
			c0.567,0.433,0.867,0.65,0.9,0.65C12.783,18.517,12.983,18.7,13.05,18.9z"/>
		
			<radialGradient id="SVGID_19_" cx="17.8228" cy="7.2188" r="3.2225" gradientTransform="matrix(0.6012 0.7991 0.7137 -0.6788 -10.418 9.9083)" gradientUnits="userSpaceOnUse">
			<stop  offset="0" style="stop-color:#75684D"/>
			<stop  offset="1" style="stop-color:#2E281D"/>
		</radialGradient>
		<path style="fill-rule:evenodd;clip-rule:evenodd;fill:url(#SVGID_19_);" d="M7,22.25c-0.467,0.367-1.05,0.4-1.75,0.1
			c-0.733-0.3-1.017-1.067-0.85-2.3c0.167-1.233,0.583-1.933,1.25-2.1c0.7-0.167,1.233,0.083,1.6,0.75c0.3,0.566,0.433,1.233,0.4,2
			C7.65,21.4,7.433,21.917,7,22.25z"/>
		
			<linearGradient id="SVGID_20_" gradientUnits="userSpaceOnUse" x1="22.0483" y1="19.6191" x2="40.4945" y2="19.6191" gradientTransform="matrix(0.9332 0.3594 -0.3594 0.9332 8.848310e-005 -1.364946e-005)">
			<stop  offset="0" style="stop-color:#AFDA7B"/>
			<stop  offset="1" style="stop-color:#5D8428"/>
		</linearGradient>
		<path style="fill-rule:evenodd;clip-rule:evenodd;fill:url(#SVGID_20_);" d="M23.95,27.4c0.467,0.3,0.8,0.716,1,1.25
			c0.024,0.074,0.05,0.166,0.075,0.274c-0.115-0.448-0.357-0.856-0.726-1.225c-0.133,0.033-0.2,0.133-0.2,0.3s0.051,0.3,0.15,0.4
			c0.267,0.267,0.4,0.783,0.4,1.55c0,0.467-0.034,0.767-0.101,0.899c-0.033,0.2-0.3,0.384-0.8,0.551c-0.3,0.233-0.7,0.35-1.2,0.35
			c-0.466,0-0.966-0.134-1.5-0.4l-0.3-0.199c-0.167-0.067-0.35-0.067-0.55,0c-0.167,0.1-0.317,0.166-0.45,0.199
			c-0.4-0.033-0.7-0.116-0.9-0.25c-0.1-0.066-0.184-0.133-0.25-0.199c-0.233-0.233-0.4-0.5-0.5-0.801v-0.8
			c0.066-0.3,0.2-0.533,0.4-0.7c0.167-0.166,0.267-0.3,0.3-0.399l0.15-0.601c0.133-0.133,0.5-0.199,1.1-0.199h1.1L21.5,27.3h0.25
			L22,27.2l0.15,0.05l1.5,0.25h0.399L23.95,27.4z"/>
		<path style="fill-rule:evenodd;clip-rule:evenodd;fill:#957E41;" d="M12.05,34.7h0.05c0.133,0,0.383,0.017,0.75,0.05
			s0.617,0.017,0.75-0.05c0.066-0.033,0.117-0.066,0.15-0.101c0.233,0,0.483,0,0.75,0c2.367,0.301,4.017,0.467,4.95,0.5
			c1.2,0.034,2.966,0.167,5.3,0.4c1.6,0.2,2.7,0.333,3.3,0.4l0.2,1.8c0,0.233,0.033,0.399,0.1,0.5h-0.1c-0.167,0-0.316,0-0.45,0
			c-0.3,0-0.633-0.017-1-0.05c-3.333-0.301-6.083-0.551-8.25-0.75c-4.267-0.434-6.417-0.717-6.45-0.851
			C12.033,36.25,12.017,35.634,12.05,34.7z M15.1,43.1l1.5,0.2c0.4,0,1.783,0.167,4.15,0.5c2.2,0.3,3.733,0.517,4.6,0.65l3.45,0.6
			c0,0.101,0.084,0.566,0.25,1.4l0.05-0.05v0.05c0,0.033,0,0.083,0,0.149v0.051c-0.032-0.065-0.049-0.115-0.05-0.15v0.45
			c0,0.399,0.033,0.616,0.101,0.649c0-0.033,0-0.083,0-0.149c0.033,0.166,0.116,0.25,0.25,0.25l-0.051,0.05
			c-0.1,0-0.183,0.017-0.25,0.05c-1.833,0-3.699-0.149-5.6-0.45c-0.733,0-2.2-0.183-4.4-0.55c-2-0.3-3.283-0.533-3.85-0.7
			c-0.367-0.166-0.583-0.633-0.65-1.399c-0.033-0.601,0.1-1.15,0.4-1.65c0.126-0.221,0.285-0.43,0.475-0.625
			C15.319,42.594,15.194,42.818,15.1,43.1z M28.4,38.2c0.031-0.032,0.048-0.082,0.05-0.15v0.15H28.4z"/>
		<path style="fill-rule:evenodd;clip-rule:evenodd;fill:#846E35;" d="M27.8,38.2v4.149c-0.133,0.467-0.2,0.717-0.2,0.75h0.051
			c-0.034,0.034-0.067,0.084-0.101,0.15c-0.767-0.033-1.783-0.134-3.05-0.3c-0.066,0-0.116,0-0.15,0c-0.466,0-2-0.2-4.6-0.601
			c-0.233-0.033-0.417-0.1-0.55-0.199L19.15,42.1c-0.1-0.066-0.167-0.149-0.2-0.25c-0.167-0.3-0.267-0.899-0.3-1.8
			c-0.033-0.166-0.05-0.333-0.05-0.5c-0.033-0.833-0.05-1.55-0.05-2.149c2.167,0.199,4.917,0.449,8.25,0.75
			C27.167,38.184,27.5,38.2,27.8,38.2z"/>
		<path style="fill-rule:evenodd;clip-rule:evenodd;fill:#9D8444;" d="M19.15,42.1h-0.1l0.15,0.051
			c0.133,0.1,0.316,0.166,0.55,0.199c2.6,0.4,4.134,0.601,4.6,0.601c0.034,0,0.084,0,0.15,0c1.267,0.166,2.283,0.267,3.05,0.3
			c0.467,0.033,0.834,0.033,1.101,0c0.933-0.1,2.116-0.684,3.55-1.75c0.733-0.533,1.5-1.167,2.3-1.9
			c0.3-0.233,0.434-0.383,0.4-0.449C34.866,39.05,34.6,38.967,34.1,38.9L33,38.85c0-0.066,0-0.116,0-0.149
			c0.4,0.033,0.934,0.083,1.6,0.149c0.801,0.134,1.284,0.301,1.45,0.5c-0.899,0.733-1.783,1.367-2.649,1.9
			c-0.834,0.566-2.017,1.417-3.551,2.55c-0.533,0.267-1.1,0.384-1.699,0.351c-3.967-0.4-7-0.75-9.101-1.051
			c-1.3-0.199-2.35-0.25-3.15-0.149L15.1,43.1c0.094-0.281,0.219-0.506,0.375-0.675L15.5,42.4c0.833-0.7,1.883-1.483,3.15-2.351
			c0.033,0.9,0.133,1.5,0.3,1.8C18.983,41.95,19.05,42.033,19.15,42.1z"/>
		<path style="fill-rule:evenodd;clip-rule:evenodd;fill:#715E2C;" d="M19.2,42.15L19.05,42.1h0.1L19.2,42.15z M27.55,43.25
			c1.066-0.3,1.8-0.566,2.2-0.8c0.3-0.167,0.816-0.517,1.55-1.05c0.767-0.567,1.233-0.983,1.4-1.25
			c0.133-0.233,0.217-0.5,0.25-0.801c0.033-0.199,0.05-0.366,0.05-0.5l1.1,0.051c0.5,0.066,0.767,0.149,0.801,0.25
			c0.033,0.066-0.101,0.216-0.4,0.449c-0.8,0.733-1.566,1.367-2.3,1.9c-1.434,1.066-2.617,1.65-3.55,1.75
			C28.384,43.283,28.017,43.283,27.55,43.25z"/>
		<path style="fill-rule:evenodd;clip-rule:evenodd;fill:#B99C54;" d="M28.45,38.05c-0.002,0.068-0.019,0.118-0.05,0.15l-0.051,0.05
			V38.2c-0.066-0.101-0.1-0.267-0.1-0.5l-0.2-1.8c0.233,0,0.367,0,0.4,0h0.05v0.85c0.033,0.167,0.017,0.417-0.05,0.75
			c0,0.033,0,0.167,0,0.4V38.05z M28.25,38.2l-0.1,3.25c0,0.533-0.017,0.833-0.051,0.899c-0.1,0.267-0.25,0.517-0.449,0.75H27.6
			c0-0.033,0.067-0.283,0.2-0.75V38.2C27.934,38.2,28.083,38.2,28.25,38.2z M36.05,39.35c-0.166,0.233-0.816,0.817-1.95,1.75
			c-0.466,0.4-1.183,0.983-2.149,1.75C30.983,43.583,30,44.283,29,44.95l0.05,1.5c-0.166-0.834-0.25-1.3-0.25-1.4l-3.45-0.6
			c-0.866-0.134-2.399-0.351-4.6-0.65c-2.367-0.333-3.75-0.5-4.15-0.5l-1.5-0.2l0.8-0.149c0.8-0.101,1.85-0.05,3.15,0.149
			c2.1,0.301,5.134,0.65,9.101,1.051c0.6,0.033,1.166-0.084,1.699-0.351c1.534-1.133,2.717-1.983,3.551-2.55
			C34.267,40.717,35.15,40.083,36.05,39.35z"/>
		<path style="fill-rule:evenodd;clip-rule:evenodd;fill:#594B29;" d="M28.45,38.2v-0.15V37.9c0-0.233,0-0.367,0-0.4
			c0.066-0.333,0.083-0.583,0.05-0.75V35.9c0.533-0.134,1.55-0.467,3.05-1c1.634-0.567,2.667-0.967,3.101-1.2
			c0.8-0.367,2.133-1.25,4-2.65c0.066,1.2,0.033,1.834-0.101,1.9c-1.3,0.899-2.45,1.649-3.45,2.25c-0.533,0.3-1.216,0.666-2.05,1.1
			c-0.467,0.2-0.967,0.434-1.5,0.7c-1.267,0.6-2.1,0.967-2.5,1.1C28.917,38.167,28.717,38.2,28.45,38.2z"/>
		<path style="fill-rule:evenodd;clip-rule:evenodd;fill:#524525;" d="M33.05,36.3C33.017,36.967,33,37.717,33,38.55
			c0,0.033,0,0.084,0,0.15c0,0.033,0,0.083,0,0.149c0,0.134-0.017,0.301-0.05,0.5c-0.033,0.301-0.117,0.567-0.25,0.801
			c-0.167,0.267-0.634,0.683-1.4,1.25c-0.733,0.533-1.25,0.883-1.55,1.05c-0.4,0.233-1.134,0.5-2.2,0.8
			c0.033-0.066,0.066-0.116,0.101-0.15c0.199-0.233,0.35-0.483,0.449-0.75c0.034-0.066,0.051-0.366,0.051-0.899l0.1-3.25h0.1v0.05
			L28.4,38.2h0.05c0.267,0,0.467-0.033,0.6-0.101c0.4-0.133,1.233-0.5,2.5-1.1C32.083,36.733,32.583,36.5,33.05,36.3z"/>
		<path style="fill-rule:evenodd;clip-rule:evenodd;fill:#7FAFBC;" d="M28.7,35.45c-0.033,0-0.066,0.017-0.101,0.05
			c0.101-0.167,0.267-0.866,0.5-2.1c-0.033-1.233-0.033-2.134,0-2.7c0-0.2,0.017-0.4,0.051-0.601h0.1l0.9,0.101L30.1,30.85
			c0,0.267,0.017,0.7,0.051,1.301c0,0.566-0.067,1-0.2,1.3C29.65,34.184,29.233,34.85,28.7,35.45z"/>
		<path style="fill-rule:evenodd;clip-rule:evenodd;fill:#6D5C32;" d="M29.05,46.45L29,44.95c1-0.667,1.983-1.367,2.95-2.101
			c0.967-0.767,1.684-1.35,2.149-1.75c1.134-0.933,1.784-1.517,1.95-1.75c0.233,0.267,0.45,0.767,0.65,1.5V40.9
			c0,0.033,0.017,0.066,0.05,0.1l-0.1,0.9c-0.167,0.1-0.334,0.216-0.5,0.35c-1,0.833-1.7,1.517-2.101,2.05
			c-0.233,0.167-0.383,0.283-0.45,0.351c-2.233,1.566-3.517,2.55-3.85,2.949L29.7,47.65c-0.134,0.033-0.25,0.066-0.351,0.1
			L29.4,47.7c-0.134,0-0.217-0.084-0.25-0.25c0,0.066,0,0.116,0,0.149c-0.067-0.033-0.101-0.25-0.101-0.649V46.5
			c0.001,0.035,0.018,0.085,0.05,0.15V46.6c0-0.066,0-0.116,0-0.149V46.4L29.05,46.45z"/>
	</g>
	<g>
		
			<linearGradient id="SVGID_21_" gradientUnits="userSpaceOnUse" x1="-34.7051" y1="17.9414" x2="-29.687" y2="17.9414" gradientTransform="matrix(0.0847 -0.9964 0.9964 0.0847 -5.207211e-005 -1.155362e-004)">
			<stop  offset="0.3176" style="stop-color:#000000;stop-opacity:0.3569"/>
			<stop  offset="0.8235" style="stop-color:#000000;stop-opacity:0"/>
		</linearGradient>
		<path style="fill-rule:evenodd;clip-rule:evenodd;fill:url(#SVGID_21_);" d="M29.55,9.4L29.4,9.65c0,0.434-0.051,8.017-0.15,22.75
			c0,1.233-0.267,2.383-0.8,3.449c-0.167,0-1.4-0.133-3.7-0.399c-2.333-0.233-4.1-0.367-5.3-0.4c-1.233,0-3.133-0.2-5.7-0.6
			c0,0.1-0.05,0.166-0.15,0.2c-0.133,0.066-0.383,0.083-0.75,0.05s-0.617-0.05-0.75-0.05c-0.3,0-1.033-0.084-2.2-0.25
			c-0.467,0.033-0.8,0.033-1,0c-0.2,0-0.433-0.051-0.7-0.15c-0.4-0.134-0.633-0.2-0.7-0.2c-1.067-0.066-1.767-0.184-2.1-0.35
			c-0.467-0.2-0.883-0.634-1.25-1.3l-0.2-0.75l-0.15-0.4c-0.233-0.366-0.4-0.65-0.5-0.85c-0.233-0.5-0.35-1.167-0.35-2v-3l0.2-1.101
			c-0.2-4.4-0.283-7.65-0.25-9.75c0-3.633,0.35-6.117,1.05-7.45C5.417,7,9.217,7.283,15.35,7.95C22.95,8.783,27.684,9.267,29.55,9.4
			z"/>
		
			<linearGradient id="SVGID_22_" gradientUnits="userSpaceOnUse" x1="-46.4932" y1="23.3638" x2="-38.8123" y2="23.3638" gradientTransform="matrix(-0.4459 -0.8951 0.8951 -0.4459 -1.235306e-004 1.804829e-004)">
			<stop  offset="0.3176" style="stop-color:#000000;stop-opacity:0.2471"/>
			<stop  offset="0.8235" style="stop-color:#000000;stop-opacity:0"/>
		</linearGradient>
		<path style="fill-rule:evenodd;clip-rule:evenodd;fill:url(#SVGID_22_);" d="M43.65,4.3v0.25c0.166,0.934,0.25,3.517,0.25,7.75
			c0.033,3.5,0.017,6.517-0.051,9.05l0.301,0.3c-0.034,0.267-0.017,0.633,0.05,1.1l0.05,1.1c0,0.267,0,0.7,0,1.3
			c-0.033,0.533-0.15,0.966-0.35,1.3L43.6,26.85l-0.199,0.5c-0.733,0.7-1.15,1.101-1.25,1.2c-0.233,0.2-0.334,0.351-0.301,0.45
			c0.034,0.1-0.083,0.233-0.35,0.4c-0.267,0.233-0.5,0.399-0.7,0.5c-0.3,0.166-0.55,0.149-0.75-0.051
			c-2.267,1.834-4.066,3.101-5.399,3.801c-0.434,0.233-1.467,0.633-3.101,1.199c-1.566,0.567-2.6,0.9-3.1,1
			c0.533-1.066,0.8-2.216,0.8-3.449c0.1-14.734,0.15-22.317,0.15-22.75L29.55,9.4c0.3-0.267,1.634-0.933,4-2
			C36.217,6.2,38,5.317,38.9,4.75c0.366-0.233,1.033-0.667,2-1.3c0.833-0.534,1.366-0.917,1.6-1.15
			C43.033,2.8,43.417,3.467,43.65,4.3z"/>
	</g>
</g>
</svg>
