<?xml version="1.0" encoding="iso-8859-1"?>
<!-- Generator: Adobe Illustrator 15.1.0, SVG Export Plug-In . SVG Version: 6.00 Build 0)  -->
<!DOCTYPE svg PUBLIC "-//W3C//DTD SVG 1.1//EN" "http://www.w3.org/Graphics/SVG/1.1/DTD/svg11.dtd">
<svg version="1.1" xmlns="http://www.w3.org/2000/svg" xmlns:xlink="http://www.w3.org/1999/xlink" x="0px" y="0px" width="60px"
	 height="60px" viewBox="0 0 60 60" style="enable-background:new 0 0 60 60;" xml:space="preserve">
<symbol  id="FlashAICB_x5F_0_x2F_Layer_1_x2F__x3C_Path_x3E__x5F_11" viewBox="0 -8.45 12.55 8.45">
	<g id="Layer_1_5_">
		<path style="fill-rule:evenodd;clip-rule:evenodd;" d="M12.45-1.95h0.05l0.05-4.4H12.5c-0.6,0-1.083-0.217-1.45-0.65
			c-0.333-0.4-0.483-0.883-0.45-1.45H1.8c0.034,0.534-0.1,1-0.4,1.4C1.067-6.617,0.6-6.383,0-6.35l0.1,4.4
			C1.267-1.917,1.883-1.267,1.95,0h8.6c0-0.533,0.167-0.983,0.5-1.35C11.383-1.75,11.85-1.95,12.45-1.95z"/>
	</g>
</symbol>
<symbol  id="FlashAICB_x5F_0_x2F_Layer_1_x2F__x3C_Path_x3E__x5F_14" viewBox="0 -18 22.55 18">
	<g id="Layer_1_4_">
		<polygon style="fill-rule:evenodd;clip-rule:evenodd;fill:#FFFFFF;" points="22.5,-14.4 20.9,-17.95 1.45,-17.95 1.4,-18 
			1.4,-17.95 0,-15.1 9.5,-0.1 9.5,0 12.4,0 22.55,-14.4 		"/>
	</g>
</symbol>
<symbol  id="FlashAICB_x5F_0_x2F_Layer_1_x2F__x3C_Path_x3E__x5F_23" viewBox="0 -4.4 49.25 4.4">
	<g id="Layer_1_3_">
		
			<radialGradient id="SVGID_1_" cx="24.5498" cy="-3" r="23.7" gradientTransform="matrix(1 0 0 -0.1403 0 -3.4209)" gradientUnits="userSpaceOnUse">
			<stop  offset="0" style="stop-color:#000000"/>
			<stop  offset="0.9216" style="stop-color:#000000;stop-opacity:0.1686"/>
			<stop  offset="1" style="stop-color:#000000;stop-opacity:0"/>
		</radialGradient>
		<path style="fill-rule:evenodd;clip-rule:evenodd;fill:url(#SVGID_1_);" d="M49.25-2.65c0-0.733-1.817-1.217-5.45-1.45
			c-3.233-0.2-9.75-0.3-19.55-0.3C14.183-4.4,7.667-4.3,4.7-4.1C1.567-3.867,0-3.383,0-2.65S2.4-1.3,7.2-0.8C12-0.267,17.8,0,24.6,0
			c6.8,0,12.617-0.267,17.45-0.8C46.85-1.3,49.25-1.917,49.25-2.65z"/>
	</g>
</symbol>
<symbol  id="FlashAICB_x5F_0_x2F_Layer_1_x2F__x3C_Path_x3E__x5F_9" viewBox="0 -17.65 26.3 17.65">
	<g id="Layer_1_6_">
		<path style="fill-rule:evenodd;clip-rule:evenodd;fill:#FFFFFF;" d="M26.3-5.05c-6-0.434-11.517-2.067-16.55-4.9
			c-3.633-2.033-6.883-4.6-9.75-7.7L0.5,0h25.7L26.3-5.05z"/>
	</g>
</symbol>
<symbol  id="transparent_x5F_box" viewBox="0 -50 50 50">
	<g id="Layer_1_2_">
		<polygon style="fill-rule:evenodd;clip-rule:evenodd;fill:#CCCCCC;" points="50,-50 0,-50 0,0 50,0 		"/>
	</g>
</symbol>
<g id="Layer_1">
	
		<use xlink:href="#transparent_x5F_box"  width="50" height="50" y="-50" transform="matrix(1.2 0 0 -1.2 0 0)" style="overflow:visible;opacity:0;"/>
</g>
<g id="Layer_1_1_">
	<g>
		
			<use xlink:href="#FlashAICB_x5F_0_x2F_Layer_1_x2F__x3C_Path_x3E__x5F_23"  width="49.25" height="4.4" y="-4.4" transform="matrix(1.2 0 0 -1.2 0.3501 53.8496)" style="overflow:visible;opacity:0.6406;enable-background:new    ;"/>
		
			<linearGradient id="SVGID_2_" gradientUnits="userSpaceOnUse" x1="191.4961" y1="-110.0078" x2="194.718" y2="-110.0078" gradientTransform="matrix(-0.1397 1.1918 -1.1918 -0.1397 -84.4511 -188.7499)">
			<stop  offset="0" style="stop-color:#341706"/>
			<stop  offset="1" style="stop-color:#7E3F1B"/>
		</linearGradient>
		<polygon style="fill-rule:evenodd;clip-rule:evenodd;fill:url(#SVGID_2_);" points="18.03,49.93 24.39,53.05 22.53,59.109 
			15.149,59.109 		"/>
		
			<linearGradient id="SVGID_3_" gradientUnits="userSpaceOnUse" x1="102.2227" y1="206.1836" x2="102.5977" y2="202.9836" gradientTransform="matrix(1.2 0 0 1.2 -84.4501 -188.7499)">
			<stop  offset="0" style="stop-color:#341706"/>
			<stop  offset="1" style="stop-color:#7E3F1B"/>
		</linearGradient>
		<polygon style="fill-rule:evenodd;clip-rule:evenodd;fill:url(#SVGID_3_);" points="40.29,49.93 43.109,59.109 35.79,59.109 
			33.93,53.05 		"/>
		
			<radialGradient id="SVGID_4_" cx="94.4004" cy="180.6504" r="21.0625" gradientTransform="matrix(1.2 0 0 -1.1395 -84.4501 233.8745)" gradientUnits="userSpaceOnUse">
			<stop  offset="0" style="stop-color:#201B1B"/>
			<stop  offset="1" style="stop-color:#3B3B3B"/>
		</radialGradient>
		<polygon style="fill-rule:evenodd;clip-rule:evenodd;fill:url(#SVGID_4_);" points="48.269,0.669 50.009,55.39 7.649,55.39 
			9.63,0.669 		"/>
		
			<radialGradient id="SVGID_5_" cx="94.4004" cy="180.5752" r="20.4266" gradientTransform="matrix(1.2 0 0 -1.1397 -84.4501 233.7486)" gradientUnits="userSpaceOnUse">
			<stop  offset="0" style="stop-color:#595959"/>
			<stop  offset="0.9922" style="stop-color:#372F30"/>
		</radialGradient>
		<polygon style="fill-rule:evenodd;clip-rule:evenodd;fill:url(#SVGID_5_);" points="47.729,1.39 49.35,54.489 8.31,54.489 
			10.23,1.39 		"/>
		
			<radialGradient id="SVGID_6_" cx="94.4004" cy="180.5254" r="19.7728" gradientTransform="matrix(1.2 0 0 -1.1401 -84.4501 233.699)" gradientUnits="userSpaceOnUse">
			<stop  offset="0" style="stop-color:#201B1B"/>
			<stop  offset="1" style="stop-color:#3B3B3B"/>
		</radialGradient>
		<polygon style="fill-rule:evenodd;clip-rule:evenodd;fill:url(#SVGID_6_);" points="47.189,2.169 48.689,53.59 8.969,53.59 
			10.769,2.169 		"/>
		
			<radialGradient id="SVGID_7_" cx="94.4004" cy="180.4248" r="18.8022" gradientTransform="matrix(1.2 0 0 -1.1401 -84.4501 233.4646)" gradientUnits="userSpaceOnUse">
			<stop  offset="0" style="stop-color:#595959"/>
			<stop  offset="0.9922" style="stop-color:#372F30"/>
		</radialGradient>
		<polygon style="fill-rule:evenodd;clip-rule:evenodd;fill:url(#SVGID_7_);" points="46.29,3.309 47.669,52.209 9.99,52.209 
			11.609,3.309 		"/>
		
			<linearGradient id="SVGID_8_" gradientUnits="userSpaceOnUse" x1="178.8916" y1="37.4502" x2="222.587" y2="37.4502" gradientTransform="matrix(0.7408 0.944 -0.944 0.7408 -84.4501 -188.7498)">
			<stop  offset="0" style="stop-color:#EAE3DD"/>
			<stop  offset="1" style="stop-color:#CCC5C0"/>
		</linearGradient>
		<polygon style="fill-rule:evenodd;clip-rule:evenodd;fill:url(#SVGID_8_);" points="45.03,4.39 46.229,50.89 11.43,50.89 
			12.869,4.39 		"/>
		
			<radialGradient id="SVGID_9_" cx="94.4248" cy="180.1992" r="15.5029" gradientTransform="matrix(1.2 0 0 -1.1787 -84.4501 239.8937)" gradientUnits="userSpaceOnUse">
			<stop  offset="0" style="stop-color:#595959"/>
			<stop  offset="0.9922" style="stop-color:#282222"/>
		</radialGradient>
		<polygon style="fill-rule:evenodd;clip-rule:evenodd;fill:url(#SVGID_9_);" points="44.069,48.609 13.649,48.609 14.79,6.369 
			43.109,6.369 		"/>
		
			<use xlink:href="#FlashAICB_x5F_0_x2F_Layer_1_x2F__x3C_Path_x3E__x5F_14"  width="22.55" height="18" y="-18" transform="matrix(1.2 0 0 -1.2 15.8999 9.2998)" style="overflow:visible;opacity:0.2383;enable-background:new    ;"/>
		<polygon style="fill-rule:evenodd;clip-rule:evenodd;" points="26.49,8.169 29.909,8.169 41.85,25.03 41.79,25.03 39.81,29.23 
			16.769,29.23 16.709,29.29 16.709,29.23 15.03,25.869 26.49,8.23 		"/>
		
			<radialGradient id="SVGID_10_" cx="94.2998" cy="170.2998" r="13.475" gradientTransform="matrix(1.2 0 0 -1.2 -84.4501 219.9686)" gradientUnits="userSpaceOnUse">
			<stop  offset="0" style="stop-color:#FF0017"/>
			<stop  offset="1" style="stop-color:#DB000F"/>
		</radialGradient>
		<polygon style="fill-rule:evenodd;clip-rule:evenodd;fill:url(#SVGID_10_);" points="26.669,8.709 30.149,8.709 42.209,25.75 
			42.149,25.75 40.169,29.949 16.95,29.949 16.95,30.009 16.89,29.949 15.269,26.59 26.669,8.769 		"/>
		<path style="fill-rule:evenodd;clip-rule:evenodd;fill:#FF536F;" d="M30.81,20.109c-0.36-0.32-0.779-0.459-1.26-0.419l1.02,3.24
			c0.681-0.4,0.961-1,0.84-1.8C31.369,20.729,31.169,20.389,30.81,20.109z M28.409,18.909l-0.479-1.44
			c-1.561,0.681-2.32,1.68-2.281,3c0.04,0.92,0.48,1.7,1.32,2.34c0.84,0.64,1.8,0.82,2.88,0.541l-1.14-3.419h-0.12
			c-0.32,0-0.541,0.199-0.66,0.6c-0.121,0.4-0.101,0.76,0.06,1.08c0.399-0.12,0.7-0.1,0.9,0.06c0.28,0.201,0.4,0.44,0.36,0.721
			c-0.08,0.28-0.32,0.419-0.72,0.419h-0.18c-0.28-0.08-0.48-0.179-0.6-0.3c-0.24-0.16-0.419-0.34-0.54-0.54
			c-0.36-0.64-0.4-1.26-0.12-1.86C27.37,19.549,27.809,19.149,28.409,18.909z M25.23,17.95c0.559-0.801,1.3-1.44,2.22-1.92
			l-0.181-0.48c-0.6-1.36-0.6-2.62,0-3.78c0.32-0.72,0.8-1.079,1.44-1.079c0.68-0.04,1.24,0.439,1.68,1.44
			c0.521,1.359,0.32,2.68-0.6,3.96c-0.121,0.199-0.48,0.499-1.08,0.9l0.54,1.679c0.84-0.04,1.661,0.24,2.459,0.84
			c0.761,0.721,1.001,1.56,0.721,2.521c-0.24,0.88-0.761,1.48-1.561,1.8c0.319,0.959,0.36,1.82,0.121,2.579
			c-0.28,0.8-0.92,1.28-1.921,1.44c-1,0.119-1.739-0.14-2.219-0.781c-0.4-0.479-0.5-0.959-0.3-1.439c0.201-0.48,0.6-0.741,1.2-0.78
			c0.6-0.04,1,0.18,1.2,0.66c0.32,0.76,0,1.24-0.96,1.44c0.399,0.24,0.84,0.3,1.319,0.181c0.48-0.121,0.8-0.361,0.96-0.721
			c0.24-0.64,0.2-1.399-0.12-2.279c-1.44,0.439-2.72,0.32-3.84-0.361c-1-0.6-1.619-1.5-1.859-2.7
			C24.289,19.95,24.549,18.909,25.23,17.95z M28.83,11.83c-0.161,0.04-0.401,0.32-0.721,0.839c-0.36,0.88-0.3,1.881,0.18,3
			c1.121-0.559,1.56-1.5,1.32-2.819C29.369,12.13,29.11,11.789,28.83,11.83z"/>
		
			<linearGradient id="SVGID_11_" gradientUnits="userSpaceOnUse" x1="-199.4653" y1="40.9219" x2="-188.9771" y2="40.9219" gradientTransform="matrix(-0.3393 -1.151 1.151 -0.3393 -84.4505 -188.7498)">
			<stop  offset="0" style="stop-color:#88000A"/>
			<stop  offset="1" style="stop-color:#5C0005"/>
		</linearGradient>
		<path style="fill-rule:evenodd;clip-rule:evenodd;fill:url(#SVGID_11_);" d="M30.689,19.99c-0.4-0.32-0.84-0.46-1.32-0.421
			l1.021,3.3c0.68-0.36,0.979-0.98,0.9-1.86C31.21,20.61,31.01,20.27,30.689,19.99z M28.23,18.79l-0.48-1.44
			c-1.52,0.64-2.28,1.639-2.28,3c0.081,0.92,0.52,1.7,1.32,2.34c0.88,0.64,1.84,0.84,2.879,0.6l-1.079-3.42l-0.181-0.06
			c-0.32,0.04-0.54,0.26-0.66,0.66c-0.12,0.361-0.1,0.701,0.06,1.021c0.36-0.121,0.66-0.08,0.9,0.12c0.28,0.2,0.4,0.42,0.359,0.66
			c-0.04,0.28-0.259,0.42-0.66,0.42H28.23c-0.2,0-0.421-0.08-0.661-0.24c-0.199-0.119-0.379-0.32-0.539-0.6
			c-0.361-0.6-0.4-1.22-0.121-1.86C27.189,19.469,27.63,19.07,28.23,18.79z M29.43,12.79c-0.121-0.721-0.381-1.061-0.781-1.021
			c-0.24,0.081-0.46,0.361-0.66,0.84c-0.401,0.959-0.34,1.96,0.179,3C29.29,14.93,29.71,13.99,29.43,12.79z M27.09,11.649
			c0.399-0.68,0.9-1.04,1.5-1.081c0.36,0,0.7,0.181,1.02,0.541c0.28,0.32,0.48,0.64,0.6,0.959c0.48,1.321,0.28,2.641-0.6,3.961
			c-0.24,0.32-0.6,0.6-1.08,0.839l0.539,1.68c1.001-0.04,1.82,0.26,2.461,0.9c0.759,0.68,0.999,1.5,0.719,2.459
			c-0.24,0.92-0.76,1.52-1.56,1.8c0.32,1.081,0.36,1.941,0.12,2.581c-0.28,0.799-0.9,1.28-1.86,1.44c-1,0.12-1.76-0.141-2.281-0.781
			c-0.32-0.52-0.419-1-0.3-1.44c0.2-0.479,0.6-0.74,1.2-0.779c0.6-0.041,1.001,0.179,1.2,0.66c0.32,0.759,0,1.24-0.96,1.44
			c0.401,0.239,0.84,0.3,1.321,0.179c0.479-0.12,0.799-0.36,0.96-0.72c0.28-0.64,0.24-1.4-0.121-2.28
			c-1.439,0.44-2.7,0.32-3.779-0.36c-1.041-0.6-1.661-1.5-1.86-2.7c-0.201-1.081,0.04-2.1,0.719-3.06c0.561-0.76,1.3-1.4,2.22-1.92
			l-0.12-0.479C26.549,14.169,26.53,12.889,27.09,11.649z"/>
		
			<use xlink:href="#FlashAICB_x5F_0_x2F_Layer_1_x2F__x3C_Path_x3E__x5F_11"  width="12.55" height="8.45" y="-8.45" transform="matrix(1.2 0 0 -1.2 21.3501 36.7002)" style="overflow:visible;opacity:0.3008;enable-background:new    ;"/>
		
			<linearGradient id="SVGID_12_" gradientUnits="userSpaceOnUse" x1="88.2002" y1="191.8496" x2="100.7002" y2="191.8496" gradientTransform="matrix(1.2 0 0 1.2 -84.4501 -188.7499)">
			<stop  offset="0" style="stop-color:#FFD852"/>
			<stop  offset="0.1529" style="stop-color:#FFEE4F"/>
			<stop  offset="0.3686" style="stop-color:#F4AC3C"/>
			<stop  offset="0.6549" style="stop-color:#C99104"/>
			<stop  offset="0.8157" style="stop-color:#FFB34A"/>
			<stop  offset="1" style="stop-color:#EDED74"/>
		</linearGradient>
		<path style="fill-rule:evenodd;clip-rule:evenodd;fill:url(#SVGID_12_);" d="M23.49,46.509c0.04-0.64-0.121-1.199-0.48-1.679
			c-0.399-0.48-0.96-0.741-1.679-0.78l0.12-5.281c0.68-0.039,1.24-0.3,1.68-0.779c0.36-0.44,0.539-0.959,0.539-1.56H33.93
			c0.04,0.64,0.259,1.181,0.66,1.62c0.399,0.48,0.96,0.719,1.679,0.719h0.062l0.06,5.281l-0.06-0.061
			c-0.721,0-1.301,0.28-1.74,0.841c-0.401,0.479-0.58,1.039-0.54,1.679H23.49z"/>
		<path style="fill-rule:evenodd;clip-rule:evenodd;fill:#CF7923;" d="M24.33,37.09c-0.161,1.279-0.86,1.979-2.1,2.1v4.38
			c0.559,0.08,1.02,0.36,1.379,0.84c0.32,0.44,0.5,0.939,0.54,1.5h9.24c0-0.68,0.221-1.24,0.66-1.68c0.359-0.36,0.859-0.58,1.5-0.66
			l-0.061-4.38c-1.279-0.12-2-0.82-2.159-2.1H24.33z M22.049,38.949c0.6,0,1.101-0.22,1.5-0.659c0.32-0.401,0.5-0.881,0.541-1.44
			h9.479c0,0.56,0.18,1.039,0.54,1.44c0.4,0.439,0.92,0.659,1.56,0.659h0.061l0.061,4.86h-0.061c-0.681,0-1.22,0.24-1.62,0.721
			c-0.36,0.439-0.521,0.979-0.479,1.619h-9.721c0.04-0.6-0.1-1.12-0.419-1.56c-0.401-0.48-0.92-0.741-1.56-0.78L22.049,38.949z"/>
		<g>
			<path style="fill-rule:evenodd;clip-rule:evenodd;fill:#FFFFFF;" d="M28.23,39.189h-0.54v5.101h0.54
				c0.519,0,0.96-0.061,1.319-0.181c0.439-0.12,0.761-0.3,0.96-0.54c0.6-0.479,0.899-1.1,0.899-1.86c0-0.759-0.28-1.379-0.84-1.859
				C30.01,39.41,29.229,39.189,28.23,39.189z M28.169,38.229c0.84,0,1.46,0.061,1.861,0.18c0.479,0.121,0.939,0.359,1.379,0.721
				c0.801,0.68,1.2,1.54,1.2,2.579c0,1.12-0.42,2.001-1.26,2.641c-0.399,0.359-0.84,0.6-1.319,0.72
				c-0.481,0.12-1.101,0.18-1.861,0.18H26.49l0.06-7.02H28.169z"/>
			
				<linearGradient id="SVGID_13_" gradientUnits="userSpaceOnUse" x1="-215.5166" y1="-21.9253" x2="-209.0586" y2="-21.9253" gradientTransform="matrix(-0.6364 -1.0173 1.0173 -0.6364 -84.4505 -188.7508)">
				<stop  offset="0" style="stop-color:#975300"/>
				<stop  offset="0.9922" style="stop-color:#813E00"/>
			</linearGradient>
			<path style="fill-rule:evenodd;clip-rule:evenodd;fill:url(#SVGID_13_);" d="M28.109,39.009h-0.541l-0.06,5.101h0.54
				c0.561,0,1.02-0.06,1.381-0.18c0.32-0.12,0.64-0.3,0.959-0.54c0.561-0.44,0.84-1.061,0.84-1.859c0-0.801-0.279-1.421-0.84-1.861
				C29.83,39.229,29.069,39.009,28.109,39.009z M28.049,38.05c0.761,0,1.381,0.06,1.86,0.18c0.44,0.12,0.88,0.36,1.32,0.72
				c0.8,0.68,1.2,1.54,1.2,2.581c0,1.119-0.421,1.999-1.261,2.639c-0.439,0.361-0.88,0.6-1.319,0.721
				c-0.4,0.119-1.02,0.18-1.86,0.18h-1.681l0.06-7.02H28.049z"/>
		</g>
		
			<use xlink:href="#FlashAICB_x5F_0_x2F_Layer_1_x2F__x3C_Path_x3E__x5F_9"  width="26.3" height="17.65" y="-17.65" transform="matrix(1.2 0 0 -1.2 12.9502 5.0498)" style="overflow:visible;opacity:0.1992;enable-background:new    ;"/>
		
			<linearGradient id="SVGID_14_" gradientUnits="userSpaceOnUse" x1="-204.0947" y1="94.5566" x2="-202.7947" y2="94.5566" gradientTransform="matrix(9.230744e-004 -1.2 1.2 -0.0012 -84.4502 -188.7496)">
			<stop  offset="0" style="stop-color:#341706"/>
			<stop  offset="1" style="stop-color:#7E3F1B"/>
		</linearGradient>
		<rect x="7.23" y="54.189" style="fill-rule:evenodd;clip-rule:evenodd;fill:url(#SVGID_14_);" width="43.2" height="1.44"/>
		<path style="fill-rule:evenodd;clip-rule:evenodd;fill:#663214;" d="M13.35,56.05l-0.84-0.48l-0.72-0.96
			c0.04,0-0.02-0.38-0.18-1.141l0.78-0.3l0.84-0.119l0.239,1.38c0.2,0.56,0.44,0.96,0.721,1.2
			C13.749,55.91,13.469,56.05,13.35,56.05z"/>
		<polygon style="fill-rule:evenodd;clip-rule:evenodd;fill:#C66630;" points="10.769,54.369 9.39,53.29 10.53,53.05 13.23,53.05 
			12.39,53.29 		"/>
		<path style="fill-rule:evenodd;clip-rule:evenodd;fill:#7E3F1B;" d="M12.569,54.31c0.081,0.8,0.341,1.38,0.781,1.74h-3.9
			c-0.161-0.12-0.26-0.4-0.3-0.841c-0.08-0.319-0.06-0.739,0.06-1.26l0.18-0.659h3.12L12.569,54.31z"/>
		<path style="fill-rule:evenodd;clip-rule:evenodd;fill:#9F5025;" d="M46.169,54.609c0.081,0.04-0.159,0.359-0.72,0.96
			c-0.399,0.279-0.68,0.44-0.84,0.48l-0.841-0.42c0.28-0.24,0.501-0.641,0.661-1.2l0.3-1.38l0.84,0.119l0.78,0.3
			C46.188,54.229,46.129,54.609,46.169,54.609z"/>
		<polygon style="fill-rule:evenodd;clip-rule:evenodd;fill:#C66630;" points="47.13,54.369 45.569,53.29 44.729,53.05 47.43,53.05 
			48.509,53.29 		"/>
		<path style="fill-rule:evenodd;clip-rule:evenodd;fill:#7E3F1B;" d="M44.609,56.05c0.4-0.36,0.659-0.94,0.78-1.74l0.06-1.02h3.06
			l0.181,0.659c0.12,0.521,0.159,0.94,0.12,1.26c-0.08,0.44-0.18,0.721-0.301,0.841H44.609z"/>
	</g>
</g>
</svg>
