<?xml version="1.0" encoding="iso-8859-1"?>
<!-- Generator: Adobe Illustrator 15.1.0, SVG Export Plug-In . SVG Version: 6.00 Build 0)  -->
<!DOCTYPE svg PUBLIC "-//W3C//DTD SVG 1.1//EN" "http://www.w3.org/Graphics/SVG/1.1/DTD/svg11.dtd">
<svg version="1.1" id="FlashAICB" xmlns="http://www.w3.org/2000/svg" xmlns:xlink="http://www.w3.org/1999/xlink" x="0px" y="0px"
	 width="66px" height="66.05px" viewBox="0 0 66 66.05" style="enable-background:new 0 0 66 66.05;" xml:space="preserve">
<g>
	<path style="fill-rule:evenodd;clip-rule:evenodd;fill:#957E41;" d="M38.75,62.7l-0.1,0.149L38.7,65.2
		c0,0.399,0.033,0.616,0.1,0.649c0.034,0,0.017,0.067-0.05,0.2c-1.833,0-3.7-0.149-5.6-0.45c-0.767,0-2.233-0.183-4.4-0.55
		c-2-0.3-3.283-0.533-3.85-0.7c-0.367-0.166-0.584-0.633-0.65-1.399c-0.066-0.867,0.233-1.617,0.9-2.25
		c-0.167,0.2-0.3,0.417-0.4,0.649c0.8-0.066,2.867,0.101,6.2,0.5C35.184,62.35,37.783,62.633,38.75,62.7z"/>
	<path style="fill-rule:evenodd;clip-rule:evenodd;fill:#594B29;" d="M46.35,59.15c0.268,0.699,0.018,1.482-0.75,2.35
		c-1.3,1.434-2.467,2.533-3.5,3.3c-0.232,0.167-0.783,0.4-1.649,0.7c-0.833,0.3-1.4,0.483-1.7,0.55c0.066-0.133,0.084-0.2,0.05-0.2
		c-0.066-0.033-0.1-0.25-0.1-0.649l-0.05-2.351l0.1-0.149c0.133-0.2,0.85-0.684,2.15-1.45c1.434-0.867,2.383-1.5,2.85-1.9
		c1.133-0.933,1.783-1.517,1.95-1.75c0.233,0.301,0.45,0.801,0.649,1.5V59.15z"/>
	<path style="fill-rule:evenodd;clip-rule:evenodd;fill:#9D8444;" d="M25.15,60.7c0.767-0.7,1.866-1.533,3.3-2.5
		c1.733-1.167,2.917-1.783,3.55-1.851h0.25c1.233-0.066,2.85-0.05,4.85,0.051c2.033,0.066,3.7,0.217,5,0.449
		c0.434,0.101,1.134,0.2,2.101,0.301c0.833,0.1,1.333,0.25,1.5,0.449c-0.167,0.233-0.817,0.817-1.95,1.75
		c-0.467,0.4-1.416,1.033-2.85,1.9c-1.301,0.767-2.018,1.25-2.15,1.45c-0.967-0.067-3.566-0.351-7.8-0.851
		c-3.333-0.399-5.4-0.566-6.2-0.5C24.85,61.117,24.983,60.9,25.15,60.7z"/>
	<path style="fill-rule:evenodd;clip-rule:evenodd;fill:#B99C54;" d="M45.7,57.6c-0.2,0.434-0.5,0.817-0.9,1.15
		c-2.167,1.8-3.533,2.883-4.1,3.25c-0.934,0.467-1.4,0.967-1.4,1.5c0,0.133-0.017,0.083-0.05-0.15c-0.066-0.199-0.1,0.051-0.1,0.75
		c0,0.967-0.134,1.617-0.4,1.95c0.066-0.1,0.033-0.533-0.1-1.3c-0.134-0.833-0.2-1.316-0.2-1.45l-3.5-0.6
		c-0.8-0.134-2.317-0.351-4.55-0.65c-2.367-0.333-3.75-0.5-4.15-0.5l-1.5-0.2l0.8-0.149c0.8-0.101,1.851-0.05,3.15,0.149
		c2.1,0.301,5.134,0.65,9.1,1.051c0.534,0.066,1.101-0.051,1.7-0.351c0.3-0.167,1.483-1,3.55-2.5
		C43.883,58.983,44.767,58.333,45.7,57.6z"/>
	<path style="fill-rule:evenodd;clip-rule:evenodd;fill:#715E2C;" d="M44.55,57.4c0.034,0.066-0.1,0.217-0.399,0.449
		c-0.801,0.733-1.566,1.384-2.301,1.95c-1.433,1.067-2.616,1.65-3.55,1.75c-0.899,0.101-2.767-0.066-5.6-0.5l-4-0.7l1.2-0.5
		L41.45,57l2.3,0.15C44.25,57.217,44.517,57.3,44.55,57.4z"/>
	<path style="fill-rule:evenodd;clip-rule:evenodd;fill:#846E35;" d="M29.35,60.6c-0.367-0.066-0.617-0.232-0.75-0.5
		c-0.2-0.399-0.317-1.166-0.35-2.3c-0.1-1.833-0.133-3.183-0.1-4.05c0-1.222,0.133-2.055,0.399-2.5v0.05
		c0.9-0.033,3.917,0.25,9.05,0.851l-0.05,0.05l-0.1,8.05c0.033,0.434-0.05,0.85-0.25,1.25c-1.4-0.167-2.467-0.267-3.2-0.3
		C33.7,61.2,32.15,61,29.35,60.6z"/>
	<path style="fill-rule:evenodd;clip-rule:evenodd;fill:#524525;" d="M42.55,50.35L42.6,50.4C42.7,50.967,42.717,53.1,42.65,56.8
		c0,0.233-0.018,0.517-0.051,0.851c-0.033,0.267-0.116,0.517-0.25,0.75c-0.166,0.267-0.633,0.683-1.399,1.25
		c-0.733,0.533-1.25,0.883-1.55,1.05c-0.167,0.1-0.533,0.25-1.101,0.45c-0.566,0.199-0.933,0.316-1.1,0.35
		c0.2-0.4,0.283-0.816,0.25-1.25l0.1-8.05l0.05-0.05c0.2-0.2,1.301-0.75,3.301-1.65l1.3-0.9
		C42.367,49.767,42.483,50.017,42.55,50.35z"/>
	
		<linearGradient id="SVGID_1_" gradientUnits="userSpaceOnUse" x1="28.6318" y1="50.4238" x2="42.2568" y2="50.4238" gradientTransform="matrix(1 0.0019 -0.0019 1 -1.973812e-004 8.609460e-005)">
		<stop  offset="0" style="stop-color:#A8E0F1"/>
		<stop  offset="1" style="stop-color:#87C9DD"/>
	</linearGradient>
	<path style="fill-rule:evenodd;clip-rule:evenodd;fill:url(#SVGID_1_);" d="M28.55,51.3c0.034-0.133,0.117-0.233,0.25-0.3
		c0.467-0.333,1.2-0.75,2.2-1.25c1.1-0.566,1.867-0.867,2.3-0.9h0.15c2.2-0.066,4.333,0.051,6.399,0.351
		c1.467,0.2,2.25,0.333,2.351,0.399l-1.3,0.9c-2,0.9-3.101,1.45-3.301,1.65C32.467,51.55,29.45,51.267,28.55,51.3z"/>
	<path style="fill-rule:evenodd;clip-rule:evenodd;fill:#B99C54;" d="M32.2,51.7c-1.533-0.167-2.434-0.25-2.7-0.25l-0.95-0.15
		l0.55-0.05c0.5-0.033,1.167,0,2,0.1L37,51.95c0.367,0.066,0.733,0.017,1.1-0.15c0.2-0.066,0.984-0.483,2.351-1.25l1.75-0.95
		L41.6,50.2l-2.75,1.6c-0.467,0.2-0.766,0.384-0.899,0.55L37.8,59.7c0,0.5-0.033,0.816-0.1,0.95
		c-0.067,0.232-0.217,0.467-0.45,0.699c0.1-0.133,0.15-0.383,0.15-0.75l0.1-3.55c0.066-0.933,0.066-1.883,0-2.85l-0.1-1.75
		L35.15,52.1C34.684,52.033,33.7,51.9,32.2,51.7z"/>
	<path style="fill-rule:evenodd;clip-rule:evenodd;fill:#957E41;" d="M48.2,48c0.167,2.066,0.167,3.133,0,3.2
		c-1.3,0.933-2.45,1.683-3.45,2.25c-1.767,1.066-3.8,2.033-6.1,2.899c-0.334,0.134-1.066,0.15-2.2,0.051
		c-9.733-0.834-14.634-1.367-14.7-1.601c-0.1-0.333-0.1-1.217,0-2.649c0.033-0.268,0.15-0.483,0.35-0.65
		c0.1-0.066,0.267-0.167,0.5-0.3L48.2,48z"/>
	<path style="fill-rule:evenodd;clip-rule:evenodd;fill:#594B29;" d="M48.2,48c0.167,2.066,0.167,3.133,0,3.2
		c-1.3,0.933-2.45,1.683-3.45,2.25c-1.767,1.066-3.8,2.033-6.1,2.899c-0.2,0.067-0.384,0.101-0.551,0.101l-0.05-2.15
		c-0.033-1-0.35-1.8-0.95-2.399c-0.566-0.567-1.283-0.884-2.149-0.95c-0.733-0.434-1.667-0.667-2.8-0.7l-1-0.1L48.2,48z"/>
	<path style="fill-rule:evenodd;clip-rule:evenodd;fill:#B99C54;" d="M37.65,54.05l0.199-1c0,0.134,0.084,0.3,0.25,0.5L38.15,53.9
		L38.1,55.75c0,0.4-0.05,0.65-0.149,0.75L37.65,54.05z"/>
	
		<linearGradient id="SVGID_2_" gradientUnits="userSpaceOnUse" x1="30.7422" y1="-13.2729" x2="61.8999" y2="-13.2729" gradientTransform="matrix(0.3054 0.9522 -0.9522 0.3054 -2.717972e-005 1.005530e-004)">
		<stop  offset="0" style="stop-color:#CBDC75"/>
		<stop  offset="1" style="stop-color:#6F8529"/>
	</linearGradient>
	<path style="fill-rule:evenodd;clip-rule:evenodd;fill:url(#SVGID_2_);" d="M12.5,32.2c0.05-3.25,0.417-5.517,1.1-6.8
		c1.466-0.067,5.267,0.233,11.4,0.9c7.7,0.833,12.434,1.317,14.2,1.45c-0.101,0.066-0.15,0.133-0.15,0.2
		c0,0.433-0.05,8.017-0.149,22.75c0,1.233-0.268,2.383-0.801,3.45c-3.933-0.467-6.933-0.717-9-0.75c-1.7-0.067-6.067-0.65-13.1-1.75
		c-1.133-0.167-1.883-0.634-2.25-1.4c-0.566-1.1-0.867-3.267-0.9-6.5C12.617,38.517,12.5,34.667,12.5,32.2z"/>
	
		<linearGradient id="SVGID_3_" gradientUnits="userSpaceOnUse" x1="39.4277" y1="-29.1064" x2="66.9651" y2="-29.1064" gradientTransform="matrix(0.3549 0.9349 -0.9349 0.3549 1.026392e-004 -7.933378e-005)">
		<stop  offset="0" style="stop-color:#8E9C45"/>
		<stop  offset="1" style="stop-color:#5A6C21"/>
	</linearGradient>
	<path style="fill-rule:evenodd;clip-rule:evenodd;fill:url(#SVGID_3_);" d="M48.5,23.05c2.033-1.233,3.25-2.05,3.65-2.45
		c0.566,0.5,0.934,1.183,1.1,2.05l0.05,0.15v0.05c0.167,1.066,0.25,4.15,0.25,9.25c0,4.567-0.033,7.5-0.1,8.8
		c0,0.6-0.017,1.383-0.05,2.35c-0.066,0.8-0.316,1.517-0.75,2.15C52.184,46.1,50.834,47.3,48.6,49c-2,1.533-3.433,2.533-4.3,3
		c-0.466,0.233-1.5,0.633-3.1,1.2c-1.634,0.566-2.667,0.883-3.101,0.95c0.533-1.067,0.801-2.217,0.801-3.45
		C39,35.967,39.05,28.383,39.05,27.95c0-0.067,0.05-0.134,0.15-0.2c0.3-0.267,1.634-0.95,4-2.05
		C45.867,24.5,47.633,23.617,48.5,23.05z"/>
	
		<linearGradient id="SVGID_4_" gradientUnits="userSpaceOnUse" x1="13.6504" y1="22.9941" x2="52.1904" y2="22.9941" gradientTransform="matrix(1 0.002 -0.002 1 4.136795e-005 -4.793052e-005)">
		<stop  offset="0" style="stop-color:#E0F281"/>
		<stop  offset="1" style="stop-color:#7E962E"/>
	</linearGradient>
	<path style="fill-rule:evenodd;clip-rule:evenodd;fill:url(#SVGID_4_);" d="M45.6,19.45c0.768,0.1,2.051,0.233,3.851,0.4
		c1.5,0.2,2.399,0.45,2.7,0.75c-0.4,0.4-1.617,1.216-3.65,2.45c-0.867,0.567-2.633,1.45-5.3,2.65c-2.366,1.1-3.7,1.783-4,2.05
		c-1.767-0.133-6.5-0.617-14.2-1.45c-6.133-0.667-9.934-0.967-11.4-0.9c0.233-0.4,0.5-0.716,0.8-0.95c1.433-1,3.483-2.167,6.149-3.5
		c3.2-1.634,5.384-2.467,6.55-2.5l0.5-0.05c2.333-0.066,5.267,0,8.8,0.2C40.233,18.8,43.3,19.083,45.6,19.45z"/>
	<path style="fill-rule:evenodd;clip-rule:evenodd;fill:#DEEB79;" d="M47.2,23.3c1.6-0.767,3.25-1.667,4.95-2.7
		c-0.4,0.566-0.967,1.1-1.7,1.6c-0.634,0.433-1.9,1.216-3.8,2.35c-2.066,1.233-3.351,1.967-3.851,2.2
		c-1.433,0.633-2.283,1.133-2.55,1.5l-0.05,0.6L40.05,41.1c-0.033,1.801-0.133,4.467-0.3,8c0,1.434-0.05,2.301-0.15,2.601
		c-0.399,0.866-0.85,1.55-1.35,2.05c0.2-0.3,0.35-1,0.45-2.1c0.066-0.334,0.083-0.783,0.05-1.351c0-0.7,0-1.149,0-1.35
		c0.1-1.601,0.184-4.067,0.25-7.4c0.066-2.667,0.066-5.3,0-7.9c-0.166-1.2-0.25-2.117-0.25-2.75l-0.1-2.3L32.3,27.65
		c-1.433-0.233-4.216-0.6-8.35-1.1c-4.333-0.5-6.867-0.767-7.6-0.8c-0.667-0.033-1.317-0.1-1.95-0.2l-0.8-0.15l1.5-0.2
		c1.5-0.1,3.433,0,5.8,0.3c6.267,0.833,11.8,1.417,16.6,1.75c1.133,0.133,2.167,0,3.1-0.4C41.2,26.617,43.4,25.434,47.2,23.3z"/>
	<path style="fill-rule:evenodd;clip-rule:evenodd;fill:#DEEB79;" d="M39.8,48.45L39.75,49.1c0,1.434-0.05,2.301-0.15,2.601
		c-0.399,0.866-0.85,1.55-1.35,2.05c0.2-0.3,0.35-1,0.45-2.1c0.066-0.334,0.083-0.783,0.05-1.351c0-0.7,0-1.149,0-1.35l0.05-0.601
		L39.8,48.45z"/>
	<linearGradient id="SVGID_5_" gradientUnits="userSpaceOnUse" x1="48.2002" y1="30.9858" x2="54.7002" y2="30.9858">
		<stop  offset="0" style="stop-color:#5A6C21"/>
		<stop  offset="1" style="stop-color:#495124"/>
	</linearGradient>
	<path style="fill-rule:evenodd;clip-rule:evenodd;fill:url(#SVGID_5_);" d="M52.55,24.65c0.767-0.133,1.217,0.317,1.351,1.35
		c0.066,0.566,0.05,1.5-0.051,2.8c0,5.233-0.016,7.983-0.05,8.25c-0.1,0.567-0.399,0.317-0.899-0.75
		c-0.167-0.399-0.25-0.933-0.25-1.6c0-0.333-0.167-0.583-0.5-0.75c-0.601-0.333-0.934-0.534-1-0.6c-0.533-0.5-1.15-0.934-1.851-1.3
		c-0.5-0.3-0.75-1.1-0.75-2.4c0-0.233,0.067-0.417,0.2-0.55c0.334-0.3,0.533-0.517,0.6-0.65c0.334-0.434,0.65-1.233,0.95-2.4
		c0.233-0.5,0.534-0.85,0.9-1.05C51.4,24.9,51.85,24.783,52.55,24.65z"/>
	<linearGradient id="SVGID_6_" gradientUnits="userSpaceOnUse" x1="48.8125" y1="41.6309" x2="53.0875" y2="41.6309">
		<stop  offset="0" style="stop-color:#5A6C21"/>
		<stop  offset="1" style="stop-color:#495124"/>
	</linearGradient>
	<path style="fill-rule:evenodd;clip-rule:evenodd;fill:url(#SVGID_6_);" d="M51,38.9c0.5,0.066,0.9,0.449,1.2,1.149
		c0.399,0.867,0.5,1.783,0.3,2.75c-0.233,0.9-0.6,1.417-1.1,1.55c-0.4,0.101-0.733-0.066-1-0.5c-0.268-0.566-0.467-1-0.601-1.3
		c-0.466-0.933-0.716-1.55-0.75-1.85c-0.033-0.2,0.05-0.417,0.25-0.65c0.101-0.133,0.317-0.366,0.65-0.7
		C50.25,38.983,50.6,38.833,51,38.9z"/>
	<linearGradient id="SVGID_7_" gradientUnits="userSpaceOnUse" x1="38.5625" y1="42.8301" x2="52.3375" y2="42.8301">
		<stop  offset="0" style="stop-color:#5A6C21"/>
		<stop  offset="1" style="stop-color:#495124"/>
	</linearGradient>
	<path style="fill-rule:evenodd;clip-rule:evenodd;fill:url(#SVGID_7_);" d="M47.95,43.6c0.267,0.067,0.533,0.2,0.8,0.4
		c0.267,0.267,0.4,0.533,0.4,0.8c0,0.3-0.268,0.717-0.801,1.25c-0.533,0.601-1.033,0.967-1.5,1.101c-0.5,0.166-0.866,0.366-1.1,0.6
		c-0.267,0.267-0.65,0.833-1.15,1.7c-0.433,0.767-1.183,1.383-2.25,1.85c-1.066,0.4-1.732,0.667-2,0.8
		c-0.3,0.134-0.533,0.184-0.699,0.15c0.133-0.6,0.217-1.5,0.25-2.7c0.066-1.533,0.116-2.833,0.149-3.899
		c0.034-1.2,0.034-3.317,0-6.351c-0.066-3.7-0.1-5.667-0.1-5.9c1.399,0.333,2.384,0.717,2.95,1.15c0.333,0.233,0.467,0.5,0.399,0.8
		c-0.033,0.101-0.149,0.301-0.35,0.601c-0.2,0.5,0.05,1.383,0.75,2.649c0.366,0.634,0.733,1.117,1.1,1.45l1.55,1.25
		c0.567,0.434,0.967,0.95,1.2,1.55C47.717,43.316,47.85,43.566,47.95,43.6z"/>
	<linearGradient id="SVGID_8_" gradientUnits="userSpaceOnUse" x1="12.1875" y1="32.3477" x2="20.4125" y2="32.3477">
		<stop  offset="0" style="stop-color:#8E9C45"/>
		<stop  offset="1" style="stop-color:#5A6C21"/>
	</linearGradient>
	<path style="fill-rule:evenodd;clip-rule:evenodd;fill:url(#SVGID_8_);" d="M13.95,35.5c-0.634,0.1-1,0.033-1.1-0.2
		c-0.167-0.399-0.25-1.717-0.25-3.95c0-0.7,0.167-1.267,0.5-1.7c0.267-0.4,0.583-0.583,0.95-0.55c2.067,0.033,3.733,1.316,5,3.85
		c0.434,0.866,0.5,1.566,0.2,2.1c-0.233,0.367-0.55,0.55-0.95,0.55c-0.066,0-0.5-0.1-1.3-0.3c-0.7-0.2-1.217-0.267-1.55-0.2
		C14.783,35.3,14.283,35.434,13.95,35.5z"/>
	<linearGradient id="SVGID_9_" gradientUnits="userSpaceOnUse" x1="26.4629" y1="41.9717" x2="52.9379" y2="41.9717">
		<stop  offset="0" style="stop-color:#677232"/>
		<stop  offset="1" style="stop-color:#404E17"/>
	</linearGradient>
	<path style="fill-rule:evenodd;clip-rule:evenodd;fill:url(#SVGID_9_);" d="M29.6,34.65c0.367-0.533,1.95-0.734,4.75-0.601
		c0.768,0.033,1.367-0.083,1.801-0.35c0.232-0.134,0.566-0.4,1-0.8c0.366-0.233,0.767-0.333,1.199-0.3c0.234,0,0.551,0.033,0.95,0.1
		c0.4,0,1.067,0.133,2,0.4c0.934,0.3,1.601,0.583,2,0.85c-0.899-0.1-1.649,0.083-2.25,0.55c-0.633,0.533-0.883,1.3-0.75,2.3
		c0.467,3.833,1.733,6.483,3.8,7.95c-1.732,1.867-3.05,3.233-3.949,4.1c-0.733,0.7-1.018,1.533-0.851,2.5L39.15,51.3
		c-1.066-0.333-2.483-0.45-4.25-0.35c-1.101,0.1-2-0.217-2.7-0.95c-0.6-0.867-1.033-1.483-1.3-1.85
		c-0.601-0.567-1.067-1.033-1.4-1.4c-0.667-0.7-1.184-1.667-1.55-2.9c-0.367-1.3-0.267-3.116,0.3-5.449
		C28.717,36.533,29.167,35.283,29.6,34.65z"/>
	<linearGradient id="SVGID_10_" gradientUnits="userSpaceOnUse" x1="12.8921" y1="46.5928" x2="29.2002" y2="46.5928">
		<stop  offset="0" style="stop-color:#8E9C45"/>
		<stop  offset="1" style="stop-color:#5A6C21"/>
	</linearGradient>
	<path style="fill-rule:evenodd;clip-rule:evenodd;fill:url(#SVGID_10_);" d="M24.55,49.65c0.9,0.1,1.567,0.25,2,0.449
		c0.367,0.167,0.867,0.518,1.5,1.051c0.767,0.699,1.15,1.366,1.15,2L28.05,53.3c-0.5,0.033-1.733-0.083-3.7-0.35
		c-2.034-0.3-3.267-0.483-3.7-0.55c-1.4-0.233-3.084-0.483-5.05-0.75c-1.267-0.167-2.083-1.018-2.45-2.551
		c-0.134-0.6-0.217-2-0.25-4.199c-0.034-1.801,0.033-3.384,0.2-4.75c0.033-0.301,0.167-0.351,0.4-0.15c0.2,0.2,0.316,0.467,0.35,0.8
		c0.033,0.267,0.433,0.817,1.2,1.65c0.4,0.467,1,1.1,1.8,1.899c0.3,0.334,0.55,0.733,0.75,1.2c0.133,0.4,0.283,0.65,0.45,0.75
		c0.134,0.101,0.667,0.283,1.601,0.55c0.866,0.268,1.383,0.467,1.55,0.601c0.167,0.167,0.55,0.566,1.15,1.2
		C23.017,49.25,23.75,49.583,24.55,49.65z"/>
	<linearGradient id="SVGID_11_" gradientUnits="userSpaceOnUse" x1="12.3921" y1="46.5928" x2="28.7002" y2="46.5928">
		<stop  offset="0" style="stop-color:#897655"/>
		<stop  offset="1" style="stop-color:#675D47"/>
	</linearGradient>
	<path style="fill-rule:evenodd;clip-rule:evenodd;fill:url(#SVGID_11_);" d="M28.7,53.15L27.55,53.3
		c-0.5,0.033-1.733-0.083-3.7-0.35c-2.034-0.3-3.267-0.483-3.7-0.55c-1.4-0.233-3.084-0.483-5.05-0.75
		c-1.267-0.167-2.083-1.018-2.45-2.551c-0.134-0.6-0.217-2-0.25-4.199c-0.034-1.801,0.033-3.384,0.2-4.75
		C12.633,39.85,12.767,39.8,13,40c0.2,0.2,0.316,0.467,0.35,0.8c0.033,0.267,0.433,0.817,1.2,1.65c0.4,0.467,1,1.1,1.8,1.899
		c0.3,0.334,0.55,0.733,0.75,1.2c0.133,0.4,0.283,0.65,0.45,0.75c0.134,0.101,0.667,0.283,1.601,0.55
		c0.866,0.268,1.383,0.467,1.55,0.601c0.167,0.167,0.55,0.566,1.15,1.2c0.667,0.6,1.4,0.933,2.2,1c0.9,0.1,1.567,0.25,2,0.449
		c0.367,0.167,0.867,0.518,1.5,1.051C28.316,51.85,28.7,52.517,28.7,53.15z"/>
	<path style="fill-rule:evenodd;clip-rule:evenodd;fill:#908061;" d="M26.05,50.1c0.367,0.167,0.867,0.518,1.5,1.051
		c0.467,0.433,0.8,0.883,1,1.35L28.4,52.55c-0.3,0.033-0.517-0.066-0.65-0.3c-0.333-0.566-0.517-0.867-0.55-0.9
		c-0.233-0.3-0.833-0.616-1.8-0.949c-0.867-0.301-1.534-0.467-2-0.5c-0.634-0.033-1.317-0.384-2.05-1.051
		c-0.733-0.633-1.65-1.149-2.75-1.55c-0.633-0.2-1.083-0.399-1.35-0.6c-0.033-0.033-0.233-0.233-0.6-0.601
		c-0.5-0.5-0.917-1.183-1.25-2.05c-0.034-0.2-0.417-0.667-1.15-1.399c-0.533-0.567-0.967-0.983-1.3-1.25
		c-0.233-0.233-0.35-0.65-0.35-1.25l0.3-0.2c0.233,0.133,0.383,0.417,0.45,0.85c0.033,0.267,0.433,0.817,1.2,1.65
		c0.4,0.467,1,1.1,1.8,1.899c0.3,0.334,0.55,0.733,0.75,1.2c0.133,0.4,0.283,0.65,0.45,0.75c0.134,0.101,0.667,0.283,1.601,0.55
		c0.866,0.268,1.383,0.467,1.55,0.601c0.167,0.167,0.55,0.566,1.15,1.2c0.667,0.6,1.4,0.933,2.2,1
		C24.95,49.75,25.617,49.9,26.05,50.1z"/>
	<linearGradient id="SVGID_12_" gradientUnits="userSpaceOnUse" x1="21.2251" y1="22.3926" x2="45.7751" y2="22.3926">
		<stop  offset="0" style="stop-color:#8E9C45"/>
		<stop  offset="1" style="stop-color:#5A6C21"/>
	</linearGradient>
	<path style="fill-rule:evenodd;clip-rule:evenodd;fill:url(#SVGID_12_);" d="M45.25,21c1.033,0.867,0.983,1.417-0.15,1.65
		c-0.433,0.1-1.283,0.417-2.55,0.95c-1.399,0.566-2.5,0.983-3.3,1.25c-1.867,0.633-4.85,0.883-8.95,0.75
		c-1.5-0.067-3.066-0.284-4.7-0.65c-1.534-0.367-2.8-0.767-3.8-1.2c-0.733-0.333-0.716-0.767,0.05-1.3
		c1.067-0.767,1.617-1.217,1.65-1.35c0.167-0.4,0.967-0.833,2.4-1.3c1.333-0.4,2.433-0.617,3.3-0.65l8.35,0.05
		C41.483,19.433,44.05,20.033,45.25,21z"/>
	<linearGradient id="SVGID_13_" gradientUnits="userSpaceOnUse" x1="21.9004" y1="22.1611" x2="44.7004" y2="22.1611">
		<stop  offset="0" style="stop-color:#897655"/>
		<stop  offset="1" style="stop-color:#675D47"/>
	</linearGradient>
	<path style="fill-rule:evenodd;clip-rule:evenodd;fill:url(#SVGID_13_);" d="M22.45,22.2c1.033-0.733,1.566-1.167,1.6-1.3
		c0.134-0.4,0.867-0.8,2.2-1.2c1.233-0.4,2.267-0.617,3.1-0.65l7.75,0.05c3.667,0.233,6.051,0.816,7.15,1.75
		c0.934,0.8,0.883,1.316-0.15,1.55c-0.433,0.1-1.217,0.4-2.35,0.9c-1.367,0.6-2.4,1.017-3.1,1.25c-1.834,0.634-4.601,0.85-8.3,0.65
		c-1.4-0.034-2.867-0.233-4.4-0.6c-1.434-0.333-2.6-0.717-3.5-1.15C21.75,23.15,21.75,22.733,22.45,22.2z"/>
	<g>
		<path style="fill-rule:evenodd;clip-rule:evenodd;fill:#908061;" d="M23.1,22.15c-0.467,0.233-0.75,0.633-0.85,1.2
			c-0.467-0.3-0.367-0.7,0.3-1.2c0.934-0.667,1.434-1.083,1.5-1.25c0.134-0.4,0.867-0.8,2.2-1.2c1.233-0.4,2.267-0.617,3.1-0.65h1
			c-1.667,0.2-3.034,0.517-4.1,0.95c-0.733,0.333-1.2,0.633-1.4,0.9C24.583,21.3,24,21.717,23.1,22.15z"/>
		<linearGradient id="SVGID_14_" gradientUnits="userSpaceOnUse" x1="29.625" y1="22.0254" x2="37.675" y2="22.0254">
			<stop  offset="0" style="stop-color:#685941"/>
			<stop  offset="1" style="stop-color:#474031"/>
		</linearGradient>
		<path style="fill-rule:evenodd;clip-rule:evenodd;fill:url(#SVGID_14_);" d="M35.85,20.85c1.2,0.033,1.817,0.267,1.851,0.7
			c0,0.434-0.467,0.817-1.4,1.15c-1.667,0.633-3.517,0.667-5.55,0.1c-0.833-0.233-1.2-0.517-1.1-0.85
			c0.066-0.267,0.383-0.483,0.95-0.65L35.85,20.85z"/>
	</g>
	<linearGradient id="SVGID_15_" gradientUnits="userSpaceOnUse" x1="21.8501" y1="23.0361" x2="47.9501" y2="23.0361">
		<stop  offset="0" style="stop-color:#79674B"/>
		<stop  offset="1" style="stop-color:#474031"/>
	</linearGradient>
	<path style="fill-rule:evenodd;clip-rule:evenodd;fill:url(#SVGID_15_);" d="M44.2,20.8c0.399,0.333,0.566,0.684,0.5,1.05
		c-0.067,0.3-0.267,0.483-0.601,0.55c-0.433,0.1-1.217,0.4-2.35,0.9c-1.367,0.6-2.4,1.017-3.1,1.25
		c-1.834,0.634-4.601,0.85-8.3,0.65c-2.534-0.1-4.95-0.583-7.25-1.45c2.233,0.4,3.483,0.617,3.75,0.65
		c1.567,0.233,2.85,0.3,3.85,0.2c0.967-0.1,2.467-0.2,4.5-0.3c1.767-0.133,3.149-0.467,4.149-1c1.634-0.833,2.917-1.366,3.851-1.6
		C43.867,21.467,44.2,21.167,44.2,20.8z"/>
	<linearGradient id="SVGID_16_" gradientUnits="userSpaceOnUse" x1="11.6875" y1="31.8477" x2="19.9125" y2="31.8477">
		<stop  offset="0" style="stop-color:#79674B"/>
		<stop  offset="1" style="stop-color:#474031"/>
	</linearGradient>
	<path style="fill-rule:evenodd;clip-rule:evenodd;fill:url(#SVGID_16_);" d="M13.45,35c-0.634,0.1-1,0.033-1.1-0.2
		c-0.167-0.399-0.25-1.717-0.25-3.95c0-0.7,0.167-1.267,0.5-1.7c0.267-0.4,0.583-0.583,0.95-0.55c2.067,0.033,3.733,1.316,5,3.85
		c0.434,0.866,0.5,1.566,0.2,2.1c-0.233,0.367-0.55,0.55-0.95,0.55c-0.066,0-0.5-0.1-1.3-0.3c-0.7-0.2-1.217-0.267-1.55-0.2
		C14.283,34.8,13.783,34.934,13.45,35z"/>
	<linearGradient id="SVGID_17_" gradientUnits="userSpaceOnUse" x1="25.9629" y1="41.6875" x2="52.4379" y2="41.6875">
		<stop  offset="0" style="stop-color:#79674B"/>
		<stop  offset="1" style="stop-color:#474031"/>
	</linearGradient>
	<path style="fill-rule:evenodd;clip-rule:evenodd;fill:url(#SVGID_17_);" d="M44.8,39.05l1.55,1.25
		c0.567,0.434,0.967,0.95,1.2,1.55c0.167,0.467,0.3,0.717,0.4,0.75c0.267,0.067,0.533,0.2,0.8,0.4c0.267,0.267,0.4,0.533,0.4,0.8
		c0,0.3-0.268,0.717-0.801,1.25c-0.533,0.601-1.033,0.967-1.5,1.101c-0.5,0.166-0.866,0.366-1.1,0.6
		c-0.267,0.267-0.65,0.833-1.15,1.7c-0.433,0.767-1.183,1.383-2.25,1.85c-1.066,0.4-1.732,0.667-2,0.8
		c-0.3,0.2-0.583,0.233-0.85,0.101c-0.3-0.167-0.583-0.3-0.85-0.4c-1.066-0.333-2.483-0.45-4.25-0.35c-1.101,0.1-2-0.217-2.7-0.95
		c-0.6-0.867-1.033-1.483-1.3-1.85c-0.601-0.567-1.067-1.033-1.4-1.4c-0.667-0.7-1.184-1.667-1.55-2.9
		c-0.367-1.3-0.267-3.116,0.3-5.449c0.467-1.867,0.917-3.117,1.35-3.75c0.367-0.534,1.95-0.734,4.75-0.601
		c0.768,0.033,1.367-0.083,1.801-0.35c0.232-0.134,0.566-0.4,1-0.8c0.366-0.233,0.767-0.333,1.199-0.3c0.234,0,0.551,0.033,0.95,0.1
		c0.434,0,1.134,0.15,2.101,0.45c0.967,0.3,1.633,0.6,2,0.9c0.333,0.233,0.467,0.5,0.399,0.8c-0.033,0.101-0.149,0.301-0.35,0.601
		c-0.2,0.5,0.05,1.383,0.75,2.649C44.066,38.233,44.434,38.717,44.8,39.05z"/>
	<g>
		<path style="fill-rule:evenodd;clip-rule:evenodd;fill:#908061;" d="M34.3,34.4c-0.233,0-0.899-0.018-2-0.051
			c-1.6-0.066-2.649,0.217-3.149,0.851c-0.334,0.467-0.667,1.45-1,2.95c-0.367,1.699-0.601,3.433-0.7,5.199
			c-0.367-1.3-0.267-3.116,0.3-5.449c0.467-1.867,0.917-3.117,1.35-3.75c0.367-0.534,1.95-0.734,4.75-0.601
			c0.768,0.033,1.367-0.083,1.801-0.35c0.232-0.134,0.566-0.4,1-0.8c0.366-0.233,0.767-0.333,1.199-0.3
			c0.234,0,0.551,0.033,0.95,0.1c0.101,0,0.45,0.066,1.05,0.2H39.65c-1.233,0-2.518,0.55-3.851,1.65
			C35.533,34.283,35.033,34.4,34.3,34.4z"/>
		<linearGradient id="SVGID_18_" gradientUnits="userSpaceOnUse" x1="26.7251" y1="48.5996" x2="39.6751" y2="48.5996">
			<stop  offset="0" style="stop-color:#524633"/>
			<stop  offset="1" style="stop-color:#3B3528"/>
		</linearGradient>
		<path style="fill-rule:evenodd;clip-rule:evenodd;fill:url(#SVGID_18_);" d="M30.4,47.65c-0.7-0.634-1.25-1.2-1.65-1.7
			c1.267,0.7,1.967,1.167,2.1,1.399c0.567,0.9,0.9,1.417,1,1.551c0.466,0.6,0.9,0.916,1.3,0.949c0.133,0,0.899-0.017,2.3-0.05
			c1.134-0.033,1.833,0,2.1,0.101c0.3,0.133,0.601,0.133,0.9,0c0.3-0.134,0.517-0.367,0.649-0.7c0.101-0.267,0.217,0,0.351,0.8
			c0.1,0.4,0.167,0.816,0.2,1.25c-0.334-0.2-0.667-0.35-1-0.45c-1.066-0.333-2.483-0.45-4.25-0.35c-1.101,0.1-2-0.217-2.7-0.95
			C31.1,48.633,30.667,48.017,30.4,47.65z"/>
	</g>
	<path style="fill-rule:evenodd;clip-rule:evenodd;fill:#908061;" d="M47.95,42.6c0.267,0.067,0.533,0.2,0.8,0.4
		c0.267,0.267,0.4,0.533,0.4,0.8c0,0.3-0.268,0.717-0.801,1.25c-0.533,0.601-1.033,0.967-1.5,1.101c-0.5,0.166-0.866,0.366-1.1,0.6
		c-0.267,0.267-0.65,0.833-1.15,1.7c-0.433,0.767-1.183,1.383-2.25,1.85c-1.066,0.4-1.732,0.667-2,0.8
		c-0.3,0.167-0.55,0.2-0.75,0.101c-0.266-0.134-0.516-0.25-0.75-0.351c0.167-1.566,0.234-4.833,0.2-9.8
		c-0.1-4.866-0.149-7.583-0.149-8.15l-0.051-0.7c0.5,0.033,1.2,0.2,2.101,0.5c0.933,0.3,1.583,0.583,1.95,0.85
		c0.333,0.233,0.467,0.5,0.399,0.8c-0.033,0.101-0.149,0.301-0.35,0.601c-0.2,0.5,0.05,1.383,0.75,2.649
		c0.366,0.634,0.733,1.117,1.1,1.45l1.55,1.25c0.567,0.434,0.967,0.95,1.2,1.55C47.717,42.316,47.85,42.566,47.95,42.6z"/>
	<linearGradient id="SVGID_19_" gradientUnits="userSpaceOnUse" x1="48.2002" y1="29.9858" x2="54.7002" y2="29.9858">
		<stop  offset="0" style="stop-color:#79674B"/>
		<stop  offset="1" style="stop-color:#474031"/>
	</linearGradient>
	<path style="fill-rule:evenodd;clip-rule:evenodd;fill:url(#SVGID_19_);" d="M53.9,25c0.066,0.566,0.05,1.5-0.051,2.8
		c0,5.233-0.016,7.983-0.05,8.25c-0.1,0.567-0.399,0.317-0.899-0.75c-0.167-0.399-0.25-0.933-0.25-1.6c0-0.333-0.167-0.583-0.5-0.75
		c-0.601-0.333-0.934-0.534-1-0.6c-0.533-0.5-1.15-0.934-1.851-1.3c-0.5-0.3-0.75-1.1-0.75-2.4c0-0.233,0.067-0.417,0.2-0.55
		c0.334-0.3,0.533-0.517,0.6-0.65c0.334-0.434,0.65-1.233,0.95-2.4c0.233-0.5,0.534-0.85,0.9-1.05c0.2-0.1,0.649-0.217,1.35-0.35
		C53.316,23.517,53.767,23.967,53.9,25z"/>
	<linearGradient id="SVGID_20_" gradientUnits="userSpaceOnUse" x1="48.8125" y1="40.6309" x2="53.0875" y2="40.6309">
		<stop  offset="0" style="stop-color:#79674B"/>
		<stop  offset="1" style="stop-color:#474031"/>
	</linearGradient>
	<path style="fill-rule:evenodd;clip-rule:evenodd;fill:url(#SVGID_20_);" d="M52.2,39.05c0.399,0.867,0.5,1.783,0.3,2.75
		c-0.233,0.9-0.6,1.417-1.1,1.55c-0.4,0.101-0.733-0.066-1-0.5c-0.268-0.566-0.467-1-0.601-1.3c-0.466-0.933-0.716-1.55-0.75-1.85
		c-0.033-0.2,0.05-0.417,0.25-0.65c0.101-0.133,0.317-0.366,0.65-0.7c0.3-0.366,0.649-0.517,1.05-0.449
		C51.5,37.967,51.9,38.35,52.2,39.05z"/>
	<linearGradient id="SVGID_21_" gradientUnits="userSpaceOnUse" x1="38.5625" y1="41.8301" x2="52.3375" y2="41.8301">
		<stop  offset="0" style="stop-color:#524633"/>
		<stop  offset="1" style="stop-color:#3B3528"/>
	</linearGradient>
	<path style="fill-rule:evenodd;clip-rule:evenodd;fill:url(#SVGID_21_);" d="M47.95,42.6c0.267,0.067,0.533,0.2,0.8,0.4
		c0.267,0.267,0.4,0.533,0.4,0.8c0,0.3-0.268,0.717-0.801,1.25c-0.533,0.601-1.033,0.967-1.5,1.101c-0.5,0.166-0.866,0.366-1.1,0.6
		c-0.267,0.267-0.65,0.833-1.15,1.7c-0.433,0.767-1.183,1.383-2.25,1.85c-1.066,0.4-1.732,0.667-2,0.8
		c-0.3,0.134-0.533,0.184-0.699,0.15c0.133-0.6,0.217-1.5,0.25-2.7c0.066-1.533,0.116-2.833,0.149-3.899
		c0.034-1.2,0.034-3.317,0-6.351c-0.066-3.7-0.1-5.667-0.1-5.9c1.399,0.333,2.384,0.717,2.95,1.15c0.333,0.233,0.467,0.5,0.399,0.8
		c-0.033,0.101-0.149,0.301-0.35,0.601c-0.2,0.5,0.05,1.383,0.75,2.649c0.366,0.634,0.733,1.117,1.1,1.45l1.55,1.25
		c0.567,0.434,0.967,0.95,1.2,1.55C47.717,42.316,47.85,42.566,47.95,42.6z"/>
	<linearGradient id="SVGID_22_" gradientUnits="userSpaceOnUse" x1="33.375" y1="45.1797" x2="57.525" y2="45.1797">
		<stop  offset="0" style="stop-color:#493E2D"/>
		<stop  offset="1" style="stop-color:#2E2A20"/>
	</linearGradient>
	<path style="fill-rule:evenodd;clip-rule:evenodd;fill:url(#SVGID_22_);" d="M45.95,41.4c0.033-0.2-0.101-0.533-0.4-1
		c-0.399-0.567-0.633-0.967-0.7-1.2V39.1l1.5,1.2c0.567,0.434,0.967,0.95,1.2,1.55c0.167,0.467,0.3,0.717,0.4,0.75
		c0.267,0.067,0.533,0.2,0.8,0.4c0.267,0.267,0.4,0.533,0.4,0.8c0,0.3-0.268,0.717-0.801,1.25c-0.533,0.601-1.033,0.967-1.5,1.101
		c-0.5,0.166-0.866,0.366-1.1,0.6c-0.267,0.267-0.65,0.833-1.15,1.7c-0.433,0.767-1.183,1.383-2.25,1.85
		c-1.066,0.4-1.732,0.667-2,0.8c-0.3,0.134-0.533,0.184-0.699,0.15l0.199-1.75c0.634,0.3,1.15,0.267,1.551-0.1
		c0.033-0.033,0.383-0.417,1.05-1.15c0.467-0.5,0.866-0.783,1.2-0.85c0.267-0.067,0.5-0.367,0.699-0.9
		c0.2-0.533,0.45-0.85,0.75-0.95c1.467-0.6,2.234-1.017,2.301-1.25c0.066-0.133-0.167-0.583-0.7-1.35
		C46.2,42.15,45.95,41.633,45.95,41.4z"/>
	<linearGradient id="SVGID_23_" gradientUnits="userSpaceOnUse" x1="48.3379" y1="41.9395" x2="55.7629" y2="41.9395">
		<stop  offset="0" style="stop-color:#544834"/>
		<stop  offset="1" style="stop-color:#474031"/>
	</linearGradient>
	<path style="fill-rule:evenodd;clip-rule:evenodd;fill:url(#SVGID_23_);" d="M49.25,40.5c0.1,0.1,0.25,0.283,0.45,0.55l0.5,0.75
		c0.3,0.434,0.683,0.617,1.149,0.55c0.567-0.133,0.967-0.55,1.2-1.25c-0.033,0.567-0.149,1.067-0.35,1.5
		c-0.233,0.434-0.5,0.684-0.8,0.75c-0.4,0.101-0.733-0.066-1-0.5c-0.268-0.566-0.467-1-0.601-1.3L49.25,40.5z"/>
	<g>
		<path style="fill-rule:evenodd;clip-rule:evenodd;fill:#908061;" d="M33.5,37.2c1.033-0.2,1.85,0.167,2.45,1.1
			c0.467,0.767,0.683,1.7,0.649,2.8c0,1-0.35,1.75-1.05,2.25c-0.733,0.5-1.649,0.533-2.75,0.101c-1.1-0.4-1.517-1.483-1.25-3.25
			S32.467,37.434,33.5,37.2z"/>
		
			<linearGradient id="SVGID_24_" gradientUnits="userSpaceOnUse" x1="-47.4951" y1="27.9756" x2="-42.0645" y2="27.9756" gradientTransform="matrix(-0.1391 -0.9903 0.9903 -0.1391 1.294762e-004 6.357729e-004)">
			<stop  offset="0" style="stop-color:#4D4230"/>
			<stop  offset="1" style="stop-color:#231F17"/>
		</linearGradient>
		<path style="fill-rule:evenodd;clip-rule:evenodd;fill:url(#SVGID_24_);" d="M33.5,37.2c1-0.2,1.783,0.167,2.35,1.1
			c0.467,0.733,0.684,1.634,0.65,2.7c0,0.967-0.333,1.684-1,2.15c-0.733,0.467-1.633,0.5-2.7,0.1c-1.1-0.4-1.517-1.45-1.25-3.15
			C31.816,38.4,32.467,37.434,33.5,37.2z"/>
		
			<radialGradient id="SVGID_25_" cx="51.4082" cy="-0.4482" r="3.7099" gradientTransform="matrix(0.6402 0.7682 0.7581 -0.6537 0.6794 -0.5862)" gradientUnits="userSpaceOnUse">
			<stop  offset="0" style="stop-color:#75684D"/>
			<stop  offset="1" style="stop-color:#2E281D"/>
		</radialGradient>
		<path style="fill-rule:evenodd;clip-rule:evenodd;fill:url(#SVGID_25_);" d="M33.55,37.75c0.8-0.167,1.434,0.117,1.9,0.85
			C35.816,39.2,36,39.934,36,40.8c0,0.767-0.267,1.333-0.8,1.7c-0.601,0.4-1.333,0.434-2.2,0.1c-0.867-0.333-1.2-1.183-1-2.55
			C32.233,38.717,32.75,37.95,33.55,37.75z"/>
	</g>
	<path style="fill-rule:evenodd;clip-rule:evenodd;fill:#B4DC84;" d="M17.25,36.75c0.4,0.7,0.583,1.533,0.55,2.5
		c0,0.934-0.283,1.617-0.85,2.05c-0.6,0.467-1.35,0.5-2.25,0.101c-0.9-0.4-1.25-1.384-1.05-2.95c0.233-1.601,0.767-2.5,1.6-2.7
		C16.117,35.55,16.783,35.883,17.25,36.75z"/>
	
		<linearGradient id="SVGID_26_" gradientUnits="userSpaceOnUse" x1="-42.8989" y1="10.1128" x2="-37.9987" y2="10.1128" gradientTransform="matrix(-0.1389 -0.9903 0.9903 -0.1389 4.307926e-005 6.144047e-004)">
		<stop  offset="0" style="stop-color:#7CA34A"/>
		<stop  offset="1" style="stop-color:#516735"/>
	</linearGradient>
	<path style="fill-rule:evenodd;clip-rule:evenodd;fill:url(#SVGID_26_);" d="M17.2,36.7c0.366,0.667,0.55,1.483,0.55,2.45
		c0,0.866-0.283,1.517-0.85,1.949c-0.601,0.434-1.334,0.467-2.2,0.101c-0.9-0.4-1.233-1.367-1-2.9c0.2-1.5,0.717-2.35,1.55-2.55
		C16.083,35.55,16.733,35.867,17.2,36.7z"/>
	
		<radialGradient id="SVGID_27_" cx="37.8662" cy="10.5107" r="3.2225" gradientTransform="matrix(0.6012 0.7991 0.7137 -0.6788 -15.169 14.4266)" gradientUnits="userSpaceOnUse">
		<stop  offset="0" style="stop-color:#75684D"/>
		<stop  offset="1" style="stop-color:#2E281D"/>
	</radialGradient>
	<path style="fill-rule:evenodd;clip-rule:evenodd;fill:url(#SVGID_27_);" d="M15.3,36.2c0.667-0.167,1.2,0.1,1.601,0.8
		c0.3,0.533,0.433,1.184,0.399,1.95c0,0.7-0.216,1.217-0.649,1.55c-0.467,0.367-1.05,0.4-1.75,0.1c-0.733-0.3-1.017-1.066-0.851-2.3
		C14.217,37.066,14.633,36.367,15.3,36.2z"/>
	
		<linearGradient id="SVGID_28_" gradientUnits="userSpaceOnUse" x1="-51.9707" y1="29.6367" x2="-43.4781" y2="29.6367" gradientTransform="matrix(0.1001 -0.995 0.995 0.1001 -4.778281e-004 4.414320e-004)">
		<stop  offset="0.3176" style="stop-color:#000000;stop-opacity:0.3569"/>
		<stop  offset="0.8235" style="stop-color:#000000;stop-opacity:0"/>
	</linearGradient>
	<path style="fill-rule:evenodd;clip-rule:evenodd;fill:url(#SVGID_28_);" d="M33.05,1.75v0.1l0.4,1.95l0.35,1.1L33.9,4.55
		l0.149-1.2c0-0.1,0.05-0.5,0.15-1.2l0.6-2.1c0.134,0.167,0.25,0.6,0.351,1.3L35.4,3.2v0.1c0.1-0.6,0.166-0.966,0.199-1.1L35.9,1.25
		V1.9L36,1.2l0.7,1.9l0.05-0.05L37,1.85h0.05L37.1,2.1v0.1L38,4.95L38.05,5c0.534,0.667,0.8,1.517,0.8,2.55
		C38.783,8.117,38.667,8.7,38.5,9.3l-0.3,0.85l-0.2,0.3l1.9-0.1c1-0.1,1.583-0.534,1.75-1.3c0.333,0.733,0.25,1.434-0.25,2.1
		c-0.4,0.567-1.268,0.967-2.601,1.2c0.4,1.466,0.317,3.45-0.25,5.95c0.333,0.067,0.733,0.233,1.2,0.5l0.35,0.05
		c-0.199,1.733-0.3,3.833-0.3,6.3c0,1.4,0.017,3.4,0.05,6c-0.033,2.567-0.133,6.4-0.3,11.5c0,1.3-0.017,3.232-0.05,5.8
		c-0.133,2.233-0.533,4.116-1.2,5.649l-0.2,0.051c-3.933-0.467-6.933-0.717-9-0.75L27.55,53.3h-0.1c-0.5,0.033-1.733-0.1-3.7-0.399
		c-2.233-0.334-3.434-0.5-3.6-0.5c-1.4-0.233-3.084-0.483-5.05-0.75c-1.267-0.167-2.083-1.018-2.45-2.551
		c-0.134-0.6-0.217-2-0.25-4.199c-0.034-1.801,0.033-3.384,0.2-4.75c0-0.167,0.033-0.25,0.1-0.25l-0.15-4.95l-0.2-0.15
		c-0.167-0.399-0.25-1.717-0.25-3.95c0-0.833,0.2-1.45,0.6-1.85c0.167-1.5,0.467-2.7,0.9-3.6h0.05c0.133-0.267,0.25-0.433,0.35-0.5
		c0.1-0.167,0.233-0.317,0.4-0.45c1.433-1,3.483-2.167,6.149-3.5c3.2-1.634,5.384-2.467,6.55-2.5h0.15
		C27.083,17.717,27,16.833,27,15.8l0.05-1.7c0.134-0.833,0.317-1.5,0.55-2c-0.567-0.534-1.217-0.85-1.95-0.95
		c-0.467-0.066-0.75-0.5-0.851-1.3v-1.2l0.55,0.7c0.433,0.5,0.833,0.733,1.2,0.7c1.034-0.1,1.95,0.034,2.75,0.4l0.45-0.15
		c-0.566-0.667-0.967-1.433-1.2-2.3c-0.167-0.967,0-1.817,0.5-2.55l0.4-3.3l0.65,1c0.267,0.367,0.417,0.717,0.45,1.05
		c0.067,0.466,0.083,0.8,0.05,1l0.05,0.2v0.05c0.066-0.167,0.133-0.25,0.2-0.25L31,5.5V2.85l0.1-0.9l0.15-0.65
		c0-0.133,0.083-0.4,0.25-0.8v0.1l0.55,2.75v-0.1L32,2.85C31.867,1.75,32.05,0.8,32.55,0L32.5,0.6L32.8,0L33,1.75H33.05z"/>
	<g>
		<path style="fill-rule:evenodd;clip-rule:evenodd;fill:#8D8A64;" d="M32.25,11.8c-0.233-0.7-0.267-1.283-0.1-1.75l0.5-0.95
			l0.149,0.95c0.167,0.667,0.367,1.083,0.601,1.25l0.6,0.4L32.25,11.8z"/>
		<linearGradient id="SVGID_29_" gradientUnits="userSpaceOnUse" x1="28.3501" y1="16.5811" x2="38.8564" y2="16.5811">
			<stop  offset="0" style="stop-color:#8A6E41"/>
			<stop  offset="1" style="stop-color:#463C28"/>
		</linearGradient>
		<path style="fill-rule:evenodd;clip-rule:evenodd;fill:url(#SVGID_29_);" d="M28.85,13.2c0.367-0.7,0.85-1.167,1.45-1.4
			c1.567-0.533,3.233-0.7,5-0.5c1.634,0.2,2.634,0.6,3,1.2c0.534,0.833,0.684,2.25,0.45,4.25c-0.2,1.6-0.5,2.85-0.9,3.75
			c-0.3,0.633-1.033,1.066-2.199,1.3c-1.2,0.233-2.617,0.184-4.25-0.15c-1.434-0.333-2.367-1.217-2.8-2.65
			c-0.167-0.633-0.25-1.767-0.25-3.4C28.35,14.7,28.517,13.9,28.85,13.2z"/>
		<linearGradient id="SVGID_30_" gradientUnits="userSpaceOnUse" x1="25.4502" y1="15.2192" x2="42.6502" y2="15.2192">
			<stop  offset="0" style="stop-color:#775E38"/>
			<stop  offset="1" style="stop-color:#332C1E"/>
		</linearGradient>
		<path style="fill-rule:evenodd;clip-rule:evenodd;fill:url(#SVGID_30_);" d="M28.55,15.25l-0.2-0.1V15
			c0.2,0.133,0.466,0.217,0.8,0.25c0.166,0,0.433,0.017,0.8,0.05C29.684,15.5,29.217,15.483,28.55,15.25z"/>
		<linearGradient id="SVGID_31_" gradientUnits="userSpaceOnUse" x1="25.4502" y1="16.8467" x2="42.6502" y2="16.8467">
			<stop  offset="0" style="stop-color:#775E38"/>
			<stop  offset="1" style="stop-color:#332C1E"/>
		</linearGradient>
		<path style="fill-rule:evenodd;clip-rule:evenodd;fill:url(#SVGID_31_);" d="M35.6,14.1c0.4,0.167,0.617,0.267,0.65,0.3
			c0.167,0.167,0.316,0.417,0.45,0.75c0.1,0.267,0.116,0.583,0.05,0.95c-0.063,0.697-0.805,1.063-2.225,1.1H35.5
			c0.467,0,0.9-0.05,1.3-0.15l0.25-0.1c-0.1,0.1-0.133,0.2-0.1,0.3c0.2,0,0.283,0.066,0.25,0.2c-0.101,0.267-0.3,0.466-0.601,0.6
			c-0.266,0.167-0.649,0.284-1.149,0.35c-0.601,0.1-1,0.184-1.2,0.25c1.267-0.066,2.1-0.167,2.5-0.3c0.133,0.1,0.1,0.316-0.1,0.65
			c0,0.033,0.017,0.183,0.05,0.45c0,0.167-0.05,0.316-0.15,0.45c-0.167,0.3-0.466,0.6-0.899,0.9l-0.4,0.25L34.9,21.1l0.199-0.2
			c-0.533,0.167-0.933,0.284-1.199,0.35c-0.268,0.066-0.816,0.066-1.65,0c-0.667,0-1.066-0.066-1.2-0.2
			c-0.133-0.5-0.25-0.85-0.35-1.05c-0.134-0.367-0.367-0.633-0.7-0.8c-0.4-0.2-0.733-0.15-1,0.15l-0.15,0.25
			c-0.2-0.467-0.317-0.817-0.35-1.05l0.35,0.35c0.167,0.067,0.45,0.117,0.85,0.15c0.6,0.167,1.05,0.434,1.35,0.8l0.45,0.5h1.2
			c1,0.066,1.75-0.034,2.25-0.3s0.767-0.45,0.8-0.55l-0.55-0.05c0.374-0.219,0.749-0.377,1.125-0.475
			C36.201,18.992,35.96,19,35.6,19L31.4,18.75c1.699,0,2.816-0.117,3.35-0.35c0.633-0.233,1.066-0.45,1.3-0.65
			c-0.433,0-0.75-0.017-0.95-0.05c0.234-0.1,0.367-0.217,0.4-0.35c-0.733,0.233-1.517,0.3-2.35,0.2c-0.534,0-1.017-0.066-1.45-0.2
			h-0.15l2.15-0.1c0.254,0,0.479-0.017,0.675-0.05c0.445-0.073,0.771-0.223,0.975-0.45H34.45c0.5-0.2,0.767-0.333,0.8-0.4
			c0.066-0.1,0.05-0.284-0.05-0.55c-0.101-0.466-0.283-0.85-0.55-1.15c-0.301-0.3-0.601-0.45-0.9-0.45
			c-0.566,0-0.95-0.117-1.15-0.35c-0.4-0.333-0.5-0.667-0.3-1c0.167-0.167,0.217-0.3,0.15-0.4L32.4,12.4h0.1
			c0.2-0.033,0.3,0.067,0.3,0.3c0.067,0.333,0.15,0.583,0.25,0.75c0.267,0.4,0.784,0.6,1.55,0.6c0.2,0,0.4-0.05,0.601-0.15
			C35.5,13.767,35.633,13.833,35.6,14.1z"/>
		<linearGradient id="SVGID_32_" gradientUnits="userSpaceOnUse" x1="25.4502" y1="17.7002" x2="42.6502" y2="17.7002">
			<stop  offset="0" style="stop-color:#775E38"/>
			<stop  offset="1" style="stop-color:#332C1E"/>
		</linearGradient>
		<path style="fill-rule:evenodd;clip-rule:evenodd;fill:url(#SVGID_32_);" d="M28.9,17.85h-0.5l-0.05-0.3
			C28.525,17.725,28.708,17.825,28.9,17.85z"/>
		<linearGradient id="SVGID_33_" gradientUnits="userSpaceOnUse" x1="25.4502" y1="16.3999" x2="42.6502" y2="16.3999">
			<stop  offset="0" style="stop-color:#775E38"/>
			<stop  offset="1" style="stop-color:#332C1E"/>
		</linearGradient>
		<path style="fill-rule:evenodd;clip-rule:evenodd;fill:url(#SVGID_33_);" d="M29.25,16.6c-0.2,0.1-0.5,0.05-0.9-0.15v-0.3
			c0.067,0.067,0.216,0.133,0.45,0.2C29.033,16.417,29.184,16.5,29.25,16.6z"/>
		<linearGradient id="SVGID_34_" gradientUnits="userSpaceOnUse" x1="25.4502" y1="12.8252" x2="42.6502" y2="12.8252">
			<stop  offset="0" style="stop-color:#775E38"/>
			<stop  offset="1" style="stop-color:#332C1E"/>
		</linearGradient>
		<path style="fill-rule:evenodd;clip-rule:evenodd;fill:url(#SVGID_34_);" d="M31.75,12.65l-0.3,0.45l-0.6,0.35
			c-0.333,0.133-0.583,0.2-0.75,0.2c-0.433,0-0.65-0.05-0.65-0.15l0.35-1.45L29.9,12l-0.3,1.6c0.5-0.067,1.117-0.317,1.85-0.75
			L31.75,12.65z"/>
		<linearGradient id="SVGID_35_" gradientUnits="userSpaceOnUse" x1="28.5" y1="12.5049" x2="44.1" y2="12.5049">
			<stop  offset="0" style="stop-color:#574529"/>
			<stop  offset="1" style="stop-color:#241F15"/>
		</linearGradient>
		<path style="fill-rule:evenodd;clip-rule:evenodd;fill:url(#SVGID_35_);" d="M32,12.45c0.1-0.1,0.233-0.117,0.4-0.05l-0.65,0.25
			L32,12.45z"/>
		<linearGradient id="SVGID_36_" gradientUnits="userSpaceOnUse" x1="25.4502" y1="16.4238" x2="42.6502" y2="16.4238">
			<stop  offset="0" style="stop-color:#775E38"/>
			<stop  offset="1" style="stop-color:#332C1E"/>
		</linearGradient>
		<path style="fill-rule:evenodd;clip-rule:evenodd;fill:url(#SVGID_36_);" d="M35.35,13.65c0.467-0.233,0.734-0.35,0.801-0.35
			c0.166,0.034,0.399,0.25,0.699,0.65c0.301,0.167,0.484,0.283,0.551,0.35c0.1,0.167,0.199,0.567,0.3,1.2
			c0.1,0.433,0.083,0.75-0.05,0.95c0.066,0.066,0.184,0.083,0.35,0.05c0.167,1.667-0.25,3.167-1.25,4.5
			c-0.2,0.233-0.617,0.417-1.25,0.55c-0.133,0.067-0.367,0.1-0.7,0.1h-2.1c-0.5-0.133-0.884-0.233-1.15-0.3L30.6,21.1
			c-0.2,0-0.317,0.033-0.35,0.1c-0.667-0.367-1.133-0.9-1.4-1.6L29,19.35c0.267-0.3,0.6-0.35,1-0.15
			c0.333,0.167,0.566,0.433,0.7,0.8c0.1,0.2,0.217,0.55,0.35,1.05c0.134,0.134,0.534,0.2,1.2,0.2c0.834,0.066,1.383,0.066,1.65,0
			c0.267-0.066,0.666-0.184,1.199-0.35L34.9,21.1l0.35-0.05l0.4-0.25c0.434-0.3,0.732-0.6,0.899-0.9
			c0.101-0.133,0.15-0.283,0.15-0.45c-0.033-0.267-0.05-0.417-0.05-0.45c0.199-0.333,0.232-0.55,0.1-0.65
			c-0.4,0.133-1.233,0.233-2.5,0.3c0.2-0.066,0.6-0.15,1.2-0.25c0.5-0.066,0.884-0.183,1.149-0.35c0.301-0.133,0.5-0.333,0.601-0.6
			c0.033-0.134-0.05-0.2-0.25-0.2c-0.033-0.1,0-0.2,0.1-0.3l-0.25,0.1c-0.399,0.1-0.833,0.15-1.3,0.15h-0.975
			c1.42-0.036,2.161-0.403,2.225-1.1c0.066-0.367,0.05-0.684-0.05-0.95c-0.134-0.333-0.283-0.583-0.45-0.75
			c-0.033-0.033-0.25-0.133-0.65-0.3c0.033-0.267-0.1-0.333-0.399-0.2C35,14,34.8,14.05,34.6,14.05c-0.766,0-1.283-0.2-1.55-0.6
			c-0.1-0.167-0.183-0.417-0.25-0.75c0-0.233-0.1-0.333-0.3-0.3h-0.1c-0.167-0.066-0.3-0.05-0.4,0.05l-0.55,0.4
			c-0.733,0.433-1.35,0.683-1.85,0.75l0.3-1.6l0.399-0.2c1.567-0.566,3.25-0.733,5.05-0.5l-1,2.3
			C34.584,13.767,34.917,13.783,35.35,13.65z"/>
		<linearGradient id="SVGID_37_" gradientUnits="userSpaceOnUse" x1="28.5" y1="16.4238" x2="44.1" y2="16.4238">
			<stop  offset="0" style="stop-color:#574529"/>
			<stop  offset="1" style="stop-color:#241F15"/>
		</linearGradient>
		<path style="fill-rule:evenodd;clip-rule:evenodd;fill:url(#SVGID_37_);" d="M35.35,13.65c0.467-0.233,0.734-0.35,0.801-0.35
			c0.166,0.034,0.399,0.25,0.699,0.65c0.301,0.167,0.484,0.283,0.551,0.35c0.1,0.167,0.199,0.567,0.3,1.2
			c0.1,0.433,0.083,0.75-0.05,0.95c0.066,0.066,0.184,0.083,0.35,0.05c0.167,1.667-0.25,3.167-1.25,4.5
			c-0.2,0.233-0.617,0.417-1.25,0.55c-0.133,0.067-0.367,0.1-0.7,0.1h-2.1c-0.5-0.133-0.884-0.233-1.15-0.3L30.6,21.1
			c-0.2,0-0.317,0.033-0.35,0.1c-0.667-0.367-1.133-0.9-1.4-1.6L29,19.35c0.267-0.3,0.6-0.35,1-0.15
			c0.333,0.167,0.566,0.433,0.7,0.8c0.1,0.2,0.217,0.55,0.35,1.05c0.134,0.134,0.534,0.2,1.2,0.2c0.834,0.066,1.383,0.066,1.65,0
			c0.267-0.066,0.666-0.184,1.199-0.35L34.9,21.1l0.35-0.05l0.4-0.25c0.434-0.3,0.732-0.6,0.899-0.9
			c0.101-0.133,0.15-0.283,0.15-0.45c-0.033-0.267-0.05-0.417-0.05-0.45c0.199-0.333,0.232-0.55,0.1-0.65
			c-0.4,0.133-1.233,0.233-2.5,0.3c0.2-0.066,0.6-0.15,1.2-0.25c0.5-0.066,0.884-0.183,1.149-0.35c0.301-0.133,0.5-0.333,0.601-0.6
			c0.033-0.134-0.05-0.2-0.25-0.2c-0.033-0.1,0-0.2,0.1-0.3l-0.25,0.1c-0.399,0.1-0.833,0.15-1.3,0.15h-0.975
			c1.42-0.036,2.161-0.403,2.225-1.1c0.066-0.367,0.05-0.684-0.05-0.95c-0.134-0.333-0.283-0.583-0.45-0.75
			c-0.033-0.033-0.25-0.133-0.65-0.3c0.033-0.267-0.1-0.333-0.399-0.2C35,14,34.8,14.05,34.6,14.05c-0.766,0-1.283-0.2-1.55-0.6
			c-0.1-0.167-0.183-0.417-0.25-0.75c0-0.233-0.1-0.333-0.3-0.3h-0.1c-0.167-0.066-0.3-0.05-0.4,0.05l-0.55,0.4
			c-0.733,0.433-1.35,0.683-1.85,0.75l0.3-1.6l0.399-0.2c1.567-0.566,3.25-0.733,5.05-0.5l-1,2.3
			C34.584,13.767,34.917,13.783,35.35,13.65z"/>
		<linearGradient id="SVGID_38_" gradientUnits="userSpaceOnUse" x1="25.4502" y1="16.6221" x2="42.6502" y2="16.6221">
			<stop  offset="0" style="stop-color:#775E38"/>
			<stop  offset="1" style="stop-color:#332C1E"/>
		</linearGradient>
		<path style="fill-rule:evenodd;clip-rule:evenodd;fill:url(#SVGID_38_);" d="M38.3,12.5c0.534,0.833,0.684,2.25,0.45,4.25
			c-0.2,1.6-0.5,2.85-0.9,3.75c-0.3,0.633-1.033,1.066-2.199,1.3c-1.2,0.233-2.617,0.184-4.25-0.15c-0.467-0.1-0.851-0.25-1.15-0.45
			c0.033-0.067,0.15-0.1,0.35-0.1l0.95,0.25c0.267,0.066,0.65,0.167,1.15,0.3h2.1c0.333,0,0.567-0.033,0.7-0.1
			c0.633-0.133,1.05-0.316,1.25-0.55c1-1.333,1.417-2.833,1.25-4.5c-0.166,0.033-0.283,0.017-0.35-0.05
			c0.133-0.2,0.149-0.517,0.05-0.95c-0.101-0.633-0.2-1.033-0.3-1.2c-0.066-0.066-0.25-0.183-0.551-0.35
			c-0.3-0.4-0.533-0.617-0.699-0.65c-0.066,0-0.334,0.117-0.801,0.35c-0.433,0.133-0.766,0.117-1-0.05l1-2.3
			C36.95,11.533,37.934,11.933,38.3,12.5z"/>
		<linearGradient id="SVGID_39_" gradientUnits="userSpaceOnUse" x1="28.5" y1="16.6221" x2="44.1" y2="16.6221">
			<stop  offset="0" style="stop-color:#574529"/>
			<stop  offset="1" style="stop-color:#241F15"/>
		</linearGradient>
		<path style="fill-rule:evenodd;clip-rule:evenodd;fill:url(#SVGID_39_);" d="M38.3,12.5c0.534,0.833,0.684,2.25,0.45,4.25
			c-0.2,1.6-0.5,2.85-0.9,3.75c-0.3,0.633-1.033,1.066-2.199,1.3c-1.2,0.233-2.617,0.184-4.25-0.15c-0.467-0.1-0.851-0.25-1.15-0.45
			c0.033-0.067,0.15-0.1,0.35-0.1l0.95,0.25c0.267,0.066,0.65,0.167,1.15,0.3h2.1c0.333,0,0.567-0.033,0.7-0.1
			c0.633-0.133,1.05-0.316,1.25-0.55c1-1.333,1.417-2.833,1.25-4.5c-0.166,0.033-0.283,0.017-0.35-0.05
			c0.133-0.2,0.149-0.517,0.05-0.95c-0.101-0.633-0.2-1.033-0.3-1.2c-0.066-0.066-0.25-0.183-0.551-0.35
			c-0.3-0.4-0.533-0.617-0.699-0.65c-0.066,0-0.334,0.117-0.801,0.35c-0.433,0.133-0.766,0.117-1-0.05l1-2.3
			C36.95,11.533,37.934,11.933,38.3,12.5z"/>
		<linearGradient id="SVGID_40_" gradientUnits="userSpaceOnUse" x1="30.2129" y1="16.6221" x2="41.4879" y2="16.6221">
			<stop  offset="0" style="stop-color:#372B1A"/>
			<stop  offset="1" style="stop-color:#241F15"/>
		</linearGradient>
		<path style="fill-rule:evenodd;clip-rule:evenodd;fill:url(#SVGID_40_);" d="M38.3,12.5c0.534,0.833,0.684,2.25,0.45,4.25
			c-0.2,1.6-0.5,2.85-0.9,3.75c-0.3,0.633-1.033,1.066-2.199,1.3c-1.2,0.233-2.617,0.184-4.25-0.15c-0.467-0.1-0.851-0.25-1.15-0.45
			c0.033-0.067,0.15-0.1,0.35-0.1l0.95,0.25c0.267,0.066,0.65,0.167,1.15,0.3h2.1c0.333,0,0.567-0.033,0.7-0.1
			c0.633-0.133,1.05-0.316,1.25-0.55c1-1.333,1.417-2.833,1.25-4.5c-0.166,0.033-0.283,0.017-0.35-0.05
			c0.133-0.2,0.149-0.517,0.05-0.95c-0.101-0.633-0.2-1.033-0.3-1.2c-0.066-0.066-0.25-0.183-0.551-0.35
			c-0.3-0.4-0.533-0.617-0.699-0.65c-0.066,0-0.334,0.117-0.801,0.35c-0.433,0.133-0.766,0.117-1-0.05l1-2.3
			C36.95,11.533,37.934,11.933,38.3,12.5z"/>
		<linearGradient id="SVGID_41_" gradientUnits="userSpaceOnUse" x1="26.0127" y1="22.4385" x2="29.2877" y2="22.4385">
			<stop  offset="0" style="stop-color:#685941"/>
			<stop  offset="1" style="stop-color:#474031"/>
		</linearGradient>
		<path style="fill-rule:evenodd;clip-rule:evenodd;fill:url(#SVGID_41_);" d="M26.9,21.6c1-0.167,1.7-0.05,2.1,0.35
			c0.3,0.3,0.367,0.616,0.2,0.95c-0.1,0.2-0.384,0.333-0.85,0.4c-0.4,0.067-0.817,0.067-1.25,0c-0.733-0.033-1.1-0.333-1.1-0.9
			C26,21.934,26.3,21.667,26.9,21.6z"/>
		<linearGradient id="SVGID_42_" gradientUnits="userSpaceOnUse" x1="38.0625" y1="21.5957" x2="41.3375" y2="21.5957">
			<stop  offset="0" style="stop-color:#685941"/>
			<stop  offset="1" style="stop-color:#474031"/>
		</linearGradient>
		<path style="fill-rule:evenodd;clip-rule:evenodd;fill:url(#SVGID_42_);" d="M39,20.75c0.967-0.167,1.65-0.05,2.05,0.35
			c0.333,0.333,0.417,0.65,0.25,0.95c-0.2,0.367-0.917,0.517-2.149,0.45c-0.334-0.033-0.617-0.15-0.851-0.35
			c-0.167-0.167-0.25-0.35-0.25-0.55C38.05,21.167,38.367,20.883,39,20.75z"/>
		<path style="fill-rule:evenodd;clip-rule:evenodd;fill:#8D8A64;" d="M28.3,19.1c0.4-0.1,0.784-0.167,1.15-0.2
			c0.733,0.033,1.017,0.467,0.85,1.3c-0.533,0.033-0.966,0.15-1.3,0.35c-0.2,0.1-0.316,0.483-0.35,1.15
			c0,0.333,0.017,0.65,0.05,0.95c-0.2,0.167-0.567,0.25-1.1,0.25c-0.3,0-0.567-0.1-0.8-0.3l-0.2-0.3c0-0.667,0.1-1.383,0.3-2.15
			C27.033,19.683,27.5,19.333,28.3,19.1z"/>
		<path style="fill-rule:evenodd;clip-rule:evenodd;fill:#8D8A64;" d="M36.7,19.1c0.033-0.233,0.134-0.367,0.3-0.4
			c1.3-0.233,2.267,0.05,2.9,0.85c0.333,0.4,0.583,0.917,0.75,1.55c0.232,0.4-0.051,0.683-0.851,0.85c-0.3,0.066-0.583,0-0.85-0.2
			l-0.3-0.3c0.366-0.134,0.449-0.417,0.25-0.85c-0.134-0.233-0.483-0.434-1.051-0.6c-0.633-0.167-0.982-0.283-1.05-0.35
			C36.667,19.517,36.633,19.333,36.7,19.1z"/>
		<path style="fill-rule:evenodd;clip-rule:evenodd;fill:#8D8A64;" d="M26.35,10.2l0.5,0.6c0.4,0.434,0.75,0.633,1.05,0.6
			c0.6-0.033,1.166,0.017,1.7,0.15c0.8,0.167,1.267,0.483,1.4,0.95c0.066,0.233-0.167,0.517-0.7,0.85c-0.566,0.333-1,0.35-1.3,0.05
			c-0.566-0.566-1.184-0.9-1.85-1c-0.4-0.066-0.65-0.45-0.75-1.15L26.35,10.2z"/>
		<path style="fill-rule:evenodd;clip-rule:evenodd;fill:#8D8A64;" d="M41.1,10.55c0.301,0.633,0.234,1.25-0.199,1.85
			c-0.268,0.367-0.667,0.633-1.2,0.8c-0.601,0.133-1.033,0.233-1.3,0.3c-0.768,0.133-1.233-0.083-1.4-0.65
			c-0.033-0.233,0.017-0.483,0.15-0.75l0.199-0.3l2.25-0.1C40.467,11.6,40.967,11.217,41.1,10.55z"/>
		<path style="fill-rule:evenodd;clip-rule:evenodd;fill:#686549;" d="M28.7,22.65c-0.2,0.167-0.567,0.25-1.1,0.25l-0.1-0.05
			c0.2-0.333,0.283-0.667,0.25-1c-0.033-0.633,0.2-1.184,0.7-1.65c0.267-0.267,0.8-0.617,1.6-1.05
			c0.267,0.233,0.351,0.583,0.25,1.05c-0.533,0.033-0.966,0.15-1.3,0.35c-0.2,0.1-0.316,0.483-0.35,1.15
			C28.65,22.033,28.667,22.35,28.7,22.65z"/>
		<path style="fill-rule:evenodd;clip-rule:evenodd;fill:#686549;" d="M38.65,21.45l1.05-0.05c0.467-0.267,0.2-0.967-0.8-2.1
			c-0.101-0.1-0.483-0.233-1.15-0.4c-0.6-0.133-0.85-0.2-0.75-0.2c1.3-0.233,2.267,0.05,2.9,0.85c0.333,0.4,0.583,0.917,0.75,1.55
			c0.232,0.4-0.051,0.683-0.851,0.85c-0.3,0.066-0.583,0-0.85-0.2L38.65,21.45z"/>
		<path style="fill-rule:evenodd;clip-rule:evenodd;fill:#686549;" d="M28.25,12.2l0.9,0.2l0.399,0.05l0.3,0.1
			c0.3,0.133,0.667,0.2,1.1,0.2c-0.2,0.267-0.483,0.5-0.85,0.7c-0.467,0.2-0.833,0.183-1.1-0.05c-0.566-0.566-1.184-0.9-1.85-1
			c-0.534-0.066-0.8-0.617-0.8-1.65C26.816,11.417,27.45,11.9,28.25,12.2z"/>
		<path style="fill-rule:evenodd;clip-rule:evenodd;fill:#686549;" d="M40.1,11.55c0.567-0.2,0.9-0.533,1-1
			c0.301,0.633,0.234,1.25-0.199,1.85c-0.268,0.367-0.667,0.633-1.2,0.8c-0.601,0.133-1.033,0.233-1.3,0.3
			c-0.768,0.133-1.233-0.083-1.4-0.65l0.05-0.35c0.467,0.333,0.95,0.4,1.45,0.2C39.133,12.467,39.667,12.083,40.1,11.55z"/>
		<path style="fill-rule:evenodd;clip-rule:evenodd;fill:#E07518;" d="M31.8,5.15l0.101-0.8l0.05-0.2L32,3.8l0.25-0.75v0.1l0.5,2.45
			l0.45,1.15V6.3c-0.134-0.733-0.017-1.417,0.35-2.05l0.05-0.1V4.2l0.65,2.75l0.2,0.45l0.1,0.15l0.25-1.5L34.75,5.5l0.15-0.95
			l0.25-0.8L35.1,4.2l0.15-0.45C35.35,3.983,35.467,4.4,35.6,5L35.9,6.6l0.05,0.55l0.35,1.2L36.4,9.4l0.3-1.6V6.05l0.35-1.8h0.05
			l0.051,0.2v0.1L37.95,7c0.5,0.633,0.733,1.383,0.7,2.25c0,0.467-0.101,0.967-0.301,1.5c-0.033,0.267-0.116,0.533-0.25,0.8
			c-0.232,0.434-0.566,0.733-1,0.9c-0.1,0.1-0.217,0.15-0.35,0.15c-0.233,0.167-0.467,0.25-0.7,0.25H36l-0.55,0.05
			c-1.067,0.067-1.8,0.083-2.2,0.05c-0.233,0.033-0.5-0.017-0.8-0.15l-0.3-0.1c-0.5-0.134-0.95-0.434-1.351-0.9
			c-0.566-0.733-0.933-1.45-1.1-2.15c-0.2-0.8-0.067-1.55,0.4-2.25l0.05-0.25l0.3-2.65l0.25,0.45l0.35,0.45
			c0.167,0.267,0.284,0.567,0.351,0.9c0.1,0.267,0.116,0.567,0.05,0.9l0.05,0.15l0.3,1.2V5.15z"/>
		<path style="fill-rule:evenodd;clip-rule:evenodd;fill:#D49A1A;" d="M34.35,6.65L34.6,4.5l0.551-1.8
			c0.1,0.133,0.199,0.517,0.3,1.15L35.7,5.8c0.1,0.534,0.217,1.367,0.35,2.5c0.134,0.934,0.117,1.8-0.05,2.6
			c-0.166,0.733-0.35,1.184-0.55,1.35c-0.733,0.333-1.4,0.4-2,0.2L33.35,12.3c-0.1-0.267-0.1-0.683,0-1.25L34.35,6.65z"/>
		<path style="fill-rule:evenodd;clip-rule:evenodd;fill:#C89118;" d="M36.1,4.3L36.2,3.7l0.45,1.2c0.232,0.6,0.399,1.367,0.5,2.3
			c0.3,0.6,0.449,1.233,0.449,1.9l-0.149,1.2c0.1,0.434,0.116,0.85,0.05,1.25c-0.133,0.5-0.25,0.817-0.35,0.95
			c-0.434,0.3-0.867,0.367-1.301,0.2l-0.25-0.15c-0.1-0.2-0.149-0.45-0.149-0.75l-0.05-0.3c-0.066-0.367-0.051-1,0.05-1.9l0.399-2.4
			V6.9L35.8,6.7L35.65,5.65c0-0.333,0.05-0.683,0.149-1.05l0.3-0.85V4.3z"/>
		<path style="fill-rule:evenodd;clip-rule:evenodd;fill:#C89118;" d="M34.3,7.15c0.2,0.833,0.351,1.833,0.45,3
			c0.1,1.434-0.083,2.25-0.55,2.45c-0.533,0.2-1.033,0.1-1.5-0.3c-0.134-0.233-0.233-0.65-0.3-1.25l0.45-7L33,3.45
			c0.033-0.2,0.167-0.467,0.4-0.8c0,0.467,0.033,0.867,0.1,1.2L34.3,7.15z"/>
		<path style="fill-rule:evenodd;clip-rule:evenodd;fill:#E2C620;" d="M33.15,7.15l-0.5-2.05c-0.101-0.934,0.066-1.75,0.5-2.45
			C33.05,3.217,33.133,3.933,33.4,4.8L34.1,6.45C34.7,7.816,34.95,9.1,34.85,10.3c0,0.567-0.1,1.067-0.3,1.5
			c-0.233,0.434-0.466,0.717-0.7,0.85c-0.066,0.067-0.199,0.067-0.399,0l-0.6-0.25c-0.5-0.433-0.517-1.117-0.05-2.05
			c0.2-0.5,0.333-1.017,0.4-1.55C33.3,8.2,33.283,7.65,33.15,7.15z"/>
		<path style="fill-rule:evenodd;clip-rule:evenodd;fill:#ECB920;" d="M31.15,10.6c-0.167-0.333-0.217-0.7-0.15-1.1
			c0.066-0.567,0.184-1.05,0.35-1.45c0.133-0.533,0.25-0.816,0.35-0.85l0.4,0.95c0.067,0.1,0.216,0.267,0.45,0.5
			c0.2,0.233,0.333,0.434,0.4,0.6c0.2,0.467,0.3,1,0.3,1.6c-0.033,0.767-0.333,1.1-0.9,1l-0.3-0.8
			C31.617,11.117,31.316,10.967,31.15,10.6z"/>
		<path style="fill-rule:evenodd;clip-rule:evenodd;fill:#ECB920;" d="M34.7,5.2c0.333,0.3,0.583,0.7,0.75,1.2
			c0.066,0.233,0.183,0.717,0.35,1.45l0.45-0.6c0,0.066,0.05,0.533,0.15,1.4V9.3c0.033,0.3,0.083,0.517,0.149,0.65
			c0.204-0.045,0.313-0.129,0.325-0.25C36.959,10.149,37,10.433,37,10.55c-0.033,0.4-0.217,0.65-0.55,0.75
			c-0.333,0.1-0.616,0.1-0.851,0c-0.266-0.1-0.399-0.316-0.399-0.65L34.6,9.75C34.7,8.883,34.733,8.233,34.7,7.8l-0.05-1.85
			C34.65,5.517,34.667,5.267,34.7,5.2z"/>
		<path style="fill-rule:evenodd;clip-rule:evenodd;fill:#FBF297;" d="M33.775,6.725C33.803,6.811,33.844,6.902,33.9,7
			C34,7.133,34.133,7.316,34.3,7.55c0.267,0.467,0.417,0.817,0.45,1.05c0,0.033,0.05,0.6,0.15,1.7c0.166-0.167,0.267-0.4,0.3-0.7
			c0.033-0.333,0.05-0.6,0.05-0.8c0-0.633,0.033-1,0.1-1.1c0.268,0.133,0.533,0.383,0.801,0.75c0.232,0.4,0.383,0.75,0.449,1.05
			c0.033,0.167,0.084,0.467,0.15,0.9c0.033,0.434,0,0.733-0.1,0.9l-0.4-0.45c-0.166,0.833-0.767,1.25-1.8,1.25
			c-0.3-0.034-0.517-0.1-0.65-0.2c-0.1-0.133-0.183-0.367-0.25-0.7c-0.063-0.219-0.096-0.652-0.1-1.3
			c0.017,0.034,0.05,0.067,0.1,0.1c0.067,0.1,0.15,0.133,0.25,0.1C33.893,9.233,33.885,8.108,33.775,6.725z"/>
		<path style="fill-rule:evenodd;clip-rule:evenodd;fill:#686549;" d="M33,12.3c0.6,0,1.05-0.45,1.35-1.35l0.301-1.4
			c0.699,1.767,0.883,3,0.55,3.7c-0.333,0.833-1.116,1.05-2.35,0.65c-0.4-0.1-0.534-0.4-0.4-0.9C32.55,12.533,32.733,12.3,33,12.3z"
			/>
		<path style="fill-rule:evenodd;clip-rule:evenodd;fill:#8C8A65;" d="M32.85,13.9c-0.4-0.133-0.534-0.433-0.4-0.9
			c0.1-0.467,0.283-0.7,0.55-0.7c0.6,0,1.05-0.45,1.35-1.35l0.301-1.4h0.05c0.399,2.434,0.033,3.767-1.101,4
			C33.367,13.583,33.117,13.7,32.85,13.9z"/>
		<path style="fill-rule:evenodd;clip-rule:evenodd;fill:#C87B23;" d="M26.75,10.55c-0.3,0.2-0.6,0.2-0.9,0
			c-0.267-0.2-0.4-0.466-0.4-0.8c0-0.2,0.05-0.367,0.15-0.5c0.167-0.2,0.267-0.333,0.3-0.4C25.934,8.417,25.967,8.1,26,7.9
			c0.1,0.067,0.2,0.283,0.3,0.65c-0.133-0.633-0.216-1.1-0.25-1.4C26.816,7.417,27.2,8.1,27.2,9.2c0,0.9-0.15,1.4-0.45,1.5V10.55z"
			/>
		<path style="fill-rule:evenodd;clip-rule:evenodd;fill:#C87B23;" d="M34.1,9.45L33.95,6.9c0.167,0.067,0.366,0.3,0.6,0.7
			l0.65,0.85c0.134,0.167,0.233,0.433,0.3,0.8c0.033,0.333,0.017,0.6-0.05,0.8c-0.101,0.267-0.366,0.4-0.8,0.4
			c-0.367,0-0.566-0.05-0.601-0.15C34.117,9.9,34.133,9.617,34.1,9.45z"/>
		<path style="fill-rule:evenodd;clip-rule:evenodd;fill:#C87B23;" d="M40.55,9.6l0.25-0.3l0.15-0.9c0,0.2,0.2,0.5,0.6,0.9
			c0.167,0.267,0.25,0.55,0.25,0.85c0,0.167-0.05,0.367-0.149,0.6c-0.033,0.133-0.117,0.316-0.25,0.55
			c-0.601,0.067-0.934-0.066-1-0.4C40.233,10.433,40.283,10,40.55,9.6z"/>
		<path style="fill-rule:evenodd;clip-rule:evenodd;fill:#F8F19A;" d="M26.2,9.35l0.4-0.6c-0.034,0.233,0.05,0.6,0.25,1.1l-0.1,1
			c-0.434,0.1-0.65-0.067-0.65-0.5C26.2,9.816,26.233,9.483,26.2,9.35z"/>
		<path style="fill-rule:evenodd;clip-rule:evenodd;fill:#F8F19A;" d="M40.95,10.85L41,9.6c0.467,0.367,0.617,1.017,0.45,1.95
			c-0.2,0.067-0.366,0-0.5-0.2C40.816,11.183,40.816,11.017,40.95,10.85z"/>
		<path style="fill-rule:evenodd;clip-rule:evenodd;fill:#F8F19A;" d="M34.5,9.05l0.25-1c0.533,1.667,0.584,2.5,0.15,2.5
			c-0.301,0-0.467-0.2-0.5-0.6C34.367,9.617,34.4,9.316,34.5,9.05z"/>
	</g>
</g>
<g>
	<rect x="0.5" style="fill-rule:evenodd;clip-rule:evenodd;fill:#C59548;fill-opacity:0;" width="66" height="66"/>
</g>
</svg>
