<?xml version="1.0" encoding="iso-8859-1"?>
<!-- Generator: Adobe Illustrator 15.1.0, SVG Export Plug-In . SVG Version: 6.00 Build 0)  -->
<!DOCTYPE svg PUBLIC "-//W3C//DTD SVG 1.1//EN" "http://www.w3.org/Graphics/SVG/1.1/DTD/svg11.dtd">
<svg version="1.1" xmlns="http://www.w3.org/2000/svg" xmlns:xlink="http://www.w3.org/1999/xlink" x="0px" y="0px" width="60px"
	 height="60px" viewBox="0 0 60 60" style="enable-background:new 0 0 60 60;" xml:space="preserve">
<symbol  id="FlashAICB_x5F_0_x2F_Layer_1_x2F__x3C_Path_x3E__x5F_11" viewBox="0 -8.45 12.5 8.45">
	<g id="Layer_1_5_">
		<path style="fill-rule:evenodd;clip-rule:evenodd;" d="M12.4-1.95h0.05l0.05-4.4h-0.05c-0.6,0-1.083-0.217-1.45-0.65
			c-0.333-0.4-0.483-0.883-0.45-1.45h-8.8c0.033,0.534-0.1,1-0.4,1.4C1.017-6.617,0.567-6.383,0-6.35l0.05,4.4
			c0.567,0.034,1.034,0.233,1.4,0.6C1.75-0.983,1.9-0.533,1.9,0h8.6c0-0.533,0.167-0.983,0.5-1.35C11.333-1.75,11.8-1.95,12.4-1.95z
			"/>
	</g>
</symbol>
<symbol  id="FlashAICB_x5F_0_x2F_Layer_1_x2F__x3C_Path_x3E__x5F_14" viewBox="0 -18.2 20.9 18.2">
	<g id="Layer_1_4_">
		<path style="fill-rule:evenodd;clip-rule:evenodd;fill:#FFFFFF;" d="M15.3,0c1.3-1.8,3.167-4.683,5.6-8.65
			C20.367-9.817,18.733-13,16-18.2H5.2C4.333-16.8,2.6-13.65,0-8.75C1.333-6.483,3.117-3.567,5.35,0H15.3z"/>
	</g>
</symbol>
<symbol  id="FlashAICB_x5F_0_x2F_Layer_1_x2F__x3C_Path_x3E__x5F_23" viewBox="0 -4.4 49.25 4.4">
	<g id="Layer_1_3_">
		
			<radialGradient id="SVGID_1_" cx="24.5498" cy="-3" r="23.7" gradientTransform="matrix(1 0 0 -0.1403 0 -3.4209)" gradientUnits="userSpaceOnUse">
			<stop  offset="0" style="stop-color:#000000"/>
			<stop  offset="0.9216" style="stop-color:#000000;stop-opacity:0.1686"/>
			<stop  offset="1" style="stop-color:#000000;stop-opacity:0"/>
		</radialGradient>
		<path style="fill-rule:evenodd;clip-rule:evenodd;fill:url(#SVGID_1_);" d="M49.25-2.65c0-0.733-1.817-1.217-5.45-1.45
			c-3.233-0.2-9.75-0.3-19.55-0.3C14.217-4.4,7.7-4.3,4.7-4.1C1.567-3.867,0-3.383,0-2.65S2.417-1.3,7.25-0.8
			c4.8,0.533,10.6,0.8,17.4,0.8c6.8,0,12.6-0.267,17.4-0.8C46.85-1.3,49.25-1.917,49.25-2.65z"/>
	</g>
</symbol>
<symbol  id="FlashAICB_x5F_0_x2F_Layer_1_x2F__x3C_Path_x3E__x5F_9" viewBox="0 -17.65 26.35 17.65">
	<g id="Layer_1_6_">
		<path style="fill-rule:evenodd;clip-rule:evenodd;fill:#FFFFFF;" d="M26.35-5.05c-6-0.434-11.517-2.067-16.55-4.9
			c-3.7-2.033-6.966-4.6-9.8-7.7L0.55,0H26.2L26.35-5.05z"/>
	</g>
</symbol>
<symbol  id="transparent_x5F_box_1_" viewBox="0 -50 50 50">
	<g id="Layer_1_2_">
		<polygon style="fill-rule:evenodd;clip-rule:evenodd;fill:#CCCCCC;" points="50,-50 0,-50 0,0 50,0 		"/>
	</g>
</symbol>
<g id="transparent_x5F_box">
	
		<use xlink:href="#transparent_x5F_box_1_"  width="50" height="50" y="-50" transform="matrix(1.2 0 0 -1.2 0 0)" style="overflow:visible;opacity:0;"/>
</g>
<g id="Layer_1">
	<g>
		
			<use xlink:href="#FlashAICB_x5F_0_x2F_Layer_1_x2F__x3C_Path_x3E__x5F_23"  width="49.25" height="4.4" y="-4.4" transform="matrix(1.2 0 0 -1.2 0.25 53.9502)" style="overflow:visible;opacity:0.6406;enable-background:new    ;"/>
		
			<linearGradient id="SVGID_2_" gradientUnits="userSpaceOnUse" x1="179.5947" y1="-211.5884" x2="182.8166" y2="-211.5884" gradientTransform="matrix(-0.1397 1.1918 -1.1918 -0.1397 -207.2518 -188.7001)">
			<stop  offset="0" style="stop-color:#341706"/>
			<stop  offset="1" style="stop-color:#7E3F1B"/>
		</linearGradient>
		<polygon style="fill-rule:evenodd;clip-rule:evenodd;fill:url(#SVGID_2_);" points="17.93,49.979 24.29,53.1 22.43,59.159 
			15.109,59.159 		"/>
		
			<linearGradient id="SVGID_3_" gradientUnits="userSpaceOnUse" x1="204.4971" y1="206.1865" x2="204.8721" y2="202.9865" gradientTransform="matrix(1.2 0 0 1.2 -207.2499 -188.7001)">
			<stop  offset="0" style="stop-color:#341706"/>
			<stop  offset="1" style="stop-color:#7E3F1B"/>
		</linearGradient>
		<polygon style="fill-rule:evenodd;clip-rule:evenodd;fill:url(#SVGID_3_);" points="43.069,59.159 35.689,59.159 33.83,53.1 
			40.189,49.979 		"/>
		
			<radialGradient id="SVGID_4_" cx="196.6748" cy="180.6504" r="21.0516" gradientTransform="matrix(1.2 0 0 -1.1395 -207.2499 233.9243)" gradientUnits="userSpaceOnUse">
			<stop  offset="0" style="stop-color:#201B1B"/>
			<stop  offset="1" style="stop-color:#3B3B3B"/>
		</radialGradient>
		<polygon style="fill-rule:evenodd;clip-rule:evenodd;fill:url(#SVGID_4_);" points="48.229,0.719 49.909,55.439 7.609,55.439 
			9.59,0.719 		"/>
		
			<radialGradient id="SVGID_5_" cx="196.6748" cy="180.5752" r="20.438" gradientTransform="matrix(1.2 0 0 -1.1397 -207.2499 233.7984)" gradientUnits="userSpaceOnUse">
			<stop  offset="0" style="stop-color:#595959"/>
			<stop  offset="0.9922" style="stop-color:#372F30"/>
		</radialGradient>
		<polygon style="fill-rule:evenodd;clip-rule:evenodd;fill:url(#SVGID_5_);" points="47.63,1.439 49.249,54.539 8.269,54.539 
			10.13,1.439 		"/>
		
			<radialGradient id="SVGID_6_" cx="196.6748" cy="180.5254" r="19.7842" gradientTransform="matrix(1.2 0 0 -1.1401 -207.2499 233.7488)" gradientUnits="userSpaceOnUse">
			<stop  offset="0" style="stop-color:#201B1B"/>
			<stop  offset="1" style="stop-color:#3B3B3B"/>
		</radialGradient>
		<polygon style="fill-rule:evenodd;clip-rule:evenodd;fill:url(#SVGID_6_);" points="47.09,2.219 48.649,53.64 8.869,53.64 
			10.669,2.219 		"/>
		
			<radialGradient id="SVGID_7_" cx="196.6758" cy="180.4248" r="18.8131" gradientTransform="matrix(1.2 0 0 -1.1401 -207.2499 233.5144)" gradientUnits="userSpaceOnUse">
			<stop  offset="0" style="stop-color:#595959"/>
			<stop  offset="0.9922" style="stop-color:#372F30"/>
		</radialGradient>
		<polygon style="fill-rule:evenodd;clip-rule:evenodd;fill:url(#SVGID_7_);" points="46.249,3.359 47.569,52.259 9.949,52.259 
			11.509,3.359 		"/>
		
			<linearGradient id="SVGID_8_" gradientUnits="userSpaceOnUse" x1="242.0449" y1="-43.0273" x2="285.7404" y2="-43.0273" gradientTransform="matrix(0.7408 0.944 -0.944 0.7408 -207.25 -188.7)">
			<stop  offset="0" style="stop-color:#EAE3DD"/>
			<stop  offset="1" style="stop-color:#CCC5C0"/>
		</linearGradient>
		<polygon style="fill-rule:evenodd;clip-rule:evenodd;fill:url(#SVGID_8_);" points="44.989,4.439 46.189,50.939 11.39,50.939 
			12.769,4.439 		"/>
		
			<radialGradient id="SVGID_9_" cx="196.7002" cy="180.1992" r="15.5131" gradientTransform="matrix(1.2 0 0 -1.1787 -207.2499 239.9435)" gradientUnits="userSpaceOnUse">
			<stop  offset="0" style="stop-color:#595959"/>
			<stop  offset="0.9922" style="stop-color:#282222"/>
		</radialGradient>
		<polygon style="fill-rule:evenodd;clip-rule:evenodd;fill:url(#SVGID_9_);" points="14.689,6.419 43.069,6.419 43.969,48.659 
			13.549,48.659 		"/>
		
			<use xlink:href="#FlashAICB_x5F_0_x2F_Layer_1_x2F__x3C_Path_x3E__x5F_14"  width="20.9" height="18.2" y="-18.2" transform="matrix(1.2 0 0 -1.2 16.75 8.8999)" style="overflow:visible;opacity:0.2383;enable-background:new    ;"/>
		<path style="fill-rule:evenodd;clip-rule:evenodd;" d="M34.909,29.64h-12.84c-0.719-1.16-2.799-4.901-6.239-11.221
			c1.719-2.919,3.88-6.4,6.479-10.439h11.88c1.521,2.16,3.739,5.599,6.66,10.319C39.81,20.539,37.829,24.319,34.909,29.64z"/>
		
			<radialGradient id="SVGID_10_" cx="196.75" cy="169.2998" r="15.775" gradientTransform="matrix(1.2 0 0 -1.2 -207.2499 217.6184)" gradientUnits="userSpaceOnUse">
			<stop  offset="0" style="stop-color:#ADF2FF"/>
			<stop  offset="1" style="stop-color:#0091CB"/>
		</radialGradient>
		<path style="fill-rule:evenodd;clip-rule:evenodd;fill:url(#SVGID_10_);" d="M35.269,30.18H22.369c-0.72-1.2-2.78-4.98-6.18-11.34
			c2.72-4.52,4.86-8,6.42-10.44h11.88c1.561,2.16,3.8,5.62,6.72,10.38C40.21,20.9,38.229,24.699,35.269,30.18z"/>
		<path style="fill-rule:evenodd;clip-rule:evenodd;fill:#8FE0FD;" d="M29.689,19.799l0.9,3.36c0.68-0.4,0.979-1.02,0.899-1.86
			c-0.039-0.399-0.22-0.761-0.54-1.081C30.59,19.899,30.169,19.759,29.689,19.799z M28.43,12.419c-0.44,0.961-0.42,2.04,0.06,3.24
			c1.2-0.64,1.679-1.66,1.44-3.06c-0.121-0.76-0.381-1.12-0.78-1.08C28.869,11.6,28.629,11.9,28.43,12.419z M28.549,19.019
			l-0.48-1.5c-1.56,0.681-2.319,1.72-2.279,3.121c0,0.92,0.4,1.699,1.2,2.34c0.84,0.68,1.8,0.88,2.879,0.6l-1.02-3.48h-0.12
			c-0.361,0-0.6,0.201-0.721,0.6c-0.12,0.4-0.1,0.761,0.06,1.081c0.32-0.121,0.62-0.101,0.9,0.06c0.28,0.24,0.401,0.479,0.361,0.72
			c-0.081,0.28-0.32,0.42-0.721,0.42h-0.18c-0.24,0-0.44-0.081-0.6-0.24c-0.201-0.121-0.381-0.32-0.541-0.6
			c-0.36-0.64-0.379-1.28-0.06-1.921C27.469,19.7,27.91,19.299,28.549,19.019z M27.53,11.399c0.36-0.761,0.88-1.16,1.56-1.2
			c0.359-0.04,0.719,0.14,1.079,0.541c0.28,0.359,0.48,0.719,0.6,1.079c0.441,1.48,0.181,2.92-0.779,4.321
			c-0.6,0.479-0.96,0.779-1.081,0.9l0.48,1.74c0.96-0.041,1.76,0.259,2.4,0.9c0.759,0.72,0.999,1.56,0.719,2.52
			c-0.279,0.92-0.84,1.52-1.679,1.8c0.319,1,0.34,1.84,0.06,2.52c-0.28,0.801-0.9,1.261-1.86,1.381c-1,0.119-1.74-0.12-2.221-0.72
			c-0.32-0.56-0.399-1.021-0.24-1.38c0.201-0.48,0.6-0.74,1.2-0.781c0.6-0.04,0.981,0.181,1.14,0.661c0.32,0.72,0,1.18-0.96,1.379
			c0.4,0.24,0.84,0.3,1.32,0.18c0.44-0.121,0.741-0.359,0.9-0.721c0.28-0.64,0.26-1.379-0.06-2.219
			c-1.399,0.439-2.641,0.32-3.72-0.36c-1.001-0.6-1.601-1.5-1.8-2.7c-0.201-1.121,0.04-2.18,0.719-3.181
			c0.6-0.84,1.38-1.52,2.34-2.04l-0.181-0.479C26.91,14.06,26.93,12.679,27.53,11.399z"/>
		
			<linearGradient id="SVGID_11_" gradientUnits="userSpaceOnUse" x1="-227.9907" y1="139.3027" x2="-218.0867" y2="139.3027" gradientTransform="matrix(-0.3393 -1.151 1.151 -0.3393 -207.2499 -188.7)">
			<stop  offset="0" style="stop-color:#095A71"/>
			<stop  offset="1" style="stop-color:#0C5D76"/>
		</linearGradient>
		<path style="fill-rule:evenodd;clip-rule:evenodd;fill:url(#SVGID_11_);" d="M31.369,21.18c-0.04-0.361-0.239-0.701-0.601-1.021
			c-0.359-0.32-0.779-0.459-1.259-0.419l0.9,3.3C31.049,22.68,31.369,22.06,31.369,21.18z M28.25,12.359
			c-0.4,0.96-0.36,2.021,0.12,3.181c1.16-0.64,1.621-1.641,1.38-3c-0.12-0.8-0.38-1.18-0.781-1.14
			C28.77,11.439,28.529,11.759,28.25,12.359z M28.369,18.899l-0.479-1.5c-1.56,0.76-2.32,1.8-2.28,3.12
			c0.04,0.961,0.46,1.76,1.26,2.4c0.8,0.641,1.74,0.82,2.82,0.54l-1.021-3.479h-0.12c-0.36,0.04-0.6,0.259-0.719,0.66
			c-0.121,0.36-0.101,0.719,0.06,1.079c0.399-0.12,0.7-0.1,0.9,0.061c0.28,0.199,0.4,0.439,0.36,0.719
			c-0.08,0.28-0.32,0.42-0.72,0.42h-0.18l-0.6-0.3l-0.54-0.539c-0.36-0.641-0.38-1.281-0.06-1.92
			C27.29,19.599,27.729,19.179,28.369,18.899z M29.99,10.68c0.28,0.36,0.479,0.72,0.6,1.08c0.479,1.36,0.24,2.779-0.721,4.26
			c-0.28,0.361-0.66,0.661-1.139,0.9l0.479,1.74c0.96-0.04,1.78,0.28,2.46,0.959c0.721,0.721,0.941,1.561,0.661,2.521
			c-0.28,0.88-0.841,1.48-1.681,1.8c0.32,0.96,0.34,1.8,0.06,2.52c-0.28,0.761-0.9,1.22-1.859,1.38c-1,0.12-1.721-0.141-2.16-0.78
			c-0.121-0.12-0.22-0.32-0.3-0.6c-0.04-0.32-0.04-0.58,0-0.779c0.199-0.48,0.6-0.741,1.2-0.78c0.6-0.04,1,0.18,1.2,0.66
			c0.12,0.36,0.08,0.66-0.121,0.9c-0.199,0.24-0.499,0.401-0.9,0.48c0.401,0.24,0.84,0.3,1.321,0.179
			c0.439-0.12,0.739-0.36,0.9-0.719c0.28-0.561,0.28-1.28,0-2.16c-1.44,0.439-2.7,0.32-3.781-0.359c-1-0.641-1.6-1.561-1.8-2.761
			c-0.32-2.08,0.701-3.819,3.06-5.219l-0.119-0.48c-0.6-1.399-0.6-2.78,0-4.139c0.439-0.761,0.959-1.14,1.56-1.14
			C29.269,10.1,29.63,10.279,29.99,10.68z"/>
		
			<use xlink:href="#FlashAICB_x5F_0_x2F_Layer_1_x2F__x3C_Path_x3E__x5F_11"  width="12.5" height="8.45" y="-8.45" transform="matrix(1.2 0 0 -1.2 21.2998 36.7998)" style="overflow:visible;opacity:0.3008;enable-background:new    ;"/>
		
			<linearGradient id="SVGID_12_" gradientUnits="userSpaceOnUse" x1="190.4502" y1="191.8496" x2="202.9512" y2="191.8496" gradientTransform="matrix(1.2 0 0 1.2 -207.2499 -188.7001)">
			<stop  offset="0" style="stop-color:#FFD852"/>
			<stop  offset="0.1529" style="stop-color:#FFEE4F"/>
			<stop  offset="0.3686" style="stop-color:#F4AC3C"/>
			<stop  offset="0.6549" style="stop-color:#C99104"/>
			<stop  offset="0.8157" style="stop-color:#FFB34A"/>
			<stop  offset="1" style="stop-color:#EDED74"/>
		</linearGradient>
		<path style="fill-rule:evenodd;clip-rule:evenodd;fill:url(#SVGID_12_);" d="M23.449,46.559c0-0.64-0.18-1.199-0.54-1.679
			c-0.399-0.48-0.94-0.741-1.62-0.78l0.06-5.281c0.68-0.039,1.24-0.3,1.68-0.779c0.36-0.44,0.539-0.959,0.539-1.56H33.89
			c0,0.64,0.199,1.181,0.6,1.62c0.4,0.48,0.96,0.719,1.68,0.719h0.061L36.29,44.1l-0.061-0.061c-0.721,0-1.301,0.28-1.74,0.841
			c-0.4,0.479-0.58,1.039-0.54,1.679H23.449z"/>
		<path style="fill-rule:evenodd;clip-rule:evenodd;fill:#CF7923;" d="M22.189,39.239l-0.06,4.38c1.24,0.16,1.899,0.94,1.979,2.34
			h9.181c0.079-0.68,0.3-1.24,0.659-1.68c0.36-0.36,0.86-0.58,1.5-0.66l-0.06-4.38c-1.279-0.12-2-0.82-2.16-2.1h-9
			C24.069,38.419,23.39,39.119,22.189,39.239z M23.39,44.64c-0.36-0.48-0.86-0.741-1.5-0.78l0.06-4.86c0.64,0,1.141-0.22,1.5-0.659
			c0.36-0.401,0.541-0.881,0.541-1.44h9.479c0.041,0.6,0.221,1.08,0.54,1.44c0.401,0.439,0.92,0.659,1.561,0.659h0.061l0.06,4.86
			h-0.06c-0.681,0-1.22,0.24-1.621,0.721c-0.359,0.439-0.52,0.979-0.479,1.619h-9.661C23.869,45.6,23.709,45.079,23.39,44.64z"/>
		<polygon style="fill-rule:evenodd;clip-rule:evenodd;fill:#FFFFFF;" points="32.209,38.279 29.689,41.64 32.33,45.299 
			30.83,45.299 28.909,42.6 26.93,45.299 25.43,45.299 28.189,41.64 25.79,38.279 27.29,38.279 28.909,40.68 30.709,38.279 		"/>
		
			<linearGradient id="SVGID_13_" gradientUnits="userSpaceOnUse" x1="-267.1694" y1="77.6191" x2="-260.1178" y2="77.6191" gradientTransform="matrix(-0.5871 -1.0466 1.0466 -0.5871 -207.2499 -188.7009)">
			<stop  offset="0" style="stop-color:#975300"/>
			<stop  offset="0.9922" style="stop-color:#813E00"/>
		</linearGradient>
		<polygon style="fill-rule:evenodd;clip-rule:evenodd;fill:url(#SVGID_13_);" points="32.09,38.1 29.63,41.399 32.209,45.059 
			30.769,45.059 28.85,42.419 26.869,45.059 25.369,45.059 28.13,41.399 25.73,38.1 27.23,38.1 28.85,40.439 30.59,38.1 		"/>
		
			<use xlink:href="#FlashAICB_x5F_0_x2F_Layer_1_x2F__x3C_Path_x3E__x5F_9"  width="26.35" height="17.65" y="-17.65" transform="matrix(1.2 0 0 -1.2 12.8501 5.1001)" style="overflow:visible;opacity:0.1992;enable-background:new    ;"/>
		
			<linearGradient id="SVGID_14_" gradientUnits="userSpaceOnUse" x1="-204.1968" y1="196.8066" x2="-202.8968" y2="196.8066" gradientTransform="matrix(9.230744e-004 -1.2 1.2 -0.0012 -207.25 -188.7007)">
			<stop  offset="0" style="stop-color:#341706"/>
			<stop  offset="1" style="stop-color:#7E3F1B"/>
		</linearGradient>
		<rect x="7.13" y="54.239" style="fill-rule:evenodd;clip-rule:evenodd;fill:url(#SVGID_14_);" width="43.2" height="1.44"/>
		<path style="fill-rule:evenodd;clip-rule:evenodd;fill:#663214;" d="M11.689,54.659c0.04,0-0.02-0.38-0.18-1.141l0.78-0.3
			l0.84-0.119l0.3,1.38c0.16,0.56,0.38,0.96,0.66,1.2c-0.401,0.28-0.68,0.42-0.84,0.42l-0.84-0.48L11.689,54.659z"/>
		<polygon style="fill-rule:evenodd;clip-rule:evenodd;fill:#C66630;" points="10.73,54.419 9.29,53.34 10.43,53.1 13.13,53.1 
			12.29,53.34 		"/>
		<path style="fill-rule:evenodd;clip-rule:evenodd;fill:#7E3F1B;" d="M13.25,56.1h-3.9c-0.12-0.12-0.221-0.4-0.3-0.841
			c-0.04-0.319-0.02-0.739,0.06-1.26l0.18-0.659h3.12l0.06,1.02C12.59,55.159,12.85,55.739,13.25,56.1z"/>
		<path style="fill-rule:evenodd;clip-rule:evenodd;fill:#9F5025;" d="M46.069,54.659c0.08,0.04-0.16,0.359-0.72,0.96
			c-0.399,0.279-0.68,0.44-0.841,0.48l-0.84-0.42c0.28-0.24,0.521-0.641,0.721-1.2l0.24-1.38l0.839,0.119l0.78,0.3
			C46.289,53.519,46.229,53.899,46.069,54.659z"/>
		<polygon style="fill-rule:evenodd;clip-rule:evenodd;fill:#C66630;" points="47.09,54.419 45.469,53.34 44.63,53.1 47.33,53.1 
			48.469,53.34 		"/>
		<path style="fill-rule:evenodd;clip-rule:evenodd;fill:#7E3F1B;" d="M44.509,56.1c0.68-0.601,0.96-1.521,0.841-2.76h3.119
			l0.181,0.659c0.08,0.521,0.1,0.94,0.06,1.26c-0.04,0.44-0.14,0.721-0.3,0.841H44.509z"/>
	</g>
</g>
</svg>
