<?xml version="1.0" encoding="iso-8859-1"?>
<!-- Generator: Adobe Illustrator 15.1.0, SVG Export Plug-In . SVG Version: 6.00 Build 0)  -->
<!DOCTYPE svg PUBLIC "-//W3C//DTD SVG 1.1//EN" "http://www.w3.org/Graphics/SVG/1.1/DTD/svg11.dtd">
<svg version="1.1" xmlns="http://www.w3.org/2000/svg" xmlns:xlink="http://www.w3.org/1999/xlink" x="0px" y="0px" width="60px"
	 height="60px" viewBox="0 0 60 60" style="enable-background:new 0 0 60 60;" xml:space="preserve">
<symbol  id="FlashAICB_x5F_1_x2F_Layer_1_x2F__x3C_Path_x3E__x5F_1" viewBox="0 -0.5 1.6 0.5">
	<g id="Layer_1_31_">
		<path style="fill-rule:evenodd;clip-rule:evenodd;fill:#FFFEFF;" d="M1.6-0.4C1.267-0.4,0.733-0.433,0-0.5L0.35,0L1.6-0.4z"/>
	</g>
</symbol>
<symbol  id="FlashAICB_x5F_1_x2F_Layer_1_x2F__x3C_Path_x3E__x5F_11" viewBox="0 -4.35 8.35 4.35">
	<g id="Layer_1_26_">
		<path style="fill-rule:evenodd;clip-rule:evenodd;fill:#FFFEFF;" d="M7.95-2.65l0.4-1.7c-1.733,1.333-4.1,1.967-7.1,1.9L0-2.05
			c0.567,0.667,1.267,1.167,2.1,1.5C3.067-0.217,3.983-0.033,4.85,0C6.017-0.767,7.05-1.65,7.95-2.65z"/>
	</g>
</symbol>
<symbol  id="FlashAICB_x5F_1_x2F_Layer_1_x2F__x3C_Path_x3E__x5F_11_x5F_0" viewBox="0 -2.629 4.45 2.629">
	<g id="Layer_1_32_">
		<path style="fill-rule:evenodd;clip-rule:evenodd;fill:#A5ACAF;" d="M4-0.55C4.033-0.317,4.117-0.133,4.25,0v-0.05
			c0.133-0.633,0.2-1.217,0.2-1.75C4.35-1.767,4.2-1.817,4-1.95C3.7-2.183,3.433-2.333,3.2-2.4C2.5-2.667,1.683-2.7,0.75-2.5
			C0.317-2.4,0.067-2.283,0-2.15L0.1-1.9c0.2-0.2,0.65-0.3,1.35-0.3C2.117-2.167,2.683-2,3.15-1.7C3.617-1.4,3.9-1.017,4-0.55z"/>
	</g>
</symbol>
<symbol  id="FlashAICB_x5F_1_x2F_Layer_1_x2F__x3C_Path_x3E__x5F_11_x5F_1" viewBox="0 -2.629 4.45 2.629">
	<g id="Layer_1_42_">
		<path style="fill-rule:evenodd;clip-rule:evenodd;fill:#A5ACAF;" d="M3.65-2.5c-0.867-0.2-1.667-0.167-2.4,0.1
			C0.983-2.3,0.7-2.15,0.4-1.95C0.2-1.817,0.067-1.767,0-1.8c0,0.533,0.067,1.117,0.2,1.75V0c0.133-0.133,0.216-0.317,0.25-0.55
			C0.55-1.017,0.833-1.4,1.3-1.7C1.767-2,2.333-2.167,3-2.2c0.633,0,1.083,0.1,1.35,0.3l0.1-0.25C4.383-2.317,4.117-2.433,3.65-2.5z
			"/>
	</g>
</symbol>
<symbol  id="FlashAICB_x5F_1_x2F_Layer_1_x2F__x3C_Path_x3E__x5F_12" viewBox="0 -9.767 52.85 9.767">
	<g id="Layer_1_3_">
		
			<radialGradient id="SVGID_1_" cx="26.7002" cy="-10.0498" r="27.5375" gradientTransform="matrix(1 0 0 -0.4698 0 -14.771)" gradientUnits="userSpaceOnUse">
			<stop  offset="0" style="stop-color:#000000"/>
			<stop  offset="1" style="stop-color:#000000;stop-opacity:0"/>
		</radialGradient>
		<path style="fill-rule:evenodd;clip-rule:evenodd;fill:url(#SVGID_1_);" d="M39.2-4.15c9.1-2.633,13.65-4.267,13.65-4.9
			c0-0.434-4.55-0.667-13.65-0.7C28.6-9.717,21.8-9.7,18.8-9.7C12.667-9.767,8.417-9.783,6.05-9.75C2.017-9.717,0-9.483,0-9.05
			c0,0.867,2.017,2.5,6.05,4.9C10.65-1.383,14.9,0,18.8,0C22.833,0,29.633-1.383,39.2-4.15z"/>
	</g>
</symbol>
<symbol  id="FlashAICB_x5F_1_x2F_Layer_1_x2F__x3C_Path_x3E__x5F_12_x5F_0" viewBox="0 -4.35 8.35 4.35">
	<g id="Layer_1_25_">
		<path style="fill-rule:evenodd;clip-rule:evenodd;fill:#EAF9FC;" d="M7.95-2.65l0.4-1.7c-1.733,1.333-4.1,1.967-7.1,1.9L0-2.05
			c0.567,0.667,1.267,1.167,2.1,1.5C3.067-0.217,3.983-0.033,4.85,0C6.017-0.767,7.05-1.65,7.95-2.65z"/>
	</g>
</symbol>
<symbol  id="FlashAICB_x5F_1_x2F_Layer_1_x2F__x3C_Path_x3E__x5F_13" viewBox="0 -5.208 3.4 5.208">
	<g id="Layer_1_40_">
		<path style="fill-rule:evenodd;clip-rule:evenodd;fill:#A5ACAF;" d="M3-0.4c0.167,0,0.283,0.133,0.35,0.4L3.4-0.2
			c0-0.133-0.133-0.55-0.4-1.25l-0.55-1.7c-0.067-0.1-0.367-0.533-0.9-1.3C1.45-4.617,1.267-4.8,1-5C0.7-5.167,0.467-5.233,0.3-5.2
			C0.1-5.2,0-5.067,0-4.8C0.167-4.967,0.367-5,0.6-4.9c0.333,0.133,0.633,0.4,0.9,0.8c0.267,0.467,0.45,0.8,0.55,1
			c0.167,0.333,0.267,0.434,0.3,0.3L2.9-1.2C3.033-0.733,3.067-0.467,3-0.4z"/>
	</g>
</symbol>
<symbol  id="FlashAICB_x5F_1_x2F_Layer_1_x2F__x3C_Path_x3E__x5F_13_x5F_0" viewBox="0 -5.208 3.4 5.208">
	<g id="Layer_1_50_">
		<path style="fill-rule:evenodd;clip-rule:evenodd;fill:#A5ACAF;" d="M0.4-0.4C0.333-0.467,0.367-0.733,0.5-1.2l0.55-1.6L1.1-2.75
			C1.167-2.783,1.25-2.9,1.35-3.1c0.5-1.033,0.983-1.633,1.45-1.8C3.067-5,3.267-4.967,3.4-4.8c0-0.267-0.1-0.4-0.3-0.4
			C2.933-5.233,2.7-5.167,2.4-5C2.133-4.8,1.95-4.617,1.85-4.45l-0.9,1.3L0.4-1.45C0.133-0.75,0-0.333,0-0.2L0.05,0
			C0.083-0.267,0.2-0.4,0.4-0.4z"/>
	</g>
</symbol>
<symbol  id="FlashAICB_x5F_1_x2F_Layer_1_x2F__x3C_Path_x3E__x5F_14" viewBox="0 -5.2 6.1 5.2">
	<g id="Layer_1_24_">
		<path style="fill-rule:evenodd;clip-rule:evenodd;fill:#FFFEFF;" d="M0.7-5.2C0.333-4.867,0.1-4.55,0-4.25
			C1.767-2.283,3.8-0.867,6.1,0C3.933-1,2.333-2.35,1.3-4.05L0.7-5.2z"/>
	</g>
</symbol>
<symbol  id="FlashAICB_x5F_1_x2F_Layer_1_x2F__x3C_Path_x3E__x5F_15" viewBox="0 -1.45 8.8 1.45">
	<g id="Layer_1_6_">
		
			<radialGradient id="SVGID_2_" cx="4.3999" cy="-0.75" r="3.2125" gradientTransform="matrix(1 0 0 -0.2062 0 -0.9043)" gradientUnits="userSpaceOnUse">
			<stop  offset="0" style="stop-color:#000000"/>
			<stop  offset="0.4588" style="stop-color:#000000;stop-opacity:0.8588"/>
			<stop  offset="0.5333" style="stop-color:#000000;stop-opacity:0.698"/>
			<stop  offset="1" style="stop-color:#000000;stop-opacity:0"/>
		</radialGradient>
		<path style="fill-rule:evenodd;clip-rule:evenodd;fill:url(#SVGID_2_);" d="M8.8-0.75c0-0.467-1.466-0.7-4.4-0.7
			C1.467-1.45,0-1.217,0-0.75c0,0.2,0.433,0.367,1.3,0.5C2.167-0.083,3.2,0,4.4,0c1.2,0,2.233-0.083,3.1-0.25
			C8.367-0.383,8.8-0.55,8.8-0.75z"/>
	</g>
</symbol>
<symbol  id="FlashAICB_x5F_1_x2F_Layer_1_x2F__x3C_Path_x3E__x5F_15_x5F_0" viewBox="0 -5.2 6.1 5.2">
	<g id="Layer_1_23_">
		<path style="fill-rule:evenodd;clip-rule:evenodd;fill:#939DA0;" d="M0.7-5.2C0.333-4.867,0.1-4.55,0-4.25
			C1.767-2.283,3.8-0.867,6.1,0C3.933-1,2.333-2.35,1.3-4.05L0.7-5.2z"/>
	</g>
</symbol>
<symbol  id="FlashAICB_x5F_1_x2F_Layer_1_x2F__x3C_Path_x3E__x5F_16" viewBox="0 -1.9 9.8 1.9">
	<g id="Layer_1_5_">
		
			<radialGradient id="SVGID_3_" cx="4.8999" cy="-0.9502" r="3.575" gradientTransform="matrix(1 0 0 -0.2448 0 -1.1826)" gradientUnits="userSpaceOnUse">
			<stop  offset="0" style="stop-color:#000000"/>
			<stop  offset="0.4588" style="stop-color:#000000;stop-opacity:0.8588"/>
			<stop  offset="0.5333" style="stop-color:#000000;stop-opacity:0.698"/>
			<stop  offset="1" style="stop-color:#000000;stop-opacity:0"/>
		</radialGradient>
		<path style="fill-rule:evenodd;clip-rule:evenodd;fill:url(#SVGID_3_);" d="M9.8-0.95c0-0.267-0.483-0.5-1.45-0.7
			C7.417-1.817,6.267-1.9,4.9-1.9S2.383-1.817,1.45-1.65C0.483-1.45,0-1.217,0-0.95C0-0.683,0.483-0.467,1.45-0.3
			C2.417-0.1,3.567,0,4.9,0c1.333,0,2.483-0.1,3.45-0.3C9.317-0.467,9.8-0.683,9.8-0.95z"/>
	</g>
</symbol>
<symbol  id="FlashAICB_x5F_1_x2F_Layer_1_x2F__x3C_Path_x3E__x5F_17" viewBox="0 -1.9 9.8 1.9">
	<g id="Layer_1_4_">
		
			<radialGradient id="SVGID_4_" cx="4.8999" cy="-0.9502" r="3.575" gradientTransform="matrix(1 0 0 -0.2448 0 -1.1826)" gradientUnits="userSpaceOnUse">
			<stop  offset="0" style="stop-color:#000000"/>
			<stop  offset="0.4588" style="stop-color:#000000;stop-opacity:0.8588"/>
			<stop  offset="0.5333" style="stop-color:#000000;stop-opacity:0.698"/>
			<stop  offset="1" style="stop-color:#000000;stop-opacity:0"/>
		</radialGradient>
		<path style="fill-rule:evenodd;clip-rule:evenodd;fill:url(#SVGID_4_);" d="M9.8-0.95c0-0.267-0.483-0.5-1.45-0.7
			C7.417-1.817,6.267-1.9,4.9-1.9S2.383-1.817,1.45-1.65C0.483-1.45,0-1.217,0-0.95C0-0.683,0.483-0.467,1.45-0.3
			C2.417-0.1,3.567,0,4.9,0c1.333,0,2.483-0.1,3.45-0.3C9.317-0.467,9.8-0.683,9.8-0.95z"/>
	</g>
</symbol>
<symbol  id="FlashAICB_x5F_1_x2F_Layer_1_x2F__x3C_Path_x3E__x5F_17_x5F_0" viewBox="0 -6.85 18.8 6.85">
	<g id="Layer_1_22_">
		<path style="fill-rule:evenodd;clip-rule:evenodd;fill:#FFFEFF;" d="M10.85,0c1.5,0,2.983-0.233,4.45-0.7
			c1.233-0.4,2.4-0.95,3.5-1.65c-0.867-0.033-1.783-0.217-2.75-0.55c-0.833-0.333-1.533-0.833-2.1-1.5
			c-2.267,0.5-4.333,0.583-6.2,0.25c-2.8-0.5-4.85-1.4-6.15-2.7C0.967-6.717,0.433-6.517,0-6.25L0.6-5.1
			c1.033,1.7,2.633,3.05,4.8,4.05C7.233-0.35,9.05,0,10.85,0z"/>
	</g>
</symbol>
<symbol  id="FlashAICB_x5F_1_x2F_Layer_1_x2F__x3C_Path_x3E__x5F_2" viewBox="0 -0.85 0.75 0.85">
	<g id="Layer_1_11_">
		<path style="fill-rule:evenodd;clip-rule:evenodd;fill:#A5ACAF;" d="M0-0.85L0.3-0.1L0.75,0C0.483-0.367,0.233-0.65,0-0.85z"/>
	</g>
</symbol>
<symbol  id="FlashAICB_x5F_1_x2F_Layer_1_x2F__x3C_Path_x3E__x5F_23" viewBox="0 -23.75 30.05 23.75">
	<g id="Layer_1_21_">
		<path style="fill-rule:evenodd;clip-rule:evenodd;fill:#EAF9FC;" d="M26.5,0c1.1-0.833,1.983-1.967,2.65-3.4
			c0.6-1.733,0.9-3.434,0.9-5.1c0-4.2-1.483-7.8-4.45-10.8c-3-2.967-6.6-4.45-10.8-4.45c-1.433,0-2.917,0.217-4.45,0.65
			c-2.7,0.867-4.967,2.383-6.8,4.55C1.65-16.383,0.467-13.9,0-11.1c0.567,0.7,1.4,0.117,2.5-1.75c1.633-2.767,2.8-4.533,3.5-5.3
			c1.733-1.833,4.083-3.05,7.05-3.65c3.1-0.633,5.934-0.034,8.5,1.8c2.233,1.6,3.517,3.467,3.85,5.6c0.2,1.367,0.2,2.65,0,3.85
			C27.033-7.85,27.4-4.333,26.5,0z"/>
	</g>
</symbol>
<symbol  id="FlashAICB_x5F_1_x2F_Layer_1_x2F__x3C_Path_x3E__x5F_24" viewBox="0 -23.75 30.05 23.75">
	<g id="Layer_1_20_">
		<path style="fill-rule:evenodd;clip-rule:evenodd;fill:#939DA0;" d="M26.5,0c1.1-0.833,1.983-1.967,2.65-3.4
			c0.6-1.733,0.9-3.434,0.9-5.1c0-4.2-1.483-7.8-4.45-10.8c-3-2.967-6.6-4.45-10.8-4.45c-1.433,0-2.917,0.217-4.45,0.65
			c-2.7,0.867-4.967,2.383-6.8,4.55C1.65-16.383,0.467-13.9,0-11.1c0.567,0.7,1.4,0.117,2.5-1.75c1.633-2.767,2.8-4.533,3.5-5.3
			c1.733-1.833,4.083-3.05,7.05-3.65c3.1-0.633,5.934-0.034,8.5,1.8c2.233,1.6,3.517,3.467,3.85,5.6c0.2,1.367,0.2,2.65,0,3.85
			C27.033-7.85,27.4-4.333,26.5,0z"/>
	</g>
</symbol>
<symbol  id="FlashAICB_x5F_1_x2F_Layer_1_x2F__x3C_Path_x3E__x5F_26" viewBox="0 -12.45 7.58 12.455">
	<g id="Layer_1_19_">
		<path style="fill-rule:evenodd;clip-rule:evenodd;fill:#EAF9FC;" d="M0.55-4.9L0.8-0.3L0,0c3,0.067,5.367-0.567,7.1-1.9
			C8-6.233,7.633-9.75,6-12.45C5.667-10.317,4.783-8.467,3.35-6.9c-0.733,0.733-1.7,1.4-2.9,2H0.55z"/>
	</g>
</symbol>
<symbol  id="FlashAICB_x5F_1_x2F_Layer_1_x2F__x3C_Path_x3E__x5F_28" viewBox="0 -23.444 25.75 23.444">
	<g id="Layer_1_18_">
		<path style="fill-rule:evenodd;clip-rule:evenodd;fill:#939DA0;" d="M25.6-15.8c-0.333-2.133-1.617-4-3.85-5.6
			c-2.567-1.833-5.4-2.434-8.5-1.8c-2.967,0.6-5.317,1.817-7.05,3.65c-0.7,0.767-1.867,2.533-3.5,5.3
			c-1.1,1.867-1.934,2.45-2.5,1.75C0.067-11.367,0-10.533,0-10C0-6.233,1.233-2.9,3.7,0c0.1-0.3,0.333-0.617,0.7-0.95
			c-1.4-3.066-1.617-6-0.65-8.8c1.1-3.267,3.617-5.367,7.55-6.3c3.3-0.8,6.217-0.833,8.75-0.1c2.467,0.733,4.317,2.133,5.55,4.2
			C25.8-13.15,25.8-14.433,25.6-15.8z"/>
	</g>
</symbol>
<symbol  id="FlashAICB_x5F_1_x2F_Layer_1_x2F__x3C_Path_x3E__x5F_2_x5F_0" viewBox="0 -0.6 0.968 0.589">
	<g id="Layer_1_41_">
		<path style="fill-rule:evenodd;clip-rule:evenodd;fill:#A5ACAF;" d="M0.95-0.6C0.65-0.367,0.4-0.3,0.2-0.4L0-0.15
			C0.133,0.017,0.333,0.033,0.6-0.1C0.9-0.2,1.017-0.367,0.95-0.6z"/>
	</g>
</symbol>
<symbol  id="FlashAICB_x5F_1_x2F_Layer_1_x2F__x3C_Path_x3E__x5F_2_x5F_1" viewBox="0.044 -0.6 0.956 0.589">
	<g id="Layer_1_51_">
		<path style="fill-rule:evenodd;clip-rule:evenodd;fill:#A5ACAF;" d="M0.05-0.6C0.017-0.367,0.133-0.2,0.4-0.1
			C0.667,0.033,0.867,0.017,1-0.15L0.8-0.4C0.7-0.333,0.583-0.35,0.45-0.45C0.25-0.55,0.117-0.6,0.05-0.6z"/>
	</g>
</symbol>
<symbol  id="FlashAICB_x5F_1_x2F_Layer_1_x2F__x3C_Path_x3E__x5F_3" viewBox="0 -0.85 0.75 0.85">
	<g id="Layer_1_10_">
		<path style="fill-rule:evenodd;clip-rule:evenodd;fill:#CAD0D5;" d="M0-0.85L0.3-0.1L0.75,0C0.483-0.367,0.233-0.65,0-0.85z"/>
	</g>
</symbol>
<symbol  id="FlashAICB_x5F_1_x2F_Layer_1_x2F__x3C_Path_x3E__x5F_30" viewBox="0 -5 8.05 5">
	<g id="Layer_1_17_">
		<path style="fill-rule:evenodd;clip-rule:evenodd;fill:#FFFEFF;" d="M6.2-0.75C3.9-1.617,1.867-3.033,0.1-5L0-4.7
			c2.233,2.434,4.917,4,8.05,4.7C7.35-0.233,6.733-0.483,6.2-0.75z"/>
	</g>
</symbol>
<symbol  id="FlashAICB_x5F_1_x2F_Layer_1_x2F__x3C_Path_x3E__x5F_31" viewBox="0 -5 8.05 5">
	<g id="Layer_1_16_">
		<path style="fill-rule:evenodd;clip-rule:evenodd;fill:#939DA0;" d="M6.2-0.75C3.9-1.617,1.867-3.033,0.1-5L0-4.7
			c2.233,2.434,4.917,4,8.05,4.7C7.35-0.233,6.733-0.483,6.2-0.75z"/>
	</g>
</symbol>
<symbol  id="FlashAICB_x5F_1_x2F_Layer_1_x2F__x3C_Path_x3E__x5F_32">
	<g id="Layer_1_15_">
	</g>
</symbol>
<symbol  id="FlashAICB_x5F_1_x2F_Layer_1_x2F__x3C_Path_x3E__x5F_33" viewBox="0 -11.25 8.6 11.25">
	<g id="Layer_1_14_">
		<path style="fill-rule:evenodd;clip-rule:evenodd;fill:#EAF9FC;" d="M3.75-7.45c1.377-1.627,2.994-2.894,4.85-3.8
			C6.733-10.4,5.1-9.2,3.7-7.65C1.767-5.55,0.533-3.117,0-0.35L0.2,0C0.667-2.8,1.85-5.283,3.75-7.45z"/>
	</g>
</symbol>
<symbol  id="FlashAICB_x5F_1_x2F_Layer_1_x2F__x3C_Path_x3E__x5F_34" viewBox="0 -11.25 8.6 11.25">
	<g id="Layer_1_13_">
		<path style="fill-rule:evenodd;clip-rule:evenodd;fill:#939DA0;" d="M3.75-7.45c1.377-1.627,2.994-2.894,4.85-3.8
			C6.733-10.4,5.1-9.2,3.7-7.65C1.767-5.55,0.533-3.117,0-0.35L0.2,0C0.667-2.8,1.85-5.283,3.75-7.45z"/>
	</g>
</symbol>
<symbol  id="FlashAICB_x5F_1_x2F_Layer_1_x2F__x3C_Path_x3E__x5F_35" viewBox="0 -13.15 4 13.15">
	<g id="Layer_1_12_">
		<path style="fill-rule:evenodd;clip-rule:evenodd;fill:#939DA0;" d="M0.3-10.3c0-0.534,0.067-1.367,0.2-2.5l-0.2-0.35
			C0.1-11.883,0-10.9,0-10.2C0-6.333,1.3-2.933,3.9,0L4-0.3C1.533-3.2,0.3-6.533,0.3-10.3z"/>
	</g>
</symbol>
<symbol  id="FlashAICB_x5F_1_x2F_Layer_1_x2F__x3C_Path_x3E__x5F_4" viewBox="0.02 -7.3 4.98 7.3">
	<g id="Layer_1_9_">
		<path style="fill-rule:evenodd;clip-rule:evenodd;fill:#A5ACAF;" d="M0.05-3.25C-0.05-2.45,0.1-1.7,0.5-1
			c0.267,0.5,0.7,0.833,1.3,1C1.167-0.5,0.75-1.117,0.55-1.85c-0.267-0.9-0.083-1.733,0.55-2.5C1.467-4.817,1.983-5.233,2.65-5.6
			C3.483-6.1,4.267-6.3,5-6.2L4.7-6.95C4.533-7.117,4.3-7.233,4-7.3L3.8-7.25c-1.2,0.133-2.2,0.817-3,2.05
			C0.433-4.567,0.183-3.917,0.05-3.25z"/>
	</g>
</symbol>
<symbol  id="FlashAICB_x5F_1_x2F_Layer_1_x2F__x3C_Path_x3E__x5F_4_x5F_0" viewBox="0 -3.01 12.35 3.01">
	<g id="Layer_1_30_">
		<path style="fill-rule:evenodd;clip-rule:evenodd;fill:#FFFEFF;" d="M12-0.95C10.4-1.117,8.183-1.533,5.35-2.2
			C2.917-2.8,1.367-3.067,0.7-3L0-2.9c1.3,1.3,3.35,2.2,6.15,2.7c1.867,0.333,3.934,0.25,6.2-0.25L12-0.95z"/>
	</g>
</symbol>
<symbol  id="FlashAICB_x5F_1_x2F_Layer_1_x2F__x3C_Path_x3E__x5F_5" viewBox="0.15 -5.05 2.306 5.05">
	<g id="Layer_1_8_">
		<path style="fill-rule:evenodd;clip-rule:evenodd;fill:#CAD0D5;" d="M0.3-1.15L0.15-1H0.2l0.55,0.85L0.65,0
			c1-0.5,1.583-1,1.75-1.5c0.1-0.333,0.067-0.983-0.1-1.95c-0.2-0.566-0.45-1.066-0.75-1.5L1.1-5.05
			C1.533-3.583,1.267-2.283,0.3-1.15z"/>
	</g>
</symbol>
<symbol  id="FlashAICB_x5F_1_x2F_Layer_1_x2F__x3C_Path_x3E__x5F_5_x5F_0" viewBox="0 -1 0.25 1">
	<g id="Layer_1_39_">
		<path style="fill-rule:evenodd;clip-rule:evenodd;fill:#A5ACAF;" d="M0.2-1L0-0.3L0.2,0C0.267-0.367,0.267-0.7,0.2-1z"/>
	</g>
</symbol>
<symbol  id="FlashAICB_x5F_1_x2F_Layer_1_x2F__x3C_Path_x3E__x5F_5_x5F_1" viewBox="0 -1 0.25 1">
	<g id="Layer_1_49_">
		<polygon style="fill-rule:evenodd;clip-rule:evenodd;fill:#A5ACAF;" points="0,-1 0.05,0 0.25,-0.3 		"/>
	</g>
</symbol>
<symbol  id="FlashAICB_x5F_1_x2F_Layer_1_x2F__x3C_Path_x3E__x5F_6">
	<g id="Layer_1_7_">
	</g>
</symbol>
<symbol  id="FlashAICB_x5F_1_x2F_Layer_1_x2F__x3C_Path_x3E__x5F_6_x5F_0" viewBox="0 -1 0.25 1">
	<g id="Layer_1_38_">
		<path style="fill-rule:evenodd;clip-rule:evenodd;fill:#CAD0D5;" d="M0.2-1L0-0.3L0.2,0C0.267-0.367,0.267-0.7,0.2-1z"/>
	</g>
</symbol>
<symbol  id="FlashAICB_x5F_1_x2F_Layer_1_x2F__x3C_Path_x3E__x5F_6_x5F_1" viewBox="0 -1 0.25 1">
	<g id="Layer_1_48_">
		<polygon style="fill-rule:evenodd;clip-rule:evenodd;fill:#CAD0D5;" points="0,-1 0.05,0 0.25,-0.3 		"/>
	</g>
</symbol>
<symbol  id="FlashAICB_x5F_1_x2F_Layer_1_x2F__x3C_Path_x3E__x5F_7" viewBox="0 -5.1 3.05 5.1">
	<g id="Layer_1_29_">
		<path style="fill-rule:evenodd;clip-rule:evenodd;fill:#FFFEFF;" d="M0.4-1.7L0,0c1.367-1.467,2.383-3.167,3.05-5.1
			C2.383-3.667,1.5-2.533,0.4-1.7z"/>
	</g>
</symbol>
<symbol  id="FlashAICB_x5F_1_x2F_Layer_1_x2F__x3C_Path_x3E__x5F_7_x5F_0" viewBox="0.023 -5.053 7.477 5.053">
	<g id="Layer_1_37_">
		<path style="fill-rule:evenodd;clip-rule:evenodd;fill:#A5ACAF;" d="M7.25-4.1L7.1-4.2C6.2-4.967,5.033-5.217,3.6-4.95
			C2.867-4.817,2.133-4.533,1.4-4.1C0.633-3.467,0.183-2.7,0.05-1.8C-0.05-1.167,0.133-0.567,0.6,0C0.367-0.867,0.433-1.7,0.8-2.5
			C1.233-3.467,2.05-4,3.25-4.1c0.6-0.066,1.267,0,2,0.2C6.183-3.633,6.867-3.233,7.3-2.7l0.2-0.7C7.5-3.6,7.417-3.833,7.25-4.1z"/>
	</g>
</symbol>
<symbol  id="FlashAICB_x5F_1_x2F_Layer_1_x2F__x3C_Path_x3E__x5F_7_x5F_1" viewBox="0 -5.053 7.526 5.053">
	<g id="Layer_1_47_">
		<path style="fill-rule:evenodd;clip-rule:evenodd;fill:#A5ACAF;" d="M6.15-4.1c-0.733-0.433-1.467-0.717-2.2-0.85
			c-1.434-0.267-2.6-0.017-3.5,0.75L0.3-4.1C0.133-3.833,0.033-3.6,0-3.4l0.25,0.7C0.717-3.233,1.4-3.633,2.3-3.9
			c0.733-0.2,1.4-0.267,2-0.2C5.5-4,6.317-3.467,6.75-2.5C7.117-1.7,7.183-0.867,6.95,0C7.417-0.567,7.6-1.167,7.5-1.8
			C7.367-2.7,6.917-3.467,6.15-4.1z"/>
	</g>
</symbol>
<symbol  id="FlashAICB_x5F_1_x2F_Layer_1_x2F__x3C_Path_x3E__x5F_8" viewBox="0 -5.1 3.05 5.1">
	<g id="Layer_1_28_">
		<path style="fill-rule:evenodd;clip-rule:evenodd;fill:#EAF9FC;" d="M0.4-1.7L0,0c1.367-1.467,2.383-3.167,3.05-5.1
			C2.383-3.667,1.5-2.533,0.4-1.7z"/>
	</g>
</symbol>
<symbol  id="FlashAICB_x5F_1_x2F_Layer_1_x2F__x3C_Path_x3E__x5F_8_x5F_0">
	<g id="Layer_1_34_">
	</g>
</symbol>
<symbol  id="FlashAICB_x5F_1_x2F_Layer_1_x2F__x3C_Path_x3E__x5F_8_x5F_1" viewBox="0 -3.45 3.55 3.417">
	<g id="Layer_1_36_">
		<path style="fill-rule:evenodd;clip-rule:evenodd;fill:#CAD0D5;" d="M0.45-1.15L0.05-1.1h0.2l-0.1,1H0
			c1.1,0.133,1.833,0.067,2.2-0.2c0.233-0.167,0.566-0.633,1-1.4c0.2-0.7,0.316-1.183,0.35-1.45l-0.2-0.3
			C2.817-2.25,1.85-1.483,0.45-1.15z"/>
	</g>
</symbol>
<symbol  id="FlashAICB_x5F_1_x2F_Layer_1_x2F__x3C_Path_x3E__x5F_8_x5F_2" viewBox="0.125 -2.9 1.238 2.908">
	<g id="Layer_1_44_">
		<path style="fill-rule:evenodd;clip-rule:evenodd;fill:#CAD0D5;" d="M0.85-0.2c0.167,0.167,0.3,0.233,0.4,0.2
			c0.1,0,0.133-0.083,0.1-0.25c-0.333-0.667-0.533-1.267-0.6-1.8V-2.8c-0.067,0.066-0.1,0.2-0.1,0.4c0,0.433,0.083,0.983,0.25,1.65
			c-0.167-0.367-0.3-0.767-0.4-1.2L0.4-2.8L0.125-2.9C0.242-2.827,0.3-2.677,0.3-2.45c0,0.267,0.05,0.633,0.15,1.1
			C0.55-0.75,0.683-0.367,0.85-0.2z"/>
	</g>
</symbol>
<symbol  id="FlashAICB_x5F_1_x2F_Layer_1_x2F__x3C_Path_x3E__x5F_8_x5F_3" viewBox="0 -3.45 3.55 3.417">
	<g id="Layer_1_46_">
		<path style="fill-rule:evenodd;clip-rule:evenodd;fill:#CAD0D5;" d="M3.1-1.15c-1.4-0.333-2.367-1.1-2.9-2.3L0-3.15
			C0.033-2.883,0.15-2.4,0.35-1.7c0.066,0.1,0.233,0.35,0.5,0.75c0.2,0.333,0.367,0.55,0.5,0.65c0.367,0.267,1.1,0.333,2.2,0.2H3.4
			l-0.1-1h0.2L3.1-1.15z"/>
	</g>
</symbol>
<symbol  id="FlashAICB_x5F_1_x2F_Layer_1_x2F__x3C_Path_x3E__x5F_9" viewBox="0 -5.1 3.05 5.1">
	<g id="Layer_1_27_">
		<path style="fill-rule:evenodd;clip-rule:evenodd;fill:#939DA0;" d="M0.4-1.7L0,0c1.367-1.467,2.383-3.167,3.05-5.1
			C2.383-3.667,1.5-2.533,0.4-1.7z"/>
	</g>
</symbol>
<symbol  id="FlashAICB_x5F_1_x2F_Layer_1_x2F__x3C_Path_x3E__x5F_9_x5F_0" viewBox="0 -2.1 1.65 2.1">
	<g id="Layer_1_33_">
		<path style="fill-rule:evenodd;clip-rule:evenodd;fill:#CAD0D5;" d="M0.4-0.8C0.433-0.533,0.383-0.267,0.25,0L1.2-0.15L1.1-0.1
			c0.2-0.033,0.383-0.133,0.55-0.3C1.183-0.267,0.9-0.233,0.8-0.3C0.767-0.333,0.683-0.6,0.55-1.1c-0.1-0.5-0.2-0.783-0.3-0.85
			L0-2.1C0.267-1.533,0.4-1.1,0.4-0.8z"/>
	</g>
</symbol>
<symbol  id="FlashAICB_x5F_1_x2F_Layer_1_x2F__x3C_Path_x3E__x5F_9_x5F_1" viewBox="0 -0.45 0.5 0.45">
	<g id="Layer_1_35_">
		<path style="fill-rule:evenodd;clip-rule:evenodd;fill:#CAD0D5;" d="M0.45-0.45C0.25-0.417,0.1-0.283,0-0.05L0.05,0
			C0.15-0.2,0.3-0.333,0.5-0.4L0.45-0.45z"/>
	</g>
</symbol>
<symbol  id="FlashAICB_x5F_1_x2F_Layer_1_x2F__x3C_Path_x3E__x5F_9_x5F_2" viewBox="0 -2.1 1.65 2.1">
	<g id="Layer_1_43_">
		<path style="fill-rule:evenodd;clip-rule:evenodd;fill:#CAD0D5;" d="M0.85-0.3C0.75-0.233,0.467-0.267,0-0.4
			c0.167,0.167,0.333,0.267,0.5,0.3L0.45-0.15L1.4,0C1.267-0.267,1.2-0.533,1.2-0.8c0.033-0.3,0.183-0.733,0.45-1.3L1.4-1.95
			C1.3-1.883,1.2-1.6,1.1-1.1C0.967-0.6,0.883-0.333,0.85-0.3z"/>
	</g>
</symbol>
<symbol  id="FlashAICB_x5F_1_x2F_Layer_1_x2F__x3C_Path_x3E__x5F_9_x5F_3">
	<g id="Layer_1_45_">
	</g>
</symbol>
<symbol  id="transparent_x5F_box_1_" viewBox="0 -50 50 50">
	<g id="Layer_1_2_">
		<polygon style="fill-rule:evenodd;clip-rule:evenodd;fill:#CCCCCC;" points="50,-50 0,-50 0,0 50,0 		"/>
	</g>
</symbol>
<g id="transparent_x5F_box">
	
		<use xlink:href="#transparent_x5F_box_1_"  width="50" height="50" y="-50" transform="matrix(1.2 0 0 -1.2 0 0)" style="overflow:visible;opacity:0;"/>
</g>
<g id="Layer_1">
	<g>
		<g>
			
				<use xlink:href="#FlashAICB_x5F_1_x2F_Layer_1_x2F__x3C_Path_x3E__x5F_12"  width="52.85" height="9.767" y="-9.767" transform="matrix(1.13 0 0 -1.13 0 47.5)" style="overflow:visible;opacity:0.7695;enable-background:new    ;"/>
			
				<radialGradient id="SVGID_5_" cx="259.7998" cy="64.5996" r="20.725" gradientTransform="matrix(1.13 0 0 -0.2713 -263.3001 75.0692)" gradientUnits="userSpaceOnUse">
				<stop  offset="0" style="stop-color:#404040"/>
				<stop  offset="0.9922" style="stop-color:#201B1B"/>
			</radialGradient>
			<polygon style="fill-rule:evenodd;clip-rule:evenodd;fill:url(#SVGID_5_);" points="55.752,56.078 56.6,58.226 3.943,58.226 
				4.734,56.078 			"/>
			<path style="fill-rule:evenodd;clip-rule:evenodd;fill:#6B6B6B;" d="M54.849,56.134c0,0.039-4.406,0.096-13.221,0.17
				c-9.04,0.075-15.669,0.113-19.888,0.113c-3.729,0-7.609-0.038-11.639-0.113c-4.069-0.112-5.65-0.17-4.746-0.17l16.328-0.056
				C43.794,56.078,54.849,56.097,54.849,56.134z"/>
			
				<linearGradient id="SVGID_6_" gradientUnits="userSpaceOnUse" x1="238.0996" y1="61.1758" x2="281.4004" y2="61.1758" gradientTransform="matrix(1.13 0 0 1.13 -263.3001 -15.4505)">
				<stop  offset="0" style="stop-color:#C94C52"/>
				<stop  offset="0.0431" style="stop-color:#B84147"/>
				<stop  offset="0.1843" style="stop-color:#862026"/>
				<stop  offset="0.3098" style="stop-color:#60050E"/>
				<stop  offset="0.4157" style="stop-color:#480004"/>
				<stop  offset="0.4863" style="stop-color:#3F0002"/>
				<stop  offset="0.5647" style="stop-color:#450003"/>
				<stop  offset="0.6627" style="stop-color:#570008"/>
				<stop  offset="0.7686" style="stop-color:#73131A"/>
				<stop  offset="0.8824" style="stop-color:#992D33"/>
				<stop  offset="1" style="stop-color:#C94C51"/>
				<stop  offset="1" style="stop-color:#C94C52"/>
			</linearGradient>
			<polygon style="fill-rule:evenodd;clip-rule:evenodd;fill:url(#SVGID_6_);" points="53.492,55.23 7.333,55.4 5.75,54.609 
				8.575,51.954 51.459,51.954 54.68,54.609 			"/>
			
				<radialGradient id="SVGID_7_" cx="259.7998" cy="62.8496" r="20.075" gradientTransform="matrix(1.13 0 0 -0.0788 -263.3001 60.5217)" gradientUnits="userSpaceOnUse">
				<stop  offset="0" style="stop-color:#610002"/>
				<stop  offset="0.9922" style="stop-color:#400001"/>
			</radialGradient>
			<polygon style="fill-rule:evenodd;clip-rule:evenodd;fill:url(#SVGID_7_);" points="54.68,54.609 55.752,56.078 4.79,56.078 
				5.75,54.609 			"/>
			<path style="fill-rule:evenodd;clip-rule:evenodd;fill:#9B412F;" d="M51.346,54.665c0,0.038-3.974,0.114-11.921,0.227
				c-7.835,0.112-13.56,0.17-17.176,0.17c-3.014,0-5.989-0.058-8.928-0.17c-2.975-0.151-4.086-0.227-3.333-0.227l12.261-0.056
				C41.646,54.609,51.346,54.628,51.346,54.665z"/>
			
				<linearGradient id="SVGID_8_" gradientUnits="userSpaceOnUse" x1="252.6523" y1="-10.459" x2="277.6666" y2="-10.459" gradientTransform="matrix(1.0921 0.2902 -0.2902 1.0921 -263.3002 -15.4496)">
				<stop  offset="0" style="stop-color:#C94C52"/>
				<stop  offset="0.0431" style="stop-color:#B84147"/>
				<stop  offset="0.1843" style="stop-color:#862026"/>
				<stop  offset="0.3098" style="stop-color:#60050E"/>
				<stop  offset="0.4157" style="stop-color:#480004"/>
				<stop  offset="0.4863" style="stop-color:#3F0002"/>
				<stop  offset="0.5647" style="stop-color:#450003"/>
				<stop  offset="0.6627" style="stop-color:#570008"/>
				<stop  offset="0.7686" style="stop-color:#73131A"/>
				<stop  offset="0.8824" style="stop-color:#992D33"/>
				<stop  offset="1" style="stop-color:#C94C51"/>
				<stop  offset="1" style="stop-color:#C94C52"/>
			</linearGradient>
			<polygon style="fill-rule:evenodd;clip-rule:evenodd;fill:url(#SVGID_8_);" points="13.153,48.111 47.277,48.111 51.572,50.146 
				48.013,52.35 21.853,51.784 12.417,52.35 8.858,50.146 			"/>
			
				<radialGradient id="SVGID_9_" cx="259.75" cy="60.5" r="17.85" gradientTransform="matrix(1.13 0 0 -0.2714 -263.3001 69.3348)" gradientUnits="userSpaceOnUse">
				<stop  offset="0" style="stop-color:#610002"/>
				<stop  offset="0.9922" style="stop-color:#400001"/>
			</radialGradient>
			<polygon style="fill-rule:evenodd;clip-rule:evenodd;fill:url(#SVGID_9_);" points="51.572,50.202 52.871,54.271 7.559,54.271 
				8.858,50.202 			"/>
			<path style="fill-rule:evenodd;clip-rule:evenodd;fill:#9B412F;" d="M51.346,50.259c0,0.038-4.011,0.094-12.034,0.169
				c-8.174,0.114-13.843,0.17-17.006,0.17c-2.788,0-5.707-0.056-8.757-0.17c-3.051-0.112-4.238-0.169-3.56-0.169
				c0.188,0,4.276-0.038,12.261-0.113C41.646,50.146,51.346,50.183,51.346,50.259z"/>
			
				<radialGradient id="SVGID_10_" cx="259.75" cy="58.0498" r="13.365" gradientTransform="matrix(1.13 0 0 -1.4038 -263.3001 131.6336)" gradientUnits="userSpaceOnUse">
				<stop  offset="0" style="stop-color:#300001"/>
				<stop  offset="0.9922" style="stop-color:#240000"/>
			</radialGradient>
			<rect x="8.858" y="49.977" style="fill-rule:evenodd;clip-rule:evenodd;fill:url(#SVGID_10_);" width="42.714" height="0.339"/>
			
				<linearGradient id="SVGID_11_" gradientUnits="userSpaceOnUse" x1="241.9004" y1="55.7002" x2="277.5996" y2="55.7002" gradientTransform="matrix(1.13 0 0 1.13 -263.3001 -15.4505)">
				<stop  offset="0" style="stop-color:#FFFFFF"/>
				<stop  offset="0.0235" style="stop-color:#F7F8F9"/>
				<stop  offset="0.1725" style="stop-color:#C9D0D9"/>
				<stop  offset="0.302" style="stop-color:#A7B2C1"/>
				<stop  offset="0.4118" style="stop-color:#92A0B2"/>
				<stop  offset="0.4863" style="stop-color:#8A99AD"/>
				<stop  offset="0.6039" style="stop-color:#8E9EB2"/>
				<stop  offset="0.7529" style="stop-color:#9BACC1"/>
				<stop  offset="0.9137" style="stop-color:#B0C2D9"/>
				<stop  offset="1" style="stop-color:#BED1E9"/>
			</linearGradient>
			<polygon style="fill-rule:evenodd;clip-rule:evenodd;fill:url(#SVGID_11_);" points="13.943,45.513 46.544,45.513 50.385,48.847 
				47.165,49.468 13.321,49.468 10.045,48.847 			"/>
			<g>
				<path style="fill-rule:evenodd;clip-rule:evenodd;fill:#D4D8DF;" d="M20.102,49.354l-0.339-1.355l3.107-1.018
					c0.188,0,0.885,0.283,2.09,0.848l-0.056,1.469L20.102,49.354z"/>
				<path style="fill-rule:evenodd;clip-rule:evenodd;fill:#B6BCCA;" d="M33.097,49.354l-0.057-1.413l2.712-0.564
					c0.753,0,1.413,0.132,1.978,0.396c0.302,0.113,0.489,0.227,0.565,0.339c0.075,0.113,0.112,0.528,0.112,1.243v0.058
					L33.097,49.354z"/>
				<path style="fill-rule:evenodd;clip-rule:evenodd;fill:#B1B7C4;" d="M30.103,45.513l0.848,0.339
					c0.413,0.264,0.508,0.923,0.282,1.978c-0.076,0.414-0.076,0.829,0,1.242v0.283h-3.898c-0.075-0.112-0.133-0.264-0.17-0.451
					c0-0.264-0.019-0.434-0.056-0.509c-0.188-0.453-0.301-0.811-0.339-1.074l-0.056-1.356l1.751-0.451H30.103z"/>
			</g>
			
				<radialGradient id="SVGID_12_" cx="259.75" cy="57.4004" r="13.4125" gradientTransform="matrix(1.13 0 0 -0.3286 -263.3001 68.2715)" gradientUnits="userSpaceOnUse">
				<stop  offset="0" style="stop-color:#BEC6D2"/>
				<stop  offset="0.9922" style="stop-color:#A5B5CB"/>
			</radialGradient>
			<polygon style="fill-rule:evenodd;clip-rule:evenodd;fill:url(#SVGID_12_);" points="50.385,48.847 51.572,49.977 8.858,49.977 
				10.045,48.847 			"/>
		</g>
		
			<use xlink:href="#FlashAICB_x5F_1_x2F_Layer_1_x2F__x3C_Path_x3E__x5F_17"  width="9.8" height="1.9" y="-1.9" transform="matrix(1.13 0 0 -1.13 17.8501 46.75)" style="overflow:visible;opacity:0.6992;enable-background:new    ;"/>
		
			<use xlink:href="#FlashAICB_x5F_1_x2F_Layer_1_x2F__x3C_Path_x3E__x5F_16"  width="9.8" height="1.9" y="-1.9" transform="matrix(1.13 0 0 -1.13 30.75 46.75)" style="overflow:visible;opacity:0.6992;enable-background:new    ;"/>
		
			<use xlink:href="#FlashAICB_x5F_1_x2F_Layer_1_x2F__x3C_Path_x3E__x5F_15"  width="8.8" height="1.45" y="-1.45" transform="matrix(1.13 0 0 -1.13 24.6499 45.4004)" style="overflow:visible;opacity:0.6992;enable-background:new    ;"/>
		<path style="fill-rule:evenodd;clip-rule:evenodd;fill:#697476;" d="M28.067,30.653c0.98-0.188,1.959,0.056,2.938,0.734
			c0.941,0.641,1.395,1.318,1.356,2.034c-0.113,2.335-0.866,4.125-2.26,5.367c-0.49,0.49-1.206,0.584-2.147,0.283
			c-0.941-0.339-1.695-0.979-2.26-1.922c-1.092-1.845-1.205-3.54-0.338-5.085C25.77,31.351,26.674,30.879,28.067,30.653z"/>
		<g>
			
				<use xlink:href="#FlashAICB_x5F_1_x2F_Layer_1_x2F__x3C_Path_x3E__x5F_6"  width="-32766" height="-32766" x="16383" y="16383" transform="matrix(1.13 0 0 -1.13 27.1001 30.7998)" style="overflow:visible;opacity:0.3516;enable-background:new    ;"/>
			
				<use xlink:href="#FlashAICB_x5F_1_x2F_Layer_1_x2F__x3C_Path_x3E__x5F_5"  width="2.306" height="5.05" x="0.15" y="-5.05" transform="matrix(1.13 0 0 -1.13 29.2002 32.2002)" style="overflow:visible;opacity:0.3516;enable-background:new    ;"/>
			
				<use xlink:href="#FlashAICB_x5F_1_x2F_Layer_1_x2F__x3C_Path_x3E__x5F_4"  width="4.98" height="7.3" x="0.02" y="-7.3" transform="matrix(1.13 0 0 -1.13 24.7998 30.9004)" style="overflow:visible;opacity:0.4688;enable-background:new    ;"/>
			
				<use xlink:href="#FlashAICB_x5F_1_x2F_Layer_1_x2F__x3C_Path_x3E__x5F_3"  width="0.75" height="0.85" y="-0.85" transform="matrix(1.13 0 0 -1.13 30.0996 37.7998)" style="overflow:visible;opacity:0.3516;enable-background:new    ;"/>
			
				<use xlink:href="#FlashAICB_x5F_1_x2F_Layer_1_x2F__x3C_Path_x3E__x5F_2"  width="0.75" height="0.85" y="-0.85" transform="matrix(1.13 0 0 -1.13 30.0996 37.7998)" style="overflow:visible;opacity:0.4688;enable-background:new    ;"/>
			<path style="fill-rule:evenodd;clip-rule:evenodd;fill:#ACB3B7;" d="M25.695,36.812c0.904,1.394,2.034,2.166,3.39,2.316
				l0.226,0.057c-0.64,0.076-1.281-0.057-1.921-0.396c-0.678-0.376-1.243-0.922-1.695-1.639c-0.49-0.828-0.772-1.676-0.847-2.542
				C24.999,35.362,25.281,36.096,25.695,36.812z"/>
			<path style="fill-rule:evenodd;clip-rule:evenodd;fill:#B7BFC0;" d="M29.706,32.01c-0.301-0.302-0.677-0.509-1.13-0.622
				c-0.414-0.113-0.866-0.113-1.356,0c-0.113-0.15-0.113-0.338,0-0.564l0.847-0.17c0.98-0.188,1.959,0.056,2.938,0.734
				c0.941,0.641,1.395,1.318,1.356,2.034c-0.076,1.018-0.264,1.921-0.564,2.712c0.188-1.092,0.225-1.827,0.112-2.203
				c-0.188-0.565-0.848-1.13-1.978-1.695L29.706,32.01z"/>
		</g>
		<path style="fill-rule:evenodd;clip-rule:evenodd;fill:#3B4243;" d="M25.356,36.417l-0.227-1.188l0.904-0.226l4.408-0.17
			c0.264,0,0.772,0.264,1.524,0.792c-0.188,0.149-0.847,0.357-1.977,0.621c-0.715,0.151-1.525,0.245-2.429,0.282l-1.188-0.057
			l0.396,0.734l1.074,1.526c-0.34-0.038-0.604-0.133-0.791-0.283c-0.038-0.037-0.339-0.452-0.904-1.243
			C25.62,36.529,25.356,36.266,25.356,36.417z"/>
		
			<radialGradient id="SVGID_13_" cx="183.4932" cy="-184.1089" r="2.9196" gradientTransform="matrix(0.6438 0.9286 0.4743 -0.3288 -5.0145 -194.5169)" gradientUnits="userSpaceOnUse">
			<stop  offset="0" style="stop-color:#919FA3"/>
			<stop  offset="1" style="stop-color:#5A6466"/>
		</radialGradient>
		<path style="fill-rule:evenodd;clip-rule:evenodd;fill:url(#SVGID_13_);" d="M24.17,35.682c-0.301-0.603-0.452-0.979-0.452-1.13
			s0.282-0.112,0.847,0.112c0.565,0.227,0.866,0.434,0.904,0.623c0.075,0.225,0.17,0.564,0.283,1.016
			c0.151,0.378,0.546,0.886,1.186,1.526l0.905,1.243c0.113,0.452-0.095,0.734-0.622,0.847l-0.283-0.17
			c-0.603-0.488-0.998-0.96-1.186-1.412l-0.792-1.299C24.735,36.736,24.471,36.284,24.17,35.682z"/>
		
			<radialGradient id="SVGID_14_" cx="261.2998" cy="45.9004" r="2.9196" gradientTransform="matrix(-0.6438 0.9286 -0.4743 -0.3288 221.9644 -191.1451)" gradientUnits="userSpaceOnUse">
			<stop  offset="0" style="stop-color:#919FA3"/>
			<stop  offset="1" style="stop-color:#5A6466"/>
		</radialGradient>
		<path style="fill-rule:evenodd;clip-rule:evenodd;fill:url(#SVGID_14_);" d="M33.604,35.682c-0.301,0.603-0.564,1.055-0.791,1.356
			l-0.791,1.299c-0.188,0.452-0.584,0.924-1.187,1.412l-0.282,0.17c-0.527-0.112-0.734-0.395-0.621-0.847l0.903-1.243
			c0.641-0.641,1.036-1.148,1.187-1.526c0.113-0.149,0.208-0.489,0.282-1.016c0.039-0.189,0.34-0.396,0.905-0.623
			c0.565-0.225,0.848-0.264,0.848-0.112S33.906,35.079,33.604,35.682z"/>
		
			<radialGradient id="SVGID_15_" cx="258.5" cy="49.5996" r="4.5875" gradientTransform="matrix(1.13 0 0 -1.4902 -263.3001 114.5115)" gradientUnits="userSpaceOnUse">
			<stop  offset="0" style="stop-color:#919FA3"/>
			<stop  offset="0.6706" style="stop-color:#697476"/>
			<stop  offset="0.7961" style="stop-color:#6E7A7B"/>
			<stop  offset="0.9098" style="stop-color:#424B4C"/>
		</radialGradient>
		<path style="fill-rule:evenodd;clip-rule:evenodd;fill:url(#SVGID_15_);" d="M27.729,39.072l0.396-0.339l0.678,0.112v-0.057
			l0.903-0.056l0.453,0.339c0.074,0.188,0.301,0.734,0.677,1.639l0.283,5.367c-0.264,0.376-0.96,0.564-2.09,0.564h-0.17
			c-0.715,0-1.28-0.095-1.695-0.282l-0.395-0.282l0.169-4.068c0-0.603,0.039-1.035,0.114-1.299
			C27.428,39.807,27.654,39.261,27.729,39.072z"/>
		<g>
			<path style="fill-rule:evenodd;clip-rule:evenodd;fill:#A1ABAF;" d="M28.407,39.524c0.376-0.076,0.678,0,0.904,0.225
				c0.227,0.189,0.283,0.472,0.169,0.848c-0.075,0.227-0.188,0.378-0.339,0.452c-0.188,0.075-0.357,0.151-0.508,0.227
				c-0.15,0.075-0.283,0.227-0.396,0.451c-0.112,0.227-0.207,0.378-0.282,0.453c-0.414-0.264-0.603-0.659-0.565-1.187
				c0-0.866,0.245-1.319,0.735-1.356L28.407,39.524z M28.52,40.089c0.038-0.226-0.075-0.301-0.339-0.226l-0.282,0.112
				c-0.264,0.188-0.339,0.377-0.227,0.565c0.113,0.226,0.301,0.244,0.565,0.056C28.389,40.484,28.482,40.314,28.52,40.089z"/>
			<path style="fill-rule:evenodd;clip-rule:evenodd;fill:#A1ABAF;" d="M27.899,43.196l0.112-0.113
				c0.114,0.075,0.17,0.207,0.17,0.396c0,0.149-0.075,0.243-0.226,0.282c-0.151,0.037-0.245,0-0.283-0.113
				c-0.028-0.115-0.028-0.209,0-0.283c0.113,0.038,0.189,0.038,0.227,0C27.974,43.328,27.974,43.271,27.899,43.196z"/>
			<path style="fill-rule:evenodd;clip-rule:evenodd;fill:#FFFEFF;" d="M28.181,39.863c0.264-0.075,0.376,0,0.339,0.226
				s-0.131,0.396-0.283,0.508c-0.264,0.188-0.452,0.17-0.565-0.056c-0.112-0.188-0.038-0.377,0.227-0.565L28.181,39.863z"/>
			<path style="fill-rule:evenodd;clip-rule:evenodd;fill:#FFFEFF;" d="M27.899,43.196c0.075,0.075,0.075,0.132,0,0.169
				c-0.038,0.038-0.114,0.038-0.227,0l0.057-0.056C27.729,43.234,27.785,43.196,27.899,43.196z"/>
		</g>
		<path style="fill-rule:evenodd;clip-rule:evenodd;fill:#697476;" d="M20.271,33.31c0.075-0.114,0.168-0.076,0.282,0.112
			c0.075,0.227,0.15,0.339,0.226,0.339l-0.113-0.509c0-0.264,0.075-0.376,0.226-0.339c0.075,0.037,0.113,0.17,0.113,0.396
			c0.039,0.112,0.132,0.206,0.282,0.282c-0.038-0.076-0.019-0.17,0.058-0.282c0.037-0.114,0.094-0.151,0.168-0.114
			c0.114,0.038,0.17,0.208,0.17,0.509l0.227,0.509l0.282,0.451l-0.226,3.165c-0.264,0.829-0.415,1.337-0.453,1.525
			c-0.037,0.188-0.168,0.395-0.395,0.621c-0.188,0.227-0.357,0.339-0.509,0.339c-0.151,0.038-0.264-0.075-0.338-0.339
			c-0.038-0.264-0.038-0.546,0-0.848c0.037-0.301,0.245-0.828,0.621-1.581c0.075-0.114,0.208-0.887,0.395-2.317
			c0.039-0.188-0.038-0.376-0.225-0.565c-0.264-0.264-0.415-0.413-0.453-0.451c-0.112-0.151-0.207-0.282-0.282-0.396
			C20.215,33.629,20.196,33.459,20.271,33.31z"/>
		<g>
			<path style="fill-rule:evenodd;clip-rule:evenodd;fill:#929B9A;" d="M20.836,33.931c0.188,0.112,0.32,0.245,0.395,0.395
				c0.151,0.265,0.188,0.453,0.114,0.565l-0.114,0.057l-0.113-0.169h0.057c0.037-0.075,0.019-0.151-0.057-0.227l-0.339-0.339
				c-0.151-0.301-0.282-0.415-0.396-0.339l-0.056-0.057C20.44,33.704,20.61,33.742,20.836,33.931z"/>
			<path style="fill-rule:evenodd;clip-rule:evenodd;fill:#929B9A;" d="M21.231,35.343c0.075-0.151,0.17-0.226,0.282-0.226v1.751
				c0,0.339-0.056,0.527-0.168,0.564c-0.151,0.114-0.264,0-0.34-0.338L21.231,35.343z"/>
			<path style="fill-rule:evenodd;clip-rule:evenodd;fill:#FFFEFF;" d="M21.119,34.552c0.075,0.075,0.094,0.151,0.057,0.227h-0.057
				c-0.264-0.227-0.434-0.415-0.509-0.565l-0.226-0.339c0.114-0.076,0.245,0.038,0.396,0.339L21.119,34.552z"/>
		</g>
		<path style="fill-rule:evenodd;clip-rule:evenodd;fill:#697476;" d="M37.616,33.31c0.075,0.149,0.057,0.319-0.057,0.508
			c-0.037,0.113-0.112,0.244-0.226,0.396c-0.038,0.038-0.169,0.188-0.396,0.451c-0.226,0.189-0.32,0.378-0.282,0.565
			c0.188,1.431,0.32,2.203,0.395,2.317c0.339,0.64,0.547,1.167,0.622,1.581c0.076,0.302,0.076,0.584,0,0.848
			c-0.075,0.264-0.188,0.377-0.339,0.339c-0.15,0-0.32-0.112-0.509-0.339c-0.188-0.188-0.32-0.396-0.396-0.621
			c-0.037-0.188-0.188-0.696-0.452-1.525c-0.037-0.076-0.075-0.358-0.112-0.848c-0.038-0.489-0.038-0.81,0-0.961l-0.113-1.356
			l0.283-0.451l0.225-0.509c0-0.301,0.058-0.471,0.17-0.509c0.075-0.037,0.151,0,0.227,0.114c0.037,0.112,0.037,0.206,0,0.282
			c0.15-0.076,0.245-0.17,0.282-0.282c0-0.227,0.038-0.359,0.112-0.396c0.151-0.075,0.227,0.037,0.227,0.339l-0.112,0.509
			c0.037,0,0.112-0.112,0.225-0.339C37.466,33.233,37.541,33.195,37.616,33.31z"/>
		<g>
			<path style="fill-rule:evenodd;clip-rule:evenodd;fill:#929B9A;" d="M37.107,33.931c0.227-0.188,0.378-0.227,0.452-0.113v0.057
				c-0.112-0.076-0.244,0.038-0.395,0.339h-0.058c-0.075,0.15-0.169,0.264-0.282,0.339c-0.075,0.075-0.094,0.151-0.057,0.227h0.057
				l-0.112,0.169L36.6,34.891c-0.076-0.112-0.038-0.301,0.113-0.565C36.787,34.213,36.92,34.081,37.107,33.931z"/>
			<path style="fill-rule:evenodd;clip-rule:evenodd;fill:#929B9A;" d="M36.43,35.117c0.151,0,0.227,0.074,0.227,0.226l0.227,1.752
				c0,0.338-0.096,0.452-0.283,0.338c-0.113-0.037-0.17-0.226-0.17-0.564V35.117z"/>
			<path style="fill-rule:evenodd;clip-rule:evenodd;fill:#FFFEFF;" d="M37.165,34.213c0.15-0.301,0.282-0.415,0.395-0.339
				l-0.226,0.339c-0.075,0.15-0.245,0.339-0.509,0.565h-0.057c-0.037-0.075-0.019-0.151,0.057-0.227
				c0.113-0.075,0.207-0.188,0.282-0.339H37.165z"/>
		</g>
		
			<radialGradient id="SVGID_16_" cx="132.6445" cy="-219.9165" r="18.6323" gradientTransform="matrix(0.4996 1.0136 1.0136 -0.4996 182.4959 -235.1802)" gradientUnits="userSpaceOnUse">
			<stop  offset="0" style="stop-color:#C9D7D5"/>
			<stop  offset="0.7922" style="stop-color:#303738"/>
		</radialGradient>
		<path style="fill-rule:evenodd;clip-rule:evenodd;fill:url(#SVGID_16_);" d="M45.922,18.732c0,4.746-1.676,8.814-5.028,12.204
			c-3.39,3.353-7.459,5.028-12.204,5.028c-4.784,0-8.853-1.676-12.205-5.028c-3.39-3.39-5.085-7.458-5.085-12.204
			c0-4.784,1.695-8.852,5.085-12.204C19.837,3.176,23.906,1.5,28.69,1.5c4.745,0,8.814,1.676,12.204,5.029
			C44.246,9.88,45.922,13.948,45.922,18.732z"/>
		<g>
			
				<use xlink:href="#FlashAICB_x5F_1_x2F_Layer_1_x2F__x3C_Path_x3E__x5F_35"  width="4" height="13.15" y="-13.15" transform="matrix(1.13 0 0 -1.13 11.3999 7.2002)" style="overflow:visible;opacity:0.6211;enable-background:new    ;"/>
			
				<use xlink:href="#FlashAICB_x5F_1_x2F_Layer_1_x2F__x3C_Path_x3E__x5F_34"  width="8.6" height="11.25" y="-11.25" transform="matrix(1.13 0 0 -1.13 11.75 21.6499)" style="overflow:visible;opacity:0.6211;enable-background:new    ;"/>
			
				<use xlink:href="#FlashAICB_x5F_1_x2F_Layer_1_x2F__x3C_Path_x3E__x5F_33"  width="8.6" height="11.25" y="-11.25" transform="matrix(1.13 0 0 -1.13 11.75 21.6499)" style="overflow:visible;opacity:0.6406;enable-background:new    ;"/>
			
				<use xlink:href="#FlashAICB_x5F_1_x2F_Layer_1_x2F__x3C_Path_x3E__x5F_32"  width="-32766" height="-32766" x="16383" y="16383" transform="matrix(1.13 0 0 -1.13 22.7998 1.5)" style="overflow:visible;opacity:0.8203;enable-background:new    ;"/>
			
				<use xlink:href="#FlashAICB_x5F_1_x2F_Layer_1_x2F__x3C_Path_x3E__x5F_31"  width="8.05" height="5" y="-5" transform="matrix(1.13 0 0 -1.13 15.7998 1.8999)" style="overflow:visible;opacity:0.6211;enable-background:new    ;"/>
			
				<use xlink:href="#FlashAICB_x5F_1_x2F_Layer_1_x2F__x3C_Path_x3E__x5F_30"  width="8.05" height="5" y="-5" transform="matrix(1.13 0 0 -1.13 15.7998 1.8999)" style="overflow:visible;opacity:0.8203;enable-background:new    ;"/>
			
				<radialGradient id="SVGID_17_" cx="135.21" cy="-219.1074" r="24.927" gradientTransform="matrix(0.4992 1.0137 1.0137 -0.4992 180.9341 -234.2144)" gradientUnits="userSpaceOnUse">
				<stop  offset="0.098" style="stop-color:#000000;stop-opacity:0"/>
				<stop  offset="0.9059" style="stop-color:#000000;stop-opacity:0.749"/>
				<stop  offset="1" style="stop-color:#000000"/>
			</radialGradient>
			<path style="fill-rule:evenodd;clip-rule:evenodd;fill:url(#SVGID_17_);" d="M16.711,8.618c0.49,0.302,1.092,0.528,1.809,0.678
				c-0.264,0.301-0.49,0.584-0.679,0.848l-0.169,0.339l1.638,3.164l2.43-0.791c1.883-0.565,3.446-0.904,4.69-1.017
				c1.543-0.113,4.199,0.113,7.966,0.678c1.355,0.678,2.447,1.431,3.276,2.26c1.619,1.771,2.618,3.861,2.994,6.271
				c-1.394,2.335-3.483,3.917-6.271,4.746c-2.863,0.829-6.159,0.791-9.888-0.113c-4.445-1.055-7.289-3.428-8.531-7.12
				C14.885,15.398,15.13,12.084,16.711,8.618z"/>
			
				<use xlink:href="#FlashAICB_x5F_1_x2F_Layer_1_x2F__x3C_Path_x3E__x5F_28"  width="25.75" height="23.444" y="-23.444" transform="matrix(1.13 0 0 -1.13 11.75 7.5498)" style="overflow:visible;opacity:0.6211;enable-background:new    ;"/>
			
				<radialGradient id="SVGID_18_" cx="135.2598" cy="-219.0767" r="24.9438" gradientTransform="matrix(0.4994 1.0136 1.0136 -0.4994 180.821 -234.2849)" gradientUnits="userSpaceOnUse">
				<stop  offset="0.098" style="stop-color:#000000;stop-opacity:0"/>
				<stop  offset="0.9059" style="stop-color:#000000;stop-opacity:0.749"/>
				<stop  offset="1" style="stop-color:#000000"/>
			</radialGradient>
			<path style="fill-rule:evenodd;clip-rule:evenodd;fill:url(#SVGID_18_);" d="M15.92,7.545c0.113,0.338,0.377,0.697,0.791,1.073
				c-1.582,3.466-1.826,6.78-0.734,9.944c1.243,3.691,4.086,6.065,8.531,7.12c3.729,0.904,7.024,0.941,9.888,0.113
				c2.787-0.829,4.877-2.411,6.271-4.746c0.227,1.356,0.227,2.806,0,4.351c-0.376,2.41-1.826,4.52-4.35,6.327
				c-2.901,2.071-6.103,2.75-9.605,2.034c-3.353-0.678-6.008-2.053-7.967-4.124c-0.79-0.866-2.109-2.863-3.955-5.99
				c-1.242-2.109-2.184-2.768-2.825-1.978c-0.15-1.28-0.225-2.221-0.225-2.825C11.74,14.589,13.134,10.822,15.92,7.545z"/>
			
				<use xlink:href="#FlashAICB_x5F_1_x2F_Layer_1_x2F__x3C_Path_x3E__x5F_26"  width="7.58" height="12.455" y="-12.45" transform="matrix(1.13 0 0 -1.13 33.9004 6.9502)" style="overflow:visible;opacity:0.6406;enable-background:new    ;"/>
			
				<radialGradient id="SVGID_19_" cx="135.21" cy="-219.1074" r="24.927" gradientTransform="matrix(0.4992 1.0137 1.0137 -0.4992 180.9341 -234.2144)" gradientUnits="userSpaceOnUse">
				<stop  offset="0.098" style="stop-color:#000000;stop-opacity:0"/>
				<stop  offset="0.9059" style="stop-color:#000000;stop-opacity:0.749"/>
				<stop  offset="1" style="stop-color:#000000"/>
			</radialGradient>
			<path style="fill-rule:evenodd;clip-rule:evenodd;fill:url(#SVGID_19_);" d="M34.509,12.517l0.282-5.198L33.888,6.98
				c3.39-0.075,6.063,0.64,8.022,2.147c1.018,4.897,0.604,8.871-1.243,11.921c-0.376-2.41-1.375-4.501-2.994-6.271
				c-0.829-0.829-1.921-1.582-3.276-2.26H34.509z"/>
			
				<use xlink:href="#FlashAICB_x5F_1_x2F_Layer_1_x2F__x3C_Path_x3E__x5F_24"  width="30.05" height="23.75" y="-23.75" transform="matrix(1.13 0 0 -1.13 11.9502 9.1001)" style="overflow:visible;opacity:0.6211;enable-background:new    ;"/>
			
				<use xlink:href="#FlashAICB_x5F_1_x2F_Layer_1_x2F__x3C_Path_x3E__x5F_23"  width="30.05" height="23.75" y="-23.75" transform="matrix(1.13 0 0 -1.13 11.9502 9.1001)" style="overflow:visible;opacity:0.6406;enable-background:new    ;"/>
			
				<radialGradient id="SVGID_20_" cx="135.21" cy="-219.1074" r="24.927" gradientTransform="matrix(0.4992 1.0137 1.0137 -0.4992 180.9341 -234.2144)" gradientUnits="userSpaceOnUse">
				<stop  offset="0.098" style="stop-color:#000000;stop-opacity:0"/>
				<stop  offset="0.9059" style="stop-color:#000000;stop-opacity:0.749"/>
				<stop  offset="1" style="stop-color:#000000"/>
			</radialGradient>
			<path style="fill-rule:evenodd;clip-rule:evenodd;fill:url(#SVGID_20_);" d="M28.69,35.964c-1.62,0-3.296-0.244-5.029-0.734
				c-3.051-0.979-5.612-2.692-7.684-5.142c-2.147-2.447-3.485-5.253-4.012-8.418c0.641-0.79,1.583-0.131,2.825,1.978
				c1.846,3.126,3.165,5.124,3.955,5.99c1.959,2.071,4.615,3.446,7.967,4.124c3.502,0.716,6.704,0.037,9.605-2.034
				c2.523-1.807,3.974-3.917,4.35-6.327c0.227-1.545,0.227-2.995,0-4.351c1.847-3.051,2.261-7.024,1.243-11.921
				c1.243,0.942,2.241,2.223,2.995,3.842c0.677,1.959,1.017,3.88,1.017,5.763c0,4.746-1.676,8.814-5.028,12.204
				C37.504,34.288,33.435,35.964,28.69,35.964z"/>
			<path style="fill-rule:evenodd;clip-rule:evenodd;fill:#FFFEFF;" d="M17.672,10.483l0.169-0.339
				c0.189-0.264,0.415-0.546,0.679-0.848l0.79,0.113c0.754,0.076,2.505-0.226,5.255-0.904c3.201-0.754,5.707-1.225,7.515-1.413
				c-0.527,0.791-0.924,1.695-1.188,2.712c-0.112,0.527-0.188,0.96-0.226,1.299l1.131,0.339c0.94,0.302,1.807,0.659,2.599,1.074
				c-3.768-0.565-6.423-0.791-7.966-0.678c-1.244,0.113-2.807,0.452-4.69,1.017l-2.43,0.791L17.672,10.483z"/>
			
				<radialGradient id="SVGID_21_" cx="135.21" cy="-219.1074" r="24.927" gradientTransform="matrix(0.4992 1.0137 1.0137 -0.4992 180.9341 -234.2144)" gradientUnits="userSpaceOnUse">
				<stop  offset="0.098" style="stop-color:#000000;stop-opacity:0"/>
				<stop  offset="0.9059" style="stop-color:#000000;stop-opacity:0.749"/>
				<stop  offset="1" style="stop-color:#000000"/>
			</radialGradient>
			<path style="fill-rule:evenodd;clip-rule:evenodd;fill:url(#SVGID_21_);" d="M17.672,10.483l0.169-0.339
				c0.189-0.264,0.415-0.546,0.679-0.848l0.79,0.113c0.754,0.076,2.505-0.226,5.255-0.904c3.201-0.754,5.707-1.225,7.515-1.413
				c-0.527,0.791-0.924,1.695-1.188,2.712c-0.112,0.527-0.188,0.96-0.226,1.299l1.131,0.339c0.94,0.302,1.807,0.659,2.599,1.074
				c-3.768-0.565-6.423-0.791-7.966-0.678c-1.244,0.113-2.807,0.452-4.69,1.017l-2.43,0.791L17.672,10.483z"/>
			<path style="fill-rule:evenodd;clip-rule:evenodd;fill:#FFFEFF;" d="M30.667,11.104c0.038-0.339,0.113-0.772,0.226-1.299
				c0.264-1.017,0.66-1.921,1.188-2.712c0.828-0.076,1.431-0.113,1.808-0.113l0.903,0.339l-0.282,5.198h-0.112
				c-0.792-0.415-1.658-0.772-2.599-1.074L30.667,11.104z"/>
			
				<radialGradient id="SVGID_22_" cx="135.3086" cy="-219.0469" r="24.9325" gradientTransform="matrix(0.4997 1.0135 1.0135 -0.4997 180.7125 -234.3543)" gradientUnits="userSpaceOnUse">
				<stop  offset="0.098" style="stop-color:#000000;stop-opacity:0"/>
				<stop  offset="0.9059" style="stop-color:#000000;stop-opacity:0.749"/>
				<stop  offset="1" style="stop-color:#000000"/>
			</radialGradient>
			<path style="fill-rule:evenodd;clip-rule:evenodd;fill:url(#SVGID_22_);" d="M30.667,11.104c0.038-0.339,0.113-0.772,0.226-1.299
				c0.264-1.017,0.66-1.921,1.188-2.712c0.828-0.076,1.431-0.113,1.808-0.113l0.903,0.339l-0.282,5.198h-0.112
				c-0.792-0.415-1.658-0.772-2.599-1.074L30.667,11.104z"/>
			
				<use xlink:href="#FlashAICB_x5F_1_x2F_Layer_1_x2F__x3C_Path_x3E__x5F_17_x5F_0"  width="18.8" height="6.85" y="-6.85" transform="matrix(1.13 0 0 -1.13 16.7002 1.5498)" style="overflow:visible;opacity:0.8203;enable-background:new    ;"/>
			
				<radialGradient id="SVGID_23_" cx="135.21" cy="-219.1074" r="24.927" gradientTransform="matrix(0.4992 1.0137 1.0137 -0.4992 180.9341 -234.2144)" gradientUnits="userSpaceOnUse">
				<stop  offset="0.098" style="stop-color:#000000;stop-opacity:0"/>
				<stop  offset="0.9059" style="stop-color:#000000;stop-opacity:0.749"/>
				<stop  offset="1" style="stop-color:#000000"/>
			</radialGradient>
			<path style="fill-rule:evenodd;clip-rule:evenodd;fill:url(#SVGID_23_);" d="M37.955,4.211c-0.979,0.038-2.015,0.245-3.107,0.622
				c-0.941,0.376-1.732,0.941-2.373,1.695c-2.561-0.565-4.896-0.659-7.006-0.283c-3.164,0.565-5.48,1.582-6.949,3.051
				c-0.716-0.15-1.319-0.376-1.809-0.678l0.679-1.299c1.167-1.92,2.975-3.446,5.424-4.576c2.071-0.791,4.124-1.187,6.159-1.187
				c1.694,0,3.371,0.264,5.027,0.791C35.394,2.799,36.713,3.421,37.955,4.211z"/>
			
				<use xlink:href="#FlashAICB_x5F_1_x2F_Layer_1_x2F__x3C_Path_x3E__x5F_15_x5F_0"  width="6.1" height="5.2" y="-5.2" transform="matrix(1.13 0 0 -1.13 15.8999 2.75)" style="overflow:visible;opacity:0.6211;enable-background:new    ;"/>
			
				<use xlink:href="#FlashAICB_x5F_1_x2F_Layer_1_x2F__x3C_Path_x3E__x5F_14"  width="6.1" height="5.2" y="-5.2" transform="matrix(1.13 0 0 -1.13 15.8999 2.75)" style="overflow:visible;opacity:0.8203;enable-background:new    ;"/>
			
				<radialGradient id="SVGID_24_" cx="135.3086" cy="-219.0469" r="24.9325" gradientTransform="matrix(0.4997 1.0135 1.0135 -0.4997 180.7125 -234.3543)" gradientUnits="userSpaceOnUse">
				<stop  offset="0.098" style="stop-color:#000000;stop-opacity:0"/>
				<stop  offset="0.9059" style="stop-color:#000000;stop-opacity:0.749"/>
				<stop  offset="1" style="stop-color:#000000"/>
			</radialGradient>
			<path style="fill-rule:evenodd;clip-rule:evenodd;fill:url(#SVGID_24_);" d="M16.711,8.618c-0.414-0.376-0.678-0.734-0.791-1.073
				c1.996-2.223,4.294-3.823,6.894-4.803c-2.449,1.13-4.256,2.656-5.424,4.576L16.711,8.618z"/>
			
				<use xlink:href="#FlashAICB_x5F_1_x2F_Layer_1_x2F__x3C_Path_x3E__x5F_12_x5F_0"  width="8.35" height="4.35" y="-4.35" transform="matrix(1.13 0 0 -1.13 32.4502 4.2002)" style="overflow:visible;opacity:0.6406;enable-background:new    ;"/>
			
				<use xlink:href="#FlashAICB_x5F_1_x2F_Layer_1_x2F__x3C_Path_x3E__x5F_11"  width="8.35" height="4.35" y="-4.35" transform="matrix(1.13 0 0 -1.13 32.4502 4.2002)" style="overflow:visible;opacity:0.8203;enable-background:new    ;"/>
			
				<radialGradient id="SVGID_25_" cx="135.21" cy="-219.1074" r="24.927" gradientTransform="matrix(0.4992 1.0137 1.0137 -0.4992 180.9341 -234.2144)" gradientUnits="userSpaceOnUse">
				<stop  offset="0.098" style="stop-color:#000000;stop-opacity:0"/>
				<stop  offset="0.9059" style="stop-color:#000000;stop-opacity:0.749"/>
				<stop  offset="1" style="stop-color:#000000"/>
			</radialGradient>
			<path style="fill-rule:evenodd;clip-rule:evenodd;fill:url(#SVGID_25_);" d="M41.459,7.206l0.451,1.921
				c-1.959-1.507-4.633-2.222-8.022-2.147l-1.413-0.452c0.641-0.754,1.432-1.319,2.373-1.695c1.093-0.377,2.129-0.584,3.107-0.622
				C39.273,5.078,40.441,6.076,41.459,7.206z"/>
			
				<use xlink:href="#FlashAICB_x5F_1_x2F_Layer_1_x2F__x3C_Path_x3E__x5F_9"  width="3.05" height="5.1" y="-5.1" transform="matrix(1.13 0 0 -1.13 41.4502 7.2002)" style="overflow:visible;opacity:0.6211;enable-background:new    ;"/>
			
				<use xlink:href="#FlashAICB_x5F_1_x2F_Layer_1_x2F__x3C_Path_x3E__x5F_8"  width="3.05" height="5.1" y="-5.1" transform="matrix(1.13 0 0 -1.13 41.4502 7.2002)" style="overflow:visible;opacity:0.6406;enable-background:new    ;"/>
			
				<use xlink:href="#FlashAICB_x5F_1_x2F_Layer_1_x2F__x3C_Path_x3E__x5F_7"  width="3.05" height="5.1" y="-5.1" transform="matrix(1.13 0 0 -1.13 41.4502 7.2002)" style="overflow:visible;opacity:0.8203;enable-background:new    ;"/>
			
				<radialGradient id="SVGID_26_" cx="135.21" cy="-219.1074" r="24.927" gradientTransform="matrix(0.4992 1.0137 1.0137 -0.4992 180.9341 -234.2144)" gradientUnits="userSpaceOnUse">
				<stop  offset="0.098" style="stop-color:#000000;stop-opacity:0"/>
				<stop  offset="0.9059" style="stop-color:#000000;stop-opacity:0.749"/>
				<stop  offset="1" style="stop-color:#000000"/>
			</radialGradient>
			<path style="fill-rule:evenodd;clip-rule:evenodd;fill:url(#SVGID_26_);" d="M41.91,9.127l-0.451-1.921
				c1.543,1.657,2.692,3.579,3.446,5.763C44.151,11.35,43.153,10.069,41.91,9.127z"/>
			<path style="fill-rule:evenodd;clip-rule:evenodd;fill:#FFFEFF;" d="M32.08,7.093c-1.809,0.188-4.314,0.659-7.515,1.413
				c-2.75,0.678-4.501,0.979-5.255,0.904l-0.79-0.113c1.469-1.469,3.785-2.485,6.949-3.051c2.11-0.376,4.445-0.282,7.006,0.283
				L32.08,7.093z"/>
			
				<use xlink:href="#FlashAICB_x5F_1_x2F_Layer_1_x2F__x3C_Path_x3E__x5F_4_x5F_0"  width="12.35" height="3.01" y="-3.01" transform="matrix(1.13 0 0 -1.13 18.5 6)" style="overflow:visible;opacity:0.8203;enable-background:new    ;"/>
			
				<radialGradient id="SVGID_27_" cx="135.21" cy="-219.1074" r="24.927" gradientTransform="matrix(0.4992 1.0137 1.0137 -0.4992 180.9341 -234.2144)" gradientUnits="userSpaceOnUse">
				<stop  offset="0.098" style="stop-color:#000000;stop-opacity:0"/>
				<stop  offset="0.9059" style="stop-color:#000000;stop-opacity:0.749"/>
				<stop  offset="1" style="stop-color:#000000"/>
			</radialGradient>
			<path style="fill-rule:evenodd;clip-rule:evenodd;fill:url(#SVGID_27_);" d="M32.08,7.093c-1.809,0.188-4.314,0.659-7.515,1.413
				c-2.75,0.678-4.501,0.979-5.255,0.904l-0.79-0.113c1.469-1.469,3.785-2.485,6.949-3.051c2.11-0.376,4.445-0.282,7.006,0.283
				L32.08,7.093z"/>
			<path style="fill-rule:evenodd;clip-rule:evenodd;fill:#FFFEFF;" d="M33.888,6.98c-0.377,0-0.979,0.038-1.808,0.113l0.395-0.565
				L33.888,6.98z"/>
			
				<use xlink:href="#FlashAICB_x5F_1_x2F_Layer_1_x2F__x3C_Path_x3E__x5F_1"  width="1.6" height="0.5" y="-0.5" transform="matrix(1.13 0 0 -1.13 32.0498 6.5)" style="overflow:visible;opacity:0.8203;enable-background:new    ;"/>
			
				<radialGradient id="SVGID_28_" cx="135.3086" cy="-219.0469" r="24.9325" gradientTransform="matrix(0.4997 1.0135 1.0135 -0.4997 180.7125 -234.3543)" gradientUnits="userSpaceOnUse">
				<stop  offset="0.098" style="stop-color:#000000;stop-opacity:0"/>
				<stop  offset="0.9059" style="stop-color:#000000;stop-opacity:0.749"/>
				<stop  offset="1" style="stop-color:#000000"/>
			</radialGradient>
			<path style="fill-rule:evenodd;clip-rule:evenodd;fill:url(#SVGID_28_);" d="M33.888,6.98c-0.377,0-0.979,0.038-1.808,0.113
				l0.395-0.565L33.888,6.98z"/>
		</g>
		<g>
			
				<radialGradient id="SVGID_29_" cx="-32.687" cy="-253.7842" r="17.4713" gradientTransform="matrix(-0.2393 1.1044 1.1044 0.2393 297.2369 106.0136)" gradientUnits="userSpaceOnUse">
				<stop  offset="0" style="stop-color:#EEFFFD"/>
				<stop  offset="0.7922" style="stop-color:#8D9CA0"/>
			</radialGradient>
			<path style="fill-rule:evenodd;clip-rule:evenodd;fill:url(#SVGID_29_);" d="M20.61,15.173c0.227,0.226,0.358,0.489,0.396,0.791
				c0.076,0.414-0.057,0.622-0.396,0.622c-0.075,0.565,0.075,1.413,0.453,2.542c0.038,0.49-0.039,0.81-0.226,0.961
				c-0.151,0.112-0.471,0.168-0.961,0.168c0.076,0.641,0.058,1.037-0.056,1.188c-0.301,0.075-0.49,0.15-0.565,0.225
				c-0.075,0.039-0.226,0.208-0.451,0.509c-0.227,0.377-0.34,0.791-0.34,1.244v0.734c0.039,0.188,0.151,0.471,0.34,0.848
				c0.037,0.377-0.17,0.772-0.623,1.186c-0.565,0.527-0.885,0.886-0.96,1.074c-0.113,0.226-0.113,0.434,0,0.621
				c0.075,0.151,0.226,0.359,0.452,0.623c0.188,0.376,0.283,0.584,0.283,0.621c0.112,0.113,0.32,0.208,0.621,0.283
				c0.452,0.075,0.696,0.208,0.734,0.395c0.151,0,0.34-0.075,0.565-0.226c0.189-0.15,0.377-0.207,0.565-0.169
				c0.49,0.112,0.698,0.49,0.623,1.13c-0.604,0.226-0.924,0.357-0.961,0.395c-0.376,0.302-0.659,0.472-0.848,0.509
				c-0.038,0-0.47-0.057-1.299-0.17h-1.074c-1.695-1.582-3.032-3.446-4.011-5.593c-0.98-2.185-1.47-4.501-1.47-6.95
				c0-2.448,0.546-4.859,1.639-7.232c0.452,0.113,0.679,0.546,0.679,1.299c0.264,0.038,0.659,0.038,1.186,0
				c0.451,0,0.772,0.095,0.96,0.283c0.189,0.188,0.283,0.433,0.283,0.734l0.226,0.452c0.113,0.226,0.283,0.546,0.509,0.96
				c0.038,0.113,0.056,0.264,0.056,0.452c0.227,0.227,0.395,0.283,0.509,0.17c0.038-0.038,0.131-0.15,0.283-0.339
				c0.188-0.15,0.49-0.245,0.904-0.282c0.075-0.038,0.151-0.113,0.226-0.226c0.038-0.151,0.112-0.245,0.226-0.283h0.734
				C20.083,14.796,20.346,14.946,20.61,15.173z"/>
			
				<radialGradient id="SVGID_30_" cx="165.6768" cy="-196.1021" r="20.0426" gradientTransform="matrix(0.6455 0.9274 0.9274 -0.6455 100.4471 -268.6361)" gradientUnits="userSpaceOnUse">
				<stop  offset="0" style="stop-color:#EEFFFD"/>
				<stop  offset="0.7922" style="stop-color:#8D9CA0"/>
			</radialGradient>
			<path style="fill-rule:evenodd;clip-rule:evenodd;fill:url(#SVGID_30_);" d="M33.831,21.444c-0.188-0.301-0.245-0.527-0.17-0.679
				c0.114-0.301,0.472-0.395,1.074-0.282c0.527,0.113,0.922,0.264,1.186,0.452c0.114,0.075,0.509,0.395,1.187,0.96
				c0.527,0.415,0.98,0.64,1.356,0.679c0.075,0,0.207-0.019,0.396-0.057c0.188-0.038,0.32-0.038,0.396,0
				c0.264,0.114,0.452,0.604,0.565,1.47l0.791-0.452c0.301-0.075,0.772-0.075,1.412,0c0.302-0.038,0.49-0.075,0.565-0.113
				c0.188-0.151,0.319-0.245,0.395-0.283c0.114-0.039,0.302-0.076,0.565-0.113c0.226,0,0.377-0.038,0.452-0.113
				c0.188-0.075,0.32-0.264,0.396-0.565c0.489-0.114,0.828,0,1.018,0.339c-0.603,2.561-1.733,4.859-3.391,6.893
				c-1.62,2.035-3.616,3.616-5.988,4.746c-0.49-0.264-0.848-0.451-1.074-0.564c-0.452-0.188-0.848-0.208-1.186-0.057
				c-0.114,0.038-0.302,0.188-0.565,0.453c-0.188,0.188-0.378,0.282-0.565,0.282c-0.15-0.039-0.282-0.114-0.396-0.227
				c-0.075-0.113-0.15-0.188-0.227-0.226c-0.15-0.038-0.866-0.113-2.146-0.227c-0.038-0.49-0.057-0.791-0.057-0.904
				c0.038-0.338,0.207-0.583,0.507-0.734c0.302-0.15,0.547-0.132,0.735,0.058c0.339,0.225,0.546,0.357,0.621,0.395
				c0.527,0.112,0.829-0.17,0.904-0.848c0.076-0.716,0.415-1.055,1.017-1.018c0.151-0.301,0.208-0.546,0.171-0.733
				c-0.076-0.188-0.151-0.283-0.227-0.283c-0.151,0-0.264-0.037-0.339-0.113c-0.302-0.339-0.565-0.848-0.791-1.525
				c-0.227-0.677-0.339-1.3-0.339-1.865c-0.829-0.112-1.148-0.47-0.961-1.073c0.188-0.527,0.603-0.886,1.243-1.074
				c0.264-0.037,0.546-0.056,0.848-0.056c0.188-0.039,0.339-0.226,0.451-0.565c-0.037-0.34-0.037-0.584,0-0.735
				c0.038-0.113,0.114-0.189,0.227-0.226c0.112-0.075,0.17-0.15,0.17-0.227C34.095,22.047,34.019,21.783,33.831,21.444z"/>
			
				<radialGradient id="SVGID_31_" cx="177.9893" cy="-181.3306" r="23.2557" gradientTransform="matrix(0.7155 0.8746 0.8746 -0.7155 53.8901 -274.9291)" gradientUnits="userSpaceOnUse">
				<stop  offset="0" style="stop-color:#EEFFFD"/>
				<stop  offset="0.7922" style="stop-color:#A7BABE"/>
			</radialGradient>
			<path style="fill-rule:evenodd;clip-rule:evenodd;fill:url(#SVGID_31_);" d="M34.227,12.122
				c-0.075-0.829,0.264-1.187,1.018-1.073c1.016,0.226,1.639,0.263,1.863,0.112c0.227-0.112,0.34-0.301,0.34-0.565
				c-0.038-0.376-0.038-0.621,0-0.734c0.112-0.376,0.302-0.583,0.565-0.621c0.188-0.038,0.546-0.038,1.072,0l-0.112-0.113
				C38.935,8.6,39.18,8.43,39.707,8.618c0.526,0.151,0.829,0.433,0.904,0.848c0.037,0.113,0.019,0.321-0.057,0.622
				c-0.113,0.264-0.132,0.47-0.058,0.621c0.076,0.113,0.227,0.208,0.453,0.282c0.226,0.113,0.357,0.208,0.395,0.283
				c0.114,0.226,0.076,0.584-0.112,1.074c0,0.113,0.094,0.301,0.282,0.565c0.113,0.151,0.057,0.339-0.17,0.565
				c-0.112,0.113-0.319,0.151-0.621,0.113c-0.339,0-0.546,0.038-0.621,0.112c-0.075,0.076-0.112,0.283-0.112,0.622
				c0,0.415,0,0.64,0,0.678c-0.565-0.151-0.999-0.227-1.301-0.227c-0.264,0.038-0.452,0.151-0.564,0.339
				c-0.188,0.264-0.339,0.433-0.452,0.509c-0.226,0.113-0.452,0.056-0.678-0.169c-0.339-0.301-0.641-0.452-0.904-0.452
				c-0.452,0.188-0.791,0.263-1.017,0.226c-0.302-0.038-0.471-0.132-0.509-0.283c-0.038-0.226-0.113-0.414-0.226-0.565
				c-0.188-0.376-0.358-0.64-0.509-0.791c-0.301-0.264-0.527-0.471-0.679-0.622c-0.225-0.264-0.301-0.546-0.225-0.847H34.227z"/>
			
				<radialGradient id="SVGID_32_" cx="174.6426" cy="-187.209" r="20.9201" gradientTransform="matrix(0.6921 0.8933 0.8933 -0.6921 71.1558 -274.5706)" gradientUnits="userSpaceOnUse">
				<stop  offset="0" style="stop-color:#EEFFFD"/>
				<stop  offset="0.7922" style="stop-color:#8D9CA0"/>
			</radialGradient>
			<path style="fill-rule:evenodd;clip-rule:evenodd;fill:url(#SVGID_32_);" d="M31.289,17.489
				c-0.641-0.038-0.999-0.452-1.074-1.243c-0.075-0.188-0.112-0.301-0.112-0.338c-0.039-0.038,0.037-0.132,0.225-0.283
				c0.114-0.076,0.472-0.15,1.074-0.226l0.396-0.057c0.564,0.227,0.79,0.641,0.677,1.243C32.324,17.188,31.929,17.489,31.289,17.489
				z"/>
			
				<radialGradient id="SVGID_33_" cx="195.1387" cy="-163.3047" r="24.4925" gradientTransform="matrix(0.797 0.801 0.801 -0.797 -1.6724 -275.7589)" gradientUnits="userSpaceOnUse">
				<stop  offset="0" style="stop-color:#EEFFFD"/>
				<stop  offset="0.7922" style="stop-color:#8D9CA0"/>
			</radialGradient>
			<path style="fill-rule:evenodd;clip-rule:evenodd;fill:url(#SVGID_33_);" d="M33.943,16.868c0.302-0.038,0.49,0.075,0.565,0.339
				s-0.019,0.452-0.282,0.565c-0.302,0.15-0.527,0.076-0.678-0.226c-0.151-0.339-0.114-0.603,0.112-0.792L33.943,16.868z"/>
			
				<radialGradient id="SVGID_34_" cx="178.292" cy="-189.0869" r="25.8132" gradientTransform="matrix(0.7157 0.8744 0.8744 -0.7157 67.3823 -286.1207)" gradientUnits="userSpaceOnUse">
				<stop  offset="0" style="stop-color:#EEFFFD"/>
				<stop  offset="0.7922" style="stop-color:#A7BABE"/>
			</radialGradient>
			<path style="fill-rule:evenodd;clip-rule:evenodd;fill:url(#SVGID_34_);" d="M31.232,2.968c-0.791,0.113-1.375,0.17-1.752,0.17
				c-0.603,0-1.111-0.245-1.525-0.735C27.842,1.952,27.729,1.65,27.616,1.5h1.074c2.673,0,5.123,0.546,7.345,1.639l-0.623,0.339
				c-0.488,0.226-1.224,0.283-2.202,0.169C32.419,3.232,31.759,3.006,31.232,2.968z"/>
			
				<radialGradient id="SVGID_35_" cx="191.9883" cy="-190.7183" r="11.0852" gradientTransform="matrix(0.7161 0.8741 0.8741 -0.7161 70.1178 -288.5995)" gradientUnits="userSpaceOnUse">
				<stop  offset="0" style="stop-color:#EEFFFD"/>
				<stop  offset="0.7922" style="stop-color:#8D9CA0"/>
			</radialGradient>
			<path style="fill-rule:evenodd;clip-rule:evenodd;fill:url(#SVGID_35_);" d="M45.922,18.732c0,0.64-0.076,1.564-0.226,2.769
				c-0.264,0.038-0.527-0.132-0.791-0.508c-0.151-0.528-0.264-0.904-0.339-1.13c-0.038-0.112-0.208-0.376-0.509-0.791
				c-0.188-0.264-0.264-0.527-0.227-0.791c0.038-0.377,0.188-0.584,0.452-0.622c0.188,0,0.509,0,0.96,0
				c-0.037-1.054-0.019-1.827,0.057-2.316l0.282,0.057C45.809,16.491,45.922,17.602,45.922,18.732z"/>
		</g>
		<path style="fill-rule:evenodd;clip-rule:evenodd;fill:#1A1F1F;" d="M22.7,33.592l0.114,0.057
			c0.075,0.037,0.112,0.094,0.112,0.169c0,0.34,0.075,0.546,0.226,0.622c0.113,0,0.17-0.151,0.17-0.452h0.169
			c0.114,0,0.17,0.037,0.17,0.112c0.038,0.113,0.057,0.321,0.057,0.622l0.226,0.565l-0.735-0.227l-0.678-0.339
			c-0.114,0.038-0.188,0.038-0.226,0l-0.453-0.848l0.17-0.113c0.113-0.038,0.227,0.057,0.339,0.282l0.226,0.509l-0.056-0.678
			L22.7,33.592z"/>
		
			<radialGradient id="SVGID_36_" cx="-106.4453" cy="231.8916" r="4.4112" gradientTransform="matrix(-0.2658 -1.0983 -0.8966 0.2017 200.2825 -119.7575)" gradientUnits="userSpaceOnUse">
			<stop  offset="0" style="stop-color:#C9D7D5"/>
			<stop  offset="0.7922" style="stop-color:#303738"/>
		</radialGradient>
		<path style="fill-rule:evenodd;clip-rule:evenodd;fill:url(#SVGID_36_);" d="M20.44,39.016l0.227,0.791
			c0.113,0.112,0.452,0.206,1.017,0.282c0.264,0.15,0.584,0.396,0.96,0.734c0.452,0.49,0.735,0.942,0.847,1.356
			c0.075,0.338,0.283,0.828,0.622,1.469c0.264,0.603,0.452,1.167,0.565,1.694c0.188,0.942,0.264,1.828,0.226,2.656
			c-0.715,0.451-1.695,0.621-2.938,0.508c-0.791-0.075-1.394-0.188-1.809-0.339l-0.395-0.169c0.64-1.545,1.017-2.618,1.13-3.221
			c0.075-0.451-0.094-1.45-0.509-2.994c-0.188-0.641-0.433-1.169-0.734-1.582l-0.452-0.509L20.44,39.016z"/>
		<g>
			
				<use xlink:href="#FlashAICB_x5F_1_x2F_Layer_1_x2F__x3C_Path_x3E__x5F_11_x5F_0"  width="4.45" height="2.629" y="-2.629" transform="matrix(1.13 0 0 -1.13 19.8501 45.25)" style="overflow:visible;opacity:0.3984;enable-background:new    ;"/>
			<path style="fill-rule:evenodd;clip-rule:evenodd;fill:#292C2C;" d="M23.491,47.999c0.264-0.076,0.565-0.245,0.904-0.509
				c0.226-0.151,0.396-0.207,0.509-0.17v0.339c-0.376,0.188-0.659,0.302-0.848,0.34l-0.791,0.339l-0.79,0.169h-0.509
				c-0.791-0.075-1.394-0.188-1.809-0.339l-0.395-0.169l0.112-0.282c0.076,0.15,0.359,0.282,0.848,0.395
				C21.778,48.338,22.7,48.301,23.491,47.999z"/>
			
				<use xlink:href="#FlashAICB_x5F_1_x2F_Layer_1_x2F__x3C_Path_x3E__x5F_9_x5F_0"  width="1.65" height="2.1" y="-2.1" transform="matrix(1.13 0 0 -1.13 20.7002 44.5498)" style="overflow:visible;opacity:0.3789;enable-background:new    ;"/>
			
				<use xlink:href="#FlashAICB_x5F_1_x2F_Layer_1_x2F__x3C_Path_x3E__x5F_8_x5F_0"  width="-32766" height="-32766" x="16383" y="16383" transform="matrix(1.13 0 0 -1.13 20.25 41.2002)" style="overflow:visible;opacity:0.3789;enable-background:new    ;"/>
			<path style="fill-rule:evenodd;clip-rule:evenodd;fill:#FFFEFF;" d="M21.063,43.931c0-0.49-0.095-1.111-0.283-1.864l0.396,1.355
				l0.17,0.961l0.733,0.339l-1.073-0.17l-0.057-0.112v-0.057C21.024,44.308,21.063,44.157,21.063,43.931z"/>
			<path style="fill-rule:evenodd;clip-rule:evenodd;fill:#FFFEFF;" d="M20.949,43.535c0.038,0.302,0.019,0.565-0.056,0.792
				c0-0.151-0.17-0.999-0.509-2.543l-0.112-0.282C20.647,42.254,20.874,42.933,20.949,43.535z"/>
			<path style="fill-rule:evenodd;clip-rule:evenodd;fill:#222727;" d="M22.192,40.484c0.15,0.037,0.283,0.151,0.395,0.339
				c0.339,0.49,0.32,0.791-0.056,0.903c-0.264,0.076-0.583,0.019-0.961-0.169c-0.414-0.074-0.584-0.282-0.508-0.621l1.073-0.509
				L22.192,40.484z"/>
			<path style="fill-rule:evenodd;clip-rule:evenodd;fill:#1C1F1F;" d="M19.198,39.693l0.96-0.565l0.282,0.057l0.227,0.622
				l0.17,0.112c0,0.151-0.057,0.245-0.17,0.283c-0.075,0.037-0.227,0.056-0.452,0.056c-0.264,0-0.452-0.019-0.565-0.056
				L19.198,39.693z"/>
			<path style="fill-rule:evenodd;clip-rule:evenodd;fill:#1C1F1F;" d="M23.265,48.338l0.791-0.339
				c0.189-0.038,0.471-0.151,0.848-0.34v0.34c-0.678,0.414-1.582,0.584-2.711,0.508h0.283L23.265,48.338z"/>
		</g>
		
			<radialGradient id="SVGID_37_" cx="199.7734" cy="-143.3594" r="4.3576" gradientTransform="matrix(0.7974 0.8006 0.8363 -0.765 -23.7701 -234.5547)" gradientUnits="userSpaceOnUse">
			<stop  offset="0" style="stop-color:#C9D7D5"/>
			<stop  offset="0.7922" style="stop-color:#303738"/>
		</radialGradient>
		<path style="fill-rule:evenodd;clip-rule:evenodd;fill:url(#SVGID_37_);" d="M14.508,33.479c0.753-0.716,1.733-1.056,2.938-1.017
			c1.13,0,1.883,0.282,2.26,0.848c1.242,1.694,1.77,3.351,1.581,4.971c-0.038,0.641-0.47,1.187-1.299,1.639
			c-0.866,0.49-1.827,0.622-2.881,0.396c-1.092-0.226-2.016-0.678-2.769-1.355c-0.829-0.679-1.319-1.507-1.469-2.486
			C12.719,35.569,13.265,34.57,14.508,33.479z"/>
		<g>
			
				<use xlink:href="#FlashAICB_x5F_1_x2F_Layer_1_x2F__x3C_Path_x3E__x5F_9_x5F_1"  width="0.5" height="0.45" y="-0.45" transform="matrix(1.13 0 0 -1.13 13.7002 34.1504)" style="overflow:visible;opacity:0.3516;enable-background:new    ;"/>
			
				<use xlink:href="#FlashAICB_x5F_1_x2F_Layer_1_x2F__x3C_Path_x3E__x5F_8_x5F_1"  width="3.55" height="3.417" y="-3.45" transform="matrix(1.13 0 0 -1.13 17.25 33.5996)" style="overflow:visible;opacity:0.3516;enable-background:new    ;"/>
			
				<use xlink:href="#FlashAICB_x5F_1_x2F_Layer_1_x2F__x3C_Path_x3E__x5F_7_x5F_0"  width="7.477" height="5.053" x="0.023" y="-5.053" transform="matrix(1.13 0 0 -1.13 12.7998 34.4502)" style="overflow:visible;opacity:0.4688;enable-background:new    ;"/>
			
				<use xlink:href="#FlashAICB_x5F_1_x2F_Layer_1_x2F__x3C_Path_x3E__x5F_6_x5F_0"  width="0.25" height="1" y="-1" transform="matrix(1.13 0 0 -1.13 21.0498 37.1504)" style="overflow:visible;opacity:0.3516;enable-background:new    ;"/>
			
				<use xlink:href="#FlashAICB_x5F_1_x2F_Layer_1_x2F__x3C_Path_x3E__x5F_5_x5F_0"  width="0.25" height="1" y="-1" transform="matrix(1.13 0 0 -1.13 21.0498 37.1504)" style="overflow:visible;opacity:0.4688;enable-background:new    ;"/>
			<path style="fill-rule:evenodd;clip-rule:evenodd;fill:#ACB3B7;" d="M16.881,40.032c1.62,0.301,2.938,0.019,3.955-0.848
				l0.169-0.112c-0.339,0.489-0.848,0.847-1.525,1.073c-0.753,0.264-1.543,0.32-2.373,0.169c-1.017-0.226-1.921-0.641-2.712-1.242
				C15.224,39.562,16.053,39.882,16.881,40.032z"/>
			<path style="fill-rule:evenodd;clip-rule:evenodd;fill:#B7BFC0;" d="M17.446,32.462c1.13,0,1.883,0.282,2.26,0.848
				c0.451,0.603,0.847,1.336,1.186,2.202c-0.49-0.866-0.866-1.394-1.13-1.581c-0.414-0.302-1.243-0.378-2.486-0.227l-0.339-0.056
				c-0.452-0.075-0.922-0.038-1.413,0.112c-0.565,0.227-0.979,0.509-1.242,0.848c-0.227-0.075-0.396-0.227-0.509-0.451
				c0.188-0.227,0.433-0.453,0.734-0.679C15.261,32.763,16.241,32.423,17.446,32.462z"/>
			<path style="fill-rule:evenodd;clip-rule:evenodd;fill:#FFFEFF;" d="M14.113,34.947l0.112-0.283
				c0.556,0.132,1.413,0.188,2.571,0.17c-0.398,0.022-0.691,0.06-0.876,0.113l-1.355,0.622L14.113,34.947z"/>
			<path style="fill-rule:evenodd;clip-rule:evenodd;fill:#FFFEFF;" d="M14.225,34.664l0.058-0.056l1.864-0.227
				c0.114-0.037,0.245-0.15,0.396-0.339c0.15-0.15,0.283-0.245,0.395-0.282l0.339-0.057h0.17l0.113,1.13h-0.227
				C15.901,34.872,14.866,34.815,14.225,34.664z"/>
			<path style="fill-rule:evenodd;clip-rule:evenodd;fill:#FFFEFF;" d="M16.146,34.382l-1.864,0.227
				c0.264-0.339,0.677-0.621,1.242-0.848c0.49-0.15,0.96-0.188,1.413-0.112l0.339,0.056l-0.339,0.057
				c-0.112,0.037-0.245,0.132-0.395,0.282C16.392,34.231,16.26,34.345,16.146,34.382z"/>
		</g>
		
			<radialGradient id="SVGID_38_" cx="23.3921" cy="255.2539" r="3.2147" gradientTransform="matrix(0.3295 -1.0809 -0.703 -0.1977 193.8725 113.1297)" gradientUnits="userSpaceOnUse">
			<stop  offset="0" style="stop-color:#C9D7D5"/>
			<stop  offset="0.7922" style="stop-color:#303738"/>
		</radialGradient>
		<path style="fill-rule:evenodd;clip-rule:evenodd;fill:url(#SVGID_38_);" d="M21.119,39.976c0.301-0.603,0.734-1.111,1.299-1.525
			c0.227-0.226,0.584-1.036,1.074-2.43c0.075-0.188,0.019-0.395-0.169-0.621c-0.301-0.302-0.452-0.472-0.452-0.509v-0.057
			c-0.264-0.527-0.339-0.847-0.226-0.96c0.113-0.113,0.207-0.076,0.282,0.113c0.114,0.301,0.189,0.452,0.226,0.452
			c-0.037-0.264-0.037-0.472,0-0.622c0.113-0.226,0.245-0.32,0.396-0.283c0.151,0.076,0.188,0.227,0.113,0.453
			c0,0.15,0.075,0.264,0.227,0.338c0.112-0.338,0.264-0.451,0.451-0.338c0.075,0.037,0.114,0.226,0.114,0.564
			c0,0.151,0.056,0.357,0.168,0.621l0.227,0.453c0,0.149-0.151,0.621-0.453,1.412l-0.621,1.921
			c-0.075,0.113-0.414,0.603-1.017,1.469c-0.113,0.188-0.321,0.396-0.622,0.621c-0.339,0.189-0.603,0.265-0.79,0.227
			c-0.189,0-0.301-0.151-0.34-0.452C20.93,40.56,20.968,40.276,21.119,39.976z"/>
		<g>
			
				<use xlink:href="#FlashAICB_x5F_1_x2F_Layer_1_x2F__x3C_Path_x3E__x5F_13"  width="3.4" height="5.208" y="-5.208" transform="matrix(1.13 0 0 -1.13 21 35.4004)" style="overflow:visible;opacity:0.4414;enable-background:new    ;"/>
			<path style="fill-rule:evenodd;clip-rule:evenodd;fill:#626366;" d="M22.644,34.495v-0.056h0.113v-0.17l-0.113-0.057
				l-0.057,0.112c-0.075-0.188-0.056-0.338,0.057-0.451c0.075-0.076,0.132-0.095,0.17-0.057l-0.057,0.734L22.644,34.495z"/>
			<path style="fill-rule:evenodd;clip-rule:evenodd;fill:#626366;" d="M23.548,33.534l0.057,0.058l-0.057,0.112
				c-0.075,0.151-0.113,0.245-0.113,0.283v0.282l-0.113,0.028c0.038-0.021,0.057-0.069,0.057-0.141h-0.17v0.112l-0.057-0.112v-0.34
				C23.265,33.592,23.397,33.497,23.548,33.534z"/>
			<path style="fill-rule:evenodd;clip-rule:evenodd;fill:#626366;" d="M23.944,34.382l-0.056-0.057
				c0.112-0.338,0.264-0.451,0.451-0.338h0.056c0,0.15-0.056,0.282-0.169,0.395l-0.113-0.112H24L23.944,34.382z"/>
			<polygon style="fill-rule:evenodd;clip-rule:evenodd;fill:#FFFEFF;" points="22.757,34.27 22.757,34.439 22.644,34.439 
				22.587,34.325 22.644,34.213 			"/>
			<path style="fill-rule:evenodd;clip-rule:evenodd;fill:#FFFEFF;" d="M23.209,34.27v-0.112h0.17c0,0.112-0.038,0.168-0.114,0.168
				L23.209,34.27z"/>
			
				<use xlink:href="#FlashAICB_x5F_1_x2F_Layer_1_x2F__x3C_Path_x3E__x5F_2_x5F_0"  width="0.968" height="0.589" y="-0.6" transform="matrix(1.13 0 0 -1.13 23.25 35.1504)" style="overflow:visible;opacity:0.4414;enable-background:new    ;"/>
			<path style="fill-rule:evenodd;clip-rule:evenodd;fill:#FFFEFF;" d="M23.605,36.303c0.15,0.038,0.075,0.283-0.226,0.735
				l-0.339,0.565l0.169-0.565C23.397,36.548,23.529,36.303,23.605,36.303z"/>
			<path style="fill-rule:evenodd;clip-rule:evenodd;fill:#FFFEFF;" d="M22.644,38.846c-0.038,0.075-0.169,0.227-0.395,0.452
				c-0.227,0.227-0.415,0.376-0.565,0.451c-0.113,0.039-0.151,0-0.113-0.112c0.039-0.151,0.113-0.282,0.226-0.395l0.735-0.735
				C22.833,38.355,22.87,38.47,22.644,38.846z"/>
		</g>
		
			<radialGradient id="SVGID_39_" cx="7.123" cy="270.8975" r="4.4112" gradientTransform="matrix(0.2658 -1.0983 0.8966 0.2017 -207.4933 -2.8925)" gradientUnits="userSpaceOnUse">
			<stop  offset="0" style="stop-color:#C9D7D5"/>
			<stop  offset="0.7922" style="stop-color:#303738"/>
		</radialGradient>
		<path style="fill-rule:evenodd;clip-rule:evenodd;fill:url(#SVGID_39_);" d="M37.504,39.016l1.242,0.678l-0.451,0.509
			c-0.264,0.264-0.509,0.791-0.735,1.582c-0.413,1.544-0.583,2.543-0.509,2.994c0.114,0.603,0.49,1.676,1.131,3.221
			c-0.227,0.188-0.961,0.357-2.204,0.508c-0.79,0.076-1.506,0.019-2.146-0.169l-0.791-0.339c-0.037-0.828,0.037-1.714,0.227-2.656
			c0.112-0.527,0.319-1.092,0.621-1.694c0.301-0.641,0.489-1.131,0.564-1.469c0.113-0.414,0.396-0.866,0.848-1.356
			c0.339-0.339,0.641-0.584,0.904-0.734c0.226-0.113,0.583-0.207,1.073-0.282C37.39,39.73,37.466,39.467,37.504,39.016z"/>
		<g>
			
				<use xlink:href="#FlashAICB_x5F_1_x2F_Layer_1_x2F__x3C_Path_x3E__x5F_11_x5F_1"  width="4.45" height="2.629" y="-2.629" transform="matrix(1.13 0 0 -1.13 33.0498 45.25)" style="overflow:visible;opacity:0.3984;enable-background:new    ;"/>
			<path style="fill-rule:evenodd;clip-rule:evenodd;fill:#292C2C;" d="M35.47,48.507l-0.791-0.169
				c-0.339-0.151-0.603-0.264-0.791-0.339c-0.377-0.188-0.659-0.301-0.848-0.34V47.32c0.075-0.037,0.227,0.019,0.452,0.17
				c0.339,0.227,0.659,0.396,0.96,0.509c0.829,0.302,1.732,0.339,2.713,0.112c0.526-0.074,0.828-0.207,0.903-0.395l0.113,0.282
				c-0.227,0.188-0.961,0.357-2.204,0.508H35.47z"/>
			
				<use xlink:href="#FlashAICB_x5F_1_x2F_Layer_1_x2F__x3C_Path_x3E__x5F_9_x5F_2"  width="1.65" height="2.1" y="-2.1" transform="matrix(1.13 0 0 -1.13 35.3496 44.5498)" style="overflow:visible;opacity:0.3789;enable-background:new    ;"/>
			
				<use xlink:href="#FlashAICB_x5F_1_x2F_Layer_1_x2F__x3C_Path_x3E__x5F_8_x5F_2"  width="1.238" height="2.908" x="0.125" y="-2.9" transform="matrix(1.13 0 0 -1.13 36.1504 41.2002)" style="overflow:visible;opacity:0.3789;enable-background:new    ;"/>
			<path style="fill-rule:evenodd;clip-rule:evenodd;fill:#FFFEFF;" d="M35.865,44.722l0.056-0.057l0.227-0.113l0.452-0.169
				l0.113-0.961l0.452-1.355c-0.188,0.753-0.282,1.374-0.282,1.864c0,0.227,0.037,0.377,0.112,0.452v0.057l-0.057,0.112
				L35.865,44.722z"/>
			<path style="fill-rule:evenodd;clip-rule:evenodd;fill:#FFFEFF;" d="M36.995,43.535c0.075-0.603,0.301-1.281,0.678-2.033
				l-0.113,0.282l-0.564,2.543V43.535z"/>
			<path style="fill-rule:evenodd;clip-rule:evenodd;fill:#222727;" d="M35.752,40.484l0.057-0.057l1.074,0.509
				c0.074,0.339-0.114,0.547-0.565,0.621c-0.301,0.188-0.604,0.245-0.905,0.169c-0.376-0.112-0.395-0.413-0.056-0.903
				C35.47,40.636,35.602,40.521,35.752,40.484z"/>
			<path style="fill-rule:evenodd;clip-rule:evenodd;fill:#1C1F1F;" d="M38.746,39.693l-0.451,0.509
				c-0.113,0.037-0.302,0.056-0.565,0.056c-0.226,0-0.377-0.019-0.452-0.056c-0.112-0.038-0.17-0.132-0.17-0.283l0.17-0.112
				c0.038,0,0.112-0.207,0.227-0.622l0.282-0.057L38.746,39.693z"/>
			<path style="fill-rule:evenodd;clip-rule:evenodd;fill:#1C1F1F;" d="M34.679,48.338l0.791,0.169h0.226
				c-0.716,0.038-1.374-0.037-1.978-0.226l-0.678-0.282v-0.34c0.188,0.039,0.471,0.151,0.848,0.34
				C34.076,48.074,34.34,48.187,34.679,48.338z"/>
		</g>
		
			<radialGradient id="SVGID_40_" cx="-149.6919" cy="-223.168" r="4.3576" gradientTransform="matrix(-0.7974 0.8006 -0.8363 -0.765 -263.6931 -15.8104)" gradientUnits="userSpaceOnUse">
			<stop  offset="0" style="stop-color:#C9D7D5"/>
			<stop  offset="0.7922" style="stop-color:#303738"/>
		</radialGradient>
		<path style="fill-rule:evenodd;clip-rule:evenodd;fill:url(#SVGID_40_);" d="M43.437,33.479c1.242,1.092,1.788,2.091,1.639,2.994
			c-0.151,0.979-0.623,1.808-1.413,2.486c-0.791,0.678-1.733,1.13-2.825,1.355c-1.055,0.227-2.016,0.095-2.882-0.396
			c-0.829-0.413-1.28-0.96-1.355-1.639c-0.113-1.62,0.433-3.276,1.638-4.971c0.378-0.565,1.13-0.848,2.26-0.848
			C41.703,32.423,42.683,32.763,43.437,33.479z"/>
		<g>
			
				<use xlink:href="#FlashAICB_x5F_1_x2F_Layer_1_x2F__x3C_Path_x3E__x5F_9_x5F_3"  width="-32766" height="-32766" x="16383" y="16383" transform="matrix(1.13 0 0 -1.13 43.6504 34.1504)" style="overflow:visible;opacity:0.3516;enable-background:new    ;"/>
			
				<use xlink:href="#FlashAICB_x5F_1_x2F_Layer_1_x2F__x3C_Path_x3E__x5F_8_x5F_3"  width="3.55" height="3.417" y="-3.45" transform="matrix(1.13 0 0 -1.13 36.6504 33.5996)" style="overflow:visible;opacity:0.3516;enable-background:new    ;"/>
			
				<use xlink:href="#FlashAICB_x5F_1_x2F_Layer_1_x2F__x3C_Path_x3E__x5F_7_x5F_1"  width="7.526" height="5.053" y="-5.053" transform="matrix(1.13 0 0 -1.13 36.5996 34.4502)" style="overflow:visible;opacity:0.4688;enable-background:new    ;"/>
			
				<use xlink:href="#FlashAICB_x5F_1_x2F_Layer_1_x2F__x3C_Path_x3E__x5F_6_x5F_1"  width="0.25" height="1" y="-1" transform="matrix(1.13 0 0 -1.13 36.5996 37.1504)" style="overflow:visible;opacity:0.3516;enable-background:new    ;"/>
			
				<use xlink:href="#FlashAICB_x5F_1_x2F_Layer_1_x2F__x3C_Path_x3E__x5F_5_x5F_1"  width="0.25" height="1" y="-1" transform="matrix(1.13 0 0 -1.13 36.5996 37.1504)" style="overflow:visible;opacity:0.4688;enable-background:new    ;"/>
			<path style="fill-rule:evenodd;clip-rule:evenodd;fill:#ACB3B7;" d="M41.063,40.032c0.829-0.15,1.657-0.471,2.486-0.96
				c-0.791,0.602-1.695,1.017-2.712,1.242c-0.828,0.151-1.619,0.095-2.373-0.169c-0.678-0.227-1.187-0.584-1.525-1.073l0.169,0.112
				C38.125,40.051,39.443,40.333,41.063,40.032z"/>
			<path style="fill-rule:evenodd;clip-rule:evenodd;fill:#B7BFC0;" d="M43.437,33.479c0.338,0.226,0.583,0.452,0.733,0.679
				c-0.112,0.225-0.282,0.376-0.508,0.451c-0.264-0.339-0.679-0.621-1.243-0.848c-0.49-0.15-0.96-0.188-1.413-0.112l-0.339,0.056
				c-1.242-0.151-2.071-0.075-2.485,0.227c-0.15,0.112-0.339,0.357-0.565,0.733c-0.301,0.453-0.49,0.735-0.565,0.848
				c0.339-0.866,0.735-1.6,1.187-2.202c0.378-0.565,1.13-0.848,2.26-0.848C41.703,32.423,42.683,32.763,43.437,33.479z"/>
			<path style="fill-rule:evenodd;clip-rule:evenodd;fill:#FFFEFF;" d="M43.831,34.947l-0.451,0.622
				c-0.527-0.302-0.979-0.509-1.356-0.622c-0.301-0.075-0.772-0.113-1.412-0.113c0.264-0.037,0.791-0.056,1.581-0.056
				c0.642,0,1.148-0.038,1.526-0.114L43.831,34.947z"/>
			<path style="fill-rule:evenodd;clip-rule:evenodd;fill:#FFFEFF;" d="M43.719,34.664c-0.378,0.076-0.885,0.114-1.526,0.114
				c-0.79,0-1.317,0.019-1.581,0.056h-0.227l0.112-1.13h0.17l0.339,0.057c0.114,0.037,0.245,0.132,0.396,0.282
				c0.15,0.188,0.282,0.302,0.396,0.339l1.864,0.227L43.719,34.664z"/>
			<path style="fill-rule:evenodd;clip-rule:evenodd;fill:#FFFEFF;" d="M41.798,34.382c-0.113-0.037-0.245-0.15-0.396-0.339
				c-0.151-0.15-0.282-0.245-0.396-0.282l-0.339-0.057l0.339-0.056c0.453-0.075,0.923-0.038,1.413,0.112
				c0.564,0.227,0.979,0.509,1.243,0.848L41.798,34.382z"/>
		</g>
		
			<radialGradient id="SVGID_41_" cx="-116.6978" cy="239.5605" r="3.2147" gradientTransform="matrix(-0.3295 -1.0809 0.703 -0.1977 -171.0596 -41.394)" gradientUnits="userSpaceOnUse">
			<stop  offset="0" style="stop-color:#C9D7D5"/>
			<stop  offset="0.7922" style="stop-color:#303738"/>
		</radialGradient>
		<path style="fill-rule:evenodd;clip-rule:evenodd;fill:url(#SVGID_41_);" d="M33.322,35.173c0.112-0.264,0.17-0.47,0.17-0.621
			c0-0.339,0.038-0.527,0.112-0.564c0.113-0.038,0.208-0.02,0.283,0.056S34,34.213,34,34.325c0.188-0.074,0.282-0.188,0.282-0.338
			c0-0.038,0-0.113,0-0.227c0-0.112,0.039-0.188,0.114-0.227c0.075-0.037,0.149-0.019,0.226,0.058
			c0.075,0.075,0.113,0.15,0.113,0.226v0.622c0.074,0,0.17-0.151,0.282-0.452c0.075-0.189,0.17-0.227,0.282-0.113
			s0.038,0.433-0.226,0.96v0.057c0,0.037-0.15,0.207-0.452,0.509c-0.188,0.227-0.245,0.434-0.17,0.621
			c0.075,0.188,0.245,0.621,0.509,1.3c0.227,0.603,0.414,0.979,0.565,1.13c0.603,0.527,1.035,1.035,1.299,1.525
			c0.151,0.301,0.207,0.584,0.17,0.848c-0.075,0.301-0.208,0.452-0.396,0.452c-0.188,0.038-0.452-0.037-0.791-0.227
			c-0.301-0.226-0.509-0.434-0.621-0.621l-1.018-1.469l-0.621-1.921c-0.302-0.791-0.452-1.263-0.452-1.412
			C33.059,35.588,33.134,35.437,33.322,35.173z"/>
		<g>
			
				<use xlink:href="#FlashAICB_x5F_1_x2F_Layer_1_x2F__x3C_Path_x3E__x5F_13_x5F_0"  width="3.4" height="5.208" y="-5.208" transform="matrix(1.13 0 0 -1.13 33.0996 35.4004)" style="overflow:visible;opacity:0.4414;enable-background:new    ;"/>
			<path style="fill-rule:evenodd;clip-rule:evenodd;fill:#626366;" d="M35.188,34.27v0.17H35.3v0.056l-0.112,0.057
				c-0.076-0.301-0.095-0.546-0.058-0.734c0.039-0.038,0.095-0.02,0.17,0.057c0.112,0.113,0.132,0.264,0.057,0.451L35.3,34.213
				L35.188,34.27z"/>
			<path style="fill-rule:evenodd;clip-rule:evenodd;fill:#626366;" d="M34.735,33.817l0.056,0.17h-0.056l0.056,0.056v0.114
				l-0.085,0.083l-0.027-0.027v-0.056h-0.113c-0.021,0.061-0.021,0.107,0,0.141l-0.057-0.028v-0.282
				c0-0.038-0.037-0.132-0.112-0.283l-0.057-0.112l0.057-0.058c0.075-0.037,0.149-0.019,0.226,0.058
				C34.697,33.667,34.735,33.742,34.735,33.817z"/>
			<path style="fill-rule:evenodd;clip-rule:evenodd;fill:#626366;" d="M34.058,34.325L34,34.382l-0.112-0.112h-0.057l-0.113,0.112
				c-0.113-0.112-0.169-0.244-0.169-0.395h0.056c0.113-0.038,0.208-0.02,0.283,0.056S34,34.213,34,34.325H34.058z"/>
			<polygon style="fill-rule:evenodd;clip-rule:evenodd;fill:#FFFEFF;" points="35.188,34.27 35.3,34.213 35.356,34.325 
				35.3,34.439 35.188,34.439 			"/>
			<path style="fill-rule:evenodd;clip-rule:evenodd;fill:#FFFEFF;" d="M34.565,34.157h0.113v0.056c0.037,0.038,0.037,0.057,0,0.057
				v0.056C34.565,34.325,34.527,34.27,34.565,34.157z"/>
			
				<use xlink:href="#FlashAICB_x5F_1_x2F_Layer_1_x2F__x3C_Path_x3E__x5F_2_x5F_1"  width="0.956" height="0.589" x="0.044" y="-0.6" transform="matrix(1.13 0 0 -1.13 33.5498 35.1504)" style="overflow:visible;opacity:0.4414;enable-background:new    ;"/>
			<path style="fill-rule:evenodd;clip-rule:evenodd;fill:#FFFEFF;" d="M34.34,36.303c0.112,0,0.226,0.245,0.339,0.735l0.227,0.565
				l-0.34-0.565C34.264,36.586,34.188,36.341,34.34,36.303z"/>
			<path style="fill-rule:evenodd;clip-rule:evenodd;fill:#FFFEFF;" d="M35.3,38.846c-0.226-0.376-0.207-0.49,0.057-0.339
				l0.791,0.735c0.339,0.451,0.376,0.621,0.112,0.507C35.733,39.485,35.412,39.185,35.3,38.846z"/>
		</g>
	</g>
</g>
</svg>
