<?xml version="1.0" encoding="iso-8859-1"?>
<!-- Generator: Adobe Illustrator 15.1.0, SVG Export Plug-In . SVG Version: 6.00 Build 0)  -->
<!DOCTYPE svg PUBLIC "-//W3C//DTD SVG 1.1//EN" "http://www.w3.org/Graphics/SVG/1.1/DTD/svg11.dtd">
<svg version="1.1" xmlns="http://www.w3.org/2000/svg" xmlns:xlink="http://www.w3.org/1999/xlink" x="0px" y="0px" width="60px"
	 height="60px" viewBox="0 0 60 60" style="enable-background:new 0 0 60 60;" xml:space="preserve">
<symbol  id="transparent_x5F_box_1_" viewBox="0 -50 50 50">
	<g id="Layer_1_2_">
		<polygon style="fill-rule:evenodd;clip-rule:evenodd;fill:#CCCCCC;" points="50,-50 0,-50 0,0 50,0 		"/>
	</g>
</symbol>
<g id="transparent_x5F_box">
	
		<use xlink:href="#transparent_x5F_box_1_"  width="50" height="50" y="-50" transform="matrix(1.2 0 0 -1.2 0 0)" style="overflow:visible;opacity:0;"/>
</g>
<g id="flash0.ai">
	<g>
		
			<radialGradient id="SVGID_1_" cx="800.5498" cy="405.1504" r="23.7" gradientTransform="matrix(1.1927 0 0 -0.1673 -924.9994 125.1105)" gradientUnits="userSpaceOnUse">
			<stop  offset="0" style="stop-color:#000000;stop-opacity:0.6392"/>
			<stop  offset="0.9216" style="stop-color:#000000;stop-opacity:0.1059"/>
			<stop  offset="1" style="stop-color:#000000;stop-opacity:0"/>
		</radialGradient>
		<path style="fill-rule:evenodd;clip-rule:evenodd;fill:url(#SVGID_1_);" d="M59.266,56.899c0,0.875-2.166,1.451-6.5,1.729
			c-3.856,0.239-11.629,0.357-23.317,0.357c-11.967,0-19.739-0.118-23.317-0.357c-3.738-0.278-5.606-0.854-5.606-1.729
			s2.883-1.609,8.647-2.206c5.725-0.636,12.642-0.954,20.753-0.954c8.11,0,15.027,0.318,20.751,0.954
			C56.403,55.29,59.266,56.024,59.266,56.899z"/>
		
			<linearGradient id="SVGID_2_" gradientUnits="userSpaceOnUse" x1="307.9902" y1="-833.8613" x2="311.2121" y2="-833.8613" gradientTransform="matrix(-0.1388 1.1846 -1.1846 -0.1388 -925.0017 -425.9001)">
			<stop  offset="0" style="stop-color:#2E1F10"/>
			<stop  offset="1" style="stop-color:#674523"/>
		</linearGradient>
		<polygon style="fill-rule:evenodd;clip-rule:evenodd;fill:url(#SVGID_2_);" points="18.118,49.803 24.439,52.904 22.591,58.928 
			15.316,58.928 		"/>
		
			<linearGradient id="SVGID_3_" gradientUnits="userSpaceOnUse" x1="807.5977" y1="406.1367" x2="807.9727" y2="402.9367" gradientTransform="matrix(1.1927 0 0 1.1927 -924.9994 -425.9008)">
			<stop  offset="0" style="stop-color:#2E1F10"/>
			<stop  offset="1" style="stop-color:#674523"/>
		</linearGradient>
		<polygon style="fill-rule:evenodd;clip-rule:evenodd;fill:url(#SVGID_3_);" points="40.242,49.803 43.105,58.928 35.77,58.928 
			33.921,52.904 		"/>
		
			<radialGradient id="SVGID_4_" cx="799.7988" cy="380.5996" r="21.0629" gradientTransform="matrix(1.1927 0 0 -1.1325 -924.9994 459.0736)" gradientUnits="userSpaceOnUse">
			<stop  offset="0" style="stop-color:#232121"/>
			<stop  offset="1" style="stop-color:#3D3D3D"/>
		</radialGradient>
		<polygon style="fill-rule:evenodd;clip-rule:evenodd;fill:url(#SVGID_4_);" points="48.233,0.843 49.963,55.23 7.861,55.23 
			9.829,0.843 		"/>
		
			<radialGradient id="SVGID_5_" cx="799.7998" cy="380.5254" r="20.4266" gradientTransform="matrix(1.1927 0 0 -1.1328 -924.9994 459.0057)" gradientUnits="userSpaceOnUse">
			<stop  offset="0" style="stop-color:#595959"/>
			<stop  offset="0.9922" style="stop-color:#373333"/>
		</radialGradient>
		<polygon style="fill-rule:evenodd;clip-rule:evenodd;fill:url(#SVGID_5_);" points="47.696,1.56 49.308,54.336 8.517,54.336 
			10.366,1.56 		"/>
		
			<radialGradient id="SVGID_6_" cx="799.7988" cy="380.4492" r="19.7885" gradientTransform="matrix(1.1927 0 0 -1.1332 -924.9994 458.9688)" gradientUnits="userSpaceOnUse">
			<stop  offset="0" style="stop-color:#232121"/>
			<stop  offset="1" style="stop-color:#3D3D3D"/>
		</radialGradient>
		<polygon style="fill-rule:evenodd;clip-rule:evenodd;fill:url(#SVGID_6_);" points="47.159,2.274 48.65,53.441 9.173,53.441 
			10.902,2.274 		"/>
		
			<radialGradient id="SVGID_7_" cx="799.7988" cy="380.375" r="18.8026" gradientTransform="matrix(1.1927 0 0 -1.1332 -924.9994 458.7984)" gradientUnits="userSpaceOnUse">
			<stop  offset="0" style="stop-color:#595959"/>
			<stop  offset="0.9922" style="stop-color:#373333"/>
		</radialGradient>
		<polygon style="fill-rule:evenodd;clip-rule:evenodd;fill:url(#SVGID_7_);" points="46.265,3.467 47.637,52.069 10.186,52.069 
			11.797,3.467 		"/>
		
			<linearGradient id="SVGID_8_" gradientUnits="userSpaceOnUse" x1="771.6641" y1="-394.0454" x2="815.3595" y2="-394.0454" gradientTransform="matrix(0.7363 0.9383 -0.9383 0.7363 -924.9995 -425.9004)">
			<stop  offset="0" style="stop-color:#E6E2DC"/>
			<stop  offset="1" style="stop-color:#C8C4BF"/>
		</linearGradient>
		<polygon style="fill-rule:evenodd;clip-rule:evenodd;fill:url(#SVGID_8_);" points="45.013,4.541 46.206,50.758 11.618,50.758 
			13.049,4.541 		"/>
		
			<radialGradient id="SVGID_9_" cx="799.7988" cy="380.1494" r="15.5135" gradientTransform="matrix(1.1927 0 0 -1.1715 -924.9994 472.8608)" gradientUnits="userSpaceOnUse">
			<stop  offset="0" style="stop-color:#595959"/>
			<stop  offset="0.9922" style="stop-color:#2A2727"/>
		</radialGradient>
		<polygon style="fill-rule:evenodd;clip-rule:evenodd;fill:url(#SVGID_9_);" points="43.105,6.508 44.059,48.491 13.764,48.491 
			14.897,6.508 		"/>
		<path style="fill-rule:evenodd;clip-rule:evenodd;" d="M23.068,45.093c-0.359-0.518-0.895-0.796-1.611-0.835l0.059-5.249
			c0.677-0.039,1.233-0.298,1.67-0.774c0.357-0.438,0.557-0.955,0.596-1.551H33.98c0.04,0.637,0.259,1.173,0.656,1.61
			c0.397,0.477,0.955,0.715,1.67,0.715h0.06v5.249h-0.06c-0.715,0-1.292,0.258-1.729,0.774c-0.357,0.478-0.537,1.054-0.537,1.729
			H23.604C23.604,46.086,23.426,45.529,23.068,45.093z"/>
		
			<linearGradient id="SVGID_10_" gradientUnits="userSpaceOnUse" x1="793.5488" y1="391.7988" x2="806.0498" y2="391.7988" gradientTransform="matrix(1.1927 0 0 1.1927 -924.9994 -425.9008)">
			<stop  offset="0" style="stop-color:#F4D75F"/>
			<stop  offset="0.1529" style="stop-color:#F9EA60"/>
			<stop  offset="0.3686" style="stop-color:#D6AC49"/>
			<stop  offset="0.6549" style="stop-color:#B19025"/>
			<stop  offset="0.8157" style="stop-color:#E1B454"/>
			<stop  offset="1" style="stop-color:#ECE97D"/>
		</linearGradient>
		<path style="fill-rule:evenodd;clip-rule:evenodd;fill:url(#SVGID_10_);" d="M23.127,44.733c-0.398-0.476-0.954-0.734-1.67-0.774
			l0.059-5.248c0.716-0.04,1.273-0.298,1.67-0.774c0.357-0.398,0.557-0.914,0.596-1.552H33.98c0.04,0.638,0.239,1.173,0.597,1.611
			c0.438,0.477,1.015,0.715,1.729,0.715h0.06v5.188h-0.06c-0.715,0-1.292,0.279-1.729,0.834C34.18,45.211,34,45.769,34.04,46.404
			H23.604C23.645,45.769,23.485,45.211,23.127,44.733z"/>
		<path style="fill-rule:evenodd;clip-rule:evenodd;fill:#AE7C30;" d="M22.352,39.129l-0.06,4.353
			c0.596,0.079,1.074,0.357,1.432,0.835c0.318,0.397,0.496,0.875,0.537,1.432h9.123c0.08-0.636,0.299-1.173,0.656-1.61
			c0.358-0.357,0.854-0.577,1.491-0.656v-4.353c-1.272-0.12-1.987-0.815-2.147-2.087H24.38
			C24.22,38.313,23.544,39.009,22.352,39.129z M23.665,38.234c0.318-0.398,0.496-0.874,0.536-1.432h9.363
			c0.04,0.597,0.239,1.073,0.597,1.432c0.396,0.437,0.914,0.656,1.55,0.656h0.06v4.83h-0.06c-0.676,0-1.192,0.238-1.55,0.715
			c-0.357,0.438-0.537,0.975-0.537,1.611h-9.601c0.04-0.597-0.1-1.114-0.418-1.551c-0.397-0.478-0.915-0.736-1.55-0.775l0.06-4.83
			C22.75,38.891,23.266,38.671,23.665,38.234z"/>
		
			<linearGradient id="SVGID_11_" gradientUnits="userSpaceOnUse" x1="-404.75" y1="800.0586" x2="-403.45" y2="800.0586" gradientTransform="matrix(9.174522e-004 -1.1927 1.1927 -0.0012 -924.9995 -425.9014)">
			<stop  offset="0" style="stop-color:#2E1F10"/>
			<stop  offset="1" style="stop-color:#674523"/>
		</linearGradient>
		<rect x="7.384" y="54.038" style="fill-rule:evenodd;clip-rule:evenodd;fill:url(#SVGID_11_);" width="42.937" height="1.43"/>
		<path style="fill-rule:evenodd;clip-rule:evenodd;fill:#54381D;" d="M11.916,54.455c0.04,0-0.02-0.378-0.178-1.134l0.834-0.298
			l0.775-0.119l0.298,1.371c0.199,0.557,0.417,0.955,0.656,1.192c-0.397,0.278-0.676,0.418-0.835,0.418l-0.834-0.478L11.916,54.455z
			"/>
		<polygon style="fill-rule:evenodd;clip-rule:evenodd;fill:#A36C38;" points="10.962,54.216 9.59,53.144 10.664,52.904 
			13.347,52.904 12.512,53.144 		"/>
		<path style="fill-rule:evenodd;clip-rule:evenodd;fill:#674523;" d="M13.466,55.886H9.59c-0.119-0.159-0.218-0.438-0.298-0.835
			c-0.04-0.317,0-0.734,0.12-1.252l0.178-0.655h3.042l0.059,1.013C12.811,54.952,13.069,55.528,13.466,55.886z"/>
		<path style="fill-rule:evenodd;clip-rule:evenodd;fill:#82562D;" d="M46.146,54.455c0.039,0.039-0.22,0.357-0.776,0.953
			l-0.774,0.478l-0.835-0.418c0.239-0.237,0.458-0.636,0.656-1.192l0.298-1.371l0.775,0.119l0.774,0.298
			C46.306,53.321,46.265,53.699,46.146,54.455z"/>
		<polygon style="fill-rule:evenodd;clip-rule:evenodd;fill:#A36C38;" points="47.101,54.216 45.55,53.144 44.715,52.904 
			47.398,52.904 48.473,53.144 		"/>
		<path style="fill-rule:evenodd;clip-rule:evenodd;fill:#674523;" d="M44.596,55.886c0.636-0.596,0.895-1.51,0.774-2.742h3.103
			l0.178,0.655c0.12,0.518,0.159,0.935,0.12,1.252c-0.079,0.397-0.18,0.676-0.298,0.835H44.596z"/>
		<polygon style="fill-rule:evenodd;clip-rule:evenodd;fill:#848383;" points="33.98,9.61 34.04,16.468 41.614,16.527 41.733,25.83 
			34.101,25.771 34.16,33.881 24.499,33.881 24.559,25.771 16.925,25.83 17.044,16.527 24.619,16.468 24.678,9.61 		"/>
		<polygon style="fill-rule:evenodd;clip-rule:evenodd;" points="24.022,8.775 33.325,8.775 33.384,15.633 40.958,15.692 
			41.077,24.995 33.443,24.936 33.504,33.046 23.843,33.046 23.902,24.936 16.27,24.995 16.388,15.692 23.963,15.633 		"/>
		
			<radialGradient id="SVGID_12_" cx="365.0293" cy="-800.2407" r="19.275" gradientTransform="matrix(3.093873e-005 1.1927 1.1927 3.093873e-005 983.8749 -425.8508)" gradientUnits="userSpaceOnUse">
			<stop  offset="0" style="stop-color:#DDA11C"/>
			<stop  offset="0.2353" style="stop-color:#DA9F1B"/>
			<stop  offset="0.4275" style="stop-color:#D1981A"/>
			<stop  offset="0.6039" style="stop-color:#C18D17"/>
			<stop  offset="0.7686" style="stop-color:#AB7D13"/>
			<stop  offset="0.9255" style="stop-color:#90680E"/>
			<stop  offset="1" style="stop-color:#805D0B"/>
		</radialGradient>
		<polygon style="fill-rule:evenodd;clip-rule:evenodd;fill:url(#SVGID_12_);" points="24.2,9.49 33.443,9.49 33.504,16.109 
			40.958,16.17 41.077,25.234 33.563,25.174 33.623,33.046 24.022,33.046 24.082,25.174 16.568,25.234 16.687,16.17 24.141,16.109 
					"/>
		<path style="fill-rule:evenodd;clip-rule:evenodd;fill:#F5DD8A;" d="M31.595,22.133c-0.396-0.318-0.835-0.458-1.312-0.418
			l0.895,3.22c0.716-0.397,1.033-0.993,0.954-1.789C32.093,22.75,31.913,22.412,31.595,22.133z M29.449,22.013h-0.18
			c-0.357,0-0.596,0.199-0.715,0.597c-0.119,0.398-0.099,0.756,0.059,1.074c0.398-0.12,0.697-0.1,0.895,0.06
			c0.278,0.199,0.398,0.417,0.358,0.656c-0.08,0.278-0.318,0.418-0.715,0.418h-0.179l-0.656-0.239
			c-0.198-0.12-0.358-0.298-0.477-0.537c-0.359-0.636-0.378-1.272-0.061-1.908c0.239-0.517,0.677-0.914,1.313-1.193l-0.418-1.431
			c-1.629,0.675-2.425,1.689-2.385,3.041c0,0.875,0.398,1.61,1.192,2.206c0.875,0.637,1.85,0.835,2.922,0.596L29.449,22.013z
			 M28.196,13.366c0.437-0.754,0.974-1.153,1.61-1.192c0.398-0.04,0.776,0.159,1.133,0.596c0.278,0.318,0.478,0.676,0.597,1.074
			c0.437,1.432,0.159,2.842-0.836,4.234c-0.278,0.318-0.675,0.616-1.192,0.895l0.478,1.729c0.914-0.04,1.75,0.259,2.504,0.895
			c0.717,0.715,0.915,1.531,0.597,2.445c-0.278,0.875-0.835,1.451-1.669,1.73c0.237,0.954,0.237,1.769,0,2.444
			c-0.278,0.715-0.914,1.153-1.909,1.312c-0.993,0.12-1.729-0.119-2.206-0.715c-0.357-0.478-0.438-0.915-0.239-1.312
			c0.199-0.438,0.597-0.677,1.193-0.716c0.596-0.079,0.994,0.12,1.193,0.596c0.119,0.318,0.079,0.596-0.119,0.835
			c-0.199,0.239-0.497,0.397-0.895,0.478c0.397,0.198,0.834,0.238,1.312,0.119c0.437-0.079,0.735-0.278,0.895-0.597
			c0.317-0.636,0.317-1.352,0-2.146c-1.432,0.437-2.684,0.338-3.758-0.298c-1.033-0.636-1.649-1.531-1.849-2.684
			c-0.158-1.074,0.12-2.107,0.835-3.102c0.596-0.794,1.392-1.45,2.385-1.967l-0.179-0.478C27.521,16.07,27.561,14.679,28.196,13.366
			z M29.866,13.486c-0.238,0.04-0.497,0.357-0.775,0.954c-0.438,0.954-0.418,2.028,0.06,3.22c1.232-0.637,1.729-1.65,1.491-3.042
			C30.522,13.824,30.264,13.446,29.866,13.486z"/>
		<path style="fill-rule:evenodd;clip-rule:evenodd;fill:#55390E;" d="M31.297,21.835c-0.397-0.318-0.835-0.458-1.312-0.418
			l0.895,3.221c0.715-0.358,1.033-0.954,0.954-1.789C31.794,22.451,31.615,22.113,31.297,21.835z M29.21,23.445
			c0.278,0.199,0.398,0.417,0.357,0.656c-0.079,0.278-0.318,0.418-0.715,0.418h-0.179c-0.318-0.08-0.516-0.179-0.596-0.298
			c-0.159-0.041-0.338-0.219-0.536-0.537c-0.358-0.636-0.378-1.252-0.061-1.849c0.278-0.517,0.736-0.914,1.372-1.192l-0.478-1.432
			c-1.629,0.676-2.425,1.669-2.385,2.982c0,0.914,0.398,1.669,1.193,2.265c0.875,0.677,1.85,0.875,2.922,0.597l-0.954-3.339h-0.119
			c-0.359,0-0.616,0.199-0.776,0.596c-0.119,0.398-0.099,0.736,0.06,1.015C28.673,23.206,28.971,23.246,29.21,23.445z
			 M27.898,13.068c0.357-0.715,0.895-1.114,1.609-1.193c0.398-0.04,0.775,0.16,1.134,0.596c0.278,0.318,0.478,0.676,0.596,1.074
			c0.438,1.391,0.16,2.802-0.835,4.233c-0.278,0.318-0.675,0.616-1.192,0.895l0.478,1.73c1.033-0.04,1.868,0.258,2.504,0.895
			c0.717,0.675,0.914,1.491,0.597,2.445c-0.278,0.875-0.835,1.451-1.669,1.729c0.278,0.875,0.278,1.669,0,2.385
			c-0.278,0.755-0.915,1.193-1.909,1.312c-0.994,0.16-1.73-0.06-2.206-0.656c-0.318-0.557-0.398-0.994-0.239-1.312
			c0.199-0.478,0.596-0.736,1.192-0.775c0.636-0.04,1.033,0.179,1.193,0.655c0.239,0.676-0.099,1.114-1.013,1.313
			c0.397,0.198,0.834,0.237,1.312,0.119c0.437-0.119,0.755-0.338,0.954-0.656c0.278-0.596,0.278-1.293,0-2.087
			c-1.471,0.437-2.743,0.337-3.817-0.298c-0.993-0.636-1.59-1.53-1.789-2.684c-0.198-1.074,0.061-2.107,0.776-3.102
			c0.596-0.794,1.392-1.45,2.385-1.967l-0.179-0.478C27.223,15.771,27.262,14.381,27.898,13.068z M29.567,13.188
			c-0.238,0.04-0.496,0.358-0.774,0.954c-0.438,0.954-0.418,2.028,0.059,3.221c1.233-0.637,1.73-1.651,1.491-3.042
			C30.225,13.526,29.966,13.147,29.567,13.188z"/>
		<path style="fill-rule:evenodd;clip-rule:evenodd;fill:#FFFFFF;" d="M28.256,44.675h0.776c1.193,0,1.789-0.457,1.789-1.371
			s-0.596-1.372-1.789-1.372h-0.776V44.675z M28.256,41.275h0.835c0.477,0,0.855-0.12,1.134-0.357
			c0.278-0.199,0.417-0.478,0.417-0.835c0-0.796-0.518-1.192-1.551-1.192l-0.835,0.06V41.275z M27.361,38.354
			c0.357-0.119,0.915-0.18,1.67-0.18c0.875,0,1.51,0.18,1.908,0.537c0.397,0.318,0.597,0.736,0.597,1.252
			c0,0.796-0.397,1.313-1.193,1.552v0.06c0.397,0.079,0.735,0.258,1.014,0.537c0.318,0.317,0.478,0.715,0.478,1.192
			c0,0.636-0.199,1.112-0.597,1.43c-0.478,0.438-1.292,0.657-2.444,0.657c-0.756,0-1.232-0.02-1.432-0.061V38.354z"/>
		
			<linearGradient id="SVGID_13_" gradientUnits="userSpaceOnUse" x1="388.4375" y1="-800.1968" x2="393.4625" y2="-800.1968" gradientTransform="matrix(2.373509e-004 1.1927 -1.1927 -0.0012 -924.9989 -425.9001)">
			<stop  offset="0" style="stop-color:#7D5712"/>
			<stop  offset="0.9922" style="stop-color:#69440A"/>
		</linearGradient>
		<path style="fill-rule:evenodd;clip-rule:evenodd;fill:url(#SVGID_13_);" d="M28.137,38.592v2.326h0.834
			c0.478,0,0.855-0.12,1.133-0.358c0.278-0.198,0.418-0.477,0.418-0.834c0-0.796-0.518-1.192-1.551-1.192L28.137,38.592z
			 M28.912,37.816c0.875,0,1.51,0.18,1.909,0.537c0.397,0.278,0.597,0.695,0.597,1.252c0,0.796-0.398,1.313-1.192,1.55v0.062
			c0.396,0.079,0.734,0.257,1.013,0.535c0.318,0.318,0.478,0.717,0.478,1.192c0,0.638-0.199,1.114-0.596,1.432
			c-0.478,0.438-1.293,0.656-2.446,0.656c-0.755,0-1.232-0.021-1.43-0.06v-6.977C27.6,37.876,28.157,37.816,28.912,37.816z
			 M28.137,41.574v2.742h0.774c1.232,0,1.848-0.457,1.848-1.372c0-0.914-0.616-1.37-1.848-1.37H28.137z"/>
		
			<radialGradient id="SVGID_14_" cx="799.6992" cy="370.25" r="11.2073" gradientTransform="matrix(1.1927 0 0 -1.1927 -924.9994 457.2847)" gradientUnits="userSpaceOnUse">
			<stop  offset="0.0745" style="stop-color:#FFFFFF;stop-opacity:0.2"/>
			<stop  offset="0.2824" style="stop-color:#FFFFFF;stop-opacity:0.2"/>
		</radialGradient>
		<path style="fill-rule:evenodd;clip-rule:evenodd;fill:url(#SVGID_14_);" d="M24.737,17.064
			c-4.333,2.425-8.209,5.486-11.629,9.183l0.597-21.05h30.652l0.118,6.023C37.32,11.737,30.74,13.685,24.737,17.064z"/>
	</g>
</g>
</svg>
