<?xml version="1.0" encoding="iso-8859-1"?>
<!-- Generator: Adobe Illustrator 15.1.0, SVG Export Plug-In . SVG Version: 6.00 Build 0)  -->
<!DOCTYPE svg PUBLIC "-//W3C//DTD SVG 1.1//EN" "http://www.w3.org/Graphics/SVG/1.1/DTD/svg11.dtd">
<svg version="1.1" xmlns="http://www.w3.org/2000/svg" xmlns:xlink="http://www.w3.org/1999/xlink" x="0px" y="0px" width="60px"
	 height="60px" viewBox="0 0 60 60" style="enable-background:new 0 0 60 60;" xml:space="preserve">
<symbol  id="FlashAICB_x5F_0_x2F_Layer_1_x2F__x3C_Path_x3E__x5F_10" viewBox="-0.002 -4.816 2.452 4.837">
	<g id="Layer_1_10_">
		<path style="fill-rule:evenodd;clip-rule:evenodd;fill:#FF5F30;" d="M2.45-1.05c0-0.934-0.05-1.817-0.15-2.65
			C2.233-4.533,1.817-4.9,1.05-4.8C0.317-4.733-0.033-4.3,0-3.5c0.033,0.667,0.233,1.4,0.6,2.2c0.3,0.667,0.55,1.05,0.75,1.15
			C2.083,0.25,2.45-0.05,2.45-1.05z"/>
	</g>
</symbol>
<symbol  id="FlashAICB_x5F_0_x2F_Layer_1_x2F__x3C_Path_x3E__x5F_11" viewBox="0 -0.69 4.344 0.64">
	<g id="Layer_1_9_">
		<path style="fill-rule:evenodd;clip-rule:evenodd;fill:#FF5F30;" d="M0.6-0.05c0.233,0,1.05-0.117,2.45-0.35
			c0.367,0.033,0.7,0.017,1-0.05C4.383-0.483,4.433-0.533,4.2-0.6C3.9-0.7,3.133-0.717,1.9-0.65C0.7-0.583,0.067-0.417,0-0.15
			C0-0.083,0.2-0.05,0.6-0.05z"/>
	</g>
</symbol>
<symbol  id="FlashAICB_x5F_0_x2F_Layer_1_x2F__x3C_Path_x3E__x5F_12" viewBox="0.086 -0.7 4.355 0.7">
	<g id="Layer_1_8_">
		<path style="fill-rule:evenodd;clip-rule:evenodd;fill:#FF5F30;" d="M0.1,0c0.133-0.067,0.517-0.15,1.15-0.25s1.2-0.15,1.7-0.15
			c1.433,0,1.833-0.067,1.2-0.2c-0.5-0.066-1.133-0.1-1.9-0.1C1.45-0.667,0.9-0.583,0.6-0.45C0.2-0.283,0.033-0.133,0.1,0z"/>
	</g>
</symbol>
<symbol  id="FlashAICB_x5F_0_x2F_Layer_1_x2F__x3C_Path_x3E__x5F_13" viewBox="0 -0.929 5.18 0.928">
	<g id="Layer_1_7_">
		<path style="fill-rule:evenodd;clip-rule:evenodd;fill:#FF5F30;" d="M1.2-0.15L3.9-0.4c1.067-0.1,1.467-0.217,1.2-0.35
			C4.733-0.917,3.667-0.967,1.9-0.9c-0.6,0-1.083,0.1-1.45,0.3C0.15-0.433,0-0.283,0-0.15C0,0.05,0.4,0.05,1.2-0.15z"/>
	</g>
</symbol>
<symbol  id="FlashAICB_x5F_0_x2F_Layer_1_x2F__x3C_Path_x3E__x5F_14" viewBox="-0.013 -1.068 10.563 1.068">
	<g id="Layer_1_6_">
		<path style="fill-rule:evenodd;clip-rule:evenodd;fill:#FF5F30;" d="M0.55-0.05C1.017-0.117,1.417-0.2,1.75-0.3
			c0.233-0.067,1.567-0.184,4-0.35c1.6-0.067,3.2,0.066,4.8,0.4L8.95-0.7C7.883-1,6.083-1.117,3.55-1.05
			C2.883-1.017,2.117-0.867,1.25-0.6C0.483-0.333,0.067-0.15,0-0.05C-0.067,0.017,0.117,0.017,0.55-0.05z"/>
	</g>
</symbol>
<symbol  id="FlashAICB_x5F_0_x2F_Layer_1_x2F__x3C_Path_x3E__x5F_15" viewBox="0 -1.617 9.391 1.632">
	<g id="Layer_1_5_">
		<path style="fill-rule:evenodd;clip-rule:evenodd;fill:#FF5F30;" d="M3.75-0.45c0.6-0.066,2.383-0.1,5.35-0.1
			c0.633,0,0.233-0.233-1.2-0.7C6.567-1.683,4.883-1.733,2.85-1.4c-0.667,0.133-1.333,0.367-2,0.7C0.283-0.4,0-0.183,0-0.05
			c0,0.1,0.267,0.083,0.8-0.05c0.467-0.1,0.833-0.2,1.1-0.3C2.2-0.467,2.817-0.483,3.75-0.45z"/>
	</g>
</symbol>
<symbol  id="FlashAICB_x5F_0_x2F_Layer_1_x2F__x3C_Path_x3E__x5F_16" viewBox="-0.003 -1.172 5.049 1.172">
	<g id="Layer_1_4_">
		<path style="fill-rule:evenodd;clip-rule:evenodd;fill:#FF5F30;" d="M2.2-0.15C2.833-0.183,3.483-0.267,4.15-0.4
			C4.883-0.567,5.167-0.733,5-0.9C4.733-1.133,3.867-1.217,2.4-1.15c-0.566,0.033-1.133,0.2-1.7,0.5C0.2-0.383-0.033-0.183,0-0.05
			c0.033,0.066,0.333,0.066,0.9,0C1.667-0.117,2.1-0.15,2.2-0.15z"/>
	</g>
</symbol>
<symbol  id="FlashAICB_x5F_0_x2F_Layer_1_x2F__x3C_Path_x3E__x5F_46" viewBox="0 -13.417 56.15 13.417">
	<g id="Layer_1_3_">
		
			<radialGradient id="SVGID_1_" cx="28.3501" cy="-13.7998" r="29.65" gradientTransform="matrix(1 0 0 -0.4376 0 -19.8389)" gradientUnits="userSpaceOnUse">
			<stop  offset="0" style="stop-color:#000000"/>
			<stop  offset="1" style="stop-color:#000000;stop-opacity:0"/>
		</radialGradient>
		<path style="fill-rule:evenodd;clip-rule:evenodd;fill:url(#SVGID_1_);" d="M56.15-12.45c0-0.566-3.066-0.883-9.2-0.95
			c-8.367,0.033-14.767,0.05-19.2,0.05C18.683-13.417,12.4-13.433,8.9-13.4C2.967-13.333,0-13.017,0-12.45
			c0,1.167,2.967,3.417,8.9,6.75C15.733-1.9,22.017,0,27.75,0c5.767,0,12.167-1.9,19.2-5.7C53.083-9.033,56.15-11.283,56.15-12.45z"
			/>
	</g>
</symbol>
<symbol  id="FlashAICB_x5F_0_x2F_Layer_1_x2F__x3C_Path_x3E__x5F_9" viewBox="-0.024 -1.85 4.885 1.85">
	<g id="Layer_1_11_">
		<path style="fill-rule:evenodd;clip-rule:evenodd;fill:#FF5F30;" d="M0.95,0c0.9,0,1.833-0.15,2.8-0.45
			c1.1-0.3,1.383-0.6,0.85-0.9c-0.567-0.333-1.3-0.5-2.2-0.5s-1.566,0.133-2,0.4C0-1.183-0.117-0.867,0.05-0.5
			C0.217-0.167,0.517,0,0.95,0z"/>
	</g>
</symbol>
<symbol  id="transparent_x5F_box_1_" viewBox="0 -50 50 50">
	<g id="Layer_1_2_">
		<polygon style="fill-rule:evenodd;clip-rule:evenodd;fill:#CCCCCC;" points="50,-50 0,-50 0,0 50,0 		"/>
	</g>
</symbol>
<g id="transparent_x5F_box">
	
		<use xlink:href="#transparent_x5F_box_1_"  width="50" height="50" y="-50" transform="matrix(1.2 0 0 -1.2 0 0)" style="overflow:visible;opacity:0;"/>
</g>
<g id="Layer_1">
	<g>
		
			<use xlink:href="#FlashAICB_x5F_0_x2F_Layer_1_x2F__x3C_Path_x3E__x5F_46"  width="56.15" height="13.417" y="-13.417" transform="matrix(1 0 0 -1 2 44.9502)" style="overflow:visible;opacity:0.7695;enable-background:new    ;"/>
		
			<radialGradient id="SVGID_2_" cx="30.4746" cy="57.1504" r="20.9533" gradientTransform="matrix(1 0 0 -0.2223 0 69.8543)" gradientUnits="userSpaceOnUse">
			<stop  offset="0" style="stop-color:#404040"/>
			<stop  offset="0.9922" style="stop-color:#201B1B"/>
		</radialGradient>
		<polygon style="fill-rule:evenodd;clip-rule:evenodd;fill:url(#SVGID_2_);" points="52.95,55.45 54.05,58 6.9,58 7.95,55.45 		"/>
		<path style="fill-rule:evenodd;clip-rule:evenodd;fill:#6B6B6B;" d="M51.7,55.45c0,0.066-2.117,0.133-6.351,0.2
			c-4.8,0.1-9.833,0.149-15.1,0.149c-4.867,0-9.967-0.05-15.3-0.149c-5.333-0.134-7.4-0.2-6.2-0.2l21.5-0.05
			C44.55,55.4,51.7,55.417,51.7,55.45z"/>
		
			<radialGradient id="SVGID_3_" cx="30.4248" cy="52.5" r="14.9953" gradientTransform="matrix(1 0 0 -1 0 105)" gradientUnits="userSpaceOnUse">
			<stop  offset="0" style="stop-color:#811C03"/>
			<stop  offset="0.2431" style="stop-color:#861D03"/>
			<stop  offset="0.498" style="stop-color:#942104"/>
			<stop  offset="0.7569" style="stop-color:#AB2806"/>
			<stop  offset="1" style="stop-color:#C93008"/>
		</radialGradient>
		<polygon style="fill-rule:evenodd;clip-rule:evenodd;fill:url(#SVGID_3_);" points="50,54.4 11.35,54.6 9.3,53.65 13,50.4 
			47.3,50.4 51.55,53.65 		"/>
		
			<radialGradient id="SVGID_4_" cx="30.4746" cy="54.7998" r="20.0158" gradientTransform="matrix(1 0 0 -0.0643 0 58.3209)" gradientUnits="userSpaceOnUse">
			<stop  offset="0" style="stop-color:#C93008"/>
			<stop  offset="0.9922" style="stop-color:#480B01"/>
		</radialGradient>
		<polygon style="fill-rule:evenodd;clip-rule:evenodd;fill:url(#SVGID_4_);" points="51.55,53.65 52.95,55.4 8,55.4 9.3,53.65 		
			"/>
		<path style="fill-rule:evenodd;clip-rule:evenodd;fill:#F65F3D;" d="M47.1,53.7c0,0.066-1.533,0.166-4.6,0.3
			c-3.667,0.134-7.517,0.2-11.55,0.2c-3.967,0-7.884-0.084-11.75-0.25c-3.867-0.167-5.333-0.25-4.4-0.25
			c0.267,0,5.65-0.033,16.15-0.101C41.717,53.6,47.1,53.634,47.1,53.7z"/>
		
			<linearGradient id="SVGID_5_" gradientUnits="userSpaceOnUse" x1="29.7437" y1="38.9629" x2="52.3262" y2="38.9629" gradientTransform="matrix(0.9665 0.2568 -0.2568 0.9665 -6.079674e-006 4.982948e-004)">
			<stop  offset="0" style="stop-color:#C94C52"/>
			<stop  offset="0.0431" style="stop-color:#B84147"/>
			<stop  offset="0.1843" style="stop-color:#862026"/>
			<stop  offset="0.3098" style="stop-color:#60050E"/>
			<stop  offset="0.4157" style="stop-color:#480004"/>
			<stop  offset="0.4863" style="stop-color:#3F0002"/>
			<stop  offset="0.5647" style="stop-color:#450003"/>
			<stop  offset="0.6627" style="stop-color:#570008"/>
			<stop  offset="0.7686" style="stop-color:#73131A"/>
			<stop  offset="0.8824" style="stop-color:#992D33"/>
			<stop  offset="1" style="stop-color:#C94C51"/>
			<stop  offset="1" style="stop-color:#C94C52"/>
		</linearGradient>
		<polygon style="fill-rule:evenodd;clip-rule:evenodd;fill:url(#SVGID_5_);" points="47.45,48.2 42.75,50.85 30.4,50.2 
			18.05,50.85 13.35,48.2 19,45.7 41.85,45.7 		"/>
		
			<radialGradient id="SVGID_6_" cx="30.4004" cy="51.5498" r="16.7125" gradientTransform="matrix(1 0 0 -0.2221 0 63.001)" gradientUnits="userSpaceOnUse">
			<stop  offset="0" style="stop-color:#C93008"/>
			<stop  offset="0.9922" style="stop-color:#480B01"/>
		</radialGradient>
		<polygon style="fill-rule:evenodd;clip-rule:evenodd;fill:url(#SVGID_6_);" points="47.45,48.25 49.15,53.2 11.65,53.2 
			13.35,48.25 		"/>
		
			<radialGradient id="SVGID_7_" cx="22.1499" cy="46.9004" r="2.7625" gradientTransform="matrix(-1 0 0 -0.2624 44.2998 59.2091)" gradientUnits="userSpaceOnUse">
			<stop  offset="0" style="stop-color:#000000;stop-opacity:0.5882"/>
			<stop  offset="0.8588" style="stop-color:#000000;stop-opacity:0.3059"/>
			<stop  offset="1" style="stop-color:#000000;stop-opacity:0"/>
		</radialGradient>
		<path style="fill-rule:evenodd;clip-rule:evenodd;fill:url(#SVGID_7_);" d="M22.2,46.05c0.866,0,1.583,0.084,2.15,0.25
			c0.6,0.167,0.9,0.367,0.9,0.601s-0.3,0.416-0.9,0.55c-0.567,0.166-1.284,0.25-2.15,0.25c-0.867,0-1.6-0.084-2.2-0.25
			c-0.6-0.134-0.9-0.316-0.9-0.55s0.3-0.434,0.9-0.601C20.6,46.134,21.333,46.05,22.2,46.05z"/>
		<path style="fill-rule:evenodd;clip-rule:evenodd;fill:#F65F3D;" d="M47.1,48.3c0,0.066-1.6,0.15-4.8,0.25
			c-3.666,0.134-7.434,0.2-11.3,0.2c-3.667,0-7.5-0.066-11.5-0.2c-4-0.166-5.567-0.25-4.7-0.25c0.267,0.033,5.65,0,16.15-0.1
			C41.717,48.2,47.1,48.233,47.1,48.3z"/>
		
			<radialGradient id="SVGID_8_" cx="30.4248" cy="48.2002" r="12.0555" gradientTransform="matrix(1 0 0 -1.1495 0 103.6079)" gradientUnits="userSpaceOnUse">
			<stop  offset="0" style="stop-color:#300001"/>
			<stop  offset="0.9922" style="stop-color:#240000"/>
		</radialGradient>
		<rect x="13.4" y="48" style="fill-rule:evenodd;clip-rule:evenodd;fill:url(#SVGID_8_);" width="34.05" height="0.4"/>
		<linearGradient id="SVGID_9_" gradientUnits="userSpaceOnUse" x1="14.9502" y1="44.9746" x2="45.9004" y2="44.9746">
			<stop  offset="0" style="stop-color:#EFDFB7"/>
			<stop  offset="0.5882" style="stop-color:#B99F76"/>
			<stop  offset="1" style="stop-color:#FADDC3"/>
		</linearGradient>
		<polygon style="fill-rule:evenodd;clip-rule:evenodd;fill:url(#SVGID_9_);" points="45.9,46.6 41.65,47.35 19.2,47.35 14.95,46.6 
			20.05,42.6 40.8,42.6 		"/>
		<linearGradient id="SVGID_10_" gradientUnits="userSpaceOnUse" x1="13.3999" y1="47.2998" x2="47.4502" y2="47.2998">
			<stop  offset="0" style="stop-color:#D9B886"/>
			<stop  offset="0.1255" style="stop-color:#DBBB8B"/>
			<stop  offset="0.2745" style="stop-color:#E4C49A"/>
			<stop  offset="0.4353" style="stop-color:#F2D3B3"/>
			<stop  offset="0.5216" style="stop-color:#FADDC3"/>
			<stop  offset="1" style="stop-color:#D9B886"/>
		</linearGradient>
		<polygon style="fill-rule:evenodd;clip-rule:evenodd;fill:url(#SVGID_10_);" points="45.9,46.6 47.45,48 13.4,48 14.95,46.6 		"/>
		
			<radialGradient id="SVGID_11_" cx="30.7998" cy="43.9004" r="9.8625" gradientTransform="matrix(-1 0 0 -0.2484 61.5996 54.8059)" gradientUnits="userSpaceOnUse">
			<stop  offset="0" style="stop-color:#000000"/>
			<stop  offset="0.9137" style="stop-color:#000000;stop-opacity:0.1961"/>
			<stop  offset="1" style="stop-color:#000000;stop-opacity:0"/>
		</radialGradient>
		<path style="fill-rule:evenodd;clip-rule:evenodd;fill:url(#SVGID_11_);" d="M22.95,41.85c2.167-0.533,4.783-0.8,7.85-0.8
			c3.033,0,5.634,0.267,7.8,0.8c2.167,0.534,3.25,1.184,3.25,1.95s-1.083,1.434-3.25,2c-2.133,0.533-4.733,0.8-7.8,0.8
			s-5.683-0.267-7.85-0.8c-2.134-0.566-3.2-1.233-3.2-2S20.816,42.384,22.95,41.85z"/>
		
			<radialGradient id="SVGID_12_" cx="27.8501" cy="40.6504" r="11.1125" gradientTransform="matrix(1 0 0 -0.7132 0 69.6407)" gradientUnits="userSpaceOnUse">
			<stop  offset="0" style="stop-color:#C93008"/>
			<stop  offset="0.9922" style="stop-color:#480B01"/>
		</radialGradient>
		<path style="fill-rule:evenodd;clip-rule:evenodd;fill:url(#SVGID_12_);" d="M30.2,45.6c-2.467,0-4.517-0.267-6.15-0.8
			c-1.433-0.5-2.15-0.983-2.15-1.45v-5.1l1.15-0.8c0.367-0.267,1.517-0.4,3.45-0.4c0.767,0,1.417-0.083,1.95-0.25l1.75,0.351
			l1.75-0.351l1.95,0.25c1.933,0,3.083,0.134,3.449,0.4l1.15,0.8v5.1c0,0.5-0.7,0.983-2.1,1.45C34.733,45.333,32.667,45.6,30.2,45.6
			z"/>
		<path style="fill-rule:evenodd;clip-rule:evenodd;fill:#4A0D02;" d="M37.3,37.85c0,0.467-0.649,0.884-1.95,1.25
			c-1.3,0.334-2.866,0.5-4.699,0.5c-1.834,0-3.4-0.166-4.7-0.5c-1.3-0.366-1.95-0.783-1.95-1.25c0-0.5,0.65-0.916,1.95-1.25
			c1.3-0.366,2.866-0.55,4.7-0.55c1.833,0,3.399,0.184,4.699,0.55C36.65,36.934,37.3,37.35,37.3,37.85z"/>
		
			<radialGradient id="SVGID_13_" cx="27.8501" cy="35.0498" r="10.675" gradientTransform="matrix(1 0 0 -0.8326 0 64.2306)" gradientUnits="userSpaceOnUse">
			<stop  offset="0" style="stop-color:#C93008"/>
			<stop  offset="0.9725" style="stop-color:#480B01"/>
		</radialGradient>
		<path style="fill-rule:evenodd;clip-rule:evenodd;fill:url(#SVGID_13_);" d="M38.2,36.05c0,0.867-0.783,1.584-2.351,2.15
			C34.316,38.8,32.434,39.1,30.2,39.1c-2.2,0-4.083-0.3-5.65-0.899c-1.566-0.601-2.35-1.316-2.35-2.15c0-0.833,0.783-1.566,2.35-2.2
			c1.567-0.6,3.45-0.899,5.65-0.899c2.233,0,4.116,0.3,5.649,0.899C37.417,34.45,38.2,35.184,38.2,36.05z"/>
		<path style="fill-rule:evenodd;clip-rule:evenodd;fill:#4A0D02;" d="M36.5,34.35c0,0.5-0.583,0.934-1.75,1.301
			c-1.2,0.366-2.616,0.55-4.25,0.55c-1.633,0-3.033-0.184-4.2-0.55c-1.167-0.367-1.75-0.801-1.75-1.301s0.583-0.933,1.75-1.3
			c1.167-0.366,2.567-0.55,4.2-0.55c1.634,0,3.05,0.184,4.25,0.55C35.917,33.417,36.5,33.85,36.5,34.35z"/>
		
			<radialGradient id="SVGID_14_" cx="28" cy="31.9004" r="9.1625" gradientTransform="matrix(1 0 0 -0.8772 0 59.884)" gradientUnits="userSpaceOnUse">
			<stop  offset="0" style="stop-color:#C93008"/>
			<stop  offset="0.9922" style="stop-color:#480B01"/>
		</radialGradient>
		<path style="fill-rule:evenodd;clip-rule:evenodd;fill:url(#SVGID_14_);" d="M37.35,32.95c0,0.8-0.699,1.483-2.1,2.05
			s-3.083,0.85-5.05,0.85s-3.65-0.283-5.05-0.85s-2.1-1.25-2.1-2.05s0.7-1.483,2.1-2.05c1.4-0.567,3.083-0.851,5.05-0.851
			s3.649,0.283,5.05,0.851C36.65,31.467,37.35,32.15,37.35,32.95z"/>
		<path style="fill-rule:evenodd;clip-rule:evenodd;fill:#4A0D02;" d="M36.2,31.25c0,0.566-0.566,1.066-1.7,1.5
			c-1.134,0.4-2.5,0.6-4.1,0.6c-1.634,0-3.017-0.199-4.15-0.6c-1.133-0.434-1.7-0.934-1.7-1.5s0.567-1.066,1.7-1.5
			c1.133-0.4,2.517-0.6,4.15-0.6c1.6,0,2.966,0.2,4.1,0.6C35.634,30.184,36.2,30.684,36.2,31.25z"/>
		<linearGradient id="SVGID_15_" gradientUnits="userSpaceOnUse" x1="19.9873" y1="24.0752" x2="37.3123" y2="24.0752">
			<stop  offset="0" style="stop-color:#982104"/>
			<stop  offset="0.3686" style="stop-color:#AF2806"/>
			<stop  offset="0.8902" style="stop-color:#460A01"/>
		</linearGradient>
		<path style="fill-rule:evenodd;clip-rule:evenodd;fill:url(#SVGID_15_);" d="M25.6,20.1c0.466-0.8,0.417-1.783-0.15-2.95l-1-1.5
			l1.35-0.1c0.934-0.133,1.517-0.267,1.75-0.4l0.05-0.05c0.833,0.6,1.716,0.9,2.65,0.9c0.967,0,1.816-0.283,2.55-0.85h0.05
			c0.367,0.233,1.4,0.4,3.101,0.5l-1,1.5c-0.566,1.167-0.617,2.15-0.15,2.95c2,3.367,2.917,6.083,2.75,8.15
			c-0.1,1.533-0.8,2.717-2.1,3.55c-1.2,0.767-2.816,1.184-4.851,1.25h-0.8c-2.033-0.066-3.65-0.483-4.85-1.25
			c-1.3-0.833-2-2.017-2.1-3.55C22.683,26.183,23.6,23.467,25.6,20.1z"/>
		
			<linearGradient id="SVGID_16_" gradientUnits="userSpaceOnUse" x1="-22.6226" y1="35.043" x2="-8.9749" y2="35.043" gradientTransform="matrix(0.2162 -0.9764 0.9764 0.2162 4.731417e-004 -1.355708e-004)">
			<stop  offset="0" style="stop-color:#B52906;stop-opacity:0"/>
			<stop  offset="1" style="stop-color:#460A01"/>
		</linearGradient>
		<path style="fill-rule:evenodd;clip-rule:evenodd;fill:url(#SVGID_16_);" d="M25.6,20.1c0.466-0.8,0.417-1.783-0.15-2.95l-1-1.5
			l1.35-0.1c0.934-0.133,1.517-0.267,1.75-0.4l0.05-0.05c0.833,0.6,1.716,0.9,2.65,0.9c0.967,0,1.816-0.283,2.55-0.85h0.05
			c0.367,0.233,1.4,0.4,3.101,0.5l-1,1.5c-0.566,1.167-0.617,2.15-0.15,2.95c2,3.367,2.917,6.083,2.75,8.15
			c-0.1,1.533-0.8,2.717-2.1,3.55c-1.2,0.767-2.816,1.184-4.851,1.25h-0.8c-2.033-0.066-3.65-0.483-4.85-1.25
			c-1.3-0.833-2-2.017-2.1-3.55C22.683,26.183,23.6,23.467,25.6,20.1z"/>
		
			<radialGradient id="SVGID_17_" cx="27.75" cy="13.6001" r="9.2875" gradientTransform="matrix(1 0 0 -0.8223 0 24.784)" gradientUnits="userSpaceOnUse">
			<stop  offset="0" style="stop-color:#C93008"/>
			<stop  offset="0.9922" style="stop-color:#480B01"/>
		</radialGradient>
		<path style="fill-rule:evenodd;clip-rule:evenodd;fill:url(#SVGID_17_);" d="M37.35,14.5c0,0.767-0.699,1.4-2.1,1.9
			c-1.4,0.533-3.083,0.8-5.05,0.8s-3.65-0.267-5.05-0.8c-1.4-0.5-2.1-1.133-2.1-1.9s0.7-1.417,2.1-1.95
			c1.4-0.533,3.083-0.8,5.05-0.8s3.649,0.267,5.05,0.8C36.65,13.083,37.35,13.733,37.35,14.5z"/>
		<path style="fill-rule:evenodd;clip-rule:evenodd;fill:#4A0D02;" d="M36.35,13.35c0,0.6-0.583,1.117-1.75,1.55
			c-1.199,0.4-2.649,0.6-4.35,0.6c-1.667,0-3.1-0.2-4.3-0.6c-1.2-0.433-1.8-0.95-1.8-1.55s0.6-1.1,1.8-1.5
			c1.2-0.434,2.633-0.65,4.3-0.65c1.7,0,3.15,0.216,4.35,0.65C35.767,12.25,36.35,12.75,36.35,13.35z"/>
		
			<radialGradient id="SVGID_18_" cx="28.2002" cy="12.6499" r="8.025" gradientTransform="matrix(1 0 0 -0.7134 0 21.6743)" gradientUnits="userSpaceOnUse">
			<stop  offset="0" style="stop-color:#C93008"/>
			<stop  offset="0.9922" style="stop-color:#480B01"/>
		</radialGradient>
		<path style="fill-rule:evenodd;clip-rule:evenodd;fill:url(#SVGID_18_);" d="M36.25,13.3c0,0.567-0.583,1.034-1.75,1.4
			c-1.2,0.4-2.634,0.6-4.3,0.6c-1.667,0-3.1-0.2-4.3-0.6c-1.167-0.367-1.75-0.833-1.75-1.4c0-0.533,0.583-1,1.75-1.4
			c1.2-0.4,2.633-0.6,4.3-0.6c1.666,0,3.1,0.2,4.3,0.6C35.667,12.3,36.25,12.767,36.25,13.3z"/>
		<path style="fill-rule:evenodd;clip-rule:evenodd;fill:#4A0D02;" d="M36,12.9c0,0.467-0.55,0.85-1.65,1.15
			c-1.133,0.333-2.466,0.5-4,0.5c-1.533,0-2.85-0.167-3.95-0.5c-1.1-0.3-1.65-0.683-1.65-1.15s0.55-0.867,1.65-1.2
			c1.067-0.333,2.383-0.5,3.95-0.5c1.567,0,2.9,0.167,4,0.5C35.45,12.033,36,12.433,36,12.9z"/>
		
			<radialGradient id="SVGID_19_" cx="28.3501" cy="11.7002" r="9" gradientTransform="matrix(1 0 0 -0.7139 0 20.0528)" gradientUnits="userSpaceOnUse">
			<stop  offset="0" style="stop-color:#C93008"/>
			<stop  offset="0.9922" style="stop-color:#480B01"/>
		</radialGradient>
		<path style="fill-rule:evenodd;clip-rule:evenodd;fill:url(#SVGID_19_);" d="M36.25,12.3c0,0.567-0.583,1.034-1.75,1.4
			c-1.2,0.4-2.634,0.6-4.3,0.6c-1.667,0-3.1-0.2-4.3-0.6c-1.167-0.367-1.75-0.833-1.75-1.4c0-0.533,0.583-1,1.75-1.4
			c1.2-0.4,2.633-0.6,4.3-0.6c1.666,0,3.1,0.2,4.3,0.6C35.667,11.3,36.25,11.767,36.25,12.3z"/>
		<path style="fill-rule:evenodd;clip-rule:evenodd;fill:#4A0D02;" d="M35.3,11.9c-0.033,0.4-0.55,0.717-1.55,0.95
			c-0.967,0.267-2.15,0.383-3.55,0.35c-1.4-0.034-2.583-0.217-3.55-0.55c-1-0.333-1.483-0.7-1.45-1.1c0-0.4,0.5-0.716,1.5-0.95
			c0.966-0.267,2.15-0.383,3.55-0.35c1.4,0.067,2.6,0.25,3.6,0.55C34.816,11.133,35.3,11.5,35.3,11.9z"/>
		
			<radialGradient id="SVGID_20_" cx="29.8501" cy="5.3501" r="12.3" gradientTransform="matrix(1 0 0 -0.7134 0 9.1669)" gradientUnits="userSpaceOnUse">
			<stop  offset="0" style="stop-color:#DF370A"/>
			<stop  offset="0.6627" style="stop-color:#721802"/>
			<stop  offset="1" style="stop-color:#902104"/>
		</radialGradient>
		<path style="fill-rule:evenodd;clip-rule:evenodd;fill:url(#SVGID_20_);" d="M38.85,7.15c0,1.567-0.833,2.917-2.5,4.05
			c-1.699,1.1-3.75,1.65-6.149,1.65c-2.367,0-4.4-0.55-6.1-1.65c-1.7-1.133-2.55-2.483-2.55-4.05c0-1.533,0.85-2.867,2.55-4
			c1.7-1.1,3.733-1.65,6.1-1.65c2.399,0,4.45,0.55,6.149,1.65C38.017,4.25,38.85,5.583,38.85,7.15z"/>
		
			<use xlink:href="#FlashAICB_x5F_0_x2F_Layer_1_x2F__x3C_Path_x3E__x5F_16"  width="5.049" height="1.172" x="-0.003" y="-1.172" transform="matrix(1 0 0 -1 26.0498 33.2998)" style="overflow:visible;opacity:0.2891;enable-background:new    ;"/>
		
			<use xlink:href="#FlashAICB_x5F_0_x2F_Layer_1_x2F__x3C_Path_x3E__x5F_15"  width="9.391" height="1.632" y="-1.617" transform="matrix(1 0 0 -1 24.7002 36.0498)" style="overflow:visible;opacity:0.2891;enable-background:new    ;"/>
		
			<use xlink:href="#FlashAICB_x5F_0_x2F_Layer_1_x2F__x3C_Path_x3E__x5F_14"  width="10.563" height="1.068" x="-0.013" y="-1.068" transform="matrix(1 0 0 -1 24.3999 39)" style="overflow:visible;opacity:0.2891;enable-background:new    ;"/>
		
			<use xlink:href="#FlashAICB_x5F_0_x2F_Layer_1_x2F__x3C_Path_x3E__x5F_13"  width="5.18" height="0.928" y="-0.929" transform="matrix(1 0 0 -1 26.3501 15.4502)" style="overflow:visible;opacity:0.2891;enable-background:new    ;"/>
		
			<use xlink:href="#FlashAICB_x5F_0_x2F_Layer_1_x2F__x3C_Path_x3E__x5F_12"  width="4.355" height="0.7" x="0.086" y="-0.7" transform="matrix(1 0 0 -1 26.75 14.2998)" style="overflow:visible;opacity:0.2891;enable-background:new    ;"/>
		
			<use xlink:href="#FlashAICB_x5F_0_x2F_Layer_1_x2F__x3C_Path_x3E__x5F_11"  width="4.344" height="0.64" y="-0.69" transform="matrix(1 0 0 -1 26.3999 12.9502)" style="overflow:visible;opacity:0.2891;enable-background:new    ;"/>
		
			<use xlink:href="#FlashAICB_x5F_0_x2F_Layer_1_x2F__x3C_Path_x3E__x5F_10"  width="2.452" height="4.837" x="-0.002" y="-4.816" transform="matrix(1 0 0 -1 25.25 21.9502)" style="overflow:visible;opacity:0.2891;enable-background:new    ;"/>
		
			<use xlink:href="#FlashAICB_x5F_0_x2F_Layer_1_x2F__x3C_Path_x3E__x5F_9"  width="4.885" height="1.85" x="-0.024" y="-1.85" transform="matrix(1 0 0 -1 26.3999 4.5498)" style="overflow:visible;opacity:0.2891;enable-background:new    ;"/>
		<path style="fill-rule:evenodd;clip-rule:evenodd;fill:#FAAE9B;" d="M28.35,5.05c0.8,0.133,1,0.333,0.6,0.6
			c-0.434,0.267-0.817,0.3-1.15,0.1c-0.267-0.133-0.316-0.3-0.15-0.5S28.05,4.983,28.35,5.05z"/>
		<path style="fill-rule:evenodd;clip-rule:evenodd;fill:#FAAE9B;" d="M26.55,39.4c1.333,0.267,3,0.383,5,0.35L30.8,39.9
			c-0.633,0.1-1.75,0.066-3.35-0.101c-0.7-0.066-1.083-0.149-1.15-0.25C26.2,39.417,26.283,39.366,26.55,39.4z"/>
		<path style="fill-rule:evenodd;clip-rule:evenodd;fill:#FAAE9B;" d="M28.45,36.8c0.466,0,0.816,0.084,1.05,0.25
			c0.2,0.167,0.183,0.283-0.05,0.351c-0.233,0.066-0.534,0.083-0.9,0.05c-0.4-0.033-0.716-0.117-0.95-0.25
			c-0.233-0.101-0.233-0.184,0-0.25C27.833,36.85,28.117,36.8,28.45,36.8z"/>
		<path style="fill-rule:evenodd;clip-rule:evenodd;fill:#FAAE9B;" d="M28.05,33.65c0.667,0.1,1,0.216,1,0.35
			c0,0.066-0.1,0.116-0.3,0.15c-0.233,0.033-0.5,0.017-0.8-0.051c-0.3-0.1-0.45-0.199-0.45-0.3
			C27.533,33.667,27.717,33.616,28.05,33.65z"/>
		<path style="fill-rule:evenodd;clip-rule:evenodd;fill:#FAAE9B;" d="M27.6,15.7c0.367,0.033,0.583,0.117,0.65,0.25
			c0.066,0.1,0.033,0.183-0.1,0.25c-0.1,0.1-0.367,0.05-0.8-0.15c-0.167-0.066-0.233-0.15-0.2-0.25
			C27.217,15.7,27.367,15.667,27.6,15.7z"/>
		<path style="fill-rule:evenodd;clip-rule:evenodd;fill:#FAAE9B;" d="M27.7,14.45c0.066,0.033,0.25,0.083,0.55,0.15
			c0.2,0.033,0.283,0.083,0.25,0.15c-0.067,0.2-0.383,0.183-0.95-0.05c-0.167-0.067-0.233-0.15-0.2-0.25
			C27.383,14.35,27.5,14.35,27.7,14.45z"/>
		<path style="fill-rule:evenodd;clip-rule:evenodd;fill:#FAAE9B;" d="M27.6,13.1c0.2,0,0.45,0.05,0.75,0.15
			c0.3,0.1,0.4,0.183,0.3,0.25c-0.2,0.2-0.533,0.183-1-0.05c-0.2-0.1-0.3-0.184-0.3-0.25C27.383,13.133,27.467,13.1,27.6,13.1z"/>
		<path style="fill-rule:evenodd;clip-rule:evenodd;fill:#FAAE9B;" d="M26.8,22.4c0.5-0.033,0.65,0.483,0.45,1.55
			c-0.033,0.267-0.233,0.367-0.6,0.3c-0.333-0.067-0.5-0.2-0.5-0.4c0-0.267,0.05-0.55,0.15-0.85
			C26.433,22.633,26.6,22.433,26.8,22.4z"/>
		<path style="fill-rule:evenodd;clip-rule:evenodd;fill:#FAAE9B;" d="M26.2,24.4c0.1,0.434,0.05,0.633-0.15,0.6
			c-0.133-0.033-0.167-0.15-0.1-0.35C25.983,24.45,26.066,24.367,26.2,24.4z"/>
	</g>
</g>
</svg>
