<?xml version="1.0" encoding="iso-8859-1"?>
<!-- Generator: Adobe Illustrator 15.1.0, SVG Export Plug-In . SVG Version: 6.00 Build 0)  -->
<!DOCTYPE svg PUBLIC "-//W3C//DTD SVG 1.1//EN" "http://www.w3.org/Graphics/SVG/1.1/DTD/svg11.dtd">
<svg version="1.1" xmlns="http://www.w3.org/2000/svg" xmlns:xlink="http://www.w3.org/1999/xlink" x="0px" y="0px" width="171.8px"
	 height="172.35px" viewBox="0 0 171.8 172.35" style="enable-background:new 0 0 171.8 172.35;" xml:space="preserve">
<symbol  id="BG_x2F_bg_navy" viewBox="0 -134 134 134">
	<g id="Layer_1_14_">
		<g>
			<g>
				
					<linearGradient id="SVGID_1_" gradientUnits="userSpaceOnUse" x1="16086.8398" y1="-64.9141" x2="16219.2402" y2="-64.9141" gradientTransform="matrix(7.555724e-006 1 -1 -0.001 1.939 -16220.1055)">
					<stop  offset="0.098" style="stop-color:#293556"/>
					<stop  offset="0.3961" style="stop-color:#3F5789"/>
					<stop  offset="0.5529" style="stop-color:#49669F"/>
					<stop  offset="0.9686" style="stop-color:#A8A3B4"/>
				</linearGradient>
				<path style="fill-rule:evenodd;clip-rule:evenodd;fill:url(#SVGID_1_);" d="M133.15-67c0-18.267-6.467-33.867-19.4-46.8
					c-12.933-12.934-28.517-19.4-46.75-19.4c-18.267,0-33.867,6.467-46.8,19.4C7.267-100.867,0.8-85.267,0.8-67
					s6.467,33.867,19.4,46.8C33.133-7.267,48.733-0.8,67-0.8c18.233,0,33.817-6.467,46.75-19.4
					C126.683-33.133,133.15-48.733,133.15-67z"/>
				<path style="fill-rule:evenodd;clip-rule:evenodd;fill:#121937;" d="M67-1.65c-18.033,0-33.434-6.383-46.2-19.15
					S1.65-48.967,1.65-67c0-18.066,6.383-33.467,19.15-46.2c12.767-12.767,28.167-19.15,46.2-19.15
					c18.066,0,33.467,6.383,46.2,19.15c12.767,12.733,19.15,28.134,19.15,46.2c0,18.033-6.383,33.434-19.15,46.2
					C100.467-8.033,85.066-1.65,67-1.65z M5.05-92.65C1.683-84.517,0-75.967,0-67s1.683,17.517,5.05,25.65
					c3.367,8.167,8.217,15.417,14.55,21.75c6.333,6.333,13.583,11.184,21.75,14.55C49.483-1.684,58.033,0,67,0
					s17.517-1.684,25.65-5.05c8.133-3.367,15.367-8.217,21.7-14.55c6.333-6.333,11.184-13.583,14.55-21.75
					c3.4-8.167,5.1-16.716,5.1-25.65s-1.7-17.483-5.1-25.65c-3.367-8.133-8.217-15.383-14.55-21.75
					c-6.333-6.333-13.566-11.184-21.7-14.55C84.517-132.316,75.967-134,67-134s-17.517,1.684-25.65,5.05
					c-8.167,3.367-15.417,8.217-21.75,14.55C13.267-108.066,8.417-100.816,5.05-92.65z"/>
			</g>
			
				<use xlink:href="#zzz_x5F_miscellaneous_x2F_FlashAICB_copy_2_x2F_Layer_1_x2F__x3C_Path_x3E__x5F_2"  width="118.85" height="118.7" y="-118.7" transform="matrix(1 0 0 1 7.6001 -5.5)" style="overflow:visible;opacity:0.9102;enable-background:new    ;"/>
		</g>
	</g>
</symbol>
<symbol  id="SIDE_x5F_DECOR" viewBox="0.01 -60.2 177.48 60.2">
	<g id="Layer_1_16_">
		<use xlink:href="#SIDE_x5F_DECOR_x5F_01"  width="45.736" height="60.2" x="0.01" y="-60.2" style="overflow:visible;"/>
		
			<use xlink:href="#SIDE_x5F_DECOR_x5F_01"  width="45.736" height="60.2" x="0.01" y="-60.2" transform="matrix(-1 0 0 1 177.5 0)" style="overflow:visible;"/>
	</g>
</symbol>
<symbol  id="SIDE_x5F_DECOR_x5F_01" viewBox="0.01 -60.2 45.736 60.2">
	<g id="Layer_1_10_">
		<path style="fill-rule:evenodd;clip-rule:evenodd;fill:#5C5942;" d="M21.55-19h0.1l0.4-0.3c3.333-2.4,5.767-6.167,7.3-11.3
			c0.5-2.033,0.733-4.217,0.7-6.55l0.7,0.55c0.533,0.3,1.133,0.434,1.8,0.4l-0.05-0.1l0.45-0.2c3.9-1.833,7.35-5.333,10.35-10.5
			c1.267-2.233,2.067-4.367,2.4-6.4c0.233-2.7-0.417-4.833-1.95-6.4c-0.633-0.267-1.3-0.4-2-0.4l-0.1,0.2
			c-2.867-0.2-5.9,0.15-9.1,1.05c-3.367,1.067-6.25,2.583-8.65,4.55c-2,1.633-3.433,3.55-4.3,5.75c-1.333,2.6-1.333,4.816,0,6.65
			l0.25,0.05c-4.833,1.434-8.583,3.85-11.25,7.25c-1.533,1.934-2.483,3.95-2.85,6.05c-0.367,2.8,0.35,4.933,2.15,6.4
			c0.233,0.3,0.767,0.45,1.6,0.45H10c-4.767,2.2-7.933,5.5-9.5,9.9c-0.133,0.833-0.267,1.633-0.4,2.4c-0.2,1.3-0.067,2.517,0.4,3.65
			C1-3.217,2.35-1.383,4.55-0.35c0.633,0.2,1.167,0.217,1.6,0.05h0.3l0.3-0.3c1.2-0.5,2.4-1.5,3.6-3c2.066,2.2,4.333,3.4,6.8,3.6
			l0.8-0.2l0.8-0.5c1.3-1.767,2.133-3.8,2.5-6.1c0.133-1.767,0.067-3.767-0.2-6c0-2.267-0.566-4.417-1.7-6.45l0.7,0.35
			c0.167,0.2,0.65,0.217,1.45,0.05L21.55-19z M16.25-26.35c-2.333,1.5-4.617,2.5-6.85,3c-0.033,0.1-0.117,0.133-0.25,0.1
			c-1.333-0.967-1.833-2.617-1.5-4.95c0.333-1.933,1.133-3.783,2.4-5.55c1.733-2,3.95-3.733,6.65-5.2c2.633-1.3,5.283-2.1,7.95-2.4
			c-0.8,0.267-1.45,0.517-1.95,0.75c0.4-0.133,0.816-0.283,1.25-0.45H24c0.167-0.067,0.367-0.117,0.6-0.15l0.15,0.05v0.1
			c0.067-0.034,0.183-0.083,0.35-0.15h0.05c0.067-0.033,0.133-0.066,0.2-0.1v-0.1c0.1,0.033,0.183,0.083,0.25,0.15
			c0.333,0.2,0.65,0.417,0.95,0.65c0.867,0.867,1.417,2.133,1.65,3.8c0.2,1.966-0.05,3.883-0.75,5.75c-1.4,4.9-3.6,8.466-6.6,10.7
			c-0.033-0.2-0.017-0.5,0.05-0.9c-0.2,0.4-0.3,0.767-0.3,1.1c-1.733-0.533-3-1.934-3.8-4.2C16.433-25.117,16.25-25.783,16.25-26.35
			z M13.45-21.65l0.05-0.05c0.033-0.033,0.05-0.066,0.05-0.1l0.05-0.05c0.033,0.033,0.066,0.033,0.1,0h0.05
			c1.733,0.5,3.1,1.783,4.1,3.85c0.867,1.667,1.383,3.383,1.55,5.15c0.2,2.3,0.217,4.267,0.05,5.9
			c-0.233,2.233-0.917,4.083-2.05,5.55c-0.097-0.032-0.147-0.141-0.15-0.325C17.249-1.539,17.232-1.397,17.2-1.3
			c-1.934-0.267-3.6-1.3-5-3.1c-0.633-0.467-1.083-1.033-1.35-1.7c-1.667,2-3.383,3.5-5.15,4.5l0.05-0.15l-0.2,0.2
			C3.85-2.25,2.733-3.667,2.2-5.8C1.967-6.967,1.883-8.15,1.95-9.35c0-0.733,0.083-1.433,0.25-2.1c0.6-2.2,1.933-4.167,4-5.9
			c1.767-1.8,4.183-3.267,7.25-4.4V-21.65z M29-45c-2.467,1.5-4.95,2.3-7.45,2.4c0.067-0.033,0.184-0.133,0.35-0.3
			c-0.3,0.033-0.467,0.066-0.5,0.1c-1.2-1.367-1.267-3.133-0.2-5.3c0.867-1.833,2.2-3.6,4-5.3c2.2-1.8,4.816-3.184,7.85-4.15
			c2.8-0.9,5.7-1.284,8.7-1.15l-0.05,0.2c0.1-0.033,0.267-0.1,0.5-0.2c-0.2,0.1-0.35,0.217-0.45,0.35
			c0.333,0.067,0.567-0.066,0.7-0.4c1.267,1.167,1.75,2.967,1.45,5.4c-0.4,2.1-1.133,3.95-2.2,5.55c-2.7,5.1-5.983,8.433-9.85,10
			c-1.633-0.867-2.5-2.483-2.6-4.85C29.183-43.35,29.1-44.133,29-45z"/>
		<path style="fill-rule:evenodd;clip-rule:evenodd;fill:#F2F1E4;" d="M24.05-40.2c0.3-0.267,0.517-0.517,0.65-0.75l0.05-0.1v-0.1
			c-0.033,0-0.067,0.033-0.1,0.1c-0.033,0-0.066,0-0.1,0c-0.033,0-0.066,0-0.1,0h-0.1c-2.033,1.033-3.817,2.433-5.35,4.2
			c-1.5,2.2-2.467,4.434-2.9,6.7c-0.1,1.233-0.05,2.5,0.15,3.8c0,0.567,0.183,1.233,0.55,2c0.8,2.267,2.067,3.667,3.8,4.2
			c0-0.333,0.1-0.7,0.3-1.1c0.5-2.7,0.783-6.1,0.85-10.2c0.067-2.466,0.2-4.233,0.4-5.3c0.434-1.333,1.067-2.45,1.9-3.35V-40.2z
			 M5.75-1.75L5.9-1.9l0.05-0.15c0.633-1.867,1.083-4.034,1.35-6.5c0.233-1.1,0.434-2.333,0.6-3.7c0.667-2.233,1.083-3.833,1.25-4.8
			c0.4-1.067,1.417-2.267,3.05-3.6L11.75-20c-0.967,1.1-1.633,2.35-2,3.75c-0.767,2.4-0.933,4.683-0.5,6.85
			c0.067,0.433,0.133,0.816,0.2,1.15c0.267,0.767,0.733,1.483,1.4,2.15c0.267,0.667,0.717,1.233,1.35,1.7c1.4,1.8,3.066,2.833,5,3.1
			c0.032-0.097,0.049-0.239,0.05-0.425V-1.75l-0.15-0.2c-0.2-1.6-0.65-3.466-1.35-5.6c-0.5-1.267-1.05-2.65-1.65-4.15
			c-0.9-2.233-1.467-3.983-1.7-5.25c-0.1-0.966,0.017-1.966,0.35-3v-0.35c0.133,0,0.383-0.4,0.75-1.2l-0.05-0.15v-0.1
			c-3.067,1.133-5.483,2.6-7.25,4.4c-2.067,1.733-3.4,3.7-4,5.9c-0.167,0.667-0.25,1.367-0.25,2.1C1.883-8.15,1.967-6.967,2.2-5.8
			c0.533,2.133,1.65,3.55,3.35,4.25L5.75-1.75z M22.7-40.6c0.5-0.233,1.15-0.483,1.95-0.75c-2.667,0.3-5.316,1.1-7.95,2.4
			c-2.7,1.467-4.917,3.2-6.65,5.2c-1.267,1.767-2.066,3.617-2.4,5.55c-0.333,2.333,0.167,3.983,1.5,4.95
			c0.133,0.033,0.217,0,0.25-0.1l0.05-0.05c2-2.233,4.2-5.533,6.6-9.9c1.333-2.167,2.467-3.717,3.4-4.65
			C20.35-38.983,21.433-39.867,22.7-40.6z M12.2-20.2c-0.067,0.267-0.15,0.684-0.25,1.25c0.033-0.6,0.083-1.017,0.15-1.25H12.2z
			 M41.75-58.7c-3-0.133-5.9,0.25-8.7,1.15c-3.033,0.966-5.65,2.35-7.85,4.15c-1.8,1.7-3.133,3.467-4,5.3
			c-1.067,2.167-1,3.934,0.2,5.3c0.033-0.034,0.2-0.067,0.5-0.1l0.2-0.2c3.033-2.333,5.9-5.233,8.6-8.7
			c2.267-1.934,3.883-3.367,4.85-4.3c1.667-1.133,3.5-1.9,5.5-2.3l0.15-0.05C41.267-58.617,41.45-58.7,41.75-58.7z M31.85-37.8
			c0-0.133,0.15-0.25,0.45-0.35c1.167-2.567,2.467-6.167,3.9-10.8c0.566-2.267,1.183-4.083,1.85-5.45
			c0.767-1.3,1.717-2.417,2.85-3.35c0.267-0.233,0.55-0.433,0.85-0.6c0.1-0.133,0.25-0.25,0.45-0.35c-0.233,0.1-0.4,0.167-0.5,0.2
			c-2.434,0.633-4.667,1.867-6.7,3.7c-2.1,1.767-3.7,3.783-4.8,6.05c-0.467,1.2-0.867,2.45-1.2,3.75c0.1,0.867,0.183,1.65,0.25,2.35
			C29.35-40.283,30.217-38.667,31.85-37.8z"/>
		
			<linearGradient id="SVGID_2_" gradientUnits="userSpaceOnUse" x1="2709.4028" y1="-18875.8828" x2="2732.5278" y2="-18875.8828" gradientTransform="matrix(-0.4303 -0.9027 0.9658 -0.2979 19422.9492 -3201.2954)">
			<stop  offset="0.0235" style="stop-color:#737373"/>
			<stop  offset="0.0745" style="stop-color:#81807F"/>
			<stop  offset="0.4039" style="stop-color:#DAD4CA"/>
			<stop  offset="0.5765" style="stop-color:#EEEADB"/>
			<stop  offset="0.749" style="stop-color:#FEFBE8"/>
			<stop  offset="0.9961" style="stop-color:#E4E7E9"/>
		</linearGradient>
		<path style="fill-rule:evenodd;clip-rule:evenodd;fill:url(#SVGID_2_);" d="M24.05-40.2v0.1c-0.833,0.9-1.466,2.017-1.9,3.35
			c-0.2,1.067-0.333,2.833-0.4,5.3c-0.067,4.1-0.35,7.5-0.85,10.2c-0.066,0.4-0.083,0.7-0.05,0.9c3-2.233,5.2-5.8,6.6-10.7
			c0.7-1.867,0.95-3.784,0.75-5.75c-0.233-1.667-0.784-2.934-1.65-3.8c-0.3-0.233-0.617-0.45-0.95-0.65
			c-0.067-0.067-0.15-0.117-0.25-0.15v0.1c-0.067,0.033-0.133,0.066-0.2,0.1H25.1c-0.167,0.067-0.283,0.117-0.35,0.15l-0.05,0.1
			c0.066,0,0.117,0.017,0.15,0.05C24.55-40.633,24.283-40.4,24.05-40.2z"/>
		
			<linearGradient id="SVGID_3_" gradientUnits="userSpaceOnUse" x1="2708.1641" y1="-18893.5898" x2="2729.8574" y2="-18893.5898" gradientTransform="matrix(-0.431 -0.9023 0.9652 -0.2994 19424.1387 -3216.437)">
			<stop  offset="0.0235" style="stop-color:#737373"/>
			<stop  offset="0.1725" style="stop-color:#81807F"/>
			<stop  offset="0.4314" style="stop-color:#DAD4CA"/>
			<stop  offset="0.6627" style="stop-color:#EEEADB"/>
			<stop  offset="1" style="stop-color:#FEFBE8"/>
		</linearGradient>
		<path style="fill-rule:evenodd;clip-rule:evenodd;fill:url(#SVGID_3_);" d="M17.25-1.725c0.003,0.185,0.053,0.293,0.15,0.325
			c1.133-1.467,1.817-3.317,2.05-5.55c0.167-1.633,0.15-3.6-0.05-5.9c-0.167-1.767-0.683-3.483-1.55-5.15
			c-1-2.067-2.367-3.35-4.1-3.85H13.7c-0.034,0.033-0.067,0.033-0.1,0l-0.05,0.05c0,0.033-0.017,0.066-0.05,0.1l-0.05,0.05
			l0.05,0.15c-0.367,0.8-0.617,1.2-0.75,1.2v0.35c-0.333,1.034-0.45,2.034-0.35,3c0.233,1.267,0.8,3.017,1.7,5.25
			c0.6,1.5,1.15,2.883,1.65,4.15c0.7,2.133,1.15,4,1.35,5.6l0.15,0.2V-1.725z"/>
		
			<linearGradient id="SVGID_4_" gradientUnits="userSpaceOnUse" x1="2707.1265" y1="-18883.6465" x2="2724.5164" y2="-18883.6465" gradientTransform="matrix(-0.427 -0.9043 0.9649 -0.2985 19389.1953 -3193.4907)">
			<stop  offset="0.0235" style="stop-color:#737373"/>
			<stop  offset="0.1725" style="stop-color:#81807F"/>
			<stop  offset="0.4314" style="stop-color:#DAD4CA"/>
			<stop  offset="0.6627" style="stop-color:#EEEADB"/>
			<stop  offset="1" style="stop-color:#FEFBE8"/>
		</linearGradient>
		<path style="fill-rule:evenodd;clip-rule:evenodd;fill:url(#SVGID_4_);" d="M10.85-6.1c-0.667-0.667-1.133-1.383-1.4-2.15
			C9.383-8.583,9.317-8.967,9.25-9.4c-0.433-2.167-0.267-4.45,0.5-6.85c0.367-1.4,1.033-2.65,2-3.75l0.45-0.65
			c-1.633,1.333-2.65,2.533-3.05,3.6c-0.167,0.966-0.583,2.566-1.25,4.8c-0.167,1.367-0.367,2.6-0.6,3.7
			c-0.267,2.466-0.716,4.633-1.35,6.5L5.9-1.9L5.75-1.75L5.7-1.6C7.467-2.6,9.183-4.1,10.85-6.1z"/>
		
			<linearGradient id="SVGID_5_" gradientUnits="userSpaceOnUse" x1="2725.8408" y1="-18887.4922" x2="2750.4524" y2="-18887.4922" gradientTransform="matrix(-0.4317 -0.902 0.9654 -0.2994 19431.0137 -3218.7734)">
			<stop  offset="0.0235" style="stop-color:#737373"/>
			<stop  offset="0.0745" style="stop-color:#81807F"/>
			<stop  offset="0.4039" style="stop-color:#DAD4CA"/>
			<stop  offset="0.5765" style="stop-color:#EEEADB"/>
			<stop  offset="0.749" style="stop-color:#FEFBE8"/>
			<stop  offset="0.9961" style="stop-color:#E4E7E9"/>
		</linearGradient>
		<path style="fill-rule:evenodd;clip-rule:evenodd;fill:url(#SVGID_5_);" d="M9.4-23.35c2.233-0.5,4.517-1.5,6.85-3
			c-0.2-1.3-0.25-2.566-0.15-3.8c0.433-2.267,1.4-4.5,2.9-6.7c1.533-1.767,3.317-3.167,5.35-4.2H24.3
			C24.233-41.017,24.167-41,24.1-41h-0.025c-0.051-0.032-0.092-0.049-0.125-0.05c-0.434,0.167-0.85,0.316-1.25,0.45
			c-1.267,0.733-2.35,1.617-3.25,2.65c-0.934,0.934-2.067,2.483-3.4,4.65c-2.4,4.367-4.6,7.667-6.6,9.9L9.4-23.35z"/>
		
			<linearGradient id="SVGID_6_" gradientUnits="userSpaceOnUse" x1="2707.1265" y1="-18877.2148" x2="2724.5164" y2="-18877.2148" gradientTransform="matrix(-0.427 -0.9043 0.9649 -0.2985 19389.1953 -3193.4907)">
			<stop  offset="0" style="stop-color:#95856A"/>
			<stop  offset="1" style="stop-color:#DFD1B1"/>
		</linearGradient>
		<path style="fill-rule:evenodd;clip-rule:evenodd;fill:url(#SVGID_6_);" d="M12.2-20.2h-0.1c-0.067,0.233-0.117,0.65-0.15,1.25
			C12.05-19.517,12.133-19.933,12.2-20.2z"/>
		
			<linearGradient id="SVGID_7_" gradientUnits="userSpaceOnUse" x1="2766.5435" y1="-18872.3105" x2="2775.8354" y2="-18872.3105" gradientTransform="matrix(-0.4332 -0.9013 0.9647 -0.3013 19437.3965 -3240.3008)">
			<stop  offset="0.0235" style="stop-color:#737373"/>
			<stop  offset="0.0745" style="stop-color:#81807F"/>
			<stop  offset="0.4039" style="stop-color:#DAD4CA"/>
			<stop  offset="0.5765" style="stop-color:#EEEADB"/>
			<stop  offset="0.749" style="stop-color:#FEFBE8"/>
			<stop  offset="0.9961" style="stop-color:#E4E7E9"/>
		</linearGradient>
		<path style="fill-rule:evenodd;clip-rule:evenodd;fill:url(#SVGID_7_);" d="M29-45c0.333-1.3,0.733-2.55,1.2-3.75
			c1.1-2.267,2.7-4.283,4.8-6.05c2.033-1.833,4.267-3.067,6.7-3.7l0.05-0.2c-0.3,0-0.483,0.083-0.55,0.25l-0.15,0.05
			c-2,0.4-3.833,1.167-5.5,2.3c-0.966,0.934-2.583,2.367-4.85,4.3c-2.7,3.466-5.567,6.367-8.6,8.7l-0.2,0.2
			c-0.167,0.167-0.283,0.267-0.35,0.3C24.05-42.7,26.533-43.5,29-45z"/>
		
			<linearGradient id="SVGID_8_" gradientUnits="userSpaceOnUse" x1="2728.4009" y1="-18888.6133" x2="2741.0024" y2="-18888.6133" gradientTransform="matrix(-0.4345 -0.9007 0.9658 -0.2995 19456.9863 -3230.646)">
			<stop  offset="0" style="stop-color:#7BA0FD"/>
			<stop  offset="0.2471" style="stop-color:#6C8BD4"/>
			<stop  offset="0.7647" style="stop-color:#4D5F81"/>
			<stop  offset="1" style="stop-color:#414E61"/>
		</linearGradient>
		<path style="fill-rule:evenodd;clip-rule:evenodd;fill:url(#SVGID_8_);" d="M24.7-40.95c-0.133,0.233-0.35,0.483-0.65,0.75
			c0.233-0.2,0.5-0.433,0.8-0.7C24.817-40.933,24.767-40.95,24.7-40.95z"/>
		
			<linearGradient id="SVGID_9_" gradientUnits="userSpaceOnUse" x1="2728.4009" y1="-18888.4414" x2="2741.0024" y2="-18888.4414" gradientTransform="matrix(-0.4345 -0.9007 0.9658 -0.2995 19456.9863 -3230.646)">
			<stop  offset="0" style="stop-color:#95856A"/>
			<stop  offset="1" style="stop-color:#DFD1B1"/>
		</linearGradient>
		<path style="fill-rule:evenodd;clip-rule:evenodd;fill:url(#SVGID_9_);" d="M24-41.05L24.075-41H24.1
			c0.066,0,0.133-0.017,0.2-0.05h0.05h0.1c0.033,0,0.066,0,0.1,0c0.034,0,0.067,0,0.1,0c0.033-0.067,0.067-0.1,0.1-0.1L24.6-41.2
			C24.367-41.167,24.167-41.117,24-41.05z"/>
		
			<linearGradient id="SVGID_10_" gradientUnits="userSpaceOnUse" x1="2710.3452" y1="-18864.3789" x2="2729.3" y2="-18864.3789" gradientTransform="matrix(-0.4287 -0.9035 0.9655 -0.2978 19407.8066 -3194.4355)">
			<stop  offset="0" style="stop-color:#95856A"/>
			<stop  offset="1" style="stop-color:#DFD1B1"/>
		</linearGradient>
		<path style="fill-rule:evenodd;clip-rule:evenodd;fill:url(#SVGID_10_);" d="M24-41.05h-0.05c0.033,0.001,0.074,0.018,0.125,0.05
			L24-41.05z"/>
		
			<linearGradient id="SVGID_11_" gradientUnits="userSpaceOnUse" x1="2730.8135" y1="-18856.6719" x2="2746.9607" y2="-18856.6719" gradientTransform="matrix(-0.4304 -0.9026 0.9655 -0.2986 19421.6211 -3207.5479)">
			<stop  offset="0.0235" style="stop-color:#737373"/>
			<stop  offset="0.0745" style="stop-color:#81807F"/>
			<stop  offset="0.4039" style="stop-color:#DAD4CA"/>
			<stop  offset="0.5765" style="stop-color:#EEEADB"/>
			<stop  offset="0.749" style="stop-color:#FEFBE8"/>
			<stop  offset="0.9961" style="stop-color:#E4E7E9"/>
		</linearGradient>
		<path style="fill-rule:evenodd;clip-rule:evenodd;fill:url(#SVGID_11_);" d="M41.75-58.35c-0.3,0.167-0.583,0.367-0.85,0.6
			c-1.133,0.933-2.083,2.05-2.85,3.35c-0.667,1.367-1.283,3.183-1.85,5.45c-1.434,4.633-2.733,8.233-3.9,10.8
			c-0.3,0.1-0.45,0.217-0.45,0.35c3.867-1.567,7.15-4.9,9.85-10c1.066-1.6,1.8-3.45,2.2-5.55c0.3-2.433-0.183-4.233-1.45-5.4
			C42.317-58.417,42.083-58.283,41.75-58.35z"/>
	</g>
</symbol>
<symbol  id="Symbol_5" viewBox="0 -134 134 134">
	<g id="Layer_1_17_">
		<use xlink:href="#BG_x2F_bg_navy"  width="134" height="134" y="-134" style="overflow:visible;"/>
	</g>
</symbol>
<symbol  id="flash0.ai_x2F_Layer_1_x2F__x3C_Compound_Path_x3E__x5F_2" viewBox="0 -27.85 16.95 27.85">
	<g id="Layer_1_13_">
		<path style="fill-rule:evenodd;clip-rule:evenodd;" d="M11.4-10.95c0.133,0.867,0.15,2.15,0.05,3.85L7.7-7.2l-0.05-3.95
			C10.05-11.317,11.3-11.25,11.4-10.95z M13.65,0c1.667-0.033,2.583-0.233,2.75-0.6c0.4-1,0.567-2.7,0.5-5.1v-8.4l0.05-0.45
			c0-0.4-0.1-0.867-0.3-1.4c-0.333-0.867-1.066-1.3-2.2-1.3H8.1v-8.65L8-26.45c-0.1-0.433-0.2-0.716-0.3-0.85
			c-0.133-0.233-0.5-0.417-1.1-0.55H3.1L1.9-27.6c-0.433,0.167-0.816,0.417-1.15,0.75c-0.2,0.2-0.383,0.517-0.55,0.95L0-25.25
			l0.15,21.2C0.317-2.75,0.6-1.8,1-1.2c0.267,0.367,0.717,0.65,1.35,0.85C2.817-0.183,3.2-0.1,3.5-0.1L13.65,0z"/>
	</g>
</symbol>
<symbol  id="flash0.ai_x2F_Layer_1_x2F__x3C_Path_x3E__x5F_2" viewBox="0.027 -73.758 29.023 73.737">
	<g id="Layer_1_6_">
		
			<linearGradient id="SVGID_12_" gradientUnits="userSpaceOnUse" x1="16144.6797" y1="-12.4355" x2="16223.3047" y2="-12.4355" gradientTransform="matrix(1.271860e-005 1 -1 -0.001 1.897 -16220.1055)">
			<stop  offset="0" style="stop-color:#211F1F"/>
			<stop  offset="0.1725" style="stop-color:#242222"/>
			<stop  offset="0.3098" style="stop-color:#2E2C2C"/>
			<stop  offset="0.4353" style="stop-color:#3F3D3D"/>
			<stop  offset="0.5529" style="stop-color:#565555"/>
			<stop  offset="0.6667" style="stop-color:#747373"/>
			<stop  offset="0.7725" style="stop-color:#9A9999"/>
			<stop  offset="0.8784" style="stop-color:#C6C5C5"/>
			<stop  offset="0.9804" style="stop-color:#F8F8F8"/>
			<stop  offset="0.9961" style="stop-color:#FFFFFF"/>
		</linearGradient>
		<path style="fill-rule:evenodd;clip-rule:evenodd;fill:url(#SVGID_12_);" d="M25.2-0.7c0.933-0.466,1.633-1.05,2.1-1.75
			c0.767-1.066,1.317-3.183,1.65-6.35l0.1-57.25l-1.3-3.55c-1.367-2.433-3.35-3.8-5.95-4.1c-2.6-0.3-5.183,0.567-7.75,2.6l-3.1,3.15
			l-0.25,47.4C9-20.783,7.283-20.633,5.55-20.1c-3.5,1.067-5.333,3.5-5.5,7.3c-0.167,4.433,0.567,7.767,2.2,10
			c1,1.433,2.233,2.3,3.7,2.6c0.667,0.167,3.867,0.217,9.6,0.15c2.867-0.034,5.667-0.083,8.4-0.15L25.2-0.7z"/>
	</g>
</symbol>
<symbol  id="flash0.ai_x2F_Layer_1_x2F__x3C_Path_x3E__x5F_3" viewBox="-0.014 -27.55 6.514 27.55">
	<g id="Layer_1_11_">
		<path style="fill-rule:evenodd;clip-rule:evenodd;" d="M6.25-1C6.417-1.267,6.5-1.767,6.5-2.5v-22.75l-0.25-1.6
			c-0.133-0.367-0.317-0.583-0.55-0.65l-3.95-0.05c-0.467,0.033-0.883,0.233-1.25,0.6c-0.2,0.2-0.333,0.5-0.4,0.9L0-25.5v23.25
			C-0.067-1.883,0.1-1.4,0.5-0.8C0.833-0.367,1.217-0.1,1.65,0H4.9C5.467-0.167,5.917-0.5,6.25-1z"/>
	</g>
</symbol>
<symbol  id="flash0.ai_x2F_Layer_1_x2F__x3C_Path_x3E__x5F_3_x5F_0" viewBox="0 -27.8 16.45 27.8">
	<g id="Layer_1_12_">
		<path style="fill-rule:evenodd;clip-rule:evenodd;" d="M16.45-2.25l-0.1-0.85l0.1-0.2L16.2-5.7c-0.3-0.433-0.617-0.733-0.95-0.9
			l-1.2-0.45h-6.6L7.25-21.5h6.6l1.65-0.75c0.333-0.2,0.567-0.6,0.7-1.2v-3.15c-0.233-0.433-0.534-0.733-0.9-0.9
			c-0.333-0.167-0.75-0.267-1.25-0.3H3.7c-1,0.2-1.917,0.617-2.75,1.25c-0.333,0.2-0.65,0.633-0.95,1.3V-2.7
			c0.167,0.9,0.45,1.5,0.85,1.8c0.4,0.333,1.033,0.633,1.9,0.9h10.6l0.8-0.1c0.567-0.133,1.017-0.316,1.35-0.55
			C16.067-1.017,16.383-1.55,16.45-2.25z"/>
	</g>
</symbol>
<symbol  id="flash0.ai_x5F_0_x2F_Layer_1_x2F__x3C_Compound_Path_x3E_" viewBox="0.015 -34.555 23.55 34.607">
	<g id="Layer_1_4_">
		
			<linearGradient id="SVGID_13_" gradientUnits="userSpaceOnUse" x1="16178.9219" y1="-8.3853" x2="16184.6719" y2="-8.3853" gradientTransform="matrix(1.739131e-004 1 -1 -0.001 0.5884 -16220.1055)">
			<stop  offset="0" style="stop-color:#211F1F"/>
			<stop  offset="0.0235" style="stop-color:#3B3939"/>
			<stop  offset="0.0706" style="stop-color:#646262"/>
			<stop  offset="0.1176" style="stop-color:#898888"/>
			<stop  offset="0.1725" style="stop-color:#A9A8A8"/>
			<stop  offset="0.2314" style="stop-color:#C4C4C4"/>
			<stop  offset="0.302" style="stop-color:#DADADA"/>
			<stop  offset="0.3804" style="stop-color:#EBEAEA"/>
			<stop  offset="0.4784" style="stop-color:#F6F6F6"/>
			<stop  offset="0.6157" style="stop-color:#FDFDFD"/>
			<stop  offset="0.9961" style="stop-color:#FFFFFF"/>
		</linearGradient>
		<path style="fill-rule:evenodd;clip-rule:evenodd;fill:url(#SVGID_13_);" d="M21.05-15.55l1.35-2.7
			c0.867-2.167,1.25-4.15,1.15-5.95c-0.133-2.1-0.6-3.767-1.4-5c-0.733-1.2-2.017-2.367-3.85-3.5c-2.133-1.3-4.617-1.917-7.45-1.85
			c-3.3,0.066-5.9,1.15-7.8,3.25c-1.833,2-2.833,4.316-3,6.95c-0.133,1.8,0.117,3.567,0.75,5.3c0.333,0.966,1.083,1.6,2.25,1.9
			c0.567,0.133,1.1,0.167,1.6,0.1l0.25,2.5c-1.167-0.034-2.25,0.25-3.25,0.85c-0.633,0.4-1.033,1.417-1.2,3.05L0.35-8.3
			C0.25-7.2,1.033-5.75,2.7-3.95C4.533-2.017,6.517-0.8,8.65-0.3c2.567,0.6,5.117,0.433,7.65-0.5c2.867-1.067,4.617-2.817,5.25-5.25
			c0.534-2.2,0.617-4.434,0.25-6.7C21.6-13.917,21.35-14.85,21.05-15.55z M22.8-23.45c0.1,1.733-0.2,3.583-0.9,5.55l-1.1,2.45
			c0.267,0.7,0.467,1.6,0.6,2.7c0.3,2.2,0.184,4.35-0.35,6.45c-0.566,2.3-2.267,3.933-5.1,4.9c-2.5,0.867-4.967,1.017-7.4,0.45
			C6.617-1.417,4.833-2.6,3.2-4.5C1.767-6.2,1.083-7.6,1.15-8.7l0.2-1.85c0.233-1.3,0.633-2.133,1.2-2.5
			c0.9-0.6,1.817-0.85,2.75-0.75l-0.15-3.65c-0.533,0.034-1.1-0.017-1.7-0.15c-1.233-0.3-2-0.917-2.3-1.85
			c-1.3-3.9-0.55-7.433,2.25-10.6c1.8-2.034,4.25-3.15,7.35-3.35c2.7-0.133,5,0.4,6.9,1.6c1.733,1.066,2.983,2.2,3.75,3.4
			C22.2-27.1,22.667-25.45,22.8-23.45z"/>
	</g>
</symbol>
<symbol  id="flash0.ai_x5F_0_x2F_Layer_1_x2F__x3C_Path_x3E__x5F_1" viewBox="-0.171 -26.506 17.732 26.495">
	<g id="Layer_1_5_">
		
			<linearGradient id="SVGID_14_" gradientUnits="userSpaceOnUse" x1="16178.1982" y1="-6.4937" x2="16218.498" y2="-6.4937" gradientTransform="matrix(2.481390e-005 1 -1 -0.001 1.7988 -16220.1055)">
			<stop  offset="0" style="stop-color:#000000"/>
			<stop  offset="0.0902" style="stop-color:#000000;stop-opacity:0.7961"/>
			<stop  offset="0.9961" style="stop-color:#000000;stop-opacity:0"/>
		</linearGradient>
		<path style="fill-rule:evenodd;clip-rule:evenodd;fill:url(#SVGID_14_);" d="M12.9-0.9c1.767-0.967,2.767-2.617,3-4.95
			c0.2-2.033-0.066-3.667-0.8-4.9c-0.367-0.633-0.767-1.05-1.2-1.25l1.9-2.25c1.267-1.833,1.85-3.533,1.75-5.1
			c-0.133-1.967-0.933-3.6-2.4-4.9c-1.533-1.367-3.566-2.117-6.1-2.25c-2.9-0.1-5.417,1.15-7.55,3.75
			c-2.067,2.533-2.217,4.117-0.45,4.75c0.967,0.333,1.983-0.233,3.05-1.7c1.167-1.6,2.433-2.4,3.8-2.4c1.067,0,2.05,0.4,2.95,1.2
			c1,0.867,1.433,1.883,1.3,3.05c-0.066,0.6-0.566,1.133-1.5,1.6c-0.8,0.4-1.717,0.667-2.75,0.8c-0.667,0.1-1.233,0.5-1.7,1.2
			c-0.367,0.567-0.583,1.2-0.65,1.9c-0.1,1.067,1.017,1.767,3.35,2.1c1.067,0.167,1.867,0.6,2.4,1.3c0.4,0.5,0.567,1.034,0.5,1.6
			c-0.1,0.967-0.683,1.633-1.75,2c-0.867,0.3-1.867,0.367-3,0.2c-0.566-0.067-1.2-0.617-1.9-1.65c-0.7-1.034-1.533-1.583-2.5-1.65
			C1.583-8.483,0.967-7.917,0.8-6.75L0.9-5c0.533,1.2,1.067,2.083,1.6,2.65c1.033,1.1,2.467,1.8,4.3,2.1
			C9.233,0.217,11.267,0,12.9-0.9z"/>
	</g>
</symbol>
<symbol  id="flash0.ai_x5F_0_x2F_Layer_1_x2F__x3C_Path_x3E__x5F_4" viewBox="0.032 -32.82 22.287 32.806">
	<g id="Layer_1_3_">
		
			<linearGradient id="SVGID_15_" gradientUnits="userSpaceOnUse" x1="16186.4961" y1="-8.9419" x2="16221.1963" y2="-8.9419" gradientTransform="matrix(2.881845e-005 1 -1 -0.001 1.7666 -16220.1055)">
			<stop  offset="0" style="stop-color:#211F1F"/>
			<stop  offset="0.1725" style="stop-color:#242222"/>
			<stop  offset="0.3098" style="stop-color:#2E2C2C"/>
			<stop  offset="0.4353" style="stop-color:#3F3D3D"/>
			<stop  offset="0.5529" style="stop-color:#565555"/>
			<stop  offset="0.6667" style="stop-color:#747373"/>
			<stop  offset="0.7725" style="stop-color:#9A9999"/>
			<stop  offset="0.8784" style="stop-color:#C6C5C5"/>
			<stop  offset="0.9804" style="stop-color:#F8F8F8"/>
			<stop  offset="0.9961" style="stop-color:#FFFFFF"/>
		</linearGradient>
		<path style="fill-rule:evenodd;clip-rule:evenodd;fill:url(#SVGID_15_);" d="M20.55-5.7c0.534-2.1,0.65-4.25,0.35-6.45
			c-0.133-1.1-0.333-2-0.6-2.7l1.1-2.45c0.7-1.967,1-3.817,0.9-5.55c-0.133-2-0.6-3.65-1.4-4.95c-0.767-1.2-2.017-2.333-3.75-3.4
			c-1.9-1.2-4.2-1.733-6.9-1.6c-3.1,0.2-5.55,1.316-7.35,3.35c-2.8,3.167-3.55,6.7-2.25,10.6c0.3,0.934,1.067,1.55,2.3,1.85
			c0.6,0.133,1.167,0.183,1.7,0.15L4.8-13.2c-0.933-0.1-1.85,0.15-2.75,0.75c-0.566,0.367-0.966,1.2-1.2,2.5L0.65-8.1
			C0.583-7,1.267-5.6,2.7-3.9C4.333-2,6.117-0.817,8.05-0.35c2.434,0.567,4.9,0.417,7.4-0.45C18.283-1.767,19.983-3.4,20.55-5.7z"/>
	</g>
</symbol>
<symbol  id="zz_x5F_Highlight_x2F_Highlight_Piece" viewBox="0 -115.9 118.7 115.9">
	<g id="Layer_1_15_">
		<g>
			
				<use xlink:href="#zzz_x5F_miscellaneous_x2F_FlashAICB_copy_x2F_Layer_1_x2F__x3C_Path_x3E__x5F_2"  width="118.7" height="57.1" y="-57.1" transform="matrix(1 0 0 1 0 -58.7998)" style="overflow:visible;opacity:0.2813;enable-background:new    ;"/>
			
				<use xlink:href="#zzz_x5F_miscellaneous_x2F_FlashAICB_copy_x2F_Layer_1_x2F__x3C_Path_x3E__x5F_1"  width="110.05" height="55.75" y="-55.75" transform="matrix(1 0 0 1 4.1499 0)" style="overflow:visible;opacity:0.1094;enable-background:new    ;"/>
			
				<use xlink:href="#zzz_x5F_miscellaneous_x2F_FlashAICB_copy_x2F_Layer_1_x2F__x3C_Path_x3E_"  width="110.05" height="61.294" y="-61.294" transform="matrix(1 0 0 1 4.1499 0)" style="overflow:visible;opacity:0.0898;enable-background:new    ;"/>
		</g>
	</g>
</symbol>
<symbol  id="zzz_x5F_miscellaneous_x2F_FlashAICB_copy_2_x2F_Layer_1_x2F__x3C_Path_x3E__x5F_2" viewBox="0 -118.7 118.85 118.7">
	<g id="Layer_1_2_">
		
			<radialGradient id="SVGID_16_" cx="59.4248" cy="-59.3501" r="59.3876" gradientTransform="matrix(1 0 0 -1 0 -118.7002)" gradientUnits="userSpaceOnUse">
			<stop  offset="0.1412" style="stop-color:#92A4BA"/>
			<stop  offset="0.5569" style="stop-color:#7483AD;stop-opacity:0.9725"/>
			<stop  offset="1" style="stop-color:#5763A0;stop-opacity:0.949"/>
		</radialGradient>
		<path style="fill-rule:evenodd;clip-rule:evenodd;fill:url(#SVGID_16_);" d="M118.85-59.35c0-16.367-5.8-30.35-17.4-41.95
			c-11.6-11.6-25.617-17.4-42.05-17.4c-16.4,0-30.4,5.8-42,17.4C5.8-89.7,0-75.717,0-59.35S5.8-29,17.4-17.4S43,0,59.4,0
			c16.434,0,30.45-5.8,42.05-17.4C113.05-29,118.85-42.983,118.85-59.35z"/>
	</g>
</symbol>
<symbol  id="zzz_x5F_miscellaneous_x2F_FlashAICB_copy_x2F_Layer_1_x2F__x3C_Path_x3E_" viewBox="0 -61.294 110.05 61.294">
	<g id="Layer_1_9_">
		<path style="fill-rule:evenodd;clip-rule:evenodd;fill:#FFFFFF;" d="M106.5-34.35c2.367-5.633,3.55-10.95,3.55-15.95
			c0-4.934-1.45-8.05-4.35-9.35c-2.333-1.033-6.25-1.017-11.75,0.05c-7.3,1.767-13.133,3.117-17.5,4.05
			C68.417-53.85,61.267-53,55-53c-6.3,0-13.433-0.917-21.4-2.75c-8.333-2.2-14.167-3.683-17.5-4.45
			c-5.533-1.267-9.45-1.433-11.75-0.5C1.45-59.5,0-56.433,0-51.5c0,5.5,1.167,11.167,3.5,17c2.467,6.167,5.95,11.733,10.45,16.7
			C24.65-5.933,38.333,0,55,0c16.467,0,30.15-5.983,41.05-17.95C100.517-22.883,104-28.35,106.5-34.35z"/>
	</g>
</symbol>
<symbol  id="zzz_x5F_miscellaneous_x2F_FlashAICB_copy_x2F_Layer_1_x2F__x3C_Path_x3E__x5F_1" viewBox="0 -55.75 110.05 55.75">
	<g id="Layer_1_8_">
		
			<linearGradient id="SVGID_17_" gradientUnits="userSpaceOnUse" x1="16164.2637" y1="-52.8804" x2="16220.0391" y2="-52.8804" gradientTransform="matrix(1.792918e-005 1 -1 -0.001 1.8545 -16220.1055)">
			<stop  offset="0.1294" style="stop-color:#D9BBB3"/>
			<stop  offset="0.9255" style="stop-color:#FFFFFF"/>
		</linearGradient>
		<path style="fill-rule:evenodd;clip-rule:evenodd;fill:url(#SVGID_17_);" d="M96.05-17.95c4.467-4.933,7.95-10.4,10.45-16.4
			c2.367-5.633,3.55-10.95,3.55-15.95c0-1.567-0.167-3.05-0.5-4.45c-1.867,11.067-7.267,20.9-16.2,29.5
			C82.783-15.117,70-10.05,55-10.05c-15.233,0-28.067-5.05-38.5-15.15C7.533-33.9,2.183-44.083,0.45-55.75
			C0.15-54.617,0-53.2,0-51.5c0,5.5,1.167,11.167,3.5,17c2.467,6.167,5.95,11.733,10.45,16.7C24.65-5.933,38.333,0,55,0
			C71.467,0,85.15-5.983,96.05-17.95z"/>
	</g>
</symbol>
<symbol  id="zzz_x5F_miscellaneous_x2F_FlashAICB_copy_x2F_Layer_1_x2F__x3C_Path_x3E__x5F_2" viewBox="0 -57.1 118.7 57.1">
	<g id="Layer_1_7_">
		
			<radialGradient id="SVGID_18_" cx="59.3501" cy="-28.5498" r="46.5701" gradientTransform="matrix(1 0 0 -1 0 -57.0996)" gradientUnits="userSpaceOnUse">
			<stop  offset="0" style="stop-color:#000000;stop-opacity:0"/>
			<stop  offset="0.651" style="stop-color:#000000;stop-opacity:0.4"/>
		</radialGradient>
		<path style="fill-rule:evenodd;clip-rule:evenodd;fill:url(#SVGID_18_);" d="M95.5-30.35c10.733,7.7,18.3,17.733,22.7,30.1
			L118.7,0c-0.567-15.9-6.6-29.383-18.1-40.45C89.1-51.55,75.333-57.1,59.3-57.1c-15.7,0-29.267,5.367-40.7,16.1
			C7.2-30.333,1-17.233,0-1.7c4.6-12,12.183-21.683,22.75-29.05c10.833-7.567,22.867-11.35,36.1-11.35
			C72.35-42.1,84.567-38.183,95.5-30.35z"/>
	</g>
</symbol>
<g id="flash0.ai">
	<g>
		<g>
			
				<linearGradient id="SVGID_19_" gradientUnits="userSpaceOnUse" x1="-159.373" y1="85.7002" x2="-3.448" y2="85.7002" gradientTransform="matrix(6.413340e-006 -1 1 -0.001 2.351356e-004 4.683650e-004)">
				<stop  offset="0.0235" style="stop-color:#737373"/>
				<stop  offset="0.0745" style="stop-color:#81807F"/>
				<stop  offset="0.4039" style="stop-color:#DAD4CA"/>
				<stop  offset="0.5765" style="stop-color:#EEEADB"/>
				<stop  offset="0.749" style="stop-color:#FEFBE8"/>
				<stop  offset="0.9961" style="stop-color:#E4E7E9"/>
			</linearGradient>
			<path style="fill-rule:evenodd;clip-rule:evenodd;fill:url(#SVGID_19_);" d="M137.4,33.75c4.433,4.4,8.183,9.083,11.25,14.05
				l5.899,1.65l4.75,1.85l-3.6,11.75c2.2,6.967,3.3,14.417,3.3,22.35c0,0.733,0,1.483,0,2.25l6.85,9.25l-9.25,7.55
				c-2.133,8.1-5.6,15.533-10.399,22.3l0.8,11.75l-11.65,0.6c-6.267,5.801-13.066,10.284-20.399,13.45l-5.7,10.5l-10.75-5.7
				c-4.2,0.733-8.566,1.101-13.1,1.101c-4.134,0-8.15-0.3-12.05-0.9l-5.6,3.3l-4.85,2.25l-5.4-9.85
				c-8-3.267-15.35-8.017-22.05-14.25l-10.9-0.25l0.1-12.05c-0.2-0.2-0.367-0.417-0.5-0.65c-4.9-7.1-8.316-14.767-10.25-23
				L5.55,96.9l6.4-8.25c-0.067-1.101-0.1-2.184-0.1-3.25c0-8.133,1.183-15.8,3.55-23l-4.3-10.8l11.25-4.15
				c3.033-4.833,6.7-9.4,11-13.7c2.267-2.233,4.617-4.3,7.05-6.2l1.4-10.2l11.35,2.15c7.967-3.867,16.6-6.167,25.9-6.9l6.3-7.3
				l7.4,7.4c9.634,0.833,18.55,3.417,26.75,7.75l10.5-2.7l1.6,10.55C133.533,29.967,135.467,31.783,137.4,33.75z"/>
			<g>
				<linearGradient id="SVGID_20_" gradientUnits="userSpaceOnUse" x1="85.6357" y1="164.6514" x2="85.7875" y2="3.7514">
					<stop  offset="0.0235" style="stop-color:#635F51;stop-opacity:0.6196"/>
					<stop  offset="1" style="stop-color:#E4E7E9;stop-opacity:0"/>
				</linearGradient>
				<path style="fill-rule:evenodd;clip-rule:evenodd;fill:url(#SVGID_20_);" d="M137.4,33.75c4.433,4.4,8.183,9.083,11.25,14.05
					l5.899,1.65l4.75,1.85l-3.6,11.75c2.2,6.967,3.3,14.417,3.3,22.35c0,0.733,0,1.483,0,2.25l6.85,9.25l-9.25,7.55
					c-2.133,8.1-5.6,15.533-10.399,22.3l0.8,11.75l-11.65,0.6c-6.267,5.801-13.066,10.284-20.399,13.45l-5.7,10.5l-10.75-5.7
					c-4.2,0.733-8.566,1.101-13.1,1.101c-4.134,0-8.15-0.3-12.05-0.9l-5.6,3.3l-4.85,2.25l-5.4-9.85
					c-8-3.267-15.35-8.017-22.05-14.25l-10.9-0.25l0.1-12.05c-0.2-0.2-0.367-0.417-0.5-0.65c-4.9-7.1-8.316-14.767-10.25-23
					L5.55,96.9l6.4-8.25c-0.067-1.101-0.1-2.184-0.1-3.25c0-8.133,1.183-15.8,3.55-23l-4.3-10.8l11.25-4.15
					c3.033-4.833,6.7-9.4,11-13.7c2.267-2.233,4.617-4.3,7.05-6.2l1.4-10.2l11.35,2.15c7.967-3.867,16.6-6.167,25.9-6.9l6.3-7.3
					l7.4,7.4c9.634,0.833,18.55,3.417,26.75,7.75l10.5-2.7l1.6,10.55C133.533,29.967,135.467,31.783,137.4,33.75z"/>
			</g>
		</g>
		<g>
			<linearGradient id="SVGID_21_" gradientUnits="userSpaceOnUse" x1="85.4639" y1="178.375" x2="86.0782" y2="41.7501">
				<stop  offset="0.0039" style="stop-color:#403C27"/>
				<stop  offset="1" style="stop-color:#FDFDFD"/>
			</linearGradient>
			<path style="fill-rule:evenodd;clip-rule:evenodd;fill:url(#SVGID_21_);" d="M171.6,98l-11.1,8.55
				c-2.1,7.533-5.366,14.601-9.8,21.2l0.45,14.55l-13.25,0.3c-6.101,5.534-12.684,9.95-19.75,13.25c-0.101,0-0.184,0.017-0.25,0.051
				l-7.101,12.8L98,161.8c-4.066,0.601-8.267,0.9-12.6,0.9c-3.833,0-7.55-0.233-11.15-0.7l-12.7,6.65l-6.5-11.851
				c-0.1,0-0.2-0.033-0.3-0.1c-7.6-3.233-14.633-7.767-21.1-13.601l-13.55-0.5l0.65-13.949c-4.9-7-8.417-14.767-10.55-23.301
				L0.05,98.15L7.6,87.35c0-0.667,0-1.316,0-1.95c0-8,1.083-15.583,3.25-22.75L6.2,49.6l13.1-5.15
				c3.067-4.833,6.767-9.383,11.1-13.65c1.767-1.8,3.717-3.517,5.85-5.15l2.6-13.25l14,2.55c7.4-3.4,15.333-5.517,23.8-6.35
				l8.95-9.05L95.4,8.7c8.699,1,16.833,3.383,24.399,7.15l13.05-2.9l3.101,13.65c0.066,0,0.133,0.05,0.2,0.15
				c1.466,1.267,2.916,2.617,4.35,4.05c4.233,4.233,7.9,8.717,11,13.45l13.05,4.95L160,62.5c0,0.067,0.017,0.117,0.05,0.15
				c2.134,7.167,3.2,14.75,3.2,22.75c0,0.4,0,0.783,0,1.15L171.6,98z M137.4,33.75c-1.934-1.967-3.867-3.783-5.801-5.45L130,17.75
				l-10.5,2.7c-8.2-4.333-17.116-6.917-26.75-7.75l-7.4-7.4l-6.3,7.3c-9.3,0.733-17.933,3.033-25.9,6.9L41.8,17.35l-1.4,10.2
				c-2.433,1.9-4.783,3.967-7.05,6.2c-4.3,4.3-7.967,8.867-11,13.7L11.1,51.6l4.3,10.8c-2.367,7.2-3.55,14.867-3.55,23
				c0,1.067,0.033,2.15,0.1,3.25l-6.4,8.25l8.35,6.149c1.934,8.233,5.35,15.9,10.25,23c0.133,0.233,0.3,0.45,0.5,0.65l-0.1,12.05
				l10.9,0.25c6.7,6.233,14.05,10.983,22.05,14.25l5.4,9.85l4.85-2.25l5.6-3.3c3.9,0.601,7.917,0.9,12.05,0.9
				c4.533,0,8.899-0.367,13.1-1.101l10.75,5.7l5.7-10.5c7.333-3.166,14.133-7.649,20.399-13.45l11.65-0.6l-0.8-11.75
				c4.8-6.767,8.267-14.2,10.399-22.3l9.25-7.55L159,87.65c0-0.767,0-1.517,0-2.25c0-7.933-1.1-15.383-3.3-22.35l3.6-11.75
				l-4.75-1.85l-5.899-1.65C145.583,42.833,141.833,38.15,137.4,33.75z"/>
		</g>
	</g>
	<g>
		
			<linearGradient id="SVGID_22_" gradientUnits="userSpaceOnUse" x1="-154.2358" y1="85.8008" x2="-16.2354" y2="85.8008" gradientTransform="matrix(7.243752e-006 -1 1 -0.001 1.313508e-004 4.683650e-004)">
			<stop  offset="0" style="stop-color:#EBE7E0"/>
			<stop  offset="0.1216" style="stop-color:#E1DED8"/>
			<stop  offset="0.7059" style="stop-color:#B5B6B5"/>
			<stop  offset="1" style="stop-color:#A5A7A8"/>
		</linearGradient>
		<path style="fill-rule:evenodd;clip-rule:evenodd;fill:url(#SVGID_22_);" d="M112.5,21.5c8.167,3.533,15.4,8.483,21.7,14.85
			c6.333,6.4,11.217,13.717,14.649,21.95c3.601,8.534,5.4,17.483,5.4,26.85c0,9.4-1.8,18.367-5.4,26.9
			c-3.433,8.233-8.316,15.533-14.649,21.9c-6.3,6.366-13.533,11.316-21.7,14.85c-8.5,3.566-17.384,5.351-26.65,5.351
			c-9.333,0-18.216-1.784-26.649-5.351c-8.2-3.533-15.45-8.483-21.75-14.85c-6.333-6.367-11.25-13.667-14.75-21.9
			c-3.567-8.533-5.35-17.5-5.35-26.9c0-9.367,1.783-18.316,5.35-26.85c3.5-8.233,8.417-15.55,14.75-21.95
			C43.75,29.983,51,25.033,59.2,21.5c8.433-3.567,17.316-5.35,26.649-5.35C95.116,16.15,104,17.933,112.5,21.5z"/>
	</g>
	
		<use xlink:href="#Symbol_5"  width="134" height="134" y="-134" transform="matrix(1 0 0 -1 18.75 18.0498)" style="overflow:visible;"/>
</g>
<g id="Layer_1">
	<g>
		
			<use xlink:href="#flash0.ai_x5F_0_x2F_Layer_1_x2F__x3C_Path_x3E__x5F_4"  width="22.287" height="32.806" x="0.032" y="-32.82" transform="matrix(1.7848 0 0 -1.8264 81.0498 49.2002)" style="overflow:visible;opacity:0.5781;enable-background:new    ;"/>
		
			<use xlink:href="#flash0.ai_x5F_0_x2F_Layer_1_x2F__x3C_Compound_Path_x3E_"  width="23.55" height="34.607" x="0.015" y="-34.555" transform="matrix(1.7848 0 0 -1.8264 81.0498 48.25)" style="overflow:visible;opacity:0.5391;enable-background:new    ;"/>
		<path style="fill-rule:evenodd;clip-rule:evenodd;fill:#FFFFFF;" d="M110.613,74.719l3.584,4.337
			c2.389,3.458,3.488,6.725,3.3,9.806c-0.252,3.771-1.761,6.915-4.526,9.429c-2.892,2.577-6.726,3.991-11.503,4.243
			c-5.47,0.253-10.184-2.104-14.144-7.071c-3.959-4.902-4.274-7.983-0.942-9.241c2.828-1.068,5.092-0.282,6.788,2.357
			c1.95,3.019,4.086,4.526,6.412,4.526c2.011,0,3.678-0.724,4.998-2.169c1.445-1.509,2.042-3.395,1.79-5.658
			c-0.25-2.011-2.607-3.332-7.071-3.959c-1.256-0.188-2.326-0.974-3.205-2.357c-0.692-1.068-1.101-2.263-1.227-3.583
			c-0.252-2.451,1.792-4.022,6.129-4.715c3.27-0.502,4.746-2.136,4.432-4.902c-0.376-3.457-2.954-4.871-7.731-4.243
			c-1.068,0.125-2.264,1.226-3.584,3.3c-1.318,1.949-2.891,2.954-4.714,3.017c-2.012,0.127-3.174-0.943-3.488-3.204l0.188-3.396
			c1.07-2.514,2.013-4.212,2.829-5.09c1.761-2.076,4.37-3.427,7.826-4.055c4.652-0.88,8.549-0.44,11.692,1.32
			c3.52,1.886,5.499,5.061,5.939,9.523c0.378,3.959-0.125,7.103-1.508,9.429C112.186,73.557,111.431,74.341,110.613,74.719z"/>
		<path style="fill-rule:evenodd;clip-rule:evenodd;fill:#E4E2D6;" d="M108.728,56.145c3.331,1.821,5.217,4.934,5.657,9.333
			c0.378,3.836-0.125,6.916-1.508,9.241c-0.691,1.195-1.446,1.98-2.264,2.357l3.584,4.243c2.389,3.457,3.488,6.663,3.3,9.617
			c-0.252,3.709-1.761,6.79-4.526,9.241c-2.892,2.576-6.726,3.99-11.503,4.242c-5.47,0.188-10.215-2.169-14.237-7.071
			c-3.897-4.777-4.181-7.763-0.849-8.958c1.823-0.628,3.74,0.44,5.751,3.207c2.201,3.017,4.589,4.524,7.166,4.524
			c2.013,0,3.867-0.753,5.563-2.262c1.886-1.635,2.703-3.552,2.451-5.753c-0.126-1.131-1.068-2.136-2.829-3.017
			c-1.508-0.755-3.235-1.258-5.186-1.508c-1.256-0.189-2.326-0.943-3.205-2.263c-0.692-1.068-1.101-2.263-1.227-3.584
			c-0.188-2.011,1.918-3.332,6.317-3.959c2.013-0.315,3.521-1.13,4.526-2.451c0.755-0.943,1.068-1.948,0.943-3.018
			c-0.188-1.821-1.29-3.079-3.301-3.772c-1.634-0.565-3.52-0.69-5.657-0.375c-1.068,0.125-2.264,1.162-3.584,3.11
			c-1.318,1.949-2.891,2.987-4.714,3.112c-2.012,0.063-3.174-1.005-3.488-3.206l0.188-3.3c1.008-2.263,2.013-3.928,3.019-4.998
			c1.948-2.074,4.652-3.394,8.108-3.959C101.814,54.038,105.648,54.447,108.728,56.145z"/>
		
			<use xlink:href="#flash0.ai_x5F_0_x2F_Layer_1_x2F__x3C_Path_x3E__x5F_1"  width="17.732" height="26.495" x="-0.171" y="-26.506" transform="matrix(1.8858 0 0 -1.8858 83.8501 53.8501)" style="overflow:visible;opacity:0.5781;enable-background:new    ;"/>
		<path style="fill-rule:evenodd;clip-rule:evenodd;fill:none;stroke:#000000;stroke-miterlimit:10;" d="M114.48,66.233
			c0.063-0.628,0.031-1.729-0.096-3.3c-0.44-4.462-2.42-7.637-5.939-9.523c-3.144-1.761-7.04-2.201-11.692-1.32
			c-3.456,0.628-6.065,1.979-7.826,4.055c-0.816,0.878-1.759,2.576-2.829,5.09l-0.188,1.039c-0.063,0.816-0.063,1.571,0,2.261
			c-0.315,3.584,0.849,5.313,3.488,5.186c1.823-0.063,3.396-1.068,4.714-3.017c1.32-2.073,2.516-3.175,3.584-3.3
			c4.589-0.628,7.135,0.69,7.637,3.959c-0.25,1.823-1.695,2.924-4.337,3.3c-4.337,0.692-6.381,2.264-6.129,4.715l0.095,0.755
			c-0.126,0.44-0.157,0.818-0.095,1.131c0.126,1.32,0.534,2.516,1.227,3.583c0.879,1.383,1.949,2.169,3.205,2.357
			c4.401,0.503,6.759,1.792,7.071,3.865c-0.25,1.761-1.037,3.238-2.357,4.433c-1.318,1.068-2.797,1.603-4.431,1.603
			c-2.326,0-4.462-1.508-6.412-4.526c-1.696-2.639-3.96-3.426-6.788-2.357c-1.571,0.63-2.17,1.95-1.792,3.961
			c-0.565,2.577,0.912,5.563,4.433,8.958c3.771,3.709,7.919,5.468,12.445,5.279c4.777-0.252,8.611-1.666,11.503-4.242
			c2.766-2.515,4.274-5.658,4.526-9.43l-0.094-1.697l0.094-0.188c0.188-4.211-1.761-8.58-5.845-13.106
			C113.663,73.745,114.605,70.57,114.48,66.233z"/>
	</g>
	<g>
		
			<use xlink:href="#flash0.ai_x2F_Layer_1_x2F__x3C_Path_x3E__x5F_2"  width="29.023" height="73.737" x="0.027" y="-73.758" transform="matrix(0.8829 0 0 -0.8129 48.5 49.6001)" style="overflow:visible;opacity:0.5781;enable-background:new    ;"/>
		<path style="fill-rule:evenodd;clip-rule:evenodd;fill:#B1CED2;" d="M70.909,49.641l1.06,0.529
			c0.794,0.487,1.427,1.016,1.898,1.585c0.765,0.921,1.207,2.385,1.325,4.39l0.794,48.653l-1.192,2.805
			c-1.295,1.924-3.252,3.021-5.872,3.292c-2.619,0.244-5.209-0.488-7.77-2.194l-3.09-2.643l0.485-38.125
			c-1.707,0.108-3.414-0.122-5.121-0.691c-3.414-1.111-5.091-3.319-5.033-6.625c0.03-3.712,0.913-6.543,2.649-8.495
			c1.119-1.273,2.398-2.032,3.841-2.276C55.973,49.627,61.314,49.56,70.909,49.641z M74.882,57.038
			c-0.294-2.574-0.78-4.295-1.457-5.162c-0.412-0.569-1.03-1.043-1.854-1.422l-1.104-0.407c-2.413-0.054-4.885-0.095-7.417-0.122
			c-5.062-0.054-7.887-0.014-8.476,0.122c-1.295,0.244-2.384,0.949-3.267,2.114c-1.442,1.815-2.09,4.525-1.943,8.129
			c0.147,3.089,1.766,5.067,4.856,5.934c1.53,0.434,3.046,0.556,4.547,0.366l0.221,38.532l2.737,2.561
			c2.266,1.653,4.547,2.357,6.843,2.113c2.295-0.243,4.047-1.354,5.253-3.332l1.148-2.887L74.882,57.038z"/>
		<path style="fill-rule:evenodd;clip-rule:evenodd;fill:#FFFFFF;" d="M72.222,56.946l-0.719,41.926
			c-0.133,0.691-0.426,1.371-0.878,2.036c-0.852,1.305-2.023,1.903-3.514,1.797c-1.49-0.106-2.754-0.759-3.793-1.957L62.2,98.992
			V61.338c-1.251,0.053-2.556,0.013-3.914-0.12c-2.688-0.213-4.312-0.705-4.871-1.477c-0.693-0.985-0.772-2.382-0.24-4.192
			c0.559-1.863,1.543-3.181,2.954-3.954c1.012-0.532,3.461-0.785,7.347-0.759c3.701,0,5.684,0.134,5.95,0.399
			c0.187,0.187,0.52,0.453,0.998,0.799c0.426,0.399,0.759,0.866,0.999,1.397C71.796,54.311,72.063,55.482,72.222,56.946z"/>
		<path style="fill-rule:evenodd;clip-rule:evenodd;fill:#E4E2D6;" d="M71.983,58.264v42.205c-0.16,0.692-0.479,1.371-0.958,2.036
			c-0.985,1.305-2.316,1.904-3.993,1.797c-1.65-0.105-3.047-0.759-4.192-1.956l-1.238-1.757V62.936
			c-1.092,0.053-2.236,0.04-3.434-0.04c-2.423-0.186-3.94-0.666-4.552-1.437c-0.852-1.092-1.185-2.476-0.998-4.153
			c0.187-1.891,1.051-3.208,2.595-3.953c1.384-0.666,4.193-0.905,8.425-0.719c2.129,0.081,4.113,0.227,5.949,0.44l0.718,0.599
			c0.506,0.532,0.879,1.091,1.119,1.677C71.876,56.414,72.063,57.385,71.983,58.264z"/>
		
			<linearGradient id="SVGID_23_" gradientUnits="userSpaceOnUse" x1="-144.373" y1="74.5605" x2="-75.073" y2="74.5605" gradientTransform="matrix(1.574760e-005 -1.0913 1.0913 -0.0011 -19.4998 -18.4002)">
			<stop  offset="0" style="stop-color:#000000"/>
			<stop  offset="0.0902" style="stop-color:#000000;stop-opacity:0.7961"/>
			<stop  offset="0.9961" style="stop-color:#000000;stop-opacity:0"/>
		</linearGradient>
		<path style="fill-rule:evenodd;clip-rule:evenodd;fill:url(#SVGID_23_);" d="M71.57,59.029v42.178l-0.982,2.02
			c-0.982,1.31-2.31,1.91-3.983,1.8c-1.637-0.108-3.037-0.763-4.202-1.964l-1.255-1.746v-37.65c-1.091,0.073-2.237,0.073-3.438,0
			c-2.401-0.218-3.911-0.709-4.529-1.473c-0.836-1.091-1.164-2.474-0.982-4.147c0.182-1.891,1.037-3.201,2.564-3.928
			c1.383-0.691,4.202-0.946,8.458-0.764c2.11,0.109,4.092,0.273,5.948,0.491c0.836,0.582,1.437,1.328,1.8,2.237
			C71.442,57.137,71.643,58.119,71.57,59.029z"/>
		<g>
			<path style="fill-rule:evenodd;clip-rule:evenodd;fill:none;stroke:#000000;stroke-miterlimit:10;" d="M71.424,53.432
				c-0.24-0.532-0.573-0.999-0.999-1.397c-0.479-0.346-0.812-0.612-0.998-0.799c-0.266-0.266-2.249-0.399-5.95-0.399
				c-3.886-0.026-6.335,0.227-7.347,0.759c-1.251,0.693-2.168,1.824-2.754,3.394c-0.612,0.985-0.866,2.143-0.759,3.475
				c0.08,1.251,0.413,2.249,0.998,2.995c0.612,0.771,2.129,1.251,4.552,1.437c1.198,0.08,2.342,0.093,3.434,0.04v37.653l1.238,1.757
				c1.145,1.197,2.542,1.851,4.192,1.956c1.677,0.107,3.008-0.492,3.993-1.797c0.479-0.665,0.799-1.344,0.958-2.036l0.239-43.522
				C72.063,55.482,71.796,54.311,71.424,53.432z"/>
		</g>
	</g>
</g>
<g id="Layer_2">
	
		<use xlink:href="#zz_x5F_Highlight_x2F_Highlight_Piece"  width="118.7" height="115.9" y="-115.9" transform="matrix(1 0 0 -1 26.5498 28.2998)" style="overflow:visible;"/>
</g>
<g id="Layer_4">
	<g>
		<g>
			
				<use xlink:href="#SIDE_x5F_DECOR"  width="177.48" height="60.2" x="0.01" y="-60.2" transform="matrix(0.95 0 0 -0.95 1.3501 98.5498)" style="overflow:visible;"/>
			<g>
				<path style="fill-rule:evenodd;clip-rule:evenodd;fill:#5C5942;" d="M44.95,121.05c0-0.166,0.066-0.316,0.2-0.45
					c0.133-0.166,0.3-0.25,0.5-0.25h82.15c0.167,0,0.334,0.084,0.5,0.25c0.134,0.134,0.2,0.284,0.2,0.45
					c0,4.634,1.983,7.267,5.95,7.9c0.633,0.1,1.316,0.149,2.05,0.149c0.2,0,0.384,0.084,0.55,0.25c0.134,0.134,0.2,0.284,0.2,0.45
					v27.351c0,0.166-0.066,0.333-0.2,0.5c-0.166,0.133-0.35,0.199-0.55,0.199c-0.733,0-1.417,0.051-2.05,0.15
					c-3.967,0.634-5.95,3.25-5.95,7.85c0,0.2-0.066,0.384-0.2,0.551c-0.166,0.133-0.333,0.199-0.5,0.199H45.65
					c-0.2,0-0.367-0.066-0.5-0.199c-0.133-0.167-0.2-0.351-0.2-0.551c0-5.333-2.667-8-8-8c-0.2,0-0.35-0.066-0.45-0.199
					c-0.167-0.167-0.25-0.334-0.25-0.5V129.8c0-0.166,0.083-0.316,0.25-0.45c0.1-0.166,0.25-0.25,0.45-0.25
					C42.283,129.1,44.95,126.417,44.95,121.05z M37.65,130.55v25.9c5.6,0.2,8.5,3.1,8.7,8.7h80.75c0.2-5.067,2.584-7.934,7.15-8.601
					c0.467-0.066,0.983-0.116,1.55-0.149V130.55c-0.566-0.033-1.083-0.083-1.55-0.149c-4.566-0.667-6.95-3.534-7.15-8.601H46.35
					C46.15,127.4,43.25,130.316,37.65,130.55z"/>
				
					<linearGradient id="SVGID_24_" gradientUnits="userSpaceOnUse" x1="152.3936" y1="-91.1025" x2="180.6813" y2="-91.1025" gradientTransform="matrix(-0.03 0.9995 -1.0039 0.1161 1.067091e-004 3.408641e-005)">
					<stop  offset="0.0235" style="stop-color:#737373"/>
					<stop  offset="0.0745" style="stop-color:#81807F"/>
					<stop  offset="0.4039" style="stop-color:#DAD4CA"/>
					<stop  offset="0.5765" style="stop-color:#EEEADB"/>
					<stop  offset="0.8941" style="stop-color:#FFFFFF"/>
				</linearGradient>
				<path style="fill-rule:evenodd;clip-rule:evenodd;fill:url(#SVGID_24_);" d="M41.65,132.9V154.8c5.267,0,7.9,2.351,7.9,7.05
					h74.5c0-4.1,1.983-6.416,5.95-6.949c0.6-0.067,1.25-0.101,1.95-0.101V132.9c-0.7,0-1.351-0.034-1.95-0.101
					c-3.967-0.533-5.95-2.833-5.95-6.899h-74.5C49.55,130.566,46.917,132.9,41.65,132.9z M40.55,131.9c5.4,0,8.1-2.5,8.1-7.5h76.3
					c0,4.366,2.05,6.833,6.149,7.399c0.601,0.066,1.267,0.101,2,0.101v23.5c-0.733,0-1.399,0.033-2,0.1
					c-4.1,0.566-6.149,3.033-6.149,7.4h-76.3c0-5-2.7-7.5-8.1-7.5V131.9z"/>
				<path style="fill-rule:evenodd;clip-rule:evenodd;fill:#F2F1E4;" d="M40.55,131.9v23.5c5.4,0,8.1,2.5,8.1,7.5h76.3
					c0-4.367,2.05-6.834,6.149-7.4c0.601-0.066,1.267-0.1,2-0.1v-23.5c-0.733,0-1.399-0.034-2-0.101
					c-4.1-0.566-6.149-3.033-6.149-7.399h-76.3C48.65,129.4,45.95,131.9,40.55,131.9z M37.65,130.55c5.6-0.233,8.5-3.149,8.7-8.75
					h80.75c0.2,5.066,2.584,7.934,7.15,8.601c0.467,0.066,0.983,0.116,1.55,0.149V156.4c-0.566,0.033-1.083,0.083-1.55,0.149
					c-4.566,0.667-6.95,3.533-7.15,8.601H46.35c-0.2-5.601-3.1-8.5-8.7-8.7V130.55z"/>
				<linearGradient id="SVGID_25_" gradientUnits="userSpaceOnUse" x1="86.8467" y1="203.1494" x2="86.7561" y2="86.8494">
					<stop  offset="0.0235" style="stop-color:#737373"/>
					<stop  offset="0.0745" style="stop-color:#81807F"/>
					<stop  offset="0.4039" style="stop-color:#DAD4CA"/>
					<stop  offset="0.5765" style="stop-color:#EEEADB"/>
					<stop  offset="0.749" style="stop-color:#FEFBE8"/>
					<stop  offset="0.9961" style="stop-color:#E4E7E9"/>
				</linearGradient>
				<path style="fill-rule:evenodd;clip-rule:evenodd;fill:url(#SVGID_25_);" d="M41.65,132.9c5.267,0,7.9-2.334,7.9-7h74.5
					c0,4.066,1.983,6.366,5.95,6.899c0.6,0.066,1.25,0.101,1.95,0.101V154.8c-0.7,0-1.351,0.033-1.95,0.101
					c-3.967,0.533-5.95,2.85-5.95,6.949h-74.5c0-4.699-2.633-7.05-7.9-7.05V132.9z"/>
			</g>
		</g>
		<g>
			<g>
				<path style="fill-rule:evenodd;clip-rule:evenodd;fill-opacity:0.251;" d="M53.15,133.45h0.05c0.667-0.601,1.483-0.9,2.45-0.9h9
					c1.067,0,1.95,0.3,2.65,0.9c0.633,0.633,0.95,1.434,0.95,2.399c0,1.101-0.3,1.867-0.9,2.301c-0.1,0.133-0.217,0.25-0.35,0.35
					c-0.567,0.4-1.35,0.6-2.35,0.6H59.1v3.7h5.05c1.1,0,1.967,0.3,2.6,0.9c0.6,0.6,0.9,1.383,0.9,2.35s-0.283,1.767-0.85,2.4
					l-0.05,0.05c-0.067,0.066-0.167,0.116-0.3,0.15c-0.6,0.466-1.367,0.699-2.3,0.699H59.1v3.801H65c1.1,0,1.95,0.316,2.55,0.949
					H67.5c0.6,0.601,0.9,1.367,0.9,2.301c0,1-0.3,1.8-0.9,2.399h0.05c-0.167,0.134-0.316,0.233-0.45,0.3
					c-0.567,0.434-1.267,0.65-2.1,0.65h-9.35c-0.967,0-1.783-0.3-2.45-0.9c-0.733-0.6-1.1-1.466-1.1-2.6V136.2
					C52.1,135.1,52.45,134.184,53.15,133.45z"/>
			</g>
			<g>
				<path style="fill-rule:evenodd;clip-rule:evenodd;fill:#FFFFFF;" d="M53.7,155.9c-0.333-0.101-0.633-0.267-0.9-0.5
					c-0.5-0.4-0.75-0.983-0.75-1.75V133.55c0-0.733,0.25-1.366,0.75-1.899c0.034,0,0.05-0.017,0.05-0.051
					c0.5-0.399,1.083-0.6,1.75-0.6h8.95c0.8,0,1.45,0.2,1.95,0.6l0.05,0.051c0.367,0.433,0.55,0.966,0.55,1.6
					c0,0.033,0,0.083,0,0.15c-0.033-0.2-0.133-0.384-0.3-0.551l-0.05-0.05c-0.433-0.366-1.017-0.55-1.75-0.55h-8.3
					c-0.3,0-0.583,0.05-0.85,0.15c-0.233,0.066-0.467,0.216-0.7,0.449v-0.05c-0.467,0.533-0.7,1.2-0.7,2V154.9
					C53.45,155.267,53.533,155.6,53.7,155.9z M57.9,151.6h6c0.767,0,1.35,0.217,1.75,0.65c0.367,0.366,0.55,0.884,0.55,1.55
					c0,0.066,0,0.117,0,0.15c-0.067-0.2-0.15-0.367-0.25-0.5c-0.434-0.434-1-0.65-1.7-0.65H58.4c-0.1,0-0.217-0.05-0.35-0.149
					c-0.1-0.101-0.15-0.217-0.15-0.351V151.6z M65.5,143.45c-0.1-0.167-0.2-0.3-0.3-0.4v0.05c-0.367-0.433-0.917-0.649-1.65-0.649
					H58.4c-0.1,0-0.217-0.05-0.35-0.15c-0.033-0.033-0.066-0.083-0.1-0.149c-0.034-0.067-0.05-0.134-0.05-0.2v-0.7h5
					c0.067,0,0.133,0,0.2,0c0.7,0.033,1.3,0.25,1.8,0.65v-0.051C65.3,142.217,65.5,142.75,65.5,143.45z"/>
				<path style="fill-rule:evenodd;clip-rule:evenodd;fill:#DED9CD;" d="M57.9,141.25v0.7c0,0.066,0.017,0.133,0.05,0.2
					c0.033,0.066,0.066,0.116,0.1,0.149c0.133,0.101,0.25,0.15,0.35,0.15h5.15c0.733,0,1.284,0.217,1.65,0.649v-0.05
					c0.1,0.101,0.2,0.233,0.3,0.4c0,0.633-0.2,1.166-0.6,1.6c-0.467,0.4-1.066,0.601-1.8,0.601h-5.6c-0.133,0-0.267,0.05-0.4,0.149
					c-0.1,0.101-0.15,0.233-0.15,0.4v4.85c0,0.167,0.05,0.3,0.15,0.4c0.133,0.1,0.267,0.149,0.4,0.149h0.4v0.7
					c0,0.134,0.05,0.25,0.15,0.351c0.133,0.1,0.25,0.149,0.35,0.149h5.85c0.7,0,1.267,0.217,1.7,0.65c0.1,0.133,0.183,0.3,0.25,0.5
					c-0.034,0.6-0.217,1.083-0.55,1.45c-0.4,0.433-0.983,0.649-1.75,0.649h-9.3c-0.333,0-0.633-0.05-0.9-0.149
					c-0.167-0.301-0.25-0.634-0.25-1V134.8c0-0.8,0.233-1.467,0.7-2v0.05c0.233-0.233,0.467-0.383,0.7-0.449
					c0.267-0.101,0.55-0.15,0.85-0.15H64c0.733,0,1.317,0.184,1.75,0.55l0.05,0.05c0.167,0.167,0.267,0.351,0.3,0.551
					c-0.033,0.633-0.217,1.1-0.55,1.399c-0.033,0-0.05,0.017-0.05,0.05c-0.433,0.4-1.083,0.601-1.95,0.601H57.5
					c-0.133,0-0.267,0.05-0.4,0.149c-0.1,0.134-0.15,0.267-0.15,0.4v4.75c0,0.134,0.05,0.233,0.15,0.3
					c0.133,0.134,0.267,0.2,0.4,0.2H57.9z"/>
				<path style="fill-rule:evenodd;clip-rule:evenodd;fill:#5C5942;" d="M53.7,155.9c0.267,0.1,0.566,0.149,0.9,0.149h9.3
					c0.767,0,1.35-0.217,1.75-0.649c0.333-0.367,0.517-0.851,0.55-1.45c0-0.033,0-0.084,0-0.15c0-0.666-0.184-1.184-0.55-1.55
					c-0.4-0.434-0.983-0.65-1.75-0.65h-6h-0.4c-0.133,0-0.267-0.05-0.4-0.149c-0.1-0.101-0.15-0.233-0.15-0.4v-4.85
					c0-0.167,0.05-0.3,0.15-0.4c0.133-0.1,0.267-0.149,0.4-0.149h5.6c0.733,0,1.333-0.2,1.8-0.601c0.4-0.434,0.6-0.967,0.6-1.6
					c0-0.7-0.2-1.233-0.6-1.601v0.051c-0.5-0.4-1.1-0.617-1.8-0.65c-0.067,0-0.133,0-0.2,0h-5h-0.4c-0.133,0-0.267-0.066-0.4-0.2
					c-0.1-0.066-0.15-0.166-0.15-0.3V136c0-0.134,0.05-0.267,0.15-0.4c0.133-0.1,0.267-0.149,0.4-0.149h6.05
					c0.867,0,1.517-0.2,1.95-0.601c0-0.033,0.017-0.05,0.05-0.05c0.333-0.3,0.517-0.767,0.55-1.399c0-0.067,0-0.117,0-0.15
					c0-0.634-0.184-1.167-0.55-1.6L65.5,131.6c-0.5-0.399-1.15-0.6-1.95-0.6H54.6c-0.667,0-1.25,0.2-1.75,0.6
					c0,0.034-0.017,0.051-0.05,0.051c-0.5,0.533-0.75,1.166-0.75,1.899v20.101c0,0.767,0.25,1.35,0.75,1.75
					C53.067,155.634,53.367,155.8,53.7,155.9z M52.05,130.85h0.05c0.667-0.6,1.5-0.899,2.5-0.899h8.95c1.067,0,1.95,0.3,2.65,0.899
					c0.633,0.634,0.95,1.434,0.95,2.4c0,1.1-0.3,1.866-0.9,2.3c-0.1,0.134-0.2,0.25-0.3,0.351c-0.567,0.399-1.367,0.6-2.4,0.6H58
					v3.65h5.1c1.066,0,1.917,0.3,2.55,0.899c0.6,0.601,0.9,1.4,0.9,2.4c0,0.934-0.283,1.717-0.85,2.35l-0.05,0.05
					c-0.066,0.067-0.167,0.134-0.3,0.2c-0.6,0.434-1.35,0.65-2.25,0.65H58v3.8h5.9c1.1,0,1.95,0.316,2.55,0.95H66.4
					c0.6,0.633,0.9,1.416,0.9,2.35c0,0.967-0.3,1.767-0.9,2.4h0.05c-0.167,0.1-0.3,0.2-0.4,0.3c-0.6,0.434-1.316,0.65-2.15,0.65
					h-9.3c-1,0-1.833-0.317-2.5-0.95c-0.733-0.601-1.1-1.45-1.1-2.55V133.55C51,132.483,51.35,131.583,52.05,130.85z"/>
				<path style="fill-rule:evenodd;clip-rule:evenodd;fill:#344021;" d="M67.7,153.45v1.8c-0.067-0.267-0.1-0.55-0.1-0.85
					C67.6,154.134,67.633,153.816,67.7,153.45z"/>
			</g>
		</g>
		<g>
			
				<use xlink:href="#flash0.ai_x2F_Layer_1_x2F__x3C_Path_x3E__x5F_3"  width="6.514" height="27.55" x="-0.014" y="-27.55" transform="matrix(0.95 0 0 -0.95 95.6504 133.5)" style="overflow:visible;opacity:0.25;enable-background:new    ;"/>
			<path style="fill-rule:evenodd;clip-rule:evenodd;fill:#FFFFFF;" d="M95.952,130.859h3.088l0.475,0.19
				c0.38,0.222,0.665,0.475,0.854,0.76c0.158,0.222,0.237,0.696,0.237,1.425v21.471l-0.379,1.614
				c-0.159,0.38-0.396,0.602-0.713,0.665l-3.421,0.047c-0.442-0.031-0.838-0.237-1.188-0.616c-0.188-0.159-0.316-0.428-0.379-0.809
				l-0.096-0.522v-22.087c-0.095-0.38,0.064-0.839,0.475-1.378c0.19-0.285,0.412-0.49,0.666-0.617L95.952,130.859z"/>
			<path style="fill-rule:evenodd;clip-rule:evenodd;fill:#E7E2D4;" d="M96.997,132.617h2.138l0.333,0.189
				c0.284,0.19,0.49,0.428,0.616,0.713c0.096,0.222,0.144,0.665,0.144,1.33v19.997l-0.238,1.521
				c-0.095,0.348-0.269,0.554-0.521,0.617l-2.375,0.047c-0.286-0.031-0.556-0.222-0.809-0.569c-0.126-0.158-0.222-0.412-0.285-0.76
				l-0.047-0.522v-20.567c-0.063-0.349,0.047-0.775,0.332-1.282c0.127-0.254,0.285-0.443,0.476-0.57L96.997,132.617z"/>
			<path style="fill-rule:evenodd;clip-rule:evenodd;fill:#5C5942;" d="M96.047,131.334l-0.237,0.096
				c-0.19,0.095-0.349,0.254-0.476,0.476h-0.047c-0.285,0.379-0.412,0.712-0.381,0.997v22.229l0.096,0.475
				c0.032,0.222,0.11,0.396,0.237,0.523c0.254,0.253,0.538,0.396,0.854,0.427l3.325-0.047c0.159-0.032,0.286-0.111,0.381-0.238
				v-0.095l0.332-1.377v-21.565c0-0.569-0.048-0.95-0.143-1.141c-0.158-0.222-0.364-0.41-0.617-0.569l-0.428-0.19H96.047z
				 M94.527,131.382c0.222-0.38,0.507-0.648,0.854-0.808l0.523-0.189h3.229l0.57,0.237h0.047v0.047
				c0.443,0.254,0.792,0.555,1.045,0.903c0.19,0.253,0.285,0.808,0.285,1.662v21.708l-0.38,1.567v0.047h-0.047
				c-0.222,0.508-0.571,0.808-1.046,0.902l-3.516,0.048c-0.569-0.032-1.06-0.254-1.472-0.664l-0.048-0.049
				c-0.253-0.189-0.428-0.522-0.522-0.997l-0.095-0.522v-20.947c-0.032-0.127-0.032-0.269,0-0.428v-0.902
				C93.862,132.521,94.052,131.983,94.527,131.382z"/>
		</g>
		<g>
			
				<use xlink:href="#flash0.ai_x2F_Layer_1_x2F__x3C_Path_x3E__x5F_3_x5F_0"  width="16.45" height="27.8" y="-27.8" transform="matrix(0.95 0 0 -0.95 107.7998 133)" style="overflow:visible;opacity:0.25;enable-background:new    ;"/>
			<path style="fill-rule:evenodd;clip-rule:evenodd;fill:#FFFFFF;" d="M119.939,130.622c0.569,0.127,1.014,0.301,1.329,0.522
				c0.508,0.349,0.793,0.871,0.855,1.567l-0.237,2.328c-0.316,0.411-0.665,0.696-1.045,0.854l-1.235,0.475h-6.982l-0.094,14.583
				h7.124l1.614,0.713c0.317,0.189,0.523,0.569,0.618,1.14v2.612c-0.253,0.411-0.569,0.697-0.95,0.854l-1.33,0.285l-9.595,0.428
				c-0.95-0.222-1.821-0.617-2.612-1.188c-0.19-0.126-0.396-0.38-0.618-0.76l-0.237-0.522v-21.422
				c0.159-0.824,0.412-1.394,0.761-1.711c0.253-0.189,0.633-0.396,1.14-0.617c0.253-0.096,0.49-0.175,0.712-0.237h10.023
				L119.939,130.622z"/>
			<path style="fill-rule:evenodd;clip-rule:evenodd;fill:#E7E2D4;" d="M120.081,132.237c0.476,0.127,0.855,0.301,1.141,0.522
				c0.443,0.349,0.744,0.76,0.902,1.234l-0.189,2.28c-0.285,0.381-0.586,0.649-0.903,0.808l-1.092,0.475h-5.984l-0.19,14.915h5.842
				l0.523-0.047c0.379-0.032,0.664,0.016,0.854,0.143c0.253,0.222,0.555,0.648,0.902,1.282l0.048,1.994
				c-0.254,0.381-0.538,0.649-0.854,0.809c-0.317,0.157-0.697,0.269-1.141,0.332h-9.263c-0.602-0.253-1.013-0.507-1.234-0.76
				l-0.761-1.235v-20.614c0.158-0.792,0.396-1.331,0.713-1.615c0.189-0.19,0.475-0.349,0.854-0.476
				c0.19-0.063,0.365-0.11,0.522-0.142h8.646L120.081,132.237z"/>
			<path style="fill-rule:evenodd;clip-rule:evenodd;fill:#5C5942;" d="M119.893,131.097l-0.761-0.095h-9.927
				c-0.19,0.063-0.381,0.143-0.571,0.238v-0.048c-0.443,0.189-0.775,0.38-0.997,0.569h-0.047c-0.254,0.285-0.443,0.76-0.57,1.426
				v21.231l0.189,0.428V154.8c0.159,0.284,0.317,0.49,0.476,0.617c0.696,0.507,1.472,0.87,2.327,1.093l0.618-0.19v0.19h9.167
				c0.412-0.063,0.76-0.158,1.045-0.285c0.223-0.095,0.411-0.27,0.57-0.522v-2.803c-0.063-0.412-0.19-0.681-0.381-0.807
				l-1.425-0.666h-6.555l0.048-14.915h6.697l0.997-0.38c0.222-0.126,0.428-0.316,0.618-0.569l0.237-2.186l-0.047-0.237l0.047-0.096
				v-0.284c-0.031-0.538-0.237-0.95-0.618-1.235c-0.284-0.19-0.68-0.332-1.188-0.428H119.893z M119.228,130.053l0.76,0.094h0.047
				c0.634,0.159,1.141,0.365,1.521,0.618c0.602,0.412,0.95,1.045,1.045,1.9v0.047l-0.048,0.476l0.048,0.189v0.048l-0.237,2.327
				v0.143l-0.095,0.095c-0.35,0.476-0.697,0.808-1.046,0.998h-0.047l-0.048,0.047l-1.14,0.428h-5.938l-0.048,13.016h5.747l1.71,0.76
				h0.048v0.047c0.443,0.222,0.728,0.713,0.855,1.473v3.183l-0.048,0.095c-0.285,0.507-0.649,0.855-1.093,1.046h0.047
				c-0.379,0.189-0.822,0.316-1.329,0.379h-10.022c-0.096-0.031-0.174-0.047-0.237-0.047c-0.918-0.253-1.758-0.649-2.518-1.188
				c-0.254-0.159-0.507-0.476-0.76-0.95h-0.048l-0.285-0.665v-21.612c0.189-0.95,0.507-1.6,0.95-1.947v-0.048
				c0.285-0.189,0.696-0.412,1.235-0.665h0.047c0.254-0.127,0.507-0.206,0.76-0.237l0.048-0.047H119.228z"/>
		</g>
		<g>
			<path style="fill-rule:evenodd;clip-rule:evenodd;fill:#FFFFFF;" d="M83.744,141.024c0.064-0.38,0.096-1.267,0.096-2.66
				c0-1.583-0.111-2.422-0.333-2.518c-0.189-0.063-0.966-0.079-2.327-0.047l-1.948,0.047l-0.142,5.272
				C82.098,141.372,83.649,141.341,83.744,141.024z M73.057,134.469c0.158-1.266,0.427-2.169,0.808-2.707
				c0.253-0.348,0.681-0.617,1.282-0.807c0.443-0.159,0.808-0.237,1.093-0.237l9.642-0.096l0.998,0.522
				c0.696,0.38,1.107,0.681,1.234,0.902c0.412,0.696,0.617,1.742,0.617,3.135l-0.617,7.695l0.048,0.476
				c0,0.411-0.095,0.887-0.285,1.425c-0.317,0.854-1.029,1.282-2.138,1.282h-6.174v8.787l-0.096,0.57
				c-0.063,0.411-0.142,0.697-0.238,0.854c-0.158,0.222-0.522,0.412-1.092,0.571h-3.42c-0.412-0.159-0.776-0.396-1.092-0.713
				c-0.19-0.19-0.364-0.508-0.523-0.95l-0.19-0.57L73.057,134.469z"/>
			
				<use xlink:href="#flash0.ai_x2F_Layer_1_x2F__x3C_Compound_Path_x3E__x5F_2"  width="16.95" height="27.85" y="-27.85" transform="matrix(0.95 0 0 -0.95 74.7998 133.2002)" style="overflow:visible;opacity:0.25;enable-background:new    ;"/>
			<path style="fill-rule:evenodd;clip-rule:evenodd;fill:#DFD9CE;" d="M84.694,139.79c-0.032-1.488-0.142-2.28-0.333-2.375
				c-0.19-0.063-0.887-0.08-2.09-0.048l-1.805,0.048l-0.143,4.939c2.755,0.222,4.18,0.189,4.275-0.095
				C84.663,141.943,84.694,141.119,84.694,139.79z M87.069,132.665c0.412,0.189,0.729,0.538,0.95,1.044
				c0.349,0.729,0.539,1.488,0.57,2.28v8.028l0.047,0.427c0.032,0.38-0.047,0.823-0.237,1.33c-0.316,0.791-0.981,1.188-1.994,1.188
				h-5.606v8.266l-0.332,1.282c-0.159,0.222-0.491,0.411-0.998,0.57h-3.135c-0.38-0.159-0.712-0.381-0.998-0.665
				c-0.19-0.19-0.348-0.476-0.475-0.855l-0.142-0.57l0.095-18.857c0.126-1.172,0.38-2.011,0.76-2.518
				c0.222-0.349,0.618-0.633,1.188-0.854c0.412-0.158,0.76-0.238,1.044-0.238h8.74L87.069,132.665z"/>
			<path style="fill-rule:evenodd;clip-rule:evenodd;fill:#5C5942;" d="M84.268,136.893v0.475c0.094,1.646,0.079,2.897-0.048,3.752
				v0.048c-0.063,0.443-1.409,0.617-4.038,0.522h-0.475l0.048-4.75L84.268,136.893z M83.269,140.93
				c0.096-0.729,0.127-1.758,0.096-3.087l-2.66,0.047l-0.048,2.897C82.272,140.851,83.143,140.897,83.269,140.93z M75.29,131.43
				c-0.475,0.126-0.823,0.332-1.045,0.617c-0.317,0.475-0.554,1.283-0.712,2.422l-0.143,20.093l0.19,0.476
				c0.095,0.348,0.222,0.602,0.38,0.76c0.253,0.253,0.57,0.459,0.95,0.618h-0.047l0.998,0.189h3.278
				c0.348-0.095,0.585-0.206,0.712-0.333v-0.047c0.063-0.095,0.143-0.285,0.237-0.569H80.04l0.095-0.523v-8.645h6.508
				c0.822,0,1.377-0.285,1.662-0.855c0.158-0.476,0.237-0.87,0.237-1.188l-0.048-0.427v-8.075c0.158-1.425,0.016-2.565-0.427-3.421
				c-0.253-0.506-0.696-0.902-1.33-1.188l-0.855-0.237l-9.642,0.096c-0.254,0-0.554,0.079-0.903,0.237H75.29z M73.484,131.478
				c0.285-0.412,0.792-0.729,1.52-0.95c0.507-0.19,0.918-0.285,1.235-0.285l9.738-0.096l0.047,0.048l1.045,0.285h0.048
				c0.886,0.349,1.488,0.887,1.805,1.614c0.507,0.982,0.681,2.281,0.522,3.896v8.028l0.048,0.427c0,0.443-0.096,0.95-0.285,1.521
				c-0.38,0.981-1.235,1.473-2.564,1.473h-5.558v7.885l-0.095,0.521v0.049c-0.127,0.442-0.253,0.744-0.38,0.901
				c-0.158,0.286-0.585,0.539-1.282,0.761h-3.563l-1.14-0.237h-0.047c-0.475-0.19-0.903-0.475-1.283-0.855
				c-0.222-0.222-0.427-0.585-0.617-1.093v-0.047l-0.237-0.617l0.142-20.283C72.772,133.06,73.073,132.078,73.484,131.478z"/>
		</g>
	</g>
</g>
</svg>
