<?xml version="1.0" encoding="iso-8859-1"?>
<!-- Generator: Adobe Illustrator 15.1.0, SVG Export Plug-In . SVG Version: 6.00 Build 0)  -->
<!DOCTYPE svg PUBLIC "-//W3C//DTD SVG 1.1//EN" "http://www.w3.org/Graphics/SVG/1.1/DTD/svg11.dtd">
<svg version="1.1" xmlns="http://www.w3.org/2000/svg" xmlns:xlink="http://www.w3.org/1999/xlink" x="0px" y="0px" width="172.4px"
	 height="172.4px" viewBox="0 0 172.4 172.4" style="enable-background:new 0 0 172.4 172.4;" xml:space="preserve">
<symbol  id="BG_x2F_bg_purple" viewBox="0 -133.55 133.6 133.55">
	<g id="Layer_1_20_">
		<g>
			<g>
				
					<use xlink:href="#zzz_x5F_miscellaneous_x2F_FlashAICB_copy_2_x2F_Layer_1_x2F__x3C_Path_x3E__x5F_1_x5F_0"  width="110" height="55.75" y="-55.75" transform="matrix(1 0 0 1 11.6499 -7.75)" style="overflow:visible;opacity:0.1094;enable-background:new    ;"/>
				
					<use xlink:href="#zzz_x5F_miscellaneous_x2F_FlashAICB_copy_2_x2F_Layer_1_x2F__x3C_Path_x3E__x5F_3"  width="110" height="61.294" y="-61.294" transform="matrix(1 0 0 1 11.6499 -7.75)" style="overflow:visible;opacity:0.0898;enable-background:new    ;"/>
			</g>
			<g>
				
					<use xlink:href="#zzz_x5F_miscellaneous_x2F_FlashAICB_copy_2_x2F_Layer_1_x2F__x3C_Path_x3E__x5F_1_x5F_1"  width="110" height="55.75" y="-55.75" transform="matrix(1 0 0 1 11.7998 -7.75)" style="overflow:visible;opacity:0.1094;enable-background:new    ;"/>
				
					<use xlink:href="#zzz_x5F_miscellaneous_x2F_FlashAICB_copy_2_x2F_Layer_1_x2F__x3C_Path_x3E__x5F_4"  width="110" height="61.294" y="-61.294" transform="matrix(1 0 0 1 11.7998 -7.75)" style="overflow:visible;opacity:0.0898;enable-background:new    ;"/>
			</g>
			<g>
				
					<linearGradient id="SVGID_1_" gradientUnits="userSpaceOnUse" x1="16086.29" y1="-65.7388" x2="16218.2393" y2="-65.7388" gradientTransform="matrix(7.580064e-006 1 -1 -0.001 0.9385 -16219.1055)">
					<stop  offset="0.0745" style="stop-color:#322639"/>
					<stop  offset="0.1882" style="stop-color:#4A384F"/>
					<stop  offset="0.4353" style="stop-color:#856489"/>
					<stop  offset="0.6" style="stop-color:#B185B3"/>
					<stop  offset="0.9216" style="stop-color:#EEEAC5"/>
				</linearGradient>
				<path style="fill-rule:evenodd;clip-rule:evenodd;fill:url(#SVGID_1_);" d="M113.4-20.15c12.9-12.9,19.35-28.433,19.35-46.6
					c0-18.2-6.45-33.75-19.35-46.65c-12.9-12.9-28.433-19.35-46.6-19.35c-18.2,0-33.733,6.45-46.6,19.35
					C7.3-100.5,0.85-84.95,0.85-66.75c0,18.167,6.45,33.7,19.35,46.6C33.066-7.25,48.6-0.8,66.8-0.8
					C84.967-0.8,100.5-7.25,113.4-20.15z"/>
				<path style="fill-rule:evenodd;clip-rule:evenodd;fill:#36263B;" d="M112.85-20.7C100.116-8,84.767-1.65,66.8-1.65
					c-18,0-33.35-6.35-46.05-19.05C8.017-33.434,1.65-48.784,1.65-66.75c0-18,6.367-33.367,19.1-46.1
					c12.7-12.7,28.05-19.05,46.05-19.05c17.967,0,33.316,6.35,46.05,19.05c12.7,12.733,19.05,28.1,19.05,46.1
					C131.9-48.784,125.55-33.434,112.85-20.7z M92.35-5.05c8.134-3.367,15.35-8.2,21.65-14.5c6.333-6.3,11.183-13.517,14.55-21.65
					c3.367-8.1,5.05-16.617,5.05-25.55c0-8.934-1.683-17.467-5.05-25.6c-3.367-8.1-8.217-15.317-14.55-21.65
					c-6.3-6.3-13.517-11.134-21.65-14.5c-8.1-3.367-16.616-5.05-25.55-5.05s-17.45,1.684-25.55,5.05
					c-8.134,3.366-15.367,8.2-21.7,14.5c-6.3,6.333-11.133,13.55-14.5,21.65C1.683-84.217,0-75.684,0-66.75
					C0-57.817,1.683-49.3,5.05-41.2c3.367,8.133,8.2,15.35,14.5,21.65c6.3,6.3,13.517,11.133,21.65,14.5S57.866,0,66.8,0
					S84.25-1.684,92.35-5.05z"/>
			</g>
			
				<use xlink:href="#zzz_x5F_miscellaneous_x2F_FlashAICB_copy_2_x2F_Layer_1_x2F__x3C_Path_x3E__x5F_5"  width="118.5" height="118.25" y="-118.25" transform="matrix(1 0 0 1 7.5498 -5.5)" style="overflow:visible;opacity:0.3789;enable-background:new    ;"/>
		</g>
	</g>
</symbol>
<symbol  id="Decorations_x2F_leaves" viewBox="-177.3 -73.2 132.35 132.4">
	<g id="Layer_2_2_">
		<g>
			<path style="fill-rule:evenodd;clip-rule:evenodd;fill:#FFFFFF;fill-opacity:0;" d="M-111.1,59.2
				c18.233,0,33.816-6.467,46.75-19.4c12.934-12.933,19.4-28.533,19.4-46.8s-6.466-33.867-19.4-46.8
				c-12.933-12.934-28.516-19.4-46.75-19.4c-18.267,0-33.867,6.467-46.801,19.4C-170.833-40.867-177.3-25.267-177.3-7
				s6.467,33.867,19.399,46.8C-144.967,52.733-129.366,59.2-111.1,59.2z"/>
		</g>
	</g>
	<g id="Layer_1_21_">
		<path style="fill-rule:evenodd;clip-rule:evenodd;fill-opacity:0.8784;" d="M-164.3,9.85c0.1-0.1,0.149-0.233,0.149-0.4L-164.2,9
			c0-0.4,0.017-0.617,0.05-0.65c0.134-0.067,0.351-0.1,0.65-0.1c0.934,0,2.05,0.467,3.35,1.4c1.101,0.934,2.4,1.4,3.9,1.4
			c0.533,0,1.05-0.066,1.55-0.2h0.05c1.467-0.5,2.351-1.1,2.65-1.8c0.2-0.5,0.184-0.983-0.05-1.45
			c-0.267-0.7-0.967-1.117-2.101-1.25c-0.333,0-0.6-0.05-0.8-0.15c-0.5-0.267-0.967-0.867-1.399-1.8
			c-0.467-1.066-0.5-1.95-0.101-2.65c0.134-0.367,0.434-0.6,0.9-0.7h0.2c0.366,0,0.633,0.133,0.8,0.4
			c0.166,0.367,0.149,0.75-0.05,1.15c-0.267,0.467-0.4,0.933-0.4,1.4c0,0.3,0.167,0.483,0.5,0.55h0.45
			c1.366,0,2.416-0.517,3.149-1.55c0.834-1.233,0.95-2.667,0.351-4.3c-0.367-0.9-0.967-1.617-1.8-2.15
			c-0.801-0.5-1.75-0.75-2.851-0.75c-1.7,0-3.149,0.55-4.35,1.65l-0.05-0.15c-0.134-0.433-0.317-0.8-0.551-1.1
			c-0.899-1.1-2.083-1.65-3.55-1.65c-0.899,0-1.783,0.217-2.649,0.65c-0.834,0.433-1.534,1-2.101,1.7c-1,1.2-1.316,2.517-0.95,3.95
			c0.167,0.733,0.5,1.367,1,1.9s1.084,0.883,1.75,1.05c-0.666,0.434-1.116,0.967-1.35,1.6c-0.366,0.967-0.25,1.95,0.35,2.95
			c0.634,1.033,1.601,1.583,2.9,1.65C-164.583,10.033-164.434,9.983-164.3,9.85z M-164.75,8.65c0.033,0.367,0.05,0.633,0.05,0.8
			c-1.166-0.067-1.983-0.534-2.45-1.4c-0.566-0.933-0.633-1.816-0.199-2.65c0.399-0.767,1.083-1.3,2.05-1.6
			c0.899-0.267,1.783-0.233,2.649,0.1c0.034-1.133-0.066-2.066-0.3-2.8c-0.333-1.033-0.883-1.467-1.649-1.3
			c-0.634,0.133-0.983,0.617-1.051,1.45c-0.033,0.733,0.167,1.417,0.601,2.05l-0.3,0.05c-0.801,0.066-1.534-0.133-2.2-0.6
			c-0.667-0.5-1.101-1.167-1.3-2c-0.5-2.2,0.416-3.883,2.75-5.05c2.3-1.133,4.133-0.85,5.5,0.85c0.166,0.233,0.333,0.55,0.5,0.95
			c0.133,0.4,0.283,0.717,0.449,0.95c1.034-1.4,2.534-2.083,4.5-2.05c2.067,0,3.417,0.833,4.051,2.5c0.5,1.3,0.449,2.483-0.15,3.55
			c-0.634,1.167-1.684,1.683-3.15,1.55c0-0.267,0.134-0.717,0.4-1.35c0.233-0.467,0.217-0.95-0.05-1.45
			c-0.334-0.6-0.867-0.833-1.601-0.7c-0.866,0.167-1.383,0.717-1.55,1.65c-0.133,0.8-0.017,1.617,0.351,2.45
			c0.433,1.1,1,1.8,1.699,2.1c0.067,0.033,0.551,0.133,1.45,0.3c0.601,0.133,0.983,0.4,1.15,0.8c0.233,0.6,0.083,1.117-0.45,1.55
			c-0.333,0.3-0.95,0.617-1.85,0.95c-1.9,0.434-3.534,0.083-4.9-1.05c-2-1.5-3.583-1.95-4.75-1.35
			C-164.7,8.067-164.783,8.317-164.75,8.65z M-164.55,3.05L-164.6,3c-0.5-0.733-0.634-1.483-0.4-2.25c0.1-0.233,0.267-0.367,0.5-0.4
			c0.267-0.067,0.467,0,0.6,0.2c0.434,0.434,0.65,1.3,0.65,2.6l-0.9-0.1H-164.55z M-61.25,9.65c1.3-0.933,2.417-1.4,3.35-1.4
			c0.3,0,0.517,0.033,0.65,0.1C-57.217,8.383-57.2,8.6-57.2,9l-0.05,0.45c0,0.167,0.05,0.3,0.15,0.4
			c0.133,0.133,0.283,0.183,0.45,0.15c1.3-0.067,2.267-0.617,2.9-1.65c0.6-1,0.717-1.983,0.35-2.95
			c-0.233-0.633-0.684-1.167-1.35-1.6c0.667-0.167,1.25-0.517,1.75-1.05s0.833-1.167,1-1.9c0.367-1.434,0.05-2.75-0.95-3.95
			c-0.566-0.7-1.267-1.267-2.1-1.7c-0.867-0.434-1.75-0.65-2.65-0.65c-1.466,0-2.65,0.55-3.55,1.65c-0.233,0.3-0.417,0.667-0.55,1.1
			l-0.05,0.15c-1.2-1.1-2.65-1.65-4.35-1.65c-1.1,0-2.05,0.25-2.85,0.75c-0.833,0.534-1.434,1.25-1.8,2.15
			c-0.6,1.633-0.483,3.066,0.35,4.3c0.733,1.033,1.783,1.55,3.15,1.55h0.45c0.333-0.066,0.5-0.25,0.5-0.55
			c0-0.467-0.133-0.933-0.4-1.4c-0.2-0.4-0.217-0.783-0.05-1.15c0.167-0.267,0.434-0.4,0.8-0.4h0.2c0.467,0.1,0.767,0.333,0.9,0.7
			c0.4,0.7,0.367,1.583-0.1,2.65c-0.434,0.934-0.9,1.533-1.4,1.8c-0.2,0.1-0.466,0.15-0.8,0.15c-1.133,0.133-1.833,0.55-2.1,1.25
			c-0.233,0.467-0.25,0.95-0.05,1.45c0.3,0.7,1.183,1.3,2.65,1.8h0.05c0.5,0.133,1.017,0.2,1.55,0.2
			C-63.65,11.05-62.35,10.583-61.25,9.65z M-67.7,7c0.9-0.167,1.383-0.267,1.45-0.3c0.7-0.3,1.267-1,1.7-2.1
			c0.367-0.833,0.483-1.65,0.35-2.45c-0.167-0.933-0.683-1.483-1.55-1.65c-0.733-0.133-1.267,0.1-1.6,0.7
			c-0.267,0.5-0.283,0.983-0.05,1.45C-67.133,3.283-67,3.733-67,4c-1.467,0.133-2.517-0.383-3.15-1.55
			c-0.6-1.067-0.65-2.25-0.15-3.55c0.633-1.667,1.983-2.5,4.05-2.5c1.967-0.033,3.467,0.65,4.5,2.05
			c0.167-0.233,0.317-0.55,0.45-0.95c0.167-0.4,0.333-0.717,0.5-0.95c1.367-1.7,3.2-1.983,5.5-0.85c2.333,1.167,3.25,2.85,2.75,5.05
			c-0.2,0.833-0.633,1.5-1.3,2c-0.667,0.467-1.4,0.667-2.2,0.6l-0.3-0.05c0.434-0.633,0.633-1.316,0.6-2.05
			c-0.067-0.833-0.417-1.317-1.05-1.45c-0.767-0.167-1.317,0.267-1.65,1.3c-0.233,0.733-0.333,1.667-0.3,2.8
			c0.867-0.333,1.75-0.367,2.65-0.1c0.967,0.3,1.65,0.833,2.05,1.6c0.433,0.833,0.367,1.717-0.2,2.65
			c-0.467,0.867-1.283,1.333-2.45,1.4c0-0.167,0.017-0.434,0.05-0.8c0.033-0.333-0.05-0.583-0.25-0.75
			c-1.167-0.6-2.75-0.15-4.75,1.35c-1.367,1.133-3,1.483-4.9,1.05c-0.9-0.333-1.517-0.65-1.85-0.95
			c-0.533-0.434-0.684-0.95-0.45-1.55C-68.683,7.4-68.3,7.133-67.7,7z M-57.25,3.05l-0.9,0.1c0-1.3,0.217-2.167,0.65-2.6
			c0.133-0.2,0.333-0.267,0.6-0.2c0.233,0.033,0.4,0.167,0.5,0.4c0.233,0.767,0.1,1.517-0.4,2.25l-0.05,0.05H-57.25z"/>
		<path style="fill-rule:evenodd;clip-rule:evenodd;fill:#FFFFFF;fill-opacity:0.8;" d="M-162.45,10.55
			c-0.033,0-0.05,0.017-0.05,0.05l-0.5,0.65c-0.467,0.467-1.033,0.7-1.7,0.7h-0.1c-2.066-0.1-3.566-0.983-4.5-2.65
			c-0.9-1.533-1.05-3.066-0.45-4.6l0.15-0.35l-0.051-0.15c-0.8-0.8-1.35-1.767-1.649-2.9c-0.467-2-0.017-3.867,1.35-5.6
			c0.733-0.934,1.667-1.667,2.8-2.2c1.134-0.567,2.284-0.85,3.45-0.85c1.9,0,3.483,0.684,4.75,2.05h0.15
			c1.166-0.534,2.366-0.8,3.6-0.8c1.467,0,2.783,0.367,3.95,1.1c1.134,0.733,1.95,1.733,2.45,3c0.434,1.033,0.6,2.083,0.5,3.15
			c-0.101,1.067-0.434,2.033-1,2.9c-0.4,0.6-0.934,1.117-1.601,1.55l-0.05,0.1v0.1c0.267,0.267,0.483,0.617,0.65,1.05
			c0.434,1,0.45,1.983,0.05,2.95c-0.533,1.167-1.783,2.117-3.75,2.85l-0.25,0.05c-0.767,0.167-1.434,0.25-2,0.25
			c-2,0-3.7-0.6-5.1-1.8l-1-0.6C-162.384,10.517-162.417,10.517-162.45,10.55z M-162.35,10.8l0.8,0.5c1.467,1.267,3.233,1.9,5.3,1.9
			c0.6,0,1.283-0.083,2.05-0.25l0.3-0.1c2.034-0.767,3.317-1.75,3.851-2.95c0.467-1.033,0.467-2.083,0-3.15
			c-0.134-0.333-0.334-0.667-0.601-1c0.534-0.333,1.051-0.85,1.551-1.55c0.6-0.867,0.949-1.867,1.05-3
			c0.1-1.133-0.066-2.233-0.5-3.3c-0.533-1.3-1.384-2.333-2.55-3.1c-1.2-0.767-2.567-1.15-4.101-1.15c-1.2,0-2.416,0.267-3.649,0.8
			c-1.301-1.367-2.917-2.05-4.851-2.05c-1.233,0-2.434,0.283-3.6,0.85c-1.167,0.567-2.117,1.333-2.851,2.3
			c-1.399,1.767-1.85,3.7-1.35,5.8c0.267,1.133,0.816,2.133,1.65,3L-170,4.6c-0.634,1.633-0.467,3.25,0.5,4.85
			c1,1.733,2.55,2.65,4.65,2.75h0.149c0.733,0,1.367-0.267,1.9-0.8L-162.35,10.8z M-67.15,12.7l-0.25-0.05
			c-1.967-0.733-3.217-1.683-3.75-2.85c-0.4-0.966-0.383-1.95,0.05-2.95c0.167-0.434,0.383-0.783,0.65-1.05V5.7l-0.05-0.1
			c-0.667-0.434-1.2-0.95-1.6-1.55c-0.566-0.867-0.9-1.833-1-2.9c-0.1-1.066,0.067-2.117,0.5-3.15c0.5-1.267,1.317-2.267,2.45-3
			c1.167-0.733,2.483-1.1,3.95-1.1c1.233,0,2.434,0.267,3.6,0.8h0.15c1.267-1.367,2.85-2.05,4.75-2.05
			c1.167,0,2.317,0.283,3.45,0.85c1.133,0.533,2.067,1.267,2.8,2.2c1.367,1.733,1.817,3.6,1.35,5.6c-0.3,1.133-0.85,2.1-1.65,2.9
			l-0.05,0.15l0.15,0.35c0.6,1.533,0.45,3.066-0.45,4.6c-0.933,1.667-2.433,2.55-4.5,2.65h-0.1c-0.667,0-1.233-0.233-1.7-0.7
			l-0.5-0.65c0-0.033-0.017-0.05-0.05-0.05c-0.033-0.033-0.066-0.033-0.1,0l-1,0.6c-1.4,1.2-3.1,1.8-5.1,1.8
			C-65.717,12.95-66.383,12.867-67.15,12.7z M-67.5,12.85l0.3,0.1c0.767,0.167,1.45,0.25,2.05,0.25c2.066,0,3.833-0.633,5.3-1.9
			l0.8-0.5l0.45,0.6c0.533,0.533,1.167,0.8,1.9,0.8h0.15c2.1-0.1,3.65-1.017,4.65-2.75c0.967-1.6,1.133-3.217,0.5-4.85l-0.15-0.25
			c0.833-0.867,1.383-1.867,1.65-3c0.5-2.1,0.05-4.033-1.35-5.8c-0.733-0.966-1.683-1.733-2.85-2.3
			c-1.167-0.567-2.367-0.85-3.6-0.85c-1.933,0-3.55,0.684-4.85,2.05c-1.233-0.534-2.45-0.8-3.65-0.8c-1.533,0-2.9,0.383-4.1,1.15
			c-1.167,0.767-2.017,1.8-2.55,3.1c-0.433,1.067-0.6,2.167-0.5,3.3s0.45,2.133,1.05,3c0.5,0.7,1.017,1.216,1.55,1.55
			c-0.267,0.333-0.467,0.667-0.6,1c-0.467,1.067-0.467,2.117,0,3.15C-70.817,11.1-69.533,12.083-67.5,12.85z"/>
		<linearGradient id="SVGID_2_" gradientUnits="userSpaceOnUse" x1="-61.5249" y1="-7.25" x2="-61.5249" y2="12.25">
			<stop  offset="0.0745" style="stop-color:#000000;stop-opacity:0.5294"/>
			<stop  offset="0.9647" style="stop-color:#000000;stop-opacity:0.102"/>
		</linearGradient>
		<path style="fill-rule:evenodd;clip-rule:evenodd;fill:url(#SVGID_2_);" d="M-67.15,12.7c0.767,0.167,1.433,0.25,2,0.25
			c2,0,3.7-0.6,5.1-1.8l1-0.6c0.033-0.033,0.066-0.033,0.1,0c0.034,0,0.05,0.017,0.05,0.05l0.5,0.65c0.467,0.467,1.033,0.7,1.7,0.7
			h0.1c2.067-0.1,3.567-0.983,4.5-2.65c0.9-1.533,1.05-3.066,0.45-4.6l-0.15-0.35l0.05-0.15c0.8-0.8,1.35-1.767,1.65-2.9
			c0.467-2,0.017-3.867-1.35-5.6c-0.733-0.934-1.667-1.667-2.8-2.2c-1.133-0.567-2.283-0.85-3.45-0.85c-1.9,0-3.483,0.684-4.75,2.05
			h-0.15c-1.167-0.534-2.367-0.8-3.6-0.8c-1.466,0-2.783,0.367-3.95,1.1c-1.133,0.733-1.95,1.733-2.45,3
			c-0.433,1.033-0.6,2.083-0.5,3.15c0.1,1.067,0.434,2.033,1,2.9c0.4,0.6,0.934,1.117,1.6,1.55l0.05,0.1v0.1
			c-0.267,0.267-0.483,0.617-0.65,1.05c-0.433,1-0.45,1.983-0.05,2.95c0.533,1.167,1.783,2.117,3.75,2.85L-67.15,12.7z M-61.25,9.65
			c-1.1,0.934-2.4,1.4-3.9,1.4c-0.533,0-1.05-0.066-1.55-0.2h-0.05c-1.467-0.5-2.35-1.1-2.65-1.8c-0.2-0.5-0.184-0.983,0.05-1.45
			c0.267-0.7,0.967-1.117,2.1-1.25c0.333,0,0.6-0.05,0.8-0.15c0.5-0.267,0.967-0.867,1.4-1.8c0.466-1.066,0.5-1.95,0.1-2.65
			c-0.133-0.367-0.433-0.6-0.9-0.7h-0.2c-0.367,0-0.633,0.133-0.8,0.4C-67.017,1.817-67,2.2-66.8,2.6c0.267,0.467,0.4,0.933,0.4,1.4
			c0,0.3-0.167,0.483-0.5,0.55h-0.45c-1.367,0-2.417-0.517-3.15-1.55c-0.833-1.233-0.95-2.667-0.35-4.3
			c0.367-0.9,0.967-1.617,1.8-2.15c0.8-0.5,1.75-0.75,2.85-0.75c1.7,0,3.15,0.55,4.35,1.65l0.05-0.15
			c0.133-0.433,0.316-0.8,0.55-1.1c0.9-1.1,2.083-1.65,3.55-1.65c0.9,0,1.784,0.217,2.65,0.65c0.833,0.433,1.533,1,2.1,1.7
			c1,1.2,1.317,2.517,0.95,3.95c-0.167,0.733-0.5,1.367-1,1.9s-1.083,0.883-1.75,1.05c0.667,0.434,1.117,0.967,1.35,1.6
			c0.367,0.967,0.25,1.95-0.35,2.95c-0.633,1.033-1.6,1.583-2.9,1.65c-0.167,0.033-0.317-0.017-0.45-0.15
			c-0.1-0.1-0.15-0.233-0.15-0.4L-57.2,9c0-0.4-0.017-0.617-0.05-0.65c-0.133-0.067-0.35-0.1-0.65-0.1
			C-58.833,8.25-59.95,8.717-61.25,9.65z M-57.25,3.05h0.4L-56.8,3c0.5-0.733,0.633-1.483,0.4-2.25c-0.1-0.233-0.267-0.367-0.5-0.4
			c-0.267-0.067-0.467,0-0.6,0.2c-0.433,0.434-0.65,1.3-0.65,2.6L-57.25,3.05z"/>
		
			<linearGradient id="SVGID_3_" gradientUnits="userSpaceOnUse" x1="16212.0166" y1="161.29" x2="16231.5166" y2="161.29" gradientTransform="matrix(5.128206e-005 1 -1 -0.001 0.5835 -16219.1055)">
			<stop  offset="0.0745" style="stop-color:#000000;stop-opacity:0.5294"/>
			<stop  offset="0.9647" style="stop-color:#000000;stop-opacity:0.102"/>
		</linearGradient>
		<path style="fill-rule:evenodd;clip-rule:evenodd;fill:url(#SVGID_3_);" d="M-162.45,10.55c0.033-0.033,0.066-0.033,0.101,0l1,0.6
			c1.399,1.2,3.1,1.8,5.1,1.8c0.566,0,1.233-0.083,2-0.25l0.25-0.05c1.967-0.733,3.217-1.683,3.75-2.85
			c0.4-0.966,0.384-1.95-0.05-2.95c-0.167-0.434-0.384-0.783-0.65-1.05V5.7l0.05-0.1c0.667-0.434,1.2-0.95,1.601-1.55
			c0.566-0.867,0.899-1.833,1-2.9c0.1-1.066-0.066-2.117-0.5-3.15c-0.5-1.267-1.316-2.267-2.45-3c-1.167-0.733-2.483-1.1-3.95-1.1
			c-1.233,0-2.434,0.267-3.6,0.8h-0.15c-1.267-1.367-2.85-2.05-4.75-2.05c-1.166,0-2.316,0.283-3.45,0.85
			c-1.133,0.533-2.066,1.267-2.8,2.2c-1.366,1.733-1.816,3.6-1.35,5.6c0.3,1.133,0.85,2.1,1.649,2.9l0.051,0.15l-0.15,0.35
			c-0.6,1.533-0.45,3.066,0.45,4.6c0.934,1.667,2.434,2.55,4.5,2.65h0.1c0.667,0,1.233-0.233,1.7-0.7l0.5-0.65
			C-162.5,10.567-162.483,10.55-162.45,10.55z M-164.3,9.85c-0.134,0.133-0.283,0.183-0.45,0.15c-1.3-0.067-2.267-0.617-2.9-1.65
			c-0.6-1-0.716-1.983-0.35-2.95c0.233-0.633,0.684-1.167,1.35-1.6c-0.666-0.167-1.25-0.517-1.75-1.05s-0.833-1.167-1-1.9
			c-0.366-1.434-0.05-2.75,0.95-3.95c0.566-0.7,1.267-1.267,2.101-1.7c0.866-0.434,1.75-0.65,2.649-0.65
			c1.467,0,2.65,0.55,3.55,1.65c0.233,0.3,0.417,0.667,0.551,1.1l0.05,0.15c1.2-1.1,2.649-1.65,4.35-1.65
			c1.101,0,2.05,0.25,2.851,0.75c0.833,0.534,1.433,1.25,1.8,2.15c0.6,1.633,0.483,3.066-0.351,4.3
			c-0.733,1.033-1.783,1.55-3.149,1.55h-0.45C-154.833,4.483-155,4.3-155,4c0-0.467,0.134-0.933,0.4-1.4
			c0.199-0.4,0.216-0.783,0.05-1.15c-0.167-0.267-0.434-0.4-0.8-0.4h-0.2c-0.467,0.1-0.767,0.333-0.9,0.7
			c-0.399,0.7-0.366,1.583,0.101,2.65c0.433,0.934,0.899,1.533,1.399,1.8c0.2,0.1,0.467,0.15,0.8,0.15
			c1.134,0.133,1.834,0.55,2.101,1.25c0.233,0.467,0.25,0.95,0.05,1.45c-0.3,0.7-1.184,1.3-2.65,1.8h-0.05
			c-0.5,0.133-1.017,0.2-1.55,0.2c-1.5,0-2.8-0.466-3.9-1.4c-1.3-0.933-2.416-1.4-3.35-1.4c-0.3,0-0.517,0.033-0.65,0.1
			c-0.033,0.033-0.05,0.25-0.05,0.65l0.05,0.45C-164.15,9.617-164.2,9.75-164.3,9.85z M-164.55,3.05h0.399l0.9,0.1
			c0-1.3-0.217-2.167-0.65-2.6c-0.133-0.2-0.333-0.267-0.6-0.2c-0.233,0.033-0.4,0.167-0.5,0.4c-0.233,0.767-0.1,1.517,0.4,2.25
			L-164.55,3.05z"/>
		
			<use xlink:href="#zzz_x5F_miscellaneous_x2F_leaves_working"  width="116.565" height="15.46" x="0.018" y="-15.48" transform="matrix(1 0 0 1 -169 10.5)" style="overflow:visible;"/>
	</g>
</symbol>
<symbol  id="Frames_x2F_level_07" viewBox="0 -172.4 172.4 172.4">
	<g id="Layer_1_2_">
		<g>
			<path style="fill-rule:evenodd;clip-rule:evenodd;fill:#6B757B;" d="M52.65-6.8C63.35-2.267,74.534,0,86.2,0
				s22.85-2.267,33.55-6.8c10.3-4.367,19.434-10.517,27.4-18.45c7.933-7.966,14.083-17.1,18.45-27.4
				c4.534-10.7,6.8-21.883,6.8-33.55c0-11.667-2.267-22.85-6.8-33.55c-4.367-10.3-10.517-19.433-18.45-27.4
				c-7.967-7.933-17.1-14.083-27.4-18.45c-10.7-4.534-21.883-6.8-33.55-6.8s-22.85,2.267-33.55,6.8
				c-10.3,4.367-19.434,10.517-27.4,18.45c-7.933,7.967-14.083,17.1-18.45,27.4C2.267-109.05,0-97.867,0-86.2
				c0,11.667,2.267,22.85,6.8,33.55c4.367,10.3,10.517,19.434,18.45,27.4C33.217-17.316,42.35-11.167,52.65-6.8z"/>
			
				<linearGradient id="SVGID_4_" gradientUnits="userSpaceOnUse" x1="16046.6201" y1="-85.1538" x2="16219.0205" y2="-85.1538" gradientTransform="matrix(5.800464e-006 1 -1 -0.001 0.9531 -16219.1055)">
				<stop  offset="0.0235" style="stop-color:#737373"/>
				<stop  offset="0.0745" style="stop-color:#81807F"/>
				<stop  offset="0.4039" style="stop-color:#DAD4CA"/>
				<stop  offset="0.5765" style="stop-color:#EEEADB"/>
				<stop  offset="0.749" style="stop-color:#FEFBE8"/>
				<stop  offset="0.9961" style="stop-color:#E4E7E9"/>
			</linearGradient>
			<path style="fill-rule:evenodd;clip-rule:evenodd;fill:url(#SVGID_4_);" d="M52.65-6.8C63.35-2.267,74.534,0,86.2,0
				s22.85-2.267,33.55-6.8c10.3-4.367,19.434-10.517,27.4-18.45c7.933-7.966,14.083-17.1,18.45-27.4
				c4.534-10.7,6.8-21.883,6.8-33.55c0-11.667-2.267-22.85-6.8-33.55c-4.367-10.3-10.517-19.433-18.45-27.4
				c-7.967-7.933-17.1-14.083-27.4-18.45c-10.7-4.534-21.883-6.8-33.55-6.8s-22.85,2.267-33.55,6.8
				c-10.3,4.367-19.434,10.517-27.4,18.45c-7.933,7.967-14.083,17.1-18.45,27.4C2.267-109.05,0-97.867,0-86.2
				c0,11.667,2.267,22.85,6.8,33.55c4.367,10.3,10.517,19.434,18.45,27.4C33.217-17.316,42.35-11.167,52.65-6.8z"/>
			<g>
				<g>
					
						<linearGradient id="SVGID_5_" gradientUnits="userSpaceOnUse" x1="16060.0205" y1="-85.145" x2="16205.6201" y2="-85.145" gradientTransform="matrix(6.869312e-006 1 -1 -0.001 0.9443 -16219.1055)">
						<stop  offset="0" style="stop-color:#EBE7E0"/>
						<stop  offset="0.1216" style="stop-color:#E1DED8"/>
						<stop  offset="0.7059" style="stop-color:#B5B6B5"/>
						<stop  offset="1" style="stop-color:#A5A7A8"/>
					</linearGradient>
					<path style="fill-rule:evenodd;clip-rule:evenodd;fill:url(#SVGID_5_);" d="M114.55-19.1c8.7-3.7,16.417-8.917,23.15-15.65
						c6.7-6.7,11.9-14.4,15.6-23.1c3.8-9.034,5.7-18.483,5.7-28.35s-1.9-19.317-5.7-28.35c-3.7-8.7-8.9-16.417-15.6-23.15
						c-6.733-6.7-14.45-11.9-23.15-15.6c-9.034-3.8-18.483-5.7-28.35-5.7s-19.316,1.9-28.35,5.7c-8.7,3.7-16.4,8.9-23.1,15.6
						c-6.733,6.733-11.95,14.45-15.65,23.15c-3.8,9.033-5.7,18.483-5.7,28.35s1.9,19.316,5.7,28.35c3.7,8.7,8.917,16.4,15.65,23.1
						c6.7,6.733,14.4,11.95,23.1,15.65c9.034,3.8,18.483,5.7,28.35,5.7S105.517-15.3,114.55-19.1z"/>
				</g>
			</g>
		</g>
	</g>
</symbol>
<symbol  id="Letters_x2F_digit_1" viewBox="0 -26.35 9.95 26.35">
	<g id="Layer_1_24_">
		<path style="fill-rule:evenodd;clip-rule:evenodd;fill:#FFFFFF;" d="M9.95-23.2v-0.35c0-0.867-0.25-1.567-0.75-2.1
			c-0.5-0.467-1.15-0.7-1.95-0.7s-1.45,0.233-1.95,0.7c-0.5,0.533-0.75,1.233-0.75,2.1v0.35c0.034-0.8,0.284-1.45,0.75-1.95
			c0.5-0.467,1.15-0.7,1.95-0.7s1.45,0.233,1.95,0.7C9.667-24.65,9.917-24,9.95-23.2z M0.55-4.2C1.017-4.733,1.65-5,2.45-5h2.1v-0.5
			h-2.1c-0.8,0-1.434,0.267-1.9,0.8C0.183-4.267,0-3.7,0-3c0,0.067,0,0.133,0,0.2C0.033-3.367,0.217-3.833,0.55-4.2z"/>
		
			<use xlink:href="#zzz_x5F_miscellaneous_x2F_digit_1x"  width="9.95" height="25.85" y="-25.85" style="overflow:visible;enable-background:new    ;"/>
		
			<use xlink:href="#zzz_x5F_miscellaneous_x2F_digit_1x"  width="9.95" height="25.85" y="-25.85" style="overflow:visible;opacity:0.4219;enable-background:new    ;"/>
	</g>
</symbol>
<symbol  id="Letters_x2F_digit_2" viewBox="0 -26.55 17.4 26.55">
	<g id="Layer_1_25_">
		<path style="fill-rule:evenodd;clip-rule:evenodd;fill:#FFFFFF;" d="M11.05-7.75c0-0.1,0-0.183,0-0.25
			c-0.066,0.667-0.316,1.233-0.75,1.7C9.8-5.733,9.183-5.45,8.45-5.45C7.017-5.45,6-6.433,5.4-8.4c-0.6-1.934-1.45-2.9-2.55-2.9
			c-0.833,0-1.5,0.267-2,0.8C0.417-10,0.2-9.383,0.2-8.65c0,0.1,0,0.2,0,0.3C0.233-8.983,0.45-9.533,0.85-10
			c0.5-0.533,1.167-0.8,2-0.8c1.1,0,1.95,0.966,2.55,2.9C6-5.933,7.017-4.95,8.45-4.95c0.733,0,1.35-0.283,1.85-0.85
			C10.8-6.333,11.05-6.983,11.05-7.75z M16.65-8c0-2.1-1.05-4.55-3.15-7.35c-1.133-1.467-2.817-3.45-5.05-5.95H8
			c2.467,2.733,4.3,4.883,5.5,6.45c2.033,2.7,3.083,5.067,3.15,7.1C16.65-7.817,16.65-7.9,16.65-8z M0-23.95
			c0.133-1.4,1.067-2.1,2.8-2.1h12c0.767,0,1.383,0.183,1.85,0.55c0.467,0.4,0.717,0.933,0.75,1.6c0-0.067,0-0.15,0-0.25
			c0-0.8-0.25-1.417-0.75-1.85c-0.467-0.367-1.083-0.55-1.85-0.55h-12c-1.867,0-2.8,0.8-2.8,2.4C0-24.083,0-24.017,0-23.95z"/>
		
			<use xlink:href="#zzz_x5F_miscellaneous_x2F_digit_2x"  width="17.4" height="26.05" y="-26.05" style="overflow:visible;enable-background:new    ;"/>
		
			<use xlink:href="#zzz_x5F_miscellaneous_x2F_digit_2x"  width="17.4" height="26.05" y="-26.05" style="overflow:visible;opacity:0.4219;enable-background:new    ;"/>
	</g>
</symbol>
<symbol  id="Letters_x2F_digit_5" viewBox="0 -26.6 17.45 26.6">
	<g id="Layer_1_23_">
		<path style="fill-rule:evenodd;clip-rule:evenodd;fill:#FFFFFF;" d="M0-21.75c0,0.1,0,0.183,0,0.25
			c0.033-0.3,0.117-0.583,0.25-0.85c0.367-0.967,1.283-1.8,2.75-2.5c1.7-0.833,3.35-1.25,4.95-1.25c3.033,0,5.4,0.917,7.1,2.75
			c0.3,0.3,0.567,0.633,0.8,1c1,1.533,1.533,3.45,1.6,5.75c0-2.533-0.534-4.617-1.6-6.25c-0.233-0.367-0.5-0.7-0.8-1
			c-1.7-1.833-4.066-2.75-7.1-2.75c-1.6,0-3.25,0.417-4.95,1.25c-1.467,0.7-2.383,1.533-2.75,2.5C0.083-22.517,0-22.15,0-21.75z
			 M6.2-13.35c0.733,0.4,1.466,0.6,2.2,0.6c1.067,0,1.917-0.333,2.55-1c0.6-0.667,0.9-1.55,0.9-2.65c0-0.1,0-0.184,0-0.25
			c-0.033,0.967-0.333,1.767-0.9,2.4c-0.633,0.667-1.483,1-2.55,1c-0.733,0-1.467-0.2-2.2-0.6c-0.767-0.4-1.45-0.6-2.05-0.6
			c-0.633,0-1.167,0.2-1.6,0.6C2.183-13.483,2-13.117,2-12.75l0.05,0.25c0.067-0.3,0.233-0.583,0.5-0.85
			c0.434-0.4,0.967-0.6,1.6-0.6C4.75-13.95,5.433-13.75,6.2-13.35z M14.6-5c0.566,0,1.066,0.15,1.5,0.45
			c0.633,0.4,0.983,1.05,1.05,1.95c0-0.066,0-0.133,0-0.2c0-1.067-0.35-1.817-1.05-2.25c-0.434-0.3-0.934-0.45-1.5-0.45H7.85
			L7.4-8.8c-0.033,0-0.066,0-0.1,0L7.85-5H14.6z"/>
		
			<use xlink:href="#zzz_x5F_miscellaneous_x2F_digit_5x"  width="17.45" height="26.1" y="-26.1" style="overflow:visible;enable-background:new    ;"/>
		
			<use xlink:href="#zzz_x5F_miscellaneous_x2F_digit_5x"  width="17.45" height="26.1" y="-26.1" style="overflow:visible;opacity:0.4219;enable-background:new    ;"/>
	</g>
</symbol>
<symbol  id="Symbol_1" viewBox="-0.006 -24.307 26.141 24.283">
	<g id="Layer_1_11_">
		<g>
			<path style="fill-rule:evenodd;clip-rule:evenodd;fill:#DAE0E6;" d="M4.04-0.053c0.836-0.106,2.459-0.668,4.869-1.686
				c3.664-1.517,7.394-3.887,11.191-7.11c4.861-4.133,6.766-7.578,5.715-10.334c-0.913-2.423-3.681-3.803-8.301-4.141
				c-2.111-0.146-3.896,0.027-5.352,0.52c-1.6,0.533-2.654,1.395-3.161,2.585c-0.436,1.001-0.375,1.896,0.182,2.686
				c0.262,0.392,0.577,0.692,0.943,0.9c-0.993,0.211-2.025,0.533-3.096,0.966c-2.187,0.926-3.555,1.998-4.101,3.214
				c-0.384,0.91-0.13,1.945,0.761,3.106c0.432,0.561,0.914,1.047,1.443,1.458c-0.457,0.08-1.315,0.64-2.575,1.682
				c-1.54,1.257-2.234,2.36-2.082,3.308C0.839-0.788,2.027,0.16,4.04-0.053z"/>
			<path style="fill-rule:evenodd;clip-rule:evenodd;fill:#9CACB8;" d="M26.113-17.085c0.115-1.268-0.214-2.438-0.987-3.507
				c-0.957-1.345-2.155-2.245-3.593-2.699l-1.932-0.28l2.338,2.858c0.551,0.653,0.416,1.934-0.404,3.844l0.656-0.227
				c0.562-0.093,1.127-0.032,1.697,0.183c0.765,0.253,1.354,0.71,1.767,1.369L26.113-17.085z"/>
			<path style="fill-rule:evenodd;clip-rule:evenodd;fill:#D3DFE8;" d="M2.948-1.747c1.353-0.14,2.793-0.636,4.32-1.489
				c4.185-2.263,7.608-4.541,10.27-6.833c4.521-3.963,6.256-7.577,5.204-10.843c-0.684-2.208-2.866-3.285-6.545-3.231
				c-1.738,0.029-3.26,0.339-4.566,0.93c-1.352,0.649-2.292,1.534-2.818,2.652c-0.43,0.968-0.46,1.811-0.093,2.529
				c0.203,0.346,0.442,0.597,0.717,0.753c-0.836,0.277-1.711,0.664-2.625,1.162c-1.899,1.017-3.12,2.117-3.66,3.301
				c-0.417,0.902-0.297,1.844,0.358,2.822C3.852-9.483,4.228-9.069,4.64-8.75C3.876-8.493,3.119-8.1,2.368-7.569
				c-1.475,1.101-2.208,2.4-2.198,3.896C0.219-2.202,1.145-1.561,2.948-1.747z"/>
			
				<linearGradient id="SVGID_6_" gradientUnits="userSpaceOnUse" x1="15524.7891" y1="-966.3628" x2="15580.4893" y2="-966.3628" gradientTransform="matrix(-0.1941 0.9807 -0.9805 -0.1951 2083.7266 -15455.4697)">
				<stop  offset="0" style="stop-color:#65808C"/>
				<stop  offset="0.1373" style="stop-color:#738C97;stop-opacity:0.9059"/>
				<stop  offset="0.4" style="stop-color:#99ABB3;stop-opacity:0.6627"/>
				<stop  offset="0.7569" style="stop-color:#D4DCDF;stop-opacity:0.2745"/>
				<stop  offset="0.9882" style="stop-color:#FFFFFF;stop-opacity:0"/>
			</linearGradient>
			<path style="fill-rule:evenodd;clip-rule:evenodd;fill:url(#SVGID_6_);" d="M2.948-1.747c1.353-0.14,2.793-0.636,4.32-1.489
				c4.185-2.263,7.608-4.541,10.27-6.833c4.521-3.963,6.256-7.577,5.204-10.843c-0.684-2.208-2.866-3.285-6.545-3.231
				c-1.738,0.029-3.26,0.339-4.566,0.93c-1.352,0.649-2.292,1.534-2.818,2.652c-0.43,0.968-0.46,1.811-0.093,2.529
				c0.203,0.346,0.442,0.597,0.717,0.753c-0.836,0.277-1.711,0.664-2.625,1.162c-1.899,1.017-3.12,2.117-3.66,3.301
				c-0.417,0.902-0.297,1.844,0.358,2.822C3.852-9.483,4.228-9.069,4.64-8.75C3.876-8.493,3.119-8.1,2.368-7.569
				c-1.475,1.101-2.208,2.4-2.198,3.896C0.219-2.202,1.145-1.561,2.948-1.747z"/>
			<path style="fill-rule:evenodd;clip-rule:evenodd;fill:#F2F9FF;" d="M0.684-1.635l3.606-0.458
				c3.064-0.718,6.195-2.205,9.393-4.459c4.66-3.291,7.556-5.995,8.689-8.115c0.586-1.073,0.696-1.799,0.329-2.177
				c-0.097,0.66-0.526,1.543-1.289,2.649c-1.518,2.179-3.906,4.373-7.163,6.582C11.234-5.593,8.065-3.996,4.74-2.819L0.684-1.635z"
				/>
			<path style="fill-rule:evenodd;clip-rule:evenodd;fill:#9CACB8;" d="M-0.006-3.555l0.488-1.177
				c0.625-0.929,1.663-1.709,3.113-2.339C6.056-8.18,7.904-9.106,9.138-9.847c-1.013,0.14-2.11,0.364-3.292,0.673
				C3.507-8.515,1.982-7.679,1.272-6.665c-0.671,0.988-1.088,1.806-1.25,2.453L-0.006-3.555z"/>
			<path style="fill-rule:evenodd;clip-rule:evenodd;fill:#91A0AB;" d="M3.152-12.815l1.978-1.239
				c1.6-0.872,3.153-1.516,4.662-1.931c2.404-0.645,3.472-1.062,3.204-1.251c-0.483-0.13-1.118-0.188-1.902-0.173
				c-1.509,0.075-2.946,0.47-4.311,1.185c-1.364,0.715-2.37,1.501-3.015,2.359L3.152-12.815z"/>
			<path style="fill-rule:evenodd;clip-rule:evenodd;fill:#91A0AB;" d="M9.145-21.208l1.831-1.014
				c1.462-0.696,2.801-1.11,4.017-1.243c1.967-0.155,4.209,0.018,6.726,0.516c-0.589-0.286-1.367-0.559-2.335-0.818
				c-1.903-0.513-3.759-0.66-5.569-0.44c-1.81,0.219-3.129,0.791-3.957,1.713L9.145-21.208z"/>
			<path style="fill-rule:evenodd;clip-rule:evenodd;fill:#91A0AB;" d="M9.386-13.161c-0.397,0.635-0.38,1.233,0.053,1.794
				c0.242,0.319,0.563,0.587,0.962,0.802l5.105-0.823c-0.784,0.014-1.556-0.037-2.314-0.153c-1.549-0.238-2.279-0.671-2.188-1.299
				c0.058-0.634,0.723-1.25,1.997-1.847c0.672-0.309,1.313-0.539,1.92-0.69c-0.209-0.143-0.425-0.339-0.648-0.586
				c-0.479-0.502-0.803-1.008-0.974-1.518c-0.138-0.502,1.014-1.005,3.457-1.507c1.235-0.23,2.477-0.41,3.725-0.537
				c-2.158-0.767-3.525-1.411-4.102-1.933c-0.341-0.339,0.541-0.589,2.645-0.75c1.072-0.094,2.17-0.148,3.294-0.163
				c-0.752-0.319-1.609-0.54-2.57-0.662c-1.89-0.238-3.31,0.075-4.262,0.939c-0.672,0.648-0.73,1.197-0.173,1.647
				c0.262,0.222,0.602,0.391,1.021,0.507c-1.758-0.042-3.156,0.412-4.193,1.362c-0.666,0.616-0.694,1.272-0.084,1.97
				c0.269,0.359,0.619,0.649,1.051,0.87C11.265-15.014,10.025-14.155,9.386-13.161z"/>
			<path style="fill-rule:evenodd;clip-rule:evenodd;fill:#91A0AB;" d="M18.76-12.12c-0.17-0.17-0.35-0.375-0.54-0.617
				c-0.38-0.483-0.597-0.933-0.65-1.352c-0.046-0.451,0.524-0.932,1.713-1.444c0.594-0.255,1.178-0.463,1.753-0.621
				c-0.262-0.222-0.526-0.512-0.795-0.871c-0.543-0.685-0.82-1.351-0.828-1.998s0.534-1.151,1.625-1.513
				c0.581-0.19,1.149-0.316,1.705-0.376c-0.608-0.188-1.262-0.232-1.961-0.133c-1.326,0.179-2.083,0.913-2.27,2.201
				c-0.109,0.726-0.011,1.425,0.298,2.097c0.17,0.339,0.341,0.594,0.511,0.764c-0.588,0.053-1.173,0.175-1.754,0.366
				c-1.137,0.421-1.708,0.987-1.712,1.7c-0.005,0.712,0.473,1.215,1.434,1.507C17.799-12.243,18.29-12.146,18.76-12.12z"/>
			<path style="fill-rule:evenodd;clip-rule:evenodd;fill:#9CACB8;" d="M0.479-6.006l-0.485,2.452l1.017-1.276
				C1.878-5.78,2.74-6.527,3.595-7.071c1.057-0.708,2.327-1.374,3.809-1.998c1.587-0.637,3.086-1.088,4.498-1.352
				c1.947-0.396,4.282-1.038,7.006-1.926c-1.209,0.271-2.156,0.423-2.842,0.457c-0.994,0.042-2.225,0.171-3.695,0.39
				c-1.542,0.238-3.407,0.65-5.595,1.236c-1.829,0.487-2.946,0.81-3.351,0.967C2.072-8.816,1.09-7.72,0.479-6.006z"/>
			<path style="fill-rule:evenodd;clip-rule:evenodd;fill:#DAE0E6;" d="M13.016-11.678c-0.222-0.078-0.458-0.175-0.707-0.293
				c-0.451-0.293-0.658-0.623-0.619-0.989c0.058-0.634,0.896-1.352,2.515-2.151c-1.992,0.625-3.06,1.381-3.201,2.271
				c-0.077,0.562,0.224,0.927,0.904,1.096C12.268-11.673,12.638-11.651,13.016-11.678z"/>
			<path style="fill-rule:evenodd;clip-rule:evenodd;fill:#DAE0E6;" d="M14.43-15.729c-0.085-0.084-0.16-0.218-0.226-0.401
				c-0.131-0.366-0.171-0.765-0.12-1.196c0.058-0.464,0.897-0.926,2.517-1.387c0.823-0.211,1.64-0.389,2.45-0.534
				c-3.771,0.34-5.786,0.91-6.045,1.708c-0.169,0.51,0.015,0.954,0.552,1.332C13.818-15.986,14.109-15.827,14.43-15.729z"/>
			<path style="fill-rule:evenodd;clip-rule:evenodd;fill:#DAE0E6;" d="M16.379-21.458c-0.064,0.327,0.358,0.683,1.267,1.066
				c0.438,0.189,0.883,0.345,1.334,0.468c-0.281-0.124-0.556-0.28-0.824-0.469c-0.498-0.404-0.733-0.757-0.708-1.057
				c0.026-0.301,0.636-0.554,1.832-0.759c0.555-0.098,1.086-0.163,1.593-0.194c-0.672,0.026-1.353,0.078-2.043,0.156
				C17.3-22.074,16.483-21.811,16.379-21.458z"/>
			<path style="fill-rule:evenodd;clip-rule:evenodd;fill:#DAE0E6;" d="M18.907-12.346c-0.085-0.084-0.164-0.202-0.236-0.352
				c-0.144-0.3-0.217-0.621-0.218-0.961c0.006-0.372,0.531-0.879,1.576-1.522c0.542-0.334,1.074-0.619,1.596-0.856
				c-0.275-0.326-0.563-0.672-0.865-1.037c-0.596-0.764-0.898-1.299-0.905-1.606c-0.007-0.308,0.335-0.75,1.027-1.326
				c0.359-0.269,0.711-0.504,1.057-0.708c-1.417,0.297-2.259,0.861-2.526,1.691c-0.175,0.542,0.038,1.179,0.641,1.91
				c0.301,0.365,0.629,0.685,0.982,0.959c-1.874,0.716-3.029,1.404-3.466,2.065c-0.247,0.393-0.089,0.798,0.473,1.215
				C18.305-12.652,18.593-12.476,18.907-12.346z"/>
			<path style="fill-rule:evenodd;clip-rule:evenodd;fill:#DAE0E6;" d="M3.304-10.492l0.439-1.187
				c0.41-0.871,0.886-1.473,1.428-1.807c0.829-0.583,1.396-1.048,1.703-1.395c-2.292,0.769-3.608,1.579-3.946,2.429
				c-0.175,0.543-0.171,1.036,0.013,1.48C3.039-10.782,3.16-10.623,3.304-10.492z"/>
			<path style="fill-rule:evenodd;clip-rule:evenodd;fill:#DAE0E6;" d="M0.83-2.37L0.631-3.429c0.018-0.777,0.402-1.432,1.153-1.963
				c1.247-0.806,3.215-1.997,5.905-3.57C6.571-8.639,5.435-8.219,4.28-7.7C1.962-6.63,0.683-5.575,0.443-4.536
				C0.248-3.725,0.25-3.13,0.447-2.751C0.571-2.523,0.699-2.396,0.83-2.37z"/>
			<path style="fill-rule:evenodd;clip-rule:evenodd;fill:#DAE0E6;" d="M8.737-19.149l0.596-0.952
				c0.476-0.687,0.864-1.188,1.164-1.502c0.515-0.543,1.41-1.029,2.683-1.456c-2.091,0.436-3.436,1.052-4.035,1.851
				c-0.372,0.504-0.554,0.994-0.546,1.471L8.737-19.149z"/>
		</g>
	</g>
</symbol>
<symbol  id="Symbol_3" viewBox="0 -133.55 133.6 133.55">
	<g id="Layer_1_27_">
		<use xlink:href="#BG_x2F_bg_purple"  width="133.6" height="133.55" y="-133.55" style="overflow:visible;"/>
	</g>
</symbol>
<symbol  id="Symbol_4" viewBox="-1.107 -31.575 48.185 29.146">
	<g id="Layer_1_22_">
		
			<use xlink:href="#flash0.ai_x5F_1_x2F_Layer_8_x2F__x3C_Path_x3E_"  width="8.85" height="31.05" x="1.8" y="-31.05" transform="matrix(0.7 -0.1834 0.1834 0.7 40.1001 -3.2002)" style="overflow:visible;opacity:0.5391;enable-background:new    ;"/>
		
			<use xlink:href="#flash0.ai_x5F_1_x2F_Layer_8_x2F__x3C_Path_x3E_"  width="8.85" height="31.05" x="1.8" y="-31.05" transform="matrix(0.699 -0.1873 0.1873 0.699 3.4502 -0.6499)" style="overflow:visible;opacity:0.5391;enable-background:new    ;"/>
		
			<use xlink:href="#flash0.ai_x5F_1_x2F_Layer_8_x2F__x3C_Path_x3E_"  width="8.85" height="31.05" x="1.8" y="-31.05" transform="matrix(0.8968 -0.2403 0.1873 0.699 9.3501 -9.2002)" style="overflow:visible;opacity:0.5391;enable-background:new    ;"/>
		
			<use xlink:href="#flash0.ai_x5F_1_x2F_Layer_8_x2F__x3C_Path_x3E_"  width="8.85" height="31.05" x="1.8" y="-31.05" transform="matrix(0.49 -0.1707 0.2381 0.6834 23.6001 -10.0498)" style="overflow:visible;opacity:0.5391;enable-background:new    ;"/>
		
			<use xlink:href="#flash0.ai_x5F_1_x2F_Layer_8_x2F__x3C_Path_x3E_"  width="8.85" height="31.05" x="1.8" y="-31.05" transform="matrix(0.5346 -0.1432 0.1179 0.44 7.8999 -7.3999)" style="overflow:visible;opacity:0.5391;enable-background:new    ;"/>
		
			<use xlink:href="#flash0.ai_x5F_1_x2F_Layer_8_x2F__x3C_Path_x3E_"  width="8.85" height="31.05" x="1.8" y="-31.05" transform="matrix(0.49 -0.1707 0.2381 0.6834 31.9502 -7.4502)" style="overflow:visible;opacity:0.5391;enable-background:new    ;"/>
	</g>
</symbol>
<symbol  id="flash0.ai_x2F_Layer_8_x2F__x3C_Path_x3E_" viewBox="0 -13.932 17.209 13.932">
	<g id="Layer_1_12_">
		<path style="fill-rule:evenodd;clip-rule:evenodd;" d="M0-9.15L14,0c0.867-0.433,1.583-1.217,2.15-2.35
			C17.083-4.183,17.4-6.2,17.1-8.4c-0.5-3.267-2.7-5.083-6.6-5.45c-3.833-0.333-6.733,0.35-8.7,2.05
			C0.833-10.967,0.233-10.083,0-9.15z"/>
	</g>
</symbol>
<symbol  id="flash0.ai_x5F_1_x2F_Layer_8_x2F__x3C_Path_x3E_" viewBox="1.8 -31.05 8.85 31.05">
	<g id="Layer_1_13_">
		
			<linearGradient id="SVGID_7_" gradientUnits="userSpaceOnUse" x1="16163.8262" y1="-5.0884" x2="16223.6758" y2="-5.0884" gradientTransform="matrix(1.670844e-005 1 -1 -0.001 0.8657 -16219.1045)">
			<stop  offset="0" style="stop-color:#221F1F"/>
			<stop  offset="0.0235" style="stop-color:#3C3939"/>
			<stop  offset="0.0706" style="stop-color:#646262"/>
			<stop  offset="0.1176" style="stop-color:#8A8888"/>
			<stop  offset="0.1725" style="stop-color:#AAA8A8"/>
			<stop  offset="0.2314" style="stop-color:#C4C4C4"/>
			<stop  offset="0.302" style="stop-color:#DADADA"/>
			<stop  offset="0.3804" style="stop-color:#EBEAEA"/>
			<stop  offset="0.4784" style="stop-color:#F6F6F6"/>
			<stop  offset="0.6157" style="stop-color:#FDFDFD"/>
			<stop  offset="0.9961" style="stop-color:#FFFFFF"/>
		</linearGradient>
		<path style="fill-rule:evenodd;clip-rule:evenodd;fill:url(#SVGID_7_);" d="M6.85-15.8c-1.133-4-2.817-9.083-5.05-15.25
			c0.7,4.4,1.65,8.933,2.85,13.6C5.883-12.783,6.667-7.5,7-1.6L9.5,0l1.15-2.6C9.217-7.4,7.95-11.8,6.85-15.8z"/>
	</g>
</symbol>
<symbol  id="flash0.ai_x5F_5_x2F_Layer_8_x2F__x3C_Path_x3E_" viewBox="0.007 -62.102 60.889 62.09">
	<g id="Layer_1_10_">
		
			<linearGradient id="SVGID_8_" gradientUnits="userSpaceOnUse" x1="16157.8125" y1="-29.3423" x2="16231.7373" y2="-29.3423" gradientTransform="matrix(1.352722e-005 1 -1 -0.001 0.8901 -16219.1055)">
			<stop  offset="0.2941" style="stop-color:#EBEAEA"/>
			<stop  offset="0.4784" style="stop-color:#F6F6F6"/>
			<stop  offset="0.6157" style="stop-color:#FDFDFD"/>
			<stop  offset="0.9961" style="stop-color:#FFFFFF"/>
		</linearGradient>
		<path style="fill-rule:evenodd;clip-rule:evenodd;fill:url(#SVGID_8_);" d="M49.4-11.1l-2.15,0.05c-5.2,3.9-8.9,6.45-11.1,7.65
			c-2.033,1.133-4.25,1.816-6.65,2.05c-2.933,0.3-4.917-0.3-5.95-1.8c-0.933-1.367-0.867-3.133,0.2-5.3
			c0.533-1.1,1.15-2.05,1.85-2.85l0.75-2.3c-1.7-1.7-3.383-2.983-5.05-3.85c-1.033-0.533-1.767-1.15-2.2-1.85
			c-0.2-0.367-0.3-0.684-0.3-0.95c-1.633,0.967-3.4,1.783-5.3,2.45c-3.8,1.333-6.333,1.2-7.6-0.4c-1.233-1.6-1.65-3.35-1.25-5.25
			c0.2-0.966,0.533-1.767,1-2.4L7.2-27.9v-2.05L6.4-29.8v1.7l-1.6,2.15c-0.5,0.8-0.867,1.767-1.1,2.9c-0.5,2.233-0.1,4.2,1.2,5.9
			c1.3,1.667,3.883,1.867,7.75,0.6c1.9-0.633,3.684-1.434,5.35-2.4c0.233,0.367,1.217,1,2.95,1.9c1.733,0.9,3.2,2.05,4.4,3.45
			l-1.55,2.8c-0.466,0.9-0.85,1.933-1.15,3.1c-0.533,2.367-0.316,4.284,0.65,5.75c1.067,1.567,3.1,2.184,6.1,1.85
			c2.5-0.267,4.8-0.983,6.9-2.15c2.267-1.233,6.083-3.917,11.45-8.05l2.2-0.05c1.667-0.1,2.933-0.267,3.8-0.5
			c1.067-0.3,2.683-5.267,4.85-14.9c2.167-9.733,2.8-15.367,1.9-16.9c-0.933-1.7-3.1-4.067-6.5-7.1c-3.5-3.133-6.017-4.9-7.55-5.3
			c-1.3-0.333-2.817-0.567-4.55-0.7l-2.2-0.1l-0.75-2.9c-0.767-2-1.917-3.1-3.45-3.3c-1.5-0.233-3.033,0.316-4.6,1.65L29-58.3
			c-2.6-1.434-4.683-2.067-6.25-1.9c-0.967,0.133-1.633,0.617-2,1.45l-0.3,1.25c-1.233-0.167-2.367-0.067-3.4,0.3
			c-0.633,0.2-1.517,2.05-2.65,5.55l-1.5,5.2c-0.467-0.6-1.167-1.1-2.1-1.5c-1.833-0.867-3.833-0.9-6-0.1
			c-2.167,0.8-3.25,2.2-3.25,4.2l0.65,2.8c-0.467,0.566-0.9,1.333-1.3,2.3c-0.833,1.867-1.083,3.7-0.75,5.5
			c0.267,1.567,1.184,2.567,2.75,3c-1-0.533-1.583-1.367-1.75-2.5c-0.3-1.7-0.066-3.433,0.7-5.2c0.4-0.9,0.833-1.633,1.3-2.2
			l-0.6-2.65c0-1.9,1.034-3.217,3.1-3.95c2.1-0.767,4.033-0.75,5.8,0.05c0.9,0.4,1.583,0.883,2.05,1.45l1.45-4.9
			c1.066-3.333,1.917-5.1,2.55-5.3c1.033-0.333,2.133-0.417,3.3-0.25l0.3-1.2c0.367-0.8,1.017-1.25,1.95-1.35
			c1.534-0.167,3.55,0.433,6.05,1.8l1.85-2c1.5-1.267,2.983-1.8,4.45-1.6c1.467,0.233,2.583,1.283,3.35,3.15l0.7,2.75l2.15,0.1
			c1.7,0.133,3.167,0.35,4.4,0.65c1.467,0.367,3.9,2.033,7.3,5c3.3,2.9,5.4,5.15,6.3,6.75c0.867,1.467,0.25,6.8-1.85,16
			c-2.067,9.133-3.633,13.833-4.7,14.1C52.217-11.35,51-11.2,49.4-11.1z"/>
	</g>
</symbol>
<symbol  id="flash0.ai_x5F_5_x2F_Layer_8_x2F__x3C_Path_x3E__x5F_1" viewBox="0.023 -58.791 58.956 58.816">
	<g id="Layer_1_9_">
		
			<linearGradient id="SVGID_9_" gradientUnits="userSpaceOnUse" x1="16161.1406" y1="-28.3857" x2="16231.1152" y2="-28.3857" gradientTransform="matrix(1.429082e-005 1 -1 -0.001 0.8848 -16219.1045)">
			<stop  offset="0" style="stop-color:#221F1F"/>
			<stop  offset="0.1725" style="stop-color:#252222"/>
			<stop  offset="0.3098" style="stop-color:#2F2C2C"/>
			<stop  offset="0.4353" style="stop-color:#403D3D"/>
			<stop  offset="0.5529" style="stop-color:#575555"/>
			<stop  offset="0.6667" style="stop-color:#757373"/>
			<stop  offset="0.7725" style="stop-color:#9A9999"/>
			<stop  offset="0.8784" style="stop-color:#C6C5C5"/>
			<stop  offset="0.9804" style="stop-color:#F8F8F8"/>
			<stop  offset="0.9961" style="stop-color:#FFFFFF"/>
		</linearGradient>
		<path style="fill-rule:evenodd;clip-rule:evenodd;fill:url(#SVGID_9_);" d="M46.25-9.75L48.4-9.8c1.6-0.1,2.817-0.25,3.65-0.45
			c1.067-0.267,2.633-4.967,4.7-14.1c2.1-9.2,2.717-14.533,1.85-16c-0.9-1.6-3-3.85-6.3-6.75c-3.4-2.967-5.833-4.633-7.3-5
			c-1.233-0.3-2.7-0.517-4.4-0.65l-2.15-0.1l-0.7-2.75c-0.767-1.867-1.883-2.917-3.35-3.15c-1.467-0.2-2.95,0.333-4.45,1.6l-1.85,2
			c-2.5-1.367-4.517-1.967-6.05-1.8c-0.933,0.1-1.583,0.55-1.95,1.35l-0.3,1.2c-1.167-0.167-2.267-0.083-3.3,0.25
			c-0.633,0.2-1.483,1.967-2.55,5.3l-1.45,4.9c-0.467-0.566-1.15-1.05-2.05-1.45c-1.767-0.8-3.7-0.817-5.8-0.05
			c-2.066,0.733-3.1,2.05-3.1,3.95l0.6,2.65c-0.467,0.567-0.9,1.3-1.3,2.2c-0.767,1.767-1,3.5-0.7,5.2c0.3,1.7,1.4,2.684,3.3,2.95
			c0.966,0.1,1.883,0.05,2.75-0.15v2.05l-1.55,2.05c-0.467,0.633-0.8,1.433-1,2.4c-0.4,1.9,0.017,3.65,1.25,5.25
			c1.267,1.6,3.8,1.733,7.6,0.4c1.9-0.667,3.667-1.483,5.3-2.45c0,0.267,0.1,0.583,0.3,0.95c0.433,0.7,1.167,1.317,2.2,1.85
			c1.667,0.867,3.35,2.15,5.05,3.85L24.6-10c-0.7,0.8-1.317,1.75-1.85,2.85c-1.067,2.167-1.133,3.933-0.2,5.3
			c1.034,1.5,3.017,2.1,5.95,1.8c2.4-0.233,4.617-0.917,6.65-2.05C37.35-3.3,41.05-5.85,46.25-9.75z"/>
	</g>
</symbol>
<symbol  id="zz_x5F_Highlight_x2F_Highlight_Piece" viewBox="0 -115.9 118.7 115.9">
	<g id="Layer_1_26_">
		<g>
			
				<use xlink:href="#zzz_x5F_miscellaneous_x2F_FlashAICB_copy_x2F_Layer_1_x2F__x3C_Path_x3E__x5F_2"  width="118.7" height="57.1" y="-57.1" transform="matrix(1 0 0 1 0 -58.7998)" style="overflow:visible;opacity:0.2813;enable-background:new    ;"/>
			
				<use xlink:href="#zzz_x5F_miscellaneous_x2F_FlashAICB_copy_x2F_Layer_1_x2F__x3C_Path_x3E__x5F_1"  width="110.05" height="55.75" y="-55.75" transform="matrix(1 0 0 1 4.1499 0)" style="overflow:visible;opacity:0.1094;enable-background:new    ;"/>
			
				<use xlink:href="#zzz_x5F_miscellaneous_x2F_FlashAICB_copy_x2F_Layer_1_x2F__x3C_Path_x3E_"  width="110.05" height="61.294" y="-61.294" transform="matrix(1 0 0 1 4.1499 0)" style="overflow:visible;opacity:0.0898;enable-background:new    ;"/>
		</g>
	</g>
</symbol>
<symbol  id="zzz_x5F_miscellaneous_x2F_FlashAICB_copy_2_x2F_Layer_1_x2F__x3C_Path_x3E__x5F_1_x5F_0" viewBox="0 -55.75 110 55.75">
	<g id="Layer_1_3_">
		
			<linearGradient id="SVGID_10_" gradientUnits="userSpaceOnUse" x1="16163.2637" y1="-53.8555" x2="16219.0391" y2="-53.8555" gradientTransform="matrix(1.792918e-005 1 -1 -0.001 0.8545 -16219.1055)">
			<stop  offset="0.1294" style="stop-color:#D9BBB3"/>
			<stop  offset="0.9255" style="stop-color:#FFFFFF"/>
		</linearGradient>
		<path style="fill-rule:evenodd;clip-rule:evenodd;fill:url(#SVGID_10_);" d="M96-17.95c4.467-4.933,7.967-10.4,10.5-16.4
			c2.333-5.633,3.5-10.933,3.5-15.9c0-1.833-0.167-3.317-0.5-4.45c-1.867,11.034-7.267,20.85-16.2,29.45
			C82.767-15.117,70-10.05,55-10.05c-15.267,0-28.1-5.05-38.5-15.15c-9-8.733-14.35-18.917-16.05-30.55C0.15-54.617,0-53.2,0-51.5
			c0,5.5,1.167,11.167,3.5,17c2.467,6.167,5.95,11.733,10.45,16.7C24.65-5.933,38.333,0,55,0C71.467,0,85.133-5.983,96-17.95z"/>
	</g>
</symbol>
<symbol  id="zzz_x5F_miscellaneous_x2F_FlashAICB_copy_2_x2F_Layer_1_x2F__x3C_Path_x3E__x5F_1_x5F_1" viewBox="0 -55.75 110 55.75">
	<g id="Layer_1_5_">
		
			<linearGradient id="SVGID_11_" gradientUnits="userSpaceOnUse" x1="16163.2637" y1="-53.8555" x2="16219.0391" y2="-53.8555" gradientTransform="matrix(1.792918e-005 1 -1 -0.001 0.8545 -16219.1055)">
			<stop  offset="0.1294" style="stop-color:#D9BBB3"/>
			<stop  offset="0.9255" style="stop-color:#FFFFFF"/>
		</linearGradient>
		<path style="fill-rule:evenodd;clip-rule:evenodd;fill:url(#SVGID_11_);" d="M96-17.95c4.467-4.933,7.967-10.4,10.5-16.4
			c2.333-5.633,3.5-10.933,3.5-15.9c0-1.833-0.167-3.317-0.5-4.45c-1.867,11.034-7.267,20.85-16.2,29.45
			C82.767-15.117,70-10.05,55-10.05c-15.267,0-28.1-5.05-38.5-15.15c-9-8.733-14.35-18.917-16.05-30.55C0.15-54.617,0-53.2,0-51.5
			c0,5.5,1.167,11.167,3.5,17c2.467,6.167,5.95,11.733,10.45,16.7C24.65-5.933,38.333,0,55,0C71.467,0,85.133-5.983,96-17.95z"/>
	</g>
</symbol>
<symbol  id="zzz_x5F_miscellaneous_x2F_FlashAICB_copy_2_x2F_Layer_1_x2F__x3C_Path_x3E__x5F_3" viewBox="0 -61.294 110 61.294">
	<g id="Layer_1_4_">
		<path style="fill-rule:evenodd;clip-rule:evenodd;fill:#FFFFFF;" d="M106.5-34.35c2.333-5.633,3.5-10.933,3.5-15.9
			s-1.45-8.083-4.35-9.35c-2.333-1.066-6.25-1.066-11.75,0c-7.267,1.767-13.1,3.117-17.5,4.05C68.4-53.85,61.267-53,55-53
			c-6.333,0-13.467-0.917-21.4-2.75c-8.333-2.2-14.167-3.683-17.5-4.45c-5.533-1.267-9.467-1.433-11.8-0.5
			C1.433-59.5,0-56.433,0-51.5c0,5.5,1.167,11.167,3.5,17c2.467,6.167,5.95,11.733,10.45,16.7C24.65-5.933,38.333,0,55,0
			c16.467,0,30.133-5.983,41-17.95C100.467-22.883,103.967-28.35,106.5-34.35z"/>
	</g>
</symbol>
<symbol  id="zzz_x5F_miscellaneous_x2F_FlashAICB_copy_2_x2F_Layer_1_x2F__x3C_Path_x3E__x5F_4" viewBox="0 -61.294 110 61.294">
	<g id="Layer_1_6_">
		<path style="fill-rule:evenodd;clip-rule:evenodd;fill:#FFFFFF;" d="M106.5-34.35c2.333-5.633,3.5-10.933,3.5-15.9
			s-1.45-8.083-4.35-9.35c-2.333-1.066-6.25-1.066-11.75,0c-7.267,1.767-13.1,3.117-17.5,4.05C68.4-53.85,61.267-53,55-53
			c-6.333,0-13.467-0.917-21.4-2.75c-8.333-2.2-14.167-3.683-17.5-4.45c-5.533-1.267-9.467-1.433-11.8-0.5
			C1.433-59.5,0-56.433,0-51.5c0,5.5,1.167,11.167,3.5,17c2.467,6.167,5.95,11.733,10.45,16.7C24.65-5.933,38.333,0,55,0
			c16.467,0,30.133-5.983,41-17.95C100.467-22.883,103.967-28.35,106.5-34.35z"/>
	</g>
</symbol>
<symbol  id="zzz_x5F_miscellaneous_x2F_FlashAICB_copy_2_x2F_Layer_1_x2F__x3C_Path_x3E__x5F_5" viewBox="0 -118.25 118.5 118.25">
	<g id="Layer_1_7_">
		
			<radialGradient id="SVGID_12_" cx="59.25" cy="-59.125" r="59.1875" gradientTransform="matrix(1 0 0 -1 0 -118.25)" gradientUnits="userSpaceOnUse">
			<stop  offset="0" style="stop-color:#EDBDDB"/>
			<stop  offset="0.2392" style="stop-color:#EBBBD8"/>
			<stop  offset="0.4157" style="stop-color:#E4B4CF"/>
			<stop  offset="0.5686" style="stop-color:#D9A7BF"/>
			<stop  offset="0.6627" style="stop-color:#CF9CB1"/>
			<stop  offset="1" style="stop-color:#71377C;stop-opacity:0.4078"/>
		</radialGradient>
		<path style="fill-rule:evenodd;clip-rule:evenodd;fill:url(#SVGID_12_);" d="M118.5-59.1c0-16.333-5.783-30.283-17.35-41.85
			c-11.566-11.533-25.533-17.3-41.9-17.3s-30.333,5.767-41.9,17.3C5.783-89.417,0-75.467,0-59.1c0,16.333,5.783,30.267,17.35,41.8
			C28.917-5.767,42.883,0,59.25,0s30.333-5.767,41.9-17.3C112.717-28.833,118.5-42.767,118.5-59.1z"/>
	</g>
</symbol>
<symbol  id="zzz_x5F_miscellaneous_x2F_FlashAICB_copy_x2F_Layer_1_x2F__x3C_Path_x3E_" viewBox="0 -61.294 110.05 61.294">
	<g id="Layer_1_19_">
		<path style="fill-rule:evenodd;clip-rule:evenodd;fill:#FFFFFF;" d="M106.5-34.35c2.367-5.633,3.55-10.95,3.55-15.95
			c0-4.934-1.45-8.05-4.35-9.35c-2.333-1.033-6.25-1.017-11.75,0.05c-7.3,1.767-13.133,3.117-17.5,4.05
			C68.417-53.85,61.267-53,55-53c-6.3,0-13.433-0.917-21.4-2.75c-8.333-2.2-14.167-3.683-17.5-4.45
			c-5.533-1.267-9.45-1.433-11.75-0.5C1.45-59.5,0-56.433,0-51.5c0,5.5,1.167,11.167,3.5,17c2.467,6.167,5.95,11.733,10.45,16.7
			C24.65-5.933,38.333,0,55,0c16.467,0,30.15-5.983,41.05-17.95C100.517-22.883,104-28.35,106.5-34.35z"/>
	</g>
</symbol>
<symbol  id="zzz_x5F_miscellaneous_x2F_FlashAICB_copy_x2F_Layer_1_x2F__x3C_Path_x3E__x5F_1" viewBox="0 -55.75 110.05 55.75">
	<g id="Layer_1_18_">
		
			<linearGradient id="SVGID_13_" gradientUnits="userSpaceOnUse" x1="16163.2637" y1="-53.8804" x2="16219.0391" y2="-53.8804" gradientTransform="matrix(1.792918e-005 1 -1 -0.001 0.8545 -16219.1055)">
			<stop  offset="0.1294" style="stop-color:#D9BBB3"/>
			<stop  offset="0.9255" style="stop-color:#FFFFFF"/>
		</linearGradient>
		<path style="fill-rule:evenodd;clip-rule:evenodd;fill:url(#SVGID_13_);" d="M96.05-17.95c4.467-4.933,7.95-10.4,10.45-16.4
			c2.367-5.633,3.55-10.95,3.55-15.95c0-1.567-0.167-3.05-0.5-4.45c-1.867,11.067-7.267,20.9-16.2,29.5
			C82.783-15.117,70-10.05,55-10.05c-15.233,0-28.067-5.05-38.5-15.15C7.533-33.9,2.183-44.083,0.45-55.75
			C0.15-54.617,0-53.2,0-51.5c0,5.5,1.167,11.167,3.5,17c2.467,6.167,5.95,11.733,10.45,16.7C24.65-5.933,38.333,0,55,0
			C71.467,0,85.15-5.983,96.05-17.95z"/>
	</g>
</symbol>
<symbol  id="zzz_x5F_miscellaneous_x2F_FlashAICB_copy_x2F_Layer_1_x2F__x3C_Path_x3E__x5F_2" viewBox="0 -57.1 118.7 57.1">
	<g id="Layer_1_17_">
		
			<radialGradient id="SVGID_14_" cx="59.3501" cy="-28.5498" r="46.5701" gradientTransform="matrix(1 0 0 -1 0 -57.0996)" gradientUnits="userSpaceOnUse">
			<stop  offset="0" style="stop-color:#000000;stop-opacity:0"/>
			<stop  offset="0.651" style="stop-color:#000000;stop-opacity:0.4"/>
		</radialGradient>
		<path style="fill-rule:evenodd;clip-rule:evenodd;fill:url(#SVGID_14_);" d="M95.5-30.35c10.733,7.7,18.3,17.733,22.7,30.1
			L118.7,0c-0.567-15.9-6.6-29.383-18.1-40.45C89.1-51.55,75.333-57.1,59.3-57.1c-15.7,0-29.267,5.367-40.7,16.1
			C7.2-30.333,1-17.233,0-1.7c4.6-12,12.183-21.683,22.75-29.05c10.833-7.567,22.867-11.35,36.1-11.35
			C72.35-42.1,84.567-38.183,95.5-30.35z"/>
	</g>
</symbol>
<symbol  id="zzz_x5F_miscellaneous_x2F_digit_1x" viewBox="0 -25.85 9.95 25.85">
	<g id="Layer_1_15_">
		<linearGradient id="SVGID_15_" gradientUnits="userSpaceOnUse" x1="4.9751" y1="-17.9248" x2="4.9751" y2="-7.9748">
			<stop  offset="0.0745" style="stop-color:#000000;stop-opacity:0.9882"/>
			<stop  offset="0.9647" style="stop-color:#000000;stop-opacity:0.651"/>
		</linearGradient>
		<path style="fill-rule:evenodd;clip-rule:evenodd;fill:url(#SVGID_15_);" d="M0.55-4.2C0.183-3.767,0-3.2,0-2.5
			c0,0.667,0.217,1.233,0.65,1.7C1.117-0.267,1.717,0,2.45,0h5.1c0.767,0,1.367-0.25,1.8-0.75c0.4-0.467,0.6-1.083,0.6-1.85v-20.45
			c0-0.867-0.25-1.567-0.75-2.1c-0.5-0.467-1.15-0.7-1.95-0.7s-1.45,0.233-1.95,0.7c-0.5,0.533-0.75,1.233-0.75,2.1V-5h-2.1
			C1.65-5,1.017-4.733,0.55-4.2z"/>
	</g>
</symbol>
<symbol  id="zzz_x5F_miscellaneous_x2F_digit_2x" viewBox="0 -26.05 17.4 26.05">
	<g id="Layer_1_16_">
		<linearGradient id="SVGID_16_" gradientUnits="userSpaceOnUse" x1="8.7002" y1="-21.75" x2="8.7002" y2="-4.35">
			<stop  offset="0.0745" style="stop-color:#000000;stop-opacity:0.9882"/>
			<stop  offset="0.9647" style="stop-color:#000000;stop-opacity:0.651"/>
		</linearGradient>
		<path style="fill-rule:evenodd;clip-rule:evenodd;fill:url(#SVGID_16_);" d="M16.65-7.5c0-2.1-1.05-4.55-3.15-7.35
			c-1.2-1.566-3.033-3.717-5.5-6.45h6.6c1.467,0,2.367-0.483,2.7-1.45c0.067-0.267,0.1-0.567,0.1-0.9c0-0.8-0.25-1.417-0.75-1.85
			c-0.467-0.367-1.083-0.55-1.85-0.55h-12c-1.867,0-2.8,0.8-2.8,2.4c0,0.3,0.067,0.6,0.2,0.9s0.333,0.6,0.6,0.9l4.6,5.25
			c1.833,2.1,3.3,3.95,4.4,5.55c0.833,1.167,1.25,2.267,1.25,3.3c0,0.767-0.25,1.417-0.75,1.95C9.8-5.233,9.183-4.95,8.45-4.95
			C7.017-4.95,6-5.933,5.4-7.9c-0.6-1.934-1.45-2.9-2.55-2.9c-0.833,0-1.5,0.267-2,0.8C0.417-9.5,0.2-8.883,0.2-8.15
			c0,2.233,0.867,4.167,2.6,5.8C4.467-0.783,6.417,0,8.65,0c2.267,0,4.15-0.683,5.65-2.05C15.867-3.45,16.65-5.267,16.65-7.5z"/>
	</g>
</symbol>
<symbol  id="zzz_x5F_miscellaneous_x2F_digit_5x" viewBox="0 -26.1 17.45 26.1">
	<g id="Layer_1_14_">
		<linearGradient id="SVGID_17_" gradientUnits="userSpaceOnUse" x1="8.7251" y1="-21.7749" x2="8.7251" y2="-4.3249">
			<stop  offset="0.0745" style="stop-color:#000000;stop-opacity:0.9882"/>
			<stop  offset="0.9647" style="stop-color:#000000;stop-opacity:0.651"/>
		</linearGradient>
		<path style="fill-rule:evenodd;clip-rule:evenodd;fill:url(#SVGID_17_);" d="M14.6-5H7.85L7.3-8.8C8.367-8.567,9.267-8.45,10-8.45
			c2.133,0,3.917-0.75,5.35-2.25c1.4-1.466,2.1-3.267,2.1-5.4c0-2.533-0.534-4.617-1.6-6.25c-0.233-0.367-0.5-0.7-0.8-1
			c-1.7-1.833-4.066-2.75-7.1-2.75c-1.6,0-3.25,0.417-4.95,1.25c-1.467,0.7-2.383,1.533-2.75,2.5C0.083-22.017,0-21.65,0-21.25
			C0-20.583,0.233-20,0.7-19.5c0.5,0.467,1.083,0.7,1.75,0.7c0.4,0,1.216-0.383,2.45-1.15c1.2-0.767,2.25-1.15,3.15-1.15
			c1.167,0,2.117,0.5,2.85,1.5c0.633,0.9,0.95,1.967,0.95,3.2c0,1.1-0.3,1.983-0.9,2.65c-0.633,0.667-1.483,1-2.55,1
			c-0.733,0-1.467-0.2-2.2-0.6c-0.767-0.4-1.45-0.6-2.05-0.6c-0.633,0-1.167,0.2-1.6,0.6C2.183-12.983,2-12.617,2-12.25l1.05,8.8
			c0.2,1.367,0.5,2.284,0.9,2.75c0.367,0.467,1,0.7,1.9,0.7h8.65c0.8,0,1.45-0.217,1.95-0.65c0.466-0.434,0.7-0.983,0.7-1.65
			c0-1.067-0.35-1.817-1.05-2.25C15.667-4.85,15.167-5,14.6-5z"/>
	</g>
</symbol>
<symbol  id="zzz_x5F_miscellaneous_x2F_leaves_working" viewBox="0.018 -15.48 116.565 15.46">
	<g id="Layer_1_8_">
		<path style="fill-rule:evenodd;clip-rule:evenodd;fill:#EFEFEF;" d="M114.1-3.05c0.367-0.934,0.233-1.733-0.4-2.4
			c-0.567-0.6-1.15-0.85-1.75-0.75c0.833,0.767,1.3,1.233,1.4,1.4c0.433,0.767,0.367,1.65-0.2,2.65
			C113.517-2.217,113.833-2.517,114.1-3.05z M109.8-10.15c0.267-0.9,0.784-1.417,1.55-1.55s1.15-0.216,1.15-0.25
			c-1.867-0.5-3.033,0.267-3.5,2.3c-0.1,2.167-0.15,3.283-0.15,3.35l0.7-0.3C109.383-7.667,109.467-8.85,109.8-10.15z M104.05-10.85
			c-0.3-0.367-0.733-0.583-1.3-0.65s-1.083,0.033-1.55,0.3c-0.6,0.267-1,0.883-1.2,1.85c-0.233,1.033-0.033,1.667,0.6,1.9
			c0-0.1-0.033-0.4-0.1-0.9c0.033-0.566,0.283-1.15,0.75-1.75c0.667-0.833,1.267-1.217,1.8-1.15
			C103.55-11.05,103.883-10.917,104.05-10.85z M105.05-3.6c-0.833,0.8-1.316,1.2-1.45,1.2c0.233,0.167,0.767-0.033,1.6-0.6
			c0.966-0.667,1.65-1.567,2.05-2.7c0.3-0.966,0.417-1.917,0.35-2.85c-0.133-1.4-0.717-2.567-1.75-3.5
			c0.3,0.466,0.583,1.083,0.85,1.85c0.466,1.5,0.5,2.967,0.1,4.4C106.6-5.233,106.017-4.5,105.05-3.6z M109.15-3.85
			c0.333-0.167,0.733-0.283,1.2-0.35c0.9-0.066,1.65,0.217,2.25,0.85c-0.434-1.033-1.25-1.533-2.45-1.5
			c-0.933,0.033-1.566,0.217-1.9,0.55c-0.233,0.066-0.867,0.483-1.9,1.25c-1.1,0.7-2,1.066-2.7,1.1c0.633,0.633,1.633,0.55,3-0.25
			C108.017-3.2,108.85-3.75,109.15-3.85z M115.25-11.2c0.033,1.233-0.45,2.317-1.45,3.25c0.733,0.233,1.367-0.316,1.9-1.65
			c0.533-1.433,0.167-2.683-1.1-3.75C115.033-12.817,115.25-12.1,115.25-11.2z M10.25-3.05C9.217-3.817,8.583-4.233,8.35-4.3
			c-0.333-0.333-0.967-0.517-1.9-0.55C5.25-4.883,4.433-4.383,4-3.35C4.6-3.983,5.35-4.267,6.25-4.2
			c0.467,0.067,0.867,0.184,1.2,0.35c0.3,0.1,1.133,0.65,2.5,1.65c1.367,0.8,2.367,0.883,3,0.25C12.25-1.983,11.35-2.35,10.25-3.05z
			 M11.55-3.6C10.583-4.5,10-5.233,9.8-5.8c-0.4-1.434-0.367-2.9,0.1-4.4c0.267-0.767,0.55-1.383,0.85-1.85
			C9.717-11.117,9.133-9.95,9-8.55C8.933-7.617,9.05-6.667,9.35-5.7c0.4,1.133,1.083,2.034,2.05,2.7
			c0.833,0.567,1.367,0.767,1.6,0.6C12.867-2.4,12.383-2.8,11.55-3.6z M13.55-11.25c0.534-0.067,1.133,0.317,1.8,1.15
			c0.467,0.6,0.717,1.184,0.75,1.75c-0.067,0.5-0.1,0.8-0.1,0.9c0.633-0.233,0.833-0.867,0.6-1.9c-0.2-0.967-0.6-1.583-1.2-1.85
			c-0.467-0.267-0.983-0.367-1.55-0.3c-0.567,0.067-1,0.283-1.3,0.65C12.717-10.917,13.05-11.05,13.55-11.25z M3.45-2.15
			c-0.567-1-0.633-1.883-0.2-2.65c0.1-0.167,0.567-0.633,1.4-1.4C4.05-6.3,3.467-6.05,2.9-5.45c-0.633,0.667-0.767,1.467-0.4,2.4
			C2.767-2.517,3.083-2.217,3.45-2.15z M1.35-11.2c0-0.9,0.217-1.617,0.65-2.15c-1.267,1.067-1.633,2.317-1.1,3.75
			c0.533,1.333,1.167,1.883,1.9,1.65C1.8-8.883,1.317-9.967,1.35-11.2z M6.8-10.15c0.333,1.3,0.417,2.483,0.25,3.55l0.7,0.3
			c0-0.067-0.05-1.184-0.15-3.35c-0.467-2.033-1.633-2.8-3.5-2.3c0,0.034,0.383,0.117,1.15,0.25S6.533-11.05,6.8-10.15z"/>
		<linearGradient id="SVGID_18_" gradientUnits="userSpaceOnUse" x1="107.4707" y1="-15.3501" x2="107.4707" y2="-0.0501">
			<stop  offset="0" style="stop-color:#4F4F4F"/>
			<stop  offset="1" style="stop-color:#CDCDCD"/>
		</linearGradient>
		<path style="fill-rule:evenodd;clip-rule:evenodd;fill:url(#SVGID_18_);" d="M114.1-3.05c-0.267,0.533-0.583,0.833-0.95,0.9
			c0.567-1,0.633-1.883,0.2-2.65c-0.1-0.167-0.567-0.633-1.4-1.4c0.6-0.1,1.183,0.15,1.75,0.75
			C114.333-4.783,114.467-3.983,114.1-3.05z M112.3-1.05c1.167-0.067,1.983-0.534,2.45-1.4c0.567-0.933,0.633-1.816,0.2-2.65
			c-0.4-0.767-1.083-1.3-2.05-1.6c-0.9-0.267-1.783-0.233-2.65,0.1c-0.033-1.133,0.067-2.066,0.3-2.8
			c0.333-1.033,0.883-1.467,1.65-1.3c0.633,0.133,0.983,0.617,1.05,1.45c0.033,0.733-0.167,1.417-0.6,2.05l0.3,0.05
			c0.8,0.066,1.533-0.133,2.2-0.6c0.667-0.5,1.1-1.167,1.3-2c0.5-2.2-0.417-3.883-2.75-5.05c-2.3-1.133-4.133-0.85-5.5,0.85
			c-0.167,0.233-0.333,0.55-0.5,0.95c-0.133,0.4-0.284,0.717-0.45,0.95c-1.033-1.4-2.533-2.083-4.5-2.05
			c-2.067,0-3.417,0.833-4.05,2.5c-0.5,1.3-0.45,2.483,0.15,3.55c0.633,1.167,1.683,1.683,3.15,1.55c0-0.267-0.133-0.717-0.4-1.35
			c-0.233-0.467-0.217-0.95,0.05-1.45c0.333-0.6,0.867-0.833,1.6-0.7c0.867,0.167,1.383,0.717,1.55,1.65
			c0.133,0.8,0.017,1.617-0.35,2.45c-0.434,1.1-1,1.8-1.7,2.1c-0.067,0.033-0.55,0.133-1.45,0.3c-0.6,0.133-0.983,0.4-1.15,0.8
			c-0.233,0.6-0.083,1.117,0.45,1.55c0.333,0.3,0.95,0.617,1.85,0.95c1.9,0.434,3.533,0.083,4.9-1.05c2-1.5,3.583-1.95,4.75-1.35
			c0.2,0.167,0.283,0.417,0.25,0.75C112.317-1.483,112.3-1.217,112.3-1.05z M115.25-11.2c0-0.9-0.217-1.617-0.65-2.15
			c1.267,1.067,1.633,2.317,1.1,3.75c-0.534,1.333-1.167,1.883-1.9,1.65C114.8-8.883,115.283-9.967,115.25-11.2z M109.15-3.85
			c-0.3,0.1-1.133,0.65-2.5,1.65c-1.367,0.8-2.367,0.883-3,0.25c0.7-0.033,1.6-0.4,2.7-1.1c1.033-0.767,1.667-1.184,1.9-1.25
			c0.333-0.333,0.967-0.517,1.9-0.55c1.2-0.033,2.017,0.467,2.45,1.5c-0.6-0.633-1.35-0.917-2.25-0.85
			C109.883-4.133,109.483-4.017,109.15-3.85z M105.05-3.6c0.967-0.9,1.55-1.633,1.75-2.2c0.4-1.434,0.367-2.9-0.1-4.4
			c-0.267-0.767-0.55-1.383-0.85-1.85c1.033,0.933,1.617,2.1,1.75,3.5c0.066,0.933-0.05,1.883-0.35,2.85
			c-0.4,1.133-1.083,2.034-2.05,2.7c-0.833,0.567-1.367,0.767-1.6,0.6C103.733-2.4,104.217-2.8,105.05-3.6z M104.05-10.85
			c-0.167-0.066-0.5-0.2-1-0.4c-0.533-0.067-1.133,0.317-1.8,1.15c-0.467,0.6-0.717,1.184-0.75,1.75c0.067,0.5,0.1,0.8,0.1,0.9
			c-0.633-0.233-0.833-0.867-0.6-1.9c0.2-0.967,0.6-1.583,1.2-1.85c0.466-0.267,0.983-0.367,1.55-0.3S103.75-11.217,104.05-10.85z
			 M109.8-10.15c-0.333,1.3-0.417,2.483-0.25,3.55l-0.7,0.3c0-0.067,0.05-1.184,0.15-3.35c0.467-2.033,1.633-2.8,3.5-2.3
			c0,0.034-0.383,0.117-1.15,0.25S110.067-11.05,109.8-10.15z"/>
		
			<linearGradient id="SVGID_19_" gradientUnits="userSpaceOnUse" x1="16203.748" y1="-7.5996" x2="16219.0479" y2="-7.5996" gradientTransform="matrix(6.535948e-005 1 -1 -0.001 0.4702 -16219.1045)">
			<stop  offset="0" style="stop-color:#4F4F4F"/>
			<stop  offset="1" style="stop-color:#CDCDCD"/>
		</linearGradient>
		<path style="fill-rule:evenodd;clip-rule:evenodd;fill:url(#SVGID_19_);" d="M16-1.15c0.533-0.434,0.683-0.95,0.45-1.55
			c-0.167-0.4-0.55-0.667-1.15-0.8c-0.9-0.167-1.383-0.267-1.45-0.3c-0.7-0.3-1.267-1-1.7-2.1c-0.367-0.833-0.483-1.65-0.35-2.45
			c0.167-0.933,0.684-1.483,1.55-1.65c0.733-0.133,1.267,0.1,1.6,0.7c0.267,0.5,0.283,0.983,0.05,1.45
			c-0.267,0.633-0.4,1.083-0.4,1.35c1.467,0.133,2.517-0.383,3.15-1.55c0.6-1.067,0.65-2.25,0.15-3.55
			c-0.633-1.667-1.983-2.5-4.05-2.5c-1.967-0.033-3.467,0.65-4.5,2.05C9.183-12.283,9.033-12.6,8.9-13
			c-0.167-0.4-0.333-0.717-0.5-0.95c-1.367-1.7-3.2-1.983-5.5-0.85c-2.333,1.167-3.25,2.85-2.75,5.05c0.2,0.833,0.633,1.5,1.3,2
			c0.667,0.467,1.4,0.667,2.2,0.6l0.3-0.05c-0.434-0.633-0.633-1.316-0.6-2.05c0.066-0.833,0.417-1.317,1.05-1.45
			c0.767-0.167,1.317,0.267,1.65,1.3c0.233,0.733,0.333,1.667,0.3,2.8C5.483-6.933,4.6-6.967,3.7-6.7C2.733-6.4,2.05-5.867,1.65-5.1
			c-0.433,0.833-0.367,1.717,0.2,2.65c0.467,0.867,1.283,1.333,2.45,1.4c0-0.167-0.017-0.434-0.05-0.8
			C4.217-2.183,4.3-2.433,4.5-2.6c1.167-0.6,2.75-0.15,4.75,1.35c1.367,1.133,3,1.483,4.9,1.05C15.05-0.533,15.667-0.85,16-1.15z
			 M6.8-10.15c-0.267-0.9-0.783-1.417-1.55-1.55S4.1-11.917,4.1-11.95c1.867-0.5,3.033,0.267,3.5,2.3C7.7-7.483,7.75-6.367,7.75-6.3
			l-0.7-0.3C7.217-7.667,7.133-8.85,6.8-10.15z M1.35-11.2C1.317-9.967,1.8-8.883,2.8-7.95C2.067-7.717,1.433-8.267,0.9-9.6
			c-0.533-1.433-0.167-2.683,1.1-3.75C1.567-12.817,1.35-12.1,1.35-11.2z M3.45-2.15C3.083-2.217,2.767-2.517,2.5-3.05
			c-0.367-0.934-0.233-1.733,0.4-2.4C3.467-6.05,4.05-6.3,4.65-6.2c-0.833,0.767-1.3,1.233-1.4,1.4
			C2.817-4.033,2.883-3.15,3.45-2.15z M13.55-11.25c-0.5,0.2-0.833,0.333-1,0.4c0.3-0.367,0.733-0.583,1.3-0.65
			c0.566-0.067,1.083,0.033,1.55,0.3c0.6,0.267,1,0.883,1.2,1.85c0.233,1.033,0.033,1.667-0.6,1.9c0-0.1,0.033-0.4,0.1-0.9
			c-0.033-0.566-0.283-1.15-0.75-1.75C14.683-10.933,14.083-11.317,13.55-11.25z M11.55-3.6c0.833,0.8,1.317,1.2,1.45,1.2
			c-0.233,0.167-0.767-0.033-1.6-0.6c-0.967-0.667-1.65-1.567-2.05-2.7C9.05-6.667,8.933-7.617,9-8.55
			c0.133-1.4,0.717-2.567,1.75-3.5c-0.3,0.466-0.583,1.083-0.85,1.85C9.433-8.7,9.4-7.233,9.8-5.8C10-5.233,10.583-4.5,11.55-3.6z
			 M10.25-3.05c1.1,0.7,2,1.066,2.7,1.1c-0.633,0.633-1.633,0.55-3-0.25c-1.367-1-2.2-1.55-2.5-1.65
			C7.117-4.017,6.717-4.133,6.25-4.2C5.35-4.267,4.6-3.983,4-3.35c0.433-1.033,1.25-1.533,2.45-1.5
			c0.933,0.033,1.566,0.217,1.9,0.55C8.583-4.233,9.217-3.817,10.25-3.05z"/>
	</g>
</symbol>
<g id="Frame">
	
		<use xlink:href="#Frames_x2F_level_07"  width="172.4" height="172.4" y="-172.4" transform="matrix(1 0 0 -1 0 0)" style="overflow:visible;"/>
</g>
<g id="Base">
	
		<use xlink:href="#Symbol_3"  width="133.6" height="133.55" y="-133.55" transform="matrix(1 0 0 -1 19.2002 19.8501)" style="overflow:visible;"/>
</g>
<g id="Decorations">
	
		<use xlink:href="#Decorations_x2F_leaves"  width="132.35" height="132.4" x="-177.3" y="-73.2" transform="matrix(0.9305 0 0 -0.9305 189.5996 80.4502)" style="overflow:visible;"/>
</g>
<g id="Layer_11">
	<g>
		<g>
			
				<use xlink:href="#flash0.ai_x5F_5_x2F_Layer_8_x2F__x3C_Path_x3E__x5F_1"  width="58.956" height="58.816" x="0.023" y="-58.791" transform="matrix(1 0 0 -1 54.2998 67.2002)" style="overflow:visible;opacity:0.5781;enable-background:new    ;"/>
			
				<use xlink:href="#flash0.ai_x5F_5_x2F_Layer_8_x2F__x3C_Path_x3E_"  width="60.889" height="62.09" x="0.007" y="-62.102" transform="matrix(1 0 0 -1 53.2998 65.8999)" style="overflow:visible;opacity:0.5391;enable-background:new    ;"/>
		</g>
		<g>
			
				<linearGradient id="SVGID_20_" gradientUnits="userSpaceOnUse" x1="112.6826" y1="-7.2148" x2="127.497" y2="-7.2148" gradientTransform="matrix(0.454 0.891 -0.891 0.454 -2.146363e-004 -4.285574e-004)">
				<stop  offset="0" style="stop-color:#E8E8E8"/>
				<stop  offset="1" style="stop-color:#878787"/>
			</linearGradient>
			<path style="fill-rule:evenodd;clip-rule:evenodd;fill:url(#SVGID_20_);" d="M63.6,109.3c0.533-0.467,0.783-1.083,0.75-1.85
				c0-1.033-0.333-1.566-1-1.601l-0.75-0.05l-0.9,0.351c-0.867,0.366-1.233,1.017-1.1,1.949c0.133,0.867,0.467,1.4,1,1.601
				C62.3,110.033,62.967,109.9,63.6,109.3z M64.25,101.05c1.167,1.8,1.45,3.084,0.85,3.851c0.9,0.666,1.117,1.949,0.65,3.85
				c-0.533,2.066-1.95,2.967-4.25,2.7c-1.167-0.2-1.983-0.934-2.45-2.2c-0.5-1.333-0.333-2.467,0.5-3.4l0.7-0.699l-0.95-0.601
				c-1.2-0.899-1.816-2.017-1.85-3.35c-0.067-1.334,0.45-2.134,1.55-2.4C61.167,98.3,62.917,99.05,64.25,101.05z M63.35,102.45
				c-0.233-0.767-0.733-1.351-1.5-1.75c-0.8-0.467-1.5-0.55-2.1-0.25c-0.433,0.3-0.55,0.883-0.35,1.75c0.267,0.899,0.9,1.5,1.9,1.8
				l1.05,0.3l0.7-0.05C63.65,104.083,63.75,103.483,63.35,102.45z"/>
			
				<use xlink:href="#Symbol_1"  width="26.141" height="24.283" x="-0.006" y="-24.307" transform="matrix(0.8939 0 0 -0.8939 79.2998 70.0498)" style="overflow:visible;"/>
			<g>
				
					<linearGradient id="SVGID_21_" gradientUnits="userSpaceOnUse" x1="909.9199" y1="-3017.8984" x2="916.7449" y2="-3017.8984" gradientTransform="matrix(0.3136 1.5835 -1.5839 0.3118 -5003.7505 -401.95)">
					<stop  offset="0" style="stop-color:#8F8F8F"/>
					<stop  offset="0.2275" style="stop-color:#E8E8E8"/>
					<stop  offset="1" style="stop-color:#696969"/>
				</linearGradient>
				<path style="fill-rule:evenodd;clip-rule:evenodd;fill:url(#SVGID_21_);" d="M65.371,106.742
					c-0.083-0.971-0.44-1.531-1.073-1.679l-0.729,0.061c-0.368,0.072-0.674,0.189-0.918,0.347c-0.792,0.431-1.152,1.105-1.081,2.023
					c0.104,0.803,0.426,1.315,0.963,1.537c0.76,0.233,1.446,0.098,2.059-0.407C65.152,108.129,65.412,107.502,65.371,106.742z
					 M58.45,100.461c-0.092-1.3,0.41-2.084,1.509-2.355c2.154-0.482,3.893,0.271,5.22,2.258c1.178,1.797,1.487,3.079,0.925,3.848
					c0.854,0.71,1.052,1.986,0.595,3.832c-0.533,2.025-1.947,2.908-4.249,2.65c-1.182-0.15-1.981-0.869-2.402-2.157
					c-0.482-1.33-0.295-2.465,0.561-3.402l0.603-0.694l-0.854-0.572C59.137,102.957,58.501,101.821,58.45,100.461z M62.883,99.995
					c-0.811-0.499-1.539-0.574-2.184-0.227c-0.433,0.306-0.541,0.875-0.321,1.709c0.284,0.876,0.9,1.494,1.849,1.854l1.044,0.289
					L64,103.559c0.571-0.168,0.698-0.77,0.384-1.804C64.122,100.984,63.622,100.396,62.883,99.995z"/>
			</g>
			
				<linearGradient id="SVGID_22_" gradientUnits="userSpaceOnUse" x1="1699.3711" y1="-2652.9883" x2="1708.5433" y2="-2652.9883" gradientTransform="matrix(0.7332 1.4382 -1.4382 0.7332 -5003.5996 -402.0002)">
				<stop  offset="0" style="stop-color:#E8E8E8"/>
				<stop  offset="1" style="stop-color:#EDEDED"/>
			</linearGradient>
			<path style="fill-rule:evenodd;clip-rule:evenodd;fill:url(#SVGID_22_);" d="M60.817,107.871
				c0.114,0.854,0.439,1.393,0.979,1.615c0.716,0.297,1.376,0.167,1.979-0.392c0.56-0.495,0.819-1.121,0.778-1.882
				c-0.029-0.98-0.355-1.521-0.977-1.616l-0.745-0.018l-0.918,0.347C61.057,106.314,60.692,106.964,60.817,107.871z M59.962,100.224
				c-0.435,0.305-0.54,0.875-0.32,1.709c0.24,0.938,0.856,1.558,1.849,1.854l1.043,0.287l0.729-0.061
				c0.569-0.169,0.671-0.765,0.303-1.789c-0.262-0.771-0.762-1.356-1.499-1.761C61.255,99.968,60.553,99.887,59.962,100.224z
				 M57.634,100.93c-0.041-1.308,0.489-2.098,1.587-2.371c2.153-0.48,3.893,0.272,5.218,2.259c1.178,1.796,1.461,3.086,0.847,3.864
				c0.896,0.646,1.121,1.917,0.674,3.816c-0.521,2.078-1.932,2.987-4.231,2.729c-1.192-0.203-2.025-0.943-2.496-2.221
				c-0.484-1.331-0.297-2.464,0.561-3.402l0.682-0.711l-0.933-0.555C58.32,103.429,57.684,102.293,57.634,100.93z"/>
			
				<linearGradient id="SVGID_23_" gradientUnits="userSpaceOnUse" x1="388.7432" y1="-3134.7427" x2="390.0625" y2="-3134.7427" gradientTransform="matrix(0.0388 1.6138 -1.6138 0.0388 -5003.8491 -401.9496)">
				<stop  offset="0" style="stop-color:#8F8F8F"/>
				<stop  offset="0.2275" style="stop-color:#E8E8E8"/>
				<stop  offset="1" style="stop-color:#696969"/>
			</linearGradient>
			<path style="fill-rule:evenodd;clip-rule:evenodd;fill:url(#SVGID_23_);" d="M66.176,105.906
				c-0.466,0.146-0.755-0.071-0.87-0.651c-0.073-0.369,0.006-0.66,0.239-0.87c0.084-0.127,0.179-0.201,0.286-0.222l8.801-0.426
				l0.345,1.743L66.176,105.906z"/>
			
				<linearGradient id="SVGID_24_" gradientUnits="userSpaceOnUse" x1="1919.624" y1="-2464.5239" x2="1936.6217" y2="-2464.5239" gradientTransform="matrix(0.8587 1.3669 -1.3669 0.8587 -4922.1504 -418.4015)">
				<stop  offset="0" style="stop-color:#BEA823"/>
				<stop  offset="0.3725" style="stop-color:#BAA422"/>
				<stop  offset="0.7725" style="stop-color:#AE9A20"/>
				<stop  offset="1" style="stop-color:#A3901F"/>
			</linearGradient>
			<path style="fill-rule:evenodd;clip-rule:evenodd;fill:url(#SVGID_24_);" d="M106.337,82.867c0.314,0.761,0.665,2.117,1.051,4.07
				c1.57,6.819,2.531,11.539,2.886,14.157c0.115,0.58,0.267,1.346,0.455,2.297c0.104,0.802,0.007,1.561-0.29,2.277
				c-0.286,0.771-1.478,2.24-3.571,4.41c-1.808,1.948-3.141,3.254-3.997,3.918c-0.37,0.347-1.289,0.967-2.757,1.862
				c-1.469,0.893-2.41,1.408-2.821,1.545c0.286-1.044,0.3-2.226,0.039-3.545L92.785,91.72l0.11-0.27
				c0.202-0.369,1.47-1.443,3.807-3.222c2.673-2.011,4.354-3.357,5.041-4.042c1.936-1.865,2.967-2.892,3.093-3.081
				C105.405,81.487,105.905,82.073,106.337,82.867z"/>
			<path style="fill-rule:evenodd;clip-rule:evenodd;fill:#F4D935;" d="M97.287,87.865c-2.726,2.021-4.189,3.216-4.392,3.585
				c-1.499,0.188-6.211,0.627-14.138,1.316C72.72,93.305,69,93.766,67.595,94.153c0.181-0.475,0.381-0.842,0.604-1.106
				c1.174-1.275,3.321-3.18,6.439-5.718c3.573-3.01,5.908-4.651,7.006-4.923c3.61-0.88,9.86-1.458,18.744-1.736
				c2.281-0.122,3.763,0.023,4.448,0.437c-0.467,0.695-1.157,1.491-2.078,2.385C102.061,84.125,100.237,85.581,97.287,87.865z"/>
			<g>
				<path style="fill-rule:evenodd;clip-rule:evenodd;fill:#978715;" d="M99.809,102.26c0.156,0.792,0.127,1.482-0.085,2.074
					c-0.264,0.601-0.635,0.948-1.109,1.042c-0.476,0.095-0.924-0.092-1.345-0.557c-0.475-0.455-0.789-1.078-0.945-1.869
					c-0.146-0.739-0.088-1.41,0.178-2.011c0.212-0.592,0.556-0.933,1.03-1.026s0.951,0.085,1.424,0.541
					C99.377,100.919,99.662,101.521,99.809,102.26z"/>
				
					<linearGradient id="SVGID_25_" gradientUnits="userSpaceOnUse" x1="740.875" y1="-3037.0889" x2="743.8302" y2="-3037.0889" gradientTransform="matrix(0.2191 1.5993 -1.5993 0.2191 -4922.1504 -418.4012)">
					<stop  offset="0" style="stop-color:#5F4E29"/>
					<stop  offset="0.8588" style="stop-color:#271D09"/>
				</linearGradient>
				<path style="fill-rule:evenodd;clip-rule:evenodd;fill:url(#SVGID_25_);" d="M99.189,102.465
					c0.104,0.527,0.041,1.033-0.192,1.518c-0.191,0.422-0.498,0.676-0.92,0.76c-0.37,0.073-0.75-0.045-1.139-0.352
					c-0.338-0.317-0.563-0.767-0.678-1.347c-0.115-0.581-0.083-1.108,0.099-1.583c0.189-0.421,0.496-0.673,0.918-0.757
					c0.423-0.084,0.803,0.032,1.14,0.35C98.817,101.413,99.075,101.883,99.189,102.465z"/>
			</g>
			<g>
				<path style="fill-rule:evenodd;clip-rule:evenodd;fill:#978715;" d="M108.814,94.142c0.146,0.739,0.161,1.367,0.045,1.884
					c-0.107,0.569-0.319,0.886-0.636,0.948c-0.316,0.063-0.634-0.149-0.948-0.635c-0.369-0.477-0.62-1.057-0.756-1.743
					c-0.137-0.687-0.125-1.319,0.035-1.898c0.116-0.519,0.334-0.807,0.65-0.87C107.944,91.681,108.479,92.452,108.814,94.142z"/>
				
					<linearGradient id="SVGID_26_" gradientUnits="userSpaceOnUse" x1="723.584" y1="-3046.8887" x2="726.3395" y2="-3046.8887" gradientTransform="matrix(0.2122 1.6003 -1.6003 0.2122 -4922.1509 -418.4007)">
					<stop  offset="0" style="stop-color:#5F4E29"/>
					<stop  offset="0.8588" style="stop-color:#271D09"/>
				</linearGradient>
				<path style="fill-rule:evenodd;clip-rule:evenodd;fill:url(#SVGID_26_);" d="M108.339,94.235
					c0.251,1.267,0.088,1.958-0.494,2.073c-0.634,0.125-1.075-0.446-1.325-1.713c-0.251-1.267-0.061-1.963,0.573-2.089
					C107.674,92.392,108.089,92.969,108.339,94.235z"/>
			</g>
			<g>
				
					<radialGradient id="SVGID_27_" cx="2992.75" cy="920.2002" r="1.3125" gradientTransform="matrix(1.5836 -0.3134 -0.6835 -3.4537 -4004.7466 4216.8501)" gradientUnits="userSpaceOnUse">
					<stop  offset="0" style="stop-color:#000000;stop-opacity:0.3765"/>
					<stop  offset="0.8667" style="stop-color:#000000;stop-opacity:0"/>
				</radialGradient>
				<path style="fill-rule:evenodd;clip-rule:evenodd;fill:url(#SVGID_27_);" d="M104.599,104.438
					c-0.536-0.771-0.95-1.76-1.243-2.963l3.267-3.442c0.422,0.739,0.715,1.531,0.882,2.375c0.251,1.267,0.255,2.392,0.01,3.372
					c-0.191,0.97-0.578,1.512-1.159,1.627C105.772,105.521,105.188,105.198,104.599,104.438z"/>
				<g>
					
						<linearGradient id="SVGID_28_" gradientUnits="userSpaceOnUse" x1="736.1768" y1="-3043.7993" x2="738.6563" y2="-3043.7993" gradientTransform="matrix(0.217 1.5996 -1.5996 0.217 -4922.1514 -418.4008)">
						<stop  offset="0" style="stop-color:#D39825"/>
						<stop  offset="0.1765" style="stop-color:#CF9524"/>
						<stop  offset="0.3647" style="stop-color:#C48D22"/>
						<stop  offset="0.5608" style="stop-color:#B07F1F"/>
						<stop  offset="0.7608" style="stop-color:#956B1A"/>
						<stop  offset="0.9608" style="stop-color:#725214"/>
						<stop  offset="1" style="stop-color:#6B4D12"/>
					</linearGradient>
					<path style="fill-rule:evenodd;clip-rule:evenodd;fill:url(#SVGID_28_);" d="M104.262,99.404
						c0.328-0.559,0.698-0.907,1.109-1.043c1.099-0.272,2.169,0.01,3.211,0.845c0.98,0.794,1.275,1.312,0.885,1.554
						c-0.37,0.347-1.222,0.626-2.551,0.833c-1.478,0.292-2.38,0.171-2.706-0.369C103.884,100.686,103.901,100.078,104.262,99.404z"
						/>
					
						<linearGradient id="SVGID_29_" gradientUnits="userSpaceOnUse" x1="754.6016" y1="-3039.2676" x2="755.9786" y2="-3039.2676" gradientTransform="matrix(0.2267 1.5983 -1.5983 0.2267 -4922.1499 -418.4009)">
						<stop  offset="0" style="stop-color:#F1CC7D"/>
						<stop  offset="0.8588" style="stop-color:#D39825"/>
					</linearGradient>
					<path style="fill-rule:evenodd;clip-rule:evenodd;fill:url(#SVGID_29_);" d="M104.721,99.643
						c-0.168-0.571,0.17-0.94,1.015-1.107c0.622-0.178,1.282-0.033,1.977,0.432c0.739,0.403,1.022,0.731,0.854,0.983
						c-0.084,0.126-0.454,0.199-1.108,0.22c-0.886-0.044-1.382-0.057-1.487-0.035C105.283,100.271,104.867,100.106,104.721,99.643z"
						/>
				</g>
			</g>
			<path style="fill-rule:evenodd;clip-rule:evenodd;fill:#F8E87C;" d="M93.157,95.677c-0.473-1.825-0.75-2.813-0.834-2.961
				c-0.168-0.296-0.5-0.45-0.996-0.462c-0.612-0.042-5.224,0.35-13.836,1.175c-1.289,0.146-3.326,0.247-6.111,0.305l-3.785,0.009
				l12.208-1.099c2.268-0.176,4.876-0.444,7.821-0.809c2.944-0.362,4.646-0.645,5.099-0.844c0.465-0.146,2.33-1.531,5.596-4.153
				c2.029-1.663,4.202-3.573,6.518-5.732c0.021,0.653-1.853,2.561-5.614,5.719c-3.806,3.222-5.71,5.105-5.71,5.655
				c-0.043,0.611,1.258,7.184,3.901,19.716c0.428,2.712,0.388,4.449-0.121,5.207l0.05-0.997c0.074-0.453-0.5-3.631-1.723-9.532
				C94.438,101.183,93.617,97.451,93.157,95.677z"/>
			<g>
				
					<radialGradient id="SVGID_30_" cx="2986.7998" cy="908.9004" r="6.1625" gradientTransform="matrix(1.5836 -0.3134 -0.1081 -0.5461 -4539.0566 1517.2042)" gradientUnits="userSpaceOnUse">
					<stop  offset="0" style="stop-color:#000000;stop-opacity:0.3765"/>
					<stop  offset="0.8667" style="stop-color:#000000;stop-opacity:0"/>
				</radialGradient>
				<path style="fill-rule:evenodd;clip-rule:evenodd;fill:url(#SVGID_30_);" d="M92.967,87.651l-0.126,0.189l-0.65,0.458
					l-0.063,0.095c-2.503,0.386-4.635,0.424-6.396,0.113c-1.824-0.351-2.82-0.949-2.987-1.793c-0.178-0.898,0.615-1.878,2.38-2.939
					c1.775-1.01,4.007-1.781,6.7-2.314c2.375-0.47,4.539-0.624,6.491-0.462l-0.11,0.27c-0.098,0.897-0.264,1.725-0.497,2.485
					C95.635,85.478,94.056,86.777,92.967,87.651z"/>
			</g>
			
				<linearGradient id="SVGID_31_" gradientUnits="userSpaceOnUse" x1="4041.5488" y1="1105.4854" x2="4043.3005" y2="1105.4854" gradientTransform="matrix(1.5687 -0.3809 0.3809 1.5687 -6676.1992 -74.6004)">
				<stop  offset="0" style="stop-color:#5F4E29"/>
				<stop  offset="0.9373" style="stop-color:#3A2B0E"/>
			</linearGradient>
			<path style="fill-rule:evenodd;clip-rule:evenodd;fill:url(#SVGID_31_);" d="M88.038,123.117
				c-1.382-0.057-3.236-2.213-5.559-6.471l7.473-0.902c-0.1,2.268-0.224,3.856-0.374,4.764
				C89.269,122.27,88.756,123.139,88.038,123.117z"/>
			
				<linearGradient id="SVGID_32_" gradientUnits="userSpaceOnUse" x1="4049.3545" y1="1101.9658" x2="4051.1062" y2="1101.9658" gradientTransform="matrix(1.5687 -0.3809 0.3809 1.5687 -6676.1992 -74.6004)">
				<stop  offset="0" style="stop-color:#5F4E29"/>
				<stop  offset="0.9373" style="stop-color:#3A2B0E"/>
			</linearGradient>
			<path style="fill-rule:evenodd;clip-rule:evenodd;fill:url(#SVGID_32_);" d="M98.946,114.621
				c-1.384-0.054-3.236-2.212-5.561-6.469l7.553-0.919c-0.163,2.501-0.314,4.094-0.451,4.78
				C100.177,113.775,99.662,114.646,98.946,114.621z"/>
			
				<linearGradient id="SVGID_33_" gradientUnits="userSpaceOnUse" x1="2122.0508" y1="-3610.7148" x2="2141.1992" y2="-3610.7148" gradientTransform="matrix(0.7842 1.411 -1.411 0.7842 -6676.2007 -74.749)">
				<stop  offset="0" style="stop-color:#B5A57F"/>
				<stop  offset="1" style="stop-color:#8A7D5F"/>
			</linearGradient>
			<path style="fill-rule:evenodd;clip-rule:evenodd;fill:url(#SVGID_33_);" d="M90.971,81.247c5.099-0.296,8.228-0.56,9.388-0.79
				c1.743-0.345,3.13-0.263,4.163,0.247c0.675,0.359,1.27,1.01,1.785,1.951c0.294,0.654,0.996,3.642,2.104,8.962
				c1.014,4.847,1.625,7.934,1.834,9.265c0.114,0.58,0.266,1.346,0.454,2.297c0.104,0.802,0.007,1.561-0.29,2.278
				c-0.286,0.77-1.477,2.239-3.57,4.409c-1.81,1.949-3.141,3.254-3.997,3.918c-2.399,2.01-4.26,3.146-5.579,3.407
				c-3.946,0.287-6.95,0.635-9.009,1.042c-1.224,0.188-3.572,0.379-7.046,0.572c-3.418,0.183-5.456,0.284-6.11,0.304
				c-1.139,0.062-1.972-0.267-2.498-0.985c-0.791-0.941-1.53-3.016-2.221-6.227c-1.224-5.078-2.07-8.805-2.541-11.18
				c-0.783-4.234-0.7-6.855,0.252-7.867c1.322-1.358,3.468-3.264,6.438-5.717c3.573-3.01,5.936-4.657,7.086-4.94
				C83.082,81.847,86.201,81.532,90.971,81.247z"/>
			
				<linearGradient id="SVGID_34_" gradientUnits="userSpaceOnUse" x1="2317.2246" y1="-3497.9238" x2="2334.2224" y2="-3497.9238" gradientTransform="matrix(0.8587 1.3669 -1.3669 0.8587 -6676.2012 -74.6007)">
				<stop  offset="0" style="stop-color:#A79876"/>
				<stop  offset="1" style="stop-color:#685C44"/>
			</linearGradient>
			<path style="fill-rule:evenodd;clip-rule:evenodd;fill:url(#SVGID_34_);" d="M92.756,91.658l0.11-0.27
				c0.201-0.369,1.469-1.443,3.806-3.222c2.673-2.011,4.354-3.357,5.042-4.042c0.592-0.612,1.623-1.639,3.093-3.081
				c0.579,0.433,1.079,1.021,1.5,1.76l1.052,4.07c1.569,6.82,2.531,11.539,2.886,14.158c0.114,0.579,0.266,1.345,0.454,2.296
				c0.104,0.803,0.007,1.561-0.29,2.278c-0.286,0.771-1.477,2.24-3.57,4.409c-1.81,1.949-3.141,3.254-3.997,3.919
				c-0.369,0.346-1.289,0.967-2.758,1.861c-1.469,0.894-2.409,1.409-2.821,1.545c0.287-1.043,0.301-2.226,0.039-3.544L92.756,91.658
				z"/>
			<path style="fill-rule:evenodd;clip-rule:evenodd;fill:#CCB990;" d="M104.807,81.045c-0.467,0.695-1.158,1.491-2.079,2.385
				c-0.697,0.633-2.521,2.09-5.471,4.374c-2.726,2.021-4.189,3.216-4.391,3.585c-1.499,0.188-6.211,0.626-14.139,1.316
				c-6.037,0.537-9.757,0.999-11.163,1.387c0.055-0.284,0.229-0.648,0.525-1.091c1.322-1.359,3.468-3.264,6.438-5.718
				c3.573-3.01,5.936-4.657,7.086-4.939c3.505-0.859,9.753-1.437,18.745-1.736C102.639,80.485,104.12,80.631,104.807,81.045z"/>
			<g>
				<path style="fill-rule:evenodd;clip-rule:evenodd;fill:#584D39;" d="M101.46,100.302c0.24,1.214,0.174,2.269-0.196,3.165
					c-0.361,0.95-0.912,1.498-1.649,1.644c-0.739,0.146-1.457-0.15-2.151-0.892c-0.685-0.688-1.147-1.637-1.388-2.852
					c-0.229-1.161-0.164-2.217,0.196-3.166c0.36-0.948,0.911-1.496,1.65-1.643c0.737-0.146,1.455,0.151,2.15,0.891
					C100.768,98.189,101.23,99.141,101.46,100.302z"/>
				
					<radialGradient id="SVGID_35_" cx="4095.5508" cy="921" r="1.7122" gradientTransform="matrix(1.5836 -0.3134 -0.3134 -1.5836 -6098.8882 2842.3118)" gradientUnits="userSpaceOnUse">
					<stop  offset="0" style="stop-color:#E5DDC4"/>
					<stop  offset="1" style="stop-color:#D3C48E"/>
				</radialGradient>
				<path style="fill-rule:evenodd;clip-rule:evenodd;fill:url(#SVGID_35_);" d="M100.352,100.521
					c0.177,0.896,0.111,1.678-0.195,2.342c-0.297,0.717-0.762,1.139-1.396,1.264c-0.58,0.115-1.172-0.097-1.772-0.638
					c-0.547-0.549-0.903-1.246-1.07-2.091c-0.168-0.844-0.099-1.599,0.209-2.264c0.35-0.727,0.815-1.148,1.396-1.263
					c0.634-0.126,1.224,0.087,1.771,0.636C99.831,99.006,100.185,99.677,100.352,100.521z"/>
			</g>
			<g>
				<path style="fill-rule:evenodd;clip-rule:evenodd;fill:#584D39;" d="M108.771,93.589c0.22,1.108,0.217,2.068-0.007,2.881
					c-0.16,0.854-0.502,1.334-1.031,1.438c-0.475,0.094-0.949-0.224-1.423-0.952c-0.526-0.719-0.893-1.605-1.102-2.662
					s-0.208-2.016,0.005-2.881c0.16-0.854,0.478-1.329,0.952-1.423c0.529-0.104,1.028,0.208,1.502,0.938
					C108.193,91.646,108.562,92.532,108.771,93.589z"/>
				
					<radialGradient id="SVGID_36_" cx="4101.5" cy="917.7002" r="1.45" gradientTransform="matrix(1.5836 -0.3134 -0.3134 -1.5836 -6100.957 2831.8611)" gradientUnits="userSpaceOnUse">
					<stop  offset="0" style="stop-color:#E5DDC4"/>
					<stop  offset="1" style="stop-color:#D3C48E"/>
				</radialGradient>
				<path style="fill-rule:evenodd;clip-rule:evenodd;fill:url(#SVGID_36_);" d="M108.058,93.729
					c0.157,0.792,0.161,1.505,0.012,2.137c-0.202,0.645-0.515,1.007-0.937,1.091c-0.369,0.073-0.771-0.148-1.202-0.667
					c-0.378-0.528-0.646-1.188-0.804-1.98c-0.156-0.791-0.154-1.479,0.005-2.058c0.202-0.643,0.487-1.001,0.857-1.074
					c0.422-0.084,0.849,0.134,1.281,0.651C107.639,92.304,107.901,92.938,108.058,93.729z"/>
			</g>
			<path style="fill-rule:evenodd;clip-rule:evenodd;fill:#E9D7B0;" d="M99.111,86.779c-3.804,3.222-5.708,5.105-5.709,5.655
				c0.008,0.601,1.309,7.174,3.902,19.716c0.479,2.701,0.466,4.433-0.043,5.19l0.05-0.996c0.074-0.453-0.5-3.631-1.723-9.532
				c-1.191-5.744-2.012-9.476-2.462-11.198c-0.451-1.72-0.755-2.702-0.912-2.944c-0.169-0.296-0.501-0.451-0.996-0.462
				c-0.665-0.032-5.25,0.354-13.758,1.159l-9.896,0.313l12.208-1.098c2.268-0.176,4.876-0.445,7.82-0.809
				c2.945-0.363,4.646-0.645,5.1-0.844c0.464-0.146,2.329-1.531,5.595-4.153c2.03-1.664,4.204-3.574,6.519-5.732
				C104.826,81.698,102.928,83.61,99.111,86.779z"/>
			<path style="fill-rule:evenodd;clip-rule:evenodd;fill:#493E28;" d="M99.098,102.086c-0.582,0.115-0.949-0.224-1.106-1.016
				c-0.156-0.792,0.055-1.245,0.636-1.36c0.582-0.114,0.949,0.224,1.105,1.016C99.89,101.518,99.679,101.971,99.098,102.086z"/>
			<path style="fill-rule:evenodd;clip-rule:evenodd;fill:#5B5239;" d="M102.926,103.549c3.857-3.505,6.026-5.854,6.504-7.047
				l0.501,2.946c0.114,0.58,0.266,1.346,0.454,2.297c0.104,0.802,0.007,1.561-0.29,2.278c-0.286,0.77-1.467,2.292-3.539,4.566
				c-1.756,1.938-3.077,3.298-3.966,4.076c-2.59,2.158-4.438,3.347-5.548,3.566c-3.925,0.393-6.887,0.815-8.882,1.265
				c-1.426,0.282-5.817,0.686-13.173,1.209c-1.075,0.104-1.867-0.151-2.372-0.765c-0.78-0.889-1.487-2.806-2.125-5.75l1.17,0.098
				c0.644-0.073,4.724-0.523,12.239-1.354c7.356-0.798,11.384-1.376,12.081-1.732C96.974,108.677,99.288,106.793,102.926,103.549z"
				/>
			<path style="fill-rule:evenodd;clip-rule:evenodd;fill:#493E28;" d="M107.247,95.454c-0.37,0.073-0.627-0.26-0.773-0.999
				s-0.035-1.146,0.334-1.219c0.423-0.083,0.707,0.244,0.854,0.983S107.669,95.37,107.247,95.454z"/>
			<path style="fill-rule:evenodd;clip-rule:evenodd;fill:#746541;" d="M103.208,104.975c3.878-3.399,6.057-5.697,6.535-6.889
				l0.501,2.946c0.114,0.579,0.266,1.345,0.454,2.296c0.104,0.803,0.007,1.561-0.29,2.278c-0.286,0.771-1.477,2.24-3.57,4.409
				c-1.81,1.949-3.141,3.254-3.997,3.919c-2.399,2.009-4.26,3.146-5.579,3.406c-3.946,0.288-6.95,0.635-9.009,1.043
				c-1.224,0.188-3.572,0.379-7.046,0.571c-3.418,0.184-5.456,0.284-6.11,0.305c-1.086,0.051-1.909-0.225-2.467-0.828
				c-0.791-0.941-1.504-2.884-2.142-5.829c0.465,0.127,0.888,0.182,1.266,0.161c0.645-0.073,4.75-0.393,12.318-0.958
				c7.388-0.64,11.436-1.111,12.144-1.415C97.22,109.917,99.549,108.112,103.208,104.975z"/>
			<path style="fill-rule:evenodd;clip-rule:evenodd;fill:#665839;" d="M110.698,103.328c0.104,0.803,0.007,1.561-0.29,2.278
				c-0.286,0.771-1.477,2.24-3.57,4.409c-1.81,1.949-3.141,3.254-3.997,3.919c-2.125,1.736-3.878,2.852-5.262,3.344
				c-0.021-0.105-0.214-1.494-0.577-4.164c0.117-1.065,0.073-2.126-0.137-3.182c1.797-1.179,4.211-3.11,7.245-5.796
				c3.309-2.957,5.187-4.975,5.633-6.051l0.501,2.946C110.358,101.611,110.51,102.377,110.698,103.328z"/>
			<polygon style="fill-rule:evenodd;clip-rule:evenodd;fill:#4E422C;" points="104.369,109.6 97.402,110.567 96.404,110.518 
				109.266,99.003 109.936,104.466 105.791,103.477 			"/>
			<polygon style="fill-rule:evenodd;clip-rule:evenodd;fill:#806F48;" points="104.529,108.745 97.196,110.36 96.216,110.391 
				109.743,98.086 110.19,103.264 106.203,102.654 			"/>
			<path style="fill-rule:evenodd;clip-rule:evenodd;fill:#3D3628;" d="M105.957,106.817c0.065-0.781,0.331-1.245,0.795-1.392
				l1.219-0.077c0.4,0.359,0.511,0.914,0.329,1.662c-0.147,0.634-0.692,0.933-1.631,0.899c-0.445-0.021-0.708-0.107-0.792-0.255
				C105.867,107.604,105.894,107.323,105.957,106.817z"/>
			<path style="fill-rule:evenodd;clip-rule:evenodd;fill:#242017;" d="M105.293,106.783c0.171-0.527,0.456-0.886,0.856-1.074
				l0.712,0.271c-0.391,0.242-0.655,0.432-0.792,0.567c-0.191,0.147-0.191,0.423-0.003,0.824l2.265,0.21
				c-0.266,0.326-0.734,0.584-1.411,0.772c-0.739,0.146-1.245,0.083-1.52-0.192C105.117,107.833,105.081,107.375,105.293,106.783z"
				/>
			
				<linearGradient id="SVGID_37_" gradientUnits="userSpaceOnUse" x1="3842.7988" y1="-1656.2607" x2="3846.6992" y2="-1656.2607" gradientTransform="matrix(1.4637 0.6807 -0.6807 1.4637 -6676.2012 -74.6014)">
				<stop  offset="0" style="stop-color:#B5A57F"/>
				<stop  offset="1" style="stop-color:#8A7D5F"/>
			</linearGradient>
			<path style="fill-rule:evenodd;clip-rule:evenodd;fill:url(#SVGID_37_);" d="M76.159,118.804
				c0.174-2.448,0.578-3.873,1.211-4.271c1.859-1.137,3.306-1.039,4.337,0.293c0.514,0.665,0.836,1.453,0.96,2.36
				c-2.77,2.908-4.668,4.545-5.692,4.911C76.257,122.349,75.985,121.25,76.159,118.804z"/>
			<path style="fill-rule:evenodd;clip-rule:evenodd;fill:#665839;" d="M79.22,115.563c-1.022-0.182-1.819-0.051-2.391,0.392
				l-0.523,0.679l-0.711-1.093c-0.104-0.253-0.034-0.597,0.208-1.028c0.202-0.369,0.445-0.663,0.731-0.886
				c0.866-0.61,1.949-0.824,3.246-0.643c1.224,0.088,2.057,0.416,2.498,0.987c0.77,0.835,1.063,1.901,0.881,3.199
				c-0.117,0.517-0.803,0.927-2.061,1.23c0.086-0.401,0.087-0.813,0.003-1.234C80.871,116.28,80.244,115.745,79.22,115.563z"/>
			<path style="fill-rule:evenodd;clip-rule:evenodd;fill:#DDCA9E;" d="M76.738,114.245c0.042-0.612,0.344-1.028,0.905-1.249
				c0.855-0.388,1.558-0.444,2.105-0.169c0.495,0.286,0.663,0.582,0.505,0.887c-0.277,0.823-1.096,1.26-2.457,1.309
				C77.047,115.116,76.693,114.857,76.738,114.245z"/>
			
				<use xlink:href="#flash0.ai_x2F_Layer_8_x2F__x3C_Path_x3E_"  width="17.209" height="13.932" y="-13.932" transform="matrix(0.8769 -0.1735 -0.1735 -0.8769 68.9502 97.25)" style="overflow:visible;opacity:0.1016;enable-background:new    ;"/>
			<g>
				<path style="fill-rule:evenodd;clip-rule:evenodd;fill:#DAE0E6;" d="M64.461,85.232c0.748,0.095,2.199,0.598,4.353,1.508
					c3.274,1.355,6.609,3.475,10.003,6.356c4.346,3.694,6.048,6.774,5.109,9.237c-0.817,2.167-3.291,3.4-7.421,3.701
					c-1.888,0.131-3.482-0.024-4.784-0.465c-1.431-0.477-2.373-1.246-2.826-2.311c-0.39-0.895-0.335-1.695,0.163-2.4
					c0.234-0.351,0.515-0.618,0.842-0.805c-0.888-0.189-1.811-0.478-2.767-0.864c-1.956-0.828-3.178-1.786-3.667-2.873
					c-0.343-0.813-0.116-1.739,0.68-2.777c0.388-0.501,0.818-0.936,1.292-1.303c-0.409-0.071-1.176-0.572-2.302-1.504
					c-1.376-1.124-1.997-2.109-1.86-2.956C61.601,85.89,62.662,85.042,64.461,85.232z"/>
				<path style="fill-rule:evenodd;clip-rule:evenodd;fill:#9CACB8;" d="M82.205,100.306c0.684-0.227,1.21-0.635,1.58-1.224
					l0.409,1.377c0.104,1.133-0.19,2.179-0.882,3.135c-0.855,1.203-1.926,2.006-3.212,2.413l-1.727,0.251l2.09-2.556
					c0.492-0.583,0.372-1.728-0.36-3.436l0.586,0.202C81.19,100.552,81.695,100.497,82.205,100.306z"/>
				<path style="fill-rule:evenodd;clip-rule:evenodd;fill:#D3DFE8;" d="M63.485,86.746c1.21,0.125,2.497,0.569,3.862,1.331
					c3.741,2.022,6.802,4.06,9.181,6.109c4.042,3.542,5.592,6.773,4.651,9.693c-0.611,1.974-2.562,2.936-5.851,2.889
					c-1.554-0.026-2.915-0.304-4.082-0.832c-1.208-0.581-2.048-1.371-2.52-2.372c-0.384-0.865-0.412-1.618-0.083-2.261
					c0.182-0.309,0.396-0.534,0.642-0.673c-0.748-0.247-1.529-0.594-2.347-1.039c-1.698-0.909-2.788-1.893-3.271-2.951
					c-0.372-0.807-0.266-1.648,0.32-2.523c0.305-0.455,0.642-0.825,1.011-1.11c-0.683-0.229-1.36-0.581-2.031-1.057
					c-1.318-0.983-1.973-2.145-1.965-3.482C61.045,87.153,61.873,86.58,63.485,86.746z"/>
				
					<linearGradient id="SVGID_38_" gradientUnits="userSpaceOnUse" x1="-694.3174" y1="967.5078" x2="-638.6174" y2="967.5078" gradientTransform="matrix(-0.1735 -0.8767 0.8765 -0.1744 -891.9501 -317.6998)">
					<stop  offset="0" style="stop-color:#65808C"/>
					<stop  offset="0.1373" style="stop-color:#738C97;stop-opacity:0.9059"/>
					<stop  offset="0.4" style="stop-color:#99ABB3;stop-opacity:0.6627"/>
					<stop  offset="0.7569" style="stop-color:#D4DCDF;stop-opacity:0.2745"/>
					<stop  offset="0.9882" style="stop-color:#FFFFFF;stop-opacity:0"/>
				</linearGradient>
				<path style="fill-rule:evenodd;clip-rule:evenodd;fill:url(#SVGID_38_);" d="M63.485,86.746c1.21,0.125,2.497,0.569,3.862,1.331
					c3.741,2.022,6.802,4.06,9.181,6.109c4.042,3.542,5.592,6.773,4.651,9.693c-0.611,1.974-2.562,2.936-5.851,2.889
					c-1.554-0.026-2.915-0.304-4.082-0.832c-1.208-0.581-2.048-1.371-2.52-2.372c-0.384-0.865-0.412-1.618-0.083-2.261
					c0.182-0.309,0.396-0.534,0.642-0.673c-0.748-0.247-1.529-0.594-2.347-1.039c-1.698-0.909-2.788-1.893-3.271-2.951
					c-0.372-0.807-0.266-1.648,0.32-2.523c0.305-0.455,0.642-0.825,1.011-1.11c-0.683-0.229-1.36-0.581-2.031-1.057
					c-1.318-0.983-1.973-2.145-1.965-3.482C61.045,87.153,61.873,86.58,63.485,86.746z"/>
				<path style="fill-rule:evenodd;clip-rule:evenodd;fill:#F2F9FF;" d="M61.462,86.646l3.224,0.409
					c2.739,0.644,5.538,1.972,8.397,3.987c4.166,2.941,6.755,5.359,7.768,7.254c0.523,0.959,0.622,1.608,0.293,1.947
					c-0.086-0.591-0.471-1.381-1.152-2.369c-1.357-1.949-3.492-3.91-6.403-5.885c-2.695-1.805-5.529-3.232-8.5-4.284L61.462,86.646z
					"/>
				<path style="fill-rule:evenodd;clip-rule:evenodd;fill:#9CACB8;" d="M60.844,88.362l0.437,1.053
					c0.559,0.83,1.487,1.527,2.783,2.091c2.201,0.992,3.853,1.819,4.955,2.481c-0.905-0.125-1.887-0.325-2.943-0.603
					c-2.09-0.588-3.453-1.335-4.088-2.242c-0.6-0.883-0.973-1.614-1.118-2.193L60.844,88.362z"/>
				<path style="fill-rule:evenodd;clip-rule:evenodd;fill:#91A0AB;" d="M63.668,96.641l1.768,1.107
					c1.43,0.78,2.82,1.355,4.168,1.727c2.149,0.577,3.104,0.949,2.864,1.119c-0.433,0.115-1,0.166-1.701,0.154
					c-1.35-0.067-2.634-0.42-3.854-1.06c-1.22-0.64-2.118-1.343-2.695-2.109L63.668,96.641z"/>
				<path style="fill-rule:evenodd;clip-rule:evenodd;fill:#91A0AB;" d="M69.025,104.145l1.637,0.906
					c1.307,0.621,2.504,0.992,3.591,1.111c1.758,0.138,3.762-0.017,6.013-0.462c-0.527,0.256-1.222,0.5-2.087,0.731
					c-1.701,0.459-3.36,0.59-4.978,0.395c-1.618-0.197-2.797-0.707-3.538-1.532L69.025,104.145z"/>
				<path style="fill-rule:evenodd;clip-rule:evenodd;fill:#91A0AB;" d="M69.241,96.95c-0.355-0.568-0.34-1.103,0.047-1.604
					c0.217-0.286,0.503-0.525,0.86-0.718l4.564,0.737c-0.701-0.014-1.391,0.032-2.069,0.136c-1.385,0.213-2.037,0.601-1.957,1.162
					c0.052,0.566,0.646,1.116,1.785,1.65c0.601,0.275,1.173,0.481,1.716,0.617c-0.188,0.128-0.38,0.303-0.58,0.524
					c-0.427,0.449-0.717,0.901-0.87,1.356c-0.124,0.45,0.906,0.899,3.09,1.347c1.104,0.207,2.214,0.367,3.329,0.48
					c-1.929,0.686-3.152,1.262-3.666,1.728c-0.305,0.304,0.483,0.527,2.365,0.671c0.958,0.084,1.939,0.133,2.944,0.146
					c-0.672,0.285-1.438,0.481-2.297,0.592c-1.689,0.212-2.959-0.067-3.811-0.841c-0.601-0.579-0.652-1.07-0.155-1.473
					c0.235-0.198,0.539-0.35,0.913-0.454c-1.572,0.038-2.821-0.367-3.749-1.217c-0.595-0.551-0.619-1.137-0.075-1.762
					c0.24-0.32,0.553-0.58,0.938-0.777C70.92,98.606,69.812,97.839,69.241,96.95z"/>
				<path style="fill-rule:evenodd;clip-rule:evenodd;fill:#91A0AB;" d="M77.62,96.021c-0.151,0.151-0.313,0.335-0.482,0.551
					c-0.34,0.432-0.533,0.834-0.581,1.208c-0.042,0.403,0.469,0.834,1.531,1.292c0.531,0.229,1.054,0.414,1.567,0.555
					c-0.234,0.198-0.471,0.457-0.712,0.778c-0.485,0.613-0.732,1.208-0.739,1.787c-0.007,0.578,0.477,1.029,1.452,1.352
					c0.52,0.171,1.028,0.283,1.524,0.337c-0.543,0.168-1.128,0.208-1.753,0.119c-1.186-0.16-1.862-0.816-2.029-1.968
					c-0.098-0.648-0.009-1.273,0.267-1.875c0.152-0.303,0.305-0.531,0.458-0.682c-0.526-0.049-1.049-0.157-1.568-0.328
					c-1.016-0.376-1.526-0.882-1.53-1.519c-0.005-0.638,0.422-1.087,1.281-1.348C76.762,96.13,77.2,96.043,77.62,96.021z"/>
				<path style="fill-rule:evenodd;clip-rule:evenodd;fill:#9CACB8;" d="M61.278,90.555l-0.434-2.192l0.909,1.142
					c0.776,0.848,1.546,1.516,2.31,2.002c0.945,0.633,2.081,1.229,3.405,1.786c1.419,0.569,2.758,0.973,4.021,1.208
					c1.74,0.354,3.828,0.928,6.263,1.722c-1.081-0.241-1.927-0.377-2.541-0.408c-0.888-0.037-1.989-0.152-3.303-0.348
					c-1.379-0.214-3.046-0.582-5.002-1.106c-1.635-0.436-2.634-0.724-2.996-0.864C62.702,93.066,61.824,92.086,61.278,90.555z"/>
				<path style="fill-rule:evenodd;clip-rule:evenodd;fill:#DAE0E6;" d="M72.486,95.624c-0.199,0.07-0.41,0.157-0.632,0.262
					c-0.403,0.262-0.588,0.557-0.553,0.885c0.051,0.565,0.8,1.208,2.248,1.923c-1.781-0.559-2.735-1.235-2.862-2.029
					c-0.068-0.503,0.201-0.83,0.809-0.98C71.817,95.62,72.147,95.6,72.486,95.624z"/>
				<path style="fill-rule:evenodd;clip-rule:evenodd;fill:#DAE0E6;" d="M73.75,99.246c-0.077,0.076-0.144,0.195-0.203,0.358
					c-0.117,0.328-0.153,0.684-0.107,1.069c0.052,0.415,0.802,0.828,2.25,1.24c0.735,0.188,1.465,0.348,2.189,0.478
					c-3.371-0.305-5.172-0.813-5.404-1.526c-0.151-0.456,0.013-0.854,0.493-1.191C73.203,99.476,73.463,99.333,73.75,99.246z"/>
				<path style="fill-rule:evenodd;clip-rule:evenodd;fill:#DAE0E6;" d="M75.492,104.367c-0.058-0.292,0.319-0.61,1.132-0.952
					c0.391-0.169,0.789-0.309,1.192-0.419c-0.251,0.11-0.497,0.25-0.736,0.419c-0.446,0.361-0.656,0.677-0.633,0.946
					c0.023,0.269,0.568,0.494,1.638,0.678c0.495,0.088,0.97,0.146,1.423,0.174c-0.601-0.023-1.209-0.069-1.827-0.14
					C76.314,104.918,75.585,104.683,75.492,104.367z"/>
				<path style="fill-rule:evenodd;clip-rule:evenodd;fill:#DAE0E6;" d="M77.752,96.222c-0.077,0.076-0.146,0.182-0.211,0.315
					c-0.129,0.268-0.194,0.554-0.195,0.858c0.005,0.333,0.474,0.787,1.408,1.361c0.484,0.299,0.96,0.554,1.427,0.766
					c-0.247,0.291-0.504,0.601-0.774,0.927c-0.533,0.683-0.802,1.161-0.808,1.436c-0.007,0.274,0.299,0.67,0.918,1.186
					c0.32,0.239,0.635,0.45,0.944,0.632c-1.267-0.265-2.02-0.769-2.257-1.511c-0.158-0.486,0.034-1.055,0.573-1.708
					c0.269-0.327,0.562-0.613,0.877-0.857c-1.676-0.641-2.708-1.256-3.099-1.847c-0.221-0.351-0.081-0.713,0.423-1.086
					C77.213,96.496,77.471,96.338,77.752,96.222z"/>
				<path style="fill-rule:evenodd;clip-rule:evenodd;fill:#DAE0E6;" d="M63.803,94.564l0.393,1.061
					c0.366,0.777,0.792,1.316,1.276,1.615c0.741,0.521,1.249,0.938,1.523,1.248c-2.05-0.688-3.225-1.412-3.528-2.172
					c-0.157-0.485-0.153-0.927,0.011-1.324C63.566,94.824,63.674,94.681,63.803,94.564z"/>
				<path style="fill-rule:evenodd;clip-rule:evenodd;fill:#DAE0E6;" d="M61.592,87.304l-0.178,0.946
					c0.016,0.695,0.359,1.28,1.031,1.754c1.114,0.722,2.874,1.785,5.278,3.192c-0.999-0.288-2.014-0.665-3.047-1.129
					c-2.072-0.956-3.215-1.899-3.43-2.828c-0.173-0.725-0.172-1.257,0.004-1.595C61.36,87.44,61.475,87.326,61.592,87.304z"/>
				<path style="fill-rule:evenodd;clip-rule:evenodd;fill:#DAE0E6;" d="M68.661,102.304l0.532,0.851
					c0.426,0.614,0.772,1.062,1.041,1.343c0.46,0.485,1.259,0.92,2.398,1.303c-1.869-0.391-3.072-0.941-3.607-1.655
					c-0.332-0.451-0.495-0.889-0.488-1.315L68.661,102.304z"/>
			</g>
		</g>
		
			<use xlink:href="#Symbol_4"  width="48.185" height="29.146" x="-1.107" y="-31.575" transform="matrix(1 0 0 -1 57.8999 111.9502)" style="overflow:visible;opacity:0.5;"/>
		<g>
			
				<path style="fill-rule:evenodd;clip-rule:evenodd;fill:none;stroke:#231F20;stroke-linecap:round;stroke-linejoin:round;stroke-miterlimit:3;" d="
				M83.75,118.95l1.4,2.399c1.133,1.534,2.167,2.067,3.1,1.601s1.5-1.367,1.7-2.7l0.05-1.9c3.6-0.033,6.184-0.416,7.75-1.149
				c1.366-0.634,3.767-2.533,7.2-5.7c3.633-3.333,5.6-5.634,5.899-6.9c0.334-1.399-0.35-5.666-2.05-12.8
				c-1.733-7.2-3-10.983-3.8-11.35c-0.7-0.3-1.733-0.367-3.1-0.2L100,80.6c-3.9-3.867-7.267-6.5-10.1-7.9
				c-2.334-1.167-4.101-1.934-5.3-2.3c-1.467-0.467-2.533-0.533-3.2-0.2c-0.733,0.4-1.3,1.083-1.7,2.05c-0.434,1-0.5,1.9-0.2,2.7
				c0.433,1.1,1.483,2.183,3.15,3.25l-0.35,0.65c-0.267,0.533-0.4,0.983-0.4,1.35c0,0.6,0.167,1.183,0.5,1.75
				c-0.7,0.167-1.417,0.417-2.15,0.75c-0.467,0.2-1.85,1.216-4.15,3.05c-1.167,0.933-2.283,1.833-3.35,2.7
				c-2.8-1.334-4.833-2.167-6.1-2.5c-1.667-0.434-2.8-0.633-3.4-0.6c-1.333,0.066-2.033,0.816-2.1,2.25
				c-0.066,1.4,0.35,2.817,1.25,4.25c0.434,0.733,0.883,1.317,1.35,1.75l-0.5,0.801c-0.267,0.6-0.267,1.166,0,1.699
				c0.433,0.834,1.933,2.417,4.5,4.75l0.25,3h-1c-0.5-1.733-1.083-2.983-1.75-3.75c-1.933-2.199-3.933-2.783-6-1.75
				c-1.333,0.667-2.017,1.567-2.05,2.7c-0.034,0.867,0.283,1.634,0.95,2.3c0.667,0.667,1.333,1.25,2,1.75l-0.8,1.351
				c-0.5,1.033-0.617,1.916-0.35,2.649c0.833,2.267,2.383,2.934,4.65,2c1.133-0.466,2.033-1.399,2.7-2.8l0.65-1.95l2-0.5l1,6.101
				c0.9,4.133,1.867,6.383,2.9,6.75c1.667,0.6,2.867,0.85,3.6,0.75l-0.6,1.399c-0.233,0.934,0.017,1.351,0.75,1.25
				c1.167-0.166,2.783-1.166,4.85-3"/>
		</g>
	</g>
</g>
<g id="Letters">
	
		<use xlink:href="#Letters_x2F_digit_5"  width="17.45" height="26.6" y="-26.6" transform="matrix(1 0 0 -1 79.8999 36)" style="overflow:visible;"/>
	
		<use xlink:href="#Letters_x2F_digit_1"  width="9.95" height="26.35" y="-26.35" transform="matrix(1 0 0 -1 100.5498 36)" style="overflow:visible;"/>
	
		<use xlink:href="#Letters_x2F_digit_2"  width="17.4" height="26.55" y="-26.55" transform="matrix(1 0 0 -1 59.8999 36)" style="overflow:visible;"/>
</g>
<g id="highlight">
	
		<use xlink:href="#zz_x5F_Highlight_x2F_Highlight_Piece"  width="118.7" height="115.9" y="-115.9" transform="matrix(1 0 0 -1 27.25 28.1001)" style="overflow:visible;"/>
</g>
</svg>
