<?xml version="1.0" encoding="iso-8859-1"?>
<!-- Generator: Adobe Illustrator 15.1.0, SVG Export Plug-In . SVG Version: 6.00 Build 0)  -->
<!DOCTYPE svg PUBLIC "-//W3C//DTD SVG 1.1//EN" "http://www.w3.org/Graphics/SVG/1.1/DTD/svg11.dtd">
<svg version="1.1" id="Layer_1" xmlns="http://www.w3.org/2000/svg" xmlns:xlink="http://www.w3.org/1999/xlink" x="0px" y="0px"
	 width="171.55px" height="171.5px" viewBox="0 0 171.55 171.5" style="enable-background:new 0 0 171.55 171.5;"
	 xml:space="preserve">
<symbol  id="Digits_x2F_digit_1_red" viewBox="0 -25.55 9.45 25.55">
	<g id="Layer_1_8_">
		<g>
			<path style="fill-rule:evenodd;clip-rule:evenodd;fill:#FAD7C8;" d="M2.351-5.85c-0.767,0-1.367,0.25-1.8,0.75
				C0.184-4.667,0-4.133,0-3.5s0.2,1.167,0.6,1.6c0.467,0.5,1.05,0.75,1.75,0.75h4.8c0.7,0,1.267-0.233,1.7-0.7
				c0.4-0.434,0.6-1,0.6-1.7V-22.9c0-0.833-0.25-1.483-0.75-1.95c-0.467-0.467-1.066-0.7-1.8-0.7c-0.767,0-1.383,0.233-1.85,0.7
				c-0.466,0.467-0.7,1.117-0.7,1.95v17.05H2.351z"/>
			
				<linearGradient id="SVGID_1_" gradientUnits="userSpaceOnUse" x1="16195.6143" y1="-3.4009" x2="16220.5889" y2="-3.4009" gradientTransform="matrix(4.004004e-005 1 -1 -0.001 0.6753 -16221.1064)">
				<stop  offset="0.2902" style="stop-color:#310301"/>
				<stop  offset="1" style="stop-color:#D91F00"/>
			</linearGradient>
			<path style="fill-rule:evenodd;clip-rule:evenodd;fill:url(#SVGID_1_);" d="M2.351-4.7c-0.767,0-1.367,0.25-1.8,0.75
				C0.184-3.517,0-2.983,0-2.35s0.2,1.167,0.6,1.6C1.067-0.25,1.65,0,2.351,0h4.8c0.7,0,1.267-0.233,1.7-0.7
				c0.4-0.433,0.6-1,0.6-1.7v-19.35c0-0.833-0.25-1.483-0.75-1.95c-0.467-0.467-1.066-0.7-1.8-0.7c-0.767,0-1.383,0.233-1.85,0.7
				c-0.466,0.467-0.7,1.117-0.7,1.95V-4.7H2.351z"/>
		</g>
	</g>
</symbol>
<symbol  id="Digits_x2F_digit_3_red" viewBox="0 -26.2 16.7 26.2">
	<g id="Layer_1_9_">
		<g>
			<path style="fill-rule:evenodd;clip-rule:evenodd;fill:#FAD7C8;" d="M15.35-7.4c0-2.3-0.933-4.033-2.8-5.2
				c1.233-0.567,2.233-1.383,3-2.45c0.767-1.1,1.15-2.3,1.15-3.6c0-2.066-0.817-3.833-2.45-5.3c-1.7-1.5-3.733-2.25-6.1-2.25
				c-2.333,0-4.317,0.733-5.95,2.2C0.733-22.7,0-21.3,0-19.8c0,0.633,0.283,1.183,0.85,1.65c0.533,0.434,1.117,0.65,1.75,0.65
				c0.634,0,1.367-0.667,2.2-2c0.867-1.333,2-2,3.4-2c0.9,0,1.667,0.3,2.3,0.9c0.6,0.6,0.9,1.367,0.9,2.3c0,1.633-0.95,2.6-2.85,2.9
				c-1.934,0.3-2.9,1.083-2.9,2.35c0,1.167,0.8,1.95,2.4,2.35c1.6,0.433,2.4,1.283,2.4,2.55c0,0.667-0.216,1.217-0.65,1.65
				C9.366-6.066,8.767-5.85,8-5.85c-1.134,0-2.1-0.567-2.9-1.7C4.333-8.65,3.6-9.2,2.9-9.2c-0.667,0-1.2,0.267-1.6,0.8
				C0.9-7.9,0.7-7.316,0.7-6.65C0.7-5.316,1.467-4.066,3-2.9c1.533,1.167,3.233,1.75,5.1,1.75c2.267,0,4.083-0.717,5.45-2.15
				C14.75-4.5,15.35-5.867,15.35-7.4z"/>
			
				<linearGradient id="SVGID_2_" gradientUnits="userSpaceOnUse" x1="16195.1992" y1="-7.0259" x2="16220.1992" y2="-7.0259" gradientTransform="matrix(4.000000e-005 1 -1 -0.001 0.6758 -16221.1064)">
				<stop  offset="0.2902" style="stop-color:#310301"/>
				<stop  offset="1" style="stop-color:#D91F00"/>
			</linearGradient>
			<path style="fill-rule:evenodd;clip-rule:evenodd;fill:url(#SVGID_2_);" d="M15.35-6.25c0-2.3-0.933-4.033-2.8-5.2
				c1.233-0.567,2.233-1.383,3-2.45c0.767-1.1,1.15-2.316,1.15-3.65c0-2.033-0.817-3.783-2.45-5.25c-1.7-1.5-3.733-2.25-6.1-2.25
				s-4.35,0.733-5.95,2.2c-1.466,1.3-2.2,2.7-2.2,4.2c0,0.633,0.283,1.167,0.85,1.6c0.533,0.433,1.117,0.65,1.75,0.65
				c0.634,0,1.367-0.667,2.2-2c0.867-1.3,2-1.95,3.4-1.95c0.9,0,1.667,0.3,2.3,0.9c0.6,0.6,0.9,1.35,0.9,2.25
				c0,1.633-0.95,2.6-2.85,2.9c-1.934,0.3-2.9,1.1-2.9,2.4c0,1.167,0.8,1.95,2.4,2.35c1.6,0.433,2.4,1.283,2.4,2.55
				c0,0.667-0.216,1.217-0.65,1.65C9.366-4.917,8.767-4.7,8-4.7c-1.134,0-2.1-0.567-2.9-1.7C4.333-7.5,3.6-8.05,2.9-8.05
				c-0.667,0-1.2,0.267-1.6,0.8c-0.4,0.467-0.6,1.034-0.6,1.7C0.7-4.216,1.467-2.966,3-1.8C4.533-0.6,6.233,0,8.1,0
				c2.267,0,4.083-0.716,5.45-2.15C14.75-3.35,15.35-4.716,15.35-6.25z"/>
		</g>
	</g>
</symbol>
<symbol  id="Digits_x2F_digit_7_red" viewBox="0 -25.55 17.3 25.55">
	<g id="Layer_1_10_">
		<g>
			<path style="fill-rule:evenodd;clip-rule:evenodd;fill:#FAD7C8;" d="M2.55-5.85C1.684-5.85,1.033-5.6,0.6-5.1
				C0.2-4.667,0-4.133,0-3.5c0,1.566,0.85,2.35,2.55,2.35h12.3c0.8,0,1.433-0.3,1.9-0.9c0.367-0.467,0.55-0.983,0.55-1.55
				c0-0.367-0.267-1.117-0.8-2.25l-8.4-17.1c-0.533-1.067-0.933-1.733-1.2-2c-0.4-0.4-0.967-0.6-1.7-0.6
				c-0.833,0-1.533,0.283-2.1,0.85c-0.466,0.467-0.7,0.983-0.7,1.55c0,0.367,0.116,0.767,0.35,1.2l8.5,16.1H2.55z"/>
			
				<linearGradient id="SVGID_3_" gradientUnits="userSpaceOnUse" x1="16195.6104" y1="-7.3252" x2="16220.585" y2="-7.3252" gradientTransform="matrix(4.004004e-005 1 -1 -0.001 0.6753 -16221.1064)">
				<stop  offset="0.2902" style="stop-color:#310301"/>
				<stop  offset="1" style="stop-color:#D91F00"/>
			</linearGradient>
			<path style="fill-rule:evenodd;clip-rule:evenodd;fill:url(#SVGID_3_);" d="M2.55-4.7c-0.867,0-1.517,0.25-1.95,0.75
				C0.2-3.517,0-2.983,0-2.35C0-0.784,0.85,0,2.55,0h12.3c0.8,0,1.433-0.3,1.9-0.9c0.367-0.466,0.55-0.983,0.55-1.55
				c0-0.367-0.267-1.117-0.8-2.25L8.1-21.85c-0.5-1.033-0.9-1.7-1.2-2c-0.4-0.367-0.967-0.55-1.7-0.55c-0.867,0-1.566,0.267-2.1,0.8
				c-0.466,0.5-0.7,1.033-0.7,1.6c0,0.333,0.116,0.733,0.35,1.2l8.5,16.1H2.55z"/>
		</g>
	</g>
</symbol>
<symbol  id="FlashAICB_x2F_Layer_1_x2F__x3C_Group_x3E_" viewBox="-0.013 -59.843 45.305 59.854">
	<g id="Layer_1_4_">
		<g>
			<path style="fill-rule:evenodd;clip-rule:evenodd;fill:#D1B25D;" d="M40.45-2.45c0.466-0.367,0.85-0.783,1.15-1.25
				c-0.467,0.667-1.383,0.4-2.75-0.8c-1.434-1.267-2.083-2.717-1.95-4.35c0.133-1.566-0.383-2.217-1.55-1.95
				c-1.267,0.3-1.783,0.767-1.55,1.4c0.367,1.3,0.767,2.483,1.2,3.55c0.833,2.033,1.7,3.283,2.6,3.75
				C38.533-1.633,39.483-1.75,40.45-2.45z"/>
			<path style="fill-rule:evenodd;clip-rule:evenodd;fill:#C6A954;" d="M41.4-0.4c0.467-0.2,1.233-0.667,2.3-1.4v0.05l0.2-0.15
				l0.15-0.15c0.7-0.667,1.1-1.567,1.2-2.7c0.133-1.1-0.05-2.1-0.55-3c-0.3-0.567-2.333-3.25-6.1-8.05
				c-5.033-6.367-8.883-11.233-11.55-14.6l-7.45-9.45c-1.467-2.033-2.2-3.816-2.2-5.35c0-2.3-0.15-4.167-0.45-5.6
				c-0.667-3.034-1.983-5.45-3.95-7.25c-1.633-1.467-3.583-2.034-5.85-1.7c-1.133,0.167-2.1,0.483-2.9,0.95
				c-0.867,0.466-1.65,1.133-2.35,2c-1.467,1.7-1.85,3.483-1.15,5.35C2.183-47.517,6.267-44.333,13-41.9
				c1.467,0.5,2.883,1.833,4.25,4V-38l6.15,10.4c1.667,2.733,5.9,9.867,12.7,21.4c-0.267-1-0.117-1.716,0.45-2.15
				c0.434-0.267,0.967-0.25,1.6,0.05c0.633,0.333,1.184,0.867,1.65,1.6c0.467,0.733,0.733,1.45,0.8,2.15
				C40.633-3.817,40.433-3.3,40-3c-0.633,0.433-1.4,0.25-2.3-0.55l1.65,2.6C39.917-0.283,40.6-0.1,41.4-0.4z"/>
			<path style="fill-rule:evenodd;clip-rule:evenodd;fill:#FCE191;" d="M38.4-3.05c-0.633-0.3-1.183-0.817-1.65-1.55
				S36.033-6.067,36-6.8c-0.033-0.733,0.15-1.25,0.55-1.55c0.434-0.267,0.967-0.25,1.6,0.05c0.633,0.333,1.184,0.867,1.65,1.6
				c0.467,0.733,0.733,1.45,0.8,2.15C40.633-3.817,40.433-3.3,40-3S39.033-2.717,38.4-3.05z M41.6-0.45l0.4-0.3h-0.05
				c0.7-0.667,1.117-1.567,1.25-2.7c0.1-1.1-0.1-2.1-0.6-3c-0.3-0.566-2.333-3.25-6.1-8.05c-5.033-6.367-8.867-11.233-11.5-14.6
				l-7.45-9.45c-1.5-1.833-2.25-3.617-2.25-5.35c0-2.333-0.15-4.2-0.45-5.6c-0.633-3.033-1.95-5.45-3.95-7.25
				c-1.633-1.5-3.45-2.117-5.45-1.85c-1.133,0.133-2.1,0.483-2.9,1.05H2.5c-0.767,0.7-1.383,1.533-1.85,2.5
				c-0.867,1.9-0.883,3.9-0.05,6c1,2.533,2.783,4.6,5.35,6.2c1.133,0.733,2.783,1.483,4.95,2.25c1.467,0.5,2.883,1.833,4.25,4v-0.1
				l6.2,10.4c9.533,15.933,14.5,24.15,14.9,24.65c0.667,0.8,1.517,1.316,2.55,1.55c1.067,0.233,2,0.1,2.8-0.4V-0.45z"/>
			<g>
				<path style="fill-rule:evenodd;clip-rule:evenodd;fill:#EACC76;" d="M36.15-7.8l0.4-0.55c0.267-0.133,0.5-0.2,0.7-0.2
					c-0.8-1.934-1.367-3.367-1.7-4.3l-1.75-5.1l-3.1-3.85C32.133-17.433,33.95-12.767,36.15-7.8z"/>
				<path style="fill-rule:evenodd;clip-rule:evenodd;fill:#EACC76;" d="M19.85-35.55l-2.3-3c-1.2-1.5-1.917-2.983-2.15-4.45
					L15-43.4c-0.367-0.333-2.017-1.117-4.95-2.35c-2.5-1.067-4.15-2.283-4.95-3.65c-0.9-1.4-1.967-3.9-3.2-7.5
					c-0.333,0.333-0.633,0.75-0.9,1.25c0.867,2.167,1.967,4.25,3.3,6.25c1.8,2.667,3.65,4.517,5.55,5.55
					c2.5,1.367,4.933,3.767,7.3,7.2c2.467,3.667,3.883,7.15,4.25,10.45l3.85,6.4c-1.133-3.467-2.533-7.75-4.2-12.85
					C20.65-33.75,20.25-34.717,19.85-35.55z"/>
				<path style="fill-rule:evenodd;clip-rule:evenodd;fill:#EACC76;" d="M7.35-58.55c1.233,2.7,2.3,4.716,3.2,6.05
					c1.367,2,2.883,3.433,4.55,4.3c-0.233-1.6-0.633-3.05-1.2-4.35c-1.933-0.934-3.167-2.083-3.7-3.45c-0.2-0.5-0.35-1.033-0.45-1.6
					C8.95-58.133,8.15-58.45,7.35-58.55z"/>
				<path style="fill-rule:evenodd;clip-rule:evenodd;fill:#EACC76;" d="M27.65-25.7l-3.45-4.4c2.367,8.3,4.233,14.3,5.6,18
					c3.767,6.333,5.917,9.817,6.45,10.45c0.267,0.367,0.717,0.733,1.35,1.1c-1.6-2.7-3.184-5.684-4.75-8.95
					c-1.533-3.167-2.617-5.683-3.25-7.55C28.9-19.15,28.25-22.033,27.65-25.7z"/>
				<path style="fill-rule:evenodd;clip-rule:evenodd;fill:#EACC76;" d="M42.25-1.1c0.3-0.367,0.517-0.75,0.65-1.15
					c-0.4-1.1-1-3.2-1.8-6.3l-4.15-5.3l2.8,7.05l0.05,0.1c0.333,0.467,0.567,1.05,0.7,1.75C41.567-2.583,42.15-1.3,42.25-1.1z"/>
				<path style="fill-rule:evenodd;clip-rule:evenodd;fill:#EACC76;" d="M0.6-49.05c1.1,2.8,3.183,5.033,6.25,6.7
					C3.783-45.117,1.7-47.35,0.6-49.05z"/>
				<path style="fill-rule:evenodd;clip-rule:evenodd;fill:#EACC76;" d="M38.3-3.1L39.85,0c0.6-0.067,1.05-0.167,1.35-0.3l-1.4-2.6
					C39.4-2.7,38.9-2.767,38.3-3.1z"/>
			</g>
			<path style="fill-rule:evenodd;clip-rule:evenodd;fill:#FDF3D0;" d="M11-44.2c1.4-0.433,2.1-1.617,2.1-3.55
				c0.033-1.767-0.467-3.417-1.5-4.95c-1.467-2.233-2.983-3.65-4.55-4.25c-1.733-0.633-3.25-0.133-4.55,1.5
				c-1.333,1.733-0.75,4.2,1.75,7.4C6.75-44.883,9-43.6,11-44.2z"/>
			
				<linearGradient id="SVGID_4_" gradientUnits="userSpaceOnUse" x1="194.7993" y1="-16814.6113" x2="210.0466" y2="-16814.6113" gradientTransform="matrix(-0.0787 -0.9969 1.0015 -0.0202 16863.3398 -187.8223)">
				<stop  offset="0" style="stop-color:#BFA04A"/>
				<stop  offset="1" style="stop-color:#FCE191"/>
			</linearGradient>
			<path style="fill-rule:evenodd;clip-rule:evenodd;fill:url(#SVGID_4_);" d="M10.8-43.45c1.434-0.433,2.15-1.617,2.15-3.55
				c0-1.767-0.517-3.433-1.55-5c-1.467-2.233-2.967-3.65-4.5-4.25c-1.733-0.633-3.25-0.133-4.55,1.5c-1.333,1.733-0.767,4.2,1.7,7.4
				C6.55-44.15,8.8-42.85,10.8-43.45z"/>
		</g>
	</g>
</symbol>
<symbol  id="FlashAICB_x2F_Layer_1_x2F__x3C_Group_x3E__x5F_0" viewBox="0 -61.228 109.85 61.228">
	<g id="Layer_1_11_">
		<g>
			
				<use xlink:href="#FlashAICB_x2F_Layer_1_x2F__x3C_Path_x3E__x5F_1_x5F_0"  width="109.85" height="55.7" y="-55.7" style="overflow:visible;opacity:0.1992;enable-background:new    ;"/>
			
				<use xlink:href="#FlashAICB_x2F_Layer_1_x2F__x3C_Path_x3E_"  width="109.85" height="61.228" y="-61.228" style="overflow:visible;opacity:0.1211;enable-background:new    ;"/>
		</g>
	</g>
</symbol>
<symbol  id="FlashAICB_x2F_Layer_1_x2F__x3C_Group_x3E__x5F_1" viewBox="-0.013 -59.843 45.305 59.854">
	<g id="Layer_1_3_">
		<g>
			<path style="fill-rule:evenodd;clip-rule:evenodd;fill:#D1B25D;" d="M40.45-2.45c0.466-0.367,0.85-0.783,1.15-1.25
				c-0.467,0.667-1.383,0.4-2.75-0.8c-1.434-1.267-2.083-2.717-1.95-4.35c0.133-1.566-0.383-2.217-1.55-1.95
				c-1.267,0.3-1.783,0.767-1.55,1.4c0.367,1.3,0.767,2.483,1.2,3.55c0.833,2.033,1.7,3.283,2.6,3.75
				C38.533-1.633,39.483-1.75,40.45-2.45z"/>
			<path style="fill-rule:evenodd;clip-rule:evenodd;fill:#C6A954;" d="M41.4-0.4c0.467-0.2,1.233-0.667,2.3-1.4v0.05l0.2-0.15
				l0.15-0.15c0.7-0.667,1.1-1.567,1.2-2.7c0.133-1.1-0.05-2.1-0.55-3c-0.3-0.567-2.333-3.25-6.1-8.05
				c-5.033-6.367-8.883-11.233-11.55-14.6l-7.45-9.45c-1.467-2.033-2.2-3.816-2.2-5.35c0-2.3-0.15-4.167-0.45-5.6
				c-0.667-3.034-1.983-5.45-3.95-7.25c-1.633-1.467-3.583-2.034-5.85-1.7c-1.133,0.167-2.1,0.483-2.9,0.95
				c-0.867,0.466-1.65,1.133-2.35,2c-1.467,1.7-1.85,3.483-1.15,5.35C2.183-47.517,6.267-44.333,13-41.9
				c1.467,0.5,2.883,1.833,4.25,4V-38l6.15,10.4c1.667,2.733,5.9,9.867,12.7,21.4c-0.267-1-0.117-1.716,0.45-2.15
				c0.434-0.267,0.967-0.25,1.6,0.05c0.633,0.333,1.184,0.867,1.65,1.6c0.467,0.733,0.733,1.45,0.8,2.15
				C40.633-3.817,40.433-3.3,40-3c-0.633,0.433-1.4,0.25-2.3-0.55l1.65,2.6C39.917-0.283,40.6-0.1,41.4-0.4z"/>
			<path style="fill-rule:evenodd;clip-rule:evenodd;fill:#FCE191;" d="M38.4-3.05c-0.633-0.3-1.183-0.817-1.65-1.55
				S36.033-6.067,36-6.8c-0.033-0.733,0.15-1.25,0.55-1.55c0.434-0.267,0.967-0.25,1.6,0.05c0.633,0.333,1.184,0.867,1.65,1.6
				c0.467,0.733,0.733,1.45,0.8,2.15C40.633-3.817,40.433-3.3,40-3S39.033-2.717,38.4-3.05z M41.6-0.45l0.4-0.3h-0.05
				c0.7-0.667,1.117-1.567,1.25-2.7c0.1-1.1-0.1-2.1-0.6-3c-0.3-0.566-2.333-3.25-6.1-8.05c-5.033-6.367-8.867-11.233-11.5-14.6
				l-7.45-9.45c-1.5-1.833-2.25-3.617-2.25-5.35c0-2.333-0.15-4.2-0.45-5.6c-0.633-3.033-1.95-5.45-3.95-7.25
				c-1.633-1.5-3.45-2.117-5.45-1.85c-1.133,0.133-2.1,0.483-2.9,1.05H2.5c-0.767,0.7-1.383,1.533-1.85,2.5
				c-0.867,1.9-0.883,3.9-0.05,6c1,2.533,2.783,4.6,5.35,6.2c1.133,0.733,2.783,1.483,4.95,2.25c1.467,0.5,2.883,1.833,4.25,4v-0.1
				l6.2,10.4c9.533,15.933,14.5,24.15,14.9,24.65c0.667,0.8,1.517,1.316,2.55,1.55c1.067,0.233,2,0.1,2.8-0.4V-0.45z"/>
			<g>
				<path style="fill-rule:evenodd;clip-rule:evenodd;fill:#EACC76;" d="M36.15-7.8l0.4-0.55c0.267-0.133,0.5-0.2,0.7-0.2
					c-0.8-1.934-1.367-3.367-1.7-4.3l-1.75-5.1l-3.1-3.85C32.133-17.433,33.95-12.767,36.15-7.8z"/>
				<path style="fill-rule:evenodd;clip-rule:evenodd;fill:#EACC76;" d="M19.85-35.55l-2.3-3c-1.2-1.5-1.917-2.983-2.15-4.45
					L15-43.4c-0.367-0.333-2.017-1.117-4.95-2.35c-2.5-1.067-4.15-2.283-4.95-3.65c-0.9-1.4-1.967-3.9-3.2-7.5
					c-0.333,0.333-0.633,0.75-0.9,1.25c0.867,2.167,1.967,4.25,3.3,6.25c1.8,2.667,3.65,4.517,5.55,5.55
					c2.5,1.367,4.933,3.767,7.3,7.2c2.467,3.667,3.883,7.15,4.25,10.45l3.85,6.4c-1.133-3.467-2.533-7.75-4.2-12.85
					C20.65-33.75,20.25-34.717,19.85-35.55z"/>
				<path style="fill-rule:evenodd;clip-rule:evenodd;fill:#EACC76;" d="M7.35-58.55c1.233,2.7,2.3,4.716,3.2,6.05
					c1.367,2,2.883,3.433,4.55,4.3c-0.233-1.6-0.633-3.05-1.2-4.35c-1.933-0.934-3.167-2.083-3.7-3.45c-0.2-0.5-0.35-1.033-0.45-1.6
					C8.95-58.133,8.15-58.45,7.35-58.55z"/>
				<path style="fill-rule:evenodd;clip-rule:evenodd;fill:#EACC76;" d="M27.65-25.7l-3.45-4.4c2.367,8.3,4.233,14.3,5.6,18
					c3.767,6.333,5.917,9.817,6.45,10.45c0.267,0.367,0.717,0.733,1.35,1.1c-1.6-2.7-3.184-5.684-4.75-8.95
					c-1.533-3.167-2.617-5.683-3.25-7.55C28.9-19.15,28.25-22.033,27.65-25.7z"/>
				<path style="fill-rule:evenodd;clip-rule:evenodd;fill:#EACC76;" d="M42.25-1.1c0.3-0.367,0.517-0.75,0.65-1.15
					c-0.4-1.1-1-3.2-1.8-6.3l-4.15-5.3l2.8,7.05l0.05,0.1c0.333,0.467,0.567,1.05,0.7,1.75C41.567-2.583,42.15-1.3,42.25-1.1z"/>
				<path style="fill-rule:evenodd;clip-rule:evenodd;fill:#EACC76;" d="M0.6-49.05c1.1,2.8,3.183,5.033,6.25,6.7
					C3.783-45.117,1.7-47.35,0.6-49.05z"/>
				<path style="fill-rule:evenodd;clip-rule:evenodd;fill:#EACC76;" d="M38.3-3.1L39.85,0c0.6-0.067,1.05-0.167,1.35-0.3l-1.4-2.6
					C39.4-2.7,38.9-2.767,38.3-3.1z"/>
			</g>
			<path style="fill-rule:evenodd;clip-rule:evenodd;fill:#FDF3D0;" d="M11-44.2c1.4-0.433,2.1-1.617,2.1-3.55
				c0.033-1.767-0.467-3.417-1.5-4.95c-1.467-2.233-2.983-3.65-4.55-4.25c-1.733-0.633-3.25-0.133-4.55,1.5
				c-1.333,1.733-0.75,4.2,1.75,7.4C6.75-44.883,9-43.6,11-44.2z"/>
			
				<linearGradient id="SVGID_5_" gradientUnits="userSpaceOnUse" x1="194.7993" y1="-16814.6113" x2="210.0466" y2="-16814.6113" gradientTransform="matrix(-0.0787 -0.9969 1.0015 -0.0202 16863.3398 -187.8223)">
				<stop  offset="0" style="stop-color:#BFA04A"/>
				<stop  offset="1" style="stop-color:#FCE191"/>
			</linearGradient>
			<path style="fill-rule:evenodd;clip-rule:evenodd;fill:url(#SVGID_5_);" d="M10.8-43.45c1.434-0.433,2.15-1.617,2.15-3.55
				c0-1.767-0.517-3.433-1.55-5c-1.467-2.233-2.967-3.65-4.5-4.25c-1.733-0.633-3.25-0.133-4.55,1.5c-1.333,1.733-0.767,4.2,1.7,7.4
				C6.55-44.15,8.8-42.85,10.8-43.45z"/>
		</g>
	</g>
</symbol>
<symbol  id="FlashAICB_x2F_Layer_1_x2F__x3C_Path_x3E_" viewBox="0 -61.228 109.85 61.228">
	<g id="Layer_1_6_">
		<path style="fill-rule:evenodd;clip-rule:evenodd;fill:#FFFFFF;" d="M106.35-34.3c2.333-5.633,3.5-10.934,3.5-15.9
			c0-4.933-1.434-8.05-4.3-9.35c-2.367-1.067-6.3-1.05-11.8,0.05c-7.233,1.733-13.05,3.067-17.45,4
			c-7.966,1.7-15.083,2.55-21.35,2.55c-6.3,0-13.434-0.917-21.4-2.75c-8.333-2.2-14.15-3.683-17.45-4.45
			c-5.533-1.267-9.467-1.417-11.8-0.45C1.433-59.433,0-56.383,0-51.45c0,5.467,1.167,11.117,3.5,16.95
			c2.467,6.167,5.933,11.733,10.4,16.7C24.6-5.933,38.283,0,54.95,0C71.383,0,85.033-5.983,95.9-17.95
			C100.333-22.85,103.817-28.3,106.35-34.3z"/>
	</g>
</symbol>
<symbol  id="FlashAICB_x2F_Layer_1_x2F__x3C_Path_x3E__x5F_0" viewBox="0 -57.05 118.55 57.05">
	<g id="Layer_1_7_">
		
			<radialGradient id="SVGID_6_" cx="59.2749" cy="-28.5249" r="46.5144" gradientTransform="matrix(1 0 0 -1 0 -57.0498)" gradientUnits="userSpaceOnUse">
			<stop  offset="0" style="stop-color:#CCEFE7;stop-opacity:0"/>
			<stop  offset="0.0784" style="stop-color:#C9E7DC;stop-opacity:0.0392"/>
			<stop  offset="0.2118" style="stop-color:#C1D1C0;stop-opacity:0.1451"/>
			<stop  offset="0.3882" style="stop-color:#B5AE93;stop-opacity:0.3216"/>
			<stop  offset="0.5961" style="stop-color:#A67D55;stop-opacity:0.5647"/>
			<stop  offset="0.651" style="stop-color:#A17045;stop-opacity:0.6275"/>
		</radialGradient>
		<path style="fill-rule:evenodd;clip-rule:evenodd;fill:url(#SVGID_6_);" d="M95.4-30.3c10.7,7.667,18.233,17.667,22.6,30l0.55,0.3
			c-0.566-15.867-6.583-29.333-18.05-40.4C89-51.5,75.25-57.05,59.25-57.05c-15.7,0-29.25,5.367-40.65,16.1
			C7.233-30.283,1.033-17.2,0-1.7c4.633-11.966,12.217-21.65,22.75-29.05c10.767-7.533,22.767-11.3,36-11.3
			C72.25-42.05,84.467-38.133,95.4-30.3z"/>
	</g>
</symbol>
<symbol  id="FlashAICB_x2F_Layer_1_x2F__x3C_Path_x3E__x5F_1" viewBox="0 -118.5 118.7 118.5">
	<g id="Layer_1_2_">
		
			<radialGradient id="SVGID_7_" cx="59.3501" cy="-59.25" r="59.3001" gradientTransform="matrix(1 0 0 -1 0 -118.5)" gradientUnits="userSpaceOnUse">
			<stop  offset="0" style="stop-color:#F6BD8E"/>
			<stop  offset="0.0196" style="stop-color:#F5BA8C"/>
			<stop  offset="0.2471" style="stop-color:#ED9B78"/>
			<stop  offset="0.4431" style="stop-color:#E9886B"/>
			<stop  offset="0.5843" style="stop-color:#E78267"/>
			<stop  offset="0.5882" style="stop-color:#E68066;stop-opacity:0.9922"/>
			<stop  offset="0.6745" style="stop-color:#DA6858;stop-opacity:0.902"/>
			<stop  offset="0.7686" style="stop-color:#D1564E;stop-opacity:0.8392"/>
			<stop  offset="0.8706" style="stop-color:#CC4B48;stop-opacity:0.8"/>
			<stop  offset="1" style="stop-color:#CA4846;stop-opacity:0.7882"/>
		</radialGradient>
		<path style="fill-rule:evenodd;clip-rule:evenodd;fill:url(#SVGID_7_);" d="M118.7-59.25c0-16.367-5.8-30.333-17.4-41.9
			c-11.6-11.567-25.583-17.35-41.95-17.35c-16.4,0-30.383,5.783-41.95,17.35C5.8-89.583,0-75.617,0-59.25s5.8,30.333,17.4,41.9
			C28.967-5.783,42.95,0,59.35,0C75.717,0,89.7-5.783,101.3-17.35C112.9-28.95,118.7-42.917,118.7-59.25z"/>
	</g>
</symbol>
<symbol  id="FlashAICB_x2F_Layer_1_x2F__x3C_Path_x3E__x5F_1_x5F_0" viewBox="0 -55.7 109.85 55.7">
	<g id="Layer_1_5_">
		
			<linearGradient id="SVGID_8_" gradientUnits="userSpaceOnUse" x1="16165.3516" y1="-53.7803" x2="16220.9971" y2="-53.7803" gradientTransform="matrix(1.795332e-005 1 -1 -0.001 0.8545 -16221.1064)">
			<stop  offset="0.1294" style="stop-color:#E2B8B2"/>
			<stop  offset="0.9255" style="stop-color:#FFFFFF"/>
		</linearGradient>
		<path style="fill-rule:evenodd;clip-rule:evenodd;fill:url(#SVGID_8_);" d="M95.9-17.95c4.434-4.9,7.917-10.35,10.45-16.35
			c2.333-5.633,3.5-10.934,3.5-15.9c0-1.767-0.167-3.25-0.5-4.45c-1.833,11.033-7.217,20.833-16.15,29.4
			c-10.5,10.133-23.25,15.2-38.25,15.2c-15.233,0-28.067-5.05-38.5-15.15c-8.967-8.7-14.3-18.867-16-30.5
			C0.15-54.5,0-53.083,0-51.45c0,5.467,1.167,11.117,3.5,16.95c2.467,6.167,5.933,11.733,10.4,16.7C24.6-5.933,38.283,0,54.95,0
			C71.383,0,85.033-5.983,95.9-17.95z"/>
	</g>
</symbol>
<g>
	<path style="fill-rule:evenodd;clip-rule:evenodd;fill:#68757B;" d="M25.15,25.15c7.934-7.933,17.033-14.066,27.3-18.4
		C63.083,2.25,74.2,0,85.8,0C97.4,0,108.517,2.25,119.15,6.75c10.232,4.333,19.316,10.467,27.25,18.4
		c7.899,7.9,14.033,16.983,18.399,27.25c4.5,10.633,6.75,21.75,6.75,33.35c0,11.6-2.25,22.717-6.75,33.35
		c-4.333,10.268-10.467,19.351-18.399,27.25c-7.934,7.934-17.018,14.067-27.25,18.4c-10.634,4.5-21.75,6.75-33.351,6.75
		c-11.6,0-22.716-2.25-33.35-6.75c-10.267-4.333-19.367-10.467-27.3-18.4c-7.9-7.899-14.033-16.982-18.4-27.25
		C2.25,108.467,0,97.35,0,85.75c0-11.6,2.25-22.717,6.75-33.35C11.117,42.133,17.25,33.05,25.15,25.15z"/>
	
		<linearGradient id="SVGID_9_" gradientUnits="userSpaceOnUse" x1="-171.5854" y1="85.7754" x2="-0.0854" y2="85.7754" gradientTransform="matrix(5.830904e-006 -1 1 -0.001 -9.214067e-005 4.449275e-004)">
		<stop  offset="0.0039" style="stop-color:#4F1D1F"/>
		<stop  offset="0.2078" style="stop-color:#7D5F3C"/>
		<stop  offset="0.5569" style="stop-color:#B09A68"/>
		<stop  offset="0.7412" style="stop-color:#EEEDCF"/>
		<stop  offset="0.7922" style="stop-color:#E7E1AD"/>
		<stop  offset="1" style="stop-color:#B9A57A"/>
	</linearGradient>
	<path style="fill-rule:evenodd;clip-rule:evenodd;fill:url(#SVGID_9_);" d="M25.15,25.15c7.934-7.933,17.033-14.066,27.3-18.4
		C63.083,2.25,74.2,0,85.8,0C97.4,0,108.517,2.25,119.15,6.75c10.232,4.333,19.316,10.467,27.25,18.4
		c7.899,7.9,14.033,16.983,18.399,27.25c4.5,10.633,6.75,21.75,6.75,33.35c0,11.6-2.25,22.717-6.75,33.35
		c-4.333,10.268-10.467,19.351-18.399,27.25c-7.934,7.934-17.018,14.067-27.25,18.4c-10.634,4.5-21.75,6.75-33.351,6.75
		c-11.6,0-22.716-2.25-33.35-6.75c-10.267-4.333-19.367-10.467-27.3-18.4c-7.9-7.899-14.033-16.982-18.4-27.25
		C2.25,108.467,0,97.35,0,85.75c0-11.6,2.25-22.717,6.75-33.35C11.117,42.133,17.25,33.05,25.15,25.15z"/>
	<g>
		<g>
			
				<linearGradient id="SVGID_10_" gradientUnits="userSpaceOnUse" x1="-158.2358" y1="85.7759" x2="-13.4355" y2="85.7759" gradientTransform="matrix(6.906077e-006 -1 1 -0.001 -1.647736e-004 4.449275e-004)">
				<stop  offset="0.0431" style="stop-color:#BAA270"/>
				<stop  offset="1" style="stop-color:#73624A"/>
			</linearGradient>
			<path style="fill-rule:evenodd;clip-rule:evenodd;fill:url(#SVGID_10_);" d="M85.8,13.35c9.8,0,19.184,1.9,28.15,5.7
				c8.667,3.667,16.35,8.833,23.05,15.5c6.667,6.667,11.833,14.333,15.5,23c3.8,8.967,5.7,18.367,5.7,28.2
				c0,9.833-1.9,19.233-5.7,28.2c-3.667,8.667-8.833,16.333-15.5,23c-6.7,6.667-14.383,11.833-23.05,15.5
				c-8.967,3.8-18.351,5.7-28.15,5.7c-9.833,0-19.233-1.9-28.2-5.7c-8.667-3.667-16.333-8.833-23-15.5
				c-6.7-6.667-11.883-14.333-15.55-23c-3.8-8.967-5.7-18.367-5.7-28.2c0-9.833,1.9-19.233,5.7-28.2
				c3.667-8.667,8.85-16.333,15.55-23c6.667-6.667,14.333-11.833,23-15.5C66.566,15.25,75.967,13.35,85.8,13.35z"/>
		</g>
	</g>
	<g>
		
			<linearGradient id="SVGID_11_" gradientUnits="userSpaceOnUse" x1="-151.9351" y1="85.7754" x2="-19.7354" y2="85.7754" gradientTransform="matrix(7.567159e-006 -1 1 -0.001 -1.764781e-004 4.449275e-004)">
			<stop  offset="0.0353" style="stop-color:#722F2A"/>
			<stop  offset="0.5843" style="stop-color:#E76267"/>
			<stop  offset="1" style="stop-color:#DCB574"/>
		</linearGradient>
		<path style="fill-rule:evenodd;clip-rule:evenodd;fill:url(#SVGID_11_);" d="M85.8,19.65c18.2,0,33.767,6.467,46.7,19.4
			c12.9,12.9,19.35,28.467,19.35,46.7s-6.449,33.8-19.35,46.7c-12.934,12.933-28.5,19.399-46.7,19.399
			c-18.233,0-33.8-6.467-46.7-19.399c-12.934-12.9-19.4-28.467-19.4-46.7s6.466-33.8,19.4-46.7C52,26.117,67.566,19.65,85.8,19.65z"
			/>
		<path style="fill-rule:evenodd;clip-rule:evenodd;fill:#470B17;" d="M85.8,20.5c-18.033,0-33.417,6.367-46.15,19.1
			C26.883,52.333,20.5,67.717,20.5,85.75s6.383,33.417,19.15,46.15C52.383,144.633,67.767,151,85.8,151
			c18,0,33.384-6.367,46.15-19.1c12.733-12.733,19.1-28.117,19.1-46.15s-6.366-33.417-19.1-46.15
			C119.184,26.867,103.8,20.5,85.8,20.5z M23.95,60.15c3.366-8.167,8.2-15.4,14.5-21.7c6.333-6.333,13.566-11.184,21.7-14.55
			s16.683-5.05,25.65-5.05c8.934,0,17.467,1.683,25.601,5.05c8.133,3.367,15.366,8.217,21.699,14.55
			c6.334,6.3,11.184,13.533,14.551,21.7c3.366,8.133,5.05,16.667,5.05,25.6s-1.684,17.467-5.05,25.6
			c-3.367,8.134-8.217,15.367-14.551,21.7c-6.333,6.333-13.566,11.184-21.699,14.55c-8.134,3.367-16.667,5.051-25.601,5.051
			c-8.967,0-17.517-1.684-25.65-5.051c-8.133-3.366-15.367-8.217-21.7-14.55c-6.3-6.333-11.134-13.566-14.5-21.7
			c-3.4-8.166-5.1-16.699-5.1-25.6C18.85,76.816,20.55,68.283,23.95,60.15z"/>
	</g>
	
		<use xlink:href="#FlashAICB_x2F_Layer_1_x2F__x3C_Path_x3E__x5F_1"  width="118.7" height="118.5" y="-118.5" transform="matrix(1 0 0 -1 26.4502 24.3501)" style="overflow:visible;opacity:0.9102;enable-background:new    ;"/>
	<g>
		<path style="fill-rule:evenodd;clip-rule:evenodd;fill:#F7DED7;" d="M48.95,70.15c1.233-1.4,2.783-2.183,4.65-2.35l23.2-1.75
			c1.9-0.133,3.55,0.417,4.95,1.65c1.4,1.2,2.184,2.733,2.35,4.6v0.2l31.75-2.4h0.5c1.334,0,2.567,0.367,3.7,1.1
			c1.067,0.7,1.884,1.65,2.45,2.85c1.833-0.966,3.733-1.267,5.7-0.9c0.433,0.067,0.967,0.233,1.6,0.5l0.8,0.4l2.2,1.35l0.601,0.45
			c0.3,0.2,0.6,0.517,0.899,0.95c1.134,1.333,1.767,2.934,1.9,4.8c0.167,1.9-0.2,3.65-1.101,5.25
			c-0.467,0.867-3.866,5.317-10.199,13.351l1.449,19.75c0.167,1.866-0.366,3.5-1.6,4.899c-1.233,1.434-2.783,2.217-4.65,2.351
			L107.95,128.1c-0.8,4.2-2.583,7.567-5.351,10.101c-2.1,1.899-4.583,2.85-7.449,2.85c-2.134,0-4.167-0.533-6.101-1.6
			c-0.6-0.3-1.333-0.817-2.2-1.55l-0.449-0.45c-2.167-1.967-3.367-4.45-3.601-7.45l-8.3,0.6l-0.3,0.051
			c-0.434,0-0.867-0.084-1.3-0.25c-0.433,0.232-0.95,0.383-1.55,0.449l-12.95,1h-0.55c-1.733,0-3.25-0.6-4.55-1.8
			c-1.3-1.233-2.033-2.733-2.2-4.5l-3.8-50.5C47.167,73.183,47.717,71.55,48.95,70.15z"/>
		
			<linearGradient id="SVGID_12_" gradientUnits="userSpaceOnUse" x1="-140.1943" y1="91.7607" x2="-65.1572" y2="91.7607" gradientTransform="matrix(1.333333e-005 -1 1 -0.001 1.831842e-004 4.449275e-004)">
			<stop  offset="0.2824" style="stop-color:#AB3A48"/>
			<stop  offset="0.2863" style="stop-color:#AB3B48"/>
			<stop  offset="0.702" style="stop-color:#D88F62"/>
			<stop  offset="0.8941" style="stop-color:#E9B06C"/>
		</linearGradient>
		<path style="fill-rule:evenodd;clip-rule:evenodd;fill:url(#SVGID_12_);" d="M48.95,69.2c1.233-1.4,2.783-2.184,4.65-2.35
			l23.2-1.75c1.867-0.133,3.517,0.417,4.95,1.65c1.4,1.233,2.184,2.767,2.35,4.6v0.2l31.75-2.4h0.5c1.334,0,2.567,0.367,3.7,1.1
			c1.067,0.7,1.884,1.65,2.45,2.85c1.833-0.967,3.733-1.267,5.7-0.9l1.6,0.5l0.8,0.4c0.233,0.167,0.367,0.267,0.4,0.3l1.8,1.05
			l0.601,0.45c0.366,0.333,0.666,0.65,0.899,0.95c1.134,1.367,1.767,2.983,1.9,4.85c0.167,1.866-0.2,3.6-1.101,5.2
			c-0.566,1.034-3.967,5.483-10.199,13.35L126.35,119c0.167,1.867-0.366,3.5-1.6,4.9c-1.233,1.433-2.783,2.217-4.65,2.35
			l-12.149,0.9c-0.767,4.232-2.55,7.6-5.351,10.1c-2.1,1.9-4.583,2.85-7.449,2.85c-1.367,0-2.733-0.232-4.101-0.699
			c-0.866-0.301-1.533-0.601-2-0.9c-0.7-0.367-1.433-0.883-2.2-1.55L86.4,136.5c-2.167-1.967-3.367-4.45-3.601-7.45l-8.3,0.65h-0.3
			c-0.333,0-0.767-0.067-1.3-0.2c-0.5,0.233-1.017,0.367-1.55,0.4l-12.95,1h-0.55c-1.733,0-3.25-0.601-4.55-1.801
			c-1.3-1.199-2.033-2.683-2.2-4.449L47.3,74.1C47.167,72.233,47.717,70.6,48.95,69.2z"/>
		<path style="fill-rule:evenodd;clip-rule:evenodd;fill:none;stroke:#F7E0E7;stroke-width:0.25;" d="M48.95,69.2
			c-1.233,1.4-1.784,3.033-1.65,4.9l3.8,50.55c0.167,1.767,0.9,3.25,2.2,4.449c1.3,1.2,2.817,1.801,4.55,1.801h0.55l12.95-1
			c0.533-0.033,1.05-0.167,1.55-0.4c0.534,0.133,0.967,0.2,1.3,0.2h0.3l8.3-0.65c0.233,3,1.434,5.483,3.601,7.45l0.449,0.45
			c0.768,0.667,1.5,1.183,2.2,1.55c0.467,0.3,1.134,0.6,2,0.9c1.367,0.467,2.733,0.699,4.101,0.699c2.866,0,5.35-0.949,7.449-2.85
			c2.801-2.5,4.584-5.867,5.351-10.1l12.149-0.9c1.867-0.133,3.417-0.917,4.65-2.35c1.233-1.4,1.767-3.033,1.6-4.9L124.9,99.25
			c6.232-7.867,9.633-12.316,10.199-13.35c0.9-1.6,1.268-3.333,1.101-5.2c-0.134-1.867-0.767-3.483-1.9-4.85
			c-0.233-0.3-0.533-0.617-0.899-0.95l-0.601-0.45L131,73.4c-0.033-0.033-0.167-0.133-0.4-0.3l-0.8-0.4l-1.6-0.5
			c-1.967-0.367-3.867-0.067-5.7,0.9c-0.566-1.2-1.383-2.15-2.45-2.85c-1.133-0.733-2.366-1.1-3.7-1.1h-0.5l-31.75,2.4v-0.2
			c-0.167-1.833-0.95-3.367-2.35-4.6c-1.434-1.233-3.083-1.783-4.95-1.65l-23.2,1.75C51.733,67.017,50.183,67.8,48.95,69.2z"/>
		<path style="fill-rule:evenodd;clip-rule:evenodd;fill:#470B17;" d="M126.55,81.05c-0.967,0.733-1.583,1.6-1.85,2.6
			c0.467-0.233,0.883-0.633,1.25-1.2l0.35-0.75C126.4,81.533,126.483,81.316,126.55,81.05z M51.45,71.35
			c0.6-0.733,1.383-1.133,2.35-1.2l23.25-1.75c0.967-0.066,1.817,0.217,2.55,0.85c0.733,0.6,1.133,1.383,1.2,2.35l0.25,3.45
			l35.05-2.6h0.25c0.9,0,1.684,0.316,2.351,0.95c0.7,0.6,1.066,1.35,1.1,2.25l0.4,5.1l1.75-2.8l0.2-0.25l0.05-0.1l0.1-0.15l0.9-0.9
			l0.1-0.05l0.75-0.5c1.134-0.633,2.3-0.817,3.5-0.55c0.267,0.033,0.634,0.15,1.101,0.35l0.25,0.1l0.199,0.2l1.65,1l0.25,0.1
			l0.25,0.2l0.4,0.4c0.767,0.833,1.199,1.867,1.3,3.1c0.1,1.233-0.134,2.367-0.7,3.4c-0.4,0.7-3.983,5.351-10.75,13.95l1.6,21
			c0.067,0.967-0.217,1.816-0.85,2.55s-1.434,1.117-2.4,1.15l-12.8,1c-0.233,0.033-0.433-0.033-0.6-0.2
			c-0.167-0.133-0.25-0.316-0.25-0.55l-0.3-3.5c0-0.2,0.083-0.417,0.25-0.65l0.1-0.1c0.3-0.367,0.434-0.767,0.4-1.2l-0.101-0.45
			c-1,1.5-1.5,2.851-1.5,4.05v0.351c0,2.3-0.183,4.25-0.55,5.85c-0.7,3-2.066,5.417-4.1,7.25c-1.467,1.333-3.217,2-5.25,2
			c-1.033,0-2.084-0.183-3.15-0.55c-0.867-0.367-1.316-0.566-1.35-0.6c-0.533-0.301-1.101-0.717-1.7-1.25l-0.05-0.051l-0.2-0.149
			c-0.833-0.8-1.5-1.733-2-2.8c-0.8-1.867-0.867-3.834-0.2-5.9l-12.25,0.9c-0.233,0.033-0.434-0.033-0.6-0.2
			c-0.167-0.134-0.25-0.317-0.25-0.55l-0.25-3.5c-0.033-0.233,0.034-0.434,0.2-0.601l0.1-0.149c0.333-0.334,0.466-0.733,0.4-1.2
			c-0.034-0.434-0.2-0.8-0.5-1.101c-0.333-0.3-0.717-0.449-1.15-0.449h-0.1c-0.467,0.066-0.85,0.267-1.15,0.6
			c-0.267,0.333-0.4,0.733-0.4,1.2c0.067,0.467,0.283,0.85,0.65,1.149l0.1,0.101c0.2,0.133,0.3,0.316,0.3,0.55l0.25,3.5
			c0.033,0.233-0.034,0.434-0.2,0.6c-0.133,0.167-0.317,0.268-0.55,0.301L58.15,127.6h-0.3c-0.9,0-1.684-0.3-2.35-0.899
			c-0.667-0.634-1.033-1.4-1.1-2.3l-3.8-50.5C50.533,72.933,50.816,72.083,51.45,71.35z"/>
		<g>
			<g>
				<path style="fill-rule:evenodd;clip-rule:evenodd;fill:#FEF8EE;" d="M52.35,72.1c0.4-0.467,0.917-0.733,1.55-0.8l23.25-1.75
					c0.667-0.033,1.233,0.15,1.7,0.55c0.5,0.433,0.767,0.966,0.8,1.6L80,76.3l36.15-2.7c0.666-0.034,1.232,0.15,1.699,0.55
					c0.5,0.434,0.768,0.967,0.801,1.6l3.25,43.55c0.066,0.634-0.117,1.2-0.551,1.7c-0.399,0.5-0.916,0.767-1.55,0.8l-12.45,0.95
					l-0.25-3c0.567-0.6,0.817-1.3,0.75-2.1c-0.066-0.768-0.399-1.417-1-1.95c-0.6-0.5-1.283-0.717-2.05-0.65
					c-0.767,0.067-1.399,0.384-1.899,0.95c-0.5,0.6-0.733,1.283-0.7,2.05c0.066,0.8,0.417,1.467,1.05,2l0.2,3l-28.9,2.15l-0.25-3
					c0.567-0.601,0.817-1.3,0.75-2.101c-0.066-0.767-0.4-1.399-1-1.899c-0.6-0.5-1.283-0.733-2.05-0.7
					c-0.767,0.066-1.4,0.383-1.9,0.95c-0.5,0.6-0.733,1.283-0.7,2.05c0.067,0.833,0.417,1.5,1.05,2l0.2,3l-12.6,0.95
					c-0.633,0.066-1.2-0.117-1.7-0.55c-0.467-0.4-0.733-0.934-0.8-1.601l-3.8-50.5C51.717,73.167,51.917,72.6,52.35,72.1z"/>
			</g>
			<g>
				<g>
					<path style="fill-rule:evenodd;clip-rule:evenodd;fill:#724C26;" d="M60.45,87.05c0.066,1.101-0.284,1.884-1.05,2.351
						l0.55,7.649c0.066,0.434-0.15,0.684-0.65,0.75c-0.433,0.066-0.683-0.149-0.75-0.649L58,89.5c-0.867-0.367-1.333-1.083-1.4-2.15
						c-0.067-0.5-0.017-1.033,0.15-1.6c0.167-0.633,0.4-1.133,0.7-1.5l0.15,2.15c0,0.232,0.1,0.316,0.3,0.25
						c0.2,0,0.3-0.101,0.3-0.301c-0.034-0.433-0.067-0.866-0.1-1.3c-0.034-0.867,0.017-1.3,0.15-1.3c0.2-0.033,0.35,0.833,0.45,2.6
						c0,0.2,0.1,0.301,0.3,0.301s0.3-0.117,0.3-0.351l-0.15-2.15C59.883,84.883,60.316,85.85,60.45,87.05z"/>
				</g>
				<g>
					<path style="fill-rule:evenodd;clip-rule:evenodd;fill:#724C26;" d="M63.8,82.95c0.2-0.034,0.333,0.066,0.4,0.3l1,13.7
						c0,0.267-0.117,0.399-0.35,0.399L64.4,97.4c-0.267,0-0.4-0.117-0.4-0.351l-0.55-6.5l-0.75-1l-0.4-5.1
						c0-0.434,0.1-0.733,0.3-0.9L63.8,82.95z"/>
				</g>
			</g>
			<g>
				<g>
					<path style="fill-rule:evenodd;clip-rule:evenodd;fill:#724C26;" d="M57.6,77.9l-1.5-1.6h-0.05l0.1,1.35
						c0.067,0.367-0.083,0.55-0.45,0.55c-0.267,0-0.434-0.15-0.5-0.45l-0.25-3.6c-0.067-0.3,0.083-0.483,0.45-0.55l1.1-0.05
						c1.1-0.1,1.667,0.333,1.7,1.3c0.033,0.667-0.317,1.1-1.05,1.3l1.15,1.1c0.1,0.066,0.15,0.15,0.15,0.25
						c0,0.333-0.15,0.517-0.45,0.55L57.6,77.9z M55.95,74.45L56,75.6l0.65-0.05c0.4-0.066,0.583-0.283,0.55-0.65
						c0-0.333-0.2-0.5-0.6-0.5L55.95,74.45z"/>
				</g>
				<g>
					<path style="fill-rule:evenodd;clip-rule:evenodd;fill:#724C26;" d="M61.75,75.4c0,0.3-0.15,0.467-0.45,0.5l-1.05,0.05l0.05,1
						l1.2-0.1c0.267-0.034,0.433,0.1,0.5,0.4c0,0.3-0.15,0.45-0.45,0.45l-1.65,0.15c-0.333,0-0.5-0.15-0.5-0.45l-0.25-3.5
						c-0.066-0.4,0.083-0.6,0.45-0.6l1.55-0.1c0.333-0.034,0.5,0.1,0.5,0.4c0,0.3-0.133,0.45-0.4,0.45l-1.15,0.1l0.1,0.95l1.05-0.1
						C61.517,74.967,61.683,75.1,61.75,75.4z"/>
				</g>
				<g>
					<path style="fill-rule:evenodd;clip-rule:evenodd;fill:#724C26;" d="M65.75,73.9c-0.3-0.133-0.633-0.183-1-0.15
						c-0.8,0.066-1.167,0.583-1.1,1.55c0.133,0.9,0.583,1.333,1.35,1.3c0.333,0,0.65-0.117,0.95-0.35c0.2,0,0.366,0.133,0.5,0.4
						c0,0.5-0.467,0.8-1.4,0.9c-0.633,0.067-1.183-0.117-1.65-0.55c-0.433-0.434-0.667-0.983-0.7-1.65
						c-0.067-0.667,0.083-1.233,0.45-1.7s0.883-0.733,1.55-0.8c0.3-0.034,0.583,0,0.85,0.1c0.367,0.1,0.55,0.267,0.55,0.5
						C66.167,73.75,66.05,73.9,65.75,73.9z"/>
				</g>
				<g>
					<path style="fill-rule:evenodd;clip-rule:evenodd;fill:#724C26;" d="M67.25,73.2c0-0.367,0.15-0.55,0.45-0.55
						c0.333,0,0.5,0.15,0.5,0.45l0.3,3.65c0,0.333-0.15,0.5-0.45,0.5c-0.333,0.066-0.5-0.083-0.5-0.45L67.25,73.2z"/>
				</g>
				<g>
					<path style="fill-rule:evenodd;clip-rule:evenodd;fill:#724C26;" d="M70.5,74.7l0.65-0.05c0.467-0.066,0.667-0.316,0.6-0.75
						c0-0.467-0.233-0.667-0.7-0.6l-0.65,0.05L70.5,74.7z M72.4,75c-0.3,0.267-0.667,0.433-1.1,0.5l-0.7,0.05l0.05,1.05
						c0.067,0.333-0.083,0.5-0.45,0.5c-0.333,0.066-0.5-0.083-0.5-0.45l-0.25-3.6c-0.067-0.3,0.083-0.483,0.45-0.55l1.1-0.05
						c0.467-0.034,0.867,0.083,1.2,0.35c0.333,0.267,0.517,0.617,0.55,1.05C72.783,74.283,72.667,74.667,72.4,75z"/>
				</g>
				<g>
					<path style="fill-rule:evenodd;clip-rule:evenodd;fill:#724C26;" d="M75.65,72.1c0.333-0.067,0.5,0.066,0.5,0.4
						c0,0.3-0.133,0.45-0.4,0.45l-1.15,0.1L74.65,74l1.05-0.1c0.333,0,0.5,0.133,0.5,0.4c0.066,0.267-0.067,0.434-0.4,0.5
						l-1.05,0.05l0.05,1l1.2-0.1c0.267,0,0.434,0.133,0.5,0.4c0,0.3-0.15,0.467-0.45,0.5l-1.65,0.1c-0.333,0.066-0.5-0.083-0.5-0.45
						l-0.3-3.5c0-0.367,0.167-0.566,0.5-0.6L75.65,72.1z"/>
				</g>
			</g>
			<g>
				<path style="fill-rule:evenodd;clip-rule:evenodd;fill:#724C26;" d="M115.55,80.05L68.6,83.6c-0.267,0-0.4-0.117-0.4-0.35
					c0-0.267,0.116-0.4,0.35-0.4l46.95-3.55c0.267,0,0.4,0.117,0.4,0.35C115.967,79.917,115.85,80.05,115.55,80.05z"/>
			</g>
			<g>
				<path style="fill-rule:evenodd;clip-rule:evenodd;fill:#724C26;" d="M115.9,84.7l-46.95,3.5c-0.267,0-0.4-0.117-0.4-0.351
					c0-0.199,0.117-0.333,0.35-0.399l46.95-3.5c0.268,0,0.4,0.116,0.4,0.35c0.033,0.1,0,0.2-0.1,0.3
					C116.083,84.667,116,84.7,115.9,84.7z"/>
			</g>
			<g>
				<path style="fill-rule:evenodd;clip-rule:evenodd;fill:#724C26;" d="M116.25,89.3l-47,3.55c-0.233,0-0.35-0.116-0.35-0.35
					c0-0.267,0.117-0.4,0.35-0.4l46.95-3.55c0.267,0,0.399,0.117,0.399,0.351C116.6,89.167,116.483,89.3,116.25,89.3z"/>
			</g>
			<g>
				<path style="fill-rule:evenodd;clip-rule:evenodd;fill:#724C26;" d="M116.6,93.95l-47,3.5c-0.233,0-0.35-0.117-0.35-0.351
					c0-0.267,0.117-0.399,0.35-0.399l46.95-3.5c0.267-0.067,0.4,0.05,0.4,0.35C116.95,93.75,116.833,93.883,116.6,93.95z"/>
			</g>
			<g>
				<path style="fill-rule:evenodd;clip-rule:evenodd;fill:#724C26;" d="M116.95,98.55l-60.15,4.5c-0.2,0-0.333-0.116-0.4-0.35
					c0-0.2,0.117-0.334,0.35-0.4l60.15-4.5c0.267,0,0.399,0.117,0.399,0.351C117.3,98.417,117.184,98.55,116.95,98.55z"/>
			</g>
			<g>
				<path style="fill-rule:evenodd;clip-rule:evenodd;fill:#724C26;" d="M117.3,103.15l-60.15,4.55c-0.2,0-0.333-0.117-0.4-0.351
					c0-0.267,0.117-0.399,0.35-0.399l60.15-4.55c0.267,0,0.4,0.116,0.4,0.35C117.65,103.017,117.533,103.15,117.3,103.15z"/>
			</g>
			<g>
				<path style="fill-rule:evenodd;clip-rule:evenodd;fill:#724C26;" d="M117.65,107.8l-60.15,4.5c-0.2,0-0.333-0.116-0.4-0.35
					c0-0.267,0.117-0.4,0.35-0.4l60.149-4.5c0.101-0.033,0.2,0,0.301,0.101c0.066,0.066,0.1,0.149,0.1,0.25
					C118,107.6,117.883,107.733,117.65,107.8z"/>
			</g>
			<g>
				<path style="fill-rule:evenodd;clip-rule:evenodd;fill:#724C26;" d="M118,112.4l-60.15,4.5c-0.267,0-0.4-0.117-0.4-0.351
					c0-0.2,0.116-0.333,0.35-0.399l60.15-4.5c0.267,0,0.399,0.116,0.399,0.35C118.35,112.267,118.233,112.4,118,112.4z"/>
			</g>
		</g>
		<g>
			<path style="fill-rule:evenodd;clip-rule:evenodd;fill:#D1B25D;" d="M128.45,79.85c-0.467-0.667-1.384-0.4-2.75,0.8
				c-1.434,1.267-2.083,2.717-1.95,4.35c0.133,1.566-0.383,2.217-1.55,1.95c-1.267-0.3-1.783-0.767-1.55-1.4
				c0.366-1.3,0.767-2.483,1.199-3.55c0.834-2.033,1.7-3.283,2.601-3.75c0.933-0.467,1.883-0.35,2.85,0.35
				C127.767,78.967,128.15,79.383,128.45,79.85z"/>
			<path style="fill-rule:evenodd;clip-rule:evenodd;fill:#C6A954;" d="M130.55,77.95V77.9l0.2,0.15l0.15,0.15
				c0.699,0.667,1.1,1.566,1.199,2.7c0.134,1.1-0.05,2.1-0.55,3c-0.3,0.567-2.333,3.25-6.1,8.05
				c-5.033,6.366-8.884,11.233-11.55,14.6l-7.45,9.45c-1.467,2.033-2.2,3.816-2.2,5.35c0,2.301-0.15,4.167-0.45,5.601
				c-0.667,3.033-1.983,5.45-3.95,7.25c-1.633,1.467-3.583,2.033-5.85,1.7l-2.9-0.95c-0.866-0.467-1.649-1.134-2.35-2
				c-1.467-1.7-1.85-3.483-1.15-5.351c1.434-3.933,5.518-7.116,12.25-9.55c1.467-0.5,2.884-1.833,4.25-4v0.101l6.15-10.4
				c1.667-2.733,5.9-9.867,12.7-21.4c-0.267,1-0.117,1.716,0.45,2.15c0.433,0.267,0.967,0.25,1.6-0.05
				c0.633-0.333,1.184-0.867,1.65-1.6s0.732-1.45,0.8-2.15c0.033-0.733-0.167-1.25-0.601-1.55c-0.633-0.433-1.399-0.25-2.3,0.55
				l1.65-2.6c0.566-0.667,1.25-0.85,2.05-0.55C128.717,76.75,129.483,77.217,130.55,77.95z"/>
			<path style="fill-rule:evenodd;clip-rule:evenodd;fill:#FCE191;" d="M122.85,82.95c-0.033,0.733,0.15,1.25,0.551,1.55
				c0.433,0.267,0.967,0.25,1.6-0.05c0.633-0.333,1.184-0.867,1.65-1.6s0.732-1.45,0.8-2.15c0.033-0.733-0.167-1.25-0.601-1.55
				c-0.433-0.3-0.967-0.283-1.6,0.05c-0.633,0.3-1.184,0.816-1.65,1.55S122.883,82.217,122.85,82.95z M130.05,79.6
				c0.101,1.1-0.1,2.1-0.6,3c-0.3,0.566-2.333,3.25-6.101,8.05c-5.033,6.366-8.866,11.232-11.5,14.6l-7.449,9.45
				c-1.5,1.833-2.25,3.616-2.25,5.35c0,2.333-0.15,4.2-0.45,5.601c-0.634,3.033-1.95,5.449-3.95,7.25
				c-1.633,1.5-3.45,2.116-5.45,1.85c-1.133-0.133-2.1-0.483-2.899-1.05H89.35c-0.767-0.7-1.383-1.533-1.85-2.5
				c-0.867-1.9-0.883-3.9-0.05-6c1-2.533,2.783-4.601,5.35-6.2c1.134-0.733,2.783-1.483,4.95-2.25c1.467-0.5,2.883-1.833,4.25-4v0.1
				l6.2-10.399c9.533-15.934,14.5-24.15,14.899-24.65c0.667-0.8,1.518-1.316,2.551-1.55c1.066-0.233,2-0.1,2.8,0.4V76.6l0.399,0.3
				h-0.05C129.5,77.566,129.917,78.467,130.05,79.6z"/>
			<g>
				<path style="fill-rule:evenodd;clip-rule:evenodd;fill:#EACC76;" d="M123,83.95l0.4,0.55c0.267,0.133,0.5,0.2,0.699,0.2
					c-0.8,1.933-1.366,3.366-1.699,4.3l-1.75,5.1l-3.101,3.851C118.983,93.583,120.8,88.917,123,83.95z"/>
				<path style="fill-rule:evenodd;clip-rule:evenodd;fill:#EACC76;" d="M106.7,111.7l-2.3,3c-1.2,1.5-1.917,2.983-2.15,4.45
					l-0.4,0.399c-0.366,0.333-2.017,1.117-4.949,2.351c-2.5,1.066-4.15,2.283-4.95,3.649c-0.9,1.4-1.967,3.9-3.2,7.5
					c-0.333-0.333-0.633-0.75-0.9-1.25c0.867-2.167,1.967-4.25,3.301-6.25c1.8-2.667,3.649-4.517,5.55-5.55
					c2.5-1.367,4.933-3.767,7.3-7.2c2.467-3.667,3.883-7.149,4.25-10.45l3.85-6.399c-1.133,3.467-2.533,7.75-4.199,12.85
					C107.5,109.9,107.1,110.867,106.7,111.7z"/>
				<path style="fill-rule:evenodd;clip-rule:evenodd;fill:#EACC76;" d="M101.95,124.35c-0.233,1.601-0.634,3.051-1.2,4.351
					c-1.934,0.933-3.167,2.083-3.7,3.45c-0.2,0.5-0.35,1.033-0.45,1.6c-0.8,0.533-1.6,0.85-2.399,0.95c1.233-2.7,2.3-4.717,3.2-6.05
					C98.767,126.65,100.283,125.217,101.95,124.35z"/>
				<path style="fill-rule:evenodd;clip-rule:evenodd;fill:#EACC76;" d="M114.5,101.85l-3.45,4.4c2.367-8.3,4.233-14.3,5.601-18
					c3.767-6.333,5.916-9.817,6.449-10.45c0.268-0.367,0.717-0.733,1.351-1.1c-1.601,2.7-3.184,5.683-4.75,8.95
					c-1.533,3.167-2.617,5.683-3.25,7.55C115.75,95.3,115.1,98.184,114.5,101.85z"/>
				<path style="fill-rule:evenodd;clip-rule:evenodd;fill:#EACC76;" d="M129.1,77.25c0.301,0.367,0.518,0.75,0.65,1.15
					c-0.4,1.1-1,3.2-1.8,6.3L123.8,90l2.8-7.05l0.051-0.1c0.333-0.467,0.566-1.05,0.699-1.75C128.417,78.733,129,77.45,129.1,77.25z
					"/>
				<path style="fill-rule:evenodd;clip-rule:evenodd;fill:#EACC76;" d="M87.45,125.2c1.1-2.8,3.183-5.033,6.25-6.7
					C90.633,121.267,88.55,123.5,87.45,125.2z"/>
				<path style="fill-rule:evenodd;clip-rule:evenodd;fill:#EACC76;" d="M125.15,79.25l1.55-3.1c0.6,0.067,1.05,0.167,1.35,0.3
					l-1.399,2.6C126.25,78.85,125.75,78.917,125.15,79.25z"/>
			</g>
			<path style="fill-rule:evenodd;clip-rule:evenodd;fill:#FDF3D0;" d="M99.95,123.9c0.033,1.767-0.467,3.416-1.5,4.949
				c-1.467,2.233-2.983,3.65-4.55,4.25c-1.733,0.634-3.25,0.134-4.551-1.5c-1.333-1.732-0.75-4.199,1.75-7.399
				c2.5-3.167,4.75-4.45,6.75-3.851C99.25,120.783,99.95,121.967,99.95,123.9z"/>
			
				<linearGradient id="SVGID_13_" gradientUnits="userSpaceOnUse" x1="116.916" y1="-103.7793" x2="132.1633" y2="-103.7793" gradientTransform="matrix(-0.0787 0.9969 -1.0015 -0.0202 -4.188344e-004 -1.125708e-004)">
				<stop  offset="0" style="stop-color:#BFA04A"/>
				<stop  offset="1" style="stop-color:#FCE191"/>
			</linearGradient>
			<path style="fill-rule:evenodd;clip-rule:evenodd;fill:url(#SVGID_13_);" d="M99.8,123.15c0,1.767-0.517,3.433-1.55,5
				c-1.467,2.232-2.967,3.649-4.5,4.25c-1.733,0.633-3.25,0.133-4.55-1.5c-1.333-1.733-0.767-4.2,1.7-7.4c2.5-3.2,4.75-4.5,6.75-3.9
				C99.083,120.033,99.8,121.217,99.8,123.15z"/>
		</g>
		
			<use xlink:href="#FlashAICB_x2F_Layer_1_x2F__x3C_Group_x3E__x5F_1"  width="45.305" height="59.854" x="-0.013" y="-59.843" transform="matrix(1 0 0 -1 86.8496 76.1499)" style="overflow:visible;enable-background:new    ;"/>
		
			<use xlink:href="#FlashAICB_x2F_Layer_1_x2F__x3C_Group_x3E_"  width="45.305" height="59.854" x="-0.013" y="-59.843" transform="matrix(1 0 0 -1 86.8496 76.1499)" style="overflow:visible;enable-background:new    ;"/>
	</g>
	<g>
		<g>
			<g>
				<g>
					<g>
						<linearGradient id="SVGID_14_" gradientUnits="userSpaceOnUse" x1="47.1128" y1="49.6748" x2="47.1128" y2="66.4248">
							<stop  offset="0.2824" style="stop-color:#AB3A48"/>
							<stop  offset="0.2863" style="stop-color:#AB3B48"/>
							<stop  offset="0.702" style="stop-color:#D88F62"/>
							<stop  offset="0.8941" style="stop-color:#E9B06C"/>
						</linearGradient>
						<path style="fill-rule:evenodd;clip-rule:evenodd;fill:url(#SVGID_14_);" d="M55.8,56.95c1,1.5,1.15,3.183,0.45,5.05
							c-0.434,1.066-1.117,1.9-2.05,2.5c-0.967,0.6-2.067,0.9-3.3,0.9c-0.967,0-1.967-0.217-3-0.65c-1.033,1.1-2.35,1.65-3.95,1.65
							c-0.967,0-1.917-0.217-2.85-0.65c-0.934-0.467-1.7-1.083-2.3-1.85c-1.133-1.4-1.5-2.95-1.1-4.65
							c0.2-0.934,0.65-1.75,1.35-2.45l-0.1-0.3c-0.5-1.233-0.384-2.517,0.35-3.85c0.8-1.367,2.05-2.083,3.75-2.15
							c0.6-0.033,1.133,0.15,1.6,0.55c0.233,0.3,0.367,0.5,0.4,0.6l0.75-0.5c1.2-1,2.617-1.5,4.25-1.5c0.6,0,1.15,0.067,1.65,0.2
							l0.2,0.05c1.667,0.633,2.717,1.434,3.15,2.4c0.333,0.8,0.317,1.617-0.05,2.45c-0.133,0.367-0.317,0.667-0.55,0.9
							C55.05,56.017,55.5,56.45,55.8,56.95z"/>
						<path style="fill-rule:evenodd;clip-rule:evenodd;fill:none;stroke:#F7E0E7;stroke-width:0.25;" d="M55.8,56.95
							c1,1.5,1.15,3.183,0.45,5.05c-0.434,1.066-1.117,1.9-2.05,2.5c-0.967,0.6-2.067,0.9-3.3,0.9c-0.967,0-1.967-0.217-3-0.65
							c-1.033,1.1-2.35,1.65-3.95,1.65c-0.967,0-1.917-0.217-2.85-0.65c-0.934-0.467-1.7-1.083-2.3-1.85
							c-1.133-1.4-1.5-2.95-1.1-4.65c0.2-0.934,0.65-1.75,1.35-2.45l-0.1-0.3c-0.5-1.233-0.384-2.517,0.35-3.85
							c0.8-1.367,2.05-2.083,3.75-2.15c0.6-0.033,1.133,0.15,1.6,0.55c0.233,0.3,0.367,0.5,0.4,0.6l0.75-0.5
							c1.2-1,2.617-1.5,4.25-1.5c0.6,0,1.15,0.067,1.65,0.2l0.2,0.05c1.667,0.633,2.717,1.434,3.15,2.4
							c0.333,0.8,0.317,1.617-0.05,2.45c-0.133,0.367-0.317,0.667-0.55,0.9C55.05,56.017,55.5,56.45,55.8,56.95z"/>
					</g>
					<g>
						<path style="fill-rule:evenodd;clip-rule:evenodd;fill:#470B17;" d="M44.35,57.75L43.3,57.8l-0.05,0.1
							c-0.434,0.6-0.55,1.2-0.35,1.8c0.1,0.2,0.233,0.316,0.4,0.35c0.267,0,0.45-0.05,0.55-0.15
							C44.183,59.533,44.35,58.816,44.35,57.75z M50.05,51.3c0.434,0,0.85,0.05,1.25,0.15h0.05c1.2,0.433,1.917,0.933,2.15,1.5
							c0.167,0.366,0.167,0.75,0,1.15c-0.267,0.6-0.833,0.933-1.7,1l-0.65,0.15c-0.433,0.233-0.833,0.733-1.2,1.5
							c-0.367,0.867-0.4,1.583-0.1,2.15c0.167,0.267,0.433,0.45,0.8,0.55h0.1c0.333,0,0.566-0.1,0.7-0.3
							c0.133-0.3,0.116-0.617-0.05-0.95c-0.233-0.467-0.333-0.85-0.3-1.15c0-0.233,0.133-0.383,0.4-0.45h0.35
							c1.133,0,1.983,0.433,2.55,1.3c0.7,1,0.8,2.15,0.3,3.45c-0.634,1.566-1.9,2.35-3.8,2.35c-1.433,0-2.617-0.434-3.55-1.3v0.1
							c-0.1,0.333-0.267,0.633-0.5,0.9c-0.733,0.9-1.7,1.35-2.9,1.35c-1.567,0-2.85-0.633-3.85-1.9c-0.8-0.934-1.067-2.017-0.8-3.25
							c0.267-1.267,1.017-2.067,2.25-2.4c-0.433-0.267-0.8-0.7-1.1-1.3c-0.3-0.8-0.2-1.6,0.3-2.4c0.433-0.833,1.217-1.283,2.35-1.35
							c0.2,0,0.316,0.033,0.35,0.1c0.1,0.1,0.15,0.217,0.15,0.35V53c-0.034,0.233-0.034,0.4,0,0.5l0.5,0.1
							c0.466,0,1.033-0.167,1.7-0.5c0.5-0.267,0.85-0.5,1.05-0.7C47.75,51.667,48.816,51.3,50.05,51.3z"/>
					</g>
					<g>
						<g>
							
								<linearGradient id="SVGID_15_" gradientUnits="userSpaceOnUse" x1="-64.3472" y1="47.1035" x2="-51.8472" y2="47.1035" gradientTransform="matrix(8.000001e-005 -1 1 -0.001 1.122906e-004 4.439838e-004)">
								<stop  offset="0.2824" style="stop-color:#E94B46"/>
								<stop  offset="0.6784" style="stop-color:#E99459"/>
								<stop  offset="0.8941" style="stop-color:#EAB562"/>
							</linearGradient>
							<path style="fill-rule:evenodd;clip-rule:evenodd;fill:url(#SVGID_15_);" d="M46,56.85l-0.6,0.3
								c0.133,0.867,0.067,1.833-0.2,2.9c-0.233,0.733-0.667,1.15-1.3,1.25c-0.6,0.1-0.9,0.167-0.9,0.2
								c1.533,0.433,2.483-0.184,2.85-1.85C45.95,57.85,46,56.917,46,56.85z M41.95,58.25c-0.6-0.2-1.117,0.25-1.55,1.35
								c-0.467,1.167-0.183,2.183,0.85,3.05c-0.333-0.467-0.5-1.05-0.5-1.75C40.717,59.9,41.117,59.017,41.95,58.25z M41.7,54.25
								c-0.3,0.767-0.2,1.417,0.3,1.95c0.467,0.5,0.95,0.7,1.45,0.6c-0.667-0.566-1.05-0.933-1.15-1.1
								c-0.367-0.634-0.316-1.367,0.15-2.2C42.15,53.566,41.9,53.816,41.7,54.25z M53.2,59.35c0.2-0.8,0.033-1.3-0.5-1.5
								c0,0.066,0.033,0.3,0.1,0.7c-0.033,0.5-0.25,0.983-0.65,1.45c-0.533,0.667-1.017,0.983-1.45,0.95
								c-0.4-0.167-0.667-0.284-0.8-0.35c0.233,0.3,0.583,0.483,1.05,0.55c0.466,0.033,0.9-0.05,1.3-0.25
								C52.717,60.667,53.033,60.15,53.2,59.35z M52.1,54.6c-0.733,0.167-1.117,0.25-1.15,0.25c-0.567,0.267-1.034,0.833-1.4,1.7
								c-0.3,0.733-0.4,1.4-0.3,2c0.133,0.767,0.566,1.217,1.3,1.35c0.6,0.133,1.034-0.05,1.3-0.55c0.233-0.4,0.25-0.8,0.05-1.2
								c-0.233-0.5-0.35-0.867-0.35-1.1c1.2-0.1,2.067,0.317,2.6,1.25c0.5,0.9,0.533,1.867,0.1,2.9
								c-0.533,1.366-1.633,2.066-3.3,2.1c-1.634,0-2.867-0.566-3.7-1.7c-0.133,0.167-0.25,0.417-0.35,0.75
								c-0.133,0.333-0.267,0.583-0.4,0.75c-1.1,1.4-2.6,1.633-4.5,0.7c-1.9-0.933-2.65-2.3-2.25-4.1c0.167-0.667,0.533-1.2,1.1-1.6
								c0.533-0.4,1.133-0.583,1.8-0.55l0.2,0.05c-0.333,0.533-0.483,1.1-0.45,1.7c0.033,0.7,0.3,1.1,0.8,1.2
								c0.633,0.133,1.1-0.217,1.4-1.05c0.2-0.634,0.267-1.4,0.2-2.3c-0.7,0.233-1.417,0.25-2.15,0.05
								c-0.767-0.2-1.316-0.617-1.65-1.25c-0.367-0.7-0.317-1.434,0.15-2.2c0.4-0.733,1.067-1.117,2-1.15
								c0,0.133-0.017,0.35-0.05,0.65c0,0.267,0.066,0.483,0.2,0.65c0.967,0.467,2.267,0.083,3.9-1.15c1.1-0.9,2.433-1.184,4-0.85
								c1.566,0.567,2.183,1.25,1.85,2.05C52.917,54.283,52.6,54.5,52.1,54.6z M47.65,56.5c0.133-0.467,0.6-1.067,1.4-1.8
								c0.7-0.667,1.1-1,1.2-1c-0.2-0.134-0.633,0.017-1.3,0.45c-0.8,0.567-1.35,1.317-1.65,2.25c-0.267,0.767-0.367,1.533-0.3,2.3
								c0.1,1.133,0.566,2.1,1.4,2.9c-0.267-0.367-0.483-0.867-0.65-1.5C47.35,58.867,47.316,57.667,47.65,56.5z M50.2,53.3
								c-0.5-0.5-1.317-0.417-2.45,0.25c-1.133,0.8-1.817,1.25-2.05,1.35c-0.267,0.133-0.583,0.217-0.95,0.25
								c-0.733,0.1-1.333-0.117-1.8-0.65c0.333,0.867,0.983,1.267,1.95,1.2c0.8-0.034,1.333-0.184,1.6-0.45
								c0.167-0.067,0.683-0.4,1.55-1C48.95,53.683,49.667,53.367,50.2,53.3z"/>
							<path style="fill-rule:evenodd;clip-rule:evenodd;fill:#F7DED7;" d="M52.25,60.9c-0.4,0.2-0.833,0.283-1.3,0.25
								c-0.467-0.066-0.817-0.25-1.05-0.55c0.133,0.066,0.4,0.183,0.8,0.35c0.433,0.033,0.917-0.284,1.45-0.95
								c0.4-0.467,0.617-0.95,0.65-1.45c-0.066-0.4-0.1-0.633-0.1-0.7c0.533,0.2,0.7,0.7,0.5,1.5
								C53.033,60.15,52.717,60.667,52.25,60.9z"/>
							<path style="fill-rule:evenodd;clip-rule:evenodd;fill:#F7DED7;" d="M50.25,53.7c-0.1,0-0.5,0.333-1.2,1
								c-0.8,0.733-1.267,1.333-1.4,1.8c-0.333,1.167-0.3,2.367,0.1,3.6c0.167,0.633,0.383,1.133,0.65,1.5
								c-0.833-0.8-1.3-1.767-1.4-2.9c-0.067-0.767,0.033-1.534,0.3-2.3c0.3-0.933,0.85-1.683,1.65-2.25
								C49.617,53.717,50.05,53.566,50.25,53.7z"/>
							<path style="fill-rule:evenodd;clip-rule:evenodd;fill:#F7DED7;" d="M50.2,53.3c-0.534,0.067-1.25,0.383-2.15,0.95
								c-0.867,0.6-1.383,0.933-1.55,1c-0.267,0.267-0.8,0.417-1.6,0.45c-0.967,0.066-1.617-0.333-1.95-1.2
								c0.466,0.533,1.066,0.75,1.8,0.65c0.367-0.033,0.683-0.117,0.95-0.25c0.233-0.1,0.917-0.55,2.05-1.35
								C48.883,52.883,49.7,52.8,50.2,53.3z"/>
							<path style="fill-rule:evenodd;clip-rule:evenodd;fill:#F7DED7;" d="M43,61.5c0-0.033,0.3-0.1,0.9-0.2
								c0.633-0.1,1.067-0.517,1.3-1.25c0.267-1.066,0.333-2.033,0.2-2.9l0.6-0.3c0,0.066-0.05,1-0.15,2.8
								C45.483,61.316,44.533,61.933,43,61.5z"/>
							<path style="fill-rule:evenodd;clip-rule:evenodd;fill:#F7DED7;" d="M41.7,54.25c0.2-0.434,0.45-0.684,0.75-0.75
								c-0.467,0.833-0.517,1.566-0.15,2.2c0.1,0.167,0.483,0.533,1.15,1.1c-0.5,0.1-0.983-0.1-1.45-0.6
								C41.5,55.667,41.4,55.017,41.7,54.25z"/>
							<path style="fill-rule:evenodd;clip-rule:evenodd;fill:#F7DED7;" d="M41.95,58.25c-0.833,0.767-1.233,1.65-1.2,2.65
								c0,0.7,0.167,1.283,0.5,1.75c-1.033-0.867-1.317-1.883-0.85-3.05C40.833,58.5,41.35,58.05,41.95,58.25z"/>
						</g>
					</g>
				</g>
			</g>
		</g>
		<g>
			<g>
				<g>
					<g>
						
							<linearGradient id="SVGID_16_" gradientUnits="userSpaceOnUse" x1="-66.5493" y1="124.4902" x2="-49.7935" y2="124.4902" gradientTransform="matrix(5.970150e-005 -1 1 -0.001 1.030496e-004 4.439838e-004)">
							<stop  offset="0.2824" style="stop-color:#AB3A48"/>
							<stop  offset="0.2863" style="stop-color:#AB3B48"/>
							<stop  offset="0.702" style="stop-color:#D88F62"/>
							<stop  offset="0.8941" style="stop-color:#E9B06C"/>
						</linearGradient>
						<path style="fill-rule:evenodd;clip-rule:evenodd;fill:url(#SVGID_16_);" d="M115.75,56.95c0.367-0.467,0.816-0.9,1.35-1.3
							c-0.267-0.333-0.449-0.633-0.55-0.9c-0.366-0.833-0.366-1.65,0-2.45c0.434-1,1.467-1.8,3.101-2.4l0.199-0.05
							c0.533-0.133,1.084-0.2,1.65-0.2c1.633,0,3.05,0.5,4.25,1.5l0.8,0.5c0.101-0.233,0.233-0.433,0.4-0.6
							c0.433-0.433,0.95-0.617,1.55-0.55c1.7,0.066,2.95,0.783,3.75,2.15c0.767,1.267,0.9,2.55,0.4,3.85l-0.15,0.3
							c0.7,0.7,1.167,1.517,1.4,2.45c0.366,1.7,0,3.25-1.101,4.65c-1.333,1.667-3.066,2.5-5.2,2.5c-1.6,0-2.916-0.55-3.949-1.65
							c-0.967,0.433-1.967,0.65-3,0.65c-1.233,0-2.317-0.3-3.25-0.9c-0.967-0.633-1.65-1.467-2.051-2.5
							c-0.333-0.867-0.467-1.75-0.399-2.65C115.017,58.45,115.283,57.65,115.75,56.95z"/>
						<path style="fill-rule:evenodd;clip-rule:evenodd;fill:none;stroke:#F7E0E7;stroke-width:0.25;" d="M115.75,56.95
							c-0.467,0.7-0.733,1.5-0.8,2.4c-0.067,0.9,0.066,1.783,0.399,2.65c0.4,1.033,1.084,1.867,2.051,2.5
							c0.933,0.6,2.017,0.9,3.25,0.9c1.033,0,2.033-0.217,3-0.65c1.033,1.1,2.35,1.65,3.949,1.65c2.134,0,3.867-0.833,5.2-2.5
							c1.101-1.4,1.467-2.95,1.101-4.65c-0.233-0.934-0.7-1.75-1.4-2.45l0.15-0.3c0.5-1.3,0.366-2.583-0.4-3.85
							c-0.8-1.367-2.05-2.083-3.75-2.15c-0.6-0.067-1.117,0.117-1.55,0.55c-0.167,0.167-0.3,0.367-0.4,0.6l-0.8-0.5
							c-1.2-1-2.617-1.5-4.25-1.5c-0.566,0-1.117,0.067-1.65,0.2l-0.199,0.05c-1.634,0.6-2.667,1.4-3.101,2.4
							c-0.366,0.8-0.366,1.617,0,2.45c0.101,0.267,0.283,0.566,0.55,0.9C116.566,56.05,116.117,56.483,115.75,56.95z"/>
					</g>
					<g>
						<path style="fill-rule:evenodd;clip-rule:evenodd;fill:#470B17;" d="M128.65,59.7c0.1-0.233,0.116-0.534,0.05-0.9
							c-0.067-0.367-0.2-0.667-0.4-0.9l-0.05-0.1l-1.05-0.05c0,1,0.183,1.717,0.55,2.15c0.1,0.1,0.267,0.15,0.5,0.15
							C128.417,60.017,128.55,59.9,128.65,59.7z M116.85,61.35c-0.5-1.3-0.399-2.45,0.301-3.45c0.566-0.867,1.416-1.3,2.55-1.3h0.35
							c0.3,0.066,0.45,0.216,0.45,0.45c0,0.3-0.117,0.684-0.35,1.15c-0.167,0.333-0.167,0.65,0,0.95c0.133,0.2,0.35,0.3,0.649,0.3
							h0.101c0.399-0.1,0.666-0.284,0.8-0.55c0.3-0.566,0.267-1.283-0.101-2.15c-0.333-0.767-0.717-1.267-1.149-1.5l-0.65-0.15
							c-0.899-0.067-1.483-0.4-1.75-1c-0.167-0.4-0.167-0.784,0-1.15c0.267-0.534,0.983-1.034,2.15-1.5h0.05
							c0.467-0.1,0.883-0.15,1.25-0.15c1.233,0,2.3,0.367,3.2,1.1c0.2,0.2,0.55,0.434,1.05,0.7c0.667,0.333,1.233,0.5,1.7,0.5
							l0.5-0.1L128,53l-0.05-0.4c0-0.133,0.05-0.25,0.149-0.35c0.067-0.067,0.184-0.1,0.351-0.1c1.133,0.067,1.917,0.517,2.35,1.35
							c0.5,0.8,0.601,1.6,0.3,2.4c-0.232,0.567-0.6,1-1.1,1.3c0.566,0.167,1.05,0.466,1.45,0.9c0.399,0.433,0.667,0.933,0.8,1.5
							c0.267,1.2,0.017,2.283-0.75,3.25c-1.033,1.267-2.333,1.9-3.9,1.9c-1.199,0-2.166-0.45-2.899-1.35
							c-0.167-0.2-0.317-0.5-0.45-0.9l-0.05-0.1c-0.9,0.867-2.083,1.3-3.55,1.3C118.75,63.7,117.483,62.917,116.85,61.35z"/>
					</g>
					<g>
						<g>
							<linearGradient id="SVGID_17_" gradientUnits="userSpaceOnUse" x1="124.46" y1="51.7998" x2="124.46" y2="64.2998">
								<stop  offset="0.2824" style="stop-color:#E94B46"/>
								<stop  offset="0.6784" style="stop-color:#E99459"/>
								<stop  offset="0.8941" style="stop-color:#EAB562"/>
							</linearGradient>
							<path style="fill-rule:evenodd;clip-rule:evenodd;fill:url(#SVGID_17_);" d="M124.25,56.4c-0.3-0.933-0.85-1.683-1.65-2.25
								c-0.666-0.433-1.1-0.583-1.3-0.45c0.101,0,0.5,0.333,1.2,1c0.8,0.733,1.267,1.333,1.4,1.8c0.333,1.167,0.316,2.367-0.051,3.6
								c-0.199,0.633-0.433,1.133-0.699,1.5C124.617,60.233,124.983,58.5,124.25,56.4z M125.6,56.85c0,0.066,0.033,1,0.101,2.8
								c0.366,1.667,1.316,2.283,2.85,1.85c0-0.033-0.3-0.1-0.899-0.2c-0.634-0.1-1.067-0.517-1.301-1.25
								c-0.267-1.066-0.316-2.033-0.149-2.9L125.6,56.85z M125.1,55.25c0.268,0.267,0.783,0.417,1.551,0.45
								c1,0.066,1.666-0.333,2-1.2c-0.467,0.533-1.084,0.75-1.851,0.65l-0.95-0.25c-0.767-0.566-1.449-1.017-2.05-1.35
								c-1.133-0.667-1.95-0.75-2.45-0.25c0.567,0.067,1.301,0.383,2.2,0.95L125.1,55.25z M118.8,58.55
								c0.033-0.4,0.05-0.633,0.05-0.7c-0.5,0.2-0.666,0.7-0.5,1.5c0.2,0.8,0.533,1.316,1,1.55c0.4,0.2,0.817,0.283,1.25,0.25
								c0.467-0.066,0.817-0.25,1.051-0.55c-0.268,0.233-0.533,0.35-0.801,0.35c-0.433,0.033-0.916-0.284-1.449-0.95
								C119.033,59.533,118.833,59.05,118.8,58.55z M131.15,59.6c-0.4-1.1-0.917-1.55-1.551-1.35c0.834,0.767,1.233,1.65,1.2,2.65
								c0,0.7-0.167,1.283-0.5,1.75C131.333,61.783,131.617,60.767,131.15,59.6z M129.55,56.2c0.533-0.534,0.65-1.184,0.351-1.95
								c-0.233-0.467-0.5-0.717-0.801-0.75c0.467,0.833,0.518,1.566,0.15,2.2c-0.1,0.167-0.483,0.533-1.15,1.1
								C128.6,56.9,129.083,56.7,129.55,56.2z M117.3,61.2c-0.433-1.034-0.399-2,0.101-2.9c0.533-0.933,1.399-1.35,2.6-1.25
								c0,0.233-0.117,0.6-0.35,1.1c-0.167,0.4-0.15,0.8,0.05,1.2c0.267,0.5,0.7,0.683,1.3,0.55c0.733-0.133,1.167-0.583,1.3-1.35
								c0.101-0.6,0-1.267-0.3-2c-0.367-0.867-0.833-1.433-1.4-1.7c-0.033,0-0.416-0.083-1.149-0.25c-0.5-0.1-0.817-0.317-0.95-0.65
								c-0.333-0.8,0.283-1.483,1.85-2.05c1.567-0.333,2.917-0.05,4.051,0.85c0.166,0.233,0.633,0.533,1.399,0.9
								c1.033,0.467,1.851,0.55,2.45,0.25c0.133-0.167,0.2-0.383,0.2-0.65c-0.033-0.3-0.05-0.517-0.05-0.65
								c0.967,0.066,1.633,0.45,2,1.15c0.467,0.767,0.517,1.5,0.149,2.2c-0.333,0.633-0.883,1.05-1.649,1.25
								c-0.733,0.2-1.45,0.183-2.15-0.05c-0.033,0.934,0.05,1.7,0.25,2.3c0.267,0.833,0.717,1.183,1.35,1.05
								c0.533-0.1,0.817-0.5,0.851-1.2c0-0.6-0.167-1.167-0.5-1.7l0.25-0.05c0.633-0.033,1.233,0.15,1.8,0.55s0.917,0.933,1.05,1.6
								c0.434,1.8-0.3,3.167-2.2,4.1c-1.899,0.934-3.416,0.7-4.55-0.7c-0.133-0.167-0.25-0.417-0.35-0.75
								c-0.134-0.333-0.267-0.583-0.4-0.75c-0.833,1.133-2.066,1.7-3.7,1.7C118.934,63.267,117.833,62.566,117.3,61.2z"/>
							<path style="fill-rule:evenodd;clip-rule:evenodd;fill:#F7DED7;" d="M119.35,60.9c-0.467-0.233-0.8-0.75-1-1.55
								c-0.166-0.8,0-1.3,0.5-1.5c0,0.066-0.017,0.3-0.05,0.7c0.033,0.5,0.233,0.983,0.601,1.45c0.533,0.667,1.017,0.983,1.449,0.95
								c0.268,0,0.533-0.117,0.801-0.35c-0.233,0.3-0.584,0.483-1.051,0.55C120.167,61.183,119.75,61.1,119.35,60.9z"/>
							<path style="fill-rule:evenodd;clip-rule:evenodd;fill:#F7DED7;" d="M121.3,53.7c0.2-0.134,0.634,0.017,1.3,0.45
								c0.801,0.567,1.351,1.317,1.65,2.25c0.733,2.1,0.367,3.833-1.1,5.2c0.267-0.367,0.5-0.867,0.699-1.5
								c0.367-1.233,0.384-2.434,0.051-3.6c-0.134-0.467-0.601-1.067-1.4-1.8C121.8,54.033,121.4,53.7,121.3,53.7z"/>
							<path style="fill-rule:evenodd;clip-rule:evenodd;fill:#F7DED7;" d="M121.35,53.3c0.5-0.5,1.317-0.417,2.45,0.25
								c0.601,0.333,1.283,0.784,2.05,1.35l0.95,0.25c0.767,0.1,1.384-0.117,1.851-0.65c-0.334,0.867-1,1.267-2,1.2
								c-0.768-0.034-1.283-0.184-1.551-0.45l-1.55-1C122.65,53.683,121.917,53.367,121.35,53.3z"/>
							<path style="fill-rule:evenodd;clip-rule:evenodd;fill:#F7DED7;" d="M128.55,61.5c-1.533,0.433-2.483-0.184-2.85-1.85
								c-0.067-1.8-0.101-2.733-0.101-2.8l0.601,0.3c-0.167,0.867-0.117,1.833,0.149,2.9c0.233,0.733,0.667,1.15,1.301,1.25
								C128.25,61.4,128.55,61.467,128.55,61.5z"/>
							<path style="fill-rule:evenodd;clip-rule:evenodd;fill:#F7DED7;" d="M129.9,54.25c0.3,0.767,0.183,1.417-0.351,1.95
								c-0.467,0.5-0.95,0.7-1.45,0.6c0.667-0.566,1.051-0.933,1.15-1.1c0.367-0.634,0.316-1.367-0.15-2.2
								C129.4,53.533,129.667,53.783,129.9,54.25z"/>
							<path style="fill-rule:evenodd;clip-rule:evenodd;fill:#F7DED7;" d="M129.6,58.25c0.634-0.2,1.15,0.25,1.551,1.35
								c0.467,1.167,0.183,2.183-0.851,3.05c0.333-0.467,0.5-1.05,0.5-1.75C130.833,59.9,130.434,59.017,129.6,58.25z"/>
						</g>
					</g>
				</g>
			</g>
		</g>
	</g>
	
		<use xlink:href="#FlashAICB_x2F_Layer_1_x2F__x3C_Group_x3E__x5F_0"  width="109.85" height="61.228" y="-61.228" transform="matrix(1 0 0 -1 30.8501 27.1001)" style="overflow:visible;opacity:0.75;enable-background:new    ;"/>
	
		<use xlink:href="#FlashAICB_x2F_Layer_1_x2F__x3C_Path_x3E__x5F_0"  width="118.55" height="57.05" y="-57.05" transform="matrix(1 0 0 -1 26.5 85.7998)" style="overflow:visible;opacity:0.4492;enable-background:new    ;"/>
	
		<use xlink:href="#Digits_x2F_digit_1_red"  width="9.45" height="25.55" x="0" y="-25.55" transform="matrix(1 0 0 -1 60.6001 34.6001)" style="overflow:visible;"/>
	
		<use xlink:href="#Digits_x2F_digit_3_red"  width="16.7" height="26.2" y="-26.2" transform="matrix(1 0 0 -1 74.8501 34.3501)" style="overflow:visible;"/>
	
		<use xlink:href="#Digits_x2F_digit_7_red"  width="17.3" height="25.55" y="-25.55" transform="matrix(1 0 0 -1 93.6504 34.6001)" style="overflow:visible;"/>
</g>
</svg>
