<?xml version="1.0" encoding="iso-8859-1"?>
<!-- Generator: Adobe Illustrator 15.1.0, SVG Export Plug-In . SVG Version: 6.00 Build 0)  -->
<!DOCTYPE svg PUBLIC "-//W3C//DTD SVG 1.1//EN" "http://www.w3.org/Graphics/SVG/1.1/DTD/svg11.dtd">
<svg version="1.1" id="Layer_17" xmlns="http://www.w3.org/2000/svg" xmlns:xlink="http://www.w3.org/1999/xlink" x="0px" y="0px"
	 width="171.45px" height="171.5px" viewBox="0 0 171.45 171.5" style="enable-background:new 0 0 171.45 171.5;"
	 xml:space="preserve">
<symbol  id="FlashAICB_x2F_Layer_17_x2F__x3C_Path_x3E_" viewBox="0 -118.65 118.9 118.65">
	<g id="Layer_1_2_">
		
			<radialGradient id="SVGID_1_" cx="59.4502" cy="-59.3252" r="59.3875" gradientTransform="matrix(1 0 0 -1 0 -118.6504)" gradientUnits="userSpaceOnUse">
			<stop  offset="0" style="stop-color:#F6BD8E"/>
			<stop  offset="0.0196" style="stop-color:#F5BA8C"/>
			<stop  offset="0.2471" style="stop-color:#ED9B78"/>
			<stop  offset="0.4431" style="stop-color:#E9886B"/>
			<stop  offset="0.5843" style="stop-color:#E78267"/>
			<stop  offset="0.5882" style="stop-color:#E68066;stop-opacity:0.9922"/>
			<stop  offset="0.6745" style="stop-color:#DA6858;stop-opacity:0.902"/>
			<stop  offset="0.7686" style="stop-color:#D1564E;stop-opacity:0.8392"/>
			<stop  offset="0.8706" style="stop-color:#CC4B48;stop-opacity:0.8"/>
			<stop  offset="1" style="stop-color:#CA4846;stop-opacity:0.7882"/>
		</radialGradient>
		<path style="fill-rule:evenodd;clip-rule:evenodd;fill:url(#SVGID_1_);" d="M118.9-59.3c0-16.4-5.8-30.4-17.4-42
			c-11.633-11.567-25.65-17.35-42.05-17.35c-16.434,0-30.45,5.783-42.05,17.35C5.8-89.7,0-75.7,0-59.3
			c0,16.367,5.8,30.35,17.4,41.95C29-5.783,43.017,0,59.45,0c16.4,0,30.417-5.783,42.05-17.35C113.1-28.95,118.9-42.933,118.9-59.3z
			"/>
	</g>
</symbol>
<symbol  id="FlashAICB_x2F_Layer_17_x2F__x3C_Path_x3E__x5F_0" viewBox="0 -48 41.75 48">
	<g id="Layer_1_3_">
		<path style="fill-rule:evenodd;clip-rule:evenodd;fill:#404041;" d="M34.4-9.25L34.3-9.3c-5.033-5.067-8.383-8.367-10.05-9.9
			l-0.3-0.25L23.3-20.1c-2.367-2.133-4.917-4.316-7.65-6.55c-0.267-0.267-0.667-0.6-1.2-1c1.6-1,2.75-1.817,3.45-2.45
			c1.467-1.233,2.4-2.45,2.8-3.65c0.433-1.467,0.667-2.75,0.7-3.85c0.033-1.133-0.15-2.316-0.55-3.55
			c-0.467-1.467-0.733-2.95-0.8-4.45c-0.033-0.566-0.133-0.983-0.3-1.25c-0.033-0.066-0.283-0.35-0.75-0.85l-0.25-0.2l-0.15-0.05
			L18.55-48h-0.2l-0.2,0.05l-0.25,0.2c-0.133,0.133-0.217,0.233-0.25,0.3H17.6l-0.5,0.8c-0.333,0.566-0.533,1.25-0.6,2.05
			c-0.067,0.9,0.067,1.567,0.4,2c0.1,0.133,0.3,0.283,0.6,0.45c0.3,0.167,0.5,0.3,0.6,0.4v0.05l0.15,0.2l0.05,0.15l0.1,0.2l0.1,0.4
			l0.05,1.15l-0.1,0.7v0.3l-0.25,1.05l-0.4,1.25l-0.6,1.15l-0.35,0.5L15.7-33.6l-1.15,0.7l-0.4,0.15L13.9-32.6l-1.3,0.5L12-31.7
			h-0.05l-0.8,0.6l-0.75,0.7l-2-0.55c-1.433-0.133-2.433-0.267-3-0.4c-1.6-0.367-2.833-1.033-3.7-2c-0.733-0.767-1.2-1.417-1.4-1.95
			L0-33.6l0.3,1.35L1-30.5c1.3,1.3,3.533,2.35,6.7,3.15l0.85,0.15v0.05l-1.65,3.3l1.3,2.15c1.033-2.233,1.833-3.667,2.4-4.3
			l0.35-0.35l0.2-0.15h0.05l0.25-0.15c0.4,0.1,0.733,0.233,1,0.4l1.15,0.8l0.1,0.05l3.65,3.25l0.15,0.2L39.8,0L40-0.35
			c0.4-0.566,0.983-1.1,1.75-1.6L34.4-9.25z"/>
	</g>
</symbol>
<symbol  id="FlashAICB_x2F_Layer_17_x2F__x3C_Path_x3E__x5F_1" viewBox="0 -55.75 110 55.75">
	<g id="Layer_1_4_">
		
			<linearGradient id="SVGID_2_" gradientUnits="userSpaceOnUse" x1="16165.2637" y1="-53.8555" x2="16221.0391" y2="-53.8555" gradientTransform="matrix(1.792918e-005 1 -1 -0.001 0.8545 -16221.1064)">
			<stop  offset="0.1294" style="stop-color:#E1B7B1"/>
			<stop  offset="0.9255" style="stop-color:#FFFFFF"/>
		</linearGradient>
		<path style="fill-rule:evenodd;clip-rule:evenodd;fill:url(#SVGID_2_);" d="M96-17.95c4.467-4.933,7.967-10.4,10.5-16.4
			c2.333-5.633,3.5-10.95,3.5-15.95c0-1.767-0.167-3.25-0.5-4.45c-1.833,11.067-7.217,20.9-16.15,29.5
			C82.783-15.117,70-10.05,55-10.05c-15.267,0-28.1-5.05-38.5-15.15c-9-8.733-14.35-18.917-16.05-30.55C0.15-54.617,0-53.2,0-51.5
			c0,5.5,1.167,11.167,3.5,17c2.467,6.167,5.95,11.733,10.45,16.7C24.65-5.933,38.333,0,55,0C71.467,0,85.133-5.983,96-17.95z"/>
	</g>
</symbol>
<symbol  id="FlashAICB_x2F_Layer_17_x2F__x3C_Path_x3E__x5F_2" viewBox="0 -61.294 110 61.294">
	<g id="Layer_1_5_">
		<path style="fill-rule:evenodd;clip-rule:evenodd;fill:#FFFFFF;" d="M106.5-34.35c2.333-5.633,3.5-10.95,3.5-15.95
			c0-4.934-1.45-8.05-4.35-9.35c-2.333-1.033-6.25-1.017-11.75,0.05c-7.267,1.767-13.1,3.117-17.5,4.05C68.4-53.85,61.267-53,55-53
			c-6.333,0-13.467-0.917-21.4-2.75c-8.333-2.2-14.167-3.683-17.5-4.45c-5.533-1.267-9.467-1.433-11.8-0.5
			C1.433-59.5,0-56.433,0-51.5c0,5.5,1.167,11.167,3.5,17c2.467,6.167,5.95,11.733,10.45,16.7C24.65-5.933,38.333,0,55,0
			c16.467,0,30.133-5.983,41-17.95C100.467-22.883,103.967-28.35,106.5-34.35z"/>
	</g>
</symbol>
<symbol  id="FlashAICB_x2F_Layer_17_x2F__x3C_Path_x3E__x5F_3" viewBox="0 -57.1 118.7 57.1">
	<g id="Layer_1_6_">
		
			<radialGradient id="SVGID_3_" cx="59.3501" cy="-28.5498" r="46.5701" gradientTransform="matrix(1 0 0 -1 0 -57.0996)" gradientUnits="userSpaceOnUse">
			<stop  offset="0" style="stop-color:#CCE9E3;stop-opacity:0"/>
			<stop  offset="0.0824" style="stop-color:#C6E6D8;stop-opacity:0.0667"/>
			<stop  offset="0.2196" style="stop-color:#B4DEBD;stop-opacity:0.2431"/>
			<stop  offset="0.4039" style="stop-color:#98D28F;stop-opacity:0.5373"/>
			<stop  offset="0.6196" style="stop-color:#72C152;stop-opacity:0.9333"/>
			<stop  offset="0.651" style="stop-color:#6CBE48"/>
		</radialGradient>
		<path style="fill-rule:evenodd;clip-rule:evenodd;fill:url(#SVGID_3_);" d="M95.5-30.35c10.733,7.7,18.283,17.733,22.65,30.1
			L118.7,0c-0.6-15.9-6.633-29.383-18.1-40.45C89.1-51.55,75.333-57.1,59.3-57.1c-15.7,0-29.267,5.367-40.7,16.1
			C7.2-30.333,1-17.233,0-1.7c4.6-12,12.183-21.683,22.75-29.05C33.55-38.317,45.567-42.1,58.8-42.1
			C72.333-42.1,84.567-38.183,95.5-30.35z"/>
	</g>
</symbol>
<g>
	<path style="fill-rule:evenodd;clip-rule:evenodd;fill:#68757B;" d="M6.75,52.4C11.083,42.133,17.2,33.05,25.1,25.15
		c7.933-7.933,17.017-14.067,27.25-18.4C62.983,2.25,74.1,0,85.7,0c11.6,0,22.717,2.25,33.35,6.75
		c10.267,4.333,19.351,10.467,27.25,18.4c7.934,7.9,14.066,16.983,18.4,27.25c4.5,10.633,6.75,21.75,6.75,33.35
		c0,11.6-2.25,22.717-6.75,33.35c-4.334,10.268-10.467,19.351-18.4,27.25c-7.899,7.934-16.983,14.067-27.25,18.4
		c-10.633,4.5-21.75,6.75-33.35,6.75c-11.6,0-22.717-2.25-33.35-6.75c-10.233-4.333-19.317-10.467-27.25-18.4
		c-7.9-7.899-14.017-16.982-18.35-27.25C2.25,108.467,0,97.35,0,85.75C0,74.15,2.25,63.033,6.75,52.4z"/>
	
		<linearGradient id="SVGID_4_" gradientUnits="userSpaceOnUse" x1="-171.5854" y1="85.7256" x2="-0.0854" y2="85.7256" gradientTransform="matrix(5.830904e-006 -1 1 -0.001 -9.214067e-005 4.449275e-004)">
		<stop  offset="0.0039" style="stop-color:#4F1D1F"/>
		<stop  offset="0.2078" style="stop-color:#7D5F3C"/>
		<stop  offset="0.5569" style="stop-color:#B09A68"/>
		<stop  offset="0.7412" style="stop-color:#EEEDCF"/>
		<stop  offset="0.7922" style="stop-color:#E7E1AD"/>
		<stop  offset="1" style="stop-color:#B9A57A"/>
	</linearGradient>
	<path style="fill-rule:evenodd;clip-rule:evenodd;fill:url(#SVGID_4_);" d="M6.75,52.4C11.083,42.133,17.2,33.05,25.1,25.15
		c7.933-7.933,17.017-14.067,27.25-18.4C62.983,2.25,74.1,0,85.7,0c11.6,0,22.717,2.25,33.35,6.75
		c10.267,4.333,19.351,10.467,27.25,18.4c7.934,7.9,14.066,16.983,18.4,27.25c4.5,10.633,6.75,21.75,6.75,33.35
		c0,11.6-2.25,22.717-6.75,33.35c-4.334,10.268-10.467,19.351-18.4,27.25c-7.899,7.934-16.983,14.067-27.25,18.4
		c-10.633,4.5-21.75,6.75-33.35,6.75c-11.6,0-22.717-2.25-33.35-6.75c-10.233-4.333-19.317-10.467-27.25-18.4
		c-7.9-7.899-14.017-16.982-18.35-27.25C2.25,108.467,0,97.35,0,85.75C0,74.15,2.25,63.033,6.75,52.4z"/>
	<g>
		<g>
			
				<linearGradient id="SVGID_5_" gradientUnits="userSpaceOnUse" x1="-158.2358" y1="85.7256" x2="-13.4355" y2="85.7256" gradientTransform="matrix(6.906077e-006 -1 1 -0.001 -1.647736e-004 4.449275e-004)">
				<stop  offset="0.0431" style="stop-color:#BAA270"/>
				<stop  offset="1" style="stop-color:#73624A"/>
			</linearGradient>
			<path style="fill-rule:evenodd;clip-rule:evenodd;fill:url(#SVGID_5_);" d="M34.55,34.55c6.667-6.667,14.317-11.833,22.95-15.5
				c8.967-3.8,18.367-5.7,28.2-5.7c9.833,0,19.233,1.9,28.2,5.7c8.666,3.667,16.333,8.833,23,15.5
				c6.666,6.667,11.833,14.333,15.5,23c3.8,8.967,5.699,18.367,5.699,28.2c0,9.833-1.899,19.233-5.699,28.2
				c-3.667,8.667-8.834,16.333-15.5,23c-6.667,6.667-14.334,11.833-23,15.5c-8.967,3.8-18.367,5.7-28.2,5.7
				c-9.833,0-19.233-1.9-28.2-5.7c-8.633-3.667-16.283-8.833-22.95-15.5c-6.7-6.667-11.867-14.333-15.5-23
				c-3.8-8.967-5.7-18.367-5.7-28.2c0-9.833,1.9-19.233,5.7-28.2C22.683,48.883,27.85,41.217,34.55,34.55z"/>
		</g>
	</g>
</g>
<g>
	<g>
		<path style="fill-rule:evenodd;clip-rule:evenodd;fill:#FFFFFF;" d="M86.55,107.85c-0.1-0.1-0.083-0.199,0.05-0.3
			c0.101-0.066,0.167-0.033,0.2,0.101c0.033,0.267,0.033,0.399,0,0.399C86.733,108.05,86.65,107.983,86.55,107.85z"/>
		<g>
			
				<linearGradient id="SVGID_6_" gradientUnits="userSpaceOnUse" x1="-151.9858" y1="85.6758" x2="-19.6353" y2="85.6758" gradientTransform="matrix(7.555724e-006 -1 1 -0.001 2.190953e-004 4.449275e-004)">
				<stop  offset="0.0353" style="stop-color:#722F2A"/>
				<stop  offset="0.5843" style="stop-color:#E76267"/>
				<stop  offset="1" style="stop-color:#DCB574"/>
			</linearGradient>
			<path style="fill-rule:evenodd;clip-rule:evenodd;fill:url(#SVGID_6_);" d="M85.7,19.55c18.267,0,33.85,6.467,46.75,19.4
				c12.934,12.933,19.399,28.517,19.399,46.75c0,18.267-6.466,33.866-19.399,46.8s-28.517,19.4-46.75,19.4
				c-18.267,0-33.867-6.467-46.8-19.4c-12.933-12.934-19.4-28.533-19.4-46.8c0-18.233,6.467-33.817,19.4-46.75
				C51.833,26.017,67.433,19.55,85.7,19.55z"/>
			<path style="fill-rule:evenodd;clip-rule:evenodd;fill:#470B17;" d="M85.7,20.35c-18.034,0-33.434,6.383-46.2,19.15
				S20.35,67.667,20.35,85.7c0,18.066,6.383,33.467,19.15,46.2c12.767,12.767,28.167,19.149,46.2,19.149
				c18.066,0,33.467-6.383,46.2-19.149c12.767-12.733,19.149-28.134,19.149-46.2c0-18.034-6.383-33.434-19.149-46.2
				C119.167,26.733,103.767,20.35,85.7,20.35z M38.3,38.35c6.333-6.333,13.583-11.184,21.75-14.55c8.167-3.4,16.717-5.1,25.65-5.1
				s17.483,1.7,25.649,5.1c8.134,3.367,15.367,8.217,21.7,14.55c6.334,6.333,11.2,13.566,14.601,21.7
				c3.366,8.134,5.05,16.684,5.05,25.65s-1.684,17.517-5.05,25.649c-3.4,8.2-8.267,15.45-14.601,21.75
				c-6.333,6.334-13.566,11.184-21.7,14.551c-8.133,3.366-16.683,5.05-25.649,5.05s-17.517-1.684-25.65-5.05
				c-8.167-3.367-15.417-8.217-21.75-14.551c-6.333-6.333-11.183-13.583-14.55-21.75c-3.367-8.133-5.05-16.683-5.05-25.649
				s1.683-17.517,5.05-25.65C27.117,51.917,31.967,44.684,38.3,38.35z"/>
		</g>
		
			<use xlink:href="#FlashAICB_x2F_Layer_17_x2F__x3C_Path_x3E_"  width="118.9" height="118.65" y="-118.65" transform="matrix(1 0 0 -1 26.25 24.25)" style="overflow:visible;opacity:0.9102;enable-background:new    ;"/>
	</g>
	<g>
		<path style="fill-rule:evenodd;clip-rule:evenodd;fill:#F7D7C8;" d="M102.5,36.2c-0.767,0-1.35-0.25-1.75-0.75
			c-0.366-0.434-0.55-0.967-0.55-1.6c0-0.6,0.2-1.133,0.6-1.6c0.434-0.5,1-0.75,1.7-0.75h4.8c0.733,0,1.3,0.233,1.7,0.7
			c0.4,0.466,0.6,1.05,0.6,1.75V53.3c0,0.833-0.25,1.483-0.75,1.95c-0.466,0.467-1.066,0.7-1.8,0.7s-1.333-0.233-1.8-0.7
			c-0.5-0.467-0.75-1.117-0.75-1.95V36.2H102.5z"/>
		
			<linearGradient id="SVGID_7_" gradientUnits="userSpaceOnUse" x1="-55.9922" y1="104.9023" x2="-31.0172" y2="104.9023" gradientTransform="matrix(4.004004e-005 -1 1 -0.001 -1.024090e-004 4.449275e-004)">
			<stop  offset="0.2902" style="stop-color:#2F0102"/>
			<stop  offset="1" style="stop-color:#D2060E"/>
		</linearGradient>
		<path style="fill-rule:evenodd;clip-rule:evenodd;fill:url(#SVGID_7_);" d="M102.5,35.1c-0.767,0-1.35-0.25-1.75-0.75
			c-0.366-0.434-0.55-0.967-0.55-1.6s0.2-1.167,0.6-1.6c0.434-0.5,1-0.75,1.7-0.75h4.8c0.733,0,1.3,0.233,1.7,0.7
			c0.4,0.433,0.6,1,0.6,1.7v19.35c0,0.833-0.25,1.483-0.75,1.95c-0.466,0.466-1.066,0.7-1.8,0.7s-1.333-0.233-1.8-0.7
			c-0.5-0.467-0.75-1.117-0.75-1.95V35.1H102.5z"/>
	</g>
	<g>
		<path style="fill-rule:evenodd;clip-rule:evenodd;fill:#F7D7C8;" d="M75.15,32.15c0.434,0.4,0.65,0.9,0.65,1.5
			c0,1.7-0.8,2.55-2.4,2.55H67l-0.5,3.6c1.067-0.2,1.917-0.3,2.55-0.3c2.034,0,3.717,0.7,5.05,2.1c1.333,1.4,2,3.1,2,5.1
			c0,2.9-0.767,5.183-2.3,6.85c-1.6,1.733-3.833,2.6-6.7,2.6c-1.533,0-3.083-0.383-4.65-1.15c-1.9-0.934-2.85-2.066-2.85-3.4
			c0-0.633,0.233-1.184,0.7-1.65c0.434-0.467,0.967-0.7,1.6-0.7c0.367,0,1.133,0.367,2.3,1.1c1.167,0.733,2.167,1.1,3,1.1
			c1.1,0,2-0.467,2.7-1.4c0.6-0.866,0.9-1.883,0.9-3.05c0-1.033-0.283-1.867-0.85-2.5c-0.567-0.633-1.383-0.95-2.45-0.95
			c-0.667,0-1.35,0.2-2.05,0.6c-0.733,0.367-1.383,0.55-1.95,0.55c-0.6,0-1.1-0.2-1.5-0.6c-0.333-0.333-0.5-0.667-0.5-1l0.95-8.35
			c0.2-1.3,0.483-2.167,0.85-2.6s0.967-0.65,1.8-0.65h8.2C74.067,31.5,74.683,31.717,75.15,32.15z"/>
		
			<linearGradient id="SVGID_8_" gradientUnits="userSpaceOnUse" x1="-55.9551" y1="67.8525" x2="-30.9801" y2="67.8525" gradientTransform="matrix(4.004004e-005 -1 1 -0.001 -1.024090e-004 4.449275e-004)">
			<stop  offset="0.2902" style="stop-color:#2F0102"/>
			<stop  offset="1" style="stop-color:#D2060E"/>
		</linearGradient>
		<path style="fill-rule:evenodd;clip-rule:evenodd;fill:url(#SVGID_8_);" d="M75.8,32.55c0,1-0.316,1.717-0.95,2.15
			c-0.434,0.267-0.917,0.4-1.45,0.4H67l-0.5,3.6c0.933-0.233,1.783-0.35,2.55-0.35c2.034,0,3.717,0.716,5.05,2.15
			c1.333,1.367,2,3.066,2,5.1c0,2.867-0.767,5.133-2.3,6.8c-1.6,1.733-3.833,2.6-6.7,2.6c-1.533,0-3.083-0.383-4.65-1.15
			c-1.9-0.9-2.85-2.034-2.85-3.4c0-0.634,0.233-1.167,0.7-1.6c0.434-0.467,0.967-0.7,1.6-0.7c0.367,0,1.133,0.367,2.3,1.1
			c1.167,0.7,2.167,1.05,3,1.05c1.1,0,2-0.467,2.7-1.4c0.6-0.867,0.9-1.883,0.9-3.05c0-1.034-0.283-1.867-0.85-2.5
			c-0.567-0.633-1.383-0.95-2.45-0.95c-0.667,0-1.35,0.2-2.05,0.6c-0.733,0.367-1.383,0.55-1.95,0.55c-0.6,0-1.1-0.2-1.5-0.6
			c-0.333-0.333-0.5-0.667-0.5-1l0.95-8.35c0.2-1.3,0.483-2.167,0.85-2.6c0.367-0.4,0.967-0.6,1.8-0.6h8.2
			c0.767,0,1.383,0.2,1.85,0.6C75.583,31.4,75.8,31.917,75.8,32.55z"/>
	</g>
	<g>
		<path style="fill-rule:evenodd;clip-rule:evenodd;fill:#F7D7C8;" d="M81.55,35.3c1.6-2.8,3.95-4.2,7.05-4.2
			c3.134,0,5.5,1.4,7.101,4.2c1.3,2.233,1.95,5,1.95,8.3c0,3.333-0.65,6.117-1.95,8.35c-1.601,2.8-3.967,4.2-7.101,4.2
			c-3.133,0-5.483-1.4-7.05-4.2c-1.3-2.267-1.95-5.05-1.95-8.35C79.6,40.3,80.25,37.533,81.55,35.3z M84.9,43.6
			c0,5.267,1.234,7.9,3.7,7.9c2.5,0,3.75-2.633,3.75-7.9c0-5.233-1.25-7.85-3.75-7.85C86.134,35.75,84.9,38.367,84.9,43.6z"/>
		
			<linearGradient id="SVGID_9_" gradientUnits="userSpaceOnUse" x1="-55.9385" y1="88.627" x2="-30.9385" y2="88.627" gradientTransform="matrix(4.000000e-005 -1 1 -0.001 6.127130e-005 4.449275e-004)">
			<stop  offset="0.2902" style="stop-color:#2F0102"/>
			<stop  offset="1" style="stop-color:#D2060E"/>
		</linearGradient>
		<path style="fill-rule:evenodd;clip-rule:evenodd;fill:url(#SVGID_9_);" d="M81.55,34.15C83.117,31.383,85.467,30,88.6,30
			c3.134,0,5.5,1.383,7.101,4.15c1.3,2.267,1.95,5.05,1.95,8.35S97,48.583,95.7,50.85C94.1,53.617,91.733,55,88.6,55
			c-3.133,0-5.483-1.383-7.05-4.15c-1.3-2.267-1.95-5.05-1.95-8.35S80.25,36.417,81.55,34.15z M84.9,42.5c0,5.267,1.234,7.9,3.7,7.9
			c2.5,0,3.75-2.633,3.75-7.9s-1.25-7.9-3.75-7.9C86.134,34.6,84.9,37.233,84.9,42.5z"/>
	</g>
	<g>
		<path style="fill-rule:evenodd;clip-rule:evenodd;fill:#FCD8D1;" d="M53.6,59c0.767-0.6,1.683-0.983,2.75-1.15
			c0.733-0.1,1.433-0.083,2.1,0.05c1.4,0.233,2.517,0.983,3.35,2.25c0.267,0.467,0.667,1.317,1.2,2.55L73.2,86.1l9.45-15.3
			c0.434-0.7,1.033-1.233,1.8-1.6c0.767-0.4,1.566-0.55,2.399-0.45l13.851,1.6l7.35-7.3l0.25-0.1c0.8-0.567,1.684-0.9,2.65-1
			c0.399-0.034,0.883,0,1.45,0.1c1.166,0.067,2.149,0.517,2.949,1.35c0.434,0.433,0.684,0.7,0.75,0.8c0.801,0.866,1.217,2,1.25,3.4
			c0.067,1.033-0.216,2.033-0.85,3l-0.55,0.75l-4.65,4.55l3,2.25c0.967,0.7,1.533,1.633,1.7,2.8c0.167,1.167-0.1,2.233-0.8,3.2
			l-0.351,0.45l-0.149,0.25l-27.2,54.8c-0.134,0.3-0.6,0.85-1.4,1.649l-0.5,0.25l-1.1,0.4l-0.65,0.1h-0.7l-0.3-0.1l-0.7-0.15
			l-25.6-9.149c-0.867-0.334-1.566-0.867-2.1-1.601c-0.534-0.767-0.8-1.616-0.8-2.55v-9.8l0.2-0.95l4-6.65
			c-0.233-1.133-0.184-2.399,0.15-3.8l0.45-1.399l0.7-1.45c0.133-0.3,0.317-0.601,0.55-0.9l0.85-1.2l0.05-0.05l0.65-0.8l0.1-0.1
			c1.066-1.334,2.566-2.45,4.5-3.351l0.5-0.8L52.45,66.5l-0.1-0.15c-0.9-1.833-1.083-3.483-0.55-4.95
			C52.167,60.434,52.767,59.633,53.6,59z"/>
		
			<linearGradient id="SVGID_10_" gradientUnits="userSpaceOnUse" x1="-140.9834" y1="84.0317" x2="-56.7065" y2="84.0317" gradientTransform="matrix(1.187296e-005 -1 1 -0.001 6.267622e-005 4.449275e-004)">
			<stop  offset="0" style="stop-color:#EB756E"/>
			<stop  offset="0.4314" style="stop-color:#E78267"/>
			<stop  offset="0.6078" style="stop-color:#EC7D6F"/>
			<stop  offset="0.8941" style="stop-color:#E9946C"/>
			<stop  offset="0.9608" style="stop-color:#F0AC81"/>
			<stop  offset="1" style="stop-color:#F6BD8E"/>
		</linearGradient>
		<path style="fill-rule:evenodd;clip-rule:evenodd;fill:url(#SVGID_10_);" d="M53.2,57.85c0.733-0.567,1.65-0.934,2.75-1.1
			c0.7-0.133,1.4-0.133,2.1,0c1.434,0.3,2.534,1.05,3.3,2.25c0.367,0.6,0.783,1.467,1.25,2.6l10.2,23.35l9.45-15.3
			c0.4-0.7,1-1.233,1.8-1.6c0.767-0.4,1.566-0.55,2.4-0.45l13.8,1.65l7.4-7.35l0.25-0.05c0.866-0.6,1.75-0.934,2.649-1
			c0.533-0.067,1-0.05,1.4,0.05c1.166,0.067,2.166,0.534,3,1.4l0.75,0.75c0.8,0.934,1.217,2.067,1.25,3.4
			c0.066,1.066-0.217,2.083-0.851,3.05l-0.55,0.7l-4.649,4.6l3,2.2c0.966,0.733,1.533,1.684,1.699,2.85
			c0.167,1.167-0.1,2.216-0.8,3.15l-0.35,0.5l-0.05,0.05L88.35,136c-0.199,0.4-0.5,1.033-0.899,1.9c-0.4,0.8-0.8,1.383-1.2,1.75
			l-0.55,0.5l-1,0.5l-1.25,0.25h-0.7l-0.3-0.051l-0.75-0.199l-25.55-9.15c-0.867-0.3-1.566-0.833-2.1-1.6
			c-0.533-0.733-0.8-1.567-0.8-2.5V117.6l0.2-0.949l0.15-0.301c0.167-0.399,0.316-0.683,0.45-0.85l3.4-5.55
			c-0.233-1.134-0.184-2.384,0.15-3.75l0.45-1.45l0.5-1.05l0.95-1.601l0.65-0.85l0.05-0.1l0.65-0.801l0.1-0.1
			c1.066-1.333,2.566-2.45,4.5-3.35l0.5-0.75l-13.9-30.8l-0.1-0.1c-0.9-1.867-1.083-3.533-0.55-5
			C51.733,59.283,52.333,58.483,53.2,57.85z"/>
		<path style="fill-rule:evenodd;clip-rule:evenodd;fill:#2A4821;" d="M56.5,60.3c0.333-0.066,0.633-0.066,0.9,0
			c0.333,0.067,0.65,0.283,0.95,0.65c0.267,0.433,0.566,1.083,0.9,1.95L71,89.85l0.05,0.051l1.2,2.85l13.05-21.2
			c0.167-0.3,0.4-0.417,0.7-0.35l15.55,1.8l0.3-0.25L109.65,65h0.05c0.366-0.367,0.75-0.566,1.149-0.6l0.801,0.1h0.1
			c0.267,0,0.467,0.1,0.6,0.3l0.051,0.1c0.199,0.1,0.383,0.267,0.55,0.5c0.267,0.267,0.399,0.667,0.399,1.2
			c0.034,0.333-0.066,0.65-0.3,0.95l-0.05,0.1l-7.55,7.5v0.05l6.25,4.7c0.366,0.267,0.434,0.617,0.2,1.05l-0.351,0.2l-27.7,55.75
			l-0.05,0.05l-0.05,0.1l-0.05,0.05l-0.1,0.051l-0.05,0.05l-0.1,0.05l-0.25,0.05h-0.15l-0.1-0.05l-25.6-9.15
			c-0.333-0.1-0.5-0.333-0.5-0.699l0.05-9.601l0.15-0.35l4.4-7.15l-0.2-0.3c-0.4-0.733-0.45-1.7-0.15-2.9l0.45-1.35l0.75-1.35
			l0.65-0.95l0.1-0.101l0.55-0.649l0.1-0.15c0.966-1.1,2.383-2.033,4.25-2.8l2.1-3.4L55.2,63.65c-0.633-1.4-0.583-2.383,0.15-2.95
			l0.6-0.3L56.5,60.3z"/>
		<g>
			
				<linearGradient id="SVGID_11_" gradientUnits="userSpaceOnUse" x1="-29.4902" y1="142.7891" x2="-13.3863" y2="142.7891" gradientTransform="matrix(0.77 -0.638 0.6066 0.7961 2.539158e-004 -1.524687e-004)">
				<stop  offset="0" style="stop-color:#ABABAB"/>
				<stop  offset="0.2588" style="stop-color:#8D8D8D"/>
				<stop  offset="1" style="stop-color:#EBEAEA"/>
			</linearGradient>
			<polygon style="fill-rule:evenodd;clip-rule:evenodd;fill:url(#SVGID_11_);" points="71.15,113.55 72.75,108.85 83.05,136.5 
				57.4,127.45 57.4,118 			"/>
			
				<linearGradient id="SVGID_12_" gradientUnits="userSpaceOnUse" x1="-131.6001" y1="-84.8018" x2="-106.507" y2="-84.8018" gradientTransform="matrix(-0.9804 -0.1973 0.2437 -0.971 4.154742e-004 6.383508e-004)">
				<stop  offset="0" style="stop-color:#7A7B7B"/>
				<stop  offset="1" style="stop-color:#DCDCDC"/>
			</linearGradient>
			<polygon style="fill-rule:evenodd;clip-rule:evenodd;fill:url(#SVGID_12_);" points="102.05,73.75 110.75,80.25 83.05,136.5 
				74.65,121.25 73.85,105.05 			"/>
			
				<linearGradient id="SVGID_13_" gradientUnits="userSpaceOnUse" x1="-8.5752" y1="139.9961" x2="36.0619" y2="139.9961" gradientTransform="matrix(0.7701 -0.6379 0.6064 0.7962 -3.563762e-004 2.539158e-005)">
				<stop  offset="0" style="stop-color:#FFFFFF"/>
				<stop  offset="0.9922" style="stop-color:#A2A2A2"/>
			</linearGradient>
			<path style="fill-rule:evenodd;clip-rule:evenodd;fill:url(#SVGID_13_);" d="M102.05,73.75l8.851,6.6
				c-1.367-0.934-3.334-2-5.9-3.2c-1.066-0.533-1.866-0.867-2.4-1l-0.5-0.05C85.9,103.434,77.533,117.917,77,119.55
				c-0.5,1.634-0.567,3.184-0.2,4.65l6.25,12.3l-8.4-15.25l-0.6-12.95l2.15-5.899L102.05,73.75z"/>
			
				<linearGradient id="SVGID_14_" gradientUnits="userSpaceOnUse" x1="-72.4902" y1="-125.1953" x2="-50.1039" y2="-125.1953" gradientTransform="matrix(-0.9984 0.057 -0.016 -1.0007 4.428253e-005 -4.162788e-004)">
				<stop  offset="0" style="stop-color:#FFFFFF"/>
				<stop  offset="0.9922" style="stop-color:#A2A2A2"/>
			</linearGradient>
			<path style="fill-rule:evenodd;clip-rule:evenodd;fill:url(#SVGID_14_);" d="M76.45,123.15c0.767,2.166,0.583,2.566-0.55,1.199
				c-0.933-1.066-4.3-2.449-10.1-4.149l-8.4-2.2l18.15,2.8L76.45,123.15z"/>
			
				<linearGradient id="SVGID_15_" gradientUnits="userSpaceOnUse" x1="-93.6055" y1="74.1592" x2="-47.7567" y2="74.1592" gradientTransform="matrix(-0.0567 -0.9984 1.0007 -0.0158 7.627532e-005 -3.278814e-004)">
				<stop  offset="0" style="stop-color:#F5F5F5"/>
				<stop  offset="0.4" style="stop-color:#949494"/>
				<stop  offset="0.6196" style="stop-color:#E1E1E1"/>
			</linearGradient>
			<polygon style="fill-rule:evenodd;clip-rule:evenodd;fill:url(#SVGID_15_);" points="102.05,73.75 74.65,121.25 57.4,118 
				85.55,71.9 			"/>
			<polygon style="fill-rule:evenodd;clip-rule:evenodd;fill:#FFFFFF;" points="75.7,123.2 74.95,125.65 74.9,122.35 73.25,119.8 
				75.05,121 75.8,118.5 75.85,121.85 77.5,124.4 			"/>
			
				<radialGradient id="SVGID_16_" cx="-9.5742" cy="132.043" r="22.4423" gradientTransform="matrix(0.7995 -0.6007 -0.481 -0.6402 142.8344 190.1034)" gradientUnits="userSpaceOnUse">
				<stop  offset="0.0549" style="stop-color:#FFFFFF"/>
				<stop  offset="0.2078" style="stop-color:#FFFFFF;stop-opacity:0.6471"/>
				<stop  offset="0.2706" style="stop-color:#FFFFFF;stop-opacity:0.5373"/>
				<stop  offset="1" style="stop-color:#FFFFFF;stop-opacity:0"/>
			</radialGradient>
			<path style="fill-rule:evenodd;clip-rule:evenodd;fill:url(#SVGID_16_);" d="M92,111.95c-1.4,5.433-4.583,10.017-9.55,13.75
				c-4.934,3.733-10.217,5.517-15.85,5.35c-5.6-0.2-9.9-2.283-12.9-6.25c-2.967-3.967-3.75-8.667-2.35-14.1
				c1.4-5.434,4.566-10.017,9.5-13.75c4.967-3.733,10.267-5.517,15.9-5.351c5.6,0.167,9.884,2.233,12.85,6.2
				C92.6,101.767,93.4,106.483,92,111.95z"/>
		</g>
		
			<use xlink:href="#FlashAICB_x2F_Layer_17_x2F__x3C_Path_x3E__x5F_0"  width="41.75" height="48" y="-48" transform="matrix(1 0 0 -1 63.0498 73.6001)" style="overflow:visible;opacity:0.2305;enable-background:new    ;"/>
		<g>
			<path style="fill-rule:evenodd;clip-rule:evenodd;fill:#595347;" d="M56.4,64.35l-0.45-0.8c-0.233-0.5-0.383-0.883-0.45-1.15
				c-0.133-0.466-0.033-0.833,0.3-1.1c0.534-0.366,1.034-0.4,1.5-0.1c0.1,0.066,0.25,0.333,0.45,0.8l12.6,28.2
				c1.9,4.366,3.233,6.983,4,7.85c0.467,0.5,1.033,0.817,1.7,0.95c0.9,0.133,1.6,0.35,2.1,0.65c1.567,0.967,2.717,1.767,3.45,2.399
				c1.5,1.267,2.45,2.517,2.85,3.75c0.466,1.467,0.717,2.75,0.75,3.851c0.033,1.133-0.167,2.316-0.6,3.55
				c-0.467,1.467-0.733,2.95-0.8,4.45c-0.033,0.566-0.133,0.982-0.3,1.25c-0.067,0.133-0.317,0.416-0.75,0.85
				c-0.3,0.367-0.617,0.434-0.95,0.2c-0.233-0.167-0.55-0.583-0.95-1.25c-0.5-0.934-0.633-1.983-0.4-3.15
				c0.066-0.333,0.25-0.649,0.55-0.95c0.4-0.333,0.683-0.6,0.85-0.8c0.333-0.366,0.5-0.967,0.5-1.8c0-1.033-0.25-2.233-0.75-3.6
				c-0.467-1.268-1.35-2.301-2.65-3.101c-0.067-0.033-0.917-0.417-2.55-1.149c-1.2-0.567-2.117-1.351-2.75-2.351
				c-0.267-0.399-1.417-2.667-3.45-6.8c-2.067-4.267-3.517-7.35-4.35-9.25L56.4,64.35z"/>
			<path style="fill-rule:evenodd;clip-rule:evenodd;fill:#A6A097;" d="M82.35,113.15c0.033-0.134,0.017-0.334-0.05-0.601
				c0.133-1.1-0.1-2.483-0.7-4.149c-0.333-0.934-0.917-1.75-1.75-2.45l-0.05-0.05c-0.2-0.667-1.1-1.5-2.7-2.5
				c-0.333-0.2-0.117-0.184,0.65,0.05c0.733,0.233,1.433,0.583,2.1,1.05c0.833,0.566,1.533,1.383,2.1,2.45
				c0.633,1.2,0.966,2.45,1,3.75c0.033,1.833-0.25,3.116-0.85,3.85C82.1,114.25,82.183,113.783,82.35,113.15z"/>
			<path style="fill-rule:evenodd;clip-rule:evenodd;fill:#A6A097;" d="M55.8,62.15c0.1-0.033,0.284,0.284,0.55,0.95
				c0.133,0.333,0.333,0.85,0.6,1.55l1.3,2.9c0.267,0.634,0.683,1.583,1.25,2.85c4.1,9.367,7.3,16.383,9.6,21.05
				c1.167,2.3,2.05,4.017,2.65,5.149c0.433,1.067,0.617,1.95,0.55,2.65c-3.367-6.9-5.517-11.4-6.45-13.5l-3.5-7.9
				c-1.133-2.6-2.267-5.2-3.4-7.8C56.717,64.85,55.667,62.217,55.8,62.15z"/>
			<path style="fill-rule:evenodd;clip-rule:evenodd;fill:#333029;" d="M56.9,62.35c-0.3-0.6-0.45-1.017-0.45-1.25
				c0.167-0.1,0.45-0.117,0.85-0.05c0.167,0.033,0.3,0.134,0.4,0.3c0.333,0.533,0.733,1.417,1.2,2.65l11.45,26.2
				c1.9,4.366,3.233,6.983,4,7.85l0.6,0.55l-0.35,1.95c-0.233,0.367-0.45,0.567-0.65,0.601c-0.233,0.033-0.467,0-0.7-0.101
				l-0.65-1.2c-0.067-1.199-0.184-2.283-0.35-3.25c-0.067-0.267-1.183-2.633-3.35-7.1c-2.3-4.733-3.833-8.217-4.6-10.45
				c-0.333-1-0.933-2.467-1.8-4.4L56.9,62.35z"/>
			<path style="fill-rule:evenodd;clip-rule:evenodd;fill:#333029;" d="M78.15,99.65c1.567,0.967,2.717,1.767,3.45,2.399
				c1.5,1.267,2.45,2.517,2.85,3.75c0.466,1.467,0.717,2.75,0.75,3.851c0.033,1.133-0.167,2.316-0.6,3.55
				c-0.467,1.467-0.733,2.95-0.8,4.45c-0.033,0.566-0.133,0.982-0.3,1.25c-0.067,0.133-0.317,0.416-0.75,0.85
				c-0.267,0.3-0.55,0.383-0.85,0.25c0.2-0.533,0.217-1.033,0.05-1.5c-0.2-0.566-0.284-1.2-0.25-1.9
				c0.033-0.699,0.15-1.1,0.35-1.199l0.4-0.25c0.233-0.167,0.466-0.483,0.7-0.95c0.467-0.9,0.767-2.117,0.9-3.65
				c0.167-1.566-0.15-3.066-0.95-4.5c-0.4-0.733-1.083-1.649-2.05-2.75c-0.433-0.533-1.167-0.95-2.2-1.25l-1.45-0.3l-0.45,0.75
				c-0.4,0.566-0.8,1-1.2,1.3c-0.5-0.333-0.95-0.7-1.35-1.1l0.2-2.15c0.3-0.333,0.617-0.899,0.95-1.7
				c0.034,0.033,0.417,0.117,1.15,0.25C77.2,99.2,77.683,99.383,78.15,99.65z"/>
			<path style="fill-rule:evenodd;clip-rule:evenodd;fill:#333029;" d="M75.55,98.85c-0.333,0.801-0.65,1.367-0.95,1.7l0.35-1.95
				L75.55,98.85z"/>
		</g>
		<g>
			<g>
				<g>
					<path style="fill-rule:evenodd;clip-rule:evenodd;fill:#595347;" d="M112.35,65.85l0.051,0.1c0.033,0.1,0.066,0.3,0.1,0.6
						c0,0.333-0.017,0.517-0.05,0.55c-13.3,13.3-21.533,21.45-24.7,24.45c-1.366,1.3-3.633,3.267-6.8,5.9
						c-2.534,2.167-4.167,3.533-4.9,4.1c-0.4,0.267-1,0.55-1.8,0.851c-0.867,0.333-1.567,0.533-2.1,0.6
						c-1.767,0.167-2.75,0.267-2.95,0.3c-1.633,0.367-2.883,1.017-3.75,1.95c-0.967,1.066-1.55,2.167-1.75,3.3
						c0,0.101-0.184,0.333-0.55,0.7l-0.4,0.7c-0.167,0.167-0.417,0.017-0.75-0.45c-0.5-0.833-0.417-1.983,0.25-3.45
						c0.233-0.6,0.917-1.616,2.05-3.05c1.233-1.5,3.633-2.7,7.2-3.6c0.167-0.033,1-0.167,2.5-0.4c0.833-0.1,1.567-0.333,2.2-0.7
						c1.033-0.566,3.233-2.483,6.6-5.75L109.65,66.1c0.233-0.267,0.416-0.467,0.55-0.6c0.233-0.2,0.467-0.316,0.7-0.35
						C111.6,65.15,112.083,65.383,112.35,65.85z"/>
					<path style="fill-rule:evenodd;clip-rule:evenodd;fill:#333029;" d="M69.05,102.3c0.434-0.033,1.2,0.017,2.3,0.15
						c0.8,0.066,1.517,0,2.15-0.2c-0.633,0.4-1.083,0.65-1.35,0.75c-1.467,0.133-2.45,0.267-2.95,0.4
						c-1.633,0.366-2.883,1.033-3.75,2c-0.667,0.732-1.117,1.35-1.35,1.85c-0.167,0.333-0.3,0.767-0.4,1.3
						c-0.233,0.233-0.55,0.667-0.95,1.3c-0.1-0.699-0.05-1.467,0.15-2.3c0.3-1.167,1.133-2.316,2.5-3.45
						C66.733,102.967,67.95,102.367,69.05,102.3z"/>
					<path style="fill-rule:evenodd;clip-rule:evenodd;fill:#333029;" d="M109.2,68.85l2.75-2.7c0.1-0.233,0.233-0.317,0.399-0.25
						c0.167,0.034,0.25,0.284,0.25,0.75c0.034,0.233-0.116,0.483-0.449,0.75l-24.4,24.15c-2.1,1.967-5.533,4.917-10.3,8.851
						l-3.95,1.85c1.633-1.1,4.633-3.5,9-7.2c3.7-3.133,8.25-7.467,13.65-13C103.15,74.85,107.5,70.45,109.2,68.85z"/>
					<path style="fill-rule:evenodd;clip-rule:evenodd;fill:#333029;" d="M73.5,102.25l3.95-1.85l-1.4,1.149
						c-0.4,0.267-1,0.55-1.8,0.851c-0.867,0.333-1.567,0.533-2.1,0.6C72.417,102.9,72.867,102.65,73.5,102.25z"/>
					<path style="fill-rule:evenodd;clip-rule:evenodd;fill:#A6A097;" d="M69.4,100.55c0.633-0.167,1.184-0.267,1.65-0.3l-1.55,0.65
						c-1.367,0.533-2.25,0.916-2.65,1.149c-1.133,0.667-2.184,1.617-3.15,2.851c-0.9,1.199-1.417,2.366-1.55,3.5
						c-0.066,0.566-0.033,1.017,0.1,1.35c-0.767-0.934-0.633-2.3,0.4-4.1c0.9-1.567,2.017-2.783,3.35-3.65
						C66.967,101.367,68.1,100.883,69.4,100.55z"/>
					<path style="fill-rule:evenodd;clip-rule:evenodd;fill:#A6A097;" d="M110.2,65.95c0.233,0.066,0.217,0.233-0.05,0.5l-8.7,8.6
						c-1.167,1.134-4.851,4.817-11.05,11.05c-3.9,3.9-7.284,7.067-10.15,9.5c-3.067,2.634-4.9,3.95-5.5,3.95l2-1.55
						c1.267-0.867,3.283-2.684,6.05-5.45l26.101-25.7c0.233-0.233,0.416-0.4,0.55-0.5c0.233-0.233,0.434-0.367,0.6-0.4H110.2z"/>
				</g>
				<g>
					<path style="fill-rule:evenodd;clip-rule:evenodd;fill:#655D51;" d="M73.7,100c0.733-0.9,1.517-1.083,2.35-0.55
						c0.434,0.3,0.217,0.95-0.65,1.95c-0.333,0.333-0.683,0.566-1.05,0.699c-0.367,0.101-0.65,0.067-0.85-0.1
						c-0.2-0.133-0.25-0.467-0.15-1C73.417,100.533,73.533,100.2,73.7,100z"/>
					<path style="fill-rule:evenodd;clip-rule:evenodd;fill:#333029;" d="M75.65,100.15c0.2-0.4,0.067-0.717-0.4-0.95
						c0.367,0.066,0.633,0.149,0.8,0.25c0.434,0.3,0.217,0.95-0.65,1.95c-0.333,0.333-0.683,0.566-1.05,0.699
						c-0.367,0.101-0.65,0.067-0.85-0.1c-0.133-0.1-0.2-0.3-0.2-0.6c0.534,0.133,0.983,0.083,1.35-0.15
						c0.267-0.133,0.25-0.316-0.05-0.55c-0.033-0.033-0.25-0.184-0.65-0.45c-0.133-0.1-0.15-0.184-0.05-0.25
						c0.133-0.1,0.367-0.117,0.7-0.05L75.65,100.15z"/>
					<path style="fill-rule:evenodd;clip-rule:evenodd;fill:#333029;" d="M76.55,99.5c-0.033-0.133-0.117-0.267-0.25-0.4
						l-0.25-0.149l0.25-0.101c0.267-0.166,0.567-0.05,0.9,0.351c0.066,0.133-0.083,0.483-0.45,1.05s-0.817,1.066-1.35,1.5
						c-0.667,0.566-1.3,0.65-1.9,0.25c0.1,0.033,0.2,0.05,0.3,0.05l0.55-0.3c0.335-0.21,0.602-0.418,0.8-0.625l-0.25,0.325
						c0.367,0.033,0.7-0.134,1-0.5C76.433,100.283,76.65,99.8,76.55,99.5z"/>
				</g>
			</g>
		</g>
	</g>
	<g>
		
			<use xlink:href="#FlashAICB_x2F_Layer_17_x2F__x3C_Path_x3E__x5F_1"  width="110" height="55.75" y="-55.75" transform="matrix(1 0 0 -1 29.6499 26.1499)" style="overflow:visible;opacity:0.1094;enable-background:new    ;"/>
		
			<use xlink:href="#FlashAICB_x2F_Layer_17_x2F__x3C_Path_x3E__x5F_2"  width="110" height="61.294" y="-61.294" transform="matrix(1 0 0 -1 29.6499 26.1499)" style="overflow:visible;opacity:0.0898;enable-background:new    ;"/>
	</g>
	
		<use xlink:href="#FlashAICB_x2F_Layer_17_x2F__x3C_Path_x3E__x5F_3"  width="118.7" height="57.1" y="-57.1" transform="matrix(1 0 0 -1 25.2998 84.9502)" style="overflow:visible;opacity:0.4688;enable-background:new    ;"/>
</g>
</svg>
