<?xml version="1.0" encoding="iso-8859-1"?>
<!-- Generator: Adobe Illustrator 15.1.0, SVG Export Plug-In . SVG Version: 6.00 Build 0)  -->
<!DOCTYPE svg PUBLIC "-//W3C//DTD SVG 1.1//EN" "http://www.w3.org/Graphics/SVG/1.1/DTD/svg11.dtd">
<svg version="1.1" id="Layer_36_copy_2" xmlns="http://www.w3.org/2000/svg" xmlns:xlink="http://www.w3.org/1999/xlink" x="0px"
	 y="0px" width="171.5px" height="171.55px" viewBox="0 0 171.5 171.55" style="enable-background:new 0 0 171.5 171.55;"
	 xml:space="preserve">
<symbol  id="FlashAICB_x2F_Layer_36_copy_2_x2F__x3C_Clip_Group_0_x3E_" viewBox="0 -35.95 12.539 36">
	<g id="Layer_1_3_">
		<linearGradient id="SVGID_1_" gradientUnits="userSpaceOnUse" x1="2.8735" y1="-32.6743" x2="8.0235" y2="-2.3243">
			<stop  offset="0" style="stop-color:#1D304A"/>
			<stop  offset="1" style="stop-color:#121317"/>
		</linearGradient>
		<path style="fill-rule:evenodd;clip-rule:evenodd;fill:url(#SVGID_1_);" d="M10.55-9.25c-0.667-0.7-1.2-1.4-1.6-2.1
			C8.317-12.517,7.733-14.1,7.2-16.1c-0.567-2.133-0.9-3.75-1-4.85c-0.034-0.733-0.017-2.4,0.05-5c0.067-2.533,0.017-4.267-0.15-5.2
			c-0.267-1.133-0.934-2.383-2-3.75c-0.434-0.533-1.25-0.867-2.45-1c-0.6-0.067-1.15-0.067-1.65,0c0.6,0.167,1.167,0.5,1.7,1
			c1.133,1,1.65,2.383,1.55,4.15c-0.067,0.867-0.533,2.517-1.4,4.95c-0.867,2.367-1.333,4.333-1.4,5.9
			c-0.133,3.033,0.367,6.467,1.5,10.3C2.517-7.7,3.1-6.083,3.7-4.75C4-3.583,4.517-2.533,5.25-1.6c1.5,1.867,3.317,2.15,5.45,0.85
			c0.466-0.3,0.917-1.117,1.35-2.45c0.5-1.433,0.617-2.617,0.35-3.55c-0.233-0.8-0.483-1.35-0.75-1.65
			C11.25-8.667,10.883-8.95,10.55-9.25z"/>
	</g>
	<g>
		<defs>
			<path id="SVGID_2_" d="M12.05-3.2c-0.433,1.333-0.883,2.15-1.35,2.45C8.567,0.55,6.75,0.267,5.25-1.6
				C4.517-2.533,4-3.583,3.7-4.75C3.1-6.083,2.517-7.7,1.95-9.6c-1.133-3.833-1.633-7.267-1.5-10.3c0.066-1.567,0.533-3.533,1.4-5.9
				c0.867-2.434,1.333-4.083,1.4-4.95c0.1-1.767-0.417-3.15-1.55-4.15c-0.534-0.5-1.1-0.833-1.7-1c0.5-0.067,1.05-0.067,1.65,0
				c1.2,0.133,2.017,0.467,2.45,1c1.066,1.367,1.733,2.617,2,3.75c0.167,0.933,0.217,2.667,0.15,5.2c-0.067,2.6-0.083,4.267-0.05,5
				c0.1,1.1,0.433,2.717,1,4.85c0.533,2,1.117,3.583,1.75,4.75c0.4,0.7,0.933,1.4,1.6,2.1c0.333,0.3,0.7,0.583,1.1,0.85
				c0.267,0.3,0.517,0.85,0.75,1.65C12.667-5.817,12.55-4.633,12.05-3.2z"/>
		</defs>
		<clipPath id="SVGID_3_">
			<use xlink:href="#SVGID_2_"  style="overflow:visible;"/>
		</clipPath>
		<g id="Layer_3_1_" style="clip-path:url(#SVGID_3_);">
			<path style="fill-rule:evenodd;clip-rule:evenodd;fill:#2B6282;" d="M10.8-4.2c0.667,0.133,1-0.267,1-1.2
				c-0.033-0.867-0.3-1.55-0.8-2.05s-0.967-0.767-1.4-0.8C9.133-8.317,8.917-8.067,8.95-7.5c0,0.633,0.2,1.317,0.6,2.05
				C9.983-4.683,10.4-4.267,10.8-4.2z"/>
			<path style="fill-rule:evenodd;clip-rule:evenodd;fill:#2B6282;" d="M7.25-10.45c0.4-0.066,0.383-0.566-0.05-1.5
				c-0.4-0.966-0.784-1.367-1.15-1.2c-0.367,0.167-0.35,0.667,0.05,1.5C6.467-10.783,6.85-10.383,7.25-10.45z"/>
			<path style="fill-rule:evenodd;clip-rule:evenodd;fill:#2B6282;" d="M5.3-15.8c0.467,0.167,0.633-0.284,0.5-1.35
				c-0.133-1.1-0.383-1.55-0.75-1.35s-0.517,0.667-0.45,1.4C4.7-16.367,4.933-15.933,5.3-15.8z"/>
			<path style="fill-rule:evenodd;clip-rule:evenodd;fill:#2B6282;" d="M4.9-20.85c0.367-0.3,0.533-0.733,0.5-1.3
				c-0.033-0.533-0.183-0.75-0.45-0.65c-0.233,0.066-0.35,0.466-0.35,1.2C4.6-20.9,4.7-20.65,4.9-20.85z"/>
		</g>
	</g>
	<g id="Layer_4_1_">
	</g>
</symbol>
<symbol  id="FlashAICB_x2F_Layer_36_copy_2_x2F__x3C_Compound_Path_x3E_" viewBox="0 -8.4 5.846 8.4">
	<g id="Layer_1_2_">
		<path style="fill-rule:evenodd;clip-rule:evenodd;fill:#1A1715;" d="M5.15-8.4c-0.433,0.433-0.967,0.783-1.6,1.05
			C2.25-6.85,1.067-7.067,0-8l1,2c0.767,1.467,1.283,3.467,1.55,6c0.867-1.067,1.5-1.8,1.9-2.2C5.55-3.333,6-4.717,5.8-6.35
			C5.7-7.15,5.483-7.833,5.15-8.4z"/>
	</g>
</symbol>
<symbol  id="FlashAICB_x2F_Layer_36_copy_2_x2F__x3C_Path_x3E_" viewBox="0 -61.294 110.05 61.294">
	<g id="Layer_1_6_">
		<path style="fill-rule:evenodd;clip-rule:evenodd;fill:#FFFFFF;" d="M106.5-34.35c2.367-5.633,3.55-10.933,3.55-15.9
			s-1.45-8.083-4.35-9.35c-2.333-1.066-6.25-1.066-11.75,0c-7.267,1.767-13.1,3.117-17.5,4.05c-8,1.7-15.133,2.55-21.4,2.55
			c-6.333,0-13.483-0.917-21.45-2.75c-8.333-2.2-14.15-3.683-17.45-4.45c-5.566-1.267-9.5-1.433-11.8-0.5C1.45-59.5,0-56.433,0-51.5
			c0,5.5,1.167,11.167,3.5,17C6-28.333,9.483-22.767,13.95-17.8C24.683-5.933,38.383,0,55.05,0c16.434,0,30.1-5.983,41-17.95
			C100.517-22.883,104-28.35,106.5-34.35z"/>
	</g>
</symbol>
<symbol  id="FlashAICB_x2F_Layer_36_copy_2_x2F__x3C_Path_x3E__x5F_1" viewBox="0 -55.75 110.05 55.75">
	<g id="Layer_1_5_">
		
			<linearGradient id="SVGID_4_" gradientUnits="userSpaceOnUse" x1="16165.3574" y1="-53.8804" x2="16221.1328" y2="-53.8804" gradientTransform="matrix(1.792918e-005 1 -1 -0.001 0.8545 -16221.1064)">
			<stop  offset="0.1294" style="stop-color:#E2B8B2"/>
			<stop  offset="0.9255" style="stop-color:#FFFFFF"/>
		</linearGradient>
		<path style="fill-rule:evenodd;clip-rule:evenodd;fill:url(#SVGID_4_);" d="M96.05-17.95c4.467-4.933,7.95-10.4,10.45-16.4
			c2.367-5.633,3.55-10.933,3.55-15.9c0-1.633-0.167-3.117-0.5-4.45c-1.867,11.034-7.267,20.85-16.2,29.45
			c-10.533,10.133-23.3,15.2-38.3,15.2c-15.267,0-28.117-5.05-38.55-15.15C7.533-33.9,2.183-44.083,0.45-55.75
			C0.15-54.617,0-53.2,0-51.5c0,5.5,1.167,11.167,3.5,17C6-28.333,9.483-22.767,13.95-17.8C24.683-5.933,38.383,0,55.05,0
			C71.483,0,85.15-5.983,96.05-17.95z"/>
	</g>
</symbol>
<symbol  id="FlashAICB_x2F_Layer_36_copy_2_x2F__x3C_Path_x3E__x5F_2" viewBox="0 -57.1 118.7 57.1">
	<g id="Layer_1_4_">
		
			<radialGradient id="SVGID_5_" cx="59.3501" cy="-28.5498" r="46.5701" gradientTransform="matrix(1 0 0 -1 0 -57.0996)" gradientUnits="userSpaceOnUse">
			<stop  offset="0" style="stop-color:#000000;stop-opacity:0"/>
			<stop  offset="0.651" style="stop-color:#000000;stop-opacity:0.4"/>
		</radialGradient>
		<path style="fill-rule:evenodd;clip-rule:evenodd;fill:url(#SVGID_5_);" d="M95.5-30.35c10.733,7.7,18.3,17.733,22.7,30.1L118.7,0
			c-0.567-15.9-6.6-29.383-18.1-40.45C89.1-51.55,75.35-57.1,59.35-57.1c-15.733,0-29.317,5.367-40.75,16.1
			C7.233-30.3,1.033-17.183,0-1.65c4.633-12,12.217-21.7,22.75-29.1c10.833-7.567,22.867-11.35,36.1-11.35
			C72.35-42.1,84.567-38.183,95.5-30.35z"/>
	</g>
</symbol>
<g>
	<path style="fill-rule:evenodd;clip-rule:evenodd;fill:#68757B;" d="M52.4,6.75C63.033,2.25,74.15,0,85.75,0
		c11.6,0,22.717,2.25,33.35,6.75c10.267,4.333,19.351,10.467,27.25,18.4c7.934,7.934,14.067,17.017,18.4,27.25
		c4.5,10.633,6.75,21.75,6.75,33.35c0,11.6-2.25,22.717-6.75,33.35c-4.333,10.268-10.467,19.367-18.4,27.301
		c-7.899,7.933-16.983,14.066-27.25,18.399c-10.633,4.5-21.75,6.75-33.35,6.75c-11.6,0-22.717-2.25-33.35-6.75
		c-10.267-4.333-19.35-10.467-27.25-18.399c-7.933-7.934-14.066-17.033-18.4-27.301C2.25,108.467,0,97.35,0,85.75
		c0-11.6,2.25-22.717,6.75-33.35c4.333-10.233,10.467-19.316,18.4-27.25C33.05,17.217,42.133,11.083,52.4,6.75z"/>
	
		<linearGradient id="SVGID_6_" gradientUnits="userSpaceOnUse" x1="-171.6353" y1="85.75" x2="-0.0854" y2="85.75" gradientTransform="matrix(5.830904e-006 -1 1 -0.001 -9.214067e-005 4.449275e-004)">
		<stop  offset="0.0039" style="stop-color:#4F1D1F"/>
		<stop  offset="0.2078" style="stop-color:#7D5F3C"/>
		<stop  offset="0.5569" style="stop-color:#B09A68"/>
		<stop  offset="0.7412" style="stop-color:#EEEDCF"/>
		<stop  offset="0.7922" style="stop-color:#E7E1AD"/>
		<stop  offset="1" style="stop-color:#B9A57A"/>
	</linearGradient>
	<path style="fill-rule:evenodd;clip-rule:evenodd;fill:url(#SVGID_6_);" d="M52.4,6.75C63.033,2.25,74.15,0,85.75,0
		c11.6,0,22.717,2.25,33.35,6.75c10.267,4.333,19.351,10.467,27.25,18.4c7.934,7.934,14.067,17.017,18.4,27.25
		c4.5,10.633,6.75,21.75,6.75,33.35c0,11.6-2.25,22.717-6.75,33.35c-4.333,10.268-10.467,19.367-18.4,27.301
		c-7.899,7.933-16.983,14.066-27.25,18.399c-10.633,4.5-21.75,6.75-33.35,6.75c-11.6,0-22.717-2.25-33.35-6.75
		c-10.267-4.333-19.35-10.467-27.25-18.399c-7.933-7.934-14.066-17.033-18.4-27.301C2.25,108.467,0,97.35,0,85.75
		c0-11.6,2.25-22.717,6.75-33.35c4.333-10.233,10.467-19.316,18.4-27.25C33.05,17.217,42.133,11.083,52.4,6.75z"/>
	<g>
		<g>
			
				<linearGradient id="SVGID_7_" gradientUnits="userSpaceOnUse" x1="-158.2856" y1="85.751" x2="-13.4355" y2="85.751" gradientTransform="matrix(6.906077e-006 -1 1 -0.001 -1.647736e-004 4.449275e-004)">
				<stop  offset="0.0431" style="stop-color:#BAA270"/>
				<stop  offset="1" style="stop-color:#73624A"/>
			</linearGradient>
			<path style="fill-rule:evenodd;clip-rule:evenodd;fill:url(#SVGID_7_);" d="M85.75,13.35c9.833,0,19.233,1.9,28.2,5.7
				c8.666,3.667,16.333,8.833,23,15.5c6.666,6.667,11.833,14.333,15.5,23c3.8,8.967,5.7,18.367,5.7,28.2s-1.9,19.233-5.7,28.2
				c-3.667,8.667-8.834,16.35-15.5,23.05c-6.667,6.667-14.334,11.833-23,15.5c-8.967,3.8-18.367,5.7-28.2,5.7
				c-9.833,0-19.233-1.9-28.2-5.7c-8.667-3.667-16.333-8.833-23-15.5c-6.667-6.7-11.833-14.383-15.5-23.05
				c-3.8-8.967-5.7-18.367-5.7-28.2s1.9-19.233,5.7-28.2c3.667-8.667,8.833-16.333,15.5-23c6.667-6.667,14.333-11.833,23-15.5
				C66.517,15.25,75.917,13.35,85.75,13.35z"/>
		</g>
	</g>
</g>
<g>
	<g>
		
			<linearGradient id="SVGID_8_" gradientUnits="userSpaceOnUse" x1="-152.0356" y1="85.7759" x2="-19.6855" y2="85.7759" gradientTransform="matrix(7.555724e-006 -1 1 -0.001 2.190953e-004 4.449275e-004)">
			<stop  offset="0.0745" style="stop-color:#6C9726"/>
			<stop  offset="0.2196" style="stop-color:#82B13A"/>
			<stop  offset="0.3686" style="stop-color:#9DCF52"/>
			<stop  offset="0.5882" style="stop-color:#CEE03A"/>
			<stop  offset="0.8118" style="stop-color:#D4E237"/>
			<stop  offset="1" style="stop-color:#FDEEB0"/>
		</linearGradient>
		<path style="fill-rule:evenodd;clip-rule:evenodd;fill:url(#SVGID_8_);" d="M85.75,19.6c18.267,0,33.866,6.466,46.8,19.4
			s19.4,28.517,19.4,46.75c0,18.267-6.467,33.867-19.4,46.8c-12.934,12.934-28.533,19.4-46.8,19.4
			c-18.233,0-33.817-6.467-46.75-19.4c-12.933-12.933-19.4-28.533-19.4-46.8C19.6,67.517,26.067,51.934,39,39
			S67.517,19.6,85.75,19.6z"/>
		<path style="fill-rule:evenodd;clip-rule:evenodd;fill:#22480E;" d="M85.75,20.4c-18.033,0-33.433,6.383-46.2,19.15
			C26.783,52.316,20.4,67.717,20.4,85.75c0,18.066,6.383,33.467,19.15,46.2c12.767,12.767,28.167,19.149,46.2,19.149
			c18.066,0,33.467-6.383,46.2-19.149c12.767-12.733,19.149-28.134,19.149-46.2c0-18.033-6.383-33.434-19.149-46.2
			C119.217,26.783,103.816,20.4,85.75,20.4z M60.1,23.85c8.167-3.4,16.717-5.1,25.65-5.1c8.934,0,17.483,1.7,25.65,5.1
			c8.166,3.367,15.416,8.216,21.75,14.55c6.333,6.333,11.183,13.567,14.55,21.7c3.366,8.133,5.05,16.683,5.05,25.65
			s-1.684,17.517-5.05,25.65c-3.367,8.166-8.217,15.416-14.55,21.75c-6.334,6.333-13.584,11.183-21.75,14.55
			c-8.134,3.366-16.684,5.05-25.65,5.05s-17.517-1.684-25.65-5.05c-8.133-3.367-15.367-8.217-21.7-14.55
			c-6.333-6.301-11.2-13.551-14.6-21.75c-3.367-8.134-5.05-16.684-5.05-25.65s1.683-17.517,5.05-25.65
			c3.4-8.133,8.267-15.367,14.6-21.7C44.733,32.066,51.967,27.217,60.1,23.85z"/>
	</g>
	
		<radialGradient id="SVGID_9_" cx="85.75" cy="85.7749" r="59.3875" gradientTransform="matrix(1 0 0 -1 0 171.5498)" gradientUnits="userSpaceOnUse">
		<stop  offset="0" style="stop-color:#FDEEB0"/>
		<stop  offset="0.1882" style="stop-color:#D4E237"/>
		<stop  offset="0.5137" style="stop-color:#CEE03A"/>
		<stop  offset="1" style="stop-color:#A0D051;stop-opacity:0.5373"/>
	</radialGradient>
	<path style="fill-rule:evenodd;clip-rule:evenodd;fill:url(#SVGID_9_);" d="M127.8,43.8c11.601,11.6,17.4,25.583,17.4,41.95
		c0,16.4-5.8,30.4-17.4,42c-11.6,11.566-25.616,17.35-42.05,17.35c-16.4,0-30.4-5.783-42-17.35c-11.633-11.6-17.45-25.6-17.45-42
		c0-16.367,5.817-30.35,17.45-41.95c11.6-11.566,25.6-17.35,42-17.35C102.184,26.45,116.2,32.233,127.8,43.8z"/>
	<g>
		<g>
			<path style="fill-rule:evenodd;clip-rule:evenodd;fill:#EFF4D9;" d="M63.1,43.75c-0.733,0-1.333-0.25-1.8-0.75
				c-0.4-0.434-0.6-0.983-0.6-1.65c0-2.034,0.783-3.8,2.35-5.3c1.534-1.466,3.333-2.2,5.4-2.2c2.066,0,3.8,0.617,5.2,1.85
				c1.434,1.267,2.15,2.933,2.15,5c0,1.933-0.966,4.183-2.9,6.75c-1.1,1.433-2.783,3.417-5.05,5.95h6.05c1.733,0,2.6,0.717,2.6,2.15
				c0,0.733-0.25,1.3-0.75,1.7c-0.433,0.333-0.983,0.5-1.65,0.5h-11c-1.733,0-2.6-0.733-2.6-2.2c0-0.5,0.25-1.05,0.75-1.65l4.2-4.8
				c1.667-1.933,3.017-3.633,4.05-5.1c0.767-1.2,1.15-2.217,1.15-3.05c0-0.7-0.233-1.3-0.7-1.8c-0.467-0.5-1.034-0.75-1.7-0.75
				c-1.3,0-2.233,0.9-2.8,2.7C64.917,42.867,64.133,43.75,63.1,43.75z"/>
			
				<linearGradient id="SVGID_10_" gradientUnits="userSpaceOnUse" x1="-56.8228" y1="68.5029" x2="-32.9478" y2="68.5029" gradientTransform="matrix(4.188482e-005 -1 1 -0.001 2.047477e-004 4.449275e-004)">
				<stop  offset="0.149" style="stop-color:#0E2904"/>
				<stop  offset="0.302" style="stop-color:#143004"/>
				<stop  offset="0.5176" style="stop-color:#244304"/>
				<stop  offset="0.7765" style="stop-color:#3E6206"/>
				<stop  offset="0.9686" style="stop-color:#567E09"/>
			</linearGradient>
			<path style="fill-rule:evenodd;clip-rule:evenodd;fill:url(#SVGID_10_);" d="M63.1,42.75c-0.733,0-1.333-0.25-1.8-0.75
				c-0.4-0.434-0.6-0.983-0.6-1.65c0-2.034,0.783-3.8,2.35-5.3c1.534-1.466,3.333-2.2,5.4-2.2c2.066,0,3.8,0.617,5.2,1.85
				c1.434,1.267,2.15,2.933,2.15,5c0,1.933-0.966,4.183-2.9,6.75c-1.1,1.433-2.783,3.417-5.05,5.95h6.05c1.733,0,2.6,0.717,2.6,2.15
				c0,0.733-0.25,1.3-0.75,1.7c-0.433,0.333-0.983,0.5-1.65,0.5h-11c-1.733,0-2.6-0.733-2.6-2.2c0-0.5,0.25-1.05,0.75-1.65l4.2-4.8
				c1.667-1.933,3.017-3.633,4.05-5.1c0.767-1.2,1.15-2.217,1.15-3.05c0-0.7-0.233-1.3-0.7-1.8c-0.467-0.5-1.034-0.75-1.7-0.75
				c-1.3,0-2.233,0.9-2.8,2.7C64.917,41.867,64.133,42.75,63.1,42.75z"/>
		</g>
		<g>
			<path style="fill-rule:evenodd;clip-rule:evenodd;fill:#EFF4D9;" d="M96.25,39.2c0-1.3,0.733-2.517,2.2-3.65
				c1.5-1.133,3.166-1.7,5-1.7c2.2,0,3.967,0.683,5.3,2.05c1.134,1.167,1.7,2.5,1.7,4c0,2.233-0.9,3.917-2.7,5.05
				c1.233,0.533,2.217,1.316,2.95,2.35c0.733,1.1,1.1,2.284,1.1,3.55c0,2-0.8,3.716-2.399,5.15c-1.634,1.434-3.617,2.15-5.95,2.15
				c-2.267,0-4.184-0.7-5.75-2.1c-1.434-1.3-2.15-2.667-2.15-4.1c0-0.634,0.283-1.167,0.851-1.6c0.5-0.433,1.066-0.65,1.699-0.65
				c0.634,0,1.351,0.65,2.15,1.95c0.833,1.3,1.934,1.95,3.3,1.95c0.867,0,1.601-0.3,2.2-0.9c0.6-0.6,0.9-1.333,0.9-2.2
				c0-1.6-0.934-2.533-2.801-2.8c-1.899-0.3-2.85-1.067-2.85-2.3c0-1.133,0.783-1.9,2.35-2.3c1.567-0.433,2.351-1.267,2.351-2.5
				c0-0.633-0.217-1.15-0.65-1.55c-0.434-0.433-1-0.65-1.7-0.65c-1.133,0-2.066,0.55-2.8,1.65c-0.767,1.067-1.483,1.6-2.149,1.6
				c-0.634,0-1.167-0.25-1.601-0.75C96.434,40.4,96.25,39.833,96.25,39.2z"/>
			
				<linearGradient id="SVGID_11_" gradientUnits="userSpaceOnUse" x1="-57.2529" y1="103.6777" x2="-32.9779" y2="103.6777" gradientTransform="matrix(4.119465e-005 -1 1 -0.001 -9.129937e-006 -4.747650e-005)">
				<stop  offset="0.149" style="stop-color:#0E2904"/>
				<stop  offset="0.302" style="stop-color:#143004"/>
				<stop  offset="0.5176" style="stop-color:#244304"/>
				<stop  offset="0.7765" style="stop-color:#3E6206"/>
				<stop  offset="0.9686" style="stop-color:#567E09"/>
			</linearGradient>
			<path style="fill-rule:evenodd;clip-rule:evenodd;fill:url(#SVGID_11_);" d="M96.25,38.2c0-1.3,0.733-2.517,2.2-3.65
				c1.5-1.133,3.166-1.7,5-1.7c2.2,0,3.967,0.683,5.3,2.05c1.134,1.167,1.7,2.5,1.7,4c0,2.233-0.9,3.917-2.7,5.05
				c1.233,0.533,2.217,1.316,2.95,2.35c0.733,1.1,1.1,2.284,1.1,3.55c0,2-0.8,3.716-2.399,5.15c-1.634,1.434-3.617,2.15-5.95,2.15
				c-2.267,0-4.184-0.7-5.75-2.1c-1.434-1.3-2.15-2.667-2.15-4.1c0-0.634,0.283-1.167,0.851-1.6c0.5-0.433,1.066-0.65,1.699-0.65
				c0.634,0,1.351,0.65,2.15,1.95c0.833,1.3,1.934,1.95,3.3,1.95c0.867,0,1.601-0.3,2.2-0.9c0.6-0.6,0.9-1.333,0.9-2.2
				c0-1.6-0.934-2.533-2.801-2.8c-1.899-0.3-2.85-1.067-2.85-2.3c0-1.133,0.783-1.9,2.35-2.3c1.567-0.433,2.351-1.267,2.351-2.5
				c0-0.633-0.217-1.15-0.65-1.55c-0.434-0.433-1-0.65-1.7-0.65c-1.133,0-2.066,0.55-2.8,1.65c-0.767,1.067-1.483,1.6-2.149,1.6
				c-0.634,0-1.167-0.25-1.601-0.75C96.434,39.4,96.25,38.833,96.25,38.2z"/>
		</g>
		<g>
			<g>
				<g>
					<path style="fill-rule:evenodd;clip-rule:evenodd;fill:#EFF4D9;" d="M84.7,41.9c1.233-0.233,2.066-0.35,2.5-0.35
						c1.967,0,3.6,0.7,4.899,2.1c1.267,1.333,1.9,2.983,1.9,4.95c0,2.8-0.733,5.017-2.2,6.65c-1.533,1.667-3.7,2.5-6.5,2.5
						c-1.466,0-2.983-0.383-4.55-1.15c-1.833-0.9-2.75-2-2.75-3.3c0-0.6,0.233-1.116,0.7-1.55c0.433-0.467,0.95-0.7,1.55-0.7
						c0.367,0,1.117,0.367,2.25,1.1c1.1,0.7,2.05,1.05,2.85,1.05c1.101,0,1.983-0.467,2.65-1.4c0.566-0.8,0.85-1.783,0.85-2.95
						c0-1-0.267-1.8-0.8-2.4c-0.566-0.6-1.35-0.9-2.35-0.9c-0.634,0-1.3,0.184-2,0.55c-0.7,0.333-1.333,0.5-1.9,0.5
						c-0.6,0-1.083-0.183-1.45-0.55c-0.333-0.3-0.5-0.633-0.5-1L80.8,37c0.167-1.267,0.45-2.117,0.85-2.55
						c0.333-0.4,0.9-0.6,1.7-0.6h7.95c0.767,0,1.367,0.2,1.8,0.6c0.434,0.366,0.65,0.85,0.65,1.45c0,1.667-0.783,2.5-2.35,2.5h-6.2
						L84.7,41.9z"/>
				</g>
				<g>
					
						<linearGradient id="SVGID_12_" gradientUnits="userSpaceOnUse" x1="-56.834" y1="86.0029" x2="-32.959" y2="86.0029" gradientTransform="matrix(4.188482e-005 -1 1 -0.001 2.047477e-004 4.449275e-004)">
						<stop  offset="0.149" style="stop-color:#0E2904"/>
						<stop  offset="0.302" style="stop-color:#143004"/>
						<stop  offset="0.5176" style="stop-color:#244304"/>
						<stop  offset="0.7765" style="stop-color:#3E6206"/>
						<stop  offset="0.9686" style="stop-color:#567E09"/>
					</linearGradient>
					<path style="fill-rule:evenodd;clip-rule:evenodd;fill:url(#SVGID_12_);" d="M80.8,36c0.167-1.267,0.45-2.117,0.85-2.55
						c0.333-0.4,0.9-0.6,1.7-0.6h7.95c0.767,0,1.367,0.2,1.8,0.6c0.434,0.366,0.65,0.85,0.65,1.45c0,1.667-0.783,2.5-2.35,2.5h-6.2
						l-0.5,3.5c1.233-0.233,2.066-0.35,2.5-0.35c1.967,0,3.6,0.7,4.899,2.1c1.267,1.333,1.9,2.983,1.9,4.95
						c0,2.8-0.733,5.017-2.2,6.65c-1.533,1.667-3.7,2.5-6.5,2.5c-1.466,0-2.983-0.383-4.55-1.15c-1.833-0.9-2.75-2-2.75-3.3
						c0-0.6,0.233-1.116,0.7-1.55c0.433-0.467,0.95-0.7,1.55-0.7c0.367,0,1.117,0.367,2.25,1.1c1.1,0.7,2.05,1.05,2.85,1.05
						c1.101,0,1.983-0.467,2.65-1.4c0.566-0.8,0.85-1.783,0.85-2.95c0-1-0.267-1.8-0.8-2.4c-0.566-0.6-1.35-0.9-2.35-0.9
						c-0.634,0-1.3,0.184-2,0.55c-0.7,0.333-1.333,0.5-1.9,0.5c-0.6,0-1.083-0.183-1.45-0.55c-0.333-0.3-0.5-0.633-0.5-1L80.8,36z"
						/>
				</g>
			</g>
		</g>
	</g>
	<g>
		
			<linearGradient id="SVGID_13_" gradientUnits="userSpaceOnUse" x1="-138.6074" y1="82.4141" x2="-68.3574" y2="82.4141" gradientTransform="matrix(1.423488e-005 -1 1 -0.001 1.677671e-004 4.449275e-004)">
			<stop  offset="0.0745" style="stop-color:#6B9724"/>
			<stop  offset="0.2588" style="stop-color:#82B139"/>
			<stop  offset="0.4471" style="stop-color:#9DCF52"/>
			<stop  offset="0.9647" style="stop-color:#DAE772"/>
		</linearGradient>
		<path style="fill-rule:evenodd;clip-rule:evenodd;fill:url(#SVGID_13_);" d="M73.1,85.35l0.4-1.45l0.35-0.75l0.15-0.2l0.55-0.9
			c-3,0.567-5.933,1.65-8.8,3.25l18.95,17.2c0.366-1.467,0.934-2.967,1.7-4.5l-0.15-0.1l-0.2-0.051l-2.65-1.1l-4.4-2.4l-2.4-1.85
			l-1.1-1.1c-0.467-0.533-0.733-0.867-0.8-1L74.6,90.3l-0.9-1.5l-0.1-0.3C73.167,87.467,73,86.417,73.1,85.35z M110.75,67.1h0.05
			l2.851,2.3c1.8,1.633,3.566,3.6,5.3,5.9l0.05,0.1l0.1,0.15c2.034,2.7,3.9,5.667,5.601,8.9v0.05l1.3,2.75l0.05,0.15l1.15,2.949
			v0.101l0.1,0.25l0.101,0.5l0.05,0.149l0.05,0.25l0.05,0.5l0.05,0.2l-0.05,1.25c-0.399,2.233-1.883,4.134-4.45,5.7
			c-3.033,1.867-7.166,2.867-12.399,3l0.2,1.15c0.399,2.232,0.183,4.333-0.65,6.3c0.066,0.566,0.167,1,0.3,1.3
			c0.167,0.367,0.566,0.967,1.2,1.8c1.733,2.2,2.85,4.867,3.35,8c0.567,3.333,0.217,6.117-1.05,8.351
			c-1.2,2.066-2.649,3.666-4.35,4.8c-1.667,1.167-3.417,1.75-5.25,1.75c-0.8,0-1.5-0.083-2.101-0.25l-0.649-0.2
			c-0.167,0.667-0.517,1.2-1.05,1.6c-0.534,0.434-1.15,0.65-1.851,0.65s-1.316-0.217-1.85-0.65c-0.367-0.267-0.783-0.699-1.25-1.3
			c-0.7-0.933-1.267-2.033-1.7-3.3c-0.267-0.5-0.434-1.133-0.5-1.9l-0.1-0.699L93,129.3c0.066,2.467-0.033,4.3-0.3,5.5
			c-0.367,1.5-1.2,3.067-2.5,4.7c-1.167,1.467-3.084,2.2-5.75,2.2l-1-0.05c-0.733-0.067-1.367-0.367-1.9-0.9
			c-0.533-0.533-0.833-1.167-0.9-1.9c-0.033-0.767,0.167-1.433,0.6-2c0.433-0.6,1-0.967,1.7-1.1c0.2-0.066,0.35-0.15,0.45-0.25
			c-2.267-0.267-4.383-2.083-6.35-5.45c-2.267-3.767-1.833-9.05,1.3-15.85c-6.067-6.533-13-14.117-20.8-22.75
			c-3.767,3.767-6.566,8.7-8.4,14.8c-0.933,3.1-1.5,5.833-1.7,8.2c-0.067,0.967-0.5,1.717-1.3,2.25l-0.05,0.05
			c-0.233,0.2-0.45,0.316-0.65,0.35l-2.1,1.15c-0.467,0.233-1,0.35-1.6,0.35l-1.4-0.1c-0.667-0.033-1.233-0.267-1.7-0.7
			c-0.533-0.433-0.867-0.967-1-1.6c-0.4-1.767-0.517-4.05-0.35-6.851c0.367-5.5,1.967-11.199,4.8-17.1c1.733-3.566,3.7-6.6,5.9-9.1
			c-0.633-0.933-1.017-1.95-1.15-3.05c-0.033-0.433-0.033-0.9,0-1.4l0.25-1.4l0.1-0.2c0.433-1.233,1.15-2.267,2.15-3.1
			c1.033-0.8,2.2-1.283,3.5-1.45c1.233-0.133,2.417,0.05,3.55,0.55s2.05,1.233,2.75,2.2l3.65-1.45c0.7-0.534,1.1-0.983,1.2-1.35
			c-0.1-0.667,0.017-1.3,0.35-1.9c0.333-0.6,0.816-1.034,1.45-1.3l3.15-1.3L69,67.95c0.6-0.3,1.217-0.4,1.85-0.3
			c0.467,0.133,0.833,0.267,1.1,0.4l0.25,0.15c1.8,1.3,3.183,2.483,4.15,3.55c1.467,1.7,2.4,3.434,2.8,5.2
			C82.05,74.316,85.1,72,88.3,70c5.667-3.6,10.584-5.417,14.75-5.45h0.101c0.699,0,1.199,0.034,1.5,0.1h0.05l0.399,0.05
			C106.967,65,108.85,65.8,110.75,67.1z"/>
		<path style="fill-rule:evenodd;clip-rule:evenodd;fill:none;stroke:#ECF8BD;stroke-width:0.25;" d="M110.75,67.1
			c-1.9-1.3-3.783-2.1-5.65-2.4l-0.399-0.05h-0.05c-0.301-0.066-0.801-0.1-1.5-0.1h-0.101C98.884,64.583,93.967,66.4,88.3,70
			c-3.2,2-6.25,4.316-9.15,6.95c-0.4-1.767-1.333-3.5-2.8-5.2C75.383,70.684,74,69.5,72.2,68.2l-0.25-0.15
			c-0.267-0.133-0.633-0.267-1.1-0.4c-0.633-0.1-1.25,0-1.85,0.3L68.95,68l-3.15,1.3c-0.633,0.267-1.117,0.7-1.45,1.3
			c-0.333,0.6-0.45,1.233-0.35,1.9c-0.1,0.367-0.5,0.816-1.2,1.35l-3.65,1.45c-0.7-0.966-1.617-1.7-2.75-2.2s-2.316-0.683-3.55-0.55
			c-1.3,0.167-2.467,0.65-3.5,1.45c-1,0.833-1.717,1.867-2.15,3.1l-0.1,0.2l-0.25,1.4c-0.033,0.5-0.033,0.967,0,1.4
			c0.133,1.1,0.517,2.117,1.15,3.05c-2.2,2.5-4.167,5.534-5.9,9.1c-2.833,5.9-4.434,11.6-4.8,17.1
			c-0.167,2.801-0.05,5.084,0.35,6.851c0.133,0.633,0.467,1.167,1,1.6c0.467,0.434,1.033,0.667,1.7,0.7l1.4,0.1
			c0.6,0,1.133-0.116,1.6-0.35l2.1-1.15c0.2-0.033,0.417-0.149,0.65-0.35l0.05-0.05c0.8-0.533,1.233-1.283,1.3-2.25
			c0.2-2.367,0.767-5.101,1.7-8.2c1.833-6.1,4.633-11.033,8.4-14.8c7.8,8.633,14.733,16.217,20.8,22.75
			c-3.133,6.8-3.567,12.083-1.3,15.85c1.967,3.367,4.083,5.184,6.35,5.45c-0.1,0.1-0.25,0.184-0.45,0.25
			c-0.7,0.133-1.267,0.5-1.7,1.1c-0.433,0.567-0.633,1.233-0.6,2c0.067,0.733,0.367,1.367,0.9,1.9c0.534,0.533,1.167,0.833,1.9,0.9
			l1,0.05c2.666,0,4.583-0.733,5.75-2.2c1.3-1.633,2.133-3.2,2.5-4.7c0.267-1.2,0.366-3.033,0.3-5.5l0.4,0.351l0.1,0.699
			c0.066,0.768,0.233,1.4,0.5,1.9c0.434,1.267,1,2.367,1.7,3.3c0.467,0.601,0.883,1.033,1.25,1.3c0.533,0.434,1.149,0.65,1.85,0.65
			s1.316-0.217,1.851-0.65c0.533-0.399,0.883-0.933,1.05-1.6l0.649,0.2c0.601,0.167,1.301,0.25,2.101,0.25
			c1.833,0,3.583-0.583,5.25-1.75c1.7-1.134,3.149-2.733,4.35-4.8c1.267-2.233,1.617-5.018,1.05-8.351c-0.5-3.133-1.616-5.8-3.35-8
			c-0.634-0.833-1.033-1.433-1.2-1.8c-0.133-0.3-0.233-0.733-0.3-1.3c0.833-1.967,1.05-4.067,0.65-6.3l-0.2-1.15
			c5.233-0.133,9.366-1.133,12.399-3c2.567-1.566,4.051-3.467,4.45-5.7l0.05-1.25l-0.05-0.2l-0.05-0.5l-0.05-0.25L127.4,91.2
			l-0.101-0.5l-0.1-0.25V90.35l-1.15-2.949L126,87.25l-1.3-2.75v-0.05c-1.7-3.233-3.566-6.2-5.601-8.9L119,75.4l-0.05-0.1
			c-1.733-2.3-3.5-4.267-5.3-5.9l-2.851-2.3H110.75z M73.1,85.35c-0.1,1.067,0.066,2.117,0.5,3.15l0.1,0.3l0.9,1.5l0.1,0.101
			c0.066,0.133,0.333,0.467,0.8,1l1.1,1.1l2.4,1.85l4.4,2.4l2.65,1.1l0.2,0.051L86.4,98c-0.767,1.533-1.334,3.033-1.7,4.5
			L65.75,85.3c2.867-1.6,5.8-2.683,8.8-3.25L74,82.95l-0.15,0.2L73.5,83.9L73.1,85.35z"/>
		<path style="fill-rule:evenodd;clip-rule:evenodd;fill:#22480E;" d="M103.15,68.3c-3.434,0-7.7,1.6-12.801,4.8L90.2,73.3H90.1
			c-4.633,2.934-8.35,6.017-11.149,9.25c-0.767,0.8-1.333,1.55-1.7,2.25l-0.05,0.1l-0.25,0.4l-0.75-0.1l0.75,0.25l-0.1,0.3
			c-0.033,0.467,0.066,0.967,0.3,1.5l0.3,0.6l0.8,1.051l0.1,0.1l1.15,1.05l3.6,2.351l3.8,1.75L91.1,95.6l0.101,0.9l0.1,0.25
			L91.15,97l-0.2,0.45c-1.9,3.433-2.851,6-2.851,7.7v0.199l-0.1,0.2l-2.05,3.101l-0.65-0.601c-2.133-1.899-9.867-8.899-23.2-21
			l-2.5-2.3l1.45-1c2.867-1.934,5.833-3.4,8.9-4.4c1.966-0.633,3.783-1.034,5.45-1.2V78.1l0.15-0.05
			c-0.267-1.267-0.95-2.55-2.05-3.85c-0.833-0.967-1.9-1.884-3.2-2.75l-2.55,1.1c0,1.667-1.033,3.184-3.1,4.55l-0.15,0.1
			c-3.1,1.233-5.333,2.217-6.7,2.95l-1.15,0.65l0.05-1.85l-0.1-0.5c-0.233-0.7-0.65-1.267-1.25-1.7c-0.633-0.4-1.317-0.566-2.05-0.5
			c-1.3,0.167-2.167,0.883-2.6,2.15v0.1l-0.1,0.45v0.15c-0.033,0.167-0.033,0.367,0,0.6c0.066,0.6,0.3,1.133,0.7,1.6
			c0.367,0.467,0.833,0.784,1.4,0.95l1.3,0.4l-1,0.9c-2.867,2.5-5.367,5.934-7.5,10.3c-2.267,4.768-3.683,9.384-4.25,13.851
			c-0.333,2.667-0.35,5.033-0.05,7.1h0.55l2-1.05c0.333-3.3,1.1-6.7,2.3-10.2c2.1-6.2,5.2-11.267,9.3-15.2
			c0.667-0.666,1.316-1.25,1.95-1.75l0.55-0.449l0.45,0.55c15.333,16.8,23.4,25.616,24.2,26.45l0.35,0.35L82.6,114
			c-1.3,2.533-2.217,4.85-2.75,6.95c-0.733,3.066-0.6,5.467,0.4,7.2c0.767,1.232,1.483,2.166,2.15,2.8
			c-0.7-1.9-0.767-4.217-0.2-6.95c0.267-1.3,0.716-2.65,1.35-4.05l1.7-3.75l-0.3,4.1c-0.034,0.867-0.034,1.65,0,2.351
			c0.066,1.633,0.583,3.699,1.55,6.199c0.767,2.101,1.184,3.65,1.25,4.65c0.1,1.667-0.316,3.05-1.25,4.15
			c0.366-0.167,0.616-0.334,0.75-0.5c1-1.233,1.616-2.367,1.85-3.4c0.167-0.867,0.217-2.533,0.15-5l-0.05-0.7
			c-0.066-2.566-0.033-4.316,0.1-5.25l0.15-0.899l0.85,0.3l0.55,0.1l1.551,1.4l-0.65,0.1l0.35,0.101h0.25l0.15,0.199
			c0.366,0.367,0.684,0.567,0.95,0.601l0.25,0.05l0.149,0.15c1.301,1.3,2.267,2.199,2.9,2.699l0.25,0.2v0.351
			c0.066,0.767,0.15,1.35,0.25,1.75v0.199l0.1,0.5L97.3,128.2l0.9,0.25c0.366,0.1,0.684,0.133,0.95,0.1l0.5-0.05l0.25,0.45
			c0.767,1.533,1.899,2.5,3.399,2.899c1.3,0.334,2.634,0.084,4-0.75c1.334-0.833,2.5-2.1,3.5-3.8c0.867-1.5,1.066-3.55,0.601-6.149
			c-0.467-2.434-1.334-4.434-2.601-6c-0.899-1.167-1.517-2.15-1.85-2.95c-0.2-0.533-0.351-1.283-0.45-2.25l-0.05-0.75l-0.05-0.25
			l0.149-0.2c0.733-1.333,0.95-2.9,0.65-4.7c-0.233-1.433-0.434-3.033-0.601-4.8l-0.05-0.85l0.851,0.05
			c5.1,0.233,9.216-0.317,12.35-1.65c2.5-1.1,3.866-2.399,4.1-3.899V92.55l-0.05-0.25l0.7-0.3l-0.7,0.2l0.7-0.3l-0.75,0.149
			l-0.1-0.35l-0.051-0.3l-0.949-2.5l0.6-0.4l-0.65,0.3l-1.25-2.55c-1.433-2.867-3.166-5.667-5.199-8.4l-0.15-0.2
			c-1.667-2.267-3.267-4.083-4.8-5.45l-1.15-1l-1.35-1c-1.5-1-2.9-1.6-4.2-1.8l-0.3-0.05C103.967,68.316,103.616,68.3,103.15,68.3z
			 M104.5,66.85l0.25,0.05c1.5,0.233,3.083,0.917,4.75,2.05l2.65,2.1c1.6,1.467,3.216,3.267,4.85,5.4l0.2,0.3
			c1.967,2.566,3.8,5.483,5.5,8.75l1.649,3.6l0.75,2.15l0.25,1.15v0.75c-0.3,1.666-1.533,3.133-3.699,4.399
			c-2.9,1.634-6.9,2.45-12,2.45h-1.5c0.199,1.733,0.383,3,0.55,3.8c0.366,2.033,0.116,3.851-0.75,5.45l0.05,0.6
			c0.066,0.768,0.184,1.367,0.35,1.801c0.267,0.633,0.817,1.482,1.65,2.55c1.434,1.833,2.384,4.116,2.85,6.85
			c0.5,2.9,0.25,5.233-0.75,7c-1.133,2-2.533,3.483-4.199,4.45c-1.667,0.934-3.334,1.2-5,0.8c-1.7-0.433-3.067-1.483-4.101-3.149
			L99.9,136.3l-1.551-1.2c-0.966-0.767-1.733-2-2.3-3.699c-0.2-0.4-0.3-0.834-0.3-1.301l-0.2-1.55c-0.633-0.5-1.5-1.3-2.6-2.399
			c-0.367-0.101-0.8-0.367-1.3-0.801c-0.367-0.1-0.7-0.232-1-0.399l0.1,3.75c0.066,2.633,0,4.433-0.2,5.399
			c-0.267,1.233-0.983,2.567-2.149,4c-0.7,0.9-2.017,1.351-3.95,1.351l-4.9-0.45l4-1.05c0.534-0.167,1.017-0.467,1.45-0.9
			c0.934-0.833,1.35-2,1.25-3.5c-0.066-0.866-0.45-2.25-1.15-4.149c-0.766-2.067-1.25-3.7-1.45-4.9
			c-0.467,2.267-0.433,4.184,0.1,5.75c0.267,0.8,0.583,1.367,0.95,1.7l1,0.85l-1.25,0.4l-0.5,0.1c-1.6,0-3.267-1.467-5-4.399
			c-1.967-3.367-1.267-8.417,2.1-15.15c-4.267-4.566-12.05-13.066-23.35-25.5l-1.3,1.15c-4.2,4.033-7.316,9.366-9.35,16
			c-1.033,3.333-1.65,6.3-1.85,8.899v0.4l-0.15,0.1L45,115.25l-0.6-0.15l-2.3,1.25l-2.15-0.149l-0.1-0.55
			c-0.367-1.634-0.467-3.75-0.3-6.351c0.4-5.133,1.934-10.5,4.6-16.1c2-4.167,4.333-7.517,7-10.05c-1.2-0.833-1.883-1.933-2.05-3.3
			c-0.067-0.3-0.067-0.617,0-0.95v-0.15L49.3,78v-0.1c0.267-0.833,0.75-1.533,1.45-2.1c0.7-0.566,1.483-0.9,2.35-1
			c1.1-0.133,2.117,0.1,3.05,0.7c0.934,0.633,1.55,1.467,1.85,2.5l0.1,0.3c1.267-0.633,3.2-1.45,5.8-2.45
			c1.133-0.8,1.867-1.633,2.2-2.5c0.1-0.7,0.15-1.067,0.15-1.1l-0.15-0.6l3.5-1.5V69.3l0.85,0.5l0.6-0.25l0.05,0.65
			c1.5,1.033,2.683,2.05,3.55,3.05c1.1,1.267,1.85,2.55,2.25,3.85c0.2,0.667,0.283,1.216,0.25,1.65L77.1,79.4h-0.2v0.15l-0.7,0.05
			c-1.1,0.033-2.517,0.283-4.25,0.75c-3.434,0.9-6.75,2.417-9.95,4.55l23.65,21.45L86.6,104.9c0.067-1.9,1.084-4.634,3.051-8.2
			L89.1,96.55l-2.05-0.75l-0.2-0.05l-4.25-1.9L82.4,93.7l-1.45-0.8l-2.4-1.7l-1.4-1.3L76.5,89.1l-0.75-1.25l-0.2-0.449h0.05
			c-0.233-0.567-0.317-1.167-0.25-1.8l0.15-0.65l0.05-0.15l0.4-0.75c0.466-0.8,1.083-1.633,1.85-2.5
			c3.067-3.466,6.967-6.683,11.7-9.65l0.15-0.1c5.366-3.333,9.833-5,13.399-5L104.5,66.85z M96.85,112.15l0.051,0.55
			c0.066,0.3,0.166,1.3,0.3,3l0.1,2.05l-1.399-1.5c-0.067-0.066-0.15-0.1-0.25-0.1L95.6,116.05l-1-0.1v-0.55
			c-0.066-0.434-0.233-0.65-0.5-0.65H93.95l-0.851,0.2l-0.05-1.05l-0.2-0.5l-0.35-0.45l1.3-1.5l0.45,0.149
			c0.634,0.2,1.316,0.351,2.05,0.45L96.85,112.15z M95.5,113.45l-1.1-0.25l0.05,0.1c0.434,0.067,0.8,0.267,1.1,0.601L95.5,113.45z
			 M102.8,116.8c-0.3,1.767-0.7,3.2-1.2,4.3l0.25,0.25H102c0.9,0,1.767,0.283,2.6,0.851c0.601-1.767,0.301-3.25-0.899-4.45
			L102.8,116.8z M104.75,116.7c1.1,1.1,1.634,2.417,1.6,3.95c0,1.166-0.267,2.199-0.8,3.1l-0.5,0.85L104.4,123.9
			c-0.867-0.834-1.784-1.167-2.75-1l-0.4,0.05l-0.3-0.3l-0.8-0.95l-0.4-0.351l0.35-0.699c0.667-1.167,1.15-3.067,1.45-5.7l0.25-1.8
			l1.101,1.399C103.3,115.083,103.917,115.8,104.75,116.7z"/>
		<g>
			<path style="fill-rule:evenodd;clip-rule:evenodd;fill:#3A3D31;" d="M58.1,82.4l13.05,11.85
				c9.167,8.333,14.984,13.566,17.45,15.7c8.801,7.767,13.517,12.417,14.15,13.95c0.634,1.467,0.233,2.883-1.2,4.25
				c-1.467,1.433-2.983,1.633-4.55,0.6c-1.967-1.267-9.517-9.033-22.65-23.3L55.25,84.4L58.1,82.4z"/>
			<path style="fill-rule:evenodd;clip-rule:evenodd;fill:#292B23;" d="M58.1,82.4l4.55,4.1c-0.467,0.533-0.733,1.017-0.8,1.45
				c-0.133,0.566,1.917,3.333,6.15,8.3c4.067,4.8,7.867,8.967,11.4,12.5c3.8,3.833,7.683,7.533,11.65,11.1
				c4.467,3.967,7.134,6.051,8,6.25c2.267,0.467,3.334-0.566,3.2-3.1c0.2,0.3,0.366,0.6,0.5,0.9c0.634,1.467,0.233,2.883-1.2,4.25
				c-1.467,1.433-2.983,1.633-4.55,0.6c-1.967-1.267-9.517-9.033-22.65-23.3L55.25,84.4L58.1,82.4z"/>
			<path style="fill-rule:evenodd;clip-rule:evenodd;fill:#292B23;" d="M85,116.8c0.833,0.033,1.85-0.399,3.05-1.3
				c1.066-0.8,1.9-1.617,2.5-2.45l0.55-0.95l0.45-0.35c0.334-0.1,0.566,0.167,0.7,0.8c0.134,0.7,0.083,1.5-0.15,2.4
				c-0.3,1.267-0.883,2.267-1.75,3c-1.033,0.866-1.883,1.267-2.55,1.2c-0.467-0.067-0.983-0.367-1.55-0.9L85,116.8z"/>
			<path style="fill-rule:evenodd;clip-rule:evenodd;fill:#3A3D31;" d="M85.1,116.95c1.334-0.101,2.617-0.7,3.851-1.8
				c1.133-1.033,1.684-1.967,1.649-2.801l-0.35-0.899l0.9-0.15c0.633,0,1.017,0.317,1.149,0.95c0.101,0.6,0.017,1.283-0.25,2.05
				c-0.366,1-1,1.884-1.899,2.65c-1.034,0.833-2.067,1.3-3.101,1.399c-0.833,0.101-1.399-0.033-1.7-0.399
				c-0.199-0.233-0.3-0.467-0.3-0.7L85.1,116.95z"/>
			<path style="fill-rule:evenodd;clip-rule:evenodd;fill:#7E866B;" d="M91.6,111.6c0.2,0.033,0.334,0.268,0.4,0.7
				c0.066,0.5-0.033,1.067-0.3,1.7c-0.434,1.1-1.117,1.917-2.05,2.45c-0.467,0.267-0.9,0.417-1.301,0.45
				c0.534-0.301,1.317-1.2,2.351-2.7c0.366-0.533,0.583-1.15,0.649-1.851C91.417,111.85,91.5,111.6,91.6,111.6z"/>
			<path style="fill-rule:evenodd;clip-rule:evenodd;fill:#292B23;" d="M92.6,113.6l0.45-0.35c0.334-0.1,0.566,0.15,0.7,0.75
				c0.134,0.733,0.083,1.55-0.15,2.45c-0.3,1.267-0.883,2.267-1.75,3c-1.033,0.866-1.883,1.267-2.55,1.2
				c-0.467-0.067-0.983-0.367-1.55-0.9l-1.25-1.45c0.833,0.033,1.85-0.399,3.05-1.3c1.066-0.8,1.9-1.617,2.5-2.45L92.6,113.6z"/>
			<path style="fill-rule:evenodd;clip-rule:evenodd;fill:#3A3D31;" d="M86.55,118.65c1.367-0.233,2.667-0.9,3.9-2
				c0.866-0.801,1.434-1.733,1.7-2.801l0.1-1.35l0.65,0.05c0.466,0.167,0.767,0.567,0.899,1.2c0.101,0.6,0.017,1.283-0.25,2.05
				c-0.366,1-1,1.884-1.899,2.65c-1.034,0.833-2.067,1.3-3.101,1.399c-0.833,0.101-1.399-0.033-1.7-0.399
				c-0.199-0.233-0.3-0.434-0.3-0.601V118.65z"/>
			<path style="fill-rule:evenodd;clip-rule:evenodd;fill:#7E866B;" d="M93.1,113.1c0.2,0.033,0.334,0.268,0.4,0.7
				c0.066,0.5-0.033,1.067-0.3,1.7c-0.434,1.1-1.117,1.917-2.05,2.45c-0.467,0.267-0.9,0.417-1.301,0.45
				c0.534-0.334,1.317-1.25,2.351-2.75c0.366-0.533,0.583-1.134,0.649-1.801C92.917,113.35,93,113.1,93.1,113.1z"/>
			<path style="fill-rule:evenodd;clip-rule:evenodd;fill:#292B23;" d="M94.05,115.1l0.55-0.35c0.367-0.1,0.601,0.167,0.7,0.8
				c0.101,0.767,0.033,1.617-0.2,2.55c-0.366,1.334-1.017,2.384-1.949,3.15c-1.101,0.867-2,1.267-2.7,1.2
				c-0.467-0.067-1-0.4-1.601-1l-1.3-1.55c0.867,0.066,1.934-0.367,3.2-1.301c1.167-0.8,2.066-1.633,2.7-2.5L94.05,115.1z"/>
			<path style="fill-rule:evenodd;clip-rule:evenodd;fill:#3A3D31;" d="M93.75,114.05l0.7,0.05c0.5,0.134,0.8,0.533,0.899,1.2
				c0.101,0.634,0,1.351-0.3,2.15c-0.434,1.066-1.133,1.983-2.1,2.75c-1.101,0.866-2.184,1.35-3.25,1.45
				c-0.9,0.033-1.5-0.15-1.8-0.551c-0.2-0.232-0.317-0.5-0.351-0.8V119.9c1.467,0.033,2.867-0.518,4.2-1.65
				c0.934-0.8,1.55-1.75,1.85-2.85L93.75,114.05z"/>
			<path style="fill-rule:evenodd;clip-rule:evenodd;fill:#7E866B;" d="M94.65,114.6c0.199,0,0.316,0.233,0.35,0.7
				c0.033,0.533-0.083,1.134-0.35,1.8c-0.467,1.167-1.2,2.018-2.2,2.551c-0.5,0.267-0.95,0.416-1.351,0.449
				c0.567-0.333,1.4-1.283,2.5-2.85c0.4-0.533,0.65-1.167,0.75-1.9C94.417,114.85,94.517,114.6,94.65,114.6z"/>
			<path style="fill-rule:evenodd;clip-rule:evenodd;fill:#292B23;" d="M95.6,116.5l0.5-0.35c0.367-0.101,0.601,0.166,0.7,0.8
				c0.101,0.733,0.033,1.583-0.2,2.55c-0.366,1.333-1.017,2.383-1.949,3.15c-1.101,0.866-2,1.267-2.7,1.199
				c-0.467-0.066-1-0.399-1.601-1l-1.3-1.55c0.867,0.067,1.95-0.366,3.25-1.3c1.134-0.833,2.033-1.667,2.7-2.5L95.6,116.5z"/>
			<path style="fill-rule:evenodd;clip-rule:evenodd;fill:#3A3D31;" d="M95.4,115.45h0.649c0.434,0.167,0.7,0.566,0.8,1.2
				c0.101,0.666,0,1.399-0.3,2.199c-0.434,1.067-1.133,1.983-2.1,2.75c-1.101,0.867-2.184,1.334-3.25,1.4
				c-0.9,0.066-1.5-0.1-1.8-0.5c-0.2-0.233-0.301-0.45-0.301-0.65v-0.199c1.467-0.2,2.851-0.867,4.15-2
				c0.934-0.801,1.566-1.75,1.9-2.851L95.4,115.45z"/>
			<path style="fill-rule:evenodd;clip-rule:evenodd;fill:#7E866B;" d="M96.15,116c0.199,0,0.316,0.233,0.35,0.7
				c0.066,0.533-0.033,1.133-0.3,1.8c-0.467,1.167-1.217,2.017-2.25,2.55c-0.5,0.267-0.95,0.417-1.351,0.45
				c0.567-0.333,1.4-1.283,2.5-2.85c0.4-0.533,0.65-1.167,0.75-1.9C95.95,116.25,96.05,116,96.15,116z"/>
			<path style="fill-rule:evenodd;clip-rule:evenodd;fill:#292B23;" d="M97.6,117.8c0.367-0.133,0.601,0.134,0.7,0.8
				c0.134,0.733,0.066,1.584-0.2,2.551c-0.333,1.333-0.983,2.383-1.949,3.149c-1.101,0.867-2,1.267-2.7,1.2
				c-0.467-0.066-1-0.4-1.601-1l-1.3-1.6c0.867,0.066,1.95-0.351,3.25-1.25c1.134-0.834,2.017-1.667,2.65-2.5l0.6-1L97.6,117.8z"/>
			<path style="fill-rule:evenodd;clip-rule:evenodd;fill:#3A3D31;" d="M96.9,117.05l0.649,0.05c0.434,0.167,0.7,0.567,0.8,1.2
				c0.101,0.634,0,1.351-0.3,2.15c-0.434,1.066-1.133,1.983-2.1,2.75c-1.101,0.899-2.184,1.383-3.25,1.45
				c-0.9,0.066-1.5-0.101-1.8-0.5c-0.2-0.268-0.301-0.483-0.301-0.65v-0.2c1.467-0.233,2.851-0.899,4.15-2
				c0.934-0.8,1.566-1.75,1.9-2.85L96.9,117.05z"/>
			<path style="fill-rule:evenodd;clip-rule:evenodd;fill:#7E866B;" d="M97.65,117.6c0.199,0.033,0.316,0.283,0.35,0.75
				c0.066,0.533-0.033,1.134-0.3,1.801c-0.467,1.166-1.217,2.017-2.25,2.55c-0.5,0.233-0.95,0.366-1.351,0.399
				c0.567-0.3,1.4-1.232,2.5-2.8c0.4-0.566,0.65-1.217,0.75-1.95C97.45,117.85,97.55,117.6,97.65,117.6z"/>
			<path style="fill-rule:evenodd;clip-rule:evenodd;fill:#7E866B;" d="M71.7,97.25c-5.367-5.267-7.617-7.667-6.75-7.2
				c0.633,0.333,8.017,7.184,22.149,20.55c1.301,1.268,1.767,2,1.4,2.2c-0.366,0.233-1.8-0.883-4.3-3.35
				C78.767,104.184,74.6,100.117,71.7,97.25z"/>
			<path style="fill-rule:evenodd;clip-rule:evenodd;fill:#7E866B;" d="M99.4,122.5c0.533-0.133,1.017,0.2,1.449,1
				c0.467,0.833,0.334,1.117-0.399,0.85c-0.7-0.3-1.15-0.649-1.351-1.05C98.866,122.867,98.967,122.6,99.4,122.5z"/>
			<path style="fill-rule:evenodd;clip-rule:evenodd;fill:#3A3D31;" d="M49.85,79.75c-0.133-1.066,0.133-2,0.8-2.8
				c0.667-0.833,1.517-1.3,2.55-1.4c1.066-0.133,2,0.134,2.8,0.8c0.833,0.667,1.317,1.517,1.45,2.55c0.133,1.067-0.133,2-0.8,2.8
				c-0.633,0.833-1.483,1.316-2.55,1.45c-1.067,0.1-2-0.183-2.8-0.85C50.467,81.633,49.983,80.783,49.85,79.75z"/>
			<path style="fill-rule:evenodd;clip-rule:evenodd;fill:#292B23;" d="M57.05,77.65c0.233,0.367,0.367,0.784,0.4,1.25
				c0.133,1.067-0.133,2-0.8,2.8c-0.633,0.833-1.483,1.316-2.55,1.45c-1.067,0.1-2-0.183-2.8-0.85
				c-0.833-0.667-1.316-1.517-1.45-2.55c-0.133-1.066,0.15-2.033,0.85-2.9c-0.233,0.933-0.15,1.733,0.25,2.4
				c0.466,0.8,1.216,1.2,2.25,1.2c1.033,0.033,1.917-0.25,2.65-0.85C56.45,79.066,56.85,78.417,57.05,77.65z"/>
			<path style="fill-rule:evenodd;clip-rule:evenodd;fill:#7E866B;" d="M52.65,77.05c0-0.267,0.133-0.483,0.4-0.65
				c0.3-0.167,0.633-0.233,1-0.2s0.684,0.15,0.95,0.35c0.233,0.2,0.333,0.434,0.3,0.7c-0.033,0.267-0.183,0.5-0.45,0.7
				c-0.267,0.167-0.583,0.233-0.95,0.2C53,78.017,52.583,77.65,52.65,77.05z"/>
			<polygon style="fill-rule:evenodd;clip-rule:evenodd;fill:#7F9184;" points="44.05,111.5 44.45,114.25 41.95,115.6 40.55,115.5 
				41.6,113.65 			"/>
			<linearGradient id="SVGID_14_" gradientUnits="userSpaceOnUse" x1="72.7646" y1="91.0518" x2="38.1646" y2="95.0518">
				<stop  offset="0" style="stop-color:#99AE9E"/>
				<stop  offset="1" style="stop-color:#6E8275"/>
			</linearGradient>
			<path style="fill-rule:evenodd;clip-rule:evenodd;fill:url(#SVGID_14_);" d="M52,90.9c-2.433,3.967-4.05,6.732-4.85,8.3
				c-1.3,2.566-2.283,6.283-2.95,11.149v2.25l-0.95,1.2l-2.7,1.7c-0.333-1.434-0.417-3.434-0.25-6
				c0.367-5.1,1.883-10.417,4.55-15.95c2.733-5.7,6.133-9.866,10.2-12.5c4.233-1.933,6.983-3.267,8.25-4
				c1.8-1.033,2.95-2.167,3.45-3.4l0.2-1.6l3.45-1.45l0.25,3.4l-1.7,3.45l-13.5,8L52,90.9z"/>
			<path style="fill-rule:evenodd;clip-rule:evenodd;fill:#A6B6A8;" d="M64.65,76.35c3.967-1.5,5.8-3.333,5.5-5.5v-0.1l1.2,0.85
				c0.967,0.7,1.8,1.466,2.5,2.3c1.033,1.167,1.717,2.35,2.05,3.55c0.2,0.566,0.283,1.033,0.25,1.4
				c-1.667,0.033-3.783,0.483-6.35,1.35c-5.1,1.733-9.816,4.683-14.15,8.85c-4.333,4.134-7.517,9.601-9.55,16.4
				c-1,3.366-1.583,6.333-1.75,8.899l-1.4-0.399c-0.2-1.634-0.2-3.717,0-6.25c0.367-5.067,1.517-9.817,3.45-14.25
				c2.367-5.4,4.85-9.233,7.45-11.5C55.883,80.184,59.483,78.316,64.65,76.35z"/>
			<linearGradient id="SVGID_15_" gradientUnits="userSpaceOnUse" x1="77.6909" y1="90.1045" x2="40.8856" y2="94.358">
				<stop  offset="0" style="stop-color:#585C4B"/>
				<stop  offset="1" style="stop-color:#6A7964"/>
			</linearGradient>
			<path style="fill-rule:evenodd;clip-rule:evenodd;fill:url(#SVGID_15_);" d="M54.65,82c1.967-1.7,5.35-3.467,10.15-5.3
				c4.067-1.5,5.917-3.5,5.55-6v-0.05l1.2,0.8c0.967,0.7,1.8,1.467,2.5,2.3c1.034,1.167,1.733,2.35,2.1,3.55
				c0.2,0.567,0.283,1.034,0.25,1.4c-1.667,0.033-3.783,0.483-6.35,1.35c-5.1,1.733-9.816,4.684-14.15,8.851
				c-4.333,4.133-7.533,9.6-9.6,16.399c-1.066,3.4-1.683,6.384-1.85,8.95l-1.25-0.45c-0.133-1.6-0.067-3.649,0.2-6.149
				c0.5-5,1.717-9.733,3.65-14.2C49.35,88.15,51.883,84.333,54.65,82z"/>
			<path style="fill-rule:evenodd;clip-rule:evenodd;fill:#A6B6A8;" d="M41.05,115.25l-0.5,0.25c0.034-0.3,0.367-0.684,1-1.15
				c0.4-0.267,0.8-0.433,1.2-0.5c0.2-0.033,0.35-0.05,0.45-0.05L41.05,115.25z"/>
		</g>
		<g>
			
				<use xlink:href="#FlashAICB_x2F_Layer_36_copy_2_x2F__x3C_Compound_Path_x3E_"  width="5.846" height="8.4" y="-8.4" transform="matrix(1 0 0 -1 101.7998 116.9502)" style="overflow:visible;opacity:0.4805;enable-background:new    ;"/>
			<g>
				<linearGradient id="SVGID_16_" gradientUnits="userSpaceOnUse" x1="83.4546" y1="106.873" x2="87.7546" y2="130.773">
					<stop  offset="0" style="stop-color:#1D304A"/>
					<stop  offset="1" style="stop-color:#121317"/>
				</linearGradient>
				<path style="fill-rule:evenodd;clip-rule:evenodd;fill:url(#SVGID_16_);" d="M82.95,124.15c-0.534,2.6-0.483,4.767,0.15,6.5
					c0.3,0.899,0.667,1.517,1.1,1.85c-0.3,0.1-0.717,0.017-1.25-0.25c-1.1-0.533-2.217-1.767-3.35-3.7
					c-1.9-3.267-1.083-8.316,2.45-15.149c0.633-1.134,2-3.268,4.101-6.4l2.949-4.35l0.051,2.85c0.066,1.133,1.066,2.55,3,4.25
					C87.017,114.65,83.95,119.45,82.95,124.15z"/>
				<path style="fill-rule:evenodd;clip-rule:evenodd;fill:#2B6282;" d="M86.2,114.95c-0.467,0.033-0.7-0.233-0.7-0.8
					c0.033-0.634,0.25-1.317,0.65-2.051c0.399-0.767,0.8-1.166,1.199-1.199c0.667-0.101,1,0.3,1,1.199
					c0,0.867-0.25,1.551-0.75,2.051C87.066,114.617,86.6,114.883,86.2,114.95z"/>
				<path style="fill-rule:evenodd;clip-rule:evenodd;fill:#2B6282;" d="M84.3,117.75c0.367,0.066,0.35,0.583-0.05,1.55
					c-0.4,0.934-0.783,1.333-1.15,1.2c-0.333-0.133-0.317-0.633,0.05-1.5S83.9,117.717,84.3,117.75z"/>
				<path style="fill-rule:evenodd;clip-rule:evenodd;fill:#2B6282;" d="M81.8,123c0.467-0.133,0.633,0.333,0.5,1.4
					c-0.133,1.066-0.4,1.5-0.8,1.3c-0.367-0.2-0.5-0.667-0.4-1.4C81.167,123.6,81.4,123.167,81.8,123z"/>
				<path style="fill-rule:evenodd;clip-rule:evenodd;fill:#2B6282;" d="M81.95,128.15c0.367,0.333,0.533,0.767,0.5,1.3
					c-0.034,0.566-0.184,0.8-0.45,0.7c-0.233-0.067-0.35-0.467-0.35-1.2S81.75,127.95,81.95,128.15z"/>
				<path style="fill-rule:evenodd;clip-rule:evenodd;fill:#5AB8C9;" d="M86.45,114.35c-0.4-0.033-0.417-0.416-0.05-1.149
					c0.399-0.733,0.75-1.067,1.05-1c0.467,0.066,0.533,0.45,0.2,1.149C87.316,114.05,86.917,114.383,86.45,114.35z"/>
				<path style="fill-rule:evenodd;clip-rule:evenodd;fill:#5AB8C9;" d="M84.05,118.5c0.133,0.267,0.083,0.55-0.15,0.85
					c-0.233,0.334-0.417,0.45-0.55,0.351c-0.133-0.101-0.067-0.367,0.2-0.8C83.817,118.467,83.983,118.333,84.05,118.5z"/>
				<path style="fill-rule:evenodd;clip-rule:evenodd;fill:#5AB8C9;" d="M81.85,123.65c0.233,0,0.316,0.217,0.25,0.649
					c-0.067,0.434-0.167,0.667-0.3,0.7s-0.2-0.184-0.2-0.65C81.633,123.883,81.717,123.65,81.85,123.65z"/>
				<path style="fill-rule:evenodd;clip-rule:evenodd;fill:#5AB8C9;" d="M82,128.55c0.133,0.033,0.233,0.184,0.3,0.45
					c0.034,0.233,0,0.417-0.1,0.55c-0.1,0.134-0.2,0-0.3-0.399C81.833,128.717,81.867,128.517,82,128.55z"/>
				<linearGradient id="SVGID_17_" gradientUnits="userSpaceOnUse" x1="97.8389" y1="108.8271" x2="101.7889" y2="130.7021">
					<stop  offset="0" style="stop-color:#1D304A"/>
					<stop  offset="1" style="stop-color:#121317"/>
				</linearGradient>
				<path style="fill-rule:evenodd;clip-rule:evenodd;fill:url(#SVGID_17_);" d="M102.55,106.35V112c-0.2,4.133-0.8,7.133-1.8,9
					c-1.233,2.4-2.033,4.25-2.4,5.55c-0.399,1.5-0.449,3.05-0.149,4.65l0.6,3.3c-0.467-0.367-0.916-0.967-1.35-1.8
					c-0.867-1.634-1.267-3.634-1.2-6c0.167-5.134,0.25-8.25,0.25-9.351c-0.066-3.732-0.5-6.467-1.3-8.199
					c-0.767-1.7,0.233-2.684,3-2.95C99.566,106.1,101.017,106.15,102.55,106.35z"/>
				<path style="fill-rule:evenodd;clip-rule:evenodd;fill:#2B6282;" d="M98,114.35c0.267,0.167,0.434,0.667,0.5,1.5
					c0.033,0.801-0.033,1.5-0.2,2.101c-0.166,0.566-0.383,0.75-0.649,0.55c-0.267-0.167-0.5-0.55-0.7-1.15
					c-0.2-0.6-0.184-1.316,0.05-2.149C97.267,114.333,97.6,114.05,98,114.35z"/>
				<path style="fill-rule:evenodd;clip-rule:evenodd;fill:#2B6282;" d="M97.45,120.45c0.366,0.1,0.517,0.616,0.45,1.55
					c-0.067,0.967-0.301,1.434-0.7,1.4c-0.4-0.033-0.55-0.567-0.45-1.601S97.083,120.316,97.45,120.45z"/>
				<path style="fill-rule:evenodd;clip-rule:evenodd;fill:#2B6282;" d="M97.2,124.95c0.366,0.2,0.533,0.667,0.5,1.399
					c-0.066,0.733-0.3,1.167-0.7,1.301c-0.4,0.166-0.566-0.301-0.5-1.4S96.8,124.717,97.2,124.95z"/>
				<path style="fill-rule:evenodd;clip-rule:evenodd;fill:#2B6282;" d="M96.65,129.5c0.133-0.267,0.316-0.05,0.55,0.65
					c0.233,0.666,0.267,1.083,0.1,1.25c-0.233,0.166-0.45,0-0.649-0.5C96.417,130.4,96.417,129.934,96.65,129.5z"/>
				<path style="fill-rule:evenodd;clip-rule:evenodd;fill:#5AB8C9;" d="M97.6,115.6c0.233,0.033,0.367,0.434,0.4,1.2
					c0.033,0.8-0.1,1.15-0.4,1.05c-0.3-0.1-0.466-0.517-0.5-1.25C97.1,115.867,97.267,115.533,97.6,115.6z"/>
				<path style="fill-rule:evenodd;clip-rule:evenodd;fill:#5AB8C9;" d="M97.35,121.2c0.167-0.134,0.25,0.05,0.25,0.55
					c0.034,0.5-0.033,0.767-0.199,0.8c-0.2,0.033-0.317-0.133-0.351-0.5C96.983,121.65,97.083,121.367,97.35,121.2z"/>
				<path style="fill-rule:evenodd;clip-rule:evenodd;fill:#5AB8C9;" d="M97.05,125.6c0.134,0.033,0.167,0.268,0.101,0.7
					c-0.067,0.467-0.167,0.684-0.301,0.65c-0.133-0.067-0.199-0.317-0.199-0.75C96.684,125.767,96.816,125.566,97.05,125.6z"/>
				<path style="fill-rule:evenodd;clip-rule:evenodd;fill:#5AB8C9;" d="M96.75,129.85c0.134-0.066,0.217,0.117,0.25,0.551
					c0.066,0.399,0.033,0.566-0.1,0.5c-0.134-0.101-0.217-0.283-0.25-0.551C96.583,130.083,96.616,129.917,96.75,129.85z"/>
				
					<radialGradient id="SVGID_18_" cx="115.4961" cy="48.9106" r="38.9854" gradientTransform="matrix(0.9869 0.1613 0.1674 -0.9504 -16.67 94.6552)" gradientUnits="userSpaceOnUse">
					<stop  offset="0" style="stop-color:#CD52D1"/>
					<stop  offset="1" style="stop-color:#8F172C"/>
				</radialGradient>
				<path style="fill-rule:evenodd;clip-rule:evenodd;fill:url(#SVGID_18_);" d="M124.6,93.05c-0.399,2.134-2.416,3.8-6.05,5
					c-4.899,1.601-11.633,1.617-20.2,0.05C91.517,96.867,85.967,95,81.7,92.5c-3.967-2.367-5.833-4.633-5.6-6.8
					c0.233-2.434,3.816-6.134,10.75-11.1c7.434-5.367,13.351-7.683,17.75-6.95c4.301,0.7,8.917,4.75,13.851,12.15
					C122.95,86.5,125,90.917,124.6,93.05z"/>
				
					<linearGradient id="SVGID_19_" gradientUnits="userSpaceOnUse" x1="108.9502" y1="50.3911" x2="114.0712" y2="50.3911" gradientTransform="matrix(0.9861 0.166 -0.166 0.9861 1.426339e-004 -3.881603e-004)">
					<stop  offset="0" style="stop-color:#FFFFFF;stop-opacity:0.2"/>
					<stop  offset="0.8588" style="stop-color:#FFFFFF;stop-opacity:0.2"/>
					<stop  offset="1" style="stop-color:#FFFFFF;stop-opacity:0.2"/>
				</linearGradient>
				<path style="fill-rule:evenodd;clip-rule:evenodd;fill:url(#SVGID_19_);" d="M104.3,67.6c-0.133,0.333-0.5,0.65-1.1,0.95
					c-0.634,0.3-1.367,0.467-2.2,0.5c-1.233,0.034-1.884-0.25-1.95-0.85C101.083,67.6,102.833,67.4,104.3,67.6z"/>
				
					<linearGradient id="SVGID_20_" gradientUnits="userSpaceOnUse" x1="105.2432" y1="54.3242" x2="108.8189" y2="54.3242" gradientTransform="matrix(0.9858 0.1678 -0.1678 0.9858 -1.662672e-004 -2.207607e-004)">
					<stop  offset="0" style="stop-color:#FFFFFF;stop-opacity:0.2"/>
					<stop  offset="0.8588" style="stop-color:#FFFFFF;stop-opacity:0.2"/>
					<stop  offset="1" style="stop-color:#FFFFFF;stop-opacity:0.2"/>
				</linearGradient>
				<path style="fill-rule:evenodd;clip-rule:evenodd;fill:url(#SVGID_20_);" d="M97.25,70c1.3,0.066,1.517,0.684,0.65,1.85
					c-0.867,1.167-1.784,1.517-2.75,1.05c-0.867-0.4-0.9-1-0.101-1.8C95.816,70.3,96.55,69.934,97.25,70z"/>
				
					<linearGradient id="SVGID_21_" gradientUnits="userSpaceOnUse" x1="118.6504" y1="51.9067" x2="121.9959" y2="51.9067" gradientTransform="matrix(0.9864 0.1644 -0.1644 0.9864 2.625585e-005 2.882630e-004)">
					<stop  offset="0" style="stop-color:#FFFFFF;stop-opacity:0.2"/>
					<stop  offset="0.8588" style="stop-color:#FFFFFF;stop-opacity:0.2"/>
					<stop  offset="1" style="stop-color:#FFFFFF;stop-opacity:0.2"/>
				</linearGradient>
				<path style="fill-rule:evenodd;clip-rule:evenodd;fill:url(#SVGID_21_);" d="M109.1,71.5c-0.399-0.367-0.566-0.733-0.5-1.1
					c0.034-0.333,0.2-0.617,0.5-0.85c1,0.7,1.867,1.4,2.601,2.1c0.066,0.534-0.217,0.767-0.851,0.7
					C110.25,72.283,109.667,72,109.1,71.5z"/>
				
					<linearGradient id="SVGID_22_" gradientUnits="userSpaceOnUse" x1="120.9961" y1="56.1006" x2="124.8759" y2="56.1006" gradientTransform="matrix(0.9859 0.1675 -0.1675 0.9859 -6.935000e-005 -3.867149e-004)">
					<stop  offset="0" style="stop-color:#FFFFFF;stop-opacity:0.2"/>
					<stop  offset="0.8588" style="stop-color:#FFFFFF;stop-opacity:0.2"/>
					<stop  offset="1" style="stop-color:#FFFFFF;stop-opacity:0.2"/>
				</linearGradient>
				<path style="fill-rule:evenodd;clip-rule:evenodd;fill:url(#SVGID_22_);" d="M111.75,74.05c1.2,0.967,1.816,1.884,1.85,2.75
					c0.034,0.733-0.283,1.15-0.949,1.25c-1,0.1-1.817-0.6-2.45-2.1c-0.3-0.767-0.267-1.4,0.1-1.9
					C110.667,73.583,111.15,73.583,111.75,74.05z"/>
				
					<linearGradient id="SVGID_23_" gradientUnits="userSpaceOnUse" x1="127.4717" y1="59.0674" x2="132.4406" y2="59.0674" gradientTransform="matrix(0.9861 0.166 -0.166 0.9861 -1.305342e-004 -3.716499e-004)">
					<stop  offset="0" style="stop-color:#FFFFFF;stop-opacity:0.2"/>
					<stop  offset="0.8588" style="stop-color:#FFFFFF;stop-opacity:0.2"/>
					<stop  offset="1" style="stop-color:#FFFFFF;stop-opacity:0.2"/>
				</linearGradient>
				<path style="fill-rule:evenodd;clip-rule:evenodd;fill:url(#SVGID_23_);" d="M116.6,77.2c1.2,1.6,2.351,3.316,3.45,5.15
					c-0.399,0.1-0.916-0.05-1.55-0.45c-0.7-0.4-1.3-1-1.8-1.8c-0.434-0.667-0.634-1.3-0.601-1.9
					C116.1,77.7,116.267,77.367,116.6,77.2z"/>
				
					<linearGradient id="SVGID_24_" gradientUnits="userSpaceOnUse" x1="123.7354" y1="62.0635" x2="126.9041" y2="62.0635" gradientTransform="matrix(0.9862 0.1657 -0.1657 0.9862 7.280707e-005 -4.318506e-004)">
					<stop  offset="0" style="stop-color:#FFFFFF;stop-opacity:0.2"/>
					<stop  offset="0.8588" style="stop-color:#FFFFFF;stop-opacity:0.2"/>
					<stop  offset="1" style="stop-color:#FFFFFF;stop-opacity:0.2"/>
				</linearGradient>
				<path style="fill-rule:evenodd;clip-rule:evenodd;fill:url(#SVGID_24_);" d="M113.5,84c-1.066,0.066-1.634-0.6-1.7-2
					c-0.066-1.367,0.2-2.083,0.8-2.15c1-0.067,1.7,0.583,2.101,1.95C115.066,83.167,114.667,83.9,113.5,84z"/>
				
					<linearGradient id="SVGID_25_" gradientUnits="userSpaceOnUse" x1="98.2402" y1="57.7734" x2="101.183" y2="57.7734" gradientTransform="matrix(0.9855 0.1699 -0.1699 0.9855 2.297163e-004 2.329350e-004)">
					<stop  offset="0" style="stop-color:#FFFFFF;stop-opacity:0.2"/>
					<stop  offset="0.8588" style="stop-color:#FFFFFF;stop-opacity:0.2"/>
					<stop  offset="1" style="stop-color:#FFFFFF;stop-opacity:0.2"/>
				</linearGradient>
				<path style="fill-rule:evenodd;clip-rule:evenodd;fill:url(#SVGID_25_);" d="M89.9,72.55c0.433,0.134,0.333,0.6-0.301,1.4
					c-0.6,0.8-1.199,1.233-1.8,1.3c-0.633,0.1-0.95-0.117-0.95-0.65C87.684,73.967,88.7,73.283,89.9,72.55z"/>
				
					<linearGradient id="SVGID_26_" gradientUnits="userSpaceOnUse" x1="100.2529" y1="61.4316" x2="104.1574" y2="61.4316" gradientTransform="matrix(0.986 0.1665 -0.1665 0.986 -6.631017e-005 1.355708e-004)">
					<stop  offset="0" style="stop-color:#FFFFFF;stop-opacity:0.2"/>
					<stop  offset="0.8588" style="stop-color:#FFFFFF;stop-opacity:0.2"/>
					<stop  offset="1" style="stop-color:#FFFFFF;stop-opacity:0.2"/>
				</linearGradient>
				<path style="fill-rule:evenodd;clip-rule:evenodd;fill:url(#SVGID_26_);" d="M91.45,75.4c1.6-0.066,1.866,0.75,0.8,2.45
					c-1.1,1.7-2.15,2.317-3.15,1.85c-0.899-0.4-0.949-1.217-0.149-2.45C89.717,76.083,90.55,75.467,91.45,75.4z"/>
				
					<linearGradient id="SVGID_27_" gradientUnits="userSpaceOnUse" x1="107.124" y1="59.5542" x2="111.3326" y2="59.5542" gradientTransform="matrix(0.9861 0.1663 -0.1663 0.9861 -9.042025e-005 4.502237e-004)">
					<stop  offset="0" style="stop-color:#FFFFFF;stop-opacity:0.2"/>
					<stop  offset="0.8588" style="stop-color:#FFFFFF;stop-opacity:0.2"/>
					<stop  offset="1" style="stop-color:#FFFFFF;stop-opacity:0.2"/>
				</linearGradient>
				<path style="fill-rule:evenodd;clip-rule:evenodd;fill:url(#SVGID_27_);" d="M96.7,79.1c-1.367-0.333-1.601-1.217-0.7-2.65
					c0.9-1.434,1.833-2.033,2.8-1.8c1.267,0.267,1.584,1.167,0.95,2.7C99.15,78.917,98.134,79.5,96.7,79.1z"/>
				
					<linearGradient id="SVGID_28_" gradientUnits="userSpaceOnUse" x1="110.4346" y1="52.7803" x2="113.2746" y2="52.7803" gradientTransform="matrix(0.9859 0.1673 -0.1673 0.9859 1.669824e-004 -1.161247e-004)">
					<stop  offset="0" style="stop-color:#FFFFFF;stop-opacity:0.2"/>
					<stop  offset="0.8588" style="stop-color:#FFFFFF;stop-opacity:0.2"/>
					<stop  offset="1" style="stop-color:#FFFFFF;stop-opacity:0.2"/>
				</linearGradient>
				<path style="fill-rule:evenodd;clip-rule:evenodd;fill:url(#SVGID_28_);" d="M101.75,69.6c1.233,0.133,1.566,0.583,1,1.35
					c-0.566,0.8-1.267,1.083-2.1,0.85c-0.733-0.2-0.884-0.633-0.45-1.3C100.6,69.833,101.116,69.533,101.75,69.6z"/>
				
					<linearGradient id="SVGID_29_" gradientUnits="userSpaceOnUse" x1="89.3564" y1="72.2617" x2="138.4043" y2="72.2617" gradientTransform="matrix(0.9859 0.1672 -0.1672 0.9859 -1.423657e-004 -4.157573e-004)">
					<stop  offset="0" style="stop-color:#DBCCB4"/>
					<stop  offset="0.2745" style="stop-color:#F1E2C8"/>
					<stop  offset="1" style="stop-color:#DBCCB4"/>
				</linearGradient>
				<path style="fill-rule:evenodd;clip-rule:evenodd;fill:url(#SVGID_29_);" d="M98.45,84.2c0.866,0.633,1.95,1.517,3.25,2.649
					c1.133,0.7,2.45,0.684,3.95-0.05c1.8-0.833,3.383-1.2,4.75-1.1c1.433,0.133,2.85,0.8,4.25,2c2.466,2.167,4.35,2.017,5.649-0.45
					c0.467-0.934,1.033-1.4,1.7-1.4c1.9,3.7,2.767,6.1,2.6,7.2c-0.399,2.134-2.416,3.8-6.05,5c-4.899,1.601-11.633,1.617-20.2,0.05
					C91.517,96.867,85.967,95,81.7,92.5c-3.967-2.367-5.833-4.633-5.6-6.8c0.167-1.367,1.9-3.567,5.2-6.6
					c1.2,0,1.817,0.583,1.85,1.75c0.033,1.533,0.65,2.716,1.85,3.55c1.267,0.9,2.866,1.034,4.8,0.4c2.733-0.9,4.351-1.4,4.851-1.5
					C96.017,83.1,97.283,83.4,98.45,84.2z"/>
				<path style="fill-rule:evenodd;clip-rule:evenodd;fill:#B6A893;" d="M88.15,86.05c3.433,0.067,6.916,0.317,10.449,0.75
					c2.5,0.3,6.584,1.184,12.25,2.65c5.601,1.467,8.634,2.217,9.101,2.25c0.934,0.1,1.35-0.333,1.25-1.3
					c-0.2-1.567-0.283-2.4-0.25-2.5c0.166-0.601,0.633-1.067,1.399-1.4c1.667,3.333,2.417,5.517,2.25,6.55
					c-0.399,2.134-2.416,3.8-6.05,5c-4.899,1.601-11.633,1.617-20.2,0.05c-5.866-1.066-10.816-2.616-14.85-4.649
					c-3.767-1.9-6.117-3.867-7.05-5.9c0.5-0.433,1.316-0.767,2.45-1C81.2,86.117,84.283,85.95,88.15,86.05z"/>
				<path style="fill-rule:evenodd;clip-rule:evenodd;fill:#ECDEC8;" d="M120.3,87.25c0.467-0.934,1.033-1.4,1.7-1.4l0.2,0.35
					c-0.566,0.3-1.217,0.933-1.95,1.899c-0.7,0.9-1.116,1.384-1.25,1.45c-0.4,0.167-0.75,0.033-1.05-0.399
					C118.917,89.05,119.7,88.417,120.3,87.25z"/>
				<path style="fill-rule:evenodd;clip-rule:evenodd;fill:#ECDEC8;" d="M89.8,84.8c2.733-0.9,4.351-1.4,4.851-1.5
					c1.366-0.2,2.633,0.1,3.8,0.9c-1.2-0.567-2.65-0.667-4.351-0.3c-2.166,0.633-3.933,1.117-5.3,1.45c-1.5,0.4-2.666,0.15-3.5-0.75
					C86.6,85.267,88.1,85.333,89.8,84.8z"/>
				<path style="fill-rule:evenodd;clip-rule:evenodd;fill:#ECDEC8;" d="M103.9,87.35c0.6-0.066,1.183-0.25,1.75-0.55
					c2.666-1.233,4.933-1.4,6.8-0.5c-2.134-0.466-4.533-0.133-7.2,1C104.65,87.566,104.2,87.583,103.9,87.35z"/>
				
					<radialGradient id="SVGID_30_" cx="113.8428" cy="61.4829" r="32.8163" gradientTransform="matrix(0.9869 0.1611 0.1672 -0.9504 -20.9364 118.9885)" gradientUnits="userSpaceOnUse">
					<stop  offset="0.2275" style="stop-color:#243049"/>
					<stop  offset="1" style="stop-color:#82343F"/>
				</radialGradient>
				<path style="fill-rule:evenodd;clip-rule:evenodd;fill:url(#SVGID_30_);" d="M117,92.8c3.2,1.3,4.483,2.317,3.85,3.05
					c-0.833,0.934-3.066,1.567-6.699,1.9c-3.7,0.3-7.767,0.217-12.2-0.25c-11.367-1.233-18.983-4.167-22.85-8.8
					c-0.767-0.9,0.9-1.434,5-1.601c4.6-0.199,10.3,0.317,17.1,1.551C108,89.883,113.267,91.267,117,92.8z"/>
				
					<linearGradient id="SVGID_31_" gradientUnits="userSpaceOnUse" x1="73.3794" y1="-114.0508" x2="92.7786" y2="-114.0508" gradientTransform="matrix(-0.1675 0.9859 -0.9859 -0.1675 1.553595e-004 -2.002716e-004)">
					<stop  offset="0" style="stop-color:#1D304A"/>
					<stop  offset="1" style="stop-color:#121317"/>
				</linearGradient>
				<path style="fill-rule:evenodd;clip-rule:evenodd;fill:url(#SVGID_31_);" d="M92.25,89.15c3.7,0.033,7.283,0.5,10.75,1.399
					c1.733,0.467,3.1,0.917,4.1,1.351l0.051,3.85c0.1,3.033,0.366,5.767,0.8,8.2c0.533,2.967-0.217,5.316-2.25,7.05
					c-2.066,1.733-4.9,2.383-8.5,1.95c-2.834-0.367-5.117-1.2-6.851-2.5c-1.533-1.167-2.483-2.567-2.85-4.2
					c-0.434-2,0.5-5.05,2.8-9.15c0.533-0.967,1.017-2.583,1.45-4.85L92.25,89.15z"/>
				
					<radialGradient id="SVGID_32_" cx="66.0356" cy="-117.1563" r="2.6017" gradientTransform="matrix(-0.2931 0.9561 0.5381 0.1489 175.9952 48.7133)" gradientUnits="userSpaceOnUse">
					<stop  offset="0" style="stop-color:#8CFFFE"/>
					<stop  offset="1" style="stop-color:#4484A0"/>
				</radialGradient>
				<path style="fill-rule:evenodd;clip-rule:evenodd;fill:url(#SVGID_32_);" d="M94.5,92.75c0.066,0.467,0,1.017-0.2,1.65
					c-0.166,0.6-0.416,1.1-0.75,1.5c-0.333,0.366-0.633,0.517-0.899,0.449c-0.267-0.066-0.434-0.35-0.5-0.85
					c-0.067-0.5,0-1.05,0.199-1.65c0.167-0.633,0.417-1.133,0.75-1.5c0.334-0.366,0.634-0.517,0.9-0.449
					C94.267,91.967,94.434,92.25,94.5,92.75z"/>
				
					<radialGradient id="SVGID_33_" cx="116.2139" cy="64.9658" r="2.3783" gradientTransform="matrix(0.9619 0.2733 0.5414 -1.7872 -54.0114 178.2897)" gradientUnits="userSpaceOnUse">
					<stop  offset="0" style="stop-color:#B8F6F6"/>
					<stop  offset="1" style="stop-color:#B9F5F6;stop-opacity:0"/>
				</radialGradient>
				<path style="fill-rule:evenodd;clip-rule:evenodd;fill:url(#SVGID_33_);" d="M95.5,91.4c0.2,0.967,0.116,2.033-0.25,3.199
					C94.917,95.767,94.4,96.7,93.7,97.4c-0.7,0.699-1.384,0.967-2.05,0.8c-0.634-0.167-1.034-0.733-1.2-1.7
					c-0.2-0.967-0.117-2.033,0.25-3.2c0.333-1.167,0.85-2.1,1.55-2.8s1.366-0.967,2-0.8C94.917,89.867,95.333,90.434,95.5,91.4z"/>
				
					<radialGradient id="SVGID_34_" cx="74.1221" cy="-120.0757" r="2.6899" gradientTransform="matrix(-0.2184 0.9759 0.7296 0.1441 205.4416 40.565)" gradientUnits="userSpaceOnUse">
					<stop  offset="0" style="stop-color:#8CFFFE"/>
					<stop  offset="1" style="stop-color:#4484A0"/>
				</radialGradient>
				<path style="fill-rule:evenodd;clip-rule:evenodd;fill:url(#SVGID_34_);" d="M102.55,93.85c0.167,0.533,0.184,1.117,0.05,1.75
					c-0.166,0.667-0.416,1.184-0.75,1.551c-0.366,0.399-0.75,0.566-1.149,0.5c-0.367-0.067-0.634-0.367-0.8-0.9
					c-0.167-0.5-0.184-1.066-0.051-1.7c0.167-0.633,0.434-1.149,0.801-1.55c0.366-0.4,0.733-0.566,1.1-0.5
					S102.384,93.35,102.55,93.85z"/>
				
					<radialGradient id="SVGID_35_" cx="119.0898" cy="72.7495" r="3.268" gradientTransform="matrix(0.9792 0.2027 0.306 -1.3694 -38.1298 170.6305)" gradientUnits="userSpaceOnUse">
					<stop  offset="0" style="stop-color:#B8F6F6"/>
					<stop  offset="1" style="stop-color:#B9F5F6;stop-opacity:0"/>
				</radialGradient>
				<path style="fill-rule:evenodd;clip-rule:evenodd;fill:url(#SVGID_35_);" d="M103.7,92.45c0.434,1,0.517,2.116,0.25,3.35
					s-0.816,2.233-1.65,3c-0.833,0.733-1.684,1.017-2.55,0.851c-0.9-0.2-1.566-0.801-2-1.801s-0.5-2.116-0.2-3.35
					c0.267-1.233,0.816-2.233,1.65-3c0.8-0.733,1.649-1.017,2.55-0.85C102.616,90.85,103.267,91.45,103.7,92.45z"/>
				<linearGradient id="SVGID_36_" gradientUnits="userSpaceOnUse" x1="86.624" y1="135.4248" x2="91.774" y2="105.0748">
					<stop  offset="0" style="stop-color:#1D304A"/>
					<stop  offset="1" style="stop-color:#121317"/>
				</linearGradient>
				<path style="fill-rule:evenodd;clip-rule:evenodd;fill:url(#SVGID_36_);" d="M87.45,107.5c0.3-1.167,0.816-2.217,1.55-3.15
					c1.5-1.866,3.316-2.149,5.45-0.85c0.467,0.3,0.916,1.117,1.35,2.45c0.5,1.433,0.617,2.616,0.351,3.55
					c-0.233,0.8-0.483,1.35-0.75,1.65c-0.2,0.166-0.567,0.449-1.101,0.85c-0.666,0.7-1.2,1.4-1.6,2.1
					c-0.634,1.167-1.217,2.75-1.75,4.75c-0.566,2.134-0.9,3.75-1,4.851c-0.033,0.733-0.017,2.399,0.05,5
					c0.066,2.533,0.017,4.267-0.15,5.2c-0.267,1.133-0.933,2.383-2,3.75c-0.433,0.533-1.25,0.866-2.449,1h-1.65
					c0.6-0.167,1.167-0.5,1.7-1c1.133-1,1.649-2.384,1.55-4.15c-0.066-0.867-0.533-2.517-1.4-4.95
					c-0.866-2.366-1.333-4.333-1.399-5.899c-0.133-3.033,0.367-6.467,1.5-10.301L87.45,107.5z"/>
				
					<use xlink:href="#FlashAICB_x2F_Layer_36_copy_2_x2F__x3C_Clip_Group_0_x3E_"  width="12.539" height="36" y="-35.95" transform="matrix(1 0 0 -1 83.75 102.75)" style="overflow:visible;"/>
				<path style="fill-rule:evenodd;clip-rule:evenodd;fill:#2B6282;" d="M89.25,127.65l0.1-0.101c0.301,0.233,0.351,0.65,0.15,1.25
					c-0.1-0.033-0.184-0.2-0.25-0.5C89.217,128.033,89.217,127.816,89.25,127.65z"/>
				<path style="fill-rule:evenodd;clip-rule:evenodd;fill:#2B6282;" d="M89.7,130.65l0.1-0.15c-0.033,0.133-0.017,0.367,0.05,0.7
					c0.067,0.3,0.067,0.533,0,0.7C89.55,131.767,89.5,131.35,89.7,130.65z"/>
				<path style="fill-rule:evenodd;clip-rule:evenodd;fill:#5AB8C9;" d="M94.6,108.3c0.467,0.067,0.534,0.45,0.2,1.15
					c-0.333,0.667-0.717,0.983-1.149,0.95c-0.434-0.033-0.467-0.4-0.101-1.101C93.917,108.566,94.267,108.233,94.6,108.3z"/>
				<path style="fill-rule:evenodd;clip-rule:evenodd;fill:#5AB8C9;" d="M90.75,113.9c0.134,0.267,0.1,0.566-0.1,0.899
					c-0.233,0.3-0.434,0.4-0.601,0.3c-0.133-0.1-0.066-0.366,0.2-0.8C90.517,113.867,90.684,113.733,90.75,113.9z"/>
				<path style="fill-rule:evenodd;clip-rule:evenodd;fill:#5AB8C9;" d="M89.1,119.15c0.267,0,0.367,0.217,0.301,0.649
					c-0.067,0.434-0.184,0.667-0.351,0.7c-0.133,0.033-0.184-0.184-0.149-0.65C88.9,119.383,88.967,119.15,89.1,119.15z"/>
				<path style="fill-rule:evenodd;clip-rule:evenodd;fill:#5AB8C9;" d="M88.7,123.95c0.133,0.033,0.233,0.183,0.3,0.45
					c0.033,0.267,0,0.467-0.1,0.6c-0.101,0.133-0.2-0.017-0.301-0.45C88.533,124.117,88.566,123.917,88.7,123.95z"/>
				<linearGradient id="SVGID_37_" gradientUnits="userSpaceOnUse" x1="103.9258" y1="129.9248" x2="107.7758" y2="107.2748">
					<stop  offset="0" style="stop-color:#1D304A"/>
					<stop  offset="1" style="stop-color:#121317"/>
				</linearGradient>
				<path style="fill-rule:evenodd;clip-rule:evenodd;fill:url(#SVGID_37_);" d="M105.8,105.15c0.5,0.133,0.851,0.616,1.05,1.449
					c0.101,0.467,0.167,1,0.2,1.601c0.167,0.933,0.3,1.95,0.4,3.05c0.233,0.9,0.883,2.033,1.95,3.4
					c1.333,1.699,2.233,3.85,2.699,6.449c0.5,2.7,0.284,4.884-0.649,6.551c-1.033,1.8-2.267,3.149-3.7,4.05
					c-1.533,0.967-3.083,1.25-4.65,0.85c-2.133-0.533-3.583-1.95-4.35-4.25c-0.733-2.233-0.434-3.967,0.9-5.2
					c1.1-1,2.3-1.25,3.6-0.75c0.667,0.268,1.217,0.617,1.65,1.051c0.333-0.567,0.55-1.25,0.649-2.051c0.233-1.6-0.2-2.967-1.3-4.1
					c-0.833-0.833-1.866-2.066-3.1-3.7l-1.601-2.2c0.7-1.133,1.483-2.25,2.351-3.35C103.634,105.833,104.934,104.883,105.8,105.15z"
					/>
				<path style="fill-rule:evenodd;clip-rule:evenodd;fill:#233754;" d="M99.65,123.1c1.1-1,2.3-1.25,3.6-0.75
					c0.667,0.268,1.217,0.617,1.65,1.051c-0.801-0.533-1.551-0.801-2.25-0.801c-0.834-0.033-1.467,0.067-1.9,0.301
					c-0.833,0.399-1.417,1.232-1.75,2.5c-0.267,1.133-0.1,2.616,0.5,4.449c-0.733-1.133-1.083-2.333-1.05-3.6
					C98.45,124.917,98.85,123.867,99.65,123.1z"/>
				<path style="fill-rule:evenodd;clip-rule:evenodd;fill:#233754;" d="M100.9,123.55c0.399-0.2,0.949-0.25,1.649-0.149
					c0.334,0.066,0.634,0.149,0.9,0.25c-1.233-0.268-2.217-0.167-2.95,0.3c-0.366,0.233-0.616,0.5-0.75,0.8
					c0.033-0.1,0.116-0.233,0.25-0.4C100.233,124.017,100.533,123.75,100.9,123.55z"/>
				<path style="fill-rule:evenodd;clip-rule:evenodd;fill:#233754;" d="M102.35,125.9c0-0.634-0.316-0.801-0.949-0.5
					c-0.2,0.1-0.367,0.25-0.5,0.449c-0.101,0.101-0.167,0.184-0.2,0.25l0.3-0.649c0.167-0.233,0.384-0.367,0.65-0.4
					c0.267-0.066,0.517-0.017,0.75,0.15C102.667,125.434,102.65,125.667,102.35,125.9z"/>
				<path style="fill-rule:evenodd;clip-rule:evenodd;fill:#090B0D;" d="M103.55,115.85c1.3,1.533,1.983,2.351,2.05,2.45
					c0.434,0.833,0.617,2.333,0.551,4.5c-0.034,2.333-0.584,4-1.65,5c-1.033,0.967-2.134,1.033-3.3,0.2
					c-1-0.667-1.316-1.383-0.95-2.15c0.3-0.6,0.783-1.017,1.45-1.25c0.434-0.1,0.783-0.033,1.05,0.2
					c0.233,0.233,0.35,0.517,0.35,0.851c-0.033,0.366-0.267,0.517-0.699,0.449c0.333-0.133,0.433-0.399,0.3-0.8
					c-0.101-0.333-0.434-0.433-1-0.3c-0.533,0.133-0.867,0.45-1,0.95c-0.134,0.533-0.033,1,0.3,1.399
					c0.333,0.4,0.816,0.617,1.45,0.65c0.566,0.066,1.066-0.167,1.5-0.7c0.333-0.399,0.55-0.883,0.649-1.45
					c0.067-0.366-0.066-0.816-0.399-1.35l-0.55-0.7l0.649,0.05c0.2,0.033,0.4-0.116,0.601-0.449c0.333-0.567,0.55-1.25,0.649-2.051
					c0.233-1.6-0.2-2.967-1.3-4.1c-0.833-0.833-1.866-2.066-3.1-3.7l-1.601-2.2l1.2-1.8
					C100.616,111.383,101.55,113.483,103.55,115.85z"/>
				<path style="fill-rule:evenodd;clip-rule:evenodd;fill:#2B6282;" d="M102.3,109.25c0.7,0.167,1.283,0.6,1.75,1.3
					c0.434,0.634,0.601,1.167,0.5,1.601c-0.133,0.433-0.517,0.566-1.149,0.399c-0.634-0.133-1.101-0.467-1.4-1
					c-0.267-0.5-0.35-1.033-0.25-1.6C101.85,109.417,102.033,109.184,102.3,109.25z"/>
				<path style="fill-rule:evenodd;clip-rule:evenodd;fill:#2B6282;" d="M105.3,113.9c0.733,0.399,1.101,1,1.101,1.8
					c0,0.833-0.351,1.033-1.051,0.6c-0.6-0.399-0.85-0.95-0.75-1.649C104.7,113.95,104.934,113.7,105.3,113.9z"/>
				<path style="fill-rule:evenodd;clip-rule:evenodd;fill:#2B6282;" d="M106.75,118.95c1,1.066,1.2,1.833,0.6,2.3
					c-0.333,0.267-0.583-0.117-0.75-1.15C106.4,119,106.45,118.617,106.75,118.95z"/>
				<path style="fill-rule:evenodd;clip-rule:evenodd;fill:#2B6282;" d="M107.2,123.7c0.434,0,0.6,0.35,0.5,1.05
					c-0.101,0.733-0.4,1.167-0.9,1.3c-0.5,0.134-0.649-0.233-0.45-1.1C106.517,124.083,106.8,123.667,107.2,123.7z"/>
				<path style="fill-rule:evenodd;clip-rule:evenodd;fill:#2B6282;" d="M104.8,128.4c0.5,0.199,0.417,0.416-0.25,0.649
					c-0.666,0.233-1.05,0.25-1.149,0.05c-0.067-0.166,0.1-0.35,0.5-0.55C104.267,128.35,104.566,128.3,104.8,128.4z"/>
				<path style="fill-rule:evenodd;clip-rule:evenodd;fill:#2B6282;" d="M100.65,128.2c-0.034,0.3-0.2,0.2-0.5-0.3
					c-0.301-0.567-0.417-0.934-0.351-1.101s0.233-0.05,0.5,0.351C100.533,127.55,100.65,127.9,100.65,128.2z"/>
				<path style="fill-rule:evenodd;clip-rule:evenodd;fill:#2B6282;" d="M100.35,124.15c0.267-0.134,0.334-0.018,0.2,0.35
					c-0.166,0.367-0.366,0.617-0.6,0.75c-0.2,0.1-0.25-0.017-0.15-0.35C99.9,124.566,100.083,124.316,100.35,124.15z"/>
				<path style="fill-rule:evenodd;clip-rule:evenodd;fill:#2B6282;" d="M102.8,123.7c0.4,0.167,0.517,0.399,0.351,0.7
					c-0.167,0.267-0.4,0.3-0.7,0.1s-0.4-0.417-0.3-0.65C102.25,123.617,102.467,123.566,102.8,123.7z"/>
				<path style="fill-rule:evenodd;clip-rule:evenodd;fill:#2B6282;" d="M104,125.8c0.033,0.167-0.017,0.351-0.15,0.55
					c-0.133,0.233-0.267,0.367-0.399,0.4c-0.134,0.033-0.084-0.167,0.149-0.6C103.833,125.75,103.967,125.633,104,125.8z"/>
				<path style="fill-rule:evenodd;clip-rule:evenodd;fill:#2B6282;" d="M102.25,126.85c-0.3,0.134-0.566,0.134-0.8,0
					c-0.233-0.133-0.334-0.3-0.3-0.5c0.033-0.166,0.267-0.149,0.699,0.051C102.283,126.633,102.417,126.783,102.25,126.85z"/>
				<path style="fill-rule:evenodd;clip-rule:evenodd;fill:#2B6282;" d="M101.8,125.35c0.267-0.1,0.384-0.066,0.351,0.101
					c-0.067,0.167-0.2,0.25-0.4,0.25c-0.2,0.033-0.3,0-0.3-0.101C101.45,125.533,101.566,125.45,101.8,125.35z"/>
				<path style="fill-rule:evenodd;clip-rule:evenodd;fill:#5AB8C9;" d="M102,110.1h0.2c0.3,0,0.616,0.167,0.95,0.5
					c0.5,0.5,0.6,0.867,0.3,1.101c-0.2,0.2-0.617-0.017-1.25-0.65C101.967,110.783,101.9,110.467,102,110.1z"/>
				<path style="fill-rule:evenodd;clip-rule:evenodd;fill:#5AB8C9;" d="M105.05,114.55l0.2,0.15
					c0.233,0.033,0.384,0.167,0.45,0.399c0.066,0.2,0.066,0.4,0,0.601c-0.267,0-0.467-0.134-0.601-0.4
					C105,115.066,104.983,114.816,105.05,114.55z"/>
				<path style="fill-rule:evenodd;clip-rule:evenodd;fill:#5AB8C9;" d="M106.8,119.7l0.2-0.05c0.333,0.433,0.45,0.767,0.35,1
					c-0.166-0.067-0.283-0.217-0.35-0.45C106.934,119.9,106.866,119.733,106.8,119.7z"/>
				<path style="fill-rule:evenodd;clip-rule:evenodd;fill:#5AB8C9;" d="M107,124.35l-0.05-0.1c0.233,0,0.333,0.184,0.3,0.55
					c0,0.3-0.066,0.533-0.2,0.7c-0.233,0.233-0.383,0.15-0.45-0.25C106.6,124.917,106.733,124.617,107,124.35z"/>
				<path style="fill-rule:evenodd;clip-rule:evenodd;fill:#5AB8C9;" d="M104.05,128.5l-0.05-0.1l0.55,0.1
					c0.033,0.167-0.066,0.267-0.3,0.3c-0.167,0.033-0.316,0.033-0.45,0c-0.033-0.1-0.017-0.183,0.05-0.25
					C103.884,128.483,103.95,128.467,104.05,128.5z"/>
				<path style="fill-rule:evenodd;clip-rule:evenodd;fill:#5AB8C9;" d="M100.25,127.1l0.2,0.2c-0.066,0.3-0.117,0.467-0.15,0.5
					c-0.233-0.033-0.3-0.283-0.2-0.75L100.25,127.1z"/>
			</g>
		</g>
	</g>
	<g>
		<g>
			<g>
				<g>
					<g>
						<g>
							
								<linearGradient id="SVGID_38_" gradientUnits="userSpaceOnUse" x1="-46.0991" y1="69.7891" x2="-29.2783" y2="69.7891" gradientTransform="matrix(0.4708 -0.8822 0.8822 0.4708 -5.314052e-004 2.521276e-005)">
								<stop  offset="0.0745" style="stop-color:#6B9724"/>
								<stop  offset="0.2588" style="stop-color:#82B139"/>
								<stop  offset="0.4471" style="stop-color:#9DCF52"/>
								<stop  offset="0.9647" style="stop-color:#DAE772"/>
							</linearGradient>
							<path style="fill-rule:evenodd;clip-rule:evenodd;fill:url(#SVGID_38_);" d="M47.9,58.75c0.667,0.367,1.184,0.883,1.55,1.55
								c0.367,0.634,0.517,1.317,0.45,2.05l-0.05,1.25l1,0.8c1.267,0.967,1.733,2.25,1.4,3.85c-0.133,0.767-0.517,1.467-1.15,2.1
								c-0.467,0.4-1.017,0.683-1.65,0.85l-1.2,0.35l-0.4,1.15c-0.267,0.633-0.617,1.167-1.05,1.6c-0.633,0.567-1.367,0.9-2.2,1H44
								c-0.6,0-1.15-0.15-1.65-0.45c-0.6-0.3-1.083-0.733-1.45-1.3l-0.7-1.05l-1.3-0.05c-0.733-0.033-1.4-0.25-2-0.65
								c-0.6-0.4-1.05-0.933-1.35-1.6c-0.333-0.667-0.45-1.367-0.35-2.1c0.1-0.733,0.383-1.383,0.85-1.95l0.8-1l-0.35-1.2
								c-0.233-0.7-0.25-1.4-0.05-2.1c0.2-0.733,0.566-1.35,1.1-1.85c0.8-0.767,1.733-1.117,2.8-1.05
								c0.566,0.066,0.983,0.15,1.25,0.25l1.2,0.45l1-0.7c0.767-0.467,1.567-0.684,2.4-0.65c0.6,0,1.15,0.15,1.65,0.45H47.9z"/>
							<path style="fill-rule:evenodd;clip-rule:evenodd;fill:none;stroke:#ECF8BD;stroke-width:0.25;" d="M47.9,58.75
								c0.667,0.367,1.184,0.883,1.55,1.55c0.367,0.634,0.517,1.317,0.45,2.05l-0.05,1.25l1,0.8c1.267,0.967,1.733,2.25,1.4,3.85
								c-0.133,0.767-0.517,1.467-1.15,2.1c-0.467,0.4-1.017,0.683-1.65,0.85l-1.2,0.35l-0.4,1.15
								c-0.267,0.633-0.617,1.167-1.05,1.6c-0.633,0.567-1.367,0.9-2.2,1H44c-0.6,0-1.15-0.15-1.65-0.45
								c-0.6-0.3-1.083-0.733-1.45-1.3l-0.7-1.05l-1.3-0.05c-0.733-0.033-1.4-0.25-2-0.65c-0.6-0.4-1.05-0.933-1.35-1.6
								c-0.333-0.667-0.45-1.367-0.35-2.1c0.1-0.733,0.383-1.383,0.85-1.95l0.8-1l-0.35-1.2c-0.233-0.7-0.25-1.4-0.05-2.1
								c0.2-0.733,0.566-1.35,1.1-1.85c0.8-0.767,1.733-1.117,2.8-1.05c0.566,0.066,0.983,0.15,1.25,0.25l1.2,0.45l1-0.7
								c0.767-0.467,1.567-0.684,2.4-0.65c0.6,0,1.15,0.15,1.65,0.45H47.9z"/>
						</g>
					</g>
					<path style="fill-rule:evenodd;clip-rule:evenodd;fill:#22480E;" d="M47.7,62.25l-0.15,2.4l1.95,1.5
						c0.567,0.434,0.767,0.983,0.6,1.65c-0.033,0.3-0.2,0.6-0.5,0.9c-0.133,0.133-0.367,0.267-0.7,0.4l-2.35,0.6l-0.8,2.3
						c-0.133,0.3-0.283,0.517-0.45,0.65c-0.233,0.233-0.55,0.383-0.95,0.45c-0.667,0.1-1.2-0.15-1.6-0.75l-1.3-2.05L39,70.25
						c-0.667,0-1.15-0.316-1.45-0.95c-0.333-0.633-0.267-1.233,0.2-1.8l1.55-1.85l-0.7-2.35c-0.2-0.633-0.05-1.2,0.45-1.7
						c0.534-0.467,1.117-0.567,1.75-0.3l2.25,0.85l2-1.35c0.567-0.4,1.167-0.433,1.8-0.1C47.417,61,47.7,61.517,47.7,62.25z"/>
					
						<linearGradient id="SVGID_39_" gradientUnits="userSpaceOnUse" x1="-43.0869" y1="69.7998" x2="-32.2583" y2="69.7998" gradientTransform="matrix(0.4711 -0.8821 0.8821 0.4711 -4.620254e-004 -1.087785e-004)">
						<stop  offset="0" style="stop-color:#EDBF35"/>
						<stop  offset="0.2941" style="stop-color:#F0CA31"/>
						<stop  offset="0.8039" style="stop-color:#F9E728"/>
						<stop  offset="0.9647" style="stop-color:#FCF226"/>
					</linearGradient>
					<path style="fill-rule:evenodd;clip-rule:evenodd;fill:url(#SVGID_39_);" d="M49,66.75c0.3,0.233,0.417,0.533,0.35,0.9
						c-0.033,0.167-0.133,0.333-0.3,0.5l-0.35,0.2l-2.75,0.7L45,71.75l-0.25,0.35l-0.5,0.25c-0.367,0-0.65-0.15-0.85-0.45
						l-1.55-2.35l-2.8-0.1c-0.367,0-0.633-0.167-0.8-0.5c-0.167-0.3-0.133-0.617,0.1-0.95l1.8-2.2l-0.8-2.7
						c-0.1-0.367-0.017-0.667,0.25-0.9c0.233-0.233,0.55-0.3,0.95-0.2l2.6,1l2.35-1.6c0.367-0.167,0.683-0.167,0.95,0
						c0.367,0.167,0.517,0.434,0.45,0.8l-0.15,2.85L49,66.75z"/>
					<path style="fill-rule:evenodd;clip-rule:evenodd;fill:#F5FAD7;" d="M49,66.75c0.3,0.233,0.417,0.533,0.35,0.9
						c-0.033,0.167-0.133,0.333-0.3,0.5l-0.35,0.2l0.1-0.3c0.067-0.4-0.05-0.7-0.35-0.9l-2.25-1.7l0.15-2.85
						c0.033-0.333-0.117-0.617-0.45-0.85c-0.333-0.167-0.65-0.15-0.95,0.05l-2.3,1.6l-2.65-1l-0.5-0.05l0.1-0.15
						c0.233-0.233,0.55-0.3,0.95-0.2l2.6,1l2.35-1.6c0.367-0.167,0.683-0.167,0.95,0c0.367,0.167,0.517,0.434,0.45,0.8l-0.15,2.85
						L49,66.75z"/>
				</g>
			</g>
		</g>
		<g>
			<g>
				<g>
					<g>
						<g>
							<linearGradient id="SVGID_40_" gradientUnits="userSpaceOnUse" x1="122.6338" y1="58.6787" x2="130.5641" y2="73.5388">
								<stop  offset="0.0745" style="stop-color:#6B9724"/>
								<stop  offset="0.2588" style="stop-color:#82B139"/>
								<stop  offset="0.4471" style="stop-color:#9DCF52"/>
								<stop  offset="0.9647" style="stop-color:#DAE772"/>
							</linearGradient>
							<path style="fill-rule:evenodd;clip-rule:evenodd;fill:url(#SVGID_40_);" d="M127.65,59.65l1.199-0.45
								c0.267-0.1,0.667-0.184,1.2-0.25c1.066-0.033,2,0.316,2.8,1.05c0.534,0.5,0.9,1.117,1.101,1.85c0.2,0.7,0.2,1.4,0,2.1
								l-0.351,1.2l0.801,1c1.033,1.267,1.199,2.617,0.5,4.05c-0.301,0.667-0.75,1.2-1.351,1.6c-0.6,0.4-1.267,0.617-2,0.65
								l-1.35,0.05l-0.65,1.05c-0.366,0.567-0.85,1-1.45,1.3c-0.5,0.3-1.05,0.45-1.649,0.45h-0.65c-0.8-0.1-1.517-0.433-2.149-1
								c-0.5-0.433-0.851-0.966-1.051-1.6l-0.399-1.15l-1.25-0.35c-0.601-0.134-1.134-0.417-1.601-0.85c-0.6-0.6-1-1.3-1.199-2.1
								c-0.267-1.6,0.216-2.883,1.449-3.85l1-0.8l-0.05-1.25c-0.033-0.733,0.117-1.417,0.45-2.05c0.366-0.667,0.866-1.183,1.5-1.55
								h0.1c0.5-0.3,1.051-0.45,1.65-0.45c0.866-0.033,1.65,0.184,2.35,0.65L127.65,59.65z"/>
							<path style="fill-rule:evenodd;clip-rule:evenodd;fill:none;stroke:#ECF8BD;stroke-width:0.25;" d="M127.65,59.65l1.199-0.45
								c0.267-0.1,0.667-0.184,1.2-0.25c1.066-0.033,2,0.316,2.8,1.05c0.534,0.5,0.9,1.117,1.101,1.85c0.2,0.7,0.2,1.4,0,2.1
								l-0.351,1.2l0.801,1c1.033,1.267,1.199,2.617,0.5,4.05c-0.301,0.667-0.75,1.2-1.351,1.6c-0.6,0.4-1.267,0.617-2,0.65
								l-1.35,0.05l-0.65,1.05c-0.366,0.567-0.85,1-1.45,1.3c-0.5,0.3-1.05,0.45-1.649,0.45h-0.65c-0.8-0.1-1.517-0.433-2.149-1
								c-0.5-0.433-0.851-0.966-1.051-1.6l-0.399-1.15l-1.25-0.35c-0.601-0.134-1.134-0.417-1.601-0.85c-0.6-0.6-1-1.3-1.199-2.1
								c-0.267-1.6,0.216-2.883,1.449-3.85l1-0.8l-0.05-1.25c-0.033-0.733,0.117-1.417,0.45-2.05c0.366-0.667,0.866-1.183,1.5-1.55
								h0.1c0.5-0.3,1.051-0.45,1.65-0.45c0.866-0.033,1.65,0.184,2.35,0.65L127.65,59.65z"/>
						</g>
					</g>
					<path style="fill-rule:evenodd;clip-rule:evenodd;fill:#22480E;" d="M127.35,62.15l2.301-0.85c0.6-0.267,1.166-0.167,1.699,0.3
						c0.5,0.466,0.667,1.033,0.5,1.7l-0.699,2.35l1.55,1.85c0.434,0.533,0.5,1.133,0.2,1.8c-0.301,0.634-0.784,0.95-1.45,0.95
						L129,70.3l-1.3,2.05c-0.4,0.6-0.934,0.85-1.601,0.75c-0.399-0.067-0.716-0.217-0.949-0.45c-0.167-0.133-0.317-0.35-0.45-0.65
						l-0.8-2.3l-2.351-0.6c-0.333-0.133-0.566-0.267-0.7-0.4c-0.3-0.3-0.466-0.6-0.5-0.9c-0.166-0.667,0.034-1.216,0.601-1.65
						l1.95-1.5l-0.15-2.4c-0.066-0.7,0.217-1.217,0.85-1.55c0.601-0.333,1.184-0.3,1.75,0.1L127.35,62.15z"/>
					<linearGradient id="SVGID_41_" gradientUnits="userSpaceOnUse" x1="131.4473" y1="68.5278" x2="121.5223" y2="64.2028">
						<stop  offset="0" style="stop-color:#EDBF35"/>
						<stop  offset="0.2941" style="stop-color:#F0CA31"/>
						<stop  offset="0.8039" style="stop-color:#F9E728"/>
						<stop  offset="0.9647" style="stop-color:#FCF226"/>
					</linearGradient>
					<path style="fill-rule:evenodd;clip-rule:evenodd;fill:url(#SVGID_41_);" d="M124,61.4c0.267-0.167,0.583-0.167,0.95,0l2.3,1.6
						l2.65-1c0.399-0.1,0.716-0.033,0.949,0.2c0.267,0.233,0.351,0.533,0.25,0.9l-0.8,2.7l1.75,2.2c0.267,0.3,0.316,0.617,0.15,0.95
						c-0.167,0.333-0.434,0.5-0.8,0.5l-2.851,0.1L127,71.9c-0.134,0.3-0.417,0.45-0.85,0.45l-0.5-0.25l-0.2-0.35l-0.95-2.7
						l-2.75-0.7l-0.4-0.2l-0.25-0.5c-0.066-0.4,0.051-0.7,0.351-0.9l2.25-1.7l-0.15-2.85C123.483,61.833,123.634,61.566,124,61.4z"
						/>
					<path style="fill-rule:evenodd;clip-rule:evenodd;fill:#F5FAD7;" d="M124,61.4c0.267-0.167,0.583-0.167,0.95,0l2.3,1.6l2.65-1
						c0.399-0.1,0.716-0.033,0.949,0.2l0.101,0.15l-0.5,0.05l-2.65,1l-2.35-1.6c-0.267-0.2-0.584-0.216-0.95-0.05
						c-0.3,0.233-0.45,0.517-0.45,0.85l0.15,2.85l-2.25,1.7c-0.3,0.233-0.4,0.534-0.3,0.9l0.1,0.3l-0.4-0.2l-0.25-0.5
						c-0.066-0.4,0.051-0.7,0.351-0.9l2.25-1.7l-0.15-2.85C123.483,61.833,123.634,61.566,124,61.4z"/>
				</g>
			</g>
		</g>
	</g>
	<g>
		
			<use xlink:href="#FlashAICB_x2F_Layer_36_copy_2_x2F__x3C_Path_x3E__x5F_2"  width="118.7" height="57.1" y="-57.1" transform="matrix(1 0 0 -1 26.5 87.7002)" style="overflow:visible;opacity:0.2813;enable-background:new    ;"/>
		
			<use xlink:href="#FlashAICB_x2F_Layer_36_copy_2_x2F__x3C_Path_x3E__x5F_1"  width="110.05" height="55.75" y="-55.75" transform="matrix(1 0 0 -1 30.6499 28.8999)" style="overflow:visible;opacity:0.1094;enable-background:new    ;"/>
		
			<use xlink:href="#FlashAICB_x2F_Layer_36_copy_2_x2F__x3C_Path_x3E_"  width="110.05" height="61.294" y="-61.294" transform="matrix(1 0 0 -1 30.6499 28.8999)" style="overflow:visible;opacity:0.0898;enable-background:new    ;"/>
	</g>
</g>
</svg>
