<?xml version="1.0" encoding="iso-8859-1"?>
<!-- Generator: Adobe Illustrator 15.1.0, SVG Export Plug-In . SVG Version: 6.00 Build 0)  -->
<!DOCTYPE svg PUBLIC "-//W3C//DTD SVG 1.1//EN" "http://www.w3.org/Graphics/SVG/1.1/DTD/svg11.dtd">
<svg version="1.1" id="Layer_114" xmlns="http://www.w3.org/2000/svg" xmlns:xlink="http://www.w3.org/1999/xlink" x="0px" y="0px"
	 width="171.55px" height="171.5px" viewBox="0 0 171.55 171.5" style="enable-background:new 0 0 171.55 171.5;"
	 xml:space="preserve">
<symbol  id="FlashAICB_x2F_Layer_114_x2F__x3C_Path_x3E_" viewBox="0 -7.73 20.75 7.73">
	<g id="Layer_1_2_">
		<path style="fill-rule:evenodd;clip-rule:evenodd;fill:#462212;" d="M18.5-4.3l-2.7-1.1C14.033-6,12.1-6.517,10-6.95
			c-2.033-0.4-3.617-0.633-4.75-0.7c-0.867-0.133-1.4-0.1-1.6,0.1L2-6.6L0-4.65L7.8,0l1.65-0.45c0.2-0.033,0.65-0.1,1.35-0.2
			c0.567-0.1,1-0.2,1.3-0.3c0.3-0.1,0.7-0.35,1.2-0.75c0.467-0.4,0.85-0.65,1.15-0.75c0.7-0.2,1.816-0.216,3.35-0.05
			c0.6-0.033,1.317-0.167,2.15-0.4c0.233,0,0.5-0.05,0.8-0.15C20.383-3.35,19.633-3.767,18.5-4.3z"/>
	</g>
</symbol>
<symbol  id="FlashAICB_x2F_Layer_114_x2F__x3C_Path_x3E__x5F_0" viewBox="0 -57.15 118.7 57.15">
	<g id="Layer_1_3_">
		
			<radialGradient id="SVGID_1_" cx="59.3501" cy="-28.5752" r="46.5777" gradientTransform="matrix(1 0 0 -1 0 -57.1504)" gradientUnits="userSpaceOnUse">
			<stop  offset="0" style="stop-color:#CCEFE7;stop-opacity:0"/>
			<stop  offset="0.0627" style="stop-color:#C7EDDC;stop-opacity:0.0431"/>
			<stop  offset="0.1686" style="stop-color:#BAE9C1;stop-opacity:0.1686"/>
			<stop  offset="0.3059" style="stop-color:#A5E193;stop-opacity:0.3725"/>
			<stop  offset="0.4706" style="stop-color:#88D755;stop-opacity:0.651"/>
			<stop  offset="0.651" style="stop-color:#66C912"/>
		</radialGradient>
		<path style="fill-rule:evenodd;clip-rule:evenodd;fill:url(#SVGID_1_);" d="M95.5-30.35c10.733,7.7,18.3,17.717,22.7,30.05
			l0.5,0.3c-0.567-15.9-6.6-29.4-18.1-40.5S75.333-57.15,59.3-57.15c-15.7,0-29.267,5.367-40.7,16.1C7.2-30.35,1-17.233,0-1.7
			c4.6-12,12.183-21.7,22.75-29.1c10.833-7.567,22.867-11.35,36.1-11.35C72.35-42.15,84.567-38.217,95.5-30.35z"/>
	</g>
</symbol>
<symbol  id="FlashAICB_x2F_Layer_114_x2F__x3C_Path_x3E__x5F_1" viewBox="0 -55.8 110 55.8">
	<g id="Layer_1_4_">
		
			<linearGradient id="SVGID_2_" gradientUnits="userSpaceOnUse" x1="16165.3076" y1="-53.8555" x2="16221.0527" y2="-53.8555" gradientTransform="matrix(1.792918e-005 1 -1 -0.001 0.8545 -16221.1064)">
			<stop  offset="0.1294" style="stop-color:#E2B8B2"/>
			<stop  offset="0.9255" style="stop-color:#FFFFFF"/>
		</linearGradient>
		<path style="fill-rule:evenodd;clip-rule:evenodd;fill:url(#SVGID_2_);" d="M96-18c4.467-4.9,7.967-10.367,10.5-16.4
			c2.333-5.633,3.5-10.934,3.5-15.9c0-1.767-0.167-3.25-0.5-4.45c-1.833,11.067-7.217,20.9-16.15,29.5
			C82.783-15.117,70-10.05,55-10.05c-15.233,0-28.067-5.067-38.5-15.2C7.5-33.983,2.15-44.167,0.45-55.8C0.15-54.6,0-53.183,0-51.55
			c0,5.5,1.167,11.167,3.5,17c2.467,6.167,5.95,11.733,10.45,16.7C24.65-5.95,38.333,0,55,0C71.467,0,85.133-6,96-18z"/>
	</g>
</symbol>
<symbol  id="FlashAICB_x2F_Layer_114_x2F__x3C_Path_x3E__x5F_2" viewBox="0 -61.344 110 61.344">
	<g id="Layer_1_5_">
		<path style="fill-rule:evenodd;clip-rule:evenodd;fill:#FFFFFF;" d="M106.5-34.4c2.333-5.633,3.5-10.934,3.5-15.9
			c0-4.967-1.433-8.083-4.3-9.35c-2.367-1.067-6.3-1.067-11.8,0c-7.267,1.767-13.1,3.117-17.5,4.05c-8,1.7-15.133,2.55-21.4,2.55
			c-6.333,0-13.467-0.917-21.4-2.75c-8.333-2.2-14.167-3.684-17.5-4.45c-5.533-1.267-9.467-1.433-11.8-0.5
			c-2.867,1.2-4.3,4.267-4.3,9.2c0,5.5,1.167,11.167,3.5,17c2.467,6.167,5.95,11.733,10.45,16.7C24.65-5.95,38.333,0,55,0
			c16.467,0,30.133-6,41-18C100.467-22.9,103.967-28.367,106.5-34.4z"/>
	</g>
</symbol>
<g>
	<path style="fill-rule:evenodd;clip-rule:evenodd;fill:#68757B;" d="M146.4,25.15c7.933,7.9,14.066,16.983,18.399,27.25
		c4.5,10.633,6.75,21.75,6.75,33.35c0,11.6-2.25,22.717-6.75,33.35c-4.333,10.267-10.467,19.351-18.399,27.25
		c-7.9,7.934-16.983,14.066-27.25,18.4c-10.634,4.5-21.75,6.75-33.351,6.75c-11.6,0-22.716-2.25-33.35-6.75
		c-10.267-4.334-19.367-10.467-27.3-18.4c-7.9-7.899-14.033-16.983-18.4-27.25C2.25,108.467,0,97.35,0,85.75
		c0-11.6,2.25-22.717,6.75-33.35c4.367-10.267,10.5-19.35,18.4-27.25c7.934-7.933,17.034-14.067,27.3-18.4
		C63.083,2.25,74.2,0,85.8,0C97.4,0,108.517,2.25,119.15,6.75C129.417,11.083,138.5,17.217,146.4,25.15z"/>
	
		<linearGradient id="SVGID_3_" gradientUnits="userSpaceOnUse" x1="-171.5854" y1="85.7754" x2="-0.0854" y2="85.7754" gradientTransform="matrix(5.830904e-006 -1 1 -0.001 -9.214067e-005 4.449275e-004)">
		<stop  offset="0.0039" style="stop-color:#4F1D1F"/>
		<stop  offset="0.2078" style="stop-color:#7D5F3C"/>
		<stop  offset="0.5569" style="stop-color:#B09A68"/>
		<stop  offset="0.7412" style="stop-color:#EEEDCF"/>
		<stop  offset="0.7922" style="stop-color:#E7E1AD"/>
		<stop  offset="1" style="stop-color:#B9A57A"/>
	</linearGradient>
	<path style="fill-rule:evenodd;clip-rule:evenodd;fill:url(#SVGID_3_);" d="M146.4,25.15c7.933,7.9,14.066,16.983,18.399,27.25
		c4.5,10.633,6.75,21.75,6.75,33.35c0,11.6-2.25,22.717-6.75,33.35c-4.333,10.267-10.467,19.351-18.399,27.25
		c-7.9,7.934-16.983,14.066-27.25,18.4c-10.634,4.5-21.75,6.75-33.351,6.75c-11.6,0-22.716-2.25-33.35-6.75
		c-10.267-4.334-19.367-10.467-27.3-18.4c-7.9-7.899-14.033-16.983-18.4-27.25C2.25,108.467,0,97.35,0,85.75
		c0-11.6,2.25-22.717,6.75-33.35c4.367-10.267,10.5-19.35,18.4-27.25c7.934-7.933,17.034-14.067,27.3-18.4
		C63.083,2.25,74.2,0,85.8,0C97.4,0,108.517,2.25,119.15,6.75C129.417,11.083,138.5,17.217,146.4,25.15z"/>
	<g>
		<g>
			
				<linearGradient id="SVGID_4_" gradientUnits="userSpaceOnUse" x1="-158.2358" y1="85.8008" x2="-13.4351" y2="85.8008" gradientTransform="matrix(6.906077e-006 -1 1 -0.001 -1.647736e-004 4.449275e-004)">
				<stop  offset="0.0431" style="stop-color:#BAA270"/>
				<stop  offset="1" style="stop-color:#73624A"/>
			</linearGradient>
			<path style="fill-rule:evenodd;clip-rule:evenodd;fill:url(#SVGID_4_);" d="M152.5,57.55c3.8,8.967,5.7,18.367,5.7,28.2
				c0,9.833-1.9,19.233-5.7,28.2c-3.667,8.666-8.833,16.333-15.5,23c-6.667,6.666-14.333,11.833-23,15.5
				c-8.967,3.8-18.366,5.7-28.2,5.7c-9.833,0-19.233-1.9-28.2-5.7c-8.667-3.667-16.333-8.834-23-15.5
				c-6.667-6.667-11.833-14.334-15.5-23c-3.8-8.967-5.7-18.367-5.7-28.2c0-9.833,1.9-19.233,5.7-28.2
				c3.667-8.667,8.833-16.333,15.5-23c6.667-6.667,14.333-11.833,23-15.5c8.967-3.8,18.367-5.7,28.2-5.7
				c9.834,0,19.233,1.9,28.2,5.7c8.667,3.667,16.333,8.833,23,15.5C143.667,41.217,148.833,48.883,152.5,57.55z"/>
		</g>
	</g>
</g>
<g>
	<g>
		
			<linearGradient id="SVGID_5_" gradientUnits="userSpaceOnUse" x1="-151.3354" y1="85.9512" x2="-18.9351" y2="85.9512" gradientTransform="matrix(7.555724e-006 -1 1 -0.001 2.190953e-004 4.449275e-004)">
			<stop  offset="0.0745" style="stop-color:#6C9726"/>
			<stop  offset="0.2196" style="stop-color:#82B13A"/>
			<stop  offset="0.3686" style="stop-color:#9DCF52"/>
			<stop  offset="0.5882" style="stop-color:#CEE03A"/>
			<stop  offset="0.8118" style="stop-color:#D4E237"/>
			<stop  offset="1" style="stop-color:#FDEEB0"/>
		</linearGradient>
		<path style="fill-rule:evenodd;clip-rule:evenodd;fill:url(#SVGID_5_);" d="M85.95,18.85c18.267,0,33.866,6.467,46.8,19.4
			s19.4,28.533,19.4,46.8s-6.467,33.866-19.4,46.8s-28.533,19.4-46.8,19.4s-33.867-6.467-46.8-19.4
			c-12.933-12.934-19.4-28.533-19.4-46.8s6.467-33.866,19.4-46.8C52.083,25.316,67.684,18.85,85.95,18.85z"/>
		<path style="fill-rule:evenodd;clip-rule:evenodd;fill:#22480E;" d="M85.95,19.7c-18.034,0-33.434,6.383-46.2,19.149
			S20.6,67.017,20.6,85.05c0,18.066,6.383,33.467,19.15,46.2c12.767,12.767,28.167,19.15,46.2,19.15
			c18.066,0,33.467-6.384,46.2-19.15c12.767-12.733,19.149-28.134,19.149-46.2c0-18.033-6.383-33.434-19.149-46.2
			C119.417,26.083,104.017,19.7,85.95,19.7z M133.35,37.65c6.334,6.367,11.184,13.617,14.551,21.75
			c3.366,8.167,5.05,16.716,5.05,25.65s-1.684,17.483-5.05,25.65c-3.367,8.133-8.217,15.383-14.551,21.75
			c-6.333,6.333-13.583,11.183-21.75,14.55c-8.166,3.366-16.716,5.05-25.649,5.05c-8.967,0-17.517-1.684-25.65-5.05
			c-8.167-3.367-15.417-8.217-21.75-14.55c-6.333-6.334-11.183-13.584-14.55-21.75c-3.367-8.134-5.05-16.684-5.05-25.65
			c0-8.934,1.683-17.483,5.05-25.65c3.367-8.133,8.217-15.383,14.55-21.75c6.333-6.333,13.583-11.183,21.75-14.55
			c8.134-3.366,16.684-5.05,25.65-5.05c8.934,0,17.483,1.684,25.649,5.05C119.733,26.467,126.983,31.316,133.35,37.65z"/>
	</g>
	
		<radialGradient id="SVGID_6_" cx="85.9502" cy="82.8999" r="59.4002" gradientTransform="matrix(1 0 0 -1 0 165.7998)" gradientUnits="userSpaceOnUse">
		<stop  offset="0" style="stop-color:#FDEEB0"/>
		<stop  offset="0.1882" style="stop-color:#D4E237"/>
		<stop  offset="0.5137" style="stop-color:#CEE03A"/>
		<stop  offset="1" style="stop-color:#A0D051;stop-opacity:0.5373"/>
	</radialGradient>
	<path style="fill-rule:evenodd;clip-rule:evenodd;fill:url(#SVGID_6_);" d="M85.95,23.55c16.434,0,30.45,5.8,42.05,17.4
		c11.6,11.6,17.4,25.583,17.4,41.95s-5.801,30.35-17.4,41.95c-11.6,11.601-25.616,17.4-42.05,17.4s-30.45-5.8-42.05-17.4
		c-11.6-11.6-17.4-25.583-17.4-41.95s5.8-30.35,17.4-41.95C55.5,29.35,69.517,23.55,85.95,23.55z"/>
	<g>
		<path style="fill-rule:evenodd;clip-rule:evenodd;fill:#ECF8BD;" d="M116.45,54.1l0.899-0.45h0.051l0.149-0.05l0.05-0.05l0.9-0.25
			l2.1-0.2l1.95,0.3l1.05,0.3l0.601,0.25c0.1,0.033,0.333,0.133,0.7,0.3l1.1,0.6l0.05,0.05l0.15,0.1l0.55,0.45l0.1,0.05v0.05h0.051
			l0.5,0.5l0.05,0.1l0.5,0.55l0.05,0.1l0.4,0.5c0.566,0.867,1.017,1.783,1.35,2.75v0.05l0.05,0.101l0.351,1.3v0.1l0.05,0.05
			c0.133,0.8-0.05,1.6-0.55,2.4L129.7,64l-1,2.05c-1.267,2.5-2.634,4.783-4.101,6.85l-1.649,2.3l-0.05,0.05
			c-1.601,2.066-3.117,3.783-4.551,5.15l-0.85,0.85c-2.934,3.066-4.95,5.434-6.05,7.1h-0.05l-1.25,2l5.6,1.95
			c1.066,0.4,1.717,0.684,1.95,0.851c0.899,0.5,1.434,1.199,1.6,2.1l0.351,0.5c0.633,0.934,0.75,2.05,0.35,3.35
			c-0.434,1.334-1.417,2.983-2.95,4.95l-1.85,2.351c-1.934,2.5-3.617,4.516-5.05,6.05l2.05,0.399c0.399,0.066,0.783,0.2,1.149,0.4
			c2.233,1.233,4.067,2.166,5.5,2.8l0.75,0.351c1.067,0.399,1.934,0.833,2.601,1.3l0.2,0.1l0.05,0.05
			c0.267,0.167,0.633,0.483,1.1,0.95l0.15,0.15l0.75,0.95l0.05,0.1l0.1,0.1l0.2,0.25l0.05,0.101l0.551,0.649l0.5,0.801l0.3,0.649
			c0.533,1.267,0.417,2.533-0.351,3.8c-0.433,0.733-1.25,1.617-2.449,2.65l-0.7,0.65l-0.2,0.149l-0.9,0.8l-2,1.45l-0.1,0.101
			l-2.15,1.05l-1.8,0.55h-0.05l-0.55,0.15c-2.033,0.466-4.783,0.699-8.25,0.699l-3.7,0.051l-0.25,0.05l-2.1-0.05
			c-1.967-0.034-3.467,0.016-4.5,0.149H96.05l-0.1,0.05l-7.4,2.101c-0.899,0.2-1.767,0.3-2.6,0.3L83.4,137
			c-1.667-0.2-2.933-0.4-3.8-0.6l-2.15-0.5H77.3l-10-1.75h-0.15c-2.2-0.268-4.433-0.601-6.7-1l-2.2-0.4H58.1l-1-0.15
			c-1.8-0.1-3.383-0.517-4.75-1.25l-0.45-0.199c-1.3-0.7-2.216-1.301-2.75-1.801l-0.4-0.399l-0.1-0.15c-1-1.267-1.2-2.899-0.6-4.899
			l0.4-1.101c0.233-1,0.783-1.934,1.65-2.8c0.2-0.267,0.483-0.483,0.85-0.65l3.7-1.85l0.15-0.05l1.35-0.65l0.15-0.1l2.65-1.4
			l1.2-0.8c1.667-1.2,3.067-2.033,4.2-2.5c0.9-0.334,1.883-0.483,2.95-0.45c0.434-0.134,1.284-0.533,2.55-1.2l1.9-1h0.05l0.3-0.199
			c0.8-0.4,1.717-0.601,2.75-0.601l0.25-2.149c0.367-2.601,1.883-6.784,4.55-12.551l1.85-4.5c0.434-0.967,0.9-1.833,1.4-2.6
			l0.8-0.85l0.95-0.6l0.9-0.3l0.101-0.05H85.8l0.7-0.101h0.85l0.2,0.05h0.55l0.2,0.05l2.75,0.35c1.334,0.233,2.217,0.35,2.65,0.35
			l0.1,0.05l0.2-0.05c1-1.2,2.217-1.983,3.65-2.35L99.1,81l0.051-0.1l1.55-2.3l0.05-0.05l0.45-0.65l0.05-0.1l1.25-1.75l0.05-0.1
			L103,75.4l0.05-0.1l2.4-3.5c0.434-0.866,1.033-1.917,1.8-3.15c1.634-2.633,3.483-5.85,5.55-9.65l1.2-2.3V56.6l0.1-0.149l0.101-0.2
			l0.2-0.25c0.3-0.5,0.733-0.967,1.3-1.4l0.2-0.1L116.45,54.1z"/>
		
			<linearGradient id="SVGID_7_" gradientUnits="userSpaceOnUse" x1="-136.4351" y1="88.9785" x2="-52.3701" y2="88.9785" gradientTransform="matrix(1.188707e-005 -1 1 -0.001 1.770947e-004 4.449275e-004)">
			<stop  offset="0.0745" style="stop-color:#6B9724"/>
			<stop  offset="0.2588" style="stop-color:#82B139"/>
			<stop  offset="0.4471" style="stop-color:#9DCF52"/>
			<stop  offset="0.9647" style="stop-color:#DAE772"/>
		</linearGradient>
		<path style="fill-rule:evenodd;clip-rule:evenodd;fill:url(#SVGID_7_);" d="M116.45,53.2l0.899-0.4l0.051-0.05l0.149-0.05h0.05
			l1.301-0.351l1.699-0.1l1.2,0.1l0.75,0.15l2.351,0.85l0.85,0.45L126,54h0.05l0.15,0.15l0.25,0.15l0.3,0.3l0.1,0.05l0.051,0.05
			l0.149,0.1l0.9,1l0.05,0.1l0.4,0.5c0.533,0.833,0.983,1.767,1.35,2.8l0.4,1.399V60.7l0.05,0.1c0.128,0.675-0.038,1.441-0.5,2.3
			l-0.05,0.15l-0.95,1.95c-1.3,2.466-2.667,4.75-4.101,6.85l-1.649,2.25l-0.05,0.1c-1.5,1.933-3.017,3.633-4.551,5.1l-0.85,0.9
			c-3,3.167-5.017,5.517-6.05,7.05l-0.05,0.05l-1.25,1.95l0.5,0.2v0.05l1.6,0.649c0.467,0.066,0.8,0.15,1,0.25l1.4,0.4l0.3,0.15
			l0.8,0.3c0.833,0.267,1.483,0.533,1.95,0.8c0.899,0.5,1.434,1.217,1.6,2.15l0.351,0.449c0.633,0.967,0.75,2.101,0.35,3.4
			c-0.434,1.3-1.417,2.95-2.95,4.95l-1.85,2.35c-1.8,2.333-3.483,4.333-5.05,6l1.85,0.4h0.2c0.5,0.133,0.883,0.283,1.149,0.45
			c2.301,1.266,4.134,2.183,5.5,2.75l0.75,0.35c1.233,0.533,2.101,0.967,2.601,1.3l0.2,0.15l0.05,0.05
			c0.366,0.233,0.733,0.533,1.1,0.9l0.15,0.149l0.75,1l0.05,0.05l0.3,0.4l0.05,0.05L125.9,121l0.3,0.65
			c0.5,1.3,0.383,2.566-0.351,3.8c-0.466,0.8-1.283,1.7-2.449,2.7l-0.101,0.1l-0.6,0.5l-0.2,0.2l-0.75,0.6l-0.15,0.15l-2,1.5
			l-1.05,0.6l-0.2,0.05l-1,0.45l-0.199,0.05L117,132.45l-0.3,0.05l-0.5,0.2l-0.65,0.149l-0.05,0.051l-0.55,0.1
			c-2.033,0.467-4.783,0.7-8.25,0.7l-6.05,0.1c-2.2-0.066-3.7-0.017-4.5,0.15h-0.2l-0.9,0.25h-0.2l-4.199,1.149
			c-0.934,0.4-1.634,0.65-2.101,0.75c-1,0.167-1.866,0.25-2.6,0.25c-0.767,0-1.367-0.033-1.8-0.1l-0.75-0.1
			c-1.333-0.167-2.6-0.384-3.8-0.65l-2.15-0.45L77.3,135l-8.25-1.55l-1.75-0.15l-0.15-0.05c-2.2-0.267-4.433-0.6-6.7-1l-2.2-0.35
			l-0.15-0.051l-1-0.1c-1.8-0.134-3.383-0.55-4.75-1.25l-0.45-0.25c-1.2-0.566-2.117-1.15-2.75-1.75l-0.5-0.55
			c-1-1.334-1.2-2.967-0.6-4.9l0.4-1.1c0.233-1.034,0.783-1.983,1.65-2.851l0.85-0.649l3.7-1.8l0.15-0.101l1.35-0.649l0.15-0.051
			l3.85-2.199c1.767-1.301,3.167-2.134,4.2-2.5c0.967-0.367,1.95-0.534,2.95-0.5c0.333-0.067,1.184-0.467,2.55-1.2l1.9-1h0.05
			l0.3-0.15c0.8-0.399,1.717-0.6,2.75-0.6l0.25-2.2c0.367-2.533,1.883-6.717,4.55-12.55l1.85-4.45c0.5-1.134,0.967-2,1.4-2.6
			l0.1-0.15l0.7-0.7l0.6-0.45l0.35-0.149c0.2-0.134,0.5-0.25,0.9-0.351h0.101l0.149-0.05L87.55,84l0.55,0.05h0.2l5.4,0.75H94
			c0.934-1.2,2.15-1.983,3.65-2.35L99.1,80.1l0.051-0.05l1.55-2.35l0.05-0.05L101.2,77l0.05-0.05l1.25-1.75l0.05-0.101l0.45-0.6
			l0.05-0.05l2.4-3.55c0.333-0.7,0.934-1.733,1.8-3.1c1.8-2.967,3.65-6.184,5.55-9.65l1.2-2.35v-0.05l0.1-0.2l0.301-0.45
			c0.366-0.533,0.8-1,1.3-1.399l0.2-0.101L116.45,53.2z"/>
		<path style="fill-rule:evenodd;clip-rule:evenodd;fill:none;stroke:#ECF8BD;stroke-width:0.25;" d="M116.45,53.2L115.9,53.6
			l-0.2,0.101c-0.5,0.399-0.934,0.866-1.3,1.399l-0.301,0.45l-0.1,0.2v0.05l-1.2,2.35c-1.899,3.466-3.75,6.683-5.55,9.65
			c-0.866,1.367-1.467,2.4-1.8,3.1l-2.4,3.55L103,74.5l-0.45,0.6L102.5,75.2l-1.25,1.75L101.2,77l-0.45,0.65l-0.05,0.05l-1.55,2.35
			L99.1,80.1L97.65,82.45c-1.5,0.366-2.717,1.149-3.65,2.35h-0.3l-5.4-0.75h-0.2L87.55,84l-1.75,0.05L85.65,84.1H85.55
			c-0.399,0.101-0.7,0.217-0.9,0.351L84.3,84.6l-0.6,0.45l-0.7,0.7l-0.1,0.15c-0.433,0.6-0.9,1.466-1.4,2.6l-1.85,4.45
			c-2.667,5.833-4.183,10.017-4.55,12.55l-0.25,2.2c-1.033,0-1.95,0.2-2.75,0.6l-0.3,0.15h-0.05l-1.9,1
			c-1.367,0.733-2.217,1.133-2.55,1.2c-1-0.034-1.983,0.133-2.95,0.5c-1.033,0.366-2.434,1.199-4.2,2.5l-3.85,2.199l-0.15,0.051
			l-1.35,0.649l-0.15,0.101l-3.7,1.8L50.1,119.1c-0.867,0.867-1.417,1.816-1.65,2.851l-0.4,1.1c-0.6,1.934-0.4,3.566,0.6,4.9
			l0.5,0.55c0.633,0.6,1.55,1.184,2.75,1.75l0.45,0.25c1.367,0.7,2.95,1.116,4.75,1.25l1,0.1l0.15,0.051l2.2,0.35
			c2.267,0.4,4.5,0.733,6.7,1l0.15,0.05l1.75,0.15L77.3,135l0.15,0.05l2.15,0.45c1.2,0.267,2.467,0.483,3.8,0.65l0.75,0.1
			c0.434,0.066,1.034,0.1,1.8,0.1c0.733,0,1.6-0.083,2.6-0.25c0.467-0.1,1.167-0.35,2.101-0.75l4.199-1.149h0.2l0.9-0.25h0.2
			c0.8-0.167,2.3-0.217,4.5-0.15l6.05-0.1c3.467,0,6.217-0.233,8.25-0.7l0.55-0.1l0.05-0.051l0.65-0.149l0.5-0.2l0.3-0.05
			l0.15-0.101l0.199-0.05l1-0.45l0.2-0.05l1.05-0.6l2-1.5l0.15-0.15l0.75-0.6l0.2-0.2l0.6-0.5l0.101-0.1
			c1.166-1,1.983-1.9,2.449-2.7c0.733-1.233,0.851-2.5,0.351-3.8l-0.3-0.65l-1.051-1.45l-0.05-0.05l-0.3-0.4l-0.05-0.05l-0.75-1
			l-0.15-0.149c-0.366-0.367-0.733-0.667-1.1-0.9l-0.05-0.05l-0.2-0.15c-0.5-0.333-1.367-0.767-2.601-1.3l-0.75-0.35
			c-1.366-0.567-3.199-1.484-5.5-2.75c-0.267-0.167-0.649-0.317-1.149-0.45H112l-1.85-0.4c1.566-1.667,3.25-3.667,5.05-6l1.85-2.35
			c1.533-2,2.517-3.65,2.95-4.95c0.4-1.3,0.283-2.434-0.35-3.4L119.3,94.4c-0.166-0.934-0.7-1.65-1.6-2.15
			c-0.467-0.267-1.117-0.533-1.95-0.8l-0.8-0.3l-0.3-0.15l-1.4-0.4c-0.2-0.1-0.533-0.184-1-0.25l-1.6-0.649v-0.05l-0.5-0.2
			l1.25-1.95l0.05-0.05c1.033-1.534,3.05-3.884,6.05-7.05l0.85-0.9c1.534-1.467,3.051-3.167,4.551-5.1l0.05-0.1l1.649-2.25
			c1.434-2.1,2.801-4.383,4.101-6.85l0.95-1.95l0.05-0.15c0.462-0.858,0.628-1.625,0.5-2.3l-0.05-0.1V60.6l-0.4-1.399
			c-0.366-1.034-0.816-1.967-1.35-2.8l-0.4-0.5l-0.05-0.1l-0.9-1l-0.149-0.1l-0.051-0.05l-0.1-0.05l-0.3-0.3l-0.25-0.15L126.05,54
			H126l-0.25-0.2l-0.85-0.45l-2.351-0.85l-0.75-0.15l-1.2-0.1l-1.699,0.1L117.6,52.7h-0.05l-0.149,0.05l-0.051,0.05L116.45,53.2z"/>
		<path style="fill-rule:evenodd;clip-rule:evenodd;fill:#22480E;" d="M118.3,55.35l0.5-0.2l0.05-0.05l0.5-0.149h0.2l0.65-0.101
			h0.149l1.551,0.25l0.699,0.25l0.2,0.05L124,56v0.05l0.05,0.05l0.2,0.101l0.25,0.25l0.15,0.1l0.6,0.7l0.05,0.05l0.25,0.4h0.05
			c0.4,0.666,0.768,1.416,1.101,2.25V60l0.3,1.1l0.05,0.05v0.05c0.033,0.2-0.066,0.483-0.3,0.85l-0.05,0.15l-0.05,0.05l-0.9,1.9
			c-1.2,2.333-2.517,4.534-3.95,6.6l-1.35,1.9l-0.25,0.3c-1.3,1.7-2.733,3.316-4.3,4.85l-0.9,0.95c-3.133,3.3-5.267,5.783-6.4,7.45
			v0.05c-0.899,1.333-1.8,2.783-2.699,4.35l0.6,0.25V90.9l1.25,0.5l0.15,0.1l0.899,0.35l0.4,0.2l2.25,0.9
			c0.167-0.067,0.3-0.067,0.399,0l2.7,0.95c0.601,0.166,1.033,0.333,1.3,0.5c0.268,0.166,0.351,0.383,0.25,0.649
			c-0.033,0.066,0,0.2,0.101,0.4l0.05,0.05l0.3,0.25l0.05,0.05l0.301,0.351c0.6,0.866-0.25,2.732-2.551,5.6l-1.899,2.4
			c-3,3.933-5.75,6.982-8.25,9.149l0.5,0.4l0.25,0.149l0.149,0.051l1.101,0.149c0.2-0.033,0.483-0.05,0.85-0.05l2.4,0.1l0.7,0.15
			h0.05l0.3,0.1l0.65,0.101l0.1,0.05h0.15l0.199,0.1c3.067,1.601,4.967,2.566,5.7,2.9l0.9,0.4c0.899,0.366,1.6,0.699,2.1,1v0.05
			l0.75,0.6l0.05,0.05l0.601,0.75l0.149,0.25l0.801,1l0.35,0.551l0.15,0.3c0.267,0.6,0.199,1.233-0.2,1.899
			c-0.267,0.434-0.867,1.084-1.8,1.95L121,126.4l-1.55,1.35l-0.15,0.15l-0.7,0.55L117.7,129.1h-0.05l-0.95,0.5l-0.05,0.051l-0.7,0.3
			h-0.05L115.8,130l-1.25,0.35v0.051l-0.399,0.05H114.1v0.05c-1.433,0.333-3.899,0.533-7.399,0.6l-3.9,0.051l-0.05,0.05h-0.15
			l-0.149-0.05l-0.2,0.05L98.9,131.1c-1.267,0-2.4,0.084-3.4,0.25h-0.05l-0.601,0.101l-3.899,1.05l-3.25,1.05
			c-0.8,0.134-1.384,0.2-1.75,0.2l-2.05-0.2c-1.466-0.167-2.617-0.366-3.45-0.6l-2.25-0.45h-0.05l-4.35-0.95l-0.35-0.1l-5.7-0.75
			l-0.15-0.05c-1.434-0.134-3.6-0.45-6.5-0.95l-2.25-0.4l-0.15-0.05l-1.35-0.15c-1.267-0.1-2.367-0.383-3.3-0.85L53.5,128
			c-1-0.533-1.65-0.95-1.95-1.25l-0.15-0.15c-0.566-0.633-0.65-1.6-0.25-2.899l0.15-0.5c0.1-0.134,0.15-0.284,0.15-0.45l0.1-0.25
			c0.134-0.6,0.467-1.184,1-1.75l0.15-0.1l1.5-0.801h0.1l1.9-0.949l0.15-0.051l1.45-0.699l0.15-0.051l4.25-2.449
			c1.533-1.101,2.7-1.801,3.5-2.101c0.533-0.233,1.15-0.316,1.85-0.25h0.15l0.1-0.05c0.8-0.134,2.067-0.667,3.8-1.6l1.75-0.9
			l0.15-0.05l0.25-0.15c0.434-0.233,0.917-0.3,1.45-0.2c1.267-0.333,2.083-0.566,2.45-0.699h0.2c0.1-1.434,0.233-2.7,0.4-3.801
			c0.333-2.166,1.783-6.149,4.35-11.949l1.1-2.551l0.1-0.3L83.85,91l0.65-1.6c0.434-1,0.816-1.717,1.15-2.15l0.05-0.1l0.25-0.25
			l0.2-0.15h0.05l0.25-0.1l0.3-0.051h0.55l0.45,0.051h0.1l2.65,0.399c1.8,0.233,2.8,0.351,3,0.351c0.8,0.066,1.667-0.034,2.6-0.301
			c0.233-0.5,0.567-0.949,1-1.35c0.634-0.566,1.351-0.85,2.15-0.85l0.45,0.05l3.1-4.9l0.101-0.2l0.55-0.8l0.05-0.1h0.05l1.65-2.4
			l0.1-0.1l0.4-0.55l0.05-0.05l0.1-0.149l0.45-0.55l3.8-6.2c2.301-3.733,4.167-6.983,5.601-9.75l1.3-2.5l0.05-0.05v-0.1l0.15-0.15
			v-0.05l0.7-0.7l0.1-0.05L118.3,55.35z"/>
		<g>
			<g>
				<path style="fill-rule:evenodd;clip-rule:evenodd;fill:#6C371B;" d="M94,108.7c-0.033-0.5-0.15-0.934-0.35-1.3
					c0.833,0.266,1.833,0.732,3,1.399c1.3,0.767,2.217,1.25,2.75,1.45c0.199,0.566,0.3,0.9,0.3,1c0.2,1.467-0.066,2.733-0.8,3.8
					c-0.301,0.434-0.567,0.7-0.801,0.8c-0.232,0.066-0.616,0.066-1.149,0c-0.566-0.066-1.066-0.316-1.5-0.75
					c-0.3-0.267-0.7-0.767-1.2-1.5c-0.633-0.899-0.866-1.699-0.7-2.399C93.85,109.833,94,109,94,108.7z"/>
				<path style="fill-rule:evenodd;clip-rule:evenodd;fill:#6C371B;" d="M77.9,110.15c0.633-0.034,1.684-0.018,3.15,0.05
					c1.367,0.066,2.417,0.066,3.15,0c2.899-0.233,4.934-0.317,6.1-0.25c1.267,0.066,2.867,0.416,4.8,1.05
					c3.034,0.934,4.634,1.416,4.801,1.45c0.199,0.033,0.649,0.1,1.35,0.2c0.566,0.1,1,0.199,1.3,0.3c0.3,0.1,0.7,0.35,1.2,0.75
					c0.467,0.399,0.85,0.649,1.15,0.75c0.666,0.2,1.633,0.316,2.899,0.35c1.5,0.033,2.483,0.083,2.95,0.15l0.5,0.1
					c2.3,1.233,4.217,2.2,5.75,2.9c0.6,0.267,1.384,0.616,2.35,1.05c0.733,0.434,1.317,0.967,1.75,1.6l0.2,0.301
					c0.233,0.333,0.601,0.833,1.101,1.5c0.366,0.6,0.3,1.25-0.2,1.949c-0.233,0.367-0.783,0.917-1.65,1.65
					c-0.533,0.467-1.283,1.116-2.25,1.95c-0.866,0.666-1.767,1.166-2.7,1.5c-1.566,0.566-3.5,0.916-5.8,1.05
					c-2.7,0.033-4.7,0.066-6,0.1c-0.267,0-1.8-0.017-4.6-0.05c-1.9,0-3.417,0.134-4.55,0.4c-2.634,0.733-4.617,1.25-5.95,1.55
					c-2.3,0.5-4.367,0.6-6.2,0.3c-1-0.167-3.133-0.616-6.4-1.35c-2.7-0.601-4.9-0.983-6.6-1.15c-2.633-0.233-5.383-0.616-8.25-1.149
					c-1.7-0.334-2.983-0.534-3.85-0.601c-1.1-0.033-2.1-0.283-3-0.75c-0.533-0.267-0.933-0.467-1.2-0.6
					c-0.467-0.267-0.85-0.534-1.15-0.8c-0.566-0.534-0.65-1.384-0.25-2.551l0.4-1.25c0.133-0.533,0.433-1.033,0.9-1.5
					c0.733-0.399,2.1-1.066,4.1-2c1.767-0.833,3.133-1.55,4.1-2.149c1.434-0.934,3.034-1.9,4.8-2.9c0.8-0.066,1.417-0.149,1.85-0.25
					c0.8-0.134,1.767-0.483,2.9-1.05c0.633-0.334,1.583-0.85,2.85-1.55C74.833,111.033,76.233,110.684,77.9,110.15z"/>
				<path style="fill-rule:evenodd;clip-rule:evenodd;fill:#5E3117;" d="M76.1,131.45c-2.7-0.601-4.9-0.983-6.6-1.15l-14.55-2.25
					l-0.55-0.25c-0.533-0.267-0.933-0.467-1.2-0.6c-0.467-0.267-0.85-0.534-1.15-0.8c-0.566-0.534-0.65-1.384-0.25-2.551l0.4-1.25
					c0.133-0.533,0.433-1.033,0.9-1.5l1.45-0.75c2.434-1.1,4.233-1.983,5.4-2.649c-0.7,0.533-1.75,1.283-3.15,2.25
					c0.434-0.167,1.1-0.483,2-0.95c0.9-0.467,1.583-0.8,2.05-1c-0.333,0.733-1.1,1.366-2.3,1.9c-0.667,0.3-1.616,0.716-2.85,1.25
					c1.066,0.166,2.316-0.101,3.75-0.801c1.966-0.967,3.133-1.5,3.5-1.6c-0.6,0.767-1.517,1.55-2.75,2.35
					c-1.667,1.066-2.65,1.717-2.95,1.95c0.4,0.033,1.033-0.033,1.9-0.2c0.8-0.166,1.4-0.199,1.8-0.1l-0.35,0.85
					c0.4,0,1.017-0.083,1.85-0.25c0.8-0.166,1.4-0.25,1.8-0.25c-0.033,0.2-0.017,0.551,0.05,1.051c0.634-0.067,1.067-0.067,1.3,0
					c0.433,0.1,0.7,0.399,0.8,0.899c0.667,0.033,1.45-0.116,2.35-0.45c0,0.066,0.05,0.267,0.15,0.601c0.1,0.3,0.133,0.533,0.1,0.7
					c0.4,0.066,0.867-0.018,1.4-0.25c0.733-0.334,1.2-0.518,1.4-0.551c-0.167,1.467,0.217,2.334,1.15,2.601
					c0.333,0.1,1.333,0.066,3-0.101c0.1,0,0.5-0.116,1.2-0.35c0.633-0.167,1.017-0.233,1.15-0.2c0.4,0.101,0.967,0.434,1.7,1
					c0.6,0.3,1.017-0.017,1.25-0.95c0.7,0.467,1.15,0.483,1.35,0.051l0.4-0.95c0.367-0.101,0.733-0.067,1.1,0.1
					c0.467,0.233,0.867,0.366,1.2,0.4c0.033-0.834,0.05-1.45,0.05-1.851c0.034-0.699,0.134-1.3,0.301-1.8
					c0.533,0.3,1.183,0.851,1.949,1.65c0.934,0.933,1.584,1.55,1.95,1.85c0.467-0.6,1.117-0.833,1.95-0.7
					c0.167-1,0.2-1.733,0.1-2.199c0.601,0.066,1.25,0.449,1.95,1.149c0.967,1,1.55,1.566,1.75,1.7c0.233-0.667,0.134-1.717-0.3-3.15
					c0.733,0.2,2.017,0.667,3.85,1.4c1.634,0.434,2.851,0.133,3.65-0.9c0.3-0.366,0.4-0.85,0.3-1.449
					c-0.033-0.234,0.334-0.2,1.101,0.1c0.3,0.1,0.683,0.366,1.149,0.8c0.601,0.5,0.967,0.8,1.101,0.9l0.1-0.8l0.9,0.149
					c0.366,0.066,0.666,0.184,0.899,0.351c0.467-0.634,0.733-1.384,0.8-2.25c1,0.033,2.184,0.6,3.551,1.699
					c0.133-0.399,0.416-0.6,0.85-0.6c0.267,0,0.7,0.033,1.3,0.1c0-0.8-0.583-1.566-1.75-2.3c-1.399-0.733-2.316-1.25-2.75-1.55
					c0.567,0.233,1.45,0.6,2.65,1.1c-0.267-0.934-0.517-1.566-0.75-1.899c0.633,0,1.5,0.383,2.6,1.149c1,0.7,1.851,0.983,2.55,0.851
					c0.034,0.3,0.134,0.733,0.301,1.3c-0.067-0.3-0.051-0.65,0.05-1.05c0.1-0.4,0.167-0.7,0.2-0.9
					c0.733,0.601,1.416,0.884,2.05,0.851c0.066-0.467,0.083-0.817,0.05-1.051h0.1c0.5,0.301,0.917,0.717,1.25,1.25l0.2,0.301
					c0.233,0.333,0.601,0.833,1.101,1.5c0.366,0.6,0.3,1.25-0.2,1.949c-0.233,0.367-0.783,0.917-1.65,1.65
					c-0.467,0.4-1.116,0.983-1.95,1.75c-0.732,0.6-1.466,1.066-2.199,1.4H116.3l-0.649,0.3l-0.2,0.05l-1.05,0.35l-1.2,0.25
					c-1.101,0.2-2.4,0.334-3.9,0.4c-1.767,0.033-3.1,0.05-4,0.05l-1.5,0.05c-0.267,0-1.8-0.017-4.6-0.05
					c-1.9,0-3.417,0.134-4.55,0.4c-2.634,0.733-4.617,1.25-5.95,1.55c-2.3,0.5-4.367,0.6-6.2,0.3
					C81.5,132.633,79.367,132.184,76.1,131.45z"/>
				<path style="fill-rule:evenodd;clip-rule:evenodd;fill:#552B13;" d="M76.1,131.45c-2.7-0.601-4.9-0.983-6.6-1.15l-14.55-2.25
					l-0.55-0.25c-0.533-0.267-0.933-0.467-1.2-0.6c-0.467-0.267-0.85-0.534-1.15-0.8c-0.566-0.534-0.65-1.384-0.25-2.551l0.35-1
					c0.067,0.167,0.284,0.4,0.65,0.7c0.3,0.233,0.434,0.533,0.4,0.9c0.466,0.033,1.15,0.233,2.05,0.6
					c0.767,0.333,1.45,0.467,2.05,0.4l0.05-0.55c0.533-0.067,0.983-0.018,1.35,0.149c0.066,0.033,0.466,0.283,1.2,0.75
					c0.1,0.066,0.25,0.083,0.45,0.05c0.2,0,0.35,0.017,0.45,0.051c0.134,0.066,0.284,0.232,0.45,0.5c0.167,0.3,0.3,0.482,0.4,0.55
					c0.434,0.267,1.067,0.416,1.9,0.45c1.067,0.366,2.284,0.516,3.65,0.449c2.066-0.066,3.283-0.083,3.65-0.05
					c0.1,1.066,0.583,1.684,1.45,1.851h2.6c1.5,0,2.617,0.066,3.35,0.199c1.233,0.233,2.267,0.733,3.1,1.5
					c0.3-0.233,0.683-0.3,1.15-0.199c0.567,0.066,0.967,0.083,1.2,0.05c0.2-0.034,0.383-0.134,0.55-0.3
					c0.2-0.167,0.367-0.268,0.5-0.301c0.767,0,1.233-0.066,1.4-0.199c0.5-0.367,0.683-1.167,0.55-2.4
					c-0.233-1.367-0.351-2.283-0.351-2.75c0.434,0.2,0.917,0.833,1.45,1.9c0.601,1.166,1.033,1.883,1.3,2.149
					c0.434,0.434,0.733,0.7,0.9,0.8c0.333,0.2,0.717,0.25,1.15,0.15c0.467-0.1,0.683-0.316,0.649-0.65c0-0.366,0.067-0.6,0.2-0.699
					c0.3-0.2,0.917-0.117,1.85,0.25c0.867,0.366,1.483,0.283,1.851-0.25c0.233-0.367,0.333-1.2,0.3-2.5
					c-0.033-1.101-0.133-1.934-0.3-2.5c0.533,0.166,1.133,0.516,1.8,1.05c0.6,0.466,1.083,0.95,1.45,1.45
					c0.2,0.3,0.399,0.616,0.6,0.949c0.2,0.267,0.483,0.467,0.851,0.601c0.967,0.366,2.566,0.483,4.8,0.35
					c0.233-0.8,0.017-1.45-0.65-1.95c0.434,0.033,1.15,0.316,2.15,0.851c0.934,0.466,1.649,0.7,2.149,0.7l0.051-0.301
					c0.899-0.033,1.399-0.083,1.5-0.149c0.3-0.167,0.433-0.7,0.399-1.601c0.267,0,1,0.101,2.2,0.301c0.9,0.166,1.617,0.199,2.15,0.1
					c-0.033-0.667-0.084-1.1-0.15-1.3c0.167,0.033,0.434,0,0.8-0.101c0.101-0.733-0.366-1.616-1.399-2.649
					c-0.167-0.467-0.551-0.917-1.15-1.351l-0.15-0.35c0.534-0.1,1.084,0.1,1.65,0.6c0.767,0.634,1.267,1,1.5,1.101
					c0.167,0.066,0.333,0.066,0.5,0c0.167-0.067,0.316-0.084,0.45-0.05c0.066,0,0.717,0.149,1.95,0.449
					c0.8,0.2,1.449,0.316,1.949,0.351c-0.3-0.733-0.416-1.3-0.35-1.7c0.167,0.066,0.467,0.1,0.9,0.1l0.75,1.051
					c0.366,0.6,0.3,1.25-0.2,1.949c-0.233,0.367-0.783,0.917-1.65,1.65c-0.467,0.4-1.116,0.983-1.95,1.75
					c-0.732,0.6-1.466,1.066-2.199,1.4H116.3l-0.649,0.3l-2.45,0.649c-1.101,0.2-2.4,0.334-3.9,0.4c-1.767,0.033-3.1,0.05-4,0.05
					l-1.5,0.05c-0.267,0-1.8-0.017-4.6-0.05c-1.9,0-3.417,0.134-4.55,0.4c-2.634,0.733-4.617,1.25-5.95,1.55
					c-2.3,0.5-4.367,0.6-6.2,0.3C81.5,132.633,79.367,132.184,76.1,131.45z"/>
				<path style="fill-rule:evenodd;clip-rule:evenodd;fill:#462212;" d="M77.25,131c0.467,0.5,0.833,0.816,1.1,0.95l-23.4-3.9
					l-0.55-0.25c-0.533-0.267-0.933-0.467-1.2-0.6c-0.467-0.267-0.85-0.534-1.15-0.8l-0.1-0.15h0.85c0.134,0.566,0.7,0.833,1.7,0.8
					c0.533,0,1.233-0.083,2.1-0.25c0.566-0.033,1.333,0.101,2.3,0.4c1.167,0.333,1.967,0.533,2.4,0.6c1,0.134,2.5,0.3,4.5,0.5
					c1.733,0.2,3.184,0.566,4.35,1.101c1.3,0.533,3.217,0.883,5.75,1.05C76.467,130.483,76.917,130.666,77.25,131z"/>
				<path style="fill-rule:evenodd;clip-rule:evenodd;fill:#502715;" d="M89,132.45c-1.8,0.399-3.417,0.566-4.85,0.5h0.25
					c0.633-0.067,1.3-0.3,2-0.7c0.767-0.467,1.366-0.834,1.8-1.1l0.05-2.051c0.4,0.101,0.816,0.384,1.25,0.851
					c0.434,0.5,0.85,0.8,1.25,0.899c1.167,0.2,2.15,0.316,2.95,0.351C91.634,131.8,90.066,132.217,89,132.45z"/>
				<path style="fill-rule:evenodd;clip-rule:evenodd;fill:#502715;" d="M99,130.6c-1.467-0.033-2.684,0.033-3.65,0.2
					c0.034-0.2,0.184-0.384,0.45-0.55c0.3-0.233,0.5-0.434,0.601-0.6c0.233-0.367,0.383-0.7,0.449-1c0-0.067,0.034-0.467,0.101-1.2
					c0.233-0.067,0.55,0.1,0.95,0.5c0.199,0.2,0.5,0.517,0.899,0.95c0.767,0.766,1.75,1.283,2.95,1.55l1,0.2
					C101.083,130.616,99.833,130.6,99,130.6z"/>
				<path style="fill-rule:evenodd;clip-rule:evenodd;fill:#462212;" d="M117.95,125.05c0.566,0.066,1.033-0.017,1.399-0.25
					c0.2-0.1,0.584-0.333,1.15-0.7c0.267-0.1,0.65-0.133,1.15-0.1c0.366-0.033,0.517-0.367,0.449-1l0.5-0.05
					c0.101,0.5-0.083,1.05-0.55,1.649c-0.267,0.301-0.767,0.767-1.5,1.4c-0.5,0.434-1.233,1.05-2.2,1.85
					c-0.833,0.667-1.683,1.167-2.55,1.5l-0.25,0.15l-1.6,0.45l-2.351,0.399l-0.85,0.051h-0.05c-1.066,0.1-2.684,0.149-4.851,0.149
					c0.233-0.167,0.4-0.399,0.5-0.7c0.067-0.434,0.117-0.8,0.15-1.1c0.434-0.033,0.983,0.116,1.65,0.45
					c0.666,0.366,1.199,0.517,1.6,0.45c0.267-0.034,0.9-0.217,1.9-0.551c0.633-0.1,0.983-0.166,1.05-0.199
					c0.233-0.167,0.35-0.534,0.35-1.101c1.167-0.134,1.8-0.217,1.9-0.25c0.6-0.233,0.983-0.866,1.149-1.899
					c0.134-0.734-0.183-1.584-0.949-2.551c-0.934-1.199-1.434-1.916-1.5-2.149c0.666,0.233,1.517,0.883,2.55,1.95
					C117.1,123.8,117.684,124.517,117.95,125.05z"/>
				<path style="fill-rule:evenodd;clip-rule:evenodd;fill:#401F10;" d="M115.3,123.15c0.134,0.166,0.434,0.433,0.9,0.8
					c0.399,0.333,0.649,0.6,0.75,0.8c0.066,0.133,0.1,0.35,0.1,0.65c0,0.333,0.033,0.533,0.101,0.6c0.1,0.166,0.267,0.267,0.5,0.3
					c0.199,0.033,0.316,0.2,0.35,0.5s-0.083,0.634-0.35,1c-0.233,0.3-0.483,0.517-0.75,0.65c-0.334,0.233-0.65,0.333-0.95,0.3
					c-0.367-0.066-0.583-0.3-0.65-0.7c-0.033-0.233,0-0.533,0.101-0.899c0.166-0.467,0.25-0.784,0.25-0.95
					c0.033-0.233,0-0.5-0.101-0.8c-0.1-0.367-0.183-0.65-0.25-0.851c-0.133-0.366-0.166-0.934-0.1-1.7L115.3,123.15z"/>
				<path style="fill-rule:evenodd;clip-rule:evenodd;fill:#401F10;" d="M97.4,128.8l-0.051,0.4c0.834-0.067,1.167,0.283,1,1.05
					c-0.699,0-1.149-0.033-1.35-0.1C97,129.783,97.134,129.333,97.4,128.8z"/>
				<path style="fill-rule:evenodd;clip-rule:evenodd;fill:#401F10;" d="M89,130.15h0.1c0.268,0,0.551,0.1,0.851,0.3
					c0.333,0.233,0.45,0.483,0.35,0.75c-0.166,0.433-0.433,0.466-0.8,0.1C89.134,130.9,88.967,130.517,89,130.15z"/>
				<path style="fill-rule:evenodd;clip-rule:evenodd;fill:#462212;" d="M89.15,132.4c-0.834,0.366-1.367,0.566-1.601,0.6
					c-0.967,0.2-1.899,0.233-2.8,0.1c-2.63-0.324-4.58-0.725-5.85-1.199c0.225,0.07,0.525,0.121,0.9,0.149
					c0.567,0.033,0.917,0.066,1.05,0.101c0.767,0.199,1.483,0.3,2.15,0.3c0.267,0,0.7-0.117,1.3-0.351
					c0.534-0.233,0.983-0.316,1.351-0.25c1,0.267,1.833,0.316,2.5,0.15h2.399C90.15,132.026,89.684,132.16,89.15,132.4z"/>
				<path style="fill-rule:evenodd;clip-rule:evenodd;fill:#643117;" d="M88.95,118.15c-3.066,0.066-5.267-0.117-6.6-0.551
					c0.167,0,1.333,0.033,3.5,0.101c1.467,0.066,2.584-0.117,3.351-0.55c0.066-0.034,0.1-0.117,0.1-0.25
					c0-0.134,0.05-0.234,0.15-0.301c0.233-0.133,0.616-0.184,1.149-0.149c0.601,0.033,1.018,0.017,1.25-0.05
					c0.2-0.067,0.467-0.2,0.801-0.4c0.366-0.267,0.583-0.483,0.649-0.65c-0.1-0.233-0.183-0.399-0.25-0.5
					c0.101-0.1,0.417-0.217,0.95-0.35c0.367-0.1,0.517-0.35,0.45-0.75l1.7-0.35c0.066-0.234-0.017-0.467-0.25-0.7l0.149-0.3
					c0.567-0.2,0.983,0,1.25,0.6c0.233,0.566,0.283,1.184,0.15,1.85c-0.167-0.033-0.55,0-1.15,0.101c-0.033,0-0.183,0.017-0.45,0.05
					c-0.199,0.033-0.366,0.1-0.5,0.2c-0.066,0.066-0.083,0.2-0.05,0.399c0,0.233-0.017,0.367-0.05,0.4c-0.2,0.2-0.533,0.333-1,0.4
					c-0.5,0.1-0.833,0.199-1,0.3c-0.066,0.033-0.1,0.149-0.1,0.35c0.033,0.167,0,0.267-0.101,0.3c-0.233,0.134-0.6,0.184-1.1,0.15
					C90.517,117.934,89.517,118.15,88.95,118.15z"/>
				<path style="fill-rule:evenodd;clip-rule:evenodd;fill:#643117;" d="M103.05,113.85h-0.35c0.333-0.066,0.783,0,1.35,0.2
					c0.634,0.2,1,0.467,1.101,0.8c0.1,0.4-0.067,0.783-0.5,1.15c-0.101,0.2-0.233,0.6-0.4,1.2c-0.2,0.3-0.533,0.5-1,0.6
					c-0.6,0.033-1.05,0.066-1.35,0.101c-1.4,0.232-2.4,0.216-3-0.051c0.033-0.366,0.283-0.517,0.75-0.449
					c0-0.167-0.084-0.334-0.25-0.5c-0.167-0.167-0.233-0.367-0.2-0.601c0.167,0,0.467,0.033,0.899,0.101
					c0.434,0,0.733-0.034,0.9-0.101c0.134-0.066,0.316-0.25,0.55-0.55c0.167-0.267,0.367-0.384,0.601-0.35v-0.5
					c0.133,0,0.35-0.018,0.649-0.051C102.7,114.316,102.783,113.983,103.05,113.85z"/>
				<path style="fill-rule:evenodd;clip-rule:evenodd;fill:#643117;" d="M108.9,117.15c0.276,0.025,0.593,0.142,0.949,0.35
					c0.067,0.767-0.35,1.083-1.25,0.95c-0.833-0.134-1.433-0.417-1.8-0.851c0.134-0.3,0.45-0.467,0.95-0.5
					C108.017,117.1,108.4,117.116,108.9,117.15z"/>
				<path style="fill-rule:evenodd;clip-rule:evenodd;fill:#643117;" d="M70,114.3c-0.133-0.366,0.383-0.583,1.55-0.649
					c0.567,0,1.267,0.016,2.1,0.05H73.4c0.4,0.133,0.633,0.316,0.7,0.55c0.066,0.333,0.133,0.533,0.2,0.6
					c0.4,0.434,1,0.816,1.8,1.15c1.267,0.566,1.917,0.85,1.95,0.85c-0.233,0.533-1.25,0.617-3.05,0.25
					c-1.7-0.333-2.75-0.699-3.15-1.1c-0.1-0.1-0.184-0.283-0.25-0.55c-0.1-0.3-0.2-0.5-0.3-0.601c-0.066-0.066-0.3-0.133-0.7-0.199
					C70.233,114.583,70.033,114.467,70,114.3z"/>
				<path style="fill-rule:evenodd;clip-rule:evenodd;fill:#643117;" d="M73.75,113c-0.5,0-0.917-0.084-1.25-0.25
					c-0.433-0.233-0.367-0.566,0.2-1c0.4-0.3,0.716-0.25,0.95,0.15c0.233,0.366,0.15,0.683-0.25,0.949L73.75,113z"/>
				<path style="fill-rule:evenodd;clip-rule:evenodd;fill:#643117;" d="M80.15,119.3c0.1,0.033,0.4,0.134,0.9,0.3
					c0.367,0.167,0.667,0.217,0.9,0.15c-0.133,0.6,0.133,1.05,0.8,1.35c-0.1,0.267-0.233,0.617-0.4,1.051
					c-0.167,0.333-0.434,0.55-0.8,0.649c-0.366,0.101-1.066,0-2.1-0.3c-0.967-0.3-1.684-0.367-2.15-0.2
					c-0.2,0.066-0.483,0.3-0.85,0.7c-0.367,0.366-0.65,0.583-0.85,0.65c-0.367,0.1-0.9,0.133-1.6,0.1s-1.183-0.117-1.45-0.25
					c0.2-0.267,0.567-0.434,1.1-0.5c0.3-0.033,0.733-0.084,1.3-0.15c-0.067-0.399,0.033-0.767,0.3-1.1
					c0.367-0.267,0.617-0.483,0.75-0.65c-0.066-0.366-0.033-0.616,0.1-0.75c0.167-0.199,0.566-0.366,1.2-0.5
					c0.428-0.074,0.752-0.133,0.975-0.175C78.598,119.363,79.223,119.238,80.15,119.3z"/>
				<path style="fill-rule:evenodd;clip-rule:evenodd;fill:#643117;" d="M84.625,120.025c0.426,0.215,0.584,0.54,0.475,0.975
					c-0.766,0.133-1.266-0.017-1.5-0.45C83.39,120.16,83.732,119.985,84.625,120.025z"/>
				<path style="fill-rule:evenodd;clip-rule:evenodd;fill:#643117;" d="M91.1,119.75l-0.8-0.3c0.5-0.233,1.05-0.367,1.65-0.4
					c0.667-0.066,1.217,0,1.649,0.2c0.334,0.2,0.733,0.5,1.2,0.9c0.533,0.466,0.817,0.816,0.851,1.05
					c0.199,1.1-0.783,1.366-2.95,0.8c-1.967-0.5-3.217-1.017-3.75-1.55C89.45,120.05,90.167,119.816,91.1,119.75z"/>
				<path style="fill-rule:evenodd;clip-rule:evenodd;fill:#643117;" d="M96.3,120.75l0.5,0.6c0.167-0.033,0.384,0.017,0.65,0.15
					c0.133,0.5,0.033,0.833-0.3,1c-0.334,0.2-0.7,0.184-1.101-0.05c0.134-0.367,0.233-0.65,0.3-0.851
					C96.45,121.3,96.434,121.017,96.3,120.75z"/>
				<path style="fill-rule:evenodd;clip-rule:evenodd;fill:#7F4425;" d="M83.4,111.55c-1.667-0.033-2.833,0.066-3.5,0.3
					c0.1,0.7-0.3,0.934-1.2,0.7c-0.934-0.233-1.417-0.05-1.45,0.55c-1.533,0.101-2.483,0.017-2.85-0.25l0.75-0.6l-0.35-0.4
					c0.267-0.267,0.75-0.483,1.45-0.649c0.767-0.167,1.283-0.334,1.55-0.5l-0.65-0.3C81.283,110.4,83.367,110.783,83.4,111.55z"/>
				<path style="fill-rule:evenodd;clip-rule:evenodd;fill:#7F4425;" d="M85.5,110.25h-0.4c0.4-0.033,1,0.017,1.801,0.15
					c0.133,0.6-0.15,0.949-0.851,1.05c-0.233,0.033-0.767,0.017-1.6-0.05c-0.067-0.334,0.033-0.584,0.3-0.75
					C85.117,110.517,85.367,110.383,85.5,110.25z"/>
				<path style="fill-rule:evenodd;clip-rule:evenodd;fill:#7F4425;" d="M81.7,112.1l-0.25-0.1c1.533,0,2.05,0.316,1.55,0.95
					c-0.167,0.2-0.483,0.267-0.95,0.2c-0.466-0.134-0.783-0.2-0.95-0.2C81,112.483,81.2,112.2,81.7,112.1z"/>
				<path style="fill-rule:evenodd;clip-rule:evenodd;fill:#7F4425;" d="M73.65,111.85c-0.066-0.434,0.133-0.733,0.6-0.899
					c0.434-0.167,0.8-0.167,1.1,0l-1.6,1.149L73.65,111.85z"/>
				<path style="fill-rule:evenodd;clip-rule:evenodd;fill:#7F4425;" d="M69.925,113.725L69.6,113.85c0.433,0.233,0.55,0.7,0.35,1.4
					l-0.45,0.2c0.1,0.8,0.067,1.267-0.1,1.399c-0.1,0.066-0.5,0.017-1.2-0.149c-1-0.267-1.7-0.4-2.1-0.4
					c-0.167,0-0.45,0.066-0.85,0.2c-0.333,0.1-0.617,0.116-0.85,0.05v-0.25c-1,0.134-1.733,0.167-2.2,0.101
					c1.667-1.268,2.917-2.067,3.75-2.4c0.433-0.134,1.117-0.184,2.05-0.15C68.857,113.913,69.499,113.872,69.925,113.725z"/>
				<path style="fill-rule:evenodd;clip-rule:evenodd;fill:#7F4425;" d="M70.5,116v-0.15c0.434-0.1,0.733-0.017,0.9,0.25
					c0.2,0.267,0.2,0.617,0,1.051c-0.4,0.1-0.75,0-1.05-0.301C70.05,116.55,70.1,116.267,70.5,116z"/>
				<path style="fill-rule:evenodd;clip-rule:evenodd;fill:#7F4425;" d="M67.8,116.75l-0.55-0.45c1.133,0.233,1.633,0.667,1.5,1.3
					c-0.133,0.634-0.733,0.967-1.8,1c-0.667,0-1.1-0.033-1.3-0.1c-0.533-0.134-0.733-0.483-0.6-1.05c0.1-0.434,0.5-0.684,1.2-0.75
					C66.483,116.666,67,116.684,67.8,116.75z"/>
				<path style="fill-rule:evenodd;clip-rule:evenodd;fill:#7F4425;" d="M63.25,116.85l-0.3,0.301c0.667-0.5,0.85-0.351,0.55,0.449
					c-0.2,0.601-0.683,0.667-1.45,0.2C62.15,117.233,62.55,116.916,63.25,116.85z"/>
				<path style="fill-rule:evenodd;clip-rule:evenodd;fill:#7F4425;" d="M64.15,118.9v-0.45c0.167-0.034,0.367-0.017,0.6,0.05
					c0.1,0.4,0.067,0.75-0.1,1.05c-0.233,0.333-0.533,0.4-0.9,0.2c-0.267-0.167-0.35-0.367-0.25-0.6
					C63.6,118.916,63.817,118.833,64.15,118.9z"/>
				<path style="fill-rule:evenodd;clip-rule:evenodd;fill:#7F4425;" d="M89.1,115.7c-0.066,0.066-0.183,0.166-0.35,0.3
					c-0.033,0.033-0.083,0.133-0.15,0.3c-0.066,0.134-0.183,0.233-0.35,0.3c-0.4-0.033-0.667-0.033-0.8,0
					c-1.101,0.134-1.983,0.2-2.65,0.2c-1.233,0.066-2.05-0.066-2.45-0.399c0.133-0.234,0.367-0.417,0.7-0.551
					c0.6-0.233,0.917-0.366,0.95-0.399l-0.25-0.25c0.4-0.3,1.316-0.667,2.75-1.101c-0.1-0.666,0.267-1.05,1.1-1.149
					c0.467-0.034,1.117-0.034,1.95,0c-0.133-0.733,0.067-1.2,0.601-1.4c0.267-0.1,0.8-0.149,1.6-0.149l-0.4,0.149
					c0.867,0.2,1.284,0.5,1.25,0.9c-0.033,0.3-0.149,0.95-0.35,1.95c-0.667,0-1.1,0.05-1.3,0.149c0,0.467-0.134,0.767-0.4,0.9
					c-0.133,0.066-0.433,0.066-0.899,0C89.417,115.483,89.233,115.566,89.1,115.7z"/>
				<path style="fill-rule:evenodd;clip-rule:evenodd;fill:#7F4425;" d="M84.95,112.1h-0.1c0.4-0.066,0.683,0.033,0.85,0.301
					c0.2,0.3,0.1,0.566-0.3,0.8c-0.267,0.166-0.55,0.166-0.851,0c-0.3-0.167-0.417-0.417-0.35-0.75
					C84.4,112.416,84.65,112.3,84.95,112.1z"/>
				<path style="fill-rule:evenodd;clip-rule:evenodd;fill:#7F4425;" d="M93.45,111.85l-0.3-0.149c0.433-0.034,0.866,0.083,1.3,0.35
					c0.5,0.3,0.566,0.667,0.2,1.101c-0.134,0.166-0.483,0.232-1.051,0.199c-0.6-0.033-0.949-0.149-1.05-0.35
					c-0.166-0.3-0.133-0.584,0.101-0.85C92.884,111.916,93.15,111.816,93.45,111.85z"/>
				<path style="fill-rule:evenodd;clip-rule:evenodd;fill:#7F4425;" d="M87.7,110.55c0.434-0.033,0.833,0.017,1.2,0.15
					c0.433,0.2,0.416,0.466-0.051,0.8c-0.3,0.233-0.666,0.2-1.1-0.1C87.35,111.133,87.333,110.85,87.7,110.55z"/>
				<path style="fill-rule:evenodd;clip-rule:evenodd;fill:#7F4425;" d="M77.3,114.3c0.167-0.267,0.517-0.434,1.05-0.5
					c0.467-0.1,0.85-0.083,1.15,0.05c0.5,0.2,0.633,0.417,0.4,0.65c-0.033,0.033-0.333,0.2-0.9,0.5
					c-0.667,0.366-1.05,0.566-1.15,0.6c-0.533,0.167-0.983,0.117-1.35-0.149c-0.5-0.4-0.583-0.7-0.25-0.9
					C76.469,114.394,76.819,114.311,77.3,114.3z"/>
				<path style="fill-rule:evenodd;clip-rule:evenodd;fill:#7F4425;" d="M79.35,115.6v-0.149c0.433,0.066,0.7,0.3,0.8,0.7
					c-0.233,0.033-0.45,0.05-0.65,0.05c-0.333,0.033-0.55,0-0.65-0.101c-0.167-0.166-0.184-0.3-0.05-0.399
					C78.967,115.6,79.15,115.566,79.35,115.6z"/>
				<path style="fill-rule:evenodd;clip-rule:evenodd;fill:#7F4425;" d="M76.925,117.75c0.438-0.007,1.146-0.023,2.125-0.05
					c0.967,0.1,1.284,0.583,0.95,1.45c-1.633,0.3-2.917,0.5-3.85,0.6c-1.7,0.2-2.716-0.283-3.05-1.45c0.433-0.2,1.133-0.3,2.1-0.3
					C75.914,117.975,76.489,117.891,76.925,117.75z"/>
				<path style="fill-rule:evenodd;clip-rule:evenodd;fill:#7F4425;" d="M103.05,113.4l0.15-0.15c0.267,0.533,0.033,0.833-0.7,0.9
					c-0.866,0-1.383,0.033-1.55,0.1c-0.101,0.066-0.217,0.233-0.351,0.5c-0.133,0.233-0.316,0.416-0.55,0.55
					c-0.7,0.434-1.683,0.467-2.95,0.101l0.25-0.25c-0.3-0.134-0.517-0.184-0.649-0.15c0-0.467,0.383-0.65,1.149-0.55
					c0.834,0.066,1.268-0.084,1.301-0.45l-0.75-0.05l0.5-0.25c-0.033-0.334-0.2-0.517-0.5-0.55c-0.367,0-0.634-0.034-0.801-0.101
					l0.5-0.45c-0.366,0-0.666-0.166-0.899-0.5c0.467,0.101,1.517,0.134,3.149,0.101C101.85,112.267,102.75,112.666,103.05,113.4z"/>
				<path style="fill-rule:evenodd;clip-rule:evenodd;fill:#7F4425;" d="M95.65,115.7c0.185,0.028,0.435,0.095,0.75,0.2
					c-0.033,0.732-0.667,1-1.9,0.8c0.1-0.2,0.267-0.384,0.5-0.55C95.333,115.95,95.55,115.8,95.65,115.7z"/>
				<path style="fill-rule:evenodd;clip-rule:evenodd;fill:#59290E;" d="M104.75,114.85c0.134,0.4,0.1,0.75-0.1,1.051
					c-0.067,0.133-0.301,0.366-0.7,0.699c-0.767,0.7-1.917,0.967-3.45,0.801c0.9-0.4,1.566-0.584,2-0.551
					c0.066-0.333,0.35-0.75,0.85-1.25c0.434-0.399,0.601-0.783,0.5-1.149l-0.25,0.399c-0.033-0.533,0.117-0.75,0.45-0.649
					C104.417,114.267,104.65,114.483,104.75,114.85z"/>
				<path style="fill-rule:evenodd;clip-rule:evenodd;fill:#59290E;" d="M92.35,120.25c0-0.167-0.017-0.283-0.05-0.35h1.4l-0.8-0.15
					c0.267-0.134,0.6-0.2,1-0.2c0.366,0,0.683,0.066,0.949,0.2c0.167,0.733-0.3,1.2-1.399,1.4c-1.033,0.232-1.783,0.183-2.25-0.15
					c0.233-0.267,0.649-0.4,1.25-0.4C92.384,120.5,92.35,120.383,92.35,120.25z"/>
				<path style="fill-rule:evenodd;clip-rule:evenodd;fill:#59290E;" d="M81.45,119.5c0.167,0.733-0.167,1.3-1,1.7
					c-1.034,0.333-1.7,0.566-2,0.7c-0.167,0.066-0.65,0.399-1.45,1c-0.433,0.333-0.983,0.466-1.65,0.399
					c0.433-0.167,0.7-0.467,0.8-0.899c0.167-0.567,0.333-0.934,0.5-1.101c0.733-0.267,1.217-0.45,1.45-0.55
					c0.967-0.434,1.517-0.667,1.65-0.7l-0.5-0.149C79.75,119.2,80.483,119.066,81.45,119.5z"/>
				<path style="fill-rule:evenodd;clip-rule:evenodd;fill:#59290E;" d="M73.65,114.85l0.25-0.149c0.733,0.233,1.034,0.649,0.9,1.25
					c-0.466,0.166-0.917,0.017-1.35-0.45C73.017,115.033,73.083,114.816,73.65,114.85z"/>
				<path style="fill-rule:evenodd;clip-rule:evenodd;fill:#59290E;" d="M91.35,116.85l-0.399-0.1c0.366-0.3,0.8-0.4,1.3-0.3
					c0.033,0.5-0.184,0.8-0.65,0.899c-0.199,0-0.633-0.017-1.3-0.05C90.467,116.934,90.816,116.783,91.35,116.85z"/>
				<path style="fill-rule:evenodd;clip-rule:evenodd;fill:#7F4425;" d="M69.35,119.15c0.592-0.216,1.159-0.35,1.7-0.4
					c0.025,0.002,0.05,0.002,0.075,0c0.656,0.09,1.047,0.407,1.175,0.95c0.167,0.566-0.133,0.916-0.9,1.05
					c-0.4,0.066-1.017,0.05-1.85-0.05c-1.1-0.167-1.733-0.25-1.9-0.25C67.85,119.916,68.417,119.483,69.35,119.15z"/>
				<path style="fill-rule:evenodd;clip-rule:evenodd;fill:#7F4425;" d="M69.6,121.2l-0.9-0.15c0.667-0.033,1.3,0.083,1.9,0.351
					c0.7,0.3,0.717,0.666,0.05,1.1c-0.767,0.434-1.566,0.35-2.4-0.25C67.45,121.684,67.9,121.333,69.6,121.2z"/>
				<path style="fill-rule:evenodd;clip-rule:evenodd;fill:#7F4425;" d="M63.875,121.05c0.074,0.683-0.451,0.899-1.575,0.65
					C62.366,121.105,62.891,120.889,63.875,121.05z"/>
				<path style="fill-rule:evenodd;clip-rule:evenodd;fill:#7F4425;" d="M64.15,121.45l-0.15,0.3c1.033-0.267,1.317-0.084,0.85,0.55
					c-0.467,0.601-0.85,0.467-1.15-0.399L64.15,121.45z"/>
				<path style="fill-rule:evenodd;clip-rule:evenodd;fill:#7F4425;" d="M65.55,122.6l0.3,0.15c0.533-0.167,0.767-0.033,0.7,0.4
					c-0.066,0.399-0.433,0.5-1.1,0.3C65.417,123.217,65.45,122.934,65.55,122.6z"/>
				<path style="fill-rule:evenodd;clip-rule:evenodd;fill:#7F4425;" d="M65.3,120.6l0.15-0.149c1.2-0.2,1.45,0.033,0.75,0.7
					c-0.667,0.6-1.133,0.516-1.4-0.25C64.867,120.767,65.033,120.666,65.3,120.6z"/>
				<path style="fill-rule:evenodd;clip-rule:evenodd;fill:#7F4425;" d="M106.85,115l-2.75-0.3c0.367,0,1.65-0.05,3.851-0.15
					c2,0.033,2.983,0.417,2.95,1.15c-0.667,0.333-1.684,0.517-3.051,0.55c-1.5,0.066-2.449-0.15-2.85-0.65
					C105.2,115.3,105.816,115.1,106.85,115z"/>
				<path style="fill-rule:evenodd;clip-rule:evenodd;fill:#7F4425;" d="M110.75,115.85h-0.15c0.233-0.199,0.601-0.25,1.101-0.149
					c0.533,0.1,0.816,0.333,0.85,0.7c-0.967,0.133-1.6,0.05-1.899-0.25L110.75,115.85z"/>
				<path style="fill-rule:evenodd;clip-rule:evenodd;fill:#7F4425;" d="M112.55,116.85h-0.25c0.334-0.066,0.601-0.033,0.8,0.101
					c0.268,0.166,0.334,0.416,0.2,0.75c-0.3,0.033-0.517-0.034-0.649-0.2C112.45,117.333,112.417,117.116,112.55,116.85z"/>
				<path style="fill-rule:evenodd;clip-rule:evenodd;fill:#7F4425;" d="M114.25,117.9l0.15-0.15c0.133,0,0.283,0,0.449,0
					c0.134,0.033,0.233,0.116,0.301,0.25C114.884,118.1,114.583,118.066,114.25,117.9z"/>
				<path style="fill-rule:evenodd;clip-rule:evenodd;fill:#7F4425;" d="M109.7,116.85l1.05,0.301h-1.2
					C109.517,117.017,109.566,116.916,109.7,116.85z"/>
				<path style="fill-rule:evenodd;clip-rule:evenodd;fill:#7F4425;" d="M106.6,116.75l-0.149-0.15c0.533-0.033,0.85-0.05,0.95-0.05
					c0.3,0.066,0.416,0.316,0.35,0.75c-0.533,0.366-1.133,0.316-1.8-0.149c0.033-0.2,0.1-0.317,0.2-0.351
					C106.217,116.767,106.367,116.75,106.6,116.75z"/>
				<path style="fill-rule:evenodd;clip-rule:evenodd;fill:#7F4425;" d="M104.5,116.85l0.4,0.15c0.433-0.1,0.733,0.05,0.899,0.45
					c-0.6,0.366-1.166,0.333-1.7-0.101c0-0.133,0.034-0.233,0.101-0.3C104.333,116.983,104.434,116.916,104.5,116.85z"/>
				<path style="fill-rule:evenodd;clip-rule:evenodd;fill:#7F4425;" d="M104.5,118.45l0.5-0.15c0.233-0.033,0.583-0.017,1.05,0.05
					c-0.033,0.301-0.267,0.467-0.7,0.5C104.917,118.85,104.634,118.717,104.5,118.45z"/>
				<path style="fill-rule:evenodd;clip-rule:evenodd;fill:#7F4425;" d="M106.7,118.75l0.8-0.3c0.134,0.066,0.167,0.149,0.1,0.25
					C107.233,118.767,106.934,118.783,106.7,118.75z"/>
				<path style="fill-rule:evenodd;clip-rule:evenodd;fill:#7F4425;" d="M96.95,117.45v-0.15h0.75
					c-0.033,0.366-0.217,0.566-0.55,0.601c-0.334,0.033-0.617-0.067-0.851-0.301C96.467,117.4,96.684,117.35,96.95,117.45z"/>
				<path style="fill-rule:evenodd;clip-rule:evenodd;fill:#7F4425;" d="M93.8,117.6h1.7c0.066,0.033,0.15,0.066,0.25,0.101
					c0.066,0.033,0.083,0.149,0.05,0.35c-0.666,0.267-1.316,0.25-1.95-0.05C93.783,117.866,93.767,117.733,93.8,117.6z"/>
				<path style="fill-rule:evenodd;clip-rule:evenodd;fill:#7F4425;" d="M92,117.75l1.3,0.25c-0.166,0.434-0.633,0.5-1.399,0.2
					C91.867,118,91.9,117.85,92,117.75z"/>
				<path style="fill-rule:evenodd;clip-rule:evenodd;fill:#7F4425;" d="M89,118.45l0.5,0.149c-0.167,0.301-0.417,0.384-0.75,0.25
					C88.75,118.684,88.833,118.55,89,118.45z"/>
				<path style="fill-rule:evenodd;clip-rule:evenodd;fill:#7F4425;" d="M85.9,118.6h0.5c0.6-0.434,0.866-0.383,0.8,0.15
					c-0.066,0.467-0.5,0.517-1.3,0.15C85.867,118.8,85.867,118.7,85.9,118.6z"/>
				<path style="fill-rule:evenodd;clip-rule:evenodd;fill:#7F4425;" d="M85.9,119.75l1.3,0.15c-0.066,0.333-0.316,0.5-0.75,0.5
					C86.05,120.366,85.867,120.15,85.9,119.75z"/>
				<path style="fill-rule:evenodd;clip-rule:evenodd;fill:#905332;" d="M79.1,110.3c0.333,0,0.816,0.05,1.45,0.15
					c0.634,0.1,1.1,0.149,1.4,0.149c0.033,0.301-0.367,0.5-1.2,0.601c-0.967,0.1-1.55,0.216-1.75,0.35l-0.35-0.3
					c0,0.166-0.117,0.283-0.35,0.35c-0.167,0.066-0.35,0.084-0.55,0.051L77.7,111.3l-1.2-0.05c0.533-0.134,0.883-0.316,1.05-0.55
					L77,110.6c0.133-0.233,0.467-0.35,1-0.35C78.267,110.25,78.633,110.267,79.1,110.3z"/>
				<path style="fill-rule:evenodd;clip-rule:evenodd;fill:#905332;" d="M87.1,113.75c0.13-0.42,0.463-0.637,1-0.65h-0.375
					c0.159-0.004,0.551-0.037,1.176-0.1c0.6-0.033,0.833,0.116,0.699,0.45c-0.1,0.3-0.5,0.45-1.199,0.45
					C87.767,113.934,87.333,113.883,87.1,113.75z"/>
				<path style="fill-rule:evenodd;clip-rule:evenodd;fill:#905332;" d="M89.5,112.2l-0.3-0.101c0.1-0.467,0.566-0.717,1.399-0.75
					c0.867-0.033,1.284,0.217,1.25,0.75c0,0.467-0.333,0.634-1,0.5c-0.1-0.166-0.166-0.25-0.199-0.25L90,112.3
					C89.667,112.267,89.5,112.233,89.5,112.2z"/>
				<path style="fill-rule:evenodd;clip-rule:evenodd;fill:#905332;" d="M93,112.1h-0.45c0.3-0.3,0.767-0.383,1.4-0.25
					c0.667,0.101,0.783,0.4,0.35,0.9c-0.267,0.267-0.666,0.283-1.2,0.05C92.566,112.566,92.533,112.333,93,112.1z"/>
				<path style="fill-rule:evenodd;clip-rule:evenodd;fill:#905332;" d="M99.85,111.95L99.7,112.1c0.6-0.3,1.233-0.166,1.899,0.4
					c1.134,0.967,0.551,1.316-1.75,1.05c-0.033-0.267-0.033-0.45,0-0.55c-0.232-0.066-0.566-0.084-1-0.05c-0.566,0-0.916,0-1.05,0
					c-0.033-0.334,0.233-0.584,0.8-0.75C98.634,112.166,99.05,112.083,99.85,111.95z"/>
				<path style="fill-rule:evenodd;clip-rule:evenodd;fill:#905332;" d="M99.25,114.15l-0.2,0.3c0.267-0.067,0.5-0.067,0.7,0
					c0.066,0.366-0.15,0.55-0.65,0.55c-0.566-0.066-0.916-0.1-1.05-0.1c0-0.268,0.15-0.45,0.45-0.551L99.25,114.15z"/>
				<path style="fill-rule:evenodd;clip-rule:evenodd;fill:#905332;" d="M84.95,114.9l-0.2-0.101c0.267-0.2,0.917-0.267,1.95-0.2
					c1.1,0.033,1.5,0.25,1.2,0.65c-0.134,0.2-0.584,0.283-1.351,0.25c-0.8-0.066-1.267-0.1-1.399-0.1
					c-0.601,0-0.884-0.067-0.851-0.2C84.333,115,84.55,114.9,84.95,114.9z"/>
				<path style="fill-rule:evenodd;clip-rule:evenodd;fill:#905332;" d="M84.05,115.75l-0.35,0.4c0.167,0,0.4-0.018,0.7-0.051
					c0.267,0.033,0.35,0.2,0.25,0.5c-0.5,0.066-1.017,0.066-1.55,0c-0.033-0.267,0.066-0.467,0.3-0.6
					C83.434,115.967,83.65,115.883,84.05,115.75z"/>
				<path style="fill-rule:evenodd;clip-rule:evenodd;fill:#905332;" d="M76.25,118.25h-0.8c0.367-0.2,0.783-0.35,1.25-0.45
					c0.533-0.134,0.966-0.134,1.3,0c0.5,0.233,0.583,0.517,0.25,0.851c-0.233,0.266-0.8,0.35-1.7,0.25
					c-0.866-0.101-1.316-0.268-1.35-0.5L76.25,118.25z"/>
				<path style="fill-rule:evenodd;clip-rule:evenodd;fill:#905332;" d="M77.35,113.95l0.2-0.2c0.367-0.467,0.817-0.533,1.35-0.2
					c0.534,0.3,0.434,0.601-0.3,0.9c-0.1,0.066-0.367,0.116-0.8,0.149c-0.433,0.033-0.7,0.017-0.8-0.05
					c-0.167-0.134-0.2-0.267-0.1-0.399C77,114.05,77.15,113.983,77.35,113.95z"/>
				<path style="fill-rule:evenodd;clip-rule:evenodd;fill:#905332;" d="M81.8,112.05l-0.1-0.2c0.533-0.1,0.767-0.033,0.7,0.2
					c-0.033,0.233-0.316,0.316-0.85,0.25v-0.25C81.65,112.017,81.733,112.017,81.8,112.05z"/>
				<path style="fill-rule:evenodd;clip-rule:evenodd;fill:#905332;" d="M85,112.7c-0.167,0.1-0.316,0.133-0.45,0.1
					c-0.167-0.033-0.233-0.149-0.2-0.35c0.3-0.034,0.6-0.034,0.9,0c0.066,0.166,0.033,0.3-0.1,0.399
					c-0.101,0.101-0.234,0.117-0.4,0.051L85,112.7z"/>
				<path style="fill-rule:evenodd;clip-rule:evenodd;fill:#905332;" d="M85.725,110.8c0.638,0.026,0.779,0.144,0.426,0.351
					c-0.4,0.232-0.867,0.333-1.4,0.3c0.033-0.3,0.2-0.5,0.5-0.601C85.343,110.826,85.501,110.811,85.725,110.8z"/>
				<path style="fill-rule:evenodd;clip-rule:evenodd;fill:#905332;" d="M65.1,115.4c-0.267,0.1-0.467,0.166-0.6,0.199
					c-0.267,0.101-0.483,0.117-0.65,0.051c0.2-0.334,0.533-0.617,1-0.851c0.6-0.233,1.017-0.417,1.25-0.55l-0.6,0.2
					c0.333-0.267,0.983-0.467,1.95-0.601c1.133-0.166,1.716,0.033,1.75,0.601c0.066,0.566-0.8,0.85-2.6,0.85
					C66,115.233,65.5,115.267,65.1,115.4z"/>
				<path style="fill-rule:evenodd;clip-rule:evenodd;fill:#905332;" d="M68.075,115.8l-1.125,0.15c0.233-0.2,0.617-0.284,1.15-0.25
					c0.3,0,0.7,0.033,1.2,0.1c0.034,0.366-0.267,0.566-0.9,0.601c-0.566,0.033-0.983-0.051-1.25-0.25
					C67.456,115.972,67.764,115.854,68.075,115.8z"/>
				<path style="fill-rule:evenodd;clip-rule:evenodd;fill:#905332;" d="M66.35,116.9l-0.1,0.199c0.333-0.199,0.9-0.3,1.7-0.3
					c0.833,0,1.05,0.167,0.65,0.5c-0.3,0.2-0.95,0.267-1.95,0.2c-0.733,0.366-1.3,0.517-1.7,0.45c-0.034-0.367,0.117-0.634,0.45-0.8
					C65.667,116.983,65.983,116.9,66.35,116.9z"/>
				<path style="fill-rule:evenodd;clip-rule:evenodd;fill:#905332;" d="M64.1,118.75l-0.25-0.1c0.1-0.101,0.233-0.134,0.4-0.101
					c0.067,0.333-0.017,0.566-0.25,0.7c-0.167,0.1-0.4,0.116-0.7,0.05C63.367,118.866,63.633,118.684,64.1,118.75z"/>
				<path style="fill-rule:evenodd;clip-rule:evenodd;fill:#905332;" d="M71.1,119.15l-0.45,0.05c0.247-0.022,0.463,0.044,0.65,0.2
					c0.2,0.166,0.25,0.383,0.15,0.649c-1.4,0.167-2.367,0.2-2.9,0.101c0-0.334,0.367-0.601,1.1-0.801
					C70.25,119.184,70.733,119.116,71.1,119.15z"/>
				<path style="fill-rule:evenodd;clip-rule:evenodd;fill:#905332;" d="M68.95,121.6l-0.15-0.149c0.333-0.334,0.75-0.334,1.25,0
					c0.5,0.3,0.417,0.566-0.25,0.8c-0.133,0.066-0.366,0.1-0.7,0.1c-0.367,0-0.583-0.083-0.65-0.25
					c-0.067-0.166-0.034-0.3,0.1-0.399C68.684,121.6,68.817,121.566,68.95,121.6z"/>
				<path style="fill-rule:evenodd;clip-rule:evenodd;fill:#7F4425;" d="M89.45,109.8c1.2-0.066,2.149-0.05,2.85,0.05
					c1.167,0.2,1.983,0.667,2.45,1.4l-0.2-0.1c-0.066,0.199-0.3,0.316-0.7,0.35c-0.399-0.033-0.683-0.05-0.85-0.05V111.1
					c-0.733,0.134-1.283,0.167-1.65,0.101c-0.466-0.167-0.8-0.284-1-0.351c-0.933-0.166-1.433-0.267-1.5-0.3
					c-0.133-0.2-0.267-0.316-0.399-0.35H87.8c-0.933-0.067-1.616-0.101-2.05-0.101C86.793,110.032,88.026,109.932,89.45,109.8z
					 M85.75,110.1c-1.325,0.086-2.341,0.119-3.05,0.101c0.333-0.167,0.833-0.233,1.5-0.2C84.567,110.033,85.083,110.066,85.75,110.1
					z"/>
				<path style="fill-rule:evenodd;clip-rule:evenodd;fill:#905332;" d="M92.3,110.3l-0.1,0.101c-0.434,0-0.934-0.051-1.5-0.15
					c-0.601-0.167-1.083-0.283-1.45-0.35c0.267-0.268,0.934-0.367,2-0.301s1.65,0.301,1.75,0.7H92.3z"/>
			</g>
			
				<use xlink:href="#FlashAICB_x2F_Layer_114_x2F__x3C_Path_x3E_"  width="20.75" height="7.73" y="-7.73" transform="matrix(1 0 0 -1 90.4502 112)" style="overflow:visible;opacity:0.5313;enable-background:new    ;"/>
			<g>
				<path style="fill-rule:evenodd;clip-rule:evenodd;fill:#86561D;" d="M115.85,60.35l1.7-3.35l1.15-1.2
					c1.1-0.633,2.533-0.533,4.3,0.3c1.1,0.534,2,1.55,2.7,3.05c0.333,0.767,0.566,1.483,0.7,2.15l-3.301,6.35
					c-2.933,4.833-6.232,8.767-9.899,11.8c-2.867,2.366-4.283,3.55-4.25,3.55c0.833-0.233,0.517,0.75-0.95,2.95
					c-1.833,2.767-3.684,5.883-5.55,9.35l-1.101-2.45c-0.433-1.033-1.133-1.934-2.1-2.699l-1.35-0.9
					c3.333-5.867,6.166-10.283,8.5-13.25l2.3-2.95c-0.233,0,0.434-1.283,2-3.85C112.6,66.133,114.316,63.184,115.85,60.35z"/>
				<path style="fill-rule:evenodd;clip-rule:evenodd;fill:#5F3C14;" d="M119.95,69.8c0.866-1.033,1.783-2.566,2.75-4.6
					c0.233-0.567,0.684-2.15,1.35-4.75c0.3,0.7,0.233,1.316-0.2,1.85c0.867-0.467,1.601-1.2,2.2-2.2l0.351,1.2l-3.301,6.35
					c-2.933,4.833-6.232,8.767-9.899,11.8c-2.867,2.366-4.283,3.55-4.25,3.55c0.833-0.233,0.517,0.75-0.95,2.95
					c-1.833,2.767-3.684,5.883-5.55,9.35l-1.101-2.45c-0.166-0.434-0.466-0.934-0.899-1.5c0.533-0.533,0.967-1.066,1.3-1.6
					c0.8-1.334,1.4-2.45,1.8-3.35c0.134-0.301,0.417-1.084,0.851-2.351c0.366-1.033,0.699-1.75,1-2.15l0.1,0.45
					c0.134,1.034,0.3,1.733,0.5,2.101c0.467-0.267,0.967-0.967,1.5-2.101c0.634-1.3,1.184-2.166,1.65-2.6l9.449-8.35L119.95,69.8z"
					/>
				<path style="fill-rule:evenodd;clip-rule:evenodd;fill:#5F3C14;" d="M121,57.7c0.367-0.9,0.333-1.65-0.1-2.25
					c0.666,0.1,1.366,0.316,2.1,0.649c0.566,0.3,1.05,0.684,1.45,1.15c-0.167,0.633-0.3,1.7-0.4,3.2c-0.166-0.4-0.416-0.7-0.75-0.9
					c-0.333-0.233-0.683-0.283-1.05-0.15c-0.267,0.1-0.65,0.5-1.15,1.2l-0.949,1.55c-0.434,0.633-1.033,1.667-1.801,3.1
					c-0.066,0.133-0.333,0.467-0.8,1c0.267-0.634,0.667-1.75,1.2-3.35c0.5-1.466,0.917-2.55,1.25-3.25
					C120.467,58.85,120.8,58.2,121,57.7z"/>
				<path style="fill-rule:evenodd;clip-rule:evenodd;fill:#5F3C14;" d="M124.05,60.45c0.101-1.5,0.233-2.567,0.4-3.2
					c0.6,0.7,1.133,1.65,1.6,2.85c-0.6,1-1.333,1.733-2.2,2.2C124.283,61.767,124.35,61.15,124.05,60.45z"/>
				<path style="fill-rule:evenodd;clip-rule:evenodd;fill:#5F3C14;" d="M114.8,73.1c-0.3,0.167-0.783,0.367-1.45,0.601L108.2,79.1
					c-0.601,0.767-1.017,1.317-1.25,1.65c0.066-0.634,0.1-1.583,0.1-2.85l6.55-7.75c0.434-0.433,0.768-0.633,1-0.6
					c0.034,0.367,0.084,0.566,0.15,0.6c0.1,0.1,0.333,0.1,0.7,0c0.5-0.1,1.25-0.317,2.25-0.65c0.333,0.6,0.1,1.3-0.7,2.1
					C116.4,72.167,115.667,72.667,114.8,73.1z"/>
				<path style="fill-rule:evenodd;clip-rule:evenodd;fill:#A16C28;" d="M112.95,73.25c-0.967,0.8-1.467,1.217-1.5,1.25
					c-1.233,1.6-1.983,2.717-2.25,3.35c-0.634,1.634-1.833,3.134-3.601,4.5c0.334-0.5,0.584-1.1,0.75-1.8
					c0.067-0.167,0.084-0.366,0.051-0.6c0-0.334,0-0.55,0-0.65c0-0.066,0.133-0.4,0.399-1c0.033-0.1,0.5-0.767,1.4-2
					c0.333-0.5,0.6-0.833,0.8-1c0.134-0.133,0.35-0.267,0.65-0.4c0.366-0.133,0.583-0.233,0.649-0.3c0.167-0.1,0.567-0.433,1.2-1
					c0.467-0.466,0.816-0.8,1.05-1c0.467-0.333,0.917-0.55,1.351-0.649C114.066,72.15,113.75,72.583,112.95,73.25z"/>
				<path style="fill-rule:evenodd;clip-rule:evenodd;fill:#A16C28;" d="M103.75,81.8c-0.5,0.5-0.983,1.316-1.45,2.45
					c-0.633,1.5-1.017,2.383-1.149,2.65c-0.167,0.266-0.567,0.699-1.2,1.3c-0.7,0.633-1.167,1.116-1.4,1.45l-0.649-0.4
					c2.066-3.6,4.1-6.884,6.1-9.85l0.05,0.1l0.05-0.3l2.2-3.05v0.05c-1.1,2.133-1.899,4.116-2.399,5.95
					C103.9,82.017,103.85,81.9,103.75,81.8z"/>
				<path style="fill-rule:evenodd;clip-rule:evenodd;fill:#A16C28;" d="M115.85,60.35l1.7-3.35c0.067-0.167,0.184-0.35,0.351-0.55
					c0.333-0.367,0.733-0.65,1.199-0.851c0,0.667-0.183,1.284-0.55,1.851c-0.066,0.166-0.2,0.383-0.399,0.649
					c-0.134,0.267-0.184,0.5-0.15,0.7l0.05,1.2c-0.1,0.833-0.316,1.8-0.649,2.9c-0.233,0.9-0.567,1.833-1,2.8
					c-0.4,0.833-0.733,1.383-1,1.649c0.033-0.433-0.067-1-0.301-1.7c-0.166,0.3-0.399,0.867-0.699,1.7
					c-0.267,0.733-0.551,1.267-0.851,1.601c-1.7,2-3.267,3.666-4.7,5c-0.276,0.263-0.568,0.555-0.875,0.875
					c1.012-0.634,1.787-1.159,2.325-1.575c0.867-0.733-0.166,0.417-3.1,3.45c-2.867,2.966-3.983,4.017-3.351,3.149
					c1.568-2.099,2.943-3.774,4.125-5.024c-0.358,0.227-0.75,0.468-1.175,0.725l3.9-6.35C112.6,66.133,114.316,63.184,115.85,60.35z
					"/>
				<path style="fill-rule:evenodd;clip-rule:evenodd;fill:#A16C28;" d="M116.6,67.95c0.5-0.3,0.867-0.534,1.101-0.7
					c0.434-0.3,0.733-0.566,0.899-0.8c0.101-0.167,0.351-0.834,0.75-2c0.301-0.867,0.65-1.4,1.051-1.601
					c-0.567,1.867-1.15,3.267-1.75,4.2c-0.834,1.3-1.867,2.017-3.101,2.15C115.617,68.8,115.967,68.383,116.6,67.95z"/>
				<path style="fill-rule:evenodd;clip-rule:evenodd;fill:#5F3C14;" d="M105,88.6l-0.45,1.5c-0.333,1.033-0.6,1.65-0.8,1.851
					c-0.267,0.333-1.616,0.583-4.05,0.75L97.95,90c-0.101-0.3-0.117-0.65-0.05-1.05c0.1-0.8,0.5-1.4,1.199-1.8
					c0.801-0.467,1.5-0.634,2.101-0.5c0.399,0.1,0.983,0.399,1.75,0.899c0.533,0.366,0.767,0.634,0.7,0.8
					c0,0.101-0.067,0.167-0.2,0.2L105,88.6z"/>
				<path style="fill-rule:evenodd;clip-rule:evenodd;fill:#3B260C;" d="M94.65,97.5c1.1-2.267,1.816-3.884,2.149-4.85
					c0.2-0.601,0.634-1.7,1.3-3.301l1-2.199l0.9-0.2c0.767,0,1.517,0.316,2.25,0.95c1.167,1,1.967,2.083,2.4,3.25
					c-1.101,2.433-2.084,3.816-2.95,4.149L94.65,97.5z"/>
				<path style="fill-rule:evenodd;clip-rule:evenodd;fill:#3B260C;" d="M121.95,67.45c1.066-1.934,1.833-3.417,2.3-4.45
					c0.767-1.833,1.033-3.483,0.8-4.95c0.667,1,1.117,2.083,1.351,3.25c0,0.134-0.117,0.367-0.351,0.7
					c-1.566,3.566-3.616,7.017-6.149,10.35c-1.067,1.434-3.084,3.684-6.051,6.75c-2.699,2.8-4.649,5.084-5.85,6.851
					c-1.833,2.767-3.684,5.883-5.55,9.35l-1.101-2.45c-0.199-0.5-0.6-1.116-1.199-1.85l2.75-2.1l0.55,0.25
					c0.5-0.101,1.167-0.768,2-2c1.033-1.567,2.517-3.567,4.45-6c1.366-1.8,3.066-3.6,5.1-5.4c1.267-1.2,2.184-2.117,2.75-2.75
					C119.884,70.733,121.283,68.883,121.95,67.45z"/>
				<path style="fill-rule:evenodd;clip-rule:evenodd;fill:#3B260C;" d="M120.35,60.6c0.534-2.033,1.084-3.666,1.65-4.899l1,0.399
					l0.6,0.351c-1.199,0.833-2.066,1.783-2.6,2.85L120.35,60.6z"/>
				<path style="fill-rule:evenodd;clip-rule:evenodd;fill:#7B7D80;" d="M78.9,105.9c0.333-2.134,1.833-6.2,4.5-12.2
					c0.7-1.667,1.25-2.95,1.65-3.851c0.733-1.699,1.25-2.583,1.55-2.649c0.301-0.067,1.351,0.033,3.15,0.3
					c2.033,0.3,3.267,0.45,3.7,0.45c1.066,0.066,2.116-0.067,3.149-0.4c0.2-0.467,0.483-0.884,0.851-1.25
					c0.767-0.8,1.633-1.033,2.6-0.7c1.667,0.334,2.934,1.283,3.8,2.851c0.434,0.767,0.7,1.5,0.801,2.2l2.1,0.949
					c1.8,0.801,3.733,1.601,5.8,2.4c2.167,1.1,3.417,1.9,3.75,2.4c0.233,0.333,0.017,1.116-0.649,2.35
					c-0.634,1.166-1.467,2.35-2.5,3.55c-0.634,0.767-2.417,2.95-5.351,6.55c-3.166,3.533-6.3,6.134-9.399,7.801
					c-1.867,1.033-3.717,1.816-5.551,2.35c-2.267-0.4-4.216-0.667-5.85-0.8c-0.7-0.034-1.4-0.034-2.1,0l-5.65-0.75
					c-0.566-1.267-0.833-3.167-0.8-5.7C78.45,109.816,78.6,107.866,78.9,105.9z"/>
				<path style="fill-rule:evenodd;clip-rule:evenodd;fill:#8C8D8E;" d="M89.3,118.25l-0.45,0.15l-1.3-0.15
					c2.7-0.733,5.384-1.783,8.05-3.15c6-2.967,10.7-7.35,14.101-13.149c1.566-2.667,2.533-4.367,2.899-5.101
					c0.4-0.934,0.5-1.6,0.301-2c-0.334-0.533-0.767-1-1.301-1.399l1.45,0.45c0.5,0.232,1.317,0.55,2.45,0.949
					c-0.066,0.2-0.066,0.417,0,0.65c0.066,0.133,0.15,0.316,0.25,0.55c0.134,0.366-0.667,1.634-2.4,3.8
					c-3.033,3.767-4.866,6.066-5.5,6.9c-2.066,2.767-4.85,5.184-8.35,7.25C96.4,115.833,93,117.25,89.3,118.25z"/>
				<path style="fill-rule:evenodd;clip-rule:evenodd;fill:#504F52;" d="M88.85,118.4l0.45-0.15c7.733-2.1,13.601-5.867,17.601-11.3
					c2.199-3,4.533-6.5,7-10.5c0.199,0.333,0.6,0.583,1.199,0.75c-0.066,0.733-0.316,1.399-0.75,2
					c-0.232,0.3-0.683,0.767-1.35,1.399c-0.066,0.066-0.184,0.134-0.35,0.2c-0.2,0.033-0.334,0.101-0.4,0.2
					c-0.167,0.133-0.283,0.517-0.35,1.15c-0.4,0.666-1.134,1.716-2.2,3.149c-0.7,1.2-1.8,2.566-3.3,4.101
					c-2.301,2.3-3.517,3.516-3.65,3.649c-2.066,2.434-5.333,4.167-9.8,5.2l-1.8,0.45L88.85,118.4z"/>
				<path style="fill-rule:evenodd;clip-rule:evenodd;fill:#747475;" d="M88.45,109.85c0.2-0.166,0.533-0.35,1-0.55
					c0.467-0.233,0.8-0.434,1-0.6c0.2-0.2,0.383-0.483,0.55-0.851c0.233-0.434,0.417-0.733,0.55-0.899
					c0.233-0.3,0.65-0.65,1.25-1.05c0.601-0.4,1.017-0.768,1.25-1.101c0.267-0.434,0.55-1.083,0.851-1.95
					c0.366-1.133,0.583-1.767,0.649-1.899c0.3-0.934,0.55-1.684,0.75-2.25c0.4-1,0.8-1.55,1.2-1.65c-0.2-0.8-0.1-1.384,0.3-1.75
					l-0.6-0.6c0.1,0.033,0.283,0.017,0.55-0.05c-0.3-0.5-0.55-0.834-0.75-1l1.25-0.2c-0.167-0.267-0.3-0.45-0.4-0.55l0.351-0.25
					c-0.233-0.367-0.283-0.65-0.15-0.851c0.134-0.2,0.384-0.283,0.75-0.25c-0.1-0.267-0.316-0.517-0.649-0.75
					c-0.367-0.2-0.634-0.366-0.801-0.5l0.101-0.2c0.434-0.066,0.767-0.199,1-0.399l-0.65-0.3V89.35L98.95,89
					c-0.333-0.3-0.601-0.467-0.8-0.5L100.1,88l-0.35-0.6c0.134,0,0.333-0.018,0.6-0.051l-0.5-1c0.834,0.233,1.617,0.767,2.351,1.601
					c0.399,0.5,0.967,1.333,1.7,2.5l-0.4,0.7c-0.467-0.734-0.883-1.2-1.25-1.4l0.05,0.8l-0.649-0.899
					c0.133,0.232,0.267,0.683,0.399,1.35c-0.233,0-0.399-0.017-0.5-0.05c-0.166-0.034-0.35-0.15-0.55-0.351l0.35,1.2
					c-0.5-0.033-0.833-0.1-1-0.2c0.467,0.801,0.667,1.467,0.601,2c-0.434,0.033-0.75,0.033-0.95,0
					c0.167,0.301,0.316,0.816,0.45,1.551c-0.134-0.067-0.333-0.101-0.601-0.101c-0.3,0-0.482-0.017-0.55-0.05
					c0.233,0.434,0.317,0.833,0.25,1.2c-0.033,0.333-0.25,0.517-0.649,0.55c0.3,0.566,0.166,1.233-0.4,2
					c-0.3,0.4-0.75,0.916-1.35,1.55c-0.5,0.733-1.067,2.05-1.7,3.95l-1.351,2.5c0.768-0.667,1.4-1.25,1.9-1.75
					c0.967-0.867,1.333-1.5,1.1-1.9l0.801-1.55c0.066-0.467,0.233-0.85,0.5-1.149c0.133-0.167,0.383-0.334,0.75-0.5
					c0.366-0.167,0.616-0.351,0.75-0.551L99.7,98.7c0.533-0.167,1.333-0.384,2.399-0.65l-0.5-0.149c0.2-0.034,0.5-0.234,0.9-0.601
					l-0.4-0.649c0.733-0.4,1.217-0.75,1.45-1.051c-0.166-0.366-0.333-0.633-0.5-0.8l1.601-0.5c-0.5-0.366-0.834-0.583-1-0.649
					l0.399-0.25c0.233-0.167,0.417-0.25,0.55-0.25l-1-0.4c0.2,0,0.601-0.184,1.2-0.55c-0.267-0.034-0.5-0.15-0.7-0.351l0.25-0.75
					l0.2,0.301l0.95,0.3c0.267,0.566,0.833,1.033,1.7,1.399c0.5,0.2,1.184,0.467,2.05,0.801c0.733,0.466,1.3,1.149,1.7,2.05
					c0.434,0.933,0.033,1.033-1.2,0.3L110,96.7c-1.3-0.167-2.283-0.267-2.95-0.3l0.851,0.55c0.267,0.233,0.449,0.517,0.55,0.85
					c-0.2,0.033-0.583-0.017-1.15-0.149c-0.5-0.134-0.85-0.134-1.05,0c0.634,0.933,0.967,1.55,1,1.85
					c-1.167-0.667-2.167-0.834-3-0.5c0.167,0.267,0.417,0.666,0.75,1.2c0.3,0.466,0.5,0.899,0.6,1.3c-0.933-0.3-1.5-0.467-1.699-0.5
					c-0.7-0.167-1.217-0.15-1.551,0.05c0.134,0.233,0.367,0.601,0.7,1.101c0.3,0.466,0.517,0.833,0.65,1.1
					c-1.267-0.367-2.15-0.584-2.65-0.65c0.533,0.801,0.851,1.4,0.95,1.801c-0.9-0.2-1.566-0.301-2-0.301
					c-0.733,0-0.866,0.467-0.4,1.4c-0.5-0.1-0.85-0.15-1.05-0.15c-0.333-0.033-0.399,0.25-0.2,0.851c-0.666-0.233-1.1-0.233-1.3,0
					c-0.166,0.2-0.217,0.666-0.149,1.399c-0.334-0.199-0.584-0.233-0.75-0.1c-0.167,0.133-0.167,0.4,0,0.8
					c-1.334-0.434-1.717-0.1-1.15,1c-0.533,0.033-0.934,0.101-1.2,0.2c0.267,0.666,0.2,1.017-0.2,1.05
					c-0.199,0.033-0.666-0.05-1.399-0.25c0.2-0.134,0.316-0.25,0.35-0.35c-0.566,0-1.267,0.166-2.1,0.5c-0.8,0.3-1.467,0.633-2,1
					l-0.95,0.7l-1.2,0.6h-0.1c0.366-0.2,0.767-0.65,1.2-1.35C87.867,110.566,88.217,110.05,88.45,109.85z"/>
				<path style="fill-rule:evenodd;clip-rule:evenodd;fill:#747475;" d="M89,97.7c-0.167-1.034-0.35-1.8-0.55-2.3
					c0.133,0,0.333-0.084,0.6-0.25c-0.3-1.234-0.433-2.034-0.399-2.4c-0.2-1.134-0.217-1.85-0.051-2.15L88,89.8
					c-0.233-0.333-0.35-0.616-0.35-0.85c0.733,0.533,1.967,0.8,3.699,0.8c1.534,0,2.768-0.167,3.7-0.5l0.7,0.9
					c-0.2,0.3-0.333,0.833-0.4,1.6c-0.066,0.833-0.166,1.4-0.3,1.7L94.65,94.1c0.5-1.467,0.616-2.816,0.35-4.05l-0.7-0.3l-1.899,0.5
					c0.199,0.1,0.416,0.283,0.649,0.55l0.05,1.351c0.034,0.066-0.05,0.166-0.25,0.3c-0.166,0.1-0.25,0.2-0.25,0.3
					c0,0.166,0.084,0.366,0.25,0.6c0.167,0.233,0.25,0.4,0.25,0.5c-0.033,0.334-0.033,0.884,0,1.65
					c-0.066,0.233-0.25,0.416-0.55,0.55c-0.233,0.101-0.316,0.283-0.25,0.55c-0.333,0.434-0.733,1.101-1.2,2
					c-0.533,0.967-0.933,1.634-1.199,2c-0.733,1.066-1.634,1.983-2.7,2.75c-0.033-0.267,0.017-0.483,0.149-0.649
					c0.2-0.267,0.317-0.434,0.351-0.5c0.066-0.167,0.167-0.684,0.3-1.55c0.066-0.768,0.134-1.351,0.2-1.75
					C88.333,98.233,88.6,97.833,89,97.7z"/>
				<path style="fill-rule:evenodd;clip-rule:evenodd;fill:#8C8D8E;" d="M78.9,105.9c0.333-2.134,1.833-6.2,4.5-12.2
					c1.2-3,2.067-4.95,2.6-5.851c0.333,0.267,0.65,0.384,0.95,0.351l0.6,0.05c-0.366,0.6-0.866,1.6-1.5,3
					c-0.566,1.3-0.967,2.333-1.2,3.1c-0.167,0.566-0.767,1.684-1.8,3.351c-1.066,1.733-1.716,2.95-1.95,3.649
					c-1.267,3.834-1.867,7.25-1.8,10.25c0.034,0.834,0.067,1.95,0.1,3.351c0.067,1.1,0.184,1.95,0.35,2.55l-0.5-0.05
					c-0.566-1.267-0.833-3.167-0.8-5.7C78.45,109.816,78.6,107.866,78.9,105.9z"/>
				<path style="fill-rule:evenodd;clip-rule:evenodd;fill:#656869;" d="M100.35,91.6c0.167,0.101,0.5,0.167,1,0.2L101,90.6
					c0.2,0.2,0.384,0.316,0.55,0.351c0.101,0.033,0.267,0.05,0.5,0.05c-0.133-0.667-0.267-1.117-0.399-1.35l0.649,0.899l-0.05-0.8
					c0.367,0.2,0.783,0.666,1.25,1.4c-0.366,0.5-0.633,0.699-0.8,0.6l-0.3,0.3c-0.434,0.2-0.717,0.55-0.851,1.05
					c-0.066,0.301-0.166,0.767-0.3,1.4c-0.3,0.633-0.85,1.4-1.65,2.3c-0.267,0.434-0.566,1.116-0.899,2.05
					c0.399-0.3,0.8-0.684,1.2-1.149c0.3-0.367,0.666-0.934,1.1-1.7c0.467-0.834,0.8-1.4,1-1.7c0.134-0.2,0.483-0.583,1.05-1.149
					c0.5-0.5,0.851-0.934,1.05-1.301c0.2,0.2,0.434,0.316,0.7,0.351c-0.6,0.366-1,0.55-1.2,0.55l1,0.4
					c-0.133,0-0.316,0.083-0.55,0.25l-0.399,0.25c0.166,0.066,0.5,0.283,1,0.649l-1.601,0.5c0.167,0.167,0.334,0.434,0.5,0.8
					c-0.233,0.301-0.717,0.65-1.45,1.051l0.4,0.649c-0.4,0.366-0.7,0.566-0.9,0.601l0.5,0.149c-1.066,0.267-1.866,0.483-2.399,0.65
					l0.2,0.649c-0.134,0.2-0.384,0.384-0.75,0.551c-0.367,0.166-0.617,0.333-0.75,0.5c-0.267,0.3-0.434,0.683-0.5,1.149L97.1,103.1
					c0.233,0.4-0.133,1.033-1.1,1.9c-0.5,0.5-1.133,1.083-1.9,1.75l1.351-2.5c0.633-1.9,1.2-3.217,1.7-3.95
					c0.102-0.108,0.202-0.216,0.3-0.325c0.451-0.484,0.801-0.893,1.05-1.225c0.566-0.767,0.7-1.434,0.4-2
					c0.399-0.033,0.616-0.217,0.649-0.55c0.067-0.367-0.017-0.767-0.25-1.2c0.067,0.033,0.25,0.05,0.55,0.05
					c0.268,0,0.467,0.033,0.601,0.101c-0.134-0.734-0.283-1.25-0.45-1.551c0.2,0.033,0.517,0.033,0.95,0
					C101.017,93.066,100.816,92.4,100.35,91.6z"/>
				<path style="fill-rule:evenodd;clip-rule:evenodd;fill:#656869;" d="M92.3,96.6l0.4-0.5c0.934-0.833,1.583-1.5,1.95-2
					c-0.533,1.566-1.301,2.5-2.301,2.801L92.3,96.6z"/>
				<path style="fill-rule:evenodd;clip-rule:evenodd;fill:#656869;" d="M92.4,90.25l1.899-0.5l0.7,0.3
					c0.267,1.233,0.15,2.583-0.35,4.05c-0.367,0.5-1.017,1.167-1.95,2l-0.4,0.5c-0.066-0.267,0.017-0.449,0.25-0.55
					c0.3-0.134,0.483-0.316,0.55-0.55c-0.033-0.767-0.033-1.316,0-1.65c0-0.1-0.083-0.267-0.25-0.5
					c-0.166-0.233-0.25-0.434-0.25-0.6c0-0.1,0.084-0.2,0.25-0.3c0.2-0.134,0.284-0.233,0.25-0.3L93.05,90.8
					C92.816,90.533,92.6,90.35,92.4,90.25z"/>
				<path style="fill-rule:evenodd;clip-rule:evenodd;fill:#505152;" d="M104.05,89.35c0.334,0.601,0.434,1.184,0.3,1.75
					L103.9,90.45C104.1,90.017,104.15,89.65,104.05,89.35z"/>
				<polygon style="fill-rule:evenodd;clip-rule:evenodd;fill:#505152;" points="103.5,91.15 103.9,90.45 104.35,91.1 104.1,91.85 
									"/>
				<path style="fill-rule:evenodd;clip-rule:evenodd;fill:#505152;" d="M102.7,91.75c0.167,0.1,0.434-0.1,0.8-0.6l0.6,0.699
					c-0.199,0.367-0.55,0.801-1.05,1.301c-0.566,0.566-0.916,0.949-1.05,1.149c-0.2,0.3-0.533,0.866-1,1.7
					c-0.434,0.767-0.8,1.333-1.1,1.7c-0.4,0.466-0.801,0.85-1.2,1.149c0.333-0.934,0.633-1.616,0.899-2.05
					c0.801-0.899,1.351-1.667,1.65-2.3c0.134-0.634,0.233-1.1,0.3-1.4c0.134-0.5,0.417-0.85,0.851-1.05L102.7,91.75z"/>
				<path style="fill-rule:evenodd;clip-rule:evenodd;fill:#8C8D8E;" d="M87.55,88.25c0.167-0.334,0.3-0.5,0.4-0.5
					c0.167-0.066,0.333-0.217,0.5-0.45c1.1,0.134,2.767,0.351,5,0.65c1.066,0.066,2.116-0.067,3.149-0.4
					c0.2-0.467,0.483-0.884,0.851-1.25c0.767-0.8,1.633-1.033,2.6-0.7c1.601,0.3,2.8,1.134,3.601,2.5
					c-0.867-0.8-1.783-1.383-2.75-1.75c-0.967-0.399-1.783-0.483-2.45-0.25c-0.601,0.2-1.184,0.684-1.75,1.45
					c-0.3,0.366-0.533,0.717-0.7,1.05L91.85,88.7c-0.5,0-1.25-0.067-2.25-0.2C88.533,88.333,87.85,88.25,87.55,88.25z"/>
				<path style="fill-rule:evenodd;clip-rule:evenodd;fill:#8C8D8E;" d="M86.95,88.2c-0.3,0.033-0.617-0.084-0.95-0.351
					c0.267-0.434,0.467-0.649,0.6-0.649c0.167-0.067,0.784-0.034,1.851,0.1c-0.167,0.233-0.333,0.384-0.5,0.45
					c-0.101,0-0.233,0.166-0.4,0.5L86.95,88.2z"/>
				<path style="fill-rule:evenodd;clip-rule:evenodd;fill:#8C8D8E;" d="M97.6,86.95c0.4-0.167,0.65-0.284,0.75-0.351l1.4-0.1
					c-0.133,0.267-0.434,0.566-0.9,0.9c-0.399,0.3-0.649,0.583-0.75,0.85c-0.033,0.1-0.133,0.467-0.3,1.1h-0.1l0.1,0.051l-0.149,0.5
					l-0.2,0.199L97.2,90.2l0.149,0.1l-0.1,0.15c0,0.066,0.033,0.183,0.1,0.35c0.101,0.167,0.134,0.283,0.101,0.351
					c-0.066,0.199-0.533,0.933-1.4,2.199L95.25,94l0.05-0.45c0.067-0.333,0.233-0.733,0.5-1.2c0.267-0.533,0.434-0.916,0.5-1.149
					c0.033-0.601,0.101-1.067,0.2-1.4l0.3-0.75c-0.066-0.3-0.1-0.5-0.1-0.6l0.25-1.05C97.083,87.2,97.3,87.05,97.6,86.95z"/>
				<polygon style="fill-rule:evenodd;clip-rule:evenodd;fill:#8C8D8E;" points="97.2,90.2 97.45,90.1 97.35,90.3 				"/>
				<path style="fill-rule:evenodd;clip-rule:evenodd;fill:#747475;" d="M80.1,115.95c-0.2-0.601-0.283-1.05-0.25-1.351l0.3,0.851
					c0.1-0.233,0.15-0.517,0.15-0.851l0.35,0.95l1.1,0.2l-1.2,0.9c3.3,0.933,6.601,0.933,9.9,0c-0.733,0.232-1.467,0.566-2.2,1
					l-1.1,0.55H87c-0.7-0.034-1.4-0.034-2.1,0l-4.55-0.601l-0.05-0.35C80.333,116.983,80.267,116.55,80.1,115.95z"/>
				<path style="fill-rule:evenodd;clip-rule:evenodd;fill:#747475;" d="M91.9,116.125c1.185-0.436,2.318-1.044,3.399-1.825
					l2.351-0.8c-0.767,0.633-1.75,1.2-2.95,1.7C94.422,115.293,93.489,115.602,91.9,116.125z"/>
				<path style="fill-rule:evenodd;clip-rule:evenodd;fill:#747475;" d="M87.2,112.85V112.7h-0.15l-0.1-0.101H86.8l0.7-0.449
					c1.2-0.768,2.033-1.184,2.5-1.25h0.9c0.1-0.067,0.316-0.301,0.649-0.7l0.65,0.1c-0.233,0.2-0.55,0.45-0.95,0.75
					c-0.1,0.066-0.267,0.25-0.5,0.55c-0.233,0.267-0.434,0.45-0.6,0.551c0.1,0.1,0.217,0.216,0.35,0.35c0.134,0.133,0.3,0.2,0.5,0.2
					c-0.333,0.2-0.583,0.333-0.75,0.399c0.634,0.566,1.934,0.7,3.9,0.4c-1.267,0.267-2.2,0.5-2.801,0.7
					c0.534,0.466,1.301,0.533,2.301,0.2c1.199-0.4,1.949-0.567,2.25-0.5L95.3,114.3c-2.267,0.8-3.983,1.167-5.149,1.101
					c0.333-0.034,0.683-0.167,1.05-0.4c-0.601,0.166-1.05,0.283-1.351,0.35c-0.533,0.101-1,0.066-1.399-0.1
					c0.167-0.1,0.399-0.283,0.7-0.55l-0.7-0.101l0.25-0.3h0.1L87.2,112.85z"/>
				<path style="fill-rule:evenodd;clip-rule:evenodd;fill:#747475;" d="M87.5,112.15l0.95-0.7c0.533-0.367,1.2-0.7,2-1
					c0.833-0.334,1.533-0.5,2.1-0.5c-0.033,0.1-0.149,0.216-0.35,0.35l-0.65-0.1c-0.333,0.399-0.55,0.633-0.649,0.7H90
					C89.533,110.967,88.7,111.383,87.5,112.15z"/>
				<path style="fill-rule:evenodd;clip-rule:evenodd;fill:#747475;" d="M80.55,116.65l1.2-0.9l1.6,0.25l1.65-0.7
					c0.533-0.033,1.184-0.167,1.95-0.399c0.434-0.134,1.017-0.334,1.75-0.601l-0.25,0.3l0.7,0.101c-0.301,0.267-0.533,0.45-0.7,0.55
					c0.399,0.166,0.866,0.2,1.399,0.1c0.301-0.066,0.75-0.184,1.351-0.35c-0.367,0.233-0.717,0.366-1.05,0.4
					c1.166,0.066,2.883-0.301,5.149-1.101c-1.2,0.866-2.467,1.517-3.8,1.95l-1.05,0.4C87.15,117.583,83.85,117.583,80.55,116.65z"/>
				<path style="fill-rule:evenodd;clip-rule:evenodd;fill:#747475;" d="M80.9,109.15c0,0.033,0.117,0.333,0.35,0.899
					c0.267-0.233,0.467-0.8,0.6-1.7c0.133-0.833,0.316-1.333,0.55-1.5c0.034,0.467-0.1,1.283-0.4,2.45
					c-0.6,0.9-0.883,1.717-0.85,2.45c0.1,0.8,0.467,1.583,1.1,2.35l0.25,0.301c-0.7-0.101-1.233-0.634-1.6-1.601
					c0.133,0.767,0.133,1.366,0,1.8c-0.333-0.767-0.5-1.166-0.5-1.199l-0.1,1.199c-0.4-1.199-0.667-2.1-0.8-2.699l0.6,0.949
					c0.1-0.3,0.217-0.85,0.35-1.649l0.3,0.6C80.817,110.6,80.867,109.717,80.9,109.15z"/>
				<path style="fill-rule:evenodd;clip-rule:evenodd;fill:#747475;" d="M81.75,115.75l-1.1-0.2l-0.35-0.95l0.1-1.199
					c0,0.033,0.167,0.433,0.5,1.199c0.133-0.434,0.133-1.033,0-1.8c0.367,0.967,0.9,1.5,1.6,1.601l0.45,0.399L81.75,115.75z"/>
				<polygon style="fill-rule:evenodd;clip-rule:evenodd;fill:#747475;" points="87.2,112.7 87.2,112.85 87.05,112.7 				"/>
				<path style="fill-rule:evenodd;clip-rule:evenodd;fill:#747475;" d="M85,115.3l-1.65,0.7l-1.6-0.25l1.2-0.95
					C83.517,115.2,84.2,115.366,85,115.3z"/>
				<path style="fill-rule:evenodd;clip-rule:evenodd;fill:#747475;" d="M82,109.3l0.65-0.85c0,0.633,0.1,1.149,0.3,1.55
					c0.1-1.033,0.4-2.05,0.9-3.05c0,0.3,0,0.733,0,1.3c0,0.5,0.083,0.916,0.25,1.25c0.4-0.233,0.667-0.434,0.8-0.6
					c-0.433,1.466-0.433,2.566,0,3.3c0.2,0.3,0.417,0.5,0.65,0.6c-0.633,0.066-1.133,0.066-1.5,0c-0.5-0.066-1.05-0.3-1.65-0.7
					c-0.466-0.333-0.716-0.5-0.75-0.5c0.067-0.233,0.117-0.566,0.15-1C81.8,110.333,81.867,109.9,82,109.3z"/>
				<polygon style="fill-rule:evenodd;clip-rule:evenodd;fill:#747475;" points="86.95,112.6 87.05,112.7 86.65,112.7 86.8,112.6 
									"/>
				<path style="fill-rule:evenodd;clip-rule:evenodd;fill:#747475;" d="M86.65,114.2c0.333-0.367,0.517-0.817,0.55-1.351l1.55,1.4
					L86.65,114.2z"/>
				<path style="fill-rule:evenodd;clip-rule:evenodd;fill:#747475;" d="M85,115.3c0.7-0.3,1.25-0.667,1.65-1.1l2.1,0.05l-0.05,0.05
					c-0.733,0.267-1.316,0.467-1.75,0.601C86.184,115.133,85.533,115.267,85,115.3z"/>
				<path style="fill-rule:evenodd;clip-rule:evenodd;fill:#747475;" d="M85.55,112.8l0.3,0.05l0.65-0.149h0.15l-1,0.7
					c-0.267,0.166-0.8,0.283-1.601,0.35c-0.133-0.066-0.316-0.217-0.55-0.45l0.2,0.7l-0.15,0.3l-0.3,0.25L82.5,114.4l-0.25-0.301
					c-0.633-0.767-1-1.55-1.1-2.35c-0.033-0.733,0.25-1.55,0.85-2.45c-0.133,0.601-0.2,1.033-0.2,1.3
					c-0.033,0.434-0.083,0.767-0.15,1c0.034,0,0.284,0.167,0.75,0.5c0.6,0.4,1.15,0.634,1.65,0.7
					C84.417,112.866,84.917,112.866,85.55,112.8z"/>
				<path style="fill-rule:evenodd;clip-rule:evenodd;fill:#747475;" d="M83.5,113.3c0.233,0.233,0.417,0.384,0.55,0.45L83.7,114
					L83.5,113.3z"/>
				<polygon style="fill-rule:evenodd;clip-rule:evenodd;fill:#747475;" points="82.5,114.4 83.25,114.55 82.95,114.8 				"/>
				<polygon style="fill-rule:evenodd;clip-rule:evenodd;fill:#747475;" points="83.7,114 83.85,114.75 83.25,114.55 83.55,114.3 
									"/>
				<path style="fill-rule:evenodd;clip-rule:evenodd;fill:#747475;" d="M86.65,114.2H85.55c-0.667-0.067-1.167-0.217-1.5-0.45
					c0.8-0.066,1.334-0.184,1.601-0.35l1-0.7h0.399l0.15,0.149C87.167,113.383,86.983,113.833,86.65,114.2z"/>
				<path style="fill-rule:evenodd;clip-rule:evenodd;fill:#747475;" d="M85,115.3c-0.8,0.066-1.483-0.1-2.05-0.5l0.3-0.25l0.6,0.2
					L83.7,114l0.35-0.25c0.333,0.233,0.833,0.383,1.5,0.45h1.101C86.25,114.633,85.7,115,85,115.3z"/>
				<path style="fill-rule:evenodd;clip-rule:evenodd;fill:#3E3D40;" d="M113.9,96.45l0.649-1.4l0.101,0.05
					c0.033,0.2-0.017,0.384-0.15,0.551c-0.066,0.1-0.184,0.216-0.35,0.35L113.9,96.45z"/>
				<path style="fill-rule:evenodd;clip-rule:evenodd;fill:#3E3D40;" d="M106.4,109.4c1.5-1.534,2.6-2.9,3.3-4.101
					c1.066-1.434,1.8-2.483,2.2-3.149c0.066-0.634,0.183-1.018,0.35-1.15c0.066-0.1,0.2-0.167,0.4-0.2
					c0.166-0.066,0.283-0.134,0.35-0.2c0.667-0.633,1.117-1.1,1.35-1.399c0.434-0.601,0.684-1.267,0.75-2
					c-0.6-0.167-1-0.417-1.199-0.75l0.25-0.45c0.166-0.134,0.283-0.25,0.35-0.35c0.134-0.167,0.184-0.351,0.15-0.551
					c0.933,0.566,1.483,1,1.649,1.301c0.233,0.333,0.017,1.116-0.649,2.35c-0.634,1.166-1.467,2.35-2.5,3.55
					c-0.634,0.767-2.417,2.95-5.351,6.55c-3.166,3.533-6.3,6.134-9.399,7.801c-1.867,1.033-3.717,1.816-5.551,2.35l-1.699-0.3
					l1.8-0.45c4.467-1.033,7.733-2.767,9.8-5.2C102.884,112.916,104.1,111.7,106.4,109.4z"/>
			</g>
		</g>
	</g>
	<g>
		<path style="fill-rule:evenodd;clip-rule:evenodd;fill:#EFF4D9;" d="M106.65,31.05c2.267,0,4.083,0.7,5.449,2.1
			c1.2,1.2,1.801,2.567,1.801,4.1c0,2.3-0.934,4.05-2.801,5.25c1.233,0.566,2.233,1.383,3,2.45c0.768,1.1,1.15,2.3,1.15,3.6
			c0,2.066-0.833,3.833-2.5,5.3c-1.667,1.5-3.7,2.25-6.1,2.25c-2.334,0-4.317-0.733-5.95-2.2c-1.467-1.333-2.2-2.733-2.2-4.2
			c0-0.634,0.283-1.184,0.85-1.65c0.534-0.434,1.134-0.65,1.801-0.65c0.633,0,1.366,0.667,2.199,2c0.867,1.333,2,2,3.4,2
			c0.867,0,1.617-0.3,2.25-0.9c0.634-0.634,0.95-1.4,0.95-2.3c0-1.634-0.967-2.601-2.9-2.9c-1.933-0.3-2.899-1.083-2.899-2.35
			c0-1.167,0.816-1.967,2.449-2.4c1.601-0.4,2.4-1.25,2.4-2.55c0-0.634-0.217-1.167-0.65-1.6c-0.466-0.433-1.066-0.65-1.8-0.65
			c-1.166,0-2.133,0.566-2.899,1.7c-0.767,1.1-1.5,1.649-2.2,1.649c-0.667,0-1.2-0.267-1.601-0.8c-0.399-0.5-0.6-1.083-0.6-1.75
			c0-1.333,0.767-2.583,2.3-3.75C103.083,31.633,104.783,31.05,106.65,31.05z"/>
		
			<linearGradient id="SVGID_8_" gradientUnits="userSpaceOnUse" x1="-55.9067" y1="106.8779" x2="-30.9067" y2="106.8779" gradientTransform="matrix(4.000000e-005 -1 1 -0.001 6.127130e-005 4.449275e-004)">
			<stop  offset="0.149" style="stop-color:#0E2904"/>
			<stop  offset="0.302" style="stop-color:#143004"/>
			<stop  offset="0.5176" style="stop-color:#244304"/>
			<stop  offset="0.7765" style="stop-color:#3E6206"/>
			<stop  offset="0.9686" style="stop-color:#567E09"/>
		</linearGradient>
		<path style="fill-rule:evenodd;clip-rule:evenodd;fill:url(#SVGID_8_);" d="M106.65,29.9c2.267,0,4.083,0.716,5.449,2.15
			c1.2,1.2,1.801,2.566,1.801,4.1c0,2.267-0.934,4-2.801,5.2c1.233,0.567,2.233,1.384,3,2.45c0.768,1.1,1.15,2.316,1.15,3.65
			c0,2.033-0.833,3.783-2.5,5.25c-1.667,1.5-3.7,2.25-6.1,2.25c-2.334,0-4.317-0.733-5.95-2.2c-1.467-1.3-2.2-2.7-2.2-4.2
			c0-0.633,0.283-1.184,0.85-1.65c0.534-0.433,1.134-0.65,1.801-0.65c0.633,0,1.366,0.667,2.199,2c0.867,1.333,2,2,3.4,2
			c0.9,0,1.65-0.3,2.25-0.9c0.634-0.6,0.95-1.35,0.95-2.25c0-1.633-0.967-2.6-2.9-2.899c-1.933-0.3-2.899-1.101-2.899-2.4
			c0-1.167,0.816-1.95,2.449-2.35c1.601-0.434,2.4-1.284,2.4-2.55c0-0.667-0.217-1.216-0.65-1.65c-0.466-0.434-1.066-0.65-1.8-0.65
			c-1.166,0-2.133,0.567-2.899,1.7c-0.767,1.1-1.5,1.65-2.2,1.65c-0.667,0-1.2-0.267-1.601-0.8c-0.399-0.466-0.6-1.034-0.6-1.7
			c0-1.334,0.767-2.584,2.3-3.75C103.083,30.5,104.783,29.9,106.65,29.9z"/>
	</g>
	<g>
		<path style="fill-rule:evenodd;clip-rule:evenodd;fill:#EFF4D9;" d="M75.7,33.6c0,1.7-0.784,2.55-2.35,2.55h-6.4l-0.5,3.6
			c1.233-0.233,2.083-0.35,2.55-0.35c2.033,0,3.717,0.716,5.05,2.15c1.3,1.4,1.95,3.1,1.95,5.1c0,2.9-0.767,5.183-2.3,6.85
			c-1.567,1.733-3.8,2.6-6.7,2.6c-1.5,0-3.033-0.383-4.6-1.149c-1.9-0.934-2.85-2.084-2.85-3.45c0-0.634,0.233-1.167,0.7-1.6
			c0.434-0.466,0.967-0.7,1.6-0.7c0.367,0,1.133,0.366,2.3,1.1c1.133,0.733,2.117,1.1,2.95,1.1c1.133,0,2.033-0.483,2.7-1.45
			c0.6-0.834,0.9-1.834,0.9-3c0-1.034-0.284-1.867-0.85-2.5c-0.567-0.634-1.367-0.95-2.4-0.95c-0.667,0-1.367,0.184-2.1,0.55
			c-0.733,0.367-1.367,0.55-1.9,0.55c-0.6,0-1.1-0.183-1.5-0.55c-0.333-0.333-0.5-0.684-0.5-1.05l0.95-8.3
			c0.167-1.3,0.45-2.167,0.85-2.601c0.367-0.433,0.967-0.649,1.8-0.649h8.2c0.767,0,1.367,0.216,1.8,0.649
			C75.483,32.467,75.7,32.967,75.7,33.6z"/>
		
			<linearGradient id="SVGID_9_" gradientUnits="userSpaceOnUse" x1="-55.9053" y1="67.7773" x2="-30.9303" y2="67.7773" gradientTransform="matrix(4.004004e-005 -1 1 -0.001 -1.024090e-004 4.449275e-004)">
			<stop  offset="0.149" style="stop-color:#0E2904"/>
			<stop  offset="0.302" style="stop-color:#143004"/>
			<stop  offset="0.5176" style="stop-color:#244304"/>
			<stop  offset="0.7765" style="stop-color:#3E6206"/>
			<stop  offset="0.9686" style="stop-color:#567E09"/>
		</linearGradient>
		<path style="fill-rule:evenodd;clip-rule:evenodd;fill:url(#SVGID_9_);" d="M73.35,35h-6.4l-0.5,3.6c1.066-0.2,1.917-0.3,2.55-0.3
			c2.033,0,3.717,0.7,5.05,2.1c1.3,1.4,1.95,3.1,1.95,5.1c0,2.9-0.767,5.184-2.3,6.85c-1.567,1.733-3.8,2.601-6.7,2.601
			c-1.5,0-3.033-0.384-4.6-1.15c-1.9-0.934-2.85-2.066-2.85-3.4c0-0.633,0.233-1.183,0.7-1.65c0.434-0.467,0.967-0.7,1.6-0.7
			c0.367,0,1.133,0.367,2.3,1.1c1.133,0.733,2.117,1.1,2.95,1.1c1.133,0,2.033-0.467,2.7-1.4c0.6-0.866,0.9-1.883,0.9-3.05
			c0-1.033-0.284-1.866-0.85-2.5c-0.567-0.633-1.367-0.95-2.4-0.95c-0.667,0-1.367,0.2-2.1,0.601c-0.733,0.366-1.367,0.55-1.9,0.55
			c-0.6,0-1.1-0.2-1.5-0.6c-0.333-0.333-0.5-0.667-0.5-1l0.95-8.35c0.167-1.3,0.45-2.167,0.85-2.6c0.333-0.4,0.934-0.601,1.8-0.601
			h8.2c0.767,0,1.367,0.2,1.8,0.601c0.434,0.399,0.65,0.899,0.65,1.5C75.7,34.15,74.917,35,73.35,35z"/>
	</g>
	<g>
		<path style="fill-rule:evenodd;clip-rule:evenodd;fill:#EFF4D9;" d="M94.6,51.9c-1.566,2.8-3.916,4.2-7.05,4.2
			c-3.133,0-5.483-1.399-7.05-4.2c-1.3-2.267-1.95-5.05-1.95-8.35s0.65-6.083,1.95-8.35c1.567-2.767,3.917-4.15,7.05-4.15
			c3.134,0,5.483,1.384,7.05,4.15c1.301,2.267,1.95,5.05,1.95,8.35S95.9,49.633,94.6,51.9z M87.55,51.45c2.467,0,3.7-2.634,3.7-7.9
			c0-5.233-1.233-7.85-3.7-7.85s-3.7,2.616-3.7,7.85C83.85,48.816,85.083,51.45,87.55,51.45z"/>
		
			<linearGradient id="SVGID_10_" gradientUnits="userSpaceOnUse" x1="-55.8872" y1="87.5518" x2="-30.8872" y2="87.5518" gradientTransform="matrix(4.000000e-005 -1 1 -0.001 6.127130e-005 4.449275e-004)">
			<stop  offset="0.149" style="stop-color:#0E2904"/>
			<stop  offset="0.302" style="stop-color:#143004"/>
			<stop  offset="0.5176" style="stop-color:#244304"/>
			<stop  offset="0.7765" style="stop-color:#3E6206"/>
			<stop  offset="0.9686" style="stop-color:#567E09"/>
		</linearGradient>
		<path style="fill-rule:evenodd;clip-rule:evenodd;fill:url(#SVGID_10_);" d="M94.6,50.75c-1.566,2.8-3.916,4.2-7.05,4.2
			c-3.1,0-5.45-1.4-7.05-4.2c-1.3-2.233-1.95-5-1.95-8.3c0-3.3,0.65-6.084,1.95-8.351c1.567-2.8,3.917-4.2,7.05-4.2
			c3.134,0,5.483,1.4,7.05,4.2c1.301,2.267,1.95,5.05,1.95,8.351C96.55,45.75,95.9,48.517,94.6,50.75z M87.55,50.3
			c2.467,0,3.7-2.616,3.7-7.85c0-5.267-1.233-7.9-3.7-7.9s-3.7,2.634-3.7,7.9C83.85,47.684,85.083,50.3,87.55,50.3z"/>
	</g>
	
		<use xlink:href="#FlashAICB_x2F_Layer_114_x2F__x3C_Path_x3E__x5F_0"  width="118.7" height="57.15" y="-57.15" transform="matrix(1 0 0 -1 26.6001 85.1001)" style="overflow:visible;opacity:0.4688;enable-background:new    ;"/>
	<g>
		
			<use xlink:href="#FlashAICB_x2F_Layer_114_x2F__x3C_Path_x3E__x5F_1"  width="110" height="55.8" y="-55.8" transform="matrix(1 0 0 -1 30.9502 26.2998)" style="overflow:visible;opacity:0.1094;enable-background:new    ;"/>
		
			<use xlink:href="#FlashAICB_x2F_Layer_114_x2F__x3C_Path_x3E__x5F_2"  width="110" height="61.344" y="-61.344" transform="matrix(1 0 0 -1 30.9502 26.2998)" style="overflow:visible;opacity:0.0898;enable-background:new    ;"/>
	</g>
</g>
<g>
	<linearGradient id="SVGID_11_" gradientUnits="userSpaceOnUse" x1="58.064" y1="75.8496" x2="58.064" y2="96.3746">
		<stop  offset="0.0745" style="stop-color:#6B9724"/>
		<stop  offset="0.2588" style="stop-color:#82B139"/>
		<stop  offset="0.4471" style="stop-color:#9DCF52"/>
		<stop  offset="0.9647" style="stop-color:#DAE772"/>
	</linearGradient>
	<path style="fill-rule:evenodd;clip-rule:evenodd;fill:url(#SVGID_11_);" d="M55.55,78.25l0.95-0.55
		c1.434-1.233,3.15-1.851,5.15-1.851c0.767,0,1.467,0.084,2.1,0.25l0.2,0.05c2.033,0.7,3.316,1.667,3.85,2.9
		c0.4,1.033,0.384,2.05-0.05,3.05c-0.133,0.367-0.35,0.733-0.65,1.101c0.667,0.399,1.2,0.933,1.6,1.6
		c0.6,0.833,0.95,1.816,1.05,2.95c0.1,1.066-0.066,2.133-0.5,3.2c-0.5,1.267-1.333,2.283-2.5,3.05c-1.167,0.733-2.517,1.1-4.05,1.1
		c-1.333,0-2.55-0.267-3.65-0.8c-1.2,1.366-2.8,2.05-4.8,2.05c-1.233,0-2.417-0.267-3.55-0.8s-2.083-1.283-2.85-2.25
		c-1.367-1.8-1.8-3.7-1.3-5.7c0.267-1.133,0.817-2.133,1.65-3l-0.15-0.35c-0.633-1.566-0.483-3.134,0.45-4.7
		c1-1.7,2.533-2.6,4.6-2.7c0.767-0.033,1.417,0.217,1.95,0.75L55.55,78.25z"/>
	<path style="fill-rule:evenodd;clip-rule:evenodd;fill:none;stroke:#ECF8BD;stroke-width:0.25;" d="M55.55,78.25l0.95-0.55
		c1.434-1.233,3.15-1.851,5.15-1.851c0.767,0,1.467,0.084,2.1,0.25l0.2,0.05c2.033,0.7,3.316,1.667,3.85,2.9
		c0.4,1.033,0.384,2.05-0.05,3.05c-0.133,0.367-0.35,0.733-0.65,1.101c0.667,0.399,1.2,0.933,1.6,1.6
		c0.6,0.833,0.95,1.816,1.05,2.95c0.1,1.066-0.066,2.133-0.5,3.2c-0.5,1.267-1.333,2.283-2.5,3.05c-1.167,0.733-2.517,1.1-4.05,1.1
		c-1.333,0-2.55-0.267-3.65-0.8c-1.2,1.366-2.8,2.05-4.8,2.05c-1.233,0-2.417-0.267-3.55-0.8s-2.083-1.283-2.85-2.25
		c-1.367-1.8-1.8-3.7-1.3-5.7c0.267-1.133,0.817-2.133,1.65-3l-0.15-0.35c-0.633-1.566-0.483-3.134,0.45-4.7
		c1-1.7,2.533-2.6,4.6-2.7c0.767-0.033,1.417,0.217,1.95,0.75L55.55,78.25z"/>
	<path style="fill-rule:evenodd;clip-rule:evenodd;fill:#21230C;" d="M53.6,79.05c0.133,0.1,0.2,0.233,0.2,0.4l-0.05,0.45
		c-0.033,0.367-0.017,0.583,0.05,0.65c0.167,0.1,0.367,0.15,0.6,0.15c0.9,0,2.034-0.483,3.4-1.45c1.1-0.934,2.384-1.4,3.85-1.4
		c0.367,0,0.883,0.067,1.55,0.2h0.1c1.434,0.6,2.3,1.217,2.6,1.85c0.2,0.433,0.2,0.9,0,1.4c-0.267,0.667-0.966,1.083-2.1,1.25
		c-0.5,0.1-0.767,0.15-0.8,0.15c-0.6,0.3-1.066,0.916-1.4,1.85c-0.5,1.033-0.55,1.917-0.15,2.65c0.2,0.333,0.517,0.55,0.95,0.649
		h0.15c0.434,0,0.7-0.133,0.8-0.399c0.2-0.367,0.183-0.75-0.05-1.15c-0.267-0.6-0.383-1.066-0.35-1.4c0-0.3,0.167-0.483,0.5-0.55
		h0.45c1.367,0,2.417,0.517,3.15,1.55c0.867,1.3,0.967,2.733,0.3,4.3c-0.333,0.899-0.917,1.616-1.75,2.149
		c-0.833,0.5-1.8,0.75-2.9,0.75c-1.667,0-3.1-0.55-4.3-1.649L58.35,91.6c-0.233,0.533-0.434,0.9-0.6,1.101
		c-0.833,1.1-2,1.649-3.5,1.649c-0.9,0-1.783-0.199-2.65-0.6c-0.867-0.434-1.583-1-2.15-1.7c-0.934-1.233-1.25-2.566-0.95-4
		c0.367-1.533,1.3-2.517,2.8-2.95c-0.633-0.399-1.083-0.933-1.35-1.6c-0.367-0.967-0.267-1.95,0.3-2.95
		c0.633-1.033,1.617-1.583,2.95-1.65C53.367,78.9,53.5,78.95,53.6,79.05z M53.45,88.55c0.267,0.066,0.466,0.017,0.6-0.149
		c0.434-0.467,0.65-1.351,0.65-2.65c-0.2,0.066-0.5,0.1-0.9,0.1h-0.4l-0.05,0.05c-0.233,0.367-0.383,0.766-0.45,1.2
		c-0.1,0.434-0.083,0.783,0.05,1.051C53.05,88.383,53.217,88.517,53.45,88.55z"/>
	
		<linearGradient id="SVGID_12_" gradientUnits="userSpaceOnUse" x1="-93.8203" y1="58.0605" x2="-78.4953" y2="58.0605" gradientTransform="matrix(6.525286e-005 -1 1 -0.001 1.861027e-004 4.439838e-004)">
		<stop  offset="0" style="stop-color:#EDBF35"/>
		<stop  offset="0.2941" style="stop-color:#F0CA31"/>
		<stop  offset="0.8039" style="stop-color:#F9E728"/>
		<stop  offset="0.9647" style="stop-color:#FCF226"/>
	</linearGradient>
	<path style="fill-rule:evenodd;clip-rule:evenodd;fill:url(#SVGID_12_);" d="M53.45,81.05c1.167,0.6,2.733,0.134,4.7-1.4
		c1.4-1.133,3.05-1.483,4.95-1.05c1.933,0.733,2.7,1.567,2.3,2.5c-0.167,0.434-0.55,0.7-1.15,0.8c-0.7,0.1-1.2,0.2-1.5,0.3
		c-0.6,0.3-1.167,1-1.7,2.1c-0.366,0.867-0.483,1.684-0.35,2.45c0.167,0.934,0.7,1.483,1.6,1.65c0.733,0.133,1.267-0.084,1.6-0.65
		c0.267-0.5,0.284-1,0.05-1.5c-0.3-0.634-0.45-1.066-0.45-1.3c1.467-0.134,2.533,0.366,3.2,1.5c0.6,1.1,0.65,2.283,0.15,3.55
		c-0.667,1.666-2.033,2.5-4.1,2.5c-1.967,0.033-3.467-0.65-4.5-2.05c-0.133,0.233-0.283,0.566-0.45,1
		c-0.133,0.399-0.283,0.7-0.45,0.899c-1.367,1.7-3.217,1.983-5.55,0.851c-2.333-1.167-3.25-2.834-2.75-5c0.2-0.834,0.65-1.5,1.35-2
		c0.667-0.5,1.4-0.717,2.2-0.65l0.3,0.05c-0.433,0.634-0.633,1.316-0.6,2.051c0,0.833,0.333,1.316,1,1.449
		c0.8,0.167,1.367-0.267,1.7-1.3c0.233-0.767,0.317-1.7,0.25-2.8c-0.833,0.333-1.7,0.366-2.6,0.1c-0.966-0.267-1.65-0.783-2.05-1.55
		c-0.434-0.833-0.383-1.733,0.15-2.7c0.533-0.866,1.367-1.333,2.5-1.399c0,0.166-0.033,0.433-0.1,0.8
		C53.15,80.583,53.25,80.85,53.45,81.05z M53.6,84.6c-0.833-0.733-1.317-1.2-1.45-1.399c-0.433-0.733-0.367-1.617,0.2-2.65
		c-0.367,0.066-0.667,0.384-0.9,0.95c-0.367,0.934-0.233,1.733,0.4,2.4C52.417,84.5,53,84.733,53.6,84.6z M55.95,85
		c0.2,1.066,0.133,2.25-0.2,3.55c-0.3,0.9-0.833,1.417-1.6,1.55c-0.733,0.134-1.1,0.233-1.1,0.301c1.867,0.5,3.034-0.268,3.5-2.301
		c0.1-2.2,0.15-3.333,0.15-3.399L55.95,85z M55.15,82.6c-0.9,0.067-1.633-0.216-2.2-0.85c0.4,1.066,1.2,1.583,2.4,1.55
		c0.967-0.066,1.617-0.267,1.95-0.6c0.7-0.467,1.333-0.884,1.9-1.25c1.1-0.7,2-1.067,2.7-1.101c-0.6-0.6-1.6-0.5-3,0.3
		c-1.4,0.966-2.25,1.5-2.55,1.6C56.017,82.417,55.617,82.533,55.15,82.6z M60.35,81.4c-1,0.667-1.684,1.567-2.05,2.7
		c-0.833,2.634-0.366,4.75,1.4,6.351c-0.3-0.467-0.583-1.084-0.85-1.851c-0.467-1.5-0.5-2.966-0.1-4.399
		c0.2-0.567,0.783-1.3,1.75-2.2c0.833-0.8,1.317-1.2,1.45-1.2C61.684,80.633,61.15,80.833,60.35,81.4z M65.55,87.75
		c0.2-1-0.017-1.634-0.65-1.9c0.1,0.533,0.15,0.834,0.15,0.9c-0.033,0.6-0.3,1.2-0.8,1.8c-0.667,0.833-1.267,1.217-1.8,1.15
		c-0.034,0-0.35-0.15-0.95-0.45c0.3,0.366,0.733,0.583,1.3,0.65c0.567,0.066,1.083-0.034,1.55-0.301
		C64.95,89.333,65.35,88.717,65.55,87.75z M49.85,88.05c-0.533,1.4-0.184,2.65,1.05,3.75c-0.4-0.566-0.6-1.283-0.6-2.149
		c-0.033-1.268,0.45-2.351,1.45-3.25C51.017,86.133,50.383,86.684,49.85,88.05z"/>
	<path style="fill-rule:evenodd;clip-rule:evenodd;fill:#E8F6BE;" d="M64.35,89.6c-0.467,0.267-0.983,0.367-1.55,0.301
		c-0.566-0.067-1-0.284-1.3-0.65c0.6,0.3,0.917,0.45,0.95,0.45c0.533,0.066,1.133-0.317,1.8-1.15c0.5-0.6,0.767-1.2,0.8-1.8
		c0-0.066-0.05-0.367-0.15-0.9c0.633,0.267,0.85,0.9,0.65,1.9C65.35,88.717,64.95,89.333,64.35,89.6z"/>
	<path style="fill-rule:evenodd;clip-rule:evenodd;fill:#E8F6BE;" d="M61.95,80.8c-0.133,0-0.617,0.4-1.45,1.2
		c-0.967,0.9-1.55,1.633-1.75,2.2c-0.4,1.433-0.367,2.899,0.1,4.399c0.267,0.767,0.55,1.384,0.85,1.851
		c-1.767-1.601-2.233-3.717-1.4-6.351c0.367-1.133,1.05-2.033,2.05-2.7C61.15,80.833,61.684,80.633,61.95,80.8z"/>
	<path style="fill-rule:evenodd;clip-rule:evenodd;fill:#E8F6BE;" d="M61.9,80.35c-0.7,0.034-1.6,0.4-2.7,1.101
		c-0.567,0.366-1.2,0.783-1.9,1.25c-0.333,0.333-0.983,0.533-1.95,0.6c-1.2,0.033-2-0.483-2.4-1.55c0.566,0.633,1.3,0.917,2.2,0.85
		c0.467-0.066,0.867-0.183,1.2-0.35c0.3-0.1,1.15-0.634,2.55-1.6C60.3,79.85,61.3,79.75,61.9,80.35z"/>
	<path style="fill-rule:evenodd;clip-rule:evenodd;fill:#E8F6BE;" d="M53.05,90.4c0-0.067,0.367-0.167,1.1-0.301
		c0.767-0.133,1.3-0.649,1.6-1.55c0.333-1.3,0.4-2.483,0.2-3.55l0.75-0.3c0,0.066-0.05,1.2-0.15,3.399
		C56.083,90.133,54.917,90.9,53.05,90.4z"/>
	<path style="fill-rule:evenodd;clip-rule:evenodd;fill:#E8F6BE;" d="M51.45,81.5c0.233-0.566,0.533-0.884,0.9-0.95
		c-0.567,1.033-0.633,1.917-0.2,2.65c0.133,0.2,0.617,0.666,1.45,1.399c-0.6,0.134-1.184-0.1-1.75-0.7
		C51.217,83.233,51.083,82.434,51.45,81.5z"/>
	<path style="fill-rule:evenodd;clip-rule:evenodd;fill:#E8F6BE;" d="M51.75,86.4c-1,0.899-1.483,1.982-1.45,3.25
		c0,0.866,0.2,1.583,0.6,2.149c-1.233-1.1-1.583-2.35-1.05-3.75C50.383,86.684,51.017,86.133,51.75,86.4z"/>
</g>
</svg>
