<?xml version="1.0" encoding="iso-8859-1"?>
<!-- Generator: Adobe Illustrator 15.1.0, SVG Export Plug-In . SVG Version: 6.00 Build 0)  -->
<!DOCTYPE svg PUBLIC "-//W3C//DTD SVG 1.1//EN" "http://www.w3.org/Graphics/SVG/1.1/DTD/svg11.dtd">
<svg version="1.1" id="Layer_1" xmlns="http://www.w3.org/2000/svg" xmlns:xlink="http://www.w3.org/1999/xlink" x="0px" y="0px"
	 width="171.85px" height="172.3px" viewBox="0 0 171.85 172.3" style="enable-background:new 0 0 171.85 172.3;"
	 xml:space="preserve">
<symbol  id="FlashAICB_x2F_Layer_1_x2F__x3C_Clip_Group_0_x3E_" viewBox="0 -99.5 99.1 99.5">
	<g id="Layer_1_5_">
	</g>
	<g>
		<defs>
			<polygon id="SVGID_1_" points="52.95,-22.6 24.65,-69.35 29.1,-77 53.2,-37.6 65.3,-58.2 74.45,-58.2 			"/>
		</defs>
		<clipPath id="SVGID_2_">
			<use xlink:href="#SVGID_1_"  style="overflow:visible;"/>
		</clipPath>
		<g id="Layer_3_3_" style="clip-path:url(#SVGID_2_);">
			<linearGradient id="SVGID_3_" gradientUnits="userSpaceOnUse" x1="60.4956" y1="-32.5303" x2="31.8206" y2="-77.6803">
				<stop  offset="0" style="stop-color:#F84F62"/>
				<stop  offset="1" style="stop-color:#F7092C"/>
			</linearGradient>
			<polygon style="fill-rule:evenodd;clip-rule:evenodd;fill:url(#SVGID_3_);" points="38.95,0 99.1,-38.2 60.15,-99.5 0,-61.35 			
				"/>
		</g>
	</g>
	<g id="Layer_4_3_">
	</g>
</symbol>
<symbol  id="FlashAICB_x2F_Layer_1_x2F__x3C_Clip_Group_0_x3E__x5F_1" viewBox="0 -84.8 84.9 84.8">
	<g id="Layer_1_4_">
	</g>
	<g>
		<defs>
			<polygon id="SVGID_4_" points="38.1,-20.05 28.7,-20.05 28.2,-26.6 50.2,-55.55 25.75,-55.55 19.75,-64.8 65.15,-64.8 			"/>
		</defs>
		<clipPath id="SVGID_5_">
			<use xlink:href="#SVGID_4_"  style="overflow:visible;"/>
		</clipPath>
		<g id="Layer_3_2_" style="clip-path:url(#SVGID_5_);">
			<linearGradient id="SVGID_6_" gradientUnits="userSpaceOnUse" x1="29.3594" y1="-20.647" x2="55.7094" y2="-64.472">
				<stop  offset="0" style="stop-color:#E0062A"/>
				<stop  offset="1" style="stop-color:#F70943"/>
			</linearGradient>
			<polygon style="fill-rule:evenodd;clip-rule:evenodd;fill:url(#SVGID_6_);" points="53.1,0 84.9,-52.9 31.8,-84.8 0,-31.95 			
				"/>
		</g>
	</g>
	<g id="Layer_4_2_">
	</g>
</symbol>
<symbol  id="FlashAICB_x2F_Layer_1_x2F__x3C_Clip_Group_0_x3E__x5F_2" viewBox="0 -44 60.15 44">
	<g id="Layer_1_3_">
	</g>
	<g>
		<defs>
			<polygon id="SVGID_7_" points="55,-33.15 15.15,-34.45 30.05,-11.65 29.15,-5.3 22.65,0 1.85,-32 0,-44 54.3,-44 60.15,-34.45 
							"/>
		</defs>
		<clipPath id="SVGID_8_">
			<use xlink:href="#SVGID_7_"  style="overflow:visible;"/>
		</clipPath>
		<g id="Layer_3_1_" style="clip-path:url(#SVGID_8_);">
			<linearGradient id="SVGID_9_" gradientUnits="userSpaceOnUse" x1="30.0752" y1="-44.2627" x2="30.0752" y2="-9.4377">
				<stop  offset="0" style="stop-color:#C60527"/>
				<stop  offset="1" style="stop-color:#E20731"/>
			</linearGradient>
			<polygon style="fill-rule:evenodd;clip-rule:evenodd;fill:url(#SVGID_9_);" points="60.15,-44 0,-44 0,0 60.15,0 			"/>
		</g>
	</g>
	<g id="Layer_4_1_">
	</g>
</symbol>
<symbol  id="FlashAICB_x2F_Layer_1_x2F__x3C_Group_x3E_" viewBox="0 -35.6 25.25 35.6">
	<g id="Layer_1_6_">
		<g>
			<g>
				<path style="fill-rule:evenodd;clip-rule:evenodd;fill:#F86775;" d="M25.25-35.6h-0.9C11.383-14.8,4.55-4.117,3.85-3.55
					C3.383-3.15,2.1-4.033,0-6.2L3.75,0L25.25-35.6z"/>
			</g>
		</g>
	</g>
</symbol>
<symbol  id="FlashAICB_x2F_Layer_1_x2F__x3C_Path_x3E_" viewBox="0 -57.05 118.7 57.05">
	<g id="Layer_1_7_">
		
			<radialGradient id="SVGID_10_" cx="59.3501" cy="-28.5249" r="46.5623" gradientTransform="matrix(1 0 0 -1 0 -57.0498)" gradientUnits="userSpaceOnUse">
			<stop  offset="0" style="stop-color:#CCEFE7;stop-opacity:0"/>
			<stop  offset="0.0784" style="stop-color:#C9E7DC;stop-opacity:0.0392"/>
			<stop  offset="0.2118" style="stop-color:#C1D1C0;stop-opacity:0.1451"/>
			<stop  offset="0.3882" style="stop-color:#B5AE93;stop-opacity:0.3216"/>
			<stop  offset="0.5961" style="stop-color:#A67D55;stop-opacity:0.5647"/>
			<stop  offset="0.651" style="stop-color:#A17045;stop-opacity:0.6275"/>
		</radialGradient>
		<path style="fill-rule:evenodd;clip-rule:evenodd;fill:url(#SVGID_10_);" d="M95.5-30.3c10.733,7.667,18.3,17.683,22.7,30.05
			L118.7,0c-0.567-15.867-6.6-29.333-18.1-40.4C89.1-51.5,75.333-57.05,59.3-57.05c-15.7,0-29.267,5.367-40.7,16.1
			C7.2-30.283,1-17.183,0-1.65c4.6-12,12.183-21.684,22.75-29.05c10.833-7.566,22.867-11.35,36.1-11.35
			C72.35-42.05,84.567-38.133,95.5-30.3z"/>
	</g>
</symbol>
<symbol  id="FlashAICB_x2F_Layer_1_x2F__x3C_Path_x3E__x5F_0" viewBox="0 -61.294 110 61.294">
	<g id="Layer_1_9_">
		<path style="fill-rule:evenodd;clip-rule:evenodd;fill:#FFFFFF;" d="M106.5-34.35c2.333-5.633,3.5-10.933,3.5-15.9
			s-1.433-8.083-4.3-9.35c-2.367-1.066-6.3-1.066-11.8,0c-7.267,1.767-13.1,3.117-17.5,4.05C68.4-53.85,61.267-53,55-53
			c-6.333,0-13.467-0.917-21.4-2.75c-8.333-2.2-14.167-3.683-17.5-4.45c-5.533-1.267-9.467-1.433-11.8-0.5
			C1.433-59.5,0-56.433,0-51.5c0,5.5,1.167,11.167,3.5,17c2.467,6.167,5.95,11.733,10.45,16.7C24.65-5.933,38.333,0,55,0
			c16.467,0,30.133-5.983,41-17.95C100.467-22.883,103.967-28.35,106.5-34.35z"/>
	</g>
</symbol>
<symbol  id="FlashAICB_x2F_Layer_1_x2F__x3C_Path_x3E__x5F_1" viewBox="0 -118.6 118.9 118.6">
	<g id="Layer_1_2_">
		
			<radialGradient id="SVGID_11_" cx="59.4502" cy="-59.2998" r="59.375" gradientTransform="matrix(1 0 0 -1 0 -118.5996)" gradientUnits="userSpaceOnUse">
			<stop  offset="0" style="stop-color:#F6BD8E"/>
			<stop  offset="0.0196" style="stop-color:#F5BA8C"/>
			<stop  offset="0.2471" style="stop-color:#ED9B78"/>
			<stop  offset="0.4431" style="stop-color:#E9886B"/>
			<stop  offset="0.5843" style="stop-color:#E78267"/>
			<stop  offset="0.5882" style="stop-color:#E68066;stop-opacity:0.9922"/>
			<stop  offset="0.6745" style="stop-color:#DA6858;stop-opacity:0.902"/>
			<stop  offset="0.7686" style="stop-color:#D1564E;stop-opacity:0.8392"/>
			<stop  offset="0.8706" style="stop-color:#CC4B48;stop-opacity:0.8"/>
			<stop  offset="1" style="stop-color:#CA4846;stop-opacity:0.7882"/>
		</radialGradient>
		<path style="fill-rule:evenodd;clip-rule:evenodd;fill:url(#SVGID_11_);" d="M118.9-59.3c0-16.4-5.8-30.383-17.4-41.95
			S75.883-118.6,59.45-118.6c-16.4,0-30.4,5.783-42,17.35C5.817-89.683,0-75.7,0-59.3c0,16.367,5.817,30.35,17.45,41.95
			C29.05-5.783,43.05,0,59.45,0C75.883,0,89.9-5.783,101.5-17.35C113.1-28.95,118.9-42.933,118.9-59.3z"/>
	</g>
</symbol>
<symbol  id="FlashAICB_x2F_Layer_1_x2F__x3C_Path_x3E__x5F_1_x5F_0" viewBox="0 -55.75 110 55.75">
	<g id="Layer_1_8_">
		
			<linearGradient id="SVGID_12_" gradientUnits="userSpaceOnUse" x1="16164.3574" y1="-52.8555" x2="16220.1328" y2="-52.8555" gradientTransform="matrix(1.792918e-005 1 -1 -0.001 1.8545 -16220.1055)">
			<stop  offset="0.1294" style="stop-color:#E2B8B2"/>
			<stop  offset="0.9255" style="stop-color:#FFFFFF"/>
		</linearGradient>
		<path style="fill-rule:evenodd;clip-rule:evenodd;fill:url(#SVGID_12_);" d="M96-17.95c4.467-4.933,7.967-10.4,10.5-16.4
			c2.333-5.633,3.5-10.933,3.5-15.9c0-1.767-0.167-3.25-0.5-4.45c-1.833,11.034-7.217,20.85-16.15,29.45
			C82.783-15.117,70-10.05,55-10.05c-15.233,0-28.067-5.05-38.5-15.15c-9-8.733-14.35-18.917-16.05-30.55
			C0.15-54.55,0-53.133,0-51.5c0,5.5,1.167,11.167,3.5,17c2.467,6.167,5.95,11.733,10.45,16.7C24.65-5.933,38.333,0,55,0
			C71.467,0,85.133-5.983,96-17.95z"/>
	</g>
</symbol>
<g>
	<g>
		<path style="fill-rule:evenodd;clip-rule:evenodd;fill:#D99E58;" d="M71.05,1.35V14.3c-0.167,5.833-0.2,16.467-0.1,31.9
			c0.066,13.5-0.083,24.117-0.45,31.85C70.233,89.283,70.066,106.267,70,129l0.35,21.4c0.167,3.699,0.55,9.533,1.15,17.5
			c0.1,1.699,0.15,2.566,0.15,2.6L68.8,170c0.067-2.366,0.034-5.2-0.1-8.5c-0.2-3.767-0.35-6.65-0.45-8.65l-0.7-15.199
			c-0.667-14.367-0.65-35.2,0.05-62.5c0.767-28.1,0.883-48.867,0.35-62.3c-0.2-1.934-0.317-3.383-0.35-4.35
			c-0.034-1.467-0.034-2.9,0-4.3l0.3-2.25C68.967,1.717,70.017,1.517,71.05,1.35z"/>
		<path style="fill-rule:evenodd;clip-rule:evenodd;fill:#D99E58;" d="M117.6,6.05l4.95,2.15c0,0.733-0.149,7.85-0.45,21.35
			c-0.199,8.534-0.216,15.65-0.05,21.35l-0.35,23.5c0.1,1.333,0.116,2.833,0.05,4.5l-0.25,4.5c-0.633,8.534-1.616,21.167-2.95,37.9
			c-0.767,14.367-0.416,27.101,1.05,38.2c0.134,1.667,0.018,3.5-0.35,5.5c-1.8,0.733-3.283,1.3-4.45,1.7
			c0.2-1.834,0.317-3.267,0.351-4.3c0.1-6,0.283-19.483,0.55-40.45c0.167-16.7,0.399-30.217,0.7-40.55
			c0.066-1.333,0.166-2.65,0.3-3.95l0.25-3.95c0.267-5.6,0.366-12.1,0.3-19.5v-4.7c-0.233-5.8-0.267-13.017-0.1-21.65
			C117.417,18.017,117.566,10.816,117.6,6.05z"/>
		<path style="fill-rule:evenodd;clip-rule:evenodd;fill:#D99E58;" d="M105.2,2.2c1.633,0.366,3.167,0.767,4.6,1.2L109.4,30.15
			c-0.033,4.867-0.051,12.167-0.051,21.9c-0.033,8.6-0.232,15.95-0.6,22.05l-0.3,4.85c-0.033,0.5-0.217,2.25-0.55,5.25
			c-0.267,2.066-0.301,3.783-0.101,5.149c0,2.9,0.15,6.483,0.45,10.75l0.3,3.601c1.267,8.233,1.65,18.833,1.15,31.8
			c-0.733,18.267-1.066,28.917-1,31.95v1.2l-2.851,0.699l0.051-3.3c1.399-13.967,2.199-23.434,2.399-28.399
			c0.367-10.634-0.333-20-2.1-28.101c-0.533-2.066-0.967-3.616-1.3-4.649c-0.467-1.667-0.967-3.25-1.5-4.75
			c-0.733-2-0.667-4.717,0.199-8.15c1.034-4.1,1.5-6.9,1.4-8.4l0.3-4.8c0.4-5.633,0.45-12.85,0.15-21.65
			c-0.4-12.233-0.601-19.55-0.601-21.95L105.2,2.2z"/>
		<path style="fill-rule:evenodd;clip-rule:evenodd;fill:#D99E58;" d="M110.95,3.75l3.3,1.05V7c0.167,3.967,0.134,9.417-0.1,16.35
			c-0.267,8.066-0.384,13.566-0.351,16.5l-0.05,5.45c-0.1,6.367-0.167,10-0.2,10.9l-0.149,5.45c-0.101,4.033-0.283,8.55-0.551,13.55
			l-0.3,4.55c-0.366,4.833-0.517,10.283-0.45,16.35l0.051,3.301c0.033,7.133,0.3,17.85,0.8,32.149c0.3,12.9,0.033,23.7-0.8,32.4
			l-0.2,3.399l-0.05,0.351l-2.551,0.75l0.051-1.5c0.933-14.834,1.467-25.733,1.6-32.7c0.233-12.167-0.233-23-1.4-32.5l-0.25-3.25
			c-0.399-6.167-0.449-11.6-0.149-16.3l0.35-5.25c1.167-18.267,1.5-33.867,1-46.8l0.101-5.5
			C110.816,17.65,110.917,10.683,110.95,3.75z"/>
		<path style="fill-rule:evenodd;clip-rule:evenodd;fill:#D99E58;" d="M124.1,8.95l0.95,0.5c0,4.1-0.1,11.1-0.3,21
			c-0.167,8.966-0.233,16-0.2,21.1l-0.149,24.9c0.166,1.667,0.25,3.65,0.25,5.95c-0.033,2-0.134,4-0.301,6
			c-2.066,10.366-3.183,22.616-3.35,36.75c-0.066,3.8,0.117,16.066,0.55,36.8v2l-0.25,0.149c-0.433-4.3-0.683-6.649-0.75-7.05
			c-0.8-10.3-0.733-22.733,0.2-37.3c1.333-16.533,2.233-29,2.7-37.4c0.033-1.8,0-3.833-0.101-6.1l0.2-22.85
			c-0.033-5.3,0.05-12.683,0.25-22.15C124,20.816,124.1,13.383,124.1,8.95z"/>
		<path style="fill-rule:evenodd;clip-rule:evenodd;fill:#D99E58;" d="M127.35,10.65c2.4,1.333,4.567,2.667,6.5,4
			c0.067,2.3,0.167,4.567,0.301,6.8c0.333,7.233,1.1,13.716,2.3,19.45c0.533,4.8,0.667,9.267,0.399,13.4l-0.8,3.25
			c-0.333,1.267-0.566,2.333-0.7,3.2c-0.199,1.1-0.433,2.75-0.699,4.95c-0.2,1.433-0.351,2.816-0.45,4.15l-0.351,4.1
			c-0.133,1.9-0.133,4.2,0,6.9c0.034,1.5,0.117,3.75,0.25,6.75l0.051,3.15l-1.7,9.2c-3.867,18.5-3.867,36.633,0,54.399l0.7,3.2
			c-2.634,1.7-5.084,3.15-7.351,4.351l-0.8-4.851c-0.4-1.899-0.767-4.05-1.1-6.45c-0.467-5.466-0.801-10.633-1-15.5
			c-0.033-6.533,0.483-14.449,1.55-23.75c1.333-10.399,2.25-18.183,2.75-23.35l0.3-3.9c0.267-4.233,0.333-8.167,0.2-11.8l0.3-12.9
			c0-5.7-0.1-13.816-0.3-24.35C127.5,23.85,127.384,15.717,127.35,10.65z"/>
		<path style="fill-rule:evenodd;clip-rule:evenodd;fill:#D99E58;" d="M125.7,9.8l0.649,0.35c0.101,10.333,0.384,25.817,0.851,46.45
			l-0.15,17c-0.033,2.467-0.05,6.133-0.05,11l-0.1,3.65c-3.467,13.134-4.801,28.75-4,46.85c0,5.367,0.333,10.534,1,15.5l1.05,11.7
			l-1.601,0.851l-0.35-3.2c-3.1-22.3-2.3-46.15,2.4-71.55c0.166-1.334,0.35-3.3,0.55-5.9c0.133-2.3,0.149-4.283,0.05-5.95
			l-0.05-20.7c-0.3-6.533-0.434-14.2-0.4-23C125.617,22.617,125.667,14.933,125.7,9.8z"/>
		<path style="fill-rule:evenodd;clip-rule:evenodd;fill:#D99E58;" d="M98.4,154.8l0.25-5.6c0.833-8.967,1.233-16.066,1.199-21.3
			c0-7.801-0.75-14.817-2.25-21.051c-0.399-2-0.816-3.716-1.25-5.149l-0.55-3.4c-0.533-3.7-0.616-7.217-0.25-10.55l0.75-13.8
			c0.567-8.733,0.733-19.617,0.5-32.65l-0.1-4.45c-0.233-9.6-0.617-19.9-1.15-30.9l-0.2-5.4L98.1,0.9l0.25,35.25
			C98.517,51.917,98.367,65.1,97.9,75.7l-0.4,4.4c-0.1,1.467-0.25,2.917-0.45,4.35c-0.566,4.066-0.6,8.45-0.1,13.149
			c0.133,1.367,0.333,2.801,0.6,4.301l1.05,4.8c1.934,8.5,3.034,15.967,3.301,22.399c0.3,8.267-0.667,15.784-2.9,22.551
			C98.677,152.595,98.477,153.645,98.4,154.8z M98.375,155.025c-0.012,0.13-0.02,0.263-0.025,0.399
			C98.355,155.288,98.363,155.155,98.375,155.025z M98.35,155.425c0,0.19,0,0.382,0,0.575c-0.033,0.967-0.033,2.384,0,4.25
			c0,1.267,0.051,2.55,0.15,3.85c0.167,1.9,0.533,4.084,1.1,6.551l-0.75,0.1c-0.433-2.767-0.699-5.667-0.8-8.7L98.35,155.425z"/>
		<path style="fill-rule:evenodd;clip-rule:evenodd;fill:#D99E58;" d="M80.75,0.2l0.05,20.7c0,26.2-0.066,45.817-0.2,58.85
			c-0.233,21.7-0.7,41.316-1.4,58.85c0,2,0.033,3.5,0.1,4.5c0.134,2,0.267,3.517,0.4,4.551l0.3,4.699
			c0.434,5.867,0.6,10.483,0.5,13.851l-0.15,5.3L78,171.35l-0.05-0.8c-0.4-4.133-0.667-7.217-0.8-9.25l-0.2-3.1
			c-0.067-3.033-0.167-5.084-0.3-6.15L76.6,137.4c0.633-26.467,1.066-46.317,1.3-59.55c0.4-22.967,0.4-42.833,0-59.6V0.4L80.75,0.2z
			"/>
		<path style="fill-rule:evenodd;clip-rule:evenodd;fill:#D99E58;" d="M81.65,0.1l1.6-0.05l0.05,26.2
			c0.134,6.133,0.2,15.567,0.2,28.3c0,12.434,0.083,21.917,0.25,28.45c0,3.067-0.333,11.816-1,26.25
			c-0.533,10.667-0.483,19.45,0.15,26.35v5c0,4.434-0.033,7.75-0.1,9.95l-0.05,21.101l-1.3-0.051c0.1-4.3,0.083-10.783-0.05-19.449
			l-0.5-14c-0.033-8.5,0.217-27.884,0.75-58.15c0.434-24.1,0.434-43.517,0-58.25V0.1z"/>
		<path style="fill-rule:evenodd;clip-rule:evenodd;fill:#D99E58;" d="M76.8,0.5l0.05,16.85c0.233,17.7,0.183,37.45-0.15,59.25
			c-0.233,13.766-0.684,33.5-1.35,59.2c-0.034,2.033-0.034,4.05,0,6.05c0.033,1.367,0.083,3.4,0.15,6.101l0.3,4.6
			c0.134,2.066,0.333,5.134,0.6,9.2c0.2,3.634,0.333,6.717,0.4,9.25v0.25l-4.15-0.55c-0.066-2.733-0.466-9.584-1.2-20.55L71,138.3
			c0-14.333,0.25-39.399,0.75-75.2L72,59.9c0.367-3.967,0.55-8.45,0.55-13.45c-0.033-2.667-0.15-7.117-0.35-13.35l0.2-16.6
			c0-1.8-0.05-3.684-0.15-5.65V1.1L76.8,0.5z"/>
		<path style="fill-rule:evenodd;clip-rule:evenodd;fill:#D99E58;" d="M84.15,0.05L85.95,0c1.3,0,3.149,0.066,5.55,0.2v52.6
			c0.1,3.467,0.083,6.767-0.05,9.9L91,90.65c-0.133,2.966-0.167,6.517-0.1,10.649l0.1,10.15c-0.133,4.333-0.066,9.866,0.2,16.6
			c0.333,9,0.517,14.533,0.55,16.601l0.05,4.75c0.033,2.1,0.017,5.216-0.05,9.35L92.1,162c0.268,2.033,0.768,5.15,1.5,9.35
			c-2.333,0.233-4.883,0.351-7.649,0.351l-2.35-0.05c0.233-6.834,0.367-12.983,0.4-18.45l0.05-15c-0.633-13.5-0.7-32.5-0.2-57
			c0.533-26.434,0.633-45.483,0.3-57.15V0.05z"/>
		<path style="fill-rule:evenodd;clip-rule:evenodd;fill:#D99E58;" d="M99.1,14.75c-0.133-3.067-0.267-7.667-0.399-13.8l1.5,0.25
			c0.066,8.133,0.233,14.783,0.5,19.95l0.2,16.55c0.033,4.466,0.083,11.066,0.149,19.8c-0.066,7.5-0.383,14.117-0.95,19.85
			l-0.25,5.15c-0.166,2.833-0.433,7.2-0.8,13.1l0.05,4.45l1.5,4.05c0.534,1.4,1.084,2.967,1.65,4.7
			c0.467,1.467,0.884,3.084,1.25,4.851c1.033,6.633,1.217,14.149,0.55,22.55c-0.433,5.066-1.467,12.666-3.1,22.8
			c-0.533,3.233-0.4,6.2,0.399,8.9l0.45,2.35l-0.95,0.15c-0.433-2.4-0.716-4.667-0.85-6.801c-0.133-1.333-0.2-2.833-0.2-4.5l1.2-7.1
			c1.7-10.333,2.634-17.967,2.8-22.9c0.3-8.8-0.916-16.333-3.649-22.6c-0.533-1.7-1.134-3.467-1.801-5.3
			c-0.267-1.533-0.466-2.983-0.6-4.351c-0.434-4.699-0.05-9.233,1.15-13.6l0.35-4.8C99.917,65.683,100,51.8,99.5,36.8L99.1,14.75z"
			/>
		<path style="fill-rule:evenodd;clip-rule:evenodd;fill:#D99E58;" d="M101.85,21.2c-0.066-4.367-0.066-10.934,0-19.7l1.25,0.25
			c-0.166,9.566-0.05,17.667,0.351,24.3l0.1,5.85c0.134,5.434,0.367,13.517,0.7,24.25c0.066,9.233-0.5,17.133-1.7,23.7L102.1,85
			c-0.232,1.8-0.383,3.566-0.449,5.3c0.199,3.033,0.649,6.566,1.35,10.601l0.95,5.35c0.5,1.733,0.883,3.3,1.149,4.7
			c1.567,8.033,2.018,17.583,1.351,28.649c-0.4,6.334-1.233,15.834-2.5,28.5l0.05,1.7h-0.1l-0.2-2
			c-0.333-1.2-0.483-2.666-0.45-4.399c0.1-1.934,0.15-3.4,0.15-4.4c1.233-10.467,2.017-18.3,2.35-23.5
			c0.566-9,0.167-16.767-1.2-23.3c-0.3-1.267-0.733-2.8-1.3-4.601c-0.633-1.866-1.233-3.533-1.8-5c-0.434-1.5-0.733-3.3-0.9-5.399
			c-0.033-0.434-0.116-2.25-0.25-5.45l0.8-11.4c1.101-6.133,1.534-14.05,1.301-23.75c-0.367-14.367-0.533-22.434-0.5-24.2
			L101.85,21.2z"/>
		<path style="fill-rule:evenodd;clip-rule:evenodd;fill:#D99E58;" d="M135.8,16c2.3,1.7,3.7,2.767,4.2,3.2
			c0.233,7.6,0.783,14.466,1.65,20.6c0.233,2.4,0.283,5.1,0.149,8.1c-0.1,1.8-0.316,4.5-0.649,8.1l-0.351,4.55
			c-0.666,7.467-1.1,12.983-1.3,16.55l-0.85,29.35c-0.434,7.066-0.567,14.883-0.4,23.45c0.1,5.933,0.4,13.699,0.9,23.3
			c-1.301,1.033-2.517,1.934-3.65,2.7c-0.8-10.034-1.35-17.801-1.65-23.301c-0.433-8.633-0.533-16.466-0.3-23.5l0.601-8.449
			l1.149-6.4c0.233-1.3,0.4-2.75,0.5-4.35l0.101-7.05l2.25-25.5c0.399-5.8,0.267-12.717-0.4-20.75
			C136.85,27.467,136.2,20.6,135.8,16z"/>
		<path style="fill-rule:evenodd;clip-rule:evenodd;fill:#D99E58;" d="M92.75,0.3L95,0.5c0,14.066,0.134,26.767,0.4,38.1l0.149,4.65
			c0.5,10.533,0.75,15.833,0.75,15.9c0.134,6-0.1,11.267-0.7,15.8L94.7,87.8c-0.434,3.634-0.434,7.417,0,11.351
			c0.1,1.233,0.25,2.449,0.45,3.649l1.1,5.15c1.467,5.934,2.267,12.517,2.4,19.75c0.1,5.833-0.267,12.566-1.101,20.2l-1.25,11.5
			l0.05,3.199c0.101,3,0.384,5.784,0.851,8.351l-1.65,0.2c-0.6-2.767-1.116-5.767-1.55-9L92.95,144
			c-0.367-4.8-0.533-10.566-0.5-17.3c0.133-7.667,0.2-13.351,0.2-17.05l-0.2-5.601C92.217,98.517,92.066,92.884,92,87.15l0.55-16.95
			c0.101-13.7,0.167-21.784,0.2-24.25V0.3z"/>
		<path style="fill-rule:evenodd;clip-rule:evenodd;fill:#D99E58;" d="M115.2,5.15l1.35,0.5c0,0.533-0.133,7.317-0.399,20.35
			c-0.167,8.2-0.15,15,0.05,20.4l-0.05,4.05c-0.2,8.5-0.5,15.333-0.9,20.5l-0.7,9.2c-0.633,10.567-0.983,25.55-1.05,44.95
			c-0.3-11.066-0.217-20.233,0.25-27.5l0.05-3.699c0.167-6.801,0.384-12.917,0.65-18.351l0.3-10.4
			c-0.066-6.4-0.05-12.183,0.05-17.35l0.05-3.35C115.017,37.383,115.134,24.283,115.2,5.15z"/>
		<path style="fill-rule:evenodd;clip-rule:evenodd;fill:#D99E58;" d="M142.35,57.05c0.534-4.4,0.567-9.816,0.101-16.25
			c-0.7-7.2-1.134-12.6-1.3-16.2l-0.301-4.7c1.733,1.434,3.5,3.033,5.301,4.8c0.267,18.667,0.399,29.133,0.399,31.4l-0.35,30.45
			c0.167,3.5,0.283,7.45,0.35,11.851l-0.05,8.1c-0.866,11.7-1.1,25.333-0.7,40.9c-2.066,1.966-3.85,3.55-5.35,4.75
			c-0.267-4.233-0.684-9.317-1.25-15.25c-0.566-4.467-0.566-10.017,0-16.65c0.934-10.634,1.417-16.217,1.45-16.75l0.199-4.9
			c0.067-1.6,0.067-3.216,0-4.85l0.051-3.7c0.066-4.3,0.033-8.017-0.101-11.15l0.2-3.4c0.467-6.1,0.816-10.683,1.05-13.75
			L142.35,57.05z"/>
		<path style="fill-rule:evenodd;clip-rule:evenodd;fill:#D99E58;" d="M61.05,114.8c-0.267-9.533,0.1-17.85,1.1-24.95
			c0.267-2,0.483-4.216,0.65-6.649c-0.333,21.5-0.1,40.3,0.7,56.399l0.05,3.851c0.067,11.267,0.067,19.7,0,25.3l-2.15-0.65
			c0.067-3.133,0.3-10.916,0.7-23.35l0.05-5.25C61.583,128.5,61.217,120.267,61.05,114.8z"/>
		<path style="fill-rule:evenodd;clip-rule:evenodd;fill:#D99E58;" d="M52.55,123.15c0.134,0.966,0.467,2.933,1,5.899
			c0.467,2.533,0.767,4.584,0.9,6.15C53.517,131.6,52.883,127.583,52.55,123.15z"/>
		<path style="fill-rule:evenodd;clip-rule:evenodd;fill:#D99E58;" d="M44.95,60.4c1.1,4.833,1.833,9.2,2.2,13.1
			C47.017,72.433,46.283,68.067,44.95,60.4z"/>
		<path style="fill-rule:evenodd;clip-rule:evenodd;fill:#D99E58;" d="M49.9,40.75l1,4.6c0.5,6.367,0.75,9.633,0.75,9.8
			c-1.1-4.467-1.85-8.117-2.25-10.95c-0.333-2.133-0.117-4.6,0.65-7.4C49.717,38.233,49.667,39.55,49.9,40.75z"/>
		<path style="fill-rule:evenodd;clip-rule:evenodd;fill:#D99E58;" d="M151.05,55.05c-0.133-6.033,0.134-14.083,0.8-24.15l2.9,3.6
			c-0.566,4.233-1,7.3-1.3,9.2c0,0.833-0.05,1.983-0.15,3.45c-0.033,1.3,0.117,2.467,0.45,3.5l0.4,5.25
			c0.3,3.5,0.85,8.717,1.649,15.65c0.567,6.167,0.717,11.417,0.45,15.75l-0.05,24.65c-0.634,6.333-0.767,14.25-0.4,23.75
			c-1.033,1.467-2.033,2.8-3,4c-0.3-6-0.467-10.783-0.5-14.351c-0.066-5.233,0.117-9.983,0.55-14.25l0.051-27.6
			c-0.067-2.933-0.267-6.883-0.601-11.85c-0.433-5.867-0.7-9.783-0.8-11.75L151.05,55.05z"/>
		<path style="fill-rule:evenodd;clip-rule:evenodd;fill:#D99E58;" d="M147.2,126.85c0,7,0.066,13.301,0.2,18.9l-0.351,0.4
			C147.017,139.684,147.066,133.25,147.2,126.85z"/>
		<path style="fill-rule:evenodd;clip-rule:evenodd;fill:#D99E58;" d="M154.9,55.25c-0.134-1.6-0.233-3.167-0.301-4.7
			c-0.033-4.033,0.25-9.05,0.851-15.05c1.267,1.767,2.566,3.7,3.899,5.8l-0.1,2.3c-0.1,1.5-0.116,3.183-0.05,5.05
			c0.066,3.633,0.5,8.684,1.3,15.15c0.867,7.2,1.384,12.35,1.55,15.45l0.7,45c-1.767,3.467-3.6,6.616-5.5,9.45
			c0-3.467,0.15-10.033,0.45-19.7l-0.3-28.35c0-0.5,0.05-2.45,0.149-5.85c0.067-2.233,0-4.117-0.2-5.65
			C155.983,65.017,155.167,58.717,154.9,55.25z"/>
		<path style="fill-rule:evenodd;clip-rule:evenodd;fill:#D99E58;" d="M148.65,60.7l-0.15-5.2c0-2,0.134-11.317,0.4-27.95l2.3,2.6
			c-0.467,9.267-0.7,16.233-0.7,20.9l0.2,5.05c0.066,1.467,0.283,5.867,0.649,13.2c0.268,5.367,0.434,9.767,0.5,13.2l-0.149,24.75
			c-0.033,3.733-0.134,9.4-0.3,17c-0.134,6.733-0.134,12.434,0,17.1c-0.301,0.367-1.184,1.367-2.65,3
			c-0.333-7.533-0.483-13.783-0.45-18.75c0.067-6.8,0.45-13.033,1.15-18.699c0.1-1.5,0.149-3,0.149-4.5
			c0.067-1.601,0.067-3.184,0-4.75c-0.066-1.767-0.183-3.317-0.35-4.65l-0.1-8.9C149.15,81.5,148.983,73.7,148.65,60.7z"/>
		<path style="fill-rule:evenodd;clip-rule:evenodd;fill:#D99E58;" d="M163.1,75.6l0.25-2.75l0.801,25.05l-0.101,9.3
			c-0.233,4-0.267,8.866-0.1,14.6l-0.4,0.9v-0.25c-0.1-5.434-0.1-10.884,0-16.351L163.1,75.6z"/>
		<path style="fill-rule:evenodd;clip-rule:evenodd;fill:#D99E58;" d="M171.85,85.9c0,7.3-0.933,14.55-2.8,21.75L168,60.55
			C170.566,68.75,171.85,77.2,171.85,85.9z"/>
		<path style="fill-rule:evenodd;clip-rule:evenodd;fill:#D99E58;" d="M162.55,53.6c-0.066-2.1-0.116-3.667-0.149-4.7l0.05-2
			c1.267,2.5,2.483,5.2,3.649,8.1c0.134,2.333,0.4,5.133,0.801,8.4l0.05,5.7c0.2,5.3,0.399,13.25,0.6,23.85l0.101,4.8
			c-0.067,1.167-0.101,2.934-0.101,5.3c-0.033,1.767-0.033,3.517,0,5.25l0.05,4.25c-0.732,2.233-1.533,4.367-2.399,6.4L165.1,96.1
			c-0.3-10.233-0.517-17.8-0.649-22.7l-0.05-5.5l-0.851-4.8c-0.333-1.333-0.566-2.95-0.7-4.85
			C162.717,56.117,162.617,54.567,162.55,53.6z"/>
		<path style="fill-rule:evenodd;clip-rule:evenodd;fill:#D99E58;" d="M162.7,65.65c-1.601-7.833-2.217-15.066-1.851-21.7l0.25,0.4
			c-0.366,3.1-0.333,6.683,0.101,10.75C161.467,57.433,161.967,60.95,162.7,65.65z"/>
		<path style="fill-rule:evenodd;clip-rule:evenodd;fill:#D99E58;" d="M30.7,20.2l1.45-1.15c0.667,3.967,1.517,7.617,2.55,10.95
			c0.4,1.433,0.6,3.15,0.6,5.15c0,1.133-0.05,2.833-0.15,5.1c-0.1,1.2-0.316,2.867-0.65,5c-0.4,2.8-1.1,7.017-2.1,12.65
			c-0.767,4.967-1.083,9.233-0.95,12.8l0.05,5.25c0.367,4.066,0.517,8.833,0.45,14.3c-0.034,3.167-0.134,7.866-0.3,14.1v4.7
			c-0.066,1.634,0,7.483,0.2,17.55c0.1,7.134-0.2,12.983-0.9,17.551l-0.05,7.5l-2.05-1.75l-0.1-2.9
			c-0.367-2.167-0.617-3.816-0.75-4.95c-0.2-1.967-0.1-3.684,0.3-5.149c0.867-4.2,1.434-8.767,1.7-13.7
			c0.167-3.4,0.2-8.033,0.1-13.9c-0.1-0.899-0.184-2.283-0.25-4.149c-0.067-1.667-0.083-5.2-0.05-10.601
			c0.034-4.434-0.083-7.95-0.35-10.55L29.2,68.8c-0.034-2-0.05-3.483-0.05-4.45c0.034-1.767,0.25-3.25,0.65-4.45
			c1.434-4.867,2.35-9.933,2.75-15.2c0.1-1.1,0.184-2.817,0.25-5.15C32.533,34.85,31.833,28.4,30.7,20.2z"/>
		<path style="fill-rule:evenodd;clip-rule:evenodd;fill:#D99E58;" d="M29.3,37.55c0-1.833-0.066-3.5-0.2-5
			c-0.833-2.566-1.617-5.5-2.35-8.8l2.55-2.35c0.667,3.4,1.317,6.267,1.95,8.6c0.434,1.433,0.633,3.133,0.6,5.1
			c0,1.133-0.067,2.816-0.2,5.05L31.2,45.2c-0.067,0.633-0.65,4.816-1.75,12.55c-0.7,5.033-1.1,9.2-1.2,12.5l0.2,15.65
			c-0.034,1.9,0.05,4.767,0.25,8.6c0.167,3.833,0.233,6.733,0.2,8.7c0,1.166-0.05,2.35-0.15,3.55
			c0.066,13.866-0.25,24.566-0.95,32.1c-0.5,2.7-0.383,5.15,0.35,7.351l0.2,3.3c-1.5-1.366-2.817-2.65-3.95-3.85
			c-0.4-2.767-0.633-4.551-0.7-5.351c-0.134-2-0.067-3.783,0.2-5.35c0.934-3.533,1.367-8.184,1.3-13.95
			c-0.1-7.2-0.034-11.85,0.2-13.95v-36.6c0.167-0.9,0.083-2.284-0.25-4.15c-0.333-1.833-0.433-3.15-0.3-3.95
			c1.433-5.467,2.433-9.6,3-12.4C28.75,45.35,29.233,41.217,29.3,37.55z"/>
		<path style="fill-rule:evenodd;clip-rule:evenodd;fill:#D99E58;" d="M62.1,15.35c-1.067-3.267-1.85-5.684-2.35-7.25
			c-0.267-1.133-0.483-2.4-0.65-3.8l2.55-0.8l0.05,2c0.066,1.133,0.216,2.25,0.45,3.35c1.333,6.566,2,13.767,2,21.6
			c-0.533,18.1-0.9,31.566-1.1,40.4c-0.533-10.567-0.9-18.483-1.1-23.75c-0.4-9.4-0.167-17.4,0.7-24
			C63.083,20.833,62.9,18.25,62.1,15.35z"/>
		<path style="fill-rule:evenodd;clip-rule:evenodd;fill:#D99E58;" d="M43.65,11.2c2.4-1.333,4.217-2.284,5.45-2.85
			c1.867,4.566,2.1,10.767,0.7,18.6c-1.566,8.8-2.017,14.883-1.35,18.25c0.866,4.6,2.15,11.383,3.85,20.35
			c0.667,13.067,0.884,25.667,0.65,37.8l-0.6,2.7c-0.9,4.8-1.067,10.2-0.5,16.2c0.667,3.833,1.117,6.75,1.35,8.75
			c0.366,3.233,0.5,6.116,0.4,8.65l-0.15,3.899c-0.1,3.267-0.583,10.316-1.45,21.15c-1.467-0.601-3.35-1.5-5.65-2.7l0.35-7.05
			c0.233-5.566,0.333-10.25,0.3-14.05l-0.1-3.5c-0.5-2.334-0.883-4.917-1.15-7.75c-0.7-9.634-0.367-20.367,1-32.2V97.3l0.7-5.5
			c0.133-0.934,0.233-1.899,0.3-2.899l0.2-1.5c0.667-5.467,0.65-11.267-0.05-17.4c-0.6-4.933-1.733-10.75-3.4-17.45
			c-0.533-2.2-0.9-3.85-1.1-4.95c-0.1-3.1,0-6.7,0.3-10.8c0.9-4.9,1.383-9.2,1.45-12.9C45.25,19.233,44.75,15,43.65,11.2z"/>
		<path style="fill-rule:evenodd;clip-rule:evenodd;fill:#D99E58;" d="M36.85,15.5c1.533-1.067,3.216-2.167,5.05-3.3
			c0.6,4.033,0.917,8.866,0.95,14.5c0.033,3.233,0,8.066-0.1,14.5c-0.4,4.433-0.3,8.216,0.3,11.35l0.1,0.5
			c0.233,2.767,0.85,6.7,1.85,11.8c1.033,5.433,1.684,9.35,1.95,11.75c0.566,5.1,0.4,9.683-0.5,13.75
			c-1.134,7.434-1.833,15.351-2.1,23.75c-0.2,6.467-0.15,14.301,0.15,23.5v23.45c-2.133-1.2-4.233-2.5-6.3-3.899l0.2-37.45
			c0.133-22.2,0.233-38.833,0.3-49.9v-5.1c0.667-10.133,0.933-18.8,0.8-26c0-1.733-0.05-3.483-0.15-5.25
			c-0.034-2.567-0.333-5.567-0.9-9C37.75,20.483,37.217,17.5,36.85,15.5z"/>
		<path style="fill-rule:evenodd;clip-rule:evenodd;fill:#D99E58;" d="M0.15,90l0.2-10.6C0.983,70.933,2.8,62.85,5.8,55.15L5.6,71.9
			c-0.133,6.567-0.367,16.433-0.7,29.6l-0.1,4.2c0.167,2.899,0.217,5.8,0.15,8.7C2.184,106.533,0.583,98.4,0.15,90z"/>
		<path style="fill-rule:evenodd;clip-rule:evenodd;fill:#D99E58;" d="M53.95,15.7c-1.567-3.567-2.65-6.267-3.25-8.1
			C53.566,6.367,56,5.4,58,4.7l0.05,0.75c-0.1,2.3,0.567,6.066,2,11.3c1.3,4.667,1.684,8.417,1.15,11.25
			c-0.333,1.5-0.9,3.717-1.7,6.65c-0.566,2.567-0.65,4.767-0.25,6.6c1.633,10.367,2.267,22.7,1.9,37
			c-0.233,8.133-0.716,20.333-1.45,36.6c0,2.4,0.333,6.084,1,11.051c0.633,4.866,0.933,8.583,0.9,11.149
			c0.033,1.134,0.017,2.816-0.05,5.05c-0.233,3.601-0.4,7.9-0.5,12.9c-0.066,2.9-0.133,7.233-0.2,13c-2.434-0.8-4.7-1.616-6.8-2.45
			c0.434-5.566,0.75-9.733,0.95-12.5c0.333-4.866,0.533-9.033,0.6-12.5l0.05-4.3c-0.066-1.6-0.683-5.95-1.85-13.05
			c-0.866-5.4-1.017-9.816-0.45-13.25c1.733-10.566,2.367-21.15,1.9-31.75l0.05-1.6c0-2.667-0.283-5.667-0.85-9
			c-0.733-7-1.917-14.417-3.55-22.25l-0.5-5.55c-0.133-1.367-0.133-2.8,0-4.3l0.4-1.25c0.2-0.533,0.917-2.2,2.15-5
			c0.9-2.067,1.517-3.783,1.85-5.15C55.367,21.633,55.083,18.833,53.95,15.7z"/>
		<path style="fill-rule:evenodd;clip-rule:evenodd;fill:#D99E58;" d="M33.45,18l2.1-1.6c0.967,6.033,1.567,10.05,1.8,12.05
			c0.533,4.5,0.667,8.55,0.4,12.15l-0.25,4.8c-0.167,2.667-0.467,6.65-0.9,11.95c-0.333,4.733-0.517,8.683-0.55,11.85l0.05,4.25
			c0.033,5.533,0.283,19.05,0.75,40.55l0.1,4.5c0.2,5.066,0.183,10.083-0.05,15.05l-0.85,22.101l-3.75-2.801l0.1-10.399
			c0.534-6.967,0.8-17.267,0.8-30.9L33.15,68.4c0.034-3.467,0.4-7.95,1.1-13.45c1-7.434,1.566-11.934,1.7-13.5L36.3,37
			c-0.1-2.067-0.15-5.067-0.15-9c-0.233-1.533-0.633-3.25-1.2-5.15C34.95,22.783,34.45,21.167,33.45,18z"/>
		<path style="fill-rule:evenodd;clip-rule:evenodd;fill:#D99E58;" d="M13.55,66.4c0.367-9.333,0.45-18.333,0.25-27
			c0.934-1.467,2.15-3.217,3.65-5.25c0.167,5,0.183,10.8,0.05,17.4c-0.033,2.233-0.167,8.05-0.4,17.45L17,73.7
			c-0.2,10.566-0.316,18.434-0.35,23.6v4.7c-0.033,0.634-0.066,5.983-0.1,16.05c-0.033,6.334-0.533,11.634-1.5,15.9L15,134.2
			c-1-1.434-1.95-2.934-2.85-4.5l0.1-1.4c0.566-8.267,0.8-16.5,0.7-24.7V99.2C12.917,94.267,13,86.867,13.2,77L13.55,66.4z"/>
		<path style="fill-rule:evenodd;clip-rule:evenodd;fill:#D99E58;" d="M19.6,37.25c0-1.934-0.034-3.383-0.1-4.35l-0.1-1.25
			l3.65-4.15l0.55,3.85c0.167,1.9,0.25,3.617,0.25,5.15c0.1,4.167-0.167,10.2-0.8,18.1c-0.667,8.2-0.983,14.217-0.95,18.05l0.2,30.8
			c0.034,2.666,0.217,6.75,0.55,12.25c0.1,4.767-0.367,8.566-1.4,11.399c-0.733,2.301-1.1,4.784-1.1,7.45
			c0,2.033,0.216,4.5,0.65,7.4c-1.733-2.033-3.267-3.983-4.6-5.851c0.067-1.6,0.284-2.966,0.65-4.1c0.934-3.5,1.284-8.25,1.05-14.25
			c-0.267-7.366-0.284-12.267-0.05-14.7l-0.1-5.45c-0.067-5.233-0.017-11.783,0.15-19.649l0.25-10.35
			c0.033-3.1,0.267-8.167,0.7-15.2C19.45,45.9,19.633,40.85,19.6,37.25z"/>
		<path style="fill-rule:evenodd;clip-rule:evenodd;fill:#D99E58;" d="M7.65,63.1C7.483,60,7.467,55.917,7.6,50.85
			c1.4-3.167,3.066-6.35,5-9.55c0,2.767-0.05,6.934-0.15,12.5c-0.067,5.034-0.067,9.267,0,12.7L12.2,76.75
			c-0.3,8.333-0.467,15.45-0.5,21.35v4.25c-0.3,2.867-0.4,6.75-0.3,11.65c0.067,5.434,0.034,9.3-0.1,11.6l-0.2,2.25
			c-1.7-2.966-3.067-5.699-4.1-8.199c-0.1-3.434-0.167-6.017-0.2-7.75c-0.1-3.167-0.083-5.817,0.05-7.95L6.9,100.1
			C7.167,88.066,7.367,79.033,7.5,73L7.65,63.1z"/>
		<path style="fill-rule:evenodd;clip-rule:evenodd;fill:#D99E58;" d="M63.25,7.25c-0.233-0.9-0.233-2.167,0-3.8l0.05-0.4l3.5-0.85
			c-0.267,1.667-0.366,3.616-0.3,5.85c0.066,1.367,0.167,2.684,0.3,3.95c0.5,2.167,0.75,5.55,0.75,10.15
			c0,6.9-0.267,26.533-0.8,58.9c-0.434,24.066-0.4,43.733,0.1,59l0.2,10.101c-0.167,2.566-0.15,5.816,0.05,9.75
			c0.333,5.966,0.5,9.25,0.5,9.85l-2.95-0.7L64.6,136c0-2.167-0.15-5.283-0.45-9.35c-0.333-4.101-0.5-7.2-0.5-9.301
			c-0.133-7.533,0.067-21.6,0.6-42.2c0.467-17.8,0.434-31.883-0.1-42.25c0-0.6,0.184-1.417,0.55-2.45
			c0.433-1.134,0.733-1.95,0.9-2.45c0.2-2.8-0.017-6.233-0.65-10.3C64.117,13.066,63.55,9.583,63.25,7.25z"/>
		<path style="fill-rule:evenodd;clip-rule:evenodd;fill:#D99E58;" d="M25.35,25.1c0.7,2.933,1.233,5,1.6,6.2
			c0.267,1.934,0.433,3.483,0.5,4.65c0.366,5.1,0,9.816-1.1,14.15c-0.967,4.2-1.6,7.383-1.9,9.55c-0.5,3.5-0.55,6.633-0.15,9.4
			c0.034,0.934,0.083,2.317,0.15,4.15l0.05,3.7c0,2.434,0.05,4.9,0.15,7.4l0.15,21.95c0.134,4.267-0.066,10.7-0.6,19.3
			c-0.567,8.5-0.767,14.917-0.6,19.25l-2.1-2.25c-0.167-2.5-0.184-4.55-0.05-6.149c0.066-1.434,0.517-6.75,1.35-15.95
			c0.567-6.434,0.733-11.8,0.5-16.101l0.1-32.2c-0.333-4.367,0-9.85,1-16.45c1.367-9.3,2.117-14.7,2.25-16.2
			c0.133-2.067,0.2-3.6,0.2-4.6c-0.833-2.533-1.617-5.5-2.35-8.9L25.35,25.1z"/>
		<path style="fill-rule:evenodd;clip-rule:evenodd;fill:#AF6924;" d="M0.05,85.9c0-1.467,0.1-3.633,0.3-6.5L0.15,90L0.05,85.9z"/>
		<path style="fill-rule:evenodd;clip-rule:evenodd;fill:#AF6924;" d="M5.8,55.15l1-2.65c0.067,1.033,0.067,2.067,0,3.1l-1.05,50.45
			c0.133,3.134,0.117,6.584-0.05,10.351l-0.75-2c0.066-2.9,0.017-5.801-0.15-8.7l0.1-4.2c0.333-13.167,0.567-23.033,0.7-29.6
			L5.8,55.15z"/>
		<path style="fill-rule:evenodd;clip-rule:evenodd;fill:#AF6924;" d="M6.6,69.55L6.85,52.5l0.75-1.65
			C7.467,55.917,7.483,60,7.65,63.1L7.5,73c-0.133,6.033-0.333,15.066-0.6,27.1l-0.05,3.851c-0.133,2.133-0.15,4.783-0.05,7.95
			c0.034,1.733,0.1,4.316,0.2,7.75l-1-2.45l-0.1-15.95C6.233,87.15,6.467,76.583,6.6,69.55z"/>
		<path style="fill-rule:evenodd;clip-rule:evenodd;fill:#AF6924;" d="M12.45,66.5c-0.067-3.433-0.067-7.667,0-12.7
			c0.1-5.566,0.15-9.733,0.15-12.5l1.2-1.9c0.2,8.667,0.117,17.667-0.25,27L13.2,77c-0.2,9.867-0.284,17.267-0.25,22.2v4.399
			c0.1,8.2-0.134,16.434-0.7,24.7l-0.1,1.4l-1.05-1.851l0.2-2.25c0.134-2.3,0.167-6.166,0.1-11.6c-0.1-4.9,0-8.783,0.3-11.65V98.1
			c0.033-5.899,0.2-13.016,0.5-21.35L12.45,66.5z"/>
		<path style="fill-rule:evenodd;clip-rule:evenodd;fill:#AF6924;" d="M17.1,69c0.233-9.4,0.367-15.217,0.4-17.45
			c0.133-6.6,0.117-12.4-0.05-17.4l1.95-2.5l0.1,1.25c0.066,0.967,0.1,2.417,0.1,4.35c0.033,3.6-0.15,8.65-0.55,15.15
			c-0.433,7.033-0.667,12.1-0.7,15.2L18.1,77.95c-0.167,7.867-0.217,14.416-0.15,19.649l0.1,5.45
			c-0.233,2.434-0.216,7.334,0.05,14.7c0.233,6-0.117,10.75-1.05,14.25c-0.366,1.134-0.583,2.5-0.65,4.1L15,134.2l0.05-0.25
			c0.967-4.267,1.467-9.566,1.5-15.9c0.034-10.066,0.067-15.416,0.1-16.05v-4.7c0.034-5.166,0.15-13.033,0.35-23.6L17.1,69z"/>
		<path style="fill-rule:evenodd;clip-rule:evenodd;fill:#AF6924;" d="M23.85,36.5c0-1.533-0.083-3.25-0.25-5.15l-0.55-3.85
			c0.667-0.7,1.15-1.2,1.45-1.5c0.733,3.4,1.517,6.367,2.35,8.9c0,1-0.067,2.533-0.2,4.6c-0.133,1.5-0.883,6.9-2.25,16.2
			c-1,6.6-1.333,12.083-1,16.45l-0.1,32.2c0.233,4.301,0.067,9.667-0.5,16.101c-0.833,9.2-1.283,14.517-1.35,15.95
			c-0.134,1.6-0.117,3.649,0.05,6.149l-0.5-0.6c-0.434-2.9-0.65-5.367-0.65-7.4c0-2.666,0.367-5.149,1.1-7.45
			c1.033-2.833,1.5-6.633,1.4-11.399c-0.333-5.5-0.517-9.584-0.55-12.25l-0.2-30.8c-0.034-3.833,0.283-9.85,0.95-18.05
			C23.684,46.7,23.95,40.667,23.85,36.5z"/>
		<path style="fill-rule:evenodd;clip-rule:evenodd;fill:#AF6924;" d="M29.1,32.55c0.133,1.5,0.2,3.167,0.2,5
			c-0.066,3.667-0.55,7.8-1.45,12.4c-0.567,2.8-1.567,6.933-3,12.4c-0.133,0.8-0.034,2.117,0.3,3.95
			c0.333,1.867,0.417,3.25,0.25,4.15v36.6c-0.233,2.101-0.3,6.75-0.2,13.95c0.066,5.767-0.367,10.417-1.3,13.95
			c-0.267,1.566-0.333,3.35-0.2,5.35c0.066,0.8,0.3,2.584,0.7,5.351l-0.8-0.851c-0.167-4.333,0.033-10.75,0.6-19.25
			c0.533-8.6,0.733-15.033,0.6-19.3L24.65,84.3c-0.1-2.5-0.15-4.966-0.15-7.4l-0.05-3.7c-0.067-1.833-0.117-3.217-0.15-4.15
			c-0.4-2.767-0.35-5.9,0.15-9.4c0.3-2.167,0.933-5.35,1.9-9.55c1.1-4.333,1.466-9.05,1.1-14.15c-0.067-1.167-0.233-2.717-0.5-4.65
			c-0.367-1.2-0.9-3.267-1.6-6.2l1.4-1.35C27.483,27.05,28.267,29.983,29.1,32.55z"/>
		<path style="fill-rule:evenodd;clip-rule:evenodd;fill:#AF6924;" d="M29.3,21.4l1.4-1.2c1.133,8.2,1.833,14.65,2.1,19.35
			c-0.066,2.333-0.15,4.05-0.25,5.15c-0.4,5.267-1.316,10.333-2.75,15.2c-0.4,1.2-0.616,2.684-0.65,4.45
			c0,0.967,0.017,2.45,0.05,4.45L29.45,84c0.267,2.6,0.383,6.116,0.35,10.55c-0.033,5.4-0.017,8.934,0.05,10.601
			c0.066,1.866,0.15,3.25,0.25,4.149c0.1,5.867,0.066,10.5-0.1,13.9c-0.267,4.934-0.833,9.5-1.7,13.7
			c-0.4,1.466-0.5,3.183-0.3,5.149c0.133,1.134,0.383,2.783,0.75,4.95l0.1,2.9l-0.5-0.4l-0.2-3.3c-0.733-2.2-0.85-4.65-0.35-7.351
			c0.7-7.533,1.017-18.233,0.95-32.1c0.1-1.2,0.15-2.384,0.15-3.55c0.034-1.967-0.033-4.867-0.2-8.7c-0.2-3.833-0.284-6.7-0.25-8.6
			l-0.2-15.65c0.1-3.3,0.5-7.467,1.2-12.5c1.1-7.733,1.683-11.917,1.75-12.55l0.45-5.05c0.133-2.233,0.2-3.917,0.2-5.05
			c0.033-1.967-0.167-3.667-0.6-5.1C30.617,27.667,29.967,24.8,29.3,21.4z"/>
		<path style="fill-rule:evenodd;clip-rule:evenodd;fill:#AF6924;" d="M32.15,19.05l1.3-1.05c1,3.167,1.5,4.783,1.5,4.85
			c0.566,1.9,0.966,3.617,1.2,5.15c0,3.933,0.05,6.933,0.15,9l-0.35,4.45c-0.134,1.566-0.7,6.066-1.7,13.5
			c-0.7,5.5-1.066,9.983-1.1,13.45l0.05,43.15c0,13.634-0.267,23.934-0.8,30.9l-0.1,10.399l-1.4-1.199l0.05-7.5
			c0.7-4.567,1-10.417,0.9-17.551c-0.2-10.066-0.267-15.916-0.2-17.55v-4.7c0.167-6.233,0.267-10.933,0.3-14.1
			c0.066-5.467-0.083-10.233-0.45-14.3l-0.05-5.25c-0.134-3.567,0.183-7.833,0.95-12.8c1-5.633,1.7-9.85,2.1-12.65
			c0.333-2.133,0.55-3.8,0.65-5c0.1-2.267,0.15-3.967,0.15-5.1c0-2-0.2-3.717-0.6-5.15C33.667,26.667,32.816,23.017,32.15,19.05z"/>
		<path style="fill-rule:evenodd;clip-rule:evenodd;fill:#AF6924;" d="M36.75,15.55l0.1-0.05c0.367,2,0.9,4.983,1.6,8.95
			c0.566,3.433,0.866,6.433,0.9,9c0.1,1.767,0.15,3.517,0.15,5.25c0.133,7.2-0.133,15.867-0.8,26v5.1
			c-0.067,11.067-0.167,27.7-0.3,49.9l-0.2,37.45L37,156.35l0.4-6.949l0.3-29.15c0-3.134,0.116-11.55,0.35-25.25
			c0.2-10.4,0.167-18.817-0.1-25.25V65c0.033-2.833,0.183-6.45,0.45-10.85c0.4-6.566,0.617-10.2,0.65-10.9l0.15-4.35
			c0.033-2.4,0.05-4.217,0.05-5.45C39.217,31.217,39,29.4,38.6,28C37.767,23.967,37.15,19.816,36.75,15.55z"/>
		<path style="fill-rule:evenodd;clip-rule:evenodd;fill:#AF6924;" d="M35.55,16.4l0.6-0.4c1.267,6.7,2,10.833,2.2,12.4
			c0.6,4.7,0.667,8.934,0.2,12.7l-0.4,4.6C37.483,52.2,37.1,56.05,37,57.25c-0.3,4.333-0.316,8.133-0.05,11.4l0.05,4.8
			c0.033,4.833,0.1,19.566,0.2,44.2v3.3c-0.067,3.434-0.067,6.934,0,10.5l-0.35,24.8l-0.8-0.6l0.85-22.101
			c0.233-4.967,0.25-9.983,0.05-15.05l-0.1-4.5c-0.467-21.5-0.717-35.017-0.75-40.55l-0.05-4.25c0.034-3.167,0.217-7.117,0.55-11.85
			c0.433-5.3,0.733-9.283,0.9-11.95l0.25-4.8c0.267-3.6,0.133-7.65-0.4-12.15C37.117,26.45,36.517,22.433,35.55,16.4z"/>
		<path style="fill-rule:evenodd;clip-rule:evenodd;fill:#AF6924;" d="M36.15,16l0.6-0.45c0.4,4.267,1.017,8.417,1.85,12.45
			c0.4,1.4,0.617,3.217,0.65,5.45c0,1.233-0.017,3.05-0.05,5.45l-0.15,4.35c-0.033,0.7-0.25,4.333-0.65,10.9
			c-0.267,4.4-0.417,8.017-0.45,10.85v4.75c0.267,6.433,0.3,14.85,0.1,25.25c-0.233,13.7-0.35,22.116-0.35,25.25l-0.3,29.15
			l-0.3,3.399l0.1-21.35c-0.067-3.566-0.067-7.066,0-10.5v-3.3c-0.1-24.634-0.167-39.367-0.2-44.2l-0.05-4.8
			c-0.267-3.267-0.25-7.066,0.05-11.4c0.1-1.2,0.483-5.05,1.15-11.55l0.4-4.6c0.467-3.767,0.4-8-0.2-12.7
			C38.15,26.833,37.417,22.7,36.15,16z"/>
		<path style="fill-rule:evenodd;clip-rule:evenodd;fill:#AF6924;" d="M41.9,12.2l0.55-0.3c0.066,0.4,0.35,2.1,0.85,5.1
			c0.333,2.066,0.567,3.783,0.7,5.15c0.267,2.633,0.217,5.817-0.15,9.55c-0.233,2.133-0.6,5.3-1.1,9.5
			c0.1-6.434,0.133-11.267,0.1-14.5C42.816,21.066,42.5,16.233,41.9,12.2z"/>
		<path style="fill-rule:evenodd;clip-rule:evenodd;fill:#AF6924;" d="M45,64.85c-1-5.1-1.617-9.033-1.85-11.8l1.8,7.35
			c1.333,7.667,2.066,12.033,2.2,13.1c0.2,2.167,0.3,4.35,0.3,6.55c0.133,4.633-0.5,13.983-1.9,28.05
			c-1.167,11.767-1.216,21.267-0.15,28.5l-0.35,24.75l-0.55-0.3V137.6c-0.3-9.199-0.35-17.033-0.15-23.5
			c0.267-8.399,0.966-16.316,2.1-23.75c0.9-4.066,1.066-8.649,0.5-13.75C46.684,74.2,46.033,70.283,45,64.85z"/>
		<path style="fill-rule:evenodd;clip-rule:evenodd;fill:#AF6924;" d="M43.7,36.8c-0.3,4.1-0.4,7.7-0.3,10.8
			c-0.5-2.6-0.617-5.033-0.35-7.3L43.7,36.8z"/>
		<path style="fill-rule:evenodd;clip-rule:evenodd;fill:#AF6924;" d="M45.35,113.55c0.1-2.233,0.275-4.691,0.525-7.375
			c-0.607,8.442-0.648,16.268-0.125,23.476C45.25,124.75,45.117,119.384,45.35,113.55z"/>
		<path style="fill-rule:evenodd;clip-rule:evenodd;fill:#AF6924;" d="M44.95,60.4c-0.733-4.333-1.217-7.6-1.45-9.8l-0.1-3
			c0.2,1.1,0.567,2.75,1.1,4.95c1.667,6.7,2.8,12.517,3.4,17.45c0.7,6.133,0.717,11.933,0.05,17.4l-0.2,1.5
			c0.367-4.3,0.167-9.434-0.6-15.4C46.783,69.6,46.05,65.233,44.95,60.4z"/>
		<path style="fill-rule:evenodd;clip-rule:evenodd;fill:#AF6924;" d="M42.75,41.2c0,4.167,0.1,7.617,0.3,10.35l0.1,1.5l-0.1-0.5
			C42.45,49.417,42.35,45.633,42.75,41.2z"/>
		<path style="fill-rule:evenodd;clip-rule:evenodd;fill:#AF6924;" d="M46.35,136.1c-0.204-1.866-0.379-3.75-0.525-5.649
			c0.265,2.524,0.623,4.841,1.075,6.95l0.1,3.5c0.033,3.8-0.066,8.483-0.3,14.05L46.35,162l-0.5-0.25L46,158.8
			c0.267-8.133,0.4-14.2,0.4-18.2L46.35,136.1z"/>
		<path style="fill-rule:evenodd;clip-rule:evenodd;fill:#AF6924;" d="M43.45,11.3l0.2-0.1c1.1,3.8,1.6,8.033,1.5,12.7
			c-0.066,3.7-0.55,8-1.45,12.9c0.433-6.533,0.667-10.767,0.7-12.7C44.467,19.333,44.15,15.066,43.45,11.3z"/>
		<path style="fill-rule:evenodd;clip-rule:evenodd;fill:#AF6924;" d="M45.55,108.1c1.4-14.066,2.034-23.417,1.9-28.05
			c0-2.2-0.1-4.383-0.3-6.55c0.767,5.967,0.967,11.1,0.6,15.4l-1,8.399v0.15c-0.733,6.267-1.2,11.633-1.4,16.1
			c-0.233,5.834-0.1,11.2,0.4,16.101c0.167,2.166,0.367,4.316,0.6,6.449l0.05,4.5c0,4-0.133,10.067-0.4,18.2l-0.15,2.95l-0.8-0.4
			l0.35-24.75C44.333,129.366,44.383,119.866,45.55,108.1z"/>
		<path style="fill-rule:evenodd;clip-rule:evenodd;fill:#AF6924;" d="M43.3,17c-0.5-3-0.783-4.7-0.85-5.1l1-0.6
			c0.7,3.767,1.017,8.034,0.95,12.8c-0.033,1.933-0.267,6.167-0.7,12.7l-0.65,3.5c-0.267,2.267-0.15,4.7,0.35,7.3l0.1,3
			c0.233,2.2,0.717,5.467,1.45,9.8l-1.8-7.35l-0.1-1.5c-0.2-2.733-0.3-6.183-0.3-10.35c0.5-4.2,0.867-7.367,1.1-9.5
			c0.367-3.733,0.417-6.917,0.15-9.55C43.867,20.783,43.633,19.066,43.3,17z"/>
		<path style="fill-rule:evenodd;clip-rule:evenodd;fill:#AF6924;" d="M52.35,106.05l0.6-2.7l-0.1,2.75
			c-0.333,4.267-0.5,8.101-0.5,11.5v0.2c-0.133,1.601-0.067,3.384,0.2,5.351c0.333,4.433,0.967,8.449,1.9,12.05L54.4,141.6
			c-0.233,5.134-0.783,12.95-1.65,23.45L52,164.7c0.867-10.834,1.35-17.884,1.45-21.15l0.15-3.899c0.1-2.534-0.034-5.417-0.4-8.65
			c-0.233-2-0.684-4.917-1.35-8.75C51.283,116.25,51.45,110.85,52.35,106.05z"/>
		<path style="fill-rule:evenodd;clip-rule:evenodd;fill:#AF6924;" d="M55.3,76.6l-0.05,1.6c-0.167-3.767-0.434-7.3-0.8-10.6
			C55.017,70.933,55.3,73.933,55.3,76.6z"/>
		<path style="fill-rule:evenodd;clip-rule:evenodd;fill:#AF6924;" d="M50,7.9l0.95,2.25l1.3,4.7c0.434,2.833,0.333,6.367-0.3,10.6
			c-0.367,2.3-0.884,5.616-1.55,9.95l-0.35,1.4c-0.767,2.8-0.983,5.267-0.65,7.4c0.4,2.833,1.15,6.483,2.25,10.95l0.65,10.4
			c-1.7-8.966-2.983-15.75-3.85-20.35c-0.667-3.367-0.217-9.45,1.35-18.25c1.4-7.833,1.167-14.034-0.7-18.6L50,7.9z"/>
		<path style="fill-rule:evenodd;clip-rule:evenodd;fill:#AF6924;" d="M52.35,117.6c0.233-3.366,0.4-7.199,0.5-11.5l0.4-4.5
			c0.633-3.633,1-7.35,1.1-11.149c0.466-4.833,0.767-8.917,0.9-12.25c0.467,10.6-0.167,21.184-1.9,31.75
			c-0.567,3.434-0.417,7.85,0.45,13.25c1.167,7.1,1.784,11.45,1.85,13.05l-0.05,4.3c-0.067,3.467-0.267,7.634-0.6,12.5
			c-0.2,2.767-0.517,6.934-0.95,12.5l-0.75-0.3c0.434-5.434,0.75-9.5,0.95-12.2c0.3-4.7,0.45-8.75,0.45-12.149
			c0-2.267-0.034-3.95-0.1-5.051l-0.15-0.649c-0.134-1.566-0.434-3.617-0.9-6.15c-0.533-2.967-0.866-4.934-1-5.899
			C52.417,120.684,52.35,118.833,52.35,117.6z"/>
		<path style="fill-rule:evenodd;clip-rule:evenodd;fill:#AF6924;" d="M54.35,90.45l-1.4,12.899
			c0.233-12.133,0.017-24.733-0.65-37.8C53.934,75.15,54.617,83.45,54.35,90.45z"/>
		<path style="fill-rule:evenodd;clip-rule:evenodd;fill:#AF6924;" d="M49.9,40.75c-0.233-1.2-0.183-2.517,0.15-3.95l0.35-1.3
			c-0.133,1.5-0.133,2.933,0,4.3l0.5,5.55L49.9,40.75z"/>
		<path style="fill-rule:evenodd;clip-rule:evenodd;fill:#AF6924;" d="M50.95,10.15l-0.55-2.4l0.3-0.15
			c0.6,1.833,1.683,4.533,3.25,8.1c1.133,3.133,1.417,5.933,0.85,8.4c-0.333,1.367-0.95,3.083-1.85,5.15
			c-1.233,2.8-1.95,4.467-2.15,5c0.6-1.767,1.05-3.117,1.35-4.05c0.534-1.634,0.934-3.017,1.2-4.15
			c0.267-1.833,0.283-3.75,0.05-5.75c-0.2-1.466-0.583-3.283-1.15-5.45C51.983,13.117,51.55,11.55,50.95,10.15z"/>
		<path style="fill-rule:evenodd;clip-rule:evenodd;fill:#AF6924;" d="M50.9,45.35c1.633,7.833,2.817,15.25,3.55,22.25
			c-0.3-1.8-1.233-5.95-2.8-12.45C51.65,54.983,51.4,51.717,50.9,45.35z"/>
		<path style="fill-rule:evenodd;clip-rule:evenodd;fill:#AF6924;" d="M54.4,141.6l0.05-6.399l0.15,0.649
			c0.066,1.101,0.1,2.784,0.1,5.051c0,3.399-0.15,7.449-0.45,12.149c-0.2,2.7-0.517,6.767-0.95,12.2l-0.55-0.2
			C53.617,154.55,54.167,146.733,54.4,141.6z"/>
		<path style="fill-rule:evenodd;clip-rule:evenodd;fill:#AF6924;" d="M52.3,65.55l-0.65-10.4c1.567,6.5,2.5,10.65,2.8,12.45
			c0.366,3.3,0.633,6.833,0.8,10.6c-0.133,3.333-0.434,7.417-0.9,12.25C54.617,83.45,53.934,75.15,52.3,65.55z"/>
		<polygon style="fill-rule:evenodd;clip-rule:evenodd;fill:#AF6924;" points="50.4,7.75 50.95,10.15 50,7.9 		"/>
		<path style="fill-rule:evenodd;clip-rule:evenodd;fill:#AF6924;" d="M52.25,14.85c0.566,2.167,0.95,3.983,1.15,5.45
			c0.233,2,0.217,3.917-0.05,5.75c-0.267,1.133-0.667,2.517-1.2,4.15c-0.3,0.933-0.75,2.283-1.35,4.05l-0.4,1.15
			c0.667-4.333,1.184-7.65,1.55-9.95C52.583,21.217,52.684,17.683,52.25,14.85z"/>
		<path style="fill-rule:evenodd;clip-rule:evenodd;fill:#AF6924;" d="M60.05,16.75c-1.433-5.233-2.1-9-2-11.3L58,4.7l1.1-0.4
			c0.167,1.4,0.383,2.667,0.65,3.8c0.5,1.566,1.283,3.983,2.35,7.25c0.8,2.9,0.983,5.483,0.55,7.75c-0.867,6.6-1.1,14.6-0.7,24
			c0.2,5.267,0.566,13.183,1.1,23.75L62.8,83.2c-0.167,2.433-0.383,4.649-0.65,6.649c-1,7.101-1.367,15.417-1.1,24.95
			c0.167,5.467,0.534,13.7,1.1,24.7l-0.05,5.25c-0.4,12.434-0.633,20.217-0.7,23.35l-0.55-0.1c0.066-5.767,0.133-10.1,0.2-13
			c0.1-5,0.267-9.3,0.5-12.9c0.067-2.233,0.083-3.916,0.05-5.05c0.033-2.566-0.267-6.283-0.9-11.149c-0.667-4.967-1-8.65-1-11.051
			c0.733-16.267,1.216-28.466,1.45-36.6c0.367-14.3-0.267-26.633-1.9-37c-0.4-1.833-0.316-4.033,0.25-6.6
			c0.8-2.933,1.367-5.15,1.7-6.65C61.733,25.167,61.35,21.417,60.05,16.75z"/>
		<path style="fill-rule:evenodd;clip-rule:evenodd;fill:#AF6924;" d="M61.7,5.5l-0.05-2l1.65-0.45l-0.05,0.4
			c-0.233,1.633-0.233,2.9,0,3.8c0.3,2.333,0.867,5.816,1.7,10.45c0.633,4.066,0.85,7.5,0.65,10.3c-0.167,0.5-0.467,1.316-0.9,2.45
			c-0.367,1.033-0.55,1.85-0.55,2.45c0.534,10.367,0.567,24.45,0.1,42.25c-0.533,20.6-0.733,34.667-0.6,42.2
			c0,2.101,0.167,5.2,0.5,9.301c0.3,4.066,0.45,7.183,0.45,9.35l0.05,33.05l-1.1-0.3c0.067-5.6,0.067-14.033,0-25.3L63.5,139.6
			c-0.8-16.1-1.033-34.899-0.7-56.399c0.233-3.7,0.317-7.817,0.25-12.35c0.2-8.833,0.567-22.3,1.1-40.4c0-7.833-0.667-15.034-2-21.6
			C61.917,7.75,61.767,6.633,61.7,5.5z"/>
		<path style="fill-rule:evenodd;clip-rule:evenodd;fill:#AF6924;" d="M66.5,8.05c-0.066-2.233,0.033-4.183,0.3-5.85l1.1-0.25
			L67.6,4.2c-0.034,1.4-0.034,2.833,0,4.3c0.033,0.967,0.15,2.417,0.35,4.35c0.533,13.433,0.417,34.2-0.35,62.3
			c-0.7,27.3-0.717,48.133-0.05,62.5l0.7,15.199c0.1,2,0.25,4.884,0.45,8.65c0.133,3.3,0.167,6.134,0.1,8.5l-1.2-0.25
			c0-0.6-0.167-3.884-0.5-9.85c-0.2-3.934-0.217-7.184-0.05-9.75l-0.2-10.101c-0.5-15.267-0.534-34.934-0.1-59
			c0.533-32.367,0.8-52,0.8-58.9c0-4.6-0.25-7.983-0.75-10.15C66.667,10.733,66.566,9.417,66.5,8.05z"/>
		<path style="fill-rule:evenodd;clip-rule:evenodd;fill:#AF6924;" d="M70.95,71.7c-0.189,10.622-0.397,19.797-0.625,27.524
			c-0.017-8.5,0.042-15.558,0.175-21.175c0.367-7.733,0.517-18.35,0.45-31.85c-0.099-15.259-0.065-25.826,0.1-31.7
			C71.417,29.533,71.383,48.6,70.95,71.7z"/>
		<path style="fill-rule:evenodd;clip-rule:evenodd;fill:#AF6924;" d="M71,139.7l-0.05-2.45c-0.134-16.467-0.2-28.8-0.2-37
			c0-14.5,0.333-26.883,1-37.15C71.25,98.9,71,123.967,71,138.3V139.7z M71.05,142.05l0.4,8.101
			c0.733,10.966,1.133,17.816,1.2,20.55l-0.2-0.05v-0.301c-0.667-6.666-1.083-13.633-1.25-20.899L71.05,142.05z"/>
		<polygon style="fill-rule:evenodd;clip-rule:evenodd;fill:#AF6924;" points="71.05,8.1 71.05,1.35 71.2,1.3 71.25,6.05 		"/>
		<path style="fill-rule:evenodd;clip-rule:evenodd;fill:#AF6924;" d="M72,14.55V1.15l0.25-0.05v9.75c0.1,1.966,0.15,3.85,0.15,5.65
			l-0.2,16.6C71.934,24.9,71.867,18.717,72,14.55z"/>
		<path style="fill-rule:evenodd;clip-rule:evenodd;fill:#AF6924;" d="M72.2,33.1c0.2,6.233,0.316,10.683,0.35,13.35
			c0,5-0.183,9.483-0.55,13.45l-0.25,3.2L72.2,33.1z"/>
		<path style="fill-rule:evenodd;clip-rule:evenodd;fill:#AF6924;" d="M71.2,1.3L72,1.15v13.4c-0.133,4.167-0.066,10.35,0.2,18.55
			l-0.45,30c-0.667,10.267-1,22.65-1,37.15c0,8.2,0.066,20.533,0.2,37l0.25,12.2c0.167,7.267,0.583,14.233,1.25,20.899v0.301
			l-0.7-0.15l-0.25-2.6c-0.533-7.767-0.917-13.601-1.15-17.5l-0.2-5.801C70.05,143.167,70,141.7,70,140.2V129
			c0.033-4.467,0.35-23.566,0.95-57.3c0.433-23.1,0.466-42.167,0.1-57.2L71.2,1.3z"/>
		<path style="fill-rule:evenodd;clip-rule:evenodd;fill:#AF6924;" d="M77.9,0.4v17.85c0.4,16.767,0.4,36.633,0,59.6
			c-0.233,13.233-0.667,33.083-1.3,59.55l0.05,14.649c0.133,1.066,0.233,3.117,0.3,6.15l0.2,3.1c0.133,2.033,0.4,5.117,0.8,9.25
			l0.05,0.8l-1.2-0.1V171c-0.066-2.533-0.2-5.616-0.4-9.25c-0.267-4.066-0.466-7.134-0.6-9.2l-0.3-4.6
			c-0.066-2.7-0.117-4.733-0.15-6.101c-0.034-2-0.034-4.017,0-6.05c0.667-25.7,1.117-45.434,1.35-59.2
			c0.333-21.8,0.383-41.55,0.15-59.25L76.8,0.5L77.9,0.4z"/>
		<path style="fill-rule:evenodd;clip-rule:evenodd;fill:#AF6924;" d="M80.8,20.9L80.75,0.2l0.9-0.1v21.65
			c0.434,14.733,0.434,34.15,0,58.25c-0.533,30.267-0.783,49.65-0.75,58.15l0.5,14c0.133,8.666,0.15,15.149,0.05,19.449l-1.1-0.1
			l0.15-5.3c0.1-3.367-0.066-7.983-0.5-13.851l-0.3-4.699c-0.134-1.034-0.267-2.551-0.4-4.551c-0.066-1-0.1-2.5-0.1-4.5
			c0.7-17.533,1.167-37.149,1.4-58.85C80.733,66.717,80.8,47.1,80.8,20.9z"/>
		<path style="fill-rule:evenodd;clip-rule:evenodd;fill:#AF6924;" d="M83.25,0.05h0.9v24c0.333,11.667,0.233,30.717-0.3,57.15
			c-0.5,24.5-0.434,43.5,0.2,57l-0.05,15c-0.033,5.467-0.167,11.616-0.4,18.45h-0.85l0.05-21.101c0.067-2.2,0.1-5.517,0.1-9.95v-5
			c-0.633-6.899-0.683-15.683-0.15-26.35c0.667-14.434,1-23.183,1-26.25c-0.167-6.533-0.25-16.017-0.25-28.45
			c0-12.733-0.066-22.167-0.2-28.3L83.25,0.05z"/>
		<path style="fill-rule:evenodd;clip-rule:evenodd;fill:#AF6924;" d="M91.5,0.2l1.25,0.1v45.65c-0.033,2.466-0.1,10.55-0.2,24.25
			L92,87.15c0.066,5.733,0.217,11.366,0.45,16.899l0.2,5.601c0,3.699-0.067,9.383-0.2,17.05c-0.033,6.733,0.133,12.5,0.5,17.3
			L94,162.15c0.434,3.233,0.95,6.233,1.55,9l-1.95,0.199c-0.732-4.199-1.232-7.316-1.5-9.35l-0.35-3.25
			c0.066-4.134,0.083-7.25,0.05-9.35l-0.05-4.75c-0.033-2.067-0.217-7.601-0.55-16.601c-0.267-6.733-0.333-12.267-0.2-16.6
			l-0.1-10.15c-0.067-4.133-0.033-7.684,0.1-10.649l0.45-27.95c0.133-3.133,0.149-6.434,0.05-9.9V0.2z"/>
		<path style="fill-rule:evenodd;clip-rule:evenodd;fill:#AF6924;" d="M95,0.5l0.35,0.05l0.2,5.4c0.533,11,0.917,21.3,1.15,30.9
			l0.1,4.45c0.233,13.034,0.067,23.917-0.5,32.65l-0.75,13.8c-0.366,3.333-0.283,6.85,0.25,10.55l0.55,3.4
			c0.434,1.434,0.851,3.149,1.25,5.149c1.5,6.233,2.25,13.25,2.25,21.051c0.034,5.233-0.366,12.333-1.199,21.3l-0.601,12.85
			c0.101,3.033,0.367,5.934,0.8,8.7l-1.649,0.2c-0.467-2.566-0.75-5.351-0.851-8.351L96.3,159.4l1.25-11.5
			c0.834-7.634,1.2-14.367,1.101-20.2c-0.134-7.233-0.934-13.816-2.4-19.75l-1.1-5.15c-0.2-1.2-0.351-2.416-0.45-3.649
			c-0.434-3.934-0.434-7.717,0-11.351L95.6,74.95c0.601-4.534,0.834-9.8,0.7-15.8c0-0.066-0.25-5.367-0.75-15.9L95.4,38.6
			C95.134,27.267,95,14.566,95,0.5z"/>
		<path style="fill-rule:evenodd;clip-rule:evenodd;fill:#AF6924;" d="M98.1,0.9L98.7,0.95c0.133,6.133,0.267,10.733,0.399,13.8
			l0.4,22.05c0.5,15,0.417,28.883-0.25,41.65l-0.35,4.8c-1.2,4.366-1.584,8.9-1.15,13.6c0.134,1.367,0.333,2.817,0.6,4.351
			c0.667,1.833,1.268,3.6,1.801,5.3c2.733,6.267,3.949,13.8,3.649,22.6c-0.166,4.934-1.1,12.567-2.8,22.9l-1.2,7.1
			c0,1.667,0.067,3.167,0.2,4.5c0.134,2.134,0.417,4.4,0.85,6.801l-1.25,0.25c-0.566-2.467-0.933-4.65-1.1-6.551
			c-0.1-1.3-0.15-2.583-0.15-3.85c-0.033-1.866-0.033-3.283,0-4.25c0-1.634,0.217-3.083,0.65-4.35
			c2.233-6.767,3.2-14.284,2.9-22.551c-0.267-6.433-1.367-13.899-3.301-22.399l-1.05-4.8c-0.267-1.5-0.467-2.934-0.6-4.301
			c-0.5-4.699-0.467-9.083,0.1-13.149c0.2-1.434,0.351-2.883,0.45-4.35l0.4-4.4c0.467-10.6,0.616-23.784,0.449-39.55L98.1,0.9z"/>
		<path style="fill-rule:evenodd;clip-rule:evenodd;fill:#AF6924;" d="M100.7,21.15c-0.267-5.167-0.434-11.816-0.5-19.95l1.649,0.3
			c-0.066,8.767-0.066,15.333,0,19.7l0.051,11.2c-0.033,1.767,0.133,9.833,0.5,24.2c0.233,9.7-0.2,17.617-1.301,23.75l-0.8,11.4
			c0.134,3.2,0.217,5.017,0.25,5.45c0.167,2.1,0.467,3.899,0.9,5.399c0.566,1.467,1.167,3.134,1.8,5c0.566,1.801,1,3.334,1.3,4.601
			c1.367,6.533,1.767,14.3,1.2,23.3c-0.333,5.2-1.116,13.033-2.35,23.5c0,1-0.051,2.467-0.15,4.4
			c-0.033,1.733,0.117,3.199,0.45,4.399l0.2,2l-2.101,0.45l-0.45-2.35c-0.8-2.7-0.933-5.667-0.399-8.9
			c1.633-10.134,2.667-17.733,3.1-22.8c0.667-8.4,0.483-15.917-0.55-22.55c-0.366-1.767-0.783-3.384-1.25-4.851
			c-0.566-1.733-1.116-3.3-1.65-4.7l-1.5-4.05l-0.05-4.45c0.367-5.899,0.634-10.266,0.8-13.1l0.25-5.15
			c0.567-5.733,0.884-12.35,0.95-19.85c-0.066-8.733-0.116-15.333-0.149-19.8L100.7,21.15z"/>
		<path style="fill-rule:evenodd;clip-rule:evenodd;fill:#AF6924;" d="M103.1,1.75L105.2,2.2l-0.351,33c0,2.4,0.2,9.716,0.601,21.95
			c0.3,8.8,0.25,16.017-0.15,21.65l-0.3,4.8c0.1,1.5-0.366,4.3-1.4,8.4c-0.866,3.434-0.933,6.15-0.199,8.15
			c0.533,1.5,1.033,3.083,1.5,4.75c0.333,1.033,0.767,2.583,1.3,4.649c1.767,8.101,2.467,17.467,2.1,28.101
			c-0.2,4.966-1,14.433-2.399,28.399l-0.051,3.3L104,169.8l-0.05-1.7c1.267-12.666,2.1-22.166,2.5-28.5
			c0.667-11.066,0.217-20.616-1.351-28.649c-0.267-1.4-0.649-2.967-1.149-4.7L103,100.9c-0.7-4.034-1.15-7.567-1.35-10.601
			c0.066-1.733,0.217-3.5,0.449-5.3l0.45-5.15c1.2-6.567,1.767-14.467,1.7-23.7c-0.333-10.733-0.566-18.816-0.7-24.25l-0.1-5.85
			C103.05,19.417,102.934,11.316,103.1,1.75z"/>
		<path style="fill-rule:evenodd;clip-rule:evenodd;fill:#AF6924;" d="M109.8,3.4l1.15,0.35c-0.033,6.933-0.134,13.9-0.3,20.9
			l-0.101,5.5c0.5,12.934,0.167,28.533-1,46.8l-0.35,5.25c-0.3,4.7-0.25,10.133,0.149,16.3l0.25,3.25
			c1.167,9.5,1.634,20.333,1.4,32.5c-0.133,6.967-0.667,17.866-1.6,32.7l-0.051,1.5l-0.649,0.2v-1.2
			c-0.066-3.033,0.267-13.684,1-31.95c0.5-12.967,0.116-23.566-1.15-31.8l-0.3-3.601c-0.3-4.267-0.45-7.85-0.45-10.75
			c-0.2-1.366-0.166-3.083,0.101-5.149c0.333-3,0.517-4.75,0.55-5.25l0.3-4.85c0.367-6.1,0.566-13.45,0.6-22.05
			c0-9.733,0.018-17.033,0.051-21.9L109.8,3.4z"/>
		<path style="fill-rule:evenodd;clip-rule:evenodd;fill:#AF6924;" d="M114.25,7V4.8l0.95,0.35
			c-0.066,19.133-0.184,32.233-0.351,39.3l-0.05,3.35c-0.1,5.167-0.116,10.95-0.05,17.35l-0.3,10.4
			c-0.267,5.434-0.483,11.55-0.65,18.351l-0.05,3.699c-0.467,7.267-0.55,16.434-0.25,27.5c-0.066,19.7-0.267,33.801-0.6,42.301
			l-1,0.3l0.05-0.351l0.2-3.399c0.833-8.7,1.1-19.5,0.8-32.4c-0.5-14.3-0.767-25.017-0.8-32.149L112.1,96.1
			c-0.066-6.066,0.084-11.516,0.45-16.35l0.3-4.55c0.268-5,0.45-9.517,0.551-13.55l0.149-5.45c0.033-0.9,0.101-4.534,0.2-10.9
			l0.05-5.45c-0.033-2.934,0.084-8.434,0.351-16.5C114.384,16.417,114.417,10.967,114.25,7z"/>
		<path style="fill-rule:evenodd;clip-rule:evenodd;fill:#AF6924;" d="M116.55,5.65l1.05,0.4c-0.033,4.767-0.183,11.967-0.449,21.6
			c-0.167,8.633-0.134,15.85,0.1,21.65V54c0.066,7.4-0.033,13.9-0.3,19.5l-0.25,3.95c-0.134,1.3-0.233,2.617-0.3,3.95
			c-0.301,10.333-0.533,23.85-0.7,40.55c-0.267,20.967-0.45,34.45-0.55,40.45c-0.033,1.033-0.15,2.466-0.351,4.3l-1.75,0.6l0.3-2.55
			c0.467-5.767,0.667-12.384,0.601-19.85c-0.033-2.634-0.184-9.233-0.45-19.801c0.066-19.399,0.417-34.383,1.05-44.95l0.7-9.2
			c0.4-5.167,0.7-12,0.9-20.5l0.05-4.05c-0.2-5.4-0.217-12.2-0.05-20.4C116.417,12.967,116.55,6.183,116.55,5.65z"/>
		<path style="fill-rule:evenodd;clip-rule:evenodd;fill:#AF6924;" d="M113.5,125.1c0.267,10.567,0.417,17.167,0.45,19.801
			c0.066,7.466-0.134,14.083-0.601,19.85l-0.3,2.55L112.9,167.4C113.233,158.9,113.434,144.8,113.5,125.1z"/>
		<path style="fill-rule:evenodd;clip-rule:evenodd;fill:#AF6924;" d="M122.55,8.2l1.55,0.75c0,4.433-0.1,11.866-0.3,22.3
			c-0.2,9.467-0.283,16.85-0.25,22.15l-0.2,22.85c0.101,2.267,0.134,4.3,0.101,6.1c-0.467,8.4-1.367,20.867-2.7,37.4
			c-0.934,14.566-1,27-0.2,37.3c0.067,0.4,0.317,2.75,0.75,7.05l-2.05,0.9c0.367-2,0.483-3.833,0.35-5.5
			c-1.466-11.1-1.816-23.833-1.05-38.2c1.334-16.733,2.317-29.366,2.95-37.9l0.25-4.5c0.066-1.667,0.05-3.167-0.05-4.5l0.35-23.5
			c-0.166-5.7-0.149-12.816,0.05-21.35C122.4,16.05,122.55,8.933,122.55,8.2z"/>
		<path style="fill-rule:evenodd;clip-rule:evenodd;fill:#AF6924;" d="M125.05,9.45l0.65,0.35c-0.033,5.133-0.083,12.817-0.15,23.05
			c-0.033,8.8,0.101,16.467,0.4,23l0.05,20.7c0.1,1.667,0.083,3.65-0.05,5.95c-0.2,2.6-0.384,4.566-0.55,5.9
			c-4.7,25.399-5.5,49.25-2.4,71.55l0.35,3.2l-1.8,0.8v-2c-0.433-20.733-0.616-33-0.55-36.8c0.167-14.134,1.283-26.384,3.35-36.75
			c0.167-2,0.268-4,0.301-6c0-2.3-0.084-4.283-0.25-5.95l0.149-24.9c-0.033-5.1,0.033-12.133,0.2-21.1
			C124.95,20.55,125.05,13.55,125.05,9.45z"/>
		<path style="fill-rule:evenodd;clip-rule:evenodd;fill:#AF6924;" d="M126.35,10.15l1,0.5c0.034,5.067,0.15,13.2,0.351,24.4
			c0.2,10.534,0.3,18.65,0.3,24.35l-0.3,12.9c0.133,3.633,0.066,7.567-0.2,11.8l-0.3,3.9c-0.5,5.167-1.417,12.95-2.75,23.35
			c-1.066,9.301-1.583,17.217-1.55,23.75c-0.801-18.1,0.533-33.716,4-46.85l0.1-3.65c0-4.867,0.017-8.533,0.05-11l0.15-17
			C126.733,35.967,126.45,20.483,126.35,10.15z"/>
		<path style="fill-rule:evenodd;clip-rule:evenodd;fill:#AF6924;" d="M123.9,150.6c0.333,2.4,0.699,4.551,1.1,6.45l0.8,4.851
			l-0.85,0.399L123.9,150.6z"/>
		<path style="fill-rule:evenodd;clip-rule:evenodd;fill:#AF6924;" d="M123.9,150.6c-0.667-4.966-1-10.133-1-15.5
			C123.1,139.967,123.434,145.134,123.9,150.6z"/>
		<path style="fill-rule:evenodd;clip-rule:evenodd;fill:#AF6924;" d="M134.8,28.5c0.8,5.133,1.351,9.267,1.65,12.4
			c-1.2-5.733-1.967-12.217-2.3-19.45C134.316,24.05,134.533,26.4,134.8,28.5z"/>
		<path style="fill-rule:evenodd;clip-rule:evenodd;fill:#AF6924;" d="M134.2,69.85c0.1-1.333,0.25-2.717,0.45-4.15
			c0.267-2.2,0.5-3.85,0.699-4.95c0.134-0.867,0.367-1.933,0.7-3.2l0.8-3.25l-2.35,20.15c0.333,3.733,0.367,7.617,0.1,11.65
			l-0.3,3.8l-0.149,0.85L134.1,87.6c-0.133-3-0.216-5.25-0.25-6.75c-0.133-2.7-0.133-5,0-6.9L134.2,69.85z"/>
		<path style="fill-rule:evenodd;clip-rule:evenodd;fill:#AF6924;" d="M135.9,82.85L135.8,89.9c-0.1,1.6-0.267,3.05-0.5,4.35
			l-1.149,6.4c0.399-3.534,0.733-6.184,1-7.95L135.9,82.85z"/>
		<path style="fill-rule:evenodd;clip-rule:evenodd;fill:#AF6924;" d="M134.1,92.1l-1.649,9.7c-3.101,18.7-3.101,36.217,0,52.55
			c-3.867-17.767-3.867-35.899,0-54.399l1.7-9.2L134.1,92.1z"/>
		<path style="fill-rule:evenodd;clip-rule:evenodd;fill:#AF6924;" d="M134.075,19.775c-0.1-1.689-0.175-3.397-0.226-5.125l0.15,0.1
			C134,16.425,134.025,18.1,134.075,19.775z"/>
		<path style="fill-rule:evenodd;clip-rule:evenodd;fill:#AF6924;" d="M137.25,44.2c0.667,2.633,0.533,6-0.4,10.1
			c0.268-4.133,0.134-8.6-0.399-13.4L137.25,44.2z"/>
		<path style="fill-rule:evenodd;clip-rule:evenodd;fill:#AF6924;" d="M135.5,15.8l0.3,0.2c0.4,4.6,1.05,11.467,1.95,20.6
			c0.667,8.033,0.8,14.95,0.4,20.75l-2.25,25.5c-0.067-2.467-0.084-4.333-0.051-5.6L136,73.9c0.2-3.233,0.45-6.55,0.75-9.95
			L137.2,59c0.033-0.8,0.217-2.05,0.55-3.75c0.333-1.633,0.5-2.867,0.5-3.7c-0.133-4.767-0.517-10.75-1.15-17.95
			C136.066,22.1,135.533,16.167,135.5,15.8z"/>
		<path style="fill-rule:evenodd;clip-rule:evenodd;fill:#AF6924;" d="M134.15,100.65l-0.601,8.449
			c-0.233,7.034-0.133,14.867,0.3,23.5c0.301,5.5,0.851,13.267,1.65,23.301l-0.6,0.449c-0.667-6.1-1.517-11.767-2.551-17
			c-0.866-4.733-1.149-10.017-0.85-15.85c0.167-2.833,0.684-7.983,1.55-15.45L134.15,100.65z"/>
		<path style="fill-rule:evenodd;clip-rule:evenodd;fill:#AF6924;" d="M134.15,21.45c-0.101-2.233-0.15-4.467-0.15-6.7l1.5,1.05
			c0.033,0.367,0.566,6.3,1.6,17.8c0.634,7.2,1.018,13.183,1.15,17.95c0,0.833-0.167,2.067-0.5,3.7c-0.333,1.7-0.517,2.95-0.55,3.75
			l-0.45,4.95c-0.3,3.4-0.55,6.716-0.75,9.95l-0.15,3.35c-0.033,1.267-0.017,3.133,0.051,5.6l-0.75,9.85
			c-0.267,1.767-0.601,4.416-1,7.95l-1.101,7.399c-0.866,7.467-1.383,12.617-1.55,15.45c-0.3,5.833-0.017,11.116,0.85,15.85
			c1.034,5.233,1.884,10.9,2.551,17l-1.7,1.15l-0.75-3.15c-3.101-16.333-3.101-33.85,0-52.55l1.649-9.7l0.051-1.35l0.149-0.85
			l0.3-3.8c0.268-4.033,0.233-7.917-0.1-11.65l2.35-20.15c0.934-4.1,1.067-7.466,0.4-10.1l-0.8-3.3
			c-0.3-3.133-0.851-7.267-1.65-12.4C134.533,26.4,134.316,24.05,134.15,21.45z"/>
		<path style="fill-rule:evenodd;clip-rule:evenodd;fill:#AF6924;" d="M140,19.2l0.85,0.7l0.301,4.7c0.166,3.6,0.6,9,1.3,16.2
			c0.467,6.434,0.434,11.85-0.101,16.25l-0.3,4.7c-0.233,3.067-0.583,7.65-1.05,13.75l-0.2,3.4c0.134,3.133,0.167,6.85,0.101,11.15
			l-0.051,3.7c0.067,1.634,0.067,3.25,0,4.85l-0.199,4.9c-0.033,0.533-0.517,6.116-1.45,16.75c-0.566,6.634-0.566,12.184,0,16.65
			c0.566,5.933,0.983,11.017,1.25,15.25l-1.3,1.05c-0.5-9.601-0.801-17.367-0.9-23.3c-0.167-8.567-0.033-16.384,0.4-23.45
			l0.85-29.35c0.2-3.567,0.634-9.083,1.3-16.55L141.15,56c0.333-3.6,0.55-6.3,0.649-8.1c0.134-3,0.084-5.7-0.149-8.1
			C140.783,33.667,140.233,26.8,140,19.2z"/>
		<path style="fill-rule:evenodd;clip-rule:evenodd;fill:#AF6924;" d="M146.55,56.1c0-2.267-0.133-12.733-0.399-31.4l1.399,1.45
			l0.2,80c-0.3,6.133-0.483,13.033-0.55,20.699c-0.134,6.4-0.184,12.834-0.15,19.301l-1.25,1.25c-0.399-15.567-0.166-29.2,0.7-40.9
			l0.05-8.1c-0.066-4.4-0.183-8.351-0.35-11.851L146.55,56.1z"/>
		<path style="fill-rule:evenodd;clip-rule:evenodd;fill:#AF6924;" d="M147.55,26.15l1.351,1.4c-0.267,16.633-0.4,25.95-0.4,27.95
			l0.15,5.2c0.333,13,0.5,20.8,0.5,23.4l0.1,8.9c0.167,1.333,0.283,2.884,0.35,4.65c0.067,1.566,0.067,3.149,0,4.75
			c0,1.5-0.05,3-0.149,4.5c-0.7,5.666-1.083,11.899-1.15,18.699c-0.033,4.967,0.117,11.217,0.45,18.75l-1.35,1.4
			c-0.134-5.6-0.2-11.9-0.2-18.9c0.167-5.533,0.483-12.183,0.95-19.949c0.033-1.034,0.017-2.601-0.051-4.7l-0.35-4.7L147.55,26.15z"
			/>
		<path style="fill-rule:evenodd;clip-rule:evenodd;fill:#AF6924;" d="M148.1,102.2c0.067,2.1,0.084,3.666,0.051,4.7
			c-0.467,7.767-0.783,14.416-0.95,19.949c0.066-7.666,0.25-14.566,0.55-20.699l-0.2-15.551L148.1,102.2z"/>
		<path style="fill-rule:evenodd;clip-rule:evenodd;fill:#AF6924;" d="M150.7,56.1l-0.2-5.05c0-4.667,0.233-11.633,0.7-20.9
			l0.649,0.75c-0.666,10.067-0.933,18.117-0.8,24.15l0.45,4.85c0.1,1.967,0.367,5.883,0.8,11.75
			c0.334,4.967,0.533,8.917,0.601,11.85l-0.051,27.6c-0.433,4.267-0.616,9.017-0.55,14.25c0.033,3.567,0.2,8.351,0.5,14.351
			l-1.399,1.649c-0.134-4.666-0.134-10.366,0-17.1c0.166-7.6,0.267-13.267,0.3-17l0.149-24.75c-0.066-3.433-0.232-7.833-0.5-13.2
			C150.983,61.967,150.767,57.567,150.7,56.1z"/>
		<path style="fill-rule:evenodd;clip-rule:evenodd;fill:#AF6924;" d="M153.75,50.65c-0.333-1.033-0.483-2.2-0.45-3.5
			c0.101-1.467,0.15-2.617,0.15-3.45c0.3-1.9,0.733-4.967,1.3-9.2l0.7,1c-0.601,6-0.884,11.017-0.851,15.05
			c0.067,1.534,0.167,3.1,0.301,4.7c0.267,3.467,1.083,9.767,2.449,18.9c0.2,1.533,0.268,3.417,0.2,5.65
			c-0.1,3.4-0.149,5.35-0.149,5.85l0.5,15.85l-0.2,12.5c-0.3,9.667-0.45,16.233-0.45,19.7l-1.45,2
			c-0.366-9.5-0.233-17.417,0.4-23.75l0.05-24.65c0.267-4.333,0.117-9.583-0.45-15.75c-0.8-6.933-1.35-12.15-1.649-15.65
			L153.75,50.65z"/>
		<path style="fill-rule:evenodd;clip-rule:evenodd;fill:#AF6924;" d="M159.2,48.65c-0.066-1.867-0.05-3.55,0.05-5.05l0.1-2.3
			l1.5,2.65c-0.366,6.633,0.25,13.867,1.851,21.7c0.399,2.6,0.616,5,0.649,7.2l-0.25,2.75l0.45,30.5c-0.1,5.467-0.1,10.917,0,16.351
			v0.25l-0.8,1.55l-0.7-45c-0.166-3.1-0.683-8.25-1.55-15.45C159.7,57.333,159.267,52.283,159.2,48.65z"/>
		<path style="fill-rule:evenodd;clip-rule:evenodd;fill:#AF6924;" d="M163.55,63.1l0.851,4.8l0.05,5.5
			c0.133,4.9,0.35,12.467,0.649,22.7l0.101,22.851l-1.25,2.85c-0.167-5.733-0.134-10.6,0.1-14.6l-0.7-34.35
			c0.167-1.8,0.134-3.333-0.1-4.6l-0.55-2.6c-0.733-4.7-1.233-8.217-1.5-10.55c-0.434-4.067-0.467-7.65-0.101-10.75l1.351,2.55
			l-0.05,2c0.033,1.033,0.083,2.6,0.149,4.7c0.067,0.967,0.167,2.517,0.3,4.65C162.983,60.15,163.217,61.767,163.55,63.1z"/>
		<path style="fill-rule:evenodd;clip-rule:evenodd;fill:#AF6924;" d="M162.7,65.65l0.55,2.6c0.233,1.267,0.267,2.8,0.1,4.6
			C163.316,70.65,163.1,68.25,162.7,65.65z"/>
		<path style="fill-rule:evenodd;clip-rule:evenodd;fill:#AF6924;" d="M166.95,69.1l-0.05-5.7c-0.4-3.267-0.667-6.066-0.801-8.4
			c0.834,2.2,1.467,4.05,1.9,5.55l1.05,47.101l-1.45,4.899l-0.05-4.25c-0.033-1.733-0.033-3.483,0-5.25
			c0-2.366,0.033-4.133,0.101-5.3l-0.101-4.8C167.35,82.35,167.15,74.4,166.95,69.1z"/>
	</g>
	
		<linearGradient id="SVGID_13_" gradientUnits="userSpaceOnUse" x1="-172.3853" y1="85.875" x2="-0.6855" y2="85.875" gradientTransform="matrix(5.822417e-006 -1 1 -0.001 -1.609481e-004 4.683650e-004)">
		<stop  offset="0.0196" style="stop-color:#7F3A06"/>
		<stop  offset="0.1255" style="stop-color:#8E5524;stop-opacity:0.851"/>
		<stop  offset="0.3569" style="stop-color:#AD8965;stop-opacity:0.549"/>
		<stop  offset="0.5686" style="stop-color:#C6B39A;stop-opacity:0.3137"/>
		<stop  offset="0.7529" style="stop-color:#D8D0C0;stop-opacity:0.1412"/>
		<stop  offset="0.898" style="stop-color:#E3E3D8;stop-opacity:0.0353"/>
		<stop  offset="0.9882" style="stop-color:#E7E9E0;stop-opacity:0"/>
	</linearGradient>
	<path style="fill-rule:evenodd;clip-rule:evenodd;fill:url(#SVGID_13_);" d="M85.9,0.6c11.633,0,22.767,2.25,33.399,6.75
		c10.267,4.367,19.367,10.517,27.3,18.45c7.9,7.934,14.034,17.034,18.4,27.3c4.5,10.633,6.75,21.767,6.75,33.4
		c0,11.634-2.25,22.75-6.75,33.35c-4.366,10.267-10.5,19.367-18.4,27.301c-7.933,7.933-17.033,14.066-27.3,18.399
		c-10.633,4.5-21.767,6.75-33.399,6.75c-11.634,0-22.767-2.25-33.4-6.75c-10.267-4.333-19.367-10.467-27.3-18.399
		c-7.934-7.934-14.083-17.034-18.45-27.301C2.25,109.217,0,98.1,0,86.5c0-11.633,2.25-22.767,6.75-33.4
		c4.367-10.267,10.517-19.367,18.45-27.3c7.933-7.933,17.033-14.083,27.3-18.45C63.133,2.85,74.267,0.6,85.9,0.6z"/>
	<g>
		<g>
			
				<linearGradient id="SVGID_14_" gradientUnits="userSpaceOnUse" x1="-158.4351" y1="85.9512" x2="-13.4355" y2="85.9512" gradientTransform="matrix(6.895364e-006 -1 1 -0.001 2.366505e-004 4.683650e-004)">
				<stop  offset="0" style="stop-color:#EED9C2"/>
				<stop  offset="0.0863" style="stop-color:#E5CCB5;stop-opacity:0.8745"/>
				<stop  offset="0.3176" style="stop-color:#D0AE97;stop-opacity:0.5922"/>
				<stop  offset="0.5176" style="stop-color:#C39C84;stop-opacity:0.4196"/>
				<stop  offset="0.6549" style="stop-color:#BF967E;stop-opacity:0.3569"/>
				<stop  offset="1" style="stop-color:#582D22"/>
			</linearGradient>
			<path style="fill-rule:evenodd;clip-rule:evenodd;fill:url(#SVGID_14_);" d="M114.15,19.05c8.699,3.667,16.383,8.85,23.05,15.55
				c6.7,6.7,11.883,14.383,15.55,23.05c3.8,9,5.7,18.417,5.7,28.25c0,9.833-1.9,19.234-5.7,28.2
				c-3.667,8.7-8.85,16.384-15.55,23.051c-6.667,6.666-14.351,11.833-23.05,15.5c-8.967,3.8-18.367,5.699-28.2,5.699
				c-9.833,0-19.233-1.899-28.2-5.699c-8.7-3.667-16.383-8.834-23.05-15.5c-6.7-6.7-11.884-14.384-15.55-23.051
				c-3.8-8.966-5.7-18.366-5.7-28.2c0-9.833,1.9-19.25,5.7-28.25C22.816,48.983,28,41.3,34.7,34.6
				c6.667-6.7,14.35-11.883,23.05-15.55c8.967-3.8,18.367-5.7,28.2-5.7C95.783,13.35,105.184,15.25,114.15,19.05z"/>
		</g>
	</g>
	<g>
		
			<linearGradient id="SVGID_15_" gradientUnits="userSpaceOnUse" x1="-152.1353" y1="86.001" x2="-19.8354" y2="86.001" gradientTransform="matrix(7.555724e-006 -1 1 -0.001 2.190953e-004 4.683650e-004)">
			<stop  offset="0.0353" style="stop-color:#722F2A"/>
			<stop  offset="0.5843" style="stop-color:#E76267"/>
			<stop  offset="1" style="stop-color:#DCB574"/>
		</linearGradient>
		<path style="fill-rule:evenodd;clip-rule:evenodd;fill:url(#SVGID_15_);" d="M152.2,85.9c0,18.234-6.467,33.817-19.4,46.75
			c-12.933,12.933-28.533,19.399-46.8,19.399s-33.867-6.467-46.8-19.399c-12.934-12.934-19.4-28.517-19.4-46.75
			c0-18.233,6.467-33.816,19.4-46.75c12.933-12.933,28.533-19.4,46.8-19.4s33.867,6.467,46.8,19.4
			C145.733,52.083,152.2,67.667,152.2,85.9z"/>
		<path style="fill-rule:evenodd;clip-rule:evenodd;fill:#470B17;" d="M151.35,85.9c0-18.033-6.383-33.433-19.149-46.2
			C119.467,26.933,104.066,20.55,86,20.55c-18.033,0-33.434,6.383-46.2,19.15C27.033,52.467,20.65,67.867,20.65,85.9
			c0,18.034,6.383,33.433,19.15,46.2C52.533,144.833,67.934,151.2,86,151.2s33.467-6.367,46.2-19.101
			C144.967,119.333,151.35,103.934,151.35,85.9z M111.65,24c8.166,3.367,15.416,8.217,21.75,14.55
			c6.333,6.333,11.183,13.567,14.55,21.7c3.366,8.133,5.05,16.683,5.05,25.65c0,8.966-1.684,17.517-5.05,25.65
			c-3.367,8.167-8.217,15.4-14.55,21.7c-6.334,6.333-13.584,11.184-21.75,14.55c-8.167,3.4-16.717,5.101-25.65,5.101
			s-17.483-1.7-25.65-5.101c-8.133-3.366-15.383-8.217-21.75-14.55c-6.333-6.3-11.184-13.533-14.55-21.7
			C20.684,103.417,19,94.866,19,85.9c0-8.967,1.684-17.517,5.05-25.65c3.367-8.133,8.217-15.367,14.55-21.7
			C44.967,32.217,52.217,27.367,60.35,24c8.167-3.4,16.716-5.1,25.65-5.1S103.483,20.6,111.65,24z"/>
	</g>
	
		<use xlink:href="#FlashAICB_x2F_Layer_1_x2F__x3C_Path_x3E__x5F_1"  width="118.9" height="118.6" y="-118.6" transform="matrix(1 0 0 -1 26.5498 24.4502)" style="overflow:visible;opacity:0.9102;enable-background:new    ;"/>
	<g>
		<g>
			<path style="fill-rule:evenodd;clip-rule:evenodd;fill:#ECECEC;" d="M50.45,46.1c-0.634,0-1.134-0.2-1.5-0.6
				c-0.3-0.367-0.45-0.833-0.45-1.4c0-0.533,0.167-0.983,0.5-1.35c0.367-0.433,0.85-0.65,1.45-0.65h4.15c0.6,0,1.066,0.2,1.4,0.6
				c0.333,0.367,0.5,0.85,0.5,1.45v16.5c0,0.7-0.2,1.25-0.6,1.65c-0.4,0.4-0.917,0.6-1.55,0.6s-1.15-0.2-1.55-0.6
				c-0.4-0.4-0.6-0.95-0.6-1.65V46.1H50.45z"/>
			<path style="fill-rule:evenodd;clip-rule:evenodd;fill:#ECECEC;" d="M72.85,59.55c-1.367,2.367-3.383,3.55-6.05,3.55
				c-2.667,0-4.667-1.184-6-3.55c-1.1-1.933-1.65-4.316-1.65-7.15c0-2.8,0.55-5.167,1.65-7.1c1.333-2.367,3.333-3.55,6-3.55
				c2.667,0,4.684,1.183,6.05,3.55c1.1,1.934,1.65,4.3,1.65,7.1C74.5,55.233,73.95,57.617,72.85,59.55z M66.8,59.15
				c2.1,0,3.15-2.25,3.15-6.75c0-4.467-1.05-6.7-3.15-6.7c-2.1,0-3.15,2.233-3.15,6.7C63.65,56.9,64.7,59.15,66.8,59.15z"/>
			<path style="fill-rule:evenodd;clip-rule:evenodd;fill:#ECECEC;" d="M83.45,41.75c2.667,0,4.667,1.183,6,3.55
				c1.1,1.934,1.649,4.3,1.649,7.1c0,2.833-0.55,5.217-1.649,7.15c-1.333,2.367-3.333,3.55-6,3.55s-4.684-1.184-6.05-3.55
				c-1.1-1.933-1.65-4.316-1.65-7.15c0-2.8,0.55-5.167,1.65-7.1C78.767,42.933,80.783,41.75,83.45,41.75z M83.45,59.15
				c2.1,0,3.149-2.25,3.149-6.75c0-4.467-1.05-6.7-3.149-6.7c-2.134,0-3.2,2.233-3.2,6.7C80.25,56.9,81.316,59.15,83.45,59.15z"/>
			<path style="fill-rule:evenodd;clip-rule:evenodd;fill:#ECECEC;" d="M106.1,45.3c1.101,1.934,1.65,4.3,1.65,7.1
				c0,2.833-0.55,5.217-1.65,7.15c-1.366,2.367-3.383,3.55-6.05,3.55c-2.666,0-4.683-1.184-6.05-3.55
				c-1.1-1.933-1.65-4.316-1.65-7.15c0-2.8,0.551-5.167,1.65-7.1c1.367-2.367,3.384-3.55,6.05-3.55
				C102.717,41.75,104.733,42.933,106.1,45.3z M100.05,59.15c2.101,0,3.15-2.25,3.15-6.75c0-4.467-1.05-6.7-3.15-6.7
				c-2.1,0-3.149,2.233-3.149,6.7C96.9,56.9,97.95,59.15,100.05,59.15z"/>
			<path style="fill-rule:evenodd;clip-rule:evenodd;fill:#ECECEC;" d="M110.95,46.1c-1.434,0-2.15-0.667-2.15-2
				c0-1.333,0.717-2,2.15-2h10.45c0.666,0,1.199,0.25,1.6,0.75c0.333,0.433,0.5,0.883,0.5,1.35c0,0.4-0.217,1.033-0.65,1.9
				l-7.199,14.6c-0.434,0.9-0.767,1.466-1,1.7c-0.334,0.333-0.801,0.5-1.4,0.5c-0.733,0-1.333-0.233-1.8-0.7
				c-0.434-0.4-0.65-0.85-0.65-1.35c0-0.267,0.101-0.6,0.3-1l7.25-13.75H110.95z"/>
		</g>
		<g>
			
				<linearGradient id="SVGID_16_" gradientUnits="userSpaceOnUse" x1="-62.1035" y1="52.502" x2="-41.3285" y2="52.502" gradientTransform="matrix(4.813478e-005 -1 1 -0.001 8.158396e-005 4.674215e-004)">
				<stop  offset="0.2902" style="stop-color:#2F0102"/>
				<stop  offset="1" style="stop-color:#D2060E"/>
			</linearGradient>
			<path style="fill-rule:evenodd;clip-rule:evenodd;fill:url(#SVGID_16_);" d="M50.45,45.25c-0.634,0-1.134-0.217-1.5-0.65
				c-0.3-0.367-0.45-0.817-0.45-1.35c0-0.567,0.167-1.033,0.5-1.4c0.367-0.4,0.85-0.6,1.45-0.6h4.15c0.6,0,1.066,0.2,1.4,0.6
				c0.333,0.367,0.5,0.85,0.5,1.45v16.45c0,0.7-0.2,1.267-0.6,1.7c-0.4,0.4-0.917,0.6-1.55,0.6s-1.15-0.2-1.55-0.6
				c-0.4-0.434-0.6-1-0.6-1.7v-14.5H50.45z"/>
			
				<linearGradient id="SVGID_17_" gradientUnits="userSpaceOnUse" x1="-62.2666" y1="66.8271" x2="-40.9663" y2="66.8271" gradientTransform="matrix(4.694836e-005 -1 1 -0.001 2.288916e-004 4.674215e-004)">
				<stop  offset="0.2902" style="stop-color:#2F0102"/>
				<stop  offset="1" style="stop-color:#D2060E"/>
			</linearGradient>
			<path style="fill-rule:evenodd;clip-rule:evenodd;fill:url(#SVGID_17_);" d="M72.85,58.65c-1.367,2.367-3.383,3.55-6.05,3.55
				c-2.667,0-4.667-1.184-6-3.55c-1.1-1.933-1.65-4.3-1.65-7.1c0-2.833,0.55-5.2,1.65-7.1c1.333-2.367,3.333-3.55,6-3.55
				c2.667,0,4.684,1.184,6.05,3.55c1.1,1.9,1.65,4.267,1.65,7.1C74.5,54.35,73.95,56.717,72.85,58.65z M66.8,58.25
				c2.1,0,3.15-2.233,3.15-6.7c0-4.466-1.05-6.7-3.15-6.7c-2.1,0-3.15,2.233-3.15,6.7C63.65,56.017,64.7,58.25,66.8,58.25z"/>
			
				<linearGradient id="SVGID_18_" gradientUnits="userSpaceOnUse" x1="-62.2832" y1="83.4268" x2="-40.9829" y2="83.4268" gradientTransform="matrix(4.694836e-005 -1 1 -0.001 2.288916e-004 4.674215e-004)">
				<stop  offset="0.2902" style="stop-color:#2F0102"/>
				<stop  offset="1" style="stop-color:#D2060E"/>
			</linearGradient>
			<path style="fill-rule:evenodd;clip-rule:evenodd;fill:url(#SVGID_18_);" d="M83.45,40.9c2.667,0,4.667,1.184,6,3.55
				c1.1,1.9,1.649,4.267,1.649,7.1c0,2.8-0.55,5.167-1.649,7.1c-1.333,2.367-3.333,3.55-6,3.55s-4.684-1.184-6.05-3.55
				c-1.1-1.9-1.65-4.267-1.65-7.1c0-2.833,0.55-5.2,1.65-7.1C78.733,42.083,80.75,40.9,83.45,40.9z M83.45,58.25
				c2.1,0,3.149-2.233,3.149-6.7c0-4.466-1.05-6.7-3.149-6.7c-2.134,0-3.2,2.233-3.2,6.7C80.25,56.017,81.316,58.25,83.45,58.25z"/>
			
				<linearGradient id="SVGID_19_" gradientUnits="userSpaceOnUse" x1="-62.2998" y1="100.0518" x2="-40.9995" y2="100.0518" gradientTransform="matrix(4.694836e-005 -1 1 -0.001 2.288916e-004 4.674215e-004)">
				<stop  offset="0.2902" style="stop-color:#2F0102"/>
				<stop  offset="1" style="stop-color:#D2060E"/>
			</linearGradient>
			<path style="fill-rule:evenodd;clip-rule:evenodd;fill:url(#SVGID_19_);" d="M106.1,44.45c1.101,1.9,1.65,4.267,1.65,7.1
				c0,2.8-0.55,5.167-1.65,7.1c-1.366,2.367-3.383,3.55-6.05,3.55c-2.666,0-4.683-1.184-6.05-3.55c-1.1-1.933-1.65-4.3-1.65-7.1
				c0-2.833,0.551-5.2,1.65-7.1c1.367-2.367,3.384-3.55,6.05-3.55C102.717,40.9,104.733,42.083,106.1,44.45z M100.05,58.25
				c2.101,0,3.15-2.233,3.15-6.7c0-4.466-1.05-6.7-3.15-6.7c-2.1,0-3.149,2.233-3.149,6.7C96.9,56.017,97.95,58.25,100.05,58.25z"/>
			
				<linearGradient id="SVGID_20_" gradientUnits="userSpaceOnUse" x1="-62.1626" y1="116.1523" x2="-41.3876" y2="116.1523" gradientTransform="matrix(4.813478e-005 -1 1 -0.001 8.158396e-005 4.674215e-004)">
				<stop  offset="0.2902" style="stop-color:#2F0102"/>
				<stop  offset="1" style="stop-color:#D2060E"/>
			</linearGradient>
			<path style="fill-rule:evenodd;clip-rule:evenodd;fill:url(#SVGID_20_);" d="M110.95,45.25c-0.733,0-1.283-0.217-1.65-0.65
				c-0.333-0.367-0.5-0.817-0.5-1.35c0-1.333,0.717-2,2.15-2h10.45c0.666,0,1.199,0.25,1.6,0.75c0.333,0.4,0.5,0.833,0.5,1.3
				c0,0.367-0.217,1.017-0.65,1.95l-7.199,14.6c-0.434,0.9-0.767,1.467-1,1.7c-0.334,0.333-0.801,0.5-1.4,0.5
				c-0.733,0-1.333-0.25-1.8-0.75c-0.434-0.4-0.65-0.85-0.65-1.35c0-0.267,0.101-0.6,0.3-1l7.25-13.7H110.95z"/>
		</g>
	</g>
	<g>
		<path style="fill-rule:evenodd;clip-rule:evenodd;fill:#45260C;" d="M82.3,105.8h12.25l-5.8-9.85L82.3,105.8z M82.75,71
			c0-0.467,0.25-0.7,0.75-0.7h9.4c0.267,0,0.483,0.133,0.649,0.4l27.05,44.75c0.167,0.267,0.167,0.533,0,0.8l-0.3,0.3l-5.7,9.25
			c-0.166,0.233-0.383,0.351-0.649,0.351h-53.8l-0.4,0.1c-0.3,0-0.517-0.116-0.65-0.35h-0.05l-0.15-0.351l-4.3-7.3
			c-0.1-0.267-0.1-0.533,0-0.8L82.75,71z"/>
		<g>
			<path style="fill-rule:evenodd;clip-rule:evenodd;fill:#DFF39B;" d="M78.95,70.4c0.366-0.933,0.95-1.683,1.75-2.25
				c0.866-0.6,1.8-0.9,2.8-0.9h9.4c1.8,0,3.183,0.783,4.149,2.35l27.05,44.8c0.434,0.733,0.667,1.533,0.7,2.399
				c0,0.867-0.217,1.684-0.649,2.45c-0.233,0.4-0.467,0.717-0.7,0.95l-5.4,8.7c-0.967,1.533-2.333,2.3-4.1,2.3H60.8l-1.05,0.1
				c-1.6,0-2.883-0.633-3.85-1.899c-0.267-0.301-0.483-0.65-0.65-1.051l-4.15-7c-0.467-0.767-0.684-1.6-0.65-2.5
				c0-0.899,0.233-1.733,0.7-2.5L78.95,70.4z"/>
			<path style="fill-rule:evenodd;clip-rule:evenodd;fill:#F7E0E7;" d="M97.15,69.55l27.05,44.75c0.467,0.767,0.7,1.601,0.7,2.5
				c0,0.9-0.217,1.733-0.65,2.5l-6.1,9.65c-0.934,1.566-2.334,2.35-4.2,2.35H60.8c-0.3,0.101-0.65,0.15-1.05,0.15
				c-1.7-0.066-3.017-0.733-3.95-2c-0.233-0.233-0.45-0.584-0.65-1.05l-4.15-7c-0.467-0.801-0.684-1.65-0.65-2.551
				c0-0.933,0.233-1.783,0.7-2.55l27.8-45.95c0.367-0.967,0.983-1.733,1.85-2.3c0.833-0.6,1.767-0.9,2.8-0.9h9.4
				c0.866,0,1.683,0.217,2.449,0.65C96.117,68.233,96.717,68.817,97.15,69.55z"/>
		</g>
		<g>
			
				<linearGradient id="SVGID_21_" gradientUnits="userSpaceOnUse" x1="-130.4375" y1="87.6445" x2="-66.3375" y2="87.6445" gradientTransform="matrix(1.560062e-005 -1 1 -0.001 9.418789e-006 4.683650e-004)">
				<stop  offset="0.2824" style="stop-color:#AB3A48"/>
				<stop  offset="0.2863" style="stop-color:#AB3B48"/>
				<stop  offset="0.702" style="stop-color:#D88F62"/>
				<stop  offset="0.8941" style="stop-color:#E9B06C"/>
			</linearGradient>
			<path style="fill-rule:evenodd;clip-rule:evenodd;fill:url(#SVGID_21_);" d="M78.95,69.35c0.366-0.9,0.95-1.633,1.75-2.2
				c0.866-0.6,1.8-0.9,2.8-0.9h9.4c1.767,0,3.149,0.767,4.149,2.3l27.05,44.8c0.967,1.601,0.983,3.233,0.051,4.9l-0.7,0.95l-5.4,8.7
				c-1,1.533-2.366,2.3-4.1,2.3H60.8l-1.05,0.1c-1.6,0-2.883-0.649-3.85-1.95c-0.267-0.267-0.483-0.6-0.65-1l-4.15-7.05
				c-0.467-0.767-0.684-1.6-0.65-2.5c0-0.899,0.233-1.717,0.7-2.45L78.95,69.35z"/>
			<path style="fill-rule:evenodd;clip-rule:evenodd;fill:none;stroke:#F7E0E7;stroke-width:0.25;" d="M78.95,69.35l-27.8,46
				c-0.466,0.733-0.7,1.551-0.7,2.45c-0.034,0.9,0.183,1.733,0.65,2.5l4.15,7.05c0.167,0.4,0.383,0.733,0.65,1
				c0.967,1.301,2.25,1.95,3.85,1.95l1.05-0.1h53.15c1.733,0,3.1-0.767,4.1-2.3l5.4-8.7l0.7-0.95c0.933-1.667,0.916-3.3-0.051-4.9
				l-27.05-44.8c-1-1.533-2.383-2.3-4.149-2.3h-9.4c-1,0-1.934,0.3-2.8,0.9C79.9,67.717,79.316,68.45,78.95,69.35z"/>
		</g>
		<path style="fill-rule:evenodd;clip-rule:evenodd;fill:#470B17;" d="M82.3,105.8h12.25l-5.8-9.85L82.3,105.8z M82.75,71
			c0-0.467,0.25-0.7,0.75-0.7h9.4c0.267,0,0.483,0.133,0.649,0.4l27.05,44.75c0.167,0.267,0.167,0.533,0,0.8l-0.3,0.3l-5.7,9.25
			c-0.166,0.233-0.383,0.351-0.649,0.351h-53.8l-0.4,0.1c-0.3,0-0.517-0.116-0.65-0.35h-0.05l-0.15-0.351l-4.3-7.3
			c-0.1-0.267-0.1-0.533,0-0.8L82.75,71z"/>
		<g>
			
				<use xlink:href="#FlashAICB_x2F_Layer_1_x2F__x3C_Clip_Group_0_x3E__x5F_2"  width="60.15" height="44" y="-44" transform="matrix(1 0 0 -1 59.6499 81.3999)" style="overflow:visible;"/>
			
				<use xlink:href="#FlashAICB_x2F_Layer_1_x2F__x3C_Clip_Group_0_x3E__x5F_1"  width="84.9" height="84.8" y="-84.8" transform="matrix(1 0 0 -1 54.7998 51.0498)" style="overflow:visible;"/>
			
				<use xlink:href="#FlashAICB_x2F_Layer_1_x2F__x3C_Clip_Group_0_x3E_"  width="99.1" height="99.5" y="-99.5" transform="matrix(1 0 0 -1 30.6499 48.5)" style="overflow:visible;"/>
			<g>
				
					<use xlink:href="#FlashAICB_x2F_Layer_1_x2F__x3C_Group_x3E_"  width="25.25" height="35.6" y="-35.6" transform="matrix(1 0 0 -1 79.8501 71.1001)" style="overflow:visible;opacity:0.7188;enable-background:new    ;"/>
			</g>
		</g>
	</g>
	
		<use xlink:href="#FlashAICB_x2F_Layer_1_x2F__x3C_Path_x3E_"  width="118.7" height="57.05" y="-57.05" transform="matrix(1 0 0 -1 26.6499 86)" style="overflow:visible;opacity:0.2813;enable-background:new    ;"/>
	<g>
		
			<use xlink:href="#FlashAICB_x2F_Layer_1_x2F__x3C_Path_x3E__x5F_1_x5F_0"  width="110" height="55.75" y="-55.75" transform="matrix(1 0 0 -1 31 27.2002)" style="overflow:visible;opacity:0.1094;enable-background:new    ;"/>
		
			<use xlink:href="#FlashAICB_x2F_Layer_1_x2F__x3C_Path_x3E__x5F_0"  width="110" height="61.294" y="-61.294" transform="matrix(1 0 0 -1 31 27.2002)" style="overflow:visible;opacity:0.0898;enable-background:new    ;"/>
	</g>
</g>
</svg>
