<?xml version="1.0" encoding="iso-8859-1"?>
<!-- Generator: Adobe Illustrator 15.1.0, SVG Export Plug-In . SVG Version: 6.00 Build 0)  -->
<!DOCTYPE svg PUBLIC "-//W3C//DTD SVG 1.1//EN" "http://www.w3.org/Graphics/SVG/1.1/DTD/svg11.dtd">
<svg version="1.1" id="Layer_1" xmlns="http://www.w3.org/2000/svg" xmlns:xlink="http://www.w3.org/1999/xlink" x="0px" y="0px"
	 width="171.85px" height="172.35px" viewBox="0 0 171.85 172.35" style="enable-background:new 0 0 171.85 172.35;"
	 xml:space="preserve">
<symbol  id="FlashAICB_x2F_Layer_1_x2F__x3C_Clip_Group_0_x3E_" viewBox="0 -33.5 27.15 33.5">
	<g id="Layer_1_3_">
	</g>
	<g>
		<defs>
			<polygon id="SVGID_1_" points="0,0 0,-33.5 27.15,-33.5 27.15,0 			"/>
		</defs>
		<clipPath id="SVGID_2_">
			<use xlink:href="#SVGID_1_"  style="overflow:visible;"/>
		</clipPath>
		<g id="Layer_3_2_" style="clip-path:url(#SVGID_2_);">
			<path style="fill-rule:evenodd;clip-rule:evenodd;fill:#FFFFFF;" d="M27.15-33.5L0-17.95c6.7-3.667,12.1-6.25,16.2-7.75
				c5.233-1.933,7.85-1.85,7.85,0.25c0,0.434,0.35,3.767,1.05,10C25.933-8.283,26.483-3.133,26.75,0l0.4-0.25V-33.5z"/>
		</g>
	</g>
	<g id="Layer_4_2_">
	</g>
</symbol>
<symbol  id="FlashAICB_x2F_Layer_1_x2F__x3C_Clip_Group_0_x3E__x5F_0" viewBox="0 -73.6 72.85 73.6">
	<g id="Layer_1_5_">
	</g>
	<g>
		<defs>
			<polygon id="SVGID_3_" points="21.55,-28.7 21.55,-61.95 51.3,-44.9 51.3,-11.65 			"/>
		</defs>
		<clipPath id="SVGID_4_">
			<use xlink:href="#SVGID_3_"  style="overflow:visible;"/>
		</clipPath>
		<g id="Layer_3_4_" style="clip-path:url(#SVGID_4_);">
			<linearGradient id="SVGID_5_" gradientUnits="userSpaceOnUse" x1="19.7715" y1="-28.1084" x2="49.1715" y2="-43.4084">
				<stop  offset="0" style="stop-color:#2961DB"/>
				<stop  offset="1" style="stop-color:#38A1FE"/>
			</linearGradient>
			<polygon style="fill-rule:evenodd;clip-rule:evenodd;fill:url(#SVGID_5_);" points="27.9,0 72.85,-22.35 44.95,-73.6 0,-51.2 			
				"/>
		</g>
	</g>
	<g id="Layer_4_4_">
	</g>
</symbol>
<symbol  id="FlashAICB_x2F_Layer_1_x2F__x3C_Clip_Group_0_x3E__x5F_1" viewBox="0 -80.2 87.8 80.2">
	<g id="Layer_1_4_">
	</g>
	<g>
		<defs>
			<polygon id="SVGID_6_" points="43.9,-23.6 14.45,-39.15 43.6,-56.2 43.6,-56.55 43.9,-56.4 44.2,-56.55 44.2,-56.2 73.35,-39.15 
							"/>
		</defs>
		<clipPath id="SVGID_7_">
			<use xlink:href="#SVGID_6_"  style="overflow:visible;"/>
		</clipPath>
		<g id="Layer_3_3_" style="clip-path:url(#SVGID_7_);">
			<linearGradient id="SVGID_8_" gradientUnits="userSpaceOnUse" x1="35.7627" y1="-55.0498" x2="52.0377" y2="-25.1498">
				<stop  offset="0" style="stop-color:#2961DB"/>
				<stop  offset="1" style="stop-color:#3BAEFE"/>
			</linearGradient>
			<polygon style="fill-rule:evenodd;clip-rule:evenodd;fill:url(#SVGID_8_);" points="27.9,0 87.8,-31.15 59.9,-80.2 0,-49.05 			
				"/>
		</g>
	</g>
	<g id="Layer_4_3_">
	</g>
</symbol>
<symbol  id="FlashAICB_x2F_Layer_1_x2F__x3C_Clip_Group_0_x3E__x5F_2" viewBox="0 -50.3 29.75 50.3">
	<g id="Layer_1_2_">
	</g>
	<g>
		<defs>
			<polygon id="SVGID_9_" points="0,0 0,-33.25 29.75,-50.3 29.75,-17.05 			"/>
		</defs>
		<clipPath id="SVGID_10_">
			<use xlink:href="#SVGID_9_"  style="overflow:visible;"/>
		</clipPath>
		<g id="Layer_3_1_" style="clip-path:url(#SVGID_10_);">
			<linearGradient id="SVGID_11_" gradientUnits="userSpaceOnUse" x1="0.1001" y1="-25.1499" x2="29.7001" y2="-25.1499">
				<stop  offset="0" style="stop-color:#2961DB"/>
				<stop  offset="1" style="stop-color:#38A1FE"/>
			</linearGradient>
			<polygon style="fill-rule:evenodd;clip-rule:evenodd;fill:url(#SVGID_11_);" points="29.75,0 29.75,-50.3 0,-50.3 0,0 			"/>
		</g>
	</g>
	<g id="Layer_4_1_">
	</g>
</symbol>
<symbol  id="FlashAICB_x2F_Layer_1_x2F__x3C_Group_x3E_" viewBox="0 -33.5 27.15 33.5">
	<g id="Layer_1_9_">
		<g>
			
				<use xlink:href="#FlashAICB_x2F_Layer_1_x2F__x3C_Clip_Group_0_x3E_"  width="27.15" height="33.5" y="-33.5" style="overflow:visible;"/>
		</g>
	</g>
</symbol>
<symbol  id="FlashAICB_x2F_Layer_1_x2F__x3C_Path_x3E_" viewBox="0 -57.1 118.65 57.1">
	<g id="Layer_1_6_">
		
			<radialGradient id="SVGID_12_" cx="59.3252" cy="-28.5498" r="46.554" gradientTransform="matrix(1 0 0 -1 0 -57.0996)" gradientUnits="userSpaceOnUse">
			<stop  offset="0" style="stop-color:#CCEFE7;stop-opacity:0"/>
			<stop  offset="0.0667" style="stop-color:#C7E4E0;stop-opacity:0.051"/>
			<stop  offset="0.1804" style="stop-color:#BCC7CD;stop-opacity:0.1882"/>
			<stop  offset="0.3294" style="stop-color:#A999AF;stop-opacity:0.4118"/>
			<stop  offset="0.5059" style="stop-color:#905885;stop-opacity:0.7176"/>
			<stop  offset="0.651" style="stop-color:#7A1960"/>
		</radialGradient>
		<path style="fill-rule:evenodd;clip-rule:evenodd;fill:url(#SVGID_12_);" d="M95.45-30.35c10.733,7.7,18.3,17.733,22.7,30.1
			l0.5,0.25c-0.566-15.9-6.6-29.383-18.1-40.45C89.05-51.55,75.3-57.1,59.3-57.1c-15.733,0-29.316,5.367-40.75,16.1
			C7.183-30.333,1-17.233,0-1.7c4.6-12,12.183-21.683,22.75-29.05C33.55-38.317,45.567-42.1,58.8-42.1
			C72.3-42.1,84.517-38.183,95.45-30.35z"/>
	</g>
</symbol>
<symbol  id="FlashAICB_x2F_Layer_1_x2F__x3C_Path_x3E__x5F_0" viewBox="0 -61.294 110.05 61.294">
	<g id="Layer_1_8_">
		<path style="fill-rule:evenodd;clip-rule:evenodd;fill:#FFFFFF;" d="M106.5-34.35c2.367-5.633,3.55-10.95,3.55-15.95
			c0-4.967-1.45-8.083-4.35-9.35c-2.333-1.067-6.25-1.05-11.75,0.05c-7.3,1.767-13.133,3.117-17.5,4.05
			C68.417-53.85,61.267-53,55-53c-6.3,0-13.433-0.917-21.4-2.75c-8.333-2.2-14.167-3.683-17.5-4.45
			c-5.533-1.267-9.45-1.433-11.75-0.5C1.45-59.5,0-56.433,0-51.5c0,5.467,1.167,11.117,3.5,16.95C5.967-28.383,9.45-22.8,13.95-17.8
			C24.65-5.933,38.333,0,55,0c16.467,0,30.15-5.983,41.05-17.95C100.517-22.883,104-28.35,106.5-34.35z"/>
	</g>
</symbol>
<symbol  id="FlashAICB_x2F_Layer_1_x2F__x3C_Path_x3E__x5F_1" viewBox="0 -55.8 110.05 55.8">
	<g id="Layer_1_7_">
		
			<linearGradient id="SVGID_13_" gradientUnits="userSpaceOnUse" x1="16164.3076" y1="-52.8804" x2="16220.0527" y2="-52.8804" gradientTransform="matrix(1.792918e-005 1 -1 -0.001 1.8545 -16220.1055)">
			<stop  offset="0.1294" style="stop-color:#E2B8B2"/>
			<stop  offset="0.9255" style="stop-color:#FFFFFF"/>
		</linearGradient>
		<path style="fill-rule:evenodd;clip-rule:evenodd;fill:url(#SVGID_13_);" d="M96.05-17.95c4.467-4.933,7.95-10.4,10.45-16.4
			c2.367-5.633,3.55-10.95,3.55-15.95c0-1.567-0.167-3.05-0.5-4.45c-1.867,11.067-7.267,20.9-16.2,29.5
			C82.783-15.117,70-10.05,55-10.05c-15.233,0-28.067-5.05-38.5-15.15C7.533-33.933,2.183-44.133,0.45-55.8
			C0.15-54.6,0-53.167,0-51.5c0,5.467,1.167,11.117,3.5,16.95C5.967-28.383,9.45-22.8,13.95-17.8C24.65-5.933,38.333,0,55,0
			C71.467,0,85.15-5.983,96.05-17.95z"/>
	</g>
</symbol>
<g>
	<g>
		<path style="fill-rule:evenodd;clip-rule:evenodd;fill:#D99E58;" d="M151.85,30.9c0.867,1,1.834,2.2,2.9,3.6
			c-0.533,4.067-0.967,7.133-1.3,9.2c0,0.833-0.05,1.983-0.15,3.45c-0.033,1.3,0.117,2.467,0.45,3.5l0.4,5.2
			c0.3,3.5,0.85,8.717,1.649,15.65c0.567,6.167,0.717,11.417,0.45,15.75l-0.05,24.7c-0.634,6.3-0.767,14.233-0.4,23.8
			c-0.866,1.233-1.866,2.55-3,3.95c-0.3-6-0.467-10.783-0.5-14.351c-0.066-5.267,0.117-10.033,0.55-14.3l0.051-27.6
			c-0.067-2.934-0.267-6.883-0.601-11.85c-0.433-5.867-0.7-9.767-0.8-11.7l-0.45-4.9C150.884,48.967,151.15,40.934,151.85,30.9z"/>
		<path style="fill-rule:evenodd;clip-rule:evenodd;fill:#D99E58;" d="M71.05,1.3v13c-0.167,5.833-0.2,16.45-0.1,31.85
			c0.066,13.534-0.083,24.167-0.45,31.9c-0.267,11.2-0.434,28.2-0.5,51l0.35,21.4c0.167,3.833,0.55,9.649,1.15,17.45
			c0.033,0.6,0.083,1.483,0.15,2.649L68.8,170c0.067-2.366,0.034-5.184-0.1-8.45c-0.2-3.767-0.35-6.649-0.45-8.649l-0.7-15.25
			c-0.667-14.4-0.65-35.233,0.05-62.5c0.733-28.1,0.85-48.867,0.35-62.3c-0.2-1.934-0.317-3.383-0.35-4.35
			c-0.034-1.433-0.034-2.883,0-4.35c0.2-1.333,0.3-2.083,0.3-2.25L71.05,1.3z"/>
		<path style="fill-rule:evenodd;clip-rule:evenodd;fill:#D99E58;" d="M104.85,35.2l0.351-33l4.6,1.15l-0.399,26.8
			c-0.033,4.867-0.051,12.167-0.051,21.9c-0.033,8.567-0.232,15.9-0.6,22l-0.3,4.9c-0.033,0.466-0.217,2.2-0.55,5.2
			c-0.267,2.1-0.301,3.833-0.101,5.2c0,2.834,0.15,6.417,0.45,10.75l0.3,3.601c1.267,8.2,1.65,18.8,1.15,31.8
			c-0.733,18.267-1.066,28.917-1,31.95v1.2l-2.851,0.75l0.051-3.301c1.399-13.966,2.199-23.433,2.399-28.399
			c0.367-10.667-0.333-20.066-2.1-28.2c-0.533-2.066-0.967-3.616-1.3-4.65c-0.4-1.399-0.9-2.983-1.5-4.75
			c-0.733-2-0.667-4.699,0.199-8.1c1.034-4.066,1.5-6.867,1.4-8.4l0.3-4.8c0.4-5.633,0.45-12.85,0.15-21.65
			C105.05,44.917,104.85,37.6,104.85,35.2z"/>
		<path style="fill-rule:evenodd;clip-rule:evenodd;fill:#D99E58;" d="M80.75,0.15l0.05,20.7c0,26.233-0.066,45.867-0.2,58.9
			c-0.233,21.7-0.7,41.316-1.4,58.85c0,2.034,0.033,3.551,0.1,4.551c0.134,2,0.267,3.517,0.4,4.55l0.3,4.649
			c0.434,5.9,0.6,10.517,0.5,13.851l-0.15,5.35l-2.35-0.2l-0.05-0.8c-0.4-4.2-0.667-7.283-0.8-9.25l-0.2-3.1
			c-0.067-3.033-0.167-5.084-0.3-6.15L76.6,137.4c0.633-26.5,1.066-46.367,1.3-59.601c0.4-22.966,0.4-42.833,0-59.6V0.35L80.75,0.15
			z"/>
		<path style="fill-rule:evenodd;clip-rule:evenodd;fill:#D99E58;" d="M142.45,40.75c-0.7-7.2-1.134-12.6-1.3-16.2l-0.301-4.65
			c1.634,1.333,3.4,2.917,5.301,4.75c0.267,18.667,0.399,29.133,0.399,31.4l-0.35,30.5c0.167,3.5,0.283,7.45,0.35,11.851l-0.05,8.05
			c-0.866,11.733-1.1,25.383-0.7,40.95c-2,1.899-3.783,3.5-5.35,4.8c-0.267-4.3-0.684-9.384-1.25-15.25
			c-0.566-4.5-0.566-10.066,0-16.7c0.934-10.634,1.417-16.217,1.45-16.75l0.199-4.9c0.067-1.633,0.067-3.267,0-4.899L140.9,90
			c0.066-4.3,0.033-8.017-0.101-11.15l0.2-3.4c0-0.233,0.35-4.8,1.05-13.7l0.3-4.7C142.884,52.65,142.917,47.217,142.45,40.75z"/>
		<path style="fill-rule:evenodd;clip-rule:evenodd;fill:#D99E58;" d="M76.8,0.45l0.05,16.85c0.233,17.7,0.183,37.45-0.15,59.25
			c-0.233,13.8-0.684,33.55-1.35,59.25c-0.034,2.033-0.034,4.066,0,6.101c0.1,4,0.15,6.017,0.15,6.05l0.3,4.6
			c0.134,2.066,0.333,5.15,0.6,9.25c0.2,3.634,0.333,6.7,0.4,9.2v0.25l-4.15-0.55c-0.066-2.733-0.466-9.584-1.2-20.55L71,138.35
			c0-14.366,0.25-39.449,0.75-75.25L72,59.9c0.367-4,0.55-8.483,0.55-13.45c-0.033-2.667-0.15-7.133-0.35-13.4l0.2-16.6
			c0-1.8-0.05-3.684-0.15-5.65V1.1L76.8,0.45z"/>
		<path style="fill-rule:evenodd;clip-rule:evenodd;fill:#D99E58;" d="M149.25,92.95l-0.1-8.9c0-2.6-0.167-10.4-0.5-23.4l-0.15-5.2
			c0-2,0.134-11.317,0.4-27.95l2.3,2.6c-0.467,9.267-0.7,16.233-0.7,20.9l0.2,5.05c0.066,1.467,0.283,5.867,0.649,13.2
			c0.268,5.367,0.434,9.767,0.5,13.2l-0.149,24.8c-0.033,3.733-0.134,9.4-0.3,17c-0.134,6.733-0.134,12.45,0,17.15l-2.65,2.949
			c-0.333-7.533-0.483-13.783-0.45-18.75c0.067-6.833,0.45-13.083,1.15-18.75c0.1-1.5,0.149-3,0.149-4.5
			c0.067-1.566,0.067-3.133,0-4.699C149.533,95.917,149.417,94.35,149.25,92.95z"/>
		<path style="fill-rule:evenodd;clip-rule:evenodd;fill:#D99E58;" d="M168,60.5c2.566,8.267,3.85,16.717,3.85,25.35
			c0,7.333-0.933,14.6-2.8,21.8L168,60.5z"/>
		<path style="fill-rule:evenodd;clip-rule:evenodd;fill:#D99E58;" d="M62.65,23.1c0.434-2.267,0.25-4.85-0.55-7.75
			c-1.067-3.267-1.85-5.7-2.35-7.3c-0.267-1.1-0.483-2.35-0.65-3.75l2.55-0.8l0.05,1.95c0.066,1.133,0.216,2.25,0.45,3.35
			c1.333,6.567,2,13.784,2,21.65c-0.533,17.933-0.9,31.4-1.1,40.4c-0.533-10.567-0.9-18.5-1.1-23.8
			C61.55,37.684,61.783,29.7,62.65,23.1z"/>
		<path style="fill-rule:evenodd;clip-rule:evenodd;fill:#D99E58;" d="M53.95,15.65c-1.567-3.533-2.65-6.216-3.25-8.05
			c2.2-1,4.633-1.983,7.3-2.95l0.05,0.75c-0.1,2.3,0.567,6.067,2,11.3c1.3,4.7,1.684,8.466,1.15,11.3
			c-0.333,1.467-0.9,3.667-1.7,6.6c-0.6,2.566-0.684,4.783-0.25,6.65c1.633,10.367,2.267,22.684,1.9,36.95
			c-0.233,8.167-0.716,20.383-1.45,36.649c0,2.367,0.333,6.051,1,11.051c0.633,4.866,0.933,8.583,0.9,11.149
			c0.033,1.134,0.017,2.834-0.05,5.101c-0.233,3.6-0.4,7.899-0.5,12.899c-0.066,2.9-0.133,7.217-0.2,12.95
			c-2.233-0.667-4.5-1.467-6.8-2.4c0.434-5.566,0.75-9.733,0.95-12.5c0.333-4.866,0.533-9.033,0.6-12.5l0.05-4.3
			c-0.066-1.633-0.683-6.017-1.85-13.149c-0.866-5.4-1.017-9.801-0.45-13.2c1.733-10.566,2.367-21.15,1.9-31.75l0.05-1.65
			c0-2.667-0.283-5.667-0.85-9c-0.7-6.9-1.884-14.316-3.55-22.25l-0.5-5.55c-0.133-1.333-0.133-2.75,0-4.25l0.4-1.25
			c0.2-0.6,0.917-2.267,2.15-5c0.9-2.1,1.517-3.833,1.85-5.2C55.367,21.617,55.083,18.817,53.95,15.65z"/>
		<path style="fill-rule:evenodd;clip-rule:evenodd;fill:#D99E58;" d="M163.55,63.05c-0.333-1.333-0.566-2.95-0.7-4.85
			c-0.133-2.133-0.232-3.684-0.3-4.65c0-0.066-0.05-1.633-0.149-4.7l0.05-2c1.3,2.566,2.517,5.283,3.649,8.15
			c0.134,2.333,0.4,5.133,0.801,8.4l0.05,5.7c0.2,5.3,0.399,13.25,0.6,23.85l0.101,4.75c-0.067,1.166-0.101,2.934-0.101,5.3
			c-0.033,1.767-0.033,3.533,0,5.3l0.05,4.2c-0.732,2.233-1.533,4.366-2.399,6.4L165.1,96.1c-0.3-10.266-0.517-17.85-0.649-22.75
			l-0.05-5.5L163.55,63.05z"/>
		<path style="fill-rule:evenodd;clip-rule:evenodd;fill:#D99E58;" d="M63.25,7.25c-0.233-0.933-0.233-2.217,0-3.85l0.05-0.35
			c0.3-0.1,1.467-0.4,3.5-0.9C66.533,3.85,66.434,5.8,66.5,8c0.033,1.3,0.133,2.633,0.3,4c0.5,2.167,0.75,5.533,0.75,10.1
			c0,6.867-0.267,26.5-0.8,58.9c-0.434,24.066-0.4,43.767,0.1,59.1l0.2,10.101c-0.167,2.566-0.15,5.816,0.05,9.75
			c0.333,5.967,0.5,9.233,0.5,9.8l-2.95-0.7L64.6,136c0-2.167-0.15-5.283-0.45-9.35c-0.333-4.101-0.5-7.217-0.5-9.351
			c-0.133-7.533,0.067-21.6,0.6-42.2c0.467-17.8,0.434-31.867-0.1-42.2c0-0.633,0.184-1.45,0.55-2.45
			c0.433-1.133,0.733-1.95,0.9-2.45c0.2-2.8-0.017-6.25-0.65-10.35C64.117,13.05,63.55,9.583,63.25,7.25z"/>
		<path style="fill-rule:evenodd;clip-rule:evenodd;fill:#D99E58;" d="M127.7,35c-0.2-11.2-0.316-19.316-0.351-24.35
			c1.934,1.034,4.101,2.35,6.5,3.95c0.034,2.267,0.134,4.55,0.301,6.85c0.333,7.2,1.1,13.683,2.3,19.45
			c0.533,4.767,0.667,9.217,0.399,13.35c-0.066,0.267-0.333,1.35-0.8,3.25c-0.333,1.3-0.566,2.367-0.7,3.2
			c-0.199,1.033-0.433,2.7-0.699,5c-0.2,1.333-0.351,2.7-0.45,4.1l-0.351,4.1c-0.133,1.934-0.133,4.25,0,6.95
			c0.034,1.5,0.117,3.733,0.25,6.7l0.051,3.15l-1.7,9.25c-3.867,18.5-3.867,36.649,0,54.45l0.7,3.199
			c-2.7,1.767-5.15,3.2-7.351,4.301l-0.8-4.851c-0.4-1.866-0.767-4-1.1-6.399c-0.467-5.567-0.801-10.733-1-15.5
			c-0.033-6.567,0.483-14.5,1.55-23.801c1.333-10.399,2.25-18.199,2.75-23.399l0.3-3.9c0.267-4.233,0.333-8.15,0.2-11.75l0.3-12.9
			C128,53.667,127.9,45.533,127.7,35z"/>
		<path style="fill-rule:evenodd;clip-rule:evenodd;fill:#D99E58;" d="M100.2,1.2c0.066,8.1,0.233,14.733,0.5,19.9l0.2,16.6
			c0.033,4.466,0.083,11.05,0.149,19.75c-0.066,7.5-0.383,14.117-0.95,19.85l-0.25,5.15c-0.166,2.867-0.433,7.25-0.8,13.149
			l0.05,4.4l1.5,4.05c0.567,1.467,1.117,3.05,1.65,4.75c0.434,1.434,0.85,3.033,1.25,4.8c1.033,6.667,1.217,14.217,0.55,22.65
			c-0.433,5.033-1.467,12.616-3.1,22.75c-0.533,3.233-0.4,6.2,0.399,8.9l0.45,2.35l-0.95,0.2c-0.433-2.467-0.716-4.75-0.85-6.851
			c-0.133-1.3-0.2-2.783-0.2-4.449L101,152c1.7-10.333,2.634-17.967,2.8-22.9c0.3-8.8-0.916-16.35-3.649-22.649l-1.801-5.3
			c-0.232-1.367-0.433-2.801-0.6-4.301c-0.434-4.666-0.05-9.216,1.15-13.649l0.35-4.8c0.667-12.767,0.75-26.633,0.25-41.6
			l-0.4-22.05c-0.133-3.066-0.267-7.667-0.399-13.8L100.2,1.2z"/>
		<path style="fill-rule:evenodd;clip-rule:evenodd;fill:#D99E58;" d="M98.4,154.775l0.25-5.575
			c0.833-8.967,1.233-16.066,1.199-21.3c0-7.801-0.75-14.834-2.25-21.101c-0.399-1.899-0.816-3.6-1.25-5.1l-0.55-3.45
			c-0.533-3.667-0.616-7.184-0.25-10.55l0.75-13.8c0.567-8.7,0.733-19.583,0.5-32.65l-0.1-4.4c-0.233-9.667-0.617-19.983-1.15-30.95
			l-0.2-5.4l2.75,0.35l0.25,35.25c0.167,15.8,0.018,29-0.449,39.6l-0.851,8.75c-0.566,4.033-0.6,8.399-0.1,13.1
			c0.167,1.467,0.366,2.917,0.6,4.351l1.05,4.8c1.934,8.467,3.034,15.934,3.301,22.399c0.3,8.301-0.667,15.817-2.9,22.551
			C98.682,152.582,98.481,153.624,98.4,154.775z M98.375,155.125c-0.005,0.086-0.005,0.169,0,0.25
			c-0.011,0.149-0.02,0.299-0.025,0.45c0.006-0.151,0.015-0.301,0.025-0.45C98.37,155.294,98.37,155.211,98.375,155.125z
			 M98.35,155.825c0,0.074,0,0.149,0,0.225c-0.033,0.967-0.033,2.367,0,4.2c0,1.3,0.051,2.6,0.15,3.9c0.2,1.966,0.566,4.133,1.1,6.5
			l-0.75,0.1c-0.433-2.767-0.699-5.667-0.8-8.7L98.35,155.825z"/>
		<path style="fill-rule:evenodd;clip-rule:evenodd;fill:#D99E58;" d="M117.15,27.6c0.267-9.6,0.416-16.783,0.449-21.55
			c1.834,0.733,3.483,1.45,4.95,2.15c0,0.7-0.149,7.8-0.45,21.3c-0.199,8.533-0.216,15.65-0.05,21.35L121.7,74.4
			c0.1,1.3,0.116,2.784,0.05,4.45l-0.25,4.5c-0.633,8.534-1.616,21.183-2.95,37.95c-0.767,14.4-0.416,27.134,1.05,38.2
			c0.134,1.7,0.018,3.533-0.35,5.5c-0.967,0.434-2.45,1.017-4.45,1.75c0.2-1.934,0.317-3.366,0.351-4.3c0.1-6,0.283-19.5,0.55-40.5
			c0.167-16.733,0.399-30.25,0.7-40.55c0.066-1.333,0.166-2.65,0.3-3.95l0.25-3.95c0.267-5.6,0.366-12.117,0.3-19.55v-4.7
			C117.017,43.45,116.983,36.233,117.15,27.6z"/>
		<path style="fill-rule:evenodd;clip-rule:evenodd;fill:#D99E58;" d="M114.8,47.8l0.05-3.4c0.167-7.066,0.284-20.167,0.351-39.3
			l1.35,0.55c0,0.533-0.133,7.3-0.399,20.3c-0.167,8.233-0.15,15.033,0.05,20.4l-0.05,4.1c-0.2,8.466-0.5,15.283-0.9,20.45
			l-0.7,9.25c-0.633,10.567-0.983,25.534-1.05,44.9c-0.3-11.066-0.217-20.217,0.25-27.45l0.05-3.699c0.167-6.867,0.384-13,0.65-18.4
			l0.3-10.4C114.684,58.733,114.7,52.967,114.8,47.8z"/>
		<path style="fill-rule:evenodd;clip-rule:evenodd;fill:#D99E58;" d="M110.55,30.15l0.101-5.55c0.166-6.934,0.267-13.9,0.3-20.9
			l3.3,1.1V7c0.167,3.934,0.134,9.383-0.1,16.35c-0.267,8.033-0.384,13.533-0.351,16.5l-0.05,5.45c-0.1,6.367-0.167,10-0.2,10.9
			l-0.149,5.4c-0.101,4-0.283,8.533-0.551,13.6l-0.3,4.5c-0.366,4.833-0.517,10.3-0.45,16.399l0.051,3.25
			c0.033,7.134,0.3,17.884,0.8,32.25c0.3,12.867,0.033,23.65-0.8,32.351l-0.2,3.45l-0.05,0.3c-0.801,0.3-1.65,0.55-2.551,0.75
			L109.4,167c0.933-14.866,1.467-25.783,1.6-32.75c0.233-12.167-0.233-23.017-1.4-32.55l-0.25-3.25
			c-0.399-6.167-0.449-11.583-0.149-16.25l0.35-5.25C110.717,58.65,111.05,43.05,110.55,30.15z"/>
		<path style="fill-rule:evenodd;clip-rule:evenodd;fill:#D99E58;" d="M101.9,32.35l-0.051-11.2c-0.066-4.367-0.066-10.917,0-19.65
			l1.25,0.2c-0.166,9.566-0.05,17.667,0.351,24.3l0.1,5.9c0.134,5.4,0.367,13.467,0.7,24.2c0.066,9.233-0.5,17.15-1.7,23.75
			c-0.2,1.733-0.35,3.45-0.45,5.15c-0.232,1.767-0.383,3.517-0.449,5.25c0.199,3.033,0.649,6.583,1.35,10.65l0.95,5.3
			c0.5,1.733,0.883,3.3,1.149,4.7c1.567,8.066,2.018,17.633,1.351,28.699c-0.4,6.367-1.233,15.884-2.5,28.551l0.05,1.699h-0.1
			l-0.2-2.05c-0.333-1.2-0.483-2.666-0.45-4.399c0.1-1.934,0.15-3.4,0.15-4.4c1.233-10.467,2.017-18.3,2.35-23.5
			c0.566-9,0.167-16.783-1.2-23.35c-0.3-1.334-0.733-2.851-1.3-4.551c-0.533-1.6-1.133-3.267-1.8-5
			c-0.434-1.5-0.733-3.316-0.9-5.449c-0.033-0.4-0.116-2.217-0.25-5.45l0.8-11.35c1.101-6.133,1.534-14.05,1.301-23.75
			C102.033,42.2,101.867,34.117,101.9,32.35z"/>
		<path style="fill-rule:evenodd;clip-rule:evenodd;fill:#D99E58;" d="M137.75,36.6c-0.9-9.167-1.55-16.05-1.95-20.65
			c2.134,1.6,3.533,2.683,4.2,3.25c0.233,7.566,0.783,14.417,1.65,20.55c0.233,2.4,0.283,5.1,0.149,8.1
			c-0.1,1.8-0.316,4.5-0.649,8.1l-0.351,4.6c-0.666,7.5-1.1,13-1.3,16.5l-0.85,29.351c-0.434,7.1-0.567,14.916-0.4,23.449
			c0.1,5.967,0.4,13.75,0.9,23.351l-3.65,2.75c-0.8-10.101-1.35-17.884-1.65-23.351c-0.433-8.633-0.533-16.483-0.3-23.55l0.601-8.45
			l1.149-6.35c0.233-1.333,0.4-2.783,0.5-4.35l0.101-7.05l2.25-25.5C138.55,51.55,138.417,44.633,137.75,36.6z"/>
		<path style="fill-rule:evenodd;clip-rule:evenodd;fill:#D99E58;" d="M163.1,75.6l0.25-2.8l0.7,34.4c-0.233,4-0.267,8.866-0.1,14.6
			l-0.4,0.851v-0.25c-0.1-5.4-0.1-10.851,0-16.351L163.1,75.6z"/>
		<path style="fill-rule:evenodd;clip-rule:evenodd;fill:#D99E58;" d="M84.15,24V0h1.8c2.1,0,3.95,0.067,5.55,0.2v52.55
			c0.1,3.5,0.083,6.8-0.05,9.9L91,90.6c-0.133,2.967-0.167,6.534-0.1,10.7l0.1,10.15c-0.133,4.366-0.066,9.916,0.2,16.649
			c0.333,9,0.517,14.534,0.55,16.601l0.05,4.7c0.033,2.133,0.017,5.267-0.05,9.399l0.35,3.2c0.233,1.8,0.733,4.934,1.5,9.4
			c-2.899,0.233-5.449,0.35-7.649,0.35l-2.35-0.05c0.233-6.9,0.367-13.05,0.4-18.45l0.05-15c-0.633-13.533-0.7-32.55-0.2-57.05
			C84.383,54.733,84.483,35.667,84.15,24z"/>
		<path style="fill-rule:evenodd;clip-rule:evenodd;fill:#D99E58;" d="M83.25,0.05l0.05,26.2c0.134,6.133,0.2,15.55,0.2,28.25
			c0,12.434,0.083,21.917,0.25,28.45c0,3.033-0.333,11.783-1,26.25c-0.533,10.7-0.483,19.5,0.15,26.399v5
			c0,4.434-0.033,7.767-0.1,10l-0.05,21.051h-1.3c0.1-4.301,0.083-10.801-0.05-19.5l-0.5-14c-0.033-8.5,0.217-27.884,0.75-58.15
			c0.434-24.133,0.434-43.566,0-58.3V0.1L83.25,0.05z"/>
		<path style="fill-rule:evenodd;clip-rule:evenodd;fill:#D99E58;" d="M123.8,31.2c0.2-10.434,0.3-17.85,0.3-22.25l0.95,0.5
			c0,4.1-0.1,11.1-0.3,21c-0.167,8.933-0.233,15.95-0.2,21.05L124.4,76.4c0.166,1.667,0.25,3.667,0.25,6
			c-0.033,1.967-0.134,3.95-0.301,5.95c-2.066,10.4-3.183,22.667-3.35,36.801c-0.066,3.8,0.117,16.066,0.55,36.8V164l-0.25,0.1
			l-0.75-7.05c-0.8-10.3-0.733-22.733,0.2-37.3c1.333-16.533,2.233-29,2.7-37.4c0.033-1.8,0-3.833-0.101-6.1l0.2-22.85
			C123.517,48.1,123.6,40.7,123.8,31.2z"/>
		<path style="fill-rule:evenodd;clip-rule:evenodd;fill:#D99E58;" d="M125.55,32.8c0.067-10.2,0.117-17.883,0.15-23.05l0.649,0.35
			c0.101,10.333,0.384,25.816,0.851,46.45l-0.15,17C127.017,76.017,127,79.7,127,84.6l-0.1,3.6c-3.467,13.166-4.801,28.816-4,46.95
			c0,5.333,0.333,10.5,1,15.5l1.05,11.699l-1.601,0.801L123,160c-3.1-22.333-2.3-46.217,2.4-71.65c0.166-1.3,0.35-3.25,0.55-5.85
			c0.133-2.333,0.149-4.333,0.05-6l-0.05-20.7C125.65,49.267,125.517,41.6,125.55,32.8z"/>
		<path style="fill-rule:evenodd;clip-rule:evenodd;fill:#D99E58;" d="M92.75,45.95V0.25L95,0.45c0,14.066,0.134,26.767,0.4,38.1
			l0.149,4.65c0.167,3.6,0.417,8.917,0.75,15.95c0.134,5.967-0.1,11.217-0.7,15.75L94.7,87.75c-0.434,3.667-0.434,7.45,0,11.35
			c0.1,1.267,0.25,2.5,0.45,3.7l1.1,5.101c1.467,5.933,2.267,12.533,2.4,19.8c0.1,5.833-0.267,12.566-1.101,20.2l-1.25,11.5
			l0.05,3.199c0.101,3.034,0.384,5.834,0.851,8.4l-1.65,0.2c-0.6-2.834-1.116-5.851-1.55-9.05l-1.05-18.101
			c-0.367-4.8-0.533-10.583-0.5-17.35c0.133-7.667,0.2-13.351,0.2-17.05l-0.2-5.601c-0.233-5.6-0.384-11.233-0.45-16.899l0.55-17
			C92.65,56.45,92.717,48.383,92.75,45.95z"/>
		<path style="fill-rule:evenodd;clip-rule:evenodd;fill:#D99E58;" d="M155.45,35.45c1.366,1.9,2.667,3.85,3.899,5.85l-0.1,2.3
			c-0.1,1.467-0.116,3.133-0.05,5c0.066,3.633,0.5,8.683,1.3,15.15c0.867,7.2,1.384,12.35,1.55,15.45l0.7,45
			c-1.8,3.6-3.633,6.767-5.5,9.5c0-3.467,0.15-10.033,0.45-19.7l-0.3-28.35c0-0.5,0.05-2.45,0.149-5.85c0.067-2.233,0-4.133-0.2-5.7
			c-1.333-9-2.149-15.3-2.449-18.9c-0.134-1.567-0.233-3.133-0.301-4.7C154.566,46.467,154.85,41.45,155.45,35.45z"/>
		<path style="fill-rule:evenodd;clip-rule:evenodd;fill:#D99E58;" d="M29.3,37.5c0-1.833-0.066-3.483-0.2-4.95
			c-0.867-2.7-1.65-5.633-2.35-8.8l2.55-2.35c0.667,3.434,1.317,6.284,1.95,8.55c0.434,1.466,0.633,3.183,0.6,5.15
			c0,1.133-0.067,2.816-0.2,5.05l-0.45,5c-0.067,0.633-0.65,4.817-1.75,12.55c-0.7,5.033-1.1,9.2-1.2,12.5l0.2,15.65
			c-0.034,1.9,0.05,4.784,0.25,8.65c0.167,3.833,0.233,6.733,0.2,8.7c0,1.2-0.05,2.366-0.15,3.5c0.066,13.934-0.25,24.666-0.95,32.2
			c-0.5,2.699-0.383,5.133,0.35,7.3l0.2,3.3c-0.9-0.8-2.217-2.066-3.95-3.8c-0.4-2.767-0.633-4.55-0.7-5.351
			c-0.134-2.033-0.067-3.833,0.2-5.399c0.934-3.533,1.367-8.184,1.3-13.95c-0.1-7.233-0.034-11.9,0.2-14V70.4
			c0.167-0.9,0.083-2.267-0.25-4.1c-0.333-1.833-0.433-3.15-0.3-3.95c1.433-5.567,2.433-9.7,3-12.4
			C28.75,45.35,29.233,41.2,29.3,37.5z"/>
		<path style="fill-rule:evenodd;clip-rule:evenodd;fill:#D99E58;" d="M19.6,37.2c0-1.934-0.034-3.383-0.1-4.35l-0.1-1.2
			c1.333-1.633,2.55-3.033,3.65-4.2l0.55,3.85c0.167,1.934,0.25,3.667,0.25,5.2c0.1,4.167-0.167,10.2-0.8,18.1
			c-0.667,8.133-0.983,14.133-0.95,18l0.2,30.85c0.034,2.666,0.217,6.75,0.55,12.25c0.1,4.767-0.367,8.566-1.4,11.399
			c-0.733,2.301-1.1,4.801-1.1,7.5c0,2.034,0.216,4.483,0.65,7.351c-1.7-1.967-3.233-3.917-4.6-5.851
			c0.067-1.6,0.284-2.966,0.65-4.1c0.934-3.5,1.284-8.25,1.05-14.25c-0.267-7.366-0.284-12.267-0.05-14.7l-0.1-5.45
			c-0.067-5.233-0.017-11.8,0.15-19.7l0.25-10.3c0.033-3.1,0.267-8.167,0.7-15.2C19.45,45.867,19.633,40.8,19.6,37.2z"/>
		<path style="fill-rule:evenodd;clip-rule:evenodd;fill:#D99E58;" d="M36.3,36.95c-0.1-2.034-0.15-5.017-0.15-8.95
			c-0.233-1.533-0.633-3.25-1.2-5.15c-0.067-0.3-0.567-1.934-1.5-4.9l2.1-1.55c0.967,5.934,1.567,9.934,1.8,12
			c0.533,4.534,0.667,8.6,0.4,12.2l-0.25,4.75c-0.167,2.667-0.467,6.667-0.9,12c-0.333,4.733-0.517,8.667-0.55,11.8l0.05,4.25
			c0.033,5.5,0.283,19.034,0.75,40.6l0.1,4.45c0.233,5.133,0.216,10.166-0.05,15.1c-0.2,3.367-0.3,5.084-0.3,5.15l-0.25,5.1
			c-0.034,1.134-0.083,2.816-0.15,5.05l-0.15,6.851l-3.75-2.851l0.1-10.35c0.534-7,0.8-17.333,0.8-31l-0.05-43.15
			c0.034-3.467,0.4-7.95,1.1-13.45c1-7.433,1.566-11.917,1.7-13.45L36.3,36.95z"/>
		<path style="fill-rule:evenodd;clip-rule:evenodd;fill:#D99E58;" d="M32.55,44.65c0.1-1.133,0.184-2.85,0.25-5.15
			c-0.267-4.733-0.966-11.167-2.1-19.3l1.45-1.2c0.667,3.967,1.517,7.617,2.55,10.95c0.4,1.466,0.6,3.183,0.6,5.15
			c0,1.133-0.05,2.833-0.15,5.1c-0.1,1.066-0.316,2.75-0.65,5.05c-0.4,2.8-1.1,7.017-2.1,12.65c-0.767,4.967-1.083,9.217-0.95,12.75
			l0.05,5.25c0.367,4.067,0.517,8.85,0.45,14.35c-0.034,3.134-0.134,7.816-0.3,14.05v4.75c-0.066,1.634,0,7.483,0.2,17.55
			c0.1,7.134-0.2,12.983-0.9,17.551l-0.05,7.55l-2.05-1.75l-0.1-2.95c-0.367-2.167-0.617-3.816-0.75-4.95
			c-0.2-1.967-0.1-3.666,0.3-5.1c0.867-4.233,1.434-8.834,1.7-13.8c0.167-3.4,0.2-8.017,0.1-13.851
			c-0.1-0.934-0.184-2.316-0.25-4.149c-0.067-1.667-0.083-5.2-0.05-10.601c0.034-4.434-0.083-7.966-0.35-10.6l-0.25-15.2
			c-0.034-1.967-0.05-3.45-0.05-4.45c0.034-1.733,0.25-3.2,0.65-4.4C31.233,55,32.15,49.917,32.55,44.65z"/>
		<path style="fill-rule:evenodd;clip-rule:evenodd;fill:#D99E58;" d="M6.6,69.5c-0.133,7.033-0.367,17.6-0.7,31.7L6,117.15
			l-0.3-0.75c0.167-3.834,0.183-7.301,0.05-10.4L6.6,67.625V69.5z"/>
		<path style="fill-rule:evenodd;clip-rule:evenodd;fill:#D99E58;" d="M26.65,39.45c0.133-2.067,0.2-3.6,0.2-4.6
			c-0.867-2.667-1.65-5.633-2.35-8.9l0.85-0.9c0.633,2.634,1.167,4.7,1.6,6.2c0.267,2.067,0.433,3.617,0.5,4.65
			c0.366,5.1,0,9.817-1.1,14.15c-0.967,4.167-1.6,7.35-1.9,9.55c-0.5,3.533-0.55,6.667-0.15,9.4c0.034,0.934,0.083,2.317,0.15,4.15
			l0.05,3.7c0,2.5,0.05,4.967,0.15,7.4l0.15,21.95c0.134,4.3-0.066,10.75-0.6,19.35c-0.567,8.533-0.767,14.967-0.6,19.3l-2.1-2.3
			c-0.2-2.5-0.217-4.533-0.05-6.1c0.066-1.434,0.517-6.75,1.35-15.95c0.567-6.467,0.733-11.85,0.5-16.15l0.1-32.25
			c-0.333-4.333,0-9.817,1-16.45C25.767,46.35,26.517,40.95,26.65,39.45z"/>
		<path style="fill-rule:evenodd;clip-rule:evenodd;fill:#D99E58;" d="M12.45,66.5L12.2,76.75c-0.3,8.3-0.467,15.417-0.5,21.35v4.25
			c-0.3,2.834-0.4,6.717-0.3,11.65c0.067,5.4,0.034,9.25-0.1,11.55l-0.2,2.3c-1.6-2.833-2.967-5.566-4.1-8.199
			c-0.1-3.467-0.167-6.067-0.2-7.801c-0.1-3.133-0.083-5.767,0.05-7.899l0.8-40.85c-0.167-3.133-0.183-7.233-0.05-12.3
			c1.4-3.167,3.066-6.35,5-9.55c0,2.767-0.05,6.934-0.15,12.5C12.383,58.817,12.383,63.067,12.45,66.5z"/>
		<path style="fill-rule:evenodd;clip-rule:evenodd;fill:#D99E58;" d="M13.8,39.35c0.934-1.467,2.15-3.217,3.65-5.25
			c0.167,5,0.183,10.8,0.05,17.4c-0.033,2.233-0.167,8.05-0.4,17.45L17,73.7c-0.2,10.466-0.316,18.333-0.35,23.6v4.7
			c-0.033,0.634-0.066,5.983-0.1,16.05c-0.033,6.334-0.533,11.65-1.5,15.95L15,134.2c-1-1.434-1.95-2.934-2.85-4.5l0.1-1.351
			c0.566-8.333,0.8-16.583,0.7-24.75V99.15C12.917,94.184,13,86.8,13.2,77l0.35-10.65C13.917,57.017,14,48.017,13.8,39.35z"/>
		<path style="fill-rule:evenodd;clip-rule:evenodd;fill:#D99E58;" d="M147.2,126.85c0,7,0.066,13.301,0.2,18.9l-0.351,0.4
			C147.017,139.75,147.066,133.316,147.2,126.85z"/>
		<path style="fill-rule:evenodd;clip-rule:evenodd;fill:#D99E58;" d="M44.95,60.35c1.1,4.9,1.833,9.267,2.2,13.1
			C47.05,72.783,46.316,68.417,44.95,60.35z"/>
		<path style="fill-rule:evenodd;clip-rule:evenodd;fill:#D99E58;" d="M52.55,123.15c0.134,0.966,0.467,2.933,1,5.899
			c0.467,2.533,0.767,4.584,0.9,6.15C53.517,131.667,52.883,127.65,52.55,123.15z"/>
		<path style="fill-rule:evenodd;clip-rule:evenodd;fill:#D99E58;" d="M49.9,40.75l1,4.55c0.167,2.2,0.417,5.483,0.75,9.85
			c-1.133-4.566-1.883-8.216-2.25-10.95c-0.333-2.167-0.117-4.65,0.65-7.45C49.717,38.217,49.667,39.55,49.9,40.75z"/>
		<path style="fill-rule:evenodd;clip-rule:evenodd;fill:#D99E58;" d="M43.7,36.8c0.9-4.933,1.383-9.25,1.45-12.95
			c0.1-4.667-0.4-8.9-1.5-12.7c1.934-1.066,3.75-2.017,5.45-2.85c1.867,4.567,2.1,10.767,0.7,18.6
			c-1.566,8.8-2.017,14.883-1.35,18.25c0.866,4.6,2.15,11.4,3.85,20.4c0.667,13.034,0.884,25.617,0.65,37.75l-0.6,2.7
			c-0.9,4.8-1.067,10.2-0.5,16.2c0.667,3.934,1.117,6.866,1.35,8.8c0.366,3.267,0.5,6.15,0.4,8.65l-0.15,3.899
			c-0.1,3.167-0.583,10.233-1.45,21.2c-2.167-0.967-4.05-1.884-5.65-2.75l0.35-7.05c0.233-5.566,0.333-10.233,0.3-14l-0.1-3.55
			c-0.466-2.233-0.85-4.801-1.15-7.7c-0.7-9.667-0.367-20.417,1-32.25v-0.2l0.7-5.45c0.167-1,0.267-1.983,0.3-2.95l0.2-1.5
			c0.667-5.433,0.65-11.233-0.05-17.399c-0.6-4.934-1.733-10.75-3.4-17.45c-0.5-2.066-0.867-3.717-1.1-4.95
			C43.3,44.45,43.4,40.867,43.7,36.8z"/>
		<path style="fill-rule:evenodd;clip-rule:evenodd;fill:#D99E58;" d="M62.15,89.8c0.267-1.967,0.483-4.183,0.65-6.65
			c-0.333,21.567-0.1,40.383,0.7,56.45l0.05,3.851c0.067,11.267,0.067,19.7,0,25.3l-2.15-0.6c0.067-3,0.3-10.801,0.7-23.4l0.05-5.25
			c-0.566-11-0.933-19.233-1.1-24.7C60.783,105.267,61.15,96.934,62.15,89.8z"/>
		<path style="fill-rule:evenodd;clip-rule:evenodd;fill:#D99E58;" d="M39.5,38.7c0-1.733-0.05-3.483-0.15-5.25
			c-0.034-2.6-0.333-5.617-0.9-9.05c-0.7-3.966-1.233-6.95-1.6-8.95c1.533-1.067,3.216-2.167,5.05-3.3
			c0.6,4.034,0.917,8.867,0.95,14.5c0.033,3.233,0,8.067-0.1,14.5c-0.4,4.467-0.3,8.25,0.3,11.35l0.1,0.5
			C43.383,55.767,44,59.7,45,64.8c1.033,5.434,1.684,9.35,1.95,11.75c0.566,5.167,0.4,9.75-0.5,13.75
			c-1.134,7.434-1.833,15.351-2.1,23.75c-0.2,6.5-0.15,14.367,0.15,23.601v23.399c-1.967-1.1-4.066-2.383-6.3-3.85l0.2-37.55
			c0-0.034,0.1-16.667,0.3-49.9v-5.1C39.367,54.517,39.633,45.867,39.5,38.7z"/>
		<path style="fill-rule:evenodd;clip-rule:evenodd;fill:#D99E58;" d="M5.8,55.15l-0.2,16.7c-0.133,6.6-0.367,16.466-0.7,29.6
			l-0.1,4.25c0.167,2.866,0.217,5.75,0.15,8.649c-2.767-7.8-4.367-15.916-4.8-24.35l0.2-10.65C0.983,70.917,2.8,62.85,5.8,55.15z"/>
		<path style="fill-rule:evenodd;clip-rule:evenodd;fill:#AF6924;" d="M0.05,85.85c0-1.467,0.1-3.633,0.3-6.5L0.15,90L0.05,85.85z"
			/>
		<path style="fill-rule:evenodd;clip-rule:evenodd;fill:#AF6924;" d="M5.8,55.15l1-2.65c0.067,1,0.067,2.033,0,3.1L5.75,106
			c0.133,3.1,0.117,6.566-0.05,10.4l-0.75-2.051c0.066-2.899,0.017-5.783-0.15-8.649l0.1-4.25c0.333-13.134,0.567-23,0.7-29.6
			L5.8,55.15z"/>
		<path style="fill-rule:evenodd;clip-rule:evenodd;fill:#AF6924;" d="M6.6,69.5l0.25-17.05L7.6,50.8
			c-0.133,5.067-0.117,9.167,0.05,12.3l-0.8,40.85c-0.133,2.133-0.15,4.767-0.05,7.899c0.034,1.733,0.1,4.334,0.2,7.801l-1-2.5
			L5.9,101.2C6.233,87.1,6.467,76.533,6.6,69.5z"/>
		<path style="fill-rule:evenodd;clip-rule:evenodd;fill:#AF6924;" d="M12.6,41.25l1.2-1.9c0.2,8.667,0.117,17.667-0.25,27L13.2,77
			c-0.2,9.8-0.284,17.184-0.25,22.15v4.449c0.1,8.167-0.134,16.417-0.7,24.75l-0.1,1.351l-1.05-1.851l0.2-2.3
			c0.134-2.3,0.167-6.149,0.1-11.55c-0.1-4.934,0-8.816,0.3-11.65V98.1c0.033-5.933,0.2-13.05,0.5-21.35l0.25-10.25
			c-0.067-3.433-0.067-7.683,0-12.75C12.55,48.184,12.6,44.017,12.6,41.25z"/>
		<path style="fill-rule:evenodd;clip-rule:evenodd;fill:#AF6924;" d="M17.45,34.1l1.95-2.45l0.1,1.2
			c0.066,0.967,0.1,2.417,0.1,4.35c0.033,3.6-0.15,8.667-0.55,15.2c-0.433,7.034-0.667,12.1-0.7,15.2L18.1,77.9
			c-0.167,7.9-0.217,14.466-0.15,19.7l0.1,5.45c-0.233,2.434-0.216,7.334,0.05,14.7c0.233,6-0.117,10.75-1.05,14.25
			c-0.366,1.134-0.583,2.5-0.65,4.1L15,134.2l0.05-0.2c0.967-4.3,1.467-9.616,1.5-15.95c0.034-10.066,0.067-15.416,0.1-16.05v-4.7
			c0.034-5.267,0.15-13.133,0.35-23.6l0.1-4.75c0.233-9.4,0.367-15.217,0.4-17.45C17.633,44.9,17.617,39.1,17.45,34.1z"/>
		<path style="fill-rule:evenodd;clip-rule:evenodd;fill:#AF6924;" d="M23.85,36.5c0-1.533-0.083-3.267-0.25-5.2l-0.55-3.85
			l1.45-1.5c0.7,3.267,1.483,6.233,2.35,8.9c0,1-0.067,2.533-0.2,4.6c-0.133,1.5-0.883,6.9-2.25,16.2c-1,6.633-1.333,12.117-1,16.45
			l-0.1,32.25c0.233,4.301,0.067,9.684-0.5,16.15c-0.833,9.2-1.283,14.517-1.35,15.95c-0.167,1.566-0.15,3.6,0.05,6.1l-0.5-0.6
			c-0.434-2.867-0.65-5.316-0.65-7.351c0-2.699,0.367-5.199,1.1-7.5c1.033-2.833,1.5-6.633,1.4-11.399
			c-0.333-5.5-0.517-9.584-0.55-12.25L22.1,72.6c-0.034-3.867,0.283-9.867,0.95-18C23.684,46.7,23.95,40.667,23.85,36.5z"/>
		<path style="fill-rule:evenodd;clip-rule:evenodd;fill:#AF6924;" d="M27.45,35.9c-0.067-1.033-0.233-2.583-0.5-4.65
			c-0.434-1.5-0.967-3.566-1.6-6.2l1.4-1.3c0.7,3.167,1.483,6.1,2.35,8.8c0.133,1.467,0.2,3.117,0.2,4.95
			c-0.066,3.7-0.55,7.85-1.45,12.45c-0.567,2.7-1.567,6.833-3,12.4c-0.133,0.8-0.034,2.117,0.3,3.95c0.333,1.833,0.417,3.2,0.25,4.1
			V107c-0.233,2.1-0.3,6.767-0.2,14c0.066,5.767-0.367,10.417-1.3,13.95c-0.267,1.566-0.333,3.366-0.2,5.399
			c0.066,0.801,0.3,2.584,0.7,5.351l-0.8-0.851c-0.167-4.333,0.033-10.767,0.6-19.3c0.533-8.6,0.733-15.05,0.6-19.35l-0.15-21.95
			c-0.1-2.433-0.15-4.9-0.15-7.4l-0.05-3.7c-0.067-1.833-0.117-3.216-0.15-4.15c-0.4-2.733-0.35-5.867,0.15-9.4
			c0.3-2.2,0.933-5.383,1.9-9.55C27.45,45.717,27.816,41,27.45,35.9z"/>
		<path style="fill-rule:evenodd;clip-rule:evenodd;fill:#AF6924;" d="M31.65,40.15c0.133-2.233,0.2-3.917,0.2-5.05
			c0.033-1.967-0.167-3.684-0.6-5.15c-0.633-2.267-1.283-5.117-1.95-8.55l1.4-1.2c1.133,8.133,1.833,14.566,2.1,19.3
			c-0.066,2.3-0.15,4.017-0.25,5.15C32.15,49.917,31.233,55,29.8,59.9c-0.4,1.2-0.616,2.667-0.65,4.4c0,1,0.017,2.483,0.05,4.45
			l0.25,15.2c0.267,2.633,0.383,6.166,0.35,10.6c-0.033,5.4-0.017,8.934,0.05,10.601c0.066,1.833,0.15,3.216,0.25,4.149
			c0.1,5.834,0.066,10.45-0.1,13.851c-0.267,4.966-0.833,9.566-1.7,13.8c-0.4,1.434-0.5,3.133-0.3,5.1
			c0.133,1.134,0.383,2.783,0.75,4.95l0.1,2.95l-0.5-0.45l-0.2-3.3c-0.733-2.167-0.85-4.601-0.35-7.3
			c0.7-7.534,1.017-18.267,0.95-32.2c0.1-1.134,0.15-2.3,0.15-3.5c0.034-1.967-0.033-4.867-0.2-8.7c-0.2-3.866-0.284-6.75-0.25-8.65
			l-0.2-15.65c0.1-3.3,0.5-7.467,1.2-12.5c1.1-7.733,1.683-11.917,1.75-12.55L31.65,40.15z"/>
		<path style="fill-rule:evenodd;clip-rule:evenodd;fill:#AF6924;" d="M32.15,19l1.3-1.05c0.933,2.966,1.433,4.6,1.5,4.9
			c0.566,1.9,0.966,3.617,1.2,5.15c0,3.934,0.05,6.917,0.15,8.95l-0.35,4.5c-0.134,1.533-0.7,6.017-1.7,13.45
			c-0.7,5.5-1.066,9.983-1.1,13.45l0.05,43.15c0,13.667-0.267,24-0.8,31l-0.1,10.35l-1.4-1.149l0.05-7.55
			c0.7-4.567,1-10.417,0.9-17.551c-0.2-10.066-0.267-15.916-0.2-17.55v-4.75c0.167-6.233,0.267-10.916,0.3-14.05
			c0.066-5.5-0.083-10.283-0.45-14.35l-0.05-5.25c-0.134-3.533,0.183-7.783,0.95-12.75c1-5.633,1.7-9.85,2.1-12.65
			c0.333-2.3,0.55-3.983,0.65-5.05c0.1-2.267,0.15-3.967,0.15-5.1c0-1.967-0.2-3.684-0.6-5.15C33.667,26.617,32.816,22.967,32.15,19
			z"/>
		<path style="fill-rule:evenodd;clip-rule:evenodd;fill:#AF6924;" d="M39.2,38.85c0.033-2.4,0.05-4.217,0.05-5.45
			c-0.033-2.2-0.25-4-0.65-5.4c-0.833-4.066-1.45-8.233-1.85-12.5l0.1-0.05c0.367,2,0.9,4.983,1.6,8.95
			c0.566,3.434,0.866,6.45,0.9,9.05c0.1,1.767,0.15,3.517,0.15,5.25c0.133,7.167-0.133,15.816-0.8,25.95v5.1
			c-0.2,33.233-0.3,49.866-0.3,49.9l-0.2,37.55l-1.2-0.8l0.4-7l0.3-29.15c0-3.167,0.116-11.583,0.35-25.25
			c0.2-10.4,0.167-18.816-0.1-25.25v-4.8c0.033-2.833,0.183-6.45,0.45-10.85c0.4-6.467,0.617-10.1,0.65-10.9L39.2,38.85z"/>
		<path style="fill-rule:evenodd;clip-rule:evenodd;fill:#AF6924;" d="M37.75,40.6c0.267-3.6,0.133-7.667-0.4-12.2
			c-0.233-2.066-0.833-6.066-1.8-12l0.6-0.45c1.267,6.667,2,10.8,2.2,12.4c0.6,4.733,0.667,8.967,0.2,12.7l-0.4,4.6
			C37.483,52.15,37.1,56,37,57.2c-0.3,4.333-0.316,8.133-0.05,11.4L37,73.45c0.033,4.867,0.1,19.583,0.2,44.149v3.301
			c-0.067,3.466-0.067,7,0,10.6l-0.35,24.75l-0.8-0.55l0.15-6.851c0.066-2.233,0.116-3.916,0.15-5.05l0.25-5.1
			c0-0.066,0.1-1.783,0.3-5.15c0.267-4.934,0.284-9.967,0.05-15.1l-0.1-4.45c-0.467-21.566-0.717-35.1-0.75-40.6l-0.05-4.25
			c0.034-3.133,0.217-7.066,0.55-11.8c0.433-5.333,0.733-9.333,0.9-12L37.75,40.6z"/>
		<path style="fill-rule:evenodd;clip-rule:evenodd;fill:#AF6924;" d="M38.55,41.05c0.467-3.733,0.4-7.966-0.2-12.7
			c-0.2-1.6-0.934-5.733-2.2-12.4l0.6-0.45c0.4,4.267,1.017,8.434,1.85,12.5c0.4,1.4,0.617,3.2,0.65,5.4
			c0,1.233-0.017,3.05-0.05,5.45l-0.15,4.35c-0.033,0.8-0.25,4.433-0.65,10.9c-0.267,4.4-0.417,8.017-0.45,10.85v4.8
			c0.267,6.434,0.3,14.85,0.1,25.25c-0.233,13.667-0.35,22.083-0.35,25.25l-0.3,29.15l-0.3,3.449l0.1-21.35
			c-0.067-3.6-0.067-7.134,0-10.6V117.6C37.1,93.033,37.033,78.317,37,73.45l-0.05-4.85c-0.267-3.267-0.25-7.067,0.05-11.4
			c0.1-1.2,0.483-5.05,1.15-11.55L38.55,41.05z"/>
		<path style="fill-rule:evenodd;clip-rule:evenodd;fill:#AF6924;" d="M42.75,41.15c0.1-6.433,0.133-11.267,0.1-14.5
			c-0.034-5.633-0.35-10.466-0.95-14.5l0.55-0.3c0.066,0.4,0.35,2.117,0.85,5.15c0.333,2.067,0.567,3.767,0.7,5.1
			c0.267,2.633,0.217,5.833-0.15,9.6C43.617,33.8,43.25,36.95,42.75,41.15z"/>
		<path style="fill-rule:evenodd;clip-rule:evenodd;fill:#AF6924;" d="M46.45,90.3c0.9-4,1.066-8.583,0.5-13.75
			c-0.267-2.4-0.917-6.316-1.95-11.75c-1-5.1-1.617-9.033-1.85-11.8l1.8,7.35c1.366,8.066,2.1,12.433,2.2,13.1
			c0.2,2.2,0.3,4.383,0.3,6.55c0.133,4.633-0.5,13.983-1.9,28.05c-1.167,11.8-1.216,21.316-0.15,28.55l-0.35,24.75l-0.55-0.3V137.65
			c-0.3-9.233-0.35-17.101-0.15-23.601C44.617,105.65,45.316,97.733,46.45,90.3z"/>
		<path style="fill-rule:evenodd;clip-rule:evenodd;fill:#AF6924;" d="M45.875,106.2c-0.607,8.437-0.648,16.27-0.125,23.5
			c-0.5-4.934-0.633-10.3-0.4-16.101C45.45,111.35,45.625,108.884,45.875,106.2z"/>
		<path style="fill-rule:evenodd;clip-rule:evenodd;fill:#AF6924;" d="M43.7,36.8c-0.3,4.067-0.4,7.65-0.3,10.75
			c-0.5-2.566-0.617-5-0.35-7.3L43.7,36.8z"/>
		<path style="fill-rule:evenodd;clip-rule:evenodd;fill:#AF6924;" d="M46.4,140.65l-0.575-10.15c0.293,2.574,0.651,4.874,1.075,6.9
			l0.1,3.55c0.033,3.767-0.066,8.434-0.3,14L46.35,162l-0.5-0.2l0.15-3C46.267,150.733,46.4,144.684,46.4,140.65z"/>
		<path style="fill-rule:evenodd;clip-rule:evenodd;fill:#AF6924;" d="M43.7,36.8c0.433-6.533,0.667-10.783,0.7-12.75
			c0.067-4.767-0.25-9.033-0.95-12.8l0.2-0.1c1.1,3.8,1.6,8.034,1.5,12.7C45.083,27.55,44.6,31.867,43.7,36.8z"/>
		<path style="fill-rule:evenodd;clip-rule:evenodd;fill:#AF6924;" d="M47.75,88.85c0.367-4.233,0.167-9.366-0.6-15.399
			c-0.367-3.833-1.1-8.2-2.2-13.1c-0.733-4.333-1.217-7.6-1.45-9.8l-0.1-3c0.233,1.233,0.6,2.884,1.1,4.95
			c1.667,6.7,2.8,12.517,3.4,17.45c0.7,6.167,0.717,11.966,0.05,17.399L47.75,88.85z"/>
		<path style="fill-rule:evenodd;clip-rule:evenodd;fill:#AF6924;" d="M43.05,51.55l0.1,1.45l-0.1-0.5c-0.6-3.1-0.7-6.883-0.3-11.35
			C42.75,45.317,42.85,48.783,43.05,51.55z"/>
		<path style="fill-rule:evenodd;clip-rule:evenodd;fill:#AF6924;" d="M43.3,17c-0.5-3.033-0.783-4.75-0.85-5.15l1-0.6
			c0.7,3.767,1.017,8.033,0.95,12.8c-0.033,1.967-0.267,6.217-0.7,12.75l-0.65,3.45c-0.267,2.3-0.15,4.733,0.35,7.3l0.1,3
			c0.233,2.2,0.717,5.467,1.45,9.8L43.15,53l-0.1-1.45c-0.2-2.767-0.3-6.233-0.3-10.4c0.5-4.2,0.867-7.35,1.1-9.45
			c0.367-3.767,0.417-6.967,0.15-9.6C43.867,20.767,43.633,19.067,43.3,17z"/>
		<path style="fill-rule:evenodd;clip-rule:evenodd;fill:#AF6924;" d="M47.45,80c0-2.167-0.1-4.35-0.3-6.55
			c0.767,6.033,0.967,11.167,0.6,15.399l-1,8.4v0.2c-0.733,6.267-1.2,11.649-1.4,16.149c-0.233,5.801-0.1,11.167,0.4,16.101
			l0.65,10.95c0,4.033-0.133,10.083-0.4,18.149l-0.15,3l-0.8-0.45l0.35-24.75c-1.066-7.233-1.017-16.75,0.15-28.55
			C46.95,93.983,47.583,84.633,47.45,80z"/>
		<path style="fill-rule:evenodd;clip-rule:evenodd;fill:#AF6924;" d="M49.1,8.3L50,7.9l0.95,2.2l1.3,4.75
			c0.434,2.833,0.333,6.35-0.3,10.55c-0.367,2.3-0.884,5.617-1.55,9.95l-0.35,1.4c-0.767,2.8-0.983,5.283-0.65,7.45
			c0.367,2.733,1.117,6.383,2.25,10.95l0.65,10.4c-1.7-9-2.983-15.8-3.85-20.4c-0.667-3.367-0.217-9.45,1.35-18.25
			C51.2,19.067,50.967,12.867,49.1,8.3z"/>
		<path style="fill-rule:evenodd;clip-rule:evenodd;fill:#AF6924;" d="M55.3,76.55l-0.05,1.65c-0.167-3.8-0.434-7.35-0.8-10.65
			C55.017,70.883,55.3,73.883,55.3,76.55z"/>
		<path style="fill-rule:evenodd;clip-rule:evenodd;fill:#AF6924;" d="M52.35,117.6v0.2c-0.133,1.566-0.067,3.351,0.2,5.351
			c0.333,4.5,0.967,8.517,1.9,12.05L54.4,141.6c-0.233,5.167-0.783,12.983-1.65,23.45l-0.75-0.3c0.867-10.967,1.35-18.033,1.45-21.2
			l0.15-3.899c0.1-2.5-0.034-5.384-0.4-8.65c-0.233-1.934-0.684-4.866-1.35-8.8c-0.567-6-0.4-11.4,0.5-16.2l0.6-2.7l-0.1,2.8
			C52.517,110.333,52.35,114.167,52.35,117.6z"/>
		<path style="fill-rule:evenodd;clip-rule:evenodd;fill:#AF6924;" d="M54.45,67.55c-0.333-1.933-1.267-6.066-2.8-12.4
			c-0.333-4.367-0.583-7.65-0.75-9.85C52.566,53.233,53.75,60.65,54.45,67.55z"/>
		<path style="fill-rule:evenodd;clip-rule:evenodd;fill:#AF6924;" d="M50.95,10.1L50.4,7.7l0.3-0.1
			c0.6,1.833,1.683,4.517,3.25,8.05c1.133,3.167,1.417,5.967,0.85,8.4c-0.333,1.367-0.95,3.1-1.85,5.2
			c-1.18,2.615-1.889,4.257-2.125,4.925c0.588-1.764,1.029-3.089,1.325-3.975c0.534-1.633,0.934-3.034,1.2-4.2
			c0.466-3,0.1-6.717-1.1-11.15C51.983,13.184,51.55,11.6,50.95,10.1z"/>
		<path style="fill-rule:evenodd;clip-rule:evenodd;fill:#AF6924;" d="M52.3,65.55c1.634,9.534,2.317,17.833,2.05,24.9l-1.1,11.149
			l-0.3,1.7C53.184,91.167,52.967,78.583,52.3,65.55z"/>
		<path style="fill-rule:evenodd;clip-rule:evenodd;fill:#AF6924;" d="M54.35,90.45c0.466-4.934,0.767-9.017,0.9-12.25
			c0.467,10.6-0.167,21.184-1.9,31.75c-0.567,3.399-0.417,7.8,0.45,13.2c1.167,7.133,1.784,11.517,1.85,13.149l-0.05,4.3
			c-0.067,3.467-0.267,7.634-0.6,12.5c-0.2,2.767-0.517,6.934-0.95,12.5l-0.75-0.3c0.434-5.434,0.75-9.5,0.95-12.2
			c0.3-4.699,0.45-8.767,0.45-12.199c0-2.233-0.034-3.917-0.1-5.051l-0.15-0.649c-0.134-1.566-0.434-3.617-0.9-6.15
			c-0.533-2.967-0.866-4.934-1-5.899c-0.133-2.467-0.2-4.317-0.2-5.551c0.233-3.399,0.4-7.233,0.5-11.5l0.4-4.5
			C53.883,97.9,54.25,94.184,54.35,90.45z"/>
		<path style="fill-rule:evenodd;clip-rule:evenodd;fill:#AF6924;" d="M49.9,40.75c-0.233-1.2-0.183-2.533,0.15-4l0.35-1.25
			c-0.133,1.5-0.133,2.917,0,4.25l0.5,5.55L49.9,40.75z"/>
		<path style="fill-rule:evenodd;clip-rule:evenodd;fill:#AF6924;" d="M53.35,26c-0.267,1.167-0.667,2.567-1.2,4.2
			c-0.3,0.9-0.75,2.25-1.35,4.05l-0.4,1.1c0.667-4.333,1.184-7.65,1.55-9.95c0.633-4.2,0.733-7.716,0.3-10.55
			C53.45,19.283,53.816,23,53.35,26z"/>
		<path style="fill-rule:evenodd;clip-rule:evenodd;fill:#AF6924;" d="M54.4,141.6l0.05-6.399l0.15,0.649
			c0.066,1.134,0.1,2.817,0.1,5.051c0,3.433-0.15,7.5-0.45,12.199c-0.2,2.7-0.517,6.767-0.95,12.2l-0.55-0.25
			C53.617,154.583,54.167,146.767,54.4,141.6z"/>
		<path style="fill-rule:evenodd;clip-rule:evenodd;fill:#AF6924;" d="M54.35,90.45c0.267-7.067-0.417-15.367-2.05-24.9l-0.65-10.4
			c1.534,6.333,2.467,10.467,2.8,12.4c0.366,3.3,0.633,6.85,0.8,10.65C55.117,81.434,54.816,85.517,54.35,90.45z"/>
		<polygon style="fill-rule:evenodd;clip-rule:evenodd;fill:#AF6924;" points="50.4,7.7 50.95,10.1 50,7.9 		"/>
		<path style="fill-rule:evenodd;clip-rule:evenodd;fill:#AF6924;" d="M62.1,15.35c0.8,2.9,0.983,5.483,0.55,7.75
			c-0.867,6.6-1.1,14.583-0.7,23.95c0.2,5.3,0.566,13.233,1.1,23.8l-0.25,12.3c-0.167,2.467-0.383,4.683-0.65,6.65
			c-1,7.134-1.367,15.467-1.1,25c0.167,5.467,0.534,13.7,1.1,24.7l-0.05,5.25c-0.4,12.6-0.633,20.4-0.7,23.4L60.85,168
			c0.066-5.733,0.133-10.05,0.2-12.95c0.1-5,0.267-9.3,0.5-12.899c0.067-2.267,0.083-3.967,0.05-5.101
			c0.033-2.566-0.267-6.283-0.9-11.149c-0.667-5-1-8.684-1-11.051c0.733-16.267,1.216-28.483,1.45-36.649
			c0.367-14.267-0.267-26.583-1.9-36.95c-0.434-1.867-0.35-4.083,0.25-6.65c0.8-2.934,1.367-5.133,1.7-6.6
			c0.533-2.833,0.15-6.6-1.15-11.3c-1.433-5.233-2.1-9-2-11.3L58,4.65l1.1-0.35c0.167,1.4,0.383,2.65,0.65,3.75
			C60.25,9.65,61.033,12.083,62.1,15.35z"/>
		<path style="fill-rule:evenodd;clip-rule:evenodd;fill:#AF6924;" d="M61.7,5.45L61.65,3.5l1.65-0.45L63.25,3.4
			c-0.233,1.633-0.233,2.917,0,3.85c0.3,2.333,0.867,5.8,1.7,10.4c0.633,4.1,0.85,7.55,0.65,10.35c-0.167,0.5-0.467,1.317-0.9,2.45
			c-0.367,1-0.55,1.816-0.55,2.45c0.534,10.333,0.567,24.4,0.1,42.2c-0.533,20.6-0.733,34.667-0.6,42.2
			c0,2.134,0.167,5.25,0.5,9.351c0.3,4.066,0.45,7.183,0.45,9.35l0.05,33.05l-1.1-0.3c0.067-5.6,0.067-14.033,0-25.3L63.5,139.6
			c-0.8-16.066-1.033-34.883-0.7-56.45c0.233-3.667,0.317-7.767,0.25-12.3c0.2-9,0.567-22.467,1.1-40.4
			c0-7.867-0.667-15.083-2-21.65C61.917,7.7,61.767,6.583,61.7,5.45z"/>
		<path style="fill-rule:evenodd;clip-rule:evenodd;fill:#AF6924;" d="M66.5,8c-0.066-2.2,0.033-4.15,0.3-5.85l1.1-0.25
			c0,0.167-0.1,0.917-0.3,2.25c-0.034,1.467-0.034,2.917,0,4.35c0.033,0.967,0.15,2.417,0.35,4.35c0.5,13.433,0.383,34.2-0.35,62.3
			c-0.7,27.267-0.717,48.1-0.05,62.5l0.7,15.25c0.1,2,0.25,4.883,0.45,8.649c0.133,3.267,0.167,6.084,0.1,8.45l-1.2-0.25
			c0-0.566-0.167-3.833-0.5-9.8c-0.2-3.934-0.217-7.184-0.05-9.75l-0.2-10.101c-0.5-15.333-0.534-35.033-0.1-59.1
			c0.533-32.4,0.8-52.033,0.8-58.9c0-4.567-0.25-7.934-0.75-10.1C66.633,10.633,66.533,9.3,66.5,8z"/>
		<path style="fill-rule:evenodd;clip-rule:evenodd;fill:#AF6924;" d="M70.95,46.15c-0.099-15.269-0.066-25.835,0.1-31.7
			c0.367,15.033,0.333,34.117-0.1,57.25c-0.189,10.613-0.397,19.78-0.625,27.5c-0.017-8.5,0.042-15.55,0.175-21.15
			C70.867,70.317,71.017,59.684,70.95,46.15z"/>
		<polygon style="fill-rule:evenodd;clip-rule:evenodd;fill:#AF6924;" points="71.05,8.05 71.05,1.3 71.2,1.25 71.25,6 		"/>
		<path style="fill-rule:evenodd;clip-rule:evenodd;fill:#AF6924;" d="M71,139.75l-0.05-2.5c-0.134-16.467-0.2-28.816-0.2-37.05
			c0-14.467,0.333-26.833,1-37.1C71.25,98.9,71,123.983,71,138.35V139.75z M71.05,142.05l0.4,8.101
			c0.733,10.966,1.133,17.816,1.2,20.55l-0.2-0.05v-0.301c-0.667-6.666-1.083-13.633-1.25-20.899L71.05,142.05z"/>
		<path style="fill-rule:evenodd;clip-rule:evenodd;fill:#AF6924;" d="M72,14.5V1.1h0.25v9.7c0.1,1.967,0.15,3.85,0.15,5.65
			l-0.2,16.6C71.934,24.917,71.867,18.733,72,14.5z"/>
		<path style="fill-rule:evenodd;clip-rule:evenodd;fill:#AF6924;" d="M72.2,33.05c0.2,6.267,0.316,10.733,0.35,13.4
			c0,4.966-0.183,9.45-0.55,13.45l-0.25,3.2L72.2,33.05z"/>
		<path style="fill-rule:evenodd;clip-rule:evenodd;fill:#AF6924;" d="M71.25,6L71.2,1.25L72,1.1v13.4
			c-0.133,4.233-0.066,10.417,0.2,18.55L71.75,63.1c-0.667,10.267-1,22.633-1,37.1c0,8.233,0.066,20.583,0.2,37.05l0.25,12.2
			c0.167,7.267,0.583,14.233,1.25,20.899v0.301l-0.7-0.101L71.5,167.9c-0.533-7.733-0.917-13.551-1.15-17.45l-0.2-5.8
			c-0.1-1.434-0.15-2.9-0.15-4.4v-11.2c0.033-4.5,0.35-23.616,0.95-57.35c0.433-23.133,0.466-42.217,0.1-57.25v-6.4L71.25,6z"/>
		<path style="fill-rule:evenodd;clip-rule:evenodd;fill:#AF6924;" d="M77.9,0.35V18.2c0.4,16.767,0.4,36.633,0,59.6
			c-0.233,13.233-0.667,33.101-1.3,59.601l0.05,14.649c0.133,1.066,0.233,3.117,0.3,6.15l0.2,3.1c0.133,1.967,0.4,5.05,0.8,9.25
			l0.05,0.8l-1.2-0.1V171c-0.066-2.5-0.2-5.566-0.4-9.2c-0.267-4.1-0.466-7.184-0.6-9.25l-0.3-4.6c0-0.033-0.05-2.05-0.15-6.05
			c-0.034-2.034-0.034-4.067,0-6.101c0.667-25.7,1.117-45.45,1.35-59.25c0.333-21.8,0.383-41.55,0.15-59.25L76.8,0.45L77.9,0.35z"/>
		<path style="fill-rule:evenodd;clip-rule:evenodd;fill:#AF6924;" d="M81.65,0.1v21.6c0.434,14.733,0.434,34.167,0,58.3
			c-0.533,30.267-0.783,49.65-0.75,58.15l0.5,14c0.133,8.699,0.15,15.199,0.05,19.5l-1.1-0.101l0.15-5.35
			c0.1-3.334-0.066-7.95-0.5-13.851l-0.3-4.649c-0.134-1.033-0.267-2.55-0.4-4.55c-0.066-1-0.1-2.517-0.1-4.551
			c0.7-17.533,1.167-37.149,1.4-58.85c0.133-13.033,0.2-32.667,0.2-58.9l-0.05-20.7L81.65,0.1z"/>
		<path style="fill-rule:evenodd;clip-rule:evenodd;fill:#AF6924;" d="M84.15,0v24c0.333,11.667,0.233,30.733-0.3,57.2
			c-0.5,24.5-0.434,43.517,0.2,57.05l-0.05,15c-0.033,5.4-0.167,11.55-0.4,18.45l-0.85-0.05L82.8,150.6
			c0.067-2.233,0.1-5.566,0.1-10v-5c-0.633-6.899-0.683-15.699-0.15-26.399c0.667-14.467,1-23.217,1-26.25
			c-0.167-6.534-0.25-16.017-0.25-28.45c0-12.7-0.066-22.117-0.2-28.25l-0.05-26.2C83.65,0.05,83.95,0.033,84.15,0z"/>
		<path style="fill-rule:evenodd;clip-rule:evenodd;fill:#AF6924;" d="M92.75,0.25v45.7c-0.033,2.433-0.1,10.5-0.2,24.2l-0.55,17
			c0.066,5.666,0.217,11.3,0.45,16.899l0.2,5.601c0,3.699-0.067,9.383-0.2,17.05c-0.033,6.767,0.133,12.55,0.5,17.35L94,162.15
			c0.434,3.199,0.95,6.216,1.55,9.05l-1.95,0.2c-0.767-4.467-1.267-7.601-1.5-9.4l-0.35-3.2c0.066-4.133,0.083-7.267,0.05-9.399
			l-0.05-4.7c-0.033-2.066-0.217-7.601-0.55-16.601c-0.267-6.733-0.333-12.283-0.2-16.649l-0.1-10.15
			c-0.067-4.166-0.033-7.733,0.1-10.7l0.45-27.95c0.133-3.1,0.149-6.4,0.05-9.9V0.2L92.75,0.25z"/>
		<path style="fill-rule:evenodd;clip-rule:evenodd;fill:#AF6924;" d="M95.55,43.2L95.4,38.55C95.134,27.217,95,14.517,95,0.45
			l0.35,0.05l0.2,5.4c0.533,10.967,0.917,21.284,1.15,30.95l0.1,4.4c0.233,13.067,0.067,23.95-0.5,32.65l-0.75,13.8
			c-0.366,3.366-0.283,6.883,0.25,10.55l0.55,3.45c0.434,1.5,0.851,3.2,1.25,5.1c1.5,6.267,2.25,13.3,2.25,21.101
			c0.034,5.233-0.366,12.333-1.199,21.3l-0.601,12.85c0.101,3.033,0.367,5.934,0.8,8.7L97.2,171c-0.467-2.566-0.75-5.366-0.851-8.4
			L96.3,159.4l1.25-11.5c0.834-7.634,1.2-14.367,1.101-20.2c-0.134-7.267-0.934-13.867-2.4-19.8l-1.1-5.101
			c-0.2-1.2-0.351-2.434-0.45-3.7c-0.434-3.899-0.434-7.683,0-11.35L95.6,74.9c0.601-4.533,0.834-9.783,0.7-15.75
			C95.967,52.117,95.717,46.8,95.55,43.2z"/>
		<path style="fill-rule:evenodd;clip-rule:evenodd;fill:#AF6924;" d="M98.7,0.95c0.133,6.133,0.267,10.733,0.399,13.8l0.4,22.05
			c0.5,14.967,0.417,28.833-0.25,41.6l-0.35,4.8c-1.2,4.434-1.584,8.983-1.15,13.649c0.167,1.5,0.367,2.934,0.6,4.301l1.801,5.3
			c2.733,6.3,3.949,13.85,3.649,22.649c-0.166,4.934-1.1,12.567-2.8,22.9l-1.2,7.15c0,1.666,0.067,3.149,0.2,4.449
			c0.134,2.101,0.417,4.384,0.85,6.851l-1.25,0.2c-0.533-2.367-0.899-4.534-1.1-6.5c-0.1-1.301-0.15-2.601-0.15-3.9
			c-0.033-1.833-0.033-3.233,0-4.2c0-1.666,0.217-3.133,0.65-4.399c2.233-6.733,3.2-14.25,2.9-22.551
			c-0.267-6.466-1.367-13.933-3.301-22.399l-1.05-4.8c-0.233-1.434-0.433-2.884-0.6-4.351c-0.5-4.7-0.467-9.066,0.1-13.1L97.9,75.7
			c0.467-10.6,0.616-23.8,0.449-39.6L98.1,0.85L98.7,0.95z"/>
		<path style="fill-rule:evenodd;clip-rule:evenodd;fill:#AF6924;" d="M100.9,37.7l-0.2-16.6c-0.267-5.167-0.434-11.8-0.5-19.9
			c0.566,0.066,1.116,0.167,1.649,0.3c-0.066,8.733-0.066,15.283,0,19.65l0.051,11.2c-0.033,1.767,0.133,9.85,0.5,24.25
			c0.233,9.7-0.2,17.617-1.301,23.75l-0.8,11.35c0.134,3.233,0.217,5.05,0.25,5.45c0.167,2.133,0.467,3.949,0.9,5.449
			c0.667,1.733,1.267,3.4,1.8,5c0.566,1.7,1,3.217,1.3,4.551c1.367,6.566,1.767,14.35,1.2,23.35c-0.333,5.2-1.116,13.033-2.35,23.5
			c0,1-0.051,2.467-0.15,4.4c-0.033,1.733,0.117,3.199,0.45,4.399l0.2,2.05l-2.101,0.4l-0.45-2.35c-0.8-2.7-0.933-5.667-0.399-8.9
			c1.633-10.134,2.667-17.717,3.1-22.75c0.667-8.434,0.483-15.983-0.55-22.65c-0.4-1.767-0.816-3.366-1.25-4.8
			c-0.533-1.7-1.083-3.283-1.65-4.75L99.1,100l-0.05-4.4c0.367-5.899,0.634-10.283,0.8-13.149l0.25-5.15
			c0.567-5.733,0.884-12.35,0.95-19.85C100.983,48.75,100.934,42.167,100.9,37.7z"/>
		<path style="fill-rule:evenodd;clip-rule:evenodd;fill:#AF6924;" d="M105.2,2.2l-0.351,33c0,2.4,0.2,9.716,0.601,21.95
			c0.3,8.8,0.25,16.017-0.15,21.65l-0.3,4.8c0.1,1.533-0.366,4.333-1.4,8.4c-0.866,3.4-0.933,6.1-0.199,8.1
			c0.6,1.767,1.1,3.351,1.5,4.75c0.333,1.034,0.767,2.584,1.3,4.65c1.767,8.134,2.467,17.533,2.1,28.2
			c-0.2,4.967-1,14.434-2.399,28.399l-0.051,3.301L104,169.85l-0.05-1.699c1.267-12.667,2.1-22.184,2.5-28.551
			c0.667-11.066,0.217-20.633-1.351-28.699c-0.267-1.4-0.649-2.967-1.149-4.7l-0.95-5.3c-0.7-4.067-1.15-7.617-1.35-10.65
			c0.066-1.733,0.217-3.483,0.449-5.25c0.101-1.7,0.25-3.417,0.45-5.15c1.2-6.6,1.767-14.517,1.7-23.75
			c-0.333-10.733-0.566-18.8-0.7-24.2l-0.1-5.9c-0.4-6.633-0.517-14.733-0.351-24.3L105.2,2.2z"/>
		<path style="fill-rule:evenodd;clip-rule:evenodd;fill:#AF6924;" d="M109.8,3.35l1.15,0.35c-0.033,7-0.134,13.966-0.3,20.9
			l-0.101,5.55c0.5,12.9,0.167,28.5-1,46.8l-0.35,5.25c-0.3,4.667-0.25,10.083,0.149,16.25l0.25,3.25
			c1.167,9.533,1.634,20.383,1.4,32.55c-0.133,6.967-0.667,17.884-1.6,32.75l-0.051,1.45l-0.649,0.2v-1.2
			c-0.066-3.033,0.267-13.684,1-31.95c0.5-13,0.116-23.6-1.15-31.8l-0.3-3.601c-0.3-4.333-0.45-7.916-0.45-10.75
			c-0.2-1.366-0.166-3.1,0.101-5.2c0.333-3,0.517-4.733,0.55-5.2l0.3-4.9c0.367-6.1,0.566-13.433,0.6-22
			c0-9.733,0.018-17.033,0.051-21.9L109.8,3.35z"/>
		<path style="fill-rule:evenodd;clip-rule:evenodd;fill:#AF6924;" d="M113.8,39.85c-0.033-2.967,0.084-8.467,0.351-16.5
			c0.233-6.967,0.267-12.417,0.1-16.35V4.8l0.95,0.3c-0.066,19.133-0.184,32.233-0.351,39.3l-0.05,3.4
			c-0.1,5.167-0.116,10.934-0.05,17.3l-0.3,10.4c-0.267,5.4-0.483,11.533-0.65,18.4l-0.05,3.699
			c-0.467,7.233-0.55,16.384-0.25,27.45c-0.066,19.733-0.267,33.851-0.6,42.351l-1,0.3l0.05-0.3l0.2-3.45
			c0.833-8.7,1.1-19.483,0.8-32.351c-0.5-14.366-0.767-25.116-0.8-32.25L112.1,96.1c-0.066-6.1,0.084-11.566,0.45-16.399l0.3-4.5
			c0.268-5.067,0.45-9.6,0.551-13.6l0.149-5.4c0.033-0.9,0.101-4.534,0.2-10.9L113.8,39.85z"/>
		<path style="fill-rule:evenodd;clip-rule:evenodd;fill:#AF6924;" d="M116.2,46.35c-0.2-5.367-0.217-12.167-0.05-20.4
			c0.267-13,0.399-19.767,0.399-20.3l1.05,0.4c-0.033,4.767-0.183,11.95-0.449,21.55c-0.167,8.633-0.134,15.85,0.1,21.65v4.7
			c0.066,7.433-0.033,13.95-0.3,19.55l-0.25,3.95c-0.134,1.3-0.233,2.617-0.3,3.95c-0.301,10.3-0.533,23.817-0.7,40.55
			c-0.267,21-0.45,34.5-0.55,40.5c-0.033,0.934-0.15,2.366-0.351,4.3l-1.75,0.6l0.3-2.55c0.467-5.767,0.667-12.399,0.601-19.899
			c-0.033-2.634-0.184-9.25-0.45-19.851c0.066-19.366,0.417-34.333,1.05-44.9l0.7-9.25c0.4-5.167,0.7-11.983,0.9-20.45L116.2,46.35z
			"/>
		<path style="fill-rule:evenodd;clip-rule:evenodd;fill:#AF6924;" d="M113.5,125.05c0.267,10.601,0.417,17.217,0.45,19.851
			c0.066,7.5-0.134,14.133-0.601,19.899l-0.3,2.55L112.9,167.4C113.233,158.9,113.434,144.783,113.5,125.05z"/>
		<path style="fill-rule:evenodd;clip-rule:evenodd;fill:#AF6924;" d="M122.1,29.5c0.301-13.5,0.45-20.6,0.45-21.3l1.55,0.75
			c0,4.4-0.1,11.816-0.3,22.25c-0.2,9.5-0.283,16.9-0.25,22.2l-0.2,22.85c0.101,2.267,0.134,4.3,0.101,6.1
			c-0.467,8.4-1.367,20.867-2.7,37.4c-0.934,14.566-1,27-0.2,37.3l0.75,7.05c-0.899,0.434-1.583,0.733-2.05,0.9
			c0.367-1.967,0.483-3.8,0.35-5.5c-1.466-11.066-1.816-23.8-1.05-38.2c1.334-16.767,2.317-29.416,2.95-37.95l0.25-4.5
			c0.066-1.667,0.05-3.15-0.05-4.45l0.35-23.55C121.884,45.15,121.9,38.033,122.1,29.5z"/>
		<path style="fill-rule:evenodd;clip-rule:evenodd;fill:#AF6924;" d="M124.75,30.45c0.2-9.9,0.3-16.9,0.3-21l0.65,0.3
			c-0.033,5.167-0.083,12.85-0.15,23.05c-0.033,8.8,0.101,16.467,0.4,23L126,76.5c0.1,1.667,0.083,3.667-0.05,6
			c-0.2,2.6-0.384,4.55-0.55,5.85c-4.7,25.434-5.5,49.317-2.4,71.65l0.35,3.15l-1.8,0.85v-2.05c-0.433-20.733-0.616-33-0.55-36.8
			c0.167-14.134,1.283-26.4,3.35-36.801c0.167-2,0.268-3.983,0.301-5.95c0-2.333-0.084-4.333-0.25-6l0.149-24.9
			C124.517,46.4,124.583,39.383,124.75,30.45z"/>
		<path style="fill-rule:evenodd;clip-rule:evenodd;fill:#AF6924;" d="M126.35,10.1l1,0.55c0.034,5.034,0.15,13.15,0.351,24.35
			c0.2,10.533,0.3,18.667,0.3,24.4l-0.3,12.9c0.133,3.6,0.066,7.517-0.2,11.75l-0.3,3.9c-0.5,5.2-1.417,13-2.75,23.399
			c-1.066,9.301-1.583,17.233-1.55,23.801c-0.801-18.134,0.533-33.784,4-46.95l0.1-3.6c0-4.9,0.017-8.583,0.05-11.05l0.15-17
			C126.733,35.917,126.45,20.434,126.35,10.1z"/>
		<path style="fill-rule:evenodd;clip-rule:evenodd;fill:#AF6924;" d="M123.9,150.65c-0.667-5-1-10.167-1-15.5
			C123.1,139.917,123.434,145.083,123.9,150.65z"/>
		<path style="fill-rule:evenodd;clip-rule:evenodd;fill:#AF6924;" d="M123.9,150.65c0.333,2.399,0.699,4.533,1.1,6.399l0.8,4.851
			l-0.85,0.449L123.9,150.65z"/>
		<path style="fill-rule:evenodd;clip-rule:evenodd;fill:#AF6924;" d="M135.9,82.85L135.8,89.9c-0.1,1.566-0.267,3.017-0.5,4.35
			l-1.149,6.35c0.399-3.533,0.733-6.183,1-7.949L135.9,82.85z"/>
		<path style="fill-rule:evenodd;clip-rule:evenodd;fill:#AF6924;" d="M134.15,21.45c0.166,2.6,0.383,4.95,0.649,7.05
			c0.767,4.967,1.317,9.1,1.65,12.4C135.25,35.133,134.483,28.65,134.15,21.45z"/>
		<path style="fill-rule:evenodd;clip-rule:evenodd;fill:#AF6924;" d="M136.85,54.25c-0.066,1.167-0.166,2.283-0.3,3.35l-2.05,16.85
			c0.333,3.733,0.367,7.617,0.1,11.65l-0.3,3.75L134.15,90.7l-0.051-3.15c-0.133-2.966-0.216-5.2-0.25-6.7
			c-0.133-2.7-0.133-5.017,0-6.95l0.351-4.1c0.1-1.4,0.25-2.767,0.45-4.1c0.267-2.3,0.5-3.967,0.699-5
			c0.134-0.833,0.367-1.9,0.7-3.2C136.517,55.6,136.783,54.517,136.85,54.25z"/>
		<path style="fill-rule:evenodd;clip-rule:evenodd;fill:#AF6924;" d="M137.1,33.6c-1.033-11.5-1.566-17.434-1.6-17.8l0.3,0.15
			c0.4,4.6,1.05,11.483,1.95,20.65c0.667,8.033,0.8,14.95,0.4,20.75l-2.25,25.5c-0.067-2.5-0.084-4.383-0.051-5.65l0.15-3.3
			c0.2-3.3,0.45-6.617,0.75-9.95l0.45-5c0.033-0.8,0.217-2.034,0.55-3.7c0.333-1.633,0.5-2.867,0.5-3.7
			C138.117,46.75,137.733,40.767,137.1,33.6z"/>
		<path style="fill-rule:evenodd;clip-rule:evenodd;fill:#AF6924;" d="M134.15,100.6l-0.601,8.45
			c-0.233,7.066-0.133,14.917,0.3,23.55c0.301,5.467,0.851,13.25,1.65,23.351l-0.6,0.45c-0.667-6.134-1.517-11.801-2.551-17
			c-0.866-4.733-1.149-10.034-0.85-15.9c0.167-2.833,0.684-8,1.55-15.5L134.15,100.6z"/>
		<path style="fill-rule:evenodd;clip-rule:evenodd;fill:#AF6924;" d="M136.45,40.9l0.8,3.3c0.4,1.6,0.533,3.3,0.4,5.1
			c-0.067,1.333-0.334,2.983-0.801,4.95C137.117,50.117,136.983,45.667,136.45,40.9z"/>
		<path style="fill-rule:evenodd;clip-rule:evenodd;fill:#AF6924;" d="M134.15,90.7l-0.051,1.35l-1.649,9.7
			c-3.101,18.767-3.101,36.316,0,52.65c-3.867-17.801-3.867-35.95,0-54.45L134.15,90.7z"/>
		<path style="fill-rule:evenodd;clip-rule:evenodd;fill:#AF6924;" d="M134.8,28.5c-0.267-2.1-0.483-4.45-0.649-7.05
			c-0.101-2.233-0.15-4.483-0.15-6.75l1.5,1.1c0.033,0.367,0.566,6.3,1.6,17.8c0.634,7.167,1.018,13.15,1.15,17.95
			c0,0.833-0.167,2.067-0.5,3.7c-0.333,1.667-0.517,2.9-0.55,3.7l-0.45,5c-0.3,3.333-0.55,6.65-0.75,9.95l-0.15,3.3
			c-0.033,1.267-0.017,3.15,0.051,5.65l-0.75,9.8c-0.267,1.767-0.601,4.416-1,7.949l-1.101,7.4c-0.866,7.5-1.383,12.667-1.55,15.5
			c-0.3,5.866-0.017,11.167,0.85,15.9c1.034,5.199,1.884,10.866,2.551,17l-1.7,1.149l-0.75-3.149
			c-3.101-16.334-3.101-33.884,0-52.65l1.649-9.7l0.051-1.35l0.149-0.851l0.3-3.75c0.268-4.033,0.233-7.917-0.1-11.65l2.05-16.85
			c0.134-1.067,0.233-2.184,0.3-3.35c0.467-1.967,0.733-3.617,0.801-4.95c0.133-1.8,0-3.5-0.4-5.1l-0.8-3.3
			C136.117,37.6,135.566,33.467,134.8,28.5z"/>
		<path style="fill-rule:evenodd;clip-rule:evenodd;fill:#AF6924;" d="M141.8,47.85c0.134-3,0.084-5.7-0.149-8.1
			c-0.867-6.133-1.417-12.983-1.65-20.55l0.85,0.7l0.301,4.65c0.166,3.6,0.6,9,1.3,16.2c0.467,6.467,0.434,11.9-0.101,16.3l-0.3,4.7
			c-0.7,8.9-1.05,13.467-1.05,13.7l-0.2,3.4c0.134,3.133,0.167,6.85,0.101,11.15l-0.051,3.7c0.067,1.633,0.067,3.267,0,4.899
			l-0.199,4.9c-0.033,0.533-0.517,6.116-1.45,16.75c-0.566,6.634-0.566,12.2,0,16.7c0.566,5.866,0.983,10.95,1.25,15.25l-1.3,1
			c-0.5-9.601-0.801-17.384-0.9-23.351c-0.167-8.533-0.033-16.35,0.4-23.449l0.85-29.351c0.2-3.5,0.634-9,1.3-16.5l0.351-4.6
			C141.483,52.35,141.7,49.65,141.8,47.85z"/>
		<path style="fill-rule:evenodd;clip-rule:evenodd;fill:#AF6924;" d="M146.15,24.65l1.399,1.45l0.2,80.05
			c-0.3,6.133-0.483,13.033-0.55,20.699c-0.134,6.467-0.184,12.9-0.15,19.301l-1.25,1.25c-0.399-15.567-0.166-29.217,0.7-40.95
			l0.05-8.05c-0.066-4.4-0.183-8.351-0.35-11.851l0.35-30.5C146.55,53.783,146.417,43.317,146.15,24.65z"/>
		<path style="fill-rule:evenodd;clip-rule:evenodd;fill:#AF6924;" d="M147.55,26.1l1.351,1.4c-0.267,16.633-0.4,25.95-0.4,27.95
			l0.15,5.2c0.333,13,0.5,20.8,0.5,23.4l0.1,8.9c0.167,1.399,0.283,2.967,0.35,4.7c0.067,1.566,0.067,3.133,0,4.699
			c0,1.5-0.05,3-0.149,4.5c-0.7,5.667-1.083,11.917-1.15,18.75c-0.033,4.967,0.117,11.217,0.45,18.75l-1.35,1.4
			c-0.134-5.6-0.2-11.9-0.2-18.9c0.167-5.6,0.483-12.267,0.95-20c0.033-1,0.017-2.566-0.051-4.699l-0.35-4.65L147.55,26.1z"/>
		<path style="fill-rule:evenodd;clip-rule:evenodd;fill:#AF6924;" d="M148.1,102.15c0.067,2.133,0.084,3.699,0.051,4.699
			c-0.467,7.733-0.783,14.4-0.95,20c0.066-7.666,0.25-14.566,0.55-20.699l-0.2-15.551L148.1,102.15z"/>
		<path style="fill-rule:evenodd;clip-rule:evenodd;fill:#AF6924;" d="M151.2,30.1l0.649,0.8c-0.699,10.034-0.966,18.067-0.8,24.1
			l0.45,4.9c0.1,1.934,0.367,5.833,0.8,11.7c0.334,4.967,0.533,8.917,0.601,11.85l-0.051,27.6c-0.433,4.267-0.616,9.033-0.55,14.3
			c0.033,3.567,0.2,8.351,0.5,14.351l-1.399,1.7c-0.134-4.7-0.134-10.417,0-17.15c0.166-7.6,0.267-13.267,0.3-17l0.149-24.8
			c-0.066-3.434-0.232-7.833-0.5-13.2c-0.366-7.333-0.583-11.733-0.649-13.2L150.5,51C150.5,46.333,150.733,39.367,151.2,30.1z"/>
		<path style="fill-rule:evenodd;clip-rule:evenodd;fill:#AF6924;" d="M153.3,47.15c0.101-1.466,0.15-2.617,0.15-3.45
			c0.333-2.067,0.767-5.133,1.3-9.2l0.7,0.95c-0.601,6-0.884,11.017-0.851,15.05c0.067,1.567,0.167,3.133,0.301,4.7
			c0.3,3.6,1.116,9.9,2.449,18.9c0.2,1.566,0.268,3.467,0.2,5.7c-0.1,3.4-0.149,5.35-0.149,5.85l0.3,28.35
			c-0.3,9.667-0.45,16.233-0.45,19.7l-1.45,2.05c-0.366-9.566-0.233-17.5,0.4-23.8l0.05-24.7c0.267-4.333,0.117-9.583-0.45-15.75
			c-0.8-6.933-1.35-12.15-1.649-15.65l-0.4-5.2C153.417,49.617,153.267,48.45,153.3,47.15z"/>
		<path style="fill-rule:evenodd;clip-rule:evenodd;fill:#AF6924;" d="M159.25,43.6l0.1-2.3l1.5,2.6
			c-0.366,6.633,0.25,13.867,1.851,21.7c0.399,2.667,0.616,5.066,0.649,7.2l-0.25,2.8l0.45,30.45c-0.1,5.5-0.1,10.95,0,16.351v0.25
			l-0.8,1.55l-0.1-23.601L162.05,79.2c-0.166-3.1-0.683-8.25-1.55-15.45c-0.8-6.467-1.233-11.517-1.3-15.15
			C159.134,46.733,159.15,45.067,159.25,43.6z"/>
		<path style="fill-rule:evenodd;clip-rule:evenodd;fill:#AF6924;" d="M161.1,44.35l1.351,2.5l-0.05,2
			c0.1,3.066,0.149,4.633,0.149,4.7c0.067,0.967,0.167,2.517,0.3,4.65c0.134,1.9,0.367,3.517,0.7,4.85l0.851,4.8l0.05,5.5
			c0.133,4.9,0.35,12.483,0.649,22.75L165.2,118.9l-1.25,2.899c-0.167-5.733-0.134-10.6,0.1-14.6l0.101-9.351L163.35,72.8
			c0.167-1.8,0.134-3.316-0.1-4.55l-0.55-2.65c-0.733-4.667-1.233-8.184-1.5-10.55C160.767,51.017,160.733,47.45,161.1,44.35z"/>
		<path style="fill-rule:evenodd;clip-rule:evenodd;fill:#AF6924;" d="M163.25,68.25c0.233,1.233,0.267,2.75,0.1,4.55
			c-0.033-2.133-0.25-4.533-0.649-7.2L163.25,68.25z"/>
		<path style="fill-rule:evenodd;clip-rule:evenodd;fill:#AF6924;" d="M166.95,69.1l-0.05-5.7c-0.4-3.267-0.667-6.066-0.801-8.4
			c0.768,1.934,1.4,3.767,1.9,5.5l1.05,47.15l-1.45,4.85l-0.05-4.2c-0.033-1.767-0.033-3.533,0-5.3c0-2.366,0.033-4.134,0.101-5.3
			l-0.101-4.75C167.35,82.35,167.15,74.4,166.95,69.1z"/>
	</g>
	
		<linearGradient id="SVGID_14_" gradientUnits="userSpaceOnUse" x1="-172.4351" y1="85.875" x2="-0.6353" y2="85.875" gradientTransform="matrix(5.822417e-006 -1 1 -0.001 -1.609481e-004 4.683650e-004)">
		<stop  offset="0.0196" style="stop-color:#7F3A06"/>
		<stop  offset="0.1255" style="stop-color:#8E5524;stop-opacity:0.851"/>
		<stop  offset="0.3569" style="stop-color:#AD8965;stop-opacity:0.549"/>
		<stop  offset="0.5686" style="stop-color:#C6B39A;stop-opacity:0.3137"/>
		<stop  offset="0.7529" style="stop-color:#D8D0C0;stop-opacity:0.1412"/>
		<stop  offset="0.898" style="stop-color:#E3E3D8;stop-opacity:0.0353"/>
		<stop  offset="0.9882" style="stop-color:#E7E9E0;stop-opacity:0"/>
	</linearGradient>
	<path style="fill-rule:evenodd;clip-rule:evenodd;fill:url(#SVGID_14_);" d="M119.3,7.3c10.267,4.367,19.367,10.517,27.3,18.45
		c7.9,7.934,14.034,17.033,18.4,27.3c4.5,10.634,6.75,21.767,6.75,33.4c0,11.633-2.25,22.767-6.75,33.399
		c-4.366,10.267-10.5,19.367-18.4,27.301c-7.933,7.933-17.033,14.083-27.3,18.449c-10.633,4.5-21.767,6.75-33.399,6.75
		c-11.634,0-22.767-2.25-33.4-6.75c-10.267-4.366-19.367-10.517-27.3-18.449c-7.934-7.934-14.083-17.034-18.45-27.301
		C2.25,109.217,0,98.083,0,86.45c0-11.633,2.25-22.767,6.75-33.4c4.367-10.267,10.517-19.366,18.45-27.3
		c7.933-7.933,17.033-14.083,27.3-18.45c10.633-4.5,21.767-6.75,33.4-6.75C97.533,0.55,108.667,2.8,119.3,7.3z"/>
	<g>
		<g>
			
				<linearGradient id="SVGID_15_" gradientUnits="userSpaceOnUse" x1="-158.4858" y1="85.9512" x2="-13.4355" y2="85.9512" gradientTransform="matrix(6.895364e-006 -1 1 -0.001 2.366505e-004 4.683650e-004)">
				<stop  offset="0" style="stop-color:#EED9C2"/>
				<stop  offset="0.0863" style="stop-color:#E5CCB5;stop-opacity:0.8745"/>
				<stop  offset="0.3176" style="stop-color:#D0AE97;stop-opacity:0.5922"/>
				<stop  offset="0.5176" style="stop-color:#C39C84;stop-opacity:0.4196"/>
				<stop  offset="0.6549" style="stop-color:#BF967E;stop-opacity:0.3569"/>
				<stop  offset="1" style="stop-color:#582D22"/>
			</linearGradient>
			<path style="fill-rule:evenodd;clip-rule:evenodd;fill:url(#SVGID_15_);" d="M137.2,34.6c6.7,6.667,11.883,14.35,15.55,23.05
				c3.8,8.967,5.7,18.367,5.7,28.2s-1.9,19.25-5.7,28.25c-3.667,8.667-8.85,16.351-15.55,23.051
				c-6.667,6.699-14.351,11.883-23.05,15.55c-8.967,3.8-18.367,5.7-28.2,5.7c-9.833,0-19.233-1.9-28.2-5.7
				c-8.7-3.667-16.383-8.851-23.05-15.55c-6.7-6.7-11.884-14.384-15.55-23.051c-3.8-9-5.7-18.416-5.7-28.25s1.9-19.233,5.7-28.2
				C22.816,48.95,28,41.267,34.7,34.6c6.667-6.7,14.35-11.883,23.05-15.55c8.967-3.8,18.367-5.7,28.2-5.7
				c9.833,0,19.233,1.9,28.2,5.7C122.85,22.717,130.533,27.9,137.2,34.6z"/>
		</g>
	</g>
	<g>
		
			<linearGradient id="SVGID_16_" gradientUnits="userSpaceOnUse" x1="-152.1353" y1="85.8257" x2="-19.7856" y2="85.8257" gradientTransform="matrix(7.555724e-006 -1 1 -0.001 2.190953e-004 4.683650e-004)">
			<stop  offset="0.0745" style="stop-color:#B85E97"/>
			<stop  offset="0.2667" style="stop-color:#D167A8"/>
			<stop  offset="0.5333" style="stop-color:#F976C5"/>
			<stop  offset="1" style="stop-color:#F8EFD5"/>
		</linearGradient>
		<path style="fill-rule:evenodd;clip-rule:evenodd;fill:url(#SVGID_16_);" d="M132.6,39.1C145.533,52.033,152,67.633,152,85.9
			c0,18.234-6.467,33.817-19.4,46.75c-12.933,12.933-28.533,19.399-46.8,19.399c-18.233,0-33.816-6.467-46.75-19.399
			c-12.933-12.934-19.4-28.517-19.4-46.75c0-18.233,6.467-33.833,19.4-46.8C51.983,26.167,67.566,19.7,85.8,19.7
			C104.066,19.7,119.667,26.167,132.6,39.1z"/>
		<path style="fill-rule:evenodd;clip-rule:evenodd;fill:#630F50;" d="M132,39.7c-12.733-12.767-28.133-19.15-46.2-19.15
			c-18.033,0-33.417,6.384-46.15,19.15C26.883,52.467,20.5,67.867,20.5,85.9c0,18.034,6.383,33.433,19.15,46.2
			c12.733,12.767,28.117,19.15,46.15,19.15c18.067,0,33.467-6.384,46.2-19.15c12.767-12.733,19.15-28.133,19.15-46.2
			C151.15,67.867,144.767,52.467,132,39.7z M111.45,23.95c8.167,3.367,15.417,8.216,21.75,14.55s11.184,13.583,14.55,21.75
			c3.4,8.167,5.1,16.717,5.1,25.65s-1.699,17.484-5.1,25.65c-3.366,8.134-8.217,15.367-14.55,21.7c-6.3,6.333-13.55,11.2-21.75,14.6
			c-8.134,3.367-16.684,5.051-25.65,5.051c-8.966,0-17.517-1.684-25.65-5.051c-8.133-3.399-15.367-8.267-21.7-14.6
			c-6.333-6.333-11.184-13.566-14.55-21.7c-3.4-8.166-5.1-16.717-5.1-25.65s1.7-17.483,5.1-25.65
			c3.367-8.167,8.217-15.417,14.55-21.75c6.333-6.333,13.566-11.183,21.7-14.55S76.833,18.9,85.8,18.9
			C94.767,18.9,103.316,20.583,111.45,23.95z"/>
	</g>
	
		<radialGradient id="SVGID_17_" cx="85.8252" cy="83.7246" r="59.375" gradientTransform="matrix(1 0 0 -1 0 167.4492)" gradientUnits="userSpaceOnUse">
		<stop  offset="0.1059" style="stop-color:#F8EFD5"/>
		<stop  offset="0.5882" style="stop-color:#FA8BC5"/>
		<stop  offset="0.7098" style="stop-color:#F789C3;stop-opacity:0.9686"/>
		<stop  offset="0.8039" style="stop-color:#ED82BC;stop-opacity:0.8706"/>
		<stop  offset="0.8824" style="stop-color:#DE78B1;stop-opacity:0.7059"/>
		<stop  offset="0.9608" style="stop-color:#C768A2;stop-opacity:0.4745"/>
		<stop  offset="1" style="stop-color:#B85E97;stop-opacity:0.3176"/>
	</radialGradient>
	<path style="fill-rule:evenodd;clip-rule:evenodd;fill:url(#SVGID_17_);" d="M127.85,41.8c11.601,11.6,17.4,25.583,17.4,41.95
		c0,16.366-5.8,30.35-17.4,41.95c-11.6,11.566-25.6,17.35-42,17.35c-16.433,0-30.45-5.783-42.05-17.35
		C32.2,114.1,26.4,100.116,26.4,83.75c0-16.367,5.8-30.35,17.4-41.95c11.6-11.6,25.617-17.4,42.05-17.4
		C102.25,24.4,116.25,30.2,127.85,41.8z"/>
	<g>
		<path style="fill-rule:evenodd;clip-rule:evenodd;fill:#F7E0E7;" d="M117.9,81.5c0.666,0.367,1.199,0.867,1.6,1.5
			c0.4,0.667,0.6,1.383,0.6,2.15v33.25c0,0.733-0.183,1.416-0.55,2.05c-0.399,0.666-0.916,1.184-1.55,1.55l-27.95,16
			c-0.3,0.4-0.733,0.767-1.3,1.1c-0.667,0.367-1.383,0.551-2.15,0.551h-0.35c-0.866,0.066-1.684-0.117-2.45-0.551
			c-0.466-0.267-0.917-0.633-1.35-1.1l-27.9-16c-0.633-0.366-1.15-0.884-1.55-1.55c-0.367-0.634-0.55-1.316-0.55-2.05V85.75
			L52.4,85.1c0.067-1.533,0.75-2.7,2.05-3.5L84.1,66c1.367-0.767,2.767-0.767,4.2,0l28.75,15.15
			C117.217,81.184,117.5,81.3,117.9,81.5z"/>
		
			<linearGradient id="SVGID_18_" gradientUnits="userSpaceOnUse" x1="-138.8984" y1="86.251" x2="-64.7484" y2="86.251" gradientTransform="matrix(1.348618e-005 -1 1 -0.001 -4.255883e-005 4.683650e-004)">
			<stop  offset="0" style="stop-color:#CA2897"/>
			<stop  offset="0.1686" style="stop-color:#D148A0"/>
			<stop  offset="0.5255" style="stop-color:#E58FB7"/>
			<stop  offset="0.902" style="stop-color:#FDDDD1"/>
		</linearGradient>
		<path style="fill-rule:evenodd;clip-rule:evenodd;fill:url(#SVGID_18_);" d="M117.9,80.65c0.666,0.367,1.199,0.883,1.6,1.55
			c0.4,0.667,0.6,1.367,0.6,2.1v33.25c0,0.733-0.183,1.417-0.55,2.05c-0.399,0.667-0.916,1.184-1.55,1.551l-27.95,16
			c-0.3,0.399-0.733,0.767-1.3,1.1c-0.667,0.366-1.383,0.55-2.15,0.55h-0.35c-0.866,0.066-1.684-0.116-2.45-0.55
			c-0.466-0.267-0.917-0.634-1.35-1.1l-27.9-16c-0.633-0.367-1.15-0.884-1.55-1.551c-0.367-0.633-0.55-1.316-0.55-2.05V84.9
			l-0.05-0.65c0.067-1.533,0.75-2.7,2.05-3.5l0.45-0.2l29.2-15.4c1.367-0.767,2.767-0.767,4.2,0l28.75,15.15L117.9,80.65z"/>
		<path style="fill-rule:evenodd;clip-rule:evenodd;fill:none;stroke:#F7E0E7;stroke-width:0.25;" d="M117.9,80.65l-0.851-0.35
			L88.3,65.15c-1.433-0.767-2.833-0.767-4.2,0l-29.2,15.4l-0.45,0.2c-1.3,0.8-1.983,1.967-2.05,3.5l0.05,0.65v32.65
			c0,0.733,0.183,1.417,0.55,2.05c0.4,0.667,0.917,1.184,1.55,1.551l27.9,16c0.433,0.466,0.883,0.833,1.35,1.1
			c0.767,0.434,1.584,0.616,2.45,0.55h0.35c0.768,0,1.483-0.184,2.15-0.55c0.566-0.333,1-0.7,1.3-1.1l27.95-16
			c0.634-0.367,1.15-0.884,1.55-1.551c0.367-0.633,0.55-1.316,0.55-2.05V84.3c0-0.733-0.199-1.433-0.6-2.1
			C119.1,81.533,118.566,81.017,117.9,80.65z"/>
		<path style="fill-rule:evenodd;clip-rule:evenodd;fill:#630F50;" d="M116.15,83.55c0.3,0.167,0.449,0.417,0.449,0.75v33.25
			c0,0.334-0.149,0.566-0.449,0.7l-28.7,16.5c-0.033,0.267-0.184,0.467-0.45,0.6l-0.4,0.101l-0.35-0.05
			c-0.2,0.1-0.434,0.083-0.7-0.051c-0.233-0.133-0.383-0.333-0.45-0.6l-28.75-16.5c-0.267-0.167-0.4-0.4-0.4-0.7V84.6l-0.05-0.25
			c0-0.333,0.133-0.583,0.4-0.75l29.5-15.5c0.267-0.167,0.533-0.167,0.8,0l29.2,15.35L116.15,83.55z"/>
		<g>
			
				<use xlink:href="#FlashAICB_x2F_Layer_1_x2F__x3C_Clip_Group_0_x3E__x5F_2"  width="29.75" height="50.3" y="-50.3" transform="matrix(1 0 0 -1 56.8501 84.2998)" style="overflow:visible;"/>
			
				<use xlink:href="#FlashAICB_x2F_Layer_1_x2F__x3C_Group_x3E_"  width="27.15" height="33.5" y="-33.5" transform="matrix(1 0 0 -1 59.4502 101.0996)" style="overflow:visible;opacity:0.3594;enable-background:new    ;"/>
			
				<use xlink:href="#FlashAICB_x2F_Layer_1_x2F__x3C_Clip_Group_0_x3E__x5F_1"  width="87.8" height="80.2" y="-80.2" transform="matrix(1 0 0 -1 42.3501 45.2002)" style="overflow:visible;"/>
			
				<use xlink:href="#FlashAICB_x2F_Layer_1_x2F__x3C_Clip_Group_0_x3E__x5F_0"  width="72.85" height="73.6" y="-73.6" transform="matrix(1 0 0 -1 64.4502 72.6499)" style="overflow:visible;"/>
		</g>
	</g>
	<g>
		<g>
			<path style="fill-rule:evenodd;clip-rule:evenodd;fill:#F7E0E7;" d="M56.35,44.15V60.6c0,0.7-0.217,1.267-0.65,1.7
				c-0.4,0.4-0.917,0.6-1.55,0.6S53,62.7,52.6,62.3c-0.4-0.433-0.6-1-0.6-1.7V46.1h-1.7c-0.633,0-1.133-0.217-1.5-0.65
				c-0.333-0.367-0.5-0.817-0.5-1.35s0.184-1,0.55-1.4c0.367-0.4,0.85-0.6,1.45-0.6h4.1c0.6,0,1.083,0.2,1.45,0.6
				C56.184,43.067,56.35,43.55,56.35,44.15z"/>
			<path style="fill-rule:evenodd;clip-rule:evenodd;fill:#F7E0E7;" d="M72.65,59.5c-1.367,2.367-3.383,3.55-6.05,3.55
				s-4.667-1.183-6-3.55c-1.1-1.933-1.65-4.3-1.65-7.1c0-2.833,0.55-5.2,1.65-7.1c1.333-2.366,3.333-3.55,6-3.55
				s4.683,1.184,6.05,3.55c1.1,1.9,1.65,4.267,1.65,7.1C74.3,55.2,73.75,57.567,72.65,59.5z M66.6,59.1c2.133,0,3.2-2.233,3.2-6.7
				c0-4.5-1.066-6.75-3.2-6.75c-2.1,0-3.15,2.25-3.15,6.75C63.45,56.867,64.5,59.1,66.6,59.1z"/>
			<path style="fill-rule:evenodd;clip-rule:evenodd;fill:#F7E0E7;" d="M89.25,45.3c1.1,1.9,1.65,4.267,1.65,7.1
				c0,2.8-0.551,5.167-1.65,7.1c-1.333,2.367-3.333,3.55-6,3.55c-2.667,0-4.684-1.183-6.05-3.55c-1.1-1.933-1.65-4.3-1.65-7.1
				c0-2.833,0.55-5.2,1.65-7.1c1.366-2.366,3.383-3.55,6.05-3.55C85.917,41.75,87.917,42.934,89.25,45.3z M86.4,52.4
				c0-4.5-1.051-6.75-3.15-6.75c-2.1,0-3.15,2.25-3.15,6.75c0,4.467,1.05,6.7,3.15,6.7C85.35,59.1,86.4,56.867,86.4,52.4z"/>
			<path style="fill-rule:evenodd;clip-rule:evenodd;fill:#F7E0E7;" d="M105.9,45.3c1.1,1.9,1.649,4.267,1.649,7.1
				c0,2.8-0.55,5.167-1.649,7.1c-1.367,2.367-3.384,3.55-6.051,3.55c-2.666,0-4.666-1.183-6-3.55c-1.1-1.933-1.649-4.3-1.649-7.1
				c0-2.833,0.55-5.2,1.649-7.1c1.334-2.366,3.334-3.55,6-3.55C102.517,41.75,104.533,42.934,105.9,45.3z M103.05,52.4
				c0-4.5-1.066-6.75-3.2-6.75c-2.1,0-3.149,2.25-3.149,6.75c0,4.467,1.05,6.7,3.149,6.7C101.983,59.1,103.05,56.867,103.05,52.4z"
				/>
			<path style="fill-rule:evenodd;clip-rule:evenodd;fill:#F7E0E7;" d="M108.6,44.1c0-1.333,0.717-2,2.15-2h10.5
				c0.667,0,1.2,0.25,1.6,0.75c0.334,0.4,0.5,0.833,0.5,1.3c0,0.3-0.232,0.95-0.699,1.95l-7.15,14.6
				c-0.467,0.9-0.816,1.466-1.05,1.7c-0.333,0.333-0.8,0.5-1.4,0.5c-0.733,0-1.333-0.25-1.8-0.75c-0.4-0.4-0.6-0.85-0.6-1.35
				c0-0.267,0.1-0.6,0.3-1l7.2-13.7h-7.4c-0.7,0-1.25-0.217-1.65-0.65C108.767,45.083,108.6,44.633,108.6,44.1z"/>
		</g>
		<g>
			
				<linearGradient id="SVGID_19_" gradientUnits="userSpaceOnUse" x1="-62.0537" y1="52.3271" x2="-41.2787" y2="52.3271" gradientTransform="matrix(4.813478e-005 -1 1 -0.001 8.158396e-005 4.674215e-004)">
				<stop  offset="0.0745" style="stop-color:#6A034E"/>
				<stop  offset="0.2667" style="stop-color:#830B61"/>
				<stop  offset="0.6706" style="stop-color:#C22193"/>
				<stop  offset="0.9922" style="stop-color:#F934BE"/>
			</linearGradient>
			<path style="fill-rule:evenodd;clip-rule:evenodd;fill:url(#SVGID_19_);" d="M56.35,43.25v16.5c0,0.7-0.217,1.25-0.65,1.65
				c-0.4,0.4-0.917,0.6-1.55,0.6S53,61.8,52.6,61.4S52,60.45,52,59.75V45.2h-1.7c-0.667,0-1.167-0.2-1.5-0.6
				c-0.333-0.367-0.5-0.833-0.5-1.4c0-0.534,0.184-0.983,0.55-1.35c0.367-0.434,0.85-0.65,1.45-0.65h4.1c0.6,0,1.083,0.2,1.45,0.6
				C56.184,42.167,56.35,42.65,56.35,43.25z"/>
			
				<linearGradient id="SVGID_20_" gradientUnits="userSpaceOnUse" x1="-62.2168" y1="66.627" x2="-40.9168" y2="66.627" gradientTransform="matrix(4.694836e-005 -1 1 -0.001 2.288916e-004 4.674215e-004)">
				<stop  offset="0.0745" style="stop-color:#6A034E"/>
				<stop  offset="0.2667" style="stop-color:#830B61"/>
				<stop  offset="0.6706" style="stop-color:#C22193"/>
				<stop  offset="0.9922" style="stop-color:#F934BE"/>
			</linearGradient>
			<path style="fill-rule:evenodd;clip-rule:evenodd;fill:url(#SVGID_20_);" d="M72.65,58.65c-1.367,2.367-3.383,3.55-6.05,3.55
				s-4.667-1.184-6-3.55c-1.1-1.933-1.65-4.316-1.65-7.15c0-2.8,0.55-5.167,1.65-7.1c1.333-2.367,3.333-3.55,6-3.55
				s4.683,1.183,6.05,3.55c1.1,1.934,1.65,4.3,1.65,7.1C74.3,54.333,73.75,56.717,72.65,58.65z M66.6,58.25
				c2.133,0,3.2-2.25,3.2-6.75c0-4.467-1.066-6.7-3.2-6.7c-2.1,0-3.15,2.233-3.15,6.7C63.45,56,64.5,58.25,66.6,58.25z"/>
			
				<linearGradient id="SVGID_21_" gradientUnits="userSpaceOnUse" x1="-62.2334" y1="83.2271" x2="-40.9334" y2="83.2271" gradientTransform="matrix(4.694836e-005 -1 1 -0.001 2.288916e-004 4.674215e-004)">
				<stop  offset="0.0745" style="stop-color:#6A034E"/>
				<stop  offset="0.2667" style="stop-color:#830B61"/>
				<stop  offset="0.6706" style="stop-color:#C22193"/>
				<stop  offset="0.9922" style="stop-color:#F934BE"/>
			</linearGradient>
			<path style="fill-rule:evenodd;clip-rule:evenodd;fill:url(#SVGID_21_);" d="M89.25,44.4c1.1,1.934,1.65,4.3,1.65,7.1
				c0,2.833-0.551,5.217-1.65,7.15c-1.333,2.367-3.333,3.55-6,3.55c-2.667,0-4.684-1.184-6.05-3.55c-1.1-1.933-1.65-4.316-1.65-7.15
				c0-2.8,0.55-5.167,1.65-7.1c1.366-2.367,3.383-3.55,6.05-3.55C85.917,40.85,87.917,42.033,89.25,44.4z M86.4,51.5
				c0-4.467-1.051-6.7-3.15-6.7c-2.1,0-3.15,2.233-3.15,6.7c0,4.5,1.05,6.75,3.15,6.75C85.35,58.25,86.4,56,86.4,51.5z"/>
			
				<linearGradient id="SVGID_22_" gradientUnits="userSpaceOnUse" x1="-62.25" y1="99.877" x2="-40.95" y2="99.877" gradientTransform="matrix(4.694836e-005 -1 1 -0.001 2.288916e-004 4.674215e-004)">
				<stop  offset="0.0745" style="stop-color:#6A034E"/>
				<stop  offset="0.2667" style="stop-color:#830B61"/>
				<stop  offset="0.6706" style="stop-color:#C22193"/>
				<stop  offset="0.9922" style="stop-color:#F934BE"/>
			</linearGradient>
			<path style="fill-rule:evenodd;clip-rule:evenodd;fill:url(#SVGID_22_);" d="M105.9,44.4c1.1,1.934,1.649,4.3,1.649,7.1
				c0,2.833-0.55,5.217-1.649,7.15c-1.367,2.367-3.384,3.55-6.051,3.55c-2.666,0-4.666-1.184-6-3.55
				c-1.1-1.933-1.649-4.316-1.649-7.15c0-2.8,0.55-5.167,1.649-7.1c1.334-2.367,3.334-3.55,6-3.55
				C102.517,40.85,104.533,42.033,105.9,44.4z M103.05,51.5c0-4.467-1.066-6.7-3.2-6.7c-2.1,0-3.149,2.233-3.149,6.7
				c0,4.5,1.05,6.75,3.149,6.75C101.983,58.25,103.05,56,103.05,51.5z"/>
			
				<linearGradient id="SVGID_23_" gradientUnits="userSpaceOnUse" x1="-62.1128" y1="115.9766" x2="-41.3378" y2="115.9766" gradientTransform="matrix(4.813478e-005 -1 1 -0.001 8.158396e-005 4.674215e-004)">
				<stop  offset="0.0745" style="stop-color:#6A034E"/>
				<stop  offset="0.2667" style="stop-color:#830B61"/>
				<stop  offset="0.6706" style="stop-color:#C22193"/>
				<stop  offset="0.9922" style="stop-color:#F934BE"/>
			</linearGradient>
			<path style="fill-rule:evenodd;clip-rule:evenodd;fill:url(#SVGID_23_);" d="M108.6,43.2c0-1.333,0.717-2,2.15-2h10.5
				c0.667,0,1.2,0.25,1.6,0.75c0.334,0.433,0.5,0.883,0.5,1.35c0,0.333-0.232,0.967-0.699,1.9l-7.15,14.6
				c-0.467,0.9-0.816,1.467-1.05,1.7c-0.333,0.333-0.8,0.5-1.4,0.5c-0.733,0-1.333-0.233-1.8-0.7c-0.4-0.4-0.6-0.85-0.6-1.35
				c0-0.267,0.1-0.6,0.3-1l7.2-13.75h-7.4c-0.733,0-1.283-0.2-1.65-0.6C108.767,44.233,108.6,43.767,108.6,43.2z"/>
		</g>
	</g>
	
		<use xlink:href="#FlashAICB_x2F_Layer_1_x2F__x3C_Path_x3E_"  width="118.65" height="57.1" y="-57.1" transform="matrix(1 0 0 -1 26.5 85.9502)" style="overflow:visible;opacity:0.2813;enable-background:new    ;"/>
	<g>
		
			<use xlink:href="#FlashAICB_x2F_Layer_1_x2F__x3C_Path_x3E__x5F_1"  width="110.05" height="55.8" y="-55.8" transform="matrix(1 0 0 -1 30.7998 27.1499)" style="overflow:visible;opacity:0.1094;enable-background:new    ;"/>
		
			<use xlink:href="#FlashAICB_x2F_Layer_1_x2F__x3C_Path_x3E__x5F_0"  width="110.05" height="61.294" y="-61.294" transform="matrix(1 0 0 -1 30.7998 27.1499)" style="overflow:visible;opacity:0.0898;enable-background:new    ;"/>
	</g>
</g>
</svg>
