<?xml version="1.0" encoding="iso-8859-1"?>
<!-- Generator: Adobe Illustrator 15.1.0, SVG Export Plug-In . SVG Version: 6.00 Build 0)  -->
<!DOCTYPE svg PUBLIC "-//W3C//DTD SVG 1.1//EN" "http://www.w3.org/Graphics/SVG/1.1/DTD/svg11.dtd">
<svg version="1.1" id="FlashAICB" xmlns="http://www.w3.org/2000/svg" xmlns:xlink="http://www.w3.org/1999/xlink" x="0px" y="0px"
	 width="171.7px" height="171.75px" viewBox="0 0 171.7 171.75" style="enable-background:new 0 0 171.7 171.75;"
	 xml:space="preserve">
<symbol  id="FlashAICB_x5F_1_x2F_Layer_1_x2F__x3C_Clip_Group_0_x3E_" viewBox="0 -7.4 7.55 7.4">
	<g id="Layer_1_16_">
	</g>
	<g>
		<defs>
			<path id="SVGID_1_" d="M5.35-1.95c-0.2,0.067-0.45,0.067-0.75,0c-0.3,0-0.633-0.1-1-0.3C2.7-2.783,1.983-3.633,1.45-4.8L2.4-5.5
				c0.4,0.8,0.883,1.45,1.45,1.95c0.767,0.7,1.5,1.083,2.2,1.15L5.35-1.95z"/>
		</defs>
		<clipPath id="SVGID_2_">
			<use xlink:href="#SVGID_1_"  style="overflow:visible;"/>
		</clipPath>
		<g id="Layer_3_15_" style="clip-path:url(#SVGID_2_);">
			
				<radialGradient id="SVGID_3_" cx="3.1499" cy="-2.6499" r="3.3005" gradientTransform="matrix(0.556 -0.8312 0.8504 0.5688 3.6519 1.4751)" gradientUnits="userSpaceOnUse">
				<stop  offset="0" style="stop-color:#919396"/>
				<stop  offset="1" style="stop-color:#AFB1B4"/>
			</radialGradient>
			<polygon style="fill-rule:evenodd;clip-rule:evenodd;fill:url(#SVGID_3_);" points="4.8,0 7.55,-4.15 2.75,-7.4 0,-3.2 			"/>
		</g>
	</g>
	<g id="Layer_4_15_">
	</g>
</symbol>
<symbol  id="FlashAICB_x5F_1_x2F_Layer_1_x2F__x3C_Clip_Group_0_x3E__x5F_1" viewBox="0 -12.25 12.3 12.25">
	<g id="Layer_1_15_">
	</g>
	<g>
		<defs>
			<path id="SVGID_4_" d="M8.5-3.75C7.8-3.217,6.983-3,6.05-3.1h-0.2C4.95-3.267,4.2-3.667,3.6-4.3S2.717-5.65,2.75-6.45
				c0.033-0.833,0.383-1.5,1.05-2C4.5-8.983,5.317-9.2,6.25-9.1s1.733,0.483,2.4,1.15c0.633,0.633,0.934,1.367,0.9,2.2
				C9.517-4.917,9.167-4.25,8.5-3.75z"/>
		</defs>
		<clipPath id="SVGID_5_">
			<use xlink:href="#SVGID_4_"  style="overflow:visible;"/>
		</clipPath>
		<g id="Layer_3_14_" style="clip-path:url(#SVGID_5_);">
			
				<radialGradient id="SVGID_6_" cx="5.25" cy="-4.2002" r="5.2939" gradientTransform="matrix(0.5565 -0.8308 0.8504 0.5697 5.9004 2.5547)" gradientUnits="userSpaceOnUse">
				<stop  offset="0" style="stop-color:#E0E1E2"/>
				<stop  offset="1" style="stop-color:#8A8D90"/>
			</radialGradient>
			<polygon style="fill-rule:evenodd;clip-rule:evenodd;fill:url(#SVGID_6_);" points="7.55,0 12.3,-7.15 4.75,-12.25 0,-5.15 			
				"/>
		</g>
	</g>
	<g id="Layer_4_14_">
	</g>
</symbol>
<symbol  id="FlashAICB_x5F_1_x2F_Layer_1_x2F__x3C_Clip_Group_0_x3E__x5F_10" viewBox="0 -3.5 3.45 3.5">
	<g id="Layer_1_6_">
	</g>
	<g>
		<defs>
			<path id="SVGID_7_" d="M2.9-1.1C2.733-0.7,2.483-0.433,2.15-0.3C1.883-0.233,1.667-0.217,1.5-0.25
				c-0.467-0.067-0.817-0.367-1.05-0.9C0.317-1.517,0.333-1.883,0.5-2.25C0.667-2.583,0.917-2.833,1.25-3
				c0.333-0.133,0.667-0.117,1,0.05c0.333,0.167,0.567,0.434,0.7,0.8S3.067-1.433,2.9-1.1z"/>
		</defs>
		<clipPath id="SVGID_8_">
			<use xlink:href="#SVGID_7_"  style="overflow:visible;"/>
		</clipPath>
		<g id="Layer_3_5_" style="clip-path:url(#SVGID_8_);">
			
				<radialGradient id="SVGID_9_" cx="-663.6885" cy="-15196.3115" r="2.1148" gradientTransform="matrix(0.1182 -0.993 1.1762 0.1005 17954.3379 867.2559)" gradientUnits="userSpaceOnUse">
				<stop  offset="0" style="stop-color:#D2D3D5"/>
				<stop  offset="1" style="stop-color:#8A8D90"/>
			</radialGradient>
			<polygon style="fill-rule:evenodd;clip-rule:evenodd;fill:url(#SVGID_9_);" points="3.05,0 3.45,-3.25 0.4,-3.5 0,-0.25 			"/>
		</g>
	</g>
	<g id="Layer_4_5_">
	</g>
</symbol>
<symbol  id="FlashAICB_x5F_1_x2F_Layer_1_x2F__x3C_Clip_Group_0_x3E__x5F_11" viewBox="0 -78.25 70.95 78.25">
	<g id="Layer_1_5_">
	</g>
	<g>
		<defs>
			<path id="SVGID_10_" d="M57.1-58.05c-0.967,0.033-2.867,0.316-5.7,0.85c-2.133,0.4-3.6,0.767-4.4,1.1
				c-0.9,0.333-1.6,0.817-2.1,1.45c-0.833,0.967-1.517,1.683-2.05,2.15c-0.967,0.8-1.9,1.233-2.8,1.3
				c-2.566,0.233-4.466,1.034-5.7,2.4c-0.567,0.7-0.983,1.733-1.25,3.1c-0.367,1.867-0.6,2.934-0.7,3.2
				c-0.267,0.733-1.9,2.683-4.9,5.85c-3.4,3.566-5.233,5.533-5.5,5.9c-0.633,0.833-1.167,2-1.6,3.5c-0.3,1.033-0.483,1.867-0.55,2.5
				c-0.033,0.633-0.917,2-2.65,4.1l-2.1,2.75c-0.2,0.167-0.417,0.233-0.65,0.2l-0.25-0.1c-0.267-0.233-0.45-0.617-0.55-1.15
				l1.15-1.85c0.767-1.434,1.167-2.583,1.2-3.45c0.033-1,0.383-2.367,1.05-4.1c0.633-1.6,1.267-2.85,1.9-3.75
				c0.3-0.433,2.167-2.45,5.6-6.05c3.2-3.4,4.95-5.45,5.25-6.15c0.167-0.367,0.434-1.35,0.8-2.95c0.333-1.367,0.8-2.533,1.4-3.5
				c1.133-1.867,3.217-2.983,6.25-3.35c0.867-0.1,1.8-0.316,2.8-0.65c1.1-0.4,1.9-0.817,2.4-1.25c0.867-0.767,1.433-1.233,1.7-1.4
				c0.633-0.467,1.2-0.75,1.7-0.85c0.767-0.133,4.1-0.883,10-2.25c-0.133,0.333-0.2,0.733-0.2,1.2c-0.033,0.3,0.033,0.6,0.2,0.9
				L57.1-58.05z"/>
		</defs>
		<clipPath id="SVGID_11_">
			<use xlink:href="#SVGID_10_"  style="overflow:visible;"/>
		</clipPath>
		<g id="Layer_3_4_" style="clip-path:url(#SVGID_11_);">
			
				<linearGradient id="SVGID_12_" gradientUnits="userSpaceOnUse" x1="-2358.0068" y1="-3141.1563" x2="-2301.8872" y2="-3141.1563" gradientTransform="matrix(0.9444 -0.3288 0.3596 0.9337 3365.4248 2127.7178)">
				<stop  offset="0" style="stop-color:#D2D3D5"/>
				<stop  offset="0.4392" style="stop-color:#BEC0C2"/>
				<stop  offset="0.6588" style="stop-color:#A2A3A7"/>
				<stop  offset="1" style="stop-color:#D5D7D8"/>
			</linearGradient>
			<polygon style="fill-rule:evenodd;clip-rule:evenodd;fill:url(#SVGID_12_);" points="19.55,0 70.95,-20.35 51.4,-78.25 0,-57.9 
							"/>
		</g>
	</g>
	<g id="Layer_4_4_">
	</g>
</symbol>
<symbol  id="FlashAICB_x5F_1_x2F_Layer_1_x2F__x3C_Clip_Group_0_x3E__x5F_12" viewBox="0 -71.05 69.15 71.05">
	<g id="Layer_1_4_">
	</g>
	<g>
		<defs>
			<path id="SVGID_13_" d="M59.55-49.95c0.067,0.1,0.117,0.184,0.15,0.25c-1.833-0.033-3.3,0.034-4.4,0.2
				c-1.5,0.167-2.683,0.333-3.55,0.5c-1.567,0.333-2.5,0.833-2.8,1.5c-0.333,0.7-0.65,1.8-0.95,3.3c-0.233,1.2-0.383,2.233-0.45,3.1
				c-0.1,0.767-0.633,1.6-1.6,2.5c-1.167,1.067-2.6,1.833-4.3,2.3c-2.267,0.367-3.85,0.65-4.75,0.85c-1.467,0.3-2.467,0.934-3,1.9
				c-0.633,1.2-2.2,2.933-4.7,5.2c-2.534,2.3-4.5,3.75-5.9,4.35c-1.867,0.8-3.667,1.233-5.4,1.3c-0.867,0-1.55,0.017-2.05,0.05
				c-0.934,0.1-1.567,0.333-1.9,0.7L10.4-18.7l-0.75-1.05c-0.2-0.367-0.217-0.8-0.05-1.3l2.2-2c1.6-1.434,2.684-2.35,3.25-2.75
				c0.567-0.367,1.617-0.684,3.15-0.95c0.833-0.133,1.95-0.283,3.35-0.45c1.867-0.367,5.8-3.283,11.8-8.75
				c0.933-0.8,1.783-1.383,2.55-1.75c0.8-0.333,1.867-0.6,3.2-0.8c1.9-0.233,3.017-0.4,3.35-0.5c0.966-0.233,1.667-0.633,2.1-1.2
				c0.733-0.966,1.317-3.083,1.75-6.35c0.367-2.434,2-3.934,4.9-4.5c2.233-0.4,5.017-0.784,8.35-1.15
				c-0.367,0.1-0.483,0.567-0.35,1.4C59.3-50.5,59.417-50.217,59.55-49.95z"/>
		</defs>
		<clipPath id="SVGID_14_">
			<use xlink:href="#SVGID_13_"  style="overflow:visible;"/>
		</clipPath>
		<g id="Layer_3_3_" style="clip-path:url(#SVGID_14_);">
			
				<linearGradient id="SVGID_15_" gradientUnits="userSpaceOnUse" x1="-1957.9365" y1="-2332.1958" x2="-1900.1434" y2="-2332.1958" gradientTransform="matrix(0.9677 -0.2522 0.2839 0.9594 2563.626 1715.459)">
				<stop  offset="0" style="stop-color:#D2D3D5"/>
				<stop  offset="0.1961" style="stop-color:#98999D"/>
				<stop  offset="0.5216" style="stop-color:#CACCCE"/>
				<stop  offset="0.698" style="stop-color:#BDBEC0"/>
				<stop  offset="1" style="stop-color:#E0E1E2"/>
			</linearGradient>
			<polygon style="fill-rule:evenodd;clip-rule:evenodd;fill:url(#SVGID_15_);" points="13.95,0 69.15,-16.55 55.2,-71.05 0,-54.5 
							"/>
		</g>
	</g>
	<g id="Layer_4_3_">
	</g>
</symbol>
<symbol  id="FlashAICB_x5F_1_x2F_Layer_1_x2F__x3C_Clip_Group_0_x3E__x5F_13" viewBox="0 -62.8 59.2 62.8">
	<g id="Layer_1_3_">
	</g>
	<g>
		<defs>
			<path id="SVGID_16_" d="M49.65-46.3c-0.566,0.6-0.833,1-0.8,1.2l-0.25,0.35c-0.633,1.333-1.117,3.467-1.45,6.4
				c-0.066,0.767-0.583,1.6-1.55,2.5c-1.167,1.033-2.6,1.783-4.3,2.25c-2.267,0.4-3.85,0.684-4.75,0.85
				c-1.466,0.3-2.466,0.933-3,1.9c-0.633,1.2-2.2,2.934-4.7,5.2c-2.5,2.333-4.467,3.8-5.9,4.4c-1.833,0.767-3.617,1.2-5.35,1.3
				c-0.867,0-1.567,0.017-2.1,0.05c-0.933,0.1-1.567,0.333-1.9,0.7c-0.9,0.8-1.684,1.733-2.35,2.8l-0.75,1.35h-0.2
				c-0.466-0.1-0.867-0.534-1.2-1.3c-0.167-0.433-0.233-0.967-0.2-1.6l2.4-2.2c1.7-1.533,2.833-2.483,3.4-2.85
				c0.566-0.4,1.617-0.733,3.15-1c0.833-0.133,1.95-0.283,3.35-0.45c1.233-0.233,3.35-1.566,6.35-4c1.067-0.867,2.9-2.45,5.5-4.75
				c0.9-0.8,1.733-1.383,2.5-1.75c0.8-0.333,1.867-0.6,3.2-0.8c1.6-0.233,2.7-0.433,3.3-0.6c0.9-0.267,1.617-0.633,2.15-1.1
				c1.066-1.066,1.783-3.033,2.15-5.9c0.1-0.667,0.633-1.433,1.6-2.3c0.867-0.833,1.733-1.434,2.6-1.8
				C50.55-47.283,50.25-46.9,49.65-46.3z"/>
		</defs>
		<clipPath id="SVGID_17_">
			<use xlink:href="#SVGID_16_"  style="overflow:visible;"/>
		</clipPath>
		<g id="Layer_3_2_" style="clip-path:url(#SVGID_17_);">
			
				<linearGradient id="SVGID_18_" gradientUnits="userSpaceOnUse" x1="-1959.208" y1="-2327.5605" x2="-1910.2013" y2="-2327.5605" gradientTransform="matrix(0.9677 -0.252 0.2839 0.9594 2563.0181 1714.0557)">
				<stop  offset="0" style="stop-color:#5E6062"/>
				<stop  offset="0.1294" style="stop-color:#ACADB0"/>
				<stop  offset="0.3529" style="stop-color:#747679"/>
				<stop  offset="0.6588" style="stop-color:#B1B3B7"/>
				<stop  offset="1" style="stop-color:#464647"/>
			</linearGradient>
			<polygon style="fill-rule:evenodd;clip-rule:evenodd;fill:url(#SVGID_18_);" points="12.5,0 59.2,-14 46.7,-62.8 0,-48.75 			"/>
		</g>
	</g>
	<g id="Layer_4_2_">
	</g>
</symbol>
<symbol  id="FlashAICB_x5F_1_x2F_Layer_1_x2F__x3C_Clip_Group_0_x3E__x5F_14" viewBox="0 -10.8 18.6 10.8">
	<g id="Layer_1_2_">
	</g>
	<g>
		<defs>
			<path id="SVGID_19_" d="M17.55-0.8L17.35,0c0.066-1.9-0.633-3.617-2.1-5.15c-1.5-1.5-3.367-2.417-5.6-2.75
				c-2.2-0.333-4.217,0-6.05,1c-1.833,1.033-3,2.467-3.5,4.3l0.05-0.8c0.267-2.067,1.367-3.684,3.3-4.85
				C5.35-9.45,7.5-9.867,9.9-9.5c2.4,0.333,4.35,1.35,5.85,3.05C17.217-4.75,17.817-2.867,17.55-0.8z"/>
		</defs>
		<clipPath id="SVGID_20_">
			<use xlink:href="#SVGID_19_"  style="overflow:visible;"/>
		</clipPath>
		<g id="Layer_3_1_" style="clip-path:url(#SVGID_20_);">
			<linearGradient id="SVGID_21_" gradientUnits="userSpaceOnUse" x1="0.7124" y1="-6.6499" x2="17.8874" y2="-4.1499">
				<stop  offset="0" style="stop-color:#D2D3D5"/>
				<stop  offset="0.5216" style="stop-color:#848789"/>
				<stop  offset="1" style="stop-color:#E0E1E2"/>
			</linearGradient>
			<polygon style="fill-rule:evenodd;clip-rule:evenodd;fill:url(#SVGID_21_);" points="0,-2.6 17.4,0 18.6,-8.2 1.2,-10.8 			"/>
		</g>
	</g>
	<g id="Layer_4_1_">
	</g>
</symbol>
<symbol  id="FlashAICB_x5F_1_x2F_Layer_1_x2F__x3C_Clip_Group_0_x3E__x5F_2" viewBox="0 -35.2 31.65 35.2">
	<g id="Layer_1_14_">
	</g>
	<g>
		<defs>
			<path id="SVGID_22_" d="M24.6-16.3c-0.333,2.167-1.45,3.883-3.35,5.15c-1.933,1.267-4.117,1.733-6.55,1.4
				c-2.4-0.367-4.35-1.45-5.85-3.25s-2.083-3.767-1.75-5.9c0.3-2.167,1.417-3.9,3.35-5.2c1.9-1.267,4.066-1.717,6.5-1.35
				c2.433,0.333,4.383,1.4,5.85,3.2C24.3-20.45,24.9-18.467,24.6-16.3z M9.35-13.4c0.3,0.367,0.7,0.583,1.2,0.65
				c0.5,0.1,0.95,0.017,1.35-0.25s0.633-0.633,0.7-1.1c0.066-0.433-0.067-0.833-0.4-1.2c-0.333-0.367-0.733-0.583-1.2-0.65
				c-0.5-0.1-0.95,0-1.35,0.3C9.283-15.383,9.067-15.033,9-14.6C8.933-14.167,9.05-13.767,9.35-13.4z M8.4-19.95
				C8-19.683,7.767-19.333,7.7-18.9c-0.067,0.433,0.05,0.85,0.35,1.25c0.3,0.367,0.7,0.583,1.2,0.65s0.95-0.033,1.35-0.3
				c0.4-0.267,0.633-0.617,0.7-1.05c0.067-0.467-0.05-0.883-0.35-1.25c-0.3-0.367-0.7-0.583-1.2-0.65S8.8-20.217,8.4-19.95z
				 M13.35-23.3c-0.267-0.333-0.667-0.567-1.2-0.7c-0.5-0.067-0.95,0.033-1.35,0.3c-0.4,0.233-0.617,0.583-0.65,1.05
				c-0.066,0.467,0.05,0.883,0.35,1.25s0.7,0.583,1.2,0.65s0.95-0.033,1.35-0.3c0.4-0.267,0.633-0.617,0.7-1.05
				C13.817-22.567,13.683-22.967,13.35-23.3z M13.2-12.25c-0.034,0.433,0.1,0.833,0.4,1.2c0.3,0.367,0.7,0.583,1.2,0.65
				c0.5,0.066,0.95-0.033,1.35-0.3c0.4-0.267,0.633-0.617,0.7-1.05c0.066-0.467-0.067-0.867-0.4-1.2c-0.3-0.367-0.7-0.583-1.2-0.65
				c-0.5-0.066-0.95,0.033-1.35,0.3C13.5-13.067,13.267-12.717,13.2-12.25z M18.1-24.35c-0.3-0.367-0.7-0.583-1.2-0.65
				s-0.95,0.033-1.35,0.3c-0.4,0.267-0.633,0.617-0.7,1.05c-0.067,0.433,0.05,0.85,0.35,1.25c0.3,0.367,0.7,0.583,1.2,0.65
				s0.95-0.033,1.35-0.3c0.4-0.267,0.633-0.617,0.7-1.05C18.517-23.567,18.4-23.983,18.1-24.35z M17.95-13.3
				c-0.067,0.466,0.05,0.883,0.35,1.25c0.3,0.367,0.7,0.583,1.2,0.65c0.5,0.1,0.95,0.017,1.35-0.25s0.633-0.633,0.7-1.1
				c0.067-0.433-0.05-0.833-0.35-1.2c-0.333-0.367-0.733-0.583-1.2-0.65c-0.467-0.1-0.917-0.017-1.35,0.25
				C18.25-14.083,18.017-13.733,17.95-13.3z M22.35-22c-0.4-0.4-0.817-0.617-1.25-0.65c-0.467-0.067-0.9,0.033-1.3,0.3
				c-0.4,0.233-0.633,0.583-0.7,1.05c-0.067,0.433,0.05,0.833,0.35,1.2c0.3,0.367,0.7,0.6,1.2,0.7c0.5,0.066,0.95-0.033,1.35-0.3
				c0.4-0.267,0.633-0.617,0.7-1.05C22.767-21.217,22.65-21.633,22.35-22z M23.6-17.7c-0.3-0.367-0.7-0.583-1.2-0.65
				c-0.5-0.066-0.95,0.033-1.35,0.3c-0.4,0.233-0.633,0.583-0.7,1.05c-0.033,0.467,0.1,0.883,0.4,1.25s0.7,0.583,1.2,0.65
				c0.5,0.067,0.95-0.033,1.35-0.3c0.4-0.267,0.633-0.617,0.7-1.05C24.067-16.917,23.933-17.333,23.6-17.7z"/>
		</defs>
		<clipPath id="SVGID_23_">
			<use xlink:href="#SVGID_22_"  style="overflow:visible;"/>
		</clipPath>
		<g id="Layer_3_13_" style="clip-path:url(#SVGID_23_);">
			<linearGradient id="SVGID_24_" gradientUnits="userSpaceOnUse" x1="7.7012" y1="-9.624" x2="21.4012" y2="-23.074">
				<stop  offset="0" style="stop-color:#9A9B9E"/>
				<stop  offset="1" style="stop-color:#E8E8E8"/>
			</linearGradient>
			<polygon style="fill-rule:evenodd;clip-rule:evenodd;fill:url(#SVGID_24_);" points="15.7,0 31.65,-17.4 15.95,-35.2 0,-17.85 
							"/>
		</g>
	</g>
	<g id="Layer_4_13_">
	</g>
</symbol>
<symbol  id="FlashAICB_x5F_1_x2F_Layer_1_x2F__x3C_Clip_Group_0_x3E__x5F_3" viewBox="0 -10.85 18.6 10.85">
	<g id="Layer_1_13_">
	</g>
	<g>
		<defs>
			<path id="SVGID_25_" d="M17.55-0.8L17.35,0c0.033-1.9-0.684-3.617-2.15-5.15c-1.467-1.5-3.317-2.417-5.55-2.75
				c-2.233-0.333-4.267,0-6.1,1c-1.833,1.033-3,2.467-3.5,4.3l0.1-0.8c0.267-2.067,1.367-3.684,3.3-4.85
				C5.35-9.45,7.5-9.867,9.9-9.5c2.4,0.333,4.35,1.35,5.85,3.05C17.217-4.75,17.817-2.867,17.55-0.8z"/>
		</defs>
		<clipPath id="SVGID_26_">
			<use xlink:href="#SVGID_25_"  style="overflow:visible;"/>
		</clipPath>
		<g id="Layer_3_12_" style="clip-path:url(#SVGID_26_);">
			<linearGradient id="SVGID_27_" gradientUnits="userSpaceOnUse" x1="0.7158" y1="-6.6743" x2="17.8908" y2="-4.1743">
				<stop  offset="0" style="stop-color:#D2D3D5"/>
				<stop  offset="0.5216" style="stop-color:#848789"/>
				<stop  offset="1" style="stop-color:#E0E1E2"/>
			</linearGradient>
			<polygon style="fill-rule:evenodd;clip-rule:evenodd;fill:url(#SVGID_27_);" points="0,-2.6 17.4,0 18.6,-8.2 1.2,-10.85 			"/>
		</g>
	</g>
	<g id="Layer_4_12_">
	</g>
</symbol>
<symbol  id="FlashAICB_x5F_1_x2F_Layer_1_x2F__x3C_Clip_Group_0_x3E__x5F_4" viewBox="0 -36.05 32.45 36.05">
	<g id="Layer_1_12_">
	</g>
	<g>
		<defs>
			<path id="SVGID_28_" d="M25.05-17.15c-0.333,2.233-1.466,4.1-3.4,5.6c-2.033,1.566-4.233,2.167-6.6,1.8
				c-2.367-0.333-4.3-1.55-5.8-3.65c-1.467-2-2.033-4.117-1.7-6.35c0.3-2.167,1.417-3.883,3.35-5.15c1.934-1.3,4.1-1.767,6.5-1.4
				c2.434,0.367,4.383,1.45,5.85,3.25C24.75-21.283,25.35-19.317,25.05-17.15z M9.8-14.25c0.3,0.367,0.7,0.6,1.2,0.7
				c0.5,0.066,0.95-0.034,1.35-0.3s0.633-0.617,0.7-1.05c0.067-0.467-0.05-0.883-0.35-1.25c-0.4-0.4-0.817-0.617-1.25-0.65
				c-0.467-0.067-0.9,0.033-1.3,0.3c-0.4,0.233-0.633,0.583-0.7,1.05C9.383-15.017,9.5-14.617,9.8-14.25z M8.85-20.8
				c-0.4,0.233-0.633,0.583-0.7,1.05c-0.033,0.467,0.1,0.883,0.4,1.25c0.3,0.367,0.7,0.583,1.2,0.65c0.5,0.067,0.95-0.033,1.35-0.3
				s0.617-0.617,0.65-1.05c0.067-0.466-0.05-0.883-0.35-1.25c-0.3-0.367-0.7-0.583-1.2-0.65C9.7-21.167,9.25-21.067,8.85-20.8z
				 M13.85-24.15c-0.333-0.367-0.75-0.6-1.25-0.7c-0.5-0.066-0.934,0.033-1.3,0.3c-0.4,0.267-0.633,0.617-0.7,1.05
				c-0.067,0.467,0.05,0.883,0.35,1.25c0.3,0.367,0.7,0.583,1.2,0.65c0.5,0.067,0.95-0.033,1.35-0.3c0.4-0.233,0.633-0.583,0.7-1.05
				C14.267-23.383,14.15-23.783,13.85-24.15z M13.7-13.1c-0.067,0.434,0.05,0.833,0.35,1.2c0.3,0.367,0.7,0.583,1.2,0.65
				s0.95-0.033,1.35-0.3c0.4-0.233,0.633-0.567,0.7-1c0.067-0.467-0.066-0.883-0.4-1.25c-0.3-0.367-0.7-0.583-1.2-0.65
				c-0.5-0.066-0.95,0.034-1.35,0.3C13.983-13.917,13.767-13.567,13.7-13.1z M18.55-25.15c-0.3-0.367-0.7-0.583-1.2-0.65
				c-0.5-0.067-0.95,0.033-1.35,0.3c-0.4,0.233-0.633,0.583-0.7,1.05c-0.033,0.434,0.1,0.833,0.4,1.2c0.3,0.367,0.7,0.583,1.2,0.65
				c0.5,0.067,0.95-0.033,1.35-0.3s0.617-0.617,0.65-1.05C18.967-24.383,18.85-24.783,18.55-25.15z M18.4-14.1
				c-0.066,0.434,0.05,0.833,0.35,1.2c0.333,0.367,0.75,0.6,1.25,0.7c0.5,0.067,0.933-0.033,1.3-0.3c0.4-0.267,0.633-0.633,0.7-1.1
				c0.067-0.433-0.05-0.833-0.35-1.2c-0.333-0.367-0.733-0.583-1.2-0.65c-0.567-0.066-1.017,0.034-1.35,0.3
				C18.7-14.917,18.467-14.567,18.4-14.1z M22.8-22.85c-0.267-0.333-0.667-0.55-1.2-0.65c-0.5-0.067-0.95,0.033-1.35,0.3
				c-0.4,0.233-0.633,0.583-0.7,1.05c-0.066,0.467,0.05,0.883,0.35,1.25c0.333,0.367,0.733,0.583,1.2,0.65
				c0.5,0.067,0.95-0.033,1.35-0.3c0.4-0.267,0.633-0.617,0.7-1.05C23.217-22.067,23.1-22.483,22.8-22.85z M24.05-18.55
				c-0.3-0.367-0.7-0.583-1.2-0.65c-0.5-0.066-0.95,0.034-1.35,0.3c-0.367,0.233-0.583,0.583-0.65,1.05
				C20.783-17.417,20.9-17,21.2-16.6c0.3,0.367,0.7,0.583,1.2,0.65c0.5,0.067,0.95-0.033,1.35-0.3s0.633-0.617,0.7-1.05
				C24.517-17.767,24.383-18.183,24.05-18.55z"/>
		</defs>
		<clipPath id="SVGID_29_">
			<use xlink:href="#SVGID_28_"  style="overflow:visible;"/>
		</clipPath>
		<g id="Layer_3_11_" style="clip-path:url(#SVGID_29_);">
			<linearGradient id="SVGID_30_" gradientUnits="userSpaceOnUse" x1="7.9888" y1="-9.936" x2="21.9888" y2="-23.686">
				<stop  offset="0" style="stop-color:#565759"/>
				<stop  offset="1" style="stop-color:#9FA1A4"/>
			</linearGradient>
			<polygon style="fill-rule:evenodd;clip-rule:evenodd;fill:url(#SVGID_30_);" points="16.05,0 32.45,-17.85 16.4,-36.05 0,-18.2 
							"/>
		</g>
	</g>
	<g id="Layer_4_11_">
	</g>
</symbol>
<symbol  id="FlashAICB_x5F_1_x2F_Layer_1_x2F__x3C_Clip_Group_0_x3E__x5F_5" viewBox="0 -24.25 18.4 24.25">
	<g id="Layer_1_11_">
	</g>
	<g>
		<defs>
			<path id="SVGID_31_" d="M12.1-6.4c-0.5,0.467-1.067,0.667-1.7,0.6L9.75-6.05C9.25-7.15,8.633-8.233,7.9-9.3
				c-0.7-1.034-1.816-2.233-3.35-3.6l1.35-2.7c1-1.667,1.717-2.217,2.15-1.65c0.7,0.867,2.35,3.183,4.95,6.95
				C13.2-8.433,12.9-7.133,12.1-6.4z"/>
		</defs>
		<clipPath id="SVGID_32_">
			<use xlink:href="#SVGID_31_"  style="overflow:visible;"/>
		</clipPath>
		<g id="Layer_3_10_" style="clip-path:url(#SVGID_32_);">
			
				<linearGradient id="SVGID_33_" gradientUnits="userSpaceOnUse" x1="-3459.5908" y1="-8916.2949" x2="-3456.0818" y2="-8916.2949" gradientTransform="matrix(0.6555 -0.7552 0.6395 0.7888 7977.1548 4410.248)">
				<stop  offset="0" style="stop-color:#D2D3D5"/>
				<stop  offset="0.4392" style="stop-color:#BEC0C2"/>
				<stop  offset="0.6588" style="stop-color:#A2A3A7"/>
				<stop  offset="1" style="stop-color:#D5D7D8"/>
			</linearGradient>
			<polygon style="fill-rule:evenodd;clip-rule:evenodd;fill:url(#SVGID_33_);" points="8.7,0 18.4,-12.3 9.7,-24.25 0,-11.95 			
				"/>
		</g>
	</g>
	<g id="Layer_4_10_">
	</g>
</symbol>
<symbol  id="FlashAICB_x5F_1_x2F_Layer_1_x2F__x3C_Clip_Group_0_x3E__x5F_6" viewBox="0 -31.2 30.5 31.2">
	<g id="Layer_1_10_">
	</g>
	<g>
		<defs>
			<path id="SVGID_34_" d="M27.3-10.6c-4.466,2.567-8.183,4.184-11.15,4.85c-1.367,0.333-2.9,0.367-4.6,0.1
				c-1.6-0.233-3.183-0.7-4.75-1.4C5.267-7.75,3.967-8.567,2.9-9.5c-0.6-0.533-0.633-1.283-0.1-2.25
				c0.567-1.033,1.467-1.617,2.7-1.75c1.1-0.133,3.217-0.783,6.35-1.95c3.4-1.267,5.95-2.4,7.65-3.4c0.7-0.4,3.383-2.217,8.05-5.45
				L27.3-10.6z"/>
		</defs>
		<clipPath id="SVGID_35_">
			<use xlink:href="#SVGID_34_"  style="overflow:visible;"/>
		</clipPath>
		<g id="Layer_3_9_" style="clip-path:url(#SVGID_35_);">
			
				<linearGradient id="SVGID_36_" gradientUnits="userSpaceOnUse" x1="985.0869" y1="-16851.5273" x2="1003.7535" y2="-16851.5273" gradientTransform="matrix(-0.0844 -0.9964 0.9939 -0.1148 16847.2109 -958.8457)">
				<stop  offset="0" style="stop-color:#848789"/>
				<stop  offset="1" style="stop-color:#E0E1E2"/>
			</linearGradient>
			<polygon style="fill-rule:evenodd;clip-rule:evenodd;fill:url(#SVGID_36_);" points="30.5,-4.05 28.75,-31.2 0,-27.2 1.75,0 			
				"/>
		</g>
	</g>
	<g id="Layer_4_9_">
	</g>
</symbol>
<symbol  id="FlashAICB_x5F_1_x2F_Layer_1_x2F__x3C_Clip_Group_0_x3E__x5F_7" viewBox="0 -38.6 38.45 38.6">
	<g id="Layer_1_9_">
	</g>
	<g>
		<defs>
			<path id="SVGID_37_" d="M29-12.6c-1.5,0.333-3.367,0.517-5.6,0.55c-2.4,0.033-4.617-0.1-6.65-0.4c-1.9-0.267-3.483-0.7-4.75-1.3
				c-2.633-1.3-4.833-2.933-6.6-4.9c-0.867-0.967-1.483-1.817-1.85-2.55c3-1.133,5.05-1.783,6.15-1.95l15.15-2.6l9.7,10.9
				C33.517-13.95,31.667-13.2,29-12.6z"/>
		</defs>
		<clipPath id="SVGID_38_">
			<use xlink:href="#SVGID_37_"  style="overflow:visible;"/>
		</clipPath>
		<g id="Layer_3_8_" style="clip-path:url(#SVGID_38_);">
			
				<linearGradient id="SVGID_39_" gradientUnits="userSpaceOnUse" x1="17865.9082" y1="-13484.9541" x2="17890.7871" y2="-13484.9541" gradientTransform="matrix(-0.9566 0.2914 -0.2344 -0.974 13961.9561 -18363.3008)">
				<stop  offset="0" style="stop-color:#848789"/>
				<stop  offset="1" style="stop-color:#E0E1E2"/>
			</linearGradient>
			<polygon style="fill-rule:evenodd;clip-rule:evenodd;fill:url(#SVGID_39_);" points="32.85,-38.6 0,-27.15 5.6,0 38.45,-11.5 			
				"/>
		</g>
	</g>
	<g id="Layer_4_8_">
	</g>
</symbol>
<symbol  id="FlashAICB_x5F_1_x2F_Layer_1_x2F__x3C_Clip_Group_0_x3E__x5F_8" viewBox="0 -27.75 20.35 27.75">
	<g id="Layer_1_8_">
	</g>
	<g>
		<defs>
			<polygon id="SVGID_40_" points="8.7,-5.75 5.25,-16.3 7.75,-24.3 13.8,-15.4 13.95,-3.25 			"/>
		</defs>
		<clipPath id="SVGID_41_">
			<use xlink:href="#SVGID_40_"  style="overflow:visible;"/>
		</clipPath>
		<g id="Layer_3_7_" style="clip-path:url(#SVGID_41_);">
			
				<linearGradient id="SVGID_42_" gradientUnits="userSpaceOnUse" x1="17892.375" y1="-13469.5039" x2="17899.5391" y2="-13469.5039" gradientTransform="matrix(-0.9561 0.2931 -0.2354 -0.9738 13949.9287 -18375.6309)">
				<stop  offset="0" style="stop-color:#848789"/>
				<stop  offset="1" style="stop-color:#E0E1E2"/>
			</linearGradient>
			<polygon style="fill-rule:evenodd;clip-rule:evenodd;fill:url(#SVGID_42_);" points="15.75,-27.75 0,-22.25 4.6,0 20.35,-5.5 			
				"/>
		</g>
	</g>
	<g id="Layer_4_7_">
	</g>
</symbol>
<symbol  id="FlashAICB_x5F_1_x2F_Layer_1_x2F__x3C_Clip_Group_0_x3E__x5F_9" viewBox="0 -1.05 1.85 1.05">
	<g id="Layer_1_7_">
	</g>
	<g>
		<defs>
			<path id="SVGID_43_" d="M1.75-0.25c-0.2,0.167-0.433,0.233-0.7,0.2V-0.1c-0.267-0.033-0.566-0.167-0.9-0.4v-0.55L0.9-0.8
				c0.3,0.066,0.617,0.083,0.95,0.05L1.75-0.25z"/>
		</defs>
		<clipPath id="SVGID_44_">
			<use xlink:href="#SVGID_43_"  style="overflow:visible;"/>
		</clipPath>
		<g id="Layer_3_6_" style="clip-path:url(#SVGID_44_);">
			
				<radialGradient id="SVGID_45_" cx="-696.6084" cy="-15214.9834" r="1.183" gradientTransform="matrix(0.1162 -0.9932 1.1728 0.1057 17926.7773 915.6074)" gradientUnits="userSpaceOnUse">
				<stop  offset="0" style="stop-color:#919396"/>
				<stop  offset="1" style="stop-color:#AFB1B4"/>
			</radialGradient>
			<polygon style="fill-rule:evenodd;clip-rule:evenodd;fill:url(#SVGID_45_);" points="1.75,0 1.85,-0.9 0.15,-1.05 0,-0.1 			"/>
		</g>
	</g>
	<g id="Layer_4_6_">
	</g>
</symbol>
<symbol  id="FlashAICB_x5F_1_x2F_Layer_1_x2F__x3C_Compound_Path_x3E_" viewBox="-0.008 -58.3 26.524 58.3">
	<g id="Layer_1_17_">
		<path style="fill-rule:evenodd;clip-rule:evenodd;" d="M17.85-2.4c1.667-1.567,2.55-3.517,2.65-5.85l1-26.45
			c1.5-1.2,2.683-2.65,3.55-4.35c0.9-1.733,1.383-3.567,1.45-5.5c0.167-3.633-1-6.8-3.5-9.5c-2.467-2.667-5.55-4.083-9.25-4.25h-0.5
			c-3.567,0-6.633,1.216-9.2,3.65C1.517-52.183,0.167-49.167,0-45.6c-0.067,1.934,0.267,3.8,1,5.6c0.733,1.767,1.817,3.3,3.25,4.6
			L3.2-8.9C3.1-6.567,3.85-4.517,5.45-2.75c1.566,1.733,3.566,2.65,6,2.75h0.45C14.233,0,16.217-0.8,17.85-2.4z M13.7-6.7
			C13.2-6.233,12.6-6,11.9-6h-0.25c-0.733-0.067-1.333-0.333-1.8-0.8C9.383-7.4,9.167-8.017,9.2-8.65l1.05-27.6l0.05-0.2l0.15-1.7
			l-1.4-1.05c-1-0.7-1.767-1.6-2.3-2.7C6.217-42.967,5.967-44.117,6-45.35c0.067-1.933,0.8-3.583,2.2-4.95c1.4-1.333,3.083-2,5.05-2
			h0.3c1.934,0.033,3.617,0.8,5.05,2.3c1.367,1.533,2,3.267,1.9,5.2c-0.1,2.6-1.267,4.583-3.5,5.95l-1.5,0.9l-1,29.5
			C14.467-7.783,14.2-7.2,13.7-6.7z"/>
	</g>
</symbol>
<symbol  id="FlashAICB_x5F_1_x2F_Layer_1_x2F__x3C_Group_x3E_" viewBox="0 -66.417 119.25 66.417">
	<g id="Layer_1_21_">
		<g>
			
				<use xlink:href="#FlashAICB_x5F_1_x2F_Layer_1_x2F__x3C_Path_x3E__x5F_1"  width="119.25" height="60.45" y="-60.45" style="overflow:visible;opacity:0.1992;enable-background:new    ;"/>
			
				<use xlink:href="#FlashAICB_x5F_1_x2F_Layer_1_x2F__x3C_Path_x3E__x5F_0"  width="119.25" height="66.417" y="-66.417" style="overflow:visible;opacity:0.1211;enable-background:new    ;"/>
		</g>
	</g>
</symbol>
<symbol  id="FlashAICB_x5F_1_x2F_Layer_1_x2F__x3C_Path_x3E_" viewBox="0 -61.9 128.65 61.9">
	<g id="Layer_1_18_">
		
			<radialGradient id="SVGID_46_" cx="64.3252" cy="-30.9502" r="50.4757" gradientTransform="matrix(1 0 0 -1 0 -61.9004)" gradientUnits="userSpaceOnUse">
			<stop  offset="0" style="stop-color:#C9EEE7;stop-opacity:0"/>
			<stop  offset="0.0667" style="stop-color:#C5E4E0;stop-opacity:0.051"/>
			<stop  offset="0.1804" style="stop-color:#BBC7CD;stop-opacity:0.1882"/>
			<stop  offset="0.3294" style="stop-color:#A99AAF;stop-opacity:0.4118"/>
			<stop  offset="0.5059" style="stop-color:#925B86;stop-opacity:0.7176"/>
			<stop  offset="0.651" style="stop-color:#7D2260"/>
		</radialGradient>
		<path style="fill-rule:evenodd;clip-rule:evenodd;fill:url(#SVGID_46_);" d="M128.05-0.3l0.6,0.3
			c-0.667-17.233-7.217-31.85-19.65-43.85C96.533-55.883,81.633-61.9,64.3-61.9c-17.033,0-31.75,5.816-44.15,17.45
			C7.817-32.85,1.1-18.65,0-1.85c5-13,13.233-23.5,24.7-31.5c11.7-8.2,24.716-12.3,39.05-12.3c14.633,0,27.883,4.25,39.75,12.75
			C115.1-24.567,123.283-13.7,128.05-0.3z"/>
	</g>
</symbol>
<symbol  id="FlashAICB_x5F_1_x2F_Layer_1_x2F__x3C_Path_x3E__x5F_0" viewBox="0 -66.417 119.25 66.417">
	<g id="Layer_1_20_">
		<path style="fill-rule:evenodd;clip-rule:evenodd;fill:#FFFFFF;" d="M115.45-37.2c2.533-6.1,3.8-11.85,3.8-17.25
			c0-5.367-1.567-8.75-4.7-10.15c-2.533-1.167-6.783-1.167-12.75,0c-7.9,1.9-14.216,3.367-18.95,4.4
			c-8.667,1.833-16.4,2.75-23.2,2.75c-6.867,0-14.6-0.983-23.2-2.95c-9.067-2.4-15.4-4.017-19-4.85c-6-1.367-10.25-1.533-12.75-0.5
			C1.567-64.483,0-61.167,0-55.8c0,5.933,1.267,12.066,3.8,18.4c2.7,6.7,6.483,12.733,11.35,18.1C26.75-6.433,41.583,0,59.65,0
			C77.483,0,92.3-6.483,104.1-19.45C108.933-24.783,112.717-30.7,115.45-37.2z"/>
	</g>
</symbol>
<symbol  id="FlashAICB_x5F_1_x2F_Layer_1_x2F__x3C_Path_x3E__x5F_1" viewBox="0 -60.45 119.25 60.45">
	<g id="Layer_1_19_">
		
			<linearGradient id="SVGID_47_" gradientUnits="userSpaceOnUse" x1="16160.6563" y1="-58.4917" x2="16221.0479" y2="-58.4917" gradientTransform="matrix(1.654944e-005 1 -1 -0.001 0.8657 -16221.1064)">
			<stop  offset="0.1294" style="stop-color:#E5B9B2"/>
			<stop  offset="0.9255" style="stop-color:#FFFFFF"/>
		</linearGradient>
		<path style="fill-rule:evenodd;clip-rule:evenodd;fill:url(#SVGID_47_);" d="M104.1-19.45c4.833-5.333,8.617-11.25,11.35-17.75
			c2.533-6.1,3.8-11.85,3.8-17.25c0-1.833-0.183-3.45-0.55-4.85c-2,11.966-7.85,22.617-17.55,31.95
			C89.75-16.383,75.917-10.9,59.65-10.9c-16.533,0-30.45-5.483-41.75-16.45C8.133-36.783,2.333-47.817,0.5-60.45
			C0.167-59.017,0-57.467,0-55.8c0,5.933,1.267,12.066,3.8,18.4c2.7,6.7,6.483,12.733,11.35,18.1C26.75-6.433,41.583,0,59.65,0
			C77.483,0,92.3-6.483,104.1-19.45z"/>
	</g>
</symbol>
<g>
	<path style="fill-rule:evenodd;clip-rule:evenodd;fill:#FFFFFF;" d="M86.5,0.1c11.634,0,22.767,2.25,33.4,6.75
		c10.267,4.367,19.366,10.517,27.3,18.45c7.899,7.934,14.033,17.034,18.399,27.3c4.5,10.633,6.75,21.767,6.75,33.4
		c0,11.634-2.25,22.767-6.75,33.4c-4.366,10.267-10.5,19.366-18.399,27.3c-7.934,7.899-17.033,14.033-27.3,18.399
		c-10.634,4.5-21.767,6.75-33.4,6.75c-11.633,0-22.767-2.25-33.4-6.75c-10.267-4.366-19.367-10.5-27.3-18.399
		c-7.933-7.934-14.066-17.033-18.4-27.3C2.9,108.767,0.65,97.634,0.65,86c0-11.633,2.25-22.767,6.75-33.4
		c4.333-10.267,10.467-19.367,18.4-27.3c7.934-7.933,17.034-14.083,27.3-18.45C63.733,2.35,74.867,0.1,86.5,0.1z"/>
	<g>
		<g>
			
				<linearGradient id="SVGID_48_" gradientUnits="userSpaceOnUse" x1="-157.7861" y1="86.501" x2="-14.3359" y2="86.501" gradientTransform="matrix(6.973501e-006 -1 1 -0.001 -1.064519e-004 4.449275e-004)">
				<stop  offset="0.0745" style="stop-color:#BC6397"/>
				<stop  offset="0.298" style="stop-color:#CC7CA5"/>
				<stop  offset="0.7686" style="stop-color:#F4BDCA"/>
				<stop  offset="0.8824" style="stop-color:#FFCED3"/>
			</linearGradient>
			<path style="fill-rule:evenodd;clip-rule:evenodd;fill:url(#SVGID_48_);" d="M152.55,58.1c3.767,8.9,5.65,18.2,5.65,27.9
				s-1.884,18.983-5.65,27.85c-3.633,8.601-8.767,16.2-15.399,22.801c-6.601,6.633-14.2,11.767-22.801,15.399
				c-8.866,3.767-18.149,5.65-27.85,5.65s-19-1.884-27.9-5.65c-8.567-3.633-16.167-8.767-22.8-15.399
				c-6.6-6.601-11.716-14.2-15.35-22.801C16.683,104.983,14.8,95.7,14.8,86s1.883-19,5.65-27.9c3.633-8.567,8.75-16.167,15.35-22.8
				c6.633-6.633,14.233-11.767,22.8-15.4c8.9-3.767,18.2-5.65,27.9-5.65c19.767,0,36.65,7.017,50.65,21.05
				C143.783,41.933,148.917,49.533,152.55,58.1z"/>
			<path style="fill-rule:evenodd;clip-rule:evenodd;fill:#7D2260;" d="M151.75,58.4c-3.6-8.467-8.667-15.967-15.2-22.5
				c-13.8-13.833-30.483-20.75-50.05-20.75c-9.6,0-18.8,1.85-27.6,5.55c-8.467,3.6-15.967,8.667-22.5,15.2S24.817,49.933,21.25,58.4
				c-3.7,8.8-5.55,18-5.55,27.6c0,9.6,1.85,18.783,5.55,27.55c3.567,8.467,8.617,15.967,15.15,22.5s14.033,11.601,22.5,15.2
				c8.8,3.7,18,5.55,27.6,5.55c9.6,0,18.783-1.85,27.55-5.55c8.467-3.6,15.967-8.667,22.5-15.2s11.601-14.033,15.2-22.5
				c3.7-8.767,5.55-17.95,5.55-27.55C157.3,76.4,155.45,67.2,151.75,58.4z M86.5,13.35c9.667,0,18.917,1.833,27.75,5.5
				c8.833,3.667,16.684,8.933,23.55,15.8c6.867,6.833,12.134,14.684,15.8,23.55c3.667,8.833,5.5,18.1,5.5,27.8
				s-1.833,18.95-5.5,27.75c-3.666,8.866-8.933,16.717-15.8,23.55c-6.833,6.867-14.684,12.134-23.55,15.8
				c-8.8,3.667-18.05,5.5-27.75,5.5s-18.967-1.833-27.8-5.5c-8.867-3.666-16.717-8.933-23.55-15.8
				c-6.867-6.833-12.133-14.684-15.8-23.55C15.717,104.95,13.9,95.7,13.9,86s1.817-18.967,5.45-27.8
				c3.667-8.867,8.933-16.717,15.8-23.55c6.867-6.867,14.717-12.133,23.55-15.8C67.533,15.183,76.8,13.35,86.5,13.35z"/>
		</g>
		
			<radialGradient id="SVGID_49_" cx="86.4746" cy="83.6504" r="64.3628" gradientTransform="matrix(1 0 0 -1 0 167.3008)" gradientUnits="userSpaceOnUse">
			<stop  offset="0.1059" style="stop-color:#F9EFD5"/>
			<stop  offset="0.5882" style="stop-color:#FF90C5"/>
			<stop  offset="0.7098" style="stop-color:#FC8EC3;stop-opacity:0.9686"/>
			<stop  offset="0.8039" style="stop-color:#F288BC;stop-opacity:0.8706"/>
			<stop  offset="0.8824" style="stop-color:#E27DB1;stop-opacity:0.7059"/>
			<stop  offset="0.9608" style="stop-color:#CB6DA2;stop-opacity:0.4745"/>
			<stop  offset="1" style="stop-color:#BC6397;stop-opacity:0.3176"/>
		</radialGradient>
		<path style="fill-rule:evenodd;clip-rule:evenodd;fill:url(#SVGID_49_);" d="M132.05,38.2
			C144.616,50.767,150.9,65.917,150.9,83.65c0,17.767-6.284,32.917-18.851,45.45c-12.6,12.567-27.783,18.851-45.55,18.851
			c-17.8,0-32.983-6.283-45.55-18.851c-12.6-12.533-18.9-27.683-18.9-45.45c0-17.767,6.3-32.917,18.9-45.45
			C53.517,25.633,68.7,19.35,86.5,19.35C104.267,19.35,119.45,25.633,132.05,38.2z"/>
		<g>
			<path style="fill-rule:evenodd;clip-rule:evenodd;fill:#F8E1E7;" d="M82.2,82.05l-0.85,0.75l1.3,1.6
				c0.667-0.233,1.417-0.4,2.25-0.5C83.9,83.533,83,82.917,82.2,82.05z M63.65,69.15c0.967-2.2,2.367-3.95,4.2-5.25
				c1.833-1.3,3.9-2,6.2-2.1c1.534-0.066,3.05,0.15,4.55,0.65c2.9,0.867,5,2.8,6.3,5.8l0.45,1.25c1.767-1.6,3.75-2.933,5.95-4
				c1.634-0.8,3.601-1.367,5.9-1.7c3.133-0.433,6.3-0.55,9.5-0.35c1.967,0.2,3.35,0.4,4.149,0.6c3.301,0.733,5.7,1.733,7.2,3
				c1.066,0.833,1.566,1.9,1.5,3.2l-0.1,12.15c-0.066,0.9-0.3,1.65-0.7,2.25l-6.1,8.9c-0.767,1.066-1.801,1.634-3.101,1.7
				c-0.8,0.066-1.533-0.134-2.2-0.6l0.301,7.699c1.666,0.834,3.017,1.867,4.05,3.101c1.033,1.267,1.616,2.566,1.75,3.899
				c0.1,1.233,0.366,2.667,0.8,4.301l2.35,0.449l0.601,0.051c0.5,0.066,2.166,0.267,5,0.6c1.467,0.167,2.5,0.967,3.1,2.4
				c0.601,1.033,0.767,2.233,0.5,3.6c-0.233,1.167-0.616,2.116-1.149,2.85L124.6,123.7c-0.233,0.333-0.6,0.649-1.1,0.95
				c0,0.633-0.066,1.233-0.2,1.8c-0.267,1.233-0.783,2.267-1.55,3.1c-1,1.2-2.25,1.634-3.75,1.3l-6-1.25
				c-1.033,2.534-2.684,4.617-4.95,6.25c-2.333,1.634-4.899,2.5-7.7,2.601c-3.933,0.166-7.35-1.101-10.25-3.8
				c-2.899-2.667-4.433-5.967-4.6-9.9c-0.167-3.866,1.05-7.25,3.65-10.15l-0.5-2.05l-0.5-0.6h-0.9l-2.6,3.7
				c-4.167,5.633-8.9,10.75-14.2,15.35l-1.85,1.55c-1.1,1.5-2.617,2.2-4.55,2.101c-1.566-0.134-3.15-0.867-4.75-2.2
				c-1.433-1.233-2.55-2.634-3.35-4.2c-0.767-1.566-1.2-3.384-1.3-5.45c-0.033-0.967,0-2,0.1-3.1c0.2-1.434,0.967-2.467,2.3-3.101
				l0.2-0.1c1.933-0.9,4.217-2.233,6.85-4c4.533-3.066,7.833-6.1,9.9-9.1l1.1-1.65l-0.25-1.85L73.6,98.85l-0.05-0.35
				c-1.9-1.634-3.566-3.116-5-4.45c-0.1-0.033-0.3-0.166-0.6-0.399L67.9,93.6l-0.6-0.449l-0.9,1.35l-0.6,0.6
				c-1.833,1.934-3.85,3.233-6.05,3.9l-0.85,0.25h-0.1l-0.75,0.15c-0.633,0.1-1.333,0.116-2.1,0.05
				c-2.467-0.167-4.583-1.15-6.35-2.95c-1.767-1.767-2.833-3.983-3.2-6.65L46.3,87.2l0.15-1.55V85.5
				c0.333-2.3,1.183-4.383,2.55-6.25c1.333-1.867,3-3.317,5-4.35c1.833-0.9,3.633-1.3,5.4-1.2c1.233,0.1,2.383,0.417,3.45,0.95
				C62.583,72.917,62.85,71.083,63.65,69.15z"/>
			
				<linearGradient id="SVGID_50_" gradientUnits="userSpaceOnUse" x1="-141.3169" y1="81.9844" x2="-63.7388" y2="81.9844" gradientTransform="matrix(-0.039 -0.9992 0.9992 -0.039 1.019165e-004 3.271624e-004)">
				<stop  offset="0" style="stop-color:#CF3897"/>
				<stop  offset="0.1686" style="stop-color:#D651A0"/>
				<stop  offset="0.5255" style="stop-color:#E993B7"/>
				<stop  offset="0.902" style="stop-color:#FFDDD1"/>
			</linearGradient>
			<path style="fill-rule:evenodd;clip-rule:evenodd;fill:url(#SVGID_50_);" d="M81.5,82.1l1.15,1.4c0.6-0.233,1.333-0.4,2.2-0.5
				c-1.067-0.433-1.95-1.05-2.65-1.85h-0.05L81.3,81.9L81.5,82.1z M63.65,68.25C64.617,66.05,66,64.3,67.8,63
				c1.833-1.3,3.9-2,6.2-2.1c1.567-0.066,3.083,0.15,4.55,0.65c2.867,0.867,4.967,2.8,6.3,5.8c0.2,0.367,0.35,0.783,0.45,1.25
				c1.9-1.667,3.9-3,6-4c1.566-0.8,3.533-1.367,5.9-1.7c3.1-0.433,6.25-0.55,9.45-0.35c1.699,0.167,3.1,0.367,4.199,0.6
				c3.167,0.7,5.567,1.7,7.2,3c1,0.833,1.5,1.9,1.5,3.2L119.4,81.5c0,0.833-0.233,1.583-0.7,2.25l-6.101,8.9
				c-0.733,1.066-1.75,1.633-3.05,1.699c-0.8,0.067-1.55-0.133-2.25-0.6l0.3,7.7c1.7,0.833,3.067,1.866,4.101,3.1
				c1.033,1.267,1.6,2.566,1.7,3.9c0.1,1.233,0.366,2.666,0.8,4.3l2.399,0.45l0.551,0.05c0.5,0.066,2.166,0.267,5,0.6
				c1.5,0.167,2.55,0.967,3.149,2.4c0.533,1.1,0.684,2.3,0.45,3.6c-0.2,1.2-0.583,2.15-1.15,2.851l-0.05,0.1
				c-0.267,0.367-0.616,0.684-1.05,0.95c0,0.667-0.083,1.267-0.25,1.8c-0.267,1.233-0.783,2.267-1.55,3.101
				c-0.467,0.533-1.033,0.916-1.7,1.149s-1.35,0.283-2.05,0.15L112,128.7c-1.066,2.566-2.733,4.649-5,6.25
				c-2.3,1.633-4.866,2.5-7.7,2.6c-3.934,0.167-7.35-1.1-10.25-3.8c-2.899-2.667-4.433-5.967-4.6-9.9
				c-0.167-3.899,1.066-7.283,3.7-10.149L88,113.2c-0.1-0.566-0.233-1.084-0.4-1.55l-0.5-0.601H86.2l-2.6,3.7
				c-4.2,5.733-8.917,10.85-14.15,15.35l-1.9,1.551c-1.1,1.5-2.6,2.199-4.5,2.1c-1.6-0.1-3.2-0.833-4.8-2.2
				c-1.433-1.2-2.55-2.6-3.35-4.2c-0.767-1.566-1.2-3.383-1.3-5.449c-0.067-1.301-0.017-2.334,0.15-3.101
				c0.167-1.434,0.917-2.467,2.25-3.1l0.2-0.101c1.933-0.899,4.216-2.233,6.85-4c4.534-3.066,7.833-6.1,9.9-9.1l1.1-1.65l-0.5-3.25
				c-1.533-1.233-3.216-2.716-5.05-4.449l-0.6-0.4l-0.05-0.05l-0.6-0.45L66.9,92.8l-0.15,0.3l-0.4,0.5l-0.6,0.601
				c-1.833,1.934-3.85,3.233-6.05,3.899l-0.8,0.25h-0.1L58,98.5c-0.6,0.1-1.3,0.116-2.1,0.05c-2.467-0.166-4.583-1.149-6.35-2.95
				c-1.767-1.767-2.816-3.966-3.15-6.6l-0.15-2.3l0.15-1.95l0.05-0.15c0.333-2.3,1.167-4.383,2.5-6.25
				c1.333-1.867,3.017-3.317,5.05-4.35c1.8-0.9,3.583-1.3,5.35-1.2c1.233,0.1,2.383,0.417,3.45,0.95
				C62.567,71.917,62.85,70.083,63.65,68.25z"/>
			<path style="fill-rule:evenodd;clip-rule:evenodd;fill:none;stroke:#F8E1E7;stroke-width:0.25;" d="M63.65,68.25
				c-0.8,1.833-1.083,3.667-0.85,5.5c-1.066-0.533-2.216-0.85-3.45-0.95C57.583,72.7,55.8,73.1,54,74
				c-2.033,1.033-3.717,2.483-5.05,4.35c-1.333,1.867-2.167,3.95-2.5,6.25l-0.05,0.15l-0.15,1.95L46.4,89
				c0.333,2.634,1.383,4.833,3.15,6.6c1.767,1.801,3.883,2.784,6.35,2.95c0.8,0.066,1.5,0.05,2.1-0.05l0.8-0.15h0.1l0.8-0.25
				c2.2-0.666,4.216-1.966,6.05-3.899l0.6-0.601l0.4-0.5l0.15-0.3l0.35-0.55l0.6,0.45l0.05,0.05l0.6,0.4
				c1.833,1.733,3.517,3.216,5.05,4.449l0.5,3.25l-1.1,1.65c-2.067,3-5.367,6.033-9.9,9.1c-2.633,1.767-4.917,3.101-6.85,4L56,115.7
				c-1.333,0.633-2.083,1.666-2.25,3.1c-0.167,0.767-0.217,1.8-0.15,3.101c0.1,2.066,0.533,3.883,1.3,5.449
				c0.8,1.601,1.917,3,3.35,4.2c1.6,1.367,3.2,2.101,4.8,2.2c1.9,0.1,3.4-0.6,4.5-2.1l1.9-1.551c5.233-4.5,9.95-9.616,14.15-15.35
				l2.6-3.7H87.1l0.5,0.601c0.167,0.466,0.301,0.983,0.4,1.55l0.15,0.5c-2.634,2.866-3.867,6.25-3.7,10.149
				c0.167,3.934,1.7,7.233,4.6,9.9c2.9,2.7,6.316,3.967,10.25,3.8c2.834-0.1,5.4-0.967,7.7-2.6c2.267-1.601,3.934-3.684,5-6.25
				l5.95,1.25c0.7,0.133,1.383,0.083,2.05-0.15s1.233-0.616,1.7-1.149c0.767-0.834,1.283-1.867,1.55-3.101
				c0.167-0.533,0.25-1.133,0.25-1.8c0.434-0.267,0.783-0.583,1.05-0.95l0.05-0.1c0.567-0.7,0.95-1.65,1.15-2.851
				c0.233-1.3,0.083-2.5-0.45-3.6c-0.6-1.434-1.649-2.233-3.149-2.4c-2.834-0.333-4.5-0.533-5-0.6l-0.551-0.05l-2.399-0.45
				c-0.434-1.634-0.7-3.066-0.8-4.3c-0.101-1.334-0.667-2.634-1.7-3.9c-1.033-1.233-2.4-2.267-4.101-3.1l-0.3-7.7
				c0.7,0.467,1.45,0.667,2.25,0.6c1.3-0.066,2.316-0.633,3.05-1.699l6.101-8.9c0.467-0.667,0.7-1.417,0.7-2.25l0.149-12.15
				c0-1.3-0.5-2.367-1.5-3.2c-1.633-1.3-4.033-2.3-7.2-3c-1.1-0.233-2.5-0.433-4.199-0.6c-3.2-0.2-6.351-0.083-9.45,0.35
				c-2.367,0.333-4.334,0.9-5.9,1.7c-2.1,1-4.1,2.333-6,4c-0.1-0.467-0.25-0.883-0.45-1.25c-1.333-3-3.434-4.934-6.3-5.8
				c-1.466-0.5-2.983-0.716-4.55-0.65c-2.3,0.1-4.367,0.8-6.2,2.1C66,64.3,64.617,66.05,63.65,68.25z M81.5,82.1l-0.2-0.2l0.85-0.75
				h0.05c0.7,0.8,1.583,1.417,2.65,1.85c-0.867,0.1-1.6,0.267-2.2,0.5L81.5,82.1z"/>
			<path style="fill-rule:evenodd;clip-rule:evenodd;fill:#7D2260;" d="M107.3,115.1l-0.149-0.949
				c-0.4-2.101-0.983-3.534-1.75-4.301l-0.65-0.449l0.2,4.6c1.1,0.767,2.033,1.65,2.8,2.65
				C107.517,116.184,107.366,115.667,107.3,115.1z M72,71l-0.15,0.1l-0.1,0.15L71.6,71.4l-0.2,0.4l-0.05,0.15v0.25
				c0,0.433,0.183,0.933,0.55,1.5c0.133,0.2,0.733,0.95,1.8,2.25l1.45,1.7v-0.3c0-0.9,0.233-1.55,0.7-1.95
				c0.533-0.5,0.967-1.017,1.3-1.55l0.05-0.05c0.333-0.566,0.5-1.033,0.5-1.4v-0.05l-0.1-0.3l-0.1-0.2
				c-0.267-0.434-0.65-0.817-1.15-1.15c-0.6-0.4-1.2-0.617-1.8-0.65h-0.5L73,70.35l-0.75,0.4L72,71z M66.55,69.5
				c0.967-2.267,2.45-3.833,4.45-4.7c2-0.9,4.217-0.983,6.65-0.25c2,0.633,3.434,1.983,4.3,4.05c1.066,2.4,1.117,4.816,0.15,7.25
				L81.55,77l-0.6,0.85l-0.1,0.1l-0.15,0.2l-0.7,0.7c-0.4,0.433-0.833,0.767-1.3,1l-0.1,0.05l-0.65,0.25l-0.45,0.1h-0.15L76.9,80.2
				l-0.1-0.05L78,81.9c0.133,0.2,0.2,0.367,0.2,0.5c0.066,0.233,0.066,0.483,0,0.75l1.75,2c0.733,0.867,1.283,1.583,1.65,2.15
				c2.066-1.133,4.266-1.466,6.6-1l2.25-3.1c0.399-0.7,1.05-1.067,1.95-1.1l0.1-0.1c-2.366-0.867-4.116-1.383-5.25-1.55
				c-0.833-0.1-1.566-0.4-2.2-0.9c-0.633-0.5-1.083-1.133-1.35-1.9c-0.3-0.867-0.25-1.633,0.15-2.3l0.1-0.2
				c0.5-0.933,1.233-1.917,2.2-2.95c1.8-1.934,3.983-3.534,6.55-4.8c1.2-0.566,2.85-1.033,4.95-1.4c3-0.4,5.933-0.5,8.8-0.3
				c1.233,0.1,2.467,0.267,3.7,0.5c2.733,0.6,4.699,1.4,5.899,2.4c0.233,0.167,0.351,0.417,0.351,0.75l-0.15,12.15
				c0,0.2-0.05,0.367-0.15,0.5l-6.1,8.9c-0.3,0.433-0.65,0.5-1.05,0.199L108.85,91l-4.949-3.35l0.649,15.949
				c1.634,0.567,3,1.351,4.101,2.351c1,0.934,1.533,1.85,1.6,2.75c0.3,2.833,0.75,4.866,1.35,6.1c0.301,0.667,1.817,1.167,4.551,1.5
				l5.6,0.65c0.333,0.066,0.55,0.267,0.65,0.6c0.3,0.434,0.383,1,0.25,1.7c-0.101,0.5-0.301,1.05-0.601,1.65
				c-0.2,0.267-0.467,0.35-0.8,0.25l-0.45-0.101c-1.133-0.033-2.133-0.083-3-0.149c-2-0.134-3.649-0.334-4.95-0.601
				c-1.866-0.333-3.3-1.1-4.3-2.3c0.367,0.6,0.667,1.3,0.9,2.1c0.767,0.301,2.149,0.65,4.149,1.051
				c2.167,0.399,3.95,0.666,5.351,0.8h0.2c0.267,0,0.483,0.133,0.649,0.399c0.533,0.634,0.667,1.45,0.4,2.45
				c-0.2,0.8-0.483,1.384-0.851,1.75c-0.199,0.267-0.449,0.367-0.75,0.3l-8.85-1.85c-0.4,2.6-1.583,4.783-3.55,6.55
				c-2,1.8-4.334,2.75-7,2.851c-3.066,0.133-5.733-0.851-8-2.95c-2.267-2.101-3.467-4.684-3.601-7.75c-0.033-1.733,0.301-3.4,1-5
				c0.7-1.566,1.717-2.9,3.051-4c-0.134-0.467-0.317-1.217-0.551-2.25c-0.233-0.967-0.449-1.684-0.649-2.15
				c-0.233-0.467-0.934-1.333-2.101-2.6l-0.449,0.1l-0.95,0.101H86.85c-1,0.033-1.75,0-2.25-0.101l-3.55,5.101
				c-3.9,5.333-8.45,10.267-13.65,14.8l-2.2,1.8c-0.434,0.8-1.1,1.167-2,1.1c-0.934-0.066-1.967-0.6-3.1-1.6
				c-1.033-0.934-1.817-1.95-2.35-3.05c-0.6-1.2-0.933-2.65-1-4.351c-0.067-1.199-0.033-1.983,0.1-2.35
				c0.066-0.333,0.217-0.55,0.45-0.65l0.25-0.149c2.267-1.101,4.767-2.566,7.5-4.4c4.733-3.233,8.233-6.5,10.5-9.8l1.8-2.6l-0.1-0.7
				v-0.05l-0.55-3.4l-0.05-1.05L76.6,96.4l-0.05-0.25V95.8l-0.5-0.3c-0.7-0.467-2.633-2.15-5.8-5.05c-0.133,0-0.25-0.05-0.35-0.15
				l-4.05-3.1l-0.1-0.05L63.2,85c-1.7-1.467-2.883-2.367-3.55-2.7c-0.4-0.167-0.733-0.25-1-0.25c-0.3-0.033-0.617,0-0.95,0.1
				c-0.8,0.267-1.467,0.867-2,1.8l-0.25,0.45l-0.05,0.15c-0.1,0.167-0.15,0.317-0.15,0.45l-0.05,0.05l-0.05,0.35v0.5
				c0,1.034,0.383,1.9,1.15,2.6c0.367,0.333,0.95,0.333,1.75,0c0.8-0.333,1.667-0.917,2.6-1.75c0.367-0.366,0.833-0.517,1.4-0.45
				c0.5,0.033,0.983,0.217,1.45,0.55c0.467,0.334,0.817,0.767,1.05,1.301c0.467,1,0.367,1.983-0.3,2.949l-0.1,0.2l-0.6,0.65
				c-1.5,1.6-3.083,2.649-4.75,3.149l-1.2,0.25c-0.467,0.101-0.95,0.117-1.45,0.051c-1.7-0.101-3.183-0.784-4.45-2.051
				c-1.2-1.267-1.934-2.85-2.2-4.75l-0.1-1.85l0.05-0.35l0.05-1.2l0.05-0.1c0.267-1.8,0.917-3.434,1.95-4.9
				c1.033-1.467,2.333-2.6,3.9-3.4c1.233-0.633,2.483-0.917,3.75-0.85c1.067,0.1,2.133,0.483,3.2,1.15
				c0.633,0.367,1.517,1.033,2.65,2l1.65,1.35c1.167,0.867,3.217,2.466,6.15,4.8c0.267,0.1,0.467,0.3,0.6,0.6
				c0.133,0.233,0.2,0.516,0.2,0.85l2.75,2.2l0.1,0.1l0.35,0.25c-0.233-1-0.8-2.184-1.7-3.55h-0.05c-0.233,0-0.4-0.083-0.5-0.25
				L74.4,85.3c-1.8-2.133-3.183-3.833-4.15-5.1c-0.233-0.333-0.633-0.817-1.2-1.45c-1.367-1.6-2.25-2.883-2.65-3.85
				C65.7,73.2,65.75,71.4,66.55,69.5z"/>
			<g>
				
					<use xlink:href="#FlashAICB_x5F_1_x2F_Layer_1_x2F__x3C_Clip_Group_0_x3E__x5F_14"  width="18.6" height="10.8" y="-10.8" transform="matrix(1 0 0 -1 77.8999 97.4004)" style="overflow:visible;"/>
				<path style="fill-rule:evenodd;clip-rule:evenodd;fill:#F4F6FF;" d="M80.9,104.25c-1.555-1.086-2.539-2.52-2.95-4.3
					c0.438,1.684,1.487,3.05,3.15,4.1c1.9,1.2,4.05,1.617,6.45,1.25c2.4-0.333,4.351-1.35,5.851-3.05
					c1.165-1.348,1.79-2.789,1.875-4.325c-0.047,1.639-0.622,3.181-1.726,4.625c-1.467,1.9-3.434,2.983-5.899,3.25
					C85.017,106.1,82.767,105.583,80.9,104.25z"/>
				<path style="fill-rule:evenodd;clip-rule:evenodd;fill:#6C6E70;" d="M95.2,96.6c0.3,2.034-0.3,3.917-1.8,5.65
					c-1.5,1.7-3.45,2.717-5.851,3.05c-2.399,0.367-4.55-0.05-6.45-1.25s-3-2.816-3.3-4.85c-0.3-2.033,0.3-3.9,1.8-5.601
					c1.5-1.699,3.45-2.733,5.85-3.1c2.399-0.366,4.55,0.05,6.45,1.25C93.8,92.917,94.9,94.533,95.2,96.6z"/>
				<path style="fill-rule:evenodd;clip-rule:evenodd;fill:#6C6E70;" d="M87.5,104.45l-0.85,1.35L86.8,107
					c-1.333,0.1-2.167,0.033-2.5-0.2c-0.233-0.133-0.333-0.55-0.3-1.25l0.1-1L87.5,104.45z"/>
				<path style="fill-rule:evenodd;clip-rule:evenodd;fill:#6C6E70;" d="M89.35,104.1l1.75-0.1c1.101,0.033,1.467,0.3,1.101,0.8
					c-0.566,0.8-1.184,1.217-1.851,1.25l-0.199-1.1c-0.034-0.134-0.184-0.316-0.45-0.55L89.35,104.1z"/>
				<path style="fill-rule:evenodd;clip-rule:evenodd;fill:#6C6E70;" d="M95.5,98.75l-0.1,1.65c-0.034,0.233-0.15,0.633-0.351,1.199
					c-0.133-0.199-0.434-0.3-0.899-0.3c-0.301,0.033-0.567-0.184-0.801-0.649L93.15,100L95.5,98.75z"/>
				<path style="fill-rule:evenodd;clip-rule:evenodd;fill:#86898B;" d="M110.65,116.45l1.25,0.649
					c0.772,0.374,1.498,0.683,2.175,0.926C112.003,117.761,110.861,117.235,110.65,116.45z M114.75,118.25
					c-0.218-0.067-0.443-0.143-0.675-0.225c0.217,0.028,0.441,0.053,0.675,0.074c1.3,0.134,2.934,0.2,4.9,0.2
					c1.1,0.066,1.733-0.1,1.899-0.5l0.25,0.25c0.167,0.267,0.2,0.584,0.101,0.95c-0.134,0.634-0.284,1.083-0.45,1.35
					C118.35,119.417,116.116,118.717,114.75,118.25z"/>
				<path style="fill-rule:evenodd;clip-rule:evenodd;fill:#CE220A;" d="M62.6,83.4c-1.133-0.933-2.017-1.566-2.65-1.9
					c-0.867-0.4-1.7-0.467-2.5-0.2c-0.934,0.333-1.733,1.05-2.4,2.15c-0.667,1.033-0.85,2.15-0.55,3.35
					c0.2,0.967,0.65,1.75,1.35,2.351c0.566,0.533,1.35,0.6,2.35,0.199c0.9-0.333,1.883-0.966,2.95-1.899
					c0.733-0.667,1.533-0.467,2.4,0.6s0.7,2.15-0.5,3.25c-2.833,2.967-5.667,3.934-8.5,2.9c-2.667-1-4.1-3.084-4.3-6.25
					c-0.2-2.367,0.25-4.5,1.35-6.4c1-1.733,2.383-3.05,4.15-3.95c2.067-1.033,4.067-1,6,0.1c1.1,0.6,2.6,1.767,4.5,3.5
					c1.733,1.233,3.9,2.917,6.5,5.05l-2.4,3.35c-2.2-1.767-3.583-2.816-4.15-3.149C64.467,84.983,63.267,83.967,62.6,83.4z"/>
				<path style="fill-rule:evenodd;clip-rule:evenodd;fill:#8D1A0A;" d="M62.6,83.4c-1.133-0.933-2.017-1.566-2.65-1.9
					c-0.867-0.4-1.7-0.467-2.5-0.2c-0.934,0.333-1.733,1.05-2.4,2.15c-0.533,0.8-0.767,1.65-0.7,2.55
					c-0.567-0.933-0.45-2.3,0.35-4.1c0.466-0.967,1.25-1.65,2.35-2.05c1.034-0.367,1.917-0.417,2.65-0.15
					c0.5,0.2,1.55,0.983,3.15,2.35c1.867,1.567,3.083,2.534,3.65,2.9c1.167,0.767,1.983,1.267,2.45,1.5
					c0.633,0.3,1.1,0.35,1.4,0.149c0.3-0.199,0.717-0.366,1.25-0.5c0.267-0.033,0.5-0.066,0.7-0.1l-0.45,1.5l-1.5,2.1
					c-2.2-1.767-3.583-2.816-4.15-3.149C64.467,84.983,63.267,83.967,62.6,83.4z"/>
				<path style="fill-rule:evenodd;clip-rule:evenodd;fill:#8D1A0A;" d="M50.65,87.15c0.3,1.199,0.667,2.133,1.1,2.8
					c1.067,1.733,2.7,2.7,4.9,2.899c0.934,0.101,2.15-0.283,3.65-1.149c1.1-0.601,1.95-1.184,2.55-1.75
					c0.3-0.267,0.383-0.65,0.25-1.15l-0.25-0.7l0.5,0.4c0.333,0.366,0.517,0.816,0.55,1.35v0.2c-0.167,0.467-0.45,0.884-0.85,1.25
					c-2.833,2.967-5.667,3.934-8.5,2.9c-2.667-1-4.1-3.084-4.3-6.25c-0.1-0.767-0.083-1.634,0.05-2.6
					C50.433,86.05,50.55,86.65,50.65,87.15z"/>
				<path style="fill-rule:evenodd;clip-rule:evenodd;fill:#821808;" d="M71.35,89.35c-0.367,0.233-0.7,0.284-1,0.15
					c-0.3-0.134-0.4-0.483-0.3-1.05c0.133-0.5,0.4-1,0.8-1.5c0.5-0.667,0.983-0.983,1.45-0.95c0.6,0.033,0.733,0.533,0.4,1.5
					C72.367,88.467,71.917,89.083,71.35,89.35z"/>
				
					<use xlink:href="#FlashAICB_x5F_1_x2F_Layer_1_x2F__x3C_Clip_Group_0_x3E__x5F_13"  width="59.2" height="62.8" y="-62.8" transform="matrix(1 0 0 -1 61.75 71.75)" style="overflow:visible;"/>
				<path style="fill-rule:evenodd;clip-rule:evenodd;fill:#DCDCDC;" d="M71.35,88.95c0.066-0.267,0.233-0.566,0.5-0.9
					c0.2-0.267,0.333-0.566,0.4-0.899c0.433,0.566,1.583,1.633,3.45,3.199c0.333,0.4,0.966,0.634,1.9,0.7
					c0.267,0.033,0.967,0.05,2.1,0.05c1.767,0.101,3.566,0.551,5.399,1.351c1.367,0.566,3.334,2.017,5.9,4.35
					c2.467,2.233,4.033,3.967,4.7,5.2c0.5,0.967,1.5,1.6,3,1.9c0.899,0.166,2.483,0.449,4.75,0.85c1.7,0.467,3.133,1.217,4.3,2.25
					c0.967,0.9,1.483,1.733,1.55,2.5c0.066,0.866,0.217,1.917,0.45,3.15c0.3,1.466,0.616,2.55,0.95,3.25
					c0.333,0.666,1.283,1.166,2.85,1.5c0.867,0.199,2.033,0.383,3.5,0.55c1.134,0.166,2.517,0.2,4.15,0.1l-0.2,0.8
					c-0.134,0.601-0.066,1.034,0.2,1.301c-3.267-0.034-6-0.267-8.2-0.7c-2.934-0.566-4.583-2.05-4.95-4.45
					c-0.434-3.3-1.017-5.434-1.75-6.4c-0.434-0.533-1.116-0.916-2.05-1.149c-0.267-0.066-1.4-0.25-3.4-0.55
					c-1.366-0.2-2.416-0.467-3.149-0.801c-0.8-0.366-1.65-0.949-2.55-1.75c-2.567-2.267-4.4-3.85-5.5-4.75
					c-2.967-2.399-5.067-3.716-6.3-3.949c-1.434-0.2-2.567-0.367-3.4-0.5c-1.534-0.233-2.583-0.551-3.15-0.95
					c-0.4-0.3-1.283-1.117-2.65-2.45C72.483,90.083,71.55,89.15,71.35,88.95z"/>
				<path style="fill-rule:evenodd;clip-rule:evenodd;fill:#DCDCDC;" d="M73.75,90.75l-2.2-2l0.5-0.8l0.4-1.05L75.9,89.6
					c0.367,0.4,1.017,0.65,1.95,0.75c0.5,0.034,1.183,0.051,2.05,0.051c0.567,0,1.367,0.116,2.4,0.35
					c1.133,0.267,2.133,0.583,3,0.95c1.367,0.566,3.334,2.033,5.9,4.399c2.434,2.267,3.983,4,4.649,5.2
					c0.534,0.967,1.534,1.617,3,1.95c0.9,0.2,2.483,0.517,4.75,0.95c1.733,0.467,3.167,1.184,4.301,2.149
					c1,0.867,1.533,1.667,1.6,2.4c0.066,0.8,0.233,1.85,0.5,3.15c0.267,1.466,0.566,2.55,0.9,3.25
					c0.333,0.699,1.183,1.216,2.55,1.55c0.366,0.1,1.45,0.283,3.25,0.55c1.467,0.134,3.116,0.316,4.95,0.55l-0.4,0.2
					c-0.267,0.2-0.45,0.45-0.55,0.75c-0.134,0.833-0.367,1.017-0.7,0.55c-2.333,0.033-4.6-0.166-6.8-0.6
					c-1.533-0.267-2.717-0.834-3.55-1.7c-0.767-0.767-1.217-1.684-1.351-2.75c-0.533-3.366-1.133-5.483-1.8-6.35
					c-0.434-0.567-1.116-0.967-2.05-1.2c-0.3-0.066-1.434-0.25-3.4-0.55c-1.366-0.2-2.416-0.467-3.149-0.801
					c-0.801-0.366-1.65-0.949-2.551-1.75c-2.566-2.267-4.399-3.85-5.5-4.75c-2.966-2.399-5.066-3.716-6.3-3.949
					c-1.433-0.167-2.566-0.334-3.4-0.5c-1.533-0.233-2.583-0.551-3.15-0.95C76.433,93.05,75.35,92.15,73.75,90.75z"/>
				
					<use xlink:href="#FlashAICB_x5F_1_x2F_Layer_1_x2F__x3C_Clip_Group_0_x3E__x5F_12"  width="69.15" height="71.05" y="-71.05" transform="matrix(1 0 0 -1 61.8501 68.1001)" style="overflow:visible;"/>
				<path style="fill-rule:evenodd;clip-rule:evenodd;fill:#E3E3E3;" d="M112.45,117.05c1,0.267,2.017,0.467,3.05,0.601l5.7,0.6
					l-6-0.2c-1.934-0.434-3.25-0.883-3.95-1.35L112.45,117.05z"/>
				<path style="fill-rule:evenodd;clip-rule:evenodd;fill:#919191;" d="M113.1,119.25c-2.933-0.566-4.583-2.05-4.949-4.45
					l-0.45-2.75c0.6,1.867,1.033,3.05,1.3,3.55c0.4,0.7,0.8,0.967,1.2,0.801l0.1,0.5c0.134,0.366,0.4,0.666,0.8,0.899
					c0.634,0.367,1.733,0.717,3.301,1.05c1.866,0.367,3.433,0.45,4.699,0.25c0.801-0.133,1.45-0.333,1.95-0.6L120.9,119
					c-0.101,0.533-0.101,0.866,0,1C117.9,119.934,115.3,119.684,113.1,119.25z"/>
				<path style="fill-rule:evenodd;clip-rule:evenodd;fill:#636466;" d="M77.15,90.6l1.05,0.2l0.75-1.1
					c1.2,2.866,1.483,4.416,0.85,4.649l-0.4,0.101c0.633,0.633,0.833,0.967,0.6,1s-0.55,0-0.95-0.101L78.5,95.2
					c0.033-0.167,0.017-0.417-0.05-0.75l-0.05-0.2l-0.35-0.15c-0.3-0.333-0.5-0.716-0.6-1.149L77.15,90.6z"/>
				<path style="fill-rule:evenodd;clip-rule:evenodd;fill:#FF765E;" d="M57.3,78.1c-0.867,0.233-1.733,0.683-2.6,1.35
					c-0.833,0.667-1.483,1.383-1.95,2.15c-0.4,0.733-0.65,1.65-0.75,2.75c-0.033,0.6-0.05,1.267-0.05,2
					c0,0.367-0.05,0.483-0.15,0.351c-0.1-0.167-0.183-0.483-0.25-0.95c-0.1-0.933-0.15-1.417-0.15-1.45
					c0.033-0.633,0.217-1.4,0.55-2.3c0.6-1.633,2.1-3.033,4.5-4.2c0.7-0.333,1.517-0.466,2.45-0.4c0.5,0.033,0.917,0.1,1.25,0.2
					c0.667,0.233,1.667,0.833,3,1.8c1.333,0.934,2.4,1.783,3.2,2.55l3.95,3.55c-0.733-0.4-1.683-1.1-2.85-2.1
					c-1.367-1.1-2.417-1.95-3.15-2.55c-1.367-1.067-2.383-1.767-3.05-2.1c-0.9-0.467-1.517-0.733-1.85-0.8
					C58.833,77.817,58.133,77.867,57.3,78.1z"/>
				<path style="fill-rule:evenodd;clip-rule:evenodd;fill:#FF765E;" d="M61.4,87.9c0.2-0.067,0.383-0.017,0.55,0.149
					c0.1,0.101,0.183,0.2,0.25,0.3c-0.5,0.534-0.983,0.9-1.45,1.101c-0.4,0.267-0.717,0.467-0.95,0.6
					c-0.433,0.233-0.983,0.367-1.65,0.4c-0.333,0.033-0.633-0.033-0.9-0.2L56.9,90l0.25,0.05c0.233,0.033,0.55,0,0.95-0.1
					c0.833-0.2,1.566-0.584,2.2-1.15L61.4,87.9z"/>
				<path style="fill-rule:evenodd;clip-rule:evenodd;fill:#86898B;" d="M106.85,120.85c0.936,0.52,2.035,0.969,3.301,1.351
					c1.433,0.399,2.783,0.666,4.05,0.8c0.733,0.066,2.383,0.033,4.95-0.1l0.25,0.35c0.166,0.333,0.183,0.767,0.05,1.3
					c-0.167,0.767-0.417,1.25-0.75,1.45c-2.467-1.3-4.9-2.283-7.3-2.95C109.947,122.631,108.431,121.897,106.85,120.85z"/>
				<path style="fill-rule:evenodd;clip-rule:evenodd;fill:#CE220A;" d="M73.65,77.15c1.067,1.233,1.8,2.217,2.2,2.95
					c0.267,0.467,0.783,1.25,1.55,2.35l-0.65,1.5l-1.65,0.9c-1.7-2-3.1-3.733-4.2-5.2c-1.633-1.767-2.75-3.15-3.35-4.15
					c-1.033-1.8-1.133-3.683-0.3-5.65c0.833-1.867,2.067-3.233,3.7-4.1c1.9-0.967,4.066-1.083,6.5-0.35c2.5,0.8,3.983,2.7,4.45,5.7
					c0.434,2.967-0.35,5.316-2.35,7.05c-1.533,1.467-2.633,1.65-3.3,0.55c-0.667-1.1-0.633-1.983,0.1-2.65
					c0.9-0.8,1.517-1.6,1.85-2.4c0.4-0.9,0.383-1.667-0.05-2.3c-0.5-0.8-1.233-1.4-2.2-1.8c-1.133-0.5-2.217-0.5-3.25,0
					c-1.133,0.534-1.817,1.217-2.05,2.05c-0.233,0.8-0.017,1.667,0.65,2.6C71.6,74.633,72.383,75.617,73.65,77.15z"/>
				<path style="fill-rule:evenodd;clip-rule:evenodd;fill:#9F1C09;" d="M81.95,72.65c-0.067,2.333-0.867,4.167-2.4,5.5
					c-1.533,1.467-2.617,1.667-3.25,0.6c-0.667-1.033-0.667-1.917,0-2.65c0.534-0.067,0.967-0.033,1.3,0.1
					c0.667,0.267,0.967,0.9,0.9,1.9c0.433-0.3,0.917-0.75,1.45-1.35C80.95,75.517,81.617,74.15,81.95,72.65z"/>
				<path style="fill-rule:evenodd;clip-rule:evenodd;fill:#9F1C09;" d="M72.7,69.55c-1.434,0.633-2.15,1.517-2.15,2.65
					c-0.167-0.534-0.033-1.25,0.4-2.15c0.466-1,1.183-1.7,2.15-2.1c0.933-0.4,1.9-0.434,2.9-0.1c1.067,0.333,1.917,0.883,2.55,1.65
					c0.667,0.833,0.883,1.683,0.65,2.55c-0.3,0.934-0.75,1.7-1.35,2.3c0.767-1.2,0.867-2.2,0.3-3c-0.5-0.8-1.233-1.4-2.2-1.8
					C74.817,69.05,73.733,69.05,72.7,69.55z"/>
				<path style="fill-rule:evenodd;clip-rule:evenodd;fill:#9F1C09;" d="M70.9,79.65c-1.233-1.4-2.133-2.483-2.7-3.25
					c-1-1.3-1.5-2.583-1.5-3.85c0.3-0.433,0.633-0.367,1,0.2c1.5,2.533,2.783,4.383,3.85,5.55c0.333,0.4,1,1.284,2,2.65
					c0.633,0.9,1.083,1.35,1.35,1.35c0.067,0,0.483-0.083,1.25-0.25c0.467-0.1,0.733-0.066,0.8,0.1c0.1,0.133,0.183,0.383,0.25,0.75
					l-0.45,1.05l-1.65,0.9C73.4,82.85,72,81.117,70.9,79.65z"/>
				<path style="fill-rule:evenodd;clip-rule:evenodd;fill:#821808;" d="M76.1,84.8c-0.367,0.133-0.684,0.133-0.95,0
					c-0.3-0.133-0.383-0.433-0.25-0.9c0.1-0.367,0.35-0.75,0.75-1.15c0.434-0.5,0.867-0.7,1.3-0.6c0.566,0.133,0.683,0.567,0.35,1.3
					C77,84.183,76.6,84.633,76.1,84.8z"/>
				<path style="fill-rule:evenodd;clip-rule:evenodd;fill:#DCDCDC;" d="M76,83.15c0.167-0.133,0.35-0.183,0.55-0.15
					c0.1,0.033,0.184,0.067,0.25,0.1c0.333,0.2,0.717,0.533,1.15,1c0.267,0.3,0.75,0.85,1.45,1.65c1.6,1.866,2.434,3.116,2.5,3.75
					c0.434,2.7,1.15,4.717,2.15,6.05c0.3,0.367,2.15,2.334,5.55,5.9c3,3.166,4.634,5.116,4.9,5.85c0.1,0.233,0.333,1.3,0.7,3.2
					c0.233,1.366,0.649,2.4,1.25,3.1c1.166,1.334,3.05,2.117,5.649,2.351c1.467,0.133,3.084,1.3,4.851,3.5
					c0.566,0.633,1.267,1.116,2.1,1.45c0.867,0.333,2.351,0.699,4.45,1.1c2.833,0.533,4.717,0.8,5.65,0.8l-0.301,0.601
					c-0.199,0.433-0.283,0.8-0.25,1.1c0,0.467,0.051,0.917,0.15,1.35c-5.8-1.733-9.083-2.666-9.85-2.8
					c-0.634-0.1-1.75-0.85-3.351-2.25c-0.5-0.434-1.316-0.85-2.45-1.25c-1-0.333-1.933-0.55-2.8-0.649
					c-3.033-0.367-5.116-1.483-6.25-3.351c-0.6-0.967-1.066-2.133-1.399-3.5c-0.367-1.6-0.634-2.583-0.801-2.95
					c-0.3-0.699-2.05-2.75-5.25-6.149c-3.433-3.601-5.3-5.617-5.6-6.05c-0.667-0.967-1.3-2.233-1.9-3.801
					c-0.667-1.733-1.017-3.1-1.05-4.1c-0.033-0.866-0.433-2-1.2-3.4l-1.15-1.85C75.633,83.55,75.733,83.35,76,83.15z"/>
				
					<use xlink:href="#FlashAICB_x5F_1_x2F_Layer_1_x2F__x3C_Clip_Group_0_x3E__x5F_11"  width="70.95" height="78.25" y="-78.25" transform="matrix(1 0 0 -1 61.75 65.1001)" style="overflow:visible;"/>
				<path style="fill-rule:evenodd;clip-rule:evenodd;fill:#DCDCDC;" d="M77.9,88c0.033,0.066,0.15,0.283,0.35,0.65
					c0.133,0.267,0.2,0.466,0.2,0.6c0.033,0.6,0.25,1.517,0.65,2.75c0.4,1.3,0.8,2.267,1.2,2.9c0.6,0.933,3.9,4.616,9.9,11.05
					c0.633,0.733,1.233,1.616,1.8,2.649c0.5,0.967,0.8,1.75,0.9,2.351c0.133,0.767,0.366,1.666,0.699,2.7
					c0.434,1.267,0.867,2.116,1.301,2.55c1.066,1.066,2.767,1.816,5.1,2.25c1.833,0.333,3.533,0.899,5.1,1.7l0.25,0.199
					c0.167,0.301,0.483,0.717,0.95,1.25l-0.899-0.75c-0.5-0.433-1.317-0.85-2.45-1.25c-0.967-0.333-1.9-0.55-2.8-0.649
					c-3-0.367-5.067-1.483-6.2-3.351c-0.634-1-1.101-2.166-1.4-3.5c-0.434-1.633-0.717-2.616-0.85-2.949
					c-0.3-0.7-2.05-2.733-5.25-6.101c-3.467-3.666-5.333-5.684-5.6-6.05c-0.633-0.967-1.267-2.233-1.9-3.8
					c-0.667-1.767-1.017-3.134-1.05-4.101c0-0.699-0.283-1.649-0.85-2.85l0.05-0.05l0.15,0.1C77.55,87.267,77.767,87.833,77.9,88z"
					/>
				<path style="fill-rule:evenodd;clip-rule:evenodd;fill:#5E5E5E;" d="M77.7,89.85c-0.034-0.866-0.434-2-1.2-3.399l-1.15-1.85
					c0.066-0.4,0.2-0.733,0.4-1c0.1,0.333,0.3,0.733,0.6,1.2l0.75,1.65c0.7,1.5,1.066,2.684,1.1,3.55
					c0.066,0.634,0.283,1.55,0.65,2.75c0.433,1.333,0.85,2.316,1.25,2.95c0.566,0.934,3.867,4.616,9.9,11.05
					c0.634,0.767,1.217,1.65,1.75,2.65c0.5,0.966,0.8,1.75,0.9,2.35c0.133,0.767,0.366,1.65,0.699,2.65
					c0.434,1.267,0.867,2.116,1.301,2.55c1.033,1.066,2.733,1.833,5.1,2.3c1.333,0.233,2.583,0.583,3.75,1.05
					c1.366,0.533,2.3,1.084,2.8,1.65c0.467,0.5,0.9,0.666,1.3,0.5c0.233-0.101,0.4-0.25,0.5-0.45l-0.1,0.5
					c0.167,0.4,0.816,0.75,1.95,1.05c4.434,1.233,7.217,1.783,8.35,1.65c0.167,0.366,0.316,0.633,0.45,0.8l-10.25-2.1
					c-0.467-0.101-1.017-0.384-1.65-0.851c-0.233-0.166-0.8-0.633-1.699-1.399c-0.5-0.434-1.367-0.817-2.601-1.15
					c-1.033-0.267-2.033-0.45-3-0.55c-1.3-0.167-2.3-0.384-3-0.65c-1.3-0.5-2.3-1.316-3-2.45c-0.633-1-1.133-2.25-1.5-3.75
					c-0.467-1.8-0.767-2.866-0.899-3.199c-0.267-0.667-2.034-2.684-5.301-6.051c-3.433-3.566-5.3-5.566-5.6-6
					c-0.567-0.899-1.133-2.183-1.7-3.85C78.017,92.3,77.733,90.917,77.7,89.85z"/>
				<path style="fill-rule:evenodd;clip-rule:evenodd;fill:#8B8B8B;" d="M75.4,84.05c0.1-0.533,0.283-0.917,0.55-1.15
					c0.167-0.133,0.367-0.15,0.6-0.05c0.133,0.033,0.233,0.083,0.3,0.15l0.05,0.1c-0.2,0-0.383,0.083-0.55,0.25
					c-0.233,0.233-0.283,0.35-0.15,0.35l0.95,2.25c0.2,0.366,0.417,0.883,0.65,1.55c0.3,0.8,0.467,1.45,0.5,1.95
					c0.034,0.6,0.25,1.533,0.65,2.8c0.4,1.3,0.8,2.267,1.2,2.9c0.6,0.933,3.9,4.616,9.9,11.05c0.634,0.733,1.233,1.616,1.8,2.649
					c0.5,0.967,0.801,1.75,0.9,2.351c0.134,0.833,0.366,1.733,0.7,2.7c0.434,1.267,0.866,2.116,1.3,2.55
					c1.066,1.066,2.767,1.816,5.1,2.25c1.301,0.233,2.551,0.6,3.75,1.1c1.334,0.533,2.267,1.066,2.801,1.601
					c0.466,0.5,0.899,0.666,1.3,0.5c0.2-0.101,0.35-0.25,0.45-0.45l0.1,0.649c0.3,0.5,1.033,0.9,2.2,1.2
					c0.8,0.2,2.166,0.566,4.1,1.101c1.733,0.433,2.983,0.6,3.75,0.5c0.066,0.533,0.217,0.899,0.45,1.1
					c-6-1.634-9.384-2.517-10.15-2.65c-0.5-0.1-1.066-0.383-1.699-0.85c-0.267-0.167-0.834-0.634-1.7-1.4
					c-0.867-0.767-2.717-1.333-5.55-1.699c-1.301-0.167-2.301-0.384-3-0.65c-1.334-0.5-2.351-1.3-3.051-2.4
					c-0.6-1-1.083-2.25-1.449-3.75c-0.434-1.767-0.733-2.833-0.9-3.199c-0.3-0.7-2.066-2.733-5.3-6.101
					c-3.434-3.533-5.3-5.533-5.6-6c-0.6-0.866-1.184-2.149-1.75-3.85c-0.533-1.7-0.817-3.066-0.85-4.101
					c-0.033-0.866-0.433-2.017-1.2-3.45L75.4,84.05z"/>
				<path style="fill-rule:evenodd;clip-rule:evenodd;fill:#E3E3E3;" d="M108.55,121.45l2.601,0.649
					c1.566,0.367,3.833,0.733,6.8,1.101c-1.667,0-2.917-0.066-3.75-0.2c-2.367-0.4-3.783-0.7-4.25-0.9L108.55,121.45z"/>
				<path style="fill-rule:evenodd;clip-rule:evenodd;fill:#FF765E;" d="M68.3,69.4c0.167-0.467,0.45-0.983,0.85-1.55
					c0.8-1.1,1.8-1.817,3-2.15c1.3-0.367,2.533-0.45,3.7-0.25c0.967,0.133,1.75,0.417,2.35,0.85c0.633,0.434,1.167,0.934,1.6,1.5
					c-1.033-0.867-2.3-1.4-3.8-1.6c-2.3-0.367-4-0.184-5.1,0.55c-0.6,0.433-1.183,1.133-1.75,2.1c-0.467,0.867-0.717,1.533-0.75,2
					v1.65c-0.167-0.067-0.3-0.25-0.4-0.55C67.8,71.35,67.9,70.5,68.3,69.4z"/>
				<path style="fill-rule:evenodd;clip-rule:evenodd;fill:#FF765E;" d="M79.9,71.7l-0.05-0.35l0.1,0.6
					c0,0.466-0.117,0.966-0.35,1.5c-0.333,0.833-0.533,1.4-0.6,1.7l0.1,0.7c0.066,0.433,0,0.783-0.2,1.05l-0.25-0.6
					c-0.233-0.466-0.533-0.8-0.9-1c-0.1-0.033,0.267-0.5,1.1-1.4c0.267-0.233,0.483-0.55,0.65-0.95l0.15-0.55
					C79.85,72.2,79.933,71.967,79.9,71.7z"/>
				<path style="fill-rule:evenodd;clip-rule:evenodd;fill:#FF765E;" d="M70.95,74.85c0.133,0.1,0.617,0.683,1.45,1.75
					c0.9,1.2,1.55,2,1.95,2.4c1.133,1.2,1.55,1.817,1.25,1.85c-0.233,0-0.667-0.383-1.3-1.15c-0.566-0.633-1-1.184-1.3-1.65
					c-0.133-0.233-0.917-1.2-2.35-2.9c-0.133-0.167-0.167-0.283-0.1-0.35C70.617,74.7,70.75,74.717,70.95,74.85z"/>
				<path style="fill-rule:evenodd;clip-rule:evenodd;fill:#757575;" d="M81.9,92.2c-0.133,0.366-0.383,0.616-0.75,0.75
					c-0.367,0.166-0.733,0.166-1.1,0c-0.367-0.167-0.65-0.434-0.85-0.8c-0.2-0.4-0.233-0.767-0.1-1.101
					c0.133-0.366,0.367-0.616,0.7-0.75c0.367-0.133,0.733-0.133,1.1,0c0.4,0.167,0.7,0.434,0.9,0.8
					C81.967,91.467,82,91.833,81.9,92.2z"/>
				
					<use xlink:href="#FlashAICB_x5F_1_x2F_Layer_1_x2F__x3C_Clip_Group_0_x3E__x5F_10"  width="3.45" height="3.5" y="-3.5" transform="matrix(1 0 0 -1 78.6499 89.4502)" style="overflow:visible;"/>
				
					<use xlink:href="#FlashAICB_x5F_1_x2F_Layer_1_x2F__x3C_Clip_Group_0_x3E__x5F_9"  width="1.85" height="1.05" y="-1.05" transform="matrix(1 0 0 -1 79.8501 90.25)" style="overflow:visible;"/>
				
					<use xlink:href="#FlashAICB_x5F_1_x2F_Layer_1_x2F__x3C_Clip_Group_0_x3E__x5F_8"  width="20.35" height="27.75" y="-27.75" transform="matrix(1 0 0 -1 101.6504 66.0498)" style="overflow:visible;"/>
				
					<use xlink:href="#FlashAICB_x5F_1_x2F_Layer_1_x2F__x3C_Clip_Group_0_x3E__x5F_7"  width="38.45" height="38.6" y="-38.6" transform="matrix(1 0 0 -1 81.0498 54.4502)" style="overflow:visible;"/>
				
					<use xlink:href="#FlashAICB_x5F_1_x2F_Layer_1_x2F__x3C_Clip_Group_0_x3E__x5F_6"  width="30.5" height="31.2" y="-31.2" transform="matrix(1 0 0 -1 81.8501 66.0498)" style="overflow:visible;"/>
				<path style="fill-rule:evenodd;clip-rule:evenodd;fill:#6C6D70;" d="M97.5,81.1l-1.1-3.5l0.699-0.4
					c0.667-0.034,1.517,0.483,2.551,1.55c1.133,1.2,1.866,2.65,2.199,4.35c0.334,1.667,0.167,2.267-0.5,1.8
					c-0.966-0.533-1.699-0.983-2.199-1.35C98.184,82.85,97.634,82.033,97.5,81.1z"/>
				
					<use xlink:href="#FlashAICB_x5F_1_x2F_Layer_1_x2F__x3C_Clip_Group_0_x3E__x5F_5"  width="18.4" height="24.25" y="-24.25" transform="matrix(1 0 0 -1 86.6504 71.5498)" style="overflow:visible;"/>
				<path style="fill-rule:evenodd;clip-rule:evenodd;fill:#F4F6FF;" d="M104.75,87.15c2.134,1.3,3.35,1.983,3.65,2.05
					c0.233,0.033,0.399-0.283,0.5-0.95c0.1-0.5,0.183-1.566,0.25-3.2v-8.4l0.449,9.15l-0.199,4.55L104.75,87.15z"/>
				<path style="fill-rule:evenodd;clip-rule:evenodd;fill:#F4F6FF;" d="M103.55,73.55c1.634,0.733,3.2,1.5,4.7,2.3
					c0.434,0.167,0.85,0.133,1.25-0.1l6.1-6.45l-6.5,7.6c-1.333-0.733-2.85-1.483-4.55-2.25c-3.467-1.566-6.184-2.483-8.149-2.75
					c-2.5-0.367-5.217,0.15-8.15,1.55l-3.65,2.2c0.633-0.733,1.567-1.467,2.8-2.2c2.533-1.434,5.399-2.117,8.6-2.05
					C97.833,71.433,100.35,72.15,103.55,73.55z"/>
				<path style="fill-rule:evenodd;clip-rule:evenodd;fill:#9F1C09;" d="M57.65,119.4l3.2-0.851l1.9,0.101
					c1.433,0.133,2.667,0.316,3.7,0.55l-0.55,4c-0.433,2.833-0.867,4.733-1.3,5.7c-0.467,1.066-1.45,1.133-2.95,0.199
					c-1.4-0.899-2.467-2.083-3.2-3.55c-0.534-1.1-0.833-2.45-0.9-4.05L57.65,119.4z"/>
				<path style="fill-rule:evenodd;clip-rule:evenodd;fill:#CE220A;" d="M69.65,124.55c-2,1.867-3.683,3.316-5.05,4.351
					c0.133-0.634,0.167-1.417,0.1-2.351c-0.1-1.866-0.617-3.533-1.55-5c-1.033-1.633-2.267-2.483-3.7-2.55l-1.8,0.4
					c2.1-1,4.45-2.351,7.05-4.051c5.2-3.433,9.033-6.949,11.5-10.55c3.867-5.6,7.517-10.8,10.95-15.6l4-5.5l0.5-0.5
					c0.5-0.3,1.267-0.284,2.3,0.05c1.033,0.3,1.717,1.15,2.05,2.55c0.167,0.7,0.233,1.367,0.2,2l-1.75,2.45
					c-1.4,2-2.667,3.934-3.8,5.8C90.116,96.983,89,98.967,87.3,102c-1.934,3.333-4.216,6.783-6.85,10.35
					C77.25,116.684,73.65,120.75,69.65,124.55z"/>
				<path style="fill-rule:evenodd;clip-rule:evenodd;fill:#8D1A0A;" d="M69.65,124.55c-2,1.867-3.683,3.316-5.05,4.351
					c0.133-0.667,0.167-1.467,0.1-2.4l0.3-1.35c0.167-1.067,0.05-2.25-0.35-3.551l-0.7-1.6l0.95,1.1c0.767,0.7,1.5,1,2.2,0.9
					c0.733-0.1,1.85-0.833,3.35-2.2c1.867-1.767,3.233-3.066,4.1-3.899c1.067-1.034,2.833-3.217,5.3-6.551
					c2.433-3.433,3.867-5.433,4.3-6c0.5-0.666,1.484-2.316,2.95-4.949c1.634-2.9,2.584-4.567,2.851-5
					c1.066-1.601,1.899-2.867,2.5-3.801c1.1-1.666,1.633-2.783,1.6-3.35c-0.033-0.567-0.283-1.067-0.75-1.5l-0.649-0.5l0.6,0.1
					c0.533,0.167,1.066,0.45,1.6,0.85c0.601,0.466,0.983,1.416,1.15,2.85c-2.3,3.267-4.083,5.934-5.35,8
					C90.116,96.983,89,98.967,87.3,102c-1.934,3.333-4.216,6.783-6.85,10.35C77.25,116.684,73.65,120.75,69.65,124.55z"/>
				<path style="fill-rule:evenodd;clip-rule:evenodd;fill:#FF765E;" d="M73.75,110.9c-1.467,1.366-2.717,2.267-3.75,2.699
					c-0.9,0.367-2.433,1.167-4.6,2.4c-1.1,0.634-2.1,1.217-3,1.75c0.1-0.066,0.267-0.184,0.5-0.35
					c0.467-0.334,1.067-0.684,1.8-1.051c0.867-0.466,2.733-1.816,5.6-4.05c2.733-2.166,4.5-3.666,5.3-4.5
					c0.533-0.6,1.883-2.566,4.05-5.899c2.567-3.967,4.184-6.434,4.85-7.4c1.033-1.5,2.45-3.4,4.25-5.7l2.35-3.05l-6.3,9.75
					c-1.633,2.7-4.233,6.616-7.8,11.75C76.233,108.384,75.15,109.6,73.75,110.9z"/>
				<path style="fill-rule:evenodd;clip-rule:evenodd;fill:#8D1A0A;" d="M84.4,104.9l-3.2,4.449c0-0.133,0.267-0.649,0.8-1.55
					l0.75-1.3c-1.6-0.733-2.683-1.483-3.25-2.25c-0.467-0.6-0.733-1.316-0.8-2.15l0.05-1.1l5.8,1.15L84.4,104.9z"/>
				<path style="fill-rule:evenodd;clip-rule:evenodd;fill:#8D1A0A;" d="M88.9,91.65c-0.967,1.033-2.233,4.133-3.801,9.3
					c-0.119,0.358-0.694,1.292-1.725,2.8c0.503-0.812,0.645-1.479,0.425-2c-0.233-0.467-0.65-0.9-1.25-1.3
					c-0.6-0.4-1.15-0.601-1.65-0.601h-1c0.333-0.433,0.717-0.899,1.15-1.399c0.9-0.967,1.667-1.517,2.3-1.65
					c0.6-0.166,1.566-1.533,2.9-4.1c1.4-2.7,2.116-4.066,2.15-4.101c0.267-0.233,0.767-0.233,1.5,0
					c0.733,0.2,1.283,0.483,1.649,0.851c0.467,0.467,0.684,1.066,0.65,1.8c-0.3-0.2-0.667-0.333-1.101-0.4
					C90.233,90.717,89.5,90.983,88.9,91.65z"/>
				<path style="fill-rule:evenodd;clip-rule:evenodd;fill:#6C6E70;" d="M93.95,101.15c-0.267,0.399-0.634,0.816-1.101,1.25
					c-0.066,0.066-0.35,0.216-0.85,0.449c-0.434,0.2-0.733,0.4-0.9,0.601c-0.333,0.366-0.483,0.7-0.449,1l-0.101-0.15l-0.85,1.8
					l-0.75,0.4l-2.5-2.15L87,102.5l-0.75-2.75l8.8-2.8l0.2,0.5c0.134,0.434,0.184,0.899,0.15,1.399
					c-0.034,0.801-0.267,1.167-0.7,1.101L93.95,101.15z"/>
				
					<use xlink:href="#FlashAICB_x5F_1_x2F_Layer_1_x2F__x3C_Clip_Group_0_x3E__x5F_4"  width="32.45" height="36.05" y="-36.05" transform="matrix(1 0 0 -1 69.9502 77.6001)" style="overflow:visible;"/>
				
					<use xlink:href="#FlashAICB_x5F_1_x2F_Layer_1_x2F__x3C_Clip_Group_0_x3E__x5F_3"  width="18.6" height="10.85" y="-10.85" transform="matrix(1 0 0 -1 77.4502 94.2002)" style="overflow:visible;"/>
				<path style="fill-rule:evenodd;clip-rule:evenodd;fill:#F4F6FF;" d="M80.45,101.05c-1.553-1.084-2.536-2.517-2.95-4.3
					c0.438,1.713,1.487,3.079,3.15,4.1c1.9,1.2,4.05,1.617,6.45,1.25c2.4-0.333,4.351-1.35,5.851-3.05
					c1.166-1.347,1.791-2.789,1.875-4.325c-0.047,1.64-0.622,3.181-1.726,4.625c-1.466,1.9-3.433,2.983-5.899,3.25
					C84.567,102.9,82.317,102.384,80.45,101.05z"/>
				
					<use xlink:href="#FlashAICB_x5F_1_x2F_Layer_1_x2F__x3C_Clip_Group_0_x3E__x5F_2"  width="31.65" height="35.2" y="-35.2" transform="matrix(1 0 0 -1 70.25 77.2998)" style="overflow:visible;"/>
				<path style="fill-rule:evenodd;clip-rule:evenodd;fill:#858585;" d="M90.3,93.05c0.033,0.8-0.316,1.533-1.05,2.2
					c-0.7,0.634-1.583,1.017-2.65,1.15c-1.066,0.1-1.983-0.101-2.75-0.601s-1.167-1.149-1.2-1.95c-0.033-0.8,0.317-1.517,1.05-2.149
					c0.733-0.667,1.633-1.05,2.7-1.15c1.033-0.133,1.933,0.05,2.699,0.55S90.267,92.25,90.3,93.05z"/>
				
					<use xlink:href="#FlashAICB_x5F_1_x2F_Layer_1_x2F__x3C_Clip_Group_0_x3E__x5F_1"  width="12.3" height="12.25" y="-12.25" transform="matrix(1 0 0 -1 79.6001 86.5)" style="overflow:visible;"/>
				
					<use xlink:href="#FlashAICB_x5F_1_x2F_Layer_1_x2F__x3C_Clip_Group_0_x3E_"  width="7.55" height="7.4" y="-7.4" transform="matrix(1 0 0 -1 82 87.8496)" style="overflow:visible;"/>
				<path style="fill-rule:evenodd;clip-rule:evenodd;fill:#E1E2E4;" d="M84.35,90.3c0.467-0.2,0.733-0.267,0.8-0.2l-0.8,0.7
					l-1.4,1.601c-0.034-0.267-0.017-0.517,0.05-0.75c0.067-0.2,0.217-0.434,0.45-0.7C83.717,90.616,84.017,90.4,84.35,90.3z"/>
				<path style="fill-rule:evenodd;clip-rule:evenodd;fill:#E1E2E4;" d="M87.65,90.7c0.333-0.101,0.533,0.066,0.6,0.5l-1.5,0.8
					l-1.7,1.25c0.233-0.533,0.566-1.033,1-1.5c0.267-0.267,0.617-0.517,1.05-0.75L87.65,90.7z"/>
			</g>
			
				<use xlink:href="#FlashAICB_x5F_1_x2F_Layer_1_x2F__x3C_Compound_Path_x3E_"  width="26.524" height="58.3" x="-0.008" y="-58.3" transform="matrix(1 0 0 -1 85.5 78.2002)" style="overflow:visible;opacity:0.3008;enable-background:new    ;"/>
			<g>
				<g>
					<g>
						
							<linearGradient id="SVGID_51_" gradientUnits="userSpaceOnUse" x1="83.7817" y1="110.9883" x2="104.2464" y2="110.9883" gradientTransform="matrix(0.9993 -0.0379 0.0379 0.9993 4.336834e-004 -1.008511e-004)">
							<stop  offset="0" style="stop-color:#FACDF9"/>
							<stop  offset="0.3176" style="stop-color:#EAF7FA"/>
							<stop  offset="1" style="stop-color:#FACDF9"/>
						</linearGradient>
						<path style="fill-rule:evenodd;clip-rule:evenodd;fill:url(#SVGID_51_);" d="M91.7,87c-0.066-1.533,0.416-2.867,1.45-4
							c1.066-1.133,2.366-1.733,3.899-1.8h0.15c1.533-0.034,2.866,0.466,4,1.5c1.133,1.033,1.733,2.316,1.8,3.85l1.05,27.95
							c1.467,0.9,2.634,2.066,3.5,3.5c0.9,1.5,1.384,3.134,1.45,4.9c0.1,2.833-0.816,5.283-2.75,7.35
							c-1.9,2.066-4.267,3.15-7.1,3.25c-2.834,0.134-5.284-0.767-7.351-2.7c-2.066-1.899-3.166-4.283-3.3-7.149
							c-0.033-1.733,0.333-3.384,1.1-4.95c0.767-1.5,1.834-2.75,3.2-3.75l-0.05-0.351L91.7,87z"/>
						<path style="fill-rule:evenodd;clip-rule:evenodd;fill:#7D2260;" d="M97.4,80.45c1.733,0,3.199,0.583,4.399,1.75
							c1.233,1.167,1.884,2.6,1.95,4.3l1.05,27.6c1.467,0.967,2.65,2.233,3.55,3.801c0.867,1.533,1.334,3.183,1.4,4.949
							c0.1,3.067-0.866,5.7-2.9,7.9c-2.066,2.233-4.616,3.4-7.649,3.5h-0.45c-2.967,0-5.517-1.017-7.65-3.05
							c-2.1-2.033-3.216-4.533-3.35-7.5c-0.033-1.8,0.316-3.483,1.05-5.05c0.733-1.634,1.8-2.983,3.2-4.051L90.95,87
							c-0.066-1.8,0.483-3.3,1.649-4.5c1.2-1.3,2.667-1.983,4.4-2.05H97.4z M97.4,81.2H97.05c-1.533,0.066-2.833,0.667-3.899,1.8
							c-1.034,1.133-1.517,2.467-1.45,4l1.05,27.6l0.05,0.351c-1.366,1-2.434,2.25-3.2,3.75c-0.767,1.566-1.133,3.217-1.1,4.95
							c0.134,2.767,1.2,5.1,3.2,7c1.967,1.899,4.316,2.85,7.05,2.85h0.4c2.833-0.1,5.199-1.184,7.1-3.25
							c1.934-2.066,2.85-4.517,2.75-7.35c-0.066-1.767-0.55-3.4-1.45-4.9c-0.866-1.434-2.033-2.6-3.5-3.5L103,86.55
							c-0.066-1.5-0.65-2.767-1.75-3.8C100.184,81.717,98.9,81.2,97.4,81.2z"/>
					</g>
					
						<linearGradient id="SVGID_52_" gradientUnits="userSpaceOnUse" x1="91.3965" y1="106.0957" x2="96.8502" y2="106.0957" gradientTransform="matrix(0.9993 -0.0367 0.0367 0.9993 -3.764108e-004 8.673966e-005)">
						<stop  offset="0.0118" style="stop-color:#FB4E42"/>
						<stop  offset="1" style="stop-color:#FB4E42"/>
					</linearGradient>
					<path style="fill-rule:evenodd;clip-rule:evenodd;fill:url(#SVGID_52_);" d="M97.2,84.3h0.1c0.733-0.033,1.367,0.2,1.9,0.7
						c0.533,0.533,0.816,1.167,0.85,1.9l1.25,31.149c0.033,0.733-0.2,1.367-0.7,1.9c-0.533,0.533-1.166,0.816-1.899,0.85
						l-0.101,0.05c-0.733,0.034-1.366-0.199-1.899-0.699c-0.533-0.534-0.816-1.167-0.851-1.9L94.6,87.1
						c-0.033-0.733,0.2-1.366,0.7-1.899C95.8,84.667,96.434,84.367,97.2,84.3z"/>
					
						<radialGradient id="SVGID_53_" cx="92.0283" cy="125.7539" r="7.8687" gradientTransform="matrix(0.9992 -0.0397 -0.0397 -0.9992 9.9888 251.3094)" gradientUnits="userSpaceOnUse">
						<stop  offset="0" style="stop-color:#FD958E"/>
						<stop  offset="1" style="stop-color:#FB4E42"/>
					</radialGradient>
					<path style="fill-rule:evenodd;clip-rule:evenodd;fill:url(#SVGID_53_);" d="M98.5,116.4c1.866-0.067,3.5,0.533,4.9,1.8
						c1.366,1.267,2.083,2.833,2.149,4.7c0.066,1.866-0.55,3.5-1.85,4.899c-1.267,1.367-2.834,2.084-4.7,2.15s-3.483-0.533-4.85-1.8
						c-1.367-1.267-2.084-2.834-2.15-4.7c-0.066-1.867,0.533-3.483,1.8-4.851C95.066,117.2,96.634,116.467,98.5,116.4z"/>
					
						<linearGradient id="SVGID_54_" gradientUnits="userSpaceOnUse" x1="152.3643" y1="-3.46" x2="157.6245" y2="-3.46" gradientTransform="matrix(0.6083 0.7937 -0.7937 0.6083 -3.193021e-004 -2.770424e-004)">
						<stop  offset="0" style="stop-color:#FEDCD9"/>
						<stop  offset="1" style="stop-color:#FD958E"/>
					</linearGradient>
					<path style="fill-rule:evenodd;clip-rule:evenodd;fill:url(#SVGID_54_);" d="M100.15,119.5c0.3,0.667,0.267,1.384-0.101,2.15
						c-0.399,0.767-1.033,1.35-1.899,1.75c-0.867,0.366-1.7,0.449-2.5,0.25c-0.834-0.2-1.417-0.65-1.75-1.351
						c-0.301-0.7-0.25-1.434,0.149-2.2c0.4-0.767,1.017-1.333,1.851-1.699c0.833-0.4,1.666-0.483,2.5-0.25
						C99.233,118.35,99.816,118.8,100.15,119.5z"/>
					
						<linearGradient id="SVGID_55_" gradientUnits="userSpaceOnUse" x1="91.2871" y1="105.5859" x2="94.2398" y2="105.5859" gradientTransform="matrix(0.9991 -0.0423 0.0423 0.9991 -2.113730e-004 -1.177154e-004)">
						<stop  offset="0" style="stop-color:#FEDCD9"/>
						<stop  offset="1" style="stop-color:#FC837B"/>
					</linearGradient>
					<polygon style="fill-rule:evenodd;clip-rule:evenodd;fill:url(#SVGID_55_);" points="98.05,86.3 99.25,116.7 96.3,116.85 
						95.1,86.4 					"/>
					<path style="fill-rule:evenodd;clip-rule:evenodd;fill:#BC5881;" d="M94.6,87.1c-0.033-0.733,0.2-1.366,0.7-1.899
						c0.5-0.534,1.134-0.833,1.9-0.9h0.1c0.733-0.033,1.367,0.2,1.9,0.7c0.533,0.533,0.816,1.167,0.85,1.9l1,24.649l-5.45,0.25
						L94.6,87.1z"/>
					
						<line style="fill-rule:evenodd;clip-rule:evenodd;fill:none;stroke:#7D2260;stroke-width:0.5;stroke-miterlimit:3.86;" x1="99.9" y1="106.95" x2="103.8" y2="106.8"/>
					
						<line style="fill-rule:evenodd;clip-rule:evenodd;fill:none;stroke:#7D2260;stroke-width:0.5;stroke-miterlimit:3.86;" x1="99.75" y1="102.5" x2="103.65" y2="102.35"/>
					
						<line style="fill-rule:evenodd;clip-rule:evenodd;fill:none;stroke:#7D2260;stroke-width:0.5;stroke-miterlimit:3.86;" x1="99.55" y1="98.05" x2="103.45" y2="97.9"/>
					
						<line style="fill-rule:evenodd;clip-rule:evenodd;fill:none;stroke:#7D2260;stroke-width:0.5;stroke-miterlimit:3.86;" x1="99.4" y1="93.6" x2="103.3" y2="93.45"/>
					
						<line style="fill-rule:evenodd;clip-rule:evenodd;fill:none;stroke:#7D2260;stroke-width:0.5;stroke-miterlimit:3.86;" x1="99.2" y1="89.15" x2="103.1" y2="89"/>
					
						<line style="fill-rule:evenodd;clip-rule:evenodd;fill:none;stroke:#7D2260;stroke-width:0.5;stroke-miterlimit:3.86;" x1="100.1" y1="111.4" x2="104" y2="111.25"/>
				</g>
			</g>
		</g>
		<g>
			<g>
				<path style="fill-rule:evenodd;clip-rule:evenodd;fill:#F8E1E7;" d="M54.55,33c0.434-0.467,0.983-0.7,1.65-0.7h4.7
					c0.667,0,1.217,0.233,1.65,0.7c0.367,0.433,0.55,0.983,0.55,1.65v18.8c0,0.8-0.233,1.433-0.7,1.9
					C61.967,55.783,61.383,56,60.65,56s-1.333-0.217-1.8-0.65c-0.467-0.467-0.7-1.1-0.7-1.9V36.9H56.2c-0.733,0-1.3-0.25-1.7-0.75
					c-0.367-0.4-0.55-0.917-0.55-1.55C53.95,34,54.15,33.467,54.55,33z"/>
				<path style="fill-rule:evenodd;clip-rule:evenodd;fill:#F8E1E7;" d="M80.7,52.15c-1.567,2.7-3.867,4.05-6.9,4.05
					c-3.033,0-5.316-1.35-6.85-4.05c-1.267-2.2-1.9-4.9-1.9-8.1c0-3.2,0.633-5.883,1.9-8.05c1.533-2.7,3.816-4.05,6.85-4.05
					c3.034,0,5.333,1.35,6.9,4.05c1.233,2.167,1.85,4.85,1.85,8.05C82.55,47.283,81.933,49.983,80.7,52.15z M73.8,51.75
					c2.4,0,3.6-2.567,3.6-7.7c0-5.1-1.2-7.65-3.6-7.65c-2.4,0-3.6,2.55-3.6,7.65C70.2,49.183,71.4,51.75,73.8,51.75z"/>
				<path style="fill-rule:evenodd;clip-rule:evenodd;fill:#F8E1E7;" d="M89.15,44.05c0,5.133,1.199,7.7,3.6,7.7s3.6-2.567,3.6-7.7
					c0-5.1-1.199-7.65-3.6-7.65S89.15,38.95,89.15,44.05z M85.9,36c1.533-2.7,3.816-4.05,6.85-4.05s5.333,1.35,6.9,4.05
					c1.233,2.167,1.85,4.85,1.85,8.05c0,3.233-0.616,5.934-1.85,8.1c-1.567,2.7-3.867,4.05-6.9,4.05s-5.316-1.35-6.85-4.05
					c-1.267-2.2-1.9-4.9-1.9-8.1C84,40.85,84.633,38.167,85.9,36z"/>
				<path style="fill-rule:evenodd;clip-rule:evenodd;fill:#F8E1E7;" d="M110.7,31.95c2.467,0,4.483,0.816,6.05,2.45
					c1.5,1.533,2.25,3.434,2.25,5.7c0,2.3-0.983,5.05-2.95,8.25c-1.666,2.733-3.483,5.017-5.45,6.85l-1.05,0.8
					c-0.233,0.133-0.566,0.2-1,0.2c-0.467,0-0.967-0.25-1.5-0.75c-0.566-0.534-0.85-1.083-0.85-1.65c0-0.3,0.233-0.75,0.7-1.35
					c2.3-2.467,3.816-4.233,4.55-5.3l-0.05-0.05c-0.634,0.267-1.334,0.4-2.101,0.4c-1.934,0-3.583-0.75-4.95-2.25
					c-1.3-1.433-1.949-3.15-1.949-5.15c0-2.2,0.767-4.1,2.3-5.7C106.3,32.767,108.3,31.95,110.7,31.95z M113.85,40.1
					c0-0.967-0.267-1.767-0.8-2.4c-0.6-0.667-1.383-1-2.35-1c-0.934,0-1.7,0.333-2.3,1c-0.567,0.633-0.851,1.433-0.851,2.4
					c0,0.933,0.267,1.733,0.8,2.4c0.567,0.7,1.351,1.05,2.351,1.05c0.934,0,1.7-0.333,2.3-1C113.566,41.917,113.85,41.1,113.85,40.1
					z"/>
			</g>
			<g>
				
					<linearGradient id="SVGID_56_" gradientUnits="userSpaceOnUse" x1="-55.0591" y1="58.5273" x2="-31.3841" y2="58.5273" gradientTransform="matrix(4.223865e-005 -1 1 -0.001 1.435880e-004 4.449275e-004)">
					<stop  offset="0.0745" style="stop-color:#6D114E"/>
					<stop  offset="0.2667" style="stop-color:#861B62"/>
					<stop  offset="0.6706" style="stop-color:#C73393"/>
					<stop  offset="0.9922" style="stop-color:#FF48BE"/>
				</linearGradient>
				<path style="fill-rule:evenodd;clip-rule:evenodd;fill:url(#SVGID_56_);" d="M54.55,32c0.434-0.467,0.983-0.7,1.65-0.7h4.7
					c0.667,0,1.217,0.233,1.65,0.7c0.367,0.433,0.55,0.983,0.55,1.65v18.8c0,0.8-0.233,1.433-0.7,1.9
					C61.967,54.783,61.383,55,60.65,55s-1.333-0.217-1.8-0.65c-0.467-0.467-0.7-1.1-0.7-1.9V35.9H56.2c-0.733,0-1.3-0.25-1.7-0.75
					c-0.367-0.4-0.55-0.917-0.55-1.55C53.95,33,54.15,32.467,54.55,32z"/>
				
					<linearGradient id="SVGID_57_" gradientUnits="userSpaceOnUse" x1="-55.2734" y1="73.8022" x2="-30.9984" y2="73.8022" gradientTransform="matrix(4.119465e-005 -1 1 -0.001 -9.129937e-006 -4.747650e-005)">
					<stop  offset="0.0745" style="stop-color:#6D114E"/>
					<stop  offset="0.2667" style="stop-color:#861B62"/>
					<stop  offset="0.6706" style="stop-color:#C73393"/>
					<stop  offset="0.9922" style="stop-color:#FF48BE"/>
				</linearGradient>
				<path style="fill-rule:evenodd;clip-rule:evenodd;fill:url(#SVGID_57_);" d="M80.7,51.15c-1.567,2.7-3.867,4.05-6.9,4.05
					c-3.033,0-5.316-1.35-6.85-4.05c-1.267-2.2-1.9-4.9-1.9-8.1c0-3.2,0.633-5.883,1.9-8.05c1.533-2.7,3.816-4.05,6.85-4.05
					c3.034,0,5.333,1.35,6.9,4.05c1.233,2.167,1.85,4.85,1.85,8.05C82.55,46.283,81.933,48.983,80.7,51.15z M73.8,50.75
					c2.4,0,3.6-2.567,3.6-7.7c0-5.1-1.2-7.65-3.6-7.65c-2.4,0-3.6,2.55-3.6,7.65C70.2,48.183,71.4,50.75,73.8,50.75z"/>
				
					<linearGradient id="SVGID_58_" gradientUnits="userSpaceOnUse" x1="-55.2925" y1="92.752" x2="-31.0175" y2="92.752" gradientTransform="matrix(4.119465e-005 -1 1 -0.001 -9.129937e-006 -4.747650e-005)">
					<stop  offset="0.0745" style="stop-color:#6D114E"/>
					<stop  offset="0.2667" style="stop-color:#861B62"/>
					<stop  offset="0.6706" style="stop-color:#C73393"/>
					<stop  offset="0.9922" style="stop-color:#FF48BE"/>
				</linearGradient>
				<path style="fill-rule:evenodd;clip-rule:evenodd;fill:url(#SVGID_58_);" d="M89.15,43.05c0,5.133,1.199,7.7,3.6,7.7
					s3.6-2.567,3.6-7.7c0-5.1-1.199-7.65-3.6-7.65S89.15,37.95,89.15,43.05z M85.9,35c1.533-2.7,3.816-4.05,6.85-4.05
					s5.333,1.35,6.9,4.05c1.233,2.167,1.85,4.85,1.85,8.05c0,3.233-0.616,5.934-1.85,8.1c-1.567,2.7-3.867,4.05-6.9,4.05
					s-5.316-1.35-6.85-4.05c-1.267-2.2-1.9-4.9-1.9-8.1C84,39.85,84.633,37.167,85.9,35z"/>
				
					<linearGradient id="SVGID_59_" gradientUnits="userSpaceOnUse" x1="-55.3081" y1="110.7021" x2="-31.0331" y2="110.7021" gradientTransform="matrix(4.119465e-005 -1 1 -0.001 -9.129937e-006 -4.747650e-005)">
					<stop  offset="0.0745" style="stop-color:#6D114E"/>
					<stop  offset="0.2667" style="stop-color:#861B62"/>
					<stop  offset="0.6706" style="stop-color:#C73393"/>
					<stop  offset="0.9922" style="stop-color:#FF48BE"/>
				</linearGradient>
				<path style="fill-rule:evenodd;clip-rule:evenodd;fill:url(#SVGID_59_);" d="M110.7,30.95c2.467,0,4.483,0.816,6.05,2.45
					c1.5,1.533,2.25,3.434,2.25,5.7c0,2.3-0.983,5.05-2.95,8.25c-1.666,2.733-3.483,5.017-5.45,6.85l-1.05,0.8
					c-0.233,0.133-0.566,0.2-1,0.2c-0.467,0-0.967-0.25-1.5-0.75c-0.566-0.534-0.85-1.083-0.85-1.65c0-0.3,0.233-0.75,0.7-1.35
					c2.3-2.467,3.816-4.233,4.55-5.3l-0.05-0.05c-0.634,0.267-1.334,0.4-2.101,0.4c-1.934,0-3.583-0.75-4.95-2.25
					c-1.3-1.433-1.949-3.15-1.949-5.15c0-2.2,0.767-4.1,2.3-5.7C106.3,31.767,108.3,30.95,110.7,30.95z M113.05,36.7
					c-0.6-0.667-1.383-1-2.35-1c-0.934,0-1.7,0.333-2.3,1c-0.567,0.633-0.851,1.433-0.851,2.4c0,0.933,0.267,1.733,0.8,2.4
					c0.567,0.7,1.351,1.05,2.351,1.05c0.934,0,1.7-0.333,2.3-1c0.566-0.633,0.85-1.45,0.85-2.45
					C113.85,38.133,113.583,37.333,113.05,36.7z"/>
			</g>
		</g>
		
			<use xlink:href="#FlashAICB_x5F_1_x2F_Layer_1_x2F__x3C_Path_x3E_"  width="128.65" height="61.9" y="-61.9" transform="matrix(1 0 0 -1 22.1499 86.0498)" style="overflow:visible;opacity:0.2813;enable-background:new    ;"/>
		
			<use xlink:href="#FlashAICB_x5F_1_x2F_Layer_1_x2F__x3C_Group_x3E_"  width="119.25" height="66.417" y="-66.417" transform="matrix(1 0 0 -1 26.8501 22.3501)" style="overflow:visible;opacity:0.8594;enable-background:new    ;"/>
	</g>
</g>
</svg>
