<?xml version="1.0" encoding="iso-8859-1"?>
<!-- Generator: Adobe Illustrator 15.1.0, SVG Export Plug-In . SVG Version: 6.00 Build 0)  -->
<!DOCTYPE svg PUBLIC "-//W3C//DTD SVG 1.1//EN" "http://www.w3.org/Graphics/SVG/1.1/DTD/svg11.dtd">
<svg version="1.1" xmlns="http://www.w3.org/2000/svg" xmlns:xlink="http://www.w3.org/1999/xlink" x="0px" y="0px" width="171.8px"
	 height="172.35px" viewBox="0 0 171.8 172.35" style="enable-background:new 0 0 171.8 172.35;" xml:space="preserve">
<symbol  id="_x33_" viewBox="-0.183 -42.483 27.277 42.982">
	<g id="Layer_1_17_">
		<g>
			<path style="fill-rule:evenodd;clip-rule:evenodd;fill:#FFFFFF;" d="M24.109-8.975c0.299-3.15-0.1-5.649-1.2-7.5
				c-0.55-0.95-1.15-1.574-1.799-1.875l2.85-3.45c1.899-2.75,2.775-5.35,2.625-7.8c-0.2-3-1.399-5.499-3.6-7.499
				c-2.299-2.05-5.35-3.175-9.149-3.375c-4.35-0.2-8.099,1.675-11.249,5.625c-3.15,3.9-3.399,6.35-0.75,7.35
				c2.25,0.85,4.05,0.225,5.4-1.875c1.55-2.4,3.25-3.6,5.099-3.6c1.601,0,2.925,0.575,3.975,1.725c1.15,1.201,1.625,2.7,1.425,4.5
				c-0.2,1.601-2.075,2.65-5.625,3.15c-1,0.15-1.85,0.775-2.55,1.875c-0.55,0.85-0.874,1.8-0.975,2.85
				c-0.2,1.95,1.425,3.2,4.875,3.75c2.6,0.399,3.775,1.7,3.525,3.899c-0.3,2.75-2.35,3.875-6.149,3.375
				c-0.851-0.101-1.8-0.975-2.85-2.625c-1.05-1.549-2.3-2.35-3.75-2.4c-1.6-0.1-2.525,0.75-2.775,2.55l0.15,2.699
				c0.85,2,1.6,3.35,2.25,4.05c1.4,1.65,3.475,2.724,6.225,3.225c3.7,0.7,6.799,0.35,9.299-1.05
				C22.185-2.9,23.759-5.425,24.109-8.975z"/>
			<path style="fill-rule:evenodd;clip-rule:evenodd;fill:#E4E2D6;" d="M19.61-3.575c2.649-1.45,4.149-3.925,4.5-7.425
				c0.299-3.05-0.1-5.5-1.2-7.349c-0.55-0.95-1.15-1.575-1.799-1.875l2.85-3.375c1.899-2.75,2.775-5.299,2.625-7.649
				c-0.2-2.95-1.399-5.399-3.6-7.349c-2.299-2.05-5.35-3.175-9.149-3.375c-4.35-0.15-8.124,1.725-11.324,5.625
				c-3.1,3.799-3.325,6.174-0.675,7.124c1.45,0.5,2.975-0.35,4.574-2.55c1.75-2.399,3.65-3.6,5.7-3.6c1.6,0,3.075,0.6,4.424,1.8
				c1.5,1.3,2.15,2.825,1.95,4.574c-0.101,0.9-0.85,1.7-2.25,2.4c-1.2,0.6-2.575,1-4.125,1.2c-1,0.15-1.85,0.75-2.55,1.8
				c-0.55,0.851-0.874,1.8-0.975,2.85c-0.15,1.601,1.525,2.65,5.025,3.15c1.6,0.25,2.8,0.9,3.6,1.95c0.6,0.75,0.85,1.55,0.75,2.4
				c-0.15,1.45-1.025,2.45-2.625,3c-1.3,0.45-2.8,0.55-4.5,0.3c-0.851-0.101-1.8-0.925-2.85-2.475c-1.05-1.551-2.3-2.375-3.75-2.476
				c-1.6-0.05-2.525,0.8-2.775,2.55l0.15,2.625c0.8,1.8,1.6,3.125,2.4,3.975C5.561-4.1,7.71-3.05,10.46-2.6
				C14.11-1.9,17.16-2.225,19.61-3.575z"/>
			
				<use xlink:href="#flash0.ai_x5F_0_x2F_Layer_1_x2F__x3C_Path_x3E__x5F_1"  width="17.732" height="26.495" x="-0.171" y="-26.506" transform="matrix(1.4999 0 0 1.4999 0.2505 -1.3496)" style="overflow:visible;opacity:0.5781;enable-background:new    ;"/>
			<path style="fill-rule:evenodd;clip-rule:evenodd;fill:none;stroke:#000000;stroke-miterlimit:10;" d="M24.184-11.6
				c0.05,0.5,0.025,1.375-0.075,2.625c-0.35,3.55-1.925,6.074-4.725,7.574c-2.5,1.4-5.6,1.75-9.299,1.05
				c-2.75-0.5-4.825-1.575-6.225-3.225c-0.65-0.7-1.4-2.05-2.25-4.05L1.461-8.45c-0.05-0.65-0.05-1.25,0-1.8
				c-0.25-2.85,0.675-4.225,2.775-4.125c1.45,0.05,2.7,0.851,3.75,2.4c1.049,1.65,1.999,2.525,2.85,2.625
				c3.649,0.5,5.674-0.55,6.074-3.15c-0.2-1.45-1.35-2.325-3.45-2.625c-3.449-0.55-5.074-1.8-4.875-3.75l0.075-0.6
				c-0.1-0.35-0.125-0.65-0.075-0.9c0.101-1.049,0.425-1.999,0.975-2.85c0.7-1.1,1.55-1.725,2.55-1.875
				c3.499-0.4,5.374-1.425,5.625-3.075c-0.2-1.4-0.825-2.575-1.875-3.525c-1.05-0.85-2.225-1.275-3.525-1.275
				c-1.85,0-3.549,1.2-5.099,3.6c-1.35,2.1-3.15,2.725-5.4,1.875c-1.25-0.5-1.725-1.55-1.425-3.15
				c-0.449-2.05,0.725-4.424,3.525-7.125c3-2.949,6.3-4.35,9.899-4.199c3.8,0.2,6.85,1.325,9.149,3.375c2.2,2,3.4,4.5,3.6,7.5
				l-0.075,1.35l0.075,0.15c0.15,3.35-1.399,6.824-4.65,10.425C23.535-17.574,24.285-15.049,24.184-11.6z"/>
		</g>
	</g>
</symbol>
<symbol  id="BG_x2F_bg_navy" viewBox="0 -134 134 134">
	<g id="Layer_1_16_">
		<g>
			<g>
				
					<linearGradient id="SVGID_1_" gradientUnits="userSpaceOnUse" x1="16086.8398" y1="-64.9141" x2="16219.2402" y2="-64.9141" gradientTransform="matrix(7.555724e-006 1 -1 -0.001 1.939 -16220.1055)">
					<stop  offset="0.098" style="stop-color:#293556"/>
					<stop  offset="0.3961" style="stop-color:#3F5789"/>
					<stop  offset="0.5529" style="stop-color:#49669F"/>
					<stop  offset="0.9686" style="stop-color:#A8A3B4"/>
				</linearGradient>
				<path style="fill-rule:evenodd;clip-rule:evenodd;fill:url(#SVGID_1_);" d="M133.15-67c0-18.267-6.467-33.867-19.4-46.8
					c-12.933-12.934-28.517-19.4-46.75-19.4c-18.267,0-33.867,6.467-46.8,19.4C7.267-100.867,0.8-85.267,0.8-67
					s6.467,33.867,19.4,46.8C33.133-7.267,48.733-0.8,67-0.8c18.233,0,33.817-6.467,46.75-19.4
					C126.683-33.133,133.15-48.733,133.15-67z"/>
				<path style="fill-rule:evenodd;clip-rule:evenodd;fill:#121937;" d="M67-1.65c-18.033,0-33.434-6.383-46.2-19.15
					S1.65-48.967,1.65-67c0-18.066,6.383-33.467,19.15-46.2c12.767-12.767,28.167-19.15,46.2-19.15
					c18.066,0,33.467,6.383,46.2,19.15c12.767,12.733,19.15,28.134,19.15,46.2c0,18.033-6.383,33.434-19.15,46.2
					C100.467-8.033,85.066-1.65,67-1.65z M5.05-92.65C1.683-84.517,0-75.967,0-67s1.683,17.517,5.05,25.65
					c3.367,8.167,8.217,15.417,14.55,21.75c6.333,6.333,13.583,11.184,21.75,14.55C49.483-1.684,58.033,0,67,0
					s17.517-1.684,25.65-5.05c8.133-3.367,15.367-8.217,21.7-14.55c6.333-6.333,11.184-13.583,14.55-21.75
					c3.4-8.167,5.1-16.716,5.1-25.65s-1.7-17.483-5.1-25.65c-3.367-8.133-8.217-15.383-14.55-21.75
					c-6.333-6.333-13.566-11.184-21.7-14.55C84.517-132.316,75.967-134,67-134s-17.517,1.684-25.65,5.05
					c-8.167,3.367-15.417,8.217-21.75,14.55C13.267-108.066,8.417-100.816,5.05-92.65z"/>
			</g>
			
				<use xlink:href="#zzz_x5F_miscellaneous_x2F_FlashAICB_copy_2_x2F_Layer_1_x2F__x3C_Path_x3E__x5F_2"  width="118.85" height="118.7" y="-118.7" transform="matrix(1 0 0 1 7.6001 -5.5)" style="overflow:visible;opacity:0.9102;enable-background:new    ;"/>
		</g>
	</g>
</symbol>
<symbol  id="SIDE_x5F_DECOR" viewBox="0.01 -60.2 177.48 60.2">
	<g id="Layer_1_19_">
		<use xlink:href="#SIDE_x5F_DECOR_x5F_01"  width="45.736" height="60.2" x="0.01" y="-60.2" style="overflow:visible;"/>
		
			<use xlink:href="#SIDE_x5F_DECOR_x5F_01"  width="45.736" height="60.2" x="0.01" y="-60.2" transform="matrix(-1 0 0 1 177.5 0)" style="overflow:visible;"/>
	</g>
</symbol>
<symbol  id="SIDE_x5F_DECOR_x5F_01" viewBox="0.01 -60.2 45.736 60.2">
	<g id="Layer_1_15_">
		<path style="fill-rule:evenodd;clip-rule:evenodd;fill:#5C5942;" d="M21.55-19h0.1l0.4-0.3c3.333-2.4,5.767-6.167,7.3-11.3
			c0.5-2.033,0.733-4.217,0.7-6.55l0.7,0.55c0.533,0.3,1.133,0.434,1.8,0.4l-0.05-0.1l0.45-0.2c3.9-1.833,7.35-5.333,10.35-10.5
			c1.267-2.233,2.067-4.367,2.4-6.4c0.233-2.7-0.417-4.833-1.95-6.4c-0.633-0.267-1.3-0.4-2-0.4l-0.1,0.2
			c-2.867-0.2-5.9,0.15-9.1,1.05c-3.367,1.067-6.25,2.583-8.65,4.55c-2,1.633-3.433,3.55-4.3,5.75c-1.333,2.6-1.333,4.816,0,6.65
			l0.25,0.05c-4.833,1.434-8.583,3.85-11.25,7.25c-1.533,1.934-2.483,3.95-2.85,6.05c-0.367,2.8,0.35,4.933,2.15,6.4
			c0.233,0.3,0.767,0.45,1.6,0.45H10c-4.767,2.2-7.933,5.5-9.5,9.9c-0.133,0.833-0.267,1.633-0.4,2.4c-0.2,1.3-0.067,2.517,0.4,3.65
			C1-3.217,2.35-1.383,4.55-0.35c0.633,0.2,1.167,0.217,1.6,0.05h0.3l0.3-0.3c1.2-0.5,2.4-1.5,3.6-3c2.066,2.2,4.333,3.4,6.8,3.6
			l0.8-0.2l0.8-0.5c1.3-1.767,2.133-3.8,2.5-6.1c0.133-1.767,0.067-3.767-0.2-6c0-2.267-0.566-4.417-1.7-6.45l0.7,0.35
			c0.167,0.2,0.65,0.217,1.45,0.05L21.55-19z M16.25-26.35c-2.333,1.5-4.617,2.5-6.85,3c-0.033,0.1-0.117,0.133-0.25,0.1
			c-1.333-0.967-1.833-2.617-1.5-4.95c0.333-1.933,1.133-3.783,2.4-5.55c1.733-2,3.95-3.733,6.65-5.2c2.633-1.3,5.283-2.1,7.95-2.4
			c-0.8,0.267-1.45,0.517-1.95,0.75c0.4-0.133,0.816-0.283,1.25-0.45H24c0.167-0.067,0.367-0.117,0.6-0.15l0.15,0.05v0.1
			c0.067-0.034,0.183-0.083,0.35-0.15h0.05c0.067-0.033,0.133-0.066,0.2-0.1v-0.1c0.1,0.033,0.183,0.083,0.25,0.15
			c0.333,0.2,0.65,0.417,0.95,0.65c0.867,0.867,1.417,2.133,1.65,3.8c0.2,1.966-0.05,3.883-0.75,5.75c-1.4,4.9-3.6,8.466-6.6,10.7
			c-0.033-0.2-0.017-0.5,0.05-0.9c-0.2,0.4-0.3,0.767-0.3,1.1c-1.733-0.533-3-1.934-3.8-4.2C16.433-25.117,16.25-25.783,16.25-26.35
			z M13.45-21.65l0.05-0.05c0.033-0.033,0.05-0.066,0.05-0.1l0.05-0.05c0.033,0.033,0.066,0.033,0.1,0h0.05
			c1.733,0.5,3.1,1.783,4.1,3.85c0.867,1.667,1.383,3.383,1.55,5.15c0.2,2.3,0.217,4.267,0.05,5.9
			c-0.233,2.233-0.917,4.083-2.05,5.55c-0.097-0.032-0.147-0.141-0.15-0.325C17.249-1.539,17.232-1.397,17.2-1.3
			c-1.934-0.267-3.6-1.3-5-3.1c-0.633-0.467-1.083-1.033-1.35-1.7c-1.667,2-3.383,3.5-5.15,4.5l0.05-0.15l-0.2,0.2
			C3.85-2.25,2.733-3.667,2.2-5.8C1.967-6.967,1.883-8.15,1.95-9.35c0-0.733,0.083-1.433,0.25-2.1c0.6-2.2,1.933-4.167,4-5.9
			c1.767-1.8,4.183-3.267,7.25-4.4V-21.65z M29-45c-2.467,1.5-4.95,2.3-7.45,2.4c0.067-0.033,0.184-0.133,0.35-0.3
			c-0.3,0.033-0.467,0.066-0.5,0.1c-1.2-1.367-1.267-3.133-0.2-5.3c0.867-1.833,2.2-3.6,4-5.3c2.2-1.8,4.816-3.184,7.85-4.15
			c2.8-0.9,5.7-1.284,8.7-1.15l-0.05,0.2c0.1-0.033,0.267-0.1,0.5-0.2c-0.2,0.1-0.35,0.217-0.45,0.35
			c0.333,0.067,0.567-0.066,0.7-0.4c1.267,1.167,1.75,2.967,1.45,5.4c-0.4,2.1-1.133,3.95-2.2,5.55c-2.7,5.1-5.983,8.433-9.85,10
			c-1.633-0.867-2.5-2.483-2.6-4.85C29.183-43.35,29.1-44.133,29-45z"/>
		<path style="fill-rule:evenodd;clip-rule:evenodd;fill:#F2F1E4;" d="M24.05-40.2c0.3-0.267,0.517-0.517,0.65-0.75l0.05-0.1v-0.1
			c-0.033,0-0.067,0.033-0.1,0.1c-0.033,0-0.066,0-0.1,0c-0.033,0-0.066,0-0.1,0h-0.1c-2.033,1.033-3.817,2.433-5.35,4.2
			c-1.5,2.2-2.467,4.434-2.9,6.7c-0.1,1.233-0.05,2.5,0.15,3.8c0,0.567,0.183,1.233,0.55,2c0.8,2.267,2.067,3.667,3.8,4.2
			c0-0.333,0.1-0.7,0.3-1.1c0.5-2.7,0.783-6.1,0.85-10.2c0.067-2.466,0.2-4.233,0.4-5.3c0.434-1.333,1.067-2.45,1.9-3.35V-40.2z
			 M5.75-1.75L5.9-1.9l0.05-0.15c0.633-1.867,1.083-4.034,1.35-6.5c0.233-1.1,0.434-2.333,0.6-3.7c0.667-2.233,1.083-3.833,1.25-4.8
			c0.4-1.067,1.417-2.267,3.05-3.6L11.75-20c-0.967,1.1-1.633,2.35-2,3.75c-0.767,2.4-0.933,4.683-0.5,6.85
			c0.067,0.433,0.133,0.816,0.2,1.15c0.267,0.767,0.733,1.483,1.4,2.15c0.267,0.667,0.717,1.233,1.35,1.7c1.4,1.8,3.066,2.833,5,3.1
			c0.032-0.097,0.049-0.239,0.05-0.425V-1.75l-0.15-0.2c-0.2-1.6-0.65-3.466-1.35-5.6c-0.5-1.267-1.05-2.65-1.65-4.15
			c-0.9-2.233-1.467-3.983-1.7-5.25c-0.1-0.966,0.017-1.966,0.35-3v-0.35c0.133,0,0.383-0.4,0.75-1.2l-0.05-0.15v-0.1
			c-3.067,1.133-5.483,2.6-7.25,4.4c-2.067,1.733-3.4,3.7-4,5.9c-0.167,0.667-0.25,1.367-0.25,2.1C1.883-8.15,1.967-6.967,2.2-5.8
			c0.533,2.133,1.65,3.55,3.35,4.25L5.75-1.75z M22.7-40.6c0.5-0.233,1.15-0.483,1.95-0.75c-2.667,0.3-5.316,1.1-7.95,2.4
			c-2.7,1.467-4.917,3.2-6.65,5.2c-1.267,1.767-2.066,3.617-2.4,5.55c-0.333,2.333,0.167,3.983,1.5,4.95
			c0.133,0.033,0.217,0,0.25-0.1l0.05-0.05c2-2.233,4.2-5.533,6.6-9.9c1.333-2.167,2.467-3.717,3.4-4.65
			C20.35-38.983,21.433-39.867,22.7-40.6z M12.2-20.2c-0.067,0.267-0.15,0.684-0.25,1.25c0.033-0.6,0.083-1.017,0.15-1.25H12.2z
			 M41.75-58.7c-3-0.133-5.9,0.25-8.7,1.15c-3.033,0.966-5.65,2.35-7.85,4.15c-1.8,1.7-3.133,3.467-4,5.3
			c-1.067,2.167-1,3.934,0.2,5.3c0.033-0.034,0.2-0.067,0.5-0.1l0.2-0.2c3.033-2.333,5.9-5.233,8.6-8.7
			c2.267-1.934,3.883-3.367,4.85-4.3c1.667-1.133,3.5-1.9,5.5-2.3l0.15-0.05C41.267-58.617,41.45-58.7,41.75-58.7z M31.85-37.8
			c0-0.133,0.15-0.25,0.45-0.35c1.167-2.567,2.467-6.167,3.9-10.8c0.566-2.267,1.183-4.083,1.85-5.45
			c0.767-1.3,1.717-2.417,2.85-3.35c0.267-0.233,0.55-0.433,0.85-0.6c0.1-0.133,0.25-0.25,0.45-0.35c-0.233,0.1-0.4,0.167-0.5,0.2
			c-2.434,0.633-4.667,1.867-6.7,3.7c-2.1,1.767-3.7,3.783-4.8,6.05c-0.467,1.2-0.867,2.45-1.2,3.75c0.1,0.867,0.183,1.65,0.25,2.35
			C29.35-40.283,30.217-38.667,31.85-37.8z"/>
		
			<linearGradient id="SVGID_2_" gradientUnits="userSpaceOnUse" x1="2709.4028" y1="-18875.8828" x2="2732.5278" y2="-18875.8828" gradientTransform="matrix(-0.4303 -0.9027 0.9658 -0.2979 19422.9492 -3201.2954)">
			<stop  offset="0.0235" style="stop-color:#737373"/>
			<stop  offset="0.0745" style="stop-color:#81807F"/>
			<stop  offset="0.4039" style="stop-color:#DAD4CA"/>
			<stop  offset="0.5765" style="stop-color:#EEEADB"/>
			<stop  offset="0.749" style="stop-color:#FEFBE8"/>
			<stop  offset="0.9961" style="stop-color:#E4E7E9"/>
		</linearGradient>
		<path style="fill-rule:evenodd;clip-rule:evenodd;fill:url(#SVGID_2_);" d="M24.05-40.2v0.1c-0.833,0.9-1.466,2.017-1.9,3.35
			c-0.2,1.067-0.333,2.833-0.4,5.3c-0.067,4.1-0.35,7.5-0.85,10.2c-0.066,0.4-0.083,0.7-0.05,0.9c3-2.233,5.2-5.8,6.6-10.7
			c0.7-1.867,0.95-3.784,0.75-5.75c-0.233-1.667-0.784-2.934-1.65-3.8c-0.3-0.233-0.617-0.45-0.95-0.65
			c-0.067-0.067-0.15-0.117-0.25-0.15v0.1c-0.067,0.033-0.133,0.066-0.2,0.1H25.1c-0.167,0.067-0.283,0.117-0.35,0.15l-0.05,0.1
			c0.066,0,0.117,0.017,0.15,0.05C24.55-40.633,24.283-40.4,24.05-40.2z"/>
		
			<linearGradient id="SVGID_3_" gradientUnits="userSpaceOnUse" x1="2708.1641" y1="-18893.5898" x2="2729.8574" y2="-18893.5898" gradientTransform="matrix(-0.431 -0.9023 0.9652 -0.2994 19424.1387 -3216.437)">
			<stop  offset="0.0235" style="stop-color:#737373"/>
			<stop  offset="0.1725" style="stop-color:#81807F"/>
			<stop  offset="0.4314" style="stop-color:#DAD4CA"/>
			<stop  offset="0.6627" style="stop-color:#EEEADB"/>
			<stop  offset="1" style="stop-color:#FEFBE8"/>
		</linearGradient>
		<path style="fill-rule:evenodd;clip-rule:evenodd;fill:url(#SVGID_3_);" d="M17.25-1.725c0.003,0.185,0.053,0.293,0.15,0.325
			c1.133-1.467,1.817-3.317,2.05-5.55c0.167-1.633,0.15-3.6-0.05-5.9c-0.167-1.767-0.683-3.483-1.55-5.15
			c-1-2.067-2.367-3.35-4.1-3.85H13.7c-0.034,0.033-0.067,0.033-0.1,0l-0.05,0.05c0,0.033-0.017,0.066-0.05,0.1l-0.05,0.05
			l0.05,0.15c-0.367,0.8-0.617,1.2-0.75,1.2v0.35c-0.333,1.034-0.45,2.034-0.35,3c0.233,1.267,0.8,3.017,1.7,5.25
			c0.6,1.5,1.15,2.883,1.65,4.15c0.7,2.133,1.15,4,1.35,5.6l0.15,0.2V-1.725z"/>
		
			<linearGradient id="SVGID_4_" gradientUnits="userSpaceOnUse" x1="2707.1265" y1="-18883.6465" x2="2724.5164" y2="-18883.6465" gradientTransform="matrix(-0.427 -0.9043 0.9649 -0.2985 19389.1953 -3193.4907)">
			<stop  offset="0.0235" style="stop-color:#737373"/>
			<stop  offset="0.1725" style="stop-color:#81807F"/>
			<stop  offset="0.4314" style="stop-color:#DAD4CA"/>
			<stop  offset="0.6627" style="stop-color:#EEEADB"/>
			<stop  offset="1" style="stop-color:#FEFBE8"/>
		</linearGradient>
		<path style="fill-rule:evenodd;clip-rule:evenodd;fill:url(#SVGID_4_);" d="M10.85-6.1c-0.667-0.667-1.133-1.383-1.4-2.15
			C9.383-8.583,9.317-8.967,9.25-9.4c-0.433-2.167-0.267-4.45,0.5-6.85c0.367-1.4,1.033-2.65,2-3.75l0.45-0.65
			c-1.633,1.333-2.65,2.533-3.05,3.6c-0.167,0.966-0.583,2.566-1.25,4.8c-0.167,1.367-0.367,2.6-0.6,3.7
			c-0.267,2.466-0.716,4.633-1.35,6.5L5.9-1.9L5.75-1.75L5.7-1.6C7.467-2.6,9.183-4.1,10.85-6.1z"/>
		
			<linearGradient id="SVGID_5_" gradientUnits="userSpaceOnUse" x1="2725.8408" y1="-18887.4922" x2="2750.4524" y2="-18887.4922" gradientTransform="matrix(-0.4317 -0.902 0.9654 -0.2994 19431.0137 -3218.7734)">
			<stop  offset="0.0235" style="stop-color:#737373"/>
			<stop  offset="0.0745" style="stop-color:#81807F"/>
			<stop  offset="0.4039" style="stop-color:#DAD4CA"/>
			<stop  offset="0.5765" style="stop-color:#EEEADB"/>
			<stop  offset="0.749" style="stop-color:#FEFBE8"/>
			<stop  offset="0.9961" style="stop-color:#E4E7E9"/>
		</linearGradient>
		<path style="fill-rule:evenodd;clip-rule:evenodd;fill:url(#SVGID_5_);" d="M9.4-23.35c2.233-0.5,4.517-1.5,6.85-3
			c-0.2-1.3-0.25-2.566-0.15-3.8c0.433-2.267,1.4-4.5,2.9-6.7c1.533-1.767,3.317-3.167,5.35-4.2H24.3
			C24.233-41.017,24.167-41,24.1-41h-0.025c-0.051-0.032-0.092-0.049-0.125-0.05c-0.434,0.167-0.85,0.316-1.25,0.45
			c-1.267,0.733-2.35,1.617-3.25,2.65c-0.934,0.934-2.067,2.483-3.4,4.65c-2.4,4.367-4.6,7.667-6.6,9.9L9.4-23.35z"/>
		
			<linearGradient id="SVGID_6_" gradientUnits="userSpaceOnUse" x1="2707.1265" y1="-18877.2148" x2="2724.5164" y2="-18877.2148" gradientTransform="matrix(-0.427 -0.9043 0.9649 -0.2985 19389.1953 -3193.4907)">
			<stop  offset="0" style="stop-color:#95856A"/>
			<stop  offset="1" style="stop-color:#DFD1B1"/>
		</linearGradient>
		<path style="fill-rule:evenodd;clip-rule:evenodd;fill:url(#SVGID_6_);" d="M12.2-20.2h-0.1c-0.067,0.233-0.117,0.65-0.15,1.25
			C12.05-19.517,12.133-19.933,12.2-20.2z"/>
		
			<linearGradient id="SVGID_7_" gradientUnits="userSpaceOnUse" x1="2766.5435" y1="-18872.3105" x2="2775.8354" y2="-18872.3105" gradientTransform="matrix(-0.4332 -0.9013 0.9647 -0.3013 19437.3965 -3240.3008)">
			<stop  offset="0.0235" style="stop-color:#737373"/>
			<stop  offset="0.0745" style="stop-color:#81807F"/>
			<stop  offset="0.4039" style="stop-color:#DAD4CA"/>
			<stop  offset="0.5765" style="stop-color:#EEEADB"/>
			<stop  offset="0.749" style="stop-color:#FEFBE8"/>
			<stop  offset="0.9961" style="stop-color:#E4E7E9"/>
		</linearGradient>
		<path style="fill-rule:evenodd;clip-rule:evenodd;fill:url(#SVGID_7_);" d="M29-45c0.333-1.3,0.733-2.55,1.2-3.75
			c1.1-2.267,2.7-4.283,4.8-6.05c2.033-1.833,4.267-3.067,6.7-3.7l0.05-0.2c-0.3,0-0.483,0.083-0.55,0.25l-0.15,0.05
			c-2,0.4-3.833,1.167-5.5,2.3c-0.966,0.934-2.583,2.367-4.85,4.3c-2.7,3.466-5.567,6.367-8.6,8.7l-0.2,0.2
			c-0.167,0.167-0.283,0.267-0.35,0.3C24.05-42.7,26.533-43.5,29-45z"/>
		
			<linearGradient id="SVGID_8_" gradientUnits="userSpaceOnUse" x1="2728.4009" y1="-18888.6133" x2="2741.0024" y2="-18888.6133" gradientTransform="matrix(-0.4345 -0.9007 0.9658 -0.2995 19456.9863 -3230.646)">
			<stop  offset="0" style="stop-color:#7BA0FD"/>
			<stop  offset="0.2471" style="stop-color:#6C8BD4"/>
			<stop  offset="0.7647" style="stop-color:#4D5F81"/>
			<stop  offset="1" style="stop-color:#414E61"/>
		</linearGradient>
		<path style="fill-rule:evenodd;clip-rule:evenodd;fill:url(#SVGID_8_);" d="M24.7-40.95c-0.133,0.233-0.35,0.483-0.65,0.75
			c0.233-0.2,0.5-0.433,0.8-0.7C24.817-40.933,24.767-40.95,24.7-40.95z"/>
		
			<linearGradient id="SVGID_9_" gradientUnits="userSpaceOnUse" x1="2728.4009" y1="-18888.4414" x2="2741.0024" y2="-18888.4414" gradientTransform="matrix(-0.4345 -0.9007 0.9658 -0.2995 19456.9863 -3230.646)">
			<stop  offset="0" style="stop-color:#95856A"/>
			<stop  offset="1" style="stop-color:#DFD1B1"/>
		</linearGradient>
		<path style="fill-rule:evenodd;clip-rule:evenodd;fill:url(#SVGID_9_);" d="M24-41.05L24.075-41H24.1
			c0.066,0,0.133-0.017,0.2-0.05h0.05h0.1c0.033,0,0.066,0,0.1,0c0.034,0,0.067,0,0.1,0c0.033-0.067,0.067-0.1,0.1-0.1L24.6-41.2
			C24.367-41.167,24.167-41.117,24-41.05z"/>
		
			<linearGradient id="SVGID_10_" gradientUnits="userSpaceOnUse" x1="2710.3452" y1="-18864.3789" x2="2729.3" y2="-18864.3789" gradientTransform="matrix(-0.4287 -0.9035 0.9655 -0.2978 19407.8066 -3194.4355)">
			<stop  offset="0" style="stop-color:#95856A"/>
			<stop  offset="1" style="stop-color:#DFD1B1"/>
		</linearGradient>
		<path style="fill-rule:evenodd;clip-rule:evenodd;fill:url(#SVGID_10_);" d="M24-41.05h-0.05c0.033,0.001,0.074,0.018,0.125,0.05
			L24-41.05z"/>
		
			<linearGradient id="SVGID_11_" gradientUnits="userSpaceOnUse" x1="2730.8135" y1="-18856.6719" x2="2746.9607" y2="-18856.6719" gradientTransform="matrix(-0.4304 -0.9026 0.9655 -0.2986 19421.6211 -3207.5479)">
			<stop  offset="0.0235" style="stop-color:#737373"/>
			<stop  offset="0.0745" style="stop-color:#81807F"/>
			<stop  offset="0.4039" style="stop-color:#DAD4CA"/>
			<stop  offset="0.5765" style="stop-color:#EEEADB"/>
			<stop  offset="0.749" style="stop-color:#FEFBE8"/>
			<stop  offset="0.9961" style="stop-color:#E4E7E9"/>
		</linearGradient>
		<path style="fill-rule:evenodd;clip-rule:evenodd;fill:url(#SVGID_11_);" d="M41.75-58.35c-0.3,0.167-0.583,0.367-0.85,0.6
			c-1.133,0.933-2.083,2.05-2.85,3.35c-0.667,1.367-1.283,3.183-1.85,5.45c-1.434,4.633-2.733,8.233-3.9,10.8
			c-0.3,0.1-0.45,0.217-0.45,0.35c3.867-1.567,7.15-4.9,9.85-10c1.066-1.6,1.8-3.45,2.2-5.55c0.3-2.433-0.183-4.233-1.45-5.4
			C42.317-58.417,42.083-58.283,41.75-58.35z"/>
	</g>
</symbol>
<symbol  id="Symbol_5" viewBox="0 -134 134 134">
	<g id="Layer_1_20_">
		<use xlink:href="#BG_x2F_bg_navy"  width="134" height="134" y="-134" style="overflow:visible;"/>
	</g>
</symbol>
<symbol  id="flash0.ai_x5F_0_x2F_Layer_1_x2F__x3C_Compound_Path_x3E_" viewBox="0.015 -34.555 23.55 34.607">
	<g id="Layer_1_4_">
		
			<linearGradient id="SVGID_12_" gradientUnits="userSpaceOnUse" x1="16178.9219" y1="-8.3853" x2="16184.6719" y2="-8.3853" gradientTransform="matrix(1.739131e-004 1 -1 -0.001 0.5884 -16220.1055)">
			<stop  offset="0" style="stop-color:#211F1F"/>
			<stop  offset="0.0235" style="stop-color:#3B3939"/>
			<stop  offset="0.0706" style="stop-color:#646262"/>
			<stop  offset="0.1176" style="stop-color:#898888"/>
			<stop  offset="0.1725" style="stop-color:#A9A8A8"/>
			<stop  offset="0.2314" style="stop-color:#C4C4C4"/>
			<stop  offset="0.302" style="stop-color:#DADADA"/>
			<stop  offset="0.3804" style="stop-color:#EBEAEA"/>
			<stop  offset="0.4784" style="stop-color:#F6F6F6"/>
			<stop  offset="0.6157" style="stop-color:#FDFDFD"/>
			<stop  offset="0.9961" style="stop-color:#FFFFFF"/>
		</linearGradient>
		<path style="fill-rule:evenodd;clip-rule:evenodd;fill:url(#SVGID_12_);" d="M21.05-15.55l1.35-2.7
			c0.867-2.167,1.25-4.15,1.15-5.95c-0.133-2.1-0.6-3.767-1.4-5c-0.733-1.2-2.017-2.367-3.85-3.5c-2.133-1.3-4.617-1.917-7.45-1.85
			c-3.3,0.066-5.9,1.15-7.8,3.25c-1.833,2-2.833,4.316-3,6.95c-0.133,1.8,0.117,3.567,0.75,5.3c0.333,0.966,1.083,1.6,2.25,1.9
			c0.567,0.133,1.1,0.167,1.6,0.1l0.25,2.5c-1.167-0.034-2.25,0.25-3.25,0.85c-0.633,0.4-1.033,1.417-1.2,3.05L0.35-8.3
			C0.25-7.2,1.033-5.75,2.7-3.95C4.533-2.017,6.517-0.8,8.65-0.3c2.567,0.6,5.117,0.433,7.65-0.5c2.867-1.067,4.617-2.817,5.25-5.25
			c0.534-2.2,0.617-4.434,0.25-6.7C21.6-13.917,21.35-14.85,21.05-15.55z M22.8-23.45c0.1,1.733-0.2,3.583-0.9,5.55l-1.1,2.45
			c0.267,0.7,0.467,1.6,0.6,2.7c0.3,2.2,0.184,4.35-0.35,6.45c-0.566,2.3-2.267,3.933-5.1,4.9c-2.5,0.867-4.967,1.017-7.4,0.45
			C6.617-1.417,4.833-2.6,3.2-4.5C1.767-6.2,1.083-7.6,1.15-8.7l0.2-1.85c0.233-1.3,0.633-2.133,1.2-2.5
			c0.9-0.6,1.817-0.85,2.75-0.75l-0.15-3.65c-0.533,0.034-1.1-0.017-1.7-0.15c-1.233-0.3-2-0.917-2.3-1.85
			c-1.3-3.9-0.55-7.433,2.25-10.6c1.8-2.034,4.25-3.15,7.35-3.35c2.7-0.133,5,0.4,6.9,1.6c1.733,1.066,2.983,2.2,3.75,3.4
			C22.2-27.1,22.667-25.45,22.8-23.45z"/>
	</g>
</symbol>
<symbol  id="flash0.ai_x5F_0_x2F_Layer_1_x2F__x3C_Path_x3E__x5F_1" viewBox="-0.171 -26.506 17.732 26.495">
	<g id="Layer_1_5_">
		
			<linearGradient id="SVGID_13_" gradientUnits="userSpaceOnUse" x1="16176.1484" y1="-6.4937" x2="16216.4482" y2="-6.4937" gradientTransform="matrix(2.481390e-005 1 -1 -0.001 1.7988 -16220.1055)">
			<stop  offset="0" style="stop-color:#000000"/>
			<stop  offset="0.0902" style="stop-color:#000000;stop-opacity:0.7961"/>
			<stop  offset="0.9961" style="stop-color:#000000;stop-opacity:0"/>
		</linearGradient>
		<path style="fill-rule:evenodd;clip-rule:evenodd;fill:url(#SVGID_13_);" d="M12.9-0.9c1.767-0.967,2.767-2.617,3-4.95
			c0.2-2.033-0.066-3.667-0.8-4.9c-0.367-0.633-0.767-1.05-1.2-1.25l1.9-2.25c1.267-1.833,1.85-3.533,1.75-5.1
			c-0.133-1.967-0.933-3.6-2.4-4.9c-1.533-1.367-3.566-2.117-6.1-2.25c-2.9-0.1-5.417,1.15-7.55,3.75
			c-2.067,2.533-2.217,4.117-0.45,4.75c0.967,0.333,1.983-0.233,3.05-1.7c1.167-1.6,2.433-2.4,3.8-2.4c1.067,0,2.05,0.4,2.95,1.2
			c1,0.867,1.433,1.883,1.3,3.05c-0.066,0.6-0.566,1.133-1.5,1.6c-0.8,0.4-1.717,0.667-2.75,0.8c-0.667,0.1-1.233,0.5-1.7,1.2
			c-0.367,0.567-0.583,1.2-0.65,1.9c-0.1,1.067,1.017,1.767,3.35,2.1c1.067,0.167,1.867,0.6,2.4,1.3c0.4,0.5,0.567,1.034,0.5,1.6
			c-0.1,0.967-0.683,1.633-1.75,2c-0.867,0.3-1.867,0.367-3,0.2c-0.566-0.067-1.2-0.617-1.9-1.65c-0.7-1.034-1.533-1.583-2.5-1.65
			C1.583-8.483,0.967-7.917,0.8-6.75L0.9-5c0.533,1.2,1.067,2.083,1.6,2.65c1.033,1.1,2.467,1.8,4.3,2.1
			C9.233,0.217,11.267,0,12.9-0.9z"/>
	</g>
</symbol>
<symbol  id="flash0.ai_x5F_0_x2F_Layer_1_x2F__x3C_Path_x3E__x5F_4" viewBox="0.032 -32.82 22.287 32.806">
	<g id="Layer_1_3_">
		
			<linearGradient id="SVGID_14_" gradientUnits="userSpaceOnUse" x1="16186.4961" y1="-8.9419" x2="16221.1963" y2="-8.9419" gradientTransform="matrix(2.881845e-005 1 -1 -0.001 1.7666 -16220.1055)">
			<stop  offset="0" style="stop-color:#211F1F"/>
			<stop  offset="0.1725" style="stop-color:#242222"/>
			<stop  offset="0.3098" style="stop-color:#2E2C2C"/>
			<stop  offset="0.4353" style="stop-color:#3F3D3D"/>
			<stop  offset="0.5529" style="stop-color:#565555"/>
			<stop  offset="0.6667" style="stop-color:#747373"/>
			<stop  offset="0.7725" style="stop-color:#9A9999"/>
			<stop  offset="0.8784" style="stop-color:#C6C5C5"/>
			<stop  offset="0.9804" style="stop-color:#F8F8F8"/>
			<stop  offset="0.9961" style="stop-color:#FFFFFF"/>
		</linearGradient>
		<path style="fill-rule:evenodd;clip-rule:evenodd;fill:url(#SVGID_14_);" d="M20.55-5.7c0.534-2.1,0.65-4.25,0.35-6.45
			c-0.133-1.1-0.333-2-0.6-2.7l1.1-2.45c0.7-1.967,1-3.817,0.9-5.55c-0.133-2-0.6-3.65-1.4-4.95c-0.767-1.2-2.017-2.333-3.75-3.4
			c-1.9-1.2-4.2-1.733-6.9-1.6c-3.1,0.2-5.55,1.316-7.35,3.35c-2.8,3.167-3.55,6.7-2.25,10.6c0.3,0.934,1.067,1.55,2.3,1.85
			c0.6,0.133,1.167,0.183,1.7,0.15L4.8-13.2c-0.933-0.1-1.85,0.15-2.75,0.75c-0.566,0.367-0.966,1.2-1.2,2.5L0.65-8.1
			C0.583-7,1.267-5.6,2.7-3.9C4.333-2,6.117-0.817,8.05-0.35c2.434,0.567,4.9,0.417,7.4-0.45C18.283-1.767,19.983-3.4,20.55-5.7z"/>
	</g>
</symbol>
<symbol  id="flash0.ai_x5F_1_x2F_Layer_1_x2F__x3C_Compound_Path_x3E_" viewBox="-0.008 -34.848 25.21 34.798">
	<g id="Layer_1_7_">
		
			<linearGradient id="SVGID_15_" gradientUnits="userSpaceOnUse" x1="16178.1582" y1="-9.2192" x2="16184.0332" y2="-9.2192" gradientTransform="matrix(1.702128e-004 1 -1 -0.001 0.6201 -16220.1045)">
			<stop  offset="0" style="stop-color:#211F1F"/>
			<stop  offset="0.0235" style="stop-color:#3B3939"/>
			<stop  offset="0.0706" style="stop-color:#646262"/>
			<stop  offset="0.1176" style="stop-color:#898888"/>
			<stop  offset="0.1725" style="stop-color:#A9A8A8"/>
			<stop  offset="0.2314" style="stop-color:#C4C4C4"/>
			<stop  offset="0.302" style="stop-color:#DADADA"/>
			<stop  offset="0.3804" style="stop-color:#EBEAEA"/>
			<stop  offset="0.4784" style="stop-color:#F6F6F6"/>
			<stop  offset="0.6157" style="stop-color:#FDFDFD"/>
			<stop  offset="0.9961" style="stop-color:#FFFFFF"/>
		</linearGradient>
		<path style="fill-rule:evenodd;clip-rule:evenodd;fill:url(#SVGID_15_);" d="M24-21.8c0.267,2.433-0.067,4.917-1,7.45l-1.5,3.05
			c1.1,1.4,1.817,2.816,2.15,4.25c0.333,1.4,0,3.15-1,5.25c-0.533,0.767-3.333,1.15-8.4,1.15c-4.6,0-7.55-0.184-8.85-0.55
			C4.6-1.4,4.033-1.933,3.7-2.8C3.533-3.233,3.433-3.65,3.4-4.05L2.9-18.7l-1.05-1.65c-0.7-1.566-1.017-3.55-0.95-5.95
			c0.067-2.367,1.233-4.25,3.5-5.65c2.3-1.4,5.217-1.983,8.75-1.75c3.333,0.233,5.95,1.534,7.85,3.9
			C22.667-27.733,23.667-25.067,24-21.8z M22.4-11.25l1.6-3.2c1.033-2.667,1.4-5.283,1.1-7.85c-0.367-3.434-1.45-6.217-3.25-8.35
			c-2.067-2.5-4.917-3.883-8.55-4.15c-3.833-0.233-7,0.383-9.5,1.85c-2.466,1.467-3.733,3.434-3.8,5.9
			c-0.067,2.566,0.267,4.683,1,6.35L2.15-19L2.7-3.6c0.033,0.4,0.15,0.833,0.35,1.3C3.417-1.367,4.033-0.8,4.9-0.6
			c1.4,0.367,4.6,0.55,9.6,0.55c5.467,0,8.5-0.4,9.1-1.2c1.1-2.2,1.467-4.033,1.1-5.5C24.333-8.25,23.567-9.75,22.4-11.25z"/>
	</g>
</symbol>
<symbol  id="flash0.ai_x5F_1_x2F_Layer_1_x2F__x3C_Path_x3E__x5F_1" viewBox="-0.096 -26.054 17.242 26.054">
	<g id="Layer_1_8_">
		
			<linearGradient id="SVGID_16_" gradientUnits="userSpaceOnUse" x1="16186.2998" y1="-6.2769" x2="16218.8994" y2="-6.2769" gradientTransform="matrix(3.067485e-005 1 -1 -0.001 1.7515 -16220.1055)">
			<stop  offset="0" style="stop-color:#000000"/>
			<stop  offset="0.0902" style="stop-color:#000000;stop-opacity:0.7961"/>
			<stop  offset="0.9961" style="stop-color:#000000;stop-opacity:0"/>
		</linearGradient>
		<path style="fill-rule:evenodd;clip-rule:evenodd;fill:url(#SVGID_16_);" d="M15.1,0l1-0.15c0.667-0.333,1-0.983,1-1.95
			s-0.25-1.783-0.75-2.45L15.6-5.2l-8-0.35l-0.25-3.2l2.3-0.05c1.733-0.067,3.05-0.217,3.95-0.45c1.1-0.3,1.983-1.183,2.65-2.65
			c0.733-1.533,1.017-3.283,0.85-5.25c-0.267-2.733-1-4.783-2.2-6.15c-1.4-1.5-3.583-2.4-6.55-2.7c-2.9-0.267-5.217,0.45-6.95,2.15
			c-1.6,1.633-1.917,3.1-0.95,4.4c0.667,0.867,1.783,0.883,3.35,0.05c2.034-1.067,3.3-1.583,3.8-1.55
			c3.066,0.1,4.483,1.667,4.25,4.7c-0.133,1.667-1.35,2.583-3.65,2.75c-2.434-0.133-3.85-0.2-4.25-0.2
			c-0.534,0-0.934,0.117-1.2,0.35S2.267-12.7,2.1-12.1c-0.2,0.633-0.167,2.467,0.1,5.5c0.267,3.033,0.566,4.817,0.9,5.35
			C3.5-0.483,4.2-0.067,5.2,0H15.1z"/>
	</g>
</symbol>
<symbol  id="flash0.ai_x5F_1_x2F_Layer_1_x2F__x3C_Path_x3E__x5F_4" viewBox="0.041 -33.1 23.198 33.1">
	<g id="Layer_1_6_">
		
			<linearGradient id="SVGID_17_" gradientUnits="userSpaceOnUse" x1="16186.2324" y1="-9.4092" x2="16221.2578" y2="-9.4092" gradientTransform="matrix(2.855104e-005 1 -1 -0.001 1.7686 -16220.1055)">
			<stop  offset="0" style="stop-color:#211F1F"/>
			<stop  offset="0.1725" style="stop-color:#242222"/>
			<stop  offset="0.3098" style="stop-color:#2E2C2C"/>
			<stop  offset="0.4353" style="stop-color:#3F3D3D"/>
			<stop  offset="0.5529" style="stop-color:#565555"/>
			<stop  offset="0.6667" style="stop-color:#747373"/>
			<stop  offset="0.7725" style="stop-color:#9A9999"/>
			<stop  offset="0.8784" style="stop-color:#C6C5C5"/>
			<stop  offset="0.9804" style="stop-color:#F8F8F8"/>
			<stop  offset="0.9961" style="stop-color:#FFFFFF"/>
		</linearGradient>
		<path style="fill-rule:evenodd;clip-rule:evenodd;fill:url(#SVGID_17_);" d="M22.8-6.4c-0.333-1.434-1.05-2.85-2.15-4.25l1.5-3.05
			c0.934-2.533,1.267-5.017,1-7.45c-0.333-3.267-1.333-5.934-3-8c-1.9-2.367-4.517-3.667-7.85-3.9c-3.533-0.233-6.45,0.35-8.75,1.75
			c-2.267,1.4-3.433,3.283-3.5,5.65C-0.017-23.25,0.3-21.267,1-19.7l1.05,1.65L2.55-3.4C2.583-3,2.683-2.583,2.85-2.15
			c0.333,0.867,0.9,1.4,1.7,1.6C5.85-0.183,8.8,0,13.4,0c5.067,0,7.867-0.383,8.4-1.15C22.8-3.25,23.133-5,22.8-6.4z"/>
	</g>
</symbol>
<symbol  id="flash0.ai_x5F_2_x2F_Layer_1_x2F__x3C_Compound_Path_x3E_" viewBox="-0.019 -32.725 23.293 32.712">
	<g id="Layer_1_10_">
		
			<linearGradient id="SVGID_18_" gradientUnits="userSpaceOnUse" x1="16150.8457" y1="-9.4258" x2="16191.0459" y2="-9.4258" gradientTransform="matrix(2.487562e-005 1 -1 -0.001 1.7983 -16220.1055)">
			<stop  offset="0" style="stop-color:#211F1F"/>
			<stop  offset="0.0235" style="stop-color:#3B3939"/>
			<stop  offset="0.0706" style="stop-color:#646262"/>
			<stop  offset="0.1176" style="stop-color:#898888"/>
			<stop  offset="0.1725" style="stop-color:#A9A8A8"/>
			<stop  offset="0.2314" style="stop-color:#C4C4C4"/>
			<stop  offset="0.302" style="stop-color:#DADADA"/>
			<stop  offset="0.3804" style="stop-color:#EBEAEA"/>
			<stop  offset="0.4784" style="stop-color:#F6F6F6"/>
			<stop  offset="0.6157" style="stop-color:#FDFDFD"/>
			<stop  offset="0.9961" style="stop-color:#FFFFFF"/>
		</linearGradient>
		<path style="fill-rule:evenodd;clip-rule:evenodd;fill:url(#SVGID_18_);" d="M20.7-21.55c1.333-0.1,2.066-0.3,2.2-0.6
			c0.2-0.467,0.3-2.25,0.3-5.35c0-3.133-0.1-4.767-0.3-4.9c-0.3-0.167-3.683-0.267-10.15-0.3c-6.567-0.066-10.35,0-11.35,0.2
			c-0.566,0.1-0.967,1.383-1.2,3.85c-0.167,2-0.184,3.5-0.05,4.5c0.033,0.5,0.85,1.667,2.45,3.5L5-18
			c-1.3,0.333-2.417,0.85-3.35,1.55c-1.467,1.1-1.967,3.417-1.5,6.95c0.233,1.933,1.2,3.85,2.9,5.75C3.883-2.817,4.7-2.067,5.5-1.5
			c1.533,0.833,3.333,1.317,5.4,1.45c2.434,0.167,4.633-0.233,6.6-1.2s3.4-2.4,4.3-4.3c0.7-1.534,1.184-3.65,1.45-6.35
			c0.167-1.967-0.533-4.167-2.1-6.6c-0.767-1.2-1.566-2.2-2.4-3L20.7-21.55z M22-11.65c-0.2,2.566-0.583,4.533-1.15,5.9
			c-0.733,1.733-1.967,3.067-3.7,4s-3.8,1.283-6.2,1.05c-2.067-0.167-3.8-0.65-5.2-1.45C5.083-2.65,4.4-3.333,3.7-4.2
			C2.267-5.933,1.45-7.7,1.25-9.5c-0.233-1.933-0.133-3.583,0.3-4.95c0.3-0.966,0.7-1.65,1.2-2.05c0.833-0.667,2.05-1,3.65-1l-2.7-3
			c-1.833-2.133-2.767-3.433-2.8-3.9c-0.133-0.967-0.15-2.3-0.05-4c0.1-2.133,0.4-3.25,0.9-3.35c0.9-0.2,4.5-0.25,10.8-0.15
			c6.233,0.1,9.467,0.233,9.7,0.4c0.2,0.133,0.3,1.55,0.3,4.25c-0.033,2.7-0.133,4.283-0.3,4.75c-0.1,0.233-0.933,0.367-2.5,0.4
			l-2.35-0.05c0.833,1,1.65,2.183,2.45,3.55C21.45-15.833,22.167-13.517,22-11.65z"/>
	</g>
</symbol>
<symbol  id="flash0.ai_x5F_2_x2F_Layer_1_x2F__x3C_Path_x3E__x5F_1" viewBox="0.05 -25.9 17.55 25.889">
	<g id="Layer_1_11_">
		
			<linearGradient id="SVGID_19_" gradientUnits="userSpaceOnUse" x1="16185.8486" y1="-6.5884" x2="16220.0488" y2="-6.5884" gradientTransform="matrix(2.923977e-005 1 -1 -0.001 1.7632 -16220.1055)">
			<stop  offset="0" style="stop-color:#000000"/>
			<stop  offset="0.0902" style="stop-color:#000000;stop-opacity:0.7961"/>
			<stop  offset="0.9961" style="stop-color:#000000;stop-opacity:0"/>
		</linearGradient>
		<path style="fill-rule:evenodd;clip-rule:evenodd;fill:url(#SVGID_19_);" d="M10.65-0.2c1.6-0.333,3.083-1.066,4.45-2.2
			c1.033-0.867,1.566-2.117,1.6-3.75c0.033-0.967-0.167-2.417-0.6-4.35c-0.267-1.133-1.833-3.317-4.7-6.55
			c-1.433-1.6-2.833-3.083-4.2-4.45h9.65l0.4-0.3c0.233-0.333,0.35-0.867,0.35-1.6s-0.267-1.35-0.8-1.85
			c-0.3-0.233-0.583-0.4-0.85-0.5L2.1-25.9c-1.167,0.1-1.833,0.6-2,1.5c-0.1,0.566-0.05,1.2,0.15,1.9l0.35,0.85
			c6.566,6.933,10.1,10.933,10.6,12c0.466,1,0.533,2.033,0.2,3.1c-0.367,1.267-1.183,1.9-2.45,1.9c-1.233,0-2.133-0.333-2.7-1
			c-0.367-0.434-0.633-1.1-0.8-2C5.25-8.683,5.1-9.3,5-9.5c-0.367-0.567-1.133-0.9-2.3-1c-1.067-0.1-1.784,0.367-2.15,1.4l-0.2,1.6
			c0.133,0.833,0.433,1.733,0.9,2.7c0.867,1.966,2.067,3.267,3.6,3.9C6.817-0.033,8.75,0.2,10.65-0.2z"/>
	</g>
</symbol>
<symbol  id="flash0.ai_x5F_2_x2F_Layer_1_x2F__x3C_Path_x3E__x5F_4" viewBox="-0.014 -31.35 21.764 31.32">
	<g id="Layer_1_9_">
		
			<linearGradient id="SVGID_20_" gradientUnits="userSpaceOnUse" x1="16183.6221" y1="-8.6577" x2="16222.0723" y2="-8.6577" gradientTransform="matrix(2.600780e-005 1 -1 -0.001 1.7891 -16220.1055)">
			<stop  offset="0" style="stop-color:#211F1F"/>
			<stop  offset="0.1725" style="stop-color:#242222"/>
			<stop  offset="0.3098" style="stop-color:#2E2C2C"/>
			<stop  offset="0.4353" style="stop-color:#3F3D3D"/>
			<stop  offset="0.5529" style="stop-color:#565555"/>
			<stop  offset="0.6667" style="stop-color:#747373"/>
			<stop  offset="0.7725" style="stop-color:#9A9999"/>
			<stop  offset="0.8784" style="stop-color:#C6C5C5"/>
			<stop  offset="0.9804" style="stop-color:#F8F8F8"/>
			<stop  offset="0.9961" style="stop-color:#FFFFFF"/>
		</linearGradient>
		<path style="fill-rule:evenodd;clip-rule:evenodd;fill:url(#SVGID_20_);" d="M10.15-0.1c2.4,0.233,4.467-0.117,6.2-1.05
			c1.733-0.934,2.967-2.267,3.7-4c0.567-1.367,0.95-3.333,1.15-5.9c0.167-1.867-0.55-4.184-2.15-6.95
			c-0.8-1.367-1.617-2.55-2.45-3.55l2.35,0.05c1.566-0.033,2.4-0.167,2.5-0.4c0.167-0.467,0.267-2.05,0.3-4.75
			c0-2.7-0.1-4.117-0.3-4.25c-0.233-0.167-3.467-0.3-9.7-0.4c-6.3-0.1-9.9-0.05-10.8,0.15c-0.5,0.1-0.8,1.217-0.9,3.35
			c-0.1,1.7-0.083,3.033,0.05,4c0.033,0.466,0.967,1.767,2.8,3.9l2.7,3c-1.6,0-2.817,0.333-3.65,1c-0.5,0.4-0.9,1.083-1.2,2.05
			c-0.433,1.367-0.533,3.017-0.3,4.95c0.2,1.8,1.017,3.566,2.45,5.3c0.7,0.867,1.383,1.55,2.05,2.05
			C6.35-0.75,8.083-0.267,10.15-0.1z"/>
	</g>
</symbol>
<symbol  id="zz_x5F_Highlight_x2F_Highlight_Piece" viewBox="0 -115.9 118.7 115.9">
	<g id="Layer_1_18_">
		<g>
			
				<use xlink:href="#zzz_x5F_miscellaneous_x2F_FlashAICB_copy_x2F_Layer_1_x2F__x3C_Path_x3E__x5F_2"  width="118.7" height="57.1" y="-57.1" transform="matrix(1 0 0 1 0 -58.7998)" style="overflow:visible;opacity:0.2813;enable-background:new    ;"/>
			
				<use xlink:href="#zzz_x5F_miscellaneous_x2F_FlashAICB_copy_x2F_Layer_1_x2F__x3C_Path_x3E__x5F_1"  width="110.05" height="55.75" y="-55.75" transform="matrix(1 0 0 1 4.1499 0)" style="overflow:visible;opacity:0.1094;enable-background:new    ;"/>
			
				<use xlink:href="#zzz_x5F_miscellaneous_x2F_FlashAICB_copy_x2F_Layer_1_x2F__x3C_Path_x3E_"  width="110.05" height="61.294" y="-61.294" transform="matrix(1 0 0 1 4.1499 0)" style="overflow:visible;opacity:0.0898;enable-background:new    ;"/>
		</g>
	</g>
</symbol>
<symbol  id="zzz_x5F_miscellaneous_x2F_FlashAICB_copy_2_x2F_Layer_1_x2F__x3C_Path_x3E__x5F_2" viewBox="0 -118.7 118.85 118.7">
	<g id="Layer_1_2_">
		
			<radialGradient id="SVGID_21_" cx="59.4248" cy="-59.3501" r="59.3876" gradientTransform="matrix(1 0 0 -1 0 -118.7002)" gradientUnits="userSpaceOnUse">
			<stop  offset="0.1412" style="stop-color:#92A4BA"/>
			<stop  offset="0.5569" style="stop-color:#7483AD;stop-opacity:0.9725"/>
			<stop  offset="1" style="stop-color:#5763A0;stop-opacity:0.949"/>
		</radialGradient>
		<path style="fill-rule:evenodd;clip-rule:evenodd;fill:url(#SVGID_21_);" d="M118.85-59.35c0-16.367-5.8-30.35-17.4-41.95
			c-11.6-11.6-25.617-17.4-42.05-17.4c-16.4,0-30.4,5.8-42,17.4C5.8-89.7,0-75.717,0-59.35S5.8-29,17.4-17.4S43,0,59.4,0
			c16.434,0,30.45-5.8,42.05-17.4C113.05-29,118.85-42.983,118.85-59.35z"/>
	</g>
</symbol>
<symbol  id="zzz_x5F_miscellaneous_x2F_FlashAICB_copy_x2F_Layer_1_x2F__x3C_Path_x3E_" viewBox="0 -61.294 110.05 61.294">
	<g id="Layer_1_14_">
		<path style="fill-rule:evenodd;clip-rule:evenodd;fill:#FFFFFF;" d="M106.5-34.35c2.367-5.633,3.55-10.95,3.55-15.95
			c0-4.934-1.45-8.05-4.35-9.35c-2.333-1.033-6.25-1.017-11.75,0.05c-7.3,1.767-13.133,3.117-17.5,4.05
			C68.417-53.85,61.267-53,55-53c-6.3,0-13.433-0.917-21.4-2.75c-8.333-2.2-14.167-3.683-17.5-4.45
			c-5.533-1.267-9.45-1.433-11.75-0.5C1.45-59.5,0-56.433,0-51.5c0,5.5,1.167,11.167,3.5,17c2.467,6.167,5.95,11.733,10.45,16.7
			C24.65-5.933,38.333,0,55,0c16.467,0,30.15-5.983,41.05-17.95C100.517-22.883,104-28.35,106.5-34.35z"/>
	</g>
</symbol>
<symbol  id="zzz_x5F_miscellaneous_x2F_FlashAICB_copy_x2F_Layer_1_x2F__x3C_Path_x3E__x5F_1" viewBox="0 -55.75 110.05 55.75">
	<g id="Layer_1_13_">
		
			<linearGradient id="SVGID_22_" gradientUnits="userSpaceOnUse" x1="16164.2637" y1="-52.8804" x2="16220.0391" y2="-52.8804" gradientTransform="matrix(1.792918e-005 1 -1 -0.001 1.8545 -16220.1055)">
			<stop  offset="0.1294" style="stop-color:#D9BBB3"/>
			<stop  offset="0.9255" style="stop-color:#FFFFFF"/>
		</linearGradient>
		<path style="fill-rule:evenodd;clip-rule:evenodd;fill:url(#SVGID_22_);" d="M96.05-17.95c4.467-4.933,7.95-10.4,10.45-16.4
			c2.367-5.633,3.55-10.95,3.55-15.95c0-1.567-0.167-3.05-0.5-4.45c-1.867,11.067-7.267,20.9-16.2,29.5
			C82.783-15.117,70-10.05,55-10.05c-15.233,0-28.067-5.05-38.5-15.15C7.533-33.9,2.183-44.083,0.45-55.75
			C0.15-54.617,0-53.2,0-51.5c0,5.5,1.167,11.167,3.5,17c2.467,6.167,5.95,11.733,10.45,16.7C24.65-5.933,38.333,0,55,0
			C71.467,0,85.15-5.983,96.05-17.95z"/>
	</g>
</symbol>
<symbol  id="zzz_x5F_miscellaneous_x2F_FlashAICB_copy_x2F_Layer_1_x2F__x3C_Path_x3E__x5F_2" viewBox="0 -57.1 118.7 57.1">
	<g id="Layer_1_12_">
		
			<radialGradient id="SVGID_23_" cx="59.3501" cy="-28.5498" r="46.5701" gradientTransform="matrix(1 0 0 -1 0 -57.0996)" gradientUnits="userSpaceOnUse">
			<stop  offset="0" style="stop-color:#000000;stop-opacity:0"/>
			<stop  offset="0.651" style="stop-color:#000000;stop-opacity:0.4"/>
		</radialGradient>
		<path style="fill-rule:evenodd;clip-rule:evenodd;fill:url(#SVGID_23_);" d="M95.5-30.35c10.733,7.7,18.3,17.733,22.7,30.1
			L118.7,0c-0.567-15.9-6.6-29.383-18.1-40.45C89.1-51.55,75.333-57.1,59.3-57.1c-15.7,0-29.267,5.367-40.7,16.1
			C7.2-30.333,1-17.233,0-1.7c4.6-12,12.183-21.683,22.75-29.05c10.833-7.567,22.867-11.35,36.1-11.35
			C72.35-42.1,84.567-38.183,95.5-30.35z"/>
	</g>
</symbol>
<g id="flash0.ai">
	<g>
		<g>
			
				<linearGradient id="SVGID_24_" gradientUnits="userSpaceOnUse" x1="-159.373" y1="85.751" x2="-3.448" y2="85.751" gradientTransform="matrix(6.413340e-006 -1 1 -0.001 2.351356e-004 4.683650e-004)">
				<stop  offset="0.0235" style="stop-color:#737373"/>
				<stop  offset="0.0745" style="stop-color:#81807F"/>
				<stop  offset="0.4039" style="stop-color:#DAD4CA"/>
				<stop  offset="0.5765" style="stop-color:#EEEADB"/>
				<stop  offset="0.749" style="stop-color:#FEFBE8"/>
				<stop  offset="0.9961" style="stop-color:#E4E7E9"/>
			</linearGradient>
			<path style="fill-rule:evenodd;clip-rule:evenodd;fill:url(#SVGID_24_);" d="M137.45,33.75c4.434,4.4,8.184,9.083,11.25,14.05
				l5.899,1.65l4.75,1.85l-3.6,11.75c2.2,6.967,3.3,14.417,3.3,22.35c0,0.733,0,1.483,0,2.25l6.851,9.25l-9.25,7.55
				c-2.134,8.1-5.601,15.533-10.4,22.3l0.8,11.75l-11.649,0.6c-6.267,5.801-13.067,10.284-20.4,13.45l-5.7,10.5l-10.75-5.7
				c-4.2,0.733-8.566,1.101-13.1,1.101c-4.133,0-8.15-0.3-12.05-0.9l-5.6,3.3l-4.85,2.25l-5.4-9.85
				c-8-3.267-15.35-8.017-22.05-14.25l-10.9-0.25l0.1-12.05c-0.2-0.2-0.367-0.417-0.5-0.65c-4.9-7.1-8.317-14.767-10.25-23L5.6,96.9
				l6.4-8.25c-0.067-1.101-0.1-2.184-0.1-3.25c0-8.133,1.184-15.8,3.55-23l-4.3-10.8l11.25-4.15c3.033-4.833,6.7-9.4,11-13.7
				c2.267-2.233,4.617-4.3,7.05-6.2l1.4-10.2L53.2,19.5c7.966-3.867,16.6-6.167,25.9-6.9l6.3-7.3l7.399,7.4
				c9.634,0.833,18.55,3.417,26.75,7.75l10.5-2.7l1.601,10.55C133.583,29.967,135.517,31.783,137.45,33.75z"/>
			<g>
				<linearGradient id="SVGID_25_" gradientUnits="userSpaceOnUse" x1="85.6865" y1="164.6514" x2="85.8383" y2="3.7514">
					<stop  offset="0.0235" style="stop-color:#635F51;stop-opacity:0.6196"/>
					<stop  offset="1" style="stop-color:#E4E7E9;stop-opacity:0"/>
				</linearGradient>
				<path style="fill-rule:evenodd;clip-rule:evenodd;fill:url(#SVGID_25_);" d="M137.45,33.75c4.434,4.4,8.184,9.083,11.25,14.05
					l5.899,1.65l4.75,1.85l-3.6,11.75c2.2,6.967,3.3,14.417,3.3,22.35c0,0.733,0,1.483,0,2.25l6.851,9.25l-9.25,7.55
					c-2.134,8.1-5.601,15.533-10.4,22.3l0.8,11.75l-11.649,0.6c-6.267,5.801-13.067,10.284-20.4,13.45l-5.7,10.5l-10.75-5.7
					c-4.2,0.733-8.566,1.101-13.1,1.101c-4.133,0-8.15-0.3-12.05-0.9l-5.6,3.3l-4.85,2.25l-5.4-9.85
					c-8-3.267-15.35-8.017-22.05-14.25l-10.9-0.25l0.1-12.05c-0.2-0.2-0.367-0.417-0.5-0.65c-4.9-7.1-8.317-14.767-10.25-23
					L5.6,96.9l6.4-8.25c-0.067-1.101-0.1-2.184-0.1-3.25c0-8.133,1.184-15.8,3.55-23l-4.3-10.8l11.25-4.15
					c3.033-4.833,6.7-9.4,11-13.7c2.267-2.233,4.617-4.3,7.05-6.2l1.4-10.2L53.2,19.5c7.966-3.867,16.6-6.167,25.9-6.9l6.3-7.3
					l7.399,7.4c9.634,0.833,18.55,3.417,26.75,7.75l10.5-2.7l1.601,10.55C133.583,29.967,135.517,31.783,137.45,33.75z"/>
			</g>
		</g>
		<g>
			<linearGradient id="SVGID_26_" gradientUnits="userSpaceOnUse" x1="85.5137" y1="178.375" x2="86.128" y2="41.7501">
				<stop  offset="0.0039" style="stop-color:#403C27"/>
				<stop  offset="1" style="stop-color:#FDFDFD"/>
			</linearGradient>
			<path style="fill-rule:evenodd;clip-rule:evenodd;fill:url(#SVGID_26_);" d="M171.65,98l-11.101,8.55
				c-2.1,7.533-5.366,14.601-9.8,21.2l0.45,14.55l-13.25,0.3c-6.101,5.534-12.684,9.95-19.75,13.25c-0.101,0-0.184,0.017-0.25,0.051
				l-7.101,12.8l-12.8-6.9c-4.066,0.601-8.267,0.9-12.6,0.9c-3.833,0-7.55-0.233-11.15-0.7l-12.7,6.65L55.1,156.8
				c-0.1,0-0.2-0.033-0.3-0.1c-7.6-3.233-14.633-7.767-21.1-13.601l-13.55-0.5l0.65-13.949c-4.9-7-8.417-14.767-10.55-23.301
				L0.1,98.15L7.65,87.35c0-0.667,0-1.316,0-1.95c0-8,1.083-15.583,3.25-22.75L6.25,49.6l13.1-5.15
				c3.066-4.833,6.767-9.383,11.1-13.65c1.767-1.8,3.716-3.517,5.85-5.15l2.6-13.25l14,2.55c7.4-3.4,15.333-5.517,23.8-6.35
				l8.95-9.05l9.8,9.15c8.7,1,16.833,3.383,24.399,7.15l13.051-2.9L136,26.6c0.066,0,0.134,0.05,0.2,0.15
				c1.467,1.267,2.916,2.617,4.35,4.05c4.233,4.233,7.9,8.717,11,13.45l13.05,4.95l-4.55,13.3c0,0.067,0.017,0.117,0.05,0.15
				c2.134,7.167,3.2,14.75,3.2,22.75c0,0.4,0,0.783,0,1.15L171.65,98z M137.45,33.75c-1.934-1.967-3.867-3.783-5.8-5.45
				l-1.601-10.55l-10.5,2.7c-8.2-4.333-17.116-6.917-26.75-7.75L85.4,5.3l-6.3,7.3c-9.3,0.733-17.934,3.033-25.9,6.9l-11.35-2.15
				l-1.4,10.2c-2.434,1.9-4.784,3.967-7.05,6.2c-4.3,4.3-7.967,8.867-11,13.7L11.15,51.6l4.3,10.8c-2.367,7.2-3.55,14.867-3.55,23
				c0,1.067,0.033,2.15,0.1,3.25L5.6,96.9l8.35,6.149c1.933,8.233,5.35,15.9,10.25,23c0.133,0.233,0.3,0.45,0.5,0.65l-0.1,12.05
				L35.5,139c6.7,6.233,14.05,10.983,22.05,14.25l5.4,9.85l4.85-2.25l5.6-3.3c3.9,0.601,7.917,0.9,12.05,0.9
				c4.533,0,8.899-0.367,13.1-1.101l10.75,5.7l5.7-10.5c7.333-3.166,14.134-7.649,20.4-13.45l11.649-0.6l-0.8-11.75
				c4.8-6.767,8.267-14.2,10.4-22.3l9.25-7.55l-6.851-9.25c0-0.767,0-1.517,0-2.25c0-7.933-1.1-15.383-3.3-22.35l3.6-11.75
				l-4.75-1.85L148.7,47.8C145.634,42.833,141.884,38.15,137.45,33.75z"/>
		</g>
	</g>
	<g>
		
			<linearGradient id="SVGID_27_" gradientUnits="userSpaceOnUse" x1="-151.2847" y1="85.001" x2="-13.2847" y2="85.001" gradientTransform="matrix(7.243752e-006 -1 1 -0.001 1.313508e-004 4.683650e-004)">
			<stop  offset="0" style="stop-color:#EBE7E0"/>
			<stop  offset="0.1216" style="stop-color:#E1DED8"/>
			<stop  offset="0.7059" style="stop-color:#B5B6B5"/>
			<stop  offset="1" style="stop-color:#A5A7A8"/>
		</linearGradient>
		<path style="fill-rule:evenodd;clip-rule:evenodd;fill:url(#SVGID_27_);" d="M111.7,18.55c8.166,3.534,15.399,8.483,21.7,14.85
			c6.333,6.4,11.216,13.717,14.649,21.95c3.601,8.533,5.4,17.483,5.4,26.85c0,9.399-1.8,18.366-5.4,26.899
			c-3.434,8.233-8.316,15.534-14.649,21.9c-6.301,6.366-13.534,11.316-21.7,14.85c-8.5,3.567-17.384,5.351-26.65,5.351
			c-9.333,0-18.216-1.783-26.65-5.351c-8.2-3.533-15.45-8.483-21.75-14.85c-6.333-6.366-11.25-13.667-14.75-21.9
			c-3.566-8.533-5.35-17.5-5.35-26.899c0-9.367,1.784-18.317,5.35-26.85c3.5-8.233,8.417-15.55,14.75-21.95
			c6.3-6.367,13.55-11.316,21.75-14.85c8.434-3.566,17.317-5.35,26.65-5.35C94.316,13.2,103.2,14.983,111.7,18.55z"/>
	</g>
	
		<use xlink:href="#Symbol_5"  width="134" height="134" y="-134" transform="matrix(1 0 0 -1 18.4502 18.1001)" style="overflow:visible;"/>
</g>
<g id="flash0.ai_1_">
	<g>
		
			<use xlink:href="#flash0.ai_x5F_0_x2F_Layer_1_x2F__x3C_Path_x3E__x5F_4"  width="22.287" height="32.806" x="0.032" y="-32.82" transform="matrix(1.3083 0 0 -1.339 107.0996 56.7998)" style="overflow:visible;opacity:0.5781;enable-background:new    ;"/>
		
			<use xlink:href="#flash0.ai_x5F_0_x2F_Layer_1_x2F__x3C_Compound_Path_x3E_"  width="23.55" height="34.607" x="0.015" y="-34.555" transform="matrix(1.3083 0 0 -1.339 106.4004 56)" style="overflow:visible;opacity:0.5391;enable-background:new    ;"/>
		
			<use xlink:href="#_x33_"  width="27.277" height="42.982" x="-0.183" y="-42.483" transform="matrix(0.9101 0 0 -0.9101 109.25 59.3501)" style="overflow:visible;"/>
	</g>
	<g>
		
			<use xlink:href="#flash0.ai_x5F_1_x2F_Layer_1_x2F__x3C_Path_x3E__x5F_4"  width="23.198" height="33.1" x="0.041" y="-33.1" transform="matrix(1.3569 0 0 -1.3569 70.5 56.3999)" style="overflow:visible;opacity:0.5781;enable-background:new    ;"/>
		
			<use xlink:href="#flash0.ai_x5F_1_x2F_Layer_1_x2F__x3C_Compound_Path_x3E_"  width="25.21" height="34.798" x="-0.008" y="-34.848" transform="matrix(1.3569 0 0 -1.3569 69.2002 55.8999)" style="overflow:visible;opacity:0.5391;enable-background:new    ;"/>
		<path style="fill-rule:evenodd;clip-rule:evenodd;fill:#FFFFFF;" d="M96.339,59.899c0.905,0.407,1.357,1.289,1.357,2.646
			c0,1.312-0.34,2.42-1.018,3.325l-1.019,0.881l-10.855,0.543l-0.339,4.41h3.189c2.353,0.09,4.116,0.317,5.291,0.678
			c1.539,0.407,2.761,1.606,3.664,3.597c0.995,2.125,1.357,4.545,1.086,7.259c-0.362,3.754-1.357,6.558-2.984,8.413
			c-1.9,2.126-4.863,3.393-8.889,3.8c-3.935,0.361-7.055-0.634-9.362-2.985c-2.171-2.216-2.601-4.229-1.289-6.039
			c0.905-1.22,2.419-1.265,4.545-0.135c2.714,1.492,4.41,2.217,5.088,2.17c4.163-0.135,6.083-2.283,5.767-6.445
			c-0.181-2.261-1.809-3.527-4.885-3.799c-3.347,0.182-5.27,0.272-5.767,0.272c-0.769,0-1.334-0.158-1.696-0.475
			c-0.317-0.316-0.611-0.905-0.883-1.765c-0.225-0.858-0.158-3.37,0.204-7.53c0.362-4.161,0.746-6.625,1.153-7.396
			c0.362-0.632,0.95-1.108,1.765-1.424c0.452-0.135,0.836-0.226,1.153-0.272h13.365L96.339,59.899z"/>
		<path style="fill-rule:evenodd;clip-rule:evenodd;fill:#E4E2D6;" d="M96.204,61.867c0.905,0.452,1.356,1.334,1.356,2.646
			c0,1.312-0.339,2.42-1.018,3.325l-1.018,0.881L84.67,69.194l-0.339,4.341l3.12,0.069c2.353,0.09,4.139,0.292,5.36,0.609
			c1.492,0.408,2.691,1.606,3.597,3.596c0.995,2.081,1.379,4.455,1.152,7.124c-0.361,3.708-1.356,6.49-2.985,8.345
			c-1.898,2.035-4.861,3.256-8.888,3.663c-3.935,0.361-7.078-0.61-9.43-2.917c-2.171-2.217-2.6-4.207-1.29-5.971
			c0.905-1.175,2.421-1.198,4.546-0.067c2.759,1.446,4.478,2.147,5.156,2.103c4.161-0.135,6.084-2.261,5.767-6.377
			c-0.181-2.261-1.831-3.505-4.953-3.732c-3.3,0.182-5.223,0.272-5.767,0.272c-0.723,0-1.265-0.158-1.627-0.475
			c-0.362-0.316-0.656-0.882-0.883-1.696c-0.271-0.86-0.227-3.348,0.135-7.463s0.77-6.535,1.222-7.26
			c0.362-0.632,0.95-1.107,1.764-1.424c0.407-0.135,0.769-0.225,1.085-0.271h13.434L96.204,61.867z"/>
		
			<use xlink:href="#flash0.ai_x5F_1_x2F_Layer_1_x2F__x3C_Path_x3E__x5F_1"  width="17.242" height="26.054" x="-0.096" y="-26.054" transform="matrix(1.3569 0 0 -1.3569 74.3999 61.7002)" style="overflow:visible;opacity:0.5781;enable-background:new    ;"/>
		<path style="fill-rule:evenodd;clip-rule:evenodd;fill:none;stroke:#000000;stroke-miterlimit:10;" d="M96.339,59.899
			l-1.356-0.272H81.617c-0.317,0.046-0.701,0.137-1.153,0.272c-0.815,0.316-1.403,0.792-1.765,1.424
			c-0.407,0.679-0.769,2.76-1.085,6.243c-0.678,5.563-0.813,8.978-0.407,10.244c0.227,0.86,0.521,1.425,0.883,1.696
			c0.362,0.316,0.904,0.474,1.627,0.474c0.543,0,2.466-0.09,5.767-0.27c3.122,0.27,4.772,1.56,4.953,3.867v1.085
			c-0.588,2.397-2.464,3.664-5.631,3.799c-0.678,0.047-2.375-0.678-5.088-2.17c-2.125-1.13-3.64-1.085-4.545,0.135
			c-0.497,0.589-0.701,1.38-0.611,2.375c-0.679,1.9,0.045,3.777,2.172,5.632c2.306,2.035,5.291,2.871,8.955,2.51
			c4.026-0.407,6.989-1.65,8.888-3.731c1.629-1.854,2.624-4.681,2.985-8.481v-0.135l0.136-1.357
			c0.271-2.714-0.091-5.133-1.086-7.259c-0.903-1.99-2.125-3.189-3.664-3.597c-1.175-0.361-2.938-0.588-5.291-0.678h-3.189
			l0.204-2.918l10.855-0.474l1.018-0.883c0.679-0.904,1.018-2.035,1.018-3.392l-0.067-0.067c0.135-0.407,0.203-0.881,0.203-1.425
			C97.696,61.188,97.244,60.306,96.339,59.899z"/>
	</g>
	<g>
		
			<use xlink:href="#flash0.ai_x5F_2_x2F_Layer_1_x2F__x3C_Path_x3E__x5F_4"  width="21.764" height="31.32" x="-0.014" y="-31.35" transform="matrix(1.4057 0 0 -1.4057 35.6499 57.25)" style="overflow:visible;opacity:0.5781;enable-background:new    ;"/>
		
			<use xlink:href="#flash0.ai_x5F_2_x2F_Layer_1_x2F__x3C_Compound_Path_x3E_"  width="23.293" height="32.712" x="-0.019" y="-32.725" transform="matrix(1.4057 0 0 -1.4057 34.2998 56.2002)" style="overflow:visible;opacity:0.5391;enable-background:new    ;"/>
		<path style="fill-rule:evenodd;clip-rule:evenodd;fill:#FFFFFF;" d="M44.98,60.173c5.108-2.297,9.863-1.594,14.269,2.108
			c2.483,2.108,3.069,6.138,1.757,12.088c-0.61,2.578-4.311,7.568-11.105,14.972l12.16,0.351l0.563,0.492
			c0.328,0.516,0.491,1.289,0.491,2.319c0,1.031-0.375,1.897-1.124,2.601c-0.422,0.328-0.821,0.563-1.196,0.702l-19.468,0.212
			c-1.641-0.14-2.577-0.843-2.812-2.108c-0.14-0.797-0.07-1.688,0.211-2.672l0.491-1.194c9.23-9.746,14.197-15.369,14.9-16.868
			c0.656-1.406,0.751-2.858,0.281-4.357c-0.515-1.781-1.664-2.671-3.444-2.671c-1.734,0-2.998,0.468-3.794,1.406
			c-0.516,0.609-0.891,1.545-1.125,2.811c-0.28,1.453-0.492,2.32-0.632,2.6c-0.516,0.798-1.594,1.266-3.234,1.406
			c-1.499,0.142-2.507-0.515-3.021-1.967l-0.282-2.25c0.188-1.311,0.586-2.693,1.194-4.146
			C41.232,63.008,42.872,61.064,44.98,60.173z"/>
		<path style="fill-rule:evenodd;clip-rule:evenodd;fill:#E4E2D6;" d="M45.191,62.282c2.765-1.218,5.483-1.546,8.153-0.984
			c2.25,0.47,4.335,1.499,6.256,3.093c1.452,1.218,2.202,2.975,2.249,5.271c0.048,1.359-0.233,3.397-0.843,6.114
			c-0.375,1.594-2.577,4.663-6.607,9.208c-2.015,2.248-3.982,4.334-5.904,6.254H62.06l0.563,0.423
			c0.328,0.469,0.491,1.218,0.491,2.249c0,1.03-0.375,1.896-1.124,2.6c-0.422,0.328-0.821,0.563-1.196,0.703l-19.468,0.211
			c-1.641-0.14-2.577-0.843-2.812-2.108c-0.14-0.796-0.07-1.687,0.211-2.671l0.491-1.194c9.23-9.747,14.197-15.37,14.9-16.869
			c0.656-1.406,0.751-2.858,0.281-4.357c-0.515-1.781-1.664-2.671-3.444-2.671c-1.734,0-2.998,0.468-3.794,1.406
			c-0.516,0.609-0.891,1.545-1.125,2.811c-0.28,1.453-0.492,2.32-0.632,2.6c-0.516,0.797-1.594,1.266-3.234,1.406
			c-1.499,0.141-2.507-0.515-3.021-1.967l-0.282-2.25c0.188-1.171,0.61-2.437,1.266-3.794C41.349,65,43.037,63.172,45.191,62.282z"
			/>
		
			<use xlink:href="#flash0.ai_x5F_2_x2F_Layer_1_x2F__x3C_Path_x3E__x5F_1"  width="17.55" height="25.889" x="0.05" y="-25.9" transform="matrix(1.4057 0 0 -1.4057 38.6001 61.5)" style="overflow:visible;opacity:0.5781;enable-background:new    ;"/>
		<path style="fill-rule:evenodd;clip-rule:evenodd;fill:none;stroke:#000000;stroke-miterlimit:10;" d="M54.117,73.176
			c-0.703,1.499-5.669,7.122-14.9,16.868l-0.491,1.125c-0.282,0.938-0.375,1.78-0.282,2.529c-0.093,0.563-0.07,1.103,0.07,1.617
			c0.234,1.266,1.171,1.969,2.812,2.108l19.468-0.211c0.375-0.141,0.774-0.375,1.196-0.703c0.75-0.703,1.124-1.569,1.124-2.6
			l-0.07-0.914l0.07-0.492c0-1.03-0.163-1.896-0.491-2.6L62.06,89.13l-10.964,0.212c6.044-6.654,9.347-11.176,9.91-13.566
			c0.515-2.295,0.75-4.357,0.703-6.184c0.093-3.421-0.726-5.858-2.46-7.31c-4.405-3.703-9.16-4.405-14.269-2.108
			c-2.108,0.891-3.748,2.834-4.92,5.834c-0.608,1.452-1.006,2.835-1.194,4.146v1.406l0.282,2.25
			c0.515,1.453,1.522,2.108,3.021,1.967c1.64-0.14,2.718-0.608,3.234-1.406c0.14-0.28,0.352-1.147,0.632-2.6
			c0.234-1.266,0.609-2.202,1.125-2.811c0.796-0.938,2.061-1.406,3.794-1.406c2.156,0,3.374,1.242,3.655,3.726
			C54.563,71.793,54.398,72.426,54.117,73.176z"/>
	</g>
</g>
<g id="Layer_2">
	
		<use xlink:href="#zz_x5F_Highlight_x2F_Highlight_Piece"  width="118.7" height="115.9" y="-115.9" transform="matrix(1 0 0 -1 26.25 27.3501)" style="overflow:visible;"/>
</g>
<g id="Layer_3">
	<g>
		
			<use xlink:href="#SIDE_x5F_DECOR"  width="177.48" height="60.2" x="0.01" y="-60.2" transform="matrix(0.95 0 0 -0.95 1.5498 97.3496)" style="overflow:visible;"/>
		<g>
			<path style="fill-rule:evenodd;clip-rule:evenodd;fill:#5C5942;" d="M45.35,119.4c0.133-0.167,0.3-0.25,0.5-0.25H128
				c0.167,0,0.333,0.083,0.5,0.25c0.134,0.133,0.2,0.283,0.2,0.449c0,4.634,1.983,7.267,5.95,7.9c0.633,0.1,1.316,0.15,2.05,0.15
				c0.2,0,0.383,0.083,0.55,0.25c0.134,0.133,0.2,0.283,0.2,0.449v27.351c0,0.166-0.066,0.333-0.2,0.5
				c-0.167,0.133-0.35,0.2-0.55,0.2c-0.733,0-1.417,0.05-2.05,0.149c-3.967,0.634-5.95,3.25-5.95,7.851
				c0,0.199-0.066,0.383-0.2,0.55c-0.167,0.133-0.333,0.2-0.5,0.2H45.85c-0.2,0-0.367-0.067-0.5-0.2
				c-0.133-0.167-0.2-0.351-0.2-0.55c0-5.334-2.667-8-8-8c-0.2,0-0.35-0.067-0.45-0.2c-0.167-0.167-0.25-0.334-0.25-0.5V128.6
				c0-0.166,0.083-0.316,0.25-0.449c0.1-0.167,0.25-0.25,0.45-0.25c5.333,0,8-2.684,8-8.051
				C45.15,119.684,45.217,119.533,45.35,119.4z M37.85,129.35v25.9c5.6,0.2,8.5,3.1,8.7,8.7h80.75c0.2-5.066,2.584-7.934,7.15-8.601
				c0.467-0.066,0.983-0.116,1.55-0.149V129.35c-0.566-0.033-1.083-0.083-1.55-0.149c-4.566-0.667-6.95-3.533-7.15-8.601H46.55
				C46.35,126.2,43.45,129.116,37.85,129.35z"/>
			<linearGradient id="SVGID_28_" gradientUnits="userSpaceOnUse" x1="87.0469" y1="201.9492" x2="86.9563" y2="85.6492">
				<stop  offset="0.0235" style="stop-color:#737373"/>
				<stop  offset="0.0745" style="stop-color:#81807F"/>
				<stop  offset="0.4039" style="stop-color:#DAD4CA"/>
				<stop  offset="0.5765" style="stop-color:#EEEADB"/>
				<stop  offset="0.749" style="stop-color:#FEFBE8"/>
				<stop  offset="0.9961" style="stop-color:#E4E7E9"/>
			</linearGradient>
			<path style="fill-rule:evenodd;clip-rule:evenodd;fill:url(#SVGID_28_);" d="M41.85,131.7c5.267,0,7.9-2.334,7.9-7h74.5
				c0,4.066,1.983,6.366,5.95,6.899c0.6,0.067,1.25,0.101,1.95,0.101V153.6c-0.7,0-1.351,0.034-1.95,0.101
				c-3.967,0.533-5.95,2.85-5.95,6.95h-74.5c0-4.7-2.633-7.051-7.9-7.051V131.7z"/>
			
				<linearGradient id="SVGID_29_" gradientUnits="userSpaceOnUse" x1="151.2119" y1="-91.2666" x2="179.4997" y2="-91.2666" gradientTransform="matrix(-0.03 0.9995 -1.0039 0.1161 1.067091e-004 3.408641e-005)">
				<stop  offset="0.0235" style="stop-color:#737373"/>
				<stop  offset="0.0745" style="stop-color:#81807F"/>
				<stop  offset="0.4039" style="stop-color:#DAD4CA"/>
				<stop  offset="0.5765" style="stop-color:#EEEADB"/>
				<stop  offset="0.8941" style="stop-color:#FFFFFF"/>
			</linearGradient>
			<path style="fill-rule:evenodd;clip-rule:evenodd;fill:url(#SVGID_29_);" d="M40.75,130.7c5.4,0,8.1-2.5,8.1-7.5h76.3
				c0,4.366,2.05,6.833,6.149,7.399c0.601,0.067,1.267,0.101,2,0.101v23.5c-0.733,0-1.399,0.033-2,0.1
				c-4.1,0.566-6.149,3.033-6.149,7.4h-76.3c0-5-2.7-7.5-8.1-7.5V130.7z M41.85,131.7V153.6c5.267,0,7.9,2.351,7.9,7.051h74.5
				c0-4.101,1.983-6.417,5.95-6.95c0.6-0.066,1.25-0.101,1.95-0.101V131.7c-0.7,0-1.351-0.033-1.95-0.101
				c-3.967-0.533-5.95-2.833-5.95-6.899h-74.5C49.75,129.366,47.117,131.7,41.85,131.7z"/>
			<path style="fill-rule:evenodd;clip-rule:evenodd;fill:#F2F1E4;" d="M40.75,130.7v23.5c5.4,0,8.1,2.5,8.1,7.5h76.3
				c0-4.367,2.05-6.834,6.149-7.4c0.601-0.066,1.267-0.1,2-0.1v-23.5c-0.733,0-1.399-0.033-2-0.101
				c-4.1-0.566-6.149-3.033-6.149-7.399h-76.3C48.85,128.2,46.15,130.7,40.75,130.7z M37.85,129.35c5.6-0.233,8.5-3.149,8.7-8.75
				h80.75c0.2,5.067,2.584,7.934,7.15,8.601c0.467,0.066,0.983,0.116,1.55,0.149V155.2c-0.566,0.033-1.083,0.083-1.55,0.149
				c-4.566,0.667-6.95,3.534-7.15,8.601H46.55c-0.2-5.601-3.1-8.5-8.7-8.7V129.35z"/>
		</g>
		<g>
			<g>
				<path style="fill-rule:evenodd;clip-rule:evenodd;fill-opacity:0.251;" d="M97,139.8l-2.55,7.45h4.85L97,139.8z M99.05,131.65
					c0.334,0.166,0.65,0.383,0.95,0.649c0.2,0.233,0.384,0.467,0.55,0.7c0.367,0.434,0.7,1.05,1,1.85l6.601,17.45
					c0.5,1.667,0.75,2.95,0.75,3.851c0,0.699-0.184,1.283-0.551,1.75c-0.133,0.1-0.25,0.216-0.35,0.35h-0.05
					c-0.566,0.5-1.334,0.75-2.3,0.75c-1.101,0-1.934-0.316-2.5-0.95c-0.067,0-0.101-0.017-0.101-0.05
					c-0.3-0.434-0.666-1.167-1.1-2.2v-0.05l-0.601-1.9H92.45l-0.601,1.95v-0.05c-0.3,0.967-0.649,1.684-1.05,2.15
					c-0.066,0.066-0.116,0.116-0.149,0.149L90.6,158.1c-0.6,0.601-1.383,0.9-2.35,0.9c-1.066,0-1.884-0.25-2.45-0.75
					c-0.666-0.467-1-1.167-1-2.1c0-0.9,0.316-2.184,0.95-3.851l5.7-15.35c0.7-2,1.267-3.3,1.7-3.9c0-0.033,0.017-0.05,0.05-0.05
					c0.399-0.566,0.899-1.017,1.5-1.35c0-0.034,0.017-0.051,0.05-0.051c0.566-0.3,1.25-0.449,2.05-0.449
					C97.733,131.15,98.483,131.316,99.05,131.65z M124.75,132.6c0.467,0.434,0.767,0.983,0.9,1.65c0.033,0.2,0.05,0.45,0.05,0.75
					c0,0.934-0.3,1.7-0.9,2.3l-0.05,0.05c-0.366,0.367-0.816,0.617-1.35,0.75c-0.367,0.101-0.801,0.15-1.301,0.15h-2.8v17.15
					c0,1.199-0.3,2.083-0.899,2.649v0.05c-0.434,0.334-0.884,0.584-1.351,0.75c-0.366,0.101-0.767,0.15-1.2,0.15
					c-1.066,0-1.883-0.3-2.449-0.9c-0.034,0-0.051-0.017-0.051-0.05c-0.699-0.6-1.05-1.483-1.05-2.649v-17.15h-2.8
					c-1.066,0-1.95-0.3-2.65-0.9l-0.05-0.05c-0.6-0.6-0.899-1.366-0.899-2.3c0-0.967,0.3-1.767,0.899-2.4
					c0-0.033,0.017-0.05,0.05-0.05c0.7-0.566,1.584-0.85,2.65-0.85h12.6C123.3,131.7,124.184,132,124.75,132.6z M71.8,131.7h8.95
					c1.1,0,1.983,0.3,2.65,0.899c0.633,0.634,0.95,1.434,0.95,2.4c0,1.1-0.3,1.866-0.9,2.3c-0.067,0.134-0.167,0.25-0.3,0.351
					c-0.566,0.399-1.367,0.6-2.4,0.6H75.2v3.65h5.1c1.067,0,1.917,0.3,2.55,0.899c0.6,0.601,0.9,1.4,0.9,2.4
					c0,0.934-0.283,1.717-0.85,2.35l-0.05,0.05c-0.067,0.067-0.167,0.134-0.3,0.2c-0.6,0.434-1.35,0.65-2.25,0.65h-5.1v3.8h5.9
					c1.1,0,1.95,0.316,2.55,0.95H83.6c0.6,0.6,0.9,1.383,0.9,2.35s-0.3,1.75-0.9,2.351h0.05c-0.167,0.133-0.3,0.25-0.4,0.35
					c-0.567,0.4-1.283,0.6-2.15,0.6h-9.3c-1,0-1.833-0.3-2.5-0.899c-0.733-0.601-1.1-1.45-1.1-2.55V135.3
					c0-1.066,0.35-1.967,1.05-2.7h0.05C69.967,132,70.8,131.7,71.8,131.7z M51.8,132.6c0-0.033,0.017-0.05,0.05-0.05
					c0.733-0.566,1.55-0.85,2.45-0.85h9c1.034,0,1.917,0.3,2.65,0.899c0.633,0.634,0.95,1.434,0.95,2.4c0,1.1-0.3,1.866-0.9,2.3
					c-0.233,0.233-0.483,0.434-0.75,0.601c-0.467,0.199-1.067,0.316-1.8,0.35H57.7v3.65h4.8c1.1,0,2,0.3,2.7,0.899
					c0.6,0.533,0.9,1.334,0.9,2.4c0,0.934-0.283,1.717-0.85,2.35c-0.033,0-0.05,0.017-0.05,0.05c-0.1,0.067-0.217,0.134-0.35,0.2
					c-0.6,0.4-1.317,0.617-2.15,0.65h-5v6.95c0,0.699-0.1,1.3-0.3,1.8c-0.167,0.333-0.367,0.616-0.6,0.85h0.05
					c-0.5,0.533-1.167,0.851-2,0.95c-0.167,0-0.35,0-0.55,0c-1.033,0-1.85-0.3-2.45-0.9l-0.05-0.05c-0.733-0.566-1.1-1.45-1.1-2.649
					V135.3C50.7,134.233,51.067,133.333,51.8,132.6z"/>
			</g>
			<g>
				<path style="fill-rule:evenodd;clip-rule:evenodd;fill:#FFFFFF;" d="M65.9,132.25c-0.066-0.167-0.15-0.3-0.25-0.4l-0.05-0.05
					c-0.467-0.366-1.067-0.55-1.8-0.55h-8.45c-0.633,0-1.184,0.184-1.65,0.55c-0.5,0.533-0.75,1.184-0.75,1.95v20.1
					c0,0.467,0.05,0.867,0.15,1.2c-0.167-0.066-0.333-0.184-0.5-0.35c-0.467-0.434-0.7-1.066-0.7-1.9v-20.1
					c0-0.8,0.25-1.45,0.75-1.95c0.5-0.4,1.083-0.6,1.75-0.6h9c0.733,0,1.367,0.199,1.9,0.6v0.05
					C65.667,131.167,65.867,131.65,65.9,132.25z M65.15,142.3c-0.033-0.066-0.1-0.133-0.2-0.2c-0.467-0.433-1.083-0.649-1.85-0.649
					H58c-0.1,0-0.2-0.05-0.3-0.15c-0.1-0.133-0.15-0.267-0.15-0.399v-0.5h5.05c0.8,0,1.467,0.199,2,0.6
					C64.9,141.3,65.083,141.733,65.15,142.3z M71,155c-0.333-0.066-0.633-0.217-0.9-0.45c-0.5-0.399-0.75-0.983-0.75-1.75v-20.1
					c0-0.767,0.25-1.4,0.75-1.9c0.033,0,0.05-0.017,0.05-0.05c0.5-0.4,1.083-0.6,1.75-0.6h8.95c0.8,0,1.45,0.199,1.95,0.6l0.05,0.05
					c0.367,0.4,0.55,0.917,0.55,1.55c0,0.034,0,0.101,0,0.2c-0.033-0.233-0.133-0.416-0.3-0.55l-0.05-0.05
					c-0.433-0.4-1.017-0.601-1.75-0.601H73c-0.633,0-1.15,0.217-1.55,0.65v-0.05c-0.467,0.533-0.7,1.2-0.7,2v20.1
					C70.75,154.417,70.833,154.733,71,155z M75.2,150.75h6c0.767,0,1.35,0.2,1.75,0.6c0.367,0.4,0.55,0.934,0.55,1.601
					c0,0.066,0,0.116,0,0.149c-0.067-0.199-0.15-0.366-0.25-0.5c-0.433-0.433-1-0.649-1.7-0.649H75.7c-0.1,0-0.217-0.05-0.35-0.15
					c-0.1-0.1-0.15-0.233-0.15-0.399V150.75z M82.8,142.6c-0.1-0.166-0.2-0.3-0.3-0.399v0.05c-0.367-0.434-0.917-0.65-1.65-0.65
					H75.7c-0.1,0-0.217-0.05-0.35-0.149c-0.1-0.101-0.15-0.233-0.15-0.4V140.4h5.2c0.767,0,1.367,0.199,1.8,0.6v-0.05
					C82.6,141.35,82.8,141.9,82.8,142.6z M106.75,155.2c-0.333,0.1-0.667,0.149-1,0.149c-0.733,0-1.316-0.199-1.75-0.6
					c-0.267-0.366-0.583-1.017-0.95-1.95l-0.7-2.3c-0.066-0.1-0.149-0.184-0.25-0.25c-0.097-0.064-0.196-0.098-0.3-0.1h1.95
					c0.1,0,0.2,0.033,0.3,0.1c0.134,0.066,0.2,0.15,0.2,0.25l0.75,2.3c0.4,0.934,0.733,1.584,1,1.95
					C106.167,154.95,106.417,155.1,106.75,155.2z M113.45,135.5h1.1c0.134,0,0.25,0.05,0.351,0.15
					c0.133,0.133,0.199,0.25,0.199,0.35v17.7c0,0.666,0.167,1.217,0.5,1.649c-0.6-0.1-1.05-0.316-1.35-0.649h-0.05
					c-0.5-0.434-0.75-1.066-0.75-1.9V135.5z M124.4,131.1c-0.2-0.033-0.384-0.05-0.551-0.05H111.2c-0.733,0-1.367,0.2-1.9,0.601
					c-0.399,0.399-0.6,0.933-0.6,1.6c0,0.533,0.1,0.983,0.3,1.35c-0.566-0.1-1.033-0.3-1.4-0.6c-0.366-0.467-0.55-1.017-0.55-1.65
					c0-0.666,0.2-1.199,0.601-1.6c0.533-0.4,1.183-0.6,1.949-0.6H122.2c0.833,0,1.467,0.199,1.899,0.6
					C124.2,130.85,124.3,130.967,124.4,131.1z M97.95,129.65c-0.233,0.066-0.434,0.166-0.601,0.3
					c-0.466,0.233-0.883,0.583-1.25,1.05c-0.366,0.566-0.899,1.8-1.6,3.7L88.85,150.1c-0.6,1.434-0.899,2.584-0.899,3.45
					c0,0.566,0.184,1,0.55,1.3l0.05,0.051c0.2,0.1,0.417,0.183,0.65,0.25c-0.233,0.133-0.517,0.199-0.851,0.199
					c-0.8,0-1.383-0.149-1.75-0.449l-0.05-0.051c-0.366-0.3-0.55-0.733-0.55-1.3c0-0.866,0.3-2.017,0.9-3.45L92.55,134.7
					c0.667-1.9,1.2-3.134,1.601-3.7c0.366-0.467,0.767-0.816,1.199-1.05c0.434-0.267,0.95-0.4,1.551-0.4
					C97.3,129.55,97.65,129.583,97.95,129.65z M98.45,137.8l3.45,9c0,0.101,0,0.217,0,0.351c-0.067,0.1-0.15,0.183-0.25,0.25
					c-0.101,0.033-0.2,0.05-0.301,0.05H95.1c-0.133,0-0.25-0.017-0.35-0.05c-0.066-0.067-0.1-0.15-0.1-0.25
					c-0.101-0.134-0.467-0.65-1.101-1.551c0.101,0.034,0.184,0.051,0.25,0.051h6.3c0.101,0,0.2-0.034,0.301-0.101
					c0.1-0.033,0.166-0.1,0.199-0.2c0-0.133,0-0.25,0-0.35L98.45,137.8z"/>
				<path style="fill-rule:evenodd;clip-rule:evenodd;fill:#5C5942;" d="M53.1,155.05c0.4,0.2,0.833,0.3,1.3,0.3
					c0.767,0,1.35-0.216,1.75-0.649s0.6-1.066,0.6-1.9v-7.45c0-0.166,0.05-0.3,0.15-0.399c0.1-0.134,0.217-0.2,0.35-0.2h5.35
					c0.8,0,1.467-0.184,2-0.55h-0.1c0.433-0.4,0.65-0.934,0.65-1.601c0-0.133,0-0.233,0-0.3c-0.066-0.566-0.25-1-0.55-1.3
					c-0.533-0.4-1.2-0.6-2-0.6h-5.05h-0.3c-0.133,0-0.25-0.067-0.35-0.2c-0.1-0.101-0.15-0.217-0.15-0.351v-4.75
					c0-0.1,0.05-0.216,0.15-0.35c0.1-0.1,0.217-0.15,0.35-0.15h6.15c0.833,0,1.467-0.199,1.9-0.6v-0.05
					c0.4-0.334,0.6-0.867,0.6-1.601c0-0.033,0-0.066,0-0.1c-0.033-0.6-0.233-1.083-0.6-1.45v-0.05c-0.533-0.4-1.167-0.6-1.9-0.6h-9
					c-0.667,0-1.25,0.199-1.75,0.6c-0.5,0.5-0.75,1.15-0.75,1.95v20.1c0,0.834,0.233,1.467,0.7,1.9
					C52.767,154.866,52.933,154.983,53.1,155.05z M50.8,132.7c0-1.066,0.367-1.967,1.1-2.7c0-0.033,0.017-0.05,0.05-0.05
					c0.7-0.566,1.517-0.851,2.45-0.851h9c1.033,0,1.917,0.301,2.65,0.9c0.633,0.634,0.95,1.417,0.95,2.35
					c0,1.134-0.3,1.917-0.9,2.351c-0.233,0.233-0.5,0.434-0.8,0.6c-0.433,0.2-1.017,0.316-1.75,0.351H57.8v3.649h4.8
					c1.1,0,2,0.3,2.7,0.9c0.6,0.5,0.9,1.3,0.9,2.399c0,0.934-0.3,1.717-0.9,2.351V145c-0.1,0.066-0.216,0.134-0.35,0.2
					c-0.6,0.399-1.317,0.616-2.15,0.649h-5v6.95c0,0.7-0.1,1.3-0.3,1.8c-0.167,0.301-0.367,0.584-0.6,0.851h0.05
					c-0.5,0.533-1.184,0.85-2.05,0.95c-0.133,0-0.3,0-0.5,0c-1.033,0-1.85-0.301-2.45-0.9l-0.05-0.05
					c-0.733-0.566-1.1-1.45-1.1-2.65V132.7z M71,155c0.267,0.1,0.567,0.15,0.9,0.15h9.3c0.767,0,1.35-0.2,1.75-0.601
					c0.333-0.366,0.517-0.85,0.55-1.45c0-0.033,0-0.083,0-0.149c0-0.667-0.183-1.2-0.55-1.601c-0.4-0.399-0.983-0.6-1.75-0.6h-6
					h-0.4c-0.133,0-0.267-0.066-0.4-0.2c-0.1-0.1-0.15-0.217-0.15-0.35v-4.851c0-0.166,0.05-0.3,0.15-0.399
					c0.133-0.134,0.267-0.2,0.4-0.2h5.6c0.733,0,1.333-0.184,1.8-0.55c0.4-0.434,0.6-0.967,0.6-1.601c0-0.699-0.2-1.25-0.6-1.649
					V141c-0.434-0.4-1.034-0.6-1.8-0.6h-5.2h-0.4c-0.133,0-0.267-0.067-0.4-0.2c-0.1-0.101-0.15-0.217-0.15-0.351v-4.75
					c0-0.1,0.05-0.216,0.15-0.35c0.133-0.1,0.267-0.15,0.4-0.15h6.05c0.867,0,1.517-0.199,1.95-0.6c0-0.033,0.017-0.05,0.05-0.05
					c0.333-0.3,0.517-0.767,0.55-1.4c0-0.1,0-0.166,0-0.2c0-0.633-0.183-1.149-0.55-1.55l-0.05-0.05c-0.5-0.4-1.15-0.6-1.95-0.6
					H71.9c-0.667,0-1.25,0.199-1.75,0.6c0,0.033-0.017,0.05-0.05,0.05c-0.5,0.5-0.75,1.134-0.75,1.9v20.1
					c0,0.767,0.25,1.351,0.75,1.75C70.367,154.783,70.667,154.934,71,155z M80.85,135.65H75.3v3.649h5.1c1.067,0,1.917,0.3,2.55,0.9
					c0.6,0.6,0.9,1.399,0.9,2.399c0,0.934-0.283,1.717-0.85,2.351L82.95,145c-0.067,0.066-0.167,0.134-0.3,0.2
					c-0.6,0.434-1.35,0.649-2.25,0.649h-5.1v3.801h5.9c1.1,0,1.95,0.316,2.55,0.949H83.7c0.6,0.601,0.9,1.384,0.9,2.351
					s-0.3,1.75-0.9,2.35h0.05c-0.167,0.134-0.3,0.25-0.4,0.351c-0.6,0.399-1.317,0.6-2.15,0.6h-9.3c-1,0-1.833-0.3-2.5-0.9
					c-0.733-0.6-1.1-1.449-1.1-2.55v-20.1c0-1.066,0.35-1.967,1.05-2.7h0.05c0.667-0.6,1.5-0.9,2.5-0.9h8.95
					c1.066,0,1.95,0.301,2.65,0.9c0.633,0.634,0.95,1.417,0.95,2.35c0,1.134-0.3,1.917-0.9,2.351c-0.1,0.133-0.2,0.25-0.3,0.35
					C82.683,135.45,81.883,135.65,80.85,135.65z M124.85,130c0.467,0.434,0.767,0.983,0.9,1.65c0.033,0.199,0.05,0.433,0.05,0.699
					c0,0.967-0.3,1.75-0.899,2.351l-0.051,0.05c-0.366,0.366-0.816,0.616-1.35,0.75c-0.366,0.1-0.8,0.15-1.3,0.15h-2.8V152.8
					c0,1.2-0.301,2.084-0.9,2.65v0.05c-0.434,0.3-0.884,0.55-1.35,0.75c-0.367,0.1-0.767,0.15-1.2,0.15
					c-1.066,0-1.884-0.301-2.45-0.9c-0.033,0-0.05-0.017-0.05-0.05c-0.7-0.601-1.05-1.483-1.05-2.65V135.65H109.6
					c-1.066,0-1.949-0.301-2.649-0.9l-0.05-0.05c-0.601-0.601-0.9-1.384-0.9-2.351c0-0.933,0.3-1.716,0.9-2.35
					c0-0.033,0.017-0.05,0.05-0.05c0.7-0.566,1.583-0.851,2.649-0.851H122.2C123.4,129.1,124.283,129.4,124.85,130z M124.4,131.1
					c-0.101-0.133-0.2-0.25-0.301-0.35c-0.433-0.4-1.066-0.6-1.899-0.6H109.6c-0.767,0-1.416,0.199-1.949,0.6
					c-0.4,0.4-0.601,0.934-0.601,1.6c0,0.634,0.184,1.184,0.55,1.65c0.367,0.3,0.834,0.5,1.4,0.6c0.2,0,0.4,0,0.6,0h3.301
					c0.133,0,0.267,0.051,0.399,0.15c0.101,0.134,0.15,0.25,0.15,0.35v0.4v17.3c0,0.834,0.25,1.467,0.75,1.9h0.05
					c0.3,0.333,0.75,0.55,1.35,0.649c0.067,0,0.184,0,0.351,0c0.666,0,1.25-0.216,1.75-0.649h0.1c0.367-0.434,0.55-1.066,0.55-1.9
					v-17.7c0-0.1,0.051-0.216,0.15-0.35c0.066-0.1,0.184-0.15,0.35-0.15h3.351c0.833,0,1.467-0.199,1.899-0.6
					c0.434-0.467,0.65-1.017,0.65-1.65C124.75,131.884,124.634,131.467,124.4,131.1z M99.15,129.05
					c0.333,0.167,0.649,0.384,0.949,0.65c0.2,0.233,0.384,0.45,0.551,0.649c0.366,0.467,0.699,1.084,1,1.851l6.6,17.5
					c0.5,1.633,0.75,2.916,0.75,3.85c0,0.7-0.184,1.283-0.55,1.75c-0.134,0.101-0.267,0.217-0.4,0.351c-0.6,0.5-1.366,0.75-2.3,0.75
					c-1.1,0-1.934-0.317-2.5-0.95c-0.066,0-0.1-0.017-0.1-0.05c-0.301-0.434-0.667-1.184-1.101-2.25V153.1L101.4,151.2H92.55
					l-0.649,1.95V153.1c-0.267,1-0.601,1.733-1,2.2c-0.067,0.066-0.117,0.117-0.15,0.15l-0.05,0.05c-0.601,0.6-1.384,0.9-2.351,0.9
					c-1.066,0-1.883-0.25-2.449-0.75c-0.667-0.467-1-1.167-1-2.101s0.317-2.217,0.95-3.85l5.7-15.4c0.7-2,1.267-3.3,1.7-3.899
					c0-0.034,0.017-0.051,0.05-0.051c0.4-0.566,0.884-1,1.45-1.3c0-0.033,0.017-0.05,0.05-0.05c0.601-0.333,1.3-0.5,2.101-0.5
					C97.833,128.5,98.583,128.684,99.15,129.05z M98.45,137.8l2.149,7.2c0,0.1,0,0.217,0,0.35c-0.033,0.101-0.1,0.167-0.199,0.2
					c-0.101,0.066-0.2,0.101-0.301,0.101h-6.3c-0.066,0-0.149-0.017-0.25-0.051c0-0.033-0.017-0.05-0.05-0.05
					c-0.1-0.033-0.15-0.1-0.15-0.2c-0.066-0.133-0.066-0.25,0-0.35l3.25-9.45c0-0.1,0.034-0.184,0.101-0.25
					c0.133-0.1,0.25-0.149,0.35-0.149h0.15c0.033,0,0.083,0,0.149,0c0.034,0,0.067,0.017,0.101,0.05c0.033,0,0.066,0.033,0.1,0.1
					c0.066,0.066,0.117,0.15,0.15,0.25L98.45,137.8z M89.2,155.15c0.3-0.101,0.55-0.25,0.75-0.45
					c0.366-0.367,0.684-0.983,0.95-1.851v-0.05l0.8-2.3c0.033-0.1,0.1-0.184,0.2-0.25c0.066-0.066,0.149-0.1,0.25-0.1h9.649
					c0.104,0.002,0.203,0.035,0.3,0.1c0.101,0.066,0.184,0.15,0.25,0.25l0.7,2.3c0.367,0.934,0.684,1.584,0.95,1.95
					c0.434,0.4,1.017,0.6,1.75,0.6c0.333,0,0.667-0.05,1-0.149c0.233-0.101,0.45-0.2,0.65-0.3v-0.051c0.366-0.3,0.55-0.733,0.55-1.3
					c0-0.866-0.25-2.033-0.75-3.5v0.05l-6.55-17.5c-0.267-0.699-0.551-1.233-0.851-1.6c-0.333-0.434-0.75-0.783-1.25-1.05
					c-0.133-0.134-0.333-0.233-0.6-0.3c-0.3-0.067-0.65-0.101-1.05-0.101c-0.601,0-1.117,0.134-1.551,0.4
					c-0.433,0.233-0.833,0.583-1.199,1.05c-0.4,0.566-0.934,1.8-1.601,3.7L86.9,150.1c-0.601,1.434-0.9,2.584-0.9,3.45
					c0,0.566,0.184,1,0.55,1.3l0.05,0.051c0.367,0.3,0.95,0.449,1.75,0.449C88.684,155.35,88.967,155.283,89.2,155.15z M97.1,137.2
					l-2.55,7.399H99.4L97.1,137.2z"/>
				<path style="fill-rule:evenodd;clip-rule:evenodd;fill:#E7E2D4;" d="M57.55,140.4v0.5c0,0.133,0.05,0.267,0.15,0.399
					c0.1,0.101,0.2,0.15,0.3,0.15h5.1c0.767,0,1.383,0.217,1.85,0.649c0.1,0.067,0.167,0.134,0.2,0.2c0,0.066,0,0.167,0,0.3
					c0,0.667-0.217,1.2-0.65,1.601h0.1c-0.533,0.366-1.2,0.55-2,0.55h-5.35c-0.133,0-0.25,0.066-0.35,0.2
					c-0.1,0.1-0.15,0.233-0.15,0.399v7.45c0,0.834-0.2,1.467-0.6,1.9s-0.983,0.649-1.75,0.649c-0.467,0-0.9-0.1-1.3-0.3
					c-0.1-0.333-0.15-0.733-0.15-1.2v-20.1c0-0.767,0.25-1.417,0.75-1.95c0.466-0.366,1.017-0.55,1.65-0.55h8.45
					c0.733,0,1.333,0.184,1.8,0.55l0.05,0.05c0.1,0.101,0.184,0.233,0.25,0.4c0,0.033,0,0.066,0,0.1c0,0.733-0.2,1.267-0.6,1.601
					V134c-0.433,0.4-1.066,0.6-1.9,0.6h-6.15c-0.133,0-0.25,0.051-0.35,0.15c-0.1,0.134-0.15,0.25-0.15,0.35v4.75
					c0,0.134,0.05,0.25,0.15,0.351c0.1,0.133,0.217,0.2,0.35,0.2H57.55z M113.45,135.5v-0.4c0-0.1-0.05-0.216-0.15-0.35
					c-0.133-0.1-0.267-0.15-0.399-0.15H109.6c-0.199,0-0.399,0-0.6,0c-0.2-0.366-0.3-0.816-0.3-1.35c0-0.667,0.2-1.2,0.6-1.6
					c0.533-0.4,1.167-0.601,1.9-0.601h12.649c0.167,0,0.351,0.017,0.551,0.05c0.233,0.367,0.35,0.784,0.35,1.25
					c0,0.634-0.217,1.184-0.65,1.65c-0.433,0.4-1.066,0.6-1.899,0.6h-3.351c-0.166,0-0.283,0.051-0.35,0.15
					c-0.1,0.134-0.15,0.25-0.15,0.35v17.7c0,0.834-0.183,1.467-0.55,1.9h-0.1c-0.5,0.434-1.084,0.649-1.75,0.649
					c-0.167,0-0.283,0-0.351,0c-0.333-0.433-0.5-0.983-0.5-1.649V136c0-0.1-0.066-0.217-0.199-0.35
					c-0.101-0.101-0.217-0.15-0.351-0.15H113.45z M106.75,155.2c-0.333-0.101-0.583-0.25-0.75-0.45c-0.267-0.366-0.6-1.017-1-1.95
					l-0.75-2.3c0-0.1-0.066-0.184-0.2-0.25c-0.1-0.066-0.2-0.1-0.3-0.1h-1.95H92.15c-0.101,0-0.184,0.033-0.25,0.1
					c-0.101,0.066-0.167,0.15-0.2,0.25l-0.8,2.3v0.05c-0.267,0.867-0.584,1.483-0.95,1.851c-0.2,0.2-0.45,0.35-0.75,0.45
					c-0.233-0.067-0.45-0.15-0.65-0.25l-0.05-0.051c-0.366-0.3-0.55-0.733-0.55-1.3c0-0.866,0.3-2.017,0.899-3.45L94.5,134.7
					c0.7-1.9,1.233-3.134,1.6-3.7c0.367-0.467,0.784-0.816,1.25-1.05c0.167-0.134,0.367-0.233,0.601-0.3
					c0.267,0.066,0.467,0.166,0.6,0.3c0.5,0.267,0.917,0.616,1.25,1.05c0.3,0.366,0.584,0.9,0.851,1.6l6.55,17.5v-0.05
					c0.5,1.467,0.75,2.634,0.75,3.5c0,0.566-0.184,1-0.55,1.3v0.051C107.2,155,106.983,155.1,106.75,155.2z M98.45,137.8l-0.75-2.25
					c-0.033-0.1-0.084-0.184-0.15-0.25c-0.033-0.066-0.066-0.1-0.1-0.1c-0.033-0.033-0.066-0.05-0.101-0.05
					c-0.066,0-0.116,0-0.149,0h-0.15c-0.1,0-0.217,0.05-0.35,0.149c-0.066,0.066-0.101,0.15-0.101,0.25L93.35,145
					c-0.066,0.1-0.066,0.217,0,0.35c0,0.101,0.051,0.167,0.15,0.2c0.033,0,0.05,0.017,0.05,0.05c0.634,0.9,1,1.417,1.101,1.551
					c0,0.1,0.033,0.183,0.1,0.25c0.1,0.033,0.217,0.05,0.35,0.05h6.25c0.101,0,0.2-0.017,0.301-0.05c0.1-0.067,0.183-0.15,0.25-0.25
					c0-0.134,0-0.25,0-0.351L98.45,137.8z"/>
				<linearGradient id="SVGID_30_" gradientUnits="userSpaceOnUse" x1="39.7642" y1="184.6572" x2="112.6134" y2="104.0839">
					<stop  offset="0.0235" style="stop-color:#737373"/>
					<stop  offset="0.0745" style="stop-color:#81807F"/>
					<stop  offset="0.4039" style="stop-color:#DAD4CA"/>
					<stop  offset="0.5765" style="stop-color:#EEEADB"/>
					<stop  offset="0.749" style="stop-color:#FEFBE8"/>
					<stop  offset="0.9961" style="stop-color:#E4E7E9"/>
				</linearGradient>
				<path style="fill-rule:evenodd;clip-rule:evenodd;fill:url(#SVGID_30_);" d="M75.2,140.4v0.649c0,0.167,0.05,0.3,0.15,0.4
					c0.133,0.1,0.25,0.149,0.35,0.149h5.15c0.733,0,1.283,0.217,1.65,0.65v-0.05c0.1,0.1,0.2,0.233,0.3,0.399
					c0,0.634-0.2,1.167-0.6,1.601c-0.467,0.366-1.067,0.55-1.8,0.55h-5.6c-0.133,0-0.267,0.066-0.4,0.2
					c-0.1,0.1-0.15,0.233-0.15,0.399v4.851c0,0.133,0.05,0.25,0.15,0.35c0.133,0.134,0.267,0.2,0.4,0.2h0.4v0.65
					c0,0.166,0.05,0.3,0.15,0.399c0.133,0.101,0.25,0.15,0.35,0.15h5.85c0.7,0,1.267,0.217,1.7,0.649
					c0.1,0.134,0.183,0.301,0.25,0.5c-0.033,0.601-0.217,1.084-0.55,1.45c-0.4,0.4-0.983,0.601-1.75,0.601h-9.3
					c-0.333,0-0.633-0.051-0.9-0.15c-0.167-0.267-0.25-0.583-0.25-0.95v-20.1c0-0.8,0.233-1.467,0.7-2V132
					c0.4-0.434,0.917-0.65,1.55-0.65h8.3c0.733,0,1.317,0.2,1.75,0.601L83.1,132c0.167,0.134,0.267,0.316,0.3,0.55
					c-0.033,0.634-0.217,1.101-0.55,1.4c-0.033,0-0.05,0.017-0.05,0.05c-0.433,0.4-1.083,0.6-1.95,0.6H74.8
					c-0.133,0-0.267,0.051-0.4,0.15c-0.1,0.134-0.15,0.25-0.15,0.35v4.75c0,0.134,0.05,0.25,0.15,0.351
					c0.133,0.133,0.267,0.2,0.4,0.2H75.2z"/>
			</g>
		</g>
	</g>
</g>
</svg>
