<?xml version="1.0" encoding="iso-8859-1"?>
<!-- Generator: Adobe Illustrator 15.1.0, SVG Export Plug-In . SVG Version: 6.00 Build 0)  -->
<!DOCTYPE svg PUBLIC "-//W3C//DTD SVG 1.1//EN" "http://www.w3.org/Graphics/SVG/1.1/DTD/svg11.dtd">
<svg version="1.1" id="FlashAICB" xmlns="http://www.w3.org/2000/svg" xmlns:xlink="http://www.w3.org/1999/xlink" x="0px" y="0px"
	 width="170.7px" height="171.25px" viewBox="0 0 170.7 171.25" style="enable-background:new 0 0 170.7 171.25;"
	 xml:space="preserve">
<symbol  id="FlashAICB_x2F_Layer_1_x2F__x3C_Clip_Group_0_x3E_" viewBox="0 -59.35 14.8 59.35">
	<g id="Layer_1_24_">
	</g>
	<g>
		<defs>
			<polygon id="SVGID_1_" points="0,0 0,-59.35 14.8,-59.35 14.8,0 			"/>
		</defs>
		<clipPath id="SVGID_2_">
			<use xlink:href="#SVGID_1_"  style="overflow:visible;"/>
		</clipPath>
		<g id="Layer_3_19_" style="clip-path:url(#SVGID_2_);">
			
				<use xlink:href="#FlashAICB_x2F_Layer_1_x2F__x3C_Clip_Group_0_x3E__x5F_0"  width="14.8" height="59.35" y="-59.35" style="overflow:visible;"/>
		</g>
	</g>
	<g id="Layer_4_19_">
	</g>
</symbol>
<symbol  id="FlashAICB_x2F_Layer_1_x2F__x3C_Clip_Group_0_x3E__x5F_0" viewBox="0 -59.35 14.8 59.35">
	<g id="Layer_1_3_">
	</g>
	<g>
		<defs>
			<path id="SVGID_3_" d="M11.4-16.5c0,5.067,1.133,10.567,3.4,16.5H0v-54.4l0.05,0.15c0.367-1.267,1.75-2.383,4.15-3.35
				c2.433-0.933,5.383-1.517,8.85-1.75l0.55,5.3c0.333,3.533,0.066,9.783-0.8,18.75C11.867-25.167,11.4-18.9,11.4-16.5z"/>
		</defs>
		<clipPath id="SVGID_4_">
			<use xlink:href="#SVGID_3_"  style="overflow:visible;"/>
		</clipPath>
		<g id="Layer_3_1_" style="clip-path:url(#SVGID_4_);">
		</g>
	</g>
	<g id="Layer_4_1_">
	</g>
</symbol>
<symbol  id="FlashAICB_x2F_Layer_1_x2F__x3C_Clip_Group_0_x3E__x5F_1" viewBox="0 -4.033 12.65 4.033">
	<g id="Layer_1_4_">
	</g>
	<g>
		<defs>
			<polygon id="SVGID_5_" points="0,0 0,-4 12.65,-4 12.65,0 			"/>
		</defs>
		<clipPath id="SVGID_6_">
			<use xlink:href="#SVGID_5_"  style="overflow:visible;"/>
		</clipPath>
		<g id="Layer_3_2_" style="clip-path:url(#SVGID_6_);">
			<path style="fill-rule:evenodd;clip-rule:evenodd;" d="M12.65-0.025V-1.25c-0.167-0.4-0.5-0.817-1-1.25
				c-1-0.867-2.283-1.367-3.85-1.5C5.367-4.167,3.333-3.7,1.7-2.6C0.9-2.033,0.333-1.45,0-0.85c0.433-0.5,1.117-0.933,2.05-1.3
				c1.867-0.8,4.067-0.967,6.6-0.5c1.633,0.267,2.783,0.783,3.45,1.55C12.455-0.712,12.639-0.354,12.65-0.025z"/>
		</g>
	</g>
	<g id="Layer_4_2_">
	</g>
</symbol>
<symbol  id="FlashAICB_x2F_Layer_1_x2F__x3C_Clip_Group_0_x3E__x5F_10" viewBox="0 -14 4.2 14">
	<g id="Layer_1_12_">
	</g>
	<g>
		<defs>
			<polygon id="SVGID_7_" points="0,0 0,-14 4.2,-14 4.2,0 			"/>
		</defs>
		<clipPath id="SVGID_8_">
			<use xlink:href="#SVGID_7_"  style="overflow:visible;"/>
		</clipPath>
		<g id="Layer_3_10_" style="clip-path:url(#SVGID_8_);">
			<path style="fill-rule:evenodd;clip-rule:evenodd;" d="M3.25-2c0,0.9-0.867,1.2-2.6,0.9L4.2,0v-13.1C3.133-13.7,1.733-14,0-14
				l0.8,0.2c1.467,0.267,2.3,1.95,2.5,5.05C3.433-7.083,3.417-4.833,3.25-2z"/>
		</g>
	</g>
	<g id="Layer_4_10_">
	</g>
</symbol>
<symbol  id="FlashAICB_x2F_Layer_1_x2F__x3C_Clip_Group_0_x3E__x5F_11" viewBox="0 -13.2 0.7 13.2">
	<g id="Layer_1_13_">
	</g>
	<g>
		<defs>
			<polygon id="SVGID_9_" points="0,0 0,-13.2 0.7,-13.2 0.7,0 			"/>
		</defs>
		<clipPath id="SVGID_10_">
			<use xlink:href="#SVGID_9_"  style="overflow:visible;"/>
		</clipPath>
		<g id="Layer_3_11_" style="clip-path:url(#SVGID_10_);">
			<polygon style="fill-rule:evenodd;clip-rule:evenodd;fill:#FFFFFF;" points="0,-13.15 0,0 0.7,-0.1 0.7,-13.2 			"/>
		</g>
	</g>
	<g id="Layer_4_11_">
	</g>
</symbol>
<symbol  id="FlashAICB_x2F_Layer_1_x2F__x3C_Clip_Group_0_x3E__x5F_12" viewBox="0 -14 2.85 14">
	<g id="Layer_1_14_">
	</g>
	<g>
		<defs>
			<polygon id="SVGID_11_" points="0,0 0,-14 2.85,-14 2.85,0 			"/>
		</defs>
		<clipPath id="SVGID_12_">
			<use xlink:href="#SVGID_11_"  style="overflow:visible;"/>
		</clipPath>
		<g id="Layer_3_12_" style="clip-path:url(#SVGID_12_);">
			<path style="fill-rule:evenodd;clip-rule:evenodd;fill:#FFFFFF;" d="M0-13.15V0l2.85-0.85V-14C1.617-13.8,0.667-13.517,0-13.15z"
				/>
		</g>
	</g>
	<g id="Layer_4_12_">
	</g>
</symbol>
<symbol  id="FlashAICB_x2F_Layer_1_x2F__x3C_Clip_Group_0_x3E__x5F_13" viewBox="0 -16.557 7.411 16.557">
	<g id="Layer_1_15_">
	</g>
	<g>
		<defs>
			<polygon id="SVGID_13_" points="0,0 0,-16.55 7.4,-16.55 7.4,0 			"/>
		</defs>
		<clipPath id="SVGID_14_">
			<use xlink:href="#SVGID_13_"  style="overflow:visible;"/>
		</clipPath>
		<g id="Layer_3_13_" style="clip-path:url(#SVGID_14_);">
			<path style="fill-rule:evenodd;clip-rule:evenodd;" d="M0-2.65L0.85,0c0.467-0.067,1-0.283,1.6-0.65
				c1.233-0.7,2.283-1.767,3.15-3.2c1.566-2.667,2.117-5.433,1.65-8.3C6.817-14.783,5.9-16.233,4.5-16.5
				c-1.233-0.233-2.517,0.25-3.85,1.45L0-2.65z"/>
		</g>
	</g>
	<g id="Layer_4_13_">
	</g>
</symbol>
<symbol  id="FlashAICB_x2F_Layer_1_x2F__x3C_Clip_Group_0_x3E__x5F_14" viewBox="0 -9.872 4.702 9.872">
	<g id="Layer_1_16_">
	</g>
	<g>
		<defs>
			<polygon id="SVGID_15_" points="0,0 0,-9.85 4.7,-9.85 4.7,0 			"/>
		</defs>
		<clipPath id="SVGID_16_">
			<use xlink:href="#SVGID_15_"  style="overflow:visible;"/>
		</clipPath>
		<g id="Layer_3_14_" style="clip-path:url(#SVGID_16_);">
			<path style="fill-rule:evenodd;clip-rule:evenodd;" d="M0-1.55l0.5,1.5C0.733,0.017,1.033,0,1.4-0.1
				c0.667-0.167,1.267-0.667,1.8-1.5c1-1.667,1.5-3.316,1.5-4.95c0.033-1.667-0.467-2.733-1.5-3.2C2.5-10.083,1.567-9.733,0.4-8.7
				L0-1.55z"/>
		</g>
	</g>
	<g id="Layer_4_14_">
	</g>
</symbol>
<symbol  id="FlashAICB_x2F_Layer_1_x2F__x3C_Clip_Group_0_x3E__x5F_15" viewBox="0 -32.95 44.85 32.95">
	<g id="Layer_1_17_">
	</g>
	<g>
		<defs>
			<polygon id="SVGID_17_" points="38.9,0 0,-10.1 5.9,-32.95 44.85,-22.85 			"/>
		</defs>
		<clipPath id="SVGID_18_">
			<use xlink:href="#SVGID_17_"  style="overflow:visible;"/>
		</clipPath>
		<g id="Layer_3_15_" style="clip-path:url(#SVGID_18_);">
			<path style="fill-rule:evenodd;clip-rule:evenodd;" d="M31.2-2.15c3.333,0.133,5.966-0.833,7.9-2.9
				c1.833-1.934,2.667-4.383,2.5-7.35c-0.167-3.067-1.4-5.9-3.7-8.5c-2.566-2.934-6.117-5.083-10.65-6.45
				c-9.233-2.767-16.317-1.967-21.25,2.4c-1.867,1.667-3.1,3.6-3.7,5.8c-0.533,2.066-0.383,3.75,0.45,5.05
				c-0.433-1.467-0.167-3.083,0.8-4.85c1.034-1.933,2.633-3.483,4.8-4.65c3.3-1.833,7.767-2.083,13.4-0.75
				c5.533,1.3,9.517,3.467,11.95,6.5c2.466,3.1,2.7,6.483,0.7,10.15c-2,3.733-4.767,4.534-8.3,2.4l-0.45-0.4
				C27.217-3.433,29.067-2.25,31.2-2.15z"/>
		</g>
	</g>
	<g id="Layer_4_15_">
	</g>
</symbol>
<symbol  id="FlashAICB_x2F_Layer_1_x2F__x3C_Clip_Group_0_x3E__x5F_16" viewBox="0 -32.85 44.75 32.85">
	<g id="Layer_1_18_">
	</g>
	<g>
		<defs>
			<polygon id="SVGID_19_" points="38.8,0 0,-10.05 5.9,-32.85 44.75,-22.8 			"/>
		</defs>
		<clipPath id="SVGID_20_">
			<use xlink:href="#SVGID_19_"  style="overflow:visible;"/>
		</clipPath>
		<g id="Layer_3_16_" style="clip-path:url(#SVGID_20_);">
			<path style="fill-rule:evenodd;clip-rule:evenodd;" d="M31.1-2.1C34.433-1.967,37.067-2.933,39-5
				c1.833-1.933,2.667-4.383,2.5-7.35c-0.167-3.066-1.4-5.9-3.7-8.5c-2.566-2.933-6.117-5.083-10.65-6.45
				c-6.6-2-12.217-2.083-16.85-0.25c-3.733,1.5-6.283,3.9-7.65,7.2c1.333-1.9,3.517-3.55,6.55-4.95c3.733-1.733,7.45-2.3,11.15-1.7
				c6.066,0.967,10.833,2.833,14.3,5.6c3.267,2.566,4.934,5.583,5,9.05c0.067,3.133-0.683,5.55-2.25,7.25
				c-1.588,1.754-3.98,2.704-7.175,2.85L31.1-2.1z"/>
		</g>
	</g>
	<g id="Layer_4_16_">
	</g>
</symbol>
<symbol  id="FlashAICB_x2F_Layer_1_x2F__x3C_Clip_Group_0_x3E__x5F_17" viewBox="0 -10.1 11.45 10.1">
	<g id="Layer_1_19_">
	</g>
	<g>
		<defs>
			<polygon id="SVGID_21_" points="9.45,0 0,-2.45 2,-10.1 11.45,-7.7 			"/>
		</defs>
		<clipPath id="SVGID_22_">
			<use xlink:href="#SVGID_21_"  style="overflow:visible;"/>
		</clipPath>
		<g id="Layer_3_17_" style="clip-path:url(#SVGID_22_);">
			<path style="fill-rule:evenodd;clip-rule:evenodd;fill:#FFFFFF;" d="M5.05-3.65c0.3-0.667,1.133-1.05,2.5-1.15
				c1.567-0.1,2.617-0.367,3.15-0.8c0.867-0.733,0.55-1.517-0.95-2.35C8.217-8.783,6.517-9.033,4.65-8.7
				c-1.767,0.333-2.967,1.167-3.6,2.5c-0.566,1.167-0.566,2.3,0,3.4c0.4,0.8,1.067,1.083,2,0.85C3.95-2.15,4.617-2.717,5.05-3.65z"
				/>
		</g>
	</g>
	<g id="Layer_4_17_">
	</g>
</symbol>
<symbol  id="FlashAICB_x2F_Layer_1_x2F__x3C_Clip_Group_0_x3E__x5F_18" viewBox="0 -14.4 17.95 14.4">
	<g id="Layer_1_20_">
	</g>
	<g>
		<defs>
			<polygon id="SVGID_23_" points="15.25,0 0,-3.95 2.7,-14.4 17.95,-10.45 			"/>
		</defs>
		<clipPath id="SVGID_24_">
			<use xlink:href="#SVGID_23_"  style="overflow:visible;"/>
		</clipPath>
		<g id="Layer_3_18_" style="clip-path:url(#SVGID_24_);">
			<path style="fill-rule:evenodd;clip-rule:evenodd;fill:#FFFFFF;" d="M10.15-12.25c-2.433-1.067-4.483-1.367-6.15-0.9
				c-1.4,0.367-2.1,1.033-2.1,2c0,0.6,0.583,1.167,1.75,1.7c1.667,0.633,3,1.2,4,1.7C8.983-7.117,9.867-6.2,10.3-5
				c0.267,0.667,0.483,1.6,0.65,2.8c0.2,0.7,0.65,1.184,1.35,1.45c0.867,0.333,1.75,0.017,2.65-0.95
				c1.367-1.466,1.833-3.066,1.4-4.8C15.783-8.733,13.717-10.65,10.15-12.25z"/>
		</g>
	</g>
	<g id="Layer_4_18_">
	</g>
</symbol>
<symbol  id="FlashAICB_x2F_Layer_1_x2F__x3C_Clip_Group_0_x3E__x5F_2" viewBox="-0.084 -1.318 2.547 1.33">
	<g id="Layer_1_5_">
	</g>
	<g>
		<defs>
			<polygon id="SVGID_25_" points="0,0 0,-1.25 2.4,-1.25 2.4,0 			"/>
		</defs>
		<clipPath id="SVGID_26_">
			<use xlink:href="#SVGID_25_"  style="overflow:visible;"/>
		</clipPath>
		<g id="Layer_3_3_" style="clip-path:url(#SVGID_26_);">
			<path style="fill-rule:evenodd;clip-rule:evenodd;fill:#FFFFFF;" d="M0.4-1c-0.733,0.4-0.633,0.717,0.3,0.95
				C1.233,0.083,1.717,0,2.15-0.3c0.4-0.3,0.417-0.583,0.05-0.85C1.767-1.417,1.167-1.367,0.4-1z"/>
		</g>
	</g>
	<g id="Layer_4_3_">
	</g>
</symbol>
<symbol  id="FlashAICB_x2F_Layer_1_x2F__x3C_Clip_Group_0_x3E__x5F_3" viewBox="0 -4.49 2.2 4.518">
	<g id="Layer_1_6_">
	</g>
	<g>
		<defs>
			<polygon id="SVGID_27_" points="0,0 0,-4.3 2.2,-4.3 2.2,0 			"/>
		</defs>
		<clipPath id="SVGID_28_">
			<use xlink:href="#SVGID_27_"  style="overflow:visible;"/>
		</clipPath>
		<g id="Layer_3_4_" style="clip-path:url(#SVGID_28_);">
			<path style="fill-rule:evenodd;clip-rule:evenodd;fill:#FFFFFF;" d="M1.9,0c0.367-0.133,0.283-0.583-0.25-1.35
				c-0.733-1-1.066-1.9-1-2.7c0.033-0.633-0.1-0.583-0.4,0.15C-0.017-3.233-0.067-2.517,0.1-1.75c0.066,0.4,0.3,0.817,0.7,1.25
				C1.233-0.067,1.6,0.1,1.9,0z"/>
		</g>
	</g>
	<g id="Layer_4_4_">
	</g>
</symbol>
<symbol  id="FlashAICB_x2F_Layer_1_x2F__x3C_Clip_Group_0_x3E__x5F_4" viewBox="0 -48.95 32.25 48.95">
	<g id="Layer_1_28_">
	</g>
	<g>
		<defs>
			<polygon id="SVGID_29_" points="0,0 0,-48.95 32.25,-48.95 32.25,0 			"/>
		</defs>
		<clipPath id="SVGID_30_">
			<use xlink:href="#SVGID_29_"  style="overflow:visible;"/>
		</clipPath>
		<g id="Layer_3_20_" style="clip-path:url(#SVGID_30_);">
			
				<use xlink:href="#FlashAICB_x2F_Layer_1_x2F__x3C_Clip_Group_0_x3E__x5F_5"  width="32.25" height="48.95" y="-48.95" style="overflow:visible;"/>
		</g>
	</g>
	<g id="Layer_4_20_">
	</g>
</symbol>
<symbol  id="FlashAICB_x2F_Layer_1_x2F__x3C_Clip_Group_0_x3E__x5F_5" viewBox="0 -48.95 32.25 48.95">
	<g id="Layer_1_7_">
	</g>
	<g>
		<defs>
			<path id="SVGID_31_" d="M32.15,0l0.05-0.35c0-1.633-1.567-3.017-4.7-4.15s-6.933-1.7-11.4-1.7S7.833-5.633,4.7-4.5
				C1.616-3.384,0.049-2.026,0-0.425V-43.85l0.05,0.2c0.4-1.5,2.133-2.767,5.2-3.8c3.033-1,6.65-1.5,10.85-1.5
				c4.167,0,7.783,0.5,10.85,1.5c3.066,1.034,4.783,2.3,5.15,3.8l0.05-0.2h0.1V0H32.15z"/>
		</defs>
		<clipPath id="SVGID_32_">
			<use xlink:href="#SVGID_31_"  style="overflow:visible;"/>
		</clipPath>
		<g id="Layer_3_5_" style="clip-path:url(#SVGID_32_);">
			<linearGradient id="SVGID_33_" gradientUnits="userSpaceOnUse" x1="0.1748" y1="-24.4751" x2="32.0248" y2="-24.4751">
				<stop  offset="0" style="stop-color:#3C3C3E"/>
				<stop  offset="0.302" style="stop-color:#FFFFFF"/>
				<stop  offset="1" style="stop-color:#231E20"/>
			</linearGradient>
			<polygon style="fill-rule:evenodd;clip-rule:evenodd;fill:url(#SVGID_33_);" points="0,0 32.25,0 32.25,-48.95 0,-48.95 			"/>
		</g>
	</g>
	<g id="Layer_4_5_">
	</g>
</symbol>
<symbol  id="FlashAICB_x2F_Layer_1_x2F__x3C_Clip_Group_0_x3E__x5F_6" viewBox="0 -46 2.2 46">
	<g id="Layer_1_8_">
	</g>
	<g>
		<defs>
			<polygon id="SVGID_34_" points="0,0 0,-46 2.2,-46 2.2,0 			"/>
		</defs>
		<clipPath id="SVGID_35_">
			<use xlink:href="#SVGID_34_"  style="overflow:visible;"/>
		</clipPath>
		<g id="Layer_3_6_" style="clip-path:url(#SVGID_35_);">
			<path style="fill-rule:evenodd;clip-rule:evenodd;" d="M2.15-0.35L2.1,0h0.1v-43.85H2.1l-0.05,0.2C1.85-44.483,1.167-45.267,0-46
				v42.75C1.433-2.35,2.15-1.383,2.15-0.35z"/>
		</g>
	</g>
	<g id="Layer_4_6_">
	</g>
</symbol>
<symbol  id="FlashAICB_x2F_Layer_1_x2F__x3C_Clip_Group_0_x3E__x5F_7" viewBox="0 -12.35 32.45 12.35">
	<g id="Layer_1_9_">
	</g>
	<g>
		<defs>
			<path id="SVGID_36_" d="M27.65-2.05c-3.133,1.133-6.933,1.7-11.4,1.7s-8.267-0.566-11.4-1.7s-4.7-2.517-4.7-4.15
				c0-1.6,1.567-2.966,4.7-4.1c3.167-1.133,6.967-1.7,11.4-1.7s8.233,0.567,11.4,1.7c3.133,1.133,4.7,2.5,4.7,4.1
				C32.35-4.567,30.783-3.183,27.65-2.05z"/>
		</defs>
		<clipPath id="SVGID_37_">
			<use xlink:href="#SVGID_36_"  style="overflow:visible;"/>
		</clipPath>
		<g id="Layer_3_7_" style="clip-path:url(#SVGID_37_);">
			<linearGradient id="SVGID_38_" gradientUnits="userSpaceOnUse" x1="16.2842" y1="-0.8501" x2="16.1842" y2="-11.2501">
				<stop  offset="0" style="stop-color:#C7C8CA"/>
				<stop  offset="1" style="stop-color:#9A9B9E"/>
			</linearGradient>
			<polygon style="fill-rule:evenodd;clip-rule:evenodd;fill:url(#SVGID_38_);" points="32.45,-0.35 32.35,-12.35 0,-12 0.15,0 			
				"/>
		</g>
	</g>
	<g id="Layer_4_7_">
	</g>
</symbol>
<symbol  id="FlashAICB_x2F_Layer_1_x2F__x3C_Clip_Group_0_x3E__x5F_8" viewBox="0 -4.4 15.3 4.4">
	<g id="Layer_1_10_">
	</g>
	<g>
		<defs>
			<polygon id="SVGID_39_" points="0,0 0,-4.4 15.3,-4.4 15.3,0 			"/>
		</defs>
		<clipPath id="SVGID_40_">
			<use xlink:href="#SVGID_39_"  style="overflow:visible;"/>
		</clipPath>
		<g id="Layer_3_8_" style="clip-path:url(#SVGID_40_);">
			<path style="fill-rule:evenodd;clip-rule:evenodd;" d="M15.3-2.2c0-0.6-0.75-1.117-2.25-1.55C11.583-4.183,9.783-4.4,7.65-4.4
				c-2.1,0-3.9,0.217-5.4,0.65S0-2.8,0-2.2c0,0.6,0.75,1.117,2.25,1.55C3.75-0.217,5.55,0,7.65,0c2.133,0,3.934-0.217,5.4-0.65
				C14.55-1.083,15.3-1.6,15.3-2.2z"/>
		</g>
	</g>
	<g id="Layer_4_8_">
	</g>
</symbol>
<symbol  id="FlashAICB_x2F_Layer_1_x2F__x3C_Clip_Group_0_x3E__x5F_9" viewBox="0 -16.8 13.55 16.8">
	<g id="Layer_1_11_">
	</g>
	<g>
		<defs>
			<polygon id="SVGID_41_" points="0,0 0,-16.8 13.55,-16.8 13.55,0 			"/>
		</defs>
		<clipPath id="SVGID_42_">
			<use xlink:href="#SVGID_41_"  style="overflow:visible;"/>
		</clipPath>
		<g id="Layer_3_9_" style="clip-path:url(#SVGID_42_);">
			<path style="fill-rule:evenodd;clip-rule:evenodd;fill:#3FACB3;" d="M12.4-0.95l1.15-0.85v-12.75c0-0.633-0.667-1.167-2-1.6
				c-1.333-0.434-2.933-0.65-4.8-0.65S3.3-16.583,2-16.15c-1.333,0.433-2,0.967-2,1.6l0.05,0.3V-1.8l1,0.8l1.9,0.6L4.4-0.15L7.55,0
				L9.9-0.25L12.4-0.95z"/>
		</g>
	</g>
	<g id="Layer_4_9_">
	</g>
</symbol>
<symbol  id="FlashAICB_x2F_Layer_1_x2F__x3C_Group_x3E_" viewBox="0 -9.872 4.702 9.872">
	<g id="Layer_1_36_">
		<g>
			
				<use xlink:href="#FlashAICB_x2F_Layer_1_x2F__x3C_Clip_Group_0_x3E__x5F_14"  width="4.702" height="9.872" y="-9.872" style="overflow:visible;"/>
		</g>
	</g>
</symbol>
<symbol  id="FlashAICB_x2F_Layer_1_x2F__x3C_Group_x3E__x5F_0" viewBox="0 -14.4 17.95 14.4">
	<g id="Layer_1_40_">
		<g>
			
				<use xlink:href="#FlashAICB_x2F_Layer_1_x2F__x3C_Clip_Group_0_x3E__x5F_18"  width="17.95" height="14.4" y="-14.4" style="overflow:visible;"/>
		</g>
	</g>
</symbol>
<symbol  id="FlashAICB_x2F_Layer_1_x2F__x3C_Group_x3E__x5F_1" viewBox="0 -16.557 7.411 16.557">
	<g id="Layer_1_35_">
		<g>
			
				<use xlink:href="#FlashAICB_x2F_Layer_1_x2F__x3C_Clip_Group_0_x3E__x5F_13"  width="7.411" height="16.557" y="-16.557" style="overflow:visible;"/>
		</g>
	</g>
</symbol>
<symbol  id="FlashAICB_x2F_Layer_1_x2F__x3C_Group_x3E__x5F_10" viewBox="-0.084 -1.318 2.547 1.33">
	<g id="Layer_1_26_">
		<g>
			
				<use xlink:href="#FlashAICB_x2F_Layer_1_x2F__x3C_Clip_Group_0_x3E__x5F_2"  width="2.547" height="1.33" x="-0.084" y="-1.318" style="overflow:visible;"/>
		</g>
	</g>
</symbol>
<symbol  id="FlashAICB_x2F_Layer_1_x2F__x3C_Group_x3E__x5F_11" viewBox="0 -4.033 12.65 4.033">
	<g id="Layer_1_25_">
		<g>
			
				<use xlink:href="#FlashAICB_x2F_Layer_1_x2F__x3C_Clip_Group_0_x3E__x5F_1"  width="12.65" height="4.033" y="-4.033" style="overflow:visible;"/>
		</g>
	</g>
</symbol>
<symbol  id="FlashAICB_x2F_Layer_1_x2F__x3C_Group_x3E__x5F_12" viewBox="0 -59.35 14.8 59.35">
	<g id="Layer_1_41_">
		<g>
			
				<use xlink:href="#FlashAICB_x2F_Layer_1_x2F__x3C_Clip_Group_0_x3E_"  width="14.8" height="59.35" y="-59.35" style="overflow:visible;"/>
		</g>
	</g>
</symbol>
<symbol  id="FlashAICB_x2F_Layer_1_x2F__x3C_Group_x3E__x5F_1_x5F_1" viewBox="0 -10.1 11.45 10.1">
	<g id="Layer_1_39_">
		<g>
			
				<use xlink:href="#FlashAICB_x2F_Layer_1_x2F__x3C_Clip_Group_0_x3E__x5F_17"  width="11.45" height="10.1" y="-10.1" style="overflow:visible;"/>
		</g>
	</g>
</symbol>
<symbol  id="FlashAICB_x2F_Layer_1_x2F__x3C_Group_x3E__x5F_2" viewBox="0 -14 2.85 14">
	<g id="Layer_1_34_">
		<g>
			
				<use xlink:href="#FlashAICB_x2F_Layer_1_x2F__x3C_Clip_Group_0_x3E__x5F_12"  width="2.85" height="14" y="-14" style="overflow:visible;"/>
		</g>
	</g>
</symbol>
<symbol  id="FlashAICB_x2F_Layer_1_x2F__x3C_Group_x3E__x5F_2_x5F_0" viewBox="0 -32.85 44.75 32.85">
	<g id="Layer_1_38_">
		<g>
			
				<use xlink:href="#FlashAICB_x2F_Layer_1_x2F__x3C_Clip_Group_0_x3E__x5F_16"  width="44.75" height="32.85" y="-32.85" style="overflow:visible;"/>
		</g>
	</g>
</symbol>
<symbol  id="FlashAICB_x2F_Layer_1_x2F__x3C_Group_x3E__x5F_3" viewBox="0 -13.2 0.7 13.2">
	<g id="Layer_1_33_">
		<g>
			
				<use xlink:href="#FlashAICB_x2F_Layer_1_x2F__x3C_Clip_Group_0_x3E__x5F_11"  width="0.7" height="13.2" y="-13.2" style="overflow:visible;"/>
		</g>
	</g>
</symbol>
<symbol  id="FlashAICB_x2F_Layer_1_x2F__x3C_Group_x3E__x5F_3_x5F_0" viewBox="0 -32.95 44.85 32.95">
	<g id="Layer_1_37_">
		<g>
			
				<use xlink:href="#FlashAICB_x2F_Layer_1_x2F__x3C_Clip_Group_0_x3E__x5F_15"  width="44.85" height="32.95" y="-32.95" style="overflow:visible;"/>
		</g>
	</g>
</symbol>
<symbol  id="FlashAICB_x2F_Layer_1_x2F__x3C_Group_x3E__x5F_4" viewBox="0 -14 4.2 14">
	<g id="Layer_1_32_">
		<g>
			
				<use xlink:href="#FlashAICB_x2F_Layer_1_x2F__x3C_Clip_Group_0_x3E__x5F_10"  width="4.2" height="14" y="-14" style="overflow:visible;"/>
		</g>
	</g>
</symbol>
<symbol  id="FlashAICB_x2F_Layer_1_x2F__x3C_Group_x3E__x5F_5" viewBox="0 -16.8 13.55 16.8">
	<g id="Layer_1_31_">
		<g>
			
				<use xlink:href="#FlashAICB_x2F_Layer_1_x2F__x3C_Clip_Group_0_x3E__x5F_9"  width="13.55" height="16.8" y="-16.8" style="overflow:visible;"/>
		</g>
	</g>
</symbol>
<symbol  id="FlashAICB_x2F_Layer_1_x2F__x3C_Group_x3E__x5F_6" viewBox="0 -4.4 15.3 4.4">
	<g id="Layer_1_30_">
		<g>
			
				<use xlink:href="#FlashAICB_x2F_Layer_1_x2F__x3C_Clip_Group_0_x3E__x5F_8"  width="15.3" height="4.4" y="-4.4" style="overflow:visible;"/>
		</g>
	</g>
</symbol>
<symbol  id="FlashAICB_x2F_Layer_1_x2F__x3C_Group_x3E__x5F_7" viewBox="0 -46 2.2 46">
	<g id="Layer_1_29_">
		<g>
			
				<use xlink:href="#FlashAICB_x2F_Layer_1_x2F__x3C_Clip_Group_0_x3E__x5F_6"  width="2.2" height="46" y="-46" style="overflow:visible;"/>
		</g>
	</g>
</symbol>
<symbol  id="FlashAICB_x2F_Layer_1_x2F__x3C_Group_x3E__x5F_8" viewBox="0 -48.95 32.25 48.95">
	<g id="Layer_1_42_">
		<g>
			
				<use xlink:href="#FlashAICB_x2F_Layer_1_x2F__x3C_Clip_Group_0_x3E__x5F_4"  width="32.25" height="48.95" y="-48.95" style="overflow:visible;"/>
		</g>
	</g>
</symbol>
<symbol  id="FlashAICB_x2F_Layer_1_x2F__x3C_Group_x3E__x5F_9" viewBox="0 -4.49 2.2 4.518">
	<g id="Layer_1_27_">
		<g>
			
				<use xlink:href="#FlashAICB_x2F_Layer_1_x2F__x3C_Clip_Group_0_x3E__x5F_3"  width="2.2" height="4.518" y="-4.49" style="overflow:visible;"/>
		</g>
	</g>
</symbol>
<symbol  id="FlashAICB_x5F_0_x2F_Isolation_Mode_x2F__x3C_Path_x3E_" viewBox="0 -118.65 118.85 118.65">
	<g id="Layer_1_2_">
		
			<radialGradient id="SVGID_43_" cx="59.4248" cy="-59.3252" r="59.375" gradientTransform="matrix(1 0 0 -1 0 -118.6504)" gradientUnits="userSpaceOnUse">
			<stop  offset="0" style="stop-color:#FABD8D"/>
			<stop  offset="0.0196" style="stop-color:#F9BA8B"/>
			<stop  offset="0.2471" style="stop-color:#F29C76"/>
			<stop  offset="0.4431" style="stop-color:#EE8A69"/>
			<stop  offset="0.5843" style="stop-color:#ED8465"/>
			<stop  offset="0.5882" style="stop-color:#EC8264;stop-opacity:0.9922"/>
			<stop  offset="0.6745" style="stop-color:#E06B56;stop-opacity:0.902"/>
			<stop  offset="0.7686" style="stop-color:#D75A4C;stop-opacity:0.8392"/>
			<stop  offset="0.8706" style="stop-color:#D15046;stop-opacity:0.8"/>
			<stop  offset="1" style="stop-color:#D04D44;stop-opacity:0.7882"/>
		</radialGradient>
		<path style="fill-rule:evenodd;clip-rule:evenodd;fill:url(#SVGID_43_);" d="M118.85-59.35c0-16.367-5.8-30.35-17.4-41.95
			c-11.6-11.567-25.617-17.35-42.05-17.35c-16.4,0-30.4,5.783-42,17.35C5.8-89.7,0-75.717,0-59.35c0,16.4,5.8,30.383,17.4,41.95
			C29-5.8,43,0,59.4,0c16.434,0,30.45-5.8,42.05-17.4C113.05-28.967,118.85-42.95,118.85-59.35z"/>
	</g>
</symbol>
<symbol  id="FlashAICB_x5F_1_x2F_Layer_106_x2F__x3C_Path_x3E_" viewBox="0 -57.1 118.65 57.1">
	<g id="Layer_1_23_">
		
			<radialGradient id="SVGID_44_" cx="59.3252" cy="-28.5498" r="46.554" gradientTransform="matrix(1 0 0 -1 0 -57.0996)" gradientUnits="userSpaceOnUse">
			<stop  offset="0" style="stop-color:#C9EEE7;stop-opacity:0"/>
			<stop  offset="0.1294" style="stop-color:#C3E4DD;stop-opacity:0.1216"/>
			<stop  offset="0.3529" style="stop-color:#B3C7C4;stop-opacity:0.451"/>
			<stop  offset="0.6431" style="stop-color:#9A9A9A;stop-opacity:0.9843"/>
			<stop  offset="0.651" style="stop-color:#999999"/>
		</radialGradient>
		<path style="fill-rule:evenodd;clip-rule:evenodd;fill:url(#SVGID_44_);" d="M95.45-30.35c10.733,7.7,18.3,17.733,22.7,30.1
			l0.5,0.25c-0.566-15.9-6.6-29.383-18.1-40.45C89.05-51.55,75.3-57.1,59.3-57.1c-15.733,0-29.316,5.367-40.75,16.1
			C7.183-30.3,1-17.183,0-1.65c4.6-12,12.183-21.7,22.75-29.1C33.55-38.317,45.567-42.1,58.8-42.1
			C72.3-42.1,84.517-38.183,95.45-30.35z"/>
	</g>
</symbol>
<symbol  id="FlashAICB_x5F_1_x2F_Layer_106_x2F__x3C_Path_x3E__x5F_1" viewBox="0 -61.294 110.05 61.294">
	<g id="Layer_1_22_">
		<path style="fill-rule:evenodd;clip-rule:evenodd;fill:#FFFFFF;" d="M106.5-34.35c2.367-5.633,3.55-10.933,3.55-15.9
			s-1.45-8.083-4.35-9.35c-2.333-1.066-6.25-1.066-11.75,0c-7.267,1.767-13.1,3.117-17.5,4.05c-8,1.7-15.133,2.55-21.4,2.55
			c-6.333,0-13.483-0.917-21.45-2.75c-8.333-2.2-14.15-3.683-17.45-4.45c-5.566-1.267-9.5-1.433-11.8-0.5C1.45-59.5,0-56.433,0-51.5
			c0,5.5,1.167,11.167,3.5,17C6-28.333,9.483-22.767,13.95-17.8C24.683-5.933,38.383,0,55.05,0c16.434,0,30.1-5.983,41-17.95
			C100.517-22.883,104-28.35,106.5-34.35z"/>
	</g>
</symbol>
<symbol  id="FlashAICB_x5F_1_x2F_Layer_106_x2F__x3C_Path_x3E__x5F_2" viewBox="0 -55.75 110.05 55.75">
	<g id="Layer_1_21_">
		
			<linearGradient id="SVGID_45_" gradientUnits="userSpaceOnUse" x1="16165.3574" y1="-53.8804" x2="16221.1328" y2="-53.8804" gradientTransform="matrix(1.792918e-005 1 -1 -0.001 0.8545 -16221.1064)">
			<stop  offset="0.1294" style="stop-color:#E4B8B1"/>
			<stop  offset="0.9255" style="stop-color:#FFFFFF"/>
		</linearGradient>
		<path style="fill-rule:evenodd;clip-rule:evenodd;fill:url(#SVGID_45_);" d="M96.05-17.95c4.467-4.933,7.95-10.4,10.45-16.4
			c2.367-5.633,3.55-10.933,3.55-15.9c0-1.633-0.167-3.117-0.5-4.45c-1.867,11.034-7.267,20.85-16.2,29.45
			c-10.533,10.133-23.3,15.2-38.3,15.2c-15.267,0-28.117-5.05-38.55-15.15C7.533-33.9,2.183-44.083,0.45-55.75
			C0.15-54.617,0-53.2,0-51.5c0,5.5,1.167,11.167,3.5,17C6-28.333,9.483-22.767,13.95-17.8C24.683-5.933,38.383,0,55.05,0
			C71.483,0,85.15-5.983,96.05-17.95z"/>
	</g>
</symbol>
<g>
	<path style="fill-rule:evenodd;clip-rule:evenodd;fill:#66757A;" d="M145.8,25.9c7.9,7.867,14.017,16.9,18.351,27.1
		c4.467,10.566,6.699,21.633,6.699,33.2c0,11.533-2.232,22.583-6.699,33.149c-4.334,10.2-10.45,19.25-18.351,27.15
		c-7.866,7.866-16.899,13.967-27.1,18.3c-10.566,4.467-21.634,6.7-33.2,6.7s-22.633-2.233-33.2-6.7
		c-10.2-4.333-19.233-10.434-27.1-18.3c-7.9-7.9-14.017-16.95-18.35-27.15c-4.467-10.566-6.7-21.616-6.7-33.149
		c0-11.567,2.233-22.634,6.7-33.2C11.184,42.8,17.3,33.767,25.2,25.9C33.067,18,42.1,11.883,52.3,7.55
		c10.567-4.466,21.634-6.7,33.2-6.7s22.634,2.233,33.2,6.7C128.9,11.883,137.934,18,145.8,25.9z"/>
	
		<linearGradient id="SVGID_46_" gradientUnits="userSpaceOnUse" x1="-172.1846" y1="85.5" x2="-1.5352" y2="85.5" gradientTransform="matrix(5.859089e-006 -1 1 -0.001 1.466054e-004 -4.747650e-005)">
		<stop  offset="0.0196" style="stop-color:#343745"/>
		<stop  offset="0.251" style="stop-color:#6C6F75;stop-opacity:0.6863"/>
		<stop  offset="0.4941" style="stop-color:#A0A3A3;stop-opacity:0.3922"/>
		<stop  offset="0.7098" style="stop-color:#C7C9C5;stop-opacity:0.1765"/>
		<stop  offset="0.8824" style="stop-color:#DEE0D9;stop-opacity:0.0471"/>
		<stop  offset="0.9882" style="stop-color:#E7E9E1;stop-opacity:0"/>
	</linearGradient>
	<path style="fill-rule:evenodd;clip-rule:evenodd;fill:url(#SVGID_46_);" d="M145.8,26.5c7.9,7.867,14.017,16.9,18.351,27.1
		c4.467,10.566,6.699,21.633,6.699,33.2c0,11.533-2.232,22.583-6.699,33.15c-4.334,10.2-10.45,19.25-18.351,27.149
		c-7.866,7.867-16.899,13.967-27.1,18.301c-10.566,4.466-21.634,6.699-33.2,6.699s-22.633-2.233-33.2-6.699
		c-10.2-4.334-19.233-10.434-27.1-18.301C17.3,139.2,11.184,130.15,6.85,119.95c-4.467-10.567-6.7-21.617-6.7-33.15
		c0-11.566,2.233-22.633,6.7-33.2C11.184,43.4,17.3,34.367,25.2,26.5c7.867-7.9,16.9-14.017,27.1-18.35
		c10.567-4.467,21.634-6.7,33.2-6.7s22.634,2.233,33.2,6.7C128.9,12.483,137.934,18.6,145.8,26.5z"/>
	<g>
		<g>
			
				<linearGradient id="SVGID_47_" gradientUnits="userSpaceOnUse" x1="-158.2852" y1="85.501" x2="-14.2349" y2="85.501" gradientTransform="matrix(6.939625e-006 -1 1 -0.001 1.071970e-004 4.449275e-004)">
				<stop  offset="0" style="stop-color:#B8D1DE"/>
				<stop  offset="0.0235" style="stop-color:#B7CEDB;stop-opacity:0.9647"/>
				<stop  offset="0.2784" style="stop-color:#AAB0BE;stop-opacity:0.6353"/>
				<stop  offset="0.502" style="stop-color:#A29EAD;stop-opacity:0.4314"/>
				<stop  offset="0.6549" style="stop-color:#9F97A7;stop-opacity:0.3569"/>
				<stop  offset="1" style="stop-color:#403D5A"/>
			</linearGradient>
			<path style="fill-rule:evenodd;clip-rule:evenodd;fill:url(#SVGID_47_);" d="M151.9,58.15c3.767,8.934,5.649,18.284,5.649,28.05
				s-1.883,19.116-5.649,28.05c-3.667,8.6-8.817,16.233-15.45,22.9c-6.634,6.633-14.267,11.767-22.9,15.399
				c-8.934,3.767-18.283,5.65-28.05,5.65c-19.9,0-36.883-7.017-50.95-21.05c-6.633-6.667-11.783-14.301-15.45-22.9
				c-3.767-8.934-5.65-18.283-5.65-28.05s1.883-19.117,5.65-28.05c3.667-8.633,8.816-16.267,15.45-22.9
				c14.067-14.067,31.05-21.1,50.95-21.1c9.767,0,19.116,1.883,28.05,5.65c8.634,3.667,16.267,8.817,22.9,15.45
				C143.083,41.883,148.233,49.517,151.9,58.15z"/>
		</g>
	</g>
	<g>
		
			<linearGradient id="SVGID_48_" gradientUnits="userSpaceOnUse" x1="-152.0352" y1="85.5259" x2="-20.335" y2="85.5259" gradientTransform="matrix(7.590133e-006 -1 1 -0.001 9.770805e-006 4.449275e-004)">
			<stop  offset="0.0353" style="stop-color:#79302B"/>
			<stop  offset="0.5843" style="stop-color:#F56467"/>
			<stop  offset="1" style="stop-color:#E3B47B"/>
		</linearGradient>
		<path style="fill-rule:evenodd;clip-rule:evenodd;fill:url(#SVGID_48_);" d="M151.4,86.15c0,18.166-6.434,33.666-19.301,46.5
			c-12.899,12.866-28.433,19.3-46.6,19.3c-18.167,0-33.683-6.434-46.55-19.3c-12.867-12.867-19.3-28.367-19.3-46.5
			c0-18.167,6.434-33.7,19.3-46.601c12.867-12.867,28.383-19.3,46.55-19.3c18.167,0,33.7,6.433,46.6,19.3
			C144.967,52.45,151.4,67.983,151.4,86.15z"/>
		<path style="fill-rule:evenodd;clip-rule:evenodd;fill:#4C0D16;" d="M150.55,86.15c0-17.967-6.35-33.3-19.05-46
			c-12.7-12.7-28.033-19.05-46-19.05s-33.3,6.35-46,19.05c-12.7,12.7-19.05,28.034-19.05,46c0,17.933,6.35,33.25,19.05,45.949
			c12.7,12.7,28.033,19.051,46,19.051s33.3-6.351,46-19.051C144.2,119.434,150.55,104.116,150.55,86.15z M111.05,24.5
			c8.134,3.367,15.351,8.183,21.65,14.45c6.3,6.3,11.133,13.517,14.5,21.65c3.333,8.1,5,16.617,5,25.55c0,8.899-1.667,17.399-5,25.5
			c-3.367,8.133-8.2,15.333-14.5,21.6c-6.3,6.3-13.517,11.133-21.65,14.5c-8.1,3.366-16.616,5.05-25.55,5.05
			c-8.9,0-17.4-1.684-25.5-5.05c-8.133-3.367-15.35-8.2-21.65-14.5c-6.3-6.267-11.133-13.467-14.5-21.6
			c-3.367-8.101-5.05-16.601-5.05-25.5c0-8.934,1.684-17.45,5.05-25.55c3.367-8.133,8.2-15.35,14.5-21.65
			C44.65,32.683,51.867,27.867,60,24.5c8.1-3.367,16.6-5.05,25.5-5.05C94.4,19.45,102.917,21.133,111.05,24.5z"/>
	</g>
</g>
<path style="fill-rule:evenodd;clip-rule:evenodd;fill:#FAE1E7;" d="M105.4,74.15v31.65c3.1,0.467,5.683,1.717,7.75,3.75
	c2.1,2.066,3.366,4.65,3.8,7.75c0.633,4.267-0.4,8.351-3.101,12.25c-3.1,4.467-7.767,7.65-14,9.55
	c-3.866,1.134-7.416,1.7-10.649,1.7c-5.8,0-10.6-1.667-14.4-5l-1.8-0.5c-0.833-0.267-1.633-0.583-2.4-0.95l-2.1-1.199l-1.3-1.051
	l-1.4-1.699c-0.667-0.834-1-1.768-1-2.801v-8c-0.933-0.699-1.667-1.649-2.2-2.85c-0.534-1.233-0.8-2.6-0.8-4.1
	s0.267-2.867,0.8-4.101c0.533-1.233,1.267-2.2,2.2-2.899v-0.95c-1.8-2.2-2.7-5.134-2.7-8.8c0-3.801,0.9-6.75,2.7-8.851v-12.9
	c0-0.6,0.1-1.15,0.3-1.65c0.8-2.467,2.85-4.4,6.15-5.8v-4.25c0-0.7,0.183-1.384,0.55-2.05c1.3-2.8,4.817-4.2,10.55-4.2
	c6.266,0,9.883,1.65,10.85,4.95c0.1,0.267,0.149,0.534,0.149,0.8l0.051,0.6v2.5c6.3,1.233,10.133,3.583,11.5,7.05
	C105.233,72.767,105.4,73.45,105.4,74.15z"/>
<use xlink:href="#FlashAICB_x5F_0_x2F_Isolation_Mode_x2F__x3C_Path_x3E_"  width="118.85" height="118.65" y="-118.65" transform="matrix(1 0 0 -1 26.6001 24.8999)" style="overflow:visible;opacity:0.9102;enable-background:new    ;"/>
<g>
	<path style="fill-rule:evenodd;clip-rule:evenodd;fill:#FDD6CA;" d="M65.35,40.35c0,1.833-0.934,4-2.8,6.5
		c-1.033,1.367-2.633,3.267-4.8,5.7h5.8c1.633,0,2.45,0.7,2.45,2.1c0,1.367-0.767,2.05-2.3,2.05H53.1c-1.633,0-2.45-0.684-2.45-2.05
		c0-0.533,0.25-1.083,0.75-1.65c3.633-4,6.267-7.167,7.9-9.5c0.733-1.067,1.1-2.05,1.1-2.95c0-0.667-0.217-1.233-0.65-1.7
		c-0.467-0.5-1.017-0.75-1.65-0.75c-1.267,0-2.167,0.867-2.7,2.6c-0.533,1.7-1.283,2.55-2.25,2.55c-0.733,0-1.3-0.233-1.7-0.7
		c-0.4-0.4-0.6-0.933-0.6-1.6c0-1.967,0.75-3.667,2.25-5.1c1.5-1.4,3.233-2.1,5.2-2.1c2,0,3.667,0.6,5,1.8
		C64.667,36.783,65.35,38.383,65.35,40.35z"/>
	<path style="fill-rule:evenodd;clip-rule:evenodd;fill:#FDD6CA;" d="M82.2,37.65c1.2,2.1,1.8,4.684,1.8,7.75c0,3.1-0.6,5.7-1.8,7.8
		c-1.5,2.6-3.7,3.9-6.6,3.9c-2.934,0-5.15-1.3-6.65-3.9c-1.2-2.1-1.8-4.7-1.8-7.8c0-3.066,0.6-5.65,1.8-7.75
		c1.5-2.6,3.716-3.9,6.65-3.9C78.5,33.75,80.7,35.05,82.2,37.65z M79.05,45.4c0-4.9-1.15-7.35-3.45-7.35c-2.3,0-3.45,2.45-3.45,7.35
		c0,4.934,1.15,7.4,3.45,7.4C77.9,52.8,79.05,50.333,79.05,45.4z"/>
	<path style="fill-rule:evenodd;clip-rule:evenodd;fill:#FDD6CA;" d="M97.25,45.4c0-4.9-1.15-7.35-3.45-7.35s-3.45,2.45-3.45,7.35
		c0,4.934,1.15,7.4,3.45,7.4S97.25,50.333,97.25,45.4z M93.8,57.1c-2.899,0-5.1-1.3-6.6-3.9c-1.2-2.1-1.8-4.7-1.8-7.8
		c0-3.066,0.6-5.65,1.8-7.75c1.5-2.6,3.7-3.9,6.6-3.9c2.9,0,5.101,1.3,6.601,3.9c1.199,2.1,1.8,4.684,1.8,7.75
		c0,3.1-0.601,5.7-1.8,7.8C98.9,55.8,96.7,57.1,93.8,57.1z"/>
	<path style="fill-rule:evenodd;clip-rule:evenodd;fill:#FDD6CA;" d="M117.3,39.55c0,2.133-0.866,3.75-2.6,4.85
		c1.166,0.533,2.1,1.3,2.8,2.3c0.733,1.033,1.1,2.167,1.1,3.4c0,1.933-0.767,3.583-2.3,4.95c-1.566,1.367-3.467,2.05-5.7,2.05
		c-2.199,0-4.066-0.684-5.6-2.05c-1.366-1.2-2.05-2.5-2.05-3.9c0-0.6,0.267-1.117,0.8-1.55c0.5-0.4,1.05-0.6,1.65-0.6
		c0.6,0,1.3,0.633,2.1,1.9c0.767,1.233,1.816,1.85,3.15,1.85c0.833,0,1.533-0.283,2.1-0.85c0.6-0.6,0.9-1.316,0.9-2.15
		c0-1.533-0.9-2.433-2.7-2.7c-1.8-0.267-2.7-1-2.7-2.2c0-1.1,0.75-1.85,2.25-2.25s2.25-1.184,2.25-2.35c0-0.633-0.2-1.133-0.6-1.5
		c-0.434-0.433-1-0.65-1.7-0.65c-1.066,0-1.967,0.533-2.7,1.6c-0.733,1.033-1.417,1.55-2.05,1.55c-0.601,0-1.101-0.25-1.5-0.75
		c-0.367-0.433-0.55-0.967-0.55-1.6c0-1.267,0.716-2.433,2.149-3.5c1.434-1.1,3.017-1.65,4.75-1.65c2.101,0,3.8,0.667,5.101,2
		C116.75,36.883,117.3,38.15,117.3,39.55z"/>
</g>
<g>
	
		<linearGradient id="SVGID_49_" gradientUnits="userSpaceOnUse" x1="-55.8135" y1="58.3271" x2="-32.8579" y2="58.3271" gradientTransform="matrix(4.352557e-005 -1 1 -0.001 -1.604094e-004 -4.842016e-005)">
		<stop  offset="0.2902" style="stop-color:#330202"/>
		<stop  offset="1" style="stop-color:#E11511"/>
	</linearGradient>
	<path style="fill-rule:evenodd;clip-rule:evenodd;fill:url(#SVGID_49_);" d="M65.35,39.4c0,1.833-0.934,3.983-2.8,6.45
		c-1.033,1.4-2.633,3.3-4.8,5.7h5.8c1.633,0,2.45,0.7,2.45,2.1s-0.767,2.1-2.3,2.1H53.1c-1.633,0-2.45-0.7-2.45-2.1
		c0-0.5,0.25-1.033,0.75-1.6c3.633-4,6.267-7.167,7.9-9.5c0.733-1.066,1.1-2.05,1.1-2.95c0-0.667-0.217-1.233-0.65-1.7
		c-0.467-0.5-1.017-0.75-1.65-0.75c-1.267,0-2.167,0.867-2.7,2.6c-0.533,1.7-1.283,2.55-2.25,2.55c-0.733,0-1.3-0.233-1.7-0.7
		c-0.4-0.4-0.6-0.934-0.6-1.6c0-1.967,0.75-3.667,2.25-5.1c1.5-1.4,3.233-2.1,5.2-2.1c2,0,3.667,0.6,5,1.8
		C64.667,35.833,65.35,37.433,65.35,39.4z"/>
	
		<linearGradient id="SVGID_50_" gradientUnits="userSpaceOnUse" x1="-56.2007" y1="75.5771" x2="-32.8506" y2="75.5771" gradientTransform="matrix(4.282656e-005 -1 1 -0.001 2.691853e-005 4.449275e-004)">
		<stop  offset="0.2902" style="stop-color:#330202"/>
		<stop  offset="1" style="stop-color:#E11511"/>
	</linearGradient>
	<path style="fill-rule:evenodd;clip-rule:evenodd;fill:url(#SVGID_50_);" d="M84,44.45c0,3.1-0.6,5.7-1.8,7.8
		c-1.5,2.6-3.7,3.9-6.6,3.9c-2.934,0-5.15-1.3-6.65-3.9c-1.2-2.1-1.8-4.7-1.8-7.8c0-3.067,0.6-5.65,1.8-7.75
		c1.5-2.6,3.716-3.9,6.65-3.9c2.9,0,5.1,1.3,6.6,3.9C83.4,38.8,84,41.383,84,44.45z M75.6,37.1c-2.3,0-3.45,2.45-3.45,7.35
		c0,4.933,1.15,7.4,3.45,7.4c2.3,0,3.45-2.467,3.45-7.4C79.05,39.55,77.9,37.1,75.6,37.1z"/>
	
		<linearGradient id="SVGID_51_" gradientUnits="userSpaceOnUse" x1="-56.2188" y1="93.8027" x2="-32.8687" y2="93.8027" gradientTransform="matrix(4.282656e-005 -1 1 -0.001 2.691853e-005 4.449275e-004)">
		<stop  offset="0.2902" style="stop-color:#330202"/>
		<stop  offset="1" style="stop-color:#E11511"/>
	</linearGradient>
	<path style="fill-rule:evenodd;clip-rule:evenodd;fill:url(#SVGID_51_);" d="M97.25,44.45c0-4.9-1.15-7.35-3.45-7.35
		s-3.45,2.45-3.45,7.35c0,4.933,1.15,7.4,3.45,7.4S97.25,49.383,97.25,44.45z M93.8,56.15c-2.899,0-5.1-1.3-6.6-3.9
		c-1.2-2.1-1.8-4.7-1.8-7.8c0-3.067,0.6-5.65,1.8-7.75c1.5-2.6,3.7-3.9,6.6-3.9c2.9,0,5.101,1.3,6.601,3.9
		c1.199,2.1,1.8,4.683,1.8,7.75c0,3.1-0.601,5.7-1.8,7.8C98.9,54.85,96.7,56.15,93.8,56.15z"/>
	
		<linearGradient id="SVGID_52_" gradientUnits="userSpaceOnUse" x1="-56.2358" y1="110.7773" x2="-32.8857" y2="110.7773" gradientTransform="matrix(4.282656e-005 -1 1 -0.001 2.691853e-005 4.449275e-004)">
		<stop  offset="0.2902" style="stop-color:#330202"/>
		<stop  offset="1" style="stop-color:#E11511"/>
	</linearGradient>
	<path style="fill-rule:evenodd;clip-rule:evenodd;fill:url(#SVGID_52_);" d="M117.3,38.6c0,2.133-0.866,3.75-2.6,4.85
		c1.166,0.533,2.1,1.3,2.8,2.3c0.733,1.033,1.1,2.167,1.1,3.4c0,1.934-0.767,3.583-2.3,4.95c-1.566,1.367-3.467,2.05-5.7,2.05
		c-2.199,0-4.066-0.683-5.6-2.05c-1.366-1.2-2.05-2.5-2.05-3.9c0-0.6,0.267-1.117,0.8-1.55c0.5-0.4,1.05-0.6,1.65-0.6
		c0.6,0,1.3,0.617,2.1,1.85c0.767,1.233,1.816,1.85,3.15,1.85c0.833,0,1.533-0.283,2.1-0.85c0.6-0.566,0.9-1.267,0.9-2.1
		c0-1.533-0.9-2.433-2.7-2.7s-2.7-1-2.7-2.2c0-1.1,0.75-1.85,2.25-2.25s2.25-1.183,2.25-2.35c0-0.633-0.2-1.133-0.6-1.5
		c-0.434-0.433-1-0.65-1.7-0.65c-1.066,0-1.967,0.517-2.7,1.55c-0.733,1.033-1.417,1.55-2.05,1.55c-0.634,0-1.134-0.233-1.5-0.7
		c-0.367-0.466-0.55-1.017-0.55-1.65c0-1.233,0.716-2.383,2.149-3.45c1.434-1.1,3.017-1.65,4.75-1.65c2.101,0,3.8,0.65,5.101,1.95
		C116.75,35.883,117.3,37.167,117.3,38.6z"/>
</g>
<linearGradient id="SVGID_53_" gradientUnits="userSpaceOnUse" x1="-139.8389" y1="89.4668" x2="-55.2822" y2="89.4668" gradientTransform="matrix(1.181684e-005 -1 1 -0.001 9.598963e-005 4.449275e-004)">
	<stop  offset="0.2824" style="stop-color:#B63C48"/>
	<stop  offset="0.2863" style="stop-color:#B73D48"/>
	<stop  offset="0.702" style="stop-color:#E28F67"/>
	<stop  offset="0.8941" style="stop-color:#F2AF74"/>
</linearGradient>
<path style="fill-rule:evenodd;clip-rule:evenodd;fill:url(#SVGID_53_);" d="M105.4,73.1v31.65c3.1,0.467,5.683,1.733,7.75,3.8
	c2.1,2.066,3.366,4.65,3.8,7.75c0.633,4.267-0.4,8.351-3.101,12.25c-3.1,4.467-7.767,7.634-14,9.5c-3.699,1.134-7.25,1.7-10.649,1.7
	c-5.833,0-10.634-1.65-14.4-4.95l-1.6-0.45l-0.2-0.1c-0.333-0.1-1.133-0.4-2.4-0.9l-1.1-0.6l-0.2-0.15l-0.8-0.449l-2.2-2.051
	l-0.5-0.75c-0.667-0.767-1-1.683-1-2.75v-8.05c-0.933-0.667-1.667-1.616-2.2-2.85c-0.534-1.233-0.8-2.601-0.8-4.101
	s0.267-2.85,0.8-4.05c0.533-1.233,1.267-2.2,2.2-2.899v-0.95c-1.8-2.2-2.7-5.15-2.7-8.851c0-3.733,0.9-6.683,2.7-8.85V73.1
	c0-0.534,0.1-1.083,0.3-1.65c0.8-2.434,2.85-4.367,6.15-5.8v-4.2c0-0.733,0.183-1.417,0.55-2.05c1.267-2.8,4.784-4.2,10.55-4.2
	c6.266,0,9.883,1.65,10.85,4.95l0.149,0.75l0.051,3.15c6.3,1.233,10.133,3.567,11.5,7C105.233,71.783,105.4,72.467,105.4,73.1z"/>
<path style="fill-rule:evenodd;clip-rule:evenodd;fill:none;stroke:#FAE1E7;stroke-width:0.25;" d="M105.4,73.1
	c0-0.633-0.167-1.317-0.5-2.05c-1.367-3.433-5.2-5.767-11.5-7L93.35,60.9L93.2,60.15c-0.967-3.3-4.584-4.95-10.85-4.95
	c-5.767,0-9.284,1.4-10.55,4.2c-0.367,0.633-0.55,1.317-0.55,2.05v4.2c-3.3,1.434-5.35,3.367-6.15,5.8
	c-0.2,0.566-0.3,1.116-0.3,1.65V86c-1.8,2.167-2.7,5.116-2.7,8.85c0,3.7,0.9,6.65,2.7,8.851v0.95
	c-0.933,0.699-1.667,1.666-2.2,2.899c-0.534,1.2-0.8,2.55-0.8,4.05s0.267,2.867,0.8,4.101c0.533,1.233,1.267,2.183,2.2,2.85v8.05
	c0,1.067,0.333,1.983,1,2.75l0.5,0.75l2.2,2.051l0.8,0.449l0.2,0.15l1.1,0.6c1.267,0.5,2.066,0.801,2.4,0.9l0.2,0.1l1.6,0.45
	c3.767,3.3,8.567,4.95,14.4,4.95c3.399,0,6.95-0.566,10.649-1.7c6.233-1.866,10.9-5.033,14-9.5c2.7-3.899,3.733-7.983,3.101-12.25
	c-0.434-3.1-1.7-5.684-3.8-7.75c-2.067-2.066-4.65-3.333-7.75-3.8V73.1z"/>
<path style="fill-rule:evenodd;clip-rule:evenodd;fill:#4C0D16;" d="M101.65,72.6c0.133,0.2,0.199,0.367,0.199,0.5v35.1l0.551-0.05
	c2.933-0.134,5.416,0.6,7.449,2.199c2,1.567,3.2,3.717,3.601,6.45c0.5,3.467-0.417,6.8-2.75,10c-2.634,3.634-6.601,6.25-11.9,7.851
	c-3.333,1.033-6.533,1.55-9.6,1.55c-2.566,0-4.95-0.4-7.15-1.2c-2.2-0.8-4.05-1.95-5.55-3.45l-2.2-0.6l-0.25-0.05
	c-0.833-0.301-1.466-0.567-1.9-0.801L72,130.05l-1.45-0.85l-0.9-0.7l-0.5-0.55l-0.3-0.45l-0.15-0.15v-0.1
	c-0.233-0.167-0.35-0.384-0.35-0.65v-10.35l-0.35-0.1c-0.767-0.034-1.4-0.483-1.9-1.351c-0.5-0.866-0.75-1.934-0.75-3.2
	s0.25-2.316,0.75-3.149c0.533-0.867,1.183-1.317,1.95-1.351l0.3-0.1v-4.8c-1.8-1.367-2.7-3.817-2.7-7.351
	c0-3.566,0.9-6.017,2.7-7.35V73.1l0.1-0.4c0.533-1.9,2.65-3.4,6.35-4.5v-6.75c0-0.2,0.05-0.35,0.15-0.45
	c0.366-0.934,1.633-1.583,3.8-1.95c1.133-0.2,2.333-0.3,3.6-0.3c1.333,0,2.583,0.1,3.75,0.3c2.2,0.4,3.434,1.1,3.7,2.1l0.05,0.25
	v5.7c3.233,0.367,5.917,1.05,8.051,2.05C100,70.117,101.25,71.267,101.65,72.6z"/>
<path style="fill-rule:evenodd;clip-rule:evenodd;fill:#FFFFFF;" d="M100.85,73.1h0.101v53.5h-0.101V126.4
	c-0.399,1.466-2.1,2.683-5.1,3.649c-3.033,1-6.6,1.5-10.7,1.5l-4.4-0.2l-0.15-0.05l-3.6-0.6l-0.4-0.05l-2.15-0.601l-1.85-0.75
	l-1.7-1l-0.55-0.399l-0.65-0.851l-0.1-0.1l-0.2-0.55l-0.05,0.199v-11.05l-1.1-0.3c-0.533,0-0.983-0.35-1.35-1.05
	c-0.4-0.733-0.6-1.601-0.6-2.601s0.2-1.85,0.6-2.55c0.367-0.7,0.817-1.05,1.35-1.05l1.1-0.25v-6c-0.867-0.5-1.533-1.384-2-2.65
	c-0.467-1.233-0.7-2.649-0.7-4.25c0-3.533,0.9-5.816,2.7-6.85V73.1c0.3-1.733,2.45-3.15,6.45-4.25v-7.4l0.05-0.05
	c0.1-0.5,0.783-0.917,2.05-1.25s2.784-0.5,4.55-0.5s3.284,0.184,4.55,0.55c1.267,0.333,1.949,0.75,2.05,1.25v6.45
	c3.3,0.3,6.05,0.934,8.25,1.9C99.434,70.767,100.65,71.867,100.85,73.1z"/>
<g>
	<path style="fill-rule:evenodd;clip-rule:evenodd;fill:#949494;" d="M69.327,73.418h31.685v53.447h-0.098l-0.05-0.147
		c-0.36,1.44-2.047,2.652-5.06,3.635s-6.566,1.474-10.66,1.474c-4.093,0-7.647-0.491-10.66-1.474
		c-3.013-0.982-4.716-2.194-5.109-3.635l-0.049,0.147V73.418z"/>
	<path style="fill-rule:evenodd;clip-rule:evenodd;fill:#737373;" d="M69.327,73.418h1.081v54.822
		c-0.557-0.491-0.901-0.998-1.032-1.522l-0.049,0.147V73.418z"/>
	<path style="fill-rule:evenodd;clip-rule:evenodd;fill:#AEAEAE;" d="M98.31,73.418h1.425v54.92
		c-0.556,0.458-1.261,0.884-2.112,1.276c0.459-1.866,0.753-4.486,0.885-7.859c0.098-2.03,0.146-5.256,0.146-9.678
		c0-7.794-0.195-14.623-0.589-20.484c-0.557-8.613-1.441-13.001-2.653-13.165c-1.048-0.164-1.162-0.786-0.343-1.867
		C95.526,75.972,96.607,74.925,98.31,73.418z"/>
	<path style="fill-rule:evenodd;clip-rule:evenodd;fill:#787A7D;" d="M95.02,73.418h1.228l-0.836,2.603
		c-1.474,4.355-1.687,10.971-0.638,19.846c0.393,3.177,0.491,7.941,0.295,14.295c-0.197,6.551-0.164,11.136,0.098,13.755
		c0.328,2.719,0.753,4.782,1.277,6.189c-1.67,0.623-3.586,1.082-5.748,1.376l0.59-1.376c0.917-2.063,1.212-5.828,0.885-11.298
		c-0.557-5.928-0.918-9.759-1.081-11.495c-0.164-2.063-0.131-5.011,0.098-8.842c0.36-6.092,0.541-9.252,0.541-9.481
		c0.099-2.521-0.312-5.109-1.229-7.762l-1.375-3.242L95.02,73.418z"/>
	
		<use xlink:href="#FlashAICB_x2F_Layer_1_x2F__x3C_Group_x3E__x5F_12"  width="14.8" height="59.35" y="-59.35" transform="matrix(0.9825 0 0 -0.9825 69.1499 73.3501)" style="overflow:visible;opacity:0.7813;enable-background:new    ;"/>
	<path style="fill-rule:evenodd;clip-rule:evenodd;fill:#6E6E6E;" d="M100.914,79.166h0.098v43.082h-0.098l-0.05-0.196
		c-0.36,1.474-2.047,2.719-5.06,3.733c-3.013,0.982-6.566,1.474-10.66,1.474c-4.126,0-7.68-0.491-10.66-1.474
		c-3.013-1.015-4.716-2.26-5.109-3.733l-0.049,0.196V79.583c0.048,1.573,1.587,2.908,4.618,4.003c3.078,1.114,6.812,1.67,11.2,1.67
		c4.389,0,8.122-0.556,11.2-1.67c3.079-1.114,4.618-2.472,4.618-4.078L100.914,79.166z"/>
	<path style="fill-rule:evenodd;clip-rule:evenodd;fill:#00C66D;" d="M100.914,78.625h0.098v43.082h-0.098l-0.05-0.197
		c-0.36,1.474-2.047,2.719-5.06,3.734c-3.013,0.982-6.566,1.474-10.66,1.474c-4.126,0-7.68-0.491-10.66-1.474
		c-3.013-1.016-4.716-2.261-5.109-3.734l-0.049,0.197V79.042c0.048,1.573,1.587,2.907,4.618,4.004c3.078,1.113,6.812,1.67,11.2,1.67
		c4.389,0,8.122-0.558,11.2-1.67c3.079-1.114,4.618-2.473,4.618-4.078L100.914,78.625z"/>
	<path style="fill-rule:evenodd;clip-rule:evenodd;fill:#45D473;" d="M69.327,117.851c0.04,1.569,1.579,2.904,4.618,4.004
		c3.078,1.113,6.812,1.67,11.2,1.67c4.389,0,8.122-0.557,11.2-1.67c3.079-1.114,4.618-2.473,4.618-4.078l-0.049-0.343h0.098v4.273
		h-0.098l-0.05-0.197c-0.36,1.474-2.047,2.719-5.06,3.734c-3.013,0.982-6.566,1.474-10.66,1.474c-4.126,0-7.68-0.491-10.66-1.474
		c-3.013-1.016-4.716-2.261-5.109-3.734l-0.049,0.197V117.851z"/>
	<path style="fill-rule:evenodd;clip-rule:evenodd;fill:#45D473;" d="M69.327,111.391c0.04,1.554,1.579,2.88,4.618,3.979
		c3.11,1.114,6.845,1.671,11.2,1.671c4.355,0,8.089-0.557,11.2-1.671c3.079-1.112,4.618-2.456,4.618-4.027l-0.049-0.394h0.098v4.274
		h-0.098l-0.05-0.147c-0.36,1.44-2.047,2.669-5.06,3.685c-3.013,0.982-6.566,1.474-10.66,1.474c-4.093,0-7.647-0.491-10.66-1.474
		c-3.013-0.983-4.716-2.211-5.109-3.685l-0.049,0.147V111.391z"/>
	<path style="fill-rule:evenodd;clip-rule:evenodd;fill:#45D473;" d="M69.327,104.906c0.04,1.555,1.579,2.897,4.618,4.028
		c3.11,1.114,6.845,1.67,11.2,1.67c4.355,0,8.089-0.556,11.2-1.67c3.079-1.146,4.618-2.505,4.618-4.077l-0.049-0.344h0.098v4.224
		h-0.098l-0.05-0.146c-0.36,1.474-2.047,2.702-5.06,3.685c-3.013,1.015-6.566,1.522-10.66,1.522c-4.093,0-7.647-0.508-10.66-1.522
		c-3.013-0.982-4.716-2.211-5.109-3.685l-0.049,0.146V104.906z"/>
	<path style="fill-rule:evenodd;clip-rule:evenodd;fill:#45D473;" d="M100.914,98.029h0.098v4.273h-0.098l-0.05-0.196
		c-0.36,1.474-2.047,2.718-5.06,3.733c-3.013,0.982-6.566,1.474-10.66,1.474c-4.126,0-7.68-0.491-10.66-1.474
		c-3.013-1.016-4.716-2.26-5.109-3.733l-0.049,0.196v-3.856c0.04,1.57,1.579,2.904,4.618,4.004c3.078,1.113,6.812,1.671,11.2,1.671
		c4.389,0,8.122-0.558,11.2-1.671c3.079-1.113,4.618-2.473,4.618-4.077L100.914,98.029z"/>
	<path style="fill-rule:evenodd;clip-rule:evenodd;fill:#45D473;" d="M100.914,91.544h0.098v4.274h-0.098l-0.05-0.147
		c-0.36,1.441-2.047,2.669-5.06,3.685c-3.013,0.982-6.566,1.474-10.66,1.474c-4.093,0-7.647-0.491-10.66-1.474
		c-3.013-0.982-4.716-2.211-5.109-3.685l-0.049,0.147v-3.855c0.04,1.569,1.579,2.904,4.618,4.003c3.078,1.113,6.812,1.67,11.2,1.67
		c4.389,0,8.122-0.557,11.2-1.67c3.079-1.113,4.618-2.473,4.618-4.077L100.914,91.544z"/>
	<path style="fill-rule:evenodd;clip-rule:evenodd;fill:#45D473;" d="M100.914,85.061h0.098v4.273h-0.098l-0.05-0.147
		c-0.36,1.441-2.047,2.67-5.06,3.685c-3.013,0.982-6.566,1.474-10.66,1.474c-4.093,0-7.647-0.491-10.66-1.474
		c-3.013-0.982-4.716-2.211-5.109-3.685l-0.049,0.147v-3.832c0.04,1.554,1.579,2.897,4.618,4.028c3.11,1.114,6.845,1.671,11.2,1.671
		c4.355,0,8.089-0.557,11.2-1.671c3.079-1.146,4.618-2.505,4.618-4.077L100.914,85.061z"/>
	<path style="fill-rule:evenodd;clip-rule:evenodd;fill:#45D473;" d="M100.914,78.625h0.098v4.273h-0.098l-0.05-0.196
		c-0.36,1.474-2.047,2.702-5.06,3.685c-3.013,1.016-6.566,1.523-10.66,1.523c-4.093,0-7.647-0.508-10.66-1.523
		c-3.013-0.983-4.716-2.211-5.109-3.685l-0.049,0.196v-3.856c0.04,1.57,1.579,2.904,4.618,4.004c3.078,1.113,6.812,1.67,11.2,1.67
		c4.389,0,8.122-0.558,11.2-1.67c3.079-1.114,4.618-2.473,4.618-4.078L100.914,78.625z"/>
	<path style="fill-rule:evenodd;clip-rule:evenodd;fill:#FFE5AE;" d="M86.078,95.229c2.62-4.159,5.469-6.37,8.548-6.632
		c2.815-0.262,4.929,1.065,6.337,3.98v25.199c-3.373,3.341-6.469,4.635-9.285,3.882c-2.456-0.623-4.421-2.653-5.895-6.092
		c-1.376-3.145-2.063-6.681-2.063-10.61C83.753,100.895,84.539,97.652,86.078,95.229z"/>
	<path style="fill-rule:evenodd;clip-rule:evenodd;fill:#6DBC4C;" d="M95.854,95.917c-1.342,0.064-2.456,0.949-3.341,2.652
		c-2.194,4.29-2.718,8.679-1.571,13.166c1.114,4.225,2.751,6.074,4.912,5.55c2.228-0.523,3.717-2.652,4.471-6.386
		c0.721-3.602,0.523-7.499-0.59-11.691c-0.196-0.688-0.475-1.244-0.835-1.67C98.048,96.392,97.033,95.852,95.854,95.917z
		 M96.493,94.591c1.768,0.393,2.931,1.604,3.487,3.635c1.277,4.749,1.506,9.17,0.688,13.264c-0.852,4.225-2.538,6.632-5.06,7.221
		c-1.114,0.263-2.194-0.213-3.242-1.425c-1.016-1.179-1.802-2.799-2.358-4.863c-1.277-5.075-0.688-10.037,1.769-14.884
		C93.021,95.114,94.593,94.132,96.493,94.591z"/>
	<path style="fill-rule:evenodd;clip-rule:evenodd;fill:#9C5E3D;" d="M100.963,97.391v14.442l-0.59,0.639l-0.933,0.786l1.522-0.688
		v0.491c-0.885,1.047-2.129,1.687-3.733,1.916c-2.85,0.458-5.076,0.572-6.682,0.343c-0.818-0.098-1.588-0.343-2.309-0.736
		c-0.196-0.098,0.033-0.131,0.688-0.098c1.146,0.098,2.146,0.113,2.996,0.049c-1.67-0.557-2.996-1.507-3.979-2.85
		c-1.016-1.343-1.344-2.604-0.982-3.782c0.294-0.95,0.883-1.638,1.768-2.063c0.918-0.426,1.884-0.377,2.898,0.147
		c1.016,0.491,2.162,0.36,3.439-0.393c1.375-0.787,2.095-1.884,2.161-3.292c0.163-3.504,1.294-5.175,3.389-5.011L100.963,97.391z"/>
	
		<use xlink:href="#FlashAICB_x2F_Layer_1_x2F__x3C_Group_x3E__x5F_11"  width="12.65" height="4.033" y="-4.033" transform="matrix(0.9825 0 0 -0.9825 88.4004 109.7998)" style="overflow:visible;opacity:0.2109;enable-background:new    ;"/>
	
		<use xlink:href="#FlashAICB_x2F_Layer_1_x2F__x3C_Group_x3E__x5F_10"  width="2.547" height="1.33" x="-0.084" y="-1.318" transform="matrix(0.9825 0 0 -0.9825 88.5498 106.25)" style="overflow:visible;enable-background:new    ;"/>
	
		<use xlink:href="#FlashAICB_x2F_Layer_1_x2F__x3C_Group_x3E__x5F_9"  width="2.2" height="4.518" y="-4.49" transform="matrix(0.9825 0 0 -0.9825 98.0996 98.1504)" style="overflow:visible;opacity:0.75;enable-background:new    ;"/>
	
		<use xlink:href="#FlashAICB_x2F_Layer_1_x2F__x3C_Group_x3E__x5F_8"  width="32.25" height="48.95" y="-48.95" transform="matrix(0.9825 0 0 -0.9825 69.1499 78.2998)" style="overflow:visible;opacity:0.5195;enable-background:new    ;"/>
	
		<use xlink:href="#FlashAICB_x2F_Layer_1_x2F__x3C_Group_x3E__x5F_7"  width="2.2" height="46" y="-46" transform="matrix(0.9825 0 0 -0.9825 98.75 78.5498)" style="overflow:visible;opacity:0.1016;enable-background:new    ;"/>
	
		<use xlink:href="#FlashAICB_x2F_Layer_1_x2F__x3C_Clip_Group_0_x3E__x5F_7"  width="32.45" height="12.35" y="-12.35" transform="matrix(0.9825 0 0 -0.9825 69 67.6499)" style="overflow:visible;"/>
	
		<use xlink:href="#FlashAICB_x2F_Layer_1_x2F__x3C_Group_x3E__x5F_6"  width="15.3" height="4.4" y="-4.4" transform="matrix(0.9825 0 0 -0.9825 75.8501 73.1001)" style="overflow:visible;opacity:0.1992;enable-background:new    ;"/>
	<path style="fill-rule:evenodd;clip-rule:evenodd;fill:#575757;" d="M86.963,73.222c1.276,0.392,1.916,0.851,1.916,1.375
		c0,0.557-0.64,1.032-1.916,1.425c-1.277,0.393-2.817,0.59-4.618,0.59c-1.833,0-3.374-0.197-4.618-0.59
		c-1.277-0.393-1.916-0.868-1.916-1.425c0-0.557,0.639-1.015,1.916-1.375c1.277-0.394,2.817-0.59,4.618-0.59
		S85.686,72.828,86.963,73.222z"/>
	
		<use xlink:href="#FlashAICB_x2F_Layer_1_x2F__x3C_Group_x3E__x5F_5"  width="13.55" height="16.8" y="-16.8" transform="matrix(0.9825 0 0 -0.9825 75.6001 60.0498)" style="overflow:visible;opacity:0.4102;enable-background:new    ;"/>
	<path style="fill-rule:evenodd;clip-rule:evenodd;fill:#FFFFFF;" d="M88.73,61.775h0.295v12.526c0,0.229-0.098,0.459-0.295,0.688
		V61.775z"/>
	
		<use xlink:href="#FlashAICB_x2F_Layer_1_x2F__x3C_Group_x3E__x5F_4"  width="4.2" height="14" y="-14" transform="matrix(0.9825 0 0 -0.9825 83.7002 62.4502)" style="overflow:visible;opacity:0.1602;enable-background:new    ;"/>
	
		<use xlink:href="#FlashAICB_x2F_Layer_1_x2F__x3C_Group_x3E__x5F_3"  width="0.7" height="13.2" y="-13.2" transform="matrix(0.9825 0 0 -0.9825 79.8999 63.3501)" style="overflow:visible;opacity:0.3984;enable-background:new    ;"/>
	
		<use xlink:href="#FlashAICB_x2F_Layer_1_x2F__x3C_Group_x3E__x5F_2"  width="2.85" height="14" y="-14" transform="matrix(0.9825 0 0 -0.9825 76.5 62.4502)" style="overflow:visible;opacity:0.6094;enable-background:new    ;"/>
	<path style="fill-rule:evenodd;clip-rule:evenodd;fill:#FFFFFF;" d="M75.762,61.775h0.246V74.99
		c-0.197-0.229-0.294-0.458-0.294-0.688l0.049-0.294V61.775z"/>
	<path style="fill-rule:evenodd;clip-rule:evenodd;fill:#FFFFFF;" d="M86.766,60.646c-1.212-0.328-2.653-0.491-4.323-0.491
		c-1.669,0-3.127,0.163-4.371,0.491c-1.212,0.294-1.818,0.654-1.818,1.081c0,0.458,0.606,0.834,1.818,1.13
		c1.212,0.327,2.668,0.491,4.371,0.491s3.145-0.164,4.323-0.491c1.212-0.295,1.817-0.671,1.817-1.13
		C88.583,61.3,87.978,60.94,86.766,60.646z M82.394,59.958c1.834,0,3.406,0.181,4.716,0.54c1.278,0.394,1.916,0.851,1.916,1.376
		c0,0.524-0.638,0.982-1.916,1.375c-1.31,0.361-2.881,0.54-4.716,0.54c-1.833,0-3.39-0.179-4.667-0.54
		c-1.277-0.393-1.916-0.851-1.916-1.375c0-0.525,0.639-0.982,1.916-1.376C79.004,60.139,80.56,59.958,82.394,59.958z"/>
	<path style="fill-rule:evenodd;clip-rule:evenodd;fill:#FFFFFF;" d="M87.061,76.07c-1.277,0.458-2.833,0.688-4.667,0.688
		c-1.866,0-3.406-0.197-4.618-0.589c-1.245-0.393-1.915-0.917-2.014-1.572l0.049-0.049l0.197,0.197
		c0.131,0.426,0.819,0.818,2.064,1.179c1.342,0.36,2.8,0.524,4.371,0.491c1.802-0.065,3.292-0.278,4.471-0.639
		c1.113-0.295,1.72-0.655,1.817-1.081l0.246,0.098C88.767,75.271,88.127,75.697,87.061,76.07z"/>
	
		<use xlink:href="#FlashAICB_x2F_Layer_1_x2F__x3C_Group_x3E__x5F_1"  width="7.411" height="16.557" y="-16.557" transform="matrix(0.9825 0 0 -0.9825 72.2998 87.2002)" style="overflow:visible;opacity:0.3984;enable-background:new    ;"/>
	<path style="fill-rule:evenodd;clip-rule:evenodd;fill:#979797;" d="M70.015,96.604l0.982-8.744l2.26-0.639l2.456,1.229
		c1.605,1.342,2.407,3.39,2.407,6.141c0,3.438-0.688,5.846-2.064,7.221c-0.72,0.655-1.424,0.982-2.111,0.982l-2.948-0.246
		L70.015,96.604z"/>
	<path style="fill-rule:evenodd;clip-rule:evenodd;fill:#E4E4E4;" d="M67.755,89.924c0.786-1.376,1.866-2.063,3.242-2.063
		c1.408,0,2.62,0.72,3.635,2.161c0.983,1.408,1.474,3.128,1.474,5.158s-0.491,3.767-1.474,5.207
		c-1.016,1.441-2.227,2.161-3.635,2.161c-1.343,0-2.423-0.72-3.242-2.161c-0.753-1.343-1.13-3.078-1.13-5.207
		C66.625,92.985,67.001,91.233,67.755,89.924z"/>
	<path style="fill-rule:evenodd;clip-rule:evenodd;fill:#4D4D4D;" d="M68.197,92.085c0.59-0.982,1.359-1.474,2.309-1.474
		c1.015,0,1.867,0.508,2.554,1.523c0.688,0.982,1.031,2.178,1.031,3.585c0,1.441-0.343,2.653-1.031,3.636
		c-0.688,1.015-1.539,1.522-2.554,1.522c-0.885,0-1.654-0.687-2.309-2.063c-0.557-1.212-0.835-2.375-0.835-3.488
		C67.362,94.083,67.64,93.002,68.197,92.085z"/>
	<path style="fill-rule:evenodd;clip-rule:evenodd;fill:#737373;" d="M68.246,96.702c-0.393-1.44-0.541-2.964-0.442-4.567
		l0.294-1.966l0.786-0.393l1.228,6.484l1.818,4.322l-0.884,0.197c-0.328-0.098-0.688-0.344-1.081-0.737
		C69.18,99.258,68.606,98.144,68.246,96.702z"/>
	<path style="fill-rule:evenodd;clip-rule:evenodd;fill:#323232;" d="M68.884,89.776l3.046,10.807
		c-0.131,0.065-0.327,0.033-0.589-0.098c-0.458-0.262-0.9-0.852-1.326-1.769c-0.885-1.899-1.343-3.963-1.376-6.19L68.884,89.776z"/>
	
		<use xlink:href="#FlashAICB_x2F_Layer_1_x2F__x3C_Group_x3E_"  width="4.702" height="9.872" y="-9.872" transform="matrix(0.9825 0 0 -0.9825 70.7002 107.5996)" style="overflow:visible;opacity:0.3984;enable-background:new    ;"/>
	<path style="fill-rule:evenodd;clip-rule:evenodd;fill:#595959;" d="M68.197,115.566v-7.27l3.292-0.688
		c0.655,0,1.228,0.376,1.719,1.129c0.589,0.819,0.884,1.916,0.884,3.292c0,1.343-0.294,2.44-0.884,3.291
		c-0.524,0.786-1.097,1.18-1.719,1.18c-0.164,0-0.328-0.049-0.491-0.148L68.197,115.566z"/>
	<path style="fill-rule:evenodd;clip-rule:evenodd;fill:#979797;" d="M68.197,108.297c0.524,0,0.983,0.359,1.375,1.08
		c0.36,0.688,0.54,1.539,0.54,2.554c0,1.017-0.18,1.867-0.54,2.556c-0.393,0.72-0.852,1.08-1.375,1.08
		c-0.523,0-0.966-0.36-1.326-1.08c-0.393-0.688-0.59-1.539-0.59-2.556c0-1.015,0.197-1.866,0.59-2.554
		C67.231,108.656,67.673,108.297,68.197,108.297z"/>
</g>
<g>
	<path style="fill-rule:evenodd;clip-rule:evenodd;fill:#32AF53;" d="M102.485,109.328c3.274-0.132,5.862,0.818,7.762,2.849
		c1.802,1.899,2.62,4.307,2.457,7.222c-0.164,3.013-1.376,5.796-3.636,8.351c-2.521,2.883-6.01,4.994-10.464,6.338
		c-9.269,2.815-16.325,1.948-21.172-2.604c-1.801-1.735-2.947-3.7-3.438-5.895c-0.426-2.063-0.164-3.685,0.786-4.863
		c3.013-3.603,6.599-4.012,10.759-1.229c1.211,0.786,2.734,1.031,4.568,0.737c1.866-0.295,3.193-1.048,3.979-2.26
		c1.08-2.26,2.046-3.995,2.898-5.207C98.49,110.572,100.324,109.426,102.485,109.328z"/>
	
		<use xlink:href="#FlashAICB_x2F_Layer_1_x2F__x3C_Group_x3E__x5F_3_x5F_0"  width="44.85" height="32.95" y="-32.95" transform="matrix(0.9825 0 0 -0.9825 71.6499 107.25)" style="overflow:visible;opacity:0.1484;enable-background:new    ;"/>
	
		<use xlink:href="#FlashAICB_x2F_Layer_1_x2F__x3C_Group_x3E__x5F_2_x5F_0"  width="44.75" height="32.85" y="-32.85" transform="matrix(0.9825 0 0 -0.9825 71.7998 107.2998)" style="overflow:visible;opacity:0.1914;enable-background:new    ;"/>
	
		<use xlink:href="#FlashAICB_x2F_Layer_1_x2F__x3C_Group_x3E__x5F_1_x5F_1"  width="11.45" height="10.1" y="-10.1" transform="matrix(0.9825 0 0 -0.9825 75.4502 118.7998)" style="overflow:visible;opacity:0.1992;enable-background:new    ;"/>
	
		<use xlink:href="#FlashAICB_x2F_Layer_1_x2F__x3C_Group_x3E__x5F_0"  width="17.95" height="14.4" y="-14.4" transform="matrix(0.9825 0 0 -0.9825 87.0996 113.8496)" style="overflow:visible;opacity:0.1992;enable-background:new    ;"/>
	<path style="fill-rule:evenodd;clip-rule:evenodd;fill:#FFFFFF;" d="M98.851,116.205c1.015-0.491,1.572-0.147,1.67,1.031
		c0.065,1.212-0.721,2.506-2.358,3.881c-1.178,0.982-2.39,1.588-3.635,1.817c-1.735,0.295-1.834,0.164-0.295-0.393
		c1.965-0.753,3.111-1.932,3.438-3.537C98.031,117.335,98.424,116.402,98.851,116.205z"/>
	<path style="fill-rule:evenodd;clip-rule:evenodd;fill:#FFFFFF;" d="M77.923,121.854c0.294-0.328,0.541-0.328,0.737,0
		c0.491,0.851,0.901,1.408,1.229,1.67c0.393,0.36,0.262,0.476-0.394,0.344c-0.622-0.164-1.113-0.458-1.474-0.885
		C77.662,122.526,77.629,122.149,77.923,121.854z"/>
	<path style="fill-rule:evenodd;clip-rule:evenodd;fill:#FFFFFF;" d="M81.411,124.065c1.048,0.262,1.522,0.491,1.425,0.688
		c-0.098,0.195-0.426,0.262-0.982,0.195c-0.394-0.064-0.655-0.262-0.786-0.589C80.936,124.065,81.051,123.966,81.411,124.065z"/>
	<path style="fill-rule:evenodd;clip-rule:evenodd;fill:#FFFFFF;" d="M91.776,123.475c0.524-0.032,0.819,0.05,0.885,0.246
		c0.064,0.196-0.132,0.377-0.59,0.541c-0.426,0.163-0.688,0.082-0.786-0.245C91.154,123.688,91.318,123.509,91.776,123.475z"/>
</g>
<g>
	<g>
		<g>
			<g>
				<g>
					<g>
						
							<linearGradient id="SVGID_54_" gradientUnits="userSpaceOnUse" x1="-54.0967" y1="72.2852" x2="-30.4736" y2="72.2852" gradientTransform="matrix(0.4561 -0.8899 0.8899 0.4561 -2.815127e-004 2.396703e-004)">
							<stop  offset="0.2824" style="stop-color:#B63C48"/>
							<stop  offset="0.2863" style="stop-color:#B73D48"/>
							<stop  offset="0.702" style="stop-color:#E28F67"/>
							<stop  offset="0.8941" style="stop-color:#F2AF74"/>
						</linearGradient>
						<path style="fill-rule:evenodd;clip-rule:evenodd;fill:url(#SVGID_54_);" d="M56.65,70.4c0.4,0.967,0.5,1.95,0.3,2.95
							c-0.2,1.2-0.733,2.2-1.6,3c-0.667,0.633-1.417,1.066-2.25,1.3l-1.7,0.45l-0.6,1.65c-0.267,0.867-0.733,1.617-1.4,2.25
							c-0.8,0.8-1.8,1.283-3,1.45c-0.4,0.066-0.7,0.083-0.9,0.05c-0.8,0-1.583-0.2-2.35-0.6c-0.767-0.367-1.45-0.966-2.05-1.8
							l-0.95-1.45L38.3,79.6c-1.033-0.034-1.983-0.317-2.85-0.85c-0.867-0.566-1.517-1.3-1.95-2.2c-0.467-0.966-0.633-1.95-0.5-2.95
							c0.1-1.034,0.467-1.967,1.1-2.8l1.1-1.4l-0.5-1.7c-0.333-0.967-0.367-1.967-0.1-3c0.267-1,0.767-1.85,1.5-2.55
							c1.1-1.066,2.4-1.566,3.9-1.5c0.633,0,1.217,0.1,1.75,0.3l1.7,0.6l1.4-1c0.967-0.733,2.066-1.066,3.3-1
							c0.867,0,1.65,0.2,2.35,0.6l0.15,0.05c0.9,0.5,1.6,1.2,2.1,2.1c0.533,0.9,0.783,1.867,0.75,2.9l-0.1,1.75L54.85,68
							C55.684,68.633,56.283,69.434,56.65,70.4z"/>
						<path style="fill-rule:evenodd;clip-rule:evenodd;fill:none;stroke:#FAE1E7;stroke-width:0.25;" d="M56.65,70.4
							c0.4,0.967,0.5,1.95,0.3,2.95c-0.2,1.2-0.733,2.2-1.6,3c-0.667,0.633-1.417,1.066-2.25,1.3l-1.7,0.45l-0.6,1.65
							c-0.267,0.867-0.733,1.617-1.4,2.25c-0.8,0.8-1.8,1.283-3,1.45c-0.4,0.066-0.7,0.083-0.9,0.05c-0.8,0-1.583-0.2-2.35-0.6
							c-0.767-0.367-1.45-0.966-2.05-1.8l-0.95-1.45L38.3,79.6c-1.033-0.034-1.983-0.317-2.85-0.85c-0.867-0.566-1.517-1.3-1.95-2.2
							c-0.467-0.966-0.633-1.95-0.5-2.95c0.1-1.034,0.467-1.967,1.1-2.8l1.1-1.4l-0.5-1.7c-0.333-0.967-0.367-1.967-0.1-3
							c0.267-1,0.767-1.85,1.5-2.55c1.1-1.066,2.4-1.566,3.9-1.5c0.633,0,1.217,0.1,1.75,0.3l1.7,0.6l1.4-1
							c0.967-0.733,2.066-1.066,3.3-1c0.867,0,1.65,0.2,2.35,0.6l0.15,0.05c0.9,0.5,1.6,1.2,2.1,2.1c0.533,0.9,0.783,1.867,0.75,2.9
							l-0.1,1.75L54.85,68C55.684,68.633,56.283,69.434,56.65,70.4z"/>
					</g>
				</g>
				<path style="fill-rule:evenodd;clip-rule:evenodd;fill:#4C0D16;" d="M38.65,70.05l-1-3.25c-0.333-0.9-0.133-1.716,0.6-2.45
					c0.767-0.633,1.583-0.8,2.45-0.5l3.2,1.2l2.75-2c0.333-0.233,0.75-0.366,1.25-0.4c0.467-0.033,0.883,0.05,1.25,0.25
					c0.833,0.467,1.25,1.184,1.25,2.15l-0.15,3.4L53,70.5c0.767,0.6,1.067,1.367,0.9,2.3c-0.1,0.5-0.333,0.934-0.7,1.3
					c-0.267,0.267-0.583,0.45-0.95,0.55l-3.3,0.95l-1.1,3.2c-0.1,0.4-0.3,0.717-0.6,0.95c-0.4,0.4-0.833,0.617-1.3,0.65
					c-0.934,0.133-1.684-0.2-2.25-1l-1.9-2.85l-3.45-0.05c-1,0-1.684-0.434-2.05-1.3c-0.433-0.9-0.35-1.733,0.25-2.5L38.65,70.05z"
					/>
				<path style="fill-rule:evenodd;clip-rule:evenodd;fill:#45D473;" d="M39.9,70.25l-1.2-3.8c-0.167-0.467-0.067-0.9,0.3-1.3
					c0.4-0.333,0.833-0.417,1.3-0.25l3.75,1.35l3.25-2.3c0.467-0.267,0.917-0.284,1.35-0.05c0.434,0.233,0.65,0.617,0.65,1.15
					L49.15,69l3.2,2.4c0.4,0.3,0.55,0.7,0.45,1.2c0,0.233-0.116,0.466-0.35,0.7c-0.167,0.167-0.333,0.267-0.5,0.3l-3.85,1.1
					l-1.25,3.75c-0.133,0.267-0.25,0.433-0.35,0.5c-0.2,0.2-0.433,0.316-0.7,0.35c-0.533,0.067-0.933-0.116-1.2-0.55l-2.2-3.3
					l-4-0.05c-0.533,0-0.9-0.233-1.1-0.7c-0.233-0.434-0.2-0.867,0.1-1.3L39.9,70.25z"/>
				<path style="fill-rule:evenodd;clip-rule:evenodd;fill:#CFF4D6;" d="M39.55,65.45c-0.3-0.067-0.533-0.067-0.7,0l0.15-0.3
					c0.4-0.333,0.833-0.417,1.3-0.25l3.75,1.35l3.25-2.3c0.467-0.267,0.917-0.284,1.35-0.05c0.434,0.233,0.65,0.617,0.65,1.15
					L49.15,69l3.2,2.4c0.4,0.3,0.55,0.7,0.45,1.2c0,0.233-0.116,0.466-0.35,0.7c-0.167,0.167-0.333,0.267-0.5,0.3H51.9l0.2-0.4
					c0.066-0.5-0.1-0.917-0.5-1.25l-3.2-2.35l0.15-4c0-0.5-0.216-0.883-0.65-1.15c-0.466-0.267-0.917-0.233-1.35,0.1l-3.25,2.3
					L39.55,65.45z"/>
			</g>
		</g>
	</g>
</g>
<g>
	<g>
		<g>
			<g>
				<g>
					<g>
						<linearGradient id="SVGID_55_" gradientUnits="userSpaceOnUse" x1="118.4199" y1="60.0879" x2="129.1944" y2="81.1118">
							<stop  offset="0.2824" style="stop-color:#B63C48"/>
							<stop  offset="0.2863" style="stop-color:#B73D48"/>
							<stop  offset="0.702" style="stop-color:#E28F67"/>
							<stop  offset="0.8941" style="stop-color:#F2AF74"/>
						</linearGradient>
						<path style="fill-rule:evenodd;clip-rule:evenodd;fill:url(#SVGID_55_);" d="M134.75,70.8c0.634,0.833,1.017,1.767,1.15,2.8
							c0.1,1-0.084,1.983-0.551,2.95c-0.433,0.9-1.083,1.634-1.949,2.2c-0.867,0.533-1.817,0.816-2.851,0.85l-1.85,0.05l-0.95,1.45
							c-0.6,0.833-1.283,1.433-2.05,1.8c-0.733,0.4-1.517,0.6-2.351,0.6c-0.199,0.033-0.5,0.017-0.899-0.05
							c-1.2-0.167-2.2-0.65-3-1.45c-0.667-0.633-1.134-1.383-1.4-2.25l-0.6-1.65l-1.7-0.45c-0.833-0.233-1.583-0.667-2.25-1.3
							c-0.866-0.8-1.4-1.8-1.6-3c-0.2-1-0.101-1.983,0.3-2.95c0.366-0.966,0.967-1.767,1.8-2.4l1.45-1.05l-0.101-1.75
							c-0.033-1.034,0.217-2,0.75-2.9c0.5-0.9,1.2-1.6,2.101-2.1l0.149-0.05c0.7-0.4,1.483-0.6,2.351-0.6
							c1.233-0.066,2.333,0.267,3.3,1l1.4,1l1.699-0.6c0.567-0.2,1.15-0.3,1.75-0.3c1.5-0.066,2.801,0.434,3.9,1.5
							c0.733,0.7,1.233,1.55,1.5,2.55c0.267,1.033,0.233,2.033-0.1,3l-0.5,1.7L134.75,70.8z"/>
						<path style="fill-rule:evenodd;clip-rule:evenodd;fill:none;stroke:#FAE1E7;stroke-width:0.25;" d="M134.75,70.8
							c0.634,0.833,1.017,1.767,1.15,2.8c0.1,1-0.084,1.983-0.551,2.95c-0.433,0.9-1.083,1.634-1.949,2.2
							c-0.867,0.533-1.817,0.816-2.851,0.85l-1.85,0.05l-0.95,1.45c-0.6,0.833-1.283,1.433-2.05,1.8c-0.733,0.4-1.517,0.6-2.351,0.6
							c-0.199,0.033-0.5,0.017-0.899-0.05c-1.2-0.167-2.2-0.65-3-1.45c-0.667-0.633-1.134-1.383-1.4-2.25l-0.6-1.65l-1.7-0.45
							c-0.833-0.233-1.583-0.667-2.25-1.3c-0.866-0.8-1.4-1.8-1.6-3c-0.2-1-0.101-1.983,0.3-2.95c0.366-0.966,0.967-1.767,1.8-2.4
							l1.45-1.05l-0.101-1.75c-0.033-1.034,0.217-2,0.75-2.9c0.5-0.9,1.2-1.6,2.101-2.1l0.149-0.05c0.7-0.4,1.483-0.6,2.351-0.6
							c1.233-0.066,2.333,0.267,3.3,1l1.4,1l1.699-0.6c0.567-0.2,1.15-0.3,1.75-0.3c1.5-0.066,2.801,0.434,3.9,1.5
							c0.733,0.7,1.233,1.55,1.5,2.55c0.267,1.033,0.233,2.033-0.1,3l-0.5,1.7L134.75,70.8z"/>
					</g>
				</g>
				<path style="fill-rule:evenodd;clip-rule:evenodd;fill:#4C0D16;" d="M122.2,63.05l2.75,2l3.2-1.2
					c0.866-0.3,1.683-0.133,2.449,0.5c0.733,0.733,0.934,1.55,0.601,2.45l-1,3.25l2.1,2.65c0.601,0.767,0.684,1.6,0.25,2.5
					c-0.366,0.866-1.05,1.3-2.05,1.3l-3.45,0.05l-1.899,2.85c-0.567,0.8-1.317,1.133-2.25,1c-0.467-0.033-0.9-0.25-1.301-0.65
					c-0.3-0.233-0.5-0.55-0.6-0.95l-1.1-3.2l-3.301-0.95c-0.366-0.1-0.683-0.283-0.949-0.55c-0.367-0.367-0.601-0.8-0.7-1.3
					c-0.167-0.933,0.133-1.7,0.899-2.3l2.75-2.05l-0.149-3.4c0-0.966,0.416-1.683,1.25-2.15c0.366-0.2,0.783-0.283,1.25-0.25
					C121.45,62.684,121.867,62.816,122.2,63.05z"/>
				<path style="fill-rule:evenodd;clip-rule:evenodd;fill:#45D473;" d="M120.2,63.9c0.434-0.233,0.883-0.216,1.35,0.05l3.25,2.3
					l3.75-1.35c0.5-0.167,0.934-0.083,1.3,0.25c0.367,0.4,0.467,0.833,0.301,1.3l-1.2,3.8l2.5,3.15c0.3,0.434,0.333,0.867,0.1,1.3
					c-0.2,0.466-0.566,0.7-1.1,0.7l-4,0.05l-2.2,3.3c-0.267,0.434-0.667,0.617-1.2,0.55c-0.267-0.033-0.5-0.15-0.7-0.35
					c-0.1-0.067-0.216-0.233-0.35-0.5l-1.25-3.75l-3.85-1.1c-0.167-0.034-0.334-0.133-0.5-0.3c-0.233-0.233-0.351-0.466-0.351-0.7
					c-0.1-0.5,0.05-0.9,0.45-1.2l3.2-2.4l-0.15-3.95C119.55,64.517,119.767,64.133,120.2,63.9z"/>
				<path style="fill-rule:evenodd;clip-rule:evenodd;fill:#CFF4D6;" d="M120.45,69.6l-3.2,2.35c-0.366,0.333-0.533,0.75-0.5,1.25
					l0.2,0.4h-0.05c-0.167-0.034-0.334-0.133-0.5-0.3c-0.233-0.233-0.351-0.466-0.351-0.7c-0.1-0.5,0.05-0.9,0.45-1.2l3.2-2.4
					l-0.15-3.95c0-0.533,0.217-0.917,0.65-1.15s0.883-0.216,1.35,0.05l3.25,2.3l3.75-1.35c0.5-0.167,0.934-0.083,1.3,0.25l0.15,0.3
					c-0.167-0.067-0.4-0.067-0.7,0l-3.75,1.4l-3.25-2.3c-0.433-0.333-0.883-0.366-1.35-0.1c-0.434,0.267-0.65,0.65-0.65,1.15
					L120.45,69.6z"/>
			</g>
		</g>
	</g>
</g>
<g>
	
		<use xlink:href="#FlashAICB_x5F_1_x2F_Layer_106_x2F__x3C_Path_x3E__x5F_2"  width="110.05" height="55.75" y="-55.75" transform="matrix(1 0 0 -1 31.1001 27.6001)" style="overflow:visible;opacity:0.1094;enable-background:new    ;"/>
	
		<use xlink:href="#FlashAICB_x5F_1_x2F_Layer_106_x2F__x3C_Path_x3E__x5F_1"  width="110.05" height="61.294" y="-61.294" transform="matrix(1 0 0 -1 31.1001 27.6001)" style="overflow:visible;opacity:0.0898;enable-background:new    ;"/>
	
		<use xlink:href="#FlashAICB_x5F_1_x2F_Layer_106_x2F__x3C_Path_x3E_"  width="118.65" height="57.1" y="-57.1" transform="matrix(1 0 0 -1 26.7998 86.4004)" style="overflow:visible;opacity:0.4688;enable-background:new    ;"/>
</g>
</svg>
