<?xml version="1.0" encoding="iso-8859-1"?>
<!-- Generator: Adobe Illustrator 15.1.0, SVG Export Plug-In . SVG Version: 6.00 Build 0)  -->
<!DOCTYPE svg PUBLIC "-//W3C//DTD SVG 1.1//EN" "http://www.w3.org/Graphics/SVG/1.1/DTD/svg11.dtd">
<svg version="1.1" xmlns="http://www.w3.org/2000/svg" xmlns:xlink="http://www.w3.org/1999/xlink" x="0px" y="0px" width="172.4px"
	 height="172.4px" viewBox="0 0 172.4 172.4" style="enable-background:new 0 0 172.4 172.4;" xml:space="preserve">
<symbol  id="BG_x2F_bg_navy" viewBox="0 -134 134 134">
	<g id="Layer_1_16_">
		<g>
			<g>
				
					<linearGradient id="SVGID_1_" gradientUnits="userSpaceOnUse" x1="16085.8389" y1="-65.9141" x2="16218.2393" y2="-65.9141" gradientTransform="matrix(7.555724e-006 1 -1 -0.001 0.939 -16219.1055)">
					<stop  offset="0.098" style="stop-color:#293556"/>
					<stop  offset="0.3961" style="stop-color:#3F5789"/>
					<stop  offset="0.5529" style="stop-color:#49669F"/>
					<stop  offset="0.9686" style="stop-color:#A8A3B4"/>
				</linearGradient>
				<path style="fill-rule:evenodd;clip-rule:evenodd;fill:url(#SVGID_1_);" d="M133.15-67c0-18.267-6.467-33.867-19.4-46.8
					c-12.933-12.934-28.517-19.4-46.75-19.4c-18.267,0-33.867,6.467-46.8,19.4C7.267-100.867,0.8-85.267,0.8-67
					s6.467,33.867,19.4,46.8C33.133-7.267,48.733-0.8,67-0.8c18.233,0,33.817-6.467,46.75-19.4
					C126.683-33.133,133.15-48.733,133.15-67z"/>
				<path style="fill-rule:evenodd;clip-rule:evenodd;fill:#121937;" d="M67-1.65c-18.033,0-33.434-6.383-46.2-19.15
					S1.65-48.967,1.65-67c0-18.066,6.383-33.467,19.15-46.2c12.767-12.767,28.167-19.15,46.2-19.15
					c18.066,0,33.467,6.383,46.2,19.15c12.767,12.733,19.15,28.134,19.15,46.2c0,18.033-6.383,33.434-19.15,46.2
					C100.467-8.033,85.066-1.65,67-1.65z M5.05-92.65C1.683-84.517,0-75.967,0-67s1.683,17.517,5.05,25.65
					c3.367,8.167,8.217,15.417,14.55,21.75c6.333,6.333,13.583,11.184,21.75,14.55C49.483-1.684,58.033,0,67,0
					s17.517-1.684,25.65-5.05c8.133-3.367,15.367-8.217,21.7-14.55c6.333-6.333,11.184-13.583,14.55-21.75
					c3.4-8.167,5.1-16.716,5.1-25.65s-1.7-17.483-5.1-25.65c-3.367-8.133-8.217-15.383-14.55-21.75
					c-6.333-6.333-13.566-11.184-21.7-14.55C84.517-132.316,75.967-134,67-134s-17.517,1.684-25.65,5.05
					c-8.167,3.367-15.417,8.217-21.75,14.55C13.267-108.066,8.417-100.816,5.05-92.65z"/>
			</g>
			
				<use xlink:href="#zzz_x5F_miscellaneous_x2F_FlashAICB_copy_2_x2F_Layer_1_x2F__x3C_Path_x3E__x5F_2"  width="118.85" height="118.7" y="-118.7" transform="matrix(1 0 0 1 7.6001 -5.5)" style="overflow:visible;opacity:0.9102;enable-background:new    ;"/>
		</g>
	</g>
</symbol>
<symbol  id="Frames_x2F_level_08" viewBox="0 -171.35 171.4 171.35">
	<g id="Layer_1_2_">
		<g>
			<path style="fill-rule:evenodd;clip-rule:evenodd;fill:#6B757B;" d="M52.4-6.75C63-2.25,74.1,0,85.7,0
				c11.6,0,22.7-2.25,33.3-6.75c10.267-4.333,19.35-10.466,27.25-18.4c7.934-7.9,14.066-16.983,18.4-27.25
				c4.5-10.6,6.75-21.7,6.75-33.3s-2.25-22.7-6.75-33.3c-4.333-10.233-10.466-19.316-18.4-27.25c-7.9-7.9-16.983-14.017-27.25-18.35
				c-10.6-4.5-21.7-6.75-33.3-6.75c-11.6,0-22.7,2.25-33.3,6.75c-10.267,4.333-19.35,10.45-27.25,18.35
				c-7.933,7.934-14.066,17.017-18.4,27.25C2.25-108.4,0-97.3,0-85.7S2.25-63,6.75-52.4c4.333,10.267,10.467,19.35,18.4,27.25
				C33.05-17.216,42.133-11.083,52.4-6.75z"/>
			
				<linearGradient id="SVGID_2_" gradientUnits="userSpaceOnUse" x1="16047.6709" y1="-84.6533" x2="16219.0205" y2="-84.6533" gradientTransform="matrix(5.836008e-006 1 -1 -0.001 0.9526 -16219.1055)">
				<stop  offset="0" style="stop-color:#A38A14"/>
				<stop  offset="0.5098" style="stop-color:#CEB658"/>
				<stop  offset="0.6941" style="stop-color:#FCFCEF"/>
				<stop  offset="0.8706" style="stop-color:#F0E8B1"/>
			</linearGradient>
			<path style="fill-rule:evenodd;clip-rule:evenodd;fill:url(#SVGID_2_);" d="M52.4-6.75C63-2.25,74.1,0,85.7,0
				c11.6,0,22.7-2.25,33.3-6.75c10.267-4.333,19.35-10.466,27.25-18.4c7.934-7.9,14.066-16.983,18.4-27.25
				c4.5-10.6,6.75-21.7,6.75-33.3s-2.25-22.7-6.75-33.3c-4.333-10.233-10.466-19.316-18.4-27.25c-7.9-7.9-16.983-14.017-27.25-18.35
				c-10.6-4.5-21.7-6.75-33.3-6.75c-11.6,0-22.7,2.25-33.3,6.75c-10.267,4.333-19.35,10.45-27.25,18.35
				c-7.933,7.934-14.066,17.017-18.4,27.25C2.25-108.4,0-97.3,0-85.7S2.25-63,6.75-52.4c4.333,10.267,10.467,19.35,18.4,27.25
				C33.05-17.216,42.133-11.083,52.4-6.75z"/>
			<g>
				<g>
					
						<linearGradient id="SVGID_3_" gradientUnits="userSpaceOnUse" x1="16061.0205" y1="-84.6445" x2="16205.6709" y2="-84.6445" gradientTransform="matrix(6.912045e-006 1 -1 -0.001 0.9438 -16219.1055)">
						<stop  offset="0" style="stop-color:#E9E1AC"/>
						<stop  offset="1" style="stop-color:#D1B81F"/>
					</linearGradient>
					<path style="fill-rule:evenodd;clip-rule:evenodd;fill:url(#SVGID_3_);" d="M85.7-13.35c19.966,0,37.017-7.067,51.15-21.2
						c6.667-6.667,11.833-14.317,15.5-22.95c3.8-8.966,5.7-18.367,5.7-28.2c0-9.8-1.9-19.184-5.7-28.15
						c-3.667-8.667-8.833-16.333-15.5-23c-6.667-6.667-14.333-11.817-23-15.45c-8.967-3.8-18.35-5.7-28.15-5.7
						c-9.8,0-19.184,1.9-28.15,5.7c-8.667,3.633-16.333,8.783-23,15.45c-6.667,6.667-11.833,14.333-15.5,23
						c-3.8,8.966-5.7,18.35-5.7,28.15c0,9.833,1.9,19.233,5.7,28.2c3.667,8.633,8.833,16.284,15.5,22.95
						c6.667,6.7,14.333,11.867,23,15.5C66.517-15.25,75.9-13.35,85.7-13.35z"/>
				</g>
			</g>
		</g>
	</g>
</symbol>
<symbol  id="Letters_x2F_digit_0" viewBox="0 -27 19.05 27">
	<g id="Layer_1_20_">
		<path style="fill-rule:evenodd;clip-rule:evenodd;fill:#FFFFFF;" d="M2.05-22.05c0.133-0.233,0.284-0.467,0.45-0.7
			c1.633-2.5,3.967-3.75,7-3.75c3.067,0,5.433,1.25,7.1,3.75c0.133,0.233,0.267,0.467,0.4,0.7c1.3,2.267,1.983,5.033,2.05,8.3
			c0-3.5-0.683-6.433-2.05-8.8c-0.133-0.233-0.267-0.467-0.4-0.7C14.933-25.75,12.567-27,9.5-27c-3.033,0-5.367,1.25-7,3.75
			c-0.167,0.233-0.317,0.467-0.45,0.7C0.683-20.183,0-17.25,0-13.75C0.067-17.017,0.75-19.783,2.05-22.05z M5.7-11.4
			c0.233,4.333,1.5,6.5,3.8,6.5c2.333,0,3.633-2.167,3.9-6.5c-0.367,4-1.667,6-3.9,6C7.3-5.4,6.033-7.4,5.7-11.4z"/>
		
			<use xlink:href="#zzz_x5F_miscellaneous_x2F_digit_0x"  width="19.05" height="26.5" y="-26.5" style="overflow:visible;enable-background:new    ;"/>
		
			<use xlink:href="#zzz_x5F_miscellaneous_x2F_digit_0x"  width="19.05" height="26.5" y="-26.5" style="overflow:visible;opacity:0.4219;enable-background:new    ;"/>
	</g>
</symbol>
<symbol  id="Letters_x2F_digit_1" viewBox="0 -26.35 9.95 26.35">
	<g id="Layer_1_19_">
		<path style="fill-rule:evenodd;clip-rule:evenodd;fill:#FFFFFF;" d="M9.95-23.2v-0.35c0-0.867-0.25-1.567-0.75-2.1
			c-0.5-0.467-1.15-0.7-1.95-0.7s-1.45,0.233-1.95,0.7c-0.5,0.533-0.75,1.233-0.75,2.1v0.35c0.034-0.8,0.284-1.45,0.75-1.95
			c0.5-0.467,1.15-0.7,1.95-0.7s1.45,0.233,1.95,0.7C9.667-24.65,9.917-24,9.95-23.2z M0.55-4.2C1.017-4.733,1.65-5,2.45-5h2.1v-0.5
			h-2.1c-0.8,0-1.434,0.267-1.9,0.8C0.183-4.267,0-3.7,0-3c0,0.067,0,0.133,0,0.2C0.033-3.367,0.217-3.833,0.55-4.2z"/>
		
			<use xlink:href="#zzz_x5F_miscellaneous_x2F_digit_1x"  width="9.95" height="25.85" y="-25.85" style="overflow:visible;enable-background:new    ;"/>
		
			<use xlink:href="#zzz_x5F_miscellaneous_x2F_digit_1x"  width="9.95" height="25.85" y="-25.85" style="overflow:visible;opacity:0.4219;enable-background:new    ;"/>
	</g>
</symbol>
<symbol  id="Letters_x2F_digit_9" viewBox="0 -27 18.05 27">
	<g id="Layer_1_21_">
		<path style="fill-rule:evenodd;clip-rule:evenodd;fill:#FFFFFF;" d="M12.45-9.15c-0.034,0.933-0.333,1.717-0.9,2.35
			c-0.633,0.767-1.466,1.15-2.5,1.15c-1,0-1.833-0.367-2.5-1.1C5.983-7.417,5.667-8.217,5.6-9.15c0,0.066,0,0.15,0,0.25
			c0,1.033,0.316,1.917,0.95,2.65c0.667,0.733,1.5,1.1,2.5,1.1c1.034,0,1.867-0.383,2.5-1.15c0.6-0.7,0.9-1.567,0.9-2.6
			C12.45-9,12.45-9.083,12.45-9.15z M18.05-9.4c0-2.5-1.066-5.5-3.2-9c-1.067-1.8-2.2-3.417-3.4-4.85c-0.8-0.933-1.633-1.8-2.5-2.6
			c-0.1-0.1-0.483-0.4-1.15-0.9C7.533-26.917,7.167-27,6.7-27c-0.534,0-1.083,0.283-1.65,0.85c-0.6,0.566-0.9,1.167-0.9,1.8
			c0,0.067,0.017,0.133,0.05,0.2c0.066-0.533,0.35-1.033,0.85-1.5c0.567-0.567,1.117-0.85,1.65-0.85c0.466,0,0.833,0.083,1.1,0.25
			c0.667,0.5,1.05,0.8,1.15,0.9c0.867,0.8,1.7,1.667,2.5,2.6c1.2,1.433,2.333,3.05,3.4,4.85c2.066,3.4,3.133,6.316,3.2,8.75
			C18.05-9.217,18.05-9.3,18.05-9.4z M0-9.4c0,0.1,0,0.183,0,0.25c0.067-2.067,0.783-3.867,2.15-5.4C3.617-16.183,5.4-17,7.5-17
			c0.9,0,1.667,0.15,2.3,0.45l0.05-0.05c-0.133-0.2-0.283-0.417-0.45-0.65c-0.566-0.167-1.2-0.25-1.9-0.25
			c-2.1,0-3.883,0.817-5.35,2.45C0.717-13.45,0-11.567,0-9.4z"/>
		
			<use xlink:href="#zzz_x5F_miscellaneous_x2F_digit_9x"  width="18.05" height="26.5" y="-26.5" style="overflow:visible;enable-background:new    ;"/>
		
			<use xlink:href="#zzz_x5F_miscellaneous_x2F_digit_9x"  width="18.05" height="26.5" y="-26.5" style="overflow:visible;opacity:0.4219;enable-background:new    ;"/>
	</g>
</symbol>
<symbol  id="Symbol_1" viewBox="0.006 -8.563 6.58 8.545">
	<g id="Layer_1_8_">
		<g>
			
				<linearGradient id="SVGID_4_" gradientUnits="userSpaceOnUse" x1="-1465.626" y1="-14407.0527" x2="-1457.6881" y2="-14407.0527" gradientTransform="matrix(0.2016 -0.9795 0.9795 0.2016 14410.7686 1468.3037)">
				<stop  offset="0" style="stop-color:#A6A7A8"/>
				<stop  offset="1" style="stop-color:#4A4A4C"/>
			</linearGradient>
			<path style="fill-rule:evenodd;clip-rule:evenodd;fill:url(#SVGID_4_);" d="M5.1-2.55C5.067-2.45,5.033-2.367,5-2.3l0.3,0.1
				C5.267-1.9,5.117-1.583,4.85-1.25c-0.167,0.2-0.3,0.333-0.4,0.4C4.417-0.817,4.383-0.8,4.35-0.8L3.9-0.9
				C3.867-0.867,3.833-0.833,3.8-0.8c-0.033,0-0.066,0.017-0.1,0.05C3.233-0.383,2.767-0.2,2.3-0.2c0.2,0.067,0.4,0.117,0.6,0.15
				C3.633,0.083,4.35-0.2,5.05-0.9c0.7-0.667,1.167-1.583,1.4-2.75C6.683-4.783,6.617-5.8,6.25-6.7C5.883-7.633,5.333-8.167,4.6-8.3
				C4.4-8.333,4.2-8.367,4-8.4c0.167,0.066,0.317,0.15,0.45,0.25L5.1-7.4c0,0.033,0.017,0.066,0.05,0.1
				C5.183-7.167,5.233-7.033,5.3-6.9C5.667-6,5.733-4.983,5.5-3.85L5.45-3.5L5.375-3.25C5.292-3.008,5.2-2.775,5.1-2.55z"/>
			
				<linearGradient id="SVGID_5_" gradientUnits="userSpaceOnUse" x1="-1469.6201" y1="-14402.7373" x2="-1461.7067" y2="-14402.7373" gradientTransform="matrix(0.2022 -0.9793 0.9793 0.2022 14404.6719 1472.3164)">
				<stop  offset="0" style="stop-color:#D4D4D4"/>
				<stop  offset="1" style="stop-color:#B7B7B7"/>
			</linearGradient>
			<path style="fill-rule:evenodd;clip-rule:evenodd;fill:url(#SVGID_5_);" d="M5.05-2.55H5.1c0.1-0.225,0.191-0.458,0.275-0.7
				C5.284-3.009,5.175-2.775,5.05-2.55z M0.95-6.45v0.05C0.65-4.867,0.833-3.683,1.5-2.85c0.433,0.5,0.9,0.8,1.4,0.9
				C2.567-2.383,2.283-2.867,2.05-3.4C1.65-4.3,1.283-5.317,0.95-6.45z M3.5-8.55C2.933-8.617,2.383-8.433,1.85-8
				c0.066,0.667,0.333,1.55,0.8,2.65c0.467,1,0.95,1.8,1.45,2.4L4.6-2.5c0.1-0.333,0.2-0.7,0.3-1.1c0.233-1.133,0.167-2.15-0.2-3.05
				c-0.367-0.934-0.917-1.467-1.65-1.6c-0.167-0.067-0.433-0.067-0.8,0C2.65-8.483,3.067-8.583,3.5-8.55z"/>
			<path style="fill-rule:evenodd;clip-rule:evenodd;fill:#E6E6E6;" d="M5.05-2.55c0.125-0.226,0.234-0.459,0.325-0.7L5.45-3.5
				L5.5-3.85C5.733-4.983,5.667-6,5.3-6.9C5.233-7.033,5.183-7.167,5.15-7.3C5.117-7.333,5.1-7.367,5.1-7.4L4.45-8.15
				C4.317-8.25,4.167-8.333,4-8.4C3.933-8.433,3.867-8.467,3.8-8.5L3.5-8.55c-0.433-0.034-0.85,0.066-1.25,0.3
				c0.367-0.067,0.633-0.067,0.8,0c0.733,0.133,1.284,0.667,1.65,1.6c0.367,0.9,0.433,1.917,0.2,3.05C4.8-3.2,4.7-2.833,4.6-2.5
				l0.15,0.15l0.2,0.05C4.983-2.367,5.017-2.45,5.05-2.55z M3.7-1C3.433-0.7,3.133-0.467,2.8-0.3c0.3-0.1,0.6-0.25,0.9-0.45
				C3.733-0.783,3.767-0.8,3.8-0.8c0.034-0.034,0.067-0.067,0.1-0.1H3.75L3.7-1z"/>
			
				<linearGradient id="SVGID_6_" gradientUnits="userSpaceOnUse" x1="-3145.1123" y1="-5932.3369" x2="-3142.9697" y2="-5932.3369" gradientTransform="matrix(0.8284 -0.5601 0.5601 0.8284 5930.042 3149.4863)">
				<stop  offset="0" style="stop-color:#434343"/>
				<stop  offset="0.5098" style="stop-color:#838383"/>
				<stop  offset="1" style="stop-color:#434343"/>
			</linearGradient>
			<path style="fill-rule:evenodd;clip-rule:evenodd;fill:url(#SVGID_6_);" d="M1.85-8C1.55-7.833,1.3-7.583,1.1-7.25
				c1.033,2.733,1.683,4.367,1.95,4.9c0.2,0.367,0.4,0.65,0.6,0.85L3.9-1.25l0.55,0.4c0.1-0.066,0.233-0.2,0.4-0.4
				C5.117-1.583,5.267-1.9,5.3-2.2L5-2.3H4.95l-0.2-0.05L4.6-2.5L4.1-2.95c-0.5-0.6-0.983-1.4-1.45-2.4
				C2.183-6.45,1.917-7.333,1.85-8z"/>
			<path style="fill-rule:evenodd;clip-rule:evenodd;fill:#3B3B3B;" d="M1.1-7.25c-0.067,0.1-0.117,0.2-0.15,0.3l-0.1,0.2
				c0.033,0.1,0.066,0.2,0.1,0.3c0.333,1.133,0.7,2.15,1.1,3.05C2.283-2.867,2.567-2.383,2.9-1.95C3-1.783,3.1-1.633,3.2-1.5L3.7-1
				l0.05,0.1H3.9l0.45,0.1c0.033,0,0.066-0.017,0.1-0.05L3.9-1.25L3.65-1.5c-0.2-0.2-0.4-0.483-0.6-0.85
				C2.783-2.883,2.133-4.517,1.1-7.25z"/>
			
				<linearGradient id="SVGID_7_" gradientUnits="userSpaceOnUse" x1="-1469.6299" y1="-14403.041" x2="-1461.7164" y2="-14403.041" gradientTransform="matrix(0.2022 -0.9793 0.9793 0.2022 14404.6719 1472.3164)">
				<stop  offset="0" style="stop-color:#FFFFFF"/>
				<stop  offset="1" style="stop-color:#9E9E9E"/>
			</linearGradient>
			<path style="fill-rule:evenodd;clip-rule:evenodd;fill:url(#SVGID_7_);" d="M3.7-1L3.2-1.5C3.1-1.633,3-1.783,2.9-1.95
				c-0.5-0.1-0.967-0.4-1.4-0.9C0.833-3.683,0.65-4.867,0.95-6.4v-0.05c-0.034-0.1-0.067-0.2-0.1-0.3l0.1-0.2
				c-0.367,0.567-0.633,1.233-0.8,2c-0.233,1.133-0.183,2.167,0.15,3.1c0.367,0.9,0.917,1.434,1.65,1.6C2.083-0.217,2.2-0.2,2.3-0.2
				c0.467,0,0.934-0.183,1.4-0.55C3.4-0.55,3.1-0.4,2.8-0.3C3.133-0.467,3.433-0.7,3.7-1z M5.05-2.55
				c-0.033,0.1-0.066,0.183-0.1,0.25H5c0.033-0.067,0.067-0.15,0.1-0.25H5.05z"/>
		</g>
	</g>
</symbol>
<symbol  id="Symbol_2" viewBox="-2 -7.35 17.85 8.407">
	<g id="Layer_1_17_">
		
			<use xlink:href="#Symbol_4"  width="17.85" height="8.407" y="-8.4" transform="matrix(1 0 0 1 -2 1.0498)" style="overflow:visible;"/>
	</g>
</symbol>
<symbol  id="Symbol_3" viewBox="-1.898 -8.51 15.635 8.508">
	<g id="Layer_1_23_">
		<g>
			
				<linearGradient id="SVGID_8_" gradientUnits="userSpaceOnUse" x1="-1464.2334" y1="-14400.0322" x2="-1456.2955" y2="-14400.0322" gradientTransform="matrix(0.2016 -0.9795 0.9795 0.2016 14410.7686 1468.3037)">
				<stop  offset="0" style="stop-color:#D4D4D4"/>
				<stop  offset="1" style="stop-color:#696969"/>
			</linearGradient>
			<path style="fill-rule:evenodd;clip-rule:evenodd;fill:url(#SVGID_8_);" d="M11.25-1.05l-0.1,0.1l-0.3,0.25
				c-0.3,0.2-0.6,0.35-0.9,0.45C9.817-0.217,9.683-0.2,9.55-0.2c0.167,0.067,0.333,0.117,0.5,0.15c0.733,0.167,1.45-0.1,2.15-0.8
				c0.667-0.667,1.133-1.583,1.4-2.75c0.233-1.133,0.167-2.15-0.2-3.05c-0.367-0.934-0.917-1.467-1.65-1.6
				c-0.2-0.033-0.4-0.067-0.6-0.1c0.133,0.067,0.267,0.133,0.4,0.2l0.55,0.6c0.033,0.066,0.066,0.133,0.1,0.2
				c0.033,0.067,0.083,0.133,0.15,0.2c0.033,0.1,0.066,0.2,0.1,0.3c0.367,0.9,0.433,1.917,0.2,3.05
				C12.417-2.633,11.95-1.717,11.25-1.05z"/>
			
				<linearGradient id="SVGID_9_" gradientUnits="userSpaceOnUse" x1="-1468.2227" y1="-14395.9648" x2="-1460.3092" y2="-14395.9648" gradientTransform="matrix(0.2022 -0.9793 0.9793 0.2022 14404.6719 1472.3164)">
				<stop  offset="0" style="stop-color:#D4D4D4"/>
				<stop  offset="1" style="stop-color:#787878"/>
			</linearGradient>
			<path style="fill-rule:evenodd;clip-rule:evenodd;fill:url(#SVGID_9_);" d="M12.65-3.8c-0.2,0.9-0.55,1.683-1.05,2.35
				c-0.1,0.133-0.217,0.267-0.35,0.4C11.95-1.717,12.417-2.633,12.65-3.8z M10.65-8.5C9.95-8.567,9.3-8.283,8.7-7.65
				C8-6.95,7.533-6.033,7.3-4.9C7.067-3.767,7.133-2.733,7.5-1.8c0.333,0.9,0.867,1.433,1.6,1.6c0.133,0.034,0.283,0.034,0.45,0
				c0.133,0,0.267-0.017,0.4-0.05c1.1-0.633,1.8-1.733,2.1-3.3c0.233-1.133,0.167-2.167-0.2-3.1c-0.333-0.9-0.867-1.434-1.6-1.6
				C9.95-8.317,9.667-8.3,9.4-8.2C9.8-8.433,10.217-8.533,10.65-8.5z"/>
			<path style="fill-rule:evenodd;clip-rule:evenodd;fill:#E6E6E6;" d="M10.65-8.5C10.217-8.533,9.8-8.433,9.4-8.2
				c0.267-0.1,0.55-0.117,0.85-0.05c0.733,0.167,1.267,0.7,1.6,1.6c0.367,0.933,0.433,1.967,0.2,3.1c-0.3,1.566-1,2.667-2.1,3.3
				c0.3-0.1,0.6-0.25,0.9-0.45l0.3-0.25l0.1-0.1c0.133-0.133,0.25-0.267,0.35-0.4c0.5-0.667,0.85-1.45,1.05-2.35
				c0.233-1.133,0.167-2.15-0.2-3.05c-0.034-0.1-0.067-0.2-0.1-0.3c-0.067-0.067-0.117-0.133-0.15-0.2
				c-0.034-0.066-0.067-0.133-0.1-0.2l-0.55-0.6c-0.133-0.067-0.267-0.133-0.4-0.2c-0.066-0.033-0.133-0.066-0.2-0.1L10.65-8.5z"/>
		</g>
		
			<use xlink:href="#Symbol_5"  width="10.68" height="4.405" y="-4.417" transform="matrix(1.2449 -0.1362 0.1423 1.3002 -1.5 -1.8501)" style="overflow:visible;"/>
	</g>
</symbol>
<symbol  id="Symbol_4" viewBox="0 -8.4 17.85 8.407">
	<g id="Layer_1_7_">
		<g>
			<path style="fill-rule:evenodd;clip-rule:evenodd;fill:#474747;" d="M5.8-6.85C5.4-6.95,4.8-7.2,4-7.6L3.7-7.3
				C3.2-6.7,2.933-6.167,2.9-5.7L2.85-4.5l0.4,0.1l1,0.25H4.5L5.1-4.5c0.267-0.367,0.417-0.717,0.45-1.05l0.1-0.3
				c0.1-0.2,0.333-0.433,0.7-0.7l0.2-0.05c0.2-0.1,0.5-0.15,0.9-0.15h0.7c0.333,0,0.7,0.117,1.1,0.35c0.2,0.1,0.367,0.267,0.5,0.5
				H9.8c0.034,0.2,0.067,0.367,0.1,0.5l0.25,0.25l0.1,0.4v1.7c-0.1-0.067-0.167-0.15-0.2-0.25l-0.3,0.1l-0.5,0.3
				C9.283-2.7,9.333-2.517,9.4-2.35c0.267-0.1,0.517-0.3,0.75-0.6C10.117-2.617,9.967-2.267,9.7-1.9C9.6-1.8,9.55-1.717,9.55-1.65
				c0.034,0.167,0.083,0.3,0.15,0.4c0.066,0.1,0.133,0.2,0.2,0.3c0-0.533,0.083-0.867,0.25-1l0.1-0.1
				c0.133-0.1,0.35-0.117,0.65-0.05c0.067-0.066,0.15-0.2,0.25-0.4h-0.1c-0.1,0.033-0.233,0.033-0.4,0c-0.033,0-0.05-0.033-0.05-0.1
				c0-0.033,0.017-0.1,0.05-0.2c0.233-0.567,0.333-1.133,0.3-1.7v-0.4v-0.25c0-0.267,0.033-0.417,0.1-0.45
				c0.233-0.066,0.483-0.05,0.75,0.05c-0.167,0.066-0.35,0.117-0.55,0.15v0.2h0.15l0.2,0.05h0.05c0.167,0.066,0.333,0.25,0.5,0.55
				l0.3,0.6v0.15l0.1,0.1c0.034-0.067,0.133-0.1,0.3-0.1c0,0.333-0.033,0.7-0.1,1.1v0.8c-0.067-0.1-0.133-0.233-0.2-0.4l-0.1,0.25
				L12.4-2.05c0.1,0.066,0.15,0.283,0.15,0.65c0.034-0.067,0.067-0.1,0.1-0.1c0.067-0.067,0.2-0.067,0.4,0
				c0.133,0,0.217-0.1,0.25-0.3c-0.066,0.033-0.167,0.033-0.3,0c-0.033,0-0.067-0.034-0.1-0.1c0.067-0.133,0.117-0.317,0.15-0.55
				c0.133-0.466,0.184-0.867,0.15-1.2c0-0.233-0.05-0.45-0.15-0.65c0.2-0.3,0.517-0.317,0.95-0.05l0.15,0.05l0.15,0.4
				c0.067,0.1,0.167,0.233,0.3,0.4l0.1,0.55c0,0.2,0.017,0.367,0.05,0.5l0.05,0.1v1.45c0.133-0.2,0.25-0.45,0.35-0.75
				c0.067-0.267,0.1-0.5,0.1-0.7v-0.1l0.2-0.2c0.033-0.1,0.066-0.233,0.1-0.4l0.25,0.1l0.95,1.35c0.4,0.467,0.65,0.75,0.75,0.85
				h0.15l-0.4-0.3c-0.367-0.4-0.567-0.784-0.6-1.15c-0.033-0.4-0.2-0.816-0.5-1.25c-0.367-0.466-0.767-0.767-1.2-0.9l-0.3-0.1
				c-0.367-0.466-0.833-0.783-1.4-0.95c-0.267-0.1-0.55-0.15-0.85-0.15c-0.4-0.4-0.883-0.7-1.45-0.9c-0.267-0.1-0.567-0.15-0.9-0.15
				C9.95-6.667,9.867-6.75,9.8-6.85l-0.2-0.1c-0.4-0.233-1.067-0.283-2-0.15C6.533-6.933,5.933-6.85,5.8-6.85z M12.4-1.2
				c-0.133,0.167-0.25,0.267-0.35,0.3v0.1c0,0.033,0.017,0.083,0.05,0.15l0.2,0.15C12.3-0.767,12.333-1,12.4-1.2z M8.75-2.95
				L8.4-3.2L8.15-4c0-0.133,0.067-0.3,0.2-0.5l-0.1-0.1c-0.167-0.167-0.533-0.167-1.1,0c-0.233,0-0.417,0.033-0.55,0.1L6.55-4.45
				H6.4c0,0.067,0,0.117,0,0.15L6.35-4.05c0.066-0.067,0.333-0.1,0.8-0.1c0.233,0,0.417,0.083,0.55,0.25l0.45,0.75
				c0.167,0.333,0.367,0.467,0.6,0.4V-2.95z"/>
			<path style="fill-rule:evenodd;clip-rule:evenodd;fill:#787878;" d="M15.25-2.35h0.05c0.1,0,0.2,0.017,0.3,0.05v-0.15h0.35
				L16.6-1.6l0.2,0.5l0.4,0.3c0.233,0.167,0.45,0.267,0.65,0.3l-0.2-0.25H17.5c-0.1-0.1-0.35-0.383-0.75-0.85L15.8-2.95l-0.25-0.1
				c-0.033,0.167-0.066,0.3-0.1,0.4l-0.2,0.2V-2.35z M14.6-0.55c0.066-0.133,0.133-0.25,0.2-0.35v-1.45l-0.05-0.1
				c0.033,0.467,0.017,0.833-0.05,1.1l-0.1,0.6V-0.55z M11.25-5.2v-0.2c0.2-0.033,0.383-0.083,0.55-0.15
				c-0.267-0.1-0.517-0.117-0.75-0.05c-0.066,0.033-0.1,0.184-0.1,0.45L11.25-5.2z M13.65-3.3c-0.1-0.1-0.15-0.2-0.15-0.3h0.05
				c0-0.267,0.067-0.4,0.2-0.4c0.1-0.033,0.233,0,0.4,0.1c0.033,0,0.083,0,0.15,0l-0.15-0.4L14-4.35
				c-0.433-0.267-0.75-0.25-0.95,0.05c0.1,0.2,0.15,0.417,0.15,0.65c0.167,0.1,0.283,0.25,0.35,0.45c0.067,0.4,0.067,0.733,0,1
				c-0.033,0.267-0.117,0.4-0.25,0.4c-0.033,0.2-0.117,0.3-0.25,0.3c-0.2-0.067-0.333-0.067-0.4,0c-0.033,0-0.066,0.033-0.1,0.1
				l-0.1,0.15L12.4-1.2c-0.066,0.2-0.1,0.434-0.1,0.7l-0.2-0.15c0.3,0.566,0.75,0.767,1.35,0.6c-0.333,0.066-0.633,0.017-0.9-0.15
				l-0.2-0.15c0-0.5,0.133-0.75,0.4-0.75h0.6L14-1.6c0.1-0.2,0.1-0.55,0-1.05l-0.2-0.5L13.65-3.3z M12.45-3.85l0.1,1.5
				c0.067,0.167,0.133,0.3,0.2,0.4v-0.8c0.067-0.4,0.1-0.767,0.1-1.1c-0.167,0-0.267,0.033-0.3,0.1L12.45-3.85z M10.15-1.95
				c0.5,0,0.833-0.083,1-0.25l0.1-0.45c-0.033,0.098-0.099,0.148-0.2,0.15h0.1c-0.1,0.2-0.183,0.333-0.25,0.4
				c-0.3-0.066-0.517-0.05-0.65,0.05L10.15-1.95z M6.45-2.95C6.383-3.75,6.567-4.05,7-3.85c0.333,0.133,0.667,0.434,1,0.9
				c0.267,0.4,0.517,0.617,0.75,0.65c0.233,0,0.45-0.017,0.65-0.05C9.333-2.517,9.283-2.7,9.25-2.9l0.5-0.3l0.3-0.1
				c0.034,0.1,0.1,0.183,0.2,0.25v-1.7l-0.1-0.4L9.9-5.4C9.867-5.533,9.833-5.7,9.8-5.9H9.75c-0.133-0.233-0.3-0.4-0.5-0.5
				c-0.4-0.233-0.767-0.35-1.1-0.35h-0.7c-0.4,0-0.7,0.05-0.9,0.15l-0.2,0.05c-0.367,0.267-0.6,0.5-0.7,0.7l-0.1,0.3
				C5.517-5.217,5.367-4.867,5.1-4.5L4.5-4.15c0.1,0.066,0.25,0.066,0.45,0l0.6-0.05l0.1-0.1C5.883-4.5,6.033-4.683,6.1-4.85
				c0.2-0.4,0.316-0.683,0.35-0.85v-0.05c0.7,0,1.133-0.033,1.3-0.1C8.483-5.883,8.933-5.9,9.1-5.9c0.4,0.033,0.667,0.2,0.8,0.5
				C9.967-5.329,10-5.263,10-5.2c0.1,0.467-0.05,1-0.45,1.6C9.117-2.933,8.9-2.75,8.9-3.05V-3.2C8.867-3.1,8.817-3.017,8.75-2.95
				v0.2c-0.233,0.067-0.433-0.067-0.6-0.4L7.7-3.9C7.567-4.067,7.383-4.15,7.15-4.15c-0.467,0-0.733,0.033-0.8,0.1
				C6.317-3.683,6.35-3.317,6.45-2.95z M3.25-4.4l-0.4-0.1L2.9-5.7c0.033-0.466,0.3-1,0.8-1.6L4-7.6c0.8,0.4,1.4,0.65,1.8,0.75
				L2.5-8.4L0-5.15L3.25-4.4z M12.05-0.9c-0.1,0.066-0.167,0.117-0.2,0.15c0.033,0,0.1-0.017,0.2-0.05V-0.9z M9.9-0.95
				c0.267,0.267,0.583,0.417,0.95,0.45c-0.267-0.033-0.5-0.133-0.7-0.3L9.9-0.95z M7.95-4.85l-1.5,0.1h0.5L6.6-4.5
				c0.133-0.067,0.316-0.1,0.55-0.1c0.567-0.167,0.934-0.167,1.1,0l0.1,0.1c0.033-0.133,0.066-0.217,0.1-0.25L7.95-4.85z"/>
			<path style="fill-rule:evenodd;clip-rule:evenodd;fill:#D4D4D4;" d="M12.4-2.05h-0.05l-0.2,0.3c-0.066,0.1-0.183,0.217-0.35,0.35
				c-0.167,0.1-0.35,0.167-0.55,0.2L10.6-1.25L10.1-1.2l0.05,0.4c0.2,0.167,0.434,0.267,0.7,0.3c0.3,0.067,0.633-0.017,1-0.25
				c0.033-0.033,0.1-0.083,0.2-0.15c0.1-0.033,0.217-0.133,0.35-0.3l0.05-0.05l0.1-0.15C12.55-1.767,12.5-1.983,12.4-2.05z
				 M13.65-3.3l0.15,0.1c0.067,0.034,0.184,0.167,0.35,0.4l0.05-0.1c0-0.367-0.067-0.617-0.2-0.75
				c-0.233,0.033-0.383,0.05-0.45,0.05H13.5C13.5-3.5,13.55-3.4,13.65-3.3z M11.25-5.2l-0.3,0.05v0.25l0.2,0.2
				c0.067,0.133,0.117,0.217,0.15,0.25c0.167,0.3,0.233,0.583,0.2,0.85h0.4C11.967-3.7,12-3.85,12-4.05c0-0.1-0.033-0.233-0.1-0.4
				c-0.133-0.433-0.217-0.667-0.25-0.7H11.6L11.4-5.2H11.25z M15.6-2.3l-0.05,0.1l0.35,0.45c0.2,0.467,0.633,0.8,1.3,1V-0.8
				l-0.4-0.3l-0.2-0.5l-0.65-0.85H15.6V-2.3z M12.55-0.2c0.267,0.167,0.567,0.217,0.9,0.15c0.2,0,0.383-0.017,0.55-0.05l0.2-0.4
				c0.1-0.167,0.15-0.6,0.15-1.3c-0.167,0.4-0.333,0.683-0.5,0.85l-0.7,0.2h-0.5c-0.066,0.067-0.1,0.183-0.1,0.35V-0.2z M14.5-2.3
				c0.133-0.1,0.117-0.2-0.05-0.3c-0.1-0.133-0.133-0.083-0.1,0.15L14.5-2.3z M12.15-3.15c0-0.033-0.017-0.083-0.05-0.15
				c-0.033-0.034-0.1-0.05-0.2-0.05h-0.05c0,0.367,0.1,0.55,0.3,0.55V-3.15z M6.8-2.3C6.867-2.167,6.933-2.083,7-2.05
				C7.567-1.483,8.283-1.267,9.15-1.4L9.3-1.65C9.4-1.717,9.467-1.8,9.5-1.9v-0.05C9.567-2.117,9.55-2.233,9.45-2.3L9.4-2.2
				C9.233-2.033,8.983-1.95,8.65-1.95c-0.2,0-0.5-0.167-0.9-0.5C7.583-2.583,7.4-2.65,7.2-2.65C6.933-2.55,6.8-2.433,6.8-2.3z
				 M6.45-4.75l1.5-0.1H8.9C9.033-4.85,9.1-4.9,9.1-5c0.066-0.267-0.05-0.45-0.35-0.55C8.45-5.683,8.1-5.7,7.7-5.6
				c-0.3,0-0.65,0.15-1.05,0.45C6.517-5.083,6.45-4.95,6.45-4.75z M9.1-4.15c0,0.167,0.033,0.267,0.1,0.3h0.35V-4.5
				C9.517-4.567,9.467-4.6,9.4-4.6c-0.133,0-0.217,0.05-0.25,0.15C9.117-4.383,9.1-4.283,9.1-4.15z"/>
			<path style="fill-rule:evenodd;clip-rule:evenodd;fill:#9C9C9C;" d="M14.3-3.9c-0.066,0-0.117,0-0.15,0
				c-0.167-0.1-0.3-0.133-0.4-0.1c-0.133,0-0.2,0.133-0.2,0.4c0.067,0,0.217-0.017,0.45-0.05c0.133,0.133,0.2,0.383,0.2,0.75
				l-0.05,0.1c-0.167-0.233-0.283-0.367-0.35-0.4l-0.15-0.1l0.15,0.15l0.2,0.5c0.1,0.5,0.1,0.85,0,1.05l-0.65,0.5h-0.6
				c-0.267,0-0.4,0.25-0.4,0.75l0.2,0.15v-0.2c0-0.167,0.034-0.283,0.1-0.35h0.5l0.7-0.2c0.167-0.167,0.333-0.45,0.5-0.85
				c0,0.7-0.05,1.133-0.15,1.3L14-0.1l0.6-0.4v-0.05v-0.2l0.1-0.6c0.066-0.267,0.083-0.633,0.05-1.1c-0.033-0.133-0.05-0.3-0.05-0.5
				L14.6-3.5C14.467-3.667,14.367-3.8,14.3-3.9z M9.9-0.95l0.25,0.15L10.1-1.2l0.5-0.05l0.65,0.05c0.2-0.033,0.383-0.1,0.55-0.2
				c0.167-0.133,0.284-0.25,0.35-0.35l0.2-0.3h0.05l0.05-0.05l0.1-0.25l-0.1-1.5V-4l-0.3-0.6c-0.167-0.3-0.333-0.483-0.5-0.55
				c0.033,0.033,0.117,0.267,0.25,0.7c0.067,0.167,0.1,0.3,0.1,0.4c0,0.2-0.033,0.35-0.1,0.45h-0.4c0.033-0.267-0.033-0.55-0.2-0.85
				c-0.033-0.033-0.083-0.117-0.15-0.25l-0.2-0.2v0.4c0.066,0.033,0.15,0.083,0.25,0.15c0.033,0.1,0.05,0.2,0.05,0.3L11.3-3.9
				c0.1,0.367,0.083,0.75-0.05,1.15v0.1l-0.1,0.45c-0.167,0.167-0.5,0.25-1,0.25C9.983-1.817,9.9-1.483,9.9-0.95z M9.15-1.4l0.3-0.2
				H9.5l0.05-0.05C9.55-1.717,9.6-1.8,9.7-1.9c0.267-0.367,0.417-0.717,0.45-1.05c-0.233,0.3-0.483,0.5-0.75,0.6
				C9.2-2.317,8.983-2.3,8.75-2.3C8.517-2.333,8.267-2.55,8-2.95c-0.333-0.466-0.667-0.767-1-0.9c-0.433-0.2-0.617,0.1-0.55,0.9
				v0.05l0.1,0.15c0,0.067,0.017,0.117,0.05,0.15c0.033,0.1,0.1,0.2,0.2,0.3c0-0.133,0.133-0.25,0.4-0.35
				c0.2,0,0.383,0.066,0.55,0.2c0.4,0.333,0.7,0.5,0.9,0.5c0.333,0,0.583-0.083,0.75-0.25l0.05-0.1c0.1,0.066,0.117,0.183,0.05,0.35
				v0.05C9.467-1.8,9.4-1.717,9.3-1.65L9.15-1.4z M14.5-2.3l-0.15-0.15c-0.033-0.233,0-0.283,0.1-0.15
				C14.617-2.5,14.633-2.4,14.5-2.3z M12.15-3.15v0.35c-0.2,0-0.3-0.184-0.3-0.55h0.05c0.1,0,0.167,0.017,0.2,0.05
				C12.133-3.233,12.15-3.183,12.15-3.15z M5.55-4.2C5.817-4.267,6.1-4.35,6.4-4.45h0.15L6.6-4.5l0.35-0.25h-0.5
				c0-0.2,0.066-0.333,0.2-0.4C7.05-5.45,7.4-5.6,7.7-5.6c0.4-0.1,0.75-0.083,1.05,0.05C9.05-5.45,9.167-5.267,9.1-5
				c0,0.1-0.067,0.15-0.2,0.15H7.95l0.5,0.1c0.133,0,0.233,0.05,0.3,0.15C8.883-4.5,8.967-4.35,9-4.15C9-3.717,8.967-3.4,8.9-3.2
				v0.15c0,0.3,0.217,0.117,0.65-0.55C9.95-4.2,10.1-4.733,10-5.2c0-0.063-0.033-0.129-0.1-0.2C9.767-5.7,9.5-5.867,9.1-5.9
				c-0.167,0-0.617,0.017-1.35,0.05c-0.167,0.067-0.6,0.1-1.3,0.1v0.05C6.417-5.533,6.3-5.25,6.1-4.85
				C6.033-4.683,5.883-4.5,5.65-4.3L5.55-4.2z M9.1-4.15c0-0.133,0.017-0.233,0.05-0.3C9.183-4.55,9.267-4.6,9.4-4.6
				c0.067,0,0.117,0.033,0.15,0.1v0.65H9.2C9.133-3.883,9.1-3.983,9.1-4.15z"/>
		</g>
	</g>
</symbol>
<symbol  id="Symbol_5" viewBox="0 -4.417 10.68 4.405">
	<g id="Layer_1_18_">
		<use xlink:href="#Symbol_6"  width="10.68" height="4.405" y="-4.417" style="overflow:visible;"/>
	</g>
</symbol>
<symbol  id="Symbol_6" viewBox="0 -4.417 10.68 4.405">
	<g id="Layer_1_9_">
		<g>
			<path style="fill-rule:evenodd;clip-rule:evenodd;fill:#636363;" d="M8.8-1.95L9-1.9c0.367,0.066,0.6,0.15,0.7,0.25
				C9.8-1.483,9.817-1.267,9.75-1S9.567-0.533,9.4-0.4c0.1-0.067,0.233-0.167,0.4-0.3c0.4-0.333,0.667-0.683,0.8-1.05
				c0.133-0.333,0.1-0.65-0.1-0.95C10.3-2.967,10.067-3.067,9.8-3C9.333-2.833,9-2.483,8.8-1.95z"/>
			<path style="fill-rule:evenodd;clip-rule:evenodd;fill:#474747;" d="M7.6-0.95v0.3L7.75-0.9l0.1-0.2L7.9-1.25
				C8-1.317,8.017-1.517,7.95-1.85c0.066-0.066,0.2-0.05,0.4,0.05l0.5,0.2C9.217-1.533,9.433-1.333,9.5-1
				c0.033,0.167-0.05,0.383-0.25,0.65c0.033,0,0.067-0.017,0.1-0.05H9.4C9.567-0.533,9.683-0.733,9.75-1S9.8-1.483,9.7-1.65
				C9.6-1.75,9.367-1.833,9-1.9L8.45-2C8.183-2.167,7.967-2.3,7.8-2.4C7.7-2.6,7.533-2.8,7.3-3C7.033-3.233,6.683-3.4,6.25-3.5
				l-0.4-0.05L5.7-3.6H5.6C5.267-3.9,4.867-4.1,4.4-4.2L3.85-4.3H3.7L3.6-4.35C3.2-4.417,2.767-4.433,2.3-4.4L3-4.2l0.4,0.3
				c0.167,0.167,0.267,0.3,0.3,0.4l0.1,0.4V-2L3.75-1.95c-0.033,0.233-0.167,0.467-0.4,0.7c-0.1,0.033-0.15,0.1-0.15,0.2L3.25-1.1
				l0.1,0.2l0.2,0.25c0-0.333,0.067-0.55,0.2-0.65L3.8-1.35C3.933-1.417,4.117-1.433,4.35-1.4C4.45-1.467,4.5-1.567,4.5-1.7
				c-0.1,0.1-0.217,0.1-0.35,0l-0.1-0.05l0.1-0.1C4.317-2.183,4.4-2.567,4.4-3L4.35-3.05L4.4-3.2v-0.15c0-0.167,0.033-0.267,0.1-0.3
				C4.733-3.683,4.983-3.633,5.25-3.5C5.817-3.3,6.033-2.733,5.9-1.8v0.7l0.25-0.5c0.067-0.2,0.1-0.467,0.1-0.8l-0.1-0.35V-2.8
				C6.317-3.033,6.567-3.067,6.9-2.9l0.25,0.15l0.2,0.3L7.4-2.3l0.1,0.35C7.533-1.717,7.55-1.533,7.55-1.4L7.6-1.35V-0.95z M5.5-0.7
				L5.35-0.6H5.3l0.05,0.1L5.5-0.35V-0.7z M6.35-1.2h-0.3L6-1.25L5.9-1.1L5.8-1c0.067-0.033,0.184-0.033,0.35,0
				C6.25-1,6.317-1.067,6.35-1.2z M0.65-2.9L0.6-2.65C0.667-2.683,0.883-2.7,1.25-2.7c0.2,0,0.35,0.05,0.45,0.15
				c0.167,0.2,0.3,0.367,0.4,0.5c0.133,0.167,0.3,0.233,0.5,0.2v-0.1L2.3-2.1L2.15-2.4L2.1-2.45V-2.7l0.05-0.15l0.05-0.1h0.05
				l-0.1-0.1h-0.9L0.7-2.95L0.65-2.9z"/>
			<path style="fill-rule:evenodd;clip-rule:evenodd;fill:#787878;" d="M9.05-0.3c0.067,0,0.133-0.017,0.2-0.05
				C9.45-0.617,9.533-0.833,9.5-1C9.433-1.333,9.217-1.533,8.85-1.6l-0.5-0.2c-0.2-0.1-0.333-0.117-0.4-0.05
				C8.017-1.517,8-1.317,7.9-1.25L7.85-1.1l-0.1,0.2L7.9-0.85V-0.9l0.15-0.3c0.133-0.133,0.333-0.15,0.6-0.05
				c0.3,0.133,0.434,0.3,0.4,0.5c0,0.167-0.05,0.3-0.15,0.4C8.964-0.318,9.015-0.301,9.05-0.3z M7.4-2.3L7.35-2.45l-0.2-0.3L6.9-2.9
				C6.567-3.067,6.317-3.033,6.15-2.8v0.05l0.1,0.35C6.417-2.333,6.5-2.233,6.5-2.1c0.2,0.567,0.15,0.867-0.15,0.9
				C6.317-1.067,6.25-1,6.15-1C5.983-1.033,5.867-1.033,5.8-1l0.1-0.1v-0.7c0.133-0.934-0.083-1.5-0.65-1.7
				C4.983-3.633,4.733-3.683,4.5-3.65c-0.067,0.033-0.1,0.133-0.1,0.3L4.75-3.4l0.2,0.05C5.15-3.283,5.3-3.167,5.4-3
				c0.133,0.133,0.2,0.25,0.2,0.35c0.066,0.2,0.1,0.5,0.1,0.9L5.6-1.4v0.05c0.066,0.033,0.1,0.167,0.1,0.4l-0.05,0.1L5.625-0.825
				L5.5-0.7v0.35L5.55-0.3c0-0.3,0.117-0.45,0.35-0.45h0.5l0.5-0.3C7-1.183,7-1.417,6.9-1.75l-0.15-0.3L6.6-2.15l-0.1-0.2h0.05
				C6.55-2.517,6.6-2.6,6.7-2.6c0.1-0.033,0.216-0.017,0.35,0.05C7.117-2.517,7.167-2.5,7.2-2.5C7.3-2.433,7.367-2.367,7.4-2.3z
				 M7.55-1.4c0,0.167,0,0.3,0,0.4L7.6-0.95v-0.4L7.55-1.4z M3.75-1.3c0.4,0,0.667-0.05,0.8-0.15l0.1-0.35
				C4.583-1.733,4.533-1.7,4.5-1.7c0,0.133-0.05,0.233-0.15,0.3C4.117-1.433,3.933-1.417,3.8-1.35L3.75-1.3z M0.6-2.65
				c0,0.267,0.033,0.5,0.1,0.7c-0.067-0.5,0.083-0.7,0.45-0.6c0.233,0.1,0.5,0.3,0.8,0.6C2.183-1.683,2.4-1.533,2.6-1.5
				c0.433,0.033,0.816-0.117,1.15-0.45L3.8-2v-1.1L3.7-3.5C3.667-3.6,3.567-3.733,3.4-3.9L3-4.2L2.3-4.4L1.45-4.15L0.9-3.8h0.85
				c0.6-0.034,0.967-0.05,1.1-0.05C3.25-3.817,3.5-3.667,3.6-3.4c0.1,0.3-0.017,0.65-0.35,1.05C2.883-1.917,2.7-1.8,2.7-2v-0.1
				L2.6-1.95v0.1c-0.2,0.033-0.367-0.033-0.5-0.2C2-2.183,1.867-2.35,1.7-2.55C1.6-2.65,1.45-2.7,1.25-2.7
				C0.883-2.7,0.667-2.683,0.6-2.65z"/>
			<path style="fill-rule:evenodd;clip-rule:evenodd;fill:#9C9C9C;" d="M9.05-0.3C9.015-0.301,8.964-0.318,8.9-0.35
				c0.1-0.1,0.15-0.233,0.15-0.4c0.034-0.2-0.1-0.367-0.4-0.5c-0.267-0.1-0.467-0.083-0.6,0.05L7.9-0.9v0.05L7.75-0.9
				c0.2,0.1,0.483,0.267,0.85,0.5C8.765-0.334,8.916-0.3,9.05-0.3z M8.8-1.95L8.45-2L9-1.9L8.8-1.95z M8.6-0.4L8-0.8
				C7.967-0.867,7.967-0.917,8-0.95c0.067-0.167,0.183-0.167,0.35,0c0.3,0.1,0.45,0.3,0.45,0.6L8.6-0.4z M7.55-1.4
				c0-0.133-0.017-0.317-0.05-0.55L7.4-2.3C7.367-2.367,7.3-2.433,7.2-2.5c-0.034,0-0.083-0.017-0.15-0.05
				C6.917-2.617,6.8-2.633,6.7-2.6c-0.1,0-0.15,0.083-0.15,0.25c0.067,0,0.184-0.017,0.35-0.05C7-2.367,7.067-2.3,7.1-2.2v0.3
				L7.05-1.85C6.917-1.983,6.817-2.067,6.75-2.1L6.6-2.15l0.15,0.1l0.15,0.3C7-1.417,7-1.183,6.9-1.05l-0.5,0.3H5.9
				c-0.233,0-0.35,0.15-0.35,0.45v0.05l0.15,0.1V-0.3c0-0.1,0.033-0.167,0.1-0.2l0.4-0.05c0.233,0,0.417-0.05,0.55-0.15
				C6.95-0.767,7.1-0.95,7.2-1.25c0,0.5-0.034,0.8-0.1,0.9L6.9-0.2v0.1l0.2-0.1l0.25-0.2L7.5-0.9c0-0.033,0.017-0.067,0.05-0.1
				C7.55-1.1,7.55-1.233,7.55-1.4z M4.4-3.2V-3l0.1,0.1c0.1,0.033,0.15,0.117,0.15,0.25l0.1,0.4v0.05l-0.1,0.4l-0.1,0.35
				c-0.133,0.1-0.4,0.15-0.8,0.15c-0.133,0.1-0.2,0.316-0.2,0.65l0.2,0.1L3.7-0.8l0.4-0.05L4.65-0.8
				C4.983-0.867,5.233-0.983,5.4-1.15l0.15-0.2H5.6V-1.4l0.1-0.35c0-0.4-0.034-0.7-0.1-0.9c0-0.1-0.067-0.217-0.2-0.35
				C5.3-3.167,5.15-3.283,4.95-3.35L5.2-2.9c0.066,0.233,0.066,0.4,0,0.5H4.85C4.883-2.6,4.767-2.833,4.5-3.1L4.4-3.2z M2.9-1
				l0.25-0.05H3.2c0-0.1,0.05-0.167,0.15-0.2c0.233-0.233,0.367-0.467,0.4-0.7C3.417-1.617,3.033-1.467,2.6-1.5
				C2.4-1.533,2.183-1.683,1.95-1.95c-0.3-0.3-0.567-0.5-0.8-0.6c-0.367-0.1-0.517,0.1-0.45,0.6v0.05l0.1,0.2l0.15,0.15
				c0-0.133,0.117-0.2,0.35-0.2c0.167,0,0.317,0.05,0.45,0.15C2.083-1.4,2.333-1.3,2.5-1.3c0.367-0.1,0.583-0.184,0.65-0.25
				C3.25-1.517,3.267-1.433,3.2-1.3C3.167-1.2,3.117-1.133,3.05-1.1L2.9-1z M5.4-1.85c-0.167,0-0.25-0.117-0.25-0.35
				C5.317-2.233,5.4-2.167,5.4-2V-1.85z M7.2-1.6c-0.034-0.133,0-0.183,0.1-0.15c0.133,0.067,0.15,0.133,0.05,0.2L7.2-1.6z M0.9-3.8
				L0.6-3.55l-0.25,0.4c-0.1,0.167-0.2,0.267-0.3,0.3L0-2.8l0.65-0.15v0.05L0.7-2.95L1.1-3.1H0.7c0-0.133,0.05-0.217,0.15-0.25
				c0.333-0.2,0.617-0.3,0.85-0.3C2.033-3.717,2.317-3.7,2.55-3.6c0.233,0.067,0.333,0.184,0.3,0.35c0,0.067-0.05,0.1-0.15,0.1
				L1.6-3.2L1.55-3.15c0.367,0,0.633,0.017,0.8,0.05L2.6-3l0.05,0.1C2.683-2.867,2.733-2.8,2.8-2.7L2.75-2.4v0.05L2.7-2.1V-2
				c0,0.2,0.183,0.083,0.55-0.35C3.583-2.75,3.7-3.1,3.6-3.4C3.5-3.667,3.25-3.817,2.85-3.85c-0.133,0-0.5,0.017-1.1,0.05H0.9z
				 M2.95-2.55c-0.067,0-0.1-0.05-0.1-0.15c0-0.133,0.017-0.216,0.05-0.25c0.167-0.167,0.283-0.167,0.35,0v0.4H2.95z"/>
			<path style="fill-rule:evenodd;clip-rule:evenodd;fill:#D4D4D4;" d="M8.6-0.4l0.2,0.05c0-0.3-0.15-0.5-0.45-0.6
				C8.183-1.117,8.067-1.117,8-0.95C7.967-0.917,7.967-0.867,8-0.8L8.6-0.4z M5.4-1.85V-2c0-0.167-0.083-0.233-0.25-0.2
				C5.15-1.967,5.233-1.85,5.4-1.85z M4.4-3.2l0.1,0.1c0.267,0.267,0.383,0.5,0.35,0.7H5.2c0.066-0.1,0.066-0.267,0-0.5L4.95-3.35
				L4.75-3.4L4.4-3.35V-3.2z M5.7-0.15C6.1,0.017,6.5,0.033,6.9-0.1v-0.1l0.2-0.15c0.066-0.1,0.1-0.4,0.1-0.9
				C7.1-0.95,6.95-0.767,6.75-0.7C6.617-0.6,6.433-0.55,6.2-0.55L5.8-0.5C5.733-0.467,5.7-0.4,5.7-0.3V-0.15z M6.55-2.35H6.5
				l0.1,0.2L6.75-2.1c0.067,0.033,0.167,0.117,0.3,0.25L7.1-1.9v-0.3C7.067-2.3,7-2.367,6.9-2.4C6.733-2.367,6.617-2.35,6.55-2.35z
				 M3.75-0.55C3.917-0.45,4.067-0.4,4.2-0.4c0.167,0.066,0.333,0.066,0.5,0c0.233-0.033,0.433-0.1,0.6-0.2h0.05
				c0.101-0.07,0.192-0.145,0.275-0.225L5.65-0.85l0.05-0.1c0-0.233-0.034-0.367-0.1-0.4H5.55L5.4-1.15
				C5.233-0.983,4.983-0.867,4.65-0.8L4.1-0.85L3.7-0.8L3.75-0.55z M7.2-1.6l0.15,0.05c0.1-0.067,0.083-0.133-0.05-0.2
				C7.2-1.783,7.167-1.733,7.2-1.6z M0.95-1.55c0.367,0.4,0.833,0.6,1.4,0.6h0.1L2.9-1l0.15-0.1C3.117-1.133,3.167-1.2,3.2-1.3
				c0.066-0.133,0.05-0.217-0.05-0.25C3.083-1.483,2.867-1.4,2.5-1.3c-0.167,0-0.417-0.1-0.75-0.3C1.617-1.7,1.467-1.75,1.3-1.75
				C1.067-1.75,0.95-1.683,0.95-1.55z M2.95-2.55h0.3v-0.4c-0.067-0.167-0.183-0.167-0.35,0C2.867-2.917,2.85-2.833,2.85-2.7
				C2.85-2.6,2.883-2.55,2.95-2.55z M0.7-3.1l0.85-0.05L1.6-3.2l1.1,0.05c0.1,0,0.15-0.033,0.15-0.1
				c0.033-0.167-0.067-0.283-0.3-0.35C2.317-3.7,2.033-3.717,1.7-3.65c-0.233,0-0.517,0.1-0.85,0.3C0.75-3.317,0.7-3.233,0.7-3.1z"
				/>
		</g>
	</g>
</symbol>
<symbol  id="flash0.ai_x5F_2_x2F_Layer_1_x2F__x3C_Compound_Path_x3E_" viewBox="-0.009 -64.65 90.309 64.677">
	<g id="Layer_1_6_">
		<path style="fill-rule:evenodd;clip-rule:evenodd;fill:#B3BCE6;" d="M85.05-58.8c2.167,2.3,3.25,5.017,3.25,8.15
			c0,4.033-0.683,8.066-2.05,12.1c-1.733,5.1-4.05,7.816-6.95,8.15c-2.7,0.3-5.35,0.316-7.95,0.05L68.3-30.9
			c-0.367,1.867-1.017,3.8-1.95,5.8c-1.833,3.934-4.1,6.167-6.8,6.7c-2.7,0.533-5.05,1.15-7.05,1.85l-2.2,0.9
			c-0.2,0.467-0.483,0.933-0.85,1.4c-0.7,0.967-1.417,1.5-2.15,1.6c-0.733,0.1-1.617,0.083-2.65-0.05l-1.35-0.2
			c0,0.867-0.066,1.816-0.2,2.85c-0.3,2.033-0.817,3.417-1.55,4.15c-1.267,1.267-3.333,2.383-6.2,3.35
			c-3.633,1.267-6.817,1.4-9.55,0.4c-2.8-1-5.35-3.633-7.65-7.9c-1.9-3.467-3.017-6.583-3.35-9.35c-0.2-1.767,0.233-3.8,1.3-6.1
			c0.566-1.133,1.133-2.1,1.7-2.9c-1.533,0.2-3.267,0.15-5.2-0.15c-3.833-0.567-6.684-2.1-8.55-4.6
			C1.683-36.317,0.7-40.633,1.1-46.1c0.433-5.733,2.333-9.917,5.7-12.55c3.1-2.434,6.85-3.367,11.25-2.8
			c3.633,0.5,6.133,1.517,7.5,3.05c0.833,0.933,2.467,1.583,4.9,1.95c1.2,0.2,2.316,0.3,3.35,0.3L36.85-58
			c2.6-1.3,5.417-2.1,8.45-2.4c3.034-0.3,5.9-0.184,8.6,0.35c1.367,0.267,2.417,0.566,3.15,0.9l2.75-0.45c2-0.3,3.417-0.4,4.25-0.3
			c1.333,0.167,2.75,0.417,4.25,0.75l1.5-1.65c1.6-1.067,3.85-1.6,6.75-1.6C79.95-62.4,82.783-61.2,85.05-58.8z M90.3-52.15
			c0-3.3-1.133-6.184-3.4-8.65c-2.367-2.567-5.3-3.85-8.8-3.85c-3.033,0-5.367,0.583-7,1.75l-1.55,1.75
			c-1.566-0.367-3.05-0.633-4.45-0.8c-0.867-0.133-2.333-0.033-4.4,0.3l-2.85,0.5c-0.767-0.367-1.85-0.7-3.25-1
			c-2.833-0.567-5.817-0.684-8.95-0.35s-6.05,1.183-8.75,2.55L33.75-58c-1.067,0-2.233-0.1-3.5-0.3c-2.5-0.4-4.183-1.1-5.05-2.1
			c-1.467-1.633-4.067-2.7-7.8-3.2c-4.566-0.633-8.45,0.35-11.65,2.95c-3.467,2.8-5.367,7.4-5.7,13.8
			c-0.333,6.1,0.75,10.833,3.25,14.2c1.934,2.667,4.684,4.383,8.25,5.15c1.767,0.367,3.35,0.483,4.75,0.35
			c-0.533,0.566-1.066,1.333-1.6,2.3c-1,1.934-1.383,3.833-1.15,5.7c0.3,2.867,1.534,6.217,3.7,10.05
			c2.533,4.567,5.267,7.383,8.2,8.45c2.867,1.033,6.167,0.883,9.9-0.45c2.933-1,5.083-2.183,6.45-3.55c1.2-1.233,2.117-3.567,2.75-7
			L46-11.4c1.1,0.133,2.033,0.133,2.8,0c0.767-0.1,1.45-0.667,2.05-1.7c0.3-0.533,0.533-1.05,0.7-1.55L53-15.5
			c1.567-0.7,3.75-1.333,6.55-1.9c2.8-0.533,5.35-2.567,7.65-6.1c1.133-1.767,2-3.483,2.6-5.15l2.7,0.15c2.4,0.067,5-0.067,7.8-0.4
			c2.967-0.333,5.467-3.517,7.5-9.55C89.467-43.35,90.3-47.917,90.3-52.15z"/>
	</g>
</symbol>
<symbol  id="flash0.ai_x5F_2_x2F_Layer_1_x2F__x3C_Path_x3E_" viewBox="0.013 -60.9 87.286 60.912">
	<g id="Layer_1_5_">
		
			<linearGradient id="SVGID_10_" gradientUnits="userSpaceOnUse" x1="16160.1758" y1="-42.5146" x2="16217.4512" y2="-42.5146" gradientTransform="matrix(1.745962e-005 1 -1 -0.001 0.8594 -16219.1045)">
			<stop  offset="0.0078" style="stop-color:#0F1017"/>
			<stop  offset="0.2" style="stop-color:#323445"/>
			<stop  offset="0.7529" style="stop-color:#959ACA"/>
			<stop  offset="0.9961" style="stop-color:#BDC3FF"/>
		</linearGradient>
		<path style="fill-rule:evenodd;clip-rule:evenodd;fill:url(#SVGID_10_);" d="M85.25-37.05c1.367-4.034,2.05-8.067,2.05-12.1
			c0-3.133-1.083-5.85-3.25-8.15c-2.267-2.4-5.1-3.6-8.5-3.6c-2.9,0-5.15,0.533-6.75,1.6l-1.5,1.65
			c-1.5-0.333-2.917-0.583-4.25-0.75c-0.833-0.1-2.25,0-4.25,0.3l-2.75,0.45c-0.733-0.333-1.783-0.633-3.15-0.9
			c-2.7-0.534-5.566-0.65-8.6-0.35c-3.033,0.3-5.85,1.1-8.45,2.4l-3.05,1.85c-1.033,0-2.15-0.1-3.35-0.3
			c-2.434-0.367-4.067-1.017-4.9-1.95c-1.367-1.533-3.867-2.55-7.5-3.05c-4.4-0.566-8.15,0.367-11.25,2.8
			c-3.367,2.633-5.267,6.816-5.7,12.55c-0.4,5.467,0.583,9.783,2.95,12.95c1.867,2.5,4.717,4.033,8.55,4.6
			c1.933,0.3,3.667,0.35,5.2,0.15c-0.566,0.8-1.133,1.767-1.7,2.9c-1.067,2.3-1.5,4.333-1.3,6.1c0.333,2.767,1.45,5.883,3.35,9.35
			c2.3,4.267,4.85,6.9,7.65,7.9c2.733,1,5.917,0.867,9.55-0.4c2.867-0.967,4.933-2.083,6.2-3.35c0.733-0.733,1.25-2.117,1.55-4.15
			c0.133-1.034,0.2-1.983,0.2-2.85l1.35,0.2c1.033,0.133,1.917,0.15,2.65,0.05c0.733-0.1,1.45-0.633,2.15-1.6
			c0.367-0.467,0.65-0.933,0.85-1.4l2.2-0.9c2-0.7,4.35-1.317,7.05-1.85c2.7-0.533,4.967-2.767,6.8-6.7
			c0.933-2,1.583-3.933,1.95-5.8l3.05,0.55c2.6,0.267,5.25,0.25,7.95-0.05C81.2-29.233,83.517-31.95,85.25-37.05z"/>
	</g>
</symbol>
<symbol  id="zz_x5F_Highlight_x2F_Highlight_Piece" viewBox="0 -115.9 118.7 115.9">
	<g id="Layer_1_22_">
		<g>
			
				<use xlink:href="#zzz_x5F_miscellaneous_x2F_FlashAICB_copy_x2F_Layer_1_x2F__x3C_Path_x3E__x5F_2"  width="118.7" height="57.1" y="-57.1" transform="matrix(1 0 0 1 0 -58.7998)" style="overflow:visible;opacity:0.2813;enable-background:new    ;"/>
			
				<use xlink:href="#zzz_x5F_miscellaneous_x2F_FlashAICB_copy_x2F_Layer_1_x2F__x3C_Path_x3E__x5F_1"  width="110.05" height="55.75" y="-55.75" transform="matrix(1 0 0 1 4.1499 0)" style="overflow:visible;opacity:0.1094;enable-background:new    ;"/>
			
				<use xlink:href="#zzz_x5F_miscellaneous_x2F_FlashAICB_copy_x2F_Layer_1_x2F__x3C_Path_x3E_"  width="110.05" height="61.294" y="-61.294" transform="matrix(1 0 0 1 4.1499 0)" style="overflow:visible;opacity:0.0898;enable-background:new    ;"/>
		</g>
	</g>
</symbol>
<symbol  id="zzz_x5F_miscellaneous_x2F_FlashAICB_copy_2_x2F_Layer_1_x2F__x3C_Path_x3E__x5F_2" viewBox="0 -118.7 118.85 118.7">
	<g id="Layer_1_3_">
		
			<radialGradient id="SVGID_11_" cx="59.4248" cy="-59.3501" r="59.3876" gradientTransform="matrix(1 0 0 -1 0 -118.7002)" gradientUnits="userSpaceOnUse">
			<stop  offset="0.1412" style="stop-color:#92A4BA"/>
			<stop  offset="0.5569" style="stop-color:#7483AD;stop-opacity:0.9725"/>
			<stop  offset="1" style="stop-color:#5763A0;stop-opacity:0.949"/>
		</radialGradient>
		<path style="fill-rule:evenodd;clip-rule:evenodd;fill:url(#SVGID_11_);" d="M118.85-59.35c0-16.367-5.8-30.35-17.4-41.95
			c-11.6-11.6-25.617-17.4-42.05-17.4c-16.4,0-30.4,5.8-42,17.4C5.8-89.7,0-75.717,0-59.35S5.8-29,17.4-17.4S43,0,59.4,0
			c16.434,0,30.45-5.8,42.05-17.4C113.05-29,118.85-42.983,118.85-59.35z"/>
	</g>
</symbol>
<symbol  id="zzz_x5F_miscellaneous_x2F_FlashAICB_copy_x2F_Layer_1_x2F__x3C_Path_x3E_" viewBox="0 -61.294 110.05 61.294">
	<g id="Layer_1_15_">
		<path style="fill-rule:evenodd;clip-rule:evenodd;fill:#FFFFFF;" d="M106.5-34.35c2.367-5.633,3.55-10.95,3.55-15.95
			c0-4.934-1.45-8.05-4.35-9.35c-2.333-1.033-6.25-1.017-11.75,0.05c-7.3,1.767-13.133,3.117-17.5,4.05
			C68.417-53.85,61.267-53,55-53c-6.3,0-13.433-0.917-21.4-2.75c-8.333-2.2-14.167-3.683-17.5-4.45
			c-5.533-1.267-9.45-1.433-11.75-0.5C1.45-59.5,0-56.433,0-51.5c0,5.5,1.167,11.167,3.5,17c2.467,6.167,5.95,11.733,10.45,16.7
			C24.65-5.933,38.333,0,55,0c16.467,0,30.15-5.983,41.05-17.95C100.517-22.883,104-28.35,106.5-34.35z"/>
	</g>
</symbol>
<symbol  id="zzz_x5F_miscellaneous_x2F_FlashAICB_copy_x2F_Layer_1_x2F__x3C_Path_x3E__x5F_1" viewBox="0 -55.75 110.05 55.75">
	<g id="Layer_1_14_">
		
			<linearGradient id="SVGID_12_" gradientUnits="userSpaceOnUse" x1="16163.2637" y1="-53.8804" x2="16219.0391" y2="-53.8804" gradientTransform="matrix(1.792918e-005 1 -1 -0.001 0.8545 -16219.1055)">
			<stop  offset="0.1294" style="stop-color:#D9BBB3"/>
			<stop  offset="0.9255" style="stop-color:#FFFFFF"/>
		</linearGradient>
		<path style="fill-rule:evenodd;clip-rule:evenodd;fill:url(#SVGID_12_);" d="M96.05-17.95c4.467-4.933,7.95-10.4,10.45-16.4
			c2.367-5.633,3.55-10.95,3.55-15.95c0-1.567-0.167-3.05-0.5-4.45c-1.867,11.067-7.267,20.9-16.2,29.5
			C82.783-15.117,70-10.05,55-10.05c-15.233,0-28.067-5.05-38.5-15.15C7.533-33.9,2.183-44.083,0.45-55.75
			C0.15-54.617,0-53.2,0-51.5c0,5.5,1.167,11.167,3.5,17c2.467,6.167,5.95,11.733,10.45,16.7C24.65-5.933,38.333,0,55,0
			C71.467,0,85.15-5.983,96.05-17.95z"/>
	</g>
</symbol>
<symbol  id="zzz_x5F_miscellaneous_x2F_FlashAICB_copy_x2F_Layer_1_x2F__x3C_Path_x3E__x5F_2" viewBox="0 -57.1 118.7 57.1">
	<g id="Layer_1_13_">
		
			<radialGradient id="SVGID_13_" cx="59.3501" cy="-28.5498" r="46.5701" gradientTransform="matrix(1 0 0 -1 0 -57.0996)" gradientUnits="userSpaceOnUse">
			<stop  offset="0" style="stop-color:#000000;stop-opacity:0"/>
			<stop  offset="0.651" style="stop-color:#000000;stop-opacity:0.4"/>
		</radialGradient>
		<path style="fill-rule:evenodd;clip-rule:evenodd;fill:url(#SVGID_13_);" d="M95.5-30.35c10.733,7.7,18.3,17.733,22.7,30.1
			L118.7,0c-0.567-15.9-6.6-29.383-18.1-40.45C89.1-51.55,75.333-57.1,59.3-57.1c-15.7,0-29.267,5.367-40.7,16.1
			C7.2-30.333,1-17.233,0-1.7c4.6-12,12.183-21.683,22.75-29.05c10.833-7.567,22.867-11.35,36.1-11.35
			C72.35-42.1,84.567-38.183,95.5-30.35z"/>
	</g>
</symbol>
<symbol  id="zzz_x5F_miscellaneous_x2F_digit_0x" viewBox="0 -26.5 19.05 26.5">
	<g id="Layer_1_11_">
		<linearGradient id="SVGID_14_" gradientUnits="userSpaceOnUse" x1="9.5249" y1="-22.7749" x2="9.5249" y2="-3.7249">
			<stop  offset="0.0745" style="stop-color:#000000;stop-opacity:0.9882"/>
			<stop  offset="0.9647" style="stop-color:#000000;stop-opacity:0.651"/>
		</linearGradient>
		<path style="fill-rule:evenodd;clip-rule:evenodd;fill:url(#SVGID_14_);" d="M9.5,0c3.333,0,5.833-1.467,7.5-4.4
			c1.367-2.367,2.05-5.317,2.05-8.85c0-3.5-0.683-6.433-2.05-8.8c-0.133-0.233-0.267-0.467-0.4-0.7c-1.667-2.5-4.033-3.75-7.1-3.75
			c-3.033,0-5.367,1.25-7,3.75c-0.167,0.233-0.317,0.467-0.45,0.7C0.683-19.683,0-16.75,0-13.25S0.683-6.8,2.05-4.4
			C3.717-1.467,6.2,0,9.5,0z M9.5-21.6c2.633,0,3.95,2.783,3.95,8.35S12.133-4.9,9.5-4.9c-2.6,0-3.9-2.783-3.9-8.35
			S6.9-21.6,9.5-21.6z"/>
	</g>
</symbol>
<symbol  id="zzz_x5F_miscellaneous_x2F_digit_1x" viewBox="0 -25.85 9.95 25.85">
	<g id="Layer_1_10_">
		<linearGradient id="SVGID_15_" gradientUnits="userSpaceOnUse" x1="4.9751" y1="-17.9248" x2="4.9751" y2="-7.9748">
			<stop  offset="0.0745" style="stop-color:#000000;stop-opacity:0.9882"/>
			<stop  offset="0.9647" style="stop-color:#000000;stop-opacity:0.651"/>
		</linearGradient>
		<path style="fill-rule:evenodd;clip-rule:evenodd;fill:url(#SVGID_15_);" d="M0.55-4.2C0.183-3.767,0-3.2,0-2.5
			c0,0.667,0.217,1.233,0.65,1.7C1.117-0.267,1.717,0,2.45,0h5.1c0.767,0,1.367-0.25,1.8-0.75c0.4-0.467,0.6-1.083,0.6-1.85v-20.45
			c0-0.867-0.25-1.567-0.75-2.1c-0.5-0.467-1.15-0.7-1.95-0.7s-1.45,0.233-1.95,0.7c-0.5,0.533-0.75,1.233-0.75,2.1V-5h-2.1
			C1.65-5,1.017-4.733,0.55-4.2z"/>
	</g>
</symbol>
<symbol  id="zzz_x5F_miscellaneous_x2F_digit_9x" viewBox="0 -26.5 18.05 26.5">
	<g id="Layer_1_12_">
		<linearGradient id="SVGID_16_" gradientUnits="userSpaceOnUse" x1="9.0249" y1="-22.2749" x2="9.0249" y2="-4.2249">
			<stop  offset="0.0745" style="stop-color:#000000;stop-opacity:0.9882"/>
			<stop  offset="0.9647" style="stop-color:#000000;stop-opacity:0.651"/>
		</linearGradient>
		<path style="fill-rule:evenodd;clip-rule:evenodd;fill:url(#SVGID_16_);" d="M18.05-8.9c0-2.5-1.066-5.5-3.2-9
			c-1.067-1.8-2.2-3.417-3.4-4.85c-0.8-0.933-1.633-1.8-2.5-2.6c-0.1-0.1-0.483-0.4-1.15-0.9c-0.267-0.167-0.633-0.25-1.1-0.25
			c-0.534,0-1.083,0.283-1.65,0.85c-0.6,0.566-0.9,1.167-0.9,1.8c0,0.3,0.167,0.667,0.5,1.1c0.067,0.1,0.15,0.217,0.25,0.35
			c2.5,2.733,4.15,4.667,4.95,5.8L9.8-16.55C9.167-16.85,8.4-17,7.5-17c-2.1,0-3.883,0.817-5.35,2.45C0.717-12.95,0-11.067,0-8.9
			c0,2.4,0.833,4.467,2.5,6.2C4.267-0.9,6.45,0,9.05,0c2.7,0,4.9-0.883,6.6-2.65C17.25-4.35,18.05-6.433,18.05-8.9z M11.55-6.3
			c-0.633,0.767-1.466,1.15-2.5,1.15c-1,0-1.833-0.367-2.5-1.1C5.917-6.983,5.6-7.867,5.6-8.9s0.283-1.9,0.85-2.6
			c0.633-0.767,1.5-1.15,2.6-1.15c1,0,1.817,0.35,2.45,1.05c0.633,0.7,0.95,1.6,0.95,2.7C12.45-7.867,12.15-7,11.55-6.3z"/>
	</g>
</symbol>
<symbol  id="zzz_x5F_miscellaneous_x2F_laurel_raw" viewBox="-0.017 -31.3 12.173 31.3">
	<g id="Layer_1_4_">
		<path style="fill-rule:evenodd;clip-rule:evenodd;fill:#EFEFEF;" d="M9.05-10.8c-0.7,0.333-1.183,1.05-1.45,2.15
			C7.533-8.25,7.467-7.867,7.4-7.5C7.367-6.9,7.383-6.283,7.45-5.65c0.2,1.167,0.633,2.25,1.3,3.25c0.567,1,1.267,1.75,2.1,2.25
			c0.1,0.033,0.167,0.066,0.2,0.1c-0.033-0.067-0.083-0.133-0.15-0.2c-0.066-0.1-0.15-0.2-0.25-0.3
			c-0.333-0.5-0.583-1.117-0.75-1.85C9.767-3,9.683-3.9,9.65-5.1C9.583-7.433,9.4-9.267,9.1-10.6C9.067-10.633,9.05-10.7,9.05-10.8z
			 M4.875-9.1C4.79-9.135,4.731-9.169,4.7-9.2C4.133-8.633,3.95-7.8,4.15-6.7c0.2,1,0.55,1.934,1.05,2.8
			c0.667,1.033,1.517,1.883,2.55,2.55c1,0.7,2.033,1.117,3.1,1.25c-0.067-0.033-0.117-0.066-0.15-0.1l-0.1-0.05
			C9.933-0.583,9.333-1.1,8.8-1.8C8.5-2.267,8.033-3.05,7.4-4.15C6.667-6.017,5.833-7.633,4.9-9v-0.1H4.875z M6.35-19.9
			c-0.033-0.233-0.05-0.417-0.05-0.55c-0.733,0.2-1.333,0.817-1.8,1.85c-0.2,0.367-0.333,0.7-0.4,1c-0.167,0.6-0.3,1.217-0.4,1.85
			c0.033,1.2,0.25,2.367,0.65,3.5c0.433,1.033,1,1.883,1.7,2.55c0.055,0.055,0.113,0.088,0.175,0.1C6.169-9.612,6.127-9.646,6.1-9.7
			c-0.067-0.2-0.15-0.383-0.25-0.55c-0.2-0.533-0.317-1.133-0.35-1.8c0-0.534,0.083-1.417,0.25-2.65
			C6.15-16.733,6.35-18.467,6.35-19.9z M1.8-19.6c-0.033-0.066-0.066-0.117-0.1-0.15c-0.567,0.433-0.883,1.25-0.95,2.45
			c-0.033,0.966,0.117,1.933,0.45,2.9c0.5,1.133,1.167,2.133,2,3C4.067-10.533,5-9.95,6-9.65c-0.233-0.167-0.45-0.333-0.65-0.5
			c-0.367-0.434-0.7-0.934-1-1.5c-0.267-0.533-0.567-1.4-0.9-2.6C2.917-16.55,2.367-18.333,1.8-19.6z M3.3-21.05v-0.1
			c-0.033-0.5,0.017-1.033,0.15-1.6c0.167-0.633,0.517-1.483,1.05-2.55c0.367-0.733,0.7-1.434,1-2.1
			c0.467-1.1,0.817-2.083,1.05-2.95c0.067-0.1,0.1-0.2,0.1-0.3c-0.767,0-1.533,0.417-2.3,1.25c-0.233,0.3-0.45,0.6-0.65,0.9
			c-0.267,0.333-0.483,0.7-0.65,1.1c-0.1,0.167-0.183,0.35-0.25,0.55c-0.333,1.133-0.466,2.317-0.4,3.55
			c0.1,1.1,0.383,2.05,0.85,2.85v0.1c0.033,0.067,0.083,0.133,0.15,0.2c-0.033-0.1-0.05-0.2-0.05-0.3
			C3.317-20.617,3.3-20.817,3.3-21.05z M2.175-31.1c-0.053-0.042-0.095-0.109-0.125-0.2c-0.7,0.3-1.233,0.983-1.6,2.05
			c-0.233,0.6-0.367,1.217-0.4,1.85c-0.066,0.367-0.083,0.733-0.05,1.1c0.1,1.233,0.45,2.367,1.05,3.4
			c0.567,1.133,1.3,1.983,2.2,2.55c-0.2-0.2-0.35-0.433-0.45-0.7c-0.3-0.5-0.5-1.083-0.6-1.75c-0.034-0.534-0.067-1.45-0.1-2.75
			c0.066-0.633,0.1-1.25,0.1-1.85c0.066-1.333,0.05-2.533-0.05-3.6l0.05-0.1H2.175z"/>
		
			<linearGradient id="SVGID_17_" gradientUnits="userSpaceOnUse" x1="19315.9727" y1="-5782.2666" x2="19323.8086" y2="-5782.2666" gradientTransform="matrix(-0.5488 0.836 -0.836 -0.5488 5779.1128 -19329.2539)">
			<stop  offset="0" style="stop-color:#3A3A3A"/>
			<stop  offset="1" style="stop-color:#9F9F9F"/>
		</linearGradient>
		<path style="fill-rule:evenodd;clip-rule:evenodd;fill:url(#SVGID_17_);" d="M10.9-0.25C11-0.183,11.067-0.1,11.1,0
			c0.633-0.4,0.983-1.183,1.05-2.35c0.033-0.967-0.066-1.917-0.3-2.85c-0.6-2.6-1.533-4.466-2.8-5.6c0,0.1,0.017,0.167,0.05,0.2
			c0.3,1.333,0.483,3.167,0.55,5.5C9.683-3.9,9.767-3,9.9-2.4c0.167,0.733,0.417,1.35,0.75,1.85C10.75-0.45,10.833-0.35,10.9-0.25z"
			/>
		
			<linearGradient id="SVGID_18_" gradientUnits="userSpaceOnUse" x1="19318.0859" y1="-5773.9229" x2="19322.5996" y2="-5773.9229" gradientTransform="matrix(-0.5483 0.8363 -0.8363 -0.5483 5772.3682 -19327.8516)">
			<stop  offset="0" style="stop-color:#3A3A3A"/>
			<stop  offset="1" style="stop-color:#9F9F9F"/>
		</linearGradient>
		<path style="fill-rule:evenodd;clip-rule:evenodd;fill:url(#SVGID_18_);" d="M7.4-7.5C6.533-8.367,5.633-8.95,4.7-9.25
			C4.731-9.188,4.79-9.138,4.875-9.1H4.9V-9c0.934,1.367,1.767,2.983,2.5,4.85c0.633,1.1,1.1,1.883,1.4,2.35
			c0.534,0.7,1.133,1.216,1.8,1.55l0.1,0.05c0.033,0.034,0.083,0.067,0.15,0.1v-0.05c-0.833-0.5-1.533-1.25-2.1-2.25
			c-0.667-1-1.1-2.083-1.3-3.25C7.383-6.283,7.367-6.9,7.4-7.5z"/>
		
			<linearGradient id="SVGID_19_" gradientUnits="userSpaceOnUse" x1="19313.0684" y1="-5774.8379" x2="19319.1699" y2="-5774.8379" gradientTransform="matrix(-0.549 0.8358 -0.8358 -0.549 5782.0469 -19329.8613)">
			<stop  offset="0" style="stop-color:#3A3A3A"/>
			<stop  offset="1" style="stop-color:#9F9F9F"/>
		</linearGradient>
		<path style="fill-rule:evenodd;clip-rule:evenodd;fill:url(#SVGID_19_);" d="M1.8-19.6c0.567,1.267,1.117,3.05,1.65,5.35
			c0.333,1.2,0.633,2.067,0.9,2.6c0.3,0.566,0.633,1.066,1,1.5C5.583-9.983,5.8-9.833,6-9.7h0.05c-0.7-0.667-1.267-1.517-1.7-2.55
			c-0.4-1.133-0.617-2.3-0.65-3.5C3.8-16.383,3.933-17,4.1-17.6c-0.733-0.933-1.517-1.65-2.35-2.15
			C1.783-19.683,1.8-19.633,1.8-19.6z"/>
		
			<linearGradient id="SVGID_20_" gradientUnits="userSpaceOnUse" x1="19306.4688" y1="-5760.1504" x2="19315.6426" y2="-5760.1504" gradientTransform="matrix(-0.5478 0.8366 -0.8366 -0.5478 5765.2549 -19326.3711)">
			<stop  offset="0" style="stop-color:#3A3A3A"/>
			<stop  offset="1" style="stop-color:#9F9F9F"/>
		</linearGradient>
		<path style="fill-rule:evenodd;clip-rule:evenodd;fill:url(#SVGID_20_);" d="M6.35-19.9c0,1.433-0.2,3.167-0.6,5.2
			c-0.167,1.233-0.25,2.117-0.25,2.65c0.033,0.667,0.15,1.267,0.35,1.8c0.1,0.133,0.2,0.3,0.3,0.5c0.033,0.067,0.067,0.117,0.1,0.15
			v0.05c0.667-0.2,1.167-0.867,1.5-2c0.233-0.9,0.3-1.867,0.2-2.9C7.85-17.017,7.333-19,6.4-20.4
			C6.367-20.233,6.35-20.067,6.35-19.9z"/>
		
			<linearGradient id="SVGID_21_" gradientUnits="userSpaceOnUse" x1="19298.7656" y1="-5757.9111" x2="19309.2559" y2="-5757.9111" gradientTransform="matrix(-0.5481 0.8364 -0.8364 -0.5481 5769.5547 -19327.2676)">
			<stop  offset="0" style="stop-color:#3A3A3A"/>
			<stop  offset="1" style="stop-color:#9F9F9F"/>
		</linearGradient>
		<path style="fill-rule:evenodd;clip-rule:evenodd;fill:url(#SVGID_21_);" d="M6.55-30.35C6.317-29.483,5.967-28.5,5.5-27.4
			c-0.3,0.667-0.633,1.367-1,2.1c-0.533,1.066-0.883,1.917-1.05,2.55c-0.133,0.567-0.184,1.1-0.15,1.6v0.1
			c0.034,0.233,0.083,0.433,0.15,0.6c-0.034,0.133-0.034,0.233,0,0.3c0.7-0.067,1.367-0.6,2-1.6c0.466-0.8,0.816-1.683,1.05-2.65
			c0.3-1.1,0.483-2.1,0.55-3C7.117-28.6,7-29.65,6.7-30.55C6.667-30.483,6.617-30.417,6.55-30.35z"/>
		
			<linearGradient id="SVGID_22_" gradientUnits="userSpaceOnUse" x1="19301.9609" y1="-5761.1611" x2="19310.3926" y2="-5761.1611" gradientTransform="matrix(-0.5485 0.8361 -0.8361 -0.5485 5775.5015 -19328.5039)">
			<stop  offset="0" style="stop-color:#3A3A3A"/>
			<stop  offset="1" style="stop-color:#9F9F9F"/>
		</linearGradient>
		<path style="fill-rule:evenodd;clip-rule:evenodd;fill:url(#SVGID_22_);" d="M3.25-20.45C2.783-21.25,2.5-22.2,2.4-23.3
			c-0.066-1.233,0.067-2.417,0.4-3.55c0.067-0.2,0.15-0.383,0.25-0.55c0.167-0.4,0.383-0.767,0.65-1.1
			c-0.434-1.133-0.967-2.067-1.6-2.8c0,0.09,0.025,0.157,0.075,0.2H2.2L2.15-31c0.1,1.067,0.117,2.267,0.05,3.6
			c0,0.6-0.034,1.217-0.1,1.85c0.033,1.3,0.066,2.216,0.1,2.75c0.1,0.667,0.3,1.25,0.6,1.75C2.933-20.817,3.083-20.617,3.25-20.45z"
			/>
	</g>
</symbol>
<g id="Frame">
	
		<use xlink:href="#Frames_x2F_level_08"  width="171.4" height="171.35" y="-171.35" transform="matrix(1 0 0 -1 0 0)" style="overflow:visible;"/>
</g>
<g id="Base">
	
		<use xlink:href="#BG_x2F_bg_navy"  width="134" height="134" y="-134" transform="matrix(1 0 0 -1 19.2002 19.8501)" style="overflow:visible;"/>
</g>
<g id="Decorations">
	<g>
		<path style="fill-rule:evenodd;clip-rule:evenodd;fill:#FFFFFF;fill-opacity:0.8;" d="M131.8,69.15c0.8-0.233,1.5-0.15,2.101,0.25
			c0.933,0.367,1.899,0.983,2.899,1.85c1.334,1.233,2.351,2.733,3.05,4.5c0.367,1.067,0.551,2.15,0.551,3.25
			c0,1.367-0.301,2.533-0.9,3.5c1.066,1.433,1.75,3.033,2.05,4.8c0.066,0.7,0.084,1.417,0.05,2.15
			c-0.066,0.533-0.149,1.066-0.25,1.6c-0.333,1.434-0.933,2.517-1.8,3.25c0.634,1.834,0.834,3.7,0.601,5.601
			c-0.067,0.399-0.167,0.8-0.301,1.199c-0.233,0.967-0.616,1.851-1.149,2.65c-0.967,1.5-2.15,2.366-3.55,2.6
			c-0.767,0.101-1.45-0.116-2.051-0.649l-0.199-0.15l-0.351-0.399l-0.3-0.551c-0.866,0.267-1.7,0.267-2.5,0
			c-0.4-0.1-0.733-0.25-1-0.449h-0.05c-0.233-0.233-0.417-0.517-0.55-0.851l-0.15-0.8c-0.167-1.233-0.05-2.55,0.35-3.95
			c0.301-1.066,0.733-2.184,1.301-3.35c0.333-0.634,0.699-1.2,1.1-1.7l-0.15-0.15c-0.767-1.767-0.966-3.916-0.6-6.45
			c0.033-0.333,0.083-0.683,0.15-1.05c0.133-0.633,0.283-1.2,0.449-1.7h-0.05l-0.3-0.4c-1.2-1.8-1.816-4.217-1.85-7.25
			c-0.067-1.267,0.066-2.45,0.399-3.55c0.533-1.967,1.533-3.217,3-3.75V69.15z M131.95,69.45h-0.05c-1.4,0.5-2.367,1.683-2.9,3.55
			c-0.3,1.133-0.417,2.3-0.35,3.5c0.133,3.133,0.733,5.517,1.8,7.15l0.399,0.4l-0.05,0.1c-0.2,0.8-0.316,1.383-0.35,1.75
			c-0.066,0.367-0.117,0.717-0.15,1.05c-0.366,2.434-0.184,4.517,0.55,6.25l0.101,0.3v0.05c-0.334,0.533-0.667,1.134-1,1.8
			c-0.566,1.134-1.017,2.217-1.351,3.25c-0.366,1.4-0.517,2.7-0.449,3.9l0.25,0.7l0.449,0.7l-0.05,0.149l0.101-0.149
			c0.267,0.233,0.583,0.416,0.949,0.55c0.834,0.2,1.684,0.149,2.551-0.15l0.1,0.05l-0.05,0.051l0.35,0.6l0.5,0.5
			c0.5,0.5,1.101,0.684,1.8,0.55c1.367-0.166,2.5-0.983,3.4-2.45c0.5-0.833,0.866-1.683,1.1-2.55
			c0.134-0.399,0.217-0.783,0.25-1.149c0.267-2,0.067-3.851-0.6-5.551c-0.066-0.066-0.05-0.133,0.05-0.199
			c0.9-0.634,1.517-1.667,1.851-3.101c0.1-0.566,0.183-1.116,0.25-1.649c0.033-0.667,0-1.351-0.101-2.051
			c-0.333-1.866-1-3.466-2-4.8v-0.1c0.5-0.9,0.767-2.034,0.8-3.4c0.034-1.1-0.133-2.183-0.5-3.25c-0.6-1.633-1.583-3.083-2.949-4.35
			c-0.867-0.8-1.817-1.4-2.851-1.8C133.167,69.25,132.55,69.183,131.95,69.45z M39,69.4c0.6-0.4,1.3-0.483,2.1-0.25v0.05
			c1.467,0.533,2.467,1.783,3,3.75c0.333,1.1,0.467,2.283,0.4,3.55c-0.033,3.033-0.65,5.45-1.85,7.25l-0.3,0.4H42.3
			c0.167,0.5,0.317,1.067,0.45,1.7c0.067,0.367,0.117,0.717,0.15,1.05c0.367,2.534,0.167,4.683-0.6,6.45l-0.15,0.15
			c0.4,0.5,0.767,1.066,1.1,1.7c0.567,1.166,1,2.283,1.3,3.35c0.4,1.4,0.517,2.717,0.35,3.95l-0.15,0.8
			c-0.133,0.334-0.317,0.617-0.55,0.851h-0.05c-0.267,0.199-0.6,0.35-1,0.449c-0.8,0.267-1.633,0.267-2.5,0l-0.3,0.551L40,105.55
			l-0.2,0.15c-0.6,0.533-1.283,0.75-2.05,0.649c-1.4-0.233-2.583-1.1-3.55-2.6c-0.534-0.8-0.917-1.684-1.15-2.65
			c-0.133-0.399-0.233-0.8-0.3-1.199c-0.233-1.9-0.033-3.767,0.6-5.601c-0.867-0.733-1.467-1.816-1.8-3.25
			c-0.1-0.533-0.183-1.066-0.25-1.6c-0.033-0.733-0.017-1.45,0.05-2.15c0.3-1.767,0.983-3.367,2.05-4.8
			c-0.6-0.967-0.9-2.133-0.9-3.5c0-1.1,0.183-2.183,0.55-3.25c0.7-1.767,1.717-3.267,3.05-4.5C37.1,70.383,38.067,69.767,39,69.4z
			 M36.25,71.45c-1.367,1.267-2.35,2.716-2.95,4.35c-0.367,1.067-0.533,2.15-0.5,3.25c0.034,1.367,0.3,2.5,0.8,3.4v0.1
			c-1,1.333-1.667,2.934-2,4.8c-0.1,0.7-0.133,1.384-0.1,2.051c0.067,0.533,0.15,1.083,0.25,1.649
			c0.333,1.434,0.95,2.467,1.85,3.101c0.1,0.066,0.117,0.133,0.05,0.199c-0.667,1.7-0.867,3.551-0.6,5.551
			c0.034,0.366,0.117,0.75,0.25,1.149c0.233,0.867,0.6,1.717,1.1,2.55c0.9,1.467,2.033,2.284,3.4,2.45c0.7,0.134,1.3-0.05,1.8-0.55
			l0.5-0.5l0.35-0.6l-0.05-0.051l0.1-0.05c0.867,0.3,1.717,0.351,2.55,0.15c0.367-0.134,0.684-0.316,0.95-0.55l0.1,0.149
			l-0.05-0.149l0.45-0.7l0.25-0.7c0.067-1.2-0.083-2.5-0.45-3.9c-0.333-1.033-0.783-2.116-1.35-3.25c-0.333-0.666-0.667-1.267-1-1.8
			V93.5l0.1-0.3c0.733-1.733,0.917-3.816,0.55-6.25c-0.033-0.333-0.083-0.684-0.15-1.05c-0.034-0.367-0.15-0.95-0.35-1.75l-0.05-0.1
			l0.4-0.4c1.066-1.633,1.667-4.017,1.8-7.15c0.067-1.2-0.05-2.367-0.35-3.5c-0.533-1.867-1.5-3.05-2.9-3.55h-0.05
			c-0.6-0.267-1.217-0.2-1.85,0.2C38.067,70.05,37.117,70.65,36.25,71.45z"/>
		<linearGradient id="SVGID_23_" gradientUnits="userSpaceOnUse" x1="123.1865" y1="98.125" x2="143.5206" y2="78.3155">
			<stop  offset="0.0745" style="stop-color:#000000;stop-opacity:0.5294"/>
			<stop  offset="0.9647" style="stop-color:#000000;stop-opacity:0.102"/>
		</linearGradient>
		<path style="fill-rule:evenodd;clip-rule:evenodd;fill:url(#SVGID_23_);" d="M133.1,70.9c-0.199-0.167-0.433-0.2-0.699-0.1
			c-0.9,0.333-1.551,1.133-1.95,2.4c-0.3,0.966-0.417,2.033-0.351,3.2c0.067,2.833,0.601,4.967,1.601,6.4l0.149,0.15L131.8,83
			l0.05,0.05c0.2,0.133,0.417,0.167,0.65,0.1l0.35-0.15c-0.466,1-0.783,2.033-0.949,3.1c-0.101,0.4-0.167,0.8-0.2,1.2
			c-0.267,2.134-0.101,3.9,0.5,5.3l0.149,0.2L132.4,92.9L132.35,93c0.233,0.1,0.417,0.15,0.551,0.15l0.35-0.101
			c-0.833,0.8-1.483,1.783-1.95,2.95c-0.566,1.033-1,2-1.3,2.9c-0.333,1.267-0.45,2.416-0.35,3.449l0.1,0.15l-0.05,0.05l0.25,0.25
			l0.2,0.15c0.966,0.267,2.017,0.017,3.149-0.75c0.2,0.866,0.483,1.533,0.851,2l0.05,0.2l0.05,0.05c0.134,0.133,0.333,0.2,0.6,0.2
			c1-0.167,1.851-0.851,2.551-2.051c0.366-0.566,0.633-1.199,0.8-1.899c0.133-0.334,0.233-0.684,0.3-1.05
			c0.267-2.5-0.217-4.617-1.45-6.351l0.15,0.05c0.3,0.101,0.517,0.101,0.649,0c0.9-0.399,1.534-1.267,1.9-2.6
			c0.1-0.533,0.167-1.083,0.2-1.65c0-0.533-0.017-1.083-0.05-1.649c-0.334-1.9-1.2-3.567-2.601-5l0.05-0.05
			c0.834-0.6,1.267-1.583,1.301-2.95c0.033-1.1-0.117-2.15-0.45-3.15c-0.467-1.267-1.167-2.383-2.101-3.35
			c-0.933-0.967-1.916-1.633-2.949-2L133.1,70.9z M131.95,69.45c0.6-0.267,1.217-0.2,1.85,0.2c1.033,0.4,1.983,1,2.851,1.8
			c1.366,1.267,2.35,2.716,2.949,4.35c0.367,1.067,0.534,2.15,0.5,3.25c-0.033,1.367-0.3,2.5-0.8,3.4v0.1c1,1.333,1.667,2.934,2,4.8
			c0.101,0.7,0.134,1.384,0.101,2.051c-0.067,0.533-0.15,1.083-0.25,1.649c-0.334,1.434-0.95,2.467-1.851,3.101
			c-0.1,0.066-0.116,0.133-0.05,0.199c0.667,1.7,0.866,3.551,0.6,5.551c-0.033,0.366-0.116,0.75-0.25,1.149
			c-0.233,0.867-0.6,1.717-1.1,2.55c-0.9,1.467-2.033,2.284-3.4,2.45c-0.699,0.134-1.3-0.05-1.8-0.55l-0.5-0.5l-0.35-0.6l0.05-0.051
			l-0.1-0.05c-0.867,0.3-1.717,0.351-2.551,0.15c-0.366-0.134-0.683-0.316-0.949-0.55l-0.101,0.149l0.05-0.149l-0.449-0.7l-0.25-0.7
			c-0.067-1.2,0.083-2.5,0.449-3.9c0.334-1.033,0.784-2.116,1.351-3.25c0.333-0.666,0.666-1.267,1-1.8V93.5l-0.101-0.3
			c-0.733-1.733-0.916-3.816-0.55-6.25c0.033-0.333,0.084-0.684,0.15-1.05c0.033-0.367,0.149-0.95,0.35-1.75l0.05-0.1l-0.399-0.4
			c-1.066-1.633-1.667-4.017-1.8-7.15c-0.067-1.2,0.05-2.367,0.35-3.5c0.533-1.867,1.5-3.05,2.9-3.55H131.95z"/>
		<path style="fill-rule:evenodd;clip-rule:evenodd;fill-opacity:0.8784;" d="M133.1,70.9l0.051,0.05
			c1.033,0.367,2.017,1.033,2.949,2c0.934,0.966,1.634,2.083,2.101,3.35c0.333,1,0.483,2.05,0.45,3.15
			c-0.034,1.367-0.467,2.35-1.301,2.95l-0.05,0.05c1.4,1.433,2.267,3.1,2.601,5c0.033,0.566,0.05,1.116,0.05,1.649
			c-0.033,0.567-0.101,1.117-0.2,1.65c-0.366,1.333-1,2.2-1.9,2.6c-0.133,0.101-0.35,0.101-0.649,0l-0.15-0.05
			c1.233,1.733,1.717,3.851,1.45,6.351c-0.066,0.366-0.167,0.716-0.3,1.05c-0.167,0.7-0.434,1.333-0.8,1.899
			c-0.7,1.2-1.551,1.884-2.551,2.051c-0.267,0-0.466-0.067-0.6-0.2l-0.05-0.05l-0.05-0.2c-0.367-0.467-0.65-1.134-0.851-2
			c-1.133,0.767-2.184,1.017-3.149,0.75l-0.2-0.15l-0.25-0.25l0.05-0.05l-0.1-0.15c-0.101-1.033,0.017-2.183,0.35-3.449
			c0.3-0.9,0.733-1.867,1.3-2.9c0.467-1.167,1.117-2.15,1.95-2.95l-0.35,0.101c-0.134,0-0.317-0.051-0.551-0.15l0.051-0.1
			L132.35,92.8l-0.149-0.2c-0.601-1.399-0.767-3.166-0.5-5.3c0.033-0.4,0.1-0.8,0.2-1.2c0.166-1.067,0.483-2.1,0.949-3.1l-0.35,0.15
			c-0.233,0.067-0.45,0.033-0.65-0.1L131.8,83l0.05-0.05L131.7,82.8c-1-1.433-1.533-3.566-1.601-6.4
			c-0.066-1.167,0.051-2.233,0.351-3.2c0.399-1.267,1.05-2.067,1.95-2.4C132.667,70.7,132.9,70.733,133.1,70.9z M132.7,71.5
			c0.033,0.067,0.05,0.15,0.05,0.25c-0.033-0.1-0.066-0.2-0.1-0.3c-0.7,0.267-1.217,0.95-1.551,2.05c-0.233,0.933-0.333,1.9-0.3,2.9
			c0,2.633,0.517,4.65,1.55,6.05c0.733-0.2,1.351-0.8,1.851-1.8c0.166-0.4,0.316-0.767,0.45-1.1c0.633,1.034,1.383,1.8,2.25,2.3
			c0-0.063-0.034-0.13-0.101-0.2c0.068,0.068,0.118,0.118,0.15,0.15c0.633-0.433,0.967-1.2,1-2.3c0.033-1.033-0.084-2.033-0.351-3
			c-0.466-1.133-1.116-2.15-1.949-3.05c-0.834-0.867-1.767-1.483-2.801-1.85v0.05C132.783,71.583,132.733,71.533,132.7,71.5z
			 M135.35,82c0-0.067-0.017-0.117-0.05-0.15c-0.666,0-1.283,0.533-1.85,1.6c-0.434,0.833-0.717,1.75-0.851,2.75
			c-0.1,0.4-0.166,0.816-0.199,1.25c-0.2,1.967-0.067,3.6,0.399,4.899c0.066-0.133,0.117-0.283,0.15-0.449
			c0,0.199-0.017,0.366-0.05,0.5c0.767,0,1.483-0.467,2.149-1.4c0.267-0.267,0.467-0.55,0.601-0.85
			c0.533,1.066,1.149,1.933,1.85,2.6c0-0.061,0-0.11,0-0.15c0.002,0.068,0.019,0.119,0.05,0.15c0.667-0.3,1.167-1.033,1.5-2.2
			c0.134-0.5,0.2-1.033,0.2-1.6c0-0.434-0.017-0.884-0.05-1.351c-0.233-1.2-0.667-2.3-1.3-3.3c-0.667-1.066-1.45-1.85-2.351-2.35
			c0.2,0.2,0.384,0.417,0.55,0.65c-0.199-0.233-0.399-0.434-0.6-0.6h-0.05l-0.05-0.05L135.35,82z M135.7,93.05
			c0.066-0.133,0.083-0.217,0.05-0.25c-0.7-0.133-1.45,0.233-2.25,1.101c-0.667,0.666-1.217,1.466-1.65,2.399
			c-0.5,1-0.883,1.917-1.149,2.75c-0.334,1.167-0.45,2.233-0.351,3.2c0.034-0.066,0.084-0.134,0.15-0.2
			c-0.066,0.101-0.116,0.2-0.15,0.3c0.767,0.167,1.617-0.083,2.551-0.75c0.267-0.267,0.533-0.5,0.8-0.699
			c0.2,1.166,0.517,2.183,0.95,3.05c0.031-0.094,0.031-0.16,0-0.2c0.033,0.04,0.05,0.106,0.05,0.2c0.767-0.167,1.45-0.717,2.05-1.65
			c0.333-0.533,0.583-1.116,0.75-1.75c0.167-0.333,0.267-0.666,0.3-1c0.167-1.267,0.084-2.467-0.25-3.6
			c-0.333-1.233-0.866-2.217-1.6-2.95c0.133,0.233,0.233,0.5,0.3,0.8c-0.1-0.267-0.217-0.5-0.35-0.7l0.05-0.1
			c-0.033-0.1-0.084-0.167-0.15-0.2c0.033,0.066,0.033,0.15,0,0.25H135.7z M39.75,70.95l0.05-0.05c0.2-0.167,0.434-0.2,0.7-0.1
			c0.9,0.333,1.55,1.133,1.95,2.4c0.3,0.966,0.417,2.033,0.35,3.2c-0.066,2.833-0.6,4.967-1.6,6.4l-0.15,0.15L41.1,83l-0.05,0.05
			c-0.2,0.133-0.417,0.167-0.65,0.1L40.05,83c0.467,1,0.784,2.033,0.95,3.1c0.1,0.4,0.167,0.8,0.2,1.2c0.267,2.134,0.1,3.9-0.5,5.3
			l-0.15,0.2L40.5,92.9l0.05,0.1c-0.233,0.1-0.417,0.15-0.55,0.15l-0.35-0.101c0.833,0.8,1.483,1.783,1.95,2.95
			c0.566,1.033,1,2,1.3,2.9c0.333,1.267,0.45,2.416,0.35,3.449l-0.1,0.15l0.05,0.05l-0.25,0.25l-0.2,0.15
			c-0.967,0.267-2.017,0.017-3.15-0.75c-0.2,0.866-0.483,1.533-0.85,2l-0.05,0.2l-0.05,0.05c-0.133,0.133-0.333,0.2-0.6,0.2
			c-1-0.167-1.85-0.851-2.55-2.051c-0.367-0.566-0.633-1.199-0.8-1.899c-0.133-0.334-0.233-0.684-0.3-1.05
			c-0.267-2.5,0.217-4.617,1.45-6.351l-0.15,0.05c-0.3,0.101-0.517,0.101-0.65,0c-0.9-0.399-1.533-1.267-1.9-2.6
			c-0.1-0.533-0.167-1.083-0.2-1.65c0-0.533,0.017-1.083,0.05-1.649c0.333-1.9,1.2-3.567,2.6-5l-0.05-0.05
			c-0.833-0.6-1.267-1.583-1.3-2.95c-0.033-1.1,0.117-2.15,0.45-3.15c0.466-1.267,1.167-2.383,2.1-3.35
			C37.733,71.983,38.717,71.317,39.75,70.95z M40.2,71.5c-0.034,0.033-0.083,0.083-0.15,0.15V71.6
			c-1.033,0.367-1.966,0.983-2.8,1.85c-0.833,0.9-1.483,1.917-1.95,3.05c-0.267,0.967-0.383,1.967-0.35,3
			c0.033,1.1,0.367,1.867,1,2.3c0.031-0.031,0.089-0.081,0.175-0.15C36.042,81.721,36,81.788,36,81.85
			c0.867-0.5,1.617-1.267,2.25-2.3c0.133,0.333,0.283,0.7,0.45,1.1c0.5,1,1.117,1.6,1.85,1.8c1.034-1.4,1.55-3.417,1.55-6.05
			c0.033-1-0.067-1.967-0.3-2.9c-0.333-1.1-0.85-1.783-1.55-2.05c-0.033,0.1-0.067,0.2-0.1,0.3C40.15,71.65,40.167,71.567,40.2,71.5
			z M37.55,82l-0.05-0.05v-0.025c-0.014,0.011-0.03,0.036-0.05,0.075H37.4c-0.2,0.167-0.4,0.367-0.6,0.6
			c0.167-0.233,0.35-0.45,0.55-0.65c-0.9,0.5-1.684,1.283-2.35,2.35c-0.633,1-1.067,2.1-1.3,3.3c-0.034,0.467-0.05,0.917-0.05,1.351
			c0,0.566,0.067,1.1,0.2,1.6c0.333,1.167,0.833,1.9,1.5,2.2c0.032-0.031,0.048-0.082,0.05-0.15c0,0.04,0,0.09,0,0.15
			c0.7-0.667,1.317-1.533,1.85-2.6c0.133,0.3,0.333,0.583,0.6,0.85c0.667,0.934,1.383,1.4,2.15,1.4
			c-0.033-0.134-0.05-0.301-0.05-0.5c0.033,0.166,0.083,0.316,0.15,0.449c0.467-1.3,0.6-2.933,0.4-4.899
			c-0.033-0.434-0.1-0.85-0.2-1.25c-0.133-1-0.417-1.917-0.85-2.75c-0.567-1.067-1.184-1.6-1.85-1.6
			C37.567,81.883,37.55,81.933,37.55,82z M37,93.1c-0.133,0.2-0.25,0.434-0.35,0.7c0.067-0.3,0.167-0.566,0.3-0.8L37,93.1z
			 M36.95,93c-0.733,0.733-1.267,1.717-1.6,2.95c-0.333,1.133-0.417,2.333-0.25,3.6c0.033,0.334,0.133,0.667,0.3,1
			c0.167,0.634,0.417,1.217,0.75,1.75c0.6,0.934,1.283,1.483,2.05,1.65c0-0.091,0.025-0.157,0.075-0.2
			c-0.047,0.043-0.055,0.109-0.025,0.2c0.433-0.867,0.75-1.884,0.95-3.05c0.267,0.199,0.533,0.433,0.8,0.699
			c0.933,0.667,1.783,0.917,2.55,0.75c-0.033-0.1-0.083-0.199-0.15-0.3c0.067,0.066,0.117,0.134,0.15,0.2
			c0.1-0.967-0.017-2.033-0.35-3.2c-0.267-0.833-0.65-1.75-1.15-2.75c-0.433-0.934-0.983-1.733-1.65-2.399
			c-0.8-0.867-1.55-1.233-2.25-1.101c-0.033,0.033-0.017,0.117,0.05,0.25h-0.1c-0.033-0.1-0.033-0.184,0-0.25
			C37.033,92.833,36.983,92.9,36.95,93z"/>
		<linearGradient id="SVGID_24_" gradientUnits="userSpaceOnUse" x1="131.2412" y1="86.3638" x2="135.6162" y2="82.1138">
			<stop  offset="0" style="stop-color:#7BA0FD"/>
			<stop  offset="0.2471" style="stop-color:#6C8BD4"/>
			<stop  offset="0.7647" style="stop-color:#4D5F81"/>
			<stop  offset="1" style="stop-color:#414E61"/>
		</linearGradient>
		<path style="fill-rule:evenodd;clip-rule:evenodd;fill:url(#SVGID_24_);" d="M135.35,82l0.051-0.05
			c0.033,0.233,0.083,0.433,0.149,0.6C135.483,82.417,135.417,82.233,135.35,82z"/>
		<linearGradient id="SVGID_25_" gradientUnits="userSpaceOnUse" x1="129.9316" y1="98.9766" x2="135.9816" y2="93.1016">
			<stop  offset="0" style="stop-color:#7BA0FD"/>
			<stop  offset="0.2471" style="stop-color:#6C8BD4"/>
			<stop  offset="0.7647" style="stop-color:#4D5F81"/>
			<stop  offset="1" style="stop-color:#414E61"/>
		</linearGradient>
		<path style="fill-rule:evenodd;clip-rule:evenodd;fill:url(#SVGID_25_);" d="M135.8,93.05c0,0.167-0.017,0.367-0.05,0.601
			c0-0.233-0.017-0.434-0.05-0.601H135.8z"/>
		
			<linearGradient id="SVGID_26_" gradientUnits="userSpaceOnUse" x1="-104.0811" y1="-35.5947" x2="-75.6929" y2="-35.5947" gradientTransform="matrix(-0.7163 -0.6978 0.6978 -0.7163 2.987981e-004 -8.469224e-004)">
			<stop  offset="0.0745" style="stop-color:#000000;stop-opacity:0.5294"/>
			<stop  offset="0.9647" style="stop-color:#000000;stop-opacity:0.102"/>
		</linearGradient>
		<path style="fill-rule:evenodd;clip-rule:evenodd;fill:url(#SVGID_26_);" d="M39.75,70.95c-1.033,0.367-2.017,1.033-2.95,2
			c-0.933,0.966-1.633,2.083-2.1,3.35c-0.333,1-0.483,2.05-0.45,3.15c0.033,1.367,0.467,2.35,1.3,2.95l0.05,0.05
			c-1.4,1.433-2.267,3.1-2.6,5c-0.033,0.566-0.05,1.116-0.05,1.649c0.033,0.567,0.1,1.117,0.2,1.65c0.367,1.333,1,2.2,1.9,2.6
			c0.133,0.101,0.35,0.101,0.65,0l0.15-0.05c-1.233,1.733-1.717,3.851-1.45,6.351c0.067,0.366,0.167,0.716,0.3,1.05
			c0.167,0.7,0.433,1.333,0.8,1.899c0.7,1.2,1.55,1.884,2.55,2.051c0.267,0,0.467-0.067,0.6-0.2l0.05-0.05l0.05-0.2
			c0.367-0.467,0.65-1.134,0.85-2c1.133,0.767,2.183,1.017,3.15,0.75l0.2-0.15l0.25-0.25l-0.05-0.05l0.1-0.15
			c0.1-1.033-0.017-2.183-0.35-3.449c-0.3-0.9-0.733-1.867-1.3-2.9c-0.467-1.167-1.117-2.15-1.95-2.95L40,93.15
			c0.133,0,0.317-0.051,0.55-0.15l-0.05-0.1l0.05-0.101l0.15-0.2c0.6-1.399,0.767-3.166,0.5-5.3c-0.034-0.4-0.1-0.8-0.2-1.2
			c-0.167-1.067-0.483-2.1-0.95-3.1l0.35,0.15c0.233,0.067,0.45,0.033,0.65-0.1L41.1,83l-0.05-0.05l0.15-0.15
			c1-1.433,1.533-3.566,1.6-6.4c0.067-1.167-0.05-2.233-0.35-3.2c-0.4-1.267-1.05-2.067-1.95-2.4c-0.267-0.1-0.5-0.066-0.7,0.1
			L39.75,70.95z M36.25,71.45c0.867-0.8,1.817-1.4,2.85-1.8c0.633-0.4,1.25-0.467,1.85-0.2H41c1.4,0.5,2.367,1.683,2.9,3.55
			c0.3,1.133,0.417,2.3,0.35,3.5c-0.133,3.133-0.733,5.517-1.8,7.15l-0.4,0.4l0.05,0.1c0.2,0.8,0.316,1.383,0.35,1.75
			c0.066,0.367,0.117,0.717,0.15,1.05c0.367,2.434,0.183,4.517-0.55,6.25l-0.1,0.3v0.05c0.333,0.533,0.667,1.134,1,1.8
			c0.566,1.134,1.017,2.217,1.35,3.25c0.367,1.4,0.517,2.7,0.45,3.9l-0.25,0.7l-0.45,0.7l0.05,0.149L44,103.9
			c-0.267,0.233-0.583,0.416-0.95,0.55c-0.833,0.2-1.683,0.149-2.55-0.15l-0.1,0.05l0.05,0.051L40.1,105l-0.5,0.5
			c-0.5,0.5-1.1,0.684-1.8,0.55c-1.367-0.166-2.5-0.983-3.4-2.45c-0.5-0.833-0.867-1.683-1.1-2.55
			c-0.133-0.399-0.216-0.783-0.25-1.149c-0.267-2-0.066-3.851,0.6-5.551c0.067-0.066,0.05-0.133-0.05-0.199
			c-0.9-0.634-1.517-1.667-1.85-3.101c-0.1-0.566-0.183-1.116-0.25-1.649c-0.033-0.667,0-1.351,0.1-2.051c0.333-1.866,1-3.466,2-4.8
			v-0.1c-0.5-0.9-0.767-2.034-0.8-3.4c-0.033-1.1,0.133-2.183,0.5-3.25C33.9,74.167,34.883,72.717,36.25,71.45z"/>
		
			<linearGradient id="SVGID_27_" gradientUnits="userSpaceOnUse" x1="-90.0586" y1="-32.9199" x2="-83.9592" y2="-32.9199" gradientTransform="matrix(-0.7173 -0.6968 0.6968 -0.7173 2.467632e-004 -7.619262e-004)">
			<stop  offset="0" style="stop-color:#7BA0FD"/>
			<stop  offset="0.2471" style="stop-color:#6C8BD4"/>
			<stop  offset="0.7647" style="stop-color:#4D5F81"/>
			<stop  offset="1" style="stop-color:#414E61"/>
		</linearGradient>
		<path style="fill-rule:evenodd;clip-rule:evenodd;fill:url(#SVGID_27_);" d="M37.5,81.95L37.55,82
			c-0.066,0.233-0.133,0.417-0.2,0.55C37.417,82.383,37.467,82.183,37.5,81.95z"/>
		
			<linearGradient id="SVGID_28_" gradientUnits="userSpaceOnUse" x1="-99.7778" y1="-41.0713" x2="-91.3447" y2="-41.0713" gradientTransform="matrix(-0.7174 -0.6967 0.6967 -0.7174 -4.016757e-004 2.384186e-005)">
			<stop  offset="0" style="stop-color:#7BA0FD"/>
			<stop  offset="0.2471" style="stop-color:#6C8BD4"/>
			<stop  offset="0.7647" style="stop-color:#4D5F81"/>
			<stop  offset="1" style="stop-color:#414E61"/>
		</linearGradient>
		<path style="fill-rule:evenodd;clip-rule:evenodd;fill:url(#SVGID_28_);" d="M37.1,93.05h0.1c-0.034,0.167-0.05,0.367-0.05,0.601
			C37.117,93.417,37.1,93.217,37.1,93.05z"/>
		<g>
			<path style="fill-rule:evenodd;clip-rule:evenodd;fill:#FFFFFF;fill-opacity:0;" d="M152.2,94.35
				c0,18.267-6.467,33.867-19.4,46.801c-12.934,12.933-28.517,19.399-46.75,19.399c-18.267,0-33.867-6.467-46.8-19.399
				c-12.933-12.934-19.4-28.534-19.4-46.801c0-18.266,6.467-33.866,19.4-46.8c12.933-12.933,28.533-19.4,46.8-19.4
				c18.233,0,33.816,6.467,46.75,19.4C145.733,60.483,152.2,76.083,152.2,94.35z"/>
		</g>
		
			<use xlink:href="#zzz_x5F_miscellaneous_x2F_laurel_raw"  width="12.173" height="31.3" x="-0.017" y="-31.3" transform="matrix(0.9765 -0.2157 -0.2157 -0.9765 29.3999 73.8501)" style="overflow:visible;"/>
		
			<use xlink:href="#zzz_x5F_miscellaneous_x2F_laurel_raw"  width="12.173" height="31.3" x="-0.017" y="-31.3" transform="matrix(-0.9765 -0.2157 0.2157 -0.9765 143.5 73.8501)" style="overflow:visible;"/>
	</g>
</g>
<g id="Layer_6">
	<g>
		
			<use xlink:href="#flash0.ai_x5F_2_x2F_Layer_1_x2F__x3C_Path_x3E_"  width="87.286" height="60.912" x="0.013" y="-60.9" transform="matrix(0.8118 0 0 -0.8118 53.5 75.1001)" style="overflow:visible;opacity:0.5;enable-background:new    ;"/>
		
			<use xlink:href="#flash0.ai_x5F_2_x2F_Layer_1_x2F__x3C_Compound_Path_x3E_"  width="90.309" height="64.677" x="-0.009" y="-64.65" transform="matrix(0.8118 0 0 -0.8118 52.5498 73.75)" style="overflow:visible;opacity:0.4492;enable-background:new    ;"/>
	</g>
</g>
<g id="Layer_1">
	<g>
		
			<use xlink:href="#Symbol_2"  width="17.85" height="8.407" x="-2" y="-7.35" transform="matrix(2.5468 0 0 -2.5468 62.6499 98.25)" style="overflow:visible;"/>
		
			<use xlink:href="#Symbol_1"  width="6.58" height="8.545" x="0.006" y="-8.563" transform="matrix(2.5468 0 0 -2.5468 56.25 98.25)" style="overflow:visible;"/>
	</g>
	
		<use xlink:href="#Symbol_3"  width="15.635" height="8.508" x="-1.898" y="-8.51" transform="matrix(2.5467 0 0 -2.5467 86.25 99.25)" style="overflow:visible;"/>
	
		<use xlink:href="#Symbol_3"  width="15.635" height="8.508" x="-1.898" y="-8.51" transform="matrix(-2.4486 -0.7 0.7 -2.4486 104.5 84.1001)" style="overflow:visible;"/>
	<path style="fill-rule:evenodd;clip-rule:evenodd;fill:none;stroke:#231F20;stroke-miterlimit:10;" d="M76.224,97.688
		c1.461-0.677,3.342-1.759,5.642-3.247l2.638,2.841c-0.243-0.108-0.744,0.243-1.501,1.056l-1.542,1.745
		c-0.379-0.271-0.866-0.446-1.461-0.528c-1.217-0.188-2.422,0.136-3.612,0.975s-1.935,2.205-2.232,4.1
		c-0.135,0.947-0.162,1.799-0.081,2.557l-1.908-0.365c-0.514-1.38-1.177-2.76-1.988-4.14c-1.597-2.787-3.112-4.181-4.546-4.181
		c-2.408,0-4.33,0.379-5.764,1.137c-2.165,1.163-3.423,3.22-3.774,6.169c-0.46,3.842,0.041,7.211,1.502,10.106
		c1.705,3.354,4.275,4.816,7.711,4.383c3.084-0.379,5.222-1.65,6.413-3.815c0.568-1.082,0.839-2.137,0.812-3.165l2.72,0.324
		c1.921,0.189,3.179,0.284,3.774,0.284c0.947,0,1.813-0.067,2.598-0.203l1.298,2.396c1.164,1.677,2.503,2.772,4.018,3.287
		c1.705,0.568,3.707,0.825,6.008,0.771c2.083-0.055,3.463-0.312,4.14-0.771l1.866-1.258l1.34,0.04
		c1.028-0.055,1.921-0.257,2.679-0.608c1.218-0.541,2.097-1.15,2.638-1.827l2.354,3.085c2.029,1.948,4.113,2.692,6.25,2.232
		c2.463-0.487,4.234-1.271,5.317-2.354c0.92-0.92,1.488-2.245,1.704-3.978c0.298-2.272-0.013-5.087-0.934-8.441
		c-1.108-4.059-2.692-6.318-4.748-6.778c-2.165-0.46-3.937-0.514-5.316-0.162c-1.083,0.271-2.084,0.865-3.004,1.785
		c-0.677,0.677-1.354,1.854-2.029,3.531c-0.353,0.839-0.636,1.61-0.853,2.313c-1.866-0.324-3.139-0.405-3.815-0.243
		c-0.433,0.108-0.771,0.379-1.015,0.812l-0.283,0.568l-3.572-1.056c1.894-0.298,2.977-0.852,3.247-1.664
		c0.271-0.812,0.473-1.69,0.608-2.638l4.019-2.313c0.839-0.487,1.528-1.15,2.069-1.988l-1.623-0.935
		c0.136-0.648,0.189-1.339,0.162-2.069c-0.081-1.461-0.541-2.408-1.38-2.841c-0.839-0.434-2.124-0.825-3.855-1.178l-2.354-0.405
		c-1.001-1.543-1.947-2.408-2.841-2.598c-0.541-0.108-1.407-0.081-2.598,0.081L89.496,88.8l-0.244-1.218
		c-0.271-0.839-0.703-1.258-1.299-1.258l-3.287,0.082l0.406-2.232c0.189-1.624,0.067-2.733-0.365-3.328
		c-0.866-1.218-1.826-2.232-2.881-3.044c-1.624-1.245-3.099-1.65-4.424-1.218c-1.867,0.623-3.774,1.854-5.723,3.693
		c-2.3,2.192-3.639,4.479-4.018,6.859c-0.433,2.732-0.5,4.641-0.203,5.723c0.325,1.218,1.299,2.368,2.922,3.45
		c1.705,1.109,2.828,1.731,3.369,1.867C74.316,98.311,75.142,98.148,76.224,97.688z"/>
</g>
<g id="Letters">
	
		<use xlink:href="#Letters_x2F_digit_1"  width="9.95" height="26.35" y="-26.35" transform="matrix(1 0 0 -1 42.3999 45.1499)" style="overflow:visible;"/>
	
		<use xlink:href="#Letters_x2F_digit_0"  width="19.05" height="27" y="-27" transform="matrix(1 0 0 -1 54.0498 44.5498)" style="overflow:visible;"/>
	
		<use xlink:href="#Letters_x2F_digit_9"  width="18.05" height="27" y="-27" transform="matrix(1 0 0 -1 114.4004 45.1499)" style="overflow:visible;"/>
	
		<use xlink:href="#Letters_x2F_digit_0"  width="19.05" height="27" y="-27" transform="matrix(1 0 0 -1 74.5498 44.5498)" style="overflow:visible;"/>
	
		<use xlink:href="#Letters_x2F_digit_0"  width="19.05" height="27" y="-27" transform="matrix(1 0 0 -1 94.5498 44.5498)" style="overflow:visible;"/>
</g>
<g id="highlight">
	
		<use xlink:href="#zz_x5F_Highlight_x2F_Highlight_Piece"  width="118.7" height="115.9" y="-115.9" transform="matrix(1 0 0 -1 27.25 28.1001)" style="overflow:visible;"/>
</g>
</svg>
