<?xml version="1.0" encoding="iso-8859-1"?>
<!-- Generator: Adobe Illustrator 15.1.0, SVG Export Plug-In . SVG Version: 6.00 Build 0)  -->
<!DOCTYPE svg PUBLIC "-//W3C//DTD SVG 1.1//EN" "http://www.w3.org/Graphics/SVG/1.1/DTD/svg11.dtd">
<svg version="1.1" id="Layer_1" xmlns="http://www.w3.org/2000/svg" xmlns:xlink="http://www.w3.org/1999/xlink" x="0px" y="0px"
	 width="172px" height="171.4px" viewBox="0 0 172 171.4" style="enable-background:new 0 0 172 171.4;" xml:space="preserve">
<symbol  id="FlashAICB_x2F_Layer_1_x2F__x3C_Group_x3E_" viewBox="0 -61.153 109.75 61.153">
	<g id="Layer_1_5_">
		<g>
			
				<use xlink:href="#FlashAICB_x2F_Layer_1_x2F__x3C_Path_x3E__x5F_1"  width="109.75" height="55.65" y="-55.65" style="overflow:visible;opacity:0.1992;enable-background:new    ;"/>
			
				<use xlink:href="#FlashAICB_x2F_Layer_1_x2F__x3C_Path_x3E__x5F_0"  width="109.75" height="61.153" y="-61.153" style="overflow:visible;opacity:0.1211;enable-background:new    ;"/>
		</g>
	</g>
</symbol>
<symbol  id="FlashAICB_x2F_Layer_1_x2F__x3C_Path_x3E_" viewBox="0 -57 118.45 57">
	<g id="Layer_1_2_">
		
			<radialGradient id="SVGID_1_" cx="59.2251" cy="-28.5" r="46.4751" gradientTransform="matrix(1 0 0 -1 0 -57)" gradientUnits="userSpaceOnUse">
			<stop  offset="0" style="stop-color:#CCEFE7;stop-opacity:0"/>
			<stop  offset="0.0627" style="stop-color:#C7EDDC;stop-opacity:0.0431"/>
			<stop  offset="0.1686" style="stop-color:#BAE9C1;stop-opacity:0.1686"/>
			<stop  offset="0.3059" style="stop-color:#A5E193;stop-opacity:0.3725"/>
			<stop  offset="0.4706" style="stop-color:#88D755;stop-opacity:0.651"/>
			<stop  offset="0.651" style="stop-color:#66C912"/>
		</radialGradient>
		<path style="fill-rule:evenodd;clip-rule:evenodd;fill:url(#SVGID_1_);" d="M95.3-30.3c10.667,7.7,18.2,17.716,22.6,30.05
			L118.45,0c-0.6-15.867-6.617-29.333-18.05-40.4C88.9-51.467,75.167-57,59.2-57c-15.667,0-29.217,5.367-40.65,16.1
			C7.183-30.233,1-17.167,0-1.7c4.6-11.966,12.167-21.65,22.7-29.05c10.8-7.533,22.8-11.3,36-11.3
			C72.167-42.05,84.367-38.133,95.3-30.3z"/>
	</g>
</symbol>
<symbol  id="FlashAICB_x2F_Layer_1_x2F__x3C_Path_x3E__x5F_0" viewBox="0 -61.153 109.75 61.153">
	<g id="Layer_1_4_">
		<path style="fill-rule:evenodd;clip-rule:evenodd;fill:#FFFFFF;" d="M106.25-34.3c2.333-5.6,3.5-10.883,3.5-15.85
			c0-4.934-1.433-8.05-4.3-9.35c-2.333-1.067-6.25-1.05-11.75,0.05c-7.267,1.733-13.083,3.067-17.45,4c-8,1.7-15.133,2.55-21.4,2.55
			c-6.3,0-13.417-0.917-21.35-2.75c-8.3-2.2-14.117-3.684-17.45-4.45c-5.5-1.233-9.417-1.383-11.75-0.45
			C1.433-59.383,0-56.333,0-51.4c0,5.467,1.167,11.117,3.5,16.95c2.467,6.167,5.933,11.733,10.4,16.7C24.6-5.917,38.25,0,54.85,0
			C71.283,0,84.933-5.983,95.8-17.95C100.267-22.85,103.75-28.3,106.25-34.3z"/>
	</g>
</symbol>
<symbol  id="FlashAICB_x2F_Layer_1_x2F__x3C_Path_x3E__x5F_1" viewBox="0 -55.65 109.75 55.65">
	<g id="Layer_1_3_">
		
			<linearGradient id="SVGID_2_" gradientUnits="userSpaceOnUse" x1="16164.4561" y1="-54.73" x2="16220.0518" y2="-54.73" gradientTransform="matrix(1.796945e-005 1 -1 -0.001 -0.1455 -16220.1064)">
			<stop  offset="0.1294" style="stop-color:#E2B8B2"/>
			<stop  offset="0.9255" style="stop-color:#FFFFFF"/>
		</linearGradient>
		<path style="fill-rule:evenodd;clip-rule:evenodd;fill:url(#SVGID_2_);" d="M95.8-17.95c4.467-4.9,7.95-10.35,10.45-16.35
			c2.333-5.6,3.5-10.883,3.5-15.85c0-1.767-0.167-3.25-0.5-4.45c-1.833,11.033-7.217,20.833-16.15,29.4
			C82.6-15.067,69.85-10,54.85-10c-15.2,0-28-5.05-38.4-15.15c-8.967-8.7-14.3-18.867-16-30.5C0.15-54.45,0-53.033,0-51.4
			c0,5.467,1.167,11.117,3.5,16.95c2.467,6.167,5.933,11.733,10.4,16.7C24.6-5.917,38.25,0,54.85,0
			C71.283,0,84.933-5.983,95.8-17.95z"/>
	</g>
</symbol>
<g>
	<path style="fill-rule:evenodd;clip-rule:evenodd;fill:#68757B;" d="M164.6,52.4c4.5,10.6,6.75,21.7,6.75,33.3
		c0,11.6-2.25,22.7-6.75,33.3c-4.333,10.267-10.466,19.35-18.399,27.25c-7.9,7.934-16.983,14.066-27.25,18.4
		c-10.601,4.5-21.7,6.75-33.3,6.75s-22.7-2.25-33.3-6.75c-10.233-4.334-19.3-10.467-27.2-18.4c-7.933-7.9-14.066-16.983-18.4-27.25
		C2.25,108.4,0,97.3,0,85.7C0,74.1,2.25,63,6.75,52.4c4.333-10.267,10.467-19.35,18.4-27.25c7.9-7.933,16.967-14.066,27.2-18.4
		C62.95,2.25,74.05,0,85.65,0s22.7,2.25,33.3,6.75c10.267,4.333,19.35,10.467,27.25,18.4C154.134,33.05,160.267,42.133,164.6,52.4z"
		/>
	
		<linearGradient id="SVGID_3_" gradientUnits="userSpaceOnUse" x1="-171.4854" y1="85.6748" x2="-0.085" y2="85.6748" gradientTransform="matrix(5.836008e-006 -1 1 -0.001 -5.659786e-005 4.449275e-004)">
		<stop  offset="0" style="stop-color:#AA8A0E"/>
		<stop  offset="0.5098" style="stop-color:#D4B657"/>
		<stop  offset="0.6941" style="stop-color:#FCFCEF"/>
		<stop  offset="0.8706" style="stop-color:#F1E9B0"/>
	</linearGradient>
	<path style="fill-rule:evenodd;clip-rule:evenodd;fill:url(#SVGID_3_);" d="M164.6,52.4c4.5,10.6,6.75,21.7,6.75,33.3
		c0,11.6-2.25,22.7-6.75,33.3c-4.333,10.267-10.466,19.35-18.399,27.25c-7.9,7.934-16.983,14.066-27.25,18.4
		c-10.601,4.5-21.7,6.75-33.3,6.75s-22.7-2.25-33.3-6.75c-10.233-4.334-19.3-10.467-27.2-18.4c-7.933-7.9-14.066-16.983-18.4-27.25
		C2.25,108.4,0,97.3,0,85.7C0,74.1,2.25,63,6.75,52.4c4.333-10.267,10.467-19.35,18.4-27.25c7.9-7.933,16.967-14.066,27.2-18.4
		C62.95,2.25,74.05,0,85.65,0s22.7,2.25,33.3,6.75c10.267,4.333,19.35,10.467,27.25,18.4C154.134,33.05,160.267,42.133,164.6,52.4z"
		/>
	<g>
		<g>
			
				<linearGradient id="SVGID_4_" gradientUnits="userSpaceOnUse" x1="-158.1348" y1="85.6504" x2="-13.4351" y2="85.6504" gradientTransform="matrix(6.912045e-006 -1 1 -0.001 -1.233096e-004 4.449275e-004)">
				<stop  offset="0" style="stop-color:#EAE2AB"/>
				<stop  offset="1" style="stop-color:#D7BA18"/>
			</linearGradient>
			<path style="fill-rule:evenodd;clip-rule:evenodd;fill:url(#SVGID_4_);" d="M158,85.7c0,9.8-1.9,19.184-5.7,28.149
				c-3.633,8.667-8.783,16.334-15.45,23c-6.699,6.667-14.366,11.834-23,15.5c-8.966,3.801-18.366,5.7-28.2,5.7
				c-9.8,0-19.183-1.899-28.15-5.7c-8.667-3.666-16.333-8.833-23-15.5c-6.667-6.666-11.833-14.333-15.5-23
				c-3.8-8.966-5.7-18.35-5.7-28.149c0-9.8,1.9-19.184,5.7-28.15c3.667-8.667,8.833-16.333,15.5-23
				c6.667-6.667,14.333-11.833,23-15.5c8.967-3.8,18.35-5.7,28.15-5.7c9.833,0,19.234,1.9,28.2,5.7
				c8.634,3.667,16.301,8.833,23,15.5c6.667,6.667,11.817,14.333,15.45,23C156.1,66.517,158,75.9,158,85.7z"/>
		</g>
	</g>
	<g>
		
			<linearGradient id="SVGID_5_" gradientUnits="userSpaceOnUse" x1="-151.7852" y1="85.6758" x2="-19.7349" y2="85.6758" gradientTransform="matrix(7.572889e-006 -1 1 -0.001 -1.375957e-004 4.449275e-004)">
			<stop  offset="0.0745" style="stop-color:#6C9726"/>
			<stop  offset="0.2196" style="stop-color:#82B13A"/>
			<stop  offset="0.3686" style="stop-color:#9DCF52"/>
			<stop  offset="0.5882" style="stop-color:#CEE03A"/>
			<stop  offset="0.8118" style="stop-color:#D4E237"/>
			<stop  offset="1" style="stop-color:#FDEEB0"/>
		</linearGradient>
		<path style="fill-rule:evenodd;clip-rule:evenodd;fill:url(#SVGID_5_);" d="M132.35,132.35
			c-12.899,12.9-28.466,19.351-46.7,19.351c-18.2,0-33.75-6.45-46.65-19.351C26.1,119.45,19.65,103.9,19.65,85.7
			S26.1,51.95,39,39.05c12.9-12.933,28.45-19.4,46.65-19.4c18.234,0,33.8,6.467,46.7,19.4C145.25,51.95,151.7,67.5,151.7,85.7
			S145.25,119.45,132.35,132.35z"/>
		<path style="fill-rule:evenodd;clip-rule:evenodd;fill:#2B5B14;" d="M131.75,131.8c12.733-12.733,19.1-28.1,19.1-46.1
			s-6.366-33.367-19.1-46.1c-12.7-12.733-28.066-19.1-46.1-19.1c-18,0-33.367,6.367-46.1,19.1c-12.733,12.733-19.1,28.1-19.1,46.1
			s6.367,33.366,19.1,46.1c12.733,12.733,28.1,19.101,46.1,19.101C103.684,150.9,119.05,144.533,131.75,131.8z M147.45,60.1
			c3.366,8.133,5.05,16.667,5.05,25.6s-1.684,17.467-5.05,25.6c-3.367,8.134-8.2,15.351-14.5,21.65
			c-6.334,6.333-13.566,11.184-21.7,14.55s-16.667,5.05-25.6,5.05s-17.45-1.684-25.55-5.05c-8.133-3.366-15.367-8.217-21.7-14.55
			c-6.333-6.3-11.183-13.517-14.55-21.65c-3.367-8.133-5.05-16.666-5.05-25.6s1.684-17.467,5.05-25.6s8.217-15.367,14.55-21.7
			c6.333-6.3,13.567-11.133,21.7-14.5c8.1-3.367,16.617-5.05,25.55-5.05s17.466,1.683,25.6,5.05s15.366,8.2,21.7,14.5
			C139.25,44.733,144.083,51.967,147.45,60.1z"/>
	</g>
	
		<radialGradient id="SVGID_6_" cx="85.6504" cy="83.5498" r="59.25" gradientTransform="matrix(1 0 0 -1 0 167.0996)" gradientUnits="userSpaceOnUse">
		<stop  offset="0" style="stop-color:#FDEEB0"/>
		<stop  offset="0.1882" style="stop-color:#D4E237"/>
		<stop  offset="0.5137" style="stop-color:#CEE03A"/>
		<stop  offset="1" style="stop-color:#A0D051;stop-opacity:0.5373"/>
	</radialGradient>
	<path style="fill-rule:evenodd;clip-rule:evenodd;fill:url(#SVGID_6_);" d="M127.6,125.4c-11.566,11.566-25.55,17.35-41.95,17.35
		c-16.367,0-30.35-5.783-41.95-17.35C32.133,113.866,26.35,99.917,26.35,83.55c0-16.333,5.783-30.283,17.35-41.85
		c11.6-11.567,25.583-17.35,41.95-17.35c16.4,0,30.383,5.783,41.95,17.35c11.567,11.533,17.351,25.483,17.351,41.85
		C144.95,99.917,139.167,113.866,127.6,125.4z"/>
	<g>
		<g>
			<path style="fill-rule:evenodd;clip-rule:evenodd;fill:#EFF4D9;" d="M64.6,38.35V56.7c0,0.8-0.233,1.433-0.7,1.9
				c-0.433,0.433-1.017,0.65-1.75,0.65s-1.3-0.217-1.7-0.65c-0.467-0.467-0.7-1.1-0.7-1.9V40.5h-1.9c-0.733,0-1.3-0.233-1.7-0.7
				c-0.333-0.4-0.5-0.9-0.5-1.5c0-0.6,0.2-1.116,0.6-1.55c0.4-0.467,0.934-0.7,1.6-0.7h4.55c0.667,0,1.217,0.217,1.65,0.65
				C64.417,37.133,64.6,37.684,64.6,38.35z"/>
			
				<linearGradient id="SVGID_7_" gradientUnits="userSpaceOnUse" x1="-59.2227" y1="60.1279" x2="-35.4977" y2="60.1279" gradientTransform="matrix(4.214963e-005 -1 1 -0.001 -1.319764e-004 4.458711e-004)">
				<stop  offset="0.149" style="stop-color:#0E2904"/>
				<stop  offset="0.302" style="stop-color:#143004"/>
				<stop  offset="0.5176" style="stop-color:#244304"/>
				<stop  offset="0.7765" style="stop-color:#3E6206"/>
				<stop  offset="0.9686" style="stop-color:#567E09"/>
			</linearGradient>
			<path style="fill-rule:evenodd;clip-rule:evenodd;fill:url(#SVGID_7_);" d="M64.6,37.25v18.4c0,0.767-0.233,1.383-0.7,1.85
				c-0.433,0.434-1.017,0.65-1.75,0.65c-0.7,0-1.267-0.216-1.7-0.65c-0.467-0.433-0.7-1.05-0.7-1.85v-16.2h-1.9
				c-0.733,0-1.3-0.233-1.7-0.7c-0.333-0.433-0.5-0.95-0.5-1.55c0-0.6,0.2-1.117,0.6-1.55c0.4-0.466,0.934-0.7,1.6-0.7h4.55
				c0.667,0,1.217,0.216,1.65,0.65C64.417,36.033,64.6,36.583,64.6,37.25z"/>
		</g>
		<g>
			<path style="fill-rule:evenodd;clip-rule:evenodd;fill:#EFF4D9;" d="M69.5,37.8c1.5-1.433,3.25-2.15,5.25-2.15
				c2.033,0,3.733,0.617,5.1,1.85c1.4,1.267,2.1,2.9,2.1,4.9c0,1.867-0.95,4.05-2.85,6.55c-1.067,1.4-2.7,3.35-4.9,5.85h5.9
				c1.667,0,2.5,0.7,2.5,2.1c0,0.7-0.233,1.25-0.7,1.65c-0.4,0.333-0.933,0.5-1.6,0.5H69.5c-1.667,0-2.5-0.716-2.5-2.15
				c0-0.533,0.25-1.083,0.75-1.65c3.7-4.066,6.367-7.283,8-9.65c0.767-1.1,1.15-2.1,1.15-3c0-0.667-0.216-1.25-0.65-1.75
				c-0.467-0.5-1.017-0.75-1.65-0.75c-1.3,0-2.217,0.883-2.75,2.65c-0.567,1.733-1.333,2.6-2.3,2.6c-0.733,0-1.316-0.233-1.75-0.7
				c-0.4-0.433-0.6-0.983-0.6-1.65C67.2,40.967,67.967,39.233,69.5,37.8z"/>
			
				<linearGradient id="SVGID_8_" gradientUnits="userSpaceOnUse" x1="-59.2373" y1="74.8027" x2="-35.5123" y2="74.8027" gradientTransform="matrix(4.214963e-005 -1 1 -0.001 -1.319764e-004 4.458711e-004)">
				<stop  offset="0.149" style="stop-color:#0E2904"/>
				<stop  offset="0.302" style="stop-color:#143004"/>
				<stop  offset="0.5176" style="stop-color:#244304"/>
				<stop  offset="0.7765" style="stop-color:#3E6206"/>
				<stop  offset="0.9686" style="stop-color:#567E09"/>
			</linearGradient>
			<path style="fill-rule:evenodd;clip-rule:evenodd;fill:url(#SVGID_8_);" d="M69.5,36.75c1.5-1.433,3.25-2.15,5.25-2.15
				c2.033,0,3.733,0.6,5.1,1.8c1.4,1.267,2.1,2.9,2.1,4.9c0,1.9-0.95,4.1-2.85,6.6c-1.067,1.4-2.7,3.333-4.9,5.8h5.9
				c1.667,0,2.5,0.716,2.5,2.15c0,0.7-0.233,1.233-0.7,1.6c-0.4,0.333-0.933,0.5-1.6,0.5H69.5c-1.667,0-2.5-0.7-2.5-2.1
				c0-0.533,0.25-1.083,0.75-1.65c3.7-4.067,6.367-7.284,8-9.65c0.767-1.1,1.15-2.1,1.15-3c0-0.667-0.216-1.25-0.65-1.75
				c-0.467-0.5-1.017-0.75-1.65-0.75c-1.3,0-2.217,0.867-2.75,2.6c-0.567,1.733-1.333,2.6-2.3,2.6c-0.733,0-1.316-0.233-1.75-0.7
				c-0.4-0.433-0.6-0.983-0.6-1.65C67.2,39.9,67.967,38.184,69.5,36.75z"/>
		</g>
		<g>
			<path style="fill-rule:evenodd;clip-rule:evenodd;fill:#EFF4D9;" d="M85.65,39.1c0.167-1.2,0.45-2.017,0.85-2.45
				c0.333-0.4,0.9-0.6,1.7-0.6h7.75c0.733,0,1.316,0.2,1.75,0.6c0.434,0.367,0.649,0.85,0.649,1.45c0,1.6-0.767,2.4-2.3,2.4H90
				l-0.5,3.45c0.934-0.233,1.75-0.35,2.45-0.35c1.934,0,3.533,0.683,4.8,2.05c1.233,1.3,1.85,2.917,1.85,4.85
				c0,2.767-0.716,4.934-2.149,6.5c-1.533,1.633-3.667,2.45-6.4,2.45c-1.434,0-2.899-0.367-4.4-1.1c-1.8-0.9-2.7-1.983-2.7-3.25
				c0-0.6,0.216-1.117,0.65-1.55c0.433-0.433,0.95-0.65,1.55-0.65c0.367,0,1.1,0.35,2.2,1.05c1.067,0.667,2,1,2.801,1
				c1.066,0,1.916-0.45,2.55-1.35c0.6-0.8,0.899-1.75,0.899-2.85c0-1-0.267-1.783-0.8-2.35c-0.533-0.6-1.3-0.9-2.3-0.9
				c-0.667,0-1.333,0.184-2,0.55c-0.7,0.333-1.316,0.5-1.85,0.5c-0.567,0-1.034-0.183-1.4-0.55c-0.333-0.3-0.5-0.617-0.5-0.95
				L85.65,39.1z"/>
			
				<linearGradient id="SVGID_9_" gradientUnits="userSpaceOnUse" x1="-59.2656" y1="90.7773" x2="-35.5156" y2="90.7773" gradientTransform="matrix(4.210527e-005 -1 1 -0.001 0 4.449275e-004)">
				<stop  offset="0.149" style="stop-color:#0E2904"/>
				<stop  offset="0.302" style="stop-color:#143004"/>
				<stop  offset="0.5176" style="stop-color:#244304"/>
				<stop  offset="0.7765" style="stop-color:#3E6206"/>
				<stop  offset="0.9686" style="stop-color:#567E09"/>
			</linearGradient>
			<path style="fill-rule:evenodd;clip-rule:evenodd;fill:url(#SVGID_9_);" d="M85.65,38.05c0.167-1.233,0.45-2.066,0.85-2.5
				c0.333-0.4,0.9-0.6,1.7-0.6h7.75c0.733,0,1.316,0.2,1.75,0.6c0.434,0.367,0.649,0.85,0.649,1.45c0,1.633-0.767,2.45-2.3,2.45H90
				l-0.5,3.4c1.066-0.2,1.884-0.3,2.45-0.3c1.934,0,3.533,0.667,4.8,2c1.233,1.333,1.85,2.95,1.85,4.85
				c0,2.767-0.716,4.934-2.149,6.5c-1.533,1.633-3.667,2.45-6.4,2.45c-1.434,0-2.899-0.367-4.4-1.1c-1.8-0.867-2.7-1.933-2.7-3.2
				c0-0.6,0.216-1.116,0.65-1.55c0.433-0.433,0.95-0.65,1.55-0.65c0.367,0,1.1,0.35,2.2,1.05c1.067,0.667,2,1,2.801,1
				c1.066,0,1.916-0.45,2.55-1.35c0.6-0.833,0.899-1.8,0.899-2.9c0-0.966-0.267-1.75-0.8-2.35c-0.566-0.6-1.333-0.9-2.3-0.9
				c-0.667,0-1.333,0.184-2,0.55c-0.7,0.333-1.316,0.5-1.85,0.5c-0.567,0-1.034-0.184-1.4-0.55c-0.333-0.3-0.5-0.617-0.5-0.95
				L85.65,38.05z"/>
		</g>
		<g>
			<path style="fill-rule:evenodd;clip-rule:evenodd;fill:#EFF4D9;" d="M101.35,38.1c1.567-1.633,3.517-2.45,5.851-2.45
				c2.399,0,4.366,0.8,5.899,2.4c1.467,1.534,2.2,3.4,2.2,5.6c0,2.233-0.967,4.934-2.899,8.1c-1.601,2.667-3.367,4.9-5.301,6.7
				c-0.166,0.167-0.517,0.417-1.05,0.75c-0.233,0.167-0.55,0.25-0.95,0.25c-0.466,0-0.966-0.25-1.5-0.75
				c-0.533-0.534-0.8-1.083-0.8-1.65c0-0.233,0.217-0.667,0.65-1.3c2.267-2.433,3.767-4.15,4.5-5.15l-0.101-0.1
				c-0.5,0.267-1.166,0.4-2,0.4c-1.899,0-3.517-0.733-4.85-2.2c-1.267-1.4-1.9-3.083-1.9-5.05C99.1,41.483,99.85,39.633,101.35,38.1
				z M104.9,46c0.566,0.7,1.333,1.05,2.3,1.05c0.899,0,1.633-0.316,2.2-0.95c0.566-0.633,0.85-1.45,0.85-2.45
				c0-0.933-0.267-1.716-0.8-2.35c-0.566-0.667-1.316-1-2.25-1c-0.9,0-1.65,0.333-2.25,1c-0.566,0.634-0.851,1.417-0.851,2.35
				C104.1,44.583,104.366,45.367,104.9,46z"/>
			
				<linearGradient id="SVGID_10_" gradientUnits="userSpaceOnUse" x1="-59.2822" y1="107.2012" x2="-35.5347" y2="107.2012" gradientTransform="matrix(4.210527e-005 -1 1 -0.001 0 4.449275e-004)">
				<stop  offset="0.149" style="stop-color:#0E2904"/>
				<stop  offset="0.302" style="stop-color:#143004"/>
				<stop  offset="0.5176" style="stop-color:#244304"/>
				<stop  offset="0.7765" style="stop-color:#3E6206"/>
				<stop  offset="0.9686" style="stop-color:#567E09"/>
			</linearGradient>
			<path style="fill-rule:evenodd;clip-rule:evenodd;fill:url(#SVGID_10_);" d="M101.35,37.05c1.567-1.633,3.517-2.45,5.851-2.45
				c2.399,0,4.366,0.8,5.899,2.4c1.467,1.5,2.2,3.367,2.2,5.6c0,2.2-0.967,4.883-2.899,8.05c-1.601,2.667-3.367,4.9-5.301,6.7
				l-1.05,0.8c-0.233,0.133-0.55,0.2-0.95,0.2c-0.466,0-0.966-0.25-1.5-0.75c-0.533-0.5-0.8-1.033-0.8-1.6
				c0-0.267,0.217-0.717,0.65-1.35c2.267-2.433,3.767-4.15,4.5-5.15l-0.101-0.05c-0.6,0.267-1.267,0.4-2,0.4
				c-1.899,0-3.517-0.733-4.85-2.2c-1.267-1.433-1.9-3.117-1.9-5.05C99.1,40.434,99.85,38.583,101.35,37.05z M110.25,42.6
				c0-0.934-0.267-1.717-0.8-2.35c-0.566-0.667-1.316-1-2.25-1c-0.9,0-1.65,0.317-2.25,0.95c-0.566,0.633-0.851,1.433-0.851,2.4
				c0,0.9,0.267,1.667,0.801,2.3c0.566,0.7,1.333,1.05,2.3,1.05c0.899,0,1.633-0.317,2.2-0.95
				C109.967,44.367,110.25,43.567,110.25,42.6z"/>
		</g>
	</g>
	<g>
		<g>
			<path style="fill-rule:evenodd;clip-rule:evenodd;fill:#A6CEC1;" d="M110.9,64.15c1.8,0,3.366,0.633,4.699,1.9l4.95,4.65
				c1,0.933,1.5,2.066,1.5,3.4s-0.5,2.45-1.5,3.35l-4.95,4.7C114.267,83.383,112.7,84,110.9,84H92.75c-0.033,0.4-0.167,0.8-0.4,1.2
				l0.25,0.55H110.9c0.833,0,1.683,0.167,2.55,0.5c0.866,0.366,1.583,0.816,2.149,1.35l4.95,4.7c1,0.934,1.5,2.05,1.5,3.351
				c0,1.333-0.5,2.466-1.5,3.399l-4.95,4.65c-1.333,1.267-2.899,1.899-4.699,1.899H92.3v15.7c0.334,0.233,0.601,0.533,0.8,0.9
				c0.233,0.399,0.384,0.816,0.45,1.25l0.05,0.1c0.667,1.167,0.584,2.4-0.25,3.7l1.45,0.85l0.101,0.051
				c0.666,0.466,1.383,1.017,2.149,1.649c1.066,0.967,1.55,2.167,1.45,3.601c0,1.066-0.4,2.199-1.2,3.399l-0.1,0.101l-1.351,1.75
				c-0.066,0.133-0.133,0.216-0.199,0.25v0.1l-0.101,0.05l-0.2,0.3v0.051l-0.05,0.05l-0.399,0.5L94.6,140.2
				c-0.333,0.333-0.6,0.55-0.8,0.649L93.4,141.1c-0.5,0.301-1.051,0.5-1.65,0.601l-0.6,0.1l-2.45,0.05l-1.25-0.1l-1.45,0.6
				c-0.667,0.233-1.333,0.351-2,0.351c-0.6,0-1.183-0.101-1.75-0.3l-2.85-1.2h-0.1c-1.133-0.334-1.883-0.584-2.25-0.75l-0.2-0.05
				L76.6,140.3l-0.05-0.05l-0.15-0.05l-0.35-0.2H76l-0.05-0.05l-0.3-0.15l-0.1-0.1l-0.3-0.15l-0.05-0.05l-0.1-0.05l-0.05-0.101
				c-0.1-0.066-0.183-0.116-0.25-0.149l-0.3-0.3l-0.1-0.051v-0.05l-0.3-0.25v-0.05l-0.1-0.1l-0.2-0.25l-0.05-0.051v-0.05L73.7,138
				l-0.55-0.9l-0.05-0.05l-0.35-0.75c-0.467-1-0.433-1.983,0.1-2.95l0.75-1.3l0.05-0.05l0.2-0.3l0.05-0.101l0.55-0.75l0.05-0.1
				l0.5-0.6l0.2-0.2c0.433-0.5,0.85-0.9,1.25-1.2l0.1-0.1l0.25-0.2l0.05-0.05l0.2-0.15l0.05-0.05c-0.067-0.367-0.083-0.667-0.05-0.9
				c0.067-1.1,0.567-1.967,1.5-2.6c-0.3-1-0.133-1.934,0.5-2.8v-21.25c-0.167-0.434-0.25-0.851-0.25-1.25V97.3
				c0-0.434,0.083-0.866,0.25-1.3v-0.7l-0.1-0.2h-18.5c-0.833,0-1.684-0.166-2.55-0.5c-0.867-0.333-1.583-0.783-2.15-1.35l-5-4.7
				c-0.967-0.967-1.45-2.083-1.45-3.35c0-1.333,0.5-2.467,1.5-3.4l4.95-4.65c0.567-0.566,1.283-1.033,2.15-1.4
				c0.867-0.333,1.717-0.5,2.55-0.5H78.8l0.25-0.8v-0.7c-0.167-0.433-0.25-0.85-0.25-1.25v-2.15c0-0.4,0.083-0.817,0.25-1.25v-1.9
				c0-1.1,0.4-2.034,1.2-2.8c0.767-0.8,1.7-1.2,2.8-1.2h5.2c1.033,0,1.917,0.333,2.65,1l0.25-0.05H110.9z"/>
			<path style="fill-rule:evenodd;clip-rule:evenodd;fill:#ECF8BD;" d="M113.45,64.55c0.899,0.367,1.649,0.833,2.25,1.4l4.95,4.7
				c1,0.934,1.5,2.083,1.5,3.45s-0.5,2.517-1.5,3.45l-4.95,4.7c-0.601,0.567-1.351,1.017-2.25,1.35
				c-0.867,0.367-1.717,0.55-2.55,0.55H92.85c-0.033,0.233-0.149,0.583-0.35,1.05l0.2,0.4h18.2c0.833,0,1.683,0.183,2.55,0.55
				c0.899,0.366,1.649,0.833,2.25,1.399l4.95,4.65c1,0.934,1.5,2.083,1.5,3.45c0,1.333-0.5,2.5-1.5,3.5l-4.95,4.649
				c-0.601,0.566-1.351,1.033-2.25,1.4c-0.867,0.333-1.717,0.5-2.55,0.5H92.45v15.5c0.333,0.333,0.583,0.649,0.75,0.95
				c0.267,0.399,0.416,0.816,0.45,1.25l0.05,0.1c0.633,1.167,0.566,2.4-0.2,3.7l1.35,0.8l0.101,0.05
				c0.866,0.566,1.583,1.117,2.149,1.65c1.101,0.967,1.601,2.217,1.5,3.75c0,1.066-0.399,2.2-1.199,3.399L97.3,137
				c-0.166,0.267-0.5,0.684-1,1.25L95.75,139v0.05l-0.1,0.101l-0.2,0.25v0.05l-0.75,0.85c-0.434,0.367-0.717,0.584-0.851,0.65
				l-0.399,0.25c-0.467,0.267-1.017,0.483-1.65,0.649L88.65,142l-1.2-0.1l-1.4,0.55c-0.667,0.233-1.35,0.35-2.05,0.35
				c-0.6,0-1.2-0.1-1.8-0.3l-2.85-1.2h-0.1c-0.5-0.133-1.25-0.366-2.25-0.7l-0.2-0.1l-0.3-0.1l-0.15-0.101l-1.15-0.649l-0.9-0.75
				l-0.25-0.301l-0.1-0.1l-0.25-0.3l-0.1-0.15l-0.1-0.1l-0.45-0.8L73,137.1l-0.35-0.75c-0.466-1-0.433-2.017,0.1-3.05l0.35-0.7
				l0.3-0.399l0.1-0.25l0.15-0.15l0.1-0.149l0.05-0.15l0.55-0.75l0.05-0.05l0.5-0.601L75,130l0.1-0.15l1.35-1.3l0.3-0.2l0.2-0.199
				L76.9,127.3c0.1-1.133,0.6-2.017,1.5-2.649c-0.267-0.967-0.1-1.884,0.5-2.75v-21.25c-0.167-0.4-0.25-0.817-0.25-1.25V97.3
				c0-0.434,0.1-0.883,0.3-1.35L78.9,95.3v-0.05H60.45c-0.8,0-1.65-0.184-2.55-0.55c-0.9-0.334-1.65-0.783-2.25-1.351L50.7,88.65
				c-1-0.9-1.5-2.051-1.5-3.45c0-1.367,0.5-2.517,1.5-3.45l4.95-4.7c0.6-0.566,1.35-1.033,2.25-1.4c0.867-0.333,1.717-0.5,2.55-0.5
				H78.7l0.25-0.75l-0.05-0.65c-0.167-0.433-0.25-0.85-0.25-1.25v-2.15c0-0.467,0.1-0.9,0.3-1.3L78.9,67.2
				c0-1.133,0.417-2.1,1.25-2.9c0.8-0.833,1.767-1.25,2.9-1.25h5.2c1.033,0,1.934,0.333,2.7,1h19.95
				C111.733,64.05,112.583,64.217,113.45,64.55z"/>
		</g>
		<g>
			
				<linearGradient id="SVGID_11_" gradientUnits="userSpaceOnUse" x1="-142.0835" y1="85.6763" x2="-62.3325" y2="85.6763" gradientTransform="matrix(1.254312e-005 -1 1 -0.001 1.120138e-004 4.449275e-004)">
				<stop  offset="0.0745" style="stop-color:#6B9724"/>
				<stop  offset="0.2588" style="stop-color:#82B139"/>
				<stop  offset="0.4471" style="stop-color:#9DCF52"/>
				<stop  offset="0.9647" style="stop-color:#DAE772"/>
			</linearGradient>
			<path style="fill-rule:evenodd;clip-rule:evenodd;fill:url(#SVGID_11_);" d="M113.45,63.75c0.899,0.333,1.649,0.783,2.25,1.35
				l4.95,4.7c1,0.934,1.5,2.083,1.5,3.45c0,1.333-0.5,2.5-1.5,3.5l-4.95,4.65c-0.601,0.567-1.351,1.034-2.25,1.4
				c-0.867,0.333-1.717,0.5-2.55,0.5H92.85c-0.033,0.333-0.149,0.684-0.35,1.05l0.2,0.45h18.2c0.833,0,1.683,0.167,2.55,0.5
				c0.899,0.367,1.649,0.834,2.25,1.4l4.95,4.7c1,0.933,1.5,2.083,1.5,3.449c0,1.367-0.5,2.517-1.5,3.45l-4.95,4.65
				c-0.601,0.566-1.351,1.033-2.25,1.399c-0.867,0.367-1.717,0.551-2.55,0.551H92.45v15.5c0.3,0.267,0.55,0.566,0.75,0.899
				c0.233,0.4,0.383,0.834,0.45,1.3l0.05,0.051c0.633,1.166,0.566,2.399-0.2,3.699l1.35,0.801l0.101,0.1
				c0.8,0.467,1.517,1,2.149,1.6c1.101,1,1.601,2.25,1.5,3.75c0,1.134-0.399,2.267-1.199,3.4l-1.65,2.15v0.05l-0.1,0.1l-0.2,0.3
				v0.051l-0.75,0.8l-0.851,0.7l-0.399,0.199c-0.467,0.267-1.017,0.483-1.65,0.65l-0.6,0.1l-2.55,0.051l-1.2-0.101l-1.4,0.601
				c-0.8,0.233-1.483,0.35-2.05,0.35c-0.633,0-1.233-0.116-1.8-0.35c-0.267-0.067-0.9-0.334-1.9-0.801l-0.95-0.35l-0.1-0.05
				c-0.5-0.134-1.25-0.367-2.25-0.7l-0.2-0.05l-0.3-0.15l-0.15-0.05l-0.75-0.4l-0.4-0.3l-0.25-0.149l-0.55-0.5l-0.1-0.051l-0.25-0.3
				l-0.1-0.149l-0.25-0.25l-0.2-0.301l-0.85-1.6c-0.466-1-0.433-2.017,0.1-3.05l0.75-1.3l0.25-0.351l0.05-0.1l0.55-0.75l0.05-0.101
				l0.5-0.6l1.45-1.45l0.1-0.05l0.3-0.25l0.05-0.05l0.15-0.101l-0.05-0.85c0.1-1.167,0.6-2.05,1.5-2.65c-0.267-1-0.1-1.933,0.5-2.8
				v-21.2c-0.167-0.433-0.25-0.866-0.25-1.3v-2.1c0-0.467,0.1-0.9,0.3-1.3L78.9,94.5v-0.1H60.45c-0.833,0-1.684-0.167-2.55-0.5
				c-0.9-0.367-1.65-0.834-2.25-1.4l-4.95-4.7c-1-0.899-1.5-2.05-1.5-3.45c0-1.367,0.5-2.517,1.5-3.45l4.95-4.7
				c0.6-0.567,1.35-1.017,2.25-1.35c0.9-0.367,1.75-0.55,2.55-0.55H78.7l0.25-0.75L78.9,72.9c-0.167-0.4-0.25-0.816-0.25-1.25v-2.1
				c0-0.433,0.1-0.883,0.3-1.35l-0.05-1.8c0-1.133,0.417-2.117,1.25-2.95c0.8-0.8,1.767-1.2,2.9-1.2h5.2c1.033,0,1.934,0.333,2.7,1
				l0.2-0.05h19.75C111.733,63.2,112.583,63.383,113.45,63.75z"/>
			<path style="fill-rule:evenodd;clip-rule:evenodd;fill:none;stroke:#ECF8BD;stroke-width:0.25;" d="M113.45,63.75
				c0.899,0.333,1.649,0.783,2.25,1.35l4.95,4.7c1,0.934,1.5,2.083,1.5,3.45c0,1.333-0.5,2.5-1.5,3.5l-4.95,4.65
				c-0.601,0.567-1.351,1.034-2.25,1.4c-0.867,0.333-1.717,0.5-2.55,0.5H92.85c-0.033,0.333-0.149,0.684-0.35,1.05l0.2,0.45h18.2
				c0.833,0,1.683,0.167,2.55,0.5c0.899,0.367,1.649,0.834,2.25,1.4l4.95,4.7c1,0.933,1.5,2.083,1.5,3.449
				c0,1.367-0.5,2.517-1.5,3.45l-4.95,4.65c-0.601,0.566-1.351,1.033-2.25,1.399c-0.867,0.367-1.717,0.551-2.55,0.551H92.45v15.5
				c0.3,0.267,0.55,0.566,0.75,0.899c0.233,0.4,0.383,0.834,0.45,1.3l0.05,0.051c0.633,1.166,0.566,2.399-0.2,3.699l1.35,0.801
				l0.101,0.1c0.8,0.467,1.517,1,2.149,1.6c1.101,1,1.601,2.25,1.5,3.75c0,1.134-0.399,2.267-1.199,3.4l-1.65,2.15v0.05l-0.1,0.1
				l-0.2,0.3v0.051l-0.75,0.8l-0.851,0.7l-0.399,0.199c-0.467,0.267-1.017,0.483-1.65,0.65l-0.6,0.1l-2.55,0.051l-1.2-0.101
				l-1.4,0.601c-0.8,0.233-1.483,0.35-2.05,0.35c-0.633,0-1.233-0.116-1.8-0.35c-0.267-0.067-0.9-0.334-1.9-0.801l-0.95-0.35
				l-0.1-0.05c-0.5-0.134-1.25-0.367-2.25-0.7l-0.2-0.05l-0.3-0.15l-0.15-0.05l-0.75-0.4l-0.4-0.3l-0.25-0.149l-0.55-0.5l-0.1-0.051
				l-0.25-0.3l-0.1-0.149l-0.25-0.25l-0.2-0.301l-0.85-1.6c-0.466-1-0.433-2.017,0.1-3.05l0.75-1.3l0.25-0.351l0.05-0.1l0.55-0.75
				l0.05-0.101l0.5-0.6l1.45-1.45l0.1-0.05l0.3-0.25l0.05-0.05l0.15-0.101l-0.05-0.85c0.1-1.167,0.6-2.05,1.5-2.65
				c-0.267-1-0.1-1.933,0.5-2.8v-21.2c-0.167-0.433-0.25-0.866-0.25-1.3v-2.1c0-0.467,0.1-0.9,0.3-1.3L78.9,94.5v-0.1H60.45
				c-0.833,0-1.684-0.167-2.55-0.5c-0.9-0.367-1.65-0.834-2.25-1.4l-4.95-4.7c-1-0.899-1.5-2.05-1.5-3.45
				c0-1.367,0.5-2.517,1.5-3.45l4.95-4.7c0.6-0.567,1.35-1.017,2.25-1.35c0.9-0.367,1.75-0.55,2.55-0.55H78.7l0.25-0.75L78.9,72.9
				c-0.167-0.4-0.25-0.816-0.25-1.25v-2.1c0-0.433,0.1-0.883,0.3-1.35l-0.05-1.8c0-1.133,0.417-2.117,1.25-2.95
				c0.8-0.8,1.767-1.2,2.9-1.2h5.2c1.033,0,1.934,0.333,2.7,1l0.2-0.05h19.75C111.733,63.2,112.583,63.383,113.45,63.75z"/>
		</g>
		<path style="fill-rule:evenodd;clip-rule:evenodd;fill:#2B5B14;" d="M110.9,66.2c1.066,0,1.983,0.35,2.75,1.05l5,4.7
			c0.366,0.367,0.55,0.8,0.55,1.3c0,0.533-0.184,0.983-0.55,1.35l-5,4.65c-0.801,0.733-1.717,1.1-2.75,1.1H91.15
			c-0.767,0-1.334-0.35-1.7-1.05v0.85c0.333,0,0.5,0.15,0.5,0.45v2.15c0,0.3-0.167,0.45-0.5,0.45v2.3c0.333,0,0.5,0.15,0.5,0.45
			v2.25c0.3-0.3,0.7-0.45,1.2-0.45h19.75c1.033,0,1.949,0.366,2.75,1.1l5,4.65c0.366,0.366,0.55,0.816,0.55,1.35
			c0,0.5-0.184,0.934-0.55,1.301l-5,4.699c-0.767,0.7-1.684,1.051-2.75,1.051H91.15c-0.733,0-1.301-0.334-1.7-1v22.05l0.3-0.3
			c0.167-0.134,0.333-0.167,0.5-0.101c0.167,0,0.3,0.084,0.4,0.25c0.1,0.2,0.083,0.517-0.051,0.95c0.267,0.066,0.434,0.167,0.5,0.3
			c0.134,0.2,0.067,0.517-0.199,0.95l-0.051,0.05c-0.233,0.434-0.449,1.066-0.649,1.9L89.95,128c0.767,0.2,1.517,0.533,2.25,1
			l1.2,0.75c0.6,0.333,1.183,0.767,1.75,1.3c0.366,0.367,0.533,0.851,0.5,1.45c0,0.566-0.233,1.184-0.7,1.85v0.051l-1.45,1.8
			l-0.25,0.45L93.1,136.8v0.05l-0.25,0.25L92.8,137.2l-0.1,0.05c-0.101,0.134-0.25,0.267-0.45,0.4l-0.15,0.1
			c-0.399,0.2-0.716,0.316-0.949,0.35L91.1,138.15l-2.3,0.05l-1.2-0.101H87.4l-0.75,0.101l-1.601,0.649
			c-0.466,0.134-0.816,0.2-1.05,0.2c-0.267,0-0.533-0.05-0.8-0.149l-1.65-0.7c-0.4-0.233-0.917-0.434-1.55-0.601l-2-0.6l-0.25-0.15
			H77.7l-0.05-0.05l-0.25-0.1l-0.05-0.05l-0.3-0.15l-0.15-0.1l-0.1-0.101h-0.05l-0.1-0.1L76.5,136.1h0.05l-0.05-0.05h-0.05V136H76.4
			l-0.05-0.05l-0.1-0.15H76.2l-0.05-0.05l-0.1-0.15v-0.05L75.9,135.4l-0.25-0.5H75.6l-0.3-0.601c-0.066-0.166-0.05-0.3,0.05-0.399
			l0.35-0.7l0.05-0.05l0.25-0.4l0.05-0.1h0.05l0.1-0.25h0.05v-0.051l0.45-0.6l0.05-0.05l0.4-0.55l1.1-1.101h0.05l0.05-0.05l0.15-0.1
			l0.2-0.2l0.45-0.25l0.1-0.101h0.05l0.15-0.1l0.15-0.05l0.15-0.101c0.067-0.533,0.333-0.899,0.8-1.1c0.233-0.134,0.534-0.2,0.9-0.2
			v-0.05c-0.167-0.233-0.367-0.366-0.6-0.4l-0.5-0.149c-0.333-0.066-0.5-0.25-0.5-0.55c0-0.233,0.167-0.4,0.5-0.5l0.5-0.051
			c0.4,0,0.75,0.067,1.05,0.2V125.4c-0.267-0.334-0.333-0.634-0.2-0.9l0.1-0.1l-0.5-1.2c-0.1-0.2-0.066-0.384,0.1-0.55
			c0.167-0.101,0.333-0.134,0.5-0.101V99c-0.167-0.066-0.25-0.217-0.25-0.45v-2.1c0-0.233,0.083-0.367,0.25-0.4V93.65
			c-0.167-0.067-0.25-0.217-0.25-0.45V91.1c0-0.233,0.083-0.366,0.25-0.399v-0.3c-0.4,0.699-0.966,1.05-1.7,1.05H60.45
			c-1.034,0-1.95-0.367-2.75-1.101l-5-4.7c-0.367-0.367-0.55-0.8-0.55-1.3s0.184-0.934,0.55-1.3l5-4.7c0.8-0.733,1.716-1.1,2.75-1.1
			H80.2c0.733,0,1.3,0.367,1.7,1.1V77.4c-0.167-0.033-0.25-0.167-0.25-0.4v-2.1c0-0.2,0.083-0.35,0.25-0.45v-2.4
			c-0.167-0.033-0.25-0.167-0.25-0.4v-2.1c0-0.2,0.083-0.35,0.25-0.45v-2.7c0-0.333,0.117-0.617,0.35-0.85
			c0.2-0.233,0.467-0.35,0.8-0.35h5.2c0.333,0,0.616,0.117,0.85,0.35c0.233,0.233,0.351,0.517,0.351,0.85v0.85
			c0.366-0.7,0.934-1.05,1.7-1.05H110.9z M89.45,88.8v-0.25H89.6L89.45,88.8l0.149-0.25H89.45V88.8z"/>
		<path style="fill-rule:evenodd;clip-rule:evenodd;fill:none;stroke:#2B5B14;" d="M110.9,66.2H91.15c-0.767,0-1.334,0.35-1.7,1.05
			V66.4c0-0.333-0.117-0.617-0.351-0.85c-0.233-0.233-0.517-0.35-0.85-0.35h-5.2c-0.333,0-0.6,0.117-0.8,0.35
			c-0.233,0.233-0.35,0.517-0.35,0.85v2.7c-0.167,0.1-0.25,0.25-0.25,0.45v2.1c0,0.233,0.083,0.367,0.25,0.4v2.4
			c-0.167,0.1-0.25,0.25-0.25,0.45V77c0,0.233,0.083,0.367,0.25,0.4v0.95c-0.4-0.733-0.966-1.1-1.7-1.1H60.45
			c-1.034,0-1.95,0.367-2.75,1.1l-5,4.7c-0.367,0.367-0.55,0.8-0.55,1.3s0.184,0.933,0.55,1.3l5,4.7
			c0.8,0.733,1.716,1.101,2.75,1.101H80.2c0.733,0,1.3-0.351,1.7-1.05v0.3c-0.167,0.033-0.25,0.166-0.25,0.399V93.2
			c0,0.233,0.083,0.383,0.25,0.45v2.399c-0.167,0.033-0.25,0.167-0.25,0.4v2.1c0,0.233,0.083,0.384,0.25,0.45v23.55
			c-0.167-0.033-0.333,0-0.5,0.101c-0.167,0.166-0.2,0.35-0.1,0.55l0.5,1.2l-0.1,0.1c-0.133,0.267-0.067,0.566,0.2,0.9v0.899
			c-0.3-0.133-0.65-0.2-1.05-0.2l-0.5,0.051c-0.333,0.1-0.5,0.267-0.5,0.5c0,0.3,0.167,0.483,0.5,0.55l0.5,0.149
			c0.233,0.034,0.433,0.167,0.6,0.4v0.05c-0.367,0-0.667,0.066-0.9,0.2c-0.466,0.2-0.733,0.566-0.8,1.1L79.6,129.2l-0.15,0.05
			l-0.15,0.1h-0.05l-0.1,0.101l-0.45,0.25l-0.2,0.2l-0.15,0.1l-0.05,0.05h-0.05l-1.1,1.101l-0.4,0.55l-0.05,0.05l-0.45,0.6v0.051
			H76.2l-0.1,0.25h-0.05l-0.05,0.1l-0.25,0.4l-0.05,0.05l-0.35,0.7c-0.1,0.1-0.117,0.233-0.05,0.399l0.3,0.601h0.05l0.25,0.5
			l0.15,0.149v0.05l0.1,0.15l0.05,0.05h0.05l0.1,0.15L76.4,136h0.05v0.05h0.05l0.05,0.05H76.5l0.15,0.101l0.1,0.1h0.05l0.1,0.101
			l0.15,0.1l0.3,0.15l0.05,0.05l0.25,0.1l0.05,0.05h0.05L78,137l2,0.6c0.633,0.167,1.15,0.367,1.55,0.601l1.65,0.7
			c0.267,0.1,0.533,0.149,0.8,0.149c0.233,0,0.583-0.066,1.05-0.2l1.601-0.649l0.75-0.101H87.6l1.2,0.101l2.3-0.05l0.051-0.051
			c0.233-0.033,0.55-0.149,0.949-0.35l0.15-0.1c0.2-0.134,0.35-0.267,0.45-0.4l0.1-0.05l0.05-0.101l0.25-0.25v-0.05l0.15-0.149
			l0.25-0.45l1.45-1.8v-0.051c0.467-0.666,0.7-1.283,0.7-1.85c0.033-0.6-0.134-1.083-0.5-1.45c-0.567-0.533-1.15-0.967-1.75-1.3
			L92.2,129c-0.733-0.467-1.483-0.8-2.25-1l0.25-1.05c0.2-0.834,0.416-1.467,0.649-1.9L90.9,125c0.267-0.434,0.333-0.75,0.199-0.95
			c-0.066-0.133-0.233-0.233-0.5-0.3c0.134-0.434,0.15-0.75,0.051-0.95c-0.101-0.166-0.233-0.25-0.4-0.25
			c-0.167-0.066-0.333-0.033-0.5,0.101l-0.3,0.3V100.9c0.399,0.666,0.967,1,1.7,1h19.75c1.066,0,1.983-0.351,2.75-1.051l5-4.699
			c0.366-0.367,0.55-0.801,0.55-1.301c0-0.533-0.184-0.983-0.55-1.35l-5-4.65c-0.801-0.733-1.717-1.1-2.75-1.1H91.15
			c-0.5,0-0.9,0.15-1.2,0.45v-2.25c0-0.3-0.167-0.45-0.5-0.45v-2.3c0.333,0,0.5-0.15,0.5-0.45V80.6c0-0.3-0.167-0.45-0.5-0.45V79.3
			c0.366,0.7,0.934,1.05,1.7,1.05h19.75c1.033,0,1.949-0.367,2.75-1.1l5-4.65c0.366-0.367,0.55-0.817,0.55-1.35
			c0-0.5-0.184-0.933-0.55-1.3l-5-4.7C112.884,66.55,111.967,66.2,110.9,66.2z M89.45,88.8v-0.25H89.6L89.45,88.8z"/>
		<g>
			<g>
				<path style="fill-rule:evenodd;clip-rule:evenodd;fill:#7A674C;" d="M76.75,135.7l-0.45-0.55l-0.55-1.051
					c0.934-1.633,1.867-2.85,2.8-3.649c0.9-0.767,2-1.3,3.3-1.601c0.933-0.199,2.333-0.383,4.2-0.55l2.351-0.2l0.399,0.15
					c1.167,0.167,2.217,0.55,3.15,1.15l1.2,0.75c0.399,0.233,0.966,0.649,1.699,1.25c0.534,0.5,0.45,1.283-0.25,2.35
					c-0.933,1.066-1.433,1.684-1.5,1.85c-0.5,0.934-1.166,1.5-2,1.7H87.65c-0.434-0.033-0.817,0-1.15,0.101l-1.55,0.649
					c-0.567,0.2-1.1,0.217-1.6,0.05L76.75,135.7z"/>
				<path style="fill-rule:evenodd;clip-rule:evenodd;fill:#837053;" d="M93.1,130.5c0.4,0.233,0.967,0.65,1.7,1.25
					c0.566,0.533,0.483,1.316-0.25,2.35l-1.45,1.851c-0.1,0.233-0.316,0.55-0.649,0.95c-0.267-0.334-0.434-0.584-0.5-0.75
					c-0.467-0.867-0.566-1.75-0.3-2.65c0-0.134,0.166-0.5,0.5-1.1c0.233-0.367,0.35-0.817,0.35-1.351c0-0.3-0.1-0.533-0.3-0.7
					l-0.4-0.55l-0.1-0.2l0.2,0.15L93.1,130.5z"/>
				<path style="fill-rule:evenodd;clip-rule:evenodd;fill:#8D795A;" d="M86.65,128.65l0.1-0.45l1.2-0.05l0.25,0.199l0.05,0.45
					c0,0.7-0.1,1.267-0.3,1.7c-0.101,0.2-0.184,0.316-0.25,0.35c-0.033,0.067-0.134,0.067-0.3,0c-0.2-0.033-0.4-0.383-0.601-1.05
					C86.667,129.366,86.616,128.983,86.65,128.65z"/>
				<path style="fill-rule:evenodd;clip-rule:evenodd;fill:#78654B;" d="M94.8,131.75c0.566,0.533,0.483,1.316-0.25,2.35
					l-1.45,1.851c-0.3,0.6-0.683,1.05-1.149,1.35l-0.7-1.399L90.2,132.6l0.6,0.15L91.4,133c0.699,0.2,1.149,0.283,1.35,0.25l0.1-0.7
					l0.75,0.101c0.267,0,0.517-0.067,0.75-0.2c0.034-0.233,0-0.483-0.1-0.75L94,131.1L94.8,131.75z"/>
				<path style="fill-rule:evenodd;clip-rule:evenodd;fill:#998463;" d="M78.55,130.45c0.333-0.267,0.75-0.55,1.25-0.851l0.3-0.05
					l0.55-0.3l1.2-0.4c0.933-0.199,2.333-0.383,4.2-0.55l0.4-0.05l1.8,1.1l0.35,0.101L88.9,129.6l0.55,0.7
					c0.166,0.134,0.416,0.2,0.75,0.2l0.75,0.15c0.267,0.033,0.616,0.267,1.05,0.699c0.634,0.434,0.983,0.667,1.05,0.7l0.3,0.15
					l0.551,0.75c0.1,0.3,0.333,0.666,0.699,1.1c-0.133,0.267-0.433,0.65-0.899,1.15l-0.601,0.75c-0.5,0.934-1.183,1.5-2.05,1.7
					H87.65c-0.434-0.034-0.817,0-1.15,0.1l-1.6,0.65c-0.566,0.199-1.083,0.216-1.55,0.05l-1.6-0.7
					c-0.867-0.366-1.417-0.566-1.65-0.6l-1.95-0.601l-0.15-0.1h-0.05c-0.467-0.367-0.8-0.584-1-0.65H76.9l-0.2-0.2l-0.1-0.199h-0.1
					l-0.75-1.301C76.684,132.467,77.617,131.25,78.55,130.45z"/>
				<path style="fill-rule:evenodd;clip-rule:evenodd;fill:#917D5D;" d="M77.55,131.4c0.067,0.033,0.134,0.116,0.2,0.25
					c0.067,0.466,0.133,0.733,0.2,0.8c0.033,0.033,0.216,0.149,0.55,0.35l-0.4,0.8c0.2,0.067,0.267,0.25,0.2,0.551
					c0.067,0.066,0.2,0.066,0.4,0v0.25l0.65-0.5c0.333-0.101,0.467,0.1,0.4,0.6c0.133,0,0.267,0.083,0.4,0.25
					c0.167,0.233,0.25,0.434,0.25,0.6l0.5,0.051c0.067,0,0.2,0.133,0.4,0.399c0.034,0.033,0.134,0.017,0.3-0.05
					c0.133-0.1,0.233-0.116,0.3-0.05c0.1,0.033,0.167,0.149,0.2,0.35v0.15l0.1,0.1l0.2,0.101l0.5-0.101
					c0.067-0.066,0.1-0.217,0.1-0.45c0.267,0.167,0.467,0.117,0.6-0.149c0.165-0.231,0.165-0.623,0-1.175
					c0.045,0.126,0.229,0.317,0.55,0.574c0.233,0.267,0.317,0.601,0.25,1l0.75,0.051c0.333,0,0.6,0.05,0.8,0.149
					c0-0.1,0.05-0.25,0.149-0.45c0.067-0.133,0.15-0.149,0.25-0.05v-0.45l0.301,0.15c0.166,0.1,0.267,0.15,0.3,0.15
					c-0.033-0.267,0.017-0.434,0.149-0.5c0.134,0.066,0.25,0.166,0.351,0.3v-0.5c1.133,0.6,1.883,0.916,2.25,0.95
					c0-0.5-0.066-0.967-0.2-1.4c-0.134-0.533-0.316-0.934-0.55-1.2c0.166,0.033,0.483,0.267,0.95,0.7c0.366,0.366,0.699,0.467,1,0.3
					l0.1,0.25l0.05-0.8l0.25,0.1c0.101,0.101,0.184,0.117,0.25,0.051c0-0.233-0.066-0.483-0.2-0.75L91,132.55
					c0.3,0.066,0.7,0.367,1.2,0.9c-0.033-0.367-0.267-0.783-0.7-1.25l-0.9-0.851c0.167,0,0.434,0.167,0.801,0.5
					c0.333,0.267,0.6,0.384,0.8,0.351l-0.101-0.3l0.15,0.1l-0.15-0.4c0.2,0.233,0.384,0.384,0.551,0.45l0.199-0.1l0.5,0.25
					l0.551,0.75c0.1,0.3,0.333,0.666,0.699,1.1c-0.133,0.267-0.433,0.65-0.899,1.15l-0.601,0.75c-0.5,0.934-1.183,1.5-2.05,1.7
					H87.65c-0.434-0.034-0.817,0-1.15,0.1l-1.6,0.65c-0.566,0.199-1.083,0.216-1.55,0.05l-1.6-0.7
					c-0.867-0.366-1.417-0.566-1.65-0.6l-1.95-0.601l-0.1-0.05c-0.833-0.434-1.417-0.884-1.75-1.35l-0.55-1.051
					C76.317,133.066,76.917,132.167,77.55,131.4z"/>
				<path style="fill-rule:evenodd;clip-rule:evenodd;fill:#8B7759;" d="M76.6,132.7l0.45-0.3l0.5-0.551
					c0.333-0.1,0.55-0.066,0.65,0.101c0.167,0.267,0.167,0.583,0,0.95c-0.067,0.199-0.2,0.466-0.4,0.8l-0.15,1.05l-0.35,0.9
					c0.134,0.133,0.25,0.116,0.35-0.051c0.167-0.166,0.284-0.25,0.35-0.25v0.5c0.167,0.067,0.3-0.017,0.4-0.25
					c0.167-0.199,0.267-0.433,0.3-0.699c0.066,0.433,0.2,0.466,0.4,0.1l0.5-0.9l-0.35,2.051c0,0.399,0.083,0.583,0.25,0.55
					l0.5-0.351c0.067,0.334,0.133,0.517,0.2,0.551c0.133,0.1,0.267,0.05,0.4-0.15c0,0.3,0.05,0.467,0.15,0.5h0.35l0.35,0.1
					l0.15-0.199l0.15-0.15c0,0.134,0.083,0.233,0.25,0.3l0.3,0.15c0-0.3,0.083-0.4,0.25-0.3l0.4,0.25l0.45,0.05l0.25-0.4l0.15-0.6
					l0.1,1c0.067,0.3,0.217,0.35,0.45,0.149l0.3-0.3c0.034-0.033,0.133,0,0.3,0.101c0-0.301,0.083-0.367,0.25-0.2
					c0.167,0.3,0.283,0.316,0.35,0.05c0.167,0.066,0.35,0.066,0.55,0l0.551-0.1v-0.601c0.233-0.033,0.566,0.134,1,0.5
					c0.1-0.533,0.1-0.95,0-1.25c0.233,0.5,0.583,0.934,1.05,1.3c0.5,0.367,0.833,0.367,1,0c0.166-0.433,0.149-0.949-0.05-1.55
					c0-0.233-0.067-0.649-0.2-1.25c-0.134-0.434-0.3-0.767-0.5-1c0.2,0.066,0.45,0.217,0.75,0.45c0.267,0.333,0.483,0.533,0.649,0.6
					l0.101,0.301c0.133,0.366,0.3,0.716,0.5,1.05l0.149,0.5c0.034,0.166,0.117,0.283,0.25,0.35l0.051-0.7l-0.101-0.6
					c0.134,0.233,0.283,0.4,0.45,0.5c0.267,0.134,0.45,0.2,0.55,0.2c0.066-0.8,0.084-1.3,0.05-1.5c0.101-0.066,0.233-0.066,0.4,0
					l0.35,0.05c0-0.267-0.083-0.517-0.25-0.75c-0.066-0.134-0.216-0.267-0.449-0.4c0.1-0.1,0.25-0.1,0.449,0l0.45,0.301L93,133.1
					l0.5,0.101l-0.2-0.45c-0.133-0.2-0.2-0.35-0.2-0.45l0.351,0.05l0.45,0.601c0.1,0.3,0.333,0.666,0.699,1.1
					c-0.133,0.267-0.433,0.65-0.899,1.15l-0.601,0.75c-0.5,0.934-1.183,1.5-2.05,1.7H87.65c-0.434-0.034-0.817,0-1.15,0.1l-1.6,0.65
					c-0.566,0.199-1.083,0.216-1.55,0.05l-1.6-0.7c-0.867-0.366-1.417-0.566-1.65-0.6l-1.95-0.601l-0.05-0.05
					c-0.8-0.366-1.4-0.816-1.8-1.35l-0.55-1.051L76.6,132.7z"/>
				<path style="fill-rule:evenodd;clip-rule:evenodd;fill:#7F6C4F;" d="M90.3,134.4h0.2l0.3,0.05
					c0.066,0.033,0.134,0.166,0.2,0.399c0.033,0.2,0.033,0.284,0,0.25l-0.2-0.149v0.35l-0.25-0.6
					C90.451,134.502,90.367,134.401,90.3,134.4z"/>
				<path style="fill-rule:evenodd;clip-rule:evenodd;fill:#7F6C4F;" d="M92.75,133.15l0.2,0.35l0.1,0.4
					c-0.267-0.233-0.467-0.351-0.6-0.351c0,0.134,0.033,0.25,0.1,0.351l0.05,0.399c-0.133,0-0.216-0.033-0.25-0.1l-0.1-0.351
					l-0.2-0.149c-0.116-0.088-0.142-0.171-0.075-0.25c0.028-0.022,0.069-0.006,0.125,0.05c-0.066-0.1-0.066-0.233,0-0.4h0.15
					c-0.033-0.1-0.033-0.199,0-0.3c0.066-0.066,0.116-0.083,0.15-0.05c0.066,0.1,0.199,0.15,0.399,0.15c0.2-0.034,0.3,0.066,0.3,0.3
					C92.934,133.1,92.816,133.083,92.75,133.15z"/>
				<path style="fill-rule:evenodd;clip-rule:evenodd;fill:#7F6C4F;" d="M93.1,132.5c0.301-0.066,0.467,0,0.5,0.2v0.2l-0.05,0.149
					c-0.066,0.134-0.149,0.084-0.25-0.149C93.167,132.767,93.1,132.634,93.1,132.5z"/>
				<path style="fill-rule:evenodd;clip-rule:evenodd;fill:#A79273;" d="M79.35,129.9l0.15-0.15l0.15,0.05
					c0,0.134-0.05,0.2-0.15,0.2S79.35,129.967,79.35,129.9z"/>
				<path style="fill-rule:evenodd;clip-rule:evenodd;fill:#A79273;" d="M79.8,129.95c0.134,0,0.167,0.05,0.1,0.149
					c0,0.134-0.05,0.15-0.15,0.051V130L79.8,129.95z"/>
				<path style="fill-rule:evenodd;clip-rule:evenodd;fill:#A79273;" d="M82.05,129.15l-0.2,0.149c-0.167,0.066-0.3,0.084-0.4,0.05
					l0.2-0.399l-0.3,0.05l0.5-0.15l0.6-0.1c0.033,0.1,0.033,0.217,0,0.35l-0.2,0.051H82.05z"/>
				<path style="fill-rule:evenodd;clip-rule:evenodd;fill:#A79273;" d="M82.65,128.95h0.1c0.133-0.066,0.167,0,0.1,0.2
					C82.583,129.116,82.517,129.05,82.65,128.95z"/>
				<path style="fill-rule:evenodd;clip-rule:evenodd;fill:#A79273;" d="M84.45,128.5c0.1,0,0.167,0.017,0.2,0.05
					c0,0.033-0.033,0.066-0.1,0.101l-0.25,0.05c-0.133,0-0.2-0.017-0.2-0.05v-0.101L84.45,128.5z"/>
				<path style="fill-rule:evenodd;clip-rule:evenodd;fill:#A79273;" d="M84.15,128.8L84.1,128.9c0.233,0,0.316,0.1,0.25,0.3
					c-0.067,0.066-0.133,0.083-0.2,0.05l-0.25-0.1l0.1-0.2L84.15,128.8z"/>
				<path style="fill-rule:evenodd;clip-rule:evenodd;fill:#A79273;" d="M84.5,130c0-0.066,0.05-0.1,0.15-0.1l0.15,0.05l0.25-0.101
					h0.25c0.134,0,0.233,0.034,0.3,0.101c0.167,0.3,0,0.45-0.5,0.45l-0.35,0.05c-0.133,0.033-0.2-0.05-0.2-0.25
					c-0.133,0-0.2-0.05-0.2-0.15l0.3-0.05H84.5z"/>
				<path style="fill-rule:evenodd;clip-rule:evenodd;fill:#A79273;" d="M85.825,129.75c0.281,0.002,0.356,0.068,0.225,0.2
					c-0.167,0.133-0.283,0.116-0.35-0.05L85.825,129.75z"/>
				<path style="fill-rule:evenodd;clip-rule:evenodd;fill:#A79273;" d="M87.2,129.15l-0.25,0.149l0.45-0.1
					c0.267-0.033,0.366,0.066,0.3,0.3c0,0.2-0.15,0.316-0.45,0.35c-0.267,0-0.384-0.1-0.35-0.3c-0.134,0-0.233-0.033-0.301-0.1
					c0.034-0.101,0.134-0.184,0.301-0.25L87.2,129.15z"/>
				<path style="fill-rule:evenodd;clip-rule:evenodd;fill:#A79273;" d="M86.5,130.05c-0.025-0.019-0.051-0.035-0.075-0.05
					l0.325,0.1c0.167,0.101,0.167,0.2,0,0.301c0,0.066-0.066,0.066-0.2,0l-0.25-0.15c0-0.165,0.033-0.248,0.101-0.25L86.5,130.05z"
					/>
				<path style="fill-rule:evenodd;clip-rule:evenodd;fill:#A79273;" d="M85.15,131.2c0.267,0.066,0.383,0.217,0.35,0.45
					c-0.033,0.133-0.167,0.25-0.4,0.35l-0.4,0.1l-0.45,0.2c-0.2,0-0.333-0.033-0.4-0.1c-0.033-0.066-0.017-0.167,0.05-0.3l0.15-0.15
					l-0.35-0.05c0-0.3,0.117-0.467,0.35-0.5c0.1-0.033,0.267-0.033,0.5,0H85.15z"/>
				<path style="fill-rule:evenodd;clip-rule:evenodd;fill:#A79273;" d="M83.55,132.35c0,0.134-0.033,0.217-0.1,0.25l-0.2-0.05
					l0.05-0.149h-0.05l0.05-0.051H83.55z"/>
				<path style="fill-rule:evenodd;clip-rule:evenodd;fill:#A79273;" d="M84.1,132.65l-0.15,0.05l0.4-0.05l0.4,0.05l-0.05,0.2
					l-0.1,0.1c-0.333,0.066-0.6,0.033-0.8-0.1C83.833,132.733,83.934,132.65,84.1,132.65z"/>
				<path style="fill-rule:evenodd;clip-rule:evenodd;fill:#A79273;" d="M80.85,132.25c-0.3,0.134-0.55,0.2-0.75,0.2
					c0-0.167,0.083-0.25,0.25-0.25h0.35c0.233-0.066,0.316-0.033,0.25,0.1c-0.034,0.101-0.067,0.134-0.1,0.101V132.25z"/>
				<path style="fill-rule:evenodd;clip-rule:evenodd;fill:#A79273;" d="M79.6,132.25l0.05,0.05l0.2,0.05v0.15
					c-0.067,0.066-0.15,0.083-0.25,0.05l-0.2-0.1L79.6,132.25z"/>
				<path style="fill-rule:evenodd;clip-rule:evenodd;fill:#A79273;" d="M82.8,133.3l-0.2-0.1l0.45,0.05c0.067,0.2,0,0.333-0.2,0.4
					c-0.167,0-0.267-0.034-0.3-0.101c-0.066-0.1-0.066-0.184,0-0.25H82.8z"/>
				<path style="fill-rule:evenodd;clip-rule:evenodd;fill:#A79273;" d="M87.85,130.05c0.101-0.133,0.267-0.2,0.5-0.2l0.45,0.051
					l-0.149,0.05c0.066,0,0.1,0.05,0.1,0.149l-0.1,0.25c-0.067,0.2-0.2,0.267-0.4,0.2c-0.2,0-0.25-0.116-0.15-0.35H88
					C87.9,130.2,87.85,130.15,87.85,130.05z"/>
				<path style="fill-rule:evenodd;clip-rule:evenodd;fill:#A79273;" d="M89.45,130.55v0.101c0.166,0,0.217,0.1,0.149,0.3
					c0,0.2-0.05,0.316-0.149,0.35l-0.351,0.15c-0.199,0.2-0.35,0.267-0.449,0.2c-0.067-0.101-0.034-0.217,0.1-0.351l0.2-0.3
					c-0.033-0.066,0.017-0.167,0.149-0.3L89.45,130.55z"/>
				<path style="fill-rule:evenodd;clip-rule:evenodd;fill:#A79273;" d="M89.3,131.6l-0.1,0.101c0.066,0,0.066,0.066,0,0.2
					c-0.066,0.233-0.184,0.283-0.351,0.149c-0.066-0.066-0.033-0.149,0.101-0.25L89.3,131.6z"/>
				<path style="fill-rule:evenodd;clip-rule:evenodd;fill:#A79273;" d="M88.5,132.25v0.05c0.134,0,0.184,0.033,0.15,0.101
					c0,0.133-0.051,0.166-0.15,0.1c-0.1,0-0.15-0.05-0.15-0.15C88.35,132.283,88.4,132.25,88.5,132.25z"/>
				<path style="fill-rule:evenodd;clip-rule:evenodd;fill:#A79273;" d="M89.1,132.45l-0.05-0.101c0.167-0.066,0.2,0.017,0.101,0.25
					c-0.101,0.134-0.184,0.117-0.25-0.05C88.967,132.45,89.033,132.417,89.1,132.45z"/>
				<path style="fill-rule:evenodd;clip-rule:evenodd;fill:#A79273;" d="M89.4,132.1c0-0.066,0.133-0.1,0.399-0.1h0.3
					c-0.033,0.267-0.183,0.483-0.449,0.65c-0.233,0.1-0.4,0.066-0.5-0.101L89.4,132.1z"/>
				<path style="fill-rule:evenodd;clip-rule:evenodd;fill:#A79273;" d="M88.85,132.75l0.051,0.1c0.033,0.2-0.034,0.267-0.2,0.2
					C88.6,132.95,88.65,132.85,88.85,132.75z"/>
				<path style="fill-rule:evenodd;clip-rule:evenodd;fill:#7F6C4F;" d="M77.8,132.55l0.25-0.399
					c0.067-0.067,0.184-0.101,0.35-0.101c0.133,0,0.2,0.084,0.2,0.25c0,0.134-0.033,0.267-0.1,0.4c-0.1,0.1-0.217,0.133-0.35,0.1
					c-0.2-0.066-0.316-0.133-0.35-0.2V132.55z"/>
				<path style="fill-rule:evenodd;clip-rule:evenodd;fill:#7F6C4F;" d="M79.8,130.9c0.233-0.034,0.317,0.116,0.25,0.449L80,131.5
					v0.25l-0.05,0.15l-0.1,0.05L79.6,132l-0.3-0.15l-0.05-0.1v-0.2c0-0.5,0.067-0.75,0.2-0.75l-0.1,0.3
					C79.483,130.967,79.633,130.9,79.8,130.9z"/>
				<path style="fill-rule:evenodd;clip-rule:evenodd;fill:#7F6C4F;" d="M82.05,130.85L82,131.15v0.25l-0.35,0.3
					c-0.2,0.2-0.45,0.184-0.75-0.05c-0.267-0.2-0.367-0.384-0.3-0.551l0.6-0.449l0.15-0.2l0.15-0.101l0.4-0.449
					c0.3-0.2,0.5-0.2,0.6,0c0.067,0.267,0.017,0.466-0.15,0.6L82.05,130.85z"/>
				<path style="fill-rule:evenodd;clip-rule:evenodd;fill:#7F6C4F;" d="M80.15,129.75l0.45-0.05c0.467,0,0.65,0.166,0.55,0.5
					c-0.033,0.133-0.216,0.149-0.55,0.05C80.3,130.116,80.15,129.95,80.15,129.75z"/>
				<path style="fill-rule:evenodd;clip-rule:evenodd;fill:#7F6C4F;" d="M82.65,128.75v-0.05l1.25-0.15v0.05
					c0,0.167-0.033,0.25-0.1,0.25h-0.25C83.083,128.85,82.783,128.816,82.65,128.75z"/>
				<path style="fill-rule:evenodd;clip-rule:evenodd;fill:#7F6C4F;" d="M86.95,128.8c0.467,0,0.616,0.084,0.45,0.25h-0.2
					c-0.233,0-0.4,0.033-0.5,0.101l-0.5,0.1c-0.2-0.033-0.35,0-0.45,0.1c-0.167,0.167-0.35,0.284-0.55,0.351h-0.25
					c-0.233,0.133-0.567,0.383-1,0.75l0.5-0.65c0.167-0.1,0.25-0.2,0.25-0.3v-0.1c0-0.101,0.033-0.15,0.1-0.15L85,129l0.1,0.1
					l0.05,0.101l0.1-0.05L85.3,129l0.4-0.25L86.95,128.8z"/>
				<path style="fill-rule:evenodd;clip-rule:evenodd;fill:#7F6C4F;" d="M82.3,131.6l0.5-0.899c0-0.334,0.184-0.533,0.55-0.601
					c0.367,0,0.617,0.034,0.75,0.101l0.25,0.1c0.066,0.134,0.066,0.25,0,0.351c-0.033,0.133-0.15,0.216-0.35,0.25
					c-0.2,0.033-0.316,0.1-0.35,0.199c0.067,0.233,0.05,0.467-0.05,0.7s-0.217,0.4-0.35,0.5c-0.2,0-0.383-0.05-0.55-0.149
					C82.367,132.05,82.233,131.866,82.3,131.6z"/>
				<path style="fill-rule:evenodd;clip-rule:evenodd;fill:#7F6C4F;" d="M87.35,131.9c0.167,0,0.334,0.133,0.5,0.399
					c0.101,0.134,0.217,0.4,0.351,0.8c0,0.067,0.05,0.15,0.149,0.25l0.25,0.15c0.101,0.167,0.084,0.366-0.05,0.6l-0.149,0.15
					l-0.15,0.05c-0.033-0.033-0.066-0.033-0.1,0L88.05,134.4c0,0.066-0.033,0.066-0.1,0H87.8l-0.1,0.1l0.05,0.4l-0.05,0.149
					l0.1,0.95l-0.149-0.2c-0.034-0.066-0.084-0.1-0.15-0.1l0.05,0.25l-0.35-0.15c-0.233,0-0.367-0.017-0.4-0.05l-0.7-0.5l-0.45,0.05
					l-0.35-0.2l-0.3-0.25l-0.05-0.35l0.05-0.4l0.65-0.399l0.55-0.7c0.133-0.066,0.366-0.1,0.7-0.1h0.149l-0.25-0.15
					c-0.1-0.1-0.149-0.217-0.149-0.35c0.033-0.134,0.149-0.267,0.35-0.4L87.35,131.9z"/>
				<path style="fill-rule:evenodd;clip-rule:evenodd;fill:#7F6C4F;" d="M90.2,132.8c0.1-0.2,0.383-0.267,0.85-0.2l0.3,0.15
					l0.051,0.2l0.149,0.399l0.05,0.5c-0.1-0.199-0.183-0.3-0.25-0.3l0.051,0.15l-0.4-0.3l-0.5-0.101
					c-0.233-0.066-0.366-0.184-0.4-0.35l0.051-0.05L90.2,132.8z"/>
				<path style="fill-rule:evenodd;clip-rule:evenodd;fill:#7F6C4F;" d="M90.45,131.1c0.1-0.066,0.184-0.066,0.25,0
					c0.233,0.167,0.366,0.367,0.399,0.601c-0.199-0.167-0.383-0.25-0.55-0.25H90.2c-0.134,0-0.233-0.084-0.3-0.25L90.45,131.1z"/>
				<path style="fill-rule:evenodd;clip-rule:evenodd;fill:#7F6C4F;" d="M90.95,130.85c0.333,0,0.467,0.15,0.399,0.45l-0.25-0.149
					c-0.033,0-0.083-0.034-0.149-0.101V130.85z"/>
				<path style="fill-rule:evenodd;clip-rule:evenodd;fill:#7F6C4F;" d="M92.2,131.95l-0.05,0.35v0.3H92v0.75l-0.05,0.4l-0.15,0.3
					c-0.066,0.066-0.133,0.084-0.2,0.05l-0.25-0.05c-0.066,0-0.133,0.05-0.199,0.15L91.1,134.6l-0.199-0.25
					c-0.034-0.066-0.101-0.033-0.2,0.101l0.1-0.45h0.05c0.167-0.267,0.384-0.4,0.65-0.4c0.167,0,0.25-0.116,0.25-0.35l0.05-0.7
					l0.15-0.6c0.033-0.267,0.1-0.4,0.2-0.4C92.25,131.55,92.267,131.684,92.2,131.95z"/>
				<path style="fill-rule:evenodd;clip-rule:evenodd;fill:#7F6C4F;" d="M80.9,133.45l0.25,0.05c0.034,0.333-0.033,0.434-0.2,0.3
					C80.717,133.7,80.7,133.583,80.9,133.45z"/>
				<path style="fill-rule:evenodd;clip-rule:evenodd;fill:#7F6C4F;" d="M86.15,131.25c0.399,0,0.566,0.167,0.5,0.5
					c0,0.167-0.051,0.267-0.15,0.3h-0.25c-0.333-0.033-0.5-0.1-0.5-0.2c-0.033-0.1-0.017-0.183,0.05-0.25L86.15,131.25z"/>
				<path style="fill-rule:evenodd;clip-rule:evenodd;fill:#9E968D;" d="M79.85,130.85c0.066,0,0.1,0.051,0.1,0.15v0.25l-0.2,0.3
					c-0.1,0.2-0.233,0.3-0.4,0.3c-0.2,0-0.267-0.133-0.2-0.399v-0.05l0.1-0.4c0.133-0.134,0.233-0.2,0.3-0.2
					C79.717,130.733,79.817,130.75,79.85,130.85z"/>
				<path style="fill-rule:evenodd;clip-rule:evenodd;fill:#9E968D;" d="M86.95,131.65l-0.101,0.6v0.2l0.051,0.1
					c-0.134,0-0.233-0.1-0.301-0.3v-0.2l-0.05-0.149l0.2-0.4c0.1-0.134,0.217-0.2,0.35-0.2h0.15l0.1,0.05L87.4,131.4l0.1,0.149
					l-0.15-0.149L87.2,131.35l-0.15,0.051L86.95,131.65z"/>
				<path style="fill-rule:evenodd;clip-rule:evenodd;fill:#BBB4A8;" d="M83.05,130.45l0.15,0.149l-0.2-0.05v0.05
					c-0.167,0-0.3,0.067-0.4,0.2c-0.133,0.2-0.2,0.367-0.2,0.5l0.05,0.3l0.05,0.15l-0.05-0.05c-0.067-0.033-0.133-0.117-0.2-0.25
					V131.1c0-0.233,0.067-0.416,0.2-0.55l0.35-0.2l0.2,0.101H83.05z M85.4,132.6l0.2,0.051l0.1,0.35l-0.05,0.2l-0.1,0.1l-0.3,0.15
					c-0.1,0-0.183-0.066-0.25-0.2v-0.2l0.05-0.25L85.4,132.6z"/>
				<path style="fill-rule:evenodd;clip-rule:evenodd;fill:#7D7970;" d="M82.95,131.05l0.2-0.1h0.05l0.2-0.101l0.1,0.2
					c0.033,0.101,0.017,0.25-0.05,0.45l-0.2,0.3c-0.1,0.101-0.25,0.15-0.45,0.15c-0.233-0.033-0.35-0.15-0.35-0.351
					c0.2,0,0.333-0.083,0.4-0.25L82.95,131.05z"/>
				<path style="fill-rule:evenodd;clip-rule:evenodd;fill:#7D7970;" d="M81.35,131.6l-0.4,0.051c-0.167-0.134-0.233-0.284-0.2-0.45
					l0.5-0.101l0.5-0.3h0.05l-0.15,0.5C81.617,131.467,81.517,131.566,81.35,131.6z"/>
				<path style="fill-rule:evenodd;clip-rule:evenodd;fill:#7D7970;" d="M79.7,131.15h-0.15c0.1-0.101,0.2-0.134,0.3-0.101
					c-0.067,0.467-0.233,0.65-0.5,0.55C79.35,131.467,79.467,131.316,79.7,131.15z"/>
				<path style="fill-rule:evenodd;clip-rule:evenodd;fill:#BCA591;" d="M83.3,133.4c-0.1,0.1-0.183,0.066-0.25-0.101
					c-0.033-0.066,0-0.149,0.1-0.25c0.067-0.066,0.133-0.083,0.2-0.05l0.1,0.3c0,0.2-0.05,0.267-0.15,0.2V133.4z"/>
				<path style="fill-rule:evenodd;clip-rule:evenodd;fill:#BCA591;" d="M80.9,133.3c0.067,0,0.117,0.033,0.15,0.101
					c0.034,0.033,0.034,0.1,0,0.199H80.8L80.9,133.3z"/>
				<path style="fill-rule:evenodd;clip-rule:evenodd;fill:#7A674C;" d="M77.65,132.4c0.034-0.034,0.1-0.267,0.2-0.7
					c0.167-0.2,0.3-0.367,0.4-0.5c0.067-0.066,0.2-0.351,0.4-0.851c0.9-0.733,1.967-1.233,3.2-1.5h0.25l0.2,1.051
					c0,0.366,0.083,0.5,0.25,0.399c0.167-0.066,0.4-0.166,0.7-0.3c0.2-0.033,0.517-0.05,0.95-0.05l1.45-0.15
					c0.433,0,0.734-0.066,0.9-0.2c0.134-0.066,0.267-0.199,0.4-0.399c0.2-0.267,0.3-0.417,0.3-0.45
					c0.033,0.033,0.417,0.15,1.15,0.35l1.3,0.351c0.434,0.166,0.7,0.25,0.8,0.25c0.2,0.033,0.417-0.05,0.65-0.25
					c0.366-0.033,0.949,0.2,1.75,0.7c0.333,0.267,0.517,0.483,0.55,0.649c0.033,0.233-0.066,0.566-0.3,1
					c-0.067,0.167-0.217,0.3-0.45,0.4c-0.101,0.133-0.217,0.217-0.351,0.25c-0.133,0.033-0.216,0.05-0.25,0.05
					c-0.066,0.033-0.133,0.116-0.199,0.25l-0.051,0.5c0,0.533-0.267,0.75-0.8,0.65c-0.1,0-0.25-0.067-0.45-0.2
					c-0.199-0.134-0.366-0.184-0.5-0.15v0.101c-0.1,0.033-0.216,0-0.35-0.101c-0.134-0.133-0.233-0.2-0.3-0.2
					c-0.134-0.033-0.367,0.051-0.7,0.25c-0.134,0.101-0.434,0.184-0.9,0.25c-0.033,0-0.116,0-0.25,0c-0.1,0-0.183,0.034-0.25,0.101
					L87.2,134.2l-0.3,0.149l-0.25,0.25L86,135c-0.167,0.066-0.45,0.1-0.85,0.1L83,136.4c-0.533,0.267-0.883,0.35-1.05,0.25
					c-0.133-0.134-0.184-0.334-0.15-0.601c0.134-0.166,0.184-0.366,0.15-0.6c-0.034-0.233-0.133-0.434-0.3-0.601
					c-0.167-0.233-0.45-0.35-0.85-0.35c-0.3,0-0.433-0.167-0.4-0.5c0-0.134,0.05-0.283,0.15-0.45c0.1-0.166,0.167-0.3,0.2-0.399
					c0.1-0.367,0-0.551-0.3-0.551c-0.067,0-0.233,0.101-0.5,0.301l-0.35,0.149c-0.133,0.033-0.333,0.25-0.6,0.65
					c-0.167,0.2-0.383,0.25-0.65,0.149c-0.333,0.2-0.567,0.301-0.7,0.301c-0.367,0-0.533-0.2-0.5-0.601c0-0.2,0.067-0.416,0.2-0.649
					C77.517,132.667,77.617,132.5,77.65,132.4z"/>
				<path style="fill-rule:evenodd;clip-rule:evenodd;fill:#7F6C4F;" d="M82.4,134.95c0.2,0,0.35,0.116,0.45,0.35l0.05,0.3
					l0.2,0.101l0.4,0.1h0.55c0.167,0.101,0.284,0.351,0.35,0.75c0,0.467-0.1,0.667-0.3,0.601l-0.05,0.25
					c-0.066,0-0.183-0.101-0.35-0.301l-0.3-0.35l-0.35-0.05h-0.3c-0.433-0.167-0.6-0.5-0.5-1c-0.3,0.066-0.483,0.033-0.55-0.101
					c-0.067-0.1-0.067-0.267,0-0.5c0.033-0.166,0.1-0.3,0.2-0.399l-0.05,0.25H82.4z"/>
				<path style="fill-rule:evenodd;clip-rule:evenodd;fill:#78654B;" d="M76.9,135.55l0.2,0.2v0.2c-0.367-0.3-0.633-0.566-0.8-0.8
					l-0.55-1.051l0.7-1.149c0.2-0.134,0.25-0.017,0.15,0.35c0.1,0,0.183-0.116,0.25-0.35C76.65,134.217,76.667,135.083,76.9,135.55z
					"/>
			</g>
			<g>
				<g>
					
						<linearGradient id="SVGID_12_" gradientUnits="userSpaceOnUse" x1="-88.9751" y1="-97.5" x2="-82.3252" y2="-97.5" gradientTransform="matrix(-1 0 0 -1 0 0)">
						<stop  offset="0.0039" style="stop-color:#ACAEB0"/>
						<stop  offset="0.2157" style="stop-color:#858689"/>
						<stop  offset="0.251" style="stop-color:#939597"/>
						<stop  offset="0.2588" style="stop-color:#96989A"/>
						<stop  offset="0.3137" style="stop-color:#B6B8B9"/>
						<stop  offset="0.3765" style="stop-color:#D1D2D2"/>
						<stop  offset="0.4431" style="stop-color:#E5E6E6"/>
						<stop  offset="0.5216" style="stop-color:#F4F4F4"/>
						<stop  offset="0.6118" style="stop-color:#FCFCFD"/>
						<stop  offset="0.7569" style="stop-color:#FFFFFF"/>
						<stop  offset="0.7843" style="stop-color:#CACACA"/>
						<stop  offset="1" style="stop-color:#BCBDBD"/>
					</linearGradient>
					<path style="fill-rule:evenodd;clip-rule:evenodd;fill:url(#SVGID_12_);" d="M89,66.4v62.25c0,0.466-0.25,0.699-0.75,0.699
						h-5.2c-0.466,0-0.7-0.233-0.7-0.699V66.4c0-0.5,0.233-0.75,0.7-0.75h5.2c0.2,0,0.384,0.083,0.55,0.25
						C88.934,66.033,89,66.2,89,66.4z"/>
				</g>
				<g>
					<g>
						<g>
							<linearGradient id="SVGID_13_" gradientUnits="userSpaceOnUse" x1="81.0127" y1="81.8501" x2="89.4877" y2="81.8501">
								<stop  offset="0" style="stop-color:#87898B"/>
								<stop  offset="0.6549" style="stop-color:#757679"/>
								<stop  offset="1" style="stop-color:#B8BABD"/>
							</linearGradient>
							<rect x="81" y="80.95" style="fill-rule:evenodd;clip-rule:evenodd;fill:url(#SVGID_13_);" width="8.45" height="1.8"/>
							
								<linearGradient id="SVGID_14_" gradientUnits="userSpaceOnUse" x1="-89.4873" y1="-81.5" x2="-81.0123" y2="-81.5" gradientTransform="matrix(-1 0 0 -1 0 0)">
								<stop  offset="0" style="stop-color:#E2E3E3"/>
								<stop  offset="0.1922" style="stop-color:#979797"/>
								<stop  offset="0.2078" style="stop-color:#8B8B8C"/>
								<stop  offset="0.2588" style="stop-color:#A9A9AA"/>
								<stop  offset="0.3137" style="stop-color:#C4C4C4"/>
								<stop  offset="0.3765" style="stop-color:#D8D8D9"/>
								<stop  offset="0.4431" style="stop-color:#E7E7E7"/>
								<stop  offset="0.5255" style="stop-color:#EFEFEF"/>
								<stop  offset="0.6588" style="stop-color:#F2F2F2"/>
								<stop  offset="0.6824" style="stop-color:#C2C2C2"/>
								<stop  offset="0.8118" style="stop-color:#949494"/>
								<stop  offset="0.8392" style="stop-color:#868686"/>
								<stop  offset="0.9059" style="stop-color:#676767"/>
								<stop  offset="0.9451" style="stop-color:#5C5C5C"/>
							</linearGradient>
							<rect x="81" y="80.6" style="fill-rule:evenodd;clip-rule:evenodd;fill:url(#SVGID_14_);" width="8.45" height="1.8"/>
						</g>
						<g>
							<linearGradient id="SVGID_15_" gradientUnits="userSpaceOnUse" x1="81.0127" y1="87.1992" x2="89.4877" y2="87.1992">
								<stop  offset="0" style="stop-color:#87898B"/>
								<stop  offset="0.6549" style="stop-color:#757679"/>
								<stop  offset="1" style="stop-color:#B8BABD"/>
							</linearGradient>
							<rect x="81" y="86.3" style="fill-rule:evenodd;clip-rule:evenodd;fill:url(#SVGID_15_);" width="8.45" height="1.8"/>
							
								<linearGradient id="SVGID_16_" gradientUnits="userSpaceOnUse" x1="-89.4873" y1="-86.8501" x2="-81.0123" y2="-86.8501" gradientTransform="matrix(-1 0 0 -1 0 0)">
								<stop  offset="0" style="stop-color:#E2E3E3"/>
								<stop  offset="0.1922" style="stop-color:#979797"/>
								<stop  offset="0.2078" style="stop-color:#8B8B8C"/>
								<stop  offset="0.2588" style="stop-color:#A9A9AA"/>
								<stop  offset="0.3137" style="stop-color:#C4C4C4"/>
								<stop  offset="0.3765" style="stop-color:#D8D8D9"/>
								<stop  offset="0.4431" style="stop-color:#E7E7E7"/>
								<stop  offset="0.5255" style="stop-color:#EFEFEF"/>
								<stop  offset="0.6588" style="stop-color:#F2F2F2"/>
								<stop  offset="0.6824" style="stop-color:#C2C2C2"/>
								<stop  offset="0.8118" style="stop-color:#949494"/>
								<stop  offset="0.8392" style="stop-color:#868686"/>
								<stop  offset="0.9059" style="stop-color:#676767"/>
								<stop  offset="0.9451" style="stop-color:#5C5C5C"/>
							</linearGradient>
							<rect x="81" y="85.95" style="fill-rule:evenodd;clip-rule:evenodd;fill:url(#SVGID_16_);" width="8.45" height="1.8"/>
						</g>
					</g>
					<g>
						<g>
							<linearGradient id="SVGID_17_" gradientUnits="userSpaceOnUse" x1="90.375" y1="70.75" x2="82.125" y2="70.75">
								<stop  offset="0" style="stop-color:#87898B"/>
								<stop  offset="0.6549" style="stop-color:#757679"/>
								<stop  offset="1" style="stop-color:#B8BABD"/>
							</linearGradient>
							<rect x="82.1" y="69.85" style="fill-rule:evenodd;clip-rule:evenodd;fill:url(#SVGID_17_);" width="8.25" height="1.8"/>
							<linearGradient id="SVGID_18_" gradientUnits="userSpaceOnUse" x1="90.375" y1="70.4248" x2="82.125" y2="70.4248">
								<stop  offset="0" style="stop-color:#333333"/>
								<stop  offset="0.1647" style="stop-color:#9FA1A2"/>
								<stop  offset="0.302" style="stop-color:#858689"/>
								<stop  offset="0.3451" style="stop-color:#9E9E9E"/>
								<stop  offset="0.7765" style="stop-color:#F2F2F2"/>
								<stop  offset="0.7961" style="stop-color:#B8BABD"/>
								<stop  offset="0.8784" style="stop-color:#C2C3C6"/>
								<stop  offset="1" style="stop-color:#D9DBDC"/>
							</linearGradient>
							<rect x="82.1" y="69.55" style="fill-rule:evenodd;clip-rule:evenodd;fill:url(#SVGID_18_);" width="8.25" height="1.75"/>
						</g>
						<g>
							<linearGradient id="SVGID_19_" gradientUnits="userSpaceOnUse" x1="90.375" y1="76.1001" x2="82.125" y2="76.1001">
								<stop  offset="0" style="stop-color:#87898B"/>
								<stop  offset="0.6549" style="stop-color:#757679"/>
								<stop  offset="1" style="stop-color:#B8BABD"/>
							</linearGradient>
							<rect x="82.1" y="75.2" style="fill-rule:evenodd;clip-rule:evenodd;fill:url(#SVGID_19_);" width="8.25" height="1.8"/>
							<linearGradient id="SVGID_20_" gradientUnits="userSpaceOnUse" x1="90.375" y1="75.7749" x2="82.125" y2="75.7749">
								<stop  offset="0" style="stop-color:#333333"/>
								<stop  offset="0.1647" style="stop-color:#9FA1A2"/>
								<stop  offset="0.302" style="stop-color:#858689"/>
								<stop  offset="0.3451" style="stop-color:#9E9E9E"/>
								<stop  offset="0.7765" style="stop-color:#F2F2F2"/>
								<stop  offset="0.7961" style="stop-color:#B8BABD"/>
								<stop  offset="0.8784" style="stop-color:#C2C3C6"/>
								<stop  offset="1" style="stop-color:#D9DBDC"/>
							</linearGradient>
							<rect x="82.1" y="74.9" style="fill-rule:evenodd;clip-rule:evenodd;fill:url(#SVGID_20_);" width="8.25" height="1.75"/>
						</g>
					</g>
					<g>
						<g>
							<linearGradient id="SVGID_21_" gradientUnits="userSpaceOnUse" x1="90.375" y1="92.3252" x2="82.125" y2="92.3252">
								<stop  offset="0" style="stop-color:#87898B"/>
								<stop  offset="0.6549" style="stop-color:#757679"/>
								<stop  offset="1" style="stop-color:#B8BABD"/>
							</linearGradient>
							<rect x="82.1" y="91.45" style="fill-rule:evenodd;clip-rule:evenodd;fill:url(#SVGID_21_);" width="8.25" height="1.75"/>
							<linearGradient id="SVGID_22_" gradientUnits="userSpaceOnUse" x1="90.375" y1="92" x2="82.125" y2="92">
								<stop  offset="0" style="stop-color:#333333"/>
								<stop  offset="0.1647" style="stop-color:#9FA1A2"/>
								<stop  offset="0.302" style="stop-color:#858689"/>
								<stop  offset="0.3451" style="stop-color:#9E9E9E"/>
								<stop  offset="0.7765" style="stop-color:#F2F2F2"/>
								<stop  offset="0.7961" style="stop-color:#B8BABD"/>
								<stop  offset="0.8784" style="stop-color:#C2C3C6"/>
								<stop  offset="1" style="stop-color:#D9DBDC"/>
							</linearGradient>
							<rect x="82.1" y="91.1" style="fill-rule:evenodd;clip-rule:evenodd;fill:url(#SVGID_22_);" width="8.25" height="1.801"/>
						</g>
						<g>
							<linearGradient id="SVGID_23_" gradientUnits="userSpaceOnUse" x1="90.375" y1="97.6748" x2="82.125" y2="97.6748">
								<stop  offset="0" style="stop-color:#87898B"/>
								<stop  offset="0.6549" style="stop-color:#757679"/>
								<stop  offset="1" style="stop-color:#B8BABD"/>
							</linearGradient>
							<rect x="82.1" y="96.8" style="fill-rule:evenodd;clip-rule:evenodd;fill:url(#SVGID_23_);" width="8.25" height="1.75"/>
							<linearGradient id="SVGID_24_" gradientUnits="userSpaceOnUse" x1="90.375" y1="97.3506" x2="82.125" y2="97.3506">
								<stop  offset="0" style="stop-color:#333333"/>
								<stop  offset="0.1647" style="stop-color:#9FA1A2"/>
								<stop  offset="0.302" style="stop-color:#858689"/>
								<stop  offset="0.3451" style="stop-color:#9E9E9E"/>
								<stop  offset="0.7765" style="stop-color:#F2F2F2"/>
								<stop  offset="0.7961" style="stop-color:#B8BABD"/>
								<stop  offset="0.8784" style="stop-color:#C2C3C6"/>
								<stop  offset="1" style="stop-color:#D9DBDC"/>
							</linearGradient>
							<rect x="82.1" y="96.45" style="fill-rule:evenodd;clip-rule:evenodd;fill:url(#SVGID_24_);" width="8.25" height="1.8"/>
						</g>
					</g>
				</g>
				<g>
					<g>
						<g>
							
								<linearGradient id="SVGID_25_" gradientUnits="userSpaceOnUse" x1="77.6699" y1="-67.1191" x2="90.8896" y2="-67.1191" gradientTransform="matrix(7.561436e-005 1 -1 -0.001 -3.409667e-004 -4.429743e-005)">
								<stop  offset="0.3373" style="stop-color:#DEDFE0"/>
								<stop  offset="1" style="stop-color:#ADAFB1"/>
							</linearGradient>
							<path style="fill-rule:evenodd;clip-rule:evenodd;fill:url(#SVGID_25_);" d="M58,78.7c0.7-0.633,1.517-0.95,2.45-0.95H80.2
								c0.367,0,0.7,0.133,1,0.4c0.267,0.3,0.4,0.633,0.4,1v10.4c0,0.4-0.133,0.733-0.4,1c-0.3,0.267-0.633,0.4-1,0.4H60.45
								c-1,0-1.817-0.316-2.45-0.95l-4.95-4.65c-0.267-0.267-0.4-0.583-0.4-0.95c0-0.4,0.133-0.733,0.4-1L58,78.7z"/>
							
								<linearGradient id="SVGID_26_" gradientUnits="userSpaceOnUse" x1="-80.6499" y1="-84.375" x2="-53.5498" y2="-84.375" gradientTransform="matrix(-1 0 0 -1 0 0)">
								<stop  offset="0.9647" style="stop-color:#DEDFE0"/>
								<stop  offset="1" style="stop-color:#ADAFB1"/>
							</linearGradient>
							<path style="fill-rule:evenodd;clip-rule:evenodd;fill:url(#SVGID_26_);" d="M58.65,89.35l-4.95-4.7l-0.15-0.3l0.15-0.25
								l4.95-4.7c0.534-0.466,1.133-0.7,1.8-0.7H80.2c0.3,0,0.45,0.15,0.45,0.45v10.4c0,0.334-0.15,0.5-0.45,0.5H60.45
								C59.783,90.05,59.184,89.816,58.65,89.35z"/>
						</g>
						
							<linearGradient id="SVGID_27_" gradientUnits="userSpaceOnUse" x1="78.6196" y1="-67.0859" x2="84.8457" y2="-67.0859" gradientTransform="matrix(1.606426e-004 1 -1 -0.001 4.315583e-004 -4.524109e-005)">
							<stop  offset="0" style="stop-color:#F4F4F4"/>
							<stop  offset="1" style="stop-color:#ECECEC"/>
						</linearGradient>
						<path style="fill-rule:evenodd;clip-rule:evenodd;fill:url(#SVGID_27_);" d="M58.65,79.4c0.534-0.466,1.133-0.7,1.8-0.7H80.2
							c0.3,0,0.45,0.15,0.45,0.45v1.075c-0.009-0.283-0.159-0.425-0.45-0.425H60.45c-0.667,0-1.267,0.233-1.8,0.7l-4.7,4.4
							l-0.25-0.25l-0.15-0.3l0.15-0.25L58.65,79.4z"/>
					</g>
					<g>
						<linearGradient id="SVGID_28_" gradientUnits="userSpaceOnUse" x1="104.2246" y1="79.8623" x2="104.2246" y2="66.6373">
							<stop  offset="0.3373" style="stop-color:#DEDFE0"/>
							<stop  offset="1" style="stop-color:#ADAFB1"/>
						</linearGradient>
						<path style="fill-rule:evenodd;clip-rule:evenodd;fill:url(#SVGID_28_);" d="M113.35,67.6l4.95,4.7c0.267,0.267,0.4,0.6,0.4,1
							c0,0.367-0.134,0.684-0.4,0.95l-4.95,4.65c-0.733,0.667-1.55,1-2.449,1H91.15c-0.367,0-0.7-0.133-1-0.4
							c-0.267-0.3-0.4-0.65-0.4-1.05v-10.4c0-0.366,0.134-0.7,0.4-1c0.3-0.267,0.633-0.4,1-0.4h19.75
							C111.767,66.65,112.583,66.967,113.35,67.6z"/>
						<linearGradient id="SVGID_29_" gradientUnits="userSpaceOnUse" x1="90.7002" y1="73.2754" x2="117.7998" y2="73.2754">
							<stop  offset="0.9647" style="stop-color:#DEDFE0"/>
							<stop  offset="1" style="stop-color:#ADAFB1"/>
						</linearGradient>
						<path style="fill-rule:evenodd;clip-rule:evenodd;fill:url(#SVGID_29_);" d="M110.9,67.6c0.666,0,1.267,0.233,1.8,0.7
							l4.95,4.7l0.149,0.25l-0.149,0.3l-4.95,4.7c-0.533,0.467-1.134,0.7-1.8,0.7H91.15c-0.301,0-0.45-0.167-0.45-0.5v-10.4
							c0-0.3,0.149-0.45,0.45-0.45H110.9z"/>
						
							<linearGradient id="SVGID_30_" gradientUnits="userSpaceOnUse" x1="67.4888" y1="-104.2383" x2="73.7138" y2="-104.2383" gradientTransform="matrix(1.606426e-004 1 -1 -0.001 4.315583e-004 -4.524109e-005)">
							<stop  offset="0" style="stop-color:#F4F4F4"/>
							<stop  offset="1" style="stop-color:#ECECEC"/>
						</linearGradient>
						<path style="fill-rule:evenodd;clip-rule:evenodd;fill:url(#SVGID_30_);" d="M112.7,69.4c-0.533-0.466-1.134-0.7-1.8-0.7
							H91.15c-0.291,0-0.441,0.142-0.45,0.425V68.05c0-0.3,0.149-0.45,0.45-0.45h19.75c0.666,0,1.267,0.233,1.8,0.7l4.95,4.7
							l0.149,0.25l-0.149,0.3l-0.301,0.25L112.7,69.4z"/>
					</g>
					<g>
						<linearGradient id="SVGID_31_" gradientUnits="userSpaceOnUse" x1="104.2246" y1="101.4502" x2="104.2246" y2="88.2252">
							<stop  offset="0.3373" style="stop-color:#DEDFE0"/>
							<stop  offset="1" style="stop-color:#ADAFB1"/>
						</linearGradient>
						<path style="fill-rule:evenodd;clip-rule:evenodd;fill:url(#SVGID_31_);" d="M110.9,88.2c0.899,0,1.716,0.333,2.449,1
							l4.95,4.649c0.267,0.267,0.4,0.601,0.4,1c0,0.367-0.134,0.684-0.4,0.95l-4.95,4.7c-0.767,0.634-1.583,0.95-2.449,0.95H91.15
							c-0.367,0-0.7-0.134-1-0.4c-0.267-0.3-0.4-0.633-0.4-1V89.65c0-0.4,0.134-0.733,0.4-1c0.3-0.301,0.633-0.45,1-0.45H110.9z"/>
						<linearGradient id="SVGID_32_" gradientUnits="userSpaceOnUse" x1="90.7002" y1="94.8252" x2="117.7998" y2="94.8252">
							<stop  offset="0.9647" style="stop-color:#DEDFE0"/>
							<stop  offset="1" style="stop-color:#ADAFB1"/>
						</linearGradient>
						<path style="fill-rule:evenodd;clip-rule:evenodd;fill:url(#SVGID_32_);" d="M90.7,89.65c0-0.334,0.149-0.5,0.45-0.5h19.75
							c0.666,0,1.267,0.233,1.8,0.699l4.95,4.7l0.149,0.3l-0.149,0.25l-4.95,4.7c-0.533,0.467-1.134,0.7-1.8,0.7H91.15
							c-0.301,0-0.45-0.15-0.45-0.45V89.65z"/>
						
							<linearGradient id="SVGID_33_" gradientUnits="userSpaceOnUse" x1="89.083" y1="-104.2344" x2="95.308" y2="-104.2344" gradientTransform="matrix(1.606426e-004 1 -1 -0.001 4.315583e-004 -4.524109e-005)">
							<stop  offset="0" style="stop-color:#F4F4F4"/>
							<stop  offset="1" style="stop-color:#ECECEC"/>
						</linearGradient>
						<path style="fill-rule:evenodd;clip-rule:evenodd;fill:url(#SVGID_33_);" d="M90.7,90.725V89.65c0-0.334,0.149-0.5,0.45-0.5
							h19.75c0.666,0,1.267,0.233,1.8,0.699l4.95,4.7l0.149,0.3l-0.149,0.25L117.35,95.4L112.7,91c-0.467-0.467-1.066-0.7-1.8-0.7
							H91.15C90.859,90.3,90.709,90.441,90.7,90.725z"/>
					</g>
				</g>
			</g>
			<path style="fill-rule:evenodd;clip-rule:evenodd;fill:#8A8C4B;" d="M90.05,123.05L90.2,123c0.1,0.033,0.083,0.217-0.05,0.55
				c-0.067,0.2-0.15,0.417-0.25,0.65c-0.267,0.666-0.45,1.283-0.551,1.85c-0.1,0.4-0.183,0.934-0.25,1.601l-0.05,1.899L89,129.65
				h-0.1c-0.134,0.066-0.233-0.034-0.301-0.301l-0.05,0.25L88.5,129.7l-0.1,0.05c-0.2,0-0.351-0.1-0.45-0.3l-0.2,0.149
				c-0.333,0-0.5-0.399-0.5-1.199v-1.25l0.25-1.301c0.134-0.433,0.316-0.866,0.55-1.3h0.05c0.067,0.267,0.051,0.667-0.05,1.2v0.05
				l0.351-1.05c0.233-0.767,0.449-1.2,0.649-1.3c0.101,0.166,0.084,0.533-0.05,1.1c-0.066,0.3-0.15,0.65-0.25,1.05l-0.25,1.551
				c-0.066,0.333-0.1,0.75-0.1,1.25c0.066,0.366,0.116,0.566,0.149,0.6c-0.1-0.233-0.116-0.533-0.05-0.9
				c0-0.633,0.083-1.316,0.25-2.05s0.35-1.3,0.55-1.7c0.167-0.433,0.316-0.75,0.45-0.949C89.816,123.267,89.917,123.15,90.05,123.05
				z"/>
			<path style="fill-rule:evenodd;clip-rule:evenodd;fill:#8A8C4B;" d="M80.95,126.9l-0.5-0.15c-0.067,0-0.1-0.017-0.1-0.05
				c-0.033-0.033,0-0.066,0.1-0.101c1-0.1,1.816,0.167,2.45,0.801c0.2,0.199,0.317,0.383,0.35,0.55
				c0.133-0.667-0.017-1.517-0.45-2.55c-0.533-1.101-0.883-1.9-1.05-2.4c0.733,0.434,1.35,1.316,1.85,2.65
				c0.367,0.966,0.55,1.783,0.55,2.449l-0.05,0.45l0.15,0.45c0,0.4-0.066,0.616-0.2,0.65c-0.165,0.032-0.249-0.101-0.25-0.4
				c-0.002,0.202-0.119,0.386-0.35,0.55c-0.133,0.134-0.333,0.2-0.6,0.2c-0.333,0-0.6-0.184-0.8-0.55L82,129.35
				c0.033-0.366,0.05-0.649,0.05-0.85c0-0.467-0.066-0.816-0.2-1.05C81.583,127.116,81.283,126.934,80.95,126.9z"/>
			<path style="fill-rule:evenodd;clip-rule:evenodd;fill:#A3A25B;" d="M87.95,131.4c-0.033,0.233-0.267,0.25-0.7,0.05
				c-0.333-0.2-0.467-0.717-0.4-1.55c0.034-0.634,0.2-1.334,0.5-2.101c0.5-1.366,1.134-2.25,1.9-2.649l-1.1,2.399
				c-0.4,1.066-0.534,2.134-0.4,3.2c0.033,0.134,0.116,0.35,0.25,0.65H87.95z"/>
			<path style="fill-rule:evenodd;clip-rule:evenodd;fill:#A3A25B;" d="M82.35,125.25c-0.2-0.4-0.217-0.583-0.05-0.55l0.15,0.05
				c0.267,0.134,0.566,0.684,0.9,1.65c0.2,0.433,0.383,1.05,0.55,1.85c0.133,1.033,0.167,1.8,0.1,2.3v0.101l0.1-0.601
				c0-0.5-0.033-0.916-0.1-1.25l-0.25-1.55c-0.1-0.366-0.183-0.7-0.25-1c-0.1-0.566-0.117-0.95-0.05-1.15
				c0.233,0.101,0.45,0.551,0.65,1.351l0.35,1v-0.05c-0.1-0.5-0.117-0.9-0.05-1.2l0.05,0.05c0.2,0.233,0.383,0.65,0.55,1.25
				l0.25,1.3v1.25c0,0.8-0.167,1.2-0.5,1.2l-0.2-0.15c-0.033,0.2-0.183,0.301-0.45,0.301L84,131.35l-0.05-0.1L83.9,131
				c-0.033,0.233-0.133,0.35-0.3,0.35l-0.1-0.05l-0.05-0.1c0.1-1.233-0.017-2.533-0.35-3.9C82.8,126.3,82.55,125.616,82.35,125.25z"
				/>
			<path style="fill-rule:evenodd;clip-rule:evenodd;fill:#A3A25B;" d="M90.5,124.25c0.2-0.033,0.25,0.033,0.15,0.2
				c-0.034,0.066-0.101,0.184-0.2,0.35c-0.2,0.367-0.45,1.05-0.75,2.05c-0.3,1.2-0.417,2.5-0.351,3.9l-0.05,0.1
				c-0.2,0.067-0.333,0-0.399-0.199c0-0.034-0.034-0.217-0.101-0.551c-0.066-0.5-0.033-1.267,0.101-2.3
				c0.199-0.8,0.383-1.416,0.55-1.85c0.333-0.967,0.633-1.517,0.899-1.65L90.5,124.25z"/>
			<g>
				<path style="fill-rule:evenodd;clip-rule:evenodd;fill:#5D4C37;" d="M82.2,129.9c0.267,0.166,0.316,0.316,0.15,0.449
					c-0.133,0.067-0.333,0.101-0.6,0.101H81.4l-0.2-0.101h-0.85c-0.4-0.1-0.583-0.233-0.55-0.399c0-0.033,0.184-0.134,0.55-0.3
					l-0.15,0.1C81.133,129.55,81.8,129.6,82.2,129.9z"/>
				<path style="fill-rule:evenodd;clip-rule:evenodd;fill:#5D4C37;" d="M82.45,131.95c-0.048-0.192,0.027-0.334,0.225-0.425
					c0.233-0.25,0.658-0.375,1.275-0.375c0.6,0,1.483,0.083,2.649,0.25c0.134,0.033,0.4,0.033,0.801,0
					c0.333,0,0.566,0.066,0.699,0.199c0.233,0.233,0.084,0.4-0.449,0.5c-0.301,0.167-0.517,0.284-0.65,0.351
					c-0.366,0.133-0.767,0.2-1.2,0.2c-0.6,0-1.033-0.051-1.3-0.15c-0.267-0.134-0.55-0.2-0.85-0.2
					C82.917,132.3,82.517,132.184,82.45,131.95z"/>
				<g>
					<path style="fill-rule:evenodd;clip-rule:evenodd;fill:#9E968D;" d="M81.6,128.25l0.7,0.1c0.333,0.067,0.5,0.217,0.5,0.45
						l-0.15,0.75c-0.167,0.367-0.517,0.55-1.05,0.55c-1,0.067-1.467-0.216-1.4-0.85c0.066-0.4,0.25-0.667,0.55-0.8
						C81.017,128.316,81.3,128.25,81.6,128.25z"/>
					<path style="fill-rule:evenodd;clip-rule:evenodd;fill:#86827A;" d="M82.7,128.85l0.1,0.301c0.067,0.533-0.033,0.866-0.3,1
						c-0.066,0.066-0.233,0.1-0.5,0.1l-0.5-0.1c-0.467-0.267-0.433-0.534,0.1-0.801L82.7,128.85z"/>
					<g>
						<path style="fill-rule:evenodd;clip-rule:evenodd;fill:#B4A99E;" d="M82.85,130.25c0.4-0.333,0.917-0.65,1.55-0.95l-0.6,0.2
							c0.267-0.3,0.9-0.45,1.9-0.45c1.033,0,1.666,0.117,1.899,0.351c0.334,0.233,0.5,0.616,0.5,1.149
							c-0.066,0.533-0.267,0.917-0.6,1.15c-0.3,0.3-1.033,0.416-2.2,0.35c-1.2,0-1.966-0.116-2.3-0.35
							C82.367,131.2,82.317,130.717,82.85,130.25z"/>
						<path style="fill-rule:evenodd;clip-rule:evenodd;fill:#9E968D;" d="M84.65,132.05c-0.867,0-1.483-0.116-1.85-0.35
							c0.267-0.167,0.934-0.334,2-0.5c0.4-0.2,1.083-0.351,2.05-0.45c0.233-0.066,0.467-0.283,0.7-0.65l-0.1-0.3
							c0.733-0.1,0.934,0.367,0.6,1.4c-0.133,0.399-0.283,0.649-0.45,0.75c-0.033,0.033-0.333,0.05-0.899,0.05L84.65,132.05z"/>
					</g>
				</g>
			</g>
		</g>
	</g>
	
		<use xlink:href="#FlashAICB_x2F_Layer_1_x2F__x3C_Path_x3E_"  width="118.45" height="57" y="-57" transform="matrix(1 0 0 -1 26.4502 85.75)" style="overflow:visible;opacity:0.4688;enable-background:new    ;"/>
	<g>
		<g>
			<g>
				<g>
					<g>
						<g>
							<g>
								
									<linearGradient id="SVGID_34_" gradientUnits="userSpaceOnUse" x1="-38.4063" y1="67.5596" x2="-22.1939" y2="67.5596" gradientTransform="matrix(0.4564 -0.8898 0.8898 0.4564 -6.598234e-005 -3.458261e-004)">
									<stop  offset="0.3569" style="stop-color:#698424"/>
									<stop  offset="0.4627" style="stop-color:#7B9E33"/>
									<stop  offset="0.6314" style="stop-color:#9DCF52"/>
									<stop  offset="0.9647" style="stop-color:#DAE772"/>
								</linearGradient>
								<path style="fill-rule:evenodd;clip-rule:evenodd;fill:url(#SVGID_34_);" d="M40.15,52c0.767-0.7,1.667-1.05,2.7-1.05
									c0.533,0.066,0.933,0.15,1.2,0.25l1.15,0.4l0.95-0.7c0.667-0.466,1.434-0.7,2.3-0.7c0.667,0.066,1.2,0.2,1.6,0.4l0.05,0.05
									c1.4,0.767,2.05,1.917,1.95,3.45v1.2L53,56.05c1.233,0.9,1.717,2.117,1.45,3.65c-0.167,0.833-0.534,1.517-1.1,2.05
									c-0.467,0.4-0.983,0.7-1.55,0.9l-1.15,0.3l-0.4,1.15c-0.167,0.566-0.5,1.083-1,1.55c-0.567,0.534-1.25,0.867-2.05,1h-0.6
									c-0.533,0-1.067-0.133-1.6-0.4c-0.6-0.333-1.067-0.75-1.4-1.25l-0.7-1h-1.25c-0.7-0.033-1.35-0.233-1.95-0.6
									c-0.6-0.4-1.05-0.917-1.35-1.55c-0.3-0.633-0.417-1.3-0.35-2c0.1-0.733,0.367-1.367,0.8-1.9L39.55,57l-0.35-1.2
									c-0.233-0.667-0.25-1.35-0.05-2.05C39.317,53.05,39.65,52.467,40.15,52z"/>
								<path style="fill-rule:evenodd;clip-rule:evenodd;fill:none;stroke:#DFF39B;stroke-width:0.25;" d="M40.15,52
									c0.767-0.7,1.667-1.05,2.7-1.05c0.533,0.066,0.933,0.15,1.2,0.25l1.15,0.4l0.95-0.7c0.667-0.466,1.434-0.7,2.3-0.7
									c0.667,0.066,1.2,0.2,1.6,0.4l0.05,0.05c1.4,0.767,2.05,1.917,1.95,3.45v1.2L53,56.05c1.233,0.9,1.717,2.117,1.45,3.65
									c-0.167,0.833-0.534,1.517-1.1,2.05c-0.467,0.4-0.983,0.7-1.55,0.9l-1.15,0.3l-0.4,1.15c-0.167,0.566-0.5,1.083-1,1.55
									c-0.567,0.534-1.25,0.867-2.05,1h-0.6c-0.533,0-1.067-0.133-1.6-0.4c-0.6-0.333-1.067-0.75-1.4-1.25l-0.7-1h-1.25
									c-0.7-0.033-1.35-0.233-1.95-0.6c-0.6-0.4-1.05-0.917-1.35-1.55c-0.3-0.633-0.417-1.3-0.35-2c0.1-0.733,0.367-1.367,0.8-1.9
									L39.55,57l-0.35-1.2c-0.233-0.667-0.25-1.35-0.05-2.05C39.317,53.05,39.65,52.467,40.15,52z"/>
							</g>
						</g>
						<path style="fill-rule:evenodd;clip-rule:evenodd;fill:#22480E;" d="M41.7,61.85c-0.667,0-1.133-0.3-1.4-0.9
							c-0.3-0.567-0.25-1.133,0.15-1.7l1.45-1.85l-0.7-2.2c-0.2-0.633-0.05-1.184,0.45-1.65c0.467-0.466,1.017-0.583,1.65-0.35
							l2.2,0.8l1.9-1.35c0.533-0.433,1.1-0.466,1.7-0.1c0.566,0.3,0.85,0.784,0.85,1.45l-0.1,2.35l1.9,1.4
							c0.5,0.367,0.7,0.883,0.6,1.55c-0.033,0.367-0.184,0.667-0.45,0.9c-0.133,0.133-0.367,0.267-0.7,0.4l-2.25,0.65l-0.75,2.2
							c-0.034,0.2-0.167,0.417-0.4,0.65c-0.267,0.233-0.566,0.367-0.9,0.4c-0.633,0.1-1.15-0.133-1.55-0.7l-1.3-1.9L41.7,61.85z"/>
						
							<linearGradient id="SVGID_35_" gradientUnits="userSpaceOnUse" x1="-35.5078" y1="67.5703" x2="-25.0596" y2="67.5703" gradientTransform="matrix(0.4568 -0.8896 0.8896 0.4568 -4.317164e-004 -4.010201e-004)">
							<stop  offset="0.0235" style="stop-color:#808080"/>
							<stop  offset="0.7294" style="stop-color:#E6E6E6"/>
							<stop  offset="1" style="stop-color:#B3B3B3"/>
						</linearGradient>
						<path style="fill-rule:evenodd;clip-rule:evenodd;fill:url(#SVGID_35_);" d="M41.7,61.1c-0.333,0-0.583-0.167-0.75-0.5
							c-0.133-0.3-0.1-0.6,0.1-0.9l1.7-2.15l-0.8-2.6c-0.133-0.367-0.067-0.65,0.2-0.85c0.267-0.233,0.567-0.3,0.9-0.2l2.55,0.95
							l2.25-1.6c0.267-0.2,0.566-0.217,0.9-0.05c0.3,0.167,0.45,0.433,0.45,0.8l-0.1,2.7l2.2,1.65c0.3,0.233,0.4,0.517,0.3,0.85
							c0,0.2-0.083,0.35-0.25,0.45L51,59.85l-2.6,0.75l-0.9,2.6l-0.2,0.35l-0.5,0.25c-0.367,0-0.633-0.133-0.8-0.4l-1.55-2.25
							L41.7,61.1z"/>
						<path style="fill-rule:evenodd;clip-rule:evenodd;fill:#FFFFFF;" d="M42.55,54.3c-0.233-0.066-0.4-0.083-0.5-0.05l0.1-0.15
							c0.267-0.233,0.567-0.3,0.9-0.2l2.55,0.95l2.25-1.6c0.267-0.2,0.566-0.217,0.9-0.05c0.3,0.167,0.45,0.433,0.45,0.8l-0.1,2.7
							l2.2,1.65c0.3,0.233,0.4,0.517,0.3,0.85c0,0.2-0.083,0.35-0.25,0.45L51,59.85l0.1-0.25c0.066-0.367-0.05-0.65-0.35-0.85
							L48.6,57.1l0.1-2.75c0-0.333-0.15-0.583-0.45-0.75c-0.333-0.167-0.65-0.15-0.95,0.05l-2.2,1.6L42.55,54.3z"/>
					</g>
				</g>
			</g>
		</g>
		<g>
			<g>
				<g>
					<g>
						<g>
							<g>
								<linearGradient id="SVGID_36_" gradientUnits="userSpaceOnUse" x1="121.3613" y1="50.5688" x2="128.7613" y2="64.9939">
									<stop  offset="0.3569" style="stop-color:#698424"/>
									<stop  offset="0.4627" style="stop-color:#7B9E33"/>
									<stop  offset="0.6314" style="stop-color:#9DCF52"/>
									<stop  offset="0.9647" style="stop-color:#DAE772"/>
								</linearGradient>
								<path style="fill-rule:evenodd;clip-rule:evenodd;fill:url(#SVGID_36_);" d="M132.55,57.95c0.434,0.533,0.7,1.167,0.8,1.9
									c0.067,0.7-0.05,1.367-0.35,2c-0.634,1.367-1.733,2.083-3.3,2.15h-1.25l-0.7,1c-0.3,0.5-0.767,0.917-1.4,1.25
									c-0.533,0.267-1.066,0.4-1.6,0.4h-0.6c-0.767-0.133-1.467-0.466-2.101-1c-0.434-0.433-0.75-0.95-0.95-1.55l-0.399-1.15
									l-1.15-0.3c-0.566-0.2-1.083-0.5-1.55-0.9c-0.566-0.533-0.934-1.217-1.1-2.05c-0.267-1.534,0.216-2.75,1.449-3.65l0.95-0.75
									l-0.05-1.2c-0.066-1.567,0.6-2.717,2-3.45l0.05-0.05c0.4-0.2,0.934-0.333,1.601-0.4c0.866,0,1.633,0.233,2.3,0.7l0.95,0.7
									l1.149-0.4c0.267-0.1,0.667-0.184,1.2-0.25c1.066,0,1.967,0.35,2.7,1.05c0.5,0.467,0.833,1.05,1,1.75
									c0.2,0.7,0.184,1.383-0.05,2.05L131.8,57L132.55,57.95z"/>
								<path style="fill-rule:evenodd;clip-rule:evenodd;fill:none;stroke:#DFF39B;stroke-width:0.25;" d="M132.55,57.95
									c0.434,0.533,0.7,1.167,0.8,1.9c0.067,0.7-0.05,1.367-0.35,2c-0.634,1.367-1.733,2.083-3.3,2.15h-1.25l-0.7,1
									c-0.3,0.5-0.767,0.917-1.4,1.25c-0.533,0.267-1.066,0.4-1.6,0.4h-0.6c-0.767-0.133-1.467-0.466-2.101-1
									c-0.434-0.433-0.75-0.95-0.95-1.55l-0.399-1.15l-1.15-0.3c-0.566-0.2-1.083-0.5-1.55-0.9c-0.566-0.533-0.934-1.217-1.1-2.05
									c-0.267-1.534,0.216-2.75,1.449-3.65l0.95-0.75l-0.05-1.2c-0.066-1.567,0.6-2.717,2-3.45l0.05-0.05
									c0.4-0.2,0.934-0.333,1.601-0.4c0.866,0,1.633,0.233,2.3,0.7l0.95,0.7l1.149-0.4c0.267-0.1,0.667-0.184,1.2-0.25
									c1.066,0,1.967,0.35,2.7,1.05c0.5,0.467,0.833,1.05,1,1.75c0.2,0.7,0.184,1.383-0.05,2.05L131.8,57L132.55,57.95z"/>
							</g>
						</g>
						<path style="fill-rule:evenodd;clip-rule:evenodd;fill:#22480E;" d="M130.9,59.25c0.399,0.567,0.449,1.133,0.149,1.7
							c-0.267,0.6-0.733,0.9-1.399,0.9L127.3,61.9l-1.3,1.9c-0.4,0.567-0.917,0.8-1.55,0.7c-0.334-0.033-0.634-0.167-0.9-0.4
							c-0.2-0.2-0.35-0.417-0.45-0.65l-0.75-2.2l-2.25-0.65c-0.333-0.167-0.55-0.3-0.649-0.4c-0.233-0.233-0.384-0.534-0.45-0.9
							c-0.167-0.633,0.033-1.15,0.6-1.55l1.9-1.4L121.4,54c0-0.667,0.283-1.15,0.85-1.45c0.566-0.333,1.134-0.3,1.7,0.1L125.85,54
							l2.2-0.8c0.634-0.233,1.184-0.117,1.65,0.35c0.467,0.434,0.616,0.983,0.45,1.65l-0.7,2.2L130.9,59.25z"/>
						<linearGradient id="SVGID_37_" gradientUnits="userSpaceOnUse" x1="129.6914" y1="60.2017" x2="120.1914" y2="55.8767">
							<stop  offset="0.0235" style="stop-color:#808080"/>
							<stop  offset="0.7294" style="stop-color:#E6E6E6"/>
							<stop  offset="1" style="stop-color:#B3B3B3"/>
						</linearGradient>
						<path style="fill-rule:evenodd;clip-rule:evenodd;fill:url(#SVGID_37_);" d="M130.3,59.7c0.2,0.3,0.233,0.6,0.101,0.9
							c-0.167,0.333-0.434,0.5-0.801,0.5l-2.699,0.05l-1.551,2.25c-0.166,0.267-0.433,0.4-0.8,0.4l-0.5-0.25l-0.2-0.35l-0.899-2.6
							l-2.601-0.75l-0.35-0.2c-0.167-0.1-0.25-0.25-0.25-0.45c-0.1-0.333,0-0.617,0.3-0.85l2.2-1.65l-0.1-2.7
							c0-0.367,0.149-0.633,0.449-0.8c0.334-0.167,0.634-0.15,0.9,0.05l2.25,1.6l2.55-0.95c0.367-0.1,0.667-0.033,0.9,0.2
							s0.3,0.517,0.2,0.85l-0.801,2.6L130.3,59.7z"/>
						<path style="fill-rule:evenodd;clip-rule:evenodd;fill:#FFFFFF;" d="M124,53.65c-0.267-0.2-0.566-0.216-0.9-0.05
							c-0.3,0.167-0.449,0.417-0.449,0.75l0.1,2.75l-2.2,1.65c-0.267,0.2-0.366,0.483-0.3,0.85l0.1,0.25l-0.35-0.2
							c-0.167-0.1-0.25-0.25-0.25-0.45c-0.1-0.333,0-0.617,0.3-0.85l2.2-1.65l-0.1-2.7c0-0.367,0.149-0.633,0.449-0.8
							c0.334-0.167,0.634-0.15,0.9,0.05l2.25,1.6l2.55-0.95c0.367-0.1,0.667-0.033,0.9,0.2l0.1,0.15
							c-0.1-0.033-0.267-0.017-0.5,0.05l-2.55,0.95L124,53.65z"/>
					</g>
				</g>
			</g>
		</g>
	</g>
	
		<use xlink:href="#FlashAICB_x2F_Layer_1_x2F__x3C_Group_x3E_"  width="109.75" height="61.153" y="-61.153" transform="matrix(1 0 0 -1 30.7998 27.1001)" style="overflow:visible;opacity:0.9297;enable-background:new    ;"/>
</g>
</svg>
