<?xml version="1.0" encoding="iso-8859-1"?>
<!-- Generator: Adobe Illustrator 15.1.0, SVG Export Plug-In . SVG Version: 6.00 Build 0)  -->
<!DOCTYPE svg PUBLIC "-//W3C//DTD SVG 1.1//EN" "http://www.w3.org/Graphics/SVG/1.1/DTD/svg11.dtd">
<svg version="1.1" id="Layer_17" xmlns="http://www.w3.org/2000/svg" xmlns:xlink="http://www.w3.org/1999/xlink" x="0px" y="0px"
	 width="171.5px" height="171.5px" viewBox="0 0 171.5 171.5" style="enable-background:new 0 0 171.5 171.5;" xml:space="preserve"
	>
<symbol  id="FlashAICB_x2F_Layer_17_x2F__x3C_Clip_Group_0_x3E_" viewBox="0 -41.175 66.55 41.121">
	<g id="Layer_1_5_">
		
			<linearGradient id="SVGID_1_" gradientUnits="userSpaceOnUse" x1="45.5767" y1="21.0532" x2="103.5774" y2="21.0532" gradientTransform="matrix(1 0.0052 -0.0052 1 -41.8174 -42.041)">
			<stop  offset="0" style="stop-color:#895D1A"/>
			<stop  offset="0.2157" style="stop-color:#BE9527"/>
			<stop  offset="0.851" style="stop-color:#FCEA78"/>
		</linearGradient>
		<path style="fill-rule:evenodd;clip-rule:evenodd;fill:url(#SVGID_1_);" d="M65.15-15.6c-0.566-3.267-0.95-9.967-1.15-20.1
			l-0.1-2.1c-0.633-0.534-2.367-1.067-5.2-1.6c-5.7-1.1-14.05-1.667-25.05-1.7c-10.967-0.066-19.4,0.633-25.3,2.1
			c-2.934,0.733-4.767,1.483-5.5,2.25c-0.533,10.467-0.967,16.8-1.3,19L0-8.1c0.267-0.4,0.6-1.167,1-2.3
			c0.433-1.133,1.017-2.233,1.75-3.3l-0.3,9.3c0.4-0.067,0.9-0.917,1.5-2.55c0.433-1.3,1.5-3.883,3.2-7.75
			c1.733-3.966,2.717-6.066,2.95-6.3c0.4-0.4,0.8-0.6,1.2-0.6c0.567,0.033,0.983,0.6,1.25,1.7c0.4,1.733,2.034,8.117,4.9,19.15
			c0.167,0.533,0.633-0.117,1.4-1.95c0.367-0.966,2-4.133,4.9-9.5c2.933-5.433,4.583-8.3,4.95-8.6c1.167-0.934,2.233-0.55,3.2,1.15
			c0.8,1.467,3.9,7.917,9.3,19.35c0.133,0.267,0.267,0.316,0.4,0.15c0.133-0.233,0.417-1.017,0.85-2.35
			c0.4-1.333,1.583-4.55,3.55-9.65c1.9-5,2.983-7.717,3.25-8.15c0.333-0.567,0.617-0.883,0.85-0.95
			c0.367-0.067,0.816,0.333,1.35,1.2c0.6,1,2.267,4.2,5,9.6c2.733,5.467,4.1,8.317,4.1,8.55c0,0.333,0.067-0.117,0.2-1.35
			c0.133-1.3,0.233-2.567,0.3-3.8c0.5-9.434,0.883-13.917,1.15-13.45c0.267,0.433,1.716,4.967,4.35,13.6L65.15-15.6z"/>
	</g>
	<g>
		<defs>
			<path id="SVGID_2_" d="M62.2-20.5c-0.267-0.467-0.65,4.017-1.15,13.45c-0.066,1.233-0.167,2.5-0.3,3.8
				c-0.133,1.233-0.2,1.683-0.2,1.35c0-0.233-1.367-3.083-4.1-8.55c-2.733-5.4-4.4-8.6-5-9.6c-0.534-0.867-0.983-1.267-1.35-1.2
				c-0.233,0.067-0.517,0.383-0.85,0.95c-0.267,0.433-1.35,3.15-3.25,8.15c-1.967,5.1-3.15,8.316-3.55,9.65
				c-0.434,1.333-0.717,2.117-0.85,2.35c-0.133,0.167-0.267,0.117-0.4-0.15c-5.4-11.434-8.5-17.883-9.3-19.35
				c-0.967-1.7-2.033-2.083-3.2-1.15c-0.367,0.3-2.017,3.167-4.95,8.6c-2.9,5.367-4.533,8.534-4.9,9.5
				c-0.767,1.833-1.233,2.483-1.4,1.95c-2.867-11.033-4.5-17.417-4.9-19.15c-0.267-1.1-0.683-1.667-1.25-1.7c-0.4,0-0.8,0.2-1.2,0.6
				c-0.233,0.233-1.217,2.333-2.95,6.3c-1.7,3.867-2.767,6.45-3.2,7.75c-0.6,1.633-1.1,2.483-1.5,2.55l0.3-9.3
				C2.017-12.633,1.433-11.533,1-10.4C0.6-9.267,0.267-8.5,0-8.1l1.55-9.65c0.333-2.2,0.767-8.533,1.3-19
				c0.733-0.767,2.566-1.517,5.5-2.25c5.9-1.467,14.333-2.167,25.3-2.1c11,0.033,19.35,0.6,25.05,1.7
				c2.833,0.533,4.566,1.066,5.2,1.6l0.1,2.1c0.2,10.133,0.583,16.833,1.15,20.1l1.4,8.7C63.917-15.533,62.467-20.067,62.2-20.5z"/>
		</defs>
		<clipPath id="SVGID_3_">
			<use xlink:href="#SVGID_2_"  style="overflow:visible;"/>
		</clipPath>
		<g id="Layer_3_1_" style="clip-path:url(#SVGID_3_);">
			<path style="fill-rule:evenodd;clip-rule:evenodd;fill:#61490E;" d="M2.4-6.75L3.3-6.6c0-1.066,0.083-2.517,0.25-4.35
				c0.367-3.6,1.034-7.233,2-10.9c0.5-1.933,0.817-4.083,0.95-6.45c0.1-1.267,0.2-2.95,0.3-5.05c0.3-3.066,1.95-4.983,4.95-5.75
				c4.068-1.038,7.793-1.729,11.175-2.075L5.4-39.75L5-39.25L2.4-7.85V-6.75z"/>
		</g>
	</g>
	<g id="Layer_4_1_">
	</g>
</symbol>
<symbol  id="FlashAICB_x2F_Layer_17_x2F__x3C_Path_x3E_" viewBox="-0.001 -61.535 110.001 61.536">
	<g id="Layer_1_3_">
		<path style="fill-rule:evenodd;clip-rule:evenodd;fill:#FFFFFF;" d="M106.4-34.1c2.367-5.633,3.567-10.933,3.6-15.9
			s-1.4-8.1-4.3-9.4c-2.333-1.067-6.25-1.067-11.75,0c-7.3,1.733-13.133,3.05-17.5,3.95C68.417-53.783,61.267-52.967,55-53
			c-6.333-0.033-13.467-0.983-21.4-2.85c-8.333-2.267-14.15-3.783-17.45-4.55c-5.533-1.3-9.467-1.483-11.8-0.55
			C1.483-59.783,0.033-56.733,0-51.8c-0.033,5.5,1.117,11.167,3.45,17c2.433,6.2,5.883,11.783,10.35,16.75
			C24.433-6.117,38.083-0.1,54.75,0c16.467,0.1,30.167-5.817,41.1-17.75C100.35-22.65,103.867-28.1,106.4-34.1z"/>
	</g>
</symbol>
<symbol  id="FlashAICB_x2F_Layer_17_x2F__x3C_Path_x3E__x5F_0" viewBox="-0.001 -118.3 118.501 118.301">
	<g id="Layer_1_4_">
		
			<radialGradient id="SVGID_4_" cx="100.1392" cy="-18.4614" r="59.2008" gradientTransform="matrix(1 0.0051 0.0051 -1 -40.7944 -78.1187)" gradientUnits="userSpaceOnUse">
			<stop  offset="0.1412" style="stop-color:#8CA5BB"/>
			<stop  offset="0.5569" style="stop-color:#7082AD;stop-opacity:0.9725"/>
			<stop  offset="1" style="stop-color:#5560A0;stop-opacity:0.949"/>
		</radialGradient>
		<path style="fill-rule:evenodd;clip-rule:evenodd;fill:url(#SVGID_4_);" d="M118.5-58.85c0.067-16.333-5.65-30.3-17.15-41.9
			s-25.434-17.45-41.8-17.55c-16.367-0.067-30.367,5.633-42,17.1C5.917-89.7,0.067-75.783,0-59.45
			c-0.067,16.333,5.65,30.3,17.15,41.9C28.683-5.917,42.617-0.067,58.95,0c16.367,0.067,30.367-5.65,42-17.15
			C112.583-28.617,118.433-42.517,118.5-58.85z"/>
	</g>
</symbol>
<symbol  id="FlashAICB_x2F_Layer_17_x2F__x3C_Path_x3E__x5F_1" viewBox="-0.001 -56.05 110.001 56.051">
	<g id="Layer_1_2_">
		
			<linearGradient id="SVGID_5_" gradientUnits="userSpaceOnUse" x1="16196.8213" y1="-93.813" x2="16252.6035" y2="-93.813" gradientTransform="matrix(-0.0049 1 -1 -0.0049 41.0698 -16252.8682)">
			<stop  offset="0.1294" style="stop-color:#E2B8B2"/>
			<stop  offset="0.9255" style="stop-color:#FFFFFF"/>
		</linearGradient>
		<path style="fill-rule:evenodd;clip-rule:evenodd;fill:url(#SVGID_5_);" d="M95.85-17.75c4.5-4.9,8.017-10.35,10.55-16.35
			c2.367-5.633,3.567-10.933,3.6-15.9c0-1.767-0.15-3.25-0.45-4.45c-1.9,11.034-7.35,20.833-16.35,29.4
			c-10.6,10.066-23.4,15.066-38.4,15c-15.267-0.067-28.083-5.184-38.45-15.35C7.417-34.167,2.117-44.383,0.45-56.05
			C0.15-54.85,0-53.433,0-51.8c-0.033,5.5,1.117,11.167,3.45,17c2.433,6.2,5.883,11.783,10.35,16.75
			C24.433-6.117,38.083-0.1,54.75,0C71.217,0.1,84.917-5.817,95.85-17.75z"/>
	</g>
</symbol>
<symbol  id="FlashAICB_x2F_Layer_17_x2F__x3C_Path_x3E__x5F_1_x5F_0" viewBox="-0.001 -56.05 110.051 56.051">
	<g id="Layer_1_7_">
		
			<linearGradient id="SVGID_6_" gradientUnits="userSpaceOnUse" x1="16196.8213" y1="-93.8379" x2="16252.6035" y2="-93.8379" gradientTransform="matrix(-0.0049 1 -1 -0.0049 41.0698 -16252.8682)">
			<stop  offset="0.1294" style="stop-color:#E2B8B2"/>
			<stop  offset="0.9255" style="stop-color:#FFFFFF"/>
		</linearGradient>
		<path style="fill-rule:evenodd;clip-rule:evenodd;fill:url(#SVGID_6_);" d="M95.9-17.75c4.467-4.9,7.983-10.35,10.55-16.35
			c2.367-5.633,3.566-10.933,3.6-15.9c0-1.767-0.167-3.25-0.5-4.45c-1.9,11.034-7.35,20.833-16.35,29.4
			c-10.6,10.066-23.4,15.066-38.4,15c-15.233-0.067-28.033-5.184-38.4-15.35C7.433-34.167,2.133-44.383,0.5-56.05
			C0.233-54.917,0.067-53.5,0-51.8c-0.033,5.5,1.117,11.167,3.45,17C5.883-28.6,9.333-23,13.8-18C24.433-6.067,38.083-0.067,54.75,0
			C71.217,0.1,84.933-5.817,95.9-17.75z"/>
	</g>
</symbol>
<symbol  id="FlashAICB_x2F_Layer_17_x2F__x3C_Path_x3E__x5F_2" viewBox="0 -57.401 118.7 57.401">
	<g id="Layer_1_6_">
		
			<radialGradient id="SVGID_7_" cx="100.7935" cy="12.0908" r="46.5729" gradientTransform="matrix(1 0.0051 0.0051 -1 -41.3628 -17.2744)" gradientUnits="userSpaceOnUse">
			<stop  offset="0" style="stop-color:#000000;stop-opacity:0"/>
			<stop  offset="0.651" style="stop-color:#000000;stop-opacity:0.4"/>
		</radialGradient>
		<path style="fill-rule:evenodd;clip-rule:evenodd;fill:url(#SVGID_7_);" d="M95.65-30.45c10.667,7.733,18.184,17.8,22.55,30.2
			L118.7,0c-0.5-15.9-6.467-29.417-17.9-40.55C89.367-51.717,75.633-57.333,59.6-57.4c-15.7-0.067-29.3,5.233-40.8,15.9
			C7.367-30.867,1.1-17.783,0-2.25c4.667-11.967,12.3-21.633,22.9-29c10.867-7.5,22.917-11.217,36.15-11.15
			C72.55-42.333,84.75-38.35,95.65-30.45z"/>
	</g>
</symbol>
<symbol  id="FlashAICB_x2F_Layer_17_x2F__x3C_Path_x3E__x5F_3" viewBox="-0.001 -61.535 110.051 61.536">
	<g id="Layer_1_8_">
		<path style="fill-rule:evenodd;clip-rule:evenodd;fill:#FFFFFF;" d="M106.45-34.1c2.367-5.633,3.566-10.933,3.6-15.9
			c0.034-4.967-1.4-8.1-4.3-9.4c-2.333-1.067-6.267-1.067-11.8,0c-7.267,1.733-13.1,3.05-17.5,3.95c-8,1.667-15.133,2.483-21.4,2.45
			c-6.333-0.033-13.466-0.983-21.4-2.85c-8.333-2.267-14.15-3.783-17.45-4.55c-5.534-1.3-9.467-1.483-11.8-0.55
			C1.5-59.783,0.033-56.733,0-51.8c-0.033,5.5,1.117,11.167,3.45,17C5.883-28.6,9.333-23,13.8-18C24.433-6.067,38.083-0.067,54.75,0
			C71.217,0.1,84.933-5.817,95.9-17.75C100.367-22.65,103.883-28.1,106.45-34.1z"/>
	</g>
</symbol>
<g>
	<path style="fill-rule:evenodd;clip-rule:evenodd;fill:#68757B;" d="M52,6.9C62.633,2.367,73.75,0.066,85.35,0
		C96.95-0.067,108.066,2.133,118.7,6.6c10.3,4.267,19.416,10.35,27.35,18.25c7.967,7.867,14.15,16.917,18.55,27.15
		c4.567,10.6,6.867,21.7,6.9,33.3c0.066,11.601-2.116,22.733-6.55,33.4c-4.3,10.267-10.384,19.383-18.25,27.35
		c-7.9,7.967-16.967,14.15-27.2,18.55c-10.566,4.533-21.667,6.834-33.3,6.9c-11.6,0.066-22.733-2.134-33.4-6.6
		c-10.267-4.268-19.383-10.351-27.35-18.25c-7.967-7.867-14.15-16.917-18.55-27.15C2.367,108.9,0.067,97.8,0,86.2
		c-0.067-11.6,2.133-22.733,6.6-33.4c4.267-10.267,10.35-19.383,18.25-27.35C32.717,17.483,41.767,11.3,52,6.9z"/>
	
		<linearGradient id="SVGID_8_" gradientUnits="userSpaceOnUse" x1="-171.9253" y1="85.3242" x2="-0.4233" y2="85.3242" gradientTransform="matrix(-0.005 -1 1 -0.005 -2.202867e-004 -2.896236e-004)">
		<stop  offset="0.0039" style="stop-color:#4F1D1F"/>
		<stop  offset="0.2078" style="stop-color:#7D5F3C"/>
		<stop  offset="0.5569" style="stop-color:#B09A68"/>
		<stop  offset="0.7412" style="stop-color:#EEEDCF"/>
		<stop  offset="0.7922" style="stop-color:#E7E1AD"/>
		<stop  offset="1" style="stop-color:#B9A57A"/>
	</linearGradient>
	<path style="fill-rule:evenodd;clip-rule:evenodd;fill:url(#SVGID_8_);" d="M52,6.9C62.633,2.367,73.75,0.066,85.35,0
		C96.95-0.067,108.066,2.133,118.7,6.6c10.3,4.267,19.416,10.35,27.35,18.25c7.967,7.867,14.15,16.917,18.55,27.15
		c4.567,10.6,6.867,21.7,6.9,33.3c0.066,11.601-2.116,22.733-6.55,33.4c-4.3,10.267-10.384,19.383-18.25,27.35
		c-7.9,7.967-16.967,14.15-27.2,18.55c-10.566,4.533-21.667,6.834-33.3,6.9c-11.6,0.066-22.733-2.134-33.4-6.6
		c-10.267-4.268-19.383-10.351-27.35-18.25c-7.967-7.867-14.15-16.917-18.55-27.15C2.367,108.9,0.067,97.8,0,86.2
		c-0.067-11.6,2.133-22.733,6.6-33.4c4.267-10.267,10.35-19.383,18.25-27.35C32.717,17.483,41.767,11.3,52,6.9z"/>
	<g>
		<g>
			
				<linearGradient id="SVGID_9_" gradientUnits="userSpaceOnUse" x1="-158.5801" y1="85.3193" x2="-13.7783" y2="85.3193" gradientTransform="matrix(-0.005 -1 1 -0.005 -1.471909e-005 -8.438714e-005)">
				<stop  offset="0.0431" style="stop-color:#BAA270"/>
				<stop  offset="1" style="stop-color:#73624A"/>
			</linearGradient>
			<path style="fill-rule:evenodd;clip-rule:evenodd;fill:url(#SVGID_9_);" d="M57.25,19.2c8.933-3.833,18.317-5.784,28.15-5.85
				c9.833-0.034,19.233,1.816,28.199,5.55c8.7,3.633,16.4,8.767,23.101,15.4s11.899,14.284,15.6,22.95
				c3.867,8.933,5.816,18.316,5.851,28.15c0.066,9.833-1.784,19.233-5.551,28.2c-3.6,8.7-8.733,16.4-15.399,23.101
				c-6.634,6.7-14.283,11.899-22.95,15.6c-8.934,3.867-18.316,5.816-28.15,5.851c-9.8,0.033-19.2-1.817-28.2-5.551
				c-8.667-3.633-16.367-8.767-23.1-15.399c-6.7-6.634-11.9-14.283-15.6-22.95c-3.833-8.934-5.784-18.316-5.85-28.15
				c-0.033-9.833,1.816-19.233,5.55-28.2c3.633-8.7,8.767-16.4,15.4-23.1C40.933,28.1,48.583,22.9,57.25,19.2z"/>
		</g>
	</g>
</g>
<g>
	<g>
		
			<use xlink:href="#FlashAICB_x2F_Layer_17_x2F__x3C_Path_x3E__x5F_1"  width="110.001" height="56.051" x="-0.001" y="-56.05" transform="matrix(1 0 0 -1 30.6001 26.8999)" style="overflow:visible;opacity:0.1094;enable-background:new    ;"/>
		
			<use xlink:href="#FlashAICB_x2F_Layer_17_x2F__x3C_Path_x3E_"  width="110.001" height="61.536" x="-0.001" y="-61.535" transform="matrix(1 0 0 -1 30.6001 26.8999)" style="overflow:visible;opacity:0.0898;enable-background:new    ;"/>
	</g>
	<g>
		
			<linearGradient id="SVGID_10_" gradientUnits="userSpaceOnUse" x1="-152.3223" y1="85.3252" x2="-20.3706" y2="85.3252" gradientTransform="matrix(-0.0049 -1 1 -0.0049 1.265062e-004 5.055405e-005)">
			<stop  offset="0.098" style="stop-color:#253457"/>
			<stop  offset="0.3961" style="stop-color:#37568A"/>
			<stop  offset="0.5529" style="stop-color:#3E649F"/>
			<stop  offset="0.9686" style="stop-color:#AAA1B4"/>
		</linearGradient>
		<path style="fill-rule:evenodd;clip-rule:evenodd;fill:url(#SVGID_10_);" d="M85.45,19.95c18.166-0.067,33.733,6.316,46.7,19.15
			c12.966,12.833,19.483,28.333,19.55,46.5c0.1,18.167-6.267,33.733-19.101,46.7c-12.833,12.967-28.333,19.5-46.5,19.601
			c-18.2,0.066-33.766-6.301-46.7-19.101c-12.967-12.833-19.5-28.35-19.6-46.55c-0.1-18.167,6.267-33.733,19.1-46.7
			C51.733,26.583,67.25,20.05,85.45,19.95z"/>
		<path style="fill-rule:evenodd;clip-rule:evenodd;fill:#3B223B;" d="M85.45,20.8c-18,0.067-33.333,6.5-46,19.3
			C26.817,52.867,20.533,68.25,20.6,86.25c0.1,18,6.55,33.333,19.35,46c12.767,12.633,28.15,18.9,46.149,18.8
			c17.967-0.066,33.284-6.5,45.95-19.3c12.634-12.8,18.917-28.184,18.851-46.15c-0.101-17.967-6.534-33.284-19.301-45.95
			C118.8,26.983,103.417,20.7,85.45,20.8z M85.45,19.15c8.899-0.033,17.416,1.6,25.55,4.9c8.167,3.333,15.417,8.133,21.75,14.4
			c6.333,6.267,11.217,13.466,14.65,21.6c3.399,8.1,5.116,16.617,5.149,25.55c0.066,8.933-1.583,17.466-4.95,25.6
			c-3.333,8.133-8.133,15.366-14.399,21.7c-6.267,6.366-13.45,11.25-21.55,14.649c-8.134,3.4-16.65,5.117-25.551,5.15
			c-8.933,0.066-17.466-1.567-25.6-4.9s-15.383-8.133-21.75-14.399c-6.333-6.268-11.2-13.467-14.6-21.601
			c-3.4-8.1-5.133-16.616-5.2-25.55c-0.034-8.934,1.617-17.467,4.95-25.6c3.333-8.133,8.133-15.367,14.4-21.7
			c6.267-6.333,13.467-11.2,21.6-14.6C68,20.95,76.517,19.217,85.45,19.15z"/>
	</g>
	
		<use xlink:href="#FlashAICB_x2F_Layer_17_x2F__x3C_Path_x3E__x5F_0"  width="118.501" height="118.301" x="-0.001" y="-118.3" transform="matrix(1 0 0 -1 26.5 25.6499)" style="overflow:visible;opacity:0.9102;enable-background:new    ;"/>
</g>
<g>
	<g>
		<g>
			<g>
				
					<linearGradient id="SVGID_11_" gradientUnits="userSpaceOnUse" x1="-102.6963" y1="-16.4917" x2="-70.5737" y2="-16.4917" gradientTransform="matrix(-0.6098 -0.7926 0.7926 -0.6098 2.229810e-004 -8.329749e-004)">
					<stop  offset="0" style="stop-color:#26313D"/>
					<stop  offset="0.2196" style="stop-color:#3E4C5E"/>
					<stop  offset="0.702" style="stop-color:#7A90B1"/>
					<stop  offset="1" style="stop-color:#A2BCE7"/>
				</linearGradient>
				<path style="fill-rule:evenodd;clip-rule:evenodd;fill:url(#SVGID_11_);" d="M44.45,57.8c1.533,0.8,2.433,2.333,2.7,4.6
					c0.2,1.367,0.15,2.684-0.15,3.95c-0.433,3.333-1.5,5.917-3.2,7.75c-0.066,0.1-0.2,0.216-0.4,0.35l-0.1,0.05
					c0.133,0.8,0.2,1.467,0.2,2c0.1,3.533-0.45,6.3-1.65,8.3l-0.2,0.2c0.3,0.566,0.6,1.283,0.9,2.15c1.133,3.199,1.383,6,0.75,8.399
					l-0.2,0.55l-0.15,0.25c-0.1,0.233-0.333,0.467-0.7,0.7c-0.333,0.233-0.717,0.384-1.15,0.45c-0.967,0.133-1.934-0.05-2.9-0.55
					L37.75,97.6l-0.45,0.45l-0.2,0.15c-0.667,0.467-1.4,0.583-2.2,0.35c-1.533-0.467-2.717-1.6-3.55-3.399
					c-0.6-1.367-0.934-2.867-1-4.5c0.066-2.2,0.617-4.25,1.65-6.15c-0.933-1-1.45-2.367-1.55-4.1c-0.1-1.333,0.033-2.667,0.4-4
					c0.6-1.9,1.617-3.6,3.05-5.1c-0.5-1.133-0.617-2.483-0.35-4.05c0.167-1.233,0.534-2.4,1.1-3.5c0.833-1.5,1.934-2.8,3.3-3.9
					s2.767-1.8,4.2-2.1c0.767-0.367,1.517-0.367,2.25,0L44.45,57.8z"/>
				
					<path style="fill-rule:evenodd;clip-rule:evenodd;fill:none;stroke:#D1DEEF;stroke-width:0.25;stroke-linejoin:round;stroke-miterlimit:3;" d="
					M44.45,57.8l-0.05-0.05c-0.733-0.367-1.483-0.367-2.25,0c-1.433,0.3-2.833,1-4.2,2.1s-2.467,2.4-3.3,3.9
					c-0.566,1.1-0.933,2.267-1.1,3.5c-0.267,1.566-0.15,2.917,0.35,4.05c-1.433,1.5-2.45,3.2-3.05,5.1c-0.367,1.333-0.5,2.667-0.4,4
					c0.1,1.733,0.617,3.1,1.55,4.1c-1.033,1.9-1.583,3.95-1.65,6.15c0.066,1.633,0.4,3.133,1,4.5c0.833,1.8,2.017,2.933,3.55,3.399
					c0.8,0.233,1.533,0.117,2.2-0.35l0.2-0.15l0.45-0.45l0.45-0.649c0.966,0.5,1.933,0.683,2.9,0.55
					c0.433-0.066,0.816-0.217,1.15-0.45c0.367-0.233,0.6-0.467,0.7-0.7l0.15-0.25l0.2-0.55c0.633-2.399,0.383-5.2-0.75-8.399
					c-0.3-0.867-0.6-1.584-0.9-2.15l0.2-0.2c1.2-2,1.75-4.767,1.65-8.3c0-0.533-0.067-1.2-0.2-2l0.1-0.05
					c0.2-0.134,0.333-0.25,0.4-0.35c1.7-1.833,2.767-4.417,3.2-7.75c0.3-1.267,0.35-2.583,0.15-3.95
					C46.883,60.133,45.983,58.6,44.45,57.8z"/>
			</g>
		</g>
		<path style="fill-rule:evenodd;clip-rule:evenodd;fill:#111838;" d="M42.75,59.45l0.05-0.05c0.267-0.167,0.534-0.167,0.8,0h0.05
			c0.934,0.467,1.5,1.45,1.7,2.95c0.2,1.167,0.167,2.383-0.1,3.65c-0.433,3.066-1.367,5.367-2.8,6.9l-0.15,0.15l-0.1,0.05
			c-0.2,0.167-0.417,0.183-0.65,0.05l-0.45-0.2c0.4,1.2,0.6,2.4,0.6,3.6c0.1,3.167-0.367,5.6-1.4,7.3L40.2,84l-0.15,0.15
			c-0.2,0.167-0.4,0.217-0.6,0.15l-0.4-0.1c0.767,0.933,1.35,2.083,1.75,3.45c1.067,2.899,1.333,5.366,0.8,7.399l-0.1,0.25
			l-0.05,0.05l-0.2,0.25c0,0.033-0.133,0.084-0.4,0.15c-1.067,0.133-2.184-0.35-3.35-1.45c-0.333,0.934-0.717,1.667-1.15,2.2
			l-0.2,0.15L36.1,96.7c-0.2,0.166-0.434,0.217-0.7,0.149c-1.1-0.333-1.933-1.233-2.5-2.699c-0.467-1.134-0.717-2.317-0.75-3.551
			c0.067-2.733,0.934-5.016,2.6-6.85l-0.2,0.1c-0.2,0.1-0.417,0.066-0.65-0.1c-0.933-0.633-1.483-1.733-1.65-3.3
			c-0.1-1.167,0-2.367,0.3-3.6c0.767-2.267,2-4.017,3.7-5.25l-0.05-0.05c-0.833-0.8-1.167-1.983-1-3.55
			c0.133-1.2,0.483-2.35,1.05-3.45c0.733-1.3,1.7-2.417,2.9-3.35C40.317,60.267,41.517,59.683,42.75,59.45z"/>
		<g>
			<g>
				<g>
					<g>
						<g>
							<g>
								<g>
									
										<linearGradient id="SVGID_12_" gradientUnits="userSpaceOnUse" x1="-78.8936" y1="-8.2036" x2="-73.7933" y2="-8.2036" gradientTransform="matrix(-0.6078 -0.7941 0.7941 -0.6078 -1.794100e-004 6.896257e-004)">
										<stop  offset="0" style="stop-color:#709DFE"/>
										<stop  offset="0.2471" style="stop-color:#6388D4"/>
										<stop  offset="0.7647" style="stop-color:#485E82"/>
										<stop  offset="1" style="stop-color:#3D4E61"/>
									</linearGradient>
									<path style="fill-rule:evenodd;clip-rule:evenodd;fill:url(#SVGID_12_);" d="M42.95,60.25c0.5,0.633,0.566,1.583,0.2,2.85
										c-0.267,0.966-0.717,1.933-1.35,2.9c-1.6,2.533-3.25,4.2-4.95,5c0.066-0.367,0.35-1.167,0.85-2.4
										c0.466-1.267,0.783-2.217,0.95-2.85C39.45,63.117,40.883,61.283,42.95,60.25z"/>
									<path style="fill-rule:evenodd;clip-rule:evenodd;fill:#D1DEEF;" d="M36.75,71c-0.633-0.633-0.883-1.6-0.75-2.9
										c0.1-1.067,0.417-2.133,0.95-3.2c0.667-1.2,1.533-2.217,2.6-3.05c1.1-0.867,2.233-1.417,3.4-1.65
										c-0.833,0.433-1.55,1.133-2.15,2.1c-0.333,0.567-0.783,1.483-1.35,2.75C38.517,67.617,37.617,69.6,36.75,71z"/>
								</g>
								<g>
									
										<linearGradient id="SVGID_13_" gradientUnits="userSpaceOnUse" x1="-82.9082" y1="-6.5195" x2="-74.0476" y2="-6.5195" gradientTransform="matrix(-0.6094 -0.7928 0.7928 -0.6094 -1.242757e-004 -1.978278e-004)">
										<stop  offset="0" style="stop-color:#709DFE"/>
										<stop  offset="0.2471" style="stop-color:#6388D4"/>
										<stop  offset="0.7647" style="stop-color:#485E82"/>
										<stop  offset="1" style="stop-color:#3D4E61"/>
									</linearGradient>
									<path style="fill-rule:evenodd;clip-rule:evenodd;fill:url(#SVGID_13_);" d="M43.25,60.1c0.7,0.367,1.15,1.2,1.35,2.5
										c0.133,1.033,0.1,2.117-0.1,3.25c-0.467,3-1.333,5.167-2.6,6.5c-0.066-0.367-0.133-1.2-0.2-2.5
										c-0.034-1.367-0.1-2.367-0.2-3C41.2,64.15,41.783,61.9,43.25,60.1z"/>
									<path style="fill-rule:evenodd;clip-rule:evenodd;fill:#D1DEEF;" d="M41.8,72.4c-0.8-0.3-1.4-1.066-1.8-2.3
										c-0.367-1.067-0.5-2.184-0.4-3.35c0.133-1.367,0.517-2.65,1.15-3.85c0.667-1.233,1.5-2.183,2.5-2.85
										c-0.6,0.733-0.983,1.667-1.15,2.8c-0.1,0.6-0.15,1.617-0.15,3.05C42.117,68.5,42.067,70.667,41.8,72.4z"/>
								</g>
							</g>
						</g>
					</g>
				</g>
			</g>
			<g>
				<g>
					<g>
						<g>
							<g>
								<g>
									
										<linearGradient id="SVGID_14_" gradientUnits="userSpaceOnUse" x1="-86.8281" y1="-18.1245" x2="-79.9277" y2="-18.1245" gradientTransform="matrix(-0.6087 -0.7934 0.7934 -0.6087 0 -7.125139e-004)">
										<stop  offset="0" style="stop-color:#709DFE"/>
										<stop  offset="0.2471" style="stop-color:#6388D4"/>
										<stop  offset="0.7647" style="stop-color:#485E82"/>
										<stop  offset="1" style="stop-color:#3D4E61"/>
									</linearGradient>
									<path style="fill-rule:evenodd;clip-rule:evenodd;fill:url(#SVGID_14_);" d="M38.3,71.35c0.633,0.533,0.9,1.45,0.8,2.75
										c-0.1,1.066-0.367,2.117-0.8,3.15c-1.066,2.833-2.367,4.767-3.9,5.8c0-0.333,0.117-1.167,0.35-2.5
										c0.233-1.333,0.367-2.316,0.4-2.95C35.45,74.833,36.5,72.75,38.3,71.35z"/>
									<path style="fill-rule:evenodd;clip-rule:evenodd;fill:#D1DEEF;" d="M34.3,83.1c-0.7-0.467-1.117-1.35-1.25-2.65
										c-0.133-1.1-0.033-2.217,0.3-3.35c0.4-1.3,1.05-2.483,1.95-3.55c0.9-1.066,1.9-1.816,3-2.25c-0.733,0.6-1.3,1.434-1.7,2.5
										c-0.233,0.6-0.483,1.583-0.75,2.95C35.45,79.35,34.933,81.467,34.3,83.1z"/>
								</g>
								<g>
									
										<linearGradient id="SVGID_15_" gradientUnits="userSpaceOnUse" x1="-90.312" y1="-15.9258" x2="-79.9363" y2="-15.9258" gradientTransform="matrix(-0.6096 -0.7927 0.7927 -0.6096 7.170439e-005 -8.877516e-004)">
										<stop  offset="0" style="stop-color:#709DFE"/>
										<stop  offset="0.2471" style="stop-color:#6388D4"/>
										<stop  offset="0.7647" style="stop-color:#485E82"/>
										<stop  offset="1" style="stop-color:#3D4E61"/>
									</linearGradient>
									<path style="fill-rule:evenodd;clip-rule:evenodd;fill:url(#SVGID_15_);" d="M38.6,71.15c0.767,0.233,1.367,0.983,1.8,2.25
										c0.333,1,0.5,2.05,0.5,3.15c0.133,3.034-0.283,5.333-1.25,6.9c-0.133-0.333-0.35-1.134-0.65-2.4
										c-0.333-1.333-0.617-2.3-0.85-2.9C37.35,75.417,37.5,73.083,38.6,71.15z"/>
									<path style="fill-rule:evenodd;clip-rule:evenodd;fill:#D1DEEF;" d="M39.55,83.5c-0.833-0.133-1.566-0.783-2.2-1.95
										c-0.567-0.966-0.917-2.033-1.05-3.2c-0.167-1.333-0.033-2.667,0.4-4c0.4-1.333,1.017-2.417,1.85-3.25
										c-0.433,0.833-0.617,1.816-0.55,2.95c0.033,0.6,0.183,1.617,0.45,3.05C39.15,79.833,39.517,81.967,39.55,83.5z"/>
								</g>
							</g>
						</g>
					</g>
				</g>
			</g>
			<g>
				<g>
					<g>
						<g>
							<g>
								<g>
									
										<linearGradient id="SVGID_16_" gradientUnits="userSpaceOnUse" x1="-97.8633" y1="-26.1777" x2="-88.3169" y2="-26.1777" gradientTransform="matrix(-0.6096 -0.7927 0.7927 -0.6096 1.895428e-005 -1.136661e-004)">
										<stop  offset="0" style="stop-color:#709DFE"/>
										<stop  offset="0.2471" style="stop-color:#6388D4"/>
										<stop  offset="0.7647" style="stop-color:#485E82"/>
										<stop  offset="1" style="stop-color:#3D4E61"/>
									</linearGradient>
									<path style="fill-rule:evenodd;clip-rule:evenodd;fill:url(#SVGID_16_);" d="M36.1,83.65c0.733,0.3,1.233,1.117,1.5,2.45
										c0.233,1.033,0.283,2.101,0.15,3.2c-0.2,2.934-0.883,5.167-2.05,6.7c-0.1-0.333-0.217-1.167-0.35-2.5
										c-0.167-1.333-0.333-2.316-0.5-2.95C34.317,87.85,34.733,85.55,36.1,83.65z"/>
									<path style="fill-rule:evenodd;clip-rule:evenodd;fill:#D1DEEF;" d="M35.65,96.05c-0.833-0.267-1.5-1-2-2.2
										c-0.433-1-0.667-2.083-0.7-3.25c0.033-1.366,0.316-2.683,0.85-3.949c0.567-1.3,1.317-2.3,2.25-3
										c-0.533,0.767-0.833,1.717-0.9,2.85c-0.033,0.533,0,1.55,0.1,3.05C35.617,92.283,35.75,94.45,35.65,96.05z"/>
								</g>
								<g>
									
										<linearGradient id="SVGID_17_" gradientUnits="userSpaceOnUse" x1="-100.0791" y1="-23.2998" x2="-88.2233" y2="-23.2998" gradientTransform="matrix(-0.6094 -0.7929 0.7929 -0.6094 -2.165437e-004 8.702278e-005)">
										<stop  offset="0" style="stop-color:#709DFE"/>
										<stop  offset="0.2471" style="stop-color:#6388D4"/>
										<stop  offset="0.7647" style="stop-color:#485E82"/>
										<stop  offset="1" style="stop-color:#3D4E61"/>
									</linearGradient>
									<path style="fill-rule:evenodd;clip-rule:evenodd;fill:url(#SVGID_17_);" d="M36.3,83.4c0.8-0.033,1.583,0.5,2.35,1.6
										c0.633,0.867,1.1,1.833,1.4,2.9c1,2.8,1.25,5.116,0.75,6.949c-0.2-0.267-0.633-0.967-1.3-2.1
										c-0.667-1.167-1.2-2.017-1.6-2.55C36.333,87.9,35.8,85.633,36.3,83.4z"/>
									<path style="fill-rule:evenodd;clip-rule:evenodd;fill:#D1DEEF;" d="M40.8,94.95c-0.867,0.1-1.767-0.317-2.7-1.25
										c-0.8-0.767-1.45-1.684-1.95-2.75c-0.5-1.267-0.75-2.584-0.75-3.95c0-1.4,0.283-2.617,0.85-3.65
										c-0.167,0.933-0.067,1.933,0.3,3c0.2,0.567,0.633,1.483,1.3,2.75C39.25,91.4,40.233,93.35,40.8,94.95z"/>
								</g>
							</g>
						</g>
					</g>
				</g>
			</g>
		</g>
	</g>
	<g>
		<g>
			<g>
				<linearGradient id="SVGID_18_" gradientUnits="userSpaceOnUse" x1="140.6006" y1="65.0645" x2="123.2006" y2="92.0645">
					<stop  offset="0" style="stop-color:#26313D"/>
					<stop  offset="0.2196" style="stop-color:#3E4C5E"/>
					<stop  offset="0.702" style="stop-color:#7A90B1"/>
					<stop  offset="1" style="stop-color:#A2BCE7"/>
				</linearGradient>
				<path style="fill-rule:evenodd;clip-rule:evenodd;fill:url(#SVGID_18_);" d="M137.1,63.6c0.534,1.133,0.9,2.3,1.101,3.5
					c0.233,1.566,0.083,2.917-0.45,4.05c1.4,1.434,2.4,3.15,3,5.15c0.333,1.333,0.45,2.667,0.35,4c-0.133,1.733-0.666,3.1-1.6,4.1
					c1.033,1.867,1.55,3.917,1.55,6.15c-0.033,1.566-0.366,3.05-1,4.45c-0.866,1.833-2.066,2.967-3.6,3.4
					c-0.767,0.199-1.5,0.066-2.2-0.4l-0.2-0.15L133.6,97.4L133.2,96.8c-0.934,0.434-1.9,0.601-2.9,0.5
					c-0.434-0.033-0.833-0.184-1.2-0.45c-0.233-0.166-0.466-0.416-0.699-0.75l-0.15-0.25l-0.2-0.55
					c-0.333-1.399-0.35-3.017-0.05-4.85c0.2-1.3,0.517-2.483,0.95-3.55c0.366-1,0.666-1.7,0.899-2.101
					c-0.066-0.033-0.133-0.117-0.199-0.25c-1.267-2.133-1.784-4.9-1.551-8.3c0-0.533,0.067-1.184,0.2-1.95l-0.45-0.45
					c-1.666-1.833-2.716-4.434-3.149-7.8c-0.233-1.367-0.267-2.683-0.101-3.95c0.267-2.233,1.184-3.75,2.75-4.55l0.051-0.05
					c0.733-0.367,1.483-0.367,2.25,0c1.433,0.333,2.833,1.05,4.199,2.15C135.184,60.75,136.267,62.066,137.1,63.6z"/>
				
					<path style="fill-rule:evenodd;clip-rule:evenodd;fill:none;stroke:#D1DEEF;stroke-width:0.25;stroke-linejoin:round;stroke-miterlimit:3;" d="
					M137.1,63.6c0.534,1.133,0.9,2.3,1.101,3.5c0.233,1.566,0.083,2.917-0.45,4.05c1.4,1.434,2.4,3.15,3,5.15
					c0.333,1.333,0.45,2.667,0.35,4c-0.133,1.733-0.666,3.1-1.6,4.1c1.033,1.867,1.55,3.917,1.55,6.15
					c-0.033,1.566-0.366,3.05-1,4.45c-0.866,1.833-2.066,2.967-3.6,3.4c-0.767,0.199-1.5,0.066-2.2-0.4l-0.2-0.15L133.6,97.4
					L133.2,96.8c-0.934,0.434-1.9,0.601-2.9,0.5c-0.434-0.033-0.833-0.184-1.2-0.45c-0.233-0.166-0.466-0.416-0.699-0.75l-0.15-0.25
					l-0.2-0.55c-0.333-1.399-0.35-3.017-0.05-4.85c0.2-1.3,0.517-2.483,0.95-3.55c0.366-1,0.666-1.7,0.899-2.101
					c-0.066-0.033-0.133-0.117-0.199-0.25c-1.267-2.133-1.784-4.9-1.551-8.3c0-0.533,0.067-1.184,0.2-1.95l-0.45-0.45
					c-1.666-1.833-2.716-4.434-3.149-7.8c-0.233-1.367-0.267-2.683-0.101-3.95c0.267-2.233,1.184-3.75,2.75-4.55l0.051-0.05
					c0.733-0.367,1.483-0.367,2.25,0c1.433,0.333,2.833,1.05,4.199,2.15C135.184,60.75,136.267,62.066,137.1,63.6z"/>
			</g>
		</g>
		<path style="fill-rule:evenodd;clip-rule:evenodd;fill:#111838;" d="M135.5,64.35c0.533,1.1,0.85,2.25,0.95,3.45
			c0.166,1.6-0.167,2.8-1,3.6h-0.05c1.699,1.333,2.916,3.117,3.649,5.35c0.3,1.2,0.4,2.383,0.3,3.55
			c-0.166,1.567-0.733,2.667-1.699,3.3c-0.233,0.167-0.467,0.2-0.7,0.1l-0.2-0.1c1.634,1.8,2.483,4.083,2.55,6.85
			c-0.066,1.267-0.316,2.45-0.75,3.55c-0.633,1.467-1.5,2.35-2.6,2.65c-0.2,0.1-0.417,0.066-0.65-0.101l-0.05-0.05h-0.05l-0.15-0.2
			c-0.434-0.533-0.816-1.267-1.149-2.2c-1.167,1.101-2.301,1.567-3.4,1.4l-0.35-0.1l-0.2-0.25l-0.15-0.301
			c-0.267-1.166-0.267-2.566,0-4.199c0.2-1.167,0.483-2.233,0.851-3.2c0.399-1.3,1-2.45,1.8-3.45l-0.351,0.1
			c-0.233,0-0.433-0.05-0.6-0.15l-0.1-0.05l-0.051-0.1l-0.149-0.15c-1.066-1.867-1.5-4.316-1.3-7.35c0-1.2,0.216-2.4,0.649-3.6
			l-0.45,0.25c-0.233,0.066-0.466,0.033-0.699-0.1h-0.051l-0.199-0.2c-1.334-1.467-2.233-3.767-2.7-6.9
			c-0.233-1.267-0.25-2.483-0.05-3.65c0.233-1.5,0.816-2.483,1.75-2.95c0.3-0.167,0.583-0.167,0.85,0v0.05
			c1.267,0.267,2.483,0.866,3.65,1.8C133.85,61.933,134.8,63.05,135.5,64.35z"/>
		<g>
			<g>
				<g>
					<g>
						<g>
							<g>
								<g>
									<linearGradient id="SVGID_19_" gradientUnits="userSpaceOnUse" x1="134.2773" y1="66.0068" x2="129.3273" y2="64.7818">
										<stop  offset="0" style="stop-color:#709DFE"/>
										<stop  offset="0.2471" style="stop-color:#6388D4"/>
										<stop  offset="0.7647" style="stop-color:#485E82"/>
										<stop  offset="1" style="stop-color:#3D4E61"/>
									</linearGradient>
									<path style="fill-rule:evenodd;clip-rule:evenodd;fill:url(#SVGID_19_);" d="M128.85,60c2,1.066,3.417,2.917,4.25,5.55
										c0.134,0.667,0.434,1.617,0.9,2.85c0.467,1.267,0.733,2.067,0.8,2.4c-1.666-0.8-3.3-2.466-4.899-5
										c-0.601-0.966-1.034-1.95-1.301-2.95C128.267,61.583,128.35,60.633,128.85,60z"/>
									<path style="fill-rule:evenodd;clip-rule:evenodd;fill:#D1DEEF;" d="M134.9,70.8c-0.867-1.4-1.75-3.383-2.65-5.95
										c-0.566-1.367-1-2.3-1.3-2.8c-0.601-0.966-1.3-1.667-2.101-2.1c1.167,0.233,2.284,0.783,3.351,1.65s1.934,1.9,2.6,3.1
										c0.5,1.1,0.8,2.183,0.9,3.25C135.8,69.25,135.533,70.2,134.9,70.8z"/>
								</g>
								<g>
									<linearGradient id="SVGID_20_" gradientUnits="userSpaceOnUse" x1="131.251" y1="69.8052" x2="126.876" y2="62.0802">
										<stop  offset="0" style="stop-color:#709DFE"/>
										<stop  offset="0.2471" style="stop-color:#6388D4"/>
										<stop  offset="0.7647" style="stop-color:#485E82"/>
										<stop  offset="1" style="stop-color:#3D4E61"/>
									</linearGradient>
									<path style="fill-rule:evenodd;clip-rule:evenodd;fill:url(#SVGID_20_);" d="M128.5,59.85c1.434,1.767,2,4.033,1.7,6.8
										c-0.101,0.667-0.184,1.667-0.25,3s-0.134,2.167-0.2,2.5c-1.267-1.433-2.1-3.617-2.5-6.55c-0.233-1.1-0.267-2.184-0.1-3.25
										C127.316,61.05,127.767,60.217,128.5,59.85z"/>
									<path style="fill-rule:evenodd;clip-rule:evenodd;fill:#D1DEEF;" d="M129.8,72.2c-0.233-1.6-0.25-3.784-0.05-6.55
										c0-1.5-0.033-2.517-0.1-3.05c-0.167-1.133-0.534-2.05-1.101-2.75c0.967,0.633,1.767,1.583,2.4,2.85
										c0.633,1.2,1.017,2.483,1.149,3.85c0.067,1.167-0.083,2.267-0.449,3.3C131.25,71.083,130.634,71.867,129.8,72.2z"/>
								</g>
							</g>
						</g>
					</g>
				</g>
			</g>
			<g>
				<g>
					<g>
						<g>
							<g>
								<g>
									<linearGradient id="SVGID_21_" gradientUnits="userSpaceOnUse" x1="137.9717" y1="79.0547" x2="132.4217" y2="74.9547">
										<stop  offset="0" style="stop-color:#709DFE"/>
										<stop  offset="0.2471" style="stop-color:#6388D4"/>
										<stop  offset="0.7647" style="stop-color:#485E82"/>
										<stop  offset="1" style="stop-color:#3D4E61"/>
									</linearGradient>
									<path style="fill-rule:evenodd;clip-rule:evenodd;fill:url(#SVGID_21_);" d="M133.35,71.15
										c1.801,1.434,2.834,3.533,3.101,6.3c0.033,0.633,0.149,1.616,0.35,2.95c0.2,1.3,0.3,2.133,0.3,2.5
										c-1.533-1.133-2.8-3.083-3.8-5.85c-0.434-1.066-0.684-2.117-0.75-3.15C132.45,72.566,132.717,71.65,133.35,71.15z"/>
									<path style="fill-rule:evenodd;clip-rule:evenodd;fill:#D1DEEF;" d="M137.2,82.95c-0.601-1.6-1.084-3.717-1.45-6.35
										c-0.267-1.367-0.517-2.367-0.75-3c-0.4-1.067-0.95-1.883-1.65-2.45c1.101,0.434,2.101,1.2,3,2.3
										c0.867,1.033,1.5,2.2,1.9,3.5c0.3,1.133,0.384,2.25,0.25,3.35C138.366,81.6,137.934,82.483,137.2,82.95z"/>
								</g>
								<g>
									<linearGradient id="SVGID_22_" gradientUnits="userSpaceOnUse" x1="133.0127" y1="82.0986" x2="131.7127" y2="71.7986">
										<stop  offset="0" style="stop-color:#709DFE"/>
										<stop  offset="0.2471" style="stop-color:#6388D4"/>
										<stop  offset="0.7647" style="stop-color:#485E82"/>
										<stop  offset="1" style="stop-color:#3D4E61"/>
									</linearGradient>
									<path style="fill-rule:evenodd;clip-rule:evenodd;fill:url(#SVGID_22_);" d="M133.05,70.95c1.066,2,1.184,4.333,0.351,7
										c-0.233,0.633-0.517,1.6-0.851,2.9c-0.333,1.3-0.55,2.1-0.649,2.4c-1-1.667-1.4-3.967-1.2-6.9c0-1.1,0.184-2.167,0.55-3.2
										C131.684,71.917,132.283,71.183,133.05,70.95z"/>
									<path style="fill-rule:evenodd;clip-rule:evenodd;fill:#D1DEEF;" d="M131.95,83.3c0.066-1.667,0.467-3.8,1.2-6.4
										c0.3-1.433,0.466-2.45,0.5-3.05c0.066-1.133-0.117-2.1-0.551-2.9c0.834,0.833,1.45,1.917,1.851,3.25
										c0.399,1.333,0.517,2.667,0.35,4c-0.166,1.167-0.533,2.233-1.1,3.2C133.566,82.533,132.816,83.167,131.95,83.3z"/>
								</g>
							</g>
						</g>
					</g>
				</g>
			</g>
			<g>
				<g>
					<g>
						<g>
							<g>
								<g>
									<linearGradient id="SVGID_23_" gradientUnits="userSpaceOnUse" x1="137.1504" y1="94.0615" x2="133.8254" y2="85.1115">
										<stop  offset="0" style="stop-color:#709DFE"/>
										<stop  offset="0.2471" style="stop-color:#6388D4"/>
										<stop  offset="0.7647" style="stop-color:#485E82"/>
										<stop  offset="1" style="stop-color:#3D4E61"/>
									</linearGradient>
									<path style="fill-rule:evenodd;clip-rule:evenodd;fill:url(#SVGID_23_);" d="M135.45,83.5c1.3,1.867,1.684,4.167,1.149,6.9
										c-0.166,0.633-0.333,1.616-0.5,2.949c-0.166,1.334-0.3,2.167-0.399,2.5c-1.2-1.566-1.867-3.816-2-6.75
										c-0.101-1.166-0.033-2.233,0.2-3.2C134.167,84.6,134.684,83.8,135.45,83.5z"/>
									<path style="fill-rule:evenodd;clip-rule:evenodd;fill:#D1DEEF;" d="M135.75,95.9c-0.1-1.733,0.05-3.9,0.45-6.5
										c0.133-1.367,0.184-2.4,0.149-3.101c-0.1-1.133-0.399-2.083-0.899-2.85c0.934,0.733,1.666,1.75,2.2,3.05
										c0.533,1.233,0.816,2.55,0.85,3.95c-0.066,1.2-0.316,2.3-0.75,3.3C137.25,94.95,136.583,95.667,135.75,95.9z"/>
								</g>
								<g>
									<linearGradient id="SVGID_24_" gradientUnits="userSpaceOnUse" x1="129.9717" y1="93.9795" x2="135.1967" y2="83.3545">
										<stop  offset="0" style="stop-color:#709DFE"/>
										<stop  offset="0.2471" style="stop-color:#6388D4"/>
										<stop  offset="0.7647" style="stop-color:#485E82"/>
										<stop  offset="1" style="stop-color:#3D4E61"/>
									</linearGradient>
									<path style="fill-rule:evenodd;clip-rule:evenodd;fill:url(#SVGID_24_);" d="M135.25,83.2c0.434,2.3-0.134,4.566-1.7,6.8
										c-0.399,0.5-0.95,1.333-1.649,2.5c-0.667,1.133-1.117,1.85-1.351,2.15c-0.434-1.801-0.149-4.117,0.851-6.95
										c0.366-1.101,0.85-2.067,1.449-2.9C133.616,83.733,134.417,83.2,135.25,83.2z"/>
									<path style="fill-rule:evenodd;clip-rule:evenodd;fill:#D1DEEF;" d="M130.6,94.75c0.634-1.733,1.634-3.667,3-5.8
										c0.667-1.2,1.117-2.134,1.351-2.8c0.366-1.067,0.467-2.05,0.3-2.95c0.566,1.033,0.85,2.25,0.85,3.649
										c-0.033,1.367-0.3,2.684-0.8,3.95c-0.533,1.066-1.184,1.983-1.95,2.75C132.384,94.45,131.467,94.85,130.6,94.75z"/>
								</g>
							</g>
						</g>
					</g>
				</g>
			</g>
		</g>
	</g>
</g>
<g>
	<g>
		<path style="fill-rule:evenodd;clip-rule:evenodd;fill:#C0C3EF;" d="M105.05,40.9v16.9c0,0.733-0.217,1.3-0.649,1.7
			c-0.4,0.4-0.934,0.6-1.601,0.6c-0.633,0-1.149-0.2-1.55-0.6c-0.434-0.4-0.65-0.967-0.65-1.7V42.9h-1.75
			c-0.666,0-1.183-0.217-1.55-0.65c-0.3-0.367-0.45-0.833-0.45-1.4c0-0.534,0.167-1,0.5-1.4c0.4-0.434,0.9-0.65,1.5-0.65h4.2
			c0.634,0,1.134,0.2,1.5,0.6C104.884,39.8,105.05,40.3,105.05,40.9z"/>
		
			<linearGradient id="SVGID_25_" gradientUnits="userSpaceOnUse" x1="-60.1509" y1="100.9521" x2="-38.3509" y2="100.9521" gradientTransform="matrix(4.587156e-005 -1 1 -0.001 -1.844319e-004 -4.842016e-005)">
			<stop  offset="0.2824" style="stop-color:#030F2C"/>
			<stop  offset="0.3961" style="stop-color:#05133D"/>
			<stop  offset="0.8039" style="stop-color:#0F1F74"/>
			<stop  offset="1" style="stop-color:#142389"/>
		</linearGradient>
		<path style="fill-rule:evenodd;clip-rule:evenodd;fill:url(#SVGID_25_);" d="M105.05,39.95V56.8c0,0.733-0.217,1.317-0.649,1.75
			c-0.4,0.4-0.934,0.6-1.601,0.6c-0.633,0-1.149-0.2-1.55-0.6c-0.434-0.433-0.65-1.017-0.65-1.75V41.9h-1.75
			c-0.666,0-1.183-0.2-1.55-0.6c-0.3-0.367-0.45-0.833-0.45-1.4c0-0.566,0.167-1.033,0.5-1.4c0.367-0.434,0.867-0.65,1.5-0.65h4.2
			c0.634,0,1.134,0.2,1.5,0.6C104.884,38.816,105.05,39.316,105.05,39.95z"/>
	</g>
	<g>
		<path style="fill-rule:evenodd;clip-rule:evenodd;fill:#C0C3EF;" d="M48.65,47c-0.367-0.434-0.55-0.95-0.55-1.55
			c0-1.833,0.7-3.417,2.1-4.75c1.4-1.3,3.017-1.95,4.85-1.95c1.867,0,3.417,0.55,4.65,1.65c1.3,1.167,1.95,2.667,1.95,4.5
			c0,1.733-0.867,3.75-2.6,6.05c-0.966,1.3-2.466,3.083-4.5,5.35h5.4c1.566,0,2.35,0.65,2.35,1.95c0,0.633-0.216,1.133-0.65,1.5
			c-0.4,0.3-0.9,0.45-1.5,0.45h-9.9c-1.567,0-2.35-0.65-2.35-1.95c0-0.467,0.233-0.967,0.7-1.5c3.433-3.733,5.9-6.7,7.4-8.9
			c0.7-1.034,1.05-1.95,1.05-2.75c0-0.6-0.2-1.133-0.6-1.6c-0.434-0.467-0.95-0.7-1.55-0.7c-1.167,0-2.017,0.817-2.55,2.45
			c-0.5,1.6-1.2,2.4-2.1,2.4C49.583,47.65,49.05,47.433,48.65,47z"/>
		
			<linearGradient id="SVGID_26_" gradientUnits="userSpaceOnUse" x1="-60.4053" y1="55.1025" x2="-38.6053" y2="55.1025" gradientTransform="matrix(4.587156e-005 -1 1 -0.001 -1.844319e-004 -4.842016e-005)">
			<stop  offset="0.2824" style="stop-color:#030F2C"/>
			<stop  offset="0.3961" style="stop-color:#05133D"/>
			<stop  offset="0.8039" style="stop-color:#0F1F74"/>
			<stop  offset="1" style="stop-color:#142389"/>
		</linearGradient>
		<path style="fill-rule:evenodd;clip-rule:evenodd;fill:url(#SVGID_26_);" d="M48.65,46c-0.367-0.4-0.55-0.917-0.55-1.55
			c0-1.833,0.7-3.417,2.1-4.75c1.4-1.3,3.017-1.95,4.85-1.95c1.867,0,3.417,0.55,4.65,1.65c1.3,1.167,1.95,2.667,1.95,4.5
			c0,1.733-0.867,3.767-2.6,6.1c-0.966,1.267-2.466,3.033-4.5,5.3h5.4c1.566,0,2.35,0.65,2.35,1.95c0,0.633-0.216,1.133-0.65,1.5
			c-0.4,0.3-0.9,0.45-1.5,0.45h-9.9c-1.567,0-2.35-0.65-2.35-1.95c0-0.467,0.233-0.967,0.7-1.5c3.433-3.733,5.9-6.684,7.4-8.85
			c0.7-1.133,1.05-2.066,1.05-2.8c0-0.6-0.2-1.117-0.6-1.55c-0.434-0.466-0.95-0.7-1.55-0.7c-1.167,0-2.017,0.8-2.55,2.4
			c-0.5,1.6-1.2,2.4-2.1,2.4C49.583,46.65,49.05,46.433,48.65,46z"/>
	</g>
	<g>
		<path style="fill-rule:evenodd;clip-rule:evenodd;fill:#C0C3EF;" d="M111.65,40.1c1.333-1.034,2.816-1.55,4.449-1.55
			c1.967,0,3.551,0.617,4.75,1.85c1.034,1.067,1.551,2.267,1.551,3.6c0,2-0.801,3.5-2.4,4.5c1.066,0.5,1.934,1.217,2.6,2.15
			c0.667,1,1,2.067,1,3.2c0,1.8-0.716,3.333-2.149,4.6c-1.467,1.3-3.25,1.95-5.351,1.95c-2.033,0-3.767-0.633-5.199-1.9
			c-1.267-1.167-1.9-2.4-1.9-3.7c0-0.566,0.25-1.05,0.75-1.45c0.467-0.367,0.983-0.55,1.55-0.55s1.217,0.583,1.95,1.75
			c0.733,1.167,1.717,1.75,2.95,1.75c0.767,0,1.416-0.267,1.95-0.8c0.533-0.533,0.8-1.184,0.8-1.95c0-1.433-0.834-2.283-2.5-2.55
			c-1.667-0.267-2.5-0.95-2.5-2.05c0-1.034,0.7-1.733,2.1-2.1c1.4-0.367,2.101-1.1,2.101-2.2c0-0.6-0.184-1.083-0.551-1.45
			c-0.399-0.367-0.933-0.55-1.6-0.55c-1,0-1.833,0.483-2.5,1.45c-0.7,0.966-1.35,1.45-1.95,1.45c-0.566,0-1.033-0.233-1.399-0.7
			c-0.334-0.4-0.5-0.9-0.5-1.5C109.65,42.183,110.316,41.1,111.65,40.1z"/>
		
			<linearGradient id="SVGID_27_" gradientUnits="userSpaceOnUse" x1="-60.2788" y1="116.3018" x2="-38.4538" y2="116.3018" gradientTransform="matrix(4.581902e-005 -1 1 -0.001 -1.375269e-004 4.439838e-004)">
			<stop  offset="0.2824" style="stop-color:#030F2C"/>
			<stop  offset="0.3961" style="stop-color:#05133D"/>
			<stop  offset="0.8039" style="stop-color:#0F1F74"/>
			<stop  offset="1" style="stop-color:#142389"/>
		</linearGradient>
		<path style="fill-rule:evenodd;clip-rule:evenodd;fill:url(#SVGID_27_);" d="M111.65,39.1c1.333-1.034,2.816-1.55,4.449-1.55
			c1.967,0,3.551,0.617,4.75,1.85c1.034,1.067,1.551,2.267,1.551,3.6c0,2-0.801,3.517-2.4,4.55c1.066,0.5,1.934,1.217,2.6,2.15
			c0.667,0.966,1,2.017,1,3.15c0,1.8-0.716,3.333-2.149,4.6c-1.467,1.3-3.25,1.95-5.351,1.95c-2.033,0-3.767-0.633-5.199-1.9
			c-1.267-1.167-1.9-2.4-1.9-3.7c0-0.566,0.25-1.033,0.75-1.4c0.467-0.367,0.983-0.55,1.55-0.55s1.217,0.583,1.95,1.75
			c0.733,1.133,1.717,1.7,2.95,1.7c0.767,0,1.416-0.267,1.95-0.8c0.533-0.533,0.8-1.184,0.8-1.95c0-1.433-0.834-2.283-2.5-2.55
			c-1.667-0.267-2.5-0.95-2.5-2.05c0-1,0.7-1.684,2.1-2.05c1.4-0.367,2.101-1.117,2.101-2.25c0-0.6-0.184-1.083-0.551-1.45
			c-0.399-0.367-0.933-0.55-1.6-0.55c-1,0-1.833,0.483-2.5,1.45c-0.7,0.966-1.35,1.45-1.95,1.45c-0.566,0-1.033-0.233-1.399-0.7
			c-0.334-0.4-0.5-0.9-0.5-1.5C109.65,41.183,110.316,40.1,111.65,39.1z"/>
	</g>
	<g>
		<path style="fill-rule:evenodd;clip-rule:evenodd;fill:#C0C3EF;" d="M76.35,42.8H70.8l-0.45,3.15c0.933-0.2,1.667-0.3,2.2-0.3
			c1.767,0,3.25,0.617,4.45,1.85c1.133,1.233,1.7,2.733,1.7,4.5c0,2.533-0.667,4.517-2,5.95c-1.367,1.5-3.317,2.25-5.85,2.25
			c-1.333,0-2.684-0.333-4.05-1c-1.633-0.8-2.45-1.784-2.45-2.95c0-0.567,0.2-1.05,0.6-1.45c0.4-0.4,0.867-0.6,1.4-0.6
			c0.333,0,1,0.316,2,0.95s1.867,0.95,2.6,0.95c0.966,0,1.75-0.417,2.35-1.25c0.534-0.733,0.8-1.6,0.8-2.6
			c0-0.934-0.25-1.65-0.75-2.15c-0.5-0.567-1.2-0.85-2.1-0.85c-0.6,0-1.217,0.167-1.85,0.5c-0.633,0.3-1.183,0.45-1.65,0.45
			c-0.533,0-0.967-0.167-1.3-0.5c-0.3-0.3-0.45-0.6-0.45-0.9l0.8-7.25c0.167-1.133,0.417-1.883,0.75-2.25
			c0.333-0.367,0.867-0.55,1.6-0.55h7.15c0.667,0,1.2,0.183,1.6,0.55c0.367,0.333,0.55,0.767,0.55,1.3
			C78.45,42.066,77.75,42.8,76.35,42.8z"/>
		
			<linearGradient id="SVGID_28_" gradientUnits="userSpaceOnUse" x1="-60.0713" y1="71.5273" x2="-38.2713" y2="71.5273" gradientTransform="matrix(4.587156e-005 -1 1 -0.001 -1.844319e-004 -4.842016e-005)">
			<stop  offset="0.2824" style="stop-color:#030F2C"/>
			<stop  offset="0.3961" style="stop-color:#05133D"/>
			<stop  offset="0.8039" style="stop-color:#0F1F74"/>
			<stop  offset="1" style="stop-color:#142389"/>
		</linearGradient>
		<path style="fill-rule:evenodd;clip-rule:evenodd;fill:url(#SVGID_28_);" d="M76.35,41.85H70.8L70.35,45
			c0.933-0.2,1.667-0.3,2.2-0.3c1.767,0,3.25,0.616,4.45,1.85c1.133,1.2,1.7,2.684,1.7,4.45c0,2.533-0.667,4.517-2,5.95
			c-1.367,1.5-3.317,2.25-5.85,2.25c-1.333,0-2.684-0.333-4.05-1c-1.633-0.8-2.45-1.784-2.45-2.95c0-0.533,0.2-1,0.6-1.4
			c0.4-0.4,0.867-0.6,1.4-0.6c0.333,0,1,0.316,2,0.95c1,0.6,1.867,0.9,2.6,0.9c0.966,0,1.75-0.417,2.35-1.25
			c0.534-0.733,0.8-1.6,0.8-2.6c0-0.934-0.25-1.65-0.75-2.15c-0.5-0.567-1.2-0.85-2.1-0.85c-0.6,0-1.217,0.167-1.85,0.5
			c-0.633,0.3-1.183,0.45-1.65,0.45c-0.533,0-0.967-0.167-1.3-0.5c-0.3-0.267-0.45-0.55-0.45-0.85l0.8-7.3
			c0.167-1.133,0.417-1.883,0.75-2.25c0.333-0.367,0.867-0.55,1.6-0.55h7.15c0.667,0,1.2,0.183,1.6,0.55
			c0.367,0.333,0.55,0.767,0.55,1.3C78.45,41.1,77.75,41.85,76.35,41.85z"/>
	</g>
	<g>
		<path style="fill-rule:evenodd;clip-rule:evenodd;fill:#C0C3EF;" d="M95,42.2c1.1,1.966,1.65,4.383,1.65,7.25
			c0,2.9-0.551,5.333-1.65,7.3c-1.4,2.433-3.467,3.65-6.2,3.65s-4.783-1.217-6.15-3.65c-1.133-1.967-1.7-4.4-1.7-7.3
			c0-2.867,0.566-5.284,1.7-7.25c1.367-2.434,3.417-3.65,6.15-3.65S93.6,39.767,95,42.2z M92.05,49.45c0-4.567-1.083-6.85-3.25-6.85
			c-2.166,0-3.25,2.283-3.25,6.85c0,4.6,1.084,6.9,3.25,6.9C90.967,56.35,92.05,54.05,92.05,49.45z"/>
		
			<linearGradient id="SVGID_29_" gradientUnits="userSpaceOnUse" x1="-60.2515" y1="88.8027" x2="-38.4265" y2="88.8027" gradientTransform="matrix(4.581902e-005 -1 1 -0.001 -1.375269e-004 4.439838e-004)">
			<stop  offset="0.2824" style="stop-color:#030F2C"/>
			<stop  offset="0.3961" style="stop-color:#05133D"/>
			<stop  offset="0.8039" style="stop-color:#0F1F74"/>
			<stop  offset="1" style="stop-color:#142389"/>
		</linearGradient>
		<path style="fill-rule:evenodd;clip-rule:evenodd;fill:url(#SVGID_29_);" d="M95,41.2c1.1,1.966,1.65,4.4,1.65,7.3
			c0,2.867-0.551,5.283-1.65,7.25c-1.4,2.433-3.467,3.65-6.2,3.65s-4.783-1.217-6.15-3.65c-1.133-1.967-1.7-4.383-1.7-7.25
			c0-2.9,0.566-5.333,1.7-7.3c1.367-2.434,3.417-3.65,6.15-3.65S93.6,38.767,95,41.2z M92.05,48.5c0-4.6-1.083-6.9-3.25-6.9
			c-2.166,0-3.25,2.3-3.25,6.9c0,4.566,1.084,6.85,3.25,6.85C90.967,55.35,92.05,53.066,92.05,48.5z"/>
	</g>
</g>
<g>
	<linearGradient id="SVGID_30_" gradientUnits="userSpaceOnUse" x1="44.8989" y1="103.3516" x2="126.6504" y2="103.3516">
		<stop  offset="0" style="stop-color:#26313D"/>
		<stop  offset="0.2196" style="stop-color:#3E4C5E"/>
		<stop  offset="0.702" style="stop-color:#7A90B1"/>
		<stop  offset="1" style="stop-color:#A2BCE7"/>
	</linearGradient>
	<path style="fill-rule:evenodd;clip-rule:evenodd;fill:url(#SVGID_30_);" d="M51.9,89.85L54.4,90l1.6,10
		c0.333,2.434,0.75,8.267,1.25,17.5l0.1,1.75l-1.45,1c-0.733,0.467-1.15,0.917-1.25,1.35c0,0.334,0.067,0.634,0.2,0.9l0.75,0.55
		c2.167,1.533,4.667,2.634,7.5,3.3c5,1.167,12.5,1.733,22.5,1.7c10.634-0.033,18.684-0.75,24.15-2.149
		c3.134-0.801,5.684-1.983,7.65-3.551c0.3-0.833-0.233-1.699-1.601-2.6l-1.5-0.95l0.25-8.1l-1.95,6.2L113.4,92.05l-3,2.55l-4.4,8.7
		l-1.75-7.05l-3.3,10.85l-7.4-19.3c-3.133,6.667-5.017,10.634-5.649,11.9l-3.101,6.35l-3.9-9.899l-2.1,7.8L70.6,88.8l-4.8,18.8
		l-3.75-7.8c-0.867-1.833-1.833-4.133-2.9-6.899l-0.9-2.101l1.8-1.5c0.133-0.066,0.2-0.2,0.2-0.399c0-0.334-0.167-0.5-0.5-0.5
		l-3.8,0.6L56,85.2c0-0.267-0.1-0.517-0.3-0.75c-0.233-0.2-0.5-0.3-0.8-0.3c-0.333,0-0.6,0.117-0.8,0.35
		c-0.233,0.2-0.35,0.467-0.35,0.8l0.05,2.2l-2.1,0.75c-0.367,0.133-0.55,0.4-0.55,0.8C51.15,89.517,51.4,89.783,51.9,89.85z
		 M50.4,79.45c1.3-1.034,2.783-1.55,4.45-1.55c1.533,0,2.933,0.417,4.2,1.25c1.2,0.833,2.083,1.934,2.65,3.3l0.6,0.25l-0.1-1.5
		c-0.034-2.134,0.7-3.95,2.2-5.45c1.533-1.533,3.367-2.317,5.5-2.35c2.067,0,3.867,0.733,5.4,2.2c1.5,1.433,2.284,3.2,2.35,5.3
		c0.934-0.467,1.917-0.7,2.95-0.7c1.7,0,3.217,0.55,4.55,1.65c1.267,1.066,2.066,2.417,2.399,4.05l0.351-0.7
		c-1.2-1.367-1.834-3.05-1.9-5.05c0-2.133,0.75-3.95,2.25-5.45c1.533-1.534,3.366-2.3,5.5-2.3c2.134-0.033,3.95,0.7,5.45,2.2
		c1.533,1.533,2.3,3.367,2.3,5.5v0.8c1.5-0.7,3.033-0.833,4.6-0.4c0.534-1.467,1.434-2.667,2.7-3.6c1.3-0.933,2.75-1.417,4.351-1.45
		c1.666,0,3.166,0.5,4.5,1.5c1.333,1,2.233,2.283,2.699,3.85c1.767,0.167,3.25,0.917,4.45,2.25c1.2,1.333,1.816,2.9,1.851,4.7
		c0,1.4-0.4,2.7-1.2,3.9c-0.767,1.133-1.783,1.982-3.05,2.55l-0.75,4.7c-0.434,2.633-0.767,8.199-1,16.699
		c1.566,1.4,2.533,2.967,2.899,4.7c0.4,1.733,0.15,3.483-0.75,5.25c-0.233,0.5-0.6,0.95-1.1,1.351l-0.2,0.149
		c-2.767,2.267-6.167,3.917-10.2,4.95c-5.866,1.5-14.434,2.267-25.7,2.3c-10.899,0.066-19.149-0.6-24.75-2
		c-3.2-0.833-6.15-2.217-8.85-4.149l-0.95-0.65c-0.433-0.267-0.85-0.684-1.25-1.25c-1.267-1.934-1.683-3.934-1.25-6
		c0.367-1.5,1.15-2.833,2.35-4c-0.467-8.634-0.833-13.733-1.1-15.3l-0.85-5.5c-1.2-0.567-2.167-1.434-2.9-2.601
		c-0.767-1.166-1.15-2.433-1.15-3.8c-0.033-2.333,0.934-4.25,2.9-5.75C48.233,81.733,49.1,80.45,50.4,79.45z M68.45,81.2
		c0,0.7,0.316,1.15,0.95,1.35l0.65,0.25l0.65-0.35c0.466-0.3,0.7-0.733,0.7-1.3c0-0.4-0.15-0.75-0.45-1.05
		c-0.267-0.3-0.617-0.434-1.05-0.4c-0.4,0-0.733,0.15-1,0.45C68.6,80.417,68.45,80.767,68.45,81.2z M81.5,93.9l1.65-0.65l-1.65,0.6
		V93.9V93.85l1.65-0.6L81.5,93.9z M80.65,86.45c-0.566,0.066-0.85,0.35-0.85,0.85c0,0.367,0.167,0.617,0.5,0.75l0.35,0.15l0.3-0.15
		c0.333-0.2,0.5-0.45,0.5-0.75c0-0.233-0.083-0.434-0.25-0.6C81.067,86.533,80.883,86.45,80.65,86.45z M112.5,83.95l1.2,0.75
		l0.6-1.25l0.101-0.5c0-0.333-0.117-0.634-0.351-0.9c-0.233-0.233-0.517-0.35-0.85-0.35c-0.334,0.033-0.634,0.167-0.9,0.4
		c-0.233,0.233-0.35,0.517-0.35,0.85C111.95,83.417,112.134,83.75,112.5,83.95z M93.75,78.65c-0.4,0-0.75,0.15-1.05,0.45
		c-0.3,0.3-0.434,0.65-0.4,1.05c0,0.667,0.267,1.1,0.8,1.3l0.65,0.3l0.65-0.25c0.566-0.267,0.85-0.717,0.85-1.35
		c0-0.433-0.15-0.783-0.45-1.05C94.533,78.8,94.184,78.65,93.75,78.65z M104.35,86.55c-0.533,0-0.8,0.267-0.8,0.8
		c0,0.367,0.15,0.617,0.45,0.75l0.4,0.15l0.35-0.15c0.3-0.233,0.45-0.483,0.45-0.75c0-0.233-0.084-0.416-0.25-0.55
		C104.783,86.633,104.583,86.55,104.35,86.55z M120.15,88.3c0.166-0.167,0.25-0.35,0.25-0.55c0-0.5-0.267-0.75-0.801-0.75
		c-0.166,0-0.316,0.066-0.449,0.2l-1.65,1.35h2.05L120.15,88.3z M116.85,89.55l0.051-0.5l-0.9,0.8L116.85,89.55z"/>
	
		<path style="fill-rule:evenodd;clip-rule:evenodd;fill:none;stroke:#D1DEEF;stroke-width:0.25;stroke-linejoin:round;stroke-miterlimit:3;" d="
		M51.9,89.85L54.4,90l1.6,10c0.333,2.434,0.75,8.267,1.25,17.5l0.1,1.75l-1.45,1c-0.733,0.467-1.15,0.917-1.25,1.35
		c0,0.334,0.067,0.634,0.2,0.9l0.75,0.55c2.167,1.533,4.667,2.634,7.5,3.3c5,1.167,12.5,1.733,22.5,1.7
		c10.634-0.033,18.684-0.75,24.15-2.149c3.134-0.801,5.684-1.983,7.65-3.551c0.3-0.833-0.233-1.699-1.601-2.6l-1.5-0.95l0.25-8.1
		l-1.95,6.2L113.4,92.05l-3,2.55l-4.4,8.7l-1.75-7.05l-3.3,10.85l-7.4-19.3c-3.133,6.667-5.017,10.634-5.649,11.9l-3.101,6.35
		l-3.9-9.899l-2.1,7.8L70.6,88.8l-4.8,18.8l-3.75-7.8c-0.867-1.833-1.833-4.133-2.9-6.899l-0.9-2.101l1.8-1.5
		c0.133-0.066,0.2-0.2,0.2-0.399c0-0.334-0.167-0.5-0.5-0.5l-3.8,0.6L56,85.2c0-0.267-0.1-0.517-0.3-0.75
		c-0.233-0.2-0.5-0.3-0.8-0.3c-0.333,0-0.6,0.117-0.8,0.35c-0.233,0.2-0.35,0.467-0.35,0.8l0.05,2.2l-2.1,0.75
		c-0.367,0.133-0.55,0.4-0.55,0.8C51.15,89.517,51.4,89.783,51.9,89.85z M50.4,79.45c1.3-1.034,2.783-1.55,4.45-1.55
		c1.533,0,2.933,0.417,4.2,1.25c1.2,0.833,2.083,1.934,2.65,3.3l0.6,0.25l-0.1-1.5c-0.034-2.134,0.7-3.95,2.2-5.45
		c1.533-1.533,3.367-2.317,5.5-2.35c2.067,0,3.867,0.733,5.4,2.2c1.5,1.433,2.284,3.2,2.35,5.3c0.934-0.467,1.917-0.7,2.95-0.7
		c1.7,0,3.217,0.55,4.55,1.65c1.267,1.066,2.066,2.417,2.399,4.05l0.351-0.7c-1.2-1.367-1.834-3.05-1.9-5.05
		c0-2.133,0.75-3.95,2.25-5.45c1.533-1.534,3.366-2.3,5.5-2.3c2.134-0.033,3.95,0.7,5.45,2.2c1.533,1.533,2.3,3.367,2.3,5.5v0.8
		c1.5-0.7,3.033-0.833,4.6-0.4c0.534-1.467,1.434-2.667,2.7-3.6c1.3-0.933,2.75-1.417,4.351-1.45c1.666,0,3.166,0.5,4.5,1.5
		c1.333,1,2.233,2.283,2.699,3.85c1.767,0.167,3.25,0.917,4.45,2.25c1.2,1.333,1.816,2.9,1.851,4.7c0,1.4-0.4,2.7-1.2,3.9
		c-0.767,1.133-1.783,1.982-3.05,2.55l-0.75,4.7c-0.434,2.633-0.767,8.199-1,16.699c1.566,1.4,2.533,2.967,2.899,4.7
		c0.4,1.733,0.15,3.483-0.75,5.25c-0.233,0.5-0.6,0.95-1.1,1.351l-0.2,0.149c-2.767,2.267-6.167,3.917-10.2,4.95
		c-5.866,1.5-14.434,2.267-25.7,2.3c-10.899,0.066-19.149-0.6-24.75-2c-3.2-0.833-6.15-2.217-8.85-4.149l-0.95-0.65
		c-0.433-0.267-0.85-0.684-1.25-1.25c-1.267-1.934-1.683-3.934-1.25-6c0.367-1.5,1.15-2.833,2.35-4
		c-0.467-8.634-0.833-13.733-1.1-15.3l-0.85-5.5c-1.2-0.567-2.167-1.434-2.9-2.601c-0.767-1.166-1.15-2.433-1.15-3.8
		c-0.033-2.333,0.934-4.25,2.9-5.75C48.233,81.733,49.1,80.45,50.4,79.45z M68.45,81.2c0,0.7,0.316,1.15,0.95,1.35l0.65,0.25
		l0.65-0.35c0.466-0.3,0.7-0.733,0.7-1.3c0-0.4-0.15-0.75-0.45-1.05c-0.267-0.3-0.617-0.434-1.05-0.4c-0.4,0-0.733,0.15-1,0.45
		C68.6,80.417,68.45,80.767,68.45,81.2z M81.5,93.9l1.65-0.65l-1.65,0.6V93.9z M80.65,86.45c-0.566,0.066-0.85,0.35-0.85,0.85
		c0,0.367,0.167,0.617,0.5,0.75l0.35,0.15l0.3-0.15c0.333-0.2,0.5-0.45,0.5-0.75c0-0.233-0.083-0.434-0.25-0.6
		C81.067,86.533,80.883,86.45,80.65,86.45z M112.5,83.95l1.2,0.75l0.6-1.25l0.101-0.5c0-0.333-0.117-0.634-0.351-0.9
		c-0.233-0.233-0.517-0.35-0.85-0.35c-0.334,0.033-0.634,0.167-0.9,0.4c-0.233,0.233-0.35,0.517-0.35,0.85
		C111.95,83.417,112.134,83.75,112.5,83.95z M93.75,78.65c-0.4,0-0.75,0.15-1.05,0.45c-0.3,0.3-0.434,0.65-0.4,1.05
		c0,0.667,0.267,1.1,0.8,1.3l0.65,0.3l0.65-0.25c0.566-0.267,0.85-0.717,0.85-1.35c0-0.433-0.15-0.783-0.45-1.05
		C94.533,78.8,94.184,78.65,93.75,78.65z M104.35,86.55c-0.533,0-0.8,0.267-0.8,0.8c0,0.367,0.15,0.617,0.45,0.75l0.4,0.15
		l0.35-0.15c0.3-0.233,0.45-0.483,0.45-0.75c0-0.233-0.084-0.416-0.25-0.55C104.783,86.633,104.583,86.55,104.35,86.55z
		 M120.15,88.3c0.166-0.167,0.25-0.35,0.25-0.55c0-0.5-0.267-0.75-0.801-0.75c-0.166,0-0.316,0.066-0.449,0.2l-1.65,1.35h2.05
		L120.15,88.3z M116.85,89.55l0.051-0.5l-0.9,0.8L116.85,89.55z"/>
	<g>
		<path style="fill-rule:evenodd;clip-rule:evenodd;fill:#61490E;" d="M51.95,90.9l0.4-0.051h0.1l0.15-0.1
			c0.867-0.3,1.267-0.884,1.2-1.75v-0.3c-0.066-0.367,0.017-0.667,0.25-0.9c0.233-0.267,0.517-0.383,0.85-0.35H55l0.25,0.05
			c0.067-0.1,0.15-0.15,0.25-0.15c1.033-0.333,1.55-1.033,1.55-2.1c0-0.567-0.2-1.067-0.6-1.5c-0.434-0.434-0.95-0.65-1.55-0.65
			s-1.117,0.216-1.55,0.65c-0.434,0.433-0.633,0.95-0.6,1.55l0.05,0.55c0.1,0.333,0.05,0.633-0.15,0.9
			c-0.133,0.233-0.4,0.383-0.8,0.45c-0.5,0.033-0.917,0.217-1.25,0.55c-0.333,0.366-0.5,0.8-0.5,1.3s0.183,0.934,0.55,1.3
			C51.017,90.717,51.45,90.9,51.95,90.9z M48,89.05c0-0.833,0.25-1.6,0.75-2.3s1.133-1.184,1.9-1.45c0-1.167,0.417-2.167,1.25-3
			c0.833-0.833,1.833-1.25,3-1.25c1.167-0.033,2.167,0.367,3,1.2c0.833,0.833,1.25,1.833,1.25,3v0.1l0.55-0.05
			c1,0,1.867,0.35,2.6,1.05c0.7,0.7,1.05,1.551,1.05,2.551c0,1.133-0.434,2.083-1.3,2.85c1.034,2.7,1.983,4.934,2.85,6.7l3.35-13
			c-0.867-0.333-1.583-0.884-2.15-1.65c-0.533-0.8-0.8-1.667-0.8-2.6c0-1.267,0.45-2.367,1.35-3.3c0.9-0.9,1.983-1.35,3.25-1.35
			s2.367,0.45,3.3,1.35c0.9,0.9,1.35,1.983,1.35,3.25c0,1.733-0.75,3.067-2.25,4c0.767,1.667,2.6,5.15,5.5,10.45l1.3-4.699
			c-0.733-0.301-1.317-0.768-1.75-1.4c-0.434-0.634-0.65-1.367-0.65-2.2c0-1.066,0.383-2,1.15-2.8c0.767-0.767,1.683-1.15,2.75-1.15
			c1.1,0,2.05,0.383,2.85,1.15c0.767,0.767,1.15,1.684,1.15,2.75c0,0.8-0.217,1.533-0.65,2.2c-0.434,0.633-1,1.116-1.7,1.45
			l2.8,7.449c0.667-1.333,2.867-5.916,6.601-13.75l0.149-0.3c-0.8-0.367-1.434-0.917-1.899-1.65c-0.5-0.767-0.75-1.6-0.75-2.5
			c0-1.267,0.449-2.35,1.35-3.25s1.983-1.367,3.25-1.4c1.267,0,2.366,0.45,3.3,1.35c0.9,0.9,1.351,1.983,1.351,3.25
			c0,0.9-0.25,1.75-0.75,2.55c-0.5,0.767-1.15,1.333-1.95,1.7l0.149,0.45c0.667,2.066,2.25,6.316,4.75,12.75l2.051-6.649
			c-1.434-0.7-2.184-1.867-2.25-3.5c0-1.101,0.383-2.034,1.149-2.8c0.8-0.8,1.733-1.2,2.8-1.2c1.101,0,2.034,0.383,2.801,1.15
			s1.149,1.7,1.149,2.8c0.033,0.733-0.149,1.434-0.55,2.101c-0.4,0.6-0.934,1.083-1.6,1.45L107,94.35l3.85-7.75
			c-1.333-0.866-2-2.083-2-3.649c0-1.2,0.417-2.217,1.25-3.05c0.834-0.867,1.851-1.3,3.051-1.3c1.199,0,2.233,0.417,3.1,1.25
			c0.833,0.867,1.267,1.883,1.3,3.05c0,0.733-0.149,1.367-0.45,1.9c0.767-0.6,1.601-0.9,2.5-0.9c1.067,0,1.983,0.367,2.75,1.1
			c0.767,0.767,1.15,1.684,1.15,2.75s-0.366,1.983-1.1,2.75c-0.767,0.767-1.684,1.15-2.75,1.15l-1.101,6.699
			c-0.5,3.101-0.866,9.367-1.1,18.801c1.467,0.933,2.434,2,2.899,3.199c0.434,1.233,0.317,2.5-0.35,3.801l-0.45,0.5
			c-2.3,1.866-5.066,3.232-8.3,4.1c-5.733,1.566-14.283,2.383-25.65,2.45c-10.466,0.033-18.333-0.584-23.6-1.851
			c-3.033-0.733-5.767-1.983-8.2-3.75l-1.05-0.75c-0.133-0.033-0.25-0.133-0.35-0.3c-0.8-1.2-1.066-2.399-0.8-3.6
			c0.3-1.233,1.133-2.334,2.5-3.3c-0.5-9.601-0.9-15.317-1.2-17.15l-1.15-7.55c-1.067-0.033-1.95-0.434-2.65-1.2
			C48.367,90.983,48,90.083,48,89.05z M67.4,81.2c0,0.633,0.217,1.183,0.65,1.65c0.434,0.5,0.967,0.767,1.6,0.8
			c0.233,0.067,0.4,0.15,0.5,0.25l0.45-0.3c0.566-0.133,1.017-0.434,1.35-0.9c0.333-0.467,0.5-0.983,0.5-1.55
			c0-0.7-0.25-1.283-0.75-1.75c-0.5-0.5-1.1-0.75-1.8-0.75c-0.7,0-1.283,0.25-1.75,0.75C67.65,79.9,67.4,80.5,67.4,81.2z
			 M58.6,87.85c-0.3,0.301-0.45,0.667-0.45,1.101c0,0.366,0.133,0.7,0.4,1c0.267,0.3,0.6,0.467,1,0.5L60,90.6l0.35-0.25
			c0.633-0.3,0.95-0.783,0.95-1.449c0-0.434-0.15-0.801-0.45-1.101c-0.333-0.3-0.717-0.45-1.15-0.45
			C59.267,87.35,58.9,87.517,58.6,87.85z M54.5,97.1l0.45,3.101c0.333,2.2,0.767,8.183,1.3,17.95c0,0.399-0.167,0.716-0.5,0.949
			c-1.233,0.733-1.933,1.5-2.1,2.301c-0.133,0.533,0,1.149,0.4,1.85l1,0.65c2.2,1.6,4.767,2.75,7.7,3.449
			c5.1,1.2,12.717,1.783,22.85,1.75c10.967-0.033,19.25-0.8,24.851-2.3c3.066-0.833,5.649-2.083,7.75-3.75l0.05-0.05
			c0.733-1.634-0.05-3.1-2.35-4.4c-0.4-0.233-0.567-0.533-0.5-0.899c0.1-6.2,0.316-11.4,0.649-15.601
			c-0.3,0.4-0.649,0.551-1.05,0.45c-0.566-0.1-0.85-0.45-0.85-1.05l0.149-5.55c-0.2,0.1-0.416,0.149-0.649,0.149
			c-0.601-0.133-0.9-0.467-0.9-1L112.5,91c-0.066-0.533,0.167-0.884,0.7-1.05c0.533-0.167,0.934-0.033,1.2,0.399
			c0.166,0.267,0.416,0.45,0.75,0.551l0.199,0.1h0.351c0.7,0,1.133-0.367,1.3-1.1c0.1-0.334,0.316-0.584,0.65-0.75
			c0.333-0.101,0.649-0.067,0.949,0.1l0.4,0.2h0.05l0.05,0.05l0.551,0.05c0.5,0,0.916-0.167,1.25-0.5c0.366-0.366,0.533-0.8,0.5-1.3
			c0-0.5-0.167-0.917-0.5-1.25c-0.367-0.367-0.801-0.55-1.301-0.55c-0.433,0-0.816,0.149-1.149,0.45
			c-0.334,0.267-0.533,0.633-0.601,1.1c-0.066,0.366-0.25,0.633-0.55,0.8c-0.366,0.167-0.7,0.15-1-0.05
			c-0.366-0.2-0.75-0.233-1.149-0.1c-0.4,0.133-0.684,0.383-0.851,0.75c-0.2,0.433-0.583,0.616-1.149,0.55
			c-0.534-0.134-0.801-0.45-0.801-0.95v-0.15l-4.75,9.45c-0.233,0.467-0.583,0.667-1.05,0.601c-0.467-0.067-0.767-0.334-0.899-0.801
			l-1.25-5.25l-2.65,8.7c-0.167,0.467-0.483,0.7-0.95,0.7c-0.467,0.066-0.816-0.15-1.05-0.65c-3.1-7.8-5.066-13.033-5.9-15.7
			l-0.1-0.35l-7.8,16.25c-0.233,0.4-0.55,0.601-0.95,0.601c-0.4,0-0.717-0.2-0.95-0.601c-0.466-1.033-1.417-3.45-2.85-7.25
			l-0.45-1.3l-1.6,5.9c-0.167,0.466-0.467,0.716-0.9,0.75c-0.467,0.066-0.817-0.101-1.05-0.5c-3.633-6.534-5.934-10.884-6.9-13.05
			L70.25,86l-4,15.55c-0.1,0.467-0.383,0.717-0.85,0.75c-0.433,0.101-0.767-0.033-1-0.399c-0.867-1.268-2.183-4.117-3.95-8.551
			l-0.1,3.4c0,0.566-0.267,0.917-0.8,1.05c-0.566,0.101-0.966-0.116-1.2-0.649c-1-2.268-1.767-4.101-2.3-5.5l0.15,4.6
			c0,0.533-0.25,0.883-0.75,1.05C55.117,97.4,54.8,97.333,54.5,97.1z M91.85,81.8c0.4,0.467,0.917,0.75,1.551,0.85
			c0.133,0,0.267,0.05,0.399,0.15l0.4-0.2c0.633-0.1,1.133-0.383,1.5-0.85c0.399-0.467,0.6-1.017,0.6-1.65
			c0-0.7-0.25-1.284-0.75-1.75c-0.5-0.5-1.1-0.75-1.8-0.75s-1.283,0.25-1.75,0.75c-0.5,0.5-0.75,1.1-0.75,1.8
			C91.25,80.783,91.45,81.333,91.85,81.8z M81.95,86c-0.367-0.367-0.8-0.55-1.3-0.55c-0.533,0-0.983,0.183-1.35,0.55
			c-0.367,0.366-0.55,0.8-0.55,1.3c0.033,0.5,0.2,0.917,0.5,1.25c0.333,0.367,0.75,0.566,1.25,0.601h0.3
			c0.467-0.034,0.867-0.233,1.2-0.601c0.333-0.366,0.5-0.783,0.5-1.25C82.5,86.767,82.317,86.333,81.95,86z M110.95,82.95
			c0,0.5,0.149,0.95,0.45,1.35c0.3,0.4,0.683,0.667,1.149,0.8l0.3,0.15l0.4-0.05c0.6-0.034,1.116-0.267,1.55-0.7
			c0.434-0.434,0.65-0.95,0.65-1.55c0-0.634-0.217-1.167-0.65-1.6c-0.467-0.434-1-0.65-1.6-0.65c-0.634,0-1.167,0.216-1.601,0.65
			C111.134,81.783,110.917,82.316,110.95,82.95z M105.7,86.05c-0.367-0.367-0.816-0.55-1.351-0.55c-0.5,0-0.933,0.183-1.3,0.55
			c-0.366,0.367-0.55,0.8-0.55,1.3c0,0.467,0.15,0.884,0.45,1.25c0.3,0.334,0.684,0.533,1.149,0.601l0.301,0.1l0.3-0.1
			c0.467-0.101,0.833-0.317,1.1-0.65c0.3-0.366,0.45-0.767,0.45-1.2C106.25,86.816,106.066,86.383,105.7,86.05z M116.45,94.1
			l0.399-1.25l-0.35,0.101L116.45,94.1z"/>
		
			<linearGradient id="SVGID_31_" gradientUnits="userSpaceOnUse" x1="55.522" y1="122.375" x2="113.9227" y2="122.375" gradientTransform="matrix(1 -0.0051 0.0051 1 7.974543e-005 -3.454369e-005)">
			<stop  offset="0" style="stop-color:#895D1A"/>
			<stop  offset="0.2157" style="stop-color:#BE9527"/>
			<stop  offset="0.851" style="stop-color:#FCEA78"/>
		</linearGradient>
		<path style="fill-rule:evenodd;clip-rule:evenodd;fill:url(#SVGID_31_);" d="M111.1,113.6l0.25,2.4c2,0.133,3.934,0.85,5.801,2.15
			c2.366,1.6,3.017,3.433,1.949,5.5c-2.267,1.833-4.883,3.166-7.85,4c-5.667,1.6-14.217,2.433-25.65,2.5
			c-11.333,0.066-19.6-0.667-24.8-2.2c-1.6-0.467-4.1-1.783-7.5-3.95c-1.4-2.134-0.867-4.017,1.6-5.65
			c1.867-1.199,3.883-1.899,6.05-2.1l0.2-2.4c5.467,0.2,10.934,0.283,16.4,0.25l8-0.1v-0.05h1.2V114l8,0.05
			C100.616,114.017,106.066,113.866,111.1,113.6z"/>
		<path style="fill-rule:evenodd;clip-rule:evenodd;fill:#61490E;" d="M109.15,122.55c-5.233,1.267-13.784,1.967-25.65,2.101
			c-10.1,0.133-17.9-0.4-23.4-1.601l-5.25-1.8c-0.133-6.233-0.3-11.2-0.5-14.9c17.367-0.467,38.216-0.55,62.55-0.25
			c-0.334,5.767-0.5,10.267-0.5,13.5c0,0.5-0.983,0.867-2.95,1.101C113.217,121.3,111.783,121.917,109.15,122.55z"/>
		<path style="fill-rule:evenodd;clip-rule:evenodd;fill:#61490E;" d="M58.85,118.35l8.65,1.801l0.35,1.55
			c-0.4,0.967-2.283,1.183-5.65,0.649c-3.367-0.5-5.117,0.15-5.25,1.95c-0.034,0.9,0.25,1.851,0.85,2.851l-1.45-0.7
			c-0.867-0.434-1.55-1.033-2.05-1.8c-0.6-0.9-0.85-1.884-0.75-2.95c0.133-0.967,0.633-1.817,1.5-2.55l1.25-0.801H58.85z"/>
		<path style="fill-rule:evenodd;clip-rule:evenodd;fill:#61490E;" d="M58.4,121.6l5.25,0.95l-2.7,0.4
			c-0.633-0.067-1.25-0.033-1.85,0.1c-1.167,0.267-1.6,0.967-1.3,2.101c0.3,1.133,0.8,1.982,1.5,2.55
			c0.215,0.156,0.416,0.281,0.6,0.375c-1.972-0.772-3.005-1.631-3.1-2.575c-0.033-0.6,0.05-1.417,0.25-2.45l0.35-1.35L58.4,121.6z"
			/>
		
			<radialGradient id="SVGID_32_" cx="86.9541" cy="104.165" r="22.5379" gradientTransform="matrix(1 -0.005 -0.005 -1 1.0404 208.3276)" gradientUnits="userSpaceOnUse">
			<stop  offset="0" style="stop-color:#B6933B"/>
			<stop  offset="0.2157" style="stop-color:#B08D38"/>
			<stop  offset="0.498" style="stop-color:#A07D30"/>
			<stop  offset="0.8157" style="stop-color:#856222"/>
			<stop  offset="1" style="stop-color:#724F18"/>
		</radialGradient>
		<path style="fill-rule:evenodd;clip-rule:evenodd;fill:url(#SVGID_32_);" d="M62.2,94.95c1.633,3.933,2.8,6.233,3.5,6.899
			c0.7,0.7,2.783,1.067,6.25,1.101c1.733,0.033,3.4-0.017,5-0.15l3.6-13.1c0.067-0.134,0.784,1.649,2.15,5.35
			c1.466,4.033,2.483,6.4,3.05,7.101c0.6,0.767,3.167,1.116,7.7,1.05c2.267-0.033,4.467-0.134,6.6-0.3l4.351-14.2
			c0.066-0.2,0.55,1.533,1.449,5.2c0.9,3.699,1.417,6.033,1.551,7c0.1,0.966,1.05,0.699,2.85-0.801c1.7-1.433,2.7-2.6,3-3.5l2.3-6.6
			l-0.45,14.3c0,0.566-1.517,3.083-4.55,7.55c-3,4.5-4.717,6.75-5.149,6.75c-0.567,0-15.917-3.699-46.05-11.1l-0.05-9.4
			c0.034-1.566,0.067-3.116,0.1-4.649c0.1-3.067,0.217-4.533,0.35-4.4C59.883,89.184,60.7,91.15,62.2,94.95z"/>
		
			<radialGradient id="SVGID_33_" cx="58.6006" cy="88.2002" r="3.675" gradientTransform="matrix(1 -0.0034 -0.0034 -1 0.6001 176.3993)" gradientUnits="userSpaceOnUse">
			<stop  offset="0" style="stop-color:#AA8922"/>
			<stop  offset="1" style="stop-color:#694C0F"/>
		</radialGradient>
		<path style="fill-rule:evenodd;clip-rule:evenodd;fill:url(#SVGID_33_);" d="M62.35,88.9c0,0.732-0.25,1.35-0.75,1.85
			s-1.117,0.767-1.85,0.8c-0.733,0-1.35-0.25-1.85-0.75s-0.75-1.116-0.75-1.85c-0.033-0.7,0.217-1.317,0.75-1.851
			c0.5-0.5,1.1-0.75,1.8-0.75c0.7-0.033,1.316,0.217,1.85,0.75C62.05,87.6,62.317,88.2,62.35,88.9z"/>
		
			<radialGradient id="SVGID_34_" cx="79.2241" cy="86.7334" r="4.1126" gradientTransform="matrix(1 -0.0061 -0.0061 -1 1.0546 173.4635)" gradientUnits="userSpaceOnUse">
			<stop  offset="0" style="stop-color:#AA8922"/>
			<stop  offset="1" style="stop-color:#694C0F"/>
		</radialGradient>
		<path style="fill-rule:evenodd;clip-rule:evenodd;fill:url(#SVGID_34_);" d="M83.55,87.3c0,0.8-0.283,1.483-0.85,2.05
			c-0.567,0.567-1.25,0.851-2.05,0.851c-0.8,0-1.483-0.283-2.05-0.851c-0.567-0.566-0.85-1.25-0.85-2.05s0.283-1.483,0.85-2.05
			c0.533-0.567,1.217-0.85,2.05-0.85c0.8,0,1.483,0.283,2.05,0.85C83.267,85.816,83.55,86.5,83.55,87.3z"/>
		
			<radialGradient id="SVGID_35_" cx="102.9238" cy="86.9277" r="4.1126" gradientTransform="matrix(1 -0.0061 -0.0061 -1 1.057 173.8521)" gradientUnits="userSpaceOnUse">
			<stop  offset="0" style="stop-color:#AA8922"/>
			<stop  offset="1" style="stop-color:#694C0F"/>
		</radialGradient>
		<path style="fill-rule:evenodd;clip-rule:evenodd;fill:url(#SVGID_35_);" d="M107.3,87.35c0,0.801-0.283,1.483-0.85,2.051
			c-0.566,0.566-1.25,0.85-2.05,0.85c-0.801,0-1.483-0.283-2.051-0.85c-0.6-0.534-0.899-1.217-0.899-2.051
			c0-0.8,0.283-1.483,0.85-2.05c0.566-0.566,1.25-0.85,2.05-0.85c0.801,0,1.483,0.283,2.051,0.85
			C106.967,85.867,107.267,86.55,107.3,87.35z"/>
		
			<radialGradient id="SVGID_36_" cx="114.5371" cy="89.0537" r="3.55" gradientTransform="matrix(1 -0.0035 -0.0035 -1 0.627 178.1064)" gradientUnits="userSpaceOnUse">
			<stop  offset="0" style="stop-color:#AA8922"/>
			<stop  offset="1" style="stop-color:#694C0F"/>
		</radialGradient>
		<path style="fill-rule:evenodd;clip-rule:evenodd;fill:url(#SVGID_36_);" d="M118.1,89.5c0,0.7-0.233,1.3-0.699,1.8
			c-0.5,0.5-1.101,0.75-1.801,0.75c-0.666,0-1.25-0.233-1.75-0.7c-0.5-0.5-0.75-1.1-0.75-1.8s0.25-1.283,0.75-1.75
			c0.467-0.5,1.051-0.75,1.75-0.75c0.7-0.033,1.301,0.2,1.801,0.7C117.866,88.25,118.1,88.833,118.1,89.5z"/>
		
			<linearGradient id="SVGID_37_" gradientUnits="userSpaceOnUse" x1="55.5146" y1="103.6416" x2="113.5154" y2="103.6416" gradientTransform="matrix(1 -0.0052 0.0052 1 2.267119e-004 -1.732931e-004)">
			<stop  offset="0" style="stop-color:#895D1A"/>
			<stop  offset="0.2157" style="stop-color:#BE9527"/>
			<stop  offset="0.851" style="stop-color:#FCEA78"/>
		</linearGradient>
		<path style="fill-rule:evenodd;clip-rule:evenodd;fill:url(#SVGID_37_);" d="M71.25,85.3c0.367,0.967,2,4.134,4.9,9.5
			c2.934,5.434,4.583,8.3,4.95,8.601c1.167,0.933,2.233,0.55,3.2-1.15c0.5-0.9,2.167-4.333,5-10.3c2.8-5.867,4.233-8.884,4.3-9.05
			c0.134-0.267,0.267-0.316,0.4-0.15c0.134,0.233,0.417,1.017,0.85,2.35c0.4,1.333,1.584,4.55,3.551,9.65
			c1.899,5,2.983,7.717,3.25,8.15c0.333,0.566,0.616,0.883,0.85,0.949c0.366,0.067,0.816-0.333,1.35-1.199
			c0.601-1,2.267-4.2,5-9.601c2.733-5.467,4.101-8.316,4.101-8.55c0-0.333,0.066,0.117,0.2,1.35c0.133,1.3,0.233,2.567,0.3,3.8
			c0.5,9.433,0.883,13.916,1.149,13.449c0.267-0.433,1.717-4.967,4.351-13.6l-1.4,8.7c-0.566,3.267-0.95,9.967-1.149,20.1
			L116.3,120.4c-0.633,0.533-2.366,1.066-5.2,1.6c-5.699,1.1-14.05,1.667-25.05,1.7c-10.966,0.066-19.4-0.634-25.3-2.101
			c-1.833-0.467-3.3-0.983-4.4-1.55l-1.1-0.7c-0.533-10.467-0.967-16.8-1.3-19L52.4,90.7l1,2.3c0.434,1.133,1.017,2.233,1.75,3.3
			l-0.3-9.3l0.4,0.35c0.367,0.434,0.733,1.167,1.1,2.2c0.433,1.3,1.5,3.884,3.2,7.75c1.733,3.967,2.717,6.066,2.95,6.3
			c0.4,0.4,0.8,0.601,1.2,0.601c0.566-0.033,0.983-0.601,1.25-1.7c3.2-12.434,4.833-18.817,4.9-19.15
			C70.017,82.816,70.483,83.467,71.25,85.3z"/>
		
			<use xlink:href="#FlashAICB_x2F_Layer_17_x2F__x3C_Clip_Group_0_x3E_"  width="66.55" height="41.121" y="-41.175" transform="matrix(1 0 0 -1 52.3999 82.6001)" style="overflow:visible;"/>
		<g>
			
				<linearGradient id="SVGID_38_" gradientUnits="userSpaceOnUse" x1="53.1426" y1="95.1016" x2="117.0934" y2="95.1016" gradientTransform="matrix(1 -0.0051 0.0051 1 2.099369e-004 -1.389240e-004)">
				<stop  offset="0.0235" style="stop-color:#D2A01E"/>
				<stop  offset="0.2902" style="stop-color:#E7BE33"/>
				<stop  offset="0.9216" style="stop-color:#FEFCED"/>
			</linearGradient>
			<path style="fill-rule:evenodd;clip-rule:evenodd;fill:url(#SVGID_38_);" d="M56.35,92.15c-0.5-1.4-0.967-2.25-1.4-2.551
				l-0.1-2.6l0.4,0.35c0.367,0.434,0.733,1.167,1.1,2.2c0.433,1.3,1.5,3.884,3.2,7.75c1.733,3.967,2.717,6.066,2.95,6.3
				c0.4,0.4,0.8,0.601,1.2,0.601c0.566-0.033,0.983-0.601,1.25-1.7c3.2-12.434,4.833-18.817,4.9-19.15
				c0.167-0.534,0.633,0.117,1.4,1.95c0.367,0.967,2,4.134,4.9,9.5c2.934,5.434,4.583,8.3,4.95,8.601
				c1.167,0.933,2.233,0.55,3.2-1.15c0.5-0.9,2.167-4.333,5-10.3c2.8-5.867,4.233-8.884,4.3-9.05c0.134-0.267,0.267-0.316,0.4-0.15
				c0.134,0.233,0.417,1.017,0.85,2.35c0.4,1.333,1.584,4.55,3.551,9.65c1.899,5,2.983,7.717,3.25,8.15
				c0.333,0.566,0.616,0.883,0.85,0.949c0.366,0.067,0.816-0.333,1.35-1.199c0.601-1,2.267-4.2,5-9.601
				c2.733-5.467,4.101-8.316,4.101-8.55c0-0.333,0.066,0.117,0.2,1.35c0.133,1.3,0.233,2.567,0.3,3.8
				c0.5,9.433,0.883,13.916,1.149,13.449c0.267-0.433,1.717-4.967,4.351-13.6l-0.9,5.5c-2.166,6.934-3.3,10.483-3.399,10.65
				c-0.301,0.433-0.7-4.051-1.2-13.45c-0.033-1.233-0.134-2.5-0.3-3.8c-0.134-1.233-0.2-1.684-0.2-1.351
				c0,0.267-1.367,3.117-4.101,8.55c-2.699,5.434-4.366,8.634-5,9.601c-0.533,0.899-0.983,1.3-1.35,1.2
				c-0.233-0.034-0.517-0.334-0.85-0.9c-0.267-0.467-1.351-3.2-3.25-8.2c-1.967-5.1-3.15-8.316-3.551-9.649
				C94.45,86.35,94.167,85.566,94,85.3c-0.134-0.167-0.267-0.117-0.4,0.15c-0.166,0.333-3.267,6.8-9.3,19.399
				c-0.933,1.7-2,2.067-3.2,1.101c-0.333-0.267-1.967-3.117-4.9-8.55c-2.867-5.334-4.517-8.5-4.95-9.5
				c-0.767-1.9-1.217-2.55-1.35-1.95c-0.1,0.333-1.75,6.7-4.95,19.1c-0.267,1.101-0.684,1.667-1.25,1.7c-0.4,0-0.8-0.2-1.2-0.6
				c-0.233-0.233-1.2-2.334-2.9-6.301C57.867,95.95,56.783,93.383,56.35,92.15z"/>
			
				<linearGradient id="SVGID_39_" gradientUnits="userSpaceOnUse" x1="53.1553" y1="95.0469" x2="117.0811" y2="95.0469" gradientTransform="matrix(1 -0.0051 0.0051 1 1.604361e-004 -9.410549e-005)">
				<stop  offset="0.0235" style="stop-color:#D2A01E"/>
				<stop  offset="0.2902" style="stop-color:#E7BE33"/>
				<stop  offset="0.9216" style="stop-color:#FEFCED"/>
			</linearGradient>
			<path style="fill-rule:evenodd;clip-rule:evenodd;fill:url(#SVGID_39_);" d="M53.4,95.55l-0.35-1L52.4,90.7l1,2.3
				c0.367,0.967,0.917,2.033,1.65,3.2l0.1,2.649C54.417,97.783,53.833,96.684,53.4,95.55z"/>
		</g>
		
			<linearGradient id="SVGID_40_" gradientUnits="userSpaceOnUse" x1="65.2437" y1="125.084" x2="116.8623" y2="125.084" gradientTransform="matrix(1 -0.0048 0.0048 1 -1.600953e-004 -2.252446e-004)">
			<stop  offset="0.0235" style="stop-color:#D2A01E"/>
			<stop  offset="0.2902" style="stop-color:#E7BE33"/>
			<stop  offset="0.9216" style="stop-color:#FEFCED"/>
		</linearGradient>
		<path style="fill-rule:evenodd;clip-rule:evenodd;fill:url(#SVGID_40_);" d="M112.5,125.3c-4.233,1.5-10.967,2.417-20.2,2.75
			c-8,0.267-14.8-0.167-20.4-1.3L65.85,125l4,1c4.6,0.6,11.633,0.75,21.1,0.45c9.7-0.3,17.017-1.3,21.95-3
			c2.5-0.834,4.017-1.634,4.55-2.4C117.316,122.75,115.667,124.167,112.5,125.3z"/>
		
			<radialGradient id="SVGID_41_" cx="68.4766" cy="80.1772" r="6.1876" gradientTransform="matrix(1 -0.004 -0.004 -1 0.6479 160.353)" gradientUnits="userSpaceOnUse">
			<stop  offset="0" style="stop-color:#FBE55B"/>
			<stop  offset="0.7294" style="stop-color:#BE9527"/>
			<stop  offset="1" style="stop-color:#895D1A"/>
		</radialGradient>
		<path style="fill-rule:evenodd;clip-rule:evenodd;fill:url(#SVGID_41_);" d="M69.9,77.6c1,0,1.85,0.35,2.55,1.05
			c0.7,0.7,1.05,1.533,1.05,2.5c0,1-0.35,1.85-1.05,2.55c-0.7,0.7-1.534,1.05-2.5,1.05c-1,0-1.85-0.35-2.55-1.05
			c-0.7-0.7-1.05-1.534-1.05-2.5c0-1,0.35-1.85,1.05-2.55C68.1,77.95,68.933,77.6,69.9,77.6z"/>
		
			<radialGradient id="SVGID_42_" cx="92.3311" cy="79.2236" r="6.1876" gradientTransform="matrix(1 -0.004 -0.004 -1 0.6401 158.4458)" gradientUnits="userSpaceOnUse">
			<stop  offset="0" style="stop-color:#FBE55B"/>
			<stop  offset="0.7294" style="stop-color:#BE9527"/>
			<stop  offset="1" style="stop-color:#895D1A"/>
		</radialGradient>
		<path style="fill-rule:evenodd;clip-rule:evenodd;fill:url(#SVGID_42_);" d="M97.35,80.1c0,1-0.35,1.85-1.05,2.55
			c-0.7,0.7-1.533,1.05-2.5,1.05c-1,0-1.85-0.333-2.55-1c-0.7-0.7-1.05-1.55-1.05-2.55c0-0.967,0.35-1.816,1.05-2.55
			c0.7-0.7,1.533-1.05,2.5-1.05c1,0,1.85,0.35,2.55,1.05C97,78.3,97.35,79.133,97.35,80.1z"/>
		
			<radialGradient id="SVGID_43_" cx="111.791" cy="82.2402" r="5.7126" gradientTransform="matrix(1 -0.0044 -0.0044 -1 0.7197 164.4787)" gradientUnits="userSpaceOnUse">
			<stop  offset="0" style="stop-color:#FBE55B"/>
			<stop  offset="0.7294" style="stop-color:#BE9527"/>
			<stop  offset="1" style="stop-color:#895D1A"/>
		</radialGradient>
		<path style="fill-rule:evenodd;clip-rule:evenodd;fill:url(#SVGID_43_);" d="M110.85,80.65c0.634-0.667,1.4-1,2.301-1
			c0.933,0,1.716,0.317,2.35,0.95c0.667,0.633,1,1.417,1,2.35c0,0.9-0.316,1.683-0.95,2.35c-0.666,0.633-1.45,0.95-2.35,0.95
			c-0.9,0-1.667-0.317-2.3-0.95c-0.667-0.633-1-1.417-1-2.35C109.866,82.05,110.184,81.283,110.85,80.65z"/>
		
			<radialGradient id="SVGID_44_" cx="118.3066" cy="87.3535" r="4.9126" gradientTransform="matrix(1 -0.0051 -0.0051 -1 0.8893 174.7047)" gradientUnits="userSpaceOnUse">
			<stop  offset="0" style="stop-color:#FBE55B"/>
			<stop  offset="0.7294" style="stop-color:#BE9527"/>
			<stop  offset="1" style="stop-color:#895D1A"/>
		</radialGradient>
		<path style="fill-rule:evenodd;clip-rule:evenodd;fill:url(#SVGID_44_);" d="M122.45,87.75c0,0.8-0.267,1.483-0.8,2.05
			c-0.567,0.533-1.233,0.8-2,0.8c-0.801,0.033-1.483-0.233-2.051-0.8c-0.533-0.533-0.816-1.2-0.85-2c0-0.8,0.283-1.467,0.85-2
			c0.567-0.566,1.233-0.85,2-0.85c0.801-0.034,1.483,0.233,2.051,0.8C122.184,86.316,122.45,86.983,122.45,87.75z"/>
		
			<radialGradient id="SVGID_45_" cx="50.5142" cy="88.3086" r="4.1126" gradientTransform="matrix(1 -0.0061 -0.0061 -1 1.0738 176.6138)" gradientUnits="userSpaceOnUse">
			<stop  offset="0" style="stop-color:#FBE55B"/>
			<stop  offset="0.6078" style="stop-color:#BE9527"/>
			<stop  offset="1" style="stop-color:#895D1A"/>
		</radialGradient>
		<path style="fill-rule:evenodd;clip-rule:evenodd;fill:url(#SVGID_45_);" d="M54.85,89c0,0.8-0.267,1.5-0.8,2.1
			C53.483,91.667,52.8,91.95,52,91.95c-0.833,0-1.533-0.283-2.1-0.851c-0.566-0.566-0.85-1.25-0.85-2.05s0.284-1.483,0.85-2.05
			c0.567-0.566,1.25-0.867,2.05-0.9c0.8,0,1.483,0.283,2.05,0.851C54.567,87.517,54.85,88.2,54.85,89z"/>
		
			<radialGradient id="SVGID_46_" cx="53.5205" cy="84.3921" r="5.5501" gradientTransform="matrix(1 -0.0045 -0.0045 -1 0.7605 168.7824)" gradientUnits="userSpaceOnUse">
			<stop  offset="0" style="stop-color:#FBE55B"/>
			<stop  offset="0.7294" style="stop-color:#BE9527"/>
			<stop  offset="1" style="stop-color:#895D1A"/>
		</radialGradient>
		<path style="fill-rule:evenodd;clip-rule:evenodd;fill:url(#SVGID_46_);" d="M58.1,85.25c0,0.9-0.3,1.667-0.9,2.3
			c-0.633,0.634-1.4,0.95-2.3,0.95c-0.867,0-1.617-0.316-2.25-0.95c-0.633-0.633-0.95-1.383-0.95-2.25
			c0-0.867,0.316-1.617,0.95-2.25c0.6-0.633,1.35-0.966,2.25-1c0.867,0,1.617,0.317,2.25,0.95S58.1,84.383,58.1,85.25z"/>
	</g>
</g>
<g>
	
		<use xlink:href="#FlashAICB_x2F_Layer_17_x2F__x3C_Path_x3E__x5F_2"  width="118.7" height="57.401" y="-57.401" transform="matrix(1 0 0 -1 26.3999 85.25)" style="overflow:visible;opacity:0.2813;enable-background:new    ;"/>
	
		<use xlink:href="#FlashAICB_x2F_Layer_17_x2F__x3C_Path_x3E__x5F_1_x5F_0"  width="110.051" height="56.051" x="-0.001" y="-56.05" transform="matrix(1 0 0 -1 30.5 26.75)" style="overflow:visible;opacity:0.1094;enable-background:new    ;"/>
	
		<use xlink:href="#FlashAICB_x2F_Layer_17_x2F__x3C_Path_x3E__x5F_3"  width="110.051" height="61.536" x="-0.001" y="-61.535" transform="matrix(1 0 0 -1 30.5 26.75)" style="overflow:visible;opacity:0.0898;enable-background:new    ;"/>
</g>
</svg>
