<?xml version="1.0" encoding="iso-8859-1"?>
<!-- Generator: Adobe Illustrator 15.1.0, SVG Export Plug-In . SVG Version: 6.00 Build 0)  -->
<!DOCTYPE svg PUBLIC "-//W3C//DTD SVG 1.1//EN" "http://www.w3.org/Graphics/SVG/1.1/DTD/svg11.dtd">
<svg version="1.1" id="Layer_1" xmlns="http://www.w3.org/2000/svg" xmlns:xlink="http://www.w3.org/1999/xlink" x="0px" y="0px"
	 width="171.75px" height="171.7px" viewBox="0 0 171.75 171.7" style="enable-background:new 0 0 171.75 171.7;"
	 xml:space="preserve">
<symbol  id="FlashAICB_x2F_Illustrator_Symbols_x2F_plank1_copy_2" viewBox="-33 -33.55 66.05 67.05">
	<g id="Layer_1_3_">
		<g>
			<g>
				<path style="fill-rule:evenodd;clip-rule:evenodd;fill:#A18331;" d="M33.05,17C27.483,18.367,17,1.717,1.6-32.95l-0.9,8.275
					c0.037-0.139,0.754,1.236,2.15,4.125c1.2,2.767,3.833,7.267,7.9,13.5L10.65-7L19.5,8.45c0.4,0.733,1.817,2.8,4.25,6.2
					c3.133,4.434,6.05,6.6,8.75,6.5L33.05,17z"/>
				<path style="fill-rule:evenodd;clip-rule:evenodd;fill:#B29033;" d="M0.9-32.6c-4.8,3.667-8.667,6.317-11.6,7.95
					c-3.933,2.333-11.367,6.867-22.3,13.6l1.8,6l3.45-2.6c0.1-0.033,0.267-0.167,0.5-0.4c2.233-1.567,4.617-3.083,7.15-4.55
					l16.35-9.05c1.633-1.033,3.117-2.033,4.45-3l0.9-8.3l0.5-0.6C1.533-33.15,1.133-32.833,0.9-32.6z"/>
				<path style="fill-rule:evenodd;clip-rule:evenodd;fill:#D9B24A;" d="M21,31.25c-0.433-0.6-0.6-0.75-0.5-0.45
					c-0.067,0.2,0.1,0.367,0.5,0.5V31.25z M24.15,29.7l2.5-1.6c-0.2,0.233-0.15,0.233,0.15,0c0,0.066,0.067,0.066,0.2,0L26.9,28
					c-0.066,0-0.1-0.033-0.1-0.1c-2.933-3.667-5.733-8.767-8.4-15.3C15.267,5.1,11.783-0.45,7.95-4.05
					c-3.333-3.5-5.917-5.934-7.75-7.3c-2.7-1.867-5.15-4.617-7.35-8.25l-3.1,1.7l0.85-0.35C-6.9-13.283-4.867-10.2-3.3-9
					C4.767-2.967,10.133,1.883,12.8,5.55c1.233,1.767,2.883,5.05,4.95,9.85c1.633,3.833,2.883,7.067,3.75,9.7
					C21.733,26.1,22.617,27.633,24.15,29.7z M22.75,30.4c-1.233-2.3-2.6-5.066-4.1-8.3c-2-4.567-5.017-9.883-9.05-15.95
					c-1.5-2.066-4.133-4.433-7.9-7.1c-4.267-2.8-7.133-5.1-8.6-6.9c-2.633-3.333-4.617-6.217-5.95-8.65l-4,2.15
					c1.833,3,4.533,5.717,8.1,8.15c2.2,1.6,3.867,3.3,5,5.1c1.033,1.733,2.167,4.267,3.4,7.6c0.934,2.633,2.367,4.883,4.3,6.75
					c1,0.833,2.633,2.033,4.9,3.6c4.066,2.733,7,5.35,8.8,7.85c0.5,0.833,1.617,3.017,3.35,6.55L22.75,30.4z M19.4,31.65
					c-2.566-4.367-4.483-7.25-5.75-8.65c-1.233-1.367-3.467-3.233-6.7-5.6c-2.934-2.167-5.1-4.3-6.5-6.4l-4.6-7.85
					C-5.75,0.583-7.633-1.333-9.8-2.6c-3.3-1.733-6.733-5.066-10.3-10c-2.533,1.467-4.917,2.983-7.15,4.55l3.65-2.15
					C-22-8-20.133-6.1-18-4.5c4.967,4.033,7.517,6.133,7.65,6.3c2.967,2.6,5.033,5.083,6.2,7.45c1,2.333,3,4.883,6,7.65
					c1.467,1.367,4.517,4.133,9.15,8.3c2.567,2.3,4.667,4.65,6.3,7.05L19.4,31.65z M10.75,26.9c-3.8-3.133-7.017-6.017-9.65-8.65
					L-11.35,6.1c-3.733-3.6-6.533-5.9-8.4-6.9c-1.933-1.167-4.433-3.583-7.5-7.25c-0.233,0.233-0.4,0.367-0.5,0.4l1.55,2.25
					c2.434,3.233,5,7.917,7.7,14.05l1.05,2.25l-0.15-0.15c-0.033,0.033,0,0.083,0.1,0.15c2.933,3.833,6,7.117,9.2,9.85
					c3.033-0.4,6.383,0.6,10.05,3l9.75,6.65c1.033,0.7,2.083,1.517,3.15,2.45l-2.75,0.4c1.934-0.167,3.4-0.4,4.4-0.7
					C15.667,31.283,13.817,29.4,10.75,26.9z M11.9,33.25c-1.833-1.733-5.933-3.7-12.3-5.9l9.25,6.15L11.9,33.25z M10.5,14.55
					c-1.2-1.933-2.55-3.6-4.05-5c-1-0.9-1.567-0.85-1.7,0.15l0.2,1.85c-1.167-1.167-2-2.8-2.5-4.9c-0.767-2.367-0.3-3.017,1.4-1.95
					C5.583,5.767,7.133,7.083,8.5,8.65c1.333,1.633,2,2.934,2,3.9V14.55z M32.5,21.15c-2.7,0.1-5.617-2.066-8.75-6.5
					c-2.433-3.4-3.85-5.467-4.25-6.2c2.067,5.033,4,8.933,5.8,11.7c1.367,2.4,3.184,3.633,5.45,3.7l0.05,0.85
					c0.067,0,0.067-0.284,0-0.85L32.5,21.15z M0.7-24.65c-1.333,0.967-2.817,1.967-4.45,3c2.667,5.767,7.5,10.633,14.5,14.6
					c-4.067-6.233-6.7-10.733-7.9-13.5C1.417-23.517,0.7-24.883,0.7-24.65z M-8.9,16.25c-1.3-0.633-2.783-2.2-4.45-4.7
					c-1.833-2.767-2.217-4.167-1.15-4.2c1.1,0.1,2.85,1.933,5.25,5.5C-7.017,16.183-6.9,17.317-8.9,16.25z M-31.2-5.05
					c2.167,3.133,4.917,6.35,8.25,9.65c-3.5-5.6-5.933-9.033-7.3-10.3L-31.2-5.05z"/>
				<path style="fill-rule:evenodd;clip-rule:evenodd;fill:#F9CA6A;" d="M26.9,28l1-0.85c1.3-1.2,2-1.85,2.1-1.95
					c0.233-0.167,0.483-0.617,0.75-1.35c-2.267-0.067-4.083-1.3-5.45-3.7c-1.8-2.767-3.733-6.667-5.8-11.7L10.65-7l0.1-0.05
					c-7-3.967-11.833-8.833-14.5-14.6l-3.4,2.05c2.2,3.633,4.65,6.383,7.35,8.25c1.833,1.367,4.417,3.8,7.75,7.3
					c3.833,3.6,7.316,9.15,10.45,16.65c2.667,6.533,5.467,11.633,8.4,15.3C26.8,27.967,26.833,28,26.9,28z M21.5,25.1
					c-0.867-2.633-2.117-5.867-3.75-9.7c-2.067-4.8-3.717-8.083-4.95-9.85C10.133,1.883,4.767-2.967-3.3-9
					c-1.567-1.2-3.6-4.283-6.1-9.25l-0.85,0.35l-2.6,1.4c1.333,2.433,3.317,5.317,5.95,8.65c1.467,1.8,4.333,4.1,8.6,6.9
					c3.767,2.667,6.4,5.034,7.9,7.1c4.033,6.067,7.05,11.383,9.05,15.95c1.5,3.233,2.867,6,4.1,8.3l1.4-0.7
					C22.617,27.633,21.733,26.1,21.5,25.1z M20.5,30.8c-0.1-0.3,0.067-0.15,0.5,0.45c-1.733-3.533-2.85-5.717-3.35-6.55
					c-1.8-2.5-4.733-5.117-8.8-7.85c-2.267-1.567-3.9-2.767-4.9-3.6c-1.934-1.867-3.367-4.117-4.3-6.75
					c-1.233-3.333-2.367-5.867-3.4-7.6c-1.133-1.8-2.8-3.5-5-5.1c-3.567-2.433-6.267-5.15-8.1-8.15l-3.25,1.75
					c3.567,4.934,7,8.267,10.3,10c2.167,1.267,4.05,3.184,5.65,5.75L0.45,11c1.4,2.1,3.566,4.233,6.5,6.4
					c3.233,2.367,5.466,4.233,6.7,5.6c1.267,1.4,3.184,4.283,5.75,8.65L21,31.3C20.6,31.167,20.433,31,20.5,30.8z M11,25.2
					c-4.633-4.167-7.683-6.934-9.15-8.3c-3-2.767-5-5.316-6-7.65c-1.167-2.367-3.233-4.85-6.2-7.45
					c-0.133-0.167-2.683-2.267-7.65-6.3c-2.133-1.6-4-3.5-5.6-5.7l-3.65,2.15c3.067,3.667,5.567,6.083,7.5,7.25
					c1.867,1,4.667,3.3,8.4,6.9L1.1,18.25c2.633,2.633,5.85,5.517,9.65,8.65c3.067,2.5,4.917,4.383,5.55,5.65l1-0.3
					C15.667,29.85,13.567,27.5,11,25.2z M14.65,32.85c-1.066-0.934-2.117-1.75-3.15-2.45l-9.75-6.65c-3.667-2.4-7.017-3.4-10.05-3
					l7.9,6.6c6.367,2.2,10.467,4.167,12.3,5.9L14.65,32.85z M10.5,12.55c0-0.966-0.667-2.267-2-3.9
					C7.133,7.083,5.583,5.767,3.85,4.7c-1.7-1.067-2.167-0.417-1.4,1.95c0.5,2.1,1.333,3.733,2.5,4.9L4.75,9.7
					c0.133-1,0.7-1.05,1.7-0.15c1.5,1.4,2.85,3.067,4.05,5V12.55z M-23,4.25c0.867,2.4,2.667,4.567,5.4,6.5l0.15,0.15l-1.05-2.25
					c-2.7-6.133-5.267-10.816-7.7-14.05l-1.55-2.25l-2.5,1.95c1.367,1.267,3.8,4.7,7.3,10.3c-0.233-0.1-0.167,0.133,0.2,0.7
					L-23,4.25z M-9.25,12.85c-2.4-3.567-4.15-5.4-5.25-5.5c-1.067,0.033-0.683,1.433,1.15,4.2c1.667,2.5,3.15,4.067,4.45,4.7
					C-6.9,17.317-7.017,16.183-9.25,12.85z"/>
			</g>
		</g>
	</g>
</symbol>
<symbol  id="FlashAICB_x2F_Layer_1_x2F__x3C_Group_x3E_" viewBox="0 -66.417 119.2 66.417">
	<g id="Layer_1_7_">
		<g>
			
				<use xlink:href="#FlashAICB_x2F_Layer_1_x2F__x3C_Path_x3E__x5F_1_x5F_0"  width="119.2" height="60.45" y="-60.45" style="overflow:visible;opacity:0.1992;enable-background:new    ;"/>
			
				<use xlink:href="#FlashAICB_x2F_Layer_1_x2F__x3C_Path_x3E__x5F_0"  width="119.2" height="66.417" y="-66.417" style="overflow:visible;opacity:0.1211;enable-background:new    ;"/>
		</g>
	</g>
</symbol>
<symbol  id="FlashAICB_x2F_Layer_1_x2F__x3C_Path_x3E_" viewBox="0 -61.85 128.6 61.85">
	<g id="Layer_1_4_">
		
			<radialGradient id="SVGID_1_" cx="64.2998" cy="-30.9248" r="50.4522" gradientTransform="matrix(1 0 0 -1 0 -61.8496)" gradientUnits="userSpaceOnUse">
			<stop  offset="0" style="stop-color:#CCEFE7;stop-opacity:0"/>
			<stop  offset="0.0941" style="stop-color:#C2E8E0;stop-opacity:0.0784"/>
			<stop  offset="0.2549" style="stop-color:#A6D6CF;stop-opacity:0.298"/>
			<stop  offset="0.4667" style="stop-color:#7BB8B2;stop-opacity:0.6471"/>
			<stop  offset="0.651" style="stop-color:#519A96"/>
		</radialGradient>
		<path style="fill-rule:evenodd;clip-rule:evenodd;fill:url(#SVGID_1_);" d="M128.05-0.3L128.6,0c-0.633-17.2-7.167-31.8-19.6-43.8
			C96.5-55.833,81.583-61.85,64.25-61.85c-17.033,0-31.733,5.817-44.1,17.45C7.783-32.8,1.067-18.617,0-1.85
			c4.967-12.967,13.183-23.467,24.65-31.5c11.7-8.167,24.733-12.25,39.1-12.25c14.633,0,27.883,4.25,39.75,12.75
			C115.1-24.517,123.283-13.667,128.05-0.3z"/>
	</g>
</symbol>
<symbol  id="FlashAICB_x2F_Layer_1_x2F__x3C_Path_x3E__x5F_0" viewBox="0 -66.417 119.2 66.417">
	<g id="Layer_1_6_">
		<path style="fill-rule:evenodd;clip-rule:evenodd;fill:#FFFFFF;" d="M115.4-37.25c2.533-6.1,3.8-11.85,3.8-17.25
			c0-5.367-1.567-8.75-4.7-10.15c-2.533-1.133-6.783-1.117-12.75,0.05c-7.867,1.9-14.183,3.367-18.95,4.4
			c-8.667,1.833-16.4,2.75-23.2,2.75c-6.833,0-14.567-1-23.2-3c-9.033-2.367-15.35-3.966-18.95-4.8c-6-1.367-10.25-1.533-12.75-0.5
			C1.567-64.483,0-61.167,0-55.8c0,5.933,1.267,12.066,3.8,18.4c2.667,6.7,6.434,12.733,11.3,18.1C26.7-6.433,41.533,0,59.6,0
			c17.833,0,32.65-6.483,44.45-19.45C108.883-24.783,112.667-30.717,115.4-37.25z"/>
	</g>
</symbol>
<symbol  id="FlashAICB_x2F_Layer_1_x2F__x3C_Path_x3E__x5F_1" viewBox="0 -128.55 128.8 128.55">
	<g id="Layer_1_2_">
		
			<radialGradient id="SVGID_2_" cx="64.3999" cy="-64.2749" r="64.3374" gradientTransform="matrix(1 0 0 -1 0 -128.5498)" gradientUnits="userSpaceOnUse">
			<stop  offset="0.1412" style="stop-color:#8CA5BB"/>
			<stop  offset="0.5569" style="stop-color:#7082AD;stop-opacity:0.9725"/>
			<stop  offset="1" style="stop-color:#5560A0;stop-opacity:0.949"/>
		</radialGradient>
		<path style="fill-rule:evenodd;clip-rule:evenodd;fill:url(#SVGID_2_);" d="M128.8-64.3c0-17.733-6.283-32.867-18.85-45.4
			c-12.567-12.566-27.75-18.85-45.55-18.85c-17.767,0-32.95,6.283-45.55,18.85C6.283-97.167,0-82.033,0-64.3
			c0,17.733,6.283,32.883,18.85,45.45C31.45-6.283,46.633,0,64.4,0c17.8,0,32.983-6.283,45.55-18.85
			C122.517-31.383,128.8-46.533,128.8-64.3z"/>
	</g>
</symbol>
<symbol  id="FlashAICB_x2F_Layer_1_x2F__x3C_Path_x3E__x5F_1_x5F_0" viewBox="0 -60.45 119.2 60.45">
	<g id="Layer_1_5_">
		
			<linearGradient id="SVGID_3_" gradientUnits="userSpaceOnUse" x1="16160.6572" y1="-58.4668" x2="16221.0479" y2="-58.4668" gradientTransform="matrix(1.654944e-005 1 -1 -0.001 0.8657 -16221.1064)">
			<stop  offset="0.1294" style="stop-color:#E2B8B2"/>
			<stop  offset="0.9255" style="stop-color:#FFFFFF"/>
		</linearGradient>
		<path style="fill-rule:evenodd;clip-rule:evenodd;fill:url(#SVGID_3_);" d="M104.05-19.45c4.833-5.333,8.617-11.267,11.35-17.8
			c2.533-6.1,3.8-11.85,3.8-17.25c0-1.9-0.167-3.5-0.5-4.8c-2,11.966-7.85,22.617-17.55,31.95C89.717-16.383,75.867-10.9,59.6-10.9
			c-16.533,0-30.45-5.483-41.75-16.45c-9.733-9.433-15.533-20.467-17.4-33.1C0.15-59.15,0-57.6,0-55.8
			c0,5.933,1.267,12.066,3.8,18.4c2.667,6.7,6.434,12.733,11.3,18.1C26.7-6.433,41.533,0,59.6,0C77.433,0,92.25-6.483,104.05-19.45z
			"/>
	</g>
</symbol>
<g>
	<path style="fill-rule:evenodd;clip-rule:evenodd;fill:#FFFFFF;" d="M146.55,25.2c7.934,7.933,14.084,17.033,18.45,27.3
		c4.5,10.633,6.75,21.767,6.75,33.4s-2.25,22.75-6.75,33.35c-4.366,10.267-10.517,19.366-18.45,27.3
		c-7.934,7.9-17.033,14.033-27.3,18.4c-10.634,4.5-21.767,6.75-33.4,6.75c-11.633,0-22.766-2.25-33.399-6.75
		c-10.267-4.334-19.367-10.467-27.3-18.4c-7.9-7.934-14.033-17.033-18.4-27.3C2.25,108.616,0,97.5,0,85.9
		c0-11.633,2.25-22.767,6.75-33.4c4.367-10.267,10.5-19.367,18.4-27.3c7.934-7.934,17.033-14.083,27.3-18.45
		C63.083,2.25,74.217,0,85.85,0c11.634,0,22.767,2.25,33.4,6.75C129.517,11.117,138.616,17.267,146.55,25.2z"/>
	<g>
		<g>
			
				<linearGradient id="SVGID_4_" gradientUnits="userSpaceOnUse" x1="-157.6353" y1="85.8506" x2="-14.2354" y2="85.8506" gradientTransform="matrix(6.973501e-006 -1 1 -0.001 -1.064519e-004 4.449275e-004)">
				<stop  offset="0.098" style="stop-color:#253457"/>
				<stop  offset="0.3961" style="stop-color:#37568A"/>
				<stop  offset="0.5529" style="stop-color:#3E649F"/>
				<stop  offset="0.9686" style="stop-color:#AAA1B4"/>
			</linearGradient>
			<path style="fill-rule:evenodd;clip-rule:evenodd;fill:url(#SVGID_4_);" d="M157.55,85.9c0,9.7-1.883,18.984-5.649,27.85
				c-3.634,8.566-8.75,16.167-15.351,22.8c-6.633,6.601-14.233,11.717-22.8,15.351c-8.9,3.767-18.2,5.649-27.9,5.649
				c-9.7,0-19-1.883-27.899-5.649c-8.567-3.634-16.167-8.75-22.8-15.351c-6.6-6.633-11.717-14.233-15.35-22.8
				c-3.767-8.866-5.65-18.15-5.65-27.85s1.883-19,5.65-27.9c3.633-8.567,8.75-16.167,15.35-22.8
				c6.633-6.634,14.233-11.767,22.8-15.4c8.9-3.767,18.2-5.65,27.899-5.65c9.7,0,19,1.883,27.9,5.65
				c8.566,3.633,16.167,8.767,22.8,15.4c6.601,6.633,11.717,14.233,15.351,22.8C155.667,66.9,157.55,76.2,157.55,85.9z"/>
			<path style="fill-rule:evenodd;clip-rule:evenodd;fill:#111838;" d="M156.65,85.9c0-9.6-1.851-18.8-5.551-27.6
				c-3.6-8.466-8.666-15.966-15.199-22.5C122.1,21.967,105.417,15.05,85.85,15.05c-19.566,0-36.25,6.917-50.05,20.75
				c-6.533,6.534-11.6,14.034-15.2,22.5c-3.7,8.8-5.55,18-5.55,27.6c0,19.534,6.917,36.2,20.75,50
				c6.534,6.533,14.034,11.6,22.5,15.199c8.767,3.7,17.95,5.551,27.55,5.551c9.601,0,18.784-1.851,27.551-5.551
				c8.466-3.6,15.966-8.666,22.5-15.199c6.533-6.5,11.6-13.983,15.199-22.45C154.8,104.684,156.65,95.5,156.65,85.9z M137.2,34.55
				c6.866,6.867,12.116,14.717,15.75,23.55c3.666,8.833,5.5,18.1,5.5,27.8s-1.834,18.95-5.5,27.75
				c-3.634,8.833-8.884,16.683-15.75,23.55c-6.834,6.866-14.684,12.116-23.55,15.75c-8.834,3.666-18.101,5.5-27.801,5.5
				c-9.7,0-18.966-1.834-27.8-5.5c-8.833-3.634-16.683-8.884-23.55-15.75c-6.867-6.867-12.117-14.717-15.75-23.55
				c-3.667-8.801-5.5-18.051-5.5-27.75s1.833-18.967,5.5-27.8c3.667-8.833,8.917-16.684,15.75-23.55
				c6.867-6.833,14.717-12.083,23.55-15.75c8.833-3.667,18.1-5.5,27.8-5.5c9.7,0,18.967,1.833,27.801,5.5
				C122.517,22.467,130.366,27.717,137.2,34.55z"/>
		</g>
		
			<use xlink:href="#FlashAICB_x2F_Layer_1_x2F__x3C_Path_x3E__x5F_1"  width="128.8" height="128.55" y="-128.55" transform="matrix(1 0 0 -1 21.4502 19.25)" style="overflow:visible;opacity:0.9102;enable-background:new    ;"/>
		<g>
			<path style="fill-rule:evenodd;clip-rule:evenodd;fill:#D1DEEF;" d="M42.9,109.1l-1.05-0.649c-1.2-0.634-2.067-1.65-2.6-3.05
				c-4.2-10.634-4.75-20.317-1.65-29.05c0.967-2.767,2.267-5.3,3.9-7.6c0.9-1.2,1.7-2.133,2.4-2.8
				c0.233-0.233,0.617-0.517,1.15-0.85l4.6-2.7c1.1-0.633,2.267-0.9,3.5-0.8c1.233,0.066,2.35,0.467,3.35,1.2
				c0.933,0.667,1.633,1.567,2.1,2.7c2.533,1.433,7.633,2.55,15.3,3.35c12.8,1.333,30.683,1.467,53.65,0.4
				c1.033-0.033,2.033,0.183,3,0.65c0.934,0.434,1.7,1.083,2.3,1.95c1.334,1.8,1.601,3.75,0.801,5.85
				c-1.034,2.733-2.617,10.149-4.75,22.25c-1.534,8.633-2.95,17.283-4.25,25.95c-0.2,1.267-0.733,2.366-1.601,3.3
				c-0.833,0.934-1.883,1.55-3.149,1.85l-0.65,0.101l-0.2,0.05c-1.767,0.2-4.3,0.583-7.6,1.149c-0.7,0.101-1.417,0.101-2.15,0
				c-16.767-2.933-31.767-7.1-45-12.5C57.067,116.917,49.933,113.333,42.9,109.1z"/>
			
				<linearGradient id="SVGID_5_" gradientUnits="userSpaceOnUse" x1="-153.6948" y1="64.1309" x2="-70.751" y2="64.1309" gradientTransform="matrix(-0.2245 -0.9745 0.9745 -0.2245 -5.002320e-005 3.402233e-004)">
				<stop  offset="0" style="stop-color:#26313D"/>
				<stop  offset="0.2196" style="stop-color:#3E4C5E"/>
				<stop  offset="0.702" style="stop-color:#7A90B1"/>
				<stop  offset="1" style="stop-color:#A2BCE7"/>
			</linearGradient>
			<path style="fill-rule:evenodd;clip-rule:evenodd;fill:url(#SVGID_5_);" d="M49.65,61.45c1.1-0.633,2.267-0.9,3.5-0.8
				c1.233,0.067,2.35,0.45,3.35,1.15c0.933,0.733,1.633,1.65,2.1,2.75c2.6,1.4,7.7,2.5,15.3,3.3
				c12.833,1.367,30.716,1.517,53.65,0.45c1.066-0.033,2.066,0.167,3,0.6c0.934,0.467,1.7,1.117,2.3,1.95
				c1.334,1.8,1.601,3.767,0.801,5.9c-1.034,2.733-2.617,10.15-4.75,22.25c-1.5,8.566-2.917,17.217-4.25,25.95
				c-0.2,1.267-0.733,2.366-1.601,3.3c-0.833,0.934-1.883,1.55-3.149,1.85l-0.65,0.101h-0.2v0.05c-1.767,0.2-4.3,0.583-7.6,1.15
				c-0.7,0.1-1.417,0.1-2.15,0c-16.767-2.934-31.767-7.101-45-12.5c-7.233-2.934-14.367-6.517-21.4-10.75l-1.05-0.65
				c-1.233-0.7-2.1-1.717-2.6-3.05c-4.2-10.634-4.75-20.317-1.65-29.05c0.967-2.767,2.267-5.3,3.9-7.6c0.9-1.2,1.7-2.133,2.4-2.8
				c0.367-0.367,0.75-0.65,1.15-0.85L49.65,61.45z"/>
			
				<path style="fill-rule:evenodd;clip-rule:evenodd;fill:none;stroke:#D1DEEF;stroke-width:0.25;stroke-linejoin:round;stroke-miterlimit:3;" d="
				M49.65,61.45l-4.6,2.7c-0.4,0.2-0.783,0.483-1.15,0.85c-0.7,0.667-1.5,1.6-2.4,2.8c-1.633,2.3-2.933,4.833-3.9,7.6
				c-3.1,8.733-2.55,18.417,1.65,29.05c0.5,1.333,1.367,2.35,2.6,3.05l1.05,0.65c7.033,4.233,14.167,7.816,21.4,10.75
				c13.233,5.399,28.233,9.566,45,12.5c0.733,0.1,1.45,0.1,2.15,0c3.3-0.567,5.833-0.95,7.6-1.15v-0.05h0.2l0.65-0.101
				c1.267-0.3,2.316-0.916,3.149-1.85c0.867-0.934,1.4-2.033,1.601-3.3c1.333-8.733,2.75-17.384,4.25-25.95
				c2.133-12.1,3.716-19.517,4.75-22.25c0.8-2.133,0.533-4.1-0.801-5.9c-0.6-0.833-1.366-1.483-2.3-1.95
				c-0.934-0.433-1.934-0.633-3-0.6c-22.934,1.067-40.816,0.917-53.65-0.45c-7.6-0.8-12.7-1.9-15.3-3.3
				c-0.467-1.1-1.167-2.017-2.1-2.75c-1-0.7-2.117-1.083-3.35-1.15C51.917,60.55,50.75,60.817,49.65,61.45z"/>
			<path style="fill-rule:evenodd;clip-rule:evenodd;fill:#111838;" d="M54.05,67c0.1,0.467,0.65,1.017,1.65,1.65
				c1.833,1.1,4.767,2.067,8.8,2.9c12.633,2.534,33.717,3.117,63.25,1.75c0.5,0,0.866,0.167,1.1,0.5
				c0.267,0.367,0.317,0.767,0.15,1.2c-1.267,3.367-3.184,12.517-5.75,27.45c-1.3,7.5-2.483,14.75-3.55,21.75
				c-0.066,0.533-0.384,0.883-0.95,1.05h-0.15c-1.833,0.233-4.5,0.634-8,1.2c-0.166,0.066-0.3,0.066-0.399,0
				c-16.4-2.867-31.034-6.917-43.9-12.15c-7.133-2.866-14.083-6.35-20.85-10.45l-1.05-0.6c-0.2-0.134-0.367-0.35-0.5-0.65
				c-3.7-9.3-4.3-17.683-1.8-25.149c0.8-2.367,1.867-4.517,3.2-6.45c0.767-1.033,1.434-1.817,2-2.35l0.2-0.2l4.65-2.7
				c0.5-0.267,0.967-0.233,1.4,0.1C53.95,66.117,54.117,66.5,54.05,67z"/>
			<g>
				<g>
					
						<use xlink:href="#FlashAICB_x2F_Illustrator_Symbols_x2F_plank1_copy_2"  width="66.05" height="67.05" id="plank1_x5F_copy_x5F_2" x="-33" y="-33.55" transform="matrix(-0.489 -1.0917 -1.1895 0.5329 89.2002 93.7998)" style="overflow:visible;"/>
				</g>
			</g>
		</g>
		
			<use xlink:href="#FlashAICB_x2F_Layer_1_x2F__x3C_Path_x3E_"  width="128.6" height="61.85" y="-61.85" transform="matrix(1 0 0 -1 21.5498 85.9502)" style="overflow:visible;opacity:0.4688;enable-background:new    ;"/>
		<g>
			<g>
				<g>
					<g>
						<g>
							<g>
								
									<linearGradient id="SVGID_6_" gradientUnits="userSpaceOnUse" x1="-47.3105" y1="85.4175" x2="-25.5566" y2="85.4175" gradientTransform="matrix(4.597701e-005 -1 1 -0.001 1.667957e-004 4.439838e-004)">
									<stop  offset="0" style="stop-color:#26313D"/>
									<stop  offset="0.2196" style="stop-color:#3E4C5E"/>
									<stop  offset="0.702" style="stop-color:#7A90B1"/>
									<stop  offset="1" style="stop-color:#A2BCE7"/>
								</linearGradient>
								<path style="fill-rule:evenodd;clip-rule:evenodd;fill:url(#SVGID_6_);" d="M96.25,36.75c-0.267,0.767-0.7,1.433-1.3,2
									l-1.2,1.1l0.25,1.6c0.134,0.767,0.066,1.566-0.2,2.4c-0.366,1-1,1.833-1.899,2.5l-0.65,0.4c-0.767,0.333-1.5,0.5-2.2,0.5
									c-0.833,0-1.649-0.217-2.45-0.65L85.2,45.8l-1.55,0.8C82.783,47,81.9,47.15,81,47.05c-0.967-0.1-1.817-0.433-2.55-1
									c-0.767-0.566-1.317-1.3-1.65-2.2c-0.333-0.867-0.417-1.783-0.25-2.75l0.3-1.6l-1.15-1.15
									c-0.633-0.667-1.067-1.483-1.3-2.45c-0.2-0.933-0.15-1.85,0.15-2.75c0.467-1.267,1.317-2.217,2.55-2.85
									c0.5-0.233,1.017-0.383,1.55-0.45l1.65-0.2l0.75-1.45c0.534-1.034,1.3-1.767,2.3-2.2c0.633-0.333,1.35-0.5,2.15-0.5h0.1
									c0.967,0.033,1.851,0.3,2.65,0.8s1.4,1.184,1.8,2.05l0.7,1.5l1.6,0.25c0.967,0.167,1.801,0.566,2.5,1.2
									c0.733,0.633,1.233,1.4,1.5,2.3C96.65,34.633,96.616,35.683,96.25,36.75z"/>
								
									<path style="fill-rule:evenodd;clip-rule:evenodd;fill:none;stroke:#D1DEEF;stroke-width:0.25;stroke-linejoin:round;stroke-miterlimit:3;" d="
									M96.25,36.75c-0.267,0.767-0.7,1.433-1.3,2l-1.2,1.1l0.25,1.6c0.134,0.767,0.066,1.566-0.2,2.4c-0.366,1-1,1.833-1.899,2.5
									l-0.65,0.4c-0.767,0.333-1.5,0.5-2.2,0.5c-0.833,0-1.649-0.217-2.45-0.65L85.2,45.8l-1.55,0.8
									C82.783,47,81.9,47.15,81,47.05c-0.967-0.1-1.817-0.433-2.55-1c-0.767-0.566-1.317-1.3-1.65-2.2
									c-0.333-0.867-0.417-1.783-0.25-2.75l0.3-1.6l-1.15-1.15c-0.633-0.667-1.067-1.483-1.3-2.45c-0.2-0.933-0.15-1.85,0.15-2.75
									c0.467-1.267,1.317-2.217,2.55-2.85c0.5-0.233,1.017-0.383,1.55-0.45l1.65-0.2l0.75-1.45c0.534-1.034,1.3-1.767,2.3-2.2
									c0.633-0.333,1.35-0.5,2.15-0.5h0.1c0.967,0.033,1.851,0.3,2.65,0.8s1.4,1.184,1.8,2.05l0.7,1.5l1.6,0.25
									c0.967,0.167,1.801,0.566,2.5,1.2c0.733,0.633,1.233,1.4,1.5,2.3C96.65,34.633,96.616,35.683,96.25,36.75z"/>
							</g>
						</g>
						<path style="fill-rule:evenodd;clip-rule:evenodd;fill:#111838;" d="M77.75,36.35c-0.667-0.667-0.833-1.417-0.5-2.25
							c0.3-0.867,0.883-1.35,1.75-1.45l3.15-0.35l1.45-2.8c0.167-0.367,0.433-0.65,0.8-0.85c0.367-0.233,0.75-0.333,1.15-0.3
							c0.867,0,1.5,0.417,1.9,1.25l1.35,2.8l3.101,0.55c0.866,0.1,1.433,0.6,1.699,1.5c0.167,0.466,0.167,0.917,0,1.35
							c-0.166,0.333-0.366,0.617-0.6,0.85l-2.3,2.15l0.5,3.1c0.033,0.3,0,0.65-0.101,1.05c-0.166,0.433-0.433,0.783-0.8,1.05
							c-0.767,0.5-1.533,0.533-2.3,0.1l-2.75-1.5l-2.8,1.4c-0.833,0.4-1.6,0.333-2.3-0.2c-0.7-0.533-0.967-1.25-0.8-2.15l0.6-3.05
							L77.75,36.35z"/>
						
							<linearGradient id="SVGID_7_" gradientUnits="userSpaceOnUse" x1="-43.4478" y1="85.4063" x2="-29.4228" y2="85.4063" gradientTransform="matrix(7.130126e-005 -1 1 -0.001 -9.596995e-005 4.439838e-004)">
							<stop  offset="0" style="stop-color:#596BC1"/>
							<stop  offset="0.3373" style="stop-color:#6C8DD7"/>
							<stop  offset="0.8902" style="stop-color:#8FCBFE"/>
						</linearGradient>
						<path style="fill-rule:evenodd;clip-rule:evenodd;fill:url(#SVGID_7_);" d="M78.45,35.65c-0.333-0.367-0.417-0.767-0.25-1.2
							c0.133-0.434,0.45-0.7,0.95-0.8l3.65-0.45l1.7-3.25c0.2-0.4,0.55-0.6,1.05-0.6c0.467,0,0.8,0.217,1,0.65l1.55,3.35l3.601,0.6
							c0.467,0.066,0.783,0.333,0.95,0.8c0.066,0.3,0.05,0.533-0.051,0.7c-0.033,0.2-0.133,0.35-0.3,0.45l-2.649,2.5l0.55,3.65
							l-0.05,0.55c-0.134,0.3-0.284,0.483-0.45,0.55c-0.4,0.3-0.8,0.333-1.2,0.1l-3.2-1.8L82,43.1c-0.4,0.2-0.8,0.167-1.2-0.1
							c-0.4-0.333-0.55-0.717-0.45-1.15l0.7-3.6L78.45,35.65z"/>
						<path style="fill-rule:evenodd;clip-rule:evenodd;fill:#D1DEEF;" d="M85.15,30.1c-0.467,0-0.817,0.217-1.05,0.65L82.4,34
							l-3.6,0.45c-0.3,0.066-0.5,0.15-0.6,0.25v-0.25c0.133-0.434,0.45-0.7,0.95-0.8l3.65-0.45l1.7-3.25c0.2-0.4,0.55-0.6,1.05-0.6
							c0.467,0,0.8,0.217,1,0.65l1.55,3.35l3.601,0.6c0.467,0.066,0.783,0.333,0.95,0.8c0.066,0.3,0.05,0.533-0.051,0.7
							c-0.033,0.2-0.133,0.35-0.3,0.45l-0.05-0.4c-0.1-0.433-0.4-0.7-0.9-0.8l-3.6-0.6l-1.55-3.3C86,30.4,85.65,30.167,85.15,30.1z"
							/>
					</g>
				</g>
			</g>
			<g>
				<g>
					<g>
						
							<linearGradient id="SVGID_8_" gradientUnits="userSpaceOnUse" x1="-58.5645" y1="52.3623" x2="-30.1182" y2="52.3623" gradientTransform="matrix(0.0193 -0.9998 0.9998 0.0193 1.731943e-004 -3.423542e-004)">
							<stop  offset="0" style="stop-color:#26313D"/>
							<stop  offset="0.2196" style="stop-color:#3E4C5E"/>
							<stop  offset="0.702" style="stop-color:#7A90B1"/>
							<stop  offset="1" style="stop-color:#A2BCE7"/>
						</linearGradient>
						<path style="fill-rule:evenodd;clip-rule:evenodd;fill:url(#SVGID_8_);" d="M51.55,36.95c0.267-1.034,0.917-2.034,1.95-3
							c0.8-0.733,1.7-1.333,2.7-1.8c1.4-0.566,2.9-0.85,4.5-0.85c1.533,0,2.883,0.284,4.05,0.85c0.733,0.2,1.25,0.633,1.55,1.3v0.05
							c0.633,1.4,0.417,2.95-0.65,4.65c-0.6,0.967-1.367,1.85-2.3,2.65c-2.3,2.067-4.483,3.267-6.55,3.6l-0.4,0.05l-0.15-0.05
							c-0.267,0.567-0.583,1.067-0.95,1.5c-1.8,2.467-3.716,4.067-5.75,4.8l-0.2,0.05c-0.167,0.767-0.367,1.417-0.6,1.95
							c-1.033,2.9-2.4,4.983-4.1,6.25L44.2,59.2l-0.25,0.1c-0.267,0.1-0.567,0.133-0.9,0.1c-0.333,0-0.683-0.117-1.05-0.35
							c-0.733-0.433-1.3-1.083-1.7-1.95l-0.65,0.2l-0.55,0.05h-0.2c-0.767-0.067-1.35-0.4-1.75-1c-0.8-1.167-0.983-2.6-0.55-4.3
							c0.333-1.333,0.933-2.55,1.8-3.65c1.267-1.533,2.783-2.633,4.55-3.3c-0.1-1.2,0.283-2.45,1.15-3.75
							c0.667-0.967,1.5-1.817,2.5-2.55C48.033,37.833,49.683,37.217,51.55,36.95z"/>
						
							<path style="fill-rule:evenodd;clip-rule:evenodd;fill:none;stroke:#D1DEEF;stroke-width:0.25;stroke-linejoin:round;stroke-miterlimit:3;" d="
							M51.55,36.95c-1.867,0.267-3.517,0.883-4.95,1.85c-1,0.733-1.833,1.583-2.5,2.55c-0.867,1.3-1.25,2.55-1.15,3.75
							c-1.767,0.667-3.284,1.767-4.55,3.3c-0.867,1.1-1.467,2.317-1.8,3.65c-0.434,1.7-0.25,3.133,0.55,4.3
							c0.4,0.6,0.983,0.933,1.75,1h0.2l0.55-0.05l0.65-0.2c0.4,0.867,0.967,1.517,1.7,1.95c0.367,0.233,0.717,0.35,1.05,0.35
							c0.333,0.033,0.633,0,0.9-0.1l0.25-0.1l0.45-0.25c1.7-1.267,3.067-3.35,4.1-6.25c0.233-0.534,0.433-1.184,0.6-1.95l0.2-0.05
							c2.034-0.733,3.95-2.333,5.75-4.8c0.367-0.433,0.684-0.933,0.95-1.5l0.15,0.05l0.4-0.05c2.067-0.333,4.25-1.533,6.55-3.6
							c0.933-0.8,1.7-1.683,2.3-2.65c1.067-1.7,1.283-3.25,0.65-4.65v-0.05c-0.3-0.667-0.816-1.1-1.55-1.3
							c-1.167-0.566-2.517-0.85-4.05-0.85c-1.6,0-3.1,0.284-4.5,0.85c-1,0.467-1.9,1.067-2.7,1.8
							C52.467,34.917,51.817,35.917,51.55,36.95z"/>
					</g>
				</g>
				<path style="fill-rule:evenodd;clip-rule:evenodd;fill:#111838;" d="M48.85,49.25h-0.2c-0.2,0-0.35-0.083-0.45-0.25l-0.25-0.25
					c0,1-0.217,2.117-0.65,3.35c-1,2.7-2.2,4.55-3.6,5.55l-0.2,0.1l-0.05,0.05l-0.3,0.05l-0.3-0.1c-0.9-0.567-1.4-1.533-1.5-2.9
					c-0.633,0.4-1.317,0.7-2.05,0.9H39c-0.2,0-0.383-0.1-0.55-0.3c-0.567-0.8-0.65-1.883-0.25-3.25c0.3-1,0.783-1.95,1.45-2.85
					c1.6-1.867,3.467-2.967,5.6-3.3h-0.2c-0.233-0.1-0.367-0.25-0.4-0.45c-0.3-0.967-0.066-2.033,0.7-3.2
					c0.566-0.9,1.3-1.667,2.2-2.3c1.667-1.1,3.483-1.65,5.45-1.65c-0.133-1.034,0.3-2.034,1.3-3c0.7-0.767,1.567-1.383,2.6-1.85
					c1.233-0.5,2.517-0.733,3.85-0.7c1.333,0,2.483,0.267,3.45,0.8h0.05c0.267,0,0.467,0.15,0.6,0.45
					c0.367,0.833,0.217,1.833-0.45,3c-0.5,0.867-1.183,1.684-2.05,2.45c-2.1,1.867-4.017,2.95-5.75,3.25h-0.3
					c-0.2-0.033-0.367-0.15-0.5-0.35l-0.2-0.4c-0.333,1.033-0.85,1.983-1.55,2.85c-1.8,2.267-3.483,3.683-5.05,4.25L48.85,49.25z"/>
				<g>
					<g>
						<g>
							<g>
								<g>
									<g>
										<g>
											
												<linearGradient id="SVGID_9_" gradientUnits="userSpaceOnUse" x1="-37.6616" y1="59.4233" x2="-33.161" y2="59.4233" gradientTransform="matrix(0.0167 -0.9999 0.9999 0.0167 -4.578941e-005 -4.397966e-004)">
												<stop  offset="0" style="stop-color:#709DFE"/>
												<stop  offset="0.2471" style="stop-color:#6388D4"/>
												<stop  offset="0.7647" style="stop-color:#485E82"/>
												<stop  offset="1" style="stop-color:#3D4E61"/>
											</linearGradient>
											<path style="fill-rule:evenodd;clip-rule:evenodd;fill:url(#SVGID_9_);" d="M55.65,37.2c1.033-0.6,1.767-1.067,2.2-1.4
												c2-1.367,4.017-1.85,6.05-1.45c0,0.7-0.483,1.4-1.45,2.1c-0.733,0.5-1.583,0.917-2.55,1.25
												c-2.467,0.867-4.517,1.1-6.15,0.7C54.017,38.2,54.65,37.8,55.65,37.2z"/>
											<path style="fill-rule:evenodd;clip-rule:evenodd;fill:#D1DEEF;" d="M54.75,35.95c0.7-0.7,1.517-1.267,2.45-1.7
												c1.133-0.467,2.3-0.7,3.5-0.7c1.233,0,2.3,0.25,3.2,0.75c-0.8-0.167-1.667-0.066-2.6,0.3
												c-0.5,0.167-1.316,0.55-2.45,1.15c-1.967,1.233-3.684,2.1-5.15,2.6C53.6,37.583,53.95,36.783,54.75,35.95z"/>
										</g>
										<g>
											
												<linearGradient id="SVGID_10_" gradientUnits="userSpaceOnUse" x1="-41.0635" y1="61.1245" x2="-33.212" y2="61.1245" gradientTransform="matrix(0.0191 -0.9998 0.9998 0.0191 -1.238715e-004 -1.650974e-004)">
												<stop  offset="0" style="stop-color:#709DFE"/>
												<stop  offset="0.2471" style="stop-color:#6388D4"/>
												<stop  offset="0.7647" style="stop-color:#485E82"/>
												<stop  offset="1" style="stop-color:#3D4E61"/>
											</linearGradient>
											<path style="fill-rule:evenodd;clip-rule:evenodd;fill:url(#SVGID_10_);" d="M64.2,34.4c0.3,0.667,0.133,1.5-0.5,2.5
												c-0.467,0.8-1.083,1.517-1.85,2.15c-1.934,1.8-3.733,2.833-5.4,3.1c1.333-1.767,2.267-3.117,2.8-4.05
												C60.583,36.033,62.233,34.8,64.2,34.4z"/>
											<path style="fill-rule:evenodd;clip-rule:evenodd;fill:#D1DEEF;" d="M56.4,42.15c-0.4-0.667-0.383-1.55,0.05-2.65
												c0.333-0.9,0.85-1.733,1.55-2.5c0.833-0.867,1.817-1.533,2.95-2c1.133-0.5,2.216-0.7,3.25-0.6
												c-0.8,0.167-1.567,0.6-2.3,1.3c-0.367,0.333-0.967,1-1.8,2C58.633,39.733,57.4,41.217,56.4,42.15z"/>
										</g>
									</g>
								</g>
							</g>
						</g>
					</g>
					<g>
						<g>
							<g>
								<g>
									<g>
										<g>
											
												<linearGradient id="SVGID_11_" gradientUnits="userSpaceOnUse" x1="-44.4175" y1="50.8584" x2="-38.3162" y2="50.8584" gradientTransform="matrix(0.0205 -0.9998 0.9998 0.0205 4.364923e-004 1.683906e-004)">
												<stop  offset="0" style="stop-color:#709DFE"/>
												<stop  offset="0.2471" style="stop-color:#6388D4"/>
												<stop  offset="0.7647" style="stop-color:#485E82"/>
												<stop  offset="1" style="stop-color:#3D4E61"/>
											</linearGradient>
											<path style="fill-rule:evenodd;clip-rule:evenodd;fill:url(#SVGID_11_);" d="M54.55,39.45c0.167,0.7-0.167,1.483-1,2.35
												c-0.6,0.633-1.35,1.2-2.25,1.7c-2.2,1.367-4.167,2-5.9,1.9c0.2-0.267,0.733-0.767,1.6-1.5
												c0.933-0.833,1.583-1.45,1.95-1.85C50.583,40.317,52.45,39.45,54.55,39.45z"/>
											<path style="fill-rule:evenodd;clip-rule:evenodd;fill:#D1DEEF;" d="M45.3,45.35c-0.233-0.7-0.033-1.55,0.6-2.55
												c0.533-0.833,1.217-1.55,2.05-2.15c1-0.667,2.1-1.117,3.3-1.35c1.2-0.233,2.3-0.2,3.3,0.1
												c-0.833,0.033-1.667,0.3-2.5,0.8c-0.533,0.3-1.267,0.833-2.2,1.6C48.05,43.467,46.533,44.65,45.3,45.35z"/>
										</g>
										<g>
											
												<linearGradient id="SVGID_12_" gradientUnits="userSpaceOnUse" x1="-47.5889" y1="52.834" x2="-38.4122" y2="52.834" gradientTransform="matrix(0.0191 -0.9998 0.9998 0.0191 -1.815297e-004 4.375242e-004)">
												<stop  offset="0" style="stop-color:#709DFE"/>
												<stop  offset="0.2471" style="stop-color:#6388D4"/>
												<stop  offset="0.7647" style="stop-color:#485E82"/>
												<stop  offset="1" style="stop-color:#3D4E61"/>
											</linearGradient>
											<path style="fill-rule:evenodd;clip-rule:evenodd;fill:url(#SVGID_12_);" d="M54.85,39.45
												c0.433,0.566,0.45,1.417,0.05,2.55c-0.3,0.867-0.767,1.7-1.4,2.5c-1.6,2.133-3.167,3.483-4.7,4.05
												c0.1-0.3,0.4-0.983,0.9-2.05s0.833-1.883,1-2.45C51.6,41.817,52.983,40.283,54.85,39.45z"/>
											<path style="fill-rule:evenodd;clip-rule:evenodd;fill:#D1DEEF;" d="M48.7,48.55c-0.5-0.566-0.65-1.433-0.45-2.6
												c0.133-0.967,0.467-1.883,1-2.75c0.667-1,1.5-1.85,2.5-2.55c1.033-0.7,2.067-1.1,3.1-1.2c-0.767,0.333-1.434,0.9-2,1.7
												c-0.367,0.5-0.817,1.283-1.35,2.35C50.533,45.667,49.6,47.35,48.7,48.55z"/>
										</g>
									</g>
								</g>
							</g>
						</g>
					</g>
					<g>
						<g>
							<g>
								<g>
									<g>
										<g>
											
												<linearGradient id="SVGID_13_" gradientUnits="userSpaceOnUse" x1="-54.2285" y1="43.7998" x2="-45.7837" y2="43.7998" gradientTransform="matrix(0.0207 -0.9998 0.9998 0.0207 4.197862e-004 -3.072433e-004)">
												<stop  offset="0" style="stop-color:#709DFE"/>
												<stop  offset="0.2471" style="stop-color:#6388D4"/>
												<stop  offset="0.7647" style="stop-color:#485E82"/>
												<stop  offset="1" style="stop-color:#3D4E61"/>
											</linearGradient>
											<path style="fill-rule:evenodd;clip-rule:evenodd;fill:url(#SVGID_13_);" d="M46.2,46.75
												c0.333,0.633,0.233,1.467-0.3,2.5c-0.4,0.833-0.95,1.6-1.65,2.3c-1.8,1.934-3.517,3.1-5.15,3.5
												c1.167-1.833,1.983-3.25,2.45-4.25C42.717,48.633,44.267,47.283,46.2,46.75z"/>
											<path style="fill-rule:evenodd;clip-rule:evenodd;fill:#D1DEEF;" d="M39.05,55.05c-0.433-0.633-0.483-1.5-0.15-2.6
												c0.267-0.967,0.717-1.85,1.35-2.65c0.767-0.933,1.683-1.683,2.75-2.25c1.1-0.566,2.167-0.85,3.2-0.85
												c-0.767,0.233-1.5,0.716-2.2,1.45c-0.367,0.434-0.9,1.167-1.6,2.2C41.233,52.35,40.117,53.917,39.05,55.05z"/>
										</g>
										<g>
											
												<linearGradient id="SVGID_14_" gradientUnits="userSpaceOnUse" x1="-56.2788" y1="46.2798" x2="-45.7695" y2="46.2798" gradientTransform="matrix(0.019 -0.9998 0.9998 0.019 3.703441e-004 1.105070e-004)">
												<stop  offset="0" style="stop-color:#709DFE"/>
												<stop  offset="0.2471" style="stop-color:#6388D4"/>
												<stop  offset="0.7647" style="stop-color:#485E82"/>
												<stop  offset="1" style="stop-color:#3D4E61"/>
											</linearGradient>
											<path style="fill-rule:evenodd;clip-rule:evenodd;fill:url(#SVGID_14_);" d="M46.5,46.65
												c0.567,0.467,0.817,1.283,0.75,2.45c-0.067,0.933-0.283,1.85-0.65,2.75c-0.833,2.467-1.934,4.217-3.3,5.25
												c0-0.333,0.083-1.067,0.25-2.2c0.2-1.2,0.3-2.083,0.3-2.65C44.05,49.817,44.933,47.95,46.5,46.65z"/>
											<path style="fill-rule:evenodd;clip-rule:evenodd;fill:#D1DEEF;" d="M43.2,57.15c-0.633-0.4-1.017-1.183-1.15-2.35
												c-0.133-0.966-0.083-1.95,0.15-2.95c0.367-1.167,0.933-2.217,1.7-3.15c0.767-0.967,1.633-1.65,2.6-2.05
												c-0.633,0.533-1.117,1.267-1.45,2.2c-0.2,0.6-0.4,1.483-0.6,2.65C44.15,53.867,43.733,55.75,43.2,57.15z"/>
										</g>
									</g>
								</g>
							</g>
						</g>
					</g>
				</g>
			</g>
			<g>
				<g>
					<g>
						<linearGradient id="SVGID_15_" gradientUnits="userSpaceOnUse" x1="118.6953" y1="31.2007" x2="121.9203" y2="59.4757">
							<stop  offset="0" style="stop-color:#26313D"/>
							<stop  offset="0.2196" style="stop-color:#3E4C5E"/>
							<stop  offset="0.702" style="stop-color:#7A90B1"/>
							<stop  offset="1" style="stop-color:#A2BCE7"/>
						</linearGradient>
						<path style="fill-rule:evenodd;clip-rule:evenodd;fill:url(#SVGID_15_);" d="M120.15,36.95
							c1.833,0.267,3.483,0.883,4.949,1.85c1,0.733,1.834,1.583,2.5,2.55c0.867,1.3,1.25,2.55,1.15,3.75
							c1.767,0.667,3.283,1.767,4.55,3.3c0.867,1.1,1.467,2.317,1.8,3.65c0.434,1.7,0.25,3.133-0.55,4.3
							c-0.399,0.6-0.983,0.933-1.75,1h-0.2l-0.55-0.05l-0.649-0.2c-0.4,0.867-0.967,1.517-1.7,1.95
							c-0.334,0.233-0.684,0.35-1.05,0.35c-0.267,0.033-0.567,0-0.9-0.1l-0.25-0.1l-0.45-0.25c-1.7-1.267-3.066-3.35-4.1-6.25
							c-0.233-0.567-0.417-1.217-0.55-1.95l-0.25-0.05c-2.034-0.733-3.95-2.333-5.75-4.8l-0.95-1.5l-0.101,0.05L114.9,44.4
							c-2.067-0.333-4.25-1.533-6.551-3.6c-0.933-0.8-1.699-1.683-2.3-2.65c-1.033-1.7-1.25-3.25-0.649-4.65v-0.05
							c0.3-0.667,0.816-1.1,1.55-1.3c1.2-0.566,2.566-0.85,4.1-0.85c1.566,0,3.05,0.284,4.45,0.85c1,0.467,1.9,1.067,2.7,1.8
							C119.233,34.917,119.884,35.917,120.15,36.95z"/>
						
							<path style="fill-rule:evenodd;clip-rule:evenodd;fill:none;stroke:#D1DEEF;stroke-width:0.25;stroke-linejoin:round;stroke-miterlimit:3;" d="
							M120.15,36.95c1.833,0.267,3.483,0.883,4.949,1.85c1,0.733,1.834,1.583,2.5,2.55c0.867,1.3,1.25,2.55,1.15,3.75
							c1.767,0.667,3.283,1.767,4.55,3.3c0.867,1.1,1.467,2.317,1.8,3.65c0.434,1.7,0.25,3.133-0.55,4.3
							c-0.399,0.6-0.983,0.933-1.75,1h-0.2l-0.55-0.05l-0.649-0.2c-0.4,0.867-0.967,1.517-1.7,1.95
							c-0.334,0.233-0.684,0.35-1.05,0.35c-0.267,0.033-0.567,0-0.9-0.1l-0.25-0.1l-0.45-0.25c-1.7-1.267-3.066-3.35-4.1-6.25
							c-0.233-0.567-0.417-1.217-0.55-1.95l-0.25-0.05c-2.034-0.733-3.95-2.333-5.75-4.8l-0.95-1.5l-0.101,0.05L114.9,44.4
							c-2.067-0.333-4.25-1.533-6.551-3.6c-0.933-0.8-1.699-1.683-2.3-2.65c-1.033-1.7-1.25-3.25-0.649-4.65v-0.05
							c0.3-0.667,0.816-1.1,1.55-1.3c1.2-0.566,2.566-0.85,4.1-0.85c1.566,0,3.05,0.284,4.45,0.85c1,0.467,1.9,1.067,2.7,1.8
							C119.233,34.917,119.884,35.917,120.15,36.95z"/>
					</g>
				</g>
				<path style="fill-rule:evenodd;clip-rule:evenodd;fill:#111838;" d="M106.85,34.15c0.134-0.3,0.334-0.45,0.601-0.45h0.05
					c0.967-0.534,2.134-0.8,3.5-0.8c1.333-0.033,2.6,0.2,3.8,0.7c1.033,0.467,1.917,1.083,2.65,1.85c0.967,0.966,1.399,1.966,1.3,3
					c2.013,0.009,3.813,0.559,5.4,1.65c0.899,0.633,1.633,1.4,2.199,2.3c0.767,1.167,1,2.233,0.7,3.2
					c-0.033,0.2-0.166,0.35-0.399,0.45h-0.2c2.133,0.333,4,1.434,5.6,3.3c0.667,0.9,1.15,1.85,1.45,2.85
					c0.4,1.367,0.316,2.45-0.25,3.25c-0.134,0.2-0.316,0.3-0.55,0.3h-0.3c-0.767-0.2-1.434-0.5-2-0.9
					c-0.167,1.4-0.684,2.367-1.551,2.9l-0.3,0.1l-0.3-0.05l-0.05-0.05l-0.2-0.1c-1.4-1-2.6-2.85-3.6-5.55
					c-0.434-1.233-0.65-2.35-0.65-3.35L123.5,49c-0.1,0.167-0.25,0.25-0.45,0.25h-0.2L122.7,49.2c-1.566-0.567-3.25-1.983-5.05-4.25
					c-0.733-1.034-1.25-1.983-1.551-2.85l-0.199,0.4c-0.134,0.2-0.301,0.317-0.5,0.35h-0.25c-1.867-0.3-3.784-1.383-5.75-3.25
					c-0.867-0.733-1.567-1.55-2.101-2.45C106.634,35.983,106.483,34.983,106.85,34.15z"/>
				<g>
					<g>
						<g>
							<g>
								<g>
									<g>
										<g>
											<linearGradient id="SVGID_16_" gradientUnits="userSpaceOnUse" x1="114.9238" y1="35.4077" x2="110.8488" y2="37.3327">
												<stop  offset="0" style="stop-color:#709DFE"/>
												<stop  offset="0.2471" style="stop-color:#6388D4"/>
												<stop  offset="0.7647" style="stop-color:#485E82"/>
												<stop  offset="1" style="stop-color:#3D4E61"/>
											</linearGradient>
											<path style="fill-rule:evenodd;clip-rule:evenodd;fill:url(#SVGID_16_);" d="M107.8,34.35
												c2.033-0.4,4.05,0.083,6.05,1.45c0.434,0.333,1.167,0.8,2.2,1.4c1,0.6,1.634,1,1.9,1.2c-1.634,0.4-3.684,0.167-6.15-0.7
												c-0.967-0.333-1.816-0.75-2.55-1.25C108.283,35.75,107.8,35.05,107.8,34.35z"/>
											<path style="fill-rule:evenodd;clip-rule:evenodd;fill:#D1DEEF;" d="M118.05,38.35c-1.533-0.533-3.25-1.4-5.149-2.6
												c-1.2-0.633-2.034-1.017-2.5-1.15c-0.934-0.367-1.801-0.467-2.601-0.3c0.9-0.5,1.983-0.75,3.25-0.75
												c1.2,0,2.351,0.233,3.45,0.7c0.934,0.433,1.75,1,2.45,1.7C117.75,36.783,118.116,37.583,118.05,38.35z"/>
										</g>
										<g>
											<linearGradient id="SVGID_17_" gradientUnits="userSpaceOnUse" x1="114.9736" y1="39.686" x2="107.6486" y2="36.861">
												<stop  offset="0" style="stop-color:#709DFE"/>
												<stop  offset="0.2471" style="stop-color:#6388D4"/>
												<stop  offset="0.7647" style="stop-color:#485E82"/>
												<stop  offset="1" style="stop-color:#3D4E61"/>
											</linearGradient>
											<path style="fill-rule:evenodd;clip-rule:evenodd;fill:url(#SVGID_17_);" d="M107.5,34.4c1.967,0.4,3.616,1.633,4.95,3.7
												c0.267,0.5,0.767,1.233,1.5,2.2c0.7,0.934,1.133,1.55,1.3,1.85c-1.667-0.267-3.467-1.3-5.4-3.1
												c-0.767-0.633-1.383-1.35-1.85-2.15C107.366,35.9,107.2,35.067,107.5,34.4z"/>
											<path style="fill-rule:evenodd;clip-rule:evenodd;fill:#D1DEEF;" d="M115.3,42.15c-1-0.933-2.233-2.417-3.7-4.45
												c-0.833-1-1.433-1.667-1.8-2c-0.733-0.7-1.5-1.133-2.3-1.3c1.033-0.1,2.116,0.1,3.25,0.6c1.134,0.467,2.116,1.133,2.95,2
												c0.7,0.767,1.217,1.6,1.55,2.5C115.684,40.6,115.7,41.483,115.3,42.15z"/>
										</g>
									</g>
								</g>
							</g>
						</g>
					</g>
					<g>
						<g>
							<g>
								<g>
									<g>
										<g>
											<linearGradient id="SVGID_18_" gradientUnits="userSpaceOnUse" x1="124.752" y1="42.2642" x2="118.652" y2="42.5892">
												<stop  offset="0" style="stop-color:#709DFE"/>
												<stop  offset="0.2471" style="stop-color:#6388D4"/>
												<stop  offset="0.7647" style="stop-color:#485E82"/>
												<stop  offset="1" style="stop-color:#3D4E61"/>
											</linearGradient>
											<path style="fill-rule:evenodd;clip-rule:evenodd;fill:url(#SVGID_18_);" d="M117.15,39.45c2.1,0,3.983,0.867,5.649,2.6
												c0.367,0.434,1,1.05,1.9,1.85c0.866,0.733,1.399,1.233,1.6,1.5c-1.733,0.1-3.7-0.533-5.899-1.9
												c-0.867-0.5-1.617-1.067-2.25-1.7C117.316,40.933,116.983,40.15,117.15,39.45z"/>
											<path style="fill-rule:evenodd;clip-rule:evenodd;fill:#D1DEEF;" d="M126.4,45.35c-1.233-0.7-2.75-1.883-4.551-3.55
												c-0.933-0.767-1.666-1.3-2.199-1.6c-0.834-0.5-1.667-0.767-2.5-0.8c1-0.3,2.1-0.333,3.3-0.1
												c1.2,0.233,2.3,0.684,3.3,1.35c0.833,0.6,1.517,1.317,2.05,2.15C126.434,43.8,126.634,44.65,126.4,45.35z"/>
										</g>
										<g>
											<linearGradient id="SVGID_19_" gradientUnits="userSpaceOnUse" x1="123.0537" y1="47.1328" x2="116.4037" y2="40.8078">
												<stop  offset="0" style="stop-color:#709DFE"/>
												<stop  offset="0.2471" style="stop-color:#6388D4"/>
												<stop  offset="0.7647" style="stop-color:#485E82"/>
												<stop  offset="1" style="stop-color:#3D4E61"/>
											</linearGradient>
											<path style="fill-rule:evenodd;clip-rule:evenodd;fill:url(#SVGID_19_);" d="M116.85,39.45
												c1.867,0.833,3.25,2.367,4.15,4.6c0.167,0.567,0.517,1.383,1.05,2.45c0.467,1.067,0.75,1.75,0.851,2.05
												c-1.534-0.566-3.101-1.917-4.7-4.05c-0.634-0.8-1.101-1.633-1.4-2.5C116.4,40.867,116.417,40.017,116.85,39.45z"/>
											<path style="fill-rule:evenodd;clip-rule:evenodd;fill:#D1DEEF;" d="M123,48.55c-0.9-1.2-1.833-2.883-2.8-5.05
												c-0.533-1.067-0.983-1.85-1.351-2.35c-0.566-0.8-1.233-1.367-2-1.7c1.034,0.1,2.067,0.5,3.101,1.2
												c1,0.7,1.833,1.55,2.5,2.55c0.533,0.867,0.883,1.783,1.05,2.75C123.667,47.117,123.5,47.983,123,48.55z"/>
										</g>
									</g>
								</g>
							</g>
						</g>
					</g>
					<g>
						<g>
							<g>
								<g>
									<g>
										<g>
											<linearGradient id="SVGID_20_" gradientUnits="userSpaceOnUse" x1="132.6113" y1="53.0176" x2="125.3113" y2="48.7426">
												<stop  offset="0" style="stop-color:#709DFE"/>
												<stop  offset="0.2471" style="stop-color:#6388D4"/>
												<stop  offset="0.7647" style="stop-color:#485E82"/>
												<stop  offset="1" style="stop-color:#3D4E61"/>
											</linearGradient>
											<path style="fill-rule:evenodd;clip-rule:evenodd;fill:url(#SVGID_20_);" d="M125.5,46.75
												c1.934,0.533,3.483,1.883,4.65,4.05c0.466,1,1.283,2.417,2.449,4.25c-1.633-0.4-3.35-1.566-5.149-3.5
												c-0.7-0.7-1.25-1.466-1.65-2.3C125.267,48.217,125.167,47.383,125.5,46.75z"/>
											<path style="fill-rule:evenodd;clip-rule:evenodd;fill:#D1DEEF;" d="M132.65,55.05c-1.067-1.133-2.184-2.7-3.351-4.7
												c-0.7-1.033-1.233-1.767-1.6-2.2c-0.7-0.733-1.434-1.217-2.2-1.45c1.033,0,2.1,0.283,3.2,0.85
												c1.1,0.567,2.033,1.317,2.8,2.25c0.634,0.833,1.083,1.717,1.35,2.65C133.15,53.583,133.083,54.45,132.65,55.05z"/>
										</g>
										<g>
											<linearGradient id="SVGID_21_" gradientUnits="userSpaceOnUse" x1="127.627" y1="57.0044" x2="125.252" y2="46.7794">
												<stop  offset="0" style="stop-color:#709DFE"/>
												<stop  offset="0.2471" style="stop-color:#6388D4"/>
												<stop  offset="0.7647" style="stop-color:#485E82"/>
												<stop  offset="1" style="stop-color:#3D4E61"/>
											</linearGradient>
											<path style="fill-rule:evenodd;clip-rule:evenodd;fill:url(#SVGID_21_);" d="M125.2,46.65
												c1.566,1.3,2.45,3.167,2.649,5.6c0.034,0.567,0.134,1.45,0.301,2.65c0.166,1.133,0.25,1.867,0.25,2.2
												c-1.367-1.033-2.467-2.783-3.301-5.25c-0.366-0.9-0.583-1.817-0.649-2.75C124.384,47.933,124.634,47.117,125.2,46.65z"/>
											<path style="fill-rule:evenodd;clip-rule:evenodd;fill:#D1DEEF;" d="M128.5,57.15c-0.434-1.133-0.85-3.017-1.25-5.65
												c-0.2-1.167-0.4-2.05-0.6-2.65c-0.334-0.934-0.817-1.667-1.45-2.2c0.967,0.4,1.833,1.083,2.6,2.05
												c0.767,0.933,1.334,1.983,1.7,3.15c0.233,1,0.3,1.983,0.2,2.95C129.533,55.967,129.134,56.75,128.5,57.15z"/>
										</g>
									</g>
								</g>
							</g>
						</g>
					</g>
				</g>
			</g>
		</g>
		
			<use xlink:href="#FlashAICB_x2F_Layer_1_x2F__x3C_Group_x3E_"  width="119.2" height="66.417" y="-66.417" transform="matrix(1 0 0 -1 26.25 22.25)" style="overflow:visible;opacity:0.8086;enable-background:new    ;"/>
	</g>
</g>
</svg>
