<?xml version="1.0" encoding="iso-8859-1"?>
<!-- Generator: Adobe Illustrator 15.1.0, SVG Export Plug-In . SVG Version: 6.00 Build 0)  -->
<!DOCTYPE svg PUBLIC "-//W3C//DTD SVG 1.1//EN" "http://www.w3.org/Graphics/SVG/1.1/DTD/svg11.dtd">
<svg version="1.1" id="Layer_36_copy_8" xmlns="http://www.w3.org/2000/svg" xmlns:xlink="http://www.w3.org/1999/xlink" x="0px"
	 y="0px" width="171.55px" height="171.55px" viewBox="0 0 171.55 171.55" style="enable-background:new 0 0 171.55 171.55;"
	 xml:space="preserve">
<symbol  id="FlashAICB_x2F_Layer_36_copy_8_x2F__x3C_Path_x3E_" viewBox="0 -118.65 118.85 118.65">
	<g id="Layer_1_2_">
		
			<radialGradient id="SVGID_1_" cx="59.4248" cy="-59.3252" r="59.375" gradientTransform="matrix(1 0 0 -1 0 -118.6504)" gradientUnits="userSpaceOnUse">
			<stop  offset="0" style="stop-color:#F6BD8E"/>
			<stop  offset="0.0196" style="stop-color:#F5BA8C"/>
			<stop  offset="0.2471" style="stop-color:#ED9B78"/>
			<stop  offset="0.4431" style="stop-color:#E9886B"/>
			<stop  offset="0.5843" style="stop-color:#E78267"/>
			<stop  offset="0.5882" style="stop-color:#E68066;stop-opacity:0.9922"/>
			<stop  offset="0.6745" style="stop-color:#DA6858;stop-opacity:0.902"/>
			<stop  offset="0.7686" style="stop-color:#D1564E;stop-opacity:0.8392"/>
			<stop  offset="0.8706" style="stop-color:#CC4B48;stop-opacity:0.8"/>
			<stop  offset="1" style="stop-color:#CA4846;stop-opacity:0.7882"/>
		</radialGradient>
		<path style="fill-rule:evenodd;clip-rule:evenodd;fill:url(#SVGID_1_);" d="M118.85-59.3c0-16.4-5.8-30.4-17.4-42
			c-11.6-11.567-25.617-17.35-42.05-17.35c-16.4,0-30.4,5.783-42,17.35C5.8-89.7,0-75.7,0-59.3c0,16.367,5.8,30.35,17.4,41.95
			C29-5.783,43,0,59.4,0c16.434,0,30.45-5.783,42.05-17.35C113.05-28.95,118.85-42.933,118.85-59.3z"/>
	</g>
</symbol>
<symbol  id="FlashAICB_x2F_Layer_36_copy_8_x2F__x3C_Path_x3E__x5F_0" viewBox="-0.029 -49.8 29.611 49.8">
	<g id="Layer_1_3_">
		<path style="fill-rule:evenodd;clip-rule:evenodd;fill:#40200C;" d="M23.4-21.1c1.2,0.1,2.3-0.25,3.3-1.05
			c2.333-1.833,3.25-4.833,2.75-9c-0.267-2.1-0.8-4.117-1.6-6.05c-0.167-0.4-0.467-0.566-0.9-0.5c-0.467,0.1-0.7,0.367-0.7,0.8
			c0,1.2-0.133,2.5-0.4,3.9c-0.367,1.867-0.9,3.3-1.6,4.3c-1.533-3.233-2.517-6.017-2.95-8.35c-0.1-0.7-0.383-1.55-0.85-2.55
			c-0.9-1.933-2.167-3.767-3.8-5.5c-1.867-2-3.8-3.367-5.8-4.1L9.8-49.55l-1.2-0.2L6.85-49.8L6.7-49.75l-0.75,0.1
			c-0.367,0.066-0.633,0.133-0.8,0.2H5L4.4-49.2H4.3l-0.6,0.3l-0.15,0.05L3.1-48.6l-0.15,0.05l-0.2,0.15
			c-1,1.767-1.567,4.217-1.7,7.35c-0.1,2.933,0.184,5.733,0.85,8.4c0.2,0.9,0.8,2.517,1.8,4.85l0.45,1.05
			c0.333,1.7,0.533,2.767,0.6,3.2L4.85-23c-0.267,0.133-0.5,0.2-0.7,0.2c-0.8,0-1.65-0.383-2.55-1.15
			C1.367-24.117,1.167-24.2,1-24.2c-0.367,0-0.65,0.15-0.85,0.45c-0.167,0.233-0.217,0.5-0.15,0.8c0.1,0.333,0.35,0.983,0.75,1.95
			c0.533,1.167,1.233,2.1,2.1,2.8c0.9,0.667,1.883,1.034,2.95,1.1c1.333,0.233,2.684-0.35,4.05-1.75l6.8,11.6L22.45,0
			c0.633-3.567,1.05-7.167,1.25-10.8c0.2-3.833,0.117-7.133-0.25-9.9L23.4-21.1z"/>
	</g>
</symbol>
<symbol  id="FlashAICB_x2F_Layer_36_copy_8_x2F__x3C_Path_x3E__x5F_1" viewBox="0 -55.75 110 55.75">
	<g id="Layer_1_5_">
		
			<linearGradient id="SVGID_2_" gradientUnits="userSpaceOnUse" x1="16165.3574" y1="-53.8555" x2="16221.1328" y2="-53.8555" gradientTransform="matrix(1.792918e-005 1 -1 -0.001 0.8545 -16221.1064)">
			<stop  offset="0.1294" style="stop-color:#E2B8B2"/>
			<stop  offset="0.9255" style="stop-color:#FFFFFF"/>
		</linearGradient>
		<path style="fill-rule:evenodd;clip-rule:evenodd;fill:url(#SVGID_2_);" d="M96-17.95c4.467-4.933,7.967-10.4,10.5-16.4
			c2.333-5.633,3.5-10.933,3.5-15.9c0-1.767-0.167-3.25-0.5-4.45c-1.833,11.034-7.217,20.85-16.15,29.45
			C82.783-15.117,70-10.05,55-10.05c-15.233,0-28.067-5.05-38.5-15.15c-9-8.733-14.35-18.917-16.05-30.55
			C0.15-54.55,0-53.133,0-51.5c0,5.5,1.167,11.167,3.5,17c2.467,6.167,5.95,11.733,10.45,16.7C24.65-5.933,38.333,0,55,0
			C71.467,0,85.133-5.983,96-17.95z"/>
	</g>
</symbol>
<symbol  id="FlashAICB_x2F_Layer_36_copy_8_x2F__x3C_Path_x3E__x5F_2" viewBox="0 -57.1 118.7 57.1">
	<g id="Layer_1_4_">
		
			<radialGradient id="SVGID_3_" cx="59.3501" cy="-28.5498" r="46.5701" gradientTransform="matrix(1 0 0 -1 0 -57.0996)" gradientUnits="userSpaceOnUse">
			<stop  offset="0" style="stop-color:#000000;stop-opacity:0"/>
			<stop  offset="0.651" style="stop-color:#000000;stop-opacity:0.4"/>
		</radialGradient>
		<path style="fill-rule:evenodd;clip-rule:evenodd;fill:url(#SVGID_3_);" d="M95.5-30.35c10.733,7.7,18.283,17.733,22.65,30.1
			L118.7,0c-0.6-15.9-6.633-29.383-18.1-40.45C89.067-51.55,75.3-57.1,59.3-57.1c-15.7,0-29.267,5.367-40.7,16.1
			C7.2-30.3,1-17.183,0-1.65c4.6-12,12.183-21.7,22.75-29.1C33.55-38.317,45.567-42.1,58.8-42.1
			C72.333-42.1,84.567-38.183,95.5-30.35z"/>
	</g>
</symbol>
<symbol  id="FlashAICB_x2F_Layer_36_copy_8_x2F__x3C_Path_x3E__x5F_3" viewBox="0 -61.294 110 61.294">
	<g id="Layer_1_6_">
		<path style="fill-rule:evenodd;clip-rule:evenodd;fill:#FFFFFF;" d="M106.5-34.35c2.333-5.633,3.5-10.933,3.5-15.9
			s-1.433-8.083-4.3-9.35c-2.367-1.066-6.3-1.066-11.8,0c-7.267,1.767-13.1,3.117-17.5,4.05C68.4-53.85,61.267-53,55-53
			c-6.333,0-13.467-0.917-21.4-2.75c-8.333-2.2-14.167-3.683-17.5-4.45c-5.533-1.267-9.467-1.433-11.8-0.5
			C1.433-59.5,0-56.433,0-51.5c0,5.5,1.167,11.167,3.5,17c2.467,6.167,5.95,11.733,10.45,16.7C24.65-5.933,38.333,0,55,0
			c16.467,0,30.133-5.983,41-17.95C100.467-22.883,103.967-28.35,106.5-34.35z"/>
	</g>
</symbol>
<g>
	<path style="fill-rule:evenodd;clip-rule:evenodd;fill:#68757B;" d="M85.75,0c11.6,0,22.717,2.25,33.35,6.75
		c10.268,4.333,19.367,10.467,27.301,18.4c7.933,7.934,14.066,17.017,18.399,27.25c4.5,10.633,6.75,21.75,6.75,33.35
		c0,11.633-2.25,22.75-6.75,33.35c-4.333,10.268-10.467,19.367-18.399,27.301c-7.934,7.934-17.033,14.066-27.301,18.4
		c-10.6,4.5-21.717,6.75-33.35,6.75c-11.6,0-22.717-2.25-33.35-6.75c-10.233-4.334-19.317-10.467-27.25-18.4
		S11.083,129.367,6.75,119.1C2.25,108.467,0,97.35,0,85.75c0-11.6,2.25-22.717,6.75-33.35c4.333-10.233,10.467-19.316,18.4-27.25
		c7.933-7.933,17.017-14.066,27.25-18.4C63.033,2.25,74.15,0,85.75,0z"/>
	
		<linearGradient id="SVGID_4_" gradientUnits="userSpaceOnUse" x1="-171.6362" y1="85.7754" x2="-0.0854" y2="85.7754" gradientTransform="matrix(5.830904e-006 -1 1 -0.001 -9.214067e-005 4.449275e-004)">
		<stop  offset="0.0039" style="stop-color:#4F1D1F"/>
		<stop  offset="0.2078" style="stop-color:#7D5F3C"/>
		<stop  offset="0.5569" style="stop-color:#B09A68"/>
		<stop  offset="0.7412" style="stop-color:#EEEDCF"/>
		<stop  offset="0.7922" style="stop-color:#E7E1AD"/>
		<stop  offset="1" style="stop-color:#B9A57A"/>
	</linearGradient>
	<path style="fill-rule:evenodd;clip-rule:evenodd;fill:url(#SVGID_4_);" d="M85.75,0c11.6,0,22.717,2.25,33.35,6.75
		c10.268,4.333,19.367,10.467,27.301,18.4c7.933,7.934,14.066,17.017,18.399,27.25c4.5,10.633,6.75,21.75,6.75,33.35
		c0,11.633-2.25,22.75-6.75,33.35c-4.333,10.268-10.467,19.367-18.399,27.301c-7.934,7.934-17.033,14.066-27.301,18.4
		c-10.6,4.5-21.717,6.75-33.35,6.75c-11.6,0-22.717-2.25-33.35-6.75c-10.233-4.334-19.317-10.467-27.25-18.4
		S11.083,129.367,6.75,119.1C2.25,108.467,0,97.35,0,85.75c0-11.6,2.25-22.717,6.75-33.35c4.333-10.233,10.467-19.316,18.4-27.25
		c7.933-7.933,17.017-14.066,27.25-18.4C63.033,2.25,74.15,0,85.75,0z"/>
	<g>
		<g>
			
				<linearGradient id="SVGID_5_" gradientUnits="userSpaceOnUse" x1="-158.2856" y1="85.7759" x2="-13.4355" y2="85.7759" gradientTransform="matrix(6.906077e-006 -1 1 -0.001 -1.647736e-004 4.449275e-004)">
				<stop  offset="0.0431" style="stop-color:#BAA270"/>
				<stop  offset="1" style="stop-color:#73624A"/>
			</linearGradient>
			<path style="fill-rule:evenodd;clip-rule:evenodd;fill:url(#SVGID_5_);" d="M136.95,34.55c6.7,6.667,11.883,14.333,15.55,23
				c3.8,8.966,5.7,18.367,5.7,28.2c0,9.834-1.9,19.233-5.7,28.2c-3.667,8.667-8.85,16.351-15.55,23.05
				c-6.667,6.667-14.333,11.834-23,15.5c-8.967,3.801-18.367,5.7-28.2,5.7c-9.833,0-19.233-1.899-28.2-5.7
				c-8.667-3.666-16.333-8.833-23-15.5c-6.667-6.699-11.833-14.383-15.5-23.05c-3.8-8.967-5.7-18.366-5.7-28.2
				c0-9.833,1.9-19.233,5.7-28.2c3.667-8.667,8.833-16.333,15.5-23c6.667-6.667,14.333-11.833,23-15.5
				c8.967-3.8,18.367-5.7,28.2-5.7C105.75,13.35,122.816,20.417,136.95,34.55z"/>
		</g>
	</g>
</g>
<g>
	<path style="fill-rule:evenodd;clip-rule:evenodd;fill:#FFFFFF;" d="M86.6,107.9c-0.066-0.1-0.05-0.2,0.051-0.301
		c0.1-0.033,0.166,0,0.199,0.101c0.033,0.267,0.033,0.399,0,0.399C86.783,108.1,86.7,108.033,86.6,107.9z"/>
	<g>
		
			<linearGradient id="SVGID_6_" gradientUnits="userSpaceOnUse" x1="-152.0356" y1="85.7759" x2="-19.6855" y2="85.7759" gradientTransform="matrix(7.555724e-006 -1 1 -0.001 2.190953e-004 4.449275e-004)">
			<stop  offset="0.0353" style="stop-color:#722F2A"/>
			<stop  offset="0.5843" style="stop-color:#E76267"/>
			<stop  offset="1" style="stop-color:#DCB574"/>
		</linearGradient>
		<path style="fill-rule:evenodd;clip-rule:evenodd;fill:url(#SVGID_6_);" d="M132.55,39c12.934,12.934,19.4,28.517,19.4,46.75
			c0,18.267-6.467,33.867-19.4,46.801c-12.933,12.933-28.533,19.399-46.8,19.399c-18.233,0-33.816-6.467-46.75-19.399
			c-12.934-12.967-19.4-28.567-19.4-46.801S26.066,51.934,39,39c12.934-12.933,28.517-19.4,46.75-19.4
			C104.017,19.6,119.617,26.067,132.55,39z"/>
		<path style="fill-rule:evenodd;clip-rule:evenodd;fill:#470B17;" d="M131.95,39.55c-12.733-12.767-28.134-19.15-46.2-19.15
			c-18.033,0-33.434,6.383-46.2,19.15C26.783,52.317,20.4,67.717,20.4,85.75c0,18.066,6.383,33.467,19.15,46.2
			c12.767,12.767,28.167,19.149,46.2,19.149c18.066,0,33.467-6.383,46.2-19.149c12.767-12.733,19.149-28.134,19.149-46.2
			C151.1,67.717,144.717,52.317,131.95,39.55z M111.4,23.85c8.166,3.367,15.416,8.217,21.75,14.55
			c6.333,6.333,11.183,13.567,14.55,21.7c3.366,8.133,5.05,16.683,5.05,25.65s-1.684,17.517-5.05,25.65
			c-3.367,8.166-8.217,15.416-14.55,21.75c-6.334,6.333-13.584,11.184-21.75,14.55c-8.134,3.366-16.684,5.05-25.65,5.05
			s-17.517-1.684-25.65-5.05s-15.367-8.217-21.7-14.55c-6.333-6.334-11.183-13.584-14.55-21.75c-3.4-8.167-5.1-16.717-5.1-25.65
			c0-8.933,1.7-17.483,5.1-25.65c3.367-8.133,8.216-15.367,14.55-21.7c6.333-6.333,13.567-11.183,21.7-14.55
			c8.167-3.4,16.716-5.1,25.65-5.1S103.233,20.45,111.4,23.85z"/>
	</g>
	
		<use xlink:href="#FlashAICB_x2F_Layer_36_copy_8_x2F__x3C_Path_x3E_"  width="118.85" height="118.65" y="-118.65" transform="matrix(1 0 0 -1 26.3501 24.2998)" style="overflow:visible;opacity:0.9102;enable-background:new    ;"/>
</g>
<g>
	<path style="fill-rule:evenodd;clip-rule:evenodd;fill:#E0DBF7;" d="M113.65,65.05c1.967,0.667,3.316,1.917,4.05,3.75
		c0.667,1.667,0.717,3.383,0.149,5.15c-0.399,1.167-1.166,2.017-2.3,2.55L115,77.3c-0.434,0.566-0.95,0.966-1.55,1.2
		c-0.467,1.934-1.101,3.55-1.9,4.85c0.167,4.333-0.333,9.6-1.5,15.8c-1.167,6.166-2.683,11.566-4.55,16.199
		c0.667,0.567,1.233,1.201,1.7,1.9c2.433,3.633,2.583,8.017,0.45,13.15c-1.2,2.8-2.768,5.316-4.7,7.55
		c-0.867,1.033-1.983,1.55-3.351,1.55c-0.767,0-1.482-0.184-2.149-0.55c-1-0.533-1.684-1.366-2.05-2.5c-0.533,0.733-1,1.3-1.4,1.7
		c-1.967,2.133-4.316,3.949-7.05,5.449c-3.134,1.701-6.134,2.617-9,2.75c-0.2,0.033-0.467,0.051-0.8,0.051
		c-0.4,0-0.7-0.018-0.9-0.051L74.8,146.2l-1.6-0.351c-0.567-0.166-0.983-0.316-1.25-0.449l-0.25-0.1
		c-0.467-0.168-0.817-0.334-1.05-0.5l-2.05-1.351l-1-0.05l-2.2-0.4l-0.1-0.05l-0.9-0.3l-0.1-0.051l-0.9-0.35l-0.1-0.1l-0.1-0.051
		c-0.1-0.033-0.284-0.133-0.55-0.299l-0.15-0.051l-2.35-1.8c-1.833-1.434-3.367-3.733-4.6-6.899c-1.133-2.9-1.8-5.834-2-8.801
		c-0.066-0.733-0.033-1.949,0.1-3.65c-1,0-1.9-0.316-2.7-0.949c-0.833-0.7-1.35-1.584-1.55-2.65c-0.1-0.633-0.083-1.583,0.05-2.85
		c0.167-1.733,0.716-3.25,1.65-4.551c0.933-1.299,2.117-2.232,3.55-2.799c0.8-0.367,1.633-0.551,2.5-0.551L58,102.1l1.2-4.299
		l0.05-0.25l2.35-6.301l3.6-7.55l0.05-0.05c1.6-2.966,3.3-5.466,5.1-7.5L70.3,75.5l0.15-0.9c0.4-2.167,1.1-3.85,2.1-5.05
		c-0.333-0.833-0.4-1.65-0.2-2.45c0.3-1.2,0.983-2.083,2.05-2.65l0.95-0.4c1.267-0.434,2.55-0.317,3.85,0.35
		c0.6-0.2,1.233-0.3,1.9-0.3c1.966,0.033,3.55,0.767,4.75,2.2c1.067,1.3,1.584,2.816,1.551,4.55c0,1.2-0.417,2.183-1.25,2.95
		l-0.2,0.8C85.717,75.167,85.4,75.633,85,76c0.1,1.733,0,3.2-0.3,4.4c0.5,1.267,0.95,2.75,1.35,4.45l4.101-4.15
		c2.967-2.8,5.717-4.934,8.25-6.4l0.199-0.85l0.45-0.9c1.2-2.233,2.55-3.784,4.05-4.65c-0.1-0.966,0.117-1.883,0.65-2.75
		c0.6-1.033,1.517-1.683,2.75-1.95c0.6-0.1,0.967-0.15,1.1-0.15c1.5,0,2.783,0.566,3.851,1.7
		C112.217,64.75,112.95,64.85,113.65,65.05z"/>
	
		<linearGradient id="SVGID_7_" gradientUnits="userSpaceOnUse" x1="-145.478" y1="83.79" x2="-62.207" y2="83.79" gradientTransform="matrix(1.200480e-005 -1 1 -0.001 1.600842e-004 -4.842016e-005)">
		<stop  offset="0.2824" style="stop-color:#AA3A49"/>
		<stop  offset="0.2863" style="stop-color:#AB3B49"/>
		<stop  offset="0.702" style="stop-color:#D78F62"/>
		<stop  offset="0.8941" style="stop-color:#E9B06C"/>
	</linearGradient>
	<path style="fill-rule:evenodd;clip-rule:evenodd;fill:url(#SVGID_7_);" d="M113.65,64.1c1.967,0.667,3.316,1.917,4.05,3.75
		c0.667,1.633,0.717,3.333,0.149,5.1c-0.399,1.2-1.166,2.066-2.3,2.6l-0.55,0.8c-0.367,0.467-0.883,0.867-1.55,1.2
		c-0.5,1.966-1.134,3.583-1.9,4.85c0.167,4.333-0.333,9.6-1.5,15.8c-1.167,6.167-2.683,11.566-4.55,16.2
		c0.667,0.566,1.233,1.199,1.7,1.9c2.433,3.633,2.583,8.016,0.45,13.149c-1.2,2.8-2.768,5.316-4.7,7.55c-0.9,1-2.017,1.5-3.351,1.5
		c-0.8,0-1.517-0.166-2.149-0.5c-0.967-0.533-1.65-1.367-2.05-2.5l-1.4,1.7c-1.967,2.134-4.316,3.95-7.05,5.45
		c-3.134,1.699-6.134,2.616-9,2.75h-1.7l-1.45-0.2h-0.25c-0.6-0.134-1.05-0.25-1.35-0.351l-1.25-0.399l-1.3-0.601l-2.05-1.35
		l-1-0.05L65.4,142h-0.1l-0.9-0.3l-1.2-0.55l-1.5-0.9L61,139.7l-0.15-0.101l-0.7-0.649c-1.833-1.434-3.367-3.733-4.6-6.899
		c-1.133-2.867-1.8-5.784-2-8.75c-0.066-0.734-0.033-1.967,0.1-3.701c-1.033,0-1.933-0.299-2.7-0.899
		c-0.833-0.7-1.35-1.583-1.55-2.649c-0.1-0.634-0.083-1.584,0.05-2.851c0.167-1.733,0.716-3.25,1.65-4.55
		c0.933-1.301,2.117-2.233,3.55-2.801c0.733-0.333,1.567-0.533,2.5-0.6l2.1-8.65l2.25-6.1l2.7-5.95l0.05-0.05l0.95-1.75l0.05-0.05
		c1.7-3.1,3.4-5.6,5.1-7.5l-0.05-0.65l0.15-0.95c0.4-2.133,1.1-3.8,2.1-5c-0.333-0.867-0.4-1.683-0.2-2.45
		c0.3-1.2,0.983-2.083,2.05-2.65c0.3-0.2,0.617-0.35,0.95-0.45c1.333-0.4,2.617-0.267,3.85,0.4c0.733-0.233,1.366-0.333,1.9-0.3
		c1.966,0.034,3.55,0.767,4.75,2.2c1.067,1.3,1.584,2.817,1.551,4.55c0,1.2-0.417,2.184-1.25,2.95l-0.2,0.75
		c-0.267,0.6-0.583,1.083-0.95,1.45c0.1,1.7,0,3.167-0.3,4.4c0.5,1.267,0.95,2.75,1.35,4.45l2.351-2.45l0.1-0.15l1.65-1.55
		c3.1-2.933,5.85-5.066,8.25-6.4L98.6,72.5l0.45-0.9c1.2-2.233,2.55-3.8,4.05-4.7c-0.1-0.933,0.117-1.833,0.65-2.7
		c0.633-1.067,1.55-1.733,2.75-2l1.1-0.1c1.533,0,2.817,0.567,3.851,1.7C112.217,63.767,112.95,63.867,113.65,64.1z"/>
	<path style="fill-rule:evenodd;clip-rule:evenodd;fill:none;stroke:#F6DFE6;stroke-width:0.25;" d="M113.65,64.1
		c-0.7-0.233-1.434-0.333-2.2-0.3c-1.033-1.133-2.317-1.7-3.851-1.7l-1.1,0.1c-1.2,0.267-2.117,0.933-2.75,2
		c-0.533,0.867-0.75,1.767-0.65,2.7c-1.5,0.9-2.85,2.467-4.05,4.7l-0.45,0.9L98.4,73.35c-2.4,1.333-5.15,3.467-8.25,6.4L88.5,81.3
		l-0.1,0.15L86.05,83.9c-0.399-1.7-0.85-3.183-1.35-4.45c0.3-1.233,0.399-2.7,0.3-4.4c0.367-0.367,0.684-0.85,0.95-1.45l0.2-0.75
		c0.833-0.767,1.25-1.75,1.25-2.95c0.033-1.733-0.483-3.25-1.551-4.55c-1.2-1.433-2.783-2.167-4.75-2.2
		c-0.534-0.033-1.167,0.067-1.9,0.3c-1.233-0.667-2.517-0.8-3.85-0.4c-0.333,0.1-0.65,0.25-0.95,0.45
		c-1.067,0.567-1.75,1.45-2.05,2.65c-0.2,0.767-0.133,1.583,0.2,2.45c-1,1.2-1.7,2.867-2.1,5l-0.15,0.95l0.05,0.65
		c-1.7,1.9-3.4,4.4-5.1,7.5l-0.05,0.05l-0.95,1.75l-0.05,0.05l-2.7,5.95l-2.25,6.1l-2.1,8.65c-0.933,0.066-1.767,0.267-2.5,0.6
		c-1.433,0.567-2.617,1.5-3.55,2.801c-0.934,1.3-1.483,2.816-1.65,4.55c-0.134,1.267-0.15,2.217-0.05,2.851
		c0.2,1.066,0.717,1.949,1.55,2.649c0.767,0.601,1.667,0.899,2.7,0.899c-0.133,1.734-0.167,2.967-0.1,3.701
		c0.2,2.966,0.867,5.883,2,8.75c1.233,3.166,2.767,5.466,4.6,6.899l0.7,0.649L61,139.7l0.7,0.55l1.5,0.9l1.2,0.55l0.9,0.3h0.1
		l2.2,0.45l1,0.05l2.05,1.35l1.3,0.601l1.25,0.399c0.3,0.101,0.75,0.217,1.35,0.351h0.25l1.45,0.2h1.7
		c2.866-0.134,5.866-1.051,9-2.75c2.733-1.5,5.083-3.316,7.05-5.45l1.4-1.7c0.399,1.133,1.083,1.967,2.05,2.5
		c0.633,0.334,1.35,0.5,2.149,0.5c1.334,0,2.45-0.5,3.351-1.5c1.933-2.233,3.5-4.75,4.7-7.55c2.133-5.134,1.982-9.517-0.45-13.149
		c-0.467-0.701-1.033-1.334-1.7-1.9c1.867-4.634,3.383-10.033,4.55-16.2c1.167-6.2,1.667-11.467,1.5-15.8
		c0.767-1.267,1.4-2.883,1.9-4.85c0.667-0.333,1.183-0.733,1.55-1.2l0.55-0.8c1.134-0.534,1.9-1.4,2.3-2.6
		c0.567-1.767,0.518-3.467-0.149-5.1C116.967,66.017,115.617,64.767,113.65,64.1z"/>
	<path style="fill-rule:evenodd;clip-rule:evenodd;fill:#31074F;" d="M112.55,67.3c1.101,0.367,1.8,1.1,2.101,2.2
		c0.199,0.8,0.166,1.617-0.101,2.45c-0.2,0.467-0.517,0.667-0.95,0.6c-0.433,0-0.717-0.233-0.85-0.7c-0.2-0.867-0.483-1.3-0.85-1.3
		l-0.45,0.2l-0.601,0.55c0.167,0.1,0.334,0.25,0.5,0.45l1,1.3c0.301,0.333,0.301,0.716,0,1.15c-0.333,0.4-0.717,0.483-1.149,0.25
		c-0.333-0.067-0.667-0.067-1,0c0.2,0.533,0.183,1.25-0.05,2.15c-0.533,2.2-1.233,3.783-2.101,4.75c0.367,4.367-0.133,10-1.5,16.9
		c-1.366,7-3.116,12.75-5.25,17.25l-0.2,0.4c1.367,0.3,2.45,1.05,3.25,2.25c1.9,2.8,1.834,6.35-0.199,10.65
		c-1.033,2.199-2.317,4.199-3.851,6c-0.366,0.433-0.75,0.5-1.149,0.199c-0.467-0.233-0.617-0.583-0.45-1.05
		c0.433-1.366,0.733-2.817,0.899-4.351c0.268-2.166,0.184-3.883-0.25-5.149c-2.732,2.899-4.75,5.566-6.05,8
		c-0.533,0.899-1.149,1.717-1.85,2.45c-1.667,1.8-3.684,3.366-6.05,4.699c-2.7,1.5-5.25,2.301-7.65,2.4l-0.6,0.051l-1.75-0.15
		l-2.2-0.6l-0.15-0.101l-1.6-0.8l-0.1-0.1l-0.6-0.451l-0.1-0.049l-0.8-0.75L68.1,139.1l-0.15-0.049l-0.75-0.101
		c-0.367-0.067-0.634-0.134-0.8-0.2h-0.15l-0.6-0.25h-0.1l-0.6-0.3l-0.15-0.05l-0.45-0.25l-0.15-0.051l-1.8-1.449
		c-1.4-1.066-2.633-2.967-3.7-5.7c-0.967-2.533-1.534-5.083-1.7-7.649c-0.066-0.801,0-2.317,0.2-4.551l0.05-1l-0.3-2.85l-0.1-0.5
		c-0.233-0.066-0.45-0.051-0.65,0.05c-0.733,0.2-1.35,0.75-1.85,1.649c-0.067,0.101-0.2,0.217-0.4,0.351
		c-0.3,0.101-0.583,0.05-0.85-0.149c-0.2-0.168-0.317-0.384-0.35-0.65c-0.033-0.334,0-0.95,0.1-1.85
		c0.267-2.4,1.316-3.934,3.15-4.601c1.133-0.567,2.45-0.434,3.95,0.399c0.2-1.399,0.533-3.266,1-5.6l1.6-6.199l2.1-5.75l0.15-0.25
		l3.4-7.201l0.05-0.05c3.267-5.9,6.017-9,8.25-9.3c0-0.467-0.05-1.1-0.15-1.9c-0.5,0.533-0.8,1.017-0.9,1.45L75.4,74.8
		c0,0.3-0.183,0.517-0.55,0.65l-0.3,0.05c-0.533-0.066-0.8-0.35-0.8-0.85l0.05-0.4c0.434-2.3,1.167-3.683,2.2-4.15
		c0.367-0.167,0.7-0.217,1-0.15c-0.066-0.467-0.167-0.817-0.3-1.05l-0.9-1.35c-0.1-0.233-0.133-0.45-0.1-0.65
		c0.133-0.267,0.267-0.433,0.4-0.5l0.25-0.1c0.433-0.133,0.883-0.067,1.35,0.2c0.466,0.3,0.816,0.8,1.05,1.5
		c0.6-1,1.367-1.5,2.3-1.5c1.033,0.033,1.817,0.467,2.35,1.3c0.4,0.633,0.583,1.333,0.55,2.1c0,0.467-0.2,0.717-0.6,0.75
		c-0.4,0.1-0.717-0.017-0.95-0.35c-0.133-0.233-0.3-0.45-0.5-0.65c-0.233-0.167-0.4-0.233-0.5-0.2c-0.1,0-0.216,0.1-0.35,0.3
		l-0.4,0.55l0.6,0.25l1.2,0.85c0.366,0.233,0.466,0.55,0.3,0.95c-0.167,0.433-0.467,0.617-0.9,0.55L81,73.15
		c0.333,0.434,0.517,1.05,0.55,1.85c0.167,2.033,0,3.533-0.5,4.5c1.233,3,2.233,7,3,12l0.5-0.65l0.3-0.299l7.7-8.401
		c5.601-5.233,9.634-7.633,12.101-7.2c0.3-0.867,0.482-1.567,0.55-2.1c-0.634,0.333-1.134,0.75-1.5,1.25l-0.101,0.25
		c-0.133,0.333-0.416,0.5-0.85,0.5l-0.35-0.05c-0.533-0.2-0.717-0.6-0.551-1.2l0.2-0.4c1.233-2.333,2.5-3.567,3.8-3.7
		c0.434-0.033,0.817,0.017,1.15,0.15c0.1-0.466,0.1-0.883,0-1.25l-0.45-1.75c-0.033-0.233,0-0.466,0.101-0.7
		c0.133-0.167,0.35-0.317,0.649-0.45h0.3c0.533,0,0.983,0.217,1.351,0.65c0.399,0.467,0.6,1.133,0.6,2
		C110.55,67.25,111.55,66.967,112.55,67.3z"/>
	<g>
		<path style="fill-rule:evenodd;clip-rule:evenodd;fill:#F4E65B;" d="M80.4,69.25c-0.9,1.133-1.483,2.85-1.75,5.15l0.95-0.9
			c0.667-0.333,1.033,0.184,1.1,1.55c0.167,2.167,0.017,3.583-0.45,4.25c0.1-0.767,0.133-1.5,0.1-2.2
			c-0.067-1.4-0.417-1.867-1.05-1.4c-0.967,0.733-1.616,2.283-1.95,4.65l-0.1-3.45c0.066-1,0.083-1.95,0.05-2.85
			c-0.133-1.8-0.517-2.417-1.15-1.85c-0.772,0.673-1.256,1.306-1.45,1.9c0.072-0.351,0.172-0.718,0.3-1.1
			c0.367-1.167,0.816-1.883,1.35-2.15c0.533-0.233,1-0.067,1.4,0.5c0.2,0.3,0.35,0.617,0.45,0.95c0.133-0.833,0.333-1.667,0.6-2.5
			c0.6-1.667,1.333-2.483,2.2-2.45c0.9,0.033,1.533,0.45,1.9,1.25c0.167,0.433,0.25,0.85,0.25,1.25c-0.233-0.4-0.533-0.717-0.9-0.95
			C81.55,68.4,80.934,68.517,80.4,69.25z"/>
		<path style="fill-rule:evenodd;clip-rule:evenodd;fill:#FEFBD5;" d="M77.25,67.2c0.533,0.367,0.867,1.316,1,2.85l0.4,3.65
			c0.167-0.533,0.367-1.05,0.6-1.55c0.5-0.966,1-1.267,1.5-0.9l1.2,0.85c-0.2-0.033-0.45-0.017-0.75,0.05
			c-0.6,0.167-1.117,0.534-1.55,1.1L78.6,74.6l0.45,1c0.3,0.8,0.434,1.633,0.4,2.5l-0.2,2.55c0-0.867-0.05-1.683-0.15-2.45
			c-0.167-1.567-0.483-2.15-0.95-1.75c-0.7,0.633-0.8,0.15-0.3-1.45c0.066-1.6,0.1-2.8,0.1-3.6c0-1.4-0.184-2.383-0.55-2.95
			l-0.85-1.35L77.25,67.2z"/>
		<path style="fill-rule:evenodd;clip-rule:evenodd;fill:#167304;" d="M59.3,109.95c1.367,0.667,2.384,1.816,3.05,3.45
			c-0.9,5.866-1.5,8.916-1.8,9.15c-0.233,0.199-0.5,0.1-0.8-0.301s-0.566-1.1-0.8-2.1c-0.733-4.533-1.184-7.167-1.35-7.9
			c-0.1-0.434-0.35-0.85-0.75-1.25l-0.55-0.5c-0.2,0-0.35-0.05-0.45-0.15c-0.2-0.133-0.034-0.35,0.5-0.649
			C57.117,109.301,58.1,109.383,59.3,109.95z"/>
		<path style="fill-rule:evenodd;clip-rule:evenodd;fill:#F4E229;" d="M76.75,75.8c2.333-0.133,4.316,4.117,5.95,12.75
			c1.566,8.266,1.95,15.383,1.15,21.35c-1.133,8.732-3.05,15.633-5.75,20.699c-3,5.567-6.5,7.917-10.5,7.051
			c-8.067-1.801-10-13.051-5.8-33.75c1.233-6.301,3.55-12.566,6.95-18.8C72.05,79.033,74.717,75.934,76.75,75.8z"/>
		<path style="fill-rule:evenodd;clip-rule:evenodd;fill:#E2AF16;" d="M74.2,77.3l-0.1,0.75l-1.55,1.65
			c-0.733,0.7-1.05,1.617-0.95,2.75l-0.8,0.7c-0.633,0.633-1.183,1.35-1.65,2.15c-0.767,1.266-1.25,2.633-1.45,4.1L66,91.9
			c-0.7,1-1.1,2.366-1.2,4.1l-1.55,3.15c-0.7,1.434-0.816,3.033-0.35,4.8l-0.45,1.7c-0.333,1.133-0.534,2.783-0.6,4.949L61,113.25
			c-0.233,0.834-0.083,1.85,0.45,3.051c0.267,0.566,0.55,1.066,0.85,1.5l-0.85,1c-0.4,0.466-0.567,1.416-0.5,2.85
			c0.1,1.199,0.333,2.5,0.7,3.9c0.367,1.299,1.167,2.216,2.4,2.75c1.333,0.566,2.55,0.316,3.65-0.75
			c0.966-0.967,1.65-2.168,2.05-3.601l0.3-1.851c0.533-0.1,1.117-0.333,1.75-0.699c1.3-0.7,2.217-1.667,2.75-2.9
			s0.65-2.583,0.35-4.05l-0.55-1.851c0.2,0.067,0.45-0.033,0.75-0.299c0.566-0.534,1.083-1.684,1.55-3.451
			c0.467-1.766,0.534-3.299,0.2-4.6l-0.65-1.4c0.267,0.101,0.55,0.084,0.85-0.049c0.6-0.334,1-1.168,1.2-2.5
			c0.2-1.367,0.066-2.734-0.4-4.101l-0.8-1.7c0.233-0.033,0.483-0.199,0.75-0.5c0.533-0.6,0.917-1.533,1.15-2.8
			c0.267-1.233,0.116-2.366-0.45-3.399L77.55,86.6c0.733-0.333,1.217-1.2,1.45-2.6c0.133-0.867-0.066-1.7-0.6-2.5l-0.8-0.95
			c0.167,0.066,0.283,0.017,0.35-0.15c0.2-0.267,0.15-0.883-0.15-1.85c-0.366-1.2-0.833-2.083-1.4-2.65l0.35-0.1
			c2.333-0.133,4.316,4.117,5.95,12.75c1.566,8.266,1.95,15.383,1.15,21.35c-1.133,8.732-3.05,15.633-5.75,20.699
			c-3,5.567-6.5,7.917-10.5,7.051c-8.067-1.801-10-13.051-5.8-33.75c1-5.066,2.8-10.301,5.4-15.7
			C69.633,83.067,71.967,79.434,74.2,77.3z"/>
		<path style="fill-rule:evenodd;clip-rule:evenodd;fill:#219A07;" d="M58.3,114.15c-1-1.033-2.066-1.134-3.2-0.301
			c-0.6,0.434-1.083,0.951-1.45,1.551c0.4-1.7,0.767-2.85,1.1-3.45c0.9-1.634,1.55-2.217,1.95-1.75
			C57.066,110.667,57.6,111.983,58.3,114.15z"/>
		<path style="fill-rule:evenodd;clip-rule:evenodd;fill:#38B30B;" d="M58.2,114.625l0.55,3.225c0.533,3.101,1.033,5.617,1.5,7.551
			c0.5,2,1.45,4,2.85,6c0.933,1.333,1.75,2.3,2.45,2.9c0.4,0.366,0.983,0.799,1.75,1.299l-0.45,0.65c-0.534,0.367-1.434,0.4-2.7,0.1
			c-1.5-0.333-2.9-1.933-4.2-4.799C58.717,128.85,58,126,57.8,123c-0.033-0.699,0.067-2.4,0.3-5.1
			C58.21,116.428,58.243,115.336,58.2,114.625z"/>
		<path style="fill-rule:evenodd;clip-rule:evenodd;fill:#85E113;" d="M57.75,114.551c-0.233-1.701-0.617-2.768-1.15-3.201
			c-0.434-0.366-0.833-0.283-1.2,0.25c-0.567,0.768-1.15,2.033-1.75,3.801c-0.1,0.066-0.083-0.533,0.05-1.801
			c0.2-2.033,1.083-3.333,2.65-3.899c0.733-0.267,1.383,0.649,1.95,2.75c0.467,1.866,0.917,4.833,1.35,8.899
			c0.367,3.367,1.317,6.184,2.85,8.451c0.867,1.266,2.283,2.716,4.25,4.35L66.3,135c-0.233,0.066-0.583-0.05-1.05-0.35
			c-0.967-0.6-2.05-1.783-3.25-3.551c-1.633-2.366-2.717-5.149-3.25-8.35C58.35,119.084,58.017,116.35,57.75,114.551z"/>
		<path style="fill-rule:evenodd;clip-rule:evenodd;fill:#38B30B;" d="M70.85,138.051c-2.2,0.533-4.25,0.232-6.15-0.9l-2.15-1.801
			l2.2-0.25c1.767-0.533,3.4-1.633,4.9-3.299c2.467-2.734,4.733-6.317,6.8-10.75c1.767-3.834,3.15-6.084,4.15-6.75
			c1.367-0.967,2.65-1.034,3.85-0.201c0.6,0.4,1.05,0.9,1.35,1.5l-1.7,3.451c-1.2,2.699-1.983,5.082-2.35,7.149
			c-0.4,2.066-1.633,4.351-3.7,6.851C75.717,135.783,73.316,137.45,70.85,138.051z"/>
		<path style="fill-rule:evenodd;clip-rule:evenodd;fill:#219A07;" d="M80.15,114.65c1.267-0.4,2.433-0.717,3.5-0.95
			c0.933,0.3,1.65,0.933,2.15,1.899l-1.7,3.451c-1.2,2.699-1.983,5.082-2.35,7.149c-0.4,2.066-1.633,4.351-3.7,6.851
			c-2.333,2.732-4.733,4.399-7.2,5c-2.8,0.666-5.267,0.066-7.4-1.801l-0.9-0.9l1.3,0.851c1.1,0.601,2.333,1,3.7,1.2
			c1.267,0.166,2.4,0.033,3.4-0.4c1.833-0.867,3.866-2.767,6.1-5.699c1.4-1.9,2.467-3.851,3.2-5.851c0.767-2.167,1-3.934,0.7-5.3
			c-0.333-1.334-0.967-1.768-1.9-1.301c-0.8,0.4-1.75,1.417-2.85,3.051l0.7-2.4C78.167,117,79.25,115.383,80.15,114.65z"/>
		<path style="fill-rule:evenodd;clip-rule:evenodd;fill:#219A07;" d="M87.45,112.051c2.133,1.699,2.933,4.566,2.399,8.6
			c-0.3,2.033-0.8,3.883-1.5,5.55c0.134-1,0.134-2.149,0-3.45c-0.267-2.6-1-4.617-2.199-6.05c-1.467-1.667-3.317-2.134-5.55-1.399
			l-2.95,1.6c0.867-1.4,1.933-2.65,3.2-3.75C83.35,110.95,85.55,110.584,87.45,112.051z"/>
		<path style="fill-rule:evenodd;clip-rule:evenodd;fill:#85E113;" d="M87.6,118.45c0.834,2.2,1.084,4.783,0.75,7.75
			c0-1.533-0.183-3.116-0.55-4.75c-0.767-3.233-2.083-5.083-3.95-5.55c-1.333-0.301-2.3-0.35-2.9-0.15
			c-0.934,0.301-1.917,1.184-2.95,2.65c-0.566,0.8-1.333,2.5-2.3,5.1c-0.867,2.367-2.067,4.5-3.6,6.4
			c-2.2,2.767-4.45,4.5-6.75,5.199l-2.8,0.25l2.55-0.799c2.033-0.9,3.816-2.367,5.35-4.4c1.933-2.5,3.667-5.684,5.2-9.551
			c1.133-2.833,2.45-4.683,3.95-5.549c1.6-0.967,3.2-1.067,4.8-0.301C85.867,115.483,86.934,116.717,87.6,118.45z"/>
		<path style="fill-rule:evenodd;clip-rule:evenodd;fill:#FDF79A;" d="M64,119c1-0.199,1.867,0.084,2.6,0.85
			c0.633,0.701,0.9,1.5,0.8,2.4c-0.133,0.934-0.583,1.667-1.35,2.2c-0.833,0.566-1.7,0.55-2.6-0.05c-0.934-0.566-1.3-1.566-1.1-3
			C62.55,120,63.1,119.2,64,119z"/>
		<path style="fill-rule:evenodd;clip-rule:evenodd;fill:#FDF79A;" d="M64.65,111.801c0.833-0.134,1.667,0.133,2.5,0.799
			c0.8,0.667,1.133,1.351,1,2.051c-0.1,0.732-0.567,1.283-1.4,1.65c-0.867,0.399-1.7,0.35-2.5-0.15c-0.833-0.5-1.133-1.316-0.9-2.45
			C63.517,112.566,63.95,111.934,64.65,111.801z"/>
		<path style="fill-rule:evenodd;clip-rule:evenodd;fill:#FDF79A;" d="M68.15,104.6c1,0.268,1.583,0.684,1.75,1.25
			c0.167,0.634-0.033,1.301-0.6,2c-0.667,0.9-1.667,1.417-3,1.551c-1.4,0.133-2.183-0.4-2.35-1.6c-0.134-1.168,0.267-2.084,1.2-2.75
			C66.05,104.45,67.05,104.301,68.15,104.6z"/>
		<path style="fill-rule:evenodd;clip-rule:evenodd;fill:#FDF79A;" d="M68.95,97.551c0.933,0.433,1.267,1.116,1,2.049
			c-0.267,0.867-0.784,1.434-1.55,1.701c-0.6,0.166-1.45,0.183-2.55,0.049c-0.934-0.1-1.35-0.616-1.25-1.549
			c0.066-0.9,0.517-1.567,1.35-2C67.017,97.233,68.017,97.15,68.95,97.551z"/>
		<path style="fill-rule:evenodd;clip-rule:evenodd;fill:#FDF79A;" d="M68.25,91.551c0.967-0.467,1.7-0.518,2.2-0.15
			c0.4,0.3,0.533,0.8,0.4,1.5c-0.3,1.166-1.3,1.699-3,1.6c-0.767-0.033-1.05-0.449-0.85-1.25
			C67.167,92.483,67.583,91.917,68.25,91.551z"/>
		<path style="fill-rule:evenodd;clip-rule:evenodd;fill:#FDF79A;" d="M70.2,86.35c1.333-0.433,1.866-0.083,1.6,1.051
			c-0.267,1.133-0.933,1.717-2,1.75c-0.933,0.033-1.267-0.384-1-1.25C69.033,87.1,69.5,86.584,70.2,86.35z"/>
		<path style="fill-rule:evenodd;clip-rule:evenodd;fill:#FDF79A;" d="M72.7,82.6c0.4-0.1,0.683,0.067,0.85,0.5
			c0.167,0.467-0.066,0.833-0.7,1.1c-0.667,0.233-1.017,0.066-1.05-0.5C71.8,83.133,72.1,82.767,72.7,82.6z"/>
		<path style="fill-rule:evenodd;clip-rule:evenodd;fill:#FDF79A;" d="M74.5,78.75c0.434-0.433,0.667-0.267,0.7,0.5
			c0.033,0.733-0.25,1.383-0.85,1.95c-0.667,0.6-0.967,0.483-0.9-0.35C73.55,80.05,73.9,79.35,74.5,78.75z"/>
		<path style="fill-rule:evenodd;clip-rule:evenodd;fill:#FCF155;" d="M75.9,82.5c0.433,0,0.784,0.233,1.05,0.7
			c0.267,0.433,0.366,0.867,0.3,1.3c-0.167,0.733-0.733,0.833-1.7,0.3c-0.5-0.3-0.717-0.75-0.65-1.35
			C75,82.85,75.333,82.533,75.9,82.5z"/>
		<path style="fill-rule:evenodd;clip-rule:evenodd;fill:#FCF155;" d="M75.25,87.85c0.6,0.101,1.05,0.584,1.35,1.451
			c0.267,0.766,0.35,1.6,0.25,2.5c-0.067,0.832-0.55,1.283-1.45,1.35c-0.966,0.066-1.767-0.35-2.4-1.25c-0.6-0.9-0.6-1.85,0-2.85
			C73.6,88.084,74.35,87.684,75.25,87.85z"/>
		<path style="fill-rule:evenodd;clip-rule:evenodd;fill:#FCF155;" d="M72.25,97.35c0.867-1.066,1.833-1.25,2.9-0.549
			c0.867,0.6,1.367,1.316,1.5,2.149c0.133,0.7,0.017,1.283-0.35,1.75c-0.467,0.566-1.15,0.767-2.05,0.601
			c-0.9-0.168-1.566-0.768-2-1.801C71.85,98.533,71.85,97.816,72.25,97.35z"/>
		<path style="fill-rule:evenodd;clip-rule:evenodd;fill:#FCF155;" d="M72.35,105.25c0.8-0.199,1.566,0.117,2.3,0.95
			c0.733,0.8,0.967,1.566,0.7,2.3c-0.5,1.533-1.417,2.017-2.75,1.45c-0.7-0.3-1.034-1.134-1-2.5
			C71.6,106.117,71.85,105.383,72.35,105.25z"/>
		<path style="fill-rule:evenodd;clip-rule:evenodd;fill:#FCF155;" d="M71.55,113.75c0.533-0.033,1.1,0.367,1.7,1.2
			c0.566,0.8,0.816,1.45,0.75,1.95c-0.1,0.666-0.4,1.25-0.9,1.75c-0.633,0.6-1.284,0.633-1.95,0.1c-0.767-0.6-1.067-1.583-0.9-2.949
			C70.383,114.467,70.816,113.783,71.55,113.75z"/>
		<path style="fill-rule:evenodd;clip-rule:evenodd;fill:#F4E229;" d="M80.3,87.65l0.6,0.199c0.4,0.301,0.633,0.967,0.7,2
			c0.033,1-0.2,1.717-0.7,2.15c-0.233,0.2-0.483,0.301-0.75,0.301C80.117,92,80.2,91.483,80.4,90.75c0.133-0.467,0.15-1.133,0.05-2
			L80.3,87.65z"/>
		<path style="fill-rule:evenodd;clip-rule:evenodd;fill:#F4E229;" d="M80.15,96.551c0.4-0.367,0.867-0.051,1.4,0.949
			c0.6,1.066,0.7,2.2,0.3,3.4c-0.367,1.133-0.85,1.616-1.45,1.449l-0.85-0.549l0.45-1.75c0.2-0.734,0.283-1.534,0.25-2.4
			L80.15,96.551z"/>
		<path style="fill-rule:evenodd;clip-rule:evenodd;fill:#F4E229;" d="M79.7,105.551l0.75,0.949c0.366,0.867,0.25,1.867-0.35,3
			c-0.567,1.133-1.133,1.7-1.7,1.7l-0.7-0.351l0.55-1.049c0.233-0.434,0.55-1.268,0.95-2.5L79.7,105.551z"/>
		<path style="fill-rule:evenodd;clip-rule:evenodd;fill:#F4E229;" d="M82.55,108.051c0.1,1.232-0.066,2.149-0.5,2.75
			c-0.4,0.533-0.6,0.299-0.6-0.701s0.133-1.85,0.4-2.549C82.217,106.617,82.45,106.783,82.55,108.051z"/>
		<path style="fill-rule:evenodd;clip-rule:evenodd;fill:#F4E229;" d="M82.6,101.1c0.2-0.833,0.417-0.916,0.65-0.25
			c0.2,0.634,0.167,1.25-0.1,1.851c-0.267,0.566-0.466,0.601-0.6,0.101C82.417,102.334,82.434,101.767,82.6,101.1z"/>
		<path style="fill-rule:evenodd;clip-rule:evenodd;fill:#F4E229;" d="M82.05,91.7c0.167-0.467,0.317-0.467,0.45,0
			c0.167,0.467,0.167,0.833,0,1.101C82.367,93.033,82.233,93,82.1,92.7S81.95,92.066,82.05,91.7z"/>
		<path style="fill-rule:evenodd;clip-rule:evenodd;fill:#F4E229;" d="M80.2,81.6c0.566,0.7,0.733,1.5,0.5,2.4
			c-0.3,1.267-0.45,1.417-0.45,0.45c0-0.167-0.083-0.833-0.25-2C79.9,81.617,79.967,81.333,80.2,81.6z"/>
		<path style="fill-rule:evenodd;clip-rule:evenodd;fill:#F4E229;" d="M78.85,77.9c0.233,0.067,0.367,0.367,0.4,0.9
			c0.066,0.533-0.017,0.816-0.25,0.85c-0.233,0.067-0.367-0.233-0.4-0.9C78.533,78.117,78.617,77.833,78.85,77.9z"/>
	</g>
	
		<use xlink:href="#FlashAICB_x2F_Layer_36_copy_8_x2F__x3C_Path_x3E__x5F_0"  width="29.611" height="49.8" x="-0.029" y="-49.8" transform="matrix(1 0 0 -1 61.25 89.2998)" style="overflow:visible;opacity:0.2617;enable-background:new    ;"/>
	<g>
		<path style="fill-rule:evenodd;clip-rule:evenodd;fill:#F4E65B;" d="M110.9,70c-1.367,0.967-2.601,2.633-3.7,5l1.35-0.65
			c0.833-0.1,1.067,0.583,0.7,2.05c-0.6,2.367-1.267,3.833-2,4.4c0.367-0.8,0.65-1.583,0.85-2.35c0.4-1.5,0.2-2.1-0.6-1.8
			c-0.833,0.3-1.7,1.117-2.6,2.45c-0.467,0.667-0.851,1.3-1.15,1.9l1.1-3.75c0.434-1.066,0.783-2.1,1.051-3.1
			c0.5-1.966,0.3-2.767-0.601-2.4c-0.899,0.4-1.6,0.883-2.1,1.45c-0.103,0.132-0.187,0.257-0.25,0.375
			c0.224-0.444,0.49-0.886,0.8-1.325c0.8-1.133,1.533-1.75,2.2-1.85c0.7-0.066,1.149,0.284,1.35,1.05
			c0.134,0.367,0.184,0.75,0.15,1.15c0.433-0.867,0.95-1.7,1.55-2.5c1.2-1.6,2.283-2.233,3.25-1.9c0.967,0.3,1.483,0.967,1.55,2
			c0.067,0.533,0.017,1.017-0.149,1.45c-0.101-0.5-0.301-0.95-0.601-1.35C112.483,69.533,111.767,69.434,110.9,70z"/>
		<path style="fill-rule:evenodd;clip-rule:evenodd;fill:#FEFBD5;" d="M108.7,74.1l-1.601,1.1l0.15,1.2
			c0.066,1-0.083,1.95-0.45,2.85L105.7,82c0.3-0.933,0.533-1.833,0.7-2.7c0.366-1.767,0.232-2.517-0.4-2.25
			c-1,0.433-0.95-0.117,0.15-1.65c0.633-1.733,1.083-3.017,1.35-3.85c0.5-1.5,0.65-2.617,0.45-3.35l-0.45-1.75l0.75,0.3
			c0.434,0.567,0.467,1.7,0.1,3.4l-0.899,4.1c0.366-0.533,0.767-1.017,1.2-1.45c0.899-0.867,1.55-1.034,1.949-0.5l1,1.3
			c-0.199-0.1-0.482-0.15-0.85-0.15C110.05,73.417,109.367,73.633,108.7,74.1z"/>
		<path style="fill-rule:evenodd;clip-rule:evenodd;fill:#167304;" d="M70.9,107.15l-0.45-0.7c-0.2-0.067-0.333-0.167-0.4-0.3
			c-0.167-0.233,0.083-0.417,0.75-0.551c0.967-0.199,2,0.217,3.1,1.25c1.233,1.201,1.917,2.783,2.05,4.75
			c-3.034,6.067-4.75,9.167-5.15,9.301c-0.3,0.1-0.533-0.1-0.7-0.6c-0.167-0.567-0.2-1.418-0.1-2.551
			c0.066-0.934,0.283-2.583,0.65-4.949c0.367-2.4,0.567-3.734,0.6-4C71.283,108.267,71.167,107.717,70.9,107.15z"/>
		<path style="fill-rule:evenodd;clip-rule:evenodd;fill:#F4E229;" d="M104.65,75.9c2.566,0.633,3.232,5.883,2,15.75
			c-1.2,9.434-3.268,17.25-6.2,23.449c-4.3,9.067-8.8,15.867-13.5,20.4c-5.167,5-9.75,6.35-13.75,4.051
			c-8.067-4.601-6.233-17.4,5.5-38.4c3.566-6.367,8.267-12.35,14.1-17.95C98.5,77.767,102.45,75.333,104.65,75.9z"/>
		<path style="fill-rule:evenodd;clip-rule:evenodd;fill:#E2AF16;" d="M96.8,81.3l-1.1,0.55c-0.9,0.467-1.75,1.05-2.55,1.75
			c-1.301,1.1-2.301,2.417-3,3.951l-2.7,2.1c-1.134,0.8-2.033,2.133-2.7,4l-2.8,2.9c-0.8,0.799-1.384,1.883-1.75,3.25
			c-0.167,0.699-0.267,1.299-0.3,1.799l-1.15,1.701c-0.733,1.1-1.517,2.816-2.35,5.149L74.55,111c-0.566,0.801-0.767,1.934-0.6,3.4
			c0.1,0.732,0.25,1.383,0.45,1.949l-1.3,0.801c-0.6,0.333-1.1,1.3-1.5,2.9c-0.333,1.366-0.534,2.85-0.6,4.449
			c-0.066,1.533,0.483,2.801,1.65,3.801c1.233,1.033,2.633,1.166,4.2,0.399c1.367-0.7,2.517-1.75,3.45-3.149l0.95-1.951l2.15-0.149
			c1.633-0.333,2.95-1.067,3.95-2.2c1-1.166,1.617-2.583,1.851-4.25v-2.15c0.2,0.134,0.5,0.101,0.899-0.1
			c0.834-0.4,1.817-1.467,2.95-3.199c1.134-1.734,1.733-3.367,1.8-4.9l-0.25-1.75l0.95,0.199c0.767-0.133,1.5-0.899,2.2-2.299
			c0.7-1.367,1.017-2.884,0.95-4.551l-0.25-2.05c0.267,0.033,0.583-0.067,0.95-0.3c0.8-0.467,1.55-1.334,2.25-2.6
			c0.699-1.268,0.933-2.567,0.699-3.9l-0.55-1.6c0.9-0.101,1.7-0.867,2.4-2.301c0.467-0.9,0.55-1.867,0.25-2.9l-0.55-1.3
			c0.133,0.1,0.283,0.1,0.449,0c0.301-0.267,0.467-0.967,0.5-2.1c0.033-1.333-0.166-2.45-0.6-3.35l0.4,0.05
			c2.566,0.633,3.232,5.883,2,15.75c-1.2,9.434-3.268,17.25-6.2,23.449c-4.3,9.067-8.8,15.867-13.5,20.4
			c-5.167,5-9.75,6.35-13.75,4.051c-8.067-4.601-6.233-17.4,5.5-38.4C81.566,95.983,85.35,90.934,90.05,86
			c4.434-4.7,8.233-7.816,11.4-9.35c-0.2,0.267-0.351,0.517-0.45,0.75c-0.4,0.367-1.133,0.8-2.2,1.3c-0.667,0.3-1.2,0.816-1.6,1.55
			C97,80.65,96.867,81,96.8,81.3z"/>
		<path style="fill-rule:evenodd;clip-rule:evenodd;fill:#219A07;" d="M70.95,106.25c0.267,0.633,0.383,2.233,0.35,4.801
			c-0.7-1.434-1.8-1.9-3.3-1.4l-2.1,1.199c1-1.732,1.8-2.866,2.4-3.399C69.833,106.017,70.717,105.617,70.95,106.25z"/>
		<path style="fill-rule:evenodd;clip-rule:evenodd;fill:#38B30B;" d="M69.5,123.9c-0.167,2.3,0.167,4.767,1,7.4
			c0.533,1.732,1.066,3.049,1.6,3.949c0.3,0.533,0.8,1.2,1.5,2c-0.1,0.267-0.333,0.45-0.7,0.551c-0.733,0.232-1.733-0.034-3-0.801
			c-1.5-0.833-2.45-3.017-2.85-6.55c-0.366-3.366-0.15-6.7,0.65-10c0.2-0.8,0.883-2.601,2.05-5.399
			c0.674-1.597,1.116-2.788,1.325-3.576L70.5,115.2C70,118.733,69.667,121.633,69.5,123.9z"/>
		<path style="fill-rule:evenodd;clip-rule:evenodd;fill:#85E113;" d="M70.5,107.45c-0.333-0.533-0.8-0.583-1.4-0.149
			c-0.867,0.633-1.95,1.816-3.25,3.549c-0.133,0.033,0.1-0.616,0.7-1.949c1-2.134,2.417-3.233,4.25-3.301
			c0.867-0.033,1.233,1.184,1.1,3.65c-0.1,2.133-0.633,5.483-1.6,10.051c-0.8,3.732-0.767,7.082,0.1,10.049
			c0.467,1.667,1.483,3.717,3.05,6.15l-0.75,0.75c-0.267,0-0.617-0.233-1.05-0.699c-0.8-0.967-1.55-2.617-2.25-4.951
			c-0.933-3.066-1.133-6.433-0.6-10.1c0.867-4.1,1.467-7.166,1.8-9.199C70.934,109.4,70.9,108.117,70.5,107.45z"/>
		<path style="fill-rule:evenodd;clip-rule:evenodd;fill:#38B30B;" d="M95.35,118.75c1.834-0.566,3.25-0.217,4.25,1.051
			c0.467,0.666,0.768,1.366,0.9,2.1l-3,3.15c-2.233,2.533-3.917,4.85-5.05,6.949c-1.134,2.133-3.267,4.184-6.4,6.15
			c-3.467,2.166-6.633,3.15-9.5,2.949c-2.566-0.166-4.683-1.166-6.35-3l-1.7-2.75l2.5,0.451c2.1,0.066,4.25-0.551,6.45-1.851
			c3.6-2.101,7.283-5.2,11.05-9.3C91.767,121.117,94.05,119.15,95.35,118.75z"/>
		<path style="fill-rule:evenodd;clip-rule:evenodd;fill:#219A07;" d="M91.15,130.65c1.566-2.033,2.416-3.85,2.55-5.45
			c0.133-1.567-0.4-2.25-1.601-2.05c-1.033,0.133-2.416,0.916-4.149,2.35c0.467-0.733,1.017-1.517,1.649-2.35
			c2.2-2.268,3.934-3.667,5.2-4.2c1.134,0,2.5,0.066,4.101,0.2c0.866,0.666,1.399,1.583,1.6,2.75l-3,3.15
			c-2.233,2.533-3.917,4.85-5.05,6.949c-1.134,2.133-3.267,4.184-6.4,6.15c-3.467,2.166-6.633,3.15-9.5,2.949
			c-3.233-0.232-5.7-1.717-7.4-4.449l-0.65-1.301l1.1,1.4c1,1.033,2.2,1.883,3.6,2.551c1.3,0.6,2.583,0.832,3.85,0.699
			c2.267-0.3,5.1-1.666,8.5-4.1C87.75,134.334,89.617,132.584,91.15,130.65z"/>
		<path style="fill-rule:evenodd;clip-rule:evenodd;fill:#219A07;" d="M103.55,118.65c1.733,2.566,1.601,5.934-0.399,10.1
			c-1,2.066-2.184,3.883-3.551,5.45c0.5-1.033,0.9-2.283,1.2-3.75c0.634-2.866,0.533-5.267-0.3-7.2c-0.967-2.3-2.8-3.449-5.5-3.449
			l-3.7,0.75l4.75-2.951C99.517,116.066,102.017,116.417,103.55,118.65z"/>
		<path style="fill-rule:evenodd;clip-rule:evenodd;fill:#85E113;" d="M91.1,122.301c-0.866,0.666-2.267,2.232-4.199,4.699
			c-1.801,2.267-3.851,4.184-6.15,5.75c-3.367,2.267-6.417,3.383-9.15,3.35l-3.1-0.75l3.05,0.051c2.5-0.301,4.934-1.283,7.3-2.95
			c2.966-2.067,5.95-4.917,8.95-8.55c2.233-2.667,4.317-4.233,6.25-4.7c2.067-0.467,3.817-0.017,5.25,1.351
			c1.367,1.266,2.101,2.949,2.2,5.049c0.1,1.667-0.184,3.601-0.85,5.801c-0.334,1.1-0.684,2.033-1.051,2.8
			c0.533-1.667,0.884-3.434,1.051-5.3c0.333-3.768-0.434-6.2-2.301-7.301c-1.333-0.766-2.366-1.149-3.1-1.149
			C94.117,120.45,92.733,121.066,91.1,122.301z"/>
		<path style="fill-rule:evenodd;clip-rule:evenodd;fill:#FDF79A;" d="M75.8,118.25c1.167,0.1,2,0.684,2.5,1.75
			c0.467,1,0.467,1.967,0,2.9c-0.433,0.967-1.15,1.6-2.15,1.9c-1.1,0.299-2.033,0-2.8-0.9c-0.8-0.934-0.85-2.15-0.15-3.65
			C73.867,118.816,74.733,118.15,75.8,118.25z"/>
		<path style="fill-rule:evenodd;clip-rule:evenodd;fill:#FDF79A;" d="M79.05,110.7c0.967,0.134,1.767,0.7,2.4,1.7
			c0.6,1,0.716,1.85,0.35,2.55c-0.366,0.733-1.05,1.149-2.05,1.25c-1.1,0.134-2-0.2-2.7-1c-0.7-0.8-0.733-1.783-0.1-2.95
			C77.55,111.117,78.25,110.6,79.05,110.7z"/>
		<path style="fill-rule:evenodd;clip-rule:evenodd;fill:#FDF79A;" d="M81.95,103.551c1.133-0.334,2.25-0.168,3.35,0.5
			c1,0.633,1.483,1.283,1.45,1.949c-0.033,0.733-0.483,1.4-1.35,2c-1.034,0.733-2.284,0.95-3.75,0.65
			c-1.567-0.367-2.216-1.217-1.95-2.551C79.934,104.801,80.684,103.95,81.95,103.551z"/>
		<path style="fill-rule:evenodd;clip-rule:evenodd;fill:#FDF79A;" d="M85.35,95.95c1.334-0.233,2.417,0.033,3.25,0.8
			c0.867,0.767,1,1.617,0.4,2.551c-0.566,0.832-1.316,1.266-2.25,1.299c-0.7,0-1.617-0.266-2.75-0.799
			c-0.967-0.4-1.25-1.101-0.85-2.101C83.55,96.733,84.283,96.15,85.35,95.95z"/>
		<path style="fill-rule:evenodd;clip-rule:evenodd;fill:#FDF79A;" d="M90,90.051c1.233-0.201,2.033-0.034,2.4,0.5
			c0.333,0.5,0.3,1.1-0.101,1.799c-0.767,1.201-2.017,1.434-3.75,0.701c-0.8-0.301-0.967-0.851-0.5-1.65
			C88.517,90.633,89.167,90.184,90,90.051z"/>
		<path style="fill-rule:evenodd;clip-rule:evenodd;fill:#FDF79A;" d="M93.95,85.05c1.566-0.034,2.017,0.533,1.35,1.7
			c-0.7,1.133-1.633,1.533-2.8,1.2c-1-0.267-1.217-0.817-0.65-1.649C92.417,85.5,93.117,85.083,93.95,85.05z"/>
		<path style="fill-rule:evenodd;clip-rule:evenodd;fill:#FDF79A;" d="M97.95,81.85c0.467,0.033,0.7,0.317,0.7,0.85
			c0,0.566-0.384,0.867-1.15,0.9c-0.8,0.067-1.1-0.217-0.9-0.85C96.767,82.117,97.217,81.817,97.95,81.85z"/>
		<path style="fill-rule:evenodd;clip-rule:evenodd;fill:#FDF79A;" d="M101.2,78.3c0.6-0.3,0.8-0.034,0.6,0.8
			c-0.2,0.8-0.733,1.4-1.6,1.8c-0.9,0.4-1.184,0.167-0.851-0.7C99.717,79.367,100.333,78.733,101.2,78.3z"/>
		<path style="fill-rule:evenodd;clip-rule:evenodd;fill:#FCF155;" d="M101.45,82.85c0.467,0.133,0.767,0.5,0.899,1.1
			c0.134,0.566,0.067,1.066-0.199,1.5c-0.434,0.767-1.067,0.667-1.9-0.3c-0.467-0.466-0.533-1.017-0.2-1.65
			C100.35,82.867,100.816,82.65,101.45,82.85z"/>
		<path style="fill-rule:evenodd;clip-rule:evenodd;fill:#FCF155;" d="M98.85,88.4c0.601,0.3,0.9,0.967,0.9,2
			c0.033,0.934-0.15,1.866-0.55,2.8c-0.367,0.866-1.067,1.183-2.101,0.95C96.066,93.917,95.367,93.2,95,92
			c-0.367-1.166-0.033-2.184,1-3.05C97,88.117,97.95,87.934,98.85,88.4z"/>
		<path style="fill-rule:evenodd;clip-rule:evenodd;fill:#FCF155;" d="M92.3,97.6c1.333-0.799,2.434-0.649,3.3,0.451
			c0.7,0.933,1,1.883,0.9,2.85c-0.1,0.767-0.45,1.35-1.05,1.75c-0.7,0.434-1.5,0.416-2.4-0.051c-0.933-0.5-1.433-1.383-1.5-2.649
			C91.45,98.75,91.7,97.967,92.3,97.6z"/>
		<path style="fill-rule:evenodd;clip-rule:evenodd;fill:#FCF155;" d="M91.8,108c0.467,1.133,0.45,2.033-0.05,2.7
			c-0.533,0.733-1.066,1.167-1.6,1.3c-0.567,0.167-1.2-0.05-1.9-0.65c-0.667-0.566-0.75-1.583-0.25-3.049
			c0.5-1.434,1.05-2.134,1.65-2.101C90.583,106.233,91.3,106.834,91.8,108z"/>
		<path style="fill-rule:evenodd;clip-rule:evenodd;fill:#FCF155;" d="M85.8,115.1c0.601,0.167,1.067,0.801,1.4,1.9
			c0.333,1.033,0.383,1.801,0.149,2.301c-0.333,0.699-0.866,1.232-1.6,1.6c-0.9,0.434-1.617,0.25-2.15-0.551
			c-0.6-0.866-0.583-2.016,0.05-3.449C84.25,115.467,84.967,114.867,85.8,115.1z"/>
		<path style="fill-rule:evenodd;clip-rule:evenodd;fill:#F4E229;" d="M104.4,89.9l0.55,0.4c0.333,0.466,0.35,1.25,0.05,2.35
			s-0.8,1.8-1.5,2.1c-0.333,0.133-0.633,0.167-0.9,0.1c0.033-0.333,0.301-0.866,0.801-1.6c0.3-0.467,0.566-1.166,0.8-2.1L104.4,89.9
			z"/>
		<path style="fill-rule:evenodd;clip-rule:evenodd;fill:#F4E229;" d="M101.1,99.45c0.567-0.267,0.967,0.233,1.2,1.5
			c0.233,1.366-0.066,2.634-0.899,3.8c-0.768,1.066-1.45,1.417-2.051,1.051l-0.699-0.9l1.1-1.7c0.467-0.733,0.833-1.583,1.1-2.55
			L101.1,99.45z"/>
		<path style="fill-rule:evenodd;clip-rule:evenodd;fill:#F4E229;" d="M97.45,109l0.45,1.301c0.1,1.066-0.367,2.116-1.4,3.149
			s-1.85,1.433-2.45,1.2l-0.6-0.6l0.95-0.951c0.433-0.399,1.066-1.199,1.899-2.399L97.45,109z"/>
		<path style="fill-rule:evenodd;clip-rule:evenodd;fill:#F4E229;" d="M99.05,111.9c0.7-0.867,0.9-0.6,0.601,0.8
			c-0.301,1.366-0.783,2.283-1.45,2.75c-0.634,0.467-0.783,0.149-0.45-0.95S98.517,112.533,99.05,111.9z"/>
		<path style="fill-rule:evenodd;clip-rule:evenodd;fill:#F4E229;" d="M102.15,105.2c0.5-0.866,0.75-0.899,0.75-0.101
			c0.033,0.801-0.217,1.467-0.75,2c-0.467,0.533-0.684,0.5-0.65-0.1C101.533,106.434,101.75,105.834,102.15,105.2z"/>
		<path style="fill-rule:evenodd;clip-rule:evenodd;fill:#F4E229;" d="M104.85,94.85c0.367-0.433,0.533-0.383,0.5,0.15
			c0,0.566-0.133,0.95-0.399,1.15c-0.267,0.199-0.4,0.116-0.4-0.25C104.517,95.533,104.617,95.184,104.85,94.85z"/>
		<path style="fill-rule:evenodd;clip-rule:evenodd;fill:#F4E229;" d="M106.35,83.35c0.4,0.933,0.317,1.833-0.25,2.701
			c-0.833,1.366-1.05,1.482-0.649,0.35c0.066-0.167,0.217-0.917,0.45-2.25C106.033,83.25,106.184,82.983,106.35,83.35z"/>
		<path style="fill-rule:evenodd;clip-rule:evenodd;fill:#F4E229;" d="M106.2,78.85c0.233,0.167,0.283,0.533,0.149,1.1
			c-0.133,0.6-0.333,0.883-0.6,0.85c-0.233-0.034-0.267-0.4-0.1-1.1C105.816,78.967,106,78.684,106.2,78.85z"/>
	</g>
</g>
<g>
	<g>
		<path style="fill-rule:evenodd;clip-rule:evenodd;fill:#F7D7C8;" d="M63.85,36.6v19.35c0,0.833-0.25,1.483-0.75,1.95
			c-0.467,0.467-1.067,0.7-1.8,0.7s-1.333-0.233-1.8-0.7c-0.5-0.466-0.75-1.117-0.75-1.95V38.9h-2c-0.767,0-1.35-0.25-1.75-0.75
			c-0.367-0.433-0.55-0.966-0.55-1.6s0.2-1.167,0.6-1.6c0.434-0.5,1-0.75,1.7-0.75h4.8c0.733,0,1.3,0.233,1.7,0.7
			C63.65,35.333,63.85,35.9,63.85,36.6z"/>
		
			<linearGradient id="SVGID_8_" gradientUnits="userSpaceOnUse" x1="-58.5967" y1="59.1523" x2="-33.6217" y2="59.1523" gradientTransform="matrix(4.004004e-005 -1 1 -0.001 -1.024090e-004 4.449275e-004)">
			<stop  offset="0.2902" style="stop-color:#2F0102"/>
			<stop  offset="1" style="stop-color:#D2060E"/>
		</linearGradient>
		<path style="fill-rule:evenodd;clip-rule:evenodd;fill:url(#SVGID_8_);" d="M61.55,33.05c0.733,0,1.3,0.233,1.7,0.7
			c0.4,0.434,0.6,1,0.6,1.7V54.8c0,0.833-0.25,1.483-0.75,1.95c-0.467,0.467-1.067,0.7-1.8,0.7s-1.333-0.233-1.8-0.7
			c-0.5-0.467-0.75-1.117-0.75-1.95V37.75h-2c-0.767,0-1.35-0.25-1.75-0.75c-0.367-0.433-0.55-0.967-0.55-1.6s0.2-1.167,0.6-1.6
			c0.434-0.5,1-0.75,1.7-0.75H61.55z"/>
	</g>
	<g>
		<path style="fill-rule:evenodd;clip-rule:evenodd;fill:#F7D7C8;" d="M106.5,33.9c2.267,0,4.083,0.7,5.45,2.1
			c1.2,1.2,1.8,2.567,1.8,4.1c0,2.3-0.934,4.033-2.8,5.2c1.267,0.6,2.267,1.417,3,2.45c0.767,1.1,1.149,2.317,1.149,3.65
			c0,2.067-0.816,3.833-2.449,5.3c-1.667,1.467-3.7,2.2-6.101,2.2c-2.366,0-4.35-0.733-5.95-2.2C99.133,55.4,98.4,54,98.4,52.5
			c0-0.633,0.283-1.167,0.85-1.6c0.5-0.433,1.083-0.65,1.75-0.65c0.633,0,1.367,0.667,2.2,2c0.866,1.3,2,1.95,3.399,1.95
			c0.9,0,1.65-0.3,2.25-0.9c0.634-0.6,0.95-1.35,0.95-2.25c0-1.633-0.967-2.6-2.899-2.9c-1.934-0.3-2.9-1.083-2.9-2.35
			c0-1.167,0.816-1.967,2.45-2.4c1.6-0.4,2.399-1.25,2.399-2.55c0-0.667-0.217-1.2-0.649-1.6c-0.434-0.433-1.033-0.65-1.8-0.65
			c-1.167,0-2.134,0.55-2.9,1.65s-1.5,1.65-2.2,1.65c-0.667,0-1.2-0.267-1.6-0.8c-0.4-0.467-0.601-1.033-0.601-1.7
			c0-1.333,0.768-2.583,2.301-3.75C102.934,34.483,104.633,33.9,106.5,33.9z"/>
		
			<linearGradient id="SVGID_9_" gradientUnits="userSpaceOnUse" x1="-58.7568" y1="106.7529" x2="-33.7568" y2="106.7529" gradientTransform="matrix(4.000000e-005 -1 1 -0.001 6.127130e-005 4.449275e-004)">
			<stop  offset="0.2902" style="stop-color:#2F0102"/>
			<stop  offset="1" style="stop-color:#D2060E"/>
		</linearGradient>
		<path style="fill-rule:evenodd;clip-rule:evenodd;fill:url(#SVGID_9_);" d="M101.4,34.5c1.533-1.167,3.232-1.75,5.1-1.75
			c2.267,0,4.083,0.7,5.45,2.1c1.2,1.233,1.8,2.617,1.8,4.15c0,2.3-0.934,4.033-2.8,5.2c1.233,0.566,2.233,1.383,3,2.45
			c0.767,1.1,1.149,2.3,1.149,3.6c0,2.067-0.816,3.833-2.449,5.3c-1.7,1.5-3.733,2.25-6.101,2.25c-2.333,0-4.316-0.733-5.95-2.2
			c-1.467-1.3-2.199-2.7-2.199-4.2c0-0.633,0.283-1.183,0.85-1.65c0.5-0.433,1.083-0.65,1.75-0.65c0.633,0,1.367,0.667,2.2,2
			c0.866,1.333,2,2,3.399,2c0.867,0,1.617-0.3,2.25-0.9c0.634-0.633,0.95-1.4,0.95-2.3c0-1.633-0.967-2.6-2.899-2.9
			c-1.934-0.3-2.9-1.083-2.9-2.35c0-1.167,0.816-1.966,2.45-2.4c1.6-0.4,2.399-1.25,2.399-2.55c0-0.633-0.217-1.167-0.649-1.6
			c-0.434-0.433-1.033-0.65-1.8-0.65c-1.167,0-2.134,0.566-2.9,1.7c-0.767,1.1-1.5,1.65-2.2,1.65c-0.667,0-1.2-0.267-1.6-0.8
			c-0.4-0.5-0.601-1.083-0.601-1.75C99.1,36.917,99.867,35.667,101.4,34.5z"/>
	</g>
	<g>
		<path style="fill-rule:evenodd;clip-rule:evenodd;fill:#F7D7C8;" d="M80.2,46.4c0-5.267-1.233-7.9-3.7-7.9s-3.7,2.633-3.7,7.9
			c0,5.267,1.233,7.9,3.7,7.9S80.2,51.667,80.2,46.4z M83.55,54.75c-1.566,2.767-3.917,4.15-7.05,4.15s-5.483-1.383-7.05-4.15
			c-1.3-2.267-1.95-5.05-1.95-8.35c0-3.3,0.65-6.083,1.95-8.35c1.566-2.767,3.917-4.15,7.05-4.15s5.483,1.383,7.05,4.15
			c1.3,2.267,1.95,5.05,1.95,8.35C85.5,49.7,84.85,52.483,83.55,54.75z"/>
		
			<linearGradient id="SVGID_10_" gradientUnits="userSpaceOnUse" x1="-58.7266" y1="76.5024" x2="-33.7266" y2="76.5024" gradientTransform="matrix(4.000000e-005 -1 1 -0.001 6.127130e-005 4.449275e-004)">
			<stop  offset="0.2902" style="stop-color:#2F0102"/>
			<stop  offset="1" style="stop-color:#D2060E"/>
		</linearGradient>
		<path style="fill-rule:evenodd;clip-rule:evenodd;fill:url(#SVGID_10_);" d="M76.5,37.4c-2.467,0-3.7,2.617-3.7,7.85
			c0,5.267,1.233,7.9,3.7,7.9s3.7-2.633,3.7-7.9C80.2,40.017,78.967,37.4,76.5,37.4z M85.5,45.25c0,3.3-0.65,6.083-1.95,8.35
			c-1.566,2.8-3.917,4.2-7.05,4.2s-5.483-1.4-7.05-4.2c-1.3-2.267-1.95-5.05-1.95-8.35c0-3.3,0.65-6.083,1.95-8.35
			c1.566-2.767,3.917-4.15,7.05-4.15s5.483,1.383,7.05,4.15C84.85,39.167,85.5,41.95,85.5,45.25z"/>
	</g>
	<g>
		<path style="fill-rule:evenodd;clip-rule:evenodd;fill:#F7D7C8;" d="M86,38.15c-0.367-0.433-0.55-0.966-0.55-1.6
			s0.2-1.167,0.6-1.6c0.434-0.5,1-0.75,1.7-0.75h4.8c0.733,0,1.3,0.233,1.7,0.7c0.4,0.434,0.6,1,0.6,1.7v19.35
			c0,0.833-0.25,1.483-0.75,1.95c-0.467,0.467-1.066,0.7-1.8,0.7s-1.333-0.233-1.8-0.7c-0.5-0.466-0.75-1.117-0.75-1.95V38.9h-2
			C86.983,38.9,86.4,38.65,86,38.15z"/>
		
			<linearGradient id="SVGID_11_" gradientUnits="userSpaceOnUse" x1="-58.6279" y1="90.1523" x2="-33.6529" y2="90.1523" gradientTransform="matrix(4.004004e-005 -1 1 -0.001 -1.024090e-004 4.449275e-004)">
			<stop  offset="0.2902" style="stop-color:#2F0102"/>
			<stop  offset="1" style="stop-color:#D2060E"/>
		</linearGradient>
		<path style="fill-rule:evenodd;clip-rule:evenodd;fill:url(#SVGID_11_);" d="M86,37c-0.367-0.433-0.55-0.967-0.55-1.6
			s0.2-1.167,0.6-1.6c0.434-0.5,1-0.75,1.7-0.75h4.8c0.733,0,1.3,0.233,1.7,0.7c0.4,0.434,0.6,1,0.6,1.7V54.8
			c0,0.833-0.25,1.483-0.75,1.95c-0.467,0.467-1.066,0.7-1.8,0.7s-1.333-0.233-1.8-0.7c-0.5-0.467-0.75-1.117-0.75-1.95V37.75h-2
			C86.983,37.75,86.4,37.5,86,37z"/>
	</g>
</g>
<g>
	<g>
		<g>
			
				<linearGradient id="SVGID_12_" gradientUnits="userSpaceOnUse" x1="-96.0952" y1="16.3613" x2="-62.6367" y2="16.3613" gradientTransform="matrix(-0.3345 -0.9424 0.9424 -0.3345 2.532005e-004 7.051229e-004)">
				<stop  offset="0.2824" style="stop-color:#AB3A48"/>
				<stop  offset="0.2863" style="stop-color:#AB3B48"/>
				<stop  offset="0.702" style="stop-color:#D88F62"/>
				<stop  offset="0.8941" style="stop-color:#E9B06C"/>
			</linearGradient>
			<path style="fill-rule:evenodd;clip-rule:evenodd;fill:url(#SVGID_12_);" d="M53.35,50.1c1.267,1.3,1.667,3.1,1.2,5.4
				c-0.233,1.267-0.7,2.567-1.4,3.9c-1.733,3.233-3.65,5.45-5.75,6.65l-0.55,0.25c0,0.1-0.167,0.783-0.5,2.05
				c-0.9,3.4-2.333,5.95-4.3,7.65c-0.1,0.1-0.183,0.15-0.25,0.15c0.134,0.7,0.2,1.5,0.2,2.4c0.1,3.533-0.55,6.383-1.95,8.549
				c-0.1,0.201-0.233,0.367-0.4,0.5l-0.2,0.201c-0.3,0.232-0.617,0.399-0.95,0.5c-0.467,0.133-0.9,0.149-1.3,0.049
				c-0.967-0.199-1.867-0.683-2.7-1.449l-0.65,0.449c-0.133,0.134-0.317,0.234-0.55,0.301l-0.25,0.1c-0.833,0.267-1.6,0.15-2.3-0.35
				c-1.367-0.967-2.167-2.483-2.4-4.55c-0.167-1.533-0.017-3.117,0.45-4.75c0.767-2.167,1.967-4.017,3.6-5.55
				c-0.567-1.267-0.65-2.784-0.25-4.55c0.333-1.367,0.9-2.65,1.7-3.85c1.3-1.733,2.85-3.1,4.65-4.1c-0.1-1.267,0.217-2.633,0.95-4.1
				c0.6-1.167,1.35-2.2,2.25-3.1c1.3-1.233,2.816-2.167,4.55-2.8c1.7-0.633,3.316-0.883,4.85-0.75c0.8-0.1,1.533,0.15,2.2,0.75
				L53.35,50.1z"/>
			<path style="fill-rule:evenodd;clip-rule:evenodd;fill:none;stroke:#F7E0E7;stroke-width:0.25;" d="M53.35,50.1l-0.05-0.05
				c-0.667-0.6-1.4-0.85-2.2-0.75c-1.534-0.133-3.15,0.117-4.85,0.75c-1.733,0.633-3.25,1.566-4.55,2.8
				c-0.9,0.9-1.65,1.933-2.25,3.1c-0.733,1.467-1.05,2.833-0.95,4.1c-1.8,1-3.35,2.367-4.65,4.1c-0.8,1.2-1.367,2.483-1.7,3.85
				c-0.4,1.767-0.317,3.283,0.25,4.55c-1.633,1.533-2.833,3.383-3.6,5.55c-0.467,1.633-0.616,3.217-0.45,4.75
				c0.233,2.067,1.033,3.583,2.4,4.55c0.7,0.5,1.467,0.616,2.3,0.35l0.25-0.1c0.233-0.066,0.417-0.167,0.55-0.301L34.5,86.9
				c0.833,0.767,1.733,1.25,2.7,1.449c0.4,0.101,0.833,0.084,1.3-0.049c0.333-0.101,0.65-0.268,0.95-0.5l0.2-0.201
				c0.167-0.133,0.3-0.299,0.4-0.5c1.4-2.166,2.05-5.016,1.95-8.549c0-0.9-0.066-1.7-0.2-2.4c0.067,0,0.15-0.05,0.25-0.15
				c1.967-1.7,3.4-4.25,4.3-7.65c0.333-1.267,0.5-1.95,0.5-2.05l0.55-0.25c2.1-1.2,4.017-3.417,5.75-6.65
				c0.7-1.333,1.167-2.633,1.4-3.9C55.017,53.2,54.617,51.4,53.35,50.1z"/>
		</g>
	</g>
	<path style="fill-rule:evenodd;clip-rule:evenodd;fill:#470B17;" d="M52,51.4c0.767,0.767,1.017,1.95,0.75,3.55
		c-0.2,1.2-0.617,2.383-1.25,3.55c-1.434,2.9-3.1,4.883-5,5.95l-0.15,0.05H46.3l-0.05,0.05H46.2c-0.267,0.066-0.5,0.017-0.7-0.15
		L45.1,64c0.066,1.333-0.117,2.6-0.55,3.8c-0.767,3.066-2,5.333-3.7,6.8l-0.4,0.2c-0.233,0.066-0.434,0.05-0.6-0.05l-0.4-0.25
		c0.5,1.233,0.716,2.567,0.65,4c0.1,3.2-0.434,5.733-1.6,7.6l-0.25,0.25C38.217,86.45,38.133,86.5,38,86.5l-0.45,0.051
		c-1.167-0.268-2.116-1.117-2.85-2.551c-0.634,0.833-1.25,1.434-1.85,1.8l-0.25,0.1v0.05h-0.1c-0.233,0.101-0.467,0.066-0.7-0.1
		c-0.967-0.7-1.517-1.867-1.65-3.5c-0.067-1.233,0.083-2.467,0.45-3.7c0.933-2.733,2.517-4.716,4.75-5.95h-0.1l-0.1,0.05
		c-0.267,0-0.483-0.117-0.65-0.35c-0.733-0.9-0.917-2.167-0.55-3.8c0.267-1.233,0.75-2.383,1.45-3.45
		c1.433-1.933,3.217-3.283,5.35-4.05H40.7c-0.534-1.067-0.467-2.35,0.2-3.85c0.5-1.133,1.2-2.167,2.1-3.1
		c1.133-1.066,2.45-1.867,3.95-2.4s2.883-0.717,4.15-0.55l0.05-0.05C51.517,51.117,51.8,51.2,52,51.4z"/>
	<g>
		<g>
			<g>
				<g>
					<g>
						<g>
							<g>
								
									<linearGradient id="SVGID_13_" gradientUnits="userSpaceOnUse" x1="-71.2954" y1="24.7725" x2="-65.9946" y2="24.7725" gradientTransform="matrix(-0.3345 -0.9424 0.9424 -0.3345 2.907813e-004 3.314018e-004)">
									<stop  offset="0.1059" style="stop-color:#EAB562"/>
									<stop  offset="0.3216" style="stop-color:#E99459"/>
									<stop  offset="0.7176" style="stop-color:#E94B46"/>
								</linearGradient>
								<path style="fill-rule:evenodd;clip-rule:evenodd;fill:url(#SVGID_13_);" d="M51.05,52.05c0.3,0.767,0.067,1.733-0.7,2.9
									c-0.6,0.9-1.367,1.717-2.3,2.45c-2.366,1.967-4.533,3.067-6.5,3.3c0.2-0.3,0.733-0.983,1.6-2.05
									c0.867-1.1,1.483-1.933,1.85-2.5C46.7,53.783,48.717,52.417,51.05,52.05z"/>
								<path style="fill-rule:evenodd;clip-rule:evenodd;fill:#F7DED7;" d="M46.05,55.7c-1.6,2.1-3.133,3.767-4.6,5
									c-0.4-0.8-0.333-1.833,0.2-3.1c0.433-1.067,1.083-2.033,1.95-2.9c1.033-0.967,2.216-1.7,3.55-2.2
									c1.367-0.5,2.667-0.667,3.9-0.5c-0.933,0.167-1.866,0.633-2.8,1.4C47.75,53.833,47.017,54.6,46.05,55.7z"/>
							</g>
							<g>
								
									<linearGradient id="SVGID_14_" gradientUnits="userSpaceOnUse" x1="-75.458" y1="26.6616" x2="-66.2075" y2="26.6616" gradientTransform="matrix(-0.3348 -0.9423 0.9423 -0.3348 -1.582503e-004 4.705191e-004)">
									<stop  offset="0.1059" style="stop-color:#EAB562"/>
									<stop  offset="0.3216" style="stop-color:#E99459"/>
									<stop  offset="0.7176" style="stop-color:#E94B46"/>
								</linearGradient>
								<path style="fill-rule:evenodd;clip-rule:evenodd;fill:url(#SVGID_14_);" d="M51.9,54.95c-0.2,1.066-0.583,2.117-1.15,3.15
									c-1.367,2.767-2.917,4.633-4.65,5.6c0.7-2.467,1.15-4.317,1.35-5.55c0.633-2.867,1.95-4.917,3.95-6.15
									C52,52.6,52.167,53.583,51.9,54.95z"/>
								<path style="fill-rule:evenodd;clip-rule:evenodd;fill:#F7DED7;" d="M48.25,57.35c-0.633,2.533-1.383,4.667-2.25,6.4
									c-0.7-0.566-1.05-1.533-1.05-2.9c0-1.167,0.233-2.317,0.7-3.45c0.567-1.3,1.367-2.433,2.4-3.4
									c1.033-1.033,2.15-1.717,3.35-2.05c-0.833,0.533-1.5,1.333-2,2.4C49.066,54.95,48.684,55.95,48.25,57.35z"/>
							</g>
						</g>
					</g>
				</g>
			</g>
		</g>
		<g>
			<g>
				<g>
					<g>
						<g>
							<g>
								
									<linearGradient id="SVGID_15_" gradientUnits="userSpaceOnUse" x1="-79.5215" y1="14.5713" x2="-72.334" y2="14.5713" gradientTransform="matrix(-0.3339 -0.9426 0.9426 -0.3339 -3.421307e-004 1.191497e-004)">
									<stop  offset="0.1059" style="stop-color:#EAB562"/>
									<stop  offset="0.3216" style="stop-color:#E99459"/>
									<stop  offset="0.7176" style="stop-color:#E94B46"/>
								</linearGradient>
								<path style="fill-rule:evenodd;clip-rule:evenodd;fill:url(#SVGID_15_);" d="M42.9,61.55c0.433,0.733,0.4,1.733-0.1,3
									c-0.433,1-1.033,1.95-1.8,2.85c-2.033,2.434-3.95,3.934-5.75,4.5c0.133-0.367,0.517-1.15,1.15-2.35
									c0.667-1.267,1.117-2.2,1.35-2.8C38.883,64.117,40.6,62.383,42.9,61.55z"/>
								<path style="fill-rule:evenodd;clip-rule:evenodd;fill:#F7DED7;" d="M35.15,71.9c-0.567-0.7-0.7-1.716-0.4-3.05
									c0.233-1.1,0.684-2.183,1.35-3.25c0.833-1.133,1.867-2.083,3.1-2.85s2.45-1.183,3.65-1.25c-0.9,0.367-1.717,1-2.45,1.9
									c-0.433,0.534-1,1.434-1.7,2.7C37.4,68.667,36.217,70.6,35.15,71.9z"/>
							</g>
							<g>
								
									<linearGradient id="SVGID_16_" gradientUnits="userSpaceOnUse" x1="-83.2061" y1="16.8271" x2="-72.4046" y2="16.8271" gradientTransform="matrix(-0.3356 -0.942 0.942 -0.3356 6.172061e-005 5.342960e-004)">
									<stop  offset="0.1059" style="stop-color:#EAB562"/>
									<stop  offset="0.3216" style="stop-color:#E99459"/>
									<stop  offset="0.7176" style="stop-color:#E94B46"/>
								</linearGradient>
								<path style="fill-rule:evenodd;clip-rule:evenodd;fill:url(#SVGID_16_);" d="M43.25,61.45c0.7,0.467,1.05,1.4,1.05,2.8
									c0.033,1.067-0.133,2.167-0.5,3.3c-0.866,3.033-2.033,5.167-3.5,6.4c0-0.333,0.05-1.2,0.15-2.6c0.1-1.4,0.133-2.45,0.1-3.15
									C40.617,65.3,41.517,63.05,43.25,61.45z"/>
								<path style="fill-rule:evenodd;clip-rule:evenodd;fill:#F7DED7;" d="M40.2,74c-0.767-0.433-1.284-1.316-1.55-2.65
									c-0.233-1.133-0.25-2.3-0.05-3.5c0.3-1.367,0.867-2.633,1.7-3.8c0.833-1.2,1.8-2.083,2.9-2.65c-0.7,0.7-1.2,1.617-1.5,2.75
									c-0.2,0.667-0.384,1.717-0.55,3.15C41.05,69.967,40.733,72.2,40.2,74z"/>
							</g>
						</g>
					</g>
				</g>
			</g>
		</g>
		<g>
			<g>
				<g>
					<g>
						<g>
							<g>
								
									<linearGradient id="SVGID_17_" gradientUnits="userSpaceOnUse" x1="-91.0654" y1="6.23" x2="-81.1162" y2="6.23" gradientTransform="matrix(-0.3343 -0.9425 0.9425 -0.3343 4.053116e-005 3.768802e-004)">
									<stop  offset="0.1059" style="stop-color:#EAB562"/>
									<stop  offset="0.3216" style="stop-color:#E99459"/>
									<stop  offset="0.7176" style="stop-color:#E94B46"/>
								</linearGradient>
								<path style="fill-rule:evenodd;clip-rule:evenodd;fill:url(#SVGID_17_);" d="M36.7,73.05c0.633,0.533,0.883,1.483,0.75,2.85
									c-0.1,1.067-0.4,2.15-0.9,3.25c-1.133,2.867-2.533,4.867-4.2,6c0.033-0.367,0.183-1.233,0.45-2.6s0.434-2.4,0.5-3.1
									C33.667,76.583,34.8,74.45,36.7,73.05z"/>
								<path style="fill-rule:evenodd;clip-rule:evenodd;fill:#F7DED7;" d="M32.3,85.15c-0.767-0.5-1.2-1.433-1.3-2.8
									c-0.1-1.133,0.033-2.283,0.4-3.45c0.467-1.333,1.167-2.533,2.1-3.6c0.967-1.1,2.033-1.867,3.2-2.3
									c-0.767,0.6-1.367,1.434-1.8,2.5c-0.233,0.6-0.533,1.633-0.9,3.1C33.533,81.267,32.967,83.45,32.3,85.15z"/>
							</g>
							<g>
								
									<linearGradient id="SVGID_18_" gradientUnits="userSpaceOnUse" x1="-93.377" y1="9.2842" x2="-81.0182" y2="9.2842" gradientTransform="matrix(-0.3338 -0.9427 0.9427 -0.3338 1.800656e-004 6.354451e-004)">
									<stop  offset="0.1059" style="stop-color:#EAB562"/>
									<stop  offset="0.3216" style="stop-color:#E99459"/>
									<stop  offset="0.7176" style="stop-color:#E94B46"/>
								</linearGradient>
								<path style="fill-rule:evenodd;clip-rule:evenodd;fill:url(#SVGID_18_);" d="M37,72.8c0.8,0.267,1.417,1.066,1.85,2.4
									c0.3,1,0.45,2.1,0.45,3.3c0.067,3.133-0.433,5.517-1.5,7.15c-0.133-0.333-0.333-1.183-0.6-2.55
									c-0.333-1.367-0.6-2.367-0.8-3C35.633,77.333,35.833,74.9,37,72.8z"/>
								<path style="fill-rule:evenodd;clip-rule:evenodd;fill:#F7DED7;" d="M37.75,85.7c-0.9-0.167-1.667-0.85-2.3-2.05
									c-0.534-1-0.867-2.117-1-3.35c-0.1-1.434,0.066-2.817,0.5-4.15c0.466-1.4,1.15-2.517,2.05-3.35
									c-0.467,0.833-0.684,1.85-0.65,3.05c0,0.7,0.133,1.75,0.4,3.15C37.383,81.833,37.717,84.067,37.75,85.7z"/>
							</g>
						</g>
					</g>
				</g>
			</g>
		</g>
	</g>
</g>
<g>
	<g>
		<g>
			<linearGradient id="SVGID_19_" gradientUnits="userSpaceOnUse" x1="136.4307" y1="53.9136" x2="124.6057" y2="85.2386">
				<stop  offset="0.2824" style="stop-color:#AB3A48"/>
				<stop  offset="0.2863" style="stop-color:#AB3B48"/>
				<stop  offset="0.702" style="stop-color:#D88F62"/>
				<stop  offset="0.8941" style="stop-color:#E9B06C"/>
			</linearGradient>
			<path style="fill-rule:evenodd;clip-rule:evenodd;fill:url(#SVGID_19_);" d="M134.45,56.55c0.566,1.566,0.717,2.966,0.45,4.2
				c1.732,1.2,3.116,2.733,4.149,4.6c0.667,1.267,1.083,2.6,1.25,4c0.233,1.833-0.017,3.35-0.75,4.55
				c1.467,1.667,2.45,3.633,2.95,5.9c0.3,1.633,0.267,3.216-0.1,4.75c-0.467,2.034-1.434,3.45-2.9,4.25
				c-0.767,0.366-1.533,0.399-2.3,0.1l-0.25-0.1l-0.55-0.4l-0.551-0.551c-0.933,0.734-1.883,1.117-2.85,1.15
				c-0.5,0.066-0.934,0-1.3-0.199c-0.333-0.134-0.634-0.334-0.9-0.601l-0.5-0.75c-1.1-2.233-1.417-5.133-0.95-8.7
				c0.101-0.9,0.25-1.683,0.45-2.35l-0.2-0.2c-1.033-1.1-1.866-2.567-2.5-4.4c-0.433-1.267-0.732-2.5-0.899-3.7
				c-0.134-0.467-0.217-1.167-0.25-2.1l-0.15-0.05l-0.45-0.25c-1.967-1.434-3.6-3.85-4.899-7.25c-1.601-4.434-1.317-7.517,0.85-9.25
				l0.05-0.05c0.7-0.533,1.467-0.7,2.301-0.5c1.533,0.034,3.116,0.467,4.75,1.3c1.633,0.833,3.017,1.917,4.149,3.25
				C133.35,54.2,133.983,55.317,134.45,56.55z"/>
			<path style="fill-rule:evenodd;clip-rule:evenodd;fill:none;stroke:#F7E0E7;stroke-width:0.25;" d="M134.45,56.55
				c0.566,1.566,0.717,2.966,0.45,4.2c1.732,1.2,3.116,2.733,4.149,4.6c0.667,1.267,1.083,2.6,1.25,4
				c0.233,1.833-0.017,3.35-0.75,4.55c1.467,1.667,2.45,3.633,2.95,5.9c0.3,1.633,0.267,3.216-0.1,4.75
				c-0.467,2.034-1.434,3.45-2.9,4.25c-0.767,0.366-1.533,0.399-2.3,0.1l-0.25-0.1l-0.55-0.4l-0.551-0.551
				c-0.933,0.734-1.883,1.117-2.85,1.15c-0.5,0.066-0.934,0-1.3-0.199c-0.333-0.134-0.634-0.334-0.9-0.601l-0.5-0.75
				c-1.1-2.233-1.417-5.133-0.95-8.7c0.101-0.9,0.25-1.683,0.45-2.35l-0.2-0.2c-1.033-1.1-1.866-2.567-2.5-4.4
				c-0.433-1.267-0.732-2.5-0.899-3.7c-0.134-0.467-0.217-1.167-0.25-2.1l-0.15-0.05l-0.45-0.25c-1.967-1.434-3.6-3.85-4.899-7.25
				c-1.601-4.434-1.317-7.517,0.85-9.25l0.05-0.05c0.7-0.533,1.467-0.7,2.301-0.5c1.533,0.034,3.116,0.467,4.75,1.3
				c1.633,0.833,3.017,1.917,4.149,3.25C133.35,54.2,133.983,55.317,134.45,56.55z"/>
		</g>
	</g>
	<path style="fill-rule:evenodd;clip-rule:evenodd;fill:#470B17;" d="M122.2,57.75c-0.533-1.267-0.817-2.5-0.851-3.7
		c-0.066-1.6,0.317-2.733,1.15-3.4c0.267-0.267,0.55-0.316,0.85-0.15h0.051c1.3-0.033,2.666,0.317,4.1,1.05
		c1.4,0.7,2.6,1.633,3.6,2.8c0.801,1,1.384,2.1,1.75,3.3c0.5,1.6,0.417,2.883-0.25,3.85l-0.05,0.05c2.067,1,3.684,2.55,4.851,4.65
		c0.6,1.167,0.967,2.367,1.1,3.6c0.167,1.633-0.167,2.867-1,3.7c-0.233,0.167-0.467,0.25-0.7,0.25l-0.1-0.05H136.6
		c2.067,1.467,3.417,3.6,4.051,6.4c0.232,1.267,0.232,2.517,0,3.75c-0.301,1.633-0.967,2.734-2,3.3c-0.233,0.1-0.483,0.1-0.75,0
		h-0.051L137.65,87c-0.567-0.467-1.134-1.133-1.7-2c-0.867,1.334-1.9,2.051-3.101,2.15c-0.133,0.033-0.267,0.017-0.399-0.051
		l-0.3-0.199L132.1,86.85l-0.149-0.199c-0.934-1.967-1.184-4.55-0.75-7.75c0.133-1.433,0.5-2.733,1.1-3.9l-0.35,0.2
		c-0.2,0.066-0.417,0.066-0.65,0l-0.1-0.05l-0.101-0.1l-0.149-0.1c-1.4-1.533-2.384-3.934-2.95-7.2c-0.267-1.3-0.3-2.566-0.1-3.8
		l-0.4,0.3c-0.233,0.167-0.483,0.2-0.75,0.1l-0.05-0.05h-0.05l-0.2-0.1C124.75,62.934,123.333,60.783,122.2,57.75z"/>
	<g>
		<g>
			<g>
				<g>
					<g>
						<g>
							<g>
								<linearGradient id="SVGID_20_" gradientUnits="userSpaceOnUse" x1="130.252" y1="56.2881" x2="124.952" y2="56.1131">
									<stop  offset="0.1059" style="stop-color:#EAB562"/>
									<stop  offset="0.3216" style="stop-color:#E99459"/>
									<stop  offset="0.7176" style="stop-color:#E94B46"/>
								</linearGradient>
								<path style="fill-rule:evenodd;clip-rule:evenodd;fill:url(#SVGID_20_);" d="M123.35,51.35
									c2.367,0.667,4.217,2.25,5.551,4.75c0.566,1.133,1.55,2.783,2.949,4.95c-1.933-0.434-3.967-1.784-6.1-4.05
									c-0.833-0.8-1.5-1.683-2-2.65C123.117,53.117,122.983,52.117,123.35,51.35z"/>
								<path style="fill-rule:evenodd;clip-rule:evenodd;fill:#F7DED7;" d="M127.9,55.55c-0.834-1.2-1.483-2.05-1.95-2.55
									c-0.8-0.833-1.65-1.383-2.55-1.65c1.232-0.033,2.482,0.283,3.75,0.95c1.3,0.667,2.399,1.533,3.3,2.6
									c0.767,0.967,1.316,2,1.649,3.1c0.367,1.267,0.301,2.283-0.199,3.05C130.667,59.783,129.333,57.95,127.9,55.55z"/>
							</g>
							<g>
								<linearGradient id="SVGID_21_" gradientUnits="userSpaceOnUse" x1="127.9736" y1="60.8003" x2="121.8236" y2="53.9003">
									<stop  offset="0.1059" style="stop-color:#EAB562"/>
									<stop  offset="0.3216" style="stop-color:#E99459"/>
									<stop  offset="0.7176" style="stop-color:#E94B46"/>
								</linearGradient>
								<path style="fill-rule:evenodd;clip-rule:evenodd;fill:url(#SVGID_21_);" d="M123,51.3c1.867,1.466,2.934,3.65,3.2,6.55
									c0.033,0.667,0.167,1.7,0.399,3.1c0.233,1.333,0.351,2.183,0.351,2.55c-1.601-1.167-2.934-3.2-4-6.1
									c-0.434-1.066-0.7-2.15-0.8-3.25C122.083,52.75,122.367,51.8,123,51.3z"/>
								<path style="fill-rule:evenodd;clip-rule:evenodd;fill:#F7DED7;" d="M125.55,56.95c-0.333-1.5-0.6-2.533-0.8-3.1
									c-0.4-1.1-0.967-1.967-1.7-2.6c1.134,0.467,2.167,1.267,3.101,2.4c0.899,1.067,1.566,2.284,2,3.65
									c0.3,1.2,0.383,2.367,0.25,3.5c-0.134,1.367-0.584,2.283-1.351,2.75C126.417,61.95,125.917,59.75,125.55,56.95z"/>
							</g>
						</g>
					</g>
				</g>
			</g>
		</g>
		<g>
			<g>
				<g>
					<g>
						<g>
							<g>
								<linearGradient id="SVGID_22_" gradientUnits="userSpaceOnUse" x1="136.8789" y1="68.7959" x2="130.3039" y2="65.8459">
									<stop  offset="0.1059" style="stop-color:#EAB562"/>
									<stop  offset="0.3216" style="stop-color:#E99459"/>
									<stop  offset="0.7176" style="stop-color:#E94B46"/>
								</linearGradient>
								<path style="fill-rule:evenodd;clip-rule:evenodd;fill:url(#SVGID_22_);" d="M130.4,61.75c2.166,1.1,3.666,3,4.5,5.7
									c0.166,0.667,0.517,1.65,1.05,2.95c0.467,1.3,0.75,2.133,0.85,2.5c-1.866-0.833-3.583-2.55-5.149-5.15
									c-0.667-1-1.15-2.017-1.45-3.05C129.8,63.367,129.867,62.383,130.4,61.75z"/>
								<path style="fill-rule:evenodd;clip-rule:evenodd;fill:#F7DED7;" d="M136.9,72.9c-0.9-1.4-1.851-3.45-2.851-6.15
									c-0.6-1.367-1.066-2.333-1.399-2.9c-0.634-1-1.384-1.717-2.25-2.15c1.199,0.233,2.383,0.8,3.55,1.7
									c1.133,0.867,2.033,1.917,2.7,3.15c0.566,1.1,0.899,2.216,1,3.35C137.783,71.267,137.533,72.267,136.9,72.9z"/>
							</g>
							<g>
								<linearGradient id="SVGID_23_" gradientUnits="userSpaceOnUse" x1="132.4746" y1="73" x2="128.8996" y2="62.775">
									<stop  offset="0.1059" style="stop-color:#EAB562"/>
									<stop  offset="0.3216" style="stop-color:#E99459"/>
									<stop  offset="0.7176" style="stop-color:#E94B46"/>
								</linearGradient>
								<path style="fill-rule:evenodd;clip-rule:evenodd;fill:url(#SVGID_23_);" d="M130.05,61.6c1.533,1.767,2.167,4.117,1.9,7.05
									c-0.101,0.667-0.184,1.7-0.25,3.1c-0.033,1.367-0.083,2.233-0.15,2.6c-1.3-1.367-2.217-3.617-2.75-6.75
									c-0.2-1.2-0.233-2.317-0.1-3.35C128.867,62.85,129.316,61.967,130.05,61.6z"/>
								<path style="fill-rule:evenodd;clip-rule:evenodd;fill:#F7DED7;" d="M131.65,74.4c-0.301-1.767-0.367-4.017-0.2-6.75
									c0-1.433-0.05-2.5-0.15-3.2c-0.2-1.167-0.6-2.133-1.2-2.9c1.033,0.7,1.9,1.683,2.601,2.95c0.667,1.267,1.066,2.6,1.2,4
									c0.1,1.2-0.033,2.367-0.4,3.5C133.1,73.267,132.483,74.067,131.65,74.4z"/>
							</g>
						</g>
					</g>
				</g>
			</g>
		</g>
		<g>
			<g>
				<g>
					<g>
						<g>
							<g>
								<linearGradient id="SVGID_24_" gradientUnits="userSpaceOnUse" x1="139.2744" y1="84.251" x2="133.9244" y2="75.851">
									<stop  offset="0.1059" style="stop-color:#EAB562"/>
									<stop  offset="0.3216" style="stop-color:#E99459"/>
									<stop  offset="0.7176" style="stop-color:#E94B46"/>
								</linearGradient>
								<path style="fill-rule:evenodd;clip-rule:evenodd;fill:url(#SVGID_24_);" d="M135.2,73.85c1.733,1.6,2.633,3.867,2.7,6.8
									c-0.033,0.667,0.017,1.7,0.149,3.1c0.067,1.367,0.101,2.233,0.101,2.6c-1.533-1.333-2.684-3.466-3.45-6.399
									c-0.367-1.133-0.55-2.233-0.55-3.3C134.15,75.25,134.5,74.317,135.2,73.85z"/>
								<path style="fill-rule:evenodd;clip-rule:evenodd;fill:#F7DED7;" d="M138.25,86.4c-0.5-1.733-0.816-3.967-0.95-6.7
									c-0.167-1.434-0.35-2.483-0.55-3.15c-0.3-1.133-0.8-2.05-1.5-2.75c1.1,0.566,2.066,1.45,2.9,2.65
									c0.833,1.167,1.399,2.433,1.699,3.8c0.2,1.233,0.2,2.417,0,3.55C139.583,85.133,139.05,86,138.25,86.4z"/>
							</g>
							<g>
								<linearGradient id="SVGID_25_" gradientUnits="userSpaceOnUse" x1="131.9229" y1="85.7437" x2="134.9229" y2="73.7687">
									<stop  offset="0.1059" style="stop-color:#EAB562"/>
									<stop  offset="0.3216" style="stop-color:#E99459"/>
									<stop  offset="0.7176" style="stop-color:#E94B46"/>
								</linearGradient>
								<path style="fill-rule:evenodd;clip-rule:evenodd;fill:url(#SVGID_25_);" d="M134.95,73.6c0.933,2.2,0.85,4.633-0.25,7.3
									c-0.267,0.6-0.634,1.567-1.101,2.9c-0.433,1.3-0.732,2.117-0.899,2.45c-0.9-1.833-1.117-4.25-0.65-7.25
									c0.101-1.167,0.367-2.25,0.8-3.25C133.417,74.483,134.117,73.767,134.95,73.6z"/>
								<path style="fill-rule:evenodd;clip-rule:evenodd;fill:#F7DED7;" d="M132.75,86.35c0.233-1.766,0.833-3.95,1.8-6.549
									c0.4-1.4,0.65-2.434,0.75-3.1c0.167-1.167,0.067-2.2-0.3-3.1c0.8,0.933,1.35,2.117,1.65,3.55c0.267,1.4,0.267,2.8,0,4.2
									c-0.268,1.167-0.733,2.233-1.4,3.2C134.483,85.65,133.65,86.25,132.75,86.35z"/>
							</g>
						</g>
					</g>
				</g>
			</g>
		</g>
	</g>
</g>
<g>
	
		<use xlink:href="#FlashAICB_x2F_Layer_36_copy_8_x2F__x3C_Path_x3E__x5F_2"  width="118.7" height="57.1" y="-57.1" transform="matrix(1 0 0 -1 26.6499 87.2998)" style="overflow:visible;opacity:0.2813;enable-background:new    ;"/>
	
		<use xlink:href="#FlashAICB_x2F_Layer_36_copy_8_x2F__x3C_Path_x3E__x5F_1"  width="110" height="55.75" y="-55.75" transform="matrix(1 0 0 -1 30.7998 28.5)" style="overflow:visible;opacity:0.1094;enable-background:new    ;"/>
	
		<use xlink:href="#FlashAICB_x2F_Layer_36_copy_8_x2F__x3C_Path_x3E__x5F_3"  width="110" height="61.294" y="-61.294" transform="matrix(1 0 0 -1 30.7998 28.5)" style="overflow:visible;opacity:0.0898;enable-background:new    ;"/>
</g>
</svg>
