<?xml version="1.0" encoding="iso-8859-1"?>
<!-- Generator: Adobe Illustrator 15.1.0, SVG Export Plug-In . SVG Version: 6.00 Build 0)  -->
<!DOCTYPE svg PUBLIC "-//W3C//DTD SVG 1.1//EN" "http://www.w3.org/Graphics/SVG/1.1/DTD/svg11.dtd">
<svg version="1.1" id="Layer_17" xmlns="http://www.w3.org/2000/svg" xmlns:xlink="http://www.w3.org/1999/xlink" x="0px" y="0px"
	 width="171.8px" height="172.35px" viewBox="0 0 171.8 172.35" style="enable-background:new 0 0 171.8 172.35;"
	 xml:space="preserve">
<symbol  id="FlashAICB_x2F_Layer_17_x2F__x3C_Path_x3E_" viewBox="0 -52 45.3 52">
	<g id="Layer_1_2_">
		<path style="fill-rule:evenodd;clip-rule:evenodd;fill:#404041;" d="M43.4-0.35c0.367-0.566,1-1.15,1.9-1.75l-20-19.6l-0.05-0.05
			c-1.967-1.833-4.717-4.217-8.25-7.15L15.7-30c1.633-1,2.883-1.867,3.75-2.6c1.6-1.333,2.6-2.65,3-3.95
			c0.5-1.567,0.75-2.95,0.75-4.15c0.033-1.233-0.167-2.533-0.6-3.9c-0.4-1.167-0.65-2.133-0.75-2.9c-0.033-0.267-0.067-0.9-0.1-1.9
			c-0.033-0.6-0.15-1.067-0.35-1.4c-0.1-0.167-0.367-0.467-0.8-0.9l-0.25-0.2l-0.2-0.1H19.9l-0.2,0.05h-0.05l-0.25,0.2l-0.3,0.3
			l-0.25,0.4L18.8-51l-0.25,0.45c-0.367,0.6-0.583,1.333-0.65,2.2c-0.1,0.967,0.033,1.7,0.4,2.2c0.133,0.167,0.35,0.333,0.65,0.5
			c0.333,0.167,0.55,0.316,0.65,0.45l0.2,0.25l0.05,0.15l0.1,0.2l0.15,0.75l-0.05,1.75l-0.3,1.45l-0.45,1.3
			c-0.1,0.333-0.25,0.65-0.45,0.95l-0.2,0.35L18-37.25l-1.25,1.05l-0.8,0.45l-0.15,0.1l-2.15,0.9L13-34.35h-0.05L12.1-33.7
			l-0.85,0.8c-0.867-0.367-1.583-0.567-2.15-0.6c-1.934-0.267-3.017-0.417-3.25-0.45c-1.733-0.433-3.067-1.15-4-2.15
			c-0.767-0.867-1.283-1.583-1.55-2.15L0-36.4l0.425,1.825c0.01-0.038,0.135,0.237,0.375,0.825L1.1-33
			c1.5,1.467,3.917,2.583,7.25,3.35l0.95,0.2L9.25-29.4L7.5-25.8l1.35,2.3c1.2-2.433,2.083-3.983,2.65-4.65l0.4-0.4l0.2-0.15h0.05
			l0.3-0.2l1.05,0.45l1.25,0.9l0.1,0.05l2.75,2.4L43.15,0L43.4-0.35z"/>
	</g>
</symbol>
<symbol  id="FlashAICB_x2F_Layer_17_x2F__x3C_Path_x3E__x5F_0" viewBox="0 -61.294 110.05 61.294">
	<g id="Layer_1_4_">
		<path style="fill-rule:evenodd;clip-rule:evenodd;fill:#FFFFFF;" d="M106.5-34.35c2.367-5.633,3.55-10.95,3.55-15.95
			c0-4.967-1.45-8.083-4.35-9.35c-2.333-1.067-6.25-1.05-11.75,0.05c-7.3,1.767-13.133,3.117-17.5,4.05
			C68.417-53.85,61.267-53,55-53c-6.3,0-13.433-0.917-21.4-2.75c-8.333-2.2-14.167-3.683-17.5-4.45
			c-5.533-1.267-9.45-1.433-11.75-0.5C1.45-59.5,0-56.433,0-51.5c0,5.467,1.167,11.117,3.5,16.95C5.967-28.383,9.45-22.8,13.95-17.8
			C24.65-5.933,38.333,0,55,0c16.467,0,30.15-5.983,41.05-17.95C100.517-22.883,104-28.35,106.5-34.35z"/>
	</g>
</symbol>
<symbol  id="FlashAICB_x2F_Layer_17_x2F__x3C_Path_x3E__x5F_1" viewBox="0 -55.8 110.05 55.8">
	<g id="Layer_1_3_">
		
			<linearGradient id="SVGID_1_" gradientUnits="userSpaceOnUse" x1="16164.3076" y1="-52.8804" x2="16220.0527" y2="-52.8804" gradientTransform="matrix(1.792918e-005 1 -1 -0.001 1.8545 -16220.1055)">
			<stop  offset="0.1294" style="stop-color:#E1B7B1"/>
			<stop  offset="0.9255" style="stop-color:#FFFFFF"/>
		</linearGradient>
		<path style="fill-rule:evenodd;clip-rule:evenodd;fill:url(#SVGID_1_);" d="M96.05-17.95c4.467-4.933,7.95-10.4,10.45-16.4
			c2.367-5.633,3.55-10.95,3.55-15.95c0-1.567-0.167-3.05-0.5-4.45c-1.867,11.067-7.267,20.9-16.2,29.5
			C82.783-15.117,70-10.05,55-10.05c-15.233,0-28.067-5.05-38.5-15.15C7.533-33.933,2.183-44.133,0.45-55.8
			C0.15-54.6,0-53.167,0-51.5c0,5.467,1.167,11.117,3.5,16.95C5.967-28.383,9.45-22.8,13.95-17.8C24.65-5.933,38.333,0,55,0
			C71.467,0,85.15-5.983,96.05-17.95z"/>
	</g>
</symbol>
<symbol  id="FlashAICB_x2F_Layer_17_x2F__x3C_Path_x3E__x5F_2" viewBox="0 -57.1 118.7 57.1">
	<g id="Layer_1_5_">
		
			<radialGradient id="SVGID_2_" cx="59.3501" cy="-28.5498" r="46.5701" gradientTransform="matrix(1 0 0 -1 0 -57.0996)" gradientUnits="userSpaceOnUse">
			<stop  offset="0" style="stop-color:#CCE9E3;stop-opacity:0"/>
			<stop  offset="0.0824" style="stop-color:#C6E6D8;stop-opacity:0.0667"/>
			<stop  offset="0.2196" style="stop-color:#B4DEBD;stop-opacity:0.2431"/>
			<stop  offset="0.4039" style="stop-color:#98D28F;stop-opacity:0.5373"/>
			<stop  offset="0.6196" style="stop-color:#72C152;stop-opacity:0.9333"/>
			<stop  offset="0.651" style="stop-color:#6CBE48"/>
		</radialGradient>
		<path style="fill-rule:evenodd;clip-rule:evenodd;fill:url(#SVGID_2_);" d="M95.5-30.35c10.733,7.7,18.3,17.733,22.7,30.1L118.7,0
			c-0.567-15.9-6.6-29.383-18.1-40.45C89.1-51.55,75.333-57.1,59.3-57.1c-15.7,0-29.267,5.367-40.7,16.1
			C7.233-30.333,1.033-17.233,0-1.7c4.6-12,12.183-21.683,22.75-29.05c10.833-7.567,22.867-11.35,36.1-11.35
			C72.35-42.1,84.567-38.183,95.5-30.35z"/>
	</g>
</symbol>
<g>
	<g>
		<path style="fill-rule:evenodd;clip-rule:evenodd;fill:#D99E58;" d="M114.85,44.45c0.167-8.833,0.284-21.934,0.351-39.3l1.35,0.5
			c0,1.133-0.133,7.917-0.399,20.35c-0.167,8.233-0.167,15.033,0,20.4l-0.051,4.05c-0.1,7.533-0.399,14.366-0.899,20.5l-0.65,9.2
			c-0.666,11.133-1.033,26.117-1.1,44.95c-0.267-11.8-0.167-20.967,0.3-27.5l0.05-3.699c0.101-6.567,0.316-12.684,0.65-18.351
			l0.25-10.4c-0.066-6.4-0.05-12.183,0.05-17.35L114.85,44.45z"/>
		<path style="fill-rule:evenodd;clip-rule:evenodd;fill:#D99E58;" d="M110.55,30.15l0.4-26.4l3.3,1.05L114.2,7
			c0.166,3.967,0.133,9.417-0.101,16.35c-0.267,8.067-0.383,13.567-0.35,16.5l-0.05,5.45c-0.101,6.333-0.167,9.967-0.2,10.9
			l-0.1,5.45c-0.134,4.5-0.334,9.017-0.601,13.55l-0.25,4.55c-0.399,4.733-0.566,10.184-0.5,16.35l0.101,3.301
			c0.033,7.133,0.283,17.866,0.75,32.199c0.3,12.9,0.05,23.7-0.75,32.4l-0.25,3.4v0.35l-2.551,0.75V167
			c0.934-15.033,1.467-25.934,1.601-32.7c0.233-12.233-0.233-23.083-1.4-32.55l-0.25-3.25c-0.366-5.833-0.416-11.267-0.149-16.3
			l0.35-5.25C110.667,58.783,111.017,43.184,110.55,30.15z"/>
		<path style="fill-rule:evenodd;clip-rule:evenodd;fill:#D99E58;" d="M109.8,3.4l-0.45,26.8c-0.033,4.866-0.033,12.167,0,21.9
			c-0.033,8.6-0.233,15.933-0.6,22l-0.35,4.85c-0.034,0.433-0.217,2.183-0.551,5.25c-0.233,2.066-0.25,3.783-0.05,5.149
			c0,3.367,0.134,6.967,0.4,10.801l0.3,3.55c1.267,8.2,1.65,18.816,1.15,31.85c-0.7,18.101-1.017,28.75-0.95,31.95v1.2l-2.9,0.7
			l0.05-0.051l0.051-3.199c1.399-14,2.199-23.467,2.399-28.4c0.367-10.667-0.35-20.066-2.149-28.2
			c-0.301-1.366-0.733-2.917-1.301-4.649c-0.399-1.4-0.899-2.983-1.5-4.75c-0.733-2-0.666-4.717,0.2-8.15
			c1.033-4.066,1.5-6.85,1.4-8.35c0.166-1.667,0.267-3.283,0.3-4.85c0.4-5.633,0.467-12.85,0.2-21.65
			c-0.4-12.367-0.601-19.683-0.601-21.95v-5.05c0.2-18.566,0.301-27.883,0.301-27.95C106.717,2.566,108.267,2.967,109.8,3.4z"/>
		<path style="fill-rule:evenodd;clip-rule:evenodd;fill:#D99E58;" d="M101.85,32.4l-0.05-11.2c-0.066-7.267-0.05-13.833,0.05-19.7
			l1.2,0.25c-0.166,9.133-0.033,17.233,0.4,24.3l0.1,5.9c0.101,5.4,0.316,13.467,0.65,24.2c0.066,9.267-0.483,17.184-1.65,23.75
			l-0.5,5.1c-0.233,1.8-0.383,3.566-0.45,5.3c0.2,3,0.65,6.533,1.351,10.601l2.149,10.05c1.534,8.066,1.967,17.633,1.301,28.7
			c-0.4,6.366-1.233,15.866-2.5,28.5l0.05,1.699l-0.101,0.051l-0.149-2.051c-0.367-1.199-0.533-2.666-0.5-4.399
			c0.1-1.934,0.149-3.4,0.149-4.4c1.233-10.467,2.034-18.3,2.4-23.5c0.6-9,0.2-16.783-1.2-23.35c-0.5-1.934-0.95-3.467-1.35-4.601
			c-0.367-1.232-0.967-2.899-1.8-5c-0.434-1.5-0.733-3.3-0.9-5.399c-0.033-0.434-0.116-2.25-0.25-5.45c0-1.1,0.05-2.233,0.15-3.4
			c0.033-0.732,0.149-1.866,0.35-3.399l0.3-4.6c1.101-6.133,1.533-14.034,1.3-23.7C101.983,42.25,101.816,34.167,101.85,32.4z"/>
		<path style="fill-rule:evenodd;clip-rule:evenodd;fill:#D99E58;" d="M125.5,32.85c0-0.534,0.066-8.217,0.2-23.05l0.649,0.35
			c0.034,5.467,0.167,13.217,0.4,23.25c0.233,10.7,0.366,18.434,0.4,23.2l-0.15,17c-0.033,2.466-0.033,6.15,0,11.05l-0.15,3.6
			c-3.466,13.3-4.8,28.934-4,46.9c0,5.366,0.334,10.533,1,15.5l1.101,11.699l-1.601,0.851L123,160
			c-3.134-22.167-2.333-46.033,2.4-71.6c0.267-2.601,0.433-4.567,0.5-5.9c0.1-2.167,0.133-4.15,0.1-5.95l0.05-4
			c0.033-2.633,0.017-6.6-0.05-11.9l-0.1-4.8C125.6,49.25,125.467,41.583,125.5,32.85z"/>
		<path style="fill-rule:evenodd;clip-rule:evenodd;fill:#D99E58;" d="M127.7,35.05c-0.233-11.767-0.367-19.9-0.4-24.4
			c2.4,1.333,4.566,2.667,6.5,4l0.351,6.8c0.267,7.167,1.033,13.65,2.3,19.45c0.5,4.934,0.616,9.4,0.35,13.4l-1.5,6.45l-1.149,9.1
			c-0.2,2.667-0.301,4.033-0.301,4.1c-0.133,1.933-0.149,4.233-0.05,6.9c0.066,1.533,0.167,3.783,0.3,6.75
			c0.067,1.067,0.067,2.117,0,3.15c-0.199,1.4-0.449,2.8-0.75,4.2L132.45,100c-3.9,18.6-3.9,36.733,0,54.4l0.649,3.199
			c-2.267,1.5-4.699,2.95-7.3,4.351c-0.3-2.101-0.583-3.717-0.85-4.851c-0.4-1.899-0.767-4.05-1.101-6.449
			c-0.533-6.834-0.866-12-1-15.5c-0.033-6.533,0.5-14.467,1.601-23.801c1.333-10.399,2.25-18.183,2.75-23.35l0.3-3.9
			c0.267-4.2,0.333-8.133,0.2-11.8l0.3-12.9C127.967,53.434,127.866,45.316,127.7,35.05z"/>
		<path style="fill-rule:evenodd;clip-rule:evenodd;fill:#D99E58;" d="M123.75,31.25c0.2-10.167,0.3-17.6,0.3-22.3l1,0.5
			c-0.033,3.9-0.133,10.9-0.3,21c-0.167,8.866-0.25,15.9-0.25,21.1l-0.1,24.9c0.166,2.333,0.233,4.333,0.199,6
			c0,1.733-0.083,3.717-0.25,5.95c-2.066,10.333-3.199,22.6-3.399,36.8c-0.033,2.967,0.149,15.233,0.55,36.8l0.05,2l-0.3,0.15
			l-0.7-7.051c-0.833-10.333-0.783-22.783,0.15-37.35c1.333-16.533,2.233-28.983,2.7-37.35c0.066-2.267,0.05-4.316-0.051-6.15
			l0.15-22.8C123.5,48.283,123.583,40.883,123.75,31.25z"/>
		<path style="fill-rule:evenodd;clip-rule:evenodd;fill:#D99E58;" d="M67.6,4.2l0.3-2.25l3.1-0.6V14.3
			c-0.133,5.733-0.167,16.367-0.1,31.9c0.1,13.467-0.033,24.083-0.4,31.85c-0.333,12.434-0.5,29.333-0.5,50.7l0.25,20.5l0.1,1.2
			c0.233,5.433,0.617,11.267,1.15,17.5l0.15,2.6l-2.85-0.5c0.034-2.399-0.017-5.217-0.15-8.45c-0.167-3.767-0.3-6.649-0.4-8.649
			L67.5,137.7c-0.667-14.4-0.65-35.25,0.05-62.55c0.733-28.1,0.85-48.867,0.35-62.3L67.55,8.5C67.483,6.867,67.5,5.434,67.6,4.2z"/>
		<path style="fill-rule:evenodd;clip-rule:evenodd;fill:#D99E58;" d="M137.75,36.65c-0.934-9.167-1.6-16.05-2-20.65l4.25,3.2
			c0.233,7.967,0.783,14.833,1.65,20.6c0.233,2.4,0.283,5.1,0.149,8.1c-0.1,1.8-0.316,4.5-0.649,8.1l-0.4,4.55
			c-0.8,9.967-1.233,15.483-1.3,16.55l-0.15,3.3c0,4.067-0.05,8.15-0.149,12.25l-0.5,13.8c-0.434,7-0.584,14.816-0.45,23.45
			c0.1,5.467,0.399,13.25,0.899,23.35c-0.833,0.7-2.033,1.6-3.6,2.7c-0.8-9.567-1.35-17.351-1.65-23.351
			c-0.433-8.566-0.533-16.399-0.3-23.5l0.601-8.449l1.1-6.4c0.233-1.267,0.4-2.7,0.5-4.3c0.1-1.434,0.15-2.851,0.15-4.25
			l-0.051-2.85l2.25-25.5C138.533,51.583,138.417,44.684,137.75,36.65z"/>
		<path style="fill-rule:evenodd;clip-rule:evenodd;fill:#D99E58;" d="M77.9,18.25L77.85,0.4l2.85-0.2l0.1,20.7
			c0,26.2-0.066,45.833-0.2,58.9c-0.233,21.667-0.717,41.283-1.45,58.851l0.1,4.5c0.133,2,0.267,3.517,0.4,4.55l0.35,4.7
			c0.433,5.566,0.583,10.183,0.45,13.85l-0.1,5.3l-2.4-0.149l-1.05-13.15c-0.066-3.033-0.167-5.083-0.3-6.15l-0.1-4.649
			c-0.067-1.101-0.1-2.767-0.1-5l0.15-5c0.667-26.5,1.117-46.367,1.35-59.6C78.3,54.816,78.3,34.95,77.9,18.25z"/>
		<path style="fill-rule:evenodd;clip-rule:evenodd;fill:#D99E58;" d="M83.2,0.1l0.05,26.15c0.167,6.333,0.25,15.767,0.25,28.3
			c0,12.6,0.083,22.083,0.25,28.45c0,3.167-0.35,11.917-1.05,26.25c-0.5,10.7-0.45,19.5,0.15,26.4l0.05,5
			c0,3.333-0.05,6.649-0.15,9.949V171.7l-1.3-0.05c0.1-6,0.066-12.483-0.1-19.45l-0.45-14c-0.033-8.667,0.217-28.067,0.75-58.2
			c0.434-24.133,0.434-43.55,0-58.25L81.6,0.1H83.2z"/>
		<path style="fill-rule:evenodd;clip-rule:evenodd;fill:#D99E58;" d="M76.8,0.5v16.85c0.233,17.7,0.184,37.45-0.15,59.25
			c-0.233,13.8-0.683,33.55-1.35,59.25c-0.033,1.367-0.017,3.384,0.05,6.051l0.4,10.699c0.6,9.033,0.933,15.184,1,18.45l0.05,0.25
			l-4.2-0.55c-0.067-2.867-0.233-6.283-0.5-10.25c-0.3-4.566-0.533-8-0.7-10.3L71,138.35c0-18.8,0.25-43.883,0.75-75.25l0.2-3.2
			c0.4-3.966,0.6-8.45,0.6-13.45c-0.033-2.7-0.15-7.167-0.35-13.4l0.2-16.55c0-2.033-0.066-3.917-0.2-5.65V1.1L76.8,0.5z"/>
		<path style="fill-rule:evenodd;clip-rule:evenodd;fill:#D99E58;" d="M84.15,24.05v-24L85.95,0c1.233,0,3.083,0.066,5.55,0.2v52.6
			c0.1,3.467,0.083,6.767-0.05,9.9l-0.101,4.95C91.283,71.883,91.167,78.267,91,86.8l-0.05,3.851c-0.134,3.3-0.15,6.85-0.05,10.649
			c0,1.2,0.05,2.983,0.149,5.351l-0.05,4.8c-0.167,4.366-0.116,9.917,0.15,16.649c0.366,9.101,0.566,14.634,0.6,16.601l0.05,4.75
			c0,4.167-0.033,7.283-0.1,9.35l0.399,3.25c0.4,3.033,0.9,6.15,1.5,9.351c-2.733,0.267-5.283,0.399-7.649,0.399l-2.4-0.1
			c0.2-6.134,0.35-12.267,0.45-18.4l0.05-15.05c-0.633-13.633-0.716-32.633-0.25-57C84.333,54.583,84.45,35.517,84.15,24.05z"/>
		<path style="fill-rule:evenodd;clip-rule:evenodd;fill:#D99E58;" d="M100.15,1.2c0.066,7.1,0.233,13.75,0.5,19.95l0.25,16.55
			c0,4.467,0.033,11.066,0.1,19.8c-0.066,7.533-0.366,14.15-0.9,19.85l-0.3,5.15c-0.5,8.333-0.75,12.717-0.75,13.15
			c-0.033,1.467-0.033,2.933,0,4.399c0.566,1.3,1.066,2.65,1.5,4.05c0.634,1.533,1.184,3.117,1.65,4.75
			c0.467,1.4,0.883,3,1.25,4.801c1.033,6.633,1.217,14.166,0.55,22.6c-0.434,5.066-1.467,12.667-3.1,22.8
			c-0.534,3.233-0.384,6.2,0.449,8.9c0.067,0.533,0.217,1.316,0.45,2.35l-1,0.15c-0.434-2.4-0.717-4.667-0.85-6.8
			c-0.134-2-0.2-3.483-0.2-4.45l1.2-7.15c1.7-10.333,2.633-17.967,2.8-22.899c0.3-8.834-0.9-16.384-3.6-22.65
			c-0.534-1.7-1.134-3.467-1.801-5.3c-0.267-1.333-0.483-2.767-0.649-4.3c-0.434-4.733-0.05-9.283,1.149-13.65l0.4-4.8
			c0.667-12.8,0.75-26.667,0.25-41.6l-0.4-22.1C98.9,10.917,98.767,6.316,98.7,0.95L100.15,1.2z"/>
		<path style="fill-rule:evenodd;clip-rule:evenodd;fill:#D99E58;" d="M98.1,0.9l0.25,35.25c0.134,16.267-0.033,29.467-0.5,39.6
			l-0.8,8.7c-0.566,4.233-0.616,8.616-0.149,13.149c0.166,1.5,0.366,2.934,0.6,4.301l1.1,4.8c1.934,8.467,3.017,15.95,3.25,22.45
			c0.301,8.267-0.666,15.783-2.899,22.55c-0.367,1.066-0.584,2.517-0.65,4.35v4.25c0,0.833,0.066,2.117,0.2,3.851
			c0.2,2.133,0.55,4.316,1.05,6.55l-0.75,0.1c-0.366-2.7-0.633-5.6-0.8-8.7l0.6-12.85c0.834-8.8,1.25-15.917,1.25-21.35
			c0-7.768-0.75-14.783-2.25-21.051l-1.25-5.149c-0.233-1.067-0.433-2.2-0.6-3.4c-0.533-3.899-0.6-7.417-0.2-10.55
			c0.066-1.833,0.117-3.217,0.15-4.15l0.6-9.65c0.566-8.733,0.733-19.617,0.5-32.65l-0.1-4.45c-0.367-12.367-0.767-22.667-1.2-30.9
			l-0.2-5.4L98.1,0.9z"/>
		<path style="fill-rule:evenodd;clip-rule:evenodd;fill:#D99E58;" d="M92.75,45.95V0.3l2.2,0.2c0,12.667,0.149,25.367,0.45,38.1
			l0.1,4.65c0.167,3.6,0.417,8.917,0.75,15.95c0.167,5.967-0.05,11.217-0.65,15.75L94.65,87.8c-0.434,3.667-0.434,7.45,0,11.351
			l1.55,8.8c1.5,5.899,2.3,12.483,2.399,19.75c0.101,5.833-0.267,12.583-1.1,20.25l-1.2,11.5v3.2
			c0.101,2.633,0.384,5.416,0.851,8.35l-1.601,0.25c-0.733-3.333-1.25-6.35-1.55-9.05l-0.35-3.351
			c-0.167-2.133-0.351-5.416-0.551-9.85l-0.149-4.95c-0.367-4.833-0.533-10.616-0.5-17.35c0.1-7.667,0.149-13.351,0.149-17.05
			L92.4,104.1C92.134,96.633,92,90.983,92,87.15l0.5-16.95C92.566,57.5,92.65,49.417,92.75,45.95z"/>
		<path style="fill-rule:evenodd;clip-rule:evenodd;fill:#D99E58;" d="M117.1,27.65c0.267-9.633,0.417-16.833,0.45-21.6
			c2,0.833,3.65,1.55,4.95,2.15c0,2.233-0.134,9.35-0.4,21.35c-0.199,8.667-0.233,15.784-0.1,21.35l-0.3,23.5
			c0.066,1.5,0.066,3,0,4.5l-0.2,4.5c-0.634,8.534-1.634,21.167-3,37.9c-0.767,14.4-0.417,27.15,1.05,38.25
			c0.134,1.601,0.033,3.434-0.3,5.5l-4.45,1.75l0.351-4.3c0.133-6.767,0.316-20.267,0.55-40.5c0.166-16.9,0.383-30.434,0.649-40.6
			l0.551-7.9c0.233-4.367,0.35-10.867,0.35-19.5l-0.05-4.7C116.967,43.5,116.934,36.283,117.1,27.65z"/>
		<path style="fill-rule:evenodd;clip-rule:evenodd;fill:#D99E58;" d="M49.85,40.8l1,4.55l0.8,9.8c-1.1-4.466-1.85-8.117-2.25-10.95
			c-0.367-2-0.167-4.467,0.6-7.4C49.7,38.133,49.65,39.467,49.85,40.8z"/>
		<path style="fill-rule:evenodd;clip-rule:evenodd;fill:#D99E58;" d="M52.55,123.15c0.133,0.899,0.467,2.883,1,5.949
			c0.467,2.533,0.75,4.584,0.85,6.15C53.433,131.283,52.817,127.25,52.55,123.15z"/>
		<path style="fill-rule:evenodd;clip-rule:evenodd;fill:#D99E58;" d="M62.15,89.85c0.2-1.5,0.4-3.716,0.6-6.649
			c-0.333,20.833-0.1,39.649,0.7,56.45l0.1,3.85c0.067,8.467,0.067,16.9,0,25.3l-2.2-0.649c0.1-5.4,0.35-13.184,0.75-23.351
			l0.05-5.25c-0.566-11.033-0.933-19.267-1.1-24.7C60.75,105.316,61.117,96.983,62.15,89.85z"/>
		<path style="fill-rule:evenodd;clip-rule:evenodd;fill:#D99E58;" d="M5.975,97.725L5.85,105.8c0.1,3.767,0.15,7.567,0.15,11.4
			l-0.3-0.8c0.2-4.233,0.216-7.684,0.05-10.351l0.1-4.5C5.884,100.24,5.926,98.965,5.975,97.725z"/>
		<path style="fill-rule:evenodd;clip-rule:evenodd;fill:#D99E58;" d="M44.95,60.4c1.1,5,1.816,9.367,2.15,13.1
			C46.833,71.5,46.117,67.133,44.95,60.4z"/>
		<path style="fill-rule:evenodd;clip-rule:evenodd;fill:#D99E58;" d="M142.4,40.8c-0.667-7.2-1.084-12.6-1.25-16.2
			c-0.134-1.6-0.233-3.167-0.301-4.7c1.801,1.567,3.551,3.167,5.25,4.8c0.301,15.767,0.45,26.233,0.45,31.4l-0.35,30.5
			c0.166,3.9,0.267,7.833,0.3,11.8v8.1c-0.9,11.633-1.15,25.283-0.75,40.95c-1.634,1.566-3.4,3.149-5.3,4.75
			c-0.4-5.7-0.816-10.783-1.25-15.25c-0.601-4.5-0.617-10.067-0.05-16.7c0.966-10.767,1.449-16.333,1.449-16.7l0.301-13.5
			c0.066-3.7,0.017-7.417-0.15-11.15l0.2-3.4c0.5-6.1,0.85-10.684,1.05-13.75c0.167-1.566,0.267-3.133,0.3-4.7
			C142.833,52.617,142.866,47.2,142.4,40.8z"/>
		<path style="fill-rule:evenodd;clip-rule:evenodd;fill:#D99E58;" d="M151.85,30.9c1.101,1.3,2.051,2.517,2.851,3.65
			c-0.3,2.7-0.733,5.75-1.3,9.15c0,0.833-0.034,2-0.101,3.5c-0.033,1.267,0.117,2.417,0.45,3.45c0.033,1.167,0.15,2.917,0.35,5.25
			c0.334,3.5,0.884,8.717,1.65,15.65c0.6,6.134,0.75,11.384,0.45,15.75l-0.05,24.65c-0.601,6.633-0.733,14.566-0.4,23.8
			c-1.033,1.467-2.033,2.8-3,4c-0.634-12.1-0.616-21.65,0.05-28.65c0.134-2,0.2-3.467,0.2-4.399l-0.1-23.2
			c-0.067-2.934-0.284-6.883-0.65-11.85c-0.434-5.8-0.7-9.716-0.8-11.75l-0.4-4.85C150.884,49.417,151.15,41.367,151.85,30.9z"/>
		<path style="fill-rule:evenodd;clip-rule:evenodd;fill:#D99E58;" d="M159.3,41.3l-0.1,2.3c-0.066,2.267-0.084,3.95-0.05,5.05
			c0.1,3.6,0.533,8.65,1.3,15.15c0.866,7.134,1.383,12.284,1.55,15.45l0.75,45c-1.6,3.233-3.45,6.4-5.55,9.5
			c0-3.533,0.149-10.1,0.45-19.7L157.85,96c-0.033-1.633-0.133-3.267-0.3-4.9l-0.2-5.45c0-0.167,0.067-2.117,0.2-5.85
			c0.066-2.2,0-4.083-0.2-5.65c-1.267-8.167-2.1-14.466-2.5-18.9l-0.3-4.7c-0.033-4.033,0.25-9.05,0.851-15.05
			C156.9,37.533,158.2,39.467,159.3,41.3z"/>
		<path style="fill-rule:evenodd;clip-rule:evenodd;fill:#D99E58;" d="M148.9,27.55l2.25,2.6c-0.434,8.6-0.65,15.567-0.65,20.9
			l0.85,18.25c0.267,5.267,0.434,9.667,0.5,13.2l-0.149,24.75c-0.033,3.733-0.15,9.4-0.351,17c-0.133,6.8-0.133,12.517,0,17.15
			l-2.6,3c-0.366-7.434-0.517-13.684-0.45-18.75c0.033-6.834,0.417-13.084,1.15-18.75l0.149-4.5c0.067-1.768,0.051-3.351-0.05-4.75
			c-0.066-1.733-0.184-3.283-0.35-4.65l-0.05-8.9c-0.034-5.2-0.217-13-0.551-23.4l-0.1-5.2C148.5,49.333,148.634,40.017,148.9,27.55
			z"/>
		<path style="fill-rule:evenodd;clip-rule:evenodd;fill:#D99E58;" d="M168.2,69.8l-0.2-9.25c2.533,8.267,3.8,16.717,3.8,25.35
			c0,7.467-0.934,14.733-2.8,21.8l-0.2-13.25C168.566,86.316,168.366,78.1,168.2,69.8z"/>
		<path style="fill-rule:evenodd;clip-rule:evenodd;fill:#D99E58;" d="M163.05,75.65l0.25-2.8c0.066,0.933,0.066,1.85,0,2.75
			l0.2,3.9c0.267,6.667,0.434,11.783,0.5,15.35v12.4c-0.233,3.967-0.267,8.816-0.1,14.55l-0.4,0.9v-0.25
			c-0.1-5.8-0.083-11.25,0.05-16.351L163.05,75.65z"/>
		<path style="fill-rule:evenodd;clip-rule:evenodd;fill:#D99E58;" d="M147.2,126.9c-0.033,5.267,0.033,11.566,0.2,18.899l-0.4,0.4
			C146.934,139.3,147,132.867,147.2,126.9z"/>
		<path style="fill-rule:evenodd;clip-rule:evenodd;fill:#D99E58;" d="M163.55,63.1c-0.333-1.333-0.566-2.95-0.7-4.85
			c-0.133-2.133-0.233-3.684-0.3-4.65c-0.1-1.534-0.149-3.1-0.149-4.7v-2c1.5,2.9,2.716,5.6,3.649,8.1c0.167,2.5,0.45,5.3,0.851,8.4
			v5.7c0.267,7.133,0.483,15.1,0.649,23.9v19.55c-0.666,2.033-1.45,4.167-2.35,6.4L165.1,96.1c-0.333-10.233-0.566-17.8-0.699-22.7
			v-5.5C164,66.133,163.717,64.533,163.55,63.1z"/>
		<path style="fill-rule:evenodd;clip-rule:evenodd;fill:#D99E58;" d="M58,4.7v0.75c-0.067,2.267,0.617,6.033,2.05,11.3
			c1.267,4.667,1.633,8.417,1.1,11.25c-0.3,1.5-0.867,3.717-1.7,6.65c-0.567,2.567-0.65,4.767-0.25,6.6
			c1.633,10.4,2.267,22.733,1.9,37c-0.2,8.167-0.667,20.383-1.4,36.65c0,2.399,0.316,6.083,0.95,11.05
			c0.667,4.899,0.983,8.616,0.95,11.149l-0.05,5.051c-0.267,3.6-0.433,7.899-0.5,12.899c-0.066,2.9-0.133,7.233-0.2,13
			c-2.667-0.866-4.934-1.683-6.8-2.45c0.4-5.533,0.7-9.699,0.9-12.5c0.367-4.933,0.583-9.1,0.65-12.5v-4.3
			c-0.067-1.633-0.667-6-1.8-13.1c-0.9-5.4-1.066-9.817-0.5-13.25c1.733-10.567,2.367-21.134,1.9-31.7l0.05-1.65
			c0-2.867-0.267-5.867-0.8-9c-0.8-7.167-2-14.583-3.6-22.25l-0.5-5.55c-0.133-1.1-0.133-2.517,0-4.25l0.4-1.3
			c0.233-0.6,0.95-2.25,2.15-4.95c0.934-2.1,1.567-3.833,1.9-5.2c0.567-2.433,0.267-5.233-0.9-8.4c-1.566-3.567-2.65-6.267-3.25-8.1
			C53.383,6.4,55.833,5.434,58,4.7z"/>
		<path style="fill-rule:evenodd;clip-rule:evenodd;fill:#D99E58;" d="M26.6,39.5c0.133-1.367,0.2-2.9,0.2-4.6
			c-0.966-3.2-1.733-6.167-2.3-8.9l0.85-0.9c0.533,2.4,1.05,4.466,1.55,6.2c0.167,1.034,0.35,2.583,0.55,4.65
			c0.4,5.167,0.017,9.883-1.15,14.15c-0.966,4.267-1.6,7.45-1.9,9.55c-0.467,3.5-0.517,6.633-0.15,9.4
			c0.033,0.934,0.083,2.317,0.15,4.15l0.35,33.05c0.167,4.333-0.033,10.783-0.6,19.35c-0.566,8.567-0.767,14.983-0.6,19.25
			l-2.05-2.25c-0.2-2.133-0.233-4.183-0.1-6.149c0.067-1.434,0.517-6.75,1.35-15.95c0.567-6.467,0.733-11.85,0.5-16.15l0.15-32.2
			c-0.367-4.367-0.05-9.85,0.95-16.45C25.717,46.533,26.467,41.133,26.6,39.5z"/>
		<path style="fill-rule:evenodd;clip-rule:evenodd;fill:#D99E58;" d="M29.25,37.55c0.067-1.633,0.017-3.283-0.15-4.95
			c-0.934-2.933-1.733-5.883-2.4-8.85l2.6-2.35c0.5,2.8,1.15,5.667,1.95,8.6c0.4,1.434,0.583,3.133,0.55,5.1
			c0,1.133-0.066,2.817-0.2,5.05c-0.1,1.633-0.25,3.317-0.45,5.05c-0.133,1.267-0.7,5.45-1.7,12.55
			c-0.7,5.066-1.117,9.233-1.25,12.5l0.2,15.65c-0.033,1.967,0.05,4.833,0.25,8.6c0.2,3.9,0.283,6.8,0.25,8.7l-0.15,3.55
			c0,7.1-0.033,12.434-0.1,16c-0.133,6-0.417,11.383-0.85,16.15c-0.533,2.699-0.417,5.149,0.35,7.35l0.2,3.3
			c-1.8-1.667-3.117-2.95-3.95-3.85c-0.4-2.601-0.633-4.384-0.7-5.351c-0.2-2-0.15-3.783,0.15-5.35c0.933-3.566,1.367-8.233,1.3-14
			c-0.1-7.2-0.033-11.85,0.2-13.95v-36.6c0.167-0.9,0.083-2.283-0.25-4.15c-0.333-1.833-0.417-3.15-0.25-3.95
			c1.433-5.467,2.417-9.6,2.95-12.4C28.733,45.35,29.217,41.217,29.25,37.55z"/>
		<path style="fill-rule:evenodd;clip-rule:evenodd;fill:#D99E58;" d="M32.55,44.7c0.133-2.267,0.2-3.983,0.2-5.15
			c-0.3-5.366-1-11.816-2.1-19.35l1.45-1.15c0.667,3.967,1.517,7.617,2.55,10.95c0.434,1.434,0.633,3.15,0.6,5.15
			c0,1.133-0.05,2.833-0.15,5.1c-0.167,1.733-0.367,3.4-0.6,5c-0.4,2.8-1.1,7.017-2.1,12.65c-0.767,4.967-1.083,9.233-0.95,12.8
			v5.25c0.4,4.066,0.566,8.833,0.5,14.3c-0.034,3.167-0.133,7.867-0.3,14.1l-0.05,4.7c-0.033,1.434,0.033,7.3,0.2,17.601
			c0.133,7.133-0.15,12.982-0.85,17.55l-0.1,7.5l-2.05-1.75l-0.1-2.9c-0.367-2.167-0.6-3.816-0.7-4.95
			c-0.233-1.967-0.133-3.683,0.3-5.149c0.9-4.2,1.467-8.783,1.7-13.75c0.167-3.5,0.183-8.134,0.05-13.9l-0.25-4.1
			c-0.033-1.434-0.05-4.983-0.05-10.65c0.033-4.366-0.083-7.883-0.35-10.55l-0.25-15.2c-0.033-2-0.05-3.483-0.05-4.45
			c0.033-1.767,0.25-3.25,0.65-4.45C31.217,55.1,32.15,50.033,32.55,44.7z"/>
		<path style="fill-rule:evenodd;clip-rule:evenodd;fill:#D99E58;" d="M36.25,37c-0.067-2.066-0.1-5.066-0.1-9
			c-0.3-2.033-1.217-5.367-2.75-10l2.1-1.55c1,6.167,1.617,10.167,1.85,12c0.533,4.533,0.667,8.583,0.4,12.15l-0.25,4.8
			c-0.167,2.667-0.483,6.65-0.95,11.95C36.217,62.05,36.033,66,36,69.2l0.05,4.25c0.034,4.667,0.3,18.183,0.8,40.55l0.1,4.5
			c0.167,5.333,0.133,10.367-0.1,15.1l-0.8,22.15l-3.8-2.85l0.1-10.351c0.566-7,0.85-17.333,0.85-31L33.15,68.4
			c0-3.5,0.367-7.983,1.1-13.45c1.033-7.867,1.6-12.367,1.7-13.5C36.117,39.95,36.217,38.467,36.25,37z"/>
		<path style="fill-rule:evenodd;clip-rule:evenodd;fill:#D99E58;" d="M39.5,38.7l-0.2-5.25c-0.033-2.567-0.333-5.567-0.9-9
			c-0.7-3.967-1.233-6.95-1.6-8.95c1.667-1.133,3.367-2.233,5.1-3.3c0.567,4.033,0.867,8.866,0.9,14.5c0.034,3.233,0,8.066-0.1,14.5
			c-0.4,4.433-0.3,8.217,0.3,11.35l0.15,0.5c0.233,2.833,0.833,6.767,1.8,11.8c1.066,5.567,1.733,9.483,2,11.75
			c0.533,5.133,0.367,9.716-0.5,13.75c-1.133,7.434-1.833,15.351-2.1,23.75c-0.2,6.5-0.15,14.351,0.15,23.551V161.1
			c-1.967-1.066-4.083-2.35-6.35-3.85l0.15-13.65c0.034-2.366,0.017-5.916-0.05-10.649l0.1-13.25
			c0.066-3.634,0.183-20.267,0.35-49.9l-0.05-5.1C39.35,54.867,39.633,46.2,39.5,38.7z"/>
		<path style="fill-rule:evenodd;clip-rule:evenodd;fill:#D99E58;" d="M7.5,73l0.15-9.9c-0.1-2.667-0.117-6.75-0.05-12.25
			c1.566-3.467,3.233-6.65,5-9.55c0,2.767-0.05,6.934-0.15,12.5c-0.067,5.034-0.067,9.267,0,12.7l-0.2,10.25
			c-0.333,9.533-0.517,16.65-0.55,21.35v4.301c-0.267,2.8-0.35,6.683-0.25,11.649c0.066,5.3,0.017,9.15-0.15,11.55l-0.2,2.301
			c-1.5-2.634-2.85-5.384-4.05-8.25c0-0.301-0.083-2.884-0.25-7.75c-0.1-3.167-0.083-5.817,0.05-7.95L6.9,100.1
			C7.167,88.066,7.367,79.033,7.5,73z"/>
		<path style="fill-rule:evenodd;clip-rule:evenodd;fill:#D99E58;" d="M0.2,90c0.1-4.7,0.15-8.233,0.15-10.6
			C0.983,71,2.8,62.917,5.8,55.15L4.85,105.7c0.1,1.933,0.15,4.833,0.15,8.7C2.2,106.533,0.6,98.4,0.2,90z"/>
		<path style="fill-rule:evenodd;clip-rule:evenodd;fill:#D99E58;" d="M13.85,39.4c1.167-1.8,2.367-3.55,3.6-5.25
			c0.2,7.733,0.066,19.35-0.4,34.85L17,73.7c-0.233,8.767-0.367,16.633-0.4,23.6v4.7c-0.033,0.5-0.05,5.85-0.05,16.05
			c0,6.333-0.483,11.65-1.45,15.95l-0.05,0.25c-1-1.434-1.95-2.934-2.85-4.5l0.1-1.4c0.567-8.3,0.8-16.55,0.7-24.75L12.95,99.2
			c0-7.4,0.1-14.8,0.3-22.2l0.3-10.6C13.917,57.367,14.017,48.367,13.85,39.4z"/>
		<path style="fill-rule:evenodd;clip-rule:evenodd;fill:#D99E58;" d="M43.65,36.8c0.9-4.933,1.4-9.233,1.5-12.9
			c0.1-4.667-0.4-8.9-1.5-12.7c2.2-1.267,4-2.217,5.4-2.85c1.9,4.567,2.15,10.767,0.75,18.6c-1.566,8.833-2.033,14.917-1.4,18.25
			c0.067,0.433,0.733,3.85,2,10.25c0.8,4.066,1.417,7.433,1.85,10.1c0.733,13.034,0.95,25.634,0.65,37.8l-0.55,2.7
			c-0.9,4.8-1.067,10.2-0.5,16.2c0.667,4.133,1.1,7.066,1.3,8.8c0.367,3.267,0.5,6.15,0.4,8.65l-0.1,3.899
			c-0.133,2.9-0.35,6.434-0.65,10.601c-0.167,2.366-0.433,5.883-0.8,10.55c-1.467-0.6-3.367-1.5-5.7-2.7l0.35-7.05
			c0.3-5.3,0.4-9.983,0.3-14.05l-0.1-3.5c-0.533-2.8-0.917-5.384-1.15-7.75c-0.7-9.333-0.367-20.067,1-32.2l0.05-0.25l1.15-9.85
			c0.7-5.434,0.684-11.233-0.05-17.4c-0.567-4.9-1.7-10.717-3.4-17.45c-0.567-2.3-0.934-3.95-1.1-4.95
			C43.283,45.2,43.383,41.6,43.65,36.8z"/>
		<path style="fill-rule:evenodd;clip-rule:evenodd;fill:#D99E58;" d="M19.6,37.25l-0.2-5.55c0.967-1.2,2.184-2.6,3.65-4.2
			l0.55,3.85c0.1,1.133,0.183,2.867,0.25,5.2c0.1,4.134-0.184,10.167-0.85,18.1c-0.633,8.1-0.933,14.1-0.9,18l0.2,30.8
			c0.034,2.667,0.2,6.75,0.5,12.25c0.1,4.767-0.367,8.583-1.4,11.45c-0.7,2.3-1.05,4.783-1.05,7.449c0,2.033,0.217,4.5,0.65,7.4
			c-1.633-1.9-3.183-3.85-4.65-5.85c0.066-1.434,0.283-2.801,0.65-4.101c0.933-3.5,1.283-8.267,1.05-14.3
			c-0.267-7.367-0.283-12.25-0.05-14.65l-0.05-5.5C17.883,92.4,17.933,85.85,18.1,77.95l0.25-10.35
			c0.033-3.167,0.267-8.233,0.7-15.2C19.45,45.867,19.633,40.816,19.6,37.25z"/>
		<path style="fill-rule:evenodd;clip-rule:evenodd;fill:#D99E58;" d="M63.2,7.25c-0.233-1.033-0.233-2.3,0-3.8l0.1-0.4l3.45-0.85
			C66.483,4,66.4,5.95,66.5,8.05c0.033,1.3,0.133,2.634,0.3,4c0.5,2.134,0.75,5.5,0.75,10.1c0,6.767-0.283,26.4-0.85,58.9
			c-0.4,24.033-0.35,43.717,0.15,59.05l0.2,10.101c-0.167,2.533-0.15,5.783,0.05,9.75c0.3,5.6,0.45,8.883,0.45,9.85l-2.95-0.7
			v-33.05c0-2.167-0.167-5.3-0.5-9.399c-0.333-4.101-0.5-7.2-0.5-9.301c-0.133-7.533,0.066-21.6,0.6-42.2
			c0.466-17.8,0.433-31.867-0.1-42.2c0-0.6,0.183-1.417,0.55-2.45c0.467-1.167,0.767-2,0.9-2.5c0.2-2.767-0.017-6.2-0.65-10.3
			C64.067,13.1,63.5,9.617,63.2,7.25z"/>
		<path style="fill-rule:evenodd;clip-rule:evenodd;fill:#D99E58;" d="M62.65,23.1c0.4-2.267,0.217-4.85-0.55-7.75
			c-1.1-3.267-1.883-5.683-2.35-7.25c-0.333-1.467-0.55-2.717-0.65-3.75l2.55-0.8V5.5c0.133,1.267,0.3,2.383,0.5,3.35
			c1.3,6.633,1.95,13.833,1.95,21.6c-0.233,9-0.6,22.467-1.1,40.4c-0.5-10.567-0.867-18.483-1.1-23.75
			C61.533,37.7,61.783,29.7,62.65,23.1z"/>
		<path style="fill-rule:evenodd;clip-rule:evenodd;fill:#AF6924;" d="M0.1,85.9c0-1.933,0.083-4.1,0.25-6.5
			c0,2.367-0.05,5.9-0.15,10.6L0.1,85.9z"/>
		<path style="fill-rule:evenodd;clip-rule:evenodd;fill:#AF6924;" d="M5.8,55.15l1.05-2.65L6.6,69.8
			c-0.133,7.067-0.383,17.65-0.75,31.75l-0.1,4.5c0.167,2.667,0.15,6.117-0.05,10.351l-0.7-2c0-3.867-0.05-6.768-0.15-8.7L5.8,55.15
			z"/>
		<path style="fill-rule:evenodd;clip-rule:evenodd;fill:#AF6924;" d="M7.65,63.1L7.5,73c-0.133,6.033-0.333,15.066-0.6,27.1
			l-0.05,3.851c-0.133,2.133-0.15,4.783-0.05,7.95c0.167,4.866,0.25,7.449,0.25,7.75c-0.466-1.101-0.816-1.917-1.05-2.45
			c0-3.833-0.05-7.634-0.15-11.4l1-53.3l0.75-1.65C7.533,56.35,7.55,60.434,7.65,63.1z"/>
		<path style="fill-rule:evenodd;clip-rule:evenodd;fill:#AF6924;" d="M12.6,41.3l1.25-1.9c0.167,8.967,0.066,17.967-0.3,27
			L13.25,77c-0.2,7.4-0.3,14.8-0.3,22.2L13,103.6c0.1,8.2-0.133,16.45-0.7,24.75l-0.1,1.4l-1.1-1.85l0.2-2.301
			c0.167-2.399,0.217-6.25,0.15-11.55c-0.1-4.967-0.017-8.85,0.25-11.649V98.1c0.033-4.699,0.216-11.816,0.55-21.35l0.2-10.25
			c-0.067-3.434-0.067-7.667,0-12.7C12.55,48.233,12.6,44.066,12.6,41.3z"/>
		<path style="fill-rule:evenodd;clip-rule:evenodd;fill:#AF6924;" d="M19.4,31.7l0.2,5.55c0.033,3.566-0.15,8.617-0.55,15.15
			c-0.433,6.967-0.667,12.034-0.7,15.2L18.1,77.95c-0.167,7.9-0.217,14.45-0.15,19.649l0.05,5.5c-0.233,2.4-0.217,7.283,0.05,14.65
			c0.233,6.033-0.117,10.8-1.05,14.3c-0.367,1.3-0.583,2.667-0.65,4.101l-1.3-1.9L15.1,134c0.967-4.3,1.45-9.617,1.45-15.95
			c0-10.2,0.017-15.55,0.05-16.05v-4.7c0.033-6.967,0.167-14.833,0.4-23.6l0.05-4.7c0.467-15.5,0.6-27.117,0.4-34.85
			C17.983,33.383,18.633,32.566,19.4,31.7z"/>
		<path style="fill-rule:evenodd;clip-rule:evenodd;fill:#AF6924;" d="M23.85,36.55c-0.067-2.333-0.15-4.066-0.25-5.2l-0.55-3.85
			l1.4-1.5c0.633,2.867,1.417,5.833,2.35,8.9c0,1.7-0.066,3.233-0.2,4.6c-0.133,1.633-0.883,7.033-2.25,16.2
			c-1,6.6-1.317,12.083-0.95,16.45l-0.15,32.2c0.233,4.301,0.067,9.684-0.5,16.15c-0.833,9.2-1.283,14.517-1.35,15.95
			c-0.133,1.967-0.1,4.017,0.1,6.149L21,142c-0.433-2.9-0.65-5.367-0.65-7.4c0-2.666,0.35-5.149,1.05-7.449
			c1.033-2.867,1.5-6.684,1.4-11.45c-0.3-5.5-0.466-9.583-0.5-12.25l-0.2-30.8c-0.033-3.9,0.267-9.9,0.9-18
			C23.667,46.717,23.95,40.684,23.85,36.55z"/>
		<path style="fill-rule:evenodd;clip-rule:evenodd;fill:#AF6924;" d="M27.45,35.95c-0.2-2.067-0.383-3.617-0.55-4.65
			c-0.5-1.733-1.017-3.8-1.55-6.2l1.35-1.35c0.667,2.967,1.466,5.917,2.4,8.85c0.167,1.667,0.217,3.317,0.15,4.95
			c-0.033,3.667-0.517,7.8-1.45,12.4c-0.533,2.8-1.517,6.933-2.95,12.4c-0.167,0.8-0.083,2.117,0.25,3.95
			c0.333,1.867,0.417,3.25,0.25,4.15v36.6c-0.233,2.101-0.3,6.75-0.2,13.95c0.067,5.767-0.367,10.434-1.3,14
			c-0.3,1.566-0.35,3.35-0.15,5.35c0.066,0.967,0.3,2.75,0.7,5.351l-0.85-0.851c-0.167-4.267,0.034-10.683,0.6-19.25
			c0.567-8.566,0.767-15.017,0.6-19.35L24.4,73.2c-0.066-1.833-0.117-3.217-0.15-4.15c-0.367-2.767-0.317-5.9,0.15-9.4
			c0.3-2.1,0.934-5.283,1.9-9.55C27.467,45.833,27.85,41.117,27.45,35.95z"/>
		<path style="fill-rule:evenodd;clip-rule:evenodd;fill:#AF6924;" d="M31.6,40.15c0.133-2.233,0.2-3.917,0.2-5.05
			c0.034-1.967-0.15-3.667-0.55-5.1c-0.8-2.934-1.45-5.8-1.95-8.6l1.35-1.2c1.1,7.533,1.8,13.983,2.1,19.35
			c0,1.167-0.067,2.884-0.2,5.15c-0.4,5.333-1.333,10.4-2.8,15.2c-0.4,1.2-0.617,2.684-0.65,4.45c0,0.966,0.017,2.45,0.05,4.45
			L29.4,84c0.267,2.667,0.383,6.184,0.35,10.55c0,5.667,0.017,9.217,0.05,10.65l0.25,4.1c0.133,5.767,0.117,10.4-0.05,13.9
			c-0.233,4.967-0.8,9.55-1.7,13.75c-0.433,1.467-0.533,3.183-0.3,5.149c0.1,1.134,0.333,2.783,0.7,4.95l0.1,2.9l-0.45-0.4l-0.2-3.3
			c-0.767-2.2-0.883-4.65-0.35-7.35c0.434-4.768,0.717-10.15,0.85-16.15c0.067-3.566,0.1-8.9,0.1-16l0.15-3.55
			c0.033-1.9-0.05-4.8-0.25-8.7c-0.2-3.767-0.283-6.633-0.25-8.6l-0.2-15.65c0.133-3.267,0.55-7.434,1.25-12.5
			c1-7.1,1.566-11.283,1.7-12.55C31.35,43.467,31.5,41.783,31.6,40.15z"/>
		<path style="fill-rule:evenodd;clip-rule:evenodd;fill:#AF6924;" d="M35.1,40.25c0.1-2.267,0.15-3.967,0.15-5.1
			c0.033-2-0.167-3.716-0.6-5.15c-1.033-3.333-1.883-6.983-2.55-10.95L33.4,18c1.533,4.633,2.45,7.967,2.75,10
			c0,3.934,0.033,6.934,0.1,9c-0.033,1.467-0.133,2.95-0.3,4.45c-0.1,1.133-0.667,5.633-1.7,13.5c-0.733,5.467-1.1,9.95-1.1,13.45
			l0.05,43.15c0,13.667-0.284,24-0.85,31l-0.1,10.351l-1.4-1.2l0.1-7.5c0.7-4.567,0.983-10.417,0.85-17.55
			c-0.167-10.301-0.233-16.167-0.2-17.601l0.05-4.7c0.167-6.232,0.267-10.933,0.3-14.1c0.066-5.467-0.1-10.233-0.5-14.3V70.7
			c-0.133-3.567,0.183-7.833,0.95-12.8c1-5.633,1.7-9.85,2.1-12.65C34.733,43.65,34.933,41.983,35.1,40.25z"/>
		<path style="fill-rule:evenodd;clip-rule:evenodd;fill:#AF6924;" d="M36.75,15.55l0.05-0.05c0.367,2,0.9,4.983,1.6,8.95
			c0.567,3.433,0.867,6.433,0.9,9l0.2,5.25c0.133,7.5-0.15,16.167-0.85,26l0.05,5.1c-0.167,29.634-0.284,46.267-0.35,49.9
			l-0.1,13.25c0.067,4.733,0.083,8.283,0.05,10.649l-0.15,13.65L37,156.4l0.4-6.95l0.3-29.2c-0.034-3.667,0.083-12.083,0.35-25.25
			c0.167-10.5,0.133-18.917-0.1-25.25L37.9,65c0.033-2.833,0.184-6.45,0.45-10.85c0.4-6.566,0.617-10.2,0.65-10.9
			c0.1-1.434,0.15-2.883,0.15-4.35c0.067-2.4,0.083-4.216,0.05-5.45c0-2.2-0.2-4.017-0.6-5.45
			C37.833,24.367,37.217,20.217,36.75,15.55z"/>
		<path style="fill-rule:evenodd;clip-rule:evenodd;fill:#AF6924;" d="M37.35,28.45c-0.233-1.833-0.85-5.833-1.85-12L36.15,16
			c1.233,6.5,1.967,10.633,2.2,12.4c0.6,4.7,0.667,8.934,0.2,12.7l-0.45,4.6c-0.633,6.133-1,9.983-1.1,11.55
			c-0.3,4.3-0.317,8.1-0.05,11.4l0.25,52.3c-0.1,3.033-0.117,6.55-0.05,10.55l-0.3,24.8l-0.8-0.55l0.8-22.15
			c0.233-4.732,0.267-9.767,0.1-15.1l-0.1-4.5c-0.5-22.367-0.767-35.883-0.8-40.55L36,69.2c0.033-3.2,0.217-7.15,0.55-11.85
			c0.467-5.3,0.784-9.284,0.95-11.95l0.25-4.8C38.017,37.033,37.883,32.983,37.35,28.45z"/>
		<path style="fill-rule:evenodd;clip-rule:evenodd;fill:#AF6924;" d="M36.15,16l0.6-0.45c0.467,4.667,1.083,8.817,1.85,12.45
			c0.4,1.434,0.6,3.25,0.6,5.45c0.033,1.233,0.017,3.05-0.05,5.45c0,1.467-0.05,2.917-0.15,4.35c-0.033,0.7-0.25,4.333-0.65,10.9
			c-0.267,4.4-0.417,8.017-0.45,10.85l0.05,4.75c0.233,6.333,0.267,14.75,0.1,25.25c-0.267,13.167-0.383,21.583-0.35,25.25
			l-0.3,29.2l-0.35,3.399l0.1-21.35c-0.066-4-0.05-7.517,0.05-10.55l-0.25-52.3c-0.267-3.3-0.25-7.1,0.05-11.4
			c0.1-1.566,0.467-5.417,1.1-11.55l0.45-4.6c0.467-3.767,0.4-8-0.2-12.7C38.117,26.633,37.383,22.5,36.15,16z"/>
		<path style="fill-rule:evenodd;clip-rule:evenodd;fill:#AF6924;" d="M43,40.3l0.65-3.5c-0.267,4.8-0.367,8.4-0.3,10.8
			C42.883,44.8,42.767,42.367,43,40.3z"/>
		<path style="fill-rule:evenodd;clip-rule:evenodd;fill:#AF6924;" d="M45.85,106.35c-0.625,8.571-0.675,16.355-0.15,23.351
			c-0.5-4.9-0.617-10.267-0.35-16.101C45.433,111.45,45.6,109.033,45.85,106.35z"/>
		<path style="fill-rule:evenodd;clip-rule:evenodd;fill:#AF6924;" d="M46.45,90.35c0.867-4.033,1.033-8.616,0.5-13.75
			c-0.267-2.267-0.934-6.183-2-11.75c-0.967-5.034-1.567-8.967-1.8-11.8c0.667,2.467,1.267,4.917,1.8,7.35
			c1.167,6.733,1.883,11.1,2.15,13.1c0.2,2.167,0.3,4.35,0.3,6.55c0.133,4.567-0.5,13.917-1.9,28.05
			c-1.167,11.768-1.2,21.283-0.1,28.551L45,161.4l-0.5-0.301V137.65c-0.3-9.2-0.35-17.051-0.15-23.551
			C44.617,105.7,45.317,97.783,46.45,90.35z"/>
		<path style="fill-rule:evenodd;clip-rule:evenodd;fill:#AF6924;" d="M42.7,41.2c0.1-6.434,0.133-11.267,0.1-14.5
			c-0.033-5.634-0.333-10.467-0.9-14.5l0.5-0.3c0.967,6,1.5,9.417,1.6,10.25c0.233,2.667,0.167,5.85-0.2,9.55
			C43.6,33.833,43.233,37,42.7,41.2z"/>
		<path style="fill-rule:evenodd;clip-rule:evenodd;fill:#AF6924;" d="M46.4,140.65l-0.1-4.5c-0.233-2.134-0.433-4.283-0.6-6.45
			c0.233,2.366,0.617,4.95,1.15,7.75l0.1,3.5c0.1,4.066,0,8.75-0.3,14.05l-0.35,7.05l-0.45-0.25l0.1-2.95
			C46.217,150.717,46.367,144.65,46.4,140.65z"/>
		<path style="fill-rule:evenodd;clip-rule:evenodd;fill:#AF6924;" d="M47.75,88.9c0.367-4.601,0.15-9.733-0.65-15.4
			c-0.333-3.733-1.05-8.1-2.15-13.1c-0.633-3.5-1.117-6.767-1.45-9.8l-0.15-3c0.167,1,0.533,2.65,1.1,4.95
			c1.7,6.733,2.833,12.55,3.4,17.45c0.733,6.167,0.75,11.967,0.05,17.4L47.75,88.9z"/>
		<path style="fill-rule:evenodd;clip-rule:evenodd;fill:#AF6924;" d="M43,51.55l0.15,1.5L43,52.55c-0.6-3.133-0.7-6.917-0.3-11.35
			C42.7,45.367,42.8,48.816,43,51.55z"/>
		<path style="fill-rule:evenodd;clip-rule:evenodd;fill:#AF6924;" d="M43.65,36.8c0.434-6.733,0.667-10.966,0.7-12.7
			c0.1-4.8-0.2-9.067-0.9-12.8l0.2-0.1c1.1,3.8,1.6,8.033,1.5,12.7C45.05,27.566,44.55,31.867,43.65,36.8z"/>
		<path style="fill-rule:evenodd;clip-rule:evenodd;fill:#AF6924;" d="M42.7,41.2c0.533-4.2,0.9-7.367,1.1-9.5
			c0.367-3.7,0.434-6.884,0.2-9.55c-0.1-0.833-0.633-4.25-1.6-10.25l1.05-0.6c0.7,3.733,1,8,0.9,12.8
			c-0.033,1.733-0.267,5.966-0.7,12.7L43,40.3c-0.233,2.067-0.117,4.5,0.35,7.3l0.15,3c0.333,3.033,0.817,6.3,1.45,9.8
			c-0.534-2.433-1.133-4.883-1.8-7.35L43,51.55C42.8,48.816,42.7,45.367,42.7,41.2z"/>
		<path style="fill-rule:evenodd;clip-rule:evenodd;fill:#AF6924;" d="M47.4,80.05c0-2.2-0.1-4.383-0.3-6.55
			c0.8,5.667,1.017,10.8,0.65,15.4l-1,8.35L46.7,97.5c-0.733,6.434-1.184,11.8-1.35,16.1c-0.267,5.834-0.15,11.2,0.35,16.101
			c0.167,2.167,0.367,4.316,0.6,6.45l0.1,4.5c-0.033,4-0.183,10.066-0.45,18.199l-0.1,2.95L45,161.4l0.4-24.75
			c-1.1-7.268-1.066-16.783,0.1-28.551C46.9,93.967,47.533,84.617,47.4,80.05z"/>
		<path style="fill-rule:evenodd;clip-rule:evenodd;fill:#AF6924;" d="M55.25,76.6l-0.05,1.65c-0.133-3.533-0.383-7.083-0.75-10.65
			C54.983,70.733,55.25,73.733,55.25,76.6z"/>
		<path style="fill-rule:evenodd;clip-rule:evenodd;fill:#AF6924;" d="M50.95,10.15l1.3,4.75c0.433,2.833,0.333,6.35-0.3,10.55
			c-0.367,2.3-0.883,5.616-1.55,9.95L50,36.8c-0.767,2.934-0.967,5.4-0.6,7.4c0.4,2.833,1.15,6.483,2.25,10.95
			c0.267,3.534,0.467,7,0.6,10.4c-0.433-2.667-1.05-6.033-1.85-10.1c-1.267-6.4-1.933-9.817-2-10.25
			c-0.633-3.333-0.167-9.417,1.4-18.25c1.4-7.833,1.15-14.033-0.75-18.6L50,7.9l0.2,0.65L50.95,10.15z"/>
		<path style="fill-rule:evenodd;clip-rule:evenodd;fill:#AF6924;" d="M52.35,117.65v0.149c-0.133,1.601-0.067,3.384,0.2,5.351
			c0.267,4.1,0.883,8.133,1.85,12.1l0.1,1.45c0,1.667-0.05,3.316-0.15,4.95c-0.133,3.1-0.367,6.982-0.7,11.649
			c-0.2,2.601-0.5,6.533-0.9,11.8L52,164.75c0.367-4.667,0.633-8.184,0.8-10.55c0.3-4.167,0.517-7.7,0.65-10.601l0.1-3.899
			c0.1-2.5-0.033-5.384-0.4-8.65c-0.2-1.733-0.633-4.667-1.3-8.8c-0.567-6-0.4-11.4,0.5-16.2l0.55-2.7l-0.1,2.75
			C52.467,110.5,52.317,114.35,52.35,117.65z"/>
		<path style="fill-rule:evenodd;clip-rule:evenodd;fill:#AF6924;" d="M52.25,65.55c1.6,9.534,2.3,17.833,2.1,24.9L52.9,103.35
			C53.2,91.184,52.983,78.583,52.25,65.55z"/>
		<path style="fill-rule:evenodd;clip-rule:evenodd;fill:#AF6924;" d="M54.35,90.45c0.433-4.333,0.717-8.4,0.85-12.2
			c0.466,10.566-0.167,21.133-1.9,31.7c-0.566,3.433-0.4,7.85,0.5,13.25c1.133,7.1,1.733,11.467,1.8,13.1v4.3
			c-0.067,3.4-0.283,7.567-0.65,12.5c-0.2,2.801-0.5,6.967-0.9,12.5l-0.75-0.3c0.434-5.399,0.733-9.467,0.9-12.2
			c0.3-4.666,0.466-8.717,0.5-12.149c0-1.7-0.05-3.384-0.15-5.05l-0.15-0.65c-0.1-1.566-0.383-3.617-0.85-6.15
			c-0.533-3.066-0.867-5.05-1-5.949c-0.133-1.634-0.2-3.467-0.2-5.5c0.2-3.834,0.35-7.684,0.45-11.551l0.4-4.5
			C53.8,98.1,54.183,94.383,54.35,90.45z"/>
		<path style="fill-rule:evenodd;clip-rule:evenodd;fill:#AF6924;" d="M52.25,14.9c-0.267-1.767-0.7-3.35-1.3-4.75l-0.55-2.4
			l0.25-0.15c0.6,1.833,1.684,4.533,3.25,8.1c1.167,3.167,1.467,5.967,0.9,8.4c-0.333,1.367-0.966,3.083-1.9,5.15
			c-1.2,2.7-1.917,4.367-2.15,5c1.367-4,2.217-6.733,2.55-8.2C53.767,22.95,53.417,19.233,52.25,14.9z"/>
		<path style="fill-rule:evenodd;clip-rule:evenodd;fill:#AF6924;" d="M54.45,67.6c-0.367-2.133-1.3-6.284-2.8-12.45l-0.8-9.8
			C52.45,53.017,53.65,60.434,54.45,67.6z"/>
		<path style="fill-rule:evenodd;clip-rule:evenodd;fill:#AF6924;" d="M49.85,40.8c-0.2-1.333-0.15-2.667,0.15-4l0.35-1.25
			c-0.133,1.733-0.133,3.15,0,4.25l0.5,5.55L49.85,40.8z"/>
		<path style="fill-rule:evenodd;clip-rule:evenodd;fill:#AF6924;" d="M53.3,26.05c-0.333,1.467-1.183,4.2-2.55,8.2L50.4,35.4
			c0.667-4.333,1.184-7.65,1.55-9.95c0.633-4.2,0.733-7.717,0.3-10.55C53.417,19.233,53.767,22.95,53.3,26.05z"/>
		<path style="fill-rule:evenodd;clip-rule:evenodd;fill:#AF6924;" d="M54.55,135.9c0.1,1.666,0.15,3.35,0.15,5.05
			c-0.034,3.433-0.2,7.483-0.5,12.149c-0.167,2.733-0.467,6.801-0.9,12.2l-0.55-0.2c0.4-5.267,0.7-9.199,0.9-11.8
			c0.333-4.667,0.567-8.55,0.7-11.649c0.1-1.634,0.15-3.283,0.15-4.95l-0.1-1.45L54.55,135.9z"/>
		<path style="fill-rule:evenodd;clip-rule:evenodd;fill:#AF6924;" d="M54.35,90.45c0.2-7.067-0.5-15.367-2.1-24.9
			c-0.133-3.433-0.333-6.883-0.6-10.35c1.467,5.967,2.4,10.1,2.8,12.4c0.367,3.567,0.617,7.117,0.75,10.65
			C55.067,82.05,54.783,86.117,54.35,90.45z"/>
		<polygon style="fill-rule:evenodd;clip-rule:evenodd;fill:#AF6924;" points="50.4,7.75 50.95,10.15 50.2,8.55 50,7.9 		"/>
		<path style="fill-rule:evenodd;clip-rule:evenodd;fill:#AF6924;" d="M59.75,8.1c0.467,1.567,1.25,3.983,2.35,7.25
			c0.767,2.9,0.95,5.483,0.55,7.75c-0.867,6.6-1.117,14.6-0.75,24c0.233,5.267,0.6,13.183,1.1,23.75L62.75,83.2
			c-0.2,2.933-0.4,5.149-0.6,6.649c-1.033,7.167-1.4,15.5-1.1,25c0.167,5.467,0.534,13.7,1.1,24.7l-0.05,5.25
			c-0.4,10.167-0.65,17.967-0.75,23.4c-0.233-0.067-0.4-0.117-0.5-0.15c0.066-5.767,0.133-10.1,0.2-13c0.067-5,0.233-9.3,0.5-12.899
			l0.05-5.051c0.033-2.533-0.283-6.25-0.95-11.149c-0.633-4.967-0.95-8.65-0.95-11.05c0.733-16.268,1.2-28.483,1.4-36.65
			c0.367-14.267-0.267-26.6-1.9-37c-0.4-1.833-0.317-4.033,0.25-6.6c0.833-2.933,1.4-5.15,1.7-6.65
			c0.533-2.833,0.167-6.583-1.1-11.25c-1.433-5.267-2.117-9.033-2.05-11.3V4.7l1.1-0.35C59.2,5.383,59.417,6.633,59.75,8.1z"/>
		<path style="fill-rule:evenodd;clip-rule:evenodd;fill:#AF6924;" d="M61.65,5.5V3.55l1.65-0.5l-0.1,0.4
			c-0.233,1.5-0.233,2.767,0,3.8c0.3,2.367,0.867,5.85,1.7,10.45c0.633,4.1,0.85,7.533,0.65,10.3c-0.133,0.5-0.433,1.333-0.9,2.5
			c-0.367,1.033-0.55,1.85-0.55,2.45c0.533,10.333,0.566,24.4,0.1,42.2c-0.534,20.6-0.733,34.667-0.6,42.2
			c0,2.101,0.167,5.2,0.5,9.301c0.333,4.1,0.5,7.232,0.5,9.399v33.05l-1.05-0.3c0.067-8.399,0.067-16.833,0-25.3l-0.1-3.85
			c-0.8-16.801-1.034-35.617-0.7-56.45c0.267-3.8,0.35-7.917,0.25-12.35c0.5-17.933,0.867-31.4,1.1-40.4
			c0-7.767-0.65-14.967-1.95-21.6C61.95,7.883,61.783,6.767,61.65,5.5z"/>
		<path style="fill-rule:evenodd;clip-rule:evenodd;fill:#AF6924;" d="M66.5,8.05C66.4,5.95,66.483,4,66.75,2.2l1.15-0.25L67.6,4.2
			c-0.1,1.233-0.117,2.667-0.05,4.3l0.35,4.35c0.5,13.433,0.383,34.2-0.35,62.3c-0.7,27.3-0.716,48.15-0.05,62.55l0.75,15.25
			c0.1,2,0.233,4.883,0.4,8.649c0.133,3.233,0.184,6.051,0.15,8.45l-1.25-0.25c0-0.967-0.15-4.25-0.45-9.85
			c-0.2-3.967-0.217-7.217-0.05-9.75l-0.2-10.101c-0.5-15.333-0.55-35.017-0.15-59.05c0.566-32.5,0.85-52.133,0.85-58.9
			c0-4.6-0.25-7.966-0.75-10.1C66.633,10.684,66.533,9.35,66.5,8.05z"/>
		<path style="fill-rule:evenodd;clip-rule:evenodd;fill:#AF6924;" d="M70.9,46.2c-0.066-15.533-0.033-26.167,0.1-31.9v-0.75
			l0.05,0.95c0.333,14.867,0.284,33.883-0.15,57.05c-0.195,11.046-0.403,20.546-0.625,28.5c-0.017-8.45,0.059-15.783,0.225-22
			C70.867,70.283,71,59.667,70.9,46.2z"/>
		<path style="fill-rule:evenodd;clip-rule:evenodd;fill:#AF6924;" d="M72,14.55V1.15l0.2-0.05v9.75c0.133,1.733,0.2,3.617,0.2,5.65
			l-0.2,16.55C71.9,25.316,71.833,19.15,72,14.55z"/>
		<polygon style="fill-rule:evenodd;clip-rule:evenodd;fill:#AF6924;" points="71,8.1 71,1.35 71.2,1.3 71.2,6.05 		"/>
		<path style="fill-rule:evenodd;clip-rule:evenodd;fill:#AF6924;" d="M71.1,144.25c-0.067-1.566-0.117-2.733-0.15-3.5v-3.45
			c-0.133-16.467-0.2-28.816-0.2-37.05c-0.033-14.4,0.3-26.783,1-37.15C71.25,94.467,71,119.55,71,138.35l0.4,11.851
			c0.167,2.3,0.4,5.733,0.7,10.3c0.267,3.967,0.433,7.383,0.5,10.25l-0.15-0.05v-0.3c-0.633-5.834-1.067-12.801-1.3-20.9
			L71.1,144.25z"/>
		<path style="fill-rule:evenodd;clip-rule:evenodd;fill:#AF6924;" d="M72.2,33.05c0.2,6.233,0.316,10.7,0.35,13.4
			c0,5-0.2,9.483-0.6,13.45l-0.2,3.2L72.2,33.05z"/>
		<path style="fill-rule:evenodd;clip-rule:evenodd;fill:#AF6924;" d="M71.2,6.05V1.3L72,1.15v13.4c-0.167,4.6-0.1,10.767,0.2,18.5
			L71.75,63.1c-0.7,10.367-1.033,22.75-1,37.15c0,8.233,0.067,20.583,0.2,37.05v3.45c0.033,0.767,0.083,1.934,0.15,3.5l0.05,5.25
			c0.233,8.1,0.667,15.066,1.3,20.9v0.3L71.7,170.6L70.25,149L70,128.75c0.033-6,0.333-25.066,0.9-57.2
			c0.434-23.167,0.483-42.183,0.15-57.05L71,8.1L71.2,6.05z"/>
		<path style="fill-rule:evenodd;clip-rule:evenodd;fill:#AF6924;" d="M77.85,0.4l0.05,17.85c0.4,16.7,0.4,36.566,0,59.6
			c-0.233,13.233-0.683,33.1-1.35,59.6l-0.15,5c0,2.233,0.033,3.899,0.1,5l0.1,4.649c0.133,1.067,0.233,3.117,0.3,6.15l1.05,13.15
			L76.8,171.3l-0.05-0.25c-0.067-3.267-0.4-9.417-1-18.45l-0.4-10.699c-0.067-2.667-0.083-4.684-0.05-6.051
			c0.667-25.699,1.117-45.449,1.35-59.25c0.333-21.8,0.383-41.55,0.15-59.25V0.5L77.85,0.4z"/>
		<path style="fill-rule:evenodd;clip-rule:evenodd;fill:#AF6924;" d="M81.6,0.1l0.05,21.65c0.434,14.7,0.434,34.117,0,58.25
			c-0.533,30.133-0.783,49.533-0.75,58.2l0.45,14c0.167,6.967,0.2,13.45,0.1,19.45l-1.1-0.101l0.1-5.3
			c0.133-3.667-0.017-8.283-0.45-13.85l-0.35-4.7c-0.133-1.033-0.267-2.55-0.4-4.55l-0.1-4.5c0.733-17.567,1.217-37.184,1.45-58.851
			c0.133-13.066,0.2-32.7,0.2-58.9L80.7,0.2L81.6,0.1z"/>
		<path style="fill-rule:evenodd;clip-rule:evenodd;fill:#AF6924;" d="M84.15,0.05v24c0.3,11.467,0.184,30.534-0.35,57.2
			c-0.466,24.367-0.383,43.367,0.25,57L84,153.3c-0.1,6.134-0.25,12.267-0.45,18.4h-0.8V150.6c0.1-3.3,0.15-6.616,0.15-9.949
			l-0.05-5c-0.6-6.9-0.65-15.7-0.15-26.4c0.7-14.333,1.05-23.083,1.05-26.25c-0.167-6.367-0.25-15.85-0.25-28.45
			c0-12.533-0.083-21.966-0.25-28.3L83.2,0.1C83.4,0.066,83.717,0.05,84.15,0.05z"/>
		<path style="fill-rule:evenodd;clip-rule:evenodd;fill:#AF6924;" d="M92.75,0.3v45.65c-0.1,3.467-0.184,11.55-0.25,24.25L92,87.15
			c0,3.833,0.134,9.482,0.4,16.949l0.199,5.551c0,3.699-0.05,9.383-0.149,17.05c-0.033,6.733,0.133,12.517,0.5,17.35l0.149,4.9
			c0.2,4.399,0.384,7.7,0.551,9.899L94,162.2c0.3,2.733,0.816,5.733,1.55,9l-1.95,0.2c-0.6-3.2-1.1-6.317-1.5-9.351L91.7,158.8
			c0.066-2.066,0.1-5.183,0.1-9.35l-0.05-4.75c-0.033-1.967-0.233-7.5-0.6-16.601c-0.267-6.732-0.317-12.283-0.15-16.649l0.05-4.8
			c-0.1-2.367-0.149-4.15-0.149-5.351c-0.101-3.8-0.084-7.35,0.05-10.649L91,86.8c0.167-8.533,0.283-14.917,0.35-19.15l0.101-4.95
			c0.133-3.134,0.149-6.434,0.05-9.9V0.2L92.75,0.3z"/>
		<path style="fill-rule:evenodd;clip-rule:evenodd;fill:#AF6924;" d="M95.5,43.25l-0.1-4.65C95.1,25.867,94.95,13.167,94.95,0.5
			l0.35,0.05l0.2,5.4c0.434,8.233,0.833,18.533,1.2,30.9l0.1,4.45c0.233,13.034,0.066,23.917-0.5,32.65l-0.6,9.65
			c-0.033,0.933-0.084,2.317-0.15,4.15c-0.399,3.133-0.333,6.65,0.2,10.55c0.167,1.2,0.366,2.333,0.6,3.4l1.25,5.149
			c1.5,6.268,2.25,13.283,2.25,21.051c0,5.433-0.416,12.55-1.25,21.35L98,162.1c0.167,3.101,0.434,6,0.8,8.7L97.15,171
			c-0.467-2.934-0.75-5.717-0.851-8.35v-3.2l1.2-11.5c0.833-7.667,1.2-14.417,1.1-20.25c-0.1-7.267-0.899-13.851-2.399-19.75
			l-1.55-8.8c-0.434-3.9-0.434-7.684,0-11.351L95.6,74.95c0.601-4.533,0.817-9.783,0.65-15.75
			C95.917,52.167,95.667,46.85,95.5,43.25z"/>
		<path style="fill-rule:evenodd;clip-rule:evenodd;fill:#AF6924;" d="M98.7,0.95c0.066,5.366,0.2,9.967,0.399,13.8l0.4,22.1
			c0.5,14.933,0.417,28.8-0.25,41.6l-0.4,4.8c-1.199,4.367-1.583,8.917-1.149,13.65c0.166,1.533,0.383,2.967,0.649,4.3
			c0.667,1.833,1.267,3.6,1.801,5.3c2.699,6.267,3.899,13.816,3.6,22.65c-0.167,4.933-1.1,12.566-2.8,22.899l-1.2,7.15
			c0,0.967,0.066,2.45,0.2,4.45c0.133,2.133,0.416,4.399,0.85,6.8l-1.25,0.25c-0.5-2.233-0.85-4.417-1.05-6.55
			c-0.134-1.733-0.2-3.018-0.2-3.851v-4.25c0.066-1.833,0.283-3.283,0.65-4.35c2.233-6.767,3.2-14.283,2.899-22.55
			c-0.233-6.5-1.316-13.983-3.25-22.45l-1.1-4.8c-0.233-1.367-0.434-2.801-0.6-4.301c-0.467-4.533-0.417-8.916,0.149-13.149l0.8-8.7
			c0.467-10.133,0.634-23.333,0.5-39.6L98.1,0.9L98.7,0.95z"/>
		<path style="fill-rule:evenodd;clip-rule:evenodd;fill:#AF6924;" d="M100.9,37.7l-0.25-16.55c-0.267-6.2-0.434-12.85-0.5-19.95
			l1.699,0.3c-0.1,5.867-0.116,12.434-0.05,19.7l0.05,11.2c-0.033,1.767,0.134,9.85,0.5,24.25c0.233,9.667-0.199,17.567-1.3,23.7
			l-0.3,4.6c-0.2,1.533-0.316,2.667-0.35,3.399c-0.101,1.167-0.15,2.301-0.15,3.4c0.134,3.2,0.217,5.017,0.25,5.45
			c0.167,2.1,0.467,3.899,0.9,5.399c0.833,2.101,1.433,3.768,1.8,5c0.399,1.134,0.85,2.667,1.35,4.601
			c1.4,6.566,1.8,14.35,1.2,23.35c-0.366,5.2-1.167,13.033-2.4,23.5c0,1-0.05,2.467-0.149,4.4c-0.033,1.733,0.133,3.2,0.5,4.399
			l0.149,2.051l-2.05,0.399c-0.233-1.033-0.383-1.816-0.45-2.35c-0.833-2.7-0.983-5.667-0.449-8.9
			c1.633-10.133,2.666-17.733,3.1-22.8c0.667-8.434,0.483-15.967-0.55-22.6c-0.367-1.801-0.783-3.4-1.25-4.801
			c-0.467-1.633-1.017-3.217-1.65-4.75c-0.434-1.399-0.934-2.75-1.5-4.05c-0.033-1.467-0.033-2.933,0-4.399
			c0-0.434,0.25-4.817,0.75-13.15l0.3-5.15c0.534-5.7,0.834-12.317,0.9-19.85C100.934,48.767,100.9,42.167,100.9,37.7z"/>
		<path style="fill-rule:evenodd;clip-rule:evenodd;fill:#AF6924;" d="M103.45,26.05c-0.434-7.066-0.566-15.167-0.4-24.3l2.101,0.45
			c0,0.066-0.101,9.383-0.301,27.95v5.05c0,2.267,0.2,9.583,0.601,21.95c0.267,8.8,0.2,16.017-0.2,21.65
			c-0.033,1.567-0.134,3.184-0.3,4.85c0.1,1.5-0.367,4.284-1.4,8.35c-0.866,3.434-0.934,6.15-0.2,8.15
			c0.601,1.767,1.101,3.35,1.5,4.75c0.567,1.732,1,3.283,1.301,4.649c1.8,8.134,2.517,17.533,2.149,28.2
			c-0.2,4.934-1,14.4-2.399,28.4l-0.051,3.199l-0.05,0.051l-1.85,0.449l-0.05-1.699c1.267-12.634,2.1-22.134,2.5-28.5
			c0.666-11.067,0.233-20.634-1.301-28.7l-2.149-10.05c-0.7-4.067-1.15-7.601-1.351-10.601c0.067-1.733,0.217-3.5,0.45-5.3l0.5-5.1
			c1.167-6.566,1.717-14.483,1.65-23.75c-0.334-10.733-0.55-18.8-0.65-24.2L103.45,26.05z"/>
		<path style="fill-rule:evenodd;clip-rule:evenodd;fill:#AF6924;" d="M110.95,3.75l-0.4,26.4c0.467,13.034,0.117,28.633-1.05,46.8
			l-0.35,5.25c-0.267,5.033-0.217,10.467,0.149,16.3l0.25,3.25c1.167,9.467,1.634,20.316,1.4,32.55
			c-0.134,6.767-0.667,17.667-1.601,32.7v1.5l-0.649,0.2v-1.2c-0.066-3.2,0.25-13.85,0.95-31.95c0.5-13.033,0.116-23.649-1.15-31.85
			l-0.3-3.601c-0.267-3.8-0.4-7.383-0.4-10.75c-0.2-1.366-0.184-3.083,0.05-5.149c0.334-3.067,0.517-4.817,0.551-5.25l0.35-4.85
			c0.366-6.067,0.566-13.4,0.6-22c-0.033-9.733-0.033-17.034,0-21.9l0.45-26.8L110.95,3.75z"/>
		<path style="fill-rule:evenodd;clip-rule:evenodd;fill:#AF6924;" d="M113.75,39.85c-0.033-2.933,0.083-8.433,0.35-16.5
			c0.233-6.933,0.267-12.383,0.101-16.35l0.05-2.2l0.95,0.35c-0.066,17.367-0.184,30.467-0.351,39.3l-0.1,3.35
			c-0.1,5.167-0.116,10.95-0.05,17.35l-0.25,10.4c-0.334,5.667-0.55,11.783-0.65,18.351l-0.05,3.699
			c-0.467,6.533-0.566,15.7-0.3,27.5c-0.066,19.733-0.267,33.851-0.601,42.351l-0.949,0.3v-0.35l0.25-3.4
			c0.8-8.7,1.05-19.5,0.75-32.4c-0.467-14.333-0.717-25.066-0.75-32.199L112.05,96.1c-0.066-6.166,0.101-11.616,0.5-16.35l0.25-4.55
			c0.267-4.533,0.467-9.05,0.601-13.55l0.1-5.45c0.033-0.934,0.1-4.567,0.2-10.9L113.75,39.85z"/>
		<path style="fill-rule:evenodd;clip-rule:evenodd;fill:#AF6924;" d="M116.15,46.4c-0.167-5.367-0.167-12.167,0-20.4
			c0.267-12.434,0.399-19.217,0.399-20.35l1,0.4c-0.033,4.767-0.184,11.967-0.45,21.6c-0.166,8.633-0.133,15.85,0.101,21.65
			l0.05,4.7c0,8.633-0.116,15.133-0.35,19.5l-0.551,7.9c-0.267,10.167-0.483,23.7-0.649,40.6c-0.233,20.233-0.417,33.733-0.55,40.5
			l-0.351,4.3l-1.8,0.55l0.3-2.55c0.467-5.767,0.667-12.383,0.601-19.85c0-2.067-0.15-8.684-0.45-19.851
			c0.066-18.833,0.434-33.816,1.1-44.95l0.65-9.2c0.5-6.134,0.8-12.967,0.899-20.5L116.15,46.4z"/>
		<path style="fill-rule:evenodd;clip-rule:evenodd;fill:#AF6924;" d="M113.45,125.1c0.3,11.167,0.45,17.783,0.45,19.851
			c0.066,7.467-0.134,14.083-0.601,19.85l-0.3,2.55l-0.15,0.101C113.184,158.95,113.384,144.833,113.45,125.1z"/>
		<path style="fill-rule:evenodd;clip-rule:evenodd;fill:#AF6924;" d="M122.1,29.55c0.267-12,0.4-19.116,0.4-21.35l1.55,0.75
			c0,4.7-0.1,12.133-0.3,22.3c-0.167,9.633-0.25,17.033-0.25,22.2l-0.15,22.8c0.101,1.833,0.117,3.883,0.051,6.15
			c-0.467,8.367-1.367,20.817-2.7,37.35c-0.934,14.566-0.983,27.017-0.15,37.35l0.7,7.051l-2,0.899c0.333-2.066,0.434-3.899,0.3-5.5
			c-1.467-11.1-1.816-23.85-1.05-38.25c1.366-16.733,2.366-29.366,3-37.9l0.2-4.5c0.066-1.5,0.066-3,0-4.5l0.3-23.5
			C121.866,45.333,121.9,38.217,122.1,29.55z"/>
		<path style="fill-rule:evenodd;clip-rule:evenodd;fill:#AF6924;" d="M124.75,30.45c0.167-10.1,0.267-17.1,0.3-21l0.65,0.35
			c-0.134,14.833-0.2,22.517-0.2,23.05c-0.033,8.733,0.1,16.4,0.4,23l0.1,4.8c0.066,5.3,0.083,9.267,0.05,11.9l-0.05,4
			c0.033,1.8,0,3.784-0.1,5.95c-0.067,1.333-0.233,3.3-0.5,5.9c-4.733,25.566-5.534,49.433-2.4,71.6l0.35,3.2l-1.8,0.8l-0.05-2
			c-0.4-21.566-0.583-33.833-0.55-36.8c0.2-14.2,1.333-26.467,3.399-36.8c0.167-2.233,0.25-4.217,0.25-5.95
			c0.034-1.667-0.033-3.667-0.199-6l0.1-24.9C124.5,46.35,124.583,39.316,124.75,30.45z"/>
		<path style="fill-rule:evenodd;clip-rule:evenodd;fill:#AF6924;" d="M123.85,150.65c-0.666-4.967-1-10.134-1-15.5
			C122.983,138.617,123.316,143.783,123.85,150.65z"/>
		<path style="fill-rule:evenodd;clip-rule:evenodd;fill:#AF6924;" d="M123.85,150.65c0.334,2.399,0.7,4.55,1.101,6.449
			c0.267,1.134,0.55,2.75,0.85,4.851l-0.85,0.399L123.85,150.65z"/>
		<path style="fill-rule:evenodd;clip-rule:evenodd;fill:#AF6924;" d="M126.75,33.4c-0.233-10.033-0.366-17.783-0.4-23.25l0.95,0.5
			c0.033,4.5,0.167,12.633,0.4,24.4c0.166,10.267,0.267,18.384,0.3,24.35l-0.3,12.9c0.133,3.667,0.066,7.6-0.2,11.8l-0.3,3.9
			c-0.5,5.167-1.417,12.95-2.75,23.35c-1.101,9.334-1.634,17.268-1.601,23.801c-0.8-17.967,0.534-33.601,4-46.9l0.15-3.6
			c-0.033-4.9-0.033-8.583,0-11.05l0.15-17C127.116,51.833,126.983,44.1,126.75,33.4z"/>
		<path style="fill-rule:evenodd;clip-rule:evenodd;fill:#AF6924;" d="M134.15,21.45c0.166,2.467,0.366,4.816,0.6,7.05
			c0.767,5.033,1.333,9.167,1.7,12.4C135.184,35.1,134.417,28.617,134.15,21.45z"/>
		<path style="fill-rule:evenodd;clip-rule:evenodd;fill:#AF6924;" d="M134.15,69.85l1.149-9.1l1.5-6.45l-2.3,20.15
			c0.3,3.866,0.316,7.75,0.05,11.65c-0.033,1.267-0.133,2.533-0.3,3.8l-0.15,0.85c0.067-1.033,0.067-2.083,0-3.15
			c-0.133-2.966-0.233-5.216-0.3-6.75c-0.1-2.667-0.083-4.967,0.05-6.9C133.85,73.883,133.95,72.517,134.15,69.85z"/>
		<path style="fill-rule:evenodd;clip-rule:evenodd;fill:#AF6924;" d="M135.15,92.7l0.699-9.85l0.051,2.85
			c0,1.399-0.051,2.816-0.15,4.25c-0.1,1.6-0.267,3.033-0.5,4.3l-1.1,6.4C134.45,97.55,134.783,94.9,135.15,92.7z"/>
		<path style="fill-rule:evenodd;clip-rule:evenodd;fill:#AF6924;" d="M133.35,94.95c0.301-1.4,0.551-2.8,0.75-4.2v1.35l-1.649,9.7
			c-3.134,18.867-3.134,36.4,0,52.601c-3.9-17.667-3.9-35.801,0-54.4L133.35,94.95z"/>
		<path style="fill-rule:evenodd;clip-rule:evenodd;fill:#AF6924;" d="M137.1,33.6c-0.767-7.9-1.3-13.833-1.6-17.8l0.25,0.2
			c0.4,4.6,1.066,11.483,2,20.65c0.667,8.034,0.783,14.934,0.35,20.7l-2.25,25.5l0.15-8.9c0.134-2.9,0.366-6.233,0.7-10l0.5-4.95
			c0-0.833,0.166-2.066,0.5-3.7c0.333-1.667,0.5-2.917,0.5-3.75C138.066,46.75,137.7,40.767,137.1,33.6z"/>
		<path style="fill-rule:evenodd;clip-rule:evenodd;fill:#AF6924;" d="M134.15,100.65l-0.601,8.449
			c-0.233,7.101-0.133,14.934,0.3,23.5c0.301,6,0.851,13.783,1.65,23.351l-0.65,0.45c-0.666-6.101-1.517-11.768-2.55-17
			c-0.866-4.768-1.133-10.067-0.8-15.9c0.134-3,0.65-8.15,1.55-15.45L134.15,100.65z"/>
		<path style="fill-rule:evenodd;clip-rule:evenodd;fill:#AF6924;" d="M136.45,40.9l0.75,3.3c0.7,2.767,0.566,6.133-0.4,10.1
			C137.066,50.3,136.95,45.833,136.45,40.9z"/>
		<path style="fill-rule:evenodd;clip-rule:evenodd;fill:#AF6924;" d="M134.75,28.5c-0.233-2.233-0.434-4.583-0.6-7.05l-0.2-6.7
			l1.55,1.05c0.3,3.967,0.833,9.9,1.6,17.8c0.601,7.167,0.967,13.15,1.101,17.95c0,0.833-0.167,2.083-0.5,3.75
			c-0.334,1.634-0.5,2.867-0.5,3.7l-0.5,4.95c-0.334,3.767-0.566,7.1-0.7,10l-0.85,18.75c-0.367,2.2-0.7,4.85-1,7.95l-1.101,7.399
			c-0.899,7.3-1.416,12.45-1.55,15.45c-0.333,5.833-0.066,11.133,0.8,15.9c1.033,5.232,1.884,10.899,2.55,17l-1.649,1.149
			c-0.3-1.033-0.55-2.083-0.75-3.149c-3.134-16.2-3.134-33.733,0-52.601l1.649-9.7v-1.35l0.15-0.85c0.167-1.268,0.267-2.533,0.3-3.8
			c0.267-3.9,0.25-7.784-0.05-11.65l2.3-20.15c0.967-3.966,1.101-7.333,0.4-10.1l-0.75-3.3
			C136.083,37.667,135.517,33.533,134.75,28.5z"/>
		<path style="fill-rule:evenodd;clip-rule:evenodd;fill:#AF6924;" d="M141.65,39.8c-0.867-5.767-1.417-12.633-1.65-20.6l0.85,0.7
			c0.067,1.534,0.167,3.1,0.301,4.7c0.166,3.6,0.583,9,1.25,16.2c0.466,6.4,0.433,11.817-0.101,16.25
			c-0.033,1.567-0.133,3.134-0.3,4.7c-0.2,3.066-0.55,7.65-1.05,13.75l-0.2,3.4c0.167,3.733,0.217,7.45,0.15,11.15l-0.301,13.5
			c0,0.367-0.483,5.934-1.449,16.7c-0.567,6.633-0.551,12.2,0.05,16.7c0.434,4.467,0.85,9.55,1.25,15.25l-1.351,1.05
			c-0.5-10.1-0.8-17.883-0.899-23.35c-0.134-8.634,0.017-16.45,0.45-23.45l0.5-13.8c0.1-4.101,0.149-8.184,0.149-12.25l0.15-3.3
			c0.066-1.067,0.5-6.583,1.3-16.55l0.4-4.55c0.333-3.6,0.55-6.3,0.649-8.1C141.934,44.9,141.884,42.2,141.65,39.8z"/>
		<path style="fill-rule:evenodd;clip-rule:evenodd;fill:#AF6924;" d="M146.1,24.7l1.45,1.45l0.15,80.05
			c-0.267,5.333-0.434,12.233-0.5,20.7c-0.2,5.967-0.267,12.399-0.2,19.3l-1.25,1.25c-0.4-15.667-0.15-29.317,0.75-40.95v-8.1
			c-0.033-3.967-0.134-7.9-0.3-11.8l0.35-30.5C146.55,50.934,146.4,40.467,146.1,24.7z"/>
		<path style="fill-rule:evenodd;clip-rule:evenodd;fill:#AF6924;" d="M147.55,26.15l1.351,1.4c-0.267,12.467-0.4,21.784-0.4,27.95
			l0.1,5.2c0.334,10.4,0.517,18.2,0.551,23.4l0.05,8.9c0.166,1.367,0.283,2.917,0.35,4.65c0.101,1.399,0.117,2.982,0.05,4.75
			l-0.149,4.5c-0.733,5.666-1.117,11.916-1.15,18.75c-0.066,5.066,0.084,11.316,0.45,18.75l-1.35,1.399
			c-0.167-7.333-0.233-13.633-0.2-18.899c0.2-7.101,0.517-13.768,0.95-20l-0.101-4.7c-0.033-1.067-0.149-2.634-0.35-4.7
			L147.55,26.15z"/>
		<path style="fill-rule:evenodd;clip-rule:evenodd;fill:#AF6924;" d="M147.625,94.55l0.075,2.95c0.2,2.066,0.316,3.633,0.35,4.7
			l0.101,4.7c-0.434,6.232-0.75,12.899-0.95,20c0.066-8.467,0.233-15.367,0.5-20.7L147.625,94.55z"/>
		<path style="fill-rule:evenodd;clip-rule:evenodd;fill:#AF6924;" d="M151.15,30.15l0.699,0.75
			c-0.699,10.467-0.966,18.517-0.8,24.15l0.4,4.85c0.1,2.034,0.366,5.95,0.8,11.75c0.366,4.967,0.583,8.917,0.65,11.85l0.1,23.2
			c0,0.933-0.066,2.399-0.2,4.399c-0.666,7-0.684,16.551-0.05,28.65l-1.4,1.65c-0.133-4.634-0.133-10.351,0-17.15
			c0.2-7.6,0.317-13.267,0.351-17l0.149-24.75c-0.066-3.533-0.233-7.934-0.5-13.2l-0.85-18.25
			C150.5,45.717,150.717,38.75,151.15,30.15z"/>
		<path style="fill-rule:evenodd;clip-rule:evenodd;fill:#AF6924;" d="M153.3,47.2c0.066-1.5,0.101-2.667,0.101-3.5
			c0.566-3.4,1-6.45,1.3-9.15l0.7,0.95c-0.601,6-0.884,11.017-0.851,15.05l0.3,4.7c0.4,4.434,1.233,10.733,2.5,18.9
			c0.2,1.567,0.267,3.45,0.2,5.65c-0.133,3.733-0.2,5.684-0.2,5.85l0.2,5.45c0.167,1.634,0.267,3.268,0.3,4.9l-0.199,18.05
			c-0.301,9.601-0.45,16.167-0.45,19.7l-1.45,2c-0.333-9.233-0.2-17.167,0.4-23.8l0.05-24.65c0.3-4.366,0.149-9.616-0.45-15.75
			c-0.767-6.933-1.316-12.15-1.65-15.65c-0.199-2.333-0.316-4.083-0.35-5.25C153.417,49.617,153.267,48.467,153.3,47.2z"/>
		<path style="fill-rule:evenodd;clip-rule:evenodd;fill:#AF6924;" d="M159.2,43.6l0.1-2.3c0.634,1.067,1.134,1.95,1.5,2.65
			c-0.3,6.667,0.334,13.9,1.9,21.7c0.366,2.833,0.566,5.233,0.6,7.2l-0.25,2.8l0.5,30.45c-0.133,5.101-0.149,10.551-0.05,16.351
			v0.25l-0.75,1.55l-0.75-45c-0.167-3.167-0.684-8.316-1.55-15.45c-0.767-6.5-1.2-11.55-1.3-15.15
			C159.116,47.55,159.134,45.867,159.2,43.6z"/>
		<path style="fill-rule:evenodd;clip-rule:evenodd;fill:#AF6924;" d="M161.05,44.35l1.351,2.55v2c0,1.6,0.05,3.167,0.149,4.7
			c0.066,0.966,0.167,2.517,0.3,4.65c0.134,1.9,0.367,3.517,0.7,4.85c0.167,1.433,0.45,3.033,0.851,4.8v5.5
			c0.133,4.9,0.366,12.467,0.699,22.7l0.101,22.851l-1.3,2.85c-0.167-5.733-0.134-10.583,0.1-14.55v-12.4
			c-0.066-3.566-0.233-8.683-0.5-15.35l-0.2-3.85c0.066-0.966,0.066-1.9,0-2.8c0.2-1.933,0.184-3.467-0.05-4.6l-0.55-2.6
			c-0.767-4.7-1.283-8.216-1.55-10.55C160.717,51.033,160.684,47.45,161.05,44.35z"/>
		<path style="fill-rule:evenodd;clip-rule:evenodd;fill:#AF6924;" d="M163.25,68.25c0.233,1.133,0.25,2.667,0.05,4.6
			c-0.033-1.967-0.233-4.367-0.6-7.2L163.25,68.25z"/>
		<path style="fill-rule:evenodd;clip-rule:evenodd;fill:#AF6924;" d="M168,60.55l0.2,9.25c0.166,8.3,0.366,16.517,0.6,24.65
			l0.2,13.25c-0.667,2.333-1.15,3.95-1.45,4.85V93c-0.166-8.8-0.383-16.767-0.649-23.9v-5.7c-0.4-3.1-0.684-5.9-0.851-8.4L168,60.55
			z"/>
		<linearGradient id="SVGID_3_" gradientUnits="userSpaceOnUse" x1="85.875" y1="172.3496" x2="85.875" y2="0.6001">
			<stop  offset="0" style="stop-color:#7F3A06"/>
			<stop  offset="0.0196" style="stop-color:#7F3A06"/>
			<stop  offset="0.1255" style="stop-color:#8E5523;stop-opacity:0.851"/>
			<stop  offset="0.3569" style="stop-color:#AD8965;stop-opacity:0.5529"/>
			<stop  offset="0.5686" style="stop-color:#C6B39A;stop-opacity:0.3137"/>
			<stop  offset="0.7529" style="stop-color:#D8D0C0;stop-opacity:0.1412"/>
			<stop  offset="0.898" style="stop-color:#E3E3D8;stop-opacity:0.0353"/>
			<stop  offset="0.9882" style="stop-color:#E7E9E0;stop-opacity:0"/>
		</linearGradient>
		<path style="fill-rule:evenodd;clip-rule:evenodd;fill:url(#SVGID_3_);" d="M52.45,7.35C63.083,2.85,74.217,0.6,85.85,0.6
			c11.634,0,22.767,2.25,33.4,6.75c10.267,4.367,19.366,10.517,27.3,18.45c7.934,7.934,14.084,17.034,18.45,27.3
			c4.5,10.633,6.75,21.767,6.75,33.4c0,11.633-2.25,22.767-6.75,33.4c-4.366,10.267-10.517,19.366-18.45,27.3
			c-7.934,7.899-17.033,14.033-27.3,18.399c-10.634,4.5-21.767,6.75-33.4,6.75c-11.633,0-22.766-2.25-33.399-6.75
			c-10.267-4.366-19.367-10.5-27.3-18.399c-7.9-7.934-14.033-17.033-18.4-27.3C2.25,109.267,0,98.133,0,86.5
			c0-11.633,2.25-22.767,6.75-33.4c4.367-10.267,10.5-19.367,18.4-27.3C33.083,17.867,42.183,11.717,52.45,7.35z"/>
		<linearGradient id="SVGID_4_" gradientUnits="userSpaceOnUse" x1="85.9502" y1="158.4004" x2="85.9502" y2="13.3999">
			<stop  offset="0" style="stop-color:#EED9C2;stop-opacity:0.2471"/>
			<stop  offset="0.0863" style="stop-color:#E5CCB4;stop-opacity:0.3922"/>
			<stop  offset="0.3176" style="stop-color:#D0AE97;stop-opacity:0.7255"/>
			<stop  offset="0.5176" style="stop-color:#C39C84;stop-opacity:0.9255"/>
			<stop  offset="0.6549" style="stop-color:#BF967E"/>
			<stop  offset="1" style="stop-color:#582D22;stop-opacity:0.4667"/>
		</linearGradient>
		<path style="fill-rule:evenodd;clip-rule:evenodd;fill:url(#SVGID_4_);" d="M85.95,13.4c9.833,0,19.233,1.9,28.2,5.7
			c8.699,3.667,16.383,8.85,23.05,15.55c6.7,6.667,11.883,14.35,15.55,23.05c3.8,8.967,5.7,18.366,5.7,28.2s-1.9,19.233-5.7,28.2
			c-3.667,8.7-8.85,16.384-15.55,23.051c-14.134,14.166-31.217,21.25-51.25,21.25c-9.833,0-19.233-1.9-28.2-5.7
			c-8.7-3.667-16.383-8.851-23.05-15.55C28,130.483,22.817,122.8,19.15,114.1c-3.8-8.967-5.7-18.366-5.7-28.2s1.9-19.233,5.7-28.2
			C22.817,49,28,41.316,34.7,34.65c6.667-6.7,14.35-11.883,23.05-15.55C66.717,15.3,76.117,13.4,85.95,13.4z"/>
	</g>
	<g>
		
			<linearGradient id="SVGID_5_" gradientUnits="userSpaceOnUse" x1="-151.4854" y1="85.626" x2="-19.1348" y2="85.626" gradientTransform="matrix(7.555724e-006 -1 1 -0.001 2.190953e-004 4.683650e-004)">
			<stop  offset="0.0745" style="stop-color:#6C9741"/>
			<stop  offset="0.2235" style="stop-color:#82B149"/>
			<stop  offset="0.3686" style="stop-color:#9CCE53"/>
			<stop  offset="0.5882" style="stop-color:#CDDF39"/>
			<stop  offset="0.8118" style="stop-color:#D3E138"/>
			<stop  offset="1" style="stop-color:#FDEDAF"/>
		</linearGradient>
		<path style="fill-rule:evenodd;clip-rule:evenodd;fill:url(#SVGID_5_);" d="M85.6,19.05c18.267,0,33.867,6.467,46.801,19.4
			c12.933,12.933,19.399,28.533,19.399,46.8c0,18.233-6.467,33.816-19.399,46.75c-12.934,12.934-28.534,19.4-46.801,19.4
			c-18.233,0-33.816-6.467-46.75-19.4c-12.934-12.934-19.4-28.517-19.4-46.75s6.466-33.833,19.4-46.8
			C51.783,25.517,67.367,19.05,85.6,19.05z"/>
		<path style="fill-rule:evenodd;clip-rule:evenodd;fill:#2A4821;" d="M85.6,19.9c-18.033,0-33.433,6.383-46.2,19.15
			s-19.15,28.167-19.15,46.2c0,18.066,6.383,33.467,19.15,46.2C52.167,144.217,67.567,150.6,85.6,150.6
			c18.067,0,33.467-6.383,46.2-19.149c12.767-12.733,19.15-28.134,19.15-46.2c0-18.033-6.384-33.434-19.15-46.2
			C119.066,26.283,103.667,19.9,85.6,19.9z M38.25,37.85c6.333-6.333,13.567-11.183,21.7-14.55c8.133-3.366,16.683-5.05,25.649-5.05
			c8.967,0,17.517,1.684,25.65,5.05c8.167,3.367,15.417,8.217,21.75,14.55s11.184,13.583,14.55,21.75
			c3.367,8.133,5.05,16.683,5.05,25.65s-1.683,17.517-5.05,25.65c-3.366,8.133-8.217,15.366-14.55,21.699
			c-6.3,6.334-13.55,11.2-21.75,14.601c-8.134,3.366-16.684,5.05-25.65,5.05c-8.966,0-17.516-1.684-25.649-5.05
			c-8.133-3.4-15.367-8.267-21.7-14.601c-6.333-6.333-11.183-13.566-14.55-21.699c-3.4-8.167-5.1-16.717-5.1-25.65
			s1.7-17.483,5.1-25.65C27.067,51.434,31.917,44.184,38.25,37.85z"/>
	</g>
	
		<radialGradient id="SVGID_6_" cx="85.625" cy="83.0752" r="59.375" gradientTransform="matrix(1 0 0 -1 0 166.1504)" gradientUnits="userSpaceOnUse">
		<stop  offset="0" style="stop-color:#FDEDAF"/>
		<stop  offset="0.1882" style="stop-color:#D3E138"/>
		<stop  offset="0.5137" style="stop-color:#CDDF39"/>
		<stop  offset="1" style="stop-color:#9FCE52;stop-opacity:0.5373"/>
	</radialGradient>
	<path style="fill-rule:evenodd;clip-rule:evenodd;fill:url(#SVGID_6_);" d="M85.6,23.75c16.434,0,30.45,5.8,42.051,17.4
		c11.6,11.567,17.399,25.55,17.399,41.95c0,16.367-5.8,30.35-17.399,41.95C116.05,136.617,102.033,142.4,85.6,142.4
		c-16.399,0-30.399-5.783-42-17.351C32,113.45,26.2,99.467,26.2,83.1c0-16.4,5.8-30.383,17.4-41.95
		C55.2,29.55,69.2,23.75,85.6,23.75z"/>
	<g>
		<g>
			<path style="fill-rule:evenodd;clip-rule:evenodd;fill:#EEF4D9;" d="M70.8,45.3l7.4-13.4c0.667-1.267,1.783-1.9,3.35-1.9
				c1.067,0,1.95,0.333,2.65,1c0.767,0.733,1.149,1.8,1.149,3.2v10.15H85.9c0.666,0,1.216,0.2,1.649,0.6
				c0.467,0.4,0.7,0.917,0.7,1.55c0,0.667-0.233,1.2-0.7,1.6c-0.434,0.4-0.983,0.6-1.649,0.6H85.35v2.8c0,1.7-0.783,2.55-2.35,2.55
				c-1.6,0-2.4-0.85-2.4-2.55v-2.8h-7.95c-0.733,0-1.316-0.217-1.75-0.65c-0.367-0.366-0.55-0.8-0.55-1.3S70.5,45.767,70.8,45.3z
				 M80.6,35.15h-0.05l-4.45,9.2h4.5V35.15z"/>
			<path style="fill-rule:evenodd;clip-rule:evenodd;fill:#EEF4D9;" d="M98.7,32.7v18.8c0,0.8-0.233,1.434-0.7,1.9
				c-0.434,0.434-1.017,0.65-1.75,0.65s-1.316-0.216-1.75-0.65c-0.5-0.466-0.75-1.1-0.75-1.9V34.95H91.8c-0.733,0-1.3-0.25-1.7-0.75
				c-0.333-0.4-0.5-0.917-0.5-1.55c0-0.6,0.2-1.133,0.601-1.6c0.399-0.466,0.934-0.7,1.6-0.7h4.7c0.7,0,1.25,0.233,1.65,0.7
				C98.517,31.483,98.7,32.033,98.7,32.7z"/>
		</g>
		<g>
			
				<linearGradient id="SVGID_7_" gradientUnits="userSpaceOnUse" x1="-53.167" y1="79.3027" x2="-29.1157" y2="79.3027" gradientTransform="matrix(4.153687e-005 -1 1 -0.001 -1.746836e-004 4.683650e-004)">
				<stop  offset="0.149" style="stop-color:#192A16"/>
				<stop  offset="0.302" style="stop-color:#1E3019"/>
				<stop  offset="0.5176" style="stop-color:#2C4421"/>
				<stop  offset="0.7765" style="stop-color:#42632E"/>
				<stop  offset="0.9686" style="stop-color:#577F3A"/>
			</linearGradient>
			<path style="fill-rule:evenodd;clip-rule:evenodd;fill:url(#SVGID_7_);" d="M70.8,44.3l7.4-13.4c0.667-1.267,1.783-1.9,3.35-1.9
				c1.067,0,1.95,0.333,2.65,1c0.767,0.733,1.149,1.8,1.149,3.2v10.15H85.9c0.666,0,1.216,0.2,1.649,0.6
				c0.467,0.4,0.7,0.917,0.7,1.55c0,0.667-0.233,1.2-0.7,1.6c-0.434,0.4-0.983,0.6-1.649,0.6H85.35v2.8c0,1.7-0.783,2.55-2.35,2.55
				c-1.6,0-2.4-0.85-2.4-2.55v-2.8h-7.95c-0.733,0-1.316-0.217-1.75-0.65c-0.367-0.366-0.55-0.8-0.55-1.3S70.5,44.767,70.8,44.3z
				 M80.55,34.15l-4.45,9.2h4.5v-9.2H80.55z"/>
			
				<linearGradient id="SVGID_8_" gradientUnits="userSpaceOnUse" x1="-53.1445" y1="94.1523" x2="-29.4695" y2="94.1523" gradientTransform="matrix(4.223865e-005 -1 1 -0.001 1.435880e-004 4.683650e-004)">
				<stop  offset="0.149" style="stop-color:#192A16"/>
				<stop  offset="0.302" style="stop-color:#1E3019"/>
				<stop  offset="0.5176" style="stop-color:#2C4421"/>
				<stop  offset="0.7765" style="stop-color:#42632E"/>
				<stop  offset="0.9686" style="stop-color:#577F3A"/>
			</linearGradient>
			<path style="fill-rule:evenodd;clip-rule:evenodd;fill:url(#SVGID_8_);" d="M98.7,31.7v18.8c0,0.8-0.233,1.434-0.7,1.9
				c-0.434,0.434-1.017,0.65-1.75,0.65s-1.316-0.216-1.75-0.65c-0.5-0.466-0.75-1.1-0.75-1.9V33.95H91.8c-0.733,0-1.3-0.25-1.7-0.75
				c-0.333-0.4-0.5-0.917-0.5-1.55c0-0.6,0.2-1.133,0.601-1.6c0.399-0.466,0.934-0.7,1.6-0.7h4.7c0.7,0,1.25,0.233,1.65,0.7
				C98.517,30.483,98.7,31.033,98.7,31.7z"/>
		</g>
	</g>
	<g>
		<path style="fill-rule:evenodd;clip-rule:evenodd;fill:#E8EFB6;" d="M119.8,55.35c0.867,1,1.316,2.216,1.351,3.65
			c0.066,1.167-0.25,2.267-0.95,3.3l-0.601,0.75l-5,5l3.2,2.4c1.033,0.767,1.65,1.783,1.851,3.05
			c0.166,1.267-0.117,2.417-0.851,3.45c-0.066,0.133-0.2,0.3-0.399,0.5L118.3,77.7l-29.55,59.45c-0.167,0.433-0.667,1.017-1.5,1.75
			l-0.55,0.3l-1.2,0.399l-0.7,0.101h-0.75l-1.1-0.25l-27.75-9.9c-0.934-0.366-1.684-0.95-2.25-1.75c-0.6-0.833-0.9-1.75-0.9-2.75
			l0.05-10.6l0.2-1.05l0.15-0.301l4.2-6.949c-0.3-1.233-0.25-2.584,0.15-4.051l0.35-1.199l0.65-1.5l0.25-0.45
			c0.1-0.267,0.3-0.601,0.6-1l0.9-1.25L59.6,96.6l0.7-0.85l0.1-0.1c1.167-1.4,2.8-2.617,4.9-3.65l0.55-0.8l-15.1-33.4l-0.1-0.15
			c-0.967-2-1.167-3.8-0.6-5.4c0.367-1,1.017-1.867,1.95-2.6c0.933-0.667,1.917-1.066,2.95-1.2c0.733-0.1,1.5-0.083,2.3,0.05
			c1.533,0.233,2.75,1.05,3.65,2.45c0.434,0.733,0.867,1.667,1.3,2.8L73.3,79.1l10.2-16.6c0.433-0.767,1.083-1.367,1.95-1.8
			c0.866-0.4,1.733-0.55,2.6-0.45l15,1.75l8-7.9l0.25-0.1c0.934-0.633,1.9-1,2.9-1.1c0.434-0.033,0.95,0,1.55,0.1
			c1.3,0.066,2.366,0.566,3.2,1.5C119.35,54.833,119.634,55.117,119.8,55.35z"/>
		
			<linearGradient id="SVGID_9_" gradientUnits="userSpaceOnUse" x1="-138.584" y1="85.0234" x2="-47.2051" y2="85.0234" gradientTransform="matrix(1.094990e-005 -1 1 -0.001 -8.594288e-005 -2.403907e-005)">
			<stop  offset="0" style="stop-color:#6A8439"/>
			<stop  offset="0.1843" style="stop-color:#7B9E42"/>
			<stop  offset="0.4784" style="stop-color:#9CCE53"/>
			<stop  offset="0.9647" style="stop-color:#D9E573"/>
		</linearGradient>
		<path style="fill-rule:evenodd;clip-rule:evenodd;fill:url(#SVGID_9_);" d="M54.55,47.25c0.8-0.133,1.55-0.133,2.25,0
			c1.567,0.3,2.784,1.117,3.65,2.45c0.267,0.4,0.716,1.333,1.35,2.8l0.25,0.7l10.8,24.65l10.2-16.6
			c0.467-0.767,1.117-1.35,1.95-1.75c0.866-0.434,1.75-0.583,2.65-0.45L102.6,60.8l8.051-7.95l0.25-0.1
			c0.899-0.633,1.866-0.983,2.899-1.05c0.5-0.067,1-0.05,1.5,0.05c1.233,0.066,2.3,0.566,3.2,1.5l0.85,0.85
			c0.867,1,1.317,2.233,1.351,3.7c0.066,1.134-0.233,2.217-0.9,3.25l-0.649,0.8l-5,4.95l3.199,2.4c1.034,0.767,1.667,1.783,1.9,3.05
			c0.2,1.267-0.083,2.434-0.85,3.5l-0.45,0.5v0.05l-28.3,56.851c-0.2,0.433-0.517,1.133-0.95,2.1c-0.434,0.833-0.867,1.467-1.3,1.9
			L86.8,137.7l-1.05,0.5l-0.65,0.2l-0.75,0.1h-0.7l-0.35-0.1c-0.267,0-0.533-0.067-0.8-0.2l-27.75-9.9
			c-0.933-0.333-1.683-0.899-2.25-1.7c-0.567-0.833-0.85-1.75-0.85-2.75V113.2l0.2-1L52,111.85c0.167-0.399,0.333-0.699,0.5-0.899
			l3.7-6c-0.267-1.134-0.217-2.5,0.15-4.101l0.95-2.55l0.05-0.149l1.05-1.75l0.7-0.9l0.05-0.1l0.7-0.851l0.1-0.149
			C61.15,93,62.8,91.8,64.9,90.8l0.5-0.85c-1.8-3.667-3.1-6.4-3.9-8.2L50.3,56.6l-0.05-0.15c-0.967-2-1.167-3.8-0.6-5.4
			c0.367-1.066,1-1.933,1.9-2.6C52.417,47.816,53.417,47.417,54.55,47.25z"/>
		<path style="fill-rule:evenodd;clip-rule:evenodd;fill:none;stroke:#DCE99B;stroke-width:0.25;" d="M54.55,47.25
			c-1.133,0.167-2.133,0.566-3,1.2c-0.9,0.667-1.533,1.533-1.9,2.6c-0.566,1.6-0.367,3.4,0.6,5.4l0.05,0.15l11.2,25.15
			c0.8,1.8,2.1,4.533,3.9,8.2l-0.5,0.85c-2.1,1-3.75,2.2-4.95,3.601l-0.1,0.149l-0.7,0.851l-0.05,0.1l-0.7,0.9l-1.05,1.75L57.3,98.3
			l-0.95,2.55c-0.367,1.601-0.417,2.967-0.15,4.101l-3.7,6c-0.167,0.2-0.333,0.5-0.5,0.899l-0.15,0.351l-0.2,1v10.649
			c0,1,0.283,1.917,0.85,2.75c0.567,0.801,1.317,1.367,2.25,1.7l27.75,9.9c0.267,0.133,0.533,0.2,0.8,0.2l0.35,0.1h0.7l0.75-0.1
			l0.65-0.2l1.05-0.5l0.601-0.55c0.433-0.434,0.866-1.067,1.3-1.9c0.434-0.967,0.75-1.667,0.95-2.1l28.3-56.851v-0.05l0.45-0.5
			c0.767-1.066,1.05-2.233,0.85-3.5c-0.233-1.267-0.866-2.283-1.9-3.05l-3.199-2.4l5-4.95l0.649-0.8
			c0.667-1.033,0.967-2.116,0.9-3.25c-0.033-1.466-0.483-2.7-1.351-3.7l-0.85-0.85c-0.9-0.934-1.967-1.434-3.2-1.5
			c-0.5-0.1-1-0.117-1.5-0.05c-1.033,0.066-2,0.417-2.899,1.05l-0.25,0.1L102.6,60.8L87.65,59.05c-0.9-0.133-1.784,0.017-2.65,0.45
			c-0.833,0.4-1.483,0.983-1.95,1.75l-10.2,16.6L62.05,53.2l-0.25-0.7c-0.633-1.467-1.083-2.4-1.35-2.8
			c-0.867-1.333-2.083-2.15-3.65-2.45C56.1,47.117,55.35,47.117,54.55,47.25z"/>
		<path style="fill-rule:evenodd;clip-rule:evenodd;fill:#2A4821;" d="M112.8,56.2h0.05c0.467-0.4,0.884-0.617,1.25-0.65
			c0.267,0,0.551,0.05,0.851,0.15l0.1-0.05c0.3,0,0.517,0.1,0.65,0.3l0.649,0.65c0.301,0.3,0.45,0.75,0.45,1.35
			c0.033,0.366-0.066,0.7-0.3,1l-8.3,8.25l0.05,0.05l6.8,5.1c0.4,0.3,0.45,0.667,0.15,1.1c-0.066,0.066-0.184,0.167-0.351,0.3
			l-30,60.4l-0.1,0.05l-0.05,0.149h-0.05l-0.1,0.101l-0.2,0.1l-0.25,0.05l-0.15-0.05H83.8l-27.7-9.899
			c-0.367-0.167-0.55-0.434-0.55-0.801V113.6h0.05v-0.149c0-0.033,0.05-0.15,0.15-0.351l4.8-7.8l-0.2-0.3
			c-0.5-0.833-0.567-1.883-0.2-3.15c0.067-0.333,0.167-0.683,0.3-1.05L61,99.6l0.6-0.949l0.55-0.75l0.1-0.101l0.6-0.75l0.1-0.1
			c1.033-1.2,2.566-2.217,4.6-3.05l2.3-3.75L54.3,55.85l-0.55-1.1c-0.7-1.533-0.65-2.6,0.15-3.2c0.367-0.2,0.583-0.3,0.65-0.3
			c0.2-0.1,0.4-0.15,0.6-0.15c0.233-0.067,0.567-0.067,1,0c0.434,0.067,0.767,0.317,1,0.75c0.3,0.5,0.633,1.2,1,2.1l12.75,29.2v0.05
			l1.35,3.05L86.4,63.3c0.166-0.267,0.416-0.4,0.75-0.4l16.899,2L112.8,56.2z"/>
		<g>
			
				<linearGradient id="SVGID_10_" gradientUnits="userSpaceOnUse" x1="-28.0947" y1="139.9629" x2="-10.6592" y2="139.9629" gradientTransform="matrix(0.77 -0.6381 0.6062 0.7964 5.811453e-005 2.424121e-004)">
				<stop  offset="0" style="stop-color:#ABABAB"/>
				<stop  offset="0.2588" style="stop-color:#8D8D8D"/>
				<stop  offset="1" style="stop-color:#EBEAEA"/>
			</linearGradient>
			<polygon style="fill-rule:evenodd;clip-rule:evenodd;fill:url(#SVGID_10_);" points="71.05,108.85 72.75,103.75 83.95,133.75 
				56.15,123.9 56.15,113.7 			"/>
			
				<linearGradient id="SVGID_11_" gradientUnits="userSpaceOnUse" x1="-133.3008" y1="-79.2646" x2="-106.0701" y2="-79.2646" gradientTransform="matrix(-0.9805 -0.1965 0.2438 -0.971 -2.917796e-004 -1.169145e-004)">
				<stop  offset="0" style="stop-color:#7A7B7B"/>
				<stop  offset="1" style="stop-color:#DCDCDC"/>
			</linearGradient>
			<polygon style="fill-rule:evenodd;clip-rule:evenodd;fill:url(#SVGID_11_);" points="104.55,65.7 113.95,72.75 83.95,133.75 
				74.85,117.15 74,99.6 			"/>
			
				<linearGradient id="SVGID_12_" gradientUnits="userSpaceOnUse" x1="-5.5166" y1="136.9258" x2="42.8655" y2="136.9258" gradientTransform="matrix(0.7699 -0.6381 0.6064 0.7962 3.099442e-004 2.479553e-005)">
				<stop  offset="0" style="stop-color:#FFFFFF"/>
				<stop  offset="0.9922" style="stop-color:#A2A2A2"/>
			</linearGradient>
			<path style="fill-rule:evenodd;clip-rule:evenodd;fill:url(#SVGID_12_);" d="M104.55,65.7l9.601,7.15c-1.5-1-3.634-2.15-6.4-3.45
				c-1.2-0.6-2.083-0.966-2.65-1.1l-0.5-0.05c-17.566,29.633-26.633,45.333-27.2,47.1c-0.566,1.768-0.65,3.434-0.25,5l6.8,13.4
				l-9.1-16.6l-0.7-14l2.4-6.4L104.55,65.7z"/>
			
				<linearGradient id="SVGID_13_" gradientUnits="userSpaceOnUse" x1="-72.6509" y1="-121.0811" x2="-48.3869" y2="-121.0811" gradientTransform="matrix(-0.9984 0.0567 -0.0164 -1.0007 -1.914110e-004 -3.264956e-004)">
				<stop  offset="0" style="stop-color:#FFFFFF"/>
				<stop  offset="0.9922" style="stop-color:#A2A2A2"/>
			</linearGradient>
			<path style="fill-rule:evenodd;clip-rule:evenodd;fill:url(#SVGID_13_);" d="M76.8,119.2l0.4,1.5c0.1,0.833-0.25,0.783-1.05-0.15
				c-1-1.167-4.633-2.649-10.9-4.45l-9.1-2.399l19.65,3L76.8,119.2z"/>
			
				<linearGradient id="SVGID_14_" gradientUnits="userSpaceOnUse" x1="-87.1045" y1="75.1245" x2="-37.3742" y2="75.1245" gradientTransform="matrix(-0.0568 -0.9984 1.0007 -0.016 1.653954e-004 3.755335e-004)">
				<stop  offset="0" style="stop-color:#F5F5F5"/>
				<stop  offset="0.4" style="stop-color:#949494"/>
				<stop  offset="0.6196" style="stop-color:#E1E1E1"/>
			</linearGradient>
			<polygon style="fill-rule:evenodd;clip-rule:evenodd;fill:url(#SVGID_14_);" points="104.55,65.7 74.85,117.15 56.15,113.7 
				86.65,63.65 			"/>
			<polygon style="fill-rule:evenodd;clip-rule:evenodd;fill:#FFFFFF;" points="75.95,119.3 75.15,121.95 75.1,118.35 73.35,115.65 
				75.25,116.9 76.05,114.2 76.15,117.85 77.9,120.6 			"/>
			
				<radialGradient id="SVGID_15_" cx="-6.7168" cy="128.0723" r="24.3545" gradientTransform="matrix(0.7993 -0.6009 -0.481 -0.6398 138.5581 184.3196)" gradientUnits="userSpaceOnUse">
				<stop  offset="0.0549" style="stop-color:#FFFFFF"/>
				<stop  offset="0.2078" style="stop-color:#FFFFFF;stop-opacity:0.6471"/>
				<stop  offset="0.2706" style="stop-color:#FFFFFF;stop-opacity:0.5373"/>
				<stop  offset="1" style="stop-color:#FFFFFF;stop-opacity:0"/>
			</radialGradient>
			<path style="fill-rule:evenodd;clip-rule:evenodd;fill:url(#SVGID_15_);" d="M77.1,85.05c6.066,0.167,10.716,2.417,13.95,6.75
				c3.233,4.3,4.101,9.4,2.601,15.3c-1.534,5.867-4.983,10.834-10.351,14.9c-5.367,4.033-11.1,5.967-17.2,5.8
				c-6.067-0.2-10.717-2.45-13.95-6.75s-4.1-9.399-2.6-15.3c1.534-5.9,4.983-10.883,10.35-14.95C65.267,86.767,71,84.85,77.1,85.05z
				"/>
		</g>
		
			<use xlink:href="#FlashAICB_x2F_Layer_17_x2F__x3C_Path_x3E_"  width="45.3" height="52" y="-52" transform="matrix(1 0 0 -1 62.25 65.5498)" style="overflow:visible;opacity:0.2305;enable-background:new    ;"/>
		<g>
			<path style="fill-rule:evenodd;clip-rule:evenodd;fill:#595347;" d="M54.6,54.6c-0.667-1.2-0.733-2-0.2-2.4
				c0.2-0.167,0.467-0.267,0.8-0.3c0.333-0.033,0.6,0.017,0.8,0.15c0.167,0.134,0.333,0.434,0.5,0.9L70.15,83.5
				c1.067,2.434,1.767,3.983,2.1,4.65c0.9,1.899,1.667,3.199,2.3,3.899c0.467,0.533,1.067,0.867,1.8,1
				c0.933,0.134,1.683,0.384,2.25,0.75c3.933,2.4,6.217,4.617,6.85,6.65c0.5,1.566,0.767,2.95,0.8,4.149
				c0.033,1.233-0.167,2.518-0.6,3.851c-0.4,1.167-0.65,2.133-0.75,2.899c0,0.134-0.05,0.783-0.15,1.95
				c-0.033,0.601-0.133,1.05-0.3,1.351c-0.067,0.133-0.333,0.449-0.8,0.949c-0.367,0.367-0.717,0.434-1.05,0.2
				c-0.3-0.2-0.65-0.667-1.05-1.399c-0.533-1-0.683-2.117-0.45-3.351c0.1-0.366,0.316-0.733,0.65-1.1
				c0.433-0.367,0.733-0.65,0.9-0.851c0.367-0.366,0.55-1.017,0.55-1.949c0-1.101-0.284-2.4-0.85-3.9
				c-0.5-1.367-1.45-2.483-2.85-3.35c-1.5-0.667-2.433-1.084-2.8-1.25c-0.534-0.233-1.1-0.617-1.7-1.15
				c-0.533-0.5-0.95-0.967-1.25-1.4c-0.3-0.533-1.533-3-3.7-7.399c-2.3-4.733-3.883-8.067-4.75-10L54.6,54.6z"/>
			<path style="fill-rule:evenodd;clip-rule:evenodd;fill:#A6A097;" d="M83.2,108.4c0.033-0.167,0.017-0.384-0.05-0.65
				c0.133-1.233-0.133-2.733-0.8-4.5c-0.367-1.033-1-1.917-1.9-2.65v-0.05c-0.133-0.433-0.617-0.983-1.45-1.649
				c-0.567-0.434-1.083-0.783-1.55-1.051c-0.3-0.199-0.05-0.183,0.75,0.051c0.8,0.267,1.55,0.649,2.25,1.149
				c0.9,0.601,1.667,1.483,2.3,2.65c0.7,1.3,1.067,2.649,1.1,4.05c0.033,1.967-0.283,3.367-0.95,4.2
				C82.9,109.617,83,109.1,83.2,108.4z"/>
			<path style="fill-rule:evenodd;clip-rule:evenodd;fill:#A6A097;" d="M55.65,55.85l1.4,3.1c0.3,0.7,0.75,1.733,1.35,3.1
				c4.467,10.167,7.95,17.784,10.45,22.85c1.233,2.467,2.183,4.317,2.85,5.55c0.5,1.133,0.7,2.083,0.6,2.85
				c-3.066-6.133-5.4-11-7-14.6l-3.8-8.6c-1.233-2.8-2.467-5.617-3.7-8.45c-2.4-5.633-3.533-8.483-3.4-8.55
				c0.133-0.034,0.333,0.3,0.6,1C55.133,54.5,55.35,55.083,55.65,55.85z"/>
			<path style="fill-rule:evenodd;clip-rule:evenodd;fill:#333029;" d="M63.6,71.45c-0.367-1.067-1.017-2.667-1.95-4.8l-6.1-13.35
				c-0.3-0.8-0.45-1.25-0.45-1.35c0.167-0.134,0.467-0.15,0.9-0.05c0.2,0.034,0.35,0.15,0.45,0.35c0.066,0.1,0.5,1.05,1.3,2.85
				l12.4,28.4c1.067,2.434,1.767,3.983,2.1,4.65c0.9,1.899,1.667,3.199,2.3,3.899l0.6,0.55l-0.35,2.15
				c-0.267,0.4-0.517,0.617-0.75,0.65c-0.167,0.033-0.417-0.018-0.75-0.15l-0.65-1.3c-0.167-1.733-0.316-2.9-0.45-3.5
				c-0.067-0.333-1.267-2.9-3.6-7.7C66.067,77.583,64.4,73.816,63.6,71.45z"/>
			<path style="fill-rule:evenodd;clip-rule:evenodd;fill:#333029;" d="M77.8,96l-0.5,0.85c-0.4,0.601-0.816,1.067-1.25,1.4
				c-0.533-0.333-1.017-0.717-1.45-1.15c0-0.5,0.066-1.283,0.2-2.35c0.367-0.467,0.7-1.083,1-1.85c0.267,0.1,0.684,0.183,1.25,0.25
				c0.534,0.1,1.05,0.316,1.55,0.649c3.933,2.4,6.217,4.617,6.85,6.65c0.5,1.566,0.767,2.95,0.8,4.149
				c0.033,1.233-0.167,2.518-0.6,3.851c-0.4,1.167-0.65,2.133-0.75,2.899c0,0.134-0.05,0.783-0.15,1.95
				c-0.033,0.601-0.133,1.05-0.3,1.351c-0.067,0.133-0.333,0.449-0.8,0.949c-0.333,0.334-0.65,0.417-0.95,0.25
				c0.2-0.6,0.216-1.149,0.05-1.649c-0.2-0.634-0.283-1.317-0.25-2.05c0-0.768,0.117-1.217,0.35-1.351l0.45-0.2
				c0.233-0.166,0.483-0.5,0.75-1c0.534-1.033,0.867-2.366,1-4c0.167-1.699-0.183-3.333-1.05-4.899c-0.4-0.7-1.133-1.684-2.2-2.95
				c-0.5-0.566-1.316-1.033-2.45-1.4L77.8,96z"/>
			<path style="fill-rule:evenodd;clip-rule:evenodd;fill:#333029;" d="M75.8,92.9c-0.3,0.767-0.633,1.383-1,1.85l0.35-2.15
				L75.8,92.9z"/>
		</g>
		<g>
			<g>
				<g>
					<path style="fill-rule:evenodd;clip-rule:evenodd;fill:#595347;" d="M115.7,57.1l0.05,0.15c0.033,0.1,0.066,0.316,0.1,0.65
						c0.034,0.367,0.034,0.567,0,0.6c-15.399,15.333-24.333,24.15-26.8,26.45c-1.5,1.433-3.95,3.583-7.35,6.45
						c-2.934,2.467-4.717,3.933-5.35,4.399c-0.4,0.3-1.05,0.617-1.95,0.95c-0.933,0.367-1.683,0.583-2.25,0.65
						c-1.233,0.066-2.316,0.183-3.25,0.35c-1.767,0.367-3.117,1.066-4.05,2.1c-0.667,0.768-1.15,1.467-1.45,2.101
						c-0.167,0.333-0.316,0.833-0.45,1.5c0,0.1-0.184,0.333-0.55,0.7c-0.066,0.133-0.167,0.3-0.3,0.5l-0.15,0.3
						c-0.2,0.2-0.467,0.033-0.8-0.5c-0.566-0.9-0.483-2.15,0.25-3.75c0.3-0.733,1.033-1.833,2.2-3.3c1.367-1.601,3.967-2.9,7.8-3.9
						c0.233-0.066,1.133-0.217,2.7-0.45c0.933-0.133,1.733-0.383,2.4-0.75c1.167-0.633,3.567-2.717,7.2-6.25l29.05-28.65
						c0.634-0.633,1.1-0.966,1.4-1C114.816,56.333,115.333,56.566,115.7,57.1z"/>
					<path style="fill-rule:evenodd;clip-rule:evenodd;fill:#333029;" d="M68.75,96.6c0.433-0.033,1.267,0.018,2.5,0.15
						c0.867,0.1,1.65,0.033,2.35-0.2c-0.7,0.467-1.184,0.75-1.45,0.851c-2.066,0.267-3.15,0.416-3.25,0.449
						c-1.767,0.4-3.117,1.117-4.05,2.15c-0.7,0.8-1.184,1.483-1.45,2.05c-0.167,0.333-0.316,0.8-0.45,1.4
						c-0.1,0.1-0.267,0.333-0.5,0.7c-0.2,0.3-0.367,0.517-0.5,0.649c-0.133-0.733-0.083-1.55,0.15-2.45
						c0.333-1.267,1.233-2.517,2.7-3.75C66.233,97.333,67.55,96.667,68.75,96.6z"/>
					<path style="fill-rule:evenodd;clip-rule:evenodd;fill:#333029;" d="M112.3,60.35l2.95-2.9c0.2-0.2,0.35-0.3,0.45-0.3
						c0.2,0.067,0.3,0.333,0.3,0.8c0,0.233-0.167,0.517-0.5,0.85L89.05,84.95c-2.434,2.3-6.167,5.517-11.2,9.649l-3.4,1.601
						c-0.4,0.2-0.684,0.316-0.85,0.35c1.733-1.133,4.983-3.733,9.75-7.8c4-3.4,8.933-8.1,14.8-14.1
						C105.717,66.883,110.434,62.117,112.3,60.35z"/>
					<path style="fill-rule:evenodd;clip-rule:evenodd;fill:#333029;" d="M73.6,96.55c0.167-0.033,0.45-0.149,0.85-0.35l3.4-1.601
						l-1.5,1.2c-0.4,0.3-1.05,0.617-1.95,0.95c-0.933,0.367-1.683,0.583-2.25,0.65C72.417,97.3,72.9,97.017,73.6,96.55z"/>
					<path style="fill-rule:evenodd;clip-rule:evenodd;fill:#A6A097;" d="M65.5,96.3c1.033-0.7,2.233-1.217,3.6-1.55
						c0.7-0.167,1.3-0.267,1.8-0.3L69.25,95.1c-1.467,0.567-2.433,0.983-2.9,1.25c-1.233,0.7-2.367,1.733-3.4,3.101
						c-1,1.3-1.55,2.583-1.65,3.85c-0.066,0.601-0.033,1.083,0.1,1.45c-0.833-1.033-0.683-2.517,0.45-4.45
						C62.85,98.6,64.067,97.267,65.5,96.3z"/>
					<path style="fill-rule:evenodd;clip-rule:evenodd;fill:#A6A097;" d="M113.4,57.2c0.1,0.033,0.133,0.116,0.1,0.25
						c0,0.133-0.05,0.233-0.15,0.3L103.9,67.1c-0.767,0.733-4.767,4.716-12,11.95c-4.2,4.2-7.867,7.634-11,10.3
						c-3.333,2.867-5.316,4.301-5.95,4.301l2.15-1.7c1.133-0.767,3.333-2.733,6.6-5.9L112,58.2c0.634-0.634,1.05-0.967,1.25-1H113.4
						z"/>
				</g>
				<g>
					<path style="fill-rule:evenodd;clip-rule:evenodd;fill:#655D51;" d="M73.8,94.15c0.8-0.967,1.65-1.167,2.55-0.601
						c0.2,0.134,0.217,0.417,0.05,0.851c-0.133,0.433-0.383,0.85-0.75,1.25c-0.367,0.366-0.75,0.616-1.15,0.75
						c-0.367,0.1-0.667,0.066-0.9-0.101c-0.233-0.133-0.3-0.483-0.2-1.05C73.5,94.717,73.633,94.35,73.8,94.15z"/>
					<path style="fill-rule:evenodd;clip-rule:evenodd;fill:#333029;" d="M74.5,96.4c-0.367,0.1-0.667,0.066-0.9-0.101
						c-0.2-0.1-0.267-0.316-0.2-0.649c0.533,0.166,1.017,0.116,1.45-0.15c0.433-0.267,0.167-0.633-0.8-1.1
						c-0.1-0.067-0.1-0.15,0-0.25c0.133-0.134,0.367-0.167,0.7-0.101l1.15,0.25c0.233-0.433,0.1-0.767-0.4-1
						c0.233,0,0.517,0.083,0.85,0.25c0.2,0.134,0.217,0.417,0.05,0.851c-0.133,0.433-0.383,0.85-0.75,1.25
						C75.283,96.017,74.9,96.267,74.5,96.4z"/>
					<path style="fill-rule:evenodd;clip-rule:evenodd;fill:#333029;" d="M76.9,93.6c-0.033-0.133-0.133-0.267-0.3-0.399L76.35,93
						l0.25-0.1c0.3-0.134,0.633-0.018,1,0.35c0.1,0.133-0.05,0.5-0.45,1.1c-0.433,0.667-0.933,1.233-1.5,1.7
						c-0.833,0.7-1.517,0.783-2.05,0.25c0.1,0.033,0.2,0.05,0.3,0.05l0.6-0.3c0.382-0.255,0.683-0.488,0.9-0.7L75.1,95.7
						c0.4,0.066,0.767-0.101,1.1-0.5C76.767,94.434,77,93.9,76.9,93.6z"/>
				</g>
			</g>
		</g>
	</g>
	<g>
		
			<use xlink:href="#FlashAICB_x2F_Layer_17_x2F__x3C_Path_x3E__x5F_1"  width="110.05" height="55.8" y="-55.8" transform="matrix(1 0 0 -1 30.6001 26.5)" style="overflow:visible;opacity:0.1094;enable-background:new    ;"/>
		
			<use xlink:href="#FlashAICB_x2F_Layer_17_x2F__x3C_Path_x3E__x5F_0"  width="110.05" height="61.294" y="-61.294" transform="matrix(1 0 0 -1 30.6001 26.5)" style="overflow:visible;opacity:0.0898;enable-background:new    ;"/>
	</g>
	
		<use xlink:href="#FlashAICB_x2F_Layer_17_x2F__x3C_Path_x3E__x5F_2"  width="118.7" height="57.1" y="-57.1" transform="matrix(1 0 0 -1 26.25 85.2998)" style="overflow:visible;opacity:0.4688;enable-background:new    ;"/>
</g>
</svg>
