<?xml version="1.0" encoding="iso-8859-1"?>
<!-- Generator: Adobe Illustrator 15.1.0, SVG Export Plug-In . SVG Version: 6.00 Build 0)  -->
<!DOCTYPE svg PUBLIC "-//W3C//DTD SVG 1.1//EN" "http://www.w3.org/Graphics/SVG/1.1/DTD/svg11.dtd">
<svg version="1.1" id="Layer_36_copy_4" xmlns="http://www.w3.org/2000/svg" xmlns:xlink="http://www.w3.org/1999/xlink" x="0px"
	 y="0px" width="171.5px" height="171.55px" viewBox="0 0 171.5 171.55" style="enable-background:new 0 0 171.5 171.55;"
	 xml:space="preserve">
<symbol  id="FlashAICB_x2F_Layer_36_copy_4_x2F__x3C_Clip_Group_0_x3E_" viewBox="0 -118.7 118.9 118.7">
	<g id="Layer_1_3_">
	</g>
	<g>
		<defs>
			<path id="SVGID_1_" d="M101.5-17.4C89.867-5.8,75.85,0,59.45,0C43.017,0,29-5.8,17.4-17.4S0-42.983,0-59.35S5.8-89.7,17.4-101.3
				c11.6-11.6,25.617-17.4,42.05-17.4c16.4,0,30.417,5.8,42.05,17.4c11.6,11.6,17.4,25.583,17.4,41.95S113.1-29,101.5-17.4z"/>
		</defs>
		<clipPath id="SVGID_2_">
			<use xlink:href="#SVGID_1_"  style="overflow:visible;"/>
		</clipPath>
		<g id="Layer_3_2_" style="clip-path:url(#SVGID_2_);">
			<radialGradient id="SVGID_3_" cx="59.4502" cy="-59.3501" r="59.4" gradientUnits="userSpaceOnUse">
				<stop  offset="0" style="stop-color:#DEEA89"/>
				<stop  offset="0.0353" style="stop-color:#DEEA89"/>
				<stop  offset="0.302" style="stop-color:#DEE986"/>
				<stop  offset="0.4627" style="stop-color:#E0E57E"/>
				<stop  offset="0.5922" style="stop-color:#E2DE71"/>
				<stop  offset="0.7098" style="stop-color:#E6D45D"/>
				<stop  offset="0.8118" style="stop-color:#EAC845"/>
				<stop  offset="0.8706" style="stop-color:#EDBF35"/>
				<stop  offset="1" style="stop-color:#EDBF35"/>
			</radialGradient>
			<polygon style="fill-rule:evenodd;clip-rule:evenodd;fill:url(#SVGID_3_);" points="0,0 118.9,0 118.9,-118.7 0,-118.7 			"/>
		</g>
	</g>
	<g id="Layer_4_2_">
	</g>
</symbol>
<symbol  id="FlashAICB_x2F_Layer_36_copy_4_x2F__x3C_Clip_Group_0_x3E__x5F_1" viewBox="0 -132.35 132.35 132.35">
	<g id="Layer_1_2_">
	</g>
	<g>
		<defs>
			<path id="SVGID_4_" d="M112.95-19.4C100.017-6.467,84.433,0,66.2,0C47.967,0,32.367-6.467,19.4-19.4
				C6.467-32.333,0-47.917,0-66.15c0-18.267,6.467-33.867,19.4-46.8c12.934-12.933,28.533-19.4,46.8-19.4
				c18.233,0,33.816,6.467,46.75,19.4c12.933,12.934,19.4,28.534,19.4,46.8C132.35-47.917,125.883-32.333,112.95-19.4z"/>
		</defs>
		<clipPath id="SVGID_5_">
			<use xlink:href="#SVGID_4_"  style="overflow:visible;"/>
		</clipPath>
		<g id="Layer_3_1_" style="clip-path:url(#SVGID_5_);">
			<linearGradient id="SVGID_6_" gradientUnits="userSpaceOnUse" x1="66.1748" y1="-132.3501" x2="66.1748" y2="0">
				<stop  offset="0" style="stop-color:#B1812F"/>
				<stop  offset="0.2941" style="stop-color:#C89A33"/>
				<stop  offset="0.6745" style="stop-color:#EDC13A"/>
				<stop  offset="0.9647" style="stop-color:#D7E989"/>
				<stop  offset="1" style="stop-color:#D7E989"/>
			</linearGradient>
			<polygon style="fill-rule:evenodd;clip-rule:evenodd;fill:url(#SVGID_6_);" points="0,-132.35 0,0 132.35,0 132.35,-132.35 			
				"/>
		</g>
	</g>
	<g id="Layer_4_1_">
	</g>
</symbol>
<symbol  id="FlashAICB_x2F_Layer_36_copy_4_x2F__x3C_Path_x3E_" viewBox="0 -61.294 110.05 61.294">
	<g id="Layer_1_6_">
		<path style="fill-rule:evenodd;clip-rule:evenodd;fill:#FFFFFF;" d="M106.5-34.35c2.367-5.633,3.55-10.95,3.55-15.95
			c0-4.967-1.45-8.083-4.35-9.35c-2.333-1.067-6.25-1.05-11.75,0.05c-7.267,1.767-13.1,3.117-17.5,4.05
			c-8,1.7-15.133,2.55-21.4,2.55c-6.333,0-13.483-0.917-21.45-2.75c-8.333-2.2-14.15-3.683-17.45-4.45
			c-5.566-1.267-9.5-1.433-11.8-0.5C1.45-59.5,0-56.433,0-51.5c0,5.467,1.167,11.117,3.5,16.95C6-28.35,9.483-22.767,13.95-17.8
			C24.683-5.933,38.383,0,55.05,0c16.434,0,30.1-5.983,41-17.95C100.517-22.883,104-28.35,106.5-34.35z"/>
	</g>
</symbol>
<symbol  id="FlashAICB_x2F_Layer_36_copy_4_x2F__x3C_Path_x3E__x5F_1" viewBox="0 -55.8 110.05 55.8">
	<g id="Layer_1_5_">
		
			<linearGradient id="SVGID_7_" gradientUnits="userSpaceOnUse" x1="16165.3076" y1="-53.8804" x2="16221.0527" y2="-53.8804" gradientTransform="matrix(1.792918e-005 1 -1 -0.001 0.8545 -16221.1064)">
			<stop  offset="0.1294" style="stop-color:#E2B8B2"/>
			<stop  offset="0.9255" style="stop-color:#FFFFFF"/>
		</linearGradient>
		<path style="fill-rule:evenodd;clip-rule:evenodd;fill:url(#SVGID_7_);" d="M96.05-17.95c4.467-4.933,7.95-10.4,10.45-16.4
			c2.367-5.633,3.55-10.95,3.55-15.95c0-1.567-0.167-3.05-0.5-4.45c-1.867,11.067-7.267,20.9-16.2,29.5
			c-10.533,10.133-23.3,15.2-38.3,15.2c-15.267,0-28.117-5.05-38.55-15.15C7.533-33.933,2.183-44.133,0.45-55.8
			C0.15-54.6,0-53.167,0-51.5c0,5.467,1.167,11.117,3.5,16.95C6-28.35,9.483-22.767,13.95-17.8C24.683-5.933,38.383,0,55.05,0
			C71.483,0,85.15-5.983,96.05-17.95z"/>
	</g>
</symbol>
<symbol  id="FlashAICB_x2F_Layer_36_copy_4_x2F__x3C_Path_x3E__x5F_2" viewBox="0 -57.1 118.7 57.1">
	<g id="Layer_1_4_">
		
			<radialGradient id="SVGID_8_" cx="59.3501" cy="-28.5498" r="46.5701" gradientTransform="matrix(1 0 0 -1 0 -57.0996)" gradientUnits="userSpaceOnUse">
			<stop  offset="0" style="stop-color:#000000;stop-opacity:0"/>
			<stop  offset="0.651" style="stop-color:#000000;stop-opacity:0.4"/>
		</radialGradient>
		<path style="fill-rule:evenodd;clip-rule:evenodd;fill:url(#SVGID_8_);" d="M95.5-30.35c10.733,7.7,18.3,17.733,22.7,30.1L118.7,0
			c-0.567-15.9-6.6-29.383-18.1-40.45C89.1-51.55,75.35-57.1,59.35-57.1c-15.733,0-29.317,5.367-40.75,16.1
			C7.233-30.333,1.033-17.233,0-1.7c4.6-12,12.183-21.683,22.75-29.05c10.833-7.567,22.867-11.35,36.1-11.35
			C72.35-42.1,84.567-38.183,95.5-30.35z"/>
	</g>
</symbol>
<g>
	<path style="fill-rule:evenodd;clip-rule:evenodd;fill:#68757B;" d="M52.4,6.75C63.033,2.25,74.15,0,85.75,0
		c11.6,0,22.717,2.25,33.35,6.75c10.268,4.333,19.351,10.467,27.25,18.4c7.934,7.933,14.067,17.017,18.4,27.25
		c4.5,10.633,6.75,21.75,6.75,33.35c0,11.6-2.25,22.717-6.75,33.35c-4.333,10.268-10.467,19.367-18.4,27.301
		c-7.899,7.933-16.982,14.066-27.25,18.399c-10.633,4.5-21.75,6.75-33.35,6.75c-11.6,0-22.717-2.25-33.35-6.75
		c-10.267-4.333-19.35-10.467-27.25-18.399c-7.933-7.934-14.066-17.033-18.4-27.301C2.25,108.467,0,97.35,0,85.75
		c0-11.6,2.25-22.717,6.75-33.35c4.333-10.233,10.467-19.317,18.4-27.25C33.05,17.217,42.133,11.083,52.4,6.75z"/>
	
		<linearGradient id="SVGID_9_" gradientUnits="userSpaceOnUse" x1="-171.6353" y1="85.75" x2="-0.0854" y2="85.75" gradientTransform="matrix(5.830904e-006 -1 1 -0.001 -9.214067e-005 4.449275e-004)">
		<stop  offset="0.0039" style="stop-color:#4F1D1F"/>
		<stop  offset="0.2078" style="stop-color:#7D5F3C"/>
		<stop  offset="0.5569" style="stop-color:#B09A68"/>
		<stop  offset="0.7412" style="stop-color:#EEEDCF"/>
		<stop  offset="0.7922" style="stop-color:#E7E1AD"/>
		<stop  offset="1" style="stop-color:#B9A57A"/>
	</linearGradient>
	<path style="fill-rule:evenodd;clip-rule:evenodd;fill:url(#SVGID_9_);" d="M52.4,6.75C63.033,2.25,74.15,0,85.75,0
		c11.6,0,22.717,2.25,33.35,6.75c10.268,4.333,19.351,10.467,27.25,18.4c7.934,7.933,14.067,17.017,18.4,27.25
		c4.5,10.633,6.75,21.75,6.75,33.35c0,11.6-2.25,22.717-6.75,33.35c-4.333,10.268-10.467,19.367-18.4,27.301
		c-7.899,7.933-16.982,14.066-27.25,18.399c-10.633,4.5-21.75,6.75-33.35,6.75c-11.6,0-22.717-2.25-33.35-6.75
		c-10.267-4.333-19.35-10.467-27.25-18.399c-7.933-7.934-14.066-17.033-18.4-27.301C2.25,108.467,0,97.35,0,85.75
		c0-11.6,2.25-22.717,6.75-33.35c4.333-10.233,10.467-19.317,18.4-27.25C33.05,17.217,42.133,11.083,52.4,6.75z"/>
	<g>
		<g>
			
				<linearGradient id="SVGID_10_" gradientUnits="userSpaceOnUse" x1="-158.2856" y1="85.751" x2="-13.4355" y2="85.751" gradientTransform="matrix(6.906077e-006 -1 1 -0.001 -1.647736e-004 4.449275e-004)">
				<stop  offset="0.0431" style="stop-color:#BAA270"/>
				<stop  offset="1" style="stop-color:#73624A"/>
			</linearGradient>
			<path style="fill-rule:evenodd;clip-rule:evenodd;fill:url(#SVGID_10_);" d="M85.75,13.35c9.833,0,19.233,1.9,28.2,5.7
				c8.667,3.667,16.333,8.833,23,15.5c6.667,6.7,11.833,14.384,15.5,23.05c3.8,8.966,5.7,18.35,5.7,28.15
				c0,9.833-1.9,19.233-5.7,28.2c-3.667,8.667-8.833,16.35-15.5,23.05c-6.667,6.667-14.333,11.833-23,15.5
				c-8.967,3.8-18.367,5.7-28.2,5.7c-9.833,0-19.233-1.9-28.2-5.7c-8.667-3.667-16.333-8.833-23-15.5
				c-6.667-6.7-11.833-14.383-15.5-23.05c-3.8-8.967-5.7-18.367-5.7-28.2c0-9.8,1.9-19.184,5.7-28.15
				c3.667-8.667,8.833-16.35,15.5-23.05c6.7-6.667,14.367-11.833,23-15.5C66.517,15.25,75.917,13.35,85.75,13.35z"/>
		</g>
	</g>
</g>
<use xlink:href="#FlashAICB_x2F_Layer_36_copy_4_x2F__x3C_Clip_Group_0_x3E__x5F_1"  width="132.35" height="132.35" y="-132.35" transform="matrix(1 0 0 -1 19.5498 19.6001)" style="overflow:visible;"/>
<g>
	<path style="fill-rule:evenodd;clip-rule:evenodd;fill:#30144F;" d="M85.75,20.4c-18.033,0-33.434,6.383-46.2,19.15
		S20.4,67.717,20.4,85.75c0,18.066,6.383,33.467,19.15,46.2c12.767,12.767,28.167,19.149,46.2,19.149
		c18.066,0,33.467-6.383,46.2-19.149c12.767-12.733,19.149-28.134,19.149-46.2c0-18.033-6.383-33.434-19.149-46.2
		S103.783,20.4,85.75,20.4z M60.1,23.85c8.167-3.4,16.716-5.1,25.65-5.1s17.483,1.7,25.65,5.1
		c8.133,3.367,15.366,8.216,21.699,14.55c6.334,6.333,11.2,13.567,14.601,21.7c3.366,8.133,5.05,16.683,5.05,25.65
		s-1.684,17.517-5.05,25.65c-3.4,8.199-8.267,15.449-14.601,21.75c-6.333,6.333-13.566,11.183-21.699,14.55
		c-8.167,3.399-16.717,5.1-25.65,5.1s-17.483-1.7-25.65-5.1c-8.167-3.367-15.417-8.217-21.75-14.55
		c-6.333-6.334-11.184-13.584-14.55-21.75c-3.366-8.134-5.05-16.684-5.05-25.65s1.684-17.517,5.05-25.65
		c3.367-8.133,8.217-15.367,14.55-21.7S51.934,27.217,60.1,23.85z"/>
</g>
<use xlink:href="#FlashAICB_x2F_Layer_36_copy_4_x2F__x3C_Clip_Group_0_x3E_"  width="118.9" height="118.7" y="-118.7" transform="matrix(1 0 0 -1 26.2998 25.2002)" style="overflow:visible;"/>
<g>
	<path style="fill-rule:evenodd;clip-rule:evenodd;fill:#B9CF7E;" d="M95.4,77.3c1.866,0,3.25,0.033,4.149,0.1
		c10.5,0.5,16.867,2.6,19.101,6.3c0.8,1.366,1,2.8,0.6,4.3v3.15c0.533,0.699,0.983,1.583,1.35,2.649
		c0.9,1.634,1.351,3.384,1.351,5.25l-0.101,1.5l1.65,13.5l0.7,0.2l0.75,0.4c0.667,0.399,1.233,0.899,1.7,1.5l0.699,0.8l0.4,0.6
		l2.7,3.15c0.866,0.967,1.167,2.116,0.899,3.45c-0.3,1.267-1.05,2.183-2.25,2.75l-26.75,12.75c-0.732,0.3-1.467,0.433-2.199,0.399
		c-1.268,1.533-2.967,2.851-5.101,3.95c-2.167,1.133-4.2,1.717-6.1,1.75l-0.95,0.1l-1.4-0.25h-0.1L47.1,131.9l-0.9-0.45
		c-0.733-0.467-1.483-1.134-2.25-2c-1.4-1.567-2.4-3.4-3-5.5l-0.05-0.15l-0.1-0.7v-0.3l0.1-0.899V121.8l0.05-0.1l0.1-0.3l0.05-0.101
		v-0.05l0.15-0.3c-1.1-1.101-1.45-2.4-1.05-3.9l1.95-6.5l0.3-7.05c-0.167-0.533-0.233-1.017-0.2-1.45l0.15-4.55l0.05-0.05V97.3
		c0.066-0.366,0.133-0.616,0.2-0.75l0.1-0.3L44,66.55l0.1-0.6V65.8l0.35-0.95l0.5-0.7l0.9-0.8l0.4-0.2
		c0.3-0.133,0.684-0.267,1.15-0.4l5.1-0.55h0.15L64.2,61h0.4l1.05,0.1l4.65,1.55c0.867,0.067,1.634,0.35,2.3,0.85
		c1.066,0.6,1.75,1.467,2.05,2.6c0.133,0.533,0.15,1.017,0.05,1.45c0.466,1.033,0.95,1.8,1.45,2.3c1.167,1.1,2.7,2.167,4.6,3.2
		l0.6,0.2l1.15,0.8l0.6,0.65l0.2,0.35L83.7,76l0.1,0.6c0.067,0.2,0.067,0.433,0,0.7v0.15l0.15,0.7
		C87.55,77.583,91.367,77.3,95.4,77.3z"/>
	
		<linearGradient id="SVGID_11_" gradientUnits="userSpaceOnUse" x1="-144.9878" y1="85.7344" x2="-60.1138" y2="85.7344" gradientTransform="matrix(1.178898e-005 -1 1 -0.001 -1.247572e-004 -4.842016e-005)">
		<stop  offset="0" style="stop-color:#B1812F"/>
		<stop  offset="0.149" style="stop-color:#C89A33"/>
		<stop  offset="0.349" style="stop-color:#EDC13A"/>
		<stop  offset="0.9647" style="stop-color:#FCFB38"/>
	</linearGradient>
	<path style="fill-rule:evenodd;clip-rule:evenodd;fill:url(#SVGID_11_);" d="M95.4,76.35c1.866,0,3.25,0.033,4.149,0.1
		c10.5,0.5,16.867,2.6,19.101,6.3c0.8,1.367,1,2.783,0.6,4.25v3.15c0.566,0.767,1.017,1.666,1.35,2.699
		c0.9,1.601,1.351,3.351,1.351,5.25l-0.101,1.5l1.65,13.5l0.7,0.2l0.75,0.4c0.633,0.399,1.2,0.883,1.7,1.45l1.1,1.449l2.7,3.15
		c0.866,0.967,1.167,2.1,0.899,3.4c-0.333,1.3-1.083,2.232-2.25,2.8l-26.75,12.75c-0.732,0.3-1.467,0.433-2.199,0.399
		c-1.268,1.533-2.967,2.851-5.101,3.95c-2.167,1.101-4.2,1.667-6.1,1.7c-0.3,0.1-0.617,0.15-0.95,0.15l-1.4-0.25l-0.1-0.051
		L47.1,130.9l-0.9-0.4c-0.7-0.434-1.45-1.1-2.25-2c-1.4-1.6-2.4-3.434-3-5.5v-0.05l-0.05-0.101l-0.1-0.699l0.05-0.9l0.05-0.3v-0.101
		l0.05-0.1l0.1-0.35l0.05-0.051v-0.1l0.15-0.25c-1.133-1.133-1.483-2.45-1.05-3.95l1.95-6.45l0.3-7.05
		c-0.167-0.533-0.233-1.017-0.2-1.45l0.15-4.55l0.05-0.1V96.3l0.3-1.05L44,65.6l0.1-0.6v-0.15l0.35-0.95l0.5-0.7l0.45-0.45
		l0.45-0.35l0.4-0.2v-0.05c0.566-0.2,0.95-0.317,1.15-0.35l5.1-0.55h0.15l11.55-1.2h0.4c0.466,0,0.816,0.033,1.05,0.1l4.65,1.55
		c0.833,0.066,1.6,0.333,2.3,0.8c1.066,0.566,1.75,1.45,2.05,2.65c0.133,0.534,0.15,1,0.05,1.4c0.466,1.067,0.95,1.833,1.45,2.3
		c1.3,1.233,2.833,2.3,4.6,3.2l1,0.45l0.75,0.6l0.6,0.65l0.2,0.3l0.4,1l0.1,0.55c0.067,0.267,0.067,0.5,0,0.7v0.15l0.15,0.7
		C87.35,76.617,91.167,76.35,95.4,76.35z"/>
	<path style="fill-rule:evenodd;clip-rule:evenodd;fill:none;stroke:#FBFCC9;stroke-width:0.25;" d="M95.4,76.35
		c-4.233,0-8.051,0.267-11.45,0.8l-0.15-0.7V76.3c0.067-0.2,0.067-0.433,0-0.7l-0.1-0.55l-0.4-1l-0.2-0.3l-0.6-0.65l-0.75-0.6
		l-1-0.45c-1.767-0.9-3.3-1.967-4.6-3.2c-0.5-0.467-0.983-1.233-1.45-2.3c0.1-0.4,0.083-0.866-0.05-1.4
		c-0.3-1.2-0.983-2.083-2.05-2.65c-0.7-0.467-1.467-0.733-2.3-0.8l-4.65-1.55c-0.233-0.067-0.583-0.1-1.05-0.1h-0.4l-11.55,1.2H52.5
		l-5.1,0.55c-0.2,0.033-0.583,0.15-1.15,0.35v0.05l-0.4,0.2l-0.45,0.35l-0.45,0.45l-0.5,0.7l-0.35,0.95V65L44,65.6l-1.25,29.65
		l-0.3,1.05v0.15l-0.05,0.1l-0.15,4.55c-0.033,0.434,0.033,0.917,0.2,1.45l-0.3,7.05l-1.95,6.45c-0.434,1.5-0.083,2.817,1.05,3.95
		l-0.15,0.25v0.1l-0.05,0.051l-0.1,0.35l-0.05,0.1v0.101l-0.05,0.3l-0.05,0.9l0.1,0.699l0.05,0.101V123c0.6,2.066,1.6,3.9,3,5.5
		c0.8,0.9,1.55,1.566,2.25,2l0.9,0.4L86.5,144.6l0.1,0.051l1.4,0.25c0.333,0,0.65-0.051,0.95-0.15c1.899-0.033,3.933-0.6,6.1-1.7
		c2.134-1.1,3.833-2.417,5.101-3.95c0.732,0.033,1.467-0.1,2.199-0.399l26.75-12.75c1.167-0.567,1.917-1.5,2.25-2.8
		c0.268-1.301-0.033-2.434-0.899-3.4l-2.7-3.15l-1.1-1.449c-0.5-0.567-1.067-1.051-1.7-1.45l-0.75-0.4l-0.7-0.2l-1.65-13.5
		l0.101-1.5c0-1.899-0.45-3.649-1.351-5.25c-0.333-1.033-0.783-1.933-1.35-2.699V87c0.4-1.467,0.2-2.883-0.6-4.25
		c-2.233-3.7-8.601-5.8-19.101-6.3C98.65,76.383,97.267,76.35,95.4,76.35z"/>
	<path style="fill-rule:evenodd;clip-rule:evenodd;fill:#21230C;" d="M95.4,79.7l3.949,0.1c4.301,0.233,7.9,0.767,10.801,1.6
		c2.899,0.8,4.717,1.817,5.449,3.05c0.4,0.667,0.45,1.35,0.15,2.05v4.85L116,91.6l0.2,0.301c0.5,0.5,0.883,1.267,1.149,2.3
		c0.733,1.033,1.101,2.333,1.101,3.899c0,0.467-0.05,0.95-0.15,1.45c0.533,3.733,1.2,9.134,2,16.2l2.55,0.7h0.051l0.149,0.05
		c0.067,0.066,0.367,0.333,0.9,0.8l0.649,0.8l0.15,0.25l3,3.551c0.167,0.166,0.217,0.35,0.15,0.55
		c-0.067,0.233-0.184,0.383-0.351,0.45l-26.75,12.75l-0.3,0.1l-0.25-0.05l-1.75-0.55l-0.35,0.75
		c-0.601,1.232-1.884,2.449-3.851,3.649c-2.033,1.233-3.899,1.851-5.6,1.851H88.35L88,141.5h-0.15l-0.1-0.05h-0.1L48.3,127.75
		l-0.15-0.1c-0.5-0.301-1.017-0.75-1.55-1.351c-1.067-1.233-1.833-2.649-2.3-4.25v-0.35l0.05-0.101v-0.05l0.05-0.1h0.05v-0.05
		l0.05-0.051l0.15-0.1h0.05l0.05-0.05l4.7-1.65l-5.4-1.7c-0.4-0.166-0.55-0.449-0.45-0.85l2.05-6.9l0.35-8.3l-0.1-0.1l-0.1-0.15
		l-0.05-0.05l0.15-4.75l0.1-0.2V96.5l0.2-0.2l1.3-30.65l0.1-0.2V65.4h0.05l0.15-0.15V65.2h0.05l0.25-0.1h0.05l16.4-1.7l0.3,0.05
		l4.9,1.65l0.2-0.05c0.3,0,0.517,0.1,0.65,0.3l0.2,0.05c0.167,0.1,0.317,0.267,0.45,0.5c0.033,0.2-0.033,0.417-0.2,0.65L71,66.6
		c0.7,2.067,1.6,3.617,2.7,4.65c1.533,1.5,3.466,2.833,5.8,4h0.15l0.15,0.1h0.1l0.15,0.15l0.15,0.2h0.05l0.05,0.2
		c0.033,0.034,0.033,0.05,0,0.05L80.35,76v0.05L80.3,76.3l-0.05,0.05v0.05l0.8,4.75C85.283,80.184,90.066,79.7,95.4,79.7z"/>
	<g>
		<polygon style="fill-rule:evenodd;clip-rule:evenodd;fill:#4C443C;" points="105.6,120.9 124.05,118.65 127.2,122.3 100.5,135.05 
			101.85,122.65 		"/>
		
			<linearGradient id="SVGID_12_" gradientUnits="userSpaceOnUse" x1="-75.8394" y1="-155.8047" x2="-51.6585" y2="-155.8047" gradientTransform="matrix(-0.9377 0.3474 -0.3474 -0.9377 -6.849170e-004 -3.899932e-004)">
			<stop  offset="0" style="stop-color:#302B26"/>
			<stop  offset="0.9882" style="stop-color:#463E38"/>
		</linearGradient>
		<polygon style="fill-rule:evenodd;clip-rule:evenodd;fill:url(#SVGID_12_);" points="105.6,120.9 124.05,118.65 127.2,122.3 
			100.5,135.05 101.85,122.65 		"/>
		<polygon style="fill-rule:evenodd;clip-rule:evenodd;fill:#584F46;" points="100.35,111.15 122.65,117.1 123.4,117.7 
			124.05,118.5 100,128.35 		"/>
		
			<linearGradient id="SVGID_13_" gradientUnits="userSpaceOnUse" x1="98.3936" y1="-100.2778" x2="105.1361" y2="-100.2778" gradientTransform="matrix(-0.2373 0.9714 -0.9714 -0.2373 6.174296e-004 2.526045e-004)">
			<stop  offset="0" style="stop-color:#211C1A"/>
			<stop  offset="0.9882" style="stop-color:#463E38"/>
		</linearGradient>
		<polygon style="fill-rule:evenodd;clip-rule:evenodd;fill:url(#SVGID_13_);" points="102.55,127 100.5,135.05 44.25,117.2 
			46.45,109.85 54.85,103.5 		"/>
		<path style="fill-rule:evenodd;clip-rule:evenodd;fill:#1A1715;" d="M58.85,115.55C85.583,123.75,99.233,127.9,99.8,128l0.851,0.2
			l-0.4,1.95c-0.367,1.467-0.75,2.517-1.15,3.149c-0.633,1-1.683,1.467-3.149,1.4L74.4,124.5c-0.966-0.033-2.5-0.283-4.6-0.75
			c-2.033-0.434-3.15-0.65-3.35-0.65c-0.5,0-1.967-0.399-4.4-1.199c-2.5-0.801-3.7-1.334-3.6-1.601c0.1-0.2,0.033-0.583-0.2-1.149
			l-0.4-0.75c0.333-0.601,0.533-1.033,0.6-1.301L58.85,115.55z"/>
		
			<linearGradient id="SVGID_14_" gradientUnits="userSpaceOnUse" x1="-80.5186" y1="-61.5425" x2="-51.14" y2="-61.5425" gradientTransform="matrix(-0.9948 -0.1021 0.1021 -0.9948 -1.067370e-004 -8.553118e-004)">
			<stop  offset="0" style="stop-color:#302B26"/>
			<stop  offset="0.9882" style="stop-color:#74655D"/>
		</linearGradient>
		<polygon style="fill-rule:evenodd;clip-rule:evenodd;fill:url(#SVGID_14_);" points="55.8,70.3 50.55,71.5 48.2,65.75 64.6,64.05 
			70.55,66.05 63.8,72.8 		"/>
		
			<linearGradient id="SVGID_15_" gradientUnits="userSpaceOnUse" x1="86.8076" y1="-29.4404" x2="98.5349" y2="-29.4404" gradientTransform="matrix(0.4093 0.9124 -0.9124 0.4093 -2.417862e-004 7.700920e-005)">
			<stop  offset="0" style="stop-color:#2D2921"/>
			<stop  offset="0.9882" style="stop-color:#584740"/>
		</linearGradient>
		<path style="fill-rule:evenodd;clip-rule:evenodd;fill:url(#SVGID_15_);" d="M50.2,69.5l3.15-1.7l16.7-2.05l0.7,2.2
			c0.667,1.633,1.483,2.9,2.45,3.8c1.767,1.667,3.917,3.117,6.45,4.35l-6.6,4.85l-15.8,1.5L50.2,69.5z"/>
		
			<linearGradient id="SVGID_16_" gradientUnits="userSpaceOnUse" x1="-147.2334" y1="18.6035" x2="-85.5247" y2="18.6035" gradientTransform="matrix(-0.427 -0.9042 0.9042 -0.427 -1.218915e-004 -3.065467e-004)">
			<stop  offset="0" style="stop-color:#342C25"/>
			<stop  offset="0.9882" style="stop-color:#5B4C43"/>
		</linearGradient>
		<path style="fill-rule:evenodd;clip-rule:evenodd;fill:url(#SVGID_16_);" d="M48.2,65.75l5.3,1.9l0.35,3.4
			c0.466,2.434,1.233,4.167,2.3,5.2c1.633,1.6,3.217,2.633,4.75,3.1c0.733,0.233,1.317,0.3,1.75,0.2l10.95,10l28.65,28.3
			c1.267,1.867,1.7,3.95,1.3,6.25c-0.2,1.167-0.533,2.134-1,2.9l-56.2-17.05L48.2,65.75z"/>
		<path style="fill-rule:evenodd;clip-rule:evenodd;fill:#66594F;" d="M57.2,78c-1.634-1.033-2.6-2.767-2.9-5.2
			c0.5,1.6,1.117,2.75,1.85,3.45c1.633,1.6,3.217,2.633,4.75,3.1c0.733,0.233,1.317,0.3,1.75,0.2l7.75,7.101l-6.3,26.55l-2.35-32.85
			C61.05,80.25,59.533,79.467,57.2,78z"/>
		<path style="fill-rule:evenodd;clip-rule:evenodd;fill:#8C8075;" d="M64.6,64.05L49.3,66l4.4,1.8c-0.6-0.2-1.217-0.417-1.85-0.65
			c-1.3-0.4-2.083-0.567-2.35-0.5c-0.233,0.067-0.45,0.3-0.65,0.7c-0.1,0.2-0.167,0.383-0.2,0.55l-1.425,23.925L48.2,65.75
			L64.6,64.05z"/>
		<path style="fill-rule:evenodd;clip-rule:evenodd;fill:#D2BFAD;" d="M52.95,65.25L52.9,65.3c-1.033,0.1-2.033,0.3-3,0.6L49.3,66
			l0.15,0.05L49.3,66.1l-0.05,0.05c-0.533-0.2-0.85-0.067-0.95,0.4l-0.2,1.15l0.1-1.95L52.95,65.25z"/>
		
			<linearGradient id="SVGID_17_" gradientUnits="userSpaceOnUse" x1="83.2422" y1="-60.7686" x2="94.5389" y2="-60.7686" gradientTransform="matrix(-0.062 0.9981 -1.0016 -0.0046 -9.194091e-004 2.231421e-004)">
			<stop  offset="0" style="stop-color:#949287"/>
			<stop  offset="0.9882" style="stop-color:#706E67"/>
		</linearGradient>
		<path style="fill-rule:evenodd;clip-rule:evenodd;fill:url(#SVGID_17_);" d="M59.3,89.25c0.067,1.767-0.316,3.233-1.15,4.4
			c-0.8,1.166-1.783,1.666-2.95,1.5c-1.1-0.134-2.034-0.884-2.8-2.25c-0.7-1.301-1.033-2.801-1-4.5
			c0.034-1.567,0.417-2.884,1.15-3.95c0.767-1.033,1.667-1.517,2.7-1.45c1.066,0.066,2,0.7,2.8,1.9
			C58.85,86.133,59.267,87.583,59.3,89.25z"/>
		<g>
			<path style="fill-rule:evenodd;clip-rule:evenodd;fill:#5E5E57;" d="M55.2,95.15c-1.1-0.134-2.034-0.884-2.8-2.25
				c-0.7-1.301-1.033-2.801-1-4.5c0.034-1.5,0.4-2.767,1.1-3.8c0.7-1.034,1.55-1.567,2.55-1.6c-1.4,0.667-2.283,1.583-2.65,2.75
				c-0.433,1.367-0.533,2.833-0.3,4.4c0.3,1.967,1.117,3.449,2.45,4.449c0.833,0.634,1.9,0.483,3.2-0.449
				C57.083,94.983,56.233,95.316,55.2,95.15z"/>
		</g>
		
			<linearGradient id="SVGID_18_" gradientUnits="userSpaceOnUse" x1="82.5161" y1="-62.9502" x2="90.8499" y2="-62.9502" gradientTransform="matrix(-0.09 0.9959 -1.0012 -0.0313 -4.303455e-005 2.336204e-004)">
			<stop  offset="0" style="stop-color:#BBB8AA"/>
			<stop  offset="0.9882" style="stop-color:#74736C"/>
		</linearGradient>
		<path style="fill-rule:evenodd;clip-rule:evenodd;fill:url(#SVGID_18_);" d="M58.1,88.55c0,1.333-0.317,2.417-0.95,3.25
			c-0.6,0.867-1.317,1.217-2.15,1.05c-0.833-0.133-1.5-0.699-2-1.699s-0.717-2.117-0.65-3.351c0.066-1.167,0.383-2.133,0.95-2.9
			c0.533-0.733,1.184-1.083,1.95-1.05c0.767,0.067,1.434,0.55,2,1.45C57.816,86.233,58.1,87.316,58.1,88.55z"/>
		<g>
			
				<linearGradient id="SVGID_19_" gradientUnits="userSpaceOnUse" x1="101.7227" y1="-35.0801" x2="106.5451" y2="-35.0801" gradientTransform="matrix(0.14 0.9902 -0.9902 0.14 4.780442e-004 4.221499e-004)">
				<stop  offset="0" style="stop-color:#211C1A"/>
				<stop  offset="0.9882" style="stop-color:#322D27"/>
			</linearGradient>
			<polygon style="fill-rule:evenodd;clip-rule:evenodd;fill:url(#SVGID_19_);" points="50.7,95.95 50.15,101.05 47.9,100.3 
				48.25,95.3 			"/>
			<g>
				<polygon style="fill-rule:evenodd;clip-rule:evenodd;fill:#BEC8B5;" points="50.3,96.05 47.95,98.2 46.6,96.85 48.6,95.65 				
					"/>
				<polygon style="fill-rule:evenodd;clip-rule:evenodd;fill:#78786C;" points="47.75,97.85 50.3,96.05 50,100.6 48.25,101.85 				
					"/>
				
					<linearGradient id="SVGID_20_" gradientUnits="userSpaceOnUse" x1="96.9512" y1="-48.0205" x2="101.3012" y2="-48.0205" gradientTransform="matrix(-0.0057 1 -1 -0.0057 2.236245e-005 -1.811003e-004)">
					<stop  offset="0" style="stop-color:#E3E0D1"/>
					<stop  offset="0.9882" style="stop-color:#CECCBD"/>
				</linearGradient>
				<polygon style="fill-rule:evenodd;clip-rule:evenodd;fill:url(#SVGID_20_);" points="48.45,97.3 48.25,101.85 46.45,101.3 
					46.6,96.85 				"/>
			</g>
		</g>
		<g>
			
				<linearGradient id="SVGID_21_" gradientUnits="userSpaceOnUse" x1="102.9932" y1="-37.8667" x2="107.9677" y2="-37.8667" gradientTransform="matrix(0.1407 0.99 -0.99 0.1407 -4.572123e-004 5.213320e-004)">
				<stop  offset="0" style="stop-color:#211C1A"/>
				<stop  offset="0.9882" style="stop-color:#322D27"/>
			</linearGradient>
			<polygon style="fill-rule:evenodd;clip-rule:evenodd;fill:url(#SVGID_21_);" points="53.5,102 50.9,101.3 51.25,96.1 53.75,96.8 
							"/>
			<g>
				<polygon style="fill-rule:evenodd;clip-rule:evenodd;fill:#BEC8B5;" points="53.4,97 51,99.15 49.65,97.8 51.7,96.6 				"/>
				<polygon style="fill-rule:evenodd;clip-rule:evenodd;fill:#78786C;" points="50.8,98.8 53.4,97 53.05,101.5 51.35,102.8 				"/>
				
					<linearGradient id="SVGID_22_" gradientUnits="userSpaceOnUse" x1="97.8652" y1="-51.1104" x2="102.1403" y2="-51.1104" gradientTransform="matrix(-0.0058 1 -1 -0.0058 -4.618750e-004 9.136274e-006)">
					<stop  offset="0" style="stop-color:#E3E0D1"/>
					<stop  offset="0.9882" style="stop-color:#CECCBD"/>
				</linearGradient>
				<polygon style="fill-rule:evenodd;clip-rule:evenodd;fill:url(#SVGID_22_);" points="51.55,98.25 51.35,102.8 49.5,102.2 
					49.65,97.8 				"/>
				<polygon style="fill-rule:evenodd;clip-rule:evenodd;fill:#F7F5E3;" points="49.85,97.85 49.5,102.2 49.65,97.75 51.7,96.5 
					50,97.75 51.55,98.25 				"/>
			</g>
		</g>
		<g>
			
				<linearGradient id="SVGID_23_" gradientUnits="userSpaceOnUse" x1="105.0908" y1="-42.9854" x2="110.0158" y2="-42.9854" gradientTransform="matrix(0.1421 0.9898 -0.9898 0.1421 1.593381e-004 4.381537e-004)">
				<stop  offset="0" style="stop-color:#211C1A"/>
				<stop  offset="0.9882" style="stop-color:#322D27"/>
			</linearGradient>
			<polygon style="fill-rule:evenodd;clip-rule:evenodd;fill:url(#SVGID_23_);" points="58.7,103.25 56.4,102.5 56.75,97.35 
				59.25,98.05 			"/>
			<g>
				<polygon style="fill-rule:evenodd;clip-rule:evenodd;fill:#BEC8B5;" points="58.9,98.3 56.5,100.45 55.15,99.1 57.2,97.9 				
					"/>
				<polygon style="fill-rule:evenodd;clip-rule:evenodd;fill:#78786C;" points="56.3,100.1 58.9,98.3 58.55,102.8 56.85,104.1 				
					"/>
				
					<linearGradient id="SVGID_24_" gradientUnits="userSpaceOnUse" x1="99.1328" y1="-56.6177" x2="103.4079" y2="-56.6177" gradientTransform="matrix(-0.0058 1 -1 -0.0058 -4.618750e-004 9.136274e-006)">
					<stop  offset="0" style="stop-color:#E3E0D1"/>
					<stop  offset="0.9882" style="stop-color:#CECCBD"/>
				</linearGradient>
				<polygon style="fill-rule:evenodd;clip-rule:evenodd;fill:url(#SVGID_24_);" points="57.05,99.55 56.85,104.1 55,103.5 
					55.15,99.1 				"/>
				<polygon style="fill-rule:evenodd;clip-rule:evenodd;fill:#F7F5E3;" points="55.35,99.2 55,103.45 55.15,99.05 57.2,97.85 
					55.5,99.1 57.05,99.55 				"/>
			</g>
		</g>
		<g>
			
				<linearGradient id="SVGID_25_" gradientUnits="userSpaceOnUse" x1="106.375" y1="-45.8721" x2="111.4768" y2="-45.8721" gradientTransform="matrix(0.1421 0.9899 -0.9899 0.1421 2.182722e-004 3.030896e-004)">
				<stop  offset="0" style="stop-color:#211C1A"/>
				<stop  offset="0.9882" style="stop-color:#322D27"/>
			</linearGradient>
			<polygon style="fill-rule:evenodd;clip-rule:evenodd;fill:url(#SVGID_25_);" points="62.05,104.25 59.4,103.55 59.8,98.2 
				62.35,98.9 			"/>
			<g>
				<polygon style="fill-rule:evenodd;clip-rule:evenodd;fill:#BEC8B5;" points="61.95,99.2 59.55,101.35 58.25,100 60.25,98.8 				
					"/>
				<polygon style="fill-rule:evenodd;clip-rule:evenodd;fill:#78786C;" points="59.35,101 61.95,99.2 61.6,103.75 59.9,105 				"/>
				
					<linearGradient id="SVGID_26_" gradientUnits="userSpaceOnUse" x1="99.8916" y1="-59.6494" x2="104.3417" y2="-59.6494" gradientTransform="matrix(-0.0056 1 -1 -0.0056 -2.458426e-004 -2.126442e-004)">
					<stop  offset="0" style="stop-color:#E3E0D1"/>
					<stop  offset="0.9882" style="stop-color:#CECCBD"/>
				</linearGradient>
				<polygon style="fill-rule:evenodd;clip-rule:evenodd;fill:url(#SVGID_26_);" points="60.1,100.45 59.9,105 58.05,104.45 
					58.25,100 				"/>
			</g>
		</g>
		
			<linearGradient id="SVGID_27_" gradientUnits="userSpaceOnUse" x1="-129.3423" y1="25.8818" x2="-101.487" y2="25.8818" gradientTransform="matrix(-0.4164 -0.9092 0.9092 -0.4164 1.696348e-004 5.947948e-004)">
			<stop  offset="0" style="stop-color:#17120D"/>
			<stop  offset="0.9882" style="stop-color:#52473D"/>
		</linearGradient>
		<polygon style="fill-rule:evenodd;clip-rule:evenodd;fill:url(#SVGID_27_);" points="79.45,75.9 84.8,108.1 64.1,113.2 
			62.65,79.55 		"/>
		
			<radialGradient id="SVGID_28_" cx="71.5742" cy="92.4033" r="3.825" gradientTransform="matrix(1 -0.0035 -0.0061 -1.7222 0.8882 251.5412)" gradientUnits="userSpaceOnUse">
			<stop  offset="0" style="stop-color:#000000;stop-opacity:0.8588"/>
			<stop  offset="1" style="stop-color:#000000;stop-opacity:0"/>
		</radialGradient>
		<path style="fill-rule:evenodd;clip-rule:evenodd;fill:url(#SVGID_28_);" d="M75.7,92.15c0.033,1.8-0.317,3.35-1.05,4.649
			c-0.767,1.3-1.683,1.95-2.75,1.95s-1.966-0.65-2.7-1.95c-0.767-1.267-1.15-2.816-1.15-4.649c0-1.834,0.367-3.384,1.1-4.65
			c0.767-1.3,1.667-1.95,2.7-1.95c1.066,0,1.966,0.65,2.7,1.95C75.316,88.767,75.7,90.316,75.7,92.15z"/>
		<path style="fill-rule:evenodd;clip-rule:evenodd;fill:#66594F;" d="M79.45,75.9l0.2,0.2l-17.2,4.4
			c-0.3,0.167-0.534,0.117-0.7-0.15c-0.333-0.534-0.333-0.784,0-0.75C62.95,79.7,68.85,78.467,79.45,75.9z"/>
		
			<linearGradient id="SVGID_29_" gradientUnits="userSpaceOnUse" x1="99.4697" y1="83.5083" x2="137.6247" y2="83.5083" gradientTransform="matrix(0.9579 0.287 -0.287 0.9579 1.229644e-004 3.413856e-004)">
			<stop  offset="0" style="stop-color:#2A241D"/>
			<stop  offset="0.9882" style="stop-color:#483C34"/>
		</linearGradient>
		<path style="fill-rule:evenodd;clip-rule:evenodd;fill:url(#SVGID_29_);" d="M80.5,107.65l12.2,1.5
			c4.333,0.967,14.316,3.616,29.95,7.949L103.55,124.4L64.1,113.2L80.5,107.65z"/>
		<path style="fill-rule:evenodd;clip-rule:evenodd;fill:#1A1715;" d="M83.05,110.7c3.067-0.934,6.783-1.417,11.15-1.45
			c4.333,0,8.033,0.45,11.1,1.35c3.067,0.9,4.601,2.018,4.601,3.351c0.033,1.3-1.483,2.433-4.551,3.399
			c-3.1,0.934-6.816,1.4-11.149,1.4c-4.333,0.033-8.033-0.417-11.1-1.35c-3.067-0.9-4.6-2-4.6-3.301
			C78.467,112.767,79.983,111.633,83.05,110.7z"/>
		<path style="fill-rule:evenodd;clip-rule:evenodd;fill:#1A1715;" d="M83,115.65l5.55,1.25c-0.366,0.267-0.866,0.517-1.5,0.75
			c-0.733,0.267-1.283,0.467-1.649,0.6c-0.8,0.4-1.4,0.6-1.8,0.6c0,0.233-0.133,0.533-0.4,0.9c-0.1,0.233-0.15,0.583-0.15,1.05
			c0,0.267,0.017,0.65,0.05,1.15c0.066,0.899-0.083,1.616-0.45,2.149c-0.067,0.134-0.2,0.384-0.4,0.75
			c-0.167,0.301-0.35,0.518-0.55,0.65c-0.134,0.1-0.35,0.15-0.65,0.15c-0.333-0.033-0.566-0.051-0.7-0.051
			c-0.7,0.033-1.167,0.033-1.4,0c-0.434-0.066-0.65-0.333-0.65-0.8c0.033-0.8,0.15-1.767,0.35-2.899
			c0.233-1.268,0.4-2.217,0.5-2.851c0.1-1.133,0.167-1.733,0.2-1.8c0.3-0.767,0.816-1.233,1.55-1.4
			C81.3,115.75,82,115.684,83,115.65z"/>
		<path style="fill-rule:evenodd;clip-rule:evenodd;fill:#4F2829;" d="M69.9,90c0.067-1.066,0.417-1.95,1.05-2.65
			c0.633-0.699,1.366-1.033,2.2-1c1.534,0.067,2.467,0.483,2.8,1.25c0.133,0.334,0.167,1.233,0.1,2.7
			c-0.133,2.567-0.917,3.833-2.35,3.8c-1.267-0.066-2.25-0.5-2.95-1.3C70.117,92.033,69.833,91.1,69.9,90z"/>
		<path style="fill-rule:evenodd;clip-rule:evenodd;fill:#773336;" d="M71.15,90.05c0.067-1.033,0.4-1.917,1-2.649
			c0.633-0.7,1.35-1.033,2.15-1c0.833,0.033,1.517,0.433,2.05,1.199c0.566,0.768,0.816,1.684,0.75,2.75
			c-0.034,1.033-0.367,1.9-1,2.601c-0.6,0.733-1.317,1.083-2.15,1.05c-0.833-0.033-1.517-0.434-2.05-1.2
			C71.367,92,71.117,91.083,71.15,90.05z"/>
		<path style="fill-rule:evenodd;clip-rule:evenodd;fill:#E5D7C6;" d="M89.1,95.35L74.2,92.2l-0.4-0.05
			c-0.467-0.101-0.783-0.45-0.95-1.051c-0.2-0.666-0.1-1.383,0.3-2.149c0.5-0.934,1.45-1.283,2.85-1.05l14.9,2.649L89.1,95.35z"/>
		<path style="fill-rule:evenodd;clip-rule:evenodd;fill:#AC9C89;" d="M115.05,84.95l0.05,17.1c0,1.8-0.482,3.667-1.449,5.601
			c-1.334,2.699-3.334,4.767-6,6.199c-3.2,1.733-7.2,2.667-12,2.801c-1.867,0.166-3.801,0.149-5.801-0.051
			c-2.433-0.267-4.683-0.8-6.75-1.6c-2.967-0.8-5.317-2.583-7.05-5.35c-1.3-2.134-1.95-4.117-1.95-5.95l-0.2-18.5l7.15-0.35
			c5.033-0.233,8.267-0.35,9.7-0.35l4.55,2.65l4.45-2.7C101.917,84.417,107.017,84.583,115.05,84.95z"/>
		<g>
			<path style="fill-rule:evenodd;clip-rule:evenodd;fill:#9E8E7F;" d="M96.3,95.15c-0.033-0.5-0.217-1.2-0.55-2.101
				c-0.4-1-0.633-1.717-0.7-2.149l7.851-6.4h0.399l-1.649,6.25c0.8,0.1,1.267,0.9,1.399,2.4c0.033,0.366,0.017,1.416-0.05,3.149
				c-0.033,0.634-0.267,1.367-0.7,2.2c-0.566,1.066-0.899,1.75-1,2.05c0.601-0.399,1.167-0.866,1.7-1.399
				c0.033,0.666,0,1.232-0.1,1.699c-0.101,0.367-0.317,0.9-0.65,1.601c-0.633,1.3-0.95,2.75-0.95,4.35c0,0.134,0.05,0.483,0.15,1.05
				c0.066,0.434,0.066,0.768,0,1c-0.267,0.834-1.05,1.867-2.351,3.101c-0.533,0.533-1.217,0.899-2.05,1.1
				c-0.933,0.167-1.683,0.351-2.25,0.55c-0.6,0.233-1.3,0.367-2.1,0.4c-0.934,0-1.667,0.017-2.2,0.05c0.566,0.333,1.35,0.5,2.35,0.5
				c-0.333,0.367-0.883,0.567-1.649,0.601c-0.267,0-0.884-0.051-1.851-0.15c-2.166-0.133-3.967-0.333-5.399-0.6
				c-0.9-0.167-1.784-0.5-2.65-1c-0.933-0.533-1.667-1.134-2.2-1.801c0.033,0.033,0.267,0.134,0.7,0.301
				c-0.3-0.167-0.533-0.283-0.7-0.351c-0.267-0.133-0.5-0.183-0.7-0.149c0.067,0.399,0.133,0.633,0.2,0.699
				c-0.434-0.267-0.883-0.666-1.35-1.199c-0.566-0.634-0.983-1.101-1.25-1.4c-0.7-1.133-1.233-2.4-1.6-3.8
				c0.433,0.967,0.767,1.633,1,2c0.567,0.767,1.483,1.467,2.75,2.1c0-0.167,0.117-0.399,0.35-0.7c0.3,0.134,0.667,0.434,1.1,0.9
				l-0.45-0.25c1.733,1.1,3.45,1.833,5.15,2.2c2.233,0.533,3.601,0.816,4.101,0.85c1.6,0.167,2.916-0.133,3.949-0.899
				c-0.232,0.399-0.55,0.75-0.949,1.05c-0.46,0.394-0.885,0.594-1.275,0.6c0.154,0.002,0.662,0.019,1.525,0.05
				c0.699,0.033,1.199,0,1.5-0.1c0.3-0.1,0.566-0.283,0.8-0.55c0.233-0.367,0.433-0.667,0.6-0.9c0.733-0.566,1.15-0.95,1.25-1.149
				c0.067-0.134,0.117-0.334,0.15-0.601c0-0.333,0.017-0.55,0.05-0.649c0.066-0.268,0.233-0.667,0.5-1.2
				c0.267-0.5,0.434-0.9,0.5-1.2c0.167-0.566,0.15-1.267-0.05-2.1C96.717,104.017,96.6,103.3,96.6,103
				c-0.267,0-0.683,0.083-1.25,0.25c-0.5,0.167-0.916,0.233-1.25,0.2c0.2-0.233,0.634-0.517,1.301-0.851
				c0.633-0.3,1.033-0.649,1.199-1.05c0.167-0.333,0.268-0.8,0.301-1.399c0.033-0.533,0-1-0.101-1.4c-0.033-0.167-0.2-0.55-0.5-1.15
				c-0.233-0.433-0.316-0.833-0.25-1.199C96.217,95.867,96.3,95.45,96.3,95.15z"/>
			<path style="fill-rule:evenodd;clip-rule:evenodd;fill:#8E8073;" d="M103.05,93.15c-0.133-1.5-0.6-2.301-1.399-2.4l1.649-6.25
				l5.5,0.2l-2.05,5.3c-0.967,0.033-1.517,0.684-1.65,1.95c-0.1,0.7-0.116,1.7-0.05,3c-0.033,0.533-0.316,1.7-0.85,3.5
				c-0.434,1.433-0.567,2.633-0.4,3.6c0.233,1.4,0.333,2.3,0.3,2.7l-0.199,3.5c-0.033,0.7-0.067,1.133-0.101,1.3
				c-0.1,0.333-0.316,0.667-0.649,1c-0.567,0.601-1.283,1.533-2.15,2.8c-0.367,0.634-0.583,0.983-0.65,1.051
				c-0.696,0.569-1.854,0.869-3.475,0.899h0.775c-0.134,0.434-1,0.9-2.601,1.4c-4.3,0.267-8.283-0.3-11.95-1.7
				c-3.034-0.8-5.4-2.633-7.1-5.5c0.267,0.3,0.684,0.767,1.25,1.4c0.467,0.533,0.917,0.933,1.35,1.199
				c-0.067-0.066-0.133-0.3-0.2-0.699c0.2-0.033,0.433,0.017,0.7,0.149c0.167,0.067,0.4,0.184,0.7,0.351
				c-0.433-0.167-0.667-0.268-0.7-0.301c0.533,0.667,1.267,1.268,2.2,1.801c0.867,0.5,1.75,0.833,2.65,1
				c1.433,0.267,3.233,0.467,5.399,0.6c0.967,0.1,1.584,0.15,1.851,0.15c0.767-0.033,1.316-0.233,1.649-0.601
				c-1,0-1.783-0.167-2.35-0.5c0.533-0.033,1.267-0.05,2.2-0.05c0.8-0.033,1.5-0.167,2.1-0.4c0.567-0.199,1.317-0.383,2.25-0.55
				c0.833-0.2,1.517-0.566,2.05-1.1c1.301-1.233,2.084-2.267,2.351-3.101c0.066-0.232,0.066-0.566,0-1
				c-0.101-0.566-0.15-0.916-0.15-1.05c0-1.6,0.317-3.05,0.95-4.35c0.333-0.7,0.55-1.233,0.65-1.601
				c0.1-0.467,0.133-1.033,0.1-1.699c-0.533,0.533-1.1,1-1.7,1.399c0.101-0.3,0.434-0.983,1-2.05c0.434-0.833,0.667-1.566,0.7-2.2
				C103.066,94.566,103.083,93.517,103.05,93.15z"/>
			<path style="fill-rule:evenodd;clip-rule:evenodd;fill:#72675B;" d="M105.05,94.95c-0.066-1.3-0.05-2.3,0.05-3
				c0.134-1.267,0.684-1.917,1.65-1.95l2.05-5.3l5.4,0.25L109.6,88.85c0.101,0.067,0.634,0.167,1.601,0.301
				c0.633,0.1,1,0.449,1.1,1.05c-1.167-0.2-2.083-0.25-2.75-0.15c-1,0.134-1.733,0.601-2.2,1.4c-0.199,0.333-0.383,1.1-0.55,2.3
				c-0.033,0.133-0.433,1.9-1.2,5.3c-0.199,0.833-0.3,2.5-0.3,5c0.033,1.167-0.217,2.617-0.75,4.351
				c-0.667,2.232-1.05,3.649-1.149,4.25c-0.268,1.333-0.634,2.283-1.101,2.85c-0.167,0.167-0.45,0.333-0.85,0.5
				c-1.733,0.367-3.667,0.583-5.8,0.65l-0.601,0.05c1.601-0.5,2.467-0.967,2.601-1.4h-0.775c1.62-0.03,2.778-0.33,3.475-0.899
				c0.067-0.067,0.283-0.417,0.65-1.051c0.867-1.267,1.583-2.199,2.15-2.8c0.333-0.333,0.55-0.667,0.649-1
				c0.033-0.167,0.067-0.6,0.101-1.3l0.199-3.5c0.033-0.4-0.066-1.3-0.3-2.7c-0.167-0.967-0.033-2.167,0.4-3.6
				C104.733,96.65,105.017,95.483,105.05,94.95z"/>
			<path style="fill-rule:evenodd;clip-rule:evenodd;fill:#4E473E;" d="M112.3,90.2c-0.1-0.601-0.467-0.95-1.1-1.05
				c-0.967-0.134-1.5-0.233-1.601-0.301l4.601-3.899h0.85l0.05,17.1c0,1.8-0.482,3.667-1.449,5.601
				c-1.334,2.699-3.334,4.767-6,6.199c-1.768,0.967-3.834,1.684-6.2,2.15c0.399-0.167,0.683-0.333,0.85-0.5
				c0.467-0.566,0.833-1.517,1.101-2.85c0.1-0.601,0.482-2.018,1.149-4.25c0.533-1.733,0.783-3.184,0.75-4.351
				c0-2.5,0.101-4.167,0.3-5c0.768-3.399,1.167-5.167,1.2-5.3c0.167-1.2,0.351-1.967,0.55-2.3c0.467-0.8,1.2-1.267,2.2-1.4
				C110.217,89.95,111.133,90,112.3,90.2z"/>
			<path style="fill-rule:evenodd;clip-rule:evenodd;fill:#B7A691;" d="M75.25,92.55c-0.267-0.366-0.417-0.633-0.45-0.8
				c0-0.1,0.1-0.717,0.3-1.85l1.15,0.149c0.667-0.1,1.45,0.05,2.35,0.45c0.3,0.133,1.033,0.533,2.2,1.2
				c0.867,0.5,2.184,1.133,3.95,1.899c0.5,0.268,1.1,0.801,1.8,1.601c0.467,0.333,1.283,0.683,2.45,1.05s2,0.733,2.5,1.1
				c0.434,0.334,0.684,0.601,0.75,0.801c0.066,0.133,0.167,0.449,0.3,0.949c0.4,0.801,0.95,1.301,1.65,1.5
				c0.233,0.067,0.6,0.084,1.1,0.051c0.367,0.066,0.483,0.333,0.351,0.8c-0.101,0.399-0.684,0.8-1.75,1.2
				c-0.801,0.3-1.533,0.517-2.2,0.649c-0.733,0.033-1.217,0.101-1.45,0.2c-0.167,0.066-0.383,0.233-0.65,0.5
				c-0.232,0.3-0.433,0.467-0.6,0.5c-0.467,0.2-1.233,0.283-2.3,0.25c-1.2-0.033-2-0.066-2.4-0.1c-0.9-0.033-2.267-0.584-4.1-1.65
				c-1.1-0.6-2-1.117-2.7-1.55c-1.233-0.767-1.983-1.45-2.25-2.05c-0.133-1-0.233-1.617-0.3-1.851c-0.1-0.533-0.117-1.316-0.05-2.35
				C75.133,94,75.25,93.117,75.25,92.55z M76.95,93.65c-0.1,0.1-0.284,0.449-0.55,1.05c-0.267,0.6-0.417,0.983-0.45,1.149
				c-0.167,0.801,0.116,1.684,0.85,2.65c0.434,0.533,1.083,1.267,1.95,2.2l0.3-0.351c0.033,0,0.9,0.367,2.6,1.101
				c1.1,0.467,2.017,0.667,2.75,0.6c0.133-0.399,0.067-0.899-0.2-1.5c-0.367-0.8-0.567-1.283-0.6-1.45c-0.067-0.267-0.034-0.6,0.1-1
				c0.133-0.533,0.2-0.866,0.2-1c0.067-0.666-0.1-1.316-0.5-1.949c-0.4-0.7-0.933-1.101-1.6-1.2l-1-0.65
				c-0.933-0.1-1.633-0.167-2.1-0.2C77.867,93.066,77.283,93.25,76.95,93.65z"/>
			<path style="fill-rule:evenodd;clip-rule:evenodd;fill:#B7A691;" d="M82.35,107.4c-0.8-0.134-1.4-0.167-1.8-0.101
				c0.134,0.333,0.533,0.583,1.2,0.75c0.4,0.101,0.934,0.2,1.6,0.3c0.767,0.2,1.35,0.268,1.75,0.2c0.301-0.066,0.801-0.333,1.5-0.8
				l-2.45-0.15C83.85,107.6,83.25,107.533,82.35,107.4z M78.6,106c0.633,0.167,1.583,0.283,2.85,0.35
				c2.233,0.434,3.683,0.667,4.35,0.7c1.833,0.134,3.134-0.167,3.9-0.899l3.25,0.6c-0.067,0.467-0.101,0.967-0.101,1.5
				c-0.066,0.4-0.399,0.75-1,1.05c-1.433,1.033-2.383,1.601-2.85,1.7c-0.267,0.066-0.7,0.017-1.3-0.15
				c-0.601-0.199-1.033-0.333-1.3-0.399c-1.367-0.267-2.367-0.483-3-0.65c-1.067-0.3-1.966-0.717-2.7-1.25c-0.833-0.6-1.5-1.1-2-1.5
				c-0.967-0.767-1.384-1.3-1.25-1.6C77.717,105.517,78.1,105.7,78.6,106z"/>
			<path style="fill-rule:evenodd;clip-rule:evenodd;fill:#C2B29B;" d="M75.95,95.85c0.033-0.166,0.183-0.55,0.45-1.149
				c0.267-0.601,0.45-0.95,0.55-1.05c0.333-0.4,0.917-0.584,1.75-0.551c0.466,0.033,1.167,0.101,2.1,0.2l1,0.65
				c0.667,0.1,1.2,0.5,1.6,1.2c0.4,0.633,0.567,1.283,0.5,1.949c0,0.134-0.067,0.467-0.2,1c-0.134,0.4-0.167,0.733-0.1,1
				c0.033,0.167,0.233,0.65,0.6,1.45c0.267,0.601,0.333,1.101,0.2,1.5c-0.733,0.067-1.65-0.133-2.75-0.6
				c-1.7-0.733-2.567-1.101-2.6-1.101l-0.3,0.351c-0.867-0.934-1.517-1.667-1.95-2.2C76.066,97.533,75.783,96.65,75.95,95.85z"/>
			<path style="fill-rule:evenodd;clip-rule:evenodd;fill:#C2B29B;" d="M80.55,107.3c0.4-0.066,1-0.033,1.8,0.101
				c0.9,0.133,1.5,0.199,1.8,0.199l2.45,0.15c-0.699,0.467-1.199,0.733-1.5,0.8c-0.399,0.067-0.983,0-1.75-0.2
				c-0.667-0.1-1.2-0.199-1.6-0.3C81.083,107.883,80.684,107.633,80.55,107.3z"/>
		</g>
		
			<linearGradient id="SVGID_30_" gradientUnits="userSpaceOnUse" x1="73.4736" y1="86.2256" x2="114.899" y2="86.2256" gradientTransform="matrix(1 -0.0042 0.0042 1 -5.290378e-005 -1.998618e-004)">
			<stop  offset="0" style="stop-color:#C8B59E"/>
			<stop  offset="0.9882" style="stop-color:#A39481"/>
		</linearGradient>
		<path style="fill-rule:evenodd;clip-rule:evenodd;fill:url(#SVGID_30_);" d="M99.3,80.45c5.134,0.267,9.217,0.967,12.25,2.1
			c3.067,1.134,4.233,2.4,3.5,3.8c-0.767,1.533-3.483,2.783-8.149,3.75c-4.7,0.967-10,1.351-15.9,1.15
			c-6.1-0.233-10.783-1-14.05-2.3c-3.233-1.333-4.017-2.783-2.35-4.35c1.5-1.467,4.683-2.583,9.55-3.35
			C88.883,80.45,93.934,80.184,99.3,80.45z"/>
		<path style="fill-rule:evenodd;clip-rule:evenodd;fill:#F8E2C6;" d="M99.1,81.4c4,0.167,7.167,0.633,9.5,1.4
			c2.334,0.733,3.2,1.567,2.601,2.5c-0.667,1-2.817,1.833-6.45,2.5c-3.733,0.634-7.883,0.884-12.45,0.75
			c-4.733-0.133-8.35-0.633-10.85-1.5c-2.467-0.866-3.034-1.816-1.7-2.85c1.2-0.967,3.7-1.717,7.5-2.25
			C91.017,81.417,94.967,81.233,99.1,81.4z"/>
		
			<linearGradient id="SVGID_31_" gradientUnits="userSpaceOnUse" x1="77.9448" y1="85.6177" x2="110.445" y2="85.6177" gradientTransform="matrix(1 -0.0042 0.0042 1 -2.433732e-005 -2.124403e-004)">
			<stop  offset="0" style="stop-color:#4E473E"/>
			<stop  offset="0.9882" style="stop-color:#9E8E7F"/>
		</linearGradient>
		<path style="fill-rule:evenodd;clip-rule:evenodd;fill:url(#SVGID_31_);" d="M98.45,81.6c4.033,0.167,7.217,0.633,9.55,1.4
			c2.367,0.767,3.233,1.617,2.6,2.55c-0.666,1.033-2.833,1.884-6.5,2.55c-3.732,0.667-7.899,0.934-12.5,0.801
			c-4.767-0.134-8.416-0.65-10.95-1.551c-2.5-0.899-3.067-1.883-1.7-2.95c1.2-1,3.716-1.767,7.55-2.3
			C90.3,81.566,94.283,81.4,98.45,81.6z"/>
		<path style="fill-rule:evenodd;clip-rule:evenodd;fill:#D7C4AC;" d="M95.7,91.15c2.167,0,3.933-0.067,5.3-0.2
			c-2.667,0.433-5.117,0.767-7.35,1c-1.667,0.167-3.768,0.133-6.301-0.101c-2.433-0.199-4.649-0.533-6.649-1
			c-1.634-0.399-2.967-0.967-4-1.699l-1.1-1l1.15,0.5c1.633,0.767,3.667,1.316,6.1,1.649C87.017,90.9,91.3,91.184,95.7,91.15z"/>
		<path style="fill-rule:evenodd;clip-rule:evenodd;fill:#F8E2C6;" d="M80.6,90.2c0.5-0.134,2.35,0.083,5.55,0.649
			c1.033,0.101,1.366,0.283,1,0.551c-0.4,0.267-1.033,0.35-1.9,0.25c-1.167-0.101-2.033-0.2-2.6-0.301c-1-0.133-1.65-0.3-1.95-0.5
			l-0.6-0.399C80.066,90.417,80.233,90.333,80.6,90.2z"/>
		<path style="fill-rule:evenodd;clip-rule:evenodd;fill:#9E8E7F;" d="M80.7,117.95c-0.2,0.133-0.333,1.167-0.4,3.1
			c-0.033,1.267-0.1,2.15-0.2,2.65c-0.2,0.967-0.583,1.649-1.15,2.05c-0.833,0.633-2.1,1.417-3.8,2.35l-5.45-3
			c3.133-2,4.733-3.066,4.8-3.199l0.25-3.2c0.233-2,1.083-3.417,2.55-4.25c0.934-0.533,2.05-1.017,3.35-1.45
			c0.633-0.2,1.183-0.367,1.65-0.5l1.05-0.15c0.8,0,1.4,0.233,1.8,0.7c0.6,0.667,0.883,1.333,0.85,2c0,0.333-0.066,0.601-0.2,0.8
			L80.7,117.95z"/>
		<g>
			<path style="fill-rule:evenodd;clip-rule:evenodd;fill:#8E8073;" d="M77.15,120.35h-0.1v-0.3l0.1-0.05
				c0.133-0.533,0.2-0.95,0.2-1.25l-0.05-0.85c0.1,0.1,0.2,0.25,0.3,0.449c0.1-0.3,0.216-0.482,0.35-0.55
				c0,0.134,0.083,0.15,0.25,0.05c0.167-0.1,0.216-0.25,0.15-0.449c-0.034-0.233-0.034-0.384,0-0.45
				c0.233-0.067,0.383-0.15,0.45-0.25c-0.033-0.367-0.017-0.617,0.05-0.75c0.566,0,0.95-0.033,1.15-0.101l0.3-0.3
				c0.134-0.167,0.483-0.366,1.05-0.6c0.1-0.033,0.433-0.101,1-0.2c0.4-0.066,0.7-0.167,0.9-0.3l1-0.7c0.2-0.1,0.333-0.217,0.4-0.35
				c0.034-0.033,0.05-0.233,0.05-0.601v-0.1c0.002,0.067,0.152,0.185,0.45,0.35l0.149,0.25c0.167,0.4,0.2,0.767,0.101,1.101
				c-0.067,0.133-0.217,0.267-0.45,0.399l-0.9,0.65c-0.267,0.167-0.733,0.3-1.4,0.399c-1.233,0.434-2,0.801-2.3,1.101l-0.25,0.35
				c-0.133,0.101-0.367,0.217-0.7,0.351c-0.3,0.1-0.517,0.199-0.65,0.3c0.1,0.1,0.25,0.167,0.45,0.2c0.167,0,0.216,0.116,0.15,0.35
				c-0.067,0.2-0.1,0.85-0.1,1.95c0,0.167,0.017,0.417,0.05,0.75c0,0.3-0.05,0.533-0.15,0.7c-0.033,0.066-0.133,0.166-0.3,0.3
				c-0.067,0.1-0.117,0.217-0.15,0.35c-0.5,0.167-0.8,0.25-0.9,0.25v0.2c-0.167,0.033-0.283,0.017-0.35-0.05
				c-0.067-0.167-0.134-0.367-0.2-0.601c-0.033-0.066-0.05-0.433-0.05-1.1C77.2,120.75,77.184,120.45,77.15,120.35z"/>
			<path style="fill-rule:evenodd;clip-rule:evenodd;fill:#8E8073;" d="M74.95,122.6c-0.467-0.133-0.833-0.183-1.1-0.149l-0.25,0.1
				l0.9-0.649c0.467-0.067,0.684,0.033,0.65,0.3l0.35,0.1l0.4,0.3h-0.15C75.383,122.633,75.117,122.633,74.95,122.6z"/>
			<path style="fill-rule:evenodd;clip-rule:evenodd;fill:#72675B;" d="M72.45,124.6c0-0.699,0.033-1.133,0.1-1.3l0.05,0.25
				c0.133,0.467,0.683,1.317,1.65,2.55c0.5,0.601,1.033,1.134,1.6,1.601l-0.7,0.399l-2.05-1.149
				C72.733,126.117,72.517,125.333,72.45,124.6z"/>
			<path style="fill-rule:evenodd;clip-rule:evenodd;fill:#72675B;" d="M74.95,122.6c0.167,0.033,0.433,0.033,0.8,0h0.15
				c0.2,0.134,0.3,0.25,0.3,0.351c-0.067,0-0.167-0.033-0.3-0.101c-0.333-0.133-0.833-0.199-1.5-0.199
				c-0.633,0-1.05,0.149-1.25,0.449c-0.233,0.268-0.1,0.684,0.4,1.25c0.9,0.934,2.217,1.733,3.95,2.4l-1.65,0.95
				c-0.567-0.467-1.1-1-1.6-1.601c-0.967-1.232-1.517-2.083-1.65-2.55l-0.05-0.25l1.05-0.75l0.25-0.1
				C74.117,122.417,74.483,122.467,74.95,122.6z"/>
			<path style="fill-rule:evenodd;clip-rule:evenodd;fill:#72675B;" d="M85.4,114.4c0.1-0.334,0.066-0.7-0.101-1.101l0.351,0.45
				c0,0.1,0.017,0.316,0.05,0.65c0.066,0.267,0.066,0.467,0,0.6c-0.067,0.2-0.4,0.434-1,0.7l-2.05,1c-0.966,0.333-1.7,0.6-2.2,0.8
				c-0.7,0.267-1.2,0.434-1.5,0.5c0.066,0.066,0.2,0.1,0.4,0.1c0.2,0.033,0.316,0.101,0.35,0.2v1.101c0,0.399-0.05,0.949-0.15,1.649
				c-0.033,0.4-0.066,0.983-0.1,1.75c0,0.333-0.05,0.55-0.15,0.65c-0.066,0.066-0.25,0.066-0.55,0c-0.267-0.101-0.45-0.167-0.55-0.2
				c-0.067,0-0.134-0.083-0.2-0.25c-0.099-0.133-0.166-0.199-0.2-0.2c0.102,0,0.401-0.083,0.9-0.25
				c0.033-0.133,0.083-0.233,0.15-0.3c0.167-0.1,0.267-0.184,0.3-0.25c0.1-0.167,0.15-0.4,0.15-0.7
				c-0.033-0.333-0.05-0.583-0.05-0.75c0-1.133,0.033-1.816,0.1-2.05c0.066-0.233,0.017-0.35-0.15-0.35
				c-0.233,0-0.384-0.051-0.45-0.15c0.133-0.133,0.35-0.25,0.65-0.35c0.367-0.134,0.6-0.25,0.7-0.351l0.25-0.35
				c0.3-0.3,1.066-0.667,2.3-1.101c0.667-0.1,1.133-0.232,1.4-0.399l0.9-0.65C85.184,114.667,85.333,114.533,85.4,114.4z"/>
			<path style="fill-rule:evenodd;clip-rule:evenodd;fill:#4E473E;" d="M76.75,122.7c0.267,0.2,0.483,0.3,0.65,0.3l-0.05,0.1
				l-0.45-0.25L76.75,122.7z"/>
			<path style="fill-rule:evenodd;clip-rule:evenodd;fill:#4E473E;" d="M76.85,122.85l-0.1-0.05l-0.85-0.2l-0.4-0.3
				c0.267,0,0.55,0.05,0.85,0.15h0.05L76.85,122.85z"/>
			<path style="fill-rule:evenodd;clip-rule:evenodd;fill:#4E473E;" d="M77.45,123v-0.05l0.35,0.3c-0.133,0-0.283-0.05-0.45-0.15
				l0.05-0.1H77.45z"/>
			<path style="fill-rule:evenodd;clip-rule:evenodd;fill:#4E473E;" d="M77,123.05l-0.1-0.2l0.45,0.25l-0.2,0.15
				C77.128,123.229,77.078,123.161,77,123.05z"/>
			<path style="fill-rule:evenodd;clip-rule:evenodd;fill:#4E473E;" d="M85.7,114.4c-0.033-0.334-0.05-0.551-0.05-0.65
				c0.433,0.833,0.482,1.533,0.149,2.1l-5.1,2.101c-0.2,0.133-0.333,1.167-0.4,3.1c-0.033,1.267-0.1,2.15-0.2,2.65
				c-0.2,0.967-0.583,1.649-1.15,2.05l-1.45,1c-1.733-0.667-3.05-1.467-3.95-2.4c-0.5-0.566-0.633-0.982-0.4-1.25
				c0.2-0.3,0.617-0.449,1.25-0.449c0.667,0,1.167,0.066,1.5,0.199c0.133,0.067,0.233,0.101,0.3,0.101c0-0.101-0.1-0.217-0.3-0.351
				l0.85,0.2l0.1,0.05c0.167,0.233,0.267,0.367,0.3,0.4l0.2-0.15c0.167,0.101,0.316,0.15,0.45,0.15
				c0.134,0.133,0.267,0.217,0.4,0.25c0.633,0.133,1,0.15,1.1,0.05c0.1-0.033,0.15-0.267,0.15-0.7c0.033-0.8,0.066-1.399,0.1-1.8
				c0.1-0.7,0.15-1.233,0.15-1.6v-1.15c-0.034-0.1-0.15-0.167-0.35-0.2c-0.2,0-0.333-0.033-0.4-0.1c0.3-0.066,0.8-0.233,1.5-0.5
				c0.5-0.2,1.233-0.467,2.2-0.8l2.05-1c0.6-0.267,0.933-0.5,1-0.7C85.767,114.867,85.767,114.667,85.7,114.4z"/>
			<path style="fill-rule:evenodd;clip-rule:evenodd;fill:#AC9C89;" d="M76.85,115.65c0.1-0.2,0.167-0.351,0.2-0.45
				c-0.267-0.167,0.184-0.55,1.35-1.15c0.767-0.433,1.417-0.733,1.95-0.899c1.867-0.467,2.816-0.567,2.85-0.301l-0.2,0.4
				c-0.8,0.733-1.533,1.184-2.2,1.35l-1.2,0.45c-0.367,0.267-0.65,0.417-0.85,0.45l-1.05,0.15H76.85z"/>
			<path style="fill-rule:evenodd;clip-rule:evenodd;fill:#AC9C89;" d="M76.85,116.25l0.3,0.05c0,0.134-0.117,0.3-0.35,0.5
				l-0.15,0.45c-0.033,0.133-0.083,0.217-0.15,0.25c-0.066,0-0.167,0-0.3,0l-0.1,0.15h-0.15c-0.134,0.1-0.217,0.25-0.25,0.449
				c-0.034,0.101-0.067,0.268-0.1,0.5c-0.167-0.666-0.25-1.149-0.25-1.449c0.1-0.733,0.316-1.134,0.65-1.2v-0.05
				c0.066-0.101,0.167-0.134,0.3-0.101c0.033,0.101,0.2,0.184,0.5,0.25C76.833,116.083,76.85,116.15,76.85,116.25z"/>
			<path style="fill-rule:evenodd;clip-rule:evenodd;fill:#AC9C89;" d="M75.3,120.4l-0.375,1.3c0.017-0.114,0.025-0.331,0.025-0.65
				c0.066-0.566,0.116-1,0.15-1.3c0-0.367,0.017-0.583,0.05-0.65l0.1-0.449C75.25,119.05,75.267,119.633,75.3,120.4z"/>
			<path style="fill-rule:evenodd;clip-rule:evenodd;fill:#AC9C89;" d="M76.55,122.5l-0.15-0.05l-0.15-0.101l-0.5-0.149l-0.7-0.3
				l0.65-0.051l-0.2,0.101c0.167,0.133,0.483,0.233,0.95,0.3l0.3,0.45L76.55,122.5z"/>
			<path style="fill-rule:evenodd;clip-rule:evenodd;fill:#AC9C89;" d="M76.55,122.25L76.5,122l0.25,0.1l-0.05-0.3
				c0.466,0.467,0.7,0.833,0.7,1.101L76.55,122.25z"/>
			<path style="fill-rule:evenodd;clip-rule:evenodd;fill:#AC9C89;" d="M76.55,122.25l0.85,0.65l0.05,0.1H77.4
				c-0.167,0-0.383-0.1-0.65-0.3l-0.3-0.45H76.55z"/>
			<path style="fill-rule:evenodd;clip-rule:evenodd;fill:#C2B29B;" d="M76.45,122.25c-0.467-0.066-0.784-0.167-0.95-0.3l0.2-0.101
				l0.8,0.15l0.05,0.25l-0.2-0.15L76.45,122.25z"/>
		</g>
		<path style="fill-rule:evenodd;clip-rule:evenodd;fill:#72675B;" d="M88.7,91c-0.2-0.1-0.567-0.15-1.101-0.15
			c-0.666,0-1.066-0.017-1.199-0.05c-0.167-0.033-0.567-0.133-1.2-0.3c-0.667-0.2-1.833-0.3-3.5-0.3c-0.867,0-1.417,0.05-1.65,0.149
			c-0.366,0.2-0.55,0.634-0.55,1.301c0,0.467-0.05,0.866-0.15,1.199c-0.1,0.434-0.267,0.367-0.5-0.199
			c-0.067-0.233-0.1-0.65-0.1-1.25c0.033-0.634,0.1-1.051,0.2-1.25c0.133-0.301,0.616-0.7,1.45-1.2c-0.3-0.3-0.633-0.483-1-0.55
			c-0.567-0.101-1.117-0.033-1.65,0.199c-0.3,0.134-0.5,0.301-0.6,0.5c-0.067,0.101-0.167,0.317-0.3,0.65
			c-0.167,0.333-0.3,0.517-0.4,0.55c-0.134,0.033-0.367-0.066-0.7-0.3c-0.434-0.267-0.667-0.684-0.7-1.25
			c-0.033-0.7,0.384-1.267,1.25-1.7c1.1-0.366,1.85-0.7,2.25-1c0.434,0.3,1.117,0.55,2.05,0.75c0.966,0.233,1.633,0.467,2,0.7
			l0.3,0.2h0.05c1.533,0.5,4.417,0.75,8.649,0.75c1.167,0,2.934,0,5.301,0c2.033,0,3.767-0.101,5.199-0.3
			c-0.066,0.232-0.25,0.416-0.55,0.55c-0.366,0.133-0.6,0.283-0.7,0.45c-0.033,0.1-0.05,0.283-0.05,0.55
			c0.033,0.333,0.017,0.55-0.05,0.649c-0.066,0.233-0.3,0.601-0.7,1.101c-0.066,0.2-0.083,0.433-0.05,0.7l0.05,0.699
			c0,0.5-0.217,0.884-0.649,1.15c-0.467,0.267-0.834,0.15-1.101-0.35c-0.133-0.233-0.183-0.667-0.149-1.301
			c0.066-0.566,0.149-1,0.25-1.3c-0.467-0.167-0.967-0.066-1.5,0.3c-0.667,0.5-1.15,0.801-1.45,0.9
			c-0.733,0.267-1.117,0.417-1.15,0.45c-0.333,0.2-0.483,0.5-0.45,0.899c-0.433,0.067-0.717-0.1-0.85-0.5
			c-0.2-0.533-0.4-0.85-0.6-0.949c-0.567-0.2-1.134,0.217-1.7,1.25C90.467,94,90.367,94.8,90.4,95.8
			c0.033,0.567,0.083,1.384,0.149,2.45c0,0.167,0.05,0.55,0.15,1.15c0.1,0.467,0.116,0.833,0.05,1.1
			c-0.066,0.4-0.217,0.633-0.45,0.7c-0.233,0.066-0.467-0.067-0.7-0.4c-0.333-0.467-0.5-1.167-0.5-2.1
			c0.033-1.033,0.051-1.783,0.051-2.25c0-1.4-0.067-2.45-0.2-3.15C88.883,92.9,88.9,92.467,89,92c0.066-0.3,0.1-0.483,0.1-0.55
			C89.066,91.25,88.934,91.1,88.7,91z"/>
		<g>
			<path style="fill-rule:evenodd;clip-rule:evenodd;fill:#524B43;" d="M77.15,89.1c-0.067,0.101-0.167,0.317-0.3,0.65
				c-0.167,0.333-0.3,0.517-0.4,0.55c-0.134,0.033-0.367-0.066-0.7-0.3c-0.066-0.033-0.2-0.15-0.4-0.35
				c0.1-0.101,0.183-0.184,0.25-0.25c0.1-0.101,0.216-0.15,0.35-0.15c-0.034-0.1-0.117-0.184-0.25-0.25
				c-0.167-0.1-0.267-0.184-0.3-0.25c0.333,0.233,0.683,0.184,1.05-0.15c0.4-0.433,0.683-0.699,0.85-0.8
				c0.233-0.133,0.6-0.167,1.1-0.1c0.3,0.033,0.717,0.083,1.25,0.149c-0.204,0.059-0.462,0.092-0.775,0.101h1.175
				c0,0.233,0.184,0.417,0.55,0.55c0,0.167-0.083,0.3-0.25,0.4c-0.3-0.268-0.617-0.434-0.95-0.5
				c-0.567-0.101-1.117-0.033-1.65,0.199C77.45,88.733,77.25,88.9,77.15,89.1z"/>
			<path style="fill-rule:evenodd;clip-rule:evenodd;fill:#524B43;" d="M89.95,90.35c-0.267,0.033-0.583,0.317-0.95,0.851L88.7,91
				c-0.2-0.1-0.567-0.15-1.101-0.15c-0.666,0-1.066-0.017-1.199-0.05c-0.167-0.033-0.567-0.133-1.2-0.3
				c-0.667-0.2-1.833-0.3-3.5-0.3c-0.867,0-1.417,0.05-1.65,0.149c-0.366,0.2-0.55,0.634-0.55,1.301c0,0.467-0.05,0.866-0.15,1.199
				c-0.1,0.434-0.267,0.367-0.5-0.199l-0.1-0.9c0.333-0.133,0.583-0.4,0.75-0.8c0.167-0.4,0.117-0.684-0.15-0.851
				c0.1-0.066,0.583-0.232,1.45-0.5c0.2-0.066,0.434-0.149,0.7-0.25c0.267-0.1,0.55-0.133,0.85-0.1c0.833,0.066,1.367,0.15,1.6,0.25
				c0.366,0.2,0.883,0.383,1.55,0.55c-0.2-0.366-0.283-0.616-0.25-0.75c0.533,0.634,1.35,0.867,2.45,0.7
				c1.566-0.3,2.467-0.434,2.7-0.4C90.367,89.767,90.217,90.017,89.95,90.35z"/>
			<path style="fill-rule:evenodd;clip-rule:evenodd;fill:#524B43;" d="M81.45,88.4c-0.034-0.268,0.066-0.5,0.3-0.7
				c0.2-0.167,0.45-0.267,0.75-0.3l0.1,0.1l0.3,0.2h0.05l0.15,0.05C82.7,87.783,82.15,88,81.45,88.4z"/>
			<path style="fill-rule:evenodd;clip-rule:evenodd;fill:#524B43;" d="M92.55,92.3l-0.1-0.25v0.15l-0.05-0.05
				c-0.567-0.2-1.134,0.217-1.7,1.25C90.467,94,90.367,94.8,90.4,95.8c0.033,0.567,0.083,1.384,0.149,2.45
				c0,0.167,0.05,0.55,0.15,1.15c0.1,0.467,0.116,0.833,0.05,1.1c-0.066,0.4-0.217,0.633-0.45,0.7c-0.233,0.066-0.467-0.067-0.7-0.4
				c-0.199-0.3-0.35-0.649-0.449-1.05l0.05,0.05l0.05,0.2c0.4,0.066,0.733,0.05,1-0.05c-0.2-0.9-0.3-1.583-0.3-2.05
				c0-0.167,0.05-0.417,0.149-0.75C90.2,96.783,90.233,96.5,90.2,96.3c-0.101-0.8-0.15-1.399-0.15-1.8
				c-0.033-0.667,0.05-1.25,0.25-1.75c0.367-0.833,0.583-1.283,0.65-1.35c0.3-0.167,0.517-0.301,0.649-0.4
				c0.134-0.333,0.268-0.55,0.4-0.65c0.2,0.2,0.283,0.551,0.25,1.051c0.066,0.066,0.184,0.166,0.35,0.3
				c0.067,0.133,0.101,0.366,0.101,0.7L92.55,92.3z"/>
			<path style="fill-rule:evenodd;clip-rule:evenodd;fill:#524B43;" d="M96.9,91.35c-0.667,0.5-1.15,0.801-1.45,0.9
				c-0.733,0.267-1.117,0.417-1.15,0.45c-0.333,0.2-0.483,0.5-0.45,0.899c-0.399,0.067-0.666-0.033-0.8-0.3
				c-0.1-0.366-0.2-0.633-0.3-0.8c0.2,0.2,0.467,0.233,0.8,0.1c0.134-0.033,0.3-0.166,0.5-0.399c0.167-0.233,0.267-0.4,0.3-0.5
				l-0.8-0.15c-0.333-0.066-0.517-0.217-0.55-0.45c0.3,0.2,0.767,0.25,1.4,0.15c0.366-0.066,0.866-0.15,1.5-0.25
				c0.033-0.333,0.399-0.517,1.1-0.55s1.117,0.066,1.25,0.3v0.1L98.2,91C97.833,90.9,97.4,91.017,96.9,91.35z"/>
			<path style="fill-rule:evenodd;clip-rule:evenodd;fill:#524B43;" d="M99.1,89.8c-0.433-0.066-0.683-0.116-0.75-0.149
				c0.067,0,0.283,0,0.65,0c0.333,0.033,0.55,0.017,0.65-0.051c0.199-0.066,0.383-0.267,0.55-0.6c0.433-0.267,0.733-0.467,0.899-0.6
				l0.45-0.2l0.55-0.05c-0.066,0.232-0.25,0.416-0.55,0.55c-0.366,0.133-0.6,0.283-0.7,0.45c-0.033,0.1-0.05,0.283-0.05,0.55
				c0.033,0.333,0.017,0.55-0.05,0.649c-0.066,0.233-0.3,0.601-0.7,1.101c-0.066,0.2-0.083,0.433-0.05,0.7l0.05,0.699
				c0,0.5-0.217,0.884-0.649,1.15c-0.467,0.267-0.834,0.15-1.101-0.35c-0.133-0.268-0.167-0.75-0.1-1.45
				c0.066,0.167,0.267,0.217,0.6,0.149C98.733,92.15,98.684,92,98.65,91.9c-0.067-0.167-0.184-0.268-0.351-0.301
				c0.167,0,0.4-0.017,0.7-0.05c0.233-0.066,0.333-0.25,0.3-0.55c0.2,0,0.317-0.1,0.351-0.3c0.066-0.167,0.066-0.333,0-0.5
				C99.583,90,99.4,89.867,99.1,89.8z"/>
			<path style="fill-rule:evenodd;clip-rule:evenodd;fill:#524B43;" d="M93.9,88.9h1.8c-0.353,0.009-0.719,0.109-1.101,0.3
				c-0.5,0.233-0.85,0.366-1.05,0.399c-0.2,0.067-0.417,0.067-0.649,0c-0.301-0.1-0.483-0.217-0.551-0.35
				c0.2,0,0.467-0.05,0.801-0.15C93.517,88.967,93.767,88.9,93.9,88.9z"/>
			<path style="fill-rule:evenodd;clip-rule:evenodd;fill:#524B43;" d="M80.05,87.95V87.9l-0.4-0.051
				c0.601-0.109,0.967-0.334,1.1-0.675L80.7,87.4l-0.05,0.149C80.55,87.783,80.35,87.917,80.05,87.95z"/>
			<path style="fill-rule:evenodd;clip-rule:evenodd;fill:#84786B;" d="M76.05,87.8c0.1-0.433,0.533-0.733,1.3-0.899
				c0.566-0.134,1.117-0.184,1.65-0.15l-0.95-0.2c0.7-0.2,1.4-0.05,2.1,0.45c-0.267,0.3-0.633,0.4-1.1,0.3
				c-0.566-0.133-0.917-0.167-1.05-0.1v0.149h-1.5c-0.033,0.334-0.167,0.617-0.4,0.851c-0.267,0.233-0.467,0.133-0.6-0.3v-0.15
				C75.633,87.85,75.816,87.867,76.05,87.8z"/>
			<path style="fill-rule:evenodd;clip-rule:evenodd;fill:#84786B;" d="M83.55,88.35c0.267,0.233,0.367,0.467,0.3,0.7
				c-0.867-0.066-1.517-0.083-1.95-0.05c-0.833,0.233-1.45,0.3-1.85,0.2l0.35-0.25V88.9l0.05-0.101l0.3-0.1h0.05
				c-0.066,0.066-0.167,0.1-0.3,0.1c0.267,0.033,0.434,0.05,0.5,0.05c0.133-0.1,0.233-0.35,0.3-0.75c0.345,0,0.611-0.041,0.8-0.125
				c-0.034,0.04-0.05,0.165-0.05,0.375c0.1,0.033,0.267,0.067,0.5,0.101c0.2,0.033,0.317-0.033,0.35-0.2h-0.3l-0.25-0.1l-0.2,0.05
				c0.267-0.134,0.467-0.2,0.6-0.2C83.017,88,83.283,88.117,83.55,88.35z"/>
			<path style="fill-rule:evenodd;clip-rule:evenodd;fill:#84786B;" d="M81.4,87.5l-0.05,0.3c-0.133,0.033-0.284,0.017-0.45-0.05
				c-0.167-0.033-0.25-0.1-0.25-0.2L80.7,87.4V87.35l0.1-0.05v0.05l-0.05,0.25c0.267-0.033,0.417-0.149,0.45-0.35l0.35,0.05
				L81.4,87.5z"/>
			<path style="fill-rule:evenodd;clip-rule:evenodd;fill:#84786B;" d="M87.65,88.4c0.199,0.084,0.416,0.134,0.649,0.149
				c0.215,0,0.415-0.042,0.601-0.125L87.65,88.4c-0.238-0.09-0.455-0.223-0.65-0.4c0.4-0.133,0.867-0.2,1.4-0.2H89.6
				c-0.199,0.299-0.433,0.508-0.699,0.625l1.149,0.025l0.2,0.05c0.133,0.033,0.367,0.1,0.7,0.2c0.3,0.1,0.417,0.267,0.35,0.5
				c-0.399-0.033-1.05,0.05-1.95,0.25c-0.8,0.2-1.449,0.25-1.949,0.149c-0.867-0.133-1.367-0.267-1.5-0.399
				c-0.167-0.2-0.15-0.351,0.05-0.45c0.066-0.033,0.283-0.1,0.649-0.2l0.75-0.149H87.65z"/>
			<path style="fill-rule:evenodd;clip-rule:evenodd;fill:#84786B;" d="M97.25,89h-2.7c-0.633,0.233-1.116,0.35-1.45,0.35
				c-0.333,0-0.533-0.066-0.6-0.199c-0.066-0.067-0.083-0.283-0.05-0.65h0.05c0.4,0.267,1.184,0.316,2.35,0.15l3,0.05
				c1.334,0,2.184-0.033,2.551-0.101c-0.167,0.067-0.384,0.15-0.65,0.25c-0.033,0.033-0.066,0.134-0.1,0.301
				c-0.033,0.133-0.084,0.217-0.15,0.25c-0.033,0.033-0.35,0.05-0.95,0.05c0.267-0.167,0.45-0.267,0.55-0.3
				c-0.166-0.134-0.467-0.2-0.899-0.2C97.733,88.983,97.417,89,97.25,89z"/>
			<path style="fill-rule:evenodd;clip-rule:evenodd;fill:#84786B;" d="M92.6,90.2c1-0.233,1.884-0.351,2.65-0.351l0.7-0.199
				c0.899-0.101,1.316,0.017,1.25,0.35c-0.5,0-0.967,0.1-1.4,0.3c-0.667,0.333-1.066,0.517-1.2,0.55c-0.333,0.033-0.732,0-1.199-0.1
				C92.833,90.65,92.566,90.467,92.6,90.2z"/>
			<path style="fill-rule:evenodd;clip-rule:evenodd;fill:#84786B;" d="M98.7,91.35c-0.101,0.067-0.233,0.067-0.4,0l0.101-0.3
				L98.25,91v-0.15c0.066-0.3,0.2-0.482,0.4-0.55c0.133,0.134,0.183,0.3,0.149,0.5C98.767,90.9,98.733,91.083,98.7,91.35z"/>
			<polygon style="fill-rule:evenodd;clip-rule:evenodd;fill:#84786B;" points="98.25,90.85 98.25,91 98.2,91 			"/>
			<path style="fill-rule:evenodd;clip-rule:evenodd;fill:#84786B;" d="M89.05,91.3l0.9-0.95c0.033-0.033,0.1-0.033,0.2,0
				c0.066,0.434-0.051,1-0.351,1.7S89.367,93.3,89.4,93.7l0.1,2.899l0.3,0.101c0,0.2-0.133,0.517-0.399,0.95
				c-0.2,0.366-0.283,0.683-0.25,0.949c0.033,0.233,0.166,0.467,0.399,0.7c0.3,0.3,0.483,0.517,0.55,0.65
				c-0.399,0-0.699-0.05-0.899-0.15L89.1,99.25c0.033-1.3,0.051-2.233,0.051-2.8c0-1.4-0.067-2.45-0.2-3.15
				C88.883,92.9,88.9,92.467,89,92C89.066,91.6,89.083,91.367,89.05,91.3z"/>
			<path style="fill-rule:evenodd;clip-rule:evenodd;fill:#84786B;" d="M89.95,90.35l-0.9,0.95L89,91.2
				C89.367,90.667,89.684,90.383,89.95,90.35z"/>
			<polygon style="fill-rule:evenodd;clip-rule:evenodd;fill:#A89887;" points="100.4,88.6 100.95,88.25 101.45,88.2 101.15,88.4 
				101.1,88.4 			"/>
			<path style="fill-rule:evenodd;clip-rule:evenodd;fill:#A89887;" d="M94.85,88.65c-1.166,0.166-1.949,0.116-2.35-0.15l0.3-0.05
				c3.367,0.066,6.083,0,8.15-0.2l-0.55,0.35c-0.367,0.067-1.217,0.101-2.551,0.101L94.85,88.65z"/>
			<path style="fill-rule:evenodd;clip-rule:evenodd;fill:#A89887;" d="M89.6,87.8c-0.333,0.5-0.767,0.75-1.3,0.75
				c-0.5-0.033-0.933-0.217-1.3-0.55c0.4-0.133,0.867-0.2,1.4-0.2H89.6z"/>
			<path style="fill-rule:evenodd;clip-rule:evenodd;fill:#A89887;" d="M82.05,88.35L82.1,88.2h0.05l0.2-0.05l0.25,0.1h0.3
				c-0.033,0.167-0.15,0.233-0.35,0.2C82.316,88.417,82.15,88.383,82.05,88.35z"/>
			<path style="fill-rule:evenodd;clip-rule:evenodd;fill:#A89887;" d="M81.25,88.65c-0.133,0.066-0.267,0.083-0.4,0.05l-0.1,0.05
				l-0.1-0.25L81.25,88.65z"/>
			<path style="fill-rule:evenodd;clip-rule:evenodd;fill:#A89887;" d="M80.5,89.1c0.167-0.133,0.267-0.217,0.3-0.25l-0.05-0.1
				l0.1-0.05c0.133,0.033,0.267,0.017,0.4-0.05C81.117,89.017,80.867,89.167,80.5,89.1z"/>
			<polygon style="fill-rule:evenodd;clip-rule:evenodd;fill:#A89887;" points="78.05,86.55 77.8,86.65 77.65,86.55 77.65,86.5 			
				"/>
			<path style="fill-rule:evenodd;clip-rule:evenodd;fill:#A89887;" d="M76.05,87.8c-0.233,0.067-0.417,0.05-0.55-0.05V87.6
				c0.333-0.267,0.566-0.416,0.7-0.449c0.1-0.033,0.583-0.233,1.45-0.601l0.15,0.101l0.25-0.101l0.95,0.2
				c-0.533-0.033-1.083,0.017-1.65,0.15C76.583,87.066,76.15,87.367,76.05,87.8z"/>
			<path style="fill-rule:evenodd;clip-rule:evenodd;fill:#A89887;" d="M80.75,87.6l0.05-0.25V87.3l0.4-0.05
				C81.167,87.45,81.017,87.566,80.75,87.6z"/>
		</g>
		<path style="fill-rule:evenodd;clip-rule:evenodd;fill:#D1C4B4;" d="M107.95,95c0.333-0.7,0.933-1.15,1.8-1.35L113.9,95
			l-1.75,4.05c-1.7,0.033-2.917-0.183-3.65-0.649C107.467,97.733,107.283,96.6,107.95,95z"/>
		
			<linearGradient id="SVGID_32_" gradientUnits="userSpaceOnUse" x1="84.4077" y1="-118.1807" x2="111.2964" y2="-118.1807" gradientTransform="matrix(-0.0688 0.9976 -0.9976 -0.0688 4.071742e-005 -6.426871e-005)">
			<stop  offset="0" style="stop-color:#A79383"/>
			<stop  offset="0.9882" style="stop-color:#62594F"/>
		</linearGradient>
		<path style="fill-rule:evenodd;clip-rule:evenodd;fill:url(#SVGID_32_);" d="M111.75,91.35c1.066-0.232,2.017-0.199,2.85,0.101
			c0.733,0.267,1.067,0.55,1,0.85l-7.649,29.3l-1.351-0.449l1.65-23.601c0.066-0.933,0.267-1.883,0.6-2.85
			C109.517,92.733,110.483,91.617,111.75,91.35z"/>
		
			<linearGradient id="SVGID_33_" gradientUnits="userSpaceOnUse" x1="101.7354" y1="-107.9072" x2="122.1848" y2="-107.9072" gradientTransform="matrix(0.0489 0.9988 -0.9988 0.0489 -1.882911e-004 2.691299e-004)">
			<stop  offset="0" style="stop-color:#E0D2C8"/>
			<stop  offset="0.9882" style="stop-color:#AA9A8E"/>
		</linearGradient>
		<path style="fill-rule:evenodd;clip-rule:evenodd;fill:url(#SVGID_33_);" d="M113.15,91.75c1.199-0.233,2.083,0,2.649,0.7
			c0.533,0.667,0.983,2,1.351,4c0.433,2.667,1.3,9.517,2.6,20.55L108,121.5l1.65-23.55c0.066-0.934,0.267-1.884,0.6-2.851
			C110.917,93.133,111.883,92.017,113.15,91.75z"/>
		
			<radialGradient id="SVGID_34_" cx="113.8828" cy="98.584" r="3.4375" gradientTransform="matrix(1 -0.0042 -0.0064 -1.4982 1.0454 246.2792)" gradientUnits="userSpaceOnUse">
			<stop  offset="0" style="stop-color:#000000;stop-opacity:0.8588"/>
			<stop  offset="0.9333" style="stop-color:#000000;stop-opacity:0.1216"/>
			<stop  offset="1" style="stop-color:#000000;stop-opacity:0"/>
		</radialGradient>
		<path style="fill-rule:evenodd;clip-rule:evenodd;fill:url(#SVGID_34_);" d="M116.7,94.45c0.667,1,1.017,2.217,1.05,3.649
			c0,1.434-0.333,2.65-1,3.65s-1.467,1.5-2.4,1.5c-0.933,0-1.75-0.5-2.449-1.5c-0.667-1-1.018-2.217-1.051-3.65
			c0-1.399,0.334-2.6,1-3.6c0.7-1.033,1.518-1.55,2.45-1.55C115.233,92.95,116.033,93.45,116.7,94.45z"/>
		
			<linearGradient id="SVGID_35_" gradientUnits="userSpaceOnUse" x1="91.0596" y1="-116.4404" x2="99.0877" y2="-116.4404" gradientTransform="matrix(-0.028 0.9996 -0.9996 -0.028 -9.645540e-004 3.687665e-005)">
			<stop  offset="0" style="stop-color:#574B44"/>
			<stop  offset="0.0549" style="stop-color:#4C423C"/>
			<stop  offset="0.1765" style="stop-color:#3C3530"/>
			<stop  offset="0.3098" style="stop-color:#332D28"/>
			<stop  offset="0.4784" style="stop-color:#302B26"/>
			<stop  offset="0.7294" style="stop-color:#322D28"/>
			<stop  offset="0.8431" style="stop-color:#39332D"/>
			<stop  offset="0.9294" style="stop-color:#453D37"/>
			<stop  offset="1" style="stop-color:#574B44"/>
			<stop  offset="1" style="stop-color:#574B44"/>
		</linearGradient>
		<path style="fill-rule:evenodd;clip-rule:evenodd;fill:url(#SVGID_35_);" d="M111.9,94.65c0.566-0.801,1.232-1.184,2-1.15
			c1.399,0.066,2.25,0.5,2.55,1.3c0.1,0.3,0.133,1.25,0.1,2.851c-0.133,2.732-0.85,4.083-2.149,4.05
			c-1.101-0.033-1.967-0.483-2.601-1.351c-0.6-0.767-0.883-1.732-0.85-2.899C111.017,96.35,111.333,95.417,111.9,94.65z"/>
		
			<linearGradient id="SVGID_36_" gradientUnits="userSpaceOnUse" x1="-129.438" y1="82.9365" x2="-122.824" y2="82.9365" gradientTransform="matrix(-0.2797 -0.9601 0.9601 -0.2797 4.959106e-005 3.535151e-004)">
			<stop  offset="0" style="stop-color:#302B26"/>
			<stop  offset="0.9882" style="stop-color:#574B44"/>
		</linearGradient>
		<path style="fill-rule:evenodd;clip-rule:evenodd;fill:url(#SVGID_36_);" d="M113,94.65c0.566-0.768,1.217-1.134,1.95-1.101
			s1.35,0.45,1.85,1.25s0.717,1.75,0.65,2.851c-0.033,1.1-0.317,2.05-0.851,2.85c-0.566,0.767-1.217,1.133-1.949,1.1
			c-0.733-0.033-1.351-0.449-1.851-1.25c-0.467-0.8-0.683-1.75-0.649-2.85C112.184,96.367,112.467,95.417,113,94.65z"/>
		
			<linearGradient id="SVGID_37_" gradientUnits="userSpaceOnUse" x1="-130.1421" y1="-105.2949" x2="-119.8605" y2="-105.2949" gradientTransform="matrix(-0.9629 -0.2699 0.2699 -0.9629 -4.615188e-004 4.195571e-004)">
			<stop  offset="0" style="stop-color:#514A43"/>
			<stop  offset="0.9882" style="stop-color:#84756A"/>
		</linearGradient>
		<path style="fill-rule:evenodd;clip-rule:evenodd;fill:url(#SVGID_37_);" d="M81.85,130.95l8.2-1.2c0.9,0,3.8,0.2,8.7,0.6
			l-0.15,1.7c-0.199,1.333-0.55,2.517-1.05,3.55c-0.633,1.367-2.1,2.634-4.399,3.801c-2.4,1.267-4.351,1.633-5.851,1.1
			c-1.3-0.467-2.6-2.2-3.9-5.2L81.85,130.95z"/>
		
			<linearGradient id="SVGID_38_" gradientUnits="userSpaceOnUse" x1="-106.0669" y1="106.8359" x2="-98.7364" y2="106.8359" gradientTransform="matrix(0.3376 -0.9413 0.9413 0.3376 -2.141595e-004 3.293753e-004)">
			<stop  offset="0" style="stop-color:#292621"/>
			<stop  offset="0.9882" style="stop-color:#938176"/>
		</linearGradient>
		<path style="fill-rule:evenodd;clip-rule:evenodd;fill:url(#SVGID_38_);" d="M80.45,130.45l5.1,4.55l-0.05,1.15
			c0.033,0.866,0.167,1.533,0.4,2c0.716,1.492,1.35,2.367,1.899,2.625L48.55,127.1c-0.433-0.267-0.9-0.683-1.4-1.25
			c-1-1.133-1.716-2.467-2.15-4c-0.033-0.066,5.867,1.351,17.7,4.25C68.633,127.533,74.55,128.983,80.45,130.45z"/>
		<path style="fill-rule:evenodd;clip-rule:evenodd;fill:#D7C4AC;" d="M70.9,131.1c-11.067-3.5-19.7-6.583-25.9-9.25l40.65,13.7
			C81.35,134.35,76.434,132.867,70.9,131.1z"/>
		<path style="fill-rule:evenodd;clip-rule:evenodd;fill:#D7C4AC;" d="M86.65,135.9l-0.15,0.25c-0.133,0.267-0.2,0.6-0.2,1
			c0.033,0.6,0.384,1.55,1.05,2.85c-0.366-0.033-0.833-0.633-1.399-1.8c-0.367-0.733-0.5-1.384-0.4-1.95l0.2-0.65L97,131l-0.5,0.3
			L86.65,135.9z"/>
		<polygon style="fill-rule:evenodd;clip-rule:evenodd;fill:#9E8E7F;" points="85.65,135.55 45,121.85 57.7,117.3 98.75,130.35 		
			"/>
		
			<linearGradient id="SVGID_39_" gradientUnits="userSpaceOnUse" x1="93.6406" y1="-108.7134" x2="100.9616" y2="-108.7134" gradientTransform="matrix(-0.3244 0.9459 -0.9459 -0.3244 1.727045e-004 -5.173683e-005)">
			<stop  offset="0" style="stop-color:#514A43"/>
			<stop  offset="0.9882" style="stop-color:#84756A"/>
		</linearGradient>
		<polygon style="fill-rule:evenodd;clip-rule:evenodd;fill:url(#SVGID_39_);" points="57.75,118.45 94.9,130.15 85.15,133.8 
			48.6,121.65 		"/>
		
			<linearGradient id="SVGID_40_" gradientUnits="userSpaceOnUse" x1="122.6309" y1="-47.0098" x2="127.0616" y2="-47.0098" gradientTransform="matrix(0.0508 0.9987 -0.9987 0.0508 2.090298e-004 5.967915e-005)">
			<stop  offset="0" style="stop-color:#514A43"/>
			<stop  offset="0.9882" style="stop-color:#5D524A"/>
		</linearGradient>
		<path style="fill-rule:evenodd;clip-rule:evenodd;fill:url(#SVGID_40_);" d="M56,124.1l-7.4-2.449l9.15-3.2l-0.2,1.85
			C57.25,121.767,56.733,123.033,56,124.1z"/>
		<path style="fill-rule:evenodd;clip-rule:evenodd;fill:#9E8E7F;" d="M56.2,118.25l-8.75,2.8c5.366-1.967,8.3-3.066,8.8-3.3
			c0.733-0.4,1.316-0.55,1.75-0.45c0.5,0.134,1.517,0.483,3.05,1.05c0.5,0.2,1.217,0.434,2.15,0.7
			c0.133,0.067,0.417,0.184,0.85,0.351c0.4,0.166,0.634,0.35,0.7,0.55c-0.233,0.033-0.55-0.033-0.95-0.2
			c-0.433-0.233-0.75-0.4-0.95-0.5l-3.7-1.15H58c-0.4-0.033-0.717-0.05-0.95-0.05C56.65,118.05,56.367,118.117,56.2,118.25z"/>
		<path style="fill-rule:evenodd;clip-rule:evenodd;fill:#9E8E7F;" d="M95.35,130.4l-10-4.25L97.8,130
			c0.2,0.1,0.517,0.217,0.95,0.35C97.75,130.717,96.617,130.733,95.35,130.4z"/>
		
			<linearGradient id="SVGID_41_" gradientUnits="userSpaceOnUse" x1="67.814" y1="-128.3687" x2="72.8863" y2="-128.3687" gradientTransform="matrix(-0.5224 0.8527 -0.8527 -0.5224 -5.372763e-004 1.414418e-004)">
			<stop  offset="0" style="stop-color:#1A1715"/>
			<stop  offset="0.9882" style="stop-color:#49403A"/>
		</linearGradient>
		<path style="fill-rule:evenodd;clip-rule:evenodd;fill:url(#SVGID_41_);" d="M74.05,130.1l-4-1.3c-0.366-1.033-0.333-2.033,0.1-3
			c0.567-1.3,1.483-1.833,2.75-1.6c1.133,0.233,1.833,1.033,2.1,2.399c0.267,1.367,0.017,2.467-0.75,3.301L74.05,130.1z"/>
		<linearGradient id="SVGID_42_" gradientUnits="userSpaceOnUse" x1="50.3501" y1="126.5742" x2="93.3496" y2="126.5742">
			<stop  offset="0.1608" style="stop-color:#18140F"/>
			<stop  offset="0.4157" style="stop-color:#57574D"/>
			<stop  offset="0.6549" style="stop-color:#2C2921"/>
			<stop  offset="0.9882" style="stop-color:#121210"/>
		</linearGradient>
		<polygon style="fill-rule:evenodd;clip-rule:evenodd;fill:url(#SVGID_42_);" points="50.35,122.25 57.7,119.35 93.35,130.7 
			85.15,133.8 		"/>
	</g>
</g>
<g>
	<g>
		<path style="fill-rule:evenodd;clip-rule:evenodd;fill:#ECF8BD;" d="M57.85,36.95V56.3c0,0.833-0.233,1.483-0.7,1.95
			c-0.466,0.467-1.083,0.7-1.85,0.7c-0.733,0-1.333-0.233-1.8-0.7c-0.5-0.467-0.75-1.117-0.75-1.95V39.25h-2
			c-0.733,0-1.316-0.25-1.75-0.75c-0.367-0.434-0.55-0.967-0.55-1.6s0.2-1.167,0.6-1.6c0.434-0.5,1-0.75,1.7-0.75h4.85
			c0.7,0,1.25,0.233,1.65,0.7C57.65,35.684,57.85,36.25,57.85,36.95z"/>
		
			<linearGradient id="SVGID_43_" gradientUnits="userSpaceOnUse" x1="-58.9404" y1="53.1523" x2="-33.9654" y2="53.1523" gradientTransform="matrix(4.004004e-005 -1 1 -0.001 -1.024090e-004 4.449275e-004)">
			<stop  offset="0" style="stop-color:#4A2805"/>
			<stop  offset="0.1529" style="stop-color:#4A2805"/>
			<stop  offset="0.2471" style="stop-color:#502905"/>
			<stop  offset="0.3765" style="stop-color:#622B07"/>
			<stop  offset="0.5333" style="stop-color:#80300B"/>
			<stop  offset="0.7059" style="stop-color:#AA3510"/>
			<stop  offset="0.8902" style="stop-color:#DE3C16"/>
			<stop  offset="0.8941" style="stop-color:#E03C16"/>
			<stop  offset="1" style="stop-color:#E03C16"/>
		</linearGradient>
		<path style="fill-rule:evenodd;clip-rule:evenodd;fill:url(#SVGID_43_);" d="M57.85,35.8v19.35c0,0.833-0.233,1.483-0.7,1.95
			c-0.466,0.466-1.083,0.7-1.85,0.7c-0.733,0-1.333-0.233-1.8-0.7c-0.5-0.467-0.75-1.117-0.75-1.95V38.1h-2
			c-0.733,0-1.316-0.25-1.75-0.75c-0.367-0.433-0.55-0.967-0.55-1.6s0.2-1.167,0.6-1.6c0.434-0.5,1-0.75,1.7-0.75h4.85
			c0.7,0,1.25,0.233,1.65,0.7C57.65,34.533,57.85,35.1,57.85,35.8z"/>
	</g>
	<g>
		<path style="fill-rule:evenodd;clip-rule:evenodd;fill:#ECF8BD;" d="M106.35,36.8c1.634-1.7,3.684-2.55,6.15-2.55
			c2.533,0,4.6,0.833,6.2,2.5c1.533,1.6,2.3,3.566,2.3,5.9s-1,5.167-3,8.5c-1.7,2.8-3.566,5.15-5.6,7.05L111.3,59
			c-0.233,0.167-0.566,0.25-1,0.25c-0.5,0-1.033-0.267-1.6-0.8c-0.567-0.533-0.851-1.1-0.851-1.7c0-0.333,0.25-0.783,0.75-1.35
			c2.367-2.567,3.917-4.383,4.65-5.45l-0.05-0.1c-0.601,0.3-1.317,0.45-2.15,0.45c-2,0-3.683-0.767-5.05-2.3
			c-1.367-1.5-2.05-3.283-2.05-5.35C103.95,40.383,104.75,38.434,106.35,36.8z M115.7,42.65c0-1-0.283-1.817-0.851-2.45
			c-0.566-0.7-1.35-1.05-2.35-1.05c-0.967,0-1.75,0.333-2.35,1c-0.601,0.667-0.9,1.5-0.9,2.5c0,0.967,0.267,1.784,0.8,2.45
			c0.601,0.733,1.417,1.1,2.45,1.1c0.967,0,1.75-0.333,2.35-1C115.417,44.533,115.7,43.684,115.7,42.65z"/>
		
			<linearGradient id="SVGID_44_" gradientUnits="userSpaceOnUse" x1="-59.1123" y1="112.4766" x2="-34.1147" y2="112.4766" gradientTransform="matrix(4.000000e-005 -1 1 -0.001 6.127130e-005 4.449275e-004)">
			<stop  offset="0" style="stop-color:#4A2805"/>
			<stop  offset="0.1529" style="stop-color:#4A2805"/>
			<stop  offset="0.2471" style="stop-color:#502905"/>
			<stop  offset="0.3765" style="stop-color:#622B07"/>
			<stop  offset="0.5333" style="stop-color:#80300B"/>
			<stop  offset="0.7059" style="stop-color:#AA3510"/>
			<stop  offset="0.8902" style="stop-color:#DE3C16"/>
			<stop  offset="0.8941" style="stop-color:#E03C16"/>
			<stop  offset="1" style="stop-color:#E03C16"/>
		</linearGradient>
		<path style="fill-rule:evenodd;clip-rule:evenodd;fill:url(#SVGID_44_);" d="M106.35,35.65c1.634-1.7,3.684-2.55,6.15-2.55
			c2.533,0,4.6,0.833,6.2,2.5c1.533,1.6,2.3,3.583,2.3,5.95c0,2.333-1,5.15-3,8.45c-1.7,2.8-3.566,5.15-5.6,7.05
			c-0.067,0.067-0.434,0.35-1.101,0.85c-0.233,0.133-0.566,0.2-1,0.2c-0.5,0-1.033-0.25-1.6-0.75
			c-0.567-0.567-0.851-1.133-0.851-1.7c0-0.367,0.25-0.833,0.75-1.4c2.367-2.566,3.917-4.383,4.65-5.45l-0.05-0.05
			c-0.634,0.267-1.351,0.4-2.15,0.4c-2,0-3.683-0.767-5.05-2.3c-1.367-1.5-2.05-3.267-2.05-5.3
			C103.95,39.25,104.75,37.283,106.35,35.65z M115.7,41.55c0-1-0.283-1.833-0.851-2.5c-0.566-0.7-1.35-1.05-2.35-1.05
			c-0.967,0-1.75,0.35-2.35,1.05c-0.601,0.667-0.9,1.5-0.9,2.5c0,0.967,0.267,1.783,0.8,2.45c0.601,0.7,1.417,1.05,2.45,1.05
			c0.967,0,1.75-0.333,2.35-1C115.417,43.417,115.7,42.583,115.7,41.55z"/>
	</g>
	<g>
		<path style="fill-rule:evenodd;clip-rule:evenodd;fill:#ECF8BD;" d="M79,38.4c1.3,2.267,1.95,5.05,1.95,8.35S80.3,52.833,79,55.1
			c-1.566,2.767-3.917,4.15-7.05,4.15c-3.134,0-5.5-1.383-7.1-4.15c-1.3-2.267-1.95-5.05-1.95-8.35s0.65-6.083,1.95-8.35
			c1.6-2.767,3.966-4.15,7.1-4.15C75.083,34.25,77.434,35.633,79,38.4z M75.65,46.75c0-5.267-1.233-7.9-3.7-7.9
			c-2.5,0-3.75,2.633-3.75,7.9s1.25,7.9,3.75,7.9C74.417,54.65,75.65,52.017,75.65,46.75z"/>
		
			<linearGradient id="SVGID_45_" gradientUnits="userSpaceOnUse" x1="-59.0718" y1="71.9277" x2="-34.0718" y2="71.9277" gradientTransform="matrix(4.000000e-005 -1 1 -0.001 6.127130e-005 4.449275e-004)">
			<stop  offset="0" style="stop-color:#4A2805"/>
			<stop  offset="0.1529" style="stop-color:#4A2805"/>
			<stop  offset="0.2471" style="stop-color:#502905"/>
			<stop  offset="0.3765" style="stop-color:#622B07"/>
			<stop  offset="0.5333" style="stop-color:#80300B"/>
			<stop  offset="0.7059" style="stop-color:#AA3510"/>
			<stop  offset="0.8902" style="stop-color:#DE3C16"/>
			<stop  offset="0.8941" style="stop-color:#E03C16"/>
			<stop  offset="1" style="stop-color:#E03C16"/>
		</linearGradient>
		<path style="fill-rule:evenodd;clip-rule:evenodd;fill:url(#SVGID_45_);" d="M68.2,45.6c0,5.267,1.25,7.9,3.75,7.9
			c2.466,0,3.7-2.633,3.7-7.9c0-5.267-1.233-7.9-3.7-7.9C69.45,37.7,68.2,40.333,68.2,45.6z M80.95,45.6c0,3.3-0.65,6.083-1.95,8.35
			c-1.566,2.767-3.917,4.15-7.05,4.15c-3.134,0-5.5-1.383-7.1-4.15c-1.3-2.267-1.95-5.05-1.95-8.35c0-3.3,0.65-6.083,1.95-8.35
			c1.6-2.767,3.966-4.15,7.1-4.15c3.133,0,5.483,1.383,7.05,4.15C80.3,39.517,80.95,42.3,80.95,45.6z"/>
	</g>
	<g>
		<path style="fill-rule:evenodd;clip-rule:evenodd;fill:#ECF8BD;" d="M99.6,38.4c1.301,2.267,1.95,5.05,1.95,8.35
			s-0.649,6.083-1.95,8.35c-1.6,2.767-3.967,4.15-7.1,4.15s-5.483-1.383-7.05-4.15c-1.3-2.267-1.95-5.05-1.95-8.35
			s0.65-6.083,1.95-8.35c1.566-2.767,3.917-4.15,7.05-4.15S98,35.633,99.6,38.4z M96.2,46.75c0-5.267-1.233-7.9-3.7-7.9
			s-3.7,2.633-3.7,7.9s1.233,7.9,3.7,7.9S96.2,52.017,96.2,46.75z"/>
		
			<linearGradient id="SVGID_46_" gradientUnits="userSpaceOnUse" x1="-59.0923" y1="92.5273" x2="-34.0923" y2="92.5273" gradientTransform="matrix(4.000000e-005 -1 1 -0.001 6.127130e-005 4.449275e-004)">
			<stop  offset="0" style="stop-color:#4A2805"/>
			<stop  offset="0.1529" style="stop-color:#4A2805"/>
			<stop  offset="0.2471" style="stop-color:#502905"/>
			<stop  offset="0.3765" style="stop-color:#622B07"/>
			<stop  offset="0.5333" style="stop-color:#80300B"/>
			<stop  offset="0.7059" style="stop-color:#AA3510"/>
			<stop  offset="0.8902" style="stop-color:#DE3C16"/>
			<stop  offset="0.8941" style="stop-color:#E03C16"/>
			<stop  offset="1" style="stop-color:#E03C16"/>
		</linearGradient>
		<path style="fill-rule:evenodd;clip-rule:evenodd;fill:url(#SVGID_46_);" d="M85.45,37.25c1.566-2.767,3.917-4.15,7.05-4.15
			s5.5,1.383,7.1,4.15c1.301,2.267,1.95,5.05,1.95,8.35c0,3.3-0.649,6.083-1.95,8.35c-1.6,2.767-3.967,4.15-7.1,4.15
			s-5.483-1.383-7.05-4.15c-1.3-2.267-1.95-5.05-1.95-8.35C83.5,42.3,84.15,39.517,85.45,37.25z M88.8,45.6
			c0,5.267,1.233,7.9,3.7,7.9s3.7-2.633,3.7-7.9c0-5.267-1.233-7.9-3.7-7.9S88.8,40.333,88.8,45.6z"/>
	</g>
</g>
<g>
	
		<use xlink:href="#FlashAICB_x2F_Layer_36_copy_4_x2F__x3C_Path_x3E__x5F_2"  width="118.7" height="57.1" y="-57.1" transform="matrix(1 0 0 -1 26.9502 87.4502)" style="overflow:visible;opacity:0.2813;enable-background:new    ;"/>
	
		<use xlink:href="#FlashAICB_x2F_Layer_36_copy_4_x2F__x3C_Path_x3E__x5F_1"  width="110.05" height="55.8" y="-55.8" transform="matrix(1 0 0 -1 31.1001 28.6499)" style="overflow:visible;opacity:0.1094;enable-background:new    ;"/>
	
		<use xlink:href="#FlashAICB_x2F_Layer_36_copy_4_x2F__x3C_Path_x3E_"  width="110.05" height="61.294" y="-61.294" transform="matrix(1 0 0 -1 31.1001 28.6499)" style="overflow:visible;opacity:0.0898;enable-background:new    ;"/>
</g>
</svg>
