<?xml version="1.0" encoding="iso-8859-1"?>
<!-- Generator: Adobe Illustrator 15.1.0, SVG Export Plug-In . SVG Version: 6.00 Build 0)  -->
<!DOCTYPE svg PUBLIC "-//W3C//DTD SVG 1.1//EN" "http://www.w3.org/Graphics/SVG/1.1/DTD/svg11.dtd">
<svg version="1.1" xmlns="http://www.w3.org/2000/svg" xmlns:xlink="http://www.w3.org/1999/xlink" x="0px" y="0px" width="172.4px"
	 height="172.4px" viewBox="0 0 172.4 172.4" style="enable-background:new 0 0 172.4 172.4;" xml:space="preserve">
<symbol  id="BG_x2F_bg_pink" viewBox="0 -133.45 133.45 133.45">
	<g id="Layer_1_3_">
		<g>
			<g>
				
					<linearGradient id="SVGID_1_" gradientUnits="userSpaceOnUse" x1="16086.4395" y1="-65.6646" x2="16218.2393" y2="-65.6646" gradientTransform="matrix(7.588694e-006 1 -1 -0.001 0.9385 -16219.1055)">
					<stop  offset="0.0745" style="stop-color:#A86A97"/>
					<stop  offset="0.2667" style="stop-color:#BE75A8"/>
					<stop  offset="0.5333" style="stop-color:#E388C5"/>
					<stop  offset="1" style="stop-color:#F6EFD6"/>
				</linearGradient>
				<path style="fill-rule:evenodd;clip-rule:evenodd;fill:url(#SVGID_1_);" d="M20.15-20.15C33.05-7.25,48.567-0.8,66.7-0.8
					c18.167,0,33.7-6.45,46.6-19.35c12.867-12.866,19.3-28.383,19.3-46.55s-6.434-33.7-19.3-46.6
					c-12.9-12.867-28.433-19.3-46.6-19.3c-18.167,0-33.683,6.433-46.55,19.3c-12.867,12.9-19.3,28.434-19.3,46.6
					S7.284-33.017,20.15-20.15z"/>
				<path style="fill-rule:evenodd;clip-rule:evenodd;fill:#6C2D60;" d="M20.7-20.7C8-33.434,1.65-48.767,1.65-66.7
					c0-17.967,6.35-33.316,19.05-46.05c12.7-12.7,28.033-19.05,46-19.05s33.317,6.35,46.05,19.05
					c12.7,12.733,19.05,28.083,19.05,46.05s-6.35,33.3-19.05,46C100.017-8,84.667-1.65,66.7-1.65C48.767-1.65,33.434-8,20.7-20.7z
					 M0-66.7c0,8.9,1.683,17.4,5.05,25.5c3.367,8.133,8.2,15.35,14.5,21.65c6.3,6.3,13.517,11.133,21.65,14.5
					C49.3-1.684,57.8,0,66.7,0c8.934,0,17.45-1.684,25.55-5.05c8.133-3.367,15.35-8.2,21.65-14.5c6.3-6.3,11.133-13.517,14.5-21.65
					c3.367-8.1,5.05-16.6,5.05-25.5c0-8.934-1.683-17.45-5.05-25.55c-3.367-8.134-8.2-15.35-14.5-21.65
					c-6.3-6.3-13.517-11.133-21.65-14.5c-8.1-3.366-16.617-5.05-25.55-5.05c-8.9,0-17.4,1.684-25.5,5.05
					c-8.133,3.367-15.35,8.2-21.65,14.5c-6.3,6.3-11.133,13.517-14.5,21.65C1.684-84.15,0-75.634,0-66.7z"/>
			</g>
			
				<radialGradient id="SVGID_2_" cx="66.7256" cy="-64.5752" r="59.1251" gradientTransform="matrix(1 0 0 -1 0 -129.1504)" gradientUnits="userSpaceOnUse">
				<stop  offset="0.1059" style="stop-color:#F6EFD6"/>
				<stop  offset="0.5882" style="stop-color:#E598C5"/>
				<stop  offset="0.7098" style="stop-color:#E396C3;stop-opacity:0.9686"/>
				<stop  offset="0.8039" style="stop-color:#DA8FBC;stop-opacity:0.8706"/>
				<stop  offset="0.8824" style="stop-color:#CB84B1;stop-opacity:0.7059"/>
				<stop  offset="0.9608" style="stop-color:#B675A1;stop-opacity:0.4745"/>
				<stop  offset="1" style="stop-color:#A86A97;stop-opacity:0.3176"/>
			</radialGradient>
			<path style="fill-rule:evenodd;clip-rule:evenodd;fill:url(#SVGID_2_);" d="M24.9-22.8C36.434-11.267,50.367-5.5,66.7-5.5
				c16.367,0,30.317-5.767,41.85-17.3c11.567-11.533,17.35-25.466,17.35-41.8c0-16.3-5.783-30.217-17.35-41.75
				c-11.567-11.534-25.517-17.3-41.85-17.3c-16.333,0-30.267,5.767-41.8,17.3C13.334-94.817,7.55-80.9,7.55-64.6
				C7.55-48.267,13.334-34.333,24.9-22.8z"/>
		</g>
	</g>
</symbol>
<symbol  id="Decorations_x2F_leaves_wide" viewBox="-177.3 -73.2 132.35 132.4">
	<g id="Layer_2_2_">
		<g>
			<path style="fill-rule:evenodd;clip-rule:evenodd;fill:#FFFFFF;fill-opacity:0;" d="M-111.1,59.2
				c18.233,0,33.816-6.467,46.75-19.4c12.934-12.933,19.4-28.533,19.4-46.8s-6.466-33.867-19.4-46.8
				c-12.933-12.934-28.516-19.4-46.75-19.4c-18.267,0-33.867,6.467-46.801,19.4C-170.833-40.867-177.3-25.267-177.3-7
				s6.467,33.867,19.399,46.8C-144.967,52.733-129.366,59.2-111.1,59.2z"/>
		</g>
	</g>
	<g id="Layer_1_17_">
		<path style="fill-rule:evenodd;clip-rule:evenodd;fill-opacity:0.8784;" d="M-141.4,27.15c1.101,0.934,2.4,1.4,3.9,1.4
			c0.533,0,1.05-0.066,1.55-0.2h0.05c1.467-0.5,2.351-1.1,2.65-1.8c0.2-0.5,0.184-0.983-0.05-1.45
			c-0.267-0.7-0.967-1.117-2.101-1.25c-0.333,0-0.6-0.05-0.8-0.15c-0.5-0.267-0.967-0.867-1.399-1.8
			c-0.467-1.066-0.5-1.95-0.101-2.65c0.134-0.367,0.434-0.6,0.9-0.7h0.2c0.366,0,0.633,0.133,0.8,0.4
			c0.166,0.367,0.149,0.75-0.05,1.15c-0.267,0.467-0.4,0.933-0.4,1.4c0,0.3,0.167,0.483,0.5,0.55h0.45
			c1.366,0,2.416-0.517,3.149-1.55c0.834-1.233,0.95-2.667,0.351-4.3c-0.367-0.9-0.967-1.617-1.8-2.15
			c-0.801-0.5-1.75-0.75-2.851-0.75c-1.7,0-3.149,0.55-4.35,1.65l-0.05-0.15c-0.134-0.433-0.317-0.8-0.551-1.1
			c-0.899-1.1-2.083-1.65-3.55-1.65c-0.899,0-1.783,0.217-2.649,0.65c-0.834,0.433-1.534,1-2.101,1.7c-1,1.2-1.316,2.517-0.95,3.95
			c0.167,0.733,0.5,1.367,1,1.9s1.084,0.883,1.75,1.05c-0.666,0.434-1.116,0.967-1.35,1.6c-0.366,0.967-0.25,1.95,0.35,2.95
			c0.634,1.033,1.601,1.583,2.9,1.65c0.167,0.033,0.316-0.017,0.45-0.15c0.1-0.1,0.149-0.233,0.149-0.4l-0.05-0.45
			c0-0.4,0.017-0.617,0.05-0.65c0.134-0.067,0.351-0.1,0.65-0.1C-143.816,25.75-142.7,26.217-141.4,27.15z M-136.1,27.8
			c-1.9,0.434-3.534,0.083-4.9-1.05c-2-1.5-3.583-1.95-4.75-1.35c-0.2,0.167-0.283,0.417-0.25,0.75c0.033,0.367,0.05,0.633,0.05,0.8
			c-1.166-0.067-1.983-0.534-2.45-1.4c-0.566-0.933-0.633-1.816-0.199-2.65c0.399-0.767,1.083-1.3,2.05-1.6
			c0.899-0.267,1.783-0.233,2.649,0.1c0.034-1.133-0.066-2.066-0.3-2.8c-0.333-1.033-0.883-1.467-1.649-1.3
			c-0.634,0.133-0.983,0.617-1.051,1.45c-0.033,0.733,0.167,1.417,0.601,2.05l-0.3,0.05c-0.801,0.066-1.534-0.133-2.2-0.6
			c-0.667-0.5-1.101-1.167-1.3-2c-0.5-2.2,0.416-3.883,2.75-5.05c2.3-1.133,4.133-0.85,5.5,0.85c0.166,0.233,0.333,0.55,0.5,0.95
			c0.133,0.4,0.283,0.717,0.449,0.95c1.034-1.4,2.534-2.083,4.5-2.05c2.067,0,3.417,0.833,4.051,2.5c0.5,1.3,0.449,2.483-0.15,3.55
			c-0.634,1.167-1.684,1.683-3.15,1.55c0-0.267,0.134-0.717,0.4-1.35c0.233-0.467,0.217-0.95-0.05-1.45
			c-0.334-0.6-0.867-0.833-1.601-0.7c-0.866,0.167-1.383,0.717-1.55,1.65c-0.133,0.8-0.017,1.617,0.351,2.45
			c0.433,1.1,1,1.8,1.699,2.1c0.067,0.033,0.551,0.133,1.45,0.3c0.601,0.133,0.983,0.4,1.15,0.8c0.233,0.6,0.083,1.117-0.45,1.55
			C-134.583,27.15-135.2,27.467-136.1,27.8z M-144.5,20.65l-0.9-0.1h-0.399l-0.05-0.05c-0.5-0.733-0.634-1.483-0.4-2.25
			c0.1-0.233,0.267-0.367,0.5-0.4c0.267-0.067,0.467,0,0.6,0.2C-144.717,18.483-144.5,19.35-144.5,20.65z M-87.55,25.1
			c-0.2,0.467-0.2,0.95,0,1.45c0.3,0.667,1.166,1.267,2.6,1.8h0.1c0.434,0.133,0.95,0.2,1.55,0.2c1.466,0,2.75-0.466,3.85-1.4
			c1.3-0.933,2.434-1.4,3.4-1.4c0.3,0,0.517,0.033,0.65,0.1c0.033,0.1,0.033,0.316,0,0.65l-0.05,0.45c0,0.167,0.067,0.3,0.2,0.4
			c0.1,0.167,0.233,0.217,0.4,0.15c1.333-0.067,2.317-0.617,2.95-1.65c0.566-1,0.667-1.983,0.3-2.95
			c-0.267-0.667-0.717-1.2-1.35-1.6c0.667-0.167,1.267-0.517,1.8-1.05c0.5-0.533,0.833-1.167,1-1.9c0.3-1.434-0.017-2.75-0.95-3.95
			c-0.566-0.7-1.283-1.267-2.15-1.7c-0.867-0.434-1.75-0.65-2.65-0.65c-1.5,0-2.667,0.55-3.5,1.65c-0.067,0.1-0.267,0.466-0.6,1.1
			l-0.05,0.15c-1.2-1.1-2.633-1.65-4.3-1.65c-1.1,0-2.067,0.25-2.9,0.75c-0.8,0.534-1.384,1.25-1.75,2.15
			c-0.634,1.6-0.533,3.033,0.3,4.3c0.733,1.033,1.783,1.55,3.15,1.55h0.45c0.333-0.066,0.5-0.25,0.5-0.55
			c0.033-0.333-0.083-0.8-0.35-1.4c-0.233-0.4-0.25-0.783-0.05-1.15c0.1-0.267,0.367-0.4,0.8-0.4h0.15
			c0.466,0.1,0.783,0.333,0.95,0.7c0.367,0.667,0.317,1.55-0.15,2.65c-0.333,0.9-0.8,1.5-1.4,1.8c-0.2,0.1-0.467,0.15-0.8,0.15
			C-86.583,24.017-87.283,24.433-87.55,25.1z M-87,25.3c0.167-0.4,0.55-0.667,1.15-0.8c0.9-0.167,1.383-0.267,1.45-0.3
			c0.6-0.3,1.167-1,1.7-2.1c0.367-0.867,0.483-1.684,0.35-2.45c-0.167-0.933-0.7-1.483-1.6-1.65c-0.3-0.067-0.6-0.033-0.9,0.1
			c-0.333,0.133-0.566,0.333-0.7,0.6c-0.267,0.5-0.284,0.983-0.05,1.45c0.3,0.633,0.45,1.083,0.45,1.35
			c-1.466,0.133-2.534-0.383-3.2-1.55c-0.601-1.1-0.65-2.284-0.15-3.55c0.667-1.667,2.033-2.5,4.1-2.5
			c1.967-0.033,3.467,0.65,4.5,2.05c0.133-0.2,0.283-0.517,0.45-0.95c0.167-0.4,0.333-0.717,0.5-0.95c1.367-1.7,3.2-1.983,5.5-0.85
			c2.333,1.167,3.25,2.85,2.75,5.05c-0.2,0.833-0.65,1.5-1.35,2c-0.667,0.467-1.4,0.667-2.2,0.6l-0.3-0.05
			c0.433-0.6,0.65-1.283,0.65-2.05c-0.033-0.833-0.383-1.317-1.05-1.45c-0.8-0.167-1.367,0.267-1.7,1.3
			c-0.233,0.767-0.317,1.7-0.25,2.8c0.833-0.333,1.7-0.367,2.6-0.1c0.966,0.3,1.65,0.833,2.05,1.6
			c0.433,0.833,0.383,1.717-0.15,2.65c-0.533,0.867-1.35,1.333-2.45,1.4c0-0.167,0.017-0.434,0.05-0.8c0-0.333-0.1-0.583-0.3-0.75
			c-0.733-0.367-1.717-0.267-2.95,0.3c-0.833,0.367-1.417,0.716-1.75,1.05c-1.4,1.133-3.05,1.483-4.95,1.05
			c-0.867-0.333-1.483-0.65-1.85-0.95C-87.1,26.417-87.233,25.9-87,25.3z M-75,20.5l-0.05,0.05h-0.4l-0.9,0.1
			c0-1.3,0.217-2.167,0.65-2.6c0.133-0.2,0.35-0.267,0.65-0.2c0.2,0.033,0.35,0.167,0.45,0.4C-74.3,18.95-74.433,19.7-75,20.5z"/>
		
			<linearGradient id="SVGID_3_" gradientUnits="userSpaceOnUse" x1="16229.498" y1="142.541" x2="16248.998" y2="142.541" gradientTransform="matrix(5.128206e-005 1 -1 -0.001 0.5835 -16219.1055)">
			<stop  offset="0.0745" style="stop-color:#000000;stop-opacity:0.5294"/>
			<stop  offset="0.9647" style="stop-color:#000000;stop-opacity:0.102"/>
		</linearGradient>
		<path style="fill-rule:evenodd;clip-rule:evenodd;fill:url(#SVGID_3_);" d="M-141.4,27.15c-1.3-0.933-2.416-1.4-3.35-1.4
			c-0.3,0-0.517,0.033-0.65,0.1c-0.033,0.033-0.05,0.25-0.05,0.65l0.05,0.45c0,0.167-0.05,0.3-0.149,0.4
			c-0.134,0.133-0.283,0.183-0.45,0.15c-1.3-0.067-2.267-0.617-2.9-1.65c-0.6-1-0.716-1.983-0.35-2.95
			c0.233-0.633,0.684-1.167,1.35-1.6c-0.666-0.167-1.25-0.517-1.75-1.05s-0.833-1.167-1-1.9c-0.366-1.434-0.05-2.75,0.95-3.95
			c0.566-0.7,1.267-1.267,2.101-1.7c0.866-0.434,1.75-0.65,2.649-0.65c1.467,0,2.65,0.55,3.55,1.65c0.233,0.3,0.417,0.667,0.551,1.1
			l0.05,0.15c1.2-1.1,2.649-1.65,4.35-1.65c1.101,0,2.05,0.25,2.851,0.75c0.833,0.534,1.433,1.25,1.8,2.15
			c0.6,1.633,0.483,3.066-0.351,4.3c-0.733,1.033-1.783,1.55-3.149,1.55h-0.45c-0.333-0.066-0.5-0.25-0.5-0.55
			c0-0.467,0.134-0.933,0.4-1.4c0.199-0.4,0.216-0.783,0.05-1.15c-0.167-0.267-0.434-0.4-0.8-0.4h-0.2
			c-0.467,0.1-0.767,0.333-0.9,0.7c-0.399,0.7-0.366,1.583,0.101,2.65c0.433,0.934,0.899,1.533,1.399,1.8
			c0.2,0.1,0.467,0.15,0.8,0.15c1.134,0.133,1.834,0.55,2.101,1.25c0.233,0.467,0.25,0.95,0.05,1.45c-0.3,0.7-1.184,1.3-2.65,1.8
			h-0.05c-0.5,0.133-1.017,0.2-1.55,0.2C-139,28.55-140.3,28.083-141.4,27.15z M-135.5,30.2l0.25-0.05
			c1.967-0.733,3.217-1.683,3.75-2.85c0.4-0.966,0.384-1.95-0.05-2.95c-0.167-0.434-0.384-0.783-0.65-1.05v-0.1l0.05-0.1
			c0.667-0.434,1.2-0.95,1.601-1.55c0.566-0.867,0.899-1.833,1-2.9c0.1-1.066-0.066-2.117-0.5-3.15c-0.5-1.267-1.316-2.267-2.45-3
			c-1.167-0.733-2.483-1.1-3.95-1.1c-1.233,0-2.434,0.267-3.6,0.8h-0.15c-1.267-1.367-2.85-2.05-4.75-2.05
			c-1.166,0-2.316,0.283-3.45,0.85c-1.133,0.533-2.066,1.267-2.8,2.2c-1.366,1.733-1.816,3.6-1.35,5.6c0.3,1.133,0.85,2.1,1.649,2.9
			l0.051,0.15L-151,22.2c-0.6,1.533-0.45,3.066,0.45,4.6c0.934,1.667,2.434,2.55,4.5,2.65h0.1c0.667,0,1.233-0.233,1.7-0.7l0.5-0.65
			c0-0.033,0.017-0.05,0.05-0.05c0.033-0.033,0.066-0.033,0.101,0l1,0.6c1.399,1.2,3.1,1.8,5.1,1.8
			C-136.934,30.45-136.267,30.367-135.5,30.2z M-144.5,20.65c0-1.3-0.217-2.167-0.65-2.6c-0.133-0.2-0.333-0.267-0.6-0.2
			c-0.233,0.033-0.4,0.167-0.5,0.4c-0.233,0.767-0.1,1.517,0.4,2.25l0.05,0.05h0.399L-144.5,20.65z"/>
		<path style="fill-rule:evenodd;clip-rule:evenodd;fill:#FFFFFF;fill-opacity:0.8;" d="M-135.15,30.35
			c2.034-0.767,3.317-1.75,3.851-2.95c0.467-1.033,0.467-2.083,0-3.15c-0.134-0.333-0.334-0.667-0.601-1
			c0.534-0.333,1.051-0.85,1.551-1.55c0.6-0.867,0.949-1.867,1.05-3c0.1-1.133-0.066-2.233-0.5-3.3c-0.533-1.3-1.384-2.333-2.55-3.1
			c-1.2-0.767-2.567-1.15-4.101-1.15c-1.2,0-2.416,0.267-3.649,0.8c-1.301-1.367-2.917-2.05-4.851-2.05
			c-1.233,0-2.434,0.283-3.6,0.85c-1.167,0.567-2.117,1.333-2.851,2.3c-1.399,1.767-1.85,3.7-1.35,5.8
			c0.267,1.133,0.816,2.133,1.65,3l-0.15,0.25c-0.634,1.633-0.467,3.25,0.5,4.85c1,1.733,2.55,2.65,4.65,2.75h0.149
			c0.733,0,1.367-0.267,1.9-0.8l0.45-0.6l0.8,0.5c1.467,1.267,3.233,1.9,5.3,1.9c0.6,0,1.283-0.083,2.05-0.25L-135.15,30.35z
			 M-135.5,30.2c-0.767,0.167-1.434,0.25-2,0.25c-2,0-3.7-0.6-5.1-1.8l-1-0.6c-0.034-0.033-0.067-0.033-0.101,0
			c-0.033,0-0.05,0.017-0.05,0.05l-0.5,0.65c-0.467,0.467-1.033,0.7-1.7,0.7h-0.1c-2.066-0.1-3.566-0.983-4.5-2.65
			c-0.9-1.533-1.05-3.066-0.45-4.6l0.15-0.35l-0.051-0.15c-0.8-0.8-1.35-1.767-1.649-2.9c-0.467-2-0.017-3.867,1.35-5.6
			c0.733-0.934,1.667-1.667,2.8-2.2c1.134-0.567,2.284-0.85,3.45-0.85c1.9,0,3.483,0.684,4.75,2.05h0.15
			c1.166-0.534,2.366-0.8,3.6-0.8c1.467,0,2.783,0.367,3.95,1.1c1.134,0.733,1.95,1.733,2.45,3c0.434,1.033,0.6,2.083,0.5,3.15
			c-0.101,1.067-0.434,2.033-1,2.9c-0.4,0.6-0.934,1.117-1.601,1.55l-0.05,0.1v0.1c0.267,0.267,0.483,0.617,0.65,1.05
			c0.434,1,0.45,1.983,0.05,2.95c-0.533,1.167-1.783,2.117-3.75,2.85L-135.5,30.2z M-85.55,30.15c-1.967-0.7-3.217-1.65-3.75-2.85
			c-0.4-0.966-0.4-1.95,0-2.95c0.133-0.333,0.35-0.684,0.649-1.05l0.051-0.1l-0.051-0.1c-0.699-0.434-1.233-0.95-1.6-1.55
			c-0.566-0.833-0.9-1.8-1-2.9c-0.1-1.066,0.05-2.117,0.45-3.15c0.5-1.267,1.333-2.267,2.5-3c1.133-0.733,2.45-1.1,3.95-1.1
			c1.233,0,2.434,0.267,3.6,0.8h0.15c1.267-1.367,2.833-2.05,4.7-2.05c1.2,0,2.367,0.283,3.5,0.85c1.1,0.533,2.033,1.267,2.8,2.2
			c1.333,1.7,1.767,3.566,1.3,5.6c-0.233,1.067-0.784,2.034-1.65,2.9c-0.033,0.033-0.033,0.083,0,0.15l0.15,0.35
			c0.566,1.533,0.417,3.066-0.45,4.6c-1,1.667-2.5,2.55-4.5,2.65h-0.1c-0.7,0-1.283-0.233-1.75-0.7c-0.2-0.2-0.35-0.417-0.45-0.65
			c-0.067-0.1-0.133-0.117-0.2-0.05c-0.533,0.3-0.85,0.5-0.95,0.6c-1.466,1.2-3.167,1.8-5.1,1.8c-0.6,0-1.284-0.083-2.05-0.25
			L-85.55,30.15z M-85.4,30.45c0.767,0.167,1.467,0.25,2.1,0.25c2.033,0,3.783-0.633,5.25-1.9l0.8-0.5
			c0.167,0.267,0.333,0.467,0.5,0.6c0.5,0.533,1.167,0.8,2,0.8c2.133-0.1,3.7-1.017,4.7-2.75c0.933-1.6,1.083-3.217,0.45-4.85
			l-0.1-0.25c0.867-0.934,1.417-1.934,1.65-3c0.466-2.133,0.017-4.067-1.35-5.8c-0.767-0.966-1.733-1.733-2.9-2.3
			c-1.167-0.567-2.367-0.85-3.6-0.85c-1.934,0-3.55,0.684-4.85,2.05c-1.167-0.534-2.367-0.8-3.6-0.8c-1.533,0-2.9,0.383-4.1,1.15
			c-1.2,0.767-2.05,1.8-2.55,3.1c-0.434,1.067-0.6,2.167-0.5,3.3s0.45,2.133,1.05,3c0.467,0.667,0.983,1.183,1.55,1.55
			c-0.233,0.3-0.449,0.633-0.649,1c-0.467,1.067-0.467,2.117,0,3.15c0.566,1.267,1.866,2.25,3.9,2.95L-85.4,30.45z"/>
		
			<linearGradient id="SVGID_4_" gradientUnits="userSpaceOnUse" x1="16229.2246" y1="81.0942" x2="16249.75" y2="81.0942" gradientTransform="matrix(4.872107e-005 1 -1 -0.001 0.604 -16219.1055)">
			<stop  offset="0.0745" style="stop-color:#000000;stop-opacity:0.5294"/>
			<stop  offset="0.9647" style="stop-color:#000000;stop-opacity:0.102"/>
		</linearGradient>
		<path style="fill-rule:evenodd;clip-rule:evenodd;fill:url(#SVGID_4_);" d="M-87.55,25.1c0.267-0.667,0.967-1.083,2.1-1.25
			c0.333,0,0.6-0.05,0.8-0.15c0.6-0.3,1.066-0.9,1.4-1.8c0.467-1.1,0.517-1.983,0.15-2.65c-0.167-0.367-0.483-0.6-0.95-0.7h-0.15
			c-0.433,0-0.7,0.133-0.8,0.4c-0.2,0.367-0.183,0.75,0.05,1.15c0.267,0.6,0.383,1.066,0.35,1.4c0,0.3-0.167,0.483-0.5,0.55h-0.45
			c-1.367,0-2.417-0.517-3.15-1.55c-0.833-1.267-0.934-2.7-0.3-4.3c0.366-0.9,0.95-1.617,1.75-2.15c0.833-0.5,1.8-0.75,2.9-0.75
			c1.667,0,3.1,0.55,4.3,1.65L-80,14.8c0.333-0.633,0.533-1,0.6-1.1c0.833-1.1,2-1.65,3.5-1.65c0.9,0,1.783,0.217,2.65,0.65
			c0.867,0.433,1.583,1,2.15,1.7c0.934,1.2,1.25,2.517,0.95,3.95c-0.167,0.733-0.5,1.367-1,1.9c-0.533,0.533-1.133,0.883-1.8,1.05
			c0.633,0.4,1.083,0.934,1.35,1.6c0.367,0.967,0.267,1.95-0.3,2.95c-0.633,1.033-1.617,1.583-2.95,1.65
			c-0.167,0.067-0.3,0.017-0.4-0.15c-0.133-0.1-0.2-0.233-0.2-0.4l0.05-0.45c0.033-0.333,0.033-0.55,0-0.65
			c-0.133-0.067-0.35-0.1-0.65-0.1c-0.967,0-2.1,0.467-3.4,1.4c-1.1,0.934-2.383,1.4-3.85,1.4c-0.6,0-1.117-0.066-1.55-0.2h-0.1
			c-1.434-0.533-2.3-1.133-2.6-1.8C-87.75,26.05-87.75,25.567-87.55,25.1z M-85.55,30.15l0.2,0.05c0.767,0.167,1.45,0.25,2.05,0.25
			c1.933,0,3.633-0.6,5.1-1.8c0.1-0.1,0.417-0.3,0.95-0.6c0.067-0.066,0.133-0.05,0.2,0.05c0.1,0.233,0.25,0.45,0.45,0.65
			c0.467,0.467,1.05,0.7,1.75,0.7h0.1c2-0.1,3.5-0.983,4.5-2.65c0.867-1.533,1.017-3.066,0.45-4.6l-0.15-0.35
			c-0.033-0.067-0.033-0.117,0-0.15c0.867-0.867,1.417-1.833,1.65-2.9c0.466-2.033,0.033-3.9-1.3-5.6
			c-0.767-0.934-1.7-1.667-2.8-2.2c-1.133-0.567-2.3-0.85-3.5-0.85c-1.867,0-3.434,0.684-4.7,2.05h-0.15
			c-1.167-0.534-2.367-0.8-3.6-0.8c-1.5,0-2.817,0.367-3.95,1.1c-1.167,0.733-2,1.733-2.5,3c-0.4,1.033-0.55,2.083-0.45,3.15
			c0.1,1.1,0.434,2.067,1,2.9c0.366,0.6,0.9,1.117,1.6,1.55l0.051,0.1l-0.051,0.1c-0.3,0.367-0.517,0.717-0.649,1.05
			c-0.4,1-0.4,1.983,0,2.95C-88.767,28.5-87.517,29.45-85.55,30.15z M-75,20.5c0.567-0.8,0.7-1.55,0.4-2.25
			c-0.1-0.233-0.25-0.367-0.45-0.4c-0.3-0.067-0.517,0-0.65,0.2c-0.433,0.434-0.65,1.3-0.65,2.6l0.9-0.1h0.4L-75,20.5z"/>
		
			<use xlink:href="#zzz_x5F_miscellaneous_x2F_leaves_working_2"  width="79.665" height="15.46" x="0.018" y="-15.48" transform="matrix(1 0 0 1 -150.25 28)" style="overflow:visible;"/>
	</g>
</symbol>
<symbol  id="Frames_x2F_level_06" viewBox="0 -171.5 171.55 171.5">
	<g id="Layer_1_2_">
		<g>
			<path style="fill-rule:evenodd;clip-rule:evenodd;fill:#6B757B;" d="M85.75,0c11.6,0,22.716-2.25,33.35-6.75
				c10.267-4.333,19.367-10.466,27.3-18.4c7.933-7.9,14.066-16.983,18.4-27.25c4.5-10.633,6.75-21.75,6.75-33.35
				c0-11.6-2.25-22.716-6.75-33.35c-4.333-10.267-10.467-19.35-18.4-27.25c-7.934-7.934-17.034-14.067-27.3-18.4
				c-10.633-4.5-21.75-6.75-33.35-6.75c-11.6,0-22.717,2.25-33.35,6.75c-10.233,4.333-19.317,10.467-27.25,18.4
				c-7.934,7.9-14.067,16.983-18.4,27.25C2.25-108.466,0-97.35,0-85.75c0,11.6,2.25,22.717,6.75,33.35
				c4.333,10.267,10.466,19.35,18.4,27.25c7.933,7.934,17.017,14.067,27.25,18.4C63.033-2.25,74.15,0,85.75,0z"/>
			
				<linearGradient id="SVGID_5_" gradientUnits="userSpaceOnUse" x1="16047.5205" y1="-84.728" x2="16219.0205" y2="-84.728" gradientTransform="matrix(5.830904e-006 1 -1 -0.001 0.9526 -16219.1055)">
				<stop  offset="0.0039" style="stop-color:#46231F"/>
				<stop  offset="0.2078" style="stop-color:#77603D"/>
				<stop  offset="0.5569" style="stop-color:#AB9969"/>
				<stop  offset="0.7412" style="stop-color:#EEECD0"/>
				<stop  offset="0.7922" style="stop-color:#E6E0AD"/>
				<stop  offset="1" style="stop-color:#B4A47A"/>
			</linearGradient>
			<path style="fill-rule:evenodd;clip-rule:evenodd;fill:url(#SVGID_5_);" d="M85.75,0c11.6,0,22.716-2.25,33.35-6.75
				c10.267-4.333,19.367-10.466,27.3-18.4c7.933-7.9,14.066-16.983,18.4-27.25c4.5-10.633,6.75-21.75,6.75-33.35
				c0-11.6-2.25-22.716-6.75-33.35c-4.333-10.267-10.467-19.35-18.4-27.25c-7.934-7.934-17.034-14.067-27.3-18.4
				c-10.633-4.5-21.75-6.75-33.35-6.75c-11.6,0-22.717,2.25-33.35,6.75c-10.233,4.333-19.317,10.467-27.25,18.4
				c-7.934,7.9-14.067,16.983-18.4,27.25C2.25-108.466,0-97.35,0-85.75c0,11.6,2.25,22.717,6.75,33.35
				c4.333,10.267,10.466,19.35,18.4,27.25c7.933,7.934,17.017,14.067,27.25,18.4C63.033-2.25,74.15,0,85.75,0z"/>
			<g>
				<g>
					
						<linearGradient id="SVGID_6_" gradientUnits="userSpaceOnUse" x1="16060.8711" y1="-84.7192" x2="16205.6709" y2="-84.7192" gradientTransform="matrix(6.906077e-006 1 -1 -0.001 0.9438 -16219.1055)">
						<stop  offset="0.0431" style="stop-color:#B5A271"/>
						<stop  offset="1" style="stop-color:#70634A"/>
					</linearGradient>
					<path style="fill-rule:evenodd;clip-rule:evenodd;fill:url(#SVGID_6_);" d="M57.6-19.05c8.967,3.8,18.367,5.7,28.2,5.7
						c9.8,0,19.184-1.9,28.15-5.7c8.667-3.667,16.35-8.833,23.05-15.5c6.667-6.667,11.833-14.333,15.5-23
						c3.8-8.967,5.7-18.367,5.7-28.2c0-9.833-1.9-19.233-5.7-28.2c-3.667-8.667-8.833-16.333-15.5-23
						c-6.7-6.667-14.384-11.833-23.05-15.5c-8.966-3.8-18.35-5.7-28.15-5.7c-9.833,0-19.233,1.9-28.2,5.7
						c-8.667,3.667-16.333,8.833-23,15.5c-6.7,6.667-11.883,14.333-15.55,23c-3.8,8.967-5.7,18.367-5.7,28.2
						c0,9.833,1.9,19.233,5.7,28.2c3.667,8.667,8.85,16.333,15.55,23C41.267-27.883,48.933-22.716,57.6-19.05z"/>
				</g>
			</g>
		</g>
	</g>
</symbol>
<symbol  id="Letters_x2F_digit_3" viewBox="0 -27 17.7 27">
	<g id="Layer_1_20_">
		<path style="fill-rule:evenodd;clip-rule:evenodd;fill:#FFFFFF;" d="M11.05-7.6C10.983-7,10.767-6.517,10.4-6.15
			c-0.5,0.467-1.133,0.7-1.9,0.7c-1.233,0-2.25-0.6-3.05-1.8C4.617-8.417,3.833-9,3.1-9C2.4-9,1.817-8.717,1.35-8.15
			c-0.4,0.5-0.6,1.117-0.6,1.85c0,0.066,0,0.15,0,0.25c0.033-0.633,0.233-1.167,0.6-1.6C1.817-8.217,2.4-8.5,3.1-8.5
			c0.733,0,1.517,0.583,2.35,1.75c0.8,1.2,1.816,1.8,3.05,1.8c0.767,0,1.4-0.233,1.9-0.7c0.434-0.434,0.65-1,0.65-1.7
			C11.05-7.45,11.05-7.533,11.05-7.6z M16.25-6.85c0-0.066,0-0.133,0-0.2c0-2.267-0.833-4.017-2.5-5.25
			c-0.167,0.066-0.317,0.133-0.45,0.2C15.2-10.867,16.183-9.117,16.25-6.85z M0-20.2c0,0.067,0,0.133,0,0.2
			c0.067-0.967,0.417-1.883,1.05-2.75c0.333-0.467,0.75-0.933,1.25-1.4c1.733-1.567,3.833-2.35,6.3-2.35c2.533,0,4.7,0.783,6.5,2.35
			c0.5,0.433,0.917,0.9,1.25,1.4c0.867,1.167,1.316,2.483,1.35,3.95c0-0.1,0-0.184,0-0.25c0-1.567-0.45-2.967-1.35-4.2
			c-0.333-0.5-0.75-0.967-1.25-1.4C13.3-26.217,11.133-27,8.6-27c-2.467,0-4.567,0.783-6.3,2.35c-0.5,0.467-0.917,0.933-1.25,1.4
			C0.35-22.283,0-21.267,0-20.2z M9.05-15.1c2.034-0.3,3.05-1.316,3.05-3.05c0-0.067,0-0.15,0-0.25c-0.1,1.566-1.117,2.5-3.05,2.8
			c-2.066,0.3-3.1,1.133-3.1,2.5c0,0.1,0,0.184,0,0.25C6.083-14.083,7.117-14.833,9.05-15.1z"/>
		
			<use xlink:href="#zzz_x5F_miscellaneous_x2F_digit_3x"  width="17.7" height="26.5" y="-26.5" style="overflow:visible;enable-background:new    ;"/>
		
			<use xlink:href="#zzz_x5F_miscellaneous_x2F_digit_3x"  width="17.7" height="26.5" y="-26.5" style="overflow:visible;opacity:0.4219;enable-background:new    ;"/>
	</g>
</symbol>
<symbol  id="Letters_x2F_digit_5" viewBox="0 -26.6 17.45 26.6">
	<g id="Layer_1_19_">
		<path style="fill-rule:evenodd;clip-rule:evenodd;fill:#FFFFFF;" d="M0-21.75c0,0.1,0,0.183,0,0.25
			c0.033-0.3,0.117-0.583,0.25-0.85c0.367-0.967,1.283-1.8,2.75-2.5c1.7-0.833,3.35-1.25,4.95-1.25c3.033,0,5.4,0.917,7.1,2.75
			c0.3,0.3,0.567,0.633,0.8,1c1,1.533,1.533,3.45,1.6,5.75c0-2.533-0.534-4.617-1.6-6.25c-0.233-0.367-0.5-0.7-0.8-1
			c-1.7-1.833-4.066-2.75-7.1-2.75c-1.6,0-3.25,0.417-4.95,1.25c-1.467,0.7-2.383,1.533-2.75,2.5C0.083-22.517,0-22.15,0-21.75z
			 M8.4-13.25c-0.733,0-1.467-0.2-2.2-0.6c-0.767-0.4-1.45-0.6-2.05-0.6c-0.633,0-1.167,0.2-1.6,0.6C2.183-13.483,2-13.117,2-12.75
			l0.05,0.25c0.067-0.3,0.233-0.583,0.5-0.85c0.434-0.4,0.967-0.6,1.6-0.6c0.6,0,1.283,0.2,2.05,0.6c0.733,0.4,1.466,0.6,2.2,0.6
			c1.067,0,1.917-0.333,2.55-1c0.6-0.667,0.9-1.55,0.9-2.65c0-0.1,0-0.184,0-0.25c-0.033,0.967-0.333,1.767-0.9,2.4
			C10.317-13.583,9.467-13.25,8.4-13.25z M14.6-5c0.566,0,1.066,0.15,1.5,0.45c0.633,0.4,0.983,1.05,1.05,1.95
			c0-0.066,0-0.133,0-0.2c0-1.067-0.35-1.817-1.05-2.25c-0.434-0.3-0.934-0.45-1.5-0.45H7.85L7.4-8.8c-0.033,0-0.066,0-0.1,0L7.85-5
			H14.6z"/>
		
			<use xlink:href="#zzz_x5F_miscellaneous_x2F_digit_5x"  width="17.45" height="26.1" y="-26.1" style="overflow:visible;enable-background:new    ;"/>
		
			<use xlink:href="#zzz_x5F_miscellaneous_x2F_digit_5x"  width="17.45" height="26.1" y="-26.1" style="overflow:visible;opacity:0.4219;enable-background:new    ;"/>
	</g>
</symbol>
<symbol  id="Symbol_3" viewBox="-0.007 -31.575 47.086 30.146">
	<g id="Layer_1_18_">
		
			<use xlink:href="#flash0.ai_x5F_1_x2F_Layer_8_x2F__x3C_Path_x3E_"  width="8.85" height="31.05" x="1.8" y="-31.05" transform="matrix(0.7 -0.1834 0.1834 0.7 40.1001 -3.2002)" style="overflow:visible;opacity:0.5391;enable-background:new    ;"/>
		
			<use xlink:href="#flash0.ai_x5F_1_x2F_Layer_8_x2F__x3C_Path_x3E_"  width="8.85" height="31.05" x="1.8" y="-31.05" transform="matrix(0.699 -0.1873 0.1873 0.699 4.5498 0.3501)" style="overflow:visible;opacity:0.5391;enable-background:new    ;"/>
		
			<use xlink:href="#flash0.ai_x5F_1_x2F_Layer_8_x2F__x3C_Path_x3E_"  width="8.85" height="31.05" x="1.8" y="-31.05" transform="matrix(0.8968 -0.2403 0.1873 0.699 9.3501 -9.2002)" style="overflow:visible;opacity:0.5391;enable-background:new    ;"/>
		
			<use xlink:href="#flash0.ai_x5F_1_x2F_Layer_8_x2F__x3C_Path_x3E_"  width="8.85" height="31.05" x="1.8" y="-31.05" transform="matrix(0.49 -0.1707 0.2381 0.6834 23.6001 -10.0498)" style="overflow:visible;opacity:0.5391;enable-background:new    ;"/>
		
			<use xlink:href="#flash0.ai_x5F_1_x2F_Layer_8_x2F__x3C_Path_x3E_"  width="8.85" height="31.05" x="1.8" y="-31.05" transform="matrix(0.5346 -0.1432 0.1179 0.44 7.8999 -7.3999)" style="overflow:visible;opacity:0.5391;enable-background:new    ;"/>
		
			<use xlink:href="#flash0.ai_x5F_1_x2F_Layer_8_x2F__x3C_Path_x3E_"  width="8.85" height="31.05" x="1.8" y="-31.05" transform="matrix(0.49 -0.1707 0.2381 0.6834 31.2002 -9.6001)" style="overflow:visible;opacity:0.5391;enable-background:new    ;"/>
	</g>
</symbol>
<symbol  id="flash0.ai_x5F_0_x2F_Layer_8_x2F__x3C_Path_x3E_" viewBox="0.005 -65.958 65.252 65.933">
	<g id="Layer_1_5_">
		
			<linearGradient id="SVGID_7_" gradientUnits="userSpaceOnUse" x1="16153.1201" y1="-31.5435" x2="16246.1201" y2="-31.5435" gradientTransform="matrix(1.075269e-005 1 -1 -0.001 0.9126 -16219.1055)">
			<stop  offset="0" style="stop-color:#221F1F"/>
			<stop  offset="0.1725" style="stop-color:#252222"/>
			<stop  offset="0.3098" style="stop-color:#2F2C2C"/>
			<stop  offset="0.4353" style="stop-color:#403D3D"/>
			<stop  offset="0.5529" style="stop-color:#575555"/>
			<stop  offset="0.6667" style="stop-color:#757373"/>
			<stop  offset="0.7725" style="stop-color:#9A9999"/>
			<stop  offset="0.8784" style="stop-color:#C6C5C5"/>
			<stop  offset="0.9804" style="stop-color:#F8F8F8"/>
			<stop  offset="0.9961" style="stop-color:#FFFFFF"/>
		</linearGradient>
		<path style="fill-rule:evenodd;clip-rule:evenodd;fill:url(#SVGID_7_);" d="M62.25-46.15v-3.55c-0.233-2.433-0.9-3.85-2-4.25
			c-1.133-0.433-2.05-0.35-2.75,0.25l-0.75,1.05l-6.2-4.3l-0.9-2.85c-0.8-1.967-1.717-3.133-2.75-3.5s-2.566,0.25-4.6,1.85
			l-2.75,2.5l-6.65-2l-1.3-2.45c-1.167-1.633-2.4-2.483-3.7-2.55c-1.3-0.1-2.45,0.733-3.45,2.5L23.4-60.8
			c-0.833-0.1-1.733-0.067-2.7,0.1c-1.9,0.367-3.167,1.284-3.8,2.75c-0.633,1.467-1.1,3.317-1.4,5.55l-0.25,2.95
			c-1.4-0.8-3-1.383-4.8-1.75c-3.567-0.7-6.367,0.1-8.4,2.4c-2,2.3-2.533,4.216-1.6,5.75l1.95,1.6c-0.6,0.733-1.1,1.633-1.5,2.7
			c-0.8,2.1-0.633,3.917,0.5,5.45c1.1,1.533,2.35,2.483,3.75,2.85c0.7,0.2,1.283,0.25,1.75,0.15c-0.933,0.933-1.75,2.083-2.45,3.45
			c-1.367,2.7-1.434,5.1-0.2,7.2c1.267,2.066,4.317,2.767,9.15,2.1c2.4-0.333,4.684-0.867,6.85-1.6l6.8,4.5v3.5
			c-0.466,0.2-0.917,0.633-1.35,1.3c-0.833,1.3-1.1,3.1-0.8,5.4c0.333,2.7,2.017,4.167,5.05,4.4c3,0.2,6.483-0.833,10.45-3.1
			c5.233-3,9.117-5.434,11.65-7.3L54.2-9.9c1.6,0.2,2.883-0.15,3.85-1.05c1.067-1,2.534-5.517,4.4-13.55
			c1.733-7.5,2.667-12.6,2.8-15.3c0.067-1.867-0.417-3.483-1.45-4.85L62.25-46.15z"/>
	</g>
</symbol>
<symbol  id="flash0.ai_x5F_0_x2F_Layer_8_x2F__x3C_Path_x3E__x5F_0" viewBox="-0.006 -69.303 68.112 69.354">
	<g id="Layer_1_7_">
		
			<linearGradient id="SVGID_8_" gradientUnits="userSpaceOnUse" x1="16121.6211" y1="-32.9634" x2="16215.0215" y2="-32.9634" gradientTransform="matrix(1.070664e-005 1 -1 -0.001 0.9131 -16219.1055)">
			<stop  offset="0" style="stop-color:#221F1F"/>
			<stop  offset="0.0235" style="stop-color:#3C3939"/>
			<stop  offset="0.0706" style="stop-color:#646262"/>
			<stop  offset="0.1176" style="stop-color:#8A8888"/>
			<stop  offset="0.1725" style="stop-color:#AAA8A8"/>
			<stop  offset="0.2314" style="stop-color:#C4C4C4"/>
			<stop  offset="0.302" style="stop-color:#DADADA"/>
			<stop  offset="0.3804" style="stop-color:#EBEAEA"/>
			<stop  offset="0.4784" style="stop-color:#F6F6F6"/>
			<stop  offset="0.6157" style="stop-color:#FDFDFD"/>
			<stop  offset="0.9961" style="stop-color:#FFFFFF"/>
		</linearGradient>
		<path style="fill-rule:evenodd;clip-rule:evenodd;fill:url(#SVGID_8_);" d="M56.55-10.1c1.667,0.2,3.017-0.167,4.05-1.1
			c1.1-1.033,2.633-5.8,4.6-14.3c1.8-7.933,2.767-13.317,2.9-16.15c0.066-1.967-0.434-3.684-1.5-5.15l-1.65-1.55v-3.75
			c-0.233-2.566-0.934-4.066-2.1-4.5c-1.133-0.433-2.083-0.333-2.85,0.3l-0.8,1.1l-6.45-4.55l-0.9-3.05
			c-0.833-2.067-1.8-3.284-2.9-3.65c-1.067-0.367-2.667,0.284-4.8,1.95l-2.85,2.6L34.35-64l-1.4-2.6
			c-1.2-1.733-2.483-2.633-3.85-2.7c-1.367-0.067-2.567,0.833-3.6,2.7l-1.1,2.8c-0.867-0.133-1.8-0.1-2.8,0.1
			c-2,0.367-3.317,1.317-3.95,2.85s-1.117,3.5-1.45,5.9l-0.3,3.1c-1.433-0.867-3.1-1.483-5-1.85c-3.733-0.733-6.65,0.117-8.75,2.55
			c-1.933,2.233-2.566,4.117-1.9,5.65c0.333,0.833,1.033,1.517,2.1,2.05c-1.633-1.633-1.283-3.8,1.05-6.5
			c2.033-2.3,4.833-3.1,8.4-2.4c1.8,0.367,3.4,0.95,4.8,1.75l0.25-2.95c0.3-2.233,0.767-4.083,1.4-5.55s1.9-2.383,3.8-2.75
			c0.967-0.167,1.867-0.2,2.7-0.1l1.05-2.65c1-1.767,2.15-2.6,3.45-2.5c1.3,0.067,2.533,0.917,3.7,2.55l1.3,2.45l6.65,2l2.75-2.5
			c2.033-1.6,3.567-2.217,4.6-1.85s1.95,1.534,2.75,3.5l0.9,2.85l6.2,4.3l0.75-1.05c0.7-0.6,1.617-0.683,2.75-0.25
			c1.1,0.4,1.767,1.817,2,4.25v3.55l1.55,1.5c1.033,1.367,1.517,2.983,1.45,4.85c-0.133,2.7-1.067,7.8-2.8,15.3
			c-1.867,8.033-3.333,12.55-4.4,13.55c-0.967,0.9-2.25,1.25-3.85,1.05L53.4-11.6c-2.533,1.867-6.417,4.3-11.65,7.3
			C37.783-2.033,34.3-1,31.3-1.2c-3.033-0.233-4.716-1.7-5.05-4.4c-0.3-2.3-0.033-4.1,0.8-5.4c0.434-0.667,0.883-1.1,1.35-1.3v-3.5
			l-6.8-4.5c-2.167,0.733-4.45,1.267-6.85,1.6c-4.833,0.667-7.883-0.033-9.15-2.1c-1.233-2.1-1.167-4.5,0.2-7.2
			c0.7-1.367,1.517-2.517,2.45-3.45c-0.333,0.067-0.733,0.067-1.2,0c-1.167,1.3-2.066,2.667-2.7,4.1c-1.133,2.633-1.1,4.967,0.1,7
			c1.3,2.2,4.433,3.067,9.4,2.6c2.467-0.233,4.816-0.683,7.05-1.35l6.85,4.3l-0.35,2.5c-0.467,0.233-0.917,0.7-1.35,1.4
			c-0.833,1.433-1.1,3.367-0.8,5.8c0.367,2.9,2.25,4.583,5.65,5.05c3.434,0.433,7.184-0.534,11.25-2.9
			c5.467-3.167,9.533-5.75,12.2-7.75L56.55-10.1z"/>
	</g>
</symbol>
<symbol  id="flash0.ai_x5F_0_x2F_Layer_8_x2F__x3C_Path_x3E__x5F_1" viewBox="-0.008 -11.75 6.008 11.75">
	<g id="Layer_1_6_">
		
			<linearGradient id="SVGID_9_" gradientUnits="userSpaceOnUse" x1="16202.5664" y1="-1.4858" x2="16218.4414" y2="-1.4858" gradientTransform="matrix(6.299213e-005 1 -1 -0.001 0.4883 -16219.1055)">
			<stop  offset="0" style="stop-color:#221F1F"/>
			<stop  offset="0.0235" style="stop-color:#3C3939"/>
			<stop  offset="0.0706" style="stop-color:#646262"/>
			<stop  offset="0.1176" style="stop-color:#8A8888"/>
			<stop  offset="0.1725" style="stop-color:#AAA8A8"/>
			<stop  offset="0.2314" style="stop-color:#C4C4C4"/>
			<stop  offset="0.302" style="stop-color:#DADADA"/>
			<stop  offset="0.3804" style="stop-color:#EBEAEA"/>
			<stop  offset="0.4784" style="stop-color:#F6F6F6"/>
			<stop  offset="0.6157" style="stop-color:#FDFDFD"/>
			<stop  offset="0.9961" style="stop-color:#FFFFFF"/>
		</linearGradient>
		<path style="fill-rule:evenodd;clip-rule:evenodd;fill:url(#SVGID_9_);" d="M3.3-11l-1.25-0.75C1.383-10.983,0.833-9.967,0.4-8.7
			C-0.3-6.6-0.1-4.767,1-3.2C2.467-1.167,4.133-0.1,6,0C4.633-0.4,3.4-1.35,2.3-2.85C1.167-4.383,1-6.2,1.8-8.3
			C2.2-9.367,2.7-10.267,3.3-11z"/>
	</g>
</symbol>
<symbol  id="flash0.ai_x5F_1_x2F_Layer_8_x2F__x3C_Path_x3E_" viewBox="1.8 -31.05 8.85 31.05">
	<g id="Layer_1_11_">
		
			<linearGradient id="SVGID_10_" gradientUnits="userSpaceOnUse" x1="16163.8262" y1="-5.0884" x2="16223.6758" y2="-5.0884" gradientTransform="matrix(1.670844e-005 1 -1 -0.001 0.8657 -16219.1045)">
			<stop  offset="0" style="stop-color:#221F1F"/>
			<stop  offset="0.0235" style="stop-color:#3C3939"/>
			<stop  offset="0.0706" style="stop-color:#646262"/>
			<stop  offset="0.1176" style="stop-color:#8A8888"/>
			<stop  offset="0.1725" style="stop-color:#AAA8A8"/>
			<stop  offset="0.2314" style="stop-color:#C4C4C4"/>
			<stop  offset="0.302" style="stop-color:#DADADA"/>
			<stop  offset="0.3804" style="stop-color:#EBEAEA"/>
			<stop  offset="0.4784" style="stop-color:#F6F6F6"/>
			<stop  offset="0.6157" style="stop-color:#FDFDFD"/>
			<stop  offset="0.9961" style="stop-color:#FFFFFF"/>
		</linearGradient>
		<path style="fill-rule:evenodd;clip-rule:evenodd;fill:url(#SVGID_10_);" d="M6.85-15.8c-1.133-4-2.817-9.083-5.05-15.25
			c0.7,4.4,1.65,8.933,2.85,13.6C5.883-12.783,6.667-7.5,7-1.6L9.5,0l1.15-2.6C9.217-7.4,7.95-11.8,6.85-15.8z"/>
	</g>
</symbol>
<symbol  id="winderedge" viewBox="0.015 -8.126 4.537 8.127">
	<g id="Layer_1_8_">
		<g>
			
				<linearGradient id="SVGID_11_" gradientUnits="userSpaceOnUse" x1="9.1401" y1="-16207.5293" x2="15.9651" y2="-16207.5293" gradientTransform="matrix(1.465202e-004 -1 1 -0.001 16209.8135 -7.105)">
				<stop  offset="0" style="stop-color:#8F8F8F"/>
				<stop  offset="0.2275" style="stop-color:#E8E8E8"/>
				<stop  offset="1" style="stop-color:#696969"/>
			</linearGradient>
			<path style="fill-rule:evenodd;clip-rule:evenodd;fill:url(#SVGID_11_);" d="M3.5-5.899c0.066,0.6-0.083,0.983-0.45,1.15L2.6-4.7
				C2.367-4.7,2.167-4.733,2-4.8c-0.533-0.167-0.833-0.533-0.9-1.1c-0.034-0.5,0.1-0.85,0.4-1.05c0.434-0.233,0.867-0.233,1.3,0
				C3.2-6.716,3.434-6.366,3.5-5.899z M0.05-1.25c0.1,0.8,0.5,1.216,1.2,1.25c1.367,0.033,2.333-0.633,2.9-2
				c0.5-1.233,0.534-2.05,0.1-2.45c0.434-0.533,0.4-1.333-0.1-2.4c-0.567-1.167-1.533-1.533-2.9-1.1c-0.7,0.233-1.1,0.767-1.2,1.6
				c-0.133,0.867,0.117,1.533,0.75,2L1.25-4L0.8-3.55C0.167-2.85-0.083-2.083,0.05-1.25z M2.8-1.5C2.367-1.1,1.934-0.966,1.5-1.1
				c-0.3-0.133-0.434-0.467-0.4-1C1.167-2.666,1.467-3.116,2-3.45l0.6-0.3L3.05-3.8C3.417-3.766,3.566-3.416,3.5-2.75
				C3.434-2.25,3.2-1.833,2.8-1.5z"/>
		</g>
	</g>
</symbol>
<symbol  id="winderface1a" viewBox="0.015 -8.172 4.573 8.174">
	<g id="Layer_1_10_">
		
			<linearGradient id="SVGID_12_" gradientUnits="userSpaceOnUse" x1="-1902.4639" y1="-13694.0742" x2="-1893.2916" y2="-13694.0742" gradientTransform="matrix(0.2726 -0.9621 0.9621 0.2726 13694.7578 1903.1992)">
			<stop  offset="0" style="stop-color:#E8E8E8"/>
			<stop  offset="1" style="stop-color:#878787"/>
		</linearGradient>
		<path style="fill-rule:evenodd;clip-rule:evenodd;fill:url(#SVGID_12_);" d="M2.05-4.8c-0.566-0.133-0.867-0.483-0.9-1.05
			c-0.033-0.533,0.1-0.9,0.4-1.1c0.4-0.267,0.817-0.267,1.25,0C3.2-6.717,3.433-6.367,3.5-5.9c0.133,0.633,0,1-0.4,1.1L2.65-4.7
			L2.05-4.8z M0.05-1.25C0.183-0.45,0.6-0.033,1.3,0c1.367,0.033,2.333-0.633,2.9-2c0.5-1.233,0.517-2.05,0.05-2.45
			c0.467-0.5,0.45-1.3-0.05-2.4C3.633-8.05,2.667-8.433,1.3-8C0.6-7.733,0.183-7.183,0.05-6.35c-0.133,0.867,0.117,1.533,0.75,2
			L1.3-4L0.8-3.55C0.167-2.85-0.083-2.083,0.05-1.25z M3.5-2.75C3.433-2.25,3.2-1.833,2.8-1.5C2.367-1.1,1.95-0.967,1.55-1.1
			c-0.3-0.133-0.433-0.467-0.4-1c0.033-0.6,0.333-1.05,0.9-1.35l0.6-0.3L3.1-3.8C3.467-3.767,3.6-3.417,3.5-2.75z"/>
	</g>
</symbol>
<symbol  id="winderfacehighlight" viewBox="0.016 -8.173 4.573 8.174">
	<g id="Layer_1_9_">
		
			<linearGradient id="SVGID_13_" gradientUnits="userSpaceOnUse" x1="-1902.4639" y1="-13694.0742" x2="-1893.2916" y2="-13694.0742" gradientTransform="matrix(0.2726 -0.9621 0.9621 0.2726 13694.7578 1903.1992)">
			<stop  offset="0" style="stop-color:#E8E8E8"/>
			<stop  offset="1" style="stop-color:#EDEDED"/>
		</linearGradient>
		<path style="fill-rule:evenodd;clip-rule:evenodd;fill:url(#SVGID_13_);" d="M2.05-4.8c-0.567-0.133-0.867-0.483-0.9-1.05
			c-0.033-0.533,0.1-0.9,0.4-1.1c0.4-0.267,0.817-0.267,1.25,0C3.2-6.717,3.434-6.367,3.5-5.9c0.1,0.6-0.034,0.967-0.4,1.1L2.65-4.7
			L2.05-4.8z M1.55-1.101c-0.3-0.133-0.433-0.466-0.4-1c0.033-0.6,0.333-1.05,0.9-1.35l0.6-0.3l0.45-0.05
			c0.366,0.033,0.5,0.383,0.4,1.05C3.434-2.25,3.2-1.834,2.8-1.5C2.367-1.101,1.95-0.967,1.55-1.101z M0.05-1.25
			C0.184-0.45,0.601-0.034,1.3,0c1.367,0.034,2.333-0.633,2.9-2c0.5-1.233,0.517-2.05,0.05-2.45c0.466-0.5,0.45-1.3-0.05-2.4
			C3.634-8.05,2.667-8.434,1.3-8c-0.7,0.267-1.117,0.817-1.25,1.65c-0.133,0.867,0.117,1.534,0.75,2L1.3-4L0.8-3.55
			C0.167-2.851-0.083-2.084,0.05-1.25z"/>
	</g>
</symbol>
<symbol  id="zz_x5F_Highlight_x2F_Highlight_Piece" viewBox="0 -115.9 118.7 115.9">
	<g id="Layer_1_21_">
		<g>
			
				<use xlink:href="#zzz_x5F_miscellaneous_x2F_FlashAICB_copy_x2F_Layer_1_x2F__x3C_Path_x3E__x5F_2"  width="118.7" height="57.1" y="-57.1" transform="matrix(1 0 0 1 0 -58.7998)" style="overflow:visible;opacity:0.2813;enable-background:new    ;"/>
			
				<use xlink:href="#zzz_x5F_miscellaneous_x2F_FlashAICB_copy_x2F_Layer_1_x2F__x3C_Path_x3E__x5F_1"  width="110.05" height="55.75" y="-55.75" transform="matrix(1 0 0 1 4.1499 0)" style="overflow:visible;opacity:0.1094;enable-background:new    ;"/>
			
				<use xlink:href="#zzz_x5F_miscellaneous_x2F_FlashAICB_copy_x2F_Layer_1_x2F__x3C_Path_x3E_"  width="110.05" height="61.294" y="-61.294" transform="matrix(1 0 0 1 4.1499 0)" style="overflow:visible;opacity:0.0898;enable-background:new    ;"/>
		</g>
	</g>
</symbol>
<symbol  id="zzz_x5F_miscellaneous_x2F_FlashAICB_copy_x2F_Layer_1_x2F__x3C_Path_x3E_" viewBox="0 -61.294 110.05 61.294">
	<g id="Layer_1_16_">
		<path style="fill-rule:evenodd;clip-rule:evenodd;fill:#FFFFFF;" d="M106.5-34.35c2.367-5.633,3.55-10.95,3.55-15.95
			c0-4.934-1.45-8.05-4.35-9.35c-2.333-1.033-6.25-1.017-11.75,0.05c-7.3,1.767-13.133,3.117-17.5,4.05
			C68.417-53.85,61.267-53,55-53c-6.3,0-13.433-0.917-21.4-2.75c-8.333-2.2-14.167-3.683-17.5-4.45
			c-5.533-1.267-9.45-1.433-11.75-0.5C1.45-59.5,0-56.433,0-51.5c0,5.5,1.167,11.167,3.5,17c2.467,6.167,5.95,11.733,10.45,16.7
			C24.65-5.933,38.333,0,55,0c16.467,0,30.15-5.983,41.05-17.95C100.517-22.883,104-28.35,106.5-34.35z"/>
	</g>
</symbol>
<symbol  id="zzz_x5F_miscellaneous_x2F_FlashAICB_copy_x2F_Layer_1_x2F__x3C_Path_x3E__x5F_1" viewBox="0 -55.75 110.05 55.75">
	<g id="Layer_1_15_">
		
			<linearGradient id="SVGID_14_" gradientUnits="userSpaceOnUse" x1="16163.2637" y1="-53.8804" x2="16219.0391" y2="-53.8804" gradientTransform="matrix(1.792918e-005 1 -1 -0.001 0.8545 -16219.1055)">
			<stop  offset="0.1294" style="stop-color:#D9BBB3"/>
			<stop  offset="0.9255" style="stop-color:#FFFFFF"/>
		</linearGradient>
		<path style="fill-rule:evenodd;clip-rule:evenodd;fill:url(#SVGID_14_);" d="M96.05-17.95c4.467-4.933,7.95-10.4,10.45-16.4
			c2.367-5.633,3.55-10.95,3.55-15.95c0-1.567-0.167-3.05-0.5-4.45c-1.867,11.067-7.267,20.9-16.2,29.5
			C82.783-15.117,70-10.05,55-10.05c-15.233,0-28.067-5.05-38.5-15.15C7.533-33.9,2.183-44.083,0.45-55.75
			C0.15-54.617,0-53.2,0-51.5c0,5.5,1.167,11.167,3.5,17c2.467,6.167,5.95,11.733,10.45,16.7C24.65-5.933,38.333,0,55,0
			C71.467,0,85.15-5.983,96.05-17.95z"/>
	</g>
</symbol>
<symbol  id="zzz_x5F_miscellaneous_x2F_FlashAICB_copy_x2F_Layer_1_x2F__x3C_Path_x3E__x5F_2" viewBox="0 -57.1 118.7 57.1">
	<g id="Layer_1_14_">
		
			<radialGradient id="SVGID_15_" cx="59.3501" cy="-28.5498" r="46.5701" gradientTransform="matrix(1 0 0 -1 0 -57.0996)" gradientUnits="userSpaceOnUse">
			<stop  offset="0" style="stop-color:#000000;stop-opacity:0"/>
			<stop  offset="0.651" style="stop-color:#000000;stop-opacity:0.4"/>
		</radialGradient>
		<path style="fill-rule:evenodd;clip-rule:evenodd;fill:url(#SVGID_15_);" d="M95.5-30.35c10.733,7.7,18.3,17.733,22.7,30.1
			L118.7,0c-0.567-15.9-6.6-29.383-18.1-40.45C89.1-51.55,75.333-57.1,59.3-57.1c-15.7,0-29.267,5.367-40.7,16.1
			C7.2-30.333,1-17.233,0-1.7c4.6-12,12.183-21.683,22.75-29.05c10.833-7.567,22.867-11.35,36.1-11.35
			C72.35-42.1,84.567-38.183,95.5-30.35z"/>
	</g>
</symbol>
<symbol  id="zzz_x5F_miscellaneous_x2F_digit_3x" viewBox="0 -26.5 17.7 26.5">
	<g id="Layer_1_13_">
		<linearGradient id="SVGID_16_" gradientUnits="userSpaceOnUse" x1="8.8501" y1="-22.1001" x2="8.8501" y2="-4.4001">
			<stop  offset="0.0745" style="stop-color:#000000;stop-opacity:0.9882"/>
			<stop  offset="0.9647" style="stop-color:#000000;stop-opacity:0.651"/>
		</linearGradient>
		<path style="fill-rule:evenodd;clip-rule:evenodd;fill:url(#SVGID_16_);" d="M13.3-12.1c1.333-0.6,2.4-1.467,3.2-2.6
			c0.8-1.167,1.2-2.45,1.2-3.85c0-1.567-0.45-2.967-1.35-4.2c-0.333-0.5-0.75-0.967-1.25-1.4c-1.8-1.567-3.967-2.35-6.5-2.35
			c-2.467,0-4.567,0.783-6.3,2.35c-0.5,0.467-0.917,0.933-1.25,1.4C0.35-21.783,0-20.767,0-19.7c0,0.667,0.3,1.233,0.9,1.7
			c0.533,0.467,1.15,0.7,1.85,0.7s1.5-0.7,2.4-2.1s2.083-2.1,3.55-2.1c0.933,0,1.733,0.317,2.4,0.95c0.667,0.667,1,1.466,1,2.4
			c0,1.733-1.017,2.75-3.05,3.05c-2.066,0.3-3.1,1.133-3.1,2.5c0,1.233,0.85,2.083,2.55,2.55c1.7,0.433,2.55,1.333,2.55,2.7
			c0,0.7-0.216,1.267-0.65,1.7c-0.5,0.467-1.133,0.7-1.9,0.7c-1.233,0-2.25-0.6-3.05-1.8C4.617-7.917,3.833-8.5,3.1-8.5
			c-0.7,0-1.283,0.283-1.75,0.85c-0.4,0.5-0.6,1.117-0.6,1.85c0,1.4,0.817,2.716,2.45,3.95S6.633,0,8.6,0
			c2.367,0,4.283-0.75,5.75-2.25c1.267-1.267,1.9-2.7,1.9-4.3C16.25-8.983,15.267-10.833,13.3-12.1z"/>
	</g>
</symbol>
<symbol  id="zzz_x5F_miscellaneous_x2F_digit_5x" viewBox="0 -26.1 17.45 26.1">
	<g id="Layer_1_12_">
		<linearGradient id="SVGID_17_" gradientUnits="userSpaceOnUse" x1="8.7251" y1="-21.7749" x2="8.7251" y2="-4.3249">
			<stop  offset="0.0745" style="stop-color:#000000;stop-opacity:0.9882"/>
			<stop  offset="0.9647" style="stop-color:#000000;stop-opacity:0.651"/>
		</linearGradient>
		<path style="fill-rule:evenodd;clip-rule:evenodd;fill:url(#SVGID_17_);" d="M14.6-5H7.85L7.3-8.8C8.367-8.567,9.267-8.45,10-8.45
			c2.133,0,3.917-0.75,5.35-2.25c1.4-1.466,2.1-3.267,2.1-5.4c0-2.533-0.534-4.617-1.6-6.25c-0.233-0.367-0.5-0.7-0.8-1
			c-1.7-1.833-4.066-2.75-7.1-2.75c-1.6,0-3.25,0.417-4.95,1.25c-1.467,0.7-2.383,1.533-2.75,2.5C0.083-22.017,0-21.65,0-21.25
			C0-20.583,0.233-20,0.7-19.5c0.5,0.467,1.083,0.7,1.75,0.7c0.4,0,1.216-0.383,2.45-1.15c1.2-0.767,2.25-1.15,3.15-1.15
			c1.167,0,2.117,0.5,2.85,1.5c0.633,0.9,0.95,1.967,0.95,3.2c0,1.1-0.3,1.983-0.9,2.65c-0.633,0.667-1.483,1-2.55,1
			c-0.733,0-1.467-0.2-2.2-0.6c-0.767-0.4-1.45-0.6-2.05-0.6c-0.633,0-1.167,0.2-1.6,0.6C2.183-12.983,2-12.617,2-12.25l1.05,8.8
			c0.2,1.367,0.5,2.284,0.9,2.75c0.367,0.467,1,0.7,1.9,0.7h8.65c0.8,0,1.45-0.217,1.95-0.65c0.466-0.434,0.7-0.983,0.7-1.65
			c0-1.067-0.35-1.817-1.05-2.25C15.667-4.85,15.167-5,14.6-5z"/>
	</g>
</symbol>
<symbol  id="zzz_x5F_miscellaneous_x2F_leaves_working_2" viewBox="0.018 -15.48 79.665 15.46">
	<g id="Layer_1_4_">
		<linearGradient id="SVGID_18_" gradientUnits="userSpaceOnUse" x1="70.5454" y1="-15.3623" x2="70.5454" y2="-0.0373">
			<stop  offset="0" style="stop-color:#4F4F4F"/>
			<stop  offset="1" style="stop-color:#CDCDCD"/>
		</linearGradient>
		<path style="fill-rule:evenodd;clip-rule:evenodd;fill:url(#SVGID_18_);" d="M76.75-5.45c0.633,0.667,0.767,1.467,0.4,2.4
			c-0.233,0.533-0.533,0.833-0.9,0.9c0.567-1,0.633-1.883,0.2-2.65C76.317-5,75.833-5.467,75-6.2C75.6-6.3,76.183-6.05,76.75-5.45z
			 M77.85-2.45C78.383-3.383,78.433-4.267,78-5.1c-0.4-0.767-1.083-1.3-2.05-1.6c-0.9-0.267-1.767-0.233-2.6,0.1
			c-0.067-1.1,0.017-2.033,0.25-2.8c0.333-1.033,0.9-1.467,1.7-1.3c0.667,0.133,1.017,0.617,1.05,1.45c0,0.767-0.217,1.45-0.65,2.05
			L76-7.15c0.8,0.066,1.533-0.133,2.2-0.6c0.7-0.5,1.15-1.167,1.35-2c0.5-2.2-0.417-3.883-2.75-5.05c-2.3-1.133-4.133-0.85-5.5,0.85
			c-0.167,0.233-0.333,0.55-0.5,0.95c-0.167,0.433-0.316,0.75-0.45,0.95c-1.033-1.4-2.533-2.083-4.5-2.05
			c-2.067,0-3.434,0.833-4.1,2.5c-0.5,1.267-0.45,2.45,0.15,3.55c0.667,1.167,1.733,1.683,3.2,1.55c0-0.267-0.15-0.717-0.45-1.35
			C64.417-8.317,64.433-8.8,64.7-9.3c0.133-0.267,0.367-0.467,0.7-0.6c0.3-0.133,0.6-0.167,0.9-0.1c0.9,0.167,1.434,0.717,1.6,1.65
			c0.133,0.767,0.017,1.583-0.35,2.45c-0.533,1.1-1.1,1.8-1.7,2.1c-0.067,0.033-0.55,0.133-1.45,0.3c-0.6,0.133-0.983,0.4-1.15,0.8
			c-0.233,0.6-0.1,1.117,0.4,1.55c0.367,0.3,0.983,0.617,1.85,0.95c1.9,0.434,3.55,0.083,4.95-1.05
			c0.333-0.333,0.917-0.683,1.75-1.05c1.233-0.567,2.216-0.667,2.95-0.3c0.2,0.167,0.3,0.417,0.3,0.75
			c-0.034,0.367-0.05,0.633-0.05,0.8C76.5-1.117,77.317-1.583,77.85-2.45z M63.6-8.35c-0.033,0.067,0,0.367,0.1,0.9
			c-0.633-0.233-0.833-0.867-0.6-1.9c0.2-0.967,0.583-1.583,1.15-1.85c0.467-0.267,0.983-0.367,1.55-0.3
			c0.567,0.067,1,0.283,1.3,0.65c-0.333-0.267-0.65-0.4-0.95-0.4c-0.533-0.067-1.133,0.317-1.8,1.15C63.85-9.5,63.6-8.917,63.6-8.35
			z M68.25-3c-0.8,0.567-1.333,0.767-1.6,0.6c0.133,0,0.617-0.4,1.45-1.2c0.967-0.9,1.55-1.633,1.75-2.2
			c0.4-1.434,0.367-2.9-0.1-4.4c-0.233-0.767-0.517-1.383-0.85-1.85c1.767,1.6,2.233,3.716,1.4,6.35
			C69.933-4.567,69.25-3.667,68.25-3z M76.85-7.95c1-0.933,1.5-2.017,1.5-3.25c-0.033-0.867-0.25-1.583-0.65-2.15
			c1.233,1.067,1.583,2.317,1.05,3.75C78.217-8.267,77.583-7.717,76.85-7.95z M74.45-11.7c-0.767,0.133-1.3,0.65-1.6,1.55
			c-0.333,1.3-0.4,2.483-0.2,3.55L71.9-6.3c0.033-0.067,0.083-1.184,0.15-3.35c0.467-2.033,1.633-2.8,3.5-2.3
			C75.55-11.917,75.183-11.833,74.45-11.7z M75.65-3.35c-0.566-0.633-1.3-0.917-2.2-0.85l-1.2,0.35
			c-0.967,0.667-1.817,1.217-2.55,1.65c-1.367,0.767-2.367,0.85-3,0.25c0.7-0.033,1.6-0.4,2.7-1.1c0.567-0.367,1.2-0.784,1.9-1.25
			c0.333-0.333,0.983-0.517,1.95-0.55C74.45-4.883,75.25-4.383,75.65-3.35z"/>
		<path style="fill-rule:evenodd;clip-rule:evenodd;fill:#EFEFEF;" d="M76.75-5.45C76.183-6.05,75.6-6.3,75-6.2
			c0.833,0.733,1.317,1.2,1.45,1.4c0.433,0.767,0.367,1.65-0.2,2.65c0.367-0.067,0.667-0.367,0.9-0.9
			C77.517-3.983,77.383-4.783,76.75-5.45z M75.65-3.35c-0.4-1.033-1.2-1.533-2.4-1.5c-0.967,0.033-1.617,0.217-1.95,0.55
			c-0.7,0.466-1.333,0.883-1.9,1.25c-1.1,0.7-2,1.066-2.7,1.1c0.633,0.6,1.633,0.517,3-0.25c0.733-0.433,1.583-0.983,2.55-1.65
			l1.2-0.35C74.35-4.267,75.083-3.983,75.65-3.35z M74.45-11.7c0.733-0.133,1.1-0.216,1.1-0.25c-1.867-0.5-3.033,0.267-3.5,2.3
			c-0.066,2.167-0.117,3.283-0.15,3.35l0.75-0.3c-0.2-1.066-0.133-2.25,0.2-3.55C73.15-11.05,73.683-11.567,74.45-11.7z M76.85-7.95
			c0.733,0.233,1.367-0.316,1.9-1.65c0.533-1.433,0.183-2.683-1.05-3.75c0.4,0.567,0.617,1.283,0.65,2.15
			C78.35-9.967,77.85-8.883,76.85-7.95z M68.25-3c1-0.667,1.683-1.567,2.05-2.7c0.833-2.633,0.367-4.75-1.4-6.35
			c0.333,0.466,0.617,1.083,0.85,1.85c0.467,1.5,0.5,2.967,0.1,4.4c-0.2,0.566-0.783,1.3-1.75,2.2c-0.833,0.8-1.317,1.2-1.45,1.2
			C66.917-2.233,67.45-2.433,68.25-3z M63.6-8.35c0-0.566,0.25-1.15,0.75-1.75c0.667-0.833,1.267-1.217,1.8-1.15
			c0.3,0,0.617,0.133,0.95,0.4c-0.3-0.367-0.733-0.583-1.3-0.65c-0.566-0.067-1.083,0.033-1.55,0.3
			c-0.567,0.267-0.95,0.883-1.15,1.85c-0.233,1.033-0.033,1.667,0.6,1.9C63.6-7.983,63.567-8.283,63.6-8.35z M13-2.4
			c-0.133,0-0.617-0.4-1.45-1.2C10.583-4.5,10-5.233,9.8-5.8c-0.4-1.434-0.367-2.9,0.1-4.4c0.267-0.767,0.55-1.383,0.85-1.85
			C9.717-11.117,9.133-9.95,9-8.55C8.933-7.617,9.05-6.667,9.35-5.7c0.4,1.133,1.083,2.034,2.05,2.7
			C12.233-2.433,12.767-2.233,13-2.4z M10.25-3.05C9.217-3.817,8.583-4.233,8.35-4.3c-0.333-0.333-0.967-0.517-1.9-0.55
			C5.25-4.883,4.433-4.383,4-3.35C4.6-3.983,5.35-4.267,6.25-4.2c0.467,0.067,0.867,0.184,1.2,0.35c0.3,0.1,1.133,0.65,2.5,1.65
			c1.367,0.8,2.367,0.883,3,0.25C12.25-1.983,11.35-2.35,10.25-3.05z M12.55-10.85c0.167-0.066,0.5-0.2,1-0.4
			c0.534-0.067,1.133,0.317,1.8,1.15c0.467,0.6,0.717,1.184,0.75,1.75c-0.067,0.5-0.1,0.8-0.1,0.9c0.633-0.233,0.833-0.867,0.6-1.9
			c-0.2-0.967-0.6-1.583-1.2-1.85c-0.467-0.267-0.983-0.367-1.55-0.3C13.283-11.433,12.85-11.217,12.55-10.85z M2.5-3.05
			c0.267,0.533,0.583,0.833,0.95,0.9c-0.567-1-0.633-1.883-0.2-2.65c0.1-0.167,0.567-0.633,1.4-1.4C4.05-6.3,3.467-6.05,2.9-5.45
			C2.267-4.783,2.133-3.983,2.5-3.05z M2.8-7.95c-1-0.933-1.483-2.017-1.45-3.25c0-0.9,0.217-1.617,0.65-2.15
			c-1.267,1.067-1.633,2.317-1.1,3.75C1.433-8.267,2.067-7.717,2.8-7.95z M7.6-9.65c-0.467-2.033-1.633-2.8-3.5-2.3
			c0,0.034,0.383,0.117,1.15,0.25s1.283,0.65,1.55,1.55c0.333,1.3,0.417,2.483,0.25,3.55l0.7,0.3C7.75-6.367,7.7-7.483,7.6-9.65z"/>
		
			<linearGradient id="SVGID_19_" gradientUnits="userSpaceOnUse" x1="16203.748" y1="-7.5996" x2="16219.0479" y2="-7.5996" gradientTransform="matrix(6.535948e-005 1 -1 -0.001 0.4702 -16219.1045)">
			<stop  offset="0" style="stop-color:#4F4F4F"/>
			<stop  offset="1" style="stop-color:#CDCDCD"/>
		</linearGradient>
		<path style="fill-rule:evenodd;clip-rule:evenodd;fill:url(#SVGID_19_);" d="M16-1.15c0.533-0.434,0.683-0.95,0.45-1.55
			c-0.167-0.4-0.55-0.667-1.15-0.8c-0.9-0.167-1.383-0.267-1.45-0.3c-0.7-0.3-1.267-1-1.7-2.1c-0.367-0.833-0.483-1.65-0.35-2.45
			c0.167-0.933,0.684-1.483,1.55-1.65c0.733-0.133,1.267,0.1,1.6,0.7c0.267,0.5,0.283,0.983,0.05,1.45
			c-0.267,0.633-0.4,1.083-0.4,1.35c1.467,0.133,2.517-0.383,3.15-1.55c0.6-1.067,0.65-2.25,0.15-3.55
			c-0.633-1.667-1.983-2.5-4.05-2.5c-1.967-0.033-3.467,0.65-4.5,2.05C9.183-12.283,9.033-12.6,8.9-13
			c-0.167-0.4-0.333-0.717-0.5-0.95c-1.367-1.7-3.2-1.983-5.5-0.85c-2.333,1.167-3.25,2.85-2.75,5.05c0.2,0.833,0.633,1.5,1.3,2
			c0.667,0.467,1.4,0.667,2.2,0.6l0.3-0.05c-0.434-0.633-0.633-1.316-0.6-2.05c0.066-0.833,0.417-1.317,1.05-1.45
			c0.767-0.167,1.317,0.267,1.65,1.3c0.233,0.733,0.333,1.667,0.3,2.8C5.483-6.933,4.6-6.967,3.7-6.7C2.733-6.4,2.05-5.867,1.65-5.1
			c-0.433,0.833-0.367,1.717,0.2,2.65c0.467,0.867,1.283,1.333,2.45,1.4c0-0.167-0.017-0.434-0.05-0.8
			C4.217-2.183,4.3-2.433,4.5-2.6c1.167-0.6,2.75-0.15,4.75,1.35c1.367,1.133,3,1.483,4.9,1.05C15.05-0.533,15.667-0.85,16-1.15z
			 M7.6-9.65C7.7-7.483,7.75-6.367,7.75-6.3l-0.7-0.3c0.167-1.066,0.083-2.25-0.25-3.55c-0.267-0.9-0.783-1.417-1.55-1.55
			S4.1-11.917,4.1-11.95C5.967-12.45,7.133-11.683,7.6-9.65z M2.8-7.95C2.067-7.717,1.433-8.267,0.9-9.6
			c-0.533-1.433-0.167-2.683,1.1-3.75c-0.433,0.533-0.65,1.25-0.65,2.15C1.317-9.967,1.8-8.883,2.8-7.95z M2.5-3.05
			c-0.367-0.934-0.233-1.733,0.4-2.4C3.467-6.05,4.05-6.3,4.65-6.2c-0.833,0.767-1.3,1.233-1.4,1.4
			c-0.433,0.767-0.367,1.65,0.2,2.65C3.083-2.217,2.767-2.517,2.5-3.05z M12.55-10.85c0.3-0.367,0.733-0.583,1.3-0.65
			c0.566-0.067,1.083,0.033,1.55,0.3c0.6,0.267,1,0.883,1.2,1.85c0.233,1.033,0.033,1.667-0.6,1.9c0-0.1,0.033-0.4,0.1-0.9
			c-0.033-0.566-0.283-1.15-0.75-1.75c-0.667-0.833-1.267-1.217-1.8-1.15C13.05-11.05,12.717-10.917,12.55-10.85z M10.25-3.05
			c1.1,0.7,2,1.066,2.7,1.1c-0.633,0.633-1.633,0.55-3-0.25c-1.367-1-2.2-1.55-2.5-1.65C7.117-4.017,6.717-4.133,6.25-4.2
			C5.35-4.267,4.6-3.983,4-3.35c0.433-1.033,1.25-1.533,2.45-1.5c0.933,0.033,1.566,0.217,1.9,0.55
			C8.583-4.233,9.217-3.817,10.25-3.05z M13-2.4c-0.233,0.167-0.767-0.033-1.6-0.6c-0.967-0.667-1.65-1.567-2.05-2.7
			C9.05-6.667,8.933-7.617,9-8.55c0.133-1.4,0.717-2.567,1.75-3.5c-0.3,0.466-0.583,1.083-0.85,1.85C9.433-8.7,9.4-7.233,9.8-5.8
			c0.2,0.566,0.784,1.3,1.75,2.2C12.383-2.8,12.867-2.4,13-2.4z"/>
	</g>
</symbol>
<g id="Frame">
	
		<use xlink:href="#Frames_x2F_level_06"  width="171.55" height="171.5" y="-171.5" transform="matrix(1 0 0 -1 0 0)" style="overflow:visible;"/>
</g>
<g id="Base">
	
		<use xlink:href="#BG_x2F_bg_pink"  width="133.45" height="133.45" x="0" y="-133.45" transform="matrix(1 0 0 -1 19.2002 19.8501)" style="overflow:visible;"/>
</g>
<g id="Decorations">
	
		<use xlink:href="#Decorations_x2F_leaves_wide"  width="132.35" height="132.4" x="-177.3" y="-73.2" transform="matrix(1.0527 0 0 -1.0527 202.5 79.3999)" style="overflow:visible;"/>
</g>
<g id="Layer_11">
	<g>
		<g>
			
				<use xlink:href="#flash0.ai_x5F_0_x2F_Layer_8_x2F__x3C_Path_x3E_"  width="65.252" height="65.933" x="0.005" y="-65.958" transform="matrix(0.8939 0 0 -0.8939 54.8999 68.6499)" style="overflow:visible;opacity:0.5781;enable-background:new    ;"/>
			<g>
				
					<use xlink:href="#flash0.ai_x5F_0_x2F_Layer_8_x2F__x3C_Path_x3E__x5F_1"  width="6.008" height="11.75" x="-0.008" y="-11.75" transform="matrix(0.8939 0 0 -0.8939 54.25 95.3496)" style="overflow:visible;opacity:0.5391;enable-background:new    ;"/>
				
					<use xlink:href="#flash0.ai_x5F_0_x2F_Layer_8_x2F__x3C_Path_x3E__x5F_0"  width="68.112" height="69.354" x="-0.006" y="-69.303" transform="matrix(0.8939 0 0 -0.8939 54 67.3999)" style="overflow:visible;opacity:0.5391;enable-background:new    ;"/>
			</g>
		</g>
		<g>
			<path style="fill-rule:evenodd;clip-rule:evenodd;fill:#DAE0E6;" d="M82.892,70.098c0.748,0.095,2.199,0.598,4.353,1.508
				c3.274,1.355,6.609,3.475,10.004,6.355c4.345,3.695,6.048,6.774,5.108,9.238c-0.816,2.166-3.291,3.399-7.421,3.701
				c-1.888,0.131-3.482-0.024-4.784-0.465c-1.431-0.477-2.373-1.246-2.826-2.311c-0.39-0.895-0.336-1.695,0.163-2.4
				c0.233-0.351,0.515-0.618,0.842-0.805c-0.888-0.189-1.811-0.477-2.767-0.864c-1.956-0.828-3.178-1.786-3.667-2.873
				c-0.343-0.813-0.117-1.739,0.68-2.777c0.387-0.501,0.817-0.936,1.291-1.303c-0.409-0.071-1.176-0.573-2.302-1.503
				c-1.376-1.125-1.997-2.11-1.86-2.957C80.031,70.756,81.093,69.908,82.892,70.098z"/>
			<path style="fill-rule:evenodd;clip-rule:evenodd;fill:#9CACB8;" d="M102.215,83.947l0.408,1.376
				c0.104,1.133-0.19,2.179-0.882,3.135c-0.855,1.202-1.926,2.006-3.212,2.412l-1.727,0.252l2.09-2.556
				c0.492-0.583,0.371-1.728-0.36-3.436l0.586,0.202c0.502,0.083,1.008,0.028,1.517-0.163
				C101.318,84.944,101.846,84.536,102.215,83.947z"/>
			<path style="fill-rule:evenodd;clip-rule:evenodd;fill:#D3DFE8;" d="M81.917,71.612c1.209,0.125,2.497,0.569,3.862,1.331
				c3.741,2.022,6.802,4.059,9.181,6.109c4.042,3.542,5.593,6.773,4.652,9.693c-0.611,1.973-2.563,2.936-5.852,2.888
				c-1.554-0.025-2.915-0.304-4.081-0.831c-1.209-0.581-2.049-1.371-2.52-2.372c-0.384-0.865-0.412-1.618-0.084-2.261
				c0.182-0.309,0.396-0.534,0.642-0.673c-0.747-0.248-1.529-0.593-2.347-1.039c-1.698-0.909-2.789-1.892-3.271-2.951
				c-0.373-0.807-0.266-1.648,0.32-2.523c0.305-0.456,0.642-0.826,1.011-1.111c-0.684-0.229-1.361-0.581-2.031-1.056
				c-1.318-0.983-1.974-2.145-1.965-3.483C79.477,72.02,80.304,71.445,81.917,71.612z"/>
			
				<linearGradient id="SVGID_20_" gradientUnits="userSpaceOnUse" x1="-694.3174" y1="967.5078" x2="-638.6174" y2="967.5078" gradientTransform="matrix(-0.1735 -0.8767 0.8765 -0.1744 -873.4999 -332.7995)">
				<stop  offset="0" style="stop-color:#65808C"/>
				<stop  offset="0.1373" style="stop-color:#738C97;stop-opacity:0.9059"/>
				<stop  offset="0.4" style="stop-color:#99ABB3;stop-opacity:0.6627"/>
				<stop  offset="0.7569" style="stop-color:#D4DCDF;stop-opacity:0.2745"/>
				<stop  offset="0.9882" style="stop-color:#FFFFFF;stop-opacity:0"/>
			</linearGradient>
			<path style="fill-rule:evenodd;clip-rule:evenodd;fill:url(#SVGID_20_);" d="M81.917,71.612c1.209,0.125,2.497,0.569,3.862,1.331
				c3.741,2.022,6.802,4.059,9.181,6.109c4.042,3.542,5.593,6.773,4.652,9.693c-0.611,1.973-2.563,2.936-5.852,2.888
				c-1.554-0.025-2.915-0.304-4.081-0.831c-1.209-0.581-2.049-1.371-2.52-2.372c-0.384-0.865-0.412-1.618-0.084-2.261
				c0.182-0.309,0.396-0.534,0.642-0.673c-0.747-0.248-1.529-0.593-2.347-1.039c-1.698-0.909-2.789-1.892-3.271-2.951
				c-0.373-0.807-0.266-1.648,0.32-2.523c0.305-0.456,0.642-0.826,1.011-1.111c-0.684-0.229-1.361-0.581-2.031-1.056
				c-1.318-0.983-1.974-2.145-1.965-3.483C79.477,72.02,80.304,71.445,81.917,71.612z"/>
			<path style="fill-rule:evenodd;clip-rule:evenodd;fill:#F2F9FF;" d="M79.893,71.512l3.223,0.409
				c2.739,0.643,5.538,1.971,8.396,3.986c4.166,2.941,6.755,5.359,7.768,7.254c0.523,0.958,0.622,1.607,0.294,1.946
				c-0.087-0.591-0.471-1.38-1.152-2.369c-1.356-1.948-3.491-3.909-6.402-5.884c-2.695-1.804-5.529-3.233-8.5-4.284L79.893,71.512z"
				/>
			<path style="fill-rule:evenodd;clip-rule:evenodd;fill:#9CACB8;" d="M79.275,73.229l0.436,1.052
				c0.56,0.831,1.487,1.528,2.783,2.09c2.201,0.993,3.852,1.819,4.955,2.482c-0.904-0.125-1.886-0.325-2.943-0.603
				c-2.091-0.588-3.453-1.335-4.088-2.242c-0.6-0.883-0.972-1.614-1.117-2.193L79.275,73.229z"/>
			<path style="fill-rule:evenodd;clip-rule:evenodd;fill:#91A0AB;" d="M82.099,81.506l1.767,1.107
				c1.43,0.78,2.82,1.355,4.168,1.726c2.149,0.577,3.104,0.95,2.864,1.119c-0.433,0.116-1,0.167-1.701,0.154
				c-1.35-0.067-2.634-0.42-3.854-1.059s-2.118-1.342-2.695-2.109L82.099,81.506z"/>
			<path style="fill-rule:evenodd;clip-rule:evenodd;fill:#91A0AB;" d="M87.456,89.009l1.637,0.907
				c1.308,0.621,2.504,0.991,3.591,1.111c1.758,0.138,3.762-0.017,6.013-0.462c-0.526,0.256-1.222,0.5-2.087,0.731
				c-1.701,0.459-3.36,0.59-4.979,0.394s-2.797-0.706-3.538-1.531L87.456,89.009z"/>
			<path style="fill-rule:evenodd;clip-rule:evenodd;fill:#91A0AB;" d="M87.672,81.815c-0.355-0.568-0.34-1.102,0.046-1.604
				c0.218-0.286,0.504-0.525,0.861-0.718l4.563,0.737c-0.701-0.013-1.39,0.032-2.068,0.135c-1.385,0.214-2.036,0.601-1.956,1.163
				c0.051,0.566,0.646,1.117,1.784,1.651c0.602,0.275,1.174,0.481,1.717,0.617c-0.188,0.128-0.381,0.303-0.579,0.525
				c-0.428,0.448-0.718,0.901-0.87,1.356c-0.124,0.45,0.906,0.899,3.09,1.346c1.104,0.207,2.214,0.367,3.329,0.479
				c-1.929,0.687-3.151,1.262-3.666,1.729c-0.305,0.304,0.483,0.527,2.365,0.671c0.958,0.084,1.938,0.132,2.943,0.146
				c-0.672,0.285-1.438,0.481-2.297,0.591c-1.689,0.213-2.959-0.067-3.811-0.84c-0.601-0.579-0.652-1.071-0.155-1.473
				c0.235-0.198,0.539-0.35,0.913-0.454c-1.571,0.038-2.821-0.367-3.749-1.217c-0.595-0.55-0.619-1.137-0.074-1.762
				c0.239-0.321,0.553-0.58,0.938-0.777C89.352,83.472,88.243,82.704,87.672,81.815z"/>
			<path style="fill-rule:evenodd;clip-rule:evenodd;fill:#91A0AB;" d="M96.051,80.885c-0.151,0.152-0.313,0.335-0.482,0.551
				c-0.34,0.432-0.533,0.834-0.581,1.208c-0.041,0.403,0.469,0.833,1.531,1.291c0.531,0.229,1.054,0.414,1.567,0.555
				c-0.234,0.198-0.471,0.458-0.712,0.778c-0.485,0.613-0.732,1.208-0.738,1.786c-0.008,0.578,0.477,1.029,1.451,1.353
				c0.52,0.171,1.027,0.282,1.524,0.337c-0.544,0.168-1.128,0.208-1.753,0.119c-1.187-0.161-1.862-0.816-2.029-1.968
				c-0.099-0.649-0.01-1.273,0.267-1.875c0.152-0.303,0.305-0.531,0.457-0.682c-0.526-0.048-1.049-0.157-1.568-0.328
				c-1.016-0.376-1.525-0.882-1.53-1.519c-0.005-0.637,0.422-1.086,1.281-1.347C95.192,80.995,95.631,80.908,96.051,80.885z"/>
			<path style="fill-rule:evenodd;clip-rule:evenodd;fill:#9CACB8;" d="M79.709,75.42l-0.434-2.191l0.909,1.141
				c0.775,0.848,1.545,1.516,2.31,2.001c0.945,0.633,2.08,1.229,3.405,1.786c1.419,0.57,2.759,0.973,4.021,1.208
				c1.74,0.354,3.828,0.927,6.263,1.721c-1.081-0.241-1.927-0.377-2.541-0.408c-0.888-0.037-1.989-0.152-3.303-0.348
				c-1.379-0.214-3.046-0.582-5.002-1.106c-1.635-0.436-2.633-0.724-2.996-0.864C81.133,77.932,80.255,76.952,79.709,75.42z"/>
			<path style="fill-rule:evenodd;clip-rule:evenodd;fill:#DAE0E6;" d="M90.916,80.49c-0.198,0.07-0.409,0.157-0.631,0.261
				c-0.404,0.262-0.589,0.557-0.554,0.884c0.052,0.566,0.801,1.208,2.248,1.923c-1.78-0.559-2.734-1.235-2.861-2.029
				c-0.068-0.503,0.2-0.83,0.809-0.98C90.247,80.485,90.578,80.465,90.916,80.49z"/>
			<path style="fill-rule:evenodd;clip-rule:evenodd;fill:#DAE0E6;" d="M92.181,84.111c-0.077,0.076-0.144,0.196-0.203,0.359
				c-0.116,0.327-0.153,0.683-0.106,1.069c0.052,0.415,0.802,0.828,2.249,1.24c0.736,0.189,1.466,0.348,2.19,0.478
				c-3.371-0.305-5.172-0.813-5.404-1.527c-0.151-0.456,0.013-0.853,0.493-1.191C91.634,84.341,91.894,84.198,92.181,84.111z"/>
			<path style="fill-rule:evenodd;clip-rule:evenodd;fill:#DAE0E6;" d="M93.923,89.232c-0.058-0.293,0.319-0.61,1.133-0.952
				c0.391-0.169,0.788-0.309,1.192-0.419c-0.252,0.11-0.497,0.25-0.737,0.419c-0.445,0.361-0.656,0.677-0.633,0.945
				s0.568,0.495,1.638,0.678c0.495,0.088,0.971,0.146,1.423,0.174c-0.601-0.023-1.209-0.069-1.826-0.139
				C94.745,89.783,94.016,89.548,93.923,89.232z"/>
			<path style="fill-rule:evenodd;clip-rule:evenodd;fill:#DAE0E6;" d="M96.183,81.087c-0.077,0.076-0.146,0.181-0.211,0.315
				c-0.129,0.269-0.194,0.555-0.195,0.859c0.006,0.333,0.475,0.787,1.408,1.361c0.485,0.299,0.961,0.554,1.428,0.766
				c-0.246,0.292-0.504,0.601-0.773,0.927c-0.533,0.683-0.803,1.161-0.809,1.436c-0.007,0.274,0.299,0.67,0.918,1.185
				c0.32,0.24,0.636,0.451,0.944,0.633c-1.267-0.266-2.02-0.77-2.257-1.512c-0.158-0.485,0.033-1.054,0.572-1.708
				c0.27-0.327,0.563-0.613,0.878-0.857c-1.676-0.641-2.709-1.255-3.099-1.846c-0.221-0.352-0.081-0.713,0.423-1.086
				C95.645,81.361,95.901,81.203,96.183,81.087z"/>
			<path style="fill-rule:evenodd;clip-rule:evenodd;fill:#DAE0E6;" d="M82.234,79.43l0.393,1.062
				c0.366,0.777,0.792,1.315,1.276,1.615c0.741,0.521,1.249,0.937,1.522,1.248c-2.05-0.688-3.225-1.412-3.527-2.172
				c-0.157-0.485-0.153-0.926,0.011-1.323C81.998,79.689,82.105,79.546,82.234,79.43z"/>
			<path style="fill-rule:evenodd;clip-rule:evenodd;fill:#DAE0E6;" d="M80.023,72.169l-0.177,0.946
				c0.016,0.695,0.359,1.28,1.03,1.754c1.114,0.722,2.874,1.785,5.278,3.192c-0.999-0.288-2.015-0.665-3.048-1.128
				c-2.072-0.957-3.215-1.899-3.43-2.828c-0.174-0.725-0.172-1.257,0.003-1.595C79.791,72.306,79.906,72.192,80.023,72.169z"/>
			<path style="fill-rule:evenodd;clip-rule:evenodd;fill:#DAE0E6;" d="M87.092,87.169l0.532,0.851
				c0.426,0.614,0.772,1.062,1.041,1.343c0.46,0.485,1.259,0.92,2.398,1.302c-1.869-0.39-3.072-0.94-3.607-1.655
				c-0.332-0.45-0.495-0.888-0.488-1.314L87.092,87.169z"/>
		</g>
		
			<use xlink:href="#winderedge"  width="4.537" height="8.127" x="0.015" y="-8.126" transform="matrix(1.5836 -0.3134 -0.3134 -1.5836 57.9502 98.5)" style="overflow:visible;"/>
		
			<use xlink:href="#winderfacehighlight"  width="4.573" height="8.174" x="0.016" y="-8.173" transform="matrix(1.5836 -0.3134 -0.3134 -1.5836 57.2002 98.9502)" style="overflow:visible;"/>
		
			<use xlink:href="#winderface1a"  width="4.573" height="8.174" x="0.015" y="-8.172" transform="matrix(1.5836 -0.3134 -0.3134 -1.5836 56.9502 99.2002)" style="overflow:visible;"/>
		<g>
			
				<linearGradient id="SVGID_21_" gradientUnits="userSpaceOnUse" x1="388.7432" y1="-3134.7427" x2="390.0625" y2="-3134.7427" gradientTransform="matrix(0.0388 1.6138 -1.6138 0.0388 -5003.8491 -401.9496)">
				<stop  offset="0" style="stop-color:#8F8F8F"/>
				<stop  offset="0.2275" style="stop-color:#E8E8E8"/>
				<stop  offset="1" style="stop-color:#696969"/>
			</linearGradient>
			<path style="fill-rule:evenodd;clip-rule:evenodd;fill:url(#SVGID_21_);" d="M74.977,105.48l-8.801,0.426
				c-0.466,0.146-0.755-0.071-0.87-0.651c-0.073-0.369,0.006-0.66,0.239-0.87c0.084-0.127,0.179-0.201,0.286-0.222l8.801-0.426
				L74.977,105.48z"/>
		</g>
		<g>
			
				<linearGradient id="SVGID_22_" gradientUnits="userSpaceOnUse" x1="3671.4814" y1="1088.623" x2="3673.2332" y2="1088.623" gradientTransform="matrix(1.5687 -0.3809 0.3809 1.5687 -6096.0996 -189.3494)">
				<stop  offset="0" style="stop-color:#574C38"/>
				<stop  offset="1" style="stop-color:#3A3225"/>
			</linearGradient>
			<path style="fill-rule:evenodd;clip-rule:evenodd;fill:url(#SVGID_22_);" d="M75.637,116.418l7.472-0.902
				c-0.219,4.98-0.884,7.442-1.993,7.389C79.788,122.838,77.96,120.677,75.637,116.418z"/>
			
				<linearGradient id="SVGID_23_" gradientUnits="userSpaceOnUse" x1="3680.7295" y1="1090.0215" x2="3682.4812" y2="1090.0215" gradientTransform="matrix(1.5687 -0.3809 0.3809 1.5687 -6096.0996 -189.3494)">
				<stop  offset="0" style="stop-color:#574C38"/>
				<stop  offset="1" style="stop-color:#3A3225"/>
			</linearGradient>
			<path style="fill-rule:evenodd;clip-rule:evenodd;fill:url(#SVGID_23_);" d="M98.23,114.169
				c-0.164,2.501-0.314,4.095-0.454,4.779c-0.309,1.761-0.822,2.631-1.541,2.609c-1.382-0.056-3.233-2.213-5.558-6.471
				L98.23,114.169z"/>
			
				<linearGradient id="SVGID_24_" gradientUnits="userSpaceOnUse" x1="3688.5859" y1="1086.5039" x2="3690.3376" y2="1086.5039" gradientTransform="matrix(1.5687 -0.3809 0.3809 1.5687 -6096.0996 -189.3494)">
				<stop  offset="0" style="stop-color:#574C38"/>
				<stop  offset="1" style="stop-color:#3A3225"/>
			</linearGradient>
			<path style="fill-rule:evenodd;clip-rule:evenodd;fill:url(#SVGID_24_);" d="M101.664,106.577l7.473-0.903
				c-0.22,4.98-0.885,7.443-1.993,7.389C105.814,112.997,103.987,110.834,101.664,106.577z"/>
			
				<linearGradient id="SVGID_25_" gradientUnits="userSpaceOnUse" x1="2009.6816" y1="-3262.1289" x2="2028.8302" y2="-3262.1289" gradientTransform="matrix(0.7842 1.411 -1.411 0.7842 -6096.1001 -189.3506)">
				<stop  offset="0" style="stop-color:#6A5C43"/>
				<stop  offset="1" style="stop-color:#574C38"/>
			</linearGradient>
			<path style="fill-rule:evenodd;clip-rule:evenodd;fill:url(#SVGID_25_);" d="M91.093,81.436c5.099-0.295,8.228-0.56,9.388-0.789
				c1.743-0.345,3.13-0.263,4.163,0.246c0.675,0.36,1.27,1.01,1.786,1.951c0.293,0.654,0.995,3.642,2.103,8.962
				c1.015,4.848,1.625,7.934,1.834,9.265c0.114,0.58,0.267,1.346,0.454,2.297c0.104,0.802,0.007,1.561-0.29,2.278
				c-0.286,0.771-1.477,2.24-3.57,4.409c-1.808,1.949-3.141,3.254-3.997,3.919c-2.398,2.009-4.26,3.146-5.579,3.406
				c-3.946,0.288-6.95,0.635-9.008,1.042c-1.225,0.188-3.573,0.38-7.046,0.572c-3.419,0.184-5.456,0.284-6.111,0.305
				c-1.138,0.062-1.972-0.268-2.498-0.986c-0.791-0.94-1.531-3.015-2.221-6.226c-1.224-5.079-2.071-8.806-2.541-11.181
				c-0.784-4.233-0.7-6.855,0.252-7.866c1.322-1.359,3.468-3.265,6.438-5.718c3.573-3.01,5.935-4.657,7.086-4.939
				C83.204,82.036,86.323,81.721,91.093,81.436z"/>
			
				<linearGradient id="SVGID_26_" gradientUnits="userSpaceOnUse" x1="2186.3262" y1="-3155.8643" x2="2203.324" y2="-3155.8643" gradientTransform="matrix(0.8587 1.3669 -1.3669 0.8587 -6096.1006 -189.3507)">
				<stop  offset="0" style="stop-color:#574C38"/>
				<stop  offset="1" style="stop-color:#3A3225"/>
			</linearGradient>
			<path style="fill-rule:evenodd;clip-rule:evenodd;fill:url(#SVGID_26_);" d="M106.43,82.844l1.051,4.07
				c1.57,6.82,2.531,11.539,2.886,14.157c0.114,0.58,0.267,1.346,0.454,2.297c0.104,0.802,0.007,1.561-0.29,2.278
				c-0.286,0.771-1.477,2.24-3.57,4.409c-1.808,1.949-3.141,3.254-3.997,3.919c-0.37,0.346-1.289,0.967-2.758,1.861
				c-1.469,0.894-2.409,1.409-2.821,1.545c0.287-1.043,0.301-2.226,0.039-3.545l-4.545-22.139l0.11-0.269
				c0.202-0.37,1.47-1.443,3.806-3.222c2.673-2.011,4.354-3.358,5.042-4.042c0.592-0.612,1.623-1.639,3.093-3.081
				C105.508,81.517,106.008,82.104,106.43,82.844z"/>
			<path style="fill-rule:evenodd;clip-rule:evenodd;fill:#D7CEBE;" d="M101.794,105.153c-0.401,0.464-0.504,0.923-0.305,1.377
				c0.168,0.569,0.743,0.84,1.725,0.811c1.318,0.013,2.259-0.092,2.818-0.312c0.803-0.378,1.385-1.179,1.746-2.402
				c0.638-2.32,0.756-3.523,0.355-3.607c-0.231-0.065-0.512,0.183-0.84,0.741l-0.493,0.839c-0.325-0.813-0.498-1.411-0.519-1.791
				l-0.651,1.281c0.482,0.782,0.613,1.442,0.392,1.979c-0.159,0.307-0.835,0.495-2.028,0.565
				C102.707,104.78,101.973,104.953,101.794,105.153z M107.424,99.514c0.128,0.084,0.501,0.038,1.125-0.141
				c0.464-0.146,0.733,0.102,0.806,0.745c0.05,1.088-0.264,2.549-0.943,4.383c-0.785,2.131-1.62,3.311-2.508,3.542
				c-1.214,0.24-2.274,0.284-3.182,0.135c-1.182-0.15-1.873-0.589-2.071-1.317c-0.168-0.569,0.098-1.309,0.796-2.215
				c0.688-0.959,1.038-1.549,1.049-1.771c-0.009-1.148-0.594-1.06-1.759,0.267l-1.336,3.227c-0.497,1.086-1.078,1.063-1.741-0.067
				c-0.841-1.479-1.264-3.205-1.271-5.179c0.025-2.089,0.514-3.776,1.467-5.062c0.834-1.044,1.986-1.6,3.453-1.672
				c0.717,0.023,1.34,0.119,1.867,0.29l0.239-1.282c0.352-1.001,0.854-1.787,1.509-2.355c0.91-0.674,1.754-0.704,2.533-0.09
				c0.717,0.571,1.206,1.517,1.467,2.835c0.554,2.798,0.197,4.187-1.069,4.162c-0.548-0.001-0.839,0.193-0.871,0.584
				C107.004,98.911,107.151,99.238,107.424,99.514z"/>
			<path style="fill-rule:evenodd;clip-rule:evenodd;fill:#16130F;" d="M105.617,100.776c0.285-0.222,0.448-0.227,0.49-0.015
				l0.47,2.786l0.318-0.886c0.139-0.411,0.333-0.668,0.587-0.774c0.212-0.042,0.301,0.133,0.27,0.523
				c0.03,0.433-0.061,0.944-0.273,1.534c-0.286,0.77-0.63,1.249-1.031,1.438c-0.443,0.253-1.23,0.436-2.359,0.55
				c-1.078,0.103-1.768,0.075-2.074-0.084c-0.306-0.158-0.253-0.305,0.16-0.443c0.347-0.178,0.871-0.309,1.567-0.392
				c1.445-0.177,2.211-0.466,2.297-0.866c0.106-0.294-0.177-1.309-0.849-3.041L105.617,100.776z"/>
			<path style="fill-rule:evenodd;clip-rule:evenodd;fill:#8E7A58;" d="M102.851,83.468c-0.698,0.633-2.521,2.09-5.471,4.375
				c-2.726,2.021-4.189,3.215-4.392,3.585c-1.499,0.188-6.211,0.626-14.138,1.316c-6.037,0.537-9.758,0.999-11.163,1.387
				c0.055-0.284,0.229-0.648,0.525-1.091c1.322-1.359,3.468-3.265,6.438-5.718c3.573-3.01,5.935-4.657,7.086-4.939
				c3.505-0.859,9.753-1.437,18.744-1.736c2.28-0.122,3.762,0.023,4.448,0.437C104.462,81.779,103.771,82.574,102.851,83.468z"/>
			<path style="fill-rule:evenodd;clip-rule:evenodd;fill:#B89D72;" d="M104.929,81.083c0.02,0.653-1.879,2.565-5.695,5.735
				c-3.804,3.221-5.708,5.105-5.709,5.655c0.009,0.601,1.31,7.173,3.902,19.716c0.48,2.701,0.466,4.433-0.043,5.19l0.051-0.996
				c0.074-0.454-0.5-3.631-1.723-9.533c-1.191-5.743-2.013-9.475-2.463-11.197c-0.451-1.72-0.755-2.703-0.912-2.945
				c-0.169-0.296-0.5-0.45-0.996-0.461c-0.665-0.032-5.25,0.354-13.758,1.159l-9.895,0.313l12.208-1.099
				c2.268-0.176,4.876-0.444,7.821-0.809c2.944-0.362,4.645-0.645,5.099-0.844c0.465-0.146,2.329-1.531,5.595-4.152
				C100.44,85.152,102.612,83.242,104.929,81.083z"/>
			
				<linearGradient id="SVGID_27_" gradientUnits="userSpaceOnUse" x1="2205.7314" y1="-3149.7344" x2="2207.7417" y2="-3149.7344" gradientTransform="matrix(0.8634 1.364 -1.364 0.8634 -6096.0996 -189.3495)">
				<stop  offset="0" style="stop-color:#5F4E29"/>
				<stop  offset="0.8588" style="stop-color:#271D09"/>
			</linearGradient>
			<path style="fill-rule:evenodd;clip-rule:evenodd;fill:url(#SVGID_27_);" d="M105.558,98.813
				c0.813-0.325,1.245,0.056,1.297,1.142c0.05,1.087-0.194,1.795-0.733,2.12c-0.433,0.306-0.987,0.415-1.662,0.328
				c-0.676-0.084-1.056-0.339-1.139-0.761c-0.104-0.529,0.065-1.056,0.51-1.583C104.221,99.544,104.797,99.128,105.558,98.813z"/>
			
				<linearGradient id="SVGID_28_" gradientUnits="userSpaceOnUse" x1="695.5557" y1="-3778.3179" x2="704.3464" y2="-3778.3179" gradientTransform="matrix(0.2183 1.5994 -1.5994 0.2183 -6096.1011 -189.35)">
				<stop  offset="0" style="stop-color:#41382A"/>
				<stop  offset="1" style="stop-color:#29241A"/>
			</linearGradient>
			<path style="fill-rule:evenodd;clip-rule:evenodd;fill:url(#SVGID_28_);" d="M99.056,97.139c1.192-0.072,2.046,0.499,2.56,1.714
				c0.537,1.046,0.53,1.843-0.02,2.391c-1.756,1.663-2.629,3.209-2.62,4.633c-0.049,2.807-0.178,3.957-0.388,3.449
				c-0.841-1.479-1.471-3.685-1.886-6.62c-0.208-1.878,0-3.318,0.625-4.32C97.825,97.573,98.4,97.158,99.056,97.139z"/>
			
				<linearGradient id="SVGID_29_" gradientUnits="userSpaceOnUse" x1="730.7813" y1="-3361.2705" x2="736.3791" y2="-3361.2705" gradientTransform="matrix(0.7196 1.445 -1.6887 0.2303 -6096.0991 -189.3489)">
				<stop  offset="0" style="stop-color:#41382A"/>
				<stop  offset="1" style="stop-color:#29241A"/>
			</linearGradient>
			<path style="fill-rule:evenodd;clip-rule:evenodd;fill:url(#SVGID_29_);" d="M106.348,91.581c0.94-0.24,1.719,0.785,2.338,3.074
				c0.282,1.151,0.485,2.317,0.608,3.5c-0.6-0.813-1.205-1.241-1.816-1.286c-0.718-0.021-1.245-0.192-1.582-0.509
				c-0.327-0.265-0.563-0.767-0.71-1.506C104.82,93.009,105.208,91.916,106.348,91.581z"/>
			<g>
				<path style="fill-rule:evenodd;clip-rule:evenodd;fill:#16130F;" d="M100.585,99.88c0.115,0.581,0.077,1.082-0.114,1.504
					c-0.231,0.484-0.533,0.763-0.903,0.836c-0.369,0.073-0.754-0.069-1.154-0.429c-0.338-0.317-0.563-0.766-0.679-1.348
					c-0.104-0.527-0.066-1.028,0.114-1.503c0.244-0.432,0.551-0.686,0.92-0.759c0.422-0.083,0.803,0.034,1.139,0.352
					C100.255,98.903,100.48,99.353,100.585,99.88z"/>
			</g>
			<g>
				<path style="fill-rule:evenodd;clip-rule:evenodd;fill:#16130F;" d="M107.957,94.307c0.251,1.267-0.02,1.979-0.812,2.136
					c-0.739,0.146-1.234-0.415-1.485-1.682c-0.229-1.161,0.025-1.814,0.765-1.961C107.217,92.644,107.728,93.145,107.957,94.307z"/>
			</g>
			<path style="fill-rule:evenodd;clip-rule:evenodd;fill:#312C21;" d="M106.332,83.191c0.687,0.139,1.101,1.127,1.246,2.962
				l-1.937,2.276c-0.813,0.875-2.881,2.627-6.198,5.259L94.67,97.43l-2.313,0.375c-1.17,0.178-9.346,1-24.523,2.468l-0.174-0.459
				c-0.377-1.077-0.533-2.006-0.468-2.787l0.525-1.502l0.79,0.255c0.792,0.116,1.863,0.125,3.213,0.021l21.992-1.967l2.98-1.987
				c2.176-1.474,3.698-2.652,4.565-3.538L106.332,83.191z"/>
			<path style="fill-rule:evenodd;clip-rule:evenodd;fill:#A7524A;" d="M106.176,82.399c0.687,0.139,1.101,1.127,1.245,2.963
				l-1.936,2.276c-0.813,0.875-2.881,2.627-6.199,5.259l-4.773,3.741l-2.312,0.376c-1.171,0.177-9.347,0.999-24.523,2.467
				l-0.175-0.459c-0.377-1.077-0.533-2.006-0.468-2.787l0.525-1.502l0.79,0.255c0.792,0.117,1.863,0.125,3.213,0.021l21.992-1.966
				l2.979-1.988c2.177-1.474,3.698-2.652,4.566-3.537L106.176,82.399z"/>
			<g>
				<path style="fill-rule:evenodd;clip-rule:evenodd;fill:#CF7E77;" d="M93.556,93.043l0.063-0.095l0.657,3.736l-1.108,0.22
					l-0.063-0.315c-0.053-0.54-0.246-1.379-0.581-2.52l-0.347-0.918L93.556,93.043z"/>
			</g>
			<path style="fill-rule:evenodd;clip-rule:evenodd;fill:#91463E;" d="M101.102,87.518l5.074-5.119
				c0.687,0.139,1.101,1.127,1.245,2.963l-1.936,2.276c-0.813,0.875-2.881,2.627-6.199,5.259l-4.773,3.741l-0.236,0.047
				l-0.657-3.736c0.697-0.358,1.791-1.068,3.28-2.131C98.886,89.492,100.286,88.392,101.102,87.518z"/>
			<path style="fill-rule:evenodd;clip-rule:evenodd;fill:#DBC6C5;" d="M101.036,88.025c0.571-0.443,1.173-0.589,1.806-0.441
				c0.591,0.213,0.769,0.562,0.537,1.046c-0.224,0.538-0.737,1.135-1.54,1.786c-0.897,0.727-1.511,0.957-1.838,0.693
				c-0.327-0.265-0.319-0.786,0.02-1.567C100.317,88.824,100.655,88.319,101.036,88.025z"/>
			<path style="fill-rule:evenodd;clip-rule:evenodd;fill:#7E6C4E;" d="M92.59,84.842l4.119-2.049
				c1.511-0.683,2.698-0.918,3.563-0.705c0.749,0.181,0.875,0.54,0.379,1.077c-0.414,0.41-1.349,1.089-2.807,2.036
				c-1.405,0.937-2.583,1.636-3.534,2.099c-0.845,0.44-1.764,0.649-2.756,0.628c-0.991-0.024-1.402-0.161-1.234-0.415L92.59,84.842z
				"/>
			<path style="fill-rule:evenodd;clip-rule:evenodd;fill:#C9AC7C;" d="M92.393,80.931l0.825-1.232
				c0.635-0.949,1.217-1.613,1.744-1.991l1.301-0.916l2.359-0.138c-0.023,0.718-1.13,2.883-3.321,6.499
				c-1.398,2.086-2.408,3.356-3.032,3.809l-2.342,0.216c-2.88-0.966-4.583-1.396-5.111-1.292l-0.808,0.076l1-0.773
				c0.718-0.526,1.367-0.846,1.948-0.961l1.933-0.219c-0.073-0.644-0.114-1.403-0.124-2.28c0.004-1.646,0.196-2.891,0.579-3.734
				l0.922-1.993l2.343-0.216C93.356,75.969,93.284,77.684,92.393,80.931z"/>
			<path style="fill-rule:evenodd;clip-rule:evenodd;fill:#7E6C4E;" d="M89.643,78.266l0.922-1.992l2.265-0.201
				c0.739,0.127,0.693,1.836-0.137,5.128l0.825-1.234c0.583-0.938,1.138-1.596,1.666-1.975l1.221-0.899l2.265-0.202
				c-0.014,0.771-1.056,2.979-3.132,6.626c-1.345,2.076-2.297,3.362-2.857,3.856l-2.359,0.138c-2.773-0.987-4.429-1.453-4.967-1.403
				l-0.792,0.157l0.999-0.773c0.708-0.579,1.332-0.895,1.87-0.945l1.836-0.281c-0.073-0.645-0.112-1.405-0.122-2.28
				C89.148,80.339,89.314,79.099,89.643,78.266z"/>
			<path style="fill-rule:evenodd;clip-rule:evenodd;fill:#C9AC7C;" d="M98.56,76.337l-0.87,6.836l-5.246,4.247
				c-2.911-1.124-4.631-1.633-5.158-1.529l-0.807,0.078l0.998-0.775c0.709-0.579,1.357-0.898,1.949-0.961l1.836-0.281
				c-0.084-0.697-0.134-1.51-0.153-2.438c-0.027-1.804,0.148-3.129,0.53-3.972l0.907-2.073l0.361,1.411
				c0.261,1.044,0.513,1.762,0.756,2.153l1.152,1.665l0.809-1.312c0.625-1.001,1.201-1.692,1.729-2.07L98.56,76.337z"/>
			
				<linearGradient id="SVGID_30_" gradientUnits="userSpaceOnUse" x1="1672.9053" y1="-3452.1724" x2="1680.8342" y2="-3452.1724" gradientTransform="matrix(0.6409 1.4816 -1.4816 0.6409 -6096.1006 -189.35)">
				<stop  offset="0" style="stop-color:#6A5C43"/>
				<stop  offset="1" style="stop-color:#574C38"/>
			</linearGradient>
			<path style="fill-rule:evenodd;clip-rule:evenodd;fill:url(#SVGID_30_);" d="M97.948,80.736l-0.146,2.581l-5.122,4.057
				c-2.836-1.029-4.519-1.492-5.046-1.387l-0.729,0.062l0.919-0.757c0.719-0.526,1.368-0.848,1.95-0.963l1.757-0.266
				c-0.073-0.643-0.114-1.403-0.122-2.279c0.004-1.646,0.196-2.891,0.577-3.734l0.843-1.977l0.346,1.33
				c0.251,0.994,0.498,1.684,0.739,2.075L94.957,81l0.824-1.233c0.582-0.938,1.139-1.596,1.666-1.976l1.222-0.9L97.948,80.736z"/>
			<path style="fill-rule:evenodd;clip-rule:evenodd;fill:#9C8C77;" d="M98.656,98.863c0.696-0.084,0.98,0.107,0.854,0.571
				c-0.116,0.517-0.392,0.79-0.824,0.82c-0.327,0.011-0.481-0.206-0.458-0.649C98.238,99.109,98.381,98.862,98.656,98.863z"/>
			<path style="fill-rule:evenodd;clip-rule:evenodd;fill:#9C8C77;" d="M106.218,93.416c0.537-0.052,0.77,0.15,0.696,0.604
				c-0.065,0.506-0.266,0.738-0.604,0.694c-0.223-0.011-0.349-0.231-0.379-0.664C105.954,93.606,106.049,93.396,106.218,93.416z"/>
		</g>
		<path style="fill-rule:evenodd;clip-rule:evenodd;" d="M70.538,105.273L81.227,94.82c0.835,0.229,1.6,0.793,2.293,1.688
			c1.137,1.445,1.764,3.159,1.883,5.14c0.128,2.951-1.485,4.927-4.842,5.925c-3.304,0.957-5.965,0.861-7.985-0.288
			C71.584,106.723,70.905,106.052,70.538,105.273z"/>
		<path style="fill-rule:evenodd;clip-rule:evenodd;fill:#DAE0E6;" d="M64.461,85.232c0.748,0.095,2.199,0.598,4.353,1.508
			c3.274,1.355,6.609,3.475,10.003,6.356c4.346,3.694,6.048,6.774,5.109,9.237c-0.817,2.167-3.291,3.4-7.421,3.701
			c-1.888,0.131-3.482-0.024-4.784-0.465c-1.431-0.477-2.373-1.246-2.826-2.311c-0.39-0.895-0.335-1.695,0.163-2.4
			c0.234-0.351,0.515-0.618,0.842-0.805c-0.888-0.189-1.811-0.478-2.767-0.864c-1.956-0.828-3.178-1.786-3.667-2.873
			c-0.343-0.813-0.116-1.739,0.68-2.777c0.388-0.501,0.818-0.936,1.292-1.303c-0.409-0.071-1.176-0.572-2.302-1.504
			c-1.376-1.124-1.997-2.109-1.86-2.956C61.601,85.89,62.662,85.042,64.461,85.232z"/>
		<path style="fill-rule:evenodd;clip-rule:evenodd;fill:#9CACB8;" d="M82.205,100.306c0.684-0.227,1.21-0.635,1.58-1.224
			l0.409,1.377c0.104,1.133-0.19,2.179-0.882,3.135c-0.855,1.203-1.926,2.006-3.212,2.413l-1.727,0.251l2.09-2.556
			c0.492-0.583,0.372-1.728-0.36-3.436l0.586,0.202C81.19,100.552,81.695,100.497,82.205,100.306z"/>
		<path style="fill-rule:evenodd;clip-rule:evenodd;fill:#D3DFE8;" d="M63.485,86.746c1.21,0.125,2.497,0.569,3.862,1.331
			c3.741,2.022,6.802,4.06,9.181,6.109c4.042,3.542,5.592,6.773,4.651,9.693c-0.611,1.974-2.562,2.936-5.851,2.889
			c-1.554-0.026-2.915-0.304-4.082-0.832c-1.208-0.581-2.048-1.371-2.52-2.372c-0.384-0.865-0.412-1.618-0.083-2.261
			c0.182-0.309,0.396-0.534,0.642-0.673c-0.748-0.247-1.529-0.594-2.347-1.039c-1.698-0.909-2.788-1.893-3.271-2.951
			c-0.372-0.807-0.266-1.648,0.32-2.523c0.305-0.455,0.642-0.825,1.011-1.11c-0.683-0.229-1.36-0.581-2.031-1.057
			c-1.318-0.983-1.973-2.145-1.965-3.482C61.045,87.153,61.873,86.58,63.485,86.746z"/>
		
			<linearGradient id="SVGID_31_" gradientUnits="userSpaceOnUse" x1="-694.3174" y1="967.5078" x2="-638.6174" y2="967.5078" gradientTransform="matrix(-0.1735 -0.8767 0.8765 -0.1744 -891.9501 -317.6998)">
			<stop  offset="0" style="stop-color:#65808C"/>
			<stop  offset="0.1373" style="stop-color:#738C97;stop-opacity:0.9059"/>
			<stop  offset="0.4" style="stop-color:#99ABB3;stop-opacity:0.6627"/>
			<stop  offset="0.7569" style="stop-color:#D4DCDF;stop-opacity:0.2745"/>
			<stop  offset="0.9882" style="stop-color:#FFFFFF;stop-opacity:0"/>
		</linearGradient>
		<path style="fill-rule:evenodd;clip-rule:evenodd;fill:url(#SVGID_31_);" d="M63.485,86.746c1.21,0.125,2.497,0.569,3.862,1.331
			c3.741,2.022,6.802,4.06,9.181,6.109c4.042,3.542,5.592,6.773,4.651,9.693c-0.611,1.974-2.562,2.936-5.851,2.889
			c-1.554-0.026-2.915-0.304-4.082-0.832c-1.208-0.581-2.048-1.371-2.52-2.372c-0.384-0.865-0.412-1.618-0.083-2.261
			c0.182-0.309,0.396-0.534,0.642-0.673c-0.748-0.247-1.529-0.594-2.347-1.039c-1.698-0.909-2.788-1.893-3.271-2.951
			c-0.372-0.807-0.266-1.648,0.32-2.523c0.305-0.455,0.642-0.825,1.011-1.11c-0.683-0.229-1.36-0.581-2.031-1.057
			c-1.318-0.983-1.973-2.145-1.965-3.482C61.045,87.153,61.873,86.58,63.485,86.746z"/>
		<path style="fill-rule:evenodd;clip-rule:evenodd;fill:#F2F9FF;" d="M61.462,86.646l3.224,0.409
			c2.739,0.644,5.538,1.972,8.397,3.987c4.166,2.941,6.755,5.359,7.768,7.254c0.523,0.959,0.622,1.608,0.293,1.947
			c-0.086-0.591-0.471-1.381-1.152-2.369c-1.357-1.949-3.492-3.91-6.403-5.885c-2.695-1.805-5.529-3.232-8.5-4.284L61.462,86.646z"
			/>
		<path style="fill-rule:evenodd;clip-rule:evenodd;fill:#9CACB8;" d="M60.844,88.362l0.437,1.053
			c0.559,0.83,1.487,1.527,2.783,2.091c2.201,0.992,3.853,1.819,4.955,2.481c-0.905-0.125-1.887-0.325-2.943-0.603
			c-2.09-0.588-3.453-1.335-4.088-2.242c-0.6-0.883-0.973-1.614-1.118-2.193L60.844,88.362z"/>
		<path style="fill-rule:evenodd;clip-rule:evenodd;fill:#91A0AB;" d="M63.668,96.641l1.768,1.107c1.43,0.78,2.82,1.355,4.168,1.727
			c2.149,0.577,3.104,0.949,2.864,1.119c-0.433,0.115-1,0.166-1.701,0.154c-1.35-0.067-2.634-0.42-3.854-1.06
			c-1.22-0.64-2.118-1.343-2.695-2.109L63.668,96.641z"/>
		<path style="fill-rule:evenodd;clip-rule:evenodd;fill:#91A0AB;" d="M69.025,104.145l1.637,0.906
			c1.307,0.621,2.504,0.992,3.591,1.111c1.758,0.138,3.762-0.017,6.013-0.462c-0.527,0.256-1.222,0.5-2.087,0.731
			c-1.701,0.459-3.36,0.59-4.978,0.395c-1.618-0.197-2.797-0.707-3.538-1.532L69.025,104.145z"/>
		<path style="fill-rule:evenodd;clip-rule:evenodd;fill:#91A0AB;" d="M69.241,96.95c-0.355-0.568-0.34-1.103,0.047-1.604
			c0.217-0.286,0.503-0.525,0.86-0.718l4.564,0.737c-0.701-0.014-1.391,0.032-2.069,0.136c-1.385,0.213-2.037,0.601-1.957,1.162
			c0.052,0.566,0.646,1.116,1.785,1.65c0.601,0.275,1.173,0.481,1.716,0.617c-0.188,0.128-0.38,0.303-0.58,0.524
			c-0.427,0.449-0.717,0.901-0.87,1.356c-0.124,0.45,0.906,0.899,3.09,1.347c1.104,0.207,2.214,0.367,3.329,0.48
			c-1.929,0.686-3.152,1.262-3.666,1.728c-0.305,0.304,0.483,0.527,2.365,0.671c0.958,0.084,1.939,0.133,2.944,0.146
			c-0.672,0.285-1.438,0.481-2.297,0.592c-1.689,0.212-2.959-0.067-3.811-0.841c-0.601-0.579-0.652-1.07-0.155-1.473
			c0.235-0.198,0.539-0.35,0.913-0.454c-1.572,0.038-2.821-0.367-3.749-1.217c-0.595-0.551-0.619-1.137-0.075-1.762
			c0.24-0.32,0.553-0.58,0.938-0.777C70.92,98.606,69.812,97.839,69.241,96.95z"/>
		<path style="fill-rule:evenodd;clip-rule:evenodd;fill:#91A0AB;" d="M77.62,96.021c-0.151,0.151-0.313,0.335-0.482,0.551
			c-0.34,0.432-0.533,0.834-0.581,1.208c-0.042,0.403,0.469,0.834,1.531,1.292c0.531,0.229,1.054,0.414,1.567,0.555
			c-0.234,0.198-0.471,0.457-0.712,0.778c-0.485,0.613-0.732,1.208-0.739,1.787c-0.007,0.578,0.477,1.029,1.452,1.352
			c0.52,0.171,1.028,0.283,1.524,0.337c-0.543,0.168-1.128,0.208-1.753,0.119c-1.186-0.16-1.862-0.816-2.029-1.968
			c-0.098-0.648-0.009-1.273,0.267-1.875c0.152-0.303,0.305-0.531,0.458-0.682c-0.526-0.049-1.049-0.157-1.568-0.328
			c-1.016-0.376-1.526-0.882-1.53-1.519c-0.005-0.638,0.422-1.087,1.281-1.348C76.762,96.13,77.2,96.043,77.62,96.021z"/>
		<path style="fill-rule:evenodd;clip-rule:evenodd;fill:#9CACB8;" d="M61.278,90.555l-0.434-2.192l0.909,1.142
			c0.776,0.848,1.546,1.516,2.31,2.002c0.945,0.633,2.081,1.229,3.405,1.786c1.419,0.569,2.758,0.973,4.021,1.208
			c1.74,0.354,3.828,0.928,6.263,1.722c-1.081-0.241-1.927-0.377-2.541-0.408c-0.888-0.037-1.989-0.152-3.303-0.348
			c-1.379-0.214-3.046-0.582-5.002-1.106c-1.635-0.436-2.634-0.724-2.996-0.864C62.702,93.066,61.824,92.086,61.278,90.555z"/>
		<path style="fill-rule:evenodd;clip-rule:evenodd;fill:#DAE0E6;" d="M72.486,95.624c-0.199,0.07-0.41,0.157-0.632,0.262
			c-0.403,0.262-0.588,0.557-0.553,0.885c0.051,0.565,0.8,1.208,2.248,1.923c-1.781-0.559-2.735-1.235-2.862-2.029
			c-0.068-0.503,0.201-0.83,0.809-0.98C71.817,95.62,72.147,95.6,72.486,95.624z"/>
		<path style="fill-rule:evenodd;clip-rule:evenodd;fill:#DAE0E6;" d="M73.75,99.246c-0.077,0.076-0.144,0.195-0.203,0.358
			c-0.117,0.328-0.153,0.684-0.107,1.069c0.052,0.415,0.802,0.828,2.25,1.24c0.735,0.188,1.465,0.348,2.189,0.478
			c-3.371-0.305-5.172-0.813-5.404-1.526c-0.151-0.456,0.013-0.854,0.493-1.191C73.203,99.476,73.463,99.333,73.75,99.246z"/>
		<path style="fill-rule:evenodd;clip-rule:evenodd;fill:#DAE0E6;" d="M75.492,104.367c-0.058-0.292,0.319-0.61,1.132-0.952
			c0.391-0.169,0.789-0.309,1.192-0.419c-0.251,0.11-0.497,0.25-0.736,0.419c-0.446,0.361-0.656,0.677-0.633,0.946
			c0.023,0.269,0.568,0.494,1.638,0.678c0.495,0.088,0.97,0.146,1.423,0.174c-0.601-0.023-1.209-0.069-1.827-0.14
			C76.314,104.918,75.585,104.683,75.492,104.367z"/>
		<path style="fill-rule:evenodd;clip-rule:evenodd;fill:#DAE0E6;" d="M77.752,96.222c-0.077,0.076-0.146,0.182-0.211,0.315
			c-0.129,0.268-0.194,0.554-0.195,0.858c0.005,0.333,0.474,0.787,1.408,1.361c0.484,0.299,0.96,0.554,1.427,0.766
			c-0.247,0.291-0.504,0.601-0.774,0.927c-0.533,0.683-0.802,1.161-0.808,1.436c-0.007,0.274,0.299,0.67,0.918,1.186
			c0.32,0.239,0.635,0.45,0.944,0.632c-1.267-0.265-2.02-0.769-2.257-1.511c-0.158-0.486,0.034-1.055,0.573-1.708
			c0.269-0.327,0.562-0.613,0.877-0.857c-1.676-0.641-2.708-1.256-3.099-1.847c-0.221-0.351-0.081-0.713,0.423-1.086
			C77.213,96.496,77.471,96.338,77.752,96.222z"/>
		<path style="fill-rule:evenodd;clip-rule:evenodd;fill:#DAE0E6;" d="M63.803,94.564l0.393,1.061
			c0.366,0.777,0.792,1.316,1.276,1.615c0.741,0.521,1.249,0.938,1.523,1.248c-2.05-0.688-3.225-1.412-3.528-2.172
			c-0.157-0.485-0.153-0.927,0.011-1.324C63.566,94.824,63.674,94.681,63.803,94.564z"/>
		<path style="fill-rule:evenodd;clip-rule:evenodd;fill:#DAE0E6;" d="M61.592,87.304l-0.178,0.946
			c0.016,0.695,0.359,1.28,1.031,1.754c1.114,0.722,2.874,1.785,5.278,3.192c-0.999-0.288-2.014-0.665-3.047-1.129
			c-2.072-0.956-3.215-1.899-3.43-2.828c-0.173-0.725-0.172-1.257,0.004-1.595C61.36,87.44,61.475,87.326,61.592,87.304z"/>
		<path style="fill-rule:evenodd;clip-rule:evenodd;fill:#DAE0E6;" d="M68.661,102.304l0.532,0.851
			c0.426,0.614,0.772,1.062,1.041,1.343c0.46,0.485,1.259,0.92,2.398,1.303c-1.869-0.391-3.072-0.941-3.607-1.655
			c-0.332-0.451-0.495-0.889-0.488-1.315L68.661,102.304z"/>
		<g>
			
				<path style="fill-rule:evenodd;clip-rule:evenodd;fill:none;stroke:#231F20;stroke-linecap:round;stroke-linejoin:round;stroke-miterlimit:3;" d="
				M82.65,78.8c-0.667-0.466-1.267-1.083-1.8-1.85c-1.1-1.567-1.35-3.184-0.75-4.85c1.133-3.2,4.483-3.05,10.05,0.45
				c2.466,1.534,5.816,4.083,10.05,7.65l1.75-0.3c1.3-0.1,2.283,0.2,2.95,0.9c1.033,1.1,2.633,6.533,4.8,16.3l1.25,6.551
				c0.2,0.633,0.066,1.216-0.4,1.75c-0.434,0.533-1.05,1.199-1.85,2c-0.334,3.333-0.75,5.116-1.25,5.35s-1.283-0.134-2.351-1.1
				l-7.5,5.5l-0.35,2.35c-0.333,1.566-0.767,2.35-1.3,2.35c-0.5,0-1.3-0.683-2.4-2.05l-1.5-2l-9.55,1.15l-0.05,1.75
				c-0.133,1.2-0.483,1.833-1.05,1.899c-0.9,0.101-2.467-1.166-4.7-3.8c-0.467,0.134-0.967,0.233-1.5,0.3
				c-1.067,0.134-1.867-0.066-2.4-0.6c-0.5-0.533-1.383-2.816-2.65-6.85l-1.7-5.9l-1.7,0.1L66.6,108.4
				c-0.467,1.699-1.567,2.633-3.3,2.8c-1.8,0.133-3.05-0.217-3.75-1.05c-0.466-0.5-0.733-1.301-0.8-2.4
				c-0.067-0.634,0.217-1.25,0.85-1.85l0.9-0.851c-0.667-0.333-1.3-0.816-1.9-1.45c-1.167-1.3-1.5-2.649-1-4.05
				c0.533-1.467,1.566-2.133,3.1-2c1.233,0.134,2.4,0.667,3.5,1.601c1.133,0.966,1.95,2.6,2.45,4.899l1.55-0.25l-0.75-3.8
				c-0.7-0.3-1.4-0.684-2.1-1.15c-1.434-0.933-2.233-1.816-2.4-2.649c-0.133-0.834,0.017-1.483,0.45-1.95l0.7-0.5
				c-0.733-0.6-1.4-1.333-2-2.2c-1.267-1.8-1.65-3.399-1.15-4.8c0.533-1.467,1.5-2.117,2.9-1.95c0.566,0.067,1.767,0.483,3.6,1.25
				c1.4,0.6,3.066,1.434,5,2.5c2.033-1.8,3.716-3.15,5.05-4.05s2.967-1.8,4.9-2.7c-0.433-0.433-0.65-0.983-0.65-1.65
				c0-0.433,0.15-0.8,0.45-1.1C82.333,78.95,82.483,78.867,82.65,78.8z"/>
		</g>
		
			<use xlink:href="#Symbol_3"  width="47.086" height="30.146" x="-0.007" y="-31.575" transform="matrix(1 0 0 -1 57.8999 111.9502)" style="overflow:visible;opacity:0.5;"/>
	</g>
</g>
<g id="Letters">
	
		<use xlink:href="#Letters_x2F_digit_5"  width="17.45" height="26.6" y="-26.6" transform="matrix(1 0 0 -1 68.8999 34)" style="overflow:visible;"/>
	
		<use xlink:href="#Letters_x2F_digit_3"  width="17.7" height="27" y="-27" transform="matrix(1 0 0 -1 87.5498 34)" style="overflow:visible;"/>
</g>
<g id="highlight">
	
		<use xlink:href="#zz_x5F_Highlight_x2F_Highlight_Piece"  width="118.7" height="115.9" y="-115.9" transform="matrix(1 0 0 -1 27.25 28.1001)" style="overflow:visible;"/>
</g>
</svg>
