<?xml version="1.0" encoding="iso-8859-1"?>
<!-- Generator: Adobe Illustrator 15.1.0, SVG Export Plug-In . SVG Version: 6.00 Build 0)  -->
<!DOCTYPE svg PUBLIC "-//W3C//DTD SVG 1.1//EN" "http://www.w3.org/Graphics/SVG/1.1/DTD/svg11.dtd">
<svg version="1.1" id="Layer_1" xmlns="http://www.w3.org/2000/svg" xmlns:xlink="http://www.w3.org/1999/xlink" x="0px" y="0px"
	 width="171.8px" height="171.8px" viewBox="0 0 171.8 171.8" style="enable-background:new 0 0 171.8 171.8;" xml:space="preserve"
	>
<symbol  id="FlashAICB_x2F_Layer_1_x2F__x3C_Compound_Path_x3E__x5F_3" viewBox="-0.011 -6.545 5.461 6.566">
	<g id="Layer_1_10_">
		<path style="fill-rule:evenodd;clip-rule:evenodd;" d="M4.6-0.85c0.566-0.7,0.85-1.383,0.85-2.05C5.283-5.6,4.1-6.8,1.9-6.5
			C0.4-6.333-0.217-5.35,0.05-3.55C0.283-1.883,0.883-0.8,1.85-0.3C2.95,0.267,3.867,0.083,4.6-0.85z M2.9-4.5
			c0.8,0.133,1.184,0.683,1.15,1.65C4.017-1.883,3.633-1.483,2.9-1.65c-0.566-0.133-0.9-0.667-1-1.6C1.8-4.217,2.133-4.633,2.9-4.5z
			"/>
	</g>
</symbol>
<symbol  id="FlashAICB_x2F_Layer_1_x2F__x3C_Compound_Path_x3E__x5F_4" viewBox="0.016 -9.892 6.151 9.892">
	<g id="Layer_1_8_">
		<path style="fill-rule:evenodd;clip-rule:evenodd;" d="M0.2-3.8c0.333,1.867,0.9,3,1.7,3.4C3.7,0.5,5.067-0.117,6-2.25
			c0.133-0.3-0.383-0.733-1.55-1.3C3.083-4.183,2.283-4.7,2.05-5.1c-0.367-0.633-0.367-1.367,0-2.2C2.417-8.167,3-8.483,3.8-8.25
			C4.767-7.983,5.417-7.867,5.75-7.9C6.25-7.967,6.3-8.283,5.9-8.85c-0.6-0.833-1.533-1.167-2.8-1c-1.3,0.167-2.2,0.8-2.7,1.9
			C-0.033-6.983-0.1-5.6,0.2-3.8z M4.15-1.65c-0.333,0.3-0.783,0.333-1.35,0.1C2.467-1.717,2.233-2.1,2.1-2.7
			C2-3.3,2.117-3.517,2.45-3.35c0.233,0.067,0.65,0.2,1.25,0.4c0.533,0.2,0.816,0.383,0.85,0.55C4.583-2.133,4.45-1.883,4.15-1.65z"
			/>
	</g>
</symbol>
<symbol  id="FlashAICB_x2F_Layer_1_x2F__x3C_Compound_Path_x3E__x5F_5" viewBox="-0.029 -11.135 8.373 11.092">
	<g id="Layer_1_7_">
		<path style="fill-rule:evenodd;clip-rule:evenodd;" d="M3.75-7.65c-0.367-0.533-0.333-1.1,0.1-1.7
			c0.433-0.566,1.033-0.667,1.8-0.3c0.7,0.333,1.033,0.8,1,1.4c-0.033,0.433-0.217,0.8-0.55,1.1c-0.367,0.267-0.75,0.367-1.15,0.3
			C4.45-6.917,4.05-7.183,3.75-7.65z M6-5.55c0.2,0.933-0.017,1.867-0.65,2.8c-0.4,0.6-1.05,0.8-1.95,0.6
			c-0.367-0.067-1.083-0.333-2.15-0.8c-0.533-0.233-0.917-0.1-1.15,0.4s-0.15,0.9,0.25,1.2c1.3,0.934,2.55,1.367,3.75,1.3
			C5.233-0.083,6.15-0.533,6.85-1.4C7.517-2.233,7.967-3.883,8.2-6.35c0.233-2.3,0.183-3.7-0.15-4.2
			c-0.367-0.567-0.667-0.483-0.9,0.25c0.033-0.267-0.95-0.534-2.95-0.8c-1.4-0.2-2.217,0.45-2.45,1.95
			c-0.2,1.4,0.117,2.467,0.95,3.2C3.3-5.417,4.033-5.2,4.9-5.3C5.333-5.333,5.7-5.417,6-5.55z"/>
	</g>
</symbol>
<symbol  id="FlashAICB_x2F_Layer_1_x2F__x3C_Group_x3E_" viewBox="0 -66.417 119.2 66.417">
	<g id="Layer_1_16_">
		<g>
			<g>
				
					<use xlink:href="#FlashAICB_x2F_Layer_1_x2F__x3C_Path_x3E__x5F_1_x5F_0"  width="119.2" height="60.45" y="-60.45" style="overflow:visible;opacity:0.1992;enable-background:new    ;"/>
				
					<use xlink:href="#FlashAICB_x2F_Layer_1_x2F__x3C_Path_x3E__x5F_0"  width="119.2" height="66.417" y="-66.417" style="overflow:visible;opacity:0.1211;enable-background:new    ;"/>
			</g>
		</g>
	</g>
</symbol>
<symbol  id="FlashAICB_x2F_Layer_1_x2F__x3C_Path_x3E_" viewBox="0 -61.85 128.6 61.85">
	<g id="Layer_1_13_">
		
			<radialGradient id="SVGID_1_" cx="64.2998" cy="-30.9248" r="50.4522" gradientTransform="matrix(1 0 0 -1 0 -61.8496)" gradientUnits="userSpaceOnUse">
			<stop  offset="0" style="stop-color:#CCEFE7;stop-opacity:0"/>
			<stop  offset="0.0784" style="stop-color:#C9E7DC;stop-opacity:0.0392"/>
			<stop  offset="0.2118" style="stop-color:#C1D1C0;stop-opacity:0.1451"/>
			<stop  offset="0.3882" style="stop-color:#B5AE93;stop-opacity:0.3216"/>
			<stop  offset="0.5961" style="stop-color:#A67D55;stop-opacity:0.5647"/>
			<stop  offset="0.651" style="stop-color:#A17045;stop-opacity:0.6275"/>
		</radialGradient>
		<path style="fill-rule:evenodd;clip-rule:evenodd;fill:url(#SVGID_1_);" d="M128.05-0.25L128.6,0
			c-0.633-17.2-7.167-31.8-19.6-43.8C96.5-55.833,81.583-61.85,64.25-61.85c-17.033,0-31.733,5.817-44.1,17.45
			C7.783-32.833,1.067-18.633,0-1.8c4.967-12.967,13.183-23.467,24.65-31.5c11.7-8.2,24.717-12.3,39.05-12.3
			c14.667,0,27.917,4.25,39.75,12.75C115.05-24.517,123.25-13.65,128.05-0.25z"/>
	</g>
</symbol>
<symbol  id="FlashAICB_x2F_Layer_1_x2F__x3C_Path_x3E__x5F_0" viewBox="0 -66.417 119.2 66.417">
	<g id="Layer_1_15_">
		<path style="fill-rule:evenodd;clip-rule:evenodd;fill:#FFFFFF;" d="M115.4-37.25c2.533-6.1,3.8-11.85,3.8-17.25
			c0-5.367-1.567-8.75-4.7-10.15c-2.533-1.133-6.783-1.117-12.75,0.05c-7.9,1.9-14.217,3.367-18.95,4.4
			c-8.667,1.833-16.4,2.75-23.2,2.75c-6.867,0-14.6-1-23.2-3c-9.033-2.367-15.35-3.966-18.95-4.8c-6-1.367-10.25-1.533-12.75-0.5
			C1.567-64.483,0-61.167,0-55.8c0,5.933,1.267,12.066,3.8,18.4c2.667,6.7,6.434,12.733,11.3,18.1C26.7-6.433,41.533,0,59.6,0
			c17.833,0,32.65-6.483,44.45-19.45C108.883-24.783,112.667-30.717,115.4-37.25z"/>
	</g>
</symbol>
<symbol  id="FlashAICB_x2F_Layer_1_x2F__x3C_Path_x3E__x5F_1" viewBox="0 -128.55 128.8 128.55">
	<g id="Layer_1_2_">
		
			<radialGradient id="SVGID_2_" cx="64.3999" cy="-64.2749" r="64.3374" gradientTransform="matrix(1 0 0 -1 0 -128.5498)" gradientUnits="userSpaceOnUse">
			<stop  offset="0" style="stop-color:#FBB6DB"/>
			<stop  offset="0.2392" style="stop-color:#F9B4D8"/>
			<stop  offset="0.4157" style="stop-color:#F3ADCF"/>
			<stop  offset="0.5686" style="stop-color:#E7A0BF"/>
			<stop  offset="0.6627" style="stop-color:#DD95B1"/>
			<stop  offset="1" style="stop-color:#7F257D;stop-opacity:0.4078"/>
		</radialGradient>
		<path style="fill-rule:evenodd;clip-rule:evenodd;fill:url(#SVGID_2_);" d="M128.8-64.3c0-17.733-6.283-32.883-18.85-45.45
			c-12.6-12.533-27.784-18.8-45.55-18.8c-17.8,0-32.983,6.267-45.55,18.8C6.283-97.217,0-82.067,0-64.3
			c0,17.767,6.283,32.917,18.85,45.45C31.417-6.283,46.6,0,64.4,0c17.767,0,32.95-6.283,45.55-18.85
			C122.517-31.417,128.8-46.567,128.8-64.3z"/>
	</g>
</symbol>
<symbol  id="FlashAICB_x2F_Layer_1_x2F__x3C_Path_x3E__x5F_1_x5F_0" viewBox="0 -60.45 119.2 60.45">
	<g id="Layer_1_14_">
		
			<linearGradient id="SVGID_3_" gradientUnits="userSpaceOnUse" x1="16160.6572" y1="-58.4668" x2="16221.0479" y2="-58.4668" gradientTransform="matrix(1.654944e-005 1 -1 -0.001 0.8657 -16221.1064)">
			<stop  offset="0.1294" style="stop-color:#E2B8B2"/>
			<stop  offset="0.9255" style="stop-color:#FFFFFF"/>
		</linearGradient>
		<path style="fill-rule:evenodd;clip-rule:evenodd;fill:url(#SVGID_3_);" d="M104.05-19.45c4.833-5.333,8.617-11.267,11.35-17.8
			c2.533-6.1,3.8-11.85,3.8-17.25c0-1.8-0.184-3.4-0.55-4.8c-2,11.966-7.85,22.6-17.55,31.9c-11.434,11-25.267,16.5-41.5,16.5
			c-16.533,0-30.45-5.483-41.75-16.45c-9.733-9.433-15.533-20.467-17.4-33.1C0.15-59.15,0-57.6,0-55.8
			c0,5.933,1.267,12.066,3.8,18.4c2.667,6.7,6.434,12.733,11.3,18.1C26.7-6.433,41.533,0,59.6,0C77.433,0,92.25-6.483,104.05-19.45z
			"/>
	</g>
</symbol>
<symbol  id="FlashAICB_x2F_Layer_1_x2F__x3C_Path_x3E__x5F_29" viewBox="0 -7.53 4.829 7.496">
	<g id="Layer_1_11_">
		<path style="fill-rule:evenodd;clip-rule:evenodd;" d="M3.75-1.7C3.283-1.567,2.9-1.65,2.6-1.95C2.2-2.317,1.9-2.833,1.7-3.5
			C1.467-4.167,1.4-4.733,1.5-5.2c0.267-1.267,0.283-1.983,0.05-2.15c-0.267-0.2-0.566-0.233-0.9-0.1
			c-0.333,0.1-0.517,0.367-0.55,0.8C0.033-5.917,0-4.933,0-3.7c0.033,1.233,0.1,2.017,0.2,2.35c0.066,0.333,0.216,0.6,0.45,0.8
			c0.267,0.2,0.467,0.2,0.6,0c0.2-0.267,0.3-0.467,0.3-0.6c0.7,0.833,1.383,1.2,2.05,1.1C4.1-0.117,4.467-0.333,4.7-0.7
			c0.2-0.4,0.167-0.733-0.1-1C4.5-1.8,4.217-1.8,3.75-1.7z"/>
	</g>
</symbol>
<symbol  id="FlashAICB_x2F_Layer_1_x2F__x3C_Path_x3E__x5F_30" viewBox="0.003 -11.786 5.807 11.796">
	<g id="Layer_1_9_">
		<path style="fill-rule:evenodd;clip-rule:evenodd;" d="M4.15-0.05c1.033,0.2,1.583-0.1,1.65-0.9c0.067-0.833-0.216-1.267-0.85-1.3
			C3.483-2.383,2.567-2.917,2.2-3.85C2.067-4.183,2.05-4.7,2.15-5.4C3.683-4.733,4.567-4.667,4.8-5.2
			c0.167-0.333-0.066-0.683-0.7-1.05C3.567-6.55,3-6.767,2.4-6.9l0.65-2.7c0.233-0.833,0.233-1.45,0-1.85
			c-0.2-0.367-0.566-0.433-1.1-0.2c-0.534,0.2-1.017,1.183-1.45,2.95C0.067-6.9-0.083-5.317,0.05-3.95
			C0.217-1.883,1.583-0.583,4.15-0.05z"/>
	</g>
</symbol>
<symbol  id="FlashAICB_x2F_Layer_1_x2F__x3C_Path_x3E__x5F_31" viewBox="-0.013 -14.752 2.866 14.776">
	<g id="Layer_1_6_">
		<path style="fill-rule:evenodd;clip-rule:evenodd;" d="M1.5-0.2c0.833-0.767,1.283-3.25,1.35-7.45c0.033-4-0.2-6.333-0.7-7
			c-0.333-0.434-0.667,0.517-1,2.85c-0.533,3.733-0.833,5.733-0.9,6C-0.083-4.233-0.1-2.783,0.2-1.45C0.467-0.083,0.9,0.333,1.5-0.2
			z"/>
	</g>
</symbol>
<symbol  id="FlashAICB_x2F_Layer_1_x2F__x3C_Path_x3E__x5F_32" viewBox="-0.002 -16.719 10.199 16.796">
	<g id="Layer_1_5_">
		<path style="fill-rule:evenodd;clip-rule:evenodd;" d="M7.55-0.2C8.183-0.767,8.333-1.367,8-2S7.017-2.833,6.05-2.6
			c-1,0.233-1.767,0.083-2.3-0.45c-0.533-0.5-0.667-1.184-0.4-2.05c0.2-0.667,0.7-1.117,1.5-1.35C6.35-6.917,7.4-7.317,8-7.65
			c1.2-0.667,1.917-1.65,2.15-2.95c0.133-1.033-0.017-2.033-0.45-3c-0.434-0.933-1.067-1.667-1.9-2.2c-1.066-0.7-2.333-1-3.8-0.9
			c-1.433,0.1-2.517,0.517-3.25,1.25c-0.633,0.6-0.867,1.15-0.7,1.65c0.133,0.4,0.383,0.65,0.75,0.75c0.4,0.133,0.733,0.05,1-0.25
			c1.1-1.1,2.45-1.317,4.05-0.65c1.233,0.567,1.767,1.383,1.6,2.45C7.217-10.333,6.133-9.517,4.2-9.05
			c-1.934,0.466-3.184,1.466-3.75,3c-0.5,1.367-0.367,2.7,0.4,4c0.6,1,1.816,1.65,3.65,1.95C6.133,0.167,7.15,0.133,7.55-0.2z"/>
	</g>
</symbol>
<symbol  id="FlashAICB_x2F_Layer_1_x2F__x3C_Path_x3E__x5F_56" viewBox="0 -44.85 36.8 44.869">
	<g id="Layer_1_4_">
		<path style="fill-rule:evenodd;clip-rule:evenodd;" d="M28.15-0.3c1.1-0.2,2.133-0.85,3.1-1.95c1.133-1.3,1.95-2.067,2.45-2.3
			c1.333-0.667,2.167-0.917,2.5-0.75l0.6-1.05c-0.6-0.133-1.383-0.1-2.35,0.1c-1.934,0.367-3.833,1.4-5.7,3.1
			C26.683-1.217,24.1-0.967,21-2.4c-2.8-1.3-5.217-3.467-7.25-6.5c-1.3-1.967-3.25-3.95-5.85-5.95c-1.3-1-2.483-1.8-3.55-2.4
			L3.65-43.6l-0.3-1.05l-2.3-0.2L0-16.2c0.333,0.233,1.133,0.583,2.4,1.05c0.767,0.267,1.8,1.066,3.1,2.4
			c1.4,1.5,2.333,2.483,2.8,2.95c1.5,1.433,2.767,2.65,3.8,3.65c1.933,1.933,3.217,3.316,3.85,4.15
			c0.667,0.967,2.517,1.583,5.55,1.85C24.167,0.117,26.383,0.067,28.15-0.3z"/>
	</g>
</symbol>
<symbol  id="FlashAICB_x2F_Layer_1_x2F__x3C_Path_x3E__x5F_6" viewBox="0 -15.35 52 15.35">
	<g id="Layer_1_12_">
		
			<radialGradient id="SVGID_4_" cx="1445.8359" cy="1196.1973" r="29.0103" gradientTransform="matrix(0.9867 0.1624 0.0375 -0.2279 -1447.6143 29.1553)" gradientUnits="userSpaceOnUse">
			<stop  offset="0.1961" style="stop-color:#000000;stop-opacity:0"/>
			<stop  offset="0.6824" style="stop-color:#000000;stop-opacity:0.651"/>
			<stop  offset="1" style="stop-color:#000000;stop-opacity:0.949"/>
		</radialGradient>
		<path style="fill-rule:evenodd;clip-rule:evenodd;fill:url(#SVGID_4_);" d="M47.15-0.4L52,0l-0.25-4.55
			c-6.533-1.9-12.633-3.434-18.3-4.6c-7.467-1.5-18.534-3.567-33.2-6.2L0.2-7.1L0-6.55C1.267-6.583,9.5-5.567,24.7-3.5
			C32.3-2.467,39.783-1.433,47.15-0.4z"/>
	</g>
</symbol>
<symbol  id="FlashAICB_x2F_Layer_1_x2F__x3C_Path_x3E__x5F_63" viewBox="0 -74.55 10.3 74.55">
	<g id="Layer_1_3_">
		
			<radialGradient id="SVGID_5_" cx="-457.0225" cy="-529.5981" r="6.6071" gradientTransform="matrix(0.9983 -0.059 -0.5219 -8.8259 184.9727 -4738.4512)" gradientUnits="userSpaceOnUse">
			<stop  offset="0.1961" style="stop-color:#000000;stop-opacity:0"/>
			<stop  offset="0.6824" style="stop-color:#000000;stop-opacity:0.651"/>
			<stop  offset="1" style="stop-color:#000000;stop-opacity:0.949"/>
		</radialGradient>
		<path style="fill-rule:evenodd;clip-rule:evenodd;fill:url(#SVGID_5_);" d="M3.9-1.35C4.333-1.183,6.467-0.733,10.3,0
			C8.733-11.2,7.767-20.7,7.4-28.5C6.867-40.2,5.917-55.017,4.55-72.95L0-74.55c0.433,13.333,0.917,25.533,1.45,36.6
			C1.983-26.883,2.8-14.683,3.9-1.35z"/>
	</g>
</symbol>
<g>
	<path style="fill-rule:evenodd;clip-rule:evenodd;fill:#FFFFFF;" d="M119.3,6.75c10.267,4.367,19.367,10.517,27.3,18.45
		c7.934,7.933,14.084,17.033,18.45,27.3c4.5,10.633,6.75,21.767,6.75,33.4s-2.25,22.767-6.75,33.4
		c-4.366,10.267-10.517,19.367-18.45,27.3c-7.933,7.934-17.033,14.084-27.3,18.45c-10.633,4.5-21.767,6.75-33.399,6.75
		c-11.634,0-22.767-2.25-33.4-6.75c-10.267-4.366-19.367-10.517-27.3-18.45c-7.934-7.933-14.083-17.033-18.45-27.3
		C2.25,108.667,0,97.533,0,85.9s2.25-22.767,6.75-33.4c4.367-10.267,10.517-19.367,18.45-27.3c7.933-7.934,17.033-14.083,27.3-18.45
		C63.133,2.25,74.267,0,85.9,0C97.533,0,108.667,2.25,119.3,6.75z"/>
	<g>
		<g>
			
				<linearGradient id="SVGID_6_" gradientUnits="userSpaceOnUse" x1="-157.6851" y1="85.9004" x2="-14.2856" y2="85.9004" gradientTransform="matrix(6.973501e-006 -1 1 -0.001 -1.064519e-004 4.449275e-004)">
				<stop  offset="0.0745" style="stop-color:#362439"/>
				<stop  offset="0.1882" style="stop-color:#4F3450"/>
				<stop  offset="0.4353" style="stop-color:#8F5E89"/>
				<stop  offset="0.6" style="stop-color:#BE7CB4"/>
				<stop  offset="0.9216" style="stop-color:#EFEBC5"/>
			</linearGradient>
			<path style="fill-rule:evenodd;clip-rule:evenodd;fill:url(#SVGID_6_);" d="M136.6,35.2c6.601,6.633,11.717,14.233,15.351,22.8
				c3.767,8.9,5.649,18.2,5.649,27.9s-1.883,19-5.649,27.9c-3.634,8.567-8.75,16.167-15.351,22.8c-14.033,14-30.933,21-50.699,21
				c-9.7,0-19-1.883-27.9-5.649c-8.566-3.634-16.167-8.75-22.8-15.351c-6.6-6.633-11.717-14.232-15.35-22.8
				c-3.767-8.899-5.65-18.2-5.65-27.9s1.883-19,5.65-27.9c3.633-8.566,8.75-16.167,15.35-22.8c6.633-6.6,14.233-11.717,22.8-15.35
				c8.9-3.767,18.2-5.65,27.9-5.65c9.699,0,19,1.883,27.899,5.65C122.367,23.483,129.967,28.6,136.6,35.2z"/>
			<path style="fill-rule:evenodd;clip-rule:evenodd;fill:#3B223B;" d="M135.95,35.85c-6.533-6.534-14.033-11.6-22.5-15.2
				c-8.767-3.7-17.95-5.55-27.55-5.55c-9.601,0-18.784,1.85-27.55,5.55c-8.467,3.6-15.967,8.667-22.5,15.2
				C22.017,49.684,15.1,66.367,15.1,85.9c0,19.567,6.917,36.25,20.75,50.05c6.533,6.533,14.033,11.6,22.5,15.2
				c8.767,3.699,17.95,5.55,27.55,5.55c9.6,0,18.783-1.851,27.55-5.55c8.467-3.601,15.967-8.667,22.5-15.2s11.6-14.033,15.2-22.5
				c3.699-8.767,5.55-17.95,5.55-27.55s-1.851-18.783-5.55-27.55C147.55,49.883,142.483,42.383,135.95,35.85z M113.7,18.8
				c8.833,3.634,16.684,8.884,23.55,15.75c6.867,6.867,12.117,14.717,15.75,23.55c3.667,8.833,5.5,18.1,5.5,27.8
				s-1.833,18.967-5.5,27.8c-3.633,8.866-8.883,16.717-15.75,23.55c-6.866,6.867-14.717,12.117-23.55,15.75
				c-8.833,3.667-18.101,5.5-27.8,5.5c-9.7,0-18.967-1.833-27.8-5.5c-8.833-3.633-16.684-8.883-23.55-15.75
				c-6.833-6.833-12.083-14.684-15.75-23.55c-3.667-8.833-5.5-18.101-5.5-27.8s1.833-18.966,5.5-27.8
				c3.634-8.833,8.884-16.684,15.75-23.55c6.867-6.833,14.717-12.083,23.55-15.75c8.833-3.667,18.1-5.5,27.8-5.5
				C95.6,13.3,104.867,15.133,113.7,18.8z"/>
		</g>
		
			<use xlink:href="#FlashAICB_x2F_Layer_1_x2F__x3C_Path_x3E__x5F_1"  width="128.8" height="128.55" y="-128.55" transform="matrix(1 0 0 -1 21.5 19.2998)" style="overflow:visible;opacity:0.3789;enable-background:new    ;"/>
		<g>
			<path style="fill-rule:evenodd;clip-rule:evenodd;fill:#EBC9ED;" d="M116.5,55c1.134,0.1,2.05,0.6,2.75,1.5
				c0.733,0.867,1.017,1.883,0.85,3.05v0.05l-1.35,10.75v0.05l-0.2,2l-0.05,0.05v0.05l-1.1,12.35l-3.051,47.4
				c-0.033,0.8-0.3,1.517-0.8,2.15c-0.467,0.633-1.083,1.083-1.85,1.35l-4.5,1.55c-0.5,0.167-0.95,0.25-1.351,0.25
				c-0.533,0-1.05-0.1-1.55-0.3l-4.3-1.8c-0.767-0.333-1.366-0.851-1.8-1.55c-0.467-0.7-0.684-1.467-0.65-2.301L98.15,118.9
				c-5.5,2.166-9.934,3.816-13.3,4.949l-22,7.601c-0.833,0.434-1.684,0.566-2.55,0.399c-0.333-0.033-0.65-0.133-0.95-0.3
				c-0.767-0.3-2.3-1.083-4.6-2.35c-1.367-0.767-2.05-1.917-2.05-3.45l-0.1-11.95c-0.034-3.7-0.167-8-0.4-12.899
				c-0.233-4.167-0.35-6.267-0.35-6.301C51.816,93.767,52,93,52.4,92.3s0.967-1.233,1.7-1.6c-1.3-1.667-1.7-3.566-1.2-5.7l0.25-1
				l-7.85-0.95c-1.033-0.1-1.9-0.533-2.6-1.3c-0.7-0.767-1.05-1.667-1.05-2.7V71.6c0-1.233,0.483-2.233,1.45-3
				c0.667-0.6,1.466-0.934,2.4-1h0.7c11.633-1.1,21.9-2.267,30.8-3.5l21.4-3l-0.051-1.35c-0.033-0.934,0.25-1.767,0.851-2.5
				c0.566-0.767,1.3-1.267,2.2-1.5c0.133,0,2.05-0.4,5.75-1.2l1.649-0.2c0.334-0.067,0.65-0.067,0.95,0L116.5,55z"/>
			
				<linearGradient id="SVGID_7_" gradientUnits="userSpaceOnUse" x1="-136.7559" y1="80.8994" x2="-53.5088" y2="80.8994" gradientTransform="matrix(1.201562e-005 -1 1 -0.001 2.426707e-004 4.449275e-004)">
				<stop  offset="0.0549" style="stop-color:#603956"/>
				<stop  offset="0.4863" style="stop-color:#AA829B"/>
				<stop  offset="0.8392" style="stop-color:#E4B9D0"/>
			</linearGradient>
			<path style="fill-rule:evenodd;clip-rule:evenodd;fill:url(#SVGID_7_);" d="M116.5,54.1c1.134,0.1,2.05,0.6,2.75,1.5
				c0.733,0.9,1.017,1.917,0.85,3.05v0.05l-1.35,10.75v0.05l-0.2,2l-0.05,0.05v0.05l-1.1,12.35l-3.051,47.45
				c-0.033,0.767-0.3,1.467-0.8,2.1c-0.5,0.667-1.116,1.117-1.85,1.35l-4.5,1.601c-0.4,0.133-0.851,0.2-1.351,0.2
				c-0.533,0-1.05-0.101-1.55-0.301l-4.3-1.8c-0.767-0.333-1.366-0.85-1.8-1.55c-0.467-0.7-0.684-1.467-0.65-2.3L98.15,118
				c-4.334,1.767-8.767,3.417-13.3,4.95l-22,7.6c-0.833,0.434-1.684,0.567-2.55,0.4c-0.233-0.033-0.55-0.117-0.95-0.25
				c-1.167-0.5-2.7-1.283-4.6-2.351c-1.367-0.833-2.05-2-2.05-3.5L52.6,112.9c-0.034-3.7-0.167-8-0.4-12.9
				c-0.233-4.167-0.35-6.267-0.35-6.3C51.816,92.867,52,92.1,52.4,91.4c0.4-0.7,0.967-1.233,1.7-1.601c-1.3-1.633-1.7-3.533-1.2-5.7
				l0.25-1l-7.85-0.95c-1.033-0.1-1.9-0.533-2.6-1.3c-0.7-0.733-1.05-1.633-1.05-2.7v-7.4c0-1.267,0.483-2.283,1.45-3.05
				c0.633-0.567,1.433-0.884,2.4-0.95l0.7-0.05c11.633-1.1,21.9-2.267,30.8-3.5l21.4-2.95L98.35,58.9
				c-0.033-0.933,0.25-1.783,0.851-2.55c0.566-0.767,1.3-1.25,2.2-1.45c0.133-0.033,2.05-0.433,5.75-1.2l1.649-0.25
				c0.334-0.067,0.65-0.067,0.95,0L116.5,54.1z"/>
			<path style="fill-rule:evenodd;clip-rule:evenodd;fill:none;stroke:#EBC9ED;stroke-width:0.25;" d="M116.5,54.1l-6.75-0.65
				c-0.3-0.067-0.616-0.067-0.95,0l-1.649,0.25c-3.7,0.767-5.617,1.167-5.75,1.2c-0.9,0.2-1.634,0.684-2.2,1.45
				c-0.601,0.767-0.884,1.617-0.851,2.55l0.051,1.35L77,63.2c-8.9,1.233-19.167,2.4-30.8,3.5l-0.7,0.05
				c-0.967,0.066-1.767,0.383-2.4,0.95c-0.967,0.767-1.45,1.783-1.45,3.05v7.4c0,1.067,0.35,1.967,1.05,2.7
				c0.7,0.767,1.566,1.2,2.6,1.3l7.85,0.95l-0.25,1c-0.5,2.167-0.1,4.067,1.2,5.7c-0.733,0.367-1.3,0.9-1.7,1.601
				c-0.4,0.699-0.583,1.467-0.55,2.3c0,0.033,0.117,2.133,0.35,6.3c0.233,4.9,0.366,9.2,0.4,12.9l0.1,11.949
				c0,1.5,0.683,2.667,2.05,3.5c1.9,1.067,3.434,1.851,4.6,2.351c0.4,0.133,0.716,0.217,0.95,0.25c0.867,0.167,1.717,0.033,2.55-0.4
				l22-7.6c4.534-1.533,8.966-3.184,13.3-4.95l-0.601,12.7c-0.033,0.833,0.184,1.6,0.65,2.3c0.434,0.7,1.033,1.217,1.8,1.55l4.3,1.8
				c0.5,0.2,1.017,0.301,1.55,0.301c0.5,0,0.95-0.067,1.351-0.2l4.5-1.601c0.733-0.232,1.35-0.683,1.85-1.35
				c0.5-0.633,0.767-1.333,0.8-2.1l3.051-47.45l1.1-12.35v-0.05l0.05-0.05l0.2-2v-0.05l1.35-10.75v-0.05
				c0.167-1.133-0.116-2.15-0.85-3.05C118.55,54.7,117.634,54.2,116.5,54.1z"/>
			<path style="fill-rule:evenodd;clip-rule:evenodd;fill:#3B223B;" d="M89.05,77.6l0.8,0.35L90,78c1.367,0.633,2.667,1.566,3.9,2.8
				L93.8,80.3c-0.467-0.267-0.833-0.683-1.1-1.25c-0.4-0.866-0.417-1.85-0.05-2.95c0.233-0.534,0.467-0.95,0.699-1.25
				c0-0.367,0.084-0.85,0.25-1.45l-0.149-0.25l-6.75,1.4c-1.767,0.367-9.784,1.884-24.05,4.55c0,0.466-0.05,0.917-0.15,1.35
				c0.333,0.6,0.533,1.3,0.6,2.1c0.066,0.867-0.05,1.583-0.35,2.15c0.3,0.9,0.316,1.717,0.05,2.45l0.25,1.05l0.5,0.399
				c0.767-0.699,1.267-1.232,1.5-1.6c1.367-1.9,3.217-3.85,5.55-5.85c2.367-2.033,4.45-3.417,6.25-4.15c1.833-0.767,3.85-1.1,6.05-1
				C85.033,76.1,87.083,76.633,89.05,77.6z M116.85,57.55c0.167,0.2,0.217,0.417,0.15,0.65l-1.55,12.95h-0.9l0.851,0.1l-1.801,25.6
				V96.9l-2.35,34.25c0,0.399-0.2,0.649-0.6,0.75l-4.5,1.6l-0.301,0.05l-0.35-0.1l-4.3-1.8c-0.367-0.101-0.55-0.384-0.55-0.851
				L101.1,120.4l0.051-0.051H101.1l0.851-17.6c0.066-4.667,0.066-10.583,0-17.75l-0.2-13.2l-0.05-0.4v-0.3l-2.45,0.65l-0.05,0.3
				l0.35,0.6c0.267,0.633,0.367,1.35,0.3,2.15c-0.033,0.833-0.232,1.534-0.6,2.1c0.134,0.8,0.017,1.567-0.35,2.3
				c0.267,1.433,0.233,2.6-0.101,3.5l2,0.55h0.05c0.301,0,0.518,0.083,0.65,0.25c0.2,0.167,0.3,0.383,0.3,0.65l-0.55,28.65
				c0,0.367-0.184,0.634-0.55,0.8c-5.601,2.367-11.217,4.5-16.85,6.4l-22.3,7.7c-0.2,0.167-0.45,0.217-0.75,0.149l-0.25-0.05
				c-0.966-0.399-2.4-1.133-4.3-2.2c-0.3-0.133-0.45-0.383-0.45-0.75l-0.1-12c-0.034-3.732-0.167-8.066-0.4-13
				c-0.233-4.199-0.35-6.316-0.35-6.35c-0.067-0.5,0.133-0.8,0.6-0.9l0.1-0.05h0.05l1.75-0.6l-0.1-0.55
				c-0.034-0.7,0.15-1.367,0.55-2l-0.15-0.551c-0.767-0.333-1.316-0.916-1.65-1.75c-0.3-0.732-0.367-1.516-0.2-2.35
				c0.2-0.6,0.383-1.05,0.55-1.35c-0.034-0.5-0.034-0.933,0-1.3c-0.434-0.5-0.733-1.133-0.9-1.9c-2.833-0.267-4.5-0.45-5-0.55
				l-4.95-0.6c-0.534-0.066-0.8-0.366-0.8-0.9v-7.2l-0.05-0.15c0-0.267,0.117-0.517,0.35-0.75c0.2-0.133,0.383-0.2,0.55-0.2
				l0.75-0.05c12.434-1.2,22.767-2.366,31-3.5l24.2-3.4l-0.1-4.1c-0.066-0.466,0.15-0.767,0.65-0.9
				c0.1-0.033,1.916-0.417,5.449-1.15l1.65-0.2h0.2l6.75,0.65C116.5,57.267,116.717,57.383,116.85,57.55z"/>
			<g>
				<polygon style="fill-rule:evenodd;clip-rule:evenodd;fill:#A46128;" points="113.25,63.5 106.7,62.35 102.35,58.75 107.7,57.65 
					109.35,57.45 116.15,58.1 				"/>
				<path style="fill-rule:evenodd;clip-rule:evenodd;fill:#7E481C;" d="M102.75,79.8l-0.4-21.05l7.4,0.7l2.9,5.15l-3.101,52.8
					l-3.7,15.25l-4.3-1.801c0.134-4.8,0.467-11.533,1-20.199C102.917,105.217,102.983,94.934,102.75,79.8z"/>
				<g>
					<path style="fill-rule:evenodd;clip-rule:evenodd;fill:#70441B;" d="M101.95,124.85c-0.033,2.134-0.033,3.233,0,3.301
						c0.066,0.733,0.116,1.717,0.149,2.949l-0.55-0.25c0.067-2.433,0.217-5.916,0.45-10.449L101.95,124.85z"/>
					<path style="fill-rule:evenodd;clip-rule:evenodd;fill:#70441B;" d="M103.25,58.85l0.4,0.05l-0.15,9.35
						c-0.033,1.6-0.066,3.717-0.1,6.35c-0.067,2.633-0.25,6.083-0.551,10.35V78.2c0.167-4.034,0.301-9.784,0.4-17.25V58.85z"/>
					<path style="fill-rule:evenodd;clip-rule:evenodd;fill:#70441B;" d="M112.05,63.6l0.351,0.6l0.1,2.8l-0.45,7.7
						c0.067-2.267,0.101-4.833,0.101-7.7L112.05,63.6z"/>
					<path style="fill-rule:evenodd;clip-rule:evenodd;fill:#70441B;" d="M107.6,59.25l-0.149,3.2c-0.066,2-0.167,3.933-0.3,5.8
						c-0.067,1.267-0.084,2.7-0.051,4.3c0.034,1.3,0.084,2.4,0.15,3.3c0,0.6-0.05,1.833-0.15,3.7c-0.033,0.6-0.116,1.467-0.25,2.6
						c-0.1,0.9-0.232,3.967-0.399,9.2c-0.101,3.268-0.351,7.134-0.75,11.601c-0.167,2-0.101,4.399,0.2,7.2
						c0.166,1.399,0.55,4.267,1.149,8.6c0.367,2.767,0.567,4.917,0.601,6.45l-0.65,2.75c0.1-1.033,0.134-1.917,0.1-2.65
						c-0.033-0.899-0.066-1.733-0.1-2.5c0-0.8-0.3-3.083-0.9-6.85c-0.6-3.7-0.883-6.15-0.85-7.351
						c0.033-1.899,0.167-5.783,0.4-11.649c0.433-6.634,0.683-10.983,0.75-13.05c0.166-2.133,0.267-4.283,0.3-6.45
						c0.133-7.833,0.217-12.467,0.25-13.9l0.25-4.35L107.6,59.25z"/>
					<path style="fill-rule:evenodd;clip-rule:evenodd;fill:#70441B;" d="M102.65,72l-0.301-13.25l0.101,0.05
						c0.167,2.233,0.233,4.117,0.2,5.65c0,1.233,0.017,2.566,0.05,4C102.733,69.417,102.717,70.6,102.65,72z"/>
					<path style="fill-rule:evenodd;clip-rule:evenodd;fill:#70441B;" d="M109.55,81c0-1.367-0.083-4.117-0.25-8.25
						c-0.166-3.7-0.233-6.2-0.2-7.5l0.25-5.85l0.351,0.05c-0.2,2.333-0.217,5.3-0.05,8.9c0.133,3.333,0.199,6.017,0.199,8.05
						c0,1.4-0.017,4.067-0.05,8c-0.033,2.534-0.116,6.5-0.25,11.9c-0.1,4.634-0.05,8.017,0.15,10.15l0.25,4.35l-0.4,6.601l-0.1,0.35
						c0-6.4-0.033-9.934-0.101-10.6c-0.166-2.4-0.199-6.017-0.1-10.851C109.45,86.566,109.55,81.467,109.55,81z"/>
					<path style="fill-rule:evenodd;clip-rule:evenodd;fill:#70441B;" d="M110.5,86.2c0.167-4.4,0.217-8.833,0.15-13.3
						c-0.134-2.367-0.233-4.316-0.301-5.85c-0.133-2.8-0.149-4.983-0.05-6.55v-0.1l0.3,0.6l0.101,4.7
						c0.066,1.933,0.2,4.517,0.399,7.75c0.067,1.6,0.084,3.383,0.051,5.35l-0.7,23.45C110.384,94.75,110.4,89.4,110.5,86.2z"/>
					<path style="fill-rule:evenodd;clip-rule:evenodd;fill:#70441B;" d="M103.6,79.65c0.367-6.267,0.634-13.167,0.801-20.7
						l0.5,0.05l-0.101,4.5c-0.133,5.333-0.383,11.6-0.75,18.8c-0.433,7.733-0.649,11.851-0.649,12.351
						c-0.033,1.633-0.134,3.866-0.301,6.699c-0.1,2.534-0.116,4.934-0.05,7.2c0.033,1.834,0.167,4.384,0.4,7.65
						c0.167,2.7,0.233,4.517,0.2,5.45c-0.033,0.967,0.083,1.833,0.35,2.6c0.233,0.8,0.35,1.434,0.35,1.9
						c-0.033,1.066-0.116,2.983-0.25,5.75l-0.5-0.2c0.067-3.4,0.101-5.3,0.101-5.7c-0.167-1.7-0.3-3.35-0.4-4.95
						c-0.066-2.066-0.166-4.083-0.3-6.05c-0.2-3.7-0.3-6-0.3-6.9l0.2-10C103.1,90.833,103.333,84.684,103.6,79.65z"/>
					<path style="fill-rule:evenodd;clip-rule:evenodd;fill:#70441B;" d="M107.9,89.15c0.166-8.4,0.233-14.584,0.199-18.55
						c-0.033-2.067-0.066-3.467-0.1-4.2c0-1.033,0.066-2.5,0.2-4.4l0.2-2.7l0.3,0.05c-0.134,3.267-0.2,5.617-0.2,7.05
						c0.033,1.6,0.083,4.184,0.15,7.75c0.033,3.6-0.017,7.383-0.15,11.35c-0.133,3.2-0.316,7.35-0.55,12.45
						c-0.134,3.8-0.101,6.566,0.1,8.3c0.434,4.5,0.617,9.417,0.55,14.75v0.4l-0.649,2.55v-2.25c0.066-1.5,0.116-3.083,0.149-4.75
						c0-0.733-0.116-2.55-0.35-5.45c-0.3-2.934-0.434-5.2-0.4-6.8C107.65,97.4,107.833,92.217,107.9,89.15z"/>
					<path style="fill-rule:evenodd;clip-rule:evenodd;fill:#70441B;" d="M106.5,59.15c-0.066,2.9-0.217,6.1-0.45,9.6
						c-0.2,3.267-0.45,6.417-0.75,9.45c-0.133,1.267-0.183,2.733-0.149,4.4c0,1.333,0.05,2,0.149,2l-0.149,3.9
						c-0.167,4.767-0.384,10.85-0.65,18.25c-0.066,2.6-0.15,5.25-0.25,7.95c-0.033,1.667,0.017,3.184,0.15,4.55
						c0.133,1.333,0.283,2.134,0.449,2.4c0.101,0.166,0.268,0.316,0.5,0.449c0.134,0.2,0.317,0.268,0.551,0.2
						c0.166,0.167,0.233,0.934,0.199,2.3c0,0.768,0.034,1.634,0.101,2.601c0.033,0.434-0.033,1.35-0.2,2.75
						c-0.1,0.8-0.267,1.649-0.5,2.55l-0.9-0.35l0.15-1.351c0.434-2.1,0.667-3.7,0.7-4.8c0.033-0.767,0.05-1.333,0.05-1.7
						c0-0.6-0.066-0.967-0.2-1.1c-0.467-0.367-0.767-0.7-0.899-1c-0.4-0.934-0.584-2.533-0.551-4.8
						c0.334-17.567,0.5-26.367,0.5-26.4c0.034-0.7,0.117-2.883,0.25-6.55c0-0.067,0.034-1.85,0.101-5.35
						c0.033-2.067,0.233-5.65,0.6-10.75c0.4-5.133,0.601-8.05,0.601-8.75v-0.5L106.5,59.15z"/>
				</g>
				<path style="fill-rule:evenodd;clip-rule:evenodd;fill:#673E19;" d="M116.15,58.1l-1.25,9.85
					c-0.867,7.566-1.417,13.783-1.65,18.649c-0.533,11.7-1.483,26.518-2.85,44.45l-4.551,1.601
					c0.434-13.334,0.917-25.533,1.45-36.601c0.334-6.899,0.851-15.066,1.55-24.5l0.9-12.1L116.15,58.1z"/>
				<g>
					<path style="fill-rule:evenodd;clip-rule:evenodd;fill:#5F3917;" d="M111.85,58.95c0.034,1.767,0.15,3.883,0.351,6.35
						c0.133,1.967,0.184,3.534,0.149,4.7c-0.066,2.6-0.149,7.233-0.25,13.9c-0.1,4.4-0.283,8.6-0.55,12.6
						c-0.133,2.7-0.033,5.884,0.3,9.55l0.15,1.8l-0.2,2.95c-0.399-3.333-0.6-5.433-0.6-6.3c-0.033-1.8-0.033-4.95,0-9.45
						c0.066-5.3,0.167-9.116,0.3-11.45c0.333-6.833,0.45-12.034,0.35-15.6c-0.232-5.6-0.35-8.583-0.35-8.95L111.85,58.95z"/>
					<path style="fill-rule:evenodd;clip-rule:evenodd;fill:#5F3917;" d="M113.65,58.6L113.6,80.85L112.7,96.8
						c0.133-5.866,0.233-10.5,0.3-13.9c0.134-7.667,0.2-14.783,0.2-21.35V58.7L113.65,58.6z"/>
					<path style="fill-rule:evenodd;clip-rule:evenodd;fill:#5F3917;" d="M106.45,115.6l0.25-6.399c0.5,4.533,0.717,8.8,0.649,12.8
						c-0.033,0.8-0.166,1.5-0.399,2.1c-0.134,0.301-0.05,1.617,0.25,3.95l0.45,3.95l-0.75,0.3c-0.101-0.666-0.184-1.666-0.25-3
						c-0.167-3.399-0.233-5.6-0.2-6.6l0.149-4.8L106.45,115.6z"/>
					<path style="fill-rule:evenodd;clip-rule:evenodd;fill:#5F3917;" d="M109.75,87.2c0.233-4.934,0.25-9.384,0.05-13.35
						c-0.267-3.167-0.45-5.717-0.55-7.65l0.5-6.75l0.4-0.1c-0.267,1.3-0.417,1.983-0.45,2.05c-0.066,0.833-0.017,2.6,0.149,5.3
						c0.134,2.3,0.317,4.883,0.551,7.75c0.166,1.667,0.233,3.45,0.199,5.35c-0.066,3.434-0.199,9-0.399,16.7
						c-0.101,5.066,0.033,10.066,0.399,15c0.034,0.4,0.15,1.434,0.351,3.1c0.1,0.834,0.184,2.567,0.25,5.2l-0.351,4.65L110.5,116
						c-0.033-0.7-0.167-2.066-0.4-4.1c-0.232-1.801-0.333-3.15-0.3-4.051C109.566,98.217,109.55,91.333,109.75,87.2z"/>
					<path style="fill-rule:evenodd;clip-rule:evenodd;fill:#5F3917;" d="M108.3,88.65c0.067-2.601,0.084-4.817,0.05-6.65l-0.1-2.2
						l0.4-5.7c0.066,2.033,0.083,5.783,0.05,11.25c0,2.534-0.083,6.517-0.25,11.95c-0.101,4.601,0,7.967,0.3,10.101
						c0.3,2.166,0.483,5.467,0.55,9.899c0.033,2.467,0.05,6.017,0.05,10.65l0.051,3.45l-0.851,0.3v-8
						c0-8.833-0.083-14.033-0.25-15.601c-0.267-2.466-0.35-6.066-0.25-10.8C108.05,96.6,108.134,93.717,108.3,88.65z"/>
					<path style="fill-rule:evenodd;clip-rule:evenodd;fill:#5F3917;" d="M115.2,58.3v0.65c0,1.7-0.15,5.066-0.45,10.1l-0.45,4.25
						l0.05-0.75c0.233-6.733,0.367-11.233,0.4-13.5v-0.7L115.2,58.3z"/>
					<polygon style="fill-rule:evenodd;clip-rule:evenodd;fill:#5F3917;" points="115.85,58.15 116.15,58.1 115.85,60.25 					"/>
				</g>
				
					<use xlink:href="#FlashAICB_x2F_Layer_1_x2F__x3C_Path_x3E__x5F_63"  width="10.3" height="74.55" y="-74.55" transform="matrix(1 0 0 -1 105.8496 58.1001)" style="overflow:visible;opacity:0.3281;enable-background:new    ;"/>
				<polygon style="fill-rule:evenodd;clip-rule:evenodd;fill:#523113;" points="104.4,66.4 108,64 109.45,64.15 108.75,74.15 
					102.55,71.45 102.7,69.8 				"/>
				<path style="fill-rule:evenodd;clip-rule:evenodd;fill:#746559;" d="M61.2,77.3c0.633,0.534,0.783,1.45,0.45,2.75
					c-0.333,1.467-1.3,2.15-2.9,2.05c-1.467-0.067-2.233-0.833-2.3-2.3c-0.1-1.233,0.167-2.216,0.8-2.95l1.05-0.65
					c0.6-0.2,0.717,0.35,0.35,1.65c-0.6,1.9-0.4,2.716,0.6,2.45c1.033-0.3,1.184-1.133,0.45-2.5c-0.2-0.4-0.117-0.683,0.25-0.85
					C60.316,76.783,60.733,76.9,61.2,77.3z"/>
				<path style="fill-rule:evenodd;clip-rule:evenodd;fill:#746559;" d="M94.75,69.1l0.85-0.6c0.467-0.2,0.551,0.3,0.25,1.5
					c-0.466,1.7-0.283,2.417,0.551,2.15c0.833-0.267,0.949-1.017,0.35-2.25c-0.167-0.367-0.1-0.617,0.2-0.75s0.616-0.033,0.95,0.3
					c0.533,0.466,0.666,1.3,0.399,2.5c-0.267,1.333-1.05,1.966-2.35,1.9c-1.2-0.067-1.833-0.75-1.9-2.05
					C93.983,70.667,94.217,69.767,94.75,69.1z"/>
				<path style="fill-rule:evenodd;clip-rule:evenodd;fill:#A46128;" d="M77.15,77.85c2.733-1.133,5.65-1.3,8.75-0.5
					c2.8,0.733,4.983,2,6.55,3.8c0.866,0.967,1.934,1.6,3.2,1.9c0.633,0.134,1.183,0.184,1.649,0.15l3.55,1l-7.699,20.5l-13.5,9.3
					c-9.566,6.6-15.783,10.934-18.65,13c-0.1,0.066-1.533-0.667-4.3-2.2l-0.1-11.95c-0.034-3.8-0.167-8.183-0.4-13.149l-0.35-6.3
					l4-1.5c2.867-1.334,4.833-2.783,5.9-4.351c1.333-1.866,3.15-3.783,5.45-5.75C73.467,79.867,75.45,78.55,77.15,77.85z"/>
				
					<linearGradient id="SVGID_8_" gradientUnits="userSpaceOnUse" x1="101.7959" y1="-46.084" x2="126.058" y2="-46.084" gradientTransform="matrix(0.1154 0.9933 -0.9933 0.1154 1.747236e-004 4.854947e-004)">
					<stop  offset="0" style="stop-color:#C27635"/>
					<stop  offset="1" style="stop-color:#8B5324"/>
				</linearGradient>
				<path style="fill-rule:evenodd;clip-rule:evenodd;fill:url(#SVGID_8_);" d="M55.85,93.4h0.05l4.4,1.1l1.5,2
					c0.6,13.833,0.884,20.867,0.85,21.1l-0.5,8.601L61,127c-0.1,0.066-1.533-0.667-4.3-2.2l-0.1-11.95
					c-0.034-3.8-0.167-8.183-0.4-13.149L55.85,93.4z"/>
				<path style="fill-rule:evenodd;clip-rule:evenodd;fill:#C0B193;" d="M80.8,78.75c2.667-1.1,5.217-1.25,7.65-0.45
					c2,0.667,3.816,1.934,5.45,3.8c0.866,0.966,2.283,1.6,4.25,1.9c1,0.133,1.916,0.184,2.75,0.15l-0.551,28.65
					c-5.5,2.3-11.1,4.434-16.8,6.4c-2.9,1-7.4,2.467-13.5,4.399l-8.3,2.551c-0.167-3.567-0.267-7.551-0.3-11.95
					c-0.034-3.8-0.1-8.2-0.2-13.2l-0.2-6.35c1-0.4,2.117-0.95,3.35-1.65c2.467-1.4,4.25-2.883,5.35-4.45
					c1.367-1.933,3.117-3.866,5.25-5.8C77.233,80.75,79.167,79.417,80.8,78.75z"/>
				
					<use xlink:href="#FlashAICB_x2F_Layer_1_x2F__x3C_Path_x3E__x5F_56"  width="36.8" height="44.869" y="-44.85" transform="matrix(1 0 0 -1 61.9502 79.5498)" style="overflow:visible;opacity:0.1914;enable-background:new    ;"/>
				<path style="fill-rule:evenodd;clip-rule:evenodd;fill:#614028;" d="M74.8,82.7c2.3-1.934,4.3-3.25,6-3.95
					c4.267-1.8,8.184-1.133,11.75,2l0.45,0.5l0.65,0.55l0.25,0.3c1.133,1.267,3.149,1.95,6.05,2.05l-0.5,27.75
					c-5.5,2.333-11.101,4.467-16.8,6.399l-21.75,7.5c-0.1-2.267-0.183-6.066-0.25-11.399c0-3.801-0.05-8.267-0.15-13.4l-0.2-6.5
					c1.067-0.366,2.25-0.9,3.55-1.6c2.6-1.367,4.433-2.851,5.5-4.45C70.684,86.583,72.5,84.667,74.8,82.7z M81.4,80.15
					c-1.5,0.6-3.383,1.85-5.65,3.75c-2.333,1.9-4.083,3.667-5.25,5.3c-0.967,1.366-2.533,2.733-4.7,4.1
					c-1.066,0.7-2.05,1.25-2.95,1.65l0.05,16.7c0,3.8,0.05,7.533,0.15,11.199l35.05-11.8l0.45-26c-0.666,0-1.399-0.1-2.2-0.3
					c-1.6-0.367-2.783-0.967-3.55-1.8C89.5,79.316,85.7,78.383,81.4,80.15z"/>
				<path style="fill-rule:evenodd;clip-rule:evenodd;fill:#553925;" d="M99.95,85.9l-0.05,0.5l-0.45,25.5l-0.4-0.4L98.1,111
					l0.45-25.95c-0.399,0-0.866-0.05-1.399-0.15l0.399-0.35l1.9,0.4L99.95,85.9z"/>
				<path style="fill-rule:evenodd;clip-rule:evenodd;fill:#643D1D;" d="M80.8,78.75c2.667-1.1,5.217-1.25,7.65-0.45
					c2,0.667,3.816,1.934,5.45,3.8c0.866,0.966,2.283,1.6,4.25,1.9c1,0.133,1.916,0.184,2.75,0.15l-0.551,28.65
					c-5.5,2.3-11.1,4.434-16.8,6.4L60.9,127c-0.133-4.033-0.216-8.233-0.25-12.6c0-3.801-0.05-8.267-0.15-13.4l-0.2-6.5
					c1.034-0.4,2.184-0.95,3.45-1.65c2.533-1.399,4.4-2.866,5.6-4.399c1.867-2.333,3.816-4.367,5.85-6.1
					C77.233,80.65,79.1,79.45,80.8,78.75z M76.7,84.8c-2.167,1.767-3.983,3.483-5.45,5.15c-1.667,1.866-4.15,3.833-7.45,5.899v16.65
					c0.034,3.8,0.1,7.55,0.2,11.25l19.25-6.55c5.033-1.7,10.3-3.601,15.8-5.7l0.4-25.55c-0.733-0.1-1.533-0.284-2.4-0.55
					c-1.767-0.566-3.033-1.267-3.8-2.1c-2.967-3.333-6.616-4.1-10.95-2.3C80.9,81.566,79.033,82.833,76.7,84.8z"/>
				<path style="fill-rule:evenodd;clip-rule:evenodd;fill:#432D1C;" d="M59.4,92.45l0.45,0.2c0.367,0.133,0.667,0.199,0.9,0.199
					c0.367,0,0.517,0.15,0.45,0.45c-0.034,0.3-0.333,0.467-0.9,0.5c-0.466,0.033-0.833-0.05-1.1-0.25L59,93.3L59.4,92.45z"/>
				<path style="fill-rule:evenodd;clip-rule:evenodd;fill:#432D1C;" d="M62.1,91.6l1.4-0.6c1-0.167,1.383-0.066,1.15,0.3
					c-0.267,0.5-0.816,0.783-1.65,0.851c-0.267,0-0.5-0.084-0.7-0.25L62.1,91.6z"/>
				<path style="fill-rule:evenodd;clip-rule:evenodd;fill:#5D5148;" d="M58.6,87.05c0.2-0.3,0.7-0.183,1.5,0.351
					c0.767,0.533,1.216,1.017,1.35,1.449c0.167,0.534,0.183,1.018,0.05,1.45c-0.2,0.533-0.65,0.684-1.35,0.45
					C59.483,90.517,59,89.9,58.7,88.9C58.4,88,58.367,87.384,58.6,87.05z"/>
				<path style="fill-rule:evenodd;clip-rule:evenodd;fill:#5D5148;" d="M94.9,78.6c0.233-0.267,0.699-0.083,1.399,0.55
					c0.634,0.6,0.983,1.117,1.05,1.55c0.101,0.5,0.051,0.95-0.149,1.35c-0.267,0.5-0.7,0.6-1.3,0.3c-0.634-0.3-1.017-0.95-1.15-1.95
					C94.583,79.533,94.634,78.934,94.9,78.6z"/>
				<path style="fill-rule:evenodd;clip-rule:evenodd;fill:#746559;" d="M60.95,90.4c-0.3,0.1-0.483,0.3-0.55,0.6
					c-0.1,0.4,0.067,1.066,0.5,2c-0.066,0.333-0.433,0.533-1.1,0.6c-0.3,0.034-0.55-0.033-0.75-0.199l-0.25-0.2
					c-0.3-0.434-0.483-1.066-0.55-1.9c-0.033-0.566,0.117-1.083,0.45-1.55c0.3-0.4,0.667-0.684,1.1-0.85
					c1.3-0.634,2.384-0.5,3.25,0.399c0.4,0.467,0.684,1,0.85,1.601c0.233,0.433-0.066,0.8-0.9,1.1c-0.367,0.134-0.667,0-0.9-0.4
					c0.133-0.466,0.033-0.833-0.3-1.1C61.533,90.333,61.25,90.3,60.95,90.4z"/>
				<path style="fill-rule:evenodd;clip-rule:evenodd;fill:#746559;" d="M94.9,81.6c0.233-0.267,0.583-0.417,1.05-0.45
					c0.5,0,0.95,0.133,1.35,0.4c0.533,0.4,0.75,1.134,0.65,2.2c-0.101,0.033-0.283,0-0.55-0.1l-0.551-0.3
					c0.167-0.567,0.034-0.833-0.399-0.8c-0.3,0-0.55,0.1-0.75,0.3c-0.101,0.1-0.184,0.2-0.25,0.3l-0.25-0.1l-0.9-0.55L94.9,81.6z"/>
				<path style="fill-rule:evenodd;clip-rule:evenodd;fill:#65584E;" d="M97.55,71.85c0.533,0.2,0.917,0.583,1.15,1.15
					c0.267,0.6,0.35,1.267,0.25,2c-0.066,0.767-0.3,1.316-0.7,1.65c-0.434,0.4-1.05,0.6-1.85,0.6c-0.867,0-1.483-0.3-1.851-0.9
					c-0.3-0.534-0.383-1.217-0.25-2.05l0.3-1.05l0.4,0.3c0.167,0.1,0.35,0.167,0.55,0.2l-0.1,0.4c-0.066,0.3-0.066,0.617,0,0.95
					c0.1,0.4,0.283,0.533,0.55,0.4c0.3-0.133,0.5-0.583,0.6-1.35c0.101-0.7,0.034-1.25-0.199-1.65l-0.351-0.45
					C96.483,71.717,96.983,71.65,97.55,71.85z"/>
				<path style="fill-rule:evenodd;clip-rule:evenodd;fill:#746559;" d="M96.45,74.8c-0.066,0.3-0.217,0.55-0.45,0.75l-0.15,0.1
					c-0.133,0.133-0.267,0.317-0.399,0.55c-0.167,0.3-0.233,0.667-0.2,1.1c0.066,0.5,0.283,0.767,0.65,0.8
					c0.5,0.1,0.816-0.184,0.949-0.85L97.7,77l0.55-0.35l0.1,1.45c-0.166,1-0.85,1.583-2.05,1.75c-1.3,0.167-2.2-0.167-2.7-1
					c-0.399-0.7-0.433-1.517-0.1-2.45c0.233-0.667,0.6-1.183,1.1-1.55c0.434-0.333,0.801-0.5,1.101-0.5
					c0.5-0.034,0.783-0.017,0.85,0.05C96.583,74.434,96.55,74.566,96.45,74.8z"/>
				<path style="fill-rule:evenodd;clip-rule:evenodd;fill:#65584E;" d="M95.9,77.6c0.3-0.1,0.616-0.083,0.949,0.05
					c0.367,0.167,0.667,0.467,0.9,0.9c0.3,0.5,0.45,1.3,0.45,2.4c0,1.066-0.167,1.7-0.5,1.9c-0.566,0.333-1.066,0.283-1.5-0.15
					c0.2-1.233,0.167-2.45-0.101-3.65c-0.066-0.4-0.183-0.7-0.35-0.9L95.5,78c0-0.033,0-0.083,0-0.15
					C95.566,77.75,95.7,77.667,95.9,77.6z"/>
				<path style="fill-rule:evenodd;clip-rule:evenodd;fill:#65584E;" d="M58.75,80.2c0.4-0.434,0.9-0.567,1.5-0.4
					c0.6,0.134,1.083,0.483,1.45,1.05c0.333,0.566,0.517,1.233,0.55,2c0.033,0.8-0.117,1.383-0.45,1.75
					c-0.4,0.466-1.017,0.75-1.85,0.85c-0.9,0.1-1.583-0.134-2.05-0.7c-0.4-0.5-0.6-1.184-0.6-2.05l0.15-1.15l0.45,0.25
					c0.2,0.1,0.4,0.167,0.6,0.2l-0.05,0.4c-0.034,0.3,0.017,0.633,0.15,1c0.133,0.4,0.35,0.517,0.65,0.35c0.3-0.2,0.45-0.7,0.45-1.5
					c0-0.7-0.15-1.25-0.45-1.65L58.75,80.2z"/>
				<path style="fill-rule:evenodd;clip-rule:evenodd;fill:#746559;" d="M58.75,82.55c0.533-0.066,0.833-0.083,0.9-0.05
					c0.034,0.033,0.017,0.184-0.05,0.45c-0.034,0.333-0.15,0.6-0.35,0.8L58.8,84.5c-0.133,0.333-0.15,0.717-0.05,1.15
					c0.133,0.5,0.383,0.75,0.75,0.75c0.566,0.033,0.867-0.301,0.9-1l0.85-0.35l0.55-0.45l0.3,1.5c-0.034,1.034-0.65,1.7-1.85,2
					c-1.367,0.334-2.367,0.117-3-0.649c-0.533-0.667-0.684-1.5-0.45-2.5c0.167-0.7,0.467-1.284,0.9-1.75
					C58.1,82.8,58.45,82.583,58.75,82.55z"/>
				<path style="fill-rule:evenodd;clip-rule:evenodd;fill:#65584E;" d="M59.45,85.85c0.3-0.133,0.633-0.15,1-0.05
					c0.433,0.134,0.8,0.417,1.1,0.851c0.367,0.467,0.634,1.25,0.8,2.35c0.133,1.134,0.05,1.8-0.25,2
					c-0.534,0.434-1.05,0.45-1.55,0.05c0.034-1.3-0.183-2.55-0.65-3.75c-0.133-0.399-0.316-0.683-0.55-0.85L59.1,86.3
					c-0.034-0.033-0.034-0.083,0-0.149C59.133,86.05,59.25,85.95,59.45,85.85z"/>
				<path style="fill-rule:evenodd;clip-rule:evenodd;fill:#A29186;" d="M56.75,79.65l0.45-0.05v0.2c0,0.567,0.1,0.934,0.3,1.1
					c0.2,0.2,0.25,0.317,0.15,0.35c-0.066,0.033-0.216-0.066-0.45-0.3C56.9,80.684,56.75,80.25,56.75,79.65z"/>
				<path style="fill-rule:evenodd;clip-rule:evenodd;fill:#A29186;" d="M60.05,80.1c0.467,0.3,0.784,0.75,0.95,1.35
					c0.133,0.533,0,1.167-0.4,1.9v-1c0-0.434-0.083-0.833-0.25-1.2c-0.2-0.333-0.317-0.55-0.35-0.65c-0.066-0.133-0.1-0.25-0.1-0.35
					C59.9,80.083,59.95,80.066,60.05,80.1z"/>
				<path style="fill-rule:evenodd;clip-rule:evenodd;fill:#A29186;" d="M58.15,83.25c0.4-0.066,0.267,0.233-0.4,0.9
					c-0.267,0.3-0.383,0.983-0.35,2.05c-0.167-0.101-0.233-0.467-0.2-1.1c0.033-0.467,0.15-0.9,0.35-1.3
					C57.75,83.467,57.95,83.283,58.15,83.25z"/>
				<path style="fill-rule:evenodd;clip-rule:evenodd;fill:#A29186;" d="M60.15,86.15c0.434,0.3,0.7,1.166,0.8,2.6L60.7,87.9
					c-0.134-0.4-0.4-0.851-0.8-1.351c-0.1-0.166-0.117-0.3-0.05-0.399C59.917,86.05,60.017,86.05,60.15,86.15z"/>
				<path style="fill-rule:evenodd;clip-rule:evenodd;fill:#A29186;" d="M59.05,89.8c0.367-0.133,0.317,0.101-0.15,0.7
					c-0.2,0.267-0.216,0.733-0.05,1.4c-0.2-0.134-0.3-0.4-0.3-0.801C58.55,90.367,58.717,89.934,59.05,89.8z"/>
				<path style="fill-rule:evenodd;clip-rule:evenodd;fill:#A29186;" d="M94.8,72c-0.133,0.533,0.084,1.017,0.65,1.45
					c-0.233,0-0.483-0.15-0.75-0.45c-0.167-0.2-0.25-0.434-0.25-0.7v-0.35L94.8,72z"/>
				<path style="fill-rule:evenodd;clip-rule:evenodd;fill:#A29186;" d="M97.45,72.4l0.149,0.3c0.101,0.3,0.134,0.683,0.101,1.15
					c-0.033,0.733-0.267,1.333-0.7,1.8l0.25-0.75c0.066-0.267,0.05-0.966-0.05-2.1c-0.033-0.267-0.033-0.4,0-0.4
					C97.2,72.367,97.283,72.367,97.45,72.4z"/>
				<path style="fill-rule:evenodd;clip-rule:evenodd;fill:#A29186;" d="M95,74.85c0.267-0.1,0.384-0.083,0.35,0.05
					c-0.033,0.133-0.267,0.333-0.699,0.6c-0.567,0.4-0.783,1.083-0.65,2.05c-0.233-0.233-0.283-0.583-0.15-1.05
					c0.067-0.333,0.233-0.684,0.5-1.05C94.583,75.117,94.8,74.917,95,74.85z"/>
				<path style="fill-rule:evenodd;clip-rule:evenodd;fill:#A29186;" d="M96.4,78.05c0.3,0.167,0.449,0.667,0.449,1.5v1.95
					l-0.05-0.95c-0.033-0.566-0.183-1.233-0.45-2c-0.133-0.3-0.183-0.483-0.149-0.55S96.3,77.95,96.4,78.05z"/>
				<path style="fill-rule:evenodd;clip-rule:evenodd;fill:#A29186;" d="M95.7,81.35c0.167,0,0.217,0.05,0.149,0.15
					c-0.033,0.1-0.149,0.184-0.35,0.25l-0.9,0.6l0.15-0.3C95.05,81.65,95.367,81.417,95.7,81.35z"/>
				
					<use xlink:href="#FlashAICB_x2F_Layer_1_x2F__x3C_Path_x3E__x5F_32"  width="10.199" height="16.796" x="-0.002" y="-16.719" transform="matrix(1 0 0 -1 69.1499 101.3496)" style="overflow:visible;opacity:0.1914;enable-background:new    ;"/>
				
					<use xlink:href="#FlashAICB_x2F_Layer_1_x2F__x3C_Path_x3E__x5F_31"  width="2.866" height="14.776" x="-0.013" y="-14.752" transform="matrix(1 0 0 -1 87.4502 97.8496)" style="overflow:visible;opacity:0.1914;enable-background:new    ;"/>
				
					<use xlink:href="#FlashAICB_x2F_Layer_1_x2F__x3C_Compound_Path_x3E__x5F_5"  width="8.373" height="11.092" x="-0.029" y="-11.135" transform="matrix(1 0 0 -1 78.7002 103.1504)" style="overflow:visible;opacity:0.1914;enable-background:new    ;"/>
				
					<use xlink:href="#FlashAICB_x2F_Layer_1_x2F__x3C_Compound_Path_x3E__x5F_4"  width="6.151" height="9.892" x="0.016" y="-9.892" transform="matrix(1 0 0 -1 91.0996 100.6504)" style="overflow:visible;opacity:0.1914;enable-background:new    ;"/>
				
					<use xlink:href="#FlashAICB_x2F_Layer_1_x2F__x3C_Path_x3E__x5F_30"  width="5.807" height="11.796" x="0.003" y="-11.786" transform="matrix(1 0 0 -1 76.8501 86.5)" style="overflow:visible;opacity:0.1914;enable-background:new    ;"/>
				
					<use xlink:href="#FlashAICB_x2F_Layer_1_x2F__x3C_Compound_Path_x3E__x5F_3"  width="5.461" height="6.566" x="-0.011" y="-6.545" transform="matrix(1 0 0 -1 82.6001 89.7998)" style="overflow:visible;opacity:0.1914;enable-background:new    ;"/>
				
					<use xlink:href="#FlashAICB_x2F_Layer_1_x2F__x3C_Path_x3E__x5F_29"  width="4.829" height="7.496" y="-7.53" transform="matrix(1 0 0 -1 88.5996 88.0996)" style="overflow:visible;opacity:0.1914;enable-background:new    ;"/>
				<path style="fill-rule:evenodd;clip-rule:evenodd;fill:#553925;" d="M75.8,100.7c0.6,0.566,0.733,1.149,0.4,1.75
					c-0.333,0.667-0.967,0.883-1.9,0.649c-1-0.232-1.767-0.1-2.3,0.4s-0.667,1.2-0.4,2.1c0.2,0.667,0.7,1.117,1.5,1.351
					c1.5,0.467,2.55,0.866,3.15,1.2c1.2,0.666,1.9,1.649,2.1,2.949c0.167,1,0.033,1.983-0.4,2.95c-0.4,0.934-1.034,1.684-1.9,2.25
					c-1.066,0.7-2.333,1-3.8,0.9c-1.434-0.101-2.517-0.517-3.25-1.25c-0.633-0.601-0.867-1.167-0.7-1.7
					c0.134-0.366,0.384-0.616,0.75-0.75c0.367-0.1,0.7,0,1,0.3c1,1.101,2.333,1.3,4,0.601c1.267-0.533,1.8-1.334,1.6-2.4
					c-0.2-1.167-1.267-1.983-3.2-2.45c-1.934-0.467-3.184-1.483-3.75-3.05c-0.5-1.366-0.367-2.684,0.4-3.95
					c0.6-1,1.816-1.649,3.65-1.95C74.383,100.333,75.4,100.367,75.8,100.7z"/>
				<path style="fill-rule:evenodd;clip-rule:evenodd;fill:#553925;" d="M88,97.15c0.867,0.733,1.316,3.217,1.35,7.449
					c0.067,4.034-0.149,6.367-0.649,7c-0.333,0.434-0.667-0.517-1-2.85c-0.533-3.733-0.833-5.733-0.9-6
					c-0.333-1.566-0.366-3.017-0.1-4.35C86.967,97.066,87.4,96.65,88,97.15z"/>
				<path style="fill-rule:evenodd;clip-rule:evenodd;fill:#553925;" d="M82.7,109.1c-0.467,0.067-0.85,0.334-1.15,0.801
					c-0.366,0.566-0.333,1.133,0.1,1.699c0.434,0.601,1.034,0.7,1.8,0.301c0.7-0.334,1.017-0.801,0.95-1.4
					c-0.033-0.434-0.216-0.783-0.55-1.05S83.133,109.066,82.7,109.1z M81.9,102.3c1.133,0.033,2.05,0.483,2.75,1.351
					c0.667,0.833,1.117,2.483,1.35,4.949c0.233,2.334,0.184,3.75-0.15,4.25c-0.399,0.534-0.699,0.45-0.899-0.25
					c0.033,0.233-0.967,0.483-3,0.75c-1.367,0.2-2.167-0.433-2.4-1.899c-0.2-1.4,0.117-2.467,0.95-3.2
					c0.6-0.533,1.316-0.75,2.15-0.65c0.434,0.034,0.8,0.117,1.1,0.25c0.233-0.966,0.033-1.916-0.6-2.85c-0.4-0.6-1.05-0.8-1.95-0.6
					c-0.3,0.066-1.017,0.35-2.15,0.85c-0.566,0.233-0.966,0.083-1.2-0.45c-0.2-0.5-0.1-0.899,0.3-1.2
					C79.417,102.667,80.667,102.233,81.9,102.3z"/>
				<path style="fill-rule:evenodd;clip-rule:evenodd;fill:#553925;" d="M94.35,101.4c-0.366-0.267-0.833-0.283-1.399-0.051
					c-0.333,0.167-0.55,0.534-0.65,1.101c-0.1,0.6,0.017,0.833,0.351,0.7c0.233-0.101,0.649-0.25,1.25-0.45
					c0.5-0.2,0.767-0.384,0.8-0.55C94.767,101.884,94.65,101.634,94.35,101.4z M92.1,100.15c1.101-0.533,2.051-0.483,2.851,0.149
					c0.533,0.4,0.934,0.983,1.2,1.75c0.133,0.3-0.367,0.733-1.5,1.3c-1.367,0.634-2.167,1.15-2.4,1.551
					c-0.4,0.6-0.417,1.316-0.05,2.149c0.366,0.867,0.967,1.2,1.8,1c2.1-0.633,2.783-0.433,2.05,0.601
					c-0.566,0.833-1.483,1.166-2.75,1c-1.333-0.2-2.25-0.851-2.75-1.95c-0.433-1-0.5-2.384-0.2-4.15
					C90.684,101.684,91.267,100.55,92.1,100.15z"/>
				<path style="fill-rule:evenodd;clip-rule:evenodd;fill:#553925;" d="M80.1,85.65c1.033-0.2,1.583,0.1,1.65,0.9
					c0.033,0.834-0.25,1.283-0.85,1.351c-1.466,0.133-2.383,0.666-2.75,1.6c-0.133,0.3-0.167,0.816-0.1,1.55
					c1.567-0.633,2.45-0.717,2.65-0.25c0.167,0.334-0.067,0.7-0.7,1.101c-0.533,0.3-1.1,0.5-1.7,0.6c0.034,0.2,0.267,1.1,0.7,2.7
					c0.233,0.833,0.233,1.45,0,1.85c-0.233,0.367-0.617,0.45-1.15,0.25c-0.5-0.233-0.967-1.233-1.4-3
					c-0.434-1.767-0.6-3.333-0.5-4.7C76.117,87.5,77.5,86.184,80.1,85.65z"/>
				<path style="fill-rule:evenodd;clip-rule:evenodd;fill:#553925;" d="M83.5,89.2c1.133-0.566,2.066-0.384,2.8,0.55
					c0.567,0.733,0.834,1.434,0.8,2.1c-0.166,2.667-1.35,3.867-3.55,3.601c-1.466-0.167-2.066-1.15-1.8-2.95
					C81.983,90.8,82.566,89.7,83.5,89.2z M84.6,93.45c0.8-0.134,1.183-0.684,1.15-1.65s-0.417-1.366-1.15-1.2
					c-0.567,0.134-0.9,0.667-1,1.601S83.833,93.55,84.6,93.45z"/>
				<path style="fill-rule:evenodd;clip-rule:evenodd;fill:#553925;" d="M88.95,87.75c0.2,0.3,0.3,0.517,0.3,0.65
					c0.167-0.2,0.384-0.4,0.65-0.601c0.5-0.399,0.967-0.583,1.399-0.55c0.5,0.066,0.867,0.3,1.101,0.7
					c0.199,0.399,0.166,0.733-0.101,1c-0.1,0.1-0.383,0.083-0.85-0.05c-0.467-0.101-0.851-0.017-1.15,0.25
					c-0.399,0.399-0.717,0.933-0.95,1.6c-0.199,0.634-0.25,1.2-0.149,1.7c0.267,1.267,0.267,1.983,0,2.149
					c-0.3,0.167-0.583,0.2-0.851,0.101c-0.366-0.101-0.566-0.367-0.6-0.8c-0.033-0.733-0.05-1.717-0.05-2.95
					c0.033-1.233,0.083-2.017,0.149-2.351c0.101-0.366,0.268-0.649,0.5-0.85C88.617,87.55,88.816,87.55,88.95,87.75z"/>
				<path style="fill-rule:evenodd;clip-rule:evenodd;fill:#7A5135;" d="M79.15,86.35c0.434-0.133,0.417-0.05-0.05,0.25
					c-0.8,0.467-1.317,0.817-1.55,1.051c-0.566,0.633-0.85,1.55-0.85,2.75c-0.233-1-0.167-1.801,0.2-2.4
					C77.3,87.233,78.05,86.684,79.15,86.35z"/>
				<path style="fill-rule:evenodd;clip-rule:evenodd;fill:#7A5135;" d="M80.05,90.75c-0.167,0.167-0.383,0.267-0.65,0.3l-1.05,0.2
					l0.6-0.3C79.217,90.816,79.583,90.75,80.05,90.75z"/>
				<path style="fill-rule:evenodd;clip-rule:evenodd;fill:#7A5135;" d="M83.65,89.55c0.2-0.066,0.267-0.033,0.2,0.101
					c-0.1,0.166-0.3,0.35-0.6,0.55s-0.566,0.633-0.8,1.3c-0.1,0.367-0.184,0.7-0.25,1c0-0.333,0.083-0.8,0.25-1.4
					C82.65,90.434,83.05,89.917,83.65,89.55z"/>
				<path style="fill-rule:evenodd;clip-rule:evenodd;fill:#7A5135;" d="M86.15,92.3c0.199-0.133,0.25-0.05,0.149,0.25
					c-0.1,0.3-0.25,0.533-0.45,0.7c-0.199,0.2-0.482,0.367-0.85,0.5c0.134-0.066,0.316-0.217,0.55-0.45
					c0.134-0.1,0.25-0.283,0.351-0.55C86,92.483,86.083,92.333,86.15,92.3z"/>
				<path style="fill-rule:evenodd;clip-rule:evenodd;fill:#7A5135;" d="M88.45,88.2c0.133,0,0.2,0.083,0.2,0.25
					s-0.067,0.333-0.2,0.5c-0.134,0.233-0.2,1.1-0.2,2.6c-0.1-0.366-0.15-0.866-0.15-1.5C88.1,88.85,88.217,88.233,88.45,88.2z"/>
				<path style="fill-rule:evenodd;clip-rule:evenodd;fill:#7A5135;" d="M91.2,87.5c0.167,0.066,0.2,0.15,0.1,0.25
					c-0.133,0.1-0.333,0.15-0.6,0.15c-0.233-0.033-0.517,0.05-0.851,0.25c-0.133,0.1-0.267,0.199-0.399,0.3L90,88
					C90.5,87.6,90.9,87.434,91.2,87.5z"/>
				<path style="fill-rule:evenodd;clip-rule:evenodd;fill:#7A5135;" d="M70.2,102.1c0.333-0.166,0.45-0.116,0.35,0.15
					c-0.1,0.167-0.4,0.634-0.9,1.4c-0.367,0.566-0.417,1.366-0.15,2.399c0.167,0.5,0.35,0.95,0.55,1.351
					c-0.6-0.334-0.933-1.217-1-2.65C68.983,103.35,69.367,102.467,70.2,102.1z"/>
				<path style="fill-rule:evenodd;clip-rule:evenodd;fill:#7A5135;" d="M69.25,113.9c0.434,0,0.4,0.199-0.1,0.6
					c-0.233,0.167-0.3,0.417-0.2,0.75c0.015,0.074,0.04,0.149,0.075,0.225L68.75,115c-0.167-0.3-0.184-0.566-0.05-0.8
					C68.833,114.033,69.017,113.934,69.25,113.9z"/>
				<path style="fill-rule:evenodd;clip-rule:evenodd;fill:#7A5135;" d="M76.1,112.9c0.233-0.233,0.283-0.134,0.15,0.3
					c-0.167,0.434-0.417,0.767-0.75,1c-0.5,0.3-1.1,0.517-1.8,0.649l0.95-0.5c0.4-0.166,0.717-0.433,0.95-0.8
					C75.833,113.217,76,113,76.1,112.9z"/>
				<path style="fill-rule:evenodd;clip-rule:evenodd;fill:#7A5135;" d="M78.3,104.375L78.5,104c0.1-0.233,0.4-0.467,0.9-0.7
					c0.467-0.233,0.967-0.399,1.5-0.5c0.2-0.033,0.15,0.05-0.15,0.25c-0.333,0.2-0.717,0.351-1.15,0.45
					c-0.4,0.1-0.75,0.283-1.05,0.55C78.447,104.153,78.364,104.262,78.3,104.375z"/>
				<path style="fill-rule:evenodd;clip-rule:evenodd;fill:#7A5135;" d="M79.825,110.6l0.275-1c0.133-0.5,0.367-0.883,0.7-1.149
					c0.267-0.233,0.517-0.333,0.75-0.3c0.434,0,0.184,0.25-0.75,0.75c-0.3,0.199-0.55,0.55-0.75,1.05
					C79.962,110.184,79.888,110.4,79.825,110.6z"/>
				<path style="fill-rule:evenodd;clip-rule:evenodd;fill:#7A5135;" d="M84.75,110.9l0.1,0.25c0.033,0.233-0.017,0.416-0.15,0.55
					c-0.167,0.233-0.467,0.383-0.9,0.45l0.3-0.2C84.533,111.65,84.75,111.3,84.75,110.9z"/>
				<path style="fill-rule:evenodd;clip-rule:evenodd;fill:#7A5135;" d="M87.45,97.9c0.333-0.301,0.316,0.333-0.05,1.899
					c-0.101,0.601-0.067,2.084,0.1,4.45l-0.35-2.15c-0.134-1-0.15-1.933-0.051-2.8C87.167,98.5,87.283,98.033,87.45,97.9z"/>
				<path style="fill-rule:evenodd;clip-rule:evenodd;fill:#7A5135;" d="M92.25,100.55c0.434-0.166,0.583-0.133,0.45,0.101
					c-0.101,0.166-0.333,0.399-0.7,0.699c-0.233,0.2-0.533,0.75-0.9,1.65c-0.199,0.434-0.366,0.85-0.5,1.25l0.25-1.05
					c0.101-0.5,0.317-1.05,0.65-1.65C91.8,100.95,92.05,100.617,92.25,100.55z"/>
				<path style="fill-rule:evenodd;clip-rule:evenodd;fill:#7A5135;" d="M95.2,101.5l0.2,0.75c-0.067,0.2-0.384,0.367-0.95,0.5
					c0.399-0.2,0.633-0.417,0.7-0.65c0.033-0.133,0.017-0.3-0.051-0.5C95.066,101.5,95.1,101.467,95.2,101.5z"/>
				<path style="fill-rule:evenodd;clip-rule:evenodd;fill:#7A5135;" d="M95.3,107.95c0.3-0.033,0.2,0.033-0.3,0.2
					c-0.5,0.199-0.8,0.267-0.9,0.199c-0.1-0.033,0.034-0.1,0.4-0.199C94.8,108.05,95.066,107.983,95.3,107.95z"/>
				
					<linearGradient id="SVGID_9_" gradientUnits="userSpaceOnUse" x1="80.8022" y1="23.2764" x2="93.2514" y2="23.2764" gradientTransform="matrix(0.7611 0.6486 -0.6486 0.7611 -1.037717e-004 2.785325e-004)">
					<stop  offset="0" style="stop-color:#B16B30"/>
					<stop  offset="1" style="stop-color:#6B411B"/>
				</linearGradient>
				<path style="fill-rule:evenodd;clip-rule:evenodd;fill:url(#SVGID_9_);" d="M56.6,70.2l1.55,7.5l-2.05,1.65
					c-2.333-0.2-4.15-0.383-5.45-0.55l-4.95-0.65v-7.4L56.6,70.2z"/>
				<path style="fill-rule:evenodd;clip-rule:evenodd;fill:#673E19;" d="M80.55,67.5c7.601-1.033,15.084-2.066,22.45-3.1l4.85-0.4
					l-0.25,4.55c-6.533,1.9-12.633,3.434-18.3,4.6c-4.667,0.934-11.6,2.25-20.8,3.95l-12.4,2.25l-0.05-8.25l-0.2-0.55
					C57.117,70.583,65.35,69.566,80.55,67.5z"/>
				<g>
					<path style="fill-rule:evenodd;clip-rule:evenodd;fill:#603A18;" d="M65.9,77.6l-9.8,1.65V78.6
						C59.9,78.066,63.167,77.733,65.9,77.6z"/>
					<path style="fill-rule:evenodd;clip-rule:evenodd;fill:#603A18;" d="M83.15,72.9c2.767-0.966,5-1.566,6.7-1.8
						c1.367-0.2,2.851-0.284,4.45-0.25c2.101,0,3.867-0.05,5.3-0.15c-0.8,0.233-1.5,0.417-2.1,0.55l-4.3,0.25
						c-1.7,0.066-3,0.184-3.9,0.35c-0.967,0.233-1.899,0.433-2.8,0.6c-0.767,0.167-3.3,1.066-7.6,2.7l-4.95,0.95l0.3-0.1
						C74.85,75.8,77.816,74.767,83.15,72.9z"/>
					<path style="fill-rule:evenodd;clip-rule:evenodd;fill:#603A18;" d="M60.95,70.05L56,70.9l-0.15-0.35
						C56.25,70.55,57.95,70.383,60.95,70.05z"/>
					<path style="fill-rule:evenodd;clip-rule:evenodd;fill:#603A18;" d="M71.65,68.7l3.3-0.45c-0.134,0.033-1.684,0.467-4.65,1.3
						c-1.7,0.5-2.933,0.817-3.7,0.95c-5,0.867-8.5,1.45-10.5,1.75l-0.05-0.4c2.4-0.267,4.217-0.517,5.45-0.75
						c1.7-0.3,3.883-0.784,6.55-1.45L71.65,68.7z"/>
					<path style="fill-rule:evenodd;clip-rule:evenodd;fill:#603A18;" d="M89.95,68.15c8.833-1.6,14-2.5,15.5-2.7l2.35-0.35
						l-0.05,0.7L85.9,69.55c-9,1.6-14.101,2.55-15.3,2.85c-2.633,0.667-6.184,1.35-10.65,2.05L56.1,75v-0.35
						c6.633-0.933,11.216-1.767,13.75-2.5c2.1-0.633,5.316-1.35,9.65-2.15C81.934,69.566,85.417,68.95,89.95,68.15z"/>
					<path style="fill-rule:evenodd;clip-rule:evenodd;fill:#603A18;" d="M86.65,66.95l11.899-1.9L94,65.9
						c-3.8,0.633-9.117,1.717-15.95,3.25c-0.733,0.133-2.083,0.483-4.05,1.05c-1.767,0.5-3.066,0.816-3.9,0.95
						c-5.467,1.034-10.133,1.883-14,2.55v-0.55l2.75-0.45c5.033-0.767,9.95-1.733,14.75-2.9c1.5-0.366,2.65-0.683,3.45-0.95
						C78.184,68.583,81.383,67.95,86.65,66.95z"/>
					<path style="fill-rule:evenodd;clip-rule:evenodd;fill:#603A18;" d="M105.05,68.35c-1.033,0.2-2.083,0.483-3.149,0.85
						l-1.351,0.45l5.5-0.65l-3.3,0.9c-1.866,0.233-3.184,0.35-3.95,0.35h-1.1l2.45-1c2.199-0.767,4.699-1.383,7.5-1.85v0.45
						L105.05,68.35z"/>
					<path style="fill-rule:evenodd;clip-rule:evenodd;fill:#603A18;" d="M104,67l3.75-0.55l-0.05,0.35
						c-4.967,0.733-7.934,1.233-8.9,1.5c-2.899,0.967-5.267,1.617-7.1,1.95l-6.45,1.3c-1.5,0.167-3.083,0.384-4.75,0.65
						c-0.667,0.1-2.417,0.566-5.25,1.4s-5.05,1.367-6.65,1.6c-5.567,0.733-9.733,1.283-12.5,1.65V76.4
						c7.2-0.867,11.833-1.617,13.9-2.25c1.867-0.6,4.316-1.233,7.35-1.9c2.733-0.6,5.083-1.05,7.05-1.35
						c0.8-0.133,1.534-0.15,2.2-0.05c0.301,0.033,1.567-0.267,3.801-0.9C94.733,68.717,99.267,67.733,104,67z"/>
				</g>
				
					<use xlink:href="#FlashAICB_x2F_Layer_1_x2F__x3C_Path_x3E__x5F_6"  width="52" height="15.35" y="-15.35" transform="matrix(1 0 0 -1 55.8501 64)" style="overflow:visible;opacity:0.1992;enable-background:new    ;"/>
				<path style="fill-rule:evenodd;clip-rule:evenodd;fill:#A46128;" d="M102.2,63.75L108,64l-14.1,2.5
					c-4.233,0.767-11.834,1.85-22.8,3.25l-15.15,1.9l-10.3-0.9l10.5-1c8.2-0.867,15.333-1.717,21.4-2.55L102.2,63.75z"/>
				<path style="fill-rule:evenodd;clip-rule:evenodd;fill:#A96629;" d="M107.4,85.1l1.05-9.35l-1.15,20.3
					c-0.3,6.167-0.666,16.9-1.1,32.2L106.1,126c0.167-13.267,0.25-22.116,0.25-26.55C106.35,96.65,106.7,91.867,107.4,85.1z"/>
				<path style="fill-rule:evenodd;clip-rule:evenodd;fill:#BD7937;" d="M83.55,68.55c-4.566,0.7-10.533,1.417-17.9,2.15l-9.7,0.95
					l9.1-1.2c7-0.934,12.884-1.767,17.65-2.5l24-3.75C97.967,66.066,90.25,67.517,83.55,68.55z"/>
				<path style="fill-rule:evenodd;clip-rule:evenodd;fill:#BD7937;" d="M112.55,59.4c-0.399,0.1-0.983,0.133-1.75,0.1l-1.05-0.05
					l6.4-1.35C114.384,58.8,113.184,59.233,112.55,59.4z"/>
				<path style="fill-rule:evenodd;clip-rule:evenodd;fill:#DE964B;" d="M55.85,93.4l0.7-0.051c0.534,0.034,1.017,0.117,1.45,0.25
					c0.7,0.233,1.467,0.534,2.3,0.9C59.733,94.934,58.25,94.566,55.85,93.4z"/>
				<path style="fill-rule:evenodd;clip-rule:evenodd;fill:#DE964B;" d="M85.8,77.85c-2.1-0.267-4.85,0.75-8.25,3.05
					c-3.033,2.034-5.483,4.233-7.35,6.6c-1.4,1.767-2.867,3.167-4.4,4.2c-0.733,0.5-1.35,0.833-1.85,1
					c2.8-1.934,4.616-3.483,5.45-4.65c0.667-1,1.85-2.3,3.55-3.9c1.933-1.8,3.883-3.35,5.85-4.65c1.767-1.167,3.467-1.783,5.1-1.85
					C84.7,77.583,85.333,77.65,85.8,77.85z"/>
			</g>
		</g>
		<g>
			<g>
				<g>
					<g>
						<g>
							<g>
								
									<linearGradient id="SVGID_10_" gradientUnits="userSpaceOnUse" x1="-48.8354" y1="85.4111" x2="-25.2354" y2="85.4111" gradientTransform="matrix(4.237289e-005 -1 1 -0.001 -2.330195e-004 4.439838e-004)">
									<stop  offset="0.0549" style="stop-color:#6C1F69"/>
									<stop  offset="0.5882" style="stop-color:#CEA8B1"/>
									<stop  offset="0.8392" style="stop-color:#FAE3D0"/>
								</linearGradient>
								<path style="fill-rule:evenodd;clip-rule:evenodd;fill:url(#SVGID_10_);" d="M91.2,29.9l1.75,0.3
									c1.033,0.167,1.934,0.6,2.7,1.3c0.767,0.667,1.3,1.5,1.6,2.5c0.367,1.133,0.35,2.267-0.05,3.4
									c-0.3,0.8-0.767,1.517-1.4,2.15l-1.3,1.2l0.25,1.75c0.134,0.833,0.05,1.7-0.25,2.6c-0.333,1.066-1,1.966-2,2.7l-0.75,0.45
									c-0.8,0.367-1.6,0.55-2.4,0.55c-1.033-0.066-1.916-0.3-2.649-0.7l-1.55-0.85l-1.601,0.8c-0.933,0.467-1.917,0.65-2.95,0.55
									c-1.034-0.1-1.95-0.467-2.75-1.1c-0.833-0.633-1.434-1.434-1.8-2.4c-0.366-0.967-0.45-1.967-0.25-3l0.35-1.7l-1.25-1.3
									c-0.733-0.733-1.216-1.6-1.45-2.6c-0.233-1.033-0.184-2.033,0.15-3c0.533-1.467,1.466-2.5,2.8-3.1
									c0.633-0.3,1.2-0.466,1.7-0.5l1.75-0.25l0.85-1.55c0.5-1.067,1.316-1.867,2.45-2.4c0.8-0.367,1.583-0.55,2.35-0.55h0.15
									c1.066,0.034,2.017,0.333,2.85,0.9c0.867,0.567,1.517,1.317,1.95,2.25L91.2,29.9z"/>
								<path style="fill-rule:evenodd;clip-rule:evenodd;fill:none;stroke:#FCE5FF;stroke-width:0.25;" d="M91.2,29.9l1.75,0.3
									c1.033,0.167,1.934,0.6,2.7,1.3c0.767,0.667,1.3,1.5,1.6,2.5c0.367,1.133,0.35,2.267-0.05,3.4
									c-0.3,0.8-0.767,1.517-1.4,2.15l-1.3,1.2l0.25,1.75c0.134,0.833,0.05,1.7-0.25,2.6c-0.333,1.066-1,1.966-2,2.7l-0.75,0.45
									c-0.8,0.367-1.6,0.55-2.4,0.55c-1.033-0.066-1.916-0.3-2.649-0.7l-1.55-0.85l-1.601,0.8c-0.933,0.467-1.917,0.65-2.95,0.55
									c-1.034-0.1-1.95-0.467-2.75-1.1c-0.833-0.633-1.434-1.434-1.8-2.4c-0.366-0.967-0.45-1.967-0.25-3l0.35-1.7l-1.25-1.3
									c-0.733-0.733-1.216-1.6-1.45-2.6c-0.233-1.033-0.184-2.033,0.15-3c0.533-1.467,1.466-2.5,2.8-3.1
									c0.633-0.3,1.2-0.466,1.7-0.5l1.75-0.25l0.85-1.55c0.5-1.067,1.316-1.867,2.45-2.4c0.8-0.367,1.583-0.55,2.35-0.55h0.15
									c1.066,0.034,2.017,0.333,2.85,0.9c0.867,0.567,1.517,1.317,1.95,2.25L91.2,29.9z"/>
							</g>
						</g>
						<path style="fill-rule:evenodd;clip-rule:evenodd;fill:#3B223B;" d="M84.3,28.6c0.4-0.233,0.817-0.35,1.25-0.35
							c0.967,0.066,1.667,0.517,2.101,1.35l1.449,3.1l3.351,0.55c0.967,0.167,1.583,0.717,1.85,1.65c0.167,0.467,0.167,0.95,0,1.45
							c-0.166,0.433-0.383,0.75-0.649,0.95l-2.45,2.3l0.5,3.35c0.066,0.4,0.017,0.783-0.15,1.15c-0.166,0.466-0.45,0.85-0.85,1.15
							c-0.8,0.533-1.634,0.583-2.5,0.15l-2.95-1.65l-3.05,1.5c-0.867,0.4-1.684,0.333-2.45-0.2c-0.8-0.6-1.1-1.383-0.9-2.35
							l0.65-3.35l-2.4-2.4c-0.7-0.7-0.883-1.517-0.55-2.45c0.333-0.934,0.983-1.45,1.95-1.55l3.35-0.4l1.6-3.05
							C83.617,29.133,83.9,28.833,84.3,28.6z"/>
						
							<linearGradient id="SVGID_11_" gradientUnits="userSpaceOnUse" x1="-44.6479" y1="85.4268" x2="-29.4229" y2="85.4268" gradientTransform="matrix(6.568144e-005 -1 1 -0.001 2.426564e-004 4.439838e-004)">
							<stop  offset="0.0235" style="stop-color:#9C238C"/>
							<stop  offset="0.8392" style="stop-color:#FBB0CC"/>
						</linearGradient>
						<path style="fill-rule:evenodd;clip-rule:evenodd;fill:url(#SVGID_11_);" d="M85.55,29.35c0.5,0,0.867,0.233,1.101,0.7
							l1.699,3.65l3.9,0.65c0.5,0.066,0.833,0.35,1,0.85c0.1,0.267,0.1,0.533,0,0.8l-0.35,0.5L90,39.2l0.6,3.95
							c0.034,0.133,0.018,0.333-0.05,0.6c-0.1,0.267-0.267,0.467-0.5,0.6c-0.399,0.333-0.833,0.35-1.3,0.05l-3.5-1.9l-3.55,1.8
							c-0.467,0.233-0.9,0.184-1.3-0.15c-0.433-0.333-0.6-0.75-0.5-1.25l0.75-3.9l-2.75-2.85c-0.367-0.333-0.466-0.75-0.3-1.25
							s0.5-0.783,1-0.85l3.95-0.5L84.4,30C84.633,29.566,85.017,29.35,85.55,29.35z"/>
						<path style="fill-rule:evenodd;clip-rule:evenodd;fill:#FCE5FF;" d="M86.25,30.9c-0.233-0.466-0.6-0.7-1.1-0.7
							c-0.534,0-0.917,0.216-1.15,0.65l-1.85,3.55l-3.95,0.5c-0.233,0.034-0.45,0.133-0.65,0.3l0.05-0.3c0.167-0.5,0.5-0.783,1-0.85
							l3.95-0.5L84.4,30c0.233-0.434,0.617-0.65,1.15-0.65c0.5,0,0.867,0.233,1.101,0.7l1.699,3.65l3.9,0.65
							c0.5,0.066,0.833,0.35,1,0.85c0.1,0.267,0.1,0.533,0,0.8l-0.35,0.5l-0.051-0.45c-0.166-0.5-0.5-0.783-1-0.85l-3.899-0.65
							L86.25,30.9z"/>
					</g>
				</g>
			</g>
			<g>
				<g>
					<g>
						
							<linearGradient id="SVGID_12_" gradientUnits="userSpaceOnUse" x1="-61.1372" y1="53.8301" x2="-30.2695" y2="53.8301" gradientTransform="matrix(0.0194 -0.9998 0.9998 0.0194 1.663640e-004 2.152771e-004)">
							<stop  offset="0.0549" style="stop-color:#6C1F69"/>
							<stop  offset="0.5882" style="stop-color:#CEA8B1"/>
							<stop  offset="0.8392" style="stop-color:#FAE3D0"/>
						</linearGradient>
						<path style="fill-rule:evenodd;clip-rule:evenodd;fill:url(#SVGID_12_);" d="M44.95,42.4c0.733-1.1,1.633-2.017,2.7-2.75
							c1.6-1.1,3.383-1.783,5.35-2.05c0.3-1.133,1.017-2.217,2.15-3.25c0.867-0.8,1.833-1.45,2.9-1.95
							c1.534-0.633,3.15-0.933,4.85-0.9c1.667,0,3.133,0.3,4.4,0.9c0.767,0.2,1.333,0.667,1.7,1.4v0.05
							c0.667,1.533,0.434,3.216-0.7,5.05c-0.667,1.1-1.5,2.067-2.5,2.9c-2.333,2.233-4.7,3.534-7.1,3.9h-0.6
							c-0.434,0.8-0.784,1.333-1.05,1.6c-1.9,2.667-3.966,4.417-6.2,5.25L50.6,52.6c-0.1,0.566-0.317,1.267-0.65,2.1
							c-0.967,3.066-2.45,5.316-4.45,6.75c-0.167,0.167-0.333,0.267-0.5,0.3l-0.25,0.1c-0.3,0.1-0.617,0.15-0.95,0.15
							c-0.466-0.066-0.85-0.2-1.15-0.4c-0.867-0.534-1.483-1.25-1.85-2.15l-1.3,0.3h-0.25c-0.8-0.066-1.417-0.434-1.85-1.1
							c-0.9-1.233-1.1-2.783-0.6-4.65c0.367-1.434,1.017-2.75,1.95-3.95c1.367-1.7,3-2.9,4.9-3.6
							C43.55,45.15,43.983,43.8,44.95,42.4z"/>
						<path style="fill-rule:evenodd;clip-rule:evenodd;fill:none;stroke:#FCE5FF;stroke-width:0.25;" d="M44.95,42.4
							c-0.967,1.4-1.4,2.75-1.3,4.05c-1.9,0.7-3.533,1.9-4.9,3.6c-0.934,1.2-1.583,2.517-1.95,3.95c-0.5,1.867-0.3,3.417,0.6,4.65
							c0.434,0.667,1.05,1.034,1.85,1.1h0.25l1.3-0.3c0.367,0.9,0.983,1.616,1.85,2.15c0.3,0.2,0.684,0.333,1.15,0.4
							c0.333,0,0.65-0.05,0.95-0.15l0.25-0.1c0.167-0.033,0.333-0.133,0.5-0.3c2-1.434,3.483-3.684,4.45-6.75
							c0.333-0.833,0.55-1.534,0.65-2.1l0.25-0.05c2.233-0.833,4.3-2.583,6.2-5.25c0.267-0.267,0.617-0.8,1.05-1.6h0.6
							c2.4-0.367,4.767-1.667,7.1-3.9c1-0.833,1.833-1.8,2.5-2.9c1.134-1.833,1.367-3.517,0.7-5.05V33.8
							c-0.367-0.733-0.934-1.2-1.7-1.4c-1.267-0.6-2.733-0.9-4.4-0.9c-1.7-0.033-3.316,0.267-4.85,0.9
							c-1.066,0.5-2.033,1.15-2.9,1.95c-1.133,1.033-1.85,2.117-2.15,3.25c-1.967,0.267-3.75,0.95-5.35,2.05
							C46.583,40.383,45.684,41.3,44.95,42.4z"/>
					</g>
				</g>
				<path style="fill-rule:evenodd;clip-rule:evenodd;fill:#3B223B;" d="M46.25,43.5c0.633-0.967,1.434-1.8,2.4-2.5
					c1.867-1.233,3.833-1.816,5.9-1.75V39.2c-0.133-1.1,0.333-2.184,1.4-3.25c0.8-0.833,1.75-1.5,2.85-2
					c1.333-0.534,2.733-0.784,4.2-0.75c1.434,0,2.684,0.283,3.75,0.85h0.05c0.333,0.067,0.55,0.233,0.65,0.5
					c0.4,0.9,0.233,2-0.5,3.3c-0.567,0.966-1.317,1.85-2.25,2.65c-2.267,2.033-4.35,3.2-6.25,3.5h-0.3
					c-0.267-0.066-0.45-0.2-0.55-0.4l-0.2-0.4c-0.367,1.1-0.933,2.116-1.7,3.05c-1.767,2.434-3.583,3.983-5.45,4.65l-0.2,0.05h-0.2
					c-0.233,0-0.4-0.083-0.5-0.25l-0.25-0.3c0,1.267-0.25,2.5-0.75,3.7c-1.034,2.867-2.317,4.867-3.85,6l-0.25,0.1l-0.05,0.05
					l-0.3,0.05c-0.167-0.033-0.283-0.083-0.35-0.15c-0.933-0.566-1.483-1.6-1.65-3.1c-0.8,0.467-1.533,0.784-2.2,0.95h-0.25
					l-0.05,0.05L39.35,58c-0.2,0-0.383-0.1-0.55-0.3c-0.633-0.9-0.716-2.083-0.25-3.55c0.3-1.066,0.817-2.083,1.55-3.05
					c1.667-2,3.683-3.2,6.05-3.6h-0.1l-0.1-0.05c-0.233-0.067-0.384-0.217-0.45-0.45C45.167,45.967,45.417,44.8,46.25,43.5z"/>
				<g>
					<g>
						<g>
							<g>
								<g>
									<g>
										<g>
											
												<linearGradient id="SVGID_13_" gradientUnits="userSpaceOnUse" x1="-38.2021" y1="61.6431" x2="-33.3011" y2="61.6431" gradientTransform="matrix(0.0204 -0.9998 0.9998 0.0204 -2.202038e-004 -9.402633e-005)">
												<stop  offset="0.1608" style="stop-color:#E253EA"/>
												<stop  offset="0.4941" style="stop-color:#B04AB1"/>
												<stop  offset="0.9882" style="stop-color:#603956"/>
											</linearGradient>
											<path style="fill-rule:evenodd;clip-rule:evenodd;fill:url(#SVGID_13_);" d="M66.4,34.75c0.034,0.8-0.483,1.566-1.55,2.3
												c-0.8,0.567-1.733,1.017-2.8,1.35c-2.6,0.967-4.816,1.217-6.65,0.75c0.267-0.2,0.95-0.617,2.05-1.25
												c1.1-0.667,1.9-1.183,2.4-1.55C61.983,34.883,64.167,34.35,66.4,34.75z"/>
											<path style="fill-rule:evenodd;clip-rule:evenodd;fill:#FCE5FF;" d="M55.3,39.15c-0.1-0.833,0.284-1.7,1.15-2.6
												c0.733-0.767,1.616-1.4,2.65-1.9c1.233-0.5,2.5-0.733,3.8-0.7c1.367,0,2.534,0.267,3.5,0.8
												c-0.867-0.167-1.8-0.083-2.8,0.25c-0.6,0.233-1.5,0.667-2.7,1.3C58.566,37.733,56.7,38.684,55.3,39.15z"/>
										</g>
										<g>
											
												<linearGradient id="SVGID_14_" gradientUnits="userSpaceOnUse" x1="-42.0205" y1="63.4189" x2="-33.4937" y2="63.4189" gradientTransform="matrix(0.0205 -0.9998 0.9998 0.0205 1.610909e-004 -2.400652e-004)">
												<stop  offset="0.1608" style="stop-color:#E253EA"/>
												<stop  offset="0.4941" style="stop-color:#B04AB1"/>
												<stop  offset="0.9882" style="stop-color:#603956"/>
											</linearGradient>
											<path style="fill-rule:evenodd;clip-rule:evenodd;fill:url(#SVGID_14_);" d="M66.75,34.85c0.3,0.733,0.133,1.633-0.5,2.7
												c-0.533,0.867-1.217,1.65-2.05,2.35c-2.167,1.967-4.117,3.083-5.85,3.35c0.167-0.3,0.617-0.967,1.35-2
												c0.8-1.066,1.35-1.867,1.65-2.4C62.783,36.65,64.583,35.316,66.75,34.85z"/>
											<path style="fill-rule:evenodd;clip-rule:evenodd;fill:#FCE5FF;" d="M58.25,43.25c-0.4-0.733-0.383-1.684,0.05-2.85
												c0.367-1,0.934-1.917,1.7-2.75c0.934-0.933,2-1.667,3.2-2.2c1.233-0.534,2.417-0.733,3.55-0.6
												c-0.9,0.167-1.733,0.617-2.5,1.35c-0.467,0.433-1.117,1.183-1.95,2.25C60.767,40.583,59.417,42.184,58.25,43.25z"/>
										</g>
									</g>
								</g>
							</g>
						</g>
					</g>
					<g>
						<g>
							<g>
								<g>
									<g>
										<g>
											
												<linearGradient id="SVGID_15_" gradientUnits="userSpaceOnUse" x1="-45.8877" y1="52.1099" x2="-39.2615" y2="52.1099" gradientTransform="matrix(0.0189 -0.9998 0.9998 0.0189 1.312662e-004 -3.499128e-004)">
												<stop  offset="0.1608" style="stop-color:#E253EA"/>
												<stop  offset="0.4941" style="stop-color:#B04AB1"/>
												<stop  offset="0.9882" style="stop-color:#603956"/>
											</linearGradient>
											<path style="fill-rule:evenodd;clip-rule:evenodd;fill:url(#SVGID_15_);" d="M56.25,40.3c0.167,0.767-0.2,1.617-1.1,2.55
												c-0.667,0.733-1.483,1.367-2.45,1.9c-2.467,1.467-4.6,2.133-6.4,2c0.233-0.233,0.833-0.783,1.8-1.65
												c0.966-0.833,1.65-1.483,2.05-1.95C51.983,41.25,54.017,40.3,56.25,40.3z"/>
											<path style="fill-rule:evenodd;clip-rule:evenodd;fill:#FCE5FF;" d="M51.15,42.9c-1.767,1.667-3.417,2.95-4.95,3.85
												c-0.267-0.8-0.05-1.717,0.65-2.75c0.566-0.9,1.316-1.684,2.25-2.35c1.1-0.733,2.283-1.233,3.55-1.5
												c1.333-0.233,2.534-0.183,3.6,0.15c-0.867,0-1.767,0.284-2.7,0.85C53.05,41.417,52.25,42,51.15,42.9z"/>
										</g>
										<g>
											
												<linearGradient id="SVGID_16_" gradientUnits="userSpaceOnUse" x1="-49.1567" y1="54.3716" x2="-39.1763" y2="54.3716" gradientTransform="matrix(0.02 -0.9998 0.9998 0.02 2.659913e-004 -4.277341e-004)">
												<stop  offset="0.1608" style="stop-color:#E253EA"/>
												<stop  offset="0.4941" style="stop-color:#B04AB1"/>
												<stop  offset="0.9882" style="stop-color:#603956"/>
											</linearGradient>
											<path style="fill-rule:evenodd;clip-rule:evenodd;fill:url(#SVGID_16_);" d="M56.6,43.1
												c-0.333,0.933-0.833,1.833-1.5,2.7c-1.733,2.3-3.434,3.767-5.1,4.4c0.1-0.333,0.434-1.067,1-2.2
												c0.533-1.167,0.9-2.05,1.1-2.65c0.933-2.467,2.433-4.133,4.5-5C57.033,40.983,57.033,41.9,56.6,43.1z"/>
											<path style="fill-rule:evenodd;clip-rule:evenodd;fill:#FCE5FF;" d="M54.4,42.15c-0.333,0.467-0.816,1.317-1.45,2.55
												c-1.167,2.533-2.184,4.366-3.05,5.5c-0.533-0.634-0.7-1.567-0.5-2.8c0.167-1.033,0.55-2.033,1.15-3
												c0.7-1.1,1.6-2.033,2.7-2.8c1.1-0.733,2.217-1.167,3.35-1.3C55.8,40.667,55.066,41.283,54.4,42.15z"/>
										</g>
									</g>
								</g>
							</g>
						</g>
					</g>
					<g>
						<g>
							<g>
								<g>
									<g>
										<g>
											
												<linearGradient id="SVGID_17_" gradientUnits="userSpaceOnUse" x1="-56.5" y1="44.4648" x2="-47.3233" y2="44.4648" gradientTransform="matrix(0.0191 -0.9998 0.9998 0.0191 -1.815297e-004 4.375242e-004)">
												<stop  offset="0.1608" style="stop-color:#E253EA"/>
												<stop  offset="0.4941" style="stop-color:#B04AB1"/>
												<stop  offset="0.9882" style="stop-color:#603956"/>
											</linearGradient>
											<path style="fill-rule:evenodd;clip-rule:evenodd;fill:url(#SVGID_17_);" d="M47.2,48.2c0.366,0.7,0.267,1.616-0.3,2.75
												c-0.433,0.866-1.033,1.7-1.8,2.5c-2,2.133-3.867,3.4-5.6,3.8c1.267-2,2.15-3.533,2.65-4.6
												C43.417,50.316,45.1,48.833,47.2,48.2z"/>
											<path style="fill-rule:evenodd;clip-rule:evenodd;fill:#FCE5FF;" d="M39.45,57.25c-0.467-0.7-0.534-1.65-0.2-2.85
												c0.3-0.966,0.783-1.917,1.45-2.85c0.833-1.033,1.833-1.85,3-2.45c1.2-0.633,2.366-0.934,3.5-0.9
												c-0.867,0.267-1.667,0.8-2.4,1.6c-0.4,0.434-0.983,1.217-1.75,2.35C41.684,54.45,40.483,56.15,39.45,57.25z"/>
										</g>
										<g>
											
												<linearGradient id="SVGID_18_" gradientUnits="userSpaceOnUse" x1="-58.5791" y1="47.2803" x2="-47.1769" y2="47.2803" gradientTransform="matrix(0.0197 -0.9998 0.9998 0.0197 4.828535e-004 1.856759e-004)">
												<stop  offset="0.1608" style="stop-color:#E253EA"/>
												<stop  offset="0.4941" style="stop-color:#B04AB1"/>
												<stop  offset="0.9882" style="stop-color:#603956"/>
											</linearGradient>
											<path style="fill-rule:evenodd;clip-rule:evenodd;fill:url(#SVGID_18_);" d="M47.55,48.15c0.6,0.467,0.867,1.333,0.8,2.6
												c-0.067,1-0.3,2.017-0.7,3.05c-0.9,2.634-2.1,4.534-3.6,5.7c0-0.367,0.1-1.167,0.3-2.4c0.2-1.333,0.3-2.3,0.3-2.9
												C44.85,51.566,45.816,49.55,47.55,48.15z"/>
											<path style="fill-rule:evenodd;clip-rule:evenodd;fill:#FCE5FF;" d="M43.95,59.5c-0.7-0.434-1.134-1.267-1.3-2.5
												c-0.133-1.033-0.066-2.117,0.2-3.25c0.367-1.233,0.966-2.367,1.8-3.4c0.867-1.067,1.817-1.817,2.85-2.25
												c-0.667,0.566-1.184,1.367-1.55,2.4c-0.167,0.533-0.4,1.5-0.7,2.9C44.95,55.967,44.517,58,43.95,59.5z"/>
										</g>
									</g>
								</g>
							</g>
						</g>
					</g>
				</g>
			</g>
			<g>
				<g>
					<g>
						<linearGradient id="SVGID_19_" gradientUnits="userSpaceOnUse" x1="117.1846" y1="31.4028" x2="120.6846" y2="62.0778">
							<stop  offset="0.0549" style="stop-color:#6C1F69"/>
							<stop  offset="0.5882" style="stop-color:#CEA8B1"/>
							<stop  offset="0.8392" style="stop-color:#FAE3D0"/>
						</linearGradient>
						<path style="fill-rule:evenodd;clip-rule:evenodd;fill:url(#SVGID_19_);" d="M102.75,33.85l0.05-0.05
							c0.3-0.733,0.851-1.2,1.65-1.4c1.3-0.6,2.783-0.9,4.45-0.9c1.699-0.033,3.3,0.267,4.8,0.9c1.066,0.5,2.05,1.15,2.95,1.95
							c1.133,1.033,1.85,2.117,2.149,3.25c1.967,0.267,3.75,0.95,5.351,2.05c1.066,0.733,1.967,1.65,2.699,2.75
							c0.967,1.4,1.4,2.75,1.301,4.05c1.899,0.733,3.533,1.933,4.899,3.6c0.934,1.2,1.584,2.517,1.95,3.95
							c0.467,1.833,0.267,3.383-0.6,4.65c-0.467,0.7-1.101,1.067-1.9,1.1h-0.2l-1.3-0.3c-0.434,0.933-1.05,1.65-1.85,2.15
							c-0.301,0.2-0.684,0.333-1.15,0.4l-1-0.15l-0.25-0.1l-0.5-0.3c-1.833-1.367-3.316-3.617-4.45-6.75
							c-0.233-0.634-0.433-1.333-0.6-2.1l-0.25-0.05c-2.233-0.833-4.3-2.583-6.2-5.25c-0.233-0.233-0.6-0.767-1.1-1.6h-0.601
							c-2.267-0.367-4.633-1.667-7.1-3.9c-1-0.9-1.833-1.866-2.5-2.9C102.316,37.066,102.083,35.383,102.75,33.85z"/>
						<path style="fill-rule:evenodd;clip-rule:evenodd;fill:none;stroke:#FCE5FF;stroke-width:0.25;" d="M102.75,33.85l0.05-0.05
							c0.3-0.733,0.851-1.2,1.65-1.4c1.3-0.6,2.783-0.9,4.45-0.9c1.699-0.033,3.3,0.267,4.8,0.9c1.066,0.5,2.05,1.15,2.95,1.95
							c1.133,1.033,1.85,2.117,2.149,3.25c1.967,0.267,3.75,0.95,5.351,2.05c1.066,0.733,1.967,1.65,2.699,2.75
							c0.967,1.4,1.4,2.75,1.301,4.05c1.899,0.733,3.533,1.933,4.899,3.6c0.934,1.2,1.584,2.517,1.95,3.95
							c0.467,1.833,0.267,3.383-0.6,4.65c-0.467,0.7-1.101,1.067-1.9,1.1h-0.2l-1.3-0.3c-0.434,0.933-1.05,1.65-1.85,2.15
							c-0.301,0.2-0.684,0.333-1.15,0.4l-1-0.15l-0.25-0.1l-0.5-0.3c-1.833-1.367-3.316-3.617-4.45-6.75
							c-0.233-0.634-0.433-1.333-0.6-2.1l-0.25-0.05c-2.233-0.833-4.3-2.583-6.2-5.25c-0.233-0.233-0.6-0.767-1.1-1.6h-0.601
							c-2.267-0.367-4.633-1.667-7.1-3.9c-1-0.9-1.833-1.866-2.5-2.9C102.316,37.066,102.083,35.383,102.75,33.85z"/>
					</g>
				</g>
				<path style="fill-rule:evenodd;clip-rule:evenodd;fill:#3B223B;" d="M107.1,40.5c-0.933-0.8-1.683-1.684-2.25-2.65
					c-0.732-1.3-0.899-2.4-0.5-3.3c0.101-0.267,0.317-0.433,0.65-0.5h0.05c1.067-0.566,2.317-0.85,3.75-0.85
					c1.467-0.034,2.867,0.216,4.2,0.75c1.1,0.5,2.05,1.167,2.85,2c1.067,1.066,1.534,2.15,1.4,3.25l-0.05,0.05
					c2.066-0.066,4.05,0.517,5.95,1.75c0.967,0.733,1.767,1.566,2.399,2.5c0.834,1.3,1.084,2.467,0.75,3.5
					c-0.133,0.267-0.283,0.417-0.45,0.45l-0.1,0.05h-0.1c2.366,0.4,4.383,1.6,6.05,3.6c0.733,0.966,1.25,1.983,1.55,3.05
					c0.467,1.467,0.384,2.65-0.25,3.55c-0.133,0.2-0.333,0.3-0.6,0.3v0.05L132.35,58h-0.25c-0.666-0.167-1.399-0.483-2.199-0.95
					c-0.167,1.467-0.717,2.5-1.65,3.1l-0.35,0.15l-0.301-0.05l-0.3-0.15c-0.933-0.7-1.8-1.75-2.6-3.15
					c-0.533-0.934-0.95-1.884-1.25-2.85c-0.5-1.2-0.75-2.434-0.75-3.7l-0.25,0.3c-0.167,0.167-0.351,0.25-0.55,0.25h-0.2l-0.15-0.05
					c-1.866-0.667-3.683-2.216-5.45-4.65c-0.767-0.934-1.333-1.95-1.699-3.05l-0.2,0.4c-0.101,0.2-0.283,0.333-0.55,0.4h-0.301
					C111.316,43.7,109.233,42.533,107.1,40.5z"/>
				<g>
					<g>
						<g>
							<g>
								<g>
									<g>
										<g>
											<linearGradient id="SVGID_20_" gradientUnits="userSpaceOnUse" x1="113.0889" y1="35.8999" x2="108.6639" y2="37.9999">
												<stop  offset="0.1608" style="stop-color:#E253EA"/>
												<stop  offset="0.4941" style="stop-color:#B04AB1"/>
												<stop  offset="0.9882" style="stop-color:#603956"/>
											</linearGradient>
											<path style="fill-rule:evenodd;clip-rule:evenodd;fill:url(#SVGID_20_);" d="M109.7,38.4
												c-1.033-0.333-1.95-0.783-2.75-1.35c-1.066-0.733-1.601-1.5-1.601-2.3c2.233-0.4,4.417,0.133,6.551,1.6
												c0.5,0.367,1.316,0.883,2.449,1.55c1.067,0.6,1.75,1.017,2.051,1.25C114.566,39.617,112.333,39.367,109.7,38.4z"/>
											<path style="fill-rule:evenodd;clip-rule:evenodd;fill:#FCE5FF;" d="M110.9,36.3c-1.2-0.633-2.101-1.066-2.7-1.3
												c-1-0.333-1.95-0.417-2.851-0.25c1-0.533,2.184-0.8,3.551-0.8c1.3-0.034,2.55,0.2,3.75,0.7
												c1.066,0.5,1.967,1.133,2.699,1.9c0.867,0.9,1.25,1.767,1.15,2.6C115.1,38.684,113.233,37.733,110.9,36.3z"/>
										</g>
										<g>
											<linearGradient id="SVGID_21_" gradientUnits="userSpaceOnUse" x1="113.1299" y1="40.5747" x2="105.1799" y2="37.4997">
												<stop  offset="0.1608" style="stop-color:#E253EA"/>
												<stop  offset="0.4941" style="stop-color:#B04AB1"/>
												<stop  offset="0.9882" style="stop-color:#603956"/>
											</linearGradient>
											<path style="fill-rule:evenodd;clip-rule:evenodd;fill:url(#SVGID_21_);" d="M105.05,34.85
												c2.134,0.433,3.934,1.767,5.4,4c0.3,0.566,0.833,1.367,1.6,2.4s1.233,1.7,1.4,2c-1.733-0.267-3.684-1.383-5.851-3.35
												c-0.833-0.7-1.5-1.483-2-2.35C104.934,36.483,104.75,35.583,105.05,34.85z"/>
											<path style="fill-rule:evenodd;clip-rule:evenodd;fill:#FCE5FF;" d="M109.5,38.45c-0.8-1.034-1.45-1.784-1.95-2.25
												c-0.8-0.733-1.633-1.184-2.5-1.35c1.134-0.133,2.317,0.066,3.55,0.6c1.2,0.533,2.268,1.267,3.2,2.2
												c0.767,0.833,1.334,1.75,1.7,2.75c0.434,1.167,0.45,2.117,0.05,2.85C112.384,42.184,111.033,40.583,109.5,38.45z"/>
										</g>
									</g>
								</g>
							</g>
						</g>
					</g>
					<g>
						<g>
							<g>
								<g>
									<g>
										<g>
											<linearGradient id="SVGID_22_" gradientUnits="userSpaceOnUse" x1="123.8105" y1="43.3501" x2="117.1855" y2="43.7001">
												<stop  offset="0.1608" style="stop-color:#E253EA"/>
												<stop  offset="0.4941" style="stop-color:#B04AB1"/>
												<stop  offset="0.9882" style="stop-color:#603956"/>
											</linearGradient>
											<path style="fill-rule:evenodd;clip-rule:evenodd;fill:url(#SVGID_22_);" d="M115.5,40.3c2.267,0,4.316,0.95,6.15,2.85
												c0.433,0.467,1.133,1.117,2.1,1.95c0.934,0.867,1.517,1.417,1.75,1.65c-1.833,0.133-3.983-0.533-6.45-2
												c-0.967-0.533-1.783-1.167-2.45-1.9C115.7,41.917,115.333,41.066,115.5,40.3z"/>
											<path style="fill-rule:evenodd;clip-rule:evenodd;fill:#FCE5FF;" d="M120.6,42.9c-1.033-0.867-1.816-1.45-2.35-1.75
												c-0.934-0.566-1.85-0.85-2.75-0.85c1.1-0.333,2.3-0.383,3.6-0.15c1.301,0.267,2.5,0.767,3.601,1.5
												c0.899,0.667,1.633,1.45,2.2,2.35c0.699,1.033,0.916,1.95,0.649,2.75C124.184,45.95,122.533,44.667,120.6,42.9z"/>
										</g>
										<g>
											<linearGradient id="SVGID_23_" gradientUnits="userSpaceOnUse" x1="121.9287" y1="48.6694" x2="114.7037" y2="41.7944">
												<stop  offset="0.1608" style="stop-color:#E253EA"/>
												<stop  offset="0.4941" style="stop-color:#B04AB1"/>
												<stop  offset="0.9882" style="stop-color:#603956"/>
											</linearGradient>
											<path style="fill-rule:evenodd;clip-rule:evenodd;fill:url(#SVGID_23_);" d="M115.2,43.1c-0.434-1.2-0.434-2.117,0-2.75
												c2.033,0.867,3.533,2.533,4.5,5c0.2,0.6,0.583,1.483,1.149,2.65c0.534,1.133,0.851,1.867,0.95,2.2
												c-1.767-0.634-3.467-2.1-5.1-4.4C116.033,44.934,115.533,44.033,115.2,43.1z"/>
											<path style="fill-rule:evenodd;clip-rule:evenodd;fill:#FCE5FF;" d="M117.4,42.15c-0.634-0.867-1.367-1.483-2.2-1.85
												c1.133,0.134,2.25,0.567,3.35,1.3c1.101,0.767,2,1.7,2.7,2.8c0.566,0.967,0.95,1.967,1.15,3
												c0.199,1.233,0.017,2.167-0.551,2.8c-1-1.333-2-3.167-3-5.5C118.217,43.467,117.733,42.617,117.4,42.15z"/>
										</g>
									</g>
								</g>
							</g>
						</g>
					</g>
					<g>
						<g>
							<g>
								<g>
									<g>
										<g>
											<linearGradient id="SVGID_24_" gradientUnits="userSpaceOnUse" x1="132.2813" y1="55.0454" x2="124.3563" y2="50.3954">
												<stop  offset="0.1608" style="stop-color:#E253EA"/>
												<stop  offset="0.4941" style="stop-color:#B04AB1"/>
												<stop  offset="0.9882" style="stop-color:#603956"/>
											</linearGradient>
											<path style="fill-rule:evenodd;clip-rule:evenodd;fill:url(#SVGID_24_);" d="M124.6,48.2
												c2.101,0.633,3.784,2.116,5.051,4.45c0.5,1.067,1.383,2.6,2.649,4.6c-1.8-0.4-3.666-1.667-5.6-3.8
												c-0.767-0.767-1.367-1.6-1.8-2.5C124.333,49.816,124.233,48.9,124.6,48.2z"/>
											<path style="fill-rule:evenodd;clip-rule:evenodd;fill:#FCE5FF;" d="M132.35,57.25c-1.199-1.267-2.399-2.967-3.6-5.1
												c-0.733-1.1-1.316-1.883-1.75-2.35c-0.767-0.8-1.566-1.333-2.4-1.6c1.134-0.034,2.301,0.267,3.5,0.9
												c1.167,0.6,2.167,1.417,3,2.45c0.667,0.934,1.15,1.884,1.45,2.85C132.884,55.6,132.816,56.55,132.35,57.25z"/>
										</g>
										<g>
											<linearGradient id="SVGID_25_" gradientUnits="userSpaceOnUse" x1="126.8984" y1="59.3477" x2="124.3234" y2="48.2477">
												<stop  offset="0.1608" style="stop-color:#E253EA"/>
												<stop  offset="0.4941" style="stop-color:#B04AB1"/>
												<stop  offset="0.9882" style="stop-color:#603956"/>
											</linearGradient>
											<path style="fill-rule:evenodd;clip-rule:evenodd;fill:url(#SVGID_25_);" d="M124.25,48.15c1.733,1.4,2.7,3.417,2.9,6.05
												c0.033,0.6,0.133,1.566,0.3,2.9c0.2,1.233,0.3,2.033,0.3,2.4c-1.5-1.133-2.7-3.033-3.6-5.7c-0.4-1-0.634-2.017-0.7-3.05
												C123.384,49.483,123.65,48.617,124.25,48.15z"/>
											<path style="fill-rule:evenodd;clip-rule:evenodd;fill:#FCE5FF;" d="M127.85,59.5c-0.5-1.367-0.949-3.4-1.35-6.1
												c-0.233-1.333-0.45-2.3-0.65-2.9c-0.366-1.033-0.883-1.833-1.55-2.4c1.033,0.433,1.983,1.183,2.851,2.25
												c0.8,1.033,1.383,2.167,1.75,3.4c0.3,1.1,0.383,2.184,0.25,3.25C128.983,58.233,128.55,59.066,127.85,59.5z"/>
										</g>
									</g>
								</g>
							</g>
						</g>
					</g>
				</g>
			</g>
		</g>
		
			<use xlink:href="#FlashAICB_x2F_Layer_1_x2F__x3C_Path_x3E_"  width="128.6" height="61.85" y="-61.85" transform="matrix(1 0 0 -1 21.6001 86)" style="overflow:visible;opacity:0.2813;enable-background:new    ;"/>
		
			<use xlink:href="#FlashAICB_x2F_Layer_1_x2F__x3C_Group_x3E_"  width="119.2" height="66.417" y="-66.417" transform="matrix(1 0 0 -1 26.2998 22.1499)" style="overflow:visible;opacity:0.5195;enable-background:new    ;"/>
	</g>
</g>
</svg>
