<?xml version="1.0" encoding="iso-8859-1"?>
<!-- Generator: Adobe Illustrator 15.1.0, SVG Export Plug-In . SVG Version: 6.00 Build 0)  -->
<!DOCTYPE svg PUBLIC "-//W3C//DTD SVG 1.1//EN" "http://www.w3.org/Graphics/SVG/1.1/DTD/svg11.dtd">
<svg version="1.1" id="Layer_1" xmlns="http://www.w3.org/2000/svg" xmlns:xlink="http://www.w3.org/1999/xlink" x="0px" y="0px"
	 width="171.5px" height="171.5px" viewBox="0 0 171.5 171.5" style="enable-background:new 0 0 171.5 171.5;" xml:space="preserve"
	>
<symbol  id="FlashAICB_x2F_Layer_1_x2F__x3C_Clip_Group_0_x3E_" viewBox="0 -46.7 48.15 46.7">
	<g id="Layer_1_7_">
	</g>
	<g>
		<defs>
			<path id="SVGID_1_" d="M39.35-25.8c-2.167,1.9-4.4,3.083-6.7,3.55c-1.4,0.3-3.7,0.367-6.9,0.2c-2.967-0.2-5.6-0.184-7.9,0.05
				c-2.667,0.233-4.7,1.017-6.1,2.35c-1.1,1.066-1.733,2.417-1.9,4.05c-0.967-1.267-1.867-2.7-2.7-4.3c0.3-2.7,1.417-4.533,3.35-5.5
				c1.167-0.567,2.783-0.883,4.85-0.95c1.2-0.033,3.217,0.05,6.05,0.25c4.967,0.333,8.667,0.267,11.1-0.2
				c2.833-0.567,5.667-2.167,8.5-4.8C40.533-29.233,39.983-27.467,39.35-25.8z"/>
		</defs>
		<clipPath id="SVGID_2_">
			<use xlink:href="#SVGID_1_"  style="overflow:visible;"/>
		</clipPath>
		<g id="Layer_3_6_" style="clip-path:url(#SVGID_2_);">
			
				<radialGradient id="SVGID_3_" cx="12.6499" cy="-20.4502" r="42.4277" gradientTransform="matrix(0.5531 -0.8331 0.8329 0.5529 22.687 1.3965)" gradientUnits="userSpaceOnUse">
				<stop  offset="0" style="stop-color:#4EAFF9"/>
				<stop  offset="1" style="stop-color:#3E70C7"/>
			</radialGradient>
			<polygon style="fill-rule:evenodd;clip-rule:evenodd;fill:url(#SVGID_3_);" points="30.65,0 48.15,-26.4 17.5,-46.7 0,-20.35 			
				"/>
		</g>
	</g>
	<g id="Layer_4_6_">
	</g>
</symbol>
<symbol  id="FlashAICB_x2F_Layer_1_x2F__x3C_Clip_Group_0_x3E__x5F_0" viewBox="0 -47.25 40.079 47.25">
	<g id="Layer_1_8_">
	</g>
	<g>
		<defs>
			<polygon id="SVGID_4_" points="0,0 0,-47.25 40.05,-47.25 40.05,0 			"/>
		</defs>
		<clipPath id="SVGID_5_">
			<use xlink:href="#SVGID_4_"  style="overflow:visible;"/>
		</clipPath>
		<g id="Layer_3_7_" style="clip-path:url(#SVGID_5_);">
			<path style="fill-rule:evenodd;clip-rule:evenodd;" d="M29.1,0c3.533-3.4,6.35-8.083,8.45-14.05c2.067-5.8,2.867-11,2.4-15.6
				C38.883-40.183,33.033-46,22.4-47.1c-0.4-0.1-0.816-0.15-1.25-0.15H18.5c-0.433,0-0.85,0.05-1.25,0.15
				c-9.867,1.067-15.6,6.167-17.2,15.3c1.967-3.867,5.583-6.367,10.85-7.5s9.983-0.417,14.15,2.15c4.867,3.033,7.784,8.5,8.75,16.4
				C34.767-12.717,33.2-5.8,29.1,0z"/>
		</g>
	</g>
	<g id="Layer_4_7_">
	</g>
</symbol>
<symbol  id="FlashAICB_x2F_Layer_1_x2F__x3C_Clip_Group_0_x3E__x5F_1" viewBox="0 -24.6 25.15 24.6">
	<g id="Layer_1_6_">
	</g>
	<g>
		<defs>
			<path id="SVGID_6_" d="M19.8-13.1c-0.466,0.333-1.617,0.45-3.45,0.35c-3.3-0.233-5.317-0.35-6.05-0.35
				c-2.3,0-4.083,1.767-5.35,5.3L4.1-10.35c0.933-2.667,2.083-4.3,3.45-4.9c1.3-0.6,2.867-0.65,4.7-0.15c2.4,0.7,3.8,1.05,4.2,1.05
				C19.75-14.35,20.867-13.933,19.8-13.1z"/>
		</defs>
		<clipPath id="SVGID_7_">
			<use xlink:href="#SVGID_6_"  style="overflow:visible;"/>
		</clipPath>
		<g id="Layer_3_5_" style="clip-path:url(#SVGID_7_);">
			<radialGradient id="SVGID_8_" cx="13.3999" cy="-1.75" r="42.6426" gradientUnits="userSpaceOnUse">
				<stop  offset="0" style="stop-color:#4EAFF9"/>
				<stop  offset="1" style="stop-color:#3E70C7"/>
			</radialGradient>
			<polygon style="fill-rule:evenodd;clip-rule:evenodd;fill:url(#SVGID_8_);" points="15.85,0 25.15,-14.05 9.3,-24.6 0,-10.55 			
				"/>
		</g>
	</g>
	<g id="Layer_4_5_">
	</g>
</symbol>
<symbol  id="FlashAICB_x2F_Layer_1_x2F__x3C_Clip_Group_0_x3E__x5F_1_x5F_0" viewBox="0 -6.55 9.95 6.55">
	<g id="Layer_1_12_">
	</g>
	<g>
		<defs>
			<path id="SVGID_9_" d="M7.55-3.25l-1.6,0.8c-1.2-0.633-2.4-0.683-3.6-0.15c-0.9,0.4-1.4,1.083-1.5,2.05
				c-0.1-0.534-0.117-1.1-0.05-1.7c0.167-1.2,0.65-2.033,1.45-2.5c2.167-1.233,4.067-1.283,5.7-0.15
				C8.65-4.433,8.517-3.883,7.55-3.25z"/>
		</defs>
		<clipPath id="SVGID_10_">
			<use xlink:href="#SVGID_9_"  style="overflow:visible;"/>
		</clipPath>
		<g id="Layer_3_10_" style="clip-path:url(#SVGID_10_);">
			<radialGradient id="SVGID_11_" cx="0.0498" cy="-3.5498" r="5.9471" gradientUnits="userSpaceOnUse">
				<stop  offset="0" style="stop-color:#FBC3C7"/>
				<stop  offset="1" style="stop-color:#D06E73"/>
			</radialGradient>
			<polygon style="fill-rule:evenodd;clip-rule:evenodd;fill:url(#SVGID_11_);" points="0.35,0 9.95,-0.55 9.6,-6.55 0,-6.05 			"/>
		</g>
	</g>
	<g id="Layer_4_10_">
	</g>
</symbol>
<symbol  id="FlashAICB_x2F_Layer_1_x2F__x3C_Clip_Group_0_x3E__x5F_2" viewBox="0 -47.2 49.6 47.2">
	<g id="Layer_1_5_">
	</g>
	<g>
		<defs>
			<path id="SVGID_12_" d="M44.55-24.45c-1.7,2.167-3.3,3.583-4.8,4.25c-1.6,0.733-4.283,1.25-8.05,1.55l-1.5,0.05
				c-2.167,0-5.017-0.483-8.55-1.45c-2.3-0.6-4.033-1-5.2-1.2c-2.034-0.333-4-0.383-5.9-0.15c-2.066,0.233-3.883,0.933-5.45,2.1
				c-0.233-1.267-0.4-2.7-0.5-4.3c1.267-1.033,2.816-1.667,4.65-1.9c0.967-0.133,3.35-0.2,7.15-0.2c2.067,0,5.667,0.633,10.8,1.9
				c4.533,1.1,7.667,1.483,9.4,1.15c2.667-0.467,5.383-2.45,8.15-5.95l0.15,1.05L45-25.1L44.55-24.45z"/>
		</defs>
		<clipPath id="SVGID_13_">
			<use xlink:href="#SVGID_12_"  style="overflow:visible;"/>
		</clipPath>
		<g id="Layer_3_4_" style="clip-path:url(#SVGID_13_);">
			<radialGradient id="SVGID_14_" cx="15.5498" cy="-5.75" r="42.4173" gradientUnits="userSpaceOnUse">
				<stop  offset="0" style="stop-color:#4EAFF9"/>
				<stop  offset="1" style="stop-color:#3E70C7"/>
			</radialGradient>
			<polygon style="fill-rule:evenodd;clip-rule:evenodd;fill:url(#SVGID_14_);" points="32.65,0 49.6,-25.55 16.95,-47.2 0,-21.65 
							"/>
		</g>
	</g>
	<g id="Layer_4_4_">
	</g>
</symbol>
<symbol  id="FlashAICB_x2F_Layer_1_x2F__x3C_Clip_Group_0_x3E__x5F_2_x5F_0" viewBox="0 -99.6 99.55 99.6">
	<g id="Layer_1_10_">
	</g>
	<g>
		<defs>
			<path id="SVGID_15_" d="M65.75-35.5c-4.6,8.7-9.917,13.05-15.95,13.05h-0.05c-6.167,0-11.533-4.35-16.1-13.05
				c-4.2-8.067-5.933-15.75-5.2-23.05c1.1-11.133,7.3-17.3,18.6-18.5c0.534-0.133,0.967-0.2,1.3-0.2h2.85
				c0.333,0,0.767,0.067,1.3,0.2c11.3,1.2,17.5,7.367,18.6,18.5C71.833-51.317,70.05-43.633,65.75-35.5z"/>
		</defs>
		<clipPath id="SVGID_16_">
			<use xlink:href="#SVGID_15_"  style="overflow:visible;"/>
		</clipPath>
		<g id="Layer_3_8_" style="clip-path:url(#SVGID_16_);">
			<radialGradient id="SVGID_17_" cx="41" cy="-35.7002" r="45.146" gradientUnits="userSpaceOnUse">
				<stop  offset="0" style="stop-color:#FBC3C7"/>
				<stop  offset="1" style="stop-color:#D06E73"/>
			</radialGradient>
			<polygon style="fill-rule:evenodd;clip-rule:evenodd;fill:url(#SVGID_17_);" points="53.2,0 99.55,-53.95 46.35,-99.6 0,-45.7 
							"/>
		</g>
	</g>
	<g id="Layer_4_8_">
	</g>
</symbol>
<symbol  id="FlashAICB_x2F_Layer_1_x2F__x3C_Clip_Group_0_x3E__x5F_3" viewBox="0 -32.05 33.2 32.05">
	<g id="Layer_1_4_">
	</g>
	<g>
		<defs>
			<path id="SVGID_18_" d="M26.75-17.3c-2.3,1.167-4.4,1.833-6.3,2c-1.167,0.1-2.633-0.017-4.4-0.35
				c-1.167-0.2-2.033-0.317-2.6-0.35c-0.967-0.033-1.917,0.067-2.85,0.3c-2.3,0.567-3.233,2.017-2.8,4.35
				c-0.867-0.6-1.5-1.083-1.9-1.45c-0.667-3.267,0.867-5.117,4.6-5.55c2.133-0.267,5.633-0.2,10.5,0.2c2.267,0,4.9-0.85,7.9-2.55
				C28.267-19.533,27.55-18.4,26.75-17.3z"/>
		</defs>
		<clipPath id="SVGID_19_">
			<use xlink:href="#SVGID_18_"  style="overflow:visible;"/>
		</clipPath>
		<g id="Layer_3_3_" style="clip-path:url(#SVGID_19_);">
			<radialGradient id="SVGID_20_" cx="5.0498" cy="-21.5498" r="42.6427" gradientUnits="userSpaceOnUse">
				<stop  offset="0" style="stop-color:#4EAFF9"/>
				<stop  offset="1" style="stop-color:#3E70C7"/>
			</radialGradient>
			<polygon style="fill-rule:evenodd;clip-rule:evenodd;fill:url(#SVGID_20_);" points="21.4,0 33.2,-17.85 11.8,-32.05 0,-14.2 			
				"/>
		</g>
	</g>
	<g id="Layer_4_3_">
	</g>
</symbol>
<symbol  id="FlashAICB_x2F_Layer_1_x2F__x3C_Clip_Group_0_x3E__x5F_4" viewBox="0 -41.55 42.95 41.55">
	<g id="Layer_1_3_">
	</g>
	<g>
		<defs>
			<path id="SVGID_21_" d="M33.7-17.7c-0.367,1.333-0.967,2.25-1.8,2.75c-1,0.567-2.7,0.85-5.1,0.85c-2.5,0-7.133-0.5-13.9-1.5
				c-2.367-0.333-4.6,0.05-6.7,1.15c0.3-1.267,0.716-2.433,1.25-3.5c1.933-0.466,4.267-0.6,7-0.4c5.9,0.467,9.75,0.4,11.55-0.2
				c1.867-0.667,2.2-2.133,1-4.4c-1.167-2.2-5.667-2.833-13.5-1.9c1.7-1.033,3.5-1.783,5.4-2.25l2.9-0.1
				c6.567-0.133,10.5,1.633,11.8,5.3C34.1-20.533,34.133-19.133,33.7-17.7z"/>
		</defs>
		<clipPath id="SVGID_22_">
			<use xlink:href="#SVGID_21_"  style="overflow:visible;"/>
		</clipPath>
		<g id="Layer_3_2_" style="clip-path:url(#SVGID_22_);">
			
				<radialGradient id="SVGID_23_" cx="16.25" cy="11.3999" r="42.4277" gradientTransform="matrix(0.5531 -0.8331 0.8329 0.5529 -2.2329 18.6343)" gradientUnits="userSpaceOnUse">
				<stop  offset="0" style="stop-color:#4EAFF9"/>
				<stop  offset="1" style="stop-color:#3E70C7"/>
			</radialGradient>
			<polygon style="fill-rule:evenodd;clip-rule:evenodd;fill:url(#SVGID_23_);" points="27.45,0 42.95,-23.4 15.55,-41.55 0,-18.2 
							"/>
		</g>
	</g>
	<g id="Layer_4_2_">
	</g>
</symbol>
<symbol  id="FlashAICB_x2F_Layer_1_x2F__x3C_Clip_Group_0_x3E__x5F_5" viewBox="0 -93.85 93.75 93.85">
	<g id="Layer_1_2_">
	</g>
	<g>
		<defs>
			<path id="SVGID_24_" d="M61.95-33.45c-4.367,8.2-9.383,12.3-15.05,12.3h-0.05c-5.8,0-10.85-4.1-15.15-12.3
				c-4-7.6-5.65-14.833-4.95-21.7C27.85-65.683,33.7-71.5,44.3-72.6c0.4-0.1,0.817-0.15,1.25-0.15h2.65c0.5,0,0.917,0.05,1.25,0.15
				C60.083-71.5,65.933-65.683,67-55.15C67.667-48.35,65.983-41.117,61.95-33.45z"/>
		</defs>
		<clipPath id="SVGID_25_">
			<use xlink:href="#SVGID_24_"  style="overflow:visible;"/>
		</clipPath>
		<g id="Layer_3_1_" style="clip-path:url(#SVGID_25_);">
			<radialGradient id="SVGID_26_" cx="38.6001" cy="-33.6499" r="42.8763" gradientUnits="userSpaceOnUse">
				<stop  offset="0" style="stop-color:#ACFFF1"/>
				<stop  offset="1" style="stop-color:#3CBAF9"/>
			</radialGradient>
			<polygon style="fill-rule:evenodd;clip-rule:evenodd;fill:url(#SVGID_26_);" points="50.1,0 93.75,-50.85 43.65,-93.85 0,-43.05 
							"/>
		</g>
	</g>
	<g id="Layer_4_1_">
	</g>
</symbol>
<symbol  id="FlashAICB_x2F_Layer_1_x2F__x3C_Clip_Group_0_x3E__x5F_6" viewBox="0 -50.2 42.5 50.2">
	<g id="Layer_1_11_">
	</g>
	<g>
		<defs>
			<polygon id="SVGID_27_" points="0,0 0,-50.2 42.5,-50.2 42.5,0 			"/>
		</defs>
		<clipPath id="SVGID_28_">
			<use xlink:href="#SVGID_27_"  style="overflow:visible;"/>
		</clipPath>
		<g id="Layer_3_9_" style="clip-path:url(#SVGID_28_);">
			<path style="fill-rule:evenodd;clip-rule:evenodd;" d="M0-33.75c2.133-4.133,5.983-6.8,11.55-8c5.6-1.2,10.617-0.433,15.05,2.3
				c5.167,3.233,8.25,9.034,9.25,17.4C36.883-13.517,35.233-6.167,30.9,0c3.733-3.633,6.717-8.617,8.95-14.95
				c2.167-6.133,3-11.65,2.5-16.55c-1.1-11.133-7.3-17.3-18.6-18.5c-0.533-0.133-0.967-0.2-1.3-0.2H19.6
				c-0.333,0-0.767,0.067-1.3,0.2C7.8-48.9,1.7-43.483,0-33.75z"/>
		</g>
	</g>
	<g id="Layer_4_9_">
	</g>
</symbol>
<symbol  id="FlashAICB_x2F_Layer_1_x2F__x3C_Clip_Group_0_x3E__x5F_7" viewBox="0 -28.65 28.9 28.65">
	<g id="Layer_1_13_">
	</g>
	<g>
		<defs>
			<path id="SVGID_29_" d="M21.55-11.05c-1,1.2-2,1.767-3,1.7c-0.7-0.066-1.433-0.6-2.2-1.6c-1.267-1.7-1.934-2.566-2-2.6l0.3,0.45
				c0.167,0.733,0.133,1.467-0.1,2.2c-0.466,1.5-1.633,2.3-3.5,2.4h-0.3c-1.433,0-2.633-0.567-3.6-1.7s-1.417-2.45-1.35-3.95
				c0.1-1.667,0.75-3.033,1.95-4.1c1.333-1.167,3.167-1.767,5.5-1.8c2.433-0.067,4.467,0.25,6.1,0.95c1.967,0.833,3.1,2.167,3.4,4
				C22.983-13.667,22.583-12.317,21.55-11.05z M11.2-15.05c-0.733,0-1.25,0.283-1.55,0.85C9.283-13.6,9.333-13,9.8-12.4
				c0.467,0.6,1.067,0.75,1.8,0.45c0.867-0.367,1.183-0.966,0.95-1.8c-0.1-0.433-0.3-0.817-0.6-1.15l0.95,0.3
				C12.367-14.9,11.8-15.05,11.2-15.05z"/>
		</defs>
		<clipPath id="SVGID_30_">
			<use xlink:href="#SVGID_29_"  style="overflow:visible;"/>
		</clipPath>
		<g id="Layer_3_11_" style="clip-path:url(#SVGID_30_);">
			<radialGradient id="SVGID_31_" cx="8.75" cy="-8.75" r="16.4538" gradientUnits="userSpaceOnUse">
				<stop  offset="0" style="stop-color:#FBC3C7"/>
				<stop  offset="1" style="stop-color:#D06E73"/>
			</radialGradient>
			<polygon style="fill-rule:evenodd;clip-rule:evenodd;fill:url(#SVGID_31_);" points="12.2,0 28.9,-12.85 16.7,-28.65 0,-15.8 			
				"/>
		</g>
	</g>
	<g id="Layer_4_11_">
	</g>
</symbol>
<symbol  id="FlashAICB_x2F_Layer_1_x2F__x3C_Clip_Group_0_x3E__x5F_8" viewBox="0 -3.25 2.8 3.25">
	<g id="Layer_1_15_">
	</g>
	<g>
		<defs>
			<polygon id="SVGID_32_" points="0,0 0,-3.25 2.8,-3.25 2.8,0 			"/>
		</defs>
		<clipPath id="SVGID_33_">
			<use xlink:href="#SVGID_32_"  style="overflow:visible;"/>
		</clipPath>
		<g id="Layer_3_12_" style="clip-path:url(#SVGID_33_);">
			<path style="fill-rule:evenodd;clip-rule:evenodd;fill:#D6767A;" d="M0-3.25C0.367-2.817,0.583-2.367,0.65-1.9
				c0.833-0.067,1.434,0.25,1.8,0.95C2.517-0.75,2.617-0.433,2.75,0C2.817-0.567,2.8-1.067,2.7-1.5L2.6-1.75
				C2-2.417,1.367-2.85,0.7-3.05L0-3.25z"/>
		</g>
	</g>
	<g id="Layer_4_12_">
	</g>
</symbol>
<symbol  id="FlashAICB_x2F_Layer_1_x2F__x3C_Group_x3E_" viewBox="0 -47.25 40.079 47.25">
	<g id="Layer_1_23_">
		<g>
			
				<use xlink:href="#FlashAICB_x2F_Layer_1_x2F__x3C_Clip_Group_0_x3E__x5F_0"  width="40.079" height="47.25" y="-47.25" style="overflow:visible;"/>
		</g>
	</g>
</symbol>
<symbol  id="FlashAICB_x2F_Layer_1_x2F__x3C_Group_x3E__x5F_0" viewBox="0 -3.25 2.8 3.25">
	<g id="Layer_1_25_">
		<g>
			
				<use xlink:href="#FlashAICB_x2F_Layer_1_x2F__x3C_Clip_Group_0_x3E__x5F_8"  width="2.8" height="3.25" y="-3.25" style="overflow:visible;"/>
		</g>
	</g>
</symbol>
<symbol  id="FlashAICB_x2F_Layer_1_x2F__x3C_Group_x3E__x5F_1" viewBox="0 -2.85 4.041 2.85">
	<g id="Layer_1_9_">
		<g>
			<g>
				<path style="fill-rule:evenodd;clip-rule:evenodd;fill:#B14D55;" d="M1.6,0c0.6-0.233,1.133-0.5,1.6-0.8
					c0.966-0.633,1.1-1.184,0.4-1.65l-0.7-0.4L1.95-2.5C1.083-2.1,0.433-1.417,0-0.45C0.633-0.383,1.167-0.233,1.6,0z"/>
			</g>
		</g>
	</g>
</symbol>
<symbol  id="FlashAICB_x2F_Layer_1_x2F__x3C_Group_x3E__x5F_1_x5F_0" viewBox="0 -6.009 13.2 6.009">
	<g id="Layer_1_14_">
		<g>
			<g>
				<path style="fill-rule:evenodd;clip-rule:evenodd;" d="M7.1-4.65C9.933-3.75,11.967-2.2,13.2,0l-0.05-1.05
					c-0.3-1.833-1.433-3.167-3.4-4C8.117-5.75,6.083-6.067,3.65-6C2.383-6,1.167-5.767,0-5.3c1.267-0.167,2.15-0.25,2.65-0.25
					C3.917-5.517,5.4-5.217,7.1-4.65z"/>
			</g>
		</g>
	</g>
</symbol>
<symbol  id="FlashAICB_x2F_Layer_1_x2F__x3C_Group_x3E__x5F_2" viewBox="0 -50.2 42.5 50.2">
	<g id="Layer_1_24_">
		<g>
			
				<use xlink:href="#FlashAICB_x2F_Layer_1_x2F__x3C_Clip_Group_0_x3E__x5F_6"  width="42.5" height="50.2" y="-50.2" style="overflow:visible;"/>
		</g>
	</g>
</symbol>
<symbol  id="FlashAICB_x2F_Layer_1_x2F__x3C_Group_x3E__x5F_3" viewBox="0 -61.228 109.9 61.228">
	<g id="Layer_1_26_">
		<g>
			
				<use xlink:href="#FlashAICB_x2F_Layer_1_x2F__x3C_Path_x3E__x5F_1_x5F_0"  width="109.9" height="55.7" y="-55.7" style="overflow:visible;opacity:0.1992;enable-background:new    ;"/>
			
				<use xlink:href="#FlashAICB_x2F_Layer_1_x2F__x3C_Path_x3E__x5F_2"  width="109.9" height="61.228" y="-61.228" style="overflow:visible;opacity:0.1211;enable-background:new    ;"/>
		</g>
	</g>
</symbol>
<symbol  id="FlashAICB_x2F_Layer_1_x2F__x3C_Path_x3E_" viewBox="-0.025 -40.2 25.921 40.2">
	<g id="Layer_1_17_">
		<linearGradient id="SVGID_34_" gradientUnits="userSpaceOnUse" x1="0.0249" y1="-20.1001" x2="25.8749" y2="-20.1001">
			<stop  offset="0.3882" style="stop-color:#510D02"/>
			<stop  offset="0.4039" style="stop-color:#540F02"/>
			<stop  offset="0.8078" style="stop-color:#933B07"/>
			<stop  offset="1" style="stop-color:#AC4C0B"/>
		</linearGradient>
		<path style="fill-rule:evenodd;clip-rule:evenodd;fill:url(#SVGID_34_);" d="M5.5-0.05C5.7-0.017,6,0,6.4,0
			c5.5,0,10.333-3.95,14.5-11.85c3.9-7.367,5.517-14.333,4.85-20.9c-0.267-2.633-0.867-5-1.8-7.1l-1.15-0.2
			c-0.333-0.1-0.75-0.15-1.25-0.15H18.9c-0.433,0-0.85,0.05-1.25,0.15C7.05-38.95,1.2-33.133,0.1-22.6c-0.333,3.233,0,6.917,1,11.05
			C2.067-7.45,3.533-3.617,5.5-0.05z"/>
	</g>
</symbol>
<symbol  id="FlashAICB_x2F_Layer_1_x2F__x3C_Path_x3E__x5F_0" viewBox="0 -56.95 118.5 56.95">
	<g id="Layer_1_20_">
		
			<radialGradient id="SVGID_35_" cx="59.25" cy="-28.4751" r="46.4833" gradientTransform="matrix(1 0 0 -1 0 -56.9502)" gradientUnits="userSpaceOnUse">
			<stop  offset="0.051" style="stop-color:#4F1972"/>
			<stop  offset="0.5216" style="stop-color:#4C2675"/>
			<stop  offset="0.6392" style="stop-color:#4B2A75"/>
		</radialGradient>
		<path style="fill-rule:evenodd;clip-rule:evenodd;fill:url(#SVGID_35_);" d="M95.35-30.3c10.7,7.7,18.25,17.716,22.65,30.05
			L118.5,0c-0.567-15.867-6.583-29.317-18.05-40.35c-11.5-11.066-25.25-16.6-41.25-16.6c-15.667,0-29.217,5.35-40.65,16.05
			C7.183-30.233,1-17.15,0-1.65c4.6-12,12.167-21.684,22.7-29.05c10.8-7.566,22.8-11.35,36-11.35
			C72.2-42.05,84.417-38.133,95.35-30.3z"/>
	</g>
</symbol>
<symbol  id="FlashAICB_x2F_Layer_1_x2F__x3C_Path_x3E__x5F_1" viewBox="-0.014 -47.9 29.796 47.881">
	<g id="Layer_1_16_">
		<linearGradient id="SVGID_36_" gradientUnits="userSpaceOnUse" x1="-0.0142" y1="-23.9595" x2="29.7815" y2="-23.9595">
			<stop  offset="0.3882" style="stop-color:#510D02"/>
			<stop  offset="0.4039" style="stop-color:#540F02"/>
			<stop  offset="0.8078" style="stop-color:#933B07"/>
			<stop  offset="1" style="stop-color:#AC4C0B"/>
		</linearGradient>
		<path style="fill-rule:evenodd;clip-rule:evenodd;fill:url(#SVGID_36_);" d="M22.4-2.95l0.2-0.25l0.25-0.45
			c0.433-0.633,0.9-1.434,1.4-2.4l0.15-0.3c1.934-3.667,3.383-7.566,4.35-11.7c0.933-4.133,1.233-7.85,0.9-11.15
			c-0.467-4.933-1.967-8.9-4.5-11.9l-1.2-1.3l-1.25-1.05l-3-1.9l-1.75-0.75l-0.45-0.15c-0.433-0.2-0.917-0.35-1.45-0.45l-0.55-0.2
			l-4.45-0.8c-0.533-0.133-0.966-0.2-1.3-0.2H6.9c-0.333,0-0.767,0.066-1.3,0.2l-2.35,0.35l-0.1,0.05
			c-0.733,0.1-1.433,0.25-2.1,0.45H1c-0.4,1.533-0.7,3.117-0.9,4.75c-0.367,3.767,0.15,8.033,1.55,12.8c1.4,4.867,3.4,9.05,6,12.55
			c-1.467-1.767-2.533-3.483-3.2-5.15c-0.267-0.033-0.517,0.05-0.75,0.25c-0.467,0.367-0.633,1.117-0.5,2.25s0.85,2.316,2.15,3.55
			c0.667,0.6,1.316,1.1,1.95,1.5l-1.05,0.2c-0.567,0.066-0.883,0.316-0.95,0.75c-0.1,0.533,0.117,1.35,0.65,2.45
			c0.433,0.967,1.65,1.8,3.65,2.5c1.033,0.333,2,0.567,2.9,0.7c-0.567,0.067-1.167,0.2-1.8,0.4C9.467-6.95,8.75-6.4,8.55-5.7
			c-0.233,0.833,0.233,1.467,1.4,1.9c1.133,0.466,2.2,0.45,3.2-0.05c1.3-0.667,2.817-1.566,4.55-2.7c-0.1,0.566-0.35,1.3-0.75,2.2
			c-0.333,0.767-0.45,1.567-0.35,2.4c0.133,0.967,0.55,1.567,1.25,1.8C19.35,0.35,20.867-0.583,22.4-2.95z"/>
	</g>
</symbol>
<symbol  id="FlashAICB_x2F_Layer_1_x2F__x3C_Path_x3E__x5F_13" viewBox="0 -45.5 38.567 45.5">
	<g id="Layer_1_18_">
		<path style="fill-rule:evenodd;clip-rule:evenodd;" d="M28,0c3.367-3.267,6.083-7.783,8.15-13.55c1.967-5.567,2.733-10.567,2.3-15
			c-1.067-10.133-6.7-15.717-16.9-16.75c-0.466-0.133-0.867-0.2-1.2-0.2h-2.6c-0.3,0-0.683,0.067-1.15,0.2
			C7.067-44.3,1.533-39.417,0-30.65c1.933-3.733,5.433-6.133,10.5-7.2c5.033-1.066,9.567-0.367,13.6,2.1c4.7,2.9,7.5,8.15,8.4,15.75
			C33.433-12.233,31.933-5.567,28,0z"/>
	</g>
</symbol>
<symbol  id="FlashAICB_x2F_Layer_1_x2F__x3C_Path_x3E__x5F_1_x5F_0" viewBox="0 -55.7 109.9 55.7">
	<g id="Layer_1_21_">
		
			<linearGradient id="SVGID_37_" gradientUnits="userSpaceOnUse" x1="16165.3516" y1="-53.8052" x2="16220.9971" y2="-53.8052" gradientTransform="matrix(1.795332e-005 1 -1 -0.001 0.8545 -16221.1064)">
			<stop  offset="0.1294" style="stop-color:#E2B8B2"/>
			<stop  offset="0.9255" style="stop-color:#FFFFFF"/>
		</linearGradient>
		<path style="fill-rule:evenodd;clip-rule:evenodd;fill:url(#SVGID_37_);" d="M95.95-17.95c4.433-4.933,7.917-10.4,10.45-16.4
			c2.333-5.633,3.5-10.933,3.5-15.9c0-1.6-0.167-3.067-0.5-4.4c-1.867,11.033-7.267,20.833-16.2,29.4
			c-10.5,10.133-23.25,15.2-38.25,15.2c-15.233,0-28.05-5.05-38.45-15.15C7.533-33.9,2.183-44.067,0.45-55.7
			C0.15-54.567,0-53.15,0-51.45c0,5.467,1.167,11.117,3.5,16.95c2.467,6.167,5.95,11.733,10.45,16.7C24.65-5.933,38.317,0,54.95,0
			C71.383,0,85.05-5.983,95.95-17.95z"/>
	</g>
</symbol>
<symbol  id="FlashAICB_x2F_Layer_1_x2F__x3C_Path_x3E__x5F_2" viewBox="0 -61.228 109.9 61.228">
	<g id="Layer_1_22_">
		<path style="fill-rule:evenodd;clip-rule:evenodd;fill:#FFFFFF;" d="M106.4-34.35c2.333-5.633,3.5-10.933,3.5-15.9
			c0-4.933-1.433-8.05-4.3-9.35c-2.367-1.033-6.3-1.017-11.8,0.05c-7.267,1.767-13.083,3.117-17.45,4.05
			c-8,1.7-15.133,2.55-21.4,2.55c-6.3,0-13.434-0.917-21.4-2.75c-8.333-2.2-14.15-3.683-17.45-4.45
			c-5.533-1.267-9.467-1.417-11.8-0.45C1.433-59.433,0-56.383,0-51.45c0,5.467,1.167,11.117,3.5,16.95
			c2.467,6.167,5.95,11.733,10.45,16.7C24.65-5.933,38.317,0,54.95,0c16.433,0,30.1-5.983,41-17.95
			C100.383-22.883,103.867-28.35,106.4-34.35z"/>
	</g>
</symbol>
<symbol  id="FlashAICB_x2F_Layer_1_x2F__x3C_Path_x3E__x5F_9" viewBox="0 -7.2 10.35 7.215">
	<g id="Layer_1_19_">
		<path style="fill-rule:evenodd;clip-rule:evenodd;" d="M0-0.4C0.067-0.167,0.267-0.033,0.6,0c0.667,0.1,1.7-0.3,3.1-1.2
			c2.267-1.433,4.05-2.867,5.35-4.3c0.667-0.7,1.1-1.267,1.3-1.7C9.817-6.267,8.95-5.533,7.75-5c-1.1,0.5-1.967,0.75-2.6,0.75
			c0,0.167-0.217,0.45-0.65,0.85C3.633-2.567,2.133-1.567,0-0.4z"/>
	</g>
</symbol>
<g>
	<path style="fill-rule:evenodd;clip-rule:evenodd;fill:#68757B;" d="M146.35,25.15c7.934,7.934,14.067,17.017,18.4,27.25
		c4.5,10.633,6.75,21.75,6.75,33.35c0,11.6-2.25,22.717-6.75,33.35c-4.333,10.233-10.467,19.317-18.4,27.25
		c-7.899,7.9-16.983,14.034-27.25,18.4c-10.633,4.5-21.75,6.75-33.35,6.75c-11.6,0-22.717-2.25-33.35-6.75
		c-10.267-4.366-19.35-10.5-27.25-18.4c-7.933-7.933-14.066-17.017-18.4-27.25C2.25,108.467,0,97.35,0,85.75
		c0-11.6,2.25-22.717,6.75-33.35c4.333-10.233,10.467-19.316,18.4-27.25c7.9-7.933,16.983-14.066,27.25-18.4
		C63.033,2.25,74.15,0,85.75,0c11.6,0,22.717,2.25,33.35,6.75C129.366,11.083,138.45,17.217,146.35,25.15z"/>
	
		<linearGradient id="SVGID_38_" gradientUnits="userSpaceOnUse" x1="-171.5854" y1="85.75" x2="-0.0854" y2="85.75" gradientTransform="matrix(5.830904e-006 -1 1 -0.001 -9.214067e-005 4.449275e-004)">
		<stop  offset="0.0039" style="stop-color:#4F1D1F"/>
		<stop  offset="0.2078" style="stop-color:#7D5F3C"/>
		<stop  offset="0.5569" style="stop-color:#B09A68"/>
		<stop  offset="0.7412" style="stop-color:#EEEDCF"/>
		<stop  offset="0.7922" style="stop-color:#E7E1AD"/>
		<stop  offset="1" style="stop-color:#B9A57A"/>
	</linearGradient>
	<path style="fill-rule:evenodd;clip-rule:evenodd;fill:url(#SVGID_38_);" d="M146.35,25.15c7.934,7.934,14.067,17.017,18.4,27.25
		c4.5,10.633,6.75,21.75,6.75,33.35c0,11.6-2.25,22.717-6.75,33.35c-4.333,10.233-10.467,19.317-18.4,27.25
		c-7.899,7.9-16.983,14.034-27.25,18.4c-10.633,4.5-21.75,6.75-33.35,6.75c-11.6,0-22.717-2.25-33.35-6.75
		c-10.267-4.366-19.35-10.5-27.25-18.4c-7.933-7.933-14.066-17.017-18.4-27.25C2.25,108.467,0,97.35,0,85.75
		c0-11.6,2.25-22.717,6.75-33.35c4.333-10.233,10.467-19.316,18.4-27.25c7.9-7.933,16.983-14.066,27.25-18.4
		C63.033,2.25,74.15,0,85.75,0c11.6,0,22.717,2.25,33.35,6.75C129.366,11.083,138.45,17.217,146.35,25.15z"/>
	<g>
		<g>
			
				<linearGradient id="SVGID_39_" gradientUnits="userSpaceOnUse" x1="-158.2358" y1="85.751" x2="-13.4355" y2="85.751" gradientTransform="matrix(6.906077e-006 -1 1 -0.001 -1.647736e-004 4.449275e-004)">
				<stop  offset="0.0431" style="stop-color:#BAA270"/>
				<stop  offset="1" style="stop-color:#73624A"/>
			</linearGradient>
			<path style="fill-rule:evenodd;clip-rule:evenodd;fill:url(#SVGID_39_);" d="M152.45,57.6c3.8,8.967,5.7,18.35,5.7,28.15
				c0,9.833-1.9,19.233-5.7,28.2c-3.667,8.666-8.834,16.333-15.5,23c-6.667,6.666-14.334,11.833-23,15.5
				c-8.967,3.8-18.367,5.7-28.2,5.7c-9.833,0-19.233-1.9-28.2-5.7c-8.667-3.667-16.333-8.834-23-15.5
				c-6.667-6.667-11.833-14.334-15.5-23c-3.8-8.967-5.7-18.367-5.7-28.2c0-9.8,1.9-19.183,5.7-28.15
				c3.667-8.667,8.833-16.35,15.5-23.05c6.7-6.667,14.367-11.833,23-15.5c8.967-3.8,18.367-5.7,28.2-5.7
				c9.833,0,19.233,1.9,28.2,5.7c8.666,3.667,16.333,8.833,23,15.5C143.616,41.25,148.783,48.933,152.45,57.6z"/>
		</g>
	</g>
	<g>
		
			<linearGradient id="SVGID_40_" gradientUnits="userSpaceOnUse" x1="-151.8853" y1="85.7505" x2="-19.7856" y2="85.7505" gradientTransform="matrix(7.567159e-006 -1 1 -0.001 -1.764781e-004 4.449275e-004)">
			<stop  offset="0.0549" style="stop-color:#391D4C"/>
			<stop  offset="0.3451" style="stop-color:#5B457E"/>
			<stop  offset="0.5686" style="stop-color:#7966A8"/>
			<stop  offset="0.6392" style="stop-color:#7D6BA8"/>
			<stop  offset="0.7255" style="stop-color:#887AA7"/>
			<stop  offset="0.8118" style="stop-color:#9B93A5"/>
			<stop  offset="0.9059" style="stop-color:#B5B5A3"/>
			<stop  offset="1" style="stop-color:#D6E0A0"/>
		</linearGradient>
		<path style="fill-rule:evenodd;clip-rule:evenodd;fill:url(#SVGID_40_);" d="M151.85,85.75c0,18.233-6.466,33.8-19.399,46.7
			c-12.9,12.899-28.467,19.35-46.7,19.35s-33.8-6.45-46.7-19.35c-12.933-12.9-19.4-28.467-19.4-46.7c0-18.2,6.467-33.75,19.4-46.65
			c12.9-12.934,28.467-19.4,46.7-19.4s33.8,6.466,46.7,19.4C145.384,52,151.85,67.55,151.85,85.75z"/>
		<path style="fill-rule:evenodd;clip-rule:evenodd;fill:#31074F;" d="M151,85.75c0-18-6.366-33.367-19.1-46.1
			C119.167,26.883,103.783,20.5,85.75,20.5S52.333,26.883,39.6,39.65c-12.733,12.733-19.1,28.1-19.1,46.1
			c0,18.033,6.367,33.417,19.1,46.15S67.717,151,85.75,151s33.417-6.366,46.15-19.1S151,103.783,151,85.75z M111.35,23.9
			c8.134,3.367,15.367,8.217,21.7,14.55c6.334,6.333,11.184,13.566,14.55,21.7c3.367,8.133,5.051,16.667,5.051,25.6
			c0,8.967-1.684,17.517-5.051,25.65c-3.366,8.133-8.216,15.35-14.55,21.649c-6.333,6.3-13.566,11.15-21.7,14.55
			c-8.166,3.367-16.699,5.051-25.6,5.051c-8.934,0-17.483-1.684-25.65-5.051c-8.133-3.399-15.35-8.25-21.65-14.55
			c-6.333-6.3-11.184-13.517-14.55-21.649c-3.367-8.134-5.05-16.684-5.05-25.65c0-8.933,1.683-17.467,5.05-25.6
			s8.217-15.367,14.55-21.7c6.3-6.333,13.517-11.184,21.65-14.55s16.683-5.05,25.65-5.05C94.684,18.85,103.217,20.533,111.35,23.9z"
			/>
	</g>
	
		<radialGradient id="SVGID_41_" cx="85.75" cy="83.5996" r="59.2749" gradientTransform="matrix(1 0 0 -1 0 167.1992)" gradientUnits="userSpaceOnUse">
		<stop  offset="0.502" style="stop-color:#8F81E0"/>
		<stop  offset="0.6392" style="stop-color:#8678CE;stop-opacity:0.9059"/>
		<stop  offset="0.9059" style="stop-color:#6F60A1;stop-opacity:0.6588"/>
		<stop  offset="1" style="stop-color:#67578F;stop-opacity:0.5686"/>
	</radialGradient>
	<path style="fill-rule:evenodd;clip-rule:evenodd;fill:url(#SVGID_41_);" d="M145.1,83.65c0,16.333-5.783,30.284-17.35,41.85
		c-11.6,11.533-25.6,17.3-42,17.3c-16.4,0-30.383-5.767-41.95-17.3c-11.6-11.566-17.4-25.517-17.4-41.85
		c0-16.367,5.8-30.333,17.4-41.9C55.367,30.183,69.35,24.4,85.75,24.4c16.4,0,30.4,5.783,42,17.35
		C139.316,53.317,145.1,67.283,145.1,83.65z"/>
	<g>
		<g>
			<path style="fill-rule:evenodd;clip-rule:evenodd;fill:#C3B0EC;" d="M64.2,37.8c-0.733,0-1.3-0.233-1.7-0.7
				c-0.367-0.434-0.55-0.95-0.55-1.55c0-0.6,0.2-1.133,0.6-1.6c0.4-0.467,0.95-0.7,1.65-0.7h4.65c0.7,0,1.25,0.233,1.65,0.7
				c0.4,0.433,0.6,0.983,0.6,1.65v18.8c0,0.8-0.233,1.434-0.7,1.9c-0.467,0.434-1.066,0.65-1.8,0.65s-1.317-0.217-1.75-0.65
				c-0.467-0.466-0.7-1.1-0.7-1.9V37.8H64.2z"/>
			<path style="fill-rule:evenodd;clip-rule:evenodd;fill:#C3B0EC;" d="M82.8,32.85c3.033,0,5.316,1.35,6.851,4.05
				c1.267,2.2,1.899,4.9,1.899,8.1s-0.633,5.9-1.899,8.1c-1.534,2.7-3.817,4.05-6.851,4.05s-5.333-1.35-6.9-4.05
				c-1.233-2.167-1.85-4.867-1.85-8.1c0-3.2,0.617-5.9,1.85-8.1C77.467,34.2,79.767,32.85,82.8,32.85z M79.2,45
				c0,5.1,1.2,7.65,3.6,7.65c2.4,0,3.601-2.55,3.601-7.65s-1.2-7.65-3.601-7.65C80.4,37.35,79.2,39.9,79.2,45z"/>
			<path style="fill-rule:evenodd;clip-rule:evenodd;fill:#C3B0EC;" d="M101.2,32.85c2.2,0,3.967,0.683,5.3,2.05
				c1.167,1.2,1.75,2.533,1.75,4c0,2.233-0.9,3.917-2.7,5.05c1.2,0.566,2.167,1.367,2.9,2.4c0.733,1.066,1.1,2.233,1.1,3.5
				c0,2-0.8,3.717-2.399,5.15c-1.601,1.433-3.567,2.15-5.9,2.15c-2.3,0-4.233-0.7-5.8-2.1c-1.434-1.3-2.15-2.667-2.15-4.1
				c0-0.633,0.283-1.167,0.851-1.6c0.5-0.4,1.066-0.6,1.699-0.6c0.634,0,1.367,0.65,2.2,1.95c0.8,1.267,1.884,1.9,3.25,1.9
				c0.867,0,1.601-0.283,2.2-0.85c0.6-0.6,0.9-1.333,0.9-2.2c0-1.6-0.934-2.55-2.801-2.85c-1.866-0.3-2.8-1.067-2.8-2.3
				c0-1.133,0.783-1.9,2.351-2.3c1.566-0.4,2.35-1.217,2.35-2.45c0-0.633-0.217-1.15-0.65-1.55c-0.433-0.434-1.017-0.65-1.75-0.65
				c-1.133,0-2.066,0.533-2.8,1.6c-0.767,1.067-1.483,1.6-2.149,1.6c-0.634,0-1.167-0.25-1.601-0.75
				C94.184,39.433,94,38.867,94,38.2c0-1.3,0.75-2.517,2.25-3.65S99.4,32.85,101.2,32.85z"/>
		</g>
		<g>
			
				<linearGradient id="SVGID_42_" gradientUnits="userSpaceOnUse" x1="-56.0176" y1="66.5273" x2="-32.3426" y2="66.5273" gradientTransform="matrix(4.223865e-005 -1 1 -0.001 1.435880e-004 4.449275e-004)">
				<stop  offset="0.2196" style="stop-color:#2F104E"/>
				<stop  offset="0.5098" style="stop-color:#472480"/>
				<stop  offset="0.9373" style="stop-color:#6E43D1"/>
			</linearGradient>
			<path style="fill-rule:evenodd;clip-rule:evenodd;fill:url(#SVGID_42_);" d="M64.2,36.8c-0.733,0-1.3-0.233-1.7-0.7
				c-0.367-0.434-0.55-0.95-0.55-1.55c0-0.6,0.2-1.133,0.6-1.6c0.4-0.467,0.95-0.7,1.65-0.7h4.65c0.7,0,1.25,0.233,1.65,0.7
				c0.4,0.433,0.6,0.983,0.6,1.65v18.8c0,0.8-0.233,1.434-0.7,1.9c-0.467,0.434-1.066,0.65-1.8,0.65s-1.317-0.217-1.75-0.65
				c-0.467-0.466-0.7-1.1-0.7-1.9V36.8H64.2z"/>
			
				<linearGradient id="SVGID_43_" gradientUnits="userSpaceOnUse" x1="-56.2324" y1="82.8027" x2="-31.9574" y2="82.8027" gradientTransform="matrix(4.119465e-005 -1 1 -0.001 -9.129937e-006 -4.747650e-005)">
				<stop  offset="0.2196" style="stop-color:#2F104E"/>
				<stop  offset="0.5098" style="stop-color:#472480"/>
				<stop  offset="0.9373" style="stop-color:#6E43D1"/>
			</linearGradient>
			<path style="fill-rule:evenodd;clip-rule:evenodd;fill:url(#SVGID_43_);" d="M82.8,31.85c3.033,0,5.316,1.35,6.851,4.05
				c1.267,2.2,1.899,4.9,1.899,8.1s-0.633,5.9-1.899,8.1c-1.534,2.7-3.817,4.05-6.851,4.05s-5.333-1.35-6.9-4.05
				c-1.233-2.167-1.85-4.867-1.85-8.1c0-3.2,0.617-5.9,1.85-8.1C77.467,33.2,79.767,31.85,82.8,31.85z M79.2,44
				c0,5.1,1.2,7.65,3.6,7.65c2.4,0,3.601-2.55,3.601-7.65s-1.2-7.65-3.601-7.65C80.4,36.35,79.2,38.9,79.2,44z"/>
			
				<linearGradient id="SVGID_44_" gradientUnits="userSpaceOnUse" x1="-56.2505" y1="101.4277" x2="-31.9755" y2="101.4277" gradientTransform="matrix(4.119465e-005 -1 1 -0.001 -9.129937e-006 -4.747650e-005)">
				<stop  offset="0.2196" style="stop-color:#2F104E"/>
				<stop  offset="0.5098" style="stop-color:#472480"/>
				<stop  offset="0.9373" style="stop-color:#6E43D1"/>
			</linearGradient>
			<path style="fill-rule:evenodd;clip-rule:evenodd;fill:url(#SVGID_44_);" d="M101.2,31.85c2.2,0,3.967,0.683,5.3,2.05
				c1.167,1.2,1.75,2.533,1.75,4c0,2.233-0.9,3.917-2.7,5.05c1.2,0.566,2.167,1.367,2.9,2.4c0.733,1.066,1.1,2.233,1.1,3.5
				c0,2-0.8,3.717-2.399,5.15c-1.601,1.433-3.567,2.15-5.9,2.15c-2.3,0-4.233-0.7-5.8-2.1c-1.434-1.3-2.15-2.667-2.15-4.1
				c0-0.633,0.283-1.167,0.851-1.6c0.5-0.4,1.066-0.6,1.699-0.6c0.634,0,1.367,0.65,2.2,1.95c0.8,1.267,1.884,1.9,3.25,1.9
				c0.867,0,1.601-0.283,2.2-0.85c0.6-0.6,0.9-1.333,0.9-2.2c0-1.6-0.934-2.55-2.801-2.85c-1.866-0.3-2.8-1.067-2.8-2.3
				c0-1.133,0.783-1.9,2.351-2.3c1.566-0.4,2.35-1.217,2.35-2.45c0-0.633-0.217-1.15-0.65-1.55c-0.433-0.434-1.017-0.65-1.75-0.65
				c-1.133,0-2.066,0.533-2.8,1.6c-0.767,1.067-1.483,1.6-2.149,1.6c-0.634,0-1.167-0.25-1.601-0.75
				C94.184,38.433,94,37.867,94,37.2c0-1.3,0.75-2.517,2.25-3.65S99.4,31.85,101.2,31.85z"/>
		</g>
	</g>
	<g>
		<path style="fill-rule:evenodd;clip-rule:evenodd;fill:#C3B0EC;" d="M52.35,109.25l0.1-0.35c0.066-0.2-0.083-0.4-0.45-0.601
			l0.15,1.4l0.05-0.15L52.35,109.25z M51.1,109l0.05,0.3c0.233,0.3,0.567,0.434,1,0.4L51.1,109z M94.4,71.05
			c3.333-2.6,6.85-3.933,10.55-4h0.149c6.867,0,12.817,4.217,17.851,12.65c4.533,7.566,6.816,15.366,6.85,23.399
			c0,1.034-0.05,2.017-0.149,2.95l-0.101,1.05l-0.05,0.15c-0.8,5.9-2.983,10.566-6.55,14s-8.384,5.5-14.45,6.2
			c-0.634,0.166-1.316,0.25-2.05,0.25c-3.2,7.233-9.351,11.383-18.45,12.45c-0.467,0.133-1.017,0.216-1.65,0.25
			c-0.199,0-0.767,0-1.7,0H83.7c-0.967,0-1.75-0.084-2.35-0.25c-6.1-0.7-10.9-2.801-14.4-6.301
			c-3.467-3.533-5.517-8.333-6.15-14.399v-0.3c-1.8,0.633-3.933,0.949-6.4,0.949l-2.35-0.149c-1.4,0.566-2.883,0.783-4.45,0.649
			c-1.534-0.166-3.017-0.649-4.45-1.449c-1.566-0.9-2.65-2.267-3.25-4.101c-0.5-1.5-0.617-3.1-0.35-4.8
			c0.333-1.7,1.284-2.85,2.85-3.45c0.4-1.6,1.2-3.05,2.4-4.35c1.767-1.867,3.95-2.834,6.55-2.9c-0.233-5.366,0.716-11.05,2.85-17.05
			c2.167-6.067,5.033-11.067,8.6-15c4.367-4.8,9.133-7.233,14.3-7.3h0.35c3.1,0.066,6.1,1.017,9,2.85
			C89.35,64.917,92,67.583,94.4,71.05z"/>
		
			<linearGradient id="SVGID_45_" gradientUnits="userSpaceOnUse" x1="-139.4839" y1="84.6064" x2="-59.2769" y2="84.6064" gradientTransform="matrix(1.246494e-005 -1 1 -0.001 -2.092414e-005 4.449275e-004)">
			<stop  offset="0.149" style="stop-color:#6B49A5"/>
			<stop  offset="0.9373" style="stop-color:#A897D3"/>
		</linearGradient>
		<path style="fill-rule:evenodd;clip-rule:evenodd;fill:url(#SVGID_45_);" d="M94.4,70c3.333-2.633,6.85-3.95,10.55-3.95h0.149
			c6.867,0,12.817,4.2,17.851,12.6c4.533,7.567,6.816,15.367,6.85,23.4c0,1.033-0.05,2.017-0.149,2.95l-0.101,1.05l-0.05,0.15
			c-0.8,5.934-2.983,10.6-6.55,14c-3.566,3.434-8.384,5.5-14.45,6.2c-0.634,0.166-1.316,0.25-2.05,0.25
			c-3.2,7.267-9.351,11.433-18.45,12.5c-0.833,0.199-1.95,0.267-3.35,0.199L83.7,139.4c-0.8,0-1.583-0.084-2.35-0.25
			c-6.1-0.7-10.9-2.817-14.4-6.351c-3.467-3.533-5.517-8.333-6.15-14.399v-0.25c-1.833,0.6-3.966,0.899-6.4,0.899h-0.45
			c-0.467,0-1.1-0.033-1.9-0.1c-1.4,0.566-2.883,0.767-4.45,0.6c-1.534-0.133-3.017-0.616-4.45-1.45
			c-1.566-0.899-2.65-2.267-3.25-4.1c-0.5-1.5-0.617-3.083-0.35-4.75c0.3-1.7,1.25-2.85,2.85-3.45c0.4-1.633,1.2-3.083,2.4-4.35
			c1.767-1.9,3.95-2.884,6.55-2.95c-0.233-5.366,0.716-11.05,2.85-17.05c2.167-6.034,5.033-11.017,8.6-14.95
			c4.3-4.8,9.067-7.233,14.3-7.3h0.35c3.1,0.033,6.1,0.966,9,2.8C89.35,63.867,92,66.533,94.4,70z"/>
		<path style="fill-rule:evenodd;clip-rule:evenodd;fill:none;stroke:#C3B0EC;stroke-width:0.25;" d="M94.4,70
			c-2.4-3.467-5.051-6.133-7.95-8c-2.9-1.833-5.9-2.767-9-2.8H77.1c-5.233,0.066-10,2.5-14.3,7.3
			c-3.566,3.933-6.433,8.917-8.6,14.95c-2.134,6-3.083,11.684-2.85,17.05c-2.6,0.066-4.784,1.05-6.55,2.95
			c-1.2,1.267-2,2.717-2.4,4.35c-1.6,0.601-2.55,1.75-2.85,3.45c-0.267,1.667-0.15,3.25,0.35,4.75c0.6,1.833,1.684,3.2,3.25,4.1
			c1.434,0.834,2.917,1.317,4.45,1.45c1.566,0.167,3.05-0.033,4.45-0.6c0.8,0.066,1.434,0.1,1.9,0.1h0.45
			c2.434,0,4.567-0.3,6.4-0.899v0.25c0.633,6.066,2.684,10.866,6.15,14.399c3.5,3.533,8.3,5.65,14.4,6.351
			c0.767,0.166,1.55,0.25,2.35,0.25l0.95-0.051c1.4,0.067,2.517,0,3.35-0.199c9.1-1.067,15.25-5.233,18.45-12.5
			c0.733,0,1.416-0.084,2.05-0.25c6.066-0.7,10.884-2.767,14.45-6.2c3.566-3.4,5.75-8.066,6.55-14l0.05-0.15l0.101-1.05
			c0.1-0.934,0.149-1.917,0.149-2.95c-0.033-8.033-2.316-15.833-6.85-23.4c-5.033-8.4-10.983-12.6-17.851-12.6h-0.149
			C101.25,66.05,97.733,67.367,94.4,70z"/>
		<path style="fill-rule:evenodd;clip-rule:evenodd;fill:#31074F;" d="M52.35,108.2l0.1-0.3c0.066-0.267-0.083-0.483-0.45-0.65
			l-0.3-0.05c-0.2,0-0.367,0.116-0.5,0.35c-0.134,0.233-0.15,0.467-0.05,0.7c0.2,0.3,0.533,0.434,1,0.4l0.05-0.15L52.35,108.2z
			 M105.05,69.65h0.05c5.601,0,10.617,3.8,15.051,11.4c4,6.967,6.017,13.967,6.05,21l-0.101,2.601l-0.149,0.899v0.15
			c-1.4,10.333-7.434,16.05-18.101,17.149c-0.566,0.2-1.5,0.267-2.8,0.2h-1.1c-2.334,7.434-7.884,11.617-16.65,12.55
			c-0.533,0.134-0.983,0.2-1.35,0.2l-1.3-0.05c-1.167,0.066-2.05,0.017-2.65-0.15c-10.667-1.166-16.533-7.017-17.6-17.55l-0.1-1.95
			c-1.066-0.666-2.033-1.383-2.9-2.149c-1.733,1-4.066,1.5-7,1.5h-0.45c-0.867,0-1.684-0.101-2.45-0.3l-0.75,0.399
			c-1.833,0.8-3.767,0.617-5.8-0.55c-1.034-0.6-1.65-1.616-1.85-3.05c0-1.334,0-2.033,0-2.101c0.133-0.566,0.45-0.816,0.95-0.75
			c0.5,0,0.784,0.267,0.85,0.801l0.2,0.5c0.167,0.399,0.433,0.666,0.8,0.8c0.167,0.1,0.317,0.149,0.45,0.149
			c-0.4-0.833-0.633-1.716-0.7-2.649c-0.1-1.867,0.483-3.467,1.75-4.8c1.167-1.267,2.633-1.867,4.4-1.801
			c2,0.167,3.35,0.934,4.05,2.301c-0.4-1.601-0.667-3.117-0.8-4.551c-0.5-4.899,0.267-10.333,2.3-16.3c2-6,4.7-10.883,8.1-14.65
			c3.7-4.066,7.616-6.1,11.75-6.1h0.15c2.966,0,5.867,1.117,8.7,3.35c2.834,2.233,5.384,5.4,7.65,9.5
			C97.233,71.65,101.017,69.65,105.05,69.65z"/>
		<g>
			
				<use xlink:href="#FlashAICB_x2F_Layer_1_x2F__x3C_Clip_Group_0_x3E__x5F_5"  width="93.75" height="93.85" y="-93.85" transform="matrix(1 0 0 -1 58.2002 49.3999)" style="overflow:visible;"/>
			
				<use xlink:href="#FlashAICB_x2F_Layer_1_x2F__x3C_Clip_Group_0_x3E__x5F_4"  width="42.95" height="41.55" y="-41.55" transform="matrix(1 0 0 -1 79.5 94.1504)" style="overflow:visible;"/>
			
				<use xlink:href="#FlashAICB_x2F_Layer_1_x2F__x3C_Clip_Group_0_x3E__x5F_3"  width="33.2" height="32.05" y="-32.05" transform="matrix(1 0 0 -1 90.7002 61.25)" style="overflow:visible;"/>
			
				<use xlink:href="#FlashAICB_x2F_Layer_1_x2F__x3C_Clip_Group_0_x3E__x5F_2"  width="49.6" height="47.2" y="-47.2" transform="matrix(1 0 0 -1 80.2998 77)" style="overflow:visible;"/>
			
				<use xlink:href="#FlashAICB_x2F_Layer_1_x2F__x3C_Clip_Group_0_x3E__x5F_1"  width="25.15" height="24.6" y="-24.6" transform="matrix(1 0 0 -1 82.3999 81)" style="overflow:visible;"/>
			
				<use xlink:href="#FlashAICB_x2F_Layer_1_x2F__x3C_Clip_Group_0_x3E_"  width="48.15" height="46.7" y="-46.7" transform="matrix(1 0 0 -1 83.1499 62.2998)" style="overflow:visible;"/>
			
				<use xlink:href="#FlashAICB_x2F_Layer_1_x2F__x3C_Group_x3E_"  width="40.079" height="47.25" y="-47.25" transform="matrix(1 0 0 -1 85.25 74.8999)" style="overflow:visible;opacity:0.1914;enable-background:new    ;"/>
		</g>
		<g>
			
				<use xlink:href="#FlashAICB_x2F_Layer_1_x2F__x3C_Group_x3E__x5F_1"  width="4.041" height="2.85" y="-2.85" transform="matrix(1 0 0 -1 47.5 111.9004)" style="overflow:visible;opacity:0.25;enable-background:new    ;"/>
			<g>
				
					<use xlink:href="#FlashAICB_x2F_Layer_1_x2F__x3C_Clip_Group_0_x3E__x5F_2_x5F_0"  width="99.55" height="99.6" y="-99.6" transform="matrix(1 0 0 -1 27.5 41.25)" style="overflow:visible;"/>
				
					<use xlink:href="#FlashAICB_x2F_Layer_1_x2F__x3C_Group_x3E__x5F_2"  width="42.5" height="50.2" y="-50.2" transform="matrix(1 0 0 -1 56.25 68.2998)" style="overflow:visible;opacity:0.1016;enable-background:new    ;"/>
				<path style="fill-rule:evenodd;clip-rule:evenodd;fill:#FFFFFF;" d="M68.75,74.2c0.867-0.5,1.417-0.417,1.65,0.25
					c0.233,0.6,0.184,1.45-0.15,2.55c-0.867,2.867-1.983,3.983-3.35,3.35c-1.2-0.6-1.433-1.684-0.7-3.25
					C66.867,75.767,67.717,74.8,68.75,74.2z"/>
				<path style="fill-rule:evenodd;clip-rule:evenodd;fill:#FFFFFF;" d="M65.85,83.05c0.5,0.233,0.633,0.684,0.4,1.35
					c-0.233,0.7-0.633,0.983-1.2,0.85c-0.533-0.133-0.633-0.567-0.3-1.3C65.117,83.15,65.483,82.85,65.85,83.05z"/>
				
					<use xlink:href="#FlashAICB_x2F_Layer_1_x2F__x3C_Clip_Group_0_x3E__x5F_1_x5F_0"  width="9.95" height="6.55" y="-6.55" transform="matrix(1 0 0 -1 43.1499 109.4502)" style="overflow:visible;"/>
				
					<use xlink:href="#FlashAICB_x2F_Layer_1_x2F__x3C_Clip_Group_0_x3E__x5F_7"  width="28.9" height="28.65" y="-28.65" transform="matrix(1 0 0 -1 40.75 94.5)" style="overflow:visible;"/>
				
					<use xlink:href="#FlashAICB_x2F_Layer_1_x2F__x3C_Group_x3E__x5F_1_x5F_0"  width="13.2" height="6.009" y="-6.009" transform="matrix(1 0 0 -1 50.3501 108.5498)" style="overflow:visible;opacity:0.1016;enable-background:new    ;"/>
				
					<use xlink:href="#FlashAICB_x2F_Layer_1_x2F__x3C_Group_x3E__x5F_0"  width="2.8" height="3.25" y="-3.25" transform="matrix(1 0 0 -1 52.7002 106.0996)" style="overflow:visible;opacity:0.5508;enable-background:new    ;"/>
			</g>
		</g>
		
			<use xlink:href="#FlashAICB_x2F_Layer_1_x2F__x3C_Path_x3E__x5F_1"  width="29.796" height="47.881" x="-0.014" y="-47.9" transform="matrix(1 0 0 -1 68.9502 70.6001)" style="overflow:visible;opacity:0.2305;enable-background:new    ;"/>
		
			<use xlink:href="#FlashAICB_x2F_Layer_1_x2F__x3C_Path_x3E_"  width="25.921" height="40.2" x="-0.025" y="-40.2" transform="matrix(1 0 0 -1 84.8501 81.9502)" style="overflow:visible;opacity:0.2305;enable-background:new    ;"/>
		<g>
			
				<radialGradient id="SVGID_46_" cx="123.6777" cy="5.1738" r="41.29" gradientTransform="matrix(0.6515 0.7587 0.7587 -0.6515 -7.8505 6.7416)" gradientUnits="userSpaceOnUse">
				<stop  offset="0" style="stop-color:#FDEEC5"/>
				<stop  offset="1" style="stop-color:#D3B551"/>
			</radialGradient>
			<path style="fill-rule:evenodd;clip-rule:evenodd;fill:url(#SVGID_46_);" d="M99.15,97.05c3.933,7.367,5.566,14.334,4.899,20.9
				c-1.033,10.133-6.666,15.717-16.899,16.75c-0.467,0.133-0.867,0.2-1.2,0.2h-2.6c-0.3,0-0.684-0.067-1.15-0.2
				c-10.267-1.066-15.9-6.65-16.9-16.75c-0.667-6.634,0.917-13.601,4.75-20.9c4.133-7.899,9-11.85,14.6-11.85
				C90.15,85.2,94.983,89.15,99.15,97.05z"/>
			
				<use xlink:href="#FlashAICB_x2F_Layer_1_x2F__x3C_Path_x3E__x5F_13"  width="38.567" height="45.5" y="-45.5" transform="matrix(1 0 0 -1 65.6001 89.4004)" style="overflow:visible;opacity:0.1016;enable-background:new    ;"/>
			<path style="fill-rule:evenodd;clip-rule:evenodd;fill:#FFFFFF;" d="M76.95,94.75c1.7-0.967,2.15-0.134,1.35,2.5
				c-0.8,2.634-1.816,3.65-3.05,3.05c-1.1-0.533-1.3-1.5-0.6-2.899C75.25,96.167,76.017,95.283,76.95,94.75z"/>
			<path style="fill-rule:evenodd;clip-rule:evenodd;fill:#FFFFFF;" d="M74.3,102.75c0.434,0.2,0.55,0.616,0.35,1.25
				c-0.2,0.634-0.55,0.884-1.05,0.75s-0.6-0.533-0.3-1.2C73.6,102.85,73.933,102.583,74.3,102.75z"/>
			
				<use xlink:href="#FlashAICB_x2F_Layer_1_x2F__x3C_Path_x3E__x5F_9"  width="10.35" height="7.215" y="-7.2" transform="matrix(1 0 0 -1 85.4502 84.8999)" style="overflow:visible;opacity:0.1484;enable-background:new    ;"/>
			<path style="fill-rule:evenodd;clip-rule:evenodd;fill:#BE3C1E;" d="M85.35,76.85c0.733,0.767,1.101,1.6,1.101,2.5
				c0,1.133,0.816,2.717,2.45,4.75c0.033-0.3,0.133-0.667,0.3-1.1c0.366-0.833,0.916-1.483,1.649-1.95c0.9-0.566,1.567-0.383,2,0.55
				c0.434,0.9,0.384,1.833-0.149,2.8c-0.7,1.233-1.101,2.933-1.2,5.1c-1.267-0.833-2.783-1.5-4.55-2
				c-3.534-1.066-6.567-0.85-9.1,0.65c-2.367,1.399-4.434,3.416-6.2,6.05c-0.9,1.3-1.566,2.467-2,3.5
				c-0.267,0.033-0.517-0.033-0.75-0.2c-0.5-0.366-0.683-1.116-0.55-2.25s0.867-2.316,2.2-3.55l1.95-1.55L71.45,90
				c-0.567-0.1-0.884-0.366-0.95-0.8c-0.1-0.467,0.117-1.267,0.65-2.4c0.434-1,1.65-1.833,3.65-2.5c1.034-0.367,2-0.617,2.9-0.75
				c-0.567-0.033-1.167-0.15-1.8-0.35c-1.233-0.4-1.95-0.95-2.15-1.65c-0.233-0.833,0.217-1.483,1.35-1.95
				c1.167-0.467,2.233-0.434,3.2,0.1c1.333,0.667,2.867,1.566,4.6,2.7c-0.1-0.566-0.35-1.3-0.75-2.2
				c-0.333-0.767-0.45-1.567-0.35-2.4c0.133-0.966,0.55-1.583,1.25-1.85C83.783,75.717,84.55,76.017,85.35,76.85z"/>
			<path style="fill-rule:evenodd;clip-rule:evenodd;fill:#D04D2F;" d="M84.35,77.55c0.3,0.1,0.6,0.567,0.9,1.4
				c0.4,1.267,0.684,2.066,0.85,2.4c0.467,0.9,0.717,1.9,0.75,3c0.034,1.233-0.333,1.583-1.1,1.05c-0.8-0.533-1.483-1.517-2.05-2.95
				c-0.467-1.167-0.75-2.3-0.85-3.4C82.783,77.683,83.283,77.183,84.35,77.55z"/>
			<path style="fill-rule:evenodd;clip-rule:evenodd;fill:#D04D2F;" d="M91.6,82.2l0.351,0.5c0.166,0.566,0.017,1.417-0.45,2.55
				c-0.5,1.267-1.033,1.733-1.6,1.4C89.434,86.35,89.2,85.8,89.2,85c0-0.7,0.25-1.4,0.75-2.1C90.483,82.167,91.033,81.933,91.6,82.2
				z"/>
			<path style="fill-rule:evenodd;clip-rule:evenodd;fill:#D04D2F;" d="M76.8,80.55c1.833,0.467,3.333,1.35,4.5,2.65
				c1.1,1.2,1.317,1.883,0.65,2.05c-0.434,0.1-0.833-0.017-1.2-0.35l-0.4-0.5l-0.8-0.65c-0.3-0.233-1-0.55-2.1-0.95
				c-1.233-0.433-1.983-0.716-2.25-0.85c-0.534-0.233-0.567-0.567-0.1-1C75.6,80.55,76.167,80.417,76.8,80.55z"/>
			<path style="fill-rule:evenodd;clip-rule:evenodd;fill:#D04D2F;" d="M76.65,85.15c1.067,0.367,1.533,0.767,1.4,1.2
				C77.917,86.717,77.233,87.2,76,87.8c-1.167,0.566-2.15,0.8-2.95,0.7c-0.8-0.1-1.05-0.417-0.75-0.95
				c0.367-0.633,0.967-1.233,1.8-1.8C75.1,85.117,75.95,84.917,76.65,85.15z"/>
			<path style="fill-rule:evenodd;clip-rule:evenodd;fill:#F8665A;" d="M84.25,78.65c0.367,0.7,0.45,1.333,0.25,1.9
				c-0.2,0.567-0.517,0.567-0.95,0c-0.433-0.533-0.483-1.1-0.15-1.7C83.7,78.217,83.983,78.15,84.25,78.65z"/>
			<path style="fill-rule:evenodd;clip-rule:evenodd;fill:#F8665A;" d="M91,82.6c0.366,0.433,0.333,0.95-0.1,1.55
				c-0.434,0.6-0.784,0.717-1.051,0.35c-0.233-0.333-0.149-0.8,0.25-1.4C90.467,82.5,90.767,82.333,91,82.6z"/>
			<path style="fill-rule:evenodd;clip-rule:evenodd;fill:#F8665A;" d="M76.8,80.55c1.6,0.567,2.133,1.034,1.6,1.4
				c-0.5,0.367-1.183,0.417-2.05,0.15c-0.667-0.2-0.9-0.55-0.7-1.05C75.85,80.55,76.233,80.383,76.8,80.55z"/>
			<path style="fill-rule:evenodd;clip-rule:evenodd;fill:#F8665A;" d="M75.3,85.9c0.534,0.167,0.467,0.5-0.2,1
				c-0.667,0.5-1.217,0.716-1.65,0.649c-0.467-0.1-0.434-0.45,0.1-1.05C74.05,85.867,74.633,85.667,75.3,85.9z"/>
		</g>
	</g>
	
		<use xlink:href="#FlashAICB_x2F_Layer_1_x2F__x3C_Path_x3E__x5F_0"  width="118.5" height="56.95" y="-56.95" transform="matrix(1 0 0 -1 26.5 85.8501)" style="overflow:visible;opacity:0.3398;enable-background:new    ;"/>
	<g>
		<g>
			<g>
				<g>
					<g>
						<g>
							<g>
								<g>
									
										<linearGradient id="SVGID_47_" gradientUnits="userSpaceOnUse" x1="-84.0591" y1="34.1016" x2="-51.1642" y2="34.1016" gradientTransform="matrix(-0.1771 -0.9842 0.9842 -0.1771 -2.934337e-004 -2.042651e-004)">
										<stop  offset="0.149" style="stop-color:#6B49A5"/>
										<stop  offset="0.9373" style="stop-color:#A897D3"/>
									</linearGradient>
									<path style="fill-rule:evenodd;clip-rule:evenodd;fill:url(#SVGID_47_);" d="M57,43.35c1.1,1.267,1.4,2.95,0.9,5.05
										c-0.3,1.233-0.783,2.4-1.45,3.5c-1.8,2.967-3.667,4.934-5.6,5.9L50.3,58c-0.033,0.167-0.2,0.783-0.5,1.85
										c-1,3.133-2.433,5.417-4.3,6.85c-0.1,0.1-0.184,0.15-0.25,0.15c0.1,0.967,0.117,1.7,0.05,2.2c0,1.133-0.133,2.3-0.4,3.5
										c-0.367,1.767-0.95,3.2-1.75,4.3L42.8,77.3l-0.2,0.15l-0.9,0.45c-0.4,0.1-0.817,0.1-1.25,0c-0.9-0.233-1.7-0.733-2.4-1.5
										l-0.6,0.45L36.9,77.1l-0.2,0.05c-0.767,0.2-1.483,0.05-2.15-0.45c-1.233-0.934-1.9-2.35-2-4.25
										c-0.1-1.467,0.117-2.934,0.65-4.4c0.8-1.966,1.983-3.6,3.55-4.9c-0.5-1.2-0.5-2.617,0-4.25
										c0.367-1.233,0.933-2.383,1.7-3.45c1.233-1.567,2.733-2.75,4.5-3.55c-0.067-1.2,0.267-2.467,1-3.8
										c0.6-1.033,1.333-1.95,2.2-2.75c1.267-1.067,2.717-1.867,4.35-2.4c1.6-0.5,3.1-0.65,4.5-0.45c0.8-0.067,1.467,0.2,2,0.8
										V43.35z"/>
									<path style="fill-rule:evenodd;clip-rule:evenodd;fill:none;stroke:#E0DBF7;stroke-width:0.25;" d="M57,43.35V43.3
										c-0.533-0.6-1.2-0.867-2-0.8c-1.4-0.2-2.9-0.05-4.5,0.45c-1.633,0.533-3.083,1.333-4.35,2.4c-0.867,0.8-1.6,1.717-2.2,2.75
										c-0.733,1.333-1.067,2.6-1,3.8c-1.767,0.8-3.267,1.983-4.5,3.55c-0.767,1.066-1.333,2.216-1.7,3.45
										c-0.5,1.633-0.5,3.05,0,4.25c-1.567,1.3-2.75,2.934-3.55,4.9c-0.534,1.467-0.75,2.934-0.65,4.4c0.1,1.9,0.767,3.316,2,4.25
										c0.667,0.5,1.383,0.65,2.15,0.45l0.2-0.05l0.55-0.25l0.6-0.45c0.7,0.767,1.5,1.267,2.4,1.5c0.433,0.1,0.85,0.1,1.25,0
										l0.9-0.45l0.2-0.15l0.35-0.45c0.8-1.1,1.383-2.533,1.75-4.3c0.267-1.2,0.4-2.367,0.4-3.5c0.067-0.5,0.05-1.233-0.05-2.2
										c0.066,0,0.15-0.05,0.25-0.15c1.867-1.434,3.3-3.717,4.3-6.85c0.3-1.067,0.467-1.684,0.5-1.85l0.55-0.2
										c1.933-0.966,3.8-2.933,5.6-5.9c0.667-1.1,1.15-2.267,1.45-3.5C58.4,46.3,58.1,44.617,57,43.35z"/>
								</g>
							</g>
							<path style="fill-rule:evenodd;clip-rule:evenodd;fill:#31074F;" d="M55.75,44.5c0.667,0.733,0.85,1.817,0.55,3.25
								c-0.233,1.133-0.683,2.217-1.35,3.25c-1.467,2.633-3.083,4.383-4.85,5.25l-0.15,0.05H49.9l-0.05,0.05H49.8
								c-0.2,0.033-0.417-0.033-0.65-0.2l-0.3-0.35c0,1.1-0.233,2.25-0.7,3.45c-0.867,2.8-2.1,4.833-3.7,6.1l-0.4,0.2
								c-0.167,0.067-0.35,0.034-0.55-0.1l-0.35-0.25c0.367,1.066,0.517,2.316,0.45,3.75c-0.1,3.033-0.717,5.333-1.85,6.9l-0.15,0.2
								l-0.05,0.05l-0.3,0.15H40.9c-1.033-0.267-1.883-1.083-2.55-2.45c-0.567,0.667-1.167,1.184-1.8,1.55l-0.2,0.1H36.3l-0.05,0.05
								c-0.233,0.067-0.45,0.017-0.65-0.15c-0.867-0.667-1.317-1.767-1.35-3.3c0-1.133,0.183-2.267,0.55-3.4
								c1-2.467,2.55-4.217,4.65-5.25h-0.2c-0.233,0-0.417-0.1-0.55-0.3c-0.634-0.9-0.75-2.083-0.35-3.55
								c0.3-1.133,0.8-2.167,1.5-3.1c1.4-1.767,3.1-2.934,5.1-3.5L44.9,52.9c-0.433-1-0.316-2.183,0.35-3.55
								c0.533-1.033,1.233-1.95,2.1-2.75c1.1-0.934,2.35-1.617,3.75-2.05c1.4-0.433,2.683-0.533,3.85-0.3H55
								C55.267,44.183,55.517,44.267,55.75,44.5z"/>
							<g>
								<g>
									<g>
										<g>
											<g>
												<g>
													<g>
														
															<linearGradient id="SVGID_48_" gradientUnits="userSpaceOnUse" x1="-10.5479" y1="70.4653" x2="1.1289" y2="70.4653" gradientTransform="matrix(0.6469 -0.7626 0.7626 0.6469 -7.939339e-005 9.298325e-005)">
															<stop  offset="0" style="stop-color:#C3C6ED"/>
															<stop  offset="0.0235" style="stop-color:#BEBEED"/>
															<stop  offset="0.1412" style="stop-color:#AA9BEF"/>
															<stop  offset="0.2667" style="stop-color:#997DF1"/>
															<stop  offset="0.4039" style="stop-color:#8C66F2"/>
															<stop  offset="0.5529" style="stop-color:#8354F3"/>
															<stop  offset="0.7294" style="stop-color:#7E4AF4"/>
															<stop  offset="1" style="stop-color:#7C46F4"/>
														</linearGradient>
														<path style="fill-rule:evenodd;clip-rule:evenodd;fill:url(#SVGID_48_);" d="M54.05,47.7
															c-0.566,0.767-1.3,1.483-2.2,2.15c-2.367,1.733-4.417,2.65-6.15,2.75c0.233-0.3,0.75-0.917,1.55-1.85
															c0.9-1,1.517-1.733,1.85-2.2c1.633-2.1,3.55-3.267,5.75-3.5C55.083,45.783,54.816,46.667,54.05,47.7z"/>
														<path style="fill-rule:evenodd;clip-rule:evenodd;fill:#E0DBF7;" d="M45.6,52.6c-0.333-0.767-0.233-1.717,0.3-2.85
															c0.467-0.933,1.117-1.783,1.95-2.55c1-0.867,2.117-1.5,3.35-1.9c1.3-0.4,2.517-0.5,3.65-0.3
															c-0.9,0.1-1.767,0.483-2.6,1.15c-0.5,0.367-1.233,1.05-2.2,2.05C48.283,50.2,46.8,51.667,45.6,52.6z"/>
													</g>
													<g>
														
															<linearGradient id="SVGID_49_" gradientUnits="userSpaceOnUse" x1="-38.4927" y1="65.4521" x2="-26.8223" y2="65.4521" gradientTransform="matrix(0.2936 -0.9559 0.9559 0.2936 1.399517e-004 -4.690886e-004)">
															<stop  offset="0" style="stop-color:#C3C6ED"/>
															<stop  offset="0.0235" style="stop-color:#BEBEED"/>
															<stop  offset="0.1412" style="stop-color:#AA9BEF"/>
															<stop  offset="0.2667" style="stop-color:#997DF1"/>
															<stop  offset="0.4039" style="stop-color:#8C66F2"/>
															<stop  offset="0.5529" style="stop-color:#8354F3"/>
															<stop  offset="0.7294" style="stop-color:#7E4AF4"/>
															<stop  offset="1" style="stop-color:#7C46F4"/>
														</linearGradient>
														<path style="fill-rule:evenodd;clip-rule:evenodd;fill:url(#SVGID_49_);" d="M54.3,50.6
															c-1.367,2.5-2.883,4.15-4.55,4.95c0.767-2.233,1.267-3.917,1.5-5.05c0.667-2.567,1.967-4.4,3.9-5.5
															c0.533,0.6,0.65,1.517,0.35,2.75C55.267,48.75,54.867,49.7,54.3,50.6z"/>
														<path style="fill-rule:evenodd;clip-rule:evenodd;fill:#E0DBF7;" d="M49.7,55.6c-0.634-0.567-0.917-1.467-0.85-2.7
															c0.033-1.1,0.283-2.15,0.75-3.15c0.6-1.167,1.383-2.183,2.35-3.05c1.033-0.9,2.1-1.467,3.2-1.7
															c-0.767,0.433-1.417,1.133-1.95,2.1c-0.333,0.566-0.717,1.467-1.15,2.7C51.25,52.3,50.467,54.233,49.7,55.6z"/>
													</g>
												</g>
											</g>
										</g>
									</g>
								</g>
								<g>
									<g>
										<g>
											<g>
												<g>
													<g>
														
															<linearGradient id="SVGID_50_" gradientUnits="userSpaceOnUse" x1="-35.5908" y1="66.4678" x2="-23.9184" y2="66.4678" gradientTransform="matrix(0.4862 -0.8739 0.8739 0.4862 5.801320e-004 6.324053e-005)">
															<stop  offset="0" style="stop-color:#C3C6ED"/>
															<stop  offset="0.0235" style="stop-color:#BEBEED"/>
															<stop  offset="0.1412" style="stop-color:#AA9BEF"/>
															<stop  offset="0.2667" style="stop-color:#997DF1"/>
															<stop  offset="0.4039" style="stop-color:#8C66F2"/>
															<stop  offset="0.5529" style="stop-color:#8354F3"/>
															<stop  offset="0.7294" style="stop-color:#7E4AF4"/>
															<stop  offset="1" style="stop-color:#7C46F4"/>
														</linearGradient>
														<path style="fill-rule:evenodd;clip-rule:evenodd;fill:url(#SVGID_50_);" d="M46.9,53.45
															c0.367,0.667,0.283,1.583-0.25,2.75c-0.433,0.9-1.033,1.733-1.8,2.5c-1.8,2.1-3.617,3.417-5.45,3.95
															c0.133-0.333,0.517-1.033,1.15-2.1c0.667-1.133,1.133-1.983,1.4-2.55C43.083,55.6,44.733,54.083,46.9,53.45z"/>
														<path style="fill-rule:evenodd;clip-rule:evenodd;fill:#E0DBF7;" d="M39.3,62.65c-0.466-0.7-0.55-1.65-0.25-2.85
															c0.267-1.033,0.733-2,1.4-2.9c0.8-1.033,1.783-1.867,2.95-2.5s2.317-0.967,3.45-1c-0.833,0.3-1.6,0.85-2.3,1.65
															c-0.367,0.4-0.95,1.2-1.75,2.4C41.433,59.85,40.267,61.583,39.3,62.65z"/>
													</g>
													<g>
														
															<linearGradient id="SVGID_51_" gradientUnits="userSpaceOnUse" x1="-59.8945" y1="51.9565" x2="-48.2078" y2="51.9565" gradientTransform="matrix(0.1027 -0.9947 0.9947 0.1027 -4.308671e-004 -1.664609e-004)">
															<stop  offset="0" style="stop-color:#C3C6ED"/>
															<stop  offset="0.0235" style="stop-color:#BEBEED"/>
															<stop  offset="0.1412" style="stop-color:#AA9BEF"/>
															<stop  offset="0.2667" style="stop-color:#997DF1"/>
															<stop  offset="0.4039" style="stop-color:#8C66F2"/>
															<stop  offset="0.5529" style="stop-color:#8354F3"/>
															<stop  offset="0.7294" style="stop-color:#7E4AF4"/>
															<stop  offset="1" style="stop-color:#7C46F4"/>
														</linearGradient>
														<path style="fill-rule:evenodd;clip-rule:evenodd;fill:url(#SVGID_51_);" d="M47.2,53.35
															c0.633,0.467,0.933,1.333,0.9,2.6c-0.067,1-0.284,2.017-0.65,3.05c-0.833,2.667-2,4.583-3.5,5.75
															c0-0.333,0.083-1.133,0.25-2.4c0.167-1.267,0.25-2.217,0.25-2.85C44.617,56.867,45.533,54.817,47.2,53.35z"/>
														<path style="fill-rule:evenodd;clip-rule:evenodd;fill:#E0DBF7;" d="M43.9,64.8c-0.7-0.433-1.15-1.267-1.35-2.5
															c-0.167-1.066-0.117-2.15,0.15-3.25c0.333-1.267,0.9-2.417,1.7-3.45c0.833-1.067,1.767-1.833,2.8-2.3
															c-0.667,0.6-1.167,1.417-1.5,2.45c-0.167,0.533-0.384,1.5-0.65,2.9C44.816,61.05,44.433,63.1,43.9,64.8z"/>
													</g>
												</g>
											</g>
										</g>
									</g>
								</g>
								<g>
									<g>
										<g>
											<g>
												<g>
													<g>
														
															<linearGradient id="SVGID_52_" gradientUnits="userSpaceOnUse" x1="-65.1147" y1="53.0283" x2="-53.4399" y2="53.0283" gradientTransform="matrix(0.2163 -0.9763 0.9763 0.2163 3.439188e-004 -3.251433e-005)">
															<stop  offset="0" style="stop-color:#C3C6ED"/>
															<stop  offset="0.0235" style="stop-color:#BEBEED"/>
															<stop  offset="0.1412" style="stop-color:#AA9BEF"/>
															<stop  offset="0.2667" style="stop-color:#997DF1"/>
															<stop  offset="0.4039" style="stop-color:#8C66F2"/>
															<stop  offset="0.5529" style="stop-color:#8354F3"/>
															<stop  offset="0.7294" style="stop-color:#7E4AF4"/>
															<stop  offset="1" style="stop-color:#7C46F4"/>
														</linearGradient>
														<path style="fill-rule:evenodd;clip-rule:evenodd;fill:url(#SVGID_52_);" d="M40.7,63.75
															c0.566,0.533,0.75,1.433,0.55,2.7c-0.133,0.966-0.45,1.95-0.95,2.95c-1.2,2.6-2.583,4.367-4.15,5.3
															c0.6-2.3,0.967-4.034,1.1-5.2C37.717,66.867,38.867,64.95,40.7,63.75z"/>
														<path style="fill-rule:evenodd;clip-rule:evenodd;fill:#E0DBF7;" d="M37.95,68.75c-0.534,2.467-1.15,4.467-1.85,6
															c-0.667-0.5-1.017-1.383-1.05-2.65c-0.033-1.067,0.133-2.133,0.5-3.2c0.467-1.2,1.167-2.283,2.1-3.25
															c0.934-0.967,1.95-1.617,3.05-1.95c-0.733,0.5-1.333,1.25-1.8,2.25C38.633,66.517,38.316,67.45,37.95,68.75z"/>
													</g>
													<g>
														
															<linearGradient id="SVGID_53_" gradientUnits="userSpaceOnUse" x1="-81.8335" y1="27.7861" x2="-70.1495" y2="27.7861" gradientTransform="matrix(-0.1883 -0.9821 0.9821 -0.1883 1.097322e-004 3.510714e-004)">
															<stop  offset="0" style="stop-color:#C3C6ED"/>
															<stop  offset="0.0235" style="stop-color:#BEBEED"/>
															<stop  offset="0.1412" style="stop-color:#AA9BEF"/>
															<stop  offset="0.2667" style="stop-color:#997DF1"/>
															<stop  offset="0.4039" style="stop-color:#8C66F2"/>
															<stop  offset="0.5529" style="stop-color:#8354F3"/>
															<stop  offset="0.7294" style="stop-color:#7E4AF4"/>
															<stop  offset="1" style="stop-color:#7C46F4"/>
														</linearGradient>
														<path style="fill-rule:evenodd;clip-rule:evenodd;fill:url(#SVGID_53_);" d="M41,63.55
															c0.733,0.267,1.25,1.017,1.55,2.25c0.267,1,0.367,2.034,0.3,3.1c-0.067,2.8-0.633,4.983-1.7,6.55
															c-0.1-0.333-0.25-1.133-0.45-2.4c-0.233-1.267-0.434-2.2-0.6-2.8C39.5,67.583,39.8,65.35,41,63.55z"/>
														<path style="fill-rule:evenodd;clip-rule:evenodd;fill:#E0DBF7;" d="M40.45,69.25c0.466,2.467,0.683,4.55,0.65,6.25
															c-0.833-0.2-1.517-0.883-2.05-2.05c-0.433-0.967-0.683-2-0.75-3.1c-0.033-1.3,0.184-2.567,0.65-3.8
															c0.466-1.267,1.133-2.267,2-3c-0.467,0.767-0.717,1.684-0.75,2.75C40.2,66.9,40.283,67.883,40.45,69.25z"/>
													</g>
												</g>
											</g>
										</g>
									</g>
								</g>
							</g>
						</g>
					</g>
				</g>
			</g>
		</g>
		<g>
			<g>
				<g>
					<g>
						<g>
							<g>
								<g>
									<linearGradient id="SVGID_54_" gradientUnits="userSpaceOnUse" x1="130.9063" y1="44.8154" x2="120.7062" y2="76.0904">
										<stop  offset="0.149" style="stop-color:#6B49A5"/>
										<stop  offset="0.9373" style="stop-color:#A897D3"/>
									</linearGradient>
									<path style="fill-rule:evenodd;clip-rule:evenodd;fill:url(#SVGID_54_);" d="M121,42.95c1.634,0.533,3.066,1.333,4.3,2.4
										c0.9,0.8,1.65,1.717,2.25,2.75c0.733,1.333,1.066,2.6,1,3.8c1.7,0.733,3.2,1.917,4.5,3.55
										c0.767,1.033,1.334,2.183,1.7,3.45c0.467,1.633,0.467,3.05,0,4.25c1.566,1.3,2.75,2.934,3.55,4.9
										c0.533,1.467,0.75,2.934,0.65,4.4c-0.134,1.9-0.8,3.316-2,4.25c-0.667,0.5-1.384,0.65-2.15,0.45l-0.2-0.05l-0.55-0.25
										l-0.6-0.45c-0.7,0.767-1.517,1.267-2.45,1.5c-0.366,0.1-0.767,0.1-1.2,0l-0.899-0.45l-0.2-0.15l-0.351-0.45
										c-1.366-1.867-2.1-4.467-2.199-7.8c0-0.8,0.033-1.533,0.1-2.2c-0.066,0-0.15-0.05-0.25-0.15
										c-1.833-1.4-3.267-3.684-4.3-6.85c-0.3-1.067-0.467-1.684-0.5-1.85l-0.601-0.2c-1.899-0.966-3.75-2.933-5.55-5.9
										c-0.7-1.133-1.2-2.3-1.5-3.5c-0.5-2.1-0.2-3.783,0.9-5.05l0.05-0.05c0.533-0.6,1.2-0.867,2-0.8
										C117.9,42.3,119.4,42.45,121,42.95z"/>
									<path style="fill-rule:evenodd;clip-rule:evenodd;fill:none;stroke:#E0DBF7;stroke-width:0.25;" d="M121,42.95
										c1.634,0.533,3.066,1.333,4.3,2.4c0.9,0.8,1.65,1.717,2.25,2.75c0.733,1.333,1.066,2.6,1,3.8c1.7,0.733,3.2,1.917,4.5,3.55
										c0.767,1.033,1.334,2.183,1.7,3.45c0.467,1.633,0.467,3.05,0,4.25c1.566,1.3,2.75,2.934,3.55,4.9
										c0.533,1.467,0.75,2.934,0.65,4.4c-0.134,1.9-0.8,3.316-2,4.25c-0.667,0.5-1.384,0.65-2.15,0.45l-0.2-0.05l-0.55-0.25
										l-0.6-0.45c-0.7,0.767-1.517,1.267-2.45,1.5c-0.366,0.1-0.767,0.1-1.2,0l-0.899-0.45l-0.2-0.15l-0.351-0.45
										c-1.366-1.867-2.1-4.467-2.199-7.8c0-0.8,0.033-1.533,0.1-2.2c-0.066,0-0.15-0.05-0.25-0.15
										c-1.833-1.4-3.267-3.684-4.3-6.85c-0.3-1.067-0.467-1.684-0.5-1.85l-0.601-0.2c-1.899-0.966-3.75-2.933-5.55-5.9
										c-0.7-1.133-1.2-2.3-1.5-3.5c-0.5-2.1-0.2-3.783,0.9-5.05l0.05-0.05c0.533-0.6,1.2-0.867,2-0.8
										C117.9,42.3,119.4,42.45,121,42.95z"/>
								</g>
							</g>
							<path style="fill-rule:evenodd;clip-rule:evenodd;fill:#31074F;" d="M136.7,68.65c0.366,1.133,0.55,2.267,0.55,3.4
								c-0.033,1.534-0.483,2.633-1.35,3.3c-0.2,0.167-0.417,0.217-0.65,0.15l-0.3-0.15c-0.601-0.333-1.217-0.85-1.851-1.55
								c-0.6,1.367-1.433,2.184-2.5,2.45H130.2l-0.25-0.15l-0.05-0.05l-0.15-0.2c-1.134-1.567-1.75-3.867-1.85-6.9
								c-0.067-1.4,0.066-2.65,0.399-3.75l-0.3,0.25c-0.233,0.1-0.434,0.133-0.6,0.1l-0.051-0.05l-0.3-0.15
								c-1.5-1.167-2.75-3.2-3.75-6.1c-0.434-1.3-0.649-2.45-0.649-3.45l-0.301,0.35c-0.233,0.167-0.449,0.233-0.649,0.2h-0.05
								L121.6,56.3h-0.05l-0.149-0.05c-1.733-0.867-3.351-2.617-4.851-5.25c-0.666-1.033-1.116-2.117-1.35-3.25
								c-0.3-1.433-0.117-2.517,0.55-3.25c0.2-0.2,0.45-0.283,0.75-0.25h0.05c1.167-0.233,2.45-0.133,3.851,0.3
								c1.399,0.434,2.649,1.117,3.75,2.05c0.866,0.8,1.566,1.717,2.1,2.75c0.667,1.367,0.783,2.55,0.35,3.55l-0.05,0.05
								c2,0.566,3.7,1.733,5.101,3.5c0.699,0.933,1.199,1.966,1.5,3.1c0.399,1.467,0.283,2.65-0.351,3.55
								c-0.2,0.2-0.399,0.3-0.6,0.3H132C134.134,64.4,135.7,66.15,136.7,68.65z"/>
							<g>
								<g>
									<g>
										<g>
											<g>
												<g>
													<g>
														
															<linearGradient id="SVGID_55_" gradientUnits="userSpaceOnUse" x1="124.5693" y1="53.6055" x2="117.0156" y2="44.7011">
															<stop  offset="0" style="stop-color:#C3C6ED"/>
															<stop  offset="0.0235" style="stop-color:#BEBEED"/>
															<stop  offset="0.1412" style="stop-color:#AA9BEF"/>
															<stop  offset="0.2667" style="stop-color:#997DF1"/>
															<stop  offset="0.4039" style="stop-color:#8C66F2"/>
															<stop  offset="0.5529" style="stop-color:#8354F3"/>
															<stop  offset="0.7294" style="stop-color:#7E4AF4"/>
															<stop  offset="1" style="stop-color:#7C46F4"/>
														</linearGradient>
														<path style="fill-rule:evenodd;clip-rule:evenodd;fill:url(#SVGID_55_);" d="M116.65,45.05
															c2.199,0.233,4.116,1.4,5.75,3.5c0.366,0.5,0.983,1.233,1.85,2.2c0.833,0.933,1.35,1.55,1.55,1.85
															c-1.833-0.1-3.883-1.017-6.149-2.75c-0.9-0.667-1.634-1.383-2.2-2.15C116.684,46.667,116.417,45.783,116.65,45.05z"/>
														<path style="fill-rule:evenodd;clip-rule:evenodd;fill:#E0DBF7;" d="M125.9,52.6c-1.4-1.067-2.884-2.533-4.45-4.4
															c-0.967-1-1.684-1.684-2.15-2.05c-0.866-0.667-1.75-1.05-2.649-1.15c1.133-0.2,2.333-0.1,3.6,0.3
															c1.267,0.4,2.4,1.034,3.4,1.9c0.833,0.767,1.483,1.617,1.949,2.55C126.134,50.883,126.233,51.833,125.9,52.6z"/>
													</g>
													<g>
														
															<linearGradient id="SVGID_56_" gradientUnits="userSpaceOnUse" x1="120.2139" y1="56.0215" x2="116.7889" y2="44.8715">
															<stop  offset="0" style="stop-color:#C3C6ED"/>
															<stop  offset="0.0235" style="stop-color:#BEBEED"/>
															<stop  offset="0.1412" style="stop-color:#AA9BEF"/>
															<stop  offset="0.2667" style="stop-color:#997DF1"/>
															<stop  offset="0.4039" style="stop-color:#8C66F2"/>
															<stop  offset="0.5529" style="stop-color:#8354F3"/>
															<stop  offset="0.7294" style="stop-color:#7E4AF4"/>
															<stop  offset="1" style="stop-color:#7C46F4"/>
														</linearGradient>
														<path style="fill-rule:evenodd;clip-rule:evenodd;fill:url(#SVGID_56_);" d="M116.3,45c1.9,1.067,3.2,2.9,3.9,5.5
															c0.267,1.133,0.783,2.817,1.55,5.05c-1.667-0.8-3.184-2.45-4.55-4.95c-0.566-0.934-0.967-1.883-1.2-2.85
															C115.7,46.483,115.8,45.567,116.3,45z"/>
														<path style="fill-rule:evenodd;clip-rule:evenodd;fill:#E0DBF7;" d="M121.8,55.6c-0.767-1.367-1.55-3.3-2.35-5.8
															c-0.5-1.267-0.884-2.167-1.15-2.7c-0.533-0.967-1.184-1.667-1.95-2.1c1.101,0.233,2.167,0.8,3.2,1.7
															c0.967,0.867,1.75,1.883,2.351,3.05c0.433,1.033,0.683,2.083,0.75,3.15C122.717,54.167,122.434,55.067,121.8,55.6z"/>
													</g>
												</g>
											</g>
										</g>
									</g>
								</g>
								<g>
									<g>
										<g>
											<g>
												<g>
													<g>
														
															<linearGradient id="SVGID_57_" gradientUnits="userSpaceOnUse" x1="130.7139" y1="63.4199" x2="125.0389" y2="53.2199">
															<stop  offset="0" style="stop-color:#C3C6ED"/>
															<stop  offset="0.0235" style="stop-color:#BEBEED"/>
															<stop  offset="0.1412" style="stop-color:#AA9BEF"/>
															<stop  offset="0.2667" style="stop-color:#997DF1"/>
															<stop  offset="0.4039" style="stop-color:#8C66F2"/>
															<stop  offset="0.5529" style="stop-color:#8354F3"/>
															<stop  offset="0.7294" style="stop-color:#7E4AF4"/>
															<stop  offset="1" style="stop-color:#7C46F4"/>
														</linearGradient>
														<path style="fill-rule:evenodd;clip-rule:evenodd;fill:url(#SVGID_57_);" d="M124.6,53.45
															c2.101,0.633,3.75,2.15,4.95,4.55c0.267,0.567,0.733,1.417,1.4,2.55c0.633,1.067,1.017,1.767,1.149,2.1
															c-1.767-0.5-3.6-1.816-5.5-3.95c-0.733-0.767-1.316-1.6-1.75-2.5C124.316,55.033,124.233,54.117,124.6,53.45z"/>
														<path style="fill-rule:evenodd;clip-rule:evenodd;fill:#E0DBF7;" d="M132.2,62.65c-1.066-1.167-2.25-2.9-3.55-5.2
															c-0.7-1.133-1.267-1.934-1.7-2.4c-0.733-0.8-1.517-1.35-2.351-1.65c1.134,0.033,2.284,0.367,3.45,1
															c1.167,0.633,2.167,1.467,3,2.5c0.667,0.934,1.134,1.9,1.4,2.9C132.75,61.033,132.667,61.983,132.2,62.65z"/>
													</g>
													<g>
														
															<linearGradient id="SVGID_58_" gradientUnits="userSpaceOnUse" x1="125.9854" y1="64.9121" x2="124.7854" y2="53.2871">
															<stop  offset="0" style="stop-color:#C3C6ED"/>
															<stop  offset="0.0235" style="stop-color:#BEBEED"/>
															<stop  offset="0.1412" style="stop-color:#AA9BEF"/>
															<stop  offset="0.2667" style="stop-color:#997DF1"/>
															<stop  offset="0.4039" style="stop-color:#8C66F2"/>
															<stop  offset="0.5529" style="stop-color:#8354F3"/>
															<stop  offset="0.7294" style="stop-color:#7E4AF4"/>
															<stop  offset="1" style="stop-color:#7C46F4"/>
														</linearGradient>
														<path style="fill-rule:evenodd;clip-rule:evenodd;fill:url(#SVGID_58_);" d="M124.3,53.35
															c1.667,1.467,2.584,3.517,2.75,6.15c0,0.633,0.084,1.583,0.25,2.85c0.167,1.267,0.25,2.066,0.25,2.4
															c-1.467-1.1-2.633-3.017-3.5-5.75c-0.366-1.033-0.566-2.05-0.6-3.05C123.384,54.683,123.667,53.817,124.3,53.35z"/>
														<path style="fill-rule:evenodd;clip-rule:evenodd;fill:#E0DBF7;" d="M127.6,64.8c-0.533-1.7-0.916-3.75-1.149-6.15
															c-0.233-1.4-0.45-2.367-0.65-2.9c-0.333-1.033-0.833-1.85-1.5-2.45c1.033,0.467,1.967,1.233,2.8,2.3
															c0.801,1.033,1.367,2.183,1.7,3.45c0.267,1.1,0.316,2.184,0.15,3.25C128.75,63.533,128.3,64.367,127.6,64.8z"/>
													</g>
												</g>
											</g>
										</g>
									</g>
								</g>
								<g>
									<g>
										<g>
											<g>
												<g>
													<g>
														
															<linearGradient id="SVGID_59_" gradientUnits="userSpaceOnUse" x1="133.8076" y1="75.042" x2="131.2829" y2="63.6434">
															<stop  offset="0" style="stop-color:#C3C6ED"/>
															<stop  offset="0.0235" style="stop-color:#BEBEED"/>
															<stop  offset="0.1412" style="stop-color:#AA9BEF"/>
															<stop  offset="0.2667" style="stop-color:#997DF1"/>
															<stop  offset="0.4039" style="stop-color:#8C66F2"/>
															<stop  offset="0.5529" style="stop-color:#8354F3"/>
															<stop  offset="0.7294" style="stop-color:#7E4AF4"/>
															<stop  offset="1" style="stop-color:#7C46F4"/>
														</linearGradient>
														<path style="fill-rule:evenodd;clip-rule:evenodd;fill:url(#SVGID_59_);" d="M130.8,63.75
															c1.834,1.233,2.983,3.15,3.45,5.75c0.134,1.167,0.5,2.9,1.1,5.2c-1.566-0.934-2.949-2.7-4.149-5.3
															c-0.5-1-0.816-1.983-0.95-2.95C130.05,65.183,130.233,64.283,130.8,63.75z"/>
														<path style="fill-rule:evenodd;clip-rule:evenodd;fill:#E0DBF7;" d="M135.95,68.9c0.366,1.067,0.533,2.133,0.5,3.2
															c-0.033,1.267-0.384,2.15-1.05,2.65c-0.7-1.533-1.317-3.533-1.851-6c-0.366-1.3-0.684-2.233-0.95-2.8
															c-0.466-1-1.066-1.75-1.8-2.25c1.101,0.333,2.117,0.983,3.05,1.95C134.783,66.617,135.483,67.7,135.95,68.9z"/>
													</g>
													<g>
														
															<linearGradient id="SVGID_60_" gradientUnits="userSpaceOnUse" x1="128.8027" y1="75.1382" x2="131.0027" y2="63.6632">
															<stop  offset="0" style="stop-color:#C3C6ED"/>
															<stop  offset="0.0235" style="stop-color:#BEBEED"/>
															<stop  offset="0.1412" style="stop-color:#AA9BEF"/>
															<stop  offset="0.2667" style="stop-color:#997DF1"/>
															<stop  offset="0.4039" style="stop-color:#8C66F2"/>
															<stop  offset="0.5529" style="stop-color:#8354F3"/>
															<stop  offset="0.7294" style="stop-color:#7E4AF4"/>
															<stop  offset="1" style="stop-color:#7C46F4"/>
														</linearGradient>
														<path style="fill-rule:evenodd;clip-rule:evenodd;fill:url(#SVGID_60_);" d="M130.5,63.55c1.2,1.8,1.5,4.034,0.9,6.7
															c-0.167,0.6-0.367,1.533-0.601,2.8c-0.2,1.267-0.35,2.067-0.45,2.4c-1.066-1.5-1.633-3.684-1.699-6.55
															c-0.067-1.066,0.033-2.1,0.3-3.1C129.283,64.567,129.8,63.817,130.5,63.55z"/>
														<path style="fill-rule:evenodd;clip-rule:evenodd;fill:#E0DBF7;" d="M131.05,69.25c0.167-1.367,0.25-2.35,0.25-2.95
															c-0.033-1.066-0.283-1.983-0.75-2.75c0.867,0.733,1.533,1.733,2,3c0.5,1.233,0.717,2.5,0.65,3.8
															c-0.066,1.1-0.334,2.133-0.8,3.1c-0.534,1.167-1.2,1.85-2,2.05C130.366,73.8,130.583,71.717,131.05,69.25z"/>
													</g>
												</g>
											</g>
										</g>
									</g>
								</g>
							</g>
						</g>
					</g>
				</g>
			</g>
		</g>
	</g>
	
		<use xlink:href="#FlashAICB_x2F_Layer_1_x2F__x3C_Group_x3E__x5F_3"  width="109.9" height="61.228" y="-61.228" transform="matrix(1 0 0 -1 30.7998 27.1001)" style="overflow:visible;opacity:0.8711;enable-background:new    ;"/>
</g>
</svg>
