<?xml version="1.0" encoding="iso-8859-1"?>
<!-- Generator: Adobe Illustrator 15.1.0, SVG Export Plug-In . SVG Version: 6.00 Build 0)  -->
<!DOCTYPE svg PUBLIC "-//W3C//DTD SVG 1.1//EN" "http://www.w3.org/Graphics/SVG/1.1/DTD/svg11.dtd">
<svg version="1.1" id="Layer_1" xmlns="http://www.w3.org/2000/svg" xmlns:xlink="http://www.w3.org/1999/xlink" x="0px" y="0px"
	 width="171.7px" height="171.75px" viewBox="0 0 171.7 171.75" style="enable-background:new 0 0 171.7 171.75;"
	 xml:space="preserve">
<symbol  id="FlashAICB_x2F_Layer_1_x2F__x3C_Path_x3E_" viewBox="0 -61.9 128.6 61.9">
	<g id="Layer_1_2_">
		
			<radialGradient id="SVGID_1_" cx="64.2998" cy="-30.9502" r="50.4599" gradientTransform="matrix(1 0 0 -1 0 -61.9004)" gradientUnits="userSpaceOnUse">
			<stop  offset="0" style="stop-color:#CCEFE7;stop-opacity:0"/>
			<stop  offset="0.0627" style="stop-color:#C7EDDC;stop-opacity:0.0431"/>
			<stop  offset="0.1686" style="stop-color:#BAE9C1;stop-opacity:0.1686"/>
			<stop  offset="0.3059" style="stop-color:#A5E193;stop-opacity:0.3725"/>
			<stop  offset="0.4706" style="stop-color:#88D755;stop-opacity:0.651"/>
			<stop  offset="0.651" style="stop-color:#66C912"/>
		</radialGradient>
		<path style="fill-rule:evenodd;clip-rule:evenodd;fill:url(#SVGID_1_);" d="M128.05-0.3L128.6,0
			c-0.633-17.233-7.167-31.85-19.6-43.85C96.533-55.883,81.617-61.9,64.25-61.9c-17,0-31.7,5.816-44.1,17.45
			C7.817-32.85,1.1-18.65,0-1.85c5-13,13.217-23.5,24.65-31.5c11.7-8.2,24.733-12.3,39.1-12.3c14.633,0,27.883,4.25,39.75,12.75
			C115.1-24.567,123.283-13.7,128.05-0.3z"/>
	</g>
</symbol>
<symbol  id="FlashAICB_x2F_Layer_1_x2F__x3C_Path_x3E__x5F_0" viewBox="0 -66.417 119.2 66.417">
	<g id="Layer_1_4_">
		<path style="fill-rule:evenodd;clip-rule:evenodd;fill:#FFFFFF;" d="M115.4-37.25c2.533-6.1,3.8-11.85,3.8-17.25
			c0-5.367-1.567-8.75-4.7-10.15c-2.533-1.133-6.783-1.117-12.75,0.05c-7.867,1.9-14.183,3.367-18.95,4.4
			c-8.667,1.833-16.4,2.75-23.2,2.75c-6.833,0-14.567-1-23.2-3c-9.033-2.367-15.35-3.966-18.95-4.8c-6-1.367-10.25-1.533-12.75-0.5
			C1.567-64.483,0-61.167,0-55.8c0,5.933,1.267,12.066,3.8,18.4c2.7,6.7,6.467,12.733,11.3,18.1C26.733-6.433,41.567,0,59.6,0
			c17.833,0,32.65-6.483,44.45-19.45C108.883-24.783,112.667-30.717,115.4-37.25z"/>
	</g>
</symbol>
<symbol  id="FlashAICB_x2F_Layer_1_x2F__x3C_Path_x3E__x5F_1" viewBox="0 -60.45 119.2 60.45">
	<g id="Layer_1_3_">
		
			<linearGradient id="SVGID_2_" gradientUnits="userSpaceOnUse" x1="16160.6563" y1="-58.4668" x2="16221.0479" y2="-58.4668" gradientTransform="matrix(1.654944e-005 1 -1 -0.001 0.8657 -16221.1064)">
			<stop  offset="0.1294" style="stop-color:#E2B8B2"/>
			<stop  offset="0.9255" style="stop-color:#FFFFFF"/>
		</linearGradient>
		<path style="fill-rule:evenodd;clip-rule:evenodd;fill:url(#SVGID_2_);" d="M104.05-19.45c4.833-5.333,8.617-11.267,11.35-17.8
			c2.533-6.1,3.8-11.85,3.8-17.25c0-1.9-0.167-3.5-0.5-4.8c-2,11.966-7.85,22.6-17.55,31.9c-11.433,11-25.283,16.5-41.55,16.5
			c-16.5,0-30.4-5.483-41.7-16.45C8.133-36.783,2.333-47.817,0.5-60.45C0.167-59.217,0-57.667,0-55.8c0,5.933,1.267,12.066,3.8,18.4
			c2.7,6.7,6.467,12.733,11.3,18.1C26.733-6.433,41.567,0,59.6,0C77.433,0,92.25-6.483,104.05-19.45z"/>
	</g>
</symbol>
<path style="fill-rule:evenodd;clip-rule:evenodd;fill:#FFFFFF;" d="M171.7,85.85c0,11.633-2.25,22.766-6.75,33.4
	c-4.367,10.267-10.517,19.366-18.45,27.3s-17.033,14.084-27.3,18.45c-10.634,4.5-21.767,6.75-33.4,6.75
	c-11.633,0-22.767-2.25-33.4-6.75c-10.267-4.366-19.35-10.517-27.25-18.45c-7.933-7.934-14.066-17.033-18.4-27.3
	C2.25,108.616,0,97.483,0,85.85s2.25-22.767,6.75-33.4c4.333-10.267,10.467-19.367,18.4-27.3c7.934-7.9,17.017-14.033,27.25-18.4
	C63.033,2.25,74.167,0,85.8,0c11.634,0,22.767,2.25,33.4,6.75c10.267,4.367,19.366,10.5,27.3,18.4
	c7.934,7.934,14.083,17.033,18.45,27.3C169.45,63.083,171.7,74.217,171.7,85.85z"/>
<g>
	<g>
		
			<linearGradient id="SVGID_3_" gradientUnits="userSpaceOnUse" x1="-157.5854" y1="85.8257" x2="-14.1855" y2="85.8257" gradientTransform="matrix(6.973501e-006 -1 1 -0.001 -1.064519e-004 4.449275e-004)">
			<stop  offset="0.0745" style="stop-color:#6C9726"/>
			<stop  offset="0.2196" style="stop-color:#82B13A"/>
			<stop  offset="0.3686" style="stop-color:#9DCF52"/>
			<stop  offset="0.5882" style="stop-color:#CEE03A"/>
			<stop  offset="0.8118" style="stop-color:#D4E237"/>
			<stop  offset="1" style="stop-color:#FDEEB0"/>
		</linearGradient>
		<path style="fill-rule:evenodd;clip-rule:evenodd;fill:url(#SVGID_3_);" d="M151.85,113.7c-3.633,8.566-8.75,16.166-15.35,22.8
			c-14.033,14-30.934,21-50.7,21c-9.7,0-19-1.884-27.9-5.65c-8.566-3.633-16.15-8.75-22.75-15.35
			c-6.6-6.634-11.717-14.233-15.35-22.8c-3.767-8.9-5.65-18.2-5.65-27.9c0-9.7,1.883-19,5.65-27.9
			c3.6-8.566,8.717-16.167,15.35-22.8c6.6-6.6,14.184-11.717,22.75-15.35c8.9-3.767,18.2-5.65,27.9-5.65c19.767,0,36.667,7,50.7,21
			c6.6,6.633,11.717,14.233,15.35,22.8c3.767,8.9,5.65,18.2,5.65,27.9C157.5,95.5,155.616,104.8,151.85,113.7z"/>
		<path style="fill-rule:evenodd;clip-rule:evenodd;fill:#22480E;" d="M151.05,113.35c3.7-8.767,5.55-17.949,5.55-27.55
			c0-9.6-1.85-18.783-5.55-27.55c-3.6-8.467-8.666-15.967-15.2-22.5C122.05,21.917,105.366,15,85.8,15
			c-9.6,0-18.783,1.85-27.55,5.55c-8.467,3.6-15.967,8.667-22.5,15.2c-6.5,6.533-11.55,14.033-15.15,22.5
			c-3.7,8.767-5.55,17.95-5.55,27.55c0,9.601,1.85,18.783,5.55,27.55c3.566,8.467,8.617,15.967,15.15,22.5
			c6.533,6.534,14.033,11.601,22.5,15.2c8.767,3.7,17.95,5.55,27.55,5.55c19.566,0,36.25-6.916,50.05-20.75
			C142.384,129.316,147.45,121.816,151.05,113.35z M158.4,85.8c0,9.7-1.834,18.967-5.5,27.8c-3.634,8.834-8.884,16.684-15.75,23.551
			c-6.834,6.866-14.684,12.116-23.551,15.75c-8.833,3.666-18.1,5.5-27.8,5.5c-9.7,0-18.966-1.834-27.8-5.5
			c-8.833-3.634-16.683-8.884-23.55-15.75c-6.833-6.867-12.083-14.717-15.75-23.551c-3.633-8.833-5.45-18.1-5.45-27.8
			c0-9.7,1.817-18.966,5.45-27.8c3.667-8.867,8.917-16.717,15.75-23.55C41.317,27.583,49.167,22.333,58,18.7
			c8.833-3.667,18.1-5.5,27.8-5.5c9.7,0,18.967,1.833,27.8,5.5c8.867,3.667,16.717,8.917,23.551,15.75
			c6.866,6.867,12.116,14.716,15.75,23.55C156.566,66.833,158.4,76.1,158.4,85.8z"/>
	</g>
	
		<radialGradient id="SVGID_4_" cx="85.7998" cy="83.4502" r="64.3501" gradientTransform="matrix(1 0 0 -1 0 166.9004)" gradientUnits="userSpaceOnUse">
		<stop  offset="0" style="stop-color:#FDEEB0"/>
		<stop  offset="0.1882" style="stop-color:#D4E237"/>
		<stop  offset="0.5137" style="stop-color:#CEE03A"/>
		<stop  offset="1" style="stop-color:#A0D051;stop-opacity:0.5373"/>
	</radialGradient>
	<path style="fill-rule:evenodd;clip-rule:evenodd;fill:url(#SVGID_4_);" d="M131.35,38C143.917,50.533,150.2,65.683,150.2,83.45
		c0,17.767-6.283,32.916-18.851,45.45c-12.566,12.566-27.75,18.85-45.55,18.85c-17.767,0-32.95-6.283-45.55-18.85
		C27.683,116.366,21.4,101.217,21.4,83.45c0-17.733,6.283-32.883,18.85-45.45c12.6-12.567,27.783-18.85,45.55-18.85
		C103.6,19.15,118.783,25.433,131.35,38z"/>
	<g>
		<g>
			<path style="fill-rule:evenodd;clip-rule:evenodd;fill:#EFF4D9;" d="M91.2,31.9H85l-0.5,3.5c0.934-0.233,1.767-0.35,2.5-0.35
				c1.967,0,3.6,0.7,4.9,2.1c1.267,1.333,1.899,2.983,1.899,4.95c0,2.8-0.733,5.017-2.2,6.65c-1.533,1.667-3.716,2.5-6.55,2.5
				c-1.466,0-2.966-0.383-4.5-1.15c-1.833-0.9-2.75-2-2.75-3.3c0-0.6,0.233-1.117,0.7-1.55c0.433-0.467,0.95-0.7,1.55-0.7
				c0.367,0,1.1,0.367,2.2,1.1c1.133,0.7,2.1,1.05,2.9,1.05c1.1,0,1.983-0.467,2.649-1.4c0.566-0.8,0.851-1.783,0.851-2.95
				c0-1.033-0.267-1.833-0.801-2.4C87.283,39.317,86.5,39,85.5,39c-0.633,0-1.3,0.183-2,0.55s-1.333,0.55-1.9,0.55
				c-0.6,0-1.083-0.184-1.45-0.55c-0.333-0.333-0.5-0.667-0.5-1l0.95-8.1c0.167-1.233,0.433-2.067,0.8-2.5
				c0.333-0.4,0.917-0.6,1.75-0.6h7.95c0.767,0,1.367,0.2,1.801,0.6c0.399,0.367,0.6,0.85,0.6,1.45
				C93.5,31.067,92.733,31.9,91.2,31.9z"/>
		</g>
		<g>
			
				<linearGradient id="SVGID_5_" gradientUnits="userSpaceOnUse" x1="-50.3335" y1="85.8018" x2="-26.4585" y2="85.8018" gradientTransform="matrix(4.188482e-005 -1 1 -0.001 2.047477e-004 4.449275e-004)">
				<stop  offset="0.149" style="stop-color:#0E2904"/>
				<stop  offset="0.302" style="stop-color:#143004"/>
				<stop  offset="0.5176" style="stop-color:#244304"/>
				<stop  offset="0.7765" style="stop-color:#3E6206"/>
				<stop  offset="0.9686" style="stop-color:#567E09"/>
			</linearGradient>
			<path style="fill-rule:evenodd;clip-rule:evenodd;fill:url(#SVGID_5_);" d="M91.2,30.9H85l-0.5,3.5
				c0.934-0.233,1.767-0.35,2.5-0.35c1.967,0,3.6,0.7,4.9,2.1c1.267,1.333,1.899,2.983,1.899,4.95c0,2.8-0.733,5.017-2.2,6.65
				c-1.533,1.667-3.716,2.5-6.55,2.5c-1.466,0-2.966-0.383-4.5-1.15c-1.833-0.9-2.75-2-2.75-3.3c0-0.6,0.233-1.117,0.7-1.55
				c0.433-0.467,0.95-0.7,1.55-0.7c0.367,0,1.1,0.367,2.2,1.1c1.133,0.7,2.1,1.05,2.9,1.05c1.1,0,1.983-0.467,2.649-1.4
				c0.566-0.8,0.851-1.783,0.851-2.95c0-1.033-0.267-1.833-0.801-2.4C87.283,38.317,86.5,38,85.5,38c-0.633,0-1.3,0.183-2,0.55
				s-1.333,0.55-1.9,0.55c-0.6,0-1.083-0.184-1.45-0.55c-0.333-0.333-0.5-0.667-0.5-1l0.95-8.1c0.167-1.233,0.433-2.067,0.8-2.5
				c0.333-0.4,0.917-0.6,1.75-0.6h7.95c0.767,0,1.367,0.2,1.801,0.6c0.399,0.367,0.6,0.85,0.6,1.45
				C93.5,30.067,92.733,30.9,91.2,30.9z"/>
		</g>
	</g>
	
		<use xlink:href="#FlashAICB_x2F_Layer_1_x2F__x3C_Path_x3E_"  width="128.6" height="61.9" y="-61.9" transform="matrix(1 0 0 -1 21.5 85.8501)" style="overflow:visible;opacity:0.4688;enable-background:new    ;"/>
	<g>
		
			<use xlink:href="#FlashAICB_x2F_Layer_1_x2F__x3C_Path_x3E__x5F_1"  width="119.2" height="60.45" y="-60.45" transform="matrix(1 0 0 -1 26.2002 22.1499)" style="overflow:visible;opacity:0.1992;enable-background:new    ;"/>
		
			<use xlink:href="#FlashAICB_x2F_Layer_1_x2F__x3C_Path_x3E__x5F_0"  width="119.2" height="66.417" y="-66.417" transform="matrix(1 0 0 -1 26.2002 22.1499)" style="overflow:visible;opacity:0.1211;enable-background:new    ;"/>
	</g>
	<g>
		<g>
			<path style="fill-rule:evenodd;clip-rule:evenodd;fill:#A6CEC1;" d="M88.05,62.65h20c0.8,0,1.634,0.167,2.5,0.5
				c0.867,0.367,1.601,0.817,2.2,1.35l4.95,4.7c1,0.933,1.5,2.066,1.5,3.4c0,1.3-0.5,2.417-1.5,3.35l-4.95,4.7
				c-1.333,1.233-2.9,1.85-4.7,1.85H89.9c-0.034,0.333-0.167,0.733-0.4,1.2l0.25,0.55h18.3c1.8,0,3.367,0.617,4.7,1.85l4.95,4.7
				c1,0.9,1.5,2.017,1.5,3.351c0,1.333-0.5,2.466-1.5,3.399l-4.95,4.65c-0.6,0.566-1.333,1.033-2.2,1.399
				c-0.866,0.334-1.7,0.5-2.5,0.5h-18.6v15.65c0.399,0.4,0.666,0.717,0.8,0.95c0.167,0.233,0.316,0.649,0.45,1.25l0.05,0.1
				c0.6,1.233,0.517,2.45-0.25,3.65l0.4,0.3l1.05,0.6L92,126.65c0.866,0.533,1.6,1.083,2.2,1.649c1.1,1.033,1.566,2.233,1.399,3.601
				c0,1.133-0.383,2.267-1.149,3.399L94.35,135.4l-1.55,2l-0.05,0.05l-0.05,0.1l-0.2,0.3v0.051h-0.05l-0.25,0.35l-0.45,0.45
				l-0.8,0.649l-0.4,0.25c-0.5,0.301-1.05,0.5-1.649,0.601l-0.601,0.1l-2.5,0.05l-1.2-0.1l-1.45,0.6
				c-0.667,0.233-1.333,0.351-2,0.351c-0.6,0-1.183-0.101-1.75-0.3l-2.85-1.2h-0.1c-1.034-0.3-1.8-0.55-2.3-0.75l-0.4-0.15
				l-0.05-0.05l-0.15-0.05H73.5l-0.35-0.2H73.1l-0.05-0.05l-0.25-0.15l-0.05-0.05L72.3,138l-0.15-0.15l-0.2-0.149l-0.3-0.3
				l-0.1-0.051v-0.05l-0.4-0.399l-0.2-0.25l-0.1-0.101v-0.05l-0.6-0.9v-0.05l-0.4-0.75c-0.434-1-0.383-1.983,0.15-2.95l0.6-1.1
				l0.15-0.2v-0.05l0.15-0.15l0.05-0.149l0.1-0.101l0.55-0.75l0.05-0.1l0.5-0.6l1.5-1.5l0.3-0.2L74,126.9l0.2-0.15l0.05-0.05
				l-0.1-0.9c0.1-1.1,0.617-1.967,1.55-2.6c-0.3-0.967-0.15-1.9,0.45-2.8V99.15c-0.167-0.434-0.25-0.851-0.25-1.25v-2.15
				c0-0.4,0.083-0.816,0.25-1.25v-0.7l-0.05-0.2H57.55c-0.8,0-1.633-0.166-2.5-0.5c-0.867-0.333-1.6-0.783-2.2-1.35l-4.95-4.7
				c-0.967-0.899-1.45-2.033-1.45-3.4c0-1.3,0.483-2.417,1.45-3.35l4.95-4.7c1.333-1.233,2.9-1.85,4.7-1.85h18.4l0.2-0.8v-0.7
				c-0.167-0.433-0.25-0.867-0.25-1.3v-2.1c0-0.4,0.083-0.817,0.25-1.25v-1.9c0-1.1,0.4-2.05,1.2-2.85c0.8-0.8,1.75-1.2,2.85-1.2
				h5.2C86.4,61.65,87.283,61.983,88.05,62.65z"/>
			<path style="fill-rule:evenodd;clip-rule:evenodd;fill:#DFF39B;" d="M108.05,62.55c1.834,0,3.434,0.633,4.8,1.9l4.95,4.65
				c1,1,1.5,2.167,1.5,3.5c0,1.367-0.5,2.517-1.5,3.45l-4.95,4.65c-0.6,0.566-1.35,1.033-2.25,1.4c-0.866,0.333-1.716,0.5-2.55,0.5
				H90c-0.033,0.267-0.15,0.633-0.35,1.1l0.199,0.4h18.2c0.834,0,1.684,0.183,2.55,0.55c0.9,0.333,1.65,0.783,2.25,1.35l4.95,4.7
				c1,0.934,1.5,2.083,1.5,3.45c0,1.366-0.5,2.517-1.5,3.449l-4.95,4.7c-0.6,0.566-1.35,1.033-2.25,1.4
				c-0.866,0.333-1.716,0.5-2.55,0.5h-18.5v15.5c0.334,0.3,0.601,0.616,0.8,0.95c0.267,0.399,0.417,0.816,0.45,1.25l0.05,0.1
				c0.634,1.167,0.567,2.4-0.199,3.7l1.35,0.8l0.1,0.05c0.867,0.566,1.584,1.117,2.15,1.65c1.1,1,1.6,2.25,1.5,3.75
				c0,1.066-0.4,2.2-1.2,3.399l-0.1,0.15c-0.167,0.267-0.5,0.684-1,1.25l-0.4,0.45l-0.149,0.3v0.05L92.8,137.65l-0.2,0.25
				l-0.05,0.05l-0.25,0.35l-0.45,0.5L91,139.45l-0.4,0.25c-0.399,0.233-0.949,0.45-1.649,0.649l-3,0.15l-0.15-0.05l-1.2-0.05
				l-1.4,0.55c-0.7,0.233-1.383,0.35-2.05,0.35c-0.633,0-1.233-0.1-1.8-0.3l-2.85-1.2h-0.1l-2.3-0.7l-0.15-0.1l-0.3-0.1L73.5,138.8
				l-0.75-0.399L72.6,138.3l-0.3-0.149l-0.2-0.2l-0.45-0.351l-0.6-0.6l-0.3-0.45l-0.1-0.1l-0.5-0.8V135.6l-0.4-0.75
				c-0.467-1-0.433-2.017,0.1-3.05l0.8-1.35l0.15-0.15l0.05-0.149l0.65-0.9l0.05-0.05l0.5-0.601l0.1-0.1l0.1-0.15
				c0.433-0.5,0.85-0.899,1.25-1.199l0.1-0.101l0.25-0.2l0.1-0.05l0.15-0.149l-0.05-0.851c0.067-1.066,0.567-1.95,1.5-2.649
				c-0.267-0.967-0.1-1.9,0.5-2.801V99.15c-0.167-0.4-0.25-0.817-0.25-1.25v-2.15c0-0.434,0.083-0.866,0.25-1.3V93.8L76,93.7H57.55
				c-0.833,0-1.683-0.167-2.55-0.5c-0.867-0.367-1.6-0.834-2.2-1.4l-5-4.649c-1-1-1.5-2.167-1.5-3.5c0-1.367,0.5-2.517,1.5-3.45
				l5-4.65c0.6-0.566,1.333-1.033,2.2-1.4c0.867-0.333,1.717-0.5,2.55-0.5h18.3l0.2-0.75v-0.65c-0.167-0.433-0.25-0.867-0.25-1.3
				v-2.1c0-0.434,0.083-0.867,0.25-1.3V65.7c0-1.133,0.4-2.117,1.2-2.95c0.833-0.8,1.817-1.2,2.95-1.2h5.2
				c1.033,0,1.933,0.333,2.699,1H108.05z"/>
		</g>
		<g>
			
				<linearGradient id="SVGID_6_" gradientUnits="userSpaceOnUse" x1="-140.5806" y1="82.8008" x2="-60.7798" y2="82.8008" gradientTransform="matrix(1.253919e-005 -1 1 -0.001 9.267493e-005 4.449275e-004)">
				<stop  offset="0.3569" style="stop-color:#698424"/>
				<stop  offset="0.4627" style="stop-color:#7B9E33"/>
				<stop  offset="0.6314" style="stop-color:#9DCF52"/>
				<stop  offset="0.9647" style="stop-color:#DAE772"/>
			</linearGradient>
			<path style="fill-rule:evenodd;clip-rule:evenodd;fill:url(#SVGID_6_);" d="M108.05,61.7c1.834,0,3.434,0.633,4.8,1.9l4.95,4.7
				c1,0.934,1.5,2.083,1.5,3.45s-0.5,2.517-1.5,3.45l-4.95,4.7c-0.6,0.567-1.35,1.033-2.25,1.4c-0.866,0.333-1.716,0.5-2.55,0.5H90
				c-0.033,0.233-0.15,0.583-0.35,1.05l0.199,0.45h18.2c0.834,0,1.684,0.167,2.55,0.5c0.9,0.367,1.65,0.833,2.25,1.4l4.95,4.649
				c1,0.934,1.5,2.084,1.5,3.45c0,1.334-0.5,2.5-1.5,3.5l-4.95,4.65c-0.6,0.566-1.35,1.033-2.25,1.399
				c-0.866,0.334-1.716,0.5-2.55,0.5h-18.5V118.9c0.334,0.233,0.601,0.533,0.8,0.899c0.233,0.4,0.384,0.834,0.45,1.3l0.05,0.051
				c0.634,1.166,0.567,2.399-0.199,3.699L92,125.65l0.1,0.05c0.867,0.566,1.584,1.116,2.15,1.649c1.1,1.034,1.6,2.284,1.5,3.75
				c0,1.134-0.4,2.267-1.2,3.4l-0.1,0.15l-1.4,1.75l-0.149,0.25v0.05l-0.101,0.1l-0.2,0.3l-0.05,0.051l-0.25,0.35l-1.3,1.15
				l-0.4,0.199c-0.399,0.233-0.949,0.45-1.649,0.65l-0.65,0.1l-2.5,0.051l-1.2-0.101l-1.4,0.601c-0.867,0.233-1.55,0.35-2.05,0.35
				c-0.566,0-1.167-0.116-1.8-0.35c-0.267-0.067-0.9-0.334-1.9-0.801L76.5,139l-0.1-0.05l-2.45-0.75l-0.3-0.15L73.5,138l-0.75-0.4
				l-0.65-0.449l-0.55-0.5l-0.1-0.051l-0.4-0.449l-0.2-0.25l-0.7-1.101v-0.05l-0.4-0.75c-0.467-1-0.433-2.017,0.1-3.05l0.65-1.101
				l0.3-0.399l0.05-0.15l0.1-0.1l0.55-0.75l0.05-0.101l0.5-0.6l0.2-0.2c0.4-0.5,0.817-0.916,1.25-1.25l0.1-0.05l0.25-0.25l0.1-0.05
				l0.15-0.101l-0.05-0.899c0.067-1.101,0.567-1.967,1.5-2.601c-0.267-1-0.1-1.933,0.5-2.8V98.3c-0.167-0.399-0.25-0.816-0.25-1.25
				v-2.1c0-0.434,0.083-0.867,0.25-1.3V93L76,92.9H57.55c-0.833,0-1.683-0.167-2.55-0.5c-0.867-0.367-1.6-0.834-2.2-1.4l-5-4.7
				c-1-0.933-1.5-2.083-1.5-3.45s0.5-2.517,1.5-3.45l5-4.7c0.6-0.567,1.333-1.034,2.2-1.4c0.867-0.333,1.717-0.5,2.55-0.5h18.3
				l0.2-0.75V71.4c-0.167-0.4-0.25-0.816-0.25-1.25V68c0-0.433,0.083-0.867,0.25-1.3v-1.85c0-1.133,0.4-2.1,1.2-2.9
				c0.833-0.833,1.817-1.25,2.95-1.25h5.2c1.033,0,1.933,0.333,2.699,1H108.05z"/>
			<path style="fill-rule:evenodd;clip-rule:evenodd;fill:none;stroke:#DFF39B;stroke-width:0.25;" d="M108.05,61.7
				c1.834,0,3.434,0.633,4.8,1.9l4.95,4.7c1,0.934,1.5,2.083,1.5,3.45s-0.5,2.517-1.5,3.45l-4.95,4.7
				c-0.6,0.567-1.35,1.033-2.25,1.4c-0.866,0.333-1.716,0.5-2.55,0.5H90c-0.033,0.233-0.15,0.583-0.35,1.05l0.199,0.45h18.2
				c0.834,0,1.684,0.167,2.55,0.5c0.9,0.367,1.65,0.833,2.25,1.4l4.95,4.649c1,0.934,1.5,2.084,1.5,3.45c0,1.334-0.5,2.5-1.5,3.5
				l-4.95,4.65c-0.6,0.566-1.35,1.033-2.25,1.399c-0.866,0.334-1.716,0.5-2.55,0.5h-18.5V118.9c0.334,0.233,0.601,0.533,0.8,0.899
				c0.233,0.4,0.384,0.834,0.45,1.3l0.05,0.051c0.634,1.166,0.567,2.399-0.199,3.699L92,125.65l0.1,0.05
				c0.867,0.566,1.584,1.116,2.15,1.649c1.1,1.034,1.6,2.284,1.5,3.75c0,1.134-0.4,2.267-1.2,3.4l-0.1,0.15l-1.4,1.75l-0.149,0.25
				v0.05l-0.101,0.1l-0.2,0.3l-0.05,0.051l-0.25,0.35l-1.3,1.15l-0.4,0.199c-0.399,0.233-0.949,0.45-1.649,0.65l-0.65,0.1
				l-2.5,0.051l-1.2-0.101l-1.4,0.601c-0.867,0.233-1.55,0.35-2.05,0.35c-0.566,0-1.167-0.116-1.8-0.35
				c-0.267-0.067-0.9-0.334-1.9-0.801L76.5,139l-0.1-0.05l-2.45-0.75l-0.3-0.15L73.5,138l-0.75-0.4l-0.65-0.449l-0.55-0.5
				l-0.1-0.051l-0.4-0.449l-0.2-0.25l-0.7-1.101v-0.05l-0.4-0.75c-0.467-1-0.433-2.017,0.1-3.05l0.65-1.101l0.3-0.399l0.05-0.15
				l0.1-0.1l0.55-0.75l0.05-0.101l0.5-0.6l0.2-0.2c0.4-0.5,0.817-0.916,1.25-1.25l0.1-0.05l0.25-0.25l0.1-0.05l0.15-0.101
				l-0.05-0.899c0.067-1.101,0.567-1.967,1.5-2.601c-0.267-1-0.1-1.933,0.5-2.8V98.3c-0.167-0.399-0.25-0.816-0.25-1.25v-2.1
				c0-0.434,0.083-0.867,0.25-1.3V93L76,92.9H57.55c-0.833,0-1.683-0.167-2.55-0.5c-0.867-0.367-1.6-0.834-2.2-1.4l-5-4.7
				c-1-0.933-1.5-2.083-1.5-3.45s0.5-2.517,1.5-3.45l5-4.7c0.6-0.567,1.333-1.034,2.2-1.4c0.867-0.333,1.717-0.5,2.55-0.5h18.3
				l0.2-0.75V71.4c-0.167-0.4-0.25-0.816-0.25-1.25V68c0-0.433,0.083-0.867,0.25-1.3v-1.85c0-1.133,0.4-2.1,1.2-2.9
				c0.833-0.833,1.817-1.25,2.95-1.25h5.2c1.033,0,1.933,0.333,2.699,1H108.05z"/>
		</g>
		<path style="fill-rule:evenodd;clip-rule:evenodd;fill:#4A5C57;" d="M78.75,68c0-0.167,0.083-0.3,0.25-0.4v-2.75
			c0-0.333,0.117-0.617,0.35-0.85s0.517-0.35,0.85-0.35h5.2c0.333,0,0.616,0.117,0.85,0.35s0.35,0.517,0.35,0.85v0.85
			c0.367-0.7,0.934-1.05,1.7-1.05h19.75c1.033,0,1.95,0.367,2.75,1.1l4.95,4.7c0.4,0.367,0.6,0.8,0.6,1.3
			c0,0.533-0.199,0.967-0.6,1.3l-4.95,4.7c-0.8,0.733-1.717,1.1-2.75,1.1H88.3c-0.767,0-1.333-0.35-1.7-1.05v0.85
			c0.334,0,0.5,0.15,0.5,0.45v2.15c0,0.3-0.166,0.45-0.5,0.45V84c0.334,0,0.5,0.15,0.5,0.45V86.6L87.05,86.7
			c0.367-0.3,0.783-0.45,1.25-0.45h19.75c1.101,0,2.017,0.366,2.75,1.1l4.95,4.65c0.4,0.366,0.6,0.8,0.6,1.3
			c0,0.566-0.199,1.017-0.6,1.351L110.8,99.3c-0.733,0.733-1.649,1.101-2.75,1.101H88.3c-0.8,0-1.366-0.351-1.7-1.051v22.101
			l0.301-0.3c0.166-0.101,0.333-0.134,0.5-0.101c0.166,0,0.3,0.084,0.399,0.25c0.134,0.2,0.101,0.517-0.1,0.95
			c0.267,0,0.45,0.1,0.55,0.3c0.1,0.233,0.033,0.55-0.2,0.95L88,123.55c-0.167,0.334-0.4,0.967-0.7,1.9l-0.2,1.05
			c0.767,0.2,1.517,0.533,2.25,1l1.15,0.75c0.6,0.333,1.2,0.767,1.8,1.3c0.367,0.367,0.533,0.851,0.5,1.45
			c0,0.566-0.233,1.184-0.7,1.85l-0.05,0.051L90.4,135.05l-0.051,0.101l-0.1,0.149v0.05L90,135.6l-0.05,0.101l-0.101,0.05
			c-0.133,0.167-0.3,0.3-0.5,0.4l-0.1,0.1c-0.4,0.2-0.717,0.316-0.95,0.35l-2.35,0.101l-1.2-0.101H84.5l-0.7,0.101l-1.6,0.649
			l-1.05,0.15c-0.367,0-0.65-0.033-0.85-0.1l-1.65-0.7c-0.5-0.267-1.017-0.467-1.55-0.601l-2-0.649l-0.2-0.101h-0.05L74.5,135.2
			l-0.05-0.05l-0.2-0.101L74.2,135l-0.2-0.1v-0.051l-0.1-0.05l-0.15-0.1l-0.15-0.15v-0.05h-0.05l-0.05-0.05l-0.1-0.15l-0.05-0.05
			H73.3l-0.1-0.15v-0.05L73.15,134H73.1l-0.65-1.2c-0.034-0.133-0.034-0.283,0-0.45l0.35-0.55l0.05-0.1l0.05-0.05l0.25-0.4l0.05-0.1
			V131.1l0.15-0.199l0.05-0.051l0.45-0.6v-0.05l0.45-0.55l1.1-1.101h0.05v-0.05l0.3-0.2l0.1-0.1l0.3-0.2l0.1-0.05l0.05-0.05
			l0.1-0.051h0.05l0.1-0.1l0.15-0.05l0.2-0.101c0.067-0.533,0.317-0.899,0.75-1.1c0.267-0.134,0.583-0.2,0.95-0.2v-0.05
			c-0.133-0.2-0.333-0.333-0.6-0.4l-0.55-0.149c-0.3-0.101-0.45-0.283-0.45-0.55s0.167-0.434,0.5-0.5L78,124.6
			c0.367,0,0.7,0.051,1,0.15v-0.85c-0.233-0.4-0.283-0.7-0.15-0.9l0.1-0.15l-0.5-1.149c-0.1-0.2-0.067-0.384,0.1-0.55
			c0.167-0.101,0.317-0.134,0.45-0.101v-23.6c-0.167-0.066-0.25-0.2-0.25-0.4v-2.1c0-0.2,0.083-0.351,0.25-0.45v-2.35
			c-0.167-0.101-0.25-0.25-0.25-0.45V89.6c0-0.199,0.083-0.35,0.25-0.449V88.9c-0.333,0.699-0.9,1.05-1.7,1.05H57.55
			c-1.033,0-1.95-0.367-2.75-1.101l-4.95-4.7c-0.4-0.4-0.6-0.833-0.6-1.3c0.067-0.533,0.267-0.967,0.6-1.3l4.95-4.7
			c0.8-0.733,1.717-1.1,2.75-1.1H77.3c0.8,0,1.367,0.35,1.7,1.05v-0.9c-0.167-0.1-0.25-0.233-0.25-0.4v-2.15
			c0-0.2,0.083-0.333,0.25-0.4v-2.4c-0.167-0.1-0.25-0.233-0.25-0.4V68z M86.6,87.3v-0.25h0.15L86.6,87.3l0.15-0.25H86.6V87.3z"/>
		<path style="fill-rule:evenodd;clip-rule:evenodd;fill:none;stroke:#22480E;" d="M78.75,68v2.15c0,0.167,0.083,0.3,0.25,0.4v2.4
			c-0.167,0.066-0.25,0.2-0.25,0.4v2.15c0,0.167,0.083,0.3,0.25,0.4v0.9c-0.333-0.7-0.9-1.05-1.7-1.05H57.55
			c-1.033,0-1.95,0.367-2.75,1.1l-4.95,4.7c-0.333,0.333-0.533,0.767-0.6,1.3c0,0.467,0.2,0.9,0.6,1.3l4.95,4.7
			c0.8,0.733,1.717,1.101,2.75,1.101H77.3c0.8,0,1.367-0.351,1.7-1.05v0.25c-0.167,0.1-0.25,0.25-0.25,0.449V91.7
			c0,0.2,0.083,0.35,0.25,0.45v2.35c-0.167,0.1-0.25,0.25-0.25,0.45v2.1c0,0.2,0.083,0.334,0.25,0.4v23.6
			c-0.133-0.033-0.283,0-0.45,0.101c-0.167,0.166-0.2,0.35-0.1,0.55l0.5,1.149l-0.1,0.15c-0.133,0.2-0.083,0.5,0.15,0.9v0.85
			c-0.3-0.1-0.633-0.15-1-0.15l-0.5,0.051c-0.333,0.066-0.5,0.233-0.5,0.5s0.15,0.449,0.45,0.55L78,125.85
			c0.267,0.067,0.467,0.2,0.6,0.4v0.05c-0.367,0-0.684,0.066-0.95,0.2c-0.433,0.2-0.683,0.566-0.75,1.1l-0.2,0.101l-0.15,0.05
			l-0.1,0.1H76.4l-0.1,0.051l-0.05,0.05l-0.1,0.05l-0.3,0.2l-0.1,0.1l-0.3,0.2v0.05H75.4l-1.1,1.101l-0.45,0.55v0.05l-0.45,0.6
			l-0.05,0.051L73.2,131.1v0.051l-0.05,0.1l-0.25,0.4l-0.05,0.05l-0.05,0.1l-0.35,0.55c-0.034,0.167-0.034,0.317,0,0.45l0.65,1.2
			h0.05l0.05,0.05v0.05l0.1,0.15h0.05l0.05,0.05l0.1,0.15l0.05,0.05h0.05v0.05l0.15,0.15l0.15,0.1l0.1,0.05v0.051l0.2,0.1l0.05,0.05
			l0.2,0.101l0.05,0.05l0.35,0.149h0.05l0.2,0.101l2,0.649c0.533,0.134,1.05,0.334,1.55,0.601l1.65,0.7
			c0.2,0.066,0.483,0.1,0.85,0.1l1.05-0.15l1.6-0.649l0.7-0.101h0.25l1.2,0.101l2.35-0.101c0.233-0.033,0.55-0.149,0.95-0.35
			l0.1-0.1c0.2-0.101,0.367-0.233,0.5-0.4l0.101-0.05L90,135.6l0.25-0.25v-0.05l0.1-0.149l0.051-0.101l1.649-2.149l0.05-0.051
			c0.467-0.666,0.7-1.283,0.7-1.85c0.033-0.6-0.133-1.083-0.5-1.45c-0.6-0.533-1.2-0.967-1.8-1.3l-1.15-0.75
			c-0.733-0.467-1.483-0.8-2.25-1l0.2-1.05c0.3-0.934,0.533-1.566,0.7-1.9l0.05-0.05c0.233-0.4,0.3-0.717,0.2-0.95
			c-0.1-0.2-0.283-0.3-0.55-0.3c0.2-0.434,0.233-0.75,0.1-0.95c-0.1-0.166-0.233-0.25-0.399-0.25c-0.167-0.033-0.334,0-0.5,0.101
			l-0.301,0.3V99.35c0.334,0.7,0.9,1.051,1.7,1.051h19.75c1.101,0,2.017-0.367,2.75-1.101l4.95-4.649c0.4-0.334,0.6-0.784,0.6-1.351
			c0-0.5-0.199-0.934-0.6-1.3l-4.95-4.65c-0.733-0.733-1.649-1.1-2.75-1.1H88.3c-0.467,0-0.883,0.15-1.25,0.45L87.1,86.6V84.45
			c0-0.3-0.166-0.45-0.5-0.45v-2.3c0.334,0,0.5-0.15,0.5-0.45V79.1c0-0.3-0.166-0.45-0.5-0.45V77.8c0.367,0.7,0.934,1.05,1.7,1.05
			h19.75c1.033,0,1.95-0.367,2.75-1.1l4.95-4.7c0.4-0.333,0.6-0.767,0.6-1.3c0-0.5-0.199-0.933-0.6-1.3l-4.95-4.7
			c-0.8-0.733-1.717-1.1-2.75-1.1H88.3c-0.767,0-1.333,0.35-1.7,1.05v-0.85c0-0.333-0.116-0.617-0.35-0.85s-0.517-0.35-0.85-0.35
			h-5.2c-0.333,0-0.617,0.117-0.85,0.35S79,64.517,79,64.85v2.75C78.833,67.7,78.75,67.833,78.75,68z M86.6,87.3v-0.25h0.15
			L86.6,87.3z"/>
		<g>
			<g>
				<path style="fill-rule:evenodd;clip-rule:evenodd;fill:#7A674C;" d="M91.95,129.9c0.566,0.533,0.5,1.316-0.2,2.35l-1.5,1.85
					c-0.5,0.934-1.184,1.5-2.05,1.7h-3.4c-0.433-0.033-0.816,0-1.15,0.101l-1.6,0.649c-0.566,0.2-1.083,0.217-1.55,0.05l-6.6-2.449
					l-0.45-0.5L72.9,132.6c0.833-1.566,1.767-2.783,2.8-3.649c0.9-0.767,2-1.3,3.3-1.601c0.933-0.199,2.333-0.383,4.2-0.55
					c1.066-0.133,1.85-0.2,2.35-0.2c0.167,0.101,0.3,0.15,0.4,0.15c1.166,0.167,2.217,0.55,3.149,1.15l1.2,0.75
					C90.9,129.017,91.45,129.434,91.95,129.9z"/>
				<path style="fill-rule:evenodd;clip-rule:evenodd;fill:#837053;" d="M89.6,135.4c-0.233-0.233-0.399-0.483-0.5-0.75
					c-0.5-0.834-0.616-1.717-0.35-2.65l0.55-1.1c0.233-0.367,0.351-0.817,0.351-1.351c-0.067-0.333-0.167-0.566-0.301-0.7
					l-0.55-0.75l1.45,0.9c0.4,0.233,0.967,0.65,1.7,1.25c0.566,0.533,0.483,1.316-0.25,2.35L89.6,135.4z"/>
				<path style="fill-rule:evenodd;clip-rule:evenodd;fill:#8D795A;" d="M83.95,128.3c-0.133-0.434-0.184-0.816-0.15-1.149
					l0.05-0.45l1.25-0.101l0.2,0.2l0.05,0.5c0.034,0.7-0.066,1.267-0.3,1.7c-0.033,0.134-0.1,0.25-0.2,0.35
					c-0.033,0.067-0.133,0.067-0.3,0C84.35,129.316,84.15,128.967,83.95,128.3z"/>
				<path style="fill-rule:evenodd;clip-rule:evenodd;fill:#78654B;" d="M90.25,134.45c-0.366,0.633-0.75,1.083-1.15,1.35
					l-0.75-1.399l-1-3.301c0.233,0,0.434,0.051,0.601,0.15l0.55,0.25c0.7,0.2,1.167,0.283,1.4,0.25l0.05-0.7l0.8,0.05
					c0.267,0.067,0.5,0.017,0.7-0.149c0.066-0.267,0.05-0.517-0.05-0.75l-0.25-0.601l0.8,0.65c0.566,0.533,0.483,1.316-0.25,2.35
					L90.25,134.45z"/>
				<path style="fill-rule:evenodd;clip-rule:evenodd;fill:#998463;" d="M91,131.45c0.134,0.333,0.384,0.7,0.75,1.1
					c-0.134,0.267-0.434,0.65-0.9,1.15l-0.6,0.75c-0.533,0.934-1.217,1.5-2.05,1.7h-3.4c-0.466-0.034-0.867,0-1.2,0.1l-1.55,0.65
					c-0.566,0.199-1.083,0.216-1.55,0.05l-1.65-0.7c-0.8-0.366-1.35-0.566-1.65-0.6l-1.9-0.601l-0.15-0.1h-0.1
					c-0.466-0.367-0.8-0.584-1-0.65l-0.2-0.2l-0.1-0.199h-0.1l-0.15-0.15l-0.6-1.15c0.833-1.566,1.767-2.783,2.8-3.649
					c0.267-0.233,0.667-0.517,1.2-0.851l0.3-0.05l0.55-0.3c0.3-0.134,0.717-0.267,1.25-0.4c0.933-0.199,2.333-0.383,4.2-0.55
					l0.4-0.05l1.8,1.1l0.35,0.101l0.3,0.149l0.55,0.7c0.134,0.134,0.384,0.2,0.75,0.2l0.75,0.15c0.2,0.033,0.551,0.25,1.051,0.649
					c0.433,0.367,0.767,0.617,1,0.75l0.3,0.15L91,131.45z"/>
				<path style="fill-rule:evenodd;clip-rule:evenodd;fill:#917D5D;" d="M91,131.45c0.134,0.333,0.384,0.7,0.75,1.1
					c-0.134,0.267-0.434,0.65-0.9,1.15l-0.6,0.75c-0.533,0.934-1.217,1.5-2.05,1.7h-3.4c-0.466-0.034-0.867,0-1.2,0.1l-1.55,0.65
					c-0.566,0.199-1.083,0.216-1.55,0.05l-1.65-0.7c-0.8-0.366-1.35-0.566-1.65-0.6l-1.9-0.601L75.2,135
					c-0.833-0.434-1.417-0.884-1.75-1.35L72.9,132.6c0.567-1.033,1.167-1.933,1.8-2.699c0.1,0.066,0.15,0.149,0.15,0.25l0.1,0.5
					c0.033,0.133,0.083,0.233,0.15,0.3c0.033,0.033,0.133,0.066,0.3,0.1c0.167,0.101,0.233,0.184,0.2,0.25
					c0,0.2-0.117,0.467-0.35,0.8c0.133,0.034,0.183,0.217,0.15,0.551c0.133,0.066,0.267,0.05,0.4-0.051l0.05,0.301l0.65-0.5
					c0.333-0.101,0.45,0.1,0.35,0.6c0.133,0,0.283,0.083,0.45,0.25c0.167,0.233,0.25,0.417,0.25,0.55L78,133.9
					c0.1,0,0.25,0.133,0.45,0.399c0.033,0.033,0.133,0.017,0.3-0.05c0.133-0.1,0.233-0.116,0.3-0.05c0.1,0.1,0.15,0.217,0.15,0.35
					l0.05,0.15l0.1,0.1l0.2,0.101l0.5-0.101c0.067-0.133,0.083-0.283,0.05-0.45c0.267,0.167,0.483,0.117,0.65-0.149
					c0.167-0.334,0.15-0.733-0.05-1.2l0.6,0.6c0.233,0.301,0.3,0.634,0.2,1l0.8,0.051c0.367,0,0.617,0.05,0.75,0.149
					c0.067-0.233,0.133-0.383,0.2-0.45c0.067-0.133,0.15-0.149,0.25-0.05v-0.45l0.3,0.15c0.133,0.134,0.217,0.184,0.25,0.15
					c0-0.301,0.067-0.467,0.2-0.5c0.133,0.066,0.25,0.166,0.35,0.3v-0.55c1.1,0.633,1.833,0.966,2.2,1c0.066-0.467,0-0.934-0.2-1.4
					c-0.166-0.566-0.333-0.967-0.5-1.2c0.167,0.066,0.483,0.3,0.95,0.7c0.367,0.366,0.684,0.467,0.95,0.3l0.1,0.25l0.051-0.8
					l0.3,0.1c0.1,0.101,0.184,0.117,0.25,0.051c0-0.233-0.066-0.483-0.2-0.75l-0.35-0.601c0.3,0.066,0.699,0.367,1.199,0.9
					c-0.066-0.434-0.3-0.851-0.699-1.25l-0.9-0.851c0.134,0,0.4,0.15,0.8,0.45c0.267,0.267,0.517,0.4,0.75,0.4l-0.05-0.3l0.15,0.1
					l-0.15-0.4c0.167,0.267,0.35,0.4,0.55,0.4c0.066,0.033,0.134,0.017,0.2-0.05l0.15,0.1l0.3,0.15L91,131.45z"/>
				<path style="fill-rule:evenodd;clip-rule:evenodd;fill:#8B7759;" d="M90.15,131.6l0.5,0.101l-0.2-0.45
					c-0.134-0.134-0.2-0.283-0.2-0.45l0.35,0.05l0.4,0.601c0.134,0.333,0.384,0.7,0.75,1.1c-0.134,0.267-0.434,0.65-0.9,1.15
					l-0.6,0.75c-0.533,0.934-1.217,1.5-2.05,1.7h-3.4c-0.466-0.034-0.867,0-1.2,0.1l-1.55,0.65c-0.566,0.199-1.083,0.216-1.55,0.05
					l-1.65-0.7c-0.8-0.366-1.35-0.566-1.65-0.6l-1.9-0.601L75.25,135c-0.867-0.4-1.467-0.85-1.8-1.35L72.9,132.6l0.85-1.399
					c0.167-0.066,0.3-0.167,0.4-0.3c0.233-0.301,0.417-0.483,0.55-0.551c0.267-0.1,0.483-0.066,0.65,0.101
					c0.133,0.267,0.117,0.583-0.05,0.95c-0.066,0.199-0.183,0.466-0.35,0.8l-0.2,1.05l-0.3,0.9c0.133,0.133,0.25,0.116,0.35-0.051
					c0.133-0.166,0.25-0.25,0.35-0.25v0.5c0.133,0.034,0.267-0.05,0.4-0.25c0.067-0.1,0.167-0.333,0.3-0.699
					c0.033,0.399,0.15,0.433,0.35,0.1c0.333-0.6,0.517-0.9,0.55-0.9l-0.35,2.051c-0.066,0.433,0.017,0.616,0.25,0.55l0.5-0.351
					c0.067,0.334,0.133,0.517,0.2,0.551c0.133,0.133,0.25,0.083,0.35-0.15c0.033,0.3,0.1,0.467,0.2,0.5h0.35l0.3,0.1l0.15-0.199
					l0.2-0.15c0,0.134,0.083,0.233,0.25,0.3l0.3,0.15c0-0.3,0.083-0.4,0.25-0.3l0.4,0.25l0.45,0.05c0.067,0,0.133-0.134,0.2-0.4
					l0.2-0.6l0.1,1c0.034,0.267,0.184,0.316,0.45,0.149l0.25-0.3c0.067-0.033,0.183,0,0.35,0.101c0-0.301,0.066-0.367,0.2-0.2
					c0.233,0.267,0.367,0.283,0.4,0.05c0.167,0.066,0.35,0.066,0.55,0l0.5-0.1l0.05-0.601c0.233-0.033,0.567,0.134,1,0.5
					c0.067-0.533,0.067-0.95,0-1.25c0.233,0.5,0.584,0.934,1.05,1.3c0.5,0.367,0.834,0.367,1,0c0.167-0.433,0.15-0.949-0.05-1.55
					c0-0.333-0.083-0.75-0.25-1.25c-0.1-0.399-0.25-0.733-0.45-1c0.167,0.033,0.4,0.184,0.7,0.45l0.7,0.6l0.1,0.301
					c0.134,0.366,0.301,0.716,0.5,1.05l0.15,0.5c0.033,0.166,0.116,0.283,0.25,0.35c0.066-0.2,0.066-0.434,0-0.7l-0.05-0.6
					c0.133,0.233,0.283,0.4,0.45,0.5c0.267,0.134,0.433,0.2,0.5,0.2c0.1-0.7,0.133-1.2,0.1-1.5c0.1-0.066,0.233-0.066,0.4,0
					l0.35,0.05c0-0.267-0.083-0.517-0.25-0.75l-0.45-0.4c0.101-0.1,0.25-0.1,0.45,0l0.45,0.301L90.15,131.6z"/>
				<path style="fill-rule:evenodd;clip-rule:evenodd;fill:#7F6C4F;" d="M87.4,132.9h0.25l0.3,0.05l0.2,0.399
					c0.033,0.2,0.033,0.284,0,0.25c-0.134-0.133-0.2-0.183-0.2-0.149l-0.05,0.35l-0.2-0.6C87.602,133.003,87.501,132.902,87.4,132.9
					z"/>
				<path style="fill-rule:evenodd;clip-rule:evenodd;fill:#7F6C4F;" d="M89.9,131.65L90.05,132c0.101,0.167,0.134,0.3,0.101,0.4
					c-0.267-0.233-0.467-0.351-0.601-0.351l0.15,0.351v0.399l-0.2-0.1l-0.1-0.351c-0.101-0.1-0.184-0.149-0.25-0.149
					c-0.101-0.101-0.117-0.2-0.051-0.3v0.05c0.002-0.065,0.052-0.049,0.15,0.05c-0.066-0.1-0.066-0.233,0-0.4h0.15
					c-0.034-0.1-0.034-0.199,0-0.3l0.149-0.1c0,0.133,0.134,0.2,0.4,0.2c0.2-0.034,0.3,0.066,0.3,0.3
					C90.083,131.6,89.967,131.583,89.9,131.65z"/>
				<path style="fill-rule:evenodd;clip-rule:evenodd;fill:#7F6C4F;" d="M90.25,131c0.267-0.033,0.417,0.033,0.45,0.2
					c0.033,0,0.05,0.066,0.05,0.2l-0.05,0.149c-0.066,0.134-0.15,0.084-0.25-0.149C90.316,131.267,90.25,131.134,90.25,131z"/>
				<path style="fill-rule:evenodd;clip-rule:evenodd;fill:#A79273;" d="M76.65,128.25l0.15,0.05c0,0.134-0.05,0.2-0.15,0.2
					s-0.15-0.033-0.15-0.1v-0.051L76.65,128.25z"/>
				<path style="fill-rule:evenodd;clip-rule:evenodd;fill:#A79273;" d="M76.95,128.45c0.133,0,0.167,0.05,0.1,0.149
					c-0.033,0.067-0.1,0.084-0.2,0.051l0.05-0.15L76.95,128.45z"/>
				<path style="fill-rule:evenodd;clip-rule:evenodd;fill:#A79273;" d="M79.55,127.25c0.1,0.1,0.1,0.217,0,0.35l-0.15,0.051
					c-0.1-0.034-0.167-0.034-0.2,0L79,127.8c-0.167,0.066-0.3,0.084-0.4,0.05l0.15-0.399l-0.3,0.05L79.55,127.25z"/>
				<path style="fill-rule:evenodd;clip-rule:evenodd;fill:#A79273;" d="M79.8,127.45h0.05c0.1-0.033,0.15,0.033,0.15,0.2
					C79.7,127.616,79.633,127.55,79.8,127.45z"/>
				<path style="fill-rule:evenodd;clip-rule:evenodd;fill:#A79273;" d="M81.6,127c0.233,0,0.267,0.05,0.1,0.15l-0.25,0.05
					c-0.133,0-0.2-0.017-0.2-0.05V127H81.6z"/>
				<path style="fill-rule:evenodd;clip-rule:evenodd;fill:#A79273;" d="M81.3,127.3l-0.05,0.101c0.233,0,0.3,0.1,0.2,0.3
					c0,0.1-0.067,0.116-0.2,0.05l-0.2-0.1l0.1-0.2L81.3,127.3z"/>
				<path style="fill-rule:evenodd;clip-rule:evenodd;fill:#A79273;" d="M80.55,127.45h0.1c0,0.166-0.05,0.2-0.15,0.1L80.55,127.45z
					"/>
				<path style="fill-rule:evenodd;clip-rule:evenodd;fill:#A79273;" d="M82.7,128.45c0.2,0.3,0.05,0.45-0.45,0.45l-0.35,0.05
					c-0.133,0.033-0.2-0.05-0.2-0.25c-0.133,0-0.2-0.05-0.2-0.15l0.25-0.05H81.6l0.2-0.1l0.15,0.05l0.25-0.101
					c0.066-0.066,0.15-0.066,0.25,0C82.617,128.35,82.7,128.384,82.7,128.45z"/>
				<path style="fill-rule:evenodd;clip-rule:evenodd;fill:#A79273;" d="M82.95,128.2v0.05c0.3,0,0.383,0.066,0.25,0.2
					c-0.2,0.1-0.317,0.083-0.35-0.05L82.95,128.2z"/>
				<path style="fill-rule:evenodd;clip-rule:evenodd;fill:#A79273;" d="M84.35,127.65L84.1,127.8l0.45-0.1
					c0.267-0.033,0.367,0.066,0.3,0.3c0,0.2-0.15,0.316-0.45,0.35c-0.333,0-0.45-0.1-0.35-0.3c-0.133,0-0.233-0.033-0.3-0.1
					c0.033-0.101,0.117-0.184,0.25-0.25L84.35,127.65z"/>
				<path style="fill-rule:evenodd;clip-rule:evenodd;fill:#A79273;" d="M83.6,128.55l-0.05-0.05c0.133,0,0.233,0.033,0.3,0.1
					c0.167,0.101,0.183,0.2,0.05,0.301c-0.033,0.033-0.117,0.033-0.25,0l-0.2-0.15C83.417,128.517,83.467,128.45,83.6,128.55z"/>
				<path style="fill-rule:evenodd;clip-rule:evenodd;fill:#A79273;" d="M81.2,130.25l-0.35-0.05c-0.067-0.267,0.05-0.434,0.35-0.5
					c0.066-0.066,0.233-0.066,0.5,0h0.55c0.267,0.033,0.4,0.166,0.4,0.399c-0.033,0.167-0.167,0.301-0.4,0.4l-0.45,0.1l-0.4,0.15
					c-0.2,0.066-0.35,0.05-0.45-0.05c0-0.134,0.033-0.233,0.1-0.3L81.2,130.25z"/>
				<path style="fill-rule:evenodd;clip-rule:evenodd;fill:#A79273;" d="M80.7,130.85c0,0.134-0.034,0.2-0.1,0.2h-0.2V130.9
					l0.05-0.051H80.7z"/>
				<path style="fill-rule:evenodd;clip-rule:evenodd;fill:#A79273;" d="M81.25,131.15l-0.15,0.05l0.4-0.05l0.4,0.05l-0.05,0.2
					l-0.1,0.1c-0.333,0.066-0.6,0.033-0.8-0.1C81.017,131.2,81.117,131.116,81.25,131.15z"/>
				<path style="fill-rule:evenodd;clip-rule:evenodd;fill:#A79273;" d="M78,130.75l-0.75,0.2c0-0.167,0.083-0.25,0.25-0.25h0.35
					c0.233-0.066,0.316-0.033,0.25,0.1c-0.067,0.101-0.117,0.134-0.15,0.101L78,130.75z"/>
				<path style="fill-rule:evenodd;clip-rule:evenodd;fill:#A79273;" d="M76.75,130.75h0.05l0.2,0.1L76.95,131
					c-0.067,0.066-0.133,0.083-0.2,0.05l-0.2-0.1C76.55,130.884,76.617,130.816,76.75,130.75z"/>
				<path style="fill-rule:evenodd;clip-rule:evenodd;fill:#A79273;" d="M79.95,131.8l-0.2-0.1l0.45,0.05
					c0,0.233-0.067,0.366-0.2,0.4c-0.167,0-0.267-0.034-0.3-0.101c-0.1-0.1-0.1-0.184,0-0.25H79.95z"/>
				<path style="fill-rule:evenodd;clip-rule:evenodd;fill:#A79273;" d="M85.95,128.4l-0.075,0.024
					c0.017,0.02,0.025,0.078,0.025,0.175l-0.101,0.25c-0.066,0.2-0.2,0.267-0.399,0.2c-0.2,0-0.25-0.116-0.15-0.35H85.1
					c-0.066,0-0.1-0.05-0.1-0.15c0.1-0.133,0.267-0.2,0.5-0.2L85.95,128.4z"/>
				<path style="fill-rule:evenodd;clip-rule:evenodd;fill:#A79273;" d="M86.55,129.05l0.05,0.101c0.101,0,0.15,0.1,0.15,0.3
					s-0.066,0.316-0.2,0.35l-0.3,0.15c-0.233,0.166-0.384,0.233-0.45,0.2c-0.066-0.101-0.05-0.217,0.05-0.351l0.25-0.3
					c-0.033-0.1,0.017-0.2,0.15-0.3L86.55,129.05z"/>
				<path style="fill-rule:evenodd;clip-rule:evenodd;fill:#A79273;" d="M86.45,130.1L86.35,130.2v0.2
					c-0.1,0.199-0.216,0.25-0.35,0.149c-0.134-0.133-0.1-0.217,0.1-0.25L86.45,130.1z"/>
				<path style="fill-rule:evenodd;clip-rule:evenodd;fill:#A79273;" d="M85.6,130.75l0.051,0.05c0.1-0.033,0.149,0,0.149,0.101
					c0,0.066-0.05,0.1-0.149,0.1c-0.101,0-0.15-0.05-0.15-0.15C85.5,130.783,85.533,130.75,85.6,130.75z"/>
				<path style="fill-rule:evenodd;clip-rule:evenodd;fill:#A79273;" d="M86.25,130.95l-0.05-0.101c0.166-0.066,0.2,0.017,0.1,0.25
					c-0.1,0.167-0.184,0.15-0.25-0.05C86.116,130.95,86.184,130.917,86.25,130.95z"/>
				<path style="fill-rule:evenodd;clip-rule:evenodd;fill:#A79273;" d="M86.95,130.5h0.3c-0.033,0.267-0.184,0.483-0.45,0.65
					c-0.233,0.1-0.399,0.066-0.5-0.101l0.2-0.35V130.6C86.533,130.533,86.684,130.5,86.95,130.5z"/>
				<path style="fill-rule:evenodd;clip-rule:evenodd;fill:#A79273;" d="M86,131.2l0.05,0.149c0,0.167-0.066,0.233-0.2,0.2
					C85.75,131.45,85.8,131.333,86,131.2z"/>
				<path style="fill-rule:evenodd;clip-rule:evenodd;fill:#7F6C4F;" d="M74.95,131.05l0.25-0.399c0.1-0.101,0.2-0.134,0.3-0.101
					c0.133,0,0.2,0.084,0.2,0.25c0,0.2-0.034,0.334-0.1,0.4c-0.067,0.133-0.184,0.166-0.35,0.1l-0.35-0.2L74.95,131.05z"/>
				<path style="fill-rule:evenodd;clip-rule:evenodd;fill:#7F6C4F;" d="M76.5,129.6c0.067-0.1,0.217-0.183,0.45-0.25
					c0.2,0,0.283,0.167,0.25,0.5L77.15,130c-0.066,0.066-0.066,0.15,0,0.25l-0.05,0.15l-0.1,0.05l-0.25,0.05l-0.3-0.15l-0.05-0.1
					v-0.2c0-0.5,0.067-0.75,0.2-0.75L76.5,129.6z"/>
				<path style="fill-rule:evenodd;clip-rule:evenodd;fill:#7F6C4F;" d="M79.5,129l-0.35,0.35v0.25L79.1,129.9l-0.3,0.3
					c-0.233,0.233-0.5,0.217-0.8-0.05c-0.2-0.2-0.3-0.384-0.3-0.551l0.65-0.449l0.1-0.2l0.2-0.101l0.4-0.449
					c0.3-0.2,0.483-0.2,0.55,0C79.7,128.634,79.667,128.833,79.5,129z"/>
				<path style="fill-rule:evenodd;clip-rule:evenodd;fill:#7F6C4F;" d="M77.3,128.25l0.45-0.1c0.467,0.066,0.65,0.25,0.55,0.55
					c-0.1,0.133-0.283,0.149-0.55,0.05C77.45,128.616,77.3,128.45,77.3,128.25z"/>
				<path style="fill-rule:evenodd;clip-rule:evenodd;fill:#7F6C4F;" d="M81.05,127.05v0.05c0,0.167-0.05,0.25-0.15,0.25h-0.2
					c-0.567-0.066-0.867-0.116-0.9-0.149L81.05,127.05z"/>
				<path style="fill-rule:evenodd;clip-rule:evenodd;fill:#7F6C4F;" d="M82.8,127.25l1.3,0.05c0.5,0,0.65,0.066,0.45,0.2
					c0,0.033-0.066,0.05-0.2,0.05c-0.267,0-0.434,0.033-0.5,0.101l-0.5,0.1c-0.2-0.033-0.35,0-0.45,0.1
					c-0.167,0.167-0.35,0.284-0.55,0.351H82.1c-0.233,0.133-0.567,0.383-1,0.75l0.5-0.65c0.133-0.1,0.217-0.2,0.25-0.3v-0.1
					c0-0.101,0.033-0.15,0.1-0.15l0.2-0.25l0.05,0.1l0.1,0.101l0.1-0.101l0.05-0.1C82.517,127.434,82.633,127.35,82.8,127.25z"/>
				<path style="fill-rule:evenodd;clip-rule:evenodd;fill:#7F6C4F;" d="M81.5,129.15c-0.033,0.133-0.15,0.216-0.35,0.25l-0.4,0.149
					c0.1,0.267,0.1,0.517,0,0.75c-0.1,0.267-0.217,0.417-0.35,0.45c-0.2,0.066-0.4,0.033-0.6-0.1
					c-0.267-0.101-0.383-0.284-0.35-0.551l0.5-0.899c0-0.367,0.183-0.566,0.55-0.601c0.267-0.033,0.517,0,0.75,0.101l0.2,0.1
					C81.55,128.9,81.567,129.017,81.5,129.15z"/>
				<path style="fill-rule:evenodd;clip-rule:evenodd;fill:#7F6C4F;" d="M85.3,131.6c0.033,0.067,0.101,0.15,0.2,0.25
					c0.066,0,0.15,0.051,0.25,0.15c0.066,0.233,0.033,0.434-0.1,0.6l-0.101,0.15L85.4,132.8c-0.067-0.066-0.101-0.066-0.101,0
					l-0.1,0.101c-0.033,0.033-0.066,0.033-0.101,0H84.95L84.8,133l0.1,0.4l-0.05,0.149l0.1,0.95c-0.067-0.1-0.117-0.167-0.15-0.2
					c-0.033-0.066-0.083-0.1-0.15-0.1v0.25l-0.3-0.15c-0.233,0-0.367-0.017-0.4-0.05l-0.7-0.5l-0.5,0.05l-0.3-0.2
					c-0.2-0.1-0.3-0.199-0.3-0.3L82.1,133l0.05-0.4l0.65-0.399l0.55-0.7c0.1-0.066,0.333-0.1,0.7-0.1h0.15
					c-0.133-0.034-0.217-0.101-0.25-0.2c-0.1-0.033-0.15-0.134-0.15-0.3c0.034-0.101,0.133-0.233,0.3-0.4l0.4-0.1
					c0.133,0,0.3,0.133,0.5,0.399C85.167,131.134,85.267,131.4,85.3,131.6z"/>
				<path style="fill-rule:evenodd;clip-rule:evenodd;fill:#7F6C4F;" d="M88.2,131.1l0.3,0.15v0.2l0.2,0.399
					c0.033,0.2,0.033,0.367,0,0.5c-0.066-0.267-0.15-0.366-0.25-0.3l0.05,0.15c-0.1-0.134-0.217-0.233-0.35-0.3l-0.5-0.101
					c-0.233-0.066-0.367-0.184-0.4-0.35l0.05-0.05l0.05-0.101C87.45,131.066,87.733,131,88.2,131.1z"/>
				<path style="fill-rule:evenodd;clip-rule:evenodd;fill:#7F6C4F;" d="M87.6,129.6c0.101-0.066,0.184-0.066,0.25,0
					c0.167,0.134,0.284,0.334,0.351,0.601c-0.267-0.2-0.45-0.283-0.55-0.25H87.35c-0.133,0-0.233-0.084-0.3-0.25L87.6,129.6z"/>
				<path style="fill-rule:evenodd;clip-rule:evenodd;fill:#7F6C4F;" d="M88.05,129.3c0.334,0.066,0.483,0.233,0.45,0.5l-0.25-0.149
					c-0.1,0-0.15-0.034-0.15-0.101L88.05,129.3z"/>
				<path style="fill-rule:evenodd;clip-rule:evenodd;fill:#7F6C4F;" d="M89.35,130.45l-0.05,0.35v0.3H89.15v0.75l-0.051,0.4
					l-0.149,0.3c-0.066,0.066-0.15,0.084-0.25,0.05l-0.25-0.05c-0.101,0-0.15,0.05-0.15,0.15l-0.1,0.399l-0.15-0.25
					c-0.066-0.133-0.133-0.1-0.2,0.101l0.101-0.45c0.2-0.267,0.434-0.4,0.7-0.4c0.1,0,0.183-0.116,0.25-0.35l0.149-1.3
					c0.101-0.3,0.184-0.434,0.25-0.4C89.4,130.05,89.417,130.184,89.35,130.45z"/>
				<path style="fill-rule:evenodd;clip-rule:evenodd;fill:#7F6C4F;" d="M78.05,131.95L78.3,132c0.067,0.4,0,0.5-0.2,0.3
					C77.867,132.167,77.85,132.05,78.05,131.95z"/>
				<path style="fill-rule:evenodd;clip-rule:evenodd;fill:#7F6C4F;" d="M83.05,129.95l0.25-0.2c0.4,0,0.567,0.167,0.5,0.5
					c0,0.167-0.05,0.267-0.15,0.3h-0.3c-0.3-0.033-0.467-0.1-0.5-0.2l0.1-0.25L83.05,129.95z"/>
				<path style="fill-rule:evenodd;clip-rule:evenodd;fill:#9E968D;" d="M76.4,129.5c0.133-0.134,0.233-0.2,0.3-0.2
					c0.133-0.033,0.233-0.017,0.3,0.05l0.1,0.15v0.15l-0.2,0.399c-0.133,0.2-0.267,0.3-0.4,0.3c-0.167,0-0.25-0.149-0.25-0.449
					C76.25,129.733,76.3,129.6,76.4,129.5z"/>
				<path style="fill-rule:evenodd;clip-rule:evenodd;fill:#9E968D;" d="M83.7,130.4c0-0.167,0.066-0.301,0.2-0.4
					c0.033-0.134,0.15-0.2,0.35-0.2h0.25l0.05,0.101l0.1,0.149L84.5,129.9l-0.15-0.051L84.2,129.9l-0.1,0.25l-0.1,0.6v0.2l0.05,0.1
					c-0.133,0-0.233-0.1-0.3-0.3l-0.05-0.25V130.4z"/>
				<path style="fill-rule:evenodd;clip-rule:evenodd;fill:#BBB4A8;" d="M80.3,129.1l-0.15-0.05l-0.05,0.05
					c-0.133,0-0.25,0.067-0.35,0.2c-0.133,0.134-0.2,0.3-0.2,0.5l0.05,0.3l0.05,0.15l-0.05-0.05c-0.067-0.033-0.133-0.117-0.2-0.25
					l-0.05-0.25V129.6l0.2-0.55l0.4-0.2l0.2,0.101h0.05L80.3,129.1z M82.85,131.5l-0.1,0.2l-0.1,0.1
					c-0.033,0.101-0.117,0.15-0.25,0.15c-0.1,0-0.183-0.066-0.25-0.2v-0.2l0.05-0.25l0.05-0.05c0.067-0.1,0.15-0.15,0.25-0.15
					l0.2,0.051C82.8,131.217,82.85,131.333,82.85,131.5z"/>
				<path style="fill-rule:evenodd;clip-rule:evenodd;fill:#7D7970;" d="M80.65,129.55L80.6,130l-0.2,0.3
					c-0.1,0.101-0.267,0.15-0.5,0.15c-0.233-0.066-0.333-0.184-0.3-0.351c0.133,0,0.25-0.083,0.35-0.25l0.15-0.3l0.2-0.1h0.05
					l0.2-0.101L80.65,129.55z"/>
				<path style="fill-rule:evenodd;clip-rule:evenodd;fill:#7D7970;" d="M78.5,130.1c-0.1,0.067-0.233,0.067-0.4,0
					c-0.2-0.033-0.267-0.166-0.2-0.399l0.5-0.101l0.45-0.3h0.1l-0.2,0.5C78.717,129.934,78.633,130.033,78.5,130.1z"/>
				<path style="fill-rule:evenodd;clip-rule:evenodd;fill:#7D7970;" d="M76.85,129.65H76.7c0.066-0.101,0.167-0.134,0.3-0.101
					c-0.1,0.467-0.267,0.65-0.5,0.55C76.5,129.934,76.617,129.783,76.85,129.65z"/>
				<path style="fill-rule:evenodd;clip-rule:evenodd;fill:#BCA591;" d="M80.45,131.9c-0.1,0.1-0.184,0.066-0.25-0.101
					c-0.034-0.033-0.017-0.116,0.05-0.25c0.1-0.066,0.167-0.083,0.2-0.05c0.033,0.033,0.083,0.134,0.15,0.3
					c-0.033,0.2-0.083,0.267-0.15,0.2V131.9z"/>
				<path style="fill-rule:evenodd;clip-rule:evenodd;fill:#BCA591;" d="M78.05,131.8c0.067,0,0.117,0.033,0.15,0.101
					c0.033,0.033,0.033,0.1,0,0.199h-0.3C77.967,131.934,78.017,131.833,78.05,131.8z"/>
				<path style="fill-rule:evenodd;clip-rule:evenodd;fill:#7A674C;" d="M90.55,129.3c0.066,0.233-0.017,0.566-0.25,1
					c-0.066,0.167-0.217,0.3-0.45,0.4c-0.1,0.133-0.216,0.217-0.35,0.25S89.283,131,89.25,131c-0.066,0.033-0.134,0.116-0.2,0.25
					c-0.033,0.066-0.05,0.233-0.05,0.5c0,0.533-0.283,0.75-0.85,0.65c-0.101,0-0.25-0.067-0.45-0.2
					c-0.2-0.134-0.351-0.184-0.45-0.15v0.101c-0.1,0.033-0.217,0-0.35-0.101c-0.134-0.133-0.233-0.2-0.301-0.2
					c-0.133-0.033-0.383,0.051-0.75,0.25c-0.1,0.101-0.383,0.184-0.85,0.25c-0.033,0-0.117,0-0.25,0s-0.217,0.034-0.25,0.101
					c-0.033,0-0.083,0.083-0.15,0.25l-0.3,0.149l-0.25,0.25l-0.65,0.4c-0.066,0.033-0.2,0.033-0.4,0c-0.2,0-0.35,0.033-0.45,0.1
					l-2.15,1.301c-0.533,0.267-0.883,0.35-1.05,0.25c-0.133-0.134-0.2-0.334-0.2-0.601c0.133-0.166,0.2-0.366,0.2-0.6
					c-0.033-0.233-0.133-0.434-0.3-0.601c-0.2-0.233-0.483-0.35-0.85-0.35c-0.3,0-0.45-0.167-0.45-0.5c0-0.134,0.05-0.283,0.15-0.45
					c0.133-0.166,0.217-0.3,0.25-0.399c0.1-0.367,0-0.551-0.3-0.551c-0.133,0-0.3,0.101-0.5,0.301l-0.35,0.149
					c-0.133,0.033-0.333,0.25-0.6,0.65c-0.167,0.2-0.383,0.25-0.65,0.149c-0.333,0.2-0.567,0.301-0.7,0.301
					c-0.367,0-0.55-0.2-0.55-0.601c0.033-0.2,0.117-0.416,0.25-0.649c0.167-0.233,0.267-0.4,0.3-0.5l0.2-0.7
					c0.167-0.2,0.283-0.367,0.35-0.5c0.133-0.134,0.267-0.417,0.4-0.851c0.967-0.733,2.05-1.233,3.25-1.5l0.2-0.05
					c0.133,0.467,0.2,0.834,0.2,1.101c0.033,0.333,0.117,0.466,0.25,0.399c0.2-0.066,0.45-0.166,0.75-0.3
					c0.1-0.033,0.4-0.05,0.9-0.05l1.5-0.15c0.4,0,0.7-0.066,0.9-0.2c0.133-0.066,0.25-0.199,0.35-0.399
					c0.133-0.233,0.233-0.384,0.3-0.45l2.45,0.7c0.5,0.166,0.767,0.25,0.8,0.25c0.233,0.033,0.467-0.05,0.7-0.25
					c0.334-0.066,0.917,0.166,1.75,0.7C90.35,128.884,90.517,129.1,90.55,129.3z"/>
				<path style="fill-rule:evenodd;clip-rule:evenodd;fill:#7F6C4F;" d="M79,133.45h0.55c0.2,0,0.35,0.116,0.45,0.35l0.05,0.3
					l0.15,0.101l0.4,0.1h0.6c0.2,0.101,0.3,0.351,0.3,0.75c0.067,0.467-0.017,0.667-0.25,0.601l-0.05,0.25
					c-0.067,0-0.184-0.101-0.35-0.301l-0.3-0.35l-0.35-0.05h-0.35c-0.367-0.167-0.533-0.5-0.5-1c-0.267,0.033-0.45,0-0.55-0.101
					c-0.033-0.1-0.017-0.267,0.05-0.5c0.033-0.233,0.1-0.366,0.2-0.399L79,133.45z"/>
				<path style="fill-rule:evenodd;clip-rule:evenodd;fill:#78654B;" d="M73.6,131.45c0.1-0.066,0.15-0.084,0.15-0.05
					c0.033,0.033,0.033,0.166,0,0.399c0.067-0.033,0.15-0.149,0.25-0.35c-0.2,1.3-0.183,2.166,0.05,2.6l0.15,0.2l0.05,0.2
					c-0.3-0.2-0.567-0.467-0.8-0.8L72.9,132.6L73.6,131.45z"/>
			</g>
			<g>
				<g>
					
						<linearGradient id="SVGID_7_" gradientUnits="userSpaceOnUse" x1="-86.125" y1="-96" x2="-79.4746" y2="-96" gradientTransform="matrix(-1 0 0 -1 0 0)">
						<stop  offset="0.0039" style="stop-color:#ACAEB0"/>
						<stop  offset="0.2157" style="stop-color:#858689"/>
						<stop  offset="0.251" style="stop-color:#939597"/>
						<stop  offset="0.2588" style="stop-color:#96989A"/>
						<stop  offset="0.3137" style="stop-color:#B6B8B9"/>
						<stop  offset="0.3765" style="stop-color:#D1D2D2"/>
						<stop  offset="0.4431" style="stop-color:#E5E6E6"/>
						<stop  offset="0.5216" style="stop-color:#F4F4F4"/>
						<stop  offset="0.6118" style="stop-color:#FCFCFD"/>
						<stop  offset="0.7569" style="stop-color:#FFFFFF"/>
						<stop  offset="0.7843" style="stop-color:#CACACA"/>
						<stop  offset="1" style="stop-color:#BCBDBD"/>
					</linearGradient>
					<path style="fill-rule:evenodd;clip-rule:evenodd;fill:url(#SVGID_7_);" d="M86.15,64.85v62.3c0,0.466-0.25,0.699-0.75,0.699
						h-5.2c-0.467,0-0.7-0.233-0.7-0.699v-62.3c0-0.467,0.233-0.7,0.7-0.7h5.2C85.9,64.15,86.15,64.383,86.15,64.85z"/>
				</g>
				<g>
					<g>
						<g>
							<linearGradient id="SVGID_8_" gradientUnits="userSpaceOnUse" x1="78.1123" y1="80.3501" x2="86.5873" y2="80.3501">
								<stop  offset="0" style="stop-color:#87898B"/>
								<stop  offset="0.6549" style="stop-color:#757679"/>
								<stop  offset="1" style="stop-color:#B8BABD"/>
							</linearGradient>
							<rect x="78.1" y="79.45" style="fill-rule:evenodd;clip-rule:evenodd;fill:url(#SVGID_8_);" width="8.5" height="1.8"/>
							
								<linearGradient id="SVGID_9_" gradientUnits="userSpaceOnUse" x1="-86.5874" y1="-80" x2="-78.1124" y2="-80" gradientTransform="matrix(-1 0 0 -1 0 0)">
								<stop  offset="0" style="stop-color:#E2E3E3"/>
								<stop  offset="0.1922" style="stop-color:#979797"/>
								<stop  offset="0.2078" style="stop-color:#8B8B8C"/>
								<stop  offset="0.2588" style="stop-color:#A9A9AA"/>
								<stop  offset="0.3137" style="stop-color:#C4C4C4"/>
								<stop  offset="0.3765" style="stop-color:#D8D8D9"/>
								<stop  offset="0.4431" style="stop-color:#E7E7E7"/>
								<stop  offset="0.5255" style="stop-color:#EFEFEF"/>
								<stop  offset="0.6588" style="stop-color:#F2F2F2"/>
								<stop  offset="0.6824" style="stop-color:#C2C2C2"/>
								<stop  offset="0.8118" style="stop-color:#949494"/>
								<stop  offset="0.8392" style="stop-color:#868686"/>
								<stop  offset="0.9059" style="stop-color:#676767"/>
								<stop  offset="0.9451" style="stop-color:#5C5C5C"/>
							</linearGradient>
							<rect x="78.1" y="79.1" style="fill-rule:evenodd;clip-rule:evenodd;fill:url(#SVGID_9_);" width="8.5" height="1.8"/>
						</g>
						<g>
							<linearGradient id="SVGID_10_" gradientUnits="userSpaceOnUse" x1="78.1123" y1="85.6997" x2="86.5873" y2="85.6997">
								<stop  offset="0" style="stop-color:#87898B"/>
								<stop  offset="0.6549" style="stop-color:#757679"/>
								<stop  offset="1" style="stop-color:#B8BABD"/>
							</linearGradient>
							<rect x="78.1" y="84.8" style="fill-rule:evenodd;clip-rule:evenodd;fill:url(#SVGID_10_);" width="8.5" height="1.8"/>
							
								<linearGradient id="SVGID_11_" gradientUnits="userSpaceOnUse" x1="-86.5874" y1="-85.3501" x2="-78.1124" y2="-85.3501" gradientTransform="matrix(-1 0 0 -1 0 0)">
								<stop  offset="0" style="stop-color:#E2E3E3"/>
								<stop  offset="0.1922" style="stop-color:#979797"/>
								<stop  offset="0.2078" style="stop-color:#8B8B8C"/>
								<stop  offset="0.2588" style="stop-color:#A9A9AA"/>
								<stop  offset="0.3137" style="stop-color:#C4C4C4"/>
								<stop  offset="0.3765" style="stop-color:#D8D8D9"/>
								<stop  offset="0.4431" style="stop-color:#E7E7E7"/>
								<stop  offset="0.5255" style="stop-color:#EFEFEF"/>
								<stop  offset="0.6588" style="stop-color:#F2F2F2"/>
								<stop  offset="0.6824" style="stop-color:#C2C2C2"/>
								<stop  offset="0.8118" style="stop-color:#949494"/>
								<stop  offset="0.8392" style="stop-color:#868686"/>
								<stop  offset="0.9059" style="stop-color:#676767"/>
								<stop  offset="0.9451" style="stop-color:#5C5C5C"/>
							</linearGradient>
							<rect x="78.1" y="84.45" style="fill-rule:evenodd;clip-rule:evenodd;fill:url(#SVGID_11_);" width="8.5" height="1.8"/>
						</g>
					</g>
					<g>
						<g>
							<linearGradient id="SVGID_12_" gradientUnits="userSpaceOnUse" x1="87.4746" y1="69.25" x2="79.2241" y2="69.25">
								<stop  offset="0" style="stop-color:#87898B"/>
								<stop  offset="0.6549" style="stop-color:#757679"/>
								<stop  offset="1" style="stop-color:#B8BABD"/>
							</linearGradient>
							<rect x="79.25" y="68.35" style="fill-rule:evenodd;clip-rule:evenodd;fill:url(#SVGID_12_);" width="8.25" height="1.8"/>
							<linearGradient id="SVGID_13_" gradientUnits="userSpaceOnUse" x1="87.4746" y1="68.8999" x2="79.2241" y2="68.8999">
								<stop  offset="0" style="stop-color:#333333"/>
								<stop  offset="0.1647" style="stop-color:#9FA1A2"/>
								<stop  offset="0.302" style="stop-color:#858689"/>
								<stop  offset="0.3451" style="stop-color:#9E9E9E"/>
								<stop  offset="0.7765" style="stop-color:#F2F2F2"/>
								<stop  offset="0.7961" style="stop-color:#B8BABD"/>
								<stop  offset="0.8784" style="stop-color:#C2C3C6"/>
								<stop  offset="1" style="stop-color:#D9DBDC"/>
							</linearGradient>
							<rect x="79.25" y="68" style="fill-rule:evenodd;clip-rule:evenodd;fill:url(#SVGID_13_);" width="8.25" height="1.8"/>
						</g>
						<g>
							<linearGradient id="SVGID_14_" gradientUnits="userSpaceOnUse" x1="87.4746" y1="74.6001" x2="79.2241" y2="74.6001">
								<stop  offset="0" style="stop-color:#87898B"/>
								<stop  offset="0.6549" style="stop-color:#757679"/>
								<stop  offset="1" style="stop-color:#B8BABD"/>
							</linearGradient>
							<rect x="79.25" y="73.7" style="fill-rule:evenodd;clip-rule:evenodd;fill:url(#SVGID_14_);" width="8.25" height="1.8"/>
							<linearGradient id="SVGID_15_" gradientUnits="userSpaceOnUse" x1="87.4746" y1="74.25" x2="79.2241" y2="74.25">
								<stop  offset="0" style="stop-color:#333333"/>
								<stop  offset="0.1647" style="stop-color:#9FA1A2"/>
								<stop  offset="0.302" style="stop-color:#858689"/>
								<stop  offset="0.3451" style="stop-color:#9E9E9E"/>
								<stop  offset="0.7765" style="stop-color:#F2F2F2"/>
								<stop  offset="0.7961" style="stop-color:#B8BABD"/>
								<stop  offset="0.8784" style="stop-color:#C2C3C6"/>
								<stop  offset="1" style="stop-color:#D9DBDC"/>
							</linearGradient>
							<rect x="79.25" y="73.35" style="fill-rule:evenodd;clip-rule:evenodd;fill:url(#SVGID_15_);" width="8.25" height="1.8"/>
						</g>
					</g>
					<g>
						<g>
							<linearGradient id="SVGID_16_" gradientUnits="userSpaceOnUse" x1="87.4746" y1="90.8252" x2="79.2241" y2="90.8252">
								<stop  offset="0" style="stop-color:#87898B"/>
								<stop  offset="0.6549" style="stop-color:#757679"/>
								<stop  offset="1" style="stop-color:#B8BABD"/>
							</linearGradient>
							<rect x="79.25" y="89.95" style="fill-rule:evenodd;clip-rule:evenodd;fill:url(#SVGID_16_);" width="8.25" height="1.75"/>
							<linearGradient id="SVGID_17_" gradientUnits="userSpaceOnUse" x1="87.4746" y1="90.4746" x2="79.2241" y2="90.4746">
								<stop  offset="0" style="stop-color:#333333"/>
								<stop  offset="0.1647" style="stop-color:#9FA1A2"/>
								<stop  offset="0.302" style="stop-color:#858689"/>
								<stop  offset="0.3451" style="stop-color:#9E9E9E"/>
								<stop  offset="0.7765" style="stop-color:#F2F2F2"/>
								<stop  offset="0.7961" style="stop-color:#B8BABD"/>
								<stop  offset="0.8784" style="stop-color:#C2C3C6"/>
								<stop  offset="1" style="stop-color:#D9DBDC"/>
							</linearGradient>
							<rect x="79.25" y="89.6" style="fill-rule:evenodd;clip-rule:evenodd;fill:url(#SVGID_17_);" width="8.25" height="1.75"/>
						</g>
						<g>
							<linearGradient id="SVGID_18_" gradientUnits="userSpaceOnUse" x1="87.4746" y1="96.1494" x2="79.2241" y2="96.1494">
								<stop  offset="0" style="stop-color:#87898B"/>
								<stop  offset="0.6549" style="stop-color:#757679"/>
								<stop  offset="1" style="stop-color:#B8BABD"/>
							</linearGradient>
							<rect x="79.25" y="95.25" style="fill-rule:evenodd;clip-rule:evenodd;fill:url(#SVGID_18_);" width="8.25" height="1.8"/>
							<linearGradient id="SVGID_19_" gradientUnits="userSpaceOnUse" x1="87.4746" y1="95.8252" x2="79.2241" y2="95.8252">
								<stop  offset="0" style="stop-color:#333333"/>
								<stop  offset="0.1647" style="stop-color:#9FA1A2"/>
								<stop  offset="0.302" style="stop-color:#858689"/>
								<stop  offset="0.3451" style="stop-color:#9E9E9E"/>
								<stop  offset="0.7765" style="stop-color:#F2F2F2"/>
								<stop  offset="0.7961" style="stop-color:#B8BABD"/>
								<stop  offset="0.8784" style="stop-color:#C2C3C6"/>
								<stop  offset="1" style="stop-color:#D9DBDC"/>
							</linearGradient>
							<rect x="79.25" y="94.95" style="fill-rule:evenodd;clip-rule:evenodd;fill:url(#SVGID_19_);" width="8.25" height="1.75"/>
						</g>
					</g>
				</g>
				<g>
					<g>
						<g>
							
								<linearGradient id="SVGID_20_" gradientUnits="userSpaceOnUse" x1="76.1729" y1="-64.2441" x2="89.3926" y2="-64.2441" gradientTransform="matrix(7.561436e-005 1 -1 -0.001 -2.653523e-004 -4.429743e-005)">
								<stop  offset="0.3373" style="stop-color:#DEDFE0"/>
								<stop  offset="1" style="stop-color:#ADAFB1"/>
							</linearGradient>
							<path style="fill-rule:evenodd;clip-rule:evenodd;fill:url(#SVGID_20_);" d="M57.55,89.45c-0.966,0-1.767-0.316-2.4-0.95
								l-5-4.7c-0.267-0.233-0.4-0.55-0.4-0.95c0-0.367,0.133-0.684,0.4-0.95l5-4.7c0.267-0.267,0.65-0.5,1.15-0.7
								c0.434-0.167,0.85-0.25,1.25-0.25H77.3c0.4,0,0.75,0.133,1.05,0.4c0.267,0.267,0.4,0.6,0.4,1v10.4c0,0.4-0.133,0.733-0.4,1
								c-0.3,0.267-0.65,0.4-1.05,0.4H57.55z"/>
							
								<linearGradient id="SVGID_21_" gradientUnits="userSpaceOnUse" x1="-77.7998" y1="-82.8496" x2="-50.7002" y2="-82.8496" gradientTransform="matrix(-1 0 0 -1 0 0)">
								<stop  offset="0.9647" style="stop-color:#DEDFE0"/>
								<stop  offset="1" style="stop-color:#ADAFB1"/>
							</linearGradient>
							<path style="fill-rule:evenodd;clip-rule:evenodd;fill:url(#SVGID_21_);" d="M57.55,77.15H77.3c0.333,0,0.5,0.167,0.5,0.5
								v10.4c0,0.334-0.167,0.5-0.5,0.5H57.55c-0.267,0-0.583-0.066-0.95-0.2c-0.367-0.166-0.633-0.35-0.8-0.55l-5-4.65
								c-0.066-0.066-0.1-0.167-0.1-0.3s0.033-0.233,0.1-0.3l5-4.65c0.167-0.2,0.434-0.367,0.8-0.5
								C56.967,77.233,57.283,77.15,57.55,77.15z"/>
						</g>
						
							<linearGradient id="SVGID_22_" gradientUnits="userSpaceOnUse" x1="77.123" y1="-64.2378" x2="83.348" y2="-64.2378" gradientTransform="matrix(1.606426e-004 1 -1 -0.001 -3.843616e-004 -4.524109e-005)">
							<stop  offset="0" style="stop-color:#F4F4F4"/>
							<stop  offset="1" style="stop-color:#ECECEC"/>
						</linearGradient>
						<path style="fill-rule:evenodd;clip-rule:evenodd;fill:url(#SVGID_22_);" d="M57.55,78.25c-0.267,0-0.583,0.083-0.95,0.25
							c-0.367,0.133-0.633,0.3-0.8,0.5l-4.7,4.4l-0.3-0.25c-0.066-0.066-0.1-0.167-0.1-0.3s0.033-0.233,0.1-0.3l5-4.65
							c0.167-0.2,0.434-0.367,0.8-0.5c0.367-0.167,0.683-0.25,0.95-0.25H77.3c0.333,0,0.5,0.167,0.5,0.5v1.075
							c-0.01-0.317-0.177-0.475-0.5-0.475H57.55z"/>
					</g>
					<g>
						<linearGradient id="SVGID_23_" gradientUnits="userSpaceOnUse" x1="101.375" y1="78.3501" x2="101.375" y2="65.1251">
							<stop  offset="0.3373" style="stop-color:#DEDFE0"/>
							<stop  offset="1" style="stop-color:#ADAFB1"/>
						</linearGradient>
						<path style="fill-rule:evenodd;clip-rule:evenodd;fill:url(#SVGID_23_);" d="M108.05,65.15c0.934,0,1.75,0.317,2.45,0.95
							l4.95,4.7c0.267,0.267,0.399,0.583,0.399,0.95c0,0.4-0.133,0.717-0.399,0.95l-4.95,4.7c-0.7,0.633-1.517,0.95-2.45,0.95H88.3
							c-0.399,0-0.733-0.133-1-0.4c-0.267-0.267-0.399-0.6-0.399-1v-10.4c0-0.4,0.133-0.733,0.399-1c0.267-0.267,0.601-0.4,1-0.4
							H108.05z"/>
						<linearGradient id="SVGID_24_" gradientUnits="userSpaceOnUse" x1="87.8496" y1="71.75" x2="114.9502" y2="71.75">
							<stop  offset="0.9647" style="stop-color:#DEDFE0"/>
							<stop  offset="1" style="stop-color:#ADAFB1"/>
						</linearGradient>
						<path style="fill-rule:evenodd;clip-rule:evenodd;fill:url(#SVGID_24_);" d="M87.85,66.55c0-0.333,0.15-0.5,0.45-0.5h19.75
							c0.7,0,1.3,0.25,1.8,0.75l4.95,4.65l0.15,0.3l-0.15,0.3l-4.95,4.65c-0.5,0.5-1.1,0.75-1.8,0.75H88.3
							c-0.3,0-0.45-0.167-0.45-0.5V66.55z"/>
						
							<linearGradient id="SVGID_25_" gradientUnits="userSpaceOnUse" x1="65.9863" y1="-101.3896" x2="72.2113" y2="-101.3896" gradientTransform="matrix(1.606426e-004 1 -1 -0.001 -3.843616e-004 -4.524109e-005)">
							<stop  offset="0" style="stop-color:#F4F4F4"/>
							<stop  offset="1" style="stop-color:#ECECEC"/>
						</linearGradient>
						<path style="fill-rule:evenodd;clip-rule:evenodd;fill:url(#SVGID_25_);" d="M87.85,67.625V66.55c0-0.333,0.15-0.5,0.45-0.5
							h19.75c0.7,0,1.3,0.25,1.8,0.75l4.95,4.65l0.15,0.3l-0.15,0.3l-0.3,0.25l-4.65-4.4c-0.533-0.467-1.133-0.7-1.8-0.7H88.3
							C88.01,67.2,87.859,67.342,87.85,67.625z"/>
					</g>
					<g>
						<linearGradient id="SVGID_26_" gradientUnits="userSpaceOnUse" x1="101.375" y1="99.9502" x2="101.375" y2="86.7252">
							<stop  offset="0.3373" style="stop-color:#DEDFE0"/>
							<stop  offset="1" style="stop-color:#ADAFB1"/>
						</linearGradient>
						<path style="fill-rule:evenodd;clip-rule:evenodd;fill:url(#SVGID_26_);" d="M110.5,98.95c-0.733,0.666-1.55,1-2.45,1H88.3
							c-0.399,0-0.733-0.134-1-0.4c-0.267-0.3-0.399-0.633-0.399-1V88.1c0-0.366,0.133-0.699,0.399-1
							c0.267-0.267,0.601-0.399,1-0.399h19.75c0.9,0,1.717,0.333,2.45,1l4.95,4.649c0.267,0.267,0.399,0.601,0.399,1
							c0,0.367-0.133,0.684-0.399,0.95L110.5,98.95z"/>
						<linearGradient id="SVGID_27_" gradientUnits="userSpaceOnUse" x1="87.8496" y1="93.3252" x2="114.9502" y2="93.3252">
							<stop  offset="0.9647" style="stop-color:#DEDFE0"/>
							<stop  offset="1" style="stop-color:#ADAFB1"/>
						</linearGradient>
						<path style="fill-rule:evenodd;clip-rule:evenodd;fill:url(#SVGID_27_);" d="M109.85,88.35l4.95,4.7l0.15,0.3l-0.15,0.25
							l-4.95,4.7c-0.533,0.467-1.133,0.7-1.8,0.7H88.3c-0.3,0-0.45-0.15-0.45-0.45V88.1c0-0.3,0.15-0.449,0.45-0.449h19.75
							C108.717,87.65,109.316,87.884,109.85,88.35z"/>
						
							<linearGradient id="SVGID_28_" gradientUnits="userSpaceOnUse" x1="87.542" y1="-101.3857" x2="93.767" y2="-101.3857" gradientTransform="matrix(1.606426e-004 1 -1 -0.001 -3.843616e-004 -4.524109e-005)">
							<stop  offset="0" style="stop-color:#F4F4F4"/>
							<stop  offset="1" style="stop-color:#ECECEC"/>
						</linearGradient>
						<path style="fill-rule:evenodd;clip-rule:evenodd;fill:url(#SVGID_28_);" d="M109.85,88.35l4.95,4.7l0.15,0.3l-0.15,0.25
							l-0.3,0.301l-4.65-4.4c-0.5-0.5-1.1-0.75-1.8-0.75H88.3c-0.29,0-0.44,0.158-0.45,0.475V88.1c0-0.3,0.15-0.449,0.45-0.449
							h19.75C108.717,87.65,109.316,87.884,109.85,88.35z"/>
					</g>
				</g>
			</g>
			<path style="fill-rule:evenodd;clip-rule:evenodd;fill:#8A8C4B;" d="M87.15,121.55l0.199-0.05c0.101,0.033,0.084,0.217-0.05,0.55
				c-0.066,0.2-0.149,0.417-0.25,0.65c-0.267,0.633-0.467,1.25-0.6,1.85l-0.25,1.601v0.899c-0.033,0.2-0.033,0.367,0,0.5v0.5
				l-0.05,0.101H86c-0.1,0.066-0.2-0.034-0.3-0.301v0.25l-0.05,0.101l-0.101,0.05c-0.233,0-0.383-0.1-0.45-0.3l-0.2,0.149
				c-0.333,0-0.5-0.399-0.5-1.199v-1.25l0.2-1.301c0.233-0.633,0.433-1.066,0.6-1.3c0.1,0.2,0.1,0.601,0,1.2v0.05l0.3-1.05
				c0.1-0.3,0.184-0.533,0.25-0.7c0.134-0.333,0.283-0.533,0.45-0.6c0.1,0.166,0.083,0.533-0.05,1.1c-0.067,0.3-0.15,0.65-0.25,1.05
				l-0.25,1.551c-0.067,0.333-0.101,0.733-0.101,1.199l0.075,0.426c-0.017-0.151-0.025-0.376-0.025-0.676
				c0-0.699,0.101-1.399,0.301-2.1c0.1-0.5,0.283-1.05,0.55-1.65l0.399-0.949L87.15,121.55z"/>
			<path style="fill-rule:evenodd;clip-rule:evenodd;fill:#8A8C4B;" d="M80,128.5c-0.367-0.033-0.65-0.217-0.85-0.55l-0.05-0.101
				c0.066-0.366,0.1-0.649,0.1-0.85c0-0.434-0.083-0.783-0.25-1.05c-0.2-0.3-0.483-0.483-0.85-0.55l-0.5-0.15
				c-0.167-0.066-0.167-0.116,0-0.15c1-0.1,1.816,0.167,2.45,0.801c0.2,0.233,0.317,0.416,0.35,0.55
				c0.133-0.767-0.033-1.617-0.5-2.55l-1.05-2.4c0.7,0.366,1.333,1.25,1.9,2.65c0.333,0.833,0.5,1.649,0.5,2.449v0.45l0.1,0.45
				c0.133,0.366,0.083,0.583-0.15,0.65c-0.197,0.032-0.297-0.093-0.3-0.375c-0.004,0.219-0.104,0.394-0.3,0.524
				C80.467,128.434,80.267,128.5,80,128.5z"/>
			<path style="fill-rule:evenodd;clip-rule:evenodd;fill:#A3A25B;" d="M83.95,129.25c0-0.066,0-0.35,0-0.85
				c0.1-0.667,0.283-1.367,0.55-2.101c0.5-1.333,1.116-2.217,1.85-2.649l-1.05,2.399c-0.433,1-0.566,2.066-0.4,3.2
				c0.033,0.134,0.1,0.35,0.2,0.65c-0.033,0.133-0.133,0.199-0.3,0.199c-0.167-0.033-0.3-0.083-0.4-0.149
				C84.167,129.816,84.017,129.583,83.95,129.25z"/>
			<path style="fill-rule:evenodd;clip-rule:evenodd;fill:#A3A25B;" d="M79.6,123.25c0.267,0.134,0.566,0.684,0.9,1.65
				c0.233,0.533,0.4,1.149,0.5,1.85c0.143,0.658,0.201,1.316,0.175,1.975l0.025-0.175c0.033-0.2,0.017-0.616-0.05-1.25l-0.25-1.55
				c-0.1-0.4-0.183-0.75-0.25-1.05c-0.133-0.566-0.167-0.934-0.1-1.101c0.267,0.101,0.5,0.551,0.7,1.351l0.35,1v-0.05
				c-0.1-0.634-0.117-1.034-0.05-1.2h0.05c0.267,0.434,0.45,0.866,0.55,1.3c0.133,0.533,0.2,0.967,0.2,1.3v1.25
				c0,0.8-0.167,1.2-0.5,1.2l-0.15-0.15c-0.1,0.2-0.25,0.301-0.45,0.301l-0.1-0.051l-0.05-0.1l-0.05-0.25
				c-0.033,0.267-0.133,0.366-0.3,0.3h-0.1l-0.05-0.1c0.066-1.434-0.067-2.733-0.4-3.9c-0.2-0.899-0.434-1.583-0.7-2.05
				c-0.1-0.1-0.183-0.217-0.25-0.35c-0.067-0.167,0-0.233,0.2-0.2L79.6,123.25z"/>
			<path style="fill-rule:evenodd;clip-rule:evenodd;fill:#A3A25B;" d="M87.65,122.75c0.166-0.033,0.216,0.033,0.149,0.2
				c-0.033,0.066-0.1,0.184-0.2,0.35c-0.199,0.367-0.449,1.05-0.75,2.05c-0.333,1.367-0.449,2.667-0.35,3.9l-0.05,0.1
				c-0.334,0.101-0.5-0.149-0.5-0.75c-0.066-0.5-0.033-1.267,0.1-2.3c0.2-0.8,0.384-1.416,0.55-1.85
				c0.301-0.934,0.601-1.483,0.9-1.65L87.65,122.75z"/>
			<g>
				<path style="fill-rule:evenodd;clip-rule:evenodd;fill:#5D4C37;" d="M79.3,128.4c0.267,0.166,0.317,0.316,0.15,0.449
					c-0.133,0.067-0.317,0.101-0.55,0.101h-0.35l-0.25-0.101h-0.85c-0.367-0.133-0.534-0.267-0.5-0.399
					c0-0.033,0.183-0.134,0.55-0.3l-0.2,0.1C78.267,128.083,78.933,128.134,79.3,128.4z"/>
				<path style="fill-rule:evenodd;clip-rule:evenodd;fill:#5D4C37;" d="M81.6,131c-0.233-0.134-0.5-0.2-0.8-0.2
					c-0.733,0-1.133-0.116-1.2-0.35c-0.047-0.189,0.019-0.331,0.2-0.425c0.182-0.25,0.615-0.375,1.3-0.375
					c0.566,0,1.45,0.083,2.65,0.25c0.133,0.033,0.4,0.033,0.8,0c0.333,0,0.566,0.066,0.7,0.199c0.134,0.134,0.134,0.25,0,0.351
					c-0.1,0.033-0.25,0.083-0.45,0.149c-0.3,0.167-0.533,0.284-0.7,0.351c-0.3,0.133-0.684,0.2-1.15,0.2
					C82.35,131.15,81.9,131.1,81.6,131z"/>
				<g>
					<path style="fill-rule:evenodd;clip-rule:evenodd;fill:#9E968D;" d="M78.75,126.75l0.7,0.1c0.333,0.067,0.5,0.217,0.5,0.45
						l-0.15,0.75c-0.167,0.367-0.517,0.55-1.05,0.55c-0.967,0.067-1.433-0.233-1.4-0.899c0-0.3,0.167-0.566,0.5-0.8
						C78.15,126.8,78.45,126.75,78.75,126.75z"/>
					<path style="fill-rule:evenodd;clip-rule:evenodd;fill:#86827A;" d="M79.85,127.35l0.05,0.301c0.1,0.5,0,0.833-0.3,1
						c0,0.066-0.15,0.1-0.45,0.1l-0.5-0.1c-0.467-0.267-0.433-0.534,0.1-0.801C79.083,127.65,79.45,127.483,79.85,127.35z"/>
					<g>
						<path style="fill-rule:evenodd;clip-rule:evenodd;fill:#B4A99E;" d="M81.55,127.8l-0.6,0.2c0.267-0.3,0.9-0.45,1.9-0.45
							c1.033,0,1.667,0.117,1.9,0.351c0.3,0.267,0.45,0.649,0.45,1.149s-0.184,0.884-0.55,1.15c-0.267,0.3-1.017,0.416-2.25,0.35
							c-1.167,0-1.917-0.116-2.25-0.35c-0.633-0.467-0.7-0.95-0.2-1.45C80.483,128.35,81.017,128.033,81.55,127.8z"/>
						<path style="fill-rule:evenodd;clip-rule:evenodd;fill:#9E968D;" d="M81.95,129.7c0.4-0.2,1.083-0.351,2.05-0.45
							c0.233-0.066,0.467-0.283,0.7-0.65l-0.1-0.3c0.7-0.1,0.883,0.367,0.55,1.4c-0.101,0.399-0.234,0.649-0.4,0.75
							c-0.033,0.033-0.35,0.05-0.95,0.05l-2,0.05c-0.833,0-1.466-0.116-1.9-0.35C80.167,130.033,80.85,129.866,81.95,129.7z"/>
					</g>
				</g>
			</g>
		</g>
	</g>
	<g>
		<g>
			<g>
				<g>
					<g>
						<g>
							<g>
								
									<linearGradient id="SVGID_29_" gradientUnits="userSpaceOnUse" x1="-22.6147" y1="80.4053" x2="-6.4024" y2="80.4053" gradientTransform="matrix(0.4564 -0.8898 0.8898 0.4564 3.211200e-004 -4.506707e-004)">
									<stop  offset="0.3569" style="stop-color:#698424"/>
									<stop  offset="0.4627" style="stop-color:#7B9E33"/>
									<stop  offset="0.6314" style="stop-color:#9DCF52"/>
									<stop  offset="0.9647" style="stop-color:#DAE772"/>
								</linearGradient>
								<path style="fill-rule:evenodd;clip-rule:evenodd;fill:url(#SVGID_29_);" d="M69.25,54.75L68.9,55.9
									c-0.233,0.6-0.566,1.1-1,1.5c-0.566,0.567-1.25,0.9-2.05,1l-0.6,0.05c-0.533,0-1.067-0.133-1.6-0.4
									c-0.533-0.267-1-0.683-1.4-1.25l-0.7-1H60.3c-0.7-0.033-1.35-0.233-1.95-0.6c-0.6-0.4-1.05-0.917-1.35-1.55
									c-0.667-1.433-0.517-2.733,0.45-3.9l0.75-1l-0.4-1.15c-0.2-0.667-0.2-1.35,0-2.05c0.167-0.7,0.5-1.283,1-1.75
									c0.7-0.7,1.6-1.05,2.7-1.05c0.367,0,0.75,0.083,1.15,0.25l1.15,0.4l1-0.7c0.667-0.467,1.417-0.7,2.25-0.7
									c0.567,0,1.117,0.133,1.65,0.4l0.05,0.05c1.367,0.767,2.017,1.917,1.95,3.45l-0.05,1.2l1,0.7
									c0.567,0.434,0.983,0.983,1.25,1.65c0.267,0.667,0.333,1.35,0.2,2.05c-0.167,0.8-0.533,1.483-1.1,2.05
									c-0.467,0.4-0.983,0.684-1.55,0.85L69.25,54.75z"/>
								<path style="fill-rule:evenodd;clip-rule:evenodd;fill:none;stroke:#DFF39B;stroke-width:0.25;" d="M69.25,54.75L68.9,55.9
									c-0.233,0.6-0.566,1.1-1,1.5c-0.566,0.567-1.25,0.9-2.05,1l-0.6,0.05c-0.533,0-1.067-0.133-1.6-0.4
									c-0.533-0.267-1-0.683-1.4-1.25l-0.7-1H60.3c-0.7-0.033-1.35-0.233-1.95-0.6c-0.6-0.4-1.05-0.917-1.35-1.55
									c-0.667-1.433-0.517-2.733,0.45-3.9l0.75-1l-0.4-1.15c-0.2-0.667-0.2-1.35,0-2.05c0.167-0.7,0.5-1.283,1-1.75
									c0.7-0.7,1.6-1.05,2.7-1.05c0.367,0,0.75,0.083,1.15,0.25l1.15,0.4l1-0.7c0.667-0.467,1.417-0.7,2.25-0.7
									c0.567,0,1.117,0.133,1.65,0.4l0.05,0.05c1.367,0.767,2.017,1.917,1.95,3.45l-0.05,1.2l1,0.7
									c0.567,0.434,0.983,0.983,1.25,1.65c0.267,0.667,0.333,1.35,0.2,2.05c-0.167,0.8-0.533,1.483-1.1,2.05
									c-0.467,0.4-0.983,0.684-1.55,0.85L69.25,54.75z"/>
							</g>
						</g>
						<path style="fill-rule:evenodd;clip-rule:evenodd;fill:#22480E;" d="M70.35,49.55c0.533,0.367,0.75,0.883,0.65,1.55
							c-0.033,0.3-0.2,0.6-0.5,0.9c-0.167,0.2-0.383,0.317-0.65,0.35L67.6,53l-0.75,2.2c-0.033,0.267-0.167,0.5-0.4,0.7
							c-0.267,0.233-0.567,0.367-0.9,0.4c-0.633,0.1-1.15-0.133-1.55-0.7l-1.3-1.95h-2.35c-0.633,0-1.117-0.3-1.45-0.9
							c-0.267-0.6-0.2-1.167,0.2-1.7l1.45-1.85l-0.7-2.25c-0.2-0.6-0.067-1.133,0.4-1.6c0.5-0.5,1.067-0.617,1.7-0.35l2.2,0.8
							l1.9-1.35c0.534-0.4,1.1-0.434,1.7-0.1c0.567,0.267,0.85,0.75,0.85,1.45l-0.1,2.35L70.35,49.55z"/>
						
							<linearGradient id="SVGID_30_" gradientUnits="userSpaceOnUse" x1="-19.7031" y1="80.3916" x2="-9.2466" y2="80.3916" gradientTransform="matrix(0.4568 -0.8896 0.8896 0.4568 2.671778e-004 -3.458261e-004)">
							<stop  offset="0.0235" style="stop-color:#808080"/>
							<stop  offset="0.7294" style="stop-color:#E6E6E6"/>
							<stop  offset="1" style="stop-color:#B3B3B3"/>
						</linearGradient>
						<path style="fill-rule:evenodd;clip-rule:evenodd;fill:url(#SVGID_30_);" d="M69.9,50.15c0.3,0.2,0.417,0.483,0.35,0.85
							c-0.067,0.2-0.15,0.35-0.25,0.45l-0.35,0.2L67,52.4L66.15,55l-0.2,0.35c-0.2,0.133-0.367,0.2-0.5,0.2
							c-0.333,0.067-0.617-0.05-0.85-0.35l-1.5-2.25l-2.75-0.05c-0.333,0-0.583-0.167-0.75-0.5c-0.167-0.333-0.133-0.633,0.1-0.9
							l1.7-2.15l-0.85-2.6c-0.1-0.333-0.017-0.633,0.25-0.9c0.3-0.233,0.6-0.283,0.9-0.15l2.55,0.9l2.2-1.55
							c0.3-0.2,0.617-0.216,0.95-0.05c0.3,0.167,0.45,0.417,0.45,0.75l-0.1,2.75L69.9,50.15z"/>
						<path style="fill-rule:evenodd;clip-rule:evenodd;fill:#FFFFFF;" d="M69.9,50.15c0.3,0.2,0.417,0.483,0.35,0.85
							c-0.067,0.2-0.15,0.35-0.25,0.45l-0.35,0.2l0.1-0.3c0.067-0.367-0.05-0.633-0.35-0.8l-2.2-1.65l0.1-2.75
							c0.067-0.3-0.083-0.566-0.45-0.8c-0.267-0.167-0.567-0.133-0.9,0.1L63.75,47l-2.6-0.9c-0.133-0.1-0.283-0.117-0.45-0.05
							l0.1-0.2c0.3-0.233,0.6-0.283,0.9-0.15l2.55,0.9l2.2-1.55c0.3-0.2,0.617-0.216,0.95-0.05c0.3,0.167,0.45,0.417,0.45,0.75
							l-0.1,2.75L69.9,50.15z"/>
					</g>
				</g>
			</g>
		</g>
		<g>
			<g>
				<g>
					<g>
						<g>
							<g>
								<linearGradient id="SVGID_31_" gradientUnits="userSpaceOnUse" x1="102.9922" y1="42.3765" x2="110.3922" y2="56.8015">
									<stop  offset="0.3569" style="stop-color:#698424"/>
									<stop  offset="0.4627" style="stop-color:#7B9E33"/>
									<stop  offset="0.6314" style="stop-color:#9DCF52"/>
									<stop  offset="0.9647" style="stop-color:#DAE772"/>
								</linearGradient>
								<path style="fill-rule:evenodd;clip-rule:evenodd;fill:url(#SVGID_31_);" d="M108.95,43c0.434-0.167,0.833-0.25,1.2-0.25
									c1.066,0,1.949,0.35,2.649,1.05c0.533,0.467,0.884,1.05,1.05,1.75c0.2,0.7,0.184,1.383-0.05,2.05l-0.35,1.15l0.75,1
									c0.967,1.2,1.1,2.5,0.399,3.9c-0.3,0.633-0.733,1.15-1.3,1.55c-0.6,0.367-1.25,0.566-1.95,0.6h-1.3l-0.649,1
									c-0.367,0.534-0.834,0.95-1.4,1.25c-0.533,0.267-1.083,0.4-1.65,0.4l-0.55-0.05c-0.833-0.1-1.533-0.433-2.1-1
									c-0.467-0.433-0.783-0.933-0.95-1.5l-0.4-1.15L101.2,54.4c-0.634-0.167-1.15-0.45-1.55-0.85c-0.634-0.566-1-1.25-1.101-2.05
									c-0.133-0.7-0.066-1.383,0.2-2.05c0.267-0.667,0.684-1.217,1.25-1.65l0.95-0.7l-0.05-1.2
									c-0.067-1.533,0.583-2.683,1.949-3.45l0.101-0.05c0.533-0.267,1.066-0.4,1.6-0.4c0.834,0,1.584,0.233,2.25,0.7l1,0.7
									L108.95,43z"/>
								<path style="fill-rule:evenodd;clip-rule:evenodd;fill:none;stroke:#DFF39B;stroke-width:0.25;" d="M108.95,43
									c0.434-0.167,0.833-0.25,1.2-0.25c1.066,0,1.949,0.35,2.649,1.05c0.533,0.467,0.884,1.05,1.05,1.75
									c0.2,0.7,0.184,1.383-0.05,2.05l-0.35,1.15l0.75,1c0.967,1.2,1.1,2.5,0.399,3.9c-0.3,0.633-0.733,1.15-1.3,1.55
									c-0.6,0.367-1.25,0.566-1.95,0.6h-1.3l-0.649,1c-0.367,0.534-0.834,0.95-1.4,1.25c-0.533,0.267-1.083,0.4-1.65,0.4
									l-0.55-0.05c-0.833-0.1-1.533-0.433-2.1-1c-0.467-0.433-0.783-0.933-0.95-1.5l-0.4-1.15L101.2,54.4
									c-0.634-0.167-1.15-0.45-1.55-0.85c-0.634-0.566-1-1.25-1.101-2.05c-0.133-0.7-0.066-1.383,0.2-2.05
									c0.267-0.667,0.684-1.217,1.25-1.65l0.95-0.7l-0.05-1.2c-0.067-1.533,0.583-2.683,1.949-3.45l0.101-0.05
									c0.533-0.267,1.066-0.4,1.6-0.4c0.834,0,1.584,0.233,2.25,0.7l1,0.7L108.95,43z"/>
							</g>
						</g>
						<path style="fill-rule:evenodd;clip-rule:evenodd;fill:#22480E;" d="M105.6,44.45l1.9,1.35l2.2-0.8
							c0.6-0.267,1.149-0.15,1.649,0.35c0.5,0.433,0.634,0.967,0.4,1.6l-0.65,2.25l1.4,1.85c0.4,0.534,0.467,1.1,0.2,1.7
							s-0.733,0.9-1.4,0.9h-2.35l-1.3,1.95c-0.4,0.566-0.934,0.8-1.601,0.7c-0.366-0.066-0.649-0.2-0.85-0.4
							c-0.2-0.2-0.351-0.433-0.45-0.7L104,53l-2.25-0.65c-0.167-0.033-0.384-0.15-0.65-0.35c-0.233-0.233-0.399-0.533-0.5-0.9
							c-0.1-0.667,0.117-1.184,0.65-1.55l1.85-1.4l-0.05-2.35c-0.066-0.667,0.217-1.15,0.851-1.45
							C104.467,44.017,105.033,44.05,105.6,44.45z"/>
						<linearGradient id="SVGID_32_" gradientUnits="userSpaceOnUse" x1="111.3535" y1="52.0054" x2="101.8285" y2="47.6804">
							<stop  offset="0.0235" style="stop-color:#808080"/>
							<stop  offset="0.7294" style="stop-color:#E6E6E6"/>
							<stop  offset="1" style="stop-color:#B3B3B3"/>
						</linearGradient>
						<path style="fill-rule:evenodd;clip-rule:evenodd;fill:url(#SVGID_32_);" d="M105.15,45.05l2.199,1.55l2.601-0.9
							c0.3-0.133,0.6-0.083,0.899,0.15c0.233,0.3,0.301,0.6,0.2,0.9l-0.8,2.6l1.65,2.15c0.233,0.233,0.267,0.533,0.1,0.9
							c-0.1,0.333-0.35,0.5-0.75,0.5l-2.75,0.05L107,55.2c-0.233,0.267-0.517,0.383-0.85,0.35c-0.167,0-0.317-0.066-0.45-0.2
							L105.45,55l-0.851-2.6l-2.649-0.75l-0.351-0.2L101.35,51c-0.033-0.333,0.084-0.617,0.351-0.85l2.2-1.65l-0.101-2.75
							c0-0.333,0.15-0.583,0.45-0.75C104.583,44.833,104.884,44.85,105.15,45.05z"/>
						<path style="fill-rule:evenodd;clip-rule:evenodd;fill:#FFFFFF;" d="M105.15,45.05l2.199,1.55l2.601-0.9
							c0.3-0.133,0.6-0.083,0.899,0.15l0.101,0.2c-0.2-0.066-0.367-0.05-0.5,0.05L107.9,47l-2.25-1.55
							c-0.267-0.233-0.567-0.267-0.9-0.1c-0.3,0.2-0.45,0.467-0.45,0.8l0.101,2.75l-2.2,1.65c-0.3,0.2-0.4,0.467-0.3,0.8l0.1,0.3
							h-0.05l-0.351-0.2L101.35,51c-0.033-0.333,0.084-0.617,0.351-0.85l2.2-1.65l-0.101-2.75c0-0.333,0.15-0.583,0.45-0.75
							C104.583,44.833,104.884,44.85,105.15,45.05z"/>
					</g>
				</g>
			</g>
		</g>
	</g>
</g>
</svg>
