<?xml version="1.0" encoding="iso-8859-1"?>
<!-- Generator: Adobe Illustrator 15.1.0, SVG Export Plug-In . SVG Version: 6.00 Build 0)  -->
<!DOCTYPE svg PUBLIC "-//W3C//DTD SVG 1.1//EN" "http://www.w3.org/Graphics/SVG/1.1/DTD/svg11.dtd">
<svg version="1.1" xmlns="http://www.w3.org/2000/svg" xmlns:xlink="http://www.w3.org/1999/xlink" x="0px" y="0px" width="172.4px"
	 height="172.4px" viewBox="0 0 172.4 172.4" style="enable-background:new 0 0 172.4 172.4;" xml:space="preserve">
<symbol  id="BG_x2F_bg_teal" viewBox="0 -134.05 134 134.05">
	<g id="Layer_1_28_">
		<g>
			<g>
				
					<linearGradient id="SVGID_1_" gradientUnits="userSpaceOnUse" x1="16085.8398" y1="-65.9648" x2="16218.1895" y2="-65.9648" gradientTransform="matrix(7.555724e-006 1 -1 -0.001 0.939 -16219.1055)">
					<stop  offset="0.0745" style="stop-color:#435250"/>
					<stop  offset="0.1922" style="stop-color:#536B66"/>
					<stop  offset="0.4431" style="stop-color:#7DAA9D"/>
					<stop  offset="0.4784" style="stop-color:#84B4A6"/>
					<stop  offset="0.9216" style="stop-color:#DDD1B7"/>
				</linearGradient>
				<path style="fill-rule:evenodd;clip-rule:evenodd;fill:url(#SVGID_1_);" d="M20.25-20.25C33.184-7.316,48.767-0.85,67-0.85
					c18.233,0,33.833-6.467,46.8-19.4c12.933-12.933,19.4-28.517,19.4-46.75c0-18.267-6.467-33.866-19.4-46.8S85.267-133.2,67-133.2
					c-18.233,0-33.817,6.466-46.75,19.4S0.851-85.267,0.851-67C0.851-48.767,7.317-33.183,20.25-20.25z"/>
				<path style="fill-rule:evenodd;clip-rule:evenodd;fill:#233230;" d="M132.35-67c0,18.033-6.383,33.433-19.15,46.2
					C100.467-8.033,85.067-1.65,67-1.65c-18.033,0-33.433-6.383-46.2-19.15C8.033-33.567,1.65-48.967,1.65-67
					c0-18.067,6.383-33.467,19.15-46.2c12.767-12.767,28.167-19.15,46.2-19.15c18.067,0,33.467,6.383,46.2,19.15
					C125.967-100.467,132.35-85.067,132.35-67z M92.65-5.1c8.167-3.367,15.417-8.217,21.75-14.55
					c6.333-6.333,11.184-13.567,14.55-21.7S134-58.033,134-67s-1.683-17.517-5.05-25.65c-3.367-8.167-8.217-15.417-14.55-21.75
					c-6.333-6.333-13.583-11.184-21.75-14.55c-8.167-3.4-16.717-5.1-25.65-5.1s-17.483,1.7-25.65,5.1
					c-8.133,3.367-15.367,8.217-21.7,14.55c-6.333,6.333-11.183,13.583-14.55,21.75C1.7-84.483,0-75.933,0-67s1.7,17.483,5.1,25.65
					c3.367,8.133,8.217,15.367,14.55,21.7c6.333,6.333,13.567,11.183,21.7,14.55C49.517-1.7,58.067,0,67,0S84.483-1.7,92.65-5.1z"/>
			</g>
			
				<use xlink:href="#zzz_x5F_miscellaneous_x2F_FlashAICB_copy_2_x2F_Layer_10_x2F__x3C_Path_x3E_"  width="118.9" height="118.65" y="-118.65" transform="matrix(1 0 0 1 7.5498 -5.5498)" style="overflow:visible;opacity:0.3789;enable-background:new    ;"/>
		</g>
	</g>
</symbol>
<symbol  id="Frames_x2F_level_07" viewBox="0 -172.4 172.4 172.4">
	<g id="Layer_1_2_">
		<g>
			<path style="fill-rule:evenodd;clip-rule:evenodd;fill:#6B757B;" d="M52.65-6.8C63.35-2.267,74.534,0,86.2,0
				s22.85-2.267,33.55-6.8c10.3-4.367,19.434-10.517,27.4-18.45c7.933-7.966,14.083-17.1,18.45-27.4
				c4.534-10.7,6.8-21.883,6.8-33.55c0-11.667-2.267-22.85-6.8-33.55c-4.367-10.3-10.517-19.433-18.45-27.4
				c-7.967-7.933-17.1-14.083-27.4-18.45c-10.7-4.534-21.883-6.8-33.55-6.8s-22.85,2.267-33.55,6.8
				c-10.3,4.367-19.434,10.517-27.4,18.45c-7.933,7.967-14.083,17.1-18.45,27.4C2.267-109.05,0-97.867,0-86.2
				c0,11.667,2.267,22.85,6.8,33.55c4.367,10.3,10.517,19.434,18.45,27.4C33.217-17.316,42.35-11.167,52.65-6.8z"/>
			
				<linearGradient id="SVGID_2_" gradientUnits="userSpaceOnUse" x1="16046.6201" y1="-85.1538" x2="16219.0205" y2="-85.1538" gradientTransform="matrix(5.800464e-006 1 -1 -0.001 0.9531 -16219.1055)">
				<stop  offset="0.0235" style="stop-color:#737373"/>
				<stop  offset="0.0745" style="stop-color:#81807F"/>
				<stop  offset="0.4039" style="stop-color:#DAD4CA"/>
				<stop  offset="0.5765" style="stop-color:#EEEADB"/>
				<stop  offset="0.749" style="stop-color:#FEFBE8"/>
				<stop  offset="0.9961" style="stop-color:#E4E7E9"/>
			</linearGradient>
			<path style="fill-rule:evenodd;clip-rule:evenodd;fill:url(#SVGID_2_);" d="M52.65-6.8C63.35-2.267,74.534,0,86.2,0
				s22.85-2.267,33.55-6.8c10.3-4.367,19.434-10.517,27.4-18.45c7.933-7.966,14.083-17.1,18.45-27.4
				c4.534-10.7,6.8-21.883,6.8-33.55c0-11.667-2.267-22.85-6.8-33.55c-4.367-10.3-10.517-19.433-18.45-27.4
				c-7.967-7.933-17.1-14.083-27.4-18.45c-10.7-4.534-21.883-6.8-33.55-6.8s-22.85,2.267-33.55,6.8
				c-10.3,4.367-19.434,10.517-27.4,18.45c-7.933,7.967-14.083,17.1-18.45,27.4C2.267-109.05,0-97.867,0-86.2
				c0,11.667,2.267,22.85,6.8,33.55c4.367,10.3,10.517,19.434,18.45,27.4C33.217-17.316,42.35-11.167,52.65-6.8z"/>
			<g>
				<g>
					
						<linearGradient id="SVGID_3_" gradientUnits="userSpaceOnUse" x1="16060.0205" y1="-85.145" x2="16205.6201" y2="-85.145" gradientTransform="matrix(6.869312e-006 1 -1 -0.001 0.9443 -16219.1055)">
						<stop  offset="0" style="stop-color:#EBE7E0"/>
						<stop  offset="0.1216" style="stop-color:#E1DED8"/>
						<stop  offset="0.7059" style="stop-color:#B5B6B5"/>
						<stop  offset="1" style="stop-color:#A5A7A8"/>
					</linearGradient>
					<path style="fill-rule:evenodd;clip-rule:evenodd;fill:url(#SVGID_3_);" d="M114.55-19.1c8.7-3.7,16.417-8.917,23.15-15.65
						c6.7-6.7,11.9-14.4,15.6-23.1c3.8-9.034,5.7-18.483,5.7-28.35s-1.9-19.317-5.7-28.35c-3.7-8.7-8.9-16.417-15.6-23.15
						c-6.733-6.7-14.45-11.9-23.15-15.6c-9.034-3.8-18.483-5.7-28.35-5.7s-19.316,1.9-28.35,5.7c-8.7,3.7-16.4,8.9-23.1,15.6
						c-6.733,6.733-11.95,14.45-15.65,23.15c-3.8,9.033-5.7,18.483-5.7,28.35s1.9,19.316,5.7,28.35c3.7,8.7,8.917,16.4,15.65,23.1
						c6.7,6.733,14.4,11.95,23.1,15.65c9.034,3.8,18.483,5.7,28.35,5.7S105.517-15.3,114.55-19.1z"/>
				</g>
			</g>
		</g>
	</g>
</symbol>
<symbol  id="Letters_x2F_digit_3" viewBox="0 -27 17.7 27">
	<g id="Layer_1_30_">
		<path style="fill-rule:evenodd;clip-rule:evenodd;fill:#FFFFFF;" d="M11.05-7.6C10.983-7,10.767-6.517,10.4-6.15
			c-0.5,0.467-1.133,0.7-1.9,0.7c-1.233,0-2.25-0.6-3.05-1.8C4.617-8.417,3.833-9,3.1-9C2.4-9,1.817-8.717,1.35-8.15
			c-0.4,0.5-0.6,1.117-0.6,1.85c0,0.066,0,0.15,0,0.25c0.033-0.633,0.233-1.167,0.6-1.6C1.817-8.217,2.4-8.5,3.1-8.5
			c0.733,0,1.517,0.583,2.35,1.75c0.8,1.2,1.816,1.8,3.05,1.8c0.767,0,1.4-0.233,1.9-0.7c0.434-0.434,0.65-1,0.65-1.7
			C11.05-7.45,11.05-7.533,11.05-7.6z M16.25-6.85c0-0.066,0-0.133,0-0.2c0-2.267-0.833-4.017-2.5-5.25
			c-0.167,0.066-0.317,0.133-0.45,0.2C15.2-10.867,16.183-9.117,16.25-6.85z M0-20.2c0,0.067,0,0.133,0,0.2
			c0.067-0.967,0.417-1.883,1.05-2.75c0.333-0.467,0.75-0.933,1.25-1.4c1.733-1.567,3.833-2.35,6.3-2.35c2.533,0,4.7,0.783,6.5,2.35
			c0.5,0.433,0.917,0.9,1.25,1.4c0.867,1.167,1.316,2.483,1.35,3.95c0-0.1,0-0.184,0-0.25c0-1.567-0.45-2.967-1.35-4.2
			c-0.333-0.5-0.75-0.967-1.25-1.4C13.3-26.217,11.133-27,8.6-27c-2.467,0-4.567,0.783-6.3,2.35c-0.5,0.467-0.917,0.933-1.25,1.4
			C0.35-22.283,0-21.267,0-20.2z M9.05-15.1c2.034-0.3,3.05-1.316,3.05-3.05c0-0.067,0-0.15,0-0.25c-0.1,1.566-1.117,2.5-3.05,2.8
			c-2.066,0.3-3.1,1.133-3.1,2.5c0,0.1,0,0.184,0,0.25C6.083-14.083,7.117-14.833,9.05-15.1z"/>
		
			<use xlink:href="#zzz_x5F_miscellaneous_x2F_digit_3x"  width="17.7" height="26.5" y="-26.5" style="overflow:visible;enable-background:new    ;"/>
		
			<use xlink:href="#zzz_x5F_miscellaneous_x2F_digit_3x"  width="17.7" height="26.5" y="-26.5" style="overflow:visible;opacity:0.4219;enable-background:new    ;"/>
	</g>
</symbol>
<symbol  id="Letters_x2F_digit_5" viewBox="0 -26.6 17.45 26.6">
	<g id="Layer_1_29_">
		<path style="fill-rule:evenodd;clip-rule:evenodd;fill:#FFFFFF;" d="M0-21.75c0,0.1,0,0.183,0,0.25
			c0.033-0.3,0.117-0.583,0.25-0.85c0.367-0.967,1.283-1.8,2.75-2.5c1.7-0.833,3.35-1.25,4.95-1.25c3.033,0,5.4,0.917,7.1,2.75
			c0.3,0.3,0.567,0.633,0.8,1c1,1.533,1.533,3.45,1.6,5.75c0-2.533-0.534-4.617-1.6-6.25c-0.233-0.367-0.5-0.7-0.8-1
			c-1.7-1.833-4.066-2.75-7.1-2.75c-1.6,0-3.25,0.417-4.95,1.25c-1.467,0.7-2.383,1.533-2.75,2.5C0.083-22.517,0-22.15,0-21.75z
			 M8.4-13.25c-0.733,0-1.467-0.2-2.2-0.6c-0.767-0.4-1.45-0.6-2.05-0.6c-0.633,0-1.167,0.2-1.6,0.6C2.183-13.483,2-13.117,2-12.75
			l0.05,0.25c0.067-0.3,0.233-0.583,0.5-0.85c0.434-0.4,0.967-0.6,1.6-0.6c0.6,0,1.283,0.2,2.05,0.6c0.733,0.4,1.466,0.6,2.2,0.6
			c1.067,0,1.917-0.333,2.55-1c0.6-0.667,0.9-1.55,0.9-2.65c0-0.1,0-0.184,0-0.25c-0.033,0.967-0.333,1.767-0.9,2.4
			C10.317-13.583,9.467-13.25,8.4-13.25z M14.6-5c0.566,0,1.066,0.15,1.5,0.45c0.633,0.4,0.983,1.05,1.05,1.95
			c0-0.066,0-0.133,0-0.2c0-1.067-0.35-1.817-1.05-2.25c-0.434-0.3-0.934-0.45-1.5-0.45H7.85L7.4-8.8c-0.033,0-0.066,0-0.1,0L7.85-5
			H14.6z"/>
		
			<use xlink:href="#zzz_x5F_miscellaneous_x2F_digit_5x"  width="17.45" height="26.1" y="-26.1" style="overflow:visible;enable-background:new    ;"/>
		
			<use xlink:href="#zzz_x5F_miscellaneous_x2F_digit_5x"  width="17.45" height="26.1" y="-26.1" style="overflow:visible;opacity:0.4219;enable-background:new    ;"/>
	</g>
</symbol>
<symbol  id="flash0.ai_x2F_Layer_8_x2F__x3C_Path_x3E_" viewBox="0 -14.55 12 14.55">
	<g id="Layer_1_19_">
		
			<linearGradient id="SVGID_4_" gradientUnits="userSpaceOnUse" x1="19452.7813" y1="-6621.7075" x2="19469.1816" y2="-6621.7075" gradientTransform="matrix(-0.6097 0.7926 -0.7926 -0.6097 6624.0981 -19471.7148)">
			<stop  offset="0" style="stop-color:#FFFFFF"/>
			<stop  offset="0.9961" style="stop-color:#FFFFFF;stop-opacity:0"/>
		</linearGradient>
		<path style="fill-rule:evenodd;clip-rule:evenodd;fill:url(#SVGID_4_);" d="M0-4.25C0.933-2.617,2.033-1.2,3.3,0L12-12.85
			l-2.5-1.7L0-4.25z"/>
	</g>
</symbol>
<symbol  id="flash0.ai_x2F_Layer_8_x2F__x3C_Path_x3E__x5F_1" viewBox="0 -5.5 10.95 5.5">
	<g id="Layer_1_18_">
		
			<linearGradient id="SVGID_5_" gradientUnits="userSpaceOnUse" x1="18460.3965" y1="-12995.5068" x2="18472.2422" y2="-12995.5068" gradientTransform="matrix(-0.9413 0.3377 -0.3377 -0.9413 12999.042 -18471.1172)">
			<stop  offset="0" style="stop-color:#FFFFFF"/>
			<stop  offset="0.9961" style="stop-color:#FFFFFF;stop-opacity:0"/>
		</linearGradient>
		<path style="fill-rule:evenodd;clip-rule:evenodd;fill:url(#SVGID_5_);" d="M0-2.85C0.1-1.783,0.267-0.833,0.5,0l10.45-5L9.6-5.5
			L0-2.85z"/>
	</g>
</symbol>
<symbol  id="flash0.ai_x2F_Layer_8_x2F__x3C_Path_x3E__x5F_10" viewBox="0 -18.55 9.25 18.55">
	<g id="Layer_1_9_">
		
			<linearGradient id="SVGID_6_" gradientUnits="userSpaceOnUse" x1="17920.7441" y1="-2216.1577" x2="17937.9102" y2="-2216.1577" gradientTransform="matrix(-0.2432 0.97 -0.97 -0.2432 2215.9355 -17938.8906)">
			<stop  offset="0" style="stop-color:#FFFFFF"/>
			<stop  offset="0.9961" style="stop-color:#FFFFFF;stop-opacity:0"/>
		</linearGradient>
		<path style="fill-rule:evenodd;clip-rule:evenodd;fill:url(#SVGID_6_);" d="M0-1.7C1.667-0.867,3.483-0.3,5.45,0l3.8-18.55
			l-2.85,1L0-1.7z"/>
	</g>
</symbol>
<symbol  id="flash0.ai_x2F_Layer_8_x2F__x3C_Path_x3E__x5F_11" viewBox="0 -18.35 3.95 18.35">
	<g id="Layer_1_8_">
		
			<linearGradient id="SVGID_7_" gradientUnits="userSpaceOnUse" x1="16862.3555" y1="-730.9731" x2="16879.7207" y2="-730.9731" gradientTransform="matrix(-0.0864 0.9963 -0.9963 -0.0864 731.501 -16880.8203)">
			<stop  offset="0" style="stop-color:#FFFFFF"/>
			<stop  offset="0.9961" style="stop-color:#FFFFFF;stop-opacity:0"/>
		</linearGradient>
		<path style="fill-rule:evenodd;clip-rule:evenodd;fill:url(#SVGID_7_);" d="M2.25-18.35L0,0c1.067-0.067,2.117-0.167,3.15-0.3
			l0.8-17.9L2.25-18.35z"/>
	</g>
</symbol>
<symbol  id="flash0.ai_x2F_Layer_8_x2F__x3C_Path_x3E__x5F_12" viewBox="0 -16.7 7.45 16.7">
	<g id="Layer_1_7_">
		
			<linearGradient id="SVGID_8_" gradientUnits="userSpaceOnUse" x1="13071.2813" y1="2213.3418" x2="13086.9834" y2="2213.3418" gradientTransform="matrix(0.3296 0.9441 -0.9441 0.3296 -2217.6787 -13086.96)">
			<stop  offset="0" style="stop-color:#FFFFFF"/>
			<stop  offset="0.9961" style="stop-color:#FFFFFF;stop-opacity:0"/>
		</linearGradient>
		<path style="fill-rule:evenodd;clip-rule:evenodd;fill:url(#SVGID_8_);" d="M4.3,0c1.067-0.633,2.117-1.45,3.15-2.45L1.5-16.7
			L0-15.55L4.3,0z"/>
	</g>
</symbol>
<symbol  id="flash0.ai_x2F_Layer_8_x2F__x3C_Path_x3E__x5F_13" viewBox="0 -11.35 8.85 11.35">
	<g id="Layer_1_6_">
		
			<linearGradient id="SVGID_9_" gradientUnits="userSpaceOnUse" x1="9181.4033" y1="3299.2559" x2="9192.626" y2="3299.2559" gradientTransform="matrix(0.6371 0.7708 -0.7708 0.6371 -3305.5293 -9189.084)">
			<stop  offset="0" style="stop-color:#FFFFFF"/>
			<stop  offset="0.9961" style="stop-color:#FFFFFF;stop-opacity:0"/>
		</linearGradient>
		<path style="fill-rule:evenodd;clip-rule:evenodd;fill:url(#SVGID_9_);" d="M8.85-3.6l-7.7-7.75L0-9.95L7.4,0
			C8.033-1.233,8.517-2.433,8.85-3.6z"/>
	</g>
</symbol>
<symbol  id="flash0.ai_x2F_Layer_8_x2F__x3C_Path_x3E__x5F_14" viewBox="0 -6.35 7.85 6.35">
	<g id="Layer_1_5_">
		
			<linearGradient id="SVGID_10_" gradientUnits="userSpaceOnUse" x1="6014.3008" y1="3161.2168" x2="6024.0088" y2="3161.2168" gradientTransform="matrix(0.824 0.5665 -0.5665 0.824 -3165.4004 -6018.4224)">
			<stop  offset="0" style="stop-color:#FFFFFF"/>
			<stop  offset="0.9961" style="stop-color:#FFFFFF;stop-opacity:0"/>
		</linearGradient>
		<polygon style="fill-rule:evenodd;clip-rule:evenodd;fill:url(#SVGID_10_);" points="7.65,0 7.85,-1.3 0.2,-6.35 0,-5.3 		"/>
	</g>
</symbol>
<symbol  id="flash0.ai_x2F_Layer_8_x2F__x3C_Path_x3E__x5F_2" viewBox="0 -3.75 12.85 3.75">
	<g id="Layer_1_17_">
		
			<linearGradient id="SVGID_11_" gradientUnits="userSpaceOnUse" x1="14788.7051" y1="-17407.0391" x2="14804.2324" y2="-17407.0391" gradientTransform="matrix(-0.987 -0.161 0.161 -0.987 17411.1836 -14799.1621)">
			<stop  offset="0" style="stop-color:#FFFFFF"/>
			<stop  offset="0.9961" style="stop-color:#FFFFFF;stop-opacity:0"/>
		</linearGradient>
		<path style="fill-rule:evenodd;clip-rule:evenodd;fill:url(#SVGID_11_);" d="M0.6-3.75C0.3-2.783,0.1-1.817,0-0.85L11.65,0l1.2-1
			L0.6-3.75z"/>
	</g>
</symbol>
<symbol  id="flash0.ai_x2F_Layer_8_x2F__x3C_Path_x3E__x5F_3" viewBox="0 -9.05 8.4 9.05">
	<g id="Layer_1_16_">
		
			<linearGradient id="SVGID_12_" gradientUnits="userSpaceOnUse" x1="8605.4785" y1="-19550.4609" x2="8616.3252" y2="-19550.4609" gradientTransform="matrix(-0.7375 -0.6753 0.6753 -0.7375 19557.8359 -8608.6953)">
			<stop  offset="0" style="stop-color:#FFFFFF"/>
			<stop  offset="0.9961" style="stop-color:#FFFFFF;stop-opacity:0"/>
		</linearGradient>
		<path style="fill-rule:evenodd;clip-rule:evenodd;fill:url(#SVGID_12_);" d="M2.05-9.05C1.417-8.383,0.733-7.433,0-6.2L8.4,0
			L8.05-0.65L2.05-9.05z"/>
	</g>
</symbol>
<symbol  id="flash0.ai_x2F_Layer_8_x2F__x3C_Path_x3E__x5F_4" viewBox="0 -11.6 4.95 11.6">
	<g id="Layer_1_15_">
		
			<linearGradient id="SVGID_13_" gradientUnits="userSpaceOnUse" x1="3186.8511" y1="-18455.3398" x2="3199.7478" y2="-18455.3398" gradientTransform="matrix(-0.3354 -0.9421 0.9421 -0.3354 18460.0371 -3186.4438)">
			<stop  offset="0" style="stop-color:#FFFFFF"/>
			<stop  offset="0.9961" style="stop-color:#FFFFFF;stop-opacity:0"/>
		</linearGradient>
		<path style="fill-rule:evenodd;clip-rule:evenodd;fill:url(#SVGID_13_);" d="M0-11.05L4.6,0l0.35-0.7L0.9-11.6
			C0.767-11.533,0.467-11.35,0-11.05z"/>
	</g>
</symbol>
<symbol  id="flash0.ai_x2F_Layer_8_x2F__x3C_Path_x3E__x5F_5" viewBox="0 -12.9 5.35 12.9">
	<g id="Layer_1_14_">
		
			<linearGradient id="SVGID_14_" gradientUnits="userSpaceOnUse" x1="1679.8042" y1="-17593.7285" x2="1693.0178" y2="-17593.7285" gradientTransform="matrix(-0.1892 -0.9819 0.9819 -0.1892 17598.2559 -1678.8555)">
			<stop  offset="0" style="stop-color:#FFFFFF"/>
			<stop  offset="0.9961" style="stop-color:#FFFFFF;stop-opacity:0"/>
		</linearGradient>
		<path style="fill-rule:evenodd;clip-rule:evenodd;fill:url(#SVGID_14_);" d="M0-11.75L3.55,0l1.8-0.5l-1.3-12.4
			C2.717-12.667,1.367-12.283,0-11.75z"/>
	</g>
</symbol>
<symbol  id="flash0.ai_x2F_Layer_8_x2F__x3C_Path_x3E__x5F_6" viewBox="0 -13.5 2.35 13.5">
	<g id="Layer_1_13_">
		
			<linearGradient id="SVGID_15_" gradientUnits="userSpaceOnUse" x1="-452.2949" y1="-15731.1055" x2="-437.9462" y2="-15731.1055" gradientTransform="matrix(0.0575 -0.9983 0.9983 0.0575 15731.5254 453.5986)">
			<stop  offset="0" style="stop-color:#FFFFFF"/>
			<stop  offset="0.9961" style="stop-color:#FFFFFF;stop-opacity:0"/>
		</linearGradient>
		<path style="fill-rule:evenodd;clip-rule:evenodd;fill:url(#SVGID_15_);" d="M2.35-13.4c-0.8-0.067-1.417-0.1-1.85-0.1l-0.35,0.05
			L0-0.15L1.5,0L2.35-13.4z"/>
	</g>
</symbol>
<symbol  id="flash0.ai_x2F_Layer_8_x2F__x3C_Path_x3E__x5F_7" viewBox="0 -13 8.8 13">
	<g id="Layer_1_12_">
		
			<linearGradient id="SVGID_16_" gradientUnits="userSpaceOnUse" x1="-2080.8213" y1="-13358.8086" x2="-2068.2502" y2="-13358.8086" gradientTransform="matrix(0.3043 -0.9526 0.9526 0.3043 13360.2881 2082.7725)">
			<stop  offset="0" style="stop-color:#FFFFFF"/>
			<stop  offset="0.9961" style="stop-color:#FFFFFF;stop-opacity:0"/>
		</linearGradient>
		<path style="fill-rule:evenodd;clip-rule:evenodd;fill:url(#SVGID_16_);" d="M3.2,0l5.6-9.55C6.7-11.183,4.45-12.333,2.05-13
			L0-0.85L3.2,0z"/>
	</g>
</symbol>
<symbol  id="flash0.ai_x2F_Layer_8_x2F__x3C_Path_x3E__x5F_8" viewBox="0 -7.65 6.95 7.65">
	<g id="Layer_1_11_">
		
			<linearGradient id="SVGID_17_" gradientUnits="userSpaceOnUse" x1="-3308.4951" y1="-9160.9824" x2="-3298.3225" y2="-9160.9824" gradientTransform="matrix(0.639 -0.7692 0.7692 0.639 9161.0566 3309.251)">
			<stop  offset="0" style="stop-color:#FFFFFF"/>
			<stop  offset="0.9961" style="stop-color:#FFFFFF;stop-opacity:0"/>
		</linearGradient>
		<path style="fill-rule:evenodd;clip-rule:evenodd;fill:url(#SVGID_17_);" d="M6.95-5.95c-0.367-0.533-0.817-1.1-1.35-1.7l-5.6,7
			L1.15,0L6.95-5.95z"/>
	</g>
</symbol>
<symbol  id="flash0.ai_x2F_Layer_8_x2F__x3C_Path_x3E__x5F_9" viewBox="0 -2.25 6.65 2.25">
	<g id="Layer_1_10_">
		<linearGradient id="SVGID_18_" gradientUnits="userSpaceOnUse" x1="0.0376" y1="-1.125" x2="6.6626" y2="-1.125">
			<stop  offset="0" style="stop-color:#FFFFFF"/>
			<stop  offset="0.9961" style="stop-color:#FFFFFF;stop-opacity:0"/>
		</linearGradient>
		<polygon style="fill-rule:evenodd;clip-rule:evenodd;fill:url(#SVGID_18_);" points="6.65,0 6.2,-2.25 0,-1.55 0.7,-0.4 		"/>
	</g>
</symbol>
<symbol  id="flash0.ai_x5F_0_x2F_Layer_8_x2F__x3C_Compound_Path_x3E_" viewBox="0.008 -56.327 52.1 56.344">
	<g id="Layer_1_21_">
		
			<linearGradient id="SVGID_19_" gradientUnits="userSpaceOnUse" x1="16137.6924" y1="-24.9365" x2="16204.2676" y2="-24.9365" gradientTransform="matrix(1.502066e-005 1 -1 -0.001 0.8784 -16219.1055)">
			<stop  offset="0" style="stop-color:#221F1F"/>
			<stop  offset="0.0235" style="stop-color:#3C3939"/>
			<stop  offset="0.0706" style="stop-color:#646262"/>
			<stop  offset="0.1176" style="stop-color:#8A8888"/>
			<stop  offset="0.1725" style="stop-color:#AAA8A8"/>
			<stop  offset="0.2314" style="stop-color:#C4C4C4"/>
			<stop  offset="0.302" style="stop-color:#DADADA"/>
			<stop  offset="0.3804" style="stop-color:#EBEAEA"/>
			<stop  offset="0.4784" style="stop-color:#F6F6F6"/>
			<stop  offset="0.6157" style="stop-color:#FDFDFD"/>
			<stop  offset="0.9961" style="stop-color:#FFFFFF"/>
		</linearGradient>
		<path style="fill-rule:evenodd;clip-rule:evenodd;fill:url(#SVGID_19_);" d="M43.35-16c1.367-1.767,3.117-5.417,5.25-10.95
			c2.2-5.767,3.367-9.867,3.5-12.3c0.133-2.3-1.467-5.333-4.8-9.1c-3-3.367-5.566-5.483-7.7-6.35
			c-1.967-0.767-6.617-1.283-13.95-1.55c-7.633-0.233-12.633,0.067-15,0.9c-2.167,0.8-4.467,2.983-6.9,6.55
			c-1.967,2.833-3.183,5.066-3.65,6.7c-0.4,1.3,0.5,8.017,2.7,20.15c0.167,0.867,0.684,2.017,1.55,3.45
			c1.566,2.5,2.383,3.817,2.45,3.95c1.633,3.233,3,5.917,4.1,8.05c2.067,3.967,3.367,6.05,3.9,6.25c1.333,0.5,3.784,0.3,7.35-0.6
			c2.2-0.566,4.233-1.2,6.1-1.9c0.433-0.167,1.9-0.317,4.4-0.45c2.6-0.133,4.317-0.316,5.15-0.55c0.8-0.233,1.684-1.933,2.65-5.1
			C41.583-12.583,42.55-14.967,43.35-16z M46.55-47.4c3.2,3.6,4.75,6.517,4.65,8.75c-0.133,2.333-1.267,6.267-3.4,11.8
			c-2.066,5.333-3.767,8.867-5.1,10.6c-0.767,1-1.684,3.283-2.75,6.85c-0.934,3.033-1.8,4.667-2.6,4.9
			c-0.767,0.2-2.417,0.383-4.95,0.55c-2.433,0.133-3.867,0.284-4.3,0.45c-2.033,0.733-4,1.333-5.9,1.8
			c-3.467,0.867-5.833,1.05-7.1,0.55c-0.5-0.2-1.767-2.2-3.8-6c-1.033-2.033-2.35-4.617-3.95-7.75C7.217-15.133,6.433-16.4,5-18.7
			c-0.867-1.367-1.383-2.466-1.55-3.3c-0.1-0.733-0.65-3.983-1.65-9.75c-0.9-5.6-1.216-8.817-0.95-9.65
			c0.5-1.633,1.667-3.783,3.5-6.45c2.367-3.433,4.617-5.533,6.75-6.3c2.3-0.833,7.133-1.117,14.5-0.85
			c7.1,0.233,11.6,0.733,13.5,1.5C41.133-52.7,43.617-50.667,46.55-47.4z"/>
	</g>
</symbol>
<symbol  id="flash0.ai_x5F_0_x2F_Layer_8_x2F__x3C_Path_x3E_" viewBox="0.009 -54.247 50.446 54.221">
	<g id="Layer_1_20_">
		
			<linearGradient id="SVGID_20_" gradientUnits="userSpaceOnUse" x1="16164.7051" y1="-24.1055" x2="16228.7549" y2="-24.1055" gradientTransform="matrix(1.561280e-005 1 -1 -0.001 0.8735 -16219.1055)">
			<stop  offset="0" style="stop-color:#221F1F"/>
			<stop  offset="0.1412" style="stop-color:#262323"/>
			<stop  offset="0.2745" style="stop-color:#312E2E"/>
			<stop  offset="0.4039" style="stop-color:#444242"/>
			<stop  offset="0.5333" style="stop-color:#5F5D5D"/>
			<stop  offset="0.6627" style="stop-color:#818080"/>
			<stop  offset="0.7922" style="stop-color:#ACAAAA"/>
			<stop  offset="0.9176" style="stop-color:#DDDCDC"/>
			<stop  offset="0.9961" style="stop-color:#FFFFFF"/>
		</linearGradient>
		<path style="fill-rule:evenodd;clip-rule:evenodd;fill:url(#SVGID_20_);" d="M47.05-26c2.133-5.533,3.267-9.467,3.4-11.8
			c0.1-2.233-1.45-5.15-4.65-8.75c-2.933-3.267-5.417-5.3-7.45-6.1c-1.9-0.767-6.4-1.267-13.5-1.5
			c-7.367-0.267-12.2,0.017-14.5,0.85C8.217-52.533,5.967-50.433,3.6-47c-1.833,2.667-3,4.817-3.5,6.45
			c-0.267,0.833,0.05,4.05,0.95,9.65c1,5.767,1.55,9.017,1.65,9.75c0.167,0.833,0.683,1.933,1.55,3.3
			c1.433,2.3,2.217,3.567,2.35,3.8c1.6,3.133,2.917,5.716,3.95,7.75c2.034,3.8,3.3,5.8,3.8,6c1.267,0.5,3.633,0.316,7.1-0.55
			c1.9-0.467,3.867-1.066,5.9-1.8c0.433-0.167,1.867-0.317,4.3-0.45c2.533-0.167,4.184-0.35,4.95-0.55
			c0.8-0.233,1.667-1.867,2.6-4.9c1.066-3.567,1.983-5.85,2.75-6.85C43.283-17.133,44.983-20.667,47.05-26z"/>
	</g>
</symbol>
<symbol  id="flash0.ai_x5F_12_x2F_Layer_130_x2F__x3C_Path_x3E__x5F_1" viewBox="0 -36.75 17.6 36.75">
	<g id="Layer_1_22_">
		<path style="fill-rule:evenodd;clip-rule:evenodd;fill:#147352;" d="M1.75-9.5C1.55-8.367,1.267-7.633,0.9-7.3L0.35-7.2L4.95-4
			c0.966,1.433,1.767,2.767,2.4,4c-0.1-0.8,0.167-2.3,0.8-4.5c0.4-1.367,1.05-2.7,1.95-4c1.233-1.833,2.1-3.217,2.6-4.15
			c2.233-4.233,3.5-7.184,3.8-8.85l1.1-6.55c-3.4-3.1-5.783-5.15-7.15-6.15c-1.333-0.966-2.583-1.6-3.75-1.9
			c-3.3-0.167-5.534-0.383-6.7-0.65c1.6,0.933,2.75,2.533,3.45,4.8l0.6,3.1c-0.3,3.367-0.617,5.667-0.95,6.9
			c-0.3,1.133-0.5,1.967-0.6,2.5c-0.2,0.9-0.3,1.75-0.3,2.55C2.2-13.833,2.05-11.367,1.75-9.5z"/>
	</g>
</symbol>
<symbol  id="zz_x5F_Highlight_x2F_Highlight_Piece" viewBox="0 -115.9 118.7 115.9">
	<g id="Layer_1_31_">
		<g>
			
				<use xlink:href="#zzz_x5F_miscellaneous_x2F_FlashAICB_copy_x2F_Layer_1_x2F__x3C_Path_x3E__x5F_2"  width="118.7" height="57.1" y="-57.1" transform="matrix(1 0 0 1 0 -58.7998)" style="overflow:visible;opacity:0.2813;enable-background:new    ;"/>
			
				<use xlink:href="#zzz_x5F_miscellaneous_x2F_FlashAICB_copy_x2F_Layer_1_x2F__x3C_Path_x3E__x5F_1"  width="110.05" height="55.75" y="-55.75" transform="matrix(1 0 0 1 4.1499 0)" style="overflow:visible;opacity:0.1094;enable-background:new    ;"/>
			
				<use xlink:href="#zzz_x5F_miscellaneous_x2F_FlashAICB_copy_x2F_Layer_1_x2F__x3C_Path_x3E_"  width="110.05" height="61.294" y="-61.294" transform="matrix(1 0 0 1 4.1499 0)" style="overflow:visible;opacity:0.0898;enable-background:new    ;"/>
		</g>
	</g>
</symbol>
<symbol  id="zzz_x5F_miscellaneous_x2F_FlashAICB_copy_2_x2F_Layer_10_x2F__x3C_Path_x3E_" viewBox="0 -118.65 118.9 118.65">
	<g id="Layer_1_3_">
		
			<radialGradient id="SVGID_21_" cx="59.4502" cy="-59.3252" r="59.3875" gradientTransform="matrix(1 0 0 -1 0 -118.6504)" gradientUnits="userSpaceOnUse">
			<stop  offset="0" style="stop-color:#D5ECE7"/>
			<stop  offset="0.0863" style="stop-color:#CCE5E0"/>
			<stop  offset="0.2392" style="stop-color:#B3D3CF"/>
			<stop  offset="0.4353" style="stop-color:#8DB4B2"/>
			<stop  offset="0.6078" style="stop-color:#699796"/>
			<stop  offset="0.8039" style="stop-color:#6A9796"/>
			<stop  offset="0.8745" style="stop-color:#6D9796"/>
			<stop  offset="0.9255" style="stop-color:#739896"/>
			<stop  offset="0.9686" style="stop-color:#7D9996"/>
			<stop  offset="1" style="stop-color:#899A96"/>
		</radialGradient>
		<path style="fill-rule:evenodd;clip-rule:evenodd;fill:url(#SVGID_21_);" d="M118.9-59.3c0-16.4-5.8-30.4-17.4-42
			c-11.6-11.567-25.617-17.35-42.05-17.35c-16.4,0-30.4,5.783-42,17.35C5.817-89.7,0-75.7,0-59.3c0,16.367,5.817,30.35,17.45,41.95
			C29.05-5.783,43.05,0,59.45,0C75.883,0,89.9-5.783,101.5-17.35C113.1-28.95,118.9-42.933,118.9-59.3z"/>
	</g>
</symbol>
<symbol  id="zzz_x5F_miscellaneous_x2F_FlashAICB_copy_x2F_Layer_1_x2F__x3C_Path_x3E_" viewBox="0 -61.294 110.05 61.294">
	<g id="Layer_1_27_">
		<path style="fill-rule:evenodd;clip-rule:evenodd;fill:#FFFFFF;" d="M106.5-34.35c2.367-5.633,3.55-10.95,3.55-15.95
			c0-4.934-1.45-8.05-4.35-9.35c-2.333-1.033-6.25-1.017-11.75,0.05c-7.3,1.767-13.133,3.117-17.5,4.05
			C68.417-53.85,61.267-53,55-53c-6.3,0-13.433-0.917-21.4-2.75c-8.333-2.2-14.167-3.683-17.5-4.45
			c-5.533-1.267-9.45-1.433-11.75-0.5C1.45-59.5,0-56.433,0-51.5c0,5.5,1.167,11.167,3.5,17c2.467,6.167,5.95,11.733,10.45,16.7
			C24.65-5.933,38.333,0,55,0c16.467,0,30.15-5.983,41.05-17.95C100.517-22.883,104-28.35,106.5-34.35z"/>
	</g>
</symbol>
<symbol  id="zzz_x5F_miscellaneous_x2F_FlashAICB_copy_x2F_Layer_1_x2F__x3C_Path_x3E__x5F_1" viewBox="0 -55.75 110.05 55.75">
	<g id="Layer_1_26_">
		
			<linearGradient id="SVGID_22_" gradientUnits="userSpaceOnUse" x1="16163.2637" y1="-53.8804" x2="16219.0391" y2="-53.8804" gradientTransform="matrix(1.792918e-005 1 -1 -0.001 0.8545 -16219.1055)">
			<stop  offset="0.1294" style="stop-color:#D9BBB3"/>
			<stop  offset="0.9255" style="stop-color:#FFFFFF"/>
		</linearGradient>
		<path style="fill-rule:evenodd;clip-rule:evenodd;fill:url(#SVGID_22_);" d="M96.05-17.95c4.467-4.933,7.95-10.4,10.45-16.4
			c2.367-5.633,3.55-10.95,3.55-15.95c0-1.567-0.167-3.05-0.5-4.45c-1.867,11.067-7.267,20.9-16.2,29.5
			C82.783-15.117,70-10.05,55-10.05c-15.233,0-28.067-5.05-38.5-15.15C7.533-33.9,2.183-44.083,0.45-55.75
			C0.15-54.617,0-53.2,0-51.5c0,5.5,1.167,11.167,3.5,17c2.467,6.167,5.95,11.733,10.45,16.7C24.65-5.933,38.333,0,55,0
			C71.467,0,85.15-5.983,96.05-17.95z"/>
	</g>
</symbol>
<symbol  id="zzz_x5F_miscellaneous_x2F_FlashAICB_copy_x2F_Layer_1_x2F__x3C_Path_x3E__x5F_2" viewBox="0 -57.1 118.7 57.1">
	<g id="Layer_1_25_">
		
			<radialGradient id="SVGID_23_" cx="59.3501" cy="-28.5498" r="46.5701" gradientTransform="matrix(1 0 0 -1 0 -57.0996)" gradientUnits="userSpaceOnUse">
			<stop  offset="0" style="stop-color:#000000;stop-opacity:0"/>
			<stop  offset="0.651" style="stop-color:#000000;stop-opacity:0.4"/>
		</radialGradient>
		<path style="fill-rule:evenodd;clip-rule:evenodd;fill:url(#SVGID_23_);" d="M95.5-30.35c10.733,7.7,18.3,17.733,22.7,30.1
			L118.7,0c-0.567-15.9-6.6-29.383-18.1-40.45C89.1-51.55,75.333-57.1,59.3-57.1c-15.7,0-29.267,5.367-40.7,16.1
			C7.2-30.333,1-17.233,0-1.7c4.6-12,12.183-21.683,22.75-29.05c10.833-7.567,22.867-11.35,36.1-11.35
			C72.35-42.1,84.567-38.183,95.5-30.35z"/>
	</g>
</symbol>
<symbol  id="zzz_x5F_miscellaneous_x2F_digit_3x" viewBox="0 -26.5 17.7 26.5">
	<g id="Layer_1_24_">
		<linearGradient id="SVGID_24_" gradientUnits="userSpaceOnUse" x1="8.8501" y1="-22.1001" x2="8.8501" y2="-4.4001">
			<stop  offset="0.0745" style="stop-color:#000000;stop-opacity:0.9882"/>
			<stop  offset="0.9647" style="stop-color:#000000;stop-opacity:0.651"/>
		</linearGradient>
		<path style="fill-rule:evenodd;clip-rule:evenodd;fill:url(#SVGID_24_);" d="M13.3-12.1c1.333-0.6,2.4-1.467,3.2-2.6
			c0.8-1.167,1.2-2.45,1.2-3.85c0-1.567-0.45-2.967-1.35-4.2c-0.333-0.5-0.75-0.967-1.25-1.4c-1.8-1.567-3.967-2.35-6.5-2.35
			c-2.467,0-4.567,0.783-6.3,2.35c-0.5,0.467-0.917,0.933-1.25,1.4C0.35-21.783,0-20.767,0-19.7c0,0.667,0.3,1.233,0.9,1.7
			c0.533,0.467,1.15,0.7,1.85,0.7s1.5-0.7,2.4-2.1s2.083-2.1,3.55-2.1c0.933,0,1.733,0.317,2.4,0.95c0.667,0.667,1,1.466,1,2.4
			c0,1.733-1.017,2.75-3.05,3.05c-2.066,0.3-3.1,1.133-3.1,2.5c0,1.233,0.85,2.083,2.55,2.55c1.7,0.433,2.55,1.333,2.55,2.7
			c0,0.7-0.216,1.267-0.65,1.7c-0.5,0.467-1.133,0.7-1.9,0.7c-1.233,0-2.25-0.6-3.05-1.8C4.617-7.917,3.833-8.5,3.1-8.5
			c-0.7,0-1.283,0.283-1.75,0.85c-0.4,0.5-0.6,1.117-0.6,1.85c0,1.4,0.817,2.716,2.45,3.95S6.633,0,8.6,0
			c2.367,0,4.283-0.75,5.75-2.25c1.267-1.267,1.9-2.7,1.9-4.3C16.25-8.983,15.267-10.833,13.3-12.1z"/>
	</g>
</symbol>
<symbol  id="zzz_x5F_miscellaneous_x2F_digit_5x" viewBox="0 -26.1 17.45 26.1">
	<g id="Layer_1_23_">
		<linearGradient id="SVGID_25_" gradientUnits="userSpaceOnUse" x1="8.7251" y1="-21.7749" x2="8.7251" y2="-4.3249">
			<stop  offset="0.0745" style="stop-color:#000000;stop-opacity:0.9882"/>
			<stop  offset="0.9647" style="stop-color:#000000;stop-opacity:0.651"/>
		</linearGradient>
		<path style="fill-rule:evenodd;clip-rule:evenodd;fill:url(#SVGID_25_);" d="M14.6-5H7.85L7.3-8.8C8.367-8.567,9.267-8.45,10-8.45
			c2.133,0,3.917-0.75,5.35-2.25c1.4-1.466,2.1-3.267,2.1-5.4c0-2.533-0.534-4.617-1.6-6.25c-0.233-0.367-0.5-0.7-0.8-1
			c-1.7-1.833-4.066-2.75-7.1-2.75c-1.6,0-3.25,0.417-4.95,1.25c-1.467,0.7-2.383,1.533-2.75,2.5C0.083-22.017,0-21.65,0-21.25
			C0-20.583,0.233-20,0.7-19.5c0.5,0.467,1.083,0.7,1.75,0.7c0.4,0,1.216-0.383,2.45-1.15c1.2-0.767,2.25-1.15,3.15-1.15
			c1.167,0,2.117,0.5,2.85,1.5c0.633,0.9,0.95,1.967,0.95,3.2c0,1.1-0.3,1.983-0.9,2.65c-0.633,0.667-1.483,1-2.55,1
			c-0.733,0-1.467-0.2-2.2-0.6c-0.767-0.4-1.45-0.6-2.05-0.6c-0.633,0-1.167,0.2-1.6,0.6C2.183-12.983,2-12.617,2-12.25l1.05,8.8
			c0.2,1.367,0.5,2.284,0.9,2.75c0.367,0.467,1,0.7,1.9,0.7h8.65c0.8,0,1.45-0.217,1.95-0.65c0.466-0.434,0.7-0.983,0.7-1.65
			c0-1.067-0.35-1.817-1.05-2.25C15.667-4.85,15.167-5,14.6-5z"/>
	</g>
</symbol>
<symbol  id="zzz_x5F_miscellaneous_x2F_stars1" viewBox="-0.023 -11.067 94.127 11.08">
	<g id="Layer_1_4_">
		<linearGradient id="SVGID_26_" gradientUnits="userSpaceOnUse" x1="93.291" y1="-7.291" x2="83.366" y2="-2.966">
			<stop  offset="0" style="stop-color:#565656"/>
			<stop  offset="1" style="stop-color:#FAFAFA"/>
		</linearGradient>
		<path style="fill-rule:evenodd;clip-rule:evenodd;fill:url(#SVGID_26_);" d="M92.65-0.9C92.917-1.167,93-1.467,92.9-1.8l-0.8-2.75
			l1.8-2.2c0.233-0.267,0.267-0.583,0.1-0.95c-0.167-0.333-0.417-0.5-0.75-0.5L90.4-8.25l-1.55-2.4c-0.2-0.333-0.483-0.467-0.85-0.4
			c-0.167,0-0.333,0.083-0.5,0.25c-0.1,0.066-0.183,0.183-0.25,0.35L86.3-7.8l-2.75,0.75h0.05l-0.15,0.3
			C83.383-6.417,83.5-6.133,83.8-5.9l2.25,1.75l-0.15,2.8c-0.066,0.4,0.083,0.684,0.45,0.85C86.683-0.333,87-0.35,87.3-0.55
			l2.35-1.6l2.6,1c0.167,0.1,0.333,0.117,0.5,0.05L92.65-0.9z"/>
		
			<linearGradient id="SVGID_27_" gradientUnits="userSpaceOnUse" x1="11429.8926" y1="2856.1826" x2="11440.7188" y2="2856.1826" gradientTransform="matrix(0.4711 0.8821 -0.8821 0.4711 -2861.8711 -11437.2764)">
			<stop  offset="0" style="stop-color:#565656"/>
			<stop  offset="1" style="stop-color:#FAFAFA"/>
		</linearGradient>
		<path style="fill-rule:evenodd;clip-rule:evenodd;fill:url(#SVGID_27_);" d="M10.5-7.05L7.75-7.8l-0.9-2.65
			C6.783-10.617,6.7-10.733,6.6-10.8c-0.167-0.167-0.333-0.25-0.5-0.25c-0.4-0.067-0.684,0.066-0.85,0.4L3.7-8.25L0.85-8.2
			c-0.367,0-0.633,0.167-0.8,0.5C-0.083-7.3-0.033-6.983,0.2-6.75l1.75,2.2L1.15-1.8C1.083-1.433,1.167-1.133,1.4-0.9L1.3-1.1
			c0.2,0.067,0.367,0.05,0.5-0.05l2.65-1l2.35,1.6c0.3,0.2,0.617,0.216,0.95,0.05C8.05-0.667,8.2-0.95,8.2-1.35l-0.15-2.8L10.3-5.9
			c0.3-0.233,0.4-0.517,0.3-0.85L10.5-7.05z"/>
		<path style="fill-rule:evenodd;clip-rule:evenodd;fill:#FFFFFF;" d="M10.5-7.05l0.1,0.3c0.1,0.333,0,0.617-0.3,0.85L8.05-4.15
			l0.15,2.8c0,0.4-0.15,0.684-0.45,0.85C7.417-0.333,7.1-0.35,6.8-0.55l-2.35-1.6l-2.65,1C1.667-1.05,1.5-1.033,1.3-1.1l0.1,0.2
			c0.333,0.267,0.65,0.316,0.95,0.15l2.65-1l2.35,1.6C7.617,0.05,7.933,0.067,8.3-0.1c0.3-0.167,0.45-0.45,0.45-0.85L8.6-3.75
			l2.25-1.75c0.3-0.233,0.4-0.517,0.3-0.85C11.083-6.617,11-6.783,10.9-6.85L10.5-7.05z M83.55-7.05l-0.35,0.2
			c-0.133,0.1-0.233,0.267-0.3,0.5c-0.066,0.333,0.05,0.617,0.35,0.85l2.25,1.75l-0.15,2.8c0,0.4,0.15,0.684,0.45,0.85
			c0.333,0.167,0.65,0.15,0.95-0.05l2.35-1.6l2.65,1c0.3,0.133,0.6,0.083,0.9-0.15l0.1-0.2c-0.167,0.067-0.333,0.05-0.5-0.05l-2.6-1
			l-2.35,1.6c-0.3,0.2-0.617,0.216-0.95,0.05c-0.367-0.167-0.517-0.45-0.45-0.85l0.15-2.8L83.8-5.9
			c-0.3-0.233-0.417-0.517-0.35-0.85l0.15-0.3H83.55z"/>
	</g>
</symbol>
<g id="Frame">
	
		<use xlink:href="#Frames_x2F_level_07"  width="172.4" height="172.4" y="-172.4" transform="matrix(1 0 0 -1 0 0)" style="overflow:visible;"/>
</g>
<g id="Base">
	
		<use xlink:href="#BG_x2F_bg_teal"  width="134" height="134.05" y="-134.05" transform="matrix(1 0 0 -1 19.2002 19.8501)" style="overflow:visible;"/>
</g>
<g id="Decorations">
	<g>
		
			<linearGradient id="SVGID_28_" gradientUnits="userSpaceOnUse" x1="-126.5708" y1="74.7783" x2="-111.5937" y2="74.7783" gradientTransform="matrix(-0.5508 -0.8346 0.8346 -0.5508 1.893044e-004 9.402633e-004)">
			<stop  offset="0.0745" style="stop-color:#000000;stop-opacity:0.5294"/>
			<stop  offset="0.9647" style="stop-color:#000000;stop-opacity:0.102"/>
		</linearGradient>
		<path style="fill-rule:evenodd;clip-rule:evenodd;fill:url(#SVGID_28_);" d="M119.6,60.4c-0.267-1.566,0.2-2.816,1.4-3.75
			l1.05-0.8l-0.05-1.3c-0.033-0.733,0.116-1.417,0.45-2.05c0.333-0.6,0.816-1.083,1.45-1.45l0.05-0.05
			c0.533-0.267,1.083-0.4,1.649-0.4h0.15c0.833,0,1.533,0.217,2.1,0.65L128.95,52l1.25-0.5c0.267-0.1,0.666-0.183,1.2-0.25
			c1.033-0.067,1.933,0.267,2.699,1c0.534,0.467,0.884,1.05,1.051,1.75c0.199,0.7,0.199,1.383,0,2.05l-0.351,1.3l0.8,1.05
			c1,1.167,1.167,2.483,0.5,3.95c-0.267,0.633-0.699,1.15-1.3,1.55c-0.6,0.367-1.25,0.567-1.95,0.6l-1.35,0.05l-0.75,1.1
			c-0.333,0.533-0.783,0.95-1.35,1.25l-0.051,0.05c-0.533,0.267-1.066,0.4-1.6,0.4h-0.6c-0.767-0.1-1.467-0.417-2.101-0.95
			c-0.467-0.467-0.8-0.983-1-1.55l-0.45-1.25l-1.25-0.3c-0.633-0.2-1.166-0.5-1.6-0.9C120.15,61.833,119.767,61.167,119.6,60.4z
			 M133.15,55.5c0.233-0.667,0.083-1.233-0.45-1.7c-0.467-0.466-1.05-0.583-1.75-0.35l-2.25,0.85l-2-1.35
			c-0.601-0.4-1.2-0.417-1.8-0.05c-0.567,0.3-0.851,0.8-0.851,1.5l0.15,2.45l-1.9,1.45c-0.533,0.4-0.75,0.95-0.649,1.65
			c0.1,0.4,0.267,0.716,0.5,0.95c0.267,0.2,0.5,0.317,0.699,0.35l2.351,0.65l0.8,2.25c0.1,0.267,0.25,0.5,0.45,0.7
			c0.233,0.233,0.55,0.383,0.95,0.45c0.666,0.067,1.199-0.183,1.6-0.75l1.3-2.05l2.45-0.05c0.7-0.067,1.184-0.4,1.45-1
			c0.3-0.6,0.233-1.184-0.2-1.75l-1.5-1.9L133.15,55.5z"/>
		<path style="fill-rule:evenodd;clip-rule:evenodd;fill:#FFFFFF;fill-opacity:0.8;" d="M120.85,56.45l0.95-0.7l-0.05-1.2
			c-0.1-1.633,0.583-2.867,2.05-3.7l0.05-0.05c0.567-0.3,1.15-0.45,1.75-0.45c0.867-0.067,1.667,0.167,2.4,0.7l1,0.65l1.1-0.45
			c0.334-0.1,0.767-0.183,1.301-0.25c1.1-0.067,2.05,0.283,2.85,1.05c0.566,0.534,0.967,1.167,1.2,1.9
			c0.2,0.733,0.184,1.466-0.05,2.2l-0.351,1.15l0.75,0.95c0.5,0.567,0.8,1.233,0.9,2c0.1,0.767-0.017,1.5-0.351,2.2
			c-0.699,1.466-1.866,2.233-3.5,2.3l-1.25,0.05l-0.649,1c-0.4,0.6-0.884,1.05-1.45,1.35h-0.05c-0.5,0.3-1.066,0.45-1.7,0.45
			l-0.15,0.05l-0.5-0.05c-0.866-0.1-1.6-0.45-2.199-1.05c-0.534-0.5-0.9-1.033-1.101-1.6l-0.399-1.1l-1.15-0.35
			c-0.667-0.167-1.217-0.467-1.65-0.9c-0.6-0.567-1.017-1.283-1.25-2.15C119.05,58.817,119.55,57.483,120.85,56.45z M119.6,60.4
			c0.167,0.767,0.551,1.434,1.15,2c0.434,0.4,0.967,0.7,1.6,0.9l1.25,0.3l0.45,1.25c0.2,0.566,0.533,1.083,1,1.55
			c0.634,0.533,1.334,0.85,2.101,0.95h0.6c0.533,0,1.066-0.133,1.6-0.4l0.051-0.05c0.566-0.3,1.017-0.717,1.35-1.25l0.75-1.1
			l1.35-0.05c0.7-0.033,1.351-0.233,1.95-0.6c0.601-0.4,1.033-0.917,1.3-1.55c0.667-1.467,0.5-2.783-0.5-3.95l-0.8-1.05l0.351-1.3
			c0.199-0.667,0.199-1.35,0-2.05c-0.167-0.7-0.517-1.283-1.051-1.75c-0.767-0.733-1.666-1.067-2.699-1
			c-0.534,0.067-0.934,0.15-1.2,0.25l-1.25,0.5l-1.101-0.75c-0.566-0.433-1.267-0.65-2.1-0.65h-0.15c-0.566,0-1.116,0.133-1.649,0.4
			l-0.05,0.05c-0.634,0.367-1.117,0.85-1.45,1.45c-0.334,0.633-0.483,1.317-0.45,2.05l0.05,1.3l-1.05,0.8
			C119.8,57.583,119.333,58.833,119.6,60.4z M38.8,52.05c0.8-0.767,1.767-1.117,2.9-1.05c0.566,0.067,0.983,0.15,1.25,0.25
			l1.15,0.45l0.95-0.65c0.733-0.533,1.55-0.767,2.45-0.7c0.633,0,1.217,0.15,1.75,0.45l0.05,0.05c1.467,0.833,2.15,2.066,2.05,3.7
			l-0.05,1.2l0.9,0.7c1.333,1,1.833,2.333,1.5,4c-0.167,0.833-0.567,1.55-1.2,2.15c-0.5,0.467-1.067,0.767-1.7,0.9l-1.15,0.35
			l-0.4,1.1c-0.2,0.633-0.55,1.167-1.05,1.6c-0.6,0.6-1.35,0.95-2.25,1.05l-0.45,0.05l-0.15-0.05c-0.633,0-1.2-0.15-1.7-0.45H43.6
			c-0.533-0.267-1.033-0.717-1.5-1.35l-0.65-1l-1.2-0.05c-0.767-0.033-1.467-0.25-2.1-0.65c-0.633-0.434-1.1-0.983-1.4-1.65
			c-0.333-0.7-0.45-1.434-0.35-2.2s0.383-1.433,0.85-2L38,57.3l-0.3-1.15c-0.233-0.733-0.25-1.467-0.05-2.2
			C37.85,53.217,38.233,52.583,38.8,52.05z M37.9,54c-0.2,0.7-0.2,1.383,0,2.05l0.4,1.3l-0.85,1.05c-0.967,1.2-1.133,2.517-0.5,3.95
			c0.3,0.633,0.75,1.15,1.35,1.55c0.6,0.367,1.25,0.567,1.95,0.6l1.35,0.05l0.75,1.1c0.267,0.5,0.717,0.917,1.35,1.25v0.05
			c0.533,0.267,1.083,0.4,1.65,0.4h0.6c0.767-0.1,1.466-0.417,2.1-0.95c0.5-0.467,0.833-0.983,1-1.55l0.4-1.25l1.3-0.3
			c0.633-0.2,1.167-0.5,1.6-0.9c0.6-0.566,0.967-1.233,1.1-2c0.3-1.533-0.167-2.783-1.4-3.75L51,55.85l0.1-1.3
			c0.066-1.6-0.567-2.767-1.9-3.5L49.1,51c-0.533-0.267-1.067-0.4-1.6-0.4c-0.833-0.033-1.6,0.183-2.3,0.65L44.1,52l-1.25-0.5
			c-0.233-0.1-0.617-0.183-1.15-0.25c-1.034-0.067-1.934,0.267-2.7,1C38.467,52.717,38.1,53.3,37.9,54z"/>
		<path style="fill-rule:evenodd;clip-rule:evenodd;fill-opacity:0.8784;" d="M133.15,55.5l-0.65,2.3l1.5,1.9
			c0.434,0.566,0.5,1.15,0.2,1.75c-0.267,0.6-0.75,0.933-1.45,1l-2.45,0.05l-1.3,2.05c-0.4,0.567-0.934,0.817-1.6,0.75
			c-0.4-0.066-0.717-0.216-0.95-0.45c-0.2-0.2-0.351-0.434-0.45-0.7l-0.8-2.25l-2.351-0.65c-0.199-0.033-0.433-0.15-0.699-0.35
			c-0.233-0.233-0.4-0.55-0.5-0.95c-0.101-0.7,0.116-1.25,0.649-1.65l1.9-1.45l-0.15-2.45c0-0.7,0.283-1.2,0.851-1.5
			c0.6-0.367,1.199-0.35,1.8,0.05l2,1.35l2.25-0.85c0.7-0.233,1.283-0.117,1.75,0.35C133.233,54.267,133.384,54.833,133.15,55.5z
			 M132.4,55.25c0.1-0.333,0.017-0.633-0.25-0.9c-0.301-0.233-0.601-0.283-0.9-0.15l-2.65,1l-2.35-1.6
			c-0.3-0.2-0.616-0.217-0.95-0.05c-0.3,0.167-0.45,0.45-0.45,0.85l0.15,2.8l-2.25,1.75c-0.3,0.233-0.417,0.517-0.35,0.85
			c0.066,0.233,0.166,0.4,0.3,0.5l0.35,0.2l2.75,0.75l0.95,2.65c0.066,0.167,0.15,0.283,0.25,0.35c0.167,0.167,0.333,0.25,0.5,0.25
			c0.366,0.067,0.65-0.067,0.85-0.4l1.551-2.4l2.85-0.05c0.333,0,0.583-0.167,0.75-0.5c0.167-0.367,0.134-0.683-0.1-0.95L131.6,58
			L132.4,55.25z M39.9,55.5c-0.167-0.7,0-1.267,0.5-1.7c0.467-0.466,1.05-0.583,1.75-0.35l2.25,0.85l2-1.35
			c0.567-0.4,1.15-0.417,1.75-0.05c0.633,0.333,0.917,0.833,0.85,1.5l-0.1,2.45l1.9,1.45c0.534,0.434,0.75,0.983,0.65,1.65
			c-0.1,0.4-0.284,0.716-0.55,0.95c-0.267,0.2-0.5,0.317-0.7,0.35l-2.3,0.65l-0.85,2.25c-0.033,0.2-0.183,0.434-0.45,0.7
			c-0.233,0.267-0.533,0.417-0.9,0.45c-0.733,0.067-1.267-0.183-1.6-0.75l-1.35-2.05l-2.45-0.05c-0.667-0.067-1.15-0.4-1.45-1
			c-0.267-0.667-0.184-1.25,0.25-1.75l1.5-1.9L39.9,55.5z M40.35,61.65l2.85,0.05l1.55,2.4c0.167,0.333,0.45,0.467,0.85,0.4
			c0.167,0,0.333-0.083,0.5-0.25c0.1-0.067,0.183-0.183,0.25-0.35l0.9-2.65L50,60.5l0.4-0.2c0.1-0.066,0.184-0.233,0.25-0.5
			c0.1-0.333,0-0.617-0.3-0.85L48.1,57.2l0.15-2.8c0-0.4-0.15-0.683-0.45-0.85c-0.367-0.167-0.683-0.15-0.95,0.05l-2.35,1.6l-2.65-1
			c-0.3-0.167-0.617-0.117-0.95,0.15c-0.233,0.233-0.316,0.533-0.25,0.9l0.8,2.75l-1.75,2.2c-0.233,0.233-0.284,0.55-0.15,0.95
			C39.717,61.483,39.983,61.65,40.35,61.65z"/>
		
			<linearGradient id="SVGID_29_" gradientUnits="userSpaceOnUse" x1="-38.5928" y1="67.2715" x2="-21.7604" y2="67.2715" gradientTransform="matrix(0.4708 -0.8822 0.8822 0.4708 -6.484985e-005 3.026128e-004)">
			<stop  offset="0.0745" style="stop-color:#000000;stop-opacity:0.5294"/>
			<stop  offset="0.9647" style="stop-color:#000000;stop-opacity:0.102"/>
		</linearGradient>
		<path style="fill-rule:evenodd;clip-rule:evenodd;fill:url(#SVGID_29_);" d="M37.9,54c0.2-0.7,0.567-1.283,1.1-1.75
			c0.767-0.733,1.667-1.067,2.7-1c0.533,0.067,0.917,0.15,1.15,0.25L44.1,52l1.1-0.75c0.7-0.467,1.466-0.683,2.3-0.65
			c0.533,0,1.067,0.133,1.6,0.4l0.1,0.05c1.333,0.733,1.966,1.9,1.9,3.5l-0.1,1.3l1.05,0.8c1.233,0.967,1.7,2.217,1.4,3.75
			c-0.133,0.767-0.5,1.434-1.1,2c-0.434,0.4-0.967,0.7-1.6,0.9l-1.3,0.3l-0.4,1.25c-0.167,0.566-0.5,1.083-1,1.55
			c-0.633,0.533-1.333,0.85-2.1,0.95h-0.6c-0.567,0-1.117-0.133-1.65-0.4V66.9c-0.633-0.333-1.083-0.75-1.35-1.25l-0.75-1.1
			l-1.35-0.05c-0.7-0.033-1.35-0.233-1.95-0.6c-0.6-0.4-1.05-0.917-1.35-1.55c-0.633-1.434-0.467-2.75,0.5-3.95l0.85-1.05l-0.4-1.3
			C37.7,55.383,37.7,54.7,37.9,54z M39.9,55.5l0.7,2.3l-1.5,1.9c-0.434,0.5-0.517,1.083-0.25,1.75c0.3,0.6,0.783,0.933,1.45,1
			l2.45,0.05l1.35,2.05c0.333,0.567,0.867,0.817,1.6,0.75c0.367-0.033,0.667-0.183,0.9-0.45c0.267-0.267,0.417-0.5,0.45-0.7
			l0.85-2.25l2.3-0.65c0.2-0.033,0.433-0.15,0.7-0.35c0.267-0.233,0.45-0.55,0.55-0.95c0.1-0.667-0.117-1.217-0.65-1.65l-1.9-1.45
			L49,54.4c0.067-0.667-0.217-1.167-0.85-1.5c-0.6-0.367-1.183-0.35-1.75,0.05l-2,1.35l-2.25-0.85c-0.7-0.233-1.283-0.117-1.75,0.35
			C39.9,54.233,39.733,54.8,39.9,55.5z"/>
		<g>
			<path style="fill-rule:evenodd;clip-rule:evenodd;fill:#FFFFFF;fill-opacity:0;" d="M152.2,86.85
				c0,18.266-6.467,33.867-19.4,46.8c-12.934,12.933-28.517,19.399-46.75,19.399c-18.267,0-33.867-6.467-46.8-19.399
				c-12.933-12.934-19.4-28.534-19.4-46.8c0-18.267,6.467-33.867,19.4-46.8c12.933-12.933,28.533-19.4,46.8-19.4
				c18.233,0,33.816,6.467,46.75,19.4C145.733,52.983,152.2,68.583,152.2,86.85z"/>
		</g>
		
			<use xlink:href="#zzz_x5F_miscellaneous_x2F_stars1"  width="94.127" height="11.08" x="-0.023" y="-11.067" transform="matrix(1 0 0 -1 39.5 53.4502)" style="overflow:visible;"/>
	</g>
</g>
<g id="Layer_8">
	<g>
		
			<use xlink:href="#flash0.ai_x2F_Layer_8_x2F__x3C_Path_x3E__x5F_14"  width="7.85" height="6.35" y="-6.35" transform="matrix(2.7202 0 0 -2.5047 111.5 89.8496)" style="overflow:visible;opacity:0.5391;enable-background:new    ;"/>
		
			<use xlink:href="#flash0.ai_x2F_Layer_8_x2F__x3C_Path_x3E__x5F_13"  width="8.85" height="11.35" y="-11.35" transform="matrix(2.7202 0 0 -2.5047 106.75 75.25)" style="overflow:visible;opacity:0.5391;enable-background:new    ;"/>
		
			<use xlink:href="#flash0.ai_x2F_Layer_8_x2F__x3C_Path_x3E__x5F_12"  width="7.45" height="16.7" y="-16.7" transform="matrix(2.7202 0 0 -2.5047 99.5996 53.3999)" style="overflow:visible;opacity:0.5391;enable-background:new    ;"/>
		
			<use xlink:href="#flash0.ai_x2F_Layer_8_x2F__x3C_Path_x3E__x5F_11"  width="3.95" height="18.35" y="-18.35" transform="matrix(2.7202 0 0 -2.5047 86.0996 47.8999)" style="overflow:visible;opacity:0.5391;enable-background:new    ;"/>
		
			<use xlink:href="#flash0.ai_x2F_Layer_8_x2F__x3C_Path_x3E__x5F_10"  width="9.25" height="18.55" y="-18.55" transform="matrix(2.7202 0 0 -2.5047 61.6499 47.8999)" style="overflow:visible;opacity:0.5391;enable-background:new    ;"/>
		
			<use xlink:href="#flash0.ai_x2F_Layer_8_x2F__x3C_Path_x3E__x5F_9"  width="6.65" height="2.25" y="-2.25" transform="matrix(4.1742 0 0 -2.5047 112 105.4004)" style="overflow:visible;opacity:0.5391;enable-background:new    ;"/>
		
			<use xlink:href="#flash0.ai_x2F_Layer_8_x2F__x3C_Path_x3E__x5F_8"  width="6.95" height="7.65" y="-7.65" transform="matrix(2.7202 0 0 -2.5047 110.9502 112.0996)" style="overflow:visible;opacity:0.5391;enable-background:new    ;"/>
		
			<use xlink:href="#flash0.ai_x2F_Layer_8_x2F__x3C_Path_x3E__x5F_7"  width="8.8" height="13" y="-13" transform="matrix(2.7202 0 0 -2.5047 94.2998 112.5498)" style="overflow:visible;opacity:0.5391;enable-background:new    ;"/>
		
			<use xlink:href="#flash0.ai_x2F_Layer_8_x2F__x3C_Path_x3E__x5F_6"  width="2.35" height="13.5" y="-13.5" transform="matrix(2.7202 0 0 -2.5047 85.3501 112.5498)" style="overflow:visible;opacity:0.5391;enable-background:new    ;"/>
		
			<use xlink:href="#flash0.ai_x2F_Layer_8_x2F__x3C_Path_x3E__x5F_5"  width="5.35" height="12.9" y="-12.9" transform="matrix(2.7202 0 0 -2.5047 66.3501 113.4502)" style="overflow:visible;opacity:0.5391;enable-background:new    ;"/>
		
			<use xlink:href="#flash0.ai_x2F_Layer_8_x2F__x3C_Path_x3E__x5F_4"  width="4.95" height="11.6" y="-11.6" transform="matrix(2.6269 0.7038 0.6483 -2.4195 59.75 109.1504)" style="overflow:visible;opacity:0.5391;enable-background:new    ;"/>
		
			<use xlink:href="#flash0.ai_x2F_Layer_8_x2F__x3C_Path_x3E__x5F_3"  width="8.4" height="9.05" y="-9.05" transform="matrix(2.6888 0.4114 0.3788 -2.4761 44.9502 103.5996)" style="overflow:visible;opacity:0.5391;enable-background:new    ;"/>
		
			<use xlink:href="#flash0.ai_x2F_Layer_8_x2F__x3C_Path_x3E__x5F_2"  width="12.85" height="3.75" y="-3.75" transform="matrix(2.7202 0 0 -2.5047 34.2998 101.4502)" style="overflow:visible;opacity:0.5391;enable-background:new    ;"/>
		
			<use xlink:href="#flash0.ai_x2F_Layer_8_x2F__x3C_Path_x3E__x5F_1"  width="10.95" height="5.5" y="-5.5" transform="matrix(3.2156 0 0 -2.9617 35.2002 83.8999)" style="overflow:visible;opacity:0.5391;enable-background:new    ;"/>
		
			<use xlink:href="#flash0.ai_x2F_Layer_8_x2F__x3C_Path_x3E_"  width="12" height="14.55" y="-14.55" transform="matrix(2.7202 0 0 -2.5047 42.7002 58.2002)" style="overflow:visible;opacity:0.5391;enable-background:new    ;"/>
	</g>
	<g>
		
			<use xlink:href="#flash0.ai_x5F_0_x2F_Layer_8_x2F__x3C_Path_x3E_"  width="50.446" height="54.221" x="0.009" y="-54.247" transform="matrix(1.1586 0 0 -1.1586 56.5498 67)" style="overflow:visible;opacity:0.5781;enable-background:new    ;"/>
		
			<use xlink:href="#flash0.ai_x5F_0_x2F_Layer_8_x2F__x3C_Compound_Path_x3E_"  width="52.1" height="56.344" x="0.008" y="-56.327" transform="matrix(1.1586 0 0 -1.1586 54.8501 65.1499)" style="overflow:visible;opacity:0.5391;enable-background:new    ;"/>
	</g>
</g>
<g id="Map">
	<g>
		<g>
			
				<radialGradient id="SVGID_30_" cx="34.6519" cy="-19.98" r="29.7956" fx="42.5974" fy="-19.98" gradientTransform="matrix(-0.0998 1.4472 1.331 0.042 114.4333 69.4536)" gradientUnits="userSpaceOnUse">
				<stop  offset="0.0235" style="stop-color:#74DEBE"/>
				<stop  offset="0.2353" style="stop-color:#78E0C0"/>
				<stop  offset="0.451" style="stop-color:#84E5C8"/>
				<stop  offset="0.6627" style="stop-color:#99EDD3"/>
				<stop  offset="0.8784" style="stop-color:#B5F9E4"/>
				<stop  offset="0.9765" style="stop-color:#C4FFED"/>
			</radialGradient>
			<path style="fill-rule:evenodd;clip-rule:evenodd;fill:url(#SVGID_30_);" d="M109.769,103.023l1.596,9.502
				c-4.933,4.497-8.391,7.471-10.373,8.921c-1.934,1.402-3.747,2.321-5.439,2.757c-4.787,0.242-8.027,0.557-9.719,0.943
				c-1.693,0.435-7.06-0.121-16.103-1.668l-10.88-10.083l0.943-5.875c0.291-2.031,0.508-4.666,0.653-7.906l0.218-6.455l5.44-6.963
				c1.402-4.593,2.586-7.954,3.554-10.082c0.967-2.079,2.272-4.739,3.917-7.979l3.844,0.436c2.708,0.532,4.425,1.305,5.15,2.321
				c1.16,1.595,3.071,2.514,5.729,2.756l8.27-1.958c-0.291,0.967,0.072,3.192,1.088,6.673c0.58,1.982,1.522,3.916,2.829,5.802
				c1.788,2.659,3.046,4.667,3.771,6.021C107.495,96.326,109.333,100.605,109.769,103.023z"/>
			<path style="fill-rule:evenodd;clip-rule:evenodd;fill:#74DEBE;" d="M107.52,96.785c1.257,2.708,2.007,4.788,2.249,6.238
				l1.596,9.502c-4.933,4.497-8.391,7.471-10.373,8.921c-1.934,1.402-3.747,2.321-5.439,2.757c-4.787,0.242-8.027,0.557-9.719,0.943
				c-1.693,0.435-7.06-0.121-16.103-1.668l-10.88-10.083l0.217-1.016c1.112,1.548,2.418,2.539,3.917,2.975l2.321-3.989
				c0.097-0.193,0.266-0.387,0.507-0.58c0.436-0.388,0.918-0.532,1.451-0.436c0.484,0.145,1.088,0.725,1.813,1.74
				c0.629,0.436,1.161-0.58,1.596-3.046c0.387-2.515,1.33-5.343,2.829-8.486l2.176-3.917l2.031,0.652
				c1.402,0.484,2.176,0.943,2.321,1.379c0.193,0.677,0.846,1.354,1.958,2.03l1.378,2.685c0.87,0.435,1.982,0.749,3.337,0.942
				l3.336,3.336l2.974-2.61l0.362-0.072c0.339,0.048,0.774,0.289,1.307,0.726c0.338,0.289,1.571,1.063,3.699,2.32
				c2.853,1.741,4.424,2.079,4.714,1.016c0.049-0.291,0.314-0.629,0.798-1.016c0.339-0.338,0.508-1.016,0.508-2.031v-5.657
				l1.668-0.362L107.52,96.785z"/>
			<path style="fill-rule:evenodd;clip-rule:evenodd;fill:#52C9A2;" d="M81.698,110.35c1.499-0.436,2.829-0.387,3.989,0.145
				c0.581,0.242,1.016,0.532,1.305,0.871l1.089-0.363c0.918-0.097,1.789,0.146,2.611,0.726c0.677,0.435,1.475,0.991,2.394,1.668
				c0.677,0.436,1.45,0.653,2.321,0.653c1.305,0,2.756-0.339,4.352-1.016h4.642c0.436-0.193,0.773-0.75,1.016-1.668
				c0.146-0.532,0.459-1.306,0.943-2.321l0.725-1.379c-0.145-0.676-0.241-1.305-0.29-1.885c-0.048-1.161,0.267-1.523,0.943-1.089
				c0.58,0.339,0.773,0.557,0.58,0.653c-0.048,0.049,0.314,0.17,1.088,0.363l0.798,0.145l1.161,6.673
				c-4.933,4.497-8.391,7.471-10.373,8.921c-1.934,1.402-3.747,2.321-5.439,2.757c-4.787,0.242-8.027,0.557-9.719,0.943
				c-1.693,0.435-7.06-0.121-16.103-1.668l-6.891-6.094c0.387-0.097,0.798-0.314,1.233-0.652c0.483-0.338,0.895-0.557,1.233-0.652
				c0.677-0.243,1.571-0.363,2.683-0.363h1.669l2.683,0.652l0.581,1.379c0.435,0.435,0.797-0.46,1.088-2.685
				c0.193-1.596,0.12-3.747-0.218-6.454c-0.145-1.403,0.145-1.813,0.871-1.233l1.958,1.668l0.797-0.508
				c0.532-0.146,0.944,0.121,1.233,0.798c0.242,0.58,0.363,1.088,0.363,1.523C79.159,110.954,80.054,110.785,81.698,110.35z"/>
			<path style="fill-rule:evenodd;clip-rule:evenodd;fill:#3EB08B;" d="M83.511,116.877c0.58-0.145,1.088-0.193,1.523-0.145
				l3.627,1.668l0.652-0.436c0.58-0.289,1.16-0.362,1.741-0.217l3.336,0.652l2.321-0.652c0.436-0.146,0.726,0.29,0.871,1.305
				c0.193,1.064,0.919,1.403,2.176,1.017c1.401-0.437,2.659-1.089,3.771-1.959c0.58-0.532,1.306-1.209,2.176-2.03
				c0.919-0.678,2.151-2.128,3.699-4.353l1.668-1.088l0.291,1.886c-4.933,4.497-8.391,7.471-10.373,8.921
				c-1.934,1.402-3.747,2.321-5.439,2.757c-4.787,0.242-8.027,0.557-9.719,0.943c-1.693,0.435-7.06-0.121-16.103-1.668l-4.569-3.846
				c0.918,0.437,1.716,0.702,2.394,0.799c0.435,0.097,1.354,0.193,2.756,0.29c1.112,0.145,1.886,0.508,2.321,1.088
				c0.145,0.193,0.484-0.049,1.016-0.726c0.58-0.677,0.773-1.232,0.58-1.668c-0.048-0.097,0.314-0.218,1.088-0.363
				c0.435-0.048,1.403,0.17,2.901,0.653c1.015,0.29,1.837-0.023,2.466-0.942C81.359,117.748,82.302,117.119,83.511,116.877z"/>
			
				<use xlink:href="#flash0.ai_x5F_12_x2F_Layer_130_x2F__x3C_Path_x3E__x5F_1"  width="17.6" height="36.75" y="-36.75" transform="matrix(1.4507 0 0 -1.4507 86.1504 71.8999)" style="overflow:visible;opacity:0.4297;enable-background:new    ;"/>
			<path style="fill-rule:evenodd;clip-rule:evenodd;fill:#D1FFF1;" d="M88.226,72.343c1.016,0,2.225-0.218,3.627-0.653
				c0.726-0.242,2.272-0.193,4.643,0.145c0.145,0.146,0.096,0.435-0.146,0.871l-2.031,3.917L93.086,78
				c-0.098,0.096-0.629,0.387-1.596,0.871c-1.112,0.58-1.959,1.088-2.539,1.523l-2.611,1.885c-2.176-0.387-3.869-1.063-5.077-2.031
				c-0.726-0.58-1.04-0.918-0.944-1.015c0.242-0.146,0.412-0.412,0.508-0.798c0.097-0.435,0.048-0.798-0.145-1.088
				c-0.387-0.628-0.604-0.991-0.652-1.088c-0.193-0.387-0.629-0.701-1.306-0.943c-0.629-0.193-0.991-0.387-1.088-0.58
				c-0.145-0.629-0.291-1.209-0.436-1.741c-0.242-0.967-0.628-1.741-1.16-2.321c-0.193-0.193-0.701-0.652-1.523-1.378l-0.943-1.161
				l3.191-0.435l2.394,0.217l1.088,0.291c0.773,0.193,1.257,0.387,1.451,0.58l2.249,1.886c0.436,0.387,1.016,0.725,1.741,1.016
				C86.751,72.125,87.598,72.343,88.226,72.343z"/>
		</g>
	</g>
	
		<radialGradient id="SVGID_31_" cx="1129.75" cy="371.1504" r="2.6375" gradientTransform="matrix(2.5525 0 0 -4.1129 -2823.3997 1595.2462)" gradientUnits="userSpaceOnUse">
		<stop  offset="0" style="stop-color:#FFFFFF"/>
		<stop  offset="0.9961" style="stop-color:#FFFFFF;stop-opacity:0"/>
	</radialGradient>
	<path style="fill-rule:evenodd;clip-rule:evenodd;fill:url(#SVGID_31_);" d="M60.004,60.44l1.531,4.594
		c0.254,0.935,1.403,1.872,3.445,2.807c-0.254,0.084-0.593,0.299-1.02,0.638c-0.766,0.681-1.319,1.576-1.66,2.68
		c-0.426,1.107-1.02,3.063-1.787,5.873c-0.424-2.724-1.192-4.808-2.296-6.254l-2.553-2.68l1.02-0.638
		c0.853-0.596,1.448-1.192,1.788-1.788C59.152,64.65,59.663,62.905,60.004,60.44z"/>
	
		<radialGradient id="SVGID_32_" cx="1105.2002" cy="374.2998" r="1.825" gradientTransform="matrix(2.5525 0 0 -4.1084 -2710.8 1612.7821)" gradientUnits="userSpaceOnUse">
		<stop  offset="0" style="stop-color:#FFFFFF"/>
		<stop  offset="0.9961" style="stop-color:#FFFFFF;stop-opacity:0"/>
	</radialGradient>
	<path style="fill-rule:evenodd;clip-rule:evenodd;fill:url(#SVGID_32_);" d="M113.387,74.513c-0.172,0.087-0.384,0.214-0.639,0.384
		c-0.511,0.511-0.895,1.149-1.148,1.915l-1.276,4.083c-0.339-1.872-0.893-3.317-1.66-4.337l-1.785-1.915l2.042-1.66
		c0.426-0.681,0.765-1.915,1.02-3.702l1.021,3.317C111.216,73.194,112.025,73.833,113.387,74.513z"/>
	
		<radialGradient id="SVGID_33_" cx="1099.75" cy="380.2002" r="1.525" gradientTransform="matrix(2.5525 0 0 -4.1215 -2732.0012 1645.397)" gradientUnits="userSpaceOnUse">
		<stop  offset="0" style="stop-color:#FFFFFF"/>
		<stop  offset="0.9961" style="stop-color:#FFFFFF;stop-opacity:0"/>
	</radialGradient>
	<path style="fill-rule:evenodd;clip-rule:evenodd;fill:url(#SVGID_33_);" d="M74.957,73.534l0.893,2.68
		c0.172,0.511,0.85,1.064,2.042,1.66c-0.169,0.085-0.339,0.212-0.508,0.384c-0.426,0.339-0.768,0.85-1.022,1.53l-1.149,3.318
		c-0.254-1.531-0.681-2.722-1.276-3.572L72.405,78l1.658-1.403C74.489,76.001,74.785,74.979,74.957,73.534z"/>
	
		<radialGradient id="SVGID_34_" cx="1111.9492" cy="390.5996" r="1.8003" gradientTransform="matrix(2.5525 0 0 -4.1122 -2770.7512 1739.5201)" gradientUnits="userSpaceOnUse">
		<stop  offset="0" style="stop-color:#FFFFFF"/>
		<stop  offset="0.9961" style="stop-color:#FFFFFF;stop-opacity:0"/>
	</radialGradient>
	<path style="fill-rule:evenodd;clip-rule:evenodd;fill:url(#SVGID_34_);" d="M67.218,127.535l1.022,3.19
		c0.254,0.596,1.064,1.233,2.425,1.914c-0.172,0.087-0.384,0.214-0.638,0.384c-0.511,0.511-0.895,1.149-1.149,1.914l-1.276,3.956
		c-0.339-1.787-0.892-3.19-1.66-4.21l-1.657-1.914l0.765-0.384c0.511-0.427,0.892-0.851,1.149-1.276
		C66.71,130.429,67.049,129.237,67.218,127.535z"/>
	
		<radialGradient id="SVGID_35_" cx="1125.9502" cy="393.25" r="2.325" gradientTransform="matrix(2.5525 0 0 -4.1168 -2757.5012 1746.2327)" gradientUnits="userSpaceOnUse">
		<stop  offset="0" style="stop-color:#FFFFFF"/>
		<stop  offset="0.9961" style="stop-color:#FFFFFF;stop-opacity:0"/>
	</radialGradient>
	<path style="fill-rule:evenodd;clip-rule:evenodd;fill:url(#SVGID_35_);" d="M116.203,120.02l1.405,4.082
		c0.255,0.766,1.276,1.573,3.062,2.426c-0.254,0.085-0.554,0.254-0.893,0.511c-0.681,0.596-1.191,1.403-1.53,2.423l-1.533,5.234
		c-0.426-2.383-1.104-4.212-2.041-5.488l-2.299-2.426l0.896-0.638c0.765-0.511,1.318-1.02,1.657-1.53
		C115.522,123.761,115.948,122.23,116.203,120.02z"/>
	
		<radialGradient id="SVGID_36_" cx="1111.9502" cy="390.5996" r="1.8" gradientTransform="matrix(1.8378 0 0 -2.9608 -1992.3514 1280.7234)" gradientUnits="userSpaceOnUse">
		<stop  offset="0" style="stop-color:#FFFFFF"/>
		<stop  offset="0.9961" style="stop-color:#FFFFFF;stop-opacity:0"/>
	</radialGradient>
	<path style="fill-rule:evenodd;clip-rule:evenodd;fill:url(#SVGID_36_);" d="M50.955,120.091l0.736,2.298
		c0.183,0.429,0.767,0.888,1.746,1.378c-0.124,0.063-0.276,0.154-0.459,0.276c-0.368,0.368-0.645,0.827-0.828,1.378l-0.919,2.849
		c-0.244-1.287-0.643-2.297-1.195-3.031l-1.193-1.378l0.551-0.276c0.368-0.308,0.642-0.612,0.827-0.919
		C50.589,122.175,50.833,121.317,50.955,120.091z"/>
	
		<radialGradient id="SVGID_37_" cx="1111.9502" cy="390.5996" r="1.8" gradientTransform="matrix(1.8378 0 0 -2.9608 -1983.6991 1246.2732)" gradientUnits="userSpaceOnUse">
		<stop  offset="0" style="stop-color:#FFFFFF"/>
		<stop  offset="0.9961" style="stop-color:#FFFFFF;stop-opacity:0"/>
	</radialGradient>
	<path style="fill-rule:evenodd;clip-rule:evenodd;fill:url(#SVGID_37_);" d="M59.605,85.641l0.736,2.297
		c0.183,0.429,0.767,0.888,1.746,1.378c-0.124,0.063-0.276,0.154-0.459,0.276c-0.368,0.368-0.645,0.827-0.828,1.378l-0.919,2.849
		c-0.244-1.287-0.643-2.297-1.195-3.031l-1.193-1.378l0.551-0.276c0.368-0.308,0.642-0.612,0.827-0.919
		C59.239,87.725,59.483,86.867,59.605,85.641z"/>
	
		<radialGradient id="SVGID_38_" cx="1111.9502" cy="390.5996" r="1.8" gradientTransform="matrix(1.8378 0 0 -2.9608 -1926.6014 1249.9226)" gradientUnits="userSpaceOnUse">
		<stop  offset="0" style="stop-color:#FFFFFF"/>
		<stop  offset="0.9961" style="stop-color:#FFFFFF;stop-opacity:0"/>
	</radialGradient>
	<path style="fill-rule:evenodd;clip-rule:evenodd;fill:url(#SVGID_38_);" d="M116.705,89.29l0.736,2.298
		c0.183,0.429,0.766,0.888,1.746,1.378c-0.124,0.063-0.276,0.154-0.46,0.276c-0.367,0.368-0.644,0.827-0.827,1.378l-0.919,2.849
		c-0.244-1.287-0.643-2.297-1.195-3.031l-1.193-1.378l0.551-0.276c0.368-0.308,0.643-0.612,0.827-0.919
		C116.339,91.374,116.583,90.517,116.705,89.29z"/>
	<path style="fill-rule:evenodd;clip-rule:evenodd;fill:none;stroke:#000000;stroke-miterlimit:10;" d="M86.433,72.745
		c-1.12-0.927-2.433-1.776-3.939-2.548c-3.012-1.584-5.425-1.989-7.241-1.217c-1.776,0.772-3.765,3.958-5.966,9.558
		c-1.12,2.819-2.221,5.773-3.303,8.864c-1.158,1.158-2.162,2.183-3.012,3.07c-1.661,1.698-2.433,2.896-2.317,3.591
		c0.077,0.348-0.213,3.939-0.869,10.774c-0.579,6.372-0.675,9.732-0.29,10.08c0.347,0.309,1.893,1.834,4.634,4.576
		c2.741,2.703,4.383,4.171,4.924,4.402c0.811,0.387,3.051,0.792,6.719,1.217c4.249,0.464,7.995,0.637,11.238,0.521
		c5.793-0.231,9.308-0.714,10.543-1.448c8.612-6.758,13.112-10.679,13.498-11.76c0.347-0.889,0.193-3.031-0.464-6.43
		c-0.733-3.63-1.603-6.121-2.607-7.474c-1.273-1.737-3.012-4.595-5.213-8.572c-2.433-4.48-3.92-7.705-4.461-9.675
		c-0.655-2.703-1.12-4.518-1.39-5.444c-0.386-1.507-0.695-2.298-0.927-2.376C95.605,72.378,92.419,72.474,86.433,72.745z"/>
</g>
<g id="Letters">
	
		<use xlink:href="#Letters_x2F_digit_5"  width="17.45" height="26.6" y="-26.6" transform="matrix(1 0 0 -1 67.1499 34)" style="overflow:visible;"/>
	
		<use xlink:href="#Letters_x2F_digit_3"  width="17.7" height="27" y="-27" transform="matrix(1 0 0 -1 89.2998 34)" style="overflow:visible;"/>
</g>
<g id="highlight">
	
		<use xlink:href="#zz_x5F_Highlight_x2F_Highlight_Piece"  width="118.7" height="115.9" y="-115.9" transform="matrix(1 0 0 -1 27.25 28.1001)" style="overflow:visible;"/>
</g>
</svg>
