<?xml version="1.0" encoding="iso-8859-1"?>
<!-- Generator: Adobe Illustrator 15.1.0, SVG Export Plug-In . SVG Version: 6.00 Build 0)  -->
<!DOCTYPE svg PUBLIC "-//W3C//DTD SVG 1.1//EN" "http://www.w3.org/Graphics/SVG/1.1/DTD/svg11.dtd">
<svg version="1.1" id="FlashAICB" xmlns="http://www.w3.org/2000/svg" xmlns:xlink="http://www.w3.org/1999/xlink" x="0px" y="0px"
	 width="171px" height="171.3px" viewBox="0 0 171 171.3" style="enable-background:new 0 0 171 171.3;" xml:space="preserve">
<symbol  id="FlashAICB_x5F_0_x2F_Isolation_Mode_x2F__x3C_Clip_Group_0_x3E_" viewBox="0 -56.65 87.8 56.65">
	<g id="Layer_1_4_">
	</g>
	<g>
		<defs>
			<polygon id="SVGID_1_" points="6.1,0 0,-45.7 81.65,-56.65 87.8,-10.95 			"/>
		</defs>
		<clipPath id="SVGID_2_">
			<use xlink:href="#SVGID_1_"  style="overflow:visible;"/>
		</clipPath>
		<g id="Layer_3_2_" style="clip-path:url(#SVGID_2_);">
			<path style="fill-rule:evenodd;clip-rule:evenodd;fill:#FFFFFF;" d="M31.65-16.25l8.05,2.6l-4.95-36.7
				c-1.9,0.233-3.883,0.833-5.95,1.8l-1.4,0.65L31.65-16.25z"/>
			<path style="fill-rule:evenodd;clip-rule:evenodd;fill:#FFFFFF;" d="M1.4-35.25l1.25,9.35c6.3,2.2,13.95,4.75,22.95,7.65
				L21.95-45.3L1.4-35.25z"/>
			<path style="fill-rule:evenodd;clip-rule:evenodd;fill:#FFFFFF;" d="M85.4-26.55c0.733-1.367-0.65-3.017-4.15-4.95l-2.15-1.1
				l1.2,9.05C83.233-24.717,84.933-25.717,85.4-26.55z"/>
			<path style="fill-rule:evenodd;clip-rule:evenodd;fill:#FFFFFF;" d="M71.3-19.55l-2.4-17.8l-4.25-1.9l3.2,24.05
				c1.2,0.3,2.167,0.8,2.9,1.5c0.433,0.4,0.967,1.017,1.6,1.85L71.6-17.4c-0.333-0.3-0.617-0.6-0.85-0.9
				C70.517-18.667,70.7-19.083,71.3-19.55z"/>
			<path style="fill-rule:evenodd;clip-rule:evenodd;fill:#FFFFFF;" d="M66.05-15.5l-3.3-24.55L52.8-44.4l4.05,30.35
				c1.967-0.7,3.05-1.083,3.25-1.15c1-0.3,2.117-0.45,3.35-0.45C64.45-15.65,65.317-15.6,66.05-15.5z"/>
			<path style="fill-rule:evenodd;clip-rule:evenodd;fill:#FFFFFF;" d="M82.1-10.2c0.933-0.466,1.467-1.05,1.6-1.75
				c0.133-0.767-0.233-1.517-1.1-2.25c-0.5-0.333-0.867-0.583-1.1-0.75L82.1-10.2z"/>
		</g>
	</g>
	<g id="Layer_4_2_">
	</g>
</symbol>
<symbol  id="FlashAICB_x5F_0_x2F_Isolation_Mode_x2F__x3C_Clip_Group_0_x3E__x5F_0" viewBox="0 -26.6 29 26.6">
	<g id="Layer_1_5_">
	</g>
	<g>
		<defs>
			<path id="SVGID_3_" d="M25.2-14.35c-2.034,2.367-4.8,4.95-8.3,7.75C12.333-2.867,7.833-0.667,3.4,0H3.1
				C3.067-0.9,3.167-2.167,3.4-3.8c0.4-3.3,1.2-6.883,2.4-10.75c1.1-3.5,2.083-6.2,2.95-8.1c0.433-0.967,0.767-1.567,1-1.8
				c2.8,2.4,5.65,4.333,8.55,5.8c2.1,1.033,4.217,1.6,6.35,1.7c1.067,0.067,1.917,0.034,2.55-0.1
				C26.9-16.45,26.233-15.55,25.2-14.35z"/>
		</defs>
		<clipPath id="SVGID_4_">
			<use xlink:href="#SVGID_3_"  style="overflow:visible;"/>
		</clipPath>
		<g id="Layer_3_3_" style="clip-path:url(#SVGID_4_);">
			<linearGradient id="SVGID_5_" gradientUnits="userSpaceOnUse" x1="1.7749" y1="-11.5874" x2="27.2249" y2="-15.0124">
				<stop  offset="0" style="stop-color:#949494"/>
				<stop  offset="1" style="stop-color:#D5D5D5"/>
			</linearGradient>
			<polygon style="fill-rule:evenodd;clip-rule:evenodd;fill:url(#SVGID_5_);" points="3.1,0 29,-3.45 25.9,-26.6 0,-23.15 			"/>
		</g>
	</g>
	<g id="Layer_4_3_">
	</g>
</symbol>
<symbol  id="FlashAICB_x5F_0_x2F_Isolation_Mode_x2F__x3C_Clip_Group_0_x3E__x5F_1" viewBox="0 -11.4 14.25 11.4">
	<g id="Layer_1_3_">
	</g>
	<g>
		<defs>
			<path id="SVGID_6_" d="M9.15-3.4l-0.9,0.25c-1.4,0.167-2.867-0.167-4.4-1c-1.5-0.867-1.867-1.6-1.1-2.2
				c1.233-0.933,3.1-0.9,5.6,0.1S11.117-4.3,9.15-3.4z"/>
		</defs>
		<clipPath id="SVGID_7_">
			<use xlink:href="#SVGID_6_"  style="overflow:visible;"/>
		</clipPath>
		<g id="Layer_3_1_" style="clip-path:url(#SVGID_7_);">
			<linearGradient id="SVGID_8_" gradientUnits="userSpaceOnUse" x1="3.8574" y1="-4.6274" x2="10.1324" y2="-6.7024">
				<stop  offset="0" style="stop-color:#9E7B34"/>
				<stop  offset="1" style="stop-color:#E4A855"/>
			</linearGradient>
			<polygon style="fill-rule:evenodd;clip-rule:evenodd;fill:url(#SVGID_8_);" points="2.25,0 14.25,-4.15 11.95,-11.4 0,-7.25 			
				"/>
		</g>
	</g>
	<g id="Layer_4_1_">
	</g>
</symbol>
<symbol  id="FlashAICB_x5F_0_x2F_Isolation_Mode_x2F__x3C_Group_x3E_" viewBox="0 -56.65 87.8 56.65">
	<g id="Layer_1_9_">
		<g>
			
				<use xlink:href="#FlashAICB_x5F_0_x2F_Isolation_Mode_x2F__x3C_Clip_Group_0_x3E_"  width="87.8" height="56.65" y="-56.65" style="overflow:visible;"/>
		</g>
	</g>
</symbol>
<symbol  id="FlashAICB_x5F_0_x2F_Isolation_Mode_x2F__x3C_Path_x3E_" viewBox="0 -118.15 118.3 118.15">
	<g id="Layer_1_2_">
		
			<radialGradient id="SVGID_9_" cx="59.1499" cy="-59.0752" r="59.1124" gradientTransform="matrix(1 0 0 -1 0 -118.1504)" gradientUnits="userSpaceOnUse">
			<stop  offset="0" style="stop-color:#C9EEE7"/>
			<stop  offset="0.0863" style="stop-color:#BFE7E0"/>
			<stop  offset="0.2392" style="stop-color:#A3D5CF"/>
			<stop  offset="0.4353" style="stop-color:#75B7B2"/>
			<stop  offset="0.6078" style="stop-color:#499996"/>
			<stop  offset="0.8039" style="stop-color:#4A9996"/>
			<stop  offset="0.8745" style="stop-color:#519996"/>
			<stop  offset="0.9255" style="stop-color:#5D9A96"/>
			<stop  offset="0.9686" style="stop-color:#6D9A96"/>
			<stop  offset="1" style="stop-color:#819B96"/>
		</radialGradient>
		<path style="fill-rule:evenodd;clip-rule:evenodd;fill:url(#SVGID_9_);" d="M118.3-59.1c0-16.3-5.767-30.217-17.3-41.75
			c-11.567-11.533-25.517-17.3-41.85-17.3c-16.333,0-30.267,5.767-41.8,17.3C5.783-89.317,0-75.4,0-59.1
			c0,16.333,5.783,30.267,17.35,41.8C28.883-5.767,42.817,0,59.15,0C75.483,0,89.433-5.767,101-17.3
			C112.533-28.833,118.3-42.767,118.3-59.1z"/>
	</g>
</symbol>
<symbol  id="FlashAICB_x5F_1_x2F_Isolation_Mode_x2F__x3C_Group_x3E_" viewBox="0 -61.044 109.5 61.044">
	<g id="Layer_1_10_">
		<g>
			
				<use xlink:href="#FlashAICB_x5F_1_x2F_Isolation_Mode_x2F__x3C_Path_x3E__x5F_1"  width="109.5" height="55.55" y="-55.55" style="overflow:visible;opacity:0.1992;enable-background:new    ;"/>
			
				<use xlink:href="#FlashAICB_x5F_1_x2F_Isolation_Mode_x2F__x3C_Path_x3E_"  width="109.5" height="61.044" y="-61.044" style="overflow:visible;opacity:0.1211;enable-background:new    ;"/>
		</g>
	</g>
</symbol>
<symbol  id="FlashAICB_x5F_1_x2F_Isolation_Mode_x2F__x3C_Path_x3E_" viewBox="0 -61.044 109.5 61.044">
	<g id="Layer_1_7_">
		<path style="fill-rule:evenodd;clip-rule:evenodd;fill:#FFFFFF;" d="M106-34.25c2.333-5.6,3.5-10.883,3.5-15.85
			c0-4.933-1.433-8.033-4.3-9.3c-2.333-1.033-6.25-1.017-11.75,0.05c-7.233,1.733-13.034,3.067-17.4,4
			c-7.966,1.7-15.066,2.55-21.3,2.55c-6.3,0-13.4-0.917-21.3-2.75c-8.3-2.2-14.1-3.667-17.4-4.4c-5.533-1.267-9.45-1.433-11.75-0.5
			C1.433-59.283,0-56.233,0-51.3c0,5.466,1.167,11.1,3.5,16.9c2.467,6.167,5.933,11.717,10.4,16.65C24.533-5.917,38.15,0,54.75,0
			c16.4,0,30.017-5.967,40.85-17.9C100.033-22.8,103.5-28.25,106-34.25z"/>
	</g>
</symbol>
<symbol  id="FlashAICB_x5F_1_x2F_Isolation_Mode_x2F__x3C_Path_x3E__x5F_0" viewBox="0 -56.85 118.2 56.85">
	<g id="Layer_1_8_">
		
			<radialGradient id="SVGID_10_" cx="59.1001" cy="-28.4248" r="46.3724" gradientTransform="matrix(1 0 0 -1 0 -56.8496)" gradientUnits="userSpaceOnUse">
			<stop  offset="0" style="stop-color:#C9EEE7;stop-opacity:0"/>
			<stop  offset="0.0941" style="stop-color:#BFE7E0;stop-opacity:0.0784"/>
			<stop  offset="0.2549" style="stop-color:#A3D5CF;stop-opacity:0.298"/>
			<stop  offset="0.4667" style="stop-color:#75B7B2;stop-opacity:0.6471"/>
			<stop  offset="0.651" style="stop-color:#499996"/>
		</radialGradient>
		<path style="fill-rule:evenodd;clip-rule:evenodd;fill:url(#SVGID_10_);" d="M95.1-30.2c10.633,7.633,18.15,17.617,22.55,29.95
			L118.2,0c-0.6-15.833-6.617-29.267-18.05-40.3c-11.467-11.034-25.167-16.55-41.1-16.55c-15.633,0-29.133,5.333-40.5,16
			C7.217-30.183,1.033-17.133,0-1.7c4.6-11.933,12.15-21.583,22.65-28.95c10.767-7.533,22.75-11.3,35.95-11.3
			C72.067-41.95,84.233-38.033,95.1-30.2z"/>
	</g>
</symbol>
<symbol  id="FlashAICB_x5F_1_x2F_Isolation_Mode_x2F__x3C_Path_x3E__x5F_1" viewBox="0 -55.55 109.5 55.55">
	<g id="Layer_1_6_">
		
			<linearGradient id="SVGID_11_" gradientUnits="userSpaceOnUse" x1="16165.4902" y1="-53.605" x2="16220.9854" y2="-53.605" gradientTransform="matrix(1.800991e-005 1 -1 -0.001 0.854 -16221.1064)">
			<stop  offset="0.1294" style="stop-color:#E5B9B2"/>
			<stop  offset="0.9255" style="stop-color:#FFFFFF"/>
		</linearGradient>
		<path style="fill-rule:evenodd;clip-rule:evenodd;fill:url(#SVGID_11_);" d="M95.6-17.9c4.433-4.9,7.9-10.35,10.4-16.35
			c2.333-5.6,3.5-10.883,3.5-15.85c0-1.733-0.15-3.2-0.45-4.4c-1.867,11-7.25,20.783-16.15,29.35
			c-10.5,10.066-23.217,15.1-38.15,15.1c-15.167,0-27.933-5.034-38.3-15.1c-8.967-8.667-14.3-18.8-16-30.4
			C0.15-54.35,0-52.933,0-51.3c0,5.466,1.167,11.1,3.5,16.9c2.467,6.167,5.933,11.717,10.4,16.65C24.533-5.917,38.15,0,54.75,0
			C71.15,0,84.767-5.967,95.6-17.9z"/>
	</g>
</symbol>
<g>
	<path style="fill-rule:evenodd;clip-rule:evenodd;fill:#68757B;" d="M0,85.35c0-11.567,2.233-22.633,6.7-33.2
		c4.333-10.2,10.45-19.233,18.35-27.1c7.867-7.9,16.9-14.017,27.1-18.35C62.717,2.233,73.783,0,85.35,0
		c11.567,0,22.634,2.233,33.2,6.7c10.2,4.333,19.233,10.45,27.101,18.35c7.899,7.867,14.017,16.9,18.35,27.1
		c4.467,10.567,6.7,21.633,6.7,33.2s-2.233,22.633-6.7,33.2c-4.333,10.2-10.45,19.233-18.35,27.101
		c-7.867,7.899-16.9,14.017-27.101,18.35c-10.566,4.467-21.633,6.7-33.2,6.7c-11.566,0-22.633-2.233-33.2-6.7
		c-10.2-4.333-19.233-10.45-27.1-18.35c-7.9-7.867-14.017-16.9-18.35-27.101C2.233,107.983,0,96.917,0,85.35z"/>
	
		<linearGradient id="SVGID_12_" gradientUnits="userSpaceOnUse" x1="-171.3848" y1="85.3506" x2="-0.6851" y2="85.3506" gradientTransform="matrix(5.859089e-006 -1 1 -0.001 1.466054e-004 -4.747650e-005)">
		<stop  offset="0.0196" style="stop-color:#353746"/>
		<stop  offset="0.251" style="stop-color:#6C6E76;stop-opacity:0.6863"/>
		<stop  offset="0.4941" style="stop-color:#A1A3A3;stop-opacity:0.3922"/>
		<stop  offset="0.7098" style="stop-color:#C7C9C4;stop-opacity:0.1765"/>
		<stop  offset="0.8824" style="stop-color:#DEE1D9;stop-opacity:0.0471"/>
		<stop  offset="0.9882" style="stop-color:#E7E9E0;stop-opacity:0"/>
	</linearGradient>
	<path style="fill-rule:evenodd;clip-rule:evenodd;fill:url(#SVGID_12_);" d="M0,85.95c0-11.567,2.233-22.633,6.7-33.2
		c4.333-10.2,10.45-19.233,18.35-27.1c7.867-7.9,16.9-14.017,27.1-18.35c10.567-4.466,21.633-6.7,33.2-6.7
		c11.567,0,22.634,2.233,33.2,6.7c10.2,4.333,19.233,10.45,27.101,18.35c7.899,7.867,14.017,16.9,18.35,27.1
		c4.467,10.567,6.7,21.633,6.7,33.2c0,11.566-2.233,22.633-6.7,33.2c-4.333,10.199-10.45,19.233-18.35,27.1
		c-7.867,7.9-16.9,14.017-27.101,18.35c-10.566,4.467-21.633,6.7-33.2,6.7c-11.566,0-22.633-2.233-33.2-6.7
		c-10.2-4.333-19.233-10.449-27.1-18.35c-7.9-7.866-14.017-16.9-18.35-27.1C2.233,108.583,0,97.517,0,85.95z"/>
	<g>
		<g>
			
				<linearGradient id="SVGID_13_" gradientUnits="userSpaceOnUse" x1="-157.4854" y1="85.3506" x2="-13.3848" y2="85.3506" gradientTransform="matrix(6.939625e-006 -1 1 -0.001 1.071970e-004 4.449275e-004)">
				<stop  offset="0" style="stop-color:#BCD1DF"/>
				<stop  offset="0.0235" style="stop-color:#BBCEDC;stop-opacity:0.9647"/>
				<stop  offset="0.2784" style="stop-color:#ABB0BF;stop-opacity:0.6353"/>
				<stop  offset="0.502" style="stop-color:#A19DAE;stop-opacity:0.4314"/>
				<stop  offset="0.6549" style="stop-color:#9E96A8;stop-opacity:0.3569"/>
				<stop  offset="1" style="stop-color:#403C5C"/>
			</linearGradient>
			<path style="fill-rule:evenodd;clip-rule:evenodd;fill:url(#SVGID_13_);" d="M18.95,57.3c3.667-8.633,8.816-16.267,15.45-22.9
				s14.267-11.783,22.9-15.45c8.934-3.767,18.284-5.65,28.05-5.65c9.767,0,19.117,1.884,28.051,5.65
				c8.633,3.667,16.267,8.816,22.899,15.45c6.634,6.633,11.783,14.267,15.45,22.9c3.767,8.934,5.65,18.284,5.65,28.05
				c0,9.767-1.884,19.117-5.65,28.05c-3.667,8.633-8.816,16.267-15.45,22.899c-6.633,6.634-14.267,11.783-22.899,15.45
				c-8.934,3.767-18.284,5.65-28.051,5.65c-9.766,0-19.116-1.884-28.05-5.65c-8.633-3.667-16.267-8.816-22.9-15.45
				c-6.633-6.633-11.783-14.267-15.45-22.899c-3.767-8.934-5.65-18.283-5.65-28.05C13.3,75.583,15.183,66.233,18.95,57.3z"/>
		</g>
	</g>
	<g>
		
			<linearGradient id="SVGID_14_" gradientUnits="userSpaceOnUse" x1="-151.2354" y1="85.3506" x2="-19.4849" y2="85.3506" gradientTransform="matrix(7.590133e-006 -1 1 -0.001 9.770805e-006 4.449275e-004)">
			<stop  offset="0.0745" style="stop-color:#3C5350"/>
			<stop  offset="0.1922" style="stop-color:#486D66"/>
			<stop  offset="0.4431" style="stop-color:#67AF9D"/>
			<stop  offset="0.4784" style="stop-color:#6CB9A6"/>
			<stop  offset="0.9216" style="stop-color:#E0D1B7"/>
		</linearGradient>
		<path style="fill-rule:evenodd;clip-rule:evenodd;fill:url(#SVGID_14_);" d="M85.35,19.4c18.167,0,33.7,6.434,46.601,19.3
			c12.866,12.9,19.3,28.433,19.3,46.6c0,18.167-6.434,33.684-19.3,46.55c-12.9,12.867-28.434,19.301-46.601,19.301
			c-18.167,0-33.683-6.434-46.55-19.301C25.9,118.95,19.45,103.434,19.45,85.3c0-18.167,6.45-33.7,19.35-46.6
			C51.667,25.833,67.183,19.4,85.35,19.4z"/>
		<path style="fill-rule:evenodd;clip-rule:evenodd;fill:#1C3330;" d="M85.35,20.25c-17.966,0-33.3,6.35-46,19.05
			C26.65,52,20.3,67.333,20.3,85.3c0,17.967,6.35,33.3,19.05,46c12.7,12.7,28.033,19.05,46,19.05c17.967,0,33.301-6.35,46-19.05
			c12.7-12.7,19.051-28.033,19.051-46c0-17.966-6.351-33.3-19.051-46C118.65,26.6,103.316,20.25,85.35,20.25z M18.65,85.3
			c0-8.933,1.684-17.45,5.05-25.55c3.366-8.133,8.2-15.35,14.5-21.65c6.3-6.267,13.517-11.083,21.65-14.45
			c8.1-3.367,16.6-5.05,25.5-5.05c8.9,0,17.417,1.683,25.551,5.05c8.1,3.367,15.3,8.184,21.6,14.45
			c6.3,6.3,11.133,13.517,14.5,21.65c3.366,8.1,5.05,16.617,5.05,25.55c0,8.9-1.684,17.417-5.05,25.55
			c-3.367,8.101-8.2,15.301-14.5,21.601s-13.5,11.133-21.6,14.5c-8.134,3.366-16.65,5.05-25.551,5.05
			c-8.899,0-17.399-1.684-25.5-5.05c-8.133-3.367-15.35-8.2-21.65-14.5c-6.3-6.3-11.134-13.5-14.5-21.601
			C20.333,102.717,18.65,94.2,18.65,85.3z"/>
	</g>
</g>
<use xlink:href="#FlashAICB_x5F_0_x2F_Isolation_Mode_x2F__x3C_Path_x3E_"  width="118.3" height="118.15" y="-118.15" transform="matrix(1 0 0 -1 26.0498 26.3999)" style="overflow:visible;opacity:0.3789;enable-background:new    ;"/>
<g>
	<g>
		<path style="fill-rule:evenodd;clip-rule:evenodd;fill:#BCE7DC;" d="M71.5,39.65V58.5c0,0.8-0.233,1.434-0.7,1.9
			c-0.466,0.467-1.066,0.7-1.8,0.7s-1.316-0.233-1.75-0.7c-0.467-0.466-0.7-1.1-0.7-1.9V41.9H64.6c-0.733,0-1.317-0.233-1.75-0.7
			c-0.367-0.434-0.55-0.967-0.55-1.6c0-0.6,0.2-1.133,0.6-1.6c0.434-0.467,1-0.7,1.7-0.7h4.7c0.667,0,1.217,0.233,1.65,0.7
			C71.316,38.434,71.5,38.983,71.5,39.65z"/>
		<path style="fill-rule:evenodd;clip-rule:evenodd;fill:#BCE7DC;" d="M89.8,43c0,2.233-0.916,3.917-2.75,5.05
			c1.233,0.567,2.217,1.367,2.95,2.4c0.733,1.066,1.1,2.233,1.1,3.5c0,2.033-0.8,3.767-2.399,5.2c-1.634,1.434-3.617,2.15-5.95,2.15
			c-2.3,0-4.233-0.716-5.8-2.15c-1.434-1.267-2.15-2.633-2.15-4.1c0-0.6,0.284-1.116,0.85-1.55c0.5-0.433,1.067-0.65,1.7-0.65
			s1.367,0.65,2.2,1.95c0.8,1.267,1.884,1.9,3.25,1.9c0.867,0,1.617-0.284,2.25-0.85c0.601-0.6,0.9-1.333,0.9-2.2
			c0-1.6-0.934-2.55-2.8-2.85c-1.9-0.3-2.85-1.066-2.85-2.3c0-1.133,0.784-1.9,2.35-2.3c1.567-0.4,2.35-1.233,2.35-2.5
			c0-0.633-0.217-1.15-0.65-1.55c-0.434-0.433-1-0.65-1.7-0.65c-1.133,0-2.083,0.55-2.85,1.65c-0.767,1.067-1.483,1.6-2.15,1.6
			c-0.633,0-1.167-0.25-1.6-0.75c-0.366-0.5-0.55-1.066-0.55-1.7c0-1.3,0.75-2.517,2.25-3.65c1.5-1.167,3.167-1.75,5-1.75
			c2.2,0,3.967,0.7,5.3,2.1C89.217,40.167,89.8,41.5,89.8,43z"/>
		<path style="fill-rule:evenodd;clip-rule:evenodd;fill:#BCE7DC;" d="M93.25,39.6c0-0.633,0.184-1.167,0.55-1.6
			c0.434-0.467,1.067-0.7,1.9-0.7h12c0.767,0,1.383,0.3,1.85,0.9c0.367,0.466,0.55,0.966,0.55,1.5c0,0.333-0.267,1.066-0.8,2.2
			l-8.2,16.7c-0.5,1-0.883,1.65-1.149,1.95c-0.4,0.367-0.95,0.55-1.65,0.55c-0.833,0-1.517-0.267-2.05-0.8
			c-0.467-0.5-0.7-1.017-0.7-1.55c0-0.333,0.117-0.717,0.351-1.15l8.3-15.7h-8.5c-0.833,0-1.467-0.233-1.9-0.7
			C93.434,40.767,93.25,40.233,93.25,39.6z"/>
	</g>
	<g>
		
			<linearGradient id="SVGID_15_" gradientUnits="userSpaceOnUse" x1="-60.1675" y1="66.9023" x2="-36.3925" y2="66.9023" gradientTransform="matrix(4.206099e-005 -1 1 -0.001 1.681365e-004 4.449275e-004)">
			<stop  offset="0" style="stop-color:#0E2924"/>
			<stop  offset="0.4549" style="stop-color:#1D413D"/>
			<stop  offset="0.9686" style="stop-color:#31615F"/>
		</linearGradient>
		<path style="fill-rule:evenodd;clip-rule:evenodd;fill:url(#SVGID_15_);" d="M71.5,38.65V57.5c0,0.8-0.233,1.434-0.7,1.9
			c-0.466,0.467-1.066,0.7-1.8,0.7s-1.316-0.233-1.75-0.7c-0.467-0.466-0.7-1.1-0.7-1.9V40.9H64.6c-0.733,0-1.317-0.25-1.75-0.75
			c-0.367-0.433-0.55-0.95-0.55-1.55s0.2-1.133,0.6-1.6c0.434-0.467,1-0.7,1.7-0.7h4.7c0.667,0,1.217,0.233,1.65,0.7
			C71.316,37.434,71.5,37.983,71.5,38.65z"/>
		
			<linearGradient id="SVGID_16_" gradientUnits="userSpaceOnUse" x1="-60.3813" y1="82.9526" x2="-36.0063" y2="82.9526" gradientTransform="matrix(4.102564e-005 -1 1 -0.001 7.536012e-005 4.449275e-004)">
			<stop  offset="0" style="stop-color:#0E2924"/>
			<stop  offset="0.4549" style="stop-color:#1D413D"/>
			<stop  offset="0.9686" style="stop-color:#31615F"/>
		</linearGradient>
		<path style="fill-rule:evenodd;clip-rule:evenodd;fill:url(#SVGID_16_);" d="M89.8,41.95c0,2.267-0.916,3.966-2.75,5.1
			c1.233,0.567,2.217,1.367,2.95,2.4c0.733,1.066,1.1,2.233,1.1,3.5c0,2.033-0.8,3.767-2.399,5.2c-1.634,1.434-3.617,2.15-5.95,2.15
			c-2.3,0-4.233-0.716-5.8-2.15c-1.434-1.267-2.15-2.633-2.15-4.1c0-0.633,0.284-1.167,0.85-1.6c0.5-0.4,1.067-0.6,1.7-0.6
			s1.367,0.65,2.2,1.95c0.8,1.267,1.884,1.9,3.25,1.9c0.867,0,1.617-0.284,2.25-0.85c0.601-0.6,0.9-1.333,0.9-2.2
			c0-1.6-0.934-2.55-2.8-2.85c-1.9-0.3-2.85-1.066-2.85-2.3c0-1.133,0.784-1.9,2.35-2.3c1.567-0.4,2.35-1.233,2.35-2.5
			c0-0.633-0.217-1.15-0.65-1.55c-0.434-0.433-1-0.65-1.7-0.65c-1.133,0-2.083,0.55-2.85,1.65c-0.767,1.067-1.483,1.6-2.15,1.6
			c-0.633,0-1.167-0.25-1.6-0.75c-0.366-0.5-0.55-1.066-0.55-1.7c0-1.3,0.75-2.517,2.25-3.65c1.5-1.167,3.167-1.75,5-1.75
			c2.2,0,3.967,0.684,5.3,2.05C89.217,39.15,89.8,40.483,89.8,41.95z"/>
		
			<linearGradient id="SVGID_17_" gradientUnits="userSpaceOnUse" x1="-60.1968" y1="101.6768" x2="-36.4218" y2="101.6768" gradientTransform="matrix(4.206099e-005 -1 1 -0.001 1.681365e-004 4.449275e-004)">
			<stop  offset="0" style="stop-color:#0E2924"/>
			<stop  offset="0.4549" style="stop-color:#1D413D"/>
			<stop  offset="0.9686" style="stop-color:#31615F"/>
		</linearGradient>
		<path style="fill-rule:evenodd;clip-rule:evenodd;fill:url(#SVGID_17_);" d="M93.25,38.6c0-0.633,0.184-1.167,0.55-1.6
			c0.434-0.467,1.067-0.7,1.9-0.7h12c0.767,0,1.383,0.3,1.85,0.9c0.367,0.466,0.55,0.966,0.55,1.5c0,0.333-0.267,1.066-0.8,2.2
			l-8.2,16.7c-0.5,1-0.883,1.65-1.149,1.95c-0.4,0.367-0.95,0.55-1.65,0.55c-0.833,0-1.517-0.267-2.05-0.8
			c-0.467-0.5-0.7-1.017-0.7-1.55c0-0.333,0.117-0.717,0.351-1.15l8.3-15.7h-8.5c-0.833,0-1.467-0.25-1.9-0.75
			C93.434,39.75,93.25,39.233,93.25,38.6z"/>
	</g>
</g>
<g>
	<path style="fill-rule:evenodd;clip-rule:evenodd;fill:#DAEFE8;" d="M38.65,93.25c2.8-1.2,14.034-5.05,33.7-11.55l-0.1-2.75
		c0.066-1.8,0.7-3.3,1.9-4.5c1.167-1.2,2.567-1.75,4.2-1.65l1.25,0.15L79.8,73h0.15l0.5,0.15h0.15l1.25,0.35l0.3,0.05l0.6,0.2
		c2.233,0.733,4.316,1.633,6.25,2.7c2.566-0.567,4.934-0.7,7.1-0.4c0.5,0.067,1.584,0.284,3.25,0.65c1.967,0.533,4.018,1.2,6.15,2
		c1.566,0.566,2.816,0.85,3.75,0.85c1.233,0,2.2-0.066,2.9-0.2c0.467-0.1,0.699-0.184,0.699-0.25l0.351-0.4
		c1.366-1.733,2.866-2.967,4.5-3.7c2.967-1.367,5.934-1.85,8.899-1.45c2.801,0.367,4.983,1.467,6.551,3.3
		c2,2.2,2.517,6.167,1.55,11.9c-0.134,0.7-0.351,1.45-0.65,2.25c1.533,1.267,2.467,2.884,2.8,4.85c0.301,1.4,0.384,3.067,0.25,5
		c-0.133,1.601-0.366,3.034-0.699,4.301c-0.5,1.899-1.4,3.483-2.7,4.75c-0.967,0.899-2.617,2.033-4.95,3.399
		c-2.9,1.733-8.667,4.483-17.3,8.25l-19.351,8.4l-0.449,0.25c-1.533,0.833-2.733,1.417-3.601,1.75
		c-0.967,0.399-2.033,0.717-3.2,0.95l-1.6,0.25c-1.434,0.199-3,0.183-4.7-0.051c-2.366-0.3-4.7-1.017-7-2.149
		c-4.2-1.967-9.933-4.717-17.2-8.25c-7.2-3.533-11.65-5.75-13.35-6.65l-0.55-0.3c-2.367-1.267-4.034-2.366-5-3.3
		c-1.667-1.601-2.5-3.483-2.5-5.65c0.066-3.3,0.4-5.983,1-8.05C34.517,96.217,36.083,94.384,38.65,93.25z"/>
	<g>
		
			<linearGradient id="SVGID_18_" gradientUnits="userSpaceOnUse" x1="-132.0313" y1="85.2437" x2="-71.3164" y2="85.2437" gradientTransform="matrix(1.647447e-005 -1 1 -0.001 -2.254475e-004 4.458711e-004)">
			<stop  offset="0" style="stop-color:#037A6A"/>
			<stop  offset="0.7098" style="stop-color:#9ADEB8"/>
		</linearGradient>
		<path style="fill-rule:evenodd;clip-rule:evenodd;fill:url(#SVGID_18_);" d="M78.55,71.25l1.25,0.15l1.65,0.35l0.65,0.2L82.35,72
			L83,72.2c2.066,0.667,4.15,1.583,6.25,2.75c2.434-0.6,4.783-0.75,7.05-0.45c0.667,0.067,1.767,0.3,3.3,0.7
			c1.733,0.466,3.784,1.117,6.15,1.95c0.934,0.367,1.6,0.583,2,0.65c0.5,0.134,1.05,0.2,1.65,0.2c1.933,0,3.133-0.133,3.6-0.4
			l0.15-0.25l0.149-0.15c1.434-1.767,2.95-3.017,4.55-3.75c2.967-1.4,5.95-1.883,8.95-1.45c2.834,0.367,5.033,1.483,6.601,3.35
			c2.1,2.2,2.633,6.183,1.6,11.95c-0.133,0.8-0.333,1.533-0.6,2.2c1.533,1.333,2.449,2.967,2.75,4.9
			c0.333,1.399,0.416,3.083,0.25,5.05c-0.134,1.6-0.367,3.033-0.7,4.3c-0.5,1.9-1.417,3.5-2.75,4.8
			c-0.967,0.934-2.617,2.084-4.95,3.45c-2.633,1.566-8.417,4.316-17.35,8.25l-4.25,1.85l-0.15,0.051L92,128.8l-0.1,0.101
			c-1.334,0.733-2.533,1.316-3.601,1.75c-1.3,0.467-2.383,0.783-3.25,0.949l-1.6,0.25c-0.934,0.067-1.634,0.101-2.1,0.101
			c-0.867,0-1.75-0.05-2.65-0.15c-2.4-0.366-4.733-1.083-7-2.149c-4.333-2.033-10.067-4.783-17.2-8.25
			c-7.267-3.567-11.717-5.801-13.35-6.7l-0.6-0.3c-2.366-1.267-4.033-2.367-5-3.301c-1.667-1.633-2.517-3.533-2.55-5.699
			c0.1-3.467,0.45-6.167,1.05-8.101c0.534-2.566,2.117-4.433,4.75-5.6c2.567-1.101,13.784-4.934,33.65-11.5
			c-0.1-0.967-0.15-1.867-0.15-2.7c0.067-1.833,0.717-3.35,1.95-4.55C75.483,71.717,76.917,71.15,78.55,71.25z"/>
		<path style="fill-rule:evenodd;clip-rule:evenodd;fill:none;stroke:#DAEFE8;stroke-width:0.25;" d="M78.55,71.25l1.25,0.15
			l1.65,0.35l0.65,0.2L82.35,72L83,72.2c2.066,0.667,4.15,1.583,6.25,2.75c2.434-0.6,4.783-0.75,7.05-0.45
			c0.667,0.067,1.767,0.3,3.3,0.7c1.733,0.466,3.784,1.117,6.15,1.95c0.934,0.367,1.6,0.583,2,0.65c0.5,0.134,1.05,0.2,1.65,0.2
			c1.933,0,3.133-0.133,3.6-0.4l0.15-0.25l0.149-0.15c1.434-1.767,2.95-3.017,4.55-3.75c2.967-1.4,5.95-1.883,8.95-1.45
			c2.834,0.367,5.033,1.483,6.601,3.35c2.1,2.2,2.633,6.183,1.6,11.95c-0.133,0.8-0.333,1.533-0.6,2.2
			c1.533,1.333,2.449,2.967,2.75,4.9c0.333,1.399,0.416,3.083,0.25,5.05c-0.134,1.6-0.367,3.033-0.7,4.3
			c-0.5,1.9-1.417,3.5-2.75,4.8c-0.967,0.934-2.617,2.084-4.95,3.45c-2.633,1.566-8.417,4.316-17.35,8.25l-4.25,1.85l-0.15,0.051
			L92,128.8l-0.1,0.101c-1.334,0.733-2.533,1.316-3.601,1.75c-1.3,0.467-2.383,0.783-3.25,0.949l-1.6,0.25
			c-0.934,0.067-1.634,0.101-2.1,0.101c-0.867,0-1.75-0.05-2.65-0.15c-2.4-0.366-4.733-1.083-7-2.149
			c-4.333-2.033-10.067-4.783-17.2-8.25c-7.267-3.567-11.717-5.801-13.35-6.7l-0.6-0.3c-2.366-1.267-4.033-2.367-5-3.301
			c-1.667-1.633-2.517-3.533-2.55-5.699c0.1-3.467,0.45-6.167,1.05-8.101c0.534-2.566,2.117-4.433,4.75-5.6
			c2.567-1.101,13.784-4.934,33.65-11.5c-0.1-0.967-0.15-1.867-0.15-2.7c0.067-1.833,0.717-3.35,1.95-4.55
			C75.483,71.717,76.917,71.15,78.55,71.25z"/>
	</g>
	<path style="fill-rule:evenodd;clip-rule:evenodd;fill:#193330;" d="M38.65,98.55c0.067-0.866,0.667-1.55,1.8-2.05
		c2.566-1.1,15-5.333,37.3-12.7c-0.1-0.233-0.15-0.517-0.15-0.85l-0.3-1.85c-0.133-2.367-0.2-3.567-0.2-3.6c0-0.333,0.1-0.6,0.3-0.8
		c0.2-0.2,0.45-0.3,0.75-0.3L79,76.55h0.2l0.35,0.1h0.15l1.9,0.55c2.233,0.7,4.517,1.767,6.85,3.2c2.833-0.767,5.233-1.017,7.2-0.75
		c0.866,0.133,1.783,0.317,2.75,0.55c1.633,0.433,3.533,1.05,5.699,1.85c1.134,0.434,1.983,0.717,2.551,0.85
		c0.866,0.2,1.783,0.3,2.75,0.3c2.399-0.034,4.183-0.317,5.35-0.85c0.733-0.333,1.45-0.95,2.15-1.85c0.899-1.1,1.8-1.867,2.699-2.3
		c2.167-1,4.334-1.367,6.5-1.1c1.768,0.267,3.051,0.9,3.851,1.9c0.967,0.9,1.083,3.383,0.35,7.45c-0.133,0.7-0.316,1.25-0.55,1.649
		c-0.233,0.334-0.667,0.768-1.3,1.301c-0.7,0.666-1.601,1.116-2.7,1.35L126.4,91c1.967,0.8,3.316,1.417,4.05,1.85
		c1.267,0.801,1.95,1.7,2.05,2.7c0.2,0.867,0.25,2.033,0.15,3.5c-0.067,1.267-0.233,2.384-0.5,3.351
		c-0.233,0.967-0.684,1.767-1.351,2.399c-0.666,0.601-1.983,1.483-3.95,2.65c-2.6,1.533-8.232,4.2-16.899,8L90.5,123.9l-0.8,0.449
		c-1.033,0.601-2,1.084-2.9,1.45c-0.967,0.334-1.8,0.567-2.5,0.7l-1.25,0.2c-1.066,0.133-2.283,0.116-3.65-0.05
		c-1.767-0.233-3.683-0.817-5.75-1.75c-4.4-2.067-10.083-4.801-17.05-8.2c-7.233-3.533-11.65-5.733-13.25-6.601l-0.6-0.35
		c-1.7-0.9-2.883-1.633-3.55-2.2c-0.934-0.767-1.417-1.533-1.45-2.3C37.883,102.083,38.184,99.85,38.65,98.55z"/>
	<g>
		<path style="fill-rule:evenodd;clip-rule:evenodd;fill:#AA8341;" d="M62.1,93.45c13.4-2.533,20.383-3.884,20.95-4.05
			c3.967-1.301,6.851-2.051,8.65-2.25c1.6-0.167,3.467,0.033,5.6,0.6c1.467,0.4,3.634,1.117,6.5,2.15
			c1.601,0.6,3.167,0.899,4.7,0.899c3.5,0,5.85-0.816,7.05-2.45c0.3-0.466,0.7-1.149,1.2-2.05c0.5-0.767,1.1-1.316,1.8-1.65
			c1-0.433,2.917-1.517,5.75-3.25c2.533-1.367,4.2-1.85,5-1.45c0.367,0.233,0.517,1.2,0.45,2.9c-0.066,1.267-0.2,2.467-0.4,3.6
			c-0.1,0.533-0.232,0.934-0.399,1.2c-0.134,0.233-0.483,0.6-1.05,1.1c-1.233,1.066-3.533,1.483-6.9,1.25
			c-3.066-0.2-5,0.283-5.8,1.45c-0.367,0.533,1.967,1.1,7,1.7c5.467,0.666,8.483,1.383,9.05,2.149c0.4,0.533,0.55,1.617,0.45,3.25
			c-0.066,1.4-0.25,2.65-0.55,3.75c-0.2,0.733-0.551,1.351-1.051,1.851c-0.6,0.566-1.85,1.399-3.75,2.5
			c-2.866,1.666-9.449,4.733-19.75,9.199c-10.1,4.334-15.616,6.717-16.55,7.15c-3.2,1.5-5.033,2.3-5.5,2.4
			c-3.3,0.767-6.816,0.267-10.55-1.5c-4.333-2.033-10.066-4.817-17.2-8.351c-7.066-3.467-11.417-5.649-13.05-6.55s-2.7-1.5-3.2-1.8
			c-1.2-0.833-1.8-1.533-1.8-2.101c0-0.8,0.083-1.949,0.25-3.449c0.267-2.134,0.583-3.267,0.95-3.4
			C41.783,97.45,49.167,95.85,62.1,93.45z"/>
		<path style="fill-rule:evenodd;clip-rule:evenodd;fill:#927137;" d="M79.9,125.65l1.05-7.351l-4.6-0.149l-1.1,6.35
			c-0.5-0.167-1.083-0.417-1.75-0.75l-0.85-0.4l0.6-6.55l-3-1.399l-1.4,6.149l-1.65-0.75l0.55-7.149l-1.5-2.801L63,111.95l-1.5,6
			c-1.233-0.667-2.167-1.134-2.8-1.4l1.35-6l-4.55-3.45l-1.2,0.65l-0.8,6.1l-1.65-0.75l1.2-7.149l-3.85-0.65l-1,6.05l-1.1-0.449
			l1.1-6.101l-1.45-2.149l-1.4,0.699l-1.1,5.9l-1.5-0.75l1.2-5.9l-1.9-1.1l-0.85,6.05c-1.034-0.6-1.6-0.95-1.7-1.05l0.9-7.05
			L61.95,99.1l16.9,8l4.4,11.75l1.5,6.601C83.25,125.783,81.633,125.85,79.9,125.65z"/>
		<path style="fill-rule:evenodd;clip-rule:evenodd;fill:#8A692E;" d="M108.65,90.8c3.399-0.033,5.699-0.866,6.899-2.5
			c0.334-0.433,0.733-1.1,1.2-2c0.5-0.767,1.1-1.316,1.8-1.65c1-0.433,2.917-1.5,5.75-3.2c0.067,0.066,0.084,0.183,0.05,0.35
			c-0.033,0.233-0.166,0.4-0.399,0.5c-4.7,2.567-5.25,5.15-1.65,7.75c-2.533-0.1-3.899-0.133-4.1-0.1c-1.4,0.1-2.4,0.6-3,1.5
			c-0.367,0.533,1.967,1.1,7,1.7c5.467,0.666,8.483,1.383,9.05,2.149c0.4,0.533,0.55,1.617,0.45,3.25
			c-0.066,1.4-0.25,2.65-0.55,3.75c-0.2,0.733-0.551,1.351-1.051,1.851c-0.6,0.566-1.85,1.399-3.75,2.5
			c-2.866,1.666-9.449,4.733-19.75,9.199c-10.1,4.334-15.616,6.717-16.55,7.15c-1.166,0.7-2.217,1.25-3.149,1.65
			c-1.767,0.767-3.567,1.133-5.4,1.1c0.3-0.333,0.517-0.717,0.65-1.15c0.034-0.166,0.2-1.033,0.5-2.6c0.534-2.9,0.534-5.8,0-8.7
			l-1-3.5l8.95-6.399C97.566,98.434,103.583,94.233,108.65,90.8z"/>
		<path style="fill-rule:evenodd;clip-rule:evenodd;fill:#7B5D29;" d="M120.6,108.85c5-2.333,8.034-4.116,9.101-5.35
			c1.2-1.4,1.783-3.983,1.75-7.75c0.267,0.7,0.35,1.767,0.25,3.2c-0.101,1.267-0.283,2.383-0.55,3.35
			c-0.2,0.733-0.551,1.351-1.051,1.851c-0.6,0.566-1.85,1.399-3.75,2.5c-2.866,1.666-9.449,4.733-19.75,9.199
			c-10.1,4.334-15.616,6.717-16.55,7.15c-1.166,0.7-2.217,1.25-3.149,1.65c-1.767,0.767-3.567,1.133-5.4,1.1
			c0.3-0.366,0.483-0.65,0.55-0.85c0.367-0.033,1.017-0.117,1.95-0.25c1.033-0.233,2.384-0.717,4.05-1.45
			c1.8-0.8,7.3-3.217,16.5-7.25C112.384,112.55,117.733,110.184,120.6,108.85z"/>
		<path style="fill-rule:evenodd;clip-rule:evenodd;fill:#E3B666;" d="M118.15,80.8c0.533-0.667,1.149-1.15,1.85-1.45
			c3.033-1.4,5.7-1.55,8-0.45c2.267,1.1,2.45,2.45,0.55,4.05c-1.233,1.033-3.399,1.683-6.5,1.95c-2.767,0.233-4.55,0.95-5.35,2.15
			c-0.467,0.7,0.649,1.65,3.35,2.851c1.434,0.633,3.434,1.399,6,2.3c3,1.167,4.75,2.184,5.25,3.05c0.8,1.367-0.566,3.033-4.1,5
			c-2.867,1.566-9.45,4.6-19.75,9.1c-10.101,4.367-15.617,6.768-16.55,7.2c-2.7,1.334-4.551,2.117-5.551,2.351
			c-3.3,0.733-6.833,0.199-10.6-1.601c-4.667-2.2-10.383-4.95-17.15-8.25c-7.1-3.467-11.417-5.616-12.95-6.45
			c-2.233-1.267-3.617-2.116-4.15-2.55c-1.267-1.1-1.167-1.967,0.3-2.6c3.2-1.367,17.567-6.2,43.1-14.5
			c3.933-1.3,6.817-2.034,8.65-2.2c1.601-0.167,3.467,0.033,5.601,0.6c1.433,0.367,3.6,1.083,6.5,2.15c1.633,0.6,3.217,0.9,4.75,0.9
			c3.5,0,5.933-0.65,7.3-1.95C117.066,82.083,117.55,81.533,118.15,80.8z"/>
		<path style="fill-rule:evenodd;clip-rule:evenodd;fill:#CEA353;" d="M75.75,88.35c-5.566,0.101-9.733,1.184-12.5,3.25
			c-2.633,2.768-4.967,4.9-7,6.4c-2.4,1.8-6.033,3.45-10.9,4.95l-1.4-0.75c4.966-1.4,8.6-3.066,10.9-5
			c3.267-2.733,5.683-4.617,7.25-5.65c2.833-1.899,5.517-3.083,8.05-3.55c1.434-0.267,4.817-0.684,10.15-1.25
			c4.567-0.5,7.867-1.033,9.9-1.6c2.1-0.566,4.616-1.867,7.55-3.9l1.3,0.35c-3.166,2.2-6.149,3.767-8.95,4.7
			C86.333,87.566,81.55,88.25,75.75,88.35z"/>
		<path style="fill-rule:evenodd;clip-rule:evenodd;fill:#CEA353;" d="M80.15,94.45c2.3-1,4.233-1.967,5.8-2.9l4.2-3.149
			c2.366-1.733,5.633-3.917,9.8-6.55l1.35,0.45c-1.267,0.9-4.25,3.367-8.95,7.4c-3.6,3.1-6.482,5.184-8.649,6.25
			c-3.2,1.566-7.467,2.866-12.8,3.899c-3.566,0.667-8.05,1.268-13.45,1.801c-2.9,0.267-5.667,1.35-8.3,3.25l-1-0.551
			c2.534-1.366,5.4-2.6,8.6-3.699c3.833-1.301,7.483-2.15,10.95-2.551C71.4,97.667,75.55,96.45,80.15,94.45z"/>
		<path style="fill-rule:evenodd;clip-rule:evenodd;fill:#CEA353;" d="M47.55,96.8c1.034-0.633,2.767-1.833,5.2-3.6l8.45-2.8
			l-3.1,2.1c-3.233,2.267-5.767,3.917-7.6,4.95c-1.7,0.934-4.017,1.983-6.95,3.149L42,101.1c-0.967-0.566-1.6-1.066-1.9-1.5
			l1.95-0.449C43.783,98.75,45.617,97.967,47.55,96.8z"/>
		<path style="fill-rule:evenodd;clip-rule:evenodd;fill:#CEA353;" d="M85.85,82.35H85.9c3.5,0,6.233-0.567,8.199-1.7l1.2,0.1
			c-2.233,1.567-4.833,2.667-7.8,3.3c-2.4,0.5-5.583,0.784-9.55,0.85L85.85,82.35z"/>
		<path style="fill-rule:evenodd;clip-rule:evenodd;fill:#CEA353;" d="M130.4,94.3c0.533,0.4,0.883,0.834,1.05,1.3
			c-3.601,1.034-6.267,3.217-8,6.551l-4.851,2.25C120.934,99.533,124.867,96.167,130.4,94.3z"/>
		<path style="fill-rule:evenodd;clip-rule:evenodd;fill:#CEA353;" d="M97.75,94.35c1.533-1.3,3.75-3.216,6.65-5.75
			c2.566-2.033,5.05-3.483,7.449-4.35c1.834-0.167,3.217-0.583,4.15-1.25c4.6-1.4,8.233-2.883,10.9-4.45
			c0.633,0.167,1.133,0.367,1.5,0.6l-1.15,0.75c-1.7,1.133-4.917,2.417-9.65,3.85c-4.767,1.434-8.083,2.75-9.949,3.95
			c-1.867,1.2-4.483,3.5-7.851,6.899c-3.5,3.601-6.267,6.101-8.3,7.5c-2.633,1.834-6.617,3.351-11.95,4.551
			c-2.233,0.5-5.783,1.116-10.65,1.85c-1.767,0.267-3.75,1.283-5.95,3.05l-2.9-1.399c1.7-1.134,3.733-2.067,6.1-2.801
			c2.9-0.899,5.934-1.399,9.1-1.5c3.967-0.1,8.217-1.482,12.75-4.149C90.9,99.967,94.15,97.517,97.75,94.35z"/>
		<path style="fill-rule:evenodd;clip-rule:evenodd;fill:#CEA353;" d="M110.1,97.25c2.567-3.2,5.567-5.8,9-7.8
			c0.867,0.399,1.9,0.833,3.101,1.3c-2.2,1.267-4.851,3.384-7.95,6.35c-3.633,3.634-6.434,6.351-8.4,8.15
			c-3.366,3.134-6.966,5.233-10.8,6.3c-4.767,0.9-8.666,1.684-11.7,2.351c-2.633,0.6-4.983,1.883-7.05,3.85
			c-0.866-0.333-1.517-0.616-1.95-0.85l-1.1-0.5c2.033-1.434,4.767-2.634,8.2-3.601c2-0.533,5.217-1.316,9.649-2.35
			c4.167-1.134,7.95-2.967,11.351-5.5C105.05,102.983,107.6,100.417,110.1,97.25z"/>
		<path style="fill-rule:evenodd;clip-rule:evenodd;fill:#CEA353;" d="M82.8,98c5.3-2.3,9.45-5.133,12.45-8.5
			c2.566-2.9,5.3-5.05,8.2-6.45c1.399,0.534,2.467,0.884,3.2,1.05c-2.834,1.333-5.884,3.4-9.15,6.2c-3.866,3.3-6.767,5.55-8.7,6.75
			c-3.833,2.367-7.716,4.101-11.65,5.2c-3.2,0.9-7.45,1.617-12.75,2.15c-4.2,0.399-7.583,1.383-10.15,2.949l-1.75-0.85
			c3.333-2.133,8.017-3.55,14.05-4.25C72.383,101.55,77.8,100.134,82.8,98z"/>
		<path style="fill-rule:evenodd;clip-rule:evenodd;fill:#CEA353;" d="M125.6,92.05l1.9,0.75c-2.533,0.834-5.316,2.767-8.35,5.8
			c-2.467,2.5-4.767,5.384-6.9,8.65c-13.1,5.667-20.217,8.767-21.35,9.3c-1.801,0.867-3.051,1.417-3.75,1.65
			c-2.134,0.667-4.334,0.866-6.601,0.6c2.4-1.866,5.967-3.383,10.7-4.55c5.267-1.3,8.566-2.316,9.9-3.05
			c5.166-2.967,10.967-8.066,17.399-15.3C120.15,94.1,122.5,92.816,125.6,92.05z"/>
		<path style="fill-rule:evenodd;clip-rule:evenodd;fill:#CEA353;" d="M104.8,96.15c2.5-2.233,5.45-5.051,8.851-8.45
			c1.833-1.733,7.033-4.333,15.6-7.8c0.333,0.434,0.45,0.917,0.35,1.45c-1.833,0.333-3.433,0.833-4.8,1.5
			c-0.899,0.4-2.116,1.117-3.649,2.15c-2.167,0.233-3.65,0.917-4.45,2.05c-0.167,0.267-0.066,0.617,0.3,1.05
			c-3.467,2.768-7.467,6.4-12,10.9c-3.333,3.4-6.717,5.833-10.15,7.3c-2.633,1.134-7.033,2.3-13.2,3.5
			c-5.066,1-8.867,2.733-11.4,5.2l-2.7-1.3c3.833-1.7,8.3-3.467,13.4-5.3c2.833-1.033,6.816-2.45,11.95-4.25
			C96.134,102.95,100.1,100.283,104.8,96.15z"/>
		<path style="fill-rule:evenodd;clip-rule:evenodd;fill:#CEA353;" d="M63.3,96.6c-0.167-0.166-0.25-0.433-0.25-0.8
			c0-0.7,0.384-1.566,1.15-2.6c0.8-1,1.65-1.717,2.55-2.15c1.5-0.767,3.717-1.233,6.65-1.399c3.967-0.267,6.55-0.15,7.75,0.35
			c1.233,0.5,0.9,1.3-1,2.4c-2,1.166-4.316,2.166-6.95,3c-2.733,0.866-4.55,1.149-5.45,0.85c-1-0.333-1.15-1.066-0.45-2.2
			c0.7-1.133,1.884-1.899,3.55-2.3c1.966-0.434,3.35-0.65,4.15-0.65c1.033-0.033,1.467,0.233,1.3,0.801
			c-0.233,0.767-1.366,1.283-3.4,1.55c1.733-0.367,2.117-0.717,1.15-1.05c-0.733-0.267-1.5-0.283-2.3-0.051
			c-0.833,0.268-1.4,0.717-1.7,1.351c-0.333,0.667,0.017,0.983,1.05,0.95c1.033-0.033,2.367-0.4,4-1.101
			c2.033-0.866,3.183-1.383,3.45-1.55c0.534-0.4,0.317-0.783-0.65-1.15c-1.133-0.433-2.55-0.55-4.25-0.35
			c-1.9,0.233-3.917,0.85-6.05,1.85c-1.067,0.534-2.1,1.4-3.1,2.601L63.3,96.6z"/>
		
			<use xlink:href="#FlashAICB_x5F_0_x2F_Isolation_Mode_x2F__x3C_Clip_Group_0_x3E__x5F_1"  width="14.25" height="11.4" y="-11.4" transform="matrix(1 0 0 -1 117.4004 76.2002)" style="overflow:visible;"/>
		
			<use xlink:href="#FlashAICB_x5F_0_x2F_Isolation_Mode_x2F__x3C_Group_x3E_"  width="87.8" height="56.65" y="-56.65" transform="matrix(1 0 0 -1 45.9502 68.75)" style="overflow:visible;opacity:0.0898;enable-background:new    ;"/>
		<path style="fill-rule:evenodd;clip-rule:evenodd;fill:#6E4123;" d="M83.9,82.95l5.8,4.6c4.167,3.334,7.033,5.7,8.6,7.101
			c1.934,1.699,3.967,4.217,6.101,7.55c2.133,3.366,3.116,5.633,2.949,6.8c-0.166,1.233-0.649,2.367-1.449,3.4
			c-0.834,1.033-1.767,1.616-2.801,1.75c-1.166,0.133-1.883-0.15-2.149-0.851l-0.101-1.149l1.551-1c0.566-0.434,0.733-1.334,0.5-2.7
			c-0.233-1.533-0.934-2.65-2.101-3.351c-0.7-0.433-1.1-0.8-1.2-1.1v-1.6c-0.033-0.7-0.383-1.217-1.05-1.551l-1.05-0.3
			c-1,0.367-2.616,0.817-4.85,1.351c-1.4,0.366-3.2,0.633-5.4,0.8l-2.85,0.2l-2.1-4.851c-0.866-2.033-1.75-4.899-2.65-8.6l-1.1-4.95
			L83.9,82.95z"/>
		<path style="fill-rule:evenodd;clip-rule:evenodd;fill:#7A7A7A;" d="M85.35,97l4.4-4.4c7.4,0.467,11.367,1,11.9,1.601
			c0.566,0.633,0.699,1.467,0.399,2.5c-0.133,0.5-0.333,0.95-0.6,1.35c-0.634,0.634-3.75,1.584-9.351,2.851
			c-2.566,0.566-4.566,0.916-6,1.05L84.7,102L85.35,97z"/>
		<path style="fill-rule:evenodd;clip-rule:evenodd;fill:#979797;" d="M85.2,98.35l3.7-0.399c-0.067,0.233-0.233,0.8-0.5,1.7
			c-0.101,0.866,0.149,1.483,0.75,1.85c-1.5,0.267-2.684,0.434-3.551,0.5H84.7L85.2,98.35z"/>
		
			<use xlink:href="#FlashAICB_x5F_0_x2F_Isolation_Mode_x2F__x3C_Clip_Group_0_x3E__x5F_0"  width="29" height="26.6" y="-26.6" transform="matrix(1 0 0 -1 74.9502 77.5498)" style="overflow:visible;"/>
		<path style="fill-rule:evenodd;clip-rule:evenodd;fill:#ECECEC;" d="M78.05,77.65v-0.1l4.05,1c3.333,1.167,6.583,3.034,9.75,5.6
			c3.534,2.8,6.301,5.383,8.301,7.75c1.033,1.199,1.699,2.1,2,2.699l-0.851-0.1c-1.666-2.167-2.899-3.684-3.7-4.55
			c-2.466-2.733-5.05-5.067-7.75-7c-2.767-1.967-5.366-3.4-7.8-4.3C80.95,78.25,79.617,77.917,78.05,77.65z"/>
		<path style="fill-rule:evenodd;clip-rule:evenodd;fill:#C7C7C7;" d="M78.35,81.35l-0.3-3.8l0.9,0.15
			c0.733,0.133,1.533,0.316,2.4,0.55c-0.067,3.767,1.033,8.517,3.3,14.25c0.9,2.367,2.183,4.566,3.85,6.6l-3.8,2.9
			c-0.233-0.233-0.567-0.833-1-1.8c-0.867-1.9-1.85-4.601-2.95-8.101C79.55,88.233,78.75,84.65,78.35,81.35z"/>
		<polygon style="fill-rule:evenodd;clip-rule:evenodd;fill:#E4E4E4;" points="82.25,84.9 79.05,85.5 78.8,84.15 82,83.95 		"/>
		<path style="fill-rule:evenodd;clip-rule:evenodd;fill:#E4E4E4;" d="M78.55,82.8l-0.4-3.25l3.25,0.15
			c0.067,0.933,0.184,1.917,0.35,2.95L78.55,82.8z"/>
		<path style="fill-rule:evenodd;clip-rule:evenodd;fill:#E4E4E4;" d="M86.65,96.55l0.899,1.3c-1.1,0.768-2.25,1.834-3.45,3.2
			L83.15,99C84.25,98.134,85.417,97.316,86.65,96.55z"/>
		<polygon style="fill-rule:evenodd;clip-rule:evenodd;fill:#E4E4E4;" points="83.4,89.15 80.3,90.6 79.45,87.35 82.55,86.25 		"/>
		<polygon style="fill-rule:evenodd;clip-rule:evenodd;fill:#E4E4E4;" points="83.75,90.2 84.95,93.3 81.8,95.35 80.85,92.35 		"/>
		<path style="fill-rule:evenodd;clip-rule:evenodd;fill:#909090;" d="M100.2,96.6l2.45,0.7l-0.15,1.45l-1.45,0.6
			c-0.566,0.268-1.149,0.483-1.75,0.65l-0.75,0.15l-1.2-1.551l-0.05-2.3l1.05,0.15C99.15,96.583,99.767,96.634,100.2,96.6z"/>
		<path style="fill-rule:evenodd;clip-rule:evenodd;fill:#B3B3B3;" d="M97.3,96.3L98,96c0.6-0.233,1.217-0.417,1.85-0.55
			c0.567-0.101,1.101-0.117,1.601-0.05l0.95,1.399l0.25,0.5c-0.767,0.033-1.5,0.15-2.2,0.351l-1.75,0.5L97.3,96.3z"/>
		<path style="fill-rule:evenodd;clip-rule:evenodd;fill:#915B2A;" d="M98.6,97.5l1,0.1c0.801,0.101,1.518,0.233,2.15,0.4
			c1.033,0.267,1.9,1.05,2.6,2.35l3.7,5.9l-0.1,2.6c-0.4,1.867-1.4,3.134-3,3.801c-2.833,1.199-4.217,0.816-4.15-1.15
			c0.067-1.566,0.434-2.616,1.101-3.15c0.633-0.466,0.916-0.949,0.85-1.449c-0.066-0.434-0.6-1.017-1.6-1.75
			c-0.934-0.667-1.351-1.184-1.25-1.551c0.267-1.066,0.066-1.933-0.601-2.6l-1.1-0.65L98.6,97.5z"/>
		<path style="fill-rule:evenodd;clip-rule:evenodd;fill:#714521;" d="M108.75,106.25l-0.2,2.85c-0.5,1.967-1.566,3.217-3.2,3.75
			c-1.899,0.601-3.216,0.667-3.949,0.2c-0.167-0.633-0.184-1.433-0.051-2.399c0.134-0.834,0.301-1.384,0.5-1.65
			c0.2-0.233,0.768-0.566,1.7-1c0.467-0.2,0.9-0.383,1.3-0.55l0.801-0.851c0.666-0.6,1.233-1.083,1.699-1.449L108.75,106.25z"/>
		<path style="fill-rule:evenodd;clip-rule:evenodd;fill:#A87242;" d="M98.85,97.8c-0.533-0.3-0.283-0.633,0.75-1
			c1-0.366,1.934-0.467,2.801-0.3c0.967,0.2,1.85,0.7,2.649,1.5c1,1.033,2,2.667,3,4.9c1.101,2.467,1.067,4.383-0.1,5.75
			c-1.2,1.433-3.2,1.85-6,1.25c-0.833-0.2-0.884-0.801-0.15-1.801c0.434-0.566,1.184-1.482,2.25-2.75
			c0.467-0.666,0.283-1.232-0.55-1.699c-1.467-0.767-2.25-1.2-2.35-1.301c-0.4-0.433-0.533-0.966-0.4-1.6
			c0.134-0.6,0.066-1.033-0.2-1.3c-0.366-0.467-0.616-0.783-0.75-0.95C99.566,98.267,99.25,98.033,98.85,97.8z"/>
		<path style="fill-rule:evenodd;clip-rule:evenodd;fill:#C6854D;" d="M103.3,110.1L102.4,110c0.066-1.267,0.199-2.283,0.399-3.05
			l1.101-1.351c-0.033,0.7-0.184,1.4-0.45,2.101C103.283,108.2,103.233,109,103.3,110.1z"/>
		<path style="fill-rule:evenodd;clip-rule:evenodd;fill:#C6854D;" d="M98.8,97.2l0.45-0.3c1.033,1.033,1.684,1.816,1.95,2.35
			l2.45,4.3l0.1,0.25l-1.05-0.5c-0.367-1.366-0.833-2.3-1.4-2.8l-0.75-1.05L100.4,99.3C99.867,98.367,99.333,97.667,98.8,97.2z"/>
		<path style="fill-rule:evenodd;clip-rule:evenodd;fill:#C6854D;" d="M108.3,103.55c0.8,2.267,0.617,4.033-0.55,5.3
			c0.4-1.533,0.6-2.966,0.6-4.3L108.3,103.55z"/>
		<path style="fill-rule:evenodd;clip-rule:evenodd;fill:#C6854D;" d="M100.1,96.85L100,96.65l0.55-0.101
			c0.334,0.533,0.733,1.017,1.2,1.45c0.4,0.367,0.9,0.8,1.5,1.3c0.434,0.4,0.717,0.867,0.85,1.4c0.067,0.267,0.284,0.733,0.65,1.399
			c0.3,0.534,0.45,1.15,0.45,1.851c0,0.467-0.101,1.434-0.3,2.899c-0.233,1.5-0.351,2.601-0.351,3.301h-0.7l0.15-1.9
			c0.367-1.4,0.6-2.45,0.7-3.15c0.167-1.267-0.017-2.25-0.55-2.949c-1-1.233-1.75-2.167-2.25-2.801
			C101,98.217,100.4,97.384,100.1,96.85z"/>
		<path style="fill-rule:evenodd;clip-rule:evenodd;fill:#C6854D;" d="M102.2,96.45l0.55,0.149l0.3,0.5
			c0.334,0.5,0.9,1.034,1.7,1.601c0.967,0.7,1.517,1.116,1.65,1.25c0.6,0.6,0.967,1.667,1.1,3.2c0.033,0.5-0.083,1.566-0.35,3.199
			c-0.301,1.634-0.417,2.7-0.351,3.2l-0.649,0.3c0.1-1.566,0.217-2.716,0.35-3.449c0.733-3.367,0.6-5.467-0.4-6.301
			c-0.966-0.767-1.716-1.366-2.25-1.8C102.95,97.566,102.4,96.95,102.2,96.45z"/>
		<path style="fill-rule:evenodd;clip-rule:evenodd;fill:#C6854D;" d="M101.05,96.45h0.55l0.25,0.3c0.334,0.367,0.9,0.95,1.7,1.75
			c0.7,0.733,1.117,1.35,1.25,1.85c0.067,0.268,0.384,0.867,0.95,1.801c0.467,0.8,0.684,1.467,0.65,2c0,0.3-0.134,1.217-0.4,2.75
			c-0.267,1.467-0.4,2.5-0.4,3.1l-0.6,0.1c0-0.666,0.1-1.482,0.3-2.449c0.667-2.867,0.65-4.75-0.05-5.65
			c-0.267-0.3-0.5-0.767-0.7-1.4c-0.2-0.533-0.533-1.017-1-1.449C102.45,98.217,101.617,97.316,101.05,96.45z"/>
		<path style="fill-rule:evenodd;clip-rule:evenodd;fill:#C6854D;" d="M103.4,97.05c-0.067-0.133-0.101-0.233-0.101-0.3l0.4,0.25
			c0.434,0.566,1.033,1.083,1.8,1.55h0.05l0.7,0.95c-0.767-0.467-1.333-0.833-1.7-1.1C103.95,97.967,103.566,97.517,103.4,97.05z"/>
		<path style="fill-rule:evenodd;clip-rule:evenodd;fill:#714521;" d="M105.85,106.7c1.134,0.167,1.467,0.649,1,1.45
			c-0.5,0.767-1.383,1.033-2.649,0.8c-0.867-0.167-1.033-0.617-0.5-1.351C104.2,106.867,104.917,106.566,105.85,106.7z"/>
		<path style="fill-rule:evenodd;clip-rule:evenodd;fill:#B1B1B1;" d="M107,107.65c-0.033,0.433-0.3,0.783-0.8,1.05
			c-0.566,0.333-1.233,0.417-2,0.25c-0.533-0.101-0.767-0.351-0.7-0.75c0.333-0.566,1.033-0.9,2.1-1
			C106.1,107.2,106.566,107.35,107,107.65z"/>
		<path style="fill-rule:evenodd;clip-rule:evenodd;fill:#7D7D7D;" d="M107,107.65c-0.033,0.433-0.3,0.783-0.8,1.05
			c-0.566,0.333-1.233,0.417-2,0.25c-0.333-0.101-0.55-0.25-0.65-0.45c0.7,0.467,1.384,0.434,2.05-0.1c0.4-0.301,0.7-0.634,0.9-1
			L107,107.65z"/>
		<path style="fill-rule:evenodd;clip-rule:evenodd;fill:#FFFFFF;" d="M105.55,107.5c0.367,0.2,0.334,0.35-0.1,0.45
			c-0.467,0.133-0.767,0.133-0.9,0c-0.066-0.134,0.017-0.283,0.25-0.45C105.066,107.367,105.316,107.367,105.55,107.5z"/>
		<path style="fill-rule:evenodd;clip-rule:evenodd;fill:#C6854D;" d="M106.15,101.3c-0.033-0.066-0.067-0.066-0.101,0L106,101.4
			c-0.033-0.033-0.066-0.084-0.1-0.15c-0.033-0.1-0.033-0.2,0-0.3c0.066-0.101,0.166-0.066,0.3,0.1c0.167,0.2,0.267,0.434,0.3,0.7
			c0.033,0.3-0.033,0.45-0.2,0.45c-0.166,0-0.35-0.167-0.55-0.5s-0.35-0.65-0.45-0.95c-0.066-0.3-0.017-0.467,0.15-0.5
			c0.233,0,0.5,0.134,0.8,0.4c-0.233-0.134-0.417-0.167-0.55-0.101c-0.167,0.101-0.101,0.417,0.2,0.95
			c0.133,0.167,0.233,0.217,0.3,0.15C106.233,101.55,106.217,101.434,106.15,101.3z"/>
	</g>
</g>
<g>
	<g>
		<g>
			<g>
				<g>
					<g>
						<g>
							<g>
								
									<linearGradient id="SVGID_19_" gradientUnits="userSpaceOnUse" x1="-36.9141" y1="71.1846" x2="-17.9176" y2="71.1846" gradientTransform="matrix(0.4567 -0.8896 0.8896 0.4567 2.357364e-005 -2.022386e-004)">
									<stop  offset="0" style="stop-color:#037A6A"/>
									<stop  offset="0.7098" style="stop-color:#9ADEB8"/>
								</linearGradient>
								<path style="fill-rule:evenodd;clip-rule:evenodd;fill:url(#SVGID_19_);" d="M55.3,48.5c0.733,0.4,1.317,0.967,1.75,1.7
									c0.4,0.7,0.583,1.466,0.55,2.3l-0.05,1.45l1.15,0.85c0.667,0.5,1.15,1.134,1.45,1.9c0.333,0.767,0.417,1.566,0.25,2.4
									c-0.167,0.933-0.6,1.733-1.3,2.4c-0.467,0.467-1.067,0.817-1.8,1.05l-1.4,0.4l-0.45,1.3c-0.2,0.667-0.583,1.267-1.15,1.8
									c-0.667,0.667-1.466,1.05-2.4,1.15l-0.7,0.05c-0.667,0-1.3-0.15-1.9-0.45c-0.733-0.4-1.283-0.9-1.65-1.5l-0.8-1.15H45.4
									c-0.833-0.033-1.6-0.267-2.3-0.7c-0.667-0.467-1.184-1.067-1.55-1.8c-0.366-0.733-0.5-1.517-0.4-2.35
									c0.067-0.833,0.367-1.583,0.9-2.25l0.85-1.15l-0.4-1.35c-0.233-0.8-0.25-1.6-0.05-2.4c0.2-0.833,0.6-1.533,1.2-2.1
									c0.8-0.8,1.85-1.2,3.15-1.2c0.4,0,0.85,0.083,1.35,0.25l1.35,0.5l1.15-0.8c0.833-0.566,1.733-0.833,2.7-0.8
									c0.7,0,1.316,0.15,1.85,0.45L55.3,48.5z"/>
								<path style="fill-rule:evenodd;clip-rule:evenodd;fill:none;stroke:#DAEFE8;stroke-width:0.25;" d="M55.3,48.5
									c0.733,0.4,1.317,0.967,1.75,1.7c0.4,0.7,0.583,1.466,0.55,2.3l-0.05,1.45l1.15,0.85c0.667,0.5,1.15,1.134,1.45,1.9
									c0.333,0.767,0.417,1.566,0.25,2.4c-0.167,0.933-0.6,1.733-1.3,2.4c-0.467,0.467-1.067,0.817-1.8,1.05l-1.4,0.4l-0.45,1.3
									c-0.2,0.667-0.583,1.267-1.15,1.8c-0.667,0.667-1.466,1.05-2.4,1.15l-0.7,0.05c-0.667,0-1.3-0.15-1.9-0.45
									c-0.733-0.4-1.283-0.9-1.65-1.5l-0.8-1.15H45.4c-0.833-0.033-1.6-0.267-2.3-0.7c-0.667-0.467-1.184-1.067-1.55-1.8
									c-0.366-0.733-0.5-1.517-0.4-2.35c0.067-0.833,0.367-1.583,0.9-2.25l0.85-1.15l-0.4-1.35c-0.233-0.8-0.25-1.6-0.05-2.4
									c0.2-0.833,0.6-1.533,1.2-2.1c0.8-0.8,1.85-1.2,3.15-1.2c0.4,0,0.85,0.083,1.35,0.25l1.35,0.5l1.15-0.8
									c0.833-0.566,1.733-0.833,2.7-0.8c0.7,0,1.316,0.15,1.85,0.45L55.3,48.5z"/>
							</g>
						</g>
						<path style="fill-rule:evenodd;clip-rule:evenodd;fill:#193330;" d="M54.1,50.7c0.733,0.4,1.066,0.983,1,1.75l-0.1,2.7
							l2.2,1.65c0.6,0.467,0.85,1.083,0.75,1.85c-0.1,0.434-0.284,0.784-0.55,1.05c-0.267,0.2-0.533,0.35-0.8,0.45l-2.65,0.75
							l-0.85,2.6c-0.133,0.333-0.3,0.583-0.5,0.75c-0.333,0.3-0.684,0.467-1.05,0.5c-0.733,0.1-1.333-0.167-1.8-0.8l-1.55-2.3h-2.75
							c-0.8-0.066-1.35-0.433-1.65-1.1c-0.366-0.7-0.3-1.35,0.2-1.95l1.7-2.2l-0.85-2.6c-0.2-0.767-0.034-1.417,0.5-1.95
							c0.6-0.533,1.25-0.667,1.95-0.4l2.6,0.95l2.25-1.6C52.783,50.333,53.434,50.3,54.1,50.7z"/>
						
							<linearGradient id="SVGID_20_" gradientUnits="userSpaceOnUse" x1="-33.5239" y1="71.1836" x2="-21.2583" y2="71.1836" gradientTransform="matrix(0.457 -0.8895 0.8895 0.457 -1.398027e-004 4.401803e-004)">
							<stop  offset="0.0235" style="stop-color:#808080"/>
							<stop  offset="0.7294" style="stop-color:#E6E6E6"/>
							<stop  offset="1" style="stop-color:#B3B3B3"/>
						</linearGradient>
						<path style="fill-rule:evenodd;clip-rule:evenodd;fill:url(#SVGID_20_);" d="M53.7,51.45c0.4,0.233,0.566,0.55,0.5,0.95
							l-0.1,3.2l2.6,1.9c0.333,0.267,0.45,0.6,0.35,1c0,0.2-0.083,0.383-0.25,0.55l-0.45,0.25l-3.05,0.85l-1.05,3.05L52,63.6
							c-0.133,0.133-0.316,0.233-0.55,0.3c-0.367,0.034-0.7-0.117-1-0.45L48.7,60.8l-3.25-0.05c-0.367,0-0.667-0.183-0.9-0.55
							c-0.167-0.4-0.116-0.767,0.15-1.1l1.95-2.5l-0.95-3.05c-0.1-0.433-0.017-0.783,0.25-1.05c0.333-0.3,0.683-0.367,1.05-0.2
							l3.05,1.1l2.6-1.85C52.95,51.317,53.3,51.283,53.7,51.45z"/>
						<path style="fill-rule:evenodd;clip-rule:evenodd;fill:#FFFFFF;" d="M50.05,53.4l-0.65,0.45l-3-1.1l-0.55-0.05l0.1-0.2
							c0.333-0.3,0.683-0.367,1.05-0.2L50.05,53.4z M53.7,51.45c0.4,0.233,0.566,0.55,0.5,0.95l-0.1,3.2l2.6,1.9
							c0.333,0.267,0.45,0.6,0.35,1c0,0.2-0.083,0.383-0.25,0.55l-0.45,0.25l0.1-0.35c0.1-0.367-0.017-0.7-0.35-1l-2.6-1.9l0.15-3.2
							c0-0.434-0.183-0.733-0.55-0.9c-0.4-0.233-0.75-0.217-1.05,0.05l-0.5,0.35l1.1-0.8C52.95,51.317,53.3,51.283,53.7,51.45z"/>
					</g>
				</g>
			</g>
		</g>
	</g>
	<g>
		<g>
			<g>
				<g>
					<g>
						<g>
							<g>
								<linearGradient id="SVGID_21_" gradientUnits="userSpaceOnUse" x1="115.2666" y1="48.4482" x2="123.9416" y2="65.3482">
									<stop  offset="0" style="stop-color:#037A6A"/>
									<stop  offset="0.7098" style="stop-color:#9ADEB8"/>
								</linearGradient>
								<path style="fill-rule:evenodd;clip-rule:evenodd;fill:url(#SVGID_21_);" d="M117.1,48c0.934-0.033,1.817,0.233,2.65,0.8
									l1.15,0.8l1.35-0.5c0.5-0.167,0.967-0.25,1.4-0.25c1.267,0,2.3,0.4,3.1,1.2c0.6,0.567,1,1.267,1.2,2.1
									c0.233,0.8,0.217,1.6-0.05,2.4l-0.4,1.35l0.85,1.15c0.534,0.667,0.851,1.417,0.95,2.25c0.067,0.833-0.083,1.617-0.45,2.35
									c-0.366,0.733-0.883,1.333-1.55,1.8c-0.7,0.433-1.467,0.667-2.3,0.7h-1.45l-0.8,1.15c-0.366,0.6-0.917,1.1-1.65,1.5
									c-0.6,0.3-1.232,0.45-1.899,0.45l-0.7-0.05c-0.934-0.1-1.733-0.483-2.4-1.15c-0.566-0.533-0.949-1.133-1.149-1.8l-0.45-1.3
									l-1.4-0.4c-0.732-0.233-1.333-0.583-1.8-1.05c-0.666-0.667-1.1-1.467-1.3-2.4c-0.133-0.833-0.05-1.633,0.25-2.4
									s0.783-1.4,1.45-1.9l1.149-0.85l-0.05-1.45c-0.033-0.833,0.15-1.6,0.55-2.3c0.434-0.733,1.018-1.3,1.75-1.7l0.101-0.05
									C115.767,48.15,116.4,48,117.1,48z"/>
								<path style="fill-rule:evenodd;clip-rule:evenodd;fill:none;stroke:#DAEFE8;stroke-width:0.25;" d="M117.1,48
									c0.934-0.033,1.817,0.233,2.65,0.8l1.15,0.8l1.35-0.5c0.5-0.167,0.967-0.25,1.4-0.25c1.267,0,2.3,0.4,3.1,1.2
									c0.6,0.567,1,1.267,1.2,2.1c0.233,0.8,0.217,1.6-0.05,2.4l-0.4,1.35l0.85,1.15c0.534,0.667,0.851,1.417,0.95,2.25
									c0.067,0.833-0.083,1.617-0.45,2.35c-0.366,0.733-0.883,1.333-1.55,1.8c-0.7,0.433-1.467,0.667-2.3,0.7h-1.45l-0.8,1.15
									c-0.366,0.6-0.917,1.1-1.65,1.5c-0.6,0.3-1.232,0.45-1.899,0.45l-0.7-0.05c-0.934-0.1-1.733-0.483-2.4-1.15
									c-0.566-0.533-0.949-1.133-1.149-1.8l-0.45-1.3l-1.4-0.4c-0.732-0.233-1.333-0.583-1.8-1.05c-0.666-0.667-1.1-1.467-1.3-2.4
									c-0.133-0.833-0.05-1.633,0.25-2.4s0.783-1.4,1.45-1.9l1.149-0.85l-0.05-1.45c-0.033-0.833,0.15-1.6,0.55-2.3
									c0.434-0.733,1.018-1.3,1.75-1.7l0.101-0.05C115.767,48.15,116.4,48,117.1,48z"/>
							</g>
						</g>
						<path style="fill-rule:evenodd;clip-rule:evenodd;fill:#193330;" d="M118.3,50.8l2.2,1.6l2.6-0.95
							c0.7-0.267,1.351-0.133,1.95,0.4c0.533,0.533,0.7,1.183,0.5,1.95l-0.85,2.6l1.7,2.2c0.5,0.6,0.583,1.25,0.25,1.95
							c-0.367,0.667-0.934,1.034-1.7,1.1h-2.75l-1.5,2.3c-0.467,0.633-1.083,0.9-1.851,0.8c-0.366-0.033-0.716-0.2-1.05-0.5
							c-0.233-0.233-0.399-0.483-0.5-0.75l-0.85-2.6l-2.65-0.75c-0.267-0.1-0.533-0.25-0.8-0.45c-0.267-0.333-0.45-0.684-0.55-1.05
							c-0.101-0.767,0.149-1.383,0.75-1.85l2.2-1.65l-0.101-2.7c-0.066-0.767,0.267-1.35,1-1.75C117,50.3,117.667,50.333,118.3,50.8
							z"/>
						<linearGradient id="SVGID_22_" gradientUnits="userSpaceOnUse" x1="125.0537" y1="59.7026" x2="113.9037" y2="54.6276">
							<stop  offset="0.0235" style="stop-color:#808080"/>
							<stop  offset="0.7294" style="stop-color:#E6E6E6"/>
							<stop  offset="1" style="stop-color:#B3B3B3"/>
						</linearGradient>
						<path style="fill-rule:evenodd;clip-rule:evenodd;fill:url(#SVGID_22_);" d="M116.7,51.45c0.399-0.167,0.75-0.133,1.05,0.1
							l2.65,1.85l3-1.1c0.366-0.167,0.717-0.1,1.05,0.2c0.267,0.267,0.35,0.617,0.25,1.05l-0.95,3.05l1.95,2.5
							c0.267,0.333,0.316,0.7,0.149,1.1c-0.232,0.367-0.533,0.55-0.899,0.55l-3.2,0.05l-1.8,2.65c-0.233,0.367-0.566,0.517-1,0.45
							c-0.233-0.066-0.417-0.167-0.55-0.3l-0.25-0.4l-1-3.05l-3.101-0.85l-0.399-0.25c-0.2-0.2-0.301-0.383-0.301-0.55
							c-0.1-0.4,0.034-0.733,0.4-1l2.55-1.9l-0.1-3.2C116.134,52,116.3,51.684,116.7,51.45z"/>
						<path style="fill-rule:evenodd;clip-rule:evenodd;fill:#FFFFFF;" d="M116.7,51.45c0.399-0.167,0.75-0.133,1.05,0.1l2.65,1.85
							l3-1.1c0.366-0.167,0.717-0.1,1.05,0.2l0.1,0.2L124,52.75l-3,1.1L118.35,52c-0.3-0.267-0.649-0.283-1.05-0.05
							c-0.399,0.167-0.566,0.466-0.5,0.9l0.101,3.2l-2.551,1.9c-0.366,0.267-0.5,0.6-0.399,1l0.1,0.35l-0.399-0.25
							c-0.2-0.2-0.301-0.383-0.301-0.55c-0.1-0.4,0.034-0.733,0.4-1l2.55-1.9l-0.1-3.2C116.134,52,116.3,51.684,116.7,51.45z"/>
					</g>
				</g>
			</g>
		</g>
	</g>
</g>
<use xlink:href="#FlashAICB_x5F_1_x2F_Isolation_Mode_x2F__x3C_Group_x3E_"  width="109.5" height="61.044" y="-61.044" transform="matrix(1 0 0 -1 30.4502 29.2998)" style="overflow:visible;opacity:0.7109;enable-background:new    ;"/>
<use xlink:href="#FlashAICB_x5F_1_x2F_Isolation_Mode_x2F__x3C_Path_x3E__x5F_0"  width="118.2" height="56.85" y="-56.85" transform="matrix(1 0 0 -1 26.1001 87.8496)" style="overflow:visible;opacity:0.4688;enable-background:new    ;"/>
</svg>
