<?xml version="1.0" encoding="iso-8859-1"?>
<!-- Generator: Adobe Illustrator 15.1.0, SVG Export Plug-In . SVG Version: 6.00 Build 0)  -->
<!DOCTYPE svg PUBLIC "-//W3C//DTD SVG 1.1//EN" "http://www.w3.org/Graphics/SVG/1.1/DTD/svg11.dtd">
<svg version="1.1" xmlns="http://www.w3.org/2000/svg" xmlns:xlink="http://www.w3.org/1999/xlink" x="0px" y="0px" width="172.4px"
	 height="172.4px" viewBox="0 0 172.4 172.4" style="enable-background:new 0 0 172.4 172.4;" xml:space="preserve">
<symbol  id="_x30_1_x5F_different_x2F_Assets_x2F_flower5" viewBox="-4.295 -4.202 8.614 8.384">
	<g id="Layer_1_9_">
		<path style="fill-rule:evenodd;clip-rule:evenodd;fill:#5DACC0;" d="M0.25,3.3c0.133-0.367,0.2-0.75,0.2-1.15l0.45,0.9
			C1.267,3.617,1.65,3.833,2.05,3.7C2.55,3.5,2.7,3.05,2.5,2.35C2.433,2.017,2.3,1.7,2.1,1.4l1.05,0.3
			c0.7,0.133,1.083-0.017,1.15-0.45c0.1-0.733-0.183-1.2-0.85-1.4L2.4-0.2l1-0.5C4-1.133,4.15-1.6,3.85-2.1
			C3.517-2.6,3.033-2.733,2.4-2.5L1.55-2l0.2-1.05c0-0.733-0.283-1.117-0.85-1.15C0.367-4.233,0-3.883-0.2-3.15L-0.3-2.1
			c-0.1-0.333-0.25-0.65-0.45-0.95c-0.4-0.567-0.867-0.667-1.4-0.3c-0.533,0.333-0.633,0.8-0.3,1.4L-1.8-1.1
			c-0.333-0.2-0.684-0.35-1.05-0.45c-0.733-0.133-1.2,0.083-1.4,0.65C-4.417-0.4-4.117,0-3.35,0.3c0.4,0.133,0.8,0.233,1.2,0.3
			c-0.4,0.1-0.783,0.25-1.15,0.45C-3.933,1.517-4.067,2.033-3.7,2.6c0.333,0.467,0.8,0.5,1.4,0.1C-2,2.5-1.733,2.267-1.5,2
			c-0.067,0.267-0.1,0.55-0.1,0.85c0.033,0.566,0.3,0.983,0.8,1.25C-0.333,4.333,0.017,4.067,0.25,3.3z"/>
		<path style="fill-rule:evenodd;clip-rule:evenodd;fill:#E3C000;" d="M-0.452,1.469c0.273,0.137,0.637,0.137,1.091,0
			c0.478-0.113,0.795-0.375,0.955-0.784C1.731,0.321,1.72-0.077,1.561-0.509c-0.182-0.5-0.466-0.83-0.853-0.989
			C0.321-1.657-0.088-1.623-0.52-1.396C-0.975-1.123-1.27-0.77-1.406-0.338C-1.52,0.094-1.44,0.48-1.167,0.821
			C-0.895,1.162-0.656,1.378-0.452,1.469z"/>
	</g>
</symbol>
<symbol  id="_x30_1_x5F_different_x2F_Burst_x2F_Burst_x5F_speedline1" viewBox="-4 -0.3 4.25 0.55">
	<g id="Layer_1_11_">
		
			<line style="fill-rule:evenodd;clip-rule:evenodd;fill:none;stroke:#FFFFFF;stroke-width:0.5;stroke-linecap:round;stroke-linejoin:bevel;stroke-miterlimit:3;" x1="-3.75" y1="0" x2="0" y2="-0.05"/>
	</g>
</symbol>
<symbol  id="_x30_1_x5F_different_x2F_Burst_x2F_Burst_x5F_speedline1_x5F_ALL" viewBox="-19.692 -19.197 41.865 34.277">
	<g id="Layer_18_1_">
		
			<use xlink:href="#_x30_1_x5F_different_x2F_Burst_x2F_Burst_x5F_speedline1"  width="4.25" height="0.55" x="-4" y="-0.3" transform="matrix(-0.5956 0.8032 -0.8032 -0.5956 -12.1001 14.8003)" style="overflow:visible;"/>
		
			<use xlink:href="#_x30_1_x5F_different_x2F_Burst_x2F_Burst_x5F_speedline1"  width="4.25" height="0.55" x="-4" y="-0.3" transform="matrix(0.765 0.644 -0.644 0.765 15.1499 13.75)" style="overflow:visible;"/>
		
			<use xlink:href="#_x30_1_x5F_different_x2F_Burst_x2F_Burst_x5F_speedline1"  width="4.25" height="0.55" x="-4" y="-0.3" transform="matrix(-0.9675 0.6319 -0.5468 -0.8372 -17.1006 9.7998)" style="overflow:visible;"/>
		
			<use xlink:href="#_x30_1_x5F_different_x2F_Burst_x2F_Burst_x5F_speedline1"  width="4.25" height="0.55" x="-4" y="-0.3" transform="matrix(1.0304 0.5231 -0.4526 0.8917 21.8999 5.8994)" style="overflow:visible;"/>
		
			<use xlink:href="#_x30_1_x5F_different_x2F_Burst_x2F_Burst_x5F_speedline1"  width="4.25" height="0.55" x="-4" y="-0.3" transform="matrix(1.0671 -0.4434 0.3837 0.9234 18.6001 -10.5493)" style="overflow:visible;"/>
		
			<use xlink:href="#_x30_1_x5F_different_x2F_Burst_x2F_Burst_x5F_speedline1"  width="4.25" height="0.55" x="-4" y="-0.3" transform="matrix(0.6341 -0.6587 0.7204 0.6935 14.0498 -14.5996)" style="overflow:visible;"/>
		
			<use xlink:href="#_x30_1_x5F_different_x2F_Burst_x2F_Burst_x5F_speedline1"  width="4.25" height="0.55" x="-4" y="-0.3" transform="matrix(-0.0557 -0.9126 0.9981 -0.0609 -1.2988 -18.9502)" style="overflow:visible;"/>
		
			<use xlink:href="#_x30_1_x5F_different_x2F_Burst_x2F_Burst_x5F_speedline1"  width="4.25" height="0.55" x="-4" y="-0.3" transform="matrix(-0.2925 -0.5578 0.8856 -0.4644 -7.5986 -17.3506)" style="overflow:visible;"/>
		
			<use xlink:href="#_x30_1_x5F_different_x2F_Burst_x2F_Burst_x5F_speedline1"  width="4.25" height="0.55" x="-4" y="-0.3" transform="matrix(-0.7568 -0.2038 0.26 -0.9655 -18.1001 -8.1504)" style="overflow:visible;"/>
		
			<use xlink:href="#_x30_1_x5F_different_x2F_Burst_x2F_Burst_x5F_speedline1"  width="4.25" height="0.55" x="-4" y="-0.3" transform="matrix(-0.9503 0.1656 -0.1716 -0.9851 -19.4507 -3.8013)" style="overflow:visible;"/>
	</g>
</symbol>
<symbol  id="_x30_1_x5F_different_x2F_Marks_x2F_Mark_x5F_FLOWER" viewBox="-5.546 -5.409 10.531 10.848">
	<g id="Layer_3_1_">
	</g>
	<g id="Layer_2_2_">
		
			<use xlink:href="#_x30_1_x5F_different_x2F_Assets_x2F_flower5"  width="8.614" height="8.384" x="-4.295" y="-4.202" transform="matrix(-0.097 -1.2401 1.2401 -0.097 -0.25 0.0493)" style="overflow:visible;"/>
	</g>
</symbol>
<symbol  id="_x30_2_x5F_2X_x2F_2X_x5F_2x_x5F_type_x2F_2X_x5F_2x" viewBox="-12.043 -10.25 24.111 20.445">
	<g id="Layer_1_10_">
		<g>
			
				<path style="fill-rule:evenodd;clip-rule:evenodd;fill:none;stroke:#000000;stroke-width:1.5;stroke-linecap:round;stroke-linejoin:round;stroke-miterlimit:3;" d="
				M8.8,0.85C8.1,0.417,7.367-0.233,6.6-1.1C4.833,0.933,3.583,1.5,2.85,0.6c-0.4-0.5-0.4-1.117,0-1.85
				c0.267-0.533,0.867-1.333,1.8-2.4c-0.767-1.167-1.283-2.1-1.55-2.8C2.667-7.517,2.633-8.283,3-8.75
				c0.567-0.733,1.833,0.167,3.8,2.7c1-1.034,1.883-1.767,2.65-2.2c0.9-0.533,1.483-0.583,1.75-0.15
				c0.267,0.4,0.083,1.083-0.55,2.05C10.25-5.683,9.567-4.767,8.6-3.6c1.1,1.367,1.75,2.25,1.95,2.65c0.434,0.833,0.434,1.45,0,1.85
				C10.15,1.333,9.567,1.317,8.8,0.85z M0.5,7.05c-0.8,1.4-2.167,2.184-4.1,2.35C-5.567,9.6-7.217,9.133-8.55,8
				c-1.3-1.133-2.15-2.433-2.55-3.9c-0.566-2,0.117-3.1,2.05-3.3c0.2,0.034,0.383,0.067,0.55,0.1C-8,1.033-7.55,1.317-7.15,1.75
				C-6.75,2.217-6.2,3.133-5.5,4.5c0.533,0.7,1.083,0.883,1.65,0.55c0.533-0.367,0.867-0.966,1-1.8c0.033-0.833-0.5-1.783-1.6-2.85
				C-5.617-0.667-6.917-2.133-8.35-4c-1.5-1.8-2.316-3.067-2.45-3.8c-0.133-0.633,0.033-1.05,0.5-1.25c0.466-0.167,1.133-0.3,2-0.4
				C-7.433-9.483-5.617-9.5-2.85-9.5c2.8,0.033,4.383,0.433,4.75,1.2c0.567,1.267-1.7,1.933-6.8,2c2.167,1.933,3.733,3.617,4.7,5.05
				c1,1.433,1.55,2.833,1.65,4.2C1.55,4.25,1.233,5.617,0.5,7.05z"/>
			<linearGradient id="SVGID_1_" gradientUnits="userSpaceOnUse" x1="-4.604" y1="4.8496" x2="-4.604" y2="-12.9504">
				<stop  offset="0" style="stop-color:#FFFFFF"/>
				<stop  offset="0.9882" style="stop-color:#D4D4D4"/>
			</linearGradient>
			<path style="fill-rule:evenodd;clip-rule:evenodd;fill:url(#SVGID_1_);" d="M-11.05,4.149c0.4,1.467,1.25,2.767,2.55,3.9
				c1.333,1.133,2.983,1.6,4.95,1.4c1.933-0.167,3.3-0.95,4.1-2.35C1.283,5.667,1.6,4.3,1.5,3c-0.1-1.367-0.65-2.767-1.65-4.2
				c-0.967-1.434-2.533-3.117-4.7-5.05c5.1-0.066,7.367-0.733,6.8-2C1.583-9.017,0-9.417-2.8-9.45c-2.767,0-4.583,0.017-5.45,0.05
				c-0.867,0.1-1.533,0.233-2,0.4c-0.467,0.2-0.633,0.617-0.5,1.25c0.133,0.733,0.95,2,2.45,3.8c1.433,1.867,2.733,3.333,3.9,4.4
				c1.1,1.066,1.633,2.017,1.6,2.85c-0.133,0.833-0.467,1.433-1,1.8c-0.567,0.333-1.117,0.15-1.65-0.55
				c-0.7-1.367-1.25-2.284-1.65-2.75c-0.4-0.434-0.85-0.717-1.35-0.85C-8.617,0.917-8.8,0.883-9,0.85
				C-10.934,1.05-11.617,2.149-11.05,4.149z"/>
			<linearGradient id="SVGID_2_" gradientUnits="userSpaceOnUse" x1="6.9839" y1="-2.7256" x2="6.9839" y2="-11.4756">
				<stop  offset="0" style="stop-color:#FFFFFF"/>
				<stop  offset="0.9882" style="stop-color:#D4D4D4"/>
			</linearGradient>
			<path style="fill-rule:evenodd;clip-rule:evenodd;fill:url(#SVGID_2_);" d="M2.899-1.2c-0.4,0.733-0.4,1.35,0,1.85
				c0.733,0.9,1.983,0.333,3.75-1.7c0.767,0.867,1.5,1.517,2.2,1.95c0.767,0.467,1.35,0.483,1.75,0.05c0.433-0.4,0.433-1.017,0-1.85
				c-0.2-0.4-0.85-1.283-1.95-2.65C9.616-4.717,10.3-5.634,10.7-6.3c0.633-0.967,0.816-1.65,0.55-2.05
				c-0.267-0.433-0.85-0.383-1.75,0.15C8.733-7.767,7.85-7.034,6.85-6c-1.967-2.533-3.233-3.433-3.8-2.7
				c-0.367,0.466-0.333,1.233,0.1,2.3c0.267,0.7,0.784,1.633,1.55,2.8C3.766-2.534,3.167-1.734,2.899-1.2z"/>
		</g>
	</g>
</symbol>
<symbol  id="_x30_2_x5F_2X_x2F_2X_x5F_2x_x5F_type_x2F_2X_x5F_2x_x5F_ALL" viewBox="-11.493 -8.7 24.111 20.445">
	<g id="Layer_1_20_">
		
			<use xlink:href="#_x30_2_x5F_2X_x2F_2X_x5F_2x_x5F_type_x2F_2X_x5F_2x"  width="24.111" height="20.445" x="-12.043" y="-10.25" transform="matrix(1 0 0 1 0.5498 1.5498)" style="overflow:visible;"/>
	</g>
</symbol>
<symbol  id="_x30_2_x5F_2X_x2F_2X_x5F_Stamp_x2F_Stamp_x5F_cubes2x" viewBox="-17.912 -17.845 39.236 35.601">
	<g id="flash0.ai_3_">
	</g>
	<g id="Layer_2_3_">
	</g>
	<g id="flash0.ai_2_">
		<g>
			
				<use xlink:href="#_x30_1_x5F_different_x2F_Marks_x2F_Mark_x5F_FLOWER"  width="10.531" height="10.848" x="-5.546" y="-5.409" transform="matrix(2.912 1.146 -1.146 2.912 6 0.9502)" style="overflow:visible;"/>
		</g>
		<path style="fill-rule:evenodd;clip-rule:evenodd;fill:none;stroke:#000000;stroke-miterlimit:10;" d="M5.3,14.35L4.5,11.1
			c-0.7,1.066-1.533,2.05-2.5,2.95c-1.933,1.833-3.55,2.383-4.85,1.65C-4.883,14.567-5.3,12.667-4.1,10c0.6-1.367,1.4-2.6,2.4-3.7
			c-1.066,0.6-2.183,1.017-3.35,1.25c-2.3,0.5-3.667-0.117-4.1-1.85c-0.4-1.767,0.717-3.367,3.35-4.8c1.333-0.7,2.7-1.233,4.1-1.6
			c-1.267-0.5-2.483-1.133-3.65-1.9C-7.617-4.133-8.433-5.567-7.8-6.9c0.7-1.333,2.316-1.633,4.85-0.9
			c0.9,0.267,1.717,0.583,2.45,0.95l0.7,0.4c-2.4-4.733-2.05-7.7,1.05-8.9c3.133-1.2,5.35-0.05,6.65,3.45
			c2.633-2.667,4.917-3.333,6.85-2c1.233,0.833,1.383,2.617,0.45,5.35c-0.467,1.367-1.067,2.65-1.8,3.85l3.1-1.2
			c2.2-0.3,3.583,0.767,4.15,3.2c0.434,1.733-0.25,3.05-2.05,3.95L15.75,2.1c0.967,0.3,1.867,0.867,2.7,1.7
			c1.2,1.267,1.55,2.7,1.05,4.3c-0.7,2.1-2.283,2.933-4.75,2.5l-3.5-1.3l1.7,3.6c0.566,2.5-0.583,3.917-3.45,4.25
			C7.633,17.383,6.233,16.45,5.3,14.35z"/>
		
			<use xlink:href="#_x30_2_x5F_2X_x2F_2X_x5F_2x_x5F_type_x2F_2X_x5F_2x_x5F_ALL"  width="24.111" height="20.445" x="-11.493" y="-8.7" transform="matrix(1.2236 0 0 1.2236 -3.8501 -7.2002)" style="overflow:visible;"/>
	</g>
</symbol>
<symbol  id="BG_x2F_bg_yellow" viewBox="0 -134.05 134 134.05">
	<g id="Layer_1_3_">
		<g>
			<g>
				
					<linearGradient id="SVGID_3_" gradientUnits="userSpaceOnUse" x1="16085.8389" y1="-65.9146" x2="16218.1895" y2="-65.9146" gradientTransform="matrix(7.555724e-006 1 -1 -0.001 0.939 -16219.1055)">
					<stop  offset="0" style="stop-color:#A88331"/>
					<stop  offset="0.2863" style="stop-color:#BF9B36"/>
					<stop  offset="0.6745" style="stop-color:#E4C13E"/>
					<stop  offset="0.9647" style="stop-color:#DCE58A"/>
				</linearGradient>
				<path style="fill-rule:evenodd;clip-rule:evenodd;fill:url(#SVGID_3_);" d="M67-0.85c18.233,0,33.817-6.466,46.75-19.4
					c12.934-12.967,19.4-28.566,19.4-46.8s-6.467-33.817-19.4-46.75c-12.933-12.934-28.517-19.4-46.75-19.4s-33.833,6.467-46.8,19.4
					C7.267-100.867,0.8-85.283,0.8-67.05c0,18.267,6.466,33.866,19.4,46.8S48.733-0.85,67-0.85z"/>
				<path style="fill-rule:evenodd;clip-rule:evenodd;fill:#3F280D;" d="M67-1.7c-18.033,0-33.433-6.383-46.2-19.15
					S1.65-49.017,1.65-67.05c0-18.034,6.383-33.434,19.15-46.2S48.967-132.4,67-132.4c18.034,0,33.434,6.383,46.2,19.15
					s19.15,28.167,19.15,46.2c0,18.033-6.383,33.433-19.15,46.2C100.467-8.083,85.067-1.7,67-1.7z M41.35-5.1
					C49.517-1.7,58.067,0,67,0c8.934,0,17.483-1.7,25.65-5.1c8.133-3.367,15.366-8.216,21.7-14.55s11.184-13.583,14.55-21.75
					c3.4-8.167,5.1-16.717,5.1-25.65c0-8.934-1.7-17.483-5.1-25.65c-3.367-8.133-8.217-15.366-14.55-21.7s-13.566-11.184-21.7-14.55
					c-8.167-3.4-16.717-5.1-25.65-5.1c-8.933,0-17.483,1.7-25.65,5.1c-8.167,3.367-15.417,8.217-21.75,14.55
					S8.417-100.833,5.05-92.7C1.684-84.566,0-76.017,0-67.05c0,8.966,1.684,17.517,5.05,25.65c3.367,8.167,8.216,15.417,14.55,21.75
					S33.184-8.467,41.35-5.1z"/>
			</g>
			
				<radialGradient id="SVGID_4_" cx="66.9756" cy="-64.875" r="59.3751" gradientTransform="matrix(1 0 0 -1 0 -129.75)" gradientUnits="userSpaceOnUse">
				<stop  offset="0.0353" style="stop-color:#E2E68A"/>
				<stop  offset="0.302" style="stop-color:#E2E588;stop-opacity:0.9922"/>
				<stop  offset="0.4627" style="stop-color:#E2E280;stop-opacity:0.9804"/>
				<stop  offset="0.5922" style="stop-color:#E2DB72;stop-opacity:0.9529"/>
				<stop  offset="0.7098" style="stop-color:#E2D25F;stop-opacity:0.9176"/>
				<stop  offset="0.8118" style="stop-color:#E3C748;stop-opacity:0.8706"/>
				<stop  offset="0.8706" style="stop-color:#E4BF39;stop-opacity:0.8392"/>
			</radialGradient>
			<path style="fill-rule:evenodd;clip-rule:evenodd;fill:url(#SVGID_4_);" d="M67-5.55c16.4,0,30.4-5.8,42-17.4
				c11.6-11.566,17.4-25.55,17.4-41.95c0-16.367-5.8-30.35-17.4-41.95c-11.6-11.566-25.6-17.35-42-17.35
				c-16.433,0-30.45,5.784-42.05,17.35c-11.6,11.6-17.4,25.583-17.4,41.95c0,16.4,5.8,30.383,17.4,41.95
				C36.55-11.35,50.567-5.55,67-5.55z"/>
		</g>
	</g>
</symbol>
<symbol  id="Digits_x2F_digit_1" viewBox="0 -26.35 9.95 26.35">
	<g id="Layer_1_18_">
		<path style="fill-rule:evenodd;clip-rule:evenodd;fill:#FFFFFF;" d="M9.95-23.2v-0.35c0-0.867-0.25-1.567-0.75-2.1
			c-0.5-0.467-1.15-0.7-1.95-0.7s-1.45,0.233-1.95,0.7c-0.5,0.533-0.75,1.233-0.75,2.1v0.35c0.034-0.8,0.284-1.45,0.75-1.95
			c0.5-0.467,1.15-0.7,1.95-0.7s1.45,0.233,1.95,0.7C9.667-24.65,9.917-24,9.95-23.2z M0.55-4.2C1.017-4.733,1.65-5,2.45-5h2.1v-0.5
			h-2.1c-0.8,0-1.434,0.267-1.9,0.8C0.183-4.267,0-3.7,0-3c0,0.067,0,0.133,0,0.2C0.033-3.367,0.217-3.833,0.55-4.2z"/>
		
			<use xlink:href="#zzz_x5F_miscellaneous_x2F_digit_1x"  width="9.95" height="25.85" y="-25.85" style="overflow:visible;enable-background:new    ;"/>
		
			<use xlink:href="#zzz_x5F_miscellaneous_x2F_digit_1x"  width="9.95" height="25.85" y="-25.85" style="overflow:visible;opacity:0.4219;enable-background:new    ;"/>
	</g>
</symbol>
<symbol  id="Digits_x2F_digit_3" viewBox="0 -27 17.7 27">
	<g id="Layer_1_17_">
		<path style="fill-rule:evenodd;clip-rule:evenodd;fill:#FFFFFF;" d="M16.25-6.85c0-0.066,0-0.133,0-0.2
			c0-2.267-0.833-4.017-2.5-5.25c-0.167,0.066-0.317,0.133-0.45,0.2C15.2-10.867,16.183-9.117,16.25-6.85z M11.05-7.6
			C10.983-7,10.767-6.517,10.4-6.15c-0.5,0.467-1.133,0.7-1.9,0.7c-1.233,0-2.25-0.6-3.05-1.8C4.617-8.417,3.833-9,3.1-9
			C2.4-9,1.817-8.717,1.35-8.15c-0.4,0.5-0.6,1.117-0.6,1.85c0,0.066,0,0.15,0,0.25c0.033-0.633,0.233-1.167,0.6-1.6
			C1.817-8.217,2.4-8.5,3.1-8.5c0.733,0,1.517,0.583,2.35,1.75c0.8,1.2,1.816,1.8,3.05,1.8c0.767,0,1.4-0.233,1.9-0.7
			c0.434-0.434,0.65-1,0.65-1.7C11.05-7.45,11.05-7.533,11.05-7.6z M9.05-15.1c2.034-0.3,3.05-1.316,3.05-3.05
			c0-0.067,0-0.15,0-0.25c-0.1,1.566-1.117,2.5-3.05,2.8c-2.066,0.3-3.1,1.133-3.1,2.5c0,0.1,0,0.184,0,0.25
			C6.083-14.083,7.117-14.833,9.05-15.1z M0-20.2c0,0.067,0,0.133,0,0.2c0.067-0.967,0.417-1.883,1.05-2.75
			c0.333-0.467,0.75-0.933,1.25-1.4c1.733-1.567,3.833-2.35,6.3-2.35c2.533,0,4.7,0.783,6.5,2.35c0.5,0.433,0.917,0.9,1.25,1.4
			c0.867,1.167,1.316,2.483,1.35,3.95c0-0.1,0-0.184,0-0.25c0-1.567-0.45-2.967-1.35-4.2c-0.333-0.5-0.75-0.967-1.25-1.4
			C13.3-26.217,11.133-27,8.6-27c-2.467,0-4.567,0.783-6.3,2.35c-0.5,0.467-0.917,0.933-1.25,1.4C0.35-22.283,0-21.267,0-20.2z"/>
		
			<use xlink:href="#zzz_x5F_miscellaneous_x2F_digit_3x"  width="17.7" height="26.5" y="-26.5" style="overflow:visible;enable-background:new    ;"/>
		
			<use xlink:href="#zzz_x5F_miscellaneous_x2F_digit_3x"  width="17.7" height="26.5" y="-26.5" style="overflow:visible;opacity:0.4219;enable-background:new    ;"/>
	</g>
</symbol>
<symbol  id="Digits_x2F_digit_9" viewBox="0 -27 18.05 27">
	<g id="Layer_1_19_">
		<path style="fill-rule:evenodd;clip-rule:evenodd;fill:#FFFFFF;" d="M12.45-9.15c-0.034,0.933-0.333,1.717-0.9,2.35
			c-0.633,0.767-1.466,1.15-2.5,1.15c-1,0-1.833-0.367-2.5-1.1C5.983-7.417,5.667-8.217,5.6-9.15c0,0.066,0,0.15,0,0.25
			c0,1.033,0.316,1.917,0.95,2.65c0.667,0.733,1.5,1.1,2.5,1.1c1.034,0,1.867-0.383,2.5-1.15c0.6-0.7,0.9-1.567,0.9-2.6
			C12.45-9,12.45-9.083,12.45-9.15z M18.05-9.4c0-2.5-1.066-5.5-3.2-9c-1.067-1.8-2.2-3.417-3.4-4.85c-0.8-0.933-1.633-1.8-2.5-2.6
			c-0.1-0.1-0.483-0.4-1.15-0.9C7.533-26.917,7.167-27,6.7-27c-0.534,0-1.083,0.283-1.65,0.85c-0.6,0.566-0.9,1.167-0.9,1.8
			c0,0.067,0.017,0.133,0.05,0.2c0.066-0.533,0.35-1.033,0.85-1.5c0.567-0.567,1.117-0.85,1.65-0.85c0.466,0,0.833,0.083,1.1,0.25
			c0.667,0.5,1.05,0.8,1.15,0.9c0.867,0.8,1.7,1.667,2.5,2.6c1.2,1.433,2.333,3.05,3.4,4.85c2.066,3.4,3.133,6.316,3.2,8.75
			C18.05-9.217,18.05-9.3,18.05-9.4z M0-9.4c0,0.1,0,0.183,0,0.25c0.067-2.067,0.783-3.867,2.15-5.4C3.617-16.183,5.4-17,7.5-17
			c0.9,0,1.667,0.15,2.3,0.45l0.05-0.05c-0.133-0.2-0.283-0.417-0.45-0.65c-0.566-0.167-1.2-0.25-1.9-0.25
			c-2.1,0-3.883,0.817-5.35,2.45C0.717-13.45,0-11.567,0-9.4z"/>
		
			<use xlink:href="#zzz_x5F_miscellaneous_x2F_digit_9x"  width="18.05" height="26.5" y="-26.5" style="overflow:visible;enable-background:new    ;"/>
		
			<use xlink:href="#zzz_x5F_miscellaneous_x2F_digit_9x"  width="18.05" height="26.5" y="-26.5" style="overflow:visible;opacity:0.4219;enable-background:new    ;"/>
	</g>
</symbol>
<symbol  id="Frames_x2F_frame_06" viewBox="0 -171.5 171.55 171.5">
	<g id="Layer_1_2_">
		<g>
			<path style="fill-rule:evenodd;clip-rule:evenodd;fill:#6B757B;" d="M85.75,0c11.6,0,22.716-2.25,33.35-6.75
				c10.267-4.333,19.367-10.466,27.3-18.4c7.933-7.9,14.066-16.983,18.4-27.25c4.5-10.633,6.75-21.75,6.75-33.35
				c0-11.6-2.25-22.716-6.75-33.35c-4.333-10.267-10.467-19.35-18.4-27.25c-7.934-7.934-17.034-14.067-27.3-18.4
				c-10.633-4.5-21.75-6.75-33.35-6.75c-11.6,0-22.717,2.25-33.35,6.75c-10.233,4.333-19.317,10.467-27.25,18.4
				c-7.934,7.9-14.067,16.983-18.4,27.25C2.25-108.466,0-97.35,0-85.75c0,11.6,2.25,22.717,6.75,33.35
				c4.333,10.267,10.466,19.35,18.4,27.25c7.933,7.934,17.017,14.067,27.25,18.4C63.033-2.25,74.15,0,85.75,0z"/>
			
				<linearGradient id="SVGID_5_" gradientUnits="userSpaceOnUse" x1="16047.5205" y1="-84.728" x2="16219.0205" y2="-84.728" gradientTransform="matrix(5.830904e-006 1 -1 -0.001 0.9526 -16219.1055)">
				<stop  offset="0.0039" style="stop-color:#46231F"/>
				<stop  offset="0.2078" style="stop-color:#77603D"/>
				<stop  offset="0.5569" style="stop-color:#AB9969"/>
				<stop  offset="0.7412" style="stop-color:#EEECD0"/>
				<stop  offset="0.7922" style="stop-color:#E6E0AD"/>
				<stop  offset="1" style="stop-color:#B4A47A"/>
			</linearGradient>
			<path style="fill-rule:evenodd;clip-rule:evenodd;fill:url(#SVGID_5_);" d="M85.75,0c11.6,0,22.716-2.25,33.35-6.75
				c10.267-4.333,19.367-10.466,27.3-18.4c7.933-7.9,14.066-16.983,18.4-27.25c4.5-10.633,6.75-21.75,6.75-33.35
				c0-11.6-2.25-22.716-6.75-33.35c-4.333-10.267-10.467-19.35-18.4-27.25c-7.934-7.934-17.034-14.067-27.3-18.4
				c-10.633-4.5-21.75-6.75-33.35-6.75c-11.6,0-22.717,2.25-33.35,6.75c-10.233,4.333-19.317,10.467-27.25,18.4
				c-7.934,7.9-14.067,16.983-18.4,27.25C2.25-108.466,0-97.35,0-85.75c0,11.6,2.25,22.717,6.75,33.35
				c4.333,10.267,10.466,19.35,18.4,27.25c7.933,7.934,17.017,14.067,27.25,18.4C63.033-2.25,74.15,0,85.75,0z"/>
			<g>
				<g>
					
						<linearGradient id="SVGID_6_" gradientUnits="userSpaceOnUse" x1="16060.8711" y1="-84.7192" x2="16205.6709" y2="-84.7192" gradientTransform="matrix(6.906077e-006 1 -1 -0.001 0.9438 -16219.1055)">
						<stop  offset="0.0431" style="stop-color:#B5A271"/>
						<stop  offset="1" style="stop-color:#70634A"/>
					</linearGradient>
					<path style="fill-rule:evenodd;clip-rule:evenodd;fill:url(#SVGID_6_);" d="M57.6-19.05c8.967,3.8,18.367,5.7,28.2,5.7
						c9.8,0,19.184-1.9,28.15-5.7c8.667-3.667,16.35-8.833,23.05-15.5c6.667-6.667,11.833-14.333,15.5-23
						c3.8-8.967,5.7-18.367,5.7-28.2c0-9.833-1.9-19.233-5.7-28.2c-3.667-8.667-8.833-16.333-15.5-23
						c-6.7-6.667-14.384-11.833-23.05-15.5c-8.966-3.8-18.35-5.7-28.15-5.7c-9.833,0-19.233,1.9-28.2,5.7
						c-8.667,3.667-16.333,8.833-23,15.5c-6.7,6.667-11.883,14.333-15.55,23c-3.8,8.967-5.7,18.367-5.7,28.2
						c0,9.833,1.9,19.233,5.7,28.2c3.667,8.667,8.85,16.333,15.55,23C41.267-27.883,48.933-22.716,57.6-19.05z"/>
				</g>
			</g>
		</g>
	</g>
</symbol>
<symbol  id="flash0.ai_Assets_x5F_3_x2F_Layer_1_x2F__x3C_Compound_Path_x3E_" viewBox="-0.045 -71.05 78.292 71.053">
	<g id="Layer_1_8_">
		
			<linearGradient id="SVGID_7_" gradientUnits="userSpaceOnUse" x1="16133.6426" y1="-37.6626" x2="16151.9922" y2="-37.6626" gradientTransform="matrix(5.449591e-005 1 -1 -0.001 0.5571 -16219.1055)">
			<stop  offset="0" style="stop-color:#211F1F"/>
			<stop  offset="0.0235" style="stop-color:#3B3939"/>
			<stop  offset="0.0706" style="stop-color:#646262"/>
			<stop  offset="0.1176" style="stop-color:#898888"/>
			<stop  offset="0.1725" style="stop-color:#A9A8A8"/>
			<stop  offset="0.2314" style="stop-color:#C4C4C4"/>
			<stop  offset="0.302" style="stop-color:#DADADA"/>
			<stop  offset="0.3804" style="stop-color:#EBEAEA"/>
			<stop  offset="0.4784" style="stop-color:#F6F6F6"/>
			<stop  offset="0.6157" style="stop-color:#FDFDFD"/>
			<stop  offset="0.9961" style="stop-color:#FFFFFF"/>
		</linearGradient>
		<path style="fill-rule:evenodd;clip-rule:evenodd;fill:url(#SVGID_7_);" d="M64-15.4c-0.767,2.233-1.833,4.483-3.2,6.75
			c-2.733,4.566-5.566,6.983-8.5,7.25c-2.9,0.3-5.6-0.883-8.1-3.55l-2.9-4.1c-1.167,0.733-2.533,1.333-4.1,1.8
			c-3.167,0.933-5.8,0.783-7.9-0.45c-2.066-1.267-3.4-3.367-4-6.3c-0.3-1.467-0.4-2.817-0.3-4.05c-1.6-0.333-3.433-0.85-5.5-1.55
			c-4.1-1.4-7.267-3-9.5-4.8c-2.567-2.067-4.567-5.2-6-9.4c-1.367-4-1.7-7.3-1-9.9c0.533-2.1,1.8-3.517,3.8-4.25
			c1-0.367,1.95-0.517,2.85-0.45l-2.6-5.3c-1.767-4-2.783-7.117-3.05-9.35c-0.3-2.434,1.35-4.1,4.95-5c2.633-0.667,6.867-1,12.7-1
			c4.8,0,9.083,0.216,12.85,0.65c3.767,0.467,6.15,1.033,7.15,1.7l2,1.3l5.85-0.85c4.533-0.4,8.467-0.117,11.8,0.85
			c3.333,0.967,5.067,3.6,5.2,7.9l-0.85,6.1l4.4,2.15c3.034,1.933,4.9,4.217,5.6,6.85c0.7,2.633,0.017,5.15-2.05,7.55l-3.3,2.8
			l1.05,0.55c0.8,0.5,1.483,1.117,2.05,1.85c1.767,2.333,1.967,5.316,0.6,8.95c-0.767,2-2.667,3.483-5.7,4.45L64-15.4z M62.1-7.65
			c1.433-2.4,2.566-4.767,3.4-7.1l4.6-0.9c3.233-1,5.267-2.567,6.1-4.7c1.466-3.767,1.267-6.867-0.6-9.3
			c-0.6-0.767-1.333-1.417-2.2-1.95l-1.1-0.6l3.5-2.95c2.2-2.5,2.917-5.133,2.15-7.9c-0.733-2.767-2.733-5.167-6-7.2L67.3-52.5
			l0.5-1.95c0.3-1.6,0.434-3.1,0.4-4.5c-0.133-4.466-1.983-7.216-5.55-8.25c-3.566-1.033-7.783-1.333-12.65-0.9l-6.2,0.9l-2.15-1.4
			c-1.066-0.7-3.6-1.283-7.6-1.75c-4.033-0.467-8.617-0.7-13.75-0.7c-6.233,0-10.767,0.35-13.6,1.05
			c-3.833,0.967-5.6,2.717-5.3,5.25c0.3,2.333,1.4,5.6,3.3,9.8l2.75,5.6c-0.934-0.066-1.934,0.1-3,0.5c-2.133,0.733-3.5,2.2-4.1,4.4
			c-0.767,2.733-0.417,6.2,1.05,10.4c1.533,4.4,3.667,7.683,6.4,9.85c2.367,1.9,5.717,3.833,10.05,5.8
			c2.167,0.967,4.1,1.75,5.8,2.35c-0.066,1.033,0.067,2.2,0.4,3.5C24.783-9.95,26.267-8,28.5-6.7c2.2,1.3,4.95,1.75,8.25,1.35
			C38.383-5.583,39.8-5.933,41-6.4l3.2,3.45c2.767,2.233,5.716,3.2,8.85,2.9C56.183-0.35,59.2-2.883,62.1-7.65z"/>
	</g>
</symbol>
<symbol  id="flash0.ai_Assets_x5F_3_x2F_Layer_1_x2F__x3C_Path_x3E_" viewBox="-0.056 -67.7 73.271 67.696">
	<g id="Layer_1_7_">
		
			<linearGradient id="SVGID_8_" gradientUnits="userSpaceOnUse" x1="16149.8691" y1="-35.4683" x2="16222.0693" y2="-35.4683" gradientTransform="matrix(1.385042e-005 1 -1 -0.001 0.8877 -16219.1055)">
			<stop  offset="0" style="stop-color:#211F1F"/>
			<stop  offset="0.1725" style="stop-color:#242222"/>
			<stop  offset="0.3098" style="stop-color:#2E2C2C"/>
			<stop  offset="0.4353" style="stop-color:#3F3D3D"/>
			<stop  offset="0.5529" style="stop-color:#565555"/>
			<stop  offset="0.6667" style="stop-color:#747373"/>
			<stop  offset="0.7725" style="stop-color:#9A9999"/>
			<stop  offset="0.8784" style="stop-color:#C6C5C5"/>
			<stop  offset="0.9804" style="stop-color:#F8F8F8"/>
			<stop  offset="0.9961" style="stop-color:#FFFFFF"/>
		</linearGradient>
		<path style="fill-rule:evenodd;clip-rule:evenodd;fill:url(#SVGID_8_);" d="M65.6-14.9c3.033-0.967,4.933-2.45,5.7-4.45
			c1.367-3.633,1.167-6.617-0.6-8.95c-0.567-0.733-1.25-1.35-2.05-1.85L67.6-30.7l3.3-2.8c2.067-2.4,2.75-4.917,2.05-7.55
			c-0.7-2.633-2.567-4.917-5.6-6.85l-4.4-2.15l0.85-6.1c-0.133-4.3-1.867-6.934-5.2-7.9c-3.333-0.967-7.267-1.25-11.8-0.85
			l-5.85,0.85l-2-1.3c-1-0.667-3.383-1.233-7.15-1.7c-3.767-0.434-8.05-0.65-12.85-0.65c-5.833,0-10.067,0.333-12.7,1
			c-3.6,0.9-5.25,2.567-4.95,5c0.267,2.233,1.284,5.35,3.05,9.35l2.6,5.3c-0.9-0.067-1.85,0.083-2.85,0.45
			c-2,0.733-3.267,2.15-3.8,4.25c-0.7,2.6-0.367,5.9,1,9.9c1.434,4.2,3.434,7.333,6,9.4c2.233,1.8,5.4,3.4,9.5,4.8
			c2.067,0.7,3.9,1.217,5.5,1.55c-0.1,1.233,0,2.583,0.3,4.05c0.6,2.933,1.933,5.033,4,6.3c2.1,1.233,4.733,1.383,7.9,0.45
			c1.567-0.467,2.933-1.067,4.1-1.8l2.9,4.1c2.5,2.667,5.2,3.85,8.1,3.55c2.933-0.267,5.767-2.684,8.5-7.25
			c1.367-2.267,2.433-4.517,3.2-6.75L65.6-14.9z"/>
	</g>
</symbol>
<symbol  id="flash0.ai_x5F_11_x2F_Layer_4_x2F__x3C_Compound_Path_x3E_" viewBox="0 -26.727 27.35 26.716">
	<g id="Layer_1_13_">
		<path style="fill-rule:evenodd;clip-rule:evenodd;fill:#C8C6C6;" d="M22.85-2.1c0.9-0.533,1.433-1.683,1.6-3.45
			c0.066-0.9,0.05-1.733-0.05-2.5l1.5-0.6c0.967-0.7,1.45-1.75,1.45-3.15c0-1.4-0.483-2.5-1.45-3.3l-1.5-0.8l1.15-1.35
			c0.7-1.067,0.85-2.1,0.45-3.1c-0.4-1.033-1.367-1.767-2.9-2.2l-2.2-0.4c-0.1-0.566-0.35-1.15-0.75-1.75
			c-0.833-1.167-2.017-1.833-3.55-2c-1.533-0.133-2.817,0.233-3.85,1.1l-1.05,1.35c-0.367-0.333-0.85-0.6-1.45-0.8
			c-1.233-0.4-2.5-0.317-3.8,0.25c-1.3,0.533-2.117,1.716-2.45,3.55L3.9-18.7c-0.633,0.2-1.283,0.483-1.95,0.85
			C0.65-17.15,0-16.367,0-15.5s0.5,1.933,1.5,3.2l1.45,1.65c-0.4,2.1-0.267,3.767,0.4,5c0.4,0.767,1.4,1.25,3,1.45
			C7.15-4.1,7.9-4.083,8.6-4.15C8.567-3.583,8.667-3,8.9-2.4c0.5,1.267,1.434,2.05,2.8,2.35c0.8,0.167,1.933-0.2,3.4-1.1
			c0.7-0.434,1.333-0.883,1.9-1.35l2.1,0.7C20.7-1.467,21.95-1.567,22.85-2.1z M25.95-11.6c0,1.267-0.434,2.217-1.3,2.85l-1.3,0.55
			c0.1,0.7,0.1,1.45,0,2.25c-0.133,1.633-0.6,2.7-1.4,3.2c-0.8,0.5-1.917,0.583-3.35,0.25l-1.9-0.6c-0.5,0.434-1.067,0.85-1.7,1.25
			c-1.267,0.8-2.267,1.117-3,0.95C10.767-1.167,9.933-1.867,9.5-3C9.3-3.6,9.217-4.15,9.25-4.65C8.617-4.583,7.933-4.6,7.2-4.7
			C5.767-4.867,4.867-5.3,4.5-6c-0.567-1.133-0.683-2.667-0.35-4.6l-1.3-1.5c-0.867-1.167-1.3-2.133-1.3-2.9
			c0-0.8,0.583-1.517,1.75-2.15c0.6-0.333,1.184-0.583,1.75-0.75l0.1-2.35c0.267-1.7,0.983-2.783,2.15-3.25
			c1.167-0.5,2.3-0.567,3.4-0.2c0.566,0.167,1,0.4,1.3,0.7l0.95-1.25c0.9-0.767,2.05-1.083,3.45-0.95
			c1.367,0.133,2.417,0.733,3.15,1.8c0.367,0.533,0.583,1.066,0.65,1.6l1.95,0.35c1.367,0.4,2.233,1.067,2.6,2
			c0.367,0.9,0.233,1.85-0.4,2.85l-1,1.25l1.3,0.75C25.517-13.867,25.95-12.867,25.95-11.6z"/>
	</g>
</symbol>
<symbol  id="flash0.ai_x5F_11_x2F_Layer_4_x2F__x3C_Path_x3E_" viewBox="0 -24.38 24.4 24.373">
	<g id="Layer_1_12_">
		
			<linearGradient id="SVGID_9_" gradientUnits="userSpaceOnUse" x1="16193.9063" y1="-10.9448" x2="16225.6816" y2="-10.9448" gradientTransform="matrix(3.147129e-005 1 -1 -0.001 0.7451 -16219.1055)">
			<stop  offset="0" style="stop-color:#211F1F"/>
			<stop  offset="0.1725" style="stop-color:#242222"/>
			<stop  offset="0.3098" style="stop-color:#2E2C2C"/>
			<stop  offset="0.4353" style="stop-color:#3F3D3D"/>
			<stop  offset="0.5529" style="stop-color:#565555"/>
			<stop  offset="0.6667" style="stop-color:#747373"/>
			<stop  offset="0.7725" style="stop-color:#9A9999"/>
			<stop  offset="0.8784" style="stop-color:#C6C5C5"/>
			<stop  offset="0.9804" style="stop-color:#F8F8F8"/>
			<stop  offset="0.9961" style="stop-color:#FFFFFF"/>
		</linearGradient>
		<path style="fill-rule:evenodd;clip-rule:evenodd;fill:url(#SVGID_9_);" d="M20.4-1.9c0.8-0.5,1.267-1.567,1.4-3.2
			c0.1-0.8,0.1-1.55,0-2.25l1.3-0.55c0.867-0.633,1.3-1.583,1.3-2.85s-0.433-2.267-1.3-3l-1.3-0.75l1-1.25
			c0.633-1,0.767-1.95,0.4-2.85c-0.367-0.933-1.233-1.6-2.6-2l-1.95-0.35c-0.066-0.533-0.283-1.066-0.65-1.6
			c-0.733-1.067-1.783-1.667-3.15-1.8c-1.4-0.133-2.55,0.184-3.45,0.95l-0.95,1.25c-0.3-0.3-0.733-0.533-1.3-0.7
			c-1.1-0.367-2.233-0.3-3.4,0.2C4.583-22.183,3.867-21.1,3.6-19.4l-0.1,2.35c-0.567,0.167-1.15,0.417-1.75,0.75
			C0.583-15.667,0-14.95,0-14.15c0,0.767,0.433,1.733,1.3,2.9l1.3,1.5c-0.333,1.933-0.217,3.467,0.35,4.6
			c0.367,0.7,1.267,1.133,2.7,1.3C6.383-3.75,7.067-3.733,7.7-3.8C7.667-3.3,7.75-2.75,7.95-2.15c0.433,1.133,1.267,1.833,2.5,2.1
			c0.733,0.167,1.733-0.15,3-0.95c0.633-0.4,1.2-0.817,1.7-1.25l1.9,0.6C18.483-1.317,19.6-1.4,20.4-1.9z"/>
	</g>
</symbol>
<symbol  id="zz_x5F_Highlight_x2F_Highlight_Piece" viewBox="0 -115.9 118.7 115.9">
	<g id="Layer_1_21_">
		<g>
			
				<use xlink:href="#zzz_x5F_miscellaneous_x2F_FlashAICB_copy_x2F_Layer_1_x2F__x3C_Path_x3E__x5F_2"  width="118.7" height="57.1" y="-57.1" transform="matrix(1 0 0 1 0 -58.7998)" style="overflow:visible;opacity:0.2813;enable-background:new    ;"/>
			
				<use xlink:href="#zzz_x5F_miscellaneous_x2F_FlashAICB_copy_x2F_Layer_1_x2F__x3C_Path_x3E__x5F_1"  width="110.05" height="55.75" y="-55.75" transform="matrix(1 0 0 1 4.1499 0)" style="overflow:visible;opacity:0.1094;enable-background:new    ;"/>
			
				<use xlink:href="#zzz_x5F_miscellaneous_x2F_FlashAICB_copy_x2F_Layer_1_x2F__x3C_Path_x3E_"  width="110.05" height="61.294" y="-61.294" transform="matrix(1 0 0 1 4.1499 0)" style="overflow:visible;opacity:0.0898;enable-background:new    ;"/>
		</g>
	</g>
</symbol>
<symbol  id="zzz_x5F_miscellaneous_x2F_FlashAICB_copy_x2F_Layer_1_x2F__x3C_Path_x3E_" viewBox="0 -61.294 110.05 61.294">
	<g id="Layer_1_16_">
		<path style="fill-rule:evenodd;clip-rule:evenodd;fill:#FFFFFF;" d="M106.5-34.35c2.367-5.633,3.55-10.95,3.55-15.95
			c0-4.934-1.45-8.05-4.35-9.35c-2.333-1.033-6.25-1.017-11.75,0.05c-7.3,1.767-13.133,3.117-17.5,4.05
			C68.417-53.85,61.267-53,55-53c-6.3,0-13.433-0.917-21.4-2.75c-8.333-2.2-14.167-3.683-17.5-4.45
			c-5.533-1.267-9.45-1.433-11.75-0.5C1.45-59.5,0-56.433,0-51.5c0,5.5,1.167,11.167,3.5,17c2.467,6.167,5.95,11.733,10.45,16.7
			C24.65-5.933,38.333,0,55,0c16.467,0,30.15-5.983,41.05-17.95C100.517-22.883,104-28.35,106.5-34.35z"/>
	</g>
</symbol>
<symbol  id="zzz_x5F_miscellaneous_x2F_FlashAICB_copy_x2F_Layer_1_x2F__x3C_Path_x3E__x5F_1" viewBox="0 -55.75 110.05 55.75">
	<g id="Layer_1_15_">
		
			<linearGradient id="SVGID_10_" gradientUnits="userSpaceOnUse" x1="16163.2637" y1="-53.8804" x2="16219.0391" y2="-53.8804" gradientTransform="matrix(1.792918e-005 1 -1 -0.001 0.8545 -16219.1055)">
			<stop  offset="0.1294" style="stop-color:#D9BBB3"/>
			<stop  offset="0.9255" style="stop-color:#FFFFFF"/>
		</linearGradient>
		<path style="fill-rule:evenodd;clip-rule:evenodd;fill:url(#SVGID_10_);" d="M96.05-17.95c4.467-4.933,7.95-10.4,10.45-16.4
			c2.367-5.633,3.55-10.95,3.55-15.95c0-1.567-0.167-3.05-0.5-4.45c-1.867,11.067-7.267,20.9-16.2,29.5
			C82.783-15.117,70-10.05,55-10.05c-15.233,0-28.067-5.05-38.5-15.15C7.533-33.9,2.183-44.083,0.45-55.75
			C0.15-54.617,0-53.2,0-51.5c0,5.5,1.167,11.167,3.5,17c2.467,6.167,5.95,11.733,10.45,16.7C24.65-5.933,38.333,0,55,0
			C71.467,0,85.15-5.983,96.05-17.95z"/>
	</g>
</symbol>
<symbol  id="zzz_x5F_miscellaneous_x2F_FlashAICB_copy_x2F_Layer_1_x2F__x3C_Path_x3E__x5F_2" viewBox="0 -57.1 118.7 57.1">
	<g id="Layer_1_14_">
		
			<radialGradient id="SVGID_11_" cx="59.3501" cy="-28.5498" r="46.5701" gradientTransform="matrix(1 0 0 -1 0 -57.0996)" gradientUnits="userSpaceOnUse">
			<stop  offset="0" style="stop-color:#000000;stop-opacity:0"/>
			<stop  offset="0.651" style="stop-color:#000000;stop-opacity:0.4"/>
		</radialGradient>
		<path style="fill-rule:evenodd;clip-rule:evenodd;fill:url(#SVGID_11_);" d="M95.5-30.35c10.733,7.7,18.3,17.733,22.7,30.1
			L118.7,0c-0.567-15.9-6.6-29.383-18.1-40.45C89.1-51.55,75.333-57.1,59.3-57.1c-15.7,0-29.267,5.367-40.7,16.1
			C7.2-30.333,1-17.233,0-1.7c4.6-12,12.183-21.683,22.75-29.05c10.833-7.567,22.867-11.35,36.1-11.35
			C72.35-42.1,84.567-38.183,95.5-30.35z"/>
	</g>
</symbol>
<symbol  id="zzz_x5F_miscellaneous_x2F_digit_1x" viewBox="0 -25.85 9.95 25.85">
	<g id="Layer_1_5_">
		<linearGradient id="SVGID_12_" gradientUnits="userSpaceOnUse" x1="4.9751" y1="-17.9248" x2="4.9751" y2="-7.9748">
			<stop  offset="0.0745" style="stop-color:#000000;stop-opacity:0.9882"/>
			<stop  offset="0.9647" style="stop-color:#000000;stop-opacity:0.651"/>
		</linearGradient>
		<path style="fill-rule:evenodd;clip-rule:evenodd;fill:url(#SVGID_12_);" d="M0.55-4.2C0.183-3.767,0-3.2,0-2.5
			c0,0.667,0.217,1.233,0.65,1.7C1.117-0.267,1.717,0,2.45,0h5.1c0.767,0,1.367-0.25,1.8-0.75c0.4-0.467,0.6-1.083,0.6-1.85v-20.45
			c0-0.867-0.25-1.567-0.75-2.1c-0.5-0.467-1.15-0.7-1.95-0.7s-1.45,0.233-1.95,0.7c-0.5,0.533-0.75,1.233-0.75,2.1V-5h-2.1
			C1.65-5,1.017-4.733,0.55-4.2z"/>
	</g>
</symbol>
<symbol  id="zzz_x5F_miscellaneous_x2F_digit_3x" viewBox="0 -26.5 17.7 26.5">
	<g id="Layer_1_4_">
		<linearGradient id="SVGID_13_" gradientUnits="userSpaceOnUse" x1="8.8501" y1="-22.1001" x2="8.8501" y2="-4.4001">
			<stop  offset="0.0745" style="stop-color:#000000;stop-opacity:0.9882"/>
			<stop  offset="0.9647" style="stop-color:#000000;stop-opacity:0.651"/>
		</linearGradient>
		<path style="fill-rule:evenodd;clip-rule:evenodd;fill:url(#SVGID_13_);" d="M13.3-12.1c1.333-0.6,2.4-1.467,3.2-2.6
			c0.8-1.167,1.2-2.45,1.2-3.85c0-1.567-0.45-2.967-1.35-4.2c-0.333-0.5-0.75-0.967-1.25-1.4c-1.8-1.567-3.967-2.35-6.5-2.35
			c-2.467,0-4.567,0.783-6.3,2.35c-0.5,0.467-0.917,0.933-1.25,1.4C0.35-21.783,0-20.767,0-19.7c0,0.667,0.3,1.233,0.9,1.7
			c0.533,0.467,1.15,0.7,1.85,0.7s1.5-0.7,2.4-2.1s2.083-2.1,3.55-2.1c0.933,0,1.733,0.317,2.4,0.95c0.667,0.667,1,1.466,1,2.4
			c0,1.733-1.017,2.75-3.05,3.05c-2.066,0.3-3.1,1.133-3.1,2.5c0,1.233,0.85,2.083,2.55,2.55c1.7,0.433,2.55,1.333,2.55,2.7
			c0,0.7-0.216,1.267-0.65,1.7c-0.5,0.467-1.133,0.7-1.9,0.7c-1.233,0-2.25-0.6-3.05-1.8C4.617-7.917,3.833-8.5,3.1-8.5
			c-0.7,0-1.283,0.283-1.75,0.85c-0.4,0.5-0.6,1.117-0.6,1.85c0,1.4,0.817,2.716,2.45,3.95S6.633,0,8.6,0
			c2.367,0,4.283-0.75,5.75-2.25c1.267-1.267,1.9-2.7,1.9-4.3C16.25-8.983,15.267-10.833,13.3-12.1z"/>
	</g>
</symbol>
<symbol  id="zzz_x5F_miscellaneous_x2F_digit_9x" viewBox="0 -26.5 18.05 26.5">
	<g id="Layer_1_6_">
		<linearGradient id="SVGID_14_" gradientUnits="userSpaceOnUse" x1="9.0249" y1="-22.2749" x2="9.0249" y2="-4.2249">
			<stop  offset="0.0745" style="stop-color:#000000;stop-opacity:0.9882"/>
			<stop  offset="0.9647" style="stop-color:#000000;stop-opacity:0.651"/>
		</linearGradient>
		<path style="fill-rule:evenodd;clip-rule:evenodd;fill:url(#SVGID_14_);" d="M18.05-8.9c0-2.5-1.066-5.5-3.2-9
			c-1.067-1.8-2.2-3.417-3.4-4.85c-0.8-0.933-1.633-1.8-2.5-2.6c-0.1-0.1-0.483-0.4-1.15-0.9c-0.267-0.167-0.633-0.25-1.1-0.25
			c-0.534,0-1.083,0.283-1.65,0.85c-0.6,0.566-0.9,1.167-0.9,1.8c0,0.3,0.167,0.667,0.5,1.1c0.067,0.1,0.15,0.217,0.25,0.35
			c2.5,2.733,4.15,4.667,4.95,5.8L9.8-16.55C9.167-16.85,8.4-17,7.5-17c-2.1,0-3.883,0.817-5.35,2.45C0.717-12.95,0-11.067,0-8.9
			c0,2.4,0.833,4.467,2.5,6.2C4.267-0.9,6.45,0,9.05,0c2.7,0,4.9-0.883,6.6-2.65C17.25-4.35,18.05-6.433,18.05-8.9z M11.55-6.3
			c-0.633,0.767-1.466,1.15-2.5,1.15c-1,0-1.833-0.367-2.5-1.1C5.917-6.983,5.6-7.867,5.6-8.9s0.283-1.9,0.85-2.6
			c0.633-0.767,1.5-1.15,2.6-1.15c1,0,1.817,0.35,2.45,1.05c0.633,0.7,0.95,1.6,0.95,2.7C12.45-7.867,12.15-7,11.55-6.3z"/>
	</g>
</symbol>
<g id="Frame">
	
		<use xlink:href="#Frames_x2F_frame_06"  width="171.55" height="171.5" y="-171.5" transform="matrix(1 0 0 -1 0.3999 0.6499)" style="overflow:visible;"/>
</g>
<g id="Base">
	
		<use xlink:href="#BG_x2F_bg_yellow"  width="134" height="134.05" y="-134.05" transform="matrix(1 0 0 -1 19.2002 19.8501)" style="overflow:visible;"/>
</g>
<g id="Decorations">
	<g>
		<path style="fill-rule:evenodd;clip-rule:evenodd;fill:#FFFFFF;fill-opacity:0.8;" d="M46.2,49.05c-0.733,1.133-1.133,2.2-1.2,3.2
			l-0.05,0.15c-1.6,0.533-3.067,1.467-4.4,2.8c-0.833,0.933-1.466,1.966-1.9,3.1c-0.566,1.367-0.7,2.567-0.4,3.6
			c0.067,0.1,0.05,0.15-0.05,0.15c-1.467,1.034-2.684,2.434-3.65,4.2c-0.633,1.2-0.966,2.483-1,3.85c-0.1,1.733,0.367,3.066,1.4,4
			c0.5,0.467,1.1,0.65,1.8,0.55h0.2l0.5-0.15L38,74.15h0.05l0.1,0.05c0.567,0.733,1.25,1.25,2.05,1.55
			c0.333,0.133,0.667,0.167,1,0.1L41.25,76v-0.15l0.85-0.25l0.55-0.5c1.367-1.633,2.25-3.934,2.65-6.9
			c0.1-0.733,0.167-1.383,0.2-1.95v-0.1L45.75,66c1.8-1.133,3.317-3.083,4.55-5.85c0.2-0.267,0.434-0.8,0.7-1.6l0.05-0.05l0.1-0.05
			l0.4-0.1c1.833-0.7,3.717-2.317,5.65-4.85c0.667-0.9,1.2-1.9,1.6-3c0.7-1.867,0.6-3.4-0.3-4.6l-0.05-0.05
			c-0.367-0.533-0.9-0.833-1.6-0.9c-1.067-0.233-2.184-0.267-3.35-0.1c-1.833,0.233-3.483,0.85-4.95,1.85
			C47.65,47.367,46.867,48.15,46.2,49.05z M48.45,46.5c1.533-1.033,3.2-1.667,5-1.9c1.3-0.167,2.45-0.117,3.45,0.15
			c0.733,0,1.333,0.317,1.8,0.95v0.05c0.9,1.267,1.017,2.867,0.35,4.8c-0.4,1.1-0.966,2.133-1.7,3.1c-1.733,2.5-3.633,4.133-5.7,4.9
			L51.2,58.7l-0.05,0.05c-0.1,0.433-0.316,0.95-0.65,1.55c-1.267,2.8-2.8,4.784-4.6,5.95h-0.2c0,0.633-0.05,1.3-0.15,2
			c-0.4,3.067-1.316,5.4-2.75,7l-0.4,0.4l-0.2,0.15c-0.267,0.167-0.567,0.267-0.9,0.3h-0.05c-0.333,0.066-0.717,0.033-1.15-0.1
			c-0.8-0.3-1.483-0.817-2.05-1.55L37,74.9h-0.25c-0.8,0.133-1.467-0.083-2-0.65c-1.033-0.933-1.517-2.3-1.45-4.1
			c0.034-1.4,0.383-2.733,1.05-4C35.217,64.417,36.433,63,38,61.9c-0.3-1.133-0.167-2.383,0.4-3.75c0.467-1.167,1.133-2.217,2-3.15
			c1.233-1.3,2.7-2.233,4.4-2.8c0.067-1.1,0.483-2.217,1.25-3.35C46.717,47.95,47.517,47.167,48.45,46.5z"/>
		
			<linearGradient id="SVGID_15_" gradientUnits="userSpaceOnUse" x1="-82.3486" y1="34.3633" x2="-53.9403" y2="34.3633" gradientTransform="matrix(-0.1883 -0.9821 0.9821 -0.1883 1.205504e-004 2.444386e-004)">
			<stop  offset="0.0745" style="stop-color:#000000;stop-opacity:0.5294"/>
			<stop  offset="0.9647" style="stop-color:#000000;stop-opacity:0.102"/>
		</linearGradient>
		<path style="fill-rule:evenodd;clip-rule:evenodd;fill:url(#SVGID_15_);" d="M46.2,49.05c0.667-0.9,1.45-1.683,2.35-2.35
			c1.467-1,3.117-1.617,4.95-1.85c1.167-0.167,2.283-0.133,3.35,0.1c0.7,0.066,1.233,0.367,1.6,0.9l0.05,0.05
			c0.9,1.2,1,2.733,0.3,4.6c-0.4,1.1-0.933,2.1-1.6,3c-1.934,2.533-3.817,4.15-5.65,4.85l-0.4,0.1l-0.1,0.05L51,58.55
			c-0.267,0.8-0.5,1.333-0.7,1.6c-1.233,2.767-2.75,4.717-4.55,5.85l-0.25,0.15v0.1c-0.033,0.567-0.1,1.217-0.2,1.95
			c-0.4,2.966-1.283,5.267-2.65,6.9l-0.55,0.5l-0.85,0.25V76l-0.05-0.15c-0.333,0.066-0.667,0.033-1-0.1
			c-0.8-0.3-1.483-0.817-2.05-1.55l-0.1-0.05H38l-0.55,0.35l-0.5,0.15h-0.2c-0.7,0.1-1.3-0.083-1.8-0.55
			c-1.034-0.934-1.5-2.267-1.4-4c0.034-1.367,0.367-2.65,1-3.85c0.967-1.767,2.184-3.167,3.65-4.2c0.1,0,0.117-0.05,0.05-0.15
			c-0.3-1.033-0.167-2.233,0.4-3.6c0.434-1.133,1.067-2.167,1.9-3.1c1.333-1.333,2.8-2.267,4.4-2.8L45,52.25
			C45.067,51.25,45.467,50.183,46.2,49.05z M56.65,46.45c-1.1-0.3-2.3-0.333-3.6-0.1c-1.3,0.3-2.5,0.816-3.6,1.55
			c-0.9,0.6-1.633,1.367-2.2,2.3c-0.733,1.167-0.95,2.25-0.65,3.25v0.05c-1.934,0.333-3.6,1.2-5,2.6c-0.7,0.833-1.25,1.75-1.65,2.75
			c-0.534,1.3-0.534,2.383,0,3.25c0.066,0.167,0.233,0.3,0.5,0.4c-1.929,0.754-3.462,2.205-4.6,4.35c-0.467,1-0.733,2.017-0.8,3.05
			c-0.133,1.4,0.167,2.467,0.9,3.2c0.2,0.133,0.4,0.183,0.6,0.15h0.1l0.2-0.05c0.5-0.267,1.083-0.684,1.75-1.25
			c0.467,1.267,1.167,2.066,2.1,2.4L41,74.4l0.3-0.1l0.05-0.05l0.2-0.1c1.167-1.4,1.934-3.45,2.3-6.15c0.233-1.2,0.233-2.35,0-3.45
			l0.25,0.2c0.1,0.1,0.283,0.167,0.55,0.2l0.05-0.1h0.1L45,64.8c1.567-1,2.9-2.75,4-5.25c0.467-1,0.783-2.033,0.95-3.1l0.25,0.3
			c0.167,0.2,0.367,0.3,0.6,0.3h0.05L50.9,57l0.2-0.05c1.6-0.6,3.233-2.034,4.9-4.3c0.733-0.933,1.25-1.883,1.55-2.85
			c0.367-1.3,0.284-2.316-0.25-3.05c-0.1-0.233-0.3-0.333-0.6-0.3H56.65z"/>
		<path style="fill-rule:evenodd;clip-rule:evenodd;fill-opacity:0.8784;" d="M56.5,47.15c-1.033-0.3-2.15-0.333-3.35-0.1
			c-1.2,0.233-2.3,0.684-3.3,1.35c-0.833,0.633-1.517,1.367-2.05,2.2c-0.633,0.967-0.816,1.833-0.55,2.6
			c0.1-0.067,0.2-0.117,0.3-0.15c-0.133,0.067-0.2,0.133-0.2,0.2c0.933,0.033,1.983-0.183,3.15-0.65
			c-0.133,0.4-0.217,0.783-0.25,1.15c-0.2,1.133-0.033,1.983,0.5,2.55c0.031-0.063,0.064-0.121,0.1-0.175
			c-0.033,0.054-0.05,0.112-0.05,0.175c1.534-0.566,3.083-1.933,4.65-4.1c0.6-0.8,1.066-1.633,1.4-2.5
			c0.367-1.133,0.35-1.983-0.05-2.55c-0.036,0.012-0.069,0.021-0.1,0.025l0.05-0.025c-0.067,0-0.15,0.017-0.25,0.05V47.15z
			 M56.65,46.45h0.05c0.3-0.034,0.5,0.066,0.6,0.3c0.534,0.733,0.617,1.75,0.25,3.05c-0.3,0.967-0.816,1.917-1.55,2.85
			c-1.667,2.267-3.3,3.7-4.9,4.3L50.9,57l-0.05,0.05H50.8c-0.233,0-0.433-0.1-0.6-0.3l-0.25-0.3c-0.167,1.066-0.483,2.1-0.95,3.1
			c-1.1,2.5-2.433,4.25-4,5.25l-0.2,0.05h-0.1l-0.05,0.1c-0.267-0.034-0.45-0.1-0.55-0.2l-0.25-0.2c0.233,1.1,0.233,2.25,0,3.45
			c-0.367,2.7-1.133,4.75-2.3,6.15l-0.2,0.1L41.3,74.3L41,74.4l-0.3-0.05c-0.934-0.333-1.633-1.133-2.1-2.4
			c-0.667,0.566-1.25,0.983-1.75,1.25l-0.2,0.05h-0.1c-0.2,0.033-0.4-0.017-0.6-0.15c-0.733-0.733-1.034-1.8-0.9-3.2
			c0.067-1.033,0.333-2.05,0.8-3.05c1.138-2.146,2.671-3.596,4.6-4.35c-0.267-0.1-0.434-0.233-0.5-0.4
			c-0.534-0.867-0.534-1.95,0-3.25c0.4-1,0.95-1.917,1.65-2.75c1.4-1.4,3.066-2.267,5-2.6v-0.05c-0.3-1-0.083-2.083,0.65-3.25
			c0.567-0.934,1.3-1.7,2.2-2.3c1.1-0.733,2.3-1.25,3.6-1.55C54.35,46.117,55.55,46.15,56.65,46.45z M39,70.6
			c0.067,0.367,0.167,0.733,0.3,1.1c0.367,1.066,0.917,1.733,1.65,2c0-0.1,0.017-0.2,0.05-0.3c0,0.1,0,0.184,0,0.25
			c1.133-1.267,1.85-3.2,2.15-5.8c0.167-0.967,0.184-1.9,0.05-2.8c-0.2-1.2-0.6-1.95-1.2-2.25c-0.067,0.067-0.117,0.15-0.15,0.25
			L41.8,63c0.034-0.1,0.067-0.183,0.1-0.25c-0.033,0.033-0.083,0.083-0.15,0.15L41.7,63c-0.233,0.1-0.45,0.217-0.65,0.35
			c0.2-0.167,0.434-0.333,0.7-0.5c-1.067,0.233-2.067,0.75-3,1.55c-0.967,0.767-1.717,1.7-2.25,2.8c-0.467,0.9-0.717,1.833-0.75,2.8
			c-0.067,1.167,0.167,2.017,0.7,2.55c0.055-0.055,0.113-0.088,0.175-0.1c-0.056,0.012-0.098,0.045-0.125,0.1
			C37.367,72.15,38.2,71.5,39,70.6z M40.7,61.65c-0.034,0.033-0.067,0.067-0.1,0.1c0.933-0.133,1.933-0.483,3-1.05
			c-0.067,0.3-0.1,0.633-0.1,1c0.067,1.2,0.4,2.033,1,2.5c0.068-0.114,0.127-0.231,0.175-0.35c-0.029,0.096-0.054,0.196-0.075,0.3
			c1.433-0.933,2.683-2.566,3.75-4.9c0.433-0.9,0.733-1.817,0.9-2.75c0.133-1.167-0.067-1.983-0.6-2.45
			c-0.1,0.067-0.167,0.117-0.2,0.15l-0.05-0.05c0.059-0.029,0.133-0.071,0.225-0.125c-0.096,0.054-0.188,0.096-0.275,0.125V54.1
			c-0.267,0.066-0.533,0.117-0.8,0.15c0.267-0.067,0.534-0.133,0.8-0.2c-1.033-0.1-2.117,0.083-3.25,0.55
			c-1.1,0.467-2.083,1.133-2.95,2c-0.7,0.767-1.2,1.617-1.5,2.55c-0.433,1.1-0.467,1.967-0.1,2.6
			C40.583,61.717,40.633,61.683,40.7,61.65z"/>
		
			<linearGradient id="SVGID_16_" gradientUnits="userSpaceOnUse" x1="-64.8281" y1="43.1797" x2="-56.9881" y2="43.1797" gradientTransform="matrix(-0.1881 -0.9821 0.9821 -0.1881 1.724064e-004 8.438528e-005)">
			<stop  offset="0" style="stop-color:#3A3A3A"/>
			<stop  offset="1" style="stop-color:#9F9F9F"/>
		</linearGradient>
		<path style="fill-rule:evenodd;clip-rule:evenodd;fill:url(#SVGID_16_);" d="M50.85,56.125V56.1c0.8-1.1,1.667-2.717,2.6-4.85
			c0.5-1.067,0.933-1.867,1.3-2.4c0.433-0.6,0.9-1.067,1.4-1.4c0.1-0.1,0.217-0.167,0.35-0.2c0.053,0,0.12-0.025,0.2-0.075
			c0.03-0.004,0.064-0.013,0.1-0.025c0.4,0.567,0.417,1.417,0.05,2.55c-0.333,0.867-0.8,1.7-1.4,2.5
			c-1.567,2.167-3.117,3.533-4.65,4.1C50.8,56.237,50.817,56.179,50.85,56.125z"/>
		<path style="fill-rule:evenodd;clip-rule:evenodd;fill:#EFE0DE;" d="M47.55,53.05c-0.1,0.034-0.2,0.083-0.3,0.15
			c-0.267-0.767-0.083-1.633,0.55-2.6c0.534-0.833,1.217-1.567,2.05-2.2c1-0.667,2.1-1.117,3.3-1.35c1.2-0.233,2.317-0.2,3.35,0.1
			c-0.067,0-0.117,0-0.15,0L56.2,47.2c-0.733,0.033-1.483,0.267-2.25,0.7c-0.467,0.3-1.184,0.85-2.15,1.65
			C50.367,50.983,48.95,52.15,47.55,53.05z M56.7,47.175c-0.08,0.05-0.147,0.075-0.2,0.075c-0.133,0.033-0.25,0.1-0.35,0.2
			c-0.5,0.333-0.967,0.8-1.4,1.4c-0.367,0.533-0.8,1.333-1.3,2.4c-0.934,2.133-1.8,3.75-2.6,4.85v0.025
			c-0.036,0.054-0.069,0.112-0.1,0.175c-0.533-0.566-0.7-1.417-0.5-2.55c0.033-0.367,0.117-0.75,0.25-1.15
			c0.2-0.567,0.45-1.117,0.75-1.65c0.6-1.034,1.4-1.9,2.4-2.6c0.934-0.633,1.883-1.017,2.85-1.15c0.1-0.034,0.183-0.05,0.25-0.05
			L56.7,47.175z M41.05,63.35c-0.466,0.367-0.867,0.85-1.2,1.45c-0.267,0.467-0.65,1.284-1.15,2.45c-0.667,2-1.367,3.7-2.1,5.1
			l0.05,0.1h-0.025c-0.062,0.012-0.12,0.045-0.175,0.1c-0.534-0.533-0.767-1.383-0.7-2.55c0.033-0.967,0.283-1.9,0.75-2.8
			c0.533-1.1,1.283-2.034,2.25-2.8c0.933-0.8,1.933-1.316,3-1.55C41.483,63.017,41.25,63.183,41.05,63.35z M41,73.4
			c-0.033,0.1-0.05,0.2-0.05,0.3c-0.733-0.267-1.284-0.934-1.65-2c-0.133-0.367-0.233-0.733-0.3-1.1
			c-0.133-0.633-0.183-1.25-0.15-1.85c0.1-1.167,0.417-2.317,0.95-3.45c0.534-0.966,1.167-1.733,1.9-2.3l0.05-0.1
			c0.067-0.066,0.117-0.117,0.15-0.15c-0.033,0.067-0.066,0.15-0.1,0.25c-0.066,0.167-0.167,0.35-0.3,0.55v0.05
			c-0.233,0.467-0.4,1-0.5,1.6c-0.067,0.667-0.067,1.583,0,2.75C41.133,70.183,41.133,72,41,73.4z M48.4,54.15
			c-0.133,0.133-0.283,0.267-0.45,0.4c-0.367,0.4-0.684,0.9-0.95,1.5c-0.167,0.5-0.433,1.367-0.8,2.6
			c-0.4,2.033-0.883,3.717-1.45,5.05c-0.021,0.052-0.046,0.102-0.075,0.15c-0.048,0.119-0.106,0.236-0.175,0.35
			c-0.6-0.467-0.933-1.3-1-2.5c0-0.367,0.033-0.7,0.1-1c0.033-0.633,0.15-1.267,0.35-1.9c0.466-1.1,1.117-2.1,1.95-3
			c0.733-0.8,1.55-1.35,2.45-1.65c0.087-0.029,0.179-0.071,0.275-0.125C48.533,54.079,48.458,54.121,48.4,54.15z M40.7,61.65
			c-0.067,0.033-0.117,0.067-0.15,0.1c-0.367-0.633-0.333-1.5,0.1-2.6c0.3-0.933,0.8-1.783,1.5-2.55c0.867-0.867,1.85-1.533,2.95-2
			c1.133-0.467,2.217-0.65,3.25-0.55c-0.267,0.067-0.533,0.133-0.8,0.2c-0.5,0.233-0.983,0.583-1.45,1.05
			c-0.434,0.367-1.05,1.05-1.85,2.05C42.85,59.283,41.667,60.717,40.7,61.65z"/>
		
			<linearGradient id="SVGID_17_" gradientUnits="userSpaceOnUse" x1="-61.3325" y1="41.5229" x2="-56.8266" y2="41.5229" gradientTransform="matrix(-0.1886 -0.982 0.982 -0.1886 1.401007e-004 -6.342232e-004)">
			<stop  offset="0" style="stop-color:#3A3A3A"/>
			<stop  offset="1" style="stop-color:#9F9F9F"/>
		</linearGradient>
		<path style="fill-rule:evenodd;clip-rule:evenodd;fill:url(#SVGID_17_);" d="M56.5,47.15v0.05c-0.967,0.133-1.917,0.517-2.85,1.15
			c-1,0.7-1.8,1.566-2.4,2.6c-0.3,0.533-0.55,1.083-0.75,1.65c-1.167,0.467-2.217,0.683-3.15,0.65c0-0.067,0.066-0.133,0.2-0.2
			c1.4-0.9,2.817-2.066,4.25-3.5c0.967-0.8,1.684-1.35,2.15-1.65c0.767-0.433,1.517-0.667,2.25-0.7l0.15-0.05
			C56.383,47.15,56.433,47.15,56.5,47.15z"/>
		
			<linearGradient id="SVGID_18_" gradientUnits="userSpaceOnUse" x1="-78.1245" y1="25.5234" x2="-69.6963" y2="25.5234" gradientTransform="matrix(-0.1898 -0.9818 0.9818 -0.1898 0 8.109212e-005)">
			<stop  offset="0" style="stop-color:#3A3A3A"/>
			<stop  offset="1" style="stop-color:#9F9F9F"/>
		</linearGradient>
		<path style="fill-rule:evenodd;clip-rule:evenodd;fill:url(#SVGID_18_);" d="M41.05,63.35c0.2-0.133,0.417-0.25,0.65-0.35
			c-0.733,0.567-1.367,1.333-1.9,2.3c-0.533,1.133-0.85,2.284-0.95,3.45c-0.033,0.6,0.017,1.217,0.15,1.85
			c-0.8,0.9-1.633,1.55-2.5,1.95c0.027-0.054,0.069-0.087,0.125-0.1h0.025l-0.05-0.1c0.733-1.4,1.433-3.1,2.1-5.1
			c0.5-1.167,0.883-1.983,1.15-2.45C40.183,64.2,40.583,63.717,41.05,63.35z"/>
		
			<linearGradient id="SVGID_19_" gradientUnits="userSpaceOnUse" x1="-68.3057" y1="32.7764" x2="-62.1964" y2="32.7764" gradientTransform="matrix(-0.1882 -0.9821 0.9821 -0.1882 6.335974e-005 -9.732991e-004)">
			<stop  offset="0" style="stop-color:#3A3A3A"/>
			<stop  offset="1" style="stop-color:#9F9F9F"/>
		</linearGradient>
		<path style="fill-rule:evenodd;clip-rule:evenodd;fill:url(#SVGID_19_);" d="M47.55,54.25c0.267-0.033,0.534-0.083,0.8-0.15v0.05
			c-0.9,0.3-1.717,0.85-2.45,1.65c-0.833,0.9-1.483,1.9-1.95,3c-0.2,0.633-0.317,1.267-0.35,1.9c-1.067,0.566-2.067,0.917-3,1.05
			c0.033-0.033,0.066-0.067,0.1-0.1c0.966-0.933,2.15-2.367,3.55-4.3c0.8-1,1.417-1.684,1.85-2.05
			C46.567,54.833,47.05,54.483,47.55,54.25z"/>
		
			<linearGradient id="SVGID_20_" gradientUnits="userSpaceOnUse" x1="-71.4443" y1="34.8477" x2="-62.2871" y2="34.8477" gradientTransform="matrix(-0.1882 -0.9821 0.9821 -0.1882 -2.989471e-004 -9.732991e-004)">
			<stop  offset="0" style="stop-color:#3A3A3A"/>
			<stop  offset="1" style="stop-color:#9F9F9F"/>
		</linearGradient>
		<path style="fill-rule:evenodd;clip-rule:evenodd;fill:url(#SVGID_20_);" d="M44.675,63.85c0.029-0.048,0.054-0.098,0.075-0.15
			c0.567-1.333,1.05-3.017,1.45-5.05c0.367-1.233,0.633-2.1,0.8-2.6c0.267-0.6,0.583-1.1,0.95-1.5c0.167-0.1,0.333-0.216,0.5-0.35
			c0.033-0.034,0.1-0.083,0.2-0.15c0.533,0.467,0.733,1.284,0.6,2.45c-0.167,0.933-0.467,1.85-0.9,2.75
			c-1.067,2.333-2.317,3.967-3.75,4.9C44.621,64.046,44.646,63.946,44.675,63.85z"/>
		
			<linearGradient id="SVGID_21_" gradientUnits="userSpaceOnUse" x1="-68.3057" y1="37.103" x2="-62.1964" y2="37.103" gradientTransform="matrix(-0.1882 -0.9821 0.9821 -0.1882 6.335974e-005 -9.732991e-004)">
			<stop  offset="0" style="stop-color:#7BA0FD"/>
			<stop  offset="0.2471" style="stop-color:#6C8BD4"/>
			<stop  offset="0.7647" style="stop-color:#4D5F81"/>
			<stop  offset="1" style="stop-color:#414E61"/>
		</linearGradient>
		<path style="fill-rule:evenodd;clip-rule:evenodd;fill:url(#SVGID_21_);" d="M48.45,54.2c-0.167,0.133-0.333,0.25-0.5,0.35
			c0.167-0.133,0.316-0.267,0.45-0.4L48.45,54.2z"/>
		
			<linearGradient id="SVGID_22_" gradientUnits="userSpaceOnUse" x1="-78.1245" y1="28.9009" x2="-69.6963" y2="28.9009" gradientTransform="matrix(-0.1898 -0.9818 0.9818 -0.1898 0 8.109212e-005)">
			<stop  offset="0" style="stop-color:#7BA0FD"/>
			<stop  offset="0.2471" style="stop-color:#6C8BD4"/>
			<stop  offset="0.7647" style="stop-color:#4D5F81"/>
			<stop  offset="1" style="stop-color:#414E61"/>
		</linearGradient>
		<path style="fill-rule:evenodd;clip-rule:evenodd;fill:url(#SVGID_22_);" d="M41.85,63.05c-0.1,0.167-0.217,0.333-0.35,0.5
			c0.133-0.2,0.233-0.383,0.3-0.55L41.85,63.05z"/>
		
			<linearGradient id="SVGID_23_" gradientUnits="userSpaceOnUse" x1="-80.0537" y1="28.2881" x2="-69.5661" y2="28.2881" gradientTransform="matrix(-0.1883 -0.9821 0.9821 -0.1883 2.497137e-004 -7.002801e-004)">
			<stop  offset="0" style="stop-color:#3A3A3A"/>
			<stop  offset="1" style="stop-color:#9F9F9F"/>
		</linearGradient>
		<path style="fill-rule:evenodd;clip-rule:evenodd;fill:url(#SVGID_23_);" d="M41.5,63.55c0.133-0.167,0.25-0.333,0.35-0.5
			c0.033-0.1,0.083-0.183,0.15-0.25c0.6,0.3,1,1.05,1.2,2.25c0.133,0.9,0.117,1.833-0.05,2.8c-0.3,2.6-1.017,4.533-2.15,5.8
			c0-0.066,0-0.15,0-0.25c0.133-1.4,0.133-3.217,0-5.45c-0.067-1.167-0.067-2.083,0-2.75c0.1-0.6,0.267-1.133,0.5-1.6V63.55z"/>
	</g>
	<g>
		<path style="fill-rule:evenodd;clip-rule:evenodd;fill:#FFFFFF;fill-opacity:0.8;" d="M127.35,49.05
			c-0.666-0.9-1.449-1.683-2.35-2.35c-1.467-1-3.116-1.617-4.95-1.85c-1.166-0.167-2.283-0.133-3.35,0.1
			c-0.7,0.066-1.233,0.367-1.601,0.9l-0.05,0.05c-0.899,1.2-1,2.733-0.3,4.6c0.4,1.1,0.934,2.1,1.6,3
			c1.934,2.533,3.817,4.15,5.65,4.85l0.4,0.1l0.1,0.05l0.05,0.05c0.267,0.8,0.5,1.333,0.7,1.6c1.233,2.767,2.75,4.717,4.55,5.85
			l0.25,0.15v0.1c0.033,0.567,0.101,1.217,0.2,1.95c0.4,2.966,1.283,5.267,2.65,6.9l0.55,0.5l0.85,0.25V76l0.05-0.15
			c0.334,0.066,0.667,0.033,1-0.1c0.801-0.3,1.483-0.817,2.051-1.55l0.1-0.05h0.05l0.55,0.35l0.5,0.15h0.2
			c0.7,0.1,1.3-0.083,1.8-0.55c1.034-0.934,1.5-2.267,1.4-4c-0.033-1.367-0.366-2.65-1-3.85c-0.967-1.767-2.184-3.167-3.65-4.2
			c-0.1,0-0.116-0.05-0.05-0.15c0.3-1.033,0.167-2.233-0.399-3.6c-0.434-1.133-1.067-2.167-1.9-3.1c-1.333-1.333-2.8-2.267-4.4-2.8
			l-0.05-0.15C128.483,51.25,128.083,50.183,127.35,49.05z M125.1,46.5c0.934,0.667,1.733,1.45,2.4,2.35
			c0.767,1.133,1.184,2.25,1.25,3.35c1.7,0.566,3.167,1.5,4.4,2.8c0.866,0.933,1.533,1.983,2,3.15
			c0.566,1.367,0.699,2.617,0.399,3.75c1.566,1.1,2.783,2.517,3.65,4.25c0.666,1.267,1.017,2.6,1.05,4
			c0.066,1.8-0.417,3.167-1.45,4.1c-0.533,0.567-1.2,0.783-2,0.65h-0.25l-1.05-0.45c-0.566,0.733-1.25,1.25-2.05,1.55
			c-0.434,0.133-0.816,0.167-1.15,0.1h-0.05c-0.333-0.033-0.634-0.133-0.9-0.3l-0.199-0.15l-0.4-0.4c-1.434-1.6-2.35-3.933-2.75-7
			c-0.1-0.7-0.15-1.367-0.15-2h-0.199c-1.801-1.167-3.334-3.15-4.601-5.95c-0.333-0.6-0.55-1.117-0.649-1.55l-0.051-0.05
			l-0.449-0.15c-2.067-0.767-3.967-2.4-5.7-4.9c-0.733-0.967-1.3-2-1.7-3.1c-0.667-1.933-0.55-3.533,0.35-4.8V45.7
			c0.467-0.633,1.067-0.95,1.801-0.95c1-0.267,2.149-0.317,3.449-0.15C121.9,44.833,123.566,45.467,125.1,46.5z"/>
		<linearGradient id="SVGID_24_" gradientUnits="userSpaceOnUse" x1="124.2939" y1="74.4033" x2="129.644" y2="46.5033">
			<stop  offset="0.0745" style="stop-color:#000000;stop-opacity:0.5294"/>
			<stop  offset="0.9647" style="stop-color:#000000;stop-opacity:0.102"/>
		</linearGradient>
		<path style="fill-rule:evenodd;clip-rule:evenodd;fill:url(#SVGID_24_);" d="M127.35,49.05c0.733,1.133,1.134,2.2,1.2,3.2
			l0.05,0.15c1.601,0.533,3.067,1.467,4.4,2.8c0.833,0.933,1.467,1.966,1.9,3.1c0.566,1.367,0.699,2.567,0.399,3.6
			c-0.066,0.1-0.05,0.15,0.05,0.15c1.467,1.034,2.684,2.434,3.65,4.2c0.634,1.2,0.967,2.483,1,3.85c0.1,1.733-0.366,3.066-1.4,4
			c-0.5,0.467-1.1,0.65-1.8,0.55h-0.2l-0.5-0.15l-0.55-0.35h-0.05l-0.1,0.05c-0.567,0.733-1.25,1.25-2.051,1.55
			c-0.333,0.133-0.666,0.167-1,0.1L132.3,76v-0.15l-0.85-0.25l-0.55-0.5c-1.367-1.633-2.25-3.934-2.65-6.9
			c-0.1-0.733-0.167-1.383-0.2-1.95v-0.1L127.8,66c-1.8-1.133-3.316-3.083-4.55-5.85c-0.2-0.267-0.434-0.8-0.7-1.6l-0.05-0.05
			l-0.1-0.05l-0.4-0.1c-1.833-0.7-3.717-2.317-5.65-4.85c-0.666-0.9-1.199-1.9-1.6-3c-0.7-1.867-0.6-3.4,0.3-4.6l0.05-0.05
			c0.367-0.533,0.9-0.833,1.601-0.9c1.066-0.233,2.184-0.267,3.35-0.1c1.834,0.233,3.483,0.85,4.95,1.85
			C125.9,47.367,126.684,48.15,127.35,49.05z M116.9,46.45h-0.051c-0.3-0.034-0.5,0.066-0.6,0.3c-0.533,0.733-0.616,1.75-0.25,3.05
			c0.3,0.967,0.816,1.917,1.55,2.85c1.667,2.267,3.3,3.7,4.9,4.3l0.2,0.05l0.05,0.05h0.05c0.233,0,0.434-0.1,0.6-0.3l0.25-0.3
			c0.167,1.066,0.483,2.1,0.95,3.1c1.101,2.5,2.434,4.25,4,5.25l0.2,0.05h0.1l0.051,0.1c0.267-0.034,0.449-0.1,0.55-0.2l0.25-0.2
			c-0.233,1.1-0.233,2.25,0,3.45c0.366,2.7,1.133,4.75,2.3,6.15l0.2,0.1l0.05,0.05l0.3,0.1l0.3-0.05
			c0.934-0.333,1.634-1.133,2.101-2.4c0.666,0.566,1.25,0.983,1.75,1.25l0.2,0.05h0.1c0.2,0.033,0.4-0.017,0.6-0.15
			c0.733-0.733,1.034-1.8,0.9-3.2c-0.066-1.033-0.333-2.05-0.8-3.05c-1.134-2.133-2.667-3.583-4.601-4.35
			c0.267-0.1,0.434-0.233,0.5-0.4c0.534-0.867,0.534-1.95,0-3.25c-0.399-1-0.949-1.917-1.649-2.75c-1.4-1.4-3.066-2.267-5-2.6v-0.05
			c0.3-1,0.083-2.083-0.65-3.25c-0.566-0.934-1.3-1.7-2.2-2.3c-1.1-0.733-2.3-1.25-3.6-1.55C119.2,46.117,118,46.15,116.9,46.45z"/>
		<path style="fill-rule:evenodd;clip-rule:evenodd;fill-opacity:0.8784;" d="M116.9,46.45c1.1-0.3,2.3-0.333,3.6-0.1
			c1.3,0.3,2.5,0.816,3.6,1.55c0.9,0.6,1.634,1.367,2.2,2.3c0.733,1.167,0.95,2.25,0.65,3.25v0.05c1.934,0.333,3.6,1.2,5,2.6
			c0.7,0.833,1.25,1.75,1.649,2.75c0.534,1.3,0.534,2.383,0,3.25c-0.066,0.167-0.233,0.3-0.5,0.4
			c1.934,0.767,3.467,2.217,4.601,4.35c0.467,1,0.733,2.017,0.8,3.05c0.134,1.4-0.167,2.467-0.9,3.2
			c-0.199,0.133-0.399,0.183-0.6,0.15h-0.1l-0.2-0.05c-0.5-0.267-1.084-0.684-1.75-1.25c-0.467,1.267-1.167,2.066-2.101,2.4
			l-0.3,0.05l-0.3-0.1l-0.05-0.05l-0.2-0.1c-1.167-1.4-1.934-3.45-2.3-6.15c-0.233-1.2-0.233-2.35,0-3.45l-0.25,0.2
			c-0.101,0.1-0.283,0.167-0.55,0.2l-0.051-0.1h-0.1l-0.2-0.05c-1.566-1-2.899-2.75-4-5.25c-0.467-1-0.783-2.033-0.95-3.1l-0.25,0.3
			c-0.166,0.2-0.366,0.3-0.6,0.3h-0.05L122.65,57l-0.2-0.05c-1.601-0.6-3.233-2.034-4.9-4.3c-0.733-0.933-1.25-1.883-1.55-2.85
			c-0.366-1.3-0.283-2.316,0.25-3.05c0.1-0.233,0.3-0.333,0.6-0.3H116.9z M123.05,52.6c1.167,0.467,2.217,0.683,3.15,0.65
			c0-0.067-0.066-0.133-0.2-0.2c0.1,0.034,0.2,0.083,0.3,0.15c0.267-0.767,0.084-1.633-0.55-2.6c-0.533-0.833-1.217-1.567-2.05-2.2
			c-1-0.667-2.101-1.117-3.3-1.35c-1.2-0.233-2.317-0.2-3.351,0.1v0.05c-0.1-0.034-0.184-0.05-0.25-0.05l0.05,0.05
			c-0.035-0.034-0.068-0.05-0.1-0.05c-0.4,0.567-0.417,1.417-0.05,2.55c0.333,0.867,0.8,1.7,1.399,2.5
			c1.567,2.167,3.117,3.533,4.65,4.1c0-0.063-0.017-0.112-0.05-0.15c0.035,0.038,0.068,0.087,0.1,0.15
			c0.533-0.566,0.7-1.417,0.5-2.55C123.267,53.383,123.184,53,123.05,52.6z M126,54.25c-0.267-0.033-0.533-0.083-0.8-0.15v0.05
			c-0.082-0.027-0.165-0.052-0.25-0.075c0.079,0.023,0.146,0.048,0.2,0.075L125.1,54.2c-0.033-0.034-0.1-0.083-0.199-0.15
			c-0.534,0.467-0.733,1.284-0.601,2.45c0.167,0.933,0.467,1.85,0.9,2.75c1.066,2.333,2.316,3.967,3.75,4.9
			c-0.033-0.1-0.066-0.2-0.101-0.3c0.067,0.133,0.134,0.25,0.2,0.35c0.601-0.467,0.934-1.3,1-2.5c0-0.367-0.033-0.7-0.1-1
			c1.066,0.566,2.066,0.917,3,1.05c-0.033-0.033-0.066-0.067-0.101-0.1c0.067,0.033,0.117,0.067,0.15,0.1
			c0.366-0.633,0.333-1.5-0.1-2.6c-0.301-0.933-0.801-1.783-1.5-2.55c-0.867-0.867-1.851-1.533-2.95-2
			c-1.134-0.467-2.217-0.65-3.25-0.55C125.467,54.117,125.733,54.183,126,54.25z M132.5,63.35c-0.2-0.133-0.417-0.25-0.65-0.35
			l-0.05-0.1c-0.066-0.066-0.116-0.117-0.149-0.15c0.033,0.067,0.066,0.15,0.1,0.25l-0.05,0.05c-0.033-0.1-0.084-0.183-0.15-0.25
			c-0.6,0.3-1,1.05-1.2,2.25c-0.133,0.9-0.116,1.833,0.051,2.8c0.3,2.6,1.017,4.533,2.149,5.8c0-0.066,0-0.15,0-0.25
			c0.033,0.1,0.05,0.2,0.05,0.3c0.733-0.267,1.284-0.934,1.65-2c0.134-0.367,0.233-0.733,0.3-1.1c0.8,0.9,1.634,1.55,2.5,1.95
			c-0.027-0.054-0.068-0.087-0.125-0.1c0.063,0.012,0.12,0.045,0.175,0.1c0.534-0.533,0.767-1.383,0.7-2.55
			c-0.033-0.967-0.283-1.9-0.75-2.8c-0.533-1.1-1.283-2.034-2.25-2.8c-0.934-0.8-1.934-1.316-3-1.55
			C132.066,63.017,132.3,63.183,132.5,63.35z"/>
		<path style="fill-rule:evenodd;clip-rule:evenodd;fill:#EFE0DE;" d="M116.85,47.2l-0.05-0.05c0.066,0,0.15,0.017,0.25,0.05
			c0.967,0.133,1.917,0.517,2.851,1.15c1,0.7,1.8,1.566,2.399,2.6c0.3,0.533,0.55,1.083,0.75,1.65c0.134,0.4,0.217,0.783,0.25,1.15
			c0.2,1.133,0.033,1.983-0.5,2.55c-0.031-0.063-0.064-0.112-0.1-0.15V56.1c-0.8-1.1-1.667-2.717-2.601-4.85
			c-0.5-1.067-0.933-1.867-1.3-2.4c-0.434-0.6-0.899-1.067-1.399-1.4c-0.101-0.1-0.217-0.167-0.351-0.2
			C116.983,47.25,116.917,47.233,116.85,47.2z M117.05,47.15c1.033-0.3,2.15-0.333,3.351-0.1c1.199,0.233,2.3,0.684,3.3,1.35
			c0.833,0.633,1.517,1.367,2.05,2.2c0.634,0.967,0.816,1.833,0.55,2.6c-0.1-0.067-0.2-0.117-0.3-0.15
			c-1.4-0.9-2.816-2.066-4.25-3.5c-0.967-0.8-1.684-1.35-2.15-1.65c-0.767-0.433-1.517-0.667-2.25-0.7l-0.149-0.05
			C117.167,47.15,117.116,47.15,117.05,47.15z M132.85,61.65c-0.966-0.933-2.149-2.367-3.55-4.3c-0.8-1-1.416-1.684-1.85-2.05
			c-0.467-0.466-0.95-0.816-1.45-1.05c-0.267-0.067-0.533-0.133-0.8-0.2c1.033-0.1,2.116,0.083,3.25,0.55
			c1.1,0.467,2.083,1.133,2.95,2c0.699,0.767,1.199,1.617,1.5,2.55c0.433,1.1,0.466,1.967,0.1,2.6
			C132.967,61.717,132.917,61.683,132.85,61.65z M125.2,54.15c0.899,0.3,1.717,0.85,2.45,1.65c0.833,0.9,1.483,1.9,1.949,3
			c0.2,0.633,0.317,1.267,0.351,1.9c0.066,0.3,0.1,0.633,0.1,1c-0.066,1.2-0.399,2.033-1,2.5c-0.066-0.1-0.133-0.217-0.2-0.35
			c0-0.033-0.017-0.083-0.05-0.15c-0.566-1.333-1.05-3.017-1.45-5.05c-0.366-1.233-0.633-2.1-0.8-2.6c-0.267-0.6-0.583-1.1-0.95-1.5
			c-0.166-0.133-0.316-0.267-0.449-0.4c-0.055-0.027-0.121-0.052-0.2-0.075C125.035,54.098,125.118,54.123,125.2,54.15z
			 M132.55,73.4c-0.133-1.4-0.133-3.217,0-5.45c0.066-1.167,0.066-2.083,0-2.75c-0.1-0.6-0.267-1.133-0.5-1.6v-0.05
			c-0.133-0.2-0.233-0.383-0.3-0.55c-0.033-0.1-0.066-0.183-0.1-0.25c0.033,0.033,0.083,0.083,0.149,0.15l0.05,0.1
			c0.733,0.567,1.367,1.333,1.9,2.3c0.533,1.133,0.85,2.284,0.95,3.45c0.033,0.6-0.017,1.217-0.15,1.85
			c-0.066,0.367-0.166,0.733-0.3,1.1c-0.366,1.066-0.917,1.733-1.65,2C132.6,73.6,132.583,73.5,132.55,73.4z M132.5,63.35
			c-0.2-0.167-0.434-0.333-0.7-0.5c1.066,0.233,2.066,0.75,3,1.55c0.967,0.767,1.717,1.7,2.25,2.8c0.467,0.9,0.717,1.833,0.75,2.8
			c0.066,1.167-0.166,2.017-0.7,2.55c-0.055-0.055-0.112-0.088-0.175-0.1H136.9l0.05-0.1c-0.733-1.4-1.434-3.1-2.101-5.1
			c-0.5-1.167-0.883-1.983-1.149-2.45C133.366,64.2,132.967,63.717,132.5,63.35z"/>
		<linearGradient id="SVGID_25_" gradientUnits="userSpaceOnUse" x1="118.9453" y1="55.5464" x2="120.4203" y2="47.8464">
			<stop  offset="0" style="stop-color:#3A3A3A"/>
			<stop  offset="1" style="stop-color:#9F9F9F"/>
		</linearGradient>
		<path style="fill-rule:evenodd;clip-rule:evenodd;fill:url(#SVGID_25_);" d="M122.7,56.15c0.033,0.038,0.05,0.087,0.05,0.15
			c-1.533-0.566-3.083-1.933-4.65-4.1c-0.6-0.8-1.066-1.633-1.399-2.5c-0.367-1.133-0.351-1.983,0.05-2.55
			c0.031,0,0.064,0.017,0.1,0.05c0.067,0.033,0.134,0.05,0.2,0.05c0.134,0.033,0.25,0.1,0.351,0.2c0.5,0.333,0.966,0.8,1.399,1.4
			c0.367,0.533,0.8,1.333,1.3,2.4c0.934,2.133,1.801,3.75,2.601,4.85V56.15z"/>
		<linearGradient id="SVGID_26_" gradientUnits="userSpaceOnUse" x1="121.2031" y1="52.3984" x2="122.0531" y2="47.9734">
			<stop  offset="0" style="stop-color:#3A3A3A"/>
			<stop  offset="1" style="stop-color:#9F9F9F"/>
		</linearGradient>
		<path style="fill-rule:evenodd;clip-rule:evenodd;fill:url(#SVGID_26_);" d="M126,53.05c0.134,0.067,0.2,0.133,0.2,0.2
			c-0.934,0.033-1.983-0.183-3.15-0.65c-0.2-0.567-0.45-1.117-0.75-1.65c-0.6-1.034-1.399-1.9-2.399-2.6
			c-0.934-0.633-1.884-1.017-2.851-1.15v-0.05c0.066,0,0.117,0,0.15,0l0.149,0.05c0.733,0.033,1.483,0.267,2.25,0.7
			c0.467,0.3,1.184,0.85,2.15,1.65C123.184,50.983,124.6,52.15,126,53.05z"/>
		<linearGradient id="SVGID_27_" gradientUnits="userSpaceOnUse" x1="128.5029" y1="60.9155" x2="129.6529" y2="54.9155">
			<stop  offset="0" style="stop-color:#3A3A3A"/>
			<stop  offset="1" style="stop-color:#9F9F9F"/>
		</linearGradient>
		<path style="fill-rule:evenodd;clip-rule:evenodd;fill:url(#SVGID_27_);" d="M129.95,60.7c-0.033-0.633-0.15-1.267-0.351-1.9
			c-0.466-1.1-1.116-2.1-1.949-3c-0.733-0.8-1.551-1.35-2.45-1.65V54.1c0.267,0.066,0.533,0.117,0.8,0.15
			c0.5,0.233,0.983,0.583,1.45,1.05c0.434,0.367,1.05,1.05,1.85,2.05c1.4,1.933,2.584,3.367,3.55,4.3
			c0.034,0.033,0.067,0.067,0.101,0.1C132.017,61.617,131.017,61.267,129.95,60.7z"/>
		<linearGradient id="SVGID_28_" gradientUnits="userSpaceOnUse" x1="124.252" y1="60.1006" x2="125.402" y2="54.1006">
			<stop  offset="0" style="stop-color:#7BA0FD"/>
			<stop  offset="0.2471" style="stop-color:#6C8BD4"/>
			<stop  offset="0.7647" style="stop-color:#4D5F81"/>
			<stop  offset="1" style="stop-color:#414E61"/>
		</linearGradient>
		<path style="fill-rule:evenodd;clip-rule:evenodd;fill:url(#SVGID_28_);" d="M125.15,54.15c0.133,0.133,0.283,0.267,0.449,0.4
			c-0.166-0.1-0.333-0.216-0.5-0.35L125.15,54.15z"/>
		<linearGradient id="SVGID_29_" gradientUnits="userSpaceOnUse" x1="125.877" y1="63.6079" x2="127.6007" y2="54.6144">
			<stop  offset="0" style="stop-color:#3A3A3A"/>
			<stop  offset="1" style="stop-color:#9F9F9F"/>
		</linearGradient>
		<path style="fill-rule:evenodd;clip-rule:evenodd;fill:url(#SVGID_29_);" d="M125.6,54.55c0.367,0.4,0.684,0.9,0.95,1.5
			c0.167,0.5,0.434,1.367,0.8,2.6c0.4,2.033,0.884,3.717,1.45,5.05c0.033,0.066,0.05,0.117,0.05,0.15c0.034,0.1,0.067,0.2,0.101,0.3
			c-1.434-0.933-2.684-2.566-3.75-4.9c-0.434-0.9-0.733-1.817-0.9-2.75c-0.133-1.167,0.066-1.983,0.601-2.45
			c0.1,0.067,0.166,0.117,0.199,0.15C125.267,54.333,125.434,54.45,125.6,54.55z"/>
		<linearGradient id="SVGID_30_" gradientUnits="userSpaceOnUse" x1="130.6934" y1="73.2939" x2="132.6684" y2="62.9939">
			<stop  offset="0" style="stop-color:#3A3A3A"/>
			<stop  offset="1" style="stop-color:#9F9F9F"/>
		</linearGradient>
		<path style="fill-rule:evenodd;clip-rule:evenodd;fill:url(#SVGID_30_);" d="M131.7,63.05c0.1,0.167,0.217,0.333,0.35,0.5v0.05
			c0.233,0.467,0.4,1,0.5,1.6c0.066,0.667,0.066,1.583,0,2.75c-0.133,2.233-0.133,4.05,0,5.45c0,0.1,0,0.184,0,0.25
			c-1.133-1.267-1.85-3.2-2.149-5.8c-0.167-0.967-0.184-1.9-0.051-2.8c0.2-1.2,0.601-1.95,1.2-2.25
			C131.616,62.867,131.667,62.95,131.7,63.05z"/>
		<linearGradient id="SVGID_31_" gradientUnits="userSpaceOnUse" x1="130.3438" y1="71.2178" x2="131.9438" y2="62.9428">
			<stop  offset="0" style="stop-color:#7BA0FD"/>
			<stop  offset="0.2471" style="stop-color:#6C8BD4"/>
			<stop  offset="0.7647" style="stop-color:#4D5F81"/>
			<stop  offset="1" style="stop-color:#414E61"/>
		</linearGradient>
		<path style="fill-rule:evenodd;clip-rule:evenodd;fill:url(#SVGID_31_);" d="M131.75,63c0.066,0.167,0.167,0.35,0.3,0.55
			c-0.133-0.167-0.25-0.333-0.35-0.5L131.75,63z"/>
		<linearGradient id="SVGID_32_" gradientUnits="userSpaceOnUse" x1="133.6611" y1="71.8589" x2="135.2611" y2="63.5839">
			<stop  offset="0" style="stop-color:#3A3A3A"/>
			<stop  offset="1" style="stop-color:#9F9F9F"/>
		</linearGradient>
		<path style="fill-rule:evenodd;clip-rule:evenodd;fill:url(#SVGID_32_);" d="M132.5,63.35c0.467,0.367,0.866,0.85,1.2,1.45
			c0.267,0.467,0.649,1.284,1.149,2.45c0.667,2,1.367,3.7,2.101,5.1l-0.05,0.1h0.024c0.057,0.012,0.098,0.045,0.125,0.1
			c-0.866-0.4-1.7-1.05-2.5-1.95c0.134-0.633,0.184-1.25,0.15-1.85c-0.101-1.167-0.417-2.317-0.95-3.45
			c-0.533-0.966-1.167-1.733-1.9-2.3C132.083,63.1,132.3,63.217,132.5,63.35z"/>
	</g>
</g>
<g id="Numbers">
	
		<use xlink:href="#Digits_x2F_digit_3"  width="17.7" height="27" y="-27" transform="matrix(1 0 0 -1 64 31.5498)" style="overflow:visible;"/>
	
		<use xlink:href="#Digits_x2F_digit_1"  width="9.95" height="26.35" y="-26.35" transform="matrix(1 0 0 -1 83.5 30.8999)" style="overflow:visible;"/>
	
		<use xlink:href="#Digits_x2F_digit_9"  width="18.05" height="27" y="-27" transform="matrix(1 0 0 -1 87 73)" style="overflow:visible;"/>
	
		<use xlink:href="#Digits_x2F_digit_1"  width="9.95" height="26.35" y="-26.35" transform="matrix(1 0 0 -1 97.5 30.8999)" style="overflow:visible;"/>
</g>
<g id="flash0.ai">
	
		<use xlink:href="#flash0.ai_Assets_x5F_3_x2F_Layer_1_x2F__x3C_Path_x3E_"  width="73.271" height="67.696" x="-0.056" y="-67.7" transform="matrix(0.9457 0 0 -0.9457 54.7002 59.25)" style="overflow:visible;opacity:0.5781;enable-background:new    ;"/>
	
		<use xlink:href="#flash0.ai_Assets_x5F_3_x2F_Layer_1_x2F__x3C_Compound_Path_x3E_"  width="78.292" height="71.053" x="-0.045" y="-71.05" transform="matrix(0.9457 0 0 -0.9457 52.1499 58)" style="overflow:visible;opacity:0.5391;enable-background:new    ;"/>
	
		<use xlink:href="#_x30_2_x5F_2X_x2F_2X_x5F_Stamp_x2F_Stamp_x5F_cubes2x"  width="39.236" height="35.601" x="-17.912" y="-17.845" transform="matrix(1.621 0 0 -1.621 87.3496 91.2998)" style="overflow:visible;"/>
	
		<use xlink:href="#_x30_1_x5F_different_x2F_Burst_x2F_Burst_x5F_speedline1_x5F_ALL"  width="41.865" height="34.277" x="-19.692" y="-19.197" transform="matrix(2.2282 0 0 -2.3602 87.75 94.4004)" style="overflow:visible;"/>
	<g>
		
			<use xlink:href="#flash0.ai_x5F_11_x2F_Layer_4_x2F__x3C_Path_x3E_"  width="24.4" height="24.373" y="-24.38" transform="matrix(0.8352 0 0 -0.8352 32.1499 78.5498)" style="overflow:visible;opacity:0.5781;enable-background:new    ;"/>
		
			<use xlink:href="#flash0.ai_x5F_11_x2F_Layer_4_x2F__x3C_Compound_Path_x3E_"  width="27.35" height="26.716" y="-26.727" transform="matrix(0.8352 0 0 -0.8352 30.75 78)" style="overflow:visible;opacity:0.5781;enable-background:new    ;"/>
		
			<use xlink:href="#_x30_1_x5F_different_x2F_Marks_x2F_Mark_x5F_FLOWER"  width="10.531" height="10.848" x="-5.546" y="-5.409" transform="matrix(1.5319 0 0 -1.5319 42.7002 88.2998)" style="overflow:visible;"/>
		<path style="fill-rule:evenodd;clip-rule:evenodd;fill:none;stroke:#020202;stroke-miterlimit:10;" d="M35.45,87.67
			c-1.114,0.418-1.615,1.059-1.503,1.921c0.111,0.863,0.779,1.434,2.003,1.712c0.585,0.167,1.17,0.236,1.754,0.209l-0.919,1.587
			c-0.417,1.142-0.181,1.935,0.71,2.38c0.918,0.445,1.836,0.349,2.756-0.292c0.445-0.307,0.807-0.654,1.085-1.044v1.754
			c0.278,1.085,1.072,1.406,2.38,0.961c1.337-0.446,2.06-1.073,2.172-1.88l-0.25-1.128l1.127,0.293
			c0.863,0.028,1.517-0.39,1.962-1.253c0.446-0.863,0.502-1.559,0.167-2.088l-0.626-0.543l0.793-0.459
			c0.529-0.502,0.821-1.239,0.877-2.214c0.084-0.974-0.209-1.656-0.877-2.046l-1.044-0.292c0.306-0.445,0.515-0.918,0.626-1.42
			c0.195-1.002-0.181-1.67-1.127-2.004c-0.947-0.307-1.879-0.209-2.798,0.292l-1.044,0.876c-0.028-0.445-0.153-0.891-0.376-1.335
			c-0.445-0.891-1.197-1.281-2.254-1.17c-1.03,0.112-1.643,0.613-1.837,1.503c-0.084,0.446-0.07,0.877,0.042,1.295
			c-0.278-0.251-0.626-0.404-1.044-0.46c-0.835-0.167-1.587,0.181-2.255,1.044c-0.667,0.864-0.667,1.699,0,2.505
			c0.334,0.417,0.738,0.738,1.211,0.961C36.577,87.363,36.006,87.476,35.45,87.67z"/>
	</g>
	<g>
		
			<use xlink:href="#flash0.ai_x5F_11_x2F_Layer_4_x2F__x3C_Path_x3E_"  width="24.4" height="24.373" y="-24.38" transform="matrix(0.5917 0 0 -0.5917 52.2998 123.9502)" style="overflow:visible;opacity:0.5781;enable-background:new    ;"/>
		
			<use xlink:href="#flash0.ai_x5F_11_x2F_Layer_4_x2F__x3C_Compound_Path_x3E_"  width="27.35" height="26.716" y="-26.727" transform="matrix(0.5917 0 0 -0.5917 51.3999 123.9502)" style="overflow:visible;opacity:0.5781;enable-background:new    ;"/>
		<path style="fill-rule:evenodd;clip-rule:evenodd;fill:#5D8C3C;" d="M63.965,131.483c-0.508,0.141-1.031,0.19-1.569,0.148
			l1.164,0.7c0.724,0.553,0.976,1.092,0.754,1.616c-0.322,0.651-0.944,0.807-1.865,0.464c-0.442-0.125-0.854-0.338-1.237-0.639
			l0.294,1.444c0.105,0.957-0.137,1.457-0.727,1.501c-0.998,0.058-1.596-0.373-1.795-1.291l0.043-1.419l-0.778,1.293
			c-0.646,0.763-1.29,0.915-1.931,0.459c-0.638-0.502-0.767-1.166-0.386-1.994l0.762-1.092l-1.434,0.159
			c-0.987-0.077-1.473-0.498-1.459-1.265c0.012-0.722,0.521-1.178,1.53-1.37l1.423-0.023c-0.438-0.17-0.849-0.405-1.231-0.706
			c-0.721-0.599-0.807-1.237-0.257-1.916c0.505-0.683,1.144-0.769,1.916-0.257l1.076,0.965c-0.234-0.47-0.399-0.957-0.495-1.461
			c-0.102-1.001,0.238-1.606,1.022-1.815c0.69-0.172,1.197,0.273,1.52,1.337c0.138,0.553,0.23,1.102,0.278,1.647
			c0.177-0.528,0.419-1.028,0.727-1.501c0.695-0.803,1.404-0.929,2.128-0.376c0.593,0.498,0.589,1.13-0.012,1.896
			c-0.301,0.383-0.644,0.717-1.027,1.003c0.366-0.062,0.75-0.077,1.155-0.045c0.759,0.104,1.292,0.508,1.598,1.208
			C65.417,130.807,65.022,131.25,63.965,131.483z"/>
		<path style="fill-rule:evenodd;clip-rule:evenodd;fill:#E3C000;" d="M61.643,130.36c0.155,0.382,0.117,0.871-0.115,1.469
			c-0.203,0.631-0.588,1.031-1.156,1.203c-0.504,0.145-1.038,0.087-1.603-0.173c-0.654-0.297-1.068-0.714-1.242-1.251
			c-0.173-0.537-0.084-1.083,0.267-1.642c0.416-0.582,0.921-0.943,1.517-1.081c0.593-0.108,1.104,0.04,1.535,0.442
			C61.277,129.731,61.542,130.075,61.643,130.36z"/>
		<path style="fill-rule:evenodd;clip-rule:evenodd;fill:none;stroke:#020202;stroke-miterlimit:10;" d="M54.596,130.718
			c-0.789,0.296-1.144,0.75-1.065,1.361c0.079,0.611,0.552,1.016,1.42,1.213c0.415,0.118,0.829,0.168,1.243,0.147l-0.651,1.125
			c-0.296,0.809-0.128,1.371,0.503,1.687c0.65,0.315,1.301,0.246,1.953-0.207c0.315-0.218,0.572-0.464,0.769-0.74v1.243
			c0.197,0.769,0.759,0.996,1.686,0.681c0.947-0.316,1.46-0.76,1.539-1.332l-0.177-0.799l0.798,0.207
			c0.611,0.021,1.075-0.275,1.391-0.888c0.316-0.611,0.355-1.104,0.118-1.479l-0.444-0.385l0.563-0.326
			c0.375-0.355,0.582-0.877,0.621-1.568c0.06-0.689-0.148-1.173-0.621-1.449l-0.74-0.207c0.217-0.315,0.365-0.65,0.444-1.006
			c0.138-0.711-0.128-1.184-0.799-1.42c-0.671-0.218-1.331-0.148-1.982,0.207l-0.74,0.621c-0.02-0.315-0.109-0.631-0.267-0.946
			c-0.315-0.632-0.848-0.907-1.597-0.829c-0.729,0.079-1.164,0.434-1.302,1.065c-0.06,0.315-0.05,0.621,0.029,0.917
			c-0.197-0.178-0.444-0.286-0.74-0.326c-0.591-0.117-1.125,0.129-1.598,0.74c-0.473,0.612-0.473,1.203,0,1.775
			c0.237,0.296,0.523,0.522,0.858,0.681C55.395,130.501,54.99,130.58,54.596,130.718z"/>
	</g>
	<g>
		
			<use xlink:href="#flash0.ai_x5F_11_x2F_Layer_4_x2F__x3C_Path_x3E_"  width="24.4" height="24.373" y="-24.38" transform="matrix(0.7409 0 0 -0.7409 92.3496 123.9004)" style="overflow:visible;opacity:0.5781;enable-background:new    ;"/>
		
			<use xlink:href="#flash0.ai_x5F_11_x2F_Layer_4_x2F__x3C_Compound_Path_x3E_"  width="27.35" height="26.716" y="-26.727" transform="matrix(0.7409 0 0 -0.7409 91.0996 123.7002)" style="overflow:visible;opacity:0.5781;enable-background:new    ;"/>
		<path style="fill-rule:evenodd;clip-rule:evenodd;fill:#E0EEC6;" d="M106.877,133.606c-0.636,0.176-1.29,0.238-1.964,0.186
			l1.457,0.876c0.907,0.692,1.222,1.367,0.944,2.023c-0.403,0.816-1.182,1.011-2.334,0.581c-0.554-0.157-1.069-0.423-1.549-0.799
			l0.368,1.809c0.132,1.197-0.172,1.823-0.91,1.878c-1.249,0.072-1.998-0.467-2.247-1.616l0.054-1.776l-0.975,1.619
			c-0.809,0.954-1.615,1.146-2.418,0.574c-0.799-0.628-0.96-1.46-0.483-2.496l0.955-1.367l-1.796,0.199
			c-1.235-0.097-1.844-0.624-1.826-1.584c0.015-0.902,0.652-1.475,1.915-1.715l1.782-0.03c-0.548-0.212-1.063-0.507-1.541-0.884
			c-0.902-0.748-1.01-1.548-0.322-2.398c0.633-0.854,1.433-0.961,2.398-0.321l1.348,1.208c-0.293-0.588-0.5-1.198-0.62-1.829
			c-0.128-1.253,0.298-2.011,1.28-2.273c0.864-0.215,1.498,0.344,1.902,1.675c0.172,0.691,0.288,1.379,0.349,2.062
			c0.221-0.66,0.524-1.286,0.909-1.878c0.87-1.006,1.758-1.163,2.665-0.471c0.742,0.623,0.736,1.414-0.017,2.373
			c-0.376,0.479-0.805,0.897-1.285,1.256c0.458-0.078,0.94-0.097,1.446-0.057c0.95,0.13,1.617,0.635,2.001,1.513
			C108.695,132.759,108.2,133.313,106.877,133.606z"/>
		<path style="fill-rule:evenodd;clip-rule:evenodd;fill:#E3C000;" d="M103.839,132.442c0.194,0.477,0.146,1.09-0.144,1.838
			c-0.255,0.79-0.737,1.292-1.447,1.506c-0.631,0.182-1.3,0.109-2.007-0.216c-0.819-0.372-1.337-0.894-1.555-1.566
			c-0.217-0.672-0.105-1.356,0.334-2.055c0.521-0.729,1.153-1.182,1.898-1.354c0.743-0.135,1.384,0.051,1.922,0.555
			C103.38,131.654,103.713,132.084,103.839,132.442z"/>
		<path style="fill-rule:evenodd;clip-rule:evenodd;fill:none;stroke:#020202;stroke-miterlimit:10;" d="M95.001,132.326
			c-0.988,0.37-1.433,0.938-1.334,1.703s0.691,1.272,1.778,1.519c0.519,0.148,1.037,0.21,1.556,0.186l-0.815,1.408
			c-0.37,1.012-0.16,1.716,0.631,2.111c0.814,0.395,1.629,0.309,2.444-0.26c0.395-0.271,0.716-0.58,0.963-0.926v1.556
			c0.247,0.963,0.951,1.247,2.111,0.853c1.186-0.396,1.827-0.951,1.927-1.667l-0.223-1.001l1,0.26
			c0.766,0.024,1.346-0.346,1.741-1.111s0.445-1.383,0.148-1.852l-0.556-0.482l0.704-0.407c0.469-0.445,0.729-1.099,0.777-1.964
			c0.074-0.863-0.186-1.469-0.777-1.815l-0.927-0.259c0.271-0.395,0.457-0.814,0.556-1.26c0.173-0.889-0.16-1.481-1-1.777
			c-0.84-0.272-1.667-0.186-2.482,0.259l-0.926,0.778c-0.024-0.396-0.136-0.79-0.333-1.186c-0.396-0.79-1.062-1.136-2-1.037
			c-0.914,0.099-1.457,0.543-1.63,1.333c-0.075,0.396-0.063,0.778,0.036,1.149c-0.246-0.224-0.556-0.358-0.926-0.408
			c-0.741-0.147-1.408,0.16-2,0.926c-0.593,0.767-0.593,1.507,0,2.223c0.296,0.37,0.654,0.655,1.074,0.853
			C96.001,132.054,95.494,132.152,95.001,132.326z"/>
	</g>
	<g>
		
			<use xlink:href="#flash0.ai_x5F_11_x2F_Layer_4_x2F__x3C_Path_x3E_"  width="24.4" height="24.373" y="-24.38" transform="matrix(0.7783 0 0 -0.7783 120.4004 94.3496)" style="overflow:visible;opacity:0.5781;enable-background:new    ;"/>
		
			<use xlink:href="#flash0.ai_x5F_11_x2F_Layer_4_x2F__x3C_Compound_Path_x3E_"  width="27.35" height="26.716" y="-26.727" transform="matrix(0.7783 0 0 -0.7783 119.0996 94.0498)" style="overflow:visible;opacity:0.5781;enable-background:new    ;"/>
		<path style="fill-rule:evenodd;clip-rule:evenodd;fill:#E0B6E7;" d="M132.2,97.95c0.934-1.033,1.866-1.2,2.8-0.5
			c0.8,0.666,0.8,1.5,0,2.5c-0.4,0.533-0.85,0.983-1.35,1.35c0.466-0.1,0.966-0.133,1.5-0.1c1,0.133,1.699,0.666,2.1,1.6
			c0.366,0.834-0.15,1.417-1.55,1.75c-0.667,0.2-1.351,0.267-2.05,0.2l1.55,0.9c0.934,0.733,1.25,1.449,0.95,2.149
			c-0.434,0.834-1.25,1.05-2.45,0.65c-0.601-0.2-1.134-0.5-1.601-0.9l0.351,1.95c0.133,1.233-0.184,1.866-0.95,1.9
			c-1.3,0.1-2.083-0.45-2.35-1.65l0.05-1.9l-1,1.7c-0.867,1-1.717,1.2-2.55,0.601c-0.834-0.634-1.017-1.5-0.551-2.601l1.051-1.45
			l-1.9,0.25c-1.3-0.1-1.934-0.666-1.9-1.699c0.034-0.934,0.7-1.534,2-1.801l1.9-0.05c-0.6-0.2-1.15-0.5-1.65-0.899
			c-0.933-0.801-1.05-1.634-0.35-2.5c0.667-0.9,1.517-1.017,2.55-0.351l1.4,1.25c-0.334-0.6-0.55-1.233-0.65-1.899
			c-0.133-1.334,0.316-2.117,1.351-2.351c0.899-0.233,1.566,0.334,2,1.7c0.199,0.733,0.316,1.467,0.35,2.2
			C131.517,99.25,131.833,98.583,132.2,97.95z"/>
		<path style="fill-rule:evenodd;clip-rule:evenodd;fill:#E38A00;" d="M132.559,102.928c0.203,0.501,0.153,1.145-0.151,1.932
			c-0.268,0.829-0.773,1.356-1.521,1.582c-0.662,0.189-1.365,0.114-2.107-0.227c-0.86-0.392-1.404-0.939-1.633-1.646
			c-0.229-0.705-0.111-1.425,0.351-2.158c0.546-0.767,1.211-1.241,1.994-1.423c0.78-0.142,1.453,0.053,2.02,0.582
			C132.076,102.101,132.426,102.553,132.559,102.928z"/>
		<path style="fill-rule:evenodd;clip-rule:evenodd;fill:none;stroke:#020202;stroke-miterlimit:10;" d="M123.224,102.808
			c-1.038,0.389-1.504,0.985-1.4,1.79c0.104,0.804,0.726,1.336,1.867,1.595c0.545,0.156,1.09,0.221,1.635,0.194l-0.856,1.479
			c-0.389,1.063-0.168,1.803,0.662,2.218c0.856,0.415,1.712,0.324,2.568-0.272c0.415-0.285,0.752-0.61,1.012-0.973v1.634
			c0.259,1.012,0.998,1.311,2.218,0.896c1.245-0.416,1.92-0.999,2.023-1.751l-0.233-1.051l1.051,0.272
			c0.804,0.026,1.414-0.363,1.829-1.167c0.415-0.806,0.467-1.453,0.155-1.946l-0.584-0.506l0.74-0.428
			c0.493-0.468,0.765-1.154,0.816-2.063c0.078-0.908-0.194-1.544-0.816-1.907l-0.974-0.272c0.285-0.415,0.48-0.855,0.584-1.323
			c0.182-0.934-0.169-1.557-1.05-1.867c-0.883-0.286-1.752-0.194-2.608,0.272l-0.973,0.816c-0.025-0.415-0.143-0.83-0.351-1.245
			c-0.415-0.829-1.114-1.192-2.101-1.09c-0.96,0.104-1.53,0.571-1.712,1.401c-0.078,0.415-0.065,0.817,0.038,1.207
			c-0.259-0.234-0.583-0.377-0.973-0.429c-0.778-0.155-1.479,0.169-2.102,0.973c-0.622,0.805-0.622,1.583,0,2.335
			c0.312,0.389,0.688,0.688,1.129,0.896C124.274,102.521,123.742,102.626,123.224,102.808z"/>
	</g>
</g>
<g id="highlight">
	
		<use xlink:href="#zz_x5F_Highlight_x2F_Highlight_Piece"  width="118.7" height="115.9" y="-115.9" transform="matrix(1 0 0 -1 27.25 28.1001)" style="overflow:visible;"/>
</g>
</svg>
