<?xml version="1.0" encoding="iso-8859-1"?>
<!-- Generator: Adobe Illustrator 15.1.0, SVG Export Plug-In . SVG Version: 6.00 Build 0)  -->
<!DOCTYPE svg PUBLIC "-//W3C//DTD SVG 1.1//EN" "http://www.w3.org/Graphics/SVG/1.1/DTD/svg11.dtd">
<svg version="1.1" id="Layer_13" xmlns="http://www.w3.org/2000/svg" xmlns:xlink="http://www.w3.org/1999/xlink" x="0px" y="0px"
	 width="171.8px" height="172.4px" viewBox="0 0 171.8 172.4" style="enable-background:new 0 0 171.8 172.4;" xml:space="preserve"
	>
<symbol  id="FlashAICB_x2F_Layer_13_x2F__x3C_Clip_Group_0_x3E_" viewBox="0 -118.65 118.9 118.65">
	<g id="Layer_1_3_">
	</g>
	<g>
		<defs>
			<path id="SVGID_1_" d="M101.5-17.4C89.9-5.8,75.883,0,59.45,0c-16.4,0-30.4-5.8-42-17.4C5.817-28.967,0-42.95,0-59.35
				C0-75.717,5.817-89.7,17.45-101.3c11.6-11.567,25.6-17.35,42-17.35c16.433,0,30.45,5.783,42.05,17.35
				c11.6,11.6,17.4,25.583,17.4,41.95C118.9-42.95,113.1-28.967,101.5-17.4z"/>
		</defs>
		<clipPath id="SVGID_2_">
			<use xlink:href="#SVGID_1_"  style="overflow:visible;"/>
		</clipPath>
		<g id="Layer_3_2_" style="clip-path:url(#SVGID_2_);">
			<radialGradient id="SVGID_3_" cx="59.4502" cy="-59.3252" r="59.3875" gradientUnits="userSpaceOnUse">
				<stop  offset="0.4118" style="stop-color:#DEEA89"/>
				<stop  offset="0.8706" style="stop-color:#EDBF35"/>
				<stop  offset="1" style="stop-color:#EDBF35"/>
			</radialGradient>
			<polygon style="fill-rule:evenodd;clip-rule:evenodd;fill:url(#SVGID_3_);" points="0,0 118.9,0 118.9,-118.65 0,-118.65 			"/>
		</g>
	</g>
	<g id="Layer_4_2_">
	</g>
</symbol>
<symbol  id="FlashAICB_x2F_Layer_13_x2F__x3C_Clip_Group_0_x3E__x5F_1" viewBox="0 -132.35 132.35 132.35">
	<g id="Layer_1_2_">
	</g>
	<g>
		<defs>
			<path id="SVGID_4_" d="M112.95-19.4C100.017-6.467,84.417,0,66.15,0C47.917,0,32.333-6.467,19.4-19.4
				C6.467-32.333,0-47.933,0-66.2c0-18.233,6.467-33.816,19.4-46.75c12.934-12.933,28.517-19.4,46.75-19.4s33.833,6.467,46.8,19.4
				c12.933,12.934,19.4,28.517,19.4,46.75C132.35-47.933,125.883-32.333,112.95-19.4z"/>
		</defs>
		<clipPath id="SVGID_5_">
			<use xlink:href="#SVGID_4_"  style="overflow:visible;"/>
		</clipPath>
		<g id="Layer_3_1_" style="clip-path:url(#SVGID_5_);">
			<linearGradient id="SVGID_6_" gradientUnits="userSpaceOnUse" x1="66.1748" y1="-132.3501" x2="66.1748" y2="0">
				<stop  offset="0" style="stop-color:#B1812F"/>
				<stop  offset="0.2941" style="stop-color:#C89A33"/>
				<stop  offset="0.6745" style="stop-color:#EDC13A"/>
				<stop  offset="0.9647" style="stop-color:#D7E989"/>
				<stop  offset="1" style="stop-color:#D7E989"/>
			</linearGradient>
			<polygon style="fill-rule:evenodd;clip-rule:evenodd;fill:url(#SVGID_6_);" points="0,-132.35 0,0 132.35,0 132.35,-132.35 			
				"/>
		</g>
	</g>
	<g id="Layer_4_1_">
	</g>
</symbol>
<symbol  id="FlashAICB_x2F_Layer_13_x2F__x3C_Path_x3E_" viewBox="0 -50.7 44.15 50.7">
	<g id="Layer_1_4_">
		<path style="fill-rule:evenodd;clip-rule:evenodd;fill:#404041;" d="M0.425-33.75c0.011,0.013,0.02,0.029,0.025,0.05
			C0.444-33.721,0.436-33.737,0.425-33.75C0.374-33.997,0.499-33.713,0.8-32.9l0.25,0.7c1.467,1.434,3.833,2.534,7.1,3.3l0.9,0.2
			l-1.6,3.25l1.35,2.1c0.934-1.967,1.733-3.333,2.4-4.1L11.8-28l0.35-0.15l1,0.45l1.25,0.85l0.1,0.05l0.7,0.6l0.1,0.05l0.9,0.8
			l0.7,0.6l0.25,0.3l1.15,1.1l0.2,0.15L33.95-8.05c1.5,1.533,3.783,3.8,6.85,6.8L42.1,0l0.2-0.35c0.4-0.566,1.017-1.133,1.85-1.7
			L36.5-9.6l-0.1-0.15L36.3-9.8L25.65-20.3l-0.3-0.25L24.7-21.2h-0.05c-1.633-1.5-4.333-3.816-8.1-6.95L15.3-29.2
			c1.633-1.033,2.85-1.883,3.65-2.55c1.533-1.333,2.5-2.633,2.9-3.9c0.467-1.533,0.733-2.883,0.8-4.05
			c0.033-1.2-0.167-2.45-0.6-3.75c-0.5-1.566-0.783-3.133-0.85-4.7c-0.034-0.6-0.133-1.05-0.3-1.35c-0.066-0.1-0.333-0.4-0.8-0.9
			l-0.25-0.2l-0.2-0.1H19.4l-0.2,0.05h-0.05l-0.25,0.2l-0.25,0.3l-0.6,0.9c-0.333,0.6-0.533,1.3-0.6,2.1
			c-0.1,0.933,0.033,1.65,0.4,2.15c0.133,0.167,0.35,0.317,0.65,0.45c0.3,0.167,0.5,0.316,0.6,0.45v0.05l0.2,0.25l0.05,0.15l0.1,0.2
			l0.15,0.7l-0.05,1.7l-0.3,1.4l-0.4,1.3L18.2-37.1l-0.65,0.8l-0.95,0.8l-1.2,0.75l-1.6,0.7l-0.45,0.15l-0.7,0.4l-0.05,0.05
			l-0.8,0.6L11-32.1c-1.067-0.333-1.783-0.517-2.15-0.55c-1.934-0.267-2.983-0.417-3.15-0.45c-1.7-0.4-3-1.1-3.9-2.1
			c-0.667-0.7-1.167-1.383-1.5-2.05L0-35.45L0.425-33.75z"/>
	</g>
</symbol>
<symbol  id="FlashAICB_x2F_Layer_13_x2F__x3C_Path_x3E__x5F_0" viewBox="0 -56.85 118.15 56.85">
	<g id="Layer_1_5_">
		
			<radialGradient id="SVGID_7_" cx="59.0752" cy="-28.4248" r="46.3564" gradientTransform="matrix(1 0 0 -1 0 -56.8496)" gradientUnits="userSpaceOnUse">
			<stop  offset="0" style="stop-color:#F3A32D;stop-opacity:0"/>
			<stop  offset="0.1098" style="stop-color:#EA982C;stop-opacity:0.1333"/>
			<stop  offset="0.302" style="stop-color:#D27B2B;stop-opacity:0.4941"/>
			<stop  offset="0.5216" style="stop-color:#B1532A"/>
		</radialGradient>
		<path style="fill-rule:evenodd;clip-rule:evenodd;fill:url(#SVGID_7_);" d="M95.1-30.2c10.667,7.633,18.183,17.617,22.55,29.95
			l0.5,0.25c-0.566-15.833-6.566-29.267-18-40.3c-11.467-11.034-25.167-16.55-41.1-16.55c-15.667,0-29.183,5.333-40.55,16
			C7.167-30.183,1-17.133,0-1.7c4.567-11.933,12.117-21.583,22.65-28.95c10.767-7.533,22.733-11.3,35.9-11.3
			C72.017-41.95,84.2-38.033,95.1-30.2z"/>
	</g>
</symbol>
<symbol  id="FlashAICB_x2F_Layer_13_x2F__x3C_Path_x3E__x5F_1" viewBox="0 -55.55 109.55 55.55">
	<g id="Layer_1_6_">
		
			<linearGradient id="SVGID_8_" gradientUnits="userSpaceOnUse" x1="16164.4902" y1="-52.6299" x2="16219.9854" y2="-52.6299" gradientTransform="matrix(1.800991e-005 1 -1 -0.001 1.854 -16220.1055)">
			<stop  offset="0.1294" style="stop-color:#E1B7B1"/>
			<stop  offset="0.9255" style="stop-color:#FFFFFF"/>
		</linearGradient>
		<path style="fill-rule:evenodd;clip-rule:evenodd;fill:url(#SVGID_8_);" d="M95.6-17.9c4.467-4.9,7.95-10.35,10.45-16.35
			c2.333-5.6,3.5-10.883,3.5-15.85c0-1.533-0.167-3-0.5-4.4c-1.833,11-7.2,20.783-16.1,29.35C82.45-15.05,69.733-10,54.8-10
			c-15.2,0-27.983-5.05-38.35-15.15c-8.967-8.667-14.3-18.8-16-30.4C0.15-54.35,0-52.933,0-51.3c0,5.466,1.167,11.1,3.5,16.9
			c2.467,6.167,5.933,11.717,10.4,16.65C24.567-5.917,38.2,0,54.8,0C71.167,0,84.767-5.967,95.6-17.9z"/>
	</g>
</symbol>
<symbol  id="FlashAICB_x2F_Layer_13_x2F__x3C_Path_x3E__x5F_2" viewBox="0 -61.044 109.55 61.044">
	<g id="Layer_1_7_">
		<path style="fill-rule:evenodd;clip-rule:evenodd;fill:#FFFFFF;" d="M106.05-34.25c2.333-5.6,3.5-10.883,3.5-15.85
			c0-4.933-1.433-8.033-4.3-9.3c-2.333-1.033-6.25-1.017-11.75,0.05c-7.233,1.733-13.033,3.067-17.4,4
			c-7.967,1.7-15.067,2.55-21.3,2.55c-6.3,0-13.4-0.917-21.3-2.75c-8.333-2.2-14.15-3.667-17.45-4.4
			c-5.5-1.267-9.417-1.433-11.75-0.5C1.433-59.283,0-56.233,0-51.3c0,5.466,1.167,11.1,3.5,16.9
			c2.467,6.167,5.933,11.717,10.4,16.65C24.567-5.917,38.2,0,54.8,0c16.367,0,29.967-5.967,40.8-17.9
			C100.067-22.8,103.55-28.25,106.05-34.25z"/>
	</g>
</symbol>
<g>
	<g>
		<g>
			<g>
				<path style="fill-rule:evenodd;clip-rule:evenodd;fill:#D99E58;" d="M115.2,5.15l1.35,0.55c0,1.1-0.133,7.867-0.399,20.3
					c-0.167,8.233-0.167,15.033,0,20.4l-0.051,4.1C116,58,115.7,64.817,115.2,70.95l-0.65,9.25c-0.666,11.133-1.033,26.1-1.1,44.899
					c-0.267-11.8-0.167-20.949,0.3-27.449l0.05-3.7c0.101-6.566,0.316-12.7,0.65-18.4l0.25-10.4c-0.066-6.367-0.05-12.133,0.05-17.3
					l0.1-3.4C115.017,35.617,115.134,22.517,115.2,5.15z"/>
				<path style="fill-rule:evenodd;clip-rule:evenodd;fill:#D99E58;" d="M110.95,3.75l3.3,1.1l-0.05,2.2
					c0.166,3.934,0.133,9.384-0.101,16.35c-0.267,8.034-0.383,13.534-0.35,16.5l-0.05,5.45c-0.101,6.367-0.167,10-0.2,10.9l-0.1,5.4
					c-0.134,4.467-0.334,9-0.601,13.6l-0.25,4.5c-0.399,4.733-0.566,10.184-0.5,16.35l0.101,3.301
					c0.033,7.133,0.283,17.866,0.75,32.199c0.3,12.9,0.05,23.7-0.75,32.4l-0.25,3.45v0.3l-2.551,0.75v-1.45
					c0.934-15.066,1.467-25.983,1.601-32.75c0.233-12.2-0.233-23.05-1.4-32.55l-0.25-3.25c-0.366-5.833-0.416-11.25-0.149-16.25
					L109.5,77c1.167-18.233,1.517-33.833,1.05-46.8L110.95,3.75z"/>
				<path style="fill-rule:evenodd;clip-rule:evenodd;fill:#D99E58;" d="M105.15,2.25L109.8,3.4l-0.45,26.8
					c-0.033,4.867-0.033,12.167,0,21.9c-0.033,8.6-0.233,15.933-0.6,22L108.4,79c0,0.4-0.184,2.133-0.551,5.2
					c-0.233,2.1-0.25,3.833-0.05,5.2c0,3.333,0.134,6.916,0.4,10.75l0.3,3.6c1.267,8.167,1.65,18.767,1.15,31.8
					c-0.7,18.101-1.017,28.75-0.95,31.95v1.2l-2.851,0.75l0.051-3.3c1.399-13.934,2.199-23.4,2.399-28.4
					c0.367-10.633-0.35-20.033-2.149-28.2c-0.301-1.366-0.733-2.916-1.301-4.649c-0.399-1.4-0.899-2.983-1.5-4.75
					c-0.733-2-0.666-4.7,0.2-8.101c1.033-4.1,1.5-6.9,1.4-8.4c0.166-1.6,0.267-3.2,0.3-4.8c0.4-5.667,0.467-12.883,0.2-21.65
					c-0.4-12.4-0.601-19.717-0.601-21.95L105.15,2.25z"/>
				<path style="fill-rule:evenodd;clip-rule:evenodd;fill:#D99E58;" d="M101.85,1.55l1.2,0.2c-0.166,9.133-0.033,17.233,0.4,24.3
					l0.1,5.9c0.101,5.4,0.316,13.467,0.65,24.2c0.066,9.267-0.483,17.184-1.65,23.75l-0.5,5.15c-0.233,1.767-0.383,3.517-0.45,5.25
					c0.2,3.033,0.65,6.584,1.351,10.65l2.149,10c1.534,8.066,1.967,17.633,1.301,28.7c-0.4,6.366-1.233,15.883-2.5,28.55l0.05,1.649
					l-0.101,0.051l-0.149-2.051c-0.367-1.199-0.533-2.666-0.5-4.399c0.1-1.934,0.149-3.4,0.149-4.4
					c1.233-10.466,2.034-18.3,2.4-23.5c0.6-9,0.2-16.783-1.2-23.35c-0.5-1.967-0.95-3.483-1.35-4.55c-0.3-1-0.9-2.684-1.8-5.051
					c-0.434-1.466-0.733-3.267-0.9-5.399c-0.033-0.4-0.116-2.217-0.25-5.45c0-1.133,0.05-2.25,0.15-3.35
					c0.033-0.7,0.149-1.833,0.35-3.4l0.3-4.6c1.101-6.133,1.533-14.05,1.3-23.75c-0.366-14.4-0.533-22.483-0.5-24.25l-0.05-11.2
					C101.733,13.934,101.75,7.383,101.85,1.55z"/>
				<path style="fill-rule:evenodd;clip-rule:evenodd;fill:#D99E58;" d="M125.7,9.8l0.649,0.35c0.034,5.467,0.167,13.217,0.4,23.25
					c0.233,10.7,0.366,18.434,0.4,23.2l-0.15,17c-0.033,2.467-0.033,6.15,0,11.05l-0.15,3.6c-3.466,13.333-4.8,28.983-4,46.95
					c0,5.333,0.334,10.5,1,15.5l1.101,11.7l-1.601,0.8l-0.35-3.15c-3.134-22.2-2.333-46.083,2.4-71.649
					c0.267-2.601,0.433-4.55,0.5-5.851c0.1-2.233,0.133-4.233,0.1-6l0.05-3.95c0.033-2.633,0.017-6.617-0.05-11.95l-0.1-4.8
					c-0.301-6.6-0.434-14.267-0.4-23C125.5,32.383,125.566,24.7,125.7,9.8z"/>
				<path style="fill-rule:evenodd;clip-rule:evenodd;fill:#D99E58;" d="M128,59.45c-0.033-6-0.134-14.133-0.3-24.4
					c-0.233-11.767-0.367-19.883-0.4-24.35c1.934,1.033,4.101,2.35,6.5,3.95l0.351,6.8c0.267,7.167,1.033,13.667,2.3,19.5
					c0.5,4.867,0.616,9.316,0.35,13.35c-0.333,1.467-0.833,3.617-1.5,6.45l-1.45,13.2c-0.133,1.967-0.149,4.283-0.05,6.95
					c0.066,1.5,0.167,3.733,0.3,6.7c0.067,1.067,0.067,2.117,0,3.15c-0.199,1.4-0.449,2.8-0.75,4.2L132.45,100
					c-3.9,18.6-3.9,36.75,0,54.45l0.649,3.2c-2,1.333-4.433,2.767-7.3,4.3c-0.366-2.233-0.649-3.851-0.85-4.851
					c-0.4-1.866-0.767-4-1.101-6.399c-0.533-6.967-0.866-12.134-1-15.5c-0.033-6.533,0.5-14.467,1.601-23.8
					c1.333-10.4,2.25-18.2,2.75-23.4l0.3-3.9c0.267-4.233,0.333-8.15,0.2-11.75L128,59.45z"/>
				<path style="fill-rule:evenodd;clip-rule:evenodd;fill:#D99E58;" d="M124.05,9l1,0.5c-0.033,3.9-0.133,10.9-0.3,21
					c-0.167,8.867-0.25,15.883-0.25,21.05l-0.1,24.9c0.166,2.333,0.233,4.333,0.199,6c0,1.733-0.083,3.717-0.25,5.95
					c-2.066,10.366-3.199,22.633-3.399,36.8c-0.033,3,0.149,15.267,0.55,36.8l0.05,2.05l-0.3,0.101l-0.7-7.051
					c-0.833-10.333-0.783-22.766,0.15-37.3c1.333-16.533,2.233-29,2.7-37.4c0.066-2.3,0.05-4.333-0.051-6.1l0.15-22.85
					c0-5.133,0.083-12.533,0.25-22.2C123.95,21.083,124.05,13.667,124.05,9z"/>
				<path style="fill-rule:evenodd;clip-rule:evenodd;fill:#D99E58;" d="M67.55,8.55C67.483,6.95,67.5,5.5,67.6,4.2l0.3-2.25
					l3.1-0.6v13c-0.133,5.733-0.167,16.35-0.1,31.85c0.1,13.5-0.033,24.133-0.4,31.9c-0.333,12.4-0.5,29.284-0.5,50.65l0.35,21.75
					c0.233,5.367,0.617,11.184,1.15,17.45l0.15,2.649l-2.85-0.55c0.034-2.366-0.017-5.183-0.15-8.45
					c-0.167-3.766-0.3-6.649-0.4-8.649l-0.3-4.7c-0.167-3.133-0.267-5.467-0.3-7l-0.15-3.55c-0.633-14.333-0.6-35.167,0.1-62.5
					c0.733-28.033,0.833-48.8,0.3-62.3L67.55,8.55z"/>
				<path style="fill-rule:evenodd;clip-rule:evenodd;fill:#D99E58;" d="M138.1,57.4c0.434-5.8,0.317-12.716-0.35-20.75
					c-0.934-9.167-1.6-16.05-2-20.65c1.667,1.2,3.083,2.283,4.25,3.25c0.233,7.934,0.783,14.783,1.65,20.55
					c0.233,2.4,0.283,5.1,0.149,8.1c-0.1,1.8-0.316,4.5-0.649,8.1l-0.4,4.6c-0.8,10.033-1.233,15.533-1.3,16.5l-0.15,3.3
					c0,4.067-0.05,8.15-0.149,12.25l-0.5,13.8c-0.434,7-0.584,14.816-0.45,23.45c0.1,5.467,0.399,13.25,0.899,23.35
					c-0.433,0.367-1.633,1.283-3.6,2.75c-0.8-9.633-1.35-17.416-1.65-23.35c-0.433-8.601-0.533-16.45-0.3-23.551l0.351-5.449
					l1.35-9.351c0.233-1.333,0.4-2.783,0.5-4.35c0.1-1.434,0.15-2.851,0.15-4.25l-0.051-2.8L138.1,57.4z"/>
				<path style="fill-rule:evenodd;clip-rule:evenodd;fill:#D99E58;" d="M80.7,0.2l0.1,20.7c0,26.233-0.066,45.867-0.2,58.9
					c-0.233,21.7-0.717,41.317-1.45,58.851l0.1,4.55c0.133,2,0.267,3.5,0.4,4.5l0.35,4.7c0.433,5.6,0.583,10.217,0.45,13.85
					l-0.1,5.35l-2.4-0.199l-1.05-13.15c-0.066-3.033-0.167-5.083-0.3-6.15l-0.1-4.6c-0.067-1.133-0.1-2.816-0.1-5.05l0.15-5
					c0.667-26.5,1.117-46.367,1.35-59.6c0.4-23.033,0.4-42.9,0-59.6L77.85,0.4L80.7,0.2z"/>
				<path style="fill-rule:evenodd;clip-rule:evenodd;fill:#D99E58;" d="M81.6,0.15l1.6-0.05l0.05,26.2
					c0.167,6.3,0.25,15.717,0.25,28.25c0,12.6,0.083,22.083,0.25,28.45c0,3.167-0.35,11.917-1.05,26.25
					c-0.5,10.7-0.45,19.5,0.15,26.4l0.05,5c0,3.333-0.05,6.649-0.15,9.949V171.7l-1.3-0.05c0.1-5.967,0.066-12.45-0.1-19.45
					l-0.45-14c-0.033-8.634,0.217-28.017,0.75-58.15c0.434-24.167,0.434-43.6,0-58.3L81.6,0.15z"/>
				<path style="fill-rule:evenodd;clip-rule:evenodd;fill:#D99E58;" d="M72.2,10.85v-9.7l4.6-0.65v16.85
					c0.233,17.7,0.184,37.45-0.15,59.25c-0.233,13.8-0.683,33.55-1.35,59.25c-0.033,1.367-0.017,3.4,0.05,6.101l0.4,10.649
					c0.6,9.033,0.933,15.184,1,18.45l0.05,0.25l-4.2-0.55c-0.067-2.867-0.233-6.283-0.5-10.25c-0.3-4.566-0.533-8-0.7-10.3L71,138.4
					c0-18.867,0.25-43.95,0.75-75.25l0.2-3.2c0.4-4,0.6-8.483,0.6-13.45c-0.033-2.7-0.15-7.167-0.35-13.4l0.2-16.6
					C72.4,14.467,72.333,12.583,72.2,10.85z"/>
				<path style="fill-rule:evenodd;clip-rule:evenodd;fill:#D99E58;" d="M84.15,0.05L85.95,0c1.233,0,3.083,0.067,5.55,0.2v52.6
					c0.1,3.5,0.083,6.8-0.05,9.9l-0.101,4.95C91.283,71.883,91.167,78.267,91,86.8l-0.05,3.851c-0.134,3.3-0.15,6.866-0.05,10.699
					c0,0.034,0.05,1.801,0.149,5.301L91,111.5c-0.167,4.367-0.116,9.917,0.15,16.65c0.366,9.066,0.566,14.6,0.6,16.6l0.05,4.7
					c0,4.2-0.033,7.316-0.1,9.35l0.399,3.25c0.233,1.8,0.733,4.934,1.5,9.4c-2.966,0.233-5.517,0.35-7.649,0.35l-2.4-0.05
					c0.2-6.2,0.35-12.35,0.45-18.45l0.05-15c-0.633-13.633-0.716-32.649-0.25-57.05c0.534-26.667,0.65-45.733,0.35-57.2V0.05z"/>
				<path style="fill-rule:evenodd;clip-rule:evenodd;fill:#D99E58;" d="M98.7,1l1.45,0.25c0.066,7.067,0.233,13.7,0.5,19.9
					l0.25,16.6c0,4.467,0.033,11.05,0.1,19.75c-0.066,7.533-0.366,14.15-0.9,19.85l-0.3,5.15c-0.5,8.333-0.75,12.717-0.75,13.15
					c-0.033,1.467-0.033,2.933,0,4.399l1.5,4.05c0.634,1.534,1.184,3.117,1.65,4.75c0.434,1.434,0.85,3.034,1.25,4.801
					c1.033,6.666,1.217,14.217,0.55,22.649c-0.434,5.034-1.467,12.617-3.1,22.75c-0.534,3.233-0.384,6.2,0.449,8.9
					c0.067,0.533,0.217,1.316,0.45,2.35l-1,0.2c-0.434-2.467-0.717-4.75-0.85-6.85c-0.134-1.934-0.2-3.417-0.2-4.45l1.2-7.15
					c1.7-10.333,2.633-17.966,2.8-22.899c0.3-8.801-0.9-16.351-3.6-22.65c-0.634-1.967-1.233-3.733-1.801-5.3
					c-0.267-1.233-0.483-2.667-0.649-4.3c-0.434-4.667-0.05-9.217,1.149-13.65l0.4-4.8c0.667-12.767,0.75-26.633,0.25-41.6
					L99.1,14.8C98.9,10.934,98.767,6.333,98.7,1z"/>
				<path style="fill-rule:evenodd;clip-rule:evenodd;fill:#D99E58;" d="M95.5,5.95l-0.2-5.4l2.8,0.35l0.25,35.25
					c0.134,16.3-0.033,29.5-0.5,39.6l-0.8,8.75c-0.566,4.2-0.616,8.566-0.149,13.1c0.166,1.467,0.366,2.917,0.6,4.351l1.1,4.8
					c1.934,8.434,3.017,15.9,3.25,22.4c0.301,8.3-0.666,15.816-2.899,22.55c-0.367,1.066-0.584,2.533-0.65,4.399v4.2
					c0,0.9,0.066,2.184,0.2,3.851c0.2,2.232,0.55,4.416,1.05,6.55l-0.75,0.1c-0.366-2.7-0.633-5.6-0.8-8.7l0.6-12.85
					c0.834-8.8,1.25-15.9,1.25-21.3c0-7.767-0.75-14.8-2.25-21.101l-1.25-5.1c-0.233-1.133-0.433-2.283-0.6-3.45
					c-0.533-3.899-0.6-7.416-0.2-10.55l0.75-13.8c0.566-8.7,0.733-19.583,0.5-32.65l-0.1-4.4C96.333,24.467,95.934,14.15,95.5,5.95z
					"/>
				<path style="fill-rule:evenodd;clip-rule:evenodd;fill:#D99E58;" d="M92.75,0.3l2.2,0.2c0,12.667,0.149,25.367,0.45,38.1
					l0.1,4.65c0.167,3.6,0.417,8.917,0.75,15.95c0.167,5.967-0.05,11.217-0.65,15.75L94.65,87.8c-0.4,3.4-0.4,7.184,0,11.351
					l1.55,8.8c1.5,5.934,2.3,12.533,2.399,19.8c0.101,5.8-0.267,12.533-1.1,20.2l-1.2,11.5v3.2c0.101,2.666,0.384,5.467,0.851,8.399
					l-1.601,0.2c-0.733-3.333-1.25-6.35-1.55-9.05l-0.35-3.351c-0.167-2.133-0.351-5.416-0.551-9.85l-0.149-4.9
					c-0.367-4.833-0.533-10.616-0.5-17.35c0.1-7.667,0.149-13.35,0.149-17.05L92.4,104.1C92.134,96.634,92,91,92,87.2l0.5-17
					c0.066-12.7,0.15-20.767,0.25-24.2V0.3z"/>
				<path style="fill-rule:evenodd;clip-rule:evenodd;fill:#D99E58;" d="M117.2,49.3c-0.233-5.8-0.267-13.017-0.101-21.65
					c0.267-9.6,0.417-16.783,0.45-21.55c1.834,0.7,3.483,1.417,4.95,2.15c0,2.2-0.134,9.3-0.4,21.3
					c-0.199,8.667-0.233,15.784-0.1,21.35l-0.3,23.5c0.066,1.5,0.066,3,0,4.5l-0.2,4.5c-0.634,8.534-1.634,21.183-3,37.95
					c-0.767,14.367-0.417,27.101,1.05,38.2c0.134,1.601,0.033,3.434-0.3,5.5c-0.967,0.434-2.45,1.017-4.45,1.75l0.351-4.3
					c0.133-6.767,0.316-20.267,0.55-40.5c0.166-16.9,0.383-30.417,0.649-40.55l0.551-7.9c0.233-4.366,0.35-10.883,0.35-19.55
					L117.2,49.3z"/>
				<path style="fill-rule:evenodd;clip-rule:evenodd;fill:#D99E58;" d="M49.85,40.8l1,4.55l0.8,9.85
					c-1.133-4.567-1.883-8.217-2.25-10.95c-0.367-2.033-0.167-4.517,0.6-7.45C49.7,38.133,49.65,39.467,49.85,40.8z"/>
				<path style="fill-rule:evenodd;clip-rule:evenodd;fill:#D99E58;" d="M52.55,123.2c0.1,0.866,0.434,2.833,1,5.899
					c0.467,2.534,0.75,4.584,0.85,6.15C53.433,131.35,52.817,127.333,52.55,123.2z"/>
				<path style="fill-rule:evenodd;clip-rule:evenodd;fill:#D99E58;" d="M62.15,89.85c0.2-1.433,0.4-3.649,0.6-6.649
					c-0.333,20.866-0.1,39.684,0.7,56.45l0.1,3.85c0.067,8.467,0.067,16.9,0,25.3l-2.2-0.6c0.1-5.467,0.35-13.267,0.75-23.4
					l0.05-5.25c-0.566-11-0.933-19.233-1.1-24.7C60.75,105.35,61.117,97.017,62.15,89.85z"/>
				<path style="fill-rule:evenodd;clip-rule:evenodd;fill:#D99E58;" d="M5.925,98.85L5.85,105.8c0.1,3.767,0.15,7.567,0.15,11.4
					l-0.3-0.75c0.2-4.267,0.216-7.733,0.05-10.4l0.1-4.5C5.874,100.633,5.899,99.732,5.925,98.85z"/>
				<path style="fill-rule:evenodd;clip-rule:evenodd;fill:#D99E58;" d="M142.3,57.1c0.533-4.433,0.566-9.867,0.101-16.3
					c-0.667-7.2-1.084-12.6-1.25-16.2c-0.134-1.533-0.233-3.083-0.301-4.65c1.667,1.4,3.417,2.983,5.25,4.75
					c0.301,15.767,0.45,26.233,0.45,31.4l-0.35,30.5c0.166,3.966,0.267,7.917,0.3,11.85v8.05c-0.9,11.634-1.15,25.283-0.75,40.95
					c-1.434,1.399-3.2,3-5.3,4.8c-0.4-5.7-0.816-10.783-1.25-15.25c-0.601-4.5-0.617-10.066-0.05-16.7
					c0.966-10.8,1.449-16.383,1.449-16.75l0.301-13.5c0.066-3.7,0.017-7.417-0.15-11.15l0.2-3.4c0.5-6.1,0.85-10.667,1.05-13.7
					C142.167,60.2,142.267,58.633,142.3,57.1z"/>
				<path style="fill-rule:evenodd;clip-rule:evenodd;fill:#D99E58;" d="M151.05,55.05c-0.166-5.667,0.101-13.7,0.8-24.1
					c1,1.167,1.95,2.367,2.851,3.6c-0.3,2.634-0.733,5.7-1.3,9.2c0,0.833-0.034,1.983-0.101,3.45c-0.033,1.267,0.117,2.433,0.45,3.5
					c0.033,1.233,0.15,2.967,0.35,5.2c0.334,3.5,0.884,8.717,1.65,15.65c0.6,6.134,0.75,11.384,0.45,15.75l-0.05,24.7
					c-0.634,6.767-0.75,14.7-0.351,23.8l-3.05,3.95c-0.634-12.1-0.616-21.65,0.05-28.65c0.134-2,0.2-3.466,0.2-4.399l-0.1-23.2
					c-0.067-2.933-0.284-6.883-0.65-11.85c-0.434-5.8-0.7-9.7-0.8-11.7L151.05,55.05z"/>
				<path style="fill-rule:evenodd;clip-rule:evenodd;fill:#D99E58;" d="M154.85,55.25l-0.3-4.7c-0.033-4.033,0.25-9.05,0.851-15.05
					c1.399,1.9,2.699,3.85,3.899,5.85l-0.1,2.3c-0.066,2.233-0.084,3.9-0.05,5c0.1,3.6,0.533,8.65,1.3,15.15
					c0.866,7.134,1.383,12.284,1.55,15.45l0.75,45c-1.6,3.233-3.45,6.4-5.55,9.5c0-3.467,0.149-10.033,0.45-19.7l0.199-18
					c-0.033-1.633-0.133-3.283-0.3-4.95l-0.2-5.399c0-0.167,0.067-2.117,0.2-5.85c0.066-2.233,0-4.133-0.2-5.7
					C156.083,66.083,155.25,59.783,154.85,55.25z"/>
				<path style="fill-rule:evenodd;clip-rule:evenodd;fill:#D99E58;" d="M148.6,60.7l-0.1-5.2c0-6.167,0.134-15.483,0.4-27.95
					l2.25,2.6c-0.434,8.6-0.65,15.567-0.65,20.9l0.85,18.25c0.267,5.267,0.434,9.667,0.5,13.2l-0.149,24.8
					c-0.033,3.733-0.15,9.4-0.351,17c-0.133,6.767-0.133,12.483,0,17.15l-2.6,2.95c-0.366-7.434-0.517-13.684-0.45-18.75
					c0.033-6.834,0.417-13.084,1.15-18.75l0.149-4.5c0.067-1.767,0.051-3.351-0.05-4.75c-0.066-1.733-0.184-3.283-0.35-4.65
					l-0.05-8.9C149.116,78.9,148.934,71.1,148.6,60.7z"/>
				<path style="fill-rule:evenodd;clip-rule:evenodd;fill:#D99E58;" d="M169,107.7l-0.2-13.25c-0.233-8.133-0.434-16.35-0.6-24.65
					l-0.2-9.25c2.533,8.333,3.8,16.784,3.8,25.35C171.8,93.434,170.866,100.7,169,107.7z"/>
				<path style="fill-rule:evenodd;clip-rule:evenodd;fill:#D99E58;" d="M163.3,75.65l0.2,3.85c0.267,6.767,0.434,11.884,0.5,15.35
					v12.4c-0.233,4-0.267,8.867-0.1,14.6l-0.4,0.851v-0.25c-0.1-5.767-0.083-11.217,0.05-16.351l-0.5-30.45l0.25-2.8
					C163.366,73.783,163.366,74.717,163.3,75.65z"/>
				<path style="fill-rule:evenodd;clip-rule:evenodd;fill:#D99E58;" d="M147.2,126.9c-0.033,5.267,0.033,11.566,0.2,18.899
					l-0.4,0.4C146.934,139.367,147,132.934,147.2,126.9z"/>
				<path style="fill-rule:evenodd;clip-rule:evenodd;fill:#D99E58;" d="M162.55,53.6c-0.1-1.533-0.149-3.1-0.149-4.7v-2
					c1.5,2.934,2.716,5.65,3.649,8.15c0.167,2.5,0.45,5.3,0.851,8.4v5.7c0.267,7.067,0.483,15.017,0.649,23.85v19.55
					c-0.666,2.033-1.45,4.167-2.35,6.4l-0.101-22.8c-0.333-10.267-0.566-17.851-0.699-22.75v-5.5c-0.4-1.767-0.684-3.367-0.851-4.8
					c-0.333-1.333-0.566-2.95-0.7-4.85C162.717,56.117,162.616,54.567,162.55,53.6z"/>
				<path style="fill-rule:evenodd;clip-rule:evenodd;fill:#D99E58;" d="M50.65,7.65C53.183,6.483,55.633,5.5,58,4.7v0.75
					c-0.067,2.267,0.617,6.033,2.05,11.3c1.267,4.7,1.633,8.467,1.1,11.3c-0.3,1.467-0.867,3.667-1.7,6.6
					c-0.567,2.6-0.65,4.817-0.25,6.65c1.633,10.367,2.267,22.684,1.9,36.95c-0.2,8.167-0.667,20.384-1.4,36.65
					c0,2.399,0.316,6.083,0.95,11.05c0.667,4.899,0.983,8.616,0.95,11.149l-0.05,5.101c-0.267,3.6-0.433,7.899-0.5,12.899
					c-0.066,2.867-0.133,7.184-0.2,12.95c-1.833-0.566-4.1-1.366-6.8-2.399c0.4-5.566,0.7-9.733,0.9-12.5
					c0.367-4.934,0.583-9.101,0.65-12.5v-4.301c-0.067-1.666-0.667-6.05-1.8-13.149c-0.9-5.4-1.066-9.8-0.5-13.2
					c1.733-10.566,2.367-21.15,1.9-31.75l0.05-1.65c0-2.867-0.267-5.867-0.8-9c-0.767-7.067-1.967-14.483-3.6-22.25l-0.5-5.55
					c-0.133-1.066-0.133-2.483,0-4.25l0.4-1.25c0.233-0.667,0.95-2.333,2.15-5c0.934-2.1,1.567-3.833,1.9-5.2
					c0.567-2.433,0.267-5.233-0.9-8.4C52.333,12.167,51.25,9.483,50.65,7.65z"/>
				<path style="fill-rule:evenodd;clip-rule:evenodd;fill:#D99E58;" d="M26.6,39.5c0.133-1.367,0.2-2.9,0.2-4.6
					c-0.966-3.167-1.75-6.133-2.35-8.9l0.9-0.9c0.467,2.267,0.983,4.333,1.55,6.2c0.167,1.034,0.35,2.583,0.55,4.65
					c0.4,5.167,0.017,9.883-1.15,14.15c-0.966,4.267-1.6,7.45-1.9,9.55c-0.467,3.534-0.517,6.667-0.15,9.4
					c0.033,0.934,0.083,2.317,0.15,4.15l0.35,33.05c0.167,4.333-0.033,10.783-0.6,19.35c-0.566,8.567-0.767,14.984-0.6,19.25
					l-2.05-2.25c-0.2-2.1-0.233-4.133-0.1-6.1c0.067-1.434,0.517-6.75,1.35-15.95c0.567-6.467,0.733-11.85,0.5-16.149l0.15-32.25
					c-0.367-4.333-0.05-9.816,0.95-16.45C25.717,46.533,26.467,41.133,26.6,39.5z"/>
				<path style="fill-rule:evenodd;clip-rule:evenodd;fill:#D99E58;" d="M29.25,37.55c0.067-1.633,0.017-3.283-0.15-4.95
					c-0.967-3.033-1.767-5.967-2.4-8.8l2.6-2.35c0.5,2.867,1.15,5.717,1.95,8.55c0.4,1.467,0.583,3.184,0.55,5.15
					c0,1.133-0.066,2.817-0.2,5.05l-0.45,5c-0.133,1.267-0.7,5.45-1.7,12.55c-0.7,5.067-1.117,9.233-1.25,12.5l0.2,15.65
					c-0.033,1.967,0.05,4.85,0.25,8.65c0.2,3.9,0.283,6.8,0.25,8.7l-0.15,3.5c0,7.1-0.033,12.45-0.1,16.05
					c-0.133,5.967-0.417,11.351-0.85,16.15c-0.533,2.667-0.417,5.1,0.35,7.3l0.2,3.3c-1.367-1.2-2.684-2.466-3.95-3.8
					c-0.4-2.6-0.633-4.383-0.7-5.35c-0.2-2.033-0.15-3.834,0.15-5.4c0.933-3.533,1.367-8.184,1.3-13.95
					c-0.1-7.233-0.033-11.899,0.2-14v-36.6c0.167-0.9,0.083-2.267-0.25-4.1c-0.333-1.833-0.417-3.15-0.25-3.95
					c1.433-5.533,2.417-9.683,2.95-12.45C28.733,45.35,29.217,41.217,29.25,37.55z"/>
				<path style="fill-rule:evenodd;clip-rule:evenodd;fill:#D99E58;" d="M32.1,19.05c0.667,3.967,1.517,7.617,2.55,10.95
					c0.434,1.434,0.633,3.15,0.6,5.15c0,1.133-0.05,2.833-0.15,5.1c-0.133,1.633-0.333,3.317-0.6,5.05c-0.4,2.8-1.1,7.017-2.1,12.65
					c-0.767,4.967-1.083,9.217-0.95,12.75v5.25c0.4,4.066,0.566,8.85,0.5,14.35c-0.034,3.134-0.133,7.817-0.3,14.05l-0.05,4.75
					c-0.033,1.434,0.033,7.284,0.2,17.551c0.133,7.133-0.15,12.982-0.85,17.55l-0.1,7.55L28.8,150l-0.1-2.95
					c-0.367-2.167-0.6-3.816-0.7-4.95c-0.233-1.967-0.133-3.666,0.3-5.1c0.9-4.233,1.467-8.833,1.7-13.8
					c0.167-3.5,0.183-8.117,0.05-13.851L29.8,105.2c-0.033-1.434-0.05-4.967-0.05-10.601c0.033-4.399-0.083-7.933-0.35-10.6
					l-0.25-15.2c-0.033-1.966-0.05-3.45-0.05-4.45c0.033-1.733,0.25-3.2,0.65-4.4c1.467-4.833,2.4-9.917,2.8-15.25
					c0.133-2.267,0.2-3.983,0.2-5.15c-0.3-5.4-1-11.833-2.1-19.3L32.1,19.05z"/>
				<path style="fill-rule:evenodd;clip-rule:evenodd;fill:#D99E58;" d="M36.25,37c-0.067-2.066-0.1-5.05-0.1-8.95
					c-0.233-1.566-0.633-3.283-1.2-5.15c-0.2-0.733-0.717-2.367-1.55-4.9l2.1-1.55c1,6.167,1.617,10.167,1.85,12
					c0.533,4.533,0.667,8.583,0.4,12.15l-0.25,4.8c-0.167,2.667-0.483,6.667-0.95,12C36.217,62.067,36.033,66,36,69.2l0.05,4.25
					c0.034,4.667,0.3,18.184,0.8,40.55l0.1,4.5c0.167,5.367,0.133,10.4-0.1,15.1l-0.8,22.15c-1.833-1.333-3.1-2.283-3.8-2.85
					l0.1-10.351c0.566-7,0.85-17.333,0.85-31L33.15,68.4c0-3.5,0.367-7.983,1.1-13.45c1.033-7.867,1.6-12.35,1.7-13.45
					C36.117,40,36.217,38.5,36.25,37z"/>
				<path style="fill-rule:evenodd;clip-rule:evenodd;fill:#D99E58;" d="M39.5,38.75l-0.2-5.25c-0.033-2.566-0.333-5.583-0.9-9.05
					c-0.7-3.967-1.217-6.95-1.55-8.95c1.533-1.1,3.217-2.2,5.05-3.3c0.567,4.033,0.867,8.867,0.9,14.5c0.034,3.233,0,8.066-0.1,14.5
					c-0.4,4.467-0.3,8.25,0.3,11.35l0.15,0.5c0.233,2.833,0.833,6.767,1.8,11.8c1.066,5.567,1.733,9.483,2,11.75
					c0.533,5.2,0.367,9.783-0.5,13.75c-1.133,7.434-1.833,15.351-2.1,23.75c-0.2,6.5-0.15,14.367,0.15,23.601V161.1
					c-1.967-1.066-4.083-2.35-6.35-3.85l0.15-13.65c0.034-2.366,0.017-5.916-0.05-10.649l0.1-13.25
					c0.066-3.7,0.183-20.333,0.35-49.9l-0.05-5.1C39.35,54.867,39.633,46.217,39.5,38.75z"/>
				<path style="fill-rule:evenodd;clip-rule:evenodd;fill:#D99E58;" d="M7.65,63.15c-0.1-2.7-0.117-6.8-0.05-12.3
					c1.566-3.467,3.233-6.65,5-9.55c0,2.767-0.05,6.934-0.15,12.5c-0.067,5.067-0.067,9.317,0,12.75l-0.2,10.25
					c-0.333,9.467-0.517,16.584-0.55,21.351v4.25c-0.267,2.8-0.35,6.683-0.25,11.649c0.066,5.3,0.017,9.15-0.15,11.55l-0.2,2.301
					c-1.467-2.601-2.817-5.334-4.05-8.2c0-0.3-0.083-2.9-0.25-7.8c-0.1-3.167-0.083-5.817,0.05-7.95L7.65,63.15z"/>
				<path style="fill-rule:evenodd;clip-rule:evenodd;fill:#D99E58;" d="M0.2,90c0.1-7,0.15-10.533,0.15-10.6
					c0.667-8.433,2.483-16.5,5.45-24.2l-0.95,50.55c0.1,1.9,0.15,4.783,0.15,8.65C2.2,106.533,0.6,98.4,0.2,90z"/>
				<path style="fill-rule:evenodd;clip-rule:evenodd;fill:#D99E58;" d="M13.85,39.4c1.167-1.8,2.367-3.55,3.6-5.25
					c0.2,7.733,0.066,19.35-0.4,34.85L17,73.75c-0.233,8.7-0.367,16.566-0.4,23.6v4.7c-0.033,0.5-0.05,5.851-0.05,16.05
					c0,6.334-0.483,11.65-1.45,15.95l-0.05,0.2c-1-1.434-1.95-2.934-2.85-4.5l0.1-1.35c0.567-8.334,0.8-16.584,0.7-24.75l-0.05-4.45
					c0-7.4,0.1-14.783,0.3-22.15l0.3-10.65C13.917,57.367,14.017,48.367,13.85,39.4z"/>
				<path style="fill-rule:evenodd;clip-rule:evenodd;fill:#D99E58;" d="M43.65,11.2c1.767-1,3.567-1.95,5.4-2.85
					c1.9,4.567,2.15,10.767,0.75,18.6c-1.566,8.833-2.033,14.917-1.4,18.25c0.033,0.2,0.7,3.617,2,10.25
					c0.8,4.066,1.417,7.45,1.85,10.15c0.733,12.967,0.95,25.55,0.65,37.75l-0.55,2.7c-0.9,4.8-1.067,10.2-0.5,16.2
					c0.667,4.134,1.1,7.066,1.3,8.8c0.367,3.267,0.5,6.15,0.4,8.65l-0.1,3.899c-0.133,2.9-0.35,6.434-0.65,10.601
					c-0.167,2.366-0.433,5.899-0.8,10.6c-2.1-0.933-4-1.85-5.7-2.75l0.35-7.05c0.3-5.3,0.4-9.967,0.3-14l-0.1-3.55
					c-0.533-2.7-0.917-5.267-1.15-7.7c-0.7-9.366-0.367-20.116,1-32.25l0.05-0.2L47.9,87.4c0.7-5.434,0.684-11.233-0.05-17.4
					c-0.567-4.9-1.7-10.717-3.4-17.45c-0.5-2.066-0.867-3.716-1.1-4.95c-0.067-2.433,0.033-6.017,0.3-10.75
					c0.9-4.967,1.4-9.283,1.5-12.95C45.25,19.233,44.75,15,43.65,11.2z"/>
				<path style="fill-rule:evenodd;clip-rule:evenodd;fill:#D99E58;" d="M19.6,37.25l-0.2-5.55c0.967-1.2,2.184-2.6,3.65-4.2
					l0.55,3.85c0.1,1.2,0.183,2.933,0.25,5.2c0.1,4.134-0.184,10.167-0.85,18.1c-0.633,8.1-0.933,14.1-0.9,18l0.2,30.85
					c0.034,2.667,0.2,6.75,0.5,12.25c0.1,4.767-0.367,8.566-1.4,11.4c-0.7,2.3-1.05,4.8-1.05,7.5c0,2.033,0.217,4.482,0.65,7.35
					c-1.633-1.833-3.183-3.783-4.65-5.85c0.066-1.434,0.283-2.801,0.65-4.101c0.933-3.5,1.283-8.25,1.05-14.25
					c-0.267-7.366-0.283-12.267-0.05-14.7l-0.05-5.449c-0.067-5.233-0.017-11.8,0.15-19.7l0.25-10.3
					c0.033-3.167,0.267-8.233,0.7-15.2C19.45,45.883,19.633,40.817,19.6,37.25z"/>
				<path style="fill-rule:evenodd;clip-rule:evenodd;fill:#D99E58;" d="M63.2,7.3c-0.233-1.066-0.233-2.35,0-3.85l0.1-0.4
					l3.45-0.85C66.483,4,66.4,5.95,66.5,8.05c0.033,1.3,0.133,2.634,0.3,4c0.5,2.167,0.75,5.534,0.75,10.1
					c0,6.867-0.267,26.5-0.8,58.9c-0.433,24.067-0.4,43.767,0.1,59.101l0.2,10.05c-0.167,2.533-0.15,5.8,0.05,9.8
					c0.3,5.6,0.45,8.867,0.45,9.8l-2.95-0.7v-33.05c0-2.167-0.167-5.283-0.5-9.35c-0.333-4.101-0.5-7.217-0.5-9.351
					c-0.133-7.433,0.083-21.5,0.65-42.2c0.467-17.767,0.417-31.833-0.15-42.2c0-0.633,0.183-1.45,0.55-2.45
					c0.467-1.133,0.783-1.95,0.95-2.45c0.2-2.8-0.033-6.25-0.7-10.35C64.067,13.1,63.5,9.633,63.2,7.3z"/>
				<path style="fill-rule:evenodd;clip-rule:evenodd;fill:#D99E58;" d="M59.75,8.1c-0.333-1.467-0.55-2.717-0.65-3.75l2.55-0.8V5.5
					c0.1,1.233,0.267,2.35,0.5,3.35c1.3,6.633,1.95,13.85,1.95,21.65c-0.233,8.967-0.6,22.417-1.1,40.35
					c-0.5-10.533-0.867-18.45-1.1-23.75c-0.367-9.4-0.117-17.383,0.75-23.95c0.4-2.267,0.217-4.867-0.55-7.8
					C61,12.083,60.217,9.667,59.75,8.1z"/>
				<path style="fill-rule:evenodd;clip-rule:evenodd;fill:#AF6924;" d="M0.1,85.9c0-1.933,0.083-4.1,0.25-6.5
					C0.35,79.467,0.3,83,0.2,90L0.1,85.9z"/>
				<path style="fill-rule:evenodd;clip-rule:evenodd;fill:#AF6924;" d="M5.8,55.2l1.05-2.65L6.6,69.85
					c-0.133,7.067-0.383,17.633-0.75,31.7l-0.1,4.5c0.167,2.667,0.15,6.134-0.05,10.4L5,114.4c0-3.867-0.05-6.75-0.15-8.65L5.8,55.2
					z"/>
				<path style="fill-rule:evenodd;clip-rule:evenodd;fill:#AF6924;" d="M6.85,52.5l0.75-1.65c-0.067,5.5-0.05,9.6,0.05,12.3
					l-0.8,40.8c-0.133,2.133-0.15,4.783-0.05,7.95c0.167,4.899,0.25,7.5,0.25,7.8L6,117.2c0-3.833-0.05-7.634-0.15-11.4L6.85,52.5z"
					/>
				<path style="fill-rule:evenodd;clip-rule:evenodd;fill:#AF6924;" d="M12.45,53.8c0.1-5.566,0.15-9.733,0.15-12.5l1.25-1.9
					c0.167,8.967,0.066,17.967-0.3,27l-0.3,10.65c-0.2,7.367-0.3,14.75-0.3,22.15l0.05,4.45c0.1,8.166-0.133,16.416-0.7,24.75
					l-0.1,1.35l-1.1-1.85l0.2-2.301c0.167-2.399,0.217-6.25,0.15-11.55c-0.1-4.967-0.017-8.85,0.25-11.649v-4.25
					c0.033-4.767,0.216-11.884,0.55-21.351l0.2-10.25C12.383,63.117,12.383,58.867,12.45,53.8z"/>
				<path style="fill-rule:evenodd;clip-rule:evenodd;fill:#AF6924;" d="M19.4,31.7l0.2,5.55c0.033,3.567-0.15,8.633-0.55,15.2
					c-0.433,6.967-0.667,12.033-0.7,15.2l-0.25,10.3c-0.167,7.9-0.217,14.467-0.15,19.7L18,103.1
					c-0.233,2.434-0.217,7.334,0.05,14.7c0.233,6-0.117,10.75-1.05,14.25c-0.367,1.3-0.583,2.667-0.65,4.101l-1.3-1.9l0.05-0.2
					c0.967-4.3,1.45-9.616,1.45-15.95c0-10.199,0.017-15.55,0.05-16.05v-4.7c0.033-7.033,0.167-14.899,0.4-23.6L17.05,69
					c0.467-15.5,0.6-27.117,0.4-34.85C18.217,33.117,18.867,32.3,19.4,31.7z"/>
				<path style="fill-rule:evenodd;clip-rule:evenodd;fill:#AF6924;" d="M23.85,36.55c-0.067-2.267-0.15-4-0.25-5.2l-0.55-3.85
					l1.4-1.5c0.6,2.767,1.383,5.733,2.35,8.9c0,1.7-0.066,3.233-0.2,4.6c-0.133,1.633-0.883,7.033-2.25,16.2
					c-1,6.633-1.317,12.117-0.95,16.45l-0.15,32.25c0.233,4.3,0.067,9.683-0.5,16.149c-0.833,9.2-1.283,14.517-1.35,15.95
					c-0.133,1.967-0.1,4,0.1,6.1L21,142c-0.433-2.867-0.65-5.316-0.65-7.35c0-2.7,0.35-5.2,1.05-7.5c1.033-2.834,1.5-6.634,1.4-11.4
					c-0.3-5.5-0.466-9.583-0.5-12.25l-0.2-30.85c-0.033-3.9,0.267-9.9,0.9-18C23.667,46.717,23.95,40.684,23.85,36.55z"/>
				<path style="fill-rule:evenodd;clip-rule:evenodd;fill:#AF6924;" d="M26.7,23.8c0.633,2.833,1.433,5.767,2.4,8.8
					c0.167,1.667,0.217,3.317,0.15,4.95c-0.033,3.667-0.517,7.8-1.45,12.4c-0.533,2.767-1.517,6.917-2.95,12.45
					c-0.167,0.8-0.083,2.117,0.25,3.95c0.333,1.833,0.417,3.2,0.25,4.1v36.6c-0.233,2.101-0.3,6.767-0.2,14
					c0.067,5.767-0.367,10.417-1.3,13.95c-0.3,1.566-0.35,3.367-0.15,5.4c0.066,0.967,0.3,2.75,0.7,5.35l-0.85-0.9
					c-0.167-4.266,0.034-10.683,0.6-19.25c0.567-8.566,0.767-15.017,0.6-19.35L24.4,73.2c-0.066-1.833-0.117-3.217-0.15-4.15
					c-0.367-2.733-0.317-5.866,0.15-9.4c0.3-2.1,0.934-5.283,1.9-9.55c1.167-4.267,1.55-8.983,1.15-14.15
					c-0.2-2.067-0.383-3.617-0.55-4.65c-0.566-1.866-1.083-3.933-1.55-6.2L26.7,23.8z"/>
				<path style="fill-rule:evenodd;clip-rule:evenodd;fill:#AF6924;" d="M31.25,30c-0.8-2.833-1.45-5.683-1.95-8.55l1.35-1.2
					c1.1,7.467,1.8,13.9,2.1,19.3c0,1.167-0.067,2.884-0.2,5.15c-0.4,5.333-1.333,10.417-2.8,15.25c-0.4,1.2-0.617,2.667-0.65,4.4
					c0,1,0.017,2.483,0.05,4.45L29.4,84c0.267,2.667,0.383,6.2,0.35,10.6c0,5.634,0.017,9.167,0.05,10.601l0.25,4.149
					c0.133,5.733,0.117,10.351-0.05,13.851c-0.233,4.967-0.8,9.566-1.7,13.8c-0.433,1.434-0.533,3.133-0.3,5.1
					c0.1,1.134,0.333,2.783,0.7,4.95l0.1,2.95l-0.45-0.45l-0.2-3.3c-0.767-2.2-0.883-4.633-0.35-7.3
					c0.434-4.8,0.717-10.184,0.85-16.15c0.067-3.6,0.1-8.95,0.1-16.05l0.15-3.5c0.033-1.9-0.05-4.8-0.25-8.7
					c-0.2-3.8-0.283-6.683-0.25-8.65l-0.2-15.65c0.133-3.267,0.55-7.433,1.25-12.5c1-7.1,1.566-11.283,1.7-12.55l0.45-5
					c0.133-2.233,0.2-3.917,0.2-5.05C31.833,33.184,31.65,31.467,31.25,30z"/>
				<path style="fill-rule:evenodd;clip-rule:evenodd;fill:#AF6924;" d="M35.25,35.15c0.033-2-0.167-3.716-0.6-5.15
					c-1.033-3.333-1.883-6.983-2.55-10.95L33.4,18c0.833,2.533,1.35,4.167,1.55,4.9c0.566,1.867,0.966,3.583,1.2,5.15
					c0,3.9,0.033,6.884,0.1,8.95c-0.033,1.5-0.133,3-0.3,4.5c-0.1,1.1-0.667,5.583-1.7,13.45c-0.733,5.467-1.1,9.95-1.1,13.45
					l0.05,43.15c0,13.667-0.284,24-0.85,31l-0.1,10.351l-1.4-1.15l0.1-7.55c0.7-4.567,0.983-10.417,0.85-17.55
					c-0.167-10.267-0.233-16.117-0.2-17.551l0.05-4.75c0.167-6.232,0.267-10.916,0.3-14.05c0.066-5.5-0.1-10.283-0.5-14.35V70.7
					c-0.133-3.533,0.183-7.783,0.95-12.75c1-5.633,1.7-9.85,2.1-12.65c0.267-1.733,0.467-3.417,0.6-5.05
					C35.2,37.983,35.25,36.283,35.25,35.15z"/>
				<path style="fill-rule:evenodd;clip-rule:evenodd;fill:#AF6924;" d="M36.75,15.55l0.1-0.05c0.333,2,0.85,4.983,1.55,8.95
					c0.567,3.467,0.867,6.483,0.9,9.05l0.2,5.25c0.133,7.467-0.15,16.117-0.85,25.95l0.05,5.1c-0.167,29.567-0.284,46.2-0.35,49.9
					l-0.1,13.25c0.067,4.733,0.083,8.283,0.05,10.649l-0.15,13.65l-1.15-0.8l0.7-36.15c-0.034-3.7,0.083-12.116,0.35-25.25
					c0.167-10.5,0.133-18.917-0.1-25.25L37.9,65c0.033-2.833,0.184-6.45,0.45-10.85c0.4-6.566,0.617-10.2,0.65-10.9
					c0.1-1.433,0.15-2.883,0.15-4.35c0.067-2.4,0.083-4.216,0.05-5.45c0-2.2-0.2-4-0.6-5.4C37.8,24.317,37.183,20.15,36.75,15.55z"
					/>
				<path style="fill-rule:evenodd;clip-rule:evenodd;fill:#AF6924;" d="M37.35,28.45c-0.233-1.833-0.85-5.833-1.85-12L36.15,16
					c1.233,6.5,1.967,10.633,2.2,12.4c0.6,4.733,0.667,8.967,0.2,12.7l-0.45,4.6c-0.633,6.133-1,9.983-1.1,11.55
					c-0.3,4.3-0.317,8.1-0.05,11.4l0.25,52.3c-0.1,3.033-0.117,6.566-0.05,10.6l-0.3,24.75l-0.8-0.55l0.8-22.15
					c0.233-4.699,0.267-9.732,0.1-15.1l-0.1-4.5c-0.5-22.366-0.767-35.883-0.8-40.55L36,69.2c0.033-3.2,0.217-7.133,0.55-11.8
					c0.467-5.333,0.784-9.333,0.95-12l0.25-4.8C38.017,37.033,37.883,32.983,37.35,28.45z"/>
				<path style="fill-rule:evenodd;clip-rule:evenodd;fill:#AF6924;" d="M36.15,16l0.6-0.45c0.433,4.6,1.05,8.767,1.85,12.5
					c0.4,1.4,0.6,3.2,0.6,5.4c0.033,1.233,0.017,3.05-0.05,5.45c0,1.467-0.05,2.917-0.15,4.35c-0.033,0.7-0.25,4.333-0.65,10.9
					c-0.267,4.4-0.417,8.017-0.45,10.85l0.05,4.8c0.233,6.333,0.267,14.75,0.1,25.25c-0.267,13.134-0.383,21.55-0.35,25.25
					l-0.2,23.75l-0.45,8.851l0.1-21.351c-0.066-4.033-0.05-7.566,0.05-10.6l-0.25-52.3c-0.267-3.3-0.25-7.1,0.05-11.4
					c0.1-1.566,0.467-5.417,1.1-11.55l0.45-4.6c0.467-3.733,0.4-7.967-0.2-12.7C38.117,26.633,37.383,22.5,36.15,16z"/>
				<path style="fill-rule:evenodd;clip-rule:evenodd;fill:#AF6924;" d="M43.65,36.85c-0.267,4.733-0.367,8.317-0.3,10.75
					c-0.467-2.733-0.583-5.167-0.35-7.3L43.65,36.85z"/>
				<path style="fill-rule:evenodd;clip-rule:evenodd;fill:#AF6924;" d="M43.15,53.05l1.8,7.35c1.167,6.733,1.883,11.1,2.15,13.1
					c0.2,2.167,0.3,4.35,0.3,6.55c0.133,4.567-0.5,13.917-1.9,28.05c-1.167,11.768-1.2,21.284-0.1,28.551L45,161.4l-0.5-0.301V137.7
					c-0.3-9.233-0.35-17.101-0.15-23.601c0.267-8.399,0.967-16.316,2.1-23.75c0.867-3.966,1.033-8.55,0.5-13.75
					c-0.267-2.267-0.934-6.183-2-11.75C43.983,59.817,43.383,55.883,43.15,53.05z"/>
				<path style="fill-rule:evenodd;clip-rule:evenodd;fill:#AF6924;" d="M41.9,12.2l0.5-0.3c0.967,5.967,1.5,9.383,1.6,10.25
					c0.233,2.667,0.167,5.867-0.2,9.6c-0.2,2.1-0.566,5.25-1.1,9.45c0.1-6.434,0.133-11.267,0.1-14.5
					C42.767,21.067,42.467,16.233,41.9,12.2z"/>
				<path style="fill-rule:evenodd;clip-rule:evenodd;fill:#AF6924;" d="M45.85,131.35c0.249,1.951,0.582,3.984,1,6.101l0.1,3.55
					c0.1,4.033,0,8.7-0.3,14l-0.35,7.05l-0.45-0.2l0.1-3c0.267-8.066,0.417-14.116,0.45-18.149L45.85,131.35z"/>
				<path style="fill-rule:evenodd;clip-rule:evenodd;fill:#AF6924;" d="M44.95,60.4c-0.633-3.5-1.117-6.767-1.45-9.8l-0.15-3
					c0.233,1.233,0.6,2.883,1.1,4.95c1.7,6.733,2.833,12.55,3.4,17.45c0.733,6.167,0.75,11.967,0.05,17.4l-0.15,1.5
					c0.367-4.601,0.15-9.733-0.65-15.4C46.767,69.867,46.05,65.5,44.95,60.4z"/>
				<path style="fill-rule:evenodd;clip-rule:evenodd;fill:#AF6924;" d="M42.7,41.2c0,4.167,0.1,7.633,0.3,10.4l0.15,1.45L43,52.55
					C42.4,49.45,42.3,45.667,42.7,41.2z"/>
				<path style="fill-rule:evenodd;clip-rule:evenodd;fill:#AF6924;" d="M43.45,11.3l0.2-0.1c1.1,3.8,1.6,8.033,1.5,12.7
					c-0.1,3.667-0.6,7.983-1.5,12.95c0.434-6.767,0.667-11.017,0.7-12.75C44.45,19.3,44.15,15.033,43.45,11.3z"/>
				<path style="fill-rule:evenodd;clip-rule:evenodd;fill:#AF6924;" d="M42.4,11.9l1.05-0.6c0.7,3.733,1,8,0.9,12.8
					c-0.033,1.733-0.267,5.983-0.7,12.75L43,40.3c-0.233,2.134-0.117,4.567,0.35,7.3l0.15,3c0.333,3.033,0.817,6.3,1.45,9.8
					l-1.8-7.35L43,51.6c-0.2-2.767-0.3-6.233-0.3-10.4c0.533-4.2,0.9-7.35,1.1-9.45c0.367-3.733,0.434-6.933,0.2-9.6
					C43.9,21.283,43.367,17.867,42.4,11.9z"/>
				<path style="fill-rule:evenodd;clip-rule:evenodd;fill:#AF6924;" d="M45.5,108.1c1.4-14.133,2.033-23.483,1.9-28.05
					c0-2.2-0.1-4.383-0.3-6.55c0.8,5.667,1.017,10.8,0.65,15.4l-1,8.399l-0.05,0.2c-0.7,6.434-1.15,11.816-1.35,16.15
					c-0.267,5.833-0.15,11.199,0.35,16.1l0.7,10.95c-0.033,4.033-0.183,10.083-0.45,18.149l-0.1,3L45,161.4l0.4-24.75
					C44.3,129.384,44.333,119.867,45.5,108.1z"/>
				<path style="fill-rule:evenodd;clip-rule:evenodd;fill:#AF6924;" d="M55.25,76.6l-0.05,1.65
					c-0.133-3.533-0.383-7.083-0.75-10.65C54.983,70.733,55.25,73.733,55.25,76.6z"/>
				<path style="fill-rule:evenodd;clip-rule:evenodd;fill:#AF6924;" d="M49.05,8.35L50,7.95l0.2,0.65
					c0.2,0.333,0.45,0.85,0.75,1.55l1.3,4.75c0.433,2.833,0.333,6.35-0.3,10.55c-0.367,2.3-0.883,5.617-1.55,9.95L50,36.8
					c-0.767,2.934-0.967,5.417-0.6,7.45c0.367,2.733,1.117,6.383,2.25,10.95c0.267,3.467,0.467,6.933,0.6,10.4
					c-0.433-2.7-1.05-6.083-1.85-10.15c-1.3-6.633-1.967-10.05-2-10.25c-0.633-3.333-0.167-9.417,1.4-18.25
					C51.2,19.117,50.95,12.917,49.05,8.35z"/>
				<path style="fill-rule:evenodd;clip-rule:evenodd;fill:#AF6924;" d="M52.35,106.05l0.55-2.7l-0.1,2.75
					c-0.333,4.4-0.483,8.25-0.45,11.551v0.199c-0.133,1.567-0.067,3.351,0.2,5.351c0.267,4.133,0.883,8.149,1.85,12.05l0.1,1.45
					c0,1.667-0.05,3.316-0.15,4.95c-0.133,3.133-0.367,7.033-0.7,11.699c-0.2,2.601-0.5,6.518-0.9,11.75L52,164.8
					c0.367-4.7,0.633-8.233,0.8-10.6c0.3-4.167,0.517-7.7,0.65-10.601l0.1-3.899c0.1-2.5-0.033-5.384-0.4-8.65
					c-0.2-1.733-0.633-4.666-1.3-8.8C51.283,116.25,51.45,110.85,52.35,106.05z"/>
				<path style="fill-rule:evenodd;clip-rule:evenodd;fill:#AF6924;" d="M54.35,90.5l-1.45,12.85
					c0.3-12.199,0.083-24.783-0.65-37.75C53.85,75.1,54.55,83.4,54.35,90.5z"/>
				<path style="fill-rule:evenodd;clip-rule:evenodd;fill:#AF6924;" d="M52.8,106.1l0.4-4.449c0.6-3.533,0.983-7.25,1.15-11.15
					c0.433-4.4,0.717-8.483,0.85-12.25c0.466,10.6-0.167,21.184-1.9,31.75c-0.566,3.4-0.4,7.8,0.5,13.2
					c1.133,7.1,1.733,11.483,1.8,13.149v4.301c-0.067,3.399-0.283,7.566-0.65,12.5c-0.2,2.767-0.5,6.934-0.9,12.5l-0.75-0.301
					c0.434-5.433,0.733-9.5,0.9-12.199c0.3-4.667,0.466-8.733,0.5-12.2c0-1.667-0.05-3.351-0.15-5.05l-0.15-0.65
					c-0.1-1.566-0.383-3.616-0.85-6.15c-0.566-3.066-0.9-5.033-1-5.899c-0.133-1.634-0.2-3.483-0.2-5.55
					C52.55,113.816,52.7,109.967,52.8,106.1z"/>
				<path style="fill-rule:evenodd;clip-rule:evenodd;fill:#AF6924;" d="M50.95,10.15l-0.55-2.4l0.25-0.1
					c0.6,1.833,1.684,4.517,3.25,8.05c1.167,3.167,1.467,5.967,0.9,8.4c-0.333,1.367-0.966,3.1-1.9,5.2
					c-1.125,2.5-1.825,4.125-2.1,4.875c1.37-4.164,2.204-6.872,2.5-8.125c0.467-3.1,0.117-6.816-1.05-11.15
					C51.983,13.133,51.55,11.55,50.95,10.15z"/>
				<path style="fill-rule:evenodd;clip-rule:evenodd;fill:#AF6924;" d="M51.65,55.2l-0.8-9.85c1.633,7.767,2.833,15.183,3.6,22.25
					C54.05,65.3,53.117,61.167,51.65,55.2z"/>
				<path style="fill-rule:evenodd;clip-rule:evenodd;fill:#AF6924;" d="M49.85,40.8c-0.2-1.333-0.15-2.667,0.15-4l0.35-1.25
					c-0.133,1.767-0.133,3.184,0,4.25l0.5,5.55L49.85,40.8z"/>
				<path style="fill-rule:evenodd;clip-rule:evenodd;fill:#AF6924;" d="M53.3,26.05c-0.3,1.267-1.15,4.017-2.55,8.25l-0.35,1.1
					c0.667-4.333,1.184-7.65,1.55-9.95c0.633-4.2,0.733-7.717,0.3-10.55C53.417,19.233,53.767,22.95,53.3,26.05z"/>
				<path style="fill-rule:evenodd;clip-rule:evenodd;fill:#AF6924;" d="M54.55,135.9c0.1,1.699,0.15,3.383,0.15,5.05
					c-0.034,3.467-0.2,7.533-0.5,12.2c-0.167,2.699-0.467,6.767-0.9,12.199l-0.55-0.25c0.4-5.232,0.7-9.149,0.9-11.75
					c0.333-4.666,0.567-8.566,0.7-11.699c0.1-1.634,0.15-3.283,0.15-4.95l-0.1-1.45L54.55,135.9z"/>
				<path style="fill-rule:evenodd;clip-rule:evenodd;fill:#AF6924;" d="M54.35,90.5c0.2-7.1-0.5-15.4-2.1-24.9
					c-0.133-3.467-0.333-6.933-0.6-10.4c1.467,5.967,2.4,10.1,2.8,12.4c0.367,3.567,0.617,7.117,0.75,10.65
					C55.067,82.017,54.783,86.1,54.35,90.5z"/>
				<path style="fill-rule:evenodd;clip-rule:evenodd;fill:#AF6924;" d="M50.4,7.75l0.55,2.4c-0.3-0.7-0.55-1.216-0.75-1.55L50,7.95
					L50.4,7.75z"/>
				<path style="fill-rule:evenodd;clip-rule:evenodd;fill:#AF6924;" d="M58,5.45V4.7l1.1-0.35c0.1,1.033,0.316,2.283,0.65,3.75
					c0.467,1.567,1.25,3.983,2.35,7.25c0.767,2.933,0.95,5.533,0.55,7.8c-0.867,6.567-1.117,14.55-0.75,23.95
					c0.233,5.3,0.6,13.217,1.1,23.75L62.75,83.2c-0.2,3-0.4,5.217-0.6,6.649c-1.033,7.167-1.4,15.5-1.1,25
					c0.167,5.467,0.534,13.7,1.1,24.7l-0.05,5.25c-0.4,10.134-0.65,17.934-0.75,23.4l-0.5-0.15c0.066-5.767,0.133-10.083,0.2-12.95
					c0.067-5,0.233-9.3,0.5-12.899l0.05-5.101c0.033-2.533-0.283-6.25-0.95-11.149c-0.633-4.967-0.95-8.65-0.95-11.05
					c0.733-16.267,1.2-28.483,1.4-36.65c0.367-14.267-0.267-26.583-1.9-36.95c-0.4-1.833-0.317-4.05,0.25-6.65
					c0.833-2.933,1.4-5.133,1.7-6.6c0.533-2.833,0.167-6.6-1.1-11.3C58.617,11.483,57.933,7.717,58,5.45z"/>
				<path style="fill-rule:evenodd;clip-rule:evenodd;fill:#AF6924;" d="M61.65,5.5V3.55l1.65-0.5l-0.1,0.4
					c-0.233,1.5-0.233,2.783,0,3.85c0.3,2.333,0.867,5.8,1.7,10.4c0.667,4.1,0.9,7.55,0.7,10.35c-0.167,0.5-0.483,1.317-0.95,2.45
					c-0.367,1-0.55,1.817-0.55,2.45c0.566,10.367,0.617,24.433,0.15,42.2c-0.567,20.7-0.783,34.767-0.65,42.2
					c0,2.134,0.167,5.25,0.5,9.351c0.333,4.066,0.5,7.183,0.5,9.35v33.05l-1.05-0.3c0.067-8.399,0.067-16.833,0-25.3l-0.1-3.85
					c-0.8-16.767-1.034-35.584-0.7-56.45c0.267-3.8,0.35-7.917,0.25-12.35c0.5-17.933,0.867-31.383,1.1-40.35
					c0-7.8-0.65-15.017-1.95-21.65C61.917,7.85,61.75,6.733,61.65,5.5z"/>
				<path style="fill-rule:evenodd;clip-rule:evenodd;fill:#AF6924;" d="M66.5,8.05C66.4,5.95,66.483,4,66.75,2.2l1.15-0.25
					L67.6,4.2c-0.1,1.3-0.117,2.75-0.05,4.35l0.35,4.35c0.533,13.5,0.434,34.267-0.3,62.3c-0.7,27.333-0.733,48.167-0.1,62.5
					l0.15,3.55c0.033,1.533,0.133,3.867,0.3,7l0.3,4.7c0.1,2,0.233,4.884,0.4,8.649c0.133,3.268,0.184,6.084,0.15,8.45l-1.25-0.25
					c0-0.933-0.15-4.2-0.45-9.8c-0.2-4-0.217-7.267-0.05-9.8l-0.2-10.05c-0.5-15.334-0.533-35.033-0.1-59.101
					c0.533-32.4,0.8-52.033,0.8-58.9c0-4.566-0.25-7.933-0.75-10.1C66.633,10.684,66.533,9.35,66.5,8.05z"/>
				<path style="fill-rule:evenodd;clip-rule:evenodd;fill:#AF6924;" d="M71,14.35v-0.8l0.05,0.95
					c0.333,14.867,0.284,33.883-0.15,57.05c-0.195,11.049-0.403,20.558-0.625,28.525C70.258,91.625,70.333,84.3,70.5,78.1
					c0.367-7.767,0.5-18.4,0.4-31.9C70.833,30.7,70.867,20.083,71,14.35z"/>
				<path style="fill-rule:evenodd;clip-rule:evenodd;fill:#AF6924;" d="M72.2,1.15v9.7c0.133,1.733,0.2,3.617,0.2,5.65l-0.2,16.6
					c-0.3-7.8-0.367-13.983-0.2-18.55V1.15H72.2z"/>
				<polygon style="fill-rule:evenodd;clip-rule:evenodd;fill:#AF6924;" points="71,8.1 71,1.35 71.2,1.3 71.2,6.05 				"/>
				<path style="fill-rule:evenodd;clip-rule:evenodd;fill:#AF6924;" d="M71,138.4l0.4,11.8c0.167,2.3,0.4,5.733,0.7,10.3
					c0.267,3.967,0.433,7.383,0.5,10.25l-0.15-0.05v-0.3c-0.633-5.834-1.067-12.801-1.3-20.9l-0.05-5.25
					c-0.067-1.566-0.117-2.733-0.15-3.5v-3.45c-0.133-16.467-0.2-28.816-0.2-37.05c-0.033-14.367,0.3-26.733,1-37.1
					C71.25,94.45,71,119.533,71,138.4z"/>
				<path style="fill-rule:evenodd;clip-rule:evenodd;fill:#AF6924;" d="M72.2,33.1c0.2,6.233,0.316,10.7,0.35,13.4
					c0,4.967-0.2,9.45-0.6,13.45l-0.2,3.2L72.2,33.1z"/>
				<path style="fill-rule:evenodd;clip-rule:evenodd;fill:#AF6924;" d="M71.05,14.5L71,8.1l0.2-2.05V1.3L72,1.15v13.4
					c-0.167,4.567-0.1,10.75,0.2,18.55l-0.45,30.05c-0.7,10.367-1.033,22.733-1,37.1c0,8.233,0.067,20.583,0.2,37.05v3.45
					c0.033,0.767,0.083,1.934,0.15,3.5l0.05,5.25c0.233,8.1,0.667,15.066,1.3,20.9v0.3L71.7,170.6l-1.75-34.75l0.05-7.1
					c0.033-6,0.333-25.066,0.9-57.2C71.333,48.383,71.383,29.367,71.05,14.5z"/>
				<path style="fill-rule:evenodd;clip-rule:evenodd;fill:#AF6924;" d="M76.8,0.5l1.05-0.1l0.05,17.85c0.4,16.7,0.4,36.567,0,59.6
					c-0.233,13.233-0.683,33.1-1.35,59.6l-0.15,5c0,2.233,0.033,3.917,0.1,5.05l0.1,4.6c0.133,1.067,0.233,3.117,0.3,6.15
					l1.05,13.15L76.8,171.3l-0.05-0.25c-0.067-3.267-0.4-9.417-1-18.45l-0.4-10.649c-0.067-2.7-0.083-4.733-0.05-6.101
					c0.667-25.699,1.117-45.449,1.35-59.25c0.333-21.8,0.383-41.55,0.15-59.25V0.5z"/>
				<path style="fill-rule:evenodd;clip-rule:evenodd;fill:#AF6924;" d="M80.7,0.2l0.9-0.05l0.05,21.6
					c0.434,14.7,0.434,34.133,0,58.3c-0.533,30.134-0.783,49.517-0.75,58.15l0.45,14c0.167,7,0.2,13.483,0.1,19.45l-1.1-0.051
					l0.1-5.35c0.133-3.633-0.017-8.25-0.45-13.85l-0.35-4.7c-0.133-1-0.267-2.5-0.4-4.5l-0.1-4.55
					c0.733-17.533,1.217-37.15,1.45-58.851c0.133-13.033,0.2-32.667,0.2-58.9L80.7,0.2z"/>
				<path style="fill-rule:evenodd;clip-rule:evenodd;fill:#AF6924;" d="M83.2,0.1c0.433,0,0.75-0.017,0.95-0.05v24
					c0.3,11.467,0.184,30.534-0.35,57.2c-0.466,24.4-0.383,43.417,0.25,57.05l-0.05,15c-0.1,6.101-0.25,12.25-0.45,18.45
					c-0.167-0.033-0.433-0.05-0.8-0.05V150.6c0.1-3.3,0.15-6.616,0.15-9.949l-0.05-5c-0.6-6.9-0.65-15.7-0.15-26.4
					c0.7-14.333,1.05-23.083,1.05-26.25c-0.167-6.367-0.25-15.85-0.25-28.45c0-12.533-0.083-21.95-0.25-28.25L83.2,0.1z"/>
				<path style="fill-rule:evenodd;clip-rule:evenodd;fill:#AF6924;" d="M91.5,0.2l1.25,0.1V46c-0.1,3.434-0.184,11.5-0.25,24.2
					l-0.5,17c0,3.8,0.134,9.434,0.4,16.899L92.6,109.7c0,3.7-0.05,9.383-0.149,17.05c-0.033,6.733,0.133,12.517,0.5,17.35L93.1,149
					c0.2,4.434,0.384,7.717,0.551,9.85L94,162.2c0.3,2.7,0.816,5.717,1.55,9.05l-1.95,0.2c-0.767-4.467-1.267-7.601-1.5-9.4
					L91.7,158.8c0.066-2.033,0.1-5.149,0.1-9.35l-0.05-4.7c-0.033-2-0.233-7.533-0.6-16.6c-0.267-6.733-0.317-12.283-0.15-16.65
					l0.05-4.85c-0.1-3.5-0.149-5.267-0.149-5.301c-0.101-3.833-0.084-7.399,0.05-10.699L91,86.8
					c0.167-8.533,0.283-14.917,0.35-19.15l0.101-4.95c0.133-3.1,0.149-6.4,0.05-9.9V0.2z"/>
				<path style="fill-rule:evenodd;clip-rule:evenodd;fill:#AF6924;" d="M94.95,0.5l0.35,0.05l0.2,5.4
					c0.434,8.2,0.833,18.517,1.2,30.95l0.1,4.4c0.233,13.067,0.066,23.95-0.5,32.65l-0.75,13.8c-0.399,3.134-0.333,6.65,0.2,10.55
					c0.167,1.167,0.366,2.317,0.6,3.45l1.25,5.1c1.5,6.301,2.25,13.334,2.25,21.101c0,5.399-0.416,12.5-1.25,21.3L98,162.1
					c0.167,3.101,0.434,6,0.8,8.7l-1.649,0.25c-0.467-2.933-0.75-5.733-0.851-8.399v-3.2l1.2-11.5c0.833-7.667,1.2-14.4,1.1-20.2
					c-0.1-7.267-0.899-13.866-2.399-19.8l-1.55-8.8c-0.4-4.167-0.4-7.95,0-11.351L95.6,74.95c0.601-4.533,0.817-9.783,0.65-15.75
					c-0.333-7.033-0.583-12.35-0.75-15.95l-0.1-4.65C95.1,25.867,94.95,13.167,94.95,0.5z"/>
				<path style="fill-rule:evenodd;clip-rule:evenodd;fill:#AF6924;" d="M98.1,0.9L98.7,1c0.066,5.333,0.2,9.934,0.399,13.8
					l0.4,22.05c0.5,14.967,0.417,28.833-0.25,41.6l-0.4,4.8c-1.199,4.434-1.583,8.983-1.149,13.65
					c0.166,1.633,0.383,3.066,0.649,4.3c0.567,1.566,1.167,3.333,1.801,5.3c2.699,6.3,3.899,13.85,3.6,22.65
					c-0.167,4.934-1.1,12.566-2.8,22.899l-1.2,7.15c0,1.033,0.066,2.517,0.2,4.45c0.133,2.1,0.416,4.383,0.85,6.85l-1.25,0.2
					c-0.5-2.134-0.85-4.317-1.05-6.55c-0.134-1.667-0.2-2.95-0.2-3.851v-4.2c0.066-1.866,0.283-3.333,0.65-4.399
					c2.233-6.733,3.2-14.25,2.899-22.55c-0.233-6.5-1.316-13.967-3.25-22.4l-1.1-4.8c-0.233-1.434-0.434-2.884-0.6-4.351
					c-0.467-4.533-0.417-8.899,0.149-13.1l0.8-8.75c0.467-10.1,0.634-23.3,0.5-39.6L98.1,0.9z"/>
				<path style="fill-rule:evenodd;clip-rule:evenodd;fill:#AF6924;" d="M100.15,1.25c0.566,0.033,1.133,0.133,1.699,0.3
					c-0.1,5.833-0.116,12.384-0.05,19.65l0.05,11.2c-0.033,1.767,0.134,9.85,0.5,24.25c0.233,9.7-0.199,17.617-1.3,23.75l-0.3,4.6
					c-0.2,1.567-0.316,2.7-0.35,3.4c-0.101,1.1-0.15,2.217-0.15,3.35c0.134,3.233,0.217,5.05,0.25,5.45
					c0.167,2.133,0.467,3.934,0.9,5.399c0.899,2.367,1.5,4.051,1.8,5.051c0.399,1.066,0.85,2.583,1.35,4.55
					c1.4,6.566,1.8,14.35,1.2,23.35c-0.366,5.2-1.167,13.034-2.4,23.5c0,1-0.05,2.467-0.149,4.4c-0.033,1.733,0.133,3.2,0.5,4.399
					l0.149,2.051l-2.05,0.399c-0.233-1.033-0.383-1.816-0.45-2.35c-0.833-2.7-0.983-5.667-0.449-8.9
					c1.633-10.133,2.666-17.716,3.1-22.75c0.667-8.433,0.483-15.983-0.55-22.649c-0.4-1.767-0.816-3.367-1.25-4.801
					c-0.467-1.633-1.017-3.216-1.65-4.75l-1.5-4.05c-0.033-1.467-0.033-2.933,0-4.399c0-0.434,0.25-4.817,0.75-13.15l0.3-5.15
					c0.534-5.7,0.834-12.317,0.9-19.85c-0.066-8.7-0.1-15.283-0.1-19.75l-0.25-16.6C100.384,14.95,100.217,8.317,100.15,1.25z"/>
				<path style="fill-rule:evenodd;clip-rule:evenodd;fill:#AF6924;" d="M103.05,1.75l2.101,0.5l-0.301,33
					c0,2.233,0.2,9.55,0.601,21.95c0.267,8.767,0.2,15.983-0.2,21.65c-0.033,1.6-0.134,3.2-0.3,4.8c0.1,1.5-0.367,4.3-1.4,8.4
					c-0.866,3.4-0.934,6.101-0.2,8.101c0.601,1.767,1.101,3.35,1.5,4.75c0.567,1.733,1,3.283,1.301,4.649
					c1.8,8.167,2.517,17.567,2.149,28.2c-0.2,5-1,14.467-2.399,28.4l-0.051,3.3l-1.899,0.399l-0.05-1.649
					c1.267-12.667,2.1-22.184,2.5-28.55c0.666-11.067,0.233-20.634-1.301-28.7l-2.149-10c-0.7-4.066-1.15-7.617-1.351-10.65
					c0.067-1.733,0.217-3.483,0.45-5.25l0.5-5.15c1.167-6.566,1.717-14.483,1.65-23.75c-0.334-10.733-0.55-18.8-0.65-24.2l-0.1-5.9
					C103.017,18.983,102.884,10.883,103.05,1.75z"/>
				<path style="fill-rule:evenodd;clip-rule:evenodd;fill:#AF6924;" d="M109.8,3.4l1.15,0.35l-0.4,26.45
					c0.467,12.967,0.117,28.566-1.05,46.8l-0.35,5.25c-0.267,5-0.217,10.417,0.149,16.25l0.25,3.25c1.167,9.5,1.634,20.35,1.4,32.55
					c-0.134,6.767-0.667,17.684-1.601,32.75v1.45l-0.649,0.2v-1.2c-0.066-3.2,0.25-13.85,0.95-31.95
					c0.5-13.033,0.116-23.633-1.15-31.8l-0.3-3.6c-0.267-3.834-0.4-7.417-0.4-10.75c-0.2-1.367-0.184-3.101,0.05-5.2
					c0.367-3.067,0.551-4.8,0.551-5.2l0.35-4.9c0.366-6.067,0.566-13.4,0.6-22c-0.033-9.733-0.033-17.033,0-21.9L109.8,3.4z"/>
				<path style="fill-rule:evenodd;clip-rule:evenodd;fill:#AF6924;" d="M114.2,7.05l0.05-2.2l0.95,0.3
					c-0.066,17.367-0.184,30.467-0.351,39.3l-0.1,3.4c-0.1,5.167-0.116,10.933-0.05,17.3l-0.25,10.4
					c-0.334,5.7-0.55,11.834-0.65,18.4l-0.05,3.7c-0.467,6.5-0.566,15.649-0.3,27.449c-0.066,19.734-0.267,33.851-0.601,42.351
					l-0.949,0.3v-0.3l0.25-3.45c0.8-8.7,1.05-19.5,0.75-32.4c-0.467-14.333-0.717-25.066-0.75-32.199L112.05,96.1
					c-0.066-6.166,0.101-11.616,0.5-16.35l0.25-4.5c0.267-4.6,0.467-9.133,0.601-13.6l0.1-5.4c0.033-0.9,0.1-4.533,0.2-10.9
					l0.05-5.45c-0.033-2.966,0.083-8.466,0.35-16.5C114.333,16.434,114.366,10.983,114.2,7.05z"/>
				<path style="fill-rule:evenodd;clip-rule:evenodd;fill:#AF6924;" d="M116.55,5.7l1,0.4c-0.033,4.767-0.184,11.95-0.45,21.55
					c-0.166,8.633-0.133,15.85,0.101,21.65l0.05,4.7c0,8.667-0.116,15.184-0.35,19.55l-0.551,7.9
					c-0.267,10.133-0.483,23.649-0.649,40.55c-0.233,20.233-0.417,33.733-0.55,40.5l-0.351,4.3L113,167.4l0.3-2.601
					c0.467-5.767,0.667-12.383,0.601-19.85c0-2.067-0.15-8.684-0.45-19.851c0.066-18.8,0.434-33.767,1.1-44.899l0.65-9.25
					C115.7,64.817,116,58,116.1,50.5l0.051-4.1c-0.167-5.367-0.167-12.167,0-20.4C116.417,13.567,116.55,6.8,116.55,5.7z"/>
				<path style="fill-rule:evenodd;clip-rule:evenodd;fill:#AF6924;" d="M113.45,125.1c0.3,11.167,0.45,17.783,0.45,19.851
					c0.066,7.467-0.134,14.083-0.601,19.85L113,167.4l-0.15,0.05C113.184,158.95,113.384,144.834,113.45,125.1z"/>
				<path style="fill-rule:evenodd;clip-rule:evenodd;fill:#AF6924;" d="M122.5,8.25L124.05,9c0,4.667-0.1,12.083-0.3,22.25
					c-0.167,9.667-0.25,17.067-0.25,22.2l-0.15,22.85c0.101,1.767,0.117,3.8,0.051,6.1c-0.467,8.4-1.367,20.867-2.7,37.4
					c-0.934,14.534-0.983,26.967-0.15,37.3l0.7,7.051l-2,0.899c0.333-2.066,0.434-3.899,0.3-5.5c-1.467-11.1-1.816-23.833-1.05-38.2
					c1.366-16.767,2.366-29.416,3-37.95l0.2-4.5c0.066-1.5,0.066-3,0-4.5l0.3-23.5c-0.134-5.566-0.1-12.683,0.1-21.35
					C122.366,17.55,122.5,10.45,122.5,8.25z"/>
				<path style="fill-rule:evenodd;clip-rule:evenodd;fill:#AF6924;" d="M125.05,9.5l0.65,0.3c-0.134,14.9-0.2,22.583-0.2,23.05
					c-0.033,8.733,0.1,16.4,0.4,23l0.1,4.8c0.066,5.333,0.083,9.317,0.05,11.95L126,76.55c0.033,1.767,0,3.767-0.1,6
					c-0.067,1.3-0.233,3.25-0.5,5.851c-4.733,25.566-5.534,49.449-2.4,71.649l0.35,3.15l-1.8,0.85L121.5,162
					c-0.4-21.533-0.583-33.8-0.55-36.8c0.2-14.167,1.333-26.434,3.399-36.8c0.167-2.233,0.25-4.217,0.25-5.95
					c0.034-1.667-0.033-3.667-0.199-6l0.1-24.9c0-5.167,0.083-12.183,0.25-21.05C124.917,20.4,125.017,13.4,125.05,9.5z"/>
				<path style="fill-rule:evenodd;clip-rule:evenodd;fill:#AF6924;" d="M123.85,150.7c-0.666-5-1-10.167-1-15.5
					C122.983,138.566,123.316,143.733,123.85,150.7z"/>
				<path style="fill-rule:evenodd;clip-rule:evenodd;fill:#AF6924;" d="M123.85,150.7c0.334,2.399,0.7,4.533,1.101,6.399
					c0.2,1,0.483,2.617,0.85,4.851l-0.85,0.45L123.85,150.7z"/>
				<path style="fill-rule:evenodd;clip-rule:evenodd;fill:#AF6924;" d="M126.35,10.15l0.95,0.55
					c0.033,4.467,0.167,12.583,0.4,24.35c0.166,10.267,0.267,18.4,0.3,24.4l-0.3,12.9c0.133,3.6,0.066,7.517-0.2,11.75l-0.3,3.9
					c-0.5,5.2-1.417,13-2.75,23.4c-1.101,9.333-1.634,17.267-1.601,23.8c-0.8-17.967,0.534-33.617,4-46.95l0.15-3.6
					c-0.033-4.9-0.033-8.583,0-11.05l0.15-17c-0.034-4.767-0.167-12.5-0.4-23.2C126.517,23.367,126.384,15.617,126.35,10.15z"/>
				<path style="fill-rule:evenodd;clip-rule:evenodd;fill:#AF6924;" d="M134.15,21.45c0.133,2.367,0.333,4.733,0.6,7.1
					c0.866,5.534,1.434,9.667,1.7,12.4C135.184,35.117,134.417,28.617,134.15,21.45z"/>
				<path style="fill-rule:evenodd;clip-rule:evenodd;fill:#AF6924;" d="M135.3,60.75c0.667-2.833,1.167-4.983,1.5-6.45
					c-0.066,1.167-0.166,2.284-0.3,3.35l-2,16.8c0.3,3.867,0.316,7.75,0.05,11.65c-0.033,1.267-0.133,2.534-0.3,3.8l-0.15,0.85
					c0.067-1.033,0.067-2.083,0-3.15c-0.133-2.966-0.233-5.2-0.3-6.7c-0.1-2.667-0.083-4.983,0.05-6.95L135.3,60.75z"/>
				<path style="fill-rule:evenodd;clip-rule:evenodd;fill:#AF6924;" d="M135.15,92.7l0.699-9.8l0.051,2.8
					c0,1.399-0.051,2.816-0.15,4.25c-0.1,1.566-0.267,3.017-0.5,4.35l-1.1,6.351C134.45,97.55,134.783,94.9,135.15,92.7z"/>
				<path style="fill-rule:evenodd;clip-rule:evenodd;fill:#AF6924;" d="M134.1,92.1l-1.649,9.7c-3.134,18.867-3.134,36.417,0,52.65
					c-3.9-17.7-3.9-35.851,0-54.45l0.899-5.05c0.301-1.4,0.551-2.8,0.75-4.2V92.1z"/>
				<path style="fill-rule:evenodd;clip-rule:evenodd;fill:#AF6924;" d="M135.75,16c0.4,4.6,1.066,11.483,2,20.65
					c0.667,8.034,0.783,14.95,0.35,20.75l-2.25,25.5l0.15-8.95c0.134-2.967,0.366-6.283,0.7-9.95l0.5-5c0-0.833,0.166-2.066,0.5-3.7
					c0.333-1.667,0.5-2.9,0.5-3.7c-0.134-4.833-0.5-10.817-1.101-17.95c-0.767-7.9-1.3-13.833-1.6-17.8L135.75,16z"/>
				<path style="fill-rule:evenodd;clip-rule:evenodd;fill:#AF6924;" d="M134.15,100.65l-0.601,8.449
					c-0.233,7.101-0.133,14.95,0.3,23.551c0.301,5.934,0.851,13.717,1.65,23.35l-0.65,0.45c-0.666-6.134-1.517-11.8-2.55-17
					c-0.866-4.767-1.133-10.066-0.8-15.9c0.134-2.967,0.65-8.133,1.55-15.5L134.15,100.65z"/>
				<path style="fill-rule:evenodd;clip-rule:evenodd;fill:#AF6924;" d="M137.2,44.25c0.7,2.733,0.566,6.083-0.4,10.05
					c0.267-4.033,0.15-8.483-0.35-13.35L137.2,44.25z"/>
				<path style="fill-rule:evenodd;clip-rule:evenodd;fill:#AF6924;" d="M134.75,28.55c-0.267-2.366-0.467-4.733-0.6-7.1l-0.2-6.7
					l1.55,1.1c0.3,3.967,0.833,9.9,1.6,17.8c0.601,7.133,0.967,13.117,1.101,17.95c0,0.8-0.167,2.033-0.5,3.7
					c-0.334,1.634-0.5,2.867-0.5,3.7l-0.5,5c-0.334,3.667-0.566,6.983-0.7,9.95l-0.85,18.75c-0.367,2.2-0.7,4.85-1,7.95
					l-1.101,7.399c-0.899,7.367-1.416,12.533-1.55,15.5c-0.333,5.834-0.066,11.134,0.8,15.9c1.033,5.2,1.884,10.866,2.55,17
					l-1.649,1.1c-0.3-0.966-0.55-2-0.75-3.1c-3.134-16.233-3.134-33.783,0-52.65l1.649-9.7v-1.35l0.15-0.85
					c0.167-1.267,0.267-2.533,0.3-3.8c0.267-3.9,0.25-7.783-0.05-11.65l2-16.8c0.134-1.066,0.233-2.183,0.3-3.35
					c0.967-3.966,1.101-7.316,0.4-10.05l-0.75-3.3C136.184,38.217,135.616,34.083,134.75,28.55z"/>
				<path style="fill-rule:evenodd;clip-rule:evenodd;fill:#AF6924;" d="M140,19.25l0.85,0.7c0.067,1.566,0.167,3.117,0.301,4.65
					c0.166,3.6,0.583,9,1.25,16.2c0.466,6.434,0.433,11.867-0.101,16.3c-0.033,1.533-0.133,3.1-0.3,4.7
					c-0.2,3.034-0.55,7.6-1.05,13.7l-0.2,3.4c0.167,3.733,0.217,7.45,0.15,11.15l-0.301,13.5c0,0.367-0.483,5.95-1.449,16.75
					c-0.567,6.634-0.551,12.2,0.05,16.7c0.434,4.467,0.85,9.55,1.25,15.25l-1.351,1c-0.5-10.1-0.8-17.883-0.899-23.35
					c-0.134-8.634,0.017-16.45,0.45-23.45l0.5-13.8c0.1-4.101,0.149-8.184,0.149-12.25l0.15-3.3c0.066-0.967,0.5-6.467,1.3-16.5
					l0.4-4.6c0.333-3.6,0.55-6.3,0.649-8.1c0.134-3,0.084-5.7-0.149-8.1C140.783,34.033,140.233,27.184,140,19.25z"/>
				<path style="fill-rule:evenodd;clip-rule:evenodd;fill:#AF6924;" d="M146.55,56.1c0-5.167-0.149-15.633-0.45-31.4l1.45,1.45
					l0.15,80.05c-0.267,5.366-0.434,12.267-0.5,20.7c-0.2,6.033-0.267,12.467-0.2,19.3l-1.25,1.25
					c-0.4-15.667-0.15-29.316,0.75-40.95v-8.05c-0.033-3.934-0.134-7.884-0.3-11.85L146.55,56.1z"/>
				<path style="fill-rule:evenodd;clip-rule:evenodd;fill:#AF6924;" d="M147.55,26.15l1.351,1.4
					c-0.267,12.467-0.4,21.784-0.4,27.95l0.1,5.2c0.334,10.4,0.517,18.2,0.551,23.4l0.05,8.9c0.166,1.367,0.283,2.917,0.35,4.65
					c0.101,1.399,0.117,2.983,0.05,4.75l-0.149,4.5c-0.733,5.666-1.117,11.916-1.15,18.75c-0.066,5.066,0.084,11.316,0.45,18.75
					l-1.35,1.399c-0.167-7.333-0.233-13.633-0.2-18.899c0.2-7.167,0.517-13.834,0.95-20l-0.101-4.7
					c-0.033-1.033-0.149-2.583-0.35-4.65L147.55,26.15z"/>
				<path style="fill-rule:evenodd;clip-rule:evenodd;fill:#AF6924;" d="M147.625,94.575l0.075,2.975
					c0.2,2.067,0.316,3.617,0.35,4.65l0.101,4.7c-0.434,6.166-0.75,12.833-0.95,20c0.066-8.434,0.233-15.334,0.5-20.7
					L147.625,94.575z"/>
				<path style="fill-rule:evenodd;clip-rule:evenodd;fill:#AF6924;" d="M150.5,51.05c0-5.333,0.217-12.3,0.65-20.9l0.699,0.8
					c-0.699,10.4-0.966,18.433-0.8,24.1l0.4,4.9c0.1,2,0.366,5.9,0.8,11.7c0.366,4.967,0.583,8.917,0.65,11.85l0.1,23.2
					c0,0.934-0.066,2.399-0.2,4.399c-0.666,7-0.684,16.551-0.05,28.65l-1.4,1.7c-0.133-4.667-0.133-10.384,0-17.15
					c0.2-7.6,0.317-13.267,0.351-17l0.149-24.8c-0.066-3.533-0.233-7.933-0.5-13.2L150.5,51.05z"/>
				<path style="fill-rule:evenodd;clip-rule:evenodd;fill:#AF6924;" d="M153.75,50.7c-0.333-1.067-0.483-2.233-0.45-3.5
					c0.066-1.467,0.101-2.617,0.101-3.45c0.566-3.5,1-6.566,1.3-9.2l0.7,0.95c-0.601,6-0.884,11.017-0.851,15.05l0.3,4.7
					c0.4,4.533,1.233,10.833,2.5,18.9c0.2,1.567,0.267,3.467,0.2,5.7c-0.133,3.733-0.2,5.683-0.2,5.85l0.2,5.399
					c0.167,1.667,0.267,3.317,0.3,4.95l-0.199,18c-0.301,9.667-0.45,16.233-0.45,19.7l-1.4,2.05c-0.399-9.1-0.283-17.033,0.351-23.8
					l0.05-24.7c0.3-4.366,0.149-9.616-0.45-15.75c-0.767-6.933-1.316-12.15-1.65-15.65C153.9,53.667,153.783,51.934,153.75,50.7z"/>
				<path style="fill-rule:evenodd;clip-rule:evenodd;fill:#AF6924;" d="M159.2,43.65l0.1-2.3l1.55,2.6
					c-0.366,6.633,0.25,13.867,1.851,21.7c0.366,2.8,0.566,5.2,0.6,7.2l-0.25,2.8l0.5,30.45c-0.133,5.134-0.149,10.584-0.05,16.351
					v0.25l-0.75,1.55l-0.75-45c-0.167-3.167-0.684-8.316-1.55-15.45c-0.767-6.5-1.2-11.55-1.3-15.15
					C159.116,47.55,159.134,45.883,159.2,43.65z"/>
				<path style="fill-rule:evenodd;clip-rule:evenodd;fill:#AF6924;" d="M161.15,55.1c-0.434-4.033-0.467-7.6-0.101-10.7
					c0.467,0.767,0.917,1.6,1.351,2.5v2c0,1.6,0.05,3.167,0.149,4.7c0.066,0.967,0.167,2.517,0.3,4.65
					c0.134,1.9,0.367,3.517,0.7,4.85c0.167,1.433,0.45,3.033,0.851,4.8v5.5c0.133,4.9,0.366,12.483,0.699,22.75l0.101,22.8
					l-1.3,2.899c-0.167-5.732-0.134-10.6,0.1-14.6v-12.4c-0.066-3.466-0.233-8.583-0.5-15.35l-0.2-3.85
					c0.066-0.933,0.066-1.867,0-2.8c0.2-1.9,0.184-3.433-0.05-4.6l-0.55-2.6C161.934,60.983,161.417,57.467,161.15,55.1z"/>
				<path style="fill-rule:evenodd;clip-rule:evenodd;fill:#AF6924;" d="M163.25,68.25c0.233,1.167,0.25,2.7,0.05,4.6
					c-0.033-2-0.233-4.4-0.6-7.2L163.25,68.25z"/>
				<path style="fill-rule:evenodd;clip-rule:evenodd;fill:#AF6924;" d="M166.9,63.45c-0.4-3.1-0.684-5.9-0.851-8.4
					c0.667,1.733,1.316,3.567,1.95,5.5l0.2,9.25c0.166,8.3,0.366,16.517,0.6,24.65l0.2,13.25c-0.566,2.033-1.05,3.649-1.45,4.85V93
					c-0.166-8.833-0.383-16.783-0.649-23.85V63.45z"/>
			</g>
			
				<linearGradient id="SVGID_9_" gradientUnits="userSpaceOnUse" x1="-172.4858" y1="85.875" x2="-0.6855" y2="85.875" gradientTransform="matrix(5.822417e-006 -1 1 -0.001 -1.609481e-004 4.683650e-004)">
				<stop  offset="0.0196" style="stop-color:#7F3A06"/>
				<stop  offset="0.1255" style="stop-color:#8E5524;stop-opacity:0.851"/>
				<stop  offset="0.3569" style="stop-color:#AD8965;stop-opacity:0.549"/>
				<stop  offset="0.5686" style="stop-color:#C6B39A;stop-opacity:0.3137"/>
				<stop  offset="0.7529" style="stop-color:#D8D0C0;stop-opacity:0.1412"/>
				<stop  offset="0.898" style="stop-color:#E3E3D8;stop-opacity:0.0353"/>
				<stop  offset="0.9882" style="stop-color:#E7E9E0;stop-opacity:0"/>
			</linearGradient>
			<path style="fill-rule:evenodd;clip-rule:evenodd;fill:url(#SVGID_9_);" d="M6.75,53.1c4.367-10.267,10.5-19.367,18.4-27.3
				c7.934-7.933,17.033-14.083,27.3-18.45C63.083,2.85,74.217,0.6,85.85,0.6c11.634,0,22.767,2.25,33.4,6.75
				c10.267,4.367,19.366,10.517,27.3,18.45c7.934,7.934,14.084,17.034,18.45,27.3c4.5,10.633,6.75,21.767,6.75,33.4
				c0,11.634-2.25,22.767-6.75,33.4c-4.366,10.267-10.517,19.366-18.45,27.3c-7.934,7.933-17.033,14.083-27.3,18.45
				c-10.634,4.5-21.767,6.75-33.4,6.75c-11.633,0-22.766-2.25-33.399-6.75c-10.267-4.367-19.367-10.518-27.3-18.45
				c-7.9-7.934-14.033-17.033-18.4-27.3C2.25,109.267,0,98.134,0,86.5C0,74.867,2.25,63.733,6.75,53.1z"/>
			<g>
				<g>
					
						<linearGradient id="SVGID_10_" gradientUnits="userSpaceOnUse" x1="-158.4858" y1="85.9512" x2="-13.4854" y2="85.9512" gradientTransform="matrix(6.895364e-006 -1 1 -0.001 2.366505e-004 4.683650e-004)">
						<stop  offset="0" style="stop-color:#EED9C2"/>
						<stop  offset="0.0863" style="stop-color:#E5CCB5;stop-opacity:0.8745"/>
						<stop  offset="0.3176" style="stop-color:#D0AE97;stop-opacity:0.5922"/>
						<stop  offset="0.5176" style="stop-color:#C39C84;stop-opacity:0.4196"/>
						<stop  offset="0.6549" style="stop-color:#BF967E;stop-opacity:0.3569"/>
						<stop  offset="1" style="stop-color:#582D22"/>
					</linearGradient>
					<path style="fill-rule:evenodd;clip-rule:evenodd;fill:url(#SVGID_10_);" d="M34.7,34.65c6.667-6.7,14.35-11.883,23.05-15.55
						c8.967-3.8,18.367-5.7,28.2-5.7c9.833,0,19.233,1.9,28.2,5.7c8.699,3.667,16.383,8.85,23.05,15.55
						c6.7,6.667,11.883,14.35,15.55,23.05c3.8,8.967,5.7,18.367,5.7,28.2c0,9.833-1.9,19.234-5.7,28.2
						c-3.667,8.7-8.85,16.384-15.55,23.051c-14.134,14.166-31.217,21.25-51.25,21.25c-9.833,0-19.233-1.9-28.2-5.7
						c-8.7-3.667-16.383-8.851-23.05-15.55C28,130.483,22.817,122.8,19.15,114.1c-3.8-8.966-5.7-18.366-5.7-28.2
						c0-9.833,1.9-19.233,5.7-28.2C22.817,49,28,41.317,34.7,34.65z"/>
				</g>
			</g>
		</g>
		
			<use xlink:href="#FlashAICB_x2F_Layer_13_x2F__x3C_Clip_Group_0_x3E__x5F_1"  width="132.35" height="132.35" y="-132.35" transform="matrix(1 0 0 -1 19.7998 19.75)" style="overflow:visible;"/>
		<g>
			<path style="fill-rule:evenodd;clip-rule:evenodd;fill:#30144F;" d="M85.95,20.6c-18.034,0-33.434,6.383-46.2,19.15
				S20.6,67.917,20.6,85.95s6.383,33.434,19.15,46.2S67.917,151.3,85.95,151.3c18.033,0,33.434-6.383,46.2-19.149
				s19.149-28.167,19.149-46.2s-6.383-33.434-19.149-46.2C119.417,26.983,104.017,20.6,85.95,20.6z M38.6,38.55
				C44.933,32.217,52.167,27.367,60.3,24c8.167-3.4,16.717-5.1,25.65-5.1s17.483,1.7,25.649,5.1
				c8.167,3.367,15.417,8.217,21.75,14.55c6.334,6.333,11.184,13.583,14.551,21.75c3.366,8.134,5.05,16.684,5.05,25.65
				c0,8.934-1.684,17.483-5.05,25.649c-3.367,8.134-8.217,15.367-14.551,21.7c-6.333,6.333-13.583,11.184-21.75,14.55
				c-8.166,3.4-16.716,5.101-25.649,5.101s-17.483-1.7-25.65-5.101c-8.133-3.366-15.367-8.217-21.7-14.55
				c-6.333-6.3-11.2-13.533-14.6-21.7c-3.367-8.166-5.05-16.716-5.05-25.649c0-8.967,1.683-17.517,5.05-25.65
				C27.4,52.133,32.267,44.883,38.6,38.55z"/>
		</g>
		
			<use xlink:href="#FlashAICB_x2F_Layer_13_x2F__x3C_Clip_Group_0_x3E_"  width="118.9" height="118.65" y="-118.65" transform="matrix(1 0 0 -1 26.5 24.4502)" style="overflow:visible;"/>
		<g>
			<path style="fill-rule:evenodd;clip-rule:evenodd;fill:#FEF1DE;" d="M63.5,37c0-0.633,0.2-1.167,0.6-1.6
				c0.433-0.5,1-0.75,1.7-0.75h4.85c0.7,0,1.25,0.233,1.65,0.7c0.4,0.433,0.6,1,0.6,1.7V56.4c0,0.833-0.233,1.483-0.7,1.95
				c-0.467,0.467-1.083,0.7-1.85,0.7c-0.733,0-1.333-0.233-1.8-0.7c-0.5-0.467-0.75-1.117-0.75-1.95V39.35h-2
				c-0.733,0-1.316-0.25-1.75-0.75C63.683,38.167,63.5,37.633,63.5,37z"/>
			
				<linearGradient id="SVGID_11_" gradientUnits="userSpaceOnUse" x1="-59.0557" y1="68.2021" x2="-34.0807" y2="68.2021" gradientTransform="matrix(4.004004e-005 -1 1 -0.001 -1.024090e-004 4.683650e-004)">
				<stop  offset="0" style="stop-color:#4A2805"/>
				<stop  offset="0.1529" style="stop-color:#4A2805"/>
				<stop  offset="0.2471" style="stop-color:#502905"/>
				<stop  offset="0.3765" style="stop-color:#622B07"/>
				<stop  offset="0.5333" style="stop-color:#80300B"/>
				<stop  offset="0.7059" style="stop-color:#AA3510"/>
				<stop  offset="0.8902" style="stop-color:#DE3C16"/>
				<stop  offset="0.8941" style="stop-color:#E03C16"/>
				<stop  offset="1" style="stop-color:#E03C16"/>
			</linearGradient>
			<path style="fill-rule:evenodd;clip-rule:evenodd;fill:url(#SVGID_11_);" d="M65.8,38.2c-0.733,0-1.316-0.25-1.75-0.75
				c-0.367-0.434-0.55-0.967-0.55-1.6c0-0.6,0.2-1.133,0.6-1.6c0.433-0.5,1-0.75,1.7-0.75h4.85c0.7,0,1.25,0.233,1.65,0.7
				c0.4,0.433,0.6,1.017,0.6,1.75V55.3c0,0.833-0.233,1.483-0.7,1.95c-0.467,0.467-1.083,0.7-1.85,0.7c-0.733,0-1.333-0.233-1.8-0.7
				c-0.5-0.467-0.75-1.117-0.75-1.95V38.2H65.8z"/>
		</g>
		<g>
			<path style="fill-rule:evenodd;clip-rule:evenodd;fill:#FEF1DE;" d="M76.95,39.75c0-1.333,0.767-2.583,2.3-3.75
				c1.533-1.167,3.233-1.75,5.1-1.75c2.266,0,4.083,0.7,5.45,2.1c1.2,1.2,1.8,2.567,1.8,4.1c0,2.333-0.933,4.066-2.8,5.2
				c1.267,0.6,2.267,1.417,3,2.45c0.767,1.1,1.15,2.317,1.15,3.65c0,2.067-0.816,3.833-2.45,5.3c-1.667,1.467-3.7,2.2-6.1,2.2
				c-2.367,0-4.35-0.733-5.95-2.2c-1.467-1.3-2.2-2.683-2.2-4.15c0-0.633,0.283-1.183,0.85-1.65c0.533-0.433,1.117-0.65,1.75-0.65
				s1.383,0.667,2.25,2c0.833,1.333,1.95,2,3.35,2c0.899,0,1.666-0.3,2.3-0.9c0.6-0.633,0.9-1.4,0.9-2.3c0-1.633-0.95-2.6-2.851-2.9
				c-1.933-0.3-2.9-1.083-2.9-2.35c0-1.167,0.8-1.966,2.4-2.4c1.601-0.4,2.4-1.25,2.4-2.55c0-0.667-0.217-1.2-0.65-1.6
				c-0.434-0.433-1.033-0.65-1.8-0.65c-1.133,0-2.083,0.55-2.85,1.65c-0.8,1.1-1.55,1.65-2.25,1.65c-0.667,0-1.2-0.267-1.6-0.8
				C77.15,40.983,76.95,40.417,76.95,39.75z"/>
			
				<linearGradient id="SVGID_12_" gradientUnits="userSpaceOnUse" x1="-59.0845" y1="84.603" x2="-34.0845" y2="84.603" gradientTransform="matrix(4.000000e-005 -1 1 -0.001 6.127130e-005 4.683650e-004)">
				<stop  offset="0" style="stop-color:#4A2805"/>
				<stop  offset="0.1529" style="stop-color:#4A2805"/>
				<stop  offset="0.2471" style="stop-color:#502905"/>
				<stop  offset="0.3765" style="stop-color:#622B07"/>
				<stop  offset="0.5333" style="stop-color:#80300B"/>
				<stop  offset="0.7059" style="stop-color:#AA3510"/>
				<stop  offset="0.8902" style="stop-color:#DE3C16"/>
				<stop  offset="0.8941" style="stop-color:#E03C16"/>
				<stop  offset="1" style="stop-color:#E03C16"/>
			</linearGradient>
			<path style="fill-rule:evenodd;clip-rule:evenodd;fill:url(#SVGID_12_);" d="M76.95,38.6c0-1.333,0.767-2.583,2.3-3.75
				s3.233-1.75,5.1-1.75c2.266,0,4.083,0.717,5.45,2.15c1.2,1.2,1.8,2.567,1.8,4.1c0,2.3-0.933,4.033-2.8,5.2
				c1.233,0.567,2.233,1.384,3,2.45c0.767,1.1,1.15,2.3,1.15,3.6c0,2.067-0.816,3.833-2.45,5.3c-1.667,1.5-3.7,2.25-6.1,2.25
				c-2.367,0-4.35-0.733-5.95-2.2c-1.467-1.3-2.2-2.7-2.2-4.2c0-0.633,0.283-1.183,0.85-1.65c0.533-0.433,1.117-0.65,1.75-0.65
				s1.383,0.667,2.25,2c0.833,1.333,1.95,2,3.35,2c0.899,0,1.666-0.3,2.3-0.9c0.6-0.6,0.9-1.35,0.9-2.25
				c0-1.667-0.95-2.65-2.851-2.95c-1.933-0.3-2.9-1.083-2.9-2.35c0-1.167,0.8-1.95,2.4-2.35c1.601-0.433,2.4-1.283,2.4-2.55
				c0-0.667-0.217-1.217-0.65-1.65c-0.434-0.434-1.033-0.65-1.8-0.65c-1.133,0-2.083,0.567-2.85,1.7c-0.8,1.1-1.55,1.65-2.25,1.65
				c-0.667,0-1.2-0.267-1.6-0.8C77.15,39.883,76.95,39.3,76.95,38.6z"/>
		</g>
		<g>
			<path style="fill-rule:evenodd;clip-rule:evenodd;fill:#FEF1DE;" d="M111.75,35.55c0.366,0.467,0.55,0.983,0.55,1.55
				c0,0.433-0.25,1.183-0.75,2.25L103.1,56.5c-0.533,1.067-0.933,1.733-1.199,2c-0.367,0.367-0.917,0.55-1.65,0.55
				c-0.866,0-1.566-0.267-2.1-0.8c-0.5-0.5-0.75-1.033-0.75-1.6c0-0.2,0.116-0.6,0.35-1.2l8.5-16.1h-8.7
				c-0.866,0-1.517-0.25-1.95-0.75c-0.366-0.4-0.55-0.933-0.55-1.6c0-0.667,0.184-1.2,0.55-1.6c0.434-0.5,1.084-0.75,1.95-0.75h12.3
				C110.65,34.65,111.283,34.95,111.75,35.55z"/>
			
				<linearGradient id="SVGID_13_" gradientUnits="userSpaceOnUse" x1="-59.0913" y1="103.6768" x2="-34.1163" y2="103.6768" gradientTransform="matrix(4.004004e-005 -1 1 -0.001 -1.024090e-004 4.683650e-004)">
				<stop  offset="0" style="stop-color:#4A2805"/>
				<stop  offset="0.1529" style="stop-color:#4A2805"/>
				<stop  offset="0.2471" style="stop-color:#502905"/>
				<stop  offset="0.3765" style="stop-color:#622B07"/>
				<stop  offset="0.5333" style="stop-color:#80300B"/>
				<stop  offset="0.7059" style="stop-color:#AA3510"/>
				<stop  offset="0.8902" style="stop-color:#DE3C16"/>
				<stop  offset="0.8941" style="stop-color:#E03C16"/>
				<stop  offset="1" style="stop-color:#E03C16"/>
			</linearGradient>
			<path style="fill-rule:evenodd;clip-rule:evenodd;fill:url(#SVGID_13_);" d="M111.75,34.4c0.366,0.5,0.55,1.017,0.55,1.55
				c0,0.433-0.25,1.183-0.75,2.25l-8.45,17.15c-0.533,1.067-0.933,1.733-1.199,2c-0.367,0.4-0.917,0.6-1.65,0.6
				c-0.866,0-1.566-0.283-2.1-0.85c-0.5-0.5-0.75-1.033-0.75-1.6c0-0.233,0.116-0.617,0.35-1.15l8.5-16.15h-8.7
				c-0.866,0-1.517-0.25-1.95-0.75c-0.366-0.4-0.55-0.934-0.55-1.6s0.184-1.2,0.55-1.6c0.434-0.5,1.084-0.75,1.95-0.75h12.3
				C110.65,33.5,111.283,33.8,111.75,34.4z"/>
		</g>
	</g>
	<g>
		<g>
			<path style="fill-rule:evenodd;clip-rule:evenodd;fill:#F2D2A4;" d="M53.45,54.7c0.367-1,1-1.85,1.9-2.55
				c0.833-0.6,1.8-0.983,2.9-1.15c0.8-0.133,1.533-0.133,2.2,0c1.533,0.3,2.716,1.1,3.55,2.4c0.367,0.6,0.8,1.5,1.3,2.7l10.8,24.75
				l9.95-16.2c0.467-0.733,1.101-1.3,1.9-1.7c0.833-0.4,1.684-0.55,2.55-0.45l14.65,1.7l7.8-7.75l0.25-0.1
				c0.899-0.6,1.833-0.95,2.8-1.05c0.434-0.033,0.934,0,1.5,0.1c1.233,0.067,2.283,0.55,3.15,1.45c0.199,0.167,0.466,0.45,0.8,0.85
				c0.833,0.967,1.283,2.15,1.35,3.55c0,1.233-0.316,2.3-0.95,3.2c-0.133,0.3-0.333,0.55-0.6,0.75l-4.85,4.85l3.1,2.35
				c1.033,0.767,1.634,1.767,1.8,3c0.2,1.2-0.066,2.317-0.8,3.35l-0.4,0.5L120,79.5l-28.8,57.95c-0.233,0.467-0.733,1.033-1.5,1.7
				l-0.5,0.3l-1.15,0.399l-0.75,0.101H86.65L86.3,139.9l-0.8-0.2l-27-9.65c-0.933-0.333-1.683-0.899-2.25-1.7
				c-0.567-0.8-0.85-1.683-0.85-2.649l0.05-10.4l0.15-1l0.2-0.3c0.067-0.2,0.217-0.5,0.45-0.9l3.6-5.85
				c-0.267-1.233-0.2-2.566,0.2-4l0.3-1.15l1.45-2.85l0.9-1.2l0.05-0.1l0.7-0.851l0.1-0.1c1.267-1.467,2.867-2.65,4.8-3.55l0.5-0.8
				L54.15,60.1l-0.1-0.15C53.083,57.983,52.883,56.233,53.45,54.7z"/>
			
				<linearGradient id="SVGID_14_" gradientUnits="userSpaceOnUse" x1="-160.1318" y1="52.436" x2="-66.2148" y2="52.436" gradientTransform="matrix(-0.3368 -0.9416 0.9416 -0.3368 -2.618730e-004 -4.101396e-004)">
				<stop  offset="0" style="stop-color:#B1812F"/>
				<stop  offset="0.1569" style="stop-color:#C89A33"/>
				<stop  offset="0.3686" style="stop-color:#EDC13A"/>
				<stop  offset="0.9647" style="stop-color:#DEEA89"/>
			</linearGradient>
			<path style="fill-rule:evenodd;clip-rule:evenodd;fill:url(#SVGID_14_);" d="M54.9,50.95c0.9-0.633,1.867-1.017,2.9-1.15
				c0.8-0.133,1.55-0.133,2.25,0c1.5,0.3,2.684,1.1,3.55,2.4c0.433,0.733,0.867,1.633,1.3,2.7l0.25,0.7L75.7,79.65l9.95-16.2
				c0.433-0.733,1.066-1.3,1.899-1.7c0.834-0.4,1.684-0.55,2.55-0.45L104.7,63l7.8-7.75l0.25-0.1c0.9-0.6,1.85-0.95,2.85-1.05
				l1.5,0.1c1.2,0.066,2.233,0.55,3.101,1.45c0.366,0.3,0.633,0.583,0.8,0.85c0.866,0.934,1.316,2.117,1.35,3.55
				c0.067,1.134-0.233,2.2-0.899,3.2L120.85,64l-4.899,4.85l3.149,2.35c1,0.767,1.601,1.767,1.801,3
				c0.199,1.2-0.067,2.316-0.801,3.35l-0.449,0.5v0.05L92.1,133.6c-0.199,0.4-0.517,1.067-0.949,2
				c-0.434,0.834-0.851,1.45-1.25,1.851l-0.601,0.5l-1.05,0.55l-1.35,0.25h-0.7l-0.351-0.05l-0.75-0.2l-27.05-9.65
				c-0.933-0.333-1.667-0.899-2.2-1.699c-0.567-0.801-0.85-1.684-0.85-2.65v-10.4l0.2-1l0.15-0.3c0.167-0.399,0.333-0.7,0.5-0.899
				l3.6-5.851c-0.267-1.2-0.217-2.533,0.15-4l0.9-2.5l0.1-0.1L60.8,99l1.5-2.15l0.05-0.1L63,95.9l0.1-0.101
				c1.233-1.433,2.833-2.616,4.8-3.55l0.5-0.8L53.7,58.9l-0.05-0.15c-0.967-1.933-1.167-3.683-0.6-5.25
				C53.383,52.5,54,51.65,54.9,50.95z"/>
			<path style="fill-rule:evenodd;clip-rule:evenodd;fill:none;stroke:#FBFCC9;stroke-width:0.25;" d="M54.9,50.95
				c-0.9,0.7-1.517,1.55-1.85,2.55c-0.566,1.567-0.367,3.317,0.6,5.25l0.05,0.15l14.7,32.55l-0.5,0.8
				c-1.967,0.934-3.566,2.117-4.8,3.55L63,95.9l-0.65,0.85l-0.05,0.1L60.8,99l-0.2,0.45l-0.1,0.1l-0.9,2.5
				c-0.367,1.467-0.417,2.8-0.15,4l-3.6,5.851c-0.167,0.199-0.333,0.5-0.5,0.899l-0.15,0.3l-0.2,1v10.4
				c0,0.967,0.283,1.85,0.85,2.65c0.533,0.8,1.267,1.366,2.2,1.699l27.05,9.65l0.75,0.2l0.351,0.05h0.7l1.35-0.25l1.05-0.55
				l0.601-0.5c0.399-0.4,0.816-1.017,1.25-1.851c0.433-0.933,0.75-1.6,0.949-2l27.551-55.5v-0.05l0.449-0.5
				c0.733-1.033,1-2.15,0.801-3.35c-0.2-1.233-0.801-2.233-1.801-3l-3.149-2.35L120.85,64l0.601-0.75c0.666-1,0.967-2.066,0.899-3.2
				c-0.033-1.433-0.483-2.616-1.35-3.55c-0.167-0.267-0.434-0.55-0.8-0.85c-0.867-0.9-1.9-1.383-3.101-1.45l-1.5-0.1
				c-1,0.1-1.949,0.45-2.85,1.05l-0.25,0.1L104.7,63L90.1,61.3c-0.866-0.1-1.716,0.05-2.55,0.45c-0.833,0.4-1.467,0.967-1.899,1.7
				l-9.95,16.2L65.15,55.6l-0.25-0.7c-0.433-1.066-0.867-1.966-1.3-2.7c-0.867-1.3-2.05-2.1-3.55-2.4c-0.7-0.133-1.45-0.133-2.25,0
				C56.767,49.934,55.8,50.317,54.9,50.95z"/>
			<path style="fill-rule:evenodd;clip-rule:evenodd;fill:#3F1B0E;" d="M57.6,58.2l-0.55-1.1c-0.7-1.433-0.65-2.467,0.15-3.1
				l0.6-0.3l0.6-0.15c0.367-0.066,0.7-0.066,1,0c0.4,0.067,0.733,0.3,1,0.7c0.167,0.267,0.483,0.95,0.95,2.05L73.8,84.8v0.05l1.3,3
				L88.85,65.45c0.233-0.267,0.5-0.383,0.801-0.35L106.1,67l0.25-0.3l8.301-8.2c0.433-0.367,0.85-0.566,1.25-0.6l0.8,0.1h0.149
				c0.267,0,0.467,0.1,0.601,0.3l0.1,0.1c0.267,0.2,0.45,0.383,0.55,0.55c0.301,0.267,0.45,0.7,0.45,1.3c0,0.3-0.1,0.617-0.3,0.95
				l-7.4,7.35l-0.199,0.25l-0.5,0.45l0.05,0.05l6.6,4.95c0.4,0.367,0.467,0.733,0.2,1.1c-0.033,0.067-0.15,0.15-0.35,0.25
				l-29.351,59l-0.1,0.101v0.05l-0.3,0.15l-0.25,0.05H86.5l-0.1-0.05l-27.05-9.65c-0.367-0.1-0.55-0.35-0.55-0.75l0.05-10.15L59,114
				l4.7-7.6l-0.25-0.301c-0.434-0.833-0.483-1.866-0.15-3.1l0.45-1.4l0.2-0.399l1.3-2l0.1-0.101l0.6-0.75l0.1-0.1
				c1-1.2,2.5-2.2,4.5-3l1.6-2.55v-0.05l0.6-1l-4.7-9.8l-0.1-0.3L57.6,58.2z"/>
			<g>
				
					<linearGradient id="SVGID_15_" gradientUnits="userSpaceOnUse" x1="-25.3257" y1="142.4766" x2="-8.2933" y2="142.4766" gradientTransform="matrix(0.7721 -0.6356 0.6035 0.7984 -5.406141e-005 -9.220839e-005)">
					<stop  offset="0" style="stop-color:#555555"/>
					<stop  offset="1" style="stop-color:#8A8A8A"/>
				</linearGradient>
				<polygon style="fill-rule:evenodd;clip-rule:evenodd;fill:url(#SVGID_15_);" points="74.2,109.85 75.85,104.9 86.65,134.15 
					59.6,124.5 59.65,114.5 				"/>
				
					<linearGradient id="SVGID_16_" gradientUnits="userSpaceOnUse" x1="-135.9404" y1="-79.5225" x2="-109.4252" y2="-79.5225" gradientTransform="matrix(-0.9796 -0.2008 0.2472 -0.9701 -1.349747e-004 -4.506260e-004)">
					<stop  offset="0" style="stop-color:#363636"/>
					<stop  offset="0.3961" style="stop-color:#4A4A4A"/>
					<stop  offset="1" style="stop-color:#707070"/>
				</linearGradient>
				<polygon style="fill-rule:evenodd;clip-rule:evenodd;fill:url(#SVGID_16_);" points="107,67.9 116.15,74.8 86.65,134.15 
					77.85,117.95 77.05,100.85 				"/>
				
					<linearGradient id="SVGID_17_" gradientUnits="userSpaceOnUse" x1="-3.2656" y1="139.5332" x2="43.9073" y2="139.5332" gradientTransform="matrix(0.7722 -0.6354 0.6036 0.7984 1.714230e-004 8.171797e-005)">
					<stop  offset="0" style="stop-color:#D7D7D7"/>
					<stop  offset="0.9922" style="stop-color:#676767"/>
				</linearGradient>
				<path style="fill-rule:evenodd;clip-rule:evenodd;fill:url(#SVGID_17_);" d="M79.55,98.1L107,67.9l9.35,7
					c-1.466-1-3.55-2.133-6.25-3.4c-1.133-0.566-1.983-0.917-2.55-1.05l-0.5-0.05c-17.233,28.8-26.133,44.067-26.7,45.8
					c-0.533,1.733-0.617,3.366-0.25,4.899l6.55,13.051l-8.8-16.2l-0.6-13.65L79.55,98.1z"/>
				
					<linearGradient id="SVGID_18_" gradientUnits="userSpaceOnUse" x1="-76.1416" y1="-121.8447" x2="-52.4573" y2="-121.8447" gradientTransform="matrix(-0.9985 0.0538 -0.0126 -1.0008 -4.279027e-004 4.633740e-004)">
					<stop  offset="0" style="stop-color:#D7D7D7"/>
					<stop  offset="0.9922" style="stop-color:#676767"/>
				</linearGradient>
				<path style="fill-rule:evenodd;clip-rule:evenodd;fill:url(#SVGID_18_);" d="M68.5,116.85l-8.85-2.35l19.1,3l1,2.5l0.4,1.45
					c0.1,0.8-0.233,0.75-1-0.15C78.183,120.167,74.633,118.684,68.5,116.85z"/>
				
					<linearGradient id="SVGID_19_" gradientUnits="userSpaceOnUse" x1="-88.4927" y1="78.3623" x2="-40.0242" y2="78.3623" gradientTransform="matrix(-0.0531 -0.9986 1.0008 -0.0123 2.096221e-005 3.668834e-004)">
					<stop  offset="0" style="stop-color:#B7B7B7"/>
					<stop  offset="0.5843" style="stop-color:#555555"/>
				</linearGradient>
				<polygon style="fill-rule:evenodd;clip-rule:evenodd;fill:url(#SVGID_19_);" points="107,67.9 77.85,117.95 59.65,114.5 
					89.55,65.85 				"/>
				<polygon style="fill-rule:evenodd;clip-rule:evenodd;fill:#FFFFFF;" points="75.75,120.35 77.55,119.45 76.05,117.8 
					78.65,119.2 81.45,119 79.6,119.9 81.05,121.5 78.5,120.15 				"/>
			</g>
			
				<use xlink:href="#FlashAICB_x2F_Layer_13_x2F__x3C_Path_x3E_"  width="44.15" height="50.7" y="-50.7" transform="matrix(1 0 0 -1 65.3501 67.6499)" style="overflow:visible;opacity:0.6016;enable-background:new    ;"/>
			<g>
				<path style="fill-rule:evenodd;clip-rule:evenodd;fill:#595347;" d="M57.85,56.95c-0.3-0.633-0.467-1.017-0.5-1.15
					c-0.1-0.5,0.017-0.883,0.35-1.15c0.566-0.4,1.083-0.45,1.55-0.15c0.167,0.1,0.333,0.383,0.5,0.85l13.3,29.8
					c1.934,4.534,3.367,7.317,4.3,8.35c0.467,0.533,1.05,0.85,1.75,0.95c0.933,0.167,1.667,0.399,2.2,0.7
					c1.8,1.166,3.034,2.033,3.7,2.6c1.6,1.3,2.6,2.6,3,3.9c0.467,1.566,0.717,2.933,0.75,4.1c0.033,1.2-0.167,2.45-0.6,3.75
					c-0.367,1.167-0.601,2.117-0.7,2.85c-0.066,0.334-0.117,0.95-0.15,1.851c-0.033,0.566-0.133,1.017-0.3,1.35
					c-0.066,0.101-0.333,0.4-0.8,0.9c-0.601,0.6-1.267,0.217-2-1.15c-0.567-0.899-0.717-2-0.45-3.3
					c0.067-0.333,0.267-0.684,0.6-1.05c0.433-0.367,0.733-0.65,0.9-0.851c0.333-0.366,0.5-1,0.5-1.899c0-1.101-0.267-2.367-0.8-3.8
					c-0.5-1.334-1.434-2.417-2.8-3.25c-1.433-0.667-2.333-1.084-2.7-1.25c-1.2-0.567-2.167-1.384-2.9-2.45
					c-0.267-0.467-1.466-2.867-3.6-7.2c-2.233-4.6-3.784-7.867-4.65-9.8L57.85,56.95z"/>
				<path style="fill-rule:evenodd;clip-rule:evenodd;fill:#A6A097;" d="M80.2,99.15c-0.333-0.233-0.1-0.217,0.7,0.05
					c0.8,0.267,1.533,0.633,2.2,1.1c0.867,0.601,1.617,1.467,2.25,2.601c0.667,1.233,1.017,2.55,1.051,3.949
					c0.033,1.934-0.267,3.284-0.9,4.051c0-0.301,0.083-0.801,0.25-1.5c0.066-0.233,0.05-0.434-0.05-0.601
					c0.133-1.2-0.117-2.666-0.75-4.399c-0.333-0.967-0.95-1.834-1.85-2.601v-0.05C82.867,101.083,81.9,100.217,80.2,99.15z"/>
				<path style="fill-rule:evenodd;clip-rule:evenodd;fill:#A6A097;" d="M58.25,56.5l2,4.75c0.8,1.7,1.25,2.684,1.35,2.95
					c4.333,9.867,7.733,17.283,10.2,22.25c1.2,2.434,2.117,4.25,2.75,5.45c0.5,1.133,0.7,2.066,0.6,2.8
					c-3.333-6.667-5.617-11.417-6.85-14.25l-3.7-8.35c-1.2-2.733-2.4-5.483-3.6-8.25c-2.333-5.5-3.433-8.283-3.3-8.35
					C57.8,55.467,57.983,55.8,58.25,56.5z"/>
				<path style="fill-rule:evenodd;clip-rule:evenodd;fill:#333029;" d="M58.85,55.7c-0.3-0.6-0.467-1.033-0.5-1.3
					c0.2-0.1,0.5-0.117,0.9-0.05c0.2,0.033,0.35,0.15,0.45,0.35c0.233,0.333,0.466,0.783,0.7,1.35c0.133,0.333,0.317,0.8,0.55,1.4
					l12.1,27.7c1.934,4.534,3.367,7.317,4.3,8.35c0.167,0.233,0.367,0.4,0.6,0.5l-0.35,2.1c-0.267,0.4-0.517,0.617-0.75,0.65
					c-0.2,0.033-0.434-0.017-0.7-0.15l-0.7-1.25c-0.067-1.366-0.2-2.517-0.4-3.449c-0.066-0.301-1.233-2.783-3.5-7.45
					c-2.466-5.033-4.1-8.717-4.9-11.05c-0.3-0.9-0.917-2.45-1.85-4.65L58.85,55.7z"/>
				<path style="fill-rule:evenodd;clip-rule:evenodd;fill:#333029;" d="M80.5,97.35L80,98.15c-0.4,0.6-0.8,1.066-1.2,1.399
					L77.35,98.4c0.066-1.033,0.15-1.801,0.25-2.301c0.367-0.566,0.683-1.149,0.95-1.75c0.267,0.067,0.667,0.134,1.2,0.2
					c0.533,0.101,1.05,0.3,1.55,0.601c1.8,1.166,3.034,2.033,3.7,2.6c1.6,1.3,2.6,2.6,3,3.9c0.467,1.566,0.717,2.933,0.75,4.1
					c0.033,1.2-0.167,2.45-0.6,3.75c-0.367,1.167-0.601,2.117-0.7,2.85c-0.066,0.334-0.117,0.95-0.15,1.851
					c-0.033,0.566-0.133,1.017-0.3,1.35c-0.066,0.101-0.333,0.4-0.8,0.9c-0.334,0.267-0.634,0.333-0.9,0.2
					c0.2-0.5,0.217-1.017,0.05-1.551c-0.199-0.633-0.283-1.316-0.25-2.05c0-0.733,0.117-1.149,0.351-1.25l0.45-0.25
					c0.233-0.166,0.466-0.5,0.699-1c0.5-0.967,0.817-2.25,0.95-3.85c0.167-1.667-0.166-3.267-1-4.8c-0.399-0.733-1.116-1.7-2.15-2.9
					c-0.467-0.533-1.267-0.967-2.4-1.3L80.5,97.35z"/>
				<path style="fill-rule:evenodd;clip-rule:evenodd;fill:#333029;" d="M77.6,96.1l0.35-2.1l0.6,0.35
					C78.283,94.95,77.967,95.533,77.6,96.1z"/>
			</g>
			<g>
				<g>
					<g>
						<path style="fill-rule:evenodd;clip-rule:evenodd;fill:#595347;" d="M117.45,59.4l0.05,0.15c0.066,0.067,0.116,0.267,0.15,0.6
							c0,0.367-0.017,0.567-0.051,0.6C102.733,75.55,94.017,84.167,91.45,86.6c-1.5,1.4-3.884,3.483-7.15,6.25
							c-3,2.534-4.75,3.967-5.25,4.301c-0.367,0.267-1,0.583-1.9,0.949c-0.9,0.334-1.617,0.534-2.15,0.601
							c-1.2,0.066-2.25,0.184-3.15,0.35c-1.733,0.334-3.05,1-3.95,2c-1.033,1.134-1.65,2.317-1.85,3.55
							c-0.033,0.101-0.216,0.334-0.55,0.7l-0.3,0.45l-0.15,0.3c-0.2,0.2-0.466,0.033-0.8-0.5c-0.5-0.8-0.417-2.017,0.25-3.649
							c0.333-0.801,1.067-1.867,2.2-3.2c1.3-1.533,3.833-2.8,7.6-3.8c0.3-0.067,1.167-0.2,2.6-0.4c0.9-0.133,1.684-0.383,2.35-0.75
							c1.1-0.6,3.433-2.633,7-6.1L114.6,59.7c0.267-0.3,0.467-0.517,0.601-0.65c0.233-0.2,0.483-0.316,0.75-0.35
							s0.55,0.017,0.85,0.15C117.1,59.017,117.316,59.2,117.45,59.4z"/>
						<path style="fill-rule:evenodd;clip-rule:evenodd;fill:#333029;" d="M71.7,97.95c0.433-0.033,1.25,0.017,2.45,0.149
							c0.8,0.067,1.55,0,2.25-0.199c-0.667,0.433-1.133,0.699-1.4,0.8c-2,0.267-3.05,0.417-3.15,0.45
							c-1.733,0.399-3.05,1.1-3.95,2.1c-0.7,0.733-1.183,1.384-1.45,1.95c-0.167,0.366-0.3,0.833-0.4,1.399
							c-0.1,0.101-0.267,0.317-0.5,0.65c-0.2,0.333-0.367,0.566-0.5,0.7c-0.133-0.767-0.083-1.566,0.15-2.4
							c0.3-1.267,1.167-2.5,2.6-3.7C69.2,98.65,70.5,98.017,71.7,97.95z"/>
						<path style="fill-rule:evenodd;clip-rule:evenodd;fill:#333029;" d="M117.45,59.45c0.2,0.066,0.3,0.333,0.3,0.8
							c0,0.267-0.167,0.533-0.5,0.8L91.45,86.6c-2.334,2.2-5.967,5.317-10.9,9.35L76.4,97.9c1.6-1.033,4.767-3.567,9.5-7.601
							c3.899-3.3,8.716-7.883,14.449-13.75c7.367-7.533,11.967-12.183,13.801-13.95l1.8-1.75c0.467-0.533,0.833-0.917,1.1-1.15
							C117.116,59.667,117.25,59.583,117.45,59.45z"/>
						<path style="fill-rule:evenodd;clip-rule:evenodd;fill:#333029;" d="M80.55,95.95l-1.5,1.2c-0.367,0.267-1,0.583-1.9,0.949
							c-0.9,0.334-1.617,0.534-2.15,0.601c0.267-0.101,0.733-0.367,1.4-0.8L80.55,95.95z"/>
						<path style="fill-rule:evenodd;clip-rule:evenodd;fill:#A6A097;" d="M68.5,97.6c1-0.666,2.183-1.166,3.55-1.5
							c0.7-0.166,1.284-0.267,1.75-0.3l-1.65,0.65c-1.566,0.633-2.5,1.033-2.8,1.2c-1.2,0.699-2.3,1.717-3.3,3.05
							c-0.966,1.3-1.517,2.55-1.65,3.75c-0.066,0.6-0.033,1.066,0.1,1.399c-0.8-1-0.65-2.449,0.45-4.35
							C65.917,99.833,67.1,98.533,68.5,97.6z"/>
					</g>
					<g>
						<path style="fill-rule:evenodd;clip-rule:evenodd;fill:#655D51;" d="M79.1,94.95c0.2,0.133,0.217,0.417,0.05,0.85
							c-0.133,0.4-0.383,0.8-0.75,1.2c-0.333,0.367-0.7,0.6-1.1,0.7c-0.367,0.133-0.667,0.116-0.9-0.05
							c-0.2-0.134-0.25-0.483-0.15-1.051c0.067-0.533,0.183-0.883,0.35-1.05C77.4,94.617,78.233,94.417,79.1,94.95z"/>
						<path style="fill-rule:evenodd;clip-rule:evenodd;fill:#333029;" d="M78.65,95.7c0.233-0.434,0.1-0.767-0.4-1
							c0.233,0,0.517,0.083,0.85,0.25c0.2,0.133,0.217,0.417,0.05,0.85c-0.133,0.4-0.383,0.8-0.75,1.2c-0.333,0.367-0.7,0.6-1.1,0.7
							c-0.367,0.133-0.667,0.116-0.9-0.05c-0.133-0.101-0.2-0.317-0.2-0.65c0.533,0.134,1.017,0.083,1.45-0.15
							c0.267-0.133,0.233-0.333-0.1-0.6c-0.4-0.267-0.633-0.434-0.7-0.5c-0.1-0.066-0.1-0.15,0-0.25c0.133-0.1,0.367-0.116,0.7-0.05
							L78.65,95.7z"/>
						<path style="fill-rule:evenodd;clip-rule:evenodd;fill:#333029;" d="M78.95,96.55c0.566-0.733,0.8-1.25,0.7-1.55
							c-0.033-0.133-0.133-0.267-0.3-0.4L79.1,94.4l0.25-0.101c0.133-0.066,0.3-0.05,0.5,0.05c0.2,0.067,0.35,0.167,0.45,0.301
							c0.1,0.133-0.05,0.5-0.45,1.1c-0.4,0.634-0.883,1.184-1.45,1.65c-0.7,0.6-1.367,0.683-2,0.25
							c-0.066-0.067,0.033-0.051,0.3,0.05l0.6-0.3c0.353-0.26,0.627-0.484,0.825-0.676L77.85,97.05
							C78.25,97.083,78.617,96.917,78.95,96.55z"/>
					</g>
				</g>
			</g>
		</g>
		
			<use xlink:href="#FlashAICB_x2F_Layer_13_x2F__x3C_Path_x3E__x5F_0"  width="118.15" height="56.85" y="-56.85" transform="matrix(1 0 0 -1 27 86.3999)" style="overflow:visible;opacity:0.3398;enable-background:new    ;"/>
		<g>
			
				<use xlink:href="#FlashAICB_x2F_Layer_13_x2F__x3C_Path_x3E__x5F_1"  width="109.55" height="55.55" y="-55.55" transform="matrix(1 0 0 -1 31.25 27.8501)" style="overflow:visible;opacity:0.1992;enable-background:new    ;"/>
			
				<use xlink:href="#FlashAICB_x2F_Layer_13_x2F__x3C_Path_x3E__x5F_2"  width="109.55" height="61.044" y="-61.044" transform="matrix(1 0 0 -1 31.25 27.8501)" style="overflow:visible;opacity:0.1211;enable-background:new    ;"/>
		</g>
	</g>
</g>
</svg>
