<?xml version="1.0" encoding="iso-8859-1"?>
<!-- Generator: Adobe Illustrator 15.1.0, SVG Export Plug-In . SVG Version: 6.00 Build 0)  -->
<!DOCTYPE svg PUBLIC "-//W3C//DTD SVG 1.1//EN" "http://www.w3.org/Graphics/SVG/1.1/DTD/svg11.dtd">
<svg version="1.1" id="Layer_1" xmlns="http://www.w3.org/2000/svg" xmlns:xlink="http://www.w3.org/1999/xlink" x="0px" y="0px"
	 width="171.85px" height="172.3px" viewBox="0 0 171.85 172.3" style="enable-background:new 0 0 171.85 172.3;"
	 xml:space="preserve">
<symbol  id="FlashAICB_x2F_Layer_1_x2F__x3C_Clip_Group_0_x3E_" viewBox="0 -66.1 95.2 66.1">
	<g id="Layer_1_6_">
	</g>
	<g>
		<defs>
			<polygon id="SVGID_1_" points="82.55,0 0,-39.85 12.65,-66.1 95.2,-26.25 			"/>
		</defs>
		<clipPath id="SVGID_2_">
			<use xlink:href="#SVGID_1_"  style="overflow:visible;"/>
		</clipPath>
		<g id="Layer_3_2_" style="clip-path:url(#SVGID_2_);">
			
				<use xlink:href="#FlashAICB_x2F_Layer_1_x2F__x3C_Clip_Group_0_x3E__x5F_0"  width="55.9" height="39.2" y="-39.2" transform="matrix(1 0 0 1 38.3501 -8.3501)" style="overflow:visible;"/>
			<path style="fill-rule:evenodd;clip-rule:evenodd;fill:#808080;" d="M42.15-30.85l0.05-0.1c0.066-0.1,0.017-0.233-0.15-0.4v0.05
				l-0.1,0.15c-0.133,0.333-0.483,0.383-1.05,0.15c-0.533-0.267-0.767-0.55-0.7-0.85l-0.3,0.4c-0.066,0.133,0.017,0.284,0.25,0.45
				l0.05,0.05l0.2,0.05l0.2,0.2l1.05,0.25C41.883-30.483,42.05-30.617,42.15-30.85z M43.75-36.65l-11.4-1.3l-3.2,0.3
				c-0.633,0.1-1.233,0.3-1.8,0.6c-0.7,0.333-1.333,0.683-1.9,1.05l-1.7,1.05l-2.2,0.9L23.2-34c0.667-0.067,1.267-0.183,1.8-0.35
				l5.3-2.3l1.6-0.25l1.4,0.3l11.75,4.25c0.2-0.733,0.284-1.433,0.25-2.1l-0.3-1.5C44.867-36.317,44.45-36.55,43.75-36.65z
				 M15.15-35.5c0.3-0.067,0.867-0.067,1.7,0l1.35,0.25l0.125,0.05c-0.043-0.033-0.085-0.1-0.125-0.2
				c-0.367-0.867-0.55-1.983-0.55-3.35l0.05-0.45l-0.05-0.5l0.1-0.7l-0.15-2.05l0.25,1.15c0.333,1.933,0.566,3.133,0.7,3.6
				c0.3,0.767,0.55,1.3,0.75,1.6l0.75,0.95l1.25,1c-0.633-0.7-0.65-1.583-0.05-2.65c0.3-0.167,0.867-0.45,1.7-0.85
				c0.233-0.033,0.9-0.283,2-0.75c1.033-0.467,1.65-0.8,1.85-1c0.2-0.267,0.417-0.617,0.65-1.05l0.3-1.15l-0.5-13.1l-11.5,2.9
				l-0.05-0.05l-8.75,2.3l0.5,6.5c0.3,4.233,0.533,6.45,0.7,6.65c0.067,0.233,0.184,0.417,0.35,0.55l0.1,0.1
				c0.033,0.1,0.15,0.167,0.35,0.2c0.2,0.033,0.466,0.167,0.8,0.4c0.3,0.133,0.883,0.217,1.75,0.25L15.15-35.5z"/>
			<path style="fill-rule:evenodd;clip-rule:evenodd;fill:#858585;" d="M11.5-34.9c0.433,0,0.767,0.017,1,0.05l2.95,0.15l0.5-0.15
				l2,0.1c0.3,1.1,0.7,1.95,1.2,2.55c0.4,0.467,1.1,0.75,2.1,0.85l1.15,0.15l1.4-0.2l1-0.45c-0.4,0.167-0.867,0.217-1.4,0.15
				c-0.566,0-1.183-0.083-1.85-0.25c-1-0.233-1.683-0.6-2.05-1.1c-0.367-0.367-0.667-0.833-0.9-1.4l-0.2-0.7l-0.2-0.1l-1.35-0.25
				c-0.833-0.067-1.4-0.067-1.7,0L11.5-34.9z M21.75-35.65c0.267-0.667,1.4-1.3,3.4-1.9c2.033-0.633,3.217-1.4,3.55-2.3
				c0.267-0.833,0.233-2.433-0.1-4.8c0-1.233-0.15-3.15-0.45-5.75c-0.033-0.3-0.033-0.767,0-1.4c0-0.633-0.05-1.117-0.15-1.45
				c-0.2-0.533-0.3-1.45-0.3-2.75c-0.2-0.767-0.3-1.4-0.3-1.9l-0.15,3.2l0.5,13.1l-0.3,1.15c-0.233,0.434-0.45,0.784-0.65,1.05
				c-0.2,0.2-0.816,0.533-1.85,1c-1.1,0.467-1.767,0.717-2,0.75l-1.7,0.85c-0.6,1.066-0.583,1.95,0.05,2.65l0.25,0.1l0.4-0.15
				C21.717-34.8,21.65-35.283,21.75-35.65z"/>
			<linearGradient id="SVGID_3_" gradientUnits="userSpaceOnUse" x1="6.8379" y1="-44.375" x2="45.05" y2="-44.375">
				<stop  offset="0.0235" style="stop-color:#808080"/>
				<stop  offset="0.7294" style="stop-color:#E6E6E6"/>
				<stop  offset="1" style="stop-color:#B3B3B3"/>
			</linearGradient>
			<path style="fill-rule:evenodd;clip-rule:evenodd;fill:url(#SVGID_3_);" d="M45.05-32.35L33.3-36.6l-1.4-0.3l-1.6,0.25l-5.3,2.3
				c-0.533,0.167-1.133,0.283-1.8,0.35l-1.65-0.05l-0.25-0.1l-1.25-1L19.3-36.1c-0.2-0.3-0.45-0.833-0.75-1.6
				c-0.167-0.566-0.383-1.767-0.65-3.6l-0.3-1.15l0.15,2.05l-0.1,0.7l0.05,0.5l-0.05,0.45c0,1.233,0.184,2.35,0.55,3.35
				c0.066,0.167,0.133,0.25,0.2,0.25l0.2,0.7c0.2,0.467,0.5,0.934,0.9,1.4c0.367,0.5,1.05,0.867,2.05,1.1
				c0.667,0.167,1.284,0.25,1.85,0.25c0.533,0.067,1,0.017,1.4-0.15l0.15-0.05c1.333-0.367,2.216-0.75,2.65-1.15l0.15-0.05
				c0.5-0.467,1.1-0.717,1.8-0.75c0.733,0,1.383,0.067,1.95,0.2l2.05,0.35l6.85,3c1.367,0.667,2.417,0.667,3.15,0
				C44.283-31.033,44.783-31.717,45.05-32.35z M40.6-30.7l-0.2-0.2l-0.2-0.05L40.15-31c-0.233-0.167-0.316-0.317-0.25-0.45l0.3-0.4
				c0.267-0.066,0.517-0.083,0.75-0.05l0.75,0.3l0.35,0.25c0.167,0.167,0.217,0.3,0.15,0.4l-0.05,0.1
				c-0.1,0.233-0.267,0.367-0.5,0.4L40.6-30.7z M27.4-58.95L6.85-54c-0.033,1.467,0,2.95,0.1,4.45l8.75-2.3l0.05,0.05l11.5-2.9
				L27.4-58.95z"/>
			<path style="fill-rule:evenodd;clip-rule:evenodd;fill:#323232;" d="M40.95-31.9c-0.233-0.033-0.483-0.017-0.75,0.05
				c-0.067,0.3,0.167,0.583,0.7,0.85c0.567,0.233,0.917,0.183,1.05-0.15l0.1-0.15v-0.05L41.7-31.6L40.95-31.9z"/>
		</g>
	</g>
	<g id="Layer_4_2_">
	</g>
</symbol>
<symbol  id="FlashAICB_x2F_Layer_1_x2F__x3C_Clip_Group_0_x3E__x5F_0" viewBox="0 -39.2 55.9 39.2">
	<g id="Layer_1_2_">
	</g>
	<g>
		<defs>
			<polygon id="SVGID_4_" points="48.2,0 0,-23.25 7.65,-39.2 55.9,-15.9 			"/>
		</defs>
		<clipPath id="SVGID_5_">
			<use xlink:href="#SVGID_4_"  style="overflow:visible;"/>
		</clipPath>
		<g id="Layer_3_1_" style="clip-path:url(#SVGID_5_);">
			<path style="fill-rule:evenodd;clip-rule:evenodd;fill:#AD653E;" d="M53.3-10.55l0.05-0.1c0.3-0.567,0.5-1.117,0.6-1.65
				c-1.4-0.333-2.55-0.9-3.45-1.7c-1.133-1.033-2.75-1.35-4.85-0.95c-3.233,0.3-5.033,0.4-5.4,0.3c-1.233-0.2-2.483-0.883-3.75-2.05
				c-1.367-0.833-2.733-1.25-4.1-1.25l-4.95-0.15c-1.867-0.1-2.95-0.316-3.25-0.65c-3.233-1.6-7.25-2.983-12.05-4.15L6.2-24.15
				c-1.233-0.2-2.184-0.4-2.85-0.6l-0.65-0.2L2.6-24.9c-1.3,1-2.167,1.55-2.6,1.65c0.6,0.233,1.55,0.517,2.85,0.85l1.95,0.7
				C9.6-20.133,24.667-15.567,50-8l0.4-0.1c1.067-0.167,1.967-0.833,2.7-2c-0.733,0.367-1.5,0.533-2.3,0.5
				c-0.966-0.066-2.033-0.25-3.2-0.55l-4.65-0.8c-0.534-0.1-1.35-0.4-2.45-0.9l-0.8-0.4c-0.6-0.3-1.317-0.75-2.15-1.35l-1.8-1.1
				l-1.15-0.5l-2.95-0.5c-1.367-0.133-2.583-0.3-3.65-0.5c-0.367-0.133-0.983-0.267-1.85-0.4l-1.6-0.25l-4.1-1.55l10,2.15l2.4-0.1
				c1.533-0.033,2.633,0.1,3.3,0.4c0.633,0.333,1.667,1,3.1,2l0.85,0.45c1.1,0.533,3.1,0.95,6,1.25c2.733,0.3,4.367,0.533,4.9,0.7
				l2.1,0.95L53.3-10.55z M52.1-17.75L4.75-27.9c-0.233,0.033-0.267,0.083-0.1,0.15L4.4-26.9l16.25,3.1
				c11,2.333,22.067,5.333,33.2,9l-0.3-0.8C53.083-16.533,52.6-17.25,52.1-17.75z M20.5-19.7c-0.9-0.333-2.267-0.55-4.1-0.65
				c-1.867-0.133-3.3-0.316-4.3-0.55l-5.65-1.55c-0.233-0.033-0.517-0.1-0.85-0.2l0.45-0.8L9-23.05c0.6,0.033,1.783,0.367,3.55,1
				l7.8,2.25L20.5-19.7z"/>
			<path style="fill-rule:evenodd;clip-rule:evenodd;fill:#754228;" d="M53.1-10.1l0.2-0.45l-0.2-0.05L51-11.55
				c-0.533-0.167-2.167-0.4-4.9-0.7c-2.9-0.3-4.9-0.717-6-1.25l-0.85-0.45c-1.433-1-2.467-1.667-3.1-2
				c-0.667-0.3-1.767-0.433-3.3-0.4l-2.4,0.1l-10-2.15l4.1,1.55l1.6,0.25c0.867,0.133,1.483,0.267,1.85,0.4
				c1.067,0.2,2.283,0.367,3.65,0.5l2.95,0.5l1.15,0.5l1.8,1.1c0.833,0.6,1.55,1.05,2.15,1.35l0.8,0.4c1.1,0.5,1.917,0.8,2.45,0.9
				l4.65,0.8c1.167,0.3,2.233,0.483,3.2,0.55C51.6-9.567,52.367-9.733,53.1-10.1z M50.5-14c0.9,0.8,2.05,1.367,3.45,1.7
				c0.133-0.767,0.1-1.6-0.1-2.5c-11.133-3.667-22.2-6.667-33.2-9L4.4-26.9l-1.55,1.75l-0.15,0.2l0.65,0.2
				c0.667,0.2,1.617,0.4,2.85,0.6l5.95,1.25c4.8,1.167,8.817,2.55,12.05,4.15c0.3,0.333,1.383,0.55,3.25,0.65l4.95,0.15
				c1.367,0,2.733,0.417,4.1,1.25c1.267,1.167,2.517,1.85,3.75,2.05c0.5,0.133,2.3,0.033,5.4-0.3C47.75-15.35,49.367-15.033,50.5-14
				z M20.35-19.8l-7.8-2.25c-1.767-0.633-2.95-0.967-3.55-1l-2.95-0.4l-0.45,0.8c0.333,0.1,0.617,0.167,0.85,0.2l0.8,0.3l4.85,1.25
				c1,0.233,2.433,0.417,4.3,0.55c1.833,0.1,3.2,0.317,4.1,0.65L20.35-19.8z"/>
		</g>
	</g>
	<g id="Layer_4_1_">
	</g>
</symbol>
<symbol  id="FlashAICB_x2F_Layer_1_x2F__x3C_Path_x3E_" viewBox="0 -61.044 109.55 61.044">
	<g id="Layer_1_4_">
		<path style="fill-rule:evenodd;clip-rule:evenodd;fill:#FFFFFF;" d="M106.05-34.2c2.333-5.6,3.5-10.883,3.5-15.85
			c0-4.934-1.433-8.05-4.3-9.35c-2.333-1.033-6.25-1.017-11.75,0.05c-7.233,1.733-13.033,3.067-17.4,4
			c-7.967,1.7-15.067,2.55-21.3,2.55c-6.3,0-13.4-0.917-21.3-2.75c-8.333-2.2-14.15-3.667-17.45-4.4
			c-5.5-1.267-9.417-1.433-11.75-0.5C1.433-59.283,0-56.233,0-51.3c0,5.466,1.167,11.1,3.5,16.9
			c2.467,6.167,5.933,11.717,10.4,16.65C24.567-5.917,38.2,0,54.8,0c16.367,0,29.967-5.967,40.8-17.9
			C100.067-22.8,103.55-28.233,106.05-34.2z"/>
	</g>
</symbol>
<symbol  id="FlashAICB_x2F_Layer_1_x2F__x3C_Path_x3E__x5F_0" viewBox="0 -56.8 118.15 56.8">
	<g id="Layer_1_5_">
		
			<radialGradient id="SVGID_6_" cx="59.0752" cy="-28.3999" r="46.3487" gradientTransform="matrix(1 0 0 -1 0 -56.7998)" gradientUnits="userSpaceOnUse">
			<stop  offset="0" style="stop-color:#C5EEE7;stop-opacity:0"/>
			<stop  offset="0.0627" style="stop-color:#C0ECDE;stop-opacity:0.0431"/>
			<stop  offset="0.1686" style="stop-color:#B1E7C4;stop-opacity:0.1686"/>
			<stop  offset="0.3059" style="stop-color:#99DF9B;stop-opacity:0.3725"/>
			<stop  offset="0.4706" style="stop-color:#77D367;stop-opacity:0.651"/>
			<stop  offset="0.651" style="stop-color:#49C540"/>
		</radialGradient>
		<path style="fill-rule:evenodd;clip-rule:evenodd;fill:url(#SVGID_6_);" d="M95.1-30.15c10.667,7.633,18.183,17.6,22.55,29.9
			l0.5,0.25c-0.566-15.833-6.566-29.25-18-40.25C88.683-51.283,74.983-56.8,59.05-56.8c-15.667,0-29.183,5.333-40.55,16
			C7.167-30.167,1-17.133,0-1.7c4.6-11.933,12.15-21.566,22.65-28.9c10.767-7.5,22.733-11.25,35.9-11.25
			C72.017-41.85,84.2-37.95,95.1-30.15z"/>
	</g>
</symbol>
<symbol  id="FlashAICB_x2F_Layer_1_x2F__x3C_Path_x3E__x5F_1" viewBox="0 -55.55 109.55 55.55">
	<g id="Layer_1_3_">
		
			<linearGradient id="SVGID_7_" gradientUnits="userSpaceOnUse" x1="16164.5576" y1="-52.6299" x2="16220.0527" y2="-52.6299" gradientTransform="matrix(1.800991e-005 1 -1 -0.001 1.854 -16220.1055)">
			<stop  offset="0.1294" style="stop-color:#E8B8B3"/>
			<stop  offset="0.9255" style="stop-color:#FFFFFF"/>
		</linearGradient>
		<path style="fill-rule:evenodd;clip-rule:evenodd;fill:url(#SVGID_7_);" d="M95.6-17.9c4.467-4.9,7.95-10.333,10.45-16.3
			c2.333-5.6,3.5-10.883,3.5-15.85c0-1.567-0.167-3.05-0.5-4.45c-1.833,11-7.2,20.783-16.1,29.35C82.45-15.05,69.733-10,54.8-10
			c-15.2,0-27.983-5.033-38.35-15.1c-8.967-8.7-14.3-18.85-16-30.45C0.15-54.35,0-52.933,0-51.3c0,5.466,1.167,11.1,3.5,16.9
			c2.467,6.167,5.933,11.717,10.4,16.65C24.567-5.917,38.2,0,54.8,0C71.167,0,84.767-5.967,95.6-17.9z"/>
	</g>
</symbol>
<g>
	<g>
		<path style="fill-rule:evenodd;clip-rule:evenodd;fill:#E29D61;" d="M104.9,35.2v-5.05c0.199-18.566,0.3-27.883,0.3-27.95
			c1.633,0.367,3.166,0.767,4.6,1.2L109.4,30.15c-0.034,4.867-0.051,12.167-0.051,21.9c-0.033,8.6-0.217,15.934-0.55,22l-0.35,4.9
			c-0.033,0.533-0.217,2.283-0.55,5.25c-0.233,2.1-0.268,3.816-0.101,5.149c0,2.834,0.15,6.417,0.45,10.75l0.3,3.601
			c1.267,8.2,1.65,18.8,1.15,31.8c-0.7,18.066-1.017,28.717-0.95,31.95l-0.05,1.2l-2.851,0.699l0.101-3.3
			c1.399-14.3,2.183-23.767,2.35-28.399c0.4-10.634-0.3-20-2.1-28.101c-0.334-1.467-0.767-3.017-1.3-4.649
			c-0.467-1.667-0.967-3.25-1.5-4.75c-0.733-2-0.667-4.717,0.199-8.15c1.033-4.1,1.5-6.9,1.4-8.4c0.167-1.6,0.267-3.2,0.3-4.8
			c0.4-5.667,0.467-12.883,0.2-21.65C105.1,44.783,104.9,37.467,104.9,35.2z"/>
		<path style="fill-rule:evenodd;clip-rule:evenodd;fill:#E29D61;" d="M5.85,105.75c0.1,3.8,0.15,7.616,0.15,11.45l-0.3-0.8
			c0.2-4.233,0.216-7.684,0.05-10.351l0.1-4.55c0.034-1.318,0.076-2.61,0.125-3.875L5.85,105.75z"/>
		<path style="fill-rule:evenodd;clip-rule:evenodd;fill:#E29D61;" d="M44.95,60.35c1.133,4.9,1.866,9.283,2.2,13.15
			C46.783,70.7,46.05,66.317,44.95,60.35z"/>
		<path style="fill-rule:evenodd;clip-rule:evenodd;fill:#E29D61;" d="M100.2,1.2c0.066,7.1,0.233,13.733,0.5,19.9l0.25,16.6
			c0,4.466,0.033,11.05,0.1,19.75c-0.066,7.566-0.366,14.183-0.899,19.85l-0.301,5.2c-0.5,8.366-0.75,12.733-0.75,13.1
			c-0.033,1.5-0.033,2.983,0,4.45c0.533,1.233,1.033,2.566,1.5,4c0.667,1.667,1.217,3.25,1.65,4.75c0.434,1.434,0.85,3.033,1.25,4.8
			c1.033,6.634,1.217,14.167,0.55,22.601c-0.434,5.033-1.467,12.633-3.1,22.8c-0.567,3.2-0.417,6.167,0.45,8.9l0.449,2.3l-1,0.2
			c-0.433-2.367-0.717-4.634-0.85-6.801c-0.134-2-0.2-3.5-0.2-4.5l1.2-7.1c1.7-10.333,2.633-17.967,2.8-22.9
			c0.3-8.8-0.899-16.333-3.6-22.6c-0.533-1.7-1.134-3.467-1.8-5.3c-0.268-1.3-0.483-2.75-0.65-4.351
			c-0.434-4.699-0.05-9.233,1.15-13.6l0.399-4.8C99.9,65.783,99.983,51.9,99.55,36.8L99.15,14.75c-0.2-3.833-0.334-8.433-0.4-13.8
			L100.2,1.2z"/>
		<path style="fill-rule:evenodd;clip-rule:evenodd;fill:#E29D61;" d="M114.8,47.8l0.101-3.35c0.166-8.833,0.283-21.934,0.35-39.3
			l1.35,0.5c0,1.133-0.133,7.917-0.399,20.35c-0.167,8.233-0.167,15.033,0,20.4l-0.05,4.05c-0.101,7.533-0.4,14.35-0.9,20.45
			l-0.65,9.25c-0.666,11.133-1.033,26.117-1.1,44.95c-0.3-11.066-0.217-20.233,0.25-27.5l0.1-3.699
			c0.101-6.534,0.317-12.65,0.65-18.351l0.25-10.4C114.684,58.75,114.7,52.967,114.8,47.8z"/>
		<path style="fill-rule:evenodd;clip-rule:evenodd;fill:#E29D61;" d="M110.6,30.15L111,3.7l3.3,1.1L114.25,7
			c0.167,3.967,0.133,9.417-0.1,16.35c-0.268,8.066-0.384,13.566-0.351,16.5l-0.05,5.45c-0.1,6.367-0.167,10-0.2,10.9l-0.1,5.45
			c-0.167,4.6-0.367,9.117-0.601,13.55l-0.25,4.55c-0.399,4.7-0.566,10.15-0.5,16.35l0.051,3.301c0.033,7.133,0.3,17.85,0.8,32.149
			c0.3,12.867,0.05,23.667-0.75,32.4l-0.25,3.399v0.351l-2.55,0.75v-1.5c0.933-15.033,1.466-25.934,1.6-32.7
			c0.233-12.2-0.233-23.033-1.4-32.5l-0.25-3.25c-0.366-5.866-0.416-11.3-0.149-16.3l0.35-5.25
			C110.717,58.75,111.066,43.15,110.6,30.15z"/>
		<path style="fill-rule:evenodd;clip-rule:evenodd;fill:#E29D61;" d="M98.15,0.85l0.25,35.3c0.133,16.267-0.034,29.45-0.5,39.55
			L97.1,84.45c-0.566,4.2-0.616,8.583-0.149,13.149l1.7,9.101c1.933,8.467,3.017,15.934,3.25,22.399
			c0.3,8.267-0.667,15.767-2.9,22.5c-0.367,1.101-0.583,2.567-0.65,4.4v4.2c0,1.434,0.067,2.733,0.2,3.899
			c0.2,2.167,0.55,4.334,1.05,6.5l-0.75,0.15c-0.366-2.7-0.633-5.6-0.8-8.7l0.601-12.85c0.833-8.967,1.25-16.066,1.25-21.3
			c0-7.801-0.75-14.817-2.25-21.051L96.4,101.7c-0.268-1.2-0.467-2.334-0.601-3.4c-0.533-3.767-0.6-7.283-0.2-10.55
			c0.067-1.833,0.117-3.217,0.15-4.15l0.6-9.65c0.567-8.733,0.733-19.617,0.5-32.65l-0.1-4.45c-0.367-12.333-0.767-22.65-1.2-30.95
			l-0.2-5.4L98.15,0.85z"/>
		<path style="fill-rule:evenodd;clip-rule:evenodd;fill:#E29D61;" d="M101.9,32.4l-0.051-11.2c-0.066-7.3-0.05-13.867,0.051-19.7
			l1.199,0.2c-0.166,9.033-0.05,17.15,0.351,24.35l0.1,5.85c0.134,5.434,0.367,13.517,0.7,24.25c0.066,9.2-0.5,17.1-1.7,23.7
			L102.1,85c-0.233,1.733-0.383,3.483-0.449,5.25c0.199,3.033,0.649,6.583,1.35,10.65l2.15,10c1.533,8.066,1.966,17.633,1.3,28.699
			c-0.4,6.334-1.233,15.834-2.5,28.5l0.05,1.7h-0.1l-0.15-2c-0.367-1.233-0.533-2.7-0.5-4.399c0.1-1.967,0.15-3.434,0.15-4.4
			c1.232-10.467,2.017-18.316,2.35-23.55c0.6-8.967,0.217-16.717-1.15-23.25c-0.433-1.634-0.883-3.167-1.35-4.601
			c-0.333-1.133-0.934-2.8-1.8-5c-0.434-1.5-0.733-3.3-0.9-5.399c-0.033-0.434-0.116-2.25-0.25-5.45c0-1.1,0.05-2.233,0.15-3.4
			c0.033-0.733,0.149-1.866,0.35-3.399l0.3-4.6c1.101-6.133,1.533-14.05,1.301-23.75C102.033,42.233,101.866,34.167,101.9,32.4z"/>
		<path style="fill-rule:evenodd;clip-rule:evenodd;fill:#E29D61;" d="M92.8,45.95V0.3L95,0.45c0,14.5,0.15,27.216,0.45,38.15
			l0.1,4.6c0.167,3.6,0.417,8.917,0.75,15.95c0.167,5.967-0.05,11.217-0.649,15.75L94.7,87.75c-0.434,3.667-0.434,7.467,0,11.4
			l1.55,8.75c1.5,5.933,2.3,12.517,2.4,19.75c0.1,5.8-0.268,12.533-1.101,20.199l-1.2,11.551v3.199
			c0.101,2.634,0.384,5.417,0.851,8.351l-1.601,0.2c-0.733-3.267-1.25-6.267-1.55-9l-0.35-3.4c-0.167-2.233-0.351-5.517-0.55-9.85
			L93,144c-0.367-4.8-0.55-10.566-0.55-17.3c0.133-7.667,0.2-13.351,0.2-17.05l-0.2-5.601c-0.267-5.934-0.4-11.566-0.4-16.899
			l0.5-16.95C92.616,57.467,92.7,49.383,92.8,45.95z"/>
		<path style="fill-rule:evenodd;clip-rule:evenodd;fill:#E29D61;" d="M117.15,27.65c0.267-9.633,0.416-16.833,0.449-21.6l4.95,2.15
			c0,2.233-0.133,9.333-0.399,21.3c-0.2,8.667-0.233,15.8-0.101,21.4L122,55.5c0,0.033-0.05,4.75-0.15,14.15l-0.1,4.75
			c0.066,1.5,0.066,3,0,4.5l-0.2,4.5c-0.633,8.534-1.633,21.167-3,37.9c-0.767,14.334-0.417,27.05,1.05,38.15
			c0.134,1.6,0.033,3.45-0.3,5.55l-4.45,1.7l0.351-4.3c0.133-6.767,0.316-20.25,0.55-40.45c0.167-16.867,0.383-30.384,0.65-40.55
			l0.55-7.9c0.233-4.367,0.35-10.883,0.35-19.55l-0.05-4.7C117.017,43.483,116.983,36.283,117.15,27.65z"/>
		<path style="fill-rule:evenodd;clip-rule:evenodd;fill:#E29D61;" d="M76.85,0.5v16.85c0.233,17.7,0.183,37.45-0.15,59.25
			c-0.233,13.766-0.684,33.5-1.35,59.2c-0.067,2.233-0.05,4.25,0.05,6.05l0.4,10.7c0.134,2.033,0.333,5.101,0.6,9.2
			c0.2,3.634,0.333,6.717,0.4,9.25l0.05,0.2l-4.2-0.5c-0.066-2.867-0.233-6.283-0.5-10.25c-0.3-4.566-0.533-8-0.7-10.3l-0.4-11.851
			c0-18.833,0.25-43.899,0.75-75.2l0.2-3.2c0.4-4,0.6-8.483,0.6-13.45c-0.034-2.7-0.15-7.167-0.35-13.4l0.2-16.6
			c0-2-0.067-3.883-0.2-5.65V1.1L76.85,0.5z"/>
		<polygon style="fill-rule:evenodd;clip-rule:evenodd;fill:#E29D61;" points="36.85,156.25 37.1,152.8 37.05,156.35 		"/>
		<path style="fill-rule:evenodd;clip-rule:evenodd;fill:#E29D61;" d="M71.05,1.3v13c-0.133,5.733-0.167,16.35-0.1,31.85
			c0.1,13.5-0.034,24.133-0.4,31.9c-0.3,11.066-0.483,27.816-0.55,50.25V140.4c0,1.966,0.033,3.449,0.1,4.449l0.3,5.551
			c0.233,5.433,0.617,11.267,1.15,17.5l0.15,2.6l-2.85-0.5c0.033-2.4-0.017-5.233-0.15-8.5c-0.167-3.767-0.3-6.65-0.4-8.65
			l-0.75-15.25c-0.667-14.366-0.65-35.183,0.05-62.45c0.767-28.1,0.883-48.867,0.35-62.3L67.6,8.5c-0.067-1.6-0.05-3.05,0.05-4.35
			l0.3-2.25L71.05,1.3z"/>
		<path style="fill-rule:evenodd;clip-rule:evenodd;fill:#E29D61;" d="M83.25,0.05l0.05,26.2c0.167,6.333,0.25,15.767,0.25,28.3
			c0,12.567,0.083,22.034,0.25,28.4c0,3.167-0.35,11.934-1.05,26.3c-0.533,10.667-0.483,19.45,0.15,26.35l0.05,5
			c0,3.334-0.05,6.65-0.15,9.95v21.101l-1.3-0.051c0.1-6.033,0.066-12.517-0.1-19.449L80.95,138.1c-0.034-8.633,0.216-28,0.75-58.1
			c0.433-24.133,0.433-43.566,0-58.3L81.65,0.1L83.25,0.05z"/>
		<path style="fill-rule:evenodd;clip-rule:evenodd;fill:#E29D61;" d="M80.75,0.15L80.8,20.9c0.034,25.5-0.017,45.117-0.15,58.85
			c-0.233,21.6-0.716,41.217-1.45,58.85l0.1,4.5c0.134,2.067,0.267,3.584,0.4,4.551l0.35,4.649c0.434,5.634,0.583,10.267,0.45,13.9
			l-0.1,5.3l-2.4-0.15L76.95,158.2c-0.067-3.066-0.167-5.117-0.3-6.15l-0.1-4.649c-0.066-2.233-0.116-3.9-0.15-5l0.2-5
			c0.633-26.467,1.066-46.317,1.3-59.55c0.4-23,0.417-42.867,0.05-59.6L77.9,0.4L80.75,0.15z"/>
		<path style="fill-rule:evenodd;clip-rule:evenodd;fill:#E29D61;" d="M84.2,24.05v-24L85.95,0c1.267,0,3.133,0.067,5.6,0.2v52.55
			c0.101,3.533,0.083,6.833-0.05,9.9l-0.1,5c-0.067,4.233-0.184,10.617-0.351,19.15L91,90.65c-0.134,3.3-0.15,6.85-0.05,10.649
			c0,1.767,0.05,3.55,0.149,5.351l-0.05,4.8c-0.167,4.366-0.116,9.899,0.15,16.6c0.366,9.066,0.566,14.601,0.6,16.601l0.05,4.75
			c0,4.166-0.033,7.283-0.1,9.35l0.4,3.25c0.267,2.333,0.767,5.45,1.5,9.35c-2.367,0.233-4.934,0.351-7.7,0.351l-2.35-0.05
			c0.2-6.134,0.35-12.284,0.45-18.45l0.05-15c-0.633-13.601-0.717-32.601-0.25-57C84.383,54.567,84.5,35.517,84.2,24.05z"/>
		<path style="fill-rule:evenodd;clip-rule:evenodd;fill:#E29D61;" d="M52.6,123.15c0.133,0.899,0.466,2.883,1,5.949
			c0.466,2.5,0.75,4.534,0.85,6.101C53.483,131.233,52.867,127.217,52.6,123.15z"/>
		<path style="fill-rule:evenodd;clip-rule:evenodd;fill:#E29D61;" d="M162.45,48.9v-2c1.267,2.5,2.483,5.2,3.649,8.1
			c0.167,2.5,0.45,5.3,0.851,8.4v5.7c0.3,8,0.5,15.95,0.6,23.85l0.05,19.55c-0.666,2.1-1.449,4.233-2.35,6.4l-0.1-22.801
			c-0.334-10.233-0.567-17.816-0.7-22.75V67.9l-0.9-4.8c-0.3-1.333-0.533-2.967-0.7-4.9c-0.1-2.1-0.183-3.633-0.25-4.6
			C162.5,52,162.45,50.434,162.45,48.9z"/>
		<path style="fill-rule:evenodd;clip-rule:evenodd;fill:#E29D61;" d="M155.45,35.5c1.566,2.167,2.866,4.1,3.899,5.8l-0.1,2.3
			c-0.066,2.267-0.083,3.95-0.05,5.05c0.1,3.567,0.533,8.617,1.3,15.15c0.866,7.134,1.383,12.284,1.55,15.45l0.75,45
			c-1.8,3.467-3.649,6.6-5.55,9.4c0-3.434,0.15-9.983,0.45-19.65l0.2-18c-0.034-1.6-0.134-3.233-0.301-4.9l-0.199-5.45
			c0-0.167,0.066-2.117,0.199-5.85c0.067-2.2,0-4.083-0.199-5.65c-1.334-8.633-2.167-14.933-2.5-18.9l-0.301-4.7
			C154.566,46.517,154.85,41.5,155.45,35.5z"/>
		<path style="fill-rule:evenodd;clip-rule:evenodd;fill:#E29D61;" d="M168.05,60.55c2.533,8.267,3.8,16.717,3.8,25.35
			c0,7.5-0.933,14.75-2.8,21.75L168.05,60.55z"/>
		<path style="fill-rule:evenodd;clip-rule:evenodd;fill:#E29D61;" d="M147.25,126.85c-0.033,4.2,0.017,10.5,0.15,18.9l-0.351,0.4
			C146.983,139.25,147.05,132.816,147.25,126.85z"/>
		<path style="fill-rule:evenodd;clip-rule:evenodd;fill:#E29D61;" d="M62.2,89.85c0.2-1.5,0.4-3.716,0.6-6.649
			c-0.333,20.866-0.1,39.649,0.7,56.35l0.1,3.9c0.066,8.434,0.066,16.866,0,25.3l-2.2-0.65c0.1-5.466,0.35-13.267,0.75-23.399
			l0.05-5.2c-0.567-11-0.934-19.233-1.1-24.7C60.8,105.3,61.167,96.983,62.2,89.85z"/>
		<path style="fill-rule:evenodd;clip-rule:evenodd;fill:#E29D61;" d="M125.55,32.85c0-0.533,0.066-8.217,0.2-23.05l0.65,0.35
			c0.033,5.434,0.166,13.184,0.399,23.25c0.233,10.7,0.367,18.434,0.4,23.2l-0.15,16.95c-0.033,2.5-0.033,6.184,0,11.05l-0.149,3.6
			c-3.467,13.333-4.801,28.967-4,46.899c0,5.367,0.333,10.534,1,15.5l1.1,11.7l-1.6,0.851l-0.351-3.2
			c-3.133-22.334-2.333-46.184,2.4-71.55c0.267-2.601,0.433-4.567,0.5-5.9c0.1-2.167,0.133-4.15,0.1-5.95l0.05-4
			c0.033-2.633,0.017-6.616-0.05-11.95l-0.1-4.75C125.65,49.25,125.517,41.583,125.55,32.85z"/>
		<path style="fill-rule:evenodd;clip-rule:evenodd;fill:#E29D61;" d="M151.9,30.9l2.85,3.6c-0.333,2.833-0.767,5.9-1.3,9.2
			c0,0.833-0.05,1.983-0.15,3.45c0,1.3,0.167,2.467,0.5,3.5c0.033,1.167,0.15,2.917,0.351,5.25c0.333,3.5,0.883,8.717,1.649,15.65
			c0.601,6.1,0.75,11.333,0.45,15.7l-0.05,24.7c-0.601,6.633-0.733,14.55-0.4,23.75c-1.033,1.467-2.033,2.8-3,4
			c-0.633-12.101-0.616-21.634,0.05-28.601c0.134-2,0.2-3.466,0.2-4.399l-0.1-23.2c-0.067-2.933-0.283-6.883-0.65-11.85
			c-0.434-5.8-0.7-9.716-0.8-11.75l-0.4-4.85C150.934,49.417,151.2,41.367,151.9,30.9z"/>
		<path style="fill-rule:evenodd;clip-rule:evenodd;fill:#E29D61;" d="M127.7,35.05c-0.2-10.833-0.317-18.966-0.351-24.4
			c2.4,1.333,4.567,2.667,6.5,4l0.351,6.8c0.267,7.133,1.033,13.617,2.3,19.45c0.5,4.9,0.616,9.35,0.35,13.35
			c-0.333,1.467-0.833,3.633-1.5,6.5L134.2,69.8c-0.167,1.434-0.267,2.817-0.3,4.15c-0.134,1.933-0.15,4.233-0.051,6.9
			c0.067,1.5,0.167,3.75,0.301,6.75v3.15l-1.7,9.2c-3.867,18.666-3.851,36.8,0.05,54.399l0.65,3.2c-2.4,1.601-4.834,3.033-7.301,4.3
			L125,157c-0.4-1.967-0.767-4.1-1.1-6.4c-0.534-6.833-0.867-12-1-15.5c-0.034-6.5,0.5-14.416,1.6-23.75
			c1.333-10.399,2.25-18.183,2.75-23.35l0.3-3.9c0.267-4.233,0.333-8.167,0.2-11.8l0.3-12.9C128.017,54,127.9,45.883,127.7,35.05z"
			/>
		<path style="fill-rule:evenodd;clip-rule:evenodd;fill:#E29D61;" d="M123.8,31.25c0.2-10.167,0.3-17.6,0.3-22.3l1,0.5
			c-0.033,3.6-0.149,10.6-0.35,21c-0.167,8.767-0.233,15.8-0.2,21.1l-0.1,24.85c0.133,1.833,0.2,3.833,0.2,6
			c0,1.8-0.084,3.784-0.25,5.95c-2.067,10.4-3.2,22.667-3.4,36.801c-0.066,3.866,0.116,16.116,0.55,36.75l0.05,2.05l-0.3,0.149
			l-0.7-7.1c-0.833-10.3-0.783-22.717,0.15-37.25c1.333-16.533,2.233-29,2.7-37.4c0.066-2.233,0.05-4.267-0.05-6.1l0.149-22.85
			C123.55,48.267,123.633,40.883,123.8,31.25z"/>
		<path style="fill-rule:evenodd;clip-rule:evenodd;fill:#E29D61;" d="M49.9,40.75l1,4.6l0.8,9.8c-1.1-4.466-1.85-8.117-2.25-10.95
			c-0.367-2-0.167-4.467,0.6-7.4C49.75,38.1,49.7,39.417,49.9,40.75z"/>
		<path style="fill-rule:evenodd;clip-rule:evenodd;fill:#E29D61;" d="M137.8,36.6c-0.934-9.133-1.6-16-2-20.6
			c0.967,0.667,2.384,1.733,4.25,3.2c0.233,7.966,0.783,14.833,1.65,20.6c0.233,2.4,0.283,5.1,0.149,8.1
			c-0.1,1.8-0.316,4.5-0.649,8.1l-0.4,4.55c-0.8,10-1.233,15.517-1.3,16.55l-0.15,3.3c0,4.067-0.05,8.15-0.149,12.25l-0.55,13.8
			c-0.434,7-0.567,14.816-0.4,23.45c0.1,5.433,0.4,13.199,0.9,23.3l-3.601,2.7c-0.8-9.601-1.35-17.367-1.649-23.301
			c-0.434-8.566-0.534-16.399-0.301-23.5c0-0.066,0.101-1.883,0.301-5.449l1.399-9.4c0.233-1.3,0.4-2.75,0.5-4.35l0.101-7.05
			l2.25-25.5C138.583,51.55,138.467,44.633,137.8,36.6z"/>
		<path style="fill-rule:evenodd;clip-rule:evenodd;fill:#E29D61;" d="M149.25,92.95l-0.05-8.9c-0.033-5.2-0.217-13-0.55-23.4
			l-0.101-5.2c0-6.133,0.134-15.434,0.4-27.9l2.25,2.55c-0.434,8.667-0.65,15.633-0.65,20.9l0.15,5.05c0,0.134,0.233,4.55,0.7,13.25
			c0.267,5.3,0.433,9.7,0.5,13.2l-0.15,24.75c-0.033,3.733-0.15,9.4-0.35,17c-0.134,6.767-0.134,12.467,0,17.1
			c-1.134,1.334-2.018,2.334-2.65,3c-0.333-7.533-0.483-13.783-0.45-18.75c0.066-6.8,0.467-13.033,1.2-18.699l0.15-4.5
			c0.066-1.801,0.05-3.384-0.051-4.75C149.533,95.884,149.417,94.316,149.25,92.95z"/>
		<path style="fill-rule:evenodd;clip-rule:evenodd;fill:#E29D61;" d="M142.45,40.75c-0.667-7.2-1.084-12.6-1.25-16.2
			c-0.134-1.533-0.233-3.083-0.3-4.65c1.8,1.5,3.55,3.1,5.25,4.8c0.3,15.667,0.449,26.117,0.449,31.35l-0.399,30.5
			c0.166,3.5,0.283,7.45,0.35,11.851v8.1c-0.899,11.634-1.149,25.25-0.75,40.85c-1.633,1.634-3.417,3.233-5.35,4.801
			c-0.3-5-0.7-10.084-1.2-15.25c-0.6-4.467-0.617-10.017-0.05-16.65c0.967-10.8,1.45-16.384,1.45-16.75l0.3-13.45
			c0.066-3.733,0.017-7.45-0.15-11.15l0.2-3.45c0.5-6.067,0.85-10.633,1.05-13.7c0.2-3.066,0.3-4.633,0.3-4.7
			C142.883,52.617,142.917,47.184,142.45,40.75z"/>
		<path style="fill-rule:evenodd;clip-rule:evenodd;fill:#E29D61;" d="M163.1,75.6l0.25-2.75c0.067,0.933,0.067,1.85,0,2.75
			l0.15,3.9c0.333,8.333,0.517,13.45,0.55,15.35V107.2c-0.233,4-0.267,8.866-0.1,14.6l-0.4,0.9v-0.3
			c-0.1-5.733-0.083-11.167,0.05-16.301L163.1,75.6z"/>
		<path style="fill-rule:evenodd;clip-rule:evenodd;fill:#E29D61;" d="M43.7,36.8c0.9-4.966,1.4-9.267,1.5-12.9
			c0.1-4.667-0.417-8.9-1.55-12.7c1.867-1.1,3.684-2.05,5.45-2.85c1.9,4.533,2.15,10.733,0.75,18.6
			c-1.567,8.833-2.034,14.917-1.4,18.25c0.066,0.433,0.733,3.85,2,10.25c0.8,4.066,1.417,7.433,1.85,10.1
			c0.733,13.034,0.95,25.634,0.65,37.8l-0.6,2.7c-0.867,4.834-1.017,10.233-0.45,16.2c0.667,4,1.1,6.917,1.3,8.75
			c0.366,3.233,0.5,6.1,0.4,8.6l-0.1,3.95c-0.133,2.9-0.35,6.434-0.65,10.601c-0.167,2.366-0.434,5.883-0.8,10.55
			c-1.933-0.834-3.833-1.733-5.7-2.7l0.35-7.05c0.3-5.334,0.4-10.017,0.3-14.05l-0.1-3.551c-0.533-2.733-0.917-5.3-1.15-7.699
			c-0.7-9.334-0.367-20.067,1-32.2l0.05-0.15l1.15-9.899c0.7-5.434,0.683-11.25-0.05-17.45c-0.566-4.9-1.7-10.7-3.4-17.4
			c-0.533-2.2-0.9-3.85-1.1-4.95C43.333,45.2,43.434,41.6,43.7,36.8z"/>
		<path style="fill-rule:evenodd;clip-rule:evenodd;fill:#E29D61;" d="M0.2,90l0.15-10.65c0.667-8.434,2.483-16.5,5.45-24.2
			l-1,50.55c0.167,2.333,0.217,5.233,0.15,8.7C2.184,106.5,0.6,98.366,0.2,90z"/>
		<path style="fill-rule:evenodd;clip-rule:evenodd;fill:#E29D61;" d="M26.65,39.5c0.133-1.367,0.2-2.9,0.2-4.6
			c-1-3.3-1.784-6.283-2.35-8.95l0.9-0.9c0.467,2.267,0.983,4.333,1.55,6.2c0.167,1.067,0.35,2.633,0.55,4.7
			c0.4,5.167,0.017,9.883-1.15,14.15c-1,4.3-1.633,7.483-1.9,9.55c-0.5,3.534-0.55,6.667-0.15,9.4
			c0.034,0.934,0.083,2.317,0.15,4.15l0.35,33.05c0.134,4.267-0.066,10.7-0.6,19.3c-0.567,8.5-0.767,14.917-0.6,19.25l-2.05-2.3
			c-0.2-2.066-0.233-4.1-0.1-6.1c0.066-1.434,0.517-6.75,1.35-15.95c0.567-6.434,0.733-11.8,0.5-16.101l0.15-32.25
			c-0.367-4.333-0.05-9.817,0.95-16.45C25.767,46.483,26.517,41.1,26.65,39.5z"/>
		<path style="fill-rule:evenodd;clip-rule:evenodd;fill:#E29D61;" d="M36.3,36.95c-0.066-2.034-0.1-5.017-0.1-8.95
			c-0.233-1.5-0.634-3.217-1.2-5.15c-0.7-2.167-1.217-3.783-1.55-4.85l2.1-1.6c1.034,6.267,1.65,10.284,1.85,12.05
			c0.534,4.533,0.667,8.583,0.4,12.15l-0.25,4.8c-0.167,2.667-0.483,6.65-0.95,11.95c-0.333,4.7-0.517,8.65-0.55,11.85l0.05,4.25
			c0.033,5.533,0.133,12.283,0.3,20.25c0.1,4.533,0.267,11.3,0.5,20.3l0.1,4.45c0.167,5.366,0.133,10.399-0.1,15.1l-0.7,15.3
			c0,2.301-0.05,4.567-0.15,6.801L32.3,152.8l0.1-10.35c0.567-6.967,0.85-17.267,0.85-30.9l-0.1-43.15
			c0.034-3.5,0.417-7.983,1.15-13.45c1-7.7,1.567-12.2,1.7-13.5C36.167,39.95,36.267,38.45,36.3,36.95z"/>
		<path style="fill-rule:evenodd;clip-rule:evenodd;fill:#E29D61;" d="M32.6,44.7c0.133-2.267,0.2-3.983,0.2-5.15
			c-0.267-4.7-0.966-11.15-2.1-19.35l1.45-1.2c0.633,3.934,1.483,7.583,2.55,10.95c0.433,1.433,0.633,3.15,0.6,5.15
			c0,1.167-0.05,2.883-0.15,5.15c-0.167,1.733-0.367,3.4-0.6,5c-0.4,2.8-1.1,7.017-2.1,12.65c-0.767,4.967-1.083,9.217-0.95,12.75
			v5.3c0.4,4.066,0.566,8.833,0.5,14.3c-0.033,3.167-0.133,7.866-0.3,14.1l-0.05,4.7c-0.066,1.767,0,7.617,0.2,17.55
			c0.133,7.134-0.15,12.967-0.85,17.5l-0.1,7.551l-2.05-1.75l-0.1-2.9c-0.367-2.2-0.6-3.85-0.7-4.95
			c-0.233-1.967-0.133-3.684,0.3-5.149c0.9-4.233,1.466-8.817,1.7-13.75c0.167-3.467,0.184-8.084,0.05-13.851l-0.25-4.149
			c-0.034-1.4-0.05-4.934-0.05-10.601c0.034-4.366-0.083-7.883-0.35-10.55L29.2,68.8c-0.034-2-0.05-3.483-0.05-4.45
			c0.034-1.767,0.25-3.25,0.65-4.45C31.267,54.9,32.2,49.833,32.6,44.7z"/>
		<path style="fill-rule:evenodd;clip-rule:evenodd;fill:#E29D61;" d="M19.65,37.25l-0.1-4.35l-0.15-1.25
			c1.6-1.867,2.833-3.267,3.7-4.2l0.55,3.85c0.1,1.167,0.184,2.9,0.25,5.2c0.1,4.133-0.183,10.167-0.85,18.1
			c-0.633,8.133-0.933,14.15-0.9,18.05l0.2,30.8c0.033,2.666,0.2,6.75,0.5,12.25c0.1,4.767-0.367,8.566-1.4,11.399
			c-0.7,2.267-1.05,4.75-1.05,7.45c0,2.033,0.217,4.5,0.65,7.4c-1.633-1.9-3.183-3.851-4.65-5.851c0.067-1.5,0.284-2.866,0.65-4.1
			c0.934-3.5,1.284-8.25,1.05-14.25c-0.267-7.366-0.284-12.267-0.05-14.7L18,97.6c-0.066-5.233-0.017-11.783,0.15-19.649L18.4,67.6
			c0.034-3.267,0.25-8.333,0.65-15.2C19.483,45.8,19.684,40.75,19.65,37.25z"/>
		<path style="fill-rule:evenodd;clip-rule:evenodd;fill:#E29D61;" d="M39.55,38.7l-0.2-5.25c-0.034-2.567-0.333-5.567-0.9-9
			c-0.7-3.967-1.233-6.95-1.6-8.95c2.033-1.433,3.733-2.533,5.1-3.3c0.566,4.033,0.866,8.867,0.9,14.5c0.033,3.233,0,8.066-0.1,14.5
			c-0.4,4.433-0.3,8.216,0.3,11.35l0.15,0.5c0.233,2.8,0.833,6.733,1.8,11.8c1.033,5.5,1.684,9.417,1.95,11.75
			c0.566,5.066,0.417,9.65-0.45,13.75c-1.133,7.434-1.833,15.351-2.1,23.75c-0.2,6.467-0.15,14.301,0.15,23.5V161
			c-2.366-1.3-4.483-2.583-6.35-3.85l0.15-13.65c0.033-2.3,0.017-5.85-0.05-10.65l0.1-13.199c0.067-3.634,0.184-20.25,0.35-49.851
			l-0.05-5.15C39.4,54.817,39.684,46.167,39.55,38.7z"/>
		<path style="fill-rule:evenodd;clip-rule:evenodd;fill:#E29D61;" d="M29.3,37.55c0.067-1.8,0-3.466-0.2-5
			c-0.934-3.033-1.717-5.966-2.35-8.8l2.55-2.35c0.567,2.867,1.217,5.717,1.95,8.55c0.434,1.466,0.633,3.183,0.6,5.15
			c0,1.133-0.067,2.816-0.2,5.05c-0.1,1.733-0.25,3.4-0.45,5c-0.067,0.733-0.634,4.917-1.7,12.55c-0.7,5.066-1.117,9.25-1.25,12.55
			l0.2,15.65c-0.034,1.966,0.05,4.833,0.25,8.6c0.2,3.9,0.283,6.8,0.25,8.7l-0.2,3.55c0.066,13.833-0.233,24.533-0.9,32.1
			c-0.534,2.634-0.434,5.067,0.3,7.301l0.25,3.35c-1.167-1.033-2.483-2.316-3.95-3.85c-0.4-2.601-0.634-4.384-0.7-5.351
			c-0.2-2-0.15-3.783,0.15-5.35c0.934-3.533,1.367-8.184,1.3-13.95c-0.1-7.2-0.034-11.85,0.2-13.95v-36.6
			c0.167-0.9,0.083-2.284-0.25-4.15c-0.333-1.8-0.417-3.116-0.25-3.95c1.434-5.467,2.417-9.6,2.95-12.4
			C28.783,45.35,29.267,41.217,29.3,37.55z"/>
		<path style="fill-rule:evenodd;clip-rule:evenodd;fill:#E29D61;" d="M7.5,73l0.15-9.9c-0.1-2.667-0.117-6.767-0.05-12.3
			c1.6-3.433,3.267-6.616,5-9.55c0,2.8-0.05,6.983-0.15,12.55c-0.067,5.034-0.067,9.267,0,12.7L12.2,76.75
			C11.9,87.884,11.733,95,11.7,98.1v4.25c-0.3,2.801-0.4,6.684-0.3,11.65c0.1,5.333,0.067,9.184-0.1,11.55l-0.2,2.25
			c-1.467-2.533-2.833-5.25-4.1-8.149c0-0.767-0.066-3.351-0.2-7.75c-0.1-3.2-0.083-5.851,0.05-7.95L6.9,100.1
			C7.167,88.066,7.367,79.033,7.5,73z"/>
		<path style="fill-rule:evenodd;clip-rule:evenodd;fill:#E29D61;" d="M13.85,39.35c1.333-2.033,2.55-3.767,3.65-5.2
			c0.2,7.733,0.066,19.333-0.4,34.8L17,73.7c-0.2,10.566-0.316,18.434-0.35,23.6v4.7c-0.033,0.767-0.066,6.116-0.1,16.05
			c0,6.334-0.483,11.634-1.45,15.9l-0.05,0.25l-2.9-4.5l0.15-1.4c0.567-8.267,0.8-16.5,0.7-24.7l-0.05-4.449
			c0-7.367,0.1-14.75,0.3-22.15l0.3-10.65C13.917,57.35,14.017,48.35,13.85,39.35z"/>
		<path style="fill-rule:evenodd;clip-rule:evenodd;fill:#E29D61;" d="M62.7,23.1c0.4-2.267,0.216-4.85-0.55-7.75
			c-1.1-3.267-1.883-5.684-2.35-7.25c-0.333-1.467-0.55-2.733-0.65-3.8l2.55-0.8v1.95c0.1,1.3,0.267,2.433,0.5,3.4
			c1.3,6.633,1.95,13.833,1.95,21.6c-0.233,8.966-0.6,22.433-1.1,40.4c-0.5-10.567-0.866-18.483-1.1-23.75
			C61.583,37.7,61.833,29.7,62.7,23.1z"/>
		<path style="fill-rule:evenodd;clip-rule:evenodd;fill:#E29D61;" d="M54.85,24.1c0.566-2.434,0.267-5.233-0.9-8.4
			c-1.567-3.567-2.65-6.267-3.25-8.1c2.267-1.033,4.716-2,7.35-2.9v0.75c-0.1,2.3,0.583,6.066,2.05,11.3
			c1.267,4.667,1.633,8.417,1.1,11.25c-0.333,1.467-0.9,3.684-1.7,6.65c-0.6,2.567-0.684,4.767-0.25,6.6
			c1.6,10.367,2.233,22.7,1.9,37c-0.2,8.133-0.667,20.333-1.4,36.6c0,2.434,0.316,6.117,0.95,11.051
			c0.667,4.899,0.983,8.616,0.95,11.149l-0.05,5.05c-0.267,3.567-0.434,7.867-0.5,12.9c-0.067,2.9-0.133,7.217-0.2,12.95
			c-2.433-0.733-4.7-1.533-6.8-2.4c0.4-5.566,0.7-9.733,0.9-12.5c0.367-4.934,0.583-9.1,0.65-12.5v-4.3
			c-0.066-1.667-0.667-6.033-1.8-13.1c-0.9-5.4-1.067-9.801-0.5-13.2c1.733-10.566,2.367-21.15,1.9-31.75l0.05-1.6
			c0-2.833-0.267-5.85-0.8-9.05c-0.8-7.133-2-14.533-3.6-22.2l-0.5-5.55c-0.133-1.066-0.133-2.5,0-4.3l0.4-1.25
			c0.267-0.7,0.983-2.367,2.15-5C53.883,27.15,54.517,25.434,54.85,24.1z"/>
		<path style="fill-rule:evenodd;clip-rule:evenodd;fill:#E29D61;" d="M63.25,7.25c-0.233-0.9-0.233-2.183,0-3.85l0.1-0.35L66.8,2.2
			c-0.267,1.8-0.35,3.75-0.25,5.85c0,0.9,0.1,2.217,0.3,3.95c0.5,2.167,0.75,5.533,0.75,10.1c0,6.767-0.284,26.417-0.85,58.95
			c-0.4,24.033-0.35,43.7,0.15,59l0.2,10.101c-0.167,2.533-0.15,5.783,0.05,9.75c0.3,5.6,0.45,8.866,0.45,9.8l-2.95-0.65V136
			c0-2.167-0.167-5.283-0.5-9.35c-0.333-4.101-0.5-7.217-0.5-9.351c-0.133-7.5,0.067-21.566,0.6-42.2
			c0.467-17.767,0.434-31.833-0.1-42.2c0-0.566,0.184-1.383,0.55-2.45c0.466-1.133,0.767-1.95,0.9-2.45
			c0.2-2.8-0.017-6.233-0.65-10.3C64.117,13.067,63.55,9.583,63.25,7.25z"/>
		<path style="fill-rule:evenodd;clip-rule:evenodd;fill:#B9692F;" d="M0.1,85.9c0-1.966,0.083-4.15,0.25-6.55L0.2,90L0.1,85.9z"/>
		<path style="fill-rule:evenodd;clip-rule:evenodd;fill:#B9692F;" d="M5.8,55.15c0.634-1.6,0.983-2.483,1.05-2.65L6.6,69.8
			c-0.133,7.067-0.383,17.634-0.75,31.7l-0.1,4.55c0.167,2.667,0.15,6.117-0.05,10.351l-0.75-2c0.066-3.467,0.017-6.367-0.15-8.7
			L5.8,55.15z"/>
		<path style="fill-rule:evenodd;clip-rule:evenodd;fill:#B9692F;" d="M7.65,63.1L7.5,73c-0.133,6.033-0.333,15.066-0.6,27.1
			l-0.05,3.851c-0.133,2.1-0.15,4.75-0.05,7.95c0.134,4.399,0.2,6.983,0.2,7.75l-1-2.45c0-3.834-0.05-7.65-0.15-11.45l1-53.25
			l0.75-1.7C7.533,56.333,7.55,60.434,7.65,63.1z"/>
		<path style="fill-rule:evenodd;clip-rule:evenodd;fill:#B9692F;" d="M12.6,41.25l1.25-1.9c0.167,9,0.066,18-0.3,27L13.25,77
			c-0.2,7.4-0.3,14.783-0.3,22.15L13,103.6c0.1,8.2-0.133,16.434-0.7,24.7l-0.15,1.4l-1.05-1.9l0.2-2.25
			c0.167-2.366,0.2-6.217,0.1-11.55c-0.1-4.967,0-8.85,0.3-11.65V98.1c0.033-3.1,0.2-10.216,0.5-21.35l0.25-10.25
			c-0.067-3.433-0.067-7.667,0-12.7C12.55,48.233,12.6,44.05,12.6,41.25z"/>
		<path style="fill-rule:evenodd;clip-rule:evenodd;fill:#B9692F;" d="M17.5,34.15l1.9-2.5l0.15,1.25l0.1,4.35
			c0.034,3.5-0.167,8.55-0.6,15.15c-0.4,6.867-0.616,11.934-0.65,15.2l-0.25,10.35C17.983,85.817,17.934,92.366,18,97.6l0.05,5.45
			c-0.233,2.434-0.216,7.334,0.05,14.7c0.233,6-0.117,10.75-1.05,14.25c-0.366,1.233-0.583,2.6-0.65,4.1l-1.35-1.899l0.05-0.25
			c0.966-4.267,1.45-9.566,1.45-15.9c0.034-9.934,0.067-15.283,0.1-16.05v-4.7c0.034-5.166,0.15-13.033,0.35-23.6l0.1-4.75
			C17.566,53.483,17.7,41.883,17.5,34.15z"/>
		<path style="fill-rule:evenodd;clip-rule:evenodd;fill:#B9692F;" d="M23.9,36.5c-0.066-2.3-0.15-4.033-0.25-5.2l-0.55-3.85
			l1.4-1.5c0.566,2.667,1.35,5.65,2.35,8.95c0,1.7-0.067,3.233-0.2,4.6c-0.133,1.6-0.883,6.983-2.25,16.15
			c-1,6.633-1.316,12.117-0.95,16.45l-0.15,32.25c0.233,4.301,0.067,9.667-0.5,16.101c-0.833,9.2-1.283,14.517-1.35,15.95
			c-0.134,2-0.1,4.033,0.1,6.1l-0.5-0.55c-0.433-2.9-0.65-5.367-0.65-7.4c0-2.7,0.35-5.184,1.05-7.45
			c1.033-2.833,1.5-6.633,1.4-11.399c-0.3-5.5-0.467-9.584-0.5-12.25l-0.2-30.8c-0.033-3.9,0.267-9.917,0.9-18.05
			C23.717,46.667,24,40.633,23.9,36.5z"/>
		<path style="fill-rule:evenodd;clip-rule:evenodd;fill:#B9692F;" d="M27.5,35.95c-0.2-2.067-0.383-3.633-0.55-4.7
			c-0.567-1.867-1.083-3.933-1.55-6.2l1.35-1.3c0.633,2.833,1.417,5.767,2.35,8.8c0.2,1.534,0.267,3.2,0.2,5
			c-0.033,3.667-0.517,7.8-1.45,12.4c-0.534,2.8-1.517,6.933-2.95,12.4c-0.167,0.833-0.083,2.15,0.25,3.95
			c0.333,1.867,0.417,3.25,0.25,4.15v36.6c-0.233,2.101-0.3,6.75-0.2,13.95c0.066,5.767-0.367,10.417-1.3,13.95
			c-0.3,1.566-0.35,3.35-0.15,5.35c0.066,0.967,0.3,2.75,0.7,5.351L23.6,144.8c-0.167-4.333,0.033-10.75,0.6-19.25
			c0.533-8.6,0.733-15.033,0.6-19.3L24.45,73.2c-0.067-1.833-0.117-3.217-0.15-4.15c-0.4-2.733-0.35-5.866,0.15-9.4
			c0.267-2.066,0.9-5.25,1.9-9.55C27.517,45.833,27.9,41.117,27.5,35.95z"/>
		<path style="fill-rule:evenodd;clip-rule:evenodd;fill:#B9692F;" d="M31.65,40.15c0.133-2.233,0.2-3.917,0.2-5.05
			c0.033-1.967-0.167-3.684-0.6-5.15c-0.733-2.833-1.383-5.684-1.95-8.55l1.4-1.2c1.133,8.2,1.833,14.65,2.1,19.35
			c0,1.167-0.066,2.884-0.2,5.15c-0.4,5.133-1.333,10.2-2.8,15.2c-0.4,1.2-0.616,2.684-0.65,4.45c0,0.967,0.017,2.45,0.05,4.45
			L29.45,84c0.267,2.667,0.383,6.184,0.35,10.55c0,5.667,0.017,9.2,0.05,10.601l0.25,4.149c0.133,5.767,0.117,10.384-0.05,13.851
			c-0.233,4.933-0.8,9.517-1.7,13.75c-0.434,1.466-0.534,3.183-0.3,5.149c0.1,1.101,0.333,2.75,0.7,4.95l0.1,2.9l-0.45-0.4
			l-0.25-3.35c-0.733-2.233-0.833-4.667-0.3-7.301c0.667-7.566,0.966-18.267,0.9-32.1l0.2-3.55c0.033-1.9-0.05-4.8-0.25-8.7
			c-0.2-3.767-0.284-6.634-0.25-8.6l-0.2-15.65c0.133-3.3,0.55-7.483,1.25-12.55c1.066-7.633,1.633-11.817,1.7-12.55
			C31.4,43.55,31.55,41.883,31.65,40.15z"/>
		<path style="fill-rule:evenodd;clip-rule:evenodd;fill:#B9692F;" d="M32.15,19l1.3-1c0.333,1.067,0.85,2.684,1.55,4.85
			c0.566,1.933,0.967,3.65,1.2,5.15c0,3.934,0.033,6.917,0.1,8.95c-0.033,1.5-0.133,3-0.3,4.5c-0.133,1.3-0.7,5.8-1.7,13.5
			c-0.733,5.466-1.116,9.95-1.15,13.45l0.1,43.15c0,13.634-0.283,23.934-0.85,30.9l-0.1,10.35l-1.4-1.149L31,144.1
			c0.7-4.533,0.983-10.366,0.85-17.5c-0.2-9.933-0.267-15.783-0.2-17.55l0.05-4.7c0.167-6.233,0.267-10.933,0.3-14.1
			c0.066-5.467-0.1-10.233-0.5-14.3v-5.3c-0.133-3.533,0.184-7.783,0.95-12.75c1-5.633,1.7-9.85,2.1-12.65
			c0.233-1.6,0.434-3.267,0.6-5c0.1-2.267,0.15-3.983,0.15-5.15c0.034-2-0.167-3.717-0.6-5.15C33.633,26.583,32.783,22.934,32.15,19
			z"/>
		<path style="fill-rule:evenodd;clip-rule:evenodd;fill:#B9692F;" d="M39.2,38.9c0.066-2.433,0.083-4.267,0.05-5.5
			c0-2.167-0.2-3.966-0.6-5.4c-0.767-3.633-1.383-7.783-1.85-12.45l0.05-0.05c0.367,2,0.9,4.983,1.6,8.95
			c0.566,3.433,0.866,6.433,0.9,9l0.2,5.25c0.134,7.466-0.15,16.117-0.85,25.95l0.05,5.15c-0.167,29.601-0.283,46.217-0.35,49.851
			l-0.1,13.199c0.067,4.801,0.083,8.351,0.05,10.65l-0.15,13.65l-1.15-0.801l0.4-6.949l0.3-29.15
			c-0.033-3.667,0.083-12.083,0.35-25.25c0.167-10.5,0.133-18.917-0.1-25.25l-0.05-4.8c0.033-2.833,0.183-6.45,0.45-10.85
			c0.4-6.5,0.617-10.117,0.65-10.85C39.15,41.817,39.2,40.367,39.2,38.9z"/>
		<path style="fill-rule:evenodd;clip-rule:evenodd;fill:#B9692F;" d="M37.8,40.6c0.267-3.567,0.134-7.617-0.4-12.15
			c-0.2-1.767-0.816-5.784-1.85-12.05l0.65-0.45c1.233,6.566,1.966,10.716,2.2,12.45c0.6,4.7,0.667,8.934,0.2,12.7l-0.45,4.6
			c-0.633,6.133-1,9.983-1.1,11.55c-0.3,4.3-0.316,8.1-0.05,11.4l0.2,52.3c-0.067,3.434-0.067,6.934,0,10.5l-0.35,24.8l-0.8-0.6
			c0.1-2.233,0.15-4.5,0.15-6.801l0.7-15.3c0.233-4.7,0.267-9.733,0.1-15.1L36.9,114c-0.233-9-0.4-15.767-0.5-20.3
			c-0.167-7.967-0.267-14.717-0.3-20.25l-0.05-4.25c0.034-3.2,0.217-7.15,0.55-11.85c0.466-5.3,0.783-9.283,0.95-11.95L37.8,40.6z"
			/>
		<path style="fill-rule:evenodd;clip-rule:evenodd;fill:#B9692F;" d="M38.6,41.1c0.466-3.767,0.4-8-0.2-12.7
			c-0.233-1.733-0.966-5.883-2.2-12.45l0.6-0.4c0.467,4.667,1.083,8.817,1.85,12.45c0.4,1.434,0.6,3.233,0.6,5.4
			c0.033,1.233,0.017,3.067-0.05,5.5c0,1.467-0.05,2.917-0.15,4.35c-0.033,0.733-0.25,4.35-0.65,10.85
			c-0.267,4.4-0.417,8.017-0.45,10.85l0.05,4.8c0.233,6.333,0.267,14.75,0.1,25.25c-0.267,13.167-0.383,21.583-0.35,25.25
			l-0.3,29.15L37.1,152.8l0.1-21.35c-0.067-3.566-0.067-7.066,0-10.5L37,68.65c-0.267-3.3-0.25-7.1,0.05-11.4
			c0.1-1.566,0.467-5.417,1.1-11.55L38.6,41.1z"/>
		<path style="fill-rule:evenodd;clip-rule:evenodd;fill:#B9692F;" d="M42.75,41.2c0.1-6.434,0.133-11.267,0.1-14.5
			c-0.034-5.633-0.333-10.467-0.9-14.5l0.5-0.3c0.966,6.034,1.5,9.434,1.6,10.2c0.233,2.7,0.167,5.9-0.2,9.6
			C43.65,33.833,43.283,37,42.75,41.2z"/>
		<path style="fill-rule:evenodd;clip-rule:evenodd;fill:#B9692F;" d="M45.775,108.125c-0.503,7.856-0.512,15.031-0.025,21.525
			c-0.5-4.867-0.617-10.233-0.35-16.101C45.477,111.901,45.602,110.093,45.775,108.125z"/>
		<path style="fill-rule:evenodd;clip-rule:evenodd;fill:#B9692F;" d="M43.7,36.8c-0.267,4.8-0.367,8.4-0.3,10.8
			c-0.466-2.8-0.583-5.25-0.35-7.35L43.7,36.8z"/>
		<path style="fill-rule:evenodd;clip-rule:evenodd;fill:#B9692F;" d="M46.5,90.35c0.867-4.1,1.017-8.683,0.45-13.75
			c-0.267-2.333-0.917-6.25-1.95-11.75c-0.967-5.067-1.566-9-1.8-11.8c1.033,4.167,1.616,6.6,1.75,7.3
			c1.1,5.967,1.833,10.35,2.2,13.15c0.2,2.167,0.3,4.333,0.3,6.5c0.133,4.633-0.5,13.983-1.9,28.05
			c-1.167,11.767-1.216,21.267-0.15,28.5c0.067,1.233,0.067,2.45,0,3.65l-0.35,21.149l-0.5-0.35v-23.4
			c-0.3-9.199-0.35-17.033-0.15-23.5C44.667,105.7,45.367,97.783,46.5,90.35z"/>
		<path style="fill-rule:evenodd;clip-rule:evenodd;fill:#B9692F;" d="M43.7,36.8c0.433-6.767,0.667-11,0.7-12.7
			c0.1-4.8-0.2-9.067-0.9-12.8l0.15-0.1c1.133,3.8,1.65,8.033,1.55,12.7C45.1,27.533,44.6,31.833,43.7,36.8z"/>
		<path style="fill-rule:evenodd;clip-rule:evenodd;fill:#B9692F;" d="M47.8,88.9c0.367-4.601,0.15-9.734-0.65-15.4
			c-0.333-3.867-1.066-8.25-2.2-13.15c-0.634-3.8-1.1-7.05-1.4-9.75l-0.15-3c0.2,1.1,0.567,2.75,1.1,4.95
			c1.7,6.7,2.833,12.5,3.4,17.4c0.733,6.2,0.75,12.017,0.05,17.45L47.8,88.9z"/>
		<path style="fill-rule:evenodd;clip-rule:evenodd;fill:#B9692F;" d="M43.05,51.55l0.15,1.5l-0.15-0.5
			c-0.6-3.133-0.7-6.917-0.3-11.35C42.75,45.367,42.85,48.817,43.05,51.55z"/>
		<path style="fill-rule:evenodd;clip-rule:evenodd;fill:#B9692F;" d="M46.45,140.6l-0.1-4.5c-0.233-2.133-0.434-4.283-0.6-6.449
			c0.233,2.399,0.617,4.966,1.15,7.699L47,140.9c0.1,4.033,0,8.716-0.3,14.05L46.35,162l-0.45-0.25l0.1-3
			C46.267,150.684,46.417,144.634,46.45,140.6z"/>
		<path style="fill-rule:evenodd;clip-rule:evenodd;fill:#B9692F;" d="M42.75,41.2c0.533-4.2,0.9-7.367,1.1-9.5
			c0.367-3.7,0.433-6.9,0.2-9.6c-0.1-0.767-0.633-4.167-1.6-10.2l1.05-0.6c0.7,3.733,1,8,0.9,12.8c-0.033,1.7-0.267,5.933-0.7,12.7
			l-0.65,3.45c-0.233,2.1-0.116,4.55,0.35,7.35l0.15,3c0.3,2.7,0.767,5.95,1.4,9.75c-0.134-0.7-0.717-3.133-1.75-7.3l-0.15-1.5
			C42.85,48.817,42.75,45.367,42.75,41.2z"/>
		<path style="fill-rule:evenodd;clip-rule:evenodd;fill:#B9692F;" d="M47.45,80c0-2.167-0.1-4.333-0.3-6.5
			c0.8,5.667,1.017,10.8,0.65,15.4l-1,8.399l-0.05,0.15c-0.7,6.434-1.15,11.8-1.35,16.1c-0.267,5.867-0.15,11.233,0.35,16.101
			c0.167,2.166,0.367,4.316,0.6,6.449l0.1,4.5c-0.034,4.034-0.184,10.084-0.45,18.15l-0.1,3l-0.85-0.4L45.4,140.2
			c0.067-1.2,0.067-2.417,0-3.65c-1.066-7.233-1.017-16.733,0.15-28.5C46.95,93.983,47.583,84.633,47.45,80z"/>
		<path style="fill-rule:evenodd;clip-rule:evenodd;fill:#B9692F;" d="M51,10.15l1.3,4.7c0.434,2.867,0.317,6.4-0.35,10.6
			c-0.333,2.3-0.85,5.617-1.55,9.95l-0.35,1.4c-0.767,2.934-0.966,5.4-0.6,7.4c0.4,2.833,1.15,6.483,2.25,10.95
			c0.133,2.333,0.333,5.8,0.6,10.4c-0.433-2.667-1.05-6.033-1.85-10.1c-1.267-6.4-1.934-9.817-2-10.25
			c-0.634-3.333-0.167-9.417,1.4-18.25c1.4-7.867,1.15-14.067-0.75-18.6l0.95-0.45l0.2,0.65L51,10.15z"/>
		<path style="fill-rule:evenodd;clip-rule:evenodd;fill:#B9692F;" d="M52.35,117.8c-0.1,1.667-0.017,3.45,0.25,5.351
			c0.267,4.066,0.883,8.083,1.85,12.05l0.1,1.45c0,1.666-0.05,3.316-0.15,4.949c-0.133,3.2-0.367,7.084-0.7,11.65
			c-0.2,2.6-0.517,6.533-0.95,11.8l-0.7-0.35c0.367-4.667,0.634-8.184,0.8-10.55c0.3-4.167,0.517-7.7,0.65-10.601l0.1-3.95
			c0.1-2.5-0.034-5.366-0.4-8.6c-0.2-1.833-0.634-4.75-1.3-8.75c-0.566-5.967-0.417-11.366,0.45-16.2l0.6-2.7l-0.1,2.75
			c-0.333,4.4-0.483,8.233-0.45,11.5L52.35,117.8z"/>
		<path style="fill-rule:evenodd;clip-rule:evenodd;fill:#B9692F;" d="M55.3,76.6l-0.05,1.6c-0.133-3.467-0.383-7.017-0.75-10.65
			C55.033,70.75,55.3,73.767,55.3,76.6z"/>
		<path style="fill-rule:evenodd;clip-rule:evenodd;fill:#B9692F;" d="M51,10.15L50.55,8.5l-0.1-0.75L50.7,7.6
			c0.6,1.833,1.683,4.533,3.25,8.1c1.167,3.167,1.466,5.966,0.9,8.4c-0.333,1.333-0.967,3.05-1.9,5.15
			c-1.167,2.633-1.884,4.3-2.15,5c0.6-1.767,1.05-3.117,1.35-4.05c0.534-1.633,0.934-3.017,1.2-4.15
			c0.466-3.066,0.117-6.8-1.05-11.2C52.033,13.117,51.6,11.55,51,10.15z"/>
		<path style="fill-rule:evenodd;clip-rule:evenodd;fill:#B9692F;" d="M54.4,90.45c0.434-4.3,0.717-8.383,0.85-12.25
			c0.467,10.6-0.167,21.184-1.9,31.75c-0.567,3.399-0.4,7.8,0.5,13.2c1.133,7.066,1.733,11.433,1.8,13.1v4.3
			c-0.066,3.4-0.283,7.566-0.65,12.5c-0.2,2.767-0.5,6.934-0.9,12.5l-0.75-0.3c0.4-5.434,0.7-9.5,0.9-12.2
			c0.3-4.767,0.467-8.833,0.5-12.2c0-1.666-0.05-3.35-0.15-5.05l-0.15-0.6c-0.1-1.566-0.384-3.601-0.85-6.101
			c-0.534-3.066-0.867-5.05-1-5.949c-0.133-1.634-0.2-3.483-0.2-5.551c0.2-3.866,0.35-7.699,0.45-11.5l0.4-4.5
			C53.85,98.1,54.233,94.384,54.4,90.45z"/>
		<path style="fill-rule:evenodd;clip-rule:evenodd;fill:#B9692F;" d="M54.5,67.55c-0.434-2.366-1.367-6.5-2.8-12.4l-0.8-9.8
			C52.5,53.017,53.7,60.417,54.5,67.55z"/>
		<path style="fill-rule:evenodd;clip-rule:evenodd;fill:#B9692F;" d="M49.9,40.75c-0.2-1.333-0.15-2.65,0.15-3.95l0.35-1.3
			c-0.133,1.8-0.133,3.233,0,4.3l0.5,5.55L49.9,40.75z"/>
		<path style="fill-rule:evenodd;clip-rule:evenodd;fill:#B9692F;" d="M52.3,65.55c1.6,9.534,2.3,17.833,2.1,24.9l-1.45,12.899
			C53.25,91.184,53.033,78.583,52.3,65.55z"/>
		<path style="fill-rule:evenodd;clip-rule:evenodd;fill:#B9692F;" d="M54.6,135.8c0.1,1.7,0.15,3.384,0.15,5.05
			c-0.033,3.367-0.2,7.434-0.5,12.2c-0.2,2.7-0.5,6.767-0.9,12.2l-0.6-0.2c0.434-5.267,0.75-9.2,0.95-11.8
			c0.333-4.566,0.566-8.45,0.7-11.65c0.1-1.633,0.15-3.283,0.15-4.949l-0.1-1.45L54.6,135.8z"/>
		<path style="fill-rule:evenodd;clip-rule:evenodd;fill:#B9692F;" d="M53.35,26.05c-0.267,1.134-0.667,2.517-1.2,4.15
			c-0.3,0.933-0.75,2.283-1.35,4.05l-0.4,1.15c0.7-4.333,1.217-7.65,1.55-9.95c0.667-4.2,0.783-7.733,0.35-10.6
			C53.467,19.25,53.816,22.983,53.35,26.05z"/>
		<polygon style="fill-rule:evenodd;clip-rule:evenodd;fill:#B9692F;" points="51,10.15 50.25,8.55 50.05,7.9 50.45,7.75 50.55,8.5 
					"/>
		<path style="fill-rule:evenodd;clip-rule:evenodd;fill:#B9692F;" d="M54.4,90.45c0.2-7.067-0.5-15.367-2.1-24.9
			c-0.267-4.6-0.466-8.066-0.6-10.4c1.433,5.9,2.366,10.034,2.8,12.4c0.367,3.634,0.617,7.184,0.75,10.65
			C55.117,82.067,54.833,86.15,54.4,90.45z"/>
		<path style="fill-rule:evenodd;clip-rule:evenodd;fill:#B9692F;" d="M62.15,15.35c0.767,2.9,0.95,5.483,0.55,7.75
			c-0.867,6.6-1.117,14.6-0.75,24c0.233,5.267,0.6,13.183,1.1,23.75L62.8,83.2c-0.2,2.933-0.4,5.149-0.6,6.649
			c-1.034,7.134-1.4,15.45-1.1,24.95c0.167,5.467,0.533,13.7,1.1,24.7l-0.05,5.2c-0.4,10.133-0.65,17.934-0.75,23.399l-0.5-0.149
			c0.067-5.733,0.133-10.05,0.2-12.95c0.066-5.033,0.233-9.333,0.5-12.9l0.05-5.05c0.034-2.533-0.283-6.25-0.95-11.149
			c-0.634-4.934-0.95-8.617-0.95-11.051c0.733-16.267,1.2-28.466,1.4-36.6c0.333-14.3-0.3-26.633-1.9-37
			c-0.434-1.833-0.35-4.033,0.25-6.6c0.8-2.966,1.367-5.183,1.7-6.65c0.533-2.833,0.167-6.583-1.1-11.25
			c-1.467-5.233-2.15-9-2.05-11.3V4.7l1.1-0.4c0.1,1.067,0.317,2.333,0.65,3.8C60.267,9.667,61.05,12.083,62.15,15.35z"/>
		<path style="fill-rule:evenodd;clip-rule:evenodd;fill:#B9692F;" d="M61.7,5.45V3.5l1.65-0.45l-0.1,0.35
			c-0.233,1.667-0.233,2.95,0,3.85c0.3,2.333,0.867,5.817,1.7,10.45c0.633,4.066,0.85,7.5,0.65,10.3
			c-0.133,0.5-0.434,1.317-0.9,2.45c-0.367,1.066-0.55,1.883-0.55,2.45c0.534,10.367,0.567,24.434,0.1,42.2
			c-0.533,20.633-0.733,34.7-0.6,42.2c0,2.134,0.167,5.25,0.5,9.351c0.333,4.066,0.5,7.183,0.5,9.35v33.05l-1.05-0.3
			c0.066-8.434,0.066-16.866,0-25.3l-0.1-3.9c-0.8-16.7-1.033-35.483-0.7-56.35c0.267-3.8,0.35-7.917,0.25-12.35
			c0.5-17.967,0.867-31.434,1.1-40.4c0-7.767-0.65-14.967-1.95-21.6C61.967,7.883,61.8,6.75,61.7,5.45z"/>
		<path style="fill-rule:evenodd;clip-rule:evenodd;fill:#B9692F;" d="M66.55,8.05C66.45,5.95,66.533,4,66.8,2.2l1.15-0.3l-0.3,2.25
			c-0.1,1.3-0.117,2.75-0.05,4.35l0.35,4.35c0.533,13.433,0.417,34.2-0.35,62.3c-0.7,27.267-0.717,48.083-0.05,62.45l0.75,15.25
			c0.1,2,0.233,4.884,0.4,8.65c0.133,3.267,0.183,6.1,0.15,8.5l-1.25-0.3c0-0.934-0.15-4.2-0.45-9.8
			c-0.2-3.967-0.216-7.217-0.05-9.75l-0.2-10.101c-0.5-15.3-0.55-34.967-0.15-59c0.566-32.533,0.85-52.183,0.85-58.95
			c0-4.567-0.25-7.934-0.75-10.1C66.65,10.267,66.55,8.95,66.55,8.05z"/>
		<path style="fill-rule:evenodd;clip-rule:evenodd;fill:#B9692F;" d="M71.05,140.25l0.05,3L71.05,140.25z M71.1,143.25l0.35,6.9
			c0.167,2.3,0.4,5.733,0.7,10.3c0.267,3.967,0.434,7.383,0.5,10.25l-0.2-0.05v-0.301c-0.6-5.966-1.017-12.949-1.25-20.949
			L71.1,143.25z M71.05,139.275L71,137.2c-0.133-16.434-0.2-28.75-0.2-36.95c-0.033-14.4,0.3-26.783,1-37.15
			c-0.5,31.3-0.75,56.367-0.75,75.2V139.275z"/>
		<path style="fill-rule:evenodd;clip-rule:evenodd;fill:#B9692F;" d="M70.95,46.15c-0.067-15.5-0.034-26.117,0.1-31.85v-0.8l0.05,1
			c0.333,14.9,0.283,33.85-0.15,56.85c-0.194,10.645-0.402,19.836-0.625,27.575c0-8.383,0.075-15.341,0.225-20.875
			C70.917,70.283,71.05,59.65,70.95,46.15z"/>
		<polygon style="fill-rule:evenodd;clip-rule:evenodd;fill:#B9692F;" points="71.05,8.1 71.05,1.3 71.25,1.3 71.25,6 		"/>
		<path style="fill-rule:evenodd;clip-rule:evenodd;fill:#B9692F;" d="M72,14.55l0.05-13.4l0.2-0.05v9.7
			c0.133,1.767,0.2,3.65,0.2,5.65l-0.2,16.6C71.95,25.35,71.867,19.184,72,14.55z"/>
		<path style="fill-rule:evenodd;clip-rule:evenodd;fill:#B9692F;" d="M72.25,33.05c0.2,6.233,0.316,10.7,0.35,13.4
			c0,4.966-0.2,9.45-0.6,13.45l-0.2,3.2L72.25,33.05z"/>
		<path style="fill-rule:evenodd;clip-rule:evenodd;fill:#B9692F;" d="M71.25,6V1.3l0.8-0.15L72,14.55
			c-0.133,4.634-0.05,10.8,0.25,18.5L71.8,63.1c-0.7,10.367-1.033,22.75-1,37.15c0,8.2,0.067,20.517,0.2,36.95l0.2,12.2
			c0.233,8,0.65,14.983,1.25,20.949v0.301l-0.7-0.15l-1.45-21.55L70,128.3c0.033-5.033,0.35-24.017,0.95-56.95
			c0.433-23,0.483-41.95,0.15-56.85l-0.05-6.4L71.25,6z"/>
		<path style="fill-rule:evenodd;clip-rule:evenodd;fill:#B9692F;" d="M77.9,0.4l0.05,17.85c0.366,16.733,0.35,36.6-0.05,59.6
			c-0.233,13.233-0.667,33.083-1.3,59.55l-0.2,5c0.034,1.1,0.083,2.767,0.15,5l0.1,4.649c0.133,1.033,0.233,3.084,0.3,6.15
			L78,171.35l-1.15-0.149L76.8,171c-0.066-2.533-0.2-5.616-0.4-9.25c-0.267-4.1-0.466-7.167-0.6-9.2l-0.4-10.7
			c-0.1-1.8-0.117-3.816-0.05-6.05c0.667-25.7,1.117-45.434,1.35-59.2c0.333-21.8,0.383-41.55,0.15-59.25V0.5L77.9,0.4z"/>
		<path style="fill-rule:evenodd;clip-rule:evenodd;fill:#B9692F;" d="M81.65,0.1l0.05,21.6c0.433,14.733,0.433,34.167,0,58.3
			c-0.534,30.1-0.784,49.467-0.75,58.1l0.45,14.051c0.167,6.933,0.2,13.416,0.1,19.449l-1.1-0.1l0.1-5.3
			c0.133-3.634-0.017-8.267-0.45-13.9l-0.35-4.649c-0.134-0.967-0.267-2.483-0.4-4.551l-0.1-4.5
			c0.733-17.633,1.216-37.25,1.45-58.85c0.133-13.733,0.184-33.35,0.15-58.85L80.75,0.15L81.65,0.1z"/>
		<path style="fill-rule:evenodd;clip-rule:evenodd;fill:#B9692F;" d="M84.2,0.05v24c0.3,11.467,0.183,30.517-0.35,57.15
			c-0.467,24.399-0.383,43.399,0.25,57l-0.05,15c-0.1,6.166-0.25,12.316-0.45,18.45h-0.8V150.55c0.1-3.3,0.15-6.616,0.15-9.95
			l-0.05-5c-0.633-6.899-0.683-15.683-0.15-26.35c0.7-14.366,1.05-23.133,1.05-26.3c-0.167-6.367-0.25-15.833-0.25-28.4
			c0-12.533-0.083-21.966-0.25-28.3l-0.05-26.2H84.2z"/>
		<path style="fill-rule:evenodd;clip-rule:evenodd;fill:#B9692F;" d="M92.8,0.3v45.65c-0.1,3.433-0.184,11.517-0.25,24.25
			l-0.5,16.95c0,5.333,0.134,10.966,0.4,16.899l0.2,5.601c0,3.699-0.067,9.383-0.2,17.05c0,6.733,0.183,12.5,0.55,17.3l0.15,4.9
			c0.199,4.333,0.383,7.616,0.55,9.85l0.35,3.4c0.3,2.733,0.816,5.733,1.55,9l-1.949,0.199c-0.733-3.899-1.233-7.017-1.5-9.35
			l-0.4-3.25c0.066-2.066,0.1-5.184,0.1-9.35l-0.05-4.75c-0.033-2-0.233-7.534-0.6-16.601c-0.267-6.7-0.317-12.233-0.15-16.6
			l0.05-4.8c-0.1-1.801-0.149-3.584-0.149-5.351C90.85,97.5,90.866,93.95,91,90.65l0.05-3.851c0.167-8.533,0.283-14.917,0.351-19.15
			l0.1-5c0.133-3.066,0.15-6.367,0.05-9.9V0.2L92.8,0.3z"/>
		<path style="fill-rule:evenodd;clip-rule:evenodd;fill:#B9692F;" d="M95.55,43.2l-0.1-4.6C95.15,27.667,95,14.95,95,0.45
			l0.35,0.05l0.2,5.4c0.434,8.3,0.833,18.617,1.2,30.95l0.1,4.45c0.233,13.034,0.067,23.917-0.5,32.65l-0.6,9.65
			c-0.033,0.933-0.083,2.316-0.15,4.15c-0.399,3.267-0.333,6.783,0.2,10.55c0.134,1.066,0.333,2.2,0.601,3.4l1.25,5.149
			c1.5,6.233,2.25,13.25,2.25,21.051c0,5.233-0.417,12.333-1.25,21.3l-0.601,12.85c0.167,3.101,0.434,6,0.8,8.7l-1.649,0.2
			c-0.467-2.934-0.75-5.717-0.851-8.351V159.4l1.2-11.551c0.833-7.666,1.2-14.399,1.101-20.199c-0.101-7.233-0.9-13.817-2.4-19.75
			l-1.55-8.75c-0.434-3.934-0.434-7.733,0-11.4l0.95-12.85c0.6-4.533,0.816-9.783,0.649-15.75C95.967,52.117,95.717,46.8,95.55,43.2
			z"/>
		<path style="fill-rule:evenodd;clip-rule:evenodd;fill:#B9692F;" d="M98.75,0.95c0.066,5.367,0.2,9.966,0.4,13.8L99.55,36.8
			c0.434,15.1,0.351,28.983-0.25,41.65l-0.399,4.8c-1.2,4.366-1.584,8.9-1.15,13.6c0.167,1.601,0.383,3.051,0.65,4.351
			c0.666,1.833,1.267,3.6,1.8,5.3c2.7,6.267,3.899,13.8,3.6,22.6c-0.167,4.934-1.1,12.567-2.8,22.9l-1.2,7.1c0,1,0.066,2.5,0.2,4.5
			c0.133,2.167,0.417,4.434,0.85,6.801L99.6,170.6c-0.5-2.166-0.85-4.333-1.05-6.5c-0.133-1.166-0.2-2.466-0.2-3.899V156
			c0.067-1.833,0.283-3.3,0.65-4.4c2.233-6.733,3.2-14.233,2.9-22.5c-0.233-6.466-1.317-13.933-3.25-22.399l-1.7-9.101
			c-0.467-4.566-0.417-8.949,0.149-13.149L97.9,75.7c0.466-10.1,0.633-23.284,0.5-39.55l-0.25-35.3L98.75,0.95z"/>
		<path style="fill-rule:evenodd;clip-rule:evenodd;fill:#B9692F;" d="M100.95,37.7l-0.25-16.6c-0.267-6.167-0.434-12.8-0.5-19.9
			l1.7,0.3c-0.101,5.833-0.117,12.4-0.051,19.7l0.051,11.2c-0.034,1.767,0.133,9.833,0.5,24.2c0.232,9.7-0.2,17.617-1.301,23.75
			l-0.3,4.6c-0.2,1.533-0.316,2.666-0.35,3.399c-0.101,1.167-0.15,2.301-0.15,3.4c0.134,3.2,0.217,5.017,0.25,5.45
			c0.167,2.1,0.467,3.899,0.9,5.399c0.866,2.2,1.467,3.867,1.8,5c0.467,1.434,0.917,2.967,1.35,4.601
			c1.367,6.533,1.75,14.283,1.15,23.25c-0.333,5.233-1.117,13.083-2.35,23.55c0,0.967-0.051,2.434-0.15,4.4
			c-0.033,1.699,0.133,3.166,0.5,4.399l0.15,2l-2.051,0.4l-0.449-2.3c-0.867-2.733-1.018-5.7-0.45-8.9
			c1.633-10.167,2.666-17.767,3.1-22.8c0.667-8.434,0.483-15.967-0.55-22.601c-0.4-1.767-0.816-3.366-1.25-4.8
			c-0.434-1.5-0.983-3.083-1.65-4.75c-0.467-1.434-0.967-2.767-1.5-4c-0.033-1.467-0.033-2.95,0-4.45c0-0.366,0.25-4.733,0.75-13.1
			l0.301-5.2c0.533-5.667,0.833-12.283,0.899-19.85C100.983,48.75,100.95,42.167,100.95,37.7z"/>
		<path style="fill-rule:evenodd;clip-rule:evenodd;fill:#B9692F;" d="M103.45,26.05c-0.4-7.2-0.517-15.316-0.351-24.35l2.101,0.5
			c0,0.066-0.101,9.383-0.3,27.95v5.05c0,2.267,0.199,9.583,0.6,21.95c0.267,8.767,0.2,15.983-0.2,21.65
			c-0.033,1.6-0.133,3.2-0.3,4.8c0.1,1.5-0.367,4.3-1.4,8.4c-0.866,3.434-0.933,6.15-0.199,8.15c0.533,1.5,1.033,3.083,1.5,4.75
			c0.533,1.633,0.966,3.183,1.3,4.649c1.8,8.101,2.5,17.467,2.1,28.101c-0.167,4.633-0.95,14.1-2.35,28.399l-0.101,3.3L104,169.8
			l-0.05-1.7c1.267-12.666,2.1-22.166,2.5-28.5c0.666-11.066,0.233-20.633-1.3-28.699l-2.15-10c-0.7-4.067-1.15-7.617-1.35-10.65
			c0.066-1.767,0.216-3.517,0.449-5.25l0.45-5.15c1.2-6.6,1.767-14.5,1.7-23.7c-0.333-10.733-0.566-18.816-0.7-24.25L103.45,26.05z"
			/>
		<path style="fill-rule:evenodd;clip-rule:evenodd;fill:#B9692F;" d="M111,3.7l-0.4,26.45c0.467,13,0.117,28.6-1.05,46.8
			l-0.35,5.25c-0.267,5-0.217,10.434,0.149,16.3l0.25,3.25c1.167,9.467,1.634,20.3,1.4,32.5c-0.134,6.767-0.667,17.667-1.6,32.7v1.5
			l-0.7,0.2l0.05-1.2c-0.066-3.233,0.25-13.884,0.95-31.95c0.5-13,0.116-23.6-1.15-31.8l-0.3-3.601
			c-0.3-4.333-0.45-7.916-0.45-10.75c-0.167-1.333-0.133-3.05,0.101-5.149c0.333-2.967,0.517-4.717,0.55-5.25l0.35-4.9
			c0.333-6.066,0.517-13.4,0.55-22c0-9.733,0.017-17.033,0.051-21.9L109.8,3.4L111,3.7z"/>
		<path style="fill-rule:evenodd;clip-rule:evenodd;fill:#B9692F;" d="M113.8,39.85c-0.033-2.934,0.083-8.434,0.351-16.5
			c0.232-6.934,0.267-12.383,0.1-16.35l0.05-2.2l0.95,0.35c-0.066,17.367-0.184,30.467-0.35,39.3L114.8,47.8
			c-0.1,5.167-0.116,10.95-0.05,17.35l-0.25,10.4c-0.333,5.7-0.55,11.816-0.65,18.351l-0.1,3.699
			c-0.467,7.267-0.55,16.434-0.25,27.5c-0.066,19.7-0.267,33.784-0.6,42.25l-0.95,0.351v-0.351l0.25-3.399
			c0.8-8.733,1.05-19.533,0.75-32.4c-0.5-14.3-0.767-25.017-0.8-32.149L112.1,96.1c-0.066-6.199,0.101-11.649,0.5-16.35l0.25-4.55
			c0.233-4.434,0.434-8.95,0.601-13.55l0.1-5.45c0.033-0.9,0.101-4.534,0.2-10.9L113.8,39.85z"/>
		<path style="fill-rule:evenodd;clip-rule:evenodd;fill:#B9692F;" d="M116.2,46.4c-0.167-5.367-0.167-12.167,0-20.4
			c0.267-12.433,0.399-19.217,0.399-20.35l1,0.4c-0.033,4.767-0.183,11.967-0.449,21.6c-0.167,8.633-0.134,15.833,0.1,21.6l0.05,4.7
			c0,8.667-0.116,15.183-0.35,19.55l-0.55,7.9c-0.268,10.167-0.483,23.683-0.65,40.55c-0.233,20.2-0.417,33.684-0.55,40.45
			l-0.351,4.3l-1.8,0.6l0.3-2.55c0.467-5.767,0.667-12.384,0.601-19.85c0-2.067-0.15-8.667-0.45-19.801
			c0.066-18.833,0.434-33.816,1.1-44.95l0.65-9.25c0.5-6.1,0.8-12.917,0.9-20.45L116.2,46.4z"/>
		<path style="fill-rule:evenodd;clip-rule:evenodd;fill:#B9692F;" d="M113.5,125.1c0.3,11.134,0.45,17.733,0.45,19.801
			c0.066,7.466-0.134,14.083-0.601,19.85l-0.3,2.55l-0.149,0.05C113.233,158.884,113.434,144.8,113.5,125.1z"/>
		<path style="fill-rule:evenodd;clip-rule:evenodd;fill:#B9692F;" d="M122.15,29.5c0.267-11.967,0.399-19.066,0.399-21.3l1.55,0.75
			c0,4.7-0.1,12.133-0.3,22.3c-0.167,9.633-0.25,17.017-0.25,22.15L123.4,76.25c0.1,1.833,0.116,3.867,0.05,6.1
			c-0.467,8.4-1.367,20.867-2.7,37.4c-0.934,14.533-0.983,26.95-0.15,37.25l0.7,7.1l-2,0.9c0.333-2.1,0.434-3.95,0.3-5.55
			c-1.467-11.101-1.816-23.816-1.05-38.15c1.367-16.733,2.367-29.366,3-37.9l0.2-4.5c0.066-1.5,0.066-3,0-4.5l0.1-4.75
			c0.101-9.4,0.15-14.117,0.15-14.15l0.05-4.6C121.917,45.3,121.95,38.167,122.15,29.5z"/>
		<path style="fill-rule:evenodd;clip-rule:evenodd;fill:#B9692F;" d="M124.75,30.45c0.2-10.4,0.316-17.4,0.35-21l0.65,0.35
			c-0.134,14.833-0.2,22.517-0.2,23.05c-0.033,8.733,0.101,16.4,0.4,23l0.1,4.75c0.066,5.333,0.083,9.316,0.05,11.95l-0.05,4
			c0.033,1.8,0,3.784-0.1,5.95c-0.067,1.333-0.233,3.3-0.5,5.9c-4.733,25.366-5.533,49.216-2.4,71.55l0.351,3.2l-1.801,0.8
			l-0.05-2.05c-0.434-20.634-0.616-32.884-0.55-36.75c0.2-14.134,1.333-26.4,3.4-36.801c0.166-2.166,0.25-4.149,0.25-5.95
			c0-2.167-0.067-4.167-0.2-6l0.1-24.85C124.517,46.25,124.583,39.217,124.75,30.45z"/>
		<path style="fill-rule:evenodd;clip-rule:evenodd;fill:#B9692F;" d="M126.8,33.4c-0.233-10.066-0.366-17.816-0.399-23.25
			l0.949,0.5c0.033,5.434,0.15,13.567,0.351,24.4c0.2,10.833,0.316,18.95,0.35,24.35l-0.3,12.9c0.133,3.634,0.066,7.567-0.2,11.8
			l-0.3,3.9c-0.5,5.167-1.417,12.95-2.75,23.35c-1.1,9.334-1.634,17.25-1.6,23.75c-0.801-17.933,0.533-33.566,4-46.899l0.149-3.6
			c-0.033-4.867-0.033-8.55,0-11.05l0.15-16.95C127.167,51.833,127.033,44.1,126.8,33.4z"/>
		<path style="fill-rule:evenodd;clip-rule:evenodd;fill:#B9692F;" d="M123.9,150.6c-0.667-4.966-1-10.133-1-15.5
			C123.033,138.6,123.366,143.767,123.9,150.6z"/>
		<path style="fill-rule:evenodd;clip-rule:evenodd;fill:#B9692F;" d="M123.9,150.6c0.333,2.301,0.699,4.434,1.1,6.4l0.85,4.85
			L125,162.3L123.9,150.6z"/>
		<path style="fill-rule:evenodd;clip-rule:evenodd;fill:#B9692F;" d="M134.2,21.45c0.166,2.367,0.366,4.716,0.6,7.05
			c0.767,5.033,1.333,9.167,1.7,12.4C135.233,35.067,134.467,28.583,134.2,21.45z"/>
		<path style="fill-rule:evenodd;clip-rule:evenodd;fill:#B9692F;" d="M135.9,82.85L135.8,89.9c-0.1,1.6-0.267,3.05-0.5,4.35
			l-1.05,6c0.3-2.866,0.616-5.384,0.95-7.55L135.9,82.85z"/>
		<path style="fill-rule:evenodd;clip-rule:evenodd;fill:#B9692F;" d="M134.2,69.8l1.149-9.05c0.667-2.867,1.167-5.033,1.5-6.5
			c-0.033,1.1-0.133,2.233-0.3,3.4l-2,16.8c0.3,3.833,0.316,7.716,0.05,11.65c-0.066,1.3-0.166,2.567-0.3,3.8l-0.149,0.85V87.6
			c-0.134-3-0.233-5.25-0.301-6.75c-0.1-2.667-0.083-4.967,0.051-6.9C133.934,72.617,134.033,71.233,134.2,69.8z"/>
		<path style="fill-rule:evenodd;clip-rule:evenodd;fill:#B9692F;" d="M133.1,108.05l1.15-7.8l-0.35,3.4
			c-0.2,3.566-0.301,5.383-0.301,5.449c-0.233,7.101-0.133,14.934,0.301,23.5c0.3,5.934,0.85,13.7,1.649,23.301l-0.649,0.449
			c-0.667-6.199-1.518-11.866-2.551-17c-0.866-4.767-1.133-10.05-0.8-15.85C131.684,120.533,132.2,115.384,133.1,108.05z"/>
		<path style="fill-rule:evenodd;clip-rule:evenodd;fill:#B9692F;" d="M136.5,40.9l0.75,3.3c0.7,2.767,0.566,6.117-0.4,10.05
			C137.116,50.25,137,45.8,136.5,40.9z"/>
		<path style="fill-rule:evenodd;clip-rule:evenodd;fill:#B9692F;" d="M137.15,33.6c-0.768-7.9-1.301-13.833-1.601-17.8l0.25,0.2
			c0.4,4.6,1.066,11.467,2,20.6c0.667,8.033,0.783,14.95,0.351,20.75l-2.25,25.5l0.149-8.95c0.134-3,0.367-6.316,0.7-9.95l0.5-4.95
			c0-0.867,0.167-2.117,0.5-3.75c0.333-1.667,0.5-2.9,0.5-3.7C138.116,46.717,137.75,40.733,137.15,33.6z"/>
		<path style="fill-rule:evenodd;clip-rule:evenodd;fill:#B9692F;" d="M134.15,90.75v1.35l-1.7,9.7
			c-3.101,18.9-3.084,36.417,0.05,52.55c-3.9-17.6-3.917-35.733-0.05-54.399L134.15,90.75z"/>
		<path style="fill-rule:evenodd;clip-rule:evenodd;fill:#B9692F;" d="M134.8,28.5c-0.233-2.333-0.434-4.683-0.6-7.05L134,14.7
			l1.55,1.1c0.3,3.967,0.833,9.9,1.601,17.8c0.6,7.133,0.966,13.117,1.1,17.95c0,0.8-0.167,2.034-0.5,3.7
			c-0.333,1.633-0.5,2.883-0.5,3.75l-0.5,4.95c-0.333,3.633-0.566,6.95-0.7,9.95l-0.85,18.8c-0.334,2.166-0.65,4.684-0.95,7.55
			l-1.15,7.8c-0.899,7.334-1.416,12.483-1.55,15.45c-0.333,5.8-0.066,11.083,0.8,15.85c1.033,5.134,1.884,10.801,2.551,17
			l-1.65,1.15l-0.75-3.15c-3.134-16.133-3.15-33.649-0.05-52.55l1.7-9.7v-1.35l0.149-0.85c0.134-1.233,0.233-2.5,0.3-3.8
			c0.267-3.934,0.25-7.817-0.05-11.65l2-16.8c0.167-1.167,0.267-2.3,0.3-3.4c0.967-3.933,1.101-7.283,0.4-10.05l-0.75-3.3
			C136.133,37.667,135.566,33.533,134.8,28.5z"/>
		<path style="fill-rule:evenodd;clip-rule:evenodd;fill:#B9692F;" d="M141.85,47.9c0.134-3,0.084-5.7-0.149-8.1
			c-0.867-5.767-1.417-12.633-1.65-20.6l0.851,0.7c0.066,1.567,0.166,3.117,0.3,4.65c0.166,3.6,0.583,9,1.25,16.2
			c0.467,6.434,0.433,11.867-0.101,16.3c0,0.067-0.1,1.634-0.3,4.7c-0.2,3.067-0.55,7.633-1.05,13.7l-0.2,3.45
			c0.167,3.7,0.217,7.417,0.15,11.15l-0.3,13.45c0,0.366-0.483,5.95-1.45,16.75c-0.567,6.634-0.55,12.184,0.05,16.65
			c0.5,5.166,0.9,10.25,1.2,15.25l-1.3,1.05c-0.5-10.101-0.801-17.867-0.9-23.3c-0.167-8.634-0.033-16.45,0.4-23.45l0.55-13.8
			c0.1-4.101,0.149-8.184,0.149-12.25l0.15-3.3c0.066-1.033,0.5-6.55,1.3-16.55l0.4-4.55C141.533,52.4,141.75,49.7,141.85,47.9z"/>
		<path style="fill-rule:evenodd;clip-rule:evenodd;fill:#B9692F;" d="M146.15,24.7l1.399,1.4l0.2,80.05
			c-0.333,6.566-0.5,13.466-0.5,20.699c-0.2,5.967-0.267,12.4-0.2,19.301l-1.25,1.199c-0.399-15.6-0.149-29.216,0.75-40.85v-8.1
			c-0.066-4.4-0.184-8.351-0.35-11.851l0.399-30.5C146.6,50.817,146.45,40.367,146.15,24.7z"/>
		<path style="fill-rule:evenodd;clip-rule:evenodd;fill:#B9692F;" d="M147.6,26.15l1.351,1.4c-0.267,12.467-0.4,21.767-0.4,27.9
			l0.101,5.2c0.333,10.4,0.517,18.2,0.55,23.4l0.05,8.9c0.167,1.366,0.283,2.934,0.35,4.7c0.101,1.366,0.117,2.949,0.051,4.75
			l-0.15,4.5c-0.733,5.666-1.134,11.899-1.2,18.699c-0.033,4.967,0.117,11.217,0.45,18.75c-0.533,0.634-0.983,1.101-1.35,1.4
			c-0.134-8.4-0.184-14.7-0.15-18.9c0.2-7.1,0.517-13.75,0.95-19.949l-0.101-4.7c-0.033-1.066-0.149-2.634-0.35-4.7L147.6,26.15z"/>
		<path style="fill-rule:evenodd;clip-rule:evenodd;fill:#B9692F;" d="M147.75,97.5c0.2,2.066,0.316,3.634,0.35,4.7l0.101,4.7
			c-0.434,6.199-0.75,12.85-0.95,19.949c0-7.233,0.167-14.133,0.5-20.699l-0.175-13.825L147.75,97.5z"/>
		<path style="fill-rule:evenodd;clip-rule:evenodd;fill:#B9692F;" d="M151.2,30.1l0.7,0.8c-0.7,10.467-0.967,18.517-0.801,24.15
			l0.4,4.85c0.1,2.034,0.366,5.95,0.8,11.75c0.367,4.967,0.583,8.917,0.65,11.85l0.1,23.2c0,0.934-0.066,2.399-0.2,4.399
			c-0.666,6.967-0.683,16.5-0.05,28.601l-1.399,1.649c-0.134-4.633-0.134-10.333,0-17.1c0.199-7.6,0.316-13.267,0.35-17l0.15-24.75
			c-0.067-3.5-0.233-7.9-0.5-13.2c-0.467-8.7-0.7-13.116-0.7-13.25L150.55,51C150.55,45.733,150.767,38.767,151.2,30.1z"/>
		<path style="fill-rule:evenodd;clip-rule:evenodd;fill:#B9692F;" d="M153.3,47.15c0.101-1.466,0.15-2.617,0.15-3.45
			c0.533-3.3,0.967-6.367,1.3-9.2l0.7,1c-0.601,6-0.884,11.017-0.851,15.05l0.301,4.7c0.333,3.967,1.166,10.267,2.5,18.9
			c0.199,1.567,0.267,3.45,0.199,5.65c-0.133,3.733-0.199,5.684-0.199,5.85l0.199,5.45c0.167,1.667,0.267,3.301,0.301,4.9l-0.2,18
			c-0.3,9.667-0.45,16.217-0.45,19.65l-1.45,2.05c-0.333-9.2-0.2-17.117,0.4-23.75l0.05-24.7c0.3-4.367,0.15-9.6-0.45-15.7
			c-0.767-6.933-1.316-12.15-1.649-15.65c-0.2-2.333-0.317-4.083-0.351-5.25C153.467,49.617,153.3,48.45,153.3,47.15z"/>
		<path style="fill-rule:evenodd;clip-rule:evenodd;fill:#B9692F;" d="M159.2,48.65c-0.033-1.1-0.017-2.783,0.05-5.05l0.1-2.3
			c0.5,0.8,1,1.684,1.5,2.65c-0.333,6.833,0.283,14.05,1.851,21.65c0.399,2.667,0.616,5.083,0.649,7.25l-0.25,2.75l0.5,30.5
			c-0.133,5.134-0.149,10.567-0.05,16.301v0.3l-0.75,1.55l-0.75-45c-0.167-3.167-0.684-8.316-1.55-15.45
			C159.733,57.267,159.3,52.217,159.2,48.65z"/>
		<path style="fill-rule:evenodd;clip-rule:evenodd;fill:#B9692F;" d="M161.1,44.35l1.351,2.55v2c0,1.534,0.05,3.1,0.149,4.7
			c0.067,0.967,0.15,2.5,0.25,4.6c0.167,1.933,0.4,3.566,0.7,4.9l0.9,4.8v5.45c0.133,4.933,0.366,12.517,0.7,22.75l0.1,22.801
			l-1.3,2.899c-0.167-5.733-0.134-10.6,0.1-14.6V94.85c-0.033-1.899-0.217-7.017-0.55-15.35l-0.15-3.9c0.067-0.9,0.067-1.817,0-2.75
			c0.2-1.934,0.184-3.467-0.05-4.6l-0.6-2.65c-0.733-4.667-1.233-8.184-1.5-10.55C160.767,51.017,160.733,47.45,161.1,44.35z"/>
		<path style="fill-rule:evenodd;clip-rule:evenodd;fill:#B9692F;" d="M163.3,68.25c0.233,1.133,0.25,2.667,0.05,4.6
			c-0.033-2.167-0.25-4.583-0.649-7.25L163.3,68.25z"/>
		<path style="fill-rule:evenodd;clip-rule:evenodd;fill:#B9692F;" d="M166.95,69.1v-5.7c-0.4-3.1-0.684-5.9-0.851-8.4
			c0.801,2.1,1.45,3.95,1.95,5.55l1,47.101c-0.566,2.033-1.05,3.649-1.45,4.85l-0.05-19.55C167.45,85.05,167.25,77.1,166.95,69.1z"
			/>
	</g>
	
		<linearGradient id="SVGID_8_" gradientUnits="userSpaceOnUse" x1="-172.3853" y1="85.9004" x2="-0.6855" y2="85.9004" gradientTransform="matrix(5.822417e-006 -1 1 -0.001 -1.609481e-004 4.683650e-004)">
		<stop  offset="0.0196" style="stop-color:#873A11"/>
		<stop  offset="0.1255" style="stop-color:#95542A;stop-opacity:0.851"/>
		<stop  offset="0.3569" style="stop-color:#B28969;stop-opacity:0.549"/>
		<stop  offset="0.5686" style="stop-color:#C9B29C;stop-opacity:0.3137"/>
		<stop  offset="0.7529" style="stop-color:#D9D0C2;stop-opacity:0.1412"/>
		<stop  offset="0.898" style="stop-color:#E3E2D8;stop-opacity:0.0353"/>
		<stop  offset="0.9882" style="stop-color:#E7E9E1;stop-opacity:0"/>
	</linearGradient>
	<path style="fill-rule:evenodd;clip-rule:evenodd;fill:url(#SVGID_8_);" d="M119.3,7.35c10.267,4.367,19.367,10.517,27.3,18.45
		c7.934,7.9,14.084,17,18.45,27.3c4.5,10.633,6.75,21.767,6.75,33.4c0,11.634-2.25,22.75-6.75,33.35
		c-4.366,10.267-10.517,19.367-18.45,27.301c-7.933,7.899-17.033,14.033-27.3,18.399c-10.633,4.5-21.767,6.75-33.399,6.75
		c-11.634,0-22.767-2.25-33.4-6.75c-10.267-4.333-19.367-10.467-27.3-18.399c-7.934-7.934-14.083-17.034-18.45-27.301
		C2.25,109.217,0,98.1,0,86.5c0-11.633,2.25-22.767,6.75-33.4c4.367-10.267,10.517-19.367,18.45-27.3
		c7.933-7.933,17.033-14.083,27.3-18.45C63.133,2.85,74.267,0.6,85.9,0.6C97.533,0.6,108.667,2.85,119.3,7.35z"/>
	<g>
		<g>
			
				<linearGradient id="SVGID_9_" gradientUnits="userSpaceOnUse" x1="-158.4351" y1="85.9756" x2="-13.4355" y2="85.9756" gradientTransform="matrix(6.895364e-006 -1 1 -0.001 2.366505e-004 4.683650e-004)">
				<stop  offset="0" style="stop-color:#F2D9C4"/>
				<stop  offset="0.0863" style="stop-color:#E9CCB7;stop-opacity:0.8745"/>
				<stop  offset="0.3176" style="stop-color:#D6AE99;stop-opacity:0.5922"/>
				<stop  offset="0.5176" style="stop-color:#C99C87;stop-opacity:0.4196"/>
				<stop  offset="0.6549" style="stop-color:#C59580;stop-opacity:0.3569"/>
				<stop  offset="1" style="stop-color:#5D2D23"/>
			</linearGradient>
			<path style="fill-rule:evenodd;clip-rule:evenodd;fill:url(#SVGID_9_);" d="M137.25,34.6c6.7,6.7,11.883,14.383,15.55,23.05
				c3.8,9,5.7,18.417,5.7,28.25c0,9.833-1.9,19.234-5.7,28.2c-3.667,8.667-8.85,16.351-15.55,23.051
				c-6.7,6.666-14.384,11.833-23.05,15.5c-9,3.8-18.417,5.699-28.25,5.699c-9.833,0-19.233-1.899-28.2-5.699
				c-8.7-3.667-16.383-8.834-23.05-15.5c-6.7-6.7-11.884-14.384-15.55-23.051c-3.8-8.966-5.7-18.366-5.7-28.2
				c0-9.833,1.9-19.25,5.7-28.25C22.816,48.983,28,41.3,34.7,34.6c6.667-6.7,14.35-11.883,23.05-15.55
				c8.967-3.8,18.367-5.7,28.2-5.7c9.833,0,19.25,1.9,28.25,5.7C122.866,22.717,130.55,27.9,137.25,34.6z"/>
		</g>
	</g>
	<g>
		
			<linearGradient id="SVGID_10_" gradientUnits="userSpaceOnUse" x1="-151.7852" y1="85.5259" x2="-20.085" y2="85.5259" gradientTransform="matrix(7.590133e-006 -1 1 -0.001 9.770805e-006 4.683650e-004)">
			<stop  offset="0.0745" style="stop-color:#64953A"/>
			<stop  offset="0.2196" style="stop-color:#7AAE4D"/>
			<stop  offset="0.3686" style="stop-color:#94CC63"/>
			<stop  offset="0.5882" style="stop-color:#CCDC58"/>
			<stop  offset="0.8118" style="stop-color:#D3DE57"/>
			<stop  offset="1" style="stop-color:#FFECB6"/>
		</linearGradient>
		<path style="fill-rule:evenodd;clip-rule:evenodd;fill:url(#SVGID_10_);" d="M132.1,39.3C144.967,52.2,151.4,67.733,151.4,85.9
			s-6.434,33.667-19.301,46.5c-12.899,12.866-28.433,19.3-46.6,19.3c-18.167,0-33.684-6.434-46.55-19.3
			c-12.867-12.867-19.3-28.367-19.3-46.5c0-18.167,6.434-33.7,19.3-46.6C51.816,26.434,67.333,20,85.5,20
			C103.667,20,119.2,26.434,132.1,39.3z"/>
		<path style="fill-rule:evenodd;clip-rule:evenodd;fill:#174718;" d="M131.55,39.9c-12.733-12.7-28.083-19.05-46.05-19.05
			s-33.3,6.35-46,19.05c-12.7,12.7-19.05,28.034-19.05,46c0,17.933,6.35,33.25,19.05,45.95c12.7,12.7,28.033,19.051,46,19.051
			s33.316-6.351,46.05-19.051c12.7-12.666,19.05-27.983,19.05-45.95S144.25,52.6,131.55,39.9z M111.05,24.25
			c8.134,3.333,15.351,8.15,21.65,14.45c6.3,6.3,11.133,13.517,14.5,21.65c3.366,8.1,5.05,16.617,5.05,25.55
			c0,8.9-1.684,17.4-5.05,25.5c-3.367,8.133-8.2,15.333-14.5,21.6c-6.3,6.3-13.517,11.134-21.65,14.5
			c-8.1,3.366-16.616,5.05-25.55,5.05c-8.9,0-17.4-1.684-25.5-5.05c-8.133-3.366-15.35-8.2-21.65-14.5
			c-6.3-6.267-11.133-13.467-14.5-21.6C20.483,103.3,18.8,94.8,18.8,85.9c0-8.933,1.684-17.45,5.05-25.55
			c3.367-8.133,8.2-15.35,14.5-21.65c6.3-6.3,13.517-11.117,21.65-14.45c8.1-3.367,16.6-5.05,25.5-5.05
			C94.434,19.2,102.95,20.883,111.05,24.25z"/>
	</g>
	
		<radialGradient id="SVGID_11_" cx="85.5254" cy="83.7251" r="59.0999" gradientTransform="matrix(1 0 0 -1 0 167.4502)" gradientUnits="userSpaceOnUse">
		<stop  offset="0" style="stop-color:#FFECB6"/>
		<stop  offset="0.1882" style="stop-color:#D3DE57"/>
		<stop  offset="0.5137" style="stop-color:#CCDC58"/>
		<stop  offset="1" style="stop-color:#97CD63;stop-opacity:0.5373"/>
	</radialGradient>
	<path style="fill-rule:evenodd;clip-rule:evenodd;fill:url(#SVGID_11_);" d="M127.35,42C138.917,53.533,144.7,67.45,144.7,83.75
		s-5.783,30.217-17.351,41.75c-11.533,11.5-25.467,17.25-41.8,17.25c-16.366,0-30.316-5.75-41.85-17.25
		c-11.567-11.533-17.35-25.45-17.35-41.75S32.133,53.533,43.7,42c11.566-11.533,25.517-17.3,41.85-17.3S115.816,30.467,127.35,42z"
		/>
	<g>
		<g>
			<path style="fill-rule:evenodd;clip-rule:evenodd;fill:#EAF6C2;" d="M75.7,45.4c-2.4,2.8-4.067,4.784-5,5.95h6.05
				c1.7,0,2.55,0.733,2.55,2.2c0,0.7-0.233,1.25-0.7,1.65c-0.434,0.333-0.983,0.5-1.65,0.5H65.9c-1.7,0-2.55-0.717-2.55-2.15
				c0-0.566,0.25-1.133,0.75-1.7c0.933-1.067,2.333-2.667,4.2-4.8c1.634-1.9,2.967-3.583,4-5.05c0.767-1.133,1.15-2.167,1.15-3.1
				c0-0.7-0.217-1.3-0.65-1.8c-0.466-0.5-1.033-0.75-1.7-0.75c-1.333,0-2.267,0.9-2.8,2.7c-0.566,1.767-1.35,2.65-2.35,2.65
				c-0.767,0-1.367-0.233-1.8-0.7c-0.4-0.433-0.6-1-0.6-1.7c0-2.033,0.784-3.8,2.35-5.3c1.534-1.467,3.333-2.2,5.4-2.2
				c2.067,0,3.784,0.634,5.15,1.9c1.433,1.267,2.15,2.933,2.15,5C78.6,40.6,77.633,42.833,75.7,45.4z"/>
			<path style="fill-rule:evenodd;clip-rule:evenodd;fill:#EAF6C2;" d="M84.45,32.8c0.333-0.4,0.916-0.6,1.75-0.6h7.95
				c0.732,0,1.316,0.2,1.75,0.6c0.433,0.4,0.649,0.9,0.649,1.5c0,1.634-0.767,2.45-2.3,2.45h-6.2l-0.5,3.5
				c1.066-0.2,1.9-0.3,2.5-0.3c1.967,0,3.601,0.683,4.9,2.05c1.267,1.367,1.899,3.017,1.899,4.95c0,2.8-0.75,5.017-2.25,6.65
				c-1.533,1.667-3.699,2.5-6.5,2.5c-1.467,0-2.967-0.367-4.5-1.1c-1.833-0.9-2.75-2-2.75-3.3c0-0.633,0.233-1.167,0.7-1.6
				c0.434-0.434,0.95-0.65,1.55-0.65c0.367,0,1.1,0.35,2.2,1.05c1.134,0.7,2.101,1.05,2.9,1.05c1.1,0,1.967-0.466,2.6-1.4
				c0.601-0.833,0.9-1.816,0.9-2.95c0-1-0.267-1.8-0.8-2.4c-0.567-0.6-1.351-0.9-2.351-0.9c-0.633,0-1.3,0.184-2,0.55
				S85.217,45,84.65,45c-0.6,0-1.083-0.183-1.45-0.55c-0.333-0.333-0.5-0.667-0.5-1l0.95-8.1
				C83.816,34.083,84.083,33.233,84.45,32.8z"/>
			<path style="fill-rule:evenodd;clip-rule:evenodd;fill:#EAF6C2;" d="M107.7,34.55v18.8c0,0.8-0.233,1.433-0.7,1.9
				c-0.434,0.434-1.017,0.65-1.75,0.65s-1.333-0.216-1.8-0.65c-0.467-0.467-0.7-1.1-0.7-1.9v-16.6h-1.95c-0.733,0-1.3-0.233-1.7-0.7
				c-0.366-0.433-0.55-0.95-0.55-1.55s0.2-1.133,0.601-1.6c0.433-0.466,0.982-0.7,1.649-0.7h4.7c0.667,0,1.217,0.233,1.65,0.7
				C107.517,33.333,107.7,33.883,107.7,34.55z"/>
		</g>
		<g>
			
				<linearGradient id="SVGID_12_" gradientUnits="userSpaceOnUse" x1="-54.7759" y1="71.3281" x2="-30.9009" y2="71.3281" gradientTransform="matrix(4.188482e-005 -1 1 -0.001 2.047477e-004 4.683650e-004)">
				<stop  offset="0.3451" style="stop-color:#224C16"/>
				<stop  offset="0.5216" style="stop-color:#33651E"/>
				<stop  offset="0.902" style="stop-color:#5DA634"/>
				<stop  offset="0.9686" style="stop-color:#65B238"/>
			</linearGradient>
			<path style="fill-rule:evenodd;clip-rule:evenodd;fill:url(#SVGID_12_);" d="M75.7,44.4c-2.4,2.8-4.067,4.784-5,5.95h6.05
				c1.7,0,2.55,0.733,2.55,2.2c0,0.7-0.233,1.25-0.7,1.65c-0.434,0.333-0.983,0.5-1.65,0.5H65.9c-1.7,0-2.55-0.717-2.55-2.15
				c0-0.566,0.25-1.133,0.75-1.7c0.933-1.067,2.333-2.667,4.2-4.8c1.634-1.9,2.967-3.583,4-5.05c0.767-1.133,1.15-2.167,1.15-3.1
				c0-0.7-0.217-1.3-0.65-1.8c-0.466-0.5-1.033-0.75-1.7-0.75c-1.333,0-2.267,0.9-2.8,2.7c-0.566,1.767-1.35,2.65-2.35,2.65
				c-0.767,0-1.367-0.233-1.8-0.7c-0.4-0.433-0.6-1-0.6-1.7c0-2.033,0.784-3.8,2.35-5.3c1.534-1.467,3.333-2.2,5.4-2.2
				c2.067,0,3.784,0.634,5.15,1.9c1.433,1.267,2.15,2.933,2.15,5C78.6,39.6,77.633,41.833,75.7,44.4z"/>
			
				<linearGradient id="SVGID_13_" gradientUnits="userSpaceOnUse" x1="-55.187" y1="88.8525" x2="-31.312" y2="88.8525" gradientTransform="matrix(4.188482e-005 -1 1 -0.001 2.047477e-004 4.683650e-004)">
				<stop  offset="0.3451" style="stop-color:#224C16"/>
				<stop  offset="0.5216" style="stop-color:#33651E"/>
				<stop  offset="0.902" style="stop-color:#5DA634"/>
				<stop  offset="0.9686" style="stop-color:#65B238"/>
			</linearGradient>
			<path style="fill-rule:evenodd;clip-rule:evenodd;fill:url(#SVGID_13_);" d="M84.45,31.8c0.333-0.4,0.916-0.6,1.75-0.6h7.95
				c0.732,0,1.316,0.2,1.75,0.6c0.433,0.4,0.649,0.9,0.649,1.5c0,1.634-0.767,2.45-2.3,2.45h-6.2l-0.5,3.5
				c1.066-0.2,1.9-0.3,2.5-0.3c1.967,0,3.601,0.683,4.9,2.05c1.267,1.367,1.899,3.017,1.899,4.95c0,2.8-0.75,5.017-2.25,6.65
				c-1.533,1.667-3.699,2.5-6.5,2.5c-1.467,0-2.967-0.367-4.5-1.1c-1.833-0.9-2.75-2-2.75-3.3c0-0.633,0.233-1.167,0.7-1.6
				c0.434-0.434,0.95-0.65,1.55-0.65c0.367,0,1.1,0.35,2.2,1.05c1.134,0.7,2.101,1.05,2.9,1.05c1.1,0,1.967-0.466,2.6-1.4
				c0.601-0.833,0.9-1.816,0.9-2.95c0-1-0.267-1.8-0.8-2.4c-0.567-0.6-1.351-0.9-2.351-0.9c-0.633,0-1.3,0.184-2,0.55
				S85.217,44,84.65,44c-0.6,0-1.083-0.183-1.45-0.55c-0.333-0.333-0.5-0.667-0.5-1l0.95-8.1
				C83.816,33.083,84.083,32.233,84.45,31.8z"/>
			
				<linearGradient id="SVGID_14_" gradientUnits="userSpaceOnUse" x1="-55.0039" y1="103.127" x2="-31.3289" y2="103.127" gradientTransform="matrix(4.223865e-005 -1 1 -0.001 1.435880e-004 4.683650e-004)">
				<stop  offset="0.3451" style="stop-color:#224C16"/>
				<stop  offset="0.5216" style="stop-color:#33651E"/>
				<stop  offset="0.902" style="stop-color:#5DA634"/>
				<stop  offset="0.9686" style="stop-color:#65B238"/>
			</linearGradient>
			<path style="fill-rule:evenodd;clip-rule:evenodd;fill:url(#SVGID_14_);" d="M107.7,33.55v18.8c0,0.8-0.233,1.433-0.7,1.9
				c-0.434,0.434-1.017,0.65-1.75,0.65s-1.333-0.216-1.8-0.65c-0.467-0.467-0.7-1.1-0.7-1.9v-16.6h-1.95c-0.733,0-1.3-0.233-1.7-0.7
				c-0.366-0.433-0.55-0.95-0.55-1.55s0.2-1.133,0.601-1.6c0.433-0.466,0.982-0.7,1.649-0.7h4.7c0.667,0,1.217,0.233,1.65,0.7
				C107.517,32.333,107.7,32.883,107.7,33.55z"/>
		</g>
	</g>
	<g>
		<g>
			<g>
				<g>
					<g>
						<g>
							<g>
								
									<linearGradient id="SVGID_15_" gradientUnits="userSpaceOnUse" x1="-70.021" y1="122.0059" x2="-49.0537" y2="122.0059" gradientTransform="matrix(4.767581e-005 -1 1 -0.001 -2.213550e-004 4.674215e-004)">
									<stop  offset="0.3569" style="stop-color:#658234"/>
									<stop  offset="0.4627" style="stop-color:#759B44"/>
									<stop  offset="0.6314" style="stop-color:#94CC63"/>
									<stop  offset="0.9647" style="stop-color:#D9E480"/>
								</linearGradient>
								<path style="fill-rule:evenodd;clip-rule:evenodd;fill:url(#SVGID_15_);" d="M130.2,65.95c-0.767,0.466-1.601,0.7-2.5,0.7
									H126.1l-0.85,1.2c-0.934,1.367-2.233,2.05-3.9,2.05c-0.366,0-0.633-0.017-0.8-0.05c-1.033-0.2-1.899-0.65-2.6-1.35
									c-0.601-0.6-1-1.267-1.2-2l-0.45-1.4l-1.45-0.45c-0.767-0.267-1.416-0.667-1.949-1.2c-0.733-0.7-1.184-1.583-1.351-2.65
									c-0.133-0.9-0.033-1.767,0.3-2.6c0.367-0.833,0.917-1.517,1.65-2.05l1.25-0.9l-0.05-1.5c0-0.9,0.233-1.75,0.7-2.55
									c0.466-0.767,1.116-1.367,1.949-1.8c0.767-0.367,1.634-0.517,2.601-0.45c0.967,0.066,1.783,0.367,2.45,0.9l1.199,0.9
									l1.4-0.5c0.833-0.267,1.717-0.3,2.65-0.1c0.933,0.233,1.699,0.65,2.3,1.25c0.633,0.633,1.066,1.417,1.3,2.35
									c0.2,0.867,0.167,1.733-0.1,2.6l-0.5,1.45l0.899,1.2c0.566,0.733,0.884,1.55,0.95,2.45c0.066,0.9-0.117,1.767-0.55,2.6
									C131.55,64.85,130.967,65.483,130.2,65.95z"/>
								<path style="fill-rule:evenodd;clip-rule:evenodd;fill:none;stroke:#DCF1A5;stroke-width:0.25;" d="M130.2,65.95
									c-0.767,0.466-1.601,0.7-2.5,0.7H126.1l-0.85,1.2c-0.934,1.367-2.233,2.05-3.9,2.05c-0.366,0-0.633-0.017-0.8-0.05
									c-1.033-0.2-1.899-0.65-2.6-1.35c-0.601-0.6-1-1.267-1.2-2l-0.45-1.4l-1.45-0.45c-0.767-0.267-1.416-0.667-1.949-1.2
									c-0.733-0.7-1.184-1.583-1.351-2.65c-0.133-0.9-0.033-1.767,0.3-2.6c0.367-0.833,0.917-1.517,1.65-2.05l1.25-0.9l-0.05-1.5
									c0-0.9,0.233-1.75,0.7-2.55c0.466-0.767,1.116-1.367,1.949-1.8c0.767-0.367,1.634-0.517,2.601-0.45
									c0.967,0.066,1.783,0.367,2.45,0.9l1.199,0.9l1.4-0.5c0.833-0.267,1.717-0.3,2.65-0.1c0.933,0.233,1.699,0.65,2.3,1.25
									c0.633,0.633,1.066,1.417,1.3,2.35c0.2,0.867,0.167,1.733-0.1,2.6l-0.5,1.45l0.899,1.2c0.566,0.733,0.884,1.55,0.95,2.45
									c0.066,0.9-0.117,1.767-0.55,2.6C131.55,64.85,130.967,65.483,130.2,65.95z"/>
							</g>
						</g>
						<path style="fill-rule:evenodd;clip-rule:evenodd;fill:#174718;" d="M129.3,60.65c0.533,0.633,0.601,1.35,0.2,2.15
							c-0.4,0.733-1,1.1-1.8,1.1l-3-0.05l-1.7,2.4c-0.5,0.733-1.167,1.017-2,0.85c-0.434-0.067-0.8-0.25-1.1-0.55
							c-0.2-0.2-0.367-0.483-0.5-0.85l-0.9-2.8l-2.8-0.9c-0.334-0.1-0.617-0.267-0.851-0.5c-0.3-0.3-0.483-0.683-0.55-1.15
							c-0.167-0.767,0.101-1.417,0.8-1.95l2.45-1.7l-0.05-2.95c0-0.867,0.366-1.483,1.1-1.85c0.7-0.367,1.417-0.316,2.15,0.15
							l2.35,1.8l2.801-0.95c0.833-0.267,1.533-0.1,2.1,0.5c0.633,0.567,0.8,1.25,0.5,2.05l-0.95,2.85L129.3,60.65z"/>
						<linearGradient id="SVGID_16_" gradientUnits="userSpaceOnUse" x1="127.5352" y1="63.5356" x2="117.8602" y2="53.8606">
							<stop  offset="0.0235" style="stop-color:#808080"/>
							<stop  offset="0.7294" style="stop-color:#E6E6E6"/>
							<stop  offset="1" style="stop-color:#B3B3B3"/>
						</linearGradient>
						<path style="fill-rule:evenodd;clip-rule:evenodd;fill:url(#SVGID_16_);" d="M128.55,61.2c0.267,0.4,0.3,0.783,0.101,1.15
							c-0.233,0.4-0.567,0.6-1,0.6l-3.45-0.05l-2,2.8c-0.233,0.4-0.584,0.55-1.05,0.45c-0.2,0-0.4-0.1-0.601-0.3
							c-0.133-0.133-0.217-0.283-0.25-0.45l-1.05-3.3l-3.3-1l-0.45-0.3c-0.134-0.133-0.233-0.316-0.3-0.55
							c-0.033-0.433,0.116-0.8,0.45-1.1l2.85-2l-0.05-3.45c0-0.467,0.2-0.784,0.6-0.95c0.367-0.2,0.75-0.167,1.15,0.1l2.75,2.05
							l3.25-1.1c0.433-0.167,0.816-0.083,1.149,0.25c0.334,0.333,0.417,0.7,0.25,1.1l-1.1,3.3L128.55,61.2z"/>
						<path style="fill-rule:evenodd;clip-rule:evenodd;fill:#FFFFFF;" d="M119.65,53.25c-0.4,0.233-0.584,0.567-0.551,1l0.051,3.45
							l-2.851,2c-0.366,0.2-0.517,0.55-0.45,1.05c0,0.133,0.051,0.25,0.15,0.35h-0.05l-0.45-0.3c-0.134-0.133-0.233-0.316-0.3-0.55
							c-0.033-0.433,0.116-0.8,0.45-1.1l2.85-2l-0.05-3.45c0-0.467,0.2-0.784,0.6-0.95c0.367-0.2,0.75-0.167,1.15,0.1l2.75,2.05
							l3.25-1.1c0.433-0.167,0.816-0.083,1.149,0.25l0.101,0.25c-0.2-0.033-0.4-0.033-0.601,0l-3.25,1.1l-2.8-2.05
							C120.467,53.083,120.083,53.05,119.65,53.25z"/>
					</g>
				</g>
			</g>
		</g>
		<g>
			<g>
				<g>
					<g>
						<g>
							
								<linearGradient id="SVGID_17_" gradientUnits="userSpaceOnUse" x1="-69.5991" y1="48.874" x2="-48.9741" y2="48.874" gradientTransform="matrix(4.848485e-005 -1 1 -0.001 5.455753e-006 -2.498261e-005)">
								<stop  offset="0.3569" style="stop-color:#658234"/>
								<stop  offset="0.4627" style="stop-color:#759B44"/>
								<stop  offset="0.6314" style="stop-color:#94CC63"/>
								<stop  offset="0.9647" style="stop-color:#D9E480"/>
							</linearGradient>
							<path style="fill-rule:evenodd;clip-rule:evenodd;fill:url(#SVGID_17_);" d="M58.85,58.1c0.333,0.8,0.433,1.633,0.3,2.5
								c-0.133,0.967-0.566,1.833-1.3,2.6c-0.6,0.533-1.233,0.9-1.9,1.1l-1.55,0.5l-0.45,1.5c-0.233,0.767-0.617,1.4-1.15,1.9
								c-0.733,0.733-1.583,1.167-2.55,1.3l-0.7,0.05c-1.633,0-2.9-0.65-3.8-1.95l-0.9-1.3l-1.65,0.05
								c-0.867,0-1.684-0.233-2.45-0.7c-0.733-0.466-1.3-1.083-1.7-1.85c-0.4-0.8-0.566-1.633-0.5-2.5
								c0.1-0.866,0.417-1.65,0.95-2.35l0.95-1.3l-0.55-1.5c-0.267-0.833-0.3-1.683-0.1-2.55c0.2-0.867,0.6-1.6,1.2-2.2
								c0.967-0.9,2.066-1.35,3.3-1.35c0.434,0,0.934,0.083,1.5,0.25l1.5,0.5l1.25-0.95c0.8-0.6,1.733-0.9,2.8-0.9
								c0.767,0,1.466,0.167,2.1,0.5c0.767,0.4,1.383,0.966,1.85,1.7c0.467,0.767,0.684,1.583,0.65,2.45v1.6l1.3,0.95
								C57.983,56.65,58.517,57.3,58.85,58.1z"/>
							<path style="fill-rule:evenodd;clip-rule:evenodd;fill:none;stroke:#DCF1A5;stroke-width:0.25;" d="M58.85,58.1
								c-0.333-0.8-0.867-1.45-1.6-1.95l-1.3-0.95v-1.6c0.033-0.867-0.184-1.684-0.65-2.45c-0.466-0.733-1.083-1.3-1.85-1.7
								c-0.634-0.333-1.333-0.5-2.1-0.5c-1.067,0-2,0.3-2.8,0.9L47.3,50.8l-1.5-0.5c-0.566-0.167-1.066-0.25-1.5-0.25
								c-1.233,0-2.333,0.45-3.3,1.35c-0.6,0.6-1,1.333-1.2,2.2c-0.2,0.867-0.167,1.717,0.1,2.55l0.55,1.5l-0.95,1.3
								c-0.533,0.7-0.85,1.483-0.95,2.35c-0.066,0.867,0.1,1.7,0.5,2.5c0.4,0.767,0.967,1.384,1.7,1.85
								c0.767,0.467,1.583,0.7,2.45,0.7l1.65-0.05l0.9,1.3c0.9,1.3,2.167,1.95,3.8,1.95l0.7-0.05c0.967-0.133,1.816-0.566,2.55-1.3
								c0.534-0.5,0.917-1.133,1.15-1.9l0.45-1.5l1.55-0.5c0.667-0.2,1.3-0.566,1.9-1.1c0.733-0.767,1.167-1.633,1.3-2.6
								C59.283,59.733,59.184,58.9,58.85,58.1z"/>
						</g>
						<path style="fill-rule:evenodd;clip-rule:evenodd;fill:#174718;" d="M50.1,51.9c0.667-0.5,1.383-0.55,2.15-0.15
							c0.8,0.4,1.167,1,1.1,1.8v3l2.4,1.7c0.667,0.467,0.95,1.117,0.85,1.95c-0.1,0.466-0.3,0.85-0.6,1.15
							c-0.233,0.233-0.5,0.4-0.8,0.5l-2.85,0.9l-0.85,2.8c-0.1,0.3-0.283,0.583-0.55,0.85c-0.333,0.333-0.7,0.517-1.1,0.55
							c-0.833,0.167-1.5-0.117-2-0.85l-1.7-2.4l-2.95,0.05c-0.833,0-1.45-0.367-1.85-1.1c-0.4-0.8-0.333-1.517,0.2-2.15l1.75-2.4
							l-0.95-2.8c-0.267-0.8-0.1-1.5,0.5-2.1c0.633-0.567,1.333-0.717,2.1-0.45l2.8,0.95L50.1,51.9z"/>
						
							<linearGradient id="SVGID_18_" gradientUnits="userSpaceOnUse" x1="-14.1914" y1="75.4502" x2="-0.5089" y2="75.4502" gradientTransform="matrix(0.7071 -0.7071 0.7071 0.7071 1.994967e-004 -1.458526e-004)">
							<stop  offset="0.0235" style="stop-color:#808080"/>
							<stop  offset="0.7294" style="stop-color:#E6E6E6"/>
							<stop  offset="1" style="stop-color:#B3B3B3"/>
						</linearGradient>
						<path style="fill-rule:evenodd;clip-rule:evenodd;fill:url(#SVGID_18_);" d="M51.85,52.6c0.433,0.167,0.617,0.483,0.55,0.95
							L52.35,57l2.85,2c0.366,0.267,0.517,0.617,0.45,1.05c-0.033,0.267-0.133,0.467-0.3,0.6l-0.45,0.3l-3.3,1l-1.05,3.3
							c-0.033,0.167-0.116,0.317-0.25,0.45c-0.2,0.2-0.4,0.3-0.6,0.3c-0.4,0.1-0.75-0.05-1.05-0.45l-2-2.8L43.2,62.8
							c-0.434,0-0.767-0.2-1-0.6c-0.2-0.367-0.167-0.75,0.1-1.15l2.05-2.75l-1.1-3.3c-0.1-0.4-0.017-0.767,0.25-1.1
							c0.333-0.333,0.717-0.417,1.15-0.25l3.25,1.1l2.8-2.1C51.066,52.417,51.45,52.4,51.85,52.6z"/>
						<path style="fill-rule:evenodd;clip-rule:evenodd;fill:#FFFFFF;" d="M51.8,54.05c0-0.4-0.2-0.716-0.6-0.95
							c-0.4-0.2-0.784-0.167-1.15,0.1l-2.75,2.05l-3.3-1.1c-0.267-0.066-0.467-0.083-0.6-0.05l0.1-0.2
							c0.333-0.333,0.717-0.417,1.15-0.25l3.25,1.1l2.8-2.1c0.366-0.233,0.75-0.25,1.15-0.05c0.433,0.167,0.617,0.483,0.55,0.95
							L52.35,57l2.85,2c0.366,0.267,0.517,0.617,0.45,1.05c-0.033,0.267-0.133,0.467-0.3,0.6l-0.45,0.3h-0.05
							c0.1-0.1,0.15-0.217,0.15-0.35c0.066-0.467-0.083-0.833-0.45-1.1l-2.8-1.95L51.8,54.05z"/>
					</g>
				</g>
			</g>
		</g>
	</g>
	<g>
		<path style="fill-rule:evenodd;clip-rule:evenodd;fill:#DCF1A5;" d="M129.65,72.8c0.666-0.2,1.366-0.25,2.1-0.15l0.4,0.05
			l1.5,0.35c1.866,0.667,3.416,1.967,4.649,3.9l0.45,0.85v0.1h0.05V78c0.467,1,0.783,1.85,0.95,2.55l0.05,0.3
			c0.267,1.5,0.217,3.033-0.149,4.6l-0.101,0.3l-0.55,1.3c-0.533,1.3-1.3,2.467-2.3,3.5c-0.667,0.733-1.517,1.2-2.55,1.4
			l-43.9,9.399c-0.967,0.7-2.05,1.101-3.25,1.2l-9.9,1.15H77l-0.6,0.1l-0.25,2.3c0,1.367-0.15,3.317-0.45,5.851v0.5l0.05,0.399
			c-0.066,1.134-0.184,2.067-0.35,2.801l-0.1,0.25v1.05c0,0.533-0.066,1-0.2,1.399l-0.15,0.95l0.05,0.4
			c0.1,1.633-0.483,2.983-1.75,4.05c-1.233,1.066-2.65,1.417-4.25,1.05l-20.6-4.95l-0.45-0.149c-0.967-0.334-1.75-0.917-2.35-1.75
			c-0.6-0.834-0.917-1.767-0.95-2.8c0-1.7,0.05-3.284,0.15-4.75c0.067-1.334,0.233-3.567,0.5-6.7c0.2-2.934,0.384-4.967,0.55-6.101
			c0.133-0.966,0.333-1.716,0.6-2.25c0.233-0.466,0.533-0.933,0.9-1.399c0.233-0.367,0.483-0.634,0.75-0.8
			c0.533-0.467,1.15-0.834,1.85-1.101l0.25-0.1c0.833-0.434,2.066-0.7,3.7-0.8l3.65-0.2l0.6-0.8l0.1-0.101
			c1.133-1.3,2.733-2.1,4.8-2.399c0.7-0.2,1.483-0.267,2.35-0.2l2.1,0.25l1.7,0.649c1.566,0.467,2.816,1.017,3.75,1.65h0.15
			l1.55-0.3l0.45-0.05L81,87c1.767-0.833,3.35-1.15,4.75-0.95C92.05,84.017,106.684,79.6,129.65,72.8z"/>
		<g>
			
				<linearGradient id="SVGID_19_" gradientUnits="userSpaceOnUse" x1="-112.1919" y1="105.4414" x2="-51.1875" y2="105.4414" gradientTransform="matrix(0.1501 -0.9887 0.9887 0.1501 -4.079789e-004 1.070201e-004)">
				<stop  offset="0" style="stop-color:#24313C"/>
				<stop  offset="0.2196" style="stop-color:#3B4C5C"/>
				<stop  offset="0.702" style="stop-color:#7591AF"/>
				<stop  offset="1" style="stop-color:#9CBEE4"/>
			</linearGradient>
			<path style="fill-rule:evenodd;clip-rule:evenodd;fill:url(#SVGID_19_);" d="M129.8,71.95c0.667-0.2,1.351-0.25,2.05-0.15
				l0.4,0.05c0.333,0.066,0.85,0.2,1.55,0.4c1.867,0.667,3.4,1.95,4.601,3.85l0.55,1.1c0.399,0.8,0.7,1.65,0.899,2.55L139.95,80
				c0.267,1.6,0.2,3.133-0.2,4.6l-0.6,1.65c-0.567,1.267-1.351,2.417-2.351,3.45c-0.733,0.767-1.583,1.25-2.55,1.45L90.4,100.5
				c-0.867,0.667-1.967,1.083-3.301,1.25l-9.85,1.15l-0.75,0.05c0,0.399-0.066,1.166-0.2,2.3c-0.066,1.566-0.233,3.533-0.5,5.9
				l0.05,0.85c0,1.1-0.117,2.05-0.35,2.85l-0.05,0.2l-0.05,1.101c0.034,0.333-0.017,0.8-0.15,1.399c-0.1,0.3-0.15,0.533-0.15,0.7
				v0.65c0.1,1.633-0.467,2.983-1.7,4.05c-1.267,1.033-2.7,1.366-4.3,1L48.5,119l-0.45-0.15c-0.966-0.333-1.75-0.916-2.35-1.75
				c-0.6-0.833-0.9-1.767-0.9-2.8c0-1.666,0.05-3.233,0.15-4.7l0.45-6.699c0.233-3.034,0.417-5.084,0.55-6.15
				c0.133-0.967,0.333-1.7,0.6-2.2c0.2-0.467,0.5-0.95,0.9-1.45l0.8-0.8c0.467-0.434,1.083-0.783,1.85-1.05l0.25-0.15
				c0.933-0.433,2.15-0.699,3.65-0.8h0.9l0.15-0.05l2.6-0.1l0.7-0.95c1.2-1.267,2.816-2.066,4.85-2.4
				c0.866-0.167,1.65-0.233,2.35-0.2l2.1,0.3l0.55,0.15l1.15,0.5c1.466,0.367,2.716,0.917,3.75,1.65l0.15-0.05
				c0.733-0.167,1.25-0.25,1.55-0.25l0.45-0.101l5.9-2.65c1.633-0.8,3.217-1.117,4.75-0.95C90.333,83.767,104.967,79.35,129.8,71.95
				z"/>
			
				<path style="fill-rule:evenodd;clip-rule:evenodd;fill:none;stroke:#CFDEED;stroke-width:0.25;stroke-linejoin:round;stroke-miterlimit:3;" d="
				M129.8,71.95C104.967,79.35,90.333,83.767,85.9,85.2c-1.534-0.167-3.117,0.15-4.75,0.95l-5.9,2.65L74.8,88.9
				c-0.3,0-0.816,0.083-1.55,0.25L73.1,89.2c-1.034-0.733-2.284-1.283-3.75-1.65l-1.15-0.5l-0.55-0.15l-2.1-0.3
				c-0.7-0.033-1.483,0.033-2.35,0.2c-2.034,0.334-3.65,1.134-4.85,2.4l-0.7,0.95l-2.6,0.1L54.9,90.3H54
				c-1.5,0.101-2.717,0.367-3.65,0.8l-0.25,0.15c-0.767,0.267-1.383,0.616-1.85,1.05l-0.8,0.8c-0.4,0.5-0.7,0.983-0.9,1.45
				c-0.267,0.5-0.466,1.233-0.6,2.2c-0.134,1.066-0.317,3.116-0.55,6.15l-0.45,6.699c-0.1,1.467-0.15,3.034-0.15,4.7
				c0,1.033,0.3,1.967,0.9,2.8c0.6,0.834,1.383,1.417,2.35,1.75L48.5,119l20.6,4.95c1.6,0.366,3.033,0.033,4.3-1
				c1.233-1.066,1.8-2.417,1.7-4.05v-0.65c0-0.167,0.05-0.4,0.15-0.7c0.133-0.6,0.184-1.066,0.15-1.399l0.05-1.101l0.05-0.2
				c0.233-0.8,0.35-1.75,0.35-2.85l-0.05-0.85c0.267-2.367,0.434-4.334,0.5-5.9c0.134-1.134,0.2-1.9,0.2-2.3l0.75-0.05l9.85-1.15
				c1.334-0.167,2.434-0.583,3.301-1.25l43.85-9.35c0.967-0.2,1.816-0.684,2.55-1.45c1-1.033,1.783-2.184,2.351-3.45l0.6-1.65
				c0.4-1.467,0.467-3,0.2-4.6l-0.101-0.25c-0.199-0.9-0.5-1.75-0.899-2.55l-0.55-1.1c-1.2-1.9-2.733-3.184-4.601-3.85
				c-0.7-0.2-1.217-0.333-1.55-0.4l-0.4-0.05C131.15,71.7,130.467,71.75,129.8,71.95z"/>
			
				<linearGradient id="SVGID_20_" gradientUnits="userSpaceOnUse" x1="-50.6602" y1="129.7705" x2="44.4438" y2="129.7705" gradientTransform="matrix(0.7071 -0.7071 0.7071 0.7071 1.892447e-004 -1.459718e-004)">
				<stop  offset="0.3569" style="stop-color:#658234"/>
				<stop  offset="0.4627" style="stop-color:#759B44"/>
				<stop  offset="0.6314" style="stop-color:#94CC63"/>
				<stop  offset="0.9647" style="stop-color:#D9E480"/>
			</linearGradient>
			<path style="fill-rule:evenodd;clip-rule:evenodd;fill:url(#SVGID_20_);" d="M131.9,71.7l0.35,0.05c0.7,0.1,1.217,0.233,1.55,0.4
				c1.934,0.667,3.5,1.967,4.7,3.9L139,77v0.05l0.05,0.1c0.333,0.633,0.65,1.483,0.95,2.55l0.05,0.3c0.267,1.567,0.2,3.117-0.2,4.65
				l-0.6,1.6c-0.566,1.233-1.35,2.417-2.35,3.55c-0.7,0.767-1.567,1.25-2.601,1.45l-43.899,9.4
				c-0.834,0.633-1.934,1.033-3.301,1.199L77.25,103h-0.1l-0.5,0.05l-0.25,2.25c-0.066,1.533-0.233,3.483-0.5,5.851l0.05,0.85
				c0,1.1-0.117,2.05-0.35,2.85l-0.05,0.25l-0.05,1.051c0.066,0.466,0.017,0.933-0.15,1.399l-0.15,0.7v0.6
				c0.1,1.7-0.483,3.101-1.75,4.2c-1.167,0.934-2.483,1.3-3.95,1.101l-21.5-5.2c-0.967-0.334-1.767-0.934-2.4-1.8
				c-0.6-0.834-0.9-1.784-0.9-2.851c-0.034-1.666,0.017-3.25,0.15-4.75c0-0.833,0.15-3.05,0.45-6.649c0.233-3,0.417-5.051,0.55-6.15
				c0.133-1,0.333-1.75,0.6-2.25c0.233-0.533,0.55-1.017,0.95-1.45c0.233-0.333,0.483-0.616,0.75-0.85
				c0.534-0.434,1.167-0.783,1.9-1.05L50.3,91c0.934-0.434,2.167-0.7,3.7-0.8l3.6-0.15l0.6-0.8l0.05-0.1
				c1.233-1.334,2.883-2.15,4.95-2.45c0.667-0.2,1.45-0.267,2.35-0.2c0.767,0.067,1.467,0.167,2.1,0.3l0.6,0.15l1.15,0.5
				c1.5,0.399,2.75,0.95,3.75,1.649c-0.033-0.033-0.017-0.05,0.05-0.05l2-0.35l5.9-2.65c1.667-0.8,3.267-1.116,4.8-0.95
				c4.8-1.567,19.416-5.983,43.85-13.25C130.45,71.65,131.167,71.6,131.9,71.7z"/>
			<path style="fill-rule:evenodd;clip-rule:evenodd;fill:none;stroke:#DCF1A5;stroke-width:0.25;" d="M131.9,71.7l0.35,0.05
				c0.7,0.1,1.217,0.233,1.55,0.4c1.934,0.667,3.5,1.967,4.7,3.9L139,77v0.05l0.05,0.1c0.333,0.633,0.65,1.483,0.95,2.55l0.05,0.3
				c0.267,1.567,0.2,3.117-0.2,4.65l-0.6,1.6c-0.566,1.233-1.35,2.417-2.35,3.55c-0.7,0.767-1.567,1.25-2.601,1.45l-43.899,9.4
				c-0.834,0.633-1.934,1.033-3.301,1.199L77.25,103h-0.1l-0.5,0.05l-0.25,2.25c-0.066,1.533-0.233,3.483-0.5,5.851l0.05,0.85
				c0,1.1-0.117,2.05-0.35,2.85l-0.05,0.25l-0.05,1.051c0.066,0.466,0.017,0.933-0.15,1.399l-0.15,0.7v0.6
				c0.1,1.7-0.483,3.101-1.75,4.2c-1.167,0.934-2.483,1.3-3.95,1.101l-21.5-5.2c-0.967-0.334-1.767-0.934-2.4-1.8
				c-0.6-0.834-0.9-1.784-0.9-2.851c-0.034-1.666,0.017-3.25,0.15-4.75c0-0.833,0.15-3.05,0.45-6.649c0.233-3,0.417-5.051,0.55-6.15
				c0.133-1,0.333-1.75,0.6-2.25c0.233-0.533,0.55-1.017,0.95-1.45c0.233-0.333,0.483-0.616,0.75-0.85
				c0.534-0.434,1.167-0.783,1.9-1.05L50.3,91c0.934-0.434,2.167-0.7,3.7-0.8l3.6-0.15l0.6-0.8l0.05-0.1
				c1.233-1.334,2.883-2.15,4.95-2.45c0.667-0.2,1.45-0.267,2.35-0.2c0.767,0.067,1.467,0.167,2.1,0.3l0.6,0.15l1.15,0.5
				c1.5,0.399,2.75,0.95,3.75,1.649c-0.033-0.033-0.017-0.05,0.05-0.05l2-0.35l5.9-2.65c1.667-0.8,3.267-1.116,4.8-0.95
				c4.8-1.567,19.416-5.983,43.85-13.25C130.45,71.65,131.167,71.6,131.9,71.7z"/>
		</g>
		<path style="fill-rule:evenodd;clip-rule:evenodd;fill:#174718;" d="M135.25,78.75l0.05,0.05l0.05,0.1
			c0.334,0.8,0.551,1.4,0.65,1.8c0.133,0.966,0.083,1.95-0.15,2.95c-0.1,0.4-0.217,0.7-0.35,0.9c-0.434,0.967-0.967,1.767-1.6,2.4
			c-0.101,0.166-0.25,0.25-0.45,0.25L88.5,96.85c-0.4,0.534-1.017,0.834-1.85,0.9L75.3,99.05h-1.4l-2.35-0.35
			c0.367,0.366,0.617,0.733,0.75,1.1c0.367,0.767,0.367,2.483,0,5.15c-0.066,1.533-0.233,3.467-0.5,5.8
			c0,0.566,0.017,0.983,0.05,1.25c0,0.566-0.067,1.15-0.2,1.75c-0.2,0.566-0.283,1.4-0.25,2.5l-0.05,0.25
			c-0.167,0.733-0.25,1.283-0.25,1.65v1c0,0.333-0.1,0.566-0.3,0.699c-0.2,0.2-0.45,0.267-0.75,0.2l-20.6-4.95H49.4
			c-0.4-0.166-0.6-0.433-0.6-0.8c0-1.633,0.05-3.133,0.15-4.5c0-0.066,0.15-2.267,0.45-6.6c0.3-4.2,0.567-6.517,0.8-6.95l0.4-0.65
			l0.25-0.25c0.167-0.166,0.4-0.283,0.7-0.35l0.6-0.3c0.4-0.2,1.1-0.334,2.1-0.4l4.2-0.2l0.5,0.15h1.2c0.3-0.967,0.7-1.733,1.2-2.3
			c0.566-0.667,1.45-1.066,2.65-1.2c0.367-0.1,0.8-0.15,1.3-0.15l1.5,0.2l0.15,0.05L68,91.3l0.05,0.05
			c1.333,0.334,2.317,0.75,2.95,1.25l0.1,0.101c0.367,0.333,0.8,0.517,1.3,0.55c0.633,0,1.217-0.066,1.75-0.2l2.1-0.35l6.65-2.9
			c1.3-0.633,2.35-0.767,3.15-0.399c5.767-1.9,20.733-6.434,44.9-13.601h0.35l0.4,0.05c1.333,0.2,2.433,1,3.3,2.4L135.25,78.75z"/>
		
			<use xlink:href="#FlashAICB_x2F_Layer_1_x2F__x3C_Clip_Group_0_x3E_"  width="95.2" height="66.1" y="-66.1" transform="matrix(1 0 0 -1 42.8501 60.2002)" style="overflow:visible;"/>
	</g>
	<g>
		
			<use xlink:href="#FlashAICB_x2F_Layer_1_x2F__x3C_Path_x3E__x5F_1"  width="109.55" height="55.55" y="-55.55" transform="matrix(1 0 0 -1 30.75 27.3999)" style="overflow:visible;opacity:0.1992;enable-background:new    ;"/>
		
			<use xlink:href="#FlashAICB_x2F_Layer_1_x2F__x3C_Path_x3E_"  width="109.55" height="61.044" y="-61.044" transform="matrix(1 0 0 -1 30.75 27.3999)" style="overflow:visible;opacity:0.1211;enable-background:new    ;"/>
	</g>
	
		<use xlink:href="#FlashAICB_x2F_Layer_1_x2F__x3C_Path_x3E__x5F_0"  width="118.15" height="56.8" y="-56.8" transform="matrix(1 0 0 -1 26.4502 85.9502)" style="overflow:visible;opacity:0.4688;enable-background:new    ;"/>
</g>
</svg>
