<?xml version="1.0" encoding="iso-8859-1"?>
<!-- Generator: Adobe Illustrator 15.1.0, SVG Export Plug-In . SVG Version: 6.00 Build 0)  -->
<!DOCTYPE svg PUBLIC "-//W3C//DTD SVG 1.1//EN" "http://www.w3.org/Graphics/SVG/1.1/DTD/svg11.dtd">
<svg version="1.1" id="Layer_1" xmlns="http://www.w3.org/2000/svg" xmlns:xlink="http://www.w3.org/1999/xlink" x="0px" y="0px"
	 width="171.7px" height="171.75px" viewBox="0 0 171.7 171.75" style="enable-background:new 0 0 171.7 171.75;"
	 xml:space="preserve">
<symbol  id="FlashAICB_x2F_Layer_1_x2F__x3C_Clip_Group_0_x3E_" viewBox="0 -33.5 27.2 33.5">
	<g id="Layer_1_7_">
	</g>
	<g>
		<defs>
			<polygon id="SVGID_1_" points="0,0 0,-33.5 27.15,-33.5 27.15,0 			"/>
		</defs>
		<clipPath id="SVGID_2_">
			<use xlink:href="#SVGID_1_"  style="overflow:visible;"/>
		</clipPath>
		<g id="Layer_3_2_" style="clip-path:url(#SVGID_2_);">
			<path style="fill-rule:evenodd;clip-rule:evenodd;fill:#FFFFFF;" d="M27.2-33.5L0-17.9c6.667-3.667,12.067-6.25,16.2-7.75
				c5.267-1.934,7.9-1.867,7.9,0.2c0,0.434,0.35,3.784,1.05,10.05c0.8,7.1,1.333,12.233,1.6,15.4l0.45-0.2V-33.5z"/>
		</g>
	</g>
	<g id="Layer_4_2_">
	</g>
</symbol>
<symbol  id="FlashAICB_x2F_Layer_1_x2F__x3C_Clip_Group_0_x3E__x5F_0" viewBox="0 -73.65 72.9 73.65">
	<g id="Layer_1_9_">
	</g>
	<g>
		<defs>
			<polygon id="SVGID_3_" points="21.55,-28.7 21.55,-62 51.3,-44.95 51.3,-11.65 			"/>
		</defs>
		<clipPath id="SVGID_4_">
			<use xlink:href="#SVGID_3_"  style="overflow:visible;"/>
		</clipPath>
		<g id="Layer_3_4_" style="clip-path:url(#SVGID_4_);">
			<linearGradient id="SVGID_5_" gradientUnits="userSpaceOnUse" x1="19.7954" y1="-28.1577" x2="49.1954" y2="-43.4577">
				<stop  offset="0" style="stop-color:#2961DB"/>
				<stop  offset="1" style="stop-color:#38A1FE"/>
			</linearGradient>
			<polygon style="fill-rule:evenodd;clip-rule:evenodd;fill:url(#SVGID_5_);" points="27.9,0 72.9,-22.4 44.95,-73.65 0,-51.25 			
				"/>
		</g>
	</g>
	<g id="Layer_4_4_">
	</g>
</symbol>
<symbol  id="FlashAICB_x2F_Layer_1_x2F__x3C_Clip_Group_0_x3E__x5F_1" viewBox="0 -80.25 87.8 80.25">
	<g id="Layer_1_8_">
	</g>
	<g>
		<defs>
			<polygon id="SVGID_6_" points="43.9,-23.65 14.45,-39.2 43.6,-56.25 43.6,-56.6 43.9,-56.4 44.2,-56.6 44.2,-56.25 73.35,-39.2 
							"/>
		</defs>
		<clipPath id="SVGID_7_">
			<use xlink:href="#SVGID_6_"  style="overflow:visible;"/>
		</clipPath>
		<g id="Layer_3_3_" style="clip-path:url(#SVGID_7_);">
			<linearGradient id="SVGID_8_" gradientUnits="userSpaceOnUse" x1="35.7729" y1="-55.0557" x2="52.048" y2="-25.1557">
				<stop  offset="0" style="stop-color:#2961DB"/>
				<stop  offset="1" style="stop-color:#3BAEFE"/>
			</linearGradient>
			<polygon style="fill-rule:evenodd;clip-rule:evenodd;fill:url(#SVGID_8_);" points="27.9,0 87.8,-31.2 59.9,-80.25 0,-49.05 			
				"/>
		</g>
	</g>
	<g id="Layer_4_3_">
	</g>
</symbol>
<symbol  id="FlashAICB_x2F_Layer_1_x2F__x3C_Clip_Group_0_x3E__x5F_2" viewBox="0 -50.35 29.8 50.35">
	<g id="Layer_1_6_">
	</g>
	<g>
		<defs>
			<polygon id="SVGID_9_" points="0,0 0,-33.3 29.8,-50.35 29.8,-17.05 			"/>
		</defs>
		<clipPath id="SVGID_10_">
			<use xlink:href="#SVGID_9_"  style="overflow:visible;"/>
		</clipPath>
		<g id="Layer_3_1_" style="clip-path:url(#SVGID_10_);">
			<linearGradient id="SVGID_11_" gradientUnits="userSpaceOnUse" x1="0.1001" y1="-25.1748" x2="29.7001" y2="-25.1748">
				<stop  offset="0" style="stop-color:#2961DB"/>
				<stop  offset="1" style="stop-color:#38A1FE"/>
			</linearGradient>
			<polygon style="fill-rule:evenodd;clip-rule:evenodd;fill:url(#SVGID_11_);" points="29.75,0 29.75,-50.35 0,-50.35 0,0 			"/>
		</g>
	</g>
	<g id="Layer_4_1_">
	</g>
</symbol>
<symbol  id="FlashAICB_x2F_Layer_1_x2F__x3C_Group_x3E_" viewBox="0 -33.5 27.2 33.5">
	<g id="Layer_1_10_">
		<g>
			
				<use xlink:href="#FlashAICB_x2F_Layer_1_x2F__x3C_Clip_Group_0_x3E_"  width="27.2" height="33.5" y="-33.5" style="overflow:visible;"/>
		</g>
	</g>
</symbol>
<symbol  id="FlashAICB_x2F_Layer_1_x2F__x3C_Path_x3E_" viewBox="0 -61.9 128.65 61.9">
	<g id="Layer_1_3_">
		
			<radialGradient id="SVGID_12_" cx="64.3252" cy="-30.9502" r="50.4757" gradientTransform="matrix(1 0 0 -1 0 -61.9004)" gradientUnits="userSpaceOnUse">
			<stop  offset="0" style="stop-color:#DE98DD;stop-opacity:0"/>
			<stop  offset="0.149" style="stop-color:#D491D2;stop-opacity:0.1451"/>
			<stop  offset="0.4" style="stop-color:#B87DB7;stop-opacity:0.5333"/>
			<stop  offset="0.651" style="stop-color:#976696"/>
		</radialGradient>
		<path style="fill-rule:evenodd;clip-rule:evenodd;fill:url(#SVGID_12_);" d="M128.05-0.25l0.6,0.25
			c-0.633-17.233-7.167-31.85-19.6-43.85C96.55-55.883,81.633-61.9,64.3-61.9c-17.033,0-31.75,5.816-44.15,17.45
			C7.817-32.85,1.1-18.633,0-1.8c5-13,13.233-23.5,24.7-31.5c11.7-8.2,24.716-12.3,39.05-12.3c14.633,0,27.883,4.25,39.75,12.75
			C115.1-24.517,123.283-13.65,128.05-0.25z"/>
	</g>
</symbol>
<symbol  id="FlashAICB_x2F_Layer_1_x2F__x3C_Path_x3E__x5F_0" viewBox="0 -66.434 119.2 66.434">
	<g id="Layer_1_5_">
		<path style="fill-rule:evenodd;clip-rule:evenodd;fill:#FFFFFF;" d="M115.4-37.25c2.533-6.1,3.8-11.85,3.8-17.25
			c0-5.367-1.567-8.75-4.7-10.15c-2.533-1.133-6.783-1.117-12.75,0.05c-7.9,1.9-14.217,3.367-18.95,4.4
			c-8.667,1.833-16.4,2.75-23.2,2.75c-6.867,0-14.6-1-23.2-3c-9.033-2.367-15.35-3.966-18.95-4.8c-6-1.367-10.25-1.55-12.75-0.55
			C1.567-64.533,0-61.217,0-55.85c0,5.934,1.267,12.067,3.8,18.4c2.667,6.7,6.434,12.75,11.3,18.15C26.7-6.433,41.533,0,59.6,0
			c17.833,0,32.65-6.5,44.45-19.5C108.883-24.833,112.667-30.75,115.4-37.25z"/>
	</g>
</symbol>
<symbol  id="FlashAICB_x2F_Layer_1_x2F__x3C_Path_x3E__x5F_1" viewBox="0 -128.6 128.8 128.6">
	<g id="Layer_1_2_">
		
			<radialGradient id="SVGID_13_" cx="64.3999" cy="-64.2998" r="64.35" gradientTransform="matrix(1 0 0 -1 0 -128.5996)" gradientUnits="userSpaceOnUse">
			<stop  offset="0" style="stop-color:#FBB6DB"/>
			<stop  offset="0.2392" style="stop-color:#F9B4D8"/>
			<stop  offset="0.4157" style="stop-color:#F3ADCF"/>
			<stop  offset="0.5686" style="stop-color:#E7A0BF"/>
			<stop  offset="0.6627" style="stop-color:#DD95B1"/>
			<stop  offset="1" style="stop-color:#7F257D;stop-opacity:0.4078"/>
		</radialGradient>
		<path style="fill-rule:evenodd;clip-rule:evenodd;fill:url(#SVGID_13_);" d="M128.8-64.3c0-17.767-6.283-32.917-18.85-45.45
			c-12.6-12.567-27.784-18.85-45.55-18.85c-17.8,0-32.983,6.283-45.55,18.85C6.283-97.217,0-82.067,0-64.3
			c0,17.767,6.283,32.917,18.85,45.45C31.417-6.283,46.6,0,64.4,0c17.767,0,32.95-6.283,45.55-18.85
			C122.517-31.417,128.8-46.567,128.8-64.3z"/>
	</g>
</symbol>
<symbol  id="FlashAICB_x2F_Layer_1_x2F__x3C_Path_x3E__x5F_1_x5F_0" viewBox="0 -60.45 119.2 60.45">
	<g id="Layer_1_4_">
		
			<linearGradient id="SVGID_14_" gradientUnits="userSpaceOnUse" x1="16160.585" y1="-58.4668" x2="16220.9756" y2="-58.4668" gradientTransform="matrix(1.654944e-005 1 -1 -0.001 0.8657 -16221.1064)">
			<stop  offset="0.1294" style="stop-color:#E2B8B2"/>
			<stop  offset="0.9255" style="stop-color:#FFFFFF"/>
		</linearGradient>
		<path style="fill-rule:evenodd;clip-rule:evenodd;fill:url(#SVGID_14_);" d="M104.05-19.5c4.833-5.333,8.617-11.25,11.35-17.75
			c2.533-6.1,3.8-11.85,3.8-17.25c0-1.833-0.184-3.45-0.55-4.85c-2,12-7.85,22.65-17.55,31.95c-11.4,11-25.233,16.5-41.5,16.5
			c-16.533,0-30.45-5.483-41.75-16.45c-9.733-9.433-15.533-20.467-17.4-33.1C0.15-59.15,0-57.617,0-55.85
			c0,5.934,1.267,12.067,3.8,18.4c2.667,6.7,6.434,12.75,11.3,18.15C26.7-6.433,41.533,0,59.6,0C77.433,0,92.25-6.5,104.05-19.5z"/>
	</g>
</symbol>
<g>
	<path style="fill-rule:evenodd;clip-rule:evenodd;fill:#FFFFFF;" d="M119.25,6.75c10.267,4.367,19.366,10.5,27.3,18.4
		c7.9,7.934,14.033,17.034,18.4,27.3c4.5,10.633,6.75,21.767,6.75,33.4s-2.25,22.766-6.75,33.4c-4.367,10.267-10.5,19.366-18.4,27.3
		c-7.934,7.934-17.033,14.084-27.3,18.45c-10.634,4.5-21.767,6.75-33.4,6.75c-11.633,0-22.766-2.25-33.399-6.75
		c-10.267-4.366-19.367-10.517-27.3-18.45c-7.9-7.934-14.033-17.033-18.4-27.3C2.25,108.616,0,97.483,0,85.85s2.25-22.767,6.75-33.4
		c4.367-10.267,10.5-19.367,18.4-27.3c7.934-7.9,17.033-14.033,27.3-18.4C63.083,2.25,74.217,0,85.85,0
		C97.483,0,108.616,2.25,119.25,6.75z"/>
	<g>
		<g>
			
				<linearGradient id="SVGID_15_" gradientUnits="userSpaceOnUse" x1="-157.6851" y1="85.8506" x2="-14.2354" y2="85.8506" gradientTransform="matrix(6.973501e-006 -1 1 -0.001 -1.064519e-004 4.449275e-004)">
				<stop  offset="0.0745" style="stop-color:#362439"/>
				<stop  offset="0.1882" style="stop-color:#4F3450"/>
				<stop  offset="0.4353" style="stop-color:#8F5E89"/>
				<stop  offset="0.6" style="stop-color:#BE7CB4"/>
				<stop  offset="0.9216" style="stop-color:#EFEBC5"/>
			</linearGradient>
			<path style="fill-rule:evenodd;clip-rule:evenodd;fill:url(#SVGID_15_);" d="M136.5,35.15c6.634,6.633,11.767,14.233,15.4,22.8
				c3.767,8.9,5.649,18.2,5.649,27.9c0,9.7-1.883,19-5.649,27.9c-3.634,8.566-8.767,16.167-15.4,22.8
				c-6.6,6.634-14.2,11.767-22.8,15.4c-8.867,3.767-18.15,5.649-27.851,5.649c-9.7,0-19-1.883-27.899-5.649
				c-8.567-3.634-16.167-8.767-22.8-15.4c-6.6-6.633-11.717-14.233-15.35-22.8c-3.767-8.9-5.65-18.2-5.65-27.9
				c0-9.7,1.883-19,5.65-27.9c3.633-8.567,8.75-16.167,15.35-22.8c6.633-6.6,14.233-11.716,22.8-15.35
				c8.9-3.767,18.2-5.65,27.899-5.65c9.7,0,18.983,1.883,27.851,5.65C122.3,23.434,129.9,28.55,136.5,35.15z"/>
			<path style="fill-rule:evenodd;clip-rule:evenodd;fill:#3B223B;" d="M135.9,35.8C122.1,21.967,105.417,15.05,85.85,15.05
				c-9.6,0-18.8,1.85-27.6,5.55c-8.467,3.6-15.967,8.667-22.5,15.2c-6.533,6.534-11.6,14.034-15.2,22.5
				C16.85,67.067,15,76.25,15,85.85c0,19.567,6.917,36.266,20.75,50.1c6.533,6.533,14.033,11.6,22.5,15.2
				c8.8,3.699,18,5.55,27.6,5.55c9.601,0,18.784-1.851,27.551-5.55c8.466-3.601,15.966-8.667,22.5-15.2
				c6.533-6.533,11.6-14.05,15.199-22.55c3.7-8.767,5.551-17.95,5.551-27.55S154.8,67.067,151.1,58.3
				C147.5,49.833,142.434,42.333,135.9,35.8z M113.65,18.75c8.8,3.633,16.633,8.883,23.5,15.75
				c6.866,6.867,12.133,14.717,15.8,23.55c3.666,8.833,5.5,18.1,5.5,27.8c0,9.7-1.834,18.966-5.5,27.8
				c-3.667,8.866-8.934,16.716-15.8,23.55c-6.867,6.866-14.7,12.116-23.5,15.75c-8.834,3.666-18.101,5.5-27.801,5.5
				c-9.7,0-18.966-1.834-27.8-5.5c-8.833-3.634-16.683-8.884-23.55-15.75c-6.833-6.834-12.083-14.684-15.75-23.55
				c-3.633-8.834-5.45-18.101-5.45-27.8c0-9.7,1.817-18.967,5.45-27.8c3.667-8.833,8.917-16.683,15.75-23.55
				c6.867-6.833,14.717-12.083,23.55-15.75c8.833-3.667,18.1-5.5,27.8-5.5C95.55,13.25,104.816,15.083,113.65,18.75z"/>
		</g>
		
			<use xlink:href="#FlashAICB_x2F_Layer_1_x2F__x3C_Path_x3E__x5F_1"  width="128.8" height="128.6" y="-128.6" transform="matrix(1 0 0 -1 21.4502 19.25)" style="overflow:visible;opacity:0.3789;enable-background:new    ;"/>
		
			<use xlink:href="#FlashAICB_x2F_Layer_1_x2F__x3C_Path_x3E_"  width="128.65" height="61.9" y="-61.9" transform="matrix(1 0 0 -1 21.5 85.9502)" style="overflow:visible;opacity:0.3398;enable-background:new    ;"/>
		<g>
			<g>
				<path style="fill-rule:evenodd;clip-rule:evenodd;fill:#FEE6FF;" d="M76.3,47c1.667,0,2.5,0.7,2.5,2.1
					c0,0.7-0.233,1.25-0.7,1.65c-0.4,0.333-0.934,0.5-1.6,0.5H65.7c-1.667,0-2.5-0.717-2.5-2.15c0-0.434,0.25-0.983,0.75-1.65
					c1.8-2.067,3.167-3.617,4.1-4.65c1.6-1.866,2.9-3.517,3.9-4.95c0.767-1.1,1.15-2.1,1.15-3c0-0.667-0.217-1.25-0.65-1.75
					c-0.467-0.5-1.017-0.75-1.65-0.75c-1.267,0-2.183,0.883-2.75,2.65c-0.533,1.733-1.3,2.6-2.3,2.6c-0.733,0-1.317-0.233-1.75-0.7
					c-0.4-0.433-0.6-0.983-0.6-1.65c0-2.033,0.767-3.767,2.3-5.2c1.5-1.433,3.25-2.15,5.25-2.15c2.033,0,3.733,0.6,5.1,1.8
					c1.367,1.267,2.05,2.9,2.05,4.9c0,1.9-0.934,4.1-2.8,6.6c-1.066,1.4-2.7,3.333-4.9,5.8H76.3z"/>
				<path style="fill-rule:evenodd;clip-rule:evenodd;fill:#FEE6FF;" d="M86.5,28.3h7.75c0.733,0,1.316,0.2,1.75,0.6
					c0.4,0.367,0.6,0.85,0.6,1.45c0,1.6-0.75,2.4-2.25,2.4H88.3l-0.5,3.4c1.066-0.2,1.884-0.3,2.45-0.3c1.934,0,3.533,0.667,4.8,2
					c1.233,1.333,1.851,2.95,1.851,4.85c0,2.767-0.717,4.933-2.15,6.5c-1.5,1.6-3.634,2.4-6.4,2.4c-1.433,0-2.883-0.367-4.35-1.1
					c-1.8-0.867-2.7-1.933-2.7-3.2c0-0.6,0.217-1.116,0.65-1.55c0.4-0.433,0.9-0.65,1.5-0.65c0.367,0,1.1,0.35,2.2,1.05
					c1.066,0.7,2,1.05,2.8,1.05c1.066,0,1.916-0.45,2.55-1.35c0.566-0.8,0.85-1.767,0.85-2.9c0-1-0.25-1.784-0.75-2.35
					c-0.566-0.6-1.333-0.9-2.3-0.9c-0.666,0-1.333,0.183-2,0.55c-0.7,0.333-1.3,0.5-1.8,0.5c-0.6,0-1.083-0.183-1.45-0.55
					c-0.3-0.3-0.45-0.617-0.45-0.95l0.9-7.9c0.167-1.233,0.433-2.05,0.8-2.45C85.134,28.5,85.7,28.3,86.5,28.3z"/>
				<path style="fill-rule:evenodd;clip-rule:evenodd;fill:#FEE6FF;" d="M108.45,30.6v18.3c0,0.8-0.217,1.434-0.65,1.9
					c-0.434,0.434-1.017,0.65-1.75,0.65s-1.3-0.217-1.7-0.65c-0.466-0.466-0.699-1.1-0.699-1.9V32.75h-1.9
					c-0.733,0-1.3-0.233-1.7-0.7c-0.333-0.433-0.5-0.95-0.5-1.55s0.2-1.1,0.601-1.5c0.399-0.467,0.933-0.7,1.6-0.7h4.55
					c0.667,0,1.2,0.217,1.601,0.65C108.267,29.383,108.45,29.934,108.45,30.6z"/>
			</g>
			<g>
				
					<linearGradient id="SVGID_16_" gradientUnits="userSpaceOnUse" x1="-50.271" y1="71.0029" x2="-26.971" y2="71.0029" gradientTransform="matrix(4.291846e-005 -1 1 -0.001 -1.943374e-004 -4.747650e-005)">
					<stop  offset="0.3255" style="stop-color:#462244"/>
					<stop  offset="0.5294" style="stop-color:#482146"/>
					<stop  offset="0.6627" style="stop-color:#51214F"/>
					<stop  offset="0.7725" style="stop-color:#5F205D"/>
					<stop  offset="0.8706" style="stop-color:#741E72"/>
					<stop  offset="0.9647" style="stop-color:#8E198C"/>
					<stop  offset="1" style="stop-color:#9B1699"/>
				</linearGradient>
				<path style="fill-rule:evenodd;clip-rule:evenodd;fill:url(#SVGID_16_);" d="M76.3,46c1.667,0,2.5,0.7,2.5,2.1
					c0,0.7-0.233,1.25-0.7,1.65c-0.4,0.333-0.934,0.5-1.6,0.5H65.7c-1.667,0-2.5-0.717-2.5-2.15c0-0.434,0.25-0.983,0.75-1.65
					c1.8-2.067,3.167-3.617,4.1-4.65c1.6-1.866,2.9-3.517,3.9-4.95c0.767-1.1,1.15-2.1,1.15-3c0-0.667-0.217-1.25-0.65-1.75
					c-0.467-0.5-1.017-0.75-1.65-0.75c-1.267,0-2.183,0.883-2.75,2.65c-0.533,1.733-1.3,2.6-2.3,2.6c-0.733,0-1.317-0.233-1.75-0.7
					c-0.4-0.433-0.6-0.983-0.6-1.65c0-2.033,0.767-3.767,2.3-5.2c1.5-1.433,3.25-2.15,5.25-2.15c2.033,0,3.733,0.6,5.1,1.8
					c1.367,1.267,2.05,2.9,2.05,4.9c0,1.9-0.934,4.1-2.8,6.6c-1.066,1.4-2.7,3.333-4.9,5.8H76.3z"/>
				
					<linearGradient id="SVGID_17_" gradientUnits="userSpaceOnUse" x1="-50.688" y1="89.1025" x2="-27.3857" y2="89.1025" gradientTransform="matrix(4.291846e-005 -1 1 -0.001 -1.943374e-004 -4.747650e-005)">
					<stop  offset="0.3255" style="stop-color:#462244"/>
					<stop  offset="0.5294" style="stop-color:#482146"/>
					<stop  offset="0.6627" style="stop-color:#51214F"/>
					<stop  offset="0.7725" style="stop-color:#5F205D"/>
					<stop  offset="0.8706" style="stop-color:#741E72"/>
					<stop  offset="0.9647" style="stop-color:#8E198C"/>
					<stop  offset="1" style="stop-color:#9B1699"/>
				</linearGradient>
				<path style="fill-rule:evenodd;clip-rule:evenodd;fill:url(#SVGID_17_);" d="M86.5,27.3h7.75c0.733,0,1.316,0.2,1.75,0.6
					c0.4,0.367,0.6,0.85,0.6,1.45c0,1.6-0.75,2.4-2.25,2.4H88.3l-0.5,3.4c1.066-0.2,1.884-0.3,2.45-0.3c1.934,0,3.533,0.667,4.8,2
					c1.233,1.333,1.851,2.95,1.851,4.85c0,2.767-0.717,4.933-2.15,6.5c-1.5,1.6-3.634,2.4-6.4,2.4c-1.433,0-2.883-0.367-4.35-1.1
					c-1.8-0.867-2.7-1.933-2.7-3.2c0-0.6,0.217-1.116,0.65-1.55c0.4-0.433,0.9-0.65,1.5-0.65c0.367,0,1.1,0.35,2.2,1.05
					c1.066,0.7,2,1.05,2.8,1.05c1.066,0,1.916-0.45,2.55-1.35c0.566-0.8,0.85-1.767,0.85-2.9c0-1-0.25-1.784-0.75-2.35
					c-0.566-0.6-1.333-0.9-2.3-0.9c-0.666,0-1.333,0.183-2,0.55c-0.7,0.333-1.3,0.5-1.8,0.5c-0.6,0-1.083-0.183-1.45-0.55
					c-0.3-0.3-0.45-0.617-0.45-0.95l0.9-7.9c0.167-1.233,0.433-2.05,0.8-2.45C85.134,27.5,85.7,27.3,86.5,27.3z"/>
				
					<linearGradient id="SVGID_18_" gradientUnits="userSpaceOnUse" x1="-50.5166" y1="104.002" x2="-27.3916" y2="104.002" gradientTransform="matrix(4.324325e-005 -1 1 -0.001 -2.319270e-005 4.439838e-004)">
					<stop  offset="0.3255" style="stop-color:#462244"/>
					<stop  offset="0.5294" style="stop-color:#482146"/>
					<stop  offset="0.6627" style="stop-color:#51214F"/>
					<stop  offset="0.7725" style="stop-color:#5F205D"/>
					<stop  offset="0.8706" style="stop-color:#741E72"/>
					<stop  offset="0.9647" style="stop-color:#8E198C"/>
					<stop  offset="1" style="stop-color:#9B1699"/>
				</linearGradient>
				<path style="fill-rule:evenodd;clip-rule:evenodd;fill:url(#SVGID_18_);" d="M108.45,29.6v18.3c0,0.8-0.217,1.434-0.65,1.9
					c-0.434,0.434-1.017,0.65-1.75,0.65s-1.3-0.217-1.7-0.65c-0.466-0.466-0.699-1.1-0.699-1.9V31.75h-1.9
					c-0.733,0-1.3-0.233-1.7-0.7c-0.333-0.433-0.5-0.95-0.5-1.55s0.2-1.1,0.601-1.5c0.399-0.467,0.933-0.7,1.6-0.7h4.55
					c0.667,0,1.2,0.217,1.601,0.65C108.267,28.383,108.45,28.934,108.45,29.6z"/>
			</g>
		</g>
		<g>
			
				<use xlink:href="#FlashAICB_x2F_Layer_1_x2F__x3C_Path_x3E__x5F_1_x5F_0"  width="119.2" height="60.45" y="-60.45" transform="matrix(1 0 0 -1 26.25 22.2002)" style="overflow:visible;opacity:0.1992;enable-background:new    ;"/>
			
				<use xlink:href="#FlashAICB_x2F_Layer_1_x2F__x3C_Path_x3E__x5F_0"  width="119.2" height="66.434" y="-66.434" transform="matrix(1 0 0 -1 26.25 22.2002)" style="overflow:visible;opacity:0.0781;enable-background:new    ;"/>
		</g>
		<g>
			<path style="fill-rule:evenodd;clip-rule:evenodd;fill:#FCE5FF;" d="M52.45,80.65l-0.05-0.6c0.067-1.6,0.767-2.767,2.1-3.5
				l0.15-0.15l0.25-0.1l29.2-15.4c1.367-0.7,2.766-0.7,4.2,0l28.75,15.15l0.851,0.35c0.666,0.367,1.199,0.883,1.6,1.55
				c0.4,0.667,0.6,1.367,0.6,2.1v33.3c0,0.733-0.183,1.417-0.55,2.051c-0.399,0.666-0.916,1.183-1.55,1.55L90.1,132.9
				c-0.366,0.466-0.816,0.85-1.35,1.149c-0.667,0.367-1.384,0.55-2.15,0.55l-0.3-0.05c-0.934,0.066-1.767-0.1-2.5-0.5
				c-0.5-0.3-0.933-0.684-1.3-1.149l-27.9-15.95c-1.434-0.8-2.15-2-2.15-3.601V80.65z"/>
			
				<linearGradient id="SVGID_19_" gradientUnits="userSpaceOnUse" x1="-133.8486" y1="86.251" x2="-59.6986" y2="86.251" gradientTransform="matrix(1.348618e-005 -1 1 -0.001 -4.255883e-005 4.449275e-004)">
				<stop  offset="0.0549" style="stop-color:#6C1F69"/>
				<stop  offset="0.5882" style="stop-color:#CEA8B1"/>
				<stop  offset="0.8392" style="stop-color:#FAE3D0"/>
			</linearGradient>
			<path style="fill-rule:evenodd;clip-rule:evenodd;fill:url(#SVGID_19_);" d="M54.5,75.7l0.4-0.25L84.1,60.1
				c1.367-0.767,2.766-0.767,4.2,0l28.75,15.15c0.233,0.033,0.517,0.15,0.851,0.35c0.666,0.367,1.199,0.867,1.6,1.5
				s0.6,1.333,0.6,2.1v33.3c0,0.733-0.183,1.417-0.55,2.05c-0.399,0.667-0.916,1.184-1.55,1.55l-27.9,16
				c-0.333,0.434-0.783,0.801-1.35,1.101c-0.667,0.366-1.384,0.55-2.15,0.55h-0.3c-0.866,0.066-1.7-0.116-2.5-0.55
				c-0.566-0.334-1-0.7-1.3-1.101l-27.9-16c-1.434-0.8-2.15-2-2.15-3.6V79.85L52.4,79.2C52.467,77.6,53.167,76.434,54.5,75.7z"/>
			<path style="fill-rule:evenodd;clip-rule:evenodd;fill:none;stroke:#FCE5FF;stroke-width:0.25;" d="M54.5,75.7
				c-1.333,0.733-2.033,1.9-2.1,3.5l0.05,0.65v32.65c0,1.6,0.716,2.8,2.15,3.6l27.9,16c0.3,0.4,0.733,0.767,1.3,1.101
				c0.8,0.434,1.634,0.616,2.5,0.55h0.3c0.767,0,1.483-0.184,2.15-0.55c0.566-0.3,1.017-0.667,1.35-1.101l27.9-16
				c0.634-0.366,1.15-0.883,1.55-1.55c0.367-0.633,0.55-1.316,0.55-2.05V79.2c0-0.767-0.199-1.467-0.6-2.1s-0.934-1.133-1.6-1.5
				c-0.334-0.2-0.617-0.317-0.851-0.35L88.3,60.1c-1.434-0.767-2.833-0.767-4.2,0L54.9,75.45L54.5,75.7z"/>
			<path style="fill-rule:evenodd;clip-rule:evenodd;fill:#3B223B;" d="M55.95,79.5l-0.05-0.2c0.067-0.366,0.217-0.616,0.45-0.75
				l0.05-0.05L85.8,63c0.267-0.1,0.55-0.1,0.851,0L115.8,78.4l0.351,0.1c0.3,0.167,0.449,0.4,0.449,0.7v33.3
				c0,0.3-0.133,0.533-0.399,0.7l-28.75,16.5c-0.066,0.267-0.217,0.45-0.45,0.55c-0.1,0.1-0.233,0.15-0.4,0.15l-0.3-0.051
				c-0.333,0.067-0.583,0.034-0.75-0.1c-0.233-0.1-0.383-0.283-0.45-0.55l-28.7-16.5c-0.3-0.134-0.45-0.367-0.45-0.7V79.5z"/>
			<g>
				
					<use xlink:href="#FlashAICB_x2F_Layer_1_x2F__x3C_Clip_Group_0_x3E__x5F_2"  width="29.8" height="50.35" y="-50.35" transform="matrix(1 0 0 -1 56.8501 79.2002)" style="overflow:visible;"/>
				
					<use xlink:href="#FlashAICB_x2F_Layer_1_x2F__x3C_Group_x3E_"  width="27.2" height="33.5" y="-33.5" transform="matrix(1 0 0 -1 59.4502 96.0498)" style="overflow:visible;opacity:0.3594;enable-background:new    ;"/>
				
					<use xlink:href="#FlashAICB_x2F_Layer_1_x2F__x3C_Clip_Group_0_x3E__x5F_1"  width="87.8" height="80.25" y="-80.25" transform="matrix(1 0 0 -1 42.3501 40.1001)" style="overflow:visible;"/>
				
					<use xlink:href="#FlashAICB_x2F_Layer_1_x2F__x3C_Clip_Group_0_x3E__x5F_0"  width="72.9" height="73.65" y="-73.65" transform="matrix(1 0 0 -1 64.4502 67.5498)" style="overflow:visible;"/>
			</g>
		</g>
	</g>
</g>
</svg>
