<?xml version="1.0" encoding="iso-8859-1"?>
<!-- Generator: Adobe Illustrator 15.1.0, SVG Export Plug-In . SVG Version: 6.00 Build 0)  -->
<!DOCTYPE svg PUBLIC "-//W3C//DTD SVG 1.1//EN" "http://www.w3.org/Graphics/SVG/1.1/DTD/svg11.dtd">
<svg version="1.1" id="Layer_1" xmlns="http://www.w3.org/2000/svg" xmlns:xlink="http://www.w3.org/1999/xlink" x="0px" y="0px"
	 width="171.7px" height="171.7px" viewBox="0 0 171.7 171.7" style="enable-background:new 0 0 171.7 171.7;" xml:space="preserve"
	>
<symbol  id="FlashAICB_x2F_Layer_1_x2F__x3C_Clip_Group_0_x3E_" viewBox="0 -103.5 103.1 103.5">
	<g id="Layer_1_5_">
	</g>
	<g>
		<defs>
			<polygon id="SVGID_1_" points="55.1,-23.45 25.6,-72.15 30.25,-80.1 55.35,-39.1 67.95,-60.5 77.5,-60.5 			"/>
		</defs>
		<clipPath id="SVGID_2_">
			<use xlink:href="#SVGID_1_"  style="overflow:visible;"/>
		</clipPath>
		<g id="Layer_3_3_" style="clip-path:url(#SVGID_2_);">
			<linearGradient id="SVGID_3_" gradientUnits="userSpaceOnUse" x1="62.7949" y1="-34.0596" x2="33.2949" y2="-80.5346">
				<stop  offset="0" style="stop-color:#F84F62"/>
				<stop  offset="1" style="stop-color:#F7092C"/>
			</linearGradient>
			<polygon style="fill-rule:evenodd;clip-rule:evenodd;fill:url(#SVGID_3_);" points="40.5,0 103.1,-39.75 62.6,-103.5 0,-63.8 			
				"/>
		</g>
	</g>
	<g id="Layer_4_3_">
	</g>
</symbol>
<symbol  id="FlashAICB_x2F_Layer_1_x2F__x3C_Clip_Group_0_x3E__x5F_1" viewBox="0 -88.25 88.35 88.25">
	<g id="Layer_1_4_">
	</g>
	<g>
		<defs>
			<polygon id="SVGID_4_" points="39.65,-20.85 29.85,-20.85 29.4,-27.7 52.25,-57.8 26.8,-57.8 20.6,-67.45 67.8,-67.45 			"/>
		</defs>
		<clipPath id="SVGID_5_">
			<use xlink:href="#SVGID_4_"  style="overflow:visible;"/>
		</clipPath>
		<g id="Layer_3_2_" style="clip-path:url(#SVGID_5_);">
			<linearGradient id="SVGID_6_" gradientUnits="userSpaceOnUse" x1="30.7085" y1="-21.7544" x2="57.8335" y2="-66.8794">
				<stop  offset="0" style="stop-color:#E0062A"/>
				<stop  offset="1" style="stop-color:#F70943"/>
			</linearGradient>
			<polygon style="fill-rule:evenodd;clip-rule:evenodd;fill:url(#SVGID_6_);" points="55.25,0 88.35,-55.1 33.1,-88.25 0,-33.25 
							"/>
		</g>
	</g>
	<g id="Layer_4_2_">
	</g>
</symbol>
<symbol  id="FlashAICB_x2F_Layer_1_x2F__x3C_Clip_Group_0_x3E__x5F_2" viewBox="0 -45.7 62.6 45.7">
	<g id="Layer_1_3_">
	</g>
	<g>
		<defs>
			<polygon id="SVGID_7_" points="57.25,-34.45 15.75,-35.8 31.3,-12.1 30.35,-5.45 23.6,0 1.95,-33.25 0,-45.7 56.5,-45.7 
				62.6,-35.8 			"/>
		</defs>
		<clipPath id="SVGID_8_">
			<use xlink:href="#SVGID_7_"  style="overflow:visible;"/>
		</clipPath>
		<g id="Layer_3_1_" style="clip-path:url(#SVGID_8_);">
			<linearGradient id="SVGID_9_" gradientUnits="userSpaceOnUse" x1="31.2998" y1="-45.8252" x2="31.2998" y2="-9.9752">
				<stop  offset="0" style="stop-color:#C60527"/>
				<stop  offset="1" style="stop-color:#E20731"/>
			</linearGradient>
			<polygon style="fill-rule:evenodd;clip-rule:evenodd;fill:url(#SVGID_9_);" points="62.6,-45.7 0,-45.7 0,0 62.6,0 			"/>
		</g>
	</g>
	<g id="Layer_4_1_">
	</g>
</symbol>
<symbol  id="FlashAICB_x2F_Layer_1_x2F__x3C_Group_x3E_" viewBox="0 -37.05 26.3 37.05">
	<g id="Layer_1_6_">
		<g>
			<g>
				<path style="fill-rule:evenodd;clip-rule:evenodd;fill:#F86775;" d="M26.3-37.05h-1C11.967-15.517,4.867-4.4,4-3.7
					C3.5-3.333,2.167-4.25,0-6.45L3.9,0L26.3-37.05z"/>
			</g>
		</g>
	</g>
</symbol>
<symbol  id="FlashAICB_x2F_Layer_1_x2F__x3C_Path_x3E_" viewBox="0 -61.85 128.65 61.85">
	<g id="Layer_1_7_">
		
			<radialGradient id="SVGID_10_" cx="64.3252" cy="-30.9248" r="50.4681" gradientTransform="matrix(1 0 0 -1 0 -61.8496)" gradientUnits="userSpaceOnUse">
			<stop  offset="0" style="stop-color:#DE98DD;stop-opacity:0"/>
			<stop  offset="0.149" style="stop-color:#D491D2;stop-opacity:0.1451"/>
			<stop  offset="0.4" style="stop-color:#B87DB7;stop-opacity:0.5333"/>
			<stop  offset="0.651" style="stop-color:#976696"/>
		</radialGradient>
		<path style="fill-rule:evenodd;clip-rule:evenodd;fill:url(#SVGID_10_);" d="M128.05-0.25l0.6,0.25
			c-0.633-17.233-7.167-31.85-19.6-43.85c-12.466-12-27.383-18-44.75-18c-17.033,0-31.75,5.817-44.15,17.45
			C7.817-32.833,1.1-18.633,0-1.8c5-13,13.233-23.5,24.7-31.5c11.7-8.167,24.716-12.25,39.05-12.25
			c14.633,0,27.883,4.25,39.75,12.75C115.1-24.5,123.283-13.65,128.05-0.25z"/>
	</g>
</symbol>
<symbol  id="FlashAICB_x2F_Layer_1_x2F__x3C_Path_x3E__x5F_0" viewBox="0 -66.434 119.2 66.434">
	<g id="Layer_1_9_">
		<path style="fill-rule:evenodd;clip-rule:evenodd;fill:#FFFFFF;" d="M115.4-37.25c2.533-6.1,3.8-11.85,3.8-17.25
			c0-5.367-1.567-8.75-4.7-10.15c-2.533-1.133-6.783-1.117-12.75,0.05c-7.9,1.9-14.217,3.367-18.95,4.4
			c-8.667,1.833-16.4,2.75-23.2,2.75c-6.867,0-14.6-1-23.2-3c-9.033-2.367-15.35-3.966-18.95-4.8c-6-1.367-10.25-1.55-12.75-0.55
			C1.567-64.533,0-61.217,0-55.85c0,5.934,1.267,12.067,3.8,18.4c2.667,6.7,6.434,12.75,11.3,18.15C26.7-6.433,41.533,0,59.6,0
			c17.833,0,32.65-6.5,44.45-19.5C108.883-24.833,112.667-30.75,115.4-37.25z"/>
	</g>
</symbol>
<symbol  id="FlashAICB_x2F_Layer_1_x2F__x3C_Path_x3E__x5F_1" viewBox="0 -128.55 128.8 128.55">
	<g id="Layer_1_2_">
		
			<radialGradient id="SVGID_11_" cx="64.3999" cy="-64.2749" r="64.3374" gradientTransform="matrix(1 0 0 -1 0 -128.5498)" gradientUnits="userSpaceOnUse">
			<stop  offset="0.2471" style="stop-color:#E2E5BD"/>
			<stop  offset="0.3059" style="stop-color:#E3DCB2"/>
			<stop  offset="0.4078" style="stop-color:#E5C596"/>
			<stop  offset="0.5412" style="stop-color:#E99F6A"/>
			<stop  offset="0.6863" style="stop-color:#EE6E33"/>
			<stop  offset="0.7373" style="stop-color:#E86C33;stop-opacity:0.9725"/>
			<stop  offset="0.8118" style="stop-color:#D76732;stop-opacity:0.898"/>
			<stop  offset="0.8941" style="stop-color:#BB5F31;stop-opacity:0.7804"/>
			<stop  offset="0.9804" style="stop-color:#955430;stop-opacity:0.6157"/>
			<stop  offset="1" style="stop-color:#8C5130;stop-opacity:0.5765"/>
		</radialGradient>
		<path style="fill-rule:evenodd;clip-rule:evenodd;fill:url(#SVGID_11_);" d="M128.8-64.3c0-17.733-6.283-32.883-18.85-45.45
			c-12.6-12.533-27.784-18.8-45.55-18.8c-17.8,0-32.983,6.267-45.55,18.8C6.283-97.217,0-82.067,0-64.3
			c0,17.767,6.283,32.917,18.85,45.45C31.417-6.283,46.6,0,64.4,0c17.767,0,32.95-6.283,45.55-18.85
			C122.517-31.417,128.8-46.567,128.8-64.3z"/>
	</g>
</symbol>
<symbol  id="FlashAICB_x2F_Layer_1_x2F__x3C_Path_x3E__x5F_1_x5F_0" viewBox="0 -60.45 119.2 60.45">
	<g id="Layer_1_8_">
		
			<linearGradient id="SVGID_12_" gradientUnits="userSpaceOnUse" x1="16160.585" y1="-58.4668" x2="16220.9756" y2="-58.4668" gradientTransform="matrix(1.654944e-005 1 -1 -0.001 0.8657 -16221.1064)">
			<stop  offset="0.1294" style="stop-color:#E2B8B2"/>
			<stop  offset="0.9255" style="stop-color:#FFFFFF"/>
		</linearGradient>
		<path style="fill-rule:evenodd;clip-rule:evenodd;fill:url(#SVGID_12_);" d="M104.05-19.5c4.833-5.333,8.617-11.25,11.35-17.75
			c2.533-6.1,3.8-11.85,3.8-17.25c0-1.833-0.184-3.45-0.55-4.85c-2,12-7.85,22.65-17.55,31.95c-11.4,11-25.233,16.5-41.5,16.5
			c-16.533,0-30.45-5.483-41.75-16.45c-9.733-9.433-15.533-20.467-17.4-33.1C0.15-59.15,0-57.617,0-55.85
			c0,5.934,1.267,12.067,3.8,18.4c2.667,6.7,6.434,12.75,11.3,18.15C26.7-6.433,41.533,0,59.6,0C77.433,0,92.25-6.5,104.05-19.5z"/>
	</g>
</symbol>
<g>
	<path style="fill-rule:evenodd;clip-rule:evenodd;fill:#FFFFFF;" d="M171.7,85.85c0,11.6-2.25,22.716-6.75,33.35
		c-4.367,10.267-10.5,19.366-18.4,27.3c-7.934,7.934-17.033,14.083-27.3,18.45c-10.634,4.5-21.767,6.75-33.4,6.75
		c-11.633,0-22.766-2.25-33.399-6.75c-10.267-4.367-19.367-10.517-27.3-18.45c-7.9-7.934-14.033-17.033-18.4-27.3
		C2.25,108.566,0,97.45,0,85.85c0-11.633,2.25-22.767,6.75-33.4c4.367-10.267,10.5-19.367,18.4-27.3
		c7.934-7.9,17.033-14.033,27.3-18.4C63.083,2.25,74.217,0,85.85,0c11.634,0,22.767,2.25,33.4,6.75
		c10.267,4.367,19.366,10.5,27.3,18.4c7.9,7.934,14.033,17.034,18.4,27.3C169.45,63.083,171.7,74.217,171.7,85.85z"/>
	<g>
		<g>
			
				<linearGradient id="SVGID_13_" gradientUnits="userSpaceOnUse" x1="-157.6353" y1="85.8506" x2="-14.2354" y2="85.8506" gradientTransform="matrix(6.973501e-006 -1 1 -0.001 -1.064519e-004 4.449275e-004)">
				<stop  offset="0.0745" style="stop-color:#8C5130"/>
				<stop  offset="0.1922" style="stop-color:#A56741"/>
				<stop  offset="0.4431" style="stop-color:#E59F6C"/>
				<stop  offset="0.4784" style="stop-color:#EFA773"/>
				<stop  offset="0.5961" style="stop-color:#EEAB77"/>
				<stop  offset="0.7176" style="stop-color:#ECB684"/>
				<stop  offset="0.8431" style="stop-color:#E8C799"/>
				<stop  offset="0.9725" style="stop-color:#E3DFB6"/>
				<stop  offset="1" style="stop-color:#E2E5BD"/>
			</linearGradient>
			<path style="fill-rule:evenodd;clip-rule:evenodd;fill:url(#SVGID_13_);" d="M151.9,113.75c-3.634,8.566-8.767,16.167-15.4,22.8
				c-6.6,6.601-14.2,11.717-22.8,15.351c-8.867,3.767-18.15,5.649-27.851,5.649c-9.7,0-19-1.883-27.899-5.649
				c-8.567-3.634-16.167-8.75-22.8-15.351c-6.6-6.633-11.717-14.233-15.35-22.8c-3.767-8.9-5.65-18.2-5.65-27.9
				c0-9.7,1.883-19,5.65-27.9c3.633-8.567,8.75-16.167,15.35-22.8c6.633-6.6,14.233-11.717,22.8-15.35
				c8.9-3.767,18.2-5.65,27.899-5.65c9.7,0,18.983,1.883,27.851,5.65c8.6,3.633,16.2,8.75,22.8,15.35
				c6.634,6.633,11.767,14.233,15.4,22.8c3.767,8.9,5.649,18.2,5.649,27.9C157.55,95.55,155.667,104.85,151.9,113.75z"/>
			<path style="fill-rule:evenodd;clip-rule:evenodd;fill:#45260C;" d="M151.1,113.4c3.7-8.767,5.551-17.95,5.551-27.55
				S154.8,67.066,151.1,58.3c-3.6-8.466-8.666-15.966-15.199-22.5C122.1,21.967,105.417,15.05,85.85,15.05
				c-9.6,0-18.8,1.85-27.6,5.55c-8.467,3.6-15.967,8.667-22.5,15.2c-6.533,6.534-11.6,14.034-15.2,22.5
				C16.85,67.066,15,76.25,15,85.85c0,19.567,6.917,36.25,20.75,50.05c6.533,6.533,14.033,11.6,22.5,15.199
				c8.8,3.7,18,5.551,27.6,5.551c9.601,0,18.784-1.851,27.551-5.551c8.466-3.6,15.966-8.666,22.5-15.199
				C142.434,129.366,147.5,121.866,151.1,113.4z M158.45,85.85c0,9.7-1.834,18.966-5.5,27.8c-3.667,8.833-8.934,16.666-15.8,23.5
				c-6.867,6.866-14.7,12.133-23.5,15.8c-8.834,3.666-18.101,5.5-27.801,5.5c-9.7,0-18.966-1.834-27.8-5.5
				c-8.833-3.667-16.683-8.934-23.55-15.8c-6.833-6.801-12.083-14.634-15.75-23.5c-3.633-8.834-5.45-18.101-5.45-27.8
				c0-9.7,1.817-18.967,5.45-27.8c3.667-8.833,8.917-16.683,15.75-23.55c6.867-6.833,14.717-12.083,23.55-15.75
				c8.833-3.667,18.1-5.5,27.8-5.5c9.7,0,18.967,1.833,27.801,5.5c8.8,3.633,16.633,8.883,23.5,15.75
				c6.866,6.867,12.133,14.717,15.8,23.55C156.616,66.883,158.45,76.15,158.45,85.85z"/>
		</g>
		
			<use xlink:href="#FlashAICB_x2F_Layer_1_x2F__x3C_Path_x3E__x5F_1"  width="128.8" height="128.55" y="-128.55" transform="matrix(1 0 0 -1 21.4502 19.25)" style="overflow:visible;opacity:0.3789;enable-background:new    ;"/>
		<g>
			<g>
				<path style="fill-rule:evenodd;clip-rule:evenodd;fill:#F3D3A5;" d="M65.7,30.05c1.5-1.433,3.25-2.15,5.25-2.15
					c2.033,0,3.733,0.6,5.1,1.8c1.367,1.267,2.05,2.9,2.05,4.9c0,1.9-0.934,4.1-2.8,6.6c-1.066,1.4-2.7,3.333-4.9,5.8h5.9
					c1.667,0,2.5,0.7,2.5,2.1c0,0.7-0.233,1.25-0.7,1.65c-0.4,0.333-0.934,0.5-1.6,0.5H65.7c-1.667,0-2.5-0.717-2.5-2.15
					c0-0.434,0.25-0.983,0.75-1.65c1.8-2.067,3.167-3.617,4.1-4.65c1.6-1.866,2.9-3.517,3.9-4.95c0.767-1.1,1.15-2.1,1.15-3
					c0-0.667-0.217-1.25-0.65-1.75c-0.467-0.5-1.017-0.75-1.65-0.75c-1.3,0-2.216,0.883-2.75,2.65c-0.566,1.733-1.333,2.6-2.3,2.6
					c-0.733,0-1.317-0.233-1.75-0.7c-0.4-0.433-0.6-0.983-0.6-1.65C63.4,33.217,64.167,31.483,65.7,30.05z"/>
				<path style="fill-rule:evenodd;clip-rule:evenodd;fill:#F3D3A5;" d="M94.35,32.75H88.3l-0.5,3.4c1.066-0.2,1.884-0.3,2.45-0.3
					c1.934,0,3.533,0.667,4.8,2c1.233,1.333,1.851,2.95,1.851,4.85c0,2.767-0.717,4.933-2.15,6.5c-1.5,1.6-3.634,2.4-6.4,2.4
					c-1.433,0-2.883-0.367-4.35-1.1c-1.8-0.867-2.7-1.934-2.7-3.2c0-0.6,0.217-1.116,0.65-1.55c0.4-0.434,0.9-0.65,1.5-0.65
					c0.367,0,1.1,0.35,2.2,1.05c1.066,0.7,2,1.05,2.8,1.05c1.066,0,1.916-0.45,2.55-1.35c0.566-0.8,0.85-1.767,0.85-2.9
					c0-0.967-0.25-1.75-0.75-2.35c-0.566-0.6-1.333-0.9-2.3-0.9c-0.666,0-1.333,0.183-2,0.55c-0.7,0.333-1.3,0.5-1.8,0.5
					c-0.6,0-1.083-0.184-1.45-0.55c-0.3-0.3-0.45-0.617-0.45-0.95l0.9-7.9c0.167-1.233,0.433-2.05,0.8-2.45
					c0.334-0.4,0.9-0.6,1.7-0.6h7.75c0.733,0,1.316,0.2,1.75,0.6c0.4,0.367,0.6,0.85,0.6,1.45C96.6,31.95,95.85,32.75,94.35,32.75z"
					/>
				<path style="fill-rule:evenodd;clip-rule:evenodd;fill:#F3D3A5;" d="M101.75,32.75c-0.733,0-1.3-0.233-1.7-0.7
					c-0.333-0.433-0.5-0.95-0.5-1.55s0.2-1.1,0.601-1.5c0.399-0.467,0.933-0.7,1.6-0.7h4.55c0.667,0,1.2,0.217,1.601,0.65
					c0.366,0.433,0.55,0.983,0.55,1.65v18.3c0,0.8-0.217,1.434-0.65,1.9c-0.434,0.434-1.017,0.65-1.75,0.65s-1.3-0.217-1.7-0.65
					c-0.466-0.466-0.699-1.1-0.699-1.9V32.75H101.75z"/>
			</g>
			<g>
				
					<linearGradient id="SVGID_14_" gradientUnits="userSpaceOnUse" x1="-50.3262" y1="71.0029" x2="-27.0262" y2="71.0029" gradientTransform="matrix(4.291846e-005 -1 1 -0.001 -1.943374e-004 -4.747650e-005)">
					<stop  offset="0.3882" style="stop-color:#510D02"/>
					<stop  offset="0.4039" style="stop-color:#540F02"/>
					<stop  offset="0.8078" style="stop-color:#933B07"/>
					<stop  offset="1" style="stop-color:#AC4C0B"/>
				</linearGradient>
				<path style="fill-rule:evenodd;clip-rule:evenodd;fill:url(#SVGID_14_);" d="M65.7,29.05c1.5-1.433,3.25-2.15,5.25-2.15
					c2.033,0,3.733,0.6,5.1,1.8c1.367,1.267,2.05,2.9,2.05,4.9c0,1.9-0.934,4.1-2.8,6.6c-1.066,1.4-2.7,3.333-4.9,5.8h5.9
					c1.667,0,2.5,0.7,2.5,2.1c0,0.7-0.233,1.25-0.7,1.65c-0.4,0.333-0.934,0.5-1.6,0.5H65.7c-1.667,0-2.5-0.717-2.5-2.15
					c0-0.434,0.25-0.983,0.75-1.65c1.8-2.067,3.167-3.617,4.1-4.65c1.6-1.866,2.9-3.517,3.9-4.95c0.767-1.1,1.15-2.1,1.15-3
					c0-0.667-0.217-1.25-0.65-1.75c-0.467-0.5-1.017-0.75-1.65-0.75c-1.3,0-2.216,0.883-2.75,2.65c-0.566,1.733-1.333,2.6-2.3,2.6
					c-0.733,0-1.317-0.233-1.75-0.7c-0.4-0.433-0.6-0.983-0.6-1.65C63.4,32.217,64.167,30.483,65.7,29.05z"/>
				
					<linearGradient id="SVGID_15_" gradientUnits="userSpaceOnUse" x1="-50.688" y1="89.1025" x2="-27.3857" y2="89.1025" gradientTransform="matrix(4.291846e-005 -1 1 -0.001 -1.943374e-004 -4.747650e-005)">
					<stop  offset="0.3882" style="stop-color:#510D02"/>
					<stop  offset="0.4039" style="stop-color:#540F02"/>
					<stop  offset="0.8078" style="stop-color:#933B07"/>
					<stop  offset="1" style="stop-color:#AC4C0B"/>
				</linearGradient>
				<path style="fill-rule:evenodd;clip-rule:evenodd;fill:url(#SVGID_15_);" d="M94.35,31.75H88.3l-0.5,3.4
					c1.066-0.2,1.884-0.3,2.45-0.3c1.934,0,3.533,0.667,4.8,2c1.233,1.333,1.851,2.95,1.851,4.85c0,2.767-0.717,4.933-2.15,6.5
					c-1.5,1.6-3.634,2.4-6.4,2.4c-1.433,0-2.883-0.367-4.35-1.1c-1.8-0.867-2.7-1.934-2.7-3.2c0-0.6,0.217-1.116,0.65-1.55
					c0.4-0.434,0.9-0.65,1.5-0.65c0.367,0,1.1,0.35,2.2,1.05c1.066,0.7,2,1.05,2.8,1.05c1.066,0,1.916-0.45,2.55-1.35
					c0.566-0.8,0.85-1.767,0.85-2.9c0-0.967-0.25-1.75-0.75-2.35c-0.566-0.6-1.333-0.9-2.3-0.9c-0.666,0-1.333,0.183-2,0.55
					c-0.7,0.333-1.3,0.5-1.8,0.5c-0.6,0-1.083-0.184-1.45-0.55c-0.3-0.3-0.45-0.617-0.45-0.95l0.9-7.9
					c0.167-1.233,0.433-2.05,0.8-2.45c0.334-0.4,0.9-0.6,1.7-0.6h7.75c0.733,0,1.316,0.2,1.75,0.6c0.4,0.367,0.6,0.85,0.6,1.45
					C96.6,30.95,95.85,31.75,94.35,31.75z"/>
				
					<linearGradient id="SVGID_16_" gradientUnits="userSpaceOnUse" x1="-50.5166" y1="104.002" x2="-27.3916" y2="104.002" gradientTransform="matrix(4.324325e-005 -1 1 -0.001 -2.319270e-005 4.439838e-004)">
					<stop  offset="0.3882" style="stop-color:#510D02"/>
					<stop  offset="0.4039" style="stop-color:#540F02"/>
					<stop  offset="0.8078" style="stop-color:#933B07"/>
					<stop  offset="1" style="stop-color:#AC4C0B"/>
				</linearGradient>
				<path style="fill-rule:evenodd;clip-rule:evenodd;fill:url(#SVGID_16_);" d="M101.75,31.75c-0.733,0-1.3-0.233-1.7-0.7
					c-0.333-0.433-0.5-0.95-0.5-1.55s0.2-1.1,0.601-1.5c0.399-0.467,0.933-0.7,1.6-0.7h4.55c0.667,0,1.2,0.217,1.601,0.65
					c0.366,0.433,0.55,0.983,0.55,1.65v18.3c0,0.8-0.217,1.434-0.65,1.9c-0.434,0.434-1.017,0.65-1.75,0.65s-1.3-0.217-1.7-0.65
					c-0.466-0.466-0.699-1.1-0.699-1.9V31.75H101.75z"/>
			</g>
		</g>
		<g>
			<path style="fill-rule:evenodd;clip-rule:evenodd;fill:#45260C;" d="M81.8,101.85h12.8L88.55,91.6L81.8,101.85z M53.05,114.8
				c-0.167-0.267-0.167-0.55,0-0.85l29.25-48.3c0-0.2,0.083-0.367,0.25-0.5c0.133-0.167,0.3-0.25,0.5-0.25h9.8
				c0.301,0,0.534,0.133,0.7,0.4L121.65,111.9c0.133,0.233,0.149,0.5,0.05,0.8c-0.101,0.166-0.217,0.267-0.351,0.3l-5.899,9.65
				c-0.167,0.233-0.4,0.35-0.7,0.35H58.8c-0.133,0.1-0.283,0.15-0.45,0.15c-0.267,0-0.483-0.134-0.65-0.4h-0.05l-0.15-0.35
				L53.05,114.8z"/>
			<g>
				<path style="fill-rule:evenodd;clip-rule:evenodd;fill:#DFF39B;" d="M49.35,118c-0.467-0.8-0.684-1.667-0.65-2.6
					c0-0.934,0.233-1.784,0.7-2.551L78.35,65c0.367-0.967,0.983-1.75,1.85-2.35s1.816-0.9,2.85-0.9h9.8c1.9,0,3.334,0.8,4.301,2.4
					l28.149,46.6c0.467,0.767,0.717,1.616,0.75,2.55c0,0.9-0.217,1.75-0.649,2.55c-0.4,0.601-0.65,0.934-0.75,1l-5.601,9.051
					c-1.033,1.566-2.467,2.35-4.3,2.35H59.5c-0.4,0.1-0.783,0.15-1.15,0.15c-1.7-0.067-3.033-0.733-4-2
					c-0.367-0.5-0.583-0.851-0.65-1.051L49.35,118z"/>
				<path style="fill-rule:evenodd;clip-rule:evenodd;fill:#F3D3A5;" d="M49.3,112.75l28.95-47.8c0.367-1,1-1.8,1.9-2.4
					c0.867-0.633,1.833-0.95,2.9-0.95h9.8c0.9,0,1.75,0.216,2.551,0.65c0.8,0.467,1.416,1.083,1.85,1.85l28.15,46.6
					c0.466,0.8,0.716,1.666,0.75,2.6c0,0.934-0.217,1.8-0.65,2.601l-0.75,1l-5.6,9.1c-1.034,1.6-2.5,2.4-4.4,2.4H59.5l-1.15,0.1
					c-1.733,0-3.1-0.684-4.1-2.05c-0.4-0.533-0.633-0.884-0.7-1.05l-4.3-7.351c-0.467-0.833-0.7-1.717-0.7-2.649
					C48.583,114.467,48.833,113.583,49.3,112.75z"/>
			</g>
			<g>
				
					<linearGradient id="SVGID_17_" gradientUnits="userSpaceOnUse" x1="-127.4248" y1="87.375" x2="-60.7993" y2="87.375" gradientTransform="matrix(1.499813e-005 -1 1 -0.001 7.776734e-006 4.449275e-004)">
					<stop  offset="0.1098" style="stop-color:#D38D51"/>
					<stop  offset="0.2353" style="stop-color:#D5955A"/>
					<stop  offset="0.6078" style="stop-color:#DAA773"/>
					<stop  offset="1" style="stop-color:#F0C19F"/>
				</linearGradient>
				<path style="fill-rule:evenodd;clip-rule:evenodd;fill:url(#SVGID_17_);" d="M49.35,116.95c-0.467-0.8-0.684-1.667-0.65-2.601
					c0-0.933,0.233-1.8,0.7-2.6l28.95-47.8c0.367-0.967,0.983-1.767,1.85-2.4c0.867-0.6,1.816-0.9,2.85-0.9h9.8
					c0.867,0,1.684,0.217,2.45,0.65c0.767,0.434,1.384,1.034,1.851,1.8l28.149,46.6c0.467,0.767,0.717,1.616,0.75,2.55
					c0,0.9-0.217,1.75-0.649,2.55c-0.334,0.467-0.584,0.783-0.75,0.95l-5.601,9.1c-1.033,1.567-2.467,2.351-4.3,2.351H59.5
					c-0.267,0.066-0.65,0.1-1.15,0.1c-1.633,0-2.967-0.649-4-1.95c-0.267-0.333-0.483-0.683-0.65-1.05L49.35,116.95z"/>
				<path style="fill-rule:evenodd;clip-rule:evenodd;fill:none;stroke:#F3D3A5;stroke-width:0.25;stroke-miterlimit:10;" d="
					M49.35,116.95l4.35,7.35c0.167,0.367,0.383,0.717,0.65,1.05c1.033,1.301,2.367,1.95,4,1.95c0.5,0,0.883-0.033,1.15-0.1h55.25
					c1.833,0,3.267-0.783,4.3-2.351l5.601-9.1c0.166-0.167,0.416-0.483,0.75-0.95c0.433-0.8,0.649-1.649,0.649-2.55
					c-0.033-0.934-0.283-1.783-0.75-2.55L97.15,63.1c-0.467-0.767-1.084-1.367-1.851-1.8c-0.767-0.433-1.583-0.65-2.45-0.65h-9.8
					c-1.033,0-1.983,0.3-2.85,0.9c-0.867,0.634-1.483,1.434-1.85,2.4l-28.95,47.8c-0.467,0.8-0.7,1.667-0.7,2.6
					C48.667,115.283,48.883,116.15,49.35,116.95z"/>
				
					<linearGradient id="SVGID_18_" gradientUnits="userSpaceOnUse" x1="-127.5083" y1="87.377" x2="-60.6323" y2="87.377" gradientTransform="matrix(1.494210e-005 -1 1 -0.001 4.184959e-005 4.449275e-004)">
					<stop  offset="0.1098" style="stop-color:#AB3D15"/>
					<stop  offset="0.4157" style="stop-color:#C46F46"/>
					<stop  offset="0.8118" style="stop-color:#E4AA86"/>
					<stop  offset="1" style="stop-color:#F0C19F"/>
				</linearGradient>
				<path style="fill-rule:evenodd;clip-rule:evenodd;fill:url(#SVGID_18_);" d="M49.3,111.7l28.95-47.85
					c0.367-0.967,1-1.767,1.9-2.4c0.9-0.6,1.867-0.9,2.9-0.9h9.8c0.9,0,1.75,0.217,2.551,0.65c0.8,0.466,1.416,1.083,1.85,1.85
					l28.15,46.601c1.033,1.733,1.066,3.466,0.1,5.199c-0.134,0.2-0.384,0.534-0.75,1l-5.6,9.051c-1,1.6-2.467,2.399-4.4,2.399H59.5
					c-0.333,0.101-0.717,0.15-1.15,0.15c-1.733,0-3.1-0.667-4.1-2l-5-8.45c-0.467-0.833-0.7-1.717-0.7-2.65
					C48.583,113.417,48.833,112.533,49.3,111.7z"/>
				<path style="fill-rule:evenodd;clip-rule:evenodd;fill:none;stroke:#F3D3A5;stroke-width:0.25;" d="M49.3,111.7l28.95-47.85
					c0.367-0.967,1-1.767,1.9-2.4c0.9-0.6,1.867-0.9,2.9-0.9h9.8c0.9,0,1.75,0.217,2.551,0.65c0.8,0.466,1.416,1.083,1.85,1.85
					l28.15,46.601c1.033,1.733,1.066,3.466,0.1,5.199c-0.134,0.2-0.384,0.534-0.75,1l-5.6,9.051c-1,1.6-2.467,2.399-4.4,2.399H59.5
					c-0.333,0.101-0.717,0.15-1.15,0.15c-1.733,0-3.1-0.667-4.1-2l-5-8.45c-0.467-0.833-0.7-1.717-0.7-2.65
					C48.583,113.417,48.833,112.533,49.3,111.7z"/>
			</g>
			<path style="fill-rule:evenodd;clip-rule:evenodd;fill:#421804;" d="M81.8,101.85h12.8L88.55,91.6L81.8,101.85z M53.05,114.8
				c-0.167-0.267-0.167-0.55,0-0.85l29.25-48.3c0-0.2,0.083-0.367,0.25-0.5c0.133-0.167,0.3-0.25,0.5-0.25h9.8
				c0.301,0,0.534,0.133,0.7,0.4L121.65,111.9c0.133,0.233,0.149,0.5,0.05,0.8c-0.101,0.166-0.217,0.267-0.351,0.3l-5.899,9.65
				c-0.167,0.233-0.4,0.35-0.7,0.35H58.8c-0.133,0.1-0.283,0.15-0.45,0.15c-0.267,0-0.483-0.134-0.65-0.4h-0.05l-0.15-0.35
				L53.05,114.8z"/>
			<g>
				
					<use xlink:href="#FlashAICB_x2F_Layer_1_x2F__x3C_Clip_Group_0_x3E__x5F_2"  width="62.6" height="45.7" y="-45.7" transform="matrix(1 0 0 -1 58.25 76.5)" style="overflow:visible;"/>
				
					<use xlink:href="#FlashAICB_x2F_Layer_1_x2F__x3C_Clip_Group_0_x3E__x5F_1"  width="88.35" height="88.25" y="-88.25" transform="matrix(1 0 0 -1 53.2002 44.8501)" style="overflow:visible;"/>
				
					<use xlink:href="#FlashAICB_x2F_Layer_1_x2F__x3C_Clip_Group_0_x3E_"  width="103.1" height="103.5" y="-103.5" transform="matrix(1 0 0 -1 28.1001 42.25)" style="overflow:visible;"/>
				<g>
					
						<use xlink:href="#FlashAICB_x2F_Layer_1_x2F__x3C_Group_x3E_"  width="26.3" height="37.05" y="-37.05" transform="matrix(1 0 0 -1 79.2998 65.7002)" style="overflow:visible;opacity:0.7188;enable-background:new    ;"/>
				</g>
			</g>
		</g>
		
			<use xlink:href="#FlashAICB_x2F_Layer_1_x2F__x3C_Path_x3E_"  width="128.65" height="61.85" y="-61.85" transform="matrix(1 0 0 -1 21.5 85.9502)" style="overflow:visible;opacity:0.3398;enable-background:new    ;"/>
		<g>
			
				<use xlink:href="#FlashAICB_x2F_Layer_1_x2F__x3C_Path_x3E__x5F_1_x5F_0"  width="119.2" height="60.45" y="-60.45" transform="matrix(1 0 0 -1 26.25 22.2002)" style="overflow:visible;opacity:0.1992;enable-background:new    ;"/>
			
				<use xlink:href="#FlashAICB_x2F_Layer_1_x2F__x3C_Path_x3E__x5F_0"  width="119.2" height="66.434" y="-66.434" transform="matrix(1 0 0 -1 26.25 22.2002)" style="overflow:visible;opacity:0.0781;enable-background:new    ;"/>
		</g>
	</g>
</g>
</svg>
