<?xml version="1.0" encoding="iso-8859-1"?>
<!-- Generator: Adobe Illustrator 15.1.0, SVG Export Plug-In . SVG Version: 6.00 Build 0)  -->
<!DOCTYPE svg PUBLIC "-//W3C//DTD SVG 1.1//EN" "http://www.w3.org/Graphics/SVG/1.1/DTD/svg11.dtd">
<svg version="1.1" id="Layer_15" xmlns="http://www.w3.org/2000/svg" xmlns:xlink="http://www.w3.org/1999/xlink" x="0px" y="0px"
	 width="172.4px" height="172.45px" viewBox="0 0 172.4 172.45" style="enable-background:new 0 0 172.4 172.45;"
	 xml:space="preserve">
<symbol  id="FlashAICB_x2F_Layer_15_x2F__x3C_Clip_Group_0_x3E_" viewBox="0 -41.125 66.55 41.071">
	<g id="Layer_1_8_">
		<linearGradient id="SVGID_1_" gradientUnits="userSpaceOnUse" x1="3.5498" y1="-20.5771" x2="61.5498" y2="-20.5771">
			<stop  offset="0" style="stop-color:#895D1A"/>
			<stop  offset="0.2157" style="stop-color:#BE9527"/>
			<stop  offset="0.851" style="stop-color:#FCEA78"/>
		</linearGradient>
		<path style="fill-rule:evenodd;clip-rule:evenodd;fill:url(#SVGID_1_);" d="M65.1-15.7c-0.567-3.267-0.983-9.983-1.25-20.15
			l-0.1-2.05c-0.633-0.533-2.383-1.067-5.25-1.6c-5.7-1.067-14.033-1.6-25-1.6s-19.4,0.75-25.3,2.25
			c-2.934,0.767-4.767,1.533-5.5,2.3c-0.5,10.466-0.9,16.8-1.2,19L0-7.9c0.233-0.4,0.567-1.167,1-2.3c0.4-1.133,0.967-2.233,1.7-3.3
			L2.45-4.2c0.4-0.1,0.883-0.966,1.45-2.6c0.5-1.367,1.583-3.95,3.25-7.75c1.7-3.967,2.667-6.067,2.9-6.3c0.4-0.4,0.8-0.6,1.2-0.6
			c0.567,0.034,0.983,0.6,1.25,1.7c0.4,1.7,2.067,8.067,5,19.1c0.133,0.566,0.583-0.083,1.35-1.95c0.433-1.033,2.066-4.217,4.9-9.55
			c2.933-5.434,4.567-8.3,4.9-8.6c1.167-1,2.217-0.633,3.15,1.1c0.833,1.5,3.983,7.95,9.45,19.35c0.133,0.267,0.267,0.316,0.4,0.15
			c0.133-0.267,0.4-1.05,0.8-2.35c0.4-1.367,1.566-4.583,3.5-9.65c1.9-5.033,2.983-7.767,3.25-8.2c0.3-0.566,0.566-0.883,0.8-0.95
			c0.367-0.067,0.833,0.333,1.4,1.2c0.633,1,2.317,4.2,5.05,9.6c2.733,5.433,4.1,8.267,4.1,8.5c0.267-1.567,0.434-3.283,0.5-5.15
			c0.067-2.1,0.217-4.767,0.45-8c0.267-3.9,0.483-5.717,0.65-5.45c0.233,0.4,1.7,4.917,4.4,13.55L65.1-15.7z"/>
	</g>
	<g>
		<defs>
			<path id="SVGID_2_" d="M62.15-20.6c-0.167-0.267-0.383,1.55-0.65,5.45c-0.233,3.233-0.383,5.9-0.45,8
				c-0.066,1.867-0.233,3.583-0.5,5.15c0-0.233-1.367-3.067-4.1-8.5c-2.733-5.4-4.417-8.6-5.05-9.6
				c-0.566-0.867-1.033-1.267-1.4-1.2c-0.233,0.066-0.5,0.383-0.8,0.95c-0.267,0.434-1.35,3.167-3.25,8.2
				c-1.934,5.066-3.1,8.283-3.5,9.65c-0.4,1.3-0.667,2.083-0.8,2.35c-0.133,0.167-0.267,0.117-0.4-0.15
				c-5.467-11.4-8.617-17.85-9.45-19.35c-0.933-1.733-1.983-2.1-3.15-1.1c-0.333,0.3-1.967,3.167-4.9,8.6
				c-2.833,5.333-4.467,8.517-4.9,9.55c-0.767,1.867-1.217,2.517-1.35,1.95c-2.933-11.033-4.6-17.4-5-19.1
				c-0.267-1.1-0.683-1.667-1.25-1.7c-0.4,0-0.8,0.2-1.2,0.6c-0.233,0.233-1.2,2.333-2.9,6.3C5.483-10.75,4.4-8.167,3.9-6.8
				C3.333-5.167,2.85-4.3,2.45-4.2l0.25-9.3c-0.733,1.067-1.3,2.167-1.7,3.3C0.567-9.067,0.233-8.3,0-7.9l1.5-9.65
				c0.3-2.2,0.7-8.534,1.2-19c0.733-0.767,2.566-1.534,5.5-2.3c5.9-1.5,14.333-2.25,25.3-2.25s19.3,0.533,25,1.6
				c2.867,0.533,4.617,1.067,5.25,1.6l0.1,2.05c0.267,10.167,0.683,16.883,1.25,20.15l1.45,8.65
				C63.85-15.683,62.383-20.2,62.15-20.6z"/>
		</defs>
		<clipPath id="SVGID_3_">
			<use xlink:href="#SVGID_2_"  style="overflow:visible;"/>
		</clipPath>
		<g id="Layer_3_1_" style="clip-path:url(#SVGID_3_);">
			<path style="fill-rule:evenodd;clip-rule:evenodd;fill:#61490E;" d="M2.4-6.55L3.3-6.4c0-1.067,0.083-2.517,0.25-4.35
				c0.333-3.6,0.967-7.25,1.9-10.95c0.5-1.933,0.816-4.083,0.95-6.45c0.067-1.267,0.15-2.95,0.25-5.05
				c0.3-3.066,1.95-4.983,4.95-5.75c4.125-1.08,7.884-1.805,11.275-2.175L5.2-39.55l-0.35,0.5L2.4-7.65V-6.55z"/>
		</g>
	</g>
	<g id="Layer_4_1_">
	</g>
</symbol>
<symbol  id="FlashAICB_x2F_Layer_15_x2F__x3C_Path_x3E_" viewBox="0 -61.294 110 61.294">
	<g id="Layer_1_3_">
		<path style="fill-rule:evenodd;clip-rule:evenodd;fill:#FFFFFF;" d="M106.5-34.4c2.333-5.633,3.5-10.934,3.5-15.9
			c0-4.967-1.433-8.083-4.3-9.35c-2.367-1.067-6.3-1.05-11.8,0.05c-7.267,1.767-13.1,3.117-17.5,4.05C68.4-53.85,61.267-53,55-53
			c-6.3,0-13.433-0.917-21.4-2.75c-8.333-2.2-14.167-3.683-17.5-4.45c-5.533-1.267-9.45-1.433-11.75-0.5
			C1.45-59.533,0-56.483,0-51.55c0,5.5,1.167,11.167,3.5,17c2.467,6.167,5.95,11.733,10.45,16.7C24.65-5.95,38.333,0,55,0
			c16.467,0,30.133-6,41-18C100.467-22.9,103.967-28.367,106.5-34.4z"/>
	</g>
</symbol>
<symbol  id="FlashAICB_x2F_Layer_15_x2F__x3C_Path_x3E__x5F_0" viewBox="0 -118.3 118.5 118.3">
	<g id="Layer_1_4_">
		
			<radialGradient id="SVGID_4_" cx="59.25" cy="-59.1499" r="59.2" gradientTransform="matrix(1 0 0 -1 0 -118.2998)" gradientUnits="userSpaceOnUse">
			<stop  offset="0" style="stop-color:#CCEFE7"/>
			<stop  offset="0.0863" style="stop-color:#C2E8E0"/>
			<stop  offset="0.2392" style="stop-color:#A6D6CF"/>
			<stop  offset="0.4353" style="stop-color:#7BB8B2"/>
			<stop  offset="0.6078" style="stop-color:#519A96"/>
			<stop  offset="0.8039" style="stop-color:#539A96"/>
			<stop  offset="0.8745" style="stop-color:#589A96"/>
			<stop  offset="0.9255" style="stop-color:#629B96"/>
			<stop  offset="0.9686" style="stop-color:#719B96"/>
			<stop  offset="1" style="stop-color:#839C96"/>
		</radialGradient>
		<path style="fill-rule:evenodd;clip-rule:evenodd;fill:url(#SVGID_4_);" d="M118.5-59.15c0-16.333-5.783-30.267-17.35-41.8
			c-11.566-11.566-25.533-17.35-41.9-17.35s-30.333,5.783-41.9,17.35C5.783-89.417,0-75.483,0-59.15
			c0,16.333,5.783,30.267,17.35,41.8C28.917-5.783,42.883,0,59.25,0s30.333-5.783,41.9-17.35
			C112.717-28.883,118.5-42.817,118.5-59.15z"/>
	</g>
</symbol>
<symbol  id="FlashAICB_x2F_Layer_15_x2F__x3C_Path_x3E__x5F_1" viewBox="0 -55.8 110 55.8">
	<g id="Layer_1_2_">
		
			<linearGradient id="SVGID_5_" gradientUnits="userSpaceOnUse" x1="16163.3066" y1="-53.8555" x2="16219.0518" y2="-53.8555" gradientTransform="matrix(1.792918e-005 1 -1 -0.001 0.8545 -16219.1055)">
			<stop  offset="0.1294" style="stop-color:#E2B8B2"/>
			<stop  offset="0.9255" style="stop-color:#FFFFFF"/>
		</linearGradient>
		<path style="fill-rule:evenodd;clip-rule:evenodd;fill:url(#SVGID_5_);" d="M96-18c4.467-4.9,7.967-10.367,10.5-16.4
			c2.333-5.633,3.5-10.934,3.5-15.9c0-1.733-0.15-3.217-0.45-4.45c-1.867,11.067-7.267,20.9-16.2,29.5
			C82.783-15.117,70-10.05,55-10.05c-15.233,0-28.067-5.067-38.5-15.2C7.5-33.983,2.15-44.167,0.45-55.8C0.15-54.6,0-53.183,0-51.55
			c0,5.5,1.167,11.167,3.5,17c2.467,6.167,5.95,11.733,10.45,16.7C24.65-5.95,38.333,0,55,0C71.467,0,85.133-6,96-18z"/>
	</g>
</symbol>
<symbol  id="FlashAICB_x2F_Layer_15_x2F__x3C_Path_x3E__x5F_1_x5F_0" viewBox="0 -55.8 110.05 55.8">
	<g id="Layer_1_6_">
		
			<linearGradient id="SVGID_6_" gradientUnits="userSpaceOnUse" x1="16163.3066" y1="-53.8804" x2="16219.0518" y2="-53.8804" gradientTransform="matrix(1.792918e-005 1 -1 -0.001 0.8545 -16219.1055)">
			<stop  offset="0.1294" style="stop-color:#E2B8B2"/>
			<stop  offset="0.9255" style="stop-color:#FFFFFF"/>
		</linearGradient>
		<path style="fill-rule:evenodd;clip-rule:evenodd;fill:url(#SVGID_6_);" d="M96.05-18c4.467-4.9,7.95-10.367,10.45-16.4
			c2.367-5.633,3.55-10.934,3.55-15.9c0-1.567-0.167-3.05-0.5-4.45c-1.867,11.067-7.267,20.9-16.2,29.5
			C82.783-15.117,70-10.05,55-10.05c-15.233,0-28.067-5.067-38.5-15.2C7.533-33.95,2.183-44.133,0.45-55.8
			C0.15-54.6,0-53.183,0-51.55c0,5.5,1.167,11.167,3.5,17c2.467,6.167,5.95,11.733,10.45,16.7C24.65-5.95,38.333,0,55,0
			C71.467,0,85.15-6,96.05-18z"/>
	</g>
</symbol>
<symbol  id="FlashAICB_x2F_Layer_15_x2F__x3C_Path_x3E__x5F_2" viewBox="0 -57.15 118.7 57.15">
	<g id="Layer_1_5_">
		
			<radialGradient id="SVGID_7_" cx="59.3501" cy="-28.5752" r="46.5777" gradientTransform="matrix(1 0 0 -1 0 -57.1504)" gradientUnits="userSpaceOnUse">
			<stop  offset="0" style="stop-color:#000000;stop-opacity:0"/>
			<stop  offset="0.651" style="stop-color:#000000;stop-opacity:0.4"/>
		</radialGradient>
		<path style="fill-rule:evenodd;clip-rule:evenodd;fill:url(#SVGID_7_);" d="M95.5-30.35c10.733,7.7,18.3,17.733,22.7,30.1L118.7,0
			c-0.567-15.9-6.6-29.4-18.1-40.5S75.333-57.15,59.3-57.15c-15.7,0-29.267,5.367-40.7,16.1C7.2-30.35,1-17.233,0-1.7
			c4.633-12,12.217-21.7,22.75-29.1c10.833-7.567,22.867-11.35,36.1-11.35C72.35-42.15,84.567-38.217,95.5-30.35z"/>
	</g>
</symbol>
<symbol  id="FlashAICB_x2F_Layer_15_x2F__x3C_Path_x3E__x5F_3" viewBox="0 -61.294 110.05 61.294">
	<g id="Layer_1_7_">
		<path style="fill-rule:evenodd;clip-rule:evenodd;fill:#FFFFFF;" d="M106.5-34.4c2.367-5.633,3.55-10.934,3.55-15.9
			c0-4.967-1.45-8.083-4.35-9.35c-2.333-1.067-6.25-1.05-11.75,0.05c-7.3,1.767-13.133,3.117-17.5,4.05
			C68.417-53.85,61.267-53,55-53c-6.3,0-13.433-0.917-21.4-2.75c-8.333-2.2-14.167-3.683-17.5-4.45
			c-5.533-1.267-9.45-1.433-11.75-0.5C1.45-59.533,0-56.483,0-51.55c0,5.5,1.167,11.167,3.5,17c2.467,6.167,5.95,11.733,10.45,16.7
			C24.65-5.95,38.333,0,55,0c16.467,0,30.15-6,41.05-18C100.517-22.9,104-28.367,106.5-34.4z"/>
	</g>
</symbol>
<g>
	<path style="fill-rule:evenodd;clip-rule:evenodd;fill:#68757B;" d="M119.75,6.8c10.3,4.367,19.434,10.534,27.4,18.5
		c7.933,7.967,14.083,17.1,18.449,27.4c4.534,10.667,6.801,21.833,6.801,33.5c0,11.666-2.267,22.85-6.801,33.55
		c-4.366,10.3-10.517,19.434-18.449,27.4c-7.967,7.966-17.101,14.133-27.4,18.5c-10.7,4.533-21.884,6.8-33.55,6.8
		c-11.667,0-22.85-2.267-33.55-6.8c-10.3-4.367-19.433-10.534-27.4-18.5c-7.933-7.967-14.083-17.101-18.45-27.4
		C2.267,109.05,0,97.866,0,86.2c0-11.667,2.267-22.833,6.8-33.5c4.367-10.3,10.517-19.434,18.45-27.4
		c7.967-7.966,17.1-14.133,27.4-18.5C63.35,2.267,74.533,0,86.2,0C97.866,0,109.05,2.267,119.75,6.8z"/>
	
		<linearGradient id="SVGID_8_" gradientUnits="userSpaceOnUse" x1="-172.5361" y1="86.2002" x2="-0.0859" y2="86.2002" gradientTransform="matrix(5.800464e-006 -1 1 -0.001 1.435640e-004 4.683650e-004)">
		<stop  offset="0.0235" style="stop-color:#737373"/>
		<stop  offset="0.0745" style="stop-color:#81807F"/>
		<stop  offset="0.4039" style="stop-color:#DCD4CA"/>
		<stop  offset="0.5765" style="stop-color:#EFEADA"/>
		<stop  offset="0.749" style="stop-color:#FEFBE7"/>
		<stop  offset="0.9961" style="stop-color:#E3E7E9"/>
	</linearGradient>
	<path style="fill-rule:evenodd;clip-rule:evenodd;fill:url(#SVGID_8_);" d="M119.75,6.8c10.3,4.367,19.434,10.534,27.4,18.5
		c7.933,7.967,14.083,17.1,18.449,27.4c4.534,10.667,6.801,21.833,6.801,33.5c0,11.666-2.267,22.85-6.801,33.55
		c-4.366,10.3-10.517,19.434-18.449,27.4c-7.967,7.966-17.101,14.133-27.4,18.5c-10.7,4.533-21.884,6.8-33.55,6.8
		c-11.667,0-22.85-2.267-33.55-6.8c-10.3-4.367-19.433-10.534-27.4-18.5c-7.933-7.967-14.083-17.101-18.45-27.4
		C2.267,109.05,0,97.866,0,86.2c0-11.667,2.267-22.833,6.8-33.5c4.367-10.3,10.517-19.434,18.45-27.4
		c7.967-7.966,17.1-14.133,27.4-18.5C63.35,2.267,74.533,0,86.2,0C97.866,0,109.05,2.267,119.75,6.8z"/>
	<g>
		<g>
			
				<linearGradient id="SVGID_9_" gradientUnits="userSpaceOnUse" x1="-159.0859" y1="86.2007" x2="-13.4858" y2="86.2007" gradientTransform="matrix(6.869312e-006 -1 1 -0.001 1.857748e-005 4.683650e-004)">
				<stop  offset="0" style="stop-color:#ECE7E0"/>
				<stop  offset="0.1216" style="stop-color:#E1DED8"/>
				<stop  offset="0.7059" style="stop-color:#B5B6B5"/>
				<stop  offset="1" style="stop-color:#A4A7A8"/>
			</linearGradient>
			<path style="fill-rule:evenodd;clip-rule:evenodd;fill:url(#SVGID_9_);" d="M137.7,34.75c6.7,6.7,11.899,14.4,15.6,23.1
				c3.8,9.033,5.7,18.483,5.7,28.35c0,9.866-1.9,19.316-5.7,28.35c-3.7,8.7-8.899,16.417-15.6,23.15
				c-6.733,6.7-14.45,11.899-23.15,15.6c-9.033,3.8-18.483,5.7-28.35,5.7c-9.867,0-19.317-1.9-28.35-5.7
				c-8.7-3.7-16.4-8.899-23.1-15.6c-6.733-6.733-11.95-14.45-15.65-23.15c-3.8-9.033-5.7-18.483-5.7-28.35
				c0-9.867,1.9-19.317,5.7-28.35c3.7-8.7,8.917-16.4,15.65-23.1c6.7-6.733,14.4-11.95,23.1-15.65c9.033-3.8,18.483-5.7,28.35-5.7
				c9.866,0,19.316,1.9,28.35,5.7C123.25,22.8,130.967,28.017,137.7,34.75z"/>
		</g>
	</g>
</g>
<g>
	<g>
		
			<use xlink:href="#FlashAICB_x2F_Layer_15_x2F__x3C_Path_x3E__x5F_1"  width="110" height="55.8" y="-55.8" transform="matrix(1 0 0 -1 31.1499 27.7002)" style="overflow:visible;opacity:0.1094;enable-background:new    ;"/>
		
			<use xlink:href="#FlashAICB_x2F_Layer_15_x2F__x3C_Path_x3E_"  width="110" height="61.294" y="-61.294" transform="matrix(1 0 0 -1 31.1499 27.7002)" style="overflow:visible;opacity:0.0898;enable-background:new    ;"/>
	</g>
	<g>
		
			<linearGradient id="SVGID_10_" gradientUnits="userSpaceOnUse" x1="-152.7861" y1="86.1504" x2="-20.8359" y2="86.1504" gradientTransform="matrix(7.580064e-006 -1 1 -0.001 -7.943509e-005 4.683650e-004)">
			<stop  offset="0.0745" style="stop-color:#3C5350"/>
			<stop  offset="0.1922" style="stop-color:#486D66"/>
			<stop  offset="0.4431" style="stop-color:#67AF9D"/>
			<stop  offset="0.4784" style="stop-color:#6CB9A6"/>
			<stop  offset="0.9216" style="stop-color:#E0D1B7"/>
		</linearGradient>
		<path style="fill-rule:evenodd;clip-rule:evenodd;fill:url(#SVGID_10_);" d="M152.1,86.75c0,18.167-6.433,33.7-19.3,46.6
			C119.9,146.25,104.35,152.7,86.15,152.7c-18.167,0-33.7-6.45-46.601-19.351c-12.9-12.899-19.35-28.433-19.35-46.6
			c0-18.2,6.45-33.75,19.35-46.65c12.9-12.9,28.434-19.35,46.601-19.35c18.199,0,33.75,6.45,46.649,19.35
			C145.667,53,152.1,68.55,152.1,86.75z"/>
		<path style="fill-rule:evenodd;clip-rule:evenodd;fill:#3B223B;" d="M151.3,86.75c0-18-6.35-33.35-19.05-46.05
			c-12.733-12.733-28.1-19.1-46.1-19.1c-17.967,0-33.317,6.367-46.05,19.1C27.367,53.4,21,68.75,21,86.75
			c0,17.967,6.367,33.316,19.1,46.05c12.733,12.7,28.083,19.05,46.05,19.05c18,0,33.366-6.35,46.1-19.05
			C144.95,120.066,151.3,104.717,151.3,86.75z M147.9,61.15c3.366,8.133,5.05,16.667,5.05,25.6s-1.684,17.45-5.05,25.55
			c-3.367,8.134-8.2,15.351-14.5,21.65c-6.334,6.333-13.551,11.184-21.65,14.55c-8.134,3.366-16.667,5.05-25.6,5.05
			c-8.934,0-17.45-1.684-25.55-5.05c-8.133-3.366-15.35-8.217-21.65-14.55c-6.333-6.3-11.184-13.517-14.55-21.65
			c-3.367-8.1-5.05-16.616-5.05-25.55s1.683-17.467,5.05-25.6S32.617,45.8,38.95,39.5c6.3-6.3,13.517-11.133,21.65-14.5
			c8.1-3.367,16.617-5.05,25.55-5.05c8.933,0,17.466,1.683,25.6,5.05c8.1,3.367,15.316,8.2,21.65,14.5
			C139.7,45.8,144.533,53.017,147.9,61.15z"/>
	</g>
	
		<use xlink:href="#FlashAICB_x2F_Layer_15_x2F__x3C_Path_x3E__x5F_0"  width="118.5" height="118.3" y="-118.3" transform="matrix(1 0 0 -1 26.8999 26.4502)" style="overflow:visible;opacity:0.3789;enable-background:new    ;"/>
</g>
<g>
	<g>
		<path style="fill-rule:evenodd;clip-rule:evenodd;fill:#DBF0E8;" d="M53.05,40.2c0.3,0.3,0.45,0.716,0.45,1.25v14.4
			c0,0.633-0.183,1.133-0.55,1.5c-0.333,0.333-0.784,0.5-1.35,0.5c-0.533,0-0.983-0.167-1.35-0.5c-0.367-0.367-0.55-0.867-0.55-1.5
			v-12.7h-1.5c-0.567,0-1-0.183-1.3-0.55c-0.267-0.333-0.4-0.733-0.4-1.2c0-0.466,0.15-0.867,0.45-1.2
			c0.333-0.367,0.75-0.55,1.25-0.55h3.6C52.333,39.65,52.75,39.833,53.05,40.2z"/>
		
			<linearGradient id="SVGID_11_" gradientUnits="userSpaceOnUse" x1="-57.8623" y1="50.002" x2="-39.2373" y2="50.002" gradientTransform="matrix(5.369128e-005 -1 1 -0.001 1.525310e-004 4.674215e-004)">
			<stop  offset="0" style="stop-color:#112924"/>
			<stop  offset="0.4549" style="stop-color:#21423D"/>
			<stop  offset="0.9686" style="stop-color:#36625F"/>
		</linearGradient>
		<path style="fill-rule:evenodd;clip-rule:evenodd;fill:url(#SVGID_11_);" d="M53.5,40.6V55c0,0.633-0.183,1.133-0.55,1.5
			c-0.333,0.333-0.784,0.5-1.35,0.5c-0.533,0-0.983-0.167-1.35-0.5c-0.367-0.367-0.55-0.867-0.55-1.5V42.3h-1.5
			c-0.567,0-1-0.183-1.3-0.55c-0.267-0.333-0.4-0.733-0.4-1.2c0-0.466,0.15-0.866,0.45-1.2c0.333-0.367,0.75-0.55,1.25-0.55h3.6
			c0.534,0,0.95,0.184,1.25,0.55C53.35,39.65,53.5,40.066,53.5,40.6z"/>
	</g>
	<g>
		<path style="fill-rule:evenodd;clip-rule:evenodd;fill:#DBF0E8;" d="M125.8,52.45c0,1.533-0.6,2.85-1.8,3.95
			c-1.233,1.1-2.75,1.65-4.55,1.65c-1.733,0-3.217-0.533-4.45-1.6c-1.1-1-1.65-2.05-1.65-3.15c0-0.466,0.217-0.866,0.65-1.2
			c0.4-0.333,0.833-0.5,1.3-0.5c0.5,0,1.05,0.5,1.65,1.5c0.633,0.966,1.483,1.45,2.55,1.45c0.667,0,1.217-0.216,1.65-0.65
			c0.466-0.466,0.699-1.033,0.699-1.7c0-1.233-0.716-1.95-2.149-2.15c-1.434-0.2-2.15-0.783-2.15-1.75c0-0.866,0.601-1.45,1.8-1.75
			c1.2-0.333,1.801-0.983,1.801-1.95c0-0.5-0.167-0.9-0.5-1.2c-0.334-0.333-0.767-0.5-1.301-0.5c-0.866,0-1.583,0.417-2.149,1.25
			c-0.601,0.833-1.15,1.25-1.65,1.25s-0.899-0.2-1.2-0.6c-0.3-0.333-0.449-0.75-0.449-1.25c0-1,0.566-1.933,1.699-2.8
			c1.134-0.867,2.4-1.3,3.801-1.3c1.666,0,3.017,0.517,4.05,1.55c0.899,0.9,1.35,1.917,1.35,3.05c0,1.7-0.684,3-2.05,3.9
			c0.934,0.4,1.667,1,2.2,1.8C125.517,50.583,125.8,51.483,125.8,52.45z"/>
		
			<linearGradient id="SVGID_12_" gradientUnits="userSpaceOnUse" x1="-57.9819" y1="119.5762" x2="-39.3569" y2="119.5762" gradientTransform="matrix(5.369128e-005 -1 1 -0.001 1.525310e-004 4.674215e-004)">
			<stop  offset="0" style="stop-color:#112924"/>
			<stop  offset="0.4549" style="stop-color:#21423D"/>
			<stop  offset="0.9686" style="stop-color:#36625F"/>
		</linearGradient>
		<path style="fill-rule:evenodd;clip-rule:evenodd;fill:url(#SVGID_12_);" d="M123.45,40.15c0.899,0.9,1.35,1.917,1.35,3.05
			c0,1.7-0.684,3-2.05,3.9c0.934,0.433,1.667,1.05,2.2,1.85c0.566,0.8,0.85,1.7,0.85,2.7c0,1.534-0.6,2.833-1.8,3.9
			c-1.267,1.1-2.783,1.65-4.55,1.65c-1.733,0-3.217-0.534-4.45-1.6c-1.1-1-1.65-2.05-1.65-3.15c0-0.467,0.217-0.867,0.65-1.2
			c0.4-0.333,0.833-0.5,1.3-0.5c0.5,0,1.05,0.5,1.65,1.5c0.633,1,1.483,1.5,2.55,1.5c0.667,0,1.217-0.233,1.65-0.7
			c0.466-0.466,0.699-1.033,0.699-1.7c0-1.2-0.716-1.917-2.149-2.15c-1.434-0.2-2.15-0.784-2.15-1.75c0-0.867,0.601-1.45,1.8-1.75
			c1.2-0.333,1.801-0.983,1.801-1.95c0-0.467-0.167-0.867-0.5-1.2c-0.334-0.3-0.767-0.45-1.301-0.45
			c-0.866,0-1.583,0.417-2.149,1.25c-0.601,0.8-1.15,1.2-1.65,1.2s-0.899-0.2-1.2-0.6c-0.3-0.333-0.449-0.75-0.449-1.25
			c0-1,0.566-1.934,1.699-2.8c1.134-0.867,2.4-1.3,3.801-1.3C121.066,38.6,122.417,39.117,123.45,40.15z"/>
	</g>
	<g>
		<path style="fill-rule:evenodd;clip-rule:evenodd;fill:#DBF0E8;" d="M68.7,47.75c0,2.467-0.483,4.533-1.45,6.2
			c-1.167,2.066-2.917,3.1-5.25,3.1s-4.1-1.033-5.3-3.1c-0.967-1.667-1.45-3.733-1.45-6.2s0.483-4.533,1.45-6.2
			c1.2-2.066,2.966-3.1,5.3-3.1s4.083,1.033,5.25,3.1C68.217,43.217,68.7,45.283,68.7,47.75z M59.2,47.75c0,3.9,0.933,5.85,2.8,5.85
			c1.833,0,2.75-1.95,2.75-5.85c0-3.934-0.917-5.9-2.75-5.9C60.133,41.85,59.2,43.816,59.2,47.75z"/>
		
			<linearGradient id="SVGID_13_" gradientUnits="userSpaceOnUse" x1="-56.9243" y1="61.9771" x2="-38.2993" y2="61.9771" gradientTransform="matrix(5.369128e-005 -1 1 -0.001 1.525310e-004 4.674215e-004)">
			<stop  offset="0" style="stop-color:#112924"/>
			<stop  offset="0.4549" style="stop-color:#21423D"/>
			<stop  offset="0.9686" style="stop-color:#36625F"/>
		</linearGradient>
		<path style="fill-rule:evenodd;clip-rule:evenodd;fill:url(#SVGID_13_);" d="M67.25,40.7c0.967,1.667,1.45,3.733,1.45,6.2
			c0,2.467-0.483,4.534-1.45,6.2c-1.167,2.066-2.917,3.1-5.25,3.1s-4.1-1.034-5.3-3.1c-0.967-1.667-1.45-3.733-1.45-6.2
			c0-2.466,0.483-4.533,1.45-6.2c1.2-2.067,2.966-3.1,5.3-3.1S66.083,38.633,67.25,40.7z M64.75,46.9c0-3.9-0.917-5.85-2.75-5.85
			c-1.867,0-2.8,1.95-2.8,5.85c0,3.934,0.933,5.9,2.8,5.9C63.833,52.8,64.75,50.833,64.75,46.9z"/>
	</g>
	<g>
		<path style="fill-rule:evenodd;clip-rule:evenodd;fill:#DBF0E8;" d="M69.9,47.75c0-2.467,0.483-4.533,1.45-6.2
			c1.167-2.066,2.917-3.1,5.25-3.1c2.333,0,4.083,1.033,5.25,3.1c0.967,1.667,1.45,3.733,1.45,6.2s-0.483,4.533-1.45,6.2
			c-1.167,2.066-2.917,3.1-5.25,3.1c-2.333,0-4.083-1.033-5.25-3.1C70.383,52.283,69.9,50.217,69.9,47.75z M79.35,47.75
			c0-3.934-0.917-5.9-2.75-5.9c-1.833,0-2.75,1.966-2.75,5.9c0,3.9,0.917,5.85,2.75,5.85C78.433,53.6,79.35,51.65,79.35,47.75z"/>
		
			<linearGradient id="SVGID_14_" gradientUnits="userSpaceOnUse" x1="-56.939" y1="76.6016" x2="-38.314" y2="76.6016" gradientTransform="matrix(5.369128e-005 -1 1 -0.001 1.525310e-004 4.674215e-004)">
			<stop  offset="0" style="stop-color:#112924"/>
			<stop  offset="0.4549" style="stop-color:#21423D"/>
			<stop  offset="0.9686" style="stop-color:#36625F"/>
		</linearGradient>
		<path style="fill-rule:evenodd;clip-rule:evenodd;fill:url(#SVGID_14_);" d="M81.85,40.7c0.967,1.667,1.45,3.733,1.45,6.2
			c0,2.467-0.483,4.534-1.45,6.2c-1.167,2.066-2.917,3.1-5.25,3.1c-2.333,0-4.083-1.034-5.25-3.1c-0.967-1.667-1.45-3.733-1.45-6.2
			c0-2.466,0.483-4.533,1.45-6.2c1.167-2.067,2.917-3.1,5.25-3.1C78.933,37.6,80.683,38.633,81.85,40.7z M79.35,46.9
			c0-3.9-0.917-5.85-2.75-5.85c-1.833,0-2.75,1.95-2.75,5.85c0,3.934,0.917,5.9,2.75,5.9C78.433,52.8,79.35,50.833,79.35,46.9z"/>
	</g>
	<g>
		<path style="fill-rule:evenodd;clip-rule:evenodd;fill:#DBF0E8;" d="M96.75,53.95c-1.167,2.066-2.917,3.1-5.25,3.1
			s-4.083-1.033-5.25-3.1c-0.967-1.667-1.45-3.733-1.45-6.2s0.483-4.533,1.45-6.2c1.167-2.066,2.917-3.1,5.25-3.1
			s4.083,1.033,5.25,3.1c0.967,1.667,1.45,3.733,1.45,6.2S97.717,52.283,96.75,53.95z M88.75,47.75c0,3.9,0.917,5.85,2.75,5.85
			s2.75-1.95,2.75-5.85c0-3.934-0.917-5.9-2.75-5.9S88.75,43.816,88.75,47.75z"/>
		
			<linearGradient id="SVGID_15_" gradientUnits="userSpaceOnUse" x1="-56.9541" y1="91.502" x2="-38.3291" y2="91.502" gradientTransform="matrix(5.369128e-005 -1 1 -0.001 1.525310e-004 4.674215e-004)">
			<stop  offset="0" style="stop-color:#112924"/>
			<stop  offset="0.4549" style="stop-color:#21423D"/>
			<stop  offset="0.9686" style="stop-color:#36625F"/>
		</linearGradient>
		<path style="fill-rule:evenodd;clip-rule:evenodd;fill:url(#SVGID_15_);" d="M96.75,40.7c0.967,1.667,1.45,3.733,1.45,6.2
			c0,2.467-0.483,4.534-1.45,6.2c-1.167,2.066-2.917,3.1-5.25,3.1s-4.083-1.034-5.25-3.1c-0.967-1.667-1.45-3.733-1.45-6.2
			c0-2.466,0.483-4.533,1.45-6.2c1.167-2.067,2.917-3.1,5.25-3.1S95.583,38.633,96.75,40.7z M94.25,46.9c0-3.9-0.917-5.85-2.75-5.85
			S88.75,43,88.75,46.9c0,3.934,0.917,5.9,2.75,5.9S94.25,50.833,94.25,46.9z"/>
	</g>
	<g>
		<path style="fill-rule:evenodd;clip-rule:evenodd;fill:#DBF0E8;" d="M103.35,47.75c0,3.9,0.934,5.85,2.801,5.85
			c1.833,0,2.75-1.95,2.75-5.85c0-3.934-0.917-5.9-2.75-5.9C104.283,41.85,103.35,43.816,103.35,47.75z M112.85,47.75
			c0,2.467-0.483,4.533-1.449,6.2c-1.167,2.066-2.917,3.1-5.25,3.1c-2.334,0-4.101-1.033-5.301-3.1
			c-0.966-1.667-1.449-3.733-1.449-6.2s0.483-4.533,1.449-6.2c1.2-2.066,2.967-3.1,5.301-3.1c2.333,0,4.083,1.033,5.25,3.1
			C112.366,43.217,112.85,45.283,112.85,47.75z"/>
		
			<linearGradient id="SVGID_16_" gradientUnits="userSpaceOnUse" x1="-56.9688" y1="106.127" x2="-38.3438" y2="106.127" gradientTransform="matrix(5.369128e-005 -1 1 -0.001 1.525310e-004 4.674215e-004)">
			<stop  offset="0" style="stop-color:#112924"/>
			<stop  offset="0.4549" style="stop-color:#21423D"/>
			<stop  offset="0.9686" style="stop-color:#36625F"/>
		</linearGradient>
		<path style="fill-rule:evenodd;clip-rule:evenodd;fill:url(#SVGID_16_);" d="M111.4,40.7c0.966,1.667,1.449,3.733,1.449,6.2
			c0,2.467-0.483,4.534-1.449,6.2c-1.167,2.066-2.917,3.1-5.25,3.1c-2.334,0-4.101-1.034-5.301-3.1
			c-0.966-1.667-1.449-3.733-1.449-6.2c0-2.466,0.483-4.533,1.449-6.2c1.2-2.067,2.967-3.1,5.301-3.1
			C108.483,37.6,110.233,38.633,111.4,40.7z M108.9,46.9c0-3.9-0.917-5.85-2.75-5.85c-1.867,0-2.801,1.95-2.801,5.85
			c0,3.934,0.934,5.9,2.801,5.9C107.983,52.8,108.9,50.833,108.9,46.9z"/>
	</g>
</g>
<g>
	
		<use xlink:href="#FlashAICB_x2F_Layer_15_x2F__x3C_Path_x3E__x5F_2"  width="118.7" height="57.15" y="-57.15" transform="matrix(1 0 0 -1 26.7998 86.75)" style="overflow:visible;opacity:0.2813;enable-background:new    ;"/>
	
		<use xlink:href="#FlashAICB_x2F_Layer_15_x2F__x3C_Path_x3E__x5F_1_x5F_0"  width="110.05" height="55.8" y="-55.8" transform="matrix(1 0 0 -1 30.9502 27.9502)" style="overflow:visible;opacity:0.1094;enable-background:new    ;"/>
	
		<use xlink:href="#FlashAICB_x2F_Layer_15_x2F__x3C_Path_x3E__x5F_3"  width="110.05" height="61.294" y="-61.294" transform="matrix(1 0 0 -1 30.9502 27.9502)" style="overflow:visible;opacity:0.0898;enable-background:new    ;"/>
</g>
<g>
	<g>
		<g>
			<g>
				<g>
					<g>
						
							<linearGradient id="SVGID_17_" gradientUnits="userSpaceOnUse" x1="-102.6021" y1="-0.0757" x2="-69.7093" y2="-0.0757" gradientTransform="matrix(-0.4499 -0.8931 0.8931 -0.4499 2.204776e-004 -8.095801e-004)">
							<stop  offset="0" style="stop-color:#1E7B6A"/>
							<stop  offset="0.7098" style="stop-color:#9FE0B8"/>
						</linearGradient>
						<path style="fill-rule:evenodd;clip-rule:evenodd;fill:url(#SVGID_17_);" d="M44.75,57.25l0.05,0.05
							c2.233,1.4,2.85,4.184,1.85,8.35c-0.8,3.3-2.017,5.717-3.65,7.25l-0.4,0.3l-0.1,0.05c0.033,0.3,0.05,0.95,0.05,1.95
							c-0.1,3.3-0.816,5.9-2.15,7.8l-0.2,0.2c0.3,0.633,0.533,1.316,0.7,2.05c0.8,3.333,0.85,6.033,0.15,8.1L40.8,93.9L40.65,94.1
							c-0.133,0.2-0.367,0.434-0.7,0.7c-0.333,0.2-0.733,0.3-1.2,0.3c-0.933,0.034-1.833-0.199-2.7-0.699l-0.5,0.55L34.9,95.5
							c-0.667,0.434-1.383,0.483-2.15,0.15c-1.433-0.534-2.467-1.7-3.1-3.5c-0.5-1.367-0.717-2.817-0.65-4.351
							c0.2-2.2,0.867-4.116,2-5.75c-0.8-1.033-1.2-2.383-1.2-4.05c0-1.3,0.217-2.583,0.65-3.85c0.7-1.8,1.783-3.35,3.25-4.65
							c-0.4-1.133-0.417-2.434-0.05-3.9c0.267-1.2,0.7-2.3,1.3-3.3c0.9-1.366,2.05-2.533,3.45-3.5c1.4-0.933,2.8-1.5,4.2-1.7
							C43.3,56.8,44.017,56.85,44.75,57.25z"/>
						<path style="fill-rule:evenodd;clip-rule:evenodd;fill:none;stroke:#DBF0E8;stroke-width:0.25;" d="M44.75,57.25
							c-0.733-0.4-1.45-0.45-2.15-0.15c-1.4,0.2-2.8,0.767-4.2,1.7c-1.4,0.967-2.55,2.134-3.45,3.5c-0.6,1-1.034,2.1-1.3,3.3
							c-0.367,1.466-0.35,2.767,0.05,3.9c-1.467,1.3-2.55,2.85-3.25,4.65C30.017,75.417,29.8,76.7,29.8,78
							c0,1.667,0.4,3.017,1.2,4.05c-1.133,1.634-1.8,3.55-2,5.75c-0.067,1.533,0.15,2.983,0.65,4.351c0.633,1.8,1.667,2.966,3.1,3.5
							c0.767,0.333,1.483,0.283,2.15-0.15l0.65-0.55l0.5-0.55c0.867,0.5,1.767,0.733,2.7,0.699c0.467,0,0.867-0.1,1.2-0.3
							c0.333-0.267,0.566-0.5,0.7-0.7L40.8,93.9l0.25-0.551c0.7-2.066,0.65-4.767-0.15-8.1c-0.167-0.733-0.4-1.417-0.7-2.05l0.2-0.2
							c1.333-1.9,2.05-4.5,2.15-7.8c0-1-0.017-1.65-0.05-1.95l0.1-0.05l0.4-0.3c1.633-1.533,2.85-3.95,3.65-7.25
							c1-4.167,0.383-6.95-1.85-8.35L44.75,57.25z"/>
					</g>
				</g>
				<path style="fill-rule:evenodd;clip-rule:evenodd;fill:#1C3330;" d="M43.85,58.75c0.867,0.533,1.367,1.533,1.5,3
					C45.417,62.85,45.3,64,45,65.2c-0.667,2.9-1.733,5.05-3.2,6.45l-0.1,0.1h-0.05L41.6,71.8h-0.05c-0.2,0.1-0.417,0.1-0.65,0
					l-0.4-0.25c0.3,1.034,0.417,2.2,0.35,3.5C40.75,78.083,40.133,80.4,39,82l-0.15,0.1l-0.15,0.15c-0.233,0.1-0.434,0.133-0.6,0.1
					l-0.35-0.15c0.733,1.066,1.217,2.216,1.45,3.45c0.8,2.933,0.867,5.317,0.2,7.15l-0.15,0.3l-0.2,0.2L38.7,93.4
					c-1.133,0.033-2.167-0.5-3.1-1.601c-0.434,0.834-0.867,1.5-1.3,2l-0.2,0.15L34.05,94c-0.2,0.167-0.417,0.184-0.65,0.05
					c-1.033-0.366-1.783-1.283-2.25-2.75c-0.367-1.1-0.517-2.25-0.45-3.45c0.267-2.633,1.25-4.75,2.95-6.35l-0.1,0.05L33.5,81.6
					c-0.267,0.066-0.483,0.017-0.65-0.15c-0.9-0.667-1.35-1.767-1.35-3.3c-0.033-1.133,0.15-2.267,0.55-3.4
					c0.833-2.066,2.133-3.667,3.9-4.8L35.9,69.9c-0.733-0.833-0.967-2-0.7-3.5c0.233-1.1,0.65-2.167,1.25-3.2
					c0.767-1.2,1.767-2.217,3-3.05c1.2-0.8,2.4-1.267,3.6-1.4h0.05C43.367,58.583,43.617,58.583,43.85,58.75z"/>
				<g>
					<g>
						<g>
							<g>
								<g>
									<g>
										<g>
											
												<linearGradient id="SVGID_18_" gradientUnits="userSpaceOnUse" x1="-48.7881" y1="62.9927" x2="-37.1133" y2="62.9927" gradientTransform="matrix(0.403 -0.9152 0.9152 0.403 3.567934e-004 8.529425e-005)">
												<stop  offset="0" style="stop-color:#58E1A8"/>
												<stop  offset="0.1216" style="stop-color:#53CC98"/>
												<stop  offset="0.3922" style="stop-color:#49A378"/>
												<stop  offset="0.6353" style="stop-color:#428560"/>
												<stop  offset="0.8471" style="stop-color:#3E7352"/>
												<stop  offset="1" style="stop-color:#3C6C4D"/>
											</linearGradient>
											<path style="fill-rule:evenodd;clip-rule:evenodd;fill:url(#SVGID_18_);" d="M43.15,59.55c0.434,0.634,0.434,1.55,0,2.75
												c-0.333,0.934-0.833,1.833-1.5,2.7c-1.633,2.267-3.333,3.733-5.1,4.4c0.1-0.333,0.434-1.066,1-2.2
												c0.534-1.167,0.9-2.05,1.1-2.65C39.583,62.083,41.083,60.417,43.15,59.55z"/>
											<path style="fill-rule:evenodd;clip-rule:evenodd;fill:#DEF3EA;" d="M36.45,69.4c-0.534-0.633-0.7-1.566-0.5-2.8
												c0.167-1.034,0.55-2.034,1.15-3c0.7-1.1,1.6-2.034,2.7-2.8c1.1-0.733,2.217-1.167,3.35-1.3
												c-0.8,0.367-1.533,0.983-2.2,1.85c-0.333,0.466-0.817,1.316-1.45,2.55C38.333,66.434,37.317,68.267,36.45,69.4z"/>
										</g>
										<g>
											
												<linearGradient id="SVGID_19_" gradientUnits="userSpaceOnUse" x1="-70.7178" y1="43.4761" x2="-59.0423" y2="43.4761" gradientTransform="matrix(0.0086 -1 1 0.0086 -1.083910e-004 8.591823e-005)">
												<stop  offset="0" style="stop-color:#58E1A8"/>
												<stop  offset="0.1216" style="stop-color:#53CC98"/>
												<stop  offset="0.3922" style="stop-color:#49A378"/>
												<stop  offset="0.6353" style="stop-color:#428560"/>
												<stop  offset="0.8471" style="stop-color:#3E7352"/>
												<stop  offset="1" style="stop-color:#3C6C4D"/>
											</linearGradient>
											<path style="fill-rule:evenodd;clip-rule:evenodd;fill:url(#SVGID_19_);" d="M43.45,59.4c0.667,0.4,1.033,1.25,1.1,2.55
												c0.067,0.966-0.033,2-0.3,3.1c-0.7,2.833-1.683,4.85-2.95,6.05c-0.033-0.333-0.033-1.133,0-2.4
												c0.067-1.3,0.067-2.267,0-2.9C41.2,63.167,41.917,61.033,43.45,59.4z"/>
											<path style="fill-rule:evenodd;clip-rule:evenodd;fill:#DEF3EA;" d="M41.25,71.15c-0.767-0.367-1.3-1.167-1.6-2.4
												c-0.233-1.033-0.283-2.1-0.15-3.2c0.233-1.3,0.7-2.5,1.4-3.6c0.733-1.167,1.583-2.017,2.55-2.55
												c-0.6,0.633-1.017,1.483-1.25,2.55c-0.167,0.667-0.284,1.65-0.35,2.95C41.783,67.5,41.583,69.583,41.25,71.15z"/>
										</g>
									</g>
								</g>
							</g>
						</g>
					</g>
					<g>
						<g>
							<g>
								<g>
									<g>
										<g>
											
												<linearGradient id="SVGID_20_" gradientUnits="userSpaceOnUse" x1="-71.6646" y1="51.6621" x2="-59.9897" y2="51.6621" gradientTransform="matrix(0.2163 -0.9763 0.9763 0.2163 1.385212e-004 2.895445e-004)">
												<stop  offset="0" style="stop-color:#58E1A8"/>
												<stop  offset="0.1216" style="stop-color:#53CC98"/>
												<stop  offset="0.3922" style="stop-color:#49A378"/>
												<stop  offset="0.6353" style="stop-color:#428560"/>
												<stop  offset="0.8471" style="stop-color:#3E7352"/>
												<stop  offset="1" style="stop-color:#3C6C4D"/>
											</linearGradient>
											<path style="fill-rule:evenodd;clip-rule:evenodd;fill:url(#SVGID_20_);" d="M37.95,69.85
												c0.566,0.533,0.75,1.433,0.55,2.7c-0.167,1.034-0.5,2.017-1,2.95c-1.2,2.633-2.567,4.4-4.1,5.3
												c0.033-0.366,0.2-1.15,0.5-2.35c0.333-1.3,0.533-2.233,0.6-2.8C34.967,72.983,36.117,71.05,37.95,69.85z"/>
											<path style="fill-rule:evenodd;clip-rule:evenodd;fill:#DEF3EA;" d="M33.3,80.85c-0.667-0.5-1.017-1.383-1.05-2.65
												c-0.033-1.067,0.133-2.134,0.5-3.2c0.5-1.233,1.217-2.316,2.15-3.25c0.934-0.934,1.934-1.566,3-1.9
												c-0.733,0.5-1.316,1.233-1.75,2.2c-0.233,0.534-0.55,1.467-0.95,2.8C34.6,77.45,33.967,79.45,33.3,80.85z"/>
										</g>
										<g>
											
												<linearGradient id="SVGID_21_" gradientUnits="userSpaceOnUse" x1="-87.2446" y1="24.0913" x2="-75.5653" y2="24.0913" gradientTransform="matrix(-0.1862 -0.9825 0.9825 -0.1862 -1.815557e-004 1.712590e-004)">
												<stop  offset="0" style="stop-color:#58E1A8"/>
												<stop  offset="0.1216" style="stop-color:#53CC98"/>
												<stop  offset="0.3922" style="stop-color:#49A378"/>
												<stop  offset="0.6353" style="stop-color:#428560"/>
												<stop  offset="0.8471" style="stop-color:#3E7352"/>
												<stop  offset="1" style="stop-color:#3C6C4D"/>
											</linearGradient>
											<path style="fill-rule:evenodd;clip-rule:evenodd;fill:url(#SVGID_21_);" d="M38.2,69.65c0.733,0.3,1.267,1.067,1.6,2.3
												c0.233,0.966,0.317,1.983,0.25,3.05c-0.066,2.867-0.633,5.05-1.7,6.55c-0.367-2.333-0.7-4.066-1-5.2
												C36.75,73.783,37.033,71.55,38.2,69.65z"/>
											<path style="fill-rule:evenodd;clip-rule:evenodd;fill:#DEF3EA;" d="M38.3,81.6c-0.8-0.2-1.466-0.883-2-2.05
												c-0.433-0.933-0.7-1.966-0.8-3.1c-0.033-1.333,0.2-2.6,0.7-3.8c0.466-1.267,1.133-2.267,2-3
												c-0.467,0.767-0.717,1.684-0.75,2.75c-0.034,0.667,0.033,1.65,0.2,2.95C38.117,77.816,38.333,79.9,38.3,81.6z"/>
										</g>
									</g>
								</g>
							</g>
						</g>
					</g>
					<g>
						<g>
							<g>
								<g>
									<g>
										<g>
											
												<linearGradient id="SVGID_22_" gradientUnits="userSpaceOnUse" x1="-95.5059" y1="28.4229" x2="-83.8281" y2="28.4229" gradientTransform="matrix(-0.0728 -0.9973 0.9973 -0.0728 -1.941025e-004 -8.272678e-004)">
												<stop  offset="0" style="stop-color:#58E1A8"/>
												<stop  offset="0.1216" style="stop-color:#53CC98"/>
												<stop  offset="0.3922" style="stop-color:#49A378"/>
												<stop  offset="0.6353" style="stop-color:#428560"/>
												<stop  offset="0.8471" style="stop-color:#3E7352"/>
												<stop  offset="1" style="stop-color:#3C6C4D"/>
											</linearGradient>
											<path style="fill-rule:evenodd;clip-rule:evenodd;fill:url(#SVGID_22_);" d="M34.95,81.5c0.7,0.367,1.133,1.184,1.3,2.45
												c0.133,0.966,0.1,2-0.1,3.1c-0.4,2.867-1.217,4.95-2.45,6.25c-0.067-0.366-0.133-1.166-0.2-2.399
												c-0.033-1.334-0.1-2.301-0.2-2.9C33,85.4,33.55,83.233,34.95,81.5z"/>
											<path style="fill-rule:evenodd;clip-rule:evenodd;fill:#DEF3EA;" d="M33.75,87.1c0.167,2.467,0.133,4.551-0.1,6.25
												c-0.767-0.3-1.35-1.05-1.75-2.25c-0.367-1-0.517-2.066-0.45-3.199c0.133-1.3,0.5-2.534,1.1-3.7
												c0.633-1.2,1.417-2.1,2.35-2.7c-0.533,0.667-0.883,1.55-1.05,2.65C33.783,84.65,33.75,85.633,33.75,87.1z"/>
										</g>
										<g>
											
												<linearGradient id="SVGID_23_" gradientUnits="userSpaceOnUse" x1="-99.9795" y1="-6.6279" x2="-88.2948" y2="-6.6279" gradientTransform="matrix(-0.46 -0.8879 0.8879 -0.46 1.746416e-004 -6.033778e-004)">
												<stop  offset="0" style="stop-color:#58E1A8"/>
												<stop  offset="0.1216" style="stop-color:#53CC98"/>
												<stop  offset="0.3922" style="stop-color:#49A378"/>
												<stop  offset="0.6353" style="stop-color:#428560"/>
												<stop  offset="0.8471" style="stop-color:#3E7352"/>
												<stop  offset="1" style="stop-color:#3C6C4D"/>
											</linearGradient>
											<path style="fill-rule:evenodd;clip-rule:evenodd;fill:url(#SVGID_23_);" d="M35.15,81.25c0.8,0.033,1.533,0.6,2.2,1.7
												c0.5,0.9,0.867,1.866,1.1,2.9c0.767,2.667,0.85,4.9,0.25,6.7c-1.034-2.133-1.85-3.684-2.45-4.649
												C34.917,85.633,34.55,83.417,35.15,81.25z"/>
											<path style="fill-rule:evenodd;clip-rule:evenodd;fill:#DEF3EA;" d="M36.3,86.85c1.167,2.333,1.95,4.266,2.35,5.8
												c-0.833,0.033-1.667-0.417-2.5-1.351c-0.7-0.8-1.25-1.733-1.65-2.8c-0.4-1.233-0.55-2.517-0.45-3.85
												c0.133-1.333,0.5-2.466,1.1-3.4c-0.233,0.867-0.217,1.816,0.05,2.85C35.367,84.733,35.733,85.65,36.3,86.85z"/>
										</g>
									</g>
								</g>
							</g>
						</g>
					</g>
				</g>
			</g>
		</g>
	</g>
	<g>
		<g>
			<g>
				<g>
					<g>
						<linearGradient id="SVGID_24_" gradientUnits="userSpaceOnUse" x1="142.6865" y1="63.269" x2="124.2115" y2="90.494">
							<stop  offset="0" style="stop-color:#1E7B6A"/>
							<stop  offset="0.7098" style="stop-color:#9FE0B8"/>
						</linearGradient>
						<path style="fill-rule:evenodd;clip-rule:evenodd;fill:url(#SVGID_24_);" d="M137.15,62.25c0.6,1,1.05,2.1,1.35,3.3
							c0.366,1.467,0.35,2.75-0.05,3.85c1.533,1.367,2.633,2.917,3.3,4.65c0.467,1.233,0.7,2.517,0.7,3.85
							c0,1.667-0.4,3.017-1.2,4.05c1.134,1.566,1.833,3.483,2.1,5.75c0.067,1.566-0.133,3.017-0.6,4.35
							c-0.667,1.8-1.717,2.983-3.15,3.55c-0.733,0.267-1.449,0.217-2.149-0.149l-0.65-0.55l-0.45-0.551
							c-0.966,0.534-1.883,0.784-2.75,0.75c-0.366,0-0.75-0.116-1.149-0.35c-0.267-0.134-0.517-0.35-0.75-0.65l-0.4-0.75
							c-0.767-2.133-0.733-4.833,0.101-8.1c0.199-0.8,0.416-1.5,0.649-2.1l-0.149-0.2c-1.4-1.9-2.15-4.483-2.25-7.75v-1.95
							l-0.101-0.05l-0.35-0.3c-1-0.933-1.867-2.233-2.601-3.9c-0.5-1.133-0.866-2.233-1.1-3.3c-0.366-1.267-0.517-2.534-0.45-3.8
							c0.066-2.167,0.816-3.683,2.25-4.55l0.05-0.05c0.667-0.433,1.384-0.5,2.15-0.2c1.366,0.167,2.75,0.733,4.15,1.7
							C135.05,59.733,136.217,60.883,137.15,62.25z"/>
						<path style="fill-rule:evenodd;clip-rule:evenodd;fill:none;stroke:#DBF0E8;stroke-width:0.25;" d="M137.15,62.25
							c0.6,1,1.05,2.1,1.35,3.3c0.366,1.467,0.35,2.75-0.05,3.85c1.533,1.367,2.633,2.917,3.3,4.65c0.467,1.233,0.7,2.517,0.7,3.85
							c0,1.667-0.4,3.017-1.2,4.05c1.134,1.566,1.833,3.483,2.1,5.75c0.067,1.566-0.133,3.017-0.6,4.35
							c-0.667,1.8-1.717,2.983-3.15,3.55c-0.733,0.267-1.449,0.217-2.149-0.149l-0.65-0.55l-0.45-0.551
							c-0.966,0.534-1.883,0.784-2.75,0.75c-0.366,0-0.75-0.116-1.149-0.35c-0.267-0.134-0.517-0.35-0.75-0.65l-0.4-0.75
							c-0.767-2.133-0.733-4.833,0.101-8.1c0.199-0.8,0.416-1.5,0.649-2.1l-0.149-0.2c-1.4-1.9-2.15-4.483-2.25-7.75v-1.95
							l-0.101-0.05l-0.35-0.3c-1-0.933-1.867-2.233-2.601-3.9c-0.5-1.133-0.866-2.233-1.1-3.3c-0.366-1.267-0.517-2.534-0.45-3.8
							c0.066-2.167,0.816-3.683,2.25-4.55l0.05-0.05c0.667-0.433,1.384-0.5,2.15-0.2c1.366,0.167,2.75,0.733,4.15,1.7
							C135.05,59.733,136.217,60.883,137.15,62.25z"/>
					</g>
				</g>
				<path style="fill-rule:evenodd;clip-rule:evenodd;fill:#1C3330;" d="M127.15,65.25c-0.334-1.2-0.45-2.367-0.351-3.5
					c0.101-1.467,0.566-2.45,1.4-2.95c0.267-0.2,0.533-0.216,0.8-0.05h0.05c1.2,0.133,2.4,0.6,3.601,1.4c1.233,0.8,2.25,1.8,3.05,3
					c0.6,1.034,1.017,2.1,1.25,3.2c0.267,1.5,0.033,2.667-0.7,3.5v0.05c1.767,1.133,3.066,2.717,3.9,4.75
					c0.399,1.1,0.6,2.233,0.6,3.4c-0.033,1.534-0.483,2.634-1.35,3.3c-0.167,0.167-0.367,0.216-0.601,0.15h-0.1l-0.101-0.05
					c1.733,1.566,2.733,3.683,3,6.35c0.067,1.2-0.066,2.334-0.399,3.4c-0.434,1.467-1.167,2.399-2.2,2.8
					c-0.2,0.066-0.417,0.05-0.65-0.05h-0.05V93.9h-0.05l-0.15-0.15c-0.5-0.566-0.949-1.233-1.35-2c-0.934,1.1-1.967,1.65-3.1,1.65
					l-0.351-0.15L133.05,93l-0.1-0.2c-0.667-1.899-0.617-4.283,0.149-7.15c0.267-1.3,0.75-2.466,1.45-3.5l-0.399,0.15
					c-0.233,0.067-0.417,0.034-0.551-0.1h-0.1l-0.1-0.1l-0.101-0.15c-0.7-0.934-1.217-2.184-1.55-3.75
					c-0.233-1.1-0.35-2.15-0.35-3.15c-0.134-1.2-0.034-2.366,0.3-3.5l-0.4,0.25c-0.233,0.1-0.467,0.1-0.7,0h-0.05l-0.05-0.05
					l-0.15-0.1C128.884,70.25,127.816,68.117,127.15,65.25z"/>
				<g>
					<g>
						<g>
							<g>
								<g>
									<g>
										<g>
											<linearGradient id="SVGID_25_" gradientUnits="userSpaceOnUse" x1="134.1543" y1="69.9731" x2="129.3519" y2="59.3179">
												<stop  offset="0" style="stop-color:#58E1A8"/>
												<stop  offset="0.1216" style="stop-color:#53CC98"/>
												<stop  offset="0.3922" style="stop-color:#49A378"/>
												<stop  offset="0.6353" style="stop-color:#428560"/>
												<stop  offset="0.8471" style="stop-color:#3E7352"/>
												<stop  offset="1" style="stop-color:#3C6C4D"/>
											</linearGradient>
											<path style="fill-rule:evenodd;clip-rule:evenodd;fill:url(#SVGID_25_);" d="M128.9,59.55
												c2.066,0.8,3.583,2.45,4.55,4.95c0.2,0.566,0.583,1.45,1.149,2.65c0.567,1.1,0.9,1.833,1,2.2
												c-1.733-0.633-3.433-2.083-5.1-4.35c-0.7-0.833-1.217-1.733-1.55-2.7C128.483,61.1,128.467,60.184,128.9,59.55z"/>
											<path style="fill-rule:evenodd;clip-rule:evenodd;fill:#DEF3EA;" d="M135.7,69.35c-1.033-1.367-2.05-3.184-3.05-5.45
												c-0.7-1.267-1.2-2.117-1.5-2.55c-0.667-0.867-1.4-1.483-2.2-1.85c1.133,0.133,2.25,0.566,3.35,1.3
												c1.101,0.767,2,1.684,2.7,2.75c0.6,0.967,1,1.967,1.2,3C136.434,67.783,136.267,68.717,135.7,69.35z"/>
										</g>
										<g>
											<linearGradient id="SVGID_26_" gradientUnits="userSpaceOnUse" x1="129.3145" y1="71.0874" x2="129.1143" y2="59.4016">
												<stop  offset="0" style="stop-color:#58E1A8"/>
												<stop  offset="0.1216" style="stop-color:#53CC98"/>
												<stop  offset="0.3922" style="stop-color:#49A378"/>
												<stop  offset="0.6353" style="stop-color:#428560"/>
												<stop  offset="0.8471" style="stop-color:#3E7352"/>
												<stop  offset="1" style="stop-color:#3C6C4D"/>
											</linearGradient>
											<path style="fill-rule:evenodd;clip-rule:evenodd;fill:url(#SVGID_26_);" d="M128.6,59.45
												c1.567,1.6,2.317,3.716,2.25,6.35c-0.1,1.167-0.083,2.934,0.051,5.3c-1.334-1.2-2.334-3.217-3-6.05
												c-0.301-1.066-0.417-2.1-0.351-3.1C127.616,60.684,127.967,59.85,128.6,59.45z"/>
											<path style="fill-rule:evenodd;clip-rule:evenodd;fill:#DEF3EA;" d="M130.95,71.1c-0.367-1.534-0.584-3.6-0.65-6.2
												c-0.1-1.333-0.233-2.316-0.399-2.95c-0.233-1.067-0.667-1.917-1.301-2.55c1,0.534,1.867,1.367,2.601,2.5
												c0.7,1.1,1.184,2.3,1.45,3.6c0.133,1.133,0.083,2.217-0.15,3.25C132.233,69.95,131.717,70.733,130.95,71.1z"/>
										</g>
									</g>
								</g>
							</g>
						</g>
					</g>
					<g>
						<g>
							<g>
								<g>
									<g>
										<g>
											<linearGradient id="SVGID_27_" gradientUnits="userSpaceOnUse" x1="137.3467" y1="81.0908" x2="134.7217" y2="69.7158">
												<stop  offset="0" style="stop-color:#58E1A8"/>
												<stop  offset="0.1216" style="stop-color:#53CC98"/>
												<stop  offset="0.3922" style="stop-color:#49A378"/>
												<stop  offset="0.6353" style="stop-color:#428560"/>
												<stop  offset="0.8471" style="stop-color:#3E7352"/>
												<stop  offset="1" style="stop-color:#3C6C4D"/>
											</linearGradient>
											<path style="fill-rule:evenodd;clip-rule:evenodd;fill:url(#SVGID_27_);" d="M134.25,69.8c1.8,1.233,2.967,3.15,3.5,5.75
												c0.066,0.634,0.267,1.583,0.6,2.85c0.334,1.267,0.517,2.05,0.551,2.35c-1.601-0.934-3-2.7-4.2-5.3
												c-0.5-0.934-0.834-1.917-1-2.95C133.5,71.233,133.684,70.333,134.25,69.8z"/>
											<path style="fill-rule:evenodd;clip-rule:evenodd;fill:#DEF3EA;" d="M138.95,80.75c-0.7-1.5-1.351-3.483-1.95-5.95
												c-0.366-1.3-0.684-2.233-0.95-2.8c-0.467-0.967-1.066-1.7-1.8-2.2c1.066,0.333,2.083,0.967,3.05,1.9
												c0.934,0.933,1.65,2,2.15,3.2c0.399,1.1,0.583,2.167,0.55,3.2C139.967,79.367,139.616,80.25,138.95,80.75z"/>
										</g>
										<g>
											<linearGradient id="SVGID_28_" gradientUnits="userSpaceOnUse" x1="132.3594" y1="81.1997" x2="134.4344" y2="69.6997">
												<stop  offset="0" style="stop-color:#58E1A8"/>
												<stop  offset="0.1216" style="stop-color:#53CC98"/>
												<stop  offset="0.3922" style="stop-color:#49A378"/>
												<stop  offset="0.6353" style="stop-color:#428560"/>
												<stop  offset="0.8471" style="stop-color:#3E7352"/>
												<stop  offset="1" style="stop-color:#3C6C4D"/>
											</linearGradient>
											<path style="fill-rule:evenodd;clip-rule:evenodd;fill:url(#SVGID_28_);" d="M133.95,69.65
												c1.2,1.833,1.517,4.05,0.95,6.65c-0.334,1.134-0.667,2.867-1,5.2c-1.101-1.5-1.684-3.667-1.75-6.5
												c-0.101-1.066-0.017-2.1,0.25-3.1C132.7,70.667,133.217,69.917,133.95,69.65z"/>
											<path style="fill-rule:evenodd;clip-rule:evenodd;fill:#DEF3EA;" d="M133.95,81.55c-0.066-1.633,0.133-3.7,0.6-6.2
												c0.134-1.467,0.2-2.467,0.2-3c-0.033-1.1-0.3-2.017-0.8-2.75c0.866,0.733,1.55,1.733,2.05,3c0.5,1.233,0.733,2.5,0.7,3.8
												c-0.066,1.1-0.316,2.133-0.75,3.1C135.417,80.667,134.75,81.35,133.95,81.55z"/>
										</g>
									</g>
								</g>
							</g>
						</g>
					</g>
					<g>
						<g>
							<g>
								<g>
									<g>
										<g>
											<linearGradient id="SVGID_29_" gradientUnits="userSpaceOnUse" x1="137.0625" y1="93.125" x2="137.8125" y2="81.475">
												<stop  offset="0" style="stop-color:#58E1A8"/>
												<stop  offset="0.1216" style="stop-color:#53CC98"/>
												<stop  offset="0.3922" style="stop-color:#49A378"/>
												<stop  offset="0.6353" style="stop-color:#428560"/>
												<stop  offset="0.8471" style="stop-color:#3E7352"/>
												<stop  offset="1" style="stop-color:#3C6C4D"/>
											</linearGradient>
											<path style="fill-rule:evenodd;clip-rule:evenodd;fill:url(#SVGID_29_);" d="M137.3,81.45c1.434,1.667,2,3.833,1.7,6.5
												c-0.1,0.6-0.167,1.566-0.2,2.899c-0.033,1.233-0.083,2.034-0.149,2.4c-1.267-1.4-2.101-3.483-2.5-6.25
												c-0.2-1.1-0.233-2.133-0.101-3.1C136.217,82.633,136.634,81.816,137.3,81.45z"/>
											<path style="fill-rule:evenodd;clip-rule:evenodd;fill:#DEF3EA;" d="M138.55,87c0-1.367-0.05-2.35-0.149-2.95
												c-0.134-1.066-0.483-1.95-1.051-2.65c0.934,0.633,1.717,1.55,2.351,2.75c0.633,1.133,1.017,2.35,1.149,3.65
												c0.067,1.134-0.066,2.2-0.399,3.2c-0.4,1.2-0.983,1.967-1.75,2.3C138.467,91.9,138.417,89.8,138.55,87z"/>
										</g>
										<g>
											<linearGradient id="SVGID_30_" gradientUnits="userSpaceOnUse" x1="132.2607" y1="91.7988" x2="137.5358" y2="81.3988">
												<stop  offset="0" style="stop-color:#58E1A8"/>
												<stop  offset="0.1216" style="stop-color:#53CC98"/>
												<stop  offset="0.3922" style="stop-color:#49A378"/>
												<stop  offset="0.6353" style="stop-color:#428560"/>
												<stop  offset="0.8471" style="stop-color:#3E7352"/>
												<stop  offset="1" style="stop-color:#3C6C4D"/>
											</linearGradient>
											<path style="fill-rule:evenodd;clip-rule:evenodd;fill:url(#SVGID_30_);" d="M137.1,81.2c0.634,2.1,0.301,4.316-1,6.649
												c-0.333,0.534-0.783,1.384-1.35,2.551c-0.566,1.166-0.934,1.883-1.1,2.149c-0.567-1.7-0.517-3.95,0.149-6.75
												c0.267-1.1,0.65-2.066,1.15-2.9C135.616,81.8,136.333,81.233,137.1,81.2z"/>
											<path style="fill-rule:evenodd;clip-rule:evenodd;fill:#DEF3EA;" d="M136.05,86.8c0.533-1.267,0.867-2.183,1-2.75
												c0.267-1.066,0.283-2.017,0.05-2.85c0.634,0.933,1.017,2.066,1.15,3.4c0.1,1.333-0.05,2.617-0.45,3.85
												c-0.366,1.033-0.899,1.95-1.6,2.75c-0.834,0.967-1.667,1.434-2.5,1.399C134.1,90.934,134.884,89,136.05,86.8z"/>
										</g>
									</g>
								</g>
							</g>
						</g>
					</g>
				</g>
			</g>
		</g>
	</g>
</g>
<g>
	<linearGradient id="SVGID_31_" gradientUnits="userSpaceOnUse" x1="45.2998" y1="101.2998" x2="127.0498" y2="101.2998">
		<stop  offset="0" style="stop-color:#1E7B6A"/>
		<stop  offset="0.7098" style="stop-color:#9FE0B8"/>
	</linearGradient>
	<path style="fill-rule:evenodd;clip-rule:evenodd;fill:url(#SVGID_31_);" d="M118.1,75.05c1.334,1,2.233,2.284,2.7,3.85
		c1.767,0.167,3.25,0.917,4.45,2.25s1.8,2.9,1.8,4.7c0,1.433-0.399,2.733-1.2,3.9c-0.767,1.134-1.783,1.983-3.05,2.55L122,97
		c-0.5,2.767-0.866,8.333-1.1,16.7c1.566,1.366,2.55,2.934,2.949,4.7c0.367,1.767,0.084,3.517-0.85,5.25
		c-0.233,0.5-0.6,0.949-1.1,1.35l-0.2,0.15c-2.767,2.267-6.167,3.899-10.2,4.899c-5.866,1.467-14.434,2.2-25.7,2.2
		c-10.9,0-19.15-0.733-24.75-2.2c-3.167-0.8-6.117-2.184-8.85-4.149l-0.95-0.65c-0.433-0.267-0.85-0.684-1.25-1.25
		c-1.233-1.967-1.633-3.983-1.2-6.05c0.367-1.467,1.15-2.783,2.35-3.95c-0.433-8.733-0.767-13.833-1-15.3l-0.85-5.55
		c-1.2-0.567-2.167-1.417-2.9-2.551c-0.733-1.166-1.1-2.433-1.1-3.8c0-2.433,0.967-4.35,2.9-5.75c0.466-1.566,1.35-2.85,2.65-3.85
		c1.3-1.034,2.783-1.55,4.45-1.55c1.534,0,2.934,0.434,4.2,1.3c1.2,0.833,2.083,1.933,2.65,3.3l0.6,0.25c-0.1-0.5-0.15-1-0.15-1.5
		c0-2.133,0.767-3.95,2.3-5.45c1.5-1.533,3.317-2.3,5.45-2.3c2.1,0,3.9,0.733,5.4,2.2c1.5,1.466,2.283,3.233,2.35,5.3
		c0.967-0.434,1.95-0.65,2.95-0.65c1.7,0,3.2,0.55,4.5,1.65c1.3,1.066,2.117,2.417,2.45,4.05l0.3-0.65
		c-1.233-1.5-1.85-3.183-1.85-5.05c0-2.133,0.767-3.95,2.3-5.45c1.5-1.533,3.316-2.3,5.45-2.3c2.133,0,3.967,0.767,5.5,2.3
		c1.5,1.5,2.25,3.317,2.25,5.45l-0.05,0.8c1.533-0.667,3.083-0.783,4.649-0.35c0.533-1.5,1.434-2.7,2.7-3.6
		c1.3-0.934,2.75-1.4,4.35-1.4C115.267,73.55,116.767,74.05,118.1,75.05z M114.85,81c0-0.333-0.116-0.617-0.35-0.85
		c-0.267-0.233-0.566-0.35-0.9-0.35c-0.333,0-0.616,0.117-0.85,0.35s-0.35,0.517-0.35,0.85c0,0.467,0.183,0.8,0.55,1l1.149,0.75
		l0.601-1.25C114.8,81.367,114.85,81.2,114.85,81z M116.4,87.9l0.85-0.301l0.05-0.449L116.4,87.9z M120,85.1
		c-0.1,0-0.25,0.05-0.45,0.15l-1.649,1.4l2.05-0.05l0.6-0.2c0.167-0.167,0.25-0.35,0.25-0.55C120.8,85.35,120.533,85.1,120,85.1z
		 M114.55,116.85l0.3-8.1l-2,6.2l0.9-24.8l-3,2.5l-4.45,8.699l-1.649-7.1L101.3,105.1L98.05,96.7c-1.7-4.4-3.066-8.05-4.1-10.95
		c-2.2,4.667-4.117,8.634-5.75,11.9l-3.1,6.3l-3.85-9.9l-2.15,7.75L71,86.65l-4.9,18.75L62.4,97.6
		c-0.667-1.466-1.633-3.767-2.9-6.899l-0.85-2.15l1.8-1.45c0.133-0.133,0.2-0.266,0.2-0.399c0-0.333-0.183-0.5-0.55-0.5l-3.75,0.6
		l0.1-3.8c0-0.267-0.117-0.517-0.35-0.75c-0.2-0.233-0.467-0.35-0.8-0.35c-0.3,0-0.55,0.117-0.75,0.35
		c-0.233,0.233-0.35,0.5-0.35,0.8v2.25L52.1,86c-0.367,0.133-0.55,0.4-0.55,0.8c0,0.467,0.25,0.733,0.75,0.8l2.5,0.15l1.55,10.05
		c0.233,1.601,0.617,7.417,1.15,17.45l0.1,1.75l-1.45,1c-0.733,0.533-1.15,1-1.25,1.4c-0.1,0.199-0.05,0.483,0.15,0.85l0.8,0.55
		c2.133,1.566,4.633,2.7,7.5,3.4c4.967,1.2,12.45,1.8,22.45,1.8c10.667,0,18.717-0.684,24.15-2.05c3.2-0.767,5.767-1.95,7.7-3.55
		c0.233-0.834-0.317-1.684-1.65-2.551L114.55,116.85z M71.4,77.95c-0.267-0.3-0.617-0.45-1.05-0.45c-0.4,0-0.75,0.15-1.05,0.45
		c-0.3,0.3-0.45,0.65-0.45,1.05c0,0.633,0.316,1.1,0.95,1.4l0.7,0.25l0.6-0.35c0.5-0.333,0.75-0.767,0.75-1.3
		C71.85,78.6,71.7,78.25,71.4,77.95z M80.2,85.2c0,0.366,0.167,0.616,0.5,0.75l0.35,0.15l0.3-0.15c0.333-0.2,0.5-0.45,0.5-0.75
		c0-0.233-0.083-0.434-0.25-0.6c-0.133-0.167-0.317-0.25-0.55-0.25c-0.233,0-0.433,0.083-0.6,0.25
		C80.283,84.767,80.2,84.967,80.2,85.2z M94.2,76.6c-0.4,0-0.75,0.15-1.05,0.45c-0.301,0.267-0.45,0.617-0.45,1.05
		c0,0.633,0.283,1.083,0.85,1.35l0.65,0.3l0.649-0.3c0.567-0.267,0.851-0.717,0.851-1.35c0-0.434-0.15-0.784-0.45-1.05
		C94.983,76.75,94.634,76.6,94.2,76.6z M104.8,84.55c-0.566,0-0.85,0.267-0.85,0.8c0,0.367,0.149,0.617,0.45,0.75l0.399,0.2
		l0.351-0.2c0.3-0.133,0.449-0.383,0.449-0.75C105.6,84.816,105.333,84.55,104.8,84.55z M83.1,91.3l-1.25,0.5l0.05-0.05L83.1,91.3
		l-1.2,0.45l-0.05,0.05L83.1,91.3z M83.5,91.15L83.1,91.3L83.5,91.15z"/>
	<path style="fill-rule:evenodd;clip-rule:evenodd;fill:none;stroke:#DBF0E8;stroke-width:0.25;" d="M118.1,75.05
		c1.334,1,2.233,2.284,2.7,3.85c1.767,0.167,3.25,0.917,4.45,2.25s1.8,2.9,1.8,4.7c0,1.433-0.399,2.733-1.2,3.9
		c-0.767,1.134-1.783,1.983-3.05,2.55L122,97c-0.5,2.767-0.866,8.333-1.1,16.7c1.566,1.366,2.55,2.934,2.949,4.7
		c0.367,1.767,0.084,3.517-0.85,5.25c-0.233,0.5-0.6,0.949-1.1,1.35l-0.2,0.15c-2.767,2.267-6.167,3.899-10.2,4.899
		c-5.866,1.467-14.434,2.2-25.7,2.2c-10.9,0-19.15-0.733-24.75-2.2c-3.167-0.8-6.117-2.184-8.85-4.149l-0.95-0.65
		c-0.433-0.267-0.85-0.684-1.25-1.25c-1.233-1.967-1.633-3.983-1.2-6.05c0.367-1.467,1.15-2.783,2.35-3.95
		c-0.433-8.733-0.767-13.833-1-15.3l-0.85-5.55c-1.2-0.567-2.167-1.417-2.9-2.551c-0.733-1.166-1.1-2.433-1.1-3.8
		c0-2.433,0.967-4.35,2.9-5.75c0.466-1.566,1.35-2.85,2.65-3.85c1.3-1.034,2.783-1.55,4.45-1.55c1.534,0,2.934,0.434,4.2,1.3
		c1.2,0.833,2.083,1.933,2.65,3.3l0.6,0.25c-0.1-0.5-0.15-1-0.15-1.5c0-2.133,0.767-3.95,2.3-5.45c1.5-1.533,3.317-2.3,5.45-2.3
		c2.1,0,3.9,0.733,5.4,2.2c1.5,1.466,2.283,3.233,2.35,5.3c0.967-0.434,1.95-0.65,2.95-0.65c1.7,0,3.2,0.55,4.5,1.65
		c1.3,1.066,2.117,2.417,2.45,4.05l0.3-0.65c-1.233-1.5-1.85-3.183-1.85-5.05c0-2.133,0.767-3.95,2.3-5.45
		c1.5-1.533,3.316-2.3,5.45-2.3c2.133,0,3.967,0.767,5.5,2.3c1.5,1.5,2.25,3.317,2.25,5.45l-0.05,0.8
		c1.533-0.667,3.083-0.783,4.649-0.35c0.533-1.5,1.434-2.7,2.7-3.6c1.3-0.934,2.75-1.4,4.35-1.4
		C115.267,73.55,116.767,74.05,118.1,75.05z M114.85,81c0-0.333-0.116-0.617-0.35-0.85c-0.267-0.233-0.566-0.35-0.9-0.35
		c-0.333,0-0.616,0.117-0.85,0.35s-0.35,0.517-0.35,0.85c0,0.467,0.183,0.8,0.55,1l1.149,0.75l0.601-1.25
		C114.8,81.367,114.85,81.2,114.85,81z M116.4,87.9l0.85-0.301l0.05-0.449L116.4,87.9z M120,85.1c-0.1,0-0.25,0.05-0.45,0.15
		l-1.649,1.4l2.05-0.05l0.6-0.2c0.167-0.167,0.25-0.35,0.25-0.55C120.8,85.35,120.533,85.1,120,85.1z M114.55,116.85l0.3-8.1l-2,6.2
		l0.9-24.8l-3,2.5l-4.45,8.699l-1.649-7.1L101.3,105.1L98.05,96.7c-1.7-4.4-3.066-8.05-4.1-10.95c-2.2,4.667-4.117,8.634-5.75,11.9
		l-3.1,6.3l-3.85-9.9l-2.15,7.75L71,86.65l-4.9,18.75L62.4,97.6c-0.667-1.466-1.633-3.767-2.9-6.899l-0.85-2.15l1.8-1.45
		c0.133-0.133,0.2-0.266,0.2-0.399c0-0.333-0.183-0.5-0.55-0.5l-3.75,0.6l0.1-3.8c0-0.267-0.117-0.517-0.35-0.75
		c-0.2-0.233-0.467-0.35-0.8-0.35c-0.3,0-0.55,0.117-0.75,0.35c-0.233,0.233-0.35,0.5-0.35,0.8v2.25L52.1,86
		c-0.367,0.133-0.55,0.4-0.55,0.8c0,0.467,0.25,0.733,0.75,0.8l2.5,0.15l1.55,10.05c0.233,1.601,0.617,7.417,1.15,17.45l0.1,1.75
		l-1.45,1c-0.733,0.533-1.15,1-1.25,1.4c-0.1,0.199-0.05,0.483,0.15,0.85l0.8,0.55c2.133,1.566,4.633,2.7,7.5,3.4
		c4.967,1.2,12.45,1.8,22.45,1.8c10.667,0,18.717-0.684,24.15-2.05c3.2-0.767,5.767-1.95,7.7-3.55
		c0.233-0.834-0.317-1.684-1.65-2.551L114.55,116.85z M71.4,77.95c-0.267-0.3-0.617-0.45-1.05-0.45c-0.4,0-0.75,0.15-1.05,0.45
		c-0.3,0.3-0.45,0.65-0.45,1.05c0,0.633,0.316,1.1,0.95,1.4l0.7,0.25l0.6-0.35c0.5-0.333,0.75-0.767,0.75-1.3
		C71.85,78.6,71.7,78.25,71.4,77.95z M80.2,85.2c0,0.366,0.167,0.616,0.5,0.75l0.35,0.15l0.3-0.15c0.333-0.2,0.5-0.45,0.5-0.75
		c0-0.233-0.083-0.434-0.25-0.6c-0.133-0.167-0.317-0.25-0.55-0.25c-0.233,0-0.433,0.083-0.6,0.25
		C80.283,84.767,80.2,84.967,80.2,85.2z M94.2,76.6c-0.4,0-0.75,0.15-1.05,0.45c-0.301,0.267-0.45,0.617-0.45,1.05
		c0,0.633,0.283,1.083,0.85,1.35l0.65,0.3l0.649-0.3c0.567-0.267,0.851-0.717,0.851-1.35c0-0.434-0.15-0.784-0.45-1.05
		C94.983,76.75,94.634,76.6,94.2,76.6z M104.8,84.55c-0.566,0-0.85,0.267-0.85,0.8c0,0.367,0.149,0.617,0.45,0.75l0.399,0.2
		l0.351-0.2c0.3-0.133,0.449-0.383,0.449-0.75C105.6,84.816,105.333,84.55,104.8,84.55z M83.1,91.3l-1.25,0.5l0.05-0.05L83.1,91.3z
		 M83.5,91.15L83.1,91.3"/>
	<g>
		<path style="fill-rule:evenodd;clip-rule:evenodd;fill:#61490E;" d="M122.75,83.1c0.767,0.767,1.15,1.683,1.15,2.75
			c0,1.066-0.367,1.983-1.101,2.75c-0.767,0.767-1.684,1.15-2.75,1.15l-1.149,6.7c-0.534,3.3-0.917,9.55-1.15,18.75
			c1.467,0.967,2.417,2.05,2.85,3.25c0.434,1.233,0.317,2.483-0.35,3.75c-0.134,0.166-0.233,0.283-0.3,0.35l-0.2,0.2
			c-2.333,1.833-5.1,3.184-8.3,4.05c-5.767,1.533-14.316,2.3-25.65,2.3c-10.466,0-18.333-0.649-23.6-1.949
			c-3.067-0.767-5.784-2.034-8.15-3.801l-1.1-0.75c-0.167-0.066-0.267-0.166-0.3-0.3c-0.8-1.2-1.066-2.399-0.8-3.6
			c0.3-1.233,1.133-2.334,2.5-3.3c-0.367-8.867-0.733-14.584-1.1-17.15L52.1,90.7c-1.033-0.033-1.9-0.434-2.6-1.2
			c-0.733-0.767-1.1-1.667-1.1-2.7c0-0.866,0.25-1.633,0.75-2.3c0.467-0.7,1.1-1.184,1.9-1.45c0-1.167,0.417-2.167,1.25-3
			c0.833-0.833,1.833-1.25,3-1.25c1.167,0,2.167,0.417,3,1.25c0.833,0.833,1.25,1.833,1.25,3v0.05h0.55c1.033,0,1.9,0.35,2.6,1.05
			c0.7,0.7,1.05,1.55,1.05,2.55c0,1.166-0.45,2.116-1.35,2.85c1.467,3.601,2.417,5.834,2.85,6.7l3.4-12.95
			c-0.867-0.366-1.566-0.933-2.1-1.7c-0.533-0.767-0.8-1.633-0.8-2.6c0-1.267,0.45-2.35,1.35-3.25s1.983-1.35,3.25-1.35
			s2.367,0.45,3.3,1.35C74.55,76.65,75,77.733,75,79c0,1.733-0.767,3.066-2.3,4c0.867,1.9,2.683,5.4,5.45,10.5l1.3-4.7
			c-0.7-0.3-1.267-0.767-1.7-1.399c-0.433-0.667-0.65-1.4-0.65-2.2c0-1.1,0.383-2.034,1.15-2.8s1.7-1.15,2.8-1.15
			c1.067,0,2,0.383,2.8,1.15c0.767,0.767,1.15,1.7,1.15,2.8c0,0.8-0.217,1.517-0.65,2.149c-0.434,0.634-1,1.117-1.7,1.45l2.75,7.45
			c1.6-3.167,3.817-7.733,6.65-13.7l0.15-0.3c-0.767-0.367-1.4-0.934-1.9-1.7c-0.467-0.733-0.7-1.55-0.7-2.45
			c0-1.267,0.45-2.35,1.351-3.25c0.899-0.9,1.983-1.35,3.25-1.35s2.366,0.45,3.3,1.35c0.9,0.9,1.35,1.983,1.35,3.25
			c0,0.933-0.25,1.783-0.75,2.55c-0.5,0.733-1.166,1.284-2,1.65l0.15,0.45c0.467,1.5,2.033,5.767,4.7,12.8L103,88.9
			c-0.667-0.334-1.184-0.817-1.55-1.45c-0.4-0.634-0.601-1.333-0.601-2.1c0-1.067,0.384-1.983,1.15-2.75s1.7-1.15,2.8-1.15
			c1.066,0,1.983,0.383,2.75,1.15s1.15,1.683,1.15,2.75c0,0.767-0.2,1.466-0.601,2.1c-0.366,0.633-0.883,1.116-1.55,1.45
			l0.851,3.449l3.85-7.7c-1.333-0.9-2-2.117-2-3.65c0-1.2,0.434-2.217,1.3-3.05c0.834-0.867,1.851-1.3,3.05-1.3
			c1.2,0,2.233,0.434,3.101,1.3c0.833,0.833,1.25,1.85,1.25,3.05c0,0.633-0.134,1.267-0.4,1.9c0.667-0.6,1.483-0.9,2.45-0.9
			C121.066,82,121.983,82.367,122.75,83.1z M115.85,81c0-0.633-0.216-1.167-0.649-1.6c-0.434-0.433-0.967-0.65-1.601-0.65
			c-0.633,0-1.166,0.217-1.6,0.65c-0.434,0.434-0.65,0.967-0.65,1.6c0,0.5,0.15,0.95,0.45,1.35s0.684,0.667,1.15,0.8l0.35,0.15
			l0.351-0.05c0.633,0,1.149-0.217,1.55-0.65C115.634,82.167,115.85,81.633,115.85,81z M116.7,86.35
			c-0.367-0.233-0.75-0.284-1.15-0.15c-0.399,0.133-0.684,0.383-0.85,0.75c-0.233,0.5-0.617,0.684-1.15,0.55s-0.8-0.45-0.8-0.95
			V86.4l-4.8,9.45c-0.2,0.434-0.55,0.617-1.05,0.551c-0.5-0.067-0.801-0.334-0.9-0.801l-1.25-5.25l-2.7,8.7
			c-0.1,0.467-0.416,0.7-0.95,0.7c-0.466,0.066-0.8-0.15-1-0.65c-2.966-7.533-4.916-12.783-5.85-15.75L94.15,83L86.3,99.2
			c-0.233,0.399-0.55,0.6-0.95,0.6c-0.467,0-0.783-0.2-0.95-0.6c-0.433-0.9-1.383-3.316-2.85-7.25l-0.45-1.3l-1.6,5.899
			c-0.167,0.434-0.467,0.684-0.9,0.75c-0.5,0.066-0.85-0.116-1.05-0.55c-3.767-6.934-6.05-11.283-6.85-13.05v0.15l-4.1,15.5
			c-0.1,0.434-0.383,0.7-0.85,0.801c-0.433,0.066-0.783-0.084-1.05-0.45c-0.833-1.3-2.133-4.15-3.9-8.55l-0.1,3.399
			c0,0.533-0.267,0.867-0.8,1c-0.566,0.101-0.967-0.1-1.2-0.6l-2.3-5.5l0.15,4.6c0,0.5-0.25,0.834-0.75,1
			c-0.367,0.134-0.683,0.066-0.95-0.2l0.45,3.101c0.233,1.6,0.633,7.583,1.2,17.95c0,0.399-0.167,0.716-0.5,0.949
			c-1.233,0.733-1.933,1.5-2.1,2.301c-0.133,0.533,0,1.149,0.4,1.85l0.95,0.7c2.233,1.6,4.8,2.75,7.7,3.45
			c5.1,1.233,12.716,1.85,22.85,1.85c11,0,19.283-0.717,24.851-2.15c3.166-0.833,5.767-2.083,7.8-3.75l0.05-0.05
			c0.7-1.6-0.083-3.05-2.35-4.35c-0.4-0.233-0.567-0.55-0.5-0.95c0.133-6.167,0.383-11.35,0.75-15.55
			c-0.301,0.366-0.65,0.5-1.051,0.399c-0.633-0.066-0.916-0.416-0.85-1.05l0.15-5.55c-0.2,0.134-0.417,0.184-0.65,0.15
			c-0.533-0.067-0.833-0.384-0.9-0.95l-0.25-4.15c0-0.533,0.25-0.883,0.75-1.05c0.467-0.167,0.867-0.033,1.2,0.4
			c0.134,0.267,0.384,0.466,0.75,0.6l0.2,0.05h0.3c0.3,0,0.584-0.1,0.851-0.3s0.433-0.467,0.5-0.8c0.133-0.367,0.35-0.601,0.649-0.7
			c0.334-0.167,0.65-0.134,0.95,0.1l0.4,0.2h0.1c0.134,0.066,0.3,0.101,0.5,0.101c0.5,0,0.934-0.167,1.3-0.5
			c0.334-0.367,0.5-0.8,0.5-1.3s-0.166-0.917-0.5-1.25c-0.366-0.367-0.8-0.55-1.3-0.55c-0.434,0-0.816,0.15-1.15,0.45
			c-0.333,0.3-0.533,0.667-0.6,1.1c-0.033,0.333-0.217,0.583-0.55,0.75C117.333,86.517,117,86.517,116.7,86.35z M116.8,92.15
			l0.4-1.2l-0.351,0.1L116.8,92.15z M52.35,88.65l0.4-0.051h0.1l0.1-0.05c0.833-0.333,1.25-0.916,1.25-1.75v-0.35
			c-0.067-0.367,0.017-0.667,0.25-0.9c0.2-0.233,0.483-0.35,0.85-0.35h0.1l0.25,0.05l0.3-0.15c0.466-0.133,0.833-0.383,1.1-0.75
			c0.3-0.4,0.45-0.833,0.45-1.3c0-0.6-0.217-1.1-0.65-1.5c-0.434-0.433-0.95-0.65-1.55-0.65c-0.6,0-1.1,0.217-1.5,0.65
			c-0.433,0.4-0.65,0.9-0.65,1.5c0,0.233,0.033,0.417,0.1,0.55c0.067,0.367,0,0.667-0.2,0.9c-0.133,0.233-0.4,0.383-0.8,0.45
			c-0.467,0.033-0.883,0.216-1.25,0.55c-0.333,0.367-0.5,0.8-0.5,1.3s0.183,0.934,0.55,1.3C51.417,88.467,51.85,88.65,52.35,88.65z
			 M70.35,76.5c-0.7,0-1.3,0.25-1.8,0.75c-0.5,0.467-0.75,1.05-0.75,1.75c0,0.633,0.217,1.2,0.65,1.7
			c0.433,0.466,0.966,0.733,1.6,0.8l0.55,0.2c0.133-0.134,0.283-0.217,0.45-0.25c0.567-0.134,1.017-0.434,1.35-0.9
			c0.333-0.466,0.5-0.983,0.5-1.55c0-0.7-0.25-1.283-0.75-1.75C71.65,76.75,71.05,76.5,70.35,76.5z M61.25,85.6
			c-0.333-0.3-0.717-0.45-1.15-0.45c-0.434,0-0.8,0.15-1.1,0.45c-0.3,0.3-0.45,0.667-0.45,1.1c0,0.399,0.133,0.75,0.4,1.05
			c0.267,0.3,0.6,0.467,1,0.5c0.167,0,0.3,0.05,0.4,0.15l0.35-0.25c0.667-0.267,1-0.75,1-1.45C61.7,86.267,61.55,85.9,61.25,85.6z
			 M81.05,83.35c-0.533,0-0.966,0.183-1.3,0.55c-0.367,0.333-0.55,0.767-0.55,1.3c0,0.466,0.15,0.883,0.45,1.25
			c0.333,0.366,0.733,0.566,1.2,0.6h0.3c0.5-0.033,0.917-0.233,1.25-0.6c0.333-0.367,0.5-0.784,0.5-1.25
			c0-0.534-0.183-0.967-0.55-1.3C81.983,83.533,81.55,83.35,81.05,83.35z M92.3,79.75c0.4,0.467,0.9,0.75,1.5,0.85
			c0.167,0,0.3,0.05,0.4,0.15L94.6,80.6c0.634-0.1,1.15-0.383,1.551-0.85c0.399-0.467,0.6-1.017,0.6-1.65c0-0.7-0.25-1.3-0.75-1.8
			s-1.1-0.75-1.8-0.75s-1.283,0.25-1.75,0.75c-0.5,0.5-0.75,1.1-0.75,1.8C91.7,78.733,91.9,79.283,92.3,79.75z M104.8,83.5
			c-0.533,0-0.983,0.184-1.35,0.55c-0.367,0.367-0.55,0.8-0.55,1.3c0,0.466,0.149,0.883,0.449,1.25
			c0.301,0.333,0.684,0.534,1.15,0.6l0.3,0.1l0.3-0.1c0.434-0.066,0.801-0.284,1.101-0.65c0.3-0.333,0.45-0.733,0.45-1.2
			c0-0.5-0.184-0.934-0.551-1.3C105.733,83.684,105.3,83.5,104.8,83.5z"/>
		<linearGradient id="SVGID_32_" gradientUnits="userSpaceOnUse" x1="56.3999" y1="119.8496" x2="114.7999" y2="119.8496">
			<stop  offset="0" style="stop-color:#895D1A"/>
			<stop  offset="0.2157" style="stop-color:#BE9527"/>
			<stop  offset="0.851" style="stop-color:#FCEA78"/>
		</linearGradient>
		<path style="fill-rule:evenodd;clip-rule:evenodd;fill:url(#SVGID_32_);" d="M117.4,116.25c2.333,1.6,2.966,3.434,1.899,5.5
			c-2.3,1.833-4.916,3.15-7.85,3.95c-5.667,1.566-14.217,2.35-25.65,2.35c-11.333,0-19.6-0.783-24.8-2.35
			c-1.6-0.467-4.1-1.783-7.5-3.95c-1.4-2.134-0.85-4,1.65-5.6c1.867-1.2,3.883-1.9,6.05-2.101l0.25-2.399
			c5.9,0.233,11.35,0.35,16.35,0.35h17.25c5,0,10.45-0.116,16.351-0.35l0.199,2.399C113.634,114.25,115.566,114.983,117.4,116.25z"
			/>
		<path style="fill-rule:evenodd;clip-rule:evenodd;fill:#61490E;" d="M117.2,104.2c-0.367,6.3-0.55,10.783-0.55,13.45
			c0,0.5-0.983,0.866-2.95,1.1c-0.267,0.6-1.717,1.217-4.351,1.85c-5.233,1.233-13.783,1.884-25.649,1.95
			c-10.067,0.101-17.85-0.467-23.35-1.7L55.1,119c-0.1-6.233-0.25-11.184-0.45-14.85C72.017,103.783,92.866,103.8,117.2,104.2z"/>
		<path style="fill-rule:evenodd;clip-rule:evenodd;fill:#61490E;" d="M67.75,117.95l0.35,1.6c-0.434,0.967-2.333,1.184-5.7,0.65
			s-5.1,0.1-5.2,1.899c-0.067,0.9,0.2,1.851,0.8,2.851l-1.45-0.75c-0.833-0.4-1.517-0.983-2.05-1.75c-0.6-0.934-0.833-1.934-0.7-3
			c0.133-0.967,0.633-1.8,1.5-2.5l1.25-0.8h2.55L67.75,117.95z"/>
		<path style="fill-rule:evenodd;clip-rule:evenodd;fill:#61490E;" d="M59.35,120.85c-1.2,0.267-1.65,0.967-1.35,2.101
			c0.3,1.1,0.8,1.934,1.5,2.5c0.226,0.185,0.434,0.326,0.625,0.425c-1.987-0.8-3.012-1.658-3.075-2.575
			c-0.066-0.6,0.017-1.416,0.25-2.45l0.35-1.35l1-0.1l5.25,0.949l-2.7,0.4C60.567,120.684,59.95,120.717,59.35,120.85z"/>
		
			<radialGradient id="SVGID_33_" cx="87.7998" cy="101.6426" r="22.5406" gradientTransform="matrix(1 0 0 -1 0 203.2852)" gradientUnits="userSpaceOnUse">
			<stop  offset="0" style="stop-color:#B6933B"/>
			<stop  offset="0.2157" style="stop-color:#B08D38"/>
			<stop  offset="0.498" style="stop-color:#A07D30"/>
			<stop  offset="0.8157" style="stop-color:#856222"/>
			<stop  offset="1" style="stop-color:#724F18"/>
		</radialGradient>
		<path style="fill-rule:evenodd;clip-rule:evenodd;fill:url(#SVGID_33_);" d="M115.45,102.4c0,0.566-1.533,3.066-4.601,7.5
			c-3.033,4.466-4.767,6.699-5.199,6.699c-0.567,0-15.9-3.767-46-11.3V95.9c0.033-1.567,0.067-3.117,0.1-4.65
			c0.133-3.1,0.267-4.566,0.4-4.4l2.4,5.9C64.183,96.684,65.333,99,66,99.7c0.733,0.7,2.833,1.066,6.3,1.1
			c1.733,0.033,3.383-0.017,4.95-0.149l3.7-13.051c0.066-0.133,0.767,1.65,2.1,5.351c1.467,4.033,2.483,6.399,3.05,7.1
			c0.601,0.767,3.167,1.134,7.7,1.101c2.267,0,4.467-0.084,6.601-0.25l4.399-14.2c0.066-0.2,0.533,1.533,1.4,5.2
			c0.899,3.699,1.416,6.05,1.55,7.05c0.1,0.967,1.05,0.7,2.85-0.8c1.7-1.434,2.7-2.601,3-3.5l2.351-6.601L115.45,102.4z"/>
		
			<radialGradient id="SVGID_34_" cx="59.3501" cy="85.7998" r="3.675" gradientTransform="matrix(1 0 0 -1 0 171.5996)" gradientUnits="userSpaceOnUse">
			<stop  offset="0" style="stop-color:#AA8922"/>
			<stop  offset="1" style="stop-color:#694C0F"/>
		</radialGradient>
		<path style="fill-rule:evenodd;clip-rule:evenodd;fill:url(#SVGID_34_);" d="M62.7,86.7c0,0.733-0.25,1.35-0.75,1.85
			s-1.117,0.75-1.85,0.75c-0.7,0-1.3-0.25-1.8-0.75s-0.75-1.116-0.75-1.85c0-0.7,0.25-1.3,0.75-1.8c0.5-0.533,1.1-0.8,1.8-0.8
			c0.733,0,1.35,0.267,1.85,0.8C62.45,85.4,62.7,86,62.7,86.7z"/>
		
			<radialGradient id="SVGID_35_" cx="80.1499" cy="84.1499" r="4.1125" gradientTransform="matrix(1 0 0 -1 0 168.2998)" gradientUnits="userSpaceOnUse">
			<stop  offset="0" style="stop-color:#AA8922"/>
			<stop  offset="1" style="stop-color:#694C0F"/>
		</radialGradient>
		<path style="fill-rule:evenodd;clip-rule:evenodd;fill:url(#SVGID_35_);" d="M83.95,85.2c0,0.8-0.284,1.483-0.85,2.05
			c-0.567,0.566-1.25,0.85-2.05,0.85c-0.8,0-1.483-0.283-2.05-0.85S78.15,86,78.15,85.2c0-0.8,0.283-1.483,0.85-2.05
			c0.567-0.566,1.25-0.85,2.05-0.85c0.8,0,1.483,0.284,2.05,0.85C83.667,83.717,83.95,84.4,83.95,85.2z"/>
		
			<radialGradient id="SVGID_36_" cx="103.9004" cy="84.3501" r="4.1125" gradientTransform="matrix(1 0 0 -1 0 168.7002)" gradientUnits="userSpaceOnUse">
			<stop  offset="0" style="stop-color:#AA8922"/>
			<stop  offset="1" style="stop-color:#694C0F"/>
		</radialGradient>
		<path style="fill-rule:evenodd;clip-rule:evenodd;fill:url(#SVGID_36_);" d="M107.7,85.35c0,0.833-0.283,1.533-0.851,2.1
			c-0.566,0.566-1.25,0.85-2.05,0.85c-0.833,0-1.533-0.283-2.1-0.85c-0.566-0.567-0.851-1.267-0.851-2.1
			c0-0.8,0.284-1.483,0.851-2.05c0.566-0.566,1.267-0.85,2.1-0.85c0.8,0,1.483,0.283,2.05,0.85
			C107.417,83.867,107.7,84.55,107.7,85.35z"/>
		
			<radialGradient id="SVGID_37_" cx="115.25" cy="86.7002" r="3.55" gradientTransform="matrix(1 0 0 -1 0 173.4004)" gradientUnits="userSpaceOnUse">
			<stop  offset="0" style="stop-color:#AA8922"/>
			<stop  offset="1" style="stop-color:#694C0F"/>
		</radialGradient>
		<path style="fill-rule:evenodd;clip-rule:evenodd;fill:url(#SVGID_37_);" d="M118.5,87.6c0,0.7-0.233,1.301-0.7,1.801
			c-0.5,0.466-1.1,0.699-1.8,0.699s-1.283-0.233-1.75-0.699c-0.5-0.5-0.75-1.101-0.75-1.801c0-0.7,0.25-1.283,0.75-1.75
			c0.467-0.5,1.05-0.75,1.75-0.75s1.3,0.25,1.8,0.75C118.267,86.316,118.5,86.9,118.5,87.6z"/>
		<linearGradient id="SVGID_38_" gradientUnits="userSpaceOnUse" x1="56.3501" y1="101.127" x2="114.3501" y2="101.127">
			<stop  offset="0" style="stop-color:#895D1A"/>
			<stop  offset="0.2157" style="stop-color:#BE9527"/>
			<stop  offset="0.851" style="stop-color:#FCEA78"/>
		</linearGradient>
		<path style="fill-rule:evenodd;clip-rule:evenodd;fill:url(#SVGID_38_);" d="M113.85,87.7c0.067,2.1,0.217,4.767,0.45,8
			c0.267,3.899,0.483,5.717,0.65,5.45c0.233-0.4,1.7-4.917,4.399-13.551l-1.449,8.65c-0.567,3.267-0.983,9.983-1.25,20.15
			l-0.101,2.05c-0.633,0.533-2.383,1.066-5.25,1.6c-5.7,1.066-14.033,1.601-25,1.601c-10.966,0-19.4-0.75-25.3-2.25
			c-1.833-0.5-3.3-1.034-4.4-1.601l-1.1-0.7c-0.5-10.466-0.9-16.8-1.2-19l-1.5-9.649l1,2.3c0.4,1.134,0.967,2.233,1.7,3.3l-0.25-9.3
			l0.4,0.4c0.333,0.434,0.684,1.167,1.05,2.2c0.5,1.367,1.583,3.95,3.25,7.75c1.7,3.967,2.667,6.067,2.9,6.301
			c0.4,0.399,0.8,0.6,1.2,0.6c0.567-0.033,0.983-0.6,1.25-1.7c3.267-12.399,4.934-18.767,5-19.1c0.133-0.567,0.583,0.083,1.35,1.95
			c0.434,1.034,2.067,4.216,4.9,9.55c2.934,5.434,4.567,8.3,4.9,8.6c1.167,1,2.216,0.634,3.15-1.1
			c0.533-0.934,2.233-4.384,5.1-10.351c2.833-5.833,4.283-8.833,4.35-9c0.134-0.267,0.267-0.317,0.4-0.15
			c0.133,0.267,0.399,1.05,0.8,2.35c0.4,1.367,1.566,4.584,3.5,9.65c1.9,5.033,2.983,7.767,3.25,8.2
			c0.3,0.566,0.566,0.883,0.8,0.949c0.367,0.067,0.834-0.333,1.4-1.199c0.633-1,2.316-4.2,5.05-9.601c2.733-5.433,4.1-8.267,4.1-8.5
			c0-0.366,0.067,0.083,0.2,1.35C113.717,85.2,113.816,86.467,113.85,87.7z"/>
		
			<use xlink:href="#FlashAICB_x2F_Layer_15_x2F__x3C_Clip_Group_0_x3E_"  width="66.55" height="41.071" y="-41.125" transform="matrix(1 0 0 -1 52.7998 80.5498)" style="overflow:visible;"/>
		<g>
			<linearGradient id="SVGID_39_" gradientUnits="userSpaceOnUse" x1="53.9751" y1="92.5791" x2="117.9251" y2="92.5791">
				<stop  offset="0.0235" style="stop-color:#D2A01E"/>
				<stop  offset="0.2902" style="stop-color:#E7BE33"/>
				<stop  offset="0.9216" style="stop-color:#FEFCED"/>
			</linearGradient>
			<path style="fill-rule:evenodd;clip-rule:evenodd;fill:url(#SVGID_39_);" d="M113.35,82.55c0-0.366,0.067,0.083,0.2,1.35
				c0.167,1.3,0.267,2.567,0.3,3.8c0.067,2.1,0.217,4.767,0.45,8c0.267,3.899,0.483,5.717,0.65,5.45
				c0.233-0.4,1.7-4.917,4.399-13.551l-0.899,5.5c-2.267,6.934-3.434,10.467-3.5,10.601c-0.167,0.3-0.384-1.5-0.65-5.4
				c-0.233-3.267-0.383-5.95-0.45-8.05c-0.033-1.233-0.133-2.5-0.3-3.8c-0.133-1.233-0.2-1.667-0.2-1.3c0,0.233-1.366,3.067-4.1,8.5
				c-2.767,5.399-4.45,8.6-5.05,9.6c-0.566,0.866-1.033,1.267-1.4,1.2c-0.233-0.066-0.5-0.384-0.8-0.95
				c-0.267-0.467-1.35-3.2-3.25-8.2c-1.934-5.1-3.1-8.333-3.5-9.7c-0.4-1.3-0.667-2.067-0.8-2.3c-0.134-0.2-0.267-0.167-0.4,0.1
				c-0.066,0.167-1.517,3.184-4.35,9.05c-2.867,5.967-4.567,9.399-5.1,10.3c-0.934,1.733-1.983,2.1-3.15,1.1
				c-0.333-0.267-1.967-3.133-4.9-8.6c-2.833-5.3-4.466-8.467-4.9-9.5c-0.767-1.9-1.217-2.55-1.35-1.95
				c-0.066,0.3-1.733,6.65-5,19.05c-0.267,1.134-0.683,1.7-1.25,1.7c-0.367,0.033-0.767-0.166-1.2-0.6
				c-0.233-0.2-1.2-2.283-2.9-6.25c-1.633-3.8-2.717-6.4-3.25-7.8c-0.467-1.467-0.934-2.317-1.4-2.551l-0.05-2.6l0.4,0.4
				c0.333,0.434,0.684,1.167,1.05,2.2c0.5,1.367,1.583,3.95,3.25,7.75c1.7,3.967,2.667,6.067,2.9,6.301c0.4,0.399,0.8,0.6,1.2,0.6
				c0.567-0.033,0.983-0.6,1.25-1.7c3.267-12.399,4.934-18.767,5-19.1c0.133-0.567,0.583,0.083,1.35,1.95
				c0.434,1.034,2.067,4.216,4.9,9.55c2.934,5.434,4.567,8.3,4.9,8.6c1.167,1,2.216,0.634,3.15-1.1
				c0.533-0.934,2.233-4.384,5.1-10.351c2.833-5.833,4.283-8.833,4.35-9c0.134-0.267,0.267-0.317,0.4-0.15
				c0.133,0.267,0.399,1.05,0.8,2.35c0.4,1.367,1.566,4.584,3.5,9.65c1.9,5.033,2.983,7.767,3.25,8.2
				c0.3,0.566,0.566,0.883,0.8,0.949c0.367,0.067,0.834-0.333,1.4-1.199c0.633-1,2.316-4.2,5.05-9.601
				C111.983,85.617,113.35,82.783,113.35,82.55z"/>
			<linearGradient id="SVGID_40_" gradientUnits="userSpaceOnUse" x1="53.9624" y1="92.5508" x2="117.9374" y2="92.5508">
				<stop  offset="0.0235" style="stop-color:#D2A01E"/>
				<stop  offset="0.2902" style="stop-color:#E7BE33"/>
				<stop  offset="0.9216" style="stop-color:#FEFCED"/>
			</linearGradient>
			<path style="fill-rule:evenodd;clip-rule:evenodd;fill:url(#SVGID_40_);" d="M53.8,93.35l-0.4-1.05l-0.6-3.85l1,2.3
				c0.4,1.134,0.95,2.2,1.65,3.2l0.05,2.7C54.767,95.583,54.2,94.483,53.8,93.35z"/>
		</g>
		<linearGradient id="SVGID_41_" gradientUnits="userSpaceOnUse" x1="66.1001" y1="122.6045" x2="117.7002" y2="122.6045">
			<stop  offset="0.0235" style="stop-color:#D2A01E"/>
			<stop  offset="0.2902" style="stop-color:#E7BE33"/>
			<stop  offset="0.9216" style="stop-color:#FEFCED"/>
		</linearGradient>
		<path style="fill-rule:evenodd;clip-rule:evenodd;fill:url(#SVGID_41_);" d="M112.7,123.35c-4.233,1.467-10.967,2.351-20.2,2.65
			c-8,0.233-14.8-0.233-20.4-1.4l-6-1.8l4,1.05c4.566,0.634,11.583,0.817,21.05,0.551c9.699-0.233,17.033-1.184,22-2.851
			c2.5-0.833,4.017-1.633,4.55-2.399C117.533,120.85,115.866,122.25,112.7,123.35z"/>
		
			<radialGradient id="SVGID_42_" cx="69.25" cy="77.75" r="6.1875" gradientTransform="matrix(1 0 0 -1 0 155.5)" gradientUnits="userSpaceOnUse">
			<stop  offset="0" style="stop-color:#FBE55B"/>
			<stop  offset="0.7294" style="stop-color:#BE9527"/>
			<stop  offset="1" style="stop-color:#895D1A"/>
		</radialGradient>
		<path style="fill-rule:evenodd;clip-rule:evenodd;fill:url(#SVGID_42_);" d="M70.35,75.45c1,0,1.85,0.35,2.55,1.05
			c0.7,0.7,1.05,1.533,1.05,2.5c0,1-0.35,1.85-1.05,2.55c-0.7,0.7-1.55,1.05-2.55,1.05c-0.967,0-1.8-0.35-2.5-1.05
			C67.15,80.85,66.8,80,66.8,79c0-0.967,0.35-1.8,1.05-2.5C68.55,75.8,69.383,75.45,70.35,75.45z"/>
		
			<radialGradient id="SVGID_43_" cx="93.0996" cy="76.7998" r="6.1875" gradientTransform="matrix(1 0 0 -1 0 153.5996)" gradientUnits="userSpaceOnUse">
			<stop  offset="0" style="stop-color:#FBE55B"/>
			<stop  offset="0.7294" style="stop-color:#BE9527"/>
			<stop  offset="1" style="stop-color:#895D1A"/>
		</radialGradient>
		<path style="fill-rule:evenodd;clip-rule:evenodd;fill:url(#SVGID_43_);" d="M97.8,78.1c0,0.966-0.35,1.816-1.05,2.55
			c-0.7,0.7-1.55,1.05-2.55,1.05c-0.967,0-1.8-0.35-2.5-1.05c-0.7-0.733-1.05-1.583-1.05-2.55c0-1,0.35-1.85,1.05-2.55
			c0.7-0.7,1.533-1.05,2.5-1.05c1,0,1.85,0.35,2.55,1.05C97.45,76.25,97.8,77.1,97.8,78.1z"/>
		
			<radialGradient id="SVGID_44_" cx="112.5996" cy="79.7998" r="5.7125" gradientTransform="matrix(1 0 0 -1 0 159.5996)" gradientUnits="userSpaceOnUse">
			<stop  offset="0" style="stop-color:#FBE55B"/>
			<stop  offset="0.7294" style="stop-color:#BE9527"/>
			<stop  offset="1" style="stop-color:#895D1A"/>
		</radialGradient>
		<path style="fill-rule:evenodd;clip-rule:evenodd;fill:url(#SVGID_44_);" d="M116.9,81c0,0.934-0.317,1.717-0.95,2.35
			c-0.634,0.633-1.417,0.95-2.351,0.95c-0.899,0-1.666-0.316-2.3-0.95c-0.666-0.633-1-1.417-1-2.35c0-0.9,0.334-1.667,1-2.3
			c0.634-0.667,1.4-1,2.3-1c0.934,0,1.717,0.333,2.351,1C116.583,79.333,116.9,80.1,116.9,81z"/>
		
			<radialGradient id="SVGID_45_" cx="119.1504" cy="84.8501" r="4.9125" gradientTransform="matrix(1 0 0 -1 0 169.7002)" gradientUnits="userSpaceOnUse">
			<stop  offset="0" style="stop-color:#FBE55B"/>
			<stop  offset="0.7294" style="stop-color:#BE9527"/>
			<stop  offset="1" style="stop-color:#895D1A"/>
		</radialGradient>
		<path style="fill-rule:evenodd;clip-rule:evenodd;fill:url(#SVGID_45_);" d="M122.85,85.85c0,0.8-0.267,1.483-0.8,2.05
			c-0.566,0.533-1.25,0.8-2.05,0.8c-0.767,0-1.434-0.267-2-0.8c-0.533-0.567-0.8-1.25-0.8-2.05c0-0.767,0.267-1.434,0.8-2
			c0.566-0.567,1.233-0.85,2-0.85c0.8,0,1.483,0.283,2.05,0.85C122.583,84.417,122.85,85.083,122.85,85.85z"/>
		
			<radialGradient id="SVGID_46_" cx="51.4502" cy="85.75" r="4.1125" gradientTransform="matrix(1 0 0 -1 0 171.5)" gradientUnits="userSpaceOnUse">
			<stop  offset="0" style="stop-color:#FBE55B"/>
			<stop  offset="0.6078" style="stop-color:#BE9527"/>
			<stop  offset="1" style="stop-color:#895D1A"/>
		</radialGradient>
		<path style="fill-rule:evenodd;clip-rule:evenodd;fill:url(#SVGID_46_);" d="M55.25,86.8c0,0.8-0.283,1.483-0.85,2.05
			c-0.566,0.567-1.25,0.851-2.05,0.851c-0.8,0-1.483-0.283-2.05-0.851c-0.566-0.566-0.85-1.25-0.85-2.05s0.283-1.483,0.85-2.05
			c0.567-0.6,1.25-0.9,2.05-0.9c0.8,0,1.483,0.3,2.05,0.9C54.967,85.316,55.25,86,55.25,86.8z"/>
		
			<radialGradient id="SVGID_47_" cx="54.2998" cy="81.8999" r="5.55" gradientTransform="matrix(1 0 0 -1 0 163.7998)" gradientUnits="userSpaceOnUse">
			<stop  offset="0" style="stop-color:#FBE55B"/>
			<stop  offset="0.7294" style="stop-color:#BE9527"/>
			<stop  offset="1" style="stop-color:#895D1A"/>
		</radialGradient>
		<path style="fill-rule:evenodd;clip-rule:evenodd;fill:url(#SVGID_47_);" d="M58.5,83.05c0,0.867-0.3,1.617-0.9,2.25
			c-0.633,0.634-1.4,0.95-2.3,0.95c-0.867,0-1.617-0.316-2.25-0.95c-0.633-0.633-0.95-1.383-0.95-2.25
			c0-0.866,0.316-1.616,0.95-2.25c0.633-0.633,1.383-0.95,2.25-0.95c0.9,0,1.667,0.316,2.3,0.95C58.2,81.434,58.5,82.184,58.5,83.05
			z"/>
	</g>
</g>
</svg>
