<?xml version="1.0" encoding="iso-8859-1"?>
<!-- Generator: Adobe Illustrator 15.1.0, SVG Export Plug-In . SVG Version: 6.00 Build 0)  -->
<!DOCTYPE svg PUBLIC "-//W3C//DTD SVG 1.1//EN" "http://www.w3.org/Graphics/SVG/1.1/DTD/svg11.dtd">
<svg version="1.1" id="Layer_1" xmlns="http://www.w3.org/2000/svg" xmlns:xlink="http://www.w3.org/1999/xlink" x="0px" y="0px"
	 width="171.7px" height="171.7px" viewBox="0 0 171.7 171.7" style="enable-background:new 0 0 171.7 171.7;" xml:space="preserve"
	>
<symbol  id="FlashAICB_x2F_Layer_1_x2F__x3C_Clip_Group_0_x3E_" viewBox="0 -66 95.2 66">
	<g id="Layer_1_8_">
	</g>
	<g>
		<defs>
			<polygon id="SVGID_1_" points="82.55,0 0,-39.85 12.65,-66 95.2,-26.2 			"/>
		</defs>
		<clipPath id="SVGID_2_">
			<use xlink:href="#SVGID_1_"  style="overflow:visible;"/>
		</clipPath>
		<g id="Layer_3_2_" style="clip-path:url(#SVGID_2_);">
			
				<use xlink:href="#FlashAICB_x2F_Layer_1_x2F__x3C_Clip_Group_0_x3E__x5F_0"  width="55.9" height="39.25" y="-39.25" transform="matrix(1 0 0 1 38.3501 -8.2998)" style="overflow:visible;"/>
			<path style="fill-rule:evenodd;clip-rule:evenodd;fill:#808080;" d="M41.65-30.45c0.233-0.066,0.4-0.2,0.5-0.4l0.05-0.1
				c0.033-0.066,0-0.183-0.1-0.35l-0.05,0.05L42-31.1c-0.167,0.3-0.533,0.333-1.1,0.1c-0.533-0.267-0.75-0.55-0.65-0.85
				c-0.133,0.067-0.25,0.217-0.35,0.45c-0.066,0.1,0.017,0.233,0.25,0.4l0.05,0.05l0.45,0.25c0.067,0.067,0.167,0.1,0.3,0.1
				L41.65-30.45z M43.75-36.6L31.1-37.9c-0.7,0.033-1.35,0.133-1.95,0.3c-0.6,0.1-1.2,0.283-1.8,0.55L25.45-36
				c-0.567,0.467-1.133,0.817-1.7,1.05c-0.8,0.4-1.4,0.667-1.8,0.8l-0.4,0.1L23.2-34c0.7-0.067,1.316-0.183,1.85-0.35
				c0.733-0.267,1.284-0.5,1.65-0.7l1.75-0.85c0.4-0.2,1.033-0.434,1.9-0.7c0.5-0.167,1.017-0.25,1.55-0.25l1.4,0.25l11.75,4.3
				c0.2-0.8,0.284-1.5,0.25-2.1c-0.133-0.833-0.233-1.35-0.3-1.55C44.833-36.35,44.417-36.567,43.75-36.6z M15.15-35.5
				c0.3-0.067,0.867-0.067,1.7,0l0.55,0.1c0.333,0.033,0.6,0.1,0.8,0.2l0.2,0.1l-0.15-0.3c-0.4-0.967-0.6-2.067-0.6-3.3l0.1-1.7
				l-0.15-2.05l0.3,1.15c0.233,1.767,0.467,2.966,0.7,3.6c0.133,0.5,0.367,1.05,0.7,1.65l0.75,0.9l1.25,1
				c-0.633-0.667-0.65-1.55-0.05-2.65c0.867-0.434,1.45-0.7,1.75-0.8c0.6-0.167,1.25-0.433,1.95-0.8c0.933-0.4,1.566-0.733,1.9-1
				l0.6-1l0.3-1.2L27.3-54.7l-11.55,2.9H15.7L7-49.55c0,0.8,0.15,2.983,0.45,6.55c0.3,4.2,0.533,6.4,0.7,6.6
				c0.033,0.133,0.15,0.333,0.35,0.6l0.1,0.1l0.35,0.15c0.4,0.167,0.667,0.3,0.8,0.4c0.3,0.133,0.883,0.217,1.75,0.25L15.15-35.5z"
				/>
			<path style="fill-rule:evenodd;clip-rule:evenodd;fill:#858585;" d="M11.5-34.9c0.433,0,0.767,0.017,1,0.05l2.95,0.15L16-34.8
				c0.2-0.034,0.5-0.05,0.9-0.05l1.1,0.1c0.267,1.033,0.65,1.883,1.15,2.55c0.467,0.467,1.184,0.767,2.15,0.9
				c0.4,0.1,0.784,0.133,1.15,0.1l1.35-0.15l1.05-0.45c-0.434,0.1-0.9,0.15-1.4,0.15c-0.833-0.067-1.45-0.167-1.85-0.3
				c-0.934-0.233-1.633-0.6-2.1-1.1c-0.4-0.4-0.7-0.867-0.9-1.4l-0.2-0.65l-0.2-0.1c-0.2-0.1-0.467-0.167-0.8-0.2l-0.55-0.1
				c-0.833-0.067-1.4-0.067-1.7,0L11.5-34.9z M21.8-35.65c0.2-0.633,1.317-1.25,3.35-1.85c2.033-0.7,3.217-1.467,3.55-2.3
				c0.267-0.833,0.233-2.45-0.1-4.85c0-1.233-0.15-3.15-0.45-5.75c-0.066-0.267-0.066-0.733,0-1.4c0-0.567-0.05-1.05-0.15-1.45
				c-0.2-0.633-0.283-1.55-0.25-2.75c-0.167-0.667-0.283-1.283-0.35-1.85l0.35,16.25l-0.3,1.2l-0.6,1c-0.333,0.267-0.967,0.6-1.9,1
				c-0.7,0.367-1.35,0.633-1.95,0.8c-0.3,0.1-0.883,0.367-1.75,0.8c-0.6,1.1-0.583,1.983,0.05,2.65l0.25,0.1l0.4-0.1
				C21.717-34.817,21.667-35.317,21.8-35.65z"/>
			<linearGradient id="SVGID_3_" gradientUnits="userSpaceOnUse" x1="6.8501" y1="-44.3564" x2="45.0498" y2="-44.3564">
				<stop  offset="0.0235" style="stop-color:#808080"/>
				<stop  offset="0.7294" style="stop-color:#E6E6E6"/>
				<stop  offset="1" style="stop-color:#B3B3B3"/>
			</linearGradient>
			<path style="fill-rule:evenodd;clip-rule:evenodd;fill:url(#SVGID_3_);" d="M45.05-32.3L33.3-36.6l-1.4-0.25
				c-0.533,0-1.05,0.083-1.55,0.25c-0.867,0.267-1.5,0.5-1.9,0.7l-1.75,0.85c-0.367,0.2-0.917,0.433-1.65,0.7
				c-0.533,0.167-1.15,0.283-1.85,0.35l-1.65-0.05l-0.25-0.1l-1.25-1l-0.75-0.9c-0.333-0.6-0.566-1.15-0.7-1.65
				c-0.233-0.633-0.467-1.833-0.7-3.6l-0.3-1.15l0.15,2.05l-0.1,1.7c0,1.233,0.2,2.333,0.6,3.3l0.15,0.3l0.2,0.65
				c0.2,0.534,0.5,1,0.9,1.4c0.467,0.5,1.167,0.867,2.1,1.1c0.4,0.133,1.017,0.233,1.85,0.3c0.5,0,0.966-0.05,1.4-0.15
				c0.066-0.067,0.117-0.083,0.15-0.05c1.2-0.333,2.083-0.717,2.65-1.15l0.1-0.1c0.533-0.433,1.133-0.667,1.8-0.7
				c0.434-0.034,1.083,0.017,1.95,0.15c0.7,0.167,1.1,0.233,1.2,0.2l0.85,0.2c0.4,0.1,1.317,0.45,2.75,1.05l4.15,1.95
				c1.367,0.667,2.4,0.65,3.1-0.05C44.217-30.933,44.717-31.6,45.05-32.3z M41.65-30.45l-0.7-0.15c-0.133,0-0.233-0.033-0.3-0.1
				l-0.45-0.25L40.15-31c-0.233-0.167-0.316-0.3-0.25-0.4c0.1-0.233,0.217-0.383,0.35-0.45c0.2-0.066,0.433-0.066,0.7,0l0.6,0.2
				l0.55,0.35c0.1,0.167,0.133,0.283,0.1,0.35l-0.05,0.1C42.05-30.65,41.883-30.517,41.65-30.45z M27.45-58.95L6.85-54
				c0,1.6,0.05,3.083,0.15,4.45l8.7-2.25h0.05l11.55-2.9L27.45-58.95z"/>
			<path style="fill-rule:evenodd;clip-rule:evenodd;fill:#323232;" d="M41.55-31.65l-0.6-0.2c-0.267-0.066-0.5-0.066-0.7,0
				c-0.1,0.3,0.117,0.583,0.65,0.85c0.567,0.233,0.934,0.2,1.1-0.1l0.05-0.15l0.05-0.05L41.55-31.65z"/>
		</g>
	</g>
	<g id="Layer_4_2_">
	</g>
</symbol>
<symbol  id="FlashAICB_x2F_Layer_1_x2F__x3C_Clip_Group_0_x3E__x5F_0" viewBox="0 -39.25 55.9 39.25">
	<g id="Layer_1_5_">
	</g>
	<g>
		<defs>
			<polygon id="SVGID_4_" points="48.25,0 0,-23.3 7.7,-39.25 55.9,-15.95 			"/>
		</defs>
		<clipPath id="SVGID_5_">
			<use xlink:href="#SVGID_4_"  style="overflow:visible;"/>
		</clipPath>
		<g id="Layer_3_1_" style="clip-path:url(#SVGID_5_);">
			<path style="fill-rule:evenodd;clip-rule:evenodd;fill:#AD653E;" d="M53.35-10.6l0.05-0.1l0.6-1.6c-1.3-0.3-2.467-0.883-3.5-1.75
				c-1.067-1-2.683-1.317-4.85-0.95c-3,0.333-4.783,0.45-5.35,0.35c-1.267-0.233-2.533-0.934-3.8-2.1
				c-1.4-0.867-2.767-1.267-4.1-1.2l-4.95-0.15c-1.867-0.1-2.95-0.333-3.25-0.7c-3.233-1.6-7.25-2.983-12.05-4.15
				C9.583-23.417,7.6-23.833,6.2-24.2c-1.267-0.2-2.2-0.4-2.8-0.6l-0.7-0.15H2.65C1.35-23.917,0.467-23.367,0-23.3l4.85,1.55
				c4.733,1.633,19.783,6.2,45.15,13.7l0.4-0.05c1.1-0.2,2-0.867,2.7-2c-0.7,0.367-1.45,0.517-2.25,0.45
				c-0.667,0-1.75-0.167-3.25-0.5c-0.467-0.133-2-0.417-4.6-0.85c-0.533-0.1-1.35-0.383-2.45-0.85l-0.85-0.4
				c-0.6-0.3-1.317-0.75-2.15-1.35c-0.733-0.533-1.333-0.917-1.8-1.15l-1.15-0.5c-1.967-0.367-2.95-0.517-2.95-0.45
				c-1.933-0.233-3.15-0.417-3.65-0.55c-0.6-0.2-1.217-0.333-1.85-0.4l-1.6-0.25l-4.05-1.55l9.95,2.15l2.4-0.1
				c1.566,0,2.667,0.15,3.3,0.45c0.567,0.267,1.6,0.917,3.1,1.95l0.85,0.45c1.233,0.6,3.25,1.017,6.05,1.25
				c2.8,0.3,4.417,0.533,4.85,0.7l2.1,0.95L53.35-10.6z M52.1-17.8L4.75-27.9c-0.167,0.033-0.2,0.066-0.1,0.1L4.4-26.95
				c1.9,0.434,7.317,1.483,16.25,3.15c11,2.3,22.067,5.283,33.2,8.95l-0.3-0.8C53.217-16.383,52.733-17.1,52.1-17.8z M9-23.1
				c0.733,0.067,1.917,0.417,3.55,1.05c1.133,0.3,2.434,0.716,3.9,1.25l2.875,0.725c-0.794-0.153-1.77-0.262-2.925-0.325
				c-2.066-0.167-3.5-0.35-4.3-0.55l-5.65-1.5c-0.5-0.133-0.784-0.216-0.85-0.25l0.45-0.8L9-23.1z"/>
			<path style="fill-rule:evenodd;clip-rule:evenodd;fill:#754228;" d="M53.1-10.1l0.25-0.5l-0.25-0.05L51-11.6
				c-0.433-0.167-2.05-0.4-4.85-0.7c-2.8-0.233-4.816-0.65-6.05-1.25L39.25-14c-1.5-1.033-2.533-1.683-3.1-1.95
				c-0.633-0.3-1.733-0.45-3.3-0.45l-2.4,0.1l-9.95-2.15l4.05,1.55l1.6,0.25c0.633,0.066,1.25,0.2,1.85,0.4
				c0.5,0.133,1.717,0.317,3.65,0.55c0-0.066,0.983,0.083,2.95,0.45l1.15,0.5c0.833,0.5,1.433,0.883,1.8,1.15
				c0.833,0.6,1.55,1.05,2.15,1.35l0.85,0.4c1.1,0.467,1.917,0.75,2.45,0.85c2.6,0.433,4.133,0.717,4.6,0.85
				c1.5,0.333,2.583,0.5,3.25,0.5C51.65-9.583,52.4-9.733,53.1-10.1z M50.5-14.05c1.033,0.867,2.2,1.45,3.5,1.75
				c0.1-0.967,0.05-1.817-0.15-2.55c-11.133-3.667-22.2-6.65-33.2-8.95C11.717-25.467,6.3-26.517,4.4-26.95l-1.7,2l0.7,0.15
				c0.6,0.2,1.533,0.4,2.8,0.6c2.5,0.567,4.483,0.983,5.95,1.25c4.8,1.167,8.817,2.55,12.05,4.15c0.3,0.367,1.383,0.6,3.25,0.7
				l4.95,0.15c1.333-0.066,2.7,0.333,4.1,1.2c1.267,1.167,2.533,1.867,3.8,2.1c0.534,0.1,2.317-0.017,5.35-0.35
				C47.817-15.367,49.433-15.05,50.5-14.05z M6.45-22.45l5.65,1.5c0.8,0.2,2.233,0.383,4.3,0.55
				c1.156,0.063,2.131,0.171,2.925,0.325L16.45-20.8c-1.467-0.534-2.767-0.95-3.9-1.25C10.917-22.683,9.733-23.033,9-23.1l-2.95-0.4
				L5.6-22.7C5.667-22.667,5.95-22.583,6.45-22.45z"/>
		</g>
	</g>
	<g id="Layer_4_1_">
	</g>
</symbol>
<symbol  id="FlashAICB_x2F_Layer_1_x2F__x3C_Group_x3E_" viewBox="0.025 -52.809 95.76 52.784">
	<g id="Layer_1_4_">
		<g>
			
				<linearGradient id="SVGID_6_" gradientUnits="userSpaceOnUse" x1="14856.2588" y1="1075.0723" x2="14917.2637" y2="1075.0723" gradientTransform="matrix(0.1501 0.9887 -0.9887 0.1501 -1123.9219 -14904.5859)">
				<stop  offset="0" style="stop-color:#24313C"/>
				<stop  offset="0.2196" style="stop-color:#3B4C5C"/>
				<stop  offset="0.702" style="stop-color:#7591AF"/>
				<stop  offset="1" style="stop-color:#9CBEE4"/>
			</linearGradient>
			<path style="fill-rule:evenodd;clip-rule:evenodd;fill:url(#SVGID_6_);" d="M93.85-4.6l0.45-0.9l0.05-0.05l0.05-0.1
				c0.367-0.767,0.684-1.617,0.95-2.55l0.05-0.3c0.267-1.567,0.2-3.1-0.2-4.6l-0.05-0.3l-0.55-1.3c-0.633-1.4-1.4-2.566-2.3-3.5
				c-0.633-0.7-1.5-1.183-2.6-1.45L45.85-29c-0.967-0.7-2.067-1.1-3.3-1.2l-9.85-1.15l-0.1-0.05L32-31.45l-0.25-2.3
				c-0.067-1.6-0.233-3.55-0.5-5.85l0.05-0.9c0-1.133-0.117-2.067-0.35-2.8l-0.05-0.25l-0.05-1.05c0.033-0.5-0.017-0.967-0.15-1.4
				l-0.15-0.7v-0.65c0.1-1.7-0.466-3.05-1.7-4.05c-1.267-1.067-2.7-1.417-4.3-1.05L3.5-47.35c-0.967,0.367-1.75,0.95-2.35,1.75
				c-0.6,0.867-0.9,1.8-0.9,2.8c0,1.667,0.05,3.25,0.15,4.75c0,0.533,0.167,2.767,0.5,6.7c0.2,2.934,0.383,4.967,0.55,6.1
				c0.133,0.967,0.333,1.717,0.6,2.25c0.167,0.433,0.45,0.9,0.85,1.4c0.333,0.4,0.6,0.667,0.8,0.8c0.533,0.466,1.15,0.833,1.85,1.1
				l0.25,0.1c0.833,0.434,2.05,0.7,3.65,0.8l3.7,0.2c0.2,0.333,0.4,0.6,0.6,0.8l0.1,0.1c1.167,1.3,2.767,2.1,4.8,2.4
				c0.7,0.2,1.483,0.267,2.35,0.2l2.1-0.25L24.8-16c1.467-0.433,2.717-0.983,3.75-1.65h0.15l1.55,0.3l0.45,0.05l5.9,2.65
				c1.7,0.833,3.283,1.15,4.75,0.95c6.3,2.034,20.933,6.45,43.9,13.25c0.667,0.2,1.367,0.25,2.1,0.15l0.35-0.05l1.55-0.35
				C91.083-1.333,92.617-2.633,93.85-4.6z"/>
			
				<path style="fill-rule:evenodd;clip-rule:evenodd;fill:none;stroke:#CFDEED;stroke-width:0.25;stroke-linejoin:round;stroke-miterlimit:3;" d="
				M93.85-4.6c-1.233,1.967-2.767,3.267-4.6,3.9L87.7-0.35L87.35-0.3c-0.733,0.1-1.434,0.05-2.1-0.15
				c-22.967-6.8-37.6-11.216-43.9-13.25c-1.467,0.2-3.05-0.117-4.75-0.95l-5.9-2.65l-0.45-0.05l-1.55-0.3h-0.15
				c-1.033,0.667-2.283,1.217-3.75,1.65l-1.7,0.65L21-15.1c-0.867,0.067-1.65,0-2.35-0.2c-2.033-0.3-3.633-1.1-4.8-2.4l-0.1-0.1
				c-0.2-0.2-0.4-0.467-0.6-0.8l-3.7-0.2c-1.6-0.1-2.817-0.367-3.65-0.8l-0.25-0.1c-0.7-0.267-1.316-0.633-1.85-1.1
				c-0.2-0.133-0.467-0.4-0.8-0.8c-0.4-0.5-0.683-0.967-0.85-1.4c-0.267-0.533-0.466-1.283-0.6-2.25
				c-0.167-1.133-0.35-3.167-0.55-6.1c-0.333-3.933-0.5-6.167-0.5-6.7c-0.1-1.5-0.15-3.083-0.15-4.75c0-1,0.3-1.934,0.9-2.8
				c0.6-0.8,1.383-1.383,2.35-1.75l21.05-5.1c1.6-0.367,3.034-0.017,4.3,1.05c1.233,1,1.8,2.35,1.7,4.05v0.65L30.7-46
				c0.133,0.433,0.183,0.9,0.15,1.4l0.05,1.05l0.05,0.25c0.233,0.733,0.35,1.667,0.35,2.8l-0.05,0.9c0.267,2.3,0.433,4.25,0.5,5.85
				l0.25,2.3l0.6,0.05l0.1,0.05l9.85,1.15c1.233,0.1,2.333,0.5,3.3,1.2l43.85,9.35c1.1,0.267,1.966,0.75,2.6,1.45
				c0.9,0.934,1.667,2.1,2.3,3.5l0.55,1.3l0.05,0.3c0.4,1.5,0.466,3.033,0.2,4.6l-0.05,0.3c-0.267,0.934-0.583,1.784-0.95,2.55
				l-0.05,0.1L94.3-5.5L93.85-4.6z"/>
			
				<linearGradient id="SVGID_7_" gradientUnits="userSpaceOnUse" x1="8074.7109" y1="3310.6221" x2="8169.8037" y2="3310.6221" gradientTransform="matrix(0.7071 0.7071 -0.7071 0.7071 -3357.3223 -8106.7075)">
				<stop  offset="0" style="stop-color:#24313C"/>
				<stop  offset="0.2196" style="stop-color:#3B4C5C"/>
				<stop  offset="0.702" style="stop-color:#7591AF"/>
				<stop  offset="1" style="stop-color:#9CBEE4"/>
			</linearGradient>
			<path style="fill-rule:evenodd;clip-rule:evenodd;fill:url(#SVGID_7_);" d="M94.5-5.6c0.467-1,0.783-1.867,0.95-2.6l0.05-0.25
				c0.267-1.6,0.2-3.15-0.2-4.65l-0.05-0.35l-0.55-1.3c-0.6-1.333-1.383-2.5-2.35-3.5c-0.733-0.8-1.6-1.3-2.6-1.5L45.9-29.1
				c-0.933-0.7-2.033-1.117-3.3-1.25l-9.9-1.1l-0.1-0.05l-0.5-0.05l-0.25-2.2c0-1.1-0.167-3.067-0.5-5.9l0.05-0.85
				c0-1.1-0.117-2.05-0.35-2.85L31-43.6v-1c0-0.566-0.067-1.05-0.2-1.45l-0.15-0.65v-0.65c0.167-1.7-0.417-3.083-1.75-4.15
				c-1.133-1-2.45-1.367-3.95-1.1l-0.4,0.05L3.95-47.6L3.5-47.45c-1,0.333-1.8,0.934-2.4,1.8c-0.633,0.867-0.95,1.816-0.95,2.85
				c0,1.7,0.05,3.283,0.15,4.75l0.5,6.7c0.2,3,0.367,5.033,0.5,6.1c0.167,1,0.383,1.767,0.65,2.3c0.233,0.567,0.533,1.034,0.9,1.4
				c0.133,0.233,0.4,0.517,0.8,0.85c0.567,0.5,1.2,0.867,1.9,1.1l0.2,0.1c0.833,0.433,2.067,0.7,3.7,0.8l0.3,0.05l3.3,0.15l0.6,0.75
				l0.1,0.1c1.2,1.3,2.833,2.133,4.9,2.5C19.417-15.017,20.2-14.967,21-15c0.967-0.067,1.667-0.15,2.1-0.25l1.75-0.65
				c1.5-0.434,2.75-1,3.75-1.7l0.1,0.05l1.55,0.3l0.45,0.05l5.85,2.65c1.767,0.833,3.367,1.15,4.8,0.95
				c6.7,2.167,21.333,6.583,43.9,13.25c0.667,0.2,1.367,0.25,2.1,0.15l0.4-0.05L89.3-0.6c1.934-0.733,3.483-2.05,4.65-3.95L94.5-5.6
				z"/>
			
				<path style="fill-rule:evenodd;clip-rule:evenodd;fill:none;stroke:#CFDEED;stroke-width:0.25;stroke-linejoin:round;stroke-miterlimit:3;" d="
				M94.5-5.6c0.467-1,0.783-1.867,0.95-2.6l0.05-0.25c0.267-1.6,0.2-3.15-0.2-4.65l-0.05-0.35l-0.55-1.3
				c-0.6-1.333-1.383-2.5-2.35-3.5c-0.733-0.8-1.6-1.3-2.6-1.5L45.9-29.1c-0.933-0.7-2.033-1.117-3.3-1.25l-9.9-1.1l-0.1-0.05
				l-0.5-0.05l-0.25-2.2c0-1.1-0.167-3.067-0.5-5.9l0.05-0.85c0-1.1-0.117-2.05-0.35-2.85L31-43.6v-1c0-0.566-0.067-1.05-0.2-1.45
				l-0.15-0.65v-0.65c0.167-1.7-0.417-3.083-1.75-4.15c-1.133-1-2.45-1.367-3.95-1.1l-0.4,0.05L3.95-47.6L3.5-47.45
				c-1,0.333-1.8,0.934-2.4,1.8c-0.633,0.867-0.95,1.816-0.95,2.85c0,1.7,0.05,3.283,0.15,4.75l0.5,6.7c0.2,3,0.367,5.033,0.5,6.1
				c0.167,1,0.383,1.767,0.65,2.3c0.233,0.567,0.533,1.034,0.9,1.4c0.133,0.233,0.4,0.517,0.8,0.85c0.567,0.5,1.2,0.867,1.9,1.1
				l0.2,0.1c0.833,0.433,2.067,0.7,3.7,0.8l0.3,0.05l3.3,0.15l0.6,0.75l0.1,0.1c1.2,1.3,2.833,2.133,4.9,2.5
				C19.417-15.017,20.2-14.967,21-15c0.967-0.067,1.667-0.15,2.1-0.25l1.75-0.65c1.5-0.434,2.75-1,3.75-1.7l0.1,0.05l1.55,0.3
				l0.45,0.05l5.85,2.65c1.767,0.833,3.367,1.15,4.8,0.95c6.7,2.167,21.333,6.583,43.9,13.25c0.667,0.2,1.367,0.25,2.1,0.15
				l0.4-0.05L89.3-0.6c1.934-0.733,3.483-2.05,4.65-3.95L94.5-5.6z"/>
		</g>
	</g>
</symbol>
<symbol  id="FlashAICB_x2F_Layer_1_x2F__x3C_Path_x3E_" viewBox="0 -61.85 128.6 61.85">
	<g id="Layer_1_3_">
		
			<radialGradient id="SVGID_8_" cx="64.2998" cy="-30.9248" r="50.4522" gradientTransform="matrix(1 0 0 -1 0 -61.8496)" gradientUnits="userSpaceOnUse">
			<stop  offset="0" style="stop-color:#C5EEE7;stop-opacity:0"/>
			<stop  offset="0.0941" style="stop-color:#BAE7E1;stop-opacity:0.0784"/>
			<stop  offset="0.2549" style="stop-color:#9DD5CF;stop-opacity:0.298"/>
			<stop  offset="0.4667" style="stop-color:#6CB7B2;stop-opacity:0.6471"/>
			<stop  offset="0.651" style="stop-color:#3A9A96"/>
		</radialGradient>
		<path style="fill-rule:evenodd;clip-rule:evenodd;fill:url(#SVGID_8_);" d="M128.05-0.25L128.6,0
			c-0.633-17.233-7.167-31.85-19.6-43.85c-12.467-12-27.383-18-44.75-18c-17.033,0-31.733,5.817-44.1,17.45
			C7.783-32.833,1.067-18.633,0-1.8c4.967-13,13.183-23.5,24.65-31.5c11.7-8.167,24.717-12.25,39.05-12.25
			c14.667,0,27.917,4.25,39.75,12.75C115.05-24.5,123.25-13.65,128.05-0.25z"/>
	</g>
</symbol>
<symbol  id="FlashAICB_x2F_Layer_1_x2F__x3C_Path_x3E__x5F_0" viewBox="0 -66.434 119.2 66.434">
	<g id="Layer_1_7_">
		<path style="fill-rule:evenodd;clip-rule:evenodd;fill:#FFFFFF;" d="M115.4-37.25c2.533-6.1,3.8-11.85,3.8-17.25
			c0-5.367-1.567-8.75-4.7-10.15c-2.533-1.133-6.783-1.117-12.75,0.05c-7.9,1.9-14.217,3.367-18.95,4.4
			c-8.667,1.833-16.4,2.75-23.2,2.75c-6.867,0-14.6-1-23.2-3c-9.033-2.367-15.35-3.966-18.95-4.8c-6-1.367-10.25-1.55-12.75-0.55
			C1.567-64.533,0-61.217,0-55.85c0,5.934,1.267,12.067,3.8,18.4c2.667,6.7,6.434,12.75,11.3,18.15C26.7-6.433,41.533,0,59.6,0
			c17.833,0,32.65-6.5,44.45-19.5C108.883-24.833,112.667-30.75,115.4-37.25z"/>
	</g>
</symbol>
<symbol  id="FlashAICB_x2F_Layer_1_x2F__x3C_Path_x3E__x5F_1" viewBox="0 -128.55 128.8 128.55">
	<g id="Layer_1_2_">
		
			<radialGradient id="SVGID_9_" cx="64.3999" cy="-64.2749" r="64.3374" gradientTransform="matrix(1 0 0 -1 0 -128.5498)" gradientUnits="userSpaceOnUse">
			<stop  offset="0.1412" style="stop-color:#87A5B9"/>
			<stop  offset="0.5569" style="stop-color:#6B83AA;stop-opacity:0.9725"/>
			<stop  offset="1" style="stop-color:#51639C;stop-opacity:0.949"/>
		</radialGradient>
		<path style="fill-rule:evenodd;clip-rule:evenodd;fill:url(#SVGID_9_);" d="M128.8-64.3c0-17.733-6.283-32.883-18.85-45.45
			c-12.6-12.533-27.784-18.8-45.55-18.8c-17.8,0-32.983,6.267-45.55,18.8C6.283-97.217,0-82.067,0-64.3
			c0,17.767,6.283,32.917,18.85,45.45C31.417-6.283,46.6,0,64.4,0c17.767,0,32.95-6.283,45.55-18.85
			C122.517-31.417,128.8-46.567,128.8-64.3z"/>
	</g>
</symbol>
<symbol  id="FlashAICB_x2F_Layer_1_x2F__x3C_Path_x3E__x5F_1_x5F_0" viewBox="0 -60.45 119.2 60.45">
	<g id="Layer_1_6_">
		
			<linearGradient id="SVGID_10_" gradientUnits="userSpaceOnUse" x1="16160.585" y1="-58.4668" x2="16220.9756" y2="-58.4668" gradientTransform="matrix(1.654944e-005 1 -1 -0.001 0.8657 -16221.1064)">
			<stop  offset="0.1294" style="stop-color:#E8B8B3"/>
			<stop  offset="0.9255" style="stop-color:#FFFFFF"/>
		</linearGradient>
		<path style="fill-rule:evenodd;clip-rule:evenodd;fill:url(#SVGID_10_);" d="M104.05-19.5c4.833-5.333,8.617-11.25,11.35-17.75
			c2.533-6.1,3.8-11.85,3.8-17.25c0-1.833-0.184-3.45-0.55-4.85c-2,12-7.85,22.65-17.55,31.95c-11.4,11-25.233,16.5-41.5,16.5
			c-16.533,0-30.45-5.483-41.75-16.45c-9.733-9.433-15.533-20.467-17.4-33.1C0.15-59.15,0-57.617,0-55.85
			c0,5.934,1.267,12.067,3.8,18.4c2.667,6.7,6.434,12.75,11.3,18.15C26.7-6.433,41.533,0,59.6,0C77.433,0,92.25-6.5,104.05-19.5z"/>
	</g>
</symbol>
<g>
	<path style="fill-rule:evenodd;clip-rule:evenodd;fill:#FFFFFF;" d="M119.25,6.75c10.267,4.367,19.366,10.5,27.3,18.4
		c7.9,7.934,14.033,17.033,18.4,27.3c4.5,10.633,6.75,21.767,6.75,33.4c0,11.6-2.25,22.716-6.75,33.35
		c-4.367,10.267-10.5,19.366-18.4,27.3c-7.934,7.934-17.033,14.083-27.3,18.45c-10.634,4.5-21.767,6.75-33.4,6.75
		c-11.633,0-22.766-2.25-33.399-6.75c-10.267-4.367-19.367-10.517-27.3-18.45c-7.9-7.934-14.033-17.033-18.4-27.3
		C2.25,108.566,0,97.45,0,85.85c0-11.633,2.25-22.767,6.75-33.4c4.367-10.267,10.5-19.367,18.4-27.3
		c7.934-7.9,17.033-14.033,27.3-18.4C63.083,2.25,74.217,0,85.85,0C97.483,0,108.616,2.25,119.25,6.75z"/>
	<g>
		<g>
			
				<linearGradient id="SVGID_11_" gradientUnits="userSpaceOnUse" x1="-157.6353" y1="85.876" x2="-14.2354" y2="85.876" gradientTransform="matrix(6.973501e-006 -1 1 -0.001 -1.064519e-004 4.449275e-004)">
				<stop  offset="0.098" style="stop-color:#213654"/>
				<stop  offset="0.3961" style="stop-color:#2C5887"/>
				<stop  offset="0.5529" style="stop-color:#31679C"/>
				<stop  offset="0.9686" style="stop-color:#ABA2B2"/>
			</linearGradient>
			<path style="fill-rule:evenodd;clip-rule:evenodd;fill:url(#SVGID_11_);" d="M136.55,35.15
				c6.601,6.633,11.717,14.233,15.351,22.8c3.767,8.9,5.649,18.2,5.649,27.9c0,9.7-1.883,19-5.649,27.9
				c-3.634,8.566-8.75,16.167-15.351,22.8c-6.633,6.601-14.233,11.717-22.8,15.351c-8.9,3.767-18.2,5.649-27.9,5.649
				c-9.7,0-19-1.883-27.899-5.649c-8.567-3.634-16.15-8.75-22.75-15.351c-6.6-6.633-11.717-14.233-15.35-22.8
				c-3.767-8.9-5.65-18.2-5.65-27.9c0-9.7,1.883-19,5.65-27.9c3.6-8.567,8.717-16.167,15.35-22.8c6.6-6.6,14.183-11.717,22.75-15.35
				c8.9-3.767,18.2-5.65,27.899-5.65c9.7,0,19,1.883,27.9,5.65C122.316,23.433,129.917,28.55,136.55,35.15z"/>
			<path style="fill-rule:evenodd;clip-rule:evenodd;fill:#0E1936;" d="M135.9,35.8C122.1,21.967,105.417,15.05,85.85,15.05
				c-9.6,0-18.783,1.85-27.55,5.55c-8.466,3.6-15.966,8.667-22.5,15.2C21.967,49.633,15.05,66.317,15.05,85.85
				c0,19.567,6.917,36.25,20.75,50.05c6.534,6.533,14.034,11.6,22.5,15.199c8.767,3.7,17.95,5.551,27.55,5.551
				c9.601,0,18.784-1.851,27.551-5.551c8.466-3.6,15.966-8.666,22.5-15.199c6.533-6.534,11.6-14.034,15.199-22.5
				c3.7-8.767,5.551-17.95,5.551-27.55S154.8,67.067,151.1,58.3C147.5,49.833,142.434,42.333,135.9,35.8z M113.65,18.75
				c8.833,3.633,16.683,8.883,23.55,15.75c6.866,6.867,12.116,14.717,15.75,23.55c3.666,8.833,5.5,18.1,5.5,27.8
				c0,9.7-1.834,18.966-5.5,27.8c-3.667,8.833-8.917,16.666-15.75,23.5c-6.867,6.866-14.717,12.133-23.55,15.8
				c-8.834,3.666-18.101,5.5-27.801,5.5c-9.7,0-18.966-1.834-27.8-5.5c-8.867-3.667-16.716-8.934-23.55-15.8
				c-6.833-6.801-12.083-14.634-15.75-23.5c-3.633-8.834-5.45-18.101-5.45-27.8c0-9.7,1.817-18.967,5.45-27.8
				c3.667-8.833,8.917-16.683,15.75-23.55c6.867-6.833,14.717-12.083,23.55-15.75c8.833-3.667,18.1-5.5,27.8-5.5
				C95.55,13.25,104.816,15.083,113.65,18.75z"/>
		</g>
		
			<use xlink:href="#FlashAICB_x2F_Layer_1_x2F__x3C_Path_x3E__x5F_1"  width="128.8" height="128.55" y="-128.55" transform="matrix(1 0 0 -1 21.4502 19.25)" style="overflow:visible;opacity:0.9102;enable-background:new    ;"/>
		<g>
			<g>
				<path style="fill-rule:evenodd;clip-rule:evenodd;fill:#BEC4EC;" d="M93.45,33.9l-8.2,16.65c-0.5,1.034-0.883,1.684-1.15,1.95
					c-0.367,0.367-0.9,0.55-1.6,0.55c-0.833,0-1.517-0.267-2.05-0.8c-0.467-0.467-0.7-0.983-0.7-1.55c0-0.3,0.117-0.684,0.35-1.15
					l8.25-15.65H79.9c-0.833,0-1.467-0.233-1.9-0.7c-0.367-0.434-0.55-0.967-0.55-1.6c0-1.5,0.816-2.25,2.45-2.25h11.95
					c0.767,0,1.384,0.283,1.851,0.85c0.366,0.466,0.55,0.966,0.55,1.5C94.25,32.033,93.983,32.767,93.45,33.9z"/>
			</g>
			<g>
				
					<linearGradient id="SVGID_12_" gradientUnits="userSpaceOnUse" x1="-52.1309" y1="85.8521" x2="-28.4287" y2="85.8521" gradientTransform="matrix(4.214963e-005 -1 1 -0.001 -8.982674e-005 4.458711e-004)">
					<stop  offset="0.2824" style="stop-color:#00102A"/>
					<stop  offset="0.3961" style="stop-color:#00153A"/>
					<stop  offset="0.8039" style="stop-color:#022670"/>
					<stop  offset="1" style="stop-color:#042C84"/>
				</linearGradient>
				<path style="fill-rule:evenodd;clip-rule:evenodd;fill:url(#SVGID_12_);" d="M77.45,30.6c0-1.5,0.816-2.25,2.45-2.25h11.95
					c0.767,0,1.384,0.283,1.851,0.85c0.366,0.466,0.55,0.966,0.55,1.5c0,0.333-0.267,1.066-0.8,2.2l-8.2,16.65
					c-0.5,1.034-0.883,1.684-1.15,1.95c-0.367,0.367-0.9,0.55-1.6,0.55c-0.833,0-1.517-0.267-2.05-0.8
					c-0.467-0.467-0.7-0.983-0.7-1.55c0-0.3,0.117-0.684,0.35-1.15l8.25-15.65H79.9c-0.833,0-1.467-0.233-1.9-0.7
					C77.633,31.767,77.45,31.233,77.45,30.6z"/>
			</g>
		</g>
		
			<use xlink:href="#FlashAICB_x2F_Layer_1_x2F__x3C_Path_x3E_"  width="128.6" height="61.85" y="-61.85" transform="matrix(1 0 0 -1 21.5498 85.9502)" style="overflow:visible;opacity:0.4688;enable-background:new    ;"/>
		<g>
			<path style="fill-rule:evenodd;clip-rule:evenodd;fill:#CFDEED;" d="M46.75,98.4c0.3-0.567,0.6-1.034,0.9-1.4
				c0.1-0.167,0.35-0.45,0.75-0.85c0.533-0.434,1.167-0.784,1.9-1.051l0.2-0.1c0.8-0.434,2.033-0.717,3.7-0.85L57.85,94l0.6-0.8
				l0.1-0.101c1.133-1.267,2.75-2.083,4.85-2.449c0.7-0.167,1.467-0.217,2.3-0.15c0.667,0,1.367,0.083,2.1,0.25l0.6,0.15l1.1,0.5
				c1.667,0.5,2.917,1.05,3.75,1.649l0.2-0.05L75,92.75l0.4-0.1l5.9-2.601c1.667-0.833,3.25-1.149,4.75-0.95
				c6.467-2.1,21.117-6.516,43.95-13.25c0.667-0.2,1.35-0.25,2.05-0.15l0.4,0.05c0.399,0.033,0.899,0.15,1.5,0.35
				c1.899,0.667,3.45,1.967,4.649,3.9l0.551,1.05c0.366,0.767,0.666,1.617,0.899,2.55l0.05,0.25c0.267,1.433,0.217,2.966-0.149,4.6
				l-0.101,0.35l-0.5,1.3c-0.566,1.233-1.35,2.4-2.35,3.5c-0.733,0.733-1.583,1.2-2.55,1.4c-7.101,1.467-21.717,4.6-43.851,9.4
				c-0.933,0.666-2.033,1.066-3.3,1.199l-9.85,1.15l-0.75,0.05c-0.067,1-0.15,1.783-0.25,2.351c0,1.366-0.15,3.316-0.45,5.85v0.5
				l0.05,0.35c0,0.9-0.117,1.851-0.35,2.851l-0.1,0.25V120c0,0.5-0.05,0.967-0.15,1.4L75.3,122.1v0.65
				c0.1,1.634-0.483,2.983-1.75,4.05c-1.267,1.066-2.683,1.384-4.25,0.95l-21.05-5c-0.967-0.333-1.75-0.934-2.35-1.8
				c-0.6-0.834-0.9-1.767-0.9-2.8c-0.033-1.5,0-3.067,0.1-4.7l0.5-6.7c0.2-2.934,0.383-4.967,0.55-6.1
				C46.283,99.684,46.483,98.934,46.75,98.4z"/>
			
				<use xlink:href="#FlashAICB_x2F_Layer_1_x2F__x3C_Group_x3E_"  width="95.76" height="52.784" x="0.025" y="-52.809" transform="matrix(1 0 0 -1 44.8501 74.5498)" style="overflow:visible;opacity:0.9102;enable-background:new    ;"/>
			<path style="fill-rule:evenodd;clip-rule:evenodd;fill:#0E1936;" d="M50.95,98.6l0.2-0.25l0.7-0.35c0.133,0,0.333-0.083,0.6-0.25
				c0.333-0.2,1.033-0.333,2.1-0.4c0.467,0,0.8-0.017,1-0.05l3.2-0.149l0.5,0.149H60l0.45-0.05c0.3-0.934,0.7-1.7,1.2-2.3
				c0.5-0.601,1.383-1,2.65-1.2c0.4-0.1,0.833-0.134,1.3-0.1l1.5,0.199l0.15,0.051l1.05,0.449h0.05c1.367,0.4,2.35,0.834,2.95,1.301
				l0.1,0.05c0.367,0.366,0.817,0.55,1.35,0.55c0.533,0.033,1.1-0.017,1.7-0.15l2.1-0.35l6.65-2.95
				c1.233-0.633,2.283-0.767,3.149-0.399c4.334-1.434,19.301-5.95,44.9-13.55l0.35-0.05l0.4,0.05c1.366,0.233,2.467,1.05,3.3,2.45
				l0.25,0.5l0.05,0.05l0.051,0.1c0.267,0.5,0.483,1.083,0.649,1.75c0.134,0.966,0.101,1.95-0.1,2.95l-0.4,0.949
				c-0.399,0.867-0.934,1.667-1.6,2.4c-0.134,0.134-0.283,0.217-0.45,0.25l-44.95,9.6c-0.366,0.5-0.967,0.817-1.8,0.95l-9.9,1.15
				c-0.533,0-1.033,0.05-1.5,0.149l-1.4-0.05c-0.733-0.033-1.434-0.133-2.1-0.3l-0.25-0.05c0.4,0.399,0.65,0.767,0.75,1.1
				c0.333,0.834,0.333,2.566,0,5.2c0,1.4-0.167,3.333-0.5,5.8l0.05,1.2c0,0.8-0.066,1.4-0.2,1.8c-0.2,0.566-0.284,1.4-0.25,2.5v0.25
				c-0.2,0.667-0.3,1.217-0.3,1.65v1c0.067,0.267-0.033,0.5-0.3,0.7c-0.2,0.199-0.45,0.267-0.75,0.199l-20.6-4.949L49.7,118.1
				c-0.4-0.1-0.6-0.366-0.6-0.8c0-1.6,0.05-3.1,0.15-4.5l0.5-6.55c0.267-4.2,0.517-6.517,0.75-6.95
				C50.567,99.134,50.717,98.9,50.95,98.6z"/>
			
				<use xlink:href="#FlashAICB_x2F_Layer_1_x2F__x3C_Clip_Group_0_x3E_"  width="95.2" height="66" y="-66" transform="matrix(1 0 0 -1 43.1499 63.25)" style="overflow:visible;"/>
		</g>
		<g>
			<g>
				<g>
					<g>
						<g>
							<g>
								<g>
									
										<linearGradient id="SVGID_13_" gradientUnits="userSpaceOnUse" x1="-66.0688" y1="119.8057" x2="-45.0864" y2="119.8057" gradientTransform="matrix(4.767581e-005 -1 1 -0.001 -2.212358e-004 4.439838e-004)">
										<stop  offset="0" style="stop-color:#24313C"/>
										<stop  offset="0.2196" style="stop-color:#3B4C5C"/>
										<stop  offset="0.702" style="stop-color:#7591AF"/>
										<stop  offset="1" style="stop-color:#9CBEE4"/>
									</linearGradient>
									<path style="fill-rule:evenodd;clip-rule:evenodd;fill:url(#SVGID_13_);" d="M127.8,47.45c0.634,0.667,1.05,1.433,1.25,2.3
										c0.2,0.9,0.167,1.783-0.1,2.65l-0.5,1.4l0.899,1.2c0.534,0.733,0.851,1.567,0.95,2.5c0.066,0.9-0.1,1.767-0.5,2.6
										c-0.434,0.8-1.033,1.433-1.8,1.9s-1.6,0.7-2.5,0.7h-1.55l-0.9,1.2c-0.934,1.367-2.233,2.05-3.899,2.05l-0.75-0.05
										c-1.067-0.2-1.95-0.65-2.65-1.35c-0.6-0.6-1-1.267-1.2-2l-0.45-1.4L112.7,60.7c-0.8-0.267-1.467-0.667-2-1.2
										c-0.767-0.8-1.217-1.683-1.351-2.65c-0.133-0.934-0.033-1.817,0.301-2.65c0.366-0.833,0.933-1.517,1.699-2.05l1.2-0.85
										v-1.5c-0.033-0.933,0.184-1.783,0.65-2.55s1.116-1.367,1.95-1.8c0.767-0.4,1.633-0.55,2.6-0.45
										c0.967,0.067,1.783,0.367,2.45,0.9l1.2,0.9l1.449-0.5c0.834-0.267,1.717-0.3,2.65-0.1
										C126.4,46.4,127.167,46.817,127.8,47.45z"/>
									
										<path style="fill-rule:evenodd;clip-rule:evenodd;fill:none;stroke:#CFDEED;stroke-width:0.25;stroke-linejoin:round;stroke-miterlimit:3;" d="
										M127.8,47.45c0.634,0.667,1.05,1.433,1.25,2.3c0.2,0.9,0.167,1.783-0.1,2.65l-0.5,1.4l0.899,1.2
										c0.534,0.733,0.851,1.567,0.95,2.5c0.066,0.9-0.1,1.767-0.5,2.6c-0.434,0.8-1.033,1.433-1.8,1.9s-1.6,0.7-2.5,0.7h-1.55
										l-0.9,1.2c-0.934,1.367-2.233,2.05-3.899,2.05l-0.75-0.05c-1.067-0.2-1.95-0.65-2.65-1.35c-0.6-0.6-1-1.267-1.2-2
										l-0.45-1.4L112.7,60.7c-0.8-0.267-1.467-0.667-2-1.2c-0.767-0.8-1.217-1.683-1.351-2.65
										c-0.133-0.934-0.033-1.817,0.301-2.65c0.366-0.833,0.933-1.517,1.699-2.05l1.2-0.85v-1.5
										c-0.033-0.933,0.184-1.783,0.65-2.55s1.116-1.367,1.95-1.8c0.767-0.4,1.633-0.55,2.6-0.45
										c0.967,0.067,1.783,0.367,2.45,0.9l1.2,0.9l1.449-0.5c0.834-0.267,1.717-0.3,2.65-0.1
										C126.4,46.4,127.167,46.817,127.8,47.45z"/>
								</g>
							</g>
							<path style="fill-rule:evenodd;clip-rule:evenodd;fill:#0E1936;" d="M125.8,49.4c0.601,0.6,0.767,1.3,0.5,2.1l-0.95,2.8
								l1.801,2.35c0.466,0.7,0.517,1.417,0.149,2.15c-0.366,0.767-0.967,1.15-1.8,1.15l-3-0.05l-1.7,2.4
								c-0.467,0.667-1.116,0.95-1.95,0.85c-0.466-0.1-0.85-0.3-1.149-0.6c-0.2-0.167-0.367-0.433-0.5-0.8l-0.9-2.85l-2.8-0.85
								c-0.267-0.1-0.55-0.267-0.85-0.5c-0.301-0.3-0.483-0.683-0.551-1.15c-0.166-0.8,0.117-1.45,0.851-1.95l2.399-1.75l-0.05-2.95
								c0-0.8,0.367-1.417,1.101-1.85c0.8-0.333,1.517-0.267,2.149,0.2l2.4,1.75l2.8-0.95C124.55,48.667,125.233,48.833,125.8,49.4z
								"/>
							<linearGradient id="SVGID_14_" gradientUnits="userSpaceOnUse" x1="125.3408" y1="59.5859" x2="115.6658" y2="49.9109">
								<stop  offset="0.0235" style="stop-color:#808080"/>
								<stop  offset="0.7294" style="stop-color:#E6E6E6"/>
								<stop  offset="1" style="stop-color:#B3B3B3"/>
							</linearGradient>
							<path style="fill-rule:evenodd;clip-rule:evenodd;fill:url(#SVGID_14_);" d="M118,48.85l2.75,2.1l3.3-1.15
								c0.4-0.133,0.767-0.033,1.101,0.3c0.333,0.267,0.416,0.633,0.25,1.1l-1.101,3.25l2.05,2.8
								c0.267,0.333,0.301,0.717,0.101,1.15c-0.167,0.4-0.483,0.6-0.95,0.6l-3.45-0.05l-2,2.8c-0.267,0.367-0.633,0.517-1.1,0.45
								l-0.601-0.3l-0.25-0.45l-1-3.3l-3.3-1c-0.233-0.133-0.383-0.233-0.45-0.3c-0.199-0.2-0.3-0.4-0.3-0.6
								c-0.1-0.4,0.05-0.75,0.45-1.05l2.8-2l-0.05-3.45c0-0.433,0.2-0.767,0.6-1C117.283,48.583,117.667,48.617,118,48.85z"/>
							<path style="fill-rule:evenodd;clip-rule:evenodd;fill:#FFFFFF;" d="M117.5,49.3c-0.4,0.167-0.6,0.483-0.6,0.95l0.05,3.45
								l-2.851,2c-0.333,0.3-0.483,0.65-0.449,1.05l0.149,0.4c-0.233-0.133-0.383-0.233-0.45-0.3c-0.199-0.2-0.3-0.4-0.3-0.6
								c-0.1-0.4,0.05-0.75,0.45-1.05l2.8-2l-0.05-3.45c0-0.433,0.2-0.767,0.6-1c0.434-0.167,0.817-0.133,1.15,0.1l2.75,2.1
								l3.3-1.15c0.4-0.133,0.767-0.033,1.101,0.3l0.149,0.2c-0.233-0.066-0.45-0.05-0.649,0.05l-3.25,1.1l-2.801-2.1
								C118.233,49.117,117.866,49.1,117.5,49.3z"/>
						</g>
					</g>
				</g>
			</g>
			<g>
				<g>
					<g>
						<g>
							<g>
								
									<linearGradient id="SVGID_15_" gradientUnits="userSpaceOnUse" x1="-65.6519" y1="51.6758" x2="-45.0269" y2="51.6758" gradientTransform="matrix(4.848485e-005 -1 1 -0.001 5.396148e-006 -4.842016e-005)">
									<stop  offset="0" style="stop-color:#24313C"/>
									<stop  offset="0.2196" style="stop-color:#3B4C5C"/>
									<stop  offset="0.702" style="stop-color:#7591AF"/>
									<stop  offset="1" style="stop-color:#9CBEE4"/>
								</linearGradient>
								<path style="fill-rule:evenodd;clip-rule:evenodd;fill:url(#SVGID_15_);" d="M43.85,47.45c0.867-0.9,1.95-1.35,3.25-1.35
									c0.566,0,1.066,0.066,1.5,0.2l1.5,0.55l1.25-0.95c0.833-0.633,1.767-0.95,2.8-0.95c0.667,0,1.367,0.167,2.1,0.5
									c0.8,0.4,1.417,0.983,1.85,1.75c0.467,0.733,0.683,1.55,0.65,2.45v1.6l1.3,0.9c1.534,1.1,2.167,2.6,1.9,4.5
									c-0.167,1-0.6,1.85-1.3,2.55c-0.5,0.5-1.133,0.883-1.9,1.15L57.2,60.8l-0.45,1.5c-0.2,0.733-0.583,1.383-1.15,1.95
									c-0.733,0.667-1.583,1.1-2.55,1.3l-0.7,0.05c-1.567,0-2.833-0.65-3.8-1.95l-0.9-1.3H46c-0.867,0-1.683-0.217-2.45-0.65
									c-0.733-0.467-1.3-1.083-1.7-1.85c-0.4-0.8-0.567-1.633-0.5-2.5c0.1-0.867,0.417-1.667,0.95-2.4l0.95-1.25l-0.55-1.55
									c-0.267-0.833-0.3-1.667-0.1-2.5C42.8,48.783,43.217,48.05,43.85,47.45z"/>
								
									<path style="fill-rule:evenodd;clip-rule:evenodd;fill:none;stroke:#CFDEED;stroke-width:0.25;stroke-linejoin:round;stroke-miterlimit:3;" d="
									M43.85,47.45c-0.633,0.6-1.05,1.333-1.25,2.2c-0.2,0.833-0.167,1.667,0.1,2.5l0.55,1.55l-0.95,1.25
									c-0.533,0.733-0.85,1.533-0.95,2.4c-0.067,0.867,0.1,1.7,0.5,2.5c0.4,0.767,0.967,1.383,1.7,1.85
									c0.767,0.433,1.583,0.65,2.45,0.65h1.65l0.9,1.3c0.967,1.3,2.233,1.95,3.8,1.95l0.7-0.05c0.967-0.2,1.817-0.633,2.55-1.3
									c0.566-0.567,0.95-1.217,1.15-1.95l0.45-1.5l1.55-0.45c0.767-0.267,1.4-0.65,1.9-1.15c0.7-0.7,1.133-1.55,1.3-2.55
									c0.267-1.9-0.367-3.4-1.9-4.5l-1.3-0.9v-1.6c0.033-0.9-0.183-1.717-0.65-2.45c-0.434-0.767-1.05-1.35-1.85-1.75
									c-0.733-0.333-1.433-0.5-2.1-0.5c-1.033,0-1.967,0.316-2.8,0.95l-1.25,0.95l-1.5-0.55c-0.434-0.133-0.934-0.2-1.5-0.2
									C45.8,46.1,44.717,46.55,43.85,47.45z"/>
							</g>
							<path style="fill-rule:evenodd;clip-rule:evenodd;fill:#0E1936;" d="M45.65,49.25c0.6-0.6,1.3-0.767,2.1-0.5l2.8,0.95
								l2.4-1.75c0.267-0.233,0.6-0.367,1-0.4c0.4-0.033,0.767,0.034,1.1,0.2c0.767,0.4,1.15,1.017,1.15,1.85l-0.05,2.95l2.4,1.7
								c0.667,0.467,0.95,1.133,0.85,2c-0.033,0.433-0.233,0.8-0.6,1.1c-0.2,0.267-0.466,0.45-0.8,0.55l-2.85,0.85l-0.85,2.8
								c-0.1,0.333-0.267,0.617-0.5,0.85c-0.3,0.3-0.683,0.5-1.15,0.6c-0.833,0.1-1.5-0.183-2-0.85l-1.7-2.4H46
								c-0.867,0-1.483-0.367-1.85-1.1s-0.3-1.45,0.2-2.15l1.75-2.35l-0.95-2.8C44.883,50.55,45.05,49.85,45.65,49.25z"/>
							
								<linearGradient id="SVGID_16_" gradientUnits="userSpaceOnUse" x1="-9.3516" y1="74.6538" x2="4.331" y2="74.6538" gradientTransform="matrix(0.7071 -0.7071 0.7071 0.7071 2.749562e-004 -7.039309e-005)">
								<stop  offset="0.0235" style="stop-color:#808080"/>
								<stop  offset="0.7294" style="stop-color:#E6E6E6"/>
								<stop  offset="1" style="stop-color:#B3B3B3"/>
							</linearGradient>
							<path style="fill-rule:evenodd;clip-rule:evenodd;fill:url(#SVGID_16_);" d="M53.5,48.7c0.367-0.267,0.75-0.3,1.15-0.1
								c0.4,0.233,0.6,0.566,0.6,1l-0.05,3.45l2.8,2c0.367,0.267,0.517,0.617,0.45,1.05c-0.034,0.267-0.133,0.467-0.3,0.6
								l-0.45,0.25L54.4,58l-1,3.3l-0.3,0.45c-0.133,0.167-0.333,0.267-0.6,0.3c-0.433,0.067-0.783-0.083-1.05-0.45l-2-2.8H46
								c-0.433,0.067-0.767-0.117-1-0.55c-0.167-0.467-0.133-0.85,0.1-1.15l2.1-2.8l-1.15-3.25c-0.1-0.466,0-0.833,0.3-1.1
								c0.3-0.3,0.667-0.4,1.1-0.3l3.25,1.1L53.5,48.7z"/>
							<path style="fill-rule:evenodd;clip-rule:evenodd;fill:#FFFFFF;" d="M54,49.1c-0.433-0.167-0.817-0.133-1.15,0.1l-2.75,2.1
								l-3.3-1.1c-0.167-0.1-0.367-0.117-0.6-0.05c0.033-0.1,0.083-0.167,0.15-0.2c0.3-0.3,0.667-0.4,1.1-0.3l3.25,1.1l2.8-2.05
								c0.367-0.267,0.75-0.3,1.15-0.1c0.4,0.233,0.6,0.566,0.6,1l-0.05,3.45l2.8,2c0.367,0.267,0.517,0.617,0.45,1.05
								c-0.034,0.267-0.133,0.467-0.3,0.6l-0.45,0.25l0.1-0.35c0.1-0.4-0.05-0.75-0.45-1.05l-2.8-2l0.05-3.45
								C54.6,49.667,54.4,49.333,54,49.1z"/>
						</g>
					</g>
				</g>
			</g>
		</g>
		<g>
			
				<use xlink:href="#FlashAICB_x2F_Layer_1_x2F__x3C_Path_x3E__x5F_1_x5F_0"  width="119.2" height="60.45" y="-60.45" transform="matrix(1 0 0 -1 26.25 22.2002)" style="overflow:visible;opacity:0.1992;enable-background:new    ;"/>
			
				<use xlink:href="#FlashAICB_x2F_Layer_1_x2F__x3C_Path_x3E__x5F_0"  width="119.2" height="66.434" y="-66.434" transform="matrix(1 0 0 -1 26.25 22.2002)" style="overflow:visible;opacity:0.1211;enable-background:new    ;"/>
		</g>
	</g>
</g>
</svg>
