<?xml version="1.0" encoding="iso-8859-1"?>
<!-- Generator: Adobe Illustrator 15.1.0, SVG Export Plug-In . SVG Version: 6.00 Build 0)  -->
<!DOCTYPE svg PUBLIC "-//W3C//DTD SVG 1.1//EN" "http://www.w3.org/Graphics/SVG/1.1/DTD/svg11.dtd">
<svg version="1.1" xmlns="http://www.w3.org/2000/svg" xmlns:xlink="http://www.w3.org/1999/xlink" x="0px" y="0px" width="172.4px"
	 height="172.4px" viewBox="0 0 172.4 172.4" style="enable-background:new 0 0 172.4 172.4;" xml:space="preserve">
<symbol  id="BG_x2F_bg_red" viewBox="0 -134 134 134">
	<g id="Layer_1_14_">
		<g>
			<g>
				
					<linearGradient id="SVGID_1_" gradientUnits="userSpaceOnUse" x1="16085.8398" y1="-65.9141" x2="16218.1895" y2="-65.9141" gradientTransform="matrix(7.555724e-006 1 -1 -0.001 0.939 -16219.1055)">
					<stop  offset="0.0353" style="stop-color:#67372B"/>
					<stop  offset="0.5843" style="stop-color:#CF7167"/>
					<stop  offset="1" style="stop-color:#D3B574"/>
				</linearGradient>
				<path style="fill-rule:evenodd;clip-rule:evenodd;fill:url(#SVGID_1_);" d="M20.2-20.25C33.133-7.316,48.733-0.85,67-0.85
					s33.85-6.467,46.75-19.4c12.933-12.933,19.4-28.517,19.4-46.75c0-18.267-6.467-33.866-19.4-46.8
					c-12.934-12.934-28.517-19.4-46.75-19.4c-18.267,0-33.867,6.466-46.8,19.4C7.267-100.866,0.8-85.267,0.8-67
					C0.8-48.767,7.267-33.183,20.2-20.25z"/>
				<path style="fill-rule:evenodd;clip-rule:evenodd;fill:#561E1C;" d="M20.8-20.8C8.033-33.566,1.65-48.966,1.65-67
					c0-18.066,6.383-33.466,19.15-46.2c12.767-12.767,28.167-19.15,46.2-19.15c18.066,0,33.466,6.383,46.2,19.15
					c12.767,12.733,19.15,28.133,19.15,46.2c0,18.034-6.383,33.434-19.15,46.2C100.466-8.033,85.066-1.65,67-1.65
					C48.966-1.65,33.566-8.033,20.8-20.8z M5.05-41.35c3.367,8.133,8.217,15.366,14.55,21.7C25.933-13.316,33.183-8.466,41.35-5.1
					C49.517-1.7,58.066,0,67,0c8.933,0,17.483-1.7,25.65-5.1c8.133-3.367,15.383-8.217,21.75-14.55
					c6.333-6.333,11.183-13.566,14.55-21.7C132.316-49.483,134-58.033,134-67c0-8.966-1.684-17.517-5.05-25.65
					c-3.367-8.167-8.216-15.417-14.55-21.75c-6.367-6.333-13.617-11.183-21.75-14.55C84.483-132.316,75.933-134,67-134
					c-8.967,0-17.517,1.684-25.65,5.05c-8.167,3.367-15.417,8.216-21.75,14.55c-6.333,6.333-11.183,13.583-14.55,21.75
					C1.683-84.517,0-75.966,0-67C0-58.033,1.683-49.483,5.05-41.35z"/>
			</g>
			
				<use xlink:href="#zzz_x5F_miscellaneous_x2F_FlashAICB_copy_2_x2F_Layer_1_x2F__x3C_Path_x3E_"  width="118.9" height="118.65" y="-118.65" transform="matrix(1 0 0 1 7.5498 -5.5498)" style="overflow:visible;opacity:0.9102;enable-background:new    ;"/>
		</g>
	</g>
</symbol>
<symbol  id="Decorations_x2F_stars" viewBox="-177.3 -73.2 132.35 132.4">
	<g id="Layer_2_2_">
		<g>
			<path style="fill-rule:evenodd;clip-rule:evenodd;fill:#FFFFFF;fill-opacity:0;" d="M-111.1,59.2
				c18.233,0,33.816-6.467,46.75-19.4c12.934-12.933,19.4-28.533,19.4-46.8s-6.466-33.867-19.4-46.8
				c-12.933-12.934-28.516-19.4-46.75-19.4c-18.267,0-33.867,6.467-46.801,19.4C-170.833-40.867-177.3-25.267-177.3-7
				s6.467,33.867,19.399,46.8C-144.967,52.733-129.366,59.2-111.1,59.2z"/>
		</g>
	</g>
	<g id="Layer_1_15_">
		<path style="fill-rule:evenodd;clip-rule:evenodd;fill-opacity:0.8784;" d="M-156.25,25.5c-0.233-0.233-0.316-0.533-0.25-0.9
			l0.8-2.75l-1.75-2.2c-0.233-0.233-0.283-0.55-0.149-0.95c0.166-0.333,0.433-0.5,0.8-0.5l2.85-0.05l1.55-2.4
			c0.167-0.333,0.45-0.467,0.851-0.4c0.166,0,0.333,0.083,0.5,0.25c0.1,0.066,0.184,0.183,0.25,0.35l0.899,2.65l2.75,0.75l0.4,0.2
			c0.1,0.067,0.184,0.233,0.25,0.5c0.1,0.333,0,0.617-0.3,0.85l-2.25,1.75l0.149,2.8c0,0.4-0.149,0.683-0.449,0.85
			c-0.367,0.167-0.684,0.15-0.95-0.05l-2.351-1.6l-2.649,1C-155.6,25.817-155.917,25.767-156.25,25.5z M-156.75,26.05
			c0.467,0.467,1.05,0.583,1.75,0.35l2.25-0.85l2,1.35c0.566,0.4,1.15,0.417,1.75,0.05c0.634-0.333,0.917-0.833,0.85-1.5l-0.1-2.45
			l1.9-1.45c0.533-0.433,0.75-0.983,0.649-1.65c-0.1-0.4-0.283-0.717-0.55-0.95c-0.267-0.2-0.5-0.317-0.7-0.35l-2.3-0.65l-0.85-2.25
			c-0.034-0.2-0.184-0.434-0.45-0.7c-0.233-0.267-0.533-0.417-0.9-0.45c-0.733-0.066-1.267,0.184-1.6,0.75l-1.351,2.05l-2.449,0.05
			c-0.667,0.067-1.15,0.4-1.45,1c-0.267,0.667-0.184,1.25,0.25,1.75l1.5,1.9l-0.7,2.3C-157.417,25.05-157.25,25.617-156.75,26.05z
			 M-71.85,26.3c-0.3-0.167-0.45-0.45-0.45-0.85l0.15-2.8l-2.25-1.75c-0.3-0.233-0.417-0.517-0.35-0.85
			c0.067-0.233,0.167-0.4,0.3-0.5l0.35-0.2l2.75-0.75l0.95-2.65c0.066-0.167,0.15-0.284,0.25-0.35c0.167-0.167,0.333-0.25,0.5-0.25
			c0.367-0.067,0.65,0.066,0.85,0.4l1.55,2.4l2.85,0.05c0.333,0,0.583,0.167,0.75,0.5c0.167,0.367,0.133,0.683-0.1,0.95l-1.8,2.2
			l0.8,2.75c0.1,0.333,0.017,0.633-0.25,0.9c-0.3,0.233-0.6,0.283-0.9,0.15l-2.65-1l-2.35,1.6C-71.2,26.45-71.517,26.467-71.85,26.3
			z M-72.25,26.95c0.6,0.367,1.2,0.35,1.8-0.05l2-1.35l2.25,0.85c0.7,0.233,1.284,0.117,1.75-0.35c0.534-0.466,0.684-1.033,0.45-1.7
			l-0.65-2.3l1.5-1.9c0.433-0.566,0.5-1.15,0.2-1.75c-0.267-0.6-0.75-0.933-1.45-1l-2.45-0.05l-1.3-2.05
			c-0.4-0.566-0.934-0.816-1.6-0.75c-0.4,0.067-0.717,0.217-0.95,0.45c-0.2,0.2-0.35,0.433-0.45,0.7l-0.8,2.25l-2.35,0.65
			c-0.2,0.033-0.434,0.15-0.7,0.35c-0.233,0.233-0.4,0.55-0.5,0.95c-0.1,0.7,0.117,1.25,0.65,1.65l1.9,1.45l-0.15,2.45
			C-73.1,26.15-72.817,26.65-72.25,26.95z"/>
		<path style="fill-rule:evenodd;clip-rule:evenodd;fill:#FFFFFF;fill-opacity:0.8;" d="M-159.25,25.85c-0.2-0.7-0.2-1.383,0-2.05
			l0.4-1.3l-0.851-1.05c-0.967-1.2-1.133-2.517-0.5-3.95c0.3-0.633,0.75-1.15,1.351-1.55c0.6-0.367,1.25-0.567,1.949-0.6l1.351-0.05
			l0.75-1.1c0.267-0.5,0.717-0.917,1.35-1.25V12.9c0.533-0.267,1.084-0.4,1.65-0.4h0.6c0.767,0.1,1.467,0.417,2.101,0.95
			c0.5,0.466,0.833,0.983,1,1.55l0.399,1.25l1.3,0.3c0.634,0.2,1.167,0.5,1.601,0.9c0.6,0.566,0.967,1.233,1.1,2
			c0.3,1.533-0.166,2.783-1.399,3.75l-1.051,0.8l0.101,1.3c0.066,1.6-0.566,2.767-1.9,3.5l-0.1,0.05
			c-0.533,0.267-1.066,0.4-1.601,0.4c-0.833,0.033-1.6-0.183-2.3-0.65l-1.1-0.75l-1.25,0.5c-0.233,0.1-0.617,0.183-1.15,0.25
			c-1.033,0.066-1.934-0.267-2.7-1C-158.684,27.133-159.05,26.55-159.25,25.85z M-158.35,27.8c0.8,0.767,1.767,1.117,2.899,1.05
			c0.566-0.067,0.983-0.15,1.25-0.25l1.15-0.45l0.95,0.65c0.733,0.534,1.55,0.767,2.449,0.7c0.634,0,1.217-0.15,1.75-0.45
			l0.051-0.05c1.466-0.833,2.149-2.067,2.05-3.7l-0.05-1.2l0.899-0.7c1.334-1,1.834-2.333,1.5-4c-0.166-0.833-0.566-1.55-1.2-2.15
			c-0.5-0.467-1.066-0.767-1.699-0.9L-147.5,16l-0.4-1.1c-0.199-0.633-0.55-1.167-1.05-1.6c-0.6-0.6-1.35-0.95-2.25-1.05l-0.45-0.05
			l-0.149,0.05c-0.634,0-1.2,0.15-1.7,0.45h-0.05c-0.533,0.267-1.033,0.716-1.5,1.35l-0.65,1l-1.2,0.05
			c-0.767,0.033-1.466,0.25-2.1,0.65c-0.634,0.433-1.1,0.983-1.4,1.65c-0.333,0.7-0.449,1.434-0.35,2.2s0.384,1.433,0.85,2
			l0.75,0.95l-0.3,1.15c-0.233,0.733-0.25,1.466-0.05,2.2S-158.917,27.267-158.35,27.8z M-73.3,29.05c0.566,0.3,1.15,0.45,1.75,0.45
			c0.867,0.067,1.667-0.167,2.4-0.7l1-0.65l1.1,0.45c0.333,0.1,0.767,0.183,1.3,0.25c1.1,0.066,2.05-0.283,2.85-1.05
			c0.566-0.533,0.967-1.167,1.2-1.9c0.2-0.733,0.184-1.467-0.05-2.2l-0.35-1.15l0.75-0.95c0.5-0.567,0.8-1.233,0.9-2
			c0.1-0.767-0.017-1.5-0.35-2.2c-0.7-1.467-1.867-2.233-3.5-2.3l-1.25-0.05l-0.65-1c-0.4-0.6-0.883-1.05-1.45-1.35h-0.05
			c-0.5-0.3-1.066-0.45-1.7-0.45l-0.15-0.05l-0.5,0.05c-0.867,0.1-1.6,0.45-2.2,1.05c-0.533,0.5-0.9,1.034-1.1,1.6l-0.4,1.1
			l-1.15,0.35c-0.667,0.167-1.217,0.467-1.65,0.9c-0.6,0.567-1.017,1.283-1.25,2.15c-0.3,1.633,0.2,2.967,1.5,4l0.95,0.7l-0.05,1.2
			c-0.1,1.633,0.583,2.867,2.05,3.7L-73.3,29.05z M-73.2,28.85l-0.05-0.05c-0.633-0.367-1.117-0.85-1.45-1.45
			c-0.333-0.633-0.483-1.317-0.45-2.05l0.05-1.3l-1.05-0.8c-1.2-0.934-1.667-2.184-1.4-3.75c0.167-0.767,0.55-1.434,1.15-2
			c0.433-0.4,0.967-0.7,1.6-0.9l1.25-0.3L-73.1,15c0.2-0.567,0.533-1.083,1-1.55c0.633-0.534,1.333-0.85,2.1-0.95h0.6
			c0.533,0,1.066,0.133,1.6,0.4l0.05,0.05c0.567,0.3,1.017,0.716,1.35,1.25l0.75,1.1l1.35,0.05c0.7,0.033,1.35,0.233,1.95,0.6
			c0.6,0.4,1.033,0.917,1.3,1.55c0.667,1.467,0.5,2.783-0.5,3.95l-0.8,1.05l0.35,1.3c0.2,0.667,0.2,1.35,0,2.05
			c-0.167,0.7-0.517,1.283-1.05,1.75c-0.767,0.733-1.667,1.066-2.7,1c-0.533-0.067-0.933-0.15-1.2-0.25l-1.25-0.5l-1.1,0.75
			c-0.567,0.433-1.267,0.65-2.1,0.65h-0.15C-72.117,29.25-72.667,29.117-73.2,28.85z"/>
		
			<linearGradient id="SVGID_2_" gradientUnits="userSpaceOnUse" x1="11379.0391" y1="3006.5996" x2="11395.8711" y2="3006.5996" gradientTransform="matrix(0.4708 0.8822 -0.8822 0.4708 -2860.9336 -11440.3623)">
			<stop  offset="0.0745" style="stop-color:#000000;stop-opacity:0.5294"/>
			<stop  offset="0.9647" style="stop-color:#000000;stop-opacity:0.102"/>
		</linearGradient>
		<path style="fill-rule:evenodd;clip-rule:evenodd;fill:url(#SVGID_2_);" d="M-159.25,25.85c0.2,0.7,0.566,1.283,1.1,1.75
			c0.767,0.733,1.667,1.066,2.7,1c0.533-0.067,0.917-0.15,1.15-0.25l1.25-0.5l1.1,0.75c0.7,0.467,1.467,0.683,2.3,0.65
			c0.534,0,1.067-0.133,1.601-0.4l0.1-0.05c1.334-0.733,1.967-1.9,1.9-3.5l-0.101-1.3l1.051-0.8c1.233-0.967,1.699-2.217,1.399-3.75
			c-0.133-0.767-0.5-1.434-1.1-2c-0.434-0.4-0.967-0.7-1.601-0.9l-1.3-0.3L-148.1,15c-0.167-0.567-0.5-1.083-1-1.55
			c-0.634-0.534-1.334-0.85-2.101-0.95h-0.6c-0.566,0-1.117,0.133-1.65,0.4v0.05c-0.633,0.333-1.083,0.75-1.35,1.25l-0.75,1.1
			l-1.351,0.05c-0.699,0.033-1.35,0.233-1.949,0.6c-0.601,0.4-1.051,0.917-1.351,1.55c-0.633,1.433-0.467,2.75,0.5,3.95l0.851,1.05
			l-0.4,1.3C-159.45,24.467-159.45,25.15-159.25,25.85z M-156.75,26.05c-0.5-0.433-0.667-1-0.5-1.7l0.7-2.3l-1.5-1.9
			c-0.434-0.5-0.517-1.083-0.25-1.75c0.3-0.6,0.783-0.933,1.45-1l2.449-0.05l1.351-2.05c0.333-0.566,0.866-0.816,1.6-0.75
			c0.367,0.034,0.667,0.184,0.9,0.45c0.267,0.267,0.416,0.5,0.45,0.7l0.85,2.25l2.3,0.65c0.2,0.033,0.434,0.15,0.7,0.35
			c0.267,0.233,0.45,0.55,0.55,0.95c0.101,0.667-0.116,1.217-0.649,1.65l-1.9,1.45l0.1,2.45c0.067,0.667-0.216,1.167-0.85,1.5
			c-0.6,0.367-1.184,0.35-1.75-0.05l-2-1.35L-155,26.4C-155.7,26.633-156.283,26.517-156.75,26.05z"/>
		
			<linearGradient id="SVGID_3_" gradientUnits="userSpaceOnUse" x1="19384.3086" y1="-5758.4512" x2="19399.2852" y2="-5758.4512" gradientTransform="matrix(-0.5508 0.8346 -0.8346 -0.5508 5806.6187 -19334.9199)">
			<stop  offset="0.0745" style="stop-color:#000000;stop-opacity:0.5294"/>
			<stop  offset="0.9647" style="stop-color:#000000;stop-opacity:0.102"/>
		</linearGradient>
		<path style="fill-rule:evenodd;clip-rule:evenodd;fill:url(#SVGID_3_);" d="M-73.2,28.85c0.534,0.267,1.083,0.4,1.65,0.4h0.15
			c0.833,0,1.533-0.217,2.1-0.65l1.1-0.75l1.25,0.5c0.267,0.1,0.667,0.183,1.2,0.25c1.033,0.066,1.933-0.267,2.7-1
			c0.533-0.467,0.883-1.05,1.05-1.75c0.2-0.7,0.2-1.383,0-2.05l-0.35-1.3l0.8-1.05c1-1.167,1.167-2.483,0.5-3.95
			c-0.267-0.633-0.7-1.15-1.3-1.55c-0.6-0.367-1.25-0.567-1.95-0.6l-1.35-0.05l-0.75-1.1c-0.333-0.534-0.783-0.95-1.35-1.25
			l-0.05-0.05c-0.534-0.267-1.067-0.4-1.6-0.4H-70c-0.767,0.1-1.467,0.417-2.1,0.95c-0.467,0.466-0.8,0.983-1,1.55l-0.45,1.25
			l-1.25,0.3c-0.633,0.2-1.167,0.5-1.6,0.9c-0.6,0.566-0.983,1.233-1.15,2c-0.267,1.566,0.2,2.816,1.4,3.75l1.05,0.8l-0.05,1.3
			c-0.033,0.733,0.117,1.417,0.45,2.05c0.333,0.6,0.817,1.083,1.45,1.45L-73.2,28.85z M-72.25,26.95c-0.567-0.3-0.85-0.8-0.85-1.5
			l0.15-2.45l-1.9-1.45c-0.533-0.4-0.75-0.95-0.65-1.65c0.1-0.4,0.267-0.717,0.5-0.95c0.267-0.2,0.5-0.317,0.7-0.35l2.35-0.65
			l0.8-2.25c0.1-0.267,0.25-0.5,0.45-0.7c0.233-0.233,0.55-0.383,0.95-0.45c0.667-0.066,1.2,0.184,1.6,0.75l1.3,2.05l2.45,0.05
			c0.7,0.067,1.183,0.4,1.45,1c0.3,0.6,0.233,1.184-0.2,1.75l-1.5,1.9l0.65,2.3c0.233,0.667,0.083,1.233-0.45,1.7
			c-0.466,0.467-1.05,0.583-1.75,0.35l-2.25-0.85l-2,1.35C-71.05,27.3-71.65,27.317-72.25,26.95z"/>
		
			<use xlink:href="#zzz_x5F_miscellaneous_x2F_stars1"  width="94.127" height="11.08" x="-0.023" y="-11.067" transform="matrix(1 0 0 1 -157.6504 26.3999)" style="overflow:visible;"/>
	</g>
</symbol>
<symbol  id="Frames_x2F_level_09" viewBox="0 -171.4 171.45 171.4">
	<g id="Layer_1_13_">
		<g>
			<path style="fill-rule:evenodd;clip-rule:evenodd;fill:#6B757B;" d="M85.75,0c11.6,0,22.7-2.25,33.3-6.75
				c10.267-4.333,19.35-10.466,27.25-18.4c7.933-7.9,14.067-16.983,18.4-27.25c4.5-10.6,6.75-21.7,6.75-33.3s-2.25-22.7-6.75-33.3
				c-4.333-10.267-10.467-19.35-18.4-27.25c-7.9-7.933-16.983-14.066-27.25-18.4c-10.6-4.5-21.7-6.75-33.3-6.75
				c-11.6,0-22.716,2.25-33.35,6.75c-10.267,4.333-19.35,10.467-27.25,18.4c-7.934,7.9-14.067,16.983-18.4,27.25
				C2.25-108.4,0-97.3,0-85.7S2.25-63,6.75-52.4c4.333,10.267,10.467,19.35,18.4,27.25c7.9,7.934,16.983,14.067,27.25,18.4
				C63.034-2.25,74.15,0,85.75,0z"/>
			
				<linearGradient id="SVGID_4_" gradientUnits="userSpaceOnUse" x1="16047.6211" y1="-84.6782" x2="16219.0205" y2="-84.6782" gradientTransform="matrix(5.834306e-006 1 -1 -0.001 0.9526 -16219.1055)">
				<stop  offset="0.0235" style="stop-color:#000000"/>
				<stop  offset="0.5765" style="stop-color:#545454"/>
				<stop  offset="0.6392" style="stop-color:#909090"/>
				<stop  offset="0.6902" style="stop-color:#BDBDBD"/>
				<stop  offset="0.7176" style="stop-color:#CECECE"/>
				<stop  offset="0.851" style="stop-color:#2D2D2D"/>
			</linearGradient>
			<path style="fill-rule:evenodd;clip-rule:evenodd;fill:url(#SVGID_4_);" d="M85.75,0c11.6,0,22.7-2.25,33.3-6.75
				c10.267-4.333,19.35-10.466,27.25-18.4c7.933-7.9,14.067-16.983,18.4-27.25c4.5-10.6,6.75-21.7,6.75-33.3s-2.25-22.7-6.75-33.3
				c-4.333-10.267-10.467-19.35-18.4-27.25c-7.9-7.933-16.983-14.066-27.25-18.4c-10.6-4.5-21.7-6.75-33.3-6.75
				c-11.6,0-22.716,2.25-33.35,6.75c-10.267,4.333-19.35,10.467-27.25,18.4c-7.934,7.9-14.067,16.983-18.4,27.25
				C2.25-108.4,0-97.3,0-85.7S2.25-63,6.75-52.4c4.333,10.267,10.467,19.35,18.4,27.25c7.9,7.934,16.983,14.067,27.25,18.4
				C63.034-2.25,74.15,0,85.75,0z"/>
			<g>
				<g>
					
						<linearGradient id="SVGID_5_" gradientUnits="userSpaceOnUse" x1="16060.9707" y1="-84.6694" x2="16205.6709" y2="-84.6694" gradientTransform="matrix(6.909656e-006 1 -1 -0.001 0.9438 -16219.1055)">
						<stop  offset="0" style="stop-color:#595959"/>
						<stop  offset="1" style="stop-color:#000000"/>
					</linearGradient>
					<path style="fill-rule:evenodd;clip-rule:evenodd;fill:url(#SVGID_5_);" d="M113.9-19.05c8.667-3.667,16.333-8.833,23-15.5
						c6.667-6.667,11.833-14.333,15.5-23c3.8-8.967,5.7-18.35,5.7-28.15c0-9.833-1.9-19.233-5.7-28.2
						c-3.667-8.633-8.833-16.3-15.5-23c-6.667-6.667-14.333-11.816-23-15.45c-8.967-3.8-18.35-5.7-28.15-5.7
						c-9.833,0-19.233,1.9-28.2,5.7c-8.667,3.633-16.333,8.783-23,15.45c-6.667,6.7-11.833,14.367-15.5,23
						c-3.8,8.967-5.7,18.367-5.7,28.2c0,9.8,1.9,19.183,5.7,28.15c3.667,8.667,8.833,16.333,15.5,23s14.333,11.833,23,15.5
						c8.966,3.8,18.367,5.7,28.2,5.7C95.55-13.35,104.934-15.25,113.9-19.05z"/>
				</g>
			</g>
			
				<use xlink:href="#zzz_x5F_miscellaneous_x2F_FlashAICB_x5F_1_x2F_Layer_14_x2F__x3C_Path_x3E_"  width="118.45" height="57" y="-57" transform="matrix(1 0 0 1 26.5 -85.75)" style="overflow:visible;opacity:0.3398;enable-background:new    ;"/>
			<g>
				
					<linearGradient id="SVGID_6_" gradientUnits="userSpaceOnUse" x1="16066.9707" y1="-84.6641" x2="16198.5205" y2="-84.6641" gradientTransform="matrix(7.601673e-006 1 -1 -0.001 0.9385 -16219.1055)">
					<stop  offset="0.0745" style="stop-color:#000000"/>
					<stop  offset="0.2118" style="stop-color:#191919"/>
					<stop  offset="0.4784" style="stop-color:#545454"/>
					<stop  offset="0.9216" style="stop-color:#7D908A"/>
				</linearGradient>
				<path style="fill-rule:evenodd;clip-rule:evenodd;fill:url(#SVGID_6_);" d="M39.25-39.8c12.867,12.867,28.367,19.3,46.5,19.3
					c18.134,0,33.617-6.433,46.45-19.3c12.867-12.833,19.3-28.317,19.3-46.45s-6.433-33.633-19.3-46.5
					c-12.833-12.867-28.316-19.3-46.45-19.3c-18.167,0-33.667,6.433-46.5,19.3c-12.866,12.833-19.3,28.333-19.3,46.5
					C19.95-68.117,26.384-52.633,39.25-39.8z"/>
			</g>
		</g>
	</g>
</symbol>
<symbol  id="Letters_x2F_letter_x5F_A" viewBox="-1.05 -25.474 22.935 26.674">
	<g id="Layer_1_21_">
		
			<use xlink:href="#zzz_x5F_miscellaneous_x2F_Symbol_27"  width="20.85" height="24.25" y="-24.25" transform="matrix(1.1 0 0 1.1 -1.0498 1.2007)" style="overflow:visible;"/>
		
			<use xlink:href="#zzz_x5F_miscellaneous_x2F_Symbol_27"  width="20.85" height="24.25" y="-24.25" transform="matrix(1.1 0 0 1.1 -1.0498 1.2007)" style="overflow:visible;opacity:0.4219;"/>
	</g>
</symbol>
<symbol  id="Letters_x2F_letter_x5F_N" viewBox="-1 -25.254 22.22 26.454">
	<g id="Layer_1_20_">
		
			<use xlink:href="#zzz_x5F_miscellaneous_x2F_Symbol_40"  width="20.2" height="24.05" y="-24.05" transform="matrix(1.1 0 0 1.1 -1 1.2007)" style="overflow:visible;"/>
		
			<use xlink:href="#zzz_x5F_miscellaneous_x2F_Symbol_40"  width="20.2" height="24.05" y="-24.05" transform="matrix(1.1 0 0 1.1 -1 1.2007)" style="overflow:visible;opacity:0.4219;"/>
	</g>
</symbol>
<symbol  id="Maps_x2F_shimla_brown" viewBox="-0.3 -65.475 74.775 65.6">
	<g id="Layer_1_16_">
		
			<linearGradient id="SVGID_7_" gradientUnits="userSpaceOnUse" x1="16154.9063" y1="-36.0356" x2="16212.9316" y2="-36.0356" gradientTransform="matrix(1.723395e-005 1 -1 -0.001 0.8608 -16219.1055)">
			<stop  offset="0" style="stop-color:#000000;stop-opacity:0.4"/>
			<stop  offset="1" style="stop-color:#FFFFFF;stop-opacity:0.302"/>
		</linearGradient>
		<path style="fill-rule:evenodd;clip-rule:evenodd;fill:url(#SVGID_7_);" d="M63.55-8.85l-0.35,0.1L62.4-8.7
			c-0.1,0.333-0.316,0.567-0.65,0.7L60.3-7.55c-0.367,0-0.7-0.133-1-0.4L59.05-7.6c-0.167,0.267-0.4,0.434-0.7,0.5
			C57.117-6.933,55.967-6.9,54.9-7c-1.3-0.133-2.883-0.55-4.75-1.25l-0.2-0.05L48.5-8.9c-0.167-0.067-0.3-0.167-0.4-0.3
			c-0.233,0.034-0.45-0.017-0.65-0.15l-2.1-0.8c-0.233-0.067-0.4-0.2-0.5-0.4H44.1c-3.4-1.167-7.35-1.9-11.85-2.2l-3.4-0.15
			c-0.467,0-0.783-0.233-0.95-0.7l-0.3,0.35c-0.167,0.2-0.417,0.333-0.75,0.4H26.4l-0.4-0.1c-0.267,0.167-0.55,0.217-0.85,0.15
			c-3.5,0.2-6.433,0.65-8.8,1.35c-0.267,0.067-0.517,0.034-0.75-0.1l-0.3,0.25c-0.066,0.1-0.2,0.183-0.4,0.25l-0.85,0.35
			c0.1,1.5,0.233,2.833,0.4,4l0.2,1.3c0.067,0.233,0.05,0.45-0.05,0.65l-0.35,0.7c-0.167,0.3-0.417,0.483-0.75,0.55
			c-0.6,0.067-1.317,0.033-2.15-0.1C9.717-3.833,8.367-4.45,7.3-5.45l-0.8-0.8c-0.6-0.067-0.983-0.433-1.15-1.1
			c-0.367-0.333-0.533-0.667-0.5-1c-0.067-1.667-0.5-12.733-1.3-33.2C3.45-48.917,3.433-52.933,3.5-53.6v-0.1h0.05
			c-0.066-1.4,0.25-2.583,0.95-3.55c0.367-0.5,0.75-0.867,1.15-1.1l0.25-0.1c2.733-1.933,8.033-3.033,15.9-3.3
			c0.4-0.067,0.717,0.117,0.95,0.55l0.3,0.45c0-0.267,0.117-0.517,0.35-0.75c0.2-0.2,0.45-0.3,0.75-0.3l3.35,0.25
			c0.433,0,0.733,0.233,0.9,0.7c0.233,0.233,0.367,0.5,0.4,0.8l0.35,1.95l1.05-2.7c0.233-0.5,0.583-0.717,1.05-0.65
			c2.967,0.367,5.767,1,8.4,1.9c1.533,0.566,3.633,1.483,6.3,2.75c2.733,1.3,4.9,2.216,6.5,2.75L54-53.6
			c0.3,0.133,0.5,0.317,0.6,0.55c0.233-0.2,0.517-0.267,0.85-0.2c1.867,0.4,3.667,0.467,5.4,0.2c0.2-3.467,0.283-5.85,0.25-7.15
			l0.1-0.45l0.05-0.15c0-0.3,0.1-0.55,0.3-0.75c0.2-0.2,0.434-0.3,0.7-0.3h0.1c0.767,0.067,1.783,0.1,3.05,0.1
			c1.867,0.033,3.133,0.2,3.8,0.5c1.033,0.467,1.583,1.467,1.65,3c0.033,0.433,0,1.35-0.1,2.75l0.05,0.25L69.45-42.9L69.2-20.75
			c0.066,0.6,0.017,1.3-0.15,2.1l-0.1,0.95v0.05c-0.034,0.433-0.15,1.083-0.35,1.95C67.833-12.633,66.15-10.35,63.55-8.85z
			 M63.05-4.75c0.467-0.2,0.817-0.4,1.05-0.6c0.433-0.1,0.816-0.25,1.15-0.45c3.433-1.934,5.683-4.95,6.75-9.05v-0.05l0.45-2.25
			v-0.1l0.1-0.95c0.167-1.033,0.217-1.95,0.15-2.75l0.25-21.7l0.55-4.75v-0.3l0.8-7.55v-0.3c0.067-1.167,0.067-2.15,0-2.95
			c-0.167-2.867-1.333-4.817-3.5-5.85c-1.233-0.566-3.017-0.867-5.35-0.9l-2.9-0.05l-0.3-0.05c-1.167,0-2.2,0.417-3.1,1.25
			c-0.667,0.667-1.1,1.467-1.3,2.4c-0.167,0.4-0.25,0.934-0.25,1.6c0.033,0.667,0,1.883-0.1,3.65l-1.4-0.25l-0.6-0.05l-0.5-0.2
			l-1.5-0.45c-1.633-0.533-3.65-1.4-6.05-2.6c-2.767-1.3-4.983-2.25-6.65-2.85c-2.867-1-5.917-1.683-9.15-2.05
			c-0.8-0.1-1.55,0-2.25,0.3c-0.533-0.233-1.117-0.383-1.75-0.45l-1.1-0.1c-1.767-0.167-2.983-0.15-3.65,0.05
			c-0.4-0.1-0.8-0.15-1.2-0.15C13.567-65.017,7.767-63.8,4.3-61.6l-0.35,0.2c-1.133,0.6-2.067,1.533-2.8,2.8
			c-0.833,1.5-1.2,3.217-1.1,5.15L0-53.4c0.033,0,0.05,0.066,0.05,0.2c-0.066,1.133-0.066,5.034,0,11.7
			c0,0.633,0.434,11.65,1.3,33.05c-0.033,0.967,0.267,1.9,0.9,2.8C2.717-4.55,3.5-3.733,4.6-3.2l0.3,0.3C6.933-0.967,9.533,0,12.7,0
			l1.2-0.05c1.633-0.233,2.783-1.05,3.45-2.45l0.35-0.7c0.466-0.933,0.6-1.9,0.4-2.9l-0.3-2.1c2.3-0.6,4.717-0.966,7.25-1.1
			c0.3,0.033,0.717,0.017,1.25-0.05h0.65l0.9-0.15c0.2,0.067,0.517,0.1,0.95,0.1l3.25,0.15c3.967,0.233,7.617,0.9,10.95,2l0.6,0.15
			l3.15,1.25l0.4,0.2l1.55,0.6L48.9-5c1.967,0.8,3.817,1.283,5.55,1.45h0.15c1.367,0.133,2.8,0.1,4.3-0.1
			c0.467-0.1,0.9-0.25,1.3-0.45c0.533,0,1.017-0.05,1.45-0.15L63.05-4.75z"/>
		<path style="fill-rule:evenodd;clip-rule:evenodd;fill-opacity:0.702;" d="M63.55-8.85c2.6-1.5,4.284-3.783,5.05-6.85
			c0.2-0.867,0.316-1.517,0.35-1.95v-0.05l0.1-0.95c0.167-0.8,0.217-1.5,0.15-2.1l0.25-22.15l1.35-12.35l-0.05-0.25
			c0.1-1.4,0.133-2.317,0.1-2.75c-0.067-1.533-0.617-2.533-1.65-3c-0.667-0.3-1.934-0.467-3.8-0.5c-1.267,0-2.283-0.033-3.05-0.1
			h-0.1c-0.267,0-0.5,0.1-0.7,0.3c-0.2,0.2-0.3,0.45-0.3,0.75l-0.05,0.15l-0.1,0.45c0.033,1.3-0.05,3.684-0.25,7.15
			c-1.733,0.267-3.533,0.2-5.4-0.2c-0.333-0.067-0.617,0-0.85,0.2c-0.1-0.233-0.3-0.417-0.6-0.55l-1.55-0.45
			c-1.6-0.534-3.767-1.45-6.5-2.75c-2.667-1.267-4.767-2.184-6.3-2.75c-2.633-0.9-5.433-1.534-8.4-1.9
			c-0.467-0.066-0.817,0.15-1.05,0.65l-1.05,2.7l-0.35-1.95c-0.033-0.3-0.167-0.567-0.4-0.8c-0.167-0.467-0.467-0.7-0.9-0.7
			l-3.35-0.25c-0.3,0-0.55,0.1-0.75,0.3c-0.233,0.233-0.35,0.483-0.35,0.75l-0.3-0.45c-0.233-0.433-0.55-0.617-0.95-0.55
			c-7.867,0.267-13.167,1.367-15.9,3.3l-0.25,0.1c-0.4,0.233-0.783,0.6-1.15,1.1c-0.7,0.967-1.017,2.15-0.95,3.55H3.5v0.1
			c-0.067,0.667-0.05,4.684,0.05,12.05c0.8,20.466,1.233,31.533,1.3,33.2c-0.033,0.333,0.133,0.667,0.5,1
			C5.517-6.683,5.9-6.317,6.5-6.25l0.8,0.8c1.067,1,2.417,1.617,4.05,1.85c0.833,0.133,1.55,0.167,2.15,0.1
			c0.333-0.067,0.583-0.25,0.75-0.55l0.35-0.7c0.1-0.2,0.117-0.417,0.05-0.65l-0.2-1.3c-0.167-1.167-0.3-2.5-0.4-4l0.85-0.35
			c0.2-0.067,0.333-0.15,0.4-0.25l0.3-0.25c0.233,0.133,0.483,0.167,0.75,0.1c2.367-0.7,5.3-1.15,8.8-1.35
			c0.3,0.066,0.583,0.017,0.85-0.15l0.4,0.1h0.45c0.333-0.066,0.583-0.2,0.75-0.4l0.3-0.35c0.167,0.467,0.483,0.7,0.95,0.7l3.4,0.15
			c4.5,0.3,8.45,1.033,11.85,2.2h0.75c0.1,0.2,0.267,0.333,0.5,0.4l2.1,0.8c0.2,0.133,0.417,0.184,0.65,0.15
			c0.1,0.133,0.233,0.233,0.4,0.3l1.45,0.6l0.2,0.05C52.017-7.55,53.6-7.133,54.9-7c1.067,0.1,2.217,0.067,3.45-0.1
			c0.3-0.066,0.533-0.233,0.7-0.5l0.25-0.35c0.3,0.267,0.633,0.4,1,0.4L61.75-8c0.333-0.133,0.55-0.367,0.65-0.7l0.8-0.05
			L63.55-8.85z M63-12.2c-0.067-0.533-0.383-0.833-0.95-0.9c-0.566,0-0.9,0.267-1,0.8c-0.2,1-0.333,1.566-0.4,1.7L60.5-9.7
			l-0.05,0.05l-0.3-0.65c-0.1-0.467-0.383-0.7-0.85-0.7c-0.433-0.033-0.767,0.15-1,0.55l-0.7,1.4C56.833-8.95,56-8.933,55.1-9
			c-1.3-0.167-2.7-0.533-4.2-1.1l-0.2-0.1l-1-0.35l-0.1-0.5c-0.1-0.434-0.383-0.7-0.85-0.8c-0.433-0.066-0.767,0.1-1,0.5l-1.25-0.5
			v-0.05c-0.133-0.3-0.317-0.5-0.55-0.6c-0.3-0.133-0.55-0.15-0.75-0.05l-0.45-0.05l-0.25,0.05c-3.667-1.167-7.7-1.9-12.1-2.2
			l-2.8-0.1l-0.5-1.8v-0.1l-0.15-0.65c-0.1-0.5-0.434-0.75-1-0.75c-0.534,0-0.85,0.25-0.95,0.75l-0.35,1.65
			c-0.167-0.2-0.383-0.267-0.65-0.2c-0.533,0-0.85,0.25-0.95,0.75l-0.1,0.4c-3.167,0.2-5.883,0.583-8.15,1.15l-0.1-0.8
			c-0.067-0.5-0.333-0.8-0.8-0.9c-0.5-0.066-0.85,0.1-1.05,0.5c-0.3,0.533-0.467,0.934-0.5,1.2l-0.1,0.6l-0.2,0.2L12.6-12.3
			c-0.467,0.167-0.667,0.5-0.6,1c0.167,2.367,0.383,4.3,0.65,5.8c-1.667,0-3-0.467-4-1.4L7.55-8L7.2-8.2L7-8.5L6.85-8.65V-8.7
			c-0.8-19.1-1.233-30.05-1.3-32.85C5.45-48.017,5.433-51.833,5.5-53l0.05-0.5c-0.133-1.4,0.184-2.417,0.95-3.05
			c0.167,0,0.3-0.05,0.4-0.15c2.333-1.767,7.133-2.783,14.4-3.05L21.95-59l1.35,2.35c0.233,0.433,0.6,0.6,1.1,0.5
			c0.467-0.067,0.733-0.367,0.8-0.9c0.033-0.434,0.017-1.1-0.05-2c0.133-0.267,0.15-0.483,0.05-0.65v-0.05l1.65,0.15v0.05
			c0.233,1.033,0.533,2.867,0.9,5.5c0.067,0.5,0.333,0.783,0.8,0.85c0.534,0.067,0.9-0.117,1.1-0.55l2.15-5.6
			c2.633,0.367,5.1,0.967,7.4,1.8c1.433,0.5,3.383,1.35,5.85,2.55c3.3,1.5,5.55,2.45,6.75,2.85l0.9,0.25
			c0.066,1.566,0.2,2.867,0.4,3.9c0.133,0.533,0.45,0.8,0.95,0.8c0.567,0,0.9-0.267,1-0.8l0.6-2.45l0.05-0.15l0.05-0.1l0.15-0.45
			c1.1,0.167,2.083,0.25,2.95,0.25c1.1,0,2.15-0.1,3.15-0.3c0.467-0.1,0.733-0.417,0.8-0.95c0.233-3.733,0.333-6.283,0.3-7.65
			l2.25,0.05c1.633,0.033,2.633,0.133,3,0.3c0.3,0.167,0.467,0.617,0.5,1.35c0,0.967-0.05,1.95-0.15,2.95v0.2L67.15-35.2l0.05,14.55
			c0.033,0.367,0,0.967-0.1,1.8l-0.1,0.9v0.05l-0.35,1.65c-0.6,2.367-1.767,4.133-3.5,5.3L63-12.2z"/>
		
			<linearGradient id="SVGID_8_" gradientUnits="userSpaceOnUse" x1="16154.9063" y1="-36.0156" x2="16212.9316" y2="-36.0156" gradientTransform="matrix(1.723395e-005 1 -1 -0.001 0.8608 -16219.1055)">
			<stop  offset="0.2824" style="stop-color:#994948"/>
			<stop  offset="0.2863" style="stop-color:#9A4A49"/>
			<stop  offset="0.702" style="stop-color:#CA9463"/>
			<stop  offset="0.8941" style="stop-color:#DEB26D"/>
		</linearGradient>
		<path style="fill-rule:evenodd;clip-rule:evenodd;fill:url(#SVGID_8_);" d="M63-12.2l0.15,1.25c1.733-1.167,2.9-2.933,3.5-5.3
			L67-17.9v-0.05l0.1-0.9c0.1-0.833,0.133-1.433,0.1-1.8L67.15-35.2l1.55-19.75v-0.2c0.1-1,0.15-1.983,0.15-2.95
			c-0.033-0.733-0.2-1.183-0.5-1.35c-0.367-0.167-1.367-0.267-3-0.3L63.1-59.8c0.033,1.367-0.067,3.917-0.3,7.65
			c-0.066,0.533-0.333,0.85-0.8,0.95c-1,0.2-2.05,0.3-3.15,0.3c-0.867,0-1.85-0.083-2.95-0.25l-0.15,0.45l-0.05,0.1l-0.05,0.15
			L55.05-48c-0.1,0.533-0.433,0.8-1,0.8c-0.5,0-0.816-0.267-0.95-0.8c-0.2-1.033-0.333-2.333-0.4-3.9l-0.9-0.25
			c-1.2-0.4-3.45-1.35-6.75-2.85c-2.466-1.2-4.417-2.05-5.85-2.55c-2.3-0.833-4.767-1.434-7.4-1.8l-2.15,5.6
			c-0.2,0.433-0.566,0.617-1.1,0.55c-0.466-0.066-0.733-0.35-0.8-0.85c-0.367-2.633-0.667-4.467-0.9-5.5v-0.05l-1.65-0.15v0.05
			c0.1,0.167,0.083,0.383-0.05,0.65c0.067,0.9,0.083,1.566,0.05,2c-0.067,0.533-0.333,0.833-0.8,0.9c-0.5,0.1-0.867-0.067-1.1-0.5
			L21.95-59l-0.65-0.75c-7.267,0.267-12.066,1.283-14.4,3.05c-0.1,0.1-0.233,0.15-0.4,0.15c-0.767,0.633-1.083,1.65-0.95,3.05
			L5.5-53c-0.067,1.167-0.05,4.983,0.05,11.45c0.067,2.8,0.5,13.75,1.3,32.85v0.05L7-8.5l0.2,0.3L7.55-8l1.1,1.1
			c1,0.933,2.333,1.4,4,1.4C12.383-7,12.167-8.933,12-11.3c-0.067-0.5,0.133-0.833,0.6-1l1.45-0.55l0.2-0.2l0.1-0.6
			c0.033-0.267,0.2-0.667,0.5-1.2c0.2-0.4,0.55-0.566,1.05-0.5c0.467,0.1,0.733,0.4,0.8,0.9l0.1,0.8
			c2.267-0.567,4.983-0.95,8.15-1.15l0.1-0.4c0.1-0.5,0.417-0.75,0.95-0.75c0.267-0.066,0.483,0,0.65,0.2L27-17.4
			c0.1-0.5,0.417-0.75,0.95-0.75c0.566,0,0.9,0.25,1,0.75l0.15,0.65v0.1l0.5,1.8l2.8,0.1c4.4,0.3,8.434,1.033,12.1,2.2l0.25-0.05
			l0.45,0.05c0.2-0.1,0.45-0.083,0.75,0.05c0.233,0.1,0.417,0.3,0.55,0.6v0.05l1.25,0.5c0.233-0.4,0.567-0.566,1-0.5
			c0.467,0.1,0.75,0.367,0.85,0.8l0.1,0.5l1,0.35l0.2,0.1c1.5,0.567,2.9,0.934,4.2,1.1c0.9,0.067,1.733,0.05,2.5-0.05l0.7-1.4
			c0.233-0.4,0.567-0.583,1-0.55c0.467,0,0.75,0.233,0.85,0.7l0.3,0.65L60.5-9.7l0.15-0.9c0.067-0.133,0.2-0.7,0.4-1.7
			c0.1-0.534,0.434-0.8,1-0.8C62.617-13.033,62.933-12.733,63-12.2z M63.55-14.55L63.4-14.3c-0.3,0.4-0.7,0.517-1.2,0.35
			c-0.534-0.233-0.733-0.617-0.6-1.15l0.1-0.5l0.05-0.15c0.1-0.5,0.417-0.75,0.95-0.75h0.1c0.567,0.067,0.883,0.4,0.95,1v0.35
			C63.75-14.883,63.683-14.683,63.55-14.55z M58.3-16.4l1.6,0.3L58.3-16.4v0.1l-0.1,0.5c-0.1,0.566-0.133,1.05-0.1,1.45
			c-1.1,0.3-1.983,0.917-2.65,1.85c-0.934-0.1-1.95-0.35-3.05-0.75c-0.733-1.167-1.767-1.85-3.1-2.05c-0.4-0.067-0.8-0.067-1.2,0
			l-0.65-0.35c-0.7-0.367-1.467-0.517-2.3-0.45H44.9c-3.767-1.133-7.867-1.85-12.3-2.15h-0.3c-0.233-1-0.767-1.817-1.6-2.45
			c-0.8-0.633-1.717-0.95-2.75-0.95c-0.934,0-1.767,0.25-2.5,0.75c-0.733,0.5-1.284,1.167-1.65,2c-0.3,0.167-0.617,0.417-0.95,0.75
			c-1.8,0.2-3.15,0.383-4.05,0.55c-0.633-0.566-1.35-0.95-2.15-1.15c-0.933-0.2-1.85-0.1-2.75,0.3c-0.9,0.367-1.583,0.967-2.05,1.8
			c-0.133,0.167-0.317,0.533-0.55,1.1c-0.433,0.133-0.833,0.367-1.2,0.7L9.05-41.6C9.017-48.467,9-52.117,9-52.55
			c0.067-0.567,0.083-1,0.05-1.3L9-53.95c1.667-1.133,5.183-1.867,10.55-2.2v0.05c0.233,0.267,0.434,0.6,0.6,1
			c0.434,0.833,1.033,1.467,1.8,1.9c0.8,0.434,1.65,0.633,2.55,0.6c0.267,0.733,0.717,1.367,1.35,1.9
			c0.633,0.5,1.35,0.817,2.15,0.95c0.967,0.133,1.9-0.017,2.8-0.45c0.867-0.466,1.517-1.133,1.95-2l0.15-0.25l0.05-0.05l1-2.7
			l0.1-0.2c1.7,0.367,3.383,0.883,5.05,1.55c1.033,0.4,2.517,1.067,4.45,2c2.6,1.233,4.534,2.083,5.8,2.55l0.3,1.95
			c0.2,1.067,0.717,1.934,1.55,2.6c0.833,0.7,1.783,1.05,2.85,1.05c1.067,0.034,2.017-0.283,2.85-0.95
			c0.8-0.667,1.333-1.517,1.6-2.55v-0.2c1.633,0,3.033-0.133,4.2-0.4c0.733-0.167,1.35-0.45,1.85-0.85L63.7-37.5v17.6L63.1-20
			c-1.133-0.1-2.15,0.183-3.05,0.85c-0.9,0.667-1.483,1.55-1.75,2.65V-16.4z"/>
		<path style="fill-rule:evenodd;clip-rule:evenodd;fill:#233230;" d="M63.55-14.55c0.133-0.133,0.2-0.333,0.2-0.6v-0.35
			c-0.067-0.6-0.383-0.933-0.95-1h-0.1c-0.534,0-0.85,0.25-0.95,0.75L61.7-15.6l-0.1,0.5c-0.133,0.533,0.066,0.917,0.6,1.15
			c0.5,0.167,0.9,0.05,1.2-0.35L63.55-14.55z"/>
		<path style="fill-rule:evenodd;clip-rule:evenodd;fill:none;stroke:#F1E2E7;stroke-width:0.25;" d="M58.3-16.4v0.1l-0.1,0.5
			c-0.1,0.566-0.133,1.05-0.1,1.45c-1.1,0.3-1.983,0.917-2.65,1.85c-0.934-0.1-1.95-0.35-3.05-0.75
			c-0.733-1.167-1.767-1.85-3.1-2.05c-0.4-0.067-0.8-0.067-1.2,0l-0.65-0.35c-0.7-0.367-1.467-0.517-2.3-0.45H44.9
			c-3.767-1.133-7.867-1.85-12.3-2.15h-0.3c-0.233-1-0.767-1.817-1.6-2.45c-0.8-0.633-1.717-0.95-2.75-0.95
			c-0.934,0-1.767,0.25-2.5,0.75c-0.733,0.5-1.284,1.167-1.65,2c-0.3,0.167-0.617,0.417-0.95,0.75c-1.8,0.2-3.15,0.383-4.05,0.55
			c-0.633-0.566-1.35-0.95-2.15-1.15c-0.933-0.2-1.85-0.1-2.75,0.3c-0.9,0.367-1.583,0.967-2.05,1.8
			c-0.133,0.167-0.317,0.533-0.55,1.1c-0.433,0.133-0.833,0.367-1.2,0.7L9.05-41.6C9.017-48.467,9-52.117,9-52.55
			c0.067-0.567,0.083-1,0.05-1.3L9-53.95c1.667-1.133,5.183-1.867,10.55-2.2v0.05c0.233,0.267,0.434,0.6,0.6,1
			c0.434,0.833,1.033,1.467,1.8,1.9c0.8,0.434,1.65,0.633,2.55,0.6c0.267,0.733,0.717,1.367,1.35,1.9
			c0.633,0.5,1.35,0.817,2.15,0.95c0.967,0.133,1.9-0.017,2.8-0.45c0.867-0.466,1.517-1.133,1.95-2l0.15-0.25l0.05-0.05l1-2.7
			l0.1-0.2c1.7,0.367,3.383,0.883,5.05,1.55c1.033,0.4,2.517,1.067,4.45,2c2.6,1.233,4.534,2.083,5.8,2.55l0.3,1.95
			c0.2,1.067,0.717,1.934,1.55,2.6c0.833,0.7,1.783,1.05,2.85,1.05c1.067,0.034,2.017-0.283,2.85-0.95
			c0.8-0.667,1.333-1.517,1.6-2.55v-0.2c1.633,0,3.033-0.133,4.2-0.4c0.733-0.167,1.35-0.45,1.85-0.85L63.7-37.5v17.6L63.1-20
			c-1.133-0.1-2.15,0.183-3.05,0.85c-0.9,0.667-1.483,1.55-1.75,2.65V-16.4l1.6,0.3"/>
		<path style="fill-rule:evenodd;clip-rule:evenodd;fill:none;stroke:#FFFFFF;stroke-width:0.25;" d="M63.05-4.75
			c0.467-0.2,0.817-0.4,1.05-0.6c0.433-0.1,0.816-0.25,1.15-0.45c3.433-1.934,5.683-4.95,6.75-9.05v-0.05l0.45-2.25v-0.1l0.1-0.95
			c0.167-1.033,0.217-1.95,0.15-2.75l0.25-21.7l0.55-4.75v-0.3l0.8-7.55v-0.3c0.067-1.167,0.067-2.15,0-2.95
			c-0.167-2.867-1.333-4.817-3.5-5.85c-1.233-0.566-3.017-0.867-5.35-0.9l-2.9-0.05l-0.3-0.05c-1.167,0-2.2,0.417-3.1,1.25
			c-0.667,0.667-1.1,1.467-1.3,2.4c-0.167,0.4-0.25,0.934-0.25,1.6c0.033,0.667,0,1.883-0.1,3.65l-1.4-0.25l-0.6-0.05l-0.5-0.2
			l-1.5-0.45c-1.633-0.533-3.65-1.4-6.05-2.6c-2.767-1.3-4.983-2.25-6.65-2.85c-2.867-1-5.917-1.683-9.15-2.05
			c-0.8-0.1-1.55,0-2.25,0.3c-0.533-0.233-1.117-0.383-1.75-0.45l-1.1-0.1c-1.767-0.167-2.983-0.15-3.65,0.05
			c-0.4-0.1-0.8-0.15-1.2-0.15C13.567-65.017,7.767-63.8,4.3-61.6l-0.35,0.2c-1.133,0.6-2.067,1.533-2.8,2.8
			c-0.833,1.5-1.2,3.217-1.1,5.15L0-53.4c0.033,0,0.05,0.066,0.05,0.2c-0.066,1.133-0.066,5.034,0,11.7
			c0,0.633,0.434,11.65,1.3,33.05c-0.033,0.967,0.267,1.9,0.9,2.8C2.717-4.55,3.5-3.733,4.6-3.2l0.3,0.3C6.933-0.967,9.533,0,12.7,0
			l1.2-0.05c1.633-0.233,2.783-1.05,3.45-2.45l0.35-0.7c0.466-0.933,0.6-1.9,0.4-2.9l-0.3-2.1c2.3-0.6,4.717-0.966,7.25-1.1
			c0.3,0.033,0.717,0.017,1.25-0.05h0.65l0.9-0.15c0.2,0.067,0.517,0.1,0.95,0.1l3.25,0.15c3.967,0.233,7.617,0.9,10.95,2l0.6,0.15
			l3.15,1.25l0.4,0.2l1.55,0.6L48.9-5c1.967,0.8,3.817,1.283,5.55,1.45h0.15c1.367,0.133,2.8,0.1,4.3-0.1
			c0.467-0.1,0.9-0.25,1.3-0.45c0.533,0,1.017-0.05,1.45-0.15L63.05-4.75z"/>
		
			<radialGradient id="SVGID_9_" cx="-430" cy="-15629.4238" r="6.9903" gradientTransform="matrix(0.0626 -0.998 -1.0566 -0.0663 -16425.332 -1522.7378)" gradientUnits="userSpaceOnUse">
			<stop  offset="0" style="stop-color:#B2A781"/>
			<stop  offset="1" style="stop-color:#8A7F54"/>
		</radialGradient>
		<path style="fill-rule:evenodd;clip-rule:evenodd;fill:url(#SVGID_9_);" d="M61.15-44.55l-0.15,2.4l1.5-1.35
			c0.967-0.8,2.283-2.467,3.95-5c2.066-3.167,3.167-5.767,3.3-7.8s-0.383-3.217-1.55-3.55c-2.134-0.133-4.167-0.267-6.1-0.4
			c0.033,1.8-0.1,4.933-0.4,9.4C61.4-46.85,61.217-44.75,61.15-44.55z"/>
		<path style="fill-rule:evenodd;clip-rule:evenodd;fill:#C7BB99;" d="M65.75-19.5l-3.9,5.65l0.4,3.95
			c0.033,0.133,0.184,0.2,0.45,0.2c0.133,0,0.25,0,0.35,0l2.05-3.8L65.75-19.5z"/>
		<path style="fill-rule:evenodd;clip-rule:evenodd;fill:#C7BB99;" d="M60-8.7l0.35,0.1c-0.133-3.967-0.184-6.15-0.15-6.55
			L49.7-16.5l-2.25,4.8c0,0.167,0,0.367,0,0.6c0.066,0.434,0.2,0.717,0.4,0.85c0.2,0.133,0.45-0.067,0.75-0.6
			c0.433-0.767,0.733-1.217,0.9-1.35c0.467-0.433,1.25,0.017,2.35,1.35l6.8-0.9l0.55,1.7C59.434-9.35,59.7-8.899,60-8.7z"/>
		<path style="fill-rule:evenodd;clip-rule:evenodd;fill:#C7BB99;" d="M45.9-14.1l-1.4,0.55c-0.033,0.267-0.05,0.567-0.05,0.9
			c0,0.6,0.15,0.95,0.45,1.05c0.467,0.167,0.85,0.033,1.15-0.4l0.35-0.65L45.9-14.1z"/>
		<path style="fill-rule:evenodd;clip-rule:evenodd;fill:#C7BB99;" d="M25.1-20.2c0.033,0.067-0.017,1.067-0.15,3
			c-0.134,1.833-0.1,2.9,0.1,3.2c0.2,0.3,0.4,0.333,0.6,0.1c0.1-0.1,0.184-0.233,0.25-0.4l0.4-1.75l0.55,2.2l0.65-0.8l0.3-1.65
			c0.267-1.5,0.6-2.917,1-4.25L25.1-20.2z"/>
		<path style="fill-rule:evenodd;clip-rule:evenodd;fill:#C7BB99;" d="M17-16l0.55-4.25c-0.933-0.1-1.483-0.133-1.65-0.1
			c-0.133,0.033-0.417,0.483-0.85,1.35c-0.433,0.833-0.65,1.35-0.65,1.55L14.6-12l0.6-0.6l0.15-0.85C15.45-13.983,16-14.833,17-16z"
			/>
		<path style="fill-rule:evenodd;clip-rule:evenodd;fill:#B1A181;" d="M68.05-30.4c-0.067-7.667,0.117-12.966,0.55-15.9
			c1.167-7.733,1.55-11.767,1.15-12.1c-0.533,1.4-1.55,2.7-3.05,3.9c-2.967,2.4-6.783,3.15-11.45,2.25
			c-0.433,0.933-0.8,2.216-1.1,3.85c-0.067,0.233,0.017,0.617,0.25,1.15c0.2,0.6,0.3,1,0.3,1.2c-0.233-0.367-0.35-0.683-0.35-0.95
			c-0.433-1.567-0.65-3.4-0.65-5.5v-0.15l-1.6-0.45c-0.566-0.2-3.683-1.567-9.35-4.1c-3.767-1.7-7.633-2.783-11.6-3.25l-1.4,3.65
			c-0.267,1.767-0.566,2.85-0.9,3.25c-0.4-2.8-0.733-4.9-1-6.3c-0.066-0.2-0.2-0.434-0.4-0.7c-1.533-0.167-2.667-0.25-3.4-0.25
			l0.05,0.55c0,0.233,0.167,0.85,0.5,1.85c0.3,0.934,0.417,1.583,0.35,1.95c-0.133,0.3-0.2,0.533-0.2,0.7
			c-0.133-0.1-0.183-0.25-0.15-0.45c-0.167-0.467-0.433-1.017-0.8-1.65c-0.233-0.4-0.567-0.95-1-1.65
			c-0.1-0.2-0.417-0.617-0.95-1.25C13.617-60.483,8.333-59.317,6-57.25c-0.433,1.767-0.65,2.716-0.65,2.85
			c0.067,0.5,0.2,1.017,0.4,1.55l-0.75-1l0.9,21.3c0.167,0,1.383-0.083,3.65-0.25c1.433-0.1,2.617-0.167,3.55-0.2
			c2.5-0.1,6.233-0.25,11.2-0.45c4.367-0.133,8.1-0.183,11.2-0.15c4.5,0.066,9.934,0.467,16.3,1.2
			C55.4-31.967,60.817-31.3,68.05-30.4z"/>
		<path style="fill-rule:evenodd;clip-rule:evenodd;fill:#B1A181;" d="M68.95-56c0.566-0.633,0.85-0.967,0.85-1
			c0.167-2.034-0.316-3.2-1.45-3.5c-2.133-0.1-4.167-0.217-6.1-0.35c-0.066,0.233-0.1,0.467-0.1,0.7c3.567,0.267,5.5,0.45,5.8,0.55
			C69.05-59.166,69.383-57.966,68.95-56z"/>
		<path style="fill-rule:evenodd;clip-rule:evenodd;fill:#B1A181;" d="M67.95-55.55l1.5-1.2c0.267-0.567,0.033-1.633-0.7-3.2
			c-0.533-0.833-0.533-0.617,0,0.65c0.333,0.8,0.3,1.667-0.1,2.6L67.95-55.55z"/>
		
			<radialGradient id="SVGID_10_" cx="-458.3789" cy="-15626.3154" r="54.8965" gradientTransform="matrix(0.0629 -0.998 -0.9914 -0.0625 -15402.7891 -1465.2085)" gradientUnits="userSpaceOnUse">
			<stop  offset="0" style="stop-color:#F5F0DA"/>
			<stop  offset="1" style="stop-color:#D4C8A1"/>
		</radialGradient>
		<path style="fill-rule:evenodd;clip-rule:evenodd;fill:url(#SVGID_10_);" d="M6.3-7.649l0.25,0.4c0.233,0.133,0.6-0.15,1.1-0.85
			C8.017-8.6,8.733-9.183,9.8-9.85c1.333-0.8,2.934-1.517,4.8-2.15l0.05-0.8c0.067-1.167,0.35-2.433,0.85-3.8
			c0.133,1.867,0.267,3.083,0.4,3.65l0.2,0.5c2.966-0.767,6.1-1.216,9.4-1.35l0.35-1.95l0.1,0.45l0.45,1.45h0.45
			c0.066-1,0.333-2.65,0.8-4.95c0.067,0.634,0.267,1.533,0.6,2.7l0.6,2.2c0.767,0.033,1.933,0.083,3.5,0.15
			c4.433,0.3,8.45,1.05,12.05,2.25l0.5-0.1l0.5-0.4l0.3,0.95l2.15,0.8l0.6-3c0.066,0.4,0.083,0.867,0.05,1.4
			c-0.033,0.3,0.083,0.967,0.35,2c1.966,0.8,3.483,1.333,4.55,1.6c1.567,0.333,3.167,0.383,4.8,0.15c0.5-0.833,0.95-1.7,1.35-2.6
			l0.8,2.1l1.05-0.35c0.133-0.867,0.217-1.333,0.25-1.4l1.05-5.2l0.2,4.8l0.15,1.05c2-1.133,3.4-2.817,4.2-5.05
			c0.6-1.633,0.917-3.817,0.95-6.55c0-1.933-0.017-5.866-0.05-11.8c0.034-5.467,0.2-9.4,0.5-11.8c0.5-3.8,0.9-7.833,1.2-12.1
			c-0.567,1.433-1.633,2.75-3.2,3.95c-3.066,2.434-7.033,3.117-11.9,2.05c-0.267,0.867-0.467,1.733-0.6,2.6
			c-0.233,1.167-0.367,1.866-0.4,2.1c-0.167-0.267-0.283-0.583-0.35-0.95c-0.333-1.4-0.533-2.817-0.6-4.25l-0.65-0.2
			c-0.267-0.1-3.517-1.5-9.75-4.2c-3.933-1.733-7.85-2.817-11.75-3.25l-0.9,2.35c-0.6,1.767-1.066,2.85-1.4,3.25
			c-0.267-2-0.567-3.933-0.9-5.8l-3.35-0.05c0.133,1.3,0.15,2.217,0.05,2.75c-0.133,0.333-0.2,0.566-0.2,0.7
			c-0.167-0.067-0.217-0.2-0.15-0.4c-0.267-0.8-0.7-1.8-1.3-3c-8.367,0.367-13.8,1.517-16.3,3.45c0.066,0.533-0.05,0.833-0.35,0.9
			c-0.251,0.094-0.368,0.369-0.35,0.825c0.01-0.045,0.126,0.463,0.35,1.525L5-53.85L5.9-32.1c0.2,4.066,0.317,9.367,0.35,15.9
			L6.3-7.649z"/>
		<path style="fill-rule:evenodd;clip-rule:evenodd;fill:#D7CDAE;" d="M34-48.3c-0.066-0.133-0.283-0.467-0.65-1
			c-0.333-0.533-0.5-0.9-0.5-1.1c-0.034-0.4,0.25-1.1,0.85-2.1c0.333-0.534,0.716-1.117,1.15-1.75c0.167-0.267,0.816-1.5,1.95-3.7
			c-0.966-0.3-2.05-0.55-3.25-0.75l-4.05,4.75c0.633,0.7,1.117,1.817,1.45,3.35c0.033,0.333,0.083,0.55,0.15,0.65l0.4,0.2
			c0.2,0.033,0.35,0.133,0.45,0.3l1.25,0.95c0.566,0.433,1.083,1.1,1.55,2c0.434,1.067,0.783,1.85,1.05,2.35l0.2-2.8l-0.35,1.5
			c-0.2,0-0.517-0.433-0.95-1.3C34.5-47.216,34.267-47.733,34-48.3z"/>
		<path style="fill-rule:evenodd;clip-rule:evenodd;fill:#D6CEAE;" d="M23.8-23.95l0.7,0.65c0.133-0.9,0.566-3.366,1.3-7.4
			l1.15-5.75l-0.8-1.6c-0.767-0.167-1.35-0.25-1.75-0.25c-0.267,0.033-0.6,0.117-1,0.25c-0.533,0.167-0.867,0.267-1,0.3l-0.35,0.05
			c-0.066,0.034-0.4,0.6-1,1.7c-0.366,0.533-0.65,0.966-0.85,1.3c-0.367,0.6-0.55,1.083-0.55,1.45l1.2,5.3
			c0.066,0.2,0.117,0.317,0.15,0.35c0.133,0.133,0.367,0.3,0.7,0.5c0.5,0.434,0.85,0.85,1.05,1.25
			C23.15-24.95,23.5-24.316,23.8-23.95z"/>
		<path style="fill-rule:evenodd;clip-rule:evenodd;fill:#D2C5A1;" d="M6.2-55.899c0.066,0.533-0.05,0.833-0.35,0.9
			c-0.251,0.094-0.368,0.369-0.35,0.825c0.01-0.045,0.126,0.463,0.35,1.525L5-53.85L5.4-43.3l6.3-1.15c0.9,0.067,1.583,0.067,2.05,0
			c0.867-0.1,1.95-0.433,3.25-1c0.233-0.1,0.367-0.167,0.4-0.2c0.034-0.033,0.083-0.184,0.15-0.45c0.434-1.434,0.667-2.816,0.7-4.15
			c0.033-0.867,0.2-1.817,0.5-2.85c-0.167-0.066-0.283-0.417-0.35-1.05l-0.95-2.25c-0.167-0.3-0.2-0.634-0.1-1
			c0.033-0.067,0.167-0.384,0.4-0.95c0.066-0.2,0.133-0.316,0.2-0.35c0.133-0.067,0.566,0.133,1.3,0.6c0.6,0.4,0.934,0.6,1,0.6
			c0.133,0,0.3-0.1,0.5-0.3l0.55-0.85l0.35-0.4c0.034-0.1,0.034-0.183,0-0.25C13.783-58.899,8.633-57.767,6.2-55.899z"/>
		<path style="fill-rule:evenodd;clip-rule:evenodd;fill:#D2C5A1;" d="M6.3-7.649l0.25,0.4c0.233,0.133,0.6-0.15,1.1-0.85
			c0.5-0.633,1.383-1.3,2.65-2l4.8-5.25l0.15-0.45l-0.05-1.7c0.1-1,0.6-2.017,1.5-3.05c0.167-0.167,0.35-0.233,0.55-0.2
			c0.133,0,0.367,0.033,0.7,0.1c0.133-0.333,0.183-0.567,0.15-0.7l0.4-2.85L18-23.95c-1.3,0.233-2.283,0.467-2.95,0.7
			c-0.866,0.367-1.533,0.65-2,0.85c-0.833,0.333-1.517,0.566-2.05,0.7c-0.167,0.133-0.367,0.167-0.6,0.1l-4.35-6.9
			c0.134,3.9,0.217,8.55,0.25,13.95V-7.649z"/>
		<path style="fill-rule:evenodd;clip-rule:evenodd;fill:#D2C5A1;" d="M14.8-33.3c0.434,0.934,0.7,1.617,0.8,2.05
			c0.3,1.3,0.783,2.466,1.45,3.5c0.367,0.633,0.9,1.35,1.6,2.15l0.05,0.05l0.15-1.35L18.9-27l-0.5-0.7
			c-0.633-1.067-1.133-1.95-1.5-2.65l-1.55-3.25c-0.034-0.167-0.017-0.566,0.05-1.2l-0.05-2.65c0-0.466-0.034-0.733-0.1-0.8
			c-0.333-0.333-0.684-0.567-1.05-0.7c-1.9-1.033-3.417-1.683-4.55-1.95c-0.267-0.134-0.566-0.2-0.9-0.2l-0.15-0.05
			c-0.534,0.333-1.233,1.183-2.1,2.55l-0.8,1.7l0.1,2.55h0.05c1.4-0.1,3.533-0.217,6.4-0.35c0.6-0.133,1.267-0.117,2,0.05
			c0,0.167,0.066,0.383,0.2,0.65C14.617-33.7,14.733-33.466,14.8-33.3z"/>
		<path style="fill-rule:evenodd;clip-rule:evenodd;fill:#EEE5CA;" d="M41.75-45c0.133,0,0.267,0.067,0.4,0.2l1.7,1.55
			c0.7,0.733,1.267,1.267,1.7,1.6c0.733,0.667,1.417,1.066,2.05,1.2c0-0.033,0.083-0.133,0.25-0.3c0.466-0.467,0.95-0.883,1.45-1.25
			c0.1-0.067,1.217-0.784,3.35-2.15l-0.25-3.2c-0.133-1.934-0.15-3.367-0.05-4.3l-0.2-0.05c-1.6-0.567-4.017-1.6-7.25-3.1
			l-0.05,0.35c-0.233,1.034-0.867,2.267-1.9,3.7c-0.3,0.333-0.517,0.583-0.65,0.75c-0.2,0.3-0.316,0.583-0.35,0.85L41.8-46.8
			C41.6-45.866,41.583-45.267,41.75-45z"/>
		<path style="fill-rule:evenodd;clip-rule:evenodd;fill:#EEE5CA;" d="M38.7-20.95c0,0.567,0.05,0.967,0.15,1.2
			c0.033,0.1,0.15,0.216,0.35,0.35c0.033,0.033,0.316,0.65,0.85,1.85c0.434,1.033,0.7,1.634,0.8,1.8c0.066,0,0.216-0.183,0.45-0.55
			c0.333-0.433,0.817-0.9,1.45-1.4c0.367-0.267,0.917-0.667,1.65-1.2c0.267-0.233,0.434-0.45,0.5-0.65
			c0.367-1.333,0.667-2.566,0.9-3.7l0.45-2.4v-0.1l-5.35-7.65l-0.15,0.3c-0.1,0.6-0.184,1.017-0.25,1.25
			c-0.033,0.1-0.434,1.117-1.2,3.05l-0.5,1.15c-0.066,0.3-0.1,0.467-0.1,0.5c-0.034,0-0.05,0.05-0.05,0.15l-0.05,1.95
			C38.533-23.45,38.566-22.083,38.7-20.95z"/>
		<path style="fill-rule:evenodd;clip-rule:evenodd;fill:#EBE2C8;" d="M34.55-37.1c0.634-1.033,1.1-1.983,1.4-2.85
			c0.3-0.867,0.466-1.417,0.5-1.65l-2.7-4.5l-1.9-0.15l-0.4,1.2c-0.367,0.934-0.884,1.967-1.55,3.1c-0.267,0.4-0.433,0.7-0.5,0.9
			l0.05,0.8c0.366,1.966,0.616,3.45,0.75,4.45c0.1,0.8,0.133,1.3,0.1,1.5c0.1,0.033,0.217,0.017,0.35-0.05
			c0.267-0.066,0.8-0.25,1.6-0.55c0.267-0.134,0.783-0.35,1.55-0.65l0.15-0.25v-0.25C33.983-36.116,34.184-36.466,34.55-37.1z"/>
		<path style="fill-rule:evenodd;clip-rule:evenodd;fill:#E4DABA;" d="M25.1-20.2c0.566-0.6,1.417-1.517,2.55-2.75
			c0.133-0.1,0.3-0.233,0.5-0.4c0.2-0.133,0.317-0.3,0.35-0.5l0.05-2c-0.066-1.333-0.183-3.316-0.35-5.95
			c-0.034-0.833,0-1.767,0.1-2.8l-0.95-4.05L27.3-38.5l-1.5,7.8c-0.733,4.034-1.167,6.5-1.3,7.4c-0.2,1.4-0.316,2.483-0.35,3.25
			c-0.167,0.4-0.167,0.7,0,0.9c0-0.1,0.05-0.167,0.15-0.2L25.1-20.2z"/>
		<path style="fill-rule:evenodd;clip-rule:evenodd;fill:#F3EAD1;" d="M66.5-13.1c1.066-1.867,1.633-4.6,1.7-8.2
			c0-1.933-0.017-5.866-0.05-11.8c0.034-5.467,0.2-9.4,0.5-11.8c0.434-3.267,0.817-7.017,1.15-11.25c-1.267,1.667-2.483,3-3.65,4
			c-0.167,0.233-0.417,0.4-0.75,0.5v2.1c-0.066,0.934-0.083,1.617-0.05,2.05c0.667-0.133,1.216,0,1.65,0.4
			c0.267,0.2,0.383,0.5,0.35,0.9c-0.1,0.467-0.167,0.833-0.2,1.1l-0.6,1.95c-0.133,0.6-0.25,1.066-0.35,1.4
			c-0.167,0.6-0.367,1.033-0.6,1.3l-0.15,0.1l-0.1,6.15c-0.733,1.167-1.267,2.784-1.6,4.85l-0.4,0.15
			c0.433,1.534,0.667,2.683,0.7,3.45c0,1.167-0.267,2.483-0.8,3.95c-0.2,0.567-0.75,1.817-1.65,3.75c0.233,0.067,0.6,0.317,1.1,0.75
			l2.7,2.85C65.733-13.983,66.1-13.533,66.5-13.1z"/>
		<path style="fill-rule:evenodd;clip-rule:evenodd;fill:#EBE5CC;" d="M63.35-29.2l0.4-0.15c0.333-2.066,0.867-3.684,1.6-4.85
			l0.2-8.5l-1.25-0.1c-1.267-0.066-2.183-0.033-2.75,0.1c-0.2,0.067-0.316,0.117-0.35,0.15c-0.034,0.134-0.083,0.283-0.15,0.45
			c-0.466,1-1.133,2.25-2,3.75c-1.133,2-1.833,3.25-2.1,3.75c-0.333,0.667-0.483,1.1-0.45,1.3c0.2,0.467,0.483,0.917,0.85,1.35
			c0.566,0.667,1.066,1.4,1.5,2.2c0.367,0.833,0.65,1.466,0.85,1.9c0.433-0.2,1.066-0.55,1.9-1.05c0.233-0.1,0.533-0.167,0.9-0.2
			C62.667-29.133,62.95-29.166,63.35-29.2z"/>
		<path style="fill-rule:evenodd;clip-rule:evenodd;fill:#D9D3B6;" d="M52.65-15c-0.2-0.9-0.433-2.133-0.7-3.7
			c-0.167-0.867-0.217-1.466-0.15-1.8c-0.333,0.267-0.517,0.583-0.55,0.95c-0.767,1.767-1.417,3.634-1.95,5.6l-0.7,3.1l0.25,1
			c2.7,1.1,4.767,1.717,6.2,1.85C54.217-9.666,53.417-12,52.65-15z"/>
		
			<radialGradient id="SVGID_11_" cx="69.8999" cy="-32.0996" r="66.1" gradientTransform="matrix(1 0 0 -0.9781 0 -63.4946)" gradientUnits="userSpaceOnUse">
			<stop  offset="0" style="stop-color:#809F9A"/>
			<stop  offset="1" style="stop-color:#637871"/>
		</radialGradient>
		<path style="fill-rule:evenodd;clip-rule:evenodd;fill:url(#SVGID_11_);" d="M27.3-16.95l0.35-1.85
			c0.034,0.434,0.15,1.067,0.35,1.9c4.066,0.233,8.367,0.733,12.9,1.5c4.3,0.767,7.65,1.583,10.05,2.45c1.9,0.667,3.8,1.034,5.7,1.1
			c2,0.066,3.833-0.217,5.5-0.85l0.55-2.85l0.1,2.6c1.733-0.8,3.15-1.933,4.25-3.4l0.9-1.45c0.167-0.967,0.25-2.133,0.25-3.5
			c0-1.933-0.017-5.866-0.05-11.8c0.034-5.467,0.2-9.4,0.5-11.8l0.6-5.05c-1.467,1.767-3.6,2.95-6.4,3.55
			c-2.434,0.566-5.467,0.55-9.1-0.05v0.15l-0.1-0.2c-2.733-0.5-5.883-1.35-9.45-2.55c-0.434-0.133-2.95-1.033-7.55-2.7
			c-2.5-0.9-5.183-1.617-8.05-2.15l-0.25,0.35l-0.05-0.4c-5.8-1.067-10.383-1.233-13.75-0.5c-4.233,0.9-7.366,2.517-9.4,4.85
			L5.9-32.1C6.167-26,6.3-19,6.3-11.1l3.05-1.65l1.4-1.05c1.3-0.767,2.8-1.417,4.5-1.95l0.25-0.85l0.05,0.75
			c2-0.566,4.117-0.917,6.35-1.05C23.367-17,25.167-17.017,27.3-16.95z"/>
		<path style="fill-rule:evenodd;clip-rule:evenodd;fill:#8BABAE;" d="M27.3-16.95l0.35-1.85c0.034,0.434,0.15,1.067,0.35,1.9
			c4.066,0.233,8.367,0.733,12.9,1.5c4.3,0.767,7.65,1.583,10.05,2.45c1.9,0.667,3.8,1.034,5.7,1.1c2,0.066,3.833-0.217,5.5-0.85
			l0.55-2.85l0.1,2.6c1.733-0.8,3.15-1.933,4.25-3.4l0.9-1.45c0.167-0.967,0.25-2.133,0.25-3.5c0-1.933-0.017-5.866-0.05-11.8
			c0.034-5.467,0.2-9.4,0.5-11.8l0.6-5.05c-1.467,1.767-3.6,2.95-6.4,3.55c-2.434,0.566-5.467,0.55-9.1-0.05v0.15l-0.1-0.2
			c-2.733-0.5-5.883-1.35-9.45-2.55c-0.434-0.133-2.95-1.033-7.55-2.7c-2.5-0.9-5.183-1.617-8.05-2.15l-0.25,0.35l-0.05-0.4
			c-5.8-1.067-10.383-1.233-13.75-0.5c-4.233,0.9-7.366,2.517-9.4,4.85L5.9-32.1C6.167-26,6.3-19,6.3-11.1l3.05-1.65l1.4-1.05
			c1.3-0.767,2.8-1.417,4.5-1.95l0.25-0.85l0.05,0.75c2-0.566,4.117-0.917,6.35-1.05C23.367-17,25.167-17.017,27.3-16.95z"/>
		
			<use xlink:href="#zzz_x5F_miscellaneous_x2F_FlashAICB_copy_3_x2F_Layer_107_x2F__x3C_Path_x3E__x5F_24"  width="46.881" height="32.57" x="0.019" y="-32.57" transform="matrix(1 0 0 1 12.5 -16.7998)" style="overflow:visible;opacity:0.6094;enable-background:new    ;"/>
		<path style="fill-rule:evenodd;clip-rule:evenodd;fill:#878156;" d="M25-24.399c-1.167-0.4-1.783-1.15-1.85-2.25
			c-0.066-1,0.133-1.517,0.6-1.55c0.833-0.067,1.35-0.2,1.55-0.4c0.3-0.267,0.5-0.717,0.6-1.35c0.133-0.7,0.067-1.2-0.2-1.5
			c-0.4-0.466-1.267-0.733-2.6-0.8c-1.567-0.034-2.55-0.167-2.95-0.4c-0.566-0.3-1.1-0.717-1.6-1.25
			c-0.566-0.567-0.933-1.117-1.1-1.65c-0.167-0.5-0.117-1.167,0.15-2c0.267-0.833,0.333-1.467,0.2-1.9
			c-2.233-0.333-3.45-1.533-3.65-3.6c-0.133-1.333,0.117-2.217,0.75-2.65c0.467-0.3,1.45-0.417,2.95-0.35
			c1.066,0.033,2.333,0.4,3.8,1.1c1.633,0.8,2.867,1.267,3.7,1.4c2.833,0.467,4.55,0.184,5.15-0.85c0.233-0.367,0.3-0.934,0.2-1.7
			c-0.034-0.533,0.283-0.983,0.95-1.35c0.967-0.533,2.184-0.583,3.65-0.15c1.467,0.467,2.434,1.184,2.9,2.15
			c0.1,0.2,0.183,0.867,0.25,2c0.066,0.933,0.3,1.55,0.7,1.85c0.534,0.333,2.517,0.35,5.95,0.05c0.933-0.1,1.5-0.283,1.7-0.55
			c0.4-0.467,0.817-0.8,1.25-1c1.1-0.533,2.5-0.684,4.2-0.45c0.6,0.067,1.733,0.367,3.4,0.9c1.267,0.433,2.434,0.6,3.5,0.5
			c-0.1-1.367,0.3-2.667,1.2-3.9C60.15-46.017,59.833-46,59.4-46c-0.6,0.966-0.95,2.017-1.05,3.15c-0.8,0-1.817-0.233-3.05-0.7
			c-1.333-0.433-2.316-0.683-2.95-0.75c-1.867-0.267-3.417-0.083-4.65,0.55c-0.567,0.267-1.05,0.633-1.45,1.1
			c-0.1,0.167-0.517,0.283-1.25,0.35c-3,0.333-4.8,0.35-5.4,0.05c-0.233-0.167-0.35-0.717-0.35-1.65
			c-0.066-0.9-0.184-1.517-0.35-1.85c-0.6-1.167-1.733-2.017-3.4-2.55c-1.633-0.5-3.05-0.433-4.25,0.2
			c-0.667,0.333-1.083,0.733-1.25,1.2c-0.066,0.267-0.083,0.633-0.05,1.1c0.066,0.434,0.017,0.783-0.15,1.05
			c-0.167,0.333-0.65,0.533-1.45,0.6c-0.8,0.1-1.75,0.05-2.85-0.15c-0.7-0.1-1.767-0.483-3.2-1.15
			c-1.733-0.867-3.216-1.317-4.45-1.35c-1.934-0.066-3.2,0.2-3.8,0.8c-0.6,0.667-0.833,1.667-0.7,3c0.2,2.333,1.45,3.716,3.75,4.15
			c0,0.066-0.083,0.434-0.25,1.1c-0.3,1.033-0.367,1.833-0.2,2.4c0.2,0.633,0.617,1.283,1.25,1.95c0.6,0.6,1.217,1.066,1.85,1.4
			c0.5,0.267,1.45,0.433,2.85,0.5c1.367,0,2.2,0.167,2.5,0.5c0.1,0.133,0.1,0.433,0,0.9c-0.067,0.467-0.184,0.783-0.35,0.95
			c-0.133,0.133-0.367,0.2-0.7,0.2c-0.6,0-1.017,0.117-1.25,0.35c-0.333,0.333-0.483,1-0.45,2c0.066,1.3,0.7,2.217,1.9,2.75
			c0.767,0.333,1.9,0.533,3.4,0.6l0.1,1.35c0.1,1.267,0.233,2.167,0.4,2.7c0.3,0.9,0.867,1.7,1.7,2.4l1.4,0.15
			c-1.333-0.867-2.133-1.917-2.4-3.15c-0.2-0.767-0.35-2.15-0.45-4.15C26.767-24.017,25.633-24.166,25-24.399z"/>
		<path style="fill-rule:evenodd;clip-rule:evenodd;fill:#D6CC8B;" d="M27.4-25.1c-0.5-0.367-0.733-0.767-0.7-1.2
			c0.033-0.4,0.283-0.75,0.75-1.05c0.233-0.167,0.566-0.333,1-0.5c0.366-0.167,0.616-0.417,0.75-0.75
			c0.033-0.1,0.05-0.583,0.05-1.45c-0.033-0.7-0.233-1.15-0.6-1.35c-0.133-0.067-0.7-0.184-1.7-0.35
			c-0.934-0.133-1.517-0.35-1.75-0.65c-0.167-0.167-0.333-0.7-0.5-1.6c-0.967-0.167-1.583-0.3-1.85-0.4
			c-0.6-0.2-1.117-0.583-1.55-1.15c-0.3-0.366-0.483-0.8-0.55-1.3c0-0.066,0-0.55,0-1.45c0-1.1,0.017-1.717,0.05-1.85
			c0.167-0.533,0.65-0.85,1.45-0.95c0.633-0.066,1.633-0.05,3,0.05c1.333,0.1,2.333,0.1,3,0c0.467-0.066,1.017-0.366,1.65-0.9
			c0.633-0.533,1.217-0.817,1.75-0.85c1.333-0.167,2.25,0.117,2.75,0.85c1.067,1.534,1.633,2.317,1.7,2.35
			c0.4,0.333,0.783,0.55,1.15,0.65c0.233,0.067,0.684,0.133,1.35,0.2c0.566,0.033,1.517,0.133,2.85,0.3
			c1.167,0.067,2.083-0.05,2.75-0.35c0.233-0.1,0.85-0.333,1.85-0.7c0.867-0.4,1.3-0.733,1.3-1c0.233-0.034,1.316-0.05,3.25-0.05
			c0.767,0,1.583,0.25,2.45,0.75c1.267,0.733,2.034,1.15,2.3,1.25c1.233,0.5,2.583,0.45,4.05-0.15c1.434-0.567,2.434-1.433,3-2.6
			c0.167-0.333,0.284-0.883,0.35-1.65c0.066-0.733,0.2-1.267,0.4-1.6c0.367-0.633,1.2-1.05,2.5-1.25c1-0.167,2.034-0.183,3.1-0.05
			l0.45-3.8l-0.25,0.05c-1.434,1.566-3.467,2.633-6.1,3.2c-0.7,0.167-1.534,0.283-2.5,0.35c-0.9,1.233-1.3,2.533-1.2,3.9
			c-1.066,0.1-2.233-0.067-3.5-0.5c-1.667-0.533-2.8-0.833-3.4-0.9c-1.7-0.233-3.1-0.083-4.2,0.45c-0.433,0.2-0.85,0.533-1.25,1
			c-0.2,0.267-0.767,0.45-1.7,0.55c-3.434,0.3-5.417,0.283-5.95-0.05c-0.4-0.3-0.633-0.917-0.7-1.85c-0.067-1.133-0.15-1.8-0.25-2
			c-0.467-0.966-1.434-1.683-2.9-2.15c-1.466-0.434-2.683-0.383-3.65,0.15c-0.667,0.367-0.983,0.817-0.95,1.35
			c0.1,0.767,0.033,1.333-0.2,1.7c-0.6,1.033-2.316,1.316-5.15,0.85c-0.833-0.133-2.067-0.6-3.7-1.4c-1.466-0.7-2.733-1.067-3.8-1.1
			c-1.5-0.066-2.483,0.05-2.95,0.35c-0.633,0.433-0.883,1.317-0.75,2.65c0.2,2.067,1.417,3.267,3.65,3.6
			c0.134,0.433,0.067,1.067-0.2,1.9c-0.267,0.833-0.317,1.5-0.15,2c0.167,0.533,0.533,1.083,1.1,1.65c0.5,0.533,1.034,0.95,1.6,1.25
			c0.4,0.233,1.383,0.366,2.95,0.4c1.333,0.067,2.2,0.333,2.6,0.8c0.267,0.3,0.333,0.8,0.2,1.5c-0.1,0.633-0.3,1.083-0.6,1.35
			c-0.2,0.2-0.716,0.333-1.55,0.4c-0.467,0.034-0.667,0.55-0.6,1.55c0.067,1.1,0.684,1.85,1.85,2.25
			c0.633,0.233,1.767,0.383,3.4,0.45c0.1,2,0.25,3.383,0.45,4.15c0.267,1.233,1.066,2.283,2.4,3.15l2.7,0.25
			c-1.134-1.167-1.817-1.884-2.05-2.15c-0.333-0.467-0.55-0.883-0.65-1.25c-0.1-0.333-0.15-0.833-0.15-1.5c0-0.3,0-0.75,0-1.35
			c-0.034-0.467-0.184-0.867-0.45-1.2c-0.333-0.434-0.867-0.7-1.6-0.8C28.25-24.716,27.7-24.866,27.4-25.1z"/>
		<path style="fill-rule:evenodd;clip-rule:evenodd;fill:#987653;" d="M52.8-35.7c0.1-0.7,0.4-1.15,0.9-1.35
			c0.866-0.333,1.483-0.05,1.85,0.85c0.333,0.867,0.233,1.5-0.3,1.9l0.5,0.25c-0.033,0.267-0.434,0.384-1.2,0.35
			c-0.733-0.033-1.2-0.15-1.4-0.35C52.816-34.45,52.7-35,52.8-35.7z M66-36.5c-0.733-0.467-0.934-1.067-0.6-1.8
			c-1.3-0.167-1.283-0.866,0.05-2.1c1.333-1.267,2.167-1.317,2.5-0.15l-0.25,3.5C67.3-36.25,66.733-36.066,66-36.5z M34.05-37
			l0.25,1.2l-1.35-0.25c-0.267-0.167-0.45-0.467-0.55-0.9C32.934-37.149,33.483-37.166,34.05-37z M36.55-35.35
			c0.4,0.333,0.534,0.767,0.4,1.3L35.9-34.3c-0.5-0.4-0.767-0.816-0.8-1.25C35.667-35.716,36.15-35.649,36.55-35.35z M43.85-34.3
			c-0.367-0.3-0.55-0.55-0.55-0.75c-0.033-0.433,0.25-0.683,0.85-0.75c0.333-0.066,0.85-0.116,1.55-0.15v1.9l-1.05,0.25
			C44.45-33.833,44.184-34,43.85-34.3z M41.95-31.75c0.1,0.5,0.033,1.2-0.2,2.1c-0.233,0.933-0.333,1.633-0.3,2.1L40.4-27.8
			c0-0.4,0.034-1.05,0.1-1.95c0-0.833-0.1-1.483-0.3-1.95C40.5-31.8,41.083-31.816,41.95-31.75z M44.1-26.05l-0.8-0.75
			c-0.1-0.433-0.233-1-0.4-1.7c0-0.467,0.467-0.65,1.4-0.55c0.167,0.4,0.184,0.9,0.05,1.5C44.184-26.716,44.1-26.216,44.1-26.05z
			 M35.4-25.1c0-0.434-0.066-0.75-0.2-0.95c0.767,0.033,1.866,0.134,3.3,0.3c0.133,1.5-0.117,3.067-0.75,4.7L35.9-21.8
			c0.034-0.5-0.133-1.25-0.5-2.25C35.4-24.149,35.4-24.5,35.4-25.1z M42-15.8c-0.867-0.167-1.233-0.583-1.1-1.25
			c0.1-0.366,0.284-0.6,0.55-0.7c0.066,0,0.433-0.017,1.1-0.05c0.7,0,1.233,0.1,1.6,0.3c0.5,0.267,0.483,0.667-0.05,1.2L42-15.8z
			 M57.5-24.8c-0.267-0.566-0.717-1.417-1.35-2.55c-0.566-1.066-0.933-1.967-1.1-2.7c0.6,0,1.467-0.066,2.6-0.2
			c0.7-0.067,1.1-0.083,1.2-0.05c0.1,0.067,0.233,0.333,0.4,0.8c0.167,0.6,0.217,1.533,0.15,2.8c-0.133,1.333-0.2,2.267-0.2,2.8v4.1
			l-0.8-1.75c0.133-0.433,0.067-1-0.2-1.7C58.066-23.649,57.833-24.166,57.5-24.8z M49.7-28.05c-0.2,1.467-0.3,2.55-0.3,3.25
			l-1.3-3.5c-0.4-0.3-0.817-0.767-1.25-1.4c-0.434-0.667-0.65-1.183-0.65-1.55c0.833-0.133,2.083-0.133,3.75,0
			C49.983-30.517,49.9-29.45,49.7-28.05z M50.5-21.1c0.566,0.066,1.5,0.017,2.8-0.15c1.233-0.133,2.15-0.133,2.75,0v1.7
			c0,0.567-0.083,1.367-0.25,2.4c-0.2,1.1-0.3,1.9-0.3,2.4l-0.55-1.3c-0.5-0.566-1.267-1.383-2.3-2.45
			C51.75-19.466,51.033-20.333,50.5-21.1z M62.7-15.5c-0.567,0-0.983-0.183-1.25-0.55c-0.267-0.366-0.25-0.8,0.05-1.3
			c-1.066-0.333-1.167-0.85-0.3-1.55c0.866-0.7,1.683-0.75,2.45-0.15c0-0.3,0.117-0.533,0.35-0.7c0.233-0.133,0.5-0.15,0.8-0.05
			c0.3,0.1,0.467,0.3,0.5,0.6c0.034,0.367,0.05,0.667,0.05,0.9l0.7,0.05c0.1,0.767,0.034,1.283-0.2,1.55
			c-0.233,0.267-0.767,0.4-1.6,0.4l-1.3,0.75L62.7-15.5z M26.7-26.3c-0.034,0.434,0.2,0.833,0.7,1.2c0.3,0.233,0.85,0.383,1.65,0.45
			c0.733,0.1,1.267,0.366,1.6,0.8c0.267,0.333,0.417,0.733,0.45,1.2c0,0.6,0,1.05,0,1.35c0,0.667,0.05,1.167,0.15,1.5
			c0.1,0.367,0.316,0.783,0.65,1.25c0.233,0.267,0.917,0.983,2.05,2.15c7.267,0.866,12.933,2.017,17,3.45
			c1.9,0.667,3.8,1.034,5.7,1.1c2,0.066,3.833-0.217,5.5-0.85l0.55-2.8l0.1,2.55c1.733-0.8,3.15-1.933,4.25-3.4l0.9-1.45
			c0.167-0.967,0.25-2.133,0.25-3.5l-0.05-6.8l-1-0.7c-0.066,0.533-0.233,0.934-0.5,1.2c-0.3,0.333-0.716,0.45-1.25,0.35
			c-0.6-0.1-0.966-0.45-1.1-1.05c-0.066-0.3-0.066-0.866,0-1.7c-0.8,1.033-1.35,1.017-1.65-0.05c-0.243-0.971-0.126-1.737,0.35-2.3
			c-0.188,0.134-0.472,0.151-0.85,0.05c-0.566-1.933,1.434-2.85,6-2.75c0.067-4.3,0.233-7.583,0.5-9.85l0.1-0.95
			c-1.066-0.133-2.1-0.117-3.1,0.05c-1.3,0.2-2.133,0.617-2.5,1.25c-0.2,0.333-0.333,0.867-0.4,1.6
			c-0.066,0.767-0.184,1.317-0.35,1.65c-0.566,1.167-1.566,2.033-3,2.6c-1.466,0.6-2.816,0.65-4.05,0.15
			c-0.267-0.1-1.034-0.517-2.3-1.25c-0.866-0.5-1.683-0.75-2.45-0.75c-1.934,0-3.017,0.017-3.25,0.05c0,0.267-0.434,0.6-1.3,1
			c-1,0.367-1.616,0.6-1.85,0.7c-0.667,0.3-1.583,0.417-2.75,0.35c-1.333-0.167-2.284-0.267-2.85-0.3
			c-0.667-0.067-1.117-0.133-1.35-0.2c-0.367-0.1-0.75-0.317-1.15-0.65c-0.067-0.033-0.633-0.816-1.7-2.35
			c-0.5-0.733-1.417-1.017-2.75-0.85c-0.533,0.033-1.117,0.317-1.75,0.85c-0.633,0.534-1.183,0.833-1.65,0.9
			c-0.667,0.1-1.667,0.1-3,0c-1.367-0.1-2.367-0.116-3-0.05c-0.8,0.1-1.283,0.417-1.45,0.95c-0.033,0.133-0.05,0.75-0.05,1.85
			c0,0.9,0,1.384,0,1.45c0.066,0.5,0.25,0.934,0.55,1.3c0.434,0.567,0.95,0.95,1.55,1.15c0.267,0.1,0.883,0.233,1.85,0.4
			c0.167,0.9,0.333,1.433,0.5,1.6c0.233,0.3,0.816,0.517,1.75,0.65c1,0.167,1.566,0.283,1.7,0.35c0.367,0.2,0.567,0.65,0.6,1.35
			c0,0.867-0.017,1.35-0.05,1.45c-0.134,0.333-0.384,0.583-0.75,0.75c-0.434,0.167-0.767,0.333-1,0.5
			C26.983-27.05,26.733-26.7,26.7-26.3z"/>
		<path style="fill-rule:evenodd;clip-rule:evenodd;fill:#745B3A;" d="M38.5-25.75c-1.434-0.167-2.533-0.267-3.3-0.3
			c0.133,0.2,0.2,0.517,0.2,0.95c0,0.6,0,0.95,0,1.05c0.367,1,0.534,1.75,0.5,2.25l1.85,0.75C38.383-22.683,38.633-24.25,38.5-25.75
			z"/>
		<path style="fill-rule:evenodd;clip-rule:evenodd;fill:#745B3A;" d="M42.55-17.8c-0.667,0.033-1.033,0.05-1.1,0.05
			c-0.267,0.1-0.45,0.333-0.55,0.7c-0.133,0.667,0.233,1.083,1.1,1.25l2.1-0.5c0.533-0.533,0.55-0.933,0.05-1.2
			C43.783-17.7,43.25-17.8,42.55-17.8z"/>
		<path style="fill-rule:evenodd;clip-rule:evenodd;fill:#745B3A;" d="M56.05-21.25c-0.6-0.133-1.517-0.133-2.75,0
			c-1.3,0.167-2.233,0.216-2.8,0.15c0.533,0.767,1.25,1.633,2.15,2.6c1.034,1.067,1.8,1.883,2.3,2.45l0.55,1.3
			c0-0.5,0.1-1.3,0.3-2.4c0.167-1.033,0.25-1.833,0.25-2.4V-21.25z"/>
		<path style="fill-rule:evenodd;clip-rule:evenodd;fill:#745B3A;" d="M57.65-30.25c-1.133,0.133-2,0.2-2.6,0.2
			c0.167,0.733,0.534,1.634,1.1,2.7c0.633,1.133,1.083,1.983,1.35,2.55c0.333,0.634,0.566,1.15,0.7,1.55
			c0.267,0.7,0.333,1.267,0.2,1.7l0.8,1.75v-4.1c0-0.533,0.066-1.467,0.2-2.8c0.067-1.267,0.017-2.2-0.15-2.8
			c-0.167-0.467-0.3-0.733-0.4-0.8C58.75-30.333,58.35-30.316,57.65-30.25z"/>
		<path style="fill-rule:evenodd;clip-rule:evenodd;fill:#745B3A;" d="M49.95-31.25c-1.667-0.133-2.917-0.133-3.75,0
			c0,0.367,0.216,0.883,0.65,1.55c0.433,0.633,0.85,1.1,1.25,1.4l1.3,3.5c0-0.7,0.1-1.783,0.3-3.25
			C49.9-29.45,49.983-30.517,49.95-31.25z"/>
		<path style="fill-rule:evenodd;clip-rule:evenodd;fill:#745B3A;" d="M43.3-35.05c0,0.2,0.184,0.45,0.55,0.75
			c0.333,0.3,0.6,0.467,0.8,0.5l1.05-0.25v-1.9c-0.7,0.034-1.217,0.083-1.55,0.15C43.55-35.733,43.267-35.483,43.3-35.05z"/>
		<path style="fill-rule:evenodd;clip-rule:evenodd;fill:#745B3A;" d="M41.95-31.75c-0.867-0.067-1.45-0.05-1.75,0.05
			c0.2,0.467,0.3,1.117,0.3,1.95c-0.066,0.9-0.1,1.55-0.1,1.95l1.05,0.25c-0.034-0.467,0.066-1.167,0.3-2.1
			C41.983-30.55,42.05-31.25,41.95-31.75z"/>
		<path style="fill-rule:evenodd;clip-rule:evenodd;fill:#745B3A;" d="M44.3-29.05c-0.933-0.1-1.4,0.083-1.4,0.55
			c0.167,0.7,0.3,1.267,0.4,1.7l0.8,0.75c0-0.167,0.083-0.667,0.25-1.5C44.483-28.149,44.467-28.649,44.3-29.05z"/>
		<path style="fill-rule:evenodd;clip-rule:evenodd;fill:#745B3A;" d="M61.5-17.35c-0.3,0.5-0.316,0.934-0.05,1.3
			c0.267,0.367,0.683,0.55,1.25,0.55l0.25-0.05l1.3-0.75c0.833,0,1.367-0.133,1.6-0.4c0.233-0.267,0.3-0.783,0.2-1.55l-0.7-0.05
			c0-0.233-0.017-0.533-0.05-0.9c-0.033-0.3-0.2-0.5-0.5-0.6c-0.3-0.1-0.566-0.083-0.8,0.05c-0.233,0.167-0.35,0.4-0.35,0.7
			c-0.767-0.6-1.583-0.55-2.45,0.15C60.333-18.2,60.434-17.683,61.5-17.35z"/>
		<path style="fill-rule:evenodd;clip-rule:evenodd;fill:#745B3A;" d="M65.4-27.25c0.534,0.1,0.95-0.017,1.25-0.35
			c0.267-0.267,0.434-0.667,0.5-1.2l1,0.7v-6.95c-4.566-0.1-6.566,0.817-6,2.75c0.378,0.101,0.662,0.084,0.85-0.05
			c-0.476,0.563-0.593,1.329-0.35,2.3c0.3,1.067,0.85,1.083,1.65,0.05c-0.066,0.833-0.066,1.4,0,1.7
			C64.434-27.7,64.8-27.35,65.4-27.25z"/>
		<path style="fill-rule:evenodd;clip-rule:evenodd;fill:#745B3A;" d="M67.95-40.55c-0.333-1.167-1.167-1.116-2.5,0.15
			c-1.333,1.233-1.35,1.933-0.05,2.1c-0.333,0.733-0.133,1.333,0.6,1.8c0.733,0.433,1.3,0.25,1.7-0.55L67.95-40.55z"/>
		<path style="fill-rule:evenodd;clip-rule:evenodd;fill:#745B3A;" d="M53.15-34.05c0.2,0.2,0.667,0.317,1.4,0.35
			c0.767,0.034,1.167-0.083,1.2-0.35l-0.5-0.25c0.533-0.4,0.633-1.033,0.3-1.9c-0.366-0.9-0.983-1.183-1.85-0.85
			c-0.5,0.2-0.8,0.65-0.9,1.35C52.7-35,52.816-34.45,53.15-34.05z"/>
		<path style="fill-rule:evenodd;clip-rule:evenodd;fill:#745B3A;" d="M36.95-34.05c0.133-0.533,0-0.967-0.4-1.3
			c-0.4-0.3-0.883-0.367-1.45-0.2c0.033,0.434,0.3,0.85,0.8,1.25L36.95-34.05z"/>
		<path style="fill-rule:evenodd;clip-rule:evenodd;fill:#745B3A;" d="M32.4-36.95c0.1,0.433,0.284,0.733,0.55,0.9l1.35,0.25
			L34.05-37C33.483-37.166,32.934-37.149,32.4-36.95z"/>
		
			<use xlink:href="#zzz_x5F_miscellaneous_x2F_FlashAICB_copy_3_x2F_Layer_107_x2F__x3C_Path_x3E__x5F_6"  width="64.1" height="43.798" y="-43.798" transform="matrix(1 0 0 1 5.1499 -11.1001)" style="overflow:visible;enable-background:new    ;"/>
		<path style="fill-rule:evenodd;clip-rule:evenodd;fill:#2C200A;" d="M29.65-43.149c-0.1-0.134-0.3-0.184-0.6-0.15
			c-0.333,0.033-0.533,0.1-0.6,0.2c0.167,0.066,0.383,0.083,0.65,0.05C29.367-43.05,29.55-43.083,29.65-43.149z"/>
		<path style="fill-rule:evenodd;clip-rule:evenodd;fill:#2C200A;" d="M19.45-33.399c0-0.233-0.017-0.567-0.05-1
			c-0.133,0.033-0.25,0.116-0.35,0.25c-0.133,0.167-0.216,0.267-0.25,0.3c0-0.267,0.067-0.7,0.2-1.3c0.1-0.634,0.15-1.067,0.15-1.3
			c0.267-0.1,0.733-0.2,1.4-0.3l-0.1-0.15c0.2-0.067,0.35-0.067,0.45,0c-0.066-0.067-0.066-0.083,0-0.05
			c0.133,0.034,0.233,0.017,0.3-0.05c-0.015-0.061-0.04-0.094-0.075-0.1h0.025c0.034,0,0.117,0.017,0.25,0.05l-0.15-0.15
			c0.434-0.033,0.816-0.167,1.15-0.4c1.467-0.733,2.267-1.467,2.4-2.2c0.067,0.067,0.15-0.033,0.25-0.3
			c0.134-0.233,0.184-0.417,0.15-0.55c0.033,0,0.05,0.05,0.05,0.15c0.2-0.167,0.35-0.633,0.45-1.4c0.1-0.833,0.183-1.317,0.25-1.45
			c0.633-0.2,1.35-0.35,2.15-0.45c0.066,0.033,0.1,0.15,0.1,0.35c-0.034,0.233-0.017,0.367,0.05,0.4c0.1-0.066,0.133-0.233,0.1-0.5
			c0-0.133-0.017-0.3-0.05-0.5c0.067,0.067,0.217,0.1,0.45,0.1c0.267,0,0.467-0.033,0.6-0.1c-0.067-0.167-0.367-0.183-0.9-0.05
			c-0.167-0.133-0.233-0.35-0.2-0.65c0.066-0.1,0.3-0.15,0.7-0.15c0.366-0.033,0.566-0.067,0.6-0.1c-0.033-0.1-0.25-0.133-0.65-0.1
			c-0.466,0.033-0.733,0.05-0.8,0.05v0.85l-2.2-0.3c-1.2-3.9-3.65-6-7.35-6.3c-0.2-0.4-0.383-1.083-0.55-2.05
			c0.033-0.033,0.15-0.066,0.35-0.1c0.133-0.033,0.183-0.083,0.15-0.15l-0.65,0.05c-0.3,0-0.467-0.133-0.5-0.4
			c0.033-0.167,0.133-0.3,0.3-0.4c0.067,0.033,0.067,0.05,0,0.05l-0.15,0.1c0.066,0.034,0.2,0,0.4-0.1
			c0.2-0.066,0.333-0.167,0.4-0.3h-0.05c0.133-0.1,0.217-0.217,0.25-0.35c0.033-0.333-0.15-0.5-0.55-0.5
			c-0.367-0.033-0.6,0.067-0.7,0.3l0.6-0.1c0.233-0.067,0.383,0,0.45,0.2c0.034,0.1-0.233,0.367-0.8,0.8
			c-0.467,0.333-0.434,0.633,0.1,0.9c0,0.233-0.083,0.934-0.25,2.1c-3.767,0.466-6,2.733-6.7,6.8c-0.633,0.2-1.333,0.35-2.1,0.45
			c-0.133-0.133-0.2-0.4-0.2-0.8h-0.4c-0.034,0.333-0.117,0.517-0.25,0.55C7.633-43.816,7.6-44,7.6-44.3H7.15
			c-0.233,0.833-0.4,1.483-0.5,1.95c0.2-0.434,0.434-0.983,0.7-1.65c0.133,0.1,0.167,0.3,0.1,0.6H7.9l0.2-0.65
			c0.1,0.134,0.167,0.434,0.2,0.9c0.034,0.467,0.134,0.767,0.3,0.9c0.066-0.1,0.05-0.367-0.05-0.8c0.367-0.066,1.134,0.033,2.3,0.3
			c0.767,4,3.117,6.133,7.05,6.4c0.367,0.967,0.583,1.583,0.65,1.85c0.134,0.8,0,1.4-0.4,1.8c-0.133-0.2-0.183-0.183-0.15,0.05
			c-0.167-0.2-0.2-0.55-0.1-1.05c0.067-0.4,0.05-0.633-0.05-0.7c-0.067,0.2-0.083,0.517-0.05,0.95c0,0.567,0,0.933,0,1.1
			c0.333-0.066,0.617-0.3,0.85-0.7c0.267-0.533,0.45-0.85,0.55-0.95c0.066,0.133,0.1,0.417,0.1,0.85c-0.033,0.4,0,0.65,0.1,0.75
			C19.467-32.6,19.483-32.933,19.45-33.399z M23.9-38.75c-0.066-0.1-0.066-0.183,0-0.25c-0.667-0.833-1.333-1.867-2-3.1
			c-0.033-0.066-0.1-0.133-0.2-0.2c-0.1-0.033-0.117-0.083-0.05-0.15c2.2-0.5,3.567-0.75,4.1-0.75c-0.2,1.9-0.816,3.367-1.85,4.4
			c0.067,0.033,0.133,0.017,0.2-0.05c0.066-0.066,0.1-0.083,0.1-0.05C24.1-38.7,24-38.649,23.9-38.75z M18.5-35.399l-1.65-6.65
			c0.3-0.267,0.767-0.683,1.4-1.25l0.35,7.75C18.6-35.517,18.566-35.466,18.5-35.399z M19.55-38.899c0-0.434,0.1-1.05,0.3-1.85
			c0.9,0.4,2.167,1.083,3.8,2.05c-0.433,0.467-1.083,0.883-1.95,1.25c-0.167,0.067-0.967,0.35-2.4,0.85
			c0-0.7,0.009-1.217,0.025-1.55c0.022,0.019,0.047,0.036,0.075,0.05c0.1-0.233,0.117-0.566,0.05-1
			C19.483-39.066,19.517-39,19.55-38.899z M20.15-42.1c0,0.566-0.083,0.917-0.25,1.05c0-0.033,0.017-0.233,0.05-0.6
			C19.983-41.883,20.05-42.033,20.15-42.1z M18.35-43.95v-0.15c-0.233-3.7-0.317-6.184-0.25-7.45l1.55,6.35
			C19.117-44.6,18.684-44.183,18.35-43.95z M21.35-45.35c0,0.1,0.017,0.117,0.05,0.05c0.333-0.767,0.934-1.917,1.8-3.45
			c1.366,1.3,2.133,2.683,2.3,4.15l-2.05-0.2c-1-0.066-1.617-0.15-1.85-0.25C21.333-45.05,21.25-45.149,21.35-45.35z M22.8-43.7
			c1.767-0.1,3.117-0.133,4.05-0.1l-6.9,1.45l-1.4-1.25C19.45-43.6,20.867-43.633,22.8-43.7z M17.8-36.6
			c-2.167-0.2-3.667-0.767-4.5-1.7c1.833-1.1,3.083-1.816,3.75-2.15c0.267,0.9,0.45,1.583,0.55,2.05c0.233,0.866,0.3,1.533,0.2,2
			C17.767-36.5,17.767-36.566,17.8-36.6z M11-42.75c1.934,0.2,3.35,0.417,4.25,0.65c-0.867,1.633-1.6,2.8-2.2,3.5
			C12.017-39.666,11.333-41.05,11-42.75z M16.6-45c0.7,0.633,1.133,1.05,1.3,1.25c-3.9,0.233-6.633,0.317-8.2,0.25L16.6-45z
			 M10.85-44.05c0.133-1.533,0.767-2.917,1.9-4.15c1.333,1.933,2.083,3.067,2.25,3.4C13.133-44.333,11.75-44.083,10.85-44.05z
			 M14.5-49.75c0.167-0.067,0.566-0.217,1.2-0.45c0.633-0.233,1.167-0.317,1.6-0.25l-0.55,3.8c-0.267-0.1-1.55-0.7-3.85-1.8
			c0.333-0.333,0.784-0.7,1.35-1.1c-0.1-0.033-0.2,0-0.3,0.1c-0.1,0.1-0.167,0.133-0.2,0.1C13.95-49.517,14.2-49.649,14.5-49.75z
			 M18.55-50.6c2.134,0.3,3.617,0.883,4.45,1.75c-1.467,1.033-2.65,1.75-3.55,2.15C19.283-47.6,18.983-48.899,18.55-50.6z"/>
		<path style="fill-rule:evenodd;clip-rule:evenodd;fill:#B1A181;" d="M4.7-52.6c0.7,3.233,2.267,5.267,4.7,6.1
			c1.233,0.433,2.4,0.533,3.5,0.3l0.2-0.7c-0.467,0.033-1.017-0.017-1.65-0.15c-1.3-0.267-2.384-0.816-3.25-1.65
			c-1.1-1.067-1.833-2.4-2.2-4c-0.367-1.667-0.117-2.9,0.75-3.7c0.997-0.94,1.63-1.465,1.9-1.575L6.1-57.45
			c-0.367,0.2-0.7,0.55-1,1.05C4.5-55.399,4.367-54.133,4.7-52.6z"/>
		
			<use xlink:href="#zzz_x5F_miscellaneous_x2F_FlashAICB_copy_3_x2F_Layer_107_x2F__x3C_Path_x3E__x5F_2"  width="4.225" height="38.15" x="0.025" y="-38.15" transform="matrix(1 0 0 1 64.5 -17.1001)" style="overflow:visible;opacity:0.4102;enable-background:new    ;"/>
		
			<linearGradient id="SVGID_12_" gradientUnits="userSpaceOnUse" x1="16200.5752" y1="-16180.8926" x2="16207.125" y2="-16180.8926" gradientTransform="matrix(-1 0 0 -1 16212 -16210)">
			<stop  offset="0" style="stop-color:#F5F0DA"/>
			<stop  offset="1" style="stop-color:#D4C8A1"/>
		</linearGradient>
		<path style="fill-rule:evenodd;clip-rule:evenodd;fill:url(#SVGID_12_);" d="M13.35-4.5l-0.6-4.4
			c-0.367-3.533-0.566-6.75-0.6-9.65c-0.066-9.267,0.017-16.616,0.25-22.05c0.133-2.733,0.267-4.533,0.4-5.4
			c-0.6,0.1-1.283,0.083-2.05-0.05C9.184-46.283,7.934-47,7-48.2c-0.967-1.2-1.684-2.483-2.15-3.85c-0.2-0.7-0.317-1.267-0.35-1.7
			c-0.066-0.2-0.05,3.867,0.05,12.2c0.034,2.033,0.467,13.134,1.3,33.3C5.783-8.283,6.483-7.6,7.95-6.2
			c0.933,0.867,2.116,1.417,3.55,1.65C12.2-4.45,12.816-4.433,13.35-4.5z"/>
		<path style="fill-rule:evenodd;clip-rule:evenodd;fill:#FCF6DF;" d="M13.3-8.2c-0.3-2.7-0.5-5.867-0.6-9.5
			c-0.2-8.733-0.067-18.466,0.4-29.2l-0.5,0.95c-0.333,4.034-0.55,8.767-0.65,14.2c-0.233,10.9,0.183,19.85,1.25,26.85l0.15,0.4
			l0.35-0.7L13.3-8.2z"/>
		<g>
			
				<linearGradient id="SVGID_13_" gradientUnits="userSpaceOnUse" x1="16144.4873" y1="-16176.6309" x2="16197.4121" y2="-16176.6309" gradientTransform="matrix(-1 0 0 -1 16212 -16210)">
				<stop  offset="0" style="stop-color:#FDF9F9;stop-opacity:0.4196"/>
				<stop  offset="1" style="stop-color:#000000;stop-opacity:0.2275"/>
			</linearGradient>
			<path style="fill-rule:evenodd;clip-rule:evenodd;fill:url(#SVGID_13_);" d="M66.05-16.35l0.9-1.45
				c0.167-0.967,0.25-2.133,0.25-3.5c0-1.934-0.017-5.867-0.05-11.8c0.033-5.467,0.2-9.4,0.5-11.8l0.6-5.05
				c-1.467,1.767-3.6,2.95-6.4,3.55c-2.434,0.566-5.467,0.55-9.1-0.05v0.15l-0.1-0.2c-2.733-0.5-5.883-1.35-9.45-2.55
				c-0.434-0.133-2.95-1.034-7.55-2.7c-2.5-0.9-5.183-1.617-8.05-2.15l-0.25,0.35l-0.05-0.4c-5.8-1.066-10.383-1.233-13.75-0.5
				C10.217-53.75,7.567-52.6,5.6-51c0.4,0.867,0.933,1.633,1.6,2.3c0.867,0.833,1.95,1.383,3.25,1.65
				c0.633,0.133,1.183,0.183,1.65,0.15c-0.467,10.733-0.6,20.467-0.4,29.2c0.033,1,0.066,1.95,0.1,2.85
				c0.767-0.333,1.583-0.633,2.45-0.9l0.25-0.85l0.05,0.75c2-0.566,4.117-0.917,6.35-1.05c1.467-0.1,3.267-0.117,5.4-0.05l0.35-1.85
				c0.033,0.433,0.15,1.066,0.35,1.9c4.067,0.233,8.367,0.733,12.9,1.5c4.3,0.767,7.65,1.583,10.05,2.45
				c1.9,0.667,3.8,1.034,5.7,1.1c2,0.067,3.833-0.217,5.5-0.85l0.55-2.85l0.1,2.6C63.533-13.75,64.95-14.883,66.05-16.35z"/>
		</g>
		<g>
			
				<radialGradient id="SVGID_14_" cx="69.8999" cy="-32.1001" r="66.1125" gradientTransform="matrix(1 0 0 -0.9781 0 -63.4961)" gradientUnits="userSpaceOnUse">
				<stop  offset="0" style="stop-color:#809F9A"/>
				<stop  offset="1" style="stop-color:#637871"/>
			</radialGradient>
			<path style="fill-rule:evenodd;clip-rule:evenodd;fill:url(#SVGID_14_);" d="M62-12l0.15-0.7c-1.667,0.633-3.5,0.917-5.5,0.85
				c-1.9-0.066-3.8-0.433-5.7-1.1c-2.4-0.867-5.75-1.683-10.05-2.45c-4.533-0.767-8.833-1.267-12.9-1.5l0.1,0.4
				c3.4,0.2,7.033,0.617,10.9,1.25c3.633,0.567,6.783,1.233,9.45,2v0.05c0.8,0.2,1.667,0.467,2.6,0.8
				c1.833,0.7,3.684,1.083,5.55,1.15C58.567-11.15,60.367-11.4,62-12z"/>
			
				<radialGradient id="SVGID_15_" cx="69.8999" cy="-32.1001" r="66.1" gradientTransform="matrix(1 0 0 -0.9781 0 -63.4966)" gradientUnits="userSpaceOnUse">
				<stop  offset="0" style="stop-color:#809F9A"/>
				<stop  offset="1" style="stop-color:#637871"/>
			</radialGradient>
			<path style="fill-rule:evenodd;clip-rule:evenodd;fill:url(#SVGID_15_);" d="M53.4-47.25v-0.05c-2.667-0.5-5.767-1.383-9.3-2.65
				c-3.633-1.367-6.083-2.283-7.35-2.75c-2.067-0.8-4.633-1.517-7.7-2.15L28.6-53.9c2.867,0.533,5.55,1.25,8.05,2.15
				c4.6,1.667,7.117,2.567,7.55,2.7c3.566,1.2,6.716,2.05,9.45,2.55C53.55-46.633,53.467-46.883,53.4-47.25z M67.2-15.9l0.6-0.9
				c0.1-0.367,0.15-0.7,0.15-1l-0.9,1.45c-1.1,1.467-2.517,2.6-4.25,3.4l0.05,0.65C64.683-13.167,66.133-14.367,67.2-15.9z
				 M28.3-53.95l-0.15-1.1c-5.667-1.067-10.183-1.217-13.55-0.45c-3.533,0.8-6.283,2.083-8.25,3.85
				c0.066,0.333,0.117,0.583,0.15,0.75c1.967-1.633,4.65-2.817,8.05-3.55C17.917-55.183,22.5-55.017,28.3-53.95z M12.75-14.35
				c0.733-0.333,1.517-0.633,2.35-0.9l0.15-0.5c-0.9,0.267-1.733,0.567-2.5,0.9V-14.35z M21.95-16.5c1.6-0.1,3.367-0.1,5.3,0
				l0.05-0.45c-2.133-0.066-3.933-0.05-5.4,0.05c-2.233,0.133-4.35,0.483-6.35,1.05l0.05,0.45C17.467-15.933,19.583-16.3,21.95-16.5
				z"/>
			
				<radialGradient id="SVGID_16_" cx="69.8999" cy="-32.1001" r="66.125" gradientTransform="matrix(1 0 0 -0.9781 0 -63.4956)" gradientUnits="userSpaceOnUse">
				<stop  offset="0" style="stop-color:#809F9A"/>
				<stop  offset="1" style="stop-color:#637871"/>
			</radialGradient>
			<path style="fill-rule:evenodd;clip-rule:evenodd;fill:url(#SVGID_16_);" d="M53.9-47.2l-0.15,0.75
				c3.633,0.6,6.667,0.617,9.1,0.05c2.8-0.6,4.933-1.783,6.4-3.55l0.05-0.7c-1.466,1.733-3.55,2.917-6.25,3.55
				C60.517-46.5,57.467-46.533,53.9-47.2z"/>
		</g>
	</g>
</symbol>
<symbol  id="zz_x5F_Highlight_x2F_Highlight_Piece" viewBox="0 -115.9 118.7 115.9">
	<g id="Layer_1_19_">
		<g>
			
				<use xlink:href="#zzz_x5F_miscellaneous_x2F_FlashAICB_copy_x2F_Layer_1_x2F__x3C_Path_x3E__x5F_2"  width="118.7" height="57.1" y="-57.1" transform="matrix(1 0 0 1 0 -58.7998)" style="overflow:visible;opacity:0.2813;enable-background:new    ;"/>
			
				<use xlink:href="#zzz_x5F_miscellaneous_x2F_FlashAICB_copy_x2F_Layer_1_x2F__x3C_Path_x3E__x5F_1"  width="110.05" height="55.75" y="-55.75" transform="matrix(1 0 0 1 4.1499 0)" style="overflow:visible;opacity:0.1094;enable-background:new    ;"/>
			
				<use xlink:href="#zzz_x5F_miscellaneous_x2F_FlashAICB_copy_x2F_Layer_1_x2F__x3C_Path_x3E_"  width="110.05" height="61.294" y="-61.294" transform="matrix(1 0 0 1 4.1499 0)" style="overflow:visible;opacity:0.0898;enable-background:new    ;"/>
		</g>
	</g>
</symbol>
<symbol  id="zzz_x5F_miscellaneous_x2F_FlashAICB_copy_2_x2F_Layer_1_x2F__x3C_Path_x3E_" viewBox="0 -118.65 118.9 118.65">
	<g id="Layer_1_3_">
		
			<radialGradient id="SVGID_17_" cx="59.4502" cy="-59.3252" r="59.3875" gradientTransform="matrix(1 0 0 -1 0 -118.6504)" gradientUnits="userSpaceOnUse">
			<stop  offset="0" style="stop-color:#E9BE8D"/>
			<stop  offset="0.0196" style="stop-color:#E8BC8B"/>
			<stop  offset="0.2471" style="stop-color:#DDA078"/>
			<stop  offset="0.4431" style="stop-color:#D68F6C"/>
			<stop  offset="0.5843" style="stop-color:#D48967"/>
			<stop  offset="0.5843" style="stop-color:#D48967;stop-opacity:0.9961"/>
			<stop  offset="0.6745" style="stop-color:#C67359;stop-opacity:0.9059"/>
			<stop  offset="0.7686" style="stop-color:#BC644E;stop-opacity:0.8392"/>
			<stop  offset="0.8706" style="stop-color:#B65B48;stop-opacity:0.8"/>
			<stop  offset="1" style="stop-color:#B55846;stop-opacity:0.7882"/>
		</radialGradient>
		<path style="fill-rule:evenodd;clip-rule:evenodd;fill:url(#SVGID_17_);" d="M118.9-59.3c0-16.4-5.8-30.4-17.4-42
			c-11.6-11.567-25.617-17.35-42.05-17.35c-16.434,0-30.45,5.783-42.05,17.35C5.8-89.7,0-75.7,0-59.3c0,16.367,5.8,30.35,17.4,41.95
			C29-5.783,43.017,0,59.45,0C75.883,0,89.9-5.783,101.5-17.35C113.1-28.95,118.9-42.933,118.9-59.3z"/>
	</g>
</symbol>
<symbol  id="zzz_x5F_miscellaneous_x2F_FlashAICB_copy_3_x2F_Layer_107_x2F__x3C_Path_x3E__x5F_2" viewBox="0.025 -38.15 4.225 38.15">
	<g id="Layer_1_7_">
		<path style="fill-rule:evenodd;clip-rule:evenodd;fill:#FFFFFF;" d="M2.05-0.5L2.3,0c0.333-1.4,0.467-2.6,0.4-3.6
			C2.633-4.833,2.583-7,2.55-10.1c-0.033-4.167,0.034-8.333,0.2-12.5c0.067-2.566,0.567-7.75,1.5-15.55
			c-0.8,3.633-1.233,5.883-1.3,6.75c-0.633,4.133-0.967,6.25-1,6.35c-0.434,1.7-0.684,2.733-0.75,3.1
			c-0.034,0.233-0.017,0.75,0.05,1.55l0.15,1.15c0.1,1.467,0.133,2.45,0.1,2.95c-0.033,0.367-0.15,1.216-0.35,2.55
			c-0.233,1.333-0.383,2.133-0.45,2.4c-0.233,0.6-0.45,2.283-0.65,5.05c-0.033,0.4-0.033,0.983,0,1.75
			C0.083-3.683,0.15-3.167,0.25-3C0.383-2.733,0.983-1.9,2.05-0.5z"/>
	</g>
</symbol>
<symbol  id="zzz_x5F_miscellaneous_x2F_FlashAICB_copy_3_x2F_Layer_107_x2F__x3C_Path_x3E__x5F_24" viewBox="0.019 -32.57 46.881 32.57">
	<g id="Layer_1_5_">
		<path style="fill-rule:evenodd;clip-rule:evenodd;fill:#FFFFFF;" d="M45.85-26.05c0.1-1.133,0.45-2.184,1.05-3.15H46
			c-0.4,0.7-0.683,1.483-0.85,2.35c-0.6-0.1-1.283-0.3-2.05-0.6c-1.333-0.433-2.383-0.7-3.15-0.8c-2.034-0.267-3.733-0.067-5.1,0.6
			c-0.8,0.433-1.367,0.867-1.7,1.3L28.75-26l-1.1-0.05c-0.066-0.2-0.1-0.567-0.1-1.1c-0.066-0.967-0.216-1.684-0.45-2.15
			c-0.667-1.4-1.967-2.367-3.9-2.9c-1.833-0.566-3.45-0.483-4.85,0.25c-0.833,0.467-1.367,1.017-1.6,1.65
			c-0.1,0.333-0.133,0.8-0.1,1.4c0.033,0.267,0.033,0.45,0,0.55c-0.2,0.2-0.75,0.3-1.65,0.3l-1.85-0.15
			c-0.8-0.133-1.783-0.5-2.95-1.1c-1.934-0.934-3.534-1.417-4.8-1.45L4.55-30.8c-1.667,0-2.867,0.367-3.6,1.1
			c-0.733,0.8-1.034,1.983-0.9,3.55c0.267,2.467,1.483,4.017,3.65,4.65l-0.1,0.35c-0.367,1.1-0.434,2.033-0.2,2.8
			s0.717,1.517,1.45,2.25c0.633,0.667,1.316,1.184,2.05,1.55c0.567,0.333,1.633,0.533,3.2,0.6c0.9,0,1.483,0.067,1.75,0.2
			c0,0.367-0.05,0.65-0.15,0.85h-0.25c-0.733,0-1.3,0.2-1.7,0.6c-0.533,0.5-0.767,1.35-0.7,2.55c0.167,2.5,1.967,3.833,5.4,4
			l0.05,0.7c0.067,1.433,0.267,2.566,0.6,3.4L15.15-2l0.1,0.65c0.3,0.5,0.6,0.934,0.9,1.3L17.35,0c-0.833-0.7-1.4-1.5-1.7-2.4
			c-0.167-0.533-0.3-1.434-0.4-2.7l-0.1-1.35c-1.5-0.066-2.633-0.267-3.4-0.6c-1.2-0.534-1.833-1.45-1.9-2.75
			c-0.033-1,0.117-1.667,0.45-2c0.233-0.233,0.65-0.35,1.25-0.35c0.333,0,0.567-0.067,0.7-0.2c0.167-0.167,0.283-0.483,0.35-0.95
			c0.1-0.467,0.1-0.767,0-0.9c-0.3-0.333-1.133-0.5-2.5-0.5c-1.4-0.066-2.35-0.233-2.85-0.5C6.617-15.533,6-16,5.4-16.6
			c-0.633-0.667-1.05-1.316-1.25-1.95c-0.167-0.567-0.1-1.367,0.2-2.4c0.167-0.667,0.25-1.033,0.25-1.1
			c-2.3-0.434-3.55-1.817-3.75-4.15c-0.133-1.333,0.1-2.333,0.7-3c0.6-0.6,1.867-0.867,3.8-0.8c1.233,0.033,2.717,0.483,4.45,1.35
			c1.434,0.667,2.5,1.05,3.2,1.15c1.1,0.2,2.05,0.25,2.85,0.15c0.8-0.066,1.283-0.267,1.45-0.6c0.167-0.267,0.217-0.617,0.15-1.05
			c-0.034-0.467-0.017-0.833,0.05-1.1c0.167-0.467,0.583-0.867,1.25-1.2c1.2-0.633,2.617-0.7,4.25-0.2
			c1.667,0.533,2.8,1.383,3.4,2.55c0.167,0.333,0.283,0.95,0.35,1.85c0,0.934,0.117,1.483,0.35,1.65c0.6,0.3,2.4,0.284,5.4-0.05
			c0.733-0.067,1.15-0.183,1.25-0.35c0.4-0.467,0.883-0.833,1.45-1.1c1.233-0.633,2.783-0.816,4.65-0.55
			c0.633,0.067,1.617,0.317,2.95,0.75C44.033-26.283,45.05-26.05,45.85-26.05z"/>
	</g>
</symbol>
<symbol  id="zzz_x5F_miscellaneous_x2F_FlashAICB_copy_3_x2F_Layer_107_x2F__x3C_Path_x3E__x5F_6" viewBox="0 -43.798 64.1 43.798">
	<g id="Layer_1_6_">
		<path style="fill-rule:evenodd;clip-rule:evenodd;fill:#C7BE99;" d="M63.05-10.2c0-1.933-0.017-5.867-0.05-11.8
			c0.033-5.467,0.2-9.4,0.5-11.8l0.6-5.05c-1.467,1.767-3.6,2.95-6.4,3.55c-2.434,0.566-5.467,0.55-9.1-0.05v0.15l-0.1-0.2
			c-2.733-0.5-5.883-1.35-9.45-2.55c-0.433-0.133-2.95-1.033-7.55-2.7c-2.5-0.9-5.183-1.617-8.05-2.15l-0.25,0.35l-0.05-0.4
			c-5.8-1.066-10.383-1.233-13.75-0.5c-4.233,0.9-7.367,2.517-9.4,4.85L0.75-21c0.267,6.1,0.4,13.1,0.4,21L4.2-1.65
			c1.2-1.167,3.167-2.167,5.9-3l0.25-0.85l0.05,0.75c2-0.567,4.117-0.917,6.35-1.05c1.467-0.1,3.267-0.117,5.4-0.05L22.5-7.7
			c0.033,0.434,0.15,1.067,0.35,1.9c4.066,0.233,8.367,0.733,12.9,1.5c4.3,0.767,7.65,1.583,10.05,2.45
			C49.933-0.417,53.667-0.333,57-1.6l0.55-2.85l0.1,2.6c1.733-0.8,3.15-1.933,4.25-3.4l0.9-1.45
			C62.967-7.667,63.05-8.833,63.05-10.2z"/>
	</g>
</symbol>
<symbol  id="zzz_x5F_miscellaneous_x2F_FlashAICB_copy_x2F_Layer_1_x2F__x3C_Path_x3E_" viewBox="0 -61.294 110.05 61.294">
	<g id="Layer_1_12_">
		<path style="fill-rule:evenodd;clip-rule:evenodd;fill:#FFFFFF;" d="M106.5-34.35c2.367-5.633,3.55-10.95,3.55-15.95
			c0-4.934-1.45-8.05-4.35-9.35c-2.333-1.033-6.25-1.017-11.75,0.05c-7.3,1.767-13.133,3.117-17.5,4.05
			C68.417-53.85,61.267-53,55-53c-6.3,0-13.433-0.917-21.4-2.75c-8.333-2.2-14.167-3.683-17.5-4.45
			c-5.533-1.267-9.45-1.433-11.75-0.5C1.45-59.5,0-56.433,0-51.5c0,5.5,1.167,11.167,3.5,17c2.467,6.167,5.95,11.733,10.45,16.7
			C24.65-5.933,38.333,0,55,0c16.467,0,30.15-5.983,41.05-17.95C100.517-22.883,104-28.35,106.5-34.35z"/>
	</g>
</symbol>
<symbol  id="zzz_x5F_miscellaneous_x2F_FlashAICB_copy_x2F_Layer_1_x2F__x3C_Path_x3E__x5F_1" viewBox="0 -55.75 110.05 55.75">
	<g id="Layer_1_11_">
		
			<linearGradient id="SVGID_18_" gradientUnits="userSpaceOnUse" x1="16163.2637" y1="-53.8804" x2="16219.0391" y2="-53.8804" gradientTransform="matrix(1.792918e-005 1 -1 -0.001 0.8545 -16219.1055)">
			<stop  offset="0.1294" style="stop-color:#D9BBB3"/>
			<stop  offset="0.9255" style="stop-color:#FFFFFF"/>
		</linearGradient>
		<path style="fill-rule:evenodd;clip-rule:evenodd;fill:url(#SVGID_18_);" d="M96.05-17.95c4.467-4.933,7.95-10.4,10.45-16.4
			c2.367-5.633,3.55-10.95,3.55-15.95c0-1.567-0.167-3.05-0.5-4.45c-1.867,11.067-7.267,20.9-16.2,29.5
			C82.783-15.117,70-10.05,55-10.05c-15.233,0-28.067-5.05-38.5-15.15C7.533-33.9,2.183-44.083,0.45-55.75
			C0.15-54.617,0-53.2,0-51.5c0,5.5,1.167,11.167,3.5,17c2.467,6.167,5.95,11.733,10.45,16.7C24.65-5.933,38.333,0,55,0
			C71.467,0,85.15-5.983,96.05-17.95z"/>
	</g>
</symbol>
<symbol  id="zzz_x5F_miscellaneous_x2F_FlashAICB_copy_x2F_Layer_1_x2F__x3C_Path_x3E__x5F_2" viewBox="0 -57.1 118.7 57.1">
	<g id="Layer_1_10_">
		
			<radialGradient id="SVGID_19_" cx="59.3501" cy="-28.5498" r="46.5701" gradientTransform="matrix(1 0 0 -1 0 -57.0996)" gradientUnits="userSpaceOnUse">
			<stop  offset="0" style="stop-color:#000000;stop-opacity:0"/>
			<stop  offset="0.651" style="stop-color:#000000;stop-opacity:0.4"/>
		</radialGradient>
		<path style="fill-rule:evenodd;clip-rule:evenodd;fill:url(#SVGID_19_);" d="M95.5-30.35c10.733,7.7,18.3,17.733,22.7,30.1
			L118.7,0c-0.567-15.9-6.6-29.383-18.1-40.45C89.1-51.55,75.333-57.1,59.3-57.1c-15.7,0-29.267,5.367-40.7,16.1
			C7.2-30.333,1-17.233,0-1.7c4.6-12,12.183-21.683,22.75-29.05c10.833-7.567,22.867-11.35,36.1-11.35
			C72.35-42.1,84.567-38.183,95.5-30.35z"/>
	</g>
</symbol>
<symbol  id="zzz_x5F_miscellaneous_x2F_FlashAICB_x5F_1_x2F_Layer_14_x2F__x3C_Path_x3E_" viewBox="0 -57 118.45 57">
	<g id="Layer_1_2_">
		
			<radialGradient id="SVGID_20_" cx="59.2251" cy="-28.5" r="46.4751" gradientTransform="matrix(1 0 0 -1 0 -57)" gradientUnits="userSpaceOnUse">
			<stop  offset="0" style="stop-color:#D5ECE7;stop-opacity:0"/>
			<stop  offset="0.0941" style="stop-color:#CCE5E0;stop-opacity:0.0784"/>
			<stop  offset="0.2549" style="stop-color:#B3D3CF;stop-opacity:0.298"/>
			<stop  offset="0.4667" style="stop-color:#8DB4B2;stop-opacity:0.6471"/>
			<stop  offset="0.651" style="stop-color:#699796"/>
		</radialGradient>
		<path style="fill-rule:evenodd;clip-rule:evenodd;fill:url(#SVGID_20_);" d="M95.3-30.3c10.7,7.667,18.25,17.667,22.65,30l0.5,0.3
			c-0.567-15.867-6.583-29.333-18.05-40.4C88.9-51.467,75.167-57,59.2-57c-15.667,0-29.217,5.35-40.65,16.05
			C7.183-30.283,1-17.2,0-1.7c4.6-11.966,12.167-21.65,22.7-29.05c10.8-7.533,22.8-11.3,36-11.3C72.2-42.05,84.4-38.133,95.3-30.3z"
			/>
	</g>
</symbol>
<symbol  id="zzz_x5F_miscellaneous_x2F_Symbol_1" viewBox="0 -23.75 20.35 23.75">
	<g id="Layer_1_9_">
		<linearGradient id="SVGID_21_" gradientUnits="userSpaceOnUse" x1="10.1748" y1="-22.0249" x2="10.1748" y2="-1.6749">
			<stop  offset="0.0745" style="stop-color:#000000;stop-opacity:0.9882"/>
			<stop  offset="0.9647" style="stop-color:#000000;stop-opacity:0.651"/>
		</linearGradient>
		<path style="fill-rule:evenodd;clip-rule:evenodd;fill:url(#SVGID_21_);" d="M10.25-5.1l-3.1-9.45h6.15l-3,9.45H10.25z
			 M12.95-1.25H13C13.267-1.583,13.5-2,13.7-2.5c0-0.067,0.017-0.133,0.05-0.2l6.35-17.7c0.167-0.467,0.25-0.867,0.25-1.2
			c0-0.633-0.217-1.15-0.65-1.55c-0.434-0.4-0.95-0.6-1.55-0.6s-1.1,0.133-1.5,0.4c-0.4,0.3-0.7,0.733-0.9,1.3L14.8-19H5.75l-1-3.05
			c-0.333-1.133-1.117-1.7-2.35-1.7c-0.566,0-1.066,0.15-1.5,0.45c-0.066,0.066-0.133,0.133-0.2,0.2C0.233-22.667,0-22.133,0-21.5
			c0,0.233,0.083,0.6,0.25,1.1L6.8-2.7c0.3,0.767,0.733,1.4,1.3,1.9C8.733-0.267,9.45,0,10.25,0C11.383,0,12.283-0.417,12.95-1.25z"
			/>
	</g>
</symbol>
<symbol  id="zzz_x5F_miscellaneous_x2F_Symbol_14" viewBox="0 -23.55 19.7 23.55">
	<g id="Layer_1_8_">
		<linearGradient id="SVGID_22_" gradientUnits="userSpaceOnUse" x1="9.8501" y1="-21.6499" x2="9.8501" y2="-1.9499">
			<stop  offset="0.0745" style="stop-color:#000000;stop-opacity:0.9882"/>
			<stop  offset="0.9647" style="stop-color:#000000;stop-opacity:0.651"/>
		</linearGradient>
		<path style="fill-rule:evenodd;clip-rule:evenodd;fill:url(#SVGID_22_);" d="M19.05-0.7c0.2-0.2,0.367-0.466,0.5-0.8l0.15-0.6
			c0-0.1,0-0.2,0-0.3c0-0.033,0-0.083,0-0.15V-21c0-0.8-0.217-1.433-0.65-1.9c-0.433-0.434-1.017-0.65-1.75-0.65
			c-0.333,0-0.7,0.1-1.1,0.3c-0.2,0.1-0.367,0.217-0.5,0.35c-0.167,0.133-0.317,0.267-0.45,0.4L4.95-8.9h-0.1V-21
			c0-0.8-0.233-1.433-0.7-1.9c-0.433-0.434-1-0.65-1.7-0.65c-0.6,0-1.083,0.133-1.45,0.4C0.9-23.083,0.8-23,0.7-22.9
			C0.233-22.433,0-21.8,0-21v18.45C0-1.783,0.233-1.167,0.7-0.7C1.167-0.233,1.75,0,2.45,0c0.3,0,0.667-0.117,1.1-0.35
			C3.95-0.55,4.267-0.8,4.5-1.1l10.3-13.75h0.05v12.3c0,0.767,0.233,1.383,0.7,1.85C16.017-0.233,16.6,0,17.3,0
			C18,0,18.583-0.233,19.05-0.7z"/>
	</g>
</symbol>
<symbol  id="zzz_x5F_miscellaneous_x2F_Symbol_27" viewBox="0 -24.25 20.85 24.25">
	<g id="Layer_1_18_">
		<path style="fill-rule:evenodd;clip-rule:evenodd;fill:#FFFFFF;fill-opacity:0.702;" d="M2.4-23.75c1.233,0,2.017,0.567,2.35,1.7
			l1,3.05h9.05l0.15-0.5h-8.7l-1-3.05c-0.333-1.133-1.117-1.7-2.35-1.7c-0.667,0-1.233,0.217-1.7,0.65c-0.1,0.1-0.2,0.2-0.3,0.3
			C1.333-23.6,1.833-23.75,2.4-23.75z M10.25-5.1h0.05l0.3-0.95l-2.75-8.5h-0.7L10.25-5.1z M20.6-20.9
			c0.167-0.467,0.25-0.867,0.25-1.2c0-0.633-0.217-1.15-0.65-1.55c-0.434-0.4-0.95-0.6-1.55-0.6c-0.9,0-1.566,0.3-2,0.9
			c0.4-0.267,0.9-0.4,1.5-0.4s1.117,0.2,1.55,0.6c0.433,0.4,0.65,0.917,0.65,1.55c0,0.333-0.083,0.733-0.25,1.2L13.75-2.7
			c-0.033,0.067-0.05,0.133-0.05,0.2C13.5-2,13.267-1.583,13-1.25c0.533-0.433,0.95-1.083,1.25-1.95L20.6-20.9z"/>
		
			<use xlink:href="#zzz_x5F_miscellaneous_x2F_Symbol_1"  width="20.35" height="23.75" y="-23.75" style="overflow:visible;enable-background:new    ;"/>
	</g>
</symbol>
<symbol  id="zzz_x5F_miscellaneous_x2F_Symbol_40" viewBox="0 -24.05 20.2 24.05">
	<g id="Layer_1_17_">
		<path style="fill-rule:evenodd;clip-rule:evenodd;fill:#FFFFFF;fill-opacity:0.702;" d="M19.55-1.2
			c0.434-0.433,0.65-1.05,0.65-1.85V-21.5c0-0.8-0.217-1.433-0.65-1.9c-0.433-0.434-1.017-0.65-1.75-0.65c-0.333,0-0.7,0.1-1.1,0.3
			c-0.4,0.233-0.717,0.483-0.95,0.75l-0.05,0.1c0.133-0.133,0.3-0.25,0.5-0.35c0.4-0.2,0.767-0.3,1.1-0.3
			c0.733,0,1.317,0.216,1.75,0.65c0.434,0.467,0.65,1.1,0.65,1.9v18.45c0,0.066,0,0.117,0,0.15c0,0.1,0,0.2,0,0.3l-0.15,0.6
			c-0.066,0.2-0.15,0.383-0.25,0.55C19.367-1.017,19.45-1.1,19.55-1.2z M4.85-8.9h0.1l0.4-0.55V-21.5c0-0.8-0.233-1.433-0.7-1.9
			c-0.433-0.434-1-0.65-1.7-0.65c-0.733,0-1.317,0.216-1.75,0.65c-0.1,0.1-0.167,0.183-0.2,0.25c0.367-0.267,0.85-0.4,1.45-0.4
			c0.7,0,1.267,0.216,1.7,0.65c0.467,0.467,0.7,1.1,0.7,1.9V-8.9z M5-1.6l9.85-13.15v-0.1H14.8L4.55-1.2
			C4.717-1.3,4.867-1.433,5-1.6z"/>
		
			<use xlink:href="#zzz_x5F_miscellaneous_x2F_Symbol_14"  width="19.7" height="23.55" y="-23.55" style="overflow:visible;enable-background:new    ;"/>
	</g>
</symbol>
<symbol  id="zzz_x5F_miscellaneous_x2F_stars1" viewBox="-0.023 -11.067 94.127 11.08">
	<g id="Layer_1_4_">
		<linearGradient id="SVGID_23_" gradientUnits="userSpaceOnUse" x1="93.291" y1="-7.291" x2="83.366" y2="-2.966">
			<stop  offset="0" style="stop-color:#565656"/>
			<stop  offset="1" style="stop-color:#FAFAFA"/>
		</linearGradient>
		<path style="fill-rule:evenodd;clip-rule:evenodd;fill:url(#SVGID_23_);" d="M92.65-0.9C92.917-1.167,93-1.467,92.9-1.8l-0.8-2.75
			l1.8-2.2c0.233-0.267,0.267-0.583,0.1-0.95c-0.167-0.333-0.417-0.5-0.75-0.5L90.4-8.25l-1.55-2.4c-0.2-0.333-0.483-0.467-0.85-0.4
			c-0.167,0-0.333,0.083-0.5,0.25c-0.1,0.066-0.183,0.183-0.25,0.35L86.3-7.8l-2.75,0.75h0.05l-0.15,0.3
			C83.383-6.417,83.5-6.133,83.8-5.9l2.25,1.75l-0.15,2.8c-0.066,0.4,0.083,0.684,0.45,0.85C86.683-0.333,87-0.35,87.3-0.55
			l2.35-1.6l2.6,1c0.167,0.1,0.333,0.117,0.5,0.05L92.65-0.9z"/>
		
			<linearGradient id="SVGID_24_" gradientUnits="userSpaceOnUse" x1="11429.8926" y1="2856.1826" x2="11440.7188" y2="2856.1826" gradientTransform="matrix(0.4711 0.8821 -0.8821 0.4711 -2861.8711 -11437.2764)">
			<stop  offset="0" style="stop-color:#565656"/>
			<stop  offset="1" style="stop-color:#FAFAFA"/>
		</linearGradient>
		<path style="fill-rule:evenodd;clip-rule:evenodd;fill:url(#SVGID_24_);" d="M10.5-7.05L7.75-7.8l-0.9-2.65
			C6.783-10.617,6.7-10.733,6.6-10.8c-0.167-0.167-0.333-0.25-0.5-0.25c-0.4-0.067-0.684,0.066-0.85,0.4L3.7-8.25L0.85-8.2
			c-0.367,0-0.633,0.167-0.8,0.5C-0.083-7.3-0.033-6.983,0.2-6.75l1.75,2.2L1.15-1.8C1.083-1.433,1.167-1.133,1.4-0.9L1.3-1.1
			c0.2,0.067,0.367,0.05,0.5-0.05l2.65-1l2.35,1.6c0.3,0.2,0.617,0.216,0.95,0.05C8.05-0.667,8.2-0.95,8.2-1.35l-0.15-2.8L10.3-5.9
			c0.3-0.233,0.4-0.517,0.3-0.85L10.5-7.05z"/>
		<path style="fill-rule:evenodd;clip-rule:evenodd;fill:#FFFFFF;" d="M10.5-7.05l0.1,0.3c0.1,0.333,0,0.617-0.3,0.85L8.05-4.15
			l0.15,2.8c0,0.4-0.15,0.684-0.45,0.85C7.417-0.333,7.1-0.35,6.8-0.55l-2.35-1.6l-2.65,1C1.667-1.05,1.5-1.033,1.3-1.1l0.1,0.2
			c0.333,0.267,0.65,0.316,0.95,0.15l2.65-1l2.35,1.6C7.617,0.05,7.933,0.067,8.3-0.1c0.3-0.167,0.45-0.45,0.45-0.85L8.6-3.75
			l2.25-1.75c0.3-0.233,0.4-0.517,0.3-0.85C11.083-6.617,11-6.783,10.9-6.85L10.5-7.05z M83.55-7.05l-0.35,0.2
			c-0.133,0.1-0.233,0.267-0.3,0.5c-0.066,0.333,0.05,0.617,0.35,0.85l2.25,1.75l-0.15,2.8c0,0.4,0.15,0.684,0.45,0.85
			c0.333,0.167,0.65,0.15,0.95-0.05l2.35-1.6l2.65,1c0.3,0.133,0.6,0.083,0.9-0.15l0.1-0.2c-0.167,0.067-0.333,0.05-0.5-0.05l-2.6-1
			l-2.35,1.6c-0.3,0.2-0.617,0.216-0.95,0.05c-0.367-0.167-0.517-0.45-0.45-0.85l0.15-2.8L83.8-5.9
			c-0.3-0.233-0.417-0.517-0.35-0.85l0.15-0.3H83.55z"/>
	</g>
</symbol>
<g id="Frame">
	
		<use xlink:href="#Frames_x2F_level_09"  width="171.45" height="171.4" y="-171.4" transform="matrix(1 0 0 -1 0 0)" style="overflow:visible;"/>
</g>
<g id="Base">
	
		<use xlink:href="#BG_x2F_bg_red"  width="134" height="134" y="-134" transform="matrix(1 0 0 -1 19.2002 19.8501)" style="overflow:visible;"/>
</g>
<g id="Decorations">
	
		<use xlink:href="#Decorations_x2F_stars"  width="132.35" height="132.4" x="-177.3" y="-73.2" transform="matrix(1 0 0 -1 197.1504 79.8501)" style="overflow:visible;"/>
</g>
<g id="Map">
	
		<use xlink:href="#Maps_x2F_shimla_brown"  width="74.775" height="65.6" x="-0.3" y="-65.475" transform="matrix(1 0 0 -1 51.2002 69.4502)" style="overflow:visible;"/>
</g>
<g id="Letters">
	
		<use xlink:href="#Letters_x2F_letter_x5F_N"  width="22.22" height="26.454" x="-1" y="-25.254" transform="matrix(1 0 0 -1 67.1499 35.3999)" style="overflow:visible;"/>
	
		<use xlink:href="#Letters_x2F_letter_x5F_A"  width="22.935" height="26.674" x="-1.05" y="-25.474" transform="matrix(1 0 0 -1 91.2998 35.7998)" style="overflow:visible;"/>
</g>
<g id="highlight">
	
		<use xlink:href="#zz_x5F_Highlight_x2F_Highlight_Piece"  width="118.7" height="115.9" y="-115.9" transform="matrix(1 0 0 -1 27.25 28.1001)" style="overflow:visible;"/>
</g>
</svg>
