<?xml version="1.0" encoding="iso-8859-1"?>
<!-- Generator: Adobe Illustrator 15.1.0, SVG Export Plug-In . SVG Version: 6.00 Build 0)  -->
<!DOCTYPE svg PUBLIC "-//W3C//DTD SVG 1.1//EN" "http://www.w3.org/Graphics/SVG/1.1/DTD/svg11.dtd">
<svg version="1.1" id="Layer_1" xmlns="http://www.w3.org/2000/svg" xmlns:xlink="http://www.w3.org/1999/xlink" x="0px" y="0px"
	 width="171px" height="171.3px" viewBox="0 0 171 171.3" style="enable-background:new 0 0 171 171.3;" xml:space="preserve">
<g>
	<path style="fill-rule:evenodd;clip-rule:evenodd;fill:#68757B;" d="M85.35,0c11.567,0,22.634,2.233,33.2,6.7
		c10.2,4.333,19.233,10.45,27.101,18.35c7.866,7.867,13.967,16.9,18.3,27.1c4.467,10.567,6.7,21.633,6.7,33.2
		s-2.233,22.633-6.7,33.2c-4.333,10.2-10.434,19.233-18.3,27.101c-7.867,7.899-16.9,14.017-27.101,18.35
		c-10.566,4.467-21.633,6.7-33.2,6.7c-11.566,0-22.633-2.233-33.2-6.7c-10.2-4.333-19.25-10.45-27.15-18.35
		c-7.867-7.867-13.967-16.9-18.3-27.101C2.233,107.983,0,96.917,0,85.35s2.233-22.633,6.7-33.2c4.333-10.2,10.433-19.233,18.3-27.1
		c7.9-7.9,16.95-14.017,27.15-18.35C62.717,2.233,73.783,0,85.35,0z"/>
	
		<linearGradient id="SVGID_1_" gradientUnits="userSpaceOnUse" x1="-171.3848" y1="85.3252" x2="-0.6851" y2="85.3252" gradientTransform="matrix(5.859089e-006 -1 1 -0.001 1.466054e-004 -4.747650e-005)">
		<stop  offset="0.0196" style="stop-color:#353746"/>
		<stop  offset="0.251" style="stop-color:#6C6E76;stop-opacity:0.6863"/>
		<stop  offset="0.4941" style="stop-color:#A1A3A3;stop-opacity:0.3922"/>
		<stop  offset="0.7098" style="stop-color:#C7C9C4;stop-opacity:0.1765"/>
		<stop  offset="0.8824" style="stop-color:#DEE1D9;stop-opacity:0.0471"/>
		<stop  offset="0.9882" style="stop-color:#E7E9E0;stop-opacity:0"/>
	</linearGradient>
	<path style="fill-rule:evenodd;clip-rule:evenodd;fill:url(#SVGID_1_);" d="M85.35,0.6c11.567,0,22.634,2.233,33.2,6.7
		c10.2,4.333,19.233,10.45,27.101,18.35c7.866,7.867,13.967,16.9,18.3,27.1c4.467,10.567,6.7,21.633,6.7,33.2
		c0,11.566-2.233,22.633-6.7,33.2c-4.333,10.199-10.434,19.233-18.3,27.1c-7.867,7.9-16.9,14.017-27.101,18.35
		c-10.566,4.467-21.633,6.7-33.2,6.7c-11.566,0-22.633-2.233-33.2-6.7C41.95,160.267,32.9,154.15,25,146.25
		c-7.867-7.866-13.967-16.9-18.3-27.1C2.233,108.583,0,97.517,0,85.95c0-11.567,2.233-22.633,6.7-33.2
		c4.333-10.2,10.433-19.233,18.3-27.1c7.9-7.9,16.95-14.017,27.15-18.35C62.717,2.833,73.783,0.6,85.35,0.6z"/>
	
		<linearGradient id="SVGID_2_" gradientUnits="userSpaceOnUse" x1="-157.4854" y1="85.3262" x2="-13.3848" y2="85.3262" gradientTransform="matrix(6.939625e-006 -1 1 -0.001 1.071970e-004 4.449275e-004)">
		<stop  offset="0" style="stop-color:#BCD1DF"/>
		<stop  offset="0.0235" style="stop-color:#BBCEDC;stop-opacity:0.9647"/>
		<stop  offset="0.2784" style="stop-color:#ABB0BF;stop-opacity:0.6353"/>
		<stop  offset="0.502" style="stop-color:#A19DAE;stop-opacity:0.4314"/>
		<stop  offset="0.6549" style="stop-color:#9E96A8;stop-opacity:0.3569"/>
		<stop  offset="1" style="stop-color:#403C5C"/>
	</linearGradient>
	<path style="fill-rule:evenodd;clip-rule:evenodd;fill:url(#SVGID_2_);" d="M113.4,18.95c8.633,3.667,16.267,8.816,22.899,15.45
		c6.634,6.633,11.783,14.267,15.45,22.9c3.767,8.934,5.65,18.284,5.65,28.05c0,9.766-1.884,19.117-5.65,28.05
		c-3.667,8.633-8.816,16.267-15.45,22.899c-6.633,6.634-14.267,11.783-22.899,15.45c-8.934,3.767-18.283,5.65-28.051,5.65
		c-9.766,0-19.116-1.884-28.05-5.65c-8.633-3.667-16.267-8.816-22.9-15.45c-6.667-6.633-11.833-14.267-15.5-22.899
		c-3.767-8.934-5.65-18.284-5.65-28.05c0-9.767,1.883-19.117,5.65-28.05c3.667-8.633,8.833-16.267,15.5-22.9
		c6.633-6.633,14.267-11.783,22.9-15.45c8.934-3.767,18.284-5.65,28.05-5.65C95.117,13.3,104.467,15.183,113.4,18.95z"/>
	
		<linearGradient id="SVGID_3_" gradientUnits="userSpaceOnUse" x1="-151.5352" y1="85.3262" x2="-19.7852" y2="85.3262" gradientTransform="matrix(7.590133e-006 -1 1 -0.001 9.770805e-006 4.449275e-004)">
		<stop  offset="0.0745" style="stop-color:#B85E97"/>
		<stop  offset="0.2667" style="stop-color:#D167A8"/>
		<stop  offset="0.5333" style="stop-color:#F976C5"/>
		<stop  offset="1" style="stop-color:#F8EFD5"/>
	</linearGradient>
	<path style="fill-rule:evenodd;clip-rule:evenodd;fill:url(#SVGID_3_);" d="M151.2,85.55c0,18.167-6.434,33.7-19.3,46.601
		c-12.867,12.866-28.384,19.3-46.551,19.3c-18.166,0-33.7-6.434-46.6-19.3c-12.867-12.9-19.3-28.434-19.3-46.601
		c0-18.167,6.433-33.683,19.3-46.55c12.9-12.867,28.434-19.3,46.6-19.3c18.167,0,33.684,6.433,46.551,19.3
		C144.767,51.9,151.2,67.417,151.2,85.55z"/>
	<path style="fill-rule:evenodd;clip-rule:evenodd;fill:#7A1960;" d="M150.4,85.55c0-17.933-6.351-33.267-19.051-46
		c-12.699-12.7-28.033-19.05-46-19.05c-17.966,0-33.316,6.35-46.05,19.05c-12.7,12.7-19.05,28.034-19.05,46
		c0,17.967,6.35,33.316,19.05,46.05c12.733,12.7,28.083,19.051,46.05,19.051c17.967,0,33.301-6.351,46-19.051
		C144.05,118.866,150.4,103.517,150.4,85.55z M85.35,18.85c8.9,0,17.417,1.683,25.551,5.05c8.1,3.367,15.3,8.2,21.6,14.5
		c6.3,6.3,11.134,13.517,14.5,21.65c3.367,8.1,5.05,16.6,5.05,25.5c0,8.934-1.683,17.45-5.05,25.55
		c-3.366,8.134-8.2,15.351-14.5,21.65s-13.5,11.134-21.6,14.5c-8.134,3.366-16.65,5.05-25.551,5.05c-8.933,0-17.45-1.684-25.55-5.05
		c-8.133-3.366-15.35-8.2-21.65-14.5c-6.3-6.3-11.117-13.517-14.45-21.65c-3.367-8.1-5.05-16.616-5.05-25.55
		c0-8.9,1.684-17.4,5.05-25.5c3.333-8.133,8.15-15.35,14.45-21.65c6.3-6.3,13.517-11.133,21.65-14.5
		C67.9,20.533,76.417,18.85,85.35,18.85z"/>
	
		<radialGradient id="SVGID_4_" cx="85.3252" cy="83.4248" r="59.125" gradientTransform="matrix(1 0 0 -1 0 166.8496)" gradientUnits="userSpaceOnUse">
		<stop  offset="0.1059" style="stop-color:#F8EFD5"/>
		<stop  offset="0.5882" style="stop-color:#FA8BC5"/>
		<stop  offset="0.7098" style="stop-color:#F789C3;stop-opacity:0.9686"/>
		<stop  offset="0.8039" style="stop-color:#ED82BC;stop-opacity:0.8706"/>
		<stop  offset="0.8824" style="stop-color:#DE78B1;stop-opacity:0.7059"/>
		<stop  offset="0.9608" style="stop-color:#C768A2;stop-opacity:0.4745"/>
		<stop  offset="1" style="stop-color:#B85E97;stop-opacity:0.3176"/>
	</radialGradient>
	<path style="fill-rule:evenodd;clip-rule:evenodd;fill:url(#SVGID_4_);" d="M144.5,83.45c0,16.3-5.783,30.217-17.35,41.75
		c-11.533,11.533-25.467,17.3-41.801,17.3c-16.333,0-30.283-5.767-41.85-17.3c-11.566-11.533-17.35-25.45-17.35-41.75
		c0-16.333,5.784-30.267,17.35-41.8c11.567-11.533,25.517-17.3,41.85-17.3c16.334,0,30.268,5.767,41.801,17.3
		C138.717,53.183,144.5,67.117,144.5,83.45z"/>
	<path style="fill-rule:evenodd;clip-rule:evenodd;fill:#F7E0E7;" d="M75.15,35.3c0,1.633-0.767,2.45-2.3,2.45h-6.1L66.3,41.2
		c1.167-0.233,1.967-0.35,2.4-0.35c1.933,0,3.55,0.683,4.85,2.05c1.267,1.333,1.9,2.967,1.9,4.9c0,2.767-0.733,4.95-2.2,6.55
		c-1.533,1.633-3.667,2.45-6.4,2.45c-1.467,0-2.95-0.367-4.45-1.1c-1.8-0.867-2.7-1.95-2.7-3.25c0-0.6,0.216-1.117,0.65-1.55
		c0.433-0.467,0.95-0.7,1.55-0.7c0.367,0,1.1,0.35,2.2,1.05s2.05,1.05,2.85,1.05c1.066,0,1.917-0.45,2.55-1.35
		c0.567-0.8,0.85-1.767,0.85-2.9c0-1-0.267-1.8-0.8-2.4c-0.566-0.6-1.333-0.9-2.3-0.9c-0.633,0-1.3,0.183-2,0.55
		c-0.667,0.367-1.283,0.55-1.85,0.55c-0.566,0-1.033-0.184-1.4-0.55c-0.333-0.333-0.5-0.667-0.5-1l0.9-7.95
		c0.167-1.233,0.45-2.067,0.85-2.5c0.333-0.4,0.9-0.6,1.7-0.6h7.8c0.733,0,1.317,0.2,1.75,0.6C74.934,34.217,75.15,34.7,75.15,35.3z
		"/>
	<path style="fill-rule:evenodd;clip-rule:evenodd;fill:#F7E0E7;" d="M89.15,44.85c0-5.034-1.184-7.55-3.551-7.55
		c-2.333,0-3.5,2.517-3.5,7.55c0,5,1.167,7.5,3.5,7.5C87.967,52.35,89.15,49.85,89.15,44.85z M85.6,56.8
		c-2.966,0-5.216-1.333-6.75-4C77.617,50.633,77,47.983,77,44.85c0-3.167,0.617-5.817,1.85-7.95c1.533-2.667,3.783-4,6.75-4
		c3,0,5.268,1.333,6.801,4c1.233,2.133,1.85,4.783,1.85,7.95c0,3.133-0.616,5.783-1.85,7.95C90.867,55.467,88.6,56.8,85.6,56.8z"/>
	<path style="fill-rule:evenodd;clip-rule:evenodd;fill:#F7E0E7;" d="M107.95,34.9c1.133,1.167,1.7,2.467,1.7,3.9
		c0,2.2-0.884,3.867-2.65,5c1.2,0.534,2.15,1.317,2.85,2.35c0.733,1.033,1.101,2.184,1.101,3.45c0,1.967-0.783,3.65-2.351,5.05
		c-1.6,1.434-3.533,2.15-5.8,2.15c-2.233,0-4.133-0.7-5.7-2.1c-1.399-1.233-2.1-2.567-2.1-4c0-0.633,0.267-1.167,0.8-1.6
		c0.533-0.4,1.101-0.6,1.7-0.6s1.316,0.633,2.15,1.9c0.8,1.267,1.866,1.9,3.199,1.9c0.867,0,1.584-0.283,2.15-0.85
		c0.6-0.6,0.9-1.317,0.9-2.15c0-1.566-0.917-2.5-2.75-2.8c-1.834-0.267-2.75-1.017-2.75-2.25c0-1.1,0.767-1.85,2.3-2.25
		s2.3-1.217,2.3-2.45c0-0.633-0.217-1.15-0.65-1.55c-0.433-0.434-1-0.65-1.699-0.65c-1.101,0-2.017,0.533-2.75,1.6
		c-0.733,1.066-1.434,1.6-2.101,1.6c-0.633,0-1.149-0.25-1.55-0.75c-0.366-0.466-0.55-1.017-0.55-1.65c0-1.3,0.733-2.5,2.2-3.6
		c1.467-1.1,3.083-1.65,4.85-1.65C104.917,32.9,106.65,33.566,107.95,34.9z"/>
	
		<linearGradient id="SVGID_5_" gradientUnits="userSpaceOnUse" x1="-55.8662" y1="67.5781" x2="-32.3643" y2="67.5781" gradientTransform="matrix(4.255319e-005 -1 1 -0.001 -2.258746e-004 -4.747650e-005)">
		<stop  offset="0.0745" style="stop-color:#6A034E"/>
		<stop  offset="0.2667" style="stop-color:#830B61"/>
		<stop  offset="0.6706" style="stop-color:#C22193"/>
		<stop  offset="0.9922" style="stop-color:#F934BE"/>
	</linearGradient>
	<path style="fill-rule:evenodd;clip-rule:evenodd;fill:url(#SVGID_5_);" d="M72.85,36.75h-6.1L66.3,40.2c1-0.2,1.8-0.3,2.4-0.3
		c1.933,0,3.55,0.684,4.85,2.05c1.267,1.3,1.9,2.917,1.9,4.85c0,2.767-0.733,4.95-2.2,6.55c-1.5,1.633-3.633,2.45-6.4,2.45
		c-1.467,0-2.95-0.367-4.45-1.1c-1.8-0.867-2.7-1.95-2.7-3.25c0-0.6,0.216-1.117,0.65-1.55c0.433-0.433,0.95-0.65,1.55-0.65
		c0.367,0,1.1,0.35,2.2,1.05c1.1,0.667,2.05,1,2.85,1c1.066,0,1.917-0.45,2.55-1.35c0.567-0.8,0.85-1.767,0.85-2.9
		c0-1-0.267-1.783-0.8-2.35c-0.533-0.6-1.3-0.9-2.3-0.9c-0.633,0-1.3,0.184-2,0.55c-0.667,0.333-1.283,0.5-1.85,0.5
		c-0.566,0-1.033-0.184-1.4-0.55c-0.333-0.3-0.5-0.617-0.5-0.95l0.9-8c0.167-1.2,0.45-2.017,0.85-2.45c0.333-0.4,0.9-0.6,1.7-0.6
		h7.8c0.733,0,1.317,0.2,1.75,0.6c0.434,0.367,0.65,0.85,0.65,1.45C75.15,35.95,74.383,36.75,72.85,36.75z"/>
	
		<linearGradient id="SVGID_6_" gradientUnits="userSpaceOnUse" x1="-55.8838" y1="85.6279" x2="-31.9839" y2="85.6279" gradientTransform="matrix(4.184101e-005 -1 1 -0.001 -1.504376e-004 4.449275e-004)">
		<stop  offset="0.0745" style="stop-color:#6A034E"/>
		<stop  offset="0.2667" style="stop-color:#830B61"/>
		<stop  offset="0.6706" style="stop-color:#C22193"/>
		<stop  offset="0.9922" style="stop-color:#F934BE"/>
	</linearGradient>
	<path style="fill-rule:evenodd;clip-rule:evenodd;fill:url(#SVGID_6_);" d="M89.15,43.85c0-5.034-1.184-7.55-3.551-7.55
		c-2.333,0-3.5,2.517-3.5,7.55c0,5.033,1.167,7.55,3.5,7.55C87.967,51.4,89.15,48.883,89.15,43.85z M85.6,55.8
		c-2.966,0-5.216-1.333-6.75-4C77.617,49.667,77,47.017,77,43.85c0-3.167,0.617-5.817,1.85-7.95c1.533-2.667,3.783-4,6.75-4
		c3,0,5.268,1.333,6.801,4c1.233,2.133,1.85,4.783,1.85,7.95c0,3.167-0.616,5.816-1.85,7.95C90.867,54.467,88.6,55.8,85.6,55.8z"/>
	
		<linearGradient id="SVGID_7_" gradientUnits="userSpaceOnUse" x1="-55.9014" y1="102.9785" x2="-32.0015" y2="102.9785" gradientTransform="matrix(4.184101e-005 -1 1 -0.001 -1.504376e-004 4.449275e-004)">
		<stop  offset="0.0745" style="stop-color:#6A034E"/>
		<stop  offset="0.2667" style="stop-color:#830B61"/>
		<stop  offset="0.6706" style="stop-color:#C22193"/>
		<stop  offset="0.9922" style="stop-color:#F934BE"/>
	</linearGradient>
	<path style="fill-rule:evenodd;clip-rule:evenodd;fill:url(#SVGID_7_);" d="M107.95,33.9c1.133,1.167,1.7,2.483,1.7,3.95
		c0,2.167-0.884,3.816-2.65,4.95c1.2,0.567,2.15,1.35,2.85,2.35c0.733,1.033,1.101,2.184,1.101,3.45c0,1.967-0.783,3.65-2.351,5.05
		c-1.6,1.434-3.533,2.15-5.8,2.15c-2.233,0-4.133-0.7-5.7-2.1c-1.399-1.233-2.1-2.567-2.1-4c0-0.633,0.267-1.167,0.8-1.6
		c0.533-0.4,1.101-0.6,1.7-0.6s1.316,0.633,2.15,1.9c0.8,1.267,1.866,1.9,3.199,1.9c0.867,0,1.584-0.283,2.15-0.85
		c0.6-0.6,0.9-1.317,0.9-2.15c0-1.566-0.917-2.5-2.75-2.8c-1.834-0.267-2.75-1.017-2.75-2.25c0-1.1,0.767-1.85,2.3-2.25
		s2.3-1.217,2.3-2.45c0-0.633-0.217-1.15-0.65-1.55c-0.433-0.4-1-0.6-1.699-0.6c-1.101,0-2.017,0.533-2.75,1.6
		c-0.733,1.033-1.434,1.55-2.101,1.55c-0.633,0-1.149-0.25-1.55-0.75c-0.366-0.466-0.55-1.017-0.55-1.65c0-1.3,0.733-2.5,2.2-3.6
		c1.467-1.1,3.083-1.65,4.85-1.65C104.917,31.9,106.65,32.566,107.95,33.9z"/>
	<path style="fill-rule:evenodd;clip-rule:evenodd;fill:#F7E0E7;" d="M87.25,62.6l0.6-1.05c0.801-1.333,1.75-2.65,2.851-3.95
		c1.6-2,3.5-3,5.7-3c1.8,0,3.449,0.7,4.949,2.1l0.15,0.1c1.533,1.633,2.667,3.483,3.4,5.55c0.566,1.566,1.017,3.133,1.35,4.7
		c0.467,1.9,0.783,3.567,0.95,5l0.149,1.8L108,73.4c1.967-1.433,3.867-2.15,5.7-2.15c1.3,0,2.45,0.35,3.45,1.05l0.449,0.3
		c1.667,1.367,2.534,3.2,2.601,5.5c0,1.133-0.101,2.267-0.3,3.4c-0.2,1.167-0.5,2.333-0.9,3.5c-0.434,1.233-0.95,2.366-1.55,3.4
		c-0.533,1.033-1.267,2.149-2.2,3.35l-0.5,0.7c-0.866,1.133-1.917,2.3-3.15,3.5c-0.833,0.833-1.833,1.75-3,2.75
		c1.167,0.267,2.233,0.75,3.2,1.45l0.75,0.699c1.634,1.567,2.767,3.117,3.4,4.65c0.6,1.533,0.866,3.417,0.8,5.65
		c-0.033,1.433-0.333,2.85-0.9,4.25c0.967,1.666,1.334,3.616,1.101,5.85c-0.233,2.267-1.066,4.533-2.5,6.8
		c-1.2,1.9-2.9,3.7-5.101,5.4c-2.5,1.899-5.166,3.283-8,4.149c-4.933,1.434-10.949,2.017-18.05,1.75c-1.533-0.066-2.9-0.25-4.1-0.55
		h-0.05c-1.333,0.5-2.733,0.75-4.2,0.75c-3.2,0-6.267-1.133-9.2-3.399c-1.767-1.301-3.45-3.034-5.05-5.2
		c-1.633-2.233-2.75-4.816-3.35-7.75c-0.6-2.867-0.617-5.65-0.05-8.351c-2-0.333-3.566-1.149-4.7-2.449
		c-1.133-1.267-1.617-2.717-1.45-4.351c0.1-1.366,0.684-2.666,1.75-3.899c-1.833-1.101-3.483-2.617-4.95-4.551
		c-2.7-3.6-3.65-7.383-2.85-11.35c0.667-3.233,1.8-6,3.4-8.3c1.6-2.367,3.483-4.317,5.65-5.85c2.767-2.033,6.017-2.967,9.75-2.8
		c2.767,0.167,5.333,1.083,7.7,2.75c0.2-1.267,0.55-2.483,1.05-3.65c0.967-2.233,2.467-3.95,4.5-5.15
		C80.217,63.45,83.583,62.567,87.25,62.6z"/>
	
		<linearGradient id="SVGID_8_" gradientUnits="userSpaceOnUse" x1="-138.6245" y1="82.5137" x2="-53.6963" y2="82.5137" gradientTransform="matrix(1.177163e-005 -1 1 -0.001 2.177676e-004 4.449275e-004)">
		<stop  offset="0" style="stop-color:#CA2897"/>
		<stop  offset="0.1686" style="stop-color:#D148A0"/>
		<stop  offset="0.5255" style="stop-color:#E58FB7"/>
		<stop  offset="0.902" style="stop-color:#FDDDD1"/>
	</linearGradient>
	<path style="fill-rule:evenodd;clip-rule:evenodd;fill:url(#SVGID_8_);" d="M87.25,61.6l0.6-1.05
		c0.934-1.466,1.884-2.783,2.851-3.95c1.6-2,3.5-3,5.7-3c1.8,0,3.449,0.7,4.949,2.1l0.15,0.15c1.533,1.566,2.667,3.4,3.4,5.5
		c0.566,1.566,1.017,3.133,1.35,4.7c0.467,1.9,0.783,3.567,0.95,5l0.149,1.85l0.65-0.45c1.967-1.434,3.867-2.15,5.7-2.15
		c1.333,0,2.483,0.333,3.45,1l0.449,0.3c1.667,1.367,2.534,3.2,2.601,5.5c0,1.133-0.101,2.267-0.3,3.4c-0.2,1.167-0.5,2.333-0.9,3.5
		c-0.434,1.233-0.95,2.366-1.55,3.4c-0.533,1.033-1.267,2.149-2.2,3.35l-0.5,0.7c-0.967,1.3-2.017,2.467-3.15,3.5
		c-0.833,0.833-1.833,1.75-3,2.75c1.167,0.267,2.233,0.75,3.2,1.45l0.75,0.699c1.634,1.567,2.767,3.117,3.4,4.65
		c0.6,1.533,0.866,3.417,0.8,5.65c-0.066,1.5-0.366,2.916-0.9,4.25c0.967,1.666,1.334,3.616,1.101,5.85
		c-0.233,2.267-1.066,4.533-2.5,6.8c-1.2,1.9-2.9,3.7-5.101,5.4c-2.533,1.934-5.199,3.316-8,4.149c-4.699,1.4-10.716,2-18.05,1.801
		c-1.4-0.067-2.767-0.267-4.1-0.601h-0.05c-1.333,0.5-2.733,0.75-4.2,0.75c-3.2,0-6.267-1.116-9.2-3.35
		c-1.9-1.434-3.583-3.184-5.05-5.25c-1.633-2.233-2.75-4.8-3.35-7.7c-0.6-2.866-0.617-5.65-0.05-8.35
		c-1.966-0.334-3.533-1.167-4.7-2.5c-1.133-1.267-1.617-2.717-1.45-4.351c0.1-1.366,0.684-2.666,1.75-3.899
		c-1.833-1.101-3.483-2.617-4.95-4.551c-2.7-3.6-3.65-7.383-2.85-11.35c0.667-3.233,1.8-6,3.4-8.3c1.6-2.367,3.483-4.317,5.65-5.85
		c2.833-2,6.083-2.934,9.75-2.8c2.7,0.167,5.267,1.083,7.7,2.75c0.2-1.3,0.55-2.517,1.05-3.65c0.967-2.233,2.467-3.95,4.5-5.15
		C80.217,62.45,83.583,61.567,87.25,61.6z"/>
	<path style="fill-rule:evenodd;clip-rule:evenodd;fill:none;stroke:#F7E0E7;stroke-width:0.25;" d="M87.25,61.6
		c-3.667-0.033-7.033,0.85-10.1,2.65c-2.033,1.2-3.533,2.917-4.5,5.15c-0.5,1.133-0.85,2.35-1.05,3.65
		c-2.434-1.667-5-2.583-7.7-2.75c-3.667-0.133-6.917,0.8-9.75,2.8c-2.167,1.533-4.05,3.483-5.65,5.85c-1.6,2.3-2.733,5.066-3.4,8.3
		c-0.8,3.967,0.15,7.75,2.85,11.35c1.466,1.934,3.117,3.45,4.95,4.551c-1.066,1.233-1.65,2.533-1.75,3.899
		c-0.167,1.634,0.317,3.084,1.45,4.351c1.167,1.333,2.733,2.166,4.7,2.5c-0.566,2.699-0.55,5.483,0.05,8.35
		c0.6,2.9,1.717,5.467,3.35,7.7c1.466,2.066,3.15,3.816,5.05,5.25c2.934,2.233,6,3.35,9.2,3.35c1.466,0,2.867-0.25,4.2-0.75h0.05
		c1.333,0.334,2.7,0.533,4.1,0.601c7.334,0.199,13.351-0.4,18.05-1.801c2.801-0.833,5.467-2.216,8-4.149c2.2-1.7,3.9-3.5,5.101-5.4
		c1.434-2.267,2.267-4.533,2.5-6.8c0.233-2.233-0.134-4.184-1.101-5.85c0.534-1.334,0.834-2.75,0.9-4.25
		c0.066-2.233-0.2-4.117-0.8-5.65c-0.634-1.533-1.767-3.083-3.4-4.65l-0.75-0.699c-0.967-0.7-2.033-1.184-3.2-1.45
		c1.167-1,2.167-1.917,3-2.75c1.134-1.033,2.184-2.2,3.15-3.5l0.5-0.7c0.934-1.2,1.667-2.316,2.2-3.35
		c0.6-1.034,1.116-2.167,1.55-3.4c0.4-1.167,0.7-2.333,0.9-3.5c0.199-1.133,0.3-2.267,0.3-3.4c-0.066-2.3-0.934-4.133-2.601-5.5
		l-0.449-0.3c-0.967-0.667-2.117-1-3.45-1c-1.833,0-3.733,0.717-5.7,2.15l-0.65,0.45l-0.149-1.85c-0.167-1.433-0.483-3.1-0.95-5
		c-0.333-1.566-0.783-3.133-1.35-4.7c-0.733-2.1-1.867-3.934-3.4-5.5l-0.15-0.15c-1.5-1.4-3.149-2.1-4.949-2.1c-2.2,0-4.101,1-5.7,3
		c-0.967,1.167-1.917,2.483-2.851,3.95L87.25,61.6z"/>
	<path style="fill-rule:evenodd;clip-rule:evenodd;fill:#630F50;" d="M89.2,65.25l1.6-2.85c0.8-1.3,1.65-2.5,2.55-3.6
		c0.867-1.033,1.784-1.6,2.75-1.7c1-0.1,1.967,0.283,2.9,1.15c1.167,1.2,2.05,2.617,2.65,4.25c0.433,1.233,0.85,2.667,1.25,4.3
		c0.366,1.667,0.649,3.217,0.85,4.65c0.167,1.667,0.25,3.167,0.25,4.5c-0.066,1.566-0.233,3-0.5,4.3v0.2l0.1-0.05l2.75-2.35
		c1.067-0.9,2.284-1.833,3.65-2.8c2.167-1.6,3.934-1.95,5.3-1.05l0.101,0.05c0.866,0.767,1.316,1.733,1.35,2.9
		c0,0.8-0.083,1.7-0.25,2.7c-0.233,1.1-0.5,2.1-0.8,3c-0.434,1.2-0.867,2.167-1.3,2.9c-0.601,1.1-1.233,2.066-1.9,2.9L112,89.35
		c-0.733,0.967-1.667,2.017-2.8,3.15c-1.167,1.134-2.4,2.217-3.7,3.25l-0.9,0.75c0.4,1.5,0.417,3.1,0.051,4.8l0.6-0.2
		c1.634-0.433,3.117-0.149,4.45,0.851c0.2,0.133,0.333,0.25,0.399,0.35c1.268,1.267,2.134,2.434,2.601,3.5
		c0.434,1.101,0.616,2.517,0.55,4.25c-0.033,1.7-0.533,3.316-1.5,4.851L112,115.1c1.134,1,1.65,2.434,1.55,4.301
		c-0.1,1.866-0.783,3.8-2.05,5.8c-0.967,1.533-2.4,3.033-4.3,4.5c-2.167,1.633-4.45,2.816-6.851,3.55c-2.1,0.634-4.633,1.1-7.6,1.4
		c-3.033,0.3-6.133,0.383-9.3,0.25c-1.6-0.067-3.1-0.334-4.5-0.801c-0.367,0.233-0.7,0.384-1,0.45c-1,0.367-2,0.55-3,0.55
		c-2.367,0-4.733-0.899-7.1-2.699c-1.567-1.167-3.017-2.667-4.35-4.5c-1.8-2.467-2.816-5.417-3.05-8.851
		c-0.233-3.467,0.383-6.333,1.85-8.6l-1.15,0.05c-2.867,0.3-4.85-0.167-5.95-1.4c-0.467-0.5-0.667-1.083-0.6-1.75
		c0.1-0.966,0.816-2,2.15-3.1c0.967-0.833,2.05-1.616,3.25-2.35c-0.667-0.2-1.15-0.317-1.45-0.351
		c-2.966-0.434-5.583-2.116-7.85-5.05c-2.067-2.767-2.8-5.616-2.2-8.55c0.567-2.733,1.517-5.083,2.85-7.05s2.933-3.633,4.8-5
		c2.167-1.566,4.684-2.267,7.55-2.1c2.6,0.1,5.133,1.25,7.6,3.45c1.667,1.5,3.167,3.15,4.5,4.95c-0.333-1.4-0.566-2.667-0.7-3.8
		c-0.133-1.2-0.184-2.433-0.15-3.7c0.033-1.367,0.316-2.667,0.85-3.9c0.667-1.5,1.7-2.683,3.1-3.55
		C81.967,65.417,85.4,64.75,89.2,65.25z"/>
	<path style="fill-rule:evenodd;clip-rule:evenodd;fill:#FFFFFF;" d="M74.9,91c1.2-0.134,2.367,0.533,3.5,2
		c1.034,1.3,1.6,2.65,1.7,4.05c0.1,0.867-0.067,2.2-0.5,4c-0.434,1.767-0.617,3.084-0.55,3.95c0.134,1.233,0.867,1.917,2.2,2.05
		c1.233,0.167,2.583-0.149,4.05-0.95c1.334-0.733,2.684-2.066,4.05-4c1.334-1.833,2.317-3.733,2.95-5.699
		c0.567-1.767,1.717-2.884,3.45-3.351c1.566-0.467,3-0.283,4.3,0.55c1.167,0.733,1.967,1.817,2.4,3.25
		c0.434,1.434,0.417,2.983-0.05,4.65c-0.634,2.167-2.584,5.35-5.851,9.55L97.65,111c0.899-0.134,1.666-0.4,2.3-0.8
		c1.333-0.834,2.6-2.55,3.8-5.15c0.533-1.133,1.367-1.767,2.5-1.899c0.934-0.101,1.717,0.149,2.35,0.75
		c1.134,1.133,1.834,1.966,2.101,2.5c0.333,0.767,0.483,1.933,0.45,3.5c-0.033,1.399-0.5,2.767-1.4,4.1l-1.3,1.55l0.55,0.15
		c0.467,0.2,0.983,0.566,1.55,1.1c0.7,0.601,0.967,1.584,0.8,2.95c-0.133,1.333-0.683,2.767-1.649,4.3c-0.9,1.4-2.233,2.75-4,4.05
		c-1.9,1.434-3.884,2.45-5.95,3.051c-4.267,1.267-9.667,1.783-16.2,1.55c-1.633-0.033-3.267-0.384-4.9-1.05
		c-0.433,0.399-0.9,0.666-1.4,0.8c-1.967,0.733-4.066,0.517-6.3-0.65c-2.067-1.1-3.967-2.85-5.7-5.25
		c-1.6-2.233-2.483-4.866-2.65-7.899c-0.167-2.934,0.367-5.317,1.6-7.15c0.8-1.167,2.066-1.75,3.8-1.75
		c0.833-2.467,1.467-4.366,1.9-5.7c0.767-2.399,1.217-4.399,1.35-6C71.583,93.517,72.8,91.167,74.9,91z"/>
	<path style="fill-rule:evenodd;clip-rule:evenodd;fill:#CFBDB4;" d="M74.05,91.2C72.684,92.566,72,94.35,72,96.55
		c-0.033,2.5,0.25,4.283,0.85,5.351c0.367,0.666,1.033,1.199,2,1.6c0.6,0.233,1.316,0.25,2.15,0.05c0.8-0.2,1.55-0.566,2.25-1.1
		c-0.233,0.934-0.3,1.783-0.2,2.55c0,0.233,0.1,0.55,0.3,0.95l-2.05,0.3c-2.533-0.4-4.283-0.35-5.25,0.15l-3.55,1.75
		c0.767-2.2,1.317-3.867,1.65-5c0.6-1.967,0.967-3.667,1.1-5.101C71.55,94.15,72.483,91.866,74.05,91.2z"/>
	<path style="fill-rule:evenodd;clip-rule:evenodd;fill:#CFBDB4;" d="M67.35,114.05c-0.067,1.867,0.05,2.95,0.35,3.25
		c0.033,0.033,0.083,0.184,0.15,0.45l-0.4,0.6c-0.167,0.434-0.2,1.15-0.1,2.15c0.133,1.1,0.417,1.967,0.85,2.6
		c0.433,0.601,0.517,1.534,0.25,2.801c-0.2,0.933-0.5,1.8-0.9,2.6l-0.15,0.6c-1-1.066-1.716-1.916-2.15-2.55
		c-1.333-1.833-2.167-3.983-2.5-6.45c0.267,0.733,0.533,1.267,0.8,1.601c0.134,0.233,0.717,1.416,1.75,3.55
		c0.333,0.7,0.75,0.65,1.25-0.15c0.333-0.566,0.284-1.633-0.15-3.199c-0.533-1.934-0.8-3.067-0.8-3.4c0-0.533,0.133-1.2,0.4-2
		c0.167-0.6,0.184-1.033,0.05-1.3c-0.167-0.367,0.034-1.117,0.6-2.25l0.9-1.601L67.35,114.05z"/>
	<path style="fill-rule:evenodd;clip-rule:evenodd;fill:#CFBDB4;" d="M109.1,114.85l-0.625,0.676
		c-0.253-0.221-0.544-0.346-0.875-0.375l-1.199-0.101l1-0.35L109.1,114.85z M67.7,120.85c0.1-1.633,0.15-2.666,0.15-3.1
		c0.533-0.7,1.35-1.616,2.45-2.75l-0.9,2.2c-0.3,1.8,0.317,3.5,1.85,5.1c2.867,3.033,4.8,4.851,5.8,5.45
		c2.733,1.7,6.417,2.434,11.05,2.2c5-0.2,9.601-1.316,13.801-3.351c3.733-1.8,6.05-3.683,6.949-5.649c0.7-1.601,0.834-3,0.4-4.2
		c-0.189-0.518-0.432-0.909-0.725-1.175L109,115.7c0.467,0.2,0.983,0.566,1.55,1.1c0.7,0.601,0.967,1.584,0.8,2.95
		c-0.133,1.333-0.683,2.767-1.649,4.3c-0.9,1.4-2.233,2.75-4,4.05c-1.9,1.434-3.884,2.45-5.95,3.051
		c-4.267,1.267-9.667,1.783-16.2,1.55c-1.633-0.033-3.267-0.384-4.9-1.05l-0.15,0.1c-3.8-2.6-6.467-4.616-8-6.05
		C68.833,124.167,67.9,122.55,67.7,120.85z"/>
	<path style="fill-rule:evenodd;clip-rule:evenodd;fill:#CFBDB4;" d="M68.2,123.1c-0.434-0.633-0.717-1.5-0.85-2.6
		c-0.1-1-0.067-1.717,0.1-2.15l0.4-0.6c0,0.434-0.05,1.467-0.15,3.1c0.2,1.7,1.133,3.317,2.8,4.851c1.533,1.434,4.2,3.45,8,6.05
		c-0.467,0.333-0.883,0.566-1.25,0.7c-1.566,0.6-3.233,0.566-5-0.101c-1.667-0.6-3.283-1.683-4.85-3.25l0.15-0.6
		c0.4-0.8,0.7-1.667,0.9-2.6C68.717,124.634,68.633,123.7,68.2,123.1z"/>
	<path style="fill-rule:evenodd;clip-rule:evenodd;fill:#CFBDB4;" d="M93,119.1c2.367,0.134,4.816-0.783,7.35-2.75
		c4.967-3.899,7.467-5.866,7.5-5.899c1.9-1.8,2.551-3.55,1.95-5.25V105.1c0.567,0.634,0.95,1.267,1.15,1.9
		c0.167,0.667,0.233,1.634,0.2,2.9c-0.033,1.533-0.601,3.033-1.7,4.5c-0.434,0.033-1.117,0.133-2.05,0.3
		c-1.233,0-2.167,0.166-2.801,0.5c-0.8,0.434-1.732,1.233-2.8,2.399c-1,1.167-1.633,1.867-1.899,2.101
		c-0.434,0.399-1.334,0.816-2.7,1.25c-1.467,0.434-2.583,0.55-3.351,0.35c-0.699-0.2-1.517-0.75-2.449-1.649l-1.2-1.351L93,119.1z"
		/>
	<path style="fill-rule:evenodd;clip-rule:evenodd;fill:#CFBDB4;" d="M107.4,114.7c0.933-0.167,1.616-0.267,2.05-0.3l-0.351,0.449
		L107.4,114.7z"/>
	<path style="fill-rule:evenodd;clip-rule:evenodd;fill:#CFBDB4;" d="M92.85,109.25c2.367-1.4,4.75-4.65,7.15-9.75
		c0.967-2.1,1.066-4.017,0.3-5.75c1.067,0.767,1.8,1.866,2.2,3.3c0.367,1.4,0.333,2.884-0.1,4.45c-0.533,1.8-2.067,4.417-4.601,7.85
		c-2.399,1.867-4.55,2.834-6.45,2.9c-1.232,0.033-2.216-0.167-2.949-0.6l-0.75-0.601l1.55-0.25
		C90.467,110.467,91.684,109.95,92.85,109.25z"/>
	<path style="fill-rule:evenodd;clip-rule:evenodd;fill:#A4008B;" d="M70.95,93.2c0.8-2.134,2.083-3.283,3.85-3.45
		c1.1-0.066,2.134,0.267,3.1,1c0.867,0.667,1.633,1.583,2.3,2.75c0.633,1.167,1,2.3,1.1,3.4c0.1,0.966-0.1,2.433-0.6,4.399
		c-0.4,1.667-0.567,2.851-0.5,3.55c0.033,0.267,0.15,0.5,0.35,0.7c0.367,0.267,0.917,0.367,1.65,0.3c0.833-0.066,1.7-0.35,2.6-0.85
		c1.167-0.667,2.384-1.866,3.65-3.6c1.233-1.733,2.133-3.517,2.7-5.351c0.633-1.934,1.85-3.267,3.649-4
		c0.967-0.366,1.967-0.5,3-0.399c1.067,0.066,2.017,0.366,2.851,0.899l0.5,0.3c1.233,0.934,2.066,2.217,2.5,3.851
		c0.433,1.633,0.383,3.333-0.15,5.1c-0.4,1.533-1.733,3.95-4,7.25c1.033-0.7,2.1-2.2,3.2-4.5c0.633-1.3,1.566-2.133,2.8-2.5
		c1.3-0.366,2.5-0.133,3.6,0.7L109.4,103c1.199,1.134,2,2.2,2.399,3.2c0.4,0.934,0.567,2.2,0.5,3.8
		c-0.1,1.866-0.733,3.566-1.899,5.1l0.949,0.75c0.934,0.834,1.334,2.067,1.2,3.7c-0.133,1.601-0.767,3.316-1.899,5.15
		c-0.9,1.467-2.267,2.883-4.101,4.25c-2.033,1.566-4.2,2.684-6.5,3.35c-4.366,1.334-9.883,1.867-16.55,1.601
		c-1.633-0.067-3.2-0.367-4.7-0.9c-0.433,0.3-0.833,0.517-1.2,0.65c-2.867,1.066-5.917,0.399-9.15-2
		c-1.534-1.167-2.917-2.617-4.15-4.351c-1.733-2.366-2.7-5.166-2.9-8.399c-0.2-3.267,0.417-5.967,1.85-8.101
		c0.867-1.267,2.15-2,3.85-2.2l0.8-2.399c1.3-3.767,2.017-6.517,2.15-8.25C70.25,95.884,70.55,94.3,70.95,93.2z M77.15,91.75
		c-0.833-0.6-1.583-0.85-2.25-0.75c-2.1,0.167-3.316,2.517-3.65,7.05c-0.133,1.434-0.5,3.134-1.1,5.101
		c-0.333,1.133-0.883,2.8-1.65,5l1.25-1.101c1.033-0.866,2.2-1.233,3.5-1.1l-1.2,0.45c-0.733,0.233-1.533,0.8-2.4,1.699
		c-1.033,1.034-1.733,2.117-2.1,3.25c-0.366,1.233-0.583,2.334-0.65,3.301c-0.066,0.966,0.034,1.533,0.3,1.699
		c0.167,0.134,0.35,0.117,0.55-0.05c0.6-0.533,1.033-0.883,1.3-1.05c0.867-0.566,1.667-0.967,2.4-1.2c1.033-0.3,2.3-0.383,3.8-0.25
		c2.2,0.233,3.417,0.55,3.65,0.95c-1-0.366-2.35-0.517-4.05-0.45c-1.7,0.033-3.367,0.834-5,2.4c-1.867,1.833-2.25,3.767-1.15,5.8
		c1.1,1.967,2.95,4,5.55,6.1c1.567,1.267,3.033,2.284,4.4,3.051c1.633,0.666,3.267,1.017,4.9,1.05
		c6.533,0.233,11.934-0.283,16.2-1.55c2.066-0.601,4.05-1.617,5.95-3.051c1.767-1.3,3.1-2.649,4-4.05
		c0.967-1.533,1.517-2.967,1.649-4.3c0.167-1.366-0.1-2.35-0.8-2.95c-0.233-0.233-0.416-0.383-0.55-0.45
		c-0.5-0.399-0.9-0.633-1.2-0.699l-0.35-0.101c-2.3-0.7-4.434,0.033-6.4,2.2c-1.3,1.434-2.35,2.417-3.149,2.95
		c-0.9,0.6-1.884,0.95-2.95,1.05c-0.667,0.1-1.4,0.033-2.2-0.2l-1.05-0.35l2.2-0.101c1.566-0.166,2.616-0.433,3.149-0.8
		c0.767-0.566,2.317-2.149,4.65-4.75c0.899-1,2.116-1.55,3.649-1.649c1.233-0.067,2.268,0.116,3.101,0.55
		c1.066-1.5,1.616-2.983,1.649-4.45c0.067-1.434-0.083-2.55-0.449-3.35c-0.334-0.801-1.017-1.717-2.051-2.75l-0.25-0.15
		c-0.633-0.533-1.399-0.717-2.3-0.55c-1,0.166-1.767,0.783-2.3,1.85c-1.2,2.601-2.467,4.316-3.8,5.15l-1.25,0.649
		c-1.5,0.9-3.517,1.417-6.05,1.551l-3.4-0.101l1.7-0.2c1.2-0.199,2.05-0.383,2.55-0.55c0.934-0.3,1.983-0.899,3.15-1.8
		c1.1-0.833,1.967-1.65,2.6-2.45l0.05-0.1c1.667-2.434,2.7-4.334,3.101-5.7c0.433-1.566,0.467-3.033,0.1-4.4
		c-0.333-1.399-1.017-2.483-2.05-3.25l-0.4-0.25c-1.3-0.833-2.733-1.017-4.3-0.55c-1.733,0.467-2.883,1.584-3.45,3.351
		c-0.633,1.966-1.616,3.866-2.95,5.699c-1.366,1.934-2.716,3.267-4.05,4c-1.167,0.634-2.316,0.967-3.45,1H81.4l-0.9-0.199
		c-1.733-0.367-3.133-0.551-4.2-0.551h-0.6l1.95-0.899c0.6-0.2,1.067-0.467,1.4-0.8c-0.033-0.801,0.167-2.067,0.6-3.801
		c0.4-1.666,0.55-2.933,0.45-3.8c-0.067-0.899-0.383-1.85-0.95-2.85C78.583,93.167,77.917,92.35,77.15,91.75z M64.2,111.5
		c-1.233,1.833-1.767,4.217-1.6,7.15c0.167,3.033,1.05,5.666,2.65,7.899c1.133,1.601,2.434,2.967,3.9,4.101
		c2.867,2.166,5.567,2.767,8.1,1.8c0.2-0.033,0.434-0.15,0.7-0.351c-3.367-1.5-6.383-3.816-9.05-6.949
		c-1.167-1.367-1.85-2.967-2.05-4.801V118c-0.3-0.6-0.567-1.533-0.8-2.8c-0.4-1.934-0.066-3.733,1-5.4
		C65.75,110.033,64.8,110.6,64.2,111.5z"/>
	<path style="fill-rule:evenodd;clip-rule:evenodd;fill:#6B572F;" d="M93.05,103.55c-0.3,0.4-0.767,0.65-1.399,0.75l-0.351,0.05
		l-0.55-0.149l-0.4-0.2c-0.566-0.3-0.866-0.616-0.899-0.95v-0.35c0.167-0.434,0.399-0.783,0.7-1.05c0.533-0.434,1.066-0.601,1.6-0.5
		c0.9,0.199,1.417,0.55,1.55,1.05C93.467,102.733,93.384,103.184,93.05,103.55z"/>
	<path style="fill-rule:evenodd;clip-rule:evenodd;fill:#6E6A48;" d="M89.45,102.7v0.35c0.033,0.334,0.333,0.65,0.899,0.95l0.4,0.2
		c-0.1,0.1-0.15,0.333-0.15,0.7c0,0.399-0.232,0.833-0.699,1.3c-0.467,0.5-1,0.883-1.601,1.149c-0.566,0.233-1.083,0.101-1.55-0.399
		l-0.45-0.55c0.101-0.267,0.117-0.601,0.05-1c-0.033-0.267-0.267-0.534-0.699-0.801c-0.101-0.199-0.101-0.35,0-0.449l0.449-0.45
		c0.167-0.167,0.467-0.351,0.9-0.55l0.65-0.2L89.45,102.7z"/>
	<path style="fill-rule:evenodd;clip-rule:evenodd;fill:#3F3823;" d="M79.65,104.75c1.8-0.634,3.05-0.95,3.75-0.95
		c0.633,0,1.383,0.267,2.25,0.8c0.433,0.267,0.666,0.534,0.699,0.801c0.067,0.399,0.051,0.733-0.05,1c-0.1,0.5-0.416,0.933-0.95,1.3
		l-0.649,0.45c-0.534-0.467-0.85-1-0.95-1.601c-0.9,0.167-1.75,0.066-2.55-0.3C80.467,105.917,79.95,105.417,79.65,104.75z"/>
	<path style="fill-rule:evenodd;clip-rule:evenodd;fill:#7E744C;" d="M81.2,106.25c0.8,0.366,1.65,0.467,2.55,0.3
		c0.1,0.601,0.417,1.134,0.95,1.601c-0.567,0.233-1.1,0.399-1.6,0.5c-0.767,0.133-2.417-0.034-4.95-0.5
		c-1.9-0.4-3.066-0.834-3.5-1.301c-0.167-0.267,0.817-0.75,2.95-1.449l2.05-0.65C79.95,105.417,80.467,105.917,81.2,106.25z"/>
	<path style="fill-rule:evenodd;clip-rule:evenodd;fill:#75632F;" d="M98.3,58.95L98,58.9c-1.3,1.4-1.417,3.15-0.35,5.25l2.5,5.35
		c0.733,1.4,1.166,2.833,1.3,4.3c0.133,1.3,0.149,2.684,0.05,4.15l-0.2,1.8c-0.066-1.867-0.149-3.267-0.25-4.2
		c-0.1-1.2-0.366-2.517-0.8-3.95c-0.467-1.434-1.05-2.917-1.75-4.45l-0.9-1.9c-0.366-1-1-1.833-1.899-2.5
		c-0.333-0.233-0.566-0.183-0.7,0.15c-0.5,1.033-0.366,2.167,0.4,3.4l1.75,4.5c0.5,1.4,0.85,2.85,1.05,4.35l1.7,9.8l-0.45,1.25
		l-1.2-8.85c-0.333-1.7-0.7-3.184-1.1-4.45c-0.301-1-0.767-2.283-1.4-3.85c-0.333-1.3-0.983-2.4-1.95-3.3
		c-0.767-0.767-1.35-0.733-1.75,0.1c-0.533,1.2-0.583,2.4-0.149,3.6l0.649,1.15l2.9,12.35l0.5,4.649c0.133,1.233,0.2,2.65,0.2,4.25
		L95.55,92.45l-0.2-4.7c-0.033-0.967-0.199-2.117-0.5-3.45c-0.3-1.7-0.649-3.417-1.05-5.15l-1.2-3.5
		c-0.533-1.4-1.183-2.767-1.949-4.1c-0.967-1.7-2.267-2.767-3.9-3.2c-1.3-0.4-1.816,0.066-1.55,1.4c0.2,1.167,0.6,2.267,1.2,3.3
		l-1.2-1.8c-0.633-0.867-1.434-1.433-2.4-1.7c-1.267-0.4-2.233-0.066-2.9,1c-0.233,0.333-0.283,0.717-0.15,1.15
		c1.167,2.8,2.317,5.433,3.45,7.9l2.5,6.65l0.85,3.2c0.267,0.967,0.567,2.5,0.9,4.6c0.167,1.3,0.283,2.717,0.35,4.25l-0.45,0.3
		l-1.1-8.75l-1.2-4.25c-0.5-1.7-1.017-3.184-1.55-4.45L82.55,79c-0.7-1.533-1.517-2.85-2.45-3.95c-0.533-0.8-1.267-1.2-2.2-1.2
		c-0.367,0-0.6,0.167-0.7,0.5c-0.567,1.333-0.534,2.767,0.1,4.3c0.5,1.434,1.15,2.917,1.95,4.45l2.85,5.65
		c0.767,1.767,1.35,3.25,1.75,4.45c0.533,1.6,0.816,3.166,0.85,4.7c0,1.199-0.034,2.083-0.1,2.649l-0.65,1.05l-1-2.6
		c-0.267-0.866-0.4-1.65-0.4-2.35c0-1.367-0.383-2.717-1.15-4.051c-1.7-2.767-3.033-5.616-4-8.55c-0.667-1.9-1.117-3.816-1.35-5.75
		c-0.133-1.2-0.183-2.383-0.15-3.55c0.1-1.3,0.367-2.483,0.8-3.55c0.6-1.367,1.5-2.4,2.7-3.1c3.067-1.833,6.517-2.417,10.35-1.75
		c0.5-1,1.134-2.15,1.9-3.45c0.866-1.367,1.699-2.533,2.5-3.5C95.45,57.733,96.833,57.583,98.3,58.95z M90.75,85.75
		c0.2,0.9,0.434,2.366,0.7,4.4l0.5,5.3l-0.4,0.3c0-1.434-0.133-2.95-0.399-4.55c-0.2-1.334-0.45-2.767-0.75-4.3L88.25,77
		L90.75,85.75z"/>
	<path style="fill-rule:evenodd;clip-rule:evenodd;fill:#3F2B14;" d="M98.3,58.95c1.033,1.033,1.834,2.333,2.4,3.9
		c0.5,1.4,0.899,2.8,1.2,4.2c0.333,1.233,0.616,2.75,0.85,4.55c0.167,1.2,0.25,2.633,0.25,4.3c-0.033,1.4-0.184,2.783-0.45,4.15
		l-0.2,1l-0.149-4.3l-1.15,4.35l0.25-1.35l0.2-1.8c0.1-1.467,0.083-2.85-0.05-4.15c-0.134-1.466-0.566-2.9-1.3-4.3l-2.5-5.35
		c-1.067-2.1-0.95-3.85,0.35-5.25L98.3,58.95z"/>
	<path style="fill-rule:evenodd;clip-rule:evenodd;fill:#A0FFFF;" d="M92.05,65.85c0.4-0.833,0.983-0.867,1.75-0.1
		c0.967,0.9,1.617,2,1.95,3.3c-0.233,1.1-0.233,2.25,0,3.45l0.7,3.225c-0.549-2.3-1.616-4.258-3.2-5.875
		c-0.9-0.6-1.35-0.733-1.35-0.4C91.467,68.25,91.517,67.05,92.05,65.85z M97.6,65.25l0.601,4.2l-0.8-1.75
		c-0.567-1.067-1.233-1.534-2-1.4c-0.767-1.233-0.9-2.367-0.4-3.4c0.134-0.333,0.367-0.383,0.7-0.15
		C96.6,63.417,97.233,64.25,97.6,65.25z M80.45,77.65l2.1,1.35l0.95,2.15c0.533,1.267,1.05,2.75,1.55,4.45l1.2,4.25
		c-0.233-0.633-0.55-1.133-0.95-1.5c-1.366-1.366-2.433-1.233-3.2,0.4l-2.85-5.65c0.167-1.2,0.167-2.4,0-3.6
		c-0.133-1.2-0.433-2.5-0.9-3.9C79.083,76.467,79.783,77.15,80.45,77.65z M93.8,79.15c-0.6-1.233-1.483-1.667-2.649-1.3
		c-0.334,0.033-0.584,0.217-0.75,0.55c-0.5,0.967-0.75,2-0.75,3.1l-1.4-4.5c0.467-2.533,0.1-4.867-1.1-7
		c1.6,2.667,3.416,4.55,5.449,5.65L93.8,79.15z M88.25,77l1.8,8c-0.333-0.6-0.8-0.967-1.399-1.1c-2-0.6-2.983,0.184-2.95,2.35
		l-2.5-6.65c0.466-2.333,0.25-5.017-0.65-8.05c1.867,3,3.75,4.8,5.65,5.4L88.25,77z"/>
	<path style="fill-rule:evenodd;clip-rule:evenodd;fill:#6CB5FD;" d="M90.65,71.55c0.767,1.333,1.416,2.7,1.949,4.1
		c-2.033-1.1-3.85-2.983-5.449-5.65c1.199,2.133,1.566,4.467,1.1,7l-0.05-0.05c-1.9-0.6-3.784-2.4-5.65-5.4
		c0.9,3.034,1.117,5.717,0.65,8.05c-1.133-2.467-2.284-5.1-3.45-7.9c-0.133-0.434-0.083-0.817,0.15-1.15
		c0.667-1.066,1.633-1.4,2.9-1c0.967,0.267,1.767,0.833,2.4,1.7l1.2,1.8c-0.601-1.033-1-2.133-1.2-3.3
		c-0.267-1.333,0.25-1.8,1.55-1.4C88.384,68.783,89.684,69.85,90.65,71.55z M100.25,71.6c0.434,1.433,0.7,2.75,0.8,3.95
		c0.101,0.934,0.184,2.333,0.25,4.2L101.25,80l-0.95-4.35c-0.333-1.433-0.783-2.883-1.35-4.35l-0.75-1.85l-0.601-4.2l0.9,1.9
		C99.2,68.683,99.783,70.167,100.25,71.6z M97.15,72.9c0.399,1.267,0.767,2.75,1.1,4.45l1.2,8.85l-1,2.25l-0.4-4.25
		c-0.1-1.2-0.283-2.583-0.55-4.15l-1.75-7.55c-0.233-1.2-0.233-2.35,0-3.45C96.384,70.617,96.85,71.9,97.15,72.9z M77.9,73.85
		c0.934,0,1.667,0.4,2.2,1.2c0.933,1.1,1.75,2.417,2.45,3.95l-2.1-1.35c-0.667-0.5-1.367-1.183-2.1-2.05
		c0.467,1.4,0.767,2.7,0.9,3.9c0.167,1.2,0.167,2.4,0,3.6c-0.8-1.533-1.45-3.017-1.95-4.45c-0.633-1.533-0.667-2.967-0.1-4.3
		C77.3,74.017,77.533,73.85,77.9,73.85z"/>
	<path style="fill-rule:evenodd;clip-rule:evenodd;fill:#9C9268;" d="M102.35,81.05c-0.3,1.434-0.732,2.85-1.3,4.25
		c-0.666,1.566-1.416,3-2.25,4.3c-0.5,0.801-1.183,1.733-2.05,2.801c-1.233,1.399-2.316,2.55-3.25,3.449
		c-1.133,1.067-2.316,2.051-3.55,2.95c-1.333,0.967-2.566,1.967-3.7,3c-0.833,0.767-1.6,0.7-2.3-0.2l0.65-1.05l10.95-8.1
		l0.601-0.601l2.3-3.399l3.75-11.7L102.35,81.05z"/>
	<path style="fill-rule:evenodd;clip-rule:evenodd;fill:#6582FE;" d="M93.25,69.85c1.634,1.667,2.717,3.7,3.25,6.1l1,4.1
		c0.267,1.567,0.45,2.95,0.55,4.15l0.4,4.25l-2.3,3.399c0-1.6-0.067-3.017-0.2-4.25l-1.25-9.05l-2.15-7.95L91.9,69.45
		C91.9,69.117,92.35,69.25,93.25,69.85z M98.95,71.3c0.566,1.467,1.017,2.917,1.35,4.35l0.95,4.35l-0.2,1.1L99.9,84.95l-1.7-9.8
		c-0.2-1.5-0.55-2.95-1.05-4.35l-1.75-4.5c0.767-0.133,1.433,0.333,2,1.4L98.95,71.3z M94.85,84.3c0.301,1.333,0.467,2.483,0.5,3.45
		l0.2,4.7l-3.6,3l-0.5-5.3c-0.267-2.034-0.5-3.5-0.7-4.4l-1.1-4.25c0-1.1,0.25-2.133,0.75-3.1c0.166-0.333,0.416-0.517,0.75-0.55
		c1.166-0.367,2.05,0.066,2.649,1.3C94.2,80.883,94.55,82.6,94.85,84.3z M90.05,85l0.351,1.9c0.3,1.533,0.55,2.966,0.75,4.3
		c0.267,1.6,0.399,3.116,0.399,4.55L87.8,98.3c-0.066-1.533-0.183-2.95-0.35-4.25c-0.333-2.1-0.634-3.633-0.9-4.6l-0.85-3.2
		c-0.033-2.167,0.95-2.95,2.95-2.35C89.25,84.033,89.717,84.4,90.05,85z M86.25,89.85l1.1,8.75l-2.75,1.95
		c0.066-0.566,0.1-1.45,0.1-2.649c-0.034-1.534-0.317-3.101-0.85-4.7c-0.4-1.2-0.983-2.684-1.75-4.45
		c0.767-1.634,1.833-1.767,3.2-0.4C85.7,88.717,86.017,89.217,86.25,89.85z"/>
	<path style="fill-rule:evenodd;clip-rule:evenodd;fill:#6582FE;" d="M68.65,85.45c2.567,1.899,4.833,3.816,6.8,5.75l2.3,2.7
		l-9.35-8.45c-2.333-2-4.767-3.2-7.3-3.6c-0.9-0.133-1.25,0.316-1.05,1.35c0.6,2.333,2,3.967,4.2,4.899
		c1.667,0.7,4.167,1.817,7.5,3.351l0.25,0.1c2.2,0.767,4.2,2.117,6,4.05c-3.133-1.733-6.283-3.35-9.45-4.85L65.6,89.3
		c-2.567-1.267-5.017-1.967-7.35-2.1c-0.2-0.101-0.233-0.084-0.1,0.05c0.1,1.934,1,3.267,2.7,4c-1.167-0.267-2.117,0.017-2.85,0.85
		l-0.1,0.15c3.934,2.6,8,3.866,12.2,3.8L74.3,97l-9.75-1.35c-1.9-0.267-3.483,0.066-4.75,1c1.6,1.366,3.284,2.066,5.05,2.1
		c2.4,0.033,4.833-0.1,7.3-0.4c2.467-0.3,4.917,0.034,7.35,1c1.367,0.5,2.633,1.334,3.8,2.5c-1.4-4.199-3.483-8.199-6.25-12
		L73.8,85.1c-1.933-2.733-4.15-4.617-6.65-5.65c-0.767-0.3-1.183-0.05-1.25,0.75C65.8,82.267,66.717,84.017,68.65,85.45z
		 M63.85,78.9c0.5-0.533,1.117-0.75,1.85-0.65c2.133,0.3,4.25,1.417,6.35,3.35c2.233,2.2,4.217,4.6,5.95,7.2
		c2.767,4.267,4.633,8.717,5.6,13.351l-0.2,0.149c-2.3-1.333-4.7-2.2-7.2-2.6c-2.4-0.334-4.7-0.334-6.9,0
		c-2.466,0.366-4.95,0.35-7.45-0.05c-2.467-0.4-4.85-1.384-7.15-2.95c0-0.367,0.033-0.634,0.1-0.8l0.35-0.551
		c0.2-0.199,0.45-0.3,0.75-0.3L56.55,95l-0.1-0.2c-1.1,0.101-2.217-0.267-3.35-1.1c-0.8-0.601-1.283-1.434-1.45-2.5
		c-0.133-0.8-0.033-1.467,0.3-2c0.733-1.033,1.716-1.134,2.95-0.3l-0.05-0.2c-0.733-0.2-1.333-0.7-1.8-1.5
		c-0.4-0.634-0.6-1.333-0.6-2.1c0.033-0.767,0.333-1.283,0.9-1.55c1.533-0.733,3.217-0.433,5.05,0.9l-0.05-0.2
		c-1.367-0.867-1.95-1.967-1.75-3.3c0.167-1.1,0.717-1.684,1.65-1.75c0.9-0.034,1.833,0.117,2.8,0.45c1.2,0.5,2.267,1.033,3.2,1.6
		C63.417,80.25,63.283,79.467,63.85,78.9z M61.95,91.65L74.5,95.5l-8.15-2.2C64.55,92.7,63.083,92.15,61.95,91.65z"/>
	<path style="fill-rule:evenodd;clip-rule:evenodd;fill:#6A5C39;" d="M64.25,81.25c-0.933-0.567-2-1.1-3.2-1.6
		c-0.966-0.333-1.9-0.483-2.8-0.45c-0.933,0.066-1.483,0.65-1.65,1.75c-0.2,1.333,0.383,2.433,1.75,3.3l0.05,0.2
		c-1.833-1.333-3.517-1.633-5.05-0.9c-0.567,0.267-0.867,0.784-0.9,1.55c0,0.767,0.2,1.466,0.6,2.1c0.467,0.8,1.067,1.3,1.8,1.5
		l0.05,0.2c-1.233-0.834-2.216-0.733-2.95,0.3c-0.333,0.533-0.434,1.2-0.3,2c0.167,1.066,0.65,1.899,1.45,2.5
		c1.133,0.833,2.25,1.2,3.35,1.1l0.1,0.2l-0.65,0.05c-0.3,0-0.55,0.101-0.75,0.3L54.8,95.9c-0.066,0.166-0.1,0.433-0.1,0.8
		c2.3,1.566,4.683,2.55,7.15,2.95c2.5,0.399,4.983,0.416,7.45,0.05c2.2-0.334,4.5-0.334,6.9,0c2.5,0.399,4.9,1.267,7.2,2.6
		l-0.3,0.25c-2.2-1.5-4.45-2.25-6.75-2.25c-2.3-0.033-4.7,0.05-7.2,0.25c-2.2,0.2-4.4,0.717-6.6,1.55
		c-1.233-0.833-2.533-1.35-3.9-1.55c-2.733-0.399-5.117-1.95-7.15-4.649c-1.9-2.534-2.583-5.117-2.05-7.75
		c0.566-2.601,1.483-4.833,2.75-6.7c1.233-1.867,2.75-3.45,4.55-4.75c1.967-1.4,4.267-2.05,6.9-1.95c2.467,0.167,4.8,1.25,7,3.25
		c2.233,2.067,4.167,4.333,5.8,6.8c1.566,2.367,2.966,4.816,4.2,7.351c1.567,3.166,2.667,6.416,3.3,9.75l-0.35,0.25
		c-0.967-4.634-2.833-9.084-5.6-13.351c-1.733-2.6-3.717-5-5.95-7.2c-2.1-1.934-4.216-3.05-6.35-3.35
		c-0.733-0.1-1.35,0.117-1.85,0.65C63.283,79.467,63.417,80.25,64.25,81.25z"/>
	<path style="fill-rule:evenodd;clip-rule:evenodd;fill:#97895B;" d="M76.35,100.3c2.3,0,4.55,0.75,6.75,2.25
		c-1.867,1.5-4.033,2.351-6.5,2.55c-2.2,0.2-4.533,0.117-7-0.25c-2.267-0.333-4.617-1.25-7.05-2.75c2.2-0.833,4.4-1.35,6.6-1.55
		C71.65,100.35,74.05,100.267,76.35,100.3z"/>
	<path style="fill-rule:evenodd;clip-rule:evenodd;fill:#A0FFFF;" d="M71.75,91.45l-5.7-5.101l5.8,2.101l5.9,5.45l-2.3-2.7
		c-1-2.134-2.083-3.95-3.25-5.45c1.543,1.513,3.16,2.88,4.85,4.1c2.767,3.801,4.85,7.801,6.25,12c-1.167-1.166-2.433-2-3.8-2.5
		c-2.433-0.966-4.883-1.3-7.35-1L67.6,97l2.75-0.5L74.3,97l-4.2-0.95l-5.1-2.3l3.8,0.35l5.7,1.4l-4.65-1.35
		c-1.7-0.934-3.367-2.084-5-3.45l-0.45-0.4l4.15,0.45c3.167,1.5,6.317,3.116,9.45,4.85c-1.8-1.933-3.8-3.283-6-4.05L71.75,91.45z"/>
	<path style="fill-rule:evenodd;clip-rule:evenodd;fill:#6CB5FD;" d="M65.9,80.2c0.067-0.8,0.483-1.05,1.25-0.75
		c2.5,1.033,4.717,2.917,6.65,5.65l3.25,4.75c-1.689-1.22-3.306-2.587-4.85-4.1c1.167,1.5,2.25,3.316,3.25,5.45
		c-1.967-1.934-4.233-3.851-6.8-5.75C66.717,84.017,65.8,82.267,65.9,80.2z M64.85,90.7c1.633,1.366,3.3,2.517,5,3.45l-7.9-2.5
		c1.133,0.5,2.6,1.05,4.4,1.649l2.45,0.8L65,93.75l5.1,2.3c-4.2,0.066-8.267-1.2-12.2-3.8L58,92.1
		c0.733-0.833,1.684-1.116,2.85-0.85c-1.7-0.733-2.6-2.066-2.7-4c-0.133-0.134-0.1-0.15,0.1-0.05c2.333,0.133,4.783,0.833,7.35,2.1
		l2.95,1.45L64.4,90.3L64.85,90.7z M67.6,97l4.55,1.35c-2.466,0.301-4.9,0.434-7.3,0.4c-1.767-0.033-3.45-0.733-5.05-2.1
		c1.267-0.934,2.85-1.267,4.75-1l5.8,0.85L67.6,97z M64.25,88.1c-2.2-0.933-3.6-2.566-4.2-4.899c-0.2-1.034,0.15-1.483,1.05-1.35
		c2.533,0.4,4.967,1.6,7.3,3.6l3.45,3l-5.8-2.101l5.7,5.101C68.417,89.917,65.917,88.8,64.25,88.1z"/>
	<path style="fill-rule:evenodd;clip-rule:evenodd;fill:#75632F;" d="M114.45,75.05c-1.7,1.1-2.417,2.267-2.15,3.5l0.7,3.05
		c0.2,0.7,0.134,1.55-0.2,2.55c-0.366,0.934-0.833,1.85-1.399,2.75L110.6,88.1l1.2-2.7c0.3-0.767,0.483-1.583,0.55-2.45
		c0.034-0.733-0.033-1.6-0.199-2.6l-0.2-1.05c-0.033-0.6-0.384-1.033-1.05-1.3c-0.233-0.1-0.467-0.033-0.7,0.2
		c-0.8,0.767-1.05,1.483-0.75,2.15l0.2,2.65c0,0.7-0.167,1.583-0.5,2.65l-1.65,6.1l-0.85,0.9l1-2.75
		c0.399-1.267,0.666-2.217,0.8-2.851c0.267-0.899,0.417-1.8,0.45-2.7c0.066-0.767,0.066-1.517,0-2.25c0.066-0.8-0.2-1.4-0.801-1.8
		c-0.466-0.367-1.033-0.25-1.699,0.35c-0.934,0.867-1.384,1.667-1.351,2.4l0.2,0.65L105,86.15c-0.033,0.5-0.15,1.283-0.35,2.35
		c-0.101,0.5-0.367,1.417-0.801,2.75l-1,2.9c-0.232,0.633-0.649,1.55-1.25,2.75l-0.85,0.55l1.4-3.05
		c0.333-0.733,0.583-1.467,0.75-2.2l0.699-3.15v-2.1c-0.066-0.867-0.232-1.633-0.5-2.3c-0.333-0.933-1.232-1.4-2.699-1.4
		c-1.134-0.067-1.801,0.333-2,1.2c-0.162,0.743-0.137,1.36,0.074,1.85c-0.13-0.283-0.321-0.583-0.574-0.9
		c-0.301-0.467-0.867-0.7-1.7-0.7c-1.101,0-2.15,0.4-3.15,1.2c-0.3,0.234-0.483,0.484-0.55,0.75c0.267,1.966,0.5,3.483,0.7,4.55
		l0.2,3.899L93.1,97.05c-0.133,0.834-0.366,1.783-0.699,2.851c-0.334,0.966-0.7,1.883-1.101,2.75l-0.5,0.25l1.9-5.5l0.25-2.601
		c0.1-0.899,0.1-1.783,0-2.649l-0.2-1.2c-0.167-0.8-0.5-1.517-1-2.15C91.483,88.4,90.9,88.267,90,88.4
		c-0.333,0.066-0.616,0.216-0.85,0.449c-0.967,0.9-1.417,1.834-1.351,2.801c0,0.833,0.134,1.683,0.4,2.55l0.85,3.2
		c0.167,0.833,0.217,1.699,0.15,2.6c0,0.934-0.25,1.917-0.75,2.95c-0.267,0.566-0.601,1.133-1,1.7l-0.95,0.8l-0.05-1.55
		c-0.033-0.4,0.1-0.867,0.399-1.4c0.434-0.934,0.5-1.75,0.2-2.45c-0.666-1.434-1-3.066-1-4.899c0.067-1.233,0.3-2.4,0.7-3.5
		c0.267-0.834,0.617-1.601,1.05-2.301c0.533-0.899,1.184-1.733,1.95-2.5c1.134-1.033,2.35-1.85,3.65-2.45
		c3.666-1.8,7.199-2.8,10.6-3c0.833-0.8,1.833-1.667,3-2.6l3.55-2.75c1.867-1.3,3.267-1.633,4.2-1H114.45z M97.6,96.65L96.3,100
		l-0.45,0.3c0.4-0.899,0.768-1.866,1.101-2.899c0.3-0.9,0.55-1.801,0.75-2.7l1.2-6.05l-0.5,5.25C98.3,94.4,98.033,95.316,97.6,96.65
		z"/>
	<path style="fill-rule:evenodd;clip-rule:evenodd;fill:#3F2B14;" d="M114.75,75.05c0.667,0.5,1,1.2,1,2.1
		c0,0.7-0.083,1.55-0.25,2.55c-0.167,0.933-0.417,1.867-0.75,2.8c-0.3,0.933-0.7,1.867-1.2,2.8c-0.467,0.867-1.083,1.783-1.85,2.75
		l-0.5,0.7l1.3-2.8L109.9,89l1.5-2.1c0.566-0.9,1.033-1.817,1.399-2.75c0.334-1,0.4-1.85,0.2-2.55l-0.7-3.05
		c-0.267-1.233,0.45-2.4,2.15-3.5H114.75z"/>
	<path style="fill-rule:evenodd;clip-rule:evenodd;fill:#A0FFFF;" d="M110.9,78c0.666,0.267,1.017,0.7,1.05,1.3l-0.851,2.6l-0.199-1
		c-0.167-0.633-0.65-0.816-1.45-0.55c-0.3-0.667-0.05-1.383,0.75-2.15C110.434,77.967,110.667,77.9,110.9,78z M106.15,83.05
		c-0.667-0.267-1.033-0.267-1.101,0c-0.033-0.733,0.417-1.533,1.351-2.4c0.666-0.6,1.233-0.717,1.699-0.35
		c0.601,0.4,0.867,1,0.801,1.8c-0.667,0.767-1.051,1.5-1.15,2.2l-0.5,2.15C107.55,84.983,107.184,83.85,106.15,83.05z M103.6,89.05
		c-0.199-0.666-0.916-0.8-2.149-0.399c-0.3,0.066-0.601,0.233-0.9,0.5c-0.8,0.699-1.383,1.416-1.75,2.149L98.9,88.65L98,93.5
		c-0.133-0.3-0.467-0.45-1-0.45c-1.733-0.033-2.934,0.65-3.6,2.05L93.2,91.2c1.2-1.533,1.899-3.25,2.1-5.15
		c0.767,1.667,1.967,2.517,3.601,2.55c1.333-1.666,1.767-3.116,1.3-4.35c0.7,1.5,1.833,2.4,3.399,2.7V89.05z M89.05,97.4l-0.85-3.2
		c0.533-0.767,0.934-1.55,1.2-2.351c0.3-0.733,0.449-1.533,0.449-2.399c0.367,0.434,0.817,0.75,1.351,0.95
		c0.3,0.133,0.816,0.316,1.55,0.55l0.2,1.2c0.1,0.866,0.1,1.75,0,2.649L92.7,97.4c0-0.367-0.15-0.65-0.45-0.851
		C91.384,95.884,90.316,96.167,89.05,97.4z"/>
	<path style="fill-rule:evenodd;clip-rule:evenodd;fill:#6CB5FD;" d="M108.9,82.1c0.066,0.733,0.066,1.483,0,2.25
		c-0.033,0.9-0.184,1.8-0.45,2.7c-0.134,0.634-0.4,1.584-0.8,2.851l-1,2.75L104.9,94.3l1.1-2.7c0.4-1.033,0.684-1.916,0.85-2.649
		l0.9-4.65C107.85,83.6,108.233,82.867,108.9,82.1z M112.15,80.35c0.166,1,0.233,1.867,0.199,2.6c-0.066,0.867-0.25,1.683-0.55,2.45
		l-1.2,2.7l-0.1,0.15l0.55-2.65c0.167-0.9,0.217-1.767,0.15-2.6l-0.101-1.1l0.851-2.6L112.15,80.35z M103.6,86.95
		c-1.566-0.3-2.699-1.2-3.399-2.7c0.467,1.233,0.033,2.684-1.3,4.35c-1.634-0.033-2.834-0.883-3.601-2.55
		c-0.2,1.9-0.899,3.617-2.1,5.15c-0.2-1.066-0.434-2.584-0.7-4.55c0.066-0.267,0.25-0.517,0.55-0.75c1-0.8,2.05-1.2,3.15-1.2
		c0.833,0,1.399,0.233,1.7,0.7c0.253,0.316,0.444,0.617,0.574,0.9c-0.211-0.49-0.236-1.106-0.074-1.85
		c0.199-0.867,0.866-1.267,2-1.2c1.467,0,2.366,0.467,2.699,1.4C103.367,85.317,103.533,86.083,103.6,86.95z M91.75,88.8
		c0.5,0.634,0.833,1.351,1,2.15c-0.733-0.233-1.25-0.417-1.55-0.55c-0.533-0.2-0.983-0.517-1.351-0.95
		c0,0.866-0.149,1.666-0.449,2.399c-0.267,0.801-0.667,1.584-1.2,2.351c-0.267-0.867-0.4-1.717-0.4-2.55
		c-0.066-0.967,0.384-1.9,1.351-2.801c0.233-0.233,0.517-0.383,0.85-0.449C90.9,88.267,91.483,88.4,91.75,88.8z"/>
	<path style="fill-rule:evenodd;clip-rule:evenodd;fill:#9C9268;" d="M112.5,85.95l-1.3,2.8c-0.934,1.167-1.833,2.184-2.7,3.05
		c-1.1,1.101-2.3,2.15-3.6,3.15c-0.9,0.733-1.884,1.467-2.95,2.2c-1.3,0.933-2.733,1.883-4.3,2.85
		c-1.567,0.967-3.033,1.816-4.4,2.55l-4.6,2.601c-1.033,0.633-1.75,0.733-2.15,0.3l0.95-0.8L101.6,96.9l5.051-4.25L112.5,85.95z"/>
	<path style="fill-rule:evenodd;clip-rule:evenodd;fill:#6582FE;" d="M106.15,83.05c1.033,0.8,1.399,1.934,1.1,3.4l-0.4,2.5
		c-0.166,0.733-0.449,1.616-0.85,2.649l-1.1,2.7L101.6,96.9c0.601-1.2,1.018-2.117,1.25-2.75l1-2.9c0.434-1.333,0.7-2.25,0.801-2.75
		c0.199-1.066,0.316-1.85,0.35-2.35l0.25-2.45l-0.2-0.65C105.117,82.783,105.483,82.783,106.15,83.05z M111.05,85.6l-0.55,2.65
		l-3,3.5l1.65-6.1c0.333-1.066,0.5-1.95,0.5-2.65l-0.2-2.65c0.8-0.267,1.283-0.083,1.45,0.55l0.3,2.1
		C111.267,83.833,111.217,84.7,111.05,85.6z M102.9,92.2c-0.167,0.733-0.417,1.467-0.75,2.2l-1.4,3.05L96.3,100l1.3-3.35
		c0.434-1.334,0.7-2.25,0.801-2.75L98.8,91.3c0.367-0.733,0.95-1.45,1.75-2.149c0.3-0.267,0.601-0.434,0.9-0.5
		c1.233-0.4,1.95-0.267,2.149,0.399L102.9,92.2z M92.25,96.55c0.3,0.2,0.45,0.483,0.45,0.851l-1.9,5.5l-3.35,1.75
		c0.399-0.567,0.733-1.134,1-1.7c0.5-1.033,0.75-2.017,0.75-2.95c0.066-0.9,0.017-1.767-0.15-2.6
		C90.316,96.167,91.384,95.884,92.25,96.55z M97,93.05c0.533,0,0.867,0.15,1,0.45l-0.3,1.2c-0.2,0.899-0.45,1.8-0.75,2.7
		c-0.333,1.033-0.7,2-1.101,2.899l-4.55,2.351c0.4-0.867,0.767-1.784,1.101-2.75c0.333-1.067,0.566-2.017,0.699-2.851L93.4,95.1
		C94.066,93.7,95.267,93.017,97,93.05z"/>
	<path style="fill-rule:evenodd;clip-rule:evenodd;fill:#6582FE;" d="M77.25,98.35c-1,1-0.85,1.7,0.45,2.101
		c1.566,0.434,2.983,0.983,4.25,1.649l1.05,0.95l-5.55-2.55c-1.534-0.6-3.434-0.783-5.7-0.55c-0.867,0.1-1.417,0.383-1.65,0.85
		c-0.434,1.033,0.25,1.601,2.05,1.7c2.667,0.134,4.667,0.25,6,0.35h0.2c1.867,0,3.267,0.317,4.2,0.95l-9.6-0.95
		c-1.8-0.166-3.934-0.1-6.4,0.2l-0.15,0.05c-0.733,0.9-0.417,1.4,0.95,1.5c-1.033,0.067-2.1,0.367-3.2,0.9l-0.25,0.1
		c2.767,0.567,6.284,0.5,10.55-0.199l3.75-0.301l-9.15,1c-1.667,0.2-3.383,0.65-5.15,1.351c1,0.366,2.383,0.416,4.15,0.149
		c2-0.333,4.483-0.816,7.45-1.449c2.5-0.534,4.783-0.784,6.85-0.75c1.133,0,2.033,0.183,2.7,0.55c0.5-1.867,0.184-3.467-0.95-4.8
		L83,99.4c-0.7-1-2.083-1.551-4.15-1.65C78.184,97.75,77.65,97.95,77.25,98.35z M77.9,97.4c2.1-0.2,3.717,0,4.85,0.6
		c1.267,0.634,2.184,1.467,2.75,2.5c0.9,1.6,0.8,3.45-0.3,5.55l-0.25,0.101c-1.733-0.233-3.75-0.233-6.05,0
		c-2.066,0.199-4.367,0.583-6.9,1.149c-2.433,0.566-4.9,0.983-7.4,1.25c-2.333,0.2-4.267,0.117-5.8-0.25l0.45-0.399l0.6-0.351
		l1.55-0.399v-0.101c-1.233,0.267-2.183,0.283-2.85,0.05c-0.533-0.133-0.667-0.449-0.4-0.949c0.2-0.334,0.617-0.684,1.25-1.051
		c1.133-0.633,2.15-0.85,3.05-0.649v-0.101c-0.633,0.034-1-0.1-1.1-0.399c-0.133-0.233-0.017-0.55,0.35-0.95
		c0.4-0.4,0.933-0.7,1.6-0.9c1.9-0.6,3.434-0.733,4.6-0.399l0.05-0.101c-0.967-0.199-1.067-0.633-0.3-1.3
		c0.6-0.566,1.417-0.95,2.45-1.149c0.767-0.167,1.617-0.25,2.55-0.25c0.667,0,1.5,0.066,2.5,0.199c-0.4-0.3-0.183-0.649,0.65-1.05
		C76.467,97.717,77.167,97.5,77.9,97.4z"/>
	<path style="fill-rule:evenodd;clip-rule:evenodd;fill:#6A5C39;" d="M77.45,96.05c2.333-0.333,4.167-0.2,5.5,0.4
		c1.3,0.6,2.233,1.383,2.8,2.35c0.533,0.967,0.85,1.917,0.95,2.851c0.133,1.3-0.217,2.716-1.05,4.25l-0.45,0.149
		c1.1-2.1,1.2-3.95,0.3-5.55c-0.566-1.033-1.483-1.866-2.75-2.5c-1.133-0.6-2.75-0.8-4.85-0.6c-0.733,0.1-1.433,0.316-2.1,0.649
		c-0.833,0.4-1.05,0.75-0.65,1.05c-1-0.133-1.833-0.199-2.5-0.199c-0.933,0-1.783,0.083-2.55,0.25
		c-1.033,0.199-1.85,0.583-2.45,1.149c-0.767,0.667-0.667,1.101,0.3,1.3L67.9,101.7c-1.167-0.334-2.7-0.2-4.6,0.399
		c-0.667,0.2-1.2,0.5-1.6,0.9c-0.367,0.4-0.483,0.717-0.35,0.95c0.1,0.3,0.467,0.434,1.1,0.399v0.101
		c-0.9-0.2-1.917,0.017-3.05,0.649c-0.633,0.367-1.05,0.717-1.25,1.051c-0.267,0.5-0.133,0.816,0.4,0.949
		c0.667,0.233,1.617,0.217,2.85-0.05v0.101l-1.55,0.399l-0.6,0.351L58.8,108.3c1.534,0.367,3.467,0.45,5.8,0.25
		c2.5-0.267,4.967-0.684,7.4-1.25c2.533-0.566,4.833-0.95,6.9-1.149c2.3-0.233,4.317-0.233,6.05,0l-0.4,0.199
		c-1.6-0.366-3.517-0.35-5.75,0.051c-2.5,0.399-4.933,0.85-7.3,1.35c-2.533,0.533-4.95,1.15-7.25,1.85
		c-0.8-0.166-1.867-0.199-3.2-0.1c-2.533,0.3-4.233-0.05-5.1-1.05c-0.8-0.867-0.333-2.017,1.4-3.45c1.667-1.3,3.566-2.55,5.7-3.75
		c2.367-1.233,4.567-2.25,6.6-3.05C72.184,97.167,74.783,96.45,77.45,96.05z"/>
	<path style="fill-rule:evenodd;clip-rule:evenodd;fill:#97895B;" d="M78.8,106.4c2.233-0.4,4.15-0.417,5.75-0.051
		c-2.566,1.067-5.116,1.851-7.65,2.351c-2.333,0.5-4.617,0.85-6.85,1.05c-2.2,0.267-4.133,0.217-5.8-0.15
		c2.3-0.699,4.717-1.316,7.25-1.85C73.867,107.25,76.3,106.8,78.8,106.4z"/>
	<path style="fill-rule:evenodd;clip-rule:evenodd;fill:#A0FFFF;" d="M81.1,100l-0.15-0.1c1,0.566,2.05,0.983,3.15,1.25
		c1.133,1.333,1.45,2.933,0.95,4.8c-0.667-0.367-1.566-0.55-2.7-0.55c-2.067-0.034-4.35,0.216-6.85,0.75l-3.95,0.1l6.65-1.15
		l-3.75,0.301L70.4,105.1l8.65-0.75l-4,0.15c-1.433-0.233-2.583-0.517-3.45-0.85l-0.3-0.101l3.95-0.5l7.3,0.75
		c-0.933-0.633-2.333-0.95-4.2-0.95h-0.2l-3.45-1.55l4.85,0.05l3.45,1.7l-1.05-0.95C81.883,101.267,81.6,100.566,81.1,100z"/>
	<path style="fill-rule:evenodd;clip-rule:evenodd;fill:#6CB5FD;" d="M78.85,97.75c2.066,0.1,3.45,0.65,4.15,1.65l1.1,1.75
		c-1.1-0.267-2.15-0.684-3.15-1.25l0.15,0.1c0.5,0.566,0.783,1.267,0.85,2.1c-1.267-0.666-2.684-1.216-4.25-1.649
		c-1.3-0.4-1.45-1.101-0.45-2.101C77.65,97.95,78.184,97.75,78.85,97.75z M78.15,102.85c-1.333-0.1-3.333-0.216-6-0.35
		c-1.8-0.1-2.483-0.667-2.05-1.7c0.233-0.467,0.783-0.75,1.65-0.85c2.267-0.233,4.167-0.05,5.7,0.55l2.1,0.85l-4.85-0.05
		L78.15,102.85z M75.25,103.05l-3.95,0.5l0.3,0.101c0.867,0.333,2.017,0.616,3.45,0.85l-6.75,0.1l5.7,0.051l-3.6,0.449l4.05,0.301
		c-4.267,0.699-7.784,0.767-10.55,0.199l0.25-0.1c1.1-0.533,2.167-0.833,3.2-0.9c-1.367-0.1-1.684-0.6-0.95-1.5l0.15-0.05
		c2.467-0.3,4.6-0.366,6.4-0.2L75.25,103.05z M63.9,107.45c1.767-0.7,3.483-1.15,5.15-1.351l5.45-0.55l-2.95,0.7l3.95-0.1
		c-2.967,0.633-5.45,1.116-7.45,1.449C66.283,107.866,64.9,107.816,63.9,107.45z"/>
	
		<linearGradient id="SVGID_9_" gradientUnits="userSpaceOnUse" x1="-89.458" y1="17.2441" x2="-59.5713" y2="17.2441" gradientTransform="matrix(-0.3645 -0.9312 0.9312 -0.3645 1.001358e-005 9.714961e-004)">
		<stop  offset="0" style="stop-color:#CA2897"/>
		<stop  offset="0.1686" style="stop-color:#D148A0"/>
		<stop  offset="0.5255" style="stop-color:#E58FB7"/>
		<stop  offset="0.902" style="stop-color:#FDDDD1"/>
	</linearGradient>
	<path style="fill-rule:evenodd;clip-rule:evenodd;fill:url(#SVGID_9_);" d="M52.75,45.55l0.05,0.05
		c1.833,1.767,1.867,4.533,0.1,8.3c-1.433,2.967-3.066,5-4.9,6.1l-0.55,0.25c-0.1,0.733-0.217,1.35-0.35,1.85
		c-0.833,3.167-2.05,5.483-3.65,6.95l-0.2,0.15c0.133,0.633,0.217,1.333,0.25,2.1c0.133,3.267-0.367,5.833-1.5,7.7l-0.5,0.65
		c-0.233,0.2-0.517,0.35-0.85,0.45c-0.433,0.167-0.816,0.2-1.15,0.1c-0.933-0.133-1.75-0.55-2.45-1.25L36.5,79.4
		c-0.2,0.167-0.383,0.267-0.55,0.3l-0.2,0.1c-0.733,0.2-1.417,0.1-2.05-0.3c-1.267-0.8-2.017-2.117-2.25-3.95
		c-0.233-1.4-0.15-2.816,0.25-4.25c0.6-1.933,1.617-3.617,3.05-5.05c-0.566-1.133-0.683-2.483-0.35-4.05
		c0.267-1.267,0.733-2.434,1.4-3.5c1.034-1.567,2.384-2.833,4.05-3.8c-0.133-1.133,0.117-2.367,0.75-3.7
		c0.467-1.067,1.1-2.017,1.9-2.85c1.133-1.133,2.45-2,3.95-2.6c1.5-0.633,2.933-0.9,4.3-0.8C51.583,44.85,52.25,45.05,52.75,45.55z"
		/>
	<path style="fill-rule:evenodd;clip-rule:evenodd;fill:none;stroke:#F7E0E7;stroke-width:0.25;" d="M52.75,45.55
		c-0.5-0.5-1.167-0.7-2-0.6c-1.367-0.1-2.8,0.167-4.3,0.8c-1.5,0.6-2.817,1.467-3.95,2.6c-0.8,0.833-1.433,1.783-1.9,2.85
		c-0.633,1.333-0.883,2.566-0.75,3.7c-1.667,0.967-3.017,2.233-4.05,3.8c-0.667,1.066-1.133,2.233-1.4,3.5
		c-0.333,1.566-0.216,2.917,0.35,4.05c-1.433,1.433-2.45,3.117-3.05,5.05c-0.4,1.434-0.483,2.85-0.25,4.25
		c0.233,1.833,0.983,3.15,2.25,3.95c0.633,0.4,1.316,0.5,2.05,0.3l0.2-0.1c0.167-0.034,0.35-0.133,0.55-0.3l0.55-0.45
		c0.7,0.7,1.517,1.117,2.45,1.25c0.333,0.1,0.717,0.066,1.15-0.1c0.333-0.1,0.617-0.25,0.85-0.45L42,79
		c1.133-1.867,1.633-4.433,1.5-7.7c-0.033-0.767-0.117-1.466-0.25-2.1l0.2-0.15c1.6-1.466,2.816-3.783,3.65-6.95
		c0.133-0.5,0.25-1.117,0.35-1.85L48,60c1.833-1.1,3.467-3.133,4.9-6.1c1.767-3.767,1.733-6.533-0.1-8.3L52.75,45.55z"/>
	<path style="fill-rule:evenodd;clip-rule:evenodd;fill:#630F50;" d="M50.9,46.6c0.3-0.067,0.55,0,0.75,0.2
		c0.7,0.667,0.95,1.7,0.75,3.1c-0.133,1.067-0.466,2.15-1,3.25c-1.267,2.667-2.7,4.483-4.3,5.45l-0.15,0.05L46.9,58.7h-0.1
		c-0.2,0.066-0.4,0.017-0.6-0.15l-0.35-0.3c0.1,1.1-0.017,2.233-0.35,3.4c-0.8,2.934-1.85,4.983-3.15,6.15l-0.3,0.2H42
		c-0.233,0.067-0.417,0.05-0.55-0.05L41.1,67.8c0.467,1.067,0.7,2.25,0.7,3.55c0.233,2.833-0.183,5.1-1.25,6.8
		c0,0.033-0.05,0.1-0.15,0.2l-0.05,0.05l-0.25,0.15l-0.35,0.05c-1-0.167-1.867-0.9-2.6-2.2c-0.5,0.667-1.05,1.217-1.65,1.65
		l-0.2,0.1l-0.05,0.05H35.2c-0.167,0.1-0.367,0.083-0.6-0.05c-0.9-0.6-1.417-1.633-1.55-3.1C32.917,73.917,33,72.8,33.3,71.7
		c0.8-2.467,2.167-4.267,4.1-5.4h-0.2c-0.233,0.067-0.434-0.017-0.6-0.25c-0.7-0.8-0.9-1.933-0.6-3.4c0.2-1.066,0.6-2.1,1.2-3.1
		c1.3-1.833,2.85-3.083,4.65-3.75v-0.05c-0.533-0.933-0.517-2.083,0.05-3.45c0.4-1,1-1.933,1.8-2.8
		c0.966-0.967,2.117-1.717,3.45-2.25c1.3-0.533,2.534-0.733,3.7-0.6L50.9,46.6z"/>
	
		<linearGradient id="SVGID_10_" gradientUnits="userSpaceOnUse" x1="-67.2261" y1="24.8188" x2="-62.4767" y2="24.8188" gradientTransform="matrix(-0.3632 -0.9317 0.9317 -0.3632 -2.747774e-004 -5.594492e-004)">
		<stop  offset="0" style="stop-color:#FB8EFE"/>
		<stop  offset="0.0353" style="stop-color:#F98CFA"/>
		<stop  offset="0.5098" style="stop-color:#D96FB9"/>
		<stop  offset="0.7373" style="stop-color:#CC63A0"/>
	</linearGradient>
	<path style="fill-rule:evenodd;clip-rule:evenodd;fill:url(#SVGID_10_);" d="M50.8,47.4c0.3,0.7,0.117,1.567-0.55,2.6
		c-0.5,0.833-1.15,1.583-1.95,2.25c-2.033,1.833-3.95,2.883-5.75,3.15c0.167-0.3,0.617-0.933,1.35-1.9c0.8-1.033,1.35-1.8,1.65-2.3
		C46.95,49.067,48.7,47.8,50.8,47.4z"/>
	<path style="fill-rule:evenodd;clip-rule:evenodd;fill:#F6E7EB;" d="M42.5,55.4c-0.4-0.7-0.367-1.617,0.1-2.75
		c0.367-0.933,0.917-1.816,1.65-2.65c0.9-0.9,1.934-1.583,3.1-2.05c1.2-0.5,2.35-0.7,3.45-0.6c-0.833,0.167-1.65,0.6-2.45,1.3
		c-0.467,0.434-1.1,1.15-1.9,2.15C44.983,52.8,43.667,54.333,42.5,55.4z"/>
	
		<linearGradient id="SVGID_11_" gradientUnits="userSpaceOnUse" x1="-70.9492" y1="26.4785" x2="-62.7087" y2="26.4785" gradientTransform="matrix(-0.3641 -0.9314 0.9314 -0.3641 -7.995963e-005 5.307198e-004)">
		<stop  offset="0" style="stop-color:#FB8EFE"/>
		<stop  offset="0.0353" style="stop-color:#F98CFA"/>
		<stop  offset="0.5098" style="stop-color:#D96FB9"/>
		<stop  offset="0.7373" style="stop-color:#CC63A0"/>
	</linearGradient>
	<path style="fill-rule:evenodd;clip-rule:evenodd;fill:url(#SVGID_11_);" d="M51.15,47.35c0.534,0.5,0.7,1.367,0.5,2.6
		c-0.133,0.933-0.433,1.883-0.9,2.85c-1.2,2.567-2.55,4.284-4.05,5.15c0.566-2.233,0.933-3.9,1.1-5
		C48.267,50.35,49.383,48.483,51.15,47.35z"/>
	<path style="fill-rule:evenodd;clip-rule:evenodd;fill:#F6E7EB;" d="M46.65,58c-0.633-0.5-0.966-1.367-1-2.6
		c-0.033-1.033,0.133-2.05,0.5-3.05c0.467-1.167,1.15-2.217,2.05-3.15c0.9-0.9,1.867-1.534,2.9-1.9c-0.7,0.5-1.267,1.233-1.7,2.2
		c-0.233,0.5-0.55,1.4-0.95,2.7C47.883,54.733,47.283,56.667,46.65,58z"/>
	
		<linearGradient id="SVGID_12_" gradientUnits="userSpaceOnUse" x1="-74.6797" y1="15.4727" x2="-68.2592" y2="15.4727" gradientTransform="matrix(-0.366 -0.9306 0.9306 -0.366 1.479387e-004 8.633137e-004)">
		<stop  offset="0" style="stop-color:#FB8EFE"/>
		<stop  offset="0.0353" style="stop-color:#F98CFA"/>
		<stop  offset="0.5098" style="stop-color:#D96FB9"/>
		<stop  offset="0.7373" style="stop-color:#CC63A0"/>
	</linearGradient>
	<path style="fill-rule:evenodd;clip-rule:evenodd;fill:url(#SVGID_12_);" d="M42.25,61.35c-1.633,2.233-3.3,3.633-5,4.2
		c0.1-0.267,0.434-0.966,1-2.1c0.533-1.1,0.9-1.95,1.1-2.55c1-2.4,2.483-4,4.45-4.8c0.434,0.633,0.434,1.533,0,2.7
		C43.434,59.7,42.917,60.55,42.25,61.35z"/>
	<path style="fill-rule:evenodd;clip-rule:evenodd;fill:#F6E7EB;" d="M41.65,57.85c-0.4,0.5-0.9,1.316-1.5,2.45
		c-1.033,2.3-2.017,4.067-2.95,5.3c-0.534-0.6-0.684-1.517-0.45-2.75c0.167-1,0.533-1.967,1.1-2.9c0.7-1.067,1.583-1.95,2.65-2.65
		c1.067-0.7,2.15-1.1,3.25-1.2C42.983,56.433,42.283,57.017,41.65,57.85z"/>
	
		<linearGradient id="SVGID_13_" gradientUnits="userSpaceOnUse" x1="-77.8853" y1="17.6426" x2="-68.2368" y2="17.6426" gradientTransform="matrix(-0.3656 -0.9308 0.9308 -0.3656 1.718104e-004 -1.476407e-004)">
		<stop  offset="0" style="stop-color:#FB8EFE"/>
		<stop  offset="0.0353" style="stop-color:#F98CFA"/>
		<stop  offset="0.5098" style="stop-color:#D96FB9"/>
		<stop  offset="0.7373" style="stop-color:#CC63A0"/>
	</linearGradient>
	<path style="fill-rule:evenodd;clip-rule:evenodd;fill:url(#SVGID_13_);" d="M44.1,56c0.633,0.4,0.967,1.217,1,2.45
		c0.066,0.966-0.05,1.966-0.35,3c-0.7,2.767-1.667,4.7-2.9,5.8c-0.033-0.367-0.017-1.133,0.05-2.3c0.034-1.267,0.034-2.2,0-2.8
		C41.833,59.617,42.567,57.567,44.1,56z"/>
	<path style="fill-rule:evenodd;clip-rule:evenodd;fill:#F6E7EB;" d="M41.75,67.3c-0.7-0.333-1.183-1.1-1.45-2.3
		c-0.233-1-0.283-2.05-0.15-3.15c0.233-1.233,0.7-2.383,1.4-3.45c0.7-1.066,1.534-1.867,2.5-2.4c-0.566,0.633-0.983,1.45-1.25,2.45
		c-0.133,0.6-0.25,1.55-0.35,2.85C42.317,63.967,42.083,65.967,41.75,67.3z"/>
	
		<linearGradient id="SVGID_14_" gradientUnits="userSpaceOnUse" x1="-84.8911" y1="8.2773" x2="-76.0099" y2="8.2773" gradientTransform="matrix(-0.3631 -0.9317 0.9317 -0.3631 -3.297925e-004 4.375577e-004)">
		<stop  offset="0" style="stop-color:#FB8EFE"/>
		<stop  offset="0.0353" style="stop-color:#F98CFA"/>
		<stop  offset="0.5098" style="stop-color:#D96FB9"/>
		<stop  offset="0.7373" style="stop-color:#CC63A0"/>
	</linearGradient>
	<path style="fill-rule:evenodd;clip-rule:evenodd;fill:url(#SVGID_14_);" d="M38.6,66.55c0.566,0.467,0.816,1.317,0.75,2.55
		c-0.067,0.967-0.3,1.933-0.7,2.9c-1,2.633-2.2,4.45-3.6,5.45c0-0.333,0.117-1.1,0.35-2.3c0.2-1.233,0.317-2.15,0.35-2.75
		C35.95,69.833,36.9,67.883,38.6,66.55z"/>
	<path style="fill-rule:evenodd;clip-rule:evenodd;fill:#F6E7EB;" d="M36.35,71.6c-0.367,2.4-0.817,4.367-1.35,5.9
		c-0.667-0.433-1.083-1.25-1.25-2.45c-0.1-1-0.017-2.05,0.25-3.15c0.4-1.2,1-2.283,1.8-3.25c0.833-1,1.767-1.717,2.8-2.15
		c-0.667,0.567-1.184,1.333-1.55,2.3C36.817,69.433,36.583,70.367,36.35,71.6z"/>
	
		<linearGradient id="SVGID_15_" gradientUnits="userSpaceOnUse" x1="-86.981" y1="10.8174" x2="-75.9457" y2="10.8174" gradientTransform="matrix(-0.3647 -0.9311 0.9311 -0.3647 1.195967e-004 5.171299e-004)">
		<stop  offset="0" style="stop-color:#FB8EFE"/>
		<stop  offset="0.0353" style="stop-color:#F98CFA"/>
		<stop  offset="0.5098" style="stop-color:#D96FB9"/>
		<stop  offset="0.7373" style="stop-color:#CC63A0"/>
	</linearGradient>
	<path style="fill-rule:evenodd;clip-rule:evenodd;fill:url(#SVGID_15_);" d="M38.85,66.35c0.733,0.2,1.3,0.883,1.7,2.05
		c0.333,0.934,0.5,1.917,0.5,2.95c0.2,2.733-0.167,4.883-1.1,6.45c-0.133-0.3-0.333-1.05-0.6-2.25c-0.3-1.233-0.567-2.133-0.8-2.7
		C37.783,70.383,37.883,68.217,38.85,66.35z"/>
	<path style="fill-rule:evenodd;clip-rule:evenodd;fill:#F6E7EB;" d="M38.8,71.9c0.667,2.6,1.034,4.583,1.1,5.95
		c-0.8-0.133-1.5-0.733-2.1-1.8c-0.533-0.9-0.866-1.883-1-2.95c-0.133-1.267-0.017-2.517,0.35-3.75s0.934-2.233,1.7-3
		c-0.4,0.767-0.567,1.667-0.5,2.7C38.383,69.65,38.533,70.6,38.8,71.9z"/>
	<linearGradient id="SVGID_16_" gradientUnits="userSpaceOnUse" x1="131.6768" y1="48.7578" x2="123.4518" y2="77.5078">
		<stop  offset="0" style="stop-color:#CA2897"/>
		<stop  offset="0.1686" style="stop-color:#D148A0"/>
		<stop  offset="0.5255" style="stop-color:#E58FB7"/>
		<stop  offset="0.902" style="stop-color:#FDDDD1"/>
	</linearGradient>
	<path style="fill-rule:evenodd;clip-rule:evenodd;fill:url(#SVGID_16_);" d="M117.85,45.6l0.051-0.05c0.566-0.5,1.233-0.7,2-0.6
		c1.366-0.1,2.8,0.167,4.3,0.8c1.533,0.6,2.866,1.467,4,2.6c0.767,0.867,1.399,1.816,1.899,2.85c0.601,1.333,0.834,2.566,0.7,3.7
		c1.634,0.934,2.983,2.2,4.05,3.8c0.667,1.066,1.134,2.233,1.4,3.5c0.333,1.566,0.217,2.917-0.35,4.05
		c1.433,1.433,2.449,3.117,3.05,5.05c0.399,1.434,0.5,2.85,0.3,4.25c-0.233,1.833-0.983,3.15-2.25,3.95
		c-0.667,0.4-1.366,0.5-2.1,0.3l-0.2-0.1c-0.167-0.034-0.333-0.133-0.5-0.3c-0.233-0.1-0.417-0.25-0.55-0.45
		c-0.733,0.7-1.551,1.117-2.45,1.25c-0.367,0.1-0.767,0.066-1.2-0.1c-0.267-0.1-0.533-0.25-0.8-0.45l-0.2-0.2L128.65,79
		c-1.2-2-1.684-4.567-1.45-7.7c0-0.566,0.066-1.267,0.2-2.1l-0.2-0.15c-0.967-0.9-1.816-2.15-2.55-3.75
		c-0.467-1.066-0.817-2.133-1.051-3.2c-0.199-0.7-0.333-1.317-0.399-1.85L122.7,60c-1.134-0.667-2.2-1.717-3.2-3.15
		c-0.7-0.967-1.267-1.95-1.7-2.95c-0.6-1.133-1-2.3-1.2-3.5C116.267,48.333,116.684,46.733,117.85,45.6z"/>
	<path style="fill-rule:evenodd;clip-rule:evenodd;fill:none;stroke:#F7E0E7;stroke-width:0.25;" d="M117.85,45.6l0.051-0.05
		c0.566-0.5,1.233-0.7,2-0.6c1.366-0.1,2.8,0.167,4.3,0.8c1.533,0.6,2.866,1.467,4,2.6c0.767,0.867,1.399,1.816,1.899,2.85
		c0.601,1.333,0.834,2.566,0.7,3.7c1.634,0.934,2.983,2.2,4.05,3.8c0.667,1.066,1.134,2.233,1.4,3.5
		c0.333,1.566,0.217,2.917-0.35,4.05c1.433,1.433,2.449,3.117,3.05,5.05c0.399,1.434,0.5,2.85,0.3,4.25
		c-0.233,1.833-0.983,3.15-2.25,3.95c-0.667,0.4-1.366,0.5-2.1,0.3l-0.2-0.1c-0.167-0.034-0.333-0.133-0.5-0.3
		c-0.233-0.1-0.417-0.25-0.55-0.45c-0.733,0.7-1.551,1.117-2.45,1.25c-0.367,0.1-0.767,0.066-1.2-0.1
		c-0.267-0.1-0.533-0.25-0.8-0.45l-0.2-0.2L128.65,79c-1.2-2-1.684-4.567-1.45-7.7c0-0.566,0.066-1.267,0.2-2.1l-0.2-0.15
		c-0.967-0.9-1.816-2.15-2.55-3.75c-0.467-1.066-0.817-2.133-1.051-3.2c-0.199-0.7-0.333-1.317-0.399-1.85L122.7,60
		c-1.134-0.667-2.2-1.717-3.2-3.15c-0.7-0.967-1.267-1.95-1.7-2.95c-0.6-1.133-1-2.3-1.2-3.5
		C116.267,48.333,116.684,46.733,117.85,45.6z"/>
	<path style="fill-rule:evenodd;clip-rule:evenodd;fill:#630F50;" d="M119.25,53.15c-0.533-1.1-0.866-2.183-1-3.25
		c-0.2-1.4,0.05-2.433,0.75-3.1c0.2-0.2,0.45-0.267,0.75-0.2l0.05,0.05c1.167-0.133,2.4,0.067,3.7,0.6
		c1.333,0.533,2.483,1.283,3.45,2.25c0.8,0.867,1.399,1.8,1.8,2.8c0.566,1.367,0.583,2.517,0.05,3.45v0.05
		c1.867,0.7,3.417,1.95,4.65,3.75c0.6,1,1,2.034,1.2,3.1c0.3,1.467,0.1,2.6-0.601,3.4c-0.166,0.2-0.366,0.284-0.6,0.25h-0.2
		c1.967,1.133,3.333,2.934,4.1,5.4c0.301,1.1,0.4,2.216,0.301,3.35c-0.167,1.467-0.7,2.5-1.601,3.1c-0.2,0.133-0.399,0.15-0.6,0.05
		l-0.05-0.05h-0.051l-0.199-0.1c-0.634-0.466-1.167-1.017-1.601-1.65c-0.733,1.3-1.616,2.033-2.649,2.2l-0.351-0.05l-0.25-0.15
		l-0.05-0.05l-0.15-0.2c-0.933-1.533-1.35-3.8-1.25-6.8c0-1.3,0.233-2.483,0.7-3.55l-0.35,0.15c-0.134,0.1-0.316,0.117-0.55,0.05
		H128.6l-0.1-0.1l-0.15-0.1c-1.433-1.267-2.482-3.316-3.149-6.15c-0.333-1.267-0.467-2.4-0.4-3.4l-0.35,0.3
		c-0.167,0.167-0.367,0.217-0.601,0.15h-0.1l-0.05-0.05l-0.15-0.05C121.95,57.633,120.517,55.817,119.25,53.15z"/>
	<linearGradient id="SVGID_17_" gradientUnits="userSpaceOnUse" x1="126.3252" y1="51.2764" x2="121.5752" y2="51.5264">
		<stop  offset="0" style="stop-color:#FB8EFE"/>
		<stop  offset="0.0353" style="stop-color:#F98CFA"/>
		<stop  offset="0.5098" style="stop-color:#D96FB9"/>
		<stop  offset="0.7373" style="stop-color:#CC63A0"/>
	</linearGradient>
	<path style="fill-rule:evenodd;clip-rule:evenodd;fill:url(#SVGID_17_);" d="M122.4,52.25c-0.801-0.667-1.467-1.417-2-2.25
		c-0.667-1.033-0.851-1.9-0.551-2.6c2.067,0.4,3.834,1.667,5.301,3.8c0.3,0.533,0.833,1.3,1.6,2.3c0.733,1,1.184,1.633,1.35,1.9
		C126.333,55.133,124.434,54.083,122.4,52.25z"/>
	<path style="fill-rule:evenodd;clip-rule:evenodd;fill:#F6E7EB;" d="M122.3,48.65c-0.8-0.7-1.616-1.133-2.45-1.3
		c1.101-0.1,2.25,0.1,3.45,0.6c1.167,0.466,2.2,1.15,3.101,2.05c0.767,0.833,1.333,1.717,1.699,2.65
		c0.434,1.133,0.45,2.05,0.051,2.75c-1.167-1.066-2.483-2.6-3.95-4.6C123.4,49.8,122.767,49.083,122.3,48.65z"/>
	<linearGradient id="SVGID_18_" gradientUnits="userSpaceOnUse" x1="124.6357" y1="55.4399" x2="118.6607" y2="49.7649">
		<stop  offset="0" style="stop-color:#FB8EFE"/>
		<stop  offset="0.0353" style="stop-color:#F98CFA"/>
		<stop  offset="0.5098" style="stop-color:#D96FB9"/>
		<stop  offset="0.7373" style="stop-color:#CC63A0"/>
	</linearGradient>
	<path style="fill-rule:evenodd;clip-rule:evenodd;fill:url(#SVGID_18_);" d="M119.95,52.8c-0.467-0.933-0.783-1.883-0.95-2.85
		c-0.2-1.233-0.033-2.1,0.5-2.6c1.833,1.167,2.95,3.033,3.35,5.6c0.167,1.1,0.534,2.767,1.101,5
		C122.417,57.05,121.083,55.333,119.95,52.8z"/>
	<path style="fill-rule:evenodd;clip-rule:evenodd;fill:#F6E7EB;" d="M122.2,52.2c-0.4-1.3-0.717-2.2-0.95-2.7
		c-0.434-0.967-1-1.7-1.7-2.2c1.033,0.367,2.017,1,2.95,1.9c0.9,0.933,1.566,1.983,2,3.15c0.367,1,0.533,2.017,0.5,3.05
		c-0.033,1.233-0.366,2.1-1,2.6C123.333,56.533,122.733,54.6,122.2,52.2z"/>
	<linearGradient id="SVGID_19_" gradientUnits="userSpaceOnUse" x1="133.1357" y1="61.8955" x2="127.0857" y2="59.7455">
		<stop  offset="0" style="stop-color:#FB8EFE"/>
		<stop  offset="0.0353" style="stop-color:#F98CFA"/>
		<stop  offset="0.5098" style="stop-color:#D96FB9"/>
		<stop  offset="0.7373" style="stop-color:#CC63A0"/>
	</linearGradient>
	<path style="fill-rule:evenodd;clip-rule:evenodd;fill:url(#SVGID_19_);" d="M126.85,56.1c2.034,0.833,3.518,2.433,4.45,4.8
		c0.2,0.6,0.584,1.45,1.15,2.55c0.533,1.133,0.85,1.833,0.95,2.1c-1.733-0.6-3.4-2-5-4.2c-0.667-0.8-1.167-1.65-1.5-2.55
		C126.434,57.633,126.417,56.733,126.85,56.1z"/>
	<path style="fill-rule:evenodd;clip-rule:evenodd;fill:#F6E7EB;" d="M133.5,65.6c-0.967-1.233-1.967-3-3-5.3
		c-0.6-1.133-1.1-1.95-1.5-2.45c-0.633-0.833-1.333-1.417-2.1-1.75c1.1,0.1,2.183,0.5,3.25,1.2c1.066,0.7,1.949,1.583,2.649,2.65
		c0.567,0.933,0.95,1.9,1.15,2.9C134.15,64.05,134,64.967,133.5,65.6z"/>
	<linearGradient id="SVGID_20_" gradientUnits="userSpaceOnUse" x1="129.5371" y1="65.9517" x2="125.6121" y2="57.1267">
		<stop  offset="0" style="stop-color:#FB8EFE"/>
		<stop  offset="0.0353" style="stop-color:#F98CFA"/>
		<stop  offset="0.5098" style="stop-color:#D96FB9"/>
		<stop  offset="0.7373" style="stop-color:#CC63A0"/>
	</linearGradient>
	<path style="fill-rule:evenodd;clip-rule:evenodd;fill:url(#SVGID_20_);" d="M126.55,56c1.533,1.533,2.267,3.583,2.2,6.15
		c-0.033,0.6-0.017,1.533,0.05,2.8c0.033,1.167,0.033,1.933,0,2.3c-1.233-1.1-2.2-3.033-2.899-5.8c-0.301-1.034-0.417-2.034-0.351-3
		C125.583,57.217,125.917,56.4,126.55,56z"/>
	<path style="fill-rule:evenodd;clip-rule:evenodd;fill:#F6E7EB;" d="M128.9,67.3c-0.367-1.5-0.584-3.5-0.65-6
		c-0.133-1.433-0.267-2.383-0.4-2.85c-0.232-1.034-0.649-1.85-1.25-2.45c0.967,0.533,1.801,1.333,2.5,2.4
		c0.7,1.067,1.167,2.217,1.4,3.45c0.134,1.1,0.1,2.15-0.1,3.15C130.1,66.2,129.6,66.967,128.9,67.3z"/>
	<linearGradient id="SVGID_21_" gradientUnits="userSpaceOnUse" x1="136.4033" y1="75.4668" x2="131.0533" y2="68.3918">
		<stop  offset="0" style="stop-color:#FB8EFE"/>
		<stop  offset="0.0353" style="stop-color:#F98CFA"/>
		<stop  offset="0.5098" style="stop-color:#D96FB9"/>
		<stop  offset="0.7373" style="stop-color:#CC63A0"/>
	</linearGradient>
	<path style="fill-rule:evenodd;clip-rule:evenodd;fill:url(#SVGID_21_);" d="M132.05,66.55c1.667,1.3,2.634,3.25,2.9,5.85
		c0.033,0.633,0.149,1.55,0.35,2.75c0.2,1.233,0.3,2,0.3,2.3c-1.399-1-2.6-2.817-3.6-5.45c-0.4-0.967-0.633-1.933-0.7-2.9
		C131.233,67.867,131.483,67.017,132.05,66.55z"/>
	<path style="fill-rule:evenodd;clip-rule:evenodd;fill:#F6E7EB;" d="M134.3,71.6c-0.233-1.233-0.467-2.167-0.7-2.8
		c-0.366-0.966-0.866-1.733-1.5-2.3c1,0.433,1.917,1.15,2.75,2.15c0.834,0.967,1.434,2.05,1.801,3.25c0.267,1.1,0.35,2.15,0.25,3.15
		c-0.134,1.2-0.551,2.017-1.25,2.45C135.117,75.967,134.667,74,134.3,71.6z"/>
	<linearGradient id="SVGID_22_" gradientUnits="userSpaceOnUse" x1="129.9873" y1="77.3433" x2="131.7873" y2="66.4683">
		<stop  offset="0" style="stop-color:#FB8EFE"/>
		<stop  offset="0.0353" style="stop-color:#F98CFA"/>
		<stop  offset="0.5098" style="stop-color:#D96FB9"/>
		<stop  offset="0.7373" style="stop-color:#CC63A0"/>
	</linearGradient>
	<path style="fill-rule:evenodd;clip-rule:evenodd;fill:url(#SVGID_22_);" d="M131.8,66.35c1,1.867,1.101,4.033,0.3,6.5
		c-0.366,1.066-0.816,2.717-1.35,4.95c-0.9-1.466-1.283-3.617-1.15-6.45c0-1.033,0.167-2.017,0.5-2.95
		C130.5,67.233,131.066,66.55,131.8,66.35z"/>
	<path style="fill-rule:evenodd;clip-rule:evenodd;fill:#F6E7EB;" d="M131.85,71.9c0.268-1.3,0.417-2.25,0.45-2.85
		c0.067-1.033-0.1-1.933-0.5-2.7c0.8,0.767,1.384,1.767,1.75,3c0.367,1.233,0.483,2.483,0.351,3.75c-0.167,1.066-0.5,2.05-1,2.95
		c-0.634,1.067-1.334,1.667-2.101,1.8C130.867,76.317,131.217,74.333,131.85,71.9z"/>
</g>
</svg>
