<?xml version="1.0" encoding="iso-8859-1"?>
<!-- Generator: Adobe Illustrator 15.1.0, SVG Export Plug-In . SVG Version: 6.00 Build 0)  -->
<!DOCTYPE svg PUBLIC "-//W3C//DTD SVG 1.1//EN" "http://www.w3.org/Graphics/SVG/1.1/DTD/svg11.dtd">
<svg version="1.1" id="Layer_1" xmlns="http://www.w3.org/2000/svg" xmlns:xlink="http://www.w3.org/1999/xlink" x="0px" y="0px"
	 width="171.75px" height="171.8px" viewBox="0 0 171.75 171.8" style="enable-background:new 0 0 171.75 171.8;"
	 xml:space="preserve">
<symbol  id="FlashAICB_x2F_Layer_1_x2F__x3C_Path_x3E_" viewBox="0 -61.9 128.6 61.9">
	<g id="Layer_1_3_">
		
			<radialGradient id="SVGID_1_" cx="64.2998" cy="-30.9502" r="50.4599" gradientTransform="matrix(1 0 0 -1 0 -61.9004)" gradientUnits="userSpaceOnUse">
			<stop  offset="0" style="stop-color:#C5EEE7;stop-opacity:0"/>
			<stop  offset="0.0745" style="stop-color:#C2E9DD;stop-opacity:0.0588"/>
			<stop  offset="0.2039" style="stop-color:#BAD9C3;stop-opacity:0.2196"/>
			<stop  offset="0.3725" style="stop-color:#ADC098;stop-opacity:0.4824"/>
			<stop  offset="0.5725" style="stop-color:#9A9E5E;stop-opacity:0.8431"/>
			<stop  offset="0.651" style="stop-color:#939047"/>
		</radialGradient>
		<path style="fill-rule:evenodd;clip-rule:evenodd;fill:url(#SVGID_1_);" d="M128.05-0.3L128.6,0
			c-0.633-17.233-7.167-31.85-19.6-43.85C96.5-55.883,81.583-61.9,64.25-61.9c-17.033,0-31.733,5.816-44.1,17.45
			C7.783-32.883,1.067-18.683,0-1.85c4.967-13,13.183-23.5,24.65-31.5c11.7-8.2,24.733-12.3,39.1-12.3
			c14.633,0,27.883,4.25,39.75,12.75C115.1-24.567,123.283-13.7,128.05-0.3z"/>
	</g>
</symbol>
<symbol  id="FlashAICB_x2F_Layer_1_x2F__x3C_Path_x3E__x5F_0" viewBox="0 -66.417 119.2 66.417">
	<g id="Layer_1_5_">
		<path style="fill-rule:evenodd;clip-rule:evenodd;fill:#FFFFFF;" d="M115.4-37.25c2.533-6.1,3.8-11.85,3.8-17.25
			c0-5.367-1.567-8.75-4.7-10.15c-2.533-1.133-6.783-1.117-12.75,0.05c-7.867,1.9-14.183,3.367-18.95,4.4
			c-8.667,1.833-16.4,2.75-23.2,2.75c-6.833,0-14.567-1-23.2-3c-9.033-2.367-15.35-3.966-18.95-4.8c-6-1.367-10.25-1.533-12.75-0.5
			C1.567-64.483,0-61.167,0-55.8c0,5.933,1.267,12.066,3.8,18.4c2.667,6.7,6.434,12.733,11.3,18.1C26.7-6.433,41.533,0,59.6,0
			c17.833,0,32.65-6.483,44.45-19.45C108.883-24.783,112.667-30.717,115.4-37.25z"/>
	</g>
</symbol>
<symbol  id="FlashAICB_x2F_Layer_1_x2F__x3C_Path_x3E__x5F_1" viewBox="0 -128.55 128.8 128.55">
	<g id="Layer_1_2_">
		
			<radialGradient id="SVGID_2_" cx="64.3999" cy="-64.2749" r="64.3374" gradientTransform="matrix(1 0 0 -1 0 -128.5498)" gradientUnits="userSpaceOnUse">
			<stop  offset="0" style="stop-color:#C5EEE7"/>
			<stop  offset="0.0863" style="stop-color:#BAE7E1"/>
			<stop  offset="0.2392" style="stop-color:#9DD5CF"/>
			<stop  offset="0.4353" style="stop-color:#6CB7B2"/>
			<stop  offset="0.6078" style="stop-color:#3A9A96"/>
			<stop  offset="0.8039" style="stop-color:#3C9A96"/>
			<stop  offset="0.8745" style="stop-color:#459A96"/>
			<stop  offset="0.9255" style="stop-color:#549A96"/>
			<stop  offset="0.9686" style="stop-color:#689B96"/>
			<stop  offset="1" style="stop-color:#7E9B96"/>
		</radialGradient>
		<path style="fill-rule:evenodd;clip-rule:evenodd;fill:url(#SVGID_2_);" d="M128.8-64.25c0-17.767-6.283-32.917-18.85-45.45
			c-12.567-12.566-27.75-18.85-45.55-18.85c-17.767,0-32.95,6.283-45.55,18.85C6.283-97.167,0-82.017,0-64.25
			C0-46.517,6.283-31.367,18.85-18.8C31.45-6.267,46.633,0,64.4,0c17.8,0,32.983-6.267,45.55-18.8
			C122.517-31.333,128.8-46.483,128.8-64.25z"/>
	</g>
</symbol>
<symbol  id="FlashAICB_x2F_Layer_1_x2F__x3C_Path_x3E__x5F_1_x5F_0" viewBox="0 -60.45 119.2 60.45">
	<g id="Layer_1_4_">
		
			<linearGradient id="SVGID_3_" gradientUnits="userSpaceOnUse" x1="16160.6563" y1="-58.4668" x2="16221.0479" y2="-58.4668" gradientTransform="matrix(1.654944e-005 1 -1 -0.001 0.8657 -16221.1064)">
			<stop  offset="0.1294" style="stop-color:#E8B8B3"/>
			<stop  offset="0.9255" style="stop-color:#FFFFFF"/>
		</linearGradient>
		<path style="fill-rule:evenodd;clip-rule:evenodd;fill:url(#SVGID_3_);" d="M104.05-19.45c4.833-5.333,8.617-11.267,11.35-17.8
			c2.533-6.1,3.8-11.85,3.8-17.25c0-1.9-0.167-3.5-0.5-4.8c-2,11.966-7.85,22.6-17.55,31.9c-11.433,11-25.283,16.5-41.55,16.5
			c-16.533,0-30.45-5.483-41.75-16.45C8.117-36.783,2.333-47.817,0.5-60.45C0.167-59.217,0-57.667,0-55.8
			c0,5.933,1.267,12.066,3.8,18.4c2.667,6.7,6.434,12.733,11.3,18.1C26.7-6.433,41.533,0,59.6,0C77.433,0,92.25-6.483,104.05-19.45z
			"/>
	</g>
</symbol>
<g>
	<path style="fill-rule:evenodd;clip-rule:evenodd;fill:#FFFFFF;" d="M119.25,6.75c10.267,4.367,19.366,10.517,27.3,18.45
		c7.934,7.933,14.084,17.033,18.45,27.3c4.5,10.633,6.75,21.767,6.75,33.4s-2.25,22.767-6.75,33.4
		c-4.366,10.267-10.517,19.367-18.45,27.3c-7.934,7.934-17.033,14.084-27.3,18.45c-10.634,4.5-21.767,6.75-33.4,6.75
		c-11.633,0-22.766-2.25-33.399-6.75c-10.267-4.366-19.367-10.517-27.3-18.45c-7.9-7.933-14.033-17.033-18.4-27.3
		C2.25,108.667,0,97.533,0,85.9s2.25-22.767,6.75-33.4c4.367-10.267,10.5-19.367,18.4-27.3c7.934-7.934,17.033-14.083,27.3-18.45
		C63.083,2.25,74.217,0,85.85,0C97.483,0,108.616,2.25,119.25,6.75z"/>
	<g>
		<g>
			
				<linearGradient id="SVGID_4_" gradientUnits="userSpaceOnUse" x1="-157.6851" y1="85.876" x2="-14.2856" y2="85.876" gradientTransform="matrix(6.973501e-006 -1 1 -0.001 -1.064519e-004 4.449275e-004)">
				<stop  offset="0.0745" style="stop-color:#46583A"/>
				<stop  offset="0.2863" style="stop-color:#547136"/>
				<stop  offset="0.4784" style="stop-color:#638C35"/>
				<stop  offset="1" style="stop-color:#FFE2E1"/>
			</linearGradient>
			<path style="fill-rule:evenodd;clip-rule:evenodd;fill:url(#SVGID_4_);" d="M136.55,35.2c6.601,6.633,11.717,14.233,15.351,22.8
				c3.767,8.9,5.649,18.2,5.649,27.9s-1.883,19-5.649,27.9c-3.634,8.566-8.75,16.167-15.351,22.8
				c-6.633,6.601-14.233,11.717-22.8,15.351c-8.9,3.767-18.2,5.649-27.9,5.649c-9.7,0-19-1.883-27.899-5.649
				c-8.567-3.634-16.15-8.75-22.75-15.351c-6.6-6.633-11.717-14.233-15.35-22.8c-3.767-8.899-5.65-18.2-5.65-27.9
				s1.883-19,5.65-27.9c3.6-8.567,8.717-16.167,15.35-22.8c6.6-6.6,14.183-11.717,22.75-15.35c8.9-3.767,18.2-5.65,27.899-5.65
				c9.7,0,19,1.883,27.9,5.65C122.316,23.483,129.917,28.6,136.55,35.2z"/>
			<path style="fill-rule:evenodd;clip-rule:evenodd;fill:#21230F;" d="M135.9,35.85C122.1,22.017,105.417,15.1,85.85,15.1
				c-19.533,0-36.216,6.917-50.05,20.75C21.967,49.683,15.05,66.367,15.05,85.9c0,19.567,6.917,36.25,20.75,50.05
				c6.534,6.533,14.034,11.6,22.5,15.2c8.767,3.699,17.95,5.55,27.55,5.55c9.601,0,18.784-1.851,27.551-5.55
				c8.466-3.601,15.966-8.667,22.5-15.2c6.533-6.533,11.6-14.033,15.199-22.5c3.7-8.767,5.551-17.95,5.551-27.55
				S154.8,67.117,151.1,58.35C147.5,49.883,142.434,42.383,135.9,35.85z M113.65,18.8c8.866,3.667,16.716,8.917,23.55,15.75
				c6.866,6.867,12.116,14.717,15.75,23.55c3.666,8.833,5.5,18.1,5.5,27.8s-1.834,18.966-5.5,27.8
				c-3.634,8.833-8.884,16.684-15.75,23.55c-6.834,6.866-14.684,12.116-23.55,15.75c-8.834,3.667-18.101,5.5-27.801,5.5
				c-9.7,0-18.966-1.833-27.8-5.5c-8.833-3.634-16.683-8.884-23.55-15.75c-6.833-6.866-12.083-14.717-15.75-23.55
				c-3.633-8.834-5.45-18.101-5.45-27.8s1.817-18.967,5.45-27.8c3.667-8.867,8.917-16.717,15.75-23.55
				c6.867-6.833,14.717-12.083,23.55-15.75c8.833-3.667,18.1-5.5,27.8-5.5C95.55,13.3,104.816,15.133,113.65,18.8z"/>
		</g>
		
			<use xlink:href="#FlashAICB_x2F_Layer_1_x2F__x3C_Path_x3E__x5F_1"  width="128.8" height="128.55" y="-128.55" transform="matrix(1 0 0 -1 21.4502 19.2998)" style="overflow:visible;opacity:0.3789;enable-background:new    ;"/>
		<g>
			<g>
				<g>
					<path style="fill-rule:evenodd;clip-rule:evenodd;fill:#EEF3DC;" d="M82.55,31.9v19.15c0,0.8-0.25,1.434-0.75,1.9
						c-0.466,0.466-1.066,0.7-1.8,0.7s-1.333-0.233-1.8-0.7c-0.467-0.467-0.7-1.1-0.7-1.9v-16.9h-2c-0.733,0-1.317-0.233-1.75-0.7
						c-0.367-0.434-0.55-0.967-0.55-1.6c0-0.6,0.2-1.133,0.6-1.6c0.434-0.467,1-0.7,1.7-0.7h4.8c0.667,0,1.217,0.233,1.65,0.7
						C82.35,30.683,82.55,31.233,82.55,31.9z"/>
				</g>
				<g>
					
						<linearGradient id="SVGID_5_" gradientUnits="userSpaceOnUse" x1="-52.1294" y1="77.8774" x2="-28.0254" y2="77.8774" gradientTransform="matrix(4.149377e-005 -1 1 -0.001 -2.549601e-005 -4.747650e-005)">
						<stop  offset="0.149" style="stop-color:#062809"/>
						<stop  offset="0.302" style="stop-color:#0C2F0B"/>
						<stop  offset="0.5176" style="stop-color:#1C4111"/>
						<stop  offset="0.7765" style="stop-color:#36601B"/>
						<stop  offset="0.9686" style="stop-color:#4E7C25"/>
					</linearGradient>
					<path style="fill-rule:evenodd;clip-rule:evenodd;fill:url(#SVGID_5_);" d="M82.55,30.3v19.1c0,0.833-0.25,1.483-0.75,1.95
						c-0.466,0.467-1.066,0.7-1.8,0.7s-1.333-0.233-1.8-0.7c-0.467-0.467-0.7-1.117-0.7-1.95V32.55h-2
						c-0.733,0-1.317-0.233-1.75-0.7c-0.367-0.434-0.55-0.967-0.55-1.6s0.2-1.167,0.6-1.6c0.434-0.467,1-0.7,1.7-0.7h4.8
						c0.7,0,1.25,0.216,1.65,0.65C82.35,29.033,82.55,29.6,82.55,30.3z"/>
				</g>
			</g>
			<g>
				<g>
					<path style="fill-rule:evenodd;clip-rule:evenodd;fill:#EEF3DC;" d="M98.5,31.9v19.15c0,0.8-0.25,1.434-0.75,1.9
						c-0.467,0.466-1.066,0.7-1.8,0.7s-1.334-0.233-1.8-0.7c-0.467-0.467-0.7-1.1-0.7-1.9v-16.9h-2c-0.733,0-1.3-0.233-1.7-0.7
						c-0.366-0.434-0.55-0.967-0.55-1.6c0-0.6,0.2-1.133,0.6-1.6c0.4-0.467,0.95-0.7,1.65-0.7h4.8c0.667,0,1.217,0.233,1.65,0.7
						C98.3,30.683,98.5,31.233,98.5,31.9z"/>
				</g>
				<g>
					
						<linearGradient id="SVGID_6_" gradientUnits="userSpaceOnUse" x1="-52.1455" y1="93.8525" x2="-28.041" y2="93.8525" gradientTransform="matrix(4.149377e-005 -1 1 -0.001 -2.549601e-005 -4.747650e-005)">
						<stop  offset="0.149" style="stop-color:#062809"/>
						<stop  offset="0.302" style="stop-color:#0C2F0B"/>
						<stop  offset="0.5176" style="stop-color:#1C4111"/>
						<stop  offset="0.7765" style="stop-color:#36601B"/>
						<stop  offset="0.9686" style="stop-color:#4E7C25"/>
					</linearGradient>
					<path style="fill-rule:evenodd;clip-rule:evenodd;fill:url(#SVGID_6_);" d="M98.5,30.3v19.1c0,0.833-0.25,1.483-0.75,1.95
						c-0.467,0.467-1.066,0.7-1.8,0.7s-1.334-0.233-1.8-0.7c-0.467-0.467-0.7-1.117-0.7-1.95V32.55h-2c-0.733,0-1.3-0.233-1.7-0.7
						c-0.366-0.434-0.55-0.967-0.55-1.6s0.2-1.167,0.6-1.6c0.4-0.467,0.95-0.7,1.65-0.7h4.8c0.7,0,1.25,0.216,1.65,0.65
						C98.3,29.033,98.5,29.6,98.5,30.3z"/>
				</g>
			</g>
		</g>
		<g>
			<g>
				<g>
					<g>
						<g>
							<g>
								<g>
									
										<linearGradient id="SVGID_7_" gradientUnits="userSpaceOnUse" x1="-55.0181" y1="72.126" x2="-34.9868" y2="72.126" gradientTransform="matrix(0.4567 -0.8896 0.8896 0.4567 4.583001e-004 -4.169345e-004)">
										<stop  offset="0" style="stop-color:#344725"/>
										<stop  offset="0.1255" style="stop-color:#3E512C"/>
										<stop  offset="0.3412" style="stop-color:#596C3D"/>
										<stop  offset="0.6235" style="stop-color:#859858"/>
										<stop  offset="0.9529" style="stop-color:#C2D47E"/>
										<stop  offset="1" style="stop-color:#CBDE84"/>
									</linearGradient>
									<path style="fill-rule:evenodd;clip-rule:evenodd;fill:url(#SVGID_7_);" d="M53.45,72.75
										c0.333,0.833,0.417,1.683,0.25,2.55c-0.133,0.967-0.583,1.817-1.35,2.55c-0.5,0.467-1.133,0.833-1.9,1.1l-1.5,0.4
										l-0.45,1.4c-0.267,0.733-0.667,1.367-1.2,1.9c-0.733,0.667-1.583,1.083-2.55,1.25H44c-0.667,0-1.333-0.167-2-0.5
										c-0.7-0.333-1.283-0.85-1.75-1.55l-0.8-1.25H37.9c-0.867-0.033-1.667-0.283-2.4-0.75c-0.767-0.467-1.333-1.083-1.7-1.85
										c-0.367-0.8-0.5-1.633-0.4-2.5s0.417-1.65,0.95-2.35l0.9-1.2L34.8,70.5c-0.267-0.833-0.283-1.667-0.05-2.5
										c0.233-0.867,0.667-1.6,1.3-2.2c0.867-0.867,1.967-1.3,3.3-1.3c0.533,0,1.017,0.1,1.45,0.3l1.45,0.5l1.2-0.85
										c0.833-0.633,1.767-0.917,2.8-0.85c0.767,0,1.433,0.167,2,0.5l0.1,0.05c0.767,0.434,1.367,1.017,1.8,1.75
										c0.467,0.767,0.667,1.583,0.6,2.45l-0.05,1.5l1.2,0.9C52.633,71.283,53.15,71.95,53.45,72.75z"/>
									
										<path style="fill-rule:evenodd;clip-rule:evenodd;fill:none;stroke:#B6CD87;stroke-width:0.25;stroke-linejoin:round;stroke-miterlimit:3;" d="
										M53.45,72.75c0.333,0.833,0.417,1.683,0.25,2.55c-0.133,0.967-0.583,1.817-1.35,2.55c-0.5,0.467-1.133,0.833-1.9,1.1
										l-1.5,0.4l-0.45,1.4c-0.267,0.733-0.667,1.367-1.2,1.9c-0.733,0.667-1.583,1.083-2.55,1.25H44c-0.667,0-1.333-0.167-2-0.5
										c-0.7-0.333-1.283-0.85-1.75-1.55l-0.8-1.25H37.9c-0.867-0.033-1.667-0.283-2.4-0.75c-0.767-0.467-1.333-1.083-1.7-1.85
										c-0.367-0.8-0.5-1.633-0.4-2.5s0.417-1.65,0.95-2.35l0.9-1.2L34.8,70.5c-0.267-0.833-0.283-1.667-0.05-2.5
										c0.233-0.867,0.667-1.6,1.3-2.2c0.867-0.867,1.967-1.3,3.3-1.3c0.533,0,1.017,0.1,1.45,0.3l1.45,0.5l1.2-0.85
										c0.833-0.633,1.767-0.917,2.8-0.85c0.767,0,1.433,0.167,2,0.5l0.1,0.05c0.767,0.434,1.367,1.017,1.8,1.75
										c0.467,0.767,0.667,1.583,0.6,2.45l-0.05,1.5l1.2,0.9C52.633,71.283,53.15,71.95,53.45,72.75z"/>
								</g>
							</g>
							<path style="fill-rule:evenodd;clip-rule:evenodd;fill:#21230F;" d="M38.2,72.5l-0.9-2.8c-0.233-0.8-0.05-1.467,0.55-2
								c0.633-0.567,1.316-0.717,2.05-0.45l2.75,1l2.35-1.7c0.633-0.466,1.333-0.5,2.1-0.1c0.7,0.367,1.05,0.966,1.05,1.8L48,71.15
								l2.35,1.75c0.667,0.5,0.917,1.15,0.75,1.95c-0.067,0.433-0.25,0.783-0.55,1.05c-0.2,0.233-0.483,0.4-0.85,0.5l-2.8,0.8
								L46,79.9c-0.067,0.233-0.233,0.517-0.5,0.85c-0.267,0.267-0.65,0.433-1.15,0.5c-0.767,0.167-1.4-0.117-1.9-0.85l-1.6-2.4
								h-2.9c-0.867-0.067-1.45-0.45-1.75-1.15c-0.367-0.733-0.3-1.434,0.2-2.1L38.2,72.5z"/>
							
								<linearGradient id="SVGID_8_" gradientUnits="userSpaceOnUse" x1="-51.3916" y1="72.1416" x2="-38.4887" y2="72.1416" gradientTransform="matrix(0.4573 -0.8893 0.8893 0.4573 3.427863e-004 -3.959537e-004)">
								<stop  offset="0.0235" style="stop-color:#808080"/>
								<stop  offset="0.7294" style="stop-color:#E6E6E6"/>
								<stop  offset="1" style="stop-color:#B3B3B3"/>
							</linearGradient>
							<path style="fill-rule:evenodd;clip-rule:evenodd;fill:url(#SVGID_8_);" d="M46.65,67.25c0.367,0.2,0.55,0.533,0.55,1
								l-0.15,3.35l2.75,2.05c0.333,0.233,0.467,0.567,0.4,1c-0.034,0.267-0.133,0.467-0.3,0.6l-0.45,0.25l-3.25,0.95l-1.1,3.2
								l-0.25,0.4c-0.133,0.167-0.333,0.267-0.6,0.3c-0.433,0.066-0.767-0.083-1-0.45l-1.9-2.8l-3.4-0.05c-0.4,0-0.717-0.2-0.95-0.6
								c-0.167-0.4-0.117-0.784,0.15-1.15l2.05-2.65l-1-3.2c-0.1-0.434,0-0.8,0.3-1.1c0.3-0.3,0.667-0.367,1.1-0.2l3.15,1.15
								l2.75-1.95C45.9,67.083,46.283,67.05,46.65,67.25z"/>
							<path style="fill-rule:evenodd;clip-rule:evenodd;fill:#FFFFFF;" d="M42.15,69.75l-3.2-1.15l-0.6-0.05l0.15-0.2
								c0.3-0.3,0.667-0.367,1.1-0.2l3.15,1.15l2.75-1.95c0.4-0.267,0.783-0.3,1.15-0.1s0.55,0.533,0.55,1l-0.15,3.35l2.75,2.05
								c0.333,0.233,0.467,0.567,0.4,1c-0.034,0.267-0.133,0.467-0.3,0.6l-0.45,0.25H49.4c0.1-0.1,0.15-0.217,0.15-0.35
								c0.1-0.433-0.033-0.783-0.4-1.05l-2.7-2l0.1-3.4c0.067-0.4-0.117-0.717-0.55-0.95c-0.367-0.2-0.733-0.183-1.1,0.05
								L42.15,69.75z"/>
						</g>
					</g>
				</g>
			</g>
			<g>
				<g>
					<g>
						<g>
							<g>
								<g>
									<linearGradient id="SVGID_9_" gradientUnits="userSpaceOnUse" x1="123.5264" y1="64.0552" x2="132.6741" y2="81.8757">
										<stop  offset="0" style="stop-color:#344725"/>
										<stop  offset="0.1255" style="stop-color:#3E512C"/>
										<stop  offset="0.3412" style="stop-color:#596C3D"/>
										<stop  offset="0.6235" style="stop-color:#859858"/>
										<stop  offset="0.9529" style="stop-color:#C2D47E"/>
										<stop  offset="1" style="stop-color:#CBDE84"/>
									</linearGradient>
									<path style="fill-rule:evenodd;clip-rule:evenodd;fill:url(#SVGID_9_);" d="M137.35,73.15c0.534,0.7,0.851,1.483,0.95,2.35
										c0.101,0.867-0.033,1.7-0.399,2.5c-0.367,0.767-0.917,1.383-1.65,1.85s-1.533,0.717-2.4,0.75h-1.6l-0.8,1.25
										c-0.467,0.7-1.05,1.217-1.75,1.55c-0.667,0.333-1.334,0.5-2,0.5h-0.75c-0.967-0.167-1.816-0.583-2.55-1.25
										c-0.534-0.533-0.934-1.167-1.2-1.9l-0.45-1.4l-1.45-0.4c-0.767-0.267-1.416-0.633-1.95-1.1
										c-0.699-0.7-1.149-1.55-1.35-2.55c-0.167-0.867-0.083-1.716,0.25-2.55c0.3-0.8,0.816-1.467,1.55-2l1.2-0.9l-0.05-1.5
										c-0.033-0.867,0.166-1.684,0.6-2.45c0.434-0.733,1.033-1.316,1.8-1.75l0.101-0.05c0.566-0.333,1.233-0.5,2-0.5
										c1.033-0.067,1.967,0.217,2.8,0.85l1.25,0.85l1.4-0.5c0.466-0.2,0.949-0.3,1.449-0.3c1.334,0,2.434,0.433,3.301,1.3
										c0.633,0.6,1.066,1.333,1.3,2.2c0.233,0.833,0.217,1.667-0.05,2.5l-0.45,1.45L137.35,73.15z"/>
									
										<path style="fill-rule:evenodd;clip-rule:evenodd;fill:none;stroke:#B6CD87;stroke-width:0.25;stroke-linejoin:round;stroke-miterlimit:3;" d="
										M137.35,73.15c0.534,0.7,0.851,1.483,0.95,2.35c0.101,0.867-0.033,1.7-0.399,2.5c-0.367,0.767-0.917,1.383-1.65,1.85
										s-1.533,0.717-2.4,0.75h-1.6l-0.8,1.25c-0.467,0.7-1.05,1.217-1.75,1.55c-0.667,0.333-1.334,0.5-2,0.5h-0.75
										c-0.967-0.167-1.816-0.583-2.55-1.25c-0.534-0.533-0.934-1.167-1.2-1.9l-0.45-1.4l-1.45-0.4
										c-0.767-0.267-1.416-0.633-1.95-1.1c-0.699-0.7-1.149-1.55-1.35-2.55c-0.167-0.867-0.083-1.716,0.25-2.55
										c0.3-0.8,0.816-1.467,1.55-2l1.2-0.9l-0.05-1.5c-0.033-0.867,0.166-1.684,0.6-2.45c0.434-0.733,1.033-1.316,1.8-1.75
										l0.101-0.05c0.566-0.333,1.233-0.5,2-0.5c1.033-0.067,1.967,0.217,2.8,0.85l1.25,0.85l1.4-0.5
										c0.466-0.2,0.949-0.3,1.449-0.3c1.334,0,2.434,0.433,3.301,1.3c0.633,0.6,1.066,1.333,1.3,2.2
										c0.233,0.833,0.217,1.667-0.05,2.5l-0.45,1.45L137.35,73.15z"/>
								</g>
							</g>
							<path style="fill-rule:evenodd;clip-rule:evenodd;fill:#21230F;" d="M133.5,72.5l1.8,2.25c0.5,0.6,0.584,1.3,0.25,2.1
								c-0.366,0.7-0.967,1.083-1.8,1.15h-2.9l-1.6,2.4c-0.467,0.733-1.1,1.017-1.9,0.85c-0.5-0.067-0.883-0.233-1.149-0.5
								c-0.267-0.333-0.434-0.617-0.5-0.85l-0.9-2.7l-2.8-0.8c-0.366-0.133-0.634-0.3-0.8-0.5c-0.334-0.233-0.533-0.583-0.601-1.05
								c-0.166-0.8,0.084-1.45,0.75-1.95l2.351-1.75l-0.101-2.9c-0.066-0.8,0.267-1.4,1-1.8c0.767-0.4,1.467-0.367,2.101,0.1
								l2.399,1.7l2.7-1c0.733-0.267,1.417-0.117,2.05,0.45c0.601,0.533,0.784,1.2,0.551,2L133.5,72.5z"/>
							<linearGradient id="SVGID_10_" gradientUnits="userSpaceOnUse" x1="133.8359" y1="75.9282" x2="122.0859" y2="70.5782">
								<stop  offset="0.0235" style="stop-color:#808080"/>
								<stop  offset="0.7294" style="stop-color:#E6E6E6"/>
								<stop  offset="1" style="stop-color:#B3B3B3"/>
							</linearGradient>
							<path style="fill-rule:evenodd;clip-rule:evenodd;fill:url(#SVGID_10_);" d="M133.2,68.35c0.3,0.3,0.399,0.667,0.3,1.1
								l-1,3.2l2.05,2.65c0.267,0.367,0.316,0.75,0.15,1.15c-0.233,0.4-0.55,0.6-0.95,0.6l-3.4,0.05l-1.85,2.8
								c-0.3,0.367-0.65,0.517-1.05,0.45c-0.267-0.067-0.467-0.167-0.601-0.3l-0.25-0.4l-1.1-3.2l-3.25-0.95l-0.45-0.25
								c-0.133-0.133-0.233-0.333-0.3-0.6c-0.066-0.433,0.066-0.767,0.4-1l2.75-2.05l-0.15-3.35c0-0.467,0.184-0.8,0.55-1
								c0.367-0.2,0.75-0.167,1.15,0.1l2.75,1.95l3.149-1.15C132.533,67.983,132.9,68.05,133.2,68.35z"/>
							<path style="fill-rule:evenodd;clip-rule:evenodd;fill:#FFFFFF;" d="M129.55,69.75l-2.75-1.95
								c-0.366-0.233-0.733-0.25-1.1-0.05c-0.367,0.2-0.55,0.517-0.55,0.95l0.1,3.4l-2.7,2c-0.366,0.3-0.5,0.65-0.399,1.05
								c0,0.133,0.05,0.25,0.149,0.35h-0.05l-0.45-0.25c-0.133-0.133-0.233-0.333-0.3-0.6c-0.066-0.433,0.066-0.767,0.4-1l2.75-2.05
								l-0.15-3.35c0-0.467,0.184-0.8,0.55-1c0.367-0.2,0.75-0.167,1.15,0.1l2.75,1.95l3.149-1.15c0.434-0.167,0.801-0.1,1.101,0.2
								c0.066,0.033,0.116,0.1,0.149,0.2l-0.6,0.05L129.55,69.75z"/>
						</g>
					</g>
				</g>
			</g>
		</g>
		<g>
			<path style="fill-rule:evenodd;clip-rule:evenodd;fill:#B6CD87;" d="M62.1,80.95L62,80.8c-0.2-0.533-0.317-0.966-0.35-1.3
				c-0.1-0.533-0.15-1.083-0.15-1.65l0.15-2.25l0.05-0.35c0.6-4.2,2.283-7.25,5.05-9.15l0.1-0.1l0.1-0.05l2.7-1.7l1.3-0.75l0.25-0.1
				l1.2-0.6l0.4-0.15l0.1-0.05l1.55-0.55l0.2-0.1l1-0.3h0.15l1.65-0.35c0.867-0.133,1.5-0.2,1.9-0.2
				c1.467-0.1,3.316,0.183,5.55,0.85c0.9,0.267,1.6,0.433,2.1,0.5c0.934,0.167,2.7,0.15,5.3-0.05h0.15l1.8-0.15
				c0.566-0.067,1.467-0.1,2.7-0.1l4-0.25l0.3-0.05l0.15-0.05l0.6-0.15c0.6-0.333,1.2-0.566,1.8-0.7l0.2-0.05
				c0.4-0.133,0.85-0.2,1.35-0.2c0.867-0.034,1.65,0.183,2.351,0.65c0.733,0.433,1.267,1.033,1.6,1.8l0.7,1.65
				c0.833,1.833,1.467,3.65,1.9,5.45c0.966,4.4,0.466,9.083-1.5,14.05l-0.2,0.45c-0.167,0.467-0.4,0.967-0.7,1.5l-0.2,0.4l-0.1,0.1
				l-0.101,0.2c-0.333,0.6-0.8,1.3-1.399,2.1l-0.15,0.2c-0.666,0.767-1.083,1.217-1.25,1.35c-0.767,0.767-1.55,1.434-2.35,2
				L103.85,92.7l-0.1,0.05l-0.25,0.2L103.4,93l-0.051,0.05l-0.85,0.55c-0.533,0.567-1.15,0.983-1.85,1.25L100.05,95
				c-1.233,0.3-2.666,0.3-4.3,0c-1-0.2-2.5-0.6-4.5-1.2l-2.1-0.6c-1-0.267-1.733-0.316-2.2-0.15L86.6,93.1L86.4,93.15l-4.75,11.6
				l-0.05,0.05l-1.4,3.55l-0.05,0.101v0.1c-0.533,1.434-0.9,2.584-1.1,3.45l-0.1,0.3l-0.4,1.7v0.15l-0.05,0.1l-0.3,1.95l-0.1,2.149
				c-0.033,0.7-0.033,1.317,0,1.851c0.1,2.267,1,5.25,2.7,8.95c0.4,0.633,0.733,1.35,1,2.149c0.267,0.5,0.434,1.084,0.5,1.75
				c0.167,1.233,0.017,2.4-0.45,3.5c-0.467,1.101-1.2,1.983-2.2,2.65c-0.767,0.566-1.717,0.983-2.85,1.25l-1.25,0.25
				c-1.633,0.2-3.483-0.167-5.55-1.101c-1.933-0.899-3.467-2.017-4.6-3.35l-0.6-0.8v-0.05l-0.2-0.25l-0.4-0.65
				c-1.133-1.866-1.867-4.467-2.2-7.8l-0.05-0.2c-0.167-2.033-0.233-3.9-0.2-5.6l0.35-4.4l0.5-3.05l0.05-0.15
				c0.667-3.233,2-7.5,4-12.8l0.05-0.2l3.5-10.649l-0.6-0.301C66.333,87.684,63.833,84.883,62.1,80.95z"/>
			
				<linearGradient id="SVGID_11_" gradientUnits="userSpaceOnUse" x1="-153.5571" y1="61.7534" x2="-76.6035" y2="61.7534" gradientTransform="matrix(-0.2307 -0.973 0.973 -0.2307 -7.835031e-005 2.556443e-004)">
				<stop  offset="0" style="stop-color:#344725"/>
				<stop  offset="0.1255" style="stop-color:#3E512C"/>
				<stop  offset="0.3412" style="stop-color:#596C3D"/>
				<stop  offset="0.6235" style="stop-color:#859858"/>
				<stop  offset="0.9529" style="stop-color:#C2D47E"/>
				<stop  offset="1" style="stop-color:#CBDE84"/>
			</linearGradient>
			<path style="fill-rule:evenodd;clip-rule:evenodd;fill:url(#SVGID_11_);" d="M66.55,65.25l0.2-0.1l2.7-1.7l0.1-0.1l1.45-0.8
				l2.75-1.2l1.85-0.55l1.65-0.35l1.9-0.2c1.367-0.067,3.217,0.217,5.55,0.85c0.899,0.267,1.6,0.433,2.1,0.5
				c1.167,0.2,2.934,0.183,5.3-0.05h0.15l7.6-0.35l1.2-0.2l0.15-0.05l0.35-0.05l0.25-0.1c0.4-0.233,1-0.466,1.8-0.7l0.2-0.05
				c0.601-0.1,1.05-0.15,1.351-0.15c0.833-0.033,1.616,0.167,2.35,0.6s1.267,1.033,1.6,1.8l0.75,1.65
				c0.801,1.9,1.417,3.716,1.851,5.45c0.967,4.434,0.467,9.117-1.5,14.05l-0.9,2l-0.3,0.5l-0.1,0.2c-0.334,0.6-0.801,1.3-1.4,2.1
				l-0.15,0.2l-1.25,1.35c-0.733,0.733-1.517,1.4-2.35,2l-0.1,0.05l-0.101,0.101L103.3,92.1l-0.1,0.101h-0.05l-0.851,0.55v0.05
				c-0.467,0.533-1.083,0.934-1.85,1.2l-0.601,0.2c-1.233,0.3-2.666,0.3-4.3,0c-1-0.2-2.5-0.601-4.5-1.2l-2.1-0.65
				c-1-0.267-1.733-0.316-2.2-0.149L86.2,92.35l-4.75,11.601L81.4,104l-1.4,3.5l-0.05,0.1v0.101c-0.4,1.033-0.767,2.184-1.1,3.45
				l-0.1,0.3l-0.4,1.7v0.149L78.3,113.4L78,115.35l-0.1,2.15c-0.033,0.667-0.033,1.3,0,1.9c0.1,2.199,1,5.183,2.7,8.949
				c0.233,0.4,0.583,1.101,1.05,2.101c0.233,0.533,0.383,1.133,0.45,1.8c0.167,1.233,0.017,2.384-0.45,3.45
				c-0.467,1.1-1.2,2-2.2,2.7c-0.767,0.533-1.717,0.949-2.85,1.25l-1.25,0.199c-1.633,0.233-3.483-0.133-5.55-1.1
				c-1.933-0.9-3.466-2.017-4.6-3.35l-1.2-1.7c-1.1-1.834-1.833-4.434-2.2-7.8l-0.05-0.2c-0.167-2.066-0.233-3.95-0.2-5.65
				l0.35-4.399l0.5-3.051l0.05-0.149c0.633-3.101,1.966-7.367,4-12.8l0.05-0.2l1.55-4.2c0.9-2.767,1.55-4.917,1.95-6.45l-0.6-0.3
				c-2.033-1.066-3.767-2.55-5.2-4.45c-0.733-0.966-1.5-2.267-2.3-3.9l-0.05-0.2c-0.233-0.434-0.367-0.85-0.4-1.25
				c-0.1-0.534-0.15-1.1-0.15-1.7l0.2-2.6C62.167,70.167,63.85,67.117,66.55,65.25z"/>
			
				<path style="fill-rule:evenodd;clip-rule:evenodd;fill:none;stroke:#B6CD87;stroke-width:0.25;stroke-linejoin:round;stroke-miterlimit:3;" d="
				M66.55,65.25c-2.7,1.867-4.383,4.917-5.05,9.15L61.3,77c0,0.6,0.05,1.167,0.15,1.7c0.033,0.4,0.167,0.816,0.4,1.25l0.05,0.2
				c0.8,1.633,1.567,2.934,2.3,3.9c1.433,1.9,3.167,3.384,5.2,4.45l0.6,0.3c-0.4,1.533-1.05,3.684-1.95,6.45l-1.55,4.2l-0.05,0.2
				c-2.034,5.433-3.367,9.699-4,12.8L62.4,112.6l-0.5,3.051l-0.35,4.399c-0.033,1.7,0.034,3.584,0.2,5.65l0.05,0.2
				c0.367,3.366,1.1,5.966,2.2,7.8l1.2,1.7c1.133,1.333,2.667,2.449,4.6,3.35c2.067,0.967,3.917,1.333,5.55,1.1l1.25-0.199
				c1.133-0.301,2.083-0.717,2.85-1.25c1-0.7,1.733-1.601,2.2-2.7c0.467-1.066,0.617-2.217,0.45-3.45
				c-0.067-0.667-0.217-1.267-0.45-1.8c-0.467-1-0.816-1.7-1.05-2.101c-1.7-3.767-2.6-6.75-2.7-8.949
				c-0.033-0.601-0.033-1.233,0-1.9l0.1-2.15l0.3-1.949l0.05-0.101v-0.149l0.4-1.7l0.1-0.3c0.333-1.267,0.7-2.417,1.1-3.45V107.6
				l0.05-0.1l1.4-3.5l0.05-0.05L86.2,92.35l0.55-0.149c0.467-0.167,1.2-0.117,2.2,0.149l2.1,0.65c2,0.6,3.5,1,4.5,1.2
				c1.634,0.3,3.066,0.3,4.3,0l0.601-0.2c0.767-0.267,1.383-0.667,1.85-1.2v-0.05l0.851-0.55h0.05l0.1-0.101l0.25-0.149l0.101-0.101
				l0.1-0.05c0.833-0.6,1.616-1.267,2.35-2l1.25-1.35l0.15-0.2c0.6-0.8,1.066-1.5,1.4-2.1l0.1-0.2l0.3-0.5l0.9-2
				c1.967-4.934,2.467-9.617,1.5-14.05c-0.434-1.733-1.05-3.55-1.851-5.45l-0.75-1.65c-0.333-0.767-0.866-1.367-1.6-1.8
				s-1.517-0.633-2.35-0.6c-0.301,0-0.75,0.05-1.351,0.15l-0.2,0.05c-0.8,0.233-1.399,0.467-1.8,0.7l-0.25,0.1l-0.35,0.05L101.05,61
				l-1.2,0.2l-7.6,0.35H92.1c-2.366,0.233-4.133,0.25-5.3,0.05c-0.5-0.067-1.2-0.233-2.1-0.5c-2.333-0.633-4.184-0.917-5.55-0.85
				l-1.9,0.2L75.6,60.8l-1.85,0.55L71,62.55l-1.45,0.8l-0.1,0.1l-2.7,1.7L66.55,65.25z"/>
			<path style="fill-rule:evenodd;clip-rule:evenodd;fill:#21230F;" d="M64.6,78.85l-0.05-0.15c-0.1-0.133-0.15-0.3-0.15-0.5
				c-0.1-0.4-0.133-0.784-0.1-1.15l0.15-1.9V74.8c0.5-3.3,1.767-5.667,3.8-7.1l0.1-0.1l3.8-2.25l1.25-0.65l0.3-0.1l0.1-0.05
				l2.4-0.85l3.15-0.5c1.033-0.034,2.55,0.216,4.55,0.75c0.667,0.233,1.45,0.433,2.35,0.6c1.267,0.2,3.316,0.2,6.15,0l1.85-0.15
				c0.5-0.066,1.35-0.1,2.55-0.1l3.351-0.15l1.8-0.3l0.35-0.1c0.101,0,0.384-0.1,0.851-0.3c0.3-0.167,0.699-0.317,1.199-0.45
				l0.9-0.15c0.566,0,0.95,0.233,1.15,0.7l0.699,1.6c0.767,1.8,1.334,3.45,1.7,4.95c0.834,3.867,0.351,8-1.45,12.4l-0.05,0.15
				l-0.649,1.45l-0.101,0.15l-0.05,0.15l-0.1,0.1l-0.051,0.1c-0.333,0.6-0.733,1.217-1.199,1.85l-0.101,0.05
				c-0.333,0.434-0.684,0.816-1.05,1.15c-0.533,0.6-1.2,1.183-2,1.75l-0.1,0.05l-1.7,1.1c-0.101,0.334-0.334,0.55-0.7,0.65
				c-0.9,0.3-2.066,0.316-3.5,0.05c-0.866-0.167-2.217-0.533-4.05-1.1l-2.3-0.7c-1.434-0.367-2.767-0.384-4-0.05
				c-0.567,0.166-1.101,0.25-1.601,0.25L78.7,102.8l-0.05,0.05l-1.45,3.601l-1.2-0.2l1.15,0.4c-0.533,1.466-0.933,2.716-1.2,3.75
				l-0.1,0.3l-0.4,1.899l-0.05,0.15v0.1l-0.35,2.101l-0.15,4.6c0.133,2.566,1.15,5.967,3.05,10.2c0.433,0.667,0.75,1.3,0.95,1.9
				l0.05,0.149c0.1,0.2,0.15,0.417,0.15,0.65c0.267,1.5-0.184,2.666-1.35,3.5c-0.667,0.5-1.6,0.816-2.8,0.95
				c-1.1,0.133-2.434-0.167-4-0.9c-1.5-0.733-2.65-1.566-3.45-2.5l-0.5-0.7l-0.05-0.05l-0.4-0.6c-0.9-1.5-1.5-3.7-1.8-6.601V125.4
				c-0.2-1.5-0.267-3.25-0.2-5.25l0.15-2.601l0.65-4.35v-0.15c0.633-2.899,1.933-7.017,3.9-12.35l1.6-4.45
				c0.733-2.066,1.45-4.5,2.15-7.3l0.55-2.05c-0.667-0.101-1.583-0.45-2.75-1.05C68.2,84.517,66.133,82.183,64.6,78.85z"/>
			<g>
				<path style="fill-rule:evenodd;clip-rule:evenodd;fill:#39383A;" d="M67.45,81.4c-0.6-0.8-1.217-1.9-1.85-3.3l6.65-4.25
					c0.7,0.3,1.733,0.35,3.1,0.15c1.433-0.233,2.517-0.217,3.25,0.05c2,0.667,3.783,1.417,5.35,2.25c1.066,0.567,2.434,1.5,4.1,2.8
					c0.934,0.733,2.25,1.816,3.95,3.25c3.167,2.566,5.55,5.133,7.15,7.7c-0.9,0.3-2.351,0.184-4.351-0.35
					c-2.3-0.7-3.916-1.167-4.85-1.4c-1.467-0.366-2.733-0.45-3.8-0.25c-1.467,0.267-2.217,0.4-2.25,0.4
					c-1.433,0.066-2.733-0.184-3.9-0.75c-1.133-0.667-1.967-1.101-2.5-1.3c-0.8-0.267-1.817-0.45-3.05-0.55
					c-0.9-0.1-1.934-0.45-3.1-1.05C69.817,84,68.517,82.867,67.45,81.4z"/>
				<path style="fill-rule:evenodd;clip-rule:evenodd;fill:#222223;" d="M79.65,80.4c0.7,0.367,1.667,1.1,2.9,2.2
					c1.067,1.4,1.917,2.4,2.55,3l0.4,1.15l0.05,0.2c-0.7,0.434-1.533,0.649-2.5,0.649c-0.566,0.034-1.583-0.05-3.05-0.25
					c-0.867-0.1-1.433-0.233-1.7-0.399c-0.367-0.2-0.883-0.717-1.55-1.55c-0.667-0.9-1.067-1.467-1.2-1.7
					c-0.3-0.567-0.417-1.117-0.35-1.65c0.167-0.966,0.683-1.617,1.55-1.95C77.683,79.733,78.65,79.833,79.65,80.4z"/>
				<path style="fill-rule:evenodd;clip-rule:evenodd;fill:#999999;" d="M65.5,77.1c0.033-1.833,0.333-3.483,0.9-4.95
					c0.633-1.566,1.517-2.733,2.65-3.5c1.9-1.267,3.483-2.183,4.75-2.75c1.833-0.867,3.7-1.35,5.6-1.45
					c0.833-0.067,1.917,0.083,3.25,0.45c1.967,0.5,3.1,0.783,3.4,0.85c1.2,0.2,2.617,0.25,4.25,0.15c0.9-0.033,2.25-0.133,4.05-0.3
					c0.934-0.067,2.551-0.117,4.851-0.15c2-0.1,3.5-0.4,4.5-0.9c0.5-0.267,1.033-0.433,1.6-0.5c1.533,3.367,2.417,6.167,2.65,8.4
					c0.3,2.933-0.283,6.183-1.75,9.75c-0.733,1.767-1.717,3.283-2.95,4.55c-1.066,1.066-2.467,2.1-4.2,3.1
					c-1.866-0.666-3.35-1.199-4.45-1.6c-1.966-0.7-3.366-1.283-4.199-1.75c-2.233-0.967-3.884-1.8-4.95-2.5
					c-0.6-0.367-1-0.667-1.2-0.9c-0.233-0.367-0.567-0.783-1-1.25c-3.733-3.667-6.65-4.033-8.75-1.1h-0.55
					c-0.067,0.067-0.333,0.067-0.8,0c-2.533-0.1-4.1-0.233-4.7-0.4C66.45,79.85,65.467,78.767,65.5,77.1z"/>
				<path style="fill-rule:evenodd;clip-rule:evenodd;fill:#B3B3B3;" d="M105.3,64.05c1.533,3.367,2.417,6.167,2.65,8.4
					c0.3,2.933-0.283,6.183-1.75,9.75c-0.733,1.767-1.717,3.283-2.95,4.55c-1.066,1.066-2.467,2.1-4.2,3.1L93.7,87.95
					c0.233-0.233,0.517-0.55,0.85-0.95c0.334-0.467,0.601-0.8,0.8-1c0.867-0.833,1.351-1.283,1.45-1.35
					c0.467-0.533,0.834-1.1,1.101-1.7c0.833-1.567,1.433-2.733,1.8-3.5c0.6-1.333,1-2.717,1.2-4.15c0.3-2.433,0.25-4.316-0.15-5.65
					c-0.2-0.6-0.5-1.316-0.9-2.15l-1.05-2.05c2.2-0.067,3.834-0.367,4.9-0.9C104.2,64.283,104.733,64.117,105.3,64.05z"/>
				<path style="fill-rule:evenodd;clip-rule:evenodd;fill:#CCCCCC;" d="M101.95,84.35c0.8-0.467,1.316-0.684,1.55-0.65
					c0.233,0,0.85,0.066,1.85,0.2c-0.233,0.467-0.533,0.934-0.899,1.4C103.283,84.9,102.45,84.583,101.95,84.35z"/>
				<path style="fill-rule:evenodd;clip-rule:evenodd;fill:#CCCCCC;" d="M99.25,88.55c0.467-0.1,1.033-0.066,1.7,0.101
					c-0.2,0.133-0.517,0.25-0.95,0.35C99.667,88.866,99.417,88.717,99.25,88.55z"/>
				<path style="fill-rule:evenodd;clip-rule:evenodd;fill:#CCCCCC;" d="M101.6,69.4c2.567-1.066,4.217-1.85,4.95-2.35
					c0.634,1.633,1.066,3.167,1.3,4.6c-4.3-0.1-6.466-0.15-6.5-0.15c0.4-0.3,1.084-0.683,2.051-1.15
					c0.933-0.467,1.616-0.867,2.05-1.2c-0.3,0-0.934,0.083-1.9,0.25C102.75,69.567,102.1,69.567,101.6,69.4z"/>
				<path style="fill-rule:evenodd;clip-rule:evenodd;fill:#CCCCCC;" d="M106.2,81.85l-0.7,1.5c-0.733-0.267-1.3-0.667-1.7-1.2
					C104.566,81.917,105.366,81.817,106.2,81.85z"/>
				<path style="fill-rule:evenodd;clip-rule:evenodd;fill:#CCCCCC;" d="M106.55,80.85l-2.55-0.6c0.866-0.4,1.9-0.767,3.1-1.1
					L106.55,80.85z"/>
				<path style="fill-rule:evenodd;clip-rule:evenodd;fill:#CCCCCC;" d="M103.15,86.5c-0.601,0.6-1.184,1.116-1.75,1.55
					c-0.567-0.399-1.4-0.883-2.5-1.45c-1.267-0.633-2.101-1.066-2.5-1.3C98.4,85.833,100.65,86.233,103.15,86.5z"/>
				<path style="fill-rule:evenodd;clip-rule:evenodd;fill:#CCCCCC;" d="M107.45,77.85c-1.033-0.1-1.816-0.2-2.351-0.3
					c-0.933-0.133-1.767-0.4-2.5-0.8c0.5-0.5,1.284-0.817,2.351-0.95c0.6-0.066,1.566-0.1,2.899-0.1
					C107.717,76.633,107.583,77.35,107.45,77.85z"/>
				<path style="fill-rule:evenodd;clip-rule:evenodd;fill:#CCCCCC;" d="M98.9,65.45c2.199-0.133,3.8-0.434,4.8-0.9
					c0.5-0.267,1.033-0.433,1.6-0.5l0.7,1.6c-0.3,0.033-0.684,0.15-1.15,0.35c-0.533,0.233-0.85,0.367-0.949,0.4
					c-0.733,0.167-1.567,0.133-2.5-0.1C101.3,66.267,100.467,65.983,98.9,65.45z"/>
				<path style="fill-rule:evenodd;clip-rule:evenodd;fill:#999A9D;" d="M99.3,89.7c-1.366-1.066-2.383-1.8-3.05-2.2
					c0.167,0,0.5-0.066,1-0.2l-0.45-0.75c1.967,0.467,3.4,1.134,4.3,2l-0.25,0.15c-0.899,0.133-1.233,0.35-1,0.649L99.3,89.7z"/>
				<path style="fill-rule:evenodd;clip-rule:evenodd;fill:#999A9D;" d="M104.05,85.7h0.101l-1,1.1
					c-0.167-0.1-0.851-0.383-2.051-0.85c-0.8-0.3-1.333-0.633-1.6-1c0.4-0.567,1.1-0.633,2.1-0.2
					C103.1,85.383,103.917,85.7,104.05,85.7z"/>
				<path style="fill-rule:evenodd;clip-rule:evenodd;fill:#999A9D;" d="M106.15,73.25c0.3-0.4,0.899-0.533,1.8-0.4
					c0.066,1,0.05,1.933-0.05,2.8c-0.767-0.533-1.784-0.767-3.051-0.7c-1.566,0.033-2.583-0.017-3.05-0.15
					c0.5-0.466,1.2-0.783,2.101-0.95c0.366-0.067,1.183-0.133,2.449-0.2L106.15,73.25z"/>
				<path style="fill-rule:evenodd;clip-rule:evenodd;fill:#999A9D;" d="M102.65,81.55l0.149,0.5c0.033,0.3-0.383,0.417-1.25,0.35
					c-0.833-0.066-1.5-0.25-2-0.55c0.233-0.3,0.7-0.417,1.4-0.35C101.884,81.6,102.45,81.617,102.65,81.55z"/>
				<path style="fill-rule:evenodd;clip-rule:evenodd;fill:#999A9D;" d="M104.55,79.65c-1.5-0.066-2.583-0.316-3.25-0.75
					c0.467-0.033,1.2,0.067,2.2,0.3c1.2,0.3,1.967,0.466,2.3,0.5L104.55,79.65z"/>
				<path style="fill-rule:evenodd;clip-rule:evenodd;fill:#949198;" d="M65.5,77.1c0-1.3,0.183-2.583,0.55-3.85
					c0.034,1.667,0.133,2.85,0.3,3.55c0.3,1.133,0.9,1.917,1.8,2.35c0.5,0.233,1.267,0.467,2.3,0.7
					c1.133,0.267,1.816,0.333,2.05,0.2s0.417-0.466,0.55-1c0.167-0.633,0.317-1.066,0.45-1.3c0.233-0.033,0.617-0.15,1.15-0.35h0.05
					c-0.4,0.167-0.383,0.184,0.05,0.05l0.1,0.05L75,77.6c-1.1,0.233-1.65,1.15-1.65,2.75l0.05,0.1l-0.25,0.3
					c-2.533-0.1-4.1-0.233-4.7-0.4C66.45,79.85,65.467,78.767,65.5,77.1z"/>
				<path style="fill-rule:evenodd;clip-rule:evenodd;fill:#949198;" d="M92.45,86.7l2.149,1.55c-1.8-0.634-3.199-1.217-4.199-1.75
					l-2.95-1.4C89.384,85.967,91.05,86.5,92.45,86.7z"/>
				<path style="fill-rule:evenodd;clip-rule:evenodd;fill:#727475;" d="M90.05,68.5c0.533,0.067,1.316,0.083,2.351,0.05L90.8,69.8
					c0.233,0.267,0.55,0.483,0.95,0.65c0.233,0.1,0.566,0.216,1,0.35l-0.25,0.25c0.2,0.233,0.483,0.383,0.85,0.45
					c0.2,0.033,0.483,0.05,0.851,0.05c-1.467,0.567-2.467,1.067-3,1.5c0.333,0.3,0.816,0.483,1.45,0.55
					c0.6,0.033,1.033,0.167,1.3,0.4c-0.5,0.7-1.084,1.333-1.75,1.9c-0.367,0.267-1.05,0.733-2.05,1.4
					c0.366,0.467,0.816,0.733,1.35,0.8c-0.033,0.066-0.267,0.25-0.7,0.55c-0.333,0.233-0.45,0.467-0.35,0.7
					c0.066,0.167,0.233,0.333,0.5,0.5c0.333,0.233,0.55,0.433,0.649,0.6c0.233,0.433,0.217,0.733-0.05,0.9
					c-0.133,0.1-0.416,0.233-0.85,0.4c0.166,0.4,0.066,0.583-0.3,0.55c-0.5-0.033-0.801,0.017-0.9,0.15
					c0.4,0.433,0.517,0.733,0.35,0.9c-0.133,0.1-0.366,0.133-0.699,0.1c-0.134-0.034-0.334-0.15-0.601-0.35
					c-0.166-0.133-0.333-0.15-0.5-0.05c-0.1,0.1-0.166,0.333-0.2,0.7c-0.033,0.333-0.133,0.55-0.3,0.65
					c-0.066,0.067-0.2,0.067-0.399,0l-0.45-0.2c-0.267,0-0.434,0-0.5,0c-0.101,0-0.316-0.117-0.65-0.35
					c-0.3-0.233-0.7-0.633-1.2-1.2c-0.533-0.566-0.95-0.967-1.25-1.2l0.05,0.6c-0.2-0.533-0.75-1.216-1.65-2.05
					c-1.033-0.833-1.733-1.417-2.1-1.75c0.9,0.633,1.417,0.967,1.55,1c-0.333-0.567-0.55-0.917-0.65-1.05
					c0.534,0.066,0.95,0.05,1.25-0.05c-0.3-0.467-0.75-0.967-1.35-1.5c-0.667-0.6-1.167-1.05-1.5-1.35c0.3,0,0.883,0.184,1.75,0.55
					c-0.167-0.367-0.534-0.783-1.1-1.25c-0.567-0.467-0.934-0.867-1.1-1.2c0.333-0.033,0.817,0.067,1.45,0.3
					c0.767,0.3,1.267,0.466,1.5,0.5l-0.3-0.4l0.85-0.3c-0.233-0.367-0.383-0.6-0.45-0.7c0.567-0.066,0.917-0.216,1.05-0.45
					c-0.133-0.4-0.233-0.717-0.3-0.95c-0.133-0.333-0.333-0.65-0.6-0.95c0.566,0,0.933-0.1,1.1-0.3L81,67.9
					c0.033,0,0.517,0.1,1.45,0.3c0.6,0.133,1.017,0.1,1.25-0.1c-0.333-0.567-0.6-0.967-0.8-1.2c0.767-0.133,2.033-0.017,3.8,0.35
					c1.725,0.398,2.975,0.498,3.75,0.3C89.952,67.687,89.818,68.004,90.05,68.5z"/>
				<path style="fill-rule:evenodd;clip-rule:evenodd;fill:#4D4D4D;" d="M87.85,70l0.45,0.3c-0.166,0.1-0.25,0.383-0.25,0.85
					c0.033,0.233,0.05,0.55,0.05,0.95l-0.25,1.5c0.301,0.233,0.367,0.617,0.2,1.15c-0.233,0.6-0.316,1.017-0.25,1.25l0.3-0.1
					c0.134,0.333,0.051,0.783-0.25,1.35c0.301-0.133,0.5-0.25,0.601-0.35c0.267,0.5,0.233,0.934-0.101,1.3
					c-0.166,0.2-0.466,0.433-0.899,0.7l1,1.1c-0.2,0.233-0.55,0.483-1.05,0.75c-0.467,0.267-0.767,0.517-0.9,0.75
					c-0.8,1.2-1.45,1.6-1.95,1.2l-0.2-0.25c0.033-0.167,0.05-0.3,0.05-0.4c0-0.1-0.1-0.25-0.3-0.45c0.1-0.033,0.233-0.15,0.4-0.35
					c-0.333-0.5-0.583-0.85-0.75-1.05c0.5-0.034,0.65-0.267,0.45-0.7c-0.4-0.567-0.7-1.017-0.9-1.35
					c0.667,0.133,1.133,0.184,1.4,0.15c0.333,0,0.666-0.15,1-0.45c0.267-0.267,0.416-0.434,0.45-0.5
					c0.133-0.267,0.1-0.55-0.101-0.85c0.2-0.167,0.217-0.4,0.05-0.7c-0.033-0.033-0.25-0.316-0.649-0.85
					c0.467,0.033,0.783-0.017,0.95-0.15c0.166-0.1,0.283-0.367,0.35-0.8c0.033-0.133,0-0.433-0.1-0.9
					c-0.101-0.467-0.217-0.783-0.351-0.95c0.4-0.167,0.483-0.5,0.25-1c-0.066-0.167-0.35-0.65-0.85-1.45
					c0.233,0.1,0.416,0.066,0.55-0.1c-0.267-0.467-0.483-0.783-0.65-0.95c1,0.1,1.95,0.383,2.851,0.85
					C88.217,69.767,88.017,69.933,87.85,70z"/>
				
					<linearGradient id="SVGID_12_" gradientUnits="userSpaceOnUse" x1="51.6924" y1="86.5068" x2="64.1709" y2="86.5068" gradientTransform="matrix(0.9731 -0.2303 0.2303 0.9731 2.663136e-004 -3.154576e-004)">
					<stop  offset="0.0235" style="stop-color:#808080"/>
					<stop  offset="0.7294" style="stop-color:#E6E6E6"/>
					<stop  offset="1" style="stop-color:#B3B3B3"/>
				</linearGradient>
				<path style="fill-rule:evenodd;clip-rule:evenodd;fill:url(#SVGID_12_);" d="M72.4,68.1c-0.233,0.066-0.517,0.05-0.85-0.05
					c-0.233-0.066-0.483,0.017-0.75,0.25c-0.066-0.133-0.3-0.117-0.7,0.05c-0.434,0.167-0.7,0.2-0.8,0.1
					c1.9-1.233,3.45-2.117,4.65-2.65c1.833-0.8,3.65-1.25,5.45-1.35c0.533-0.034,1.133,0,1.8,0.1v0.05l-3.35,0.8
					c-1.3,0.3-2.233,0.917-2.8,1.85l0.4,0.55c-0.2,0.267-0.35,0.417-0.45,0.45c0.2,0.233,0.483,0.383,0.85,0.45
					c0.4,0.1,0.683,0.25,0.85,0.45c-0.133,0.167-0.45,0.417-0.95,0.75c-0.4,0.3-0.683,0.583-0.85,0.85l0.4,0.5
					c-0.233,0.367-0.583,0.75-1.05,1.15l0.4,0.3c0.033,0.2,0,0.517-0.1,0.95c-0.1,0.467-0.2,0.733-0.3,0.8
					c0.3,0.433,0.517,0.85,0.65,1.25l-1.55,1.25h0.55l-0.65,0.5c-0.1-0.2-0.167-0.467-0.2-0.8c0-0.3-0.083-0.566-0.25-0.8
					c0.2-0.133,0.35-0.25,0.45-0.35c0.2-0.167,0.3-0.333,0.3-0.5c0-0.1-0.117-0.283-0.35-0.55c-0.233-0.267-0.367-0.467-0.4-0.6
					c-0.033-0.333,0.15-0.817,0.55-1.45c0.267-0.467,0.15-1-0.35-1.6c0.1-0.033,0.217-0.15,0.35-0.35l-0.3-0.4
					c0.4-0.2,0.667-0.367,0.8-0.5c-0.233-0.167-0.583-0.267-1.05-0.3c-0.433-0.067-0.767-0.183-1-0.35
					C71.933,68.567,72.133,68.3,72.4,68.1z"/>
				<path style="fill-rule:evenodd;clip-rule:evenodd;fill:#BE7F2C;" d="M67.2,129.1c0.2-1.699,0.3-2.966,0.3-3.8l3.8-1.7
					c3.3,3.534,5.333,6.101,6.1,7.7c1.267,2.533,0.383,4-2.65,4.4c-0.8,0.1-1.867-0.167-3.2-0.8c-1.367-0.634-2.4-1.367-3.1-2.2
					C67.617,131.733,67.2,130.533,67.2,129.1z"/>
				<path style="fill-rule:evenodd;clip-rule:evenodd;fill:#9D5021;" d="M68,107.75c1.833-4.934,3.167-8.634,4-11.1
					c1.067-3.067,2.017-6.367,2.85-9.9l0.9-4.35l1.4-1.1c1.1-0.6,2.133-0.533,3.1,0.2c1.533,1.133,2.85,2.617,3.95,4.45L79.1,98.7
					c-2.267,5.533-3.517,8.666-3.75,9.399c-1.3,4-1.85,7.851-1.65,11.551c0.133,2.3,0.867,5.1,2.2,8.399
					c0.7,1.667,1.367,3.101,2,4.3c-0.4-0.433-0.933-0.899-1.6-1.399c-1.333-0.967-2.716-1.533-4.15-1.7
					c-1.433-0.167-2.566,0.233-3.4,1.2c-0.433,0.5-0.717,1-0.85,1.5c-0.4-0.434-0.783-1.267-1.15-2.5c-0.733-2.4-1.067-5.5-1-9.3
					C65.85,116.283,66.6,112.15,68,107.75z"/>
				<path style="fill-rule:evenodd;clip-rule:evenodd;fill:#703917;" d="M73.65,105.35c1.817-2.939,2.834-4.798,3.05-5.574
					c-0.231,0.896-0.198,2.12,0.1,3.675c0.267-0.267,0.517-0.634,0.75-1.101c-1.333,3.2-2.267,5.834-2.8,7.9
					c-0.867,3.2-1.217,6.333-1.05,9.4c0.133,2.3,0.867,5.1,2.2,8.399c0.7,1.667,1.367,3.101,2,4.3c-1.2-1.366-2.7-2.3-4.5-2.8
					c-0.433-1.333-0.816-2.399-1.15-3.2c0.067,0.434,0.05,0.834-0.05,1.2c-0.067,0.2-0.167,0.483-0.3,0.851
					c-0.733-1.334-1.15-3.184-1.25-5.551c-0.1-3.133-0.316-5.416-0.65-6.85c0.705,0.705,1.163,1.563,1.375,2.575
					c-0.022-1.146,0.136-2.271,0.475-3.375c0.233-0.8,0.483-1.884,0.75-3.25c0.3-1.533,0.533-2.601,0.7-3.2
					c-0.533,1.167-1.033,2.116-1.5,2.85C71.533,109.8,72.15,107.717,73.65,105.35z"/>
				<path style="fill-rule:evenodd;clip-rule:evenodd;fill:#703917;" d="M78.5,84.4c-0.2-1.3-0.75-2.283-1.65-2.95
					c1.2-0.767,2.333-0.75,3.4,0.05c1.533,1.133,2.85,2.617,3.95,4.45l-5.9,14.7c0.633-2.434,1.15-4.15,1.55-5.15
					c1.533-3.667,2.05-6.684,1.55-9.05c-0.8,0.967-1.417,2.267-1.85,3.899c-0.233,0.934-0.6,2.434-1.1,4.5
					C78.183,95.684,77.6,96.7,76.7,97.9c-0.967,1.267-1.583,2.25-1.85,2.949c0.133-0.399,0.717-1.833,1.75-4.3
					c0.667-1.533,1.133-3.017,1.4-4.45c0.2-0.933,0.367-2.183,0.5-3.75C78.633,86.55,78.633,85.233,78.5,84.4z"/>
				<path style="fill-rule:evenodd;clip-rule:evenodd;fill:#BF652D;" d="M66.15,127c-0.2-1.3-0.316-2.483-0.35-3.55l2.1,8.45v0.05
					c-0.3-0.334-0.617-0.95-0.95-1.851C66.583,129,66.317,127.967,66.15,127z"/>
				<path style="fill-rule:evenodd;clip-rule:evenodd;fill:#BF652D;" d="M67.65,126.55c-0.367-0.8-0.983-1.967-1.85-3.5l-0.05-2.899
					c0.133-4,0.95-8.317,2.45-12.95c0.066,0.666,0.183,1.25,0.35,1.75c0.534-0.8,1.367-2.334,2.5-4.601
					c0.967-2,1.85-3.483,2.65-4.449c-0.367,1.966-1.1,4.116-2.2,6.449c-0.6,1.334-1.517,3.284-2.75,5.851
					C66.683,116.934,66.317,121.717,67.65,126.55z"/>
				<path style="fill-rule:evenodd;clip-rule:evenodd;fill:#BF652D;" d="M75.15,88.7c0.267-0.2,0.6-0.517,1-0.95
					c0.434-0.434,0.767-0.75,1-0.95c-0.167,0.434-0.35,2.017-0.55,4.75c-0.167,1.8-0.867,3-2.1,3.601c0.6-1.067,0.833-2.2,0.7-3.4
					c-0.1-1.1-0.434-1.934-1-2.5c0.466-1.7,0.883-3.5,1.25-5.4c0.233,0.7,0.267,1.533,0.1,2.5C75.483,86.917,75.35,87.7,75.15,88.7z
					"/>
				<path style="fill-rule:evenodd;clip-rule:evenodd;fill:#BF652D;" d="M68,118.95c0.031,0.05,0.064,0.1,0.1,0.149
					c-0.094,0.17-0.194,0.354-0.3,0.551L68,118.95z M68.75,123.25c0.031-1.885-0.185-3.268-0.65-4.15
					c0.289-0.561,0.473-0.943,0.55-1.149c0.267-0.667,0.367-1.334,0.3-2c1.466,4.934,1.45,8.833-0.05,11.7
					C68.8,127.116,68.75,125.65,68.75,123.25z"/>
				<path style="fill-rule:evenodd;clip-rule:evenodd;fill:#BF652D;" d="M80.7,91l-1.4,3.3c-0.2-0.666-0.083-1.583,0.35-2.75
					c0.434-1.1,0.917-1.85,1.45-2.25c0.333,0.733,0.217,1.867-0.35,3.4c-0.333,0.866-0.817,2-1.45,3.399
					c0.067-0.633,0.267-1.483,0.6-2.55C80.3,92.384,80.567,91.533,80.7,91z"/>
			</g>
		</g>
		
			<use xlink:href="#FlashAICB_x2F_Layer_1_x2F__x3C_Path_x3E_"  width="128.6" height="61.9" y="-61.9" transform="matrix(1 0 0 -1 21.5498 85.9502)" style="overflow:visible;opacity:0.2813;enable-background:new    ;"/>
		<g>
			
				<use xlink:href="#FlashAICB_x2F_Layer_1_x2F__x3C_Path_x3E__x5F_1_x5F_0"  width="119.2" height="60.45" y="-60.45" transform="matrix(1 0 0 -1 26.25 22.25)" style="overflow:visible;opacity:0.1992;enable-background:new    ;"/>
			
				<use xlink:href="#FlashAICB_x2F_Layer_1_x2F__x3C_Path_x3E__x5F_0"  width="119.2" height="66.417" y="-66.417" transform="matrix(1 0 0 -1 26.25 22.25)" style="overflow:visible;opacity:0.1211;enable-background:new    ;"/>
		</g>
	</g>
</g>
</svg>
