<?xml version="1.0" encoding="iso-8859-1"?>
<!-- Generator: Adobe Illustrator 15.1.0, SVG Export Plug-In . SVG Version: 6.00 Build 0)  -->
<!DOCTYPE svg PUBLIC "-//W3C//DTD SVG 1.1//EN" "http://www.w3.org/Graphics/SVG/1.1/DTD/svg11.dtd">
<svg version="1.1" xmlns="http://www.w3.org/2000/svg" xmlns:xlink="http://www.w3.org/1999/xlink" x="0px" y="0px" width="171.8px"
	 height="172.35px" viewBox="0 0 171.8 172.35" style="enable-background:new 0 0 171.8 172.35;" xml:space="preserve">
<symbol  id="BG_x2F_bg_dark_green" viewBox="0 -134 134 134">
	<g id="Layer_1_14_">
		<g>
			<g>
				
					<linearGradient id="SVGID_1_" gradientUnits="userSpaceOnUse" x1="16086.8906" y1="-64.9639" x2="16219.2402" y2="-64.9639" gradientTransform="matrix(7.555724e-006 1 -1 -0.001 1.939 -16220.1055)">
					<stop  offset="0.0745" style="stop-color:#4D5737"/>
					<stop  offset="0.2863" style="stop-color:#60702D"/>
					<stop  offset="0.4784" style="stop-color:#748A25"/>
					<stop  offset="1" style="stop-color:#F7E3E1"/>
				</linearGradient>
				<path style="fill-rule:evenodd;clip-rule:evenodd;fill:url(#SVGID_1_);" d="M113.8-20.2c12.933-12.933,19.4-28.533,19.4-46.8
					c0-18.233-6.467-33.816-19.4-46.75c-12.934-12.934-28.533-19.4-46.8-19.4c-18.233,0-33.816,6.466-46.75,19.4
					C7.316-100.85,0.85-85.267,0.85-67s6.467,33.867,19.4,46.8C33.183-7.267,48.766-0.8,67-0.8C85.267-0.8,100.866-7.267,113.8-20.2
					z"/>
				<path style="fill-rule:evenodd;clip-rule:evenodd;fill:#22230D;" d="M113.2-20.8C100.466-8.033,85.066-1.65,67-1.65
					c-18.033,0-33.433-6.383-46.2-19.15S1.649-48.967,1.649-67c0-18.066,6.384-33.467,19.15-46.2
					c12.767-12.767,28.167-19.15,46.2-19.15c18.067,0,33.467,6.383,46.2,19.15c12.767,12.733,19.15,28.134,19.15,46.2
					C132.35-48.967,125.966-33.566,113.2-20.8z M134-67c0-8.967-1.683-17.517-5.05-25.65s-8.217-15.367-14.55-21.7
					c-6.3-6.333-13.55-11.2-21.75-14.6C84.517-132.316,75.966-134,67-134c-8.966,0-17.517,1.684-25.65,5.05
					c-8.133,3.4-15.367,8.267-21.7,14.6c-6.333,6.333-11.2,13.567-14.6,21.7C1.683-84.517,0-75.967,0-67s1.684,17.517,5.05,25.65
					c3.4,8.167,8.267,15.417,14.6,21.75c6.333,6.333,13.567,11.184,21.7,14.55C49.483-1.684,58.033,0,67,0
					c8.967,0,17.517-1.684,25.65-5.05c8.167-3.367,15.417-8.217,21.75-14.55c6.333-6.333,11.184-13.583,14.55-21.75
					C132.316-49.483,134-58.033,134-67z"/>
			</g>
			
				<use xlink:href="#zzz_x5F_miscellaneous_x2F_FlashAICB_copy_2_x2F_Layer_1_x2F__x3C_Path_x3E__x5F_0"  width="118.85" height="118.7" y="-118.7" transform="matrix(1 0 0 1 7.6001 -5.5)" style="overflow:visible;opacity:0.3789;enable-background:new    ;"/>
		</g>
	</g>
</symbol>
<symbol  id="Digits_x2F_digit_2" viewBox="0 -26.55 17.4 26.55">
	<g id="Layer_1_16_">
		<path style="fill-rule:evenodd;clip-rule:evenodd;fill:#FFFFFF;" d="M11.05-7.75c0-0.1,0-0.183,0-0.25
			c-0.066,0.667-0.316,1.233-0.75,1.7C9.8-5.733,9.183-5.45,8.45-5.45C7.017-5.45,6-6.433,5.4-8.4c-0.6-1.934-1.45-2.9-2.55-2.9
			c-0.833,0-1.5,0.267-2,0.8C0.417-10,0.2-9.383,0.2-8.65c0,0.1,0,0.2,0,0.3C0.233-8.983,0.45-9.533,0.85-10
			c0.5-0.533,1.167-0.8,2-0.8c1.1,0,1.95,0.966,2.55,2.9C6-5.933,7.017-4.95,8.45-4.95c0.733,0,1.35-0.283,1.85-0.85
			C10.8-6.333,11.05-6.983,11.05-7.75z M16.65-8c0-2.1-1.05-4.55-3.15-7.35c-1.133-1.467-2.817-3.45-5.05-5.95H8
			c2.467,2.733,4.3,4.883,5.5,6.45c2.033,2.7,3.083,5.067,3.15,7.1C16.65-7.817,16.65-7.9,16.65-8z M0-23.95
			c0.133-1.4,1.067-2.1,2.8-2.1h12c0.767,0,1.383,0.183,1.85,0.55c0.467,0.4,0.717,0.933,0.75,1.6c0-0.067,0-0.15,0-0.25
			c0-0.8-0.25-1.417-0.75-1.85c-0.467-0.367-1.083-0.55-1.85-0.55h-12c-1.867,0-2.8,0.8-2.8,2.4C0-24.083,0-24.017,0-23.95z"/>
		
			<use xlink:href="#zzz_x5F_miscellaneous_x2F_digit_2x"  width="17.4" height="26.05" y="-26.05" style="overflow:visible;enable-background:new    ;"/>
		
			<use xlink:href="#zzz_x5F_miscellaneous_x2F_digit_2x"  width="17.4" height="26.05" y="-26.05" style="overflow:visible;opacity:0.4219;enable-background:new    ;"/>
	</g>
</symbol>
<symbol  id="Digits_x2F_digit_6" viewBox="0 -27 18.1 27">
	<g id="Layer_1_17_">
		<path style="fill-rule:evenodd;clip-rule:evenodd;fill:#FFFFFF;" d="M9.05-14.3c-1,0-1.816-0.367-2.45-1.1
			c-0.567-0.633-0.883-1.434-0.95-2.4c0,0.066,0,0.15,0,0.25c0,1.066,0.317,1.95,0.95,2.65c0.633,0.733,1.45,1.1,2.45,1.1
			c1.067,0,1.917-0.383,2.55-1.15c0.566-0.7,0.85-1.566,0.85-2.6c0-0.1,0-0.184,0-0.25c-0.034,0.933-0.317,1.716-0.85,2.35
			C10.967-14.683,10.117-14.3,9.05-14.3z M13.2-4.6c-0.3-0.367-1.167-1.333-2.6-2.9C9.767-8.433,9.117-9.2,8.65-9.8
			C8.517-9.833,8.4-9.867,8.3-9.9L8.2-9.85C8.667-9.217,9.467-8.267,10.6-7c1.433,1.567,2.3,2.533,2.6,2.9
			c0.4,0.567,0.65,1,0.75,1.3c0-0.1,0-0.2,0-0.3C13.95-3.4,13.7-3.9,13.2-4.6z M1.55-23.25C0.517-21.783,0-20.05,0-18.05
			c0.069-1.784,0.586-3.351,1.55-4.7c0.267-0.4,0.567-0.767,0.9-1.1c1.7-1.767,3.9-2.65,6.6-2.65c2.6,0,4.767,0.9,6.5,2.7
			c0.333,0.333,0.633,0.683,0.9,1.05c1.066,1.467,1.617,3.117,1.65,4.95c0-0.1,0-0.184,0-0.25c0-1.934-0.55-3.667-1.65-5.2
			c-0.267-0.367-0.567-0.717-0.9-1.05c-1.733-1.8-3.9-2.7-6.5-2.7c-2.7,0-4.9,0.883-6.6,2.65C2.117-24.017,1.817-23.65,1.55-23.25z"
			/>
		
			<use xlink:href="#zzz_x5F_miscellaneous_x2F_digit_6x"  width="18.1" height="26.5" y="-26.5" style="overflow:visible;enable-background:new    ;"/>
		
			<use xlink:href="#zzz_x5F_miscellaneous_x2F_digit_6x"  width="18.1" height="26.5" y="-26.5" style="overflow:visible;opacity:0.4219;enable-background:new    ;"/>
	</g>
</symbol>
<symbol  id="Digits_x2F_digit_7" viewBox="0 -26.35 18.3 26.35">
	<g id="Layer_1_18_">
		<path style="fill-rule:evenodd;clip-rule:evenodd;fill:#FFFFFF;" d="M11.9-5l-0.25-0.5H2.7c-0.9,0-1.6,0.267-2.1,0.8
			C0.2-4.267,0-3.7,0-3c0,0.1,0,0.183,0,0.25c0.033-0.6,0.233-1.083,0.6-1.45C1.1-4.733,1.8-5,2.7-5H11.9z M17.45-5
			c0.5,0.967,0.783,1.683,0.85,2.15c0-0.066,0-0.15,0-0.25c0-0.467-0.283-1.267-0.85-2.4l-8.9-18.15c-0.533-1.1-0.966-1.8-1.3-2.1
			c-0.4-0.4-0.983-0.6-1.75-0.6c-0.9,0-1.633,0.3-2.2,0.9c-0.5,0.5-0.75,1.05-0.75,1.65c0,0.066,0.017,0.133,0.05,0.2
			c0.033-0.467,0.267-0.917,0.7-1.35c0.567-0.6,1.3-0.9,2.2-0.9c0.767,0,1.35,0.2,1.75,0.6c0.333,0.3,0.767,1,1.3,2.1L17.45-5z"/>
		
			<use xlink:href="#zzz_x5F_miscellaneous_x2F_digit_7x"  width="18.3" height="25.85" y="-25.85" style="overflow:visible;enable-background:new    ;"/>
		
			<use xlink:href="#zzz_x5F_miscellaneous_x2F_digit_7x"  width="18.3" height="25.85" y="-25.85" style="overflow:visible;opacity:0.4219;enable-background:new    ;"/>
	</g>
</symbol>
<symbol  id="SIDE_x5F_DECOR_x5F_05" viewBox="0.01 -60.2 45.736 60.2">
	<g id="Layer_1_13_">
		
			<linearGradient id="SVGID_2_" gradientUnits="userSpaceOnUse" x1="2707.1265" y1="-18877.2148" x2="2724.5164" y2="-18877.2148" gradientTransform="matrix(-0.427 -0.9043 0.9649 -0.2985 19389.1953 -3193.4907)">
			<stop  offset="0" style="stop-color:#95856A"/>
			<stop  offset="1" style="stop-color:#DFD1B1"/>
		</linearGradient>
		<path style="fill-rule:evenodd;clip-rule:evenodd;fill:url(#SVGID_2_);" d="M12.2-20.2h-0.1c-0.067,0.233-0.117,0.65-0.15,1.25
			C12.05-19.517,12.133-19.933,12.2-20.2z"/>
		
			<linearGradient id="SVGID_3_" gradientUnits="userSpaceOnUse" x1="2728.4009" y1="-18888.6133" x2="2741.0024" y2="-18888.6133" gradientTransform="matrix(-0.4345 -0.9007 0.9658 -0.2995 19456.9863 -3230.646)">
			<stop  offset="0" style="stop-color:#7BA0FD"/>
			<stop  offset="0.2471" style="stop-color:#6C8BD4"/>
			<stop  offset="0.7647" style="stop-color:#4D5F81"/>
			<stop  offset="1" style="stop-color:#414E61"/>
		</linearGradient>
		<path style="fill-rule:evenodd;clip-rule:evenodd;fill:url(#SVGID_3_);" d="M24.7-40.95c-0.028,0.049-0.062,0.1-0.1,0.15
			c-0.13,0.189-0.313,0.389-0.55,0.6c0.204-0.174,0.429-0.375,0.675-0.6c0.045-0.033,0.087-0.066,0.125-0.1
			C24.817-40.933,24.767-40.95,24.7-40.95z"/>
		
			<linearGradient id="SVGID_4_" gradientUnits="userSpaceOnUse" x1="2728.4009" y1="-18888.4414" x2="2741.0024" y2="-18888.4414" gradientTransform="matrix(-0.4345 -0.9007 0.9658 -0.2995 19456.9863 -3230.646)">
			<stop  offset="0" style="stop-color:#95856A"/>
			<stop  offset="1" style="stop-color:#DFD1B1"/>
		</linearGradient>
		<path style="fill-rule:evenodd;clip-rule:evenodd;fill:url(#SVGID_4_);" d="M24-41.05L24.075-41H24.1
			c0.066,0,0.133-0.017,0.2-0.05h0.05h0.1c0.033,0,0.066,0,0.1,0c0.034,0,0.067,0,0.1,0c0.033-0.067,0.067-0.1,0.1-0.1L24.6-41.2
			C24.367-41.167,24.167-41.117,24-41.05z"/>
		
			<linearGradient id="SVGID_5_" gradientUnits="userSpaceOnUse" x1="2710.3452" y1="-18864.3789" x2="2729.3" y2="-18864.3789" gradientTransform="matrix(-0.4287 -0.9035 0.9655 -0.2978 19407.8066 -3194.4355)">
			<stop  offset="0" style="stop-color:#95856A"/>
			<stop  offset="1" style="stop-color:#DFD1B1"/>
		</linearGradient>
		<path style="fill-rule:evenodd;clip-rule:evenodd;fill:url(#SVGID_5_);" d="M24-41.05h-0.05c0.033,0.001,0.074,0.018,0.125,0.05
			L24-41.05z"/>
		
			<linearGradient id="SVGID_6_" gradientUnits="userSpaceOnUse" x1="2725.8408" y1="-18887.4922" x2="2750.4524" y2="-18887.4922" gradientTransform="matrix(-0.4317 -0.902 0.9654 -0.2994 19431.0137 -3218.7734)">
			<stop  offset="0" style="stop-color:#836E0C"/>
			<stop  offset="0.5098" style="stop-color:#B69F44"/>
			<stop  offset="0.6941" style="stop-color:#FCFCEF"/>
			<stop  offset="0.8706" style="stop-color:#F0E8B1"/>
		</linearGradient>
		<path style="fill-rule:evenodd;clip-rule:evenodd;fill:url(#SVGID_6_);" d="M9.4-23.35c2.233-0.5,4.517-1.5,6.85-3
			c-0.181-1.177-0.239-2.327-0.175-3.45c0.007-0.117,0.016-0.234,0.025-0.35c0.433-2.267,1.4-4.5,2.9-6.7
			c1.413-1.628,3.038-2.945,4.875-3.95c0.157-0.086,0.315-0.169,0.475-0.25H24.3C24.233-41.017,24.167-41,24.1-41h-0.025
			c-0.051-0.032-0.092-0.049-0.125-0.05c-0.229,0.088-0.454,0.171-0.675,0.25c-0.194,0.07-0.386,0.137-0.575,0.2
			c-1.267,0.733-2.35,1.617-3.25,2.65c-0.934,0.934-2.067,2.483-3.4,4.65c-0.689,1.254-1.364,2.421-2.025,3.5
			c-1.625,2.675-3.149,4.808-4.575,6.4L9.4-23.35z"/>
		
			<linearGradient id="SVGID_7_" gradientUnits="userSpaceOnUse" x1="2707.1265" y1="-18883.6465" x2="2724.5164" y2="-18883.6465" gradientTransform="matrix(-0.427 -0.9043 0.9649 -0.2985 19389.1953 -3193.4907)">
			<stop  offset="0" style="stop-color:#836E0C"/>
			<stop  offset="0.5098" style="stop-color:#B69F44"/>
			<stop  offset="0.6941" style="stop-color:#FCFCEF"/>
			<stop  offset="0.8706" style="stop-color:#F0E8B1"/>
		</linearGradient>
		<path style="fill-rule:evenodd;clip-rule:evenodd;fill:url(#SVGID_7_);" d="M10.85-6.1c-0.667-0.667-1.133-1.383-1.4-2.15
			C9.383-8.583,9.317-8.967,9.25-9.4c-0.433-2.167-0.267-4.45,0.5-6.85c0.367-1.4,1.033-2.65,2-3.75l0.45-0.65
			c-1.633,1.333-2.65,2.533-3.05,3.6c-0.167,0.966-0.583,2.566-1.25,4.8c-0.167,1.367-0.367,2.6-0.6,3.7
			c-0.267,2.466-0.716,4.633-1.35,6.5L5.9-1.9L5.75-1.75L5.7-1.6C7.467-2.6,9.183-4.1,10.85-6.1z"/>
		
			<linearGradient id="SVGID_8_" gradientUnits="userSpaceOnUse" x1="2730.8135" y1="-18856.6719" x2="2746.9607" y2="-18856.6719" gradientTransform="matrix(-0.4304 -0.9026 0.9655 -0.2986 19421.6211 -3207.5479)">
			<stop  offset="0" style="stop-color:#836E0C"/>
			<stop  offset="0.5098" style="stop-color:#B69F44"/>
			<stop  offset="0.6941" style="stop-color:#FCFCEF"/>
			<stop  offset="0.8706" style="stop-color:#F0E8B1"/>
		</linearGradient>
		<path style="fill-rule:evenodd;clip-rule:evenodd;fill:url(#SVGID_8_);" d="M31.85-37.8c3.867-1.567,7.15-4.9,9.85-10
			c1.066-1.6,1.8-3.45,2.2-5.55c0.3-2.433-0.183-4.233-1.45-5.4c-0.133,0.333-0.367,0.467-0.7,0.4c-0.3,0.167-0.583,0.367-0.85,0.6
			c-1.133,0.933-2.083,2.05-2.85,3.35c-0.667,1.367-1.283,3.183-1.85,5.45c-1.434,4.633-2.733,8.233-3.9,10.8
			C32-38.05,31.85-37.933,31.85-37.8z"/>
		
			<linearGradient id="SVGID_9_" gradientUnits="userSpaceOnUse" x1="2695.6963" y1="-18894.8086" x2="2734.1851" y2="-18894.8086" gradientTransform="matrix(-0.4313 -0.9022 0.9652 -0.2994 19426.8359 -3217.6641)">
			<stop  offset="0" style="stop-color:#836E0C"/>
			<stop  offset="0.5098" style="stop-color:#B69F44"/>
			<stop  offset="0.6941" style="stop-color:#FCFCEF"/>
			<stop  offset="0.8706" style="stop-color:#F0E8B1"/>
		</linearGradient>
		<path style="fill-rule:evenodd;clip-rule:evenodd;fill:url(#SVGID_9_);" d="M17.25-1.725c0.003,0.185,0.053,0.293,0.15,0.325
			c1.133-1.467,1.817-3.317,2.05-5.55c0.167-1.633,0.15-3.6-0.05-5.9c-0.167-1.767-0.683-3.483-1.55-5.15
			c-1-2.067-2.367-3.35-4.1-3.85H13.7c-0.034,0.033-0.067,0.033-0.1,0l-0.05,0.05c0,0.033-0.017,0.066-0.05,0.1l-0.05,0.05
			l0.05,0.15c-0.367,0.8-0.617,1.2-0.75,1.2v0.35c-0.333,1.034-0.45,2.034-0.35,3c0.233,1.267,0.8,3.017,1.7,5.25
			c0.6,1.5,1.15,2.883,1.65,4.15c0.7,2.133,1.15,4,1.35,5.6l0.15,0.2V-1.725z"/>
		
			<linearGradient id="SVGID_10_" gradientUnits="userSpaceOnUse" x1="2706.5757" y1="-18875.8828" x2="2729.7007" y2="-18875.8828" gradientTransform="matrix(-0.4303 -0.9027 0.9658 -0.2979 19422.9492 -3201.2954)">
			<stop  offset="0" style="stop-color:#836E0C"/>
			<stop  offset="0.5098" style="stop-color:#B69F44"/>
			<stop  offset="0.6941" style="stop-color:#FCFCEF"/>
			<stop  offset="0.8706" style="stop-color:#F0E8B1"/>
		</linearGradient>
		<path style="fill-rule:evenodd;clip-rule:evenodd;fill:url(#SVGID_10_);" d="M24.05-40.2v0.1c-0.833,0.9-1.466,2.017-1.9,3.35
			c-0.2,1.067-0.333,2.833-0.4,5.3c-0.009,0.563-0.026,1.113-0.05,1.65c-0.102,3.371-0.369,6.221-0.8,8.55
			c-0.066,0.4-0.083,0.7-0.05,0.9c2.739-2.039,4.813-5.188,6.225-9.45c0.128-0.407,0.253-0.823,0.375-1.25
			c0.7-1.867,0.95-3.784,0.75-5.75c-0.233-1.667-0.784-2.934-1.65-3.8c-0.087-0.068-0.179-0.135-0.275-0.2
			c-0.214-0.159-0.439-0.309-0.675-0.45c-0.067-0.067-0.15-0.117-0.25-0.15v0.1c-0.067,0.033-0.133,0.066-0.2,0.1H25.1
			c-0.167,0.067-0.283,0.117-0.35,0.15l-0.05,0.1c0.066,0,0.117,0.017,0.15,0.05c-0.038,0.034-0.08,0.067-0.125,0.1
			C24.479-40.575,24.253-40.375,24.05-40.2z"/>
		
			<linearGradient id="SVGID_11_" gradientUnits="userSpaceOnUse" x1="2754.8657" y1="-18870.4844" x2="2776.3572" y2="-18870.4844" gradientTransform="matrix(-0.4327 -0.9015 0.9646 -0.3013 19433.2969 -3238.4248)">
			<stop  offset="0" style="stop-color:#836E0C"/>
			<stop  offset="0.5098" style="stop-color:#B69F44"/>
			<stop  offset="0.6941" style="stop-color:#FCFCEF"/>
			<stop  offset="0.8706" style="stop-color:#F0E8B1"/>
		</linearGradient>
		<path style="fill-rule:evenodd;clip-rule:evenodd;fill:url(#SVGID_11_);" d="M41.75-58.7c-0.3,0-0.483,0.083-0.55,0.25l-0.15,0.05
			c-2,0.4-3.833,1.167-5.5,2.3c-0.966,0.934-2.583,2.367-4.85,4.3c-2.7,3.466-5.567,6.367-8.6,8.7l-0.2,0.2
			c-0.167,0.167-0.283,0.267-0.35,0.3c2.5-0.1,4.983-0.9,7.45-2.4c0.333-1.3,0.733-2.55,1.2-3.75c1.1-2.267,2.7-4.283,4.8-6.05
			c2.033-1.833,4.267-3.067,6.7-3.7L41.75-58.7z"/>
		<path style="fill-rule:evenodd;clip-rule:evenodd;fill:#FFF2C3;" d="M24.05-40.2c0.237-0.21,0.42-0.41,0.55-0.6
			c0.039-0.051,0.072-0.101,0.1-0.15l0.05-0.1v-0.1c-0.033,0-0.067,0.033-0.1,0.1c-0.033,0-0.066,0-0.1,0c-0.033,0-0.066,0-0.1,0
			h-0.1c-0.16,0.081-0.318,0.164-0.475,0.25c-1.837,1.005-3.462,2.322-4.875,3.95c-1.5,2.2-2.467,4.434-2.9,6.7
			c-0.009,0.116-0.018,0.233-0.025,0.35c-0.064,1.123-0.006,2.272,0.175,3.45c0,0.567,0.183,1.233,0.55,2
			c0.8,2.267,2.067,3.667,3.8,4.2c0-0.333,0.1-0.7,0.3-1.1c0.432-2.329,0.698-5.179,0.8-8.55c0.024-0.537,0.041-1.087,0.05-1.65
			c0.067-2.466,0.2-4.233,0.4-5.3c0.434-1.333,1.067-2.45,1.9-3.35V-40.2z M5.75-1.75L5.9-1.9l0.05-0.15
			c0.633-1.867,1.083-4.034,1.35-6.5c0.233-1.1,0.434-2.333,0.6-3.7c0.667-2.233,1.083-3.833,1.25-4.8
			c0.4-1.067,1.417-2.267,3.05-3.6L11.75-20c-0.967,1.1-1.633,2.35-2,3.75c-0.767,2.4-0.933,4.683-0.5,6.85
			c0.067,0.433,0.133,0.816,0.2,1.15c0.267,0.767,0.733,1.483,1.4,2.15c0.267,0.667,0.717,1.233,1.35,1.7c1.4,1.8,3.066,2.833,5,3.1
			c0.032-0.097,0.049-0.239,0.05-0.425V-1.75l-0.15-0.2c-0.2-1.6-0.65-3.466-1.35-5.6c-0.5-1.267-1.05-2.65-1.65-4.15
			c-0.9-2.233-1.467-3.983-1.7-5.25c-0.1-0.966,0.017-1.966,0.35-3v-0.35c0.133,0,0.383-0.4,0.75-1.2l-0.05-0.15v-0.1
			c-3.067,1.133-5.483,2.6-7.25,4.4c-2.067,1.733-3.4,3.7-4,5.9c-0.167,0.667-0.25,1.367-0.25,2.1C1.883-8.15,1.967-6.967,2.2-5.8
			c0.533,2.133,1.65,3.55,3.35,4.25L5.75-1.75z M22.7-40.6c0.14-0.065,0.29-0.132,0.45-0.2c0.424-0.175,0.924-0.358,1.5-0.55
			c-1.002,0.113-2.002,0.296-3,0.55c-1.656,0.421-3.306,1.038-4.95,1.85c-2.7,1.467-4.917,3.2-6.65,5.2
			c-0.913,1.273-1.58,2.59-2,3.95c-0.173,0.527-0.307,1.06-0.4,1.6c-0.333,2.333,0.167,3.983,1.5,4.95c0.133,0.033,0.217,0,0.25-0.1
			l0.05-0.05c1.425-1.592,2.95-3.725,4.575-6.4c0.661-1.079,1.335-2.246,2.025-3.5c1.333-2.167,2.467-3.717,3.4-4.65
			C20.35-38.983,21.433-39.867,22.7-40.6z M12.2-20.2c-0.067,0.267-0.15,0.684-0.25,1.25c0.033-0.6,0.083-1.017,0.15-1.25H12.2z
			 M41.7-58.5c-2.434,0.633-4.667,1.867-6.7,3.7c-2.1,1.767-3.7,3.783-4.8,6.05c-0.467,1.2-0.867,2.45-1.2,3.75
			c0.1,0.867,0.183,1.65,0.25,2.35c0.029,0.678,0.12,1.295,0.275,1.85c0.302,1.083,0.844,1.934,1.625,2.55
			c0.215,0.167,0.449,0.317,0.7,0.45c0-0.133,0.15-0.25,0.45-0.35c1.167-2.567,2.467-6.167,3.9-10.8
			c0.566-2.267,1.183-4.083,1.85-5.45c0.767-1.3,1.717-2.417,2.85-3.35c0.267-0.233,0.55-0.433,0.85-0.6
			c0.1-0.133,0.25-0.25,0.45-0.35C41.967-58.6,41.8-58.533,41.7-58.5z M21.9-42.9l0.2-0.2c3.033-2.333,5.9-5.233,8.6-8.7
			c2.267-1.934,3.883-3.367,4.85-4.3c1.667-1.133,3.5-1.9,5.5-2.3l0.15-0.05c0.066-0.167,0.25-0.25,0.55-0.25
			c-3-0.133-5.9,0.25-8.7,1.15c-3.033,0.966-5.65,2.35-7.85,4.15c-1.8,1.7-3.133,3.467-4,5.3c-1.067,2.167-1,3.934,0.2,5.3
			C21.433-42.833,21.6-42.867,21.9-42.9z"/>
		<path style="fill-rule:evenodd;clip-rule:evenodd;fill:#6E6200;" d="M21.55-19h0.1l0.4-0.3c3.158-2.274,5.508-5.774,7.05-10.5
			c0.086-0.263,0.169-0.53,0.25-0.8c0.5-2.033,0.733-4.217,0.7-6.55l0.7,0.55c0.129,0.073,0.263,0.14,0.4,0.2
			c0.429,0.159,0.895,0.225,1.4,0.2l-0.05-0.1l0.45-0.2c3.9-1.833,7.35-5.333,10.35-10.5c1.267-2.233,2.067-4.367,2.4-6.4
			c0.233-2.7-0.417-4.833-1.95-6.4c-0.633-0.267-1.3-0.4-2-0.4l-0.1,0.2c-2.867-0.2-5.9,0.15-9.1,1.05
			c-3.367,1.067-6.25,2.583-8.65,4.55c-2,1.633-3.433,3.55-4.3,5.75c-1.333,2.6-1.333,4.816,0,6.65l0.25,0.05
			c-1.116,0.331-2.174,0.714-3.175,1.15c-3.332,1.451-6.023,3.485-8.075,6.1c-1.251,1.578-2.118,3.211-2.6,4.9
			c-0.099,0.38-0.183,0.764-0.25,1.15c-0.367,2.8,0.35,4.933,2.15,6.4c0.233,0.3,0.767,0.45,1.6,0.45H10
			c-4.767,2.2-7.933,5.5-9.5,9.9c-0.133,0.833-0.267,1.633-0.4,2.4c-0.2,1.3-0.067,2.517,0.4,3.65C1-3.217,2.35-1.383,4.55-0.35
			c0.633,0.2,1.167,0.217,1.6,0.05h0.3l0.3-0.3c1.2-0.5,2.4-1.5,3.6-3c2.066,2.2,4.333,3.4,6.8,3.6l0.8-0.2l0.8-0.5
			c1.3-1.767,2.133-3.8,2.5-6.1c0.133-1.767,0.067-3.767-0.2-6c0-2.267-0.566-4.417-1.7-6.45l0.7,0.35
			c0.167,0.2,0.65,0.217,1.45,0.05L21.55-19z M16.25-26.35c-2.333,1.5-4.617,2.5-6.85,3c-0.033,0.1-0.117,0.133-0.25,0.1
			c-1.333-0.967-1.833-2.617-1.5-4.95c0.093-0.54,0.227-1.073,0.4-1.6c0.42-1.36,1.087-2.677,2-3.95c1.733-2,3.95-3.733,6.65-5.2
			c1.644-0.812,3.293-1.428,4.95-1.85c0.998-0.254,1.998-0.438,3-0.55c-0.576,0.192-1.076,0.375-1.5,0.55
			c-0.16,0.068-0.31,0.134-0.45,0.2c0.188-0.063,0.38-0.129,0.575-0.2c0.221-0.079,0.446-0.162,0.675-0.25H24
			c0.167-0.067,0.367-0.117,0.6-0.15l0.15,0.05v0.1c0.067-0.034,0.183-0.083,0.35-0.15h0.05c0.067-0.033,0.133-0.066,0.2-0.1v-0.1
			c0.1,0.033,0.183,0.083,0.25,0.15c0.236,0.142,0.461,0.292,0.675,0.45c0.096,0.065,0.188,0.132,0.275,0.2
			c0.867,0.867,1.417,2.133,1.65,3.8c0.2,1.966-0.05,3.883-0.75,5.75c-0.122,0.427-0.247,0.843-0.375,1.25
			c-1.412,4.261-3.486,7.411-6.225,9.45c-0.033-0.2-0.017-0.5,0.05-0.9c-0.2,0.4-0.3,0.767-0.3,1.1c-1.733-0.533-3-1.934-3.8-4.2
			C16.433-25.117,16.25-25.783,16.25-26.35z M13.45-21.65l0.05-0.05c0.033-0.033,0.05-0.066,0.05-0.1l0.05-0.05
			c0.033,0.033,0.066,0.033,0.1,0h0.05c1.733,0.5,3.1,1.783,4.1,3.85c0.867,1.667,1.383,3.383,1.55,5.15
			c0.2,2.3,0.217,4.267,0.05,5.9c-0.233,2.233-0.917,4.083-2.05,5.55c-0.097-0.032-0.147-0.141-0.15-0.325
			C17.249-1.539,17.232-1.397,17.2-1.3c-1.934-0.267-3.6-1.3-5-3.1c-0.633-0.467-1.083-1.033-1.35-1.7c-1.667,2-3.383,3.5-5.15,4.5
			l0.05-0.15l-0.2,0.2C3.85-2.25,2.733-3.667,2.2-5.8C1.967-6.967,1.883-8.15,1.95-9.35c0-0.733,0.083-1.433,0.25-2.1
			c0.6-2.2,1.933-4.167,4-5.9c1.767-1.8,4.183-3.267,7.25-4.4V-21.65z M41.75-58.35c0.333,0.067,0.567-0.066,0.7-0.4
			c1.267,1.167,1.75,2.967,1.45,5.4c-0.4,2.1-1.133,3.95-2.2,5.55c-2.7,5.1-5.983,8.433-9.85,10c-0.251-0.133-0.485-0.284-0.7-0.45
			c-0.781-0.616-1.323-1.466-1.625-2.55c-0.155-0.555-0.246-1.172-0.275-1.85C29.183-43.35,29.1-44.133,29-45
			c-2.467,1.5-4.95,2.3-7.45,2.4c0.067-0.033,0.184-0.133,0.35-0.3c-0.3,0.033-0.467,0.066-0.5,0.1c-1.2-1.367-1.267-3.133-0.2-5.3
			c0.867-1.833,2.2-3.6,4-5.3c2.2-1.8,4.816-3.184,7.85-4.15c2.8-0.9,5.7-1.284,8.7-1.15l-0.05,0.2c0.1-0.033,0.267-0.1,0.5-0.2
			C42-58.6,41.85-58.483,41.75-58.35z"/>
	</g>
</symbol>
<symbol  id="SIDE_x5F_DECOR_x5F_GORDON" viewBox="0.01 -60.2 177.48 60.2">
	<g id="Layer_1_20_">
		<use xlink:href="#SIDE_x5F_DECOR_x5F_05"  width="45.736" height="60.2" x="0.01" y="-60.2" style="overflow:visible;"/>
		
			<use xlink:href="#SIDE_x5F_DECOR_x5F_05"  width="45.736" height="60.2" x="0.01" y="-60.2" transform="matrix(-1 0 0 1 177.5 0)" style="overflow:visible;"/>
	</g>
</symbol>
<symbol  id="feat_x5F_3" viewBox="0.01 -71.6 177.48 71.6">
	<g id="Layer_1_21_">
		<g>
			<use xlink:href="#SIDE_x5F_DECOR_x5F_GORDON"  width="177.48" height="60.2" x="0.01" y="-60.2" style="overflow:visible;"/>
			<g>
				<path style="fill-rule:evenodd;clip-rule:evenodd;fill:#6E6200;" d="M133.1-22.95c0.2,0,0.383-0.083,0.55-0.25
					c0.133-0.133,0.2-0.3,0.2-0.5c0-4.867,2.1-7.633,6.3-8.3c0.633-0.1,1.35-0.15,2.15-0.15c0.2,0,0.383-0.083,0.55-0.25
					c0.133-0.133,0.2-0.3,0.2-0.5v-28.75c0-0.2-0.066-0.383-0.2-0.55c-0.167-0.133-0.35-0.2-0.55-0.2c-0.8,0-1.533-0.05-2.2-0.15
					c-4.167-0.667-6.25-3.434-6.25-8.3c0-0.2-0.067-0.383-0.2-0.55c-0.167-0.133-0.35-0.2-0.55-0.2H46.65
					c-0.2,0-0.367,0.067-0.5,0.2c-0.167,0.167-0.25,0.35-0.25,0.55c0,5.633-2.8,8.45-8.4,8.45c-0.2,0-0.367,0.066-0.5,0.2
					c-0.167,0.167-0.25,0.35-0.25,0.55v28.75c0,0.2,0.083,0.367,0.25,0.5c0.133,0.167,0.3,0.25,0.5,0.25c5.6,0,8.4,2.816,8.4,8.45
					c0,0.2,0.083,0.367,0.25,0.5c0.133,0.167,0.3,0.25,0.5,0.25H133.1z M141.55-33.65c-0.6,0.033-1.15,0.083-1.65,0.15
					c-4.8,0.7-7.3,3.717-7.5,9.05h-85c-0.233-5.9-3.283-8.966-9.15-9.2v-27.3c5.867-0.2,8.917-3.25,9.15-9.15h85
					c0.2,5.333,2.7,8.35,7.5,9.05c0.5,0.066,1.05,0.117,1.65,0.15V-33.65z"/>
				<linearGradient id="SVGID_12_" gradientUnits="userSpaceOnUse" x1="90.106" y1="-220.7803" x2="89.8829" y2="74.6947">
					<stop  offset="0" style="stop-color:#836E0C"/>
					<stop  offset="0.5098" style="stop-color:#B69F44"/>
					<stop  offset="0.6941" style="stop-color:#FCFCEF"/>
					<stop  offset="0.8706" style="stop-color:#F0E8B1"/>
				</linearGradient>
				<path style="fill-rule:evenodd;clip-rule:evenodd;fill:url(#SVGID_12_);" d="M129.2-28.8c0-4.267,2.083-6.684,6.25-7.25
					c0.633-0.067,1.316-0.1,2.05-0.1V-59.2c-0.733,0-1.417-0.033-2.05-0.1c-4.167-0.567-6.25-3-6.25-7.3H50.75
					c0,4.934-2.767,7.4-8.3,7.4v23.05c5.533,0,8.3,2.45,8.3,7.35H129.2z"/>
				
					<linearGradient id="SVGID_13_" gradientUnits="userSpaceOnUse" x1="-920.6357" y1="-16361.7822" x2="-890.8472" y2="-16361.7822" gradientTransform="matrix(-0.0302 -0.9995 1.004 0.1167 16489.2383 944.4971)">
					<stop  offset="0" style="stop-color:#836E0C"/>
					<stop  offset="0.5098" style="stop-color:#B69F44"/>
					<stop  offset="0.6941" style="stop-color:#FCFCEF"/>
					<stop  offset="0.8706" style="stop-color:#F0E8B1"/>
				</linearGradient>
				<path style="fill-rule:evenodd;clip-rule:evenodd;fill:url(#SVGID_13_);" d="M129.2-28.8H50.75c0-4.9-2.767-7.35-8.3-7.35V-59.2
					c5.533,0,8.3-2.466,8.3-7.4h78.45c0,4.3,2.083,6.733,6.25,7.3c0.633,0.066,1.316,0.1,2.05,0.1v23.05
					c-0.733,0-1.417,0.033-2.05,0.1C131.283-35.483,129.2-33.067,129.2-28.8z M130.15-27.2c0-4.6,2.15-7.2,6.45-7.8
					c0.633-0.067,1.333-0.1,2.1-0.1v-24.75c-0.767,0-1.467-0.033-2.1-0.1c-4.3-0.6-6.45-3.2-6.45-7.8H49.8
					c0,5.267-2.833,7.9-8.5,7.9v24.75c5.667,0,8.5,2.633,8.5,7.9H130.15z"/>
				<path style="fill-rule:evenodd;clip-rule:evenodd;fill:#FFF2C3;" d="M130.15-27.2H49.8c0-5.267-2.833-7.9-8.5-7.9v-24.75
					c5.667,0,8.5-2.633,8.5-7.9h80.35c0,4.6,2.15,7.2,6.45,7.8c0.633,0.067,1.333,0.1,2.1,0.1v24.75c-0.767,0-1.467,0.033-2.1,0.1
					C132.3-34.4,130.15-31.8,130.15-27.2z M141.55-33.65V-60.9c-0.6-0.033-1.15-0.083-1.65-0.15c-4.8-0.7-7.3-3.717-7.5-9.05h-85
					c-0.233,5.9-3.283,8.95-9.15,9.15v27.3c5.867,0.233,8.917,3.3,9.15,9.2h85c0.2-5.333,2.7-8.35,7.5-9.05
					C140.4-33.567,140.95-33.617,141.55-33.65z"/>
			</g>
			<g>
				<g>
					<path style="fill-rule:evenodd;clip-rule:evenodd;fill-opacity:0.251;" d="M52.95-37.05c0.767,0.6,1.633,0.9,2.6,0.9H65
						c1.1,0,2.033-0.317,2.8-0.95c0.667-0.667,1-1.5,1-2.5c0-1.167-0.316-1.983-0.95-2.45c-0.233-0.233-0.5-0.45-0.8-0.65
						c-0.466-0.2-1.083-0.316-1.85-0.35h-6.05v-3.85h5.05c1.133,0,2.066-0.317,2.8-0.95c0.633-0.533,0.95-1.367,0.95-2.5
						c0-1-0.3-1.833-0.9-2.5c-0.033,0-0.05-0.017-0.05-0.05c-0.1-0.067-0.217-0.133-0.35-0.2c-0.633-0.433-1.383-0.667-2.25-0.7
						h-5.25v-7.3c0-0.733-0.117-1.367-0.35-1.9c-0.167-0.333-0.367-0.633-0.6-0.9h0.05c-0.533-0.567-1.25-0.9-2.15-1
						c-0.167,0-0.35,0-0.55,0c-1.1,0-1.966,0.316-2.6,0.95L52.9-63.9c-0.767,0.6-1.15,1.533-1.15,2.8v21.15
						c0,1.133,0.383,2.083,1.15,2.85C52.9-37.067,52.917-37.05,52.95-37.05z M97.8-52.5h5.1l-2.4,7.8L97.8-52.5z M83.4-36.15
						c1.133,0,2.067-0.317,2.8-0.95c0.667-0.667,1-1.5,1-2.5c0-1.167-0.317-1.983-0.95-2.45c-0.1-0.133-0.217-0.25-0.35-0.35
						c-0.6-0.434-1.433-0.65-2.5-0.65h-5.85v-3.85h5.35c1.133,0,2.033-0.317,2.7-0.95c0.633-0.633,0.95-1.467,0.95-2.5
						c0-1-0.3-1.833-0.9-2.5L85.6-52.9c-0.067-0.067-0.167-0.133-0.3-0.2c-0.633-0.467-1.433-0.7-2.4-0.7h-5.35v-4h6.2
						c1.167,0,2.067-0.333,2.7-1H86.4c0.633-0.633,0.95-1.45,0.95-2.45c0-1.033-0.317-1.867-0.95-2.5h0.05
						C86.283-63.883,86.133-64,86-64.1c-0.6-0.433-1.35-0.65-2.25-0.65h-9.8c-1.034,0-1.9,0.317-2.6,0.95
						c-0.767,0.633-1.15,1.533-1.15,2.7v21.15c0,1.133,0.367,2.083,1.1,2.85h0.05c0.7,0.633,1.566,0.95,2.6,0.95H83.4z M98.1-36.05
						c0.6,0.333,1.333,0.5,2.2,0.5c0.967,0,1.75-0.184,2.35-0.55c0.367-0.167,0.7-0.4,1-0.7c0.2-0.233,0.4-0.467,0.6-0.7
						c0.367-0.467,0.717-1.117,1.05-1.95l6.95-18.4c0.5-1.733,0.75-3.083,0.75-4.05c0-0.733-0.183-1.35-0.55-1.85
						c-0.133-0.1-0.267-0.217-0.4-0.35H112c-0.6-0.533-1.4-0.8-2.4-0.8c-1.167,0-2.05,0.333-2.65,1c-0.067,0-0.1,0.017-0.1,0.05
						c-0.3,0.467-0.684,1.25-1.15,2.35v0.05l-0.65,2H95.7l-0.65-2.05v0.05c-0.3-1.033-0.667-1.8-1.1-2.3
						c-0.067-0.067-0.117-0.117-0.15-0.15l-0.05-0.05c-0.633-0.633-1.45-0.95-2.45-0.95c-1.133,0-2,0.267-2.6,0.8
						c-0.7,0.5-1.05,1.233-1.05,2.2s0.333,2.316,1,4.05l6,16.2c0.733,2.1,1.333,3.467,1.8,4.1c0,0.033,0.017,0.05,0.05,0.05
						c0.433,0.6,0.95,1.067,1.55,1.4C98.05-36.067,98.067-36.05,98.1-36.05z M130.7-39.6c0-1-0.317-1.816-0.95-2.45l-0.05-0.05
						c-0.367-0.4-0.833-0.667-1.4-0.8c-0.4-0.1-0.867-0.15-1.4-0.15h-2.95V-61.1c0-1.267-0.317-2.2-0.95-2.8v-0.05
						c-0.433-0.333-0.9-0.6-1.4-0.8c-0.4-0.1-0.817-0.15-1.25-0.15c-1.133,0-2,0.316-2.6,0.95c-0.033,0-0.05,0.017-0.05,0.05
						c-0.733,0.633-1.1,1.566-1.1,2.8v18.05h-2.95c-1.133,0-2.066,0.316-2.8,0.95l-0.05,0.05c-0.633,0.633-0.95,1.45-0.95,2.45
						s0.316,1.833,0.95,2.5c0,0.033,0.017,0.05,0.05,0.05c0.733,0.6,1.667,0.9,2.8,0.9h13.25c1.267,0,2.2-0.317,2.8-0.95
						c0.5-0.467,0.816-1.05,0.95-1.75C130.683-39.05,130.7-39.3,130.7-39.6z"/>
				</g>
				<g>
					<path style="fill-rule:evenodd;clip-rule:evenodd;fill:#6E6200;" d="M127-33.4c1.267,0,2.2-0.317,2.8-0.95
						c0.5-0.467,0.817-1.05,0.95-1.75c0.033-0.2,0.05-0.45,0.05-0.75c0-1-0.316-1.816-0.95-2.45l-0.05-0.05
						c-0.367-0.4-0.833-0.667-1.4-0.8c-0.4-0.1-0.867-0.15-1.4-0.15h-2.95v-18.05c0-1.267-0.316-2.2-0.95-2.8v-0.05
						c-0.434-0.333-0.9-0.6-1.4-0.8c-0.4-0.1-0.817-0.15-1.25-0.15c-1.133,0-2,0.316-2.6,0.95c-0.033,0-0.05,0.017-0.05,0.05
						c-0.733,0.633-1.1,1.566-1.1,2.8v18.05h-2.95c-1.133,0-2.067,0.316-2.8,0.95l-0.05,0.05c-0.633,0.633-0.95,1.45-0.95,2.45
						s0.316,1.833,0.95,2.5c0,0.033,0.017,0.05,0.05,0.05c0.733,0.6,1.667,0.9,2.8,0.9H127z M113.15-39.2c0.2,0,0.4,0,0.6,0h3.5
						c0.133,0,0.267-0.05,0.4-0.15c0.1-0.133,0.15-0.267,0.15-0.4v-0.4v-18.2c0-0.9,0.267-1.566,0.8-2h0.05
						c0.333-0.367,0.8-0.6,1.4-0.7c0.1,0,0.233,0,0.4,0c0.7,0,1.316,0.233,1.85,0.7h0.1c0.367,0.434,0.55,1.1,0.55,2v18.6
						c0,0.133,0.05,0.267,0.15,0.4c0.1,0.1,0.233,0.15,0.4,0.15h3.5c0.9,0,1.567,0.217,2,0.65c0.467,0.466,0.7,1.033,0.7,1.7
						c0,0.5-0.117,0.95-0.35,1.35c-0.1,0.133-0.217,0.25-0.35,0.35c-0.433,0.433-1.1,0.65-2,0.65h-13.25
						c-0.8,0-1.483-0.217-2.05-0.65c-0.434-0.434-0.65-1-0.65-1.7c0-0.667,0.2-1.233,0.6-1.7C112.05-38.883,112.55-39.1,113.15-39.2
						z M98.2-33.3c0.6,0.333,1.333,0.5,2.2,0.5c0.967,0,1.75-0.184,2.35-0.55c0.367-0.167,0.7-0.4,1-0.7
						c0.2-0.233,0.4-0.467,0.6-0.7c0.367-0.467,0.717-1.117,1.05-1.95l6.95-18.4c0.5-1.733,0.75-3.083,0.75-4.05
						c0-0.733-0.184-1.35-0.55-1.85c-0.133-0.1-0.267-0.217-0.4-0.35h-0.05c-0.6-0.533-1.4-0.8-2.4-0.8c-1.167,0-2.05,0.333-2.65,1
						c-0.066,0-0.1,0.017-0.1,0.05c-0.3,0.467-0.684,1.25-1.15,2.35v0.05l-0.65,2H95.8l-0.65-2.05v0.05
						c-0.3-1.033-0.667-1.8-1.1-2.3c-0.066-0.067-0.117-0.117-0.15-0.15l-0.05-0.05c-0.633-0.633-1.45-0.95-2.45-0.95
						c-1.133,0-2,0.267-2.6,0.8c-0.7,0.5-1.05,1.233-1.05,2.2s0.333,2.316,1,4.05l6,16.2c0.733,2.1,1.333,3.467,1.8,4.1
						c0,0.033,0.017,0.05,0.05,0.05c0.433,0.6,0.95,1.067,1.55,1.4C98.15-33.317,98.167-33.3,98.2-33.3z M92.3-60.85
						c0.3,0.1,0.55,0.267,0.75,0.5c0.4,0.367,0.733,1.017,1,1.95v0.05l0.85,2.4c0.033,0.1,0.117,0.2,0.25,0.3
						c0.067,0.066,0.15,0.1,0.25,0.1h10.15c0.104-0.002,0.203-0.036,0.3-0.1c0.1-0.1,0.183-0.2,0.25-0.3l0.75-2.4
						c0.4-1,0.733-1.683,1-2.05c0.467-0.434,1.083-0.65,1.85-0.65c0.367,0,0.716,0.05,1.05,0.15c0.233,0.1,0.467,0.217,0.7,0.35
						v0.05c0.367,0.3,0.55,0.75,0.55,1.35c0,0.9-0.25,2.133-0.75,3.7v-0.05l-6.9,18.4c-0.3,0.733-0.6,1.3-0.9,1.7
						c-0.367,0.433-0.8,0.8-1.3,1.1c-0.167,0.133-0.383,0.233-0.65,0.3c-0.333,0.067-0.7,0.1-1.1,0.1c-0.633,0-1.183-0.133-1.65-0.4
						c-0.467-0.267-0.883-0.633-1.25-1.1c-0.433-0.6-1-1.9-1.7-3.9l-5.95-16.2c-0.633-1.533-0.95-2.75-0.95-3.65
						c0-0.6,0.2-1.05,0.6-1.35l0.05-0.05c0.4-0.333,1.017-0.5,1.85-0.5C91.733-61.05,92.033-60.983,92.3-60.85z M73.1-60.7
						c0.3-0.1,0.617-0.15,0.95-0.15h9.8c0.8,0,1.417,0.217,1.85,0.65c0.367,0.4,0.566,0.917,0.6,1.55c0,0.033,0,0.083,0,0.15
						c0,0.7-0.2,1.25-0.6,1.65c-0.434,0.434-1.05,0.65-1.85,0.65h-6.3H77.1c-0.133,0-0.267,0.067-0.4,0.2
						c-0.1,0.1-0.15,0.233-0.15,0.4v5.1c0,0.167,0.05,0.3,0.15,0.4c0.133,0.133,0.267,0.2,0.4,0.2H83c0.8,0,1.433,0.2,1.9,0.6
						c0.434,0.466,0.65,1.033,0.65,1.7c0,0.733-0.216,1.3-0.65,1.7v-0.05c-0.433,0.434-1.066,0.65-1.9,0.65h-5.45H77.1
						c-0.133,0-0.267,0.066-0.4,0.2c-0.1,0.1-0.15,0.217-0.15,0.35v5c0,0.133,0.05,0.267,0.15,0.4c0.133,0.1,0.267,0.15,0.4,0.15
						h6.4c0.9,0,1.583,0.217,2.05,0.65c0,0.033,0.017,0.05,0.05,0.05c0.367,0.3,0.566,0.783,0.6,1.45c0,0.1,0,0.167,0,0.2
						c0,0.667-0.2,1.217-0.6,1.65l-0.05,0.05c-0.533,0.433-1.216,0.65-2.05,0.65h-9.45c-0.7,0-1.3-0.217-1.8-0.65
						c0-0.033-0.017-0.05-0.05-0.05c-0.534-0.533-0.8-1.2-0.8-2v-21.15c0-0.8,0.267-1.417,0.8-1.85
						C72.467-60.433,72.767-60.6,73.1-60.7z M86.3-34.35c0.667-0.667,1-1.5,1-2.5c0-1.167-0.316-1.983-0.95-2.45
						c-0.1-0.133-0.217-0.25-0.35-0.35c-0.6-0.434-1.433-0.65-2.5-0.65h-5.85v-3.85H83c1.133,0,2.033-0.317,2.7-0.95
						c0.633-0.633,0.95-1.467,0.95-2.5c0-1-0.3-1.833-0.9-2.5l-0.05-0.05c-0.067-0.067-0.167-0.133-0.3-0.2
						c-0.633-0.467-1.433-0.7-2.4-0.7h-5.35v-4h6.2c1.167,0,2.066-0.333,2.7-1H86.5c0.633-0.633,0.95-1.45,0.95-2.45
						c0-1.033-0.317-1.867-0.95-2.5h0.05c-0.167-0.133-0.316-0.25-0.45-0.35C85.5-61.783,84.75-62,83.85-62h-9.8
						c-1.033,0-1.9,0.317-2.6,0.95c-0.767,0.633-1.15,1.533-1.15,2.7v21.15c0,1.133,0.367,2.083,1.1,2.85h0.05
						c0.7,0.633,1.566,0.95,2.6,0.95h9.45C84.633-33.4,85.567-33.717,86.3-34.35z M102-42.55l2.3-7.6c0-0.1,0-0.217,0-0.35
						c-0.033-0.1-0.117-0.183-0.25-0.25c-0.1-0.067-0.2-0.1-0.3-0.1h-6.6c-0.1,0-0.2,0.017-0.3,0.05c0,0.033-0.017,0.05-0.05,0.05
						c-0.1,0.067-0.15,0.15-0.15,0.25c-0.066,0.133-0.066,0.25,0,0.35l3.4,9.95c0,0.1,0.05,0.184,0.15,0.25
						c0.133,0.1,0.25,0.15,0.35,0.15h0.15c0.033,0,0.083,0,0.15,0c0.033,0,0.066-0.017,0.1-0.05c0.033,0,0.066-0.033,0.1-0.1
						c0.1-0.066,0.167-0.15,0.2-0.25L102-42.55z M53-34.35c0,0.033,0.017,0.05,0.05,0.05c0.767,0.6,1.633,0.9,2.6,0.9h9.45
						c1.1,0,2.033-0.317,2.8-0.95c0.667-0.667,1-1.5,1-2.5c0-1.167-0.316-1.983-0.95-2.45c-0.233-0.233-0.5-0.45-0.8-0.65
						c-0.467-0.2-1.083-0.316-1.85-0.35h-6.05v-3.85h5.05c1.133,0,2.067-0.317,2.8-0.95c0.633-0.533,0.95-1.367,0.95-2.5
						c0-1-0.3-1.833-0.9-2.5c-0.033,0-0.05-0.017-0.05-0.05c-0.1-0.067-0.217-0.133-0.35-0.2c-0.633-0.433-1.383-0.667-2.25-0.7
						h-5.25v-7.3c0-0.733-0.117-1.367-0.35-1.9c-0.167-0.333-0.367-0.633-0.6-0.9h0.05c-0.533-0.567-1.25-0.9-2.15-1
						c-0.167,0-0.35,0-0.55,0c-1.1,0-1.967,0.316-2.6,0.95L53-61.15c-0.767,0.6-1.15,1.533-1.15,2.8v21.15
						C51.85-36.067,52.233-35.117,53-34.35z M97.9-49.75h5.1l-2.4,7.8L97.9-49.75z M54.3-60.75c0.4-0.2,0.85-0.3,1.35-0.3
						c0.8,0,1.417,0.233,1.85,0.7c0.4,0.434,0.6,1.1,0.6,2v7.85c0,0.167,0.066,0.3,0.2,0.4c0.1,0.133,0.217,0.2,0.35,0.2h5.65
						c0.833,0,1.534,0.2,2.1,0.6h-0.1c0.434,0.433,0.65,1,0.65,1.7c0,0.133,0,0.233,0,0.3c-0.067,0.6-0.25,1.05-0.55,1.35
						c-0.566,0.434-1.267,0.65-2.1,0.65h-5.35h-0.3c-0.133,0-0.25,0.066-0.35,0.2c-0.133,0.1-0.2,0.217-0.2,0.35v5
						c0,0.133,0.066,0.267,0.2,0.4c0.1,0.1,0.217,0.15,0.35,0.15h6.45c0.9,0,1.566,0.217,2,0.65c0,0.033,0.017,0.05,0.05,0.05
						c0.4,0.333,0.6,0.883,0.6,1.65c0,0.033,0,0.067,0,0.1c-0.033,0.633-0.233,1.15-0.6,1.55l-0.05,0.05
						c-0.533,0.433-1.2,0.65-2,0.65h-9.45c-0.7,0-1.316-0.217-1.85-0.65c-0.533-0.533-0.8-1.217-0.8-2.05v-21.15
						c0-0.9,0.25-1.566,0.75-2C53.917-60.517,54.1-60.65,54.3-60.75z"/>
					<path style="fill-rule:evenodd;clip-rule:evenodd;fill:#FFECA2;" d="M117.8-40.15v0.4c0,0.133-0.05,0.267-0.15,0.4
						c-0.133,0.1-0.267,0.15-0.4,0.15h-3.5c-0.2,0-0.4,0-0.6,0c-0.233,0.4-0.35,0.867-0.35,1.4c0,0.7,0.217,1.267,0.65,1.7
						c0.566,0.434,1.233,0.65,2,0.65h13.3c0.167,0,0.367-0.017,0.6-0.05c0.233-0.4,0.35-0.85,0.35-1.35c0-0.667-0.233-1.233-0.7-1.7
						c-0.433-0.434-1.1-0.65-2-0.65h-3.5c-0.167,0-0.3-0.05-0.4-0.15c-0.1-0.133-0.15-0.267-0.15-0.4v-18.6
						c0-0.9-0.184-1.566-0.55-2h-0.1c-0.533-0.467-1.15-0.7-1.85-0.7c-0.167,0-0.3,0-0.4,0c-0.333,0.466-0.5,1.05-0.5,1.75v18.6
						c0,0.133-0.066,0.267-0.2,0.4c-0.1,0.1-0.233,0.15-0.4,0.15H117.8z M110.75-60.9c-0.333,0.1-0.6,0.267-0.8,0.5
						c-0.267,0.367-0.617,1.05-1.05,2.05l-0.75,2.4c-0.033,0.1-0.117,0.2-0.25,0.3c-0.1,0.066-0.2,0.1-0.3,0.1h-2.05H95.4
						c-0.1,0-0.183-0.034-0.25-0.1c-0.133-0.1-0.217-0.2-0.25-0.3l-0.85-2.4v-0.05c-0.267-0.934-0.6-1.583-1-1.95
						c-0.2-0.233-0.45-0.4-0.75-0.5c-0.267,0.067-0.5,0.167-0.7,0.3l-0.05,0.05c-0.4,0.3-0.6,0.75-0.6,1.35
						c0,0.9,0.316,2.117,0.95,3.65l5.95,16.2c0.733,2,1.3,3.3,1.7,3.9c0.367,0.467,0.8,0.833,1.3,1.1
						c0.2,0.133,0.417,0.233,0.65,0.3c0.267-0.067,0.483-0.167,0.65-0.3c0.5-0.3,0.934-0.667,1.3-1.1c0.3-0.4,0.6-0.967,0.9-1.7
						l6.9-18.4v0.05c0.5-1.566,0.75-2.8,0.75-3.7c0-0.6-0.183-1.05-0.55-1.35v-0.05C111.217-60.683,110.983-60.8,110.75-60.9z
						 M96.85-50.8c0.667-0.934,1.05-1.467,1.15-1.6c0-0.1,0.05-0.184,0.15-0.25c0.1-0.067,0.217-0.1,0.35-0.1h6.55
						c0.133,0,0.25,0.033,0.35,0.1c0.1,0.066,0.184,0.15,0.25,0.25c0,0.133,0,0.25,0,0.35l-3.65,9.5l-0.75,2.35
						c-0.033,0.1-0.1,0.184-0.2,0.25c-0.033,0.067-0.066,0.1-0.1,0.1c-0.034,0.033-0.067,0.05-0.1,0.05c-0.067,0-0.117,0-0.15,0
						h-0.15c-0.1,0-0.216-0.05-0.35-0.15c-0.1-0.066-0.15-0.15-0.15-0.25l-3.4-9.95c-0.066-0.1-0.066-0.217,0-0.35
						c0-0.1,0.05-0.183,0.15-0.25C96.833-50.75,96.85-50.767,96.85-50.8z M77.55-56.2v-0.7c0-0.167,0.05-0.3,0.15-0.4
						c0.133-0.1,0.25-0.15,0.35-0.15h6.2c0.733,0,1.317-0.233,1.75-0.7c0.133-0.133,0.233-0.3,0.3-0.5
						c-0.033-0.633-0.233-1.15-0.6-1.55c-0.434-0.433-1.05-0.65-1.85-0.65h-9.8c-0.333,0-0.65,0.05-0.95,0.15
						c-0.167,0.3-0.25,0.65-0.25,1.05v21.15c0,0.833,0.25,1.533,0.75,2.1v-0.05c0.433,0.434,0.983,0.65,1.65,0.65h8.7
						c0.767,0,1.383-0.2,1.85-0.6l0.05-0.05c0.167-0.167,0.283-0.367,0.35-0.6c-0.034-0.667-0.233-1.15-0.6-1.45
						c-0.033,0-0.05-0.017-0.05-0.05c-0.466-0.434-1.15-0.65-2.05-0.65h-6.4c-0.133,0-0.267-0.05-0.4-0.15
						c-0.1-0.133-0.15-0.267-0.15-0.4v-5c0-0.133,0.05-0.25,0.15-0.35c0.133-0.133,0.267-0.2,0.4-0.2h0.45V-46
						c0-0.167,0.05-0.3,0.15-0.4c0.133-0.1,0.25-0.15,0.35-0.15h5.45c0.767,0,1.35-0.233,1.75-0.7v0.05c0.1-0.1,0.2-0.233,0.3-0.4
						c0-0.667-0.216-1.233-0.65-1.7c-0.467-0.4-1.1-0.6-1.9-0.6h-5.9c-0.133,0-0.267-0.067-0.4-0.2c-0.1-0.1-0.15-0.233-0.15-0.4
						v-5.1c0-0.167,0.05-0.3,0.15-0.4c0.133-0.133,0.267-0.2,0.4-0.2H77.55z M58.95-45.3v-0.55c0-0.133,0.05-0.267,0.15-0.4
						c0.133-0.1,0.25-0.15,0.35-0.15h5.35c0.8,0,1.45-0.233,1.95-0.7c0.1-0.066,0.167-0.133,0.2-0.2c0-0.067,0-0.167,0-0.3
						c0-0.7-0.217-1.267-0.65-1.7h0.1c-0.566-0.4-1.267-0.6-2.1-0.6h-5.65c-0.133,0-0.25-0.067-0.35-0.2
						c-0.133-0.1-0.2-0.233-0.2-0.4v-7.85c0-0.9-0.2-1.566-0.6-2c-0.433-0.467-1.05-0.7-1.85-0.7c-0.5,0-0.95,0.1-1.35,0.3
						c-0.133,0.367-0.2,0.8-0.2,1.3v21.15c0,0.8,0.267,1.483,0.8,2.05c0.5,0.4,1.083,0.6,1.75,0.6h8.9c0.767,0,1.4-0.2,1.9-0.6
						l0.05-0.05c0.1-0.1,0.183-0.25,0.25-0.45c0-0.033,0-0.067,0-0.1c0-0.767-0.2-1.316-0.6-1.65c-0.033,0-0.05-0.017-0.05-0.05
						c-0.434-0.434-1.1-0.65-2-0.65h-6.45c-0.133,0-0.25-0.05-0.35-0.15c-0.133-0.133-0.2-0.267-0.2-0.4v-5
						c0-0.133,0.066-0.25,0.2-0.35c0.1-0.133,0.217-0.2,0.35-0.2H58.95z"/>
					<path style="fill-rule:evenodd;clip-rule:evenodd;fill:#FFFFFF;" d="M129.35-35.5c-0.233,0.033-0.434,0.05-0.6,0.05h-13.3
						c-0.767,0-1.434-0.216-2-0.65c-0.434-0.433-0.65-1-0.65-1.7c0-0.534,0.117-1,0.35-1.4c-0.6,0.1-1.1,0.317-1.5,0.65
						c-0.4,0.466-0.6,1.033-0.6,1.7c0,0.7,0.217,1.267,0.65,1.7c0.566,0.433,1.25,0.65,2.05,0.65H127c0.9,0,1.567-0.217,2-0.65
						C129.133-35.25,129.25-35.367,129.35-35.5z M77.55-56.2h6.3c0.8,0,1.417-0.216,1.85-0.65c0.4-0.4,0.6-0.95,0.6-1.65
						c0-0.067,0-0.117,0-0.15c-0.066,0.2-0.167,0.367-0.3,0.5c-0.433,0.467-1.017,0.7-1.75,0.7h-6.2c-0.1,0-0.216,0.05-0.35,0.15
						c-0.1,0.1-0.15,0.233-0.15,0.4V-56.2z M102-42.55l3.65-9.5c0-0.1,0-0.217,0-0.35c-0.066-0.1-0.15-0.184-0.25-0.25
						c-0.1-0.067-0.217-0.1-0.35-0.1H98.5c-0.133,0-0.25,0.033-0.35,0.1C98.05-52.583,98-52.5,98-52.4
						c-0.1,0.133-0.483,0.667-1.15,1.6c0.1-0.034,0.2-0.05,0.3-0.05h6.6c0.1,0,0.2,0.033,0.3,0.1c0.133,0.067,0.217,0.15,0.25,0.25
						c0,0.133,0,0.25,0,0.35L102-42.55z M105.55-55.55h2.05c0.1,0,0.2-0.034,0.3-0.1c0.133-0.1,0.217-0.2,0.25-0.3l0.75-2.4
						c0.434-1,0.783-1.683,1.05-2.05c0.2-0.233,0.466-0.4,0.8-0.5c-0.333-0.1-0.683-0.15-1.05-0.15c-0.767,0-1.383,0.216-1.85,0.65
						c-0.267,0.367-0.6,1.05-1,2.05l-0.75,2.4c-0.067,0.1-0.15,0.2-0.25,0.3C105.753-55.585,105.653-55.552,105.55-55.55z
						 M117.8-40.15h1.15c0.167,0,0.3-0.05,0.4-0.15c0.133-0.133,0.2-0.267,0.2-0.4v-18.6c0-0.7,0.167-1.284,0.5-1.75
						c-0.6,0.1-1.066,0.333-1.4,0.7h-0.05c-0.533,0.434-0.8,1.1-0.8,2V-40.15z M101.5-34c-0.233-0.067-0.45-0.167-0.65-0.3
						c-0.5-0.267-0.934-0.633-1.3-1.1c-0.4-0.6-0.966-1.9-1.7-3.9L91.9-55.5c-0.633-1.533-0.95-2.75-0.95-3.65
						c0-0.6,0.2-1.05,0.6-1.35l0.05-0.05c0.2-0.133,0.433-0.233,0.7-0.3c-0.267-0.133-0.566-0.2-0.9-0.2
						c-0.833,0-1.45,0.167-1.85,0.5L89.5-60.5c-0.4,0.3-0.6,0.75-0.6,1.35c0,0.9,0.317,2.117,0.95,3.65l5.95,16.2
						c0.7,2,1.267,3.3,1.7,3.9c0.367,0.467,0.783,0.833,1.25,1.1c0.467,0.267,1.017,0.4,1.65,0.4
						C100.8-33.9,101.167-33.933,101.5-34z M86.2-37.05c-0.067,0.233-0.184,0.433-0.35,0.6L85.8-36.4c-0.466,0.4-1.083,0.6-1.85,0.6
						h-8.7c-0.667,0-1.217-0.217-1.65-0.65v0.05c-0.5-0.567-0.75-1.267-0.75-2.1v-21.15c0-0.4,0.083-0.75,0.25-1.05
						c-0.333,0.1-0.633,0.267-0.9,0.5c-0.534,0.434-0.8,1.05-0.8,1.85v21.15c0,0.8,0.267,1.467,0.8,2c0.033,0,0.05,0.017,0.05,0.05
						c0.5,0.433,1.1,0.65,1.8,0.65h9.45c0.833,0,1.517-0.217,2.05-0.65l0.05-0.05c0.4-0.433,0.6-0.983,0.6-1.65
						C86.2-36.883,86.2-36.95,86.2-37.05z M85.55-47.6c-0.1,0.167-0.2,0.3-0.3,0.4v-0.05c-0.4,0.467-0.983,0.7-1.75,0.7h-5.45
						c-0.1,0-0.216,0.05-0.35,0.15c-0.1,0.1-0.15,0.233-0.15,0.4v0.7H83c0.833,0,1.467-0.217,1.9-0.65v0.05
						C85.333-46.3,85.55-46.867,85.55-47.6z M67.75-36.75c-0.067,0.2-0.15,0.35-0.25,0.45l-0.05,0.05c-0.5,0.4-1.133,0.6-1.9,0.6
						h-8.9c-0.667,0-1.25-0.2-1.75-0.6c-0.533-0.567-0.8-1.25-0.8-2.05v-21.15c0-0.5,0.066-0.933,0.2-1.3
						c-0.2,0.1-0.383,0.233-0.55,0.4c-0.5,0.434-0.75,1.1-0.75,2v21.15c0,0.833,0.267,1.517,0.8,2.05
						c0.534,0.433,1.15,0.65,1.85,0.65h9.45c0.8,0,1.467-0.217,2-0.65l0.05-0.05C67.517-35.6,67.717-36.117,67.75-36.75z
						 M66.95-47.3c-0.034,0.066-0.1,0.133-0.2,0.2c-0.5,0.467-1.15,0.7-1.95,0.7h-5.35c-0.1,0-0.217,0.05-0.35,0.15
						c-0.1,0.133-0.15,0.267-0.15,0.4v0.55h5.35c0.833,0,1.534-0.217,2.1-0.65C66.7-46.25,66.883-46.7,66.95-47.3z"/>
				</g>
			</g>
		</g>
	</g>
</symbol>
<symbol  id="flash0.ai_x5F_3_x2F_Layer_1_x2F__x3C_Path_x3E__x5F_1" viewBox="0 -52.2 103 52.2">
	<g id="Layer_1_5_">
		
			<linearGradient id="SVGID_14_" gradientUnits="userSpaceOnUse" x1="16147.3057" y1="-49.3853" x2="16217.7061" y2="-49.3853" gradientTransform="matrix(1.420455e-005 1 -1 -0.001 1.8848 -16220.1055)">
			<stop  offset="0" style="stop-color:#000000"/>
			<stop  offset="0.0902" style="stop-color:#000000;stop-opacity:0.7961"/>
			<stop  offset="0.9961" style="stop-color:#000000;stop-opacity:0"/>
		</linearGradient>
		<polygon style="fill-rule:evenodd;clip-rule:evenodd;fill:url(#SVGID_14_);" points="103,-52.2 0.35,-52.2 0,-19.7 31.35,-19.7 
			31.35,0 76.35,0 76.35,-27.25 103,-27.25 		"/>
	</g>
</symbol>
<symbol  id="flash0.ai_x5F_3_x2F_Layer_1_x2F__x3C_Path_x3E__x5F_4" viewBox="0 -58.85 113.65 58.85">
	<g id="Layer_1_4_">
		
			<linearGradient id="SVGID_15_" gradientUnits="userSpaceOnUse" x1="16138.4766" y1="-54.46" x2="16160.5264" y2="-54.46" gradientTransform="matrix(4.535148e-005 1 -1 -0.001 1.6313 -16220.1055)">
			<stop  offset="0" style="stop-color:#211F1F"/>
			<stop  offset="0.0235" style="stop-color:#3B3939"/>
			<stop  offset="0.0706" style="stop-color:#646262"/>
			<stop  offset="0.1176" style="stop-color:#898888"/>
			<stop  offset="0.1725" style="stop-color:#A9A8A8"/>
			<stop  offset="0.2314" style="stop-color:#C4C4C4"/>
			<stop  offset="0.302" style="stop-color:#DADADA"/>
			<stop  offset="0.3804" style="stop-color:#EBEAEA"/>
			<stop  offset="0.4784" style="stop-color:#F6F6F6"/>
			<stop  offset="0.6157" style="stop-color:#FDFDFD"/>
			<stop  offset="0.9961" style="stop-color:#FFFFFF"/>
		</linearGradient>
		<polygon style="fill-rule:evenodd;clip-rule:evenodd;fill:url(#SVGID_15_);" points="108.2,-29.75 113.65,-35.3 113.65,-58.85 
			112.4,-58.85 112.4,-35.9 107.05,-30.45 84.75,-30.45 84.75,-7.9 78.4,-1.5 40.75,-1.5 35.4,-6.75 35.4,-21.9 8.15,-21.9 
			1.75,-28.05 2.1,-58.85 0.35,-58.85 0,-27.25 7.55,-20.9 34.25,-20.9 34.25,-5.4 40.7,0 79,0 86.5,-6.55 86.5,-29.75 		"/>
	</g>
</symbol>
<symbol  id="flash0.ai_x5F_3_x2F_Layer_1_x2F__x3C_Path_x3E__x5F_5" viewBox="0 -57.35 110.65 57.35">
	<g id="Layer_1_3_">
		
			<linearGradient id="SVGID_16_" gradientUnits="userSpaceOnUse" x1="16151.6143" y1="-53.2148" x2="16224.7891" y2="-53.2148" gradientTransform="matrix(1.366587e-005 1 -1 -0.001 1.8892 -16220.1055)">
			<stop  offset="0" style="stop-color:#211F1F"/>
			<stop  offset="0.1725" style="stop-color:#242222"/>
			<stop  offset="0.3098" style="stop-color:#2E2C2C"/>
			<stop  offset="0.4353" style="stop-color:#3F3D3D"/>
			<stop  offset="0.5529" style="stop-color:#565555"/>
			<stop  offset="0.6667" style="stop-color:#747373"/>
			<stop  offset="0.7725" style="stop-color:#9A9999"/>
			<stop  offset="0.8784" style="stop-color:#C6C5C5"/>
			<stop  offset="0.9804" style="stop-color:#F8F8F8"/>
			<stop  offset="0.9961" style="stop-color:#FFFFFF"/>
		</linearGradient>
		<polygon style="fill-rule:evenodd;clip-rule:evenodd;fill:url(#SVGID_16_);" points="110.65,-34.4 110.65,-57.35 0.35,-57.35 
			0,-26.55 6.4,-20.4 33.65,-20.4 33.65,-5.25 39,0 76.65,0 83,-6.4 83,-28.95 105.3,-28.95 		"/>
	</g>
</symbol>
<symbol  id="podium" viewBox="-0.505 -59.8 104.005 60.3">
	<g id="Layer_1_15_">
		<polygon style="fill-rule:evenodd;clip-rule:evenodd;fill:#FFF18F;" points="76.35,-7.75 76.35,-28.6 98,-28.6 103,-33.65 
			103,-54.85 0.35,-54.85 0.05,-26.4 6,-20.7 31.35,-20.7 31.35,-6.7 36.35,0 71.35,0 		"/>
		<polygon style="fill-rule:evenodd;clip-rule:evenodd;fill:#ECD25B;" points="103,-34.35 103,-59.3 0.35,-59.3 0,-26.8 
			31.35,-26.8 31.35,-7.1 76.35,-7.1 76.35,-34.35 		"/>
		
			<use xlink:href="#flash0.ai_x5F_3_x2F_Layer_1_x2F__x3C_Path_x3E__x5F_1"  width="103" height="52.2" y="-52.2" transform="matrix(1 0 0 1 0 -7.1001)" style="overflow:visible;opacity:0.5781;enable-background:new    ;"/>
		<polygon style="fill-rule:evenodd;clip-rule:evenodd;fill:none;stroke:#000000;stroke-miterlimit:10;" points="98,-28.6 
			76.35,-28.6 76.35,-7.75 71.35,0 36.35,0 31.35,-6.7 31.35,-20.7 6,-20.7 0.05,-26.399 0.05,-26.8 0,-26.8 0.35,-59.3 103,-59.3 
			103,-33.649 		"/>
		<g>
			<polygon style="fill-rule:evenodd;clip-rule:evenodd;fill:#FFFBDB;" points="75.85,-8.9 31.7,-8.9 31.7,-7.15 75.85,-7.15 			"/>
		</g>
		<g>
			<polygon style="fill-rule:evenodd;clip-rule:evenodd;fill:#FFFBDB;" points="31.3,-26.65 31.3,-28.4 0.25,-28.4 0.25,-26.65 			
				"/>
		</g>
		<g>
			<polygon style="fill-rule:evenodd;clip-rule:evenodd;fill:#FFFBDB;" points="102.55,-35.55 76.15,-35.55 76.15,-33.8 
				102.55,-33.8 			"/>
		</g>
	</g>
</symbol>
<symbol  id="zz_x5F_Highlight_x2F_Highlight_Piece" viewBox="0 -115.9 118.7 115.9">
	<g id="Layer_1_19_">
		<g>
			
				<use xlink:href="#zzz_x5F_miscellaneous_x2F_FlashAICB_copy_x2F_Layer_1_x2F__x3C_Path_x3E__x5F_2"  width="118.7" height="57.1" y="-57.1" transform="matrix(1 0 0 1 0 -58.7998)" style="overflow:visible;opacity:0.2813;enable-background:new    ;"/>
			
				<use xlink:href="#zzz_x5F_miscellaneous_x2F_FlashAICB_copy_x2F_Layer_1_x2F__x3C_Path_x3E__x5F_1"  width="110.05" height="55.75" y="-55.75" transform="matrix(1 0 0 1 4.1499 0)" style="overflow:visible;opacity:0.1094;enable-background:new    ;"/>
			
				<use xlink:href="#zzz_x5F_miscellaneous_x2F_FlashAICB_copy_x2F_Layer_1_x2F__x3C_Path_x3E_"  width="110.05" height="61.294" y="-61.294" transform="matrix(1 0 0 1 4.1499 0)" style="overflow:visible;opacity:0.0898;enable-background:new    ;"/>
		</g>
	</g>
</symbol>
<symbol  id="zzz_x5F_miscellaneous_x2F_FlashAICB_copy_2_x2F_Layer_1_x2F__x3C_Path_x3E__x5F_0" viewBox="0 -118.7 118.85 118.7">
	<g id="Layer_1_2_">
		
			<radialGradient id="SVGID_17_" cx="59.4248" cy="-59.3501" r="59.3876" gradientTransform="matrix(1 0 0 -1 0 -118.7002)" gradientUnits="userSpaceOnUse">
			<stop  offset="0" style="stop-color:#D5ECE7"/>
			<stop  offset="0.0863" style="stop-color:#CCE5E0"/>
			<stop  offset="0.2392" style="stop-color:#B3D3CF"/>
			<stop  offset="0.4353" style="stop-color:#8DB4B2"/>
			<stop  offset="0.6078" style="stop-color:#699796"/>
			<stop  offset="0.8039" style="stop-color:#6A9796"/>
			<stop  offset="0.8745" style="stop-color:#6D9796"/>
			<stop  offset="0.9255" style="stop-color:#739896"/>
			<stop  offset="0.9686" style="stop-color:#7D9996"/>
			<stop  offset="1" style="stop-color:#899A96"/>
		</radialGradient>
		<path style="fill-rule:evenodd;clip-rule:evenodd;fill:url(#SVGID_17_);" d="M118.85-59.35c0-16.367-5.8-30.35-17.4-41.95
			c-11.6-11.6-25.617-17.4-42.05-17.4c-16.4,0-30.4,5.8-42,17.4C5.8-89.7,0-75.717,0-59.35S5.8-29,17.4-17.4S43,0,59.4,0
			c16.434,0,30.45-5.8,42.05-17.4C113.05-29,118.85-42.983,118.85-59.35z"/>
	</g>
</symbol>
<symbol  id="zzz_x5F_miscellaneous_x2F_FlashAICB_copy_x2F_Layer_1_x2F__x3C_Path_x3E_" viewBox="0 -61.294 110.05 61.294">
	<g id="Layer_1_12_">
		<path style="fill-rule:evenodd;clip-rule:evenodd;fill:#FFFFFF;" d="M106.5-34.35c2.367-5.633,3.55-10.95,3.55-15.95
			c0-4.934-1.45-8.05-4.35-9.35c-2.333-1.033-6.25-1.017-11.75,0.05c-7.3,1.767-13.133,3.117-17.5,4.05
			C68.417-53.85,61.267-53,55-53c-6.3,0-13.433-0.917-21.4-2.75c-8.333-2.2-14.167-3.683-17.5-4.45
			c-5.533-1.267-9.45-1.433-11.75-0.5C1.45-59.5,0-56.433,0-51.5c0,5.5,1.167,11.167,3.5,17c2.467,6.167,5.95,11.733,10.45,16.7
			C24.65-5.933,38.333,0,55,0c16.467,0,30.15-5.983,41.05-17.95C100.517-22.883,104-28.35,106.5-34.35z"/>
	</g>
</symbol>
<symbol  id="zzz_x5F_miscellaneous_x2F_FlashAICB_copy_x2F_Layer_1_x2F__x3C_Path_x3E__x5F_1" viewBox="0 -55.75 110.05 55.75">
	<g id="Layer_1_11_">
		
			<linearGradient id="SVGID_18_" gradientUnits="userSpaceOnUse" x1="16164.2637" y1="-52.8804" x2="16220.0391" y2="-52.8804" gradientTransform="matrix(1.792918e-005 1 -1 -0.001 1.8545 -16220.1055)">
			<stop  offset="0.1294" style="stop-color:#D9BBB3"/>
			<stop  offset="0.9255" style="stop-color:#FFFFFF"/>
		</linearGradient>
		<path style="fill-rule:evenodd;clip-rule:evenodd;fill:url(#SVGID_18_);" d="M96.05-17.95c4.467-4.933,7.95-10.4,10.45-16.4
			c2.367-5.633,3.55-10.95,3.55-15.95c0-1.567-0.167-3.05-0.5-4.45c-1.867,11.067-7.267,20.9-16.2,29.5
			C82.783-15.117,70-10.05,55-10.05c-15.233,0-28.067-5.05-38.5-15.15C7.533-33.9,2.183-44.083,0.45-55.75
			C0.15-54.617,0-53.2,0-51.5c0,5.5,1.167,11.167,3.5,17c2.467,6.167,5.95,11.733,10.45,16.7C24.65-5.933,38.333,0,55,0
			C71.467,0,85.15-5.983,96.05-17.95z"/>
	</g>
</symbol>
<symbol  id="zzz_x5F_miscellaneous_x2F_FlashAICB_copy_x2F_Layer_1_x2F__x3C_Path_x3E__x5F_2" viewBox="0 -57.1 118.7 57.1">
	<g id="Layer_1_10_">
		
			<radialGradient id="SVGID_19_" cx="59.3501" cy="-28.5498" r="46.5701" gradientTransform="matrix(1 0 0 -1 0 -57.0996)" gradientUnits="userSpaceOnUse">
			<stop  offset="0" style="stop-color:#000000;stop-opacity:0"/>
			<stop  offset="0.651" style="stop-color:#000000;stop-opacity:0.4"/>
		</radialGradient>
		<path style="fill-rule:evenodd;clip-rule:evenodd;fill:url(#SVGID_19_);" d="M95.5-30.35c10.733,7.7,18.3,17.733,22.7,30.1
			L118.7,0c-0.567-15.9-6.6-29.383-18.1-40.45C89.1-51.55,75.333-57.1,59.3-57.1c-15.7,0-29.267,5.367-40.7,16.1
			C7.2-30.333,1-17.233,0-1.7c4.6-12,12.183-21.683,22.75-29.05c10.833-7.567,22.867-11.35,36.1-11.35
			C72.35-42.1,84.567-38.183,95.5-30.35z"/>
	</g>
</symbol>
<symbol  id="zzz_x5F_miscellaneous_x2F_digit_2x" viewBox="0 -26.05 17.4 26.05">
	<g id="Layer_1_6_">
		<linearGradient id="SVGID_20_" gradientUnits="userSpaceOnUse" x1="8.7002" y1="-21.75" x2="8.7002" y2="-4.35">
			<stop  offset="0.0745" style="stop-color:#000000;stop-opacity:0.9882"/>
			<stop  offset="0.9647" style="stop-color:#000000;stop-opacity:0.651"/>
		</linearGradient>
		<path style="fill-rule:evenodd;clip-rule:evenodd;fill:url(#SVGID_20_);" d="M16.65-7.5c0-2.1-1.05-4.55-3.15-7.35
			c-1.2-1.566-3.033-3.717-5.5-6.45h6.6c1.467,0,2.367-0.483,2.7-1.45c0.067-0.267,0.1-0.567,0.1-0.9c0-0.8-0.25-1.417-0.75-1.85
			c-0.467-0.367-1.083-0.55-1.85-0.55h-12c-1.867,0-2.8,0.8-2.8,2.4c0,0.3,0.067,0.6,0.2,0.9s0.333,0.6,0.6,0.9l4.6,5.25
			c1.833,2.1,3.3,3.95,4.4,5.55c0.833,1.167,1.25,2.267,1.25,3.3c0,0.767-0.25,1.417-0.75,1.95C9.8-5.233,9.183-4.95,8.45-4.95
			C7.017-4.95,6-5.933,5.4-7.9c-0.6-1.934-1.45-2.9-2.55-2.9c-0.833,0-1.5,0.267-2,0.8C0.417-9.5,0.2-8.883,0.2-8.15
			c0,2.233,0.867,4.167,2.6,5.8C4.467-0.783,6.417,0,8.65,0c2.267,0,4.15-0.683,5.65-2.05C15.867-3.45,16.65-5.267,16.65-7.5z"/>
	</g>
</symbol>
<symbol  id="zzz_x5F_miscellaneous_x2F_digit_6x" viewBox="0 -26.5 18.1 26.5">
	<g id="Layer_1_7_">
		<linearGradient id="SVGID_21_" gradientUnits="userSpaceOnUse" x1="9.0498" y1="-22.2998" x2="9.0498" y2="-4.1998">
			<stop  offset="0.0745" style="stop-color:#000000;stop-opacity:0.9882"/>
			<stop  offset="0.9647" style="stop-color:#000000;stop-opacity:0.651"/>
		</linearGradient>
		<path style="fill-rule:evenodd;clip-rule:evenodd;fill:url(#SVGID_21_);" d="M15.95-11.95c1.433-1.566,2.15-3.433,2.15-5.6
			c0-1.934-0.55-3.667-1.65-5.2c-0.267-0.367-0.567-0.717-0.9-1.05c-1.733-1.8-3.9-2.7-6.5-2.7c-2.7,0-4.9,0.883-6.6,2.65
			c-0.333,0.333-0.633,0.7-0.9,1.1C0.517-21.283,0-19.55,0-17.55c0,2.5,1.067,5.5,3.2,9C5-5.583,6.983-3.1,9.15-1.1
			C9.317-0.933,9.7-0.65,10.3-0.25C10.567-0.083,10.933,0,11.4,0c0.533,0,1.083-0.267,1.65-0.8c0.6-0.567,0.9-1.167,0.9-1.8
			c0-0.3-0.25-0.8-0.75-1.5c-0.3-0.367-1.167-1.333-2.6-2.9C9.467-8.267,8.667-9.217,8.2-9.85L8.3-9.9C9-9.633,9.75-9.5,10.55-9.5
			C12.683-9.5,14.483-10.317,15.95-11.95z M5.65-17.55c0-1.034,0.3-1.917,0.9-2.65c0.633-0.733,1.467-1.1,2.5-1.1
			c1,0,1.817,0.367,2.45,1.1c0.633,0.7,0.95,1.583,0.95,2.65c0,1.033-0.284,1.9-0.85,2.6c-0.633,0.767-1.483,1.15-2.55,1.15
			c-1,0-1.816-0.367-2.45-1.1C5.967-15.6,5.65-16.483,5.65-17.55z"/>
	</g>
</symbol>
<symbol  id="zzz_x5F_miscellaneous_x2F_digit_7x" viewBox="0 -25.85 18.3 25.85">
	<g id="Layer_1_9_">
		<linearGradient id="SVGID_22_" gradientUnits="userSpaceOnUse" x1="9.1499" y1="-22.1001" x2="9.1499" y2="-3.8001">
			<stop  offset="0.0745" style="stop-color:#000000;stop-opacity:0.9882"/>
			<stop  offset="0.9647" style="stop-color:#000000;stop-opacity:0.651"/>
		</linearGradient>
		<path style="fill-rule:evenodd;clip-rule:evenodd;fill:url(#SVGID_22_);" d="M17.7-0.95c0.4-0.533,0.6-1.083,0.6-1.65
			c0-0.467-0.283-1.267-0.85-2.4l-8.9-18.15c-0.533-1.1-0.966-1.8-1.3-2.1c-0.4-0.4-0.983-0.6-1.75-0.6c-0.9,0-1.633,0.3-2.2,0.9
			c-0.5,0.5-0.75,1.05-0.75,1.65c0,0.3,0.083,0.617,0.25,0.95c0,0.1,0.034,0.2,0.1,0.3L11.9-5H2.7C1.8-5,1.1-4.733,0.6-4.2
			C0.2-3.767,0-3.2,0-2.5s0.2,1.267,0.6,1.7C1.067-0.267,1.767,0,2.7,0h13C16.533,0,17.2-0.317,17.7-0.95z"/>
	</g>
</symbol>
<symbol  id="zzz_x5F_miscellaneous_x2F_laurel_working" viewBox="-0.017 -24.9 92.706 24.878">
	<g id="Layer_1_8_">
		<linearGradient id="SVGID_23_" gradientUnits="userSpaceOnUse" x1="85.2998" y1="-9.7759" x2="79.1998" y2="-9.6259">
			<stop  offset="0" style="stop-color:#3A3A3A"/>
			<stop  offset="1" style="stop-color:#9F9F9F"/>
		</linearGradient>
		<path style="fill-rule:evenodd;clip-rule:evenodd;fill:url(#SVGID_23_);" d="M78.8-6.55c0.5-0.133,1.017-0.383,1.55-0.75
			c0.467-0.333,1.15-0.934,2.05-1.8c1.567-1.7,2.917-2.95,4.05-3.75c0.066-0.066,0.117-0.117,0.15-0.15
			c-0.934,0-1.95,0.233-3.05,0.7c-0.133,0.633-0.35,1.233-0.65,1.8c-0.6,1.033-1.367,1.933-2.3,2.7c-0.867,0.7-1.767,1.15-2.7,1.35
			v0.05C78.2-6.433,78.5-6.483,78.8-6.55z"/>
		<path style="fill-rule:evenodd;clip-rule:evenodd;fill:#EFEFEF;" d="M86.45-12.85c-1.133,0.8-2.483,2.05-4.05,3.75
			c-0.9,0.867-1.583,1.467-2.05,1.8c-0.533,0.367-1.05,0.617-1.55,0.75c-0.3,0.1-0.6,0.167-0.9,0.2
			c1.033,0.233,2.15,0.184,3.35-0.15c1.167-0.333,2.217-0.867,3.15-1.6c0.8-0.667,1.434-1.433,1.9-2.3
			c0.534-1.033,0.667-1.9,0.4-2.6C86.633-12.933,86.55-12.883,86.45-12.85z M78.35-6.85C78.183-6.717,78.033-6.6,77.9-6.5
			c-0.094,0.063-0.16,0.112-0.2,0.15c0.04-0.035,0.106-0.069,0.2-0.1c0.934-0.2,1.833-0.65,2.7-1.35c0.933-0.767,1.7-1.667,2.3-2.7
			c0.3-0.567,0.517-1.167,0.65-1.8c0.1-0.333,0.167-0.684,0.2-1.05c0.1-1.167-0.133-2.017-0.7-2.55
			c-0.066,0.1-0.117,0.183-0.15,0.25c-0.633,1.1-1.383,2.767-2.25,5c-0.5,1.167-0.883,1.983-1.15,2.45
			C79.167-7.633,78.783-7.183,78.35-6.85z M86.4-14.65c-0.233,0.167-0.467,0.3-0.7,0.4c1.033-0.067,2.083-0.433,3.15-1.1
			c1.033-0.633,1.883-1.45,2.55-2.45c0.567-0.867,0.95-1.784,1.15-2.75c0.267-1.133,0.15-2-0.35-2.6
			c-0.067,0.066-0.117,0.133-0.15,0.2c-0.833,1.067-1.783,2.65-2.85,4.75c-0.6,1.1-1.083,1.867-1.45,2.3
			C87.35-15.367,86.9-14.95,86.4-14.65z M89.4-21.5c-0.033-0.4-0.083-0.783-0.15-1.15c-0.233-1.133-0.7-1.883-1.4-2.25
			c-0.031,0.094-0.048,0.177-0.05,0.25c-0.333,1.4-0.566,3.217-0.7,5.45c-0.133,1.233-0.283,2.15-0.45,2.75
			c-0.2,0.733-0.483,1.35-0.85,1.85l-0.025,0.025c-0.053,0.057-0.095,0.115-0.125,0.175c-0.1,0.1-0.183,0.183-0.25,0.25
			c0.1-0.067,0.2-0.133,0.3-0.2c0.8-0.467,1.517-1.15,2.15-2.05c0.667-1,1.133-2.1,1.4-3.3C89.35-20.3,89.4-20.9,89.4-21.5z
			 M69-0.55c0.933,0.433,2.033,0.6,3.3,0.5c1.2-0.067,2.333-0.383,3.4-0.95c0.9-0.5,1.667-1.133,2.3-1.9
			c0.733-0.867,1.033-1.684,0.9-2.45c-0.133,0.067-0.25,0.117-0.35,0.15c-1.4,0.633-2.933,1.583-4.6,2.85
			C72.817-1.65,72.033-1.2,71.6-1c-0.8,0.333-1.55,0.483-2.25,0.45H69.2C69.133-0.55,69.067-0.55,69-0.55z M75.65-5.2
			c0.167-0.367,0.3-0.733,0.4-1.1c0.333-1.133,0.284-2-0.15-2.6c-0.1,0.1-0.2,0.217-0.3,0.35c-0.9,1-1.917,2.433-3.05,4.3
			c-0.7,1.033-1.25,1.767-1.65,2.2C70.3-1.417,69.667-0.967,69-0.7c-0.1,0.034-0.2,0.067-0.3,0.1c0.1,0,0.2,0,0.3,0
			c0.933-0.033,1.9-0.316,2.9-0.85c1.067-0.533,2-1.267,2.8-2.2C75.067-4.15,75.383-4.667,75.65-5.2z M17-5.2
			c0.267,0.534,0.583,1.05,0.95,1.55c0.767,0.933,1.683,1.667,2.75,2.2c1,0.567,1.983,0.85,2.95,0.85c0.1,0,0.184,0,0.25,0
			c-0.1-0.033-0.183-0.066-0.25-0.1c-0.133-0.033-0.267-0.083-0.4-0.15c-0.533-0.267-1.05-0.667-1.55-1.2
			c-0.434-0.467-0.967-1.2-1.6-2.2c-1.2-2-2.267-3.5-3.2-4.5c-0.037-0.038-0.087-0.087-0.15-0.15c-0.433,0.633-0.483,1.5-0.15,2.6
			C16.7-5.933,16.833-5.567,17-5.2z M14.05-5.25c-0.1-0.033-0.2-0.067-0.3-0.1c-0.167,0.767,0.117,1.583,0.85,2.45
			C15.233-2.133,16-1.5,16.9-1c1.067,0.567,2.217,0.883,3.45,0.95c1.233,0.1,2.333-0.067,3.3-0.5c-0.066,0-0.117,0-0.15,0h-0.15
			c-0.733,0.033-1.5-0.117-2.3-0.45c-0.5-0.233-1.3-0.683-2.4-1.35C17.083-3.583,15.55-4.55,14.05-5.25z M9.1-12.3
			c0.133,0.6,0.333,1.2,0.6,1.8c0.6,1.033,1.367,1.933,2.3,2.7c0.867,0.7,1.767,1.15,2.7,1.35c0.094,0.031,0.185,0.065,0.275,0.1
			c-0.087-0.038-0.163-0.087-0.225-0.15c-0.167-0.1-0.333-0.217-0.5-0.35c-0.433-0.333-0.817-0.783-1.15-1.35
			c-0.267-0.466-0.65-1.283-1.15-2.45c-0.667-1.967-1.367-3.567-2.1-4.8c-0.1-0.167-0.2-0.316-0.3-0.45
			c-0.533,0.533-0.75,1.383-0.65,2.55C8.933-12.983,9-12.633,9.1-12.3z M13.9-6.5c-0.533-0.167-1.083-0.433-1.65-0.8
			c-0.467-0.333-1.15-0.934-2.05-1.8c-1.633-1.733-3-3-4.1-3.8c-0.067-0.033-0.117-0.067-0.15-0.1c-0.3,0.7-0.167,1.567,0.4,2.6
			C6.783-9.533,7.4-8.767,8.2-8.1c0.966,0.733,2.033,1.267,3.2,1.6c1.2,0.333,2.3,0.383,3.3,0.15
			C14.433-6.383,14.167-6.433,13.9-6.5z M3.25-21.55c-0.033,0.633,0,1.25,0.1,1.85c0.267,1.167,0.733,2.267,1.4,3.3
			c0.633,0.9,1.35,1.583,2.15,2.05l0.05,0.05c0.1,0.066,0.183,0.117,0.25,0.15C7.133-14.217,7.067-14.3,7-14.4
			c-0.1-0.133-0.217-0.3-0.35-0.5L6.6-14.95c-0.267-0.433-0.483-0.933-0.65-1.5c-0.167-0.633-0.3-1.55-0.4-2.75
			c-0.133-2.2-0.367-4-0.7-5.4c-0.033-0.1-0.067-0.2-0.1-0.3c-0.667,0.367-1.117,1.117-1.35,2.25
			C3.333-22.283,3.283-21.917,3.25-21.55z M6.2-14.65c-0.5-0.3-0.95-0.717-1.35-1.25c-0.333-0.434-0.817-1.2-1.45-2.3
			c-0.933-1.9-1.85-3.483-2.75-4.75v-0.1H0.625c-0.062-0.012-0.12-0.045-0.175-0.1c-0.467,0.6-0.583,1.467-0.35,2.6
			c0.167,0.966,0.533,1.883,1.1,2.75c0.7,1,1.566,1.816,2.6,2.45c1.034,0.667,2.083,1.033,3.15,1.1
			C6.683-14.35,6.433-14.483,6.2-14.65z"/>
		<linearGradient id="SVGID_24_" gradientUnits="userSpaceOnUse" x1="92.2559" y1="-21.1396" x2="85.3059" y2="-16.3146">
			<stop  offset="0" style="stop-color:#3A3A3A"/>
			<stop  offset="1" style="stop-color:#9F9F9F"/>
		</linearGradient>
		<path style="fill-rule:evenodd;clip-rule:evenodd;fill:url(#SVGID_24_);" d="M85.7-14.35v0.05c0.233-0.1,0.466-0.217,0.7-0.35
			c0.5-0.3,0.95-0.717,1.35-1.25c0.367-0.434,0.85-1.2,1.45-2.3c1.066-2.1,2.017-3.683,2.85-4.75c0-0.066,0.017-0.133,0.05-0.2
			c-0.9,0.3-1.8,0.85-2.7,1.65c0,0.6-0.05,1.2-0.15,1.8c-0.267,1.2-0.733,2.3-1.4,3.3C87.217-15.5,86.5-14.817,85.7-14.35z"/>
		<linearGradient id="SVGID_25_" gradientUnits="userSpaceOnUse" x1="86.7603" y1="-24.7222" x2="85.1852" y2="-14.3472">
			<stop  offset="0" style="stop-color:#3A3A3A"/>
			<stop  offset="1" style="stop-color:#9F9F9F"/>
		</linearGradient>
		<path style="fill-rule:evenodd;clip-rule:evenodd;fill:url(#SVGID_25_);" d="M87.8-24.65c0-0.071,0-0.138,0-0.2
			c-1.233,1.067-2.216,2.883-2.95,5.45c-0.3,0.967-0.434,1.9-0.4,2.8c0.033,1.2,0.35,2,0.95,2.4c0.067-0.066,0.15-0.15,0.25-0.25
			c0.03-0.03,0.072-0.072,0.125-0.125L85.8-14.6c0.367-0.5,0.65-1.117,0.85-1.85c0.167-0.6,0.317-1.517,0.45-2.75
			C87.233-21.433,87.467-23.25,87.8-24.65z"/>
		<linearGradient id="SVGID_26_" gradientUnits="userSpaceOnUse" x1="83.1782" y1="-14.5591" x2="77.0282" y2="-7.7341">
			<stop  offset="0" style="stop-color:#3A3A3A"/>
			<stop  offset="1" style="stop-color:#9F9F9F"/>
		</linearGradient>
		<path style="fill-rule:evenodd;clip-rule:evenodd;fill:url(#SVGID_26_);" d="M82.9-15.65c0.033-0.1,0.05-0.184,0.05-0.25
			c-1.534,0.733-2.983,2.2-4.35,4.4c-0.533,0.833-0.934,1.7-1.2,2.6c-0.3,1.133-0.233,1.967,0.2,2.5c0.1-0.033,0.2-0.083,0.3-0.15
			c0.133-0.1,0.283-0.2,0.45-0.3c0.433-0.333,0.816-0.783,1.15-1.35c0.267-0.466,0.65-1.283,1.15-2.45
			C81.517-12.883,82.267-14.55,82.9-15.65z"/>
		<linearGradient id="SVGID_27_" gradientUnits="userSpaceOnUse" x1="75.9917" y1="-2.1655" x2="71.7917" y2="-3.7905">
			<stop  offset="0" style="stop-color:#3A3A3A"/>
			<stop  offset="1" style="stop-color:#9F9F9F"/>
		</linearGradient>
		<path style="fill-rule:evenodd;clip-rule:evenodd;fill:url(#SVGID_27_);" d="M69-0.6v0.05c0.067,0,0.133,0,0.2,0h0.15
			C70.05-0.517,70.8-0.667,71.6-1c0.433-0.2,1.217-0.65,2.35-1.35c1.667-1.267,3.2-2.217,4.6-2.85c0.1-0.066,0.184-0.133,0.25-0.2
			c-0.9-0.167-1.95-0.1-3.15,0.2c-0.267,0.534-0.583,1.05-0.95,1.55c-0.8,0.933-1.733,1.667-2.8,2.2C70.9-0.917,69.933-0.633,69-0.6
			z"/>
		<linearGradient id="SVGID_28_" gradientUnits="userSpaceOnUse" x1="75.6807" y1="-6.4512" x2="68.6057" y2="-3.0762">
			<stop  offset="0" style="stop-color:#3A3A3A"/>
			<stop  offset="1" style="stop-color:#9F9F9F"/>
		</linearGradient>
		<path style="fill-rule:evenodd;clip-rule:evenodd;fill:url(#SVGID_28_);" d="M75.6-8.55c0.066-0.133,0.133-0.25,0.2-0.35
			c-1.6,0.333-3.316,1.483-5.15,3.45c-0.7,0.7-1.25,1.467-1.65,2.3c-0.533,1.033-0.633,1.883-0.3,2.55c0.1-0.033,0.2-0.066,0.3-0.1
			c0.667-0.267,1.3-0.716,1.9-1.35c0.4-0.434,0.95-1.167,1.65-2.2C73.683-6.117,74.7-7.55,75.6-8.55z"/>
		
			<linearGradient id="SVGID_29_" gradientUnits="userSpaceOnUse" x1="16654.2422" y1="-496.8477" x2="16662.0801" y2="-496.8477" gradientTransform="matrix(-0.0574 0.9984 -0.9984 -0.0574 480.8184 -16663.9609)">
			<stop  offset="0" style="stop-color:#3A3A3A"/>
			<stop  offset="1" style="stop-color:#9F9F9F"/>
		</linearGradient>
		<path style="fill-rule:evenodd;clip-rule:evenodd;fill:url(#SVGID_29_);" d="M23.65-0.7c0.1,0.034,0.2,0.067,0.3,0.1
			c0.333-0.633,0.233-1.483-0.3-2.55c-0.433-0.833-1-1.6-1.7-2.3c-1.8-1.966-3.517-3.117-5.15-3.45
			c0.031,0.063,0.065,0.112,0.1,0.15c0.934,1,2,2.5,3.2,4.5c0.633,1,1.167,1.733,1.6,2.2c0.5,0.533,1.017,0.933,1.55,1.2
			C23.383-0.783,23.517-0.733,23.65-0.7z"/>
		
			<linearGradient id="SVGID_30_" gradientUnits="userSpaceOnUse" x1="16642.9297" y1="-478.5977" x2="16647.4375" y2="-478.5977" gradientTransform="matrix(-0.0555 0.9985 -0.9985 -0.0555 464.1743 -16649.1035)">
			<stop  offset="0" style="stop-color:#3A3A3A"/>
			<stop  offset="1" style="stop-color:#9F9F9F"/>
		</linearGradient>
		<path style="fill-rule:evenodd;clip-rule:evenodd;fill:url(#SVGID_30_);" d="M23.65-0.6c-0.967,0-1.95-0.283-2.95-0.85
			c-1.067-0.533-1.983-1.267-2.75-2.2C17.583-4.15,17.267-4.667,17-5.2c-1.2-0.3-2.267-0.367-3.2-0.2
			c0.034,0.033,0.117,0.083,0.25,0.15c1.5,0.7,3.034,1.667,4.6,2.9c1.1,0.667,1.9,1.117,2.4,1.35c0.8,0.333,1.567,0.483,2.3,0.45
			h0.15c0.033,0,0.083,0,0.15,0V-0.6z"/>
		
			<linearGradient id="SVGID_31_" gradientUnits="userSpaceOnUse" x1="16649.75" y1="-485.3662" x2="16655.8594" y2="-485.3662" gradientTransform="matrix(-0.0573 0.9984 -0.9984 -0.0573 479.7007 -16662.9648)">
			<stop  offset="0" style="stop-color:#3A3A3A"/>
			<stop  offset="1" style="stop-color:#9F9F9F"/>
		</linearGradient>
		<path style="fill-rule:evenodd;clip-rule:evenodd;fill:url(#SVGID_31_);" d="M9.1-12.3C8-12.767,6.967-13,6-13
			c0.033,0.033,0.067,0.067,0.1,0.1c1.1,0.8,2.467,2.066,4.1,3.8c0.9,0.867,1.583,1.467,2.05,1.8c0.567,0.367,1.117,0.633,1.65,0.8
			c0.267,0.033,0.533,0.067,0.8,0.1v-0.05C13.767-6.65,12.867-7.1,12-7.8c-0.933-0.767-1.7-1.667-2.3-2.7
			C9.433-11.1,9.233-11.7,9.1-12.3z"/>
		
			<linearGradient id="SVGID_32_" gradientUnits="userSpaceOnUse" x1="16646.6563" y1="-487.4321" x2="16655.8223" y2="-487.4321" gradientTransform="matrix(-0.0573 0.9984 -0.9984 -0.0573 479.7012 -16662.9648)">
			<stop  offset="0" style="stop-color:#3A3A3A"/>
			<stop  offset="1" style="stop-color:#9F9F9F"/>
		</linearGradient>
		<path style="fill-rule:evenodd;clip-rule:evenodd;fill:url(#SVGID_32_);" d="M14.25-6.85c0.167,0.1,0.333,0.2,0.5,0.3
			C14.817-6.483,14.9-6.433,15-6.4c0.467-0.533,0.55-1.367,0.25-2.5c-0.267-0.9-0.683-1.767-1.25-2.6
			c-1.367-2.2-2.817-3.667-4.35-4.4c0.067,0.167,0.133,0.316,0.2,0.45c0.733,1.233,1.433,2.833,2.1,4.8
			c0.5,1.167,0.883,1.983,1.15,2.45C13.433-7.633,13.817-7.183,14.25-6.85z"/>
		
			<linearGradient id="SVGID_33_" gradientUnits="userSpaceOnUse" x1="16637.2559" y1="-480.0605" x2="16647.75" y2="-480.0605" gradientTransform="matrix(-0.0572 0.9984 -0.9984 -0.0572 478.8667 -16662.2227)">
			<stop  offset="0" style="stop-color:#3A3A3A"/>
			<stop  offset="1" style="stop-color:#9F9F9F"/>
		</linearGradient>
		<path style="fill-rule:evenodd;clip-rule:evenodd;fill:url(#SVGID_33_);" d="M6.65-14.9c0.133,0.167,0.267,0.316,0.4,0.45
			c0.067,0.1,0.133,0.184,0.2,0.25c0.567-0.4,0.867-1.2,0.9-2.4c0.033-0.9-0.1-1.833-0.4-2.8c-0.667-2.5-1.633-4.317-2.9-5.45
			c0,0.067,0,0.15,0,0.25c0.333,1.4,0.566,3.2,0.7,5.4c0.1,1.2,0.233,2.117,0.4,2.75c0.167,0.567,0.383,1.067,0.65,1.5L6.65-14.9z"
			/>
		
			<linearGradient id="SVGID_34_" gradientUnits="userSpaceOnUse" x1="16654.9316" y1="-494.9854" x2="16663.3711" y2="-494.9854" gradientTransform="matrix(-0.0592 0.9982 -0.9982 -0.0592 496.519 -16677.9238)">
			<stop  offset="0" style="stop-color:#3A3A3A"/>
			<stop  offset="1" style="stop-color:#9F9F9F"/>
		</linearGradient>
		<path style="fill-rule:evenodd;clip-rule:evenodd;fill:url(#SVGID_34_);" d="M6.9-14.35c-0.8-0.467-1.517-1.15-2.15-2.05
			c-0.667-1.033-1.133-2.133-1.4-3.3c-0.1-0.6-0.133-1.216-0.1-1.85c-0.9-0.767-1.817-1.3-2.75-1.6
			c0.027,0.054,0.069,0.087,0.125,0.1H0.65v0.1c0.9,1.267,1.817,2.85,2.75,4.75c0.633,1.1,1.117,1.867,1.45,2.3
			c0.4,0.533,0.85,0.95,1.35,1.25C6.433-14.517,6.667-14.417,6.9-14.35z"/>
	</g>
</symbol>
<g id="Layer_6">
	<path style="fill-rule:evenodd;clip-rule:evenodd;fill:#5C5942;" d="M107.5,24.1c8.634,3.2,16.483,8.333,23.55,15.4
		c13.033,13.033,19.55,28.75,19.55,47.15s-6.517,34.1-19.55,47.1c-13,13.033-28.7,19.55-47.1,19.55c-5.233,0-10.233-0.517-15-1.55
		c-12.1-2.667-22.817-8.667-32.15-18c-13-13-19.5-28.7-19.5-47.1s6.5-34.117,19.5-47.15C49.833,26.5,65.55,20,83.95,20
		C92.35,20,100.2,21.367,107.5,24.1z"/>
	<g>
		<g>
			<linearGradient id="SVGID_35_" gradientUnits="userSpaceOnUse" x1="85.4102" y1="164.2881" x2="86.0399" y2="4.013">
				<stop  offset="0.0039" style="stop-color:#46231F"/>
				<stop  offset="0.2078" style="stop-color:#77603D"/>
				<stop  offset="0.5569" style="stop-color:#AB9969"/>
				<stop  offset="0.7412" style="stop-color:#EEECD0"/>
				<stop  offset="0.7922" style="stop-color:#E6E0AD"/>
				<stop  offset="1" style="stop-color:#B4A47A"/>
			</linearGradient>
			<path style="fill-rule:evenodd;clip-rule:evenodd;fill:url(#SVGID_35_);" d="M137.4,33.7c4.433,4.4,8.183,9.083,11.25,14.05
				l5.899,1.7l4.75,1.85L155.65,63c2.199,7,3.3,14.467,3.3,22.4c0,0.7,0,1.434,0,2.2l6.899,9.25l-9.3,7.551
				c-2.133,8.133-5.6,15.566-10.399,22.3l0.85,11.75l-11.7,0.6c-6.267,5.8-13.066,10.3-20.399,13.5l-5.7,10.5l-10.7-5.7
				c-4.233,0.7-8.6,1.051-13.1,1.051c-4.134,0-8.167-0.301-12.101-0.9l-5.55,3.3l-4.9,2.3L57.5,153.2
				c-8-3.233-15.367-7.983-22.1-14.25l-10.9-0.25l0.1-12.05c-0.167-0.2-0.333-0.4-0.5-0.601c-4.867-7.133-8.267-14.816-10.2-23.05
				l-8.4-6.15l6.45-8.25c-0.067-1.1-0.1-2.167-0.1-3.2c0-8.167,1.183-15.85,3.55-23.05l-4.3-10.8l11.25-4.1
				c3-4.867,6.667-9.45,11-13.75c2.267-2.233,4.617-4.3,7.05-6.2l1.4-10.2l11.35,2.2c7.967-3.9,16.583-6.217,25.85-6.95l6.35-7.25
				l7.351,7.35c9.666,0.867,18.6,3.45,26.8,7.75l10.5-2.65l1.55,10.5C133.517,29.917,135.467,31.733,137.4,33.7z"/>
		</g>
		<g>
			<linearGradient id="SVGID_36_" gradientUnits="userSpaceOnUse" x1="85.4707" y1="178.2686" x2="86.3058" y2="-10.8563">
				<stop  offset="0.0039" style="stop-color:#391B18"/>
				<stop  offset="0.2078" style="stop-color:#675333"/>
				<stop  offset="0.5569" style="stop-color:#9E8B5A"/>
				<stop  offset="0.7412" style="stop-color:#E0DEC1"/>
				<stop  offset="0.7922" style="stop-color:#E0DAA2"/>
				<stop  offset="1" style="stop-color:#A6966D"/>
			</linearGradient>
			<path style="fill-rule:evenodd;clip-rule:evenodd;fill:url(#SVGID_36_);" d="M171.6,97.95l-11.1,8.55
				c-2.1,7.533-5.366,14.6-9.8,21.2l0.45,14.55l-13.25,0.3c-6.134,5.533-12.717,9.95-19.75,13.25c-0.101,0-0.184,0.033-0.25,0.101
				l-7.15,12.8L98,161.75c-4.066,0.6-8.267,0.9-12.6,0.9c-3.833,0-7.567-0.233-11.2-0.7L61.5,168.6l-6.45-11.8
				c-0.133-0.033-0.233-0.083-0.3-0.149c-7.6-3.233-14.633-7.75-21.1-13.551l-13.55-0.55l0.6-13.95c-4.867-7-8.367-14.767-10.5-23.3
				L0.05,98.15L7.6,87.35c-0.033-0.667-0.05-1.316-0.05-1.95c0-8.033,1.083-15.617,3.25-22.75l-4.6-13.1l13.05-5.15
				c3.1-4.833,6.817-9.383,11.15-13.65c1.733-1.767,3.684-3.483,5.85-5.15l2.6-13.2l14,2.5c7.367-3.4,15.283-5.517,23.75-6.35
				l8.95-9.05L95.4,8.7c8.666,0.966,16.783,3.35,24.35,7.15l13.1-2.9l3.101,13.6c0.066,0.034,0.133,0.083,0.2,0.15
				c1.466,1.267,2.899,2.617,4.3,4.05c4.267,4.267,7.934,8.767,11,13.5l13.1,4.9l-4.6,13.3c0,0.066,0.017,0.133,0.05,0.2
				c2.134,7.133,3.2,14.717,3.2,22.75c0,0.367,0,0.733,0,1.1L171.6,97.95z M137.4,33.7c-1.934-1.967-3.884-3.784-5.851-5.45
				L130,17.75l-10.5,2.65c-8.2-4.3-17.134-6.883-26.8-7.75L85.35,5.3L79,12.55c-9.267,0.733-17.883,3.05-25.85,6.95L41.8,17.3
				l-1.4,10.2c-2.433,1.9-4.783,3.967-7.05,6.2c-4.333,4.3-8,8.883-11,13.75l-11.25,4.1l4.3,10.8c-2.367,7.2-3.55,14.883-3.55,23.05
				c0,1.033,0.033,2.1,0.1,3.2L5.5,96.85l8.4,6.15c1.934,8.233,5.333,15.917,10.2,23.05c0.167,0.2,0.333,0.4,0.5,0.601l-0.1,12.05
				l10.9,0.25c6.733,6.267,14.1,11.017,22.1,14.25l5.35,9.899l4.9-2.3l5.55-3.3c3.934,0.6,7.967,0.9,12.101,0.9
				c4.5,0,8.866-0.351,13.1-1.051l10.7,5.7l5.7-10.5c7.333-3.2,14.133-7.7,20.399-13.5l11.7-0.6l-0.85-11.75
				c4.8-6.733,8.267-14.167,10.399-22.3l9.3-7.551l-6.899-9.25c0-0.766,0-1.5,0-2.2c0-7.933-1.101-15.4-3.3-22.4l3.649-11.7
				l-4.75-1.85l-5.899-1.7C145.583,42.783,141.833,38.1,137.4,33.7z"/>
		</g>
	</g>
	<g>
		
			<linearGradient id="SVGID_37_" gradientUnits="userSpaceOnUse" x1="-155.3735" y1="84.7793" x2="-17.373" y2="84.7793" gradientTransform="matrix(9.129118e-004 -1 1 9.129117e-004 1.332138e-004 -3.050682e-004)">
			<stop  offset="0.0431" style="stop-color:#B5A271"/>
			<stop  offset="1" style="stop-color:#70634A"/>
		</linearGradient>
		<path style="fill-rule:evenodd;clip-rule:evenodd;fill:url(#SVGID_37_);" d="M111.35,22.85c8.2,3.533,15.45,8.5,21.75,14.9
			c6.334,6.367,11.217,13.667,14.65,21.9c3.6,8.567,5.4,17.533,5.4,26.9c0,9.367-1.801,18.334-5.4,26.9
			c-3.434,8.233-8.316,15.533-14.65,21.899c-6.3,6.334-13.55,11.25-21.75,14.75c-8.466,3.601-17.333,5.384-26.6,5.351
			c-9.333,0-18.217-1.816-26.65-5.45c-8.2-3.5-15.467-8.45-21.8-14.85c-6.333-6.367-11.233-13.667-14.7-21.9
			c-3.567-8.566-5.35-17.533-5.35-26.9s1.783-18.333,5.35-26.9c3.467-8.233,8.367-15.534,14.7-21.9
			c6.333-6.333,13.6-11.267,21.8-14.8c8.433-3.533,17.316-5.3,26.65-5.3C94.017,17.483,102.884,19.283,111.35,22.85z"/>
	</g>
	
		<use xlink:href="#BG_x2F_bg_dark_green"  width="134" height="134" x="0" y="-134" transform="matrix(1 0 0 -1 16.7998 20.3999)" style="overflow:visible;"/>
	<g>
		<g>
			
				<use xlink:href="#flash0.ai_x5F_3_x2F_Layer_1_x2F__x3C_Path_x3E__x5F_5"  width="110.65" height="57.35" y="-57.35" transform="matrix(1 0 0 -1 28.9502 74.3501)" style="overflow:visible;opacity:0.5781;enable-background:new    ;"/>
			
				<use xlink:href="#flash0.ai_x5F_3_x2F_Layer_1_x2F__x3C_Path_x3E__x5F_4"  width="113.65" height="58.85" y="-58.85" transform="matrix(1 0 0 -1 27.2002 72.8501)" style="overflow:visible;opacity:0.5391;enable-background:new    ;"/>
			
				<use xlink:href="#podium"  width="104.005" height="60.3" x="-0.505" y="-59.8" transform="matrix(1 0 0 -1 33.1001 76.8501)" style="overflow:visible;"/>
		</g>
	</g>
</g>
<g id="flash0.ai">
	
		<use xlink:href="#Digits_x2F_digit_2"  width="17.4" height="26.55" y="-26.55" transform="matrix(0.8024 0 0 -0.8024 72.1499 91.2998)" style="overflow:visible;"/>
	
		<use xlink:href="#Digits_x2F_digit_6"  width="18.1" height="27" y="-27" transform="matrix(0.8024 0 0 -0.8024 87.75 91.2998)" style="overflow:visible;"/>
</g>
<g id="deco">
	<g>
		<path style="fill-rule:evenodd;clip-rule:evenodd;fill-opacity:0.8784;" d="M106.55,43.15c1-0.433,2.167-0.617,3.5-0.55
			c1.367,0.1,2.634,0.45,3.8,1.05c0.934,0.5,1.75,1.167,2.45,2c0.9,1.067,1.25,2.1,1.05,3.1v0.05c1.967,0.1,3.733,0.767,5.301,2
			c0.833,0.7,1.517,1.517,2.05,2.45c0.666,1.233,0.816,2.317,0.45,3.25c-0.101,0.2-0.25,0.35-0.45,0.45h-0.2
			c2.1,0.466,3.866,1.7,5.3,3.7c0.601,0.934,1.017,1.917,1.25,2.95c0.267,1.367,0.084,2.45-0.55,3.25
			c-0.1,0.167-0.283,0.25-0.55,0.25h-0.05l-0.2-0.05c-0.467-0.133-1.134-0.466-2-1c-0.233,1.367-0.8,2.267-1.7,2.7l-0.35,0.1
			l-0.25-0.05l-0.101-0.05l-0.149-0.1c-1.434-1.267-2.483-3.2-3.15-5.8c-0.366-1.1-0.5-2.25-0.4-3.45l-0.25,0.25
			c-0.066,0.1-0.233,0.184-0.5,0.25l-0.1-0.05h-0.1l-0.15-0.05c-1.7-0.8-3.267-2.35-4.7-4.65c-0.666-1.133-1.1-2.117-1.3-2.95
			l-0.25,0.35c-0.1,0.167-0.267,0.284-0.5,0.35h-0.1l-0.051-0.05h-0.149c-1.733-0.4-3.566-1.617-5.5-3.65
			c-0.8-0.833-1.417-1.7-1.851-2.6c-0.6-1.233-0.683-2.25-0.25-3.05c0.167-0.267,0.384-0.4,0.65-0.4H106.55z M106.5,43.85
			c-0.333,0.667-0.233,1.517,0.3,2.55c0.4,0.833,0.95,1.6,1.65,2.3c1.833,1.966,3.55,3.117,5.149,3.45
			c-0.066-0.1-0.133-0.217-0.199-0.35c0.1,0.133,0.199,0.25,0.3,0.35c0.434-0.6,0.483-1.467,0.149-2.6
			c-0.1-0.367-0.233-0.733-0.399-1.1c1.2,0.3,2.25,0.367,3.149,0.2c-0.066-0.066-0.149-0.133-0.25-0.2
			c0.101,0.033,0.217,0.083,0.351,0.15c0.133-0.767-0.167-1.583-0.9-2.45c-0.633-0.767-1.399-1.4-2.3-1.9
			c-1.066-0.567-2.2-0.883-3.4-0.95c-1.267-0.1-2.366,0.067-3.3,0.5v0.05C106.7,43.85,106.6,43.85,106.5,43.85z M115.7,49.75v0.05
			c-0.101-0.066-0.2-0.117-0.3-0.15c-0.434,0.533-0.5,1.367-0.2,2.5c0.267,0.9,0.666,1.767,1.2,2.6c1.366,2.2,2.816,3.667,4.35,4.4
			c0-0.066-0.017-0.15-0.05-0.25c0.033,0.067,0.083,0.15,0.149,0.25c0.567-0.533,0.801-1.383,0.7-2.55
			c-0.033-0.367-0.1-0.717-0.2-1.05c1.101,0.467,2.117,0.7,3.051,0.7c-0.034-0.033-0.084-0.083-0.15-0.15
			c0.1,0.033,0.184,0.083,0.25,0.15c0.267-0.7,0.134-1.567-0.4-2.6c-0.466-0.867-1.1-1.633-1.899-2.3
			c-0.934-0.733-1.983-1.267-3.15-1.6c-1.2-0.333-2.316-0.383-3.35-0.15c0.3,0.033,0.6,0.1,0.899,0.2
			c-0.3-0.066-0.6-0.117-0.899-0.15v0.05c-0.094-0.031-0.16-0.065-0.2-0.1C115.54,49.638,115.606,49.688,115.7,49.75z M123.45,57.65
			v0.05c-0.101-0.1-0.184-0.184-0.25-0.25c-0.601,0.4-0.917,1.2-0.95,2.4c-0.033,0.9,0.1,1.833,0.4,2.8
			c0.733,2.567,1.716,4.383,2.949,5.45c0-0.063,0-0.129,0-0.2c0.003,0.073,0.02,0.156,0.051,0.25
			c0.699-0.367,1.166-1.117,1.399-2.25c0.066-0.367,0.117-0.75,0.15-1.15c0.899,0.8,1.8,1.35,2.7,1.65
			c-0.034-0.066-0.051-0.133-0.051-0.2c0.034,0.066,0.084,0.133,0.15,0.2c0.5-0.6,0.616-1.467,0.35-2.6
			c-0.199-0.966-0.583-1.883-1.149-2.75c-0.667-1-1.517-1.816-2.55-2.45c-1.067-0.667-2.117-1.033-3.15-1.1
			c0.233,0.1,0.467,0.233,0.7,0.4c-0.233-0.133-0.467-0.25-0.7-0.35v0.05c-0.1-0.067-0.2-0.133-0.3-0.2
			C123.267,57.467,123.35,57.55,123.45,57.65z M50.85,48.8v-0.05c-0.2-1,0.15-2.033,1.05-3.1c0.7-0.833,1.533-1.5,2.5-2
			c1.167-0.6,2.417-0.95,3.75-1.05c1.333-0.067,2.517,0.117,3.55,0.55h0.05c0.3,0,0.5,0.133,0.6,0.4c0.433,0.8,0.367,1.817-0.2,3.05
			c-0.433,0.9-1.066,1.767-1.9,2.6c-1.933,2.033-3.75,3.25-5.45,3.65h-0.2l-0.05,0.05H54.5c-0.233-0.033-0.417-0.15-0.55-0.35
			l-0.2-0.35c-0.3,1.033-0.75,2.017-1.35,2.95c-1.433,2.333-2.983,3.883-4.65,4.65l-0.2,0.05h-0.1L47.4,59.9
			c-0.267-0.066-0.433-0.15-0.5-0.25l-0.25-0.25c0.1,1.133-0.05,2.283-0.45,3.45c-0.7,2.633-1.733,4.566-3.1,5.8l-0.2,0.1
			l-0.05,0.05l-0.3,0.05l-0.3-0.1c-0.867-0.433-1.45-1.333-1.75-2.7c-0.733,0.5-1.383,0.833-1.95,1l-0.2,0.05h-0.1
			c-0.2,0-0.383-0.083-0.55-0.25c-0.633-0.8-0.8-1.883-0.5-3.25c0.2-1,0.6-1.983,1.2-2.95c1.467-2,3.233-3.233,5.3-3.7h-0.15
			c-0.267-0.133-0.417-0.284-0.45-0.45c-0.4-0.933-0.267-2.017,0.4-3.25c0.533-0.933,1.217-1.75,2.05-2.45
			C47.117,49.567,48.883,48.9,50.85,48.8z M51.6,48.65c0.933,0.167,2,0.1,3.2-0.2c-0.167,0.367-0.3,0.733-0.4,1.1
			c-0.333,1.1-0.283,1.967,0.15,2.6c0.063-0.063,0.113-0.112,0.15-0.15c-0.036,0.038-0.069,0.087-0.1,0.15
			c1.633-0.333,3.35-1.483,5.15-3.45c0.7-0.7,1.267-1.467,1.7-2.3c0.533-1.066,0.633-1.917,0.3-2.55c-0.1,0.033-0.2,0.066-0.3,0.1
			c0.066-0.034,0.15-0.067,0.25-0.1c-0.067,0-0.15,0-0.25,0V43.8c-0.967-0.433-2.067-0.6-3.3-0.5
			c-1.233,0.067-2.383,0.383-3.45,0.95c-0.9,0.5-1.667,1.133-2.3,1.9c-0.733,0.867-1.017,1.684-0.85,2.45
			c0.1-0.033,0.2-0.067,0.3-0.1C51.717,48.567,51.633,48.617,51.6,48.65z M44.85,57.7l-0.05-0.05c0.067-0.1,0.133-0.183,0.2-0.25
			c-0.067,0.033-0.15,0.083-0.25,0.15L44.7,57.6c-0.233,0.066-0.467,0.167-0.7,0.3c0.233-0.167,0.483-0.3,0.75-0.4
			c-1.067,0.067-2.117,0.433-3.15,1.1c-1.033,0.633-1.9,1.45-2.6,2.45c-0.567,0.867-0.933,1.784-1.1,2.75
			c-0.233,1.133-0.117,2,0.35,2.6c0.055-0.055,0.113-0.088,0.175-0.1c-0.056,0.013-0.098,0.046-0.125,0.1
			c0.934-0.3,1.85-0.833,2.75-1.6c0.034,0.367,0.083,0.733,0.15,1.1c0.233,1.133,0.683,1.883,1.35,2.25c0.034-0.1,0.067-0.2,0.1-0.3
			c0,0.1,0,0.183,0,0.25c1.267-1.133,2.233-2.95,2.9-5.45c0.3-0.967,0.434-1.9,0.4-2.8c-0.034-1.2-0.333-2-0.9-2.4
			C44.983,57.517,44.917,57.6,44.85,57.7z M52.55,49.8v-0.05c0.063-0.063,0.138-0.112,0.225-0.15
			c-0.089,0.035-0.181,0.069-0.275,0.1v-0.05c-0.267,0.033-0.533,0.067-0.8,0.1c0.267-0.067,0.533-0.117,0.8-0.15
			c-1-0.233-2.1-0.184-3.3,0.15c-1.167,0.333-2.233,0.867-3.2,1.6c-0.8,0.667-1.417,1.433-1.85,2.3c-0.566,1.033-0.7,1.9-0.4,2.6
			c0.033-0.033,0.083-0.067,0.15-0.1c-0.033,0.033-0.066,0.067-0.1,0.1c0.967,0,2-0.233,3.1-0.7c-0.1,0.333-0.167,0.684-0.2,1.05
			c-0.1,1.167,0.117,2.017,0.65,2.55c0.1-0.133,0.2-0.283,0.3-0.45c-0.066,0.133-0.133,0.283-0.2,0.45
			c1.533-0.733,2.983-2.2,4.35-4.4c0.567-0.833,0.983-1.7,1.25-2.6c0.3-1.133,0.217-1.967-0.25-2.5
			C52.7,49.683,52.617,49.733,52.55,49.8z"/>
		
			<linearGradient id="SVGID_38_" gradientUnits="userSpaceOnUse" x1="-70.8936" y1="118.3672" x2="-38.6436" y2="118.3672" gradientTransform="matrix(3.100775e-005 -1 1 -0.001 -9.536857e-005 4.674215e-004)">
			<stop  offset="0.0745" style="stop-color:#000000;stop-opacity:0.5294"/>
			<stop  offset="0.9647" style="stop-color:#000000;stop-opacity:0.102"/>
		</linearGradient>
		<path style="fill-rule:evenodd;clip-rule:evenodd;fill:url(#SVGID_38_);" d="M106.55,43.15h-0.05c-0.267,0-0.483,0.133-0.65,0.4
			c-0.433,0.8-0.35,1.817,0.25,3.05c0.434,0.9,1.051,1.767,1.851,2.6c1.934,2.033,3.767,3.25,5.5,3.65h0.149l0.051,0.05h0.1
			c0.233-0.066,0.4-0.183,0.5-0.35l0.25-0.35c0.2,0.833,0.634,1.816,1.3,2.95c1.434,2.3,3,3.85,4.7,4.65l0.15,0.05h0.1l0.1,0.05
			c0.267-0.066,0.434-0.15,0.5-0.25l0.25-0.25c-0.1,1.2,0.034,2.35,0.4,3.45c0.667,2.6,1.717,4.533,3.15,5.8l0.149,0.1l0.101,0.05
			l0.25,0.05l0.35-0.1c0.9-0.433,1.467-1.333,1.7-2.7c0.866,0.534,1.533,0.867,2,1l0.2,0.05h0.05c0.267,0,0.45-0.083,0.55-0.25
			c0.634-0.8,0.816-1.883,0.55-3.25c-0.233-1.033-0.649-2.017-1.25-2.95c-1.434-2-3.2-3.233-5.3-3.7h0.2
			c0.2-0.1,0.35-0.25,0.45-0.45c0.366-0.933,0.216-2.017-0.45-3.25c-0.533-0.933-1.217-1.75-2.05-2.45
			c-1.567-1.233-3.334-1.9-5.301-2v-0.05c0.2-1-0.149-2.033-1.05-3.1c-0.7-0.833-1.517-1.5-2.45-2c-1.166-0.6-2.433-0.95-3.8-1.05
			C108.717,42.533,107.55,42.717,106.55,43.15z M104.6,42.85V42.8c0.301-0.566,0.817-0.933,1.551-1.1c1-0.367,2.083-0.55,3.25-0.55
			c1.899,0,3.616,0.4,5.149,1.2c1,0.566,1.867,1.25,2.601,2.05c0.933,1,1.483,2,1.649,3l0.101,0.1c1.699,0.367,3.267,1.1,4.699,2.2
			c0.967,0.833,1.75,1.783,2.351,2.85c0.7,1.267,0.967,2.45,0.8,3.55l0.05,0.15c1.7,0.833,3.101,2.033,4.2,3.6
			c0.767,1.167,1.267,2.417,1.5,3.75c0.3,1.7,0.017,3.083-0.85,4.15c-0.434,0.533-1,0.8-1.7,0.8h-0.2l-0.5-0.1l-0.65-0.25
			l-0.149,0.05c-0.434,0.8-1.033,1.4-1.8,1.8c-0.334,0.167-0.667,0.25-1,0.25c-0.301,0-0.584-0.05-0.851-0.15L124.6,70l-0.449-0.25
			c-1.601-1.433-2.784-3.6-3.551-6.5c-0.199-0.7-0.333-1.35-0.399-1.95l-0.101-0.1l-0.199-0.1c-1.967-0.867-3.733-2.583-5.301-5.15
			l-0.85-1.55l-0.15-0.05h-0.1l-0.4-0.05c-2.1-0.533-4.149-1.9-6.149-4.1c-0.834-0.767-1.517-1.684-2.05-2.75
			C103.967,45.717,103.866,44.183,104.6,42.85z"/>
		<path style="fill-rule:evenodd;clip-rule:evenodd;fill:#FFFFFF;fill-opacity:0.8;" d="M104.6,42.85
			c-0.733,1.333-0.633,2.867,0.301,4.6c0.533,1.066,1.216,1.983,2.05,2.75c2,2.2,4.05,3.566,6.149,4.1l0.4,0.05h0.1l0.15,0.05
			l0.85,1.55c1.567,2.566,3.334,4.283,5.301,5.15l0.199,0.1l0.101,0.1c0.066,0.6,0.2,1.25,0.399,1.95
			c0.767,2.9,1.95,5.067,3.551,6.5L124.6,70l0.2,0.15c0.267,0.1,0.55,0.15,0.851,0.15c0.333,0,0.666-0.083,1-0.25
			c0.767-0.4,1.366-1,1.8-1.8l0.149-0.05l0.65,0.25l0.5,0.1h0.2c0.7,0,1.267-0.267,1.7-0.8c0.866-1.067,1.149-2.45,0.85-4.15
			c-0.233-1.333-0.733-2.583-1.5-3.75c-1.1-1.567-2.5-2.767-4.2-3.6l-0.05-0.15c0.167-1.1-0.1-2.283-0.8-3.55
			c-0.601-1.066-1.384-2.017-2.351-2.85c-1.433-1.1-3-1.833-4.699-2.2l-0.101-0.1c-0.166-1-0.717-2-1.649-3
			c-0.733-0.8-1.601-1.483-2.601-2.05c-1.533-0.8-3.25-1.2-5.149-1.2c-1.167,0-2.25,0.184-3.25,0.55
			c-0.733,0.167-1.25,0.533-1.551,1.1V42.85z M106.1,41.45c1-0.367,2.101-0.55,3.301-0.55c1.899,0,3.649,0.417,5.25,1.25
			c1,0.533,1.883,1.217,2.649,2.05c0.934,1,1.517,2.033,1.75,3.1c1.8,0.367,3.367,1.1,4.7,2.2c1,0.833,1.8,1.8,2.4,2.9
			c0.733,1.267,1.017,2.483,0.85,3.65c1.7,0.867,3.116,2.1,4.25,3.7c0.767,1.2,1.267,2.483,1.5,3.85c0.3,1.767,0,3.2-0.9,4.3
			c-0.433,0.6-1.066,0.9-1.899,0.9h-0.2l-0.6-0.1l-0.551-0.2c-0.5,0.833-1.1,1.433-1.8,1.8c-0.399,0.167-0.783,0.25-1.149,0.25
			c-0.367,0-0.684-0.066-0.95-0.2L124,69.9c-1.634-1.4-2.85-3.583-3.65-6.55c-0.199-0.7-0.333-1.35-0.399-1.95l-0.2-0.05
			c-1.967-0.9-3.75-2.65-5.35-5.25l-0.851-1.5h-0.05l-0.45-0.1c-2.033-0.467-4.133-1.833-6.3-4.1c-0.866-0.867-1.566-1.816-2.1-2.85
			c-0.934-1.833-1.034-3.433-0.301-4.8l0.051-0.05C104.767,42.033,105.333,41.617,106.1,41.45z M49.3,47.5
			c-1.633,0.333-3.2,1.067-4.7,2.2c-0.967,0.833-1.733,1.783-2.3,2.85c-0.733,1.267-1.017,2.45-0.85,3.55
			c0.066,0.1,0.05,0.15-0.05,0.15c-1.633,0.8-3.033,2.017-4.2,3.65c-0.767,1.133-1.267,2.367-1.5,3.7
			c-0.3,1.7-0.017,3.083,0.85,4.15c0.434,0.533,1,0.8,1.7,0.8h0.2l0.55-0.1l0.6-0.25h0.05l0.1,0.05c0.467,0.8,1.067,1.4,1.8,1.8
			c0.333,0.167,0.667,0.25,1,0.25v0.15l0.05-0.15l0.85-0.15l0.6-0.4c1.6-1.433,2.784-3.6,3.55-6.5c0.2-0.7,0.35-1.35,0.45-1.95
			l0.05-0.1l0.25-0.1c1.933-0.867,3.683-2.583,5.25-5.15c0.233-0.267,0.533-0.784,0.9-1.55l0.1-0.05h0.1l0.4-0.05
			c1.9-0.466,3.967-1.816,6.2-4.05c0.833-0.833,1.517-1.767,2.05-2.8c0.9-1.733,1-3.267,0.3-4.6L63.6,42.8
			c-0.3-0.566-0.8-0.933-1.5-1.1c-1.033-0.367-2.133-0.55-3.3-0.55c-1.867,0-3.583,0.4-5.15,1.2c-0.967,0.533-1.833,1.217-2.6,2.05
			c-0.9,1-1.45,2-1.65,3L49.3,47.5z M58.8,40.9c1.3,0,2.417,0.2,3.35,0.6c0.767,0.1,1.333,0.5,1.7,1.2v0.05
			c0.733,1.367,0.633,2.967-0.3,4.8c-0.533,1.034-1.233,1.983-2.1,2.85c-2.034,2.233-4.133,3.6-6.3,4.1l-0.45,0.1h-0.05
			c-0.167,0.433-0.45,0.933-0.85,1.5c-1.6,2.6-3.383,4.35-5.35,5.25l-0.2,0.05c-0.067,0.6-0.2,1.25-0.4,1.95
			c-0.8,2.967-2.017,5.15-3.65,6.55l-0.45,0.35l-0.2,0.1c-0.3,0.133-0.617,0.2-0.95,0.2h-0.05c-0.333,0-0.7-0.083-1.1-0.25
			c-0.767-0.4-1.383-1-1.85-1.8l-0.55,0.2l-0.55,0.1h-0.25c-0.8,0-1.433-0.3-1.9-0.9c-0.9-1.1-1.2-2.533-0.9-4.3
			c0.233-1.367,0.75-2.65,1.55-3.85c1.1-1.567,2.5-2.8,4.2-3.7c-0.133-1.167,0.167-2.383,0.9-3.65c0.6-1.1,1.383-2.066,2.35-2.9
			c1.433-1.133,3.017-1.867,4.75-2.2c0.2-1.066,0.767-2.1,1.7-3.1c0.767-0.833,1.65-1.517,2.65-2.05
			C55.217,41.317,56.967,40.9,58.8,40.9z"/>
		<linearGradient id="SVGID_39_" gradientUnits="userSpaceOnUse" x1="123.1719" y1="50.1035" x2="117.0719" y2="49.9535">
			<stop  offset="0" style="stop-color:#7BA0FD"/>
			<stop  offset="0.2471" style="stop-color:#6C8BD4"/>
			<stop  offset="0.7647" style="stop-color:#4D5F81"/>
			<stop  offset="1" style="stop-color:#414E61"/>
		</linearGradient>
		<path style="fill-rule:evenodd;clip-rule:evenodd;fill:url(#SVGID_39_);" d="M115.7,49.75c0.133,0.1,0.283,0.217,0.45,0.35
			c-0.167-0.1-0.317-0.2-0.45-0.3V49.75z"/>
		<linearGradient id="SVGID_40_" gradientUnits="userSpaceOnUse" x1="131.0439" y1="62.9663" x2="124.0939" y2="58.1413">
			<stop  offset="0" style="stop-color:#7BA0FD"/>
			<stop  offset="0.2471" style="stop-color:#6C8BD4"/>
			<stop  offset="0.7647" style="stop-color:#4D5F81"/>
			<stop  offset="1" style="stop-color:#414E61"/>
		</linearGradient>
		<path style="fill-rule:evenodd;clip-rule:evenodd;fill:url(#SVGID_40_);" d="M123.45,57.65c0.03,0.061,0.071,0.119,0.125,0.175
			c-0.054-0.053-0.095-0.095-0.125-0.125V57.65z"/>
		
			<linearGradient id="SVGID_41_" gradientUnits="userSpaceOnUse" x1="-72.7642" y1="46.5811" x2="-44.3412" y2="46.5811" gradientTransform="matrix(-0.0581 -0.9983 0.9983 -0.0581 6.534159e-006 -3.644451e-005)">
			<stop  offset="0.0745" style="stop-color:#000000;stop-opacity:0.5294"/>
			<stop  offset="0.9647" style="stop-color:#000000;stop-opacity:0.102"/>
		</linearGradient>
		<path style="fill-rule:evenodd;clip-rule:evenodd;fill:url(#SVGID_41_);" d="M49.3,47.5l0.1-0.1c0.2-1,0.75-2,1.65-3
			c0.767-0.833,1.633-1.517,2.6-2.05c1.567-0.8,3.283-1.2,5.15-1.2c1.167,0,2.267,0.184,3.3,0.55c0.7,0.167,1.2,0.533,1.5,1.1
			l0.05,0.05c0.7,1.333,0.6,2.867-0.3,4.6c-0.533,1.033-1.217,1.966-2.05,2.8c-2.233,2.233-4.3,3.583-6.2,4.05l-0.4,0.05h-0.1
			l-0.1,0.05c-0.367,0.767-0.667,1.283-0.9,1.55c-1.567,2.566-3.317,4.283-5.25,5.15l-0.25,0.1l-0.05,0.1
			c-0.1,0.6-0.25,1.25-0.45,1.95c-0.767,2.9-1.95,5.067-3.55,6.5l-0.6,0.4L42.6,70.3l-0.05,0.15V70.3c-0.333,0-0.667-0.083-1-0.25
			c-0.733-0.4-1.333-1-1.8-1.8l-0.1-0.05H39.6L39,68.45l-0.55,0.1h-0.2c-0.7,0-1.267-0.267-1.7-0.8
			c-0.867-1.067-1.15-2.45-0.85-4.15c0.233-1.333,0.733-2.567,1.5-3.7c1.167-1.633,2.566-2.85,4.2-3.65c0.1,0,0.117-0.05,0.05-0.15
			c-0.167-1.1,0.117-2.283,0.85-3.55c0.567-1.066,1.333-2.017,2.3-2.85C46.1,48.567,47.667,47.833,49.3,47.5z M50.85,48.8
			c-1.967,0.1-3.733,0.767-5.3,2c-0.833,0.7-1.517,1.517-2.05,2.45c-0.667,1.233-0.8,2.317-0.4,3.25
			c0.033,0.167,0.183,0.317,0.45,0.45h0.15c-2.067,0.466-3.833,1.7-5.3,3.7c-0.6,0.967-1,1.95-1.2,2.95
			c-0.3,1.367-0.133,2.45,0.5,3.25c0.167,0.167,0.35,0.25,0.55,0.25h0.1l0.2-0.05c0.567-0.167,1.217-0.5,1.95-1
			c0.3,1.367,0.883,2.267,1.75,2.7l0.3,0.1l0.3-0.05l0.05-0.05l0.2-0.1c1.367-1.233,2.4-3.167,3.1-5.8
			c0.4-1.167,0.55-2.317,0.45-3.45l0.25,0.25c0.067,0.1,0.233,0.184,0.5,0.25l0.05-0.05h0.1l0.2-0.05
			c1.667-0.767,3.217-2.316,4.65-4.65c0.6-0.933,1.05-1.917,1.35-2.95l0.2,0.35c0.133,0.2,0.316,0.317,0.55,0.35h0.05l0.05-0.05h0.2
			c1.7-0.4,3.517-1.617,5.45-3.65c0.833-0.833,1.467-1.7,1.9-2.6c0.567-1.233,0.633-2.25,0.2-3.05c-0.1-0.267-0.3-0.4-0.6-0.4H61.7
			c-1.034-0.433-2.217-0.617-3.55-0.55c-1.333,0.1-2.583,0.45-3.75,1.05c-0.967,0.5-1.8,1.167-2.5,2c-0.9,1.067-1.25,2.1-1.05,3.1
			V48.8z"/>
		
			<linearGradient id="SVGID_42_" gradientUnits="userSpaceOnUse" x1="-58.6792" y1="49.3535" x2="-52.5692" y2="49.3535" gradientTransform="matrix(-0.0573 -0.9984 0.9984 -0.0573 -3.348663e-005 -9.028874e-004)">
			<stop  offset="0" style="stop-color:#7BA0FD"/>
			<stop  offset="0.2471" style="stop-color:#6C8BD4"/>
			<stop  offset="0.7647" style="stop-color:#4D5F81"/>
			<stop  offset="1" style="stop-color:#414E61"/>
		</linearGradient>
		<path style="fill-rule:evenodd;clip-rule:evenodd;fill:url(#SVGID_42_);" d="M52.55,49.8c-0.167,0.1-0.333,0.2-0.5,0.3
			c0.167-0.133,0.333-0.25,0.5-0.35V49.8z"/>
		
			<linearGradient id="SVGID_43_" gradientUnits="userSpaceOnUse" x1="-68.5283" y1="41.1401" x2="-60.0885" y2="41.1401" gradientTransform="matrix(-0.0592 -0.9982 0.9982 -0.0592 2.013333e-004 -7.463060e-004)">
			<stop  offset="0" style="stop-color:#7BA0FD"/>
			<stop  offset="0.2471" style="stop-color:#6C8BD4"/>
			<stop  offset="0.7647" style="stop-color:#4D5F81"/>
			<stop  offset="1" style="stop-color:#414E61"/>
		</linearGradient>
		<path style="fill-rule:evenodd;clip-rule:evenodd;fill:url(#SVGID_43_);" d="M44.85,57.7c-0.133,0.133-0.267,0.283-0.4,0.45
			c0.133-0.2,0.25-0.367,0.35-0.5L44.85,57.7z"/>
		<g>
			<path style="fill-rule:evenodd;clip-rule:evenodd;fill:#FFFFFF;fill-opacity:0;" d="M150.3,77.4
				c0,18.267-6.467,33.867-19.399,46.8c-12.934,12.934-28.517,19.399-46.75,19.399c-18.267,0-33.867-6.466-46.8-19.399
				c-12.934-12.934-19.4-28.533-19.4-46.8c0-18.267,6.466-33.867,19.4-46.8c12.933-12.934,28.533-19.4,46.8-19.4
				c18.234,0,33.817,6.466,46.75,19.4C143.833,43.533,150.3,59.133,150.3,77.4z"/>
		</g>
		
			<use xlink:href="#zzz_x5F_miscellaneous_x2F_laurel_working"  width="92.706" height="24.878" x="-0.017" y="-24.9" transform="matrix(1 0 0 -1 37.7998 43.25)" style="overflow:visible;"/>
	</g>
</g>
<g id="number">
	
		<use xlink:href="#Digits_x2F_digit_7"  width="18.3" height="26.35" y="-26.35" transform="matrix(1 0 0 -1 77.3501 33.5498)" style="overflow:visible;"/>
</g>
<g id="Layer_1">
	
		<use xlink:href="#zz_x5F_Highlight_x2F_Highlight_Piece"  width="118.7" height="115.9" y="-115.9" transform="matrix(1 0 0 -1 24.6001 29.8999)" style="overflow:visible;"/>
</g>
<g id="Layer_2">
	
		<use xlink:href="#feat_x5F_3"  width="177.48" height="71.6" x="0.01" y="-71.6" transform="matrix(0.95 0 0 -0.95 1 98.2998)" style="overflow:visible;"/>
</g>
</svg>
