<?xml version="1.0" encoding="iso-8859-1"?>
<!-- Generator: Adobe Illustrator 15.1.0, SVG Export Plug-In . SVG Version: 6.00 Build 0)  -->
<!DOCTYPE svg PUBLIC "-//W3C//DTD SVG 1.1//EN" "http://www.w3.org/Graphics/SVG/1.1/DTD/svg11.dtd">
<svg version="1.1" id="Layer_1" xmlns="http://www.w3.org/2000/svg" xmlns:xlink="http://www.w3.org/1999/xlink" x="0px" y="0px"
	 width="171.7px" height="171.8px" viewBox="0 0 171.7 171.8" style="enable-background:new 0 0 171.7 171.8;" xml:space="preserve"
	>
<symbol  id="FlashAICB_x2F_Layer_1_x2F__x3C_Clip_Group_0_x3E_" viewBox="0 -36.2 37.8 36.2">
	<g id="Layer_1_11_">
	</g>
	<g>
		<defs>
			<polygon id="SVGID_1_" points="0,0 0,-36.2 37.8,-36.2 37.8,0 			"/>
		</defs>
		<clipPath id="SVGID_2_">
			<use xlink:href="#SVGID_1_"  style="overflow:visible;"/>
		</clipPath>
		<g id="Layer_3_10_" style="clip-path:url(#SVGID_2_);">
			<path style="fill-rule:evenodd;clip-rule:evenodd;fill:#DDADA6;" d="M21.55-4.65l1.4-1.95L23.6-8v-0.05
				c0.1-0.167,0.15-0.35,0.15-0.55l0.15-0.25l0.15-0.65l0.15-0.3l0.1-0.55l0.35-1l0.1-0.05l0.9-2.2l1.25-1.95l0.5-0.6
				c0.767-0.9,1.684-1.517,2.75-1.85c-0.5-0.233-1-0.85-1.5-1.85c-0.6-1.033-0.767-2.533-0.5-4.5l0.85,2.4
				c0.433,1.1,0.95,2.017,1.55,2.75c-0.4-0.867-0.6-1.6-0.6-2.2l0.1-0.75l1.9,4l0.15,0.05l-0.05-0.25l0.1-2.8l0.3,1.1
				c0.2,0.9,0.3,1.583,0.3,2.05c1.267,0.3,2.683,1.05,4.25,2.25l0.2,0.15l0.15,0.15l-0.1-0.4c1.133-1.533,0.5-6-1.9-13.4
				c-2.9-0.2-7.233-0.75-13-1.65c0.4,0.333,0.8,0.617,1.2,0.85l-0.15,0.1l-1.2-0.75l1,1.05c-0.667-0.367-1.267-0.833-1.8-1.4h-0.2
				c0.3,0.267,0.517,0.583,0.65,0.95l-1.25-1.05h-0.35c0.433,0.3,0.65,0.533,0.65,0.7c0,0.067-0.033,0.117-0.1,0.15l-1.4-1.1h-0.1
				l-0.775-0.175L19.55-30.9v0.05l0.3,0.15l-0.1,0.1l-2.9-0.95c0.133,0.1,0.2,0.233,0.2,0.4l0.1,0.2L15.65-32l-1.15-0.4l-0.55-0.1
				l-0.15-0.05l0.35,0.2l1,0.45c0.8,0.367,1.217,0.65,1.25,0.85l-1.5-0.75l0.15,0.2c-0.533-0.1-1.216-0.35-2.05-0.75l0.1,0.1
				L13-32.2l-1.2-0.55l-0.45-0.05c0.433,0.267,0.65,0.417,0.65,0.45l-1.05-0.45l-0.15-0.05c0.534,0.333,0.8,0.6,0.8,0.8l-0.1,0.1
				l-1.8-0.9H9.1l0.15,0.15l-0.3-0.15H8.4l0.3,0.3L8.05-32.8h-0.2c-0.233,0.333-1,1.783-2.3,4.35c-0.966,2-1.733,3.883-2.3,5.65
				C0.75-16.733-0.3-11.417,0.1-6.85C0.2-3.917,0.667-1.633,1.5,0l6.85-0.15c0.967-0.067,1.917-0.167,2.85-0.3l1.3-0.2
				c1.367-0.2,2.65-0.467,3.85-0.8L16.4-1.5l2.35,0.25c-0.467-0.267-1.083-0.417-1.85-0.45l0.45-0.2c0.533,0.066,1.083,0.1,1.65,0.1
				l1.2-0.1l-2.25-0.25l0.65-0.3L18.55-2.5h0.35c0.733-0.1,1.367-0.333,1.9-0.7L21-3.3h-0.85l0.6-0.5l0.15-0.15L21-4h-0.1
				L21.55-4.65z"/>
			<path style="fill-rule:evenodd;clip-rule:evenodd;fill:#CE8580;" d="M30.3-17.95l1-0.1L31.35-18H32l-0.05-0.15l-1.9-4l-0.1,0.75
				c0,0.6,0.2,1.333,0.6,2.2c-0.6-0.733-1.117-1.65-1.55-2.75l-0.85-2.4c-0.267,1.967-0.1,3.467,0.5,4.5c0.5,1,1,1.617,1.5,1.85
				L30.3-17.95z M32.75-18c0-0.467-0.1-1.15-0.3-2.05l-0.3-1.1l-0.1,2.8l0.05,0.25l0.05,0.1l0.6,0.15V-18z M19.55-30.9l-1.025-0.675
				L19.3-31.4h0.1l1.4,1.1c0.067-0.034,0.1-0.083,0.1-0.15c0-0.167-0.217-0.4-0.65-0.7h0.35l1.25,1.05
				c-0.133-0.367-0.35-0.683-0.65-0.95h0.2c0.533,0.566,1.133,1.033,1.8,1.4l-1-1.05l1.2,0.75l0.15-0.1
				c-0.4-0.233-0.8-0.517-1.2-0.85c5.767,0.9,10.1,1.45,13,1.65L36-29.2l-0.85-0.55l-0.1-0.3l-3.1-1.35
				c-1.633-0.767-4.883-1.667-9.75-2.7L13.85-36c-0.434-0.067-1.533-0.133-3.3-0.2l1.15,0.15c-0.8-0.067-1.483,0.216-2.05,0.85
				c-0.6,0.7-1.2,1.5-1.8,2.4h0.2l0.65,0.25l-0.3-0.3h0.55l0.3,0.15L9.1-32.85h0.6l1.8,0.9l0.1-0.1c0-0.2-0.267-0.467-0.8-0.8
				l0.15,0.05L12-32.35c0-0.033-0.217-0.183-0.65-0.45l0.45,0.05L13-32.2l0.1-0.05l-0.1-0.1c0.833,0.4,1.517,0.65,2.05,0.75
				l-0.15-0.2l1.5,0.75c-0.033-0.2-0.45-0.483-1.25-0.85l-1-0.45l-0.35-0.2l0.15,0.05l0.55,0.1l1.15,0.4l1.5,1.05l-0.1-0.2
				c0-0.167-0.066-0.3-0.2-0.4l2.9,0.95l0.1-0.1l-0.3-0.15V-30.9z"/>
		</g>
	</g>
	<g id="Layer_4_10_">
	</g>
</symbol>
<symbol  id="FlashAICB_x2F_Layer_1_x2F__x3C_Clip_Group_0_x3E__x5F_0" viewBox="0 -25.05 19.3 25.05">
	<g id="Layer_1_20_">
	</g>
	<g>
		<defs>
			<polygon id="SVGID_3_" points="5.65,0 0,-24.05 13.65,-25.05 19.3,-1 			"/>
		</defs>
		<clipPath id="SVGID_4_">
			<use xlink:href="#SVGID_3_"  style="overflow:visible;"/>
		</clipPath>
		<g id="Layer_3_19_" style="clip-path:url(#SVGID_4_);">
			<path style="fill-rule:evenodd;clip-rule:evenodd;fill:#DDADA6;" d="M19-2.25L15.95-7.9l-0.4-0.6
				c-0.5-0.667-0.883-1.267-1.15-1.8l-0.2-0.35v-0.05h-0.05l-0.2-0.5l-0.15-0.15c-1.2-1.933-1.95-4-2.25-6.2l-0.2-1.25L11.3-19
				l0.05-0.05L9.8-19.4H9.7l-0.6,1.05H9c0.167-0.467,0.333-0.833,0.5-1.1H9.25c-0.167,0.4-0.3,0.65-0.4,0.75L8.7-18.8L9-19.5H8.8
				l-0.25,0.05c-0.23,0.527-0.347,0.844-0.35,0.95c0-0.334,0.05-0.651,0.15-0.95l-0.4,0.05L7.8-19.1
				c-0.2,0.567-0.283,0.85-0.25,0.85l-0.05,0.2c-0.133-0.034-0.2-0.083-0.2-0.15l0.25-1.05v-0.1L7.2-19.2l-0.8,4.45
				c-0.1,0.733-0.15,1.467-0.15,2.2v0.25c-0.033,0.733,0,1.517,0.1,2.35l0.25,1.5v0.1l0.05,0.2l0.1,0.2L6.6-8.2
				C6.233-8.833,5.983-9.383,5.85-9.85H5.7L5.8-9.2C5.967-8.567,6.367-7.867,7-7.1l0.2,0.75L6.65-7.4H6.6l0.05,0.45
				C6.717-6.683,6.983-6.2,7.45-5.5L7.5-5.45L7.85-4.3L6.8-6.2H6.75l0.6,1.4v0.1L7.4-4.55l-0.55-0.7H6.8c0.333,0.6,0.583,1,0.75,1.2
				l0.05,0.1l-0.45-0.6H7L7.1-4.1L7.9-3l0.05,0.05l0.35,0.6l-0.4-0.4H7.85L8.6-1.7h0.05L8.55-2l0.1,0.2l0.3,0.85
				c-0.2-0.267-0.4-0.583-0.6-0.95h-0.1C8.517-1.4,8.767-1.05,9-0.85l0.15,0.6c4.434-0.3,7.7-0.933,9.8-1.9L19-2.2V-2.25z"/>
			<path style="fill-rule:evenodd;clip-rule:evenodd;fill:#CE8580;" d="M17.5-6.15l-2.95-4.55H14.2v0.05l0.2,0.35
				c0.267,0.533,0.65,1.133,1.15,1.8l0.4,0.6L19-2.25C18.767-3.617,18.267-4.917,17.5-6.15z M9-0.85C8.767-1.05,8.517-1.4,8.25-1.9
				h0.1c0.2,0.367,0.4,0.683,0.6,0.95L8.65-1.8L8.55-2l0.1,0.3H8.6L7.85-2.75H7.9l0.4,0.4l-0.35-0.6L7.9-3L7.1-4.1L7-4.55h0.15
				l0.45,0.6l-0.05-0.1c-0.167-0.2-0.417-0.6-0.75-1.2h0.05l0.55,0.7L7.35-4.7v-0.1l-0.6-1.4H6.8l1.05,1.9L7.5-5.45L7.45-5.5
				c-0.467-0.7-0.733-1.183-0.8-1.45L6.6-7.4h0.05L7.2-6.35L7-7.1C6.367-7.867,5.967-8.567,5.8-9.2L5.7-9.85h0.15
				C5.983-9.383,6.233-8.833,6.6-8.2l0.15,0.25l-0.1-0.2L6.6-8.35v-0.1l-0.25-1.5c-0.1-0.833-0.133-1.617-0.1-2.35v-0.25
				c0-0.733,0.05-1.467,0.15-2.2l0.8-4.45l-3.65,0.5l-0.45,3c-0.133,1.067-0.2,2.067-0.2,3c0.1,2.267,0.767,4.517,2,6.75
				C5.867-4.083,7-2.4,8.3-0.9l0.85,0.65L9-0.85z"/>
			<path style="fill-rule:evenodd;clip-rule:evenodd;fill:#8E463F;" d="M9.5-19.45c0.133-0.233,0.317-0.433,0.55-0.6L9.7-19.4h0.1
				l1.55,0.35c0.367-1.534,0.55-3.2,0.55-5l-1.3,0.7c-0.934,0.867-1.667,1.684-2.2,2.45l-0.35-0.75L7.2-19.2l0.35-0.15
				c0.267-0.633,0.483-1.017,0.65-1.15l-0.05,0.1c0,0.3-0.066,0.633-0.2,1l0.4-0.05c0.167-0.633,0.433-1.133,0.8-1.5l0.1,0.05
				l-0.7,1.45L8.8-19.5H9l0.05-0.05c0.2-0.4,0.383-0.633,0.55-0.7l-0.35,0.8H9.5z"/>
			<path style="fill-rule:evenodd;clip-rule:evenodd;fill:#D28C84;" d="M9.1-18.35l0.95-1.7c-0.233,0.167-0.417,0.367-0.55,0.6
				c-0.167,0.267-0.333,0.633-0.5,1.1H9.1z M7.5-18.05l0.05-0.2c-0.033,0,0.05-0.283,0.25-0.85l0.15-0.3c0.133-0.367,0.2-0.7,0.2-1
				l0.05-0.1c-0.167,0.133-0.383,0.517-0.65,1.15v0.1L7.3-18.2C7.3-18.133,7.367-18.083,7.5-18.05z M9-19.5l-0.3,0.7l0.15,0.1
				c0.1-0.1,0.233-0.35,0.4-0.75l0.35-0.8c-0.167,0.067-0.35,0.3-0.55,0.7L9-19.5z M9.15-20.95c-0.367,0.367-0.633,0.867-0.8,1.5
				c-0.1,0.299-0.15,0.616-0.15,0.95c0.002-0.106,0.119-0.423,0.35-0.95l0.7-1.45L9.15-20.95z"/>
			<path style="fill-rule:evenodd;clip-rule:evenodd;fill:#6E332F;" d="M3.55-18.7l3.65-0.5l0.85-2.45l-0.85-2.9l-0.55,0.6
				C5.217-22.417,4.183-20.667,3.55-18.7z"/>
		</g>
	</g>
	<g id="Layer_4_19_">
	</g>
</symbol>
<symbol  id="FlashAICB_x2F_Layer_1_x2F__x3C_Clip_Group_0_x3E__x5F_1" viewBox="-0.002 -13.2 10.752 13.2">
	<g id="Layer_1_19_">
	</g>
	<g>
		<defs>
			<polygon id="SVGID_5_" points="0,0 0,-13.2 10.75,-13.2 10.75,0 			"/>
		</defs>
		<clipPath id="SVGID_6_">
			<use xlink:href="#SVGID_5_"  style="overflow:visible;"/>
		</clipPath>
		<g id="Layer_3_18_" style="clip-path:url(#SVGID_6_);">
			<path style="fill-rule:evenodd;clip-rule:evenodd;fill:#DDADA6;" d="M10.35-8.35l0.05-0.4l0.15-0.15v0.45h0.1L10.7-9.8
				c0-0.233-0.034-0.417-0.1-0.55l0.15,0.15l-0.4-3h-7.7l-1.1,2.3l-0.5,0.7c-1.466,2.5-1.4,5.45,0.2,8.85l-0.8,0.4H0.5l0.45-0.1H0.9
				l0.4-0.1h0.05l0.5-0.1C1.017-0.883,0.5-0.467,0.3,0h0.05c0.167-0.267,0.5-0.533,1-0.8L2-1.1L1.8-0.75h0.05L2.1-1v0.05h0.05
				l1.3-0.65l0.6-0.2c0-0.034-0.033-0.05-0.1-0.05L3.75-1.8L4-1.9c2.067-0.733,3.6-1.55,4.6-2.45L9.4-5.6C9.333-5.3,9.2-5.033,9-4.8
				c0.367-0.267,0.617-0.784,0.75-1.55L10-7.05l-0.075,0.5c0.059-0.29,0.167-0.54,0.325-0.75c0.067-0.133,0.1-0.383,0.1-0.75V-8.35z
				 M9.6-12.7l0.05,0.25L9.8-12.5h0.1v0.4H9.8v0.3l0.1,0.15v0.75C9.267-8.3,8.117-6.467,6.45-5.4C4.383-4.1,3.267-3.583,3.1-3.85
				C3.033-3.783,2.967-3.967,2.9-4.4L2.85-4.45V-4.5L2.65-5C1.617-7.533,1.967-9.967,3.7-12.3l1.9-0.15l-0.65,0.5H5
				c0.333-0.033,0.667-0.216,1-0.55l0.35-0.05c-0.367,0.5-0.8,0.8-1.3,0.9v0.25c0.333-0.1,0.667-0.25,1-0.45
				c0.367-0.2,0.65-0.45,0.85-0.75l0.2-0.05c-0.267,0.367-0.45,0.6-0.55,0.7H6.6c0.233-0.133,0.467-0.367,0.7-0.7l0.2-0.05
				l-0.45,0.55c-0.9,0.8-1.466,1.333-1.7,1.6H5.5l1.45-1.4L6.3-10.9h0.15l1.1-1.55c0.133,0,0.25-0.05,0.35-0.15
				c-0.233,0.4-0.367,0.684-0.4,0.85h0.1l0.15-0.15c-0.333,0.9-0.767,1.583-1.3,2.05l0.05,0.1c0.667-0.467,1.167-1.167,1.5-2.1
				l0.05-0.2h0.1c-0.066-0.2,0.083-0.483,0.45-0.85l0.05,0.3L8.3-12c0.067,0.033,0.184-0.05,0.35-0.25l0.05,0.1l-0.05,0.5l-0.3,0.35
				l0.05,0.1l0.2-0.2c-0.167,0.533-0.35,0.933-0.55,1.2l0.15,0.05c0.3-0.6,0.5-1.117,0.6-1.55c0.267-0.267,0.483-0.566,0.65-0.9H9.5
				L9.6-12.7l0.25-0.45l0.05,0.4L9.6-12.7z"/>
			<path style="fill-rule:evenodd;clip-rule:evenodd;fill:#BE6F64;" d="M2.65-5l0.2,0.5v0.05L2.9-4.4
				c0.067,0.433,0.133,0.617,0.2,0.55C3.267-3.583,4.383-4.1,6.45-5.4c1.667-1.067,2.816-2.9,3.45-5.5v-0.75L9.8-11.8v-0.3h0.1v-0.4
				H9.8c-0.066,0.667-0.733,1.867-2,3.6C6.267-6.933,4.9-5.75,3.7-5.35C3.267-5.25,2.917-5.133,2.65-5z"/>
			<path style="fill-rule:evenodd;clip-rule:evenodd;fill:#D28C84;" d="M3.7-5.35c1.2-0.4,2.566-1.583,4.1-3.55
				c1.267-1.733,1.934-2.934,2-3.6l-0.15,0.05L9.6-12.7l-0.1,0.1H9.45c-0.167,0.333-0.383,0.633-0.65,0.9
				c-0.1,0.434-0.3,0.95-0.6,1.55L8.05-10.2c0.2-0.267,0.383-0.667,0.55-1.2l-0.2,0.2l-0.05-0.1l0.3-0.35l0.05-0.5l-0.05-0.1
				C8.483-12.05,8.367-11.967,8.3-12l0.35-0.6L8.6-12.9c-0.367,0.367-0.517,0.65-0.45,0.85h-0.1L8-11.85
				c-0.333,0.934-0.833,1.633-1.5,2.1l-0.05-0.1c0.533-0.467,0.966-1.15,1.3-2.05L7.6-11.75H7.5c0.033-0.167,0.167-0.45,0.4-0.85
				c-0.1,0.1-0.217,0.15-0.35,0.15l-1.1,1.55H6.3l0.65-1.05l-1.45,1.4H5.35c0.233-0.267,0.8-0.8,1.7-1.6L7.5-12.7l-0.2,0.05
				c-0.233,0.333-0.466,0.566-0.7,0.7H6.55c0.1-0.1,0.284-0.333,0.55-0.7L6.9-12.6c-0.2,0.3-0.483,0.55-0.85,0.75
				c-0.333,0.2-0.667,0.35-1,0.45v-0.25c0.5-0.1,0.934-0.4,1.3-0.9L6-12.5c-0.333,0.333-0.667,0.517-1,0.55H4.95l0.65-0.5L3.7-12.3
				C1.967-9.967,1.617-7.533,2.65-5C2.917-5.133,3.267-5.25,3.7-5.35z M9.6-12.7l0.3-0.05l-0.05-0.4L9.6-12.7z"/>
		</g>
	</g>
	<g id="Layer_4_18_">
	</g>
</symbol>
<symbol  id="FlashAICB_x2F_Layer_1_x2F__x3C_Clip_Group_0_x3E__x5F_10" viewBox="0 -14.95 10.93 14.95">
	<g id="Layer_1_10_">
	</g>
	<g>
		<defs>
			<polygon id="SVGID_7_" points="0,0 0,-14.95 10.9,-14.95 10.9,0 			"/>
		</defs>
		<clipPath id="SVGID_8_">
			<use xlink:href="#SVGID_7_"  style="overflow:visible;"/>
		</clipPath>
		<g id="Layer_3_9_" style="clip-path:url(#SVGID_8_);">
			<path style="fill-rule:evenodd;clip-rule:evenodd;fill:#D28C84;" d="M10.15-7.5C9.883-8.1,9.567-8.667,9.2-9.2l-1.05-1.6v-0.05
				l-7.6-4.1c3.333,3.4,3.95,5.567,1.85,6.5l-0.95,0.4C0.717-7.75,0.233-7.533,0-7.4l1.55,3.05L1.7-4.2
				C2.467-3,3.517-2.067,4.85-1.4C5.617-1,6.467-0.7,7.4-0.5L9.95,0l0.5-1.4c0.4-1,0.55-2.033,0.45-3.1S10.55-6.567,10.15-7.5z"/>
		</g>
	</g>
	<g id="Layer_4_9_">
	</g>
</symbol>
<symbol  id="FlashAICB_x2F_Layer_1_x2F__x3C_Clip_Group_0_x3E__x5F_11" viewBox="0 -10.45 20.05 10.45">
	<g id="Layer_1_9_">
	</g>
	<g>
		<defs>
			<polygon id="SVGID_9_" points="17.75,0 0,0 2.25,-10.45 20.05,-10.45 			"/>
		</defs>
		<clipPath id="SVGID_10_">
			<use xlink:href="#SVGID_9_"  style="overflow:visible;"/>
		</clipPath>
		<g id="Layer_3_8_" style="clip-path:url(#SVGID_10_);">
			<path style="fill-rule:evenodd;clip-rule:evenodd;fill:#DDADA6;" d="M10.4-9.8c0.733-0.067,1.283-0.15,1.65-0.25L11.8-10.1
				l-1.4,0.15l-0.1,0.1L10.4-9.8z"/>
			<path style="fill-rule:evenodd;clip-rule:evenodd;fill:#D28C84;" d="M15.8-1.95c-0.372,0.021-0.722-0.045-1.05-0.2l0.1-0.15h0.5
				C15.317-2.067,15.467-1.95,15.8-1.95z M15.6-2.85c0.2-0.133,0.517-0.183,0.95-0.15l0.05-0.1l0.55-0.05l0.7,0.05l0.3-0.4
				c-0.066,0.067-0.3,0.133-0.7,0.2h-0.5L17-3.45c0.1,0,0.183-0.033,0.25-0.1l0.7-0.1l-0.1-0.05c0.097-0.097,0.213-0.146,0.35-0.15
				h-1.1l0.1-0.25h0.65l0.45-0.1h0.25l0.15-0.3H18l0.05-0.1l0.2-0.1c-0.3,0.034-0.483-0.05-0.55-0.25l0.2-0.1l0.25-0.05H18
				l0.35-0.15l0.4,0.05h0.15L19.05-6L17.7-5.95l0.05-0.1l0.3-0.1h1v-0.1h-1.8l0.6-0.15c-0.6,0-1.1-0.083-1.5-0.25
				c0.133-0.067,0.483-0.1,1.05-0.1l1.65,0.05v-0.15c-0.867-0.066-1.466-0.1-1.8-0.1L17.3-7.1l0.2-0.05h0.55l1,0.25L19-7.25h-0.75
				l-0.05-0.1L17.7-7.3l-0.05-0.1l1.3-0.05l-0.1-0.35l-0.4,0.05L17.4-7.8l0.1-0.25L18.75-8l-0.2-0.45H18.4L17.75-8.4
				c-0.833,0-1.35-0.033-1.55-0.1l0.15-0.05l-0.05-0.1l0.85-0.05L17-8.8l0.2-0.05l0.35,0.05l0.7-0.05L17.9-9.1
				c-1.5,0.2-2.467,0.217-2.9,0.05l2.65-0.25L17.6-9.35L15.05-9.3c0.067-0.233,0.3-0.317,0.7-0.25c0.633,0.066,0.967,0.083,1,0.05
				h0.55l-0.65-0.25c-2,0.067-3.033,0.083-3.1,0.05l0.8-0.1h-0.8c-0.133-0.1-0.367-0.15-0.7-0.15l-0.4-0.1l0.95-0.1h1.8l-0.35-0.05
				H13.4l-0.2-0.05l-0.95,0.05l0.05-0.1l0.5-0.1l-1.55-0.05c-1.633,0.067-3.1,0.284-4.4,0.65L7.3-9.85
				c0.284-0.015,0.75-0.082,1.4-0.2l0.75,0.1l-3.2,0.3L5.7-9.45h0.15l0.85-0.2L6.65-9.6c0.6-0.066,1.184-0.1,1.75-0.1L5.6-9.35
				L5.35-9.3L4.6-9L4.35-8.85C4.517-8.883,4.8-8.9,5.2-8.9L5-8.85L4.5-8.8c0.5,0,0.833,0.017,1,0.05L5.55-8.7l-2.2,0.4l-0.1,0.1
				L4.5-8.3l0.2,0.05L5-8.3L4.9-8.2H4.75L4.8-8.05L3.7-8.1L3-7.95H2.85L2.7-7.85h1.2l-0.05,0.1l-1.4,0.2L2.4-7.5h0.95v0.15L2.8-7.3
				L2.65-7.2c0.267,0,0.467-0.033,0.6-0.1c0.5-0.1,1.117-0.15,1.85-0.15L3.75-7.2l0.1,0.05H3.2L2.35-7l0.1,0.1L2.4-6.8H1.75v0.05
				H1.9L2-6.65l1-0.1L2.85-6.7l-0.7,0.15h0.1L2.2-6.5c0.367,0.1,0.583,0.183,0.65,0.25H2.9L2.85-6.2L2.7-6.1
				c0-0.033-0.05-0.05-0.15-0.05h-1.1L1.35-6H1.7l0.65,0.15L2.15-5.7c-0.433,0-0.733,0.017-0.9,0.05L1.2-5.6h1.35L2.6-5.55L2.35-5.5
				H1.2L1.1-5.15l1.65-0.1L3.2-5.2L2.95-5.1H2l0.35,0.05L2.2-4.95L1.15-4.8v0.05h-0.1v0.2l0.4-0.05l0.4,0.1L1.7-4.3L1.05-4.25v0.05
				h0.8l0.4,0.1l-0.2,0.15L1.1-3.9v0.1h0.15L1.9-3.6H1.85L2.1-3.55l-0.05,0.1L1.3-3.15c0.3,0,0.567,0.017,0.8,0.05
				c0.133,0.067,0.2,0.15,0.2,0.25l-0.25,0.1H1.5l0.05,0.1c0.633,0,0.967,0.017,1,0.05L1.6-2.55L1.65-2.5l1.1-0.05l0.3,0.1H3
				l-1.2,0.2L1.95-2.1L3.3-2.2l0.25,0.05L2.1-2l0.15,0.05v0.05l1,0.1L3.5-1.65c0.333,0,0.6,0.017,0.8,0.05l0.75,0.05L2.95-1.4
				L2.8-1.3l0.1,0.05L2.95-1.2l2.7,0.1L5.6-0.95l-2.05,0.1c0.4,0.233,0.733,0.383,1,0.45c0.5-0.067,1.934-0.2,4.3-0.4l4.6-0.25
				c0.367-0.034,0.75-0.133,1.15-0.3h-0.4l-0.3,0.1V-1.4l0.3-0.15h-0.35L16.45-2l0.1-0.05V-2.1h0.05l0.05-0.05l0.2-0.1
				c-0.5,0.1-0.883,0.1-1.15,0l0.1-0.15l0.35-0.15h1.1l0.25-0.2H17l0.05-0.05l-0.2-0.05L16.4-2.8h-0.7L15.6-2.85z M11.325-0.575
				L12.7-0.85L5-0.25L5.4-0.2l1.45-0.15l0.05,0.2l-0.75,0.1l1,0.05c2.267-0.267,3.7-0.5,4.3-0.7L11.325-0.575L11.15-0.55h0.15
				L11.325-0.575z M19.05-6.6c-0.133,0.133-0.533,0.2-1.2,0.2l1.2,0.05V-6.6z"/>
		</g>
	</g>
	<g id="Layer_4_8_">
	</g>
</symbol>
<symbol  id="FlashAICB_x2F_Layer_1_x2F__x3C_Clip_Group_0_x3E__x5F_12" viewBox="0 -10.45 17.8 10.45">
	<g id="Layer_1_8_">
	</g>
	<g>
		<defs>
			<polygon id="SVGID_11_" points="0,0 0,-10.45 17.8,-10.45 17.8,0 			"/>
		</defs>
		<clipPath id="SVGID_12_">
			<use xlink:href="#SVGID_11_"  style="overflow:visible;"/>
		</clipPath>
		<g id="Layer_3_7_" style="clip-path:url(#SVGID_12_);">
			<path style="fill-rule:evenodd;clip-rule:evenodd;fill:#DDADA6;" d="M8.3-9.8c0.733-0.067,1.25-0.15,1.55-0.25L9.6-10.1L8.2-9.95
				l-0.05,0.1L8.3-9.8z"/>
			<path style="fill-rule:evenodd;clip-rule:evenodd;fill:#D28C84;" d="M16.4-2.25c-0.5,0.1-0.9,0.1-1.2,0l0.1-0.15l0.3-0.15h1.15
				l0.15-0.2h-0.45V-2.8l-0.2-0.05l-0.4,0.05H15.1L15-2.85c0.167-0.167,0.467-0.2,0.9-0.1l0.05-0.15l0.55-0.05l0.7,0.05l0.2-0.4
				c-0.036,0.067-0.253,0.134-0.65,0.2h-0.5v-0.15c0.1,0,0.183-0.033,0.25-0.1l0.65-0.1l-0.1-0.05
				c0.097-0.097,0.214-0.146,0.35-0.15h-1.15l0.05-0.2H17l0.4-0.15h0.25l0.1-0.3h-0.7v-0.1l0.2-0.1
				c-0.333,0.034-0.55-0.05-0.65-0.25l0.2-0.1l0.25-0.05H16.9l0.35-0.15l0.4,0.05h0.15v-0.4L17.75-6l-1.3,0.05v-0.1l0.3-0.1h0.95
				v-0.1h-1.8l0.6-0.15c-0.633,0-1.167-0.083-1.6-0.25c0.133-0.067,0.483-0.1,1.05-0.1L17.6-6.7l-0.05-0.15
				c-0.867-0.066-1.466-0.1-1.8-0.1V-7.1l0.2-0.05h0.55l1.05,0.25l-0.1-0.3H16.7l-0.05-0.15l-0.5,0.05L16.1-7.4l1.25-0.05l-0.2-0.35
				L16.8-7.75L15.7-7.8l0.05-0.25L17.05-8l-0.3-0.4l-0.2-0.05l-0.6,0.05c-0.8,0-1.333-0.033-1.6-0.1l0.15-0.05l-0.1-0.1l0.85-0.05
				L15.1-8.8l0.2-0.05l0.35,0.05l0.7-0.05l-0.4-0.25c-1.534,0.2-2.5,0.217-2.9,0.05l2.6-0.25l-0.1-0.05l-2.5,0.05
				c0-0.2,0.217-0.284,0.65-0.25c0.6,0.066,0.917,0.083,0.95,0.05h0.6l-0.7-0.25c-2,0.067-3.033,0.083-3.1,0.05l0.8-0.1h-0.8
				c-0.133-0.1-0.383-0.15-0.75-0.15l-0.4-0.1l0.9-0.1H13l-0.35-0.05H11.2l-0.25-0.05l-0.9,0.05v-0.1l0.5-0.1L9-10.45
				c-1.633,0.067-3.05,0.284-4.25,0.65l0.4-0.05c0.303-0.014,0.753-0.081,1.35-0.2l0.8,0.1L4.15-9.6l-0.5,0.15h0.2L4.6-9.6
				c0.533-0.066,1.117-0.1,1.75-0.1L3.3-9.3L2.45-8.85C2.617-8.883,2.9-8.9,3.3-8.9L3.1-8.85L2.6-8.8c0.5,0,0.833,0.017,1,0.05
				L3.65-8.7l-2.1,0.4l-0.1,0.1l1.3-0.1L2.9-8.25L3.2-8.3L3.1-8.2H3l0.05,0.15L1.95-8.1l-0.7,0.15h-0.1l-0.1,0.1H2.2v0.1l-1.4,0.2
				L0.75-7.5H1.7l0.05,0.15L1.2-7.3L1.1-7.2l0.6-0.1c0.466-0.1,1.05-0.15,1.75-0.15L2.2-7.2l0.1,0.05H1.65C1.15-7.05,0.883-7,0.85-7
				l0.1,0.1L0.9-6.8H0.3v0.05h0.1l0.15,0.1l0.95-0.1L1.4-6.7L0.7-6.55h0.15L0.8-6.5c0.434,0.133,0.667,0.217,0.7,0.25h0.1L1.5-6.2
				L1.4-6.1L1.25-6.15H0.1L0.05-6H0.4l0.7,0.2L0.9-5.7C0.467-5.7,0.167-5.683,0-5.65v0.05h1.35L1.4-5.55l-0.25,0.1H0v0.25l1.65-0.05
				l0.4,0.05l-0.2,0.1H0.9l0.35,0.05l-0.1,0.1l-1,0.15L0.1-4.75H0.05v0.2L0.5-4.6l0.4,0.1L0.8-4.3L0.15-4.25v0.05h0.8L1.4-4.05
				l-0.2,0.1L0.25-3.9L0.3-3.8h0.1l0.75,0.2H1.1l0.25,0.05v0.1l-0.7,0.3c0.3,0,0.567,0.017,0.8,0.05
				c0.1,0.033,0.183,0.117,0.25,0.25l-0.25,0.1H0.9l0.05,0.1C1.617-2.65,1.967-2.633,2-2.6L1.05-2.55L1.1-2.5l1.1-0.05l0.35,0.1H2.5
				l-1.15,0.2L1.5-2.1l1.35-0.1L3.1-2.15L1.65-2l0.2,0.05v0.05l1,0.1l0.3,0.15c0.333,0,0.6,0.017,0.8,0.05l0.8,0.05L2.7-1.4L2.5-1.3
				l0.15,0.05L2.7-1.2h1.7l1,0.1v0.15l-2,0.15l1.05,0.4c0.5-0.067,1.917-0.2,4.25-0.4l4.55-0.25c0.4-0.067,0.767-0.167,1.1-0.3h-0.4
				l-0.3,0.1V-1.4l0.25-0.15h-0.4L16.05-2l0.075-0.075C15.423-1.835,14.814-1.86,14.3-2.15l0.05-0.15h0.5
				c0,0.233,0.183,0.35,0.55,0.35l0.8-0.2L16.4-2.25z M12.55-0.85L5-0.25l0.4,0.1l1.4-0.2l0.1,0.2l-0.75,0.1l1,0.05
				c2.2-0.267,3.583-0.5,4.15-0.7l-0.075,0.125L12.55-0.85z M11.225-0.575L11.05-0.55h0.15L11.225-0.575z M16.5-6.4l1.2,0.05
				L17.6-6.6C17.5-6.467,17.133-6.4,16.5-6.4z M8.3-9.8L8.15-9.85l0.05-0.1l1.4-0.15l0.25,0.05C9.55-9.95,9.033-9.867,8.3-9.8z"/>
		</g>
	</g>
	<g id="Layer_4_7_">
	</g>
</symbol>
<symbol  id="FlashAICB_x2F_Layer_1_x2F__x3C_Clip_Group_0_x3E__x5F_13" viewBox="0 -37.6 26.15 37.6">
	<g id="Layer_1_7_">
	</g>
	<g>
		<defs>
			<polygon id="SVGID_13_" points="20.25,0 0,-7.25 5.9,-37.6 26.15,-30.35 			"/>
		</defs>
		<clipPath id="SVGID_14_">
			<use xlink:href="#SVGID_13_"  style="overflow:visible;"/>
		</clipPath>
		<g id="Layer_3_6_" style="clip-path:url(#SVGID_14_);">
			<path style="fill-rule:evenodd;clip-rule:evenodd;fill:#DDADA6;" d="M20.35-2.25l-0.15,0.1l0.05-0.1l0.1-0.1L21.3-5.4l-0.1,0.3
				l0.3-2.6c0.267-3.267-0.2-5.733-1.4-7.4l-2.2-3.05h-0.05l0.05-0.1v-0.05l0.7-2.35l-0.15,0.35l1.9-5.1l-0.3-0.2l-0.3,0.4
				l-0.05-0.25l0.1-0.25l-0.1-0.1l-0.2,0.65c-0.067-0.267-0.083-0.5-0.05-0.7l0.05-0.1L19.35-26l-0.05-0.05l-0.1,0.5l-0.15-0.05
				l0.1-0.55l-0.5-0.25l-0.05,0.05l-0.05,0.65l-0.05,0.1l-0.25-0.1c0.067-0.1,0.067-0.4,0-0.9l-0.15-0.1
				c-0.033-0.566-0.117-1.066-0.25-1.5c-0.033,0-0.05,0.034-0.05,0.1c-0.066,0.167-0.066,0.5,0,1l0.05,0.25l-0.8-0.35l-2.8-0.7
				l-0.55-1c-0.567-0.833-1.017-1.35-1.35-1.55l1.5,2.45l0.05,0.1l-0.15,0.3l-0.45-0.8c-0.6-0.833-1.033-1.367-1.3-1.6l1.7,2.5
				L13.45-27v-0.1l-0.1-0.05L13.3-26.9h-0.1l-0.1,0.55l-0.45,0.95l0.25-0.65l-0.1-0.1l-0.5,1l0.05-0.45L12.9-27v-0.25l-0.05-0.05
				l-0.55,1.45h-0.05l-0.1,0.35c-0.2,0.3-0.367,0.817-0.5,1.55v0.5l-0.1,0.1c-0.133,0.133-0.25,0.333-0.35,0.6v-0.3l0.4-1.25
				l0.1-0.8l-0.1-0.05l-0.2,0.95l0.05-0.8l-0.1-0.05v0.25l-0.05-0.05l-0.25,1.35v0.1l-0.25,0.6l-0.15,0.6l-0.3,0.7l-0.25,1.3
				l-0.2,0.4c0.2,0.466,0.317,0.8,0.35,1l-0.15,0.15l-0.05,0.3l0.1,0.05l0.1-0.45l0.25,0.65h-0.1l0.1,0.15l-0.1,0.1l-1,0.65
				l-0.7,0.65l-0.55,0.4l0.4-0.4l1.35-1.1l-0.05-0.1L8.4-16.6l-0.65,0.7L6.45-15l0.4-0.45v-0.05l1.1-1.2l-0.1-0.1L6.6-15.35
				c-0.133,0.067-0.317,0.217-0.55,0.45l-0.2,0.3L5.8-14.55L5.4-14.3L4-13.25l0.2-0.25c-0.2,0.2-0.317,0.333-0.35,0.4
				c-0.7,0.633-1.3,1.283-1.8,1.95L2-10.95H1.95L1.7-10.3L2.1-10c1,0.9,1.967,1.7,2.9,2.4l0.75,0.55c1.2,0.933,2.567,1.833,4.1,2.7
				l0.1,0.05L10-4.25c1.167,0.667,2.45,1.317,3.85,1.95l1.2,0.45c0.667,0.233,1.383,0.4,2.15,0.5c0.5,0.067,0.867,0.083,1.1,0.05
				c0.667-0.1,1.25-0.333,1.75-0.7l0.25-0.2L20.35-2.25z M10.6-21.6l0.4-0.9v0.3l-0.15,0.45l-0.4,0.9L10.6-21.6z"/>
			<path style="fill-rule:evenodd;clip-rule:evenodd;fill:#CE8580;" d="M2.05-11.15c0.5-0.667,1.1-1.317,1.8-1.95
				C3.883-13.167,4-13.3,4.2-13.5L4-13.25l1.4-1.05l0.4-0.25l0.05-0.05l0.2-0.3c0.233-0.233,0.417-0.383,0.55-0.45l1.25-1.45
				l0.1,0.1l-1.1,1.2v0.05L6.45-15l1.3-0.9l0.65-0.7l1.45-1.15l0.05,0.1l-1.35,1.1l-0.4,0.4l0.55-0.4l0.7-0.65l1-0.65l0.1-0.1
				l-0.1-0.15h0.1l-0.25-0.65l-0.1,0.45l-0.1-0.05l0.05-0.3l0.15-0.15c-0.033-0.2-0.15-0.534-0.35-1l0.2-0.4l0.25-1.3l0.3-0.7
				l0.15-0.6l0.25-0.6v-0.1l0.25-1.35l0.05,0.05v-0.25l0.1,0.05l-0.05,0.8l0.2-0.95l0.1,0.05l-0.1,0.8l-0.4,1.25v0.3
				c0.1-0.267,0.216-0.467,0.35-0.6l0.1-0.1v-0.5c0.133-0.733,0.3-1.25,0.5-1.55l0.1-0.35h0.05l0.55-1.45l0.05,0.05V-27l-0.55,1.4
				l-0.05,0.45l0.5-1l0.1,0.1l-0.25,0.65l0.45-0.95l0.1-0.55h0.1l0.05-0.25l0.1,0.05v0.1l0.25-0.5l-0.45-0.65l-1.9-0.45l-0.15,0.85
				l-3.05,7.4L9.2-18.7l-3.9,2.4c-2.066,1.333-3.533,2.917-4.4,4.75l-0.1,0.3l0.9,0.95l0.25-0.65H2L2.05-11.15z M10.45-20.85
				l0.4-0.9L11-22.2v-0.3l-0.4,0.9L10.45-20.85z M13.5-28.05l0.25,0.45l0.15-0.3L13.85-28L13.5-28.05z"/>
			<path style="fill-rule:evenodd;clip-rule:evenodd;fill:#D28C84;" d="M19.5-25.15l0.65-2.25l0.1-0.9l-0.1-0.05
				c-0.3,0.967-0.517,1.767-0.65,2.4l-0.05,0.1C19.417-25.65,19.433-25.417,19.5-25.15z M19.2-25.55l0.25-1v-0.15
				c0.1-0.566,0.133-0.95,0.1-1.15c-0.066,0.1-0.183,0.5-0.35,1.2l-0.15,1.05L19.2-25.55z M19.7-25.45l0.05,0.25l1.1-1.45v-0.15
				l-0.1,0.1c-0.333,0.3-0.65,0.633-0.95,1L19.7-25.45z M18.5-25.6l0.05-0.1l0.05-0.65l0.05-0.05c0-0.5-0.066-1.267-0.2-2.3
				l-0.2-0.05l-0.05,0.1l0.05,2.05c0.067,0.5,0.067,0.8,0,0.9L18.5-25.6z"/>
			<path style="fill-rule:evenodd;clip-rule:evenodd;fill:#8E463F;" d="M19.2-26.65c0.167-0.7,0.283-1.1,0.35-1.2
				c0.034,0.2,0,0.583-0.1,1.15l1.8-4.65l-2.95,0.9h-0.05c0.233-0.5,0.467-1.333,0.7-2.5l-0.8,0.3c-1,0.5-1.867,1.167-2.6,2
				L15.3-29.4c-0.233,0.333-0.35,0.583-0.35,0.75L14.8-28.7l0.5-1.65l-1,1.55l-0.05,0.2l-0.15,0.2l-0.05,0.15l0.2,0.35l2.8,0.7
				l0.8,0.35L17.8-27.1c-0.066-0.5-0.066-0.833,0-1c0-0.066,0.017-0.1,0.05-0.1c0.133,0.434,0.217,0.934,0.25,1.5l0.15,0.1
				l-0.05-2.05l0.05-0.1l0.2,0.05c0.133,1.034,0.2,1.8,0.2,2.3l0.5,0.25L19.2-26.65z"/>
			<path style="fill-rule:evenodd;clip-rule:evenodd;fill:#9F5148;" d="M19.8-25.7c0.3-0.367,0.617-0.7,0.95-1l1.55-4.55l-1.05-0.1
				l-1.8,4.65v0.15l-0.15,0.5L19.35-26l0.15,0.05c0.133-0.633,0.35-1.433,0.65-2.4l0.1,0.05l-0.1,0.9l-0.45,1.6L19.8-25.7z
				 M20.65-26.35l-0.6,0.75l0.3,0.2L20.65-26.35z"/>
			<path style="fill-rule:evenodd;clip-rule:evenodd;fill:#773834;" d="M15.55-30.65c0.733-0.833,1.6-1.5,2.6-2l0.8-0.3
				c-0.267,0.067-0.517,0.067-0.75,0c-1.9,0.167-3.467,0.65-4.7,1.45c-0.467,0.333-0.85,0.683-1.15,1.05
				c0.333,0.2,0.783,0.717,1.35,1.55l0.35,0.65l0.05-0.15l0.15-0.2l0.05-0.2l1-1.55l-0.5,1.65l0.15,0.05
				c0-0.167,0.117-0.417,0.35-0.75L15.55-30.65z M11.35-28.6l1.9,0.45L12-30C11.667-29.4,11.45-28.933,11.35-28.6z M12-30
				c0.267,0.233,0.7,0.767,1.3,1.6l0.2,0.35L13.85-28l-1.5-2.45C12.283-30.417,12.167-30.267,12-30z"/>
		</g>
	</g>
	<g id="Layer_4_6_">
	</g>
</symbol>
<symbol  id="FlashAICB_x2F_Layer_1_x2F__x3C_Clip_Group_0_x3E__x5F_14" viewBox="0 -18.3 11.65 18.3">
	<g id="Layer_1_6_">
	</g>
	<g>
		<defs>
			<polygon id="SVGID_15_" points="3.4,0 0,-7 8.25,-18.3 11.65,-11.3 			"/>
		</defs>
		<clipPath id="SVGID_16_">
			<use xlink:href="#SVGID_15_"  style="overflow:visible;"/>
		</clipPath>
		<g id="Layer_3_5_" style="clip-path:url(#SVGID_16_);">
			<path style="fill-rule:evenodd;clip-rule:evenodd;fill:#CE8580;" d="M7.9-7.8L7.3-5.4L7.7-6C8-7.6,8.2-8.833,8.3-9.7
				c0,0.733-0.15,1.883-0.45,3.45l0.65-1.6l0.3-2.3c0.167-1.4,0.25-2.283,0.25-2.65l0.05,0.1L8.8-9l0.65-3.2l0.05-3.55l-1.75-1.9
				v0.5C7.583-16.75,7.267-15.367,6.8-13c-0.433,2.3-1.583,5.45-3.45,9.45L2.4-2.45L2.3-2.4h0.15l0.8-0.3v0.15h0.1l2.1-2l-0.3,0.5
				L3.8-2.7l0.75-0.35l1-1.15l0.5-1.05v0.05C5.817-4.6,5.533-4.033,5.2-3.5L5.1-3.35l0.4-0.3l0.35-0.6c0.3-0.5,0.583-1.133,0.85-1.9
				L6.75-6.1L6.1-4.15L6-4l0.05-0.05H6.1L6.45-5.1C6.683-5.9,6.9-6.433,7.1-6.7v0.05L6.3-4.2l0.45-0.45l0.4-1.6
				c0.267-1,0.434-1.533,0.5-1.6L7.7-7.9c-0.3,1.4-0.55,2.4-0.75,3L7.05-5C7.295-5.735,7.578-6.668,7.9-7.8z M8.8-10.35
				C8.667-8.983,8.433-7.9,8.1-7.1l0.65-3.35L8.8-10.35z"/>
		</g>
	</g>
	<g id="Layer_4_5_">
	</g>
</symbol>
<symbol  id="FlashAICB_x2F_Layer_1_x2F__x3C_Clip_Group_0_x3E__x5F_15" viewBox="0 -12.7 11.85 12.7">
	<g id="Layer_1_5_">
	</g>
	<g>
		<defs>
			<polygon id="SVGID_17_" points="9.2,0 0,-2.35 2.7,-12.7 11.85,-10.35 			"/>
		</defs>
		<clipPath id="SVGID_18_">
			<use xlink:href="#SVGID_17_"  style="overflow:visible;"/>
		</clipPath>
		<g id="Layer_3_4_" style="clip-path:url(#SVGID_18_);">
			<path style="fill-rule:evenodd;clip-rule:evenodd;fill:#DDADA6;" d="M10.4-10c-0.6-0.533-1.483-0.983-2.65-1.35l-0.1-0.05
				l-0.6-0.15c-0.633-0.2-1.183-0.25-1.65-0.15c-0.367,0.1-0.55,0.2-0.55,0.3c-0.233,0.1-0.434,0.25-0.6,0.45
				c-0.567,0.534-0.8,1.317-0.7,2.35c0.1,0.9,0.434,1.667,1,2.3l0.3,0.5l-0.6-0.05c-2-0.167-3.033-0.117-3.1,0.15
				C0.917-5.6,0.767-5.317,0.7-4.85c-0.034,0.467,0.05,0.967,0.25,1.5C1.183-2.883,1.7-2.333,2.5-1.7C2.1-2.6,1.85-3.383,1.75-4.05
				C2.883-3.35,4.233-2.967,5.8-2.9c0.467,0,0.784-0.033,0.95-0.1c1.167-0.767,1.5-2,1-3.7C7.65-6.967,7.6-7.233,7.6-7.5
				C8.4-7.1,9.533-6.9,11-6.9L10.4-10z"/>
		</g>
	</g>
	<g id="Layer_4_4_">
	</g>
</symbol>
<symbol  id="FlashAICB_x2F_Layer_1_x2F__x3C_Clip_Group_0_x3E__x5F_16" viewBox="0 -40.967 74.2 40.967">
	<g id="Layer_1_4_">
	</g>
	<g>
		<defs>
			<polygon id="SVGID_19_" points="1.25,0 0,-40.95 73,-40.95 74.2,0 			"/>
		</defs>
		<clipPath id="SVGID_20_">
			<use xlink:href="#SVGID_19_"  style="overflow:visible;"/>
		</clipPath>
		<g id="Layer_3_3_" style="clip-path:url(#SVGID_20_);">
			<path style="fill-rule:evenodd;clip-rule:evenodd;fill:#DDADA6;" d="M73.45-23.65c-0.167-2.8-0.617-5.517-1.35-8.15l-0.3-0.9
				v-0.05l-1.1-0.85h-0.05l-0.9-0.2l0.05,0.05c0.467,0.233,0.817,0.467,1.05,0.7h0.05l0.25,0.15l-0.1,0.15l-2.9-1
				c0.133,0.133,0.2,0.267,0.2,0.4l0.1,0.25c-0.534-0.467-1.034-0.816-1.5-1.05l-1.2-0.45l-0.5-0.1h-0.2l1.4,0.65
				c0.767,0.3,1.183,0.566,1.25,0.8l-1.5-0.7l0.15,0.2L64.3-34.5l0.05,0.1l-0.05,0.05l-1.25-0.6H62.6c0.367,0.167,0.6,0.3,0.7,0.4
				L62.25-35h-0.2c0.567,0.3,0.85,0.55,0.85,0.75l-0.15,0.1l-1.8-0.9H60.4l0.1,0.15l-0.3-0.15L59.65-35l0.3,0.3L59.3-35l-11.55-1.25
				H47.6l-0.25-0.05c-3.6-0.467-5.583-0.684-5.95-0.65l-1.15-0.25c-2-0.233-3.917-0.25-5.75-0.05l-2.15,0.15l-0.4,0.25l-0.05-0.1
				l0.2-0.15h-0.2l-0.55,0.25l0.1-0.1l-1.1,0.7v-0.15l0.9-0.6l-0.7,0.05l-1.6,0.85v-0.15l0.9-0.6l-0.3,0.05
				c-0.9,0.566-1.55,0.917-1.95,1.05v-0.1l0.85-0.7v-0.1L28.2-36.6l-2.15,1.7L26-35c0.133-0.233,0.35-0.467,0.65-0.7
				c-0.833,0.5-1.483,0.8-1.95,0.9l1.1-0.75v-0.05l-1.4,1v-0.1l0.6-0.65l-1.2,0.95l-0.1-0.1c0.242-0.323,0.601-0.657,1.075-1
				c-0.65,0.431-1.258,0.864-1.825,1.3l-0.1-0.15l0.6-0.55l-0.75,0.45c-0.4,0.233-0.65,0.35-0.75,0.35v-0.05L21.6-33.9V-34
				c0.133-0.233,0.4-0.5,0.8-0.8h-0.05l0.1-0.05l0.35-0.275l-0.45,0.175l-0.1,0.1L22.2-34.9c-0.434,0.167-0.667,0.283-0.7,0.35
				l-0.05-0.05L22-35l1-0.6l-0.5,0.15l-0.55,0.3L21.9-35.1h-0.05c-0.267,0.167-0.467,0.25-0.6,0.25v-0.25l0.4-0.3H21.6v-0.1
				l-0.15,0.1l-0.55,0.25c-0.4,0.133-0.65,0.2-0.75,0.2v-0.25l1.1-0.65H20.3l-0.3,0.2v-0.05l-0.25,0.15
				c-0.5,0.233-0.833,0.316-1,0.25l0.55-0.25c0.034-0.1,0.167-0.2,0.4-0.3h-0.5l-0.25,0.15l0.1-0.15l-0.8,0.05
				c-1.633,0.1-2.45,0.233-2.45,0.4c-1.966,0.467-3.183,0.816-3.65,1.05c-2.533,1.233-3.917,2-4.15,2.3l-1,1.5
				c0.033-0.133,0.133-0.317,0.3-0.55l1.1-1.6l-0.05-0.05l-1.2,1.65c-0.3,0.5-0.467,0.817-0.5,0.95l-1.1,1.35l0.3-0.55v-0.1
				L5.8-29.4l0.85-1.65l-0.1-0.05L5.2-28.55c-0.1,0.133-0.15,0.267-0.15,0.4L5-28.1l-0.3,0.4c-0.333,0.367-0.733,0.883-1.2,1.55
				l-0.1,0.2c-0.566,0.9-1,1.767-1.3,2.6L2.05-23.1H2l-0.15,1.2v0.25C1.783-20.583,1.767-19.8,1.8-19.3
				c-0.167-0.6-0.25-1.25-0.25-1.95v-0.05c-0.066,0.1-0.1,0.333-0.1,0.7c0,0.346,0.033,0.687,0.1,1.025
				C1.482-19.886,1.432-20.161,1.4-20.4L1.35-20c0,0.467,0.133,1.183,0.4,2.15l0.2,0.5l0.3,1.65c-0.267-0.6-0.533-1.283-0.8-2.05
				v-0.4h-0.1v0.05l-0.3-1.2h-0.1l0.4,1.65v0.55c0.1,1,0.517,1.934,1.25,2.8l1.75,4.25h-0.1c0.867,1.3,1.6,2.35,2.2,3.15L7.1-6.1
				L7.05-5.95l-1,0.35L6.1-5.5c0,0.033,0.017,0.033,0.05,0l0.1,0.1l1.1-0.4L7.3-5.65L7.5-5.6l0.25-0.2c0.533,0.1,1,0.25,1.4,0.45
				L10-5.1c1.033,0.367,2.183,0.583,3.45,0.65L14.2-4.4c-0.233,0.033-0.483,0.117-0.75,0.25L13.2-3.9l0.95-0.25L15-4.2l0.75,0.15
				H14.6l-0.05,0.1L15-3.85l1.3-0.1l0.65,0.2c-0.6,0.1-1.267,0.1-2,0c1.133,0.233,1.966,0.267,2.5,0.1L17.7-3.6
				c3.466,0.767,7.733,1.283,12.8,1.55l6.85,0.2l-1.9,0.8L35.5-1l1.95-0.85l1.5,0.05L38.15-1l-1.2,0.75L39.8-1.8h0.7l-0.85,0.55
				l-1.25,0.5l1.2-0.3l1.8-0.7L41.2-1.2c-0.3,0.434-0.517,0.7-0.65,0.8v0.1c0.333-0.133,0.7-0.55,1.1-1.25l0.2-0.25l0.45-0.05
				l-1,0.9h0.1l0.45-0.25l-0.8,1h0.1l0.75-0.9v0.05h0.15l1.4-0.8l6-0.2l-2.25,0.4l2.3-0.2l0.9-0.2c0.167-0.034,0.434-0.05,0.8-0.05
				l-0.6,0.4l-0.45,0.45c-0.367,0.267-0.833,0.683-1.4,1.25l2.05-1.5c0.267-0.1,0.633-0.317,1.1-0.65h0.35V-2.2l0.55,0.05h0.1
				c1.133-0.067,2.817-0.1,5.05-0.1c0.4,0,0.7-0.017,0.9-0.05c1.867,0.1,4.2-0.2,7-0.9c2.1-0.466,3.7-2.167,4.8-5.1l1.05-2.4
				c0.6-1.466,1.05-2.966,1.35-4.5l0.3-1.9C73.55-19.4,73.583-21.583,73.45-23.65z"/>
			<path style="fill-rule:evenodd;clip-rule:evenodd;fill:#CE8580;" d="M59.95-34.7l-0.3-0.3l0.55-0.05l0.3,0.15l-0.1-0.15h0.55
				l1.8,0.9l0.15-0.1c0-0.2-0.283-0.45-0.85-0.75h0.2l1.05,0.45c-0.1-0.1-0.333-0.233-0.7-0.4h0.45l1.25,0.6l0.05-0.05l-0.05-0.1
				l2.05,0.75l-0.15-0.2l1.5,0.7c-0.067-0.233-0.483-0.5-1.25-0.8l-1.4-0.65h0.2l0.5,0.1l1.2,0.45c0.466,0.233,0.966,0.583,1.5,1.05
				l-0.1-0.25c0-0.133-0.067-0.267-0.2-0.4l2.9,1l0.1-0.15l-0.25-0.15h-0.05c-0.233-0.233-0.583-0.467-1.05-0.7l-0.05-0.05l0.9,0.2
				h0.05l1.1,0.85l-0.25-0.55l-0.15-0.1h0.1c-0.733-1.367-1.633-2.533-2.7-3.5c-4.633-1.167-9.8-2.1-15.5-2.8l-11.55-1.2
				c-1.6-0.067-2.783-0.083-3.55-0.05l-14.4,0.5l-3.45,0.7c-1.1,0.233-2.217,0.583-3.35,1.05c-2.433,0.934-4.767,2.1-7,3.5
				c-0.933,0.567-1.7,1.067-2.3,1.5l-0.25,0.15l-3.3,3.9c-1.733,2-2.833,4.1-3.3,6.3c-0.7,4.467,0.233,8.633,2.8,12.5l0.6,0.8h0.1
				L2.6-14.3c-0.733-0.867-1.15-1.8-1.25-2.8v-0.55l-0.4-1.65h0.1l0.3,1.2v-0.05h0.1v0.4c0.267,0.767,0.533,1.45,0.8,2.05l-0.3-1.65
				l-0.2-0.5c-0.267-0.967-0.4-1.683-0.4-2.15l0.05-0.4c0.03,0.226,0.08,0.484,0.15,0.775c-0.066-0.323-0.1-0.647-0.1-0.975
				c0-0.367,0.033-0.6,0.1-0.7v0.05c0,0.7,0.083,1.35,0.25,1.95c-0.033-0.5-0.017-1.284,0.05-2.35v-0.25L2-23.1h0.05l0.05-0.25
				c0.3-0.833,0.733-1.7,1.3-2.6l0.1-0.2c0.467-0.667,0.867-1.184,1.2-1.55L5-28.1l0.05-0.05c0-0.133,0.05-0.267,0.15-0.4l0.4-0.65
				l0.95-1.9l0.1,0.05L5.8-29.4l0.05-0.05v0.1l-0.3,0.55l1.1-1.35c0.033-0.133,0.2-0.45,0.5-0.95l1.2-1.65L8.4-32.7l-1.1,1.6
				c-0.167,0.233-0.267,0.417-0.3,0.55l1-1.5c0.233-0.3,1.617-1.067,4.15-2.3c0.467-0.233,1.684-0.583,3.65-1.05
				c0-0.167,0.817-0.3,2.45-0.4l0.8-0.05l-0.1,0.15l0.25-0.15h0.5c-0.233,0.1-0.367,0.2-0.4,0.3l-0.55,0.25
				c0.167,0.066,0.5-0.017,1-0.25L20-35.7v0.05l0.3-0.2h0.95l-1.1,0.65v0.25c0.1,0,0.35-0.066,0.75-0.2l0.55-0.25l0.15-0.1v0.1h0.05
				l-0.4,0.3v0.25c0.133,0,0.333-0.083,0.6-0.25h0.05l0.05-0.05l0.55-0.3L23-35.6L22-35l-0.55,0.4l0.05,0.05
				c0.033-0.067,0.267-0.184,0.7-0.35l0.05,0.05l0.1-0.1l0.45-0.175l-0.35,0.275l-0.1,0.05h0.05c-0.4,0.3-0.667,0.566-0.8,0.8v0.1
				l0.35-0.25v0.05c0.1,0,0.35-0.117,0.75-0.35l0.75-0.45l-0.6,0.55l0.1,0.15c0.628-0.456,1.178-0.847,1.65-1.175
				c-0.39,0.303-0.69,0.595-0.9,0.875l0.1,0.1l1.2-0.95l-0.6,0.65v0.1l1.4-1v0.05l-1.1,0.75c0.466-0.1,1.117-0.4,1.95-0.9
				c-0.3,0.233-0.517,0.467-0.65,0.7l0.05,0.1l2.15-1.7l0.25-0.05v0.1l-0.85,0.7v0.1c0.4-0.133,1.05-0.483,1.95-1.05l0.3-0.05
				l-0.9,0.6v0.15l1.6-0.85l0.7-0.05l-0.9,0.6v0.15l1.1-0.7l-0.1,0.1l0.55-0.25h0.2l-0.2,0.15l0.05,0.1l0.4-0.25l2.15-0.15
				c1.833-0.2,3.75-0.183,5.75,0.05l1.15,0.25c0.367-0.033,2.35,0.184,5.95,0.65l0.25,0.05h0.15L59.3-35L59.95-34.7z M53.15-36.3
				h0.3v0.1L53.15-36.3z"/>
		</g>
	</g>
	<g id="Layer_4_3_">
	</g>
</symbol>
<symbol  id="FlashAICB_x2F_Layer_1_x2F__x3C_Clip_Group_0_x3E__x5F_17" viewBox="0 -37.25 29.7 37.25">
	<g id="Layer_1_3_">
	</g>
	<g>
		<defs>
			<polygon id="SVGID_21_" points="8.85,0 0,-31.4 20.85,-37.25 29.7,-5.9 			"/>
		</defs>
		<clipPath id="SVGID_22_">
			<use xlink:href="#SVGID_21_"  style="overflow:visible;"/>
		</clipPath>
		<g id="Layer_3_2_" style="clip-path:url(#SVGID_22_);">
			<path style="fill-rule:evenodd;clip-rule:evenodd;fill:#DDADA6;" d="M27.45-5.9c0.533-0.467,0.917-1.033,1.15-1.7l0.2-0.45V-8.1
				l-0.05,0.05V-8l-0.1,0.2l0.1-0.3l-0.6-3.4l0.05,0.4l-0.15-0.35l-0.1-0.4l-0.7-1.85c-1.233-3.1-2.767-5.066-4.6-5.9L19.3-21
				l-0.05-0.15L18.8-23.7v0.35l-0.7-5.8h-0.3l-0.1,0.55l-0.2-0.2v-0.3h-0.15l0.15,0.7c-0.133-0.133-0.25-0.333-0.35-0.6v-0.1H16.9
				l0.15,0.55L16.9-28.5l-0.15-0.55L16.15-29l0.05,0.05l0.25,0.65l-0.05,0.1l-0.2,0.05L15.75-29l-0.2,0.05
				c-0.4-0.633-0.683-1.033-0.85-1.2c-0.133-0.133-0.15-0.1-0.05,0.1l0.65,1.15l-0.85,0.15l-2.75,1.1l-0.95-0.55
				c-0.867-0.433-1.5-0.65-1.9-0.65c0.167,0.133,0.75,0.45,1.75,0.95l0.7,0.4l0.05,0.05l0.05,0.35l-0.8-0.45
				c-0.7-0.333-1.317-0.534-1.85-0.6l2.65,1.2v0.6l-0.05-0.1h-0.1l0.05,0.3l-0.1,0.05l0.2,0.55l0.05,1.15l-0.1-0.7l-0.15-0.1
				l0.1,1.25l-0.2-0.4l-0.2-1.7l-0.1-0.2h-0.05l0.2,1.7H10.9L11-24.2c-0.033,0.333,0.05,0.917,0.25,1.75l0.2,0.45l-0.05,0.95
				l-0.1-0.25l-0.25-1.45l-0.3-0.75h-0.1c0.133,0.3,0.217,0.633,0.25,1l-0.3-0.8l-0.15,0.05l0.15,0.2L10.55-23l0.35,1.35h0.05v0.1
				L11-20.9l0.2,0.65l0.05,0.85l0.4,1.35v0.5l0.75,0.65l-0.05,0.25l0.05,0.3l0.15-0.05l-0.1-0.45l0.5,0.45l-0.1,0.05l0.15,0.1
				l-0.05,0.15l-0.55,1.2l-0.3,1.05l-0.3,0.7l0.8-2.45l-0.05-0.05L11.8-13.7l-0.25,1.05l-0.7,1.6L11-11.7v-0.05l-0.05,0.05l0.4-1.85
				h-0.1l-0.45,2.1l-0.25,0.75l-0.05,0.4v0.05L10.25-9.8l-0.7,1.85L9.6-8.3L9.45-7.7c-0.3,0.967-0.5,1.917-0.6,2.85l0.05,1L9.4-3.8
				c0.733,0.133,1.934,0.267,3.6,0.4l0.9,0.05c1.5,0.1,3.1,0.067,4.8-0.1v0.05l0.1-0.05h0.1c1.4-0.1,2.8-0.3,4.2-0.6l1.25-0.35
				c0.7-0.2,1.4-0.483,2.1-0.85C26.75-5.383,27.083-5.6,27.45-5.9z M11.6-18.9l-0.15-0.75l-0.1-1.1l0.15,0.25l0.1,0.55V-18.9z"/>
			<path style="fill-rule:evenodd;clip-rule:evenodd;fill:#CE8580;" d="M10.85-11.05l0.7-1.6l0.25-1.05l0.75-1.95l0.05,0.05
				l-0.8,2.45l0.3-0.7l0.3-1.05l0.55-1.2L13-16.25l-0.15-0.1l0.1-0.05l-0.5-0.45l0.1,0.45l-0.15,0.05l-0.05-0.3l0.05-0.25
				l-0.75-0.65v-0.5l-0.4-1.35l-0.05-0.85L11-20.9l-0.05-0.65v-0.1H10.9L10.55-23l0.05-0.05l-0.15-0.2l0.15-0.05l0.3,0.8
				c-0.033-0.367-0.117-0.7-0.25-1h0.1l0.3,0.75l0.25,1.45l0.1,0.25L11.45-22l-0.2-0.45c-0.2-0.833-0.283-1.417-0.25-1.75l-0.1-0.35
				h0.05l-0.2-1.7h0.05l0.1,0.2l0.2,1.7l0.2,0.4l-0.1-1.25l0.15,0.1l0.1,0.7l-0.05-1.15l-0.2-0.55l0.1-0.05l-0.05-0.3h0.1l0.05,0.1
				v-0.6l-0.7-0.3L8.9-26.5l0.2,0.85L9.9-17l1.65,0.85l-2.25,4.6C8.1-9.117,7.55-6.767,7.65-4.5L7.7-4.1l1.2,0.25l-0.05-1
				c0.1-0.933,0.3-1.883,0.6-2.85L9.6-8.3L9.55-7.95l0.7-1.85l0.25-0.45v-0.05l0.05-0.4l0.25-0.75l0.45-2.1h0.1l-0.4,1.85L11-11.75
				v0.05L10.85-11.05z M11.6-18.9v-1.05l-0.1-0.55l-0.15-0.25l0.1,1.1L11.6-18.9z M11.3-27.5l-0.35,0.15l0.45,0.25l-0.05-0.35
				L11.3-27.5z"/>
			<path style="fill-rule:evenodd;clip-rule:evenodd;fill:#D28C84;" d="M17.05-28.55l-0.25-1.1l-0.05-0.15
				c-0.167-0.567-0.317-0.934-0.45-1.1c0,0.333,0.083,0.767,0.25,1.3l0.35,1.1L17.05-28.55z M17.7-28.6l0.3-2l-0.1-0.1l-0.05,0.1
				l-0.35,1.5v0.3L17.7-28.6z M17.15-29c0.1,0.267,0.217,0.467,0.35,0.6L17-30.8l-0.3-0.9h-0.1l0.55,2.6V-29z M16.4-28.2l0.05-0.1
				l-0.25-0.65L16.15-29c-0.066-0.267-0.467-0.933-1.2-2l-0.2,0.05v0.15l1.45,2.65L16.4-28.2z"/>
			<path style="fill-rule:evenodd;clip-rule:evenodd;fill:#8E463F;" d="M16.75-29.8l-0.6-5.35L14-32.5
				c-0.045-0.45-0.229-1.333-0.55-2.65l-0.6,0.75c-0.633,1.1-1.067,2.25-1.3,3.45l0.35,1.25l0.05,0.95H11.8l-0.3-1.8l-0.1,0.7
				l-0.05,2l0.35,0.2l2.75-1.1l0.85-0.15l-0.65-1.15c-0.1-0.2-0.083-0.233,0.05-0.1c0.167,0.167,0.45,0.566,0.85,1.2l0.2-0.05
				l-1-1.8v-0.15l0.2-0.05c0.733,1.067,1.133,1.733,1.2,2l0.6-0.05l-0.2-0.55c-0.167-0.533-0.25-0.967-0.25-1.3
				C16.433-30.733,16.583-30.367,16.75-29.8z"/>
			<path style="fill-rule:evenodd;clip-rule:evenodd;fill:#9F5148;" d="M17.5-29.1l0.35-1.5l-0.75-5.1l-0.95,0.55l0.6,5.35
				l0.05,0.15l0.1,0.55h0.25l-0.55-2.6h0.1l0.3,0.9l0.35,1.7H17.5z M18.1-29.15l-0.15-1.05l-0.15,1.05H18.1z"/>
			<path style="fill-rule:evenodd;clip-rule:evenodd;fill:#773834;" d="M10.95-27.35l0.35-0.15l-0.7-0.4
				c-1-0.5-1.583-0.817-1.75-0.95l-0.1,0.7c0.533,0.066,1.15,0.267,1.85,0.6L10.95-27.35z M11.9-29.7l-0.35-1.25
				c0.233-1.2,0.667-2.35,1.3-3.45l0.6-0.75L12.8-34.7c-1.466,1.167-2.617,2.583-3.45,4.25c-0.233,0.5-0.4,1.034-0.5,1.6
				c0.4,0,1.033,0.217,1.9,0.65l0.6,0.35l0.05-2l0.1-0.7l0.3,1.8h0.15L11.9-29.7z M8.9-26.5l1.8-0.75l-1.95-0.9
				C8.75-27.417,8.8-26.867,8.9-26.5z"/>
		</g>
	</g>
	<g id="Layer_4_2_">
	</g>
</symbol>
<symbol  id="FlashAICB_x2F_Layer_1_x2F__x3C_Clip_Group_0_x3E__x5F_18" viewBox="0 -26.35 16.45 26.35">
	<g id="Layer_1_2_">
	</g>
	<g>
		<defs>
			<polygon id="SVGID_23_" points="13.05,0 0,-4.15 3.35,-26.35 16.45,-22.25 			"/>
		</defs>
		<clipPath id="SVGID_24_">
			<use xlink:href="#SVGID_23_"  style="overflow:visible;"/>
		</clipPath>
		<g id="Layer_3_1_" style="clip-path:url(#SVGID_24_);">
			<path style="fill-rule:evenodd;clip-rule:evenodd;fill:#DDADA6;" d="M13.2-1.15L12.4-7l-0.15-0.7c-0.2-0.6-0.35-1.233-0.45-1.9
				v-0.35c-0.032-0.032-0.032-0.049,0-0.05h-0.05l-0.05-0.5l-0.05-0.2c-0.4-2.066-0.35-4.066,0.15-6l0.25-1.15L12.1-18l0.05-0.05
				L10.8-18.9l-0.05-0.05l-0.95,0.7L9.7-18.3c0.3-0.333,0.583-0.583,0.85-0.75l-0.2-0.1l-0.65,0.5L9.6-18.8l0.5-0.45L9.9-19.3
				l-0.2-0.1c-0.133,0.1-0.367,0.316-0.7,0.65l0.5-0.7l-0.4-0.1l-0.25,0.2l-0.55,0.6L8.2-18.6l-0.15-0.2l0.6-0.8l0.05-0.05L8.3-19.7
				l-3.25,5.25l-0.1,0.2C4.617-13.483,4.367-12.8,4.2-12.2l-0.3,1.35v0.05l-0.05,0.2v0.2L3.8-10.65c-0.066-0.467-0.1-1.033-0.1-1.7
				H3.6L3.45-11.8c-0.1,0.6,0.017,1.333,0.35,2.2L3.75-8.9L3.6-10H3.55L3.4-9.6c0,0.3,0.083,0.8,0.25,1.5L3.6-6.95L3.3-8.9H3.25
				L3.2-8.4l0.1,0.85l-0.05,0.1v0.15L3-8.1H2.95L3.2-6.85v0.1L3-7.4L2.9-7.45l-0.05,0.4l0.35,1.2v0.1l0.1,0.6l-0.2-0.5H3.05
				l0.3,1.15L3.4-4.45v-0.3l0.05,0.2L3.4-3.75c-0.133-0.3-0.2-0.633-0.2-1L3.1-4.8c0.066,0.5,0.167,0.9,0.3,1.2L3.35-3.1
				c4.233,1.367,7.5,2.033,9.8,2h0.05V-1.15z"/>
			<path style="fill-rule:evenodd;clip-rule:evenodd;fill:#CE8580;" d="M13.25-5L12.1-9.85L11.775-10L11.8-9.95v0.35
				c0.1,0.667,0.25,1.3,0.45,1.9L12.4-7l0.8,5.85C13.467-2.483,13.483-3.767,13.25-5z M3.35-3.1L3.4-3.6
				C3.267-3.9,3.167-4.3,3.1-4.8l0.1,0.05c0,0.367,0.066,0.7,0.2,1l0.05-0.8L3.4-4.75v0.3L3.35-4.5l-0.3-1.15H3.1l0.2,0.5l-0.1-0.6
				v-0.1l-0.35-1.2l0.05-0.4L3-7.4l0.2,0.65v-0.1L2.95-8.1H3l0.25,0.8v-0.15l0.05-0.1L3.2-8.4l0.05-0.5H3.3l0.3,1.95L3.65-8.1
				C3.483-8.8,3.4-9.3,3.4-9.6L3.55-10H3.6l0.15,1.1L3.8-9.6c-0.333-0.867-0.45-1.6-0.35-2.2l0.15-0.55h0.1
				c0,0.667,0.033,1.233,0.1,1.7l0.05,0.25v-0.2l0.05-0.2v-0.05l0.3-1.35c0.167-0.6,0.417-1.283,0.75-2.05l1.05-2l2.3-3.45l-3.5-0.9
				L2-15.75C1.267-13.917,1.083-11.8,1.45-9.4C1.65-7.567,2.1-5.733,2.8-3.9C2.967-3.567,3.15-3.3,3.35-3.1z"/>
			<path style="fill-rule:evenodd;clip-rule:evenodd;fill:#8E463F;" d="M9.9-19.3l0.2,0.05l0.05-0.05
				c0.298-0.217,0.531-0.333,0.7-0.35l-0.5,0.5l0.2,0.1l0.75-0.3l-0.55,0.4l0.05,0.05l1.35,0.85c0.867-1.133,1.617-2.45,2.25-3.95
				L13-21.9c-1.1,0.333-2.083,0.75-2.95,1.25L10-21.45L8.3-19.7l0.4,0.05c0.433-0.434,0.767-0.684,1-0.75l-0.05,0.05
				c-0.1,0.267-0.283,0.533-0.55,0.8l0.4,0.1c0.367-0.466,0.8-0.8,1.3-1l0.05,0.1C10.817-20.317,10.433-20,9.7-19.4L9.9-19.3z"/>
			<path style="fill-rule:evenodd;clip-rule:evenodd;fill:#D28C84;" d="M9.8-18.25l1.5-1.1l-0.75,0.3
				C10.283-18.883,10-18.633,9.7-18.3L9.8-18.25z M9.7-18.65l0.65-0.5l0.5-0.5c-0.167,0.015-0.4,0.131-0.7,0.35L9.6-18.8L9.7-18.65z
				 M9.7-19.4c0.733-0.6,1.117-0.917,1.15-0.95l-0.05-0.1c-0.5,0.2-0.933,0.534-1.3,1L9-18.75C9.333-19.083,9.567-19.3,9.7-19.4z
				 M8.65-19.6l-0.6,0.8l0.15,0.2l0.1-0.15l0.55-0.6l0.25-0.2c0.267-0.267,0.45-0.534,0.55-0.8L9.7-20.4
				c-0.233,0.066-0.567,0.316-1,0.75L8.65-19.6z"/>
			<path style="fill-rule:evenodd;clip-rule:evenodd;fill:#6E332F;" d="M4.8-20.6l3.5,0.9l1.7-1.75l0.25-2.75l-0.7,0.35
				C7.683-23.117,6.1-22.033,4.8-20.6z"/>
		</g>
	</g>
	<g id="Layer_4_1_">
	</g>
</symbol>
<symbol  id="FlashAICB_x2F_Layer_1_x2F__x3C_Clip_Group_0_x3E__x5F_2" viewBox="0 -4.3 12.4 4.3">
	<g id="Layer_1_18_">
	</g>
	<g>
		<defs>
			<polygon id="SVGID_25_" points="0,0 0,-4.3 12.4,-4.3 12.4,0 			"/>
		</defs>
		<clipPath id="SVGID_26_">
			<use xlink:href="#SVGID_25_"  style="overflow:visible;"/>
		</clipPath>
		<g id="Layer_3_17_" style="clip-path:url(#SVGID_26_);">
			<path style="fill-rule:evenodd;clip-rule:evenodd;fill:#8E463F;" d="M5.25-1.75c-0.767-0.2-2.5-1.05-5.2-2.55H0l1.1,1.05
				c0.8,0.533,2.05,1.133,3.75,1.8c1.4,0.567,2.8,0.95,4.2,1.15C10.15-0.1,11.267,0,12.4,0c-0.967-0.1-2.05-0.317-3.25-0.65
				L5.25-1.75z"/>
		</g>
	</g>
	<g id="Layer_4_17_">
	</g>
</symbol>
<symbol  id="FlashAICB_x2F_Layer_1_x2F__x3C_Clip_Group_0_x3E__x5F_3" viewBox="0 -1.85 15.352 1.85">
	<g id="Layer_1_17_">
	</g>
	<g>
		<defs>
			<polygon id="SVGID_27_" points="0,0 0,-1.85 15.35,-1.85 15.35,0 			"/>
		</defs>
		<clipPath id="SVGID_28_">
			<use xlink:href="#SVGID_27_"  style="overflow:visible;"/>
		</clipPath>
		<g id="Layer_3_16_" style="clip-path:url(#SVGID_28_);">
			<path style="fill-rule:evenodd;clip-rule:evenodd;fill:#8E463F;" d="M13.75-0.6c-1.933,0.133-3.717,0.117-5.35-0.05L4.7-1
				C3.8-1,2.367-1.25,0.4-1.75L0-1.85L0.3-1.7c0.3,0.2,0.617,0.35,0.95,0.45c0.133,0.067,0.517,0.2,1.15,0.4l4.9,0.7h1.75
				C10.317,0.083,11.967,0.033,14-0.3c0.933-0.167,1.383-0.267,1.35-0.3C15.317-0.667,14.783-0.667,13.75-0.6z"/>
		</g>
	</g>
	<g id="Layer_4_16_">
	</g>
</symbol>
<symbol  id="FlashAICB_x2F_Layer_1_x2F__x3C_Clip_Group_0_x3E__x5F_4" viewBox="0 -16.35 5.406 16.35">
	<g id="Layer_1_16_">
	</g>
	<g>
		<defs>
			<polygon id="SVGID_29_" points="0,0 0,-16.35 5.4,-16.35 5.4,0 			"/>
		</defs>
		<clipPath id="SVGID_30_">
			<use xlink:href="#SVGID_29_"  style="overflow:visible;"/>
		</clipPath>
		<g id="Layer_3_15_" style="clip-path:url(#SVGID_30_);">
			<path style="fill-rule:evenodd;clip-rule:evenodd;fill:#B57264;" d="M1.6-12.95L1.4-12.3c0.1,2.233,0.45,3.95,1.05,5.15
				c0.7,1.833,1.15,1.667,1.35-0.5C3.367-10.483,2.633-12.25,1.6-12.95z"/>
			<path style="fill-rule:evenodd;clip-rule:evenodd;fill:#E6C2BD;" d="M1.4-12.3l0.2-0.65c1.033,0.7,1.767,2.467,2.2,5.3
				c-0.2,2.167-0.65,2.333-1.35,0.5C1.85-8.35,1.5-10.067,1.4-12.3z M2.35-1.75l0.75,0.9c0.233,0.267,0.517,0.5,0.85,0.7L4.35,0
				c1.167-1.167,1.367-3.567,0.6-7.2c-0.7-3.566-2.034-6.433-4-8.6l-0.3-0.25L0.2-16.2L0-16.35l0.1,0.3l0.15,2.75l0.05-1.05
				C0.4-11.483,0.667-8.9,1.1-6.6L2.35-1.75z"/>
		</g>
	</g>
	<g id="Layer_4_15_">
	</g>
</symbol>
<symbol  id="FlashAICB_x2F_Layer_1_x2F__x3C_Clip_Group_0_x3E__x5F_5" viewBox="0 -3.555 18.25 3.555">
	<g id="Layer_1_15_">
	</g>
	<g>
		<defs>
			<polygon id="SVGID_31_" points="0,0 0,-3.55 18.25,-3.55 18.25,0 			"/>
		</defs>
		<clipPath id="SVGID_32_">
			<use xlink:href="#SVGID_31_"  style="overflow:visible;"/>
		</clipPath>
		<g id="Layer_3_14_" style="clip-path:url(#SVGID_32_);">
			<path style="fill-rule:evenodd;clip-rule:evenodd;fill:#8E463F;" d="M0,0c1.9-0.633,3.567-1.15,5-1.55
				c2.033-0.534,3.8-0.9,5.3-1.1c1.5-0.2,2.733-0.283,3.7-0.25l4.25,0.3c-1.1-0.533-2.483-0.85-4.15-0.95
				c-1.367-0.034-3.05,0.083-5.05,0.35C6.95-2.767,5.383-2.367,4.35-2C3.083-1.6,1.633-0.933,0,0z"/>
		</g>
	</g>
	<g id="Layer_4_14_">
	</g>
</symbol>
<symbol  id="FlashAICB_x2F_Layer_1_x2F__x3C_Clip_Group_0_x3E__x5F_6" viewBox="-0.017 -4.45 4.033 4.45">
	<g id="Layer_1_14_">
	</g>
	<g>
		<defs>
			<polygon id="SVGID_33_" points="0,0 0,-4.45 4,-4.45 4,0 			"/>
		</defs>
		<clipPath id="SVGID_34_">
			<use xlink:href="#SVGID_33_"  style="overflow:visible;"/>
		</clipPath>
		<g id="Layer_3_13_" style="clip-path:url(#SVGID_34_);">
			<path style="fill-rule:evenodd;clip-rule:evenodd;" d="M1.7-0.1c0.566,0.067,1.05-0.1,1.45-0.5C3.583-0.933,3.833-1.417,3.9-2.05
				C4-2.583,3.883-3.1,3.55-3.6c-0.367-0.467-0.8-0.717-1.3-0.75s-0.967,0.133-1.4,0.5c-0.467,0.4-0.717,0.867-0.75,1.4
				C0-1.883,0.117-1.35,0.45-0.85C0.75-0.417,1.167-0.167,1.7-0.1z"/>
			<g>
				<path style="fill-rule:evenodd;clip-rule:evenodd;" d="M3.1-0.65c-0.4,0.333-0.8,0.5-1.2,0.5L1.7-0.2c-0.5,0-0.9-0.233-1.2-0.7
					C0.2-1.3,0.083-1.817,0.15-2.45C0.25-2.983,0.5-3.433,0.9-3.8s0.833-0.517,1.3-0.45c0.566,0.033,1,0.267,1.3,0.7
					C3.8-3.117,3.917-2.633,3.85-2.1C3.75-1.467,3.5-0.983,3.1-0.65z M4-2.05c0.067-0.6-0.067-1.133-0.4-1.6
					C3.267-4.117,2.817-4.367,2.25-4.4h-0.2c-0.5,0-0.917,0.167-1.25,0.5C0.367-3.533,0.1-3.05,0-2.45
					C-0.067-1.75,0.067-1.2,0.4-0.8c0.3,0.433,0.733,0.683,1.3,0.75c0.566,0.1,1.066-0.067,1.5-0.5C3.633-0.883,3.9-1.383,4-2.05z"
					/>
			</g>
			<path style="fill-rule:evenodd;clip-rule:evenodd;fill:#FFFFFF;" d="M1.1-1.7C1.033-1.733,0.933-1.717,0.8-1.65
				C0.667-1.55,0.6-1.433,0.6-1.3c-0.033,0.133,0,0.25,0.1,0.35c0.1,0.133,0.2,0.2,0.3,0.2C1.1-0.717,1.217-0.767,1.35-0.9
				c0.066-0.033,0.133-0.133,0.2-0.3c0-0.133-0.05-0.25-0.15-0.35C1.367-1.65,1.267-1.7,1.1-1.7z"/>
			<g>
				<path style="fill-rule:evenodd;clip-rule:evenodd;fill:#FFFFFF;" d="M1.45-1.2c0,0.1-0.05,0.184-0.15,0.25L1.05-0.8
					c-0.1,0-0.2-0.067-0.3-0.2l-0.1-0.3l0.2-0.3L1.1-1.65c0.133,0,0.217,0.05,0.25,0.15C1.417-1.433,1.45-1.333,1.45-1.2z M1.6-1.2
					c0.033-0.1,0-0.233-0.1-0.4C1.367-1.733,1.25-1.8,1.15-1.8H1.1L0.75-1.7L0.5-1.3c0,0.167,0.05,0.3,0.15,0.4
					C0.75-0.733,0.867-0.65,1-0.65L1.4-0.8C1.533-0.933,1.6-1.067,1.6-1.2z"/>
			</g>
		</g>
	</g>
	<g id="Layer_4_13_">
	</g>
</symbol>
<symbol  id="FlashAICB_x2F_Layer_1_x2F__x3C_Clip_Group_0_x3E__x5F_7" viewBox="-0.023 -7.957 9.173 7.993">
	<g id="Layer_1_13_">
	</g>
	<g>
		<defs>
			<polygon id="SVGID_35_" points="0,0 0,-7.95 9.15,-7.95 9.15,0 			"/>
		</defs>
		<clipPath id="SVGID_36_">
			<use xlink:href="#SVGID_35_"  style="overflow:visible;"/>
		</clipPath>
		<g id="Layer_3_12_" style="clip-path:url(#SVGID_36_);">
			<path style="fill-rule:evenodd;clip-rule:evenodd;fill:#773834;" d="M5.3-1.1L4.7-1.2L4-1.15L4.05-1.2l0.1-0.05L4.2-1.3
				c0-0.067-0.2-0.15-0.6-0.25L3.25-1.6v-0.15c0-0.267-0.3-0.5-0.9-0.7C1.85-2.683,1.383-2.8,0.95-2.8C0.683-2.8,0.5-2.75,0.4-2.65
				l-0.1,0.1h0.2L1.05-2.5c0.467,0.1,0.8,0.183,1,0.25c0.467,0.2,0.667,0.3,0.6,0.3l0.3,0.25l0.1,0.1
				C2.85-1.633,2.533-1.65,2.1-1.65c-0.467,0-0.883,0.05-1.25,0.15L0.1-1.2c-0.267,0.067-0.1,0.067,0.5,0
				c0.5-0.066,1.2-0.05,2.1,0.05L3.6-1.1L3.4-1C2.967-0.867,2.55-0.633,2.15-0.3C1.717,0.067,1.733,0.133,2.2-0.1
				c0.4-0.2,1.066-0.4,2-0.6l0.95-0.15C5.283-0.883,5.35-0.933,5.35-1L5.3-1.1z"/>
			<path style="fill-rule:evenodd;clip-rule:evenodd;fill:#773834;" d="M8.1-2.2c0.7-0.767,1.05-1.617,1.05-2.55
				c0-0.9-0.35-1.6-1.05-2.1c-0.767-0.6-1.65-0.8-2.65-0.6c-0.934,0.133-1.767,0.6-2.5,1.4C2.217-5.317,1.85-4.5,1.85-3.6
				c0,0.934,0.367,1.667,1.1,2.2c0.7,0.566,1.533,0.767,2.5,0.6C6.483-1,7.367-1.467,8.1-2.2z"/>
			<path style="fill-rule:evenodd;clip-rule:evenodd;fill:#FFFFFF;" d="M8.1-2.65c0.667-0.767,1-1.6,1-2.5
				c0-0.934-0.333-1.65-1-2.15C7.467-7.867,6.65-8.067,5.65-7.9C4.717-7.7,3.933-7.233,3.3-6.5C2.6-5.767,2.25-4.933,2.25-4
				S2.6-2.35,3.3-1.85c0.667,0.567,1.45,0.767,2.35,0.6C6.583-1.45,7.4-1.917,8.1-2.65z"/>
		</g>
	</g>
	<g id="Layer_4_12_">
	</g>
</symbol>
<symbol  id="FlashAICB_x2F_Layer_1_x2F__x3C_Clip_Group_0_x3E__x5F_8" viewBox="0 -12.3 13.95 12.3">
	<g id="Layer_1_12_">
	</g>
	<g>
		<defs>
			<polygon id="SVGID_37_" points="0,0 0,-12.3 13.95,-12.3 13.95,0 			"/>
		</defs>
		<clipPath id="SVGID_38_">
			<use xlink:href="#SVGID_37_"  style="overflow:visible;"/>
		</clipPath>
		<g id="Layer_3_11_" style="clip-path:url(#SVGID_38_);">
			<path style="fill-rule:evenodd;clip-rule:evenodd;fill:#D28C84;" d="M11.9-11c-0.833-0.533-1.933-0.8-3.3-0.8H8.45
				c-0.434-0.333-0.85-0.5-1.25-0.5l-0.25,0.05c0.267,0.267,0.583,0.417,0.95,0.45l-0.95,0.05c-0.9-0.233-1.5-0.35-1.8-0.35
				c-0.267,0-0.4,0.033-0.4,0.1c0.4,0,1,0.1,1.8,0.3l-0.9,0.15l-1.2-0.05c-0.6,0-1.067,0.083-1.4,0.25l-0.6,0.2l2.3-0.1l-0.65,0.4
				c0.1,0,0.3,0.05,0.6,0.15l-1,0.2H3.55L3.4-10.35c0.167,0,0.283,0.083,0.35,0.25L2.9-9.8c-0.033,0.033-0.083,0.033-0.15,0
				L2.7-9.75C1.833-9.383,1.267-9.117,1-8.95v0.15l1.7-0.7L2.5-9.15l-0.05,0.2C1.383-8.383,0.567-7.867,0-7.4
				c0.333,0.133,1.017-0.033,2.05-0.5l-0.1,0.2C0.783-7.2,0.2-6.75,0.2-6.35c0.133-0.133,0.6-0.4,1.4-0.8h0.05l0.3-0.2L2.1-7.4
				l0.15-0.1L2.5-7.55c-0.1,0.2-0.25,0.3-0.45,0.3L1.9-7.2L1.75-6.35L0.2-5.55v0.2c0.1,0.033,0.617-0.167,1.55-0.6
				c-0.033,0.133-0.033,0.3,0,0.5l0.5-0.25c0.533-0.2,0.9-0.283,1.1-0.25L1.75-5.1v0.3L0.5-4.05c0.1,0.033,0.333,0,0.7-0.1V-4.3
				L2.9-5L2.75-4.9c-0.3,0.3-0.6,0.5-0.9,0.6v0.2l0.1,0.45c0.3-0.167,0.633-0.283,1-0.35v0.05L2.1-3.35l0.05,0.2L1.6-2.9l0.05,0.1
				l0.2-0.05L2.2-3l0.05,0.25C3.283-3.05,3.833-3.233,3.9-3.3C3.833-3.133,3.6-2.95,3.2-2.75c-0.434,0.267-0.667,0.433-0.7,0.5v0.1
				L2.05-2.1v0.15L2.7-1.9c0.133,0.433,0.383,0.8,0.75,1.1L3.5-0.7L1.8-0.2V0c0.767-0.133,1.45-0.3,2.05-0.5L3.9-0.4l0.6-0.3h0.3
				v0.05L4.35-0.3l0.2,0.05h0.1C4.75-0.15,4.867-0.1,5-0.1l0.15-0.2L5.3-0.2v0.1l0.3,0.05L5.65-0.1H5.7l0.4-0.3l0.05-0.1L6.1-0.35
				l-0.2,0.3L6.3-0.1l0.1-0.1h0.05l0.6-0.35L7.2-0.5v0.1L6.95-0.2h0.3l1.1-0.2c0.767-0.233,1.517-0.517,2.25-0.85l0.45-0.25
				c1.133-0.7,1.934-1.633,2.4-2.8c0.233-0.5,0.4-1.083,0.5-1.75v-0.9c0-0.833-0.167-1.566-0.5-2.2L13.2-9.7l-0.4-0.5
				C12.6-10.467,12.3-10.733,11.9-11z"/>
		</g>
	</g>
	<g id="Layer_4_11_">
	</g>
</symbol>
<symbol  id="FlashAICB_x2F_Layer_1_x2F__x3C_Clip_Group_0_x3E__x5F_9" viewBox="0 -36.2 37.8 36.2">
	<g id="Layer_1_24_">
	</g>
	<g>
		<defs>
			<polygon id="SVGID_39_" points="0,0 0,-36.2 37.8,-36.2 37.8,0 			"/>
		</defs>
		<clipPath id="SVGID_40_">
			<use xlink:href="#SVGID_39_"  style="overflow:visible;"/>
		</clipPath>
		<g id="Layer_3_20_" style="clip-path:url(#SVGID_40_);">
			
				<use xlink:href="#FlashAICB_x2F_Layer_1_x2F__x3C_Clip_Group_0_x3E_"  width="37.8" height="36.2" y="-36.2" style="overflow:visible;"/>
		</g>
	</g>
	<g id="Layer_4_20_">
	</g>
</symbol>
<symbol  id="FlashAICB_x2F_Layer_1_x2F__x3C_Group_x3E_" viewBox="0 -66.434 119.2 66.434">
	<g id="Layer_1_25_">
		<g>
			
				<use xlink:href="#FlashAICB_x2F_Layer_1_x2F__x3C_Path_x3E__x5F_1"  width="119.2" height="60.45" y="-60.45" style="overflow:visible;opacity:0.1992;enable-background:new    ;"/>
			
				<use xlink:href="#FlashAICB_x2F_Layer_1_x2F__x3C_Path_x3E__x5F_0"  width="119.2" height="66.434" y="-66.434" style="overflow:visible;opacity:0.1211;enable-background:new    ;"/>
		</g>
	</g>
</symbol>
<symbol  id="FlashAICB_x2F_Layer_1_x2F__x3C_Path_x3E_" viewBox="0 -61.9 128.65 61.9">
	<g id="Layer_1_21_">
		
			<radialGradient id="SVGID_41_" cx="64.3252" cy="-30.9502" r="50.4757" gradientTransform="matrix(1 0 0 -1 0 -61.9004)" gradientUnits="userSpaceOnUse">
			<stop  offset="0.051" style="stop-color:#4F1972"/>
			<stop  offset="0.5216" style="stop-color:#4C2675"/>
			<stop  offset="0.6392" style="stop-color:#4B2A75"/>
		</radialGradient>
		<path style="fill-rule:evenodd;clip-rule:evenodd;fill:url(#SVGID_41_);" d="M128.05-0.3l0.6,0.3
			c-0.667-17.233-7.217-31.85-19.65-43.85C96.533-55.883,81.617-61.9,64.25-61.9c-17.033,0-31.733,5.816-44.1,17.45
			C7.817-32.883,1.1-18.683,0-1.85c5-13,13.217-23.5,24.65-31.5c11.7-8.2,24.733-12.3,39.1-12.3c14.633,0,27.883,4.25,39.75,12.75
			C115.1-24.567,123.283-13.7,128.05-0.3z"/>
	</g>
</symbol>
<symbol  id="FlashAICB_x2F_Layer_1_x2F__x3C_Path_x3E__x5F_0" viewBox="0 -66.434 119.2 66.434">
	<g id="Layer_1_23_">
		<path style="fill-rule:evenodd;clip-rule:evenodd;fill:#FFFFFF;" d="M115.4-37.25c2.533-6.1,3.8-11.85,3.8-17.25
			c0-5.367-1.567-8.75-4.7-10.15c-2.533-1.133-6.783-1.117-12.75,0.05c-7.867,1.9-14.183,3.367-18.95,4.4
			c-8.667,1.833-16.4,2.75-23.2,2.75c-6.833,0-14.567-1-23.2-3c-9.033-2.367-15.35-3.966-18.95-4.8c-6-1.367-10.25-1.55-12.75-0.55
			C1.567-64.533,0-61.217,0-55.85c0,5.934,1.267,12.083,3.8,18.45c2.7,6.667,6.467,12.7,11.3,18.1C26.733-6.433,41.567,0,59.6,0
			c17.833,0,32.65-6.5,44.45-19.5C108.883-24.833,112.667-30.75,115.4-37.25z"/>
	</g>
</symbol>
<symbol  id="FlashAICB_x2F_Layer_1_x2F__x3C_Path_x3E__x5F_1" viewBox="0 -60.45 119.2 60.45">
	<g id="Layer_1_22_">
		
			<linearGradient id="SVGID_42_" gradientUnits="userSpaceOnUse" x1="16160.6563" y1="-58.4668" x2="16221.0479" y2="-58.4668" gradientTransform="matrix(1.654944e-005 1 -1 -0.001 0.8657 -16221.1064)">
			<stop  offset="0.1294" style="stop-color:#E2B8B2"/>
			<stop  offset="0.9255" style="stop-color:#FFFFFF"/>
		</linearGradient>
		<path style="fill-rule:evenodd;clip-rule:evenodd;fill:url(#SVGID_42_);" d="M104.05-19.5c4.833-5.333,8.617-11.25,11.35-17.75
			c2.533-6.1,3.8-11.85,3.8-17.25c0-1.9-0.167-3.5-0.5-4.8c-2,11.966-7.85,22.6-17.55,31.9c-11.433,11-25.283,16.5-41.55,16.5
			c-16.5,0-30.4-5.483-41.7-16.45C8.133-36.783,2.333-47.817,0.5-60.45C0.167-59.217,0-57.683,0-55.85
			c0,5.934,1.267,12.083,3.8,18.45c2.7,6.667,6.467,12.7,11.3,18.1C26.733-6.433,41.567,0,59.6,0C77.433,0,92.25-6.5,104.05-19.5z"
			/>
	</g>
</symbol>
<g>
	<path style="fill-rule:evenodd;clip-rule:evenodd;fill:#FFFFFF;" d="M25.15,25.2c7.934-7.934,17.017-14.083,27.25-18.45
		C63.033,2.25,74.167,0,85.8,0c11.634,0,22.767,2.25,33.4,6.75c10.3,4.367,19.416,10.517,27.35,18.45
		c7.9,7.933,14.033,17.033,18.4,27.3c4.5,10.633,6.75,21.767,6.75,33.4s-2.25,22.767-6.75,33.4c-4.367,10.267-10.5,19.367-18.4,27.3
		c-7.934,7.934-17.05,14.084-27.35,18.45c-10.634,4.5-21.767,6.75-33.4,6.75c-11.633,0-22.767-2.25-33.4-6.75
		c-10.267-4.366-19.35-10.517-27.25-18.45c-7.933-7.933-14.066-17.033-18.4-27.3C2.25,108.667,0,97.533,0,85.9
		s2.25-22.767,6.75-33.4C11.083,42.233,17.217,33.133,25.15,25.2z"/>
	<g>
		<g>
			
				<linearGradient id="SVGID_43_" gradientUnits="userSpaceOnUse" x1="-157.6851" y1="85.8506" x2="-14.2856" y2="85.8506" gradientTransform="matrix(6.973501e-006 -1 1 -0.001 -1.064519e-004 4.449275e-004)">
				<stop  offset="0.0549" style="stop-color:#391D4C"/>
				<stop  offset="0.3451" style="stop-color:#5B457E"/>
				<stop  offset="0.5686" style="stop-color:#7966A8"/>
				<stop  offset="0.6392" style="stop-color:#7D6BA8"/>
				<stop  offset="0.7255" style="stop-color:#887AA7"/>
				<stop  offset="0.8118" style="stop-color:#9B93A5"/>
				<stop  offset="0.9059" style="stop-color:#B5B5A3"/>
				<stop  offset="1" style="stop-color:#D6E0A0"/>
			</linearGradient>
			<path style="fill-rule:evenodd;clip-rule:evenodd;fill:url(#SVGID_43_);" d="M57.95,19.85c8.867-3.767,18.15-5.65,27.85-5.65
				c9.7,0,19,1.883,27.9,5.65c8.566,3.633,16.166,8.75,22.8,15.35c6.634,6.633,11.767,14.233,15.4,22.8
				c3.767,8.9,5.649,18.2,5.649,27.9s-1.883,19-5.649,27.9c-3.634,8.566-8.767,16.167-15.4,22.8
				c-6.634,6.601-14.233,11.717-22.8,15.351c-8.9,3.767-18.2,5.649-27.9,5.649c-9.7,0-18.983-1.883-27.85-5.649
				c-8.567-3.634-16.167-8.75-22.8-15.351c-6.6-6.633-11.717-14.233-15.35-22.8c-3.767-8.899-5.65-18.2-5.65-27.9
				s1.883-19,5.65-27.9c3.633-8.567,8.75-16.167,15.35-22.8C41.783,28.6,49.383,23.483,57.95,19.85z"/>
			<path style="fill-rule:evenodd;clip-rule:evenodd;fill:#31074F;" d="M58.25,20.65c-8.467,3.6-15.967,8.667-22.5,15.2
				C21.917,49.683,15,66.367,15,85.9c0,19.567,6.917,36.25,20.75,50.05c6.533,6.533,14.033,11.6,22.5,15.2
				c8.767,3.699,17.95,5.55,27.55,5.55c19.566,0,36.267-6.917,50.101-20.75c6.533-6.533,11.6-14.033,15.199-22.5
				c3.7-8.767,5.551-17.95,5.551-27.55S154.8,67.117,151.1,58.35c-3.6-8.467-8.666-15.967-15.199-22.5
				c-6.534-6.534-14.034-11.6-22.5-15.2c-8.801-3.7-18-5.55-27.601-5.55C76.2,15.1,67.017,16.95,58.25,20.65z M34.5,34.55
				c6.833-6.833,14.683-12.083,23.55-15.75c8.833-3.667,18.083-5.5,27.75-5.5c9.7,0,18.967,1.833,27.8,5.5
				c8.867,3.667,16.717,8.917,23.551,15.75c6.866,6.833,12.133,14.684,15.8,23.55c3.666,8.833,5.5,18.1,5.5,27.8
				s-1.834,18.966-5.5,27.8c-3.667,8.833-8.934,16.683-15.8,23.55c-6.834,6.866-14.684,12.116-23.551,15.75
				c-8.833,3.667-18.1,5.5-27.8,5.5c-9.667,0-18.917-1.833-27.75-5.5c-8.867-3.667-16.716-8.917-23.55-15.75
				c-6.867-6.833-12.133-14.684-15.8-23.55c-3.633-8.834-5.45-18.101-5.45-27.8s1.817-18.967,5.45-27.8
				C22.367,49.233,27.633,41.383,34.5,34.55z"/>
		</g>
		
			<radialGradient id="SVGID_44_" cx="85.8252" cy="83.5747" r="64.3499" gradientTransform="matrix(1 0 0 -1 0 167.1494)" gradientUnits="userSpaceOnUse">
			<stop  offset="0.502" style="stop-color:#8F81E0"/>
			<stop  offset="0.6392" style="stop-color:#8678CE;stop-opacity:0.9059"/>
			<stop  offset="0.9059" style="stop-color:#6F60A1;stop-opacity:0.6588"/>
			<stop  offset="1" style="stop-color:#67578F;stop-opacity:0.5686"/>
		</radialGradient>
		<path style="fill-rule:evenodd;clip-rule:evenodd;fill:url(#SVGID_44_);" d="M131.4,38.1c12.566,12.566,18.85,27.716,18.85,45.45
			c0,17.767-6.283,32.934-18.85,45.5c-12.601,12.533-27.801,18.8-45.601,18.8c-17.767,0-32.95-6.267-45.55-18.8
			c-12.567-12.566-18.85-27.733-18.85-45.5c0-17.733,6.283-32.883,18.85-45.45c12.6-12.534,27.783-18.8,45.55-18.8
			C103.6,19.3,118.8,25.566,131.4,38.1z"/>
		<g>
			<path style="fill-rule:evenodd;clip-rule:evenodd;fill:#C3B0EC;" d="M117.85,66.6l0.801-0.05c1.133,0,2.116,0.367,2.949,1.1
				l1.2-0.05c1.134,0.033,2.117,0.417,2.95,1.15s1.316,1.65,1.45,2.75c3.467,0.667,5.066,2.367,4.8,5.1
				c-0.066,1.1-0.5,2.05-1.3,2.85c-0.9,0.9-2.066,1.35-3.5,1.35l-1.601-0.05c-0.633-0.067-1.517-0.1-2.649-0.1
				c-0.2,0.467-0.566,1.133-1.101,2v0.15l0.051,0.05l0.149,0.55l0.101,0.15l0.1,0.6c0.066,0.067,0.167,0.283,0.3,0.65l0.75,1.75
				l1.05,1.55c0.167,0.167,0.351,0.25,0.551,0.25c0.699,0,1.566-0.35,2.6-1.05l0.65-0.7c0.399-0.467,0.966-0.933,1.699-1.399
				l0.851-0.4l0.95-0.3l1-0.1c1.267,0,2.35,0.45,3.25,1.35c2.233,2.3,2.833,6.05,1.8,11.25c-0.9,4.467-2.584,8.05-5.05,10.75
				l-0.851,0.75c-0.366,0.3-0.783,0.533-1.25,0.7l-0.05,0.05c-0.6,0.3-1.116,0.467-1.55,0.5l-1.5,0.7
				c-1.9,0.833-5.467,1.85-10.7,3.05l-8.3,1.8c-0.634,0.134-1.7,0.233-3.2,0.3l0.2,0.851c0.833,1.2,1.6,2.616,2.3,4.25
				c0.634,1.533,0.483,2.983-0.45,4.35c-0.833,1.3-2.066,1.95-3.7,1.95h-0.35c-0.3,0.5-0.7,0.95-1.2,1.35
				c-0.5,0.334-1.083,0.584-1.75,0.75c-1.267,3.867-3.85,6.283-7.75,7.25c-2.733,0.634-5.366,0.95-7.9,0.95l-11.85-0.05
				c-2.3,0-4.667-0.233-7.1-0.7c-3.067-0.467-6.25-1.316-9.55-2.55l-4.35-1.7l-0.2-0.1l-4.15-1.65l-0.1-0.05
				c-1.8-0.8-3.1-2.117-3.9-3.95l-0.05-0.1c-1.467-3.634-1.75-7.351-0.85-11.15v-0.05l-0.05-0.3c-0.133-0.467-0.167-1.033-0.1-1.7
				l0.2-1.95l0.1-0.25l0.15-0.649l0.4-4.351l-0.55-0.7c-2.167-2.533-3.583-5.283-4.25-8.25L38.4,96.9
				c-0.566-4-0.183-7.75,1.15-11.25c-0.867-1.067-1.383-2.367-1.55-3.9l-0.8-0.55c-1.2-0.934-1.883-2.233-2.05-3.9
				c-0.1-1.3,0.133-2.566,0.7-3.8c0.566-1.233,1.583-2.383,3.05-3.45c0.8-0.566,1.733-0.833,2.8-0.8c1.066,0.033,1.983,0.367,2.75,1
				l0.1,0.1h0.35c0.767,0,1.467,0.1,2.1,0.3c0.467,0.1,0.9,0.3,1.3,0.6c0.9,0.566,1.65,1.35,2.25,2.35l2.05-0.55
				c0.933-0.667,1.967-0.95,3.1-0.85l0.45-0.1c1.434-0.267,2.583-0.35,3.45-0.25l12.5-1.5l2.65-0.1c0.5-0.333,0.967-0.567,1.4-0.7
				c0.667-0.533,1.434-0.867,2.3-1c0.9-0.1,1.733,0.033,2.5,0.4l0.5-0.2c0.5-0.2,1.05-0.3,1.65-0.3c1.533,0,2.75,0.566,3.65,1.7
				l0.35,0.05l0.351-0.4c0.7-0.833,1.633-1.333,2.8-1.5c0.066-0.433,0.233-1.117,0.5-2.05c-0.1-0.3-0.15-0.6-0.15-0.9
				c-0.366-1.333-0.183-2.55,0.551-3.65c0.833-1.367,2.116-2.05,3.85-2.05c0.967,0,1.85,0.267,2.65,0.8
				c0.6,0.167,1.066,0.383,1.399,0.65l0.851,0.4c0.533,0.167,0.983,0.383,1.35,0.65c2.1,0.8,3.783,1.783,5.05,2.95l0.5,0.55
				c0.733,0.667,1.267,1.467,1.601,2.4c0.267,0.434,0.449,0.883,0.55,1.35l0.25,0.55c0.666-0.567,1.434-1.067,2.3-1.5
				c1.134-0.6,2.333-1.017,3.6-1.25L117.85,66.6z"/>
			<path style="fill-rule:evenodd;clip-rule:evenodd;fill:none;stroke:#C3B0EC;stroke-width:0.25;" d="M117.85,66.6l-2.75,0.6
				c-1.267,0.233-2.466,0.65-3.6,1.25c-0.866,0.433-1.634,0.933-2.3,1.5l-0.25-0.55c-0.101-0.467-0.283-0.917-0.55-1.35
				c-0.334-0.933-0.867-1.733-1.601-2.4l-0.5-0.55c-1.267-1.167-2.95-2.15-5.05-2.95c-0.366-0.267-0.816-0.483-1.35-0.65l-0.851-0.4
				c-0.333-0.267-0.8-0.483-1.399-0.65c-0.801-0.534-1.684-0.8-2.65-0.8c-1.733,0-3.017,0.683-3.85,2.05
				c-0.733,1.1-0.917,2.316-0.551,3.65c0,0.3,0.051,0.6,0.15,0.9c-0.267,0.933-0.434,1.617-0.5,2.05c-1.167,0.167-2.1,0.667-2.8,1.5
				L87.1,70.2l-0.35-0.05c-0.9-1.133-2.117-1.7-3.65-1.7c-0.6,0-1.15,0.1-1.65,0.3l-0.5,0.2c-0.767-0.367-1.6-0.5-2.5-0.4
				c-0.867,0.133-1.633,0.467-2.3,1c-0.433,0.133-0.9,0.367-1.4,0.7l-2.65,0.1l-12.5,1.5c-0.867-0.1-2.017-0.017-3.45,0.25
				l-0.45,0.1c-1.133-0.1-2.167,0.183-3.1,0.85l-2.05,0.55c-0.6-1-1.35-1.784-2.25-2.35c-0.4-0.3-0.833-0.5-1.3-0.6
				c-0.633-0.2-1.333-0.3-2.1-0.3h-0.35l-0.1-0.1c-0.767-0.633-1.684-0.967-2.75-1c-1.067-0.033-2,0.233-2.8,0.8
				c-1.467,1.067-2.483,2.217-3.05,3.45c-0.567,1.233-0.8,2.5-0.7,3.8c0.167,1.667,0.85,2.967,2.05,3.9l0.8,0.55
				c0.167,1.533,0.683,2.833,1.55,3.9c-1.333,3.5-1.716,7.25-1.15,11.25l0.05,0.199c0.667,2.967,2.083,5.717,4.25,8.25l0.55,0.7
				l-0.4,4.351l-0.15,0.649l-0.1,0.25l-0.2,1.95c-0.066,0.667-0.033,1.233,0.1,1.7l0.05,0.3v0.05c-0.9,3.8-0.617,7.517,0.85,11.15
				l0.05,0.1c0.8,1.833,2.1,3.15,3.9,3.95l0.1,0.05l4.15,1.65l0.2,0.1l4.35,1.7c3.3,1.233,6.483,2.083,9.55,2.55
				c2.433,0.467,4.8,0.7,7.1,0.7l11.85,0.05c2.534,0,5.167-0.316,7.9-0.95c3.9-0.967,6.483-3.383,7.75-7.25
				c0.667-0.166,1.25-0.416,1.75-0.75c0.5-0.399,0.9-0.85,1.2-1.35h0.35c1.634,0,2.867-0.65,3.7-1.95
				c0.934-1.366,1.084-2.816,0.45-4.35c-0.7-1.634-1.467-3.05-2.3-4.25l-0.2-0.851c1.5-0.066,2.566-0.166,3.2-0.3l8.3-1.8
				c5.233-1.2,8.8-2.217,10.7-3.05l1.5-0.7c0.434-0.033,0.95-0.2,1.55-0.5l0.05-0.05c0.467-0.167,0.884-0.4,1.25-0.7l0.851-0.75
				c2.466-2.7,4.149-6.283,5.05-10.75c1.033-5.2,0.434-8.95-1.8-11.25c-0.9-0.9-1.983-1.35-3.25-1.35l-1,0.1l-0.95,0.3l-0.851,0.4
				c-0.733,0.466-1.3,0.933-1.699,1.399l-0.65,0.7c-1.033,0.7-1.9,1.05-2.6,1.05c-0.2,0-0.384-0.083-0.551-0.25l-1.05-1.55
				l-0.75-1.75c-0.133-0.367-0.233-0.583-0.3-0.65l-0.1-0.6l-0.101-0.15l-0.149-0.55l-0.051-0.05v-0.15
				c0.534-0.867,0.9-1.533,1.101-2c1.133,0,2.017,0.033,2.649,0.1l1.601,0.05c1.434,0,2.6-0.45,3.5-1.35
				c0.8-0.8,1.233-1.75,1.3-2.85c0.267-2.733-1.333-4.434-4.8-5.1c-0.134-1.1-0.617-2.017-1.45-2.75s-1.816-1.117-2.95-1.15
				l-1.2,0.05c-0.833-0.733-1.816-1.1-2.949-1.1L117.85,66.6z"/>
			
				<linearGradient id="SVGID_45_" gradientUnits="userSpaceOnUse" x1="-136.3838" y1="86.6602" x2="-58.7446" y2="86.6602" gradientTransform="matrix(1.287830e-005 -1 1 -0.001 -8.780642e-005 4.449275e-004)">
				<stop  offset="0.149" style="stop-color:#6B49A5"/>
				<stop  offset="0.9373" style="stop-color:#A897D3"/>
			</linearGradient>
			<path style="fill-rule:evenodd;clip-rule:evenodd;fill:url(#SVGID_45_);" d="M117.85,65.65c0.167-0.033,0.434-0.05,0.801-0.05
				c1.133,0,2.116,0.367,2.949,1.1l1.2-0.05c1.134,0.033,2.117,0.417,2.95,1.15s1.316,1.65,1.45,2.75c3.467,0.6,5.066,2.3,4.8,5.1
				c-0.066,1.1-0.5,2.05-1.3,2.85c-0.9,0.9-2.066,1.35-3.5,1.35l-4.25-0.15c-0.233,0.566-0.601,1.216-1.101,1.95v0.2l0.051,0.05
				l0.149,0.5l0.101,0.2l0.1,0.6l0.3,0.6c0.134,0.4,0.384,0.983,0.75,1.75l0.9,1.4l0.149,0.149c0.167,0.2,0.351,0.301,0.551,0.301
				c0.733,0,1.6-0.367,2.6-1.101l0.65-0.7c0.466-0.534,1.033-1,1.699-1.4l0.851-0.4l0.95-0.25c0.199-0.066,0.533-0.1,1-0.1
				c1.333,0,2.416,0.45,3.25,1.35c2.233,2.3,2.833,6.05,1.8,11.25c-0.9,4.4-2.584,7.983-5.05,10.75l-0.851,0.75
				c-0.533,0.367-0.95,0.601-1.25,0.7h-0.05c-0.434,0.267-0.95,0.45-1.55,0.55l-1.5,0.65c-1.934,0.899-5.5,1.916-10.7,3.05
				l-8.3,1.85c-0.867,0.167-1.934,0.267-3.2,0.301l0.2,0.85c0.733,1.033,1.5,2.434,2.3,4.2c0.634,1.566,0.483,3.033-0.45,4.399
				c-0.866,1.301-2.1,1.95-3.7,1.95h-0.35c-0.3,0.533-0.7,0.967-1.2,1.3c-0.5,0.4-1.083,0.65-1.75,0.75
				c-1.233,3.867-3.816,6.301-7.75,7.301c-2.6,0.6-5.233,0.899-7.9,0.899H83.5c-1.9-0.066-4.733-0.1-8.5-0.1
				c-0.933,0.066-1.667,0.1-2.2,0.1c-2.3,0-4.667-0.233-7.1-0.7c-3.3-0.566-6.483-1.416-9.55-2.55l-4.35-1.7l-0.2-0.1l-4.15-1.65
				l-0.1-0.05c-1.8-0.8-3.1-2.116-3.9-3.95l-0.05-0.1c-1.467-3.634-1.75-7.367-0.85-11.2v-0.05L42.5,114
				c-0.133-0.467-0.167-1.033-0.1-1.7l0.2-1.95l0.1-0.25l0.15-0.649l0.4-4.351L42.7,104.4c-2.167-2.5-3.583-5.25-4.25-8.25
				L38.4,95.9c-0.566-3.967-0.183-7.7,1.15-11.2c-0.867-1.067-1.383-2.367-1.55-3.9l-0.8-0.6c-1.2-0.967-1.883-2.267-2.05-3.9
				c-0.1-1.267,0.133-2.533,0.7-3.8c0.633-1.3,1.65-2.434,3.05-3.4c0.8-0.6,1.733-0.883,2.8-0.85c1.066,0.033,1.983,0.383,2.75,1.05
				l0.1,0.1h0.35c0.667,0,1.367,0.083,2.1,0.25c0.5,0.167,0.933,0.367,1.3,0.6c0.967,0.667,1.717,1.467,2.25,2.4
				c0.534-0.2,1.217-0.383,2.05-0.55c0.867-0.667,1.9-0.95,3.1-0.85l0.45-0.1c1.267-0.267,2.417-0.35,3.45-0.25l12.5-1.5l2.65-0.1
				c0.333-0.267,0.8-0.517,1.4-0.75c0.667-0.533,1.434-0.85,2.3-0.95c0.9-0.1,1.733,0.033,2.5,0.4l0.5-0.2
				c0.5-0.2,1.05-0.3,1.65-0.3c1.533,0,2.75,0.566,3.65,1.7h0.35l0.351-0.35c0.7-0.833,1.633-1.333,2.8-1.5
				c0.066-0.467,0.233-1.167,0.5-2.1c-0.1-0.233-0.15-0.517-0.15-0.85c-0.366-1.333-0.183-2.55,0.551-3.65
				c0.866-1.4,2.149-2.1,3.85-2.1c1,0,1.884,0.283,2.65,0.85c0.6,0.167,1.066,0.383,1.399,0.65l0.851,0.4
				c0.399,0.067,0.85,0.267,1.35,0.6c2.1,0.867,3.783,1.85,5.05,2.95l0.5,0.6c0.7,0.6,1.233,1.4,1.601,2.4
				c0.267,0.433,0.449,0.867,0.55,1.3l0.25,0.55c0.7-0.534,1.467-1.017,2.3-1.45c1.1-0.567,2.3-1,3.6-1.3L117.85,65.65z"/>
			<path style="fill-rule:evenodd;clip-rule:evenodd;fill:none;stroke:#C3B0EC;stroke-width:0.25;" d="M117.85,65.65l-2.75,0.55
				c-1.3,0.3-2.5,0.733-3.6,1.3c-0.833,0.433-1.6,0.917-2.3,1.45l-0.25-0.55c-0.101-0.433-0.283-0.867-0.55-1.3
				c-0.367-1-0.9-1.8-1.601-2.4l-0.5-0.6c-1.267-1.1-2.95-2.083-5.05-2.95c-0.5-0.333-0.95-0.533-1.35-0.6l-0.851-0.4
				c-0.333-0.267-0.8-0.483-1.399-0.65C96.884,58.933,96,58.65,95,58.65c-1.7,0-2.983,0.7-3.85,2.1
				c-0.733,1.1-0.917,2.316-0.551,3.65c0,0.333,0.051,0.617,0.15,0.85c-0.267,0.933-0.434,1.633-0.5,2.1
				c-1.167,0.167-2.1,0.667-2.8,1.5L87.1,69.2h-0.35c-0.9-1.134-2.117-1.7-3.65-1.7c-0.6,0-1.15,0.1-1.65,0.3l-0.5,0.2
				c-0.767-0.367-1.6-0.5-2.5-0.4c-0.867,0.1-1.633,0.417-2.3,0.95c-0.6,0.233-1.066,0.483-1.4,0.75l-2.65,0.1l-12.5,1.5
				c-1.033-0.1-2.184-0.017-3.45,0.25l-0.45,0.1c-1.2-0.1-2.233,0.183-3.1,0.85c-0.833,0.167-1.517,0.35-2.05,0.55
				c-0.533-0.933-1.283-1.733-2.25-2.4c-0.367-0.233-0.8-0.434-1.3-0.6c-0.733-0.167-1.433-0.25-2.1-0.25h-0.35l-0.1-0.1
				c-0.767-0.667-1.684-1.017-2.75-1.05c-1.067-0.033-2,0.25-2.8,0.85c-1.4,0.966-2.417,2.1-3.05,3.4
				c-0.567,1.267-0.8,2.533-0.7,3.8c0.167,1.633,0.85,2.934,2.05,3.9l0.8,0.6c0.167,1.533,0.683,2.833,1.55,3.9
				c-1.333,3.5-1.716,7.233-1.15,11.2l0.05,0.25c0.667,3,2.083,5.75,4.25,8.25l0.55,0.699l-0.4,4.351L42.7,110.1l-0.1,0.25
				l-0.2,1.95c-0.066,0.667-0.033,1.233,0.1,1.7l0.05,0.25v0.05c-0.9,3.833-0.617,7.566,0.85,11.2l0.05,0.1
				c0.8,1.834,2.1,3.15,3.9,3.95l0.1,0.05l4.15,1.65l0.2,0.1l4.35,1.7c3.067,1.134,6.25,1.983,9.55,2.55
				c2.433,0.467,4.8,0.7,7.1,0.7c0.534,0,1.267-0.033,2.2-0.1c3.767,0,6.6,0.033,8.5,0.1h1.15c2.667,0,5.3-0.3,7.9-0.899
				c3.934-1,6.517-3.434,7.75-7.301c0.667-0.1,1.25-0.35,1.75-0.75c0.5-0.333,0.9-0.767,1.2-1.3h0.35c1.601,0,2.834-0.649,3.7-1.95
				c0.934-1.366,1.084-2.833,0.45-4.399c-0.8-1.767-1.566-3.167-2.3-4.2l-0.2-0.85c1.267-0.034,2.333-0.134,3.2-0.301l8.3-1.85
				c5.2-1.134,8.767-2.15,10.7-3.05l1.5-0.65c0.6-0.1,1.116-0.283,1.55-0.55h0.05c0.3-0.1,0.717-0.333,1.25-0.7l0.851-0.75
				c2.466-2.767,4.149-6.35,5.05-10.75c1.033-5.2,0.434-8.95-1.8-11.25c-0.834-0.9-1.917-1.35-3.25-1.35c-0.467,0-0.801,0.033-1,0.1
				l-0.95,0.25l-0.851,0.4c-0.666,0.4-1.233,0.866-1.699,1.4l-0.65,0.7c-1,0.733-1.866,1.101-2.6,1.101
				c-0.2,0-0.384-0.101-0.551-0.301L124.2,86.95l-0.9-1.4c-0.366-0.767-0.616-1.35-0.75-1.75l-0.3-0.6l-0.1-0.6l-0.101-0.2
				l-0.149-0.5l-0.051-0.05v-0.2c0.5-0.733,0.867-1.383,1.101-1.95l4.25,0.15c1.434,0,2.6-0.45,3.5-1.35
				c0.8-0.8,1.233-1.75,1.3-2.85c0.267-2.8-1.333-4.5-4.8-5.1c-0.134-1.1-0.617-2.017-1.45-2.75s-1.816-1.117-2.95-1.15l-1.2,0.05
				c-0.833-0.733-1.816-1.1-2.949-1.1C118.283,65.6,118.017,65.617,117.85,65.65z"/>
			<path style="fill-rule:evenodd;clip-rule:evenodd;fill:#31074F;" d="M109.2,74.05l0.05-0.05l0.2-0.35
				c0.899-1.3,2.083-2.35,3.55-3.15c0.934-0.434,1.884-0.767,2.85-1l2.601-0.5c0.566-0.1,0.983,0.117,1.25,0.65l0.25,0.6
				c0.8-0.133,1.717-0.2,2.75-0.2c0.333,0,0.616,0.1,0.85,0.3c0.2,0.2,0.316,0.45,0.351,0.75c0.033,0.3-0.051,0.566-0.25,0.8
				c-0.2,0.267-0.45,0.417-0.75,0.45l-2.25,0.4l0.1,0.85h0.35c1.667-0.2,3.417-0.117,5.25,0.25c0.867,0.133,1.45,0.267,1.75,0.4
				c0.4,0.2,0.584,0.566,0.551,1.1c-0.101,0.733-0.584,1.1-1.45,1.1l-1.4-0.05c-1.833-0.133-3.55-0.117-5.149,0.05h-0.2
				c-0.134,0.5-0.316,1.05-0.55,1.65c-0.267,0.733-0.617,1.367-1.051,1.9l-0.75,1.2l0.301,1l0.1,0.1l0.05,0.25l0.15,0.5l0.149,0.35
				l0.351,1.3l0.149,0.25l0.9,2.1l1.15,1.8l0.399,0.5c0.834,0.934,1.867,1.4,3.101,1.4c1.6,0,3.25-0.65,4.949-1.95l0.051-0.05
				l0.699-0.8c0.267-0.334,0.617-0.617,1.051-0.851l0.199-0.1l0.551-0.15c0.433-0.1,0.8,0,1.1,0.301c1.4,1.433,1.7,4.183,0.9,8.25
				c-0.767,3.8-2.2,6.85-4.301,9.149l-0.1,0.101l-0.3,0.25l-0.351,0.199L129,105.2c-0.267,0.233-0.55,0.316-0.85,0.25L126,106.4
				c-1.634,0.767-4.967,1.699-10,2.8c-2.3,0.566-4.066,0.967-5.3,1.2l-3.05,0.649c-0.733,0.134-1.7,0.2-2.9,0.2l-3,0.55
				c-0.167,1.467-0.066,2.833,0.3,4.101l0.25,1.05c0.9,1.233,1.684,2.6,2.351,4.1c0.166,0.4,0.116,0.767-0.15,1.101
				c-0.233,0.399-0.55,0.566-0.95,0.5l-1.7-0.101L100.4,122l0.149,1.55c0.033,0.434-0.133,0.783-0.5,1.05
				c-0.333,0.267-0.7,0.317-1.1,0.15l-1.2-0.6l-0.5,2.55c-0.866,2.899-2.717,4.7-5.55,5.399c-2.367,0.567-4.717,0.851-7.05,0.851
				c-0.467,0-0.8-0.017-1-0.05H72.8c-2.167,0-4.333-0.2-6.5-0.601c-3-0.533-6-1.35-9-2.45l-4.2-1.649l-0.2-0.101l-4.2-1.649
				c-0.934-0.4-1.65-1.15-2.15-2.25c-1.267-2.967-1.483-6.101-0.65-9.4v-0.1l0.1-0.55l-0.1-0.4l-0.05-0.45v-0.05
				c-0.1-0.2-0.117-0.417-0.05-0.65c0-0.566,0.05-1.1,0.15-1.6l0.25-0.95l0.55-6.1l-1.45-1.7c-1.8-2.167-2.983-4.45-3.55-6.85
				c-0.6-4.167,0.05-8.051,1.95-11.65c-0.133-0.033-0.333-0.15-0.6-0.35c-0.267-0.133-0.517-0.35-0.75-0.65
				c-0.8-0.867-1.117-1.95-0.95-3.25c0.067-0.5,0.184-0.95,0.35-1.35H41.5c-1.067,0-1.783-0.183-2.15-0.55
				c-0.5-0.367-0.767-0.9-0.8-1.6c-0.066-0.733,0.05-1.434,0.35-2.1c0.367-0.733,1.017-1.417,1.95-2.05
				c0.5-0.333,0.967-0.317,1.4,0.05c0.367,0.333,0.5,0.717,0.4,1.15c0.733-0.167,1.45-0.25,2.15-0.25H45l1.05,0.1l0.35,0.15
				c1.1,0.767,1.667,1.783,1.7,3.05c0.133-0.034,0.333-0.017,0.6,0.05l0.45,0.2h0.05c0.267-0.1,0.55-0.083,0.85,0.05l1.6-0.55
				c0.867-0.3,1.733-0.5,2.6-0.6c0.233-0.5,0.617-0.717,1.15-0.65l0.7,0.15l0.15-0.05c0.2-0.134,0.383-0.217,0.55-0.25
				c1.2-0.233,2.117-0.284,2.75-0.15l16.85-1.7c0.067-0.2,0.15-0.35,0.25-0.45c0.367-0.433,0.783-0.567,1.25-0.4L78,71.5
				c0.167-0.267,0.4-0.45,0.7-0.55c0.3-0.067,0.583-0.034,0.85,0.1l0.75,0.45l0.3-0.05c0.467,0.1,0.8,0.183,1,0.25
				c0.133-0.233,0.267-0.4,0.4-0.5l0.55-0.2c0.233-0.133,0.517-0.167,0.85-0.1c0.333,0.067,0.583,0.2,0.75,0.4l0.4,0.55l1.3,0.7
				l2.601,0.1c0.267-0.2,0.55-0.3,0.85-0.3l0.5,0.05c-0.233-0.5-0.184-0.933,0.15-1.3c0.2-0.233,0.45-0.367,0.75-0.4
				c0.267-0.034,0.517,0.033,0.75,0.2l1.95,1.4l0.699,0.4C93.2,70.433,93.3,67.867,94.4,65c-0.367-0.333-0.5-0.733-0.4-1.2
				l-0.1-0.15c-0.167-0.4-0.134-0.767,0.1-1.1c0.2-0.333,0.517-0.5,0.95-0.5c0.434-0.033,0.767,0.117,1,0.45l0.3,0.25
				c0.366-0.067,0.717,0.017,1.05,0.25l0.05,0.05l1.2,0.65L99,63.8l0.45,0.2l0.1,0.15c1.934,0.7,3.417,1.517,4.45,2.45l0.35,0.45
				c0.467,0.367,0.817,0.9,1.051,1.6l0.25,0.55c0.033,0.2,0.116,0.433,0.25,0.7c0.133,0.167,0.216,0.467,0.25,0.9
				c0.199,0.267,0.3,0.5,0.3,0.7l0.05,1.45c0.066,0.267,0.083,0.45,0.05,0.55L109.2,74.05z"/>
			<g>
				
					<use xlink:href="#FlashAICB_x2F_Layer_1_x2F__x3C_Clip_Group_0_x3E__x5F_18"  width="16.45" height="26.35" y="-26.35" transform="matrix(1 0 0 -1 89.1504 99.5)" style="overflow:visible;"/>
				
					<use xlink:href="#FlashAICB_x2F_Layer_1_x2F__x3C_Clip_Group_0_x3E__x5F_17"  width="29.7" height="37.25" y="-37.25" transform="matrix(1 0 0 -1 38.2002 84.7002)" style="overflow:visible;"/>
				
					<use xlink:href="#FlashAICB_x2F_Layer_1_x2F__x3C_Clip_Group_0_x3E__x5F_16"  width="74.2" height="40.967" y="-40.967" transform="matrix(1 0 0 -1 42.0498 71.8501)" style="overflow:visible;"/>
				
					<use xlink:href="#FlashAICB_x2F_Layer_1_x2F__x3C_Clip_Group_0_x3E__x5F_15"  width="11.85" height="12.7" y="-12.7" transform="matrix(1 0 0 -1 39 71.0498)" style="overflow:visible;"/>
				
					<use xlink:href="#FlashAICB_x2F_Layer_1_x2F__x3C_Clip_Group_0_x3E__x5F_14"  width="11.65" height="18.3" y="-18.3" transform="matrix(1 0 0 -1 60.2998 91.5996)" style="overflow:visible;"/>
				
					<use xlink:href="#FlashAICB_x2F_Layer_1_x2F__x3C_Clip_Group_0_x3E__x5F_13"  width="26.15" height="37.6" y="-37.6" transform="matrix(1 0 0 -1 51 90.7998)" style="overflow:visible;"/>
				
					<use xlink:href="#FlashAICB_x2F_Layer_1_x2F__x3C_Clip_Group_0_x3E__x5F_12"  width="17.8" height="10.45" y="-10.45" transform="matrix(1 0 0 -1 60.8999 78)" style="overflow:visible;"/>
				
					<use xlink:href="#FlashAICB_x2F_Layer_1_x2F__x3C_Clip_Group_0_x3E__x5F_11"  width="20.05" height="10.45" y="-10.45" transform="matrix(1 0 0 -1 44.1499 84.7002)" style="overflow:visible;"/>
				
					<use xlink:href="#FlashAICB_x2F_Layer_1_x2F__x3C_Clip_Group_0_x3E__x5F_10"  width="10.93" height="14.95" y="-14.95" transform="matrix(1 0 0 -1 108.7002 70.1499)" style="overflow:visible;"/>
				
					<use xlink:href="#FlashAICB_x2F_Layer_1_x2F__x3C_Clip_Group_0_x3E__x5F_9"  width="37.8" height="36.2" y="-36.2" transform="matrix(1 0 0 -1 93.5498 73.9502)" style="overflow:visible;"/>
				
					<use xlink:href="#FlashAICB_x2F_Layer_1_x2F__x3C_Clip_Group_0_x3E__x5F_8"  width="13.95" height="12.3" y="-12.3" transform="matrix(1 0 0 -1 102.5996 83.8501)" style="overflow:visible;"/>
				
					<use xlink:href="#FlashAICB_x2F_Layer_1_x2F__x3C_Clip_Group_0_x3E__x5F_7"  width="9.173" height="7.993" x="-0.023" y="-7.957" transform="matrix(1 0 0 -1 105.4004 85.6499)" style="overflow:visible;"/>
				
					<use xlink:href="#FlashAICB_x2F_Layer_1_x2F__x3C_Clip_Group_0_x3E__x5F_6"  width="4.033" height="4.45" x="-0.017" y="-4.45" transform="matrix(1 0 0 -1 110.0996 88.5996)" style="overflow:visible;"/>
				
					<use xlink:href="#FlashAICB_x2F_Layer_1_x2F__x3C_Clip_Group_0_x3E__x5F_5"  width="18.25" height="3.555" y="-3.555" transform="matrix(1 0 0 -1 110.5498 101.3496)" style="overflow:visible;"/>
				
					<use xlink:href="#FlashAICB_x2F_Layer_1_x2F__x3C_Clip_Group_0_x3E__x5F_4"  width="5.406" height="16.35" y="-16.35" transform="matrix(1 0 0 -1 128.2998 87.9502)" style="overflow:visible;"/>
				
					<use xlink:href="#FlashAICB_x2F_Layer_1_x2F__x3C_Clip_Group_0_x3E__x5F_3"  width="15.352" height="1.85" y="-1.85" transform="matrix(1 0 0 -1 112.1504 74.6499)" style="overflow:visible;"/>
				
					<use xlink:href="#FlashAICB_x2F_Layer_1_x2F__x3C_Clip_Group_0_x3E__x5F_2"  width="12.4" height="4.3" y="-4.3" transform="matrix(1 0 0 -1 110.3496 71.2002)" style="overflow:visible;"/>
				
					<use xlink:href="#FlashAICB_x2F_Layer_1_x2F__x3C_Clip_Group_0_x3E__x5F_1"  width="10.752" height="13.2" x="-0.002" y="-13.2" transform="matrix(1 0 0 -1 94.6504 63.1499)" style="overflow:visible;"/>
				
					<use xlink:href="#FlashAICB_x2F_Layer_1_x2F__x3C_Clip_Group_0_x3E__x5F_0"  width="19.3" height="25.05" y="-25.05" transform="matrix(1 0 0 -1 79.8999 99.3496)" style="overflow:visible;"/>
			</g>
			<path style="fill-rule:evenodd;clip-rule:evenodd;fill:#31074F;" d="M89.65,106.95l3.5,3.05c2.633,2.333,4.05,5.133,4.25,8.4
				c0.333,2.5,0.116,5.216-0.65,8.149c-0.767,2.7-2.483,4.384-5.15,5.05c-2.333,0.567-4.649,0.851-6.95,0.851h-1
				c-1.967-0.067-4.883-0.101-8.75-0.101c-2.9,0.167-5.733-0.017-8.5-0.55c-2.833-0.467-5.816-1.267-8.95-2.399L48.9,126
				c-0.9-0.4-1.533-1.066-1.9-2c-1.2-2.934-1.4-5.983-0.6-9.15V114.7c0.2-2.033,1.45-3.2,3.75-3.5c2.567-0.7,4.934-1.75,7.1-3.15
				c1.167-0.767,3.033-1.316,5.6-1.649c2.433-0.4,3.85-0.834,4.25-1.301c0.767-0.666,1.9-1.416,3.4-2.25
				c1.267-0.699,3.5-1.3,6.7-1.8c2.8-0.399,5.35,0.316,7.65,2.15C86.517,104.366,88.116,105.616,89.65,106.95z"/>
			<g>
				<path style="fill-rule:evenodd;clip-rule:evenodd;fill:#E6AA93;" d="M89.25,107.4l3.5,3.1c2.5,2.2,3.85,4.85,4.05,7.95
					c-0.066,0.267-0.25,0.666-0.55,1.2c-1.6,2.833-4.066,4.533-7.4,5.1c2.034-1.333,3.483-2.417,4.351-3.25
					c2.833-2.367,2.95-4.934,0.35-7.7c-2.133-2.333-4.5-4.167-7.1-5.5c-0.4-0.333-0.634-0.6-0.7-0.8c-0.566-1.333-1-2.617-1.3-3.85
					C86.35,104.983,87.95,106.233,89.25,107.4z"/>
				<path style="fill-rule:evenodd;clip-rule:evenodd;fill:#C65953;" d="M93.55,113.8c2.601,2.767,2.483,5.333-0.35,7.7
					c-0.867,0.833-2.316,1.917-4.351,3.25l-2.199,0.15c-1.267,0-2.55-0.051-3.851-0.15c-5.733-0.6-10.983-2.467-15.75-5.6
					c-2.633,0.633-5.167,0.8-7.6,0.5c-3.3-0.367-6.083-1.434-8.35-3.2c-1.833-1.3-2.117-2.851-0.85-4.65
					c2.7-0.733,5.15-1.816,7.35-3.25c1.033-0.7,2.816-1.217,5.35-1.55c2.5-0.367,4.033-0.867,4.6-1.5
					c0.767-0.634,1.85-1.333,3.25-2.1c1.2-0.667,3.367-1.25,6.5-1.75c2.633-0.367,5.017,0.3,7.15,2c0.3,1.232,0.733,2.517,1.3,3.85
					c0.066,0.2,0.3,0.467,0.7,0.8C89.05,109.633,91.417,111.467,93.55,113.8z M92.4,119.85c0.399,0,0.699-0.199,0.899-0.6
					c0.334-0.333-0.633-0.783-2.899-1.35c-1.601-0.434-4.601-1.534-9-3.301c-3.967-1.699-6.917-3.8-8.85-6.3
					c0.667,0.134,1.317-0.017,1.95-0.45l0.75-0.6L75.7,107c0.3-0.233,0.566-0.5,0.8-0.8l0.5-0.45c0.767-1.033,1.7-1.85,2.8-2.45
					c0-0.3-0.133-0.467-0.4-0.5c-1.7-0.1-3.433,0.25-5.2,1.05l-2.45,1.051l-0.7,0.5c0,0.066-0.05,0.1-0.15,0.1v0.15
					c0,0.232-0.033,0.383-0.1,0.449c-0.333,0.834-0.966,1.301-1.9,1.4c-0.233,0.066-0.917,0.184-2.05,0.35
					c-0.1,0-0.5-0.05-1.2-0.149c-0.1,0-0.217-0.067-0.35-0.2l-10.25,4.1c0.867,0.601,3,0.483,6.4-0.35
					c3.066-0.7,4.966-1.217,5.7-1.55l1.1-0.55c4.867,2.767,9.217,5.1,13.05,7c1.833,1.033,4.2,2,7.101,2.899
					C90.733,119.684,92.066,119.95,92.4,119.85z"/>
				<path style="fill-rule:evenodd;clip-rule:evenodd;fill:#E4CFBE;" d="M93.3,119.25c-0.2,0.4-0.5,0.6-0.899,0.6
					c-0.334,0.101-1.667-0.166-4-0.8c-2.9-0.899-5.267-1.866-7.101-2.899c-3.833-1.9-8.183-4.233-13.05-7l-1.1,0.55
					c-0.733,0.333-2.633,0.85-5.7,1.55c-3.4,0.833-5.534,0.95-6.4,0.35l10.25-4.1c0.133,0.133,0.25,0.2,0.35,0.2
					c0.7,0.1,1.1,0.149,1.2,0.149c1.133-0.166,1.816-0.283,2.05-0.35c0.934-0.1,1.567-0.566,1.9-1.4
					c0.067-0.066,0.1-0.217,0.1-0.449v-0.15c0.1,0,0.15-0.033,0.15-0.1l0.7-0.5l2.45-1.051c1.767-0.8,3.5-1.149,5.2-1.05
					c0.267,0.033,0.4,0.2,0.4,0.5c-1.1,0.601-2.033,1.417-2.8,2.45l-0.5,0.45c-0.233,0.3-0.5,0.566-0.8,0.8l-0.45,0.25l-0.75,0.6
					c-0.633,0.434-1.283,0.584-1.95,0.45c1.934,2.5,4.883,4.601,8.85,6.3c4.4,1.767,7.4,2.867,9,3.301
					C92.667,118.467,93.634,118.917,93.3,119.25z"/>
				<path style="fill-rule:evenodd;clip-rule:evenodd;fill:#E6AA93;" d="M82.8,124.75c-1.8-0.1-3.517-0.25-5.15-0.45
					c-2.733-0.233-5.6-0.583-8.6-1.05c-4.867-0.833-7.517-1.3-7.95-1.4c-2.3-0.433-4.817-1.05-7.55-1.85
					c-3.033-0.767-5.216-2.45-6.55-5.05v-0.25c0.2-1.7,1.283-2.667,3.25-2.9c-1.267,1.8-0.983,3.351,0.85,4.65
					c2.267,1.767,5.05,2.833,8.35,3.2c2.433,0.3,4.966,0.133,7.6-0.5C71.817,122.283,77.067,124.15,82.8,124.75z"/>
				<path style="fill-rule:evenodd;clip-rule:evenodd;fill:#D0A691;" d="M96.25,119.65c0.3-0.534,0.483-0.934,0.55-1.2
					c0.334,2.433,0.134,5.083-0.6,7.95c-0.7,2.5-2.283,4.05-4.75,4.649c-2.5,0.601-5.101,0.867-7.8,0.8
					c-1.967-0.066-4.883-0.1-8.75-0.1c-2.933,0.167-5.733-0.017-8.4-0.55c-2.9-0.467-5.833-1.25-8.8-2.351l-8.6-3.399
					c-0.667-0.3-1.184-0.851-1.55-1.65c-1.2-2.866-1.383-5.816-0.55-8.85c1.333,2.6,3.517,4.283,6.55,5.05
					c2.733,0.8,5.25,1.417,7.55,1.85c0.433,0.101,3.083,0.567,7.95,1.4c3,0.467,5.867,0.816,8.6,1.05
					c1.633,0.2,3.35,0.351,5.15,0.45c1.3,0.1,2.584,0.15,3.851,0.15l2.199-0.15C92.184,124.184,94.65,122.483,96.25,119.65z"/>
			</g>
		</g>
		<g>
			<g>
				<path style="fill-rule:evenodd;clip-rule:evenodd;fill:#E0DBF7;" d="M80.5,31.45v18.3c0,0.767-0.233,1.383-0.7,1.85
					c-0.433,0.433-1.017,0.65-1.75,0.65c-0.7,0-1.267-0.217-1.7-0.65c-0.467-0.467-0.7-1.083-0.7-1.85V33.6h-1.9
					c-0.733,0-1.3-0.233-1.7-0.7c-0.333-0.433-0.5-0.95-0.5-1.55s0.2-1.1,0.6-1.5c0.4-0.467,0.934-0.7,1.6-0.7h4.6
					c0.667,0,1.2,0.217,1.6,0.65C80.317,30.233,80.5,30.783,80.5,31.45z"/>
				<path style="fill-rule:evenodd;clip-rule:evenodd;fill:#E0DBF7;" d="M85.75,48.85L93.8,33.6h-8.25c-0.8,0-1.417-0.233-1.85-0.7
					c-0.367-0.4-0.55-0.917-0.55-1.55c0-1.467,0.8-2.2,2.4-2.2H97.2c0.733,0,1.316,0.283,1.75,0.85c0.366,0.467,0.55,0.95,0.55,1.45
					c0,0.366-0.233,1.083-0.7,2.15l-8,16.25c-0.5,1-0.883,1.633-1.149,1.9c-0.367,0.333-0.884,0.5-1.551,0.5
					c-0.833,0-1.5-0.267-2-0.8C85.634,51.017,85.4,50.533,85.4,50C85.4,49.667,85.517,49.283,85.75,48.85z"/>
			</g>
			<g>
				
					<linearGradient id="SVGID_46_" gradientUnits="userSpaceOnUse" x1="-51.3276" y1="76.0264" x2="-28.2231" y2="76.0264" gradientTransform="matrix(4.324325e-005 -1 1 -0.001 -2.319270e-005 4.439838e-004)">
					<stop  offset="0.2196" style="stop-color:#2F104E"/>
					<stop  offset="0.5098" style="stop-color:#472480"/>
					<stop  offset="0.9373" style="stop-color:#6E43D1"/>
				</linearGradient>
				<path style="fill-rule:evenodd;clip-rule:evenodd;fill:url(#SVGID_46_);" d="M80.5,30.45v18.3c0,0.767-0.233,1.383-0.7,1.85
					c-0.433,0.433-1.017,0.65-1.75,0.65c-0.7,0-1.267-0.217-1.7-0.65c-0.467-0.467-0.7-1.083-0.7-1.85V32.6h-1.9
					c-0.733,0-1.3-0.233-1.7-0.7c-0.333-0.433-0.5-0.95-0.5-1.55s0.2-1.1,0.6-1.5c0.4-0.467,0.934-0.7,1.6-0.7h4.6
					c0.667,0,1.2,0.217,1.6,0.65C80.317,29.233,80.5,29.783,80.5,30.45z"/>
				
					<linearGradient id="SVGID_47_" gradientUnits="userSpaceOnUse" x1="-51.3379" y1="91.3262" x2="-28.2349" y2="91.3262" gradientTransform="matrix(4.324325e-005 -1 1 -0.001 -2.319270e-005 4.439838e-004)">
					<stop  offset="0.2196" style="stop-color:#2F104E"/>
					<stop  offset="0.5098" style="stop-color:#472480"/>
					<stop  offset="0.9373" style="stop-color:#6E43D1"/>
				</linearGradient>
				<path style="fill-rule:evenodd;clip-rule:evenodd;fill:url(#SVGID_47_);" d="M85.75,47.85L93.8,32.6h-8.25
					c-0.8,0-1.417-0.233-1.85-0.7c-0.367-0.4-0.55-0.917-0.55-1.55c0-1.467,0.8-2.2,2.4-2.2H97.2c0.733,0,1.316,0.283,1.75,0.85
					c0.366,0.467,0.55,0.95,0.55,1.45c0,0.366-0.233,1.083-0.7,2.15l-8,16.25c-0.5,1-0.883,1.633-1.149,1.9
					c-0.367,0.333-0.884,0.5-1.551,0.5c-0.833,0-1.5-0.267-2-0.8C85.634,50.017,85.4,49.533,85.4,49
					C85.4,48.667,85.517,48.283,85.75,47.85z"/>
			</g>
		</g>
		
			<use xlink:href="#FlashAICB_x2F_Layer_1_x2F__x3C_Path_x3E_"  width="128.65" height="61.9" y="-61.9" transform="matrix(1 0 0 -1 21.5498 85.9502)" style="overflow:visible;opacity:0.3398;enable-background:new    ;"/>
		<g>
			<g>
				<g>
					<g>
						<g>
							<g>
								<linearGradient id="SVGID_48_" gradientUnits="userSpaceOnUse" x1="115.2285" y1="40.7998" x2="115.2285" y2="61.4248">
									<stop  offset="0.0549" style="stop-color:#8E5B86"/>
									<stop  offset="0.9882" style="stop-color:#CFACCA"/>
								</linearGradient>
								<path style="fill-rule:evenodd;clip-rule:evenodd;fill:url(#SVGID_48_);" d="M106.85,48l1.301-0.95v-1.6
									c-0.034-0.867,0.183-1.684,0.649-2.45c0.467-0.733,1.084-1.3,1.851-1.7c0.633-0.333,1.333-0.5,2.1-0.5
									c1.066,0,2,0.3,2.8,0.9l1.25,0.95l1.55-0.5c0.5-0.167,0.983-0.25,1.45-0.25c1.233,0,2.334,0.45,3.3,1.35
									c0.601,0.633,1,1.383,1.2,2.25c0.2,0.833,0.167,1.667-0.1,2.5l-0.5,1.5l0.95,1.3c0.533,0.7,0.833,1.483,0.899,2.35
									c0.066,0.9-0.1,1.733-0.5,2.5c-0.399,0.767-0.967,1.383-1.7,1.85c-0.767,0.467-1.583,0.7-2.449,0.7l-1.65-0.05l-0.9,1.3
									c-0.866,1.3-2.133,1.95-3.8,1.95l-0.7-0.05c-0.966-0.133-1.816-0.567-2.55-1.3c-0.533-0.5-0.916-1.133-1.149-1.9l-0.45-1.5
									l-1.55-0.5c-0.7-0.2-1.317-0.567-1.851-1.1c-0.767-0.767-1.217-1.633-1.35-2.6c-0.134-0.867-0.033-1.7,0.3-2.5
									C105.583,49.15,106.116,48.5,106.85,48z"/>
								<g>
									
										<linearGradient id="SVGID_49_" gradientUnits="userSpaceOnUse" x1="-61.6143" y1="115.2559" x2="-40.832" y2="115.2559" gradientTransform="matrix(4.813478e-005 -1 1 -0.001 8.170317e-005 4.439838e-004)">
										<stop  offset="0.149" style="stop-color:#6B49A5"/>
										<stop  offset="0.9373" style="stop-color:#A897D3"/>
									</linearGradient>
									<path style="fill-rule:evenodd;clip-rule:evenodd;fill:url(#SVGID_49_);" d="M108.05,45.45c0-1.934,0.867-3.35,2.601-4.25
										c0.733-0.4,1.566-0.55,2.5-0.45c0.933,0.066,1.75,0.367,2.449,0.9l1.25,0.9l1.45-0.5c0.834-0.267,1.7-0.3,2.601-0.1
										c0.866,0.2,1.616,0.616,2.25,1.25c0.633,0.633,1.05,1.383,1.25,2.25c0.199,0.866,0.149,1.716-0.15,2.55l-0.5,1.5l0.95,1.25
										c0.566,0.733,0.883,1.533,0.95,2.4c0.066,0.9-0.117,1.75-0.551,2.55c-0.399,0.8-0.966,1.433-1.699,1.9
										c-0.767,0.433-1.601,0.65-2.5,0.65H119.3L118.4,59.5c-0.9,1.333-2.184,2-3.851,2l-0.7-0.05c-1.033-0.2-1.899-0.65-2.6-1.35
										c-0.533-0.467-0.934-1.117-1.2-1.95l-0.45-1.45l-1.449-0.45c-0.733-0.233-1.384-0.617-1.95-1.15
										c-0.7-0.767-1.134-1.633-1.3-2.6c-0.134-0.9-0.034-1.767,0.3-2.6c0.333-0.8,0.866-1.467,1.6-2l1.3-0.9L108.05,45.45z"/>
									<path style="fill-rule:evenodd;clip-rule:evenodd;fill:none;stroke:#C3B0EC;stroke-width:0.25;" d="M108.05,45.45
										c0-1.934,0.867-3.35,2.601-4.25c0.733-0.4,1.566-0.55,2.5-0.45c0.933,0.066,1.75,0.367,2.449,0.9l1.25,0.9l1.45-0.5
										c0.834-0.267,1.7-0.3,2.601-0.1c0.866,0.2,1.616,0.616,2.25,1.25c0.633,0.633,1.05,1.383,1.25,2.25
										c0.199,0.866,0.149,1.716-0.15,2.55l-0.5,1.5l0.95,1.25c0.566,0.733,0.883,1.533,0.95,2.4c0.066,0.9-0.117,1.75-0.551,2.55
										c-0.399,0.8-0.966,1.433-1.699,1.9c-0.767,0.433-1.601,0.65-2.5,0.65H119.3L118.4,59.5c-0.9,1.333-2.184,2-3.851,2
										l-0.7-0.05c-1.033-0.2-1.899-0.65-2.6-1.35c-0.533-0.467-0.934-1.117-1.2-1.95l-0.45-1.45l-1.449-0.45
										c-0.733-0.233-1.384-0.617-1.95-1.15c-0.7-0.767-1.134-1.633-1.3-2.6c-0.134-0.9-0.034-1.767,0.3-2.6
										c0.333-0.8,0.866-1.467,1.6-2l1.3-0.9L108.05,45.45z"/>
									<path style="fill-rule:evenodd;clip-rule:evenodd;fill:#C3B0EC;" d="M105.3,49.95c-0.333,0.833-0.434,1.667-0.3,2.5
										c0.134,0.966,0.566,1.816,1.3,2.55c0.5,0.566,1.117,0.95,1.851,1.15l1.55,0.45l0.45,1.55
										c0.267,0.733,0.666,1.367,1.199,1.9c0.601,0.667,1.434,1.1,2.5,1.3c0.867,0.133,1.7,0.017,2.5-0.35
										c0.834-0.333,1.5-0.85,2-1.55l0.9-1.3h1.65c0.866,0,1.683-0.217,2.449-0.65c0.733-0.467,1.284-1.083,1.65-1.85
										c0.434-0.767,0.6-1.6,0.5-2.5c-0.066-0.867-0.366-1.65-0.9-2.35l-0.949-1.3l0.5-1.5c0.3-0.833,0.35-1.667,0.149-2.5
										c-0.2-0.867-0.616-1.617-1.25-2.25c-0.566-0.567-1.3-0.967-2.2-1.2c-0.866-0.2-1.699-0.167-2.5,0.1l-1.55,0.55l-1.25-1
										c-0.866-0.6-1.8-0.9-2.8-0.9c-0.7,0-1.384,0.167-2.05,0.5c-0.8,0.4-1.417,0.967-1.851,1.7
										c-0.466,0.767-0.699,1.583-0.699,2.45l0.05,1.6L106.9,48C106.167,48.5,105.634,49.15,105.3,49.95z M108.65,42.9
										c0.466-0.767,1.116-1.367,1.949-1.8c0.767-0.367,1.634-0.517,2.601-0.45s1.783,0.367,2.45,0.9l1.199,0.9l1.4-0.5
										c0.866-0.267,1.75-0.3,2.65-0.1c0.899,0.2,1.666,0.617,2.3,1.25c0.666,0.667,1.1,1.45,1.3,2.35
										c0.2,0.9,0.15,1.767-0.15,2.6L123.9,49.5l0.899,1.2c0.566,0.733,0.884,1.55,0.95,2.45s-0.116,1.767-0.55,2.6
										c-0.4,0.8-0.983,1.433-1.75,1.9s-1.617,0.7-2.55,0.7h-1.551l-0.85,1.2c-0.934,1.367-2.25,2.05-3.95,2.05l-0.75-0.05
										c-1.033-0.2-1.899-0.65-2.6-1.35c-0.566-0.5-0.983-1.167-1.25-2l-0.4-1.4l-1.45-0.45c-0.733-0.233-1.383-0.633-1.949-1.2
										c-0.733-0.7-1.184-1.583-1.351-2.65c-0.133-0.9-0.033-1.767,0.3-2.6c0.367-0.833,0.917-1.517,1.65-2.05l1.25-0.9l-0.05-1.5
										C107.95,44.55,108.184,43.7,108.65,42.9z"/>
								</g>
							</g>
							<path style="fill-rule:evenodd;clip-rule:evenodd;fill:#31074F;" d="M120.8,49.95l1.75,2.4c0.533,0.633,0.601,1.35,0.2,2.15
								c-0.4,0.733-1.017,1.1-1.85,1.1l-2.95-0.05l-1.7,2.4c-0.5,0.733-1.167,1.017-2,0.85c-0.434-0.066-0.8-0.25-1.1-0.55
								c-0.301-0.3-0.467-0.583-0.5-0.85l-0.9-2.8l-2.8-0.9c-0.334-0.1-0.617-0.267-0.851-0.5c-0.3-0.3-0.5-0.684-0.6-1.15
								c-0.1-0.833,0.184-1.483,0.85-1.95l2.4-1.7v-2.95c-0.066-0.833,0.3-1.45,1.1-1.85c0.767-0.4,1.483-0.35,2.15,0.15l2.35,1.8
								l2.801-0.95c0.8-0.267,1.5-0.1,2.1,0.5c0.634,0.566,0.8,1.25,0.5,2.05L120.8,49.95z"/>
							<linearGradient id="SVGID_50_" gradientUnits="userSpaceOnUse" x1="120.7852" y1="55.2349" x2="111.1102" y2="45.5599">
								<stop  offset="0" style="stop-color:#6F87FE"/>
								<stop  offset="0.149" style="stop-color:#7389FE"/>
								<stop  offset="0.3216" style="stop-color:#7F8CFE"/>
								<stop  offset="0.5059" style="stop-color:#9493FE"/>
								<stop  offset="0.698" style="stop-color:#B39BFE"/>
								<stop  offset="0.898" style="stop-color:#DAA5FE"/>
								<stop  offset="1" style="stop-color:#F1ABFE"/>
							</linearGradient>
							<path style="fill-rule:evenodd;clip-rule:evenodd;fill:url(#SVGID_50_);" d="M112.3,44.45c0.4-0.233,0.767-0.2,1.101,0.1
								l2.8,2.05l3.25-1.1c0.434-0.167,0.816-0.083,1.149,0.25c0.267,0.333,0.351,0.7,0.25,1.1l-1.1,3.3l2.05,2.75
								c0.267,0.4,0.3,0.783,0.101,1.15c-0.233,0.4-0.567,0.6-1,0.6l-3.45-0.05l-2,2.8c-0.3,0.4-0.65,0.55-1.05,0.45
								c-0.2,0-0.4-0.1-0.601-0.3c-0.133-0.133-0.217-0.283-0.25-0.45l-1.05-3.3l-3.3-1l-0.45-0.3c-0.134-0.133-0.233-0.333-0.3-0.6
								c-0.066-0.433,0.083-0.783,0.45-1.05l2.85-2l-0.05-3.45C111.7,44.933,111.9,44.617,112.3,44.45z"/>
							<path style="fill-rule:evenodd;clip-rule:evenodd;fill:#E0DBF7;" d="M112.35,49.4l-2.8,2c-0.366,0.2-0.517,0.55-0.45,1.05
								c0,0.133,0.051,0.25,0.15,0.35h-0.05l-0.45-0.3c-0.134-0.133-0.233-0.333-0.3-0.6c-0.066-0.433,0.083-0.783,0.45-1.05l2.85-2
								l-0.05-3.45c0-0.467,0.2-0.783,0.6-0.95c0.4-0.233,0.767-0.2,1.101,0.1l2.8,2.05l3.25-1.1
								c0.434-0.167,0.816-0.083,1.149,0.25l0.101,0.2L120.1,46l-3.25,1.1l-2.8-2.05c-0.333-0.267-0.717-0.3-1.149-0.1
								c-0.4,0.233-0.601,0.566-0.601,1L112.35,49.4z"/>
						</g>
					</g>
				</g>
			</g>
			<g>
				<g>
					<g>
						<g>
							<g>
								
									<linearGradient id="SVGID_51_" gradientUnits="userSpaceOnUse" x1="-61.4551" y1="55.1094" x2="-40.8301" y2="55.1094" gradientTransform="matrix(4.848485e-005 -1 1 -0.001 5.396148e-006 -4.842016e-005)">
									<stop  offset="0.0549" style="stop-color:#8E5B86"/>
									<stop  offset="0.9882" style="stop-color:#CFACCA"/>
								</linearGradient>
								<path style="fill-rule:evenodd;clip-rule:evenodd;fill:url(#SVGID_51_);" d="M46.65,49.5l-0.5-1.5
									c-0.267-0.833-0.3-1.667-0.1-2.5c0.2-0.867,0.6-1.617,1.2-2.25c0.9-0.9,2-1.35,3.3-1.35c0.467,0,0.95,0.083,1.45,0.25
									l1.55,0.5l1.25-0.95c0.8-0.6,1.733-0.9,2.8-0.9c0.767,0,1.467,0.167,2.1,0.5c0.767,0.4,1.383,0.967,1.85,1.7
									c0.434,0.767,0.65,1.583,0.65,2.45l-0.05,1.6l1.3,0.95c0.733,0.5,1.267,1.15,1.6,1.95c0.367,0.8,0.467,1.633,0.3,2.5
									c-0.133,0.966-0.567,1.833-1.3,2.6c-0.533,0.533-1.15,0.9-1.85,1.1l-1.55,0.5l-0.45,1.5c-0.267,0.767-0.65,1.4-1.15,1.9
									c-0.733,0.733-1.583,1.167-2.55,1.3l-0.7,0.05c-1.633,0-2.9-0.65-3.8-1.95l-0.9-1.3l-1.65,0.05c-0.9,0-1.717-0.233-2.45-0.7
									c-0.733-0.434-1.3-1.05-1.7-1.85c-0.4-0.767-0.566-1.6-0.5-2.5c0.067-0.867,0.367-1.65,0.9-2.35L46.65,49.5z"/>
								<g>
									<linearGradient id="SVGID_52_" gradientUnits="userSpaceOnUse" x1="55.1079" y1="40.7197" x2="55.1079" y2="61.5">
										<stop  offset="0.149" style="stop-color:#6B49A5"/>
										<stop  offset="0.9373" style="stop-color:#A897D3"/>
									</linearGradient>
									<path style="fill-rule:evenodd;clip-rule:evenodd;fill:url(#SVGID_52_);" d="M46.05,48c-0.267-0.833-0.3-1.684-0.1-2.55
										c0.2-0.867,0.617-1.617,1.25-2.25c0.633-0.634,1.4-1.05,2.3-1.25c0.867-0.2,1.717-0.167,2.55,0.1l1.45,0.5l1.25-0.9
										c0.7-0.533,1.517-0.833,2.45-0.9c0.933-0.1,1.767,0.05,2.5,0.45c1.733,0.933,2.6,2.35,2.6,4.25L62.25,47l1.25,0.9
										c0.767,0.533,1.317,1.2,1.65,2c0.367,0.833,0.467,1.7,0.3,2.6c-0.167,0.967-0.6,1.833-1.3,2.6
										c-0.566,0.533-1.217,0.917-1.95,1.15l-1.5,0.45l-0.45,1.45c-0.2,0.8-0.583,1.45-1.15,1.95c-0.7,0.7-1.567,1.15-2.6,1.35
										l-0.7,0.05c-1.667,0-2.95-0.667-3.85-2l-0.9-1.25h-1.6c-0.9,0-1.717-0.217-2.45-0.65c-0.767-0.467-1.35-1.1-1.75-1.9
										c-0.433-0.8-0.617-1.65-0.55-2.55c0.1-0.867,0.417-1.667,0.95-2.4l0.95-1.25L46.05,48z"/>
									<path style="fill-rule:evenodd;clip-rule:evenodd;fill:none;stroke:#C3B0EC;stroke-width:0.25;" d="M46.05,48
										c-0.267-0.833-0.3-1.684-0.1-2.55c0.2-0.867,0.617-1.617,1.25-2.25c0.633-0.634,1.4-1.05,2.3-1.25
										c0.867-0.2,1.717-0.167,2.55,0.1l1.45,0.5l1.25-0.9c0.7-0.533,1.517-0.833,2.45-0.9c0.933-0.1,1.767,0.05,2.5,0.45
										c1.733,0.933,2.6,2.35,2.6,4.25L62.25,47l1.25,0.9c0.767,0.533,1.317,1.2,1.65,2c0.367,0.833,0.467,1.7,0.3,2.6
										c-0.167,0.967-0.6,1.833-1.3,2.6c-0.566,0.533-1.217,0.917-1.95,1.15l-1.5,0.45l-0.45,1.45c-0.2,0.8-0.583,1.45-1.15,1.95
										c-0.7,0.7-1.567,1.15-2.6,1.35l-0.7,0.05c-1.667,0-2.95-0.667-3.85-2l-0.9-1.25h-1.6c-0.9,0-1.717-0.217-2.45-0.65
										c-0.767-0.467-1.35-1.1-1.75-1.9c-0.433-0.8-0.617-1.65-0.55-2.55c0.1-0.867,0.417-1.667,0.95-2.4l0.95-1.25L46.05,48z"/>
									<path style="fill-rule:evenodd;clip-rule:evenodd;fill:#C3B0EC;" d="M46.05,45.5c-0.2,0.833-0.167,1.667,0.1,2.5l0.55,1.5
										l-0.95,1.3c-0.533,0.7-0.85,1.483-0.95,2.35c-0.066,0.9,0.1,1.733,0.5,2.5c0.4,0.767,0.967,1.383,1.7,1.85
										c0.733,0.433,1.533,0.65,2.4,0.65h1.7l0.9,1.3c0.5,0.7,1.167,1.216,2,1.55c0.8,0.367,1.633,0.483,2.5,0.35
										c1.067-0.233,1.9-0.667,2.5-1.3c0.567-0.566,0.95-1.2,1.15-1.9l0.5-1.55l1.55-0.45c0.667-0.2,1.283-0.583,1.85-1.15
										c0.733-0.733,1.167-1.583,1.3-2.55c0.167-0.833,0.066-1.667-0.3-2.5c-0.333-0.8-0.867-1.45-1.6-1.95l-1.3-0.95v-1.6
										c0.033-0.867-0.183-1.684-0.65-2.45c-0.433-0.733-1.05-1.3-1.85-1.7c-0.667-0.333-1.35-0.5-2.05-0.5
										c-1,0-1.934,0.3-2.8,0.9l-1.25,1L52,42.15c-0.8-0.267-1.633-0.3-2.5-0.1c-0.9,0.233-1.633,0.633-2.2,1.2
										C46.667,43.883,46.25,44.633,46.05,45.5z M47.15,43.1c0.6-0.633,1.367-1.05,2.3-1.25c0.9-0.2,1.783-0.167,2.65,0.1l1.4,0.5
										l1.2-0.9c0.667-0.533,1.483-0.833,2.45-0.9s1.833,0.083,2.6,0.45c0.833,0.433,1.483,1.033,1.95,1.8
										c0.466,0.8,0.7,1.65,0.7,2.55l-0.05,1.5l1.25,0.9c0.767,0.533,1.316,1.216,1.65,2.05c0.367,0.833,0.467,1.7,0.3,2.6
										c-0.167,1.066-0.617,1.95-1.35,2.65c-0.534,0.533-1.184,0.933-1.95,1.2L60.8,56.8l-0.45,1.4c-0.2,0.8-0.6,1.466-1.2,2
										c-0.7,0.7-1.566,1.15-2.6,1.35L55.8,61.6c-1.7,0-3.017-0.684-3.95-2.05L51,58.35h-1.55c-0.934,0-1.784-0.233-2.55-0.7
										s-1.35-1.1-1.75-1.9c-0.433-0.833-0.617-1.7-0.55-2.6c0.1-0.9,0.417-1.717,0.95-2.45l0.9-1.2l-0.5-1.45
										c-0.267-0.867-0.3-1.733-0.1-2.6C46.083,44.517,46.517,43.733,47.15,43.1z"/>
								</g>
							</g>
							<path style="fill-rule:evenodd;clip-rule:evenodd;fill:#31074F;" d="M49.55,49.95l-0.95-2.8c-0.3-0.8-0.133-1.483,0.5-2.05
								c0.566-0.6,1.267-0.767,2.1-0.5l2.8,0.95l2.35-1.8c0.667-0.5,1.383-0.55,2.15-0.15c0.733,0.367,1.1,0.983,1.1,1.85
								l-0.05,2.95L62,50.1c0.7,0.533,0.967,1.183,0.8,1.95c-0.033,0.467-0.216,0.85-0.55,1.15c-0.233,0.233-0.517,0.4-0.85,0.5
								l-2.8,0.9l-0.9,2.8c-0.1,0.367-0.267,0.65-0.5,0.85c-0.3,0.3-0.667,0.483-1.1,0.55c-0.833,0.167-1.5-0.117-2-0.85l-1.7-2.4
								l-2.95,0.05c-0.833,0-1.45-0.367-1.85-1.1c-0.4-0.8-0.333-1.517,0.2-2.15L49.55,49.95z"/>
							
								<linearGradient id="SVGID_53_" gradientUnits="userSpaceOnUse" x1="-4.0093" y1="74.1064" x2="9.6732" y2="74.1064" gradientTransform="matrix(0.7071 -0.7071 0.7071 0.7071 2.749562e-004 -7.039309e-005)">
								<stop  offset="0" style="stop-color:#6F87FE"/>
								<stop  offset="0.149" style="stop-color:#7389FE"/>
								<stop  offset="0.3216" style="stop-color:#7F8CFE"/>
								<stop  offset="0.5059" style="stop-color:#9493FE"/>
								<stop  offset="0.698" style="stop-color:#B39BFE"/>
								<stop  offset="0.898" style="stop-color:#DAA5FE"/>
								<stop  offset="1" style="stop-color:#F1ABFE"/>
							</linearGradient>
							<path style="fill-rule:evenodd;clip-rule:evenodd;fill:url(#SVGID_53_);" d="M58.05,44.45c0.4,0.167,0.6,0.483,0.6,0.95
								l-0.05,3.45l2.85,2c0.367,0.3,0.517,0.65,0.45,1.05c-0.033,0.267-0.133,0.467-0.3,0.6l-0.45,0.3l-3.3,1l-1.05,3.3
								c-0.033,0.167-0.117,0.316-0.25,0.45c-0.2,0.2-0.4,0.3-0.6,0.3c-0.467,0.1-0.817-0.05-1.05-0.45l-2-2.8l-3.45,0.05
								c-0.434,0-0.767-0.2-1-0.6c-0.2-0.367-0.167-0.75,0.1-1.15l2.05-2.75l-1.1-3.3c-0.167-0.4-0.083-0.767,0.25-1.1
								c0.333-0.333,0.717-0.417,1.15-0.25l3.25,1.1l2.75-2.05C57.3,44.283,57.683,44.25,58.05,44.45z"/>
							<path style="fill-rule:evenodd;clip-rule:evenodd;fill:#E0DBF7;" d="M49.75,45.75c0.333-0.333,0.717-0.417,1.15-0.25
								l3.25,1.1l2.75-2.05c0.4-0.267,0.783-0.3,1.15-0.1c0.4,0.167,0.6,0.483,0.6,0.95l-0.05,3.45l2.85,2
								c0.367,0.3,0.517,0.65,0.45,1.05c-0.033,0.267-0.133,0.467-0.3,0.6l-0.45,0.3H61.1c0.1-0.1,0.15-0.217,0.15-0.35
								c0.067-0.5-0.083-0.85-0.45-1.05l-2.8-2l0.05-3.45c0-0.434-0.2-0.767-0.6-1c-0.434-0.2-0.817-0.167-1.15,0.1l-2.8,2.05
								L50.25,46l-0.6-0.05L49.75,45.75z"/>
						</g>
					</g>
				</g>
			</g>
		</g>
		
			<use xlink:href="#FlashAICB_x2F_Layer_1_x2F__x3C_Group_x3E_"  width="119.2" height="66.434" y="-66.434" transform="matrix(1 0 0 -1 25.7998 22.25)" style="overflow:visible;opacity:0.5508;enable-background:new    ;"/>
	</g>
</g>
</svg>
