<?xml version="1.0" encoding="iso-8859-1"?>
<!-- Generator: Adobe Illustrator 15.1.0, SVG Export Plug-In . SVG Version: 6.00 Build 0)  -->
<!DOCTYPE svg PUBLIC "-//W3C//DTD SVG 1.1//EN" "http://www.w3.org/Graphics/SVG/1.1/DTD/svg11.dtd">
<svg version="1.1" id="Layer_1" xmlns="http://www.w3.org/2000/svg" xmlns:xlink="http://www.w3.org/1999/xlink" x="0px" y="0px"
	 width="171px" height="171.25px" viewBox="0 0 171 171.25" style="enable-background:new 0 0 171 171.25;" xml:space="preserve">
<symbol  id="FlashAICB_x5F_0_x2F_Isolation_Mode_x2F__x3C_Group_x3E_" viewBox="0 -61.344 110.05 61.344">
	<g id="Layer_1_5_">
		<g>
			
				<use xlink:href="#FlashAICB_x5F_0_x2F_Isolation_Mode_x2F__x3C_Path_x3E__x5F_1"  width="110.05" height="55.8" y="-55.8" style="overflow:visible;opacity:0.1094;enable-background:new    ;"/>
			
				<use xlink:href="#FlashAICB_x5F_0_x2F_Isolation_Mode_x2F__x3C_Path_x3E__x5F_0"  width="110.05" height="61.344" y="-61.344" style="overflow:visible;opacity:0.0898;enable-background:new    ;"/>
		</g>
	</g>
</symbol>
<symbol  id="FlashAICB_x5F_0_x2F_Isolation_Mode_x2F__x3C_Path_x3E_" viewBox="0 -57.15 118.7 57.15">
	<g id="Layer_1_2_">
		
			<radialGradient id="SVGID_1_" cx="59.3501" cy="-28.5752" r="46.5777" gradientTransform="matrix(1 0 0 -1 0 -57.1504)" gradientUnits="userSpaceOnUse">
			<stop  offset="0" style="stop-color:#E19CDD;stop-opacity:0"/>
			<stop  offset="0.149" style="stop-color:#D695D3;stop-opacity:0.1451"/>
			<stop  offset="0.4" style="stop-color:#BA81B7;stop-opacity:0.5333"/>
			<stop  offset="0.651" style="stop-color:#996996"/>
		</radialGradient>
		<path style="fill-rule:evenodd;clip-rule:evenodd;fill:url(#SVGID_1_);" d="M95.5-30.35c10.733,7.7,18.3,17.717,22.7,30.05
			l0.5,0.3c-0.567-15.9-6.6-29.4-18.1-40.5S75.35-57.15,59.35-57.15c-15.733,0-29.317,5.367-40.75,16.1
			C7.233-30.35,1.033-17.233,0-1.7c4.633-12,12.217-21.7,22.75-29.1c10.833-7.567,22.867-11.35,36.1-11.35
			C72.35-42.15,84.567-38.217,95.5-30.35z"/>
	</g>
</symbol>
<symbol  id="FlashAICB_x5F_0_x2F_Isolation_Mode_x2F__x3C_Path_x3E__x5F_0" viewBox="0 -61.344 110.05 61.344">
	<g id="Layer_1_4_">
		<path style="fill-rule:evenodd;clip-rule:evenodd;fill:#FFFFFF;" d="M106.5-34.4c2.367-5.633,3.55-10.934,3.55-15.9
			c0-4.967-1.45-8.083-4.35-9.35c-2.333-1.067-6.25-1.067-11.75,0c-7.3,1.767-13.133,3.117-17.5,4.05
			c-8.034,1.7-15.184,2.55-21.45,2.55c-6.3,0-13.433-0.917-21.4-2.75c-8.333-2.2-14.167-3.684-17.5-4.45
			c-5.533-1.267-9.45-1.433-11.75-0.5C1.45-59.55,0-56.483,0-51.55c0,5.5,1.167,11.167,3.5,17c2.467,6.167,5.95,11.733,10.45,16.7
			C24.65-5.95,38.333,0,55,0c16.467,0,30.15-6,41.05-18C100.517-22.9,104-28.367,106.5-34.4z"/>
	</g>
</symbol>
<symbol  id="FlashAICB_x5F_0_x2F_Isolation_Mode_x2F__x3C_Path_x3E__x5F_1" viewBox="0 -55.8 110.05 55.8">
	<g id="Layer_1_3_">
		
			<linearGradient id="SVGID_2_" gradientUnits="userSpaceOnUse" x1="16165.3076" y1="-53.8804" x2="16221.0527" y2="-53.8804" gradientTransform="matrix(1.792918e-005 1 -1 -0.001 0.8545 -16221.1064)">
			<stop  offset="0.1294" style="stop-color:#E5B9B2"/>
			<stop  offset="0.9255" style="stop-color:#FFFFFF"/>
		</linearGradient>
		<path style="fill-rule:evenodd;clip-rule:evenodd;fill:url(#SVGID_2_);" d="M96.05-18c4.467-4.9,7.95-10.367,10.45-16.4
			c2.367-5.633,3.55-10.934,3.55-15.9c0-1.567-0.167-3.05-0.5-4.45c-1.867,11.067-7.267,20.9-16.2,29.5
			C82.783-15.117,70-10.05,55-10.05c-15.233,0-28.067-5.067-38.5-15.2C7.533-33.95,2.183-44.133,0.45-55.8
			C0.15-54.6,0-53.183,0-51.55c0,5.5,1.167,11.167,3.5,17c2.467,6.167,5.95,11.733,10.45,16.7C24.65-5.95,38.333,0,55,0
			C71.467,0,85.15-6,96.05-18z"/>
	</g>
</symbol>
<g>
	<path style="fill-rule:evenodd;clip-rule:evenodd;fill:#68757B;" d="M52.15,6.7C62.717,2.233,73.783,0,85.35,0
		c11.567,0,22.634,2.233,33.2,6.7c10.2,4.333,19.233,10.433,27.101,18.3c7.866,7.9,13.967,16.95,18.3,27.15
		c4.467,10.567,6.7,21.633,6.7,33.2s-2.233,22.633-6.7,33.2c-4.333,10.2-10.434,19.233-18.3,27.101
		c-7.867,7.866-16.9,13.967-27.101,18.3c-10.566,4.467-21.633,6.7-33.2,6.7c-11.566,0-22.633-2.233-33.2-6.7
		c-10.2-4.333-19.25-10.434-27.15-18.3c-7.867-7.867-13.967-16.9-18.3-27.101C2.233,107.983,0,96.917,0,85.35s2.233-22.633,6.7-33.2
		C11.033,41.95,17.133,32.9,25,25C32.9,17.133,41.95,11.033,52.15,6.7z"/>
	
		<linearGradient id="SVGID_3_" gradientUnits="userSpaceOnUse" x1="-171.335" y1="85.3252" x2="-0.6851" y2="85.3252" gradientTransform="matrix(5.859089e-006 -1 1 -0.001 1.466054e-004 -4.747650e-005)">
		<stop  offset="0.0196" style="stop-color:#353746"/>
		<stop  offset="0.251" style="stop-color:#6C6E76;stop-opacity:0.6863"/>
		<stop  offset="0.4941" style="stop-color:#A1A3A3;stop-opacity:0.3922"/>
		<stop  offset="0.7098" style="stop-color:#C7C9C4;stop-opacity:0.1765"/>
		<stop  offset="0.8824" style="stop-color:#DEE1D9;stop-opacity:0.0471"/>
		<stop  offset="0.9882" style="stop-color:#E7E9E0;stop-opacity:0"/>
	</linearGradient>
	<path style="fill-rule:evenodd;clip-rule:evenodd;fill:url(#SVGID_3_);" d="M52.15,7.3c10.567-4.467,21.633-6.7,33.2-6.7
		c11.567,0,22.634,2.233,33.2,6.7c10.2,4.333,19.233,10.434,27.101,18.3c7.866,7.867,13.967,16.9,18.3,27.1
		c4.467,10.566,6.7,21.633,6.7,33.2s-2.233,22.633-6.7,33.2c-4.333,10.2-10.434,19.25-18.3,27.15
		c-7.867,7.867-16.9,13.967-27.101,18.3c-10.566,4.467-21.633,6.7-33.2,6.7c-11.566,0-22.633-2.233-33.2-6.7
		c-10.2-4.333-19.25-10.433-27.15-18.3c-7.867-7.9-13.967-16.95-18.3-27.15C2.233,108.533,0,97.467,0,85.9s2.233-22.633,6.7-33.2
		C11.033,42.5,17.133,33.467,25,25.6C32.9,17.733,41.95,11.633,52.15,7.3z"/>
	<g>
		<g>
			
				<linearGradient id="SVGID_4_" gradientUnits="userSpaceOnUse" x1="-157.4854" y1="85.3262" x2="-13.335" y2="85.3262" gradientTransform="matrix(6.939625e-006 -1 1 -0.001 1.071970e-004 4.449275e-004)">
				<stop  offset="0" style="stop-color:#BCD1DF"/>
				<stop  offset="0.0235" style="stop-color:#BBCEDC;stop-opacity:0.9647"/>
				<stop  offset="0.2784" style="stop-color:#ABB0BF;stop-opacity:0.6353"/>
				<stop  offset="0.502" style="stop-color:#A19DAE;stop-opacity:0.4314"/>
				<stop  offset="0.6549" style="stop-color:#9E96A8;stop-opacity:0.3569"/>
				<stop  offset="1" style="stop-color:#403C5C"/>
			</linearGradient>
			<path style="fill-rule:evenodd;clip-rule:evenodd;fill:url(#SVGID_4_);" d="M85.35,13.25c9.767,0,19.117,1.883,28.051,5.65
				c8.6,3.667,16.233,8.833,22.899,15.5c6.634,6.633,11.783,14.267,15.45,22.9c3.767,8.934,5.65,18.283,5.65,28.05
				s-1.884,19.117-5.65,28.05c-3.667,8.633-8.816,16.267-15.45,22.899c-6.666,6.634-14.3,11.783-22.899,15.45
				c-8.934,3.767-18.284,5.65-28.051,5.65c-9.766,0-19.116-1.884-28.05-5.65c-8.633-3.667-16.267-8.816-22.9-15.45
				c-6.667-6.633-11.833-14.267-15.5-22.899c-3.767-8.934-5.65-18.283-5.65-28.05s1.883-19.117,5.65-28.05
				c3.667-8.633,8.833-16.267,15.5-22.9c6.633-6.667,14.267-11.833,22.9-15.5C66.233,15.133,75.583,13.25,85.35,13.25z"/>
		</g>
	</g>
	<g>
		
			<linearGradient id="SVGID_5_" gradientUnits="userSpaceOnUse" x1="-151.1846" y1="85.3252" x2="-19.6348" y2="85.3252" gradientTransform="matrix(7.603118e-006 -1 1 -0.001 1.150390e-004 4.449275e-004)">
			<stop  offset="0" style="stop-color:#B1812F"/>
			<stop  offset="0.2863" style="stop-color:#C89A33"/>
			<stop  offset="0.6745" style="stop-color:#EDC13A"/>
			<stop  offset="0.9647" style="stop-color:#D7E989"/>
		</linearGradient>
		<path style="fill-rule:evenodd;clip-rule:evenodd;fill:url(#SVGID_5_);" d="M38.85,38.85c12.833-12.867,28.333-19.3,46.5-19.3
			c18.134,0,33.617,6.434,46.45,19.3c12.867,12.867,19.3,28.367,19.3,46.5s-6.433,33.617-19.3,46.45
			c-12.833,12.867-28.316,19.3-46.45,19.3c-18.133,0-33.633-6.433-46.5-19.3c-12.867-12.833-19.3-28.316-19.3-46.45
			C19.55,67.184,25.983,51.684,38.85,38.85z"/>
		<path style="fill-rule:evenodd;clip-rule:evenodd;fill:#45260C;" d="M39.4,39.4c-12.667,12.7-19,28.017-19,45.95
			c0,17.933,6.333,33.233,19,45.9c12.7,12.667,28.017,19,45.95,19c17.934,0,33.233-6.333,45.9-19s19-27.967,19-45.9
			c0-17.934-6.333-33.25-19-45.95c-12.667-12.667-27.967-19-45.9-19C67.417,20.4,52.1,26.733,39.4,39.4z M23.8,59.85
			c3.333-8.133,8.15-15.333,14.45-21.6c6.267-6.3,13.467-11.117,21.6-14.45c8.1-3.366,16.6-5.05,25.5-5.05
			c8.9,0,17.4,1.684,25.5,5.05c8.101,3.333,15.284,8.15,21.551,14.45c6.3,6.267,11.133,13.467,14.5,21.6c3.333,8.1,5,16.6,5,25.5
			s-1.667,17.4-5,25.5c-3.367,8.101-8.2,15.283-14.5,21.551c-6.267,6.3-13.45,11.133-21.551,14.5c-8.1,3.333-16.6,5-25.5,5
			c-8.899,0-17.399-1.667-25.5-5c-8.133-3.367-15.333-8.2-21.6-14.5c-6.3-6.268-11.117-13.45-14.45-21.551
			c-3.366-8.1-5.05-16.6-5.05-25.5S20.434,67.95,23.8,59.85z"/>
	</g>
	
		<radialGradient id="SVGID_6_" cx="85.3252" cy="83.2002" r="59.0127" gradientTransform="matrix(1 0 0 -1 0 166.4004)" gradientUnits="userSpaceOnUse">
		<stop  offset="0.0353" style="stop-color:#DEEA89"/>
		<stop  offset="0.302" style="stop-color:#DEE986;stop-opacity:0.9922"/>
		<stop  offset="0.4627" style="stop-color:#E0E57E;stop-opacity:0.9804"/>
		<stop  offset="0.5922" style="stop-color:#E2DE71;stop-opacity:0.9529"/>
		<stop  offset="0.7098" style="stop-color:#E6D45D;stop-opacity:0.9176"/>
		<stop  offset="0.8118" style="stop-color:#EAC845;stop-opacity:0.8706"/>
		<stop  offset="0.8706" style="stop-color:#EDBF35;stop-opacity:0.8392"/>
	</radialGradient>
	<path style="fill-rule:evenodd;clip-rule:evenodd;fill:url(#SVGID_6_);" d="M85.35,24.25c16.301,0,30.217,5.75,41.75,17.25
		C138.634,53.033,144.4,66.934,144.4,83.2s-5.767,30.167-17.301,41.7c-11.533,11.5-25.449,17.25-41.75,17.25
		c-16.333,0-30.266-5.75-41.8-17.25c-11.533-11.533-17.3-25.434-17.3-41.7s5.767-30.167,17.3-41.7
		C55.083,30,69.017,24.25,85.35,24.25z"/>
	<g>
		<g>
			<path style="fill-rule:evenodd;clip-rule:evenodd;fill:#ECF8BD;" d="M64.85,38.3c-0.733,0-1.3-0.233-1.7-0.7
				c-0.333-0.434-0.5-0.95-0.5-1.55c0-0.6,0.2-1.1,0.6-1.5c0.4-0.467,0.934-0.7,1.6-0.7h4.55c0.667,0,1.2,0.216,1.6,0.65
				c0.367,0.434,0.55,0.983,0.55,1.65V54.4c0,0.767-0.233,1.383-0.7,1.85c-0.434,0.434-1,0.65-1.7,0.65c-0.7,0-1.267-0.216-1.7-0.65
				c-0.467-0.434-0.7-1.05-0.7-1.85V38.3H64.85z"/>
			<path style="fill-rule:evenodd;clip-rule:evenodd;fill:#ECF8BD;" d="M79.45,45.3c0,4.967,1.167,7.45,3.5,7.45
				c2.333,0,3.5-2.483,3.5-7.45s-1.167-7.45-3.5-7.45C80.617,37.85,79.45,40.333,79.45,45.3z M89.65,37.4
				c1.199,2.133,1.8,4.767,1.8,7.9c0,3.134-0.601,5.75-1.8,7.85c-1.5,2.633-3.733,3.95-6.7,3.95s-5.2-1.317-6.7-3.95
				c-1.2-2.1-1.8-4.716-1.8-7.85c0-3.133,0.6-5.767,1.8-7.9c1.5-2.633,3.733-3.95,6.7-3.95S88.15,34.767,89.65,37.4z"/>
			<path style="fill-rule:evenodd;clip-rule:evenodd;fill:#ECF8BD;" d="M95.05,35.1c1.467-1.1,3.084-1.65,4.851-1.65
				c2.133,0,3.85,0.667,5.149,2c1.101,1.167,1.65,2.466,1.65,3.9c0,2.167-0.867,3.8-2.601,4.9c1.167,0.533,2.101,1.3,2.801,2.3
				c0.733,1.067,1.1,2.217,1.1,3.45c0,1.934-0.783,3.6-2.35,5c-1.567,1.4-3.483,2.1-5.75,2.1c-2.2,0-4.084-0.684-5.65-2.05
				c-1.366-1.233-2.05-2.566-2.05-4c0-0.6,0.267-1.116,0.8-1.55c0.533-0.4,1.1-0.6,1.7-0.6c0.6,0,1.3,0.633,2.1,1.9
				c0.8,1.233,1.867,1.85,3.2,1.85c0.833,0,1.533-0.283,2.1-0.85c0.601-0.566,0.9-1.267,0.9-2.1c0-1.567-0.9-2.483-2.7-2.75
				c-1.833-0.3-2.75-1.05-2.75-2.25c0-1.1,0.767-1.85,2.3-2.25c1.5-0.4,2.25-1.2,2.25-2.4c0-0.633-0.199-1.133-0.6-1.5
				c-0.434-0.433-1-0.65-1.7-0.65c-1.1,0-2.017,0.534-2.75,1.6c-0.733,1.033-1.434,1.55-2.1,1.55c-0.634,0-1.134-0.25-1.5-0.75
				c-0.367-0.467-0.55-1.017-0.55-1.65C92.9,37.383,93.616,36.2,95.05,35.1z"/>
		</g>
		<g>
			
				<linearGradient id="SVGID_7_" gradientUnits="userSpaceOnUse" x1="-55.9922" y1="67.1016" x2="-32.9375" y2="67.1016" gradientTransform="matrix(4.338395e-005 -1 1 -0.001 1.409492e-004 4.439838e-004)">
				<stop  offset="0.1529" style="stop-color:#4A2805"/>
				<stop  offset="0.2471" style="stop-color:#502905"/>
				<stop  offset="0.3765" style="stop-color:#632B07"/>
				<stop  offset="0.5333" style="stop-color:#80300B"/>
				<stop  offset="0.7059" style="stop-color:#AA3510"/>
				<stop  offset="0.8902" style="stop-color:#DF3C16"/>
				<stop  offset="0.8941" style="stop-color:#E03C16"/>
			</linearGradient>
			<path style="fill-rule:evenodd;clip-rule:evenodd;fill:url(#SVGID_7_);" d="M64.85,37.3c-0.733,0-1.3-0.233-1.7-0.7
				c-0.333-0.4-0.5-0.9-0.5-1.5s0.2-1.117,0.6-1.55c0.4-0.433,0.934-0.65,1.6-0.65h4.55c0.667,0,1.2,0.217,1.6,0.65
				c0.367,0.4,0.55,0.934,0.55,1.6v18.3c0,0.767-0.233,1.383-0.7,1.85c-0.434,0.434-1,0.65-1.7,0.65c-0.7,0-1.267-0.217-1.7-0.65
				c-0.467-0.433-0.7-1.05-0.7-1.85V37.3H64.85z"/>
			
				<linearGradient id="SVGID_8_" gradientUnits="userSpaceOnUse" x1="-56.1826" y1="82.9531" x2="-32.5576" y2="82.9531" gradientTransform="matrix(4.232804e-005 -1 1 -0.001 -9.801816e-005 -4.747650e-005)">
				<stop  offset="0.1529" style="stop-color:#4A2805"/>
				<stop  offset="0.2471" style="stop-color:#502905"/>
				<stop  offset="0.3765" style="stop-color:#632B07"/>
				<stop  offset="0.5333" style="stop-color:#80300B"/>
				<stop  offset="0.7059" style="stop-color:#AA3510"/>
				<stop  offset="0.8902" style="stop-color:#DF3C16"/>
				<stop  offset="0.8941" style="stop-color:#E03C16"/>
			</linearGradient>
			<path style="fill-rule:evenodd;clip-rule:evenodd;fill:url(#SVGID_8_);" d="M79.45,44.3c0,4.967,1.167,7.45,3.5,7.45
				c2.333,0,3.5-2.483,3.5-7.45s-1.167-7.45-3.5-7.45C80.617,36.85,79.45,39.333,79.45,44.3z M89.65,36.45
				c1.199,2.133,1.8,4.75,1.8,7.85c0,3.134-0.601,5.75-1.8,7.85c-1.5,2.633-3.733,3.95-6.7,3.95s-5.2-1.317-6.7-3.95
				c-1.2-2.1-1.8-4.716-1.8-7.85c0-3.1,0.6-5.717,1.8-7.85c1.5-2.634,3.733-3.95,6.7-3.95S88.15,33.816,89.65,36.45z"/>
			
				<linearGradient id="SVGID_9_" gradientUnits="userSpaceOnUse" x1="-56.1997" y1="100.1035" x2="-32.5747" y2="100.1035" gradientTransform="matrix(4.232804e-005 -1 1 -0.001 -9.801816e-005 -4.747650e-005)">
				<stop  offset="0.1529" style="stop-color:#4A2805"/>
				<stop  offset="0.2471" style="stop-color:#502905"/>
				<stop  offset="0.3765" style="stop-color:#632B07"/>
				<stop  offset="0.5333" style="stop-color:#80300B"/>
				<stop  offset="0.7059" style="stop-color:#AA3510"/>
				<stop  offset="0.8902" style="stop-color:#DF3C16"/>
				<stop  offset="0.8941" style="stop-color:#E03C16"/>
			</linearGradient>
			<path style="fill-rule:evenodd;clip-rule:evenodd;fill:url(#SVGID_9_);" d="M95.05,34.15c1.467-1.1,3.084-1.65,4.851-1.65
				c2.133,0,3.85,0.667,5.149,2c1.101,1.133,1.65,2.417,1.65,3.85c0,2.167-0.867,3.816-2.601,4.95c1.167,0.533,2.101,1.3,2.801,2.3
				c0.733,1.066,1.1,2.216,1.1,3.45c0,1.934-0.783,3.583-2.35,4.95c-1.567,1.4-3.483,2.1-5.75,2.1c-2.2,0-4.084-0.684-5.65-2.05
				c-1.366-1.233-2.05-2.55-2.05-3.95c0-0.6,0.267-1.117,0.8-1.55c0.533-0.4,1.1-0.6,1.7-0.6c0.6,0,1.3,0.633,2.1,1.9
				c0.8,1.233,1.867,1.85,3.2,1.85c0.833,0,1.533-0.284,2.1-0.85c0.601-0.6,0.9-1.317,0.9-2.15c0-1.567-0.9-2.483-2.7-2.75
				c-1.833-0.267-2.75-1-2.75-2.2c0-1.133,0.767-1.883,2.3-2.25c1.5-0.4,2.25-1.2,2.25-2.4c0-0.633-0.199-1.15-0.6-1.55
				c-0.434-0.433-1-0.65-1.7-0.65c-1.1,0-2.017,0.534-2.75,1.6c-0.733,1.033-1.434,1.55-2.1,1.55c-0.634,0-1.134-0.233-1.5-0.7
				c-0.367-0.467-0.55-1.017-0.55-1.65C92.9,36.434,93.616,35.25,95.05,34.15z"/>
		</g>
	</g>
	<g>
		<path style="fill-rule:evenodd;clip-rule:evenodd;fill:#FBFCC9;" d="M59.1,71.75c3.267-2.633,6.517-4.333,9.75-5.1
			c0.433-1.267,1.233-2.433,2.4-3.5c1.8-1.633,4.283-2.8,7.45-3.5c4.5-0.966,8.416-0.65,11.75,0.95c1.866-0.2,3.217-0.3,4.05-0.3
			c0.6,0,1.017,0.033,1.25,0.1l0.3,0.1c0.5,0.1,0.917,0.3,1.25,0.6l0.351,0.25c5.233,0.667,9.6,2.783,13.1,6.35
			c2.2,2.233,3.866,4.783,5,7.65c0.833,1.533,1.267,3.25,1.3,5.15v0.15c0.066,0.5,0.066,0.967,0,1.4c0.9,1.2,1.55,2.783,1.95,4.75
			c0.667,3.134,0.967,5.567,0.9,7.3c-0.067,1.5-0.434,2.684-1.101,3.551c-1.233,1.866-3.767,2.982-7.6,3.35
			c-0.867,0.333-1.75,0.6-2.65,0.8l-0.35,0.05c-1.8,0.434-3.884,1.15-6.25,2.15l-0.7,0.3l0.2,0.3l0.7,1.4
			c0.933,1.967,1.566,3.733,1.899,5.3c0.667,2.934,0.601,5.783-0.2,8.55l0.2,0.351l2.101,0.5c0.767-0.233,1.383-0.351,1.85-0.351
			c0.9,0,1.75,0.268,2.55,0.801c1.101,0.732,1.75,1.732,1.95,3c0.566,1.1,0.6,2.283,0.1,3.55c-0.933,2.233-2.083,3.8-3.449,4.7
			l-0.5,0.3c-0.467,0.767-1.167,1.366-2.101,1.8l-0.2,0.2c-0.466,0.433-1,0.717-1.6,0.85l-0.1,0.05
			c-0.101,0.601-0.284,1.101-0.551,1.5c-0.5,0.867-1.233,1.518-2.199,1.95c-0.534,0.601-1.167,1.017-1.9,1.25
			c-1.6,0.533-3.15,0.8-4.65,0.8c-1.233,0-2.366-0.217-3.399-0.649c-0.767-0.333-1.483-0.783-2.15-1.351
			c-0.333,0.334-0.7,0.601-1.1,0.801c-1.134,0.633-2.4,0.949-3.8,0.949c-1.066,0-1.933-0.133-2.6-0.399
			c-0.4-0.101-0.75-0.267-1.05-0.5L80.7,139.6c-2.7-0.5-5.167-1.1-7.4-1.8c-7.9-2.3-11.683-5.683-11.35-10.149l-1.1-0.2H60.8
			c-1.5,0.167-2.966-0.167-4.4-1c-1.2-0.7-2.033-1.717-2.5-3.05c-0.4-1.101-0.5-2.268-0.3-3.5c0.2-1.334,0.9-2.351,2.1-3.051
			c0.2-0.433,0.533-0.899,1-1.399c0.966-0.967,2.083-1.601,3.35-1.9l0.05-1c0.4-7.533,3.433-14.133,9.1-19.8
			c-3.034-0.066-6.517-0.684-10.45-1.85c-3.4-1.167-5.167-1.768-5.3-1.801c-0.833-0.333-1.483-0.883-1.95-1.649
			C51,86.717,50.75,85.9,50.75,85c0-1.367,0.4-2.917,1.2-4.65C53.35,77.316,55.733,74.45,59.1,71.75z"/>
		<g>
			
				<linearGradient id="SVGID_10_" gradientUnits="userSpaceOnUse" x1="-140.2451" y1="85.3306" x2="-58.2563" y2="85.3306" gradientTransform="matrix(1.220256e-005 -1 1 -0.001 -1.949148e-004 4.449275e-004)">
				<stop  offset="0" style="stop-color:#B1812F"/>
				<stop  offset="0.149" style="stop-color:#C89A33"/>
				<stop  offset="0.349" style="stop-color:#EDC13A"/>
				<stop  offset="0.9647" style="stop-color:#FCFB38"/>
			</linearGradient>
			<path style="fill-rule:evenodd;clip-rule:evenodd;fill:url(#SVGID_10_);" d="M59.1,70.8c3.267-2.6,6.517-4.3,9.75-5.1
				c0.433-1.267,1.233-2.434,2.4-3.5c1.8-1.634,4.283-2.784,7.45-3.45c4.5-1,8.416-0.7,11.75,0.9c1.866-0.2,3.217-0.3,4.05-0.3
				c0.5,0,0.917,0.05,1.25,0.15l0.3,0.05c0.5,0.167,0.917,0.367,1.25,0.6l0.351,0.25c5.233,0.667,9.6,2.784,13.1,6.35
				c2.2,2.233,3.866,4.783,5,7.65c0.833,1.534,1.267,3.267,1.3,5.2v0.1c0.066,0.5,0.066,0.966,0,1.4c0.9,1.233,1.55,2.816,1.95,4.75
				c0.667,3.133,0.967,5.583,0.9,7.35c-0.067,1.467-0.434,2.649-1.101,3.55c-1.233,1.8-3.767,2.917-7.6,3.35
				c-1,0.4-1.884,0.65-2.65,0.75l-0.35,0.101c-1.434,0.267-3.517,0.967-6.25,2.1l-0.7,0.3l0.2,0.301l0.7,1.449
				c0.933,1.967,1.566,3.717,1.899,5.25c0.667,2.934,0.601,5.783-0.2,8.551l0.2,0.399l2.101,0.5c0.6-0.233,1.216-0.35,1.85-0.35
				c0.967,0,1.816,0.25,2.55,0.75c1.101,0.733,1.75,1.733,1.95,3c0.566,1.1,0.6,2.283,0.1,3.55c-0.866,2.167-2.017,3.733-3.449,4.7
				l-0.5,0.3c-0.534,0.833-1.233,1.434-2.101,1.8l-0.2,0.25c-0.466,0.367-1,0.65-1.6,0.851h-0.1c-0.101,0.633-0.284,1.133-0.551,1.5
				c-0.466,0.866-1.199,1.517-2.199,1.949c-0.467,0.567-1.101,0.983-1.9,1.25c-1.6,0.533-3.15,0.801-4.65,0.801
				c-1.366,0-2.5-0.217-3.399-0.65c-0.733-0.267-1.45-0.7-2.15-1.3l-1.1,0.8c-1.2,0.633-2.467,0.95-3.8,0.95
				c-1.066,0-1.933-0.134-2.6-0.4c-0.233-0.066-0.583-0.233-1.05-0.5l-0.55-0.399c-1.934-0.301-4.4-0.884-7.4-1.75
				c-3.1-0.967-5.466-1.967-7.1-3c-3.034-1.934-4.45-4.334-4.25-7.2l-1.1-0.15H60.8c-1.5,0.167-2.966-0.167-4.4-1
				c-1.2-0.7-2.033-1.717-2.5-3.05c-0.4-1.133-0.5-2.316-0.3-3.55c0.2-1.3,0.9-2.3,2.1-3c0.267-0.533,0.6-1,1-1.4
				c0.933-1,2.05-1.649,3.35-1.95l0.05-1c0.4-7.5,3.433-14.083,9.1-19.75c-3.034-0.1-6.517-0.732-10.45-1.899
				c-3.4-1.134-5.167-1.733-5.3-1.8c-0.833-0.334-1.483-0.884-1.95-1.65c-0.5-0.733-0.75-1.55-0.75-2.45c0-1.366,0.4-2.917,1.2-4.65
				C53.35,76.367,55.733,73.5,59.1,70.8z"/>
			<path style="fill-rule:evenodd;clip-rule:evenodd;fill:none;stroke:#FBFCC9;stroke-width:0.25;" d="M59.1,70.8
				c-3.367,2.7-5.75,5.567-7.15,8.6c-0.8,1.733-1.2,3.284-1.2,4.65c0,0.9,0.25,1.717,0.75,2.45c0.467,0.767,1.117,1.316,1.95,1.65
				c0.133,0.066,1.9,0.666,5.3,1.8c3.934,1.167,7.417,1.8,10.45,1.899c-5.667,5.667-8.7,12.25-9.1,19.75l-0.05,1
				c-1.3,0.301-2.417,0.95-3.35,1.95c-0.4,0.4-0.733,0.867-1,1.4c-1.2,0.7-1.9,1.7-2.1,3c-0.2,1.233-0.1,2.417,0.3,3.55
				c0.467,1.333,1.3,2.35,2.5,3.05c1.434,0.833,2.9,1.167,4.4,1h0.05l1.1,0.15c-0.2,2.866,1.216,5.267,4.25,7.2
				c1.633,1.033,4,2.033,7.1,3c3,0.866,5.467,1.449,7.4,1.75l0.55,0.399c0.467,0.267,0.817,0.434,1.05,0.5
				c0.667,0.267,1.534,0.4,2.6,0.4c1.333,0,2.6-0.317,3.8-0.95l1.1-0.8c0.7,0.6,1.417,1.033,2.15,1.3
				c0.899,0.434,2.033,0.65,3.399,0.65c1.5,0,3.051-0.268,4.65-0.801c0.8-0.267,1.434-0.683,1.9-1.25
				c1-0.433,1.733-1.083,2.199-1.949c0.267-0.367,0.45-0.867,0.551-1.5h0.1c0.6-0.2,1.134-0.483,1.6-0.851l0.2-0.25
				c0.867-0.366,1.566-0.967,2.101-1.8l0.5-0.3c1.433-0.967,2.583-2.533,3.449-4.7c0.5-1.267,0.467-2.45-0.1-3.55
				c-0.2-1.267-0.85-2.267-1.95-3c-0.733-0.5-1.583-0.75-2.55-0.75c-0.634,0-1.25,0.116-1.85,0.35l-2.101-0.5l-0.2-0.399
				c0.801-2.768,0.867-5.617,0.2-8.551c-0.333-1.533-0.967-3.283-1.899-5.25l-0.7-1.449l-0.2-0.301l0.7-0.3
				c2.733-1.133,4.816-1.833,6.25-2.1l0.35-0.101c0.767-0.1,1.65-0.35,2.65-0.75c3.833-0.433,6.366-1.55,7.6-3.35
				c0.667-0.9,1.033-2.083,1.101-3.55c0.066-1.767-0.233-4.217-0.9-7.35c-0.4-1.934-1.05-3.517-1.95-4.75
				c0.066-0.434,0.066-0.9,0-1.4v-0.1c-0.033-1.934-0.467-3.667-1.3-5.2c-1.134-2.867-2.8-5.417-5-7.65
				c-3.5-3.566-7.866-5.684-13.1-6.35L97.3,60.15c-0.333-0.233-0.75-0.433-1.25-0.6l-0.3-0.05c-0.333-0.1-0.75-0.15-1.25-0.15
				c-0.833,0-2.184,0.1-4.05,0.3c-3.334-1.6-7.25-1.9-11.75-0.9c-3.167,0.667-5.65,1.816-7.45,3.45
				c-1.167,1.066-1.967,2.233-2.4,3.5C65.617,66.5,62.367,68.2,59.1,70.8z"/>
		</g>
		<path style="fill-rule:evenodd;clip-rule:evenodd;fill:#45260C;" d="M73.6,68.95l-1.15-1.25c-0.167-0.167-0.217-0.367-0.15-0.6
			c0.167-0.6,0.567-1.233,1.2-1.9c1.3-1.3,3.283-2.25,5.95-2.85c1.466-0.3,2.833-0.45,4.1-0.45c2.4,0,4.45,0.534,6.15,1.6l0.5-0.1
			c2.7-0.3,4.3-0.4,4.8-0.3l0.2,0.1l0.25,0.25v0.1l0.05,0.05v0.1l0.05,0.05v0.2c4.434,0.267,8.217,1.7,11.351,4.3
			c2.466,2.066,4.3,4.65,5.5,7.75c0.6,1.066,0.916,2.35,0.949,3.85V80c0.067,0.566,0.051,1-0.05,1.3l-0.2,1
			c1.034,0.767,1.801,2.217,2.301,4.351c0.933,4.467,1.05,7.116,0.35,7.949c-0.533,0.967-2.333,1.584-5.4,1.851
			c-0.966,0.366-1.816,0.633-2.55,0.8L107.4,97.3c-1.867,0.4-4.167,1.184-6.9,2.351c-1.9,0.8-3,1.616-3.3,2.449
			c-0.233,0.601,0.083,1.717,0.95,3.351l0.649,1.25c2.233,4.467,2.584,8.616,1.05,12.45l0.351,0.699
			c0.467,1.067,0.916,1.95,1.35,2.65l4.7,1.15l0.8-0.25c0.5-0.167,0.816-0.25,0.95-0.25c0.2,0,0.35,0.05,0.45,0.149
			c0.267,0.167,0.399,0.417,0.399,0.75c0,0.134-0.033,0.267-0.1,0.4l0.35,0.25c0.167,0.2,0.184,0.417,0.051,0.649
			c-0.067,0.268-0.267,0.7-0.601,1.301c-0.467,0.8-0.95,1.366-1.45,1.699c-0.433,0.301-0.933,0.483-1.5,0.551
			c0.134,0.333,0.101,0.633-0.1,0.899c-0.233,0.333-0.55,0.5-0.95,0.5l-0.399-0.1v0.05c0.033,0.1,0.033,0.184,0,0.25v0.2H104.1
			l-0.1,0.149l-0.05,0.101l-0.25,0.149l-0.3,0.051c-0.7,0.232-1.534,0.35-2.5,0.35c-0.4,0-0.867-0.066-1.4-0.2
			c0.833,0.9,1.316,1.567,1.45,2c0.133,0.367,0.116,0.7-0.05,1c-0.2,0.367-0.551,0.55-1.051,0.55L99.15,134.7l0.05,0.1
			c0.133,0.167,0.166,0.367,0.1,0.601c-0.1,0.267-0.25,0.416-0.45,0.449c-1.199,0.4-2.366,0.601-3.5,0.601
			c-0.833,0-1.483-0.117-1.949-0.351c-0.834-0.366-1.551-0.982-2.15-1.85l-0.05-0.05c-0.434-0.634-0.65-1.067-0.65-1.3L90.5,132.8
			v-0.05c-0.1-0.9-0.333-1.95-0.7-3.15h-0.2l-1.05,0.45c0.134,0.134,0.2,0.333,0.2,0.601c0,0.199-0.1,0.416-0.3,0.649h0.35
			l0.101,0.05l0.149,0.051l0.2,0.199v0.051l0.05,0.05l0.05,0.25v0.3c-0.033,0.066-0.183,0.4-0.449,1
			c-0.301,0.667-0.634,1.217-1,1.65c-0.301,0.366-0.634,0.649-1,0.85c-0.667,0.333-1.334,0.5-2,0.5c-0.767,0-1.233-0.083-1.4-0.25
			l-0.2-0.05l-1.2-0.851h-0.05c-2.2-0.3-4.75-0.883-7.65-1.75c-6.133-1.866-9.033-4.05-8.7-6.55c0.033-0.433,0.216-0.95,0.55-1.55
			c0.3-0.5,0.483-1,0.55-1.5l-0.8-1.3c-0.9,0.399-1.917,0.6-3.05,0.6H62.7l-1.75-0.3l-0.85,0.1c-0.6,0-1.217-0.183-1.85-0.55
			c-0.833-0.467-1.167-1.366-1-2.7c0.067-0.399,0.3-0.6,0.7-0.6c0.267,0.066,0.45,0.184,0.55,0.35c0-0.833,0.3-1.583,0.9-2.25
			c0.633-0.666,1.4-0.982,2.3-0.949c0.833,0.033,1.483,0.333,1.95,0.899l0.2,0.3l0.2-0.25l0.05-0.05c-0.3-1.667-0.4-3.399-0.3-5.2
			c0.3-5.199,2.067-9.949,5.3-14.25c1.933-2.533,4.1-4.633,6.5-6.3c-0.467-1.066-0.883-2.333-1.25-3.8
			c-1.3,0.434-2.75,0.65-4.35,0.65c-2.8,0-6.117-0.551-9.95-1.65c-3.3-1.133-5.017-1.733-5.15-1.8c-0.3-0.1-0.45-0.317-0.45-0.65
			c0.033-0.866,0.333-1.933,0.9-3.2c1.167-2.467,3.183-4.85,6.05-7.15c3.967-3.167,7.8-4.75,11.5-4.75H73.6z"/>
		<g>
			<path style="fill-rule:evenodd;clip-rule:evenodd;fill:#F99499;" d="M91.6,66.25L91.7,69c-0.467,2.2-2.017,4.117-4.65,5.75
				c-2.1,1.3-5.066,0.45-8.9-2.55L73,67.25c0.1-0.467,0.45-1,1.05-1.6c1.233-1.2,3.083-2.067,5.55-2.6c3.8-0.8,6.95-0.517,9.45,0.85
				C90.283,64.6,91.134,65.383,91.6,66.25z"/>
			<path style="fill-rule:evenodd;clip-rule:evenodd;fill:#FBB3B8;" d="M57.95,120.5v-0.8l0.1,0.399
				c0.134,0.268,0.333,0.467,0.6,0.601c0.567,0.233,1.133,0.217,1.7-0.05c1.167,0.399,1.483,0.783,0.95,1.149
				c-0.767,0.567-1.667,0.533-2.7-0.1C58.233,121.5,58.017,121.1,57.95,120.5z"/>
			<path style="fill-rule:evenodd;clip-rule:evenodd;fill:#FBB3B8;" d="M61.1,118.7c-0.233,0.267-0.267,0.55-0.1,0.85
				c0.2,0.333,0.533,0.467,1,0.4c0.175-0.044,0.342-0.103,0.5-0.175l-0.4,0.074c0.566-0.633,0.517-1.1-0.15-1.399
				C61.583,118.316,61.3,118.4,61.1,118.7z M59.85,117.6c0.5-0.533,1.1-0.783,1.8-0.75c0.9,0.067,1.467,0.45,1.7,1.15
				c0.096,0.353,0.113,0.694,0.05,1.025c0.185-0.229,0.418-0.537,0.7-0.926c0.433-0.533,0.816-0.816,1.15-0.85
				c0.467-0.066,0.934,0.2,1.4,0.8c0.5,0.601,0.7,1.233,0.6,1.9c-0.3,1.6-1.816,2.399-4.55,2.399c-1.1-0.033-1.95-0.316-2.55-0.85
				c-0.566-0.533-0.883-1.184-0.95-1.95C59.167,118.783,59.383,118.133,59.85,117.6z"/>
			<path style="fill-rule:evenodd;clip-rule:evenodd;fill:#F99499;" d="M59.8,121.1l0.4,0.25c0.833,0.601,1.783,0.834,2.85,0.7
				c1.067-0.1,1.667-0.517,1.8-1.25c0.1-0.6-0.017-1.183-0.35-1.75l-0.55-0.649v-0.051c0.5-0.699,0.933-1.066,1.3-1.1
				c0.467-0.066,0.934,0.2,1.4,0.8c0.5,0.601,0.7,1.233,0.6,1.9c-0.3,1.6-1.816,2.399-4.55,2.399
				C61.4,122.316,60.434,121.9,59.8,121.1z"/>
			<path style="fill-rule:evenodd;clip-rule:evenodd;fill:#C96F62;" d="M106.85,124.2c0.801-0.267,1.217-0.384,1.25-0.351
				c0.301,0.233-0.116,0.65-1.25,1.25h1.65L108,126.2c-0.434,0.767-0.866,1.3-1.3,1.6c-0.667,0.467-1.384,0.601-2.15,0.4
				l-1.649-1.15c0.133-0.399,0.283-0.783,0.449-1.149c0.334-0.801,0.65-1.2,0.95-1.2C105.066,124.667,105.917,124.5,106.85,124.2z"
				/>
			<path style="fill-rule:evenodd;clip-rule:evenodd;fill:#AA5E54;" d="M103.1,125.5l1.9,0.75c1.434,0.3,2.6-0.083,3.5-1.15
				L108,126.2c-0.434,0.767-0.866,1.3-1.3,1.6c-0.667,0.467-1.384,0.601-2.15,0.4l-1.55-1.3c0.1-0.301,0.15-0.634,0.15-1
				L103.1,125.5z"/>
			<path style="fill-rule:evenodd;clip-rule:evenodd;fill:#F99499;" d="M88.65,115.7c-0.967-1.867-1.467-2.967-1.5-3.3
				c-0.101-1.101,0.816-1.7,2.75-1.801c3-0.166,5.416,0.75,7.25,2.75c1.6,1.768,2.199,3.533,1.8,5.301
				c-0.367,1.732-0.733,2.75-1.101,3.05l1.2,0.649c1.066,0.5,2.351,0.9,3.851,1.2c1.133,0.233,2.333,0.533,3.6,0.9
				c-0.333-0.033-0.7-0.017-1.1,0.05c-0.767,0.133-1.284,0.45-1.551,0.95c-0.399,0.733-0.466,1.383-0.199,1.95
				c-2.067-0.233-4.534-0.717-7.4-1.45c-5.566-1.367-8.233-2.934-8-4.7c0.434-0.8,0.75-1.467,0.95-2
				C89.6,118.283,89.417,117.1,88.65,115.7z"/>
			<path style="fill-rule:evenodd;clip-rule:evenodd;fill:#C96F62;" d="M100.65,124.85c0.633,0.301,1.533,1.033,2.699,2.2
				c1.267,1.233,1.801,2.017,1.601,2.351c-0.334,0.5-1.25,0.116-2.75-1.15l1.3,2.15c-1.8,0.566-3.184,0.616-4.15,0.149
				c-0.633-0.3-1.166-0.783-1.6-1.45l-0.45-0.949l-0.1-3.2l1.35-0.2C99.55,124.617,100.25,124.65,100.65,124.85z"/>
			<path style="fill-rule:evenodd;clip-rule:evenodd;fill:#AA5E54;" d="M99.1,126.55l0.601,1.75c0.733,1.2,2,1.9,3.8,2.101
				c-1.8,0.566-3.184,0.616-4.15,0.149c-0.633-0.3-1.166-0.783-1.6-1.45l-0.45-0.949V127.1L99.1,126.55z"/>
			<path style="fill-rule:evenodd;clip-rule:evenodd;fill:#FBB3B8;" d="M88.5,112.35c1.467-3.366,3.217-4.55,5.25-3.55
				c1.7,0.867,2.816,2.434,3.35,4.7c0.667,2.833,1.9,5.867,3.7,9.1c0.9,1.601,1.733,2.917,2.5,3.95l-1.149,0.7
				c-1.067,0.6-2.167,0.783-3.301,0.55l-1.399-0.5c-0.101-0.633-0.367-1.399-0.8-2.3c-0.834-1.8-2.034-3.333-3.601-4.6
				c-2.033-1.634-3.399-3.467-4.1-5.5L88.5,112.35z"/>
			<path style="fill-rule:evenodd;clip-rule:evenodd;fill:#F99499;" d="M93.05,120.4c-1.033-0.834-1.899-1.717-2.6-2.65L90,114.6
				c0-0.3,0.55-0.916,1.65-1.85c1-0.9,2.183-1.816,3.55-2.75c1,1.033,1.633,2.2,1.899,3.5c0.5,2.066,1.367,4.4,2.601,7
				c-0.834-0.133-1.417,0.184-1.75,0.95c-0.367,0.767-0.367,1.7,0,2.8c0.5,1.434,1.533,2.583,3.1,3.45
				c-0.866,0.233-1.717,0.233-2.55,0l-1.05-0.4c-0.101-0.633-0.367-1.399-0.8-2.3C95.816,123.2,94.616,121.667,93.05,120.4z"/>
			<path style="fill-rule:evenodd;clip-rule:evenodd;fill:#C96F62;" d="M91,128.9l1.6-0.301c1.134-0.166,1.95-0.149,2.45,0.051
				c0.767,0.333,1.867,1.166,3.3,2.5c1.534,1.433,2.184,2.366,1.95,2.8c-0.366,0.6-1.467,0.167-3.3-1.3l1.6,2.55
				c-2.1,0.7-3.75,0.783-4.949,0.25c-0.733-0.3-1.367-0.851-1.9-1.65l-0.55-1.1L91,128.9z"/>
			<path style="fill-rule:evenodd;clip-rule:evenodd;fill:#AA5E54;" d="M93.25,130.75l0.75,2.1c0.934,1.4,2.467,2.184,4.6,2.351
				c-2.1,0.7-3.75,0.783-4.949,0.25c-0.733-0.3-1.367-0.851-1.9-1.65l-0.55-1.1l-0.101-1.25L93.25,130.75z"/>
			<path style="fill-rule:evenodd;clip-rule:evenodd;fill:#FBB3B8;" d="M76.5,91.55c-1.667-3.667-2.433-7.517-2.3-11.55
				c0.333-8.066,5.117-13.017,14.35-14.85c7.566-1.5,13.684-0.15,18.351,4.05c3.533,3.2,5.449,6.816,5.75,10.85
				c0.1,1.333-0.267,1.783-1.101,1.35c-0.366-0.2-0.583-0.283-0.649-0.25c-0.101,0.034-0.017,0.35,0.25,0.95l0.649,6.35
				c0.334,4.267,0.217,6.517-0.35,6.75c-1.566,0.733-3.05,1.233-4.45,1.5c-1.6,0.333-3.85,1.1-6.75,2.3
				c-2.634,1.066-3.917,2.316-3.85,3.75c0,0.4,0.6,1.816,1.8,4.25c1.467,3.066,2.066,5.9,1.8,8.5c-0.4,4.2-2.9,8.083-7.5,11.65
				c-2.3,1.767-5.1,2.833-8.4,3.199c-3.3,0.334-6.45-0.1-9.45-1.3c-7.267-2.933-10.65-8.667-10.15-17.2
				c0.3-5.566,2.4-10.616,6.3-15.149c1.2-1.434,2.517-2.717,3.95-3.851L76.5,91.55z"/>
			<path style="fill-rule:evenodd;clip-rule:evenodd;fill:#F99499;" d="M93.95,106.25c-0.5-1.5-0.351-2.85,0.45-4.05
				c0.399-0.634,1.083-1.217,2.05-1.75c1.366-0.733,2.533-1.367,3.5-1.9c1.733-0.967,3.283-2.917,4.649-5.85
				c1-2.667,1.534-3.967,1.601-3.9c3.434,4.067,5.267,6.15,5.5,6.25l-0.25,0.15c-1.566,0.733-3.05,1.233-4.45,1.5
				c-1.6,0.333-3.85,1.1-6.75,2.3c-2.634,1.066-3.917,2.316-3.85,3.75c0,0.4,0.6,1.816,1.8,4.25c1.467,3.066,2.066,5.9,1.8,8.5
				c-0.4,4.2-2.9,8.083-7.5,11.65c-2.6,2-5.767,3.083-9.5,3.25c-3.8,0.199-7.267-0.567-10.4-2.301l1.4-2.449l3.35,1.05
				c1.5,1.167,3.25,1.816,5.25,1.95c2.966,0.232,5.833-0.817,8.6-3.15c2.8-2.333,4.483-5.2,5.05-8.6c0.4-2.434,0.217-4.667-0.55-6.7
				C94.833,108.434,94.25,107.117,93.95,106.25z"/>
			<path style="fill-rule:evenodd;clip-rule:evenodd;fill:#FBB3B8;" d="M77.65,70.85l0.75,0.85c0.534,0.733,0.934,1.566,1.2,2.5
				c0.833,3,0.133,6.366-2.1,10.1c-1.8,3-6.066,3.867-12.8,2.601l-9.55-2.851c0-0.733,0.284-1.7,0.85-2.9
				c1.1-2.367,3.05-4.667,5.85-6.9c4.033-3.233,7.867-4.767,11.5-4.6C75.184,69.717,76.617,70.117,77.65,70.85z"/>
			<path style="fill-rule:evenodd;clip-rule:evenodd;fill:#F3918A;" d="M79.3,73.3c0.9,2.333,0.833,4.884-0.2,7.65
				c-0.7,0.833-1.517,1.433-2.45,1.8c-3.966,1.733-7.667,2.033-11.1,0.9l-3.95-2.2c-0.033-0.567,0.233-1.3,0.8-2.2
				c1.1-1.8,3.15-3.483,6.15-5.05c2.534-1.333,4.884-1.967,7.05-1.9C77,72.333,78.233,72.667,79.3,73.3z"/>
			<path style="fill-rule:evenodd;clip-rule:evenodd;fill:#C96F62;" d="M68.55,74.2c2.534-1.333,4.884-1.967,7.05-1.9
				c1.4,0.033,2.633,0.367,3.7,1l0.4,1.4c-1-0.367-2.167-0.567-3.5-0.6c-2.233-0.067-4.567,0.4-7,1.4
				c-3.9,1.566-6.434,3.533-7.6,5.9c0-0.667,0.316-1.466,0.95-2.4C63.684,77.3,65.684,75.7,68.55,74.2z"/>
			<path style="fill-rule:evenodd;clip-rule:evenodd;fill:#FBB3B8;" d="M80.8,74.15c0.134,0.667,0.034,1.35-0.3,2.05l-0.7,0.1
				c-0.5,0.1-0.95,0.45-1.35,1.05c-0.233,0.3-0.4,0.583-0.5,0.85l-0.35-0.9c-0.133-0.366-0.117-0.767,0.05-1.2l0.3-0.5l-1.35,0.7
				c-0.667,0.4-1.233,0.983-1.7,1.75l0.6-1.4c0.233-0.6,0.783-1.233,1.65-1.9l1.2-0.85l-0.8,0.2c-0.333,0.066-0.866,0.267-1.6,0.6
				l-1.05,0.5l1.6-1.2c0.8-0.633,1.934-1.05,3.4-1.25C80.4,73.017,80.7,73.483,80.8,74.15z"/>
			<path style="fill-rule:evenodd;clip-rule:evenodd;fill:#FEF2F3;" d="M112.6,81.05c-0.133,1.567-0.566,2.833-1.3,3.8
				c-0.7,0.966-1.483,1.367-2.35,1.2c-0.867-0.167-1.55-0.85-2.05-2.05c-0.5-1.233-0.684-2.633-0.551-4.2
				c0.167-1.533,0.601-2.8,1.301-3.8c0.733-0.967,1.517-1.367,2.35-1.2c0.866,0.167,1.55,0.867,2.05,2.1
				C112.583,78.1,112.767,79.483,112.6,81.05z"/>
			<path style="fill-rule:evenodd;clip-rule:evenodd;fill:#292727;" d="M111.6,80.9c0,1.067-0.233,1.967-0.699,2.7
				c-0.5,0.733-1.101,1.1-1.801,1.1c-0.666,0-1.25-0.367-1.75-1.1c-0.466-0.733-0.699-1.633-0.699-2.7
				c0-1.033,0.233-1.933,0.699-2.7c0.5-0.733,1.084-1.1,1.75-1.1c0.7,0,1.301,0.367,1.801,1.1
				C111.366,78.934,111.6,79.833,111.6,80.9z"/>
			<path style="fill-rule:evenodd;clip-rule:evenodd;fill:#FEF2F3;" d="M110.2,78.85c0,0.466-0.15,0.867-0.45,1.2
				c-0.3,0.333-0.667,0.5-1.1,0.5c-0.434,0-0.784-0.167-1.051-0.5c-0.3-0.333-0.449-0.733-0.449-1.2c0-0.5,0.149-0.917,0.449-1.25
				c0.267-0.333,0.617-0.5,1.051-0.5c0.433,0,0.8,0.167,1.1,0.5S110.2,78.35,110.2,78.85z"/>
			<path style="fill-rule:evenodd;clip-rule:evenodd;fill:#9A5459;" d="M108.2,83.55c0.467,0.2,0.983,0.083,1.55-0.35
				c0.467-0.367,0.833-0.85,1.1-1.45l0.25-0.8L111.05,82c-0.1,0.8-0.416,1.417-0.95,1.85c-0.466,0.4-0.916,0.466-1.35,0.2
				L108.2,83.55z"/>
			<path style="fill-rule:evenodd;clip-rule:evenodd;fill:#FEF2F3;" d="M92,76.6c1.967,0.167,3.583,1,4.85,2.5
				s1.817,3.216,1.65,5.15s-1,3.517-2.5,4.75s-3.233,1.767-5.2,1.6c-1.967-0.166-3.583-1-4.85-2.5
				c-1.267-1.467-1.817-3.166-1.65-5.1c0.167-1.967,1-3.566,2.5-4.8S90.033,76.434,92,76.6z"/>
			<path style="fill-rule:evenodd;clip-rule:evenodd;fill:#292727;" d="M94.2,80.9c1,0.967,1.5,2.133,1.5,3.5s-0.5,2.534-1.5,3.5
				S92,89.35,90.6,89.35c-1.399,0-2.6-0.482-3.6-1.449s-1.5-2.134-1.5-3.5s0.5-2.533,1.5-3.5c0.967-0.966,2.167-1.45,3.6-1.45
				C92,79.45,93.2,79.934,94.2,80.9z"/>
			<path style="fill-rule:evenodd;clip-rule:evenodd;fill:#FEF2F3;" d="M92,82.25c0,0.767-0.267,1.434-0.8,2
				c-0.566,0.566-1.233,0.85-2,0.85c-0.733,0-1.384-0.284-1.95-0.85c-0.533-0.566-0.8-1.233-0.8-2s0.267-1.434,0.8-2
				c0.533-0.533,1.184-0.8,1.95-0.8s1.434,0.267,2,0.8C91.733,80.816,92,81.483,92,82.25z"/>
			<path style="fill-rule:evenodd;clip-rule:evenodd;fill:#9A5459;" d="M88.65,87.65c0.966,0.232,2.05,0.066,3.25-0.5
				c1-0.467,1.767-1.101,2.3-1.9l0.45-1.1l-0.051,1.4c-0.233,1.067-0.899,1.9-2,2.5c-0.966,0.533-1.916,0.617-2.85,0.25L88.65,87.65
				z"/>
			<path style="fill-rule:evenodd;clip-rule:evenodd;fill:#F99499;" d="M81.85,118.95c-0.467-1.8-0.567-3.517-0.3-5.15l0.6-1.85
				l7.6,6.149l0.3,10.801l-8.45,0.85c0.566-0.133,1.167-0.367,1.8-0.7c1.267-0.7,2.017-1.533,2.25-2.5c0.199-0.8-0.2-1.816-1.2-3.05
				C83.117,121.934,82.25,120.417,81.85,118.95z"/>
			<path style="fill-rule:evenodd;clip-rule:evenodd;fill:#F99499;" d="M91.5,120.85c-0.134-1.566-0.083-3.583,0.15-6.05l0.399-3.25
				l0.65,0.7c0.566,0.8,1.083,2.117,1.55,3.95c0.8,2.899,1.434,4.75,1.9,5.55c-0.733,0.5-1.467,0.833-2.2,1
				C92.45,123.083,91.634,122.45,91.5,120.85z"/>
			<path style="fill-rule:evenodd;clip-rule:evenodd;fill:#FBB3B8;" d="M82.2,112.45c2.1-3.733,4.6-4.233,7.5-1.5
				c2.633,2.467,3.95,5.083,3.95,7.85c0,2.2,0.699,4.867,2.1,8c0.667,1.567,1.35,2.917,2.05,4.05L96.4,131.5
				c-0.967,0.467-2.7,0.867-5.2,1.2c-0.101-1.033-0.384-2.233-0.851-3.601c-0.866-2.767-2.149-4.982-3.85-6.649
				c-2.2-2.2-3.566-4.533-4.1-7L82.2,112.45z"/>
			<path style="fill-rule:evenodd;clip-rule:evenodd;fill:#F99499;" d="M66.2,121.3l0.05-0.55c0.3-1.967,0.95-3.4,1.95-4.3
				c0.466-0.467,1.35-0.967,2.65-1.5c2.3-0.9,4.583-0.25,6.85,1.95c2.2,2.166,3.017,4.399,2.45,6.699
				c-0.6,2.434-0.183,4.018,1.25,4.75c0.733,0.4,1.517,0.533,2.35,0.4l-0.5,0.55c-0.433,0.4-0.883,0.783-1.35,1.15
				c-3.3-0.033-6.316-0.783-9.05-2.25C69.85,126.566,67.633,124.267,66.2,121.3z"/>
			<path style="fill-rule:evenodd;clip-rule:evenodd;fill:#C96F62;" d="M86.25,130.65c1.066-0.233,1.616-0.334,1.65-0.301
				c0.466,0.301-0.034,0.783-1.5,1.45l2.3,0.2c-0.566,1.6-1.283,2.65-2.15,3.15c-0.866,0.467-1.816,0.533-2.85,0.199l-2.4-1.6
				c0.1-0.467,0.25-0.95,0.45-1.45c0.367-0.967,0.75-1.433,1.15-1.399C83.9,131,85.017,130.917,86.25,130.65z"/>
			<path style="fill-rule:evenodd;clip-rule:evenodd;fill:#AA5E54;" d="M81.35,131.8l2.7,1.2c2,0.566,3.533,0.233,4.601-1h0.05
				c-0.566,1.6-1.283,2.65-2.15,3.15c-0.866,0.467-1.816,0.533-2.85,0.199l-2.35-1.8c0.133-0.366,0.167-0.767,0.1-1.2L81.35,131.8z"
				/>
			<path style="fill-rule:evenodd;clip-rule:evenodd;fill:#FBB3B8;" d="M78.1,117c1.133,2.033,1.483,4.233,1.05,6.6
				c-0.233,1.301-0.8,2.334-1.7,3.101c-0.434,0.366-0.85,0.6-1.25,0.7l1.2,0.8c1.1,0.633,2.417,1.133,3.95,1.5
				c1.167,0.3,2.417,0.667,3.75,1.1c-0.333-0.033-0.716,0-1.149,0.101c-0.8,0.166-1.333,0.533-1.6,1.1c-0.434,0.9-0.5,1.7-0.2,2.4
				c-2.133-0.268-4.65-0.851-7.55-1.75c-5.767-1.7-8.5-3.634-8.2-5.801c0.467-0.933,0.8-1.732,1-2.399
				c0.367-1.167,0.167-2.617-0.6-4.351c-0.667-1.5-0.616-2.899,0.15-4.199c0.8-1.434,2.283-2.217,4.45-2.351
				C74.467,113.316,76.7,114.467,78.1,117z"/>
			<path style="fill-rule:evenodd;clip-rule:evenodd;fill:#F99499;" d="M90.75,64.6c0.6-0.2,1.967-0.467,4.1-0.8l-0.1,0.45
				c-0.434,0.367-0.917,0.517-1.45,0.45l0.65,0.2c0.533,0.2,1.05,0.433,1.55,0.7c0.7,0.367,1.434,0.833,2.2,1.4
				c0.133,0.233-0.584,0.333-2.15,0.3c-0.833-0.033-1.533-0.1-2.1-0.2l-0.601-0.2l0.25,0.25c0.167,0.2,0.317,0.467,0.45,0.8
				c0.167,0.566,0.15,0.95-0.05,1.15c-0.3,0-0.816-0.2-1.55-0.6c-0.467-0.233-0.851-0.483-1.15-0.75l-0.3-0.35l-2.55-0.2l-0.4-0.5
				c-0.1-0.034-0.116-0.083-0.05-0.15c0.134-0.167,0.634-0.366,1.5-0.6c0.134-0.167,0.316-0.367,0.55-0.6
				C89.983,64.95,90.384,64.7,90.75,64.6z"/>
			<path style="fill-rule:evenodd;clip-rule:evenodd;fill:#FBB3B8;" d="M83.8,66.9c0.434-0.4,1.017-0.817,1.75-1.25
				c1.5-0.833,3.066-1.35,4.7-1.55c2.667-0.3,4.2-0.4,4.6-0.3c-0.133,0.367-0.6,0.583-1.399,0.65l-1.2,0.15l1.5,0.5
				c1.066,0.4,1.85,0.75,2.35,1.05l1.15,0.8c-0.434,0.133-1.333,0.116-2.7-0.05c-0.833-0.1-1.483-0.216-1.95-0.35l-0.5-0.2
				c0.834,1.133,1.217,1.8,1.15,2l-0.1,0.25c-0.934-0.434-1.584-0.8-1.95-1.1L90.65,67l-5.45,0.4c-0.467,0.034-0.85-0.05-1.15-0.25
				L83.8,66.9z"/>
			<path style="fill-rule:evenodd;clip-rule:evenodd;fill:#F99499;" d="M110.1,85.45c-0.933-0.167-2.083-0.05-3.449,0.35
				c-1.233,0.367-2.434,0.884-3.601,1.55c-0.767,0.434-1.583,1.033-2.45,1.801c0.233-0.4,0.567-0.851,1-1.351
				c0.834-1,1.75-1.75,2.75-2.25c1.134-0.533,2.434-0.717,3.9-0.55C108.983,85.1,109.6,85.25,110.1,85.45z"/>
			<path style="fill-rule:evenodd;clip-rule:evenodd;fill:#FCC6C8;" d="M103.6,94.9c0.134-0.9,0.351-1.95,0.65-3.15
				c0.634-2.367,1.417-4.267,2.35-5.7c1.4-2.2,2.867-3.4,4.4-3.6c1.8-0.2,3.033,1.25,3.7,4.35c0.633,2.833,0.899,4.917,0.8,6.25
				c-0.066,0.667-0.184,1.05-0.35,1.15c-0.067,0.2-0.317,0.417-0.75,0.649c-0.9,0.467-2.317,0.768-4.25,0.9
				c-1.667,0.133-3.25,0.033-4.75-0.3L103.6,94.9z"/>
			<path style="fill-rule:evenodd;clip-rule:evenodd;fill:#F29B94;" d="M109.9,86.05c-0.233,0.667-0.334,1.351-0.301,2.05l0.4,0.65
				c0.3,0.434,0.434,0.75,0.4,0.95c-0.034,1.133-0.367,2.066-1,2.8c-0.567,0.667-1,0.684-1.301,0.05c-0.5-1.1-0.35-2.517,0.45-4.25
				L109.9,86.05z"/>
			<path style="fill-rule:evenodd;clip-rule:evenodd;fill:#F29B94;" d="M113.1,85.9l0.75,1.5c0.467,1.166,0.65,2.199,0.551,3.1
				c-0.067,1-0.267,1.617-0.601,1.85c-0.3,0.167-0.566-0.033-0.8-0.6c-0.366-0.833-0.333-1.95,0.1-3.35
				c0.2-0.567,0.25-1.15,0.15-1.75L113.1,85.9z"/>
		</g>
	</g>
	<g>
		<g>
			<g>
				<g>
					<g>
						<g>
							<g>
								<g>
									<g>
										
											<linearGradient id="SVGID_11_" gradientUnits="userSpaceOnUse" x1="-83.123" y1="35.1328" x2="-50.2261" y2="35.1328" gradientTransform="matrix(-0.1725 -0.985 0.985 -0.1725 1.230538e-004 -1.968741e-004)">
											<stop  offset="0" style="stop-color:#B1812F"/>
											<stop  offset="0.1569" style="stop-color:#C89A33"/>
											<stop  offset="0.3686" style="stop-color:#EDC13A"/>
											<stop  offset="0.9647" style="stop-color:#DEEA89"/>
										</linearGradient>
										<path style="fill-rule:evenodd;clip-rule:evenodd;fill:url(#SVGID_11_);" d="M57.65,42.55c1.733,2,1.517,4.85-0.65,8.55
											c-1.6,2.867-3.467,4.816-5.6,5.85c-0.2,0.1-0.35,0.15-0.45,0.15l-0.1,0.05c-0.1,0.633-0.283,1.25-0.55,1.85
											c-1,3.167-2.433,5.45-4.3,6.85L45.75,66c0.1,0.934,0.117,1.667,0.05,2.2c-0.1,3.333-0.833,5.933-2.2,7.8l-0.55,0.6
											c-0.333,0.233-0.633,0.367-0.9,0.4c-0.4,0.1-0.8,0.1-1.2,0c-0.934-0.233-1.75-0.733-2.45-1.5l-0.6,0.45l-0.55,0.25
											l-0.2,0.05c-0.733,0.2-1.433,0.05-2.1-0.45c-1.233-0.933-1.9-2.35-2-4.25c-0.1-1.467,0.117-2.933,0.65-4.4
											c0.833-2,2.033-3.633,3.6-4.9c-0.5-1.2-0.5-2.6,0-4.2c0.367-1.233,0.934-2.4,1.7-3.5c1.233-1.533,2.733-2.717,4.5-3.55
											c-0.033-1.167,0.317-2.417,1.05-3.75c0.6-1.033,1.333-1.95,2.2-2.75c1.267-1.066,2.717-1.85,4.35-2.35
											c1.6-0.5,3.1-0.65,4.5-0.45c0.8-0.067,1.467,0.2,2,0.8L57.65,42.55z"/>
										<path style="fill-rule:evenodd;clip-rule:evenodd;fill:none;stroke:#FBFCC9;stroke-width:0.25;" d="M57.65,42.55
											L57.6,42.5c-0.533-0.6-1.2-0.867-2-0.8c-1.4-0.2-2.9-0.05-4.5,0.45c-1.633,0.5-3.083,1.284-4.35,2.35
											c-0.867,0.8-1.6,1.717-2.2,2.75c-0.733,1.333-1.083,2.583-1.05,3.75c-1.767,0.833-3.267,2.017-4.5,3.55
											c-0.767,1.1-1.333,2.267-1.7,3.5c-0.5,1.6-0.5,3,0,4.2c-1.566,1.267-2.767,2.9-3.6,4.9c-0.534,1.467-0.75,2.933-0.65,4.4
											c0.1,1.9,0.767,3.317,2,4.25c0.667,0.5,1.367,0.65,2.1,0.45l0.2-0.05l0.55-0.25l0.6-0.45c0.7,0.767,1.517,1.267,2.45,1.5
											c0.4,0.1,0.8,0.1,1.2,0c0.267-0.033,0.567-0.167,0.9-0.4L43.6,76c1.367-1.867,2.1-4.467,2.2-7.8
											c0.067-0.534,0.05-1.267-0.05-2.2L46,65.85c1.867-1.4,3.3-3.684,4.3-6.85c0.267-0.6,0.45-1.217,0.55-1.85l0.1-0.05
											c0.1,0,0.25-0.05,0.45-0.15c2.133-1.034,4-2.983,5.6-5.85C59.167,47.4,59.383,44.55,57.65,42.55z"/>
									</g>
								</g>
								<path style="fill-rule:evenodd;clip-rule:evenodd;fill:#45260C;" d="M56.35,43.7c0.633,0.733,0.8,1.816,0.5,3.25
									c-0.233,1.1-0.667,2.183-1.3,3.25c-1.6,2.633-3.233,4.366-4.9,5.2l-0.15,0.05h-0.05L50.4,55.5h-0.05
									c-0.2,0.033-0.417-0.033-0.65-0.2l-0.3-0.35c-0.033,1.233-0.267,2.383-0.7,3.45c-0.867,2.767-2.117,4.8-3.75,6.1l-0.2,0.05
									l-0.1,0.1H44.6c-0.233,0.067-0.434,0.05-0.6-0.05l-0.3-0.25c0.333,1.066,0.466,2.316,0.4,3.75c-0.1,3-0.717,5.3-1.85,6.9
									l-0.2,0.15L42,75.2l-0.25,0.15c-0.133,0.033-0.267,0.033-0.4,0c-1.067-0.267-1.9-1.083-2.5-2.45
									c-0.633,0.7-1.25,1.217-1.85,1.55l-0.2,0.1l-0.05,0.05c-0.267,0.066-0.483,0.017-0.65-0.15c-0.867-0.7-1.317-1.8-1.35-3.3
									c-0.033-1.167,0.15-2.3,0.55-3.4c1-2.467,2.567-4.217,4.7-5.25h-0.2c-0.233,0-0.433-0.1-0.6-0.3
									c-0.633-0.9-0.75-2.083-0.35-3.55c0.333-1.067,0.85-2.1,1.55-3.1c1.4-1.7,3.1-2.85,5.1-3.45v-0.05
									c-0.467-1-0.35-2.183,0.35-3.55c0.5-1,1.2-1.917,2.1-2.75c1.066-0.934,2.316-1.6,3.75-2c1.4-0.434,2.683-0.533,3.85-0.3
									l0.05-0.05C55.9,43.333,56.15,43.434,56.35,43.7z"/>
								<g>
									<g>
										<g>
											<g>
												<g>
													<g>
														<g>
															
																<linearGradient id="SVGID_12_" gradientUnits="userSpaceOnUse" x1="-9.2241" y1="70.3672" x2="2.4603" y2="70.3672" gradientTransform="matrix(0.6504 -0.7596 0.7596 0.6504 3.206730e-005 -2.581477e-004)">
																<stop  offset="0" style="stop-color:#FCF226"/>
																<stop  offset="0.4275" style="stop-color:#E7C71D"/>
																<stop  offset="0.7922" style="stop-color:#DAAA16"/>
																<stop  offset="1" style="stop-color:#D4A013"/>
															</linearGradient>
															<path style="fill-rule:evenodd;clip-rule:evenodd;fill:url(#SVGID_12_);" d="M49.65,47.7
																c1.7-2.1,3.633-3.267,5.8-3.5c0.233,0.733-0.034,1.616-0.8,2.65c-0.6,0.8-1.35,1.517-2.25,2.15
																c-2.267,1.733-4.316,2.65-6.15,2.75c0.2-0.3,0.717-0.917,1.55-1.85C48.7,48.934,49.317,48.2,49.65,47.7z"/>
															<path style="fill-rule:evenodd;clip-rule:evenodd;fill:#FBFCC9;" d="M46.15,51.75
																c-0.333-0.767-0.216-1.717,0.35-2.85c0.467-0.933,1.117-1.783,1.95-2.55c1-0.867,2.117-1.5,3.35-1.9
																c1.3-0.4,2.517-0.483,3.65-0.25c-0.9,0.1-1.784,0.483-2.65,1.15c-0.533,0.4-1.25,1.066-2.15,2
																C48.883,49.35,47.383,50.816,46.15,51.75z"/>
														</g>
														<g>
															
																<linearGradient id="SVGID_13_" gradientUnits="userSpaceOnUse" x1="-37.2593" y1="65.9028" x2="-25.5803" y2="65.9028" gradientTransform="matrix(0.2975 -0.9547 0.9547 0.2975 1.262128e-004 4.048944e-004)">
																<stop  offset="0" style="stop-color:#FCF226"/>
																<stop  offset="0.4275" style="stop-color:#E7C71D"/>
																<stop  offset="0.7922" style="stop-color:#DAAA16"/>
																<stop  offset="1" style="stop-color:#D4A013"/>
															</linearGradient>
															<path style="fill-rule:evenodd;clip-rule:evenodd;fill:url(#SVGID_13_);" d="M54.9,49.8c-1.466,2.5-3,4.15-4.6,4.95
																c0.767-2.267,1.284-3.967,1.55-5.1c0.667-2.533,1.967-4.35,3.9-5.45c0.5,0.566,0.617,1.483,0.35,2.75
																C55.867,47.883,55.467,48.833,54.9,49.8z"/>
															<path style="fill-rule:evenodd;clip-rule:evenodd;fill:#FBFCC9;" d="M50.25,54.75c-0.633-0.533-0.917-1.434-0.85-2.7
																c0.067-1.066,0.333-2.116,0.8-3.15c0.6-1.167,1.383-2.183,2.35-3.05c1.034-0.9,2.1-1.467,3.2-1.7
																c-0.767,0.433-1.417,1.133-1.95,2.1c-0.3,0.533-0.7,1.434-1.2,2.7C51.8,51.45,51.017,53.383,50.25,54.75z"/>
														</g>
													</g>
												</g>
											</g>
										</g>
									</g>
									<g>
										<g>
											<g>
												<g>
													<g>
														<g>
															
																<linearGradient id="SVGID_14_" gradientUnits="userSpaceOnUse" x1="-34.251" y1="66.6436" x2="-22.5742" y2="66.6436" gradientTransform="matrix(0.4904 -0.8715 0.8715 0.4904 -3.241003e-004 -1.077056e-004)">
																<stop  offset="0" style="stop-color:#FCF226"/>
																<stop  offset="0.4275" style="stop-color:#E7C71D"/>
																<stop  offset="0.7922" style="stop-color:#DAAA16"/>
																<stop  offset="1" style="stop-color:#D4A013"/>
															</linearGradient>
															<path style="fill-rule:evenodd;clip-rule:evenodd;fill:url(#SVGID_14_);" d="M47.45,52.6
																c0.367,0.667,0.283,1.583-0.25,2.75c-0.434,0.9-1.034,1.733-1.8,2.5c-1.9,2.167-3.733,3.466-5.5,3.9
																c0.133-0.3,0.534-1,1.2-2.1c0.633-1.133,1.083-1.983,1.35-2.55C43.717,54.7,45.383,53.2,47.45,52.6z"/>
															<path style="fill-rule:evenodd;clip-rule:evenodd;fill:#FBFCC9;" d="M39.85,61.75c-0.5-0.667-0.583-1.617-0.25-2.85
																c0.267-1.033,0.733-2,1.4-2.9c0.833-1.033,1.833-1.85,3-2.45c1.167-0.667,2.317-1,3.45-1
																c-0.833,0.267-1.617,0.817-2.35,1.65c-0.367,0.4-0.95,1.2-1.75,2.4C42.117,58.767,40.95,60.483,39.85,61.75z"/>
														</g>
														<g>
															
																<linearGradient id="SVGID_15_" gradientUnits="userSpaceOnUse" x1="-58.75" y1="52.6455" x2="-47.0828" y2="52.6455" gradientTransform="matrix(0.1071 -0.9942 0.9942 0.1071 4.380494e-004 -3.305823e-004)">
																<stop  offset="0" style="stop-color:#FCF226"/>
																<stop  offset="0.4275" style="stop-color:#E7C71D"/>
																<stop  offset="0.7922" style="stop-color:#DAAA16"/>
																<stop  offset="1" style="stop-color:#D4A013"/>
															</linearGradient>
															<path style="fill-rule:evenodd;clip-rule:evenodd;fill:url(#SVGID_15_);" d="M47.8,52.5
																c0.6,0.467,0.884,1.333,0.85,2.6c-0.066,1.033-0.283,2.05-0.65,3.05c-0.933,2.767-2.117,4.683-3.55,5.75
																c0.333-2.367,0.517-4.133,0.55-5.3C45.167,55.967,46.1,53.934,47.8,52.5z"/>
															<path style="fill-rule:evenodd;clip-rule:evenodd;fill:#FBFCC9;" d="M44.4,63.95c-0.7-0.434-1.15-1.284-1.35-2.55
																c-0.133-1.033-0.083-2.1,0.15-3.2c0.367-1.267,0.95-2.417,1.75-3.45c0.833-1.066,1.767-1.833,2.8-2.3
																c-0.667,0.6-1.167,1.417-1.5,2.45c-0.167,0.534-0.383,1.5-0.65,2.9C45.267,60.5,44.867,62.55,44.4,63.95z"/>
														</g>
													</g>
												</g>
											</g>
										</g>
									</g>
									<g>
										<g>
											<g>
												<g>
													<g>
														<g>
															
																<linearGradient id="SVGID_16_" gradientUnits="userSpaceOnUse" x1="-63.9111" y1="53.5674" x2="-52.228" y2="53.5674" gradientTransform="matrix(0.2203 -0.9754 0.9754 0.2203 -5.136877e-004 -1.089275e-004)">
																<stop  offset="0" style="stop-color:#FCF226"/>
																<stop  offset="0.4275" style="stop-color:#E7C71D"/>
																<stop  offset="0.7922" style="stop-color:#DAAA16"/>
																<stop  offset="1" style="stop-color:#D4A013"/>
															</linearGradient>
															<path style="fill-rule:evenodd;clip-rule:evenodd;fill:url(#SVGID_16_);" d="M41.2,62.85
																c0.566,0.533,0.75,1.433,0.55,2.7c-0.133,1-0.45,1.983-0.95,2.95c-1.3,2.633-2.683,4.4-4.15,5.3
																c0.034-0.366,0.2-1.15,0.5-2.35c0.333-1.3,0.534-2.233,0.6-2.8C38.217,66.017,39.367,64.083,41.2,62.85z"/>
															<path style="fill-rule:evenodd;clip-rule:evenodd;fill:#FBFCC9;" d="M38.45,67.85c-0.6,2.6-1.233,4.6-1.9,6
																c-0.667-0.534-1.017-1.434-1.05-2.7c0-1.033,0.184-2.083,0.55-3.15c0.5-1.233,1.2-2.316,2.1-3.25
																c0.967-0.934,1.983-1.566,3.05-1.9c-0.733,0.5-1.333,1.233-1.8,2.2C39.133,65.617,38.817,66.55,38.45,67.85z"/>
														</g>
														<g>
															
																<linearGradient id="SVGID_17_" gradientUnits="userSpaceOnUse" x1="-80.9189" y1="28.7539" x2="-69.2534" y2="28.7539" gradientTransform="matrix(-0.1842 -0.9829 0.9829 -0.1842 -6.228685e-005 -8.798242e-004)">
																<stop  offset="0" style="stop-color:#FCF226"/>
																<stop  offset="0.4275" style="stop-color:#E7C71D"/>
																<stop  offset="0.7922" style="stop-color:#DAAA16"/>
																<stop  offset="1" style="stop-color:#D4A013"/>
															</linearGradient>
															<path style="fill-rule:evenodd;clip-rule:evenodd;fill:url(#SVGID_17_);" d="M41.5,62.7
																c0.733,0.267,1.25,1.017,1.55,2.25c0.267,1,0.367,2.033,0.3,3.1c-0.133,2.9-0.717,5.067-1.75,6.5
																c-0.367-2.333-0.7-4.066-1-5.2C40.033,66.717,40.333,64.5,41.5,62.7z"/>
															<path style="fill-rule:evenodd;clip-rule:evenodd;fill:#FBFCC9;" d="M40.95,68.35c0.466,2.8,0.667,4.883,0.6,6.25
																c-0.8-0.2-1.466-0.867-2-2c-0.433-0.967-0.7-2.017-0.8-3.15c-0.033-1.3,0.2-2.567,0.7-3.8
																c0.5-1.267,1.183-2.267,2.05-3c-0.5,0.767-0.767,1.683-0.8,2.75C40.7,66,40.783,66.983,40.95,68.35z"/>
														</g>
													</g>
												</g>
											</g>
										</g>
									</g>
								</g>
							</g>
						</g>
					</g>
				</g>
			</g>
		</g>
		<g>
			<g>
				<g>
					<g>
						<g>
							<g>
								<g>
									<g>
										<linearGradient id="SVGID_18_" gradientUnits="userSpaceOnUse" x1="129.4756" y1="43.9058" x2="119.4256" y2="75.2308">
											<stop  offset="0" style="stop-color:#B1812F"/>
											<stop  offset="0.1569" style="stop-color:#C89A33"/>
											<stop  offset="0.3686" style="stop-color:#EDC13A"/>
											<stop  offset="0.9647" style="stop-color:#DEEA89"/>
										</linearGradient>
										<path style="fill-rule:evenodd;clip-rule:evenodd;fill:url(#SVGID_18_);" d="M137.6,71.55c-0.1,1.9-0.767,3.317-2,4.25
											c-0.633,0.5-1.333,0.65-2.1,0.45l-0.2-0.05l-0.55-0.25l-0.6-0.45c-0.7,0.767-1.517,1.267-2.45,1.5
											c-0.367,0.1-0.767,0.1-1.2,0c-0.267-0.033-0.566-0.167-0.9-0.4l-0.55-0.6c-1.366-1.867-2.1-4.467-2.2-7.8
											c-0.066-0.534-0.05-1.267,0.051-2.2l-0.25-0.15c-1.834-1.4-3.267-3.684-4.301-6.85c-0.166-0.4-0.35-1.017-0.55-1.85
											l-0.1-0.05l-0.45-0.15c-2.134-1.034-4-2.983-5.6-5.85c-2.134-3.7-2.334-6.55-0.601-8.55V42.5c0.533-0.6,1.2-0.867,2-0.8
											c1.4-0.2,2.9-0.05,4.5,0.45c1.634,0.5,3.084,1.284,4.351,2.35c0.866,0.8,1.6,1.717,2.199,2.75
											c0.733,1.333,1.084,2.583,1.051,3.75c1.767,0.833,3.267,2.017,4.5,3.55c0.8,1.067,1.383,2.233,1.75,3.5
											c0.467,1.6,0.449,3-0.051,4.2c1.601,1.267,2.801,2.9,3.601,4.9C137.483,68.617,137.7,70.083,137.6,71.55z"/>
										<path style="fill-rule:evenodd;clip-rule:evenodd;fill:none;stroke:#FBFCC9;stroke-width:0.25;" d="M137.6,71.55
											c-0.1,1.9-0.767,3.317-2,4.25c-0.633,0.5-1.333,0.65-2.1,0.45l-0.2-0.05l-0.55-0.25l-0.6-0.45
											c-0.7,0.767-1.517,1.267-2.45,1.5c-0.367,0.1-0.767,0.1-1.2,0c-0.267-0.033-0.566-0.167-0.9-0.4l-0.55-0.6
											c-1.366-1.867-2.1-4.467-2.2-7.8c-0.066-0.534-0.05-1.267,0.051-2.2l-0.25-0.15c-1.834-1.4-3.267-3.684-4.301-6.85
											c-0.166-0.4-0.35-1.017-0.55-1.85l-0.1-0.05l-0.45-0.15c-2.134-1.034-4-2.983-5.6-5.85c-2.134-3.7-2.334-6.55-0.601-8.55
											V42.5c0.533-0.6,1.2-0.867,2-0.8c1.4-0.2,2.9-0.05,4.5,0.45c1.634,0.5,3.084,1.284,4.351,2.35
											c0.866,0.8,1.6,1.717,2.199,2.75c0.733,1.333,1.084,2.583,1.051,3.75c1.767,0.833,3.267,2.017,4.5,3.55
											c0.8,1.067,1.383,2.233,1.75,3.5c0.467,1.6,0.449,3-0.051,4.2c1.601,1.267,2.801,2.9,3.601,4.9
											C137.483,68.617,137.7,70.083,137.6,71.55z"/>
									</g>
								</g>
								<path style="fill-rule:evenodd;clip-rule:evenodd;fill:#45260C;" d="M119,43.75c1.4,0.4,2.634,1.066,3.7,2
									c0.899,0.8,1.6,1.717,2.1,2.75c0.7,1.367,0.834,2.55,0.4,3.55l-0.05,0.05c2,0.566,3.699,1.716,5.1,3.45
									c0.7,1,1.217,2.033,1.55,3.1c0.4,1.467,0.283,2.65-0.35,3.55c-0.134,0.2-0.333,0.3-0.601,0.3h-0.199
									c2.133,1.033,3.699,2.783,4.699,5.25c0.4,1.133,0.601,2.267,0.601,3.4c-0.033,1.5-0.5,2.6-1.4,3.3
									c-0.166,0.167-0.383,0.216-0.649,0.15l-0.051-0.05l-0.199-0.1c-0.601-0.333-1.217-0.85-1.851-1.55
									c-0.6,1.367-1.433,2.183-2.5,2.45c-0.133,0.033-0.267,0.033-0.399,0l-0.25-0.15l-0.2-0.2c-1.134-1.566-1.767-3.867-1.9-6.9
									c-0.066-1.434,0.067-2.684,0.4-3.75l-0.3,0.25c-0.167,0.1-0.367,0.117-0.601,0.05H126l-0.1-0.1l-0.2-0.05
									c-1.634-1.3-2.884-3.333-3.75-6.1c-0.4-1.067-0.634-2.216-0.7-3.45l-0.3,0.35c-0.233,0.167-0.45,0.233-0.65,0.2h-0.05
									l-0.05-0.05h-0.05L120,55.4c-1.667-0.833-3.3-2.567-4.9-5.2c-0.633-1.1-1.066-2.184-1.3-3.25
									c-0.3-1.434-0.133-2.517,0.5-3.25c0.2-0.267,0.45-0.367,0.75-0.3l0.05,0.05C116.3,43.217,117.6,43.316,119,43.75z"/>
								<g>
									<g>
										<g>
											<g>
												<g>
													<g>
														<g>
															
																<linearGradient id="SVGID_19_" gradientUnits="userSpaceOnUse" x1="123.2021" y1="52.7764" x2="115.6008" y2="43.8998">
																<stop  offset="0" style="stop-color:#FCF226"/>
																<stop  offset="0.4275" style="stop-color:#E7C71D"/>
																<stop  offset="0.7922" style="stop-color:#DAAA16"/>
																<stop  offset="1" style="stop-color:#D4A013"/>
															</linearGradient>
															<path style="fill-rule:evenodd;clip-rule:evenodd;fill:url(#SVGID_19_);" d="M115.25,44.2
																c2.134,0.233,4.05,1.4,5.75,3.5c0.367,0.5,0.983,1.233,1.85,2.2c0.834,0.933,1.351,1.55,1.551,1.85
																c-1.834-0.1-3.884-1.017-6.15-2.75c-0.9-0.633-1.65-1.35-2.25-2.15C115.267,45.816,115.017,44.934,115.25,44.2z"/>
															<path style="fill-rule:evenodd;clip-rule:evenodd;fill:#FBFCC9;" d="M124.5,51.75c-1.233-0.934-2.733-2.4-4.5-4.4
																c-0.9-0.934-1.616-1.6-2.15-2c-0.866-0.667-1.733-1.05-2.6-1.15c1.1-0.233,2.3-0.15,3.6,0.25
																c1.233,0.4,2.351,1.033,3.351,1.9c0.833,0.767,1.5,1.617,2,2.55C124.733,50.033,124.833,50.983,124.5,51.75z"/>
														</g>
														<g>
															
																<linearGradient id="SVGID_20_" gradientUnits="userSpaceOnUse" x1="118.8398" y1="55.1748" x2="115.3648" y2="44.0248">
																<stop  offset="0" style="stop-color:#FCF226"/>
																<stop  offset="0.4275" style="stop-color:#E7C71D"/>
																<stop  offset="0.7922" style="stop-color:#DAAA16"/>
																<stop  offset="1" style="stop-color:#D4A013"/>
															</linearGradient>
															<path style="fill-rule:evenodd;clip-rule:evenodd;fill:url(#SVGID_20_);" d="M114.9,44.2
																c1.933,1.066,3.233,2.883,3.899,5.45c0.134,0.6,0.417,1.517,0.851,2.75c0.399,1.2,0.633,1.983,0.699,2.35
																c-1.633-0.833-3.149-2.483-4.55-4.95c-0.566-0.933-0.967-1.883-1.2-2.85C114.3,45.684,114.4,44.767,114.9,44.2z"/>
															<path style="fill-rule:evenodd;clip-rule:evenodd;fill:#FBFCC9;" d="M120.4,54.75c-0.767-1.367-1.551-3.3-2.351-5.8
																c-0.5-1.267-0.899-2.167-1.2-2.7c-0.533-0.967-1.183-1.667-1.949-2.1c1.1,0.233,2.166,0.8,3.199,1.7
																c0.967,0.867,1.75,1.883,2.351,3.05c0.467,1.034,0.733,2.083,0.8,3.15C121.316,53.316,121.033,54.217,120.4,54.75z"
																/>
														</g>
													</g>
												</g>
											</g>
										</g>
									</g>
									<g>
										<g>
											<g>
												<g>
													<g>
														<g>
															
																<linearGradient id="SVGID_21_" gradientUnits="userSpaceOnUse" x1="129.3682" y1="62.5273" x2="123.6423" y2="52.3508">
																<stop  offset="0" style="stop-color:#FCF226"/>
																<stop  offset="0.4275" style="stop-color:#E7C71D"/>
																<stop  offset="0.7922" style="stop-color:#DAAA16"/>
																<stop  offset="1" style="stop-color:#D4A013"/>
															</linearGradient>
															<path style="fill-rule:evenodd;clip-rule:evenodd;fill:url(#SVGID_21_);" d="M123.2,52.6
																c2.133,0.633,3.8,2.133,5,4.5c0.267,0.566,0.717,1.417,1.35,2.55c0.667,1.1,1.067,1.8,1.2,2.1
																c-1.767-0.434-3.6-1.733-5.5-3.9c-0.767-0.767-1.366-1.6-1.8-2.5C122.917,54.184,122.833,53.267,123.2,52.6z"/>
															<path style="fill-rule:evenodd;clip-rule:evenodd;fill:#FBFCC9;" d="M130.8,61.75c-1.1-1.267-2.267-2.983-3.5-5.15
																c-0.833-1.233-1.416-2.034-1.75-2.4c-0.7-0.833-1.483-1.384-2.35-1.65c1.133,0,2.3,0.333,3.5,1
																c1.167,0.6,2.149,1.417,2.95,2.45c0.666,0.9,1.133,1.867,1.399,2.9C131.384,60.133,131.3,61.083,130.8,61.75z"/>
														</g>
														<g>
															
																<linearGradient id="SVGID_22_" gradientUnits="userSpaceOnUse" x1="124.6191" y1="64.0503" x2="123.3691" y2="52.4503">
																<stop  offset="0" style="stop-color:#FCF226"/>
																<stop  offset="0.4275" style="stop-color:#E7C71D"/>
																<stop  offset="0.7922" style="stop-color:#DAAA16"/>
																<stop  offset="1" style="stop-color:#D4A013"/>
															</linearGradient>
															<path style="fill-rule:evenodd;clip-rule:evenodd;fill:url(#SVGID_22_);" d="M122.9,52.5
																c1.666,1.467,2.583,3.5,2.75,6.1c0.033,1.167,0.217,2.933,0.55,5.3c-1.434-1.067-2.617-2.983-3.55-5.75
																c-0.367-1.033-0.567-2.05-0.601-3.05C121.983,53.833,122.267,52.967,122.9,52.5z"/>
															<path style="fill-rule:evenodd;clip-rule:evenodd;fill:#FBFCC9;" d="M126.25,63.95c-0.467-1.4-0.866-3.45-1.2-6.15
																c-0.233-1.4-0.45-2.366-0.649-2.9c-0.334-1.033-0.834-1.85-1.5-2.45c1.033,0.466,1.967,1.233,2.8,2.3
																c0.8,1.033,1.383,2.184,1.75,3.45c0.233,1.1,0.283,2.167,0.149,3.2C127.4,62.667,126.95,63.517,126.25,63.95z"/>
														</g>
													</g>
												</g>
											</g>
										</g>
									</g>
									<g>
										<g>
											<g>
												<g>
													<g>
														<g>
															
																<linearGradient id="SVGID_23_" gradientUnits="userSpaceOnUse" x1="132.4922" y1="74.1519" x2="129.9156" y2="62.7449">
																<stop  offset="0" style="stop-color:#FCF226"/>
																<stop  offset="0.4275" style="stop-color:#E7C71D"/>
																<stop  offset="0.7922" style="stop-color:#DAAA16"/>
																<stop  offset="1" style="stop-color:#D4A013"/>
															</linearGradient>
															<path style="fill-rule:evenodd;clip-rule:evenodd;fill:url(#SVGID_23_);" d="M129.45,62.85
																c1.833,1.233,2.983,3.167,3.45,5.8c0.166,1.133,0.55,2.85,1.149,5.15c-1.5-0.866-2.899-2.633-4.2-5.3
																c-0.466-0.967-0.783-1.95-0.949-2.95C128.7,64.283,128.884,63.383,129.45,62.85z"/>
															<path style="fill-rule:evenodd;clip-rule:evenodd;fill:#FBFCC9;" d="M132.2,67.85c-0.367-1.3-0.684-2.233-0.95-2.8
																c-0.467-0.967-1.066-1.7-1.8-2.2c1.1,0.333,2.116,0.966,3.05,1.9s1.634,2.017,2.1,3.25
																c0.4,1.066,0.584,2.117,0.551,3.15c-0.033,1.267-0.384,2.167-1.051,2.7C133.467,72.45,132.833,70.45,132.2,67.85z"/>
														</g>
														<g>
															
																<linearGradient id="SVGID_24_" gradientUnits="userSpaceOnUse" x1="127.4932" y1="74.2407" x2="129.6415" y2="62.7747">
																<stop  offset="0" style="stop-color:#FCF226"/>
																<stop  offset="0.4275" style="stop-color:#E7C71D"/>
																<stop  offset="0.7922" style="stop-color:#DAAA16"/>
																<stop  offset="1" style="stop-color:#D4A013"/>
															</linearGradient>
															<path style="fill-rule:evenodd;clip-rule:evenodd;fill:url(#SVGID_24_);" d="M129.15,62.7
																c1.233,1.866,1.533,4.083,0.899,6.65c-0.3,1.133-0.633,2.867-1,5.2c-1.033-1.433-1.616-3.6-1.75-6.5
																c-0.066-1.066,0.033-2.1,0.3-3.1C127.934,63.717,128.45,62.967,129.15,62.7z"/>
															<path style="fill-rule:evenodd;clip-rule:evenodd;fill:#FBFCC9;" d="M129.7,68.35c0.167-1.367,0.25-2.35,0.25-2.95
																c-0.033-1.067-0.283-1.983-0.75-2.75c0.866,0.733,1.55,1.733,2.05,3c0.467,1.2,0.684,2.467,0.65,3.8
																c-0.101,1.133-0.367,2.183-0.801,3.15c-0.533,1.133-1.199,1.8-2,2C129.066,73.066,129.267,70.983,129.7,68.35z"/>
														</g>
													</g>
												</g>
											</g>
										</g>
									</g>
								</g>
							</g>
						</g>
					</g>
				</g>
			</g>
		</g>
	</g>
</g>
<use xlink:href="#FlashAICB_x5F_0_x2F_Isolation_Mode_x2F__x3C_Path_x3E_"  width="118.7" height="57.15" y="-57.15" transform="matrix(0.9958 0 0 -1 26.2998 85)" style="overflow:visible;opacity:0.3398;enable-background:new    ;"/>
<use xlink:href="#FlashAICB_x5F_0_x2F_Isolation_Mode_x2F__x3C_Group_x3E_"  width="110.05" height="61.344" y="-61.344" transform="matrix(1 0 0 -1 30.3999 26.2002)" style="overflow:visible;opacity:0.8711;enable-background:new    ;"/>
</svg>
