<?xml version="1.0" encoding="iso-8859-1"?>
<!-- Generator: Adobe Illustrator 15.1.0, SVG Export Plug-In . SVG Version: 6.00 Build 0)  -->
<!DOCTYPE svg PUBLIC "-//W3C//DTD SVG 1.1//EN" "http://www.w3.org/Graphics/SVG/1.1/DTD/svg11.dtd">
<svg version="1.1" id="Layer_22" xmlns="http://www.w3.org/2000/svg" xmlns:xlink="http://www.w3.org/1999/xlink" x="0px" y="0px"
	 width="171.5px" height="171.5px" viewBox="0 0 171.5 171.5" style="enable-background:new 0 0 171.5 171.5;" xml:space="preserve"
	>
<symbol  id="FlashAICB_x2F_Layer_22_x2F__x3C_Group_x3E_" viewBox="0 -61.294 110.05 61.294">
	<g id="Layer_1_6_">
		<g>
			
				<use xlink:href="#FlashAICB_x2F_Layer_22_x2F__x3C_Path_x3E__x5F_1_x5F_0"  width="110.05" height="55.75" y="-55.75" style="overflow:visible;opacity:0.1992;enable-background:new    ;"/>
			
				<use xlink:href="#FlashAICB_x2F_Layer_22_x2F__x3C_Path_x3E__x5F_0"  width="110.05" height="61.294" y="-61.294" style="overflow:visible;opacity:0.1211;enable-background:new    ;"/>
		</g>
	</g>
</symbol>
<symbol  id="FlashAICB_x2F_Layer_22_x2F__x3C_Path_x3E_" viewBox="0 -57.1 118.7 57.1">
	<g id="Layer_1_3_">
		
			<radialGradient id="SVGID_1_" cx="59.3501" cy="-28.5498" r="46.5701" gradientTransform="matrix(1 0 0 -1 0 -57.0996)" gradientUnits="userSpaceOnUse">
			<stop  offset="0" style="stop-color:#CCEFE7;stop-opacity:0"/>
			<stop  offset="0.0941" style="stop-color:#C2E8E0;stop-opacity:0.0784"/>
			<stop  offset="0.2549" style="stop-color:#A6D6CF;stop-opacity:0.298"/>
			<stop  offset="0.4667" style="stop-color:#7BB8B2;stop-opacity:0.6471"/>
			<stop  offset="0.651" style="stop-color:#519A96"/>
		</radialGradient>
		<path style="fill-rule:evenodd;clip-rule:evenodd;fill:url(#SVGID_1_);" d="M95.5-30.35c10.733,7.7,18.3,17.733,22.7,30.1L118.7,0
			c-0.567-15.867-6.6-29.35-18.1-40.45C89.1-51.55,75.333-57.1,59.3-57.1c-15.7,0-29.267,5.367-40.7,16.1
			C7.233-30.3,1.033-17.183,0-1.65c4.633-12,12.217-21.7,22.75-29.1c10.833-7.567,22.867-11.35,36.1-11.35
			C72.35-42.1,84.567-38.183,95.5-30.35z"/>
	</g>
</symbol>
<symbol  id="FlashAICB_x2F_Layer_22_x2F__x3C_Path_x3E__x5F_0" viewBox="0 -61.294 110.05 61.294">
	<g id="Layer_1_5_">
		<path style="fill-rule:evenodd;clip-rule:evenodd;fill:#FFFFFF;" d="M106.5-34.35c2.367-5.633,3.55-10.933,3.55-15.9
			s-1.45-8.083-4.35-9.35c-2.333-1.066-6.25-1.066-11.75,0c-7.3,1.767-13.133,3.117-17.5,4.05C68.417-53.85,61.267-53,55-53
			c-6.3,0-13.433-0.917-21.4-2.75c-8.333-2.2-14.167-3.683-17.5-4.45c-5.533-1.267-9.45-1.433-11.75-0.5C1.45-59.5,0-56.433,0-51.5
			c0,5.5,1.167,11.167,3.5,17c2.467,6.167,5.95,11.733,10.45,16.7C24.65-5.933,38.333,0,55,0c16.467,0,30.15-5.983,41.05-17.95
			C100.517-22.883,104-28.35,106.5-34.35z"/>
	</g>
</symbol>
<symbol  id="FlashAICB_x2F_Layer_22_x2F__x3C_Path_x3E__x5F_1" viewBox="0 -118.65 118.85 118.65">
	<g id="Layer_1_2_">
		
			<radialGradient id="SVGID_2_" cx="59.4248" cy="-59.3252" r="59.375" gradientTransform="matrix(1 0 0 -1 0 -118.6504)" gradientUnits="userSpaceOnUse">
			<stop  offset="0" style="stop-color:#F6BD8E"/>
			<stop  offset="0.0196" style="stop-color:#F5BA8C"/>
			<stop  offset="0.2471" style="stop-color:#ED9B78"/>
			<stop  offset="0.4431" style="stop-color:#E9886B"/>
			<stop  offset="0.5843" style="stop-color:#E78267"/>
			<stop  offset="0.5882" style="stop-color:#E68066;stop-opacity:0.9922"/>
			<stop  offset="0.6745" style="stop-color:#DA6858;stop-opacity:0.902"/>
			<stop  offset="0.7686" style="stop-color:#D1564E;stop-opacity:0.8392"/>
			<stop  offset="0.8706" style="stop-color:#CC4B48;stop-opacity:0.8"/>
			<stop  offset="1" style="stop-color:#CA4846;stop-opacity:0.7882"/>
		</radialGradient>
		<path style="fill-rule:evenodd;clip-rule:evenodd;fill:url(#SVGID_2_);" d="M118.85-59.3c0-16.4-5.8-30.4-17.4-42
			c-11.6-11.567-25.617-17.35-42.05-17.35c-16.4,0-30.4,5.783-42,17.35C5.8-89.7,0-75.7,0-59.3c0,16.367,5.8,30.35,17.4,41.95
			C29-5.783,43,0,59.4,0c16.434,0,30.45-5.783,42.05-17.35C113.05-28.95,118.85-42.933,118.85-59.3z"/>
	</g>
</symbol>
<symbol  id="FlashAICB_x2F_Layer_22_x2F__x3C_Path_x3E__x5F_1_x5F_0" viewBox="0 -55.75 110.05 55.75">
	<g id="Layer_1_4_">
		
			<linearGradient id="SVGID_3_" gradientUnits="userSpaceOnUse" x1="16165.3574" y1="-53.8804" x2="16221.1328" y2="-53.8804" gradientTransform="matrix(1.792918e-005 1 -1 -0.001 0.8545 -16221.1064)">
			<stop  offset="0.1294" style="stop-color:#E2B8B2"/>
			<stop  offset="0.9255" style="stop-color:#FFFFFF"/>
		</linearGradient>
		<path style="fill-rule:evenodd;clip-rule:evenodd;fill:url(#SVGID_3_);" d="M96.05-17.95c4.467-4.933,7.95-10.4,10.45-16.4
			c2.367-5.633,3.55-10.933,3.55-15.9c0-1.633-0.167-3.117-0.5-4.45c-1.867,11.034-7.267,20.85-16.2,29.45
			C82.783-15.117,70-10.05,55-10.05c-15.233,0-28.067-5.05-38.5-15.15C7.533-33.9,2.183-44.083,0.45-55.75
			C0.15-54.55,0-53.133,0-51.5c0,5.5,1.167,11.167,3.5,17c2.467,6.167,5.95,11.733,10.45,16.7C24.65-5.933,38.333,0,55,0
			C71.467,0,85.15-5.983,96.05-17.95z"/>
	</g>
</symbol>
<g>
	<g>
		<path style="fill-rule:evenodd;clip-rule:evenodd;fill:#68757B;" d="M146.35,25.15c7.934,7.9,14.067,16.983,18.4,27.25
			c4.5,10.633,6.75,21.75,6.75,33.35c0,11.6-2.25,22.717-6.75,33.35c-4.333,10.268-10.467,19.351-18.4,27.25
			c-7.899,7.934-16.983,14.067-27.25,18.4c-10.633,4.5-21.75,6.75-33.35,6.75c-11.6,0-22.717-2.25-33.35-6.75
			c-10.267-4.333-19.35-10.467-27.25-18.4c-7.933-7.899-14.066-16.982-18.4-27.25C2.25,108.467,0,97.35,0,85.75
			c0-11.6,2.25-22.717,6.75-33.35c4.333-10.267,10.467-19.35,18.4-27.25c7.9-7.933,16.983-14.066,27.25-18.4
			C63.033,2.25,74.15,0,85.75,0c11.6,0,22.717,2.25,33.35,6.75C129.366,11.083,138.45,17.217,146.35,25.15z"/>
		
			<linearGradient id="SVGID_4_" gradientUnits="userSpaceOnUse" x1="-171.5854" y1="85.75" x2="-0.0854" y2="85.75" gradientTransform="matrix(5.830904e-006 -1 1 -0.001 -9.214067e-005 4.449275e-004)">
			<stop  offset="0.0039" style="stop-color:#4F1D1F"/>
			<stop  offset="0.2078" style="stop-color:#7D5F3C"/>
			<stop  offset="0.5569" style="stop-color:#B09A68"/>
			<stop  offset="0.7412" style="stop-color:#EEEDCF"/>
			<stop  offset="0.7922" style="stop-color:#E7E1AD"/>
			<stop  offset="1" style="stop-color:#B9A57A"/>
		</linearGradient>
		<path style="fill-rule:evenodd;clip-rule:evenodd;fill:url(#SVGID_4_);" d="M146.35,25.15c7.934,7.9,14.067,16.983,18.4,27.25
			c4.5,10.633,6.75,21.75,6.75,33.35c0,11.6-2.25,22.717-6.75,33.35c-4.333,10.268-10.467,19.351-18.4,27.25
			c-7.899,7.934-16.983,14.067-27.25,18.4c-10.633,4.5-21.75,6.75-33.35,6.75c-11.6,0-22.717-2.25-33.35-6.75
			c-10.267-4.333-19.35-10.467-27.25-18.4c-7.933-7.899-14.066-16.982-18.4-27.25C2.25,108.467,0,97.35,0,85.75
			c0-11.6,2.25-22.717,6.75-33.35c4.333-10.267,10.467-19.35,18.4-27.25c7.9-7.933,16.983-14.066,27.25-18.4
			C63.033,2.25,74.15,0,85.75,0c11.6,0,22.717,2.25,33.35,6.75C129.366,11.083,138.45,17.217,146.35,25.15z"/>
		<g>
			<g>
				
					<linearGradient id="SVGID_5_" gradientUnits="userSpaceOnUse" x1="-158.2358" y1="85.751" x2="-13.4355" y2="85.751" gradientTransform="matrix(6.906077e-006 -1 1 -0.001 -1.647736e-004 4.449275e-004)">
					<stop  offset="0.0431" style="stop-color:#BAA270"/>
					<stop  offset="1" style="stop-color:#73624A"/>
				</linearGradient>
				<path style="fill-rule:evenodd;clip-rule:evenodd;fill:url(#SVGID_5_);" d="M57.55,19.05c8.967-3.8,18.367-5.7,28.2-5.7
					c20,0,37.066,7.066,51.2,21.2c6.666,6.667,11.833,14.333,15.5,23c3.8,8.967,5.7,18.367,5.7,28.2c0,9.833-1.9,19.233-5.7,28.2
					c-3.667,8.667-8.834,16.333-15.5,23c-6.667,6.667-14.334,11.833-23,15.5c-8.967,3.8-18.367,5.7-28.2,5.7
					c-9.833,0-19.233-1.9-28.2-5.7c-8.667-3.667-16.333-8.833-23-15.5c-6.667-6.667-11.833-14.333-15.5-23
					c-3.8-8.967-5.7-18.367-5.7-28.2c0-9.833,1.9-19.233,5.7-28.2c3.667-8.667,8.833-16.333,15.5-23
					C41.217,27.883,48.883,22.717,57.55,19.05z"/>
			</g>
		</g>
	</g>
	<g>
		<g>
			
				<linearGradient id="SVGID_6_" gradientUnits="userSpaceOnUse" x1="-151.7339" y1="84.1758" x2="-19.3833" y2="84.1758" gradientTransform="matrix(7.555724e-006 -1 1 -0.001 2.190953e-004 4.449275e-004)">
				<stop  offset="0.0353" style="stop-color:#722F2A"/>
				<stop  offset="0.5843" style="stop-color:#E76267"/>
				<stop  offset="1" style="stop-color:#DCB574"/>
			</linearGradient>
			<path style="fill-rule:evenodd;clip-rule:evenodd;fill:url(#SVGID_6_);" d="M130.95,38.7
				c12.934,12.933,19.399,28.517,19.399,46.75c0,18.267-6.466,33.866-19.399,46.8s-28.533,19.4-46.8,19.4
				c-18.233,0-33.816-6.467-46.75-19.4C24.467,119.283,18,103.684,18,85.45s6.467-33.817,19.4-46.75
				c12.934-12.934,28.517-19.4,46.75-19.4C102.384,19.3,117.983,25.767,130.95,38.7z"/>
			<path style="fill-rule:evenodd;clip-rule:evenodd;fill:#1C3330;" d="M130.35,39.25c-12.733-12.767-28.133-19.15-46.2-19.15
				c-18.033,0-33.433,6.383-46.2,19.15S18.8,67.417,18.8,85.45c0,18.066,6.384,33.467,19.15,46.2
				c12.767,12.767,28.167,19.149,46.2,19.149c18.067,0,33.466-6.383,46.2-19.149c12.767-12.733,19.15-28.134,19.15-46.2
				C149.5,67.417,143.116,52.017,130.35,39.25z M22.25,59.8c3.367-8.133,8.217-15.366,14.55-21.7
				c6.333-6.333,13.567-11.184,21.7-14.55c8.167-3.4,16.717-5.1,25.65-5.1s17.484,1.7,25.65,5.1
				c8.167,3.367,15.417,8.217,21.75,14.55c6.334,6.333,11.184,13.566,14.55,21.7c3.367,8.134,5.051,16.684,5.051,25.65
				s-1.684,17.517-5.051,25.649c-3.366,8.167-8.216,15.417-14.55,21.75c-6.333,6.334-13.583,11.184-21.75,14.551
				c-8.166,3.399-16.717,5.1-25.65,5.1s-17.483-1.7-25.65-5.1c-8.133-3.367-15.367-8.217-21.7-14.551
				c-6.333-6.333-11.183-13.583-14.55-21.75c-3.4-8.166-5.1-16.716-5.1-25.649S18.85,67.967,22.25,59.8z"/>
		</g>
		
			<use xlink:href="#FlashAICB_x2F_Layer_22_x2F__x3C_Path_x3E__x5F_1"  width="118.85" height="118.65" y="-118.65" transform="matrix(1 0 0 -1 24.75 24)" style="overflow:visible;opacity:0.9102;enable-background:new    ;"/>
		<g>
			<path style="fill-rule:evenodd;clip-rule:evenodd;fill:#F7D7C8;" d="M100.65,37.2h-2c-0.767,0-1.351-0.25-1.75-0.75
				c-0.367-0.434-0.551-0.967-0.551-1.6s0.2-1.167,0.601-1.6c0.434-0.5,1-0.75,1.7-0.75h4.8c0.733,0,1.3,0.233,1.7,0.7
				c0.399,0.433,0.6,1,0.6,1.7v19.35c0,0.833-0.25,1.483-0.75,1.95c-0.467,0.466-1.066,0.7-1.8,0.7s-1.334-0.233-1.8-0.7
				c-0.5-0.467-0.75-1.117-0.75-1.95V37.2z"/>
			
				<linearGradient id="SVGID_7_" gradientUnits="userSpaceOnUse" x1="-56.9385" y1="101.0527" x2="-31.9635" y2="101.0527" gradientTransform="matrix(4.004004e-005 -1 1 -0.001 -1.024090e-004 4.449275e-004)">
				<stop  offset="0.2902" style="stop-color:#2F0102"/>
				<stop  offset="1" style="stop-color:#D2060E"/>
			</linearGradient>
			<path style="fill-rule:evenodd;clip-rule:evenodd;fill:url(#SVGID_7_);" d="M100.65,36.05h-2c-0.767,0-1.351-0.25-1.75-0.75
				c-0.367-0.433-0.551-0.966-0.551-1.6c0-0.634,0.2-1.167,0.601-1.6c0.434-0.5,1-0.75,1.7-0.75h4.8c0.733,0,1.3,0.233,1.7,0.7
				c0.399,0.434,0.6,1.017,0.6,1.75v19.3c0,0.833-0.25,1.5-0.75,2c-0.467,0.466-1.066,0.7-1.8,0.7s-1.334-0.233-1.8-0.7
				c-0.5-0.5-0.75-1.167-0.75-2V36.05z"/>
		</g>
		<g>
			<path style="fill-rule:evenodd;clip-rule:evenodd;fill:#F7D7C8;" d="M60,39.8c0-2.1,0.8-3.917,2.4-5.45
				c1.6-1.5,3.45-2.25,5.55-2.25c2.133,0,3.917,0.633,5.35,1.9c1.467,1.333,2.2,3.05,2.2,5.15c0,2-1,4.317-3,6.95
				c-1.1,1.5-2.816,3.533-5.15,6.1h6.25c1.767,0,2.65,0.75,2.65,2.25s-0.816,2.25-2.45,2.25H62.45c-1.767,0-2.65-0.75-2.65-2.25
				c0-0.567,0.25-1.134,0.75-1.7c1.934-2.2,3.384-3.85,4.35-4.95c1.733-2,3.117-3.75,4.15-5.25c0.767-1.1,1.15-2.15,1.15-3.15
				c0-0.7-0.233-1.3-0.7-1.8c-0.467-0.534-1.05-0.8-1.75-0.8c-1.333,0-2.283,0.917-2.85,2.75c-0.566,1.833-1.383,2.75-2.45,2.75
				c-0.767,0-1.367-0.25-1.8-0.75C60.217,41.083,60,40.5,60,39.8z"/>
			
				<linearGradient id="SVGID_8_" gradientUnits="userSpaceOnUse" x1="-56.9058" y1="68.0278" x2="-31.9308" y2="68.0278" gradientTransform="matrix(4.004004e-005 -1 1 -0.001 -1.024090e-004 4.449275e-004)">
				<stop  offset="0.2902" style="stop-color:#2F0102"/>
				<stop  offset="1" style="stop-color:#D2060E"/>
			</linearGradient>
			<path style="fill-rule:evenodd;clip-rule:evenodd;fill:url(#SVGID_8_);" d="M60,38.7c0-2.134,0.8-3.967,2.4-5.5
				c1.6-1.5,3.45-2.25,5.55-2.25c2.167,0,3.95,0.633,5.35,1.9c1.467,1.333,2.2,3.066,2.2,5.2c0,1.967-1,4.267-3,6.9
				c-1.1,1.5-2.816,3.55-5.15,6.15h6.25c1.767,0,2.65,0.75,2.65,2.25c0,0.733-0.25,1.3-0.75,1.7c-0.433,0.333-1,0.5-1.7,0.5H62.45
				c-1.767,0-2.65-0.733-2.65-2.2c0-0.6,0.25-1.184,0.75-1.75c1.934-2.2,3.384-3.85,4.35-4.95c1.7-1.966,3.083-3.7,4.15-5.2
				c0.767-1.134,1.15-2.2,1.15-3.2c0-0.7-0.233-1.3-0.7-1.8c-0.467-0.534-1.05-0.8-1.75-0.8c-1.333,0-2.283,0.917-2.85,2.75
				c-0.566,1.833-1.383,2.75-2.45,2.75c-0.767,0-1.367-0.25-1.8-0.75C60.217,39.967,60,39.4,60,38.7z"/>
		</g>
		<g>
			<path style="fill-rule:evenodd;clip-rule:evenodd;fill:#F7D7C8;" d="M93.75,34.65c0,1.7-0.783,2.55-2.35,2.55H85l-0.5,3.6
				c1.233-0.233,2.083-0.35,2.55-0.35c2.033,0,3.717,0.716,5.05,2.15c1.301,1.367,1.95,3.066,1.95,5.1c0,2.9-0.767,5.167-2.3,6.8
				c-1.566,1.733-3.8,2.6-6.7,2.6c-1.5,0-3.033-0.383-4.6-1.15c-1.9-0.934-2.85-2.067-2.85-3.4c0-0.633,0.233-1.167,0.7-1.6
				c0.434-0.467,0.967-0.7,1.6-0.7c0.367,0,1.133,0.367,2.3,1.1c1.133,0.7,2.117,1.05,2.95,1.05c1.133,0,2.033-0.466,2.699-1.4
				c0.601-0.867,0.9-1.883,0.9-3.05c0-1.034-0.283-1.85-0.85-2.45c-0.567-0.633-1.367-0.95-2.4-0.95c-0.667,0-1.35,0.184-2.05,0.55
				c-0.733,0.367-1.383,0.55-1.95,0.55c-0.6,0-1.1-0.183-1.5-0.55c-0.333-0.333-0.5-0.684-0.5-1.05l0.95-8.3
				c0.167-1.3,0.45-2.167,0.85-2.6c0.367-0.433,0.967-0.65,1.8-0.65h8.2c0.767,0,1.367,0.2,1.8,0.6
				C93.533,33.5,93.75,34.017,93.75,34.65z"/>
			
				<linearGradient id="SVGID_9_" gradientUnits="userSpaceOnUse" x1="-56.9233" y1="85.8281" x2="-31.9483" y2="85.8281" gradientTransform="matrix(4.004004e-005 -1 1 -0.001 -1.024090e-004 4.449275e-004)">
				<stop  offset="0.2902" style="stop-color:#2F0102"/>
				<stop  offset="1" style="stop-color:#D2060E"/>
			</linearGradient>
			<path style="fill-rule:evenodd;clip-rule:evenodd;fill:url(#SVGID_9_);" d="M85,36.05l-0.5,3.6c1.233-0.233,2.083-0.35,2.55-0.35
				c2.033,0,3.717,0.717,5.05,2.15c1.301,1.4,1.95,3.1,1.95,5.1c0,2.9-0.767,5.184-2.3,6.85c-1.566,1.733-3.8,2.6-6.7,2.6
				c-1.5,0-3.033-0.383-4.6-1.15c-1.9-0.934-2.85-2.067-2.85-3.4c0-0.634,0.233-1.184,0.7-1.65c0.434-0.466,0.967-0.7,1.6-0.7
				c0.367,0,1.133,0.367,2.3,1.1c1.133,0.733,2.117,1.1,2.95,1.1c1.133,0,2.033-0.466,2.699-1.4c0.601-0.867,0.9-1.883,0.9-3.05
				c0-1.034-0.283-1.867-0.85-2.5c-0.567-0.633-1.367-0.95-2.4-0.95c-0.667,0-1.35,0.184-2.05,0.55
				c-0.733,0.366-1.383,0.55-1.95,0.55c-0.6,0-1.1-0.184-1.5-0.55c-0.333-0.333-0.5-0.667-0.5-1l0.95-8.35
				c0.167-1.3,0.45-2.167,0.85-2.6c0.367-0.434,0.967-0.65,1.8-0.65h8.2c0.767,0,1.367,0.216,1.8,0.65
				c0.434,0.367,0.65,0.867,0.65,1.5c0,1.7-0.783,2.55-2.35,2.55H85z"/>
		</g>
		<g>
			<path style="fill-rule:evenodd;clip-rule:evenodd;fill:#F5F5F5;" d="M109.35,87.15l0.051,4.8c0,0.666-0.101,1.283-0.301,1.85
				l2.801,18.45l0.05,0.9c-0.233,1.333-0.367,2.083-0.4,2.25l0.05,4.449v0.2c0,1.5-0.55,2.884-1.649,4.15l-0.3,0.8
				c-0.2,0.6-0.567,1.167-1.101,1.7c-0.5,0.433-1.017,0.783-1.55,1.05l-0.2,0.1c-1.1,0.5-2.316,0.75-3.649,0.75l-1-0.05
				c-1.2,0.367-2.434,0.667-3.7,0.9c-0.3,0.7-0.65,1.233-1.05,1.6c-0.434,0.434-0.967,0.8-1.601,1.101l-0.149,0.1l-0.801,0.3
				l0.2,0.601c0.2,0.933,0.117,1.833-0.25,2.699c-0.366,0.867-0.967,1.551-1.8,2.051l-5.1,3.199
				c-0.967,0.667-1.684,1.117-2.15,1.351c-0.7,0.333-1.433,0.5-2.2,0.5H83.2c-1.567-0.167-2.717-0.351-3.45-0.55L78.4,142
				l-0.05-0.05l-6.9-2.2c-1-0.3-4.733-1.583-11.2-3.85l-4.4-1.75c-0.533-0.233-1.467-0.967-2.8-2.2c-1.1-1-1.7-1.533-1.8-1.601
				c-1.333-0.899-2.617-3.217-3.85-6.949c-0.4-1.233-0.316-2.417,0.25-3.551l1.4-2.649c0.733-1.367,1.884-2.134,3.45-2.3l0.4-0.101
				l0.1-0.05c1.067-0.566,2.283-1.083,3.65-1.55c0.4-0.267,0.9-0.434,1.5-0.5c0.6-0.167,1.267-0.167,2,0l0.25,0.05l0.05-0.45
				c1.767-11.733,2.75-18.133,2.95-19.2c-0.1-0.399-0.15-0.783-0.15-1.149v-4.5l0.05-0.55c0.233-1.834,1.317-3.25,3.25-4.25
				l0.1-0.15c-0.033-1.066,0.217-2.233,0.75-3.5c0.9-1.867,2.233-3.1,4-3.7c1.4-1.8,2.967-3.366,4.7-4.7v-4.05
				c0-0.767,0.2-1.517,0.6-2.25c1.3-2.433,4.517-3.65,9.649-3.65c5.767,0,9.101,1.5,10,4.5c0.134,0.4,0.2,0.684,0.2,0.85l0.05,0.6v4
				c3.767,2.966,7.034,7.167,9.801,12.6C108.167,84.2,109.15,85.517,109.35,87.15z"/>
			
				<linearGradient id="SVGID_10_" gradientUnits="userSpaceOnUse" x1="-142.1826" y1="79.5522" x2="-59.8857" y2="79.5522" gradientTransform="matrix(1.215067e-005 -1 1 -0.001 -1.273452e-004 4.449275e-004)">
				<stop  offset="0" style="stop-color:#EB756E"/>
				<stop  offset="0.4314" style="stop-color:#E78267"/>
				<stop  offset="0.6078" style="stop-color:#EC7D6F"/>
				<stop  offset="0.8941" style="stop-color:#E9946C"/>
				<stop  offset="0.9608" style="stop-color:#F0AC81"/>
				<stop  offset="1" style="stop-color:#F6BD8E"/>
			</linearGradient>
			<path style="fill-rule:evenodd;clip-rule:evenodd;fill:url(#SVGID_10_);" d="M109.35,86.3l0.051,4.8
				c0,0.667-0.101,1.284-0.301,1.851l2.801,18.45l0.05,0.85c-0.233,1.434-0.367,2.2-0.4,2.3l0.05,4.45v0.2
				c0,1.467-0.55,2.833-1.649,4.1l-0.3,0.8c-0.2,0.667-0.567,1.233-1.101,1.7c-0.333,0.333-0.85,0.7-1.55,1.101l-0.2,0.1
				c-1.133,0.467-2.35,0.7-3.649,0.7c-0.434,0-0.767-0.017-1-0.05c-1.467,0.467-2.7,0.783-3.7,0.949
				c-0.267,0.634-0.617,1.167-1.05,1.601c-0.5,0.433-1.034,0.8-1.601,1.1l-0.149,0.05c-0.267,0.167-0.534,0.268-0.801,0.301
				l0.2,0.649c0.2,0.934,0.117,1.833-0.25,2.7c-0.366,0.867-0.967,1.55-1.8,2.05l-5.1,3.2c-0.967,0.667-1.684,1.117-2.15,1.35
				c-0.7,0.334-1.433,0.5-2.2,0.5H83.2c-1.567-0.166-2.717-0.35-3.45-0.55l-1.35-0.45h-0.05l-6.9-2.199
				c-3.067-0.967-6.8-2.268-11.2-3.9l-0.6-0.15l-1.3-0.5l-0.6-0.3l-1.9-0.75c-0.467-0.2-1.4-0.95-2.8-2.25l-1.8-1.55
				c-1.333-0.9-2.617-3.217-3.85-6.95c-0.4-1.233-0.316-2.433,0.25-3.6l1.4-2.601c0.767-1.399,1.917-2.183,3.45-2.35l0.4-0.05
				l0.1-0.05c0.733-0.434,1.95-0.967,3.65-1.601c0.367-0.2,0.867-0.366,1.5-0.5c0.7-0.133,1.367-0.133,2,0l0.25,0.101l0.05-0.5
				c1.8-11.934,2.783-18.334,2.95-19.2c-0.1-0.334-0.15-0.7-0.15-1.101v-4.55l0.05-0.5c0.233-1.833,1.317-3.25,3.25-4.25l0.1-0.2
				c-0.033-1.034,0.217-2.184,0.75-3.45c0.867-1.833,2.2-3.083,4-3.75c1.4-1.733,2.967-3.3,4.7-4.7v-4.05c0-0.733,0.2-1.466,0.6-2.2
				c1.3-2.434,4.517-3.65,9.649-3.65c5.767,0,9.101,1.5,10,4.5c0.134,0.333,0.2,0.617,0.2,0.85l0.05,0.6v4
				c3.801,2.934,7.067,7.133,9.801,12.6C108.167,83.35,109.15,84.667,109.35,86.3z"/>
			<g>
				<g>
					<g>
						<path style="fill-rule:evenodd;clip-rule:evenodd;fill:#645139;" d="M100.65,111.95c4.066,0.8,6.1,1.733,6.1,2.8
							c0,1.233-1.8,2.383-5.4,3.45c-4.1,1.2-9.216,1.8-15.35,1.8c-6.033,0-11.1-0.6-15.2-1.8c-3.667-1.067-5.5-2.217-5.5-3.45
							c0-1.066,2.017-2,6.05-2.8c4.066-0.767,8.95-1.15,14.65-1.15S96.583,111.184,100.65,111.95z"/>
						<g>
							
								<radialGradient id="SVGID_11_" cx="84.1748" cy="105.3496" r="22.4774" gradientTransform="matrix(1 0 0 -0.7362 0 182.9108)" gradientUnits="userSpaceOnUse">
								<stop  offset="0" style="stop-color:#FFFFFF"/>
								<stop  offset="0.2275" style="stop-color:#F6E88C"/>
								<stop  offset="0.3686" style="stop-color:#F1D945"/>
								<stop  offset="0.9804" style="stop-color:#F0B644;stop-opacity:0"/>
							</radialGradient>
							<path style="fill-rule:evenodd;clip-rule:evenodd;fill:url(#SVGID_11_);" d="M110,105.35c0,4.934-2.517,9.15-7.55,12.65
								s-11.117,5.25-18.25,5.25c-7.133,0-13.233-1.75-18.3-5.25c-5.033-3.467-7.55-7.684-7.55-12.65
								c0-4.933,2.517-9.149,7.55-12.649c5.067-3.5,11.167-5.25,18.3-5.25c7.133,0,13.217,1.75,18.25,5.25S110,100.417,110,105.35z"
								/>
							
								<radialGradient id="SVGID_12_" cx="75.6001" cy="102.0498" r="9.7625" gradientTransform="matrix(1 0 0 -0.9667 0 200.7023)" gradientUnits="userSpaceOnUse">
								<stop  offset="0" style="stop-color:#FFFFFF"/>
								<stop  offset="0.2275" style="stop-color:#F6E88C"/>
								<stop  offset="0.3686" style="stop-color:#F1D945"/>
								<stop  offset="0.9804" style="stop-color:#F0B644;stop-opacity:0"/>
							</radialGradient>
							<path style="fill-rule:evenodd;clip-rule:evenodd;fill:url(#SVGID_12_);" d="M85.4,102.05c0,2.634-0.95,4.867-2.851,6.7
								c-1.933,1.833-4.25,2.75-6.95,2.75c-2.7,0-5-0.917-6.9-2.75c-1.9-1.833-2.85-4.066-2.85-6.7c0-2.6,0.95-4.816,2.85-6.649
								c1.9-1.867,4.2-2.801,6.9-2.801c2.7,0,5.017,0.934,6.95,2.801C84.45,97.233,85.4,99.45,85.4,102.05z"/>
							
								<radialGradient id="SVGID_13_" cx="92.4004" cy="103.5996" r="9.7625" gradientTransform="matrix(1 0 0 -0.9667 0 203.7503)" gradientUnits="userSpaceOnUse">
								<stop  offset="0" style="stop-color:#FFFFFF"/>
								<stop  offset="0.2275" style="stop-color:#F6E88C"/>
								<stop  offset="0.3686" style="stop-color:#F1D945"/>
								<stop  offset="0.9804" style="stop-color:#F0B644;stop-opacity:0"/>
							</radialGradient>
							<path style="fill-rule:evenodd;clip-rule:evenodd;fill:url(#SVGID_13_);" d="M99.3,96.95c1.9,1.833,2.851,4.05,2.851,6.649
								c0,2.634-0.95,4.867-2.851,6.7c-1.899,1.833-4.2,2.75-6.899,2.75c-2.7,0-5-0.917-6.9-2.75c-1.933-1.833-2.9-4.066-2.9-6.7
								c0-2.6,0.967-4.816,2.9-6.649c1.9-1.867,4.2-2.8,6.9-2.8C95.1,94.15,97.4,95.083,99.3,96.95z"/>
							
								<radialGradient id="SVGID_14_" cx="83.9502" cy="108.4004" r="9.7625" gradientTransform="matrix(1 0 0 -0.9667 0 213.1921)" gradientUnits="userSpaceOnUse">
								<stop  offset="0" style="stop-color:#FFFFFF"/>
								<stop  offset="0.2275" style="stop-color:#F6E88C"/>
								<stop  offset="0.3686" style="stop-color:#F1D945"/>
								<stop  offset="0.9804" style="stop-color:#F0B644;stop-opacity:0"/>
							</radialGradient>
							<path style="fill-rule:evenodd;clip-rule:evenodd;fill:url(#SVGID_14_);" d="M93.75,108.4c0,2.633-0.95,4.866-2.85,6.699
								c-1.934,1.834-4.25,2.75-6.95,2.75s-5-0.916-6.9-2.75c-1.9-1.833-2.85-4.066-2.85-6.699c0-2.601,0.95-4.817,2.85-6.65
								c1.9-1.833,4.2-2.75,6.9-2.75s5.017,0.917,6.95,2.75C92.8,103.583,93.75,105.8,93.75,108.4z"/>
						</g>
						<path style="fill-rule:evenodd;clip-rule:evenodd;fill:#5D584B;" d="M102,86.3c1.967,0.5,2.983,1,3.05,1.5
							c-1.133,2.167-2.2,3.417-3.2,3.75C100.45,91.983,98.4,92.4,95.7,92.8c-4,0.601-7.967,0.9-11.9,0.9c-4.1,0-8-0.834-11.7-2.5
							c-3.3-1.5-4.883-2.733-4.75-3.7c0.133-0.767,1.967-1.417,5.5-1.95c2.9-0.433,5.85-0.667,8.85-0.7
							C91.3,84.816,98.066,85.3,102,86.3z"/>
						
							<radialGradient id="SVGID_15_" cx="82" cy="84.5" r="17.8875" gradientTransform="matrix(1 0 0 -0.9665 0 166.1656)" gradientUnits="userSpaceOnUse">
							<stop  offset="0" style="stop-color:#564D43"/>
							<stop  offset="0.7294" style="stop-color:#3A342C"/>
							<stop  offset="0.9333" style="stop-color:#312C25"/>
						</radialGradient>
						<path style="fill-rule:evenodd;clip-rule:evenodd;fill:url(#SVGID_15_);" d="M103.9,88.05v0.05
							c-1.634,1.134-4.15,2.034-7.551,2.7c-3.133,0.566-6.5,0.851-10.1,0.851c-3.5,0-6.816-0.301-9.95-0.9
							c-3.3-0.634-5.866-1.517-7.7-2.65v-0.05c1.066-2.5,2.533-5.066,4.4-7.7c3.8-5.233,7.8-8.117,12-8.65l0.3-0.05h0.25l0.55-0.05
							l1.051,0.05l0.35,0.05c4.2,0.533,8.184,3.417,11.95,8.65C101.35,82.983,102.833,85.55,103.9,88.05z"/>
						<path style="fill-rule:evenodd;clip-rule:evenodd;fill:#1C1A15;" d="M91.85,73.75c0,0.434-0.533,0.8-1.6,1.1
							c-1.066,0.3-2.366,0.45-3.9,0.45c-1.533,0-2.833-0.15-3.899-0.45c-1.067-0.3-1.6-0.667-1.6-1.1s0.533-0.8,1.6-1.1
							c1.066-0.3,2.367-0.45,3.899-0.45c1.534,0,2.834,0.15,3.9,0.45C91.316,72.95,91.85,73.316,91.85,73.75z"/>
						
							<linearGradient id="SVGID_16_" gradientUnits="userSpaceOnUse" x1="59.6143" y1="-99.0645" x2="69.8477" y2="-99.0645" gradientTransform="matrix(-0.2712 0.9625 -0.9781 -0.2159 -5.269945e-004 1.026094e-004)">
							<stop  offset="0" style="stop-color:#969489"/>
							<stop  offset="0.9882" style="stop-color:#706E67"/>
						</linearGradient>
						<path style="fill-rule:evenodd;clip-rule:evenodd;fill:url(#SVGID_16_);" d="M84,84.75c-0.333,1.566-1.117,2.783-2.35,3.65
							c-1.233,0.833-2.533,1.066-3.9,0.699c-1.3-0.399-2.233-1.267-2.8-2.6c-0.567-1.3-0.633-2.684-0.2-4.15
							c0.434-1.367,1.217-2.434,2.35-3.2s2.3-1.017,3.5-0.75c1.267,0.267,2.233,1.017,2.9,2.25S84.333,83.25,84,84.75z"/>
						<g>
							<path style="fill-rule:evenodd;clip-rule:evenodd;fill:#312D26;" d="M80.4,78.4c-1.767,0.2-3.033,0.8-3.8,1.8
								c-0.833,1.133-1.3,2.417-1.4,3.85c-0.067,1.767,0.566,3.233,1.9,4.4c0.767,0.7,2.083,0.8,3.95,0.3
								c-1.1,0.533-2.2,0.65-3.3,0.35c-1.3-0.399-2.233-1.267-2.8-2.6c-0.567-1.3-0.633-2.684-0.2-4.15
								c0.434-1.333,1.184-2.367,2.25-3.1C78.067,78.483,79.2,78.2,80.4,78.4z"/>
						</g>
						
							<linearGradient id="SVGID_17_" gradientUnits="userSpaceOnUse" x1="57.353" y1="-100.7383" x2="65.6003" y2="-100.7383" gradientTransform="matrix(-0.2971 0.9549 -0.9715 -0.2437 8.165538e-004 -1.243651e-004)">
							<stop  offset="0" style="stop-color:#BDBAAC"/>
							<stop  offset="0.9882" style="stop-color:#74736C"/>
						</linearGradient>
						<path style="fill-rule:evenodd;clip-rule:evenodd;fill:url(#SVGID_17_);" d="M83.25,84.2c-0.333,1.2-1,2.116-2,2.75
							c-0.967,0.633-1.983,0.783-3.05,0.45c-1-0.334-1.717-1-2.15-2c-0.4-1.033-0.417-2.117-0.05-3.25
							c0.367-1.066,1.017-1.867,1.95-2.4c0.933-0.566,1.867-0.733,2.8-0.5c1,0.233,1.75,0.833,2.25,1.8
							C83.5,82.017,83.583,83.066,83.25,84.2z"/>
						<g>
							
								<linearGradient id="SVGID_18_" gradientUnits="userSpaceOnUse" x1="89.4844" y1="-60.9463" x2="93.826" y2="-60.9463" gradientTransform="matrix(0.1382 0.9904 -0.9904 0.1382 -1.912564e-004 6.890297e-005)">
								<stop  offset="0" style="stop-color:#211D1A"/>
								<stop  offset="0.9882" style="stop-color:#332D28"/>
							</linearGradient>
							<path style="fill-rule:evenodd;clip-rule:evenodd;fill:url(#SVGID_18_);" d="M74.1,80.1c0.333,0.167,0.517,0.517,0.55,1.05
								c0.034,0.534-0.1,1.117-0.4,1.75s-0.683,1.1-1.15,1.4c-0.434,0.333-0.817,0.417-1.15,0.25
								c-0.333-0.133-0.517-0.483-0.55-1.05c-0.033-0.533,0.1-1.117,0.4-1.75c0.3-0.6,0.684-1.066,1.15-1.4
								C73.383,80.05,73.767,79.967,74.1,80.1z"/>
							<path style="fill-rule:evenodd;clip-rule:evenodd;fill:#77786C;" d="M73.75,79.95h0.05c0.333,0.167,0.517,0.483,0.55,0.95
								c0.066,0.467-0.033,0.983-0.3,1.55c-0.267,0.533-0.616,0.95-1.05,1.25c-0.4,0.267-0.767,0.316-1.1,0.15h-0.05l-0.5-0.25
								l1.9-3.9L73.75,79.95z"/>
							
								<linearGradient id="SVGID_19_" gradientUnits="userSpaceOnUse" x1="54.7344" y1="-93.2559" x2="58.4509" y2="-93.2559" gradientTransform="matrix(-0.296 0.9552 -0.9552 -0.296 -6.725490e-004 -1.254082e-004)">
								<stop  offset="0" style="stop-color:#E5E2D2"/>
								<stop  offset="0.9882" style="stop-color:#D0CEBF"/>
							</linearGradient>
							<path style="fill-rule:evenodd;clip-rule:evenodd;fill:url(#SVGID_19_);" d="M73.25,79.7c0.333,0.167,0.517,0.483,0.55,0.95
								c0.067,0.5-0.033,1.017-0.3,1.55c-0.267,0.533-0.617,0.95-1.05,1.25c-0.4,0.267-0.767,0.316-1.1,0.15
								c-0.333-0.133-0.517-0.434-0.55-0.9c-0.033-0.5,0.083-1.017,0.35-1.55c0.267-0.533,0.6-0.95,1-1.25
								C72.55,79.633,72.917,79.566,73.25,79.7z"/>
						</g>
						<g>
							
								<linearGradient id="SVGID_20_" gradientUnits="userSpaceOnUse" x1="116.9912" y1="-62.8921" x2="123.8016" y2="-62.8921" gradientTransform="matrix(0.2606 0.9654 -0.8977 0.5116 -4.794300e-004 5.382299e-005)">
								<stop  offset="0" style="stop-color:#211D1A"/>
								<stop  offset="0.9882" style="stop-color:#332D28"/>
							</linearGradient>
							<path style="fill-rule:evenodd;clip-rule:evenodd;fill:url(#SVGID_20_);" d="M88.45,81.2c0.6,0.133,1.05,0.517,1.35,1.15
								c0.334,0.667,0.417,1.383,0.25,2.15c-0.166,0.767-0.533,1.4-1.1,1.9c-0.533,0.466-1.101,0.633-1.7,0.5
								c-0.6-0.134-1.066-0.517-1.4-1.15c-0.3-0.633-0.366-1.333-0.199-2.1c0.166-0.8,0.533-1.433,1.1-1.9
								C87.283,81.283,87.85,81.1,88.45,81.2z"/>
							<path style="fill-rule:evenodd;clip-rule:evenodd;fill:#77786C;" d="M89.5,82.15c0.333,0.567,0.417,1.217,0.25,1.95
								c-0.134,0.7-0.467,1.267-1,1.7c-0.533,0.4-1.083,0.55-1.65,0.45l-0.05-0.05l-0.95-0.15L87.2,80.9l0.85,0.2h0.15
								C88.767,81.233,89.2,81.583,89.5,82.15z"/>
							
								<linearGradient id="SVGID_21_" gradientUnits="userSpaceOnUse" x1="89.3486" y1="-99.6289" x2="95.1519" y2="-99.6289" gradientTransform="matrix(-0.1637 0.9865 -1.0261 0.0748 7.826388e-004 4.119575e-004)">
								<stop  offset="0" style="stop-color:#E5E2D2"/>
								<stop  offset="0.9882" style="stop-color:#D0CEBF"/>
							</linearGradient>
							<path style="fill-rule:evenodd;clip-rule:evenodd;fill:url(#SVGID_21_);" d="M87.65,81c0.566,0.1,1,0.45,1.3,1.05
								c0.333,0.567,0.416,1.2,0.25,1.9c-0.167,0.7-0.5,1.267-1,1.7s-1.033,0.583-1.601,0.45c-0.566-0.133-1-0.483-1.3-1.05
								c-0.3-0.566-0.383-1.2-0.25-1.9c0.167-0.733,0.5-1.3,1-1.7C86.55,81.017,87.083,80.867,87.65,81z"/>
						</g>
						<linearGradient id="SVGID_22_" gradientUnits="userSpaceOnUse" x1="80.3501" y1="68.7998" x2="92.1504" y2="68.7998">
							<stop  offset="0" style="stop-color:#7AAAB5;stop-opacity:0.6196"/>
							<stop  offset="0.3255" style="stop-color:#7AAAB5;stop-opacity:0.4275"/>
							<stop  offset="0.9333" style="stop-color:#7AAAB5;stop-opacity:0.6196"/>
						</linearGradient>
						<path style="fill-rule:evenodd;clip-rule:evenodd;fill:url(#SVGID_22_);" d="M88.95,62.45l2.2,0.6l1,0.6v9.95
							c0,0.466-0.584,0.867-1.75,1.2c-1.134,0.333-2.517,0.5-4.15,0.5c-1.633,0-3.033-0.167-4.2-0.5c-1.133-0.333-1.7-0.733-1.7-1.2
							l0.05-0.25v-9.7l0.85-0.6l2.9-0.65l2.75-0.1L88.95,62.45z"/>
						<path style="fill-rule:evenodd;clip-rule:evenodd;fill:#FFFFFF;" d="M92.15,63.65v9.95c0,0.2-0.101,0.367-0.301,0.5V63.65
							H92.15z"/>
						<linearGradient id="SVGID_23_" gradientUnits="userSpaceOnUse" x1="87.625" y1="69.7002" x2="91.2744" y2="69.7002">
							<stop  offset="0" style="stop-color:#244047;stop-opacity:0.749"/>
							<stop  offset="0" style="stop-color:#2C484E;stop-opacity:0.7255"/>
							<stop  offset="0.0039" style="stop-color:#455D63;stop-opacity:0.6667"/>
							<stop  offset="0.0039" style="stop-color:#6C8084;stop-opacity:0.5725"/>
							<stop  offset="0.0078" style="stop-color:#A4B0B3;stop-opacity:0.4392"/>
							<stop  offset="0.0118" style="stop-color:#EAECED;stop-opacity:0.2706"/>
							<stop  offset="0.0118" style="stop-color:#FFFFFF;stop-opacity:0.2196"/>
							<stop  offset="0.9882" style="stop-color:#244047;stop-opacity:0.2196"/>
						</linearGradient>
						<path style="fill-rule:evenodd;clip-rule:evenodd;fill:url(#SVGID_23_);" d="M90.45,67.8c-0.033-0.9-0.417-1.616-1.15-2.15
							l-1.1-0.55l3.1-0.85V74.4c-0.967,0.467-2.184,0.717-3.649,0.75l0.649-0.2c1.3-0.167,2.05-1.134,2.25-2.9
							C90.55,72.017,90.517,70.6,90.45,67.8z"/>
						
							<linearGradient id="SVGID_24_" gradientUnits="userSpaceOnUse" x1="65.6533" y1="-84.3926" x2="74.5783" y2="-84.3926" gradientTransform="matrix(1.120448e-004 1 -1 -0.001 1.544944e-004 -4.429743e-005)">
							<stop  offset="0" style="stop-color:#FFFFFF;stop-opacity:0.7373"/>
							<stop  offset="1" style="stop-color:#FFFFFF;stop-opacity:0.2863"/>
						</linearGradient>
						<polygon style="fill-rule:evenodd;clip-rule:evenodd;fill:url(#SVGID_24_);" points="84.1,75.2 84.1,65 84.7,65.05 
							84.7,75.25 						"/>
						
							<linearGradient id="SVGID_25_" gradientUnits="userSpaceOnUse" x1="65.5679" y1="-82.3916" x2="74.5679" y2="-82.3916" gradientTransform="matrix(1.111111e-004 1 -1 -0.001 3.974738e-004 -4.429743e-005)">
							<stop  offset="0" style="stop-color:#FFFFFF;stop-opacity:0.7373"/>
							<stop  offset="1" style="stop-color:#FFFFFF;stop-opacity:0.2863"/>
						</linearGradient>
						<path style="fill-rule:evenodd;clip-rule:evenodd;fill:url(#SVGID_25_);" d="M81.15,74.45v-10.2l2.5,0.65v10.25
							C82.55,74.983,81.717,74.75,81.15,74.45z"/>
						<path style="fill-rule:evenodd;clip-rule:evenodd;fill:#FFFFFF;" d="M80.6,63.65V74.1c-0.167-0.133-0.25-0.3-0.25-0.5
							l0.05-0.25v-9.7H80.6z"/>
						<path style="fill-rule:evenodd;clip-rule:evenodd;fill:#D5EEF2;" d="M86.25,62.25c1.634,0,3.017,0.15,4.15,0.45
							c1.166,0.267,1.75,0.616,1.75,1.05s-0.584,0.783-1.75,1.05c-1.134,0.3-2.517,0.45-4.15,0.45c-1.633,0-3.017-0.15-4.15-0.45
							c-1.133-0.267-1.7-0.616-1.7-1.05s0.567-0.783,1.7-1.05C83.233,62.4,84.617,62.25,86.25,62.25z M86.3,64.9
							c1.5,0,2.783-0.117,3.851-0.35c1.066-0.267,1.6-0.566,1.6-0.9s-0.533-0.633-1.6-0.9C89.083,62.517,87.8,62.4,86.3,62.4
							c-1.533,0-2.833,0.117-3.9,0.35c-1.066,0.267-1.6,0.566-1.6,0.9c0,0.367,0.534,0.667,1.6,0.9
							C83.467,64.783,84.767,64.9,86.3,64.9z"/>
						<linearGradient id="SVGID_26_" gradientUnits="userSpaceOnUse" x1="64.5" y1="106.6992" x2="107.6504" y2="106.6992">
							<stop  offset="0" style="stop-color:#C1D7F0;stop-opacity:0.6196"/>
							<stop  offset="0.3255" style="stop-color:#99D6E3;stop-opacity:0.2196"/>
							<stop  offset="0.5412" style="stop-color:#A2D6E5;stop-opacity:0.302"/>
							<stop  offset="0.8902" style="stop-color:#B8D6ED;stop-opacity:0.5333"/>
							<stop  offset="1" style="stop-color:#C1D7F0;stop-opacity:0.6196"/>
						</linearGradient>
						<path style="fill-rule:evenodd;clip-rule:evenodd;fill:url(#SVGID_26_);" d="M102.3,91.1c0.367,0,0.733,0.483,1.101,1.45
							l0.6,0.25c0.4,0.267,0.634,0.55,0.7,0.851l2.95,18.8l-0.45,2.05c-0.566,1.434-1.467,2.417-2.7,2.95
							c-1.5,0.633-6.25,1.717-14.25,3.25v1.6l-4.2-0.8l-4.15,0.8v-1.6c-8-1.533-12.75-2.617-14.25-3.25
							c-1.233-0.533-2.133-1.517-2.7-2.95l-0.45-2.05l2.95-18.8c0.1-0.301,0.35-0.584,0.75-0.851l0.55-0.25
							c0.1-0.233,0.217-0.467,0.35-0.7c0.267-0.5,0.517-0.75,0.75-0.75l16.2,2.45L102.3,91.1z"/>
						
							<linearGradient id="SVGID_27_" gradientUnits="userSpaceOnUse" x1="95.7861" y1="-76.0195" x2="116.6611" y2="-76.0195" gradientTransform="matrix(4.790420e-005 1 -1 -0.001 -3.125619e-004 -4.335376e-005)">
							<stop  offset="0" style="stop-color:#FFFFFF;stop-opacity:0.7294"/>
							<stop  offset="1" style="stop-color:#FFFFFF;stop-opacity:0.0392"/>
						</linearGradient>
						<path style="fill-rule:evenodd;clip-rule:evenodd;fill:url(#SVGID_27_);" d="M85.5,97.5c-1.6,0.333-3.183,0.517-4.75,0.55
							c-2.233,0.033-3.583,0.083-4.05,0.15c-1.6,0.167-2.65,0.566-3.15,1.2c-0.533,0.732-1.017,3.017-1.45,6.85
							c-0.434,3.8-0.533,6.583-0.3,8.35c0.2,1.467,0.934,2.7,2.2,3.7c0.667,0.5,1.3,0.851,1.9,1.05l-5.1-1.25
							c-1.7-0.467-2.917-1.133-3.65-2c-0.333-0.399-0.533-1.149-0.6-2.25v-1.55L69.3,94.9l2.2,0.8c1.8,0.6,3.633,1.05,5.5,1.35
							C79.967,97.55,82.8,97.7,85.5,97.5z"/>
						
							<linearGradient id="SVGID_28_" gradientUnits="userSpaceOnUse" x1="80.1841" y1="88.999" x2="94.2739" y2="88.999" gradientTransform="matrix(0.9954 0.0958 -0.0958 0.9954 6.929040e-006 -2.044737e-004)">
							<stop  offset="0" style="stop-color:#FFFFFF;stop-opacity:0.3686"/>
							<stop  offset="0.8902" style="stop-color:#FFFFFF;stop-opacity:0.1255"/>
							<stop  offset="1" style="stop-color:#FFFFFF;stop-opacity:0.0392"/>
						</linearGradient>
						<path style="fill-rule:evenodd;clip-rule:evenodd;fill:url(#SVGID_28_);" d="M74.2,97.65c-1.633-0.268-2.934-0.801-3.9-1.601
							l-1-1.149l2.05,0.699c1.7,0.567,3.4,1,5.1,1.301c2.7,0.533,5.716,0.732,9.05,0.6c-0.9,0.2-2.05,0.35-3.45,0.45
							C79.283,98.184,76.667,98.083,74.2,97.65z"/>
						<path style="fill-rule:evenodd;clip-rule:evenodd;fill:#FFFFFF;" d="M73.75,96.45c0.2,0.033,0.9,0.2,2.1,0.5
							c0.833,0.2,1.383,0.3,1.65,0.3c0.333,0.033,0.383,0.15,0.15,0.35c-0.233,0.233-0.617,0.351-1.15,0.351
							c-0.6,0.033-1.383-0.083-2.35-0.351c-1.033-0.267-1.633-0.517-1.8-0.75c-0.167-0.199-0.083-0.333,0.25-0.399
							C72.867,96.383,73.25,96.383,73.75,96.45z"/>
						<path style="fill-rule:evenodd;clip-rule:evenodd;fill:#FFFFFF;" d="M81.8,97.55c0.267,0.033,0.483,0.083,0.65,0.15
							c0.133,0.1,0.133,0.167,0,0.2c-0.4,0.166-0.883,0.183-1.45,0.05c-0.233-0.067-0.25-0.15-0.05-0.25
							C81.15,97.6,81.434,97.55,81.8,97.55z"/>
						<g>
							
								<linearGradient id="SVGID_29_" gradientUnits="userSpaceOnUse" x1="112.9658" y1="-74.6318" x2="134.8334" y2="-74.6318" gradientTransform="matrix(0.1886 0.982 -0.982 0.1886 -8.246303e-005 -3.731847e-004)">
								<stop  offset="0" style="stop-color:#FFFFFF;stop-opacity:0.349"/>
								<stop  offset="1" style="stop-color:#FFFFFF;stop-opacity:0.0392"/>
							</linearGradient>
							<path style="fill-rule:evenodd;clip-rule:evenodd;fill:url(#SVGID_29_);" d="M86.4,97.5l2.6,0.05
								c2.066-0.033,4.033-0.2,5.9-0.5c2.966-0.467,5.517-1.183,7.649-2.149l2.8,17.399v1.55c-0.066,1.101-0.267,1.851-0.6,2.25
								c-0.7,0.834-1.917,1.5-3.65,2l-5.149,1.25c0.6-0.199,1.233-0.55,1.899-1.05c1.301-1,2.051-2.233,2.25-3.7
								c0.267-1.767,0.167-4.55-0.3-8.35c-0.434-3.8-0.934-6.083-1.5-6.85c-0.467-0.634-1.5-1.033-3.1-1.2
								c-0.467-0.067-1.816-0.117-4.05-0.15c-0.967-0.033-2.051-0.133-3.25-0.3L86.4,97.5z"/>
							<path style="fill-rule:evenodd;clip-rule:evenodd;fill:#FFFFFF;" d="M99.55,96.3c0.467-0.133,0.867-0.183,1.2-0.149
								c0.3,0,0.3,0.083,0,0.25c-0.8,0.399-1.467,0.566-2,0.5c-0.167-0.033-0.184-0.101-0.05-0.2
								C98.866,96.566,99.15,96.434,99.55,96.3z"/>
						</g>
						<path style="fill-rule:evenodd;clip-rule:evenodd;fill:#69593E;" d="M102.1,92.15c1.434,0.066,2.184,0.366,2.25,0.899
							c0.101,0.667-1,1.434-3.3,2.3c-3.267,1.268-7.666,1.983-13.2,2.15c-5.233,0.167-9.666-0.184-13.3-1.05
							c-2.466-0.601-4.25-1.367-5.35-2.3l-0.9-1.25l13.6,1.149l9.2-1C97.467,92.384,101.134,92.083,102.1,92.15z"/>
						<g>
							<linearGradient id="SVGID_30_" gradientUnits="userSpaceOnUse" x1="66.7002" y1="122.7754" x2="74.4002" y2="122.7754">
								<stop  offset="0" style="stop-color:#2B2821"/>
								<stop  offset="0.3255" style="stop-color:#3B3630"/>
								<stop  offset="0.5451" style="stop-color:#312E28"/>
								<stop  offset="0.9059" style="stop-color:#191714"/>
								<stop  offset="0.9333" style="stop-color:#171512"/>
							</linearGradient>
							<path style="fill-rule:evenodd;clip-rule:evenodd;fill:url(#SVGID_30_);" d="M70.55,120.55l3.9-0.35l-1.7,4.45
								c-0.433,0.467-1.217,0.699-2.35,0.699c-0.7,0-1.233-0.116-1.6-0.35l-0.4-0.35l-1.7-4.45L70.55,120.55z"/>
							<path style="fill-rule:evenodd;clip-rule:evenodd;fill:#211F1B;" d="M72.25,125c-0.133-0.2-0.383-0.383-0.75-0.55
								c-0.5-0.167-0.867-0.317-1.1-0.45l-2.8-1.4l-0.9-2.399l3.85,0.35l3.9-0.35l-1.7,4.45C72.65,124.783,72.483,124.9,72.25,125z"
								/>
						</g>
						<g>
							<linearGradient id="SVGID_31_" gradientUnits="userSpaceOnUse" x1="88.25" y1="125.1504" x2="95.95" y2="125.1504">
								<stop  offset="0" style="stop-color:#2B2821"/>
								<stop  offset="0.3255" style="stop-color:#3B3630"/>
								<stop  offset="0.5451" style="stop-color:#312E28"/>
								<stop  offset="0.9059" style="stop-color:#191714"/>
								<stop  offset="0.9333" style="stop-color:#171512"/>
							</linearGradient>
							<path style="fill-rule:evenodd;clip-rule:evenodd;fill:url(#SVGID_31_);" d="M92.1,122.9L96,122.6l-1.7,4.45
								c-0.434,0.434-1.217,0.65-2.35,0.65c-0.7,0-1.233-0.101-1.601-0.3l-0.399-0.351l-1.7-4.45L92.1,122.9z"/>
							<path style="fill-rule:evenodd;clip-rule:evenodd;fill:#211F1B;" d="M93.8,127.4c-0.066-0.134-0.033-0.434,0.101-0.9
								c0.133-0.4,0.066-0.667-0.2-0.8c-0.2-0.101-0.851-0.134-1.95-0.101c-1.1,0-1.967-0.199-2.6-0.6l-0.9-2.4l3.85,0.301L96,122.6
								l-1.7,4.45L93.8,127.4z"/>
						</g>
						<g>
							<linearGradient id="SVGID_32_" gradientUnits="userSpaceOnUse" x1="99.5498" y1="120.8496" x2="107.2498" y2="120.8496">
								<stop  offset="0" style="stop-color:#2B2821"/>
								<stop  offset="0.3255" style="stop-color:#3B3630"/>
								<stop  offset="0.5451" style="stop-color:#312E28"/>
								<stop  offset="0.9059" style="stop-color:#191714"/>
								<stop  offset="0.9333" style="stop-color:#171512"/>
							</linearGradient>
							<path style="fill-rule:evenodd;clip-rule:evenodd;fill:url(#SVGID_32_);" d="M101.25,122.75l-1.7-4.45l3.851,0.351
								l3.899-0.351l-1.7,4.45c-0.433,0.434-1.216,0.65-2.35,0.65c-0.7,0-1.233-0.101-1.6-0.301L101.25,122.75z"/>
							<path style="fill-rule:evenodd;clip-rule:evenodd;fill:#211F1B;" d="M101.3,121.8c-0.434-0.667-0.717-1.033-0.85-1.1
								l-0.9-2.4l3.851,0.351l3.899-0.351l-1.7,4.45l-0.5,0.35c-0.1-0.166-0.5-0.199-1.199-0.1c-0.767,0.1-1.267,0.1-1.5,0
								C102.1,122.833,101.733,122.434,101.3,121.8z"/>
						</g>
						<linearGradient id="SVGID_33_" gradientUnits="userSpaceOnUse" x1="65.1499" y1="120.5625" x2="107.3496" y2="120.5625">
							<stop  offset="0" style="stop-color:#2B2821"/>
							<stop  offset="0.3255" style="stop-color:#3B3630"/>
							<stop  offset="0.6039" style="stop-color:#312E28"/>
							<stop  offset="0.9333" style="stop-color:#211E1A"/>
						</linearGradient>
						<path style="fill-rule:evenodd;clip-rule:evenodd;fill:url(#SVGID_33_);" d="M85.7,121.15c5.899,0,11-0.601,15.3-1.801
							c3.767-1.033,5.85-2.149,6.25-3.35v3.05l0.1,0.351c0,1.3-1.716,2.55-5.149,3.75c-4.233,1.5-9.733,2.25-16.5,2.25
							c-6.467,0-11.7-0.75-15.7-2.25c-3.233-1.2-4.85-2.45-4.85-3.75c0-0.033,0.017-0.233,0.05-0.601l-0.05,0.351v-3.426
							c0.025,1.191,1.809,2.35,5.35,3.476C74.6,120.5,79.667,121.15,85.7,121.15z"/>
						<linearGradient id="SVGID_34_" gradientUnits="userSpaceOnUse" x1="65.1499" y1="119.4746" x2="107.3496" y2="119.4746">
							<stop  offset="0" style="stop-color:#302C25"/>
							<stop  offset="0.3255" style="stop-color:#524C43"/>
							<stop  offset="0.549" style="stop-color:#49443B"/>
							<stop  offset="0.9176" style="stop-color:#312D26"/>
							<stop  offset="0.9333" style="stop-color:#302C25"/>
						</linearGradient>
						<path style="fill-rule:evenodd;clip-rule:evenodd;fill:url(#SVGID_34_);" d="M85.7,119.7c5.866,0,10.967-0.601,15.3-1.8
							c3.767-1.033,5.85-2.134,6.25-3.301v4.4l0.1,0.25c0,1.2-1.85,2.35-5.55,3.45c-4.333,1.3-9.7,1.95-16.1,1.95
							c-6.233,0-11.367-0.65-15.4-1.95c-3.433-1.101-5.15-2.25-5.15-3.45l0.05-0.1l-0.05-0.051v-4.8
							c0.038,1.179,1.821,2.329,5.35,3.45C74.6,119.05,79.667,119.7,85.7,119.7z"/>
						<linearGradient id="SVGID_35_" gradientUnits="userSpaceOnUse" x1="67.3501" y1="92.1621" x2="105.0996" y2="92.1621">
							<stop  offset="0" style="stop-color:#302C25"/>
							<stop  offset="0.3255" style="stop-color:#524C43"/>
							<stop  offset="0.549" style="stop-color:#49443B"/>
							<stop  offset="0.9176" style="stop-color:#312D26"/>
							<stop  offset="0.9333" style="stop-color:#302C25"/>
						</linearGradient>
						<path style="fill-rule:evenodd;clip-rule:evenodd;fill:url(#SVGID_35_);" d="M105.05,87.8v3.95l0.05,0.2
							c0,1.066-1.666,2.1-5,3.1c-3.866,1.167-8.649,1.75-14.35,1.75c-5.566,0-10.167-0.583-13.8-1.75c-3.067-1-4.6-2.033-4.6-3.1
							l0.05-0.101h-0.05v-4.324c0.034,1.061,1.634,2.085,4.8,3.074c3.667,1.167,8.2,1.75,13.6,1.75c5.267,0,9.833-0.533,13.7-1.6
							C102.816,89.816,104.684,88.833,105.05,87.8z"/>
						<g>
							<path style="fill-rule:evenodd;clip-rule:evenodd;fill:#211F1B;" d="M91.65,120.05c-7.5,0.4-13.567,0.067-18.2-1
								c-3.233-0.767-5.6-1.833-7.1-3.2c1.433,1.033,3.717,1.9,6.85,2.601c3.667,0.833,7.833,1.25,12.5,1.25
								c5.866,0,10.967-0.601,15.3-1.8c3.767-1.033,5.85-2.134,6.25-3.301v4.4l0.1,0.25c0,0.434-0.3,0.867-0.899,1.3
								C105.217,119.783,100.283,119.617,91.65,120.05z"/>
						</g>
					</g>
					<g>
						
							<linearGradient id="SVGID_36_" gradientUnits="userSpaceOnUse" x1="82.8101" y1="105.8574" x2="94.1423" y2="105.8574" gradientTransform="matrix(0.9619 0.2736 -0.2736 0.9619 -3.195405e-004 3.169775e-004)">
							<stop  offset="0" style="stop-color:#A1BEDD"/>
							<stop  offset="1" style="stop-color:#778DA9"/>
						</linearGradient>
						<path style="fill-rule:evenodd;clip-rule:evenodd;fill:url(#SVGID_36_);" d="M57.25,124.85c0.934,1.934,2.1,3.817,3.5,5.65
							l-0.05,0.2l-2.95-1.15c-0.133-0.066-0.75-0.6-1.85-1.6c-1.133-1.033-1.85-1.65-2.15-1.851c-0.367-0.267-1.083-1.85-2.15-4.75
							C53.5,122.816,55.383,123.983,57.25,124.85z"/>
						
							<linearGradient id="SVGID_37_" gradientUnits="userSpaceOnUse" x1="82.8154" y1="100.0479" x2="95.7067" y2="100.0479" gradientTransform="matrix(0.9619 0.2734 -0.2734 0.9619 1.587272e-004 -2.646744e-004)">
							<stop  offset="0" style="stop-color:#D7E3F9;stop-opacity:0.6275"/>
							<stop  offset="1" style="stop-color:#ABC5F8;stop-opacity:0.6588"/>
						</linearGradient>
						<path style="fill-rule:evenodd;clip-rule:evenodd;fill:url(#SVGID_37_);" d="M53.1,122.6l-1.5-1.3l1.4-2.649
							c0.6,0.033,1.333-0.184,2.2-0.65c0.533-0.3,1.35-0.667,2.45-1.1c0.567-0.2,1.067-0.384,1.5-0.551l0.05,0.051l-0.8,2.399
							c-0.533,2-0.883,3.983-1.05,5.95l-0.5-0.1C55.617,124.217,54.367,123.533,53.1,122.6z"/>
						
							<linearGradient id="SVGID_38_" gradientUnits="userSpaceOnUse" x1="16.627" y1="138.8457" x2="26.6515" y2="138.8457" gradientTransform="matrix(0.9502 -0.3117 0.3117 0.9502 -6.052256e-004 -2.259612e-004)">
							<stop  offset="0" style="stop-color:#D8F4F9;stop-opacity:0.9176"/>
							<stop  offset="1" style="stop-color:#ABC5F8;stop-opacity:0.7765"/>
						</linearGradient>
						<path style="fill-rule:evenodd;clip-rule:evenodd;fill:url(#SVGID_38_);" d="M63.9,122.4c3.567,3.6,6.733,6.133,9.5,7.6
							c1.367,0.733,2.383,1.1,3.05,1.1l0.05,0.301l-1.25-0.25c-1.667-0.801-3.066-1.417-4.2-1.851c-1.466-0.6-3.667-1.3-6.6-2.1
							c-3-0.8-5.2-1.483-6.6-2.05l-0.7-0.25l-0.3-0.25c0-0.834,0.167-1.817,0.5-2.95l1.8-5.351
							C62.05,120.15,63.633,122.167,63.9,122.4z"/>
						
							<linearGradient id="SVGID_39_" gradientUnits="userSpaceOnUse" x1="16.5327" y1="140.7002" x2="26.7707" y2="140.7002" gradientTransform="matrix(0.9499 -0.3126 0.3126 0.9499 1.869798e-004 -4.842877e-005)">
							<stop  offset="0" style="stop-color:#D8F4F9"/>
							<stop  offset="1" style="stop-color:#ABC5F8"/>
						</linearGradient>
						<path style="fill-rule:evenodd;clip-rule:evenodd;fill:url(#SVGID_39_);" d="M63.85,123.2c1.867,0.533,3.7,0.866,5.5,1
							l7.25,6.05l-0.1,1.2c-5.633-2.134-11.933-4.2-18.9-6.2l-0.75-0.6c0-0.834,0.167-1.817,0.5-2.95l0.3-1.05
							C59.817,121.816,61.883,122.667,63.85,123.2z"/>
						<path style="fill-rule:evenodd;clip-rule:evenodd;fill:#FFFFFF;" d="M83.25,129.9l0.65-2.351c-3.333-1.633-5.3-2.7-5.9-3.2
							l-6.6-4.5l12.4,3.25c0.7,0.167,1.367,0.217,2,0.15l-0.35,7.15l-0.3-0.25c-0.034-0.134-0.4-0.101-1.101,0.1
							C83.417,130.45,83.15,130.333,83.25,129.9z"/>
						
							<linearGradient id="SVGID_40_" gradientUnits="userSpaceOnUse" x1="114.4199" y1="100.3262" x2="119.4611" y2="100.3262" gradientTransform="matrix(0.9621 0.2728 -0.2728 0.9621 -2.811551e-004 1.914203e-004)">
							<stop  offset="0" style="stop-color:#D8F4F9"/>
							<stop  offset="1" style="stop-color:#ABC5F8"/>
						</linearGradient>
						<path style="fill-rule:evenodd;clip-rule:evenodd;fill:url(#SVGID_40_);" d="M86.5,131.7c-2.133,1-3.316,1.483-3.55,1.45
							c-0.133-0.033-0.434-0.2-0.9-0.5l-0.6-0.45c0.7-1.267,1.3-2.417,1.8-3.45l2.55-5.5l0.3,0.4l2.051,3.5L86.5,131.7z"/>
						
							<linearGradient id="SVGID_41_" gradientUnits="userSpaceOnUse" x1="88.7109" y1="107.2871" x2="118.0332" y2="107.2871" gradientTransform="matrix(0.962 0.2729 -0.2729 0.962 6.115437e-005 3.348589e-004)">
							<stop  offset="0" style="stop-color:#9DB4DB;stop-opacity:0.7373"/>
							<stop  offset="1" style="stop-color:#5F7EB5;stop-opacity:0.6667"/>
						</linearGradient>
						<path style="fill-rule:evenodd;clip-rule:evenodd;fill:url(#SVGID_41_);" d="M83.1,132.3l1.25,2.851l-4.4,2.05
							c-2.967-1-5.367-1.767-7.2-2.3l-12.05-4.2l-1.2-1.05c-0.5-0.467-1.083-1.434-1.75-2.9l-0.9-2.1l2.25,0.899
							c1.8,0.667,3.517,1.184,5.15,1.55c1.2,0.268,3.55,1,7.05,2.2c3.2,1.033,5.117,1.601,5.75,1.7
							c1.167,0.167,2.684,0.434,4.55,0.8L83.1,132.3z"/>
						
							<linearGradient id="SVGID_42_" gradientUnits="userSpaceOnUse" x1="-161.3364" y1="-22.856" x2="-155.5552" y2="-22.856" gradientTransform="matrix(-0.6487 -0.7611 0.7611 -0.6487 -1.525879e-005 -7.392764e-004)">
							<stop  offset="0" style="stop-color:#A1BEDD"/>
							<stop  offset="1" style="stop-color:#778DA9"/>
						</linearGradient>
						<path style="fill-rule:evenodd;clip-rule:evenodd;fill:url(#SVGID_42_);" d="M88.9,132.95l1.8,0.55l-4.2,2.6
							c-0.434,0.301-1.05,0.717-1.85,1.25c-0.6,0.4-0.966,0.584-1.1,0.551c-0.733,0-1.633-0.134-2.7-0.4l-0.9-0.3
							c1.8-1.5,2.867-2.434,3.2-2.8c0.2-0.233,0.517-0.483,0.95-0.75l0.55-0.301L88.9,132.95z"/>
						
							<linearGradient id="SVGID_43_" gradientUnits="userSpaceOnUse" x1="-130.8076" y1="-94.2886" x2="-123.9043" y2="-94.2886" gradientTransform="matrix(-0.9416 -0.3368 0.3368 -0.9416 -8.475780e-005 9.030104e-006)">
							<stop  offset="0" style="stop-color:#D8F4F9"/>
							<stop  offset="1" style="stop-color:#ABC5F8"/>
						</linearGradient>
						<path style="fill-rule:evenodd;clip-rule:evenodd;fill:url(#SVGID_43_);" d="M86.85,128.35l1.301-1.199l1.25,2.6l1.3,3.75
							l-4.601,1.35c-0.366,0.101-0.966,0.051-1.8-0.149l-1.15-0.3L81.6,131.8c0.867-0.233,1.816-0.733,2.85-1.5
							C85.083,129.867,85.884,129.217,86.85,128.35z"/>
						
							<linearGradient id="SVGID_44_" gradientUnits="userSpaceOnUse" x1="88.6436" y1="100.4902" x2="115.7764" y2="100.4902" gradientTransform="matrix(0.9621 0.2728 -0.2728 0.9621 -6.008148e-005 -3.844202e-004)">
							<stop  offset="0" style="stop-color:#D8F4F9;stop-opacity:0.9176"/>
							<stop  offset="1" style="stop-color:#ABC5F8;stop-opacity:0.7765"/>
						</linearGradient>
						<path style="fill-rule:evenodd;clip-rule:evenodd;fill:url(#SVGID_44_);" d="M84.7,125.7l-2.85,6.35l-6.65-1.2
							c-0.8-0.3-1.833-0.833-3.1-1.6c-2.5-1.467-4.85-3.25-7.05-5.35c-0.833-0.801-2.066-2.301-3.7-4.5l-2.2-3.051l5.7,1.601
							c2.3,0.633,4.933,1.316,7.9,2.05l4.7,2.8L84.7,125.7z"/>
						
							<linearGradient id="SVGID_45_" gradientUnits="userSpaceOnUse" x1="94.3496" y1="102.9072" x2="112.4199" y2="102.9072" gradientTransform="matrix(0.9622 0.2723 -0.2723 0.9622 1.001954e-004 9.480119e-005)">
							<stop  offset="0" style="stop-color:#C9DAF9"/>
							<stop  offset="1" style="stop-color:#86A7CC"/>
						</linearGradient>
						<path style="fill-rule:evenodd;clip-rule:evenodd;fill:url(#SVGID_45_);" d="M82.3,130.35c-0.066,0.2-0.133,0.533-0.2,1
							c-0.133,0.334-0.367,0.5-0.7,0.5c-0.167,0.033-0.417,0-0.75-0.1c-0.333-0.1-0.583-0.15-0.75-0.15l-1.45-0.1
							c-1.633-0.3-2.784-0.633-3.45-1c-0.267-0.133-0.633-0.383-1.1-0.75c-0.533-0.4-0.9-0.667-1.1-0.8l-1.55-1.15
							c-0.433-0.5-0.8-0.85-1.1-1.05c-0.767-0.367-1.333-0.65-1.7-0.85c-0.534-0.4-0.95-0.667-1.25-0.801
							c-0.333-0.066-0.567-0.133-0.7-0.199c-0.3-0.134-0.4-0.317-0.3-0.551l-0.45-1.25l2.7,0.95c0.3,0.134,1.583,0.55,3.85,1.25
							l4.75,1.351c0.667,0.166,1.617,0.482,2.85,0.949c0.667,0.2,1.7,0.5,3.1,0.9C82.967,128.667,82.733,129.283,82.3,130.35z"/>
						<path style="fill-rule:evenodd;clip-rule:evenodd;fill:#FFFFFF;" d="M66.2,118.15c1.667,0.467,8.2,2.166,19.6,5.1l-0.9,1.45
							l-6.55-1.65c-1.967-0.8-6.7-2.217-14.2-4.25l-3.9-1.25l-0.5-0.2l-0.6-1L66.2,118.15z"/>
						<path style="fill-rule:evenodd;clip-rule:evenodd;fill:#FFFFFF;" d="M81.825,131.45c0.486-1.096,0.662-1.862,0.525-2.3
							c-0.1-0.334-1.917-1.15-5.45-2.45c-2.675-0.993-4.858-1.734-6.55-2.226l7.5,1.976c0.733,0.233,1.583,0.483,2.55,0.75
							c0.633,0.2,1.117,0.3,1.45,0.3c0.467,0,0.917-0.133,1.35-0.4c0.466-0.267,0.8-0.633,1-1.1l0.65-1.85l0.95-0.9L81.825,131.45z"
							/>
						<path style="fill-rule:evenodd;clip-rule:evenodd;fill:#FFFFFF;" d="M63.8,123.35c-0.133,0.067-0.667-0.05-1.6-0.35
							l-1.45-0.55c-0.167-0.067-0.583-0.317-1.25-0.75c-0.533-0.333-0.983-0.517-1.35-0.55c-0.3,0.833-0.617,1.949-0.95,3.35
							c-0.034-0.167-0.133-0.45-0.3-0.85c-0.167-0.334-0.233-0.634-0.2-0.9c0-0.434,0.15-1.066,0.45-1.9l0.75-2.25
							c0.3-0.666,0.517-1.183,0.65-1.55l0.25-0.6h0.35v0.2l-0.8,2.85c-0.067,0.233-0.1,0.4-0.1,0.5s0.067,0.217,0.2,0.35
							c0.233,0.233,0.583,0.45,1.05,0.65l1.25,0.85C61.617,122.316,62.633,122.816,63.8,123.35z"/>
						<path style="fill-rule:evenodd;clip-rule:evenodd;fill:#A5B3D8;" d="M57.15,124.9l0.35,1c0.3,0.8,0.684,1.517,1.15,2.149
							c0.767,1,1.617,1.967,2.55,2.9l-1.3-0.5C58.4,128.383,57.483,126.533,57.15,124.9z"/>
						<path style="fill-rule:evenodd;clip-rule:evenodd;fill:#FFFFFF;" d="M86.9,127.2c-0.601-1.867-1.284-2.884-2.05-3.05
							l-2.25-0.9h3.2l2.351,3.9L87.4,128c-0.634,0.633-1.25,1.2-1.851,1.7c-0.966,0.767-2.333,1.6-4.1,2.5
							c3.2-2.601,4.899-4.083,5.1-4.45L86.9,127.2z"/>
						<path style="fill-rule:evenodd;clip-rule:evenodd;fill:#FFFFFF;" d="M86.75,124.8l1.4,2.4c0.966,1.767,1.566,3.017,1.8,3.75
							c0.333,0.899,0.583,1.75,0.75,2.55l-2.45,0.6c1.033-0.666,1.517-1.217,1.45-1.649c-0.066-0.333-0.334-1.083-0.8-2.25
							c-0.434-1.134-0.784-1.934-1.051-2.4c-0.233-0.399-0.483-1.017-0.75-1.85L86.75,124.8z"/>
						<path style="fill-rule:evenodd;clip-rule:evenodd;fill:#FFFFFF;" d="M59.1,117.4c-0.5-0.067-1.55,0.183-3.15,0.75l-2.25,0.899
							l-2.1,2.25l1.4-2.649l1.2-0.25c0.367-0.101,2.017-0.75,4.95-1.95l2.25,1.3L59.1,117.4z"/>
						
							<radialGradient id="SVGID_46_" cx="108.7734" cy="100.5078" r="16.6768" gradientTransform="matrix(0.9621 0.2726 0.1649 -0.5822 -43.9744 155.2142)" gradientUnits="userSpaceOnUse">
							<stop  offset="0" style="stop-color:#FFFFFF"/>
							<stop  offset="1" style="stop-color:#FFFFFF;stop-opacity:0"/>
						</radialGradient>
						<path style="fill-rule:evenodd;clip-rule:evenodd;fill:url(#SVGID_46_);" d="M93.3,130.95c-0.767,2.667-2.983,4.5-6.649,5.5
							c-3.667,1.033-7.717,0.917-12.15-0.351c-4.433-1.232-7.95-3.25-10.55-6.05c-2.567-2.8-3.483-5.55-2.75-8.25
							c0.767-2.667,2.983-4.5,6.65-5.5s7.717-0.883,12.15,0.351c4.434,1.267,7.95,3.283,10.55,6.05
							C93.15,125.5,94.066,128.25,93.3,130.95z"/>
					</g>
				</g>
				<path style="fill-rule:evenodd;clip-rule:evenodd;fill:#212533;" d="M105.55,87.7v3.95l0.05,0.3c0,0.366-0.183,0.767-0.55,1.2
					l0.15,0.35l2.95,18.85v0.101c0,0.1-0.017,0.3-0.051,0.6c-0.1,0.467-0.216,0.917-0.35,1.351v3.75l0.05,0.149l-0.05,0.101v0.55
					l0.1,0.3l-0.05,0.05l0.05,0.101c0,0.666-0.399,1.316-1.199,1.949l-0.551,1.601l-0.149,0.2c-0.167,0.133-0.367,0.25-0.601,0.35
					l-0.05,0.05c-0.566,0.233-1.25,0.351-2.05,0.351c-0.467,0-0.9-0.051-1.3-0.15c-1.667,0.6-3.8,1.083-6.4,1.45l-0.75,2.05h-0.05
					l-0.825,0.1l0.375-0.3l0.851-2.3c2.466-0.3,4.733-0.8,6.8-1.5c0.3,0.1,0.733,0.15,1.3,0.15c0.7,0,1.316-0.101,1.85-0.301
					l0.051-0.05l0.449-0.3l0.65-1.7c0.733-0.633,1.1-1.183,1.1-1.649l-0.05-0.101l0.05-0.05l-0.1-0.25v-0.65l0.05-0.05h-0.05v-3.7
					l-0.35,0.551c0.3-0.567,0.517-1.184,0.649-1.851l0.101-0.85l-2.95-18.8c-0.033-0.167-0.15-0.351-0.351-0.551
					c0.5-0.399,0.75-0.783,0.75-1.149l-0.05-0.2V87.8c-0.033-0.366-0.633-0.75-1.8-1.149c-1.167-2.367-2.5-4.567-4-6.601
					c-2.267-3.066-4.634-5.316-7.1-6.75v-9.65c-0.101-0.367-0.717-0.7-1.851-1c-1.133-0.267-2.483-0.4-4.05-0.4s-2.9,0.133-4,0.4
					c-1.133,0.267-1.75,0.6-1.85,1v9.65c-2.433,1.367-4.75,3.534-6.95,6.5l-0.15-0.05l-0.05-0.05l-0.35-0.05
					c-0.667,0-1.25,0.5-1.75,1.5c-0.5,0.934-0.533,1.667-0.1,2.2l-1.6,2.9c-1.3,0.366-2,0.783-2.1,1.25v4.35h0.05l-0.05,0.101
					c0,0.3,0.2,0.649,0.6,1.05c-0.3,0.167-0.467,0.384-0.5,0.65L66.7,98.2c-0.567,1.233-0.85,2.517-0.85,3.85l0.05,1.15l-1.4,9.25
					l0.1,0.75c0.133,0.633,0.316,1.217,0.55,1.75v2.399L64.5,117.7l-5.35-1.351l-0.2,0.101H58.8l-0.05,0.05
					c-1.8,0.667-2.983,1.167-3.55,1.5l-1,0.4l-1.2,0.25l-1.4,2.649l0.3,0.3l-0.3-0.25c1.066,2.9,1.783,4.483,2.15,4.75
					c0.3,0.2,1.017,0.817,2.15,1.851c1.1,1,1.717,1.533,1.85,1.6l2.1,0.851l0.05,0.05l1.3,0.5l-0.05-0.101l6.95,2.5
					c2,1.167,4.133,2.084,6.4,2.75c1.633,0.434,3.267,0.733,4.9,0.9l1.45,0.5c1.066,0.267,1.967,0.4,2.7,0.4c0.233,0,0.9-0.4,2-1.2
					c0.4-0.067,1.05-0.233,1.95-0.5l-1.1,0.7l-0.15,0.149l-0.5,0.15l-0.1,0.05c-1.134,0.767-1.833,1.15-2.101,1.15H83.5l-2.8-0.45
					l-1.4-0.45c-1.733-0.167-3.383-0.483-4.95-0.95c-2.434-0.7-4.583-1.616-6.45-2.75l-6.7-2.35L61,131.4l-1.25-0.5l-0.2-0.101
					l-2-0.8c-0.2-0.1-0.816-0.633-1.85-1.6c-1.367-1.2-2.1-1.834-2.2-1.9c-0.667-0.467-1.45-2.133-2.35-5
					c-0.1-0.133-0.1-0.283,0-0.45l1.4-2.649c0.034-0.101,0.15-0.184,0.35-0.25c0.034,0,0.417-0.067,1.15-0.2l0.9-0.4
					c0.733-0.399,1.9-0.883,3.5-1.45c0.1-0.1,0.233-0.149,0.4-0.149l0.3-0.101l0.1,0.051l5.2,1.25l0.2-0.101v-2
					c-0.267-0.533-0.45-1.116-0.55-1.75c-0.067-0.533-0.1-0.816-0.1-0.85v-0.101l1.4-9.149l-0.05-1.15c0-1.333,0.283-2.667,0.85-4
					l0.75-4.55c0.066-0.233,0.167-0.417,0.3-0.55c-0.267-0.367-0.4-0.7-0.4-1l0.05-0.05l-0.05-0.051V87.5l0.05-0.05
					c0.1-0.634,0.833-1.167,2.2-1.6c0.6-1.1,1.05-1.934,1.35-2.5c-0.267-0.733-0.184-1.55,0.25-2.45c0.233-0.533,0.566-0.95,1-1.25
					c0.4-0.333,0.8-0.5,1.2-0.5l0.35,0.05c2.133-2.767,4.35-4.833,6.65-6.2v-9.35l0.05-0.25c0.233-0.566,1.083-1,2.55-1.3
					c1.133-0.233,2.383-0.35,3.75-0.35c1.467,0,2.767,0.133,3.9,0.4c1.5,0.3,2.316,0.767,2.449,1.4v0.05l0.051,0.15v9.3
					c2.433,1.434,4.767,3.667,7,6.7c1.5,2.033,2.816,4.2,3.949,6.5C104.8,86.717,105.45,87.2,105.55,87.7z"/>
			</g>
		</g>
		<g>
			
				<linearGradient id="SVGID_47_" gradientUnits="userSpaceOnUse" x1="-42.1855" y1="71.9033" x2="-23.0047" y2="71.9033" gradientTransform="matrix(0.4705 -0.8824 0.8824 0.4705 1.910329e-004 4.739761e-004)">
				<stop  offset="0" style="stop-color:#EB756E"/>
				<stop  offset="0.4314" style="stop-color:#E78267"/>
				<stop  offset="0.6078" style="stop-color:#EC7D6F"/>
				<stop  offset="0.8941" style="stop-color:#E9946C"/>
				<stop  offset="0.9608" style="stop-color:#F0AC81"/>
				<stop  offset="1" style="stop-color:#F6BD8E"/>
			</linearGradient>
			<path style="fill-rule:evenodd;clip-rule:evenodd;fill:url(#SVGID_47_);" d="M39.7,57.7c0.233-0.833,0.667-1.534,1.3-2.1
				c0.867-0.833,1.917-1.217,3.15-1.15c0.434,0,0.9,0.083,1.4,0.25l1.35,0.55l1.2-0.8c0.833-0.567,1.733-0.833,2.7-0.8
				c0.7,0.067,1.333,0.233,1.9,0.5l0.1,0.05c0.733,0.433,1.3,1.017,1.7,1.75c0.434,0.733,0.617,1.517,0.55,2.35l-0.1,1.45l1.15,0.9
				c0.667,0.5,1.15,1.15,1.45,1.95c0.3,0.767,0.367,1.566,0.2,2.4c-0.2,0.967-0.65,1.767-1.35,2.4c-0.5,0.5-1.117,0.833-1.85,1
				l-1.4,0.4l-0.45,1.3c-0.267,0.767-0.667,1.367-1.2,1.8c-0.733,0.667-1.566,1.05-2.5,1.15l-0.65,0.05
				c-0.767-0.067-1.417-0.25-1.95-0.55c-0.667-0.366-1.2-0.85-1.6-1.45L44,69.85h-1.5c-0.833-0.034-1.6-0.284-2.3-0.75
				c-0.7-0.5-1.217-1.117-1.55-1.85c-0.767-1.667-0.566-3.217,0.6-4.65l0.9-1.1l-0.4-1.4C39.517,59.3,39.5,58.5,39.7,57.7z"/>
			<path style="fill-rule:evenodd;clip-rule:evenodd;fill:#19332F;" d="M42.15,59.4c-0.233-0.767-0.05-1.417,0.55-1.95
				c0.6-0.534,1.25-0.667,1.95-0.4l2.6,1l2.3-1.55c0.634-0.467,1.3-0.5,2-0.1c0.7,0.367,1.017,0.967,0.95,1.8l-0.15,2.75l2.2,1.7
				c0.634,0.4,0.884,1.017,0.75,1.85c-0.1,0.4-0.3,0.75-0.6,1.05c-0.267,0.2-0.534,0.35-0.8,0.45l-2.7,0.7l-0.9,2.6
				c-0.066,0.267-0.233,0.517-0.5,0.75c-0.267,0.267-0.633,0.434-1.1,0.5c-0.767,0.1-1.367-0.183-1.8-0.85l-1.5-2.3l-2.8-0.1
				c-0.767,0-1.317-0.366-1.65-1.1c-0.333-0.733-0.25-1.4,0.25-2l1.75-2.15L42.15,59.4z"/>
			
				<linearGradient id="SVGID_48_" gradientUnits="userSpaceOnUse" x1="-38.7925" y1="71.8955" x2="-26.4116" y2="71.8955" gradientTransform="matrix(0.4705 -0.8824 0.8824 0.4705 -5.645454e-004 -3.176928e-005)">
				<stop  offset="0" style="stop-color:#EDBF35"/>
				<stop  offset="0.2941" style="stop-color:#F0CA31"/>
				<stop  offset="0.8039" style="stop-color:#F9E728"/>
				<stop  offset="0.9647" style="stop-color:#FCF226"/>
			</linearGradient>
			<path style="fill-rule:evenodd;clip-rule:evenodd;fill:url(#SVGID_48_);" d="M51.1,57.2c0.367,0.2,0.55,0.517,0.55,0.95l-0.2,3.2
				l2.55,2c0.367,0.233,0.5,0.566,0.4,1c-0.066,0.233-0.167,0.417-0.3,0.55c-0.233,0.133-0.383,0.217-0.45,0.25l-3.1,0.8L49.45,69
				l-0.25,0.4c-0.133,0.167-0.333,0.267-0.6,0.3c-0.434,0-0.75-0.167-0.95-0.5l-1.75-2.7l-3.25-0.1c-0.433,0-0.733-0.183-0.9-0.55
				c-0.167-0.4-0.117-0.767,0.15-1.1l2-2.5l-0.9-3.1c-0.1-0.433,0-0.783,0.3-1.05c0.333-0.3,0.684-0.367,1.05-0.2l3,1.15l2.7-1.8
				C50.35,56.983,50.7,56.967,51.1,57.2z"/>
			<path style="fill-rule:evenodd;clip-rule:evenodd;fill:#F5FAD7;" d="M50.5,57.65c-0.367-0.233-0.733-0.216-1.1,0.05l-2.65,1.8
				l-3-1.15l-0.6-0.05l0.15-0.2c0.333-0.3,0.684-0.367,1.05-0.2l3,1.15l2.7-1.8c0.3-0.267,0.65-0.283,1.05-0.05
				c0.367,0.2,0.55,0.517,0.55,0.95l-0.2,3.2l2.55,2c0.367,0.233,0.5,0.566,0.4,1c-0.066,0.233-0.167,0.417-0.3,0.55
				c-0.233,0.133-0.383,0.217-0.45,0.25l0.15-0.35c0.067-0.466-0.066-0.8-0.4-1l-2.55-2L51,58.6C51.067,58.2,50.9,57.883,50.5,57.65
				z"/>
			<linearGradient id="SVGID_49_" gradientUnits="userSpaceOnUse" x1="115.1865" y1="54.1387" x2="124.2115" y2="71.0637">
				<stop  offset="0" style="stop-color:#EB756E"/>
				<stop  offset="0.4314" style="stop-color:#E78267"/>
				<stop  offset="0.6078" style="stop-color:#EC7D6F"/>
				<stop  offset="0.8941" style="stop-color:#E9946C"/>
				<stop  offset="0.9608" style="stop-color:#F0AC81"/>
				<stop  offset="1" style="stop-color:#F6BD8E"/>
			</linearGradient>
			<path style="fill-rule:evenodd;clip-rule:evenodd;fill:url(#SVGID_49_);" d="M112.85,59.75l-0.05-1.45
				c-0.033-0.833,0.15-1.616,0.55-2.35c0.4-0.733,0.967-1.317,1.7-1.75l0.05-0.05c0.567-0.267,1.2-0.433,1.9-0.5
				c1-0.033,1.9,0.233,2.7,0.8l1.2,0.8l1.35-0.55c0.5-0.167,0.967-0.25,1.4-0.25c1.267-0.067,2.333,0.316,3.199,1.15
				c0.601,0.566,1.017,1.267,1.25,2.1c0.233,0.8,0.233,1.6,0,2.4l-0.399,1.4l0.899,1.1c1.167,1.466,1.351,3.017,0.551,4.65
				c-0.334,0.733-0.851,1.35-1.551,1.85c-0.666,0.466-1.433,0.716-2.3,0.75h-1.5l-0.75,1.25c-0.399,0.6-0.95,1.083-1.649,1.45
				c-0.534,0.3-1.167,0.483-1.9,0.55l-0.7-0.05c-0.934-0.1-1.767-0.483-2.5-1.15c-0.566-0.5-0.95-1.1-1.149-1.8l-0.5-1.3l-1.4-0.4
				c-0.667-0.167-1.283-0.5-1.85-1c-0.733-0.667-1.167-1.466-1.301-2.4c-0.166-0.833-0.116-1.633,0.15-2.4
				c0.3-0.8,0.783-1.45,1.45-1.95L112.85,59.75z"/>
			<path style="fill-rule:evenodd;clip-rule:evenodd;fill:#19332F;" d="M125.65,59.4l-0.75,2.65l1.75,2.15
				c0.5,0.6,0.583,1.267,0.25,2c-0.334,0.733-0.9,1.1-1.7,1.1l-2.75,0.1l-1.5,2.3c-0.434,0.667-1.05,0.95-1.851,0.85
				c-0.466-0.066-0.816-0.233-1.05-0.5c-0.267-0.233-0.45-0.483-0.55-0.75l-0.9-2.6L113.9,66c-0.301-0.133-0.567-0.283-0.801-0.45
				c-0.333-0.4-0.517-0.75-0.55-1.05c-0.166-0.8,0.066-1.417,0.7-1.85l2.2-1.7l-0.15-2.75c-0.066-0.8,0.25-1.4,0.95-1.8
				c0.7-0.367,1.384-0.333,2.05,0.1l2.25,1.55l2.601-1c0.699-0.267,1.366-0.133,2,0.4C125.75,58.05,125.917,58.7,125.65,59.4z"/>
			<linearGradient id="SVGID_50_" gradientUnits="userSpaceOnUse" x1="125.251" y1="65.3472" x2="113.901" y2="60.4222">
				<stop  offset="0" style="stop-color:#EDBF35"/>
				<stop  offset="0.2941" style="stop-color:#F0CA31"/>
				<stop  offset="0.8039" style="stop-color:#F9E728"/>
				<stop  offset="0.9647" style="stop-color:#FCF226"/>
			</linearGradient>
			<path style="fill-rule:evenodd;clip-rule:evenodd;fill:url(#SVGID_50_);" d="M116.7,57.2c0.366-0.233,0.733-0.217,1.1,0.05
				l2.65,1.8l3-1.15c0.399-0.133,0.767-0.066,1.1,0.2c0.267,0.267,0.351,0.617,0.25,1.05l-0.899,3.1l2.05,2.5
				c0.3,0.333,0.333,0.7,0.1,1.1c-0.166,0.367-0.467,0.55-0.899,0.55l-3.2,0.1l-1.75,2.7c-0.233,0.333-0.566,0.5-1,0.5
				c-0.233-0.067-0.417-0.167-0.55-0.3c-0.134-0.1-0.233-0.233-0.301-0.4l-1.05-3.05l-3.149-0.8l-0.4-0.25
				c-0.167-0.133-0.283-0.316-0.35-0.55c-0.067-0.467,0.066-0.8,0.399-1l2.55-2l-0.149-3.2C116.134,57.75,116.3,57.434,116.7,57.2z"
				/>
			<path style="fill-rule:evenodd;clip-rule:evenodd;fill:#F5FAD7;" d="M116.8,58.6l0.2,3.2l-2.6,2c-0.334,0.233-0.45,0.567-0.351,1
				l0.101,0.35l-0.4-0.25c-0.167-0.133-0.283-0.316-0.35-0.55c-0.067-0.467,0.066-0.8,0.399-1l2.55-2l-0.149-3.2
				c-0.066-0.4,0.1-0.716,0.5-0.95c0.366-0.233,0.733-0.217,1.1,0.05l2.65,1.8l3-1.15c0.399-0.133,0.767-0.066,1.1,0.2l0.101,0.2
				l-0.551,0.05l-3.05,1.15l-2.649-1.8c-0.334-0.267-0.7-0.284-1.101-0.05C116.967,57.883,116.8,58.2,116.8,58.6z"/>
		</g>
		
			<use xlink:href="#FlashAICB_x2F_Layer_22_x2F__x3C_Path_x3E_"  width="118.7" height="57.1" y="-57.1" transform="matrix(1 0 0 -1 24.7998 85.5498)" style="overflow:visible;opacity:0.4688;enable-background:new    ;"/>
		
			<use xlink:href="#FlashAICB_x2F_Layer_22_x2F__x3C_Group_x3E_"  width="110.05" height="61.294" y="-61.294" transform="matrix(1 0 0 -1 29.1499 26.75)" style="overflow:visible;opacity:0.8398;enable-background:new    ;"/>
	</g>
</g>
</svg>
