<?xml version="1.0" encoding="iso-8859-1"?>
<!-- Generator: Adobe Illustrator 15.1.0, SVG Export Plug-In . SVG Version: 6.00 Build 0)  -->
<!DOCTYPE svg PUBLIC "-//W3C//DTD SVG 1.1//EN" "http://www.w3.org/Graphics/SVG/1.1/DTD/svg11.dtd">
<svg version="1.1" id="Layer_1" xmlns="http://www.w3.org/2000/svg" xmlns:xlink="http://www.w3.org/1999/xlink" x="0px" y="0px"
	 width="171.7px" height="171.8px" viewBox="0 0 171.7 171.8" style="enable-background:new 0 0 171.7 171.8;" xml:space="preserve"
	>
<symbol  id="FlashAICB_x2F_Layer_1_x2F__x3C_Clip_Group_0_x3E_" viewBox="0 -26.65 21.7 26.65">
	<g id="Layer_1_36_">
	</g>
	<g>
		<defs>
			<polygon id="SVGID_1_" points="1.9,-0.35 1.9,-25.8 21.7,-25.8 21.7,-0.35 			"/>
		</defs>
		<clipPath id="SVGID_2_">
			<use xlink:href="#SVGID_1_"  style="overflow:visible;"/>
		</clipPath>
		<g id="Layer_3_31_" style="clip-path:url(#SVGID_2_);">
			
				<use xlink:href="#FlashAICB_x2F_Layer_1_x2F__x3C_Clip_Group_0_x3E__x5F_0"  width="21.7" height="26.65" y="-26.65" style="overflow:visible;"/>
		</g>
	</g>
	<g id="Layer_4_31_">
	</g>
</symbol>
<symbol  id="FlashAICB_x2F_Layer_1_x2F__x3C_Clip_Group_0_x3E__x5F_0" viewBox="0 -26.65 21.7 26.65">
	<g id="Layer_1_3_">
	</g>
	<g>
		<defs>
			<path id="SVGID_3_" d="M18.7-2.45c-2.467,1.534-5.284,2.217-8.45,2.05c-3.867-0.167-6.433-2.333-7.7-6.5
				c-1.2-3.967-0.917-8.383,0.85-13.25c0.767-2.067,1.65-3.867,2.65-5.4c1.467-0.5,2.583-0.3,3.35,0.6
				c0.633,0.767,0.85,1.534,0.65,2.3c-1.066,1.867-1.883,3.4-2.45,4.6c-1.033,2.133-1.533,4.1-1.5,5.9
				c0.066,3.167,1.1,5.267,3.1,6.3c2.1,1.1,4.683,0.684,7.75-1.25c0.9-0.6,1.65-1.3,2.25-2.1c1.233,1.067,2.066,2.434,2.5,4.1
				C20.9-4.1,19.9-3.217,18.7-2.45z"/>
		</defs>
		<clipPath id="SVGID_4_">
			<use xlink:href="#SVGID_3_"  style="overflow:visible;"/>
		</clipPath>
		<g id="Layer_3_1_" style="clip-path:url(#SVGID_4_);">
			<radialGradient id="SVGID_5_" cx="11.7998" cy="-13.0498" r="11.375" gradientUnits="userSpaceOnUse">
				<stop  offset="0" style="stop-color:#AF5822"/>
				<stop  offset="1" style="stop-color:#7B4016"/>
			</radialGradient>
			<polygon style="fill-rule:evenodd;clip-rule:evenodd;fill:url(#SVGID_5_);" points="0,0 21.7,0 21.7,-26.65 0,-26.65 			"/>
		</g>
	</g>
	<g id="Layer_4_1_">
	</g>
</symbol>
<symbol  id="FlashAICB_x2F_Layer_1_x2F__x3C_Clip_Group_0_x3E__x5F_1" viewBox="0 -26.15 20.6 26.166">
	<g id="Layer_1_4_">
	</g>
	<g>
		<defs>
			<polygon id="SVGID_6_" points="0,0 0,-26.15 20.6,-26.15 20.6,0 			"/>
		</defs>
		<clipPath id="SVGID_7_">
			<use xlink:href="#SVGID_6_"  style="overflow:visible;"/>
		</clipPath>
		<g id="Layer_3_2_" style="clip-path:url(#SVGID_7_);">
			<path style="fill-rule:evenodd;clip-rule:evenodd;fill:#6B3D20;" d="M20.55-5.2c-0.466-1.767-1.333-3.183-2.6-4.25l-0.3-0.25
				L17.4-9.4c-0.566,0.767-1.283,1.433-2.15,2c-1.867,1.167-3.567,1.75-5.1,1.75S7.383-6.233,6.45-7.4
				C5.55-8.567,5.067-10.15,5-12.15c-0.033-1.467,0.283-3.017,0.95-4.65c0.367-0.934,1.033-2.267,2-4l0.9-1.65
				C9.117-23.317,8.933-24.167,8.3-25c-0.566-0.767-1.35-1.15-2.35-1.15c-0.434,0-0.95,0.083-1.55,0.25l-0.1,0.05l-0.05,0.1
				c-0.967,1.4-1.867,3.217-2.7,5.45c-1.133,3.066-1.633,6.1-1.5,9.1c0.1,3,0.784,5.483,2.05,7.45C3.667-1.417,5.883-0.167,8.75,0
				c3.267,0.133,6.15-0.583,8.65-2.15c1.2-0.767,2.233-1.684,3.1-2.75l0.1-0.15L20.55-5.2z M16.6-2.5
				c-2.267,1.3-4.883,1.883-7.85,1.75C6.117-0.917,4.1-2.05,2.7-4.15c-1.233-1.833-1.883-4.2-1.95-7.1s0.433-5.833,1.5-8.8
				c0.767-2.133,1.617-3.85,2.55-5.15c0.367-0.133,0.75-0.2,1.15-0.2c0.8,0,1.383,0.283,1.75,0.85c0.5,0.667,0.65,1.267,0.45,1.8
				l-0.85,1.6c-0.966,1.733-1.65,3.083-2.05,4.05c-0.7,1.767-1.033,3.417-1,4.95c0.067,2.2,0.633,3.95,1.7,5.25
				c1.066,1.333,2.466,2,4.2,2c1.633,0,3.467-0.633,5.5-1.9c0.833-0.534,1.533-1.15,2.1-1.85c0.967,0.9,1.65,2.05,2.05,3.45
				C19-4.167,17.933-3.267,16.6-2.5z"/>
		</g>
	</g>
	<g id="Layer_4_2_">
	</g>
</symbol>
<symbol  id="FlashAICB_x2F_Layer_1_x2F__x3C_Clip_Group_0_x3E__x5F_10" viewBox="0 -50.15 18.3 50.15">
	<g id="Layer_1_10_">
	</g>
	<g>
		<defs>
			<path id="SVGID_8_" d="M17.9-13.7c0.1,2.4-0.267,4.55-1.1,6.45c-0.633,1.333-1.767,3.033-3.4,5.1c-0.6,0.733-1.367,1.233-2.3,1.5
				c-0.533,0.167-1.45,0.3-2.75,0.4C6.85-0.117,5.267-0.9,3.6-2.6C1.767-4.5,0.717-6.867,0.45-9.7
				c-0.333-3.933-0.333-16.283,0-37.05c1.9-1.033,4.3-1.85,7.2-2.45c3-0.633,6.217-0.95,9.65-0.95h1
				C17.933-28.983,17.8-16.833,17.9-13.7z"/>
		</defs>
		<clipPath id="SVGID_9_">
			<use xlink:href="#SVGID_8_"  style="overflow:visible;"/>
		</clipPath>
		<g id="Layer_3_8_" style="clip-path:url(#SVGID_9_);">
			<linearGradient id="SVGID_10_" gradientUnits="userSpaceOnUse" x1="-1.6001" y1="-25.0752" x2="14.2999" y2="-25.0752">
				<stop  offset="0" style="stop-color:#FBC99B"/>
				<stop  offset="1" style="stop-color:#000000"/>
			</linearGradient>
			<polygon style="fill-rule:evenodd;clip-rule:evenodd;fill:url(#SVGID_10_);" points="18.3,0 18.3,-50.15 0,-50.15 0,0 			"/>
		</g>
	</g>
	<g id="Layer_4_8_">
	</g>
</symbol>
<symbol  id="FlashAICB_x2F_Layer_1_x2F__x3C_Clip_Group_0_x3E__x5F_10_x5F_0" viewBox="0 -2.55 2.3 2.55">
	<g id="Layer_1_22_">
	</g>
	<g>
		<defs>
			<path id="SVGID_11_" d="M1.1-0.6C0.967-0.4,0.867-0.3,0.8-0.3c-0.3,0-0.45-0.367-0.45-1.1c0-0.4,0.233-0.55,0.7-0.45
				C1.45-1.75,1.467-1.333,1.1-0.6z"/>
		</defs>
		<clipPath id="SVGID_12_">
			<use xlink:href="#SVGID_11_"  style="overflow:visible;"/>
		</clipPath>
		<g id="Layer_3_20_" style="clip-path:url(#SVGID_12_);">
			<linearGradient id="SVGID_13_" gradientUnits="userSpaceOnUse" x1="1.2871" y1="-2.04" x2="0.9871" y2="-0.365">
				<stop  offset="0" style="stop-color:#F7B149"/>
				<stop  offset="1" style="stop-color:#B57C3D"/>
			</linearGradient>
			<polygon style="fill-rule:evenodd;clip-rule:evenodd;fill:url(#SVGID_13_);" points="0.4,-2.55 0,-0.35 1.9,0 2.3,-2.2 			"/>
		</g>
	</g>
	<g id="Layer_4_20_">
	</g>
</symbol>
<symbol  id="FlashAICB_x2F_Layer_1_x2F__x3C_Clip_Group_0_x3E__x5F_11" viewBox="-0.038 -54.25 6.888 54.253">
	<g id="Layer_1_44_">
	</g>
	<g>
		<defs>
			<polygon id="SVGID_14_" points="0,0 0,-54.25 6.85,-54.25 6.85,0 			"/>
		</defs>
		<clipPath id="SVGID_15_">
			<use xlink:href="#SVGID_14_"  style="overflow:visible;"/>
		</clipPath>
		<g id="Layer_3_35_" style="clip-path:url(#SVGID_15_);">
			
				<use xlink:href="#FlashAICB_x2F_Layer_1_x2F__x3C_Clip_Group_0_x3E__x5F_12"  width="6.888" height="54.253" x="-0.038" y="-54.25" style="overflow:visible;"/>
		</g>
	</g>
	<g id="Layer_4_35_">
	</g>
</symbol>
<symbol  id="FlashAICB_x2F_Layer_1_x2F__x3C_Clip_Group_0_x3E__x5F_11_x5F_0" viewBox="0 -5.5 10.7 5.5">
	<g id="Layer_1_21_">
	</g>
	<g>
		<defs>
			<path id="SVGID_16_" d="M8.85-1.8c-0.967,0.267-2.133,0.4-3.5,0.4S2.8-1.533,1.8-1.8C0.833-2.067,0.35-2.383,0.35-2.75
				S0.833-3.433,1.8-3.7c1-0.267,2.184-0.4,3.55-0.4s2.533,0.133,3.5,0.4c0.967,0.267,1.45,0.583,1.45,0.95S9.817-2.067,8.85-1.8z"
				/>
		</defs>
		<clipPath id="SVGID_17_">
			<use xlink:href="#SVGID_16_"  style="overflow:visible;"/>
		</clipPath>
		<g id="Layer_3_19_" style="clip-path:url(#SVGID_17_);">
			<linearGradient id="SVGID_18_" gradientUnits="userSpaceOnUse" x1="11.2837" y1="-1.8853" x2="-2.3913" y2="-3.8603">
				<stop  offset="0" style="stop-color:#F7B149"/>
				<stop  offset="1" style="stop-color:#B57C3D"/>
			</linearGradient>
			<polygon style="fill-rule:evenodd;clip-rule:evenodd;fill:url(#SVGID_18_);" points="10.7,-4 0.55,-5.5 0,-1.45 10.1,0 			"/>
		</g>
	</g>
	<g id="Layer_4_19_">
	</g>
</symbol>
<symbol  id="FlashAICB_x2F_Layer_1_x2F__x3C_Clip_Group_0_x3E__x5F_12" viewBox="-0.038 -54.25 6.888 54.253">
	<g id="Layer_1_11_">
	</g>
	<g>
		<defs>
			<path id="SVGID_19_" d="M6.5-24.7c0.267,4.8,0.283,8.717,0.05,11.75c-0.4,5.567-1.783,9.6-4.15,12.1
				C1.833-0.25,1.217,0.033,0.55,0c-0.667-0.033-0.767-0.433-0.3-1.2C1.083-2.567,1.8-4.467,2.4-6.9
				c0.967-3.8,1.517-8.417,1.65-13.85c0.2-8.833,0.3-20,0.3-33.5l2.5,2.85C6.617-37.167,6.5-28.267,6.5-24.7z"/>
		</defs>
		<clipPath id="SVGID_20_">
			<use xlink:href="#SVGID_19_"  style="overflow:visible;"/>
		</clipPath>
		<g id="Layer_3_9_" style="clip-path:url(#SVGID_20_);">
		</g>
	</g>
	<g id="Layer_4_9_">
	</g>
</symbol>
<symbol  id="FlashAICB_x2F_Layer_1_x2F__x3C_Clip_Group_0_x3E__x5F_12_x5F_0" viewBox="0 -5.05 9.95 5.05">
	<g id="Layer_1_20_">
	</g>
	<g>
		<defs>
			<path id="SVGID_21_" d="M4.7-0.55C2.367-0.717,0.8-0.533,0,0l0.4-1.5C0.6-2.267,0.8-3.233,1-4.4c0.967-0.434,2.15-0.65,3.55-0.65
				c2.1,0,3.684,0.2,4.75,0.6l0.05,0.6C9.383-3.417,9.583-2.133,9.95,0C8.817-0.2,7.067-0.383,4.7-0.55z"/>
		</defs>
		<clipPath id="SVGID_22_">
			<use xlink:href="#SVGID_21_"  style="overflow:visible;"/>
		</clipPath>
		<g id="Layer_3_18_" style="clip-path:url(#SVGID_22_);">
			<linearGradient id="SVGID_23_" gradientUnits="userSpaceOnUse" x1="0.0376" y1="-2.5249" x2="9.9626" y2="-2.5249">
				<stop  offset="0" style="stop-color:#F7B149"/>
				<stop  offset="1" style="stop-color:#B57C3D"/>
			</linearGradient>
			<polygon style="fill-rule:evenodd;clip-rule:evenodd;fill:url(#SVGID_23_);" points="0,0 9.95,0 9.95,-5.05 0,-5.05 			"/>
		</g>
	</g>
	<g id="Layer_4_18_">
	</g>
</symbol>
<symbol  id="FlashAICB_x2F_Layer_1_x2F__x3C_Clip_Group_0_x3E__x5F_13" viewBox="0 -68.05 44.2 68.05">
	<g id="Layer_1_12_">
	</g>
	<g>
		<defs>
			<polygon id="SVGID_24_" points="0,0 0,-68.05 44.2,-68.05 44.2,0 			"/>
		</defs>
		<clipPath id="SVGID_25_">
			<use xlink:href="#SVGID_24_"  style="overflow:visible;"/>
		</clipPath>
		<g id="Layer_3_10_" style="clip-path:url(#SVGID_25_);">
			<path style="fill-rule:evenodd;clip-rule:evenodd;fill:#6B3D20;" d="M43.3-29.1c-0.333,4.8-1.316,8.617-2.95,11.45
				c-1.667,2.8-3.917,4.5-6.75,5.1c-3.467,0.733-6.167,2.667-8.1,5.8c-1.167,1.833-1.9,3.717-2.2,5.65l-1.15,0.35L21-1.1
				c-0.3-1.933-1.033-3.816-2.2-5.65c-1.933-3.133-4.633-5.067-8.1-5.8c-2.867-0.6-5.117-2.3-6.75-5.1
				C2.317-20.45,1.333-24.267,1-29.1l-0.1-0.35v-1.2c-0.033-1.6-0.033-3.3,0-5.1v-22.7l-0.15-0.9c0-2.167,2.117-4.033,6.35-5.6
				c4.2-1.566,9.2-2.35,15-2.35c5.767,0,10.767,0.783,15,2.35c4.2,1.567,6.3,3.434,6.3,5.6l-0.2,1.1h0.2v22.5
				c0.067,1.733,0.067,3.433,0,5.1v1.3L43.3-29.1z M44.15-35.75l-0.05-23.2l0.05-0.4c0-2.433-2.133-4.5-6.4-6.2
				c-4.233-1.667-9.45-2.5-15.65-2.5c-6.2,0-11.434,0.833-15.7,2.5c-4.267,1.7-6.4,3.767-6.4,6.2l0.15,1v22.6
				c-0.033,1.767-0.033,3.467,0,5.1v1.95h0.1c0.467,5.6,1.783,9.85,3.95,12.75c1.667,2.2,3.783,3.567,6.35,4.1
				c3.534,0.767,6.217,2.817,8.05,6.15c0.933,1.7,1.5,3.333,1.7,4.9l0.05,0.25L22.15,0l1.8-0.55L24-0.8c0.233-1.567,0.8-3.2,1.7-4.9
				c1.833-3.333,4.517-5.383,8.05-6.15c2.567-0.533,4.683-1.9,6.35-4.1c2.167-2.933,3.467-7.183,3.9-12.75h0.05l0.1-0.35v-1.6
				C44.217-32.283,44.217-33.983,44.15-35.75z"/>
		</g>
	</g>
	<g id="Layer_4_10_">
	</g>
</symbol>
<symbol  id="FlashAICB_x2F_Layer_1_x2F__x3C_Clip_Group_0_x3E__x5F_13_x5F_0" viewBox="0 -12.15 9.35 12.15">
	<g id="Layer_1_18_">
	</g>
	<g>
		<defs>
			<path id="SVGID_26_" d="M0,0v-10.3c0.067-0.534,0.55-0.967,1.45-1.3c0.9-0.367,1.983-0.55,3.25-0.55
				c1.267,0,2.35,0.183,3.25,0.55c0.9,0.333,1.367,0.767,1.4,1.3V0H0z"/>
		</defs>
		<clipPath id="SVGID_27_">
			<use xlink:href="#SVGID_26_"  style="overflow:visible;"/>
		</clipPath>
		<g id="Layer_3_16_" style="clip-path:url(#SVGID_27_);">
			<linearGradient id="SVGID_28_" gradientUnits="userSpaceOnUse" x1="0.0249" y1="-6.0752" x2="9.375" y2="-6.0752">
				<stop  offset="0" style="stop-color:#AC6933"/>
				<stop  offset="1" style="stop-color:#7A4621"/>
			</linearGradient>
			<polygon style="fill-rule:evenodd;clip-rule:evenodd;fill:url(#SVGID_28_);" points="0,0 9.35,0 9.35,-12.15 0,-12.15 			"/>
		</g>
	</g>
	<g id="Layer_4_16_">
	</g>
</symbol>
<symbol  id="FlashAICB_x2F_Layer_1_x2F__x3C_Clip_Group_0_x3E__x5F_14" viewBox="0 -24.25 44.3 24.25">
	<g id="Layer_1_13_">
	</g>
	<g>
		<defs>
			<path id="SVGID_29_" d="M44.2-2.9v1.6h-0.1L44-0.15c-3.233-2.1-10.25-3.283-21.05-3.55C16.717-3.867,11.233-3.417,6.5-2.35
				C3.133-1.583,0.983-0.8,0.05,0v-1.5c-0.033-1.567-0.033-3.267,0-5.1v-11.85c1.667-1.3,3.983-2.433,6.95-3.4
				c4.633-1.533,9.9-2.217,15.8-2.05c7.167,0.167,12.667,0.967,16.5,2.4c2.067,0.733,3.7,1.733,4.9,3v10.45
				C44.267-6.783,44.267-5.067,44.2-2.9z"/>
		</defs>
		<clipPath id="SVGID_30_">
			<use xlink:href="#SVGID_29_"  style="overflow:visible;"/>
		</clipPath>
		<g id="Layer_3_11_" style="clip-path:url(#SVGID_30_);">
			<linearGradient id="SVGID_31_" gradientUnits="userSpaceOnUse" x1="0" y1="-12.125" x2="44.175" y2="-12.125">
				<stop  offset="0" style="stop-color:#FAC377"/>
				<stop  offset="1" style="stop-color:#BF8044"/>
			</linearGradient>
			<polygon style="fill-rule:evenodd;clip-rule:evenodd;fill:url(#SVGID_31_);" points="44.3,-24.25 0,-24.25 0,0 44.3,0 			"/>
		</g>
	</g>
	<g id="Layer_4_11_">
	</g>
</symbol>
<symbol  id="FlashAICB_x2F_Layer_1_x2F__x3C_Clip_Group_0_x3E__x5F_15" viewBox="-0.025 -6.65 34.275 6.664">
	<g id="Layer_1_14_">
	</g>
	<g>
		<defs>
			<polygon id="SVGID_32_" points="0,0 0,-6.65 34.25,-6.65 34.25,0 			"/>
		</defs>
		<clipPath id="SVGID_33_">
			<use xlink:href="#SVGID_32_"  style="overflow:visible;"/>
		</clipPath>
		<g id="Layer_3_12_" style="clip-path:url(#SVGID_33_);">
			<path style="fill-rule:evenodd;clip-rule:evenodd;fill:#783810;" d="M23.45-0.65c-7.833,0.1-13.417-0.3-16.75-1.2
				c-1.633-0.467-2.284-0.967-1.95-1.5c0.233-0.367,0.967-1.017,2.2-1.95L8.4-6.65C6.3-6.217,4.433-5.667,2.8-5
				c-3.267,1.333-3.7,2.583-1.3,3.75c0.733,0.2,1.967,0.4,3.7,0.6C8.667-0.25,12.95-0.033,18.05,0c5.4,0.067,9.717-0.1,12.95-0.5
				c1.6-0.2,2.667-0.4,3.2-0.6C30.967-0.867,27.383-0.717,23.45-0.65z"/>
		</g>
	</g>
	<g id="Layer_4_12_">
	</g>
</symbol>
<symbol  id="FlashAICB_x2F_Layer_1_x2F__x3C_Clip_Group_0_x3E__x5F_16" viewBox="0 -2.2 13.85 2.22">
	<g id="Layer_1_15_">
	</g>
	<g>
		<defs>
			<polygon id="SVGID_34_" points="0,0 0,-2.2 13.85,-2.2 13.85,0 			"/>
		</defs>
		<clipPath id="SVGID_35_">
			<use xlink:href="#SVGID_34_"  style="overflow:visible;"/>
		</clipPath>
		<g id="Layer_3_13_" style="clip-path:url(#SVGID_35_);">
			<path style="fill-rule:evenodd;clip-rule:evenodd;fill:#FAC175;" d="M0.9,0c0.767-0.033,1.383-0.117,1.85-0.25
				c0.3-0.067,0.833-0.233,1.6-0.5c2.566-0.733,5.733-1.133,9.5-1.2C12.95-2.117,11.6-2.2,9.8-2.2c-1.167,0-2.55,0.15-4.15,0.45
				C3.883-1.417,2.633-1.167,1.9-1C0.833-0.767,0.217-0.533,0.05-0.3C-0.117-0.033,0.167,0.067,0.9,0z"/>
		</g>
	</g>
	<g id="Layer_4_13_">
	</g>
</symbol>
<symbol  id="FlashAICB_x2F_Layer_1_x2F__x3C_Clip_Group_0_x3E__x5F_17" viewBox="-0.003 -4.1 4.861 4.1">
	<g id="Layer_1_16_">
	</g>
	<g>
		<defs>
			<polygon id="SVGID_36_" points="0,0 0,-4.1 4.85,-4.1 4.85,0 			"/>
		</defs>
		<clipPath id="SVGID_37_">
			<use xlink:href="#SVGID_36_"  style="overflow:visible;"/>
		</clipPath>
		<g id="Layer_3_14_" style="clip-path:url(#SVGID_37_);">
			<path style="fill-rule:evenodd;clip-rule:evenodd;fill:#FAC175;" d="M3.5-0.05c1.3-0.133,1.667-0.833,1.1-2.1
				C4.333-2.75,4.017-3.133,3.65-3.3C3.05-3.467,2.467-3.65,1.9-3.85C1.1-4.117,0.533-4.167,0.2-4c-0.3,0.167-0.267,0.417,0.1,0.75
				c0.567,0.767,1.05,1.4,1.45,1.9C2.483-0.417,3.067,0.017,3.5-0.05z"/>
		</g>
	</g>
	<g id="Layer_4_14_">
	</g>
</symbol>
<symbol  id="FlashAICB_x2F_Layer_1_x2F__x3C_Clip_Group_0_x3E__x5F_18" viewBox="0 -4.256 9.25 4.278">
	<g id="Layer_1_17_">
	</g>
	<g>
		<defs>
			<polygon id="SVGID_38_" points="0,0 0,-4.25 9.25,-4.25 9.25,0 			"/>
		</defs>
		<clipPath id="SVGID_39_">
			<use xlink:href="#SVGID_38_"  style="overflow:visible;"/>
		</clipPath>
		<g id="Layer_3_15_" style="clip-path:url(#SVGID_39_);">
			<path style="fill-rule:evenodd;clip-rule:evenodd;fill:#6B3D20;" d="M0.7-1.1c1.167,0.333,2.333,0.617,3.5,0.85
				C6.533,0.183,7.767,0.1,7.9-0.5c0.233-1,0.667-1.933,1.3-2.8C9.1-3.533,8.817-3.733,8.35-3.9c-0.867-0.367-2.1-0.45-3.7-0.25
				c-1.6,0.167-2.85,0.5-3.75,1C0.433-2.883,0.133-2.633,0-2.4C0.333-1.967,0.567-1.533,0.7-1.1z"/>
		</g>
	</g>
	<g id="Layer_4_15_">
	</g>
</symbol>
<symbol  id="FlashAICB_x2F_Layer_1_x2F__x3C_Clip_Group_0_x3E__x5F_19" viewBox="0 -9.15 1.95 9.15">
	<g id="Layer_1_19_">
	</g>
	<g>
		<defs>
			<polygon id="SVGID_40_" points="0,0 0,-9.15 1.95,-9.15 1.95,0 			"/>
		</defs>
		<clipPath id="SVGID_41_">
			<use xlink:href="#SVGID_40_"  style="overflow:visible;"/>
		</clipPath>
		<g id="Layer_3_17_" style="clip-path:url(#SVGID_41_);">
			<path style="fill-rule:evenodd;clip-rule:evenodd;fill:#FAC175;" d="M1.95-4.55c0-1.267-0.1-2.35-0.3-3.25
				c-0.2-0.9-0.433-1.35-0.7-1.35c-0.267,0-0.5,0.45-0.7,1.35C0.083-6.933,0-5.85,0-4.55c0,1.267,0.083,2.333,0.25,3.2
				C0.45-0.45,0.683,0,0.95,0c0.267,0,0.5-0.45,0.7-1.35C1.85-2.25,1.95-3.317,1.95-4.55z"/>
		</g>
	</g>
	<g id="Layer_4_17_">
	</g>
</symbol>
<symbol  id="FlashAICB_x2F_Layer_1_x2F__x3C_Clip_Group_0_x3E__x5F_1_x5F_0" viewBox="0 -0.6 1.25 0.6">
	<g id="Layer_1_31_">
	</g>
	<g>
		<defs>
			<path id="SVGID_42_" d="M0.65-0.05c-0.4,0-0.6-0.083-0.6-0.25c0-0.167,0.2-0.25,0.6-0.25s0.6,0.083,0.6,0.25
				C1.25-0.133,1.05-0.05,0.65-0.05z"/>
		</defs>
		<clipPath id="SVGID_43_">
			<use xlink:href="#SVGID_42_"  style="overflow:visible;"/>
		</clipPath>
		<g id="Layer_3_29_" style="clip-path:url(#SVGID_43_);">
			<linearGradient id="SVGID_44_" gradientUnits="userSpaceOnUse" x1="1.25" y1="-0.2715" x2="0.15" y2="-0.3215">
				<stop  offset="0" style="stop-color:#F7B149"/>
				<stop  offset="1" style="stop-color:#B57C3D"/>
			</linearGradient>
			<polygon style="fill-rule:evenodd;clip-rule:evenodd;fill:url(#SVGID_44_);" points="1.25,-0.55 0.05,-0.6 0,-0.05 1.25,0 			"/>
		</g>
	</g>
	<g id="Layer_4_29_">
	</g>
</symbol>
<symbol  id="FlashAICB_x2F_Layer_1_x2F__x3C_Clip_Group_0_x3E__x5F_2" viewBox="0 -9.3 6.85 9.3">
	<g id="Layer_1_5_">
	</g>
	<g>
		<defs>
			<polygon id="SVGID_45_" points="0,0 0,-9.3 6.85,-9.3 6.85,0 			"/>
		</defs>
		<clipPath id="SVGID_46_">
			<use xlink:href="#SVGID_45_"  style="overflow:visible;"/>
		</clipPath>
		<g id="Layer_3_3_" style="clip-path:url(#SVGID_46_);">
			<path style="fill-rule:evenodd;clip-rule:evenodd;fill:#FAC175;" d="M5.55-0.05c0.867,0.033,1.284,0.033,1.25,0
				c0-0.034-0.3-0.2-0.9-0.5C4-1.417,2.7-2.55,2-3.95c-0.2-0.367-0.683-1.8-1.45-4.3c-0.433-1.4-0.6-1.2-0.5,0.6
				c0.133,2.267,0.75,4.1,1.85,5.5C2.9-0.817,4.117-0.117,5.55-0.05z"/>
		</g>
	</g>
	<g id="Layer_4_3_">
	</g>
</symbol>
<symbol  id="FlashAICB_x2F_Layer_1_x2F__x3C_Clip_Group_0_x3E__x5F_20" viewBox="0 -0.45 0.85 0.45">
	<g id="Layer_1_32_">
	</g>
	<g>
		<defs>
			<path id="SVGID_47_" d="M0.45,0c-0.267,0-0.4-0.067-0.4-0.2s0.133-0.2,0.4-0.2c0.233,0,0.35,0.066,0.35,0.2S0.683,0,0.45,0z"/>
		</defs>
		<clipPath id="SVGID_48_">
			<use xlink:href="#SVGID_47_"  style="overflow:visible;"/>
		</clipPath>
		<g id="Layer_3_30_" style="clip-path:url(#SVGID_48_);">
			<linearGradient id="SVGID_49_" gradientUnits="userSpaceOnUse" x1="0.1753" y1="-0.2197" x2="-0.4094" y2="-0.2406">
				<stop  offset="0" style="stop-color:#F7B149"/>
				<stop  offset="1" style="stop-color:#B57C3D"/>
			</linearGradient>
			<polygon style="fill-rule:evenodd;clip-rule:evenodd;fill:url(#SVGID_49_);" points="0.85,-0.4 0.05,-0.45 0,0 0.8,0 			"/>
		</g>
	</g>
	<g id="Layer_4_30_">
	</g>
</symbol>
<symbol  id="FlashAICB_x2F_Layer_1_x2F__x3C_Clip_Group_0_x3E__x5F_2_x5F_0" viewBox="0 -0.45 0.9 0.45">
	<g id="Layer_1_30_">
	</g>
	<g>
		<defs>
			<path id="SVGID_50_" d="M0.45-0.05C0.15-0.05,0-0.1,0-0.2c0-0.133,0.15-0.2,0.45-0.2c0.3,0,0.45,0.066,0.45,0.2
				C0.9-0.1,0.75-0.05,0.45-0.05z"/>
		</defs>
		<clipPath id="SVGID_51_">
			<use xlink:href="#SVGID_50_"  style="overflow:visible;"/>
		</clipPath>
		<g id="Layer_3_28_" style="clip-path:url(#SVGID_51_);">
			<linearGradient id="SVGID_52_" gradientUnits="userSpaceOnUse" x1="0.0884" y1="-0.248" x2="-0.6101" y2="-0.2931">
				<stop  offset="0" style="stop-color:#F7B149"/>
				<stop  offset="1" style="stop-color:#B57C3D"/>
			</linearGradient>
			<polygon style="fill-rule:evenodd;clip-rule:evenodd;fill:url(#SVGID_52_);" points="0.9,-0.4 0,-0.45 0,-0.05 0.85,0 			"/>
		</g>
	</g>
	<g id="Layer_4_28_">
	</g>
</symbol>
<symbol  id="FlashAICB_x2F_Layer_1_x2F__x3C_Clip_Group_0_x3E__x5F_3" viewBox="0 -2.25 0.8 2.278">
	<g id="Layer_1_6_">
	</g>
	<g>
		<defs>
			<polygon id="SVGID_53_" points="0,0 0,-2.25 0.8,-2.25 0.8,0 			"/>
		</defs>
		<clipPath id="SVGID_54_">
			<use xlink:href="#SVGID_53_"  style="overflow:visible;"/>
		</clipPath>
		<g id="Layer_3_4_" style="clip-path:url(#SVGID_54_);">
			<path style="fill-rule:evenodd;clip-rule:evenodd;fill:#FAC175;" d="M0.55-0.2c0.3-0.7,0.3-1.25,0-1.65
				C0.417-2.05,0.233-2.183,0-2.25C0.1-0.25,0.283,0.433,0.55-0.2z"/>
		</g>
	</g>
	<g id="Layer_4_4_">
	</g>
</symbol>
<symbol  id="FlashAICB_x2F_Layer_1_x2F__x3C_Clip_Group_0_x3E__x5F_3_x5F_0" viewBox="0 -0.7 1.4 0.7">
	<g id="Layer_1_29_">
	</g>
	<g>
		<defs>
			<path id="SVGID_55_" d="M0.7-0.05c-0.434,0-0.65-0.1-0.65-0.3c0-0.2,0.217-0.3,0.65-0.3c0.433,0,0.65,0.1,0.65,0.3
				C1.35-0.15,1.133-0.05,0.7-0.05z"/>
		</defs>
		<clipPath id="SVGID_56_">
			<use xlink:href="#SVGID_55_"  style="overflow:visible;"/>
		</clipPath>
		<g id="Layer_3_27_" style="clip-path:url(#SVGID_56_);">
			<linearGradient id="SVGID_57_" gradientUnits="userSpaceOnUse" x1="1.3501" y1="-0.3228" x2="0.1501" y2="-0.3728">
				<stop  offset="0" style="stop-color:#F7B149"/>
				<stop  offset="1" style="stop-color:#B57C3D"/>
			</linearGradient>
			<polygon style="fill-rule:evenodd;clip-rule:evenodd;fill:url(#SVGID_57_);" points="1.4,-0.65 0.05,-0.7 0,-0.05 1.35,0 			"/>
		</g>
	</g>
	<g id="Layer_4_27_">
	</g>
</symbol>
<symbol  id="FlashAICB_x2F_Layer_1_x2F__x3C_Clip_Group_0_x3E__x5F_4" viewBox="0 -68.25 44.9 68.25">
	<g id="Layer_1_40_">
	</g>
	<g>
		<defs>
			<polygon id="SVGID_58_" points="0.75,-0.5 0.75,-67.75 44.15,-67.75 44.15,-0.5 			"/>
		</defs>
		<clipPath id="SVGID_59_">
			<use xlink:href="#SVGID_58_"  style="overflow:visible;"/>
		</clipPath>
		<g id="Layer_3_32_" style="clip-path:url(#SVGID_59_);">
			
				<use xlink:href="#FlashAICB_x2F_Layer_1_x2F__x3C_Clip_Group_0_x3E__x5F_5"  width="44.9" height="68.25" y="-68.25" style="overflow:visible;"/>
		</g>
	</g>
	<g id="Layer_4_32_">
	</g>
</symbol>
<symbol  id="FlashAICB_x2F_Layer_1_x2F__x3C_Clip_Group_0_x3E__x5F_4_x5F_0" viewBox="0 -0.5 1 0.5">
	<g id="Layer_1_28_">
	</g>
	<g>
		<defs>
			<path id="SVGID_60_" d="M0.5-0.05C0.167-0.05,0-0.117,0-0.25s0.167-0.2,0.5-0.2c0.3,0,0.45,0.067,0.45,0.2S0.8-0.05,0.5-0.05z"/>
		</defs>
		<clipPath id="SVGID_61_">
			<use xlink:href="#SVGID_60_"  style="overflow:visible;"/>
		</clipPath>
		<g id="Layer_3_26_" style="clip-path:url(#SVGID_61_);">
			<linearGradient id="SVGID_62_" gradientUnits="userSpaceOnUse" x1="0.0117" y1="-0.2788" x2="-0.8393" y2="-0.3289">
				<stop  offset="0" style="stop-color:#F7B149"/>
				<stop  offset="1" style="stop-color:#B57C3D"/>
			</linearGradient>
			<polygon style="fill-rule:evenodd;clip-rule:evenodd;fill:url(#SVGID_62_);" points="1,-0.45 0,-0.5 0,-0.05 0.95,0 			"/>
		</g>
	</g>
	<g id="Layer_4_26_">
	</g>
</symbol>
<symbol  id="FlashAICB_x2F_Layer_1_x2F__x3C_Clip_Group_0_x3E__x5F_5" viewBox="0 -68.25 44.9 68.25">
	<g id="Layer_1_7_">
	</g>
	<g>
		<defs>
			<path id="SVGID_63_" d="M44.1-30.75v1.6h-0.05c-0.4,5.4-1.6,9.55-3.6,12.45c-1.633,2.4-3.767,3.867-6.4,4.4
				c-3.7,0.767-6.483,2.883-8.35,6.35c-0.967,1.733-1.55,3.4-1.75,5L22.5-0.5l-1.45-0.45c-0.2-1.6-0.783-3.267-1.75-5
				c-1.9-3.466-4.683-5.583-8.35-6.35c-2.633-0.534-4.767-2-6.4-4.4c-2-2.9-3.2-7.05-3.6-12.45H0.9v-1.6c-0.1-1.567-0.1-3.267,0-5.1
				v-22.7c-0.1-0.3-0.15-0.6-0.15-0.9c0-2.3,2.117-4.267,6.35-5.9c4.233-1.6,9.35-2.4,15.35-2.4c5.966,0,11.066,0.8,15.3,2.4
				c4.233,1.633,6.35,3.6,6.35,5.9c0,0.333-0.033,0.583-0.1,0.75h0.1v22.85C44.2-34.017,44.2-32.317,44.1-30.75z"/>
		</defs>
		<clipPath id="SVGID_64_">
			<use xlink:href="#SVGID_63_"  style="overflow:visible;"/>
		</clipPath>
		<g id="Layer_3_5_" style="clip-path:url(#SVGID_64_);">
			<radialGradient id="SVGID_65_" cx="15.7998" cy="-27.5498" r="44.2401" gradientUnits="userSpaceOnUse">
				<stop  offset="0" style="stop-color:#AF5822"/>
				<stop  offset="1" style="stop-color:#4F2406"/>
			</radialGradient>
			<polygon style="fill-rule:evenodd;clip-rule:evenodd;fill:url(#SVGID_65_);" points="44.2,0 44.9,-67.75 0.75,-68.25 0,-0.5 			
				"/>
		</g>
	</g>
	<g id="Layer_4_5_">
	</g>
</symbol>
<symbol  id="FlashAICB_x2F_Layer_1_x2F__x3C_Clip_Group_0_x3E__x5F_5_x5F_0" viewBox="0 -0.75 1.85 0.75">
	<g id="Layer_1_27_">
	</g>
	<g>
		<defs>
			<path id="SVGID_66_" d="M1.15-0.1H1.1c-0.267,0-0.467-0.1-0.6-0.3C0.4-0.567,0.55-0.65,0.95-0.65C1.45-0.717,1.733-0.633,1.8-0.4
				C1.867-0.2,1.65-0.1,1.15-0.1z"/>
		</defs>
		<clipPath id="SVGID_67_">
			<use xlink:href="#SVGID_66_"  style="overflow:visible;"/>
		</clipPath>
		<g id="Layer_3_25_" style="clip-path:url(#SVGID_67_);">
			<linearGradient id="SVGID_68_" gradientUnits="userSpaceOnUse" x1="1.7983" y1="-0.3384" x2="0.5983" y2="-0.3884">
				<stop  offset="0" style="stop-color:#F7B149"/>
				<stop  offset="1" style="stop-color:#B57C3D"/>
			</linearGradient>
			<polygon style="fill-rule:evenodd;clip-rule:evenodd;fill:url(#SVGID_68_);" points="1.85,-0.65 0.05,-0.75 0,-0.1 1.8,0 			"/>
		</g>
	</g>
	<g id="Layer_4_25_">
	</g>
</symbol>
<symbol  id="FlashAICB_x2F_Layer_1_x2F__x3C_Clip_Group_0_x3E__x5F_6" viewBox="0 -42.2 41.35 42.2">
	<g id="Layer_1_41_">
	</g>
	<g>
		<defs>
			<polygon id="SVGID_69_" points="0.2,-0.2 0.2,-41.35 41.1,-41.35 41.1,-0.2 			"/>
		</defs>
		<clipPath id="SVGID_70_">
			<use xlink:href="#SVGID_69_"  style="overflow:visible;"/>
		</clipPath>
		<g id="Layer_3_33_" style="clip-path:url(#SVGID_70_);">
			
				<use xlink:href="#FlashAICB_x2F_Layer_1_x2F__x3C_Clip_Group_0_x3E__x5F_7"  width="41.35" height="42.2" y="-42.2" style="overflow:visible;"/>
		</g>
	</g>
	<g id="Layer_4_33_">
	</g>
</symbol>
<symbol  id="FlashAICB_x2F_Layer_1_x2F__x3C_Clip_Group_0_x3E__x5F_6_x5F_0" viewBox="0 -1.65 1.6 1.65">
	<g id="Layer_1_26_">
	</g>
	<g>
		<defs>
			<path id="SVGID_71_" d="M0.95-0.3l-0.1,0.1c-0.133,0-0.267-0.117-0.4-0.35C0.283-0.783,0.217-0.967,0.25-1.1
				c0-0.267,0.167-0.316,0.5-0.15C1.05-1.083,1.117-0.767,0.95-0.3z"/>
		</defs>
		<clipPath id="SVGID_72_">
			<use xlink:href="#SVGID_71_"  style="overflow:visible;"/>
		</clipPath>
		<g id="Layer_3_24_" style="clip-path:url(#SVGID_72_);">
			<linearGradient id="SVGID_73_" gradientUnits="userSpaceOnUse" x1="0.8994" y1="-1.3877" x2="0.6994" y2="-0.3127">
				<stop  offset="0" style="stop-color:#F7B149"/>
				<stop  offset="1" style="stop-color:#B57C3D"/>
			</linearGradient>
			<polygon style="fill-rule:evenodd;clip-rule:evenodd;fill:url(#SVGID_73_);" points="0.25,-1.65 0,-0.25 1.3,0 1.6,-1.4 			"/>
		</g>
	</g>
	<g id="Layer_4_24_">
	</g>
</symbol>
<symbol  id="FlashAICB_x2F_Layer_1_x2F__x3C_Clip_Group_0_x3E__x5F_7" viewBox="0 -42.2 41.35 42.2">
	<g id="Layer_1_8_">
	</g>
	<g>
		<defs>
			<path id="SVGID_74_" d="M41.05-7.45c-0.033,1.133-0.316,2.5-0.85,4.1c-0.4,1.267-0.767,2.167-1.1,2.7L38.95-0.6
				c-0.1-0.933-1.967-1.717-5.6-2.35C29.75-3.583,25.4-3.9,20.3-3.9c-5.167,0-9.583,0.333-13.25,1c-3.667,0.633-5.5,1.417-5.5,2.35
				C1.55-0.417,1.6-0.3,1.7-0.2H1.55C1.317-0.7,1.1-1.45,0.9-2.45C0.433-4.417,0.2-6.667,0.2-9.2V-35c0.6-1.167,1.933-2.3,4-3.4
				c4.1-2.233,9.833-3.2,17.2-2.9c6.333,0.233,11.467,1.267,15.4,3.1c1.967,0.934,3.3,1.833,4,2.7
				C41.067-18.533,41.15-9.183,41.05-7.45z"/>
		</defs>
		<clipPath id="SVGID_75_">
			<use xlink:href="#SVGID_74_"  style="overflow:visible;"/>
		</clipPath>
		<g id="Layer_3_6_" style="clip-path:url(#SVGID_75_);">
			<radialGradient id="SVGID_76_" cx="18.75" cy="-44.4502" r="42.8879" gradientUnits="userSpaceOnUse">
				<stop  offset="0" style="stop-color:#EF731E"/>
				<stop  offset="1" style="stop-color:#CC6E24"/>
			</radialGradient>
			<polygon style="fill-rule:evenodd;clip-rule:evenodd;fill:url(#SVGID_76_);" points="41.2,-42.2 0,-42 0.2,0 41.35,-0.2 			"/>
		</g>
	</g>
	<g id="Layer_4_6_">
	</g>
</symbol>
<symbol  id="FlashAICB_x2F_Layer_1_x2F__x3C_Clip_Group_0_x3E__x5F_7_x5F_0" viewBox="0 -1.55 1.25 1.55">
	<g id="Layer_1_25_">
	</g>
	<g>
		<defs>
			<path id="SVGID_77_" d="M0.75-0.15c-0.267,0-0.417-0.217-0.45-0.65C0.267-1.133,0.383-1.217,0.65-1.05
				c0.233,0.167,0.333,0.383,0.3,0.65C0.95-0.233,0.883-0.15,0.75-0.15z"/>
		</defs>
		<clipPath id="SVGID_78_">
			<use xlink:href="#SVGID_77_"  style="overflow:visible;"/>
		</clipPath>
		<g id="Layer_3_23_" style="clip-path:url(#SVGID_78_);">
			<linearGradient id="SVGID_79_" gradientUnits="userSpaceOnUse" x1="0.6978" y1="-1.1729" x2="0.5228" y2="-0.2229">
				<stop  offset="0" style="stop-color:#F7B149"/>
				<stop  offset="1" style="stop-color:#B57C3D"/>
			</linearGradient>
			<polygon style="fill-rule:evenodd;clip-rule:evenodd;fill:url(#SVGID_79_);" points="0.25,-1.55 0,-0.2 1,0 1.25,-1.4 			"/>
		</g>
	</g>
	<g id="Layer_4_23_">
	</g>
</symbol>
<symbol  id="FlashAICB_x2F_Layer_1_x2F__x3C_Clip_Group_0_x3E__x5F_8" viewBox="0 -6.7 37.45 6.7">
	<g id="Layer_1_9_">
	</g>
	<g>
		<defs>
			<polygon id="SVGID_80_" points="0.05,0 0.05,-6.7 37.45,-6.7 37.45,0 			"/>
		</defs>
		<clipPath id="SVGID_81_">
			<use xlink:href="#SVGID_80_"  style="overflow:visible;"/>
		</clipPath>
		<g id="Layer_3_7_" style="clip-path:url(#SVGID_81_);">
			<path style="fill-rule:evenodd;clip-rule:evenodd;fill:#F9953D;" d="M37.45-3.35c0-0.933-1.833-1.717-5.5-2.35
				c-3.633-0.667-8.034-1-13.2-1S9.167-6.367,5.5-5.7C1.833-5.067,0-4.283,0-3.35C0-2.417,1.833-1.633,5.5-1
				c3.667,0.667,8.083,1,13.25,1s9.567-0.333,13.2-1C35.617-1.633,37.45-2.417,37.45-3.35z"/>
		</g>
	</g>
	<g id="Layer_4_7_">
	</g>
</symbol>
<symbol  id="FlashAICB_x2F_Layer_1_x2F__x3C_Clip_Group_0_x3E__x5F_8_x5F_0" viewBox="0 -2.25 2.2 2.25">
	<g id="Layer_1_24_">
	</g>
	<g>
		<defs>
			<path id="SVGID_82_" d="M1.4-0.4L1.1-0.25c-0.2,0-0.367-0.15-0.5-0.45C0.467-1,0.467-1.25,0.6-1.45c0.2-0.3,0.433-0.283,0.7,0.05
				C1.6-1.067,1.633-0.733,1.4-0.4z"/>
		</defs>
		<clipPath id="SVGID_83_">
			<use xlink:href="#SVGID_82_"  style="overflow:visible;"/>
		</clipPath>
		<g id="Layer_3_22_" style="clip-path:url(#SVGID_83_);">
			<linearGradient id="SVGID_84_" gradientUnits="userSpaceOnUse" x1="1.2144" y1="-1.7393" x2="0.9644" y2="-0.3643">
				<stop  offset="0" style="stop-color:#F7B149"/>
				<stop  offset="1" style="stop-color:#B57C3D"/>
			</linearGradient>
			<polygon style="fill-rule:evenodd;clip-rule:evenodd;fill:url(#SVGID_84_);" points="0.35,-2.25 0,-0.3 1.85,0 2.2,-1.9 			"/>
		</g>
	</g>
	<g id="Layer_4_22_">
	</g>
</symbol>
<symbol  id="FlashAICB_x2F_Layer_1_x2F__x3C_Clip_Group_0_x3E__x5F_9" viewBox="0 -50.15 18.3 50.15">
	<g id="Layer_1_43_">
	</g>
	<g>
		<defs>
			<polygon id="SVGID_85_" points="0.25,-0.25 0.25,-50.15 18.3,-50.15 18.3,-0.25 			"/>
		</defs>
		<clipPath id="SVGID_86_">
			<use xlink:href="#SVGID_85_"  style="overflow:visible;"/>
		</clipPath>
		<g id="Layer_3_34_" style="clip-path:url(#SVGID_86_);">
			
				<use xlink:href="#FlashAICB_x2F_Layer_1_x2F__x3C_Clip_Group_0_x3E__x5F_10"  width="18.3" height="50.15" y="-50.15" style="overflow:visible;"/>
		</g>
	</g>
	<g id="Layer_4_34_">
	</g>
</symbol>
<symbol  id="FlashAICB_x2F_Layer_1_x2F__x3C_Clip_Group_0_x3E__x5F_9_x5F_0" viewBox="0 -1.85 1.35 1.85">
	<g id="Layer_1_23_">
	</g>
	<g>
		<defs>
			<path id="SVGID_87_" d="M0.75-0.15c-0.1,0-0.2-0.067-0.3-0.2C0.317-0.483,0.267-0.617,0.3-0.75c0-0.3,0.117-0.467,0.35-0.5
				C0.917-1.283,1.033-1.033,1-0.5C1-0.267,0.917-0.15,0.75-0.15z"/>
		</defs>
		<clipPath id="SVGID_88_">
			<use xlink:href="#SVGID_87_"  style="overflow:visible;"/>
		</clipPath>
		<g id="Layer_3_21_" style="clip-path:url(#SVGID_88_);">
			<linearGradient id="SVGID_89_" gradientUnits="userSpaceOnUse" x1="0.7607" y1="-1.3979" x2="0.5607" y2="-0.2979">
				<stop  offset="0" style="stop-color:#F7B149"/>
				<stop  offset="1" style="stop-color:#B57C3D"/>
			</linearGradient>
			<polygon style="fill-rule:evenodd;clip-rule:evenodd;fill:url(#SVGID_89_);" points="0.3,-1.85 0,-0.2 1.05,0 1.35,-1.65 			"/>
		</g>
	</g>
	<g id="Layer_4_21_">
	</g>
</symbol>
<symbol  id="FlashAICB_x2F_Layer_1_x2F__x3C_Group_x3E_" viewBox="0 -9.15 1.95 9.15">
	<g id="Layer_1_50_">
		<g>
			
				<use xlink:href="#FlashAICB_x2F_Layer_1_x2F__x3C_Clip_Group_0_x3E__x5F_19"  width="1.95" height="9.15" y="-9.15" style="overflow:visible;"/>
		</g>
	</g>
</symbol>
<symbol  id="FlashAICB_x2F_Layer_1_x2F__x3C_Group_x3E__x5F_10" viewBox="0 -42.2 41.35 42.2">
	<g id="Layer_1_54_">
		<g>
			
				<use xlink:href="#FlashAICB_x2F_Layer_1_x2F__x3C_Clip_Group_0_x3E__x5F_6"  width="41.35" height="42.2" y="-42.2" style="overflow:visible;"/>
		</g>
	</g>
</symbol>
<symbol  id="FlashAICB_x2F_Layer_1_x2F__x3C_Group_x3E__x5F_11" viewBox="0 -68.25 44.9 68.25">
	<g id="Layer_1_53_">
		<g>
			
				<use xlink:href="#FlashAICB_x2F_Layer_1_x2F__x3C_Clip_Group_0_x3E__x5F_4"  width="44.9" height="68.25" y="-68.25" style="overflow:visible;"/>
		</g>
	</g>
</symbol>
<symbol  id="FlashAICB_x2F_Layer_1_x2F__x3C_Group_x3E__x5F_12" viewBox="0 -2.25 0.8 2.278">
	<g id="Layer_1_39_">
		<g>
			
				<use xlink:href="#FlashAICB_x2F_Layer_1_x2F__x3C_Clip_Group_0_x3E__x5F_3"  width="0.8" height="2.278" y="-2.25" style="overflow:visible;"/>
		</g>
	</g>
</symbol>
<symbol  id="FlashAICB_x2F_Layer_1_x2F__x3C_Group_x3E__x5F_13" viewBox="0 -9.3 6.85 9.3">
	<g id="Layer_1_38_">
		<g>
			
				<use xlink:href="#FlashAICB_x2F_Layer_1_x2F__x3C_Clip_Group_0_x3E__x5F_2"  width="6.85" height="9.3" y="-9.3" style="overflow:visible;"/>
		</g>
	</g>
</symbol>
<symbol  id="FlashAICB_x2F_Layer_1_x2F__x3C_Group_x3E__x5F_14" viewBox="0 -26.15 20.6 26.166">
	<g id="Layer_1_37_">
		<g>
			
				<use xlink:href="#FlashAICB_x2F_Layer_1_x2F__x3C_Clip_Group_0_x3E__x5F_1"  width="20.6" height="26.166" y="-26.15" style="overflow:visible;"/>
		</g>
	</g>
</symbol>
<symbol  id="FlashAICB_x2F_Layer_1_x2F__x3C_Group_x3E__x5F_15" viewBox="0 -26.65 21.7 26.65">
	<g id="Layer_1_52_">
		<g>
			
				<use xlink:href="#FlashAICB_x2F_Layer_1_x2F__x3C_Clip_Group_0_x3E_"  width="21.7" height="26.65" y="-26.65" style="overflow:visible;"/>
		</g>
	</g>
</symbol>
<symbol  id="FlashAICB_x2F_Layer_1_x2F__x3C_Group_x3E__x5F_2" viewBox="0 -4.256 9.25 4.278">
	<g id="Layer_1_49_">
		<g>
			
				<use xlink:href="#FlashAICB_x2F_Layer_1_x2F__x3C_Clip_Group_0_x3E__x5F_18"  width="9.25" height="4.278" y="-4.256" style="overflow:visible;"/>
		</g>
	</g>
</symbol>
<symbol  id="FlashAICB_x2F_Layer_1_x2F__x3C_Group_x3E__x5F_2_x5F_0" viewBox="0 -66.434 119.25 66.434">
	<g id="Layer_1_51_">
		<g>
			
				<use xlink:href="#FlashAICB_x2F_Layer_1_x2F__x3C_Path_x3E__x5F_1_x5F_0"  width="119.25" height="60.45" y="-60.45" style="overflow:visible;opacity:0.1992;enable-background:new    ;"/>
			
				<use xlink:href="#FlashAICB_x2F_Layer_1_x2F__x3C_Path_x3E__x5F_0"  width="119.25" height="66.434" y="-66.434" style="overflow:visible;opacity:0.1211;enable-background:new    ;"/>
		</g>
	</g>
</symbol>
<symbol  id="FlashAICB_x2F_Layer_1_x2F__x3C_Group_x3E__x5F_3" viewBox="-0.003 -4.1 4.861 4.1">
	<g id="Layer_1_48_">
		<g>
			
				<use xlink:href="#FlashAICB_x2F_Layer_1_x2F__x3C_Clip_Group_0_x3E__x5F_17"  width="4.861" height="4.1" x="-0.003" y="-4.1" style="overflow:visible;"/>
		</g>
	</g>
</symbol>
<symbol  id="FlashAICB_x2F_Layer_1_x2F__x3C_Group_x3E__x5F_4" viewBox="0 -2.2 13.85 2.22">
	<g id="Layer_1_47_">
		<g>
			
				<use xlink:href="#FlashAICB_x2F_Layer_1_x2F__x3C_Clip_Group_0_x3E__x5F_16"  width="13.85" height="2.22" y="-2.2" style="overflow:visible;"/>
		</g>
	</g>
</symbol>
<symbol  id="FlashAICB_x2F_Layer_1_x2F__x3C_Group_x3E__x5F_5" viewBox="-0.025 -6.65 34.275 6.664">
	<g id="Layer_1_46_">
		<g>
			
				<use xlink:href="#FlashAICB_x2F_Layer_1_x2F__x3C_Clip_Group_0_x3E__x5F_15"  width="34.275" height="6.664" x="-0.025" y="-6.65" style="overflow:visible;"/>
		</g>
	</g>
</symbol>
<symbol  id="FlashAICB_x2F_Layer_1_x2F__x3C_Group_x3E__x5F_6" viewBox="0 -68.05 44.2 68.05">
	<g id="Layer_1_45_">
		<g>
			
				<use xlink:href="#FlashAICB_x2F_Layer_1_x2F__x3C_Clip_Group_0_x3E__x5F_13"  width="44.2" height="68.05" y="-68.05" style="overflow:visible;"/>
		</g>
	</g>
</symbol>
<symbol  id="FlashAICB_x2F_Layer_1_x2F__x3C_Group_x3E__x5F_7" viewBox="-0.038 -54.25 6.888 54.253">
	<g id="Layer_1_56_">
		<g>
			
				<use xlink:href="#FlashAICB_x2F_Layer_1_x2F__x3C_Clip_Group_0_x3E__x5F_11"  width="6.888" height="54.253" x="-0.038" y="-54.25" style="overflow:visible;"/>
		</g>
	</g>
</symbol>
<symbol  id="FlashAICB_x2F_Layer_1_x2F__x3C_Group_x3E__x5F_8" viewBox="0 -50.15 18.3 50.15">
	<g id="Layer_1_55_">
		<g>
			
				<use xlink:href="#FlashAICB_x2F_Layer_1_x2F__x3C_Clip_Group_0_x3E__x5F_9"  width="18.3" height="50.15" y="-50.15" style="overflow:visible;"/>
		</g>
	</g>
</symbol>
<symbol  id="FlashAICB_x2F_Layer_1_x2F__x3C_Group_x3E__x5F_9" viewBox="0 -6.7 37.45 6.7">
	<g id="Layer_1_42_">
		<g>
			
				<use xlink:href="#FlashAICB_x2F_Layer_1_x2F__x3C_Clip_Group_0_x3E__x5F_8"  width="37.45" height="6.7" y="-6.7" style="overflow:visible;"/>
		</g>
	</g>
</symbol>
<symbol  id="FlashAICB_x2F_Layer_1_x2F__x3C_Path_x3E_" viewBox="0 -61.9 128.65 61.9">
	<g id="Layer_1_33_">
		
			<radialGradient id="SVGID_90_" cx="64.3252" cy="-30.9502" r="50.4757" gradientTransform="matrix(1 0 0 -1 0 -61.9004)" gradientUnits="userSpaceOnUse">
			<stop  offset="0" style="stop-color:#CCEFE7;stop-opacity:0"/>
			<stop  offset="0.0745" style="stop-color:#C8E9DC;stop-opacity:0.0588"/>
			<stop  offset="0.2039" style="stop-color:#BFDAC1;stop-opacity:0.2196"/>
			<stop  offset="0.3725" style="stop-color:#AFC293;stop-opacity:0.4824"/>
			<stop  offset="0.5725" style="stop-color:#9AA055;stop-opacity:0.8431"/>
			<stop  offset="0.651" style="stop-color:#92913B"/>
		</radialGradient>
		<path style="fill-rule:evenodd;clip-rule:evenodd;fill:url(#SVGID_90_);" d="M128.05-0.3l0.6,0.3
			c-0.667-17.233-7.217-31.85-19.65-43.85C96.533-55.883,81.617-61.9,64.25-61.9c-17.033,0-31.733,5.816-44.1,17.45
			C7.817-32.883,1.1-18.683,0-1.85c5-13,13.217-23.5,24.65-31.5c11.7-8.2,24.733-12.3,39.1-12.3c14.633,0,27.883,4.25,39.75,12.75
			C115.1-24.567,123.283-13.7,128.05-0.3z"/>
	</g>
</symbol>
<symbol  id="FlashAICB_x2F_Layer_1_x2F__x3C_Path_x3E__x5F_0" viewBox="0 -66.434 119.25 66.434">
	<g id="Layer_1_35_">
		<path style="fill-rule:evenodd;clip-rule:evenodd;fill:#FFFFFF;" d="M115.4-37.25c2.567-6.1,3.85-11.85,3.85-17.25
			c0-5.367-1.567-8.75-4.7-10.15c-2.533-1.133-6.783-1.117-12.75,0.05c-7.9,1.9-14.233,3.367-19,4.4
			c-8.667,1.833-16.4,2.75-23.2,2.75c-6.833,0-14.567-1-23.2-3c-9.033-2.367-15.35-3.966-18.95-4.8c-6-1.367-10.25-1.55-12.75-0.55
			C1.567-64.533,0-61.217,0-55.85c0,5.934,1.267,12.083,3.8,18.45c2.7,6.667,6.467,12.7,11.3,18.1C26.733-6.433,41.567,0,59.6,0
			c17.833,0,32.65-6.5,44.45-19.5C108.917-24.833,112.7-30.75,115.4-37.25z"/>
	</g>
</symbol>
<symbol  id="FlashAICB_x2F_Layer_1_x2F__x3C_Path_x3E__x5F_1" viewBox="0 -128.55 128.8 128.55">
	<g id="Layer_1_2_">
		
			<radialGradient id="SVGID_91_" cx="64.3999" cy="-64.2749" r="64.3374" gradientTransform="matrix(1 0 0 -1 0 -128.5498)" gradientUnits="userSpaceOnUse">
			<stop  offset="0" style="stop-color:#CCEFE7"/>
			<stop  offset="0.0863" style="stop-color:#C2E8E0"/>
			<stop  offset="0.2392" style="stop-color:#A6D6CF"/>
			<stop  offset="0.4353" style="stop-color:#7BB8B2"/>
			<stop  offset="0.6078" style="stop-color:#519A96"/>
			<stop  offset="0.8039" style="stop-color:#539A96"/>
			<stop  offset="0.8745" style="stop-color:#589A96"/>
			<stop  offset="0.9255" style="stop-color:#629B96"/>
			<stop  offset="0.9686" style="stop-color:#719B96"/>
			<stop  offset="1" style="stop-color:#839C96"/>
		</radialGradient>
		<path style="fill-rule:evenodd;clip-rule:evenodd;fill:url(#SVGID_91_);" d="M128.8-64.25c0-17.767-6.283-32.933-18.85-45.5
			c-12.567-12.533-27.75-18.8-45.55-18.8c-17.767,0-32.95,6.267-45.55,18.8C6.283-97.183,0-82.017,0-64.25
			C0-46.517,6.283-31.367,18.85-18.8C31.45-6.267,46.633,0,64.4,0c17.8,0,32.983-6.267,45.55-18.8
			C122.517-31.333,128.8-46.483,128.8-64.25z"/>
	</g>
</symbol>
<symbol  id="FlashAICB_x2F_Layer_1_x2F__x3C_Path_x3E__x5F_1_x5F_0" viewBox="0 -60.45 119.25 60.45">
	<g id="Layer_1_34_">
		
			<linearGradient id="SVGID_92_" gradientUnits="userSpaceOnUse" x1="16160.6563" y1="-58.4917" x2="16221.0479" y2="-58.4917" gradientTransform="matrix(1.654944e-005 1 -1 -0.001 0.8657 -16221.1064)">
			<stop  offset="0.1294" style="stop-color:#E2B8B2"/>
			<stop  offset="0.9255" style="stop-color:#FFFFFF"/>
		</linearGradient>
		<path style="fill-rule:evenodd;clip-rule:evenodd;fill:url(#SVGID_92_);" d="M104.05-19.5c4.867-5.333,8.65-11.25,11.35-17.75
			c2.567-6.1,3.85-11.85,3.85-17.25c0-1.8-0.183-3.4-0.55-4.8c-2,11.966-7.85,22.6-17.55,31.9c-11.433,11-25.283,16.5-41.55,16.5
			c-16.5,0-30.4-5.483-41.7-16.45C8.133-36.783,2.333-47.817,0.5-60.45C0.167-59.217,0-57.683,0-55.85
			c0,5.934,1.267,12.083,3.8,18.45c2.7,6.667,6.467,12.7,11.3,18.1C26.733-6.433,41.567,0,59.6,0C77.433,0,92.25-6.5,104.05-19.5z"
			/>
	</g>
</symbol>
<g>
	<path style="fill-rule:evenodd;clip-rule:evenodd;fill:#FFFFFF;" d="M171.7,85.9c0,11.633-2.25,22.767-6.75,33.4
		c-4.367,10.267-10.5,19.367-18.4,27.3c-7.934,7.934-17.05,14.084-27.35,18.45c-10.634,4.5-21.767,6.75-33.4,6.75
		c-11.633,0-22.767-2.25-33.4-6.75c-10.267-4.366-19.35-10.517-27.25-18.45c-7.933-7.933-14.066-17.033-18.4-27.3
		C2.25,108.667,0,97.533,0,85.9s2.25-22.767,6.75-33.4c4.333-10.267,10.467-19.367,18.4-27.3c7.934-7.934,17.017-14.083,27.25-18.45
		C63.033,2.25,74.167,0,85.8,0c11.634,0,22.767,2.25,33.4,6.75c10.3,4.367,19.416,10.517,27.35,18.45
		c7.9,7.933,14.033,17.033,18.4,27.3C169.45,63.133,171.7,74.267,171.7,85.9z"/>
	<g>
		<g>
			
				<linearGradient id="SVGID_93_" gradientUnits="userSpaceOnUse" x1="-157.6851" y1="85.8506" x2="-14.2856" y2="85.8506" gradientTransform="matrix(6.973501e-006 -1 1 -0.001 -1.064519e-004 4.449275e-004)">
				<stop  offset="0.0745" style="stop-color:#495936"/>
				<stop  offset="0.2863" style="stop-color:#58732C"/>
				<stop  offset="0.4784" style="stop-color:#698E22"/>
				<stop  offset="1" style="stop-color:#FDE1E1"/>
			</linearGradient>
			<path style="fill-rule:evenodd;clip-rule:evenodd;fill:url(#SVGID_93_);" d="M151.9,113.8c-3.634,8.566-8.767,16.167-15.4,22.8
				c-6.634,6.601-14.233,11.717-22.8,15.351c-8.9,3.767-18.2,5.649-27.9,5.649c-9.7,0-19-1.883-27.9-5.649
				c-8.566-3.634-16.15-8.75-22.75-15.351c-6.6-6.633-11.717-14.233-15.35-22.8c-3.767-8.899-5.65-18.2-5.65-27.9
				s1.883-19,5.65-27.9c3.6-8.567,8.717-16.167,15.35-22.8c6.6-6.6,14.184-11.717,22.75-15.35c8.9-3.767,18.2-5.65,27.9-5.65
				c9.7,0,19,1.883,27.9,5.65c8.566,3.633,16.166,8.75,22.8,15.35c6.634,6.633,11.767,14.233,15.4,22.8
				c3.767,8.9,5.649,18.2,5.649,27.9S155.667,104.9,151.9,113.8z"/>
			<path style="fill-rule:evenodd;clip-rule:evenodd;fill:#21230C;" d="M151.1,113.45c3.7-8.767,5.551-17.95,5.551-27.55
				S154.8,67.117,151.1,58.35c-3.6-8.467-8.666-15.967-15.199-22.5C122.066,22.017,105.366,15.1,85.8,15.1
				c-9.6,0-18.783,1.85-27.55,5.55c-8.467,3.6-15.967,8.667-22.5,15.2c-6.5,6.533-11.55,14.033-15.15,22.5
				c-3.7,8.767-5.55,17.95-5.55,27.55s1.85,18.784,5.55,27.55c3.566,8.467,8.617,15.967,15.15,22.5s14.033,11.6,22.5,15.2
				c8.767,3.699,17.95,5.55,27.55,5.55c9.634,0,18.834-1.851,27.601-5.55c8.466-3.601,15.966-8.667,22.5-15.2
				C142.434,129.417,147.5,121.917,151.1,113.45z M158.45,85.9c0,9.7-1.834,18.966-5.5,27.8c-3.667,8.8-8.934,16.649-15.8,23.55
				c-6.834,6.866-14.684,12.116-23.551,15.75c-8.833,3.667-18.1,5.5-27.8,5.5c-9.7,0-18.966-1.833-27.8-5.5
				c-8.833-3.634-16.683-8.884-23.55-15.75c-6.833-6.833-12.083-14.684-15.75-23.55c-3.633-8.834-5.45-18.101-5.45-27.8
				s1.817-18.967,5.45-27.8c3.667-8.867,8.917-16.717,15.75-23.55C41.317,27.683,49.167,22.433,58,18.8
				c8.833-3.667,18.1-5.5,27.8-5.5c9.7,0,18.967,1.833,27.8,5.5c8.867,3.667,16.717,8.917,23.551,15.75
				c6.866,6.867,12.133,14.717,15.8,23.55C156.616,66.933,158.45,76.2,158.45,85.9z"/>
		</g>
		
			<use xlink:href="#FlashAICB_x2F_Layer_1_x2F__x3C_Path_x3E__x5F_1"  width="128.8" height="128.55" y="-128.55" transform="matrix(1 0 0 -1 21.3999 19.2998)" style="overflow:visible;opacity:0.3789;enable-background:new    ;"/>
		<g>
			<g>
				<path style="fill-rule:evenodd;clip-rule:evenodd;fill:#EFF4D9;" d="M94.3,29.5c0.367,0.467,0.55,0.95,0.55,1.45
					c0,0.367-0.233,1.083-0.699,2.15l-8,16.25c-0.5,1-0.884,1.633-1.15,1.9c-0.367,0.333-0.883,0.5-1.55,0.5
					c-0.833,0-1.5-0.267-2-0.8c-0.467-0.434-0.7-0.917-0.7-1.45c0-0.333,0.117-0.717,0.35-1.15l8.05-15.25H80.9
					c-0.8,0-1.417-0.233-1.85-0.7c-0.367-0.4-0.55-0.917-0.55-1.55c0-1.467,0.8-2.2,2.4-2.2h11.65
					C93.283,28.65,93.866,28.933,94.3,29.5z"/>
			</g>
			<g>
				
					<linearGradient id="SVGID_94_" gradientUnits="userSpaceOnUse" x1="-50.833" y1="86.6758" x2="-27.7305" y2="86.6758" gradientTransform="matrix(4.324325e-005 -1 1 -0.001 -2.319270e-005 4.439838e-004)">
					<stop  offset="0.149" style="stop-color:#0E2904"/>
					<stop  offset="0.302" style="stop-color:#143004"/>
					<stop  offset="0.5176" style="stop-color:#244304"/>
					<stop  offset="0.7765" style="stop-color:#3E6206"/>
					<stop  offset="0.9686" style="stop-color:#567E09"/>
				</linearGradient>
				<path style="fill-rule:evenodd;clip-rule:evenodd;fill:url(#SVGID_94_);" d="M94.3,28.5c0.367,0.467,0.55,0.95,0.55,1.45
					c0,0.367-0.233,1.083-0.699,2.15l-8,16.25c-0.5,1-0.884,1.633-1.15,1.9c-0.367,0.333-0.883,0.5-1.55,0.5
					c-0.833,0-1.5-0.267-2-0.8c-0.467-0.434-0.7-0.917-0.7-1.45c0-0.333,0.117-0.717,0.35-1.15l8.05-15.25H80.9
					c-0.8,0-1.417-0.233-1.85-0.7c-0.367-0.4-0.55-0.917-0.55-1.55c0-1.467,0.8-2.2,2.4-2.2h11.65
					C93.283,27.65,93.866,27.933,94.3,28.5z"/>
			</g>
		</g>
		<g>
			<path style="fill-rule:evenodd;clip-rule:evenodd;fill:#B9CF7E;" d="M77.35,62.4c-0.167-0.5-0.25-0.967-0.25-1.4
				c0-0.4,0.083-0.817,0.25-1.25c0.8-2.633,3.683-3.95,8.65-3.95c4.366,0,7.134,1.034,8.3,3.1c0.367,0.633,0.55,1.317,0.55,2.05V61
				l-0.35,2.45c0.333,0.566,0.5,1.233,0.5,2c0,0.367-0.05,0.716-0.15,1.05v9.6l-0.05,0.45c1.033,1,2.3,1.667,3.8,2
				c3.267,0.667,5.967,2.3,8.101,4.9c2.833,3.366,4.55,8.25,5.149,14.649l0.2,1.15c0.134,0.467,0.2,0.85,0.2,1.15v1.5
				c0.066,1.666,0.066,3.433,0,5.3v10.35c0,0.267-0.066,0.667-0.2,1.2v11.15c0,3.699-2.416,6.716-7.25,9.05
				c-4.8,2.333-11.033,3.5-18.7,3.5c-7.667,0-13.917-1.167-18.75-3.5c-4.833-2.334-7.25-5.351-7.25-9.05c0-0.5,0.05-1,0.15-1.5
				V99.05c0-0.399,0.083-0.85,0.25-1.35c0.167-1.634,0.417-3.184,0.75-4.65L60.8,91.9c-1.367-3.7-1.95-7.351-1.75-10.95
				c0.167-3.6,1.067-6.633,2.7-9.1c2.267-3.4,5.5-5.233,9.7-5.5h1c1.6,0,3.183,0.183,4.75,0.55v-0.45l-0.1-1
				c0-0.7,0.167-1.383,0.5-2.05L77.35,62.4z"/>
			<g>
				
					<linearGradient id="SVGID_95_" gradientUnits="userSpaceOnUse" x1="-141.7856" y1="85.6377" x2="-54.8354" y2="85.6377" gradientTransform="matrix(1.150417e-005 -1 1 -0.001 0 4.449275e-004)">
					<stop  offset="0" style="stop-color:#374821"/>
					<stop  offset="0.1255" style="stop-color:#415226"/>
					<stop  offset="0.3412" style="stop-color:#5C6E36"/>
					<stop  offset="0.6235" style="stop-color:#889A50"/>
					<stop  offset="0.9529" style="stop-color:#C4D773"/>
					<stop  offset="1" style="stop-color:#CDE078"/>
				</linearGradient>
				<path style="fill-rule:evenodd;clip-rule:evenodd;fill:url(#SVGID_95_);" d="M77.25,61.5C77.083,61,77,60.533,77,60.1
					c0-0.5,0.067-0.934,0.2-1.3c0.867-2.7,3.8-4.05,8.8-4.05c4.4,0,7.2,1.05,8.4,3.15C94.8,58.567,95,59.267,95,60
					c0,0.4-0.05,0.767-0.15,1.1l-0.199,1.45c0.333,0.6,0.5,1.25,0.5,1.95c0,0.367-0.051,0.75-0.15,1.15l-0.05,9.95
					c1.033,0.967,2.25,1.6,3.649,1.9c3.301,0.667,6.034,2.3,8.2,4.9c2.867,3.434,4.601,8.35,5.2,14.75l0.2,1.149
					c0.1,0.367,0.149,0.75,0.149,1.15V101c0.067,1.634,0.067,3.4,0,5.3v10.351c0,0.433-0.066,0.833-0.199,1.199v10.5l0.05,0.601
					c0,3.767-2.434,6.833-7.3,9.2c-4.867,2.366-11.134,3.55-18.801,3.55c-7.7,0-13.966-1.184-18.8-3.55
					c-4.867-2.367-7.3-5.434-7.3-9.2c0-0.434,0.05-0.934,0.15-1.5v-29.3c0-0.567,0.083-1.034,0.25-1.4
					c0.133-1.533,0.367-3.083,0.7-4.65L60.7,91c-1.367-3.7-1.967-7.35-1.8-10.95c0.167-3.633,1.083-6.683,2.75-9.15
					c2.3-3.5,5.567-5.35,9.8-5.55c0.233-0.033,0.566-0.05,1-0.05c1.533,0,3.083,0.184,4.65,0.55V65.5c-0.067-0.2-0.1-0.533-0.1-1
					c0-0.767,0.167-1.467,0.5-2.1L77.25,61.5z"/>
				
					<path style="fill-rule:evenodd;clip-rule:evenodd;fill:none;stroke:#B9CF7E;stroke-width:0.25;stroke-linejoin:round;stroke-miterlimit:3;" d="
					M77.25,61.5C77.083,61,77,60.533,77,60.1c0-0.5,0.067-0.934,0.2-1.3c0.867-2.7,3.8-4.05,8.8-4.05c4.4,0,7.2,1.05,8.4,3.15
					C94.8,58.567,95,59.267,95,60c0,0.4-0.05,0.767-0.15,1.1l-0.199,1.45c0.333,0.6,0.5,1.25,0.5,1.95c0,0.367-0.051,0.75-0.15,1.15
					l-0.05,9.95c1.033,0.967,2.25,1.6,3.649,1.9c3.301,0.667,6.034,2.3,8.2,4.9c2.867,3.434,4.601,8.35,5.2,14.75l0.2,1.149
					c0.1,0.367,0.149,0.75,0.149,1.15V101c0.067,1.634,0.067,3.4,0,5.3v10.351c0,0.433-0.066,0.833-0.199,1.199v10.5l0.05,0.601
					c0,3.767-2.434,6.833-7.3,9.2c-4.867,2.366-11.134,3.55-18.801,3.55c-7.7,0-13.966-1.184-18.8-3.55
					c-4.867-2.367-7.3-5.434-7.3-9.2c0-0.434,0.05-0.934,0.15-1.5v-29.3c0-0.567,0.083-1.034,0.25-1.4
					c0.133-1.533,0.367-3.083,0.7-4.65L60.7,91c-1.367-3.7-1.967-7.35-1.8-10.95c0.167-3.633,1.083-6.683,2.75-9.15
					c2.3-3.5,5.567-5.35,9.8-5.55c0.233-0.033,0.566-0.05,1-0.05c1.533,0,3.083,0.184,4.65,0.55V65.5c-0.067-0.2-0.1-0.533-0.1-1
					c0-0.767,0.167-1.467,0.5-2.1L77.25,61.5z"/>
			</g>
			<g>
				<path style="fill-rule:evenodd;clip-rule:evenodd;fill:#FFFFFF;" d="M67.9,81.5c-0.033,1.2,0.167,2.433,0.6,3.7
					c1.633-2.034,3.65-3.284,6.05-3.75c2.133-0.434,4-1.4,5.6-2.9c-0.566-0.733-1.233-1.333-2-1.8c-1.867-1.167-3.566-1.75-5.1-1.75
					c-1.533,0-2.767,0.583-3.7,1.75C68.45,77.917,67.967,79.5,67.9,81.5z M81.1,60.25l-0.05-0.15V60
					c0.067-0.333,0.583-0.633,1.55-0.9c0.933-0.233,2.066-0.35,3.4-0.35c1.333,0,2.467,0.117,3.4,0.35
					c0.933,0.233,1.449,0.533,1.55,0.9v0.2l-0.601,3.65c0.5,0.233,0.75,0.45,0.75,0.65l-0.149,0.3L90.9,75.2
					c-0.034,0.3-0.267,0.6-0.7,0.9c1.866,2.9,4.399,4.683,7.6,5.35c2.533,0.533,4.634,1.9,6.3,4.1c2.167,2.9,3.483,7.15,3.95,12.75
					v0.05l0.05-0.05l0.15,1.15h0.05v1.6c0.101,1.601,0.101,3.316,0,5.15v10.45l-0.149,0.149l-0.051,11.75l0.051,0.4
					c0,2.434-2.134,4.5-6.4,6.2c-4.233,1.666-9.45,2.5-15.65,2.5c-6.2,0-11.417-0.834-15.649-2.5c-4.267-1.7-6.4-3.767-6.4-6.2
					l0.15-1l-0.05-29.8l0.15,0.05c0.2-2.467,0.55-4.601,1.05-6.4L64.5,89.65c-1.133-3.067-1.65-6.101-1.55-9.101
					c0.1-3,0.783-5.483,2.05-7.45c1.567-2.333,3.783-3.583,6.65-3.75c3.667-0.167,6.833,0.733,9.5,2.7V64.8L81,64.5
					c0-0.233,0.3-0.467,0.9-0.7L81.1,60.25z"/>
				<path style="fill-rule:evenodd;clip-rule:evenodd;fill:#21230C;" d="M83.15,59.7c-0.7,0.167-1.15,0.333-1.35,0.5l0.8,3.45
					c0.066,0.367-0.083,0.633-0.45,0.8L81.8,64.6v7.45c0,0.3-0.117,0.5-0.35,0.6c-0.233,0.133-0.483,0.117-0.75-0.05
					c-2.467-1.867-5.483-2.717-9.05-2.55c-2.633,0.167-4.65,1.317-6.05,3.45c-1.233,1.867-1.883,4.233-1.95,7.1
					c-0.1,2.9,0.383,5.833,1.45,8.8l0.9,2.1c0.067,0.167,0.067,0.316,0,0.45c-0.533,2-0.867,4.1-1,6.3l-0.15,0.35v29.5l-0.15,0.851
					c0,2.2,2.1,4.083,6.3,5.649c4.167,1.567,9.2,2.351,15.1,2.351c5.867,0,10.9-0.783,15.101-2.351
					c4.166-1.566,6.25-3.449,6.25-5.649V116.8c0-0.166,0.066-0.316,0.2-0.45V106.2c0.066-1.834,0.066-3.533,0-5.101v-1.35
					l-0.101-0.25l-0.05-0.7l-0.05-0.1l-0.101-0.351c-0.433-5.399-1.683-9.5-3.75-12.3c-1.566-2.1-3.55-3.417-5.949-3.95
					c-3.4-0.7-6.084-2.583-8.051-5.65c-0.233-0.333-0.166-0.65,0.2-0.95l0.45-0.45V64.8l0.05-0.2l-0.2-0.1
					c-0.3-0.133-0.449-0.367-0.449-0.7l0.6-3.65c-0.167-0.133-0.6-0.267-1.3-0.4c-0.9-0.2-1.884-0.3-2.95-0.3
					C84.933,59.45,83.983,59.533,83.15,59.7z M80.4,59.8c0.3-1.133,2.167-1.7,5.6-1.7c3.2,0,5.033,0.5,5.5,1.5l0.15,0.45v0.05
					L91.1,63.45c0.467,0.3,0.7,0.65,0.7,1.05l-0.149,0.55L91.6,75.35c-0.1,0.367-0.267,0.65-0.5,0.85
					c1.667,2.433,3.934,3.95,6.801,4.55c2.666,0.567,4.883,1.983,6.649,4.25c2.3,2.967,3.684,7.283,4.15,12.95l0.1,0.3l0.101,0.85
					l0.1,0.351v1.6c0.1,1.634,0.1,3.351,0,5.15v10.45c0,0.166-0.066,0.316-0.2,0.449v11.45l0.05,0.4c0,2.666-2.166,4.899-6.5,6.7
					c-4.366,1.8-9.783,2.699-16.25,2.699c-6.5,0-11.917-0.899-16.25-2.699c-4.333-1.801-6.5-4.034-6.5-6.7l0.15-1.101V98.15
					c0-0.2,0.05-0.351,0.15-0.45c0.2-2.267,0.517-4.217,0.95-5.851L63.85,89.9c-1.167-3.2-1.7-6.351-1.6-9.45
					c0.1-3.1,0.833-5.667,2.2-7.7c1.7-2.567,4.083-3.933,7.15-4.1c3.3-0.133,6.25,0.567,8.85,2.1V65l-0.15-0.5
					c0-0.4,0.267-0.767,0.8-1.1l-0.75-3.3L80.4,59.8z M68.85,83.8c1.6-1.6,3.45-2.617,5.55-3.05c1.767-0.333,3.35-1.1,4.75-2.3
					c-0.467-0.467-0.917-0.833-1.35-1.1c-1.733-1.1-3.316-1.65-4.75-1.65c-1.367,0-2.433,0.517-3.2,1.55
					c-0.8,1.033-1.217,2.45-1.25,4.25C68.6,82.367,68.683,83.133,68.85,83.8z M68.5,85.9h-0.1c-0.267-0.033-0.45-0.2-0.55-0.5
					c-0.434-1.3-0.65-2.6-0.65-3.9c0.066-2.167,0.617-3.917,1.65-5.25c1.066-1.3,2.467-1.95,4.2-1.95c1.667,0,3.483,0.633,5.45,1.9
					c0.9,0.533,1.617,1.167,2.15,1.9c0.133,0.133,0.184,0.283,0.15,0.45c0,0.2-0.066,0.35-0.2,0.45c-1.667,1.6-3.633,2.633-5.9,3.1
					c-2.3,0.5-4.184,1.683-5.65,3.55C68.883,85.817,68.7,85.9,68.5,85.9z"/>
			</g>
			<g>
				
					<use xlink:href="#FlashAICB_x2F_Layer_1_x2F__x3C_Group_x3E__x5F_15"  width="21.7" height="26.65" y="-26.65" transform="matrix(1 0 0 -1 61.3999 69.3501)" style="overflow:visible;opacity:0.9102;enable-background:new    ;"/>
				
					<use xlink:href="#FlashAICB_x2F_Layer_1_x2F__x3C_Group_x3E__x5F_14"  width="20.6" height="26.166" y="-26.15" transform="matrix(1 0 0 -1 62.8999 69.3501)" style="overflow:visible;opacity:0.9102;enable-background:new    ;"/>
				
					<use xlink:href="#FlashAICB_x2F_Layer_1_x2F__x3C_Group_x3E__x5F_13"  width="6.85" height="9.3" y="-9.3" transform="matrix(1 0 0 -1 65.1499 71.2002)" style="overflow:visible;opacity:0.25;enable-background:new    ;"/>
				
					<use xlink:href="#FlashAICB_x2F_Layer_1_x2F__x3C_Group_x3E__x5F_12"  width="0.8" height="2.278" y="-2.25" transform="matrix(1 0 0 -1 64.8999 82.7002)" style="overflow:visible;opacity:0.25;enable-background:new    ;"/>
				
					<use xlink:href="#FlashAICB_x2F_Layer_1_x2F__x3C_Group_x3E__x5F_11"  width="44.9" height="68.25" y="-68.25" transform="matrix(1 0 0 -1 63.6499 69.5)" style="overflow:visible;opacity:0.7891;enable-background:new    ;"/>
				
					<use xlink:href="#FlashAICB_x2F_Layer_1_x2F__x3C_Group_x3E__x5F_10"  width="41.35" height="42.2" y="-42.2" transform="matrix(1 0 0 -1 65.6499 93.8496)" style="overflow:visible;opacity:0.5781;enable-background:new    ;"/>
				
					<use xlink:href="#FlashAICB_x2F_Layer_1_x2F__x3C_Group_x3E__x5F_9"  width="37.45" height="6.7" y="-6.7" transform="matrix(1 0 0 -1 67.2002 91.0498)" style="overflow:visible;opacity:0.5781;enable-background:new    ;"/>
				
					<use xlink:href="#FlashAICB_x2F_Layer_1_x2F__x3C_Group_x3E__x5F_8"  width="18.3" height="50.15" y="-50.15" transform="matrix(1 0 0 -1 67.75 86)" style="overflow:visible;opacity:0.4883;enable-background:new    ;"/>
				
					<use xlink:href="#FlashAICB_x2F_Layer_1_x2F__x3C_Group_x3E__x5F_7"  width="6.888" height="54.253" x="-0.038" y="-54.25" transform="matrix(1 0 0 -1 97.4004 86.6504)" style="overflow:visible;opacity:0.2188;enable-background:new    ;"/>
				
					<use xlink:href="#FlashAICB_x2F_Layer_1_x2F__x3C_Group_x3E__x5F_6"  width="44.2" height="68.05" y="-68.05" transform="matrix(1 0 0 -1 64 69.6001)" style="overflow:visible;opacity:0.9102;enable-background:new    ;"/>
				
					<use xlink:href="#FlashAICB_x2F_Layer_1_x2F__x3C_Clip_Group_0_x3E__x5F_14"  width="44.3" height="24.25" y="-24.25" transform="matrix(1 0 0 -1 64.1001 98.1504)" style="overflow:visible;"/>
				
					<use xlink:href="#FlashAICB_x2F_Layer_1_x2F__x3C_Group_x3E__x5F_5"  width="34.275" height="6.664" x="-0.025" y="-6.65" transform="matrix(1 0 0 -1 69.1499 127.25)" style="overflow:visible;opacity:0.5117;enable-background:new    ;"/>
				
					<use xlink:href="#FlashAICB_x2F_Layer_1_x2F__x3C_Group_x3E__x5F_4"  width="13.85" height="2.22" y="-2.2" transform="matrix(1 0 0 -1 76.0498 82.7998)" style="overflow:visible;opacity:0.3398;enable-background:new    ;"/>
				
					<use xlink:href="#FlashAICB_x2F_Layer_1_x2F__x3C_Group_x3E__x5F_3"  width="4.861" height="4.1" x="-0.003" y="-4.1" transform="matrix(1 0 0 -1 80 77.4502)" style="overflow:visible;opacity:0.25;enable-background:new    ;"/>
				
					<use xlink:href="#FlashAICB_x2F_Layer_1_x2F__x3C_Group_x3E__x5F_2"  width="9.25" height="4.278" y="-4.256" transform="matrix(1 0 0 -1 81.7998 74.0498)" style="overflow:visible;opacity:0.9102;enable-background:new    ;"/>
				<path style="fill-rule:evenodd;clip-rule:evenodd;fill:#4B2B16;" d="M90.1,105.1c0.534,0.7,1.233,1.75,2.101,3.15
					c0.133,0.233,0.399,0.783,0.8,1.65c0.434,0.733,0.8,1.083,1.1,1.05c0.467-0.033,1.167-1.217,2.101-3.55
					c1-2.4,1.783-3.684,2.35-3.851c0.9,0.3,0.733,1.601-0.5,3.9c-0.633,1.267-1.6,3.017-2.899,5.25c0.233,0.6,1.166,1.767,2.8,3.5
					c1.233,1.666,1.3,2.833,0.2,3.5c-0.167,0.133-0.733-0.667-1.7-2.4c-1.033-1.934-1.834-3.05-2.4-3.35
					c-0.467,0.767-1.166,2.184-2.1,4.25c-0.934,1.633-1.983,2.35-3.15,2.149c0.434-1.033,1.167-2.383,2.2-4.05
					c1.1-1.767,1.85-3.116,2.25-4.05c-0.4-0.866-1.5-2.35-3.3-4.45c-1.467-1.7-2.167-3.017-2.101-3.95
					C88.384,103.417,89.134,103.833,90.1,105.1z"/>
				<path style="fill-rule:evenodd;clip-rule:evenodd;fill:#4B2B16;" d="M85,107.3l-3.8,4.101c-0.767,0.866-1.15,1.466-1.15,1.8
					c0.034,0.2,0.2,0.483,0.5,0.85c0.367,0.467,0.583,0.75,0.65,0.851c0.2,0.333,0.5,0.85,0.9,1.55c0.533,0.7,1.167,1.616,1.9,2.75
					c0.167,0.2,0.233,0.416,0.2,0.649c-0.067,0.301-0.317,0.45-0.75,0.45c-0.3,0-0.517-0.116-0.65-0.35
					c-0.1-0.334-0.183-0.566-0.25-0.7c-0.367-0.333-0.6-0.6-0.7-0.8c-0.633-1.033-1.133-1.816-1.5-2.351
					c-0.6-0.966-1.15-1.699-1.65-2.199c-1.1,1.166-2.367,2.899-3.8,5.199c-0.033,0.101-0.1,0.233-0.2,0.4
					c-0.1,0.134-0.25,0.233-0.45,0.3c-0.533-0.166-0.9-0.416-1.1-0.75c-0.133-0.267-0.117-0.517,0.05-0.75
					c0.433-0.633,1.183-1.55,2.25-2.75c1.267-1.467,2.05-2.383,2.35-2.75c-0.6-0.767-1.533-2.05-2.8-3.85
					c-1.233-1.8-2.167-3.101-2.8-3.9c-0.1-0.166-0.267-0.533-0.5-1.1c-0.067-0.066,0.2-0.101,0.8-0.101
					c0.167,0.034,0.333,0.15,0.5,0.351c0.1,0.133,0.233,0.333,0.4,0.6l0.8,1c0.867,1.066,2.117,2.816,3.75,5.25
					c0.3,0.533,0.6,0.867,0.9,1c0.267-0.366,0.816-0.95,1.65-1.75c0.7-0.733,1.2-1.35,1.5-1.85c0.7-0.533,1.267-1.101,1.7-1.7
					c0.233-0.467,0.45-0.8,0.65-1c0.3-0.366,0.716-0.483,1.25-0.35c0.101,0.433,0.084,0.8-0.05,1.1
					C85.483,106.667,85.3,106.934,85,107.3z"/>
				<path style="fill-rule:evenodd;clip-rule:evenodd;fill:#4B2B16;" d="M106.8,101.95c0.467,0.267,0.483,1.467,0.05,3.6
					c-0.267,1.167-0.649,2.75-1.149,4.75c0.166,0.533,0.733,1.601,1.7,3.2c0.767,1.5,0.883,2.566,0.35,3.2
					c-0.066,0.133-0.4-0.601-1-2.2c-0.7-1.767-1.2-2.783-1.5-3.05c-0.2,0.733-0.467,2.033-0.8,3.899c-0.334,1.5-0.816,2.167-1.45,2
					c0.167-0.899,0.45-2.133,0.85-3.699c0.434-1.601,0.717-2.851,0.851-3.75c-0.267-0.767-0.934-2.101-2-4
					c-0.9-1.567-1.367-2.767-1.4-3.601c0.267-0.399,0.7-0.017,1.3,1.15c0,0.033,0.417,0.983,1.25,2.85l0.551,1.45
					c0.267,0.7,0.483,1.033,0.649,1c0.233-0.033,0.5-1.134,0.8-3.3C106.184,103.25,106.5,102.083,106.8,101.95z"/>
				
					<use xlink:href="#FlashAICB_x2F_Layer_1_x2F__x3C_Clip_Group_0_x3E__x5F_13_x5F_0"  width="9.35" height="12.15" y="-12.15" transform="matrix(1 0 0 -1 81.3501 64.7002)" style="overflow:visible;"/>
				<g>
					<path style="fill-rule:evenodd;clip-rule:evenodd;fill:#6B3D20;" d="M81.6,75c0.066,0.4,0.5,0.767,1.3,1.1
						c0.9,0.333,1.95,0.5,3.15,0.5c1.233,0,2.283-0.167,3.15-0.5c0.8-0.333,1.217-0.7,1.25-1.1V64.95H81.6V75z M81.1,64.45h9.85
						L90.9,75.2c-0.134,0.566-0.65,1.017-1.551,1.35c-0.933,0.367-2.033,0.55-3.3,0.55s-2.35-0.167-3.25-0.5
						c-0.933-0.333-1.483-0.783-1.65-1.35H81.1V64.45z"/>
				</g>
				
					<use xlink:href="#FlashAICB_x2F_Layer_1_x2F__x3C_Group_x3E_"  width="1.95" height="9.15" y="-9.15" transform="matrix(1 0 0 -1 82.1499 66.5498)" style="overflow:visible;opacity:0.25;enable-background:new    ;"/>
				<path style="fill-rule:evenodd;clip-rule:evenodd;fill:#AB7047;" d="M91.1,64.5c0,0.367-0.5,0.667-1.5,0.9
					c-1,0.267-2.183,0.4-3.55,0.4c-1.4,0-2.583-0.133-3.55-0.4c-1-0.233-1.5-0.533-1.5-0.9c0-0.333,0.5-0.633,1.5-0.9
					c0.967-0.233,2.15-0.35,3.55-0.35c1.4,0,2.584,0.117,3.55,0.35C90.6,63.867,91.1,64.167,91.1,64.5z"/>
				
					<use xlink:href="#FlashAICB_x2F_Layer_1_x2F__x3C_Clip_Group_0_x3E__x5F_12_x5F_0"  width="9.95" height="5.05" y="-5.05" transform="matrix(1 0 0 -1 81 60)" style="overflow:visible;"/>
				
					<use xlink:href="#FlashAICB_x2F_Layer_1_x2F__x3C_Clip_Group_0_x3E__x5F_11_x5F_0"  width="10.7" height="5.5" y="-5.5" transform="matrix(1 0 0 -1 80.6499 57.3501)" style="overflow:visible;"/>
				
					<use xlink:href="#FlashAICB_x2F_Layer_1_x2F__x3C_Clip_Group_0_x3E__x5F_10_x5F_0"  width="2.3" height="2.55" y="-2.55" transform="matrix(1 0 0 -1 81.8501 61.6499)" style="overflow:visible;"/>
				
					<use xlink:href="#FlashAICB_x2F_Layer_1_x2F__x3C_Clip_Group_0_x3E__x5F_9_x5F_0"  width="1.35" height="1.85" y="-1.85" transform="matrix(1 0 0 -1 83.2002 63)" style="overflow:visible;"/>
				
					<use xlink:href="#FlashAICB_x2F_Layer_1_x2F__x3C_Clip_Group_0_x3E__x5F_8_x5F_0"  width="2.2" height="2.25" y="-2.25" transform="matrix(1 0 0 -1 86.9004 62.25)" style="overflow:visible;"/>
				
					<use xlink:href="#FlashAICB_x2F_Layer_1_x2F__x3C_Clip_Group_0_x3E__x5F_7_x5F_0"  width="1.25" height="1.55" y="-1.55" transform="matrix(1 0 0 -1 88.7998 61.6001)" style="overflow:visible;"/>
				
					<use xlink:href="#FlashAICB_x2F_Layer_1_x2F__x3C_Clip_Group_0_x3E__x5F_6_x5F_0"  width="1.6" height="1.65" y="-1.65" transform="matrix(1 0 0 -1 89.0498 62.7998)" style="overflow:visible;"/>
				
					<use xlink:href="#FlashAICB_x2F_Layer_1_x2F__x3C_Clip_Group_0_x3E__x5F_5_x5F_0"  width="1.85" height="0.75" y="-0.75" transform="matrix(1 0 0 -1 82 59.6499)" style="overflow:visible;"/>
				
					<use xlink:href="#FlashAICB_x2F_Layer_1_x2F__x3C_Clip_Group_0_x3E__x5F_4_x5F_0"  width="1" height="0.5" y="-0.5" transform="matrix(1 0 0 -1 83.4502 59.2002)" style="overflow:visible;"/>
				
					<use xlink:href="#FlashAICB_x2F_Layer_1_x2F__x3C_Clip_Group_0_x3E__x5F_3_x5F_0"  width="1.4" height="0.7" y="-0.7" transform="matrix(1 0 0 -1 84.6001 60.5)" style="overflow:visible;"/>
				
					<use xlink:href="#FlashAICB_x2F_Layer_1_x2F__x3C_Clip_Group_0_x3E__x5F_2_x5F_0"  width="0.9" height="0.45" y="-0.45" transform="matrix(1 0 0 -1 87.9502 60.3501)" style="overflow:visible;"/>
				
					<use xlink:href="#FlashAICB_x2F_Layer_1_x2F__x3C_Clip_Group_0_x3E__x5F_1_x5F_0"  width="1.25" height="0.6" y="-0.6" transform="matrix(1 0 0 -1 87.75 59.5)" style="overflow:visible;"/>
				
					<use xlink:href="#FlashAICB_x2F_Layer_1_x2F__x3C_Clip_Group_0_x3E__x5F_20"  width="0.85" height="0.45" y="-0.45" transform="matrix(1 0 0 -1 85.7002 59.5498)" style="overflow:visible;"/>
			</g>
		</g>
		
			<use xlink:href="#FlashAICB_x2F_Layer_1_x2F__x3C_Path_x3E_"  width="128.65" height="61.9" y="-61.9" transform="matrix(1 0 0 -1 21.5498 85.9502)" style="overflow:visible;opacity:0.2813;enable-background:new    ;"/>
		
			<use xlink:href="#FlashAICB_x2F_Layer_1_x2F__x3C_Group_x3E__x5F_2_x5F_0"  width="119.25" height="66.434" y="-66.434" transform="matrix(1 0 0 -1 26.2002 22.25)" style="overflow:visible;opacity:0.8398;enable-background:new    ;"/>
		<g>
			<g>
				<g>
					<g>
						
							<linearGradient id="SVGID_96_" gradientUnits="userSpaceOnUse" x1="-57.3218" y1="58.085" x2="-25.1398" y2="58.085" gradientTransform="matrix(0.0987 -0.9951 0.9951 0.0987 1.008958e-004 2.458841e-004)">
							<stop  offset="0" style="stop-color:#374821"/>
							<stop  offset="0.1255" style="stop-color:#415226"/>
							<stop  offset="0.3412" style="stop-color:#5C6E36"/>
							<stop  offset="0.6235" style="stop-color:#889A50"/>
							<stop  offset="0.9529" style="stop-color:#C4D773"/>
							<stop  offset="1" style="stop-color:#CDE078"/>
						</linearGradient>
						<path style="fill-rule:evenodd;clip-rule:evenodd;fill:url(#SVGID_96_);" d="M69.45,39.3c-0.7,1.067-1.567,2.034-2.6,2.9
							c-2.533,2.2-4.95,3.466-7.25,3.8h-0.4l-0.15-0.1V46c-0.1,0.233-0.45,0.75-1.05,1.55c-2.067,2.667-4.183,4.367-6.35,5.1
							l-0.2,0.05c-0.034,0.2-0.25,0.883-0.65,2.05c-1.233,3.2-2.783,5.45-4.65,6.75l-0.8,0.4L44.5,62h-0.15
							c-0.4-0.033-0.8-0.167-1.2-0.4c-0.8-0.567-1.4-1.283-1.8-2.15L40.7,59.6l-0.85,0.05c-0.8-0.033-1.45-0.417-1.95-1.15
							c-0.867-1.3-1.033-2.9-0.5-4.8c0.4-1.434,1.083-2.75,2.05-3.95c1.4-1.6,3.05-2.783,4.95-3.55c-0.033-1.267,0.4-2.55,1.3-3.85
							c0.767-1.133,1.716-2.083,2.85-2.85c1.633-1.033,3.417-1.683,5.35-1.95c0.333-1.1,1.067-2.15,2.2-3.15
							c0.9-0.8,1.917-1.45,3.05-1.95c1.533-0.6,3.167-0.883,4.9-0.85c1.7,0.033,3.184,0.383,4.45,1.05
							c0.8,0.233,1.367,0.717,1.7,1.45C70.867,35.733,70.617,37.467,69.45,39.3z"/>
						
							<path style="fill-rule:evenodd;clip-rule:evenodd;fill:none;stroke:#B9CF7E;stroke-width:0.25;stroke-linejoin:round;stroke-miterlimit:3;" d="
							M69.45,39.3c-0.7,1.067-1.567,2.034-2.6,2.9c-2.533,2.2-4.95,3.466-7.25,3.8h-0.4l-0.15-0.1V46
							c-0.1,0.233-0.45,0.75-1.05,1.55c-2.067,2.667-4.183,4.367-6.35,5.1l-0.2,0.05c-0.034,0.2-0.25,0.883-0.65,2.05
							c-1.233,3.2-2.783,5.45-4.65,6.75l-0.8,0.4L44.5,62h-0.15c-0.4-0.033-0.8-0.167-1.2-0.4c-0.8-0.567-1.4-1.283-1.8-2.15
							L40.7,59.6l-0.85,0.05c-0.8-0.033-1.45-0.417-1.95-1.15c-0.867-1.3-1.033-2.9-0.5-4.8c0.4-1.434,1.083-2.75,2.05-3.95
							c1.4-1.6,3.05-2.783,4.95-3.55c-0.033-1.267,0.4-2.55,1.3-3.85c0.767-1.133,1.716-2.083,2.85-2.85
							c1.633-1.033,3.417-1.683,5.35-1.95c0.333-1.1,1.067-2.15,2.2-3.15c0.9-0.8,1.917-1.45,3.05-1.95
							c1.533-0.6,3.167-0.883,4.9-0.85c1.7,0.033,3.184,0.383,4.45,1.05c0.8,0.233,1.367,0.717,1.7,1.45
							C70.867,35.733,70.617,37.467,69.45,39.3z"/>
					</g>
				</g>
				<path style="fill-rule:evenodd;clip-rule:evenodd;fill:#21230C;" d="M68.55,34.9c0.367,0.9,0.184,1.983-0.55,3.25
					c-0.6,0.967-1.383,1.85-2.35,2.65c-2.333,2-4.433,3.117-6.3,3.35h-0.3c-0.267-0.066-0.45-0.2-0.55-0.4l-0.2-0.45
					c-0.367,1.1-0.95,2.117-1.75,3.05c-1.733,2.367-3.566,3.883-5.5,4.55l-0.2,0.05h-0.2c-0.2,0-0.383-0.083-0.55-0.25l-0.2-0.3
					c-0.033,1.2-0.316,2.417-0.85,3.65c-1,2.8-2.316,4.784-3.95,5.95l-0.25,0.1H44.8l-0.3,0.05l-0.35-0.1
					c-0.9-0.6-1.433-1.65-1.6-3.15c-0.833,0.467-1.566,0.767-2.2,0.9H40c-0.233,0-0.417-0.1-0.55-0.3
					c-0.6-0.933-0.667-2.133-0.2-3.6c0.333-1.066,0.867-2.066,1.6-3c1.767-2.033,3.816-3.183,6.15-3.45l-0.15-0.05H46.8
					c-0.233-0.133-0.383-0.3-0.45-0.5c-0.3-1.033-0.033-2.183,0.8-3.45c0.667-0.967,1.483-1.784,2.45-2.45
					c1.9-1.2,3.883-1.75,5.95-1.65V39.3c-0.1-1.1,0.4-2.183,1.5-3.25c0.8-0.8,1.75-1.433,2.85-1.9c1.333-0.533,2.733-0.767,4.2-0.7
					c1.467,0.033,2.717,0.35,3.75,0.95h0.05c0.3,0,0.5,0.167,0.6,0.5H68.55z"/>
				<g>
					<g>
						<g>
							<g>
								<g>
									<g>
										<g>
											
												<linearGradient id="SVGID_97_" gradientUnits="userSpaceOnUse" x1="-37.0947" y1="63.4155" x2="-32.1906" y2="63.4155" gradientTransform="matrix(0.0408 -0.9992 0.9992 0.0408 -8.609518e-005 -2.337247e-005)">
												<stop  offset="0.0314" style="stop-color:#8BA859"/>
												<stop  offset="0.2196" style="stop-color:#6E993F"/>
												<stop  offset="0.451" style="stop-color:#528925"/>
												<stop  offset="0.6549" style="stop-color:#428015"/>
												<stop  offset="0.7961" style="stop-color:#3C7C10"/>
											</linearGradient>
											<path style="fill-rule:evenodd;clip-rule:evenodd;fill:url(#SVGID_97_);" d="M67.5,35.1c0,0.767-0.533,1.517-1.6,2.25
												c-0.8,0.533-1.733,0.967-2.8,1.3c-2.667,0.9-4.9,1.1-6.7,0.6c0.267-0.2,0.95-0.6,2.05-1.2
												c1.133-0.633,1.95-1.133,2.45-1.5C63.133,35.083,65.333,34.6,67.5,35.1z"/>
											<path style="fill-rule:evenodd;clip-rule:evenodd;fill:#E8F6BE;" d="M56.3,39.25c-0.066-0.833,0.35-1.7,1.25-2.6
												c0.733-0.733,1.617-1.333,2.65-1.8c1.2-0.467,2.466-0.684,3.8-0.65c1.333,0.033,2.5,0.316,3.5,0.85
												c-0.867-0.167-1.817-0.083-2.85,0.25c-0.633,0.2-1.533,0.6-2.7,1.2C59.783,37.8,57.9,38.717,56.3,39.25z"/>
										</g>
										<g>
											
												<linearGradient id="SVGID_98_" gradientUnits="userSpaceOnUse" x1="-41.1113" y1="65.0601" x2="-32.5801" y2="65.0601" gradientTransform="matrix(0.0381 -0.9993 0.9993 0.0381 2.316684e-004 6.174296e-005)">
												<stop  offset="0.0314" style="stop-color:#8BA859"/>
												<stop  offset="0.2196" style="stop-color:#6E993F"/>
												<stop  offset="0.451" style="stop-color:#528925"/>
												<stop  offset="0.6549" style="stop-color:#428015"/>
												<stop  offset="0.7961" style="stop-color:#3C7C10"/>
											</linearGradient>
											<path style="fill-rule:evenodd;clip-rule:evenodd;fill:url(#SVGID_98_);" d="M67.8,35.2c0.3,0.7,0.117,1.6-0.55,2.7
												c-0.533,0.833-1.217,1.6-2.05,2.3c-2.267,1.933-4.25,3-5.95,3.2c0.167-0.3,0.65-0.95,1.45-1.95
												c0.767-1.034,1.316-1.817,1.65-2.35C63.817,36.9,65.633,35.6,67.8,35.2z"/>
											<path style="fill-rule:evenodd;clip-rule:evenodd;fill:#E8F6BE;" d="M59.2,43.4c-0.4-0.733-0.367-1.683,0.1-2.85
												c0.367-0.966,0.934-1.867,1.7-2.7c0.933-0.9,2.017-1.6,3.25-2.1c1.267-0.533,2.45-0.733,3.55-0.6
												c-0.867,0.167-1.7,0.617-2.5,1.35c-0.5,0.433-1.167,1.167-2,2.2C61.767,40.767,60.4,42.333,59.2,43.4z"/>
										</g>
									</g>
								</g>
							</g>
						</g>
					</g>
					<g>
						<g>
							<g>
								<g>
									<g>
										<g>
											
												<linearGradient id="SVGID_99_" gradientUnits="userSpaceOnUse" x1="-44.8652" y1="53.8252" x2="-38.2349" y2="53.8252" gradientTransform="matrix(0.0377 -0.9993 0.9993 0.0377 -1.283363e-005 -2.084374e-004)">
												<stop  offset="0.0314" style="stop-color:#8BA859"/>
												<stop  offset="0.2196" style="stop-color:#6E993F"/>
												<stop  offset="0.451" style="stop-color:#528925"/>
												<stop  offset="0.6549" style="stop-color:#428015"/>
												<stop  offset="0.7961" style="stop-color:#3C7C10"/>
											</linearGradient>
											<path style="fill-rule:evenodd;clip-rule:evenodd;fill:url(#SVGID_99_);" d="M57.25,40.45c0.133,0.767-0.25,1.6-1.15,2.5
												c-0.7,0.733-1.533,1.35-2.5,1.85c-2.467,1.4-4.617,2.034-6.45,1.9c0.233-0.267,0.833-0.8,1.8-1.6
												c1-0.867,1.7-1.517,2.1-1.95C52.983,41.25,55.05,40.35,57.25,40.45z"/>
											<path style="fill-rule:evenodd;clip-rule:evenodd;fill:#E8F6BE;" d="M47.1,46.7c-0.267-0.8-0.05-1.717,0.65-2.75
												c0.6-0.9,1.367-1.684,2.3-2.35c1.1-0.7,2.3-1.15,3.6-1.35c1.333-0.233,2.533-0.183,3.6,0.15
												c-0.867,0-1.783,0.267-2.75,0.8c-0.5,0.3-1.3,0.867-2.4,1.7C50.2,44.633,48.533,45.9,47.1,46.7z"/>
										</g>
										<g>
											
												<linearGradient id="SVGID_100_" gradientUnits="userSpaceOnUse" x1="-48.2671" y1="56.043" x2="-38.285" y2="56.043" gradientTransform="matrix(0.0376 -0.9993 0.9993 0.0376 -1.049601e-004 -1.880005e-004)">
												<stop  offset="0.0314" style="stop-color:#8BA859"/>
												<stop  offset="0.2196" style="stop-color:#6E993F"/>
												<stop  offset="0.451" style="stop-color:#528925"/>
												<stop  offset="0.6549" style="stop-color:#428015"/>
												<stop  offset="0.7961" style="stop-color:#3C7C10"/>
											</linearGradient>
											<path style="fill-rule:evenodd;clip-rule:evenodd;fill:url(#SVGID_100_);" d="M57.6,40.45
												c0.433,0.667,0.417,1.583-0.05,2.75c-0.367,0.933-0.9,1.833-1.6,2.7c-1.767,2.3-3.483,3.733-5.15,4.3
												c0.1-0.333,0.434-1.067,1-2.2c0.567-1.167,0.95-2.05,1.15-2.65C53.983,42.883,55.533,41.25,57.6,40.45z"/>
											<path style="fill-rule:evenodd;clip-rule:evenodd;fill:#E8F6BE;" d="M50.7,50.2c-0.534-0.633-0.684-1.567-0.45-2.8
												c0.2-1.033,0.6-2.033,1.2-3c0.733-1.1,1.65-2,2.75-2.7c1.133-0.733,2.25-1.15,3.35-1.25c-0.8,0.333-1.533,0.933-2.2,1.8
												c-0.333,0.433-0.85,1.267-1.55,2.5C52.733,47.083,51.7,48.9,50.7,50.2z"/>
										</g>
									</g>
								</g>
							</g>
						</g>
					</g>
					<g>
						<g>
							<g>
								<g>
									<g>
										<g>
											
												<linearGradient id="SVGID_101_" gradientUnits="userSpaceOnUse" x1="-55.4678" y1="46.1948" x2="-46.2861" y2="46.1948" gradientTransform="matrix(0.0381 -0.9993 0.9993 0.0381 -9.239465e-005 1.249239e-004)">
												<stop  offset="0.0314" style="stop-color:#8BA859"/>
												<stop  offset="0.2196" style="stop-color:#6E993F"/>
												<stop  offset="0.451" style="stop-color:#528925"/>
												<stop  offset="0.6549" style="stop-color:#428015"/>
												<stop  offset="0.7961" style="stop-color:#3C7C10"/>
											</linearGradient>
											<path style="fill-rule:evenodd;clip-rule:evenodd;fill:url(#SVGID_101_);" d="M48.05,48.15
												c0.367,0.7,0.25,1.617-0.35,2.75c-0.5,0.9-1.133,1.717-1.9,2.45c-2,2.066-3.883,3.3-5.65,3.7
												c1.3-1.966,2.217-3.483,2.75-4.55C44.167,50.2,45.883,48.75,48.05,48.15z"/>
											<path style="fill-rule:evenodd;clip-rule:evenodd;fill:#E8F6BE;" d="M40.1,57.05c-0.467-0.7-0.517-1.65-0.15-2.85
												c0.3-1,0.8-1.95,1.5-2.85c0.867-1,1.883-1.783,3.05-2.35c1.2-0.6,2.367-0.883,3.5-0.85c-0.833,0.233-1.633,0.75-2.4,1.55
												c-0.4,0.4-1,1.167-1.8,2.3C42.6,54,41.367,55.683,40.1,57.05z"/>
										</g>
										<g>
											
												<linearGradient id="SVGID_102_" gradientUnits="userSpaceOnUse" x1="-57.5605" y1="49.0127" x2="-46.1517" y2="49.0127" gradientTransform="matrix(0.0394 -0.9992 0.9992 0.0394 3.908575e-005 -1.376346e-004)">
												<stop  offset="0.0314" style="stop-color:#8BA859"/>
												<stop  offset="0.2196" style="stop-color:#6E993F"/>
												<stop  offset="0.451" style="stop-color:#528925"/>
												<stop  offset="0.6549" style="stop-color:#428015"/>
												<stop  offset="0.7961" style="stop-color:#3C7C10"/>
											</linearGradient>
											<path style="fill-rule:evenodd;clip-rule:evenodd;fill:url(#SVGID_102_);" d="M48.35,48.1c0.6,0.5,0.85,1.383,0.75,2.65
												c-0.067,1-0.317,2-0.75,3c-1,2.667-2.233,4.533-3.7,5.6c0.4-2.333,0.633-4.083,0.7-5.25
												C45.617,51.467,46.617,49.467,48.35,48.1z"/>
											<path style="fill-rule:evenodd;clip-rule:evenodd;fill:#E8F6BE;" d="M44.55,59.4c-0.7-0.467-1.1-1.316-1.2-2.55
												c-0.133-1.067-0.05-2.15,0.25-3.25c0.367-1.233,0.983-2.35,1.85-3.35c0.867-1.033,1.833-1.767,2.9-2.2
												c-0.7,0.567-1.233,1.367-1.6,2.4c-0.233,0.566-0.483,1.517-0.75,2.85C45.633,55.867,45.15,57.9,44.55,59.4z"/>
										</g>
									</g>
								</g>
							</g>
						</g>
					</g>
				</g>
			</g>
		</g>
		<g>
			<g>
				<g>
					<g>
						<linearGradient id="SVGID_103_" gradientUnits="userSpaceOnUse" x1="116.5498" y1="30.7388" x2="119.7248" y2="62.7638">
							<stop  offset="0" style="stop-color:#374821"/>
							<stop  offset="0.1255" style="stop-color:#415226"/>
							<stop  offset="0.3412" style="stop-color:#5C6E36"/>
							<stop  offset="0.6235" style="stop-color:#889A50"/>
							<stop  offset="0.9529" style="stop-color:#C4D773"/>
							<stop  offset="1" style="stop-color:#CDE078"/>
						</linearGradient>
						<path style="fill-rule:evenodd;clip-rule:evenodd;fill:url(#SVGID_103_);" d="M107.85,31.6c1.733-0.033,3.351,0.25,4.851,0.85
							c1.133,0.5,2.166,1.15,3.1,1.95c1.101,1,1.816,2.05,2.15,3.15c2,0.267,3.783,0.917,5.35,1.95
							c1.167,0.767,2.134,1.717,2.9,2.85c0.899,1.3,1.333,2.583,1.3,3.85c1.9,0.767,3.55,1.95,4.95,3.55
							c0.967,1.2,1.649,2.517,2.05,3.95c0.5,1.867,0.316,3.466-0.55,4.8c-0.434,0.7-1.084,1.083-1.95,1.15l-0.85-0.05l-0.601-0.15
							c-0.434,0.867-1.033,1.583-1.8,2.15c-0.366,0.2-0.767,0.333-1.2,0.4h-0.2l-0.85-0.1l-0.25-0.15l-0.55-0.25
							c-1.967-1.4-3.5-3.65-4.601-6.75c-0.267-0.567-0.483-1.25-0.649-2.05l-0.2-0.05c-2.167-0.733-4.283-2.433-6.35-5.1
							c-0.334-0.4-0.7-0.917-1.101-1.55v-0.1l-0.1,0.1h-0.45c-2.4-0.333-4.8-1.6-7.2-3.8c-1.066-0.867-1.934-1.833-2.6-2.9
							c-1.2-1.867-1.467-3.6-0.8-5.2c0.399-0.767,0.966-1.25,1.699-1.45C104.616,31.983,106.116,31.633,107.85,31.6z"/>
						
							<path style="fill-rule:evenodd;clip-rule:evenodd;fill:none;stroke:#B9CF7E;stroke-width:0.25;stroke-linejoin:round;stroke-miterlimit:3;" d="
							M107.85,31.6c1.733-0.033,3.351,0.25,4.851,0.85c1.133,0.5,2.166,1.15,3.1,1.95c1.101,1,1.816,2.05,2.15,3.15
							c2,0.267,3.783,0.917,5.35,1.95c1.167,0.767,2.134,1.717,2.9,2.85c0.899,1.3,1.333,2.583,1.3,3.85
							c1.9,0.767,3.55,1.95,4.95,3.55c0.967,1.2,1.649,2.517,2.05,3.95c0.5,1.867,0.316,3.466-0.55,4.8
							c-0.434,0.7-1.084,1.083-1.95,1.15l-0.85-0.05l-0.601-0.15c-0.434,0.867-1.033,1.583-1.8,2.15c-0.366,0.2-0.767,0.333-1.2,0.4
							h-0.2l-0.85-0.1l-0.25-0.15l-0.55-0.25c-1.967-1.4-3.5-3.65-4.601-6.75c-0.267-0.567-0.483-1.25-0.649-2.05l-0.2-0.05
							c-2.167-0.733-4.283-2.433-6.35-5.1c-0.334-0.4-0.7-0.917-1.101-1.55v-0.1l-0.1,0.1h-0.45c-2.4-0.333-4.8-1.6-7.2-3.8
							c-1.066-0.867-1.934-1.833-2.6-2.9c-1.2-1.867-1.467-3.6-0.8-5.2c0.399-0.767,0.966-1.25,1.699-1.45
							C104.616,31.983,106.116,31.633,107.85,31.6z"/>
					</g>
				</g>
				<path style="fill-rule:evenodd;clip-rule:evenodd;fill:#21230C;" d="M106.2,40.8c-0.967-0.833-1.733-1.716-2.3-2.65
					c-0.733-1.267-0.917-2.35-0.551-3.25c0.101-0.333,0.317-0.5,0.65-0.5c1.066-0.6,2.316-0.917,3.75-0.95
					c1.467-0.067,2.866,0.167,4.2,0.7c1.1,0.467,2.066,1.1,2.899,1.9c1.067,1.067,1.551,2.15,1.45,3.25v0.05
					c2.066-0.1,4.05,0.45,5.95,1.65c0.967,0.667,1.783,1.483,2.45,2.45c0.866,1.267,1.133,2.417,0.8,3.45
					c-0.066,0.233-0.2,0.4-0.4,0.5H125l-0.1,0.05c2.3,0.267,4.333,1.417,6.1,3.45c0.733,0.9,1.283,1.9,1.65,3
					c0.466,1.467,0.399,2.667-0.2,3.6c-0.2,0.2-0.4,0.3-0.601,0.3h-0.3c-0.7-0.133-1.45-0.433-2.25-0.9
					c-0.1,1.467-0.633,2.517-1.6,3.15l-0.351,0.1l-0.3-0.05H127l-0.2-0.1c-1.666-1.167-3-3.15-4-5.95
					c-0.533-1.267-0.8-2.483-0.8-3.65l-0.25,0.3c-0.167,0.167-0.333,0.25-0.5,0.25h-0.2l-0.2-0.05
					c-1.966-0.667-3.816-2.183-5.55-4.55c-0.733-0.833-1.316-1.85-1.75-3.05l-0.2,0.45c-0.1,0.2-0.283,0.333-0.55,0.4h-0.3
					C110.634,43.917,108.533,42.8,106.2,40.8z"/>
				<g>
					<g>
						<g>
							<g>
								<g>
									<g>
										<g>
											<linearGradient id="SVGID_104_" gradientUnits="userSpaceOnUse" x1="112.1279" y1="36.0806" x2="107.7529" y2="38.2806">
												<stop  offset="0.0314" style="stop-color:#8BA859"/>
												<stop  offset="0.2196" style="stop-color:#6E993F"/>
												<stop  offset="0.451" style="stop-color:#528925"/>
												<stop  offset="0.6549" style="stop-color:#428015"/>
												<stop  offset="0.7961" style="stop-color:#3C7C10"/>
											</linearGradient>
											<path style="fill-rule:evenodd;clip-rule:evenodd;fill:url(#SVGID_104_);" d="M108.8,38.65c-1.066-0.333-2-0.767-2.8-1.3
												c-1.066-0.733-1.6-1.483-1.6-2.25c2.133-0.5,4.316-0.017,6.55,1.45c0.967,0.667,2.483,1.567,4.55,2.7
												C113.634,39.75,111.4,39.55,108.8,38.65z"/>
											<path style="fill-rule:evenodd;clip-rule:evenodd;fill:#E8F6BE;" d="M107.2,35.3c-1-0.333-1.95-0.417-2.851-0.25
												c1-0.533,2.167-0.816,3.5-0.85c1.334-0.034,2.601,0.183,3.801,0.65c1.066,0.467,1.966,1.066,2.699,1.8
												c0.9,0.9,1.301,1.767,1.2,2.6c-1.666-0.567-3.55-1.483-5.649-2.75C108.7,35.9,107.8,35.5,107.2,35.3z"/>
										</g>
										<g>
											<linearGradient id="SVGID_105_" gradientUnits="userSpaceOnUse" x1="112.251" y1="40.7603" x2="104.251" y2="37.8353">
												<stop  offset="0.0314" style="stop-color:#8BA859"/>
												<stop  offset="0.2196" style="stop-color:#6E993F"/>
												<stop  offset="0.451" style="stop-color:#528925"/>
												<stop  offset="0.6549" style="stop-color:#428015"/>
												<stop  offset="0.7961" style="stop-color:#3C7C10"/>
											</linearGradient>
											<path style="fill-rule:evenodd;clip-rule:evenodd;fill:url(#SVGID_105_);" d="M104.05,35.2c2.167,0.4,4,1.7,5.5,3.9
												c0.3,0.533,0.851,1.316,1.65,2.35c0.767,0.966,1.233,1.617,1.399,1.95c-1.733-0.233-3.699-1.3-5.899-3.2
												c-0.834-0.7-1.517-1.467-2.05-2.3C103.95,36.8,103.75,35.9,104.05,35.2z"/>
											<path style="fill-rule:evenodd;clip-rule:evenodd;fill:#E8F6BE;" d="M108.6,38.7c-0.933-1.1-1.6-1.833-2-2.2
												c-0.833-0.733-1.683-1.183-2.55-1.35c1.134-0.133,2.316,0.067,3.55,0.6c1.233,0.467,2.317,1.167,3.25,2.1
												c0.767,0.833,1.351,1.733,1.75,2.7c0.467,1.167,0.5,2.117,0.101,2.85C111.5,42.333,110.134,40.767,108.6,38.7z"/>
										</g>
									</g>
								</g>
							</g>
						</g>
					</g>
					<g>
						<g>
							<g>
								<g>
									<g>
										<g>
											<linearGradient id="SVGID_106_" gradientUnits="userSpaceOnUse" x1="122.9521" y1="43.3394" x2="116.3521" y2="43.8144">
												<stop  offset="0.0314" style="stop-color:#8BA859"/>
												<stop  offset="0.2196" style="stop-color:#6E993F"/>
												<stop  offset="0.451" style="stop-color:#528925"/>
												<stop  offset="0.6549" style="stop-color:#428015"/>
												<stop  offset="0.7961" style="stop-color:#3C7C10"/>
											</linearGradient>
											<path style="fill-rule:evenodd;clip-rule:evenodd;fill:url(#SVGID_106_);" d="M114.65,40.45
												c2.199-0.1,4.25,0.8,6.149,2.7c0.4,0.434,1.101,1.083,2.101,1.95c0.966,0.8,1.566,1.333,1.8,1.6
												c-1.767,0.133-3.917-0.5-6.45-1.9c-0.967-0.533-1.8-1.15-2.5-1.85C114.85,42.05,114.483,41.217,114.65,40.45z"/>
											<path style="fill-rule:evenodd;clip-rule:evenodd;fill:#E8F6BE;" d="M124.8,46.7c-1.434-0.8-3.1-2.067-5-3.8
												c-1.1-0.833-1.899-1.4-2.399-1.7c-0.967-0.534-1.884-0.8-2.75-0.8c1.066-0.333,2.267-0.383,3.6-0.15
												c1.267,0.2,2.467,0.65,3.6,1.35c0.934,0.667,1.684,1.45,2.25,2.35C124.8,44.983,125.033,45.9,124.8,46.7z"/>
										</g>
										<g>
											<linearGradient id="SVGID_107_" gradientUnits="userSpaceOnUse" x1="121.2285" y1="48.6548" x2="113.8785" y2="41.9298">
												<stop  offset="0.0314" style="stop-color:#8BA859"/>
												<stop  offset="0.2196" style="stop-color:#6E993F"/>
												<stop  offset="0.451" style="stop-color:#528925"/>
												<stop  offset="0.6549" style="stop-color:#428015"/>
												<stop  offset="0.7961" style="stop-color:#3C7C10"/>
											</linearGradient>
											<path style="fill-rule:evenodd;clip-rule:evenodd;fill:url(#SVGID_107_);" d="M114.3,40.45
												c2.101,0.833,3.634,2.466,4.601,4.9c0.399,1.1,1.133,2.717,2.199,4.85c-1.699-0.567-3.433-2-5.199-4.3
												c-0.7-0.9-1.217-1.8-1.551-2.7C113.884,42,113.866,41.083,114.3,40.45z"/>
											<path style="fill-rule:evenodd;clip-rule:evenodd;fill:#E8F6BE;" d="M121.15,50.2c-0.967-1.3-2-3.117-3.101-5.45
												c-0.7-1.233-1.217-2.067-1.55-2.5c-0.667-0.867-1.4-1.467-2.2-1.8c1.134,0.1,2.267,0.517,3.4,1.25
												c1.1,0.7,2.017,1.6,2.75,2.7c0.6,0.967,1,1.967,1.2,3C121.85,48.633,121.684,49.567,121.15,50.2z"/>
										</g>
									</g>
								</g>
							</g>
						</g>
					</g>
					<g>
						<g>
							<g>
								<g>
									<g>
										<g>
											<linearGradient id="SVGID_108_" gradientUnits="userSpaceOnUse" x1="131.6602" y1="54.8203" x2="123.6602" y2="50.3453">
												<stop  offset="0.0314" style="stop-color:#8BA859"/>
												<stop  offset="0.2196" style="stop-color:#6E993F"/>
												<stop  offset="0.451" style="stop-color:#528925"/>
												<stop  offset="0.6549" style="stop-color:#428015"/>
												<stop  offset="0.7961" style="stop-color:#3C7C10"/>
											</linearGradient>
											<path style="fill-rule:evenodd;clip-rule:evenodd;fill:url(#SVGID_108_);" d="M123.85,48.15
												c2.134,0.6,3.851,2.05,5.15,4.35c0.5,1.067,1.4,2.583,2.7,4.55c-1.767-0.4-3.65-1.633-5.65-3.7
												c-0.767-0.733-1.383-1.55-1.85-2.45C123.6,49.767,123.483,48.85,123.85,48.15z"/>
											<path style="fill-rule:evenodd;clip-rule:evenodd;fill:#E8F6BE;" d="M131.8,57.05c-1.133-1.167-2.383-2.85-3.75-5.05
												c-0.767-1.1-1.366-1.867-1.8-2.3c-0.733-0.8-1.533-1.317-2.4-1.55c1.134-0.033,2.301,0.25,3.5,0.85
												c1.167,0.567,2.184,1.35,3.051,2.35c0.699,0.9,1.216,1.85,1.55,2.85C132.316,55.4,132.267,56.35,131.8,57.05z"/>
										</g>
										<g>
											<linearGradient id="SVGID_109_" gradientUnits="userSpaceOnUse" x1="126.3584" y1="59.2725" x2="123.5584" y2="48.2225">
												<stop  offset="0.0314" style="stop-color:#8BA859"/>
												<stop  offset="0.2196" style="stop-color:#6E993F"/>
												<stop  offset="0.451" style="stop-color:#528925"/>
												<stop  offset="0.6549" style="stop-color:#428015"/>
												<stop  offset="0.7961" style="stop-color:#3C7C10"/>
											</linearGradient>
											<path style="fill-rule:evenodd;clip-rule:evenodd;fill:url(#SVGID_109_);" d="M123.5,48.1c1.733,1.333,2.733,3.333,3,6
												c0.033,0.633,0.167,1.583,0.4,2.85c0.233,1.267,0.35,2.066,0.35,2.4c-1.5-1.067-2.75-2.934-3.75-5.6
												c-0.434-1-0.684-2-0.75-3C122.65,49.483,122.9,48.6,123.5,48.1z"/>
											<path style="fill-rule:evenodd;clip-rule:evenodd;fill:#E8F6BE;" d="M127.3,59.4c-0.566-1.533-1.033-3.566-1.399-6.1
												c-0.267-1.333-0.517-2.283-0.75-2.85c-0.367-1.034-0.9-1.833-1.601-2.4c1.033,0.434,1.983,1.167,2.851,2.2
												c0.866,1,1.5,2.117,1.899,3.35c0.3,1.1,0.384,2.183,0.25,3.25C128.417,58.083,128,58.933,127.3,59.4z"/>
										</g>
									</g>
								</g>
							</g>
						</g>
					</g>
				</g>
			</g>
		</g>
	</g>
</g>
</svg>
