<?xml version="1.0" encoding="iso-8859-1"?>
<!-- Generator: Adobe Illustrator 15.1.0, SVG Export Plug-In . SVG Version: 6.00 Build 0)  -->
<!DOCTYPE svg PUBLIC "-//W3C//DTD SVG 1.1//EN" "http://www.w3.org/Graphics/SVG/1.1/DTD/svg11.dtd">
<svg version="1.1" id="Layer_1" xmlns="http://www.w3.org/2000/svg" xmlns:xlink="http://www.w3.org/1999/xlink" x="0px" y="0px"
	 width="171.7px" height="171.75px" viewBox="0 0 171.7 171.75" style="enable-background:new 0 0 171.7 171.75;"
	 xml:space="preserve">
<symbol  id="FlashAICB_x2F_Layer_1_x2F__x3C_Group_x3E_" viewBox="0 -66.434 119.25 66.434">
	<g id="Layer_1_5_">
		<g>
			
				<use xlink:href="#FlashAICB_x2F_Layer_1_x2F__x3C_Path_x3E__x5F_1"  width="119.25" height="60.45" y="-60.45" style="overflow:visible;opacity:0.1992;enable-background:new    ;"/>
			
				<use xlink:href="#FlashAICB_x2F_Layer_1_x2F__x3C_Path_x3E__x5F_0"  width="119.25" height="66.434" y="-66.434" style="overflow:visible;opacity:0.1211;enable-background:new    ;"/>
		</g>
	</g>
</symbol>
<symbol  id="FlashAICB_x2F_Layer_1_x2F__x3C_Path_x3E_" viewBox="0 -61.9 128.6 61.9">
	<g id="Layer_1_2_">
		
			<radialGradient id="SVGID_1_" cx="64.2998" cy="-30.9502" r="50.4599" gradientTransform="matrix(1 0 0 -1 0 -61.9004)" gradientUnits="userSpaceOnUse">
			<stop  offset="0.051" style="stop-color:#4F1972"/>
			<stop  offset="0.5216" style="stop-color:#4C2675"/>
			<stop  offset="0.6392" style="stop-color:#4B2A75"/>
		</radialGradient>
		<path style="fill-rule:evenodd;clip-rule:evenodd;fill:url(#SVGID_1_);" d="M128.05-0.25L128.6,0
			c-0.633-17.233-7.167-31.85-19.6-43.85C96.533-55.883,81.617-61.9,64.25-61.9c-17.033,0-31.733,5.816-44.1,17.45
			C7.817-32.85,1.1-18.633,0-1.8c5-13,13.217-23.5,24.65-31.5c11.7-8.2,24.733-12.3,39.1-12.3c14.633,0,27.883,4.25,39.75,12.75
			C115.1-24.517,123.283-13.65,128.05-0.25z"/>
	</g>
</symbol>
<symbol  id="FlashAICB_x2F_Layer_1_x2F__x3C_Path_x3E__x5F_0" viewBox="0 -66.434 119.25 66.434">
	<g id="Layer_1_4_">
		<path style="fill-rule:evenodd;clip-rule:evenodd;fill:#FFFFFF;" d="M115.45-37.25c2.533-6.1,3.8-11.85,3.8-17.25
			c0-5.367-1.567-8.75-4.7-10.15c-2.533-1.133-6.783-1.117-12.75,0.05c-7.9,1.9-14.216,3.367-18.95,4.4
			c-8.667,1.833-16.4,2.75-23.2,2.75c-6.867,0-14.6-1-23.2-3c-9.067-2.367-15.4-3.966-19-4.8c-6-1.367-10.25-1.55-12.75-0.55
			C1.567-64.533,0-61.217,0-55.85c0,5.934,1.267,12.067,3.8,18.4c2.7,6.7,6.483,12.75,11.35,18.15C26.75-6.433,41.583,0,59.65,0
			C77.483,0,92.3-6.5,104.1-19.5C108.933-24.833,112.717-30.75,115.45-37.25z"/>
	</g>
</symbol>
<symbol  id="FlashAICB_x2F_Layer_1_x2F__x3C_Path_x3E__x5F_1" viewBox="0 -60.45 119.25 60.45">
	<g id="Layer_1_3_">
		
			<linearGradient id="SVGID_2_" gradientUnits="userSpaceOnUse" x1="16160.585" y1="-58.4917" x2="16220.9766" y2="-58.4917" gradientTransform="matrix(1.654944e-005 1 -1 -0.001 0.8657 -16221.1064)">
			<stop  offset="0.1294" style="stop-color:#E2B8B2"/>
			<stop  offset="0.9255" style="stop-color:#FFFFFF"/>
		</linearGradient>
		<path style="fill-rule:evenodd;clip-rule:evenodd;fill:url(#SVGID_2_);" d="M104.1-19.5c4.833-5.333,8.617-11.25,11.35-17.75
			c2.533-6.1,3.8-11.85,3.8-17.25c0-1.833-0.183-3.45-0.55-4.85c-2,12-7.85,22.65-17.55,31.95c-11.4,11-25.233,16.5-41.5,16.5
			c-16.533,0-30.45-5.483-41.75-16.45C8.167-36.783,2.367-47.817,0.5-60.45C0.167-59.017,0-57.483,0-55.85
			c0,5.934,1.267,12.067,3.8,18.4c2.7,6.7,6.483,12.75,11.35,18.15C26.75-6.433,41.583,0,59.65,0C77.483,0,92.3-6.5,104.1-19.5z"/>
	</g>
</symbol>
<g>
	<path style="fill-rule:evenodd;clip-rule:evenodd;fill:#FFFFFF;" d="M146.5,25.15c7.934,7.934,14.083,17.033,18.45,27.3
		c4.5,10.633,6.75,21.767,6.75,33.4s-2.25,22.767-6.75,33.4c-4.367,10.267-10.517,19.367-18.45,27.3
		c-7.934,7.934-17.033,14.083-27.3,18.45c-10.634,4.5-21.767,6.75-33.4,6.75c-11.633,0-22.767-2.25-33.4-6.75
		c-10.267-4.367-19.35-10.517-27.25-18.45c-7.933-7.933-14.066-17.033-18.4-27.3C2.25,108.617,0,97.483,0,85.85
		s2.25-22.767,6.75-33.4c4.333-10.267,10.467-19.367,18.4-27.3c7.934-7.9,17.017-14.033,27.25-18.4C63.033,2.25,74.167,0,85.8,0
		c11.634,0,22.767,2.25,33.4,6.75C129.467,11.117,138.566,17.25,146.5,25.15z"/>
	<g>
		<g>
			
				<linearGradient id="SVGID_3_" gradientUnits="userSpaceOnUse" x1="-157.6851" y1="85.8008" x2="-14.2354" y2="85.8008" gradientTransform="matrix(6.973501e-006 -1 1 -0.001 -1.064519e-004 4.449275e-004)">
				<stop  offset="0.0549" style="stop-color:#391D4C"/>
				<stop  offset="0.3451" style="stop-color:#5B457E"/>
				<stop  offset="0.5686" style="stop-color:#7966A8"/>
				<stop  offset="0.6392" style="stop-color:#7D6BA8"/>
				<stop  offset="0.7255" style="stop-color:#887AA7"/>
				<stop  offset="0.8118" style="stop-color:#9B93A5"/>
				<stop  offset="0.9059" style="stop-color:#B5B5A3"/>
				<stop  offset="1" style="stop-color:#D6E0A0"/>
			</linearGradient>
			<path style="fill-rule:evenodd;clip-rule:evenodd;fill:url(#SVGID_3_);" d="M57.9,19.8c8.9-3.767,18.2-5.65,27.9-5.65
				c9.7,0,19,1.883,27.9,5.65c8.566,3.633,16.166,8.75,22.8,15.35c6.6,6.633,11.717,14.233,15.35,22.8
				c3.767,8.9,5.65,18.2,5.65,27.9c0,9.7-1.884,19-5.65,27.9c-3.633,8.566-8.75,16.167-15.35,22.8
				c-14.033,14.033-30.934,21.05-50.7,21.05c-9.7,0-19-1.883-27.9-5.649c-8.566-3.634-16.167-8.767-22.8-15.4
				c-6.6-6.633-11.717-14.233-15.35-22.8c-3.767-8.9-5.65-18.2-5.65-27.9c0-9.7,1.883-19,5.65-27.9
				c3.633-8.567,8.75-16.167,15.35-22.8C41.733,28.55,49.333,23.433,57.9,19.8z"/>
			<path style="fill-rule:evenodd;clip-rule:evenodd;fill:#31074F;" d="M58.25,20.6c-8.467,3.6-15.967,8.667-22.5,15.2
				C21.917,49.633,15,66.316,15,85.85c0,19.567,6.917,36.267,20.75,50.1c6.533,6.533,14.033,11.6,22.5,15.2
				c8.767,3.699,17.95,5.55,27.55,5.55c19.533,0,36.217-6.917,50.05-20.75c6.534-6.533,11.601-14.05,15.2-22.55
				c3.7-8.768,5.55-17.95,5.55-27.55s-1.85-18.784-5.55-27.55c-3.6-8.466-8.666-15.966-15.2-22.5
				c-13.8-13.833-30.483-20.75-50.05-20.75C76.2,15.05,67.017,16.9,58.25,20.6z M34.45,34.5C41.317,27.633,49.167,22.383,58,18.75
				c8.833-3.667,18.1-5.5,27.8-5.5c9.7,0,18.967,1.833,27.8,5.5c8.867,3.667,16.717,8.917,23.551,15.75
				c6.866,6.867,12.116,14.717,15.75,23.55c3.666,8.833,5.5,18.1,5.5,27.8c0,9.7-1.834,18.966-5.5,27.8
				c-3.634,8.866-8.884,16.717-15.75,23.55c-6.867,6.866-14.717,12.133-23.551,15.8c-8.833,3.667-18.1,5.5-27.8,5.5
				c-9.7,0-18.966-1.833-27.8-5.5c-8.8-3.667-16.65-8.934-23.55-15.8c-6.833-6.833-12.083-14.684-15.75-23.55
				c-3.667-8.834-5.5-18.101-5.5-27.8c0-9.7,1.833-18.967,5.5-27.8C22.333,49.217,27.583,41.367,34.45,34.5z"/>
		</g>
		
			<radialGradient id="SVGID_4_" cx="85.7998" cy="83.5498" r="64.3501" gradientTransform="matrix(1 0 0 -1 0 167.0996)" gradientUnits="userSpaceOnUse">
			<stop  offset="0.502" style="stop-color:#8F81E0"/>
			<stop  offset="0.6392" style="stop-color:#8678CE;stop-opacity:0.9059"/>
			<stop  offset="0.9059" style="stop-color:#6F60A1;stop-opacity:0.6588"/>
			<stop  offset="1" style="stop-color:#67578F;stop-opacity:0.5686"/>
		</radialGradient>
		<path style="fill-rule:evenodd;clip-rule:evenodd;fill:url(#SVGID_4_);" d="M131.35,38.1C143.917,50.633,150.2,65.783,150.2,83.55
			s-6.283,32.917-18.851,45.45c-12.566,12.566-27.75,18.85-45.55,18.85c-17.767,0-32.95-6.283-45.55-18.85
			C27.683,116.467,21.4,101.316,21.4,83.55c0-17.733,6.283-32.883,18.85-45.45c12.6-12.567,27.783-18.85,45.55-18.85
			C103.6,19.25,118.783,25.533,131.35,38.1z"/>
		<g>
			<path style="fill-rule:evenodd;clip-rule:evenodd;fill:#C3B0EC;" d="M118.85,79.9l6.051,5.3c5.133,4.566,7.899,10.017,8.3,16.35
				c0.6,5,0.2,10.067-1.2,15.2c-1.634,5.733-5.283,9.316-10.95,10.75c-4.133,1-8.383,1.5-12.75,1.5h-1.85
				c-3.367-0.1-8.367-0.15-15-0.15c-5.267,0.301-10.4-0.033-15.4-1c-5.267-0.899-10.6-2.316-16-4.25l-0.1-0.05L45,117.6l-0.1-0.05
				c-2.1-0.933-3.667-2.533-4.7-4.8v-0.1c-2.3-5.533-2.7-11.301-1.2-17.301v-0.3c0.2-1.866,0.817-3.467,1.85-4.8
				c1.5-1.934,3.75-3.134,6.75-3.6c4.333-1.167,8.167-2.867,11.5-5.101c2.3-1.5,5.917-2.6,10.85-3.3
				c3.233-0.467,5.167-0.934,5.8-1.4L76,76.6c1.7-1.434,3.85-2.833,6.45-4.2c2.533-1.433,6.684-2.583,12.45-3.45
				c0.899-0.134,1.866-0.2,2.899-0.2c4.533,0,8.65,1.45,12.351,4.35C112.884,74.967,115.783,77.233,118.85,79.9z"/>
			<g>
				
					<linearGradient id="SVGID_5_" gradientUnits="userSpaceOnUse" x1="-128.3081" y1="85.8047" x2="-68.0581" y2="85.8047" gradientTransform="matrix(1.659751e-005 -1 1 -0.001 -2.095911e-004 4.449275e-004)">
					<stop  offset="0.0549" style="stop-color:#4A3462"/>
					<stop  offset="0.5059" style="stop-color:#736194"/>
					<stop  offset="0.9373" style="stop-color:#9E8FC7"/>
				</linearGradient>
				<path style="fill-rule:evenodd;clip-rule:evenodd;fill:url(#SVGID_5_);" d="M110.15,72.3c3,2.034,5.899,4.3,8.699,6.8
					c0.667,0.533,1.7,1.433,3.101,2.7l2.95,2.55c5.133,4.567,7.899,10.033,8.3,16.4c0.6,5,0.2,10.05-1.2,15.15
					c-1.634,5.767-5.283,9.366-10.95,10.8c-4.133,1-8.383,1.5-12.75,1.5l-1.85-0.05c-3.367-0.101-8.367-0.15-15-0.15
					c-5.2,0.3-10.333-0.017-15.4-0.95c-5.367-0.967-10.7-2.399-16-4.3l-0.1-0.05l-7.4-2.9l-0.15-0.1l-7.4-2.95l-0.1-0.05
					c-2.133-0.934-3.7-2.533-4.7-4.8V111.8c-2.267-5.533-2.667-11.283-1.2-17.25V94.2c0.2-1.867,0.817-3.467,1.85-4.8
					c1.5-1.934,3.75-3.117,6.75-3.55c4.333-1.233,8.167-2.934,11.5-5.1c2.267-1.533,5.883-2.65,10.85-3.35
					c3.2-0.433,5.133-0.9,5.8-1.4L76,75.75c1.7-1.434,3.85-2.833,6.45-4.2c2.4-1.367,6.55-2.517,12.45-3.45l2.899-0.2
					C102.3,67.9,106.417,69.367,110.15,72.3z"/>
				
					<linearGradient id="SVGID_6_" gradientUnits="userSpaceOnUse" x1="-128.4077" y1="85.7925" x2="-67.897" y2="85.7925" gradientTransform="matrix(1.652893e-005 -1 1 -0.001 2.211901e-004 -4.747650e-005)">
					<stop  offset="0.149" style="stop-color:#6B49A5"/>
					<stop  offset="0.9373" style="stop-color:#A897D3"/>
				</linearGradient>
				<path style="fill-rule:evenodd;clip-rule:evenodd;fill:url(#SVGID_6_);" d="M133.3,100.75c0.634,4.8,0.25,9.867-1.149,15.2
					c-1.667,5.8-5.351,9.417-11.051,10.85c-4.199,1-8.466,1.5-12.8,1.5h-1.85c-3.4-0.1-8.4-0.149-15-0.149
					c-5.066,0.3-10.217-0.033-15.45-1c-5.367-0.9-10.7-2.334-16-4.301L44.95,116.9l-0.05-0.051c-2.167-0.967-3.767-2.6-4.8-4.899
					l-0.05-0.101c-2.267-5.633-2.667-11.416-1.2-17.35l0.05-0.3c0.167-1.9,0.783-3.533,1.85-4.9c1.5-1.934,3.783-3.133,6.85-3.6
					c4.3-1.167,8.117-2.867,11.45-5.1c2.367-1.534,6-2.633,10.9-3.3c3.4-0.466,5.316-0.933,5.75-1.4l0.25-0.2
					c1.566-1.434,3.716-2.85,6.45-4.25c2.6-1.434,6.767-2.583,12.5-3.45c0.899-0.133,1.866-0.2,2.899-0.2
					c4.566,0,8.717,1.467,12.45,4.4c3.2,2.2,6.083,4.466,8.65,6.8l3,2.6l0.149,0.1l2.9,2.6C130.116,88.866,132.9,94.35,133.3,100.75
					z"/>
				<path style="fill-rule:evenodd;clip-rule:evenodd;fill:none;stroke:#C3B0EC;stroke-width:0.25;" d="M133.3,100.75
					c0.634,4.8,0.25,9.867-1.149,15.2c-1.667,5.8-5.351,9.417-11.051,10.85c-4.199,1-8.466,1.5-12.8,1.5h-1.85
					c-3.4-0.1-8.4-0.149-15-0.149c-5.066,0.3-10.217-0.033-15.45-1c-5.367-0.9-10.7-2.334-16-4.301L44.95,116.9l-0.05-0.051
					c-2.167-0.967-3.767-2.6-4.8-4.899l-0.05-0.101c-2.267-5.633-2.667-11.416-1.2-17.35l0.05-0.3c0.167-1.9,0.783-3.533,1.85-4.9
					c1.5-1.934,3.783-3.133,6.85-3.6c4.3-1.167,8.117-2.867,11.45-5.1c2.367-1.534,6-2.633,10.9-3.3c3.4-0.466,5.316-0.933,5.75-1.4
					l0.25-0.2c1.566-1.434,3.716-2.85,6.45-4.25c2.6-1.434,6.767-2.583,12.5-3.45c0.899-0.133,1.866-0.2,2.899-0.2
					c4.566,0,8.717,1.467,12.45,4.4c3.2,2.2,6.083,4.466,8.65,6.8l3,2.6l0.149,0.1l2.9,2.6C130.116,88.866,132.9,94.35,133.3,100.75
					z"/>
			</g>
			<path style="fill-rule:evenodd;clip-rule:evenodd;fill:#31074F;" d="M108.5,74.45l0.1,0.1c2.733,1.867,5.534,4.067,8.4,6.6
				l3.05,2.65l0.101,0.05l2.949,2.6c4.601,4.133,7.051,8.983,7.351,14.55c0.6,4.566,0.233,9.3-1.101,14.2
				c-1.366,4.7-4.35,7.633-8.949,8.8c-4.034,0.967-8.067,1.45-12.101,1.45l-1.75-0.05c-3.434-0.101-8.5-0.15-15.2-0.15
				c-5,0.3-9.933-0.017-14.8-0.95C71.283,123.4,66.1,122.017,61,120.15l-7.4-2.95l-0.35-0.101l-7.2-2.899
				c-1.5-0.634-2.6-1.767-3.3-3.4c-2.1-5.133-2.433-10.45-1-15.95v-0.3c0.333-3.467,2.483-5.483,6.45-6.05
				c4.5-1.2,8.65-3.017,12.45-5.45c1.934-1.333,5.167-2.3,9.7-2.9c4.167-0.6,6.65-1.367,7.45-2.3c1.467-1.267,3.434-2.55,5.9-3.85
				c2.2-1.267,6.066-2.317,11.6-3.15C100.2,70.183,104.6,71.383,108.5,74.45z"/>
			<g>
				<path style="fill-rule:evenodd;clip-rule:evenodd;fill:#E6AA93;" d="M116.35,81.9c1.334,1.1,3.367,2.867,6.101,5.3
					c4.366,3.967,6.7,8.6,7,13.899c-0.066,0.334-0.367,1.033-0.9,2.101c-2.866,4.967-7.184,7.917-12.95,8.85
					c3.233-2.033,5.767-3.917,7.601-5.649c4.934-4.134,5.133-8.601,0.6-13.4c-3.767-4.1-7.883-7.3-12.35-9.6
					c-0.7-0.467-1.101-0.917-1.2-1.35c-1.033-2.466-1.8-4.7-2.3-6.7C110.783,77.25,113.583,79.433,116.35,81.9z"/>
				<path style="fill-rule:evenodd;clip-rule:evenodd;fill:#C65953;" d="M111.45,83.4c4.467,2.3,8.583,5.5,12.35,9.6
					c4.533,4.8,4.334,9.267-0.6,13.4c-1.834,1.732-4.367,3.616-7.601,5.649l-3.8,0.3c-1.434,0-3.684-0.1-6.75-0.3
					c-10-1.066-19.133-4.316-27.4-9.75c-4.533,1.067-8.95,1.367-13.25,0.9c-5.733-0.634-10.566-2.5-14.5-5.601
					c-3.233-2.232-3.733-4.933-1.5-8.1c4.6-1.2,8.867-3.083,12.8-5.65c1.767-1.2,4.867-2.117,9.3-2.75c4.4-0.6,7.083-1.45,8.05-2.55
					c1.167-1.066,3.05-2.3,5.65-3.7c2.166-1.2,5.916-2.2,11.25-3c4.566-0.633,8.733,0.533,12.5,3.5c0.633,2.267,1.399,4.5,2.3,6.7
					C110.35,82.483,110.75,82.933,111.45,83.4z M114.8,102.15c4.033,1.066,6.384,1.533,7.05,1.399c0.7,0,1.2-0.366,1.5-1.1
					c0.567-0.567-1.1-1.333-5-2.3c-3.133-0.834-8.366-2.75-15.699-5.75c-7-3.034-12.134-6.7-15.4-11c1.1,0.2,2.217-0.05,3.35-0.75
					c0.601-0.4,1.051-0.75,1.351-1.05l0.8-0.5c0.5-0.4,0.95-0.85,1.35-1.35L95,79c1.333-1.8,2.967-3.233,4.9-4.3
					c0-0.467-0.25-0.767-0.75-0.9c-2.967-0.167-5.967,0.45-9,1.85l-4.301,1.8c-0.433,0.2-0.833,0.517-1.2,0.95
					c0,0.1-0.1,0.15-0.3,0.15v0.3c0,0.4-0.05,0.65-0.15,0.75c-0.6,1.466-1.717,2.283-3.35,2.45c-0.733,0.2-1.9,0.4-3.5,0.6
					c-0.633,0-1.35-0.1-2.15-0.3c-0.2,0-0.4-0.1-0.6-0.3L56.75,89.2c1.6,1,5.317,0.8,11.15-0.601c5.567-1.333,8.867-2.25,9.9-2.75
					c1-0.5,1.65-0.8,1.95-0.9c7.9,4.467,15.483,8.533,22.75,12.2C105.934,99.05,110.033,100.717,114.8,102.15z"/>
				<path style="fill-rule:evenodd;clip-rule:evenodd;fill:#E4CFBE;" d="M118.35,100.15c3.9,0.967,5.567,1.732,5,2.3
					c-0.267,0.7-0.767,1.05-1.5,1.05c-0.666,0.167-3.017-0.283-7.05-1.35c-4.767-1.434-8.866-3.101-12.3-5
					c-7.267-3.667-14.85-7.733-22.75-12.2c-0.3,0.1-0.95,0.4-1.95,0.9c-1.033,0.5-4.333,1.417-9.9,2.75
					C62.067,90,58.35,90.2,56.75,89.2l17.85-7.15c0.2,0.2,0.4,0.3,0.6,0.3c0.8,0.2,1.517,0.3,2.15,0.3c1.6-0.2,2.767-0.4,3.5-0.6
					c1.633-0.167,2.75-0.983,3.35-2.45c0.1-0.1,0.15-0.35,0.15-0.75v-0.3c0.2,0,0.3-0.05,0.3-0.15c0.367-0.433,0.767-0.75,1.2-0.95
					l4.301-1.8c3.033-1.4,6.033-2.017,9-1.85c0.5,0.133,0.75,0.434,0.75,0.9c-1.934,1.066-3.567,2.5-4.9,4.3l-0.9,0.75
					c-0.399,0.5-0.85,0.95-1.35,1.35l-0.8,0.5c-0.3,0.3-0.75,0.65-1.351,1.05c-1.133,0.7-2.25,0.95-3.35,0.75
					c3.267,4.3,8.4,7.966,15.4,11C109.983,97.4,115.217,99.316,118.35,100.15z"/>
				<path style="fill-rule:evenodd;clip-rule:evenodd;fill:#E6AA93;" d="M105.05,112.05c-2.267-0.1-5.25-0.35-8.95-0.75
					c-5.1-0.467-10.083-1.083-14.95-1.85c-6.533-1.067-11.167-1.867-13.9-2.4c-4.8-1.033-9.167-2.1-13.1-3.2
					c-5.333-1.433-9.133-4.383-11.4-8.85v-0.45c0.3-2.933,2.183-4.616,5.65-5.05c-2.233,3.167-1.733,5.867,1.5,8.1
					c3.934,3.101,8.767,4.967,14.5,5.601c4.434,0.5,8.85,0.2,13.25-0.9C85.917,107.733,95.05,110.983,105.05,112.05z"/>
				<path style="fill-rule:evenodd;clip-rule:evenodd;fill:#AA7C6B;" d="M128.55,103.2c0.533-1.067,0.834-1.767,0.9-2.101
					c0.566,4.434,0.217,9.051-1.05,13.851c-1.267,4.333-4.017,7.033-8.25,8.1c-4.4,1.067-8.917,1.517-13.551,1.351
					c-3.466-0.101-8.55-0.15-15.25-0.15c-4.899,0.3-9.783,0-14.649-0.9c-5.333-0.967-10.45-2.35-15.35-4.149l-14.95-5.9
					c-1.233-0.566-2.15-1.533-2.75-2.899c-2.033-5-2.333-10.134-0.9-15.4c2.267,4.467,6.067,7.417,11.4,8.85
					c4,1.101,8.383,2.167,13.15,3.2c2.733,0.533,7.35,1.333,13.85,2.4c4.867,0.767,9.85,1.383,14.95,1.85
					c3.7,0.4,6.684,0.65,8.95,0.75c3.066,0.2,5.316,0.3,6.75,0.3l3.8-0.3C121.366,111.117,125.684,108.167,128.55,103.2z"/>
			</g>
		</g>
		<g>
			<g>
				<g>
					<path style="fill-rule:evenodd;clip-rule:evenodd;fill:#D7CEF5;" d="M73,29.55c0.433-0.5,1.017-0.75,1.75-0.75h5
						c0.733,0,1.317,0.25,1.75,0.75c0.4,0.434,0.6,1.017,0.6,1.75v20.05c0,0.867-0.25,1.55-0.75,2.05c-0.467,0.467-1.1,0.7-1.9,0.7
						c-0.767,0-1.383-0.233-1.85-0.7c-0.5-0.5-0.75-1.183-0.75-2.05v-17.7h-2.1c-0.8,0-1.417-0.25-1.85-0.75
						c-0.367-0.433-0.55-0.983-0.55-1.65S72.567,30.017,73,29.55z"/>
				</g>
				<g>
					
						<linearGradient id="SVGID_7_" gradientUnits="userSpaceOnUse" x1="-52.6279" y1="77.2275" x2="-27.3529" y2="77.2275" gradientTransform="matrix(3.956479e-005 -1 1 -0.001 -4.901881e-005 4.449275e-004)">
						<stop  offset="0.2196" style="stop-color:#2F104E"/>
						<stop  offset="0.5098" style="stop-color:#472480"/>
						<stop  offset="0.9373" style="stop-color:#6E43D1"/>
					</linearGradient>
					<path style="fill-rule:evenodd;clip-rule:evenodd;fill:url(#SVGID_7_);" d="M74.75,32.1c-0.8,0-1.417-0.25-1.85-0.75
						c-0.367-0.434-0.55-0.983-0.55-1.65c0-0.667,0.217-1.233,0.65-1.7c0.433-0.5,1.017-0.75,1.75-0.75h5
						c0.733,0,1.317,0.25,1.75,0.75c0.4,0.433,0.6,1.017,0.6,1.75V49.8c0,0.867-0.25,1.55-0.75,2.05c-0.467,0.466-1.1,0.7-1.9,0.7
						c-0.767,0-1.383-0.233-1.85-0.7c-0.5-0.5-0.75-1.184-0.75-2.05V32.1H74.75z"/>
				</g>
			</g>
			<g>
				<g>
					<path style="fill-rule:evenodd;clip-rule:evenodd;fill:#D7CEF5;" d="M88.15,29.55c0.433-0.5,1.017-0.75,1.75-0.75h5
						c0.733,0,1.316,0.25,1.75,0.75c0.399,0.434,0.6,1.017,0.6,1.75v20.05c0,0.867-0.25,1.55-0.75,2.05
						c-0.467,0.467-1.083,0.7-1.85,0.7c-0.801,0-1.434-0.233-1.9-0.7c-0.5-0.5-0.75-1.183-0.75-2.05v-17.7h-2.1
						c-0.801,0-1.417-0.25-1.851-0.75c-0.366-0.433-0.55-0.983-0.55-1.65S87.717,30.017,88.15,29.55z"/>
				</g>
				<g>
					
						<linearGradient id="SVGID_8_" gradientUnits="userSpaceOnUse" x1="-52.6431" y1="92.377" x2="-27.3681" y2="92.377" gradientTransform="matrix(3.956479e-005 -1 1 -0.001 -4.901881e-005 4.449275e-004)">
						<stop  offset="0.2196" style="stop-color:#2F104E"/>
						<stop  offset="0.5098" style="stop-color:#472480"/>
						<stop  offset="0.9373" style="stop-color:#6E43D1"/>
					</linearGradient>
					<path style="fill-rule:evenodd;clip-rule:evenodd;fill:url(#SVGID_8_);" d="M89.9,32.1c-0.801,0-1.417-0.25-1.851-0.75
						c-0.366-0.434-0.55-0.983-0.55-1.65c0-0.667,0.217-1.233,0.65-1.7c0.433-0.5,1.017-0.75,1.75-0.75h5
						c0.733,0,1.316,0.25,1.75,0.75c0.399,0.433,0.6,1.017,0.6,1.75V49.8c0,0.867-0.25,1.55-0.75,2.05
						c-0.467,0.466-1.083,0.7-1.85,0.7c-0.801,0-1.434-0.233-1.9-0.7c-0.5-0.5-0.75-1.184-0.75-2.05V32.1H89.9z"/>
				</g>
			</g>
		</g>
		
			<use xlink:href="#FlashAICB_x2F_Layer_1_x2F__x3C_Path_x3E_"  width="128.6" height="61.9" y="-61.9" transform="matrix(1 0 0 -1 21.5 85.9502)" style="overflow:visible;opacity:0.3398;enable-background:new    ;"/>
		<g>
			<g>
				<g>
					<g>
						<g>
							<g>
								<linearGradient id="SVGID_9_" gradientUnits="userSpaceOnUse" x1="120.1035" y1="43.4375" x2="120.1035" y2="64.0625">
									<stop  offset="0.0549" style="stop-color:#8E5B86"/>
									<stop  offset="0.9882" style="stop-color:#CFACCA"/>
								</linearGradient>
								<path style="fill-rule:evenodd;clip-rule:evenodd;fill:url(#SVGID_9_);" d="M124.65,44.55c1.3,0,2.399,0.45,3.3,1.35
									c0.6,0.6,1,1.333,1.2,2.2c0.199,0.867,0.166,1.716-0.101,2.55l-0.5,1.5l0.95,1.3c0.533,0.7,0.833,1.483,0.9,2.35
									c0.066,0.867-0.101,1.7-0.5,2.5c-0.867,1.667-2.25,2.5-4.15,2.5h-1.65l-0.899,1.3c-0.934,1.3-2.2,1.95-3.8,1.95L118.7,64
									c-0.967-0.133-1.816-0.567-2.55-1.3c-0.601-0.667-0.983-1.317-1.15-1.95l-0.45-1.5L113,58.8
									c-0.733-0.2-1.35-0.583-1.85-1.15c-0.733-0.733-1.167-1.583-1.301-2.55c-0.133-0.867-0.033-1.7,0.301-2.5
									c0.333-0.8,0.85-1.467,1.55-2l1.35-0.9L113,48.1c0-0.867,0.217-1.684,0.65-2.45c0.466-0.733,1.083-1.316,1.85-1.75
									c0.733-0.333,1.434-0.5,2.1-0.5c1.034,0,1.967,0.317,2.801,0.95l1.25,0.95l1.55-0.55
									C123.6,44.617,124.083,44.55,124.65,44.55z"/>
								<g>
									
										<linearGradient id="SVGID_10_" gradientUnits="userSpaceOnUse" x1="-64.269" y1="120.1055" x2="-43.4868" y2="120.1055" gradientTransform="matrix(4.813478e-005 -1 1 -0.001 8.170317e-005 4.439838e-004)">
										<stop  offset="0.149" style="stop-color:#6B49A5"/>
										<stop  offset="0.9373" style="stop-color:#A897D3"/>
									</linearGradient>
									<path style="fill-rule:evenodd;clip-rule:evenodd;fill:url(#SVGID_10_);" d="M123.15,44.7c0.833-0.267,1.699-0.3,2.6-0.1
										c0.866,0.2,1.616,0.6,2.25,1.2c0.634,0.667,1.05,1.434,1.25,2.3s0.167,1.716-0.1,2.55l-0.551,1.5l0.95,1.25
										c0.566,0.7,0.884,1.5,0.95,2.4c0.066,0.867-0.116,1.717-0.55,2.55c-0.4,0.767-0.967,1.383-1.7,1.85
										c-0.767,0.466-1.6,0.7-2.5,0.7h-1.6l-0.9,1.25c-0.9,1.333-2.184,2-3.85,2l-0.7-0.1c-1.033-0.167-1.9-0.6-2.601-1.3
										c-0.566-0.567-0.949-1.217-1.149-1.95l-0.5-1.45L113,58.9c-0.733-0.233-1.384-0.633-1.95-1.2c-0.7-0.7-1.133-1.567-1.3-2.6
										c-0.134-0.867-0.033-1.717,0.3-2.55c0.367-0.8,0.917-1.466,1.65-2l1.25-0.9l-0.05-1.55c0-0.9,0.233-1.733,0.699-2.5
										c0.467-0.767,1.101-1.35,1.9-1.75c0.733-0.4,1.566-0.55,2.5-0.45c0.934,0.067,1.75,0.35,2.45,0.85l1.25,0.95L123.15,44.7z"
										/>
									<path style="fill-rule:evenodd;clip-rule:evenodd;fill:none;stroke:#C3B0EC;stroke-width:0.25;" d="M123.15,44.7
										c0.833-0.267,1.699-0.3,2.6-0.1c0.866,0.2,1.616,0.6,2.25,1.2c0.634,0.667,1.05,1.434,1.25,2.3s0.167,1.716-0.1,2.55
										l-0.551,1.5l0.95,1.25c0.566,0.7,0.884,1.5,0.95,2.4c0.066,0.867-0.116,1.717-0.55,2.55c-0.4,0.767-0.967,1.383-1.7,1.85
										c-0.767,0.466-1.6,0.7-2.5,0.7h-1.6l-0.9,1.25c-0.9,1.333-2.184,2-3.85,2l-0.7-0.1c-1.033-0.167-1.9-0.6-2.601-1.3
										c-0.566-0.567-0.949-1.217-1.149-1.95l-0.5-1.45L113,58.9c-0.733-0.233-1.384-0.633-1.95-1.2c-0.7-0.7-1.133-1.567-1.3-2.6
										c-0.134-0.867-0.033-1.717,0.3-2.55c0.367-0.8,0.917-1.466,1.65-2l1.25-0.9l-0.05-1.55c0-0.9,0.233-1.733,0.699-2.5
										c0.467-0.767,1.101-1.35,1.9-1.75c0.733-0.4,1.566-0.55,2.5-0.45c0.934,0.067,1.75,0.35,2.45,0.85l1.25,0.95L123.15,44.7z"
										/>
									<path style="fill-rule:evenodd;clip-rule:evenodd;fill:#C3B0EC;" d="M117.6,43.45c-0.699,0-1.383,0.167-2.05,0.5
										c-0.8,0.4-1.416,0.966-1.85,1.7c-0.467,0.767-0.684,1.583-0.65,2.45v1.6l-1.3,0.95c-0.733,0.5-1.267,1.15-1.6,1.95
										c-0.334,0.8-0.434,1.633-0.301,2.5c0.167,1,0.601,1.85,1.301,2.55c0.5,0.5,1.116,0.883,1.85,1.15l1.55,0.45l0.5,1.5
										c0.2,0.733,0.584,1.383,1.15,1.95c0.666,0.667,1.5,1.083,2.5,1.25c0.833,0.167,1.666,0.066,2.5-0.3
										c0.833-0.333,1.5-0.85,2-1.55l0.899-1.35l1.65,0.05c0.866,0,1.684-0.216,2.45-0.65c0.733-0.467,1.283-1.083,1.649-1.85
										c0.434-0.8,0.617-1.633,0.551-2.5c-0.067-0.867-0.384-1.65-0.95-2.35l-0.95-1.3l0.55-1.55c0.267-0.8,0.3-1.633,0.101-2.5
										c-0.2-0.867-0.617-1.6-1.25-2.2c-0.567-0.6-1.301-1-2.2-1.2c-0.867-0.2-1.7-0.167-2.5,0.1l-1.55,0.5l-1.25-0.95
										C119.533,43.75,118.6,43.45,117.6,43.45z M123.1,44.6c0.867-0.267,1.75-0.3,2.65-0.1c0.934,0.2,1.7,0.617,2.3,1.25
										c0.667,0.667,1.101,1.433,1.3,2.3c0.2,0.9,0.15,1.784-0.149,2.65l-0.45,1.4l0.9,1.2c0.566,0.767,0.883,1.6,0.949,2.5
										c0.067,0.9-0.116,1.767-0.55,2.6c-0.399,0.8-0.983,1.434-1.75,1.9c-0.767,0.467-1.616,0.7-2.55,0.7h-1.55l-0.851,1.2
										c-0.933,1.366-2.25,2.05-3.949,2.05l-0.75-0.05c-1.034-0.2-1.9-0.65-2.601-1.35c-0.6-0.6-1-1.267-1.2-2L114.4,59.4
										l-1.45-0.4c-0.767-0.267-1.417-0.667-1.95-1.2c-0.733-0.733-1.184-1.617-1.35-2.65c-0.134-0.933-0.034-1.816,0.3-2.65
										c0.366-0.833,0.916-1.517,1.649-2.05l1.25-0.85l-0.05-1.5c0-0.934,0.233-1.784,0.7-2.55s1.116-1.367,1.95-1.8
										c0.767-0.4,1.633-0.55,2.6-0.45c0.967,0.067,1.783,0.367,2.45,0.9l1.2,0.9L123.1,44.6z"/>
								</g>
							</g>
							<path style="fill-rule:evenodd;clip-rule:evenodd;fill:#31074F;" d="M113.2,52.7L115.6,51v-2.95
								c-0.066-0.8,0.301-1.417,1.101-1.85c0.733-0.4,1.45-0.333,2.149,0.2l2.351,1.75l2.8-0.95c0.833-0.267,1.533-0.1,2.1,0.5
								c0.601,0.6,0.767,1.3,0.5,2.1l-0.949,2.8l1.75,2.35c0.5,0.667,0.566,1.383,0.199,2.15c-0.366,0.767-0.983,1.15-1.85,1.15
								l-2.95-0.05l-1.7,2.4c-0.466,0.667-1.133,0.95-2,0.85c-0.433-0.1-0.8-0.3-1.1-0.6c-0.2-0.167-0.366-0.434-0.5-0.8l-0.9-2.85
								l-2.8-0.85c-0.233-0.067-0.517-0.233-0.85-0.5c-0.3-0.367-0.5-0.75-0.601-1.15C112.25,53.833,112.533,53.167,113.2,52.7z"/>
							<linearGradient id="SVGID_11_" gradientUnits="userSpaceOnUse" x1="125.6377" y1="57.8828" x2="115.9627" y2="48.2078">
								<stop  offset="0" style="stop-color:#6F87FE"/>
								<stop  offset="0.149" style="stop-color:#7389FE"/>
								<stop  offset="0.3216" style="stop-color:#7F8CFE"/>
								<stop  offset="0.5059" style="stop-color:#9493FE"/>
								<stop  offset="0.698" style="stop-color:#B39BFE"/>
								<stop  offset="0.898" style="stop-color:#DAA5FE"/>
								<stop  offset="1" style="stop-color:#F1ABFE"/>
							</linearGradient>
							<path style="fill-rule:evenodd;clip-rule:evenodd;fill:url(#SVGID_11_);" d="M113.6,55.15c-0.133-0.133-0.233-0.333-0.3-0.6
								c-0.066-0.433,0.084-0.783,0.45-1.05l2.85-2l-0.05-3.45c0-0.466,0.2-0.8,0.601-1c0.433-0.167,0.816-0.133,1.149,0.1l2.75,2.1
								l3.25-1.15c0.467-0.1,0.851,0,1.15,0.3c0.333,0.267,0.416,0.633,0.25,1.1l-1.101,3.25l2.051,2.8
								c0.267,0.333,0.3,0.717,0.1,1.15c-0.233,0.4-0.566,0.6-1,0.6l-3.45-0.05l-2,2.8c-0.2,0.367-0.55,0.517-1.05,0.45
								c-0.267-0.067-0.467-0.167-0.6-0.3l-0.25-0.45l-1.051-3.3l-3.3-1L113.6,55.15z"/>
							<path style="fill-rule:evenodd;clip-rule:evenodd;fill:#E0DBF7;" d="M113.75,53.5l2.85-2l-0.05-3.45c0-0.466,0.2-0.8,0.601-1
								c0.433-0.167,0.816-0.133,1.149,0.1l2.75,2.1l3.25-1.15c0.467-0.1,0.851,0,1.15,0.3l0.1,0.2
								c-0.233-0.067-0.434-0.05-0.6,0.05l-3.25,1.1l-2.8-2.1c-0.301-0.267-0.684-0.283-1.15-0.05c-0.4,0.167-0.6,0.483-0.6,0.95
								L117.2,52l-2.8,2c-0.367,0.267-0.517,0.617-0.45,1.05c0,0.133,0.05,0.267,0.149,0.4h-0.05l-0.45-0.3
								c-0.133-0.133-0.233-0.333-0.3-0.6C113.233,54.117,113.384,53.767,113.75,53.5z"/>
						</g>
					</g>
				</g>
			</g>
			<g>
				<g>
					<g>
						<g>
							<g>
								
									<linearGradient id="SVGID_12_" gradientUnits="userSpaceOnUse" x1="-64.1016" y1="51.5249" x2="-43.4766" y2="51.5249" gradientTransform="matrix(4.848485e-005 -1 1 -0.001 5.396148e-006 -4.842016e-005)">
									<stop  offset="0.0549" style="stop-color:#8E5B86"/>
									<stop  offset="0.9882" style="stop-color:#CFACCA"/>
								</linearGradient>
								<path style="fill-rule:evenodd;clip-rule:evenodd;fill:url(#SVGID_12_);" d="M41.2,55.8c0.1-0.867,0.417-1.65,0.95-2.35
									l0.95-1.3l-0.5-1.5c-0.3-0.833-0.35-1.683-0.15-2.55c0.2-0.867,0.617-1.6,1.25-2.2c0.867-0.9,1.95-1.35,3.25-1.35
									c0.566,0,1.066,0.067,1.5,0.2l1.5,0.55l1.3-0.95c0.8-0.633,1.717-0.95,2.75-0.95c0.667,0,1.367,0.167,2.1,0.5
									c0.8,0.434,1.417,1.017,1.85,1.75c0.466,0.767,0.683,1.583,0.65,2.45v1.6l1.3,0.9c0.733,0.533,1.267,1.2,1.6,2
									c0.333,0.8,0.433,1.633,0.3,2.5c-0.133,0.966-0.566,1.816-1.3,2.55c-0.567,0.567-1.2,0.95-1.9,1.15l-1.5,0.45l-0.5,1.5
									c-0.2,0.733-0.583,1.383-1.15,1.95c-0.667,0.7-1.517,1.133-2.55,1.3l-0.7,0.05c-1.567,0-2.833-0.65-3.8-1.95l-0.9-1.3h-1.65
									c-0.867,0-1.667-0.216-2.4-0.65c-0.767-0.467-1.333-1.083-1.7-1.85C41.317,57.5,41.133,56.667,41.2,55.8z"/>
								<g>
									<linearGradient id="SVGID_13_" gradientUnits="userSpaceOnUse" x1="51.5376" y1="43.3701" x2="51.5376" y2="64.1499">
										<stop  offset="0.149" style="stop-color:#6B49A5"/>
										<stop  offset="0.9373" style="stop-color:#A897D3"/>
									</linearGradient>
									<path style="fill-rule:evenodd;clip-rule:evenodd;fill:url(#SVGID_13_);" d="M42.05,53.4L43,52.15l-0.5-1.5
										c-0.267-0.867-0.3-1.717-0.1-2.55c0.2-0.9,0.617-1.667,1.25-2.3c0.6-0.6,1.35-1,2.25-1.2c0.867-0.2,1.717-0.167,2.55,0.1
										l1.5,0.5l1.25-0.95c0.667-0.5,1.466-0.783,2.4-0.85c0.933-0.1,1.783,0.05,2.55,0.45c0.8,0.4,1.434,0.983,1.9,1.75
										c0.467,0.767,0.684,1.6,0.65,2.5v1.55l1.25,0.9c0.733,0.534,1.267,1.2,1.6,2c0.367,0.833,0.483,1.684,0.35,2.55
										c-0.133,0.966-0.583,1.833-1.35,2.6c-0.533,0.533-1.167,0.933-1.9,1.2l-1.5,0.45L56.7,60.8
										c-0.233,0.767-0.633,1.417-1.2,1.95c-0.667,0.7-1.517,1.133-2.55,1.3l-0.75,0.1c-1.6,0-2.883-0.667-3.85-2l-0.9-1.25h-1.6
										c-0.9,0-1.717-0.233-2.45-0.7c-0.767-0.467-1.35-1.083-1.75-1.85c-0.433-0.8-0.6-1.65-0.5-2.55
										C41.217,54.9,41.517,54.1,42.05,53.4z"/>
									<path style="fill-rule:evenodd;clip-rule:evenodd;fill:none;stroke:#C3B0EC;stroke-width:0.25;" d="M42.05,53.4L43,52.15
										l-0.5-1.5c-0.267-0.867-0.3-1.717-0.1-2.55c0.2-0.9,0.617-1.667,1.25-2.3c0.6-0.6,1.35-1,2.25-1.2
										c0.867-0.2,1.717-0.167,2.55,0.1l1.5,0.5l1.25-0.95c0.667-0.5,1.466-0.783,2.4-0.85c0.933-0.1,1.783,0.05,2.55,0.45
										c0.8,0.4,1.434,0.983,1.9,1.75c0.467,0.767,0.684,1.6,0.65,2.5v1.55l1.25,0.9c0.733,0.534,1.267,1.2,1.6,2
										c0.367,0.833,0.483,1.684,0.35,2.55c-0.133,0.966-0.583,1.833-1.35,2.6c-0.533,0.533-1.167,0.933-1.9,1.2l-1.5,0.45
										L56.7,60.8c-0.233,0.767-0.633,1.417-1.2,1.95c-0.667,0.7-1.517,1.133-2.55,1.3l-0.75,0.1c-1.6,0-2.883-0.667-3.85-2
										l-0.9-1.25h-1.6c-0.9,0-1.717-0.233-2.45-0.7c-0.767-0.467-1.35-1.083-1.75-1.85c-0.433-0.8-0.6-1.65-0.5-2.55
										C41.217,54.9,41.517,54.1,42.05,53.4z"/>
									<path style="fill-rule:evenodd;clip-rule:evenodd;fill:#C3B0EC;" d="M42.5,48.1c-0.2,0.867-0.167,1.7,0.1,2.5l0.5,1.55
										l-0.95,1.3c-0.533,0.7-0.833,1.483-0.9,2.35s0.1,1.7,0.5,2.5c0.4,0.767,0.967,1.383,1.7,1.85
										c0.733,0.434,1.533,0.65,2.4,0.65l1.65-0.05l0.95,1.35c0.5,0.7,1.167,1.216,2,1.55c0.8,0.367,1.617,0.467,2.45,0.3
										c0.967-0.134,1.817-0.55,2.55-1.25c0.566-0.567,0.95-1.217,1.15-1.95l0.45-1.5l1.55-0.45c0.7-0.233,1.333-0.617,1.9-1.15
										c0.633-0.633,1.067-1.483,1.3-2.55c0.133-0.867,0.034-1.7-0.3-2.5c-0.333-0.8-0.867-1.45-1.6-1.95l-1.3-0.95v-1.6
										c0-0.867-0.217-1.684-0.65-2.45c-0.467-0.733-1.083-1.3-1.85-1.7c-0.667-0.333-1.35-0.5-2.05-0.5
										c-1.033,0-1.966,0.3-2.8,0.9l-1.3,0.95l-1.5-0.5c-0.8-0.267-1.633-0.3-2.5-0.1c-0.9,0.2-1.65,0.6-2.25,1.2
										C43.1,46.5,42.7,47.233,42.5,48.1z M43.55,45.75c0.633-0.633,1.417-1.05,2.35-1.25c0.9-0.2,1.767-0.167,2.6,0.1l1.4,0.5
										l1.2-0.9c0.7-0.534,1.533-0.833,2.5-0.9c0.967-0.1,1.833,0.05,2.6,0.45c0.833,0.433,1.483,1.033,1.95,1.8
										s0.684,1.617,0.65,2.55v1.5l1.2,0.85c0.733,0.533,1.283,1.216,1.65,2.05s0.483,1.717,0.35,2.65
										c-0.133,0.967-0.6,1.85-1.4,2.65c-0.533,0.567-1.184,0.967-1.95,1.2l-1.4,0.4l-0.45,1.45c-0.233,0.733-0.633,1.4-1.2,2
										c-0.667,0.7-1.55,1.15-2.65,1.35l-0.75,0.05c-1.7,0-3.017-0.684-3.95-2.05L47.4,61h-1.55c-0.9,0-1.733-0.233-2.5-0.7
										c-0.767-0.466-1.367-1.1-1.8-1.9c-0.433-0.833-0.6-1.7-0.5-2.6c0.067-0.9,0.383-1.733,0.95-2.5l0.9-1.2l-0.5-1.4
										c-0.3-0.867-0.35-1.75-0.15-2.65C42.45,47.183,42.883,46.417,43.55,45.75z"/>
								</g>
							</g>
							<path style="fill-rule:evenodd;clip-rule:evenodd;fill:#31074F;" d="M44.05,57.1c-0.4-0.7-0.35-1.417,0.15-2.15l1.75-2.35
								L45,49.8c-0.233-0.833-0.067-1.533,0.5-2.1c0.6-0.6,1.3-0.767,2.1-0.5l2.8,0.95l2.4-1.75c0.633-0.533,1.35-0.6,2.15-0.2
								c0.733,0.466,1.1,1.083,1.1,1.85L56,51l2.4,1.7c0.667,0.466,0.95,1.133,0.85,2c-0.033,0.4-0.217,0.783-0.55,1.15
								c-0.3,0.233-0.583,0.4-0.85,0.5L55,57.2l-0.85,2.85c-0.1,0.3-0.267,0.567-0.5,0.8c-0.3,0.3-0.683,0.5-1.15,0.6
								c-0.867,0.1-1.517-0.184-1.95-0.85l-1.75-2.4l-2.95,0.05C44.983,58.25,44.383,57.867,44.05,57.1z"/>
							
								<linearGradient id="SVGID_14_" gradientUnits="userSpaceOnUse" x1="-8.397" y1="73.4507" x2="5.2855" y2="73.4507" gradientTransform="matrix(0.7071 -0.7071 0.7071 0.7071 2.749562e-004 -7.039309e-005)">
								<stop  offset="0" style="stop-color:#6F87FE"/>
								<stop  offset="0.149" style="stop-color:#7389FE"/>
								<stop  offset="0.3216" style="stop-color:#7F8CFE"/>
								<stop  offset="0.5059" style="stop-color:#9493FE"/>
								<stop  offset="0.698" style="stop-color:#B39BFE"/>
								<stop  offset="0.898" style="stop-color:#DAA5FE"/>
								<stop  offset="1" style="stop-color:#F1ABFE"/>
							</linearGradient>
							<path style="fill-rule:evenodd;clip-rule:evenodd;fill:url(#SVGID_14_);" d="M53.35,47.15c0.333-0.233,0.717-0.267,1.15-0.1
								c0.4,0.233,0.6,0.567,0.6,1l-0.05,3.45l2.8,2c0.367,0.267,0.517,0.617,0.45,1.05c-0.033,0.267-0.133,0.467-0.3,0.6
								c-0.033,0.067-0.183,0.167-0.45,0.3l-3.3,1l-1,3.3c-0.067,0.2-0.167,0.35-0.3,0.45c-0.133,0.167-0.333,0.267-0.6,0.3
								c-0.434,0.066-0.783-0.083-1.05-0.45l-2-2.8l-3.45,0.05c-0.434,0-0.767-0.2-1-0.6c-0.167-0.467-0.133-0.85,0.1-1.15l2.1-2.8
								l-1.1-3.25c-0.167-0.467-0.083-0.833,0.25-1.1c0.3-0.3,0.667-0.4,1.1-0.3l3.3,1.15L53.35,47.15z"/>
							<path style="fill-rule:evenodd;clip-rule:evenodd;fill:#E0DBF7;" d="M53.35,47.15c0.333-0.233,0.717-0.267,1.15-0.1
								c0.4,0.233,0.6,0.567,0.6,1l-0.05,3.45l2.8,2c0.367,0.267,0.517,0.617,0.45,1.05c-0.033,0.267-0.133,0.467-0.3,0.6
								c-0.033,0.067-0.183,0.167-0.45,0.3l0.1-0.4c0.1-0.4-0.05-0.75-0.45-1.05l-2.8-2l0.05-3.45c0-0.466-0.2-0.783-0.6-0.95
								c-0.4-0.233-0.783-0.217-1.15,0.05L53.35,47.15z M50.6,49.25l-0.65,0.5l-3.3-1.1c-0.167-0.1-0.367-0.117-0.6-0.05
								c0.034-0.1,0.083-0.167,0.15-0.2c0.3-0.3,0.667-0.4,1.1-0.3L50.6,49.25z"/>
						</g>
					</g>
				</g>
			</g>
		</g>
		
			<use xlink:href="#FlashAICB_x2F_Layer_1_x2F__x3C_Group_x3E_"  width="119.25" height="66.434" y="-66.434" transform="matrix(1 0 0 -1 26.25 22.2002)" style="overflow:visible;opacity:0.4883;enable-background:new    ;"/>
	</g>
</g>
</svg>
