<?xml version="1.0" encoding="iso-8859-1"?>
<!-- Generator: Adobe Illustrator 15.1.0, SVG Export Plug-In . SVG Version: 6.00 Build 0)  -->
<!DOCTYPE svg PUBLIC "-//W3C//DTD SVG 1.1//EN" "http://www.w3.org/Graphics/SVG/1.1/DTD/svg11.dtd">
<svg version="1.1" id="Layer_1" xmlns="http://www.w3.org/2000/svg" xmlns:xlink="http://www.w3.org/1999/xlink" x="0px" y="0px"
	 width="171.7px" height="171.75px" viewBox="0 0 171.7 171.75" style="enable-background:new 0 0 171.7 171.75;"
	 xml:space="preserve">
<symbol  id="FlashAICB_x2F_Layer_1_x2F__x3C_Clip_Group_0_x3E_" viewBox="0 -16.8 28.584 16.804">
	<g id="Layer_1_3_">
	</g>
	<g>
		<defs>
			<polygon id="SVGID_1_" points="0,0 0,-16.8 28.55,-16.8 28.55,0 			"/>
		</defs>
		<clipPath id="SVGID_2_">
			<use xlink:href="#SVGID_1_"  style="overflow:visible;"/>
		</clipPath>
		<g id="Layer_3_1_" style="clip-path:url(#SVGID_2_);">
			<path style="fill-rule:evenodd;clip-rule:evenodd;" d="M22.85-0.1c2.3-0.5,3.933-1.633,4.9-3.4C28.683-5.167,28.833-7,28.2-9
				c-0.667-2.1-2.034-3.85-4.1-5.25c-2.3-1.533-5.117-2.367-8.45-2.5C8.85-17.017,4.133-15.2,1.5-11.3C0.5-9.8,0-8.25,0-6.65
				c0,1.533,0.4,2.667,1.2,3.4C0.633-4.15,0.533-5.3,0.9-6.7c0.367-1.5,1.184-2.867,2.45-4.1c1.933-1.867,4.967-2.833,9.1-2.9
				c4.033-0.066,7.15,0.733,9.35,2.4c2.233,1.7,3,3.983,2.3,6.85c-0.733,2.9-2.5,3.934-5.3,3.1L18.45-1.5
				C19.917-0.233,21.383,0.233,22.85-0.1z"/>
		</g>
	</g>
	<g id="Layer_4_1_">
	</g>
</symbol>
<symbol  id="FlashAICB_x2F_Layer_1_x2F__x3C_Clip_Group_0_x3E__x5F_0" viewBox="0 -16.8 28.534 16.8">
	<g id="Layer_1_4_">
	</g>
	<g>
		<defs>
			<polygon id="SVGID_3_" points="0,0 0,-16.8 28.5,-16.8 28.5,0 			"/>
		</defs>
		<clipPath id="SVGID_4_">
			<use xlink:href="#SVGID_3_"  style="overflow:visible;"/>
		</clipPath>
		<g id="Layer_3_2_" style="clip-path:url(#SVGID_4_);">
			<path style="fill-rule:evenodd;clip-rule:evenodd;" d="M22.8-0.1c2.3-0.5,3.934-1.633,4.9-3.4C28.633-5.167,28.783-7,28.15-9
				c-0.667-2.1-2.033-3.85-4.1-5.25c-2.3-1.533-5.117-2.367-8.45-2.5C10.7-16.95,6.833-16,4-13.9c-2.3,1.7-3.617,3.816-3.95,6.35
				c0.567-1.567,1.767-3.1,3.6-4.6c2.233-1.867,4.684-2.934,7.35-3.2c4.333-0.4,7.933,0.033,10.8,1.3
				c2.733,1.233,4.417,3.033,5.05,5.4C28.117-4.217,26.533-1.333,22.1,0C22.416-0.006,22.649-0.04,22.8-0.1z"/>
		</g>
	</g>
	<g id="Layer_4_2_">
	</g>
</symbol>
<symbol  id="FlashAICB_x2F_Layer_1_x2F__x3C_Clip_Group_0_x3E__x5F_1" viewBox="0 -5.65 6.95 5.65">
	<g id="Layer_1_5_">
	</g>
	<g>
		<defs>
			<polygon id="SVGID_5_" points="0,0 0,-5.65 6.95,-5.65 6.95,0 			"/>
		</defs>
		<clipPath id="SVGID_6_">
			<use xlink:href="#SVGID_5_"  style="overflow:visible;"/>
		</clipPath>
		<g id="Layer_3_3_" style="clip-path:url(#SVGID_6_);">
		</g>
	</g>
	<g id="Layer_4_3_">
	</g>
</symbol>
<symbol  id="FlashAICB_x2F_Layer_1_x2F__x3C_Clip_Group_0_x3E__x5F_10" viewBox="0 -5.2 6.15 5.2">
	<g id="Layer_1_15_">
	</g>
	<g>
		<defs>
			<polygon id="SVGID_7_" points="0.45,0 0,-4.65 5.7,-5.2 6.15,-0.55 			"/>
		</defs>
		<clipPath id="SVGID_8_">
			<use xlink:href="#SVGID_7_"  style="overflow:visible;"/>
		</clipPath>
		<g id="Layer_3_12_" style="clip-path:url(#SVGID_8_);">
			<path style="fill-rule:evenodd;clip-rule:evenodd;fill:#FFFFFF;" d="M3-1.7c0.033-0.433,0.417-0.8,1.15-1.1
				C4.983-3.2,5.5-3.567,5.7-3.9c0.333-0.6,0-0.967-1-1.1c-1-0.167-1.983,0.033-2.95,0.6c-0.9,0.566-1.4,1.283-1.5,2.15
				C0.183-1.483,0.417-0.867,0.95-0.4c0.4,0.367,0.833,0.4,1.3,0.1C2.717-0.6,2.967-1.067,3-1.7z"/>
		</g>
	</g>
	<g id="Layer_4_12_">
	</g>
</symbol>
<symbol  id="FlashAICB_x2F_Layer_1_x2F__x3C_Clip_Group_0_x3E__x5F_11" viewBox="0 -7.25 9.85 7.25">
	<g id="Layer_1_16_">
	</g>
	<g>
		<defs>
			<polygon id="SVGID_9_" points="0.65,0 0,-6.35 9.25,-7.25 9.85,-0.9 			"/>
		</defs>
		<clipPath id="SVGID_10_">
			<use xlink:href="#SVGID_9_"  style="overflow:visible;"/>
		</clipPath>
		<g id="Layer_3_13_" style="clip-path:url(#SVGID_10_);">
			<path style="fill-rule:evenodd;clip-rule:evenodd;fill:#FFFFFF;" d="M7.05-1.25c0.233,0.333,0.583,0.5,1.05,0.5
				c0.533,0,0.95-0.35,1.25-1.05c0.433-1.1,0.367-2.083-0.2-2.95c-0.767-1.1-2.3-1.733-4.6-1.9C3.017-6.75,1.833-6.5,1-5.9
				c-0.7,0.5-0.95,1-0.75,1.5c0.1,0.333,0.533,0.533,1.3,0.6C2.017-3.767,2.867-3.717,4.1-3.65c0.867,0.066,1.533,0.383,2,0.95
				C6.4-2.367,6.717-1.883,7.05-1.25z"/>
		</g>
	</g>
	<g id="Layer_4_13_">
	</g>
</symbol>
<symbol  id="FlashAICB_x2F_Layer_1_x2F__x3C_Clip_Group_0_x3E__x5F_12" viewBox="0 -5.7 6.75 5.7">
	<g id="Layer_1_17_">
	</g>
	<g>
		<defs>
			<polygon id="SVGID_11_" points="0.5,0 0,-5.05 6.25,-5.7 6.75,-0.6 			"/>
		</defs>
		<clipPath id="SVGID_12_">
			<use xlink:href="#SVGID_11_"  style="overflow:visible;"/>
		</clipPath>
		<g id="Layer_3_14_" style="clip-path:url(#SVGID_12_);">
		</g>
	</g>
	<g id="Layer_4_14_">
	</g>
</symbol>
<symbol  id="FlashAICB_x2F_Layer_1_x2F__x3C_Clip_Group_0_x3E__x5F_2" viewBox="0 -7.7 11.2 7.7">
	<g id="Layer_1_6_">
	</g>
	<g>
		<defs>
			<polygon id="SVGID_13_" points="0,0 0,-7.7 11.2,-7.7 11.2,0 			"/>
		</defs>
		<clipPath id="SVGID_14_">
			<use xlink:href="#SVGID_13_"  style="overflow:visible;"/>
		</clipPath>
		<g id="Layer_3_4_" style="clip-path:url(#SVGID_14_);">
		</g>
	</g>
	<g id="Layer_4_4_">
	</g>
</symbol>
<symbol  id="FlashAICB_x2F_Layer_1_x2F__x3C_Clip_Group_0_x3E__x5F_3" viewBox="0 -6.15 7.6 6.15">
	<g id="Layer_1_7_">
	</g>
	<g>
		<defs>
			<polygon id="SVGID_15_" points="0,0 0,-6.15 7.6,-6.15 7.6,0 			"/>
		</defs>
		<clipPath id="SVGID_16_">
			<use xlink:href="#SVGID_15_"  style="overflow:visible;"/>
		</clipPath>
		<g id="Layer_3_5_" style="clip-path:url(#SVGID_16_);">
		</g>
	</g>
	<g id="Layer_4_5_">
	</g>
</symbol>
<symbol  id="FlashAICB_x2F_Layer_1_x2F__x3C_Clip_Group_0_x3E__x5F_4" viewBox="0 -56.6 76.75 56.6">
	<g id="Layer_1_9_">
	</g>
	<g>
		<defs>
			<polygon id="SVGID_17_" points="66.45,0 0,-17.55 10.3,-56.6 76.75,-39.05 			"/>
		</defs>
		<clipPath id="SVGID_18_">
			<use xlink:href="#SVGID_17_"  style="overflow:visible;"/>
		</clipPath>
		<g id="Layer_3_6_" style="clip-path:url(#SVGID_18_);">
			<path style="fill-rule:evenodd;clip-rule:evenodd;" d="M66.8-8.65c3.133-3.3,4.583-7.483,4.35-12.55
				c-0.267-5.267-2.35-10.15-6.25-14.65c-4.367-5.033-10.417-8.733-18.15-11.1c-15.767-4.767-27.883-3.417-36.35,4.05
				c-3.2,2.833-5.316,6.133-6.35,9.9c-0.933,3.5-0.683,6.367,0.75,8.6c-0.767-2.467-0.316-5.233,1.35-8.3
				c1.8-3.267,4.55-5.9,8.25-7.9c5.667-3.1,13.3-3.5,22.9-1.2c9.467,2.3,16.25,6.066,20.35,11.3c1.934,2.467,2.983,5.367,3.15,8.7
				c0.133,3.133-0.517,6.017-1.95,8.65c-1.467,2.7-3.4,4.45-5.8,5.25c-2.667,0.933-5.466,0.5-8.4-1.3l-0.8-0.6
				c2.667,3.867,5.8,5.883,9.4,6.05C58.95-3.483,63.467-5.117,66.8-8.65z"/>
		</g>
	</g>
	<g id="Layer_4_6_">
	</g>
</symbol>
<symbol  id="FlashAICB_x2F_Layer_1_x2F__x3C_Clip_Group_0_x3E__x5F_5" viewBox="0 -56.5 76.6 56.5">
	<g id="Layer_1_10_">
	</g>
	<g>
		<defs>
			<polygon id="SVGID_19_" points="66.3,0 0,-17.5 10.3,-56.5 76.6,-39 			"/>
		</defs>
		<clipPath id="SVGID_20_">
			<use xlink:href="#SVGID_19_"  style="overflow:visible;"/>
		</clipPath>
		<g id="Layer_3_7_" style="clip-path:url(#SVGID_20_);">
			<path style="fill-rule:evenodd;clip-rule:evenodd;" d="M66.65-8.6c3.133-3.3,4.583-7.483,4.35-12.55
				c-0.267-5.267-2.35-10.15-6.25-14.65c-4.367-5.034-10.417-8.733-18.15-11.1c-11.3-3.434-20.917-3.6-28.85-0.5
				c-6.433,2.533-10.8,6.65-13.1,12.35c2.3-3.3,6.05-6.15,11.25-8.55c6.333-2.9,12.7-3.833,19.1-2.8
				c10.333,1.7,18.45,4.933,24.35,9.7c5.533,4.5,8.35,9.684,8.45,15.55c0.1,5.367-1.183,9.5-3.85,12.4
				C61.15-5.717,57-4.117,51.5-3.95L51.2-4c0.6,0.133,1.233,0.233,1.9,0.3C58.8-3.433,63.317-5.067,66.65-8.6z"/>
		</g>
	</g>
	<g id="Layer_4_7_">
	</g>
</symbol>
<symbol  id="FlashAICB_x2F_Layer_1_x2F__x3C_Clip_Group_0_x3E__x5F_6" viewBox="0 -17.4 19.6 17.4">
	<g id="Layer_1_11_">
	</g>
	<g>
		<defs>
			<polygon id="SVGID_21_" points="16.15,0 0,-4.25 3.45,-17.4 19.6,-13.1 			"/>
		</defs>
		<clipPath id="SVGID_22_">
			<use xlink:href="#SVGID_21_"  style="overflow:visible;"/>
		</clipPath>
		<g id="Layer_3_8_" style="clip-path:url(#SVGID_22_);">
			<path style="fill-rule:evenodd;clip-rule:evenodd;fill:#FFFFFF;" d="M8.65-6.25c0.5-1.1,1.917-1.733,4.25-1.9
				c2.667-0.167,4.45-0.633,5.35-1.4c1.5-1.267,0.967-2.6-1.6-4c-2.633-1.467-5.517-1.9-8.65-1.3c-3.033,0.567-5.1,1.967-6.2,4.2
				c-0.966,2-0.966,3.95,0,5.85c0.667,1.367,1.784,1.867,3.35,1.5C6.717-3.633,7.883-4.617,8.65-6.25z"/>
		</g>
	</g>
	<g id="Layer_4_8_">
	</g>
</symbol>
<symbol  id="FlashAICB_x2F_Layer_1_x2F__x3C_Clip_Group_0_x3E__x5F_7" viewBox="0 -24.7 30.75 24.7">
	<g id="Layer_1_12_">
	</g>
	<g>
		<defs>
			<polygon id="SVGID_23_" points="26,0 0,-6.85 4.7,-24.7 30.75,-17.8 			"/>
		</defs>
		<clipPath id="SVGID_24_">
			<use xlink:href="#SVGID_23_"  style="overflow:visible;"/>
		</clipPath>
		<g id="Layer_3_9_" style="clip-path:url(#SVGID_24_);">
			<path style="fill-rule:evenodd;clip-rule:evenodd;fill:#FFFFFF;" d="M25.6-2.95c2.3-2.5,3.083-5.216,2.35-8.15
				c-0.934-3.8-4.45-7.083-10.55-9.85c-4.1-1.867-7.583-2.417-10.45-1.65c-2.4,0.633-3.617,1.767-3.65,3.4c0,1,0.983,1.95,2.95,2.85
				c2.867,1.133,5.15,2.133,6.85,3c2.3,1.167,3.816,2.767,4.55,4.8c0.4,1.133,0.75,2.716,1.05,4.75c0.333,1.2,1.117,2.033,2.35,2.5
				C22.55-0.767,24.067-1.317,25.6-2.95z"/>
		</g>
	</g>
	<g id="Layer_4_9_">
	</g>
</symbol>
<symbol  id="FlashAICB_x2F_Layer_1_x2F__x3C_Clip_Group_0_x3E__x5F_8" viewBox="0 -16.2 24.9 16.2">
	<g id="Layer_1_13_">
	</g>
	<g>
		<defs>
			<polygon id="SVGID_25_" points="1.4,0 0,-13.9 23.55,-16.2 24.9,-2.35 			"/>
		</defs>
		<clipPath id="SVGID_26_">
			<use xlink:href="#SVGID_25_"  style="overflow:visible;"/>
		</clipPath>
		<g id="Layer_3_10_" style="clip-path:url(#SVGID_26_);">
			<path style="fill-rule:evenodd;clip-rule:evenodd;" d="M24-5.15c0.6-1.467,0.567-3-0.1-4.6c-1.7-3.933-5.367-5.733-11-5.4
				c-5.633,0.367-9.367,2.267-11.2,5.7C1-8.15,0.717-6.833,0.85-5.5c0.1,1.233,0.517,2.133,1.25,2.7C1.567-3.5,1.383-4.45,1.55-5.65
				c0.2-1.267,0.767-2.45,1.7-3.55c1.467-1.667,3.883-2.716,7.25-3.15c3.333-0.4,5.967,0,7.9,1.2c2,1.2,2.833,3.017,2.5,5.45
				c-0.367,2.467-1.733,3.467-4.1,3l-0.35-0.1c1.3,0.933,2.55,1.216,3.75,0.85C22.067-2.55,23.333-3.617,24-5.15z"/>
		</g>
	</g>
	<g id="Layer_4_10_">
	</g>
</symbol>
<symbol  id="FlashAICB_x2F_Layer_1_x2F__x3C_Clip_Group_0_x3E__x5F_9" viewBox="0 -16.15 24.85 16.15">
	<g id="Layer_1_14_">
	</g>
	<g>
		<defs>
			<polygon id="SVGID_27_" points="1.4,0 0,-13.85 23.5,-16.15 24.85,-2.3 			"/>
		</defs>
		<clipPath id="SVGID_28_">
			<use xlink:href="#SVGID_27_"  style="overflow:visible;"/>
		</clipPath>
		<g id="Layer_3_11_" style="clip-path:url(#SVGID_28_);">
			<path style="fill-rule:evenodd;clip-rule:evenodd;" d="M23.95-5.1c0.6-1.467,0.566-3-0.1-4.6c-1.7-3.933-5.367-5.733-11-5.4
				c-4.033,0.233-7.133,1.333-9.3,3.3C1.783-10.2,0.867-8.333,0.8-6.2C1.133-7.533,2-8.9,3.4-10.3c1.667-1.733,3.6-2.817,5.8-3.25
				c3.533-0.7,6.533-0.633,9,0.2c2.333,0.8,3.867,2.133,4.6,4c1.359,3.547,0.309,6.056-3.15,7.525l0.5-0.075
				C22.017-2.5,23.283-3.567,23.95-5.1z"/>
		</g>
	</g>
	<g id="Layer_4_11_">
	</g>
</symbol>
<symbol  id="FlashAICB_x2F_Layer_1_x2F__x3C_Group_x3E_" viewBox="0 -6.15 7.6 6.15">
	<g id="Layer_1_25_">
		<g>
			
				<use xlink:href="#FlashAICB_x2F_Layer_1_x2F__x3C_Clip_Group_0_x3E__x5F_3"  width="7.6" height="6.15" y="-6.15" style="overflow:visible;"/>
		</g>
	</g>
</symbol>
<symbol  id="FlashAICB_x2F_Layer_1_x2F__x3C_Group_x3E__x5F_0" viewBox="0 -24.7 30.75 24.7">
	<g id="Layer_1_29_">
		<g>
			
				<use xlink:href="#FlashAICB_x2F_Layer_1_x2F__x3C_Clip_Group_0_x3E__x5F_7"  width="30.75" height="24.7" y="-24.7" style="overflow:visible;"/>
		</g>
	</g>
</symbol>
<symbol  id="FlashAICB_x2F_Layer_1_x2F__x3C_Group_x3E__x5F_1" viewBox="0 -7.7 11.2 7.7">
	<g id="Layer_1_24_">
		<g>
			
				<use xlink:href="#FlashAICB_x2F_Layer_1_x2F__x3C_Clip_Group_0_x3E__x5F_2"  width="11.2" height="7.7" y="-7.7" style="overflow:visible;"/>
		</g>
	</g>
</symbol>
<symbol  id="FlashAICB_x2F_Layer_1_x2F__x3C_Group_x3E__x5F_1_x5F_0" viewBox="0 -17.4 19.6 17.4">
	<g id="Layer_1_28_">
		<g>
			
				<use xlink:href="#FlashAICB_x2F_Layer_1_x2F__x3C_Clip_Group_0_x3E__x5F_6"  width="19.6" height="17.4" y="-17.4" style="overflow:visible;"/>
		</g>
	</g>
</symbol>
<symbol  id="FlashAICB_x2F_Layer_1_x2F__x3C_Group_x3E__x5F_1_x5F_1" viewBox="0 -7.25 9.85 7.25">
	<g id="Layer_1_33_">
		<g>
			
				<use xlink:href="#FlashAICB_x2F_Layer_1_x2F__x3C_Clip_Group_0_x3E__x5F_11"  width="9.85" height="7.25" y="-7.25" style="overflow:visible;"/>
		</g>
	</g>
</symbol>
<symbol  id="FlashAICB_x2F_Layer_1_x2F__x3C_Group_x3E__x5F_2" viewBox="0 -5.65 6.95 5.65">
	<g id="Layer_1_23_">
		<g>
			
				<use xlink:href="#FlashAICB_x2F_Layer_1_x2F__x3C_Clip_Group_0_x3E__x5F_1"  width="6.95" height="5.65" y="-5.65" style="overflow:visible;"/>
		</g>
	</g>
</symbol>
<symbol  id="FlashAICB_x2F_Layer_1_x2F__x3C_Group_x3E__x5F_2_x5F_0" viewBox="0 -56.5 76.6 56.5">
	<g id="Layer_1_27_">
		<g>
			
				<use xlink:href="#FlashAICB_x2F_Layer_1_x2F__x3C_Clip_Group_0_x3E__x5F_5"  width="76.6" height="56.5" y="-56.5" style="overflow:visible;"/>
		</g>
	</g>
</symbol>
<symbol  id="FlashAICB_x2F_Layer_1_x2F__x3C_Group_x3E__x5F_2_x5F_1" viewBox="0 -5.2 6.15 5.2">
	<g id="Layer_1_32_">
		<g>
			
				<use xlink:href="#FlashAICB_x2F_Layer_1_x2F__x3C_Clip_Group_0_x3E__x5F_10"  width="6.15" height="5.2" y="-5.2" style="overflow:visible;"/>
		</g>
	</g>
</symbol>
<symbol  id="FlashAICB_x2F_Layer_1_x2F__x3C_Group_x3E__x5F_3" viewBox="0 -16.8 28.534 16.8">
	<g id="Layer_1_22_">
		<g>
			
				<use xlink:href="#FlashAICB_x2F_Layer_1_x2F__x3C_Clip_Group_0_x3E__x5F_0"  width="28.534" height="16.8" y="-16.8" style="overflow:visible;"/>
		</g>
	</g>
</symbol>
<symbol  id="FlashAICB_x2F_Layer_1_x2F__x3C_Group_x3E__x5F_3_x5F_0" viewBox="0 -56.6 76.75 56.6">
	<g id="Layer_1_26_">
		<g>
			
				<use xlink:href="#FlashAICB_x2F_Layer_1_x2F__x3C_Clip_Group_0_x3E__x5F_4"  width="76.75" height="56.6" y="-56.6" style="overflow:visible;"/>
		</g>
	</g>
</symbol>
<symbol  id="FlashAICB_x2F_Layer_1_x2F__x3C_Group_x3E__x5F_3_x5F_1" viewBox="0 -16.15 24.85 16.15">
	<g id="Layer_1_31_">
		<g>
			
				<use xlink:href="#FlashAICB_x2F_Layer_1_x2F__x3C_Clip_Group_0_x3E__x5F_9"  width="24.85" height="16.15" y="-16.15" style="overflow:visible;"/>
		</g>
	</g>
</symbol>
<symbol  id="FlashAICB_x2F_Layer_1_x2F__x3C_Group_x3E__x5F_4" viewBox="0 -16.8 28.584 16.804">
	<g id="Layer_1_21_">
		<g>
			
				<use xlink:href="#FlashAICB_x2F_Layer_1_x2F__x3C_Clip_Group_0_x3E_"  width="28.584" height="16.804" y="-16.8" style="overflow:visible;"/>
		</g>
	</g>
</symbol>
<symbol  id="FlashAICB_x2F_Layer_1_x2F__x3C_Group_x3E__x5F_4_x5F_0" viewBox="0 -16.2 24.9 16.2">
	<g id="Layer_1_30_">
		<g>
			
				<use xlink:href="#FlashAICB_x2F_Layer_1_x2F__x3C_Clip_Group_0_x3E__x5F_8"  width="24.9" height="16.2" y="-16.2" style="overflow:visible;"/>
		</g>
	</g>
</symbol>
<symbol  id="FlashAICB_x2F_Layer_1_x2F__x3C_Group_x3E__x5F_5" viewBox="0 -5.7 6.75 5.7">
	<g id="Layer_1_34_">
		<g>
			
				<use xlink:href="#FlashAICB_x2F_Layer_1_x2F__x3C_Clip_Group_0_x3E__x5F_12"  width="6.75" height="5.7" y="-5.7" style="overflow:visible;"/>
		</g>
	</g>
</symbol>
<symbol  id="FlashAICB_x2F_Layer_1_x2F__x3C_Path_x3E_" viewBox="-0.019 -16.835 26.669 16.789">
	<g id="Layer_1_8_">
		<path style="fill-rule:evenodd;clip-rule:evenodd;fill:#53B243;" d="M21-0.15c1.667-0.367,3-1.067,4-2.1
			c0.933-1,1.483-2.2,1.65-3.6c-0.1-0.3-0.267-0.533-0.5-0.7c-0.333-0.333-0.85-0.633-1.55-0.9c-0.767-0.3-1.3-0.566-1.6-0.8
			c-0.333-0.267-0.55-0.55-0.65-0.85c-0.167-0.367-0.117-0.667,0.15-0.9c0.133-0.133,0.433-0.233,0.9-0.3
			c0.434-0.067,0.733-0.2,0.9-0.4c0.6-0.633,0.367-1.466-0.7-2.5c-0.7-0.7-1.533-1.3-2.5-1.8c-2.133-1.133-4.567-1.733-7.3-1.8
			c-2.667-0.133-5.05,0.117-7.15,0.75c0.167,1.267,0.583,2.35,1.25,3.25l0.7,0.75L8.55-11.7c-0.066,0.367-0.367,0.667-0.9,0.9
			c-0.633,0.233-1.1,0.417-1.4,0.55c-0.967,0.433-1.7,0.783-2.2,1.05C3.217-8.767,2.567-8.317,2.1-7.85C0.433-6.117-0.25-4.5,0.05-3
			l0.1,0.3C2.683-1.167,5.067-1.65,7.3-4.15c0.7-0.8,1.717-1.267,3.05-1.4c1.367-0.1,2.433,0.2,3.2,0.9
			c0.567,0.5,1.55,1.533,2.95,3.1C17.967-0.283,19.467,0.183,21-0.15z"/>
	</g>
</symbol>
<symbol  id="FlashAICB_x2F_Layer_1_x2F__x3C_Path_x3E__x5F_0" viewBox="0 -61.9 128.65 61.9">
	<g id="Layer_1_18_">
		
			<radialGradient id="SVGID_29_" cx="64.3252" cy="-30.9502" r="50.4757" gradientTransform="matrix(1 0 0 -1 0 -61.9004)" gradientUnits="userSpaceOnUse">
			<stop  offset="0" style="stop-color:#DE98DD;stop-opacity:0"/>
			<stop  offset="0.149" style="stop-color:#D491D2;stop-opacity:0.1451"/>
			<stop  offset="0.4" style="stop-color:#B87DB7;stop-opacity:0.5333"/>
			<stop  offset="0.651" style="stop-color:#976696"/>
		</radialGradient>
		<path style="fill-rule:evenodd;clip-rule:evenodd;fill:url(#SVGID_29_);" d="M128.05-0.3l0.6,0.3
			c-0.633-17.233-7.167-31.85-19.6-43.85C96.55-55.883,81.633-61.9,64.3-61.9c-17.033,0-31.75,5.816-44.15,17.45
			C7.817-32.85,1.1-18.633,0-1.8c5-13,13.233-23.517,24.7-31.55c11.7-8.2,24.716-12.3,39.05-12.3c14.633,0,27.883,4.25,39.75,12.75
			C115.1-24.567,123.283-13.7,128.05-0.3z"/>
	</g>
</symbol>
<symbol  id="FlashAICB_x2F_Layer_1_x2F__x3C_Path_x3E__x5F_1" viewBox="0 -128.6 128.85 128.6">
	<g id="Layer_1_2_">
		
			<radialGradient id="SVGID_30_" cx="64.4248" cy="-64.2998" r="64.3626" gradientTransform="matrix(1 0 0 -1 0 -128.5996)" gradientUnits="userSpaceOnUse">
			<stop  offset="0" style="stop-color:#FBB6DB"/>
			<stop  offset="0.2392" style="stop-color:#F9B4D8"/>
			<stop  offset="0.4157" style="stop-color:#F3ADCF"/>
			<stop  offset="0.5686" style="stop-color:#E7A0BF"/>
			<stop  offset="0.6627" style="stop-color:#DD95B1"/>
			<stop  offset="1" style="stop-color:#7F257D;stop-opacity:0.4078"/>
		</radialGradient>
		<path style="fill-rule:evenodd;clip-rule:evenodd;fill:url(#SVGID_30_);" d="M128.85-64.3c0-17.767-6.283-32.917-18.85-45.45
			c-12.6-12.567-27.783-18.85-45.55-18.85c-17.8,0-32.983,6.283-45.55,18.85C6.3-97.217,0-82.067,0-64.3
			c0,17.767,6.3,32.917,18.9,45.45C31.467-6.283,46.65,0,64.45,0C82.217,0,97.4-6.283,110-18.85
			C122.567-31.417,128.85-46.567,128.85-64.3z"/>
	</g>
</symbol>
<symbol  id="FlashAICB_x2F_Layer_1_x2F__x3C_Path_x3E__x5F_1_x5F_0" viewBox="0 -60.4 119.2 60.4">
	<g id="Layer_1_19_">
		
			<linearGradient id="SVGID_31_" gradientUnits="userSpaceOnUse" x1="16160.6348" y1="-58.4668" x2="16221.0596" y2="-58.4668" gradientTransform="matrix(1.654944e-005 1 -1 -0.001 0.8657 -16221.1064)">
			<stop  offset="0.1294" style="stop-color:#E2B8B2"/>
			<stop  offset="0.9255" style="stop-color:#FFFFFF"/>
		</linearGradient>
		<path style="fill-rule:evenodd;clip-rule:evenodd;fill:url(#SVGID_31_);" d="M104.05-19.45c4.833-5.333,8.617-11.25,11.35-17.75
			c2.533-6.1,3.8-11.85,3.8-17.25c0-1.833-0.184-3.45-0.55-4.85c-2,12-7.85,22.65-17.55,31.95c-11.4,11-25.233,16.5-41.5,16.5
			c-16.533,0-30.45-5.483-41.75-16.45C8.117-36.733,2.317-47.767,0.45-60.4C0.15-59.167,0-57.633,0-55.8
			c0,5.933,1.267,12.066,3.8,18.4c2.667,6.7,6.434,12.733,11.3,18.1C26.7-6.433,41.533,0,59.6,0C77.433,0,92.25-6.483,104.05-19.45z
			"/>
	</g>
</symbol>
<symbol  id="FlashAICB_x2F_Layer_1_x2F__x3C_Path_x3E__x5F_2" viewBox="0 -66.384 119.2 66.384">
	<g id="Layer_1_20_">
		<path style="fill-rule:evenodd;clip-rule:evenodd;fill:#FFFFFF;" d="M115.4-37.2c2.533-6.1,3.8-11.85,3.8-17.25
			c0-5.367-1.567-8.75-4.7-10.15c-2.533-1.167-6.783-1.15-12.75,0.05c-7.9,1.9-14.217,3.367-18.95,4.4
			c-8.667,1.833-16.4,2.75-23.2,2.75c-6.867,0-14.6-1-23.2-3c-9.033-2.367-15.35-3.967-18.95-4.8c-6-1.367-10.25-1.55-12.75-0.55
			C1.567-64.483,0-61.167,0-55.8c0,5.933,1.267,12.066,3.8,18.4c2.667,6.7,6.434,12.733,11.3,18.1C26.7-6.433,41.533,0,59.6,0
			c17.833,0,32.65-6.483,44.45-19.45C108.883-24.783,112.667-30.7,115.4-37.2z"/>
	</g>
</symbol>
<g>
	<path style="fill-rule:evenodd;clip-rule:evenodd;fill:#FFFFFF;" d="M25.15,25.2c7.934-7.934,17.033-14.083,27.3-18.45
		C63.083,2.25,74.217,0,85.85,0c11.634,0,22.767,2.25,33.4,6.75c10.267,4.367,19.366,10.517,27.3,18.45c7.9,7.9,14.033,17,18.4,27.3
		c4.5,10.633,6.75,21.767,6.75,33.4s-2.25,22.767-6.75,33.4c-4.367,10.267-10.5,19.367-18.4,27.3
		c-7.934,7.9-17.033,14.033-27.3,18.4c-10.634,4.5-21.767,6.75-33.4,6.75c-11.633,0-22.766-2.25-33.399-6.75
		c-10.267-4.367-19.367-10.5-27.3-18.4c-7.9-7.933-14.033-17.033-18.4-27.3C2.25,108.667,0,97.533,0,85.9s2.25-22.767,6.75-33.4
		C11.117,42.2,17.25,33.1,25.15,25.2z"/>
	<g>
		<g>
			
				<linearGradient id="SVGID_32_" gradientUnits="userSpaceOnUse" x1="-157.6851" y1="85.8506" x2="-14.2354" y2="85.8506" gradientTransform="matrix(6.973501e-006 -1 1 -0.001 -1.064519e-004 4.449275e-004)">
				<stop  offset="0.0745" style="stop-color:#362439"/>
				<stop  offset="0.1882" style="stop-color:#4F3450"/>
				<stop  offset="0.4353" style="stop-color:#8F5E89"/>
				<stop  offset="0.6" style="stop-color:#BE7CB4"/>
				<stop  offset="0.9216" style="stop-color:#EFEBC5"/>
			</linearGradient>
			<path style="fill-rule:evenodd;clip-rule:evenodd;fill:url(#SVGID_32_);" d="M57.95,19.8c8.9-3.767,18.2-5.65,27.899-5.65
				c19.767,0,36.667,7.017,50.7,21.05c6.601,6.6,11.717,14.2,15.351,22.8c3.767,8.867,5.649,18.15,5.649,27.85
				c0,9.7-1.883,19-5.649,27.9c-3.634,8.566-8.75,16.167-15.351,22.8c-6.633,6.634-14.233,11.767-22.8,15.4
				c-8.9,3.767-18.2,5.649-27.9,5.649c-9.7,0-19-1.883-27.899-5.649c-8.567-3.634-16.167-8.767-22.8-15.4
				c-6.6-6.633-11.717-14.233-15.35-22.8c-3.767-8.9-5.65-18.2-5.65-27.9c0-9.7,1.883-18.983,5.65-27.85
				c3.633-8.6,8.75-16.2,15.35-22.8C41.783,28.566,49.383,23.433,57.95,19.8z"/>
			<path style="fill-rule:evenodd;clip-rule:evenodd;fill:#3B223B;" d="M58.25,20.6c-8.467,3.6-15.967,8.667-22.5,15.2
				s-11.6,14.033-15.2,22.5C16.85,67.066,15,76.25,15,85.85s1.85,18.8,5.55,27.6c3.6,8.467,8.667,15.967,15.2,22.5
				s14.033,11.6,22.5,15.2c8.8,3.699,18,5.55,27.6,5.55c9.601,0,18.784-1.851,27.551-5.55c8.466-3.601,15.966-8.667,22.5-15.2
				c6.533-6.533,11.6-14.033,15.199-22.5c3.7-8.767,5.551-17.967,5.551-27.6c0-9.6-1.851-18.784-5.551-27.55
				c-3.6-8.467-8.666-15.967-15.199-22.5C122.1,21.967,105.417,15.05,85.85,15.05C76.25,15.05,67.05,16.9,58.25,20.6z M34.5,34.55
				c6.833-6.867,14.683-12.133,23.55-15.8c8.833-3.667,18.1-5.5,27.8-5.5c9.7,0,18.967,1.833,27.801,5.5
				c8.833,3.667,16.666,8.933,23.5,15.8c6.866,6.833,12.133,14.684,15.8,23.55c3.666,8.833,5.5,18.083,5.5,27.75
				c0,9.7-1.834,18.966-5.5,27.8c-3.667,8.866-8.934,16.716-15.8,23.55c-6.834,6.866-14.667,12.133-23.5,15.8
				c-8.834,3.667-18.101,5.5-27.801,5.5c-9.7,0-18.966-1.833-27.8-5.5c-8.867-3.667-16.716-8.934-23.55-15.8
				c-6.833-6.834-12.083-14.684-15.75-23.55c-3.633-8.834-5.45-18.101-5.45-27.8c0-9.7,1.817-18.95,5.45-27.75
				C22.417,49.233,27.667,41.383,34.5,34.55z"/>
		</g>
		
			<use xlink:href="#FlashAICB_x2F_Layer_1_x2F__x3C_Path_x3E__x5F_1"  width="128.85" height="128.6" y="-128.6" transform="matrix(1 0 0 -1 21.3999 19.25)" style="overflow:visible;opacity:0.3789;enable-background:new    ;"/>
		<g>
			<g>
				<g>
					<path style="fill-rule:evenodd;clip-rule:evenodd;fill:#FEE6FF;" d="M83.1,30.7v20.25c0,0.866-0.25,1.55-0.75,2.05
						c-0.5,0.467-1.133,0.7-1.9,0.7c-0.8,0-1.45-0.233-1.95-0.7c-0.5-0.5-0.75-1.184-0.75-2.05V33.1h-2.1
						c-0.8,0-1.417-0.267-1.85-0.8c-0.367-0.433-0.55-1-0.55-1.7c0-0.667,0.217-1.233,0.65-1.7c0.434-0.5,1.017-0.75,1.75-0.75h5.05
						c0.767,0,1.367,0.25,1.8,0.75C82.9,29.367,83.1,29.967,83.1,30.7z"/>
				</g>
				<g>
					
						<linearGradient id="SVGID_33_" gradientUnits="userSpaceOnUse" x1="-52.2031" y1="78.1772" x2="-26.6484" y2="78.1772" gradientTransform="matrix(3.913894e-005 -1 1 -0.001 -7.314169e-005 -4.747650e-005)">
						<stop  offset="0.3255" style="stop-color:#462244"/>
						<stop  offset="0.5294" style="stop-color:#482146"/>
						<stop  offset="0.6627" style="stop-color:#51214F"/>
						<stop  offset="0.7725" style="stop-color:#5F205D"/>
						<stop  offset="0.8706" style="stop-color:#741E72"/>
						<stop  offset="0.9647" style="stop-color:#8E198C"/>
						<stop  offset="1" style="stop-color:#9B1699"/>
					</linearGradient>
					<path style="fill-rule:evenodd;clip-rule:evenodd;fill:url(#SVGID_33_);" d="M80.7,26.6c0.767,0,1.367,0.25,1.8,0.75
						c0.4,0.433,0.6,1.017,0.6,1.75v20.25c0,0.867-0.25,1.566-0.75,2.1c-0.5,0.466-1.133,0.7-1.9,0.7c-0.8,0-1.45-0.233-1.95-0.7
						c-0.5-0.534-0.75-1.233-0.75-2.1V31.5h-2.1c-0.8,0-1.417-0.25-1.85-0.75c-0.367-0.467-0.55-1.033-0.55-1.7
						c0-0.667,0.217-1.233,0.65-1.7c0.434-0.5,1.017-0.75,1.75-0.75H80.7z"/>
				</g>
			</g>
			<g>
				<g>
					<path style="fill-rule:evenodd;clip-rule:evenodd;fill:#FEE6FF;" d="M98.4,30.7v20.25c0,0.866-0.25,1.55-0.75,2.05
						c-0.467,0.467-1.101,0.7-1.9,0.7s-1.434-0.233-1.9-0.7c-0.5-0.5-0.75-1.184-0.75-2.05V33.1H91c-0.8,0-1.434-0.267-1.9-0.8
						c-0.366-0.433-0.55-1-0.55-1.7c0-0.667,0.217-1.233,0.65-1.7c0.467-0.5,1.066-0.75,1.8-0.75h5.05c0.733,0,1.316,0.25,1.75,0.75
						C98.2,29.367,98.4,29.967,98.4,30.7z"/>
				</g>
				<g>
					
						<linearGradient id="SVGID_34_" gradientUnits="userSpaceOnUse" x1="-52.2188" y1="93.4775" x2="-26.6641" y2="93.4775" gradientTransform="matrix(3.913894e-005 -1 1 -0.001 -7.314169e-005 -4.747650e-005)">
						<stop  offset="0.3255" style="stop-color:#462244"/>
						<stop  offset="0.5294" style="stop-color:#482146"/>
						<stop  offset="0.6627" style="stop-color:#51214F"/>
						<stop  offset="0.7725" style="stop-color:#5F205D"/>
						<stop  offset="0.8706" style="stop-color:#741E72"/>
						<stop  offset="0.9647" style="stop-color:#8E198C"/>
						<stop  offset="1" style="stop-color:#9B1699"/>
					</linearGradient>
					<path style="fill-rule:evenodd;clip-rule:evenodd;fill:url(#SVGID_34_);" d="M96.05,26.6c0.733,0,1.316,0.25,1.75,0.75
						c0.4,0.433,0.601,1.017,0.601,1.75v20.25c0,0.867-0.25,1.566-0.75,2.1c-0.467,0.466-1.101,0.7-1.9,0.7s-1.434-0.233-1.9-0.7
						c-0.5-0.534-0.75-1.233-0.75-2.1V31.5H91c-0.8,0-1.434-0.25-1.9-0.75c-0.366-0.467-0.55-1.033-0.55-1.7
						c0-0.667,0.217-1.233,0.65-1.7c0.467-0.5,1.066-0.75,1.8-0.75H96.05z"/>
				</g>
			</g>
		</g>
		<g>
			<path style="fill-rule:evenodd;clip-rule:evenodd;fill:#FCE5FF;" d="M85.55,83.95l0.75,0.75c1.334,1.533,2.367,3.35,3.101,5.45
				L89.85,91.6c0.9,0.033,1.967,0.551,3.2,1.551c1.467-2.434,3-4.351,4.601-5.75H96C91.733,87.133,88.25,85.983,85.55,83.95z
				 M83.35,81.8l-0.25,0.6c0.5,0.133,1.05,0.417,1.65,0.85C84.15,82.717,83.683,82.233,83.35,81.8z M83.05,100.6l-2.55-1.5
				c-0.1,1.2-0.4,2.367-0.9,3.5c0.9,0.367,1.933,0.551,3.1,0.551c2,0,3.684-0.45,5.05-1.351v-0.05l-0.15-1.15l-0.1,0.051
				c-0.4,0.232-0.866,0.383-1.4,0.449C85.066,101.267,84.05,101.1,83.05,100.6z M109.6,71.75c1.167,1.8,1.567,3.8,1.2,6
				c-0.366,2.367-1.533,4.417-3.5,6.15c5.3-0.033,9.767,1.433,13.4,4.4c3.666,3,5.866,7,6.6,12c0.967,6.367-0.633,12.533-4.8,18.5
				c-4.767,6.767-11.983,11.617-21.65,14.55c-6.199,1.867-11.983,2.801-17.35,2.801c-7.667,0-14.133-1.817-19.4-5.45
				c-3.434-2.367-6.067-5.25-7.9-8.65c-1.133-2.033-1.917-4.133-2.35-6.3c-0.4-2.167-0.4-4.184,0-6.05
				c-2.167-0.967-3.934-2.267-5.3-3.9c-1.4-1.667-2.3-3.517-2.7-5.55c-0.333-1.533-0.317-2.983,0.05-4.35
				c0.3-1.334,0.9-2.45,1.8-3.351c-2.034-2.467-3.567-4.85-4.6-7.15c-1.434-2.933-1.75-5.283-0.95-7.05l0.1-0.15
				c0.233-0.534,0.583-1,1.05-1.4l0.25-0.2l4-2.6c0.934-1.167,1.684-2.383,2.25-3.65l2.4-6.3c0.767-1.867,1.667-3.217,2.7-4.05
				c1.2-1.033,2.65-1.633,4.35-1.8h0.8c0.333-0.034,0.7,0,1.1,0.1l0.8,0.2c0.533,0.167,1.017,0.4,1.45,0.7
				c1.033,0.533,2.35,1.383,3.95,2.55L67.6,62c0.566,0.033,1.3,0.316,2.2,0.85l1.8-1.3c1.433-0.9,2.633-1.417,3.6-1.55
				c1.167-0.2,2.133,0,2.9,0.6l1.8,1.5l0.55,0.35c0.233,0.167,0.983,0.933,2.25,2.3c0.233,0.233,0.483,0.55,0.75,0.95
				c0.3,0.4,0.5,0.883,0.6,1.45c0.067,0.3,0.1,0.783,0.1,1.45l-0.05,0.25v0.05c1.333-0.767,2.683-1.15,4.05-1.15
				c2.466,0,4.566,1.167,6.3,3.5c0.166,0.167,0.416,0.25,0.75,0.25l0.649-0.6c1.034-0.967,1.9-1.65,2.601-2.05
				c1.267-0.8,2.566-1.2,3.899-1.2c0.767,0,1.483,0.117,2.15,0.35C106.733,68.733,108.434,69.983,109.6,71.75z"/>
			
				<linearGradient id="SVGID_35_" gradientUnits="userSpaceOnUse" x1="-135.3828" y1="84.6475" x2="-57.3975" y2="84.6475" gradientTransform="matrix(1.282874e-005 -1 1 -0.001 0 4.449275e-004)">
				<stop  offset="0.0549" style="stop-color:#6C1F69"/>
				<stop  offset="0.5882" style="stop-color:#CEA8B1"/>
				<stop  offset="0.8392" style="stop-color:#FAE3D0"/>
			</linearGradient>
			<path style="fill-rule:evenodd;clip-rule:evenodd;fill:url(#SVGID_35_);" d="M109.6,70.9c1.167,1.8,1.567,3.8,1.2,6
				c-0.366,2.367-1.533,4.417-3.5,6.15c5.3-0.033,9.767,1.434,13.4,4.4c3.666,3,5.866,7,6.6,12c0.967,6.366-0.633,12.533-4.8,18.5
				c-4.767,6.767-11.983,11.616-21.65,14.55c-6.199,1.866-11.983,2.8-17.35,2.8c-7.667,0-14.133-1.816-19.4-5.45
				c-3.434-2.366-6.067-5.25-7.9-8.649c-1.133-2.033-1.917-4.134-2.35-6.3c-0.4-2.167-0.4-4.184,0-6.051
				c-2.167-0.967-3.934-2.267-5.3-3.899c-1.4-1.667-2.3-3.517-2.7-5.55c-0.333-1.534-0.317-2.983,0.05-4.351
				c0.3-1.333,0.9-2.45,1.8-3.35c-2.034-2.467-3.567-4.851-4.6-7.15c-1.434-2.933-1.75-5.283-0.95-7.05l0.1-0.15V77.3
				c0.267-0.5,0.617-0.95,1.05-1.35l0.25-0.2l4-2.6c0.934-1.167,1.684-2.383,2.25-3.65l2.4-6.3c0.767-1.867,1.667-3.217,2.7-4.05
				c1.2-1.033,2.65-1.633,4.35-1.8h0.8c0.333-0.034,0.7,0,1.1,0.1l0.8,0.2c0.533,0.167,1.017,0.4,1.45,0.7
				c1.033,0.533,2.35,1.383,3.95,2.55l0.25,0.25c0.566,0.033,1.3,0.317,2.2,0.85l1.8-1.3c1.433-0.9,2.633-1.417,3.6-1.55
				c1.167-0.2,2.133,0,2.9,0.6l1.8,1.5l0.55,0.35c0.233,0.167,0.983,0.933,2.25,2.3c0.233,0.233,0.483,0.55,0.75,0.95
				c0.3,0.4,0.5,0.883,0.6,1.45c0.067,0.3,0.1,0.783,0.1,1.45L84.1,68v0.05c1.333-0.767,2.683-1.15,4.05-1.15
				c2.466,0,4.566,1.167,6.3,3.5c0.166,0.167,0.416,0.25,0.75,0.25l0.649-0.6c1.034-0.967,1.9-1.65,2.601-2.05
				c1.267-0.8,2.566-1.2,3.899-1.2c0.767,0,1.483,0.117,2.15,0.35C106.733,67.883,108.434,69.133,109.6,70.9z M80.9,73.65l0.1-0.1
				l-0.05,0.15L80.9,73.65l0.05,0.05L81,73.55L80.9,73.65z M83.05,99.75l-2.55-1.5c-0.1,1.2-0.4,2.366-0.9,3.5
				c0.9,0.366,1.933,0.55,3.1,0.55c2,0,3.684-0.45,5.05-1.35v-0.05l-0.15-1.15l-0.1,0.05c-0.4,0.233-0.866,0.384-1.4,0.45
				C85.066,100.417,84.05,100.25,83.05,99.75z M85.55,83.1l0.75,0.75c1.334,1.533,2.367,3.35,3.101,5.45l0.449,1.45
				c0.9,0.033,1.967,0.55,3.2,1.55c1.467-2.434,3-4.35,4.601-5.75H96C91.667,86.25,88.184,85.1,85.55,83.1z"/>
			<path style="fill-rule:evenodd;clip-rule:evenodd;fill:none;stroke:#FCE5FF;stroke-width:0.25;" d="M109.6,70.9
				c-1.166-1.767-2.866-3.017-5.1-3.75c-0.667-0.233-1.384-0.35-2.15-0.35c-1.333,0-2.633,0.4-3.899,1.2
				c-0.7,0.4-1.566,1.083-2.601,2.05l-0.649,0.6c-0.334,0-0.584-0.083-0.75-0.25c-1.733-2.333-3.834-3.5-6.3-3.5
				c-1.367,0-2.717,0.383-4.05,1.15V68l0.05-0.25c0-0.667-0.033-1.15-0.1-1.45c-0.1-0.566-0.3-1.05-0.6-1.45
				c-0.267-0.4-0.517-0.717-0.75-0.95c-1.267-1.367-2.017-2.133-2.25-2.3l-0.55-0.35l-1.8-1.5c-0.767-0.6-1.733-0.8-2.9-0.6
				c-0.967,0.133-2.167,0.65-3.6,1.55L69.8,62c-0.9-0.533-1.633-0.817-2.2-0.85l-0.25-0.25c-1.6-1.167-2.917-2.017-3.95-2.55
				c-0.433-0.3-0.917-0.534-1.45-0.7l-0.8-0.2c-0.4-0.1-0.767-0.134-1.1-0.1h-0.8c-1.7,0.167-3.15,0.767-4.35,1.8
				c-1.033,0.833-1.933,2.183-2.7,4.05l-2.4,6.3c-0.566,1.267-1.316,2.483-2.25,3.65l-4,2.6l-0.25,0.2
				c-0.433,0.4-0.783,0.85-1.05,1.35v0.05l-0.1,0.15c-0.8,1.767-0.483,4.117,0.95,7.05c1.033,2.3,2.566,4.684,4.6,7.15
				c-0.9,0.899-1.5,2.017-1.8,3.35c-0.367,1.367-0.383,2.816-0.05,4.351c0.4,2.033,1.3,3.883,2.7,5.55
				c1.367,1.633,3.133,2.933,5.3,3.899c-0.4,1.867-0.4,3.884,0,6.051c0.433,2.166,1.217,4.267,2.35,6.3
				c1.833,3.399,4.466,6.283,7.9,8.649c5.267,3.634,11.733,5.45,19.4,5.45c5.366,0,11.15-0.934,17.35-2.8
				c9.667-2.934,16.884-7.783,21.65-14.55c4.167-5.967,5.767-12.134,4.8-18.5c-0.733-5-2.934-9-6.6-12
				c-3.634-2.967-8.101-4.434-13.4-4.4c1.967-1.733,3.134-3.783,3.5-6.15C111.167,74.7,110.767,72.7,109.6,70.9z M80.9,73.65
				l0.1-0.1l-0.05,0.15L80.9,73.65z M85.55,83.1c2.634,2,6.117,3.15,10.45,3.45h1.65c-1.601,1.4-3.134,3.316-4.601,5.75
				c-1.233-1-2.3-1.517-3.2-1.55L89.4,89.3c-0.733-2.1-1.767-3.917-3.101-5.45L85.55,83.1z M83.05,99.75c1,0.5,2.017,0.667,3.05,0.5
				c0.534-0.066,1-0.217,1.4-0.45l0.1-0.05l0.15,1.15v0.05c-1.366,0.899-3.05,1.35-5.05,1.35c-1.167,0-2.2-0.184-3.1-0.55
				c0.5-1.134,0.8-2.3,0.9-3.5L83.05,99.75z"/>
			<g>
				<path style="fill-rule:evenodd;clip-rule:evenodd;fill:#3B223B;" d="M89.15,69.6c1.233,0.267,2.316,1.066,3.25,2.4
					c0.633,0.8,1.566,1.2,2.8,1.2c0.566,0,1.05-0.15,1.45-0.45L97.6,71.9c1.767-1.7,3.351-2.55,4.75-2.55
					c0.5,0,0.95,0.066,1.351,0.2c1.633,0.533,2.866,1.434,3.7,2.7c0.833,1.267,1.116,2.683,0.85,4.25c-0.3,2-1.35,3.7-3.15,5.1
					c-2.066,1.6-4.683,2.4-7.85,2.4H96.2c-4.3-0.267-7.584-1.467-9.851-3.6c-1.366-1.3-2.25-2.767-2.649-4.4
					c-0.3-1.2-0.3-2.333,0-3.4c0.3-1.067,0.833-1.833,1.6-2.3C86.634,69.533,87.917,69.3,89.15,69.6z"/>
				<path style="fill-rule:evenodd;clip-rule:evenodd;fill:#3B223B;" d="M61,62.3h-0.2c-1.1,0.167-2.15,1.434-3.15,3.8
					c-0.467,1.066-0.833,2.466-1.1,4.2l6.2-4.1c0.1-0.434,0.133-0.8,0.1-1.1c0-0.967-0.267-1.767-0.8-2.4l-0.1-0.15l-0.1-0.05
					C61.55,62.367,61.267,62.3,61,62.3z M75,66.75l-1.65,1.7l2.3,2.55c1.233-1.033,2.267-2.05,3.1-3.05L79,67.6l0.25-0.45l0.65,0.2
					l-0.6-0.25l0.1-0.25v-0.1l0.05-0.15l-0.05-0.15V66.4l-0.1-0.2l-1.45-1.5l-0.15-0.05l-0.35,0.2L76,65.9L75.9,66L75,66.75z
					 M119.1,89.5c3.167,2.566,5.067,6,5.7,10.3c0.867,5.833-0.649,11.45-4.55,16.851c-4.467,6.199-11.184,10.666-20.15,13.399
					c-5.899,1.8-11.433,2.7-16.6,2.7c-7.067,0-13.017-1.65-17.85-4.95c-3.1-2.1-5.517-4.7-7.25-7.8
					c-1.233-2.267-1.967-4.533-2.2-6.8c-0.267-2.267,0-4.233,0.8-5.9c-2.333-0.667-4.267-1.733-5.8-3.2
					c-1.534-1.5-2.483-3.233-2.85-5.199c-0.233-1.233-0.217-2.351,0.05-3.351c0.267-1.033,0.767-1.816,1.5-2.35
					c0.5-0.4,1.033-0.7,1.6-0.9L51,91.7c-2.567-2.967-4.433-5.717-5.6-8.25c-1.066-2.267-1.367-3.9-0.9-4.9V78.5l0.45-0.6l4.35-2.85
					c1.2-1.433,2.167-2.95,2.9-4.55l2.4-6.35c0.566-1.433,1.217-2.467,1.95-3.1c0.833-0.667,1.8-1.05,2.9-1.15h1.1l0.6,0.2l1,0.45
					c1.067,0.567,2.283,1.367,3.65,2.4l0.15,0.15l0.5,0.7c0.033-0.033,0.15-0.083,0.35-0.15c0.667-0.067,1.7,0.45,3.1,1.55
					l0.75-0.65l2.2-1.6l0.1-0.05c1.133-0.733,2.033-1.15,2.7-1.25c0.367-0.067,0.65-0.033,0.85,0.1l1.95,1.6l0.4,0.25
					c0.333,0.233,1,0.933,2,2.1c0.2,0.133,0.35,0.316,0.45,0.55l0.25,0.55l0.05,0.75c-0.1,0.533-0.267,1-0.5,1.4
					c-0.6,1.1-1.15,1.917-1.65,2.45c-0.7,0.833-1.317,1.5-1.85,2c1,1.367,1.717,2.417,2.15,3.15c1.267,2.067,1.567,3.383,0.9,3.95
					l-0.1,0.05l-8.5,9.65c0.667,0.166,1.4,0.45,2.2,0.85l0.55-0.1c1.4-0.4,2.333-0.684,2.8-0.851l1.55-3.899
					c0.233-1.434,0.883-2.217,1.95-2.35c1.033-0.2,2.133,0.367,3.3,1.7c1.167,1.367,2.017,2.9,2.55,4.601
					c0.666,1.8,0.916,3.416,0.75,4.85c-0.167,1.233-0.566,2.05-1.2,2.45l-0.05,0.05l-0.101,0.05l-0.649,0.2
					c-0.566,0.066-1.067-0.033-1.5-0.3l-5.85-3.5l-1,0.45c0.566,1.267,0.75,2.649,0.55,4.149c-0.2,1.467-0.783,2.851-1.75,4.15
					l1.25,0.75c1.467,1,3.233,1.467,5.3,1.399c2.467-0.066,4.5-0.633,6.1-1.699c1.967-1.301,3.617-3.534,4.95-6.7
					c1.566-3.167,3.1-5.533,4.6-7.101c2.301-2.366,5-3.616,8.101-3.75h1.05C112.1,85.6,115.967,86.9,119.1,89.5z"/>
			</g>
			<g>
				<path style="fill-rule:evenodd;clip-rule:evenodd;fill:#53B243;" d="M77,99.7c-0.667,2.1-2.033,3.85-4.1,5.25
					c-2.3,1.533-5.117,2.366-8.45,2.5c-7,0.267-11.767-1.634-14.3-5.7c-0.967-1.533-1.417-3.117-1.35-4.75
					c0.067-1.533,0.55-2.634,1.45-3.3c2.733-1.934,5.3-1.567,7.7,1.1c0.7,0.8,1.716,1.267,3.05,1.4c1.367,0.1,2.433-0.2,3.2-0.9
					c1.167-1.366,2.15-2.399,2.95-3.1c1.467-1.267,2.967-1.733,4.5-1.4c2.3,0.5,3.934,1.634,4.9,3.4
					C77.483,95.866,77.633,97.7,77,99.7z"/>
				
					<use xlink:href="#FlashAICB_x2F_Layer_1_x2F__x3C_Group_x3E__x5F_4"  width="28.584" height="16.804" y="-16.8" transform="matrix(1 0 0 -1 48.7998 90.7002)" style="overflow:visible;opacity:0.1484;enable-background:new    ;"/>
				
					<use xlink:href="#FlashAICB_x2F_Layer_1_x2F__x3C_Group_x3E__x5F_3"  width="28.534" height="16.8" y="-16.8" transform="matrix(1 0 0 -1 48.8501 90.7002)" style="overflow:visible;opacity:0.1914;enable-background:new    ;"/>
				
					<use xlink:href="#FlashAICB_x2F_Layer_1_x2F__x3C_Group_x3E__x5F_2"  width="6.95" height="5.65" y="-5.65" transform="matrix(1 0 0 -1 50.6001 94.25)" style="overflow:visible;opacity:0.1992;enable-background:new    ;"/>
				
					<use xlink:href="#FlashAICB_x2F_Layer_1_x2F__x3C_Group_x3E__x5F_1"  width="11.2" height="7.7" y="-7.7" transform="matrix(1 0 0 -1 59.4502 93.9004)" style="overflow:visible;opacity:0.1992;enable-background:new    ;"/>
				
					<use xlink:href="#FlashAICB_x2F_Layer_1_x2F__x3C_Group_x3E_"  width="7.6" height="6.15" y="-6.15" transform="matrix(1 0 0 -1 66.9502 102.75)" style="overflow:visible;opacity:0.1992;enable-background:new    ;"/>
			</g>
			
				<use xlink:href="#FlashAICB_x2F_Layer_1_x2F__x3C_Path_x3E_"  width="26.669" height="16.789" x="-0.019" y="-16.835" transform="matrix(1 0 0 -1 50.6499 90.6504)" style="overflow:visible;opacity:0.5;enable-background:new    ;"/>
			<g>
				<path style="fill-rule:evenodd;clip-rule:evenodd;fill:#53B243;" d="M106.45,86.25c5.7-0.267,10.217,1.366,13.55,4.9
					c3.134,3.3,4.583,7.482,4.35,12.55c-0.267,5.267-2.35,10.149-6.25,14.649c-4.366,5.033-10.416,8.733-18.149,11.101
					c-16.133,4.899-28.417,3.399-36.85-4.5c-3.167-2.967-5.167-6.367-6-10.2c-0.8-3.6-0.367-6.434,1.3-8.5
					c2.434-2.967,5.167-4.684,8.2-5.15c3.267-0.533,6.75,0.434,10.45,2.9c2.1,1.4,4.75,1.833,7.95,1.3
					c3.233-0.566,5.533-1.899,6.9-4c1.899-3.934,3.55-6.95,4.949-9.05C99.483,88.417,102.684,86.417,106.45,86.25z"/>
				
					<use xlink:href="#FlashAICB_x2F_Layer_1_x2F__x3C_Group_x3E__x5F_3_x5F_0"  width="76.75" height="56.6" y="-56.6" transform="matrix(1 0 0 -1 53.2002 82.5)" style="overflow:visible;opacity:0.1484;enable-background:new    ;"/>
				
					<use xlink:href="#FlashAICB_x2F_Layer_1_x2F__x3C_Group_x3E__x5F_2_x5F_0"  width="76.6" height="56.5" y="-56.5" transform="matrix(1 0 0 -1 53.3501 82.5498)" style="overflow:visible;opacity:0.1914;enable-background:new    ;"/>
				
					<use xlink:href="#FlashAICB_x2F_Layer_1_x2F__x3C_Group_x3E__x5F_1_x5F_0"  width="19.6" height="17.4" y="-17.4" transform="matrix(1 0 0 -1 59.6001 102.9502)" style="overflow:visible;opacity:0.1992;enable-background:new    ;"/>
				
					<use xlink:href="#FlashAICB_x2F_Layer_1_x2F__x3C_Group_x3E__x5F_0"  width="30.75" height="24.7" y="-24.7" transform="matrix(1 0 0 -1 79.9502 94.1504)" style="overflow:visible;opacity:0.1992;enable-background:new    ;"/>
				<path style="fill-rule:evenodd;clip-rule:evenodd;fill:#FFFFFF;" d="M100.25,98.2c0.7-0.367,1.333-0.367,1.9,0
					c0.566,0.333,0.883,0.916,0.949,1.75c0.167,2.166-1.183,4.45-4.05,6.85c-2,1.7-4.1,2.733-6.3,3.101
					c-0.767,0.166-1.233,0.166-1.4,0c-0.166-0.167,0.117-0.384,0.851-0.65c3.434-1.3,5.434-3.333,6-6.1
					c0.2-1.367,0.383-2.334,0.55-2.9C98.983,99.283,99.483,98.6,100.25,98.2z"/>
				<path style="fill-rule:evenodd;clip-rule:evenodd;fill:#FFFFFF;" d="M65.1,108.2c0.167,0.267,0.433,0.717,0.8,1.35
					c0.4,0.566,0.867,1.083,1.4,1.55c0.733,0.601,0.517,0.783-0.65,0.551c-1.167-0.233-2.05-0.733-2.65-1.5
					c-0.633-0.768-0.7-1.434-0.2-2C64.333,107.616,64.767,107.633,65.1,108.2z"/>
				<path style="fill-rule:evenodd;clip-rule:evenodd;fill:#FFFFFF;" d="M69.95,112c1.833,0.467,2.65,0.883,2.45,1.25
					c-0.167,0.333-0.717,0.434-1.65,0.3c-0.7-0.1-1.167-0.417-1.4-0.95C69.083,112.033,69.283,111.833,69.95,112z"/>
				<path style="fill-rule:evenodd;clip-rule:evenodd;fill:#FFFFFF;" d="M87.95,110.9c0.899-0.067,1.416,0.066,1.55,0.399
					c0.134,0.367-0.2,0.684-1,0.95c-0.767,0.333-1.25,0.2-1.45-0.4C86.85,111.25,87.15,110.934,87.95,110.9z"/>
			</g>
			<g>
				<g>
					<g>
						<g>
							<g>
								<path style="fill-rule:evenodd;clip-rule:evenodd;fill:#7F7F7F;" d="M75.55,71.95c1.3-1.034,2.534-2.233,3.7-3.6
									c0.667-0.833,0.933-1.534,0.8-2.1l-0.4-0.75l0.4,0.35c0.367,0.267,0.617,0.517,0.75,0.75c0.233,0.333,0.2,0.867-0.1,1.6
									c-0.367,0.9-1.034,1.917-2,3.05c-1.267,1.367-2.434,2.5-3.5,3.4l-1.35-1.45C74.55,72.733,75.117,72.316,75.55,71.95z"/>
								<path style="fill-rule:evenodd;clip-rule:evenodd;fill:#666666;" d="M79.25,70.6c0.4-0.7,0.6-1.3,0.6-1.8
									c0.066-0.4-0.017-0.717-0.25-0.95c0.433-0.6,0.566-1.184,0.4-1.75l-0.35-0.6l0.4,0.35c0.367,0.267,0.617,0.517,0.75,0.75
									c0.167,0.3,0.15,0.767-0.05,1.4C80.583,68.633,80.083,69.5,79.25,70.6z"/>
								<path style="fill-rule:evenodd;clip-rule:evenodd;fill:#545454;" d="M64.5,63.25c-1.633-1.167-2.883-1.684-3.75-1.55
									c-1.333,0.133-2.55,1.517-3.65,4.15c-0.467,1-0.883,2.583-1.25,4.75c-0.567,1.966-1.65,3.683-3.25,5.15
									c-0.5,0.5-1.25,0.833-2.25,1c-0.434,0.066-0.85,0.066-1.25,0c1.066-1.3,2.117-2.85,3.15-4.65
									c0.633-1.1,1.417-3.017,2.35-5.75c0.767-2.2,1.367-3.5,1.8-3.9c0.9-0.733,1.6-1.233,2.1-1.5c0.867-0.4,1.767-0.434,2.7-0.1
									c0.933,0.367,1.75,0.867,2.45,1.5C64.05,62.683,64.333,62.983,64.5,63.25z"/>
								<path style="fill-rule:evenodd;clip-rule:evenodd;fill:#B5B5B5;" d="M65.45,63.45l0.75,1.2c0.5,1,0.75,2.017,0.75,3.05
									c0,1.033-0.583,1.4-1.75,1.1c-0.5-0.1-1.067-0.316-1.7-0.65l0.2-2.45c0.1-1.434-0.417-2.717-1.55-3.85
									c-0.6-0.6-1.183-1.034-1.75-1.3C61.5,60.816,63.183,61.783,65.45,63.45z"/>
								<path style="fill-rule:evenodd;clip-rule:evenodd;fill:#E3E3E3;" d="M61.5,61.25l-0.05-0.3c0.966,0.466,2.3,1.3,4,2.5
									l0.5,0.75c0.4,0.6,0.683,1.25,0.85,1.95c-0.933-1.867-2.417-3.233-4.45-4.1L61.5,61.25z"/>
								<path style="fill-rule:evenodd;clip-rule:evenodd;fill:#969696;" d="M59.55,60.95c-0.933,0.066-1.7,0.366-2.3,0.9
									c-0.6,0.466-1.167,1.35-1.7,2.65c-0.033,0.066-0.533,1.417-1.5,4.05c-0.6,1.667-1.367,3.283-2.3,4.85
									c-1.1,1.8-2.483,3.433-4.15,4.9l-1.55,1.2l-0.25,0.25c-0.1,0.066-0.05,0.2,0.15,0.4l-0.25-0.2
									c-0.367-0.167-0.434-0.333-0.2-0.5L47.35,78c2.3-2,4.1-4.417,5.4-7.25l2.4-6.35c0.567-1.333,1.184-2.283,1.85-2.85
									c0.6-0.566,1.433-0.9,2.5-1c1.333-0.033,2.417,0.417,3.25,1.35c0.7,0.8,1.083,1.85,1.15,3.15c0.067,1.3-0.333,2.55-1.2,3.75
									c-0.5,0.767-1.117,1.917-1.85,3.45l-5.9,14.55h-0.2c-2.733-0.7-5.083-1.583-7.05-2.65l-0.3-0.2
									c-0.066-0.067-0.05-0.1,0.05-0.1l0.05-0.05l0.25-0.1l0.5,0.35l1.9,0.8c1.333,0.533,2.8,1.017,4.4,1.45l0.15,0.05
									c2.5-6.533,4.333-11.066,5.5-13.6c0.9-1.967,1.633-3.367,2.2-4.2c0.767-1.133,1.133-2.3,1.1-3.5c0-1.133-0.35-2.1-1.05-2.9
									C61.683,61.25,60.717,60.85,59.55,60.95z M46.1,80.25l0.8,0.5c0.967,0.566,1.45,0.883,1.45,0.95l-2-0.2l-0.1-0.95
									L46.1,80.25z M47.75,83.7l-0.15-0.15l0.05-0.15C47.783,83.5,47.817,83.6,47.75,83.7z"/>
								<path style="fill-rule:evenodd;clip-rule:evenodd;fill:#969696;" d="M51.5,91.25c-2.467-2.833-4.317-5.517-5.55-8.05
									c-1.2-2.467-1.383-4.067-0.55-4.8l21.4-14.1l13.5,15.55l-16.9,19.3c-0.767,0.666-2.333,0.25-4.7-1.25
									C56.267,96.267,53.867,94.05,51.5,91.25z"/>
								<path style="fill-rule:evenodd;clip-rule:evenodd;fill:#737373;" d="M66.8,64.3l0.4,0.45l-22.25,14.6
									c0-0.434,0.15-0.75,0.45-0.95L66.8,64.3z"/>
								
									<linearGradient id="SVGID_36_" gradientUnits="userSpaceOnUse" x1="93.0752" y1="-3.3154" x2="98.5129" y2="-3.3154" gradientTransform="matrix(0.5747 0.8184 -0.8184 0.5747 1.336336e-004 3.049374e-004)">
									<stop  offset="0" style="stop-color:#9E9E9E"/>
									<stop  offset="1" style="stop-color:#D0D0D1"/>
								</linearGradient>
								<path style="fill-rule:evenodd;clip-rule:evenodd;fill:url(#SVGID_36_);" d="M64.5,74.55c-1.6,1.1-3.8,2.85-6.6,5.25
									L53,83.95c-1.5,0.966-2.433,1.533-2.8,1.7c-0.333,0.1-0.517,0.133-0.55,0.1c-0.433-0.4-1.1-1.583-2-3.55
									c-0.3-0.7-0.5-1.333-0.6-1.9l-0.1-0.6l19-12.45l0.35,0.85c0.267,0.633,0.567,1.216,0.9,1.75l1.6,2.4l-1.35,0.6
									C66.317,73.383,65.333,73.95,64.5,74.55z"/>
								<path style="fill-rule:evenodd;clip-rule:evenodd;fill:#B0B0B0;" d="M76.35,79.95l0.35,0.25
									c0.733,0.566,1.233,0.85,1.5,0.85l-0.8,0.7c-0.633,0.533-1.3,1.183-2,1.95c-0.867,0.933-1.917,2.167-3.15,3.7l-7.1,8.1
									c-0.867,1.033-1.467,1.917-1.8,2.65L62,97.7l-0.75-0.351L61.1,97.2c0.2,0,0.417-0.101,0.65-0.3
									c0.467-0.4,0.767-1.051,0.9-1.95c0.133-0.9,0.483-1.733,1.05-2.5c0.6-0.8,1.383-1.567,2.35-2.3
									c2.133-1.801,3.75-3.301,4.85-4.5c0.833-1.133,1.667-2.133,2.5-3L76.35,79.95z"/>
								<path style="fill-rule:evenodd;clip-rule:evenodd;fill:#797A7D;" d="M70.45,82.4c-1.167,1.633-2.583,3.167-4.25,4.6
									l-4.8,3.7c-2.2,1.967-3.15,3.6-2.85,4.899L58.2,96.15c-0.1,0.199-0.3,0.5-0.6,0.899c-1.333-1-2.684-2.2-4.05-3.6l1.5-0.5
									c0.967-0.267,1.85-0.717,2.65-1.351c1.733-1.133,3.25-2.366,4.55-3.699c1.3-1.467,2.333-2.534,3.1-3.2
									c1.433-1.1,2.633-2.134,3.6-3.1l2.2-2.4c0.9-0.934,1.633-1.917,2.2-2.95l0.7-1.45l5.65,4.8c-0.833-0.034-1.7-0.317-2.6-0.85
									c-0.6-0.367-1.367-0.417-2.3-0.15c-0.8,0.2-1.45,0.5-1.95,0.9C72.617,79.667,71.817,80.633,70.45,82.4z"/>
								<path style="fill-rule:evenodd;clip-rule:evenodd;fill:#797A7D;" d="M73.2,74.7l-1.45-1.95l2.65,3l-1,1.3
									c0.567,0.733,0.4,0.684-0.5-0.15c-0.8-0.7-1.767-1.767-2.9-3.2l-0.75-0.95c1.667,2,2.7,3,3.1,3
									c0.433,0,0.733-0.083,0.9-0.25C73.483,75.267,73.467,75,73.2,74.7z"/>
								<path style="fill-rule:evenodd;clip-rule:evenodd;fill:#DCE2E3;" d="M80.25,80c-0.367,0.3-1.35-0.2-2.95-1.5
									c-1.6-1.3-3.316-3.017-5.15-5.15c-1.833-2.1-3.3-4.05-4.4-5.85c-1.067-1.767-1.417-2.8-1.05-3.1
									c0.333-0.333,1.316,0.15,2.95,1.45c1.667,1.4,3.4,3.117,5.2,5.15c1.733,2.033,3.183,3.983,4.35,5.85
									C80.3,78.617,80.65,79.667,80.25,80z"/>
								<path style="fill-rule:evenodd;clip-rule:evenodd;fill:#6B6B6B;" d="M79.9,79.5c-0.333,0.267-1.217-0.217-2.65-1.45
									c-1.333-1.167-2.933-2.8-4.8-4.9c-1.867-2.167-3.25-3.983-4.15-5.45c-1.033-1.6-1.4-2.55-1.1-2.85
									c0.3-0.267,1.183,0.233,2.65,1.5c1.4,1.167,3,2.8,4.8,4.9c1.667,1.9,3.067,3.717,4.2,5.45C79.85,78.3,80.2,79.233,79.9,79.5
									z"/>
								<path style="fill-rule:evenodd;clip-rule:evenodd;fill:#575757;" d="M71.4,71.7l-0.05,0.15
									c-1.567-1.934-2.684-3.483-3.35-4.65c-0.833-1.333-1.1-2.117-0.8-2.35c0.3-0.267,1.183,0.233,2.65,1.5
									c1.4,1.167,3,2.8,4.8,4.9l1.45,1.7l-1.6-1.8c-0.667-0.767-1.217-1.233-1.65-1.4C71.883,69.45,71.4,70.1,71.4,71.7z"/>
								<path style="fill-rule:evenodd;clip-rule:evenodd;fill:#7D7D7D;" d="M77.1,74.25c1.033,1.3,1.816,2.467,2.35,3.5
									c0.5,0.967,0.65,1.55,0.45,1.75c-0.367,0.333-1.533-0.4-3.5-2.2v-0.65c0-0.133,0.083-0.2,0.25-0.2
									C77.683,76.35,77.833,75.617,77.1,74.25z"/>
								<path style="fill-rule:evenodd;clip-rule:evenodd;fill:#A3A3A3;" d="M74.95,91.55c2.433-0.6,3.983-1.167,4.65-1.7
									l0.35-0.649l4.45,3.35l-0.35-0.1c-2.233-0.533-5.367,0.333-9.4,2.6c-2.9,1.667-5.5,2.467-7.8,2.4
									c-1.133,0-1.983-0.184-2.55-0.55c-0.4-0.301-0.733-0.733-1-1.301c-0.433-1.1-0.233-2.199,0.6-3.3
									c1-1.3,2.217-1.85,3.65-1.649c0.7,0.066,1.3,0.267,1.8,0.6l1,0.6C71.417,92.15,72.95,92.05,74.95,91.55z M84.4,92.55
									c0.933,0.233,1.55,0.684,1.85,1.351L84.4,92.55z"/>
								<path style="fill-rule:evenodd;clip-rule:evenodd;fill:#797A7D;" d="M79.65,92.3v0.5c-1.467,0.434-3.133,1.184-5,2.25
									c-2.9,1.667-5.5,2.467-7.8,2.4c-1.133,0-1.983-0.184-2.55-0.55c-0.2-0.101-0.433-0.351-0.7-0.75
									c-0.434-0.7-0.6-1.384-0.5-2.051c0,0.2,0.066,0.467,0.2,0.801c0.534,1.699,2.167,2.399,4.9,2.1
									c2.1-0.3,4.017-0.95,5.75-1.95L79.65,92.3z"/>
								<path style="fill-rule:evenodd;clip-rule:evenodd;fill:#5F6062;" d="M76.6,80.05c0.967,0.633,1.683,1.017,2.15,1.15
									c-0.5-0.034-1.2-0.333-2.1-0.9c-1.833-1.1-3.75-2.833-5.75-5.2c-2.233-2.633-3.783-4.983-4.65-7.05l-0.325-1.225
									l0.325,1.125c0.9,2.033,2.483,4.35,4.75,6.95C72.933,77.1,74.8,78.816,76.6,80.05z"/>
								<path style="fill-rule:evenodd;clip-rule:evenodd;fill:#A3A3A3;" d="M78.5,93.3c-0.2-0.267-0.367-0.6-0.5-1
									c-0.1-0.566-0.117-1.017-0.05-1.35l2.3-5.8L81.7,87c1.1,1.467,1.95,2.717,2.55,3.75l0.25,6.15L78.5,93.3z"/>
								<path style="fill-rule:evenodd;clip-rule:evenodd;fill:#797A7D;" d="M78.65,93.4c-0.133-0.067-0.25-0.217-0.35-0.45
									c0.3,0.366,0.85,0.666,1.65,0.899c0.533,0.2,0.883,0.267,1.05,0.2c0.267-0.066,0.267-0.383,0-0.95
									c-0.233-0.666-0.467-1.6-0.7-2.8l-0.35-1.85l3.35,1.5l1,2.1l0.2,4.851l-5.55-3.351L78.65,93.4z"/>
								<path style="fill-rule:evenodd;clip-rule:evenodd;fill:#A8A8A8;" d="M85.6,97.1c-0.766,0.134-1.667-0.383-2.7-1.55
									c-1-1.066-1.816-2.5-2.45-4.3c-0.6-1.8-0.833-3.333-0.7-4.6c0.133-1.334,0.617-2.067,1.45-2.2
									c0.8-0.1,1.716,0.417,2.75,1.55c1,1.167,1.8,2.616,2.399,4.35c0.634,1.667,0.867,3.2,0.7,4.601
									C86.884,96.283,86.4,97,85.6,97.1z"/>
								<path style="fill-rule:evenodd;clip-rule:evenodd;fill:#696969;" d="M80.2,86.15c-0.2,0.933-0.1,2.199,0.3,3.8
									c0.4,1.8,1.15,3.467,2.25,5c1.267,1.733,2.384,2.399,3.35,2c-0.133,0.1-0.3,0.149-0.5,0.149
									c-0.766,0.134-1.667-0.383-2.7-1.55c-1-1.066-1.816-2.5-2.45-4.3c-0.6-1.8-0.833-3.333-0.7-4.6
									c0.167-1.334,0.633-2.05,1.4-2.15C80.683,84.9,80.367,85.45,80.2,86.15z"/>
								<path style="fill-rule:evenodd;clip-rule:evenodd;fill:#878787;" d="M80.55,90.3l-0.35,0.15
									c-0.333-1.134-0.5-2.217-0.5-3.25l0.45-0.7c-0.066,0.5-0.066,1.116,0,1.85L80.55,90.3z"/>
								<path style="fill-rule:evenodd;clip-rule:evenodd;fill:#BDBDBD;" d="M85.8,97c-0.666,0.1-1.4-0.3-2.2-1.2
									c-0.867-0.967-1.517-2.133-1.95-3.5c-0.5-1.399-0.7-2.633-0.6-3.7c0.133-1.033,0.534-1.6,1.2-1.699
									c0.633-0.101,1.35,0.316,2.15,1.25c0.8,0.899,1.45,2.05,1.95,3.449c0.5,1.434,0.684,2.667,0.551,3.7
									C86.8,96.333,86.434,96.9,85.8,97z"/>
								<path style="fill-rule:evenodd;clip-rule:evenodd;fill:#CFCFCF;" d="M85.8,96.7c-0.467,0.1-1-0.184-1.6-0.851
									c-0.6-0.699-1.067-1.533-1.4-2.5c-0.333-0.933-0.466-1.816-0.4-2.649c0.1-0.8,0.383-1.217,0.85-1.25
									c0.467-0.101,0.983,0.183,1.55,0.85c0.566,0.634,1.033,1.483,1.4,2.55c0.366,0.934,0.5,1.817,0.399,2.65
									C86.566,96.233,86.3,96.633,85.8,96.7z"/>
								<path style="fill-rule:evenodd;clip-rule:evenodd;fill:#FFFFFF;" d="M86.25,95.7c0,0.533-0.25,0.7-0.75,0.5
									c-0.533-0.167-0.917-0.467-1.15-0.9c-0.133-0.3,0.15-0.366,0.85-0.2C85.9,95.267,86.25,95.467,86.25,95.7z"/>
								<g>
									<g>
										<path style="fill-rule:evenodd;clip-rule:evenodd;fill:#F2F2F2;" d="M82.35,86.65c-0.133,0-0.25-0.134-0.35-0.4
											c-0.1-0.3-0.083-0.45,0.05-0.45c0.067-0.033,0.184,0.1,0.35,0.4C82.5,86.434,82.483,86.583,82.35,86.65z M83.35,86.45
											c0.133-0.067,0.25,0.05,0.35,0.35c0.066,0.3,0.05,0.45-0.05,0.45c-0.1,0.066-0.217-0.05-0.35-0.35
											C83.2,86.6,83.217,86.45,83.35,86.45z M81.45,86.7c0.167,0,0.283,0.133,0.35,0.399c0.1,0.267,0.083,0.417-0.05,0.45
											c-0.1,0-0.217-0.133-0.35-0.399C81.3,86.883,81.317,86.733,81.45,86.7z M82.7,87.6c0.1,0,0.2,0.117,0.3,0.351
											c0.1,0.3,0.1,0.45,0,0.45c-0.167,0.033-0.283-0.084-0.35-0.351C82.55,87.783,82.567,87.633,82.7,87.6z M85.1,88.4
											c0.101,0.3,0.084,0.449-0.05,0.449c-0.133,0.067-0.233-0.066-0.3-0.399c-0.1-0.233-0.1-0.384,0-0.45
											C84.883,88,85,88.133,85.1,88.4z M84.3,88.8c0.1,0.233,0.083,0.384-0.05,0.45c-0.133,0-0.25-0.134-0.35-0.4
											s-0.083-0.416,0.05-0.449C84.083,88.4,84.2,88.533,84.3,88.8z M86.2,91c-0.134,0.033-0.25-0.083-0.351-0.35
											c-0.1-0.334-0.083-0.483,0.051-0.45c0.133-0.067,0.25,0.05,0.35,0.35S86.333,91,86.2,91z M83.65,90.35
											c-0.133,0.033-0.25-0.1-0.35-0.399c-0.1-0.233-0.083-0.384,0.05-0.45c0.133,0,0.25,0.133,0.35,0.4
											C83.767,90.167,83.75,90.316,83.65,90.35z M83.5,91.4c-0.1,0-0.217-0.134-0.35-0.4c-0.066-0.233-0.05-0.384,0.05-0.45
											c0.133,0,0.25,0.134,0.35,0.4C83.65,91.25,83.633,91.4,83.5,91.4z M84.4,91.9c0.1,0.232,0.083,0.383-0.05,0.449
											c-0.133,0-0.25-0.133-0.35-0.399c-0.1-0.3-0.083-0.45,0.05-0.45C84.183,91.467,84.3,91.6,84.4,91.9z M84.5,90.8
											c0.1,0.3,0.083,0.45-0.05,0.45c-0.133,0.033-0.25-0.083-0.35-0.35c-0.1-0.301-0.083-0.45,0.05-0.45S84.4,90.566,84.5,90.8
											z M85,90.75c-0.1-0.3-0.083-0.45,0.05-0.45c0.134-0.033,0.25,0.083,0.351,0.351c0.1,0.3,0.083,0.449-0.051,0.449
											C85.217,91.133,85.1,91.017,85,90.75z M85.5,92.85c-0.134,0.033-0.25-0.083-0.35-0.35c-0.034-0.3-0.017-0.45,0.05-0.45
											c0.133,0,0.25,0.117,0.35,0.351C85.65,92.7,85.634,92.85,85.5,92.85z M83.8,93.15c-0.066,0-0.183-0.134-0.35-0.4
											c-0.1-0.3-0.083-0.45,0.05-0.45c0.133-0.033,0.25,0.101,0.35,0.4C83.95,92.967,83.933,93.116,83.8,93.15z M84.1,94.25
											c0.133-0.033,0.25,0.1,0.35,0.4c0.1,0.3,0.083,0.449-0.05,0.449c-0.133,0.067-0.25-0.066-0.35-0.399
											C83.95,94.467,83.967,94.316,84.1,94.25z M84.95,94.15c-0.133,0-0.25-0.134-0.35-0.4c-0.1-0.233-0.083-0.384,0.05-0.45
											c0.133-0.033,0.25,0.101,0.35,0.4C85.1,93.967,85.083,94.116,84.95,94.15z M86.5,93c-0.134,0-0.25-0.134-0.35-0.4
											c-0.034-0.3-0.017-0.449,0.05-0.449c0.133-0.034,0.25,0.1,0.35,0.399C86.65,92.816,86.634,92.967,86.5,93z M86.35,94.35
											c0.101,0.301,0.084,0.45-0.05,0.45c-0.166,0.066-0.283-0.066-0.35-0.399c-0.101-0.268-0.084-0.417,0.05-0.45
											C86.066,93.95,86.184,94.083,86.35,94.35z M82.55,89.5c-0.133,0.033-0.25-0.1-0.35-0.4c-0.1-0.233-0.083-0.383,0.05-0.449
											c0.133-0.067,0.25,0.066,0.35,0.399C82.7,89.283,82.683,89.434,82.55,89.5z M81.55,89.4c-0.133,0-0.25-0.134-0.35-0.4
											c-0.133-0.3-0.117-0.45,0.05-0.45c0.133,0,0.25,0.134,0.35,0.4C81.667,89.217,81.65,89.366,81.55,89.4z M81.45,91.3
											c-0.133-0.3-0.117-0.45,0.05-0.45c0.133-0.033,0.233,0.084,0.3,0.351c0.1,0.3,0.083,0.45-0.05,0.45
											C81.65,91.65,81.55,91.533,81.45,91.3z M82.75,91.1c0.1,0.233,0.083,0.384-0.05,0.45c-0.133,0-0.25-0.133-0.35-0.399
											c-0.1-0.301-0.083-0.45,0.05-0.45C82.5,90.7,82.617,90.833,82.75,91.1z M82.95,93.5c-0.1,0.033-0.2-0.1-0.3-0.4
											c-0.1-0.267-0.083-0.399,0.05-0.399c0.133-0.067,0.233,0.05,0.3,0.35C83.1,93.35,83.083,93.5,82.95,93.5z M85.35,95.2
											c0.134,0,0.25,0.133,0.351,0.399c0.1,0.233,0.083,0.384-0.05,0.45c-0.134,0.033-0.25-0.1-0.351-0.399
											C85.2,95.383,85.217,95.233,85.35,95.2z"/>
									</g>
								</g>
								<g>
									<g>
										<path style="fill-rule:evenodd;clip-rule:evenodd;fill:#828282;" d="M83.3,86.35c0.1,0,0.217,0.117,0.35,0.351
											c0.067,0.333,0.05,0.5-0.05,0.5c-0.133,0-0.25-0.134-0.35-0.4C83.15,86.566,83.167,86.417,83.3,86.35z M82.25,86.55
											c-0.1,0-0.217-0.133-0.35-0.399c-0.066-0.267-0.033-0.417,0.1-0.45c0.1,0,0.2,0.133,0.3,0.399
											C82.4,86.4,82.383,86.55,82.25,86.55z M81.4,86.65c0.133,0,0.25,0.133,0.35,0.399s0.083,0.417-0.05,0.45
											c-0.133,0-0.25-0.134-0.35-0.4C81.25,86.8,81.267,86.65,81.4,86.65z M82.6,87.5c0.133,0,0.25,0.133,0.35,0.4
											c0.1,0.232,0.083,0.383-0.05,0.449c-0.133,0.033-0.25-0.1-0.35-0.399C82.45,87.717,82.467,87.566,82.6,87.5z M85.05,88.35
											c0.101,0.233,0.084,0.384-0.05,0.45c-0.133,0.033-0.25-0.1-0.35-0.399c-0.1-0.233-0.083-0.384,0.05-0.45
											C84.833,87.883,84.95,88.017,85.05,88.35z M83.9,88.35c0.1,0,0.2,0.117,0.3,0.351c0.066,0.166,0.083,0.283,0.05,0.35
											l-0.1,0.101c-0.1,0-0.2-0.117-0.3-0.351C83.717,88.5,83.733,88.35,83.9,88.35z M86.15,90.9
											c-0.134,0.033-0.267-0.084-0.4-0.351c-0.033-0.3-0.017-0.45,0.05-0.45c0.167-0.033,0.3,0.084,0.4,0.351
											C86.267,90.75,86.25,90.9,86.15,90.9z M83.6,90.25c-0.133,0.033-0.25-0.083-0.35-0.35c-0.1-0.301-0.1-0.467,0-0.5
											c0.167,0,0.3,0.133,0.4,0.399C83.717,90.1,83.7,90.25,83.6,90.25z M84.05,90.8c-0.1-0.267-0.083-0.417,0.05-0.45
											c0.133,0,0.25,0.134,0.35,0.4c0.1,0.233,0.083,0.383-0.05,0.45C84.233,91.2,84.117,91.066,84.05,90.8z M83.45,91.35
											c-0.133,0-0.25-0.133-0.35-0.399c-0.1-0.3-0.083-0.45,0.05-0.45s0.25,0.133,0.35,0.4
											C83.6,91.167,83.583,91.316,83.45,91.35z M83.85,91.55c0.033-0.066,0.083-0.1,0.15-0.1c0.133-0.033,0.233,0.083,0.3,0.35
											c0.167,0.3,0.15,0.45-0.05,0.45c-0.1,0-0.2-0.117-0.3-0.35C83.883,91.8,83.85,91.684,83.85,91.55z M85.3,91.05
											c-0.133,0.033-0.25-0.083-0.35-0.35c-0.1-0.3-0.083-0.45,0.05-0.45c0.1-0.033,0.217,0.083,0.35,0.35
											C85.45,90.9,85.434,91.05,85.3,91.05z M85.45,92.8c-0.134,0.033-0.25-0.1-0.351-0.399c-0.1-0.233-0.083-0.384,0.051-0.45
											c0.133,0,0.25,0.133,0.35,0.399C85.566,92.583,85.55,92.733,85.45,92.8z M83.4,92.65c-0.1-0.233-0.083-0.384,0.05-0.45
											c0.133,0,0.25,0.133,0.35,0.399c0.1,0.301,0.083,0.45-0.05,0.45S83.5,92.917,83.4,92.65z M84.05,94.2
											c0.133-0.033,0.233,0.1,0.3,0.399c0.167,0.334,0.167,0.467,0,0.4c-0.133,0.033-0.25-0.083-0.35-0.35
											C83.9,94.35,83.917,94.2,84.05,94.2z M84.9,94.05c-0.133,0-0.25-0.133-0.35-0.399c-0.1-0.268-0.083-0.417,0.05-0.45
											c0.133,0,0.25,0.133,0.35,0.399C85.05,93.9,85.033,94.05,84.9,94.05z M86.4,92.9c-0.101,0-0.2-0.134-0.301-0.4
											c-0.066-0.233-0.05-0.384,0.051-0.45c0.133-0.033,0.25,0.101,0.35,0.4C86.6,92.684,86.566,92.833,86.4,92.9z M86.2,94.75
											c-0.167,0-0.267-0.134-0.3-0.4c-0.101-0.267-0.084-0.416,0.05-0.449c0.1,0,0.2,0.133,0.3,0.399S86.333,94.717,86.2,94.75z
											 M82.45,89.45c-0.067,0-0.184-0.134-0.35-0.4c-0.033-0.3-0.017-0.45,0.05-0.45c0.167-0.033,0.283,0.101,0.35,0.4
											C82.6,89.267,82.583,89.417,82.45,89.45z M81.1,88.95c-0.033-0.3-0.017-0.45,0.05-0.45c0.1-0.033,0.233,0.083,0.4,0.35
											c0.067,0.301,0.05,0.45-0.05,0.45C81.367,89.333,81.233,89.217,81.1,88.95z M81.75,91.15
											c0.1,0.267,0.083,0.416-0.05,0.449c-0.133,0-0.25-0.133-0.35-0.399c-0.1-0.233-0.083-0.384,0.05-0.45
											C81.533,90.717,81.65,90.85,81.75,91.15z M82.65,91c0.1,0.3,0.083,0.45-0.05,0.45c-0.1,0-0.2-0.117-0.3-0.351
											c-0.133-0.3-0.133-0.467,0-0.5C82.433,90.6,82.55,90.733,82.65,91z M82.6,92.6c0.167-0.066,0.283,0.067,0.35,0.4
											c0.1,0.267,0.083,0.417-0.05,0.45c-0.066,0-0.183-0.134-0.35-0.4C82.517,92.75,82.533,92.6,82.6,92.6z M85.3,95.15
											c0.101,0,0.2,0.116,0.3,0.35c0.134,0.3,0.134,0.467,0,0.5c-0.166,0-0.283-0.134-0.35-0.4
											C85.15,95.333,85.167,95.184,85.3,95.15z"/>
									</g>
								</g>
								<path style="fill-rule:evenodd;clip-rule:evenodd;fill:#5E5E5E;" d="M69.4,72.2c-0.633,0.7-1.4,0.716-2.3,0.05
									c-0.333-0.233-0.55-0.6-0.65-1.1c-0.1-0.333-0.083-0.717,0.05-1.15l1.7-0.3c1.133-0.167,1.7-0.083,1.7,0.25
									c0.1,0.466,0.233,0.816,0.4,1.05L69.4,72.2z"/>
								<path style="fill-rule:evenodd;clip-rule:evenodd;fill:#ABABAB;" d="M69.05,72.05c-0.3,0.3-0.716,0.4-1.25,0.3
									c-0.5-0.1-0.85-0.3-1.05-0.6c-0.467-0.6-0.617-1.217-0.45-1.85l0.3-0.75c0.566-0.767,2.066-2.133,4.5-4.1
									c1.467-1.2,2.733-2.033,3.8-2.5c0.567-0.2,0.95-0.3,1.15-0.3l2,1.6c-0.3-0.034-1,0.367-2.1,1.2
									c-0.6,0.467-1.867,1.717-3.8,3.75L69.05,72.05z"/>
								<path style="fill-rule:evenodd;clip-rule:evenodd;fill:#9C9C9C;" d="M78.05,63.85c-0.066-0.034-0.267,0.033-0.6,0.2
									l-0.35-0.4c-0.2-0.2-0.467-0.35-0.8-0.45c-0.433-0.2-0.917-0.267-1.45-0.2l-1.55,0.4c1.333-0.8,2.25-1.183,2.75-1.15
									L78.05,63.85z"/>
								
									<linearGradient id="SVGID_37_" gradientUnits="userSpaceOnUse" x1="95.6279" y1="-24.3457" x2="103.2197" y2="-24.3457" gradientTransform="matrix(0.5433 0.8396 -0.8396 0.5433 3.084540e-004 -5.567074e-005)">
									<stop  offset="0.0314" style="stop-color:#7F8487"/>
									<stop  offset="0.0941" style="stop-color:#868A8C"/>
									<stop  offset="0.2392" style="stop-color:#939496"/>
									<stop  offset="0.3686" style="stop-color:#989899"/>
									<stop  offset="0.9686" style="stop-color:#92969C"/>
								</linearGradient>
								<path style="fill-rule:evenodd;clip-rule:evenodd;fill:url(#SVGID_37_);" d="M75.5,65.5c-1.3,1-3.333,3.15-6.1,6.45L69,72.3
									c-0.333,0.167-0.583,0.25-0.75,0.25c-0.067,0-0.267-0.066-0.6-0.2L67.5,72.3c-0.267-0.1-0.517-0.267-0.75-0.5v-0.05
									l0.05,0.05l0.65,0.4c0.566,0.2,1.05,0.183,1.45-0.05c0.167-0.1,0.267-0.217,0.3-0.35c2.767-3.267,4.833-5.417,6.2-6.45
									l1.5-1.2c0.267-0.233,0.55-0.35,0.85-0.35c0.233,0,0.467,0.1,0.7,0.3l2.2,2.3l0.15,0.2c0.133,0.2,0.184,0.517,0.15,0.95
									c-0.034,0.267-0.167,0.633-0.4,1.1c-0.4,0.833-0.917,1.617-1.55,2.35c-0.933,1.033-1.7,1.8-2.3,2.3l-0.05-0.15l1.7-1.7
									c1.467-1.567,2.267-2.884,2.4-3.95c0.033-0.3-0.017-0.567-0.15-0.8l-0.1-0.15L79.05,65c-0.433-0.467-0.733-0.75-0.9-0.85
									c-0.167-0.1-0.3-0.133-0.4-0.1c-0.167-0.033-0.417,0.05-0.75,0.25L75.5,65.5z"/>
								<path style="fill-rule:evenodd;clip-rule:evenodd;fill:#5F6062;" d="M47.3,81.15c1.034,2.8,3,5.833,5.9,9.1
									c2.433,2.767,4.9,4.934,7.4,6.5c1.167,0.667,2.133,1.116,2.9,1.35c-0.767-0.066-1.717-0.399-2.85-1
									c-2.433-1.233-4.983-3.416-7.65-6.55c-2.933-3.434-4.833-6.533-5.7-9.3c-0.267-0.667-0.466-1.467-0.6-2.4V78.8
									C46.8,79.533,47,80.316,47.3,81.15z"/>
								
									<linearGradient id="SVGID_38_" gradientUnits="userSpaceOnUse" x1="93.123" y1="8.9023" x2="97.7005" y2="8.9023" gradientTransform="matrix(0.5735 0.8192 -0.8192 0.5735 1.718402e-004 -3.238320e-004)">
									<stop  offset="0" style="stop-color:#9E9E9E"/>
									<stop  offset="1" style="stop-color:#EAEAEB"/>
								</linearGradient>
								<path style="fill-rule:evenodd;clip-rule:evenodd;fill:url(#SVGID_38_);" d="M48.6,84.95c0.3,0.533,0.333,0.816,0.1,0.85
									c-0.233,0.033-0.567-0.233-1-0.8c-0.6-0.934-1.05-1.783-1.35-2.55c-0.367-0.967-0.45-1.583-0.25-1.85
									c0.133-0.233,0.283-0.2,0.45,0.1L48.6,84.95z"/>
								
									<linearGradient id="SVGID_39_" gradientUnits="userSpaceOnUse" x1="99.4746" y1="-16.1875" x2="102.6164" y2="-16.1875" gradientTransform="matrix(0.5729 0.8196 -0.8196 0.5729 -4.183054e-004 -3.060102e-004)">
									<stop  offset="0" style="stop-color:#9E9E9E"/>
									<stop  offset="1" style="stop-color:#EAEAEB"/>
								</linearGradient>
								<path style="fill-rule:evenodd;clip-rule:evenodd;fill:url(#SVGID_39_);" d="M71.1,72.75c0.4,0.333,0.783,0.75,1.15,1.25
									s0.467,0.833,0.3,1c-0.3,0.233-0.8,0-1.5-0.7c-0.667-0.7-1.066-1.267-1.2-1.7c-0.167-0.467-0.15-0.684,0.05-0.65
									C70.1,71.983,70.5,72.25,71.1,72.75z"/>
								<path style="fill-rule:evenodd;clip-rule:evenodd;fill:#B0B0B0;" d="M78.25,80.15c0.1,0.467-0.133,0.55-0.7,0.25
									c-0.566-0.3-0.883-0.6-0.95-0.9c-0.067-0.3,0.167-0.35,0.7-0.15C77.833,79.55,78.15,79.816,78.25,80.15z"/>
								<path style="fill-rule:evenodd;clip-rule:evenodd;fill:#B5B5B5;" d="M77.2,91.55c0.933-0.1,0.4,0.417-1.6,1.55
									c-1.967,1.134-3.617,1.75-4.95,1.851c-1.533,0.166-2.9-0.033-4.1-0.601c-1.233-0.5-1.816-1.1-1.75-1.8
									c0-0.566,0.284-0.983,0.85-1.25c0.467-0.2,0.983-0.267,1.55-0.2l1.5,0.75c0.867,0.467,1.883,0.7,3.05,0.7
									c0.867,0.066,1.9-0.083,3.1-0.45C76.25,91.733,77.033,91.55,77.2,91.55z"/>
								
									<linearGradient id="SVGID_40_" gradientUnits="userSpaceOnUse" x1="-18.1196" y1="113.5957" x2="-15.7508" y2="113.5957" gradientTransform="matrix(0.7071 -0.7071 0.7071 0.7071 2.749562e-004 -7.039309e-005)">
									<stop  offset="0" style="stop-color:#D6D6D6"/>
									<stop  offset="1" style="stop-color:#EAEAEB"/>
								</linearGradient>
								<path style="fill-rule:evenodd;clip-rule:evenodd;fill:url(#SVGID_40_);" d="M68.35,92.95
									c-0.667-0.033-1.184-0.267-1.55-0.7c-0.233-0.3-0.233-0.517,0-0.65c0.3-0.166,0.65-0.066,1.05,0.301
									c0.333,0.3,0.867,0.55,1.6,0.75c0.533,0.1,0.716,0.183,0.55,0.25C69.4,93.033,68.85,93.05,68.35,92.95z"/>
								<path style="fill-rule:evenodd;clip-rule:evenodd;fill:#999999;" d="M68.875,71.725L68.25,71.9
									c-0.5,0-0.917-0.217-1.25-0.65c-0.333-0.5-0.433-0.967-0.3-1.4L67,69.2l-0.1,0.45c-0.066,0.4,0.033,0.8,0.3,1.2
									c0.2,0.466,0.55,0.75,1.05,0.85C68.483,71.758,68.692,71.767,68.875,71.725z"/>
								<path style="fill-rule:evenodd;clip-rule:evenodd;fill:#B5B5B5;" d="M79.5,88.35c0.067,0.767,0.217,1.5,0.45,2.2
									c-0.333,0.4-0.733,0.617-1.2,0.65c-0.533,0.033-0.467-0.75,0.2-2.351l0.35-0.8C79.433,87.917,79.5,88.017,79.5,88.35z"/>
								<path style="fill-rule:evenodd;clip-rule:evenodd;fill:#D9D9D9;" d="M79.55,89.3c0.1,0.5,0.017,0.684-0.25,0.55
									c-0.167-0.1-0.25-0.316-0.25-0.649c0.067-0.4,0.133-0.634,0.2-0.7c0.1-0.1,0.167-0.05,0.2,0.15L79.55,89.3z"/>
								<path style="fill-rule:evenodd;clip-rule:evenodd;fill:#C7C7C7;" d="M80.35,89.4c0,0.166-0.033,0.232-0.1,0.199
									c-0.133,0-0.25-0.283-0.35-0.85c-0.033-0.5-0.033-0.85,0-1.05c0.1-0.101,0.15-0.067,0.15,0.1L80.35,89.4z"/>
								<path style="fill-rule:evenodd;clip-rule:evenodd;fill:#C7C7C7;" d="M73.25,63.7c1-0.634,1.967-0.833,2.9-0.6l0.8,0.4
									c0.167,0.2,0.117,0.383-0.15,0.55c-1.066,0.7-2.4,1.833-4,3.4c0.233-0.833,0.167-1.517-0.2-2.05
									c-0.267-0.3-0.483-0.5-0.65-0.6l-0.2-0.05C71.983,64.517,72.483,64.167,73.25,63.7z"/>
							</g>
						</g>
					</g>
				</g>
			</g>
			<g>
				<path style="fill-rule:evenodd;clip-rule:evenodd;fill:#53B243;" d="M94.3,73.75c1.101,0.233,2,0.083,2.7-0.45
					c1.1-1.033,2-1.816,2.7-2.35c1.3-0.934,2.566-1.2,3.8-0.8c1.866,0.6,3.134,1.667,3.8,3.2c0.601,1.466,0.566,3-0.1,4.6
					c-1.7,3.933-5.367,5.733-11,5.4c-5.767-0.367-9.533-2.333-11.3-5.9c-0.667-1.333-0.9-2.667-0.7-4
					c0.167-1.267,0.65-2.134,1.45-2.6c2.399-1.434,4.483-0.934,6.25,1.5C92.4,73.05,93.2,73.517,94.3,73.75z"/>
				
					<use xlink:href="#FlashAICB_x2F_Layer_1_x2F__x3C_Group_x3E__x5F_4_x5F_0"  width="24.9" height="16.2" y="-16.2" transform="matrix(1 0 0 -1 83.2998 68.2002)" style="overflow:visible;opacity:0.1484;enable-background:new    ;"/>
				
					<use xlink:href="#FlashAICB_x2F_Layer_1_x2F__x3C_Group_x3E__x5F_3_x5F_1"  width="24.85" height="16.15" y="-16.15" transform="matrix(1 0 0 -1 83.3501 68.25)" style="overflow:visible;opacity:0.1914;enable-background:new    ;"/>
				
					<use xlink:href="#FlashAICB_x2F_Layer_1_x2F__x3C_Group_x3E__x5F_2_x5F_1"  width="6.15" height="5.2" y="-5.2" transform="matrix(1 0 0 -1 85.4502 71.2998)" style="overflow:visible;opacity:0.1992;enable-background:new    ;"/>
				
					<use xlink:href="#FlashAICB_x2F_Layer_1_x2F__x3C_Group_x3E__x5F_1_x5F_1"  width="9.85" height="7.25" y="-7.25" transform="matrix(1 0 0 -1 92.5498 71.75)" style="overflow:visible;opacity:0.1992;enable-background:new    ;"/>
				<path style="fill-rule:evenodd;clip-rule:evenodd;fill:#FFFFFF;" d="M100.05,73.3c0.667-0.1,0.9,0.2,0.7,0.9
					c-0.2,0.7-0.9,1.267-2.1,1.7c-0.834,0.3-1.634,0.383-2.4,0.25c-1.033-0.167-1.066-0.25-0.1-0.25
					c1.267-0.033,2.166-0.45,2.699-1.25C99.384,73.783,99.783,73.333,100.05,73.3z"/>
				<path style="fill-rule:evenodd;clip-rule:evenodd;fill:#FFFFFF;" d="M87.55,72.25c0.066,0.566,0.184,0.983,0.351,1.25
					c0.166,0.3,0.083,0.333-0.25,0.1c-0.334-0.233-0.567-0.517-0.7-0.85c-0.101-0.333-0.033-0.55,0.2-0.65S87.517,72.05,87.55,72.25
					z"/>
				<path style="fill-rule:evenodd;clip-rule:evenodd;fill:#FFFFFF;" d="M88.65,74.1c0.533,0.367,0.75,0.6,0.649,0.7
					c-0.1,0.067-0.3,0.033-0.6-0.1c-0.2-0.134-0.3-0.3-0.3-0.5C88.366,74,88.45,73.967,88.65,74.1z"/>
				<path style="fill-rule:evenodd;clip-rule:evenodd;fill:#FFFFFF;" d="M94.6,75.9c0.301,0.1,0.45,0.217,0.45,0.35
					c-0.033,0.1-0.184,0.15-0.45,0.15c-0.3,0-0.433-0.1-0.399-0.3C94.2,75.9,94.333,75.833,94.6,75.9z"/>
				
					<use xlink:href="#FlashAICB_x2F_Layer_1_x2F__x3C_Group_x3E__x5F_5"  width="6.75" height="5.7" y="-5.7" transform="matrix(1 0 0 -1 98.1504 79.6499)" style="overflow:visible;opacity:0.1992;enable-background:new    ;"/>
			</g>
		</g>
		
			<use xlink:href="#FlashAICB_x2F_Layer_1_x2F__x3C_Path_x3E__x5F_0"  width="128.65" height="61.9" y="-61.9" transform="matrix(1 0 0 -1 21.5 85.9502)" style="overflow:visible;opacity:0.3398;enable-background:new    ;"/>
		<g>
			<g>
				<g>
					<g>
						<g>
							<g>
								<g>
									<g>
										<g>
											<g>
												<g>
													<g>
														
															<linearGradient id="SVGID_41_" gradientUnits="userSpaceOnUse" x1="-58.5586" y1="55.8979" x2="-25.6701" y2="55.8979" gradientTransform="matrix(0.0996 -0.995 0.995 0.0996 -1.914799e-005 5.960464e-005)">
															<stop  offset="0.0549" style="stop-color:#6C1F69"/>
															<stop  offset="0.5882" style="stop-color:#CEA8B1"/>
															<stop  offset="0.8392" style="stop-color:#FAE3D0"/>
														</linearGradient>
														<path style="fill-rule:evenodd;clip-rule:evenodd;fill:url(#SVGID_41_);" d="M37.45,51.35
															c1.367-1.733,2.966-2.983,4.8-3.75c-0.133-1.3,0.25-2.65,1.15-4.05c0.7-1.1,1.567-2.066,2.6-2.9
															c1.567-1.133,3.317-1.867,5.25-2.2c0.267-1.134,0.95-2.233,2.05-3.3c0.833-0.833,1.784-1.533,2.85-2.1
															c1.5-0.667,3.1-1.033,4.8-1.1c1.7-0.034,3.183,0.233,4.45,0.8c0.8,0.167,1.367,0.6,1.7,1.3l0.05,0.05
															c0.733,1.5,0.55,3.2-0.55,5.1c-0.6,1.066-1.383,2.05-2.35,2.95c-2.3,2.3-4.617,3.683-6.95,4.15l-0.5,0.05h-0.1
															c-0.4,0.733-0.75,1.283-1.05,1.65c-1.833,2.733-3.833,4.533-6,5.4l-0.25,0.1c-0.133,0.8-0.316,1.517-0.55,2.15
															c-1.067,3.233-2.467,5.533-4.2,6.9l-0.5,0.3l-0.25,0.1c-0.267,0.133-0.583,0.2-0.95,0.2
															c-0.5-0.067-0.9-0.183-1.2-0.35c-0.833-0.5-1.467-1.2-1.9-2.1l-0.7,0.25l-0.6,0.1h-0.2c-0.833-0.066-1.483-0.4-1.95-1
															c-0.9-1.233-1.15-2.783-0.75-4.65C35.95,54,36.55,52.65,37.45,51.35z"/>
														<path style="fill-rule:evenodd;clip-rule:evenodd;fill:none;stroke:#FCE5FF;stroke-width:0.25;" d="M37.45,51.35
															c-0.9,1.3-1.5,2.65-1.8,4.05c-0.4,1.867-0.15,3.417,0.75,4.65c0.467,0.6,1.117,0.934,1.95,1h0.2l0.6-0.1l0.7-0.25
															c0.433,0.9,1.066,1.6,1.9,2.1c0.3,0.167,0.7,0.283,1.2,0.35c0.367,0,0.683-0.067,0.95-0.2l0.25-0.1l0.5-0.3
															c1.733-1.367,3.133-3.667,4.2-6.9c0.233-0.633,0.417-1.35,0.55-2.15l0.25-0.1c2.167-0.867,4.167-2.667,6-5.4
															c0.3-0.367,0.65-0.917,1.05-1.65h0.1l0.5-0.05c2.333-0.467,4.65-1.85,6.95-4.15c0.967-0.9,1.75-1.883,2.35-2.95
															c1.1-1.9,1.283-3.6,0.55-5.1l-0.05-0.05c-0.333-0.7-0.9-1.133-1.7-1.3c-1.267-0.567-2.75-0.833-4.45-0.8
															c-1.7,0.066-3.3,0.433-4.8,1.1c-1.066,0.567-2.017,1.267-2.85,2.1c-1.1,1.067-1.783,2.167-2.05,3.3
															c-1.933,0.333-3.683,1.066-5.25,2.2c-1.033,0.833-1.9,1.8-2.6,2.9c-0.9,1.4-1.283,2.75-1.15,4.05
															C40.417,48.367,38.817,49.617,37.45,51.35z"/>
													</g>
												</g>
												<path style="fill-rule:evenodd;clip-rule:evenodd;fill:#3B223B;" d="M44.8,48.55h-0.2c-0.233-0.1-0.4-0.267-0.5-0.5
													c-0.367-1.033-0.15-2.183,0.65-3.45c0.6-1,1.367-1.867,2.3-2.6c1.833-1.3,3.784-1.95,5.85-1.95V40
													c-0.167-1.1,0.267-2.2,1.3-3.3c0.767-0.867,1.683-1.567,2.75-2.1c1.3-0.6,2.683-0.917,4.15-0.95s2.733,0.217,3.8,0.75
													h0.05c0.333,0.067,0.55,0.217,0.65,0.45c0.433,0.9,0.3,2-0.4,3.3c-0.5,0.967-1.217,1.883-2.15,2.75
													c-2.1,2.1-4.133,3.333-6.1,3.7l-0.15,0.05h-0.15c-0.267-0.067-0.45-0.183-0.55-0.35l-0.25-0.45
													c-0.3,1.033-0.817,2.083-1.55,3.15c-1.7,2.5-3.466,4.1-5.3,4.8l-0.2,0.05l-0.1,0.05h-0.1c-0.233,0-0.4-0.083-0.5-0.25
													l-0.25-0.3c0.033,1.167-0.184,2.4-0.65,3.7c-0.9,2.9-2.117,4.95-3.65,6.15l-0.2,0.1l-0.05,0.05L43,61.4
													c-0.167,0-0.283-0.033-0.35-0.1c-0.967-0.533-1.566-1.55-1.8-3.05c-0.633,0.433-1.35,0.783-2.15,1.05h-0.35
													c-0.2,0-0.383-0.1-0.55-0.3c-0.667-0.867-0.8-2.05-0.4-3.55c0.267-1.067,0.75-2.1,1.45-3.1
													C40.483,50.25,42.467,48.983,44.8,48.55z"/>
												<g>
													<g>
														<g>
															<g>
																<g>
																	<g>
																		<g>
																			
																				<linearGradient id="SVGID_42_" gradientUnits="userSpaceOnUse" x1="22.5449" y1="64.5752" x2="34.2075" y2="64.5752" gradientTransform="matrix(0.8317 -0.5552 0.5552 0.8317 -1.009703e-004 3.826618e-005)">
																				<stop  offset="0.1608" style="stop-color:#E253EA"/>
																				<stop  offset="0.4941" style="stop-color:#B04AB1"/>
																				<stop  offset="0.9882" style="stop-color:#603956"/>
																			</linearGradient>
																			<path style="fill-rule:evenodd;clip-rule:evenodd;fill:url(#SVGID_42_);" d="M64.6,35.15
																				c0.033,0.767-0.467,1.533-1.5,2.3c-0.8,0.633-1.7,1.116-2.7,1.45c-2.667,1.067-4.9,1.4-6.7,1
																				c2-1.267,3.466-2.267,4.4-3C60.3,35.333,62.467,34.75,64.6,35.15z"/>
																			<path style="fill-rule:evenodd;clip-rule:evenodd;fill:#FCE5FF;" d="M53.65,39.85
																				c-0.133-0.833,0.217-1.717,1.05-2.65c0.733-0.767,1.6-1.4,2.6-1.9c1.167-0.566,2.417-0.867,3.75-0.9
																				c1.333-0.033,2.517,0.2,3.55,0.7c-0.9-0.133-1.85,0-2.85,0.4c-0.567,0.233-1.433,0.683-2.6,1.35
																				C57.017,38.283,55.183,39.283,53.65,39.85z"/>
																		</g>
																		<g>
																			
																				<linearGradient id="SVGID_43_" gradientUnits="userSpaceOnUse" x1="-5.9478" y1="73.127" x2="5.7297" y2="73.127" gradientTransform="matrix(0.5438 -0.8392 0.8392 0.5438 1.764297e-005 -9.816885e-005)">
																				<stop  offset="0.1608" style="stop-color:#E253EA"/>
																				<stop  offset="0.4941" style="stop-color:#B04AB1"/>
																				<stop  offset="0.9882" style="stop-color:#603956"/>
																			</linearGradient>
																			<path style="fill-rule:evenodd;clip-rule:evenodd;fill:url(#SVGID_43_);" d="M64.9,35.2
																				c0.333,0.7,0.2,1.616-0.4,2.75c-0.5,0.866-1.15,1.667-1.95,2.4c-2.1,2.033-4.017,3.2-5.75,3.5
																				c1.367-1.934,2.317-3.417,2.85-4.45C61.017,37.1,62.767,35.7,64.9,35.2z"/>
																			<path style="fill-rule:evenodd;clip-rule:evenodd;fill:#FCE5FF;" d="M56.75,43.9c-0.467-0.7-0.5-1.65-0.1-2.85
																				c0.333-1.033,0.867-1.983,1.6-2.85c0.9-0.967,1.933-1.717,3.1-2.25c1.233-0.567,2.417-0.833,3.55-0.8
																				c-0.867,0.233-1.683,0.733-2.45,1.5c-0.434,0.433-1.05,1.2-1.85,2.3C59,41.283,57.717,42.933,56.75,43.9z"/>
																		</g>
																	</g>
																</g>
															</g>
														</g>
													</g>
													<g>
														<g>
															<g>
																<g>
																	<g>
																		<g>
																			
																				<linearGradient id="SVGID_44_" gradientUnits="userSpaceOnUse" x1="-2.0508" y1="67.1475" x2="9.6162" y2="67.1475" gradientTransform="matrix(0.7071 -0.7071 0.7071 0.7071 -2.081990e-004 -6.526709e-005)">
																				<stop  offset="0.1608" style="stop-color:#E253EA"/>
																				<stop  offset="0.4941" style="stop-color:#B04AB1"/>
																				<stop  offset="0.9882" style="stop-color:#603956"/>
																			</linearGradient>
																			<path style="fill-rule:evenodd;clip-rule:evenodd;fill:url(#SVGID_44_);" d="M54.65,41.05
																				c0.167,0.733-0.167,1.583-1,2.55c-0.667,0.767-1.467,1.417-2.4,1.95c-2.333,1.533-4.45,2.283-6.35,2.25
																				c0.2-0.233,0.767-0.8,1.7-1.7c0.933-0.867,1.6-1.55,2-2.05C50.467,42.083,52.483,41.083,54.65,41.05z"/>
																			<path style="fill-rule:evenodd;clip-rule:evenodd;fill:#FCE5FF;" d="M44.85,47.8c-0.3-0.767-0.133-1.7,0.5-2.8
																				c0.533-0.9,1.25-1.7,2.15-2.4c1.067-0.767,2.233-1.3,3.5-1.6c1.333-0.3,2.55-0.3,3.65,0
																				c-0.9,0.033-1.816,0.35-2.75,0.95c-0.467,0.3-1.233,0.917-2.3,1.85C47.833,45.566,46.25,46.9,44.85,47.8z"/>
																		</g>
																		<g>
																			
																				<linearGradient id="SVGID_45_" gradientUnits="userSpaceOnUse" x1="-29.4185" y1="65.7783" x2="-17.7382" y2="65.7783" gradientTransform="matrix(0.3703 -0.9289 0.9289 0.3703 -9.447336e-006 4.608631e-004)">
																				<stop  offset="0.1608" style="stop-color:#E253EA"/>
																				<stop  offset="0.4941" style="stop-color:#B04AB1"/>
																				<stop  offset="0.9882" style="stop-color:#603956"/>
																			</linearGradient>
																			<path style="fill-rule:evenodd;clip-rule:evenodd;fill:url(#SVGID_45_);" d="M55,41.05
																				c0.433,0.6,0.467,1.517,0.1,2.75c-0.333,0.934-0.817,1.85-1.45,2.75c-1.633,2.367-3.283,3.883-4.95,4.55
																				c0.966-2.167,1.617-3.8,1.95-4.9C51.55,43.667,53,41.95,55,41.05z"/>
																			<path style="fill-rule:evenodd;clip-rule:evenodd;fill:#FCE5FF;" d="M48.65,51.15
																				c-0.566-0.633-0.767-1.567-0.6-2.8c0.133-1.034,0.467-2.05,1-3.05c0.7-1.1,1.567-2.05,2.6-2.85
																				c1.1-0.8,2.2-1.284,3.3-1.45c-0.8,0.4-1.5,1.05-2.1,1.95c-0.367,0.5-0.833,1.366-1.4,2.6
																				C50.45,47.983,49.517,49.85,48.65,51.15z"/>
																		</g>
																	</g>
																</g>
															</g>
														</g>
													</g>
													<g>
														<g>
															<g>
																<g>
																	<g>
																		<g>
																			
																				<linearGradient id="SVGID_46_" gradientUnits="userSpaceOnUse" x1="-33.2188" y1="63.251" x2="-21.5435" y2="63.251" gradientTransform="matrix(0.4752 -0.8799 0.8799 0.4752 -3.613234e-004 -4.613996e-004)">
																				<stop  offset="0.1608" style="stop-color:#E253EA"/>
																				<stop  offset="0.4941" style="stop-color:#B04AB1"/>
																				<stop  offset="0.9882" style="stop-color:#603956"/>
																			</linearGradient>
																			<path style="fill-rule:evenodd;clip-rule:evenodd;fill:url(#SVGID_46_);" d="M40.95,53.85
																				c1.167-2.367,2.8-3.9,4.9-4.6c0.4,0.667,0.333,1.583-0.2,2.75c-0.433,0.9-1.017,1.75-1.75,2.55
																				c-1.833,2.167-3.633,3.5-5.4,4c0.133-0.333,0.5-1.05,1.1-2.15C40.267,55.233,40.717,54.383,40.95,53.85z"/>
																			<path style="fill-rule:evenodd;clip-rule:evenodd;fill:#FCE5FF;" d="M43.55,50.9c-0.4,0.433-0.966,1.233-1.7,2.4
																				c-1.3,2.367-2.45,4.117-3.45,5.25c-0.5-0.667-0.6-1.617-0.3-2.85c0.267-1.034,0.733-2,1.4-2.9
																				c0.767-1.033,1.733-1.883,2.9-2.55c1.167-0.633,2.317-0.983,3.45-1.05C45.017,49.5,44.25,50.066,43.55,50.9z"/>
																		</g>
																		<g>
																			
																				<linearGradient id="SVGID_47_" gradientUnits="userSpaceOnUse" x1="-56.502" y1="49.938" x2="-44.8188" y2="49.938" gradientTransform="matrix(0.09 -0.9959 0.9959 0.09 -3.761500e-004 -4.765242e-004)">
																				<stop  offset="0.1608" style="stop-color:#E253EA"/>
																				<stop  offset="0.4941" style="stop-color:#B04AB1"/>
																				<stop  offset="0.9882" style="stop-color:#603956"/>
																			</linearGradient>
																			<path style="fill-rule:evenodd;clip-rule:evenodd;fill:url(#SVGID_47_);" d="M43.5,55.35
																				c0.167-2.7,1.067-4.767,2.7-6.2c0.633,0.467,0.933,1.333,0.9,2.6c-0.033,1-0.233,2.017-0.6,3.05
																				c-0.867,2.8-2,4.733-3.4,5.8c0-0.367,0.066-1.167,0.2-2.4C43.433,56.9,43.5,55.95,43.5,55.35z"/>
																			<path style="fill-rule:evenodd;clip-rule:evenodd;fill:#FCE5FF;" d="M44.7,51.6c-0.2,0.6-0.4,1.566-0.6,2.9
																				c-0.233,2.566-0.6,4.617-1.1,6.15c-0.7-0.4-1.167-1.233-1.4-2.5c-0.167-1.067-0.133-2.133,0.1-3.2
																				c0.333-1.267,0.9-2.434,1.7-3.5c0.8-1.067,1.717-1.833,2.75-2.3C45.517,49.75,45.033,50.566,44.7,51.6z"/>
																		</g>
																	</g>
																</g>
															</g>
														</g>
													</g>
												</g>
											</g>
										</g>
									</g>
								</g>
							</g>
						</g>
					</g>
				</g>
			</g>
			<g>
				<g>
					<g>
						<g>
							<g>
								<g>
									<g>
										<g>
											<g>
												<g>
													<g>
														
															<linearGradient id="SVGID_48_" gradientUnits="userSpaceOnUse" x1="120.7021" y1="31.0073" x2="119.4771" y2="63.8823">
															<stop  offset="0.0549" style="stop-color:#6C1F69"/>
															<stop  offset="0.5882" style="stop-color:#CEA8B1"/>
															<stop  offset="0.8392" style="stop-color:#FAE3D0"/>
														</linearGradient>
														<path style="fill-rule:evenodd;clip-rule:evenodd;fill:url(#SVGID_48_);" d="M104.5,34.1l0.05-0.05
															c0.4-0.7,0.967-1.133,1.7-1.3c1.267-0.567,2.75-0.833,4.45-0.8c1.7,0.066,3.3,0.433,4.8,1.1
															c1.066,0.567,2.017,1.267,2.85,2.1c1.101,1.067,1.784,2.167,2.051,3.3c1.933,0.3,3.699,1.033,5.3,2.2
															c1.033,0.833,1.899,1.8,2.6,2.9c0.9,1.4,1.283,2.75,1.15,4.05c1.767,0.733,3.35,1.983,4.75,3.75
															c0.899,1.3,1.5,2.65,1.8,4.05c0.4,1.867,0.15,3.417-0.75,4.65c-0.467,0.6-1.1,0.934-1.9,1h-0.25l-0.6-0.1l-0.7-0.25
															c-0.434,0.9-1.066,1.6-1.899,2.1c-0.301,0.167-0.684,0.283-1.15,0.35c-0.4,0-0.733-0.067-1-0.2l-0.25-0.1l-0.45-0.3
															c-1.767-1.367-3.184-3.667-4.25-6.9c-0.3-1.167-0.467-1.883-0.5-2.15l-0.3-0.1c-2.167-0.867-4.167-2.667-6-5.4
															l-1-1.65h-0.15L114.4,46.3c-1.367-0.267-2.784-0.9-4.25-1.9c-1.034-0.7-1.934-1.45-2.7-2.25
															c-0.967-0.833-1.767-1.817-2.4-2.95C103.95,37.3,103.767,35.6,104.5,34.1z"/>
														<path style="fill-rule:evenodd;clip-rule:evenodd;fill:none;stroke:#FCE5FF;stroke-width:0.25;" d="M104.5,34.1
															l0.05-0.05c0.4-0.7,0.967-1.133,1.7-1.3c1.267-0.567,2.75-0.833,4.45-0.8c1.7,0.066,3.3,0.433,4.8,1.1
															c1.066,0.567,2.017,1.267,2.85,2.1c1.101,1.067,1.784,2.167,2.051,3.3c1.933,0.3,3.699,1.033,5.3,2.2
															c1.033,0.833,1.899,1.8,2.6,2.9c0.9,1.4,1.283,2.75,1.15,4.05c1.767,0.733,3.35,1.983,4.75,3.75
															c0.899,1.3,1.5,2.65,1.8,4.05c0.4,1.867,0.15,3.417-0.75,4.65c-0.467,0.6-1.1,0.934-1.9,1h-0.25l-0.6-0.1l-0.7-0.25
															c-0.434,0.9-1.066,1.6-1.899,2.1c-0.301,0.167-0.684,0.283-1.15,0.35c-0.4,0-0.733-0.067-1-0.2l-0.25-0.1l-0.45-0.3
															c-1.767-1.367-3.184-3.667-4.25-6.9c-0.3-1.167-0.467-1.883-0.5-2.15l-0.3-0.1c-2.167-0.867-4.167-2.667-6-5.4
															l-1-1.65h-0.15L114.4,46.3c-1.367-0.267-2.784-0.9-4.25-1.9c-1.034-0.7-1.934-1.45-2.7-2.25
															c-0.967-0.833-1.767-1.817-2.4-2.95C103.95,37.3,103.767,35.6,104.5,34.1z"/>
													</g>
												</g>
												<path style="fill-rule:evenodd;clip-rule:evenodd;fill:#3B223B;" d="M108.6,40.9c-0.933-0.867-1.649-1.783-2.149-2.75
													c-0.7-1.3-0.834-2.4-0.4-3.3c0.134-0.233,0.351-0.383,0.65-0.45h0.05c1.066-0.533,2.333-0.783,3.8-0.75
													S113.4,34,114.7,34.6c1.066,0.533,2,1.233,2.8,2.1c1.033,1.1,1.467,2.2,1.3,3.3l-0.05,0.05c2.1,0,4.066,0.65,5.9,1.95
													c0.933,0.767,1.699,1.633,2.3,2.6c0.767,1.3,0.967,2.45,0.6,3.45c-0.033,0.2-0.184,0.367-0.45,0.5H126.9
													c2.3,0.434,4.267,1.7,5.899,3.8c0.7,1,1.184,2.033,1.45,3.1c0.4,1.5,0.267,2.683-0.4,3.55c-0.1,0.2-0.283,0.3-0.55,0.3
													H133c-0.733-0.233-1.467-0.583-2.2-1.05c-0.233,1.5-0.816,2.517-1.75,3.05c-0.066,0.067-0.184,0.1-0.35,0.1l-0.3-0.05
													L128.1,61.2c-1.533-1.2-2.75-3.25-3.649-6.15c-0.434-1.2-0.634-2.433-0.601-3.7l-0.25,0.3
													c-0.166,0.167-0.35,0.25-0.55,0.25h-0.1l-0.101-0.05l-0.199-0.05c-1.801-0.7-3.551-2.3-5.25-4.8
													c-0.801-1.133-1.334-2.184-1.601-3.15l-0.2,0.45c-0.133,0.167-0.316,0.283-0.55,0.35H114.9l-0.2-0.05
													C112.733,44.233,110.7,43,108.6,40.9z"/>
												<g>
													<g>
														<g>
															<g>
																<g>
																	<g>
																		<g>
																			
																				<linearGradient id="SVGID_49_" gradientUnits="userSpaceOnUse" x1="117.0508" y1="41.1855" x2="107.352" y2="34.7113">
																				<stop  offset="0.1608" style="stop-color:#E253EA"/>
																				<stop  offset="0.4941" style="stop-color:#B04AB1"/>
																				<stop  offset="0.9882" style="stop-color:#603956"/>
																			</linearGradient>
																			<path style="fill-rule:evenodd;clip-rule:evenodd;fill:url(#SVGID_49_);" d="M108.55,37.45
																				c-1-0.767-1.483-1.534-1.45-2.3c2.101-0.4,4.25,0.183,6.45,1.75c0.5,0.4,1.3,0.95,2.4,1.65
																				c1.066,0.7,1.733,1.15,2,1.35c-1.767,0.4-3.983,0.067-6.65-1C110.267,38.533,109.35,38.05,108.55,37.45z"/>
																			<path style="fill-rule:evenodd;clip-rule:evenodd;fill:#FCE5FF;" d="M118.05,39.85c-1.666-0.633-3.5-1.633-5.5-3
																				c-1.133-0.667-2.017-1.117-2.649-1.35c-1-0.4-1.934-0.533-2.801-0.4c1.034-0.5,2.217-0.733,3.551-0.7
																				c1.333,0.033,2.583,0.333,3.75,0.9c1,0.5,1.85,1.133,2.55,1.9C117.783,38.133,118.15,39.017,118.05,39.85z"/>
																		</g>
																		<g>
																			
																				<linearGradient id="SVGID_50_" gradientUnits="userSpaceOnUse" x1="113.5264" y1="44.75" x2="107.1764" y2="34.95">
																				<stop  offset="0.1608" style="stop-color:#E253EA"/>
																				<stop  offset="0.4941" style="stop-color:#B04AB1"/>
																				<stop  offset="0.9882" style="stop-color:#603956"/>
																			</linearGradient>
																			<path style="fill-rule:evenodd;clip-rule:evenodd;fill:url(#SVGID_50_);" d="M107.2,37.95
																				c-0.634-1.134-0.783-2.05-0.45-2.75c2.134,0.5,3.884,1.9,5.25,4.2c0.3,0.533,0.816,1.35,1.55,2.45
																				c0.7,1,1.134,1.667,1.3,2c-1.733-0.3-3.649-1.467-5.75-3.5C108.3,39.617,107.667,38.816,107.2,37.95z"/>
																			<path style="fill-rule:evenodd;clip-rule:evenodd;fill:#FCE5FF;" d="M114.95,43.9
																				c-1.101-1.067-2.384-2.717-3.851-4.95c-0.833-1.134-1.466-1.9-1.899-2.3c-0.767-0.767-1.584-1.267-2.45-1.5
																				c1.134-0.033,2.316,0.233,3.55,0.8c1.167,0.533,2.2,1.283,3.101,2.25c0.733,0.866,1.267,1.816,1.6,2.85
																				C115.4,42.25,115.384,43.2,114.95,43.9z"/>
																		</g>
																	</g>
																</g>
															</g>
														</g>
													</g>
													<g>
														<g>
															<g>
																<g>
																	<g>
																		<g>
																			
																				<linearGradient id="SVGID_51_" gradientUnits="userSpaceOnUse" x1="125.6201" y1="48.9297" x2="117.3701" y2="40.6797">
																				<stop  offset="0.1608" style="stop-color:#E253EA"/>
																				<stop  offset="0.4941" style="stop-color:#B04AB1"/>
																				<stop  offset="0.9882" style="stop-color:#603956"/>
																			</linearGradient>
																			<path style="fill-rule:evenodd;clip-rule:evenodd;fill:url(#SVGID_51_);" d="M117.05,41.05
																				c2.167,0.033,4.167,1.033,6,3c0.4,0.5,1.066,1.184,2,2.05c0.934,0.9,1.5,1.466,1.7,1.7
																				c-1.866,0.033-3.983-0.717-6.35-2.25c-0.934-0.533-1.733-1.183-2.4-1.95
																				C117.167,42.633,116.85,41.783,117.05,41.05z"/>
																			<path style="fill-rule:evenodd;clip-rule:evenodd;fill:#FCE5FF;" d="M126.85,47.8
																				c-1.466-0.933-3.066-2.267-4.8-4c-1.066-0.933-1.833-1.55-2.3-1.85c-0.934-0.6-1.833-0.917-2.7-0.95
																				c1.101-0.3,2.3-0.3,3.601,0c1.267,0.3,2.433,0.833,3.5,1.6c0.899,0.7,1.616,1.5,2.149,2.4
																				C126.934,46.1,127.116,47.033,126.85,47.8z"/>
																		</g>
																		<g>
																			
																				<linearGradient id="SVGID_52_" gradientUnits="userSpaceOnUse" x1="121.4609" y1="51.6763" x2="117.1359" y2="40.8263">
																				<stop  offset="0.1608" style="stop-color:#E253EA"/>
																				<stop  offset="0.4941" style="stop-color:#B04AB1"/>
																				<stop  offset="0.9882" style="stop-color:#603956"/>
																			</linearGradient>
																			<path style="fill-rule:evenodd;clip-rule:evenodd;fill:url(#SVGID_52_);" d="M116.7,41.05
																				c2.033,0.934,3.467,2.65,4.3,5.15c0.2,0.566,0.55,1.466,1.05,2.7c0.5,1.133,0.8,1.867,0.9,2.2
																				c-1.667-0.667-3.316-2.184-4.95-4.55c-0.634-0.9-1.1-1.816-1.4-2.75C116.2,42.566,116.233,41.65,116.7,41.05z"/>
																			<path style="fill-rule:evenodd;clip-rule:evenodd;fill:#FCE5FF;" d="M123.05,51.15
																				c-0.899-1.3-1.85-3.167-2.85-5.6c-0.566-1.233-1.033-2.1-1.4-2.6c-0.6-0.9-1.3-1.55-2.1-1.95
																				c1.133,0.167,2.25,0.65,3.35,1.45c1.033,0.8,1.884,1.75,2.55,2.85c0.534,0.967,0.884,1.983,1.051,3.05
																				C123.816,49.583,123.616,50.517,123.05,51.15z"/>
																		</g>
																	</g>
																</g>
															</g>
														</g>
													</g>
													<g>
														<g>
															<g>
																<g>
																	<g>
																		<g>
																			
																				<linearGradient id="SVGID_53_" gradientUnits="userSpaceOnUse" x1="131.7852" y1="59.2822" x2="126.2352" y2="49.0072">
																				<stop  offset="0.1608" style="stop-color:#E253EA"/>
																				<stop  offset="0.4941" style="stop-color:#B04AB1"/>
																				<stop  offset="0.9882" style="stop-color:#603956"/>
																			</linearGradient>
																			<path style="fill-rule:evenodd;clip-rule:evenodd;fill:url(#SVGID_53_);" d="M130.7,53.85
																				c0.267,0.566,0.717,1.417,1.35,2.55c0.634,1.133,1.017,1.85,1.15,2.15c-1.8-0.5-3.617-1.833-5.45-4
																				c-0.733-0.8-1.316-1.65-1.75-2.55c-0.533-1.167-0.6-2.083-0.2-2.75C127.9,49.917,129.533,51.45,130.7,53.85z"/>
																			<path style="fill-rule:evenodd;clip-rule:evenodd;fill:#FCE5FF;" d="M128.15,50.9
																				c-0.733-0.833-1.517-1.4-2.351-1.7c1.134,0.066,2.283,0.417,3.45,1.05c1.167,0.667,2.15,1.517,2.95,2.55
																				c0.633,0.9,1.083,1.867,1.35,2.9c0.3,1.233,0.2,2.183-0.3,2.85c-1-1.133-2.15-2.883-3.45-5.25
																				C129.134,52.2,128.583,51.4,128.15,50.9z"/>
																		</g>
																		<g>
																			
																				<linearGradient id="SVGID_54_" gradientUnits="userSpaceOnUse" x1="127.0186" y1="60.7637" x2="125.9676" y2="49.1284">
																				<stop  offset="0.1608" style="stop-color:#E253EA"/>
																				<stop  offset="0.4941" style="stop-color:#B04AB1"/>
																				<stop  offset="0.9882" style="stop-color:#603956"/>
																			</linearGradient>
																			<path style="fill-rule:evenodd;clip-rule:evenodd;fill:url(#SVGID_54_);" d="M128.15,55.35
																				c0,0.633,0.083,1.583,0.25,2.85c0.133,1.267,0.199,2.066,0.199,2.4c-1.433-1.1-2.583-3.034-3.449-5.8
																				c-0.367-1.033-0.551-2.05-0.551-3.05c-0.033-1.267,0.267-2.133,0.9-2.6
																				C127.167,50.617,128.05,52.683,128.15,55.35z"/>
																			<path style="fill-rule:evenodd;clip-rule:evenodd;fill:#FCE5FF;" d="M127,51.6c-0.333-1.034-0.833-1.85-1.5-2.45
																				c1.033,0.467,1.95,1.233,2.75,2.3c0.8,1.066,1.366,2.233,1.7,3.5c0.233,1.1,0.267,2.167,0.1,3.2
																				c-0.2,1.267-0.666,2.1-1.399,2.5c-0.5-1.533-0.867-3.583-1.101-6.15C127.35,53.1,127.167,52.133,127,51.6z"/>
																		</g>
																	</g>
																</g>
															</g>
														</g>
													</g>
												</g>
											</g>
										</g>
									</g>
								</g>
							</g>
						</g>
					</g>
				</g>
			</g>
		</g>
		<g>
			
				<use xlink:href="#FlashAICB_x2F_Layer_1_x2F__x3C_Path_x3E__x5F_1_x5F_0"  width="119.2" height="60.4" y="-60.4" transform="matrix(1 0 0 -1 26.25 22.25)" style="overflow:visible;opacity:0.1992;enable-background:new    ;"/>
			
				<use xlink:href="#FlashAICB_x2F_Layer_1_x2F__x3C_Path_x3E__x5F_2"  width="119.2" height="66.384" y="-66.384" transform="matrix(1 0 0 -1 26.25 22.25)" style="overflow:visible;opacity:0.1211;enable-background:new    ;"/>
		</g>
	</g>
</g>
</svg>
