<?xml version="1.0" encoding="iso-8859-1"?>
<!-- Generator: Adobe Illustrator 15.1.0, SVG Export Plug-In . SVG Version: 6.00 Build 0)  -->
<!DOCTYPE svg PUBLIC "-//W3C//DTD SVG 1.1//EN" "http://www.w3.org/Graphics/SVG/1.1/DTD/svg11.dtd">
<svg version="1.1" id="FlashAICB" xmlns="http://www.w3.org/2000/svg" xmlns:xlink="http://www.w3.org/1999/xlink" x="0px" y="0px"
	 width="170.7px" height="171.25px" viewBox="0 0 170.7 171.25" style="enable-background:new 0 0 170.7 171.25;"
	 xml:space="preserve">
<symbol  id="FlashAICB_x5F_0_x2F_DONT_TOUCH_x21__x2F__x3C_Path_x3E_" viewBox="0 -61.344 110.05 61.344">
	<g id="Layer_1_5_">
		<path style="fill-rule:evenodd;clip-rule:evenodd;fill:#FFFFFF;" d="M106.5-34.4c2.367-5.633,3.55-10.934,3.55-15.9
			c0-4.967-1.45-8.083-4.35-9.35c-2.333-1.067-6.25-1.067-11.75,0c-7.267,1.767-13.1,3.117-17.5,4.05c-8,1.7-15.133,2.55-21.4,2.55
			c-6.333,0-13.483-0.917-21.45-2.75c-8.333-2.2-14.15-3.684-17.45-4.45c-5.566-1.267-9.5-1.433-11.8-0.5
			C1.45-59.55,0-56.483,0-51.55c0,5.5,1.167,11.167,3.5,17c2.5,6.167,5.983,11.733,10.45,16.7C24.683-5.95,38.383,0,55.05,0
			c16.434,0,30.1-6,41-18C100.517-22.9,104-28.367,106.5-34.4z"/>
	</g>
</symbol>
<symbol  id="FlashAICB_x5F_0_x2F_DONT_TOUCH_x21__x2F__x3C_Path_x3E__x5F_1" viewBox="0 -55.8 110.05 55.8">
	<g id="Layer_1_4_">
		
			<linearGradient id="SVGID_1_" gradientUnits="userSpaceOnUse" x1="16165.3076" y1="-53.8804" x2="16221.0527" y2="-53.8804" gradientTransform="matrix(1.792918e-005 1 -1 -0.001 0.8545 -16221.1064)">
			<stop  offset="0.1294" style="stop-color:#E5B9B2"/>
			<stop  offset="0.9255" style="stop-color:#FFFFFF"/>
		</linearGradient>
		<path style="fill-rule:evenodd;clip-rule:evenodd;fill:url(#SVGID_1_);" d="M96.05-18c4.467-4.9,7.95-10.367,10.45-16.4
			c2.367-5.633,3.55-10.934,3.55-15.9c0-1.567-0.167-3.05-0.5-4.45c-1.867,11.067-7.267,20.9-16.2,29.5
			c-10.533,10.133-23.3,15.2-38.3,15.2c-15.267,0-28.117-5.067-38.55-15.2C7.533-33.95,2.183-44.133,0.45-55.8
			C0.15-54.6,0-53.183,0-51.55c0,5.5,1.167,11.167,3.5,17c2.5,6.167,5.983,11.733,10.45,16.7C24.683-5.95,38.383,0,55.05,0
			C71.483,0,85.15-6,96.05-18z"/>
	</g>
</symbol>
<symbol  id="FlashAICB_x5F_0_x2F_DONT_TOUCH_x21__x2F__x3C_Path_x3E__x5F_2" viewBox="0 -57.1 118.7 57.1">
	<g id="Layer_1_3_">
		
			<radialGradient id="SVGID_2_" cx="59.3501" cy="-28.5498" r="46.5701" gradientTransform="matrix(1 0 0 -1 0 -57.0996)" gradientUnits="userSpaceOnUse">
			<stop  offset="0" style="stop-color:#000000;stop-opacity:0"/>
			<stop  offset="0.651" style="stop-color:#000000;stop-opacity:0.4"/>
		</radialGradient>
		<path style="fill-rule:evenodd;clip-rule:evenodd;fill:url(#SVGID_2_);" d="M95.5-30.35c10.733,7.7,18.3,17.733,22.7,30.1L118.7,0
			c-0.567-15.867-6.6-29.35-18.1-40.45C89.1-51.55,75.333-57.1,59.3-57.1c-15.7,0-29.267,5.367-40.7,16.1
			C7.233-30.3,1.033-17.183,0-1.65c4.633-12,12.217-21.7,22.75-29.1c10.833-7.567,22.867-11.35,36.1-11.35
			C72.35-42.1,84.567-38.183,95.5-30.35z"/>
	</g>
</symbol>
<symbol  id="FlashAICB_x5F_1_x2F_Layer_35_copy_8_x2F__x3C_Clip_Group_0_x3E_" viewBox="0 -118.7 118.9 118.7">
	<g id="Layer_1_6_">
	</g>
	<g>
		<defs>
			<path id="SVGID_3_" d="M101.5-17.4C89.867-5.8,75.85,0,59.45,0C43.017,0,29-5.8,17.4-17.4S0-42.983,0-59.35S5.8-89.7,17.4-101.3
				c11.6-11.6,25.617-17.4,42.05-17.4c16.4,0,30.417,5.8,42.05,17.4c11.6,11.6,17.4,25.583,17.4,41.95S113.1-29,101.5-17.4z"/>
		</defs>
		<clipPath id="SVGID_4_">
			<use xlink:href="#SVGID_3_"  style="overflow:visible;"/>
		</clipPath>
		<g id="Layer_3_1_" style="clip-path:url(#SVGID_4_);">
			
				<use xlink:href="#FlashAICB_x5F_1_x2F_Layer_35_copy_8_x2F__x3C_Path_x3E_"  width="118.9" height="118.7" y="-118.7" style="overflow:visible;opacity:0.9102;enable-background:new    ;"/>
		</g>
	</g>
	<g id="Layer_4_1_">
	</g>
</symbol>
<symbol  id="FlashAICB_x5F_1_x2F_Layer_35_copy_8_x2F__x3C_Path_x3E_" viewBox="0 -118.7 118.9 118.7">
	<g id="Layer_1_2_">
		<radialGradient id="SVGID_5_" cx="59.4502" cy="-59.3501" r="59.3374" gradientUnits="userSpaceOnUse">
			<stop  offset="0.1412" style="stop-color:#89A5BB"/>
			<stop  offset="0.5569" style="stop-color:#6C83AE;stop-opacity:0.9725"/>
			<stop  offset="1" style="stop-color:#5162A1;stop-opacity:0.949"/>
		</radialGradient>
		<polygon style="fill-rule:evenodd;clip-rule:evenodd;fill:url(#SVGID_5_);" points="0,0 118.9,0 118.9,-118.7 0,-118.7 		"/>
	</g>
</symbol>
<g>
	<path style="fill-rule:evenodd;clip-rule:evenodd;fill:#68757B;" d="M145.7,25.85c7.866,7.9,13.967,16.95,18.3,27.15
		c4.467,10.567,6.7,21.633,6.7,33.2c0,11.566-2.233,22.633-6.7,33.2c-4.333,10.199-10.434,19.233-18.3,27.1
		c-7.9,7.9-16.95,14.017-27.15,18.35c-10.566,4.467-21.633,6.7-33.2,6.7c-11.566,0-22.633-2.233-33.2-6.7
		c-10.2-4.333-19.233-10.449-27.1-18.35c-7.9-7.866-14.017-16.9-18.35-27.1C2.233,108.833,0,97.767,0,86.2
		C0,74.633,2.233,63.567,6.7,53c4.333-10.2,10.45-19.25,18.35-27.15c7.867-7.867,16.9-13.967,27.1-18.3
		c10.567-4.466,21.633-6.7,33.2-6.7c11.567,0,22.634,2.233,33.2,6.7C128.75,11.883,137.8,17.983,145.7,25.85z"/>
	
		<linearGradient id="SVGID_6_" gradientUnits="userSpaceOnUse" x1="-172.1846" y1="85.375" x2="-1.5352" y2="85.375" gradientTransform="matrix(5.859089e-006 -1 1 -0.001 1.466054e-004 -4.747650e-005)">
		<stop  offset="0.0196" style="stop-color:#353746"/>
		<stop  offset="0.251" style="stop-color:#6C6E76;stop-opacity:0.6863"/>
		<stop  offset="0.4941" style="stop-color:#A1A3A3;stop-opacity:0.3922"/>
		<stop  offset="0.7098" style="stop-color:#C7C9C4;stop-opacity:0.1765"/>
		<stop  offset="0.8824" style="stop-color:#DEE1D9;stop-opacity:0.0471"/>
		<stop  offset="0.9882" style="stop-color:#E7E9E0;stop-opacity:0"/>
	</linearGradient>
	<path style="fill-rule:evenodd;clip-rule:evenodd;fill:url(#SVGID_6_);" d="M145.7,26.45c7.866,7.9,13.967,16.95,18.3,27.15
		c4.467,10.566,6.7,21.633,6.7,33.2s-2.233,22.634-6.7,33.2c-4.333,10.2-10.434,19.233-18.3,27.1
		c-7.9,7.867-16.95,13.967-27.15,18.301c-10.566,4.466-21.633,6.699-33.2,6.699c-11.566,0-22.633-2.233-33.2-6.699
		c-10.2-4.334-19.233-10.434-27.1-18.301c-7.866-7.866-13.966-16.899-18.3-27.1c-4.467-10.566-6.7-21.634-6.7-33.2
		s2.233-22.633,6.7-33.2c4.333-10.2,10.434-19.25,18.3-27.15c7.867-7.867,16.9-13.967,27.1-18.3c10.567-4.467,21.633-6.7,33.2-6.7
		c11.567,0,22.634,2.233,33.2,6.7C128.75,12.483,137.8,18.583,145.7,26.45z"/>
	<g>
		<g>
			
				<linearGradient id="SVGID_7_" gradientUnits="userSpaceOnUse" x1="-158.335" y1="85.376" x2="-14.1851" y2="85.376" gradientTransform="matrix(6.939625e-006 -1 1 -0.001 1.071970e-004 4.449275e-004)">
				<stop  offset="0" style="stop-color:#BCD1DF"/>
				<stop  offset="0.0235" style="stop-color:#BBCEDC;stop-opacity:0.9647"/>
				<stop  offset="0.2784" style="stop-color:#ABB0BF;stop-opacity:0.6353"/>
				<stop  offset="0.502" style="stop-color:#A19DAE;stop-opacity:0.4314"/>
				<stop  offset="0.6549" style="stop-color:#9E96A8;stop-opacity:0.3569"/>
				<stop  offset="1" style="stop-color:#403C5C"/>
			</linearGradient>
			<path style="fill-rule:evenodd;clip-rule:evenodd;fill:url(#SVGID_7_);" d="M151.75,58.15c3.8,8.934,5.7,18.283,5.7,28.05
				c0,9.767-1.9,19.116-5.7,28.05c-3.633,8.634-8.783,16.267-15.45,22.9c-6.633,6.633-14.267,11.783-22.899,15.449
				c-8.934,3.767-18.283,5.65-28.051,5.65c-9.766,0-19.116-1.884-28.05-5.65c-8.633-3.666-16.267-8.816-22.9-15.449
				c-6.633-6.634-11.783-14.267-15.45-22.9c-3.767-8.934-5.65-18.283-5.65-28.05c0-9.767,1.884-19.117,5.65-28.05
				c3.667-8.633,8.816-16.267,15.45-22.9c6.633-6.667,14.267-11.833,22.9-15.5c8.934-3.767,18.284-5.65,28.05-5.65
				c9.768,0,19.117,1.9,28.051,5.7c8.633,3.633,16.267,8.784,22.899,15.45C142.967,41.883,148.117,49.517,151.75,58.15z"/>
		</g>
	</g>
	<g>
		
			<linearGradient id="SVGID_8_" gradientUnits="userSpaceOnUse" x1="-152.1846" y1="85.376" x2="-20.4351" y2="85.376" gradientTransform="matrix(7.590133e-006 -1 1 -0.001 9.770805e-006 4.449275e-004)">
			<stop  offset="0.098" style="stop-color:#253457"/>
			<stop  offset="0.3961" style="stop-color:#37568A"/>
			<stop  offset="0.5529" style="stop-color:#3E649F"/>
			<stop  offset="0.9686" style="stop-color:#AAA1B4"/>
		</linearGradient>
		<path style="fill-rule:evenodd;clip-rule:evenodd;fill:url(#SVGID_8_);" d="M131.95,132.8c-12.9,12.867-28.434,19.3-46.601,19.3
			c-18.133,0-33.649-6.433-46.55-19.3c-12.866-12.866-19.3-28.383-19.3-46.55c0-18.167,6.434-33.7,19.3-46.6
			c12.867-12.867,28.384-19.3,46.55-19.3c18.167,0,33.7,6.433,46.601,19.3c12.866,12.9,19.3,28.434,19.3,46.6
			C151.25,104.417,144.816,119.934,131.95,132.8z"/>
		<path style="fill-rule:evenodd;clip-rule:evenodd;fill:#111838;" d="M131.35,132.25c12.7-12.7,19.051-28.033,19.051-46
			s-6.351-33.3-19.051-46c-12.699-12.7-28.033-19.05-46-19.05c-17.966,0-33.3,6.35-46,19.05c-12.7,12.7-19.05,28.033-19.05,46
			s6.35,33.3,19.05,46c12.733,12.7,28.066,19.05,46,19.05C103.316,151.3,118.65,144.95,131.35,132.25z M132.55,39.1
			c6.3,6.267,11.134,13.467,14.5,21.6c3.334,8.1,5,16.617,5,25.55c0,8.9-1.666,17.417-5,25.55c-3.366,8.101-8.2,15.3-14.5,21.601
			c-6.3,6.3-13.517,11.133-21.649,14.5c-8.101,3.366-16.617,5.05-25.551,5.05c-8.899,0-17.399-1.684-25.5-5.05
			c-8.133-3.367-15.35-8.2-21.65-14.5c-6.3-6.301-11.133-13.5-14.5-21.601c-3.367-8.133-5.05-16.649-5.05-25.55
			c0-8.933,1.684-17.45,5.05-25.55c3.367-8.133,8.2-15.333,14.5-21.6c6.3-6.3,13.517-11.133,21.65-14.5
			c8.1-3.367,16.6-5.05,25.5-5.05c8.934,0,17.45,1.684,25.551,5.05C119.033,27.967,126.25,32.8,132.55,39.1z"/>
	</g>
</g>
<use xlink:href="#FlashAICB_x5F_1_x2F_Layer_35_copy_8_x2F__x3C_Clip_Group_0_x3E_"  width="118.9" height="118.7" y="-118.7" transform="matrix(1 0 0 -1 25.7002 26.6499)" style="overflow:visible;"/>
<g>
	<path style="fill-rule:evenodd;clip-rule:evenodd;fill:#BEC4F0;" d="M99.245,36.97c-0.66,0-1.185-0.225-1.575-0.675
		c-0.329-0.39-0.495-0.87-0.495-1.439c0-0.57,0.181-1.05,0.54-1.44c0.39-0.45,0.899-0.675,1.53-0.675h4.364
		c0.63,0,1.141,0.21,1.529,0.63c0.36,0.39,0.541,0.9,0.541,1.53v17.412c0,0.75-0.226,1.335-0.676,1.755
		c-0.42,0.42-0.96,0.63-1.619,0.63c-0.69,0-1.245-0.21-1.665-0.63c-0.42-0.42-0.63-1.005-0.63-1.755V36.97H99.245z"/>
	
		<linearGradient id="SVGID_9_" gradientUnits="userSpaceOnUse" x1="-288.7964" y1="2658.9863" x2="-263.8214" y2="2658.9863" gradientTransform="matrix(3.603152e-005 -0.8999 0.8999 -8.998871e-004 -2291.3501 -202.849)">
		<stop  offset="0.2824" style="stop-color:#00102C"/>
		<stop  offset="0.3961" style="stop-color:#00153D"/>
		<stop  offset="0.8039" style="stop-color:#002474"/>
		<stop  offset="1" style="stop-color:#002A8A"/>
	</linearGradient>
	<path style="fill-rule:evenodd;clip-rule:evenodd;fill:url(#SVGID_9_);" d="M99.245,35.935c-0.66,0-1.185-0.225-1.575-0.675
		c-0.329-0.389-0.495-0.869-0.495-1.439s0.181-1.05,0.54-1.439c0.39-0.45,0.899-0.675,1.53-0.675h4.364
		c0.63,0,1.141,0.21,1.529,0.629c0.36,0.39,0.541,0.9,0.541,1.53v17.413c0,0.75-0.226,1.335-0.676,1.754
		c-0.42,0.42-0.96,0.63-1.619,0.63c-0.69,0-1.245-0.21-1.665-0.63c-0.42-0.419-0.63-1.004-0.63-1.754V35.935H99.245z"/>
</g>
<g>
	<path style="fill-rule:evenodd;clip-rule:evenodd;fill:#BEC4F0;" d="M66.309,41.244c-0.72,0-1.275-0.225-1.665-0.675
		c-0.39-0.42-0.584-0.945-0.584-1.575c0-1.889,0.735-3.525,2.205-4.904c1.409-1.35,3.074-2.025,4.994-2.025
		c1.919,0,3.525,0.57,4.814,1.71c1.32,1.199,1.98,2.759,1.98,4.679c0,1.769-0.9,3.84-2.7,6.209c-2.25,2.61-3.81,4.455-4.68,5.535
		h5.625c1.589,0,2.385,0.66,2.385,1.98c0,1.35-0.735,2.024-2.205,2.024H66.265c-1.591,0-2.385-0.675-2.385-2.024
		c0-0.42,0.225-0.931,0.675-1.53c0.87-0.99,2.175-2.475,3.914-4.455c1.53-1.77,2.775-3.33,3.735-4.68c0.72-1.08,1.08-2.04,1.08-2.88
		c0-0.629-0.21-1.169-0.63-1.62c-0.42-0.479-0.945-0.72-1.575-0.72c-1.23,0-2.1,0.825-2.61,2.475
		C67.959,40.419,67.239,41.244,66.309,41.244z"/>
	
		<linearGradient id="SVGID_10_" gradientUnits="userSpaceOnUse" x1="-287.9629" y1="2625.4863" x2="-262.9879" y2="2625.4863" gradientTransform="matrix(3.603152e-005 -0.8999 0.8999 -8.998871e-004 -2291.3501 -202.3998)">
		<stop  offset="0.2824" style="stop-color:#00102C"/>
		<stop  offset="0.3961" style="stop-color:#00153D"/>
		<stop  offset="0.8039" style="stop-color:#002474"/>
		<stop  offset="1" style="stop-color:#002A8A"/>
	</linearGradient>
	<path style="fill-rule:evenodd;clip-rule:evenodd;fill:url(#SVGID_10_);" d="M66.309,40.209c-0.72,0-1.275-0.225-1.665-0.675
		c-0.39-0.389-0.584-0.9-0.584-1.529c0-1.92,0.735-3.57,2.205-4.95c1.409-1.35,3.074-2.024,4.994-2.024
		c1.919,0,3.525,0.584,4.814,1.754c1.32,1.201,1.98,2.746,1.98,4.635c0,1.77-0.9,3.839-2.7,6.209c-2.25,2.609-3.81,4.454-4.68,5.534
		h5.625c1.589,0,2.385,0.675,2.385,2.024c0,0.66-0.225,1.17-0.675,1.53c-0.39,0.33-0.9,0.495-1.53,0.495H66.265
		c-1.591,0-2.385-0.675-2.385-2.025c0-0.45,0.225-0.975,0.675-1.575c0.87-0.99,2.175-2.46,3.914-4.409
		c1.53-1.77,2.775-3.345,3.735-4.725c0.72-1.08,1.08-2.025,1.08-2.835c0-0.63-0.21-1.185-0.63-1.665
		c-0.42-0.48-0.945-0.721-1.575-0.721c-1.23,0-2.1,0.825-2.61,2.475C67.959,39.384,67.239,40.209,66.309,40.209z"/>
</g>
<g>
	<path style="fill-rule:evenodd;clip-rule:evenodd;fill:#BEC4F0;" d="M83.902,33.145c0.331-0.39,0.87-0.585,1.62-0.585H92.9
		c0.69,0,1.23,0.195,1.62,0.585c0.39,0.33,0.585,0.779,0.585,1.35c0,1.53-0.705,2.294-2.115,2.294h-5.759l-0.45,3.24
		c0.96-0.18,1.726-0.271,2.295-0.271c1.83,0,3.345,0.63,4.544,1.89c1.17,1.26,1.755,2.79,1.755,4.589
		c0,2.61-0.689,4.665-2.069,6.165c-1.41,1.56-3.419,2.339-6.029,2.339c-1.35,0-2.729-0.345-4.139-1.035
		c-1.71-0.839-2.565-1.859-2.565-3.059c0-0.57,0.21-1.065,0.63-1.485c0.39-0.42,0.87-0.63,1.439-0.63c0.331,0,1.021,0.331,2.07,0.99
		c1.02,0.66,1.904,0.99,2.654,0.99c1.021,0,1.829-0.42,2.43-1.259c0.54-0.78,0.811-1.695,0.811-2.746c0-0.93-0.255-1.679-0.766-2.25
		c-0.51-0.569-1.229-0.854-2.159-0.854c-0.63,0-1.261,0.179-1.891,0.54c-0.659,0.33-1.229,0.495-1.709,0.495
		c-0.541,0-0.99-0.18-1.35-0.54c-0.3-0.301-0.45-0.6-0.45-0.9l0.855-7.515C83.287,34.315,83.542,33.535,83.902,33.145z"/>
	
		<linearGradient id="SVGID_11_" gradientUnits="userSpaceOnUse" x1="-288.144" y1="2644.0352" x2="-263.144" y2="2644.0352" gradientTransform="matrix(3.599549e-005 -0.8999 0.8999 -8.998871e-004 -2291.3503 -202.3998)">
		<stop  offset="0.2824" style="stop-color:#00102C"/>
		<stop  offset="0.3961" style="stop-color:#00153D"/>
		<stop  offset="0.8039" style="stop-color:#002474"/>
		<stop  offset="1" style="stop-color:#002A8A"/>
	</linearGradient>
	<path style="fill-rule:evenodd;clip-rule:evenodd;fill:url(#SVGID_11_);" d="M83.137,34.45c0.149-1.17,0.404-1.95,0.765-2.34
		c0.3-0.359,0.84-0.54,1.62-0.54H92.9c0.69,0,1.23,0.18,1.62,0.54c0.39,0.36,0.585,0.825,0.585,1.396
		c0,1.529-0.705,2.294-2.115,2.294h-5.759l-0.45,3.239c0.84-0.21,1.605-0.314,2.295-0.314c1.83,0,3.345,0.645,4.544,1.934
		c1.17,1.23,1.755,2.76,1.755,4.59c0,2.609-0.689,4.649-2.069,6.119c-1.41,1.56-3.419,2.339-6.029,2.339
		c-1.35,0-2.729-0.344-4.139-1.034c-1.71-0.84-2.565-1.859-2.565-3.06c0-0.569,0.21-1.049,0.63-1.439
		c0.39-0.42,0.87-0.63,1.439-0.63c0.331,0,1.021,0.329,2.07,0.989c1.02,0.63,1.904,0.946,2.654,0.946c1.021,0,1.829-0.42,2.43-1.26
		c0.54-0.78,0.811-1.695,0.811-2.745c0-0.93-0.255-1.68-0.766-2.25c-0.51-0.57-1.229-0.855-2.159-0.855
		c-0.63,0-1.261,0.18-1.891,0.54c-0.659,0.33-1.229,0.496-1.709,0.496c-0.541,0-0.99-0.166-1.35-0.496
		c-0.3-0.3-0.45-0.614-0.45-0.945L83.137,34.45z"/>
</g>
<g>
	
		<use xlink:href="#FlashAICB_x5F_0_x2F_DONT_TOUCH_x21__x2F__x3C_Path_x3E__x5F_2"  width="118.7" height="57.1" y="-57.1" transform="matrix(1 0 0 -1 25.3501 88.1504)" style="overflow:visible;opacity:0.2813;enable-background:new    ;"/>
	
		<use xlink:href="#FlashAICB_x5F_0_x2F_DONT_TOUCH_x21__x2F__x3C_Path_x3E__x5F_1"  width="110.05" height="55.8" y="-55.8" transform="matrix(1 0 0 -1 29.5 29.2998)" style="overflow:visible;opacity:0.1094;enable-background:new    ;"/>
	
		<use xlink:href="#FlashAICB_x5F_0_x2F_DONT_TOUCH_x21__x2F__x3C_Path_x3E_"  width="110.05" height="61.344" y="-61.344" transform="matrix(1 0 0 -1 29.5 29.2998)" style="overflow:visible;opacity:0.0898;enable-background:new    ;"/>
</g>
<g>
	<g>
		<g>
			<g>
				<g>
					<g>
						<g>
							
								<linearGradient id="SVGID_12_" gradientUnits="userSpaceOnUse" x1="-29.3223" y1="70.251" x2="-13.1099" y2="70.251" gradientTransform="matrix(0.4564 -0.8898 0.8898 0.4564 3.211200e-004 -4.506707e-004)">
								<stop  offset="0" style="stop-color:#26313D"/>
								<stop  offset="0.2196" style="stop-color:#3E4C5E"/>
								<stop  offset="0.702" style="stop-color:#7A90B1"/>
								<stop  offset="1" style="stop-color:#A2BCE7"/>
							</linearGradient>
							<path style="fill-rule:evenodd;clip-rule:evenodd;fill:url(#SVGID_12_);" d="M56.65,43.8c1.367,0.767,2.017,1.9,1.95,3.4
								l-0.05,1.25l1,0.7c1.233,0.9,1.717,2.133,1.45,3.7c-0.167,0.8-0.533,1.467-1.1,2c-0.466,0.467-0.983,0.767-1.55,0.9
								l-1.2,0.35l-0.35,1.1c-0.2,0.633-0.533,1.15-1,1.55c-0.566,0.567-1.25,0.9-2.05,1l-0.6,0.05c-0.533,0-1.066-0.133-1.6-0.4
								c-0.533-0.267-1-0.683-1.4-1.25l-0.7-1.05H48.2c-0.7,0-1.35-0.2-1.95-0.6c-0.6-0.367-1.05-0.867-1.35-1.5
								c-0.667-1.4-0.517-2.717,0.45-3.95l0.75-0.95l-0.4-1.15c-0.2-0.667-0.2-1.35,0-2.05c0.167-0.7,0.5-1.3,1-1.8
								c0.767-0.733,1.667-1.067,2.7-1c0.267,0,0.667,0.066,1.2,0.2l1.1,0.45l1-0.7c0.6-0.466,1.35-0.7,2.25-0.7
								c0.566,0,1.116,0.133,1.65,0.4L56.65,43.8z"/>
							
								<path style="fill-rule:evenodd;clip-rule:evenodd;fill:none;stroke:#D1DEEF;stroke-width:0.25;stroke-linejoin:round;stroke-miterlimit:3;" d="
								M56.65,43.8c1.367,0.767,2.017,1.9,1.95,3.4l-0.05,1.25l1,0.7c1.233,0.9,1.717,2.133,1.45,3.7c-0.167,0.8-0.533,1.467-1.1,2
								c-0.466,0.467-0.983,0.767-1.55,0.9l-1.2,0.35l-0.35,1.1c-0.2,0.633-0.533,1.15-1,1.55c-0.566,0.567-1.25,0.9-2.05,1
								l-0.6,0.05c-0.533,0-1.066-0.133-1.6-0.4c-0.533-0.267-1-0.683-1.4-1.25l-0.7-1.05H48.2c-0.7,0-1.35-0.2-1.95-0.6
								c-0.6-0.367-1.05-0.867-1.35-1.5c-0.667-1.4-0.517-2.717,0.45-3.95l0.75-0.95l-0.4-1.15c-0.2-0.667-0.2-1.35,0-2.05
								c0.167-0.7,0.5-1.3,1-1.8c0.767-0.733,1.667-1.067,2.7-1c0.267,0,0.667,0.066,1.2,0.2l1.1,0.45l1-0.7
								c0.6-0.466,1.35-0.7,2.25-0.7c0.566,0,1.116,0.133,1.65,0.4L56.65,43.8z"/>
						</g>
					</g>
					<path style="fill-rule:evenodd;clip-rule:evenodd;fill:#111838;" d="M56.4,49.45l1.9,1.4c0.5,0.4,0.7,0.933,0.6,1.6
						c-0.033,0.367-0.183,0.667-0.45,0.9c-0.267,0.2-0.5,0.316-0.7,0.35l-2.25,0.65l-0.75,2.2c-0.066,0.267-0.2,0.483-0.4,0.65
						c-0.233,0.267-0.534,0.417-0.9,0.45c-0.634,0.1-1.15-0.133-1.55-0.7L50.6,55h-2.35c-0.667-0.067-1.133-0.383-1.4-0.95
						c-0.3-0.566-0.25-1.117,0.15-1.65l1.45-1.85l-0.7-2.25c-0.2-0.6-0.05-1.15,0.45-1.65c0.466-0.467,1.017-0.583,1.65-0.35
						l2.2,0.8l1.9-1.35c0.5-0.4,1.066-0.433,1.7-0.1c0.567,0.3,0.85,0.8,0.85,1.5L56.4,49.45z"/>
					
						<linearGradient id="SVGID_13_" gradientUnits="userSpaceOnUse" x1="-26.4688" y1="70.2354" x2="-16.0482" y2="70.2354" gradientTransform="matrix(0.4558 -0.8901 0.8901 0.4558 -2.523661e-004 -4.700422e-004)">
						<stop  offset="0.0235" style="stop-color:#808080"/>
						<stop  offset="0.7294" style="stop-color:#E6E6E6"/>
						<stop  offset="1" style="stop-color:#B3B3B3"/>
					</linearGradient>
					<path style="fill-rule:evenodd;clip-rule:evenodd;fill:url(#SVGID_13_);" d="M55.3,46.3c0.3,0.2,0.45,0.467,0.45,0.8l-0.1,2.75
						l2.2,1.6c0.267,0.2,0.367,0.483,0.3,0.85c0,0.167-0.083,0.333-0.25,0.5L57.55,53l-2.6,0.75l-0.9,2.55
						c-0.066,0.2-0.133,0.317-0.2,0.35c-0.167,0.167-0.333,0.25-0.5,0.25c-0.367,0.067-0.633-0.05-0.8-0.35L51,54.25h-2.75
						c-0.333,0-0.583-0.167-0.75-0.5s-0.133-0.633,0.1-0.9l1.7-2.15l-0.85-2.6c-0.067-0.367,0.017-0.667,0.25-0.9
						c0.3-0.233,0.6-0.3,0.9-0.2l2.55,0.95l2.25-1.55C54.667,46.167,54.967,46.133,55.3,46.3z"/>
					<path style="fill-rule:evenodd;clip-rule:evenodd;fill:#FFFFFF;" d="M52.15,47.95l0.95-0.65l-1.45,1.05L49.1,47.4
						c-0.2-0.033-0.367-0.033-0.5,0l0.1-0.2c0.3-0.233,0.6-0.3,0.9-0.2L52.15,47.95z M55.3,46.3c0.3,0.2,0.45,0.467,0.45,0.8
						l-0.1,2.75l2.2,1.6c0.267,0.2,0.367,0.483,0.3,0.85c0,0.167-0.083,0.333-0.25,0.5L57.55,53l0.1-0.3
						c0.067-0.367-0.05-0.65-0.35-0.85l-2.15-1.6l0.1-2.75c0-0.367-0.15-0.633-0.45-0.8c-0.239-0.12-0.522-0.12-0.85,0l0.45-0.3
						C54.667,46.167,54.967,46.133,55.3,46.3z"/>
				</g>
			</g>
		</g>
	</g>
	<g>
		<g>
			<g>
				<g>
					<g>
						<g>
							<linearGradient id="SVGID_14_" gradientUnits="userSpaceOnUse" x1="112.9189" y1="43.7124" x2="120.3189" y2="58.1374">
								<stop  offset="0" style="stop-color:#26313D"/>
								<stop  offset="0.2196" style="stop-color:#3E4C5E"/>
								<stop  offset="0.702" style="stop-color:#7A90B1"/>
								<stop  offset="1" style="stop-color:#A2BCE7"/>
							</linearGradient>
							<path style="fill-rule:evenodd;clip-rule:evenodd;fill:url(#SVGID_14_);" d="M124.5,55c-0.667,1.4-1.75,2.1-3.25,2.1H120
								l-0.7,1.05c-0.366,0.533-0.833,0.95-1.399,1.25c-0.534,0.267-1.067,0.4-1.601,0.4l-0.6-0.05c-0.767-0.1-1.467-0.433-2.101-1
								c-0.399-0.367-0.716-0.883-0.949-1.55l-0.4-1.1l-1.15-0.35c-0.633-0.167-1.149-0.467-1.55-0.9c-0.566-0.533-0.934-1.2-1.1-2
								c-0.267-1.567,0.217-2.8,1.45-3.7l0.949-0.7l-0.05-1.25c-0.066-1.5,0.584-2.633,1.95-3.4l0.1-0.05
								c0.534-0.267,1.067-0.4,1.601-0.4c0.934,0,1.7,0.233,2.3,0.7l0.95,0.7l1.149-0.45c0.534-0.133,0.934-0.2,1.2-0.2
								c0.967-0.033,1.867,0.3,2.7,1c0.5,0.5,0.833,1.1,1,1.8c0.2,0.7,0.184,1.383-0.05,2.05l-0.351,1.15l0.75,0.95
								C125.066,52.283,125.2,53.6,124.5,55z"/>
							
								<path style="fill-rule:evenodd;clip-rule:evenodd;fill:none;stroke:#D1DEEF;stroke-width:0.25;stroke-linejoin:round;stroke-miterlimit:3;" d="
								M124.5,55c-0.667,1.4-1.75,2.1-3.25,2.1H120l-0.7,1.05c-0.366,0.533-0.833,0.95-1.399,1.25c-0.534,0.267-1.067,0.4-1.601,0.4
								l-0.6-0.05c-0.767-0.1-1.467-0.433-2.101-1c-0.399-0.367-0.716-0.883-0.949-1.55l-0.4-1.1l-1.15-0.35
								c-0.633-0.167-1.149-0.467-1.55-0.9c-0.566-0.533-0.934-1.2-1.1-2c-0.267-1.567,0.217-2.8,1.45-3.7l0.949-0.7l-0.05-1.25
								c-0.066-1.5,0.584-2.633,1.95-3.4l0.1-0.05c0.534-0.267,1.067-0.4,1.601-0.4c0.934,0,1.7,0.233,2.3,0.7l0.95,0.7l1.149-0.45
								c0.534-0.133,0.934-0.2,1.2-0.2c0.967-0.033,1.867,0.3,2.7,1c0.5,0.5,0.833,1.1,1,1.8c0.2,0.7,0.184,1.383-0.05,2.05
								l-0.351,1.15l0.75,0.95C125.066,52.283,125.2,53.6,124.5,55z"/>
						</g>
					</g>
					<path style="fill-rule:evenodd;clip-rule:evenodd;fill:#111838;" d="M122.6,54.05c-0.267,0.567-0.733,0.883-1.399,0.95h-2.351
						l-1.3,1.95c-0.399,0.566-0.916,0.8-1.55,0.7c-0.333-0.033-0.634-0.183-0.9-0.45c-0.166-0.133-0.316-0.35-0.449-0.65l-0.75-2.2
						l-2.25-0.65L111,53.35c-0.233-0.233-0.384-0.533-0.45-0.9c-0.166-0.633,0.033-1.167,0.601-1.6l1.899-1.4l-0.1-2.3
						c-0.033-0.667,0.25-1.167,0.85-1.5c0.601-0.3,1.167-0.267,1.7,0.1l1.9,1.35l2.199-0.8c0.601-0.2,1.15-0.083,1.65,0.35
						c0.467,0.467,0.616,1.017,0.45,1.65l-0.7,2.25l1.4,1.85C122.866,52.9,122.934,53.45,122.6,54.05z"/>
					<linearGradient id="SVGID_15_" gradientUnits="userSpaceOnUse" x1="121.2471" y1="53.3398" x2="111.7471" y2="49.0148">
						<stop  offset="0.0235" style="stop-color:#808080"/>
						<stop  offset="0.7294" style="stop-color:#E6E6E6"/>
						<stop  offset="1" style="stop-color:#B3B3B3"/>
					</linearGradient>
					<path style="fill-rule:evenodd;clip-rule:evenodd;fill:url(#SVGID_15_);" d="M119.85,47c0.301-0.1,0.601-0.033,0.9,0.2
						c0.233,0.267,0.3,0.566,0.2,0.9l-0.8,2.6l1.699,2.15c0.2,0.233,0.233,0.533,0.101,0.9c-0.167,0.333-0.434,0.5-0.8,0.5h-2.7
						l-1.55,2.3c-0.233,0.3-0.5,0.417-0.801,0.35c-0.166,0-0.333-0.083-0.5-0.25c-0.133-0.066-0.199-0.183-0.199-0.35l-0.9-2.55
						L111.9,53l-0.4-0.2l-0.25-0.5c-0.066-0.333,0.05-0.617,0.35-0.85l2.2-1.6l-0.1-2.75c0-0.333,0.149-0.6,0.45-0.8
						c0.333-0.167,0.633-0.133,0.899,0.1l2.25,1.55L119.85,47z"/>
					<path style="fill-rule:evenodd;clip-rule:evenodd;fill:#FFFFFF;" d="M120.35,47.4l-2.55,0.95l-1.825-1.3l1.325,0.9l2.55-0.95
						c0.301-0.1,0.601-0.033,0.9,0.2l0.1,0.2C120.684,47.333,120.517,47.333,120.35,47.4z M114.3,50.25l-2.2,1.6
						c-0.3,0.233-0.399,0.517-0.3,0.85L111.9,53l-0.4-0.2l-0.25-0.5c-0.066-0.333,0.05-0.617,0.35-0.85l2.2-1.6l-0.1-2.75
						c0-0.333,0.149-0.6,0.45-0.8c0.333-0.167,0.633-0.133,0.899,0.1l0.5,0.35c-0.3-0.167-0.6-0.183-0.899-0.05
						c-0.301,0.167-0.45,0.433-0.45,0.8L114.3,50.25z"/>
				</g>
			</g>
		</g>
	</g>
</g>
<g>
	<path style="fill-rule:evenodd;clip-rule:evenodd;fill:#D1DEEF;" d="M76.95,70.5c0-0.533,0.083-0.967,0.25-1.3v-1.85
		c0-1.133,0.4-2.083,1.2-2.85c0.767-0.8,1.7-1.2,2.8-1.2h5.2c1,0,1.883,0.333,2.649,1h20c1.8,0,3.367,0.617,4.7,1.85l4.95,4.7
		c1,0.933,1.5,2.05,1.5,3.35c0,1.333-0.5,2.466-1.5,3.4l-4.95,4.65c-1.333,1.267-2.9,1.9-4.7,1.9H90.9
		c-0.034,0.4-0.167,0.783-0.4,1.15l0.25,0.55h18.3c0.833,0,1.684,0.167,2.55,0.5c0.867,0.367,1.584,0.834,2.15,1.4l4.95,4.65
		c1,0.933,1.5,2.066,1.5,3.399c0,1.334-0.5,2.45-1.5,3.351l-4.95,4.699c-1.333,1.233-2.9,1.851-4.7,1.851h-18.6v15.7
		c0.3,0.199,0.566,0.517,0.8,0.949c0.267,0.4,0.417,0.801,0.45,1.2l0.05,0.15c0.667,1.166,0.583,2.383-0.25,3.649l1.45,0.9l0.1,0.05
		c0.634,0.367,1.351,0.9,2.15,1.601c1.066,1,1.55,2.216,1.45,3.649c0,1.101-0.4,2.217-1.2,3.351l-1.65,2.149v0.05l-0.1,0.101
		l-0.2,0.3v0.05h-0.05l-0.7,0.8l-0.8,0.65l-0.4,0.2c-0.566,0.333-1.116,0.55-1.649,0.649L89.3,141.95L86.85,142l-1.25-0.1l-1.45,0.6
		c-0.8,0.233-1.467,0.35-2,0.35c-0.6,0-1.183-0.1-1.75-0.3l-2.85-1.2l-0.1-0.05L75,140.55l-0.25-0.1l-0.05-0.05l-0.15-0.051H74.5
		l-0.3-0.199l-0.05-0.051H74.1l-0.3-0.149l-0.1-0.101l-0.3-0.199l-0.05-0.051l-0.2-0.1l-0.2-0.15l-0.8-0.8l-0.2-0.25l-0.05-0.05
		v-0.05l-0.05-0.05l-0.55-0.9l-0.4-0.8c-0.467-1-0.433-1.983,0.1-2.95l0.75-1.35L71.9,132l0.05-0.15l0.65-0.899l0.05-0.05l0.5-0.601
		v-0.05l0.1-0.05l0.1-0.101c0.4-0.5,0.816-0.916,1.25-1.25l0.05-0.05l0.3-0.2l0.05-0.1l0.2-0.1l0.05-0.051
		c-0.067-0.399-0.083-0.699-0.05-0.899c0.066-1.167,0.566-2.033,1.5-2.601c-0.3-1-0.134-1.933,0.5-2.8V100.8
		c-0.167-0.333-0.25-0.767-0.25-1.3v-2.1c0-0.5,0.083-0.917,0.25-1.25v-0.7l-0.1-0.2H58.6c-0.833,0-1.684-0.167-2.55-0.5
		c-0.867-0.366-1.6-0.833-2.2-1.4L48.9,88.7c-0.967-0.9-1.45-2.033-1.45-3.4c0-1.367,0.483-2.483,1.45-3.35l4.95-4.7
		c1.333-1.233,2.917-1.85,4.75-1.85h18.35c0.066-0.333,0.15-0.617,0.25-0.85v-0.7c-0.167-0.333-0.25-0.75-0.25-1.25V70.5z"/>
</g>
<g>
	<g>
		
			<linearGradient id="SVGID_16_" gradientUnits="userSpaceOnUse" x1="-142.1812" y1="83.8262" x2="-62.4307" y2="83.8262" gradientTransform="matrix(1.253919e-005 -1 1 -0.001 9.267493e-005 4.449275e-004)">
			<stop  offset="0" style="stop-color:#26313D"/>
			<stop  offset="0.2196" style="stop-color:#3E4C5E"/>
			<stop  offset="0.702" style="stop-color:#7A90B1"/>
			<stop  offset="1" style="stop-color:#A2BCE7"/>
		</linearGradient>
		<path style="fill-rule:evenodd;clip-rule:evenodd;fill:url(#SVGID_16_);" d="M78.25,63.55c0.833-0.8,1.816-1.2,2.95-1.2h5.2
			c1.033,0,1.933,0.333,2.699,1h19.95c0.833,0,1.684,0.167,2.55,0.5c0.9,0.367,1.65,0.833,2.25,1.4l4.95,4.7
			c1,0.933,1.5,2.083,1.5,3.45s-0.5,2.517-1.5,3.45l-4.95,4.7c-0.6,0.567-1.35,1.017-2.25,1.35c-0.866,0.367-1.717,0.55-2.55,0.55
			H91c-0.033,0.233-0.15,0.583-0.35,1.05l0.199,0.4h18.2c0.833,0,1.684,0.184,2.55,0.55c0.9,0.333,1.65,0.783,2.25,1.35l4.95,4.7
			c1,0.934,1.5,2.083,1.5,3.45c0,1.366-0.5,2.517-1.5,3.45l-4.95,4.699c-0.6,0.567-1.35,1.034-2.25,1.4
			c-0.866,0.333-1.717,0.5-2.55,0.5h-18.5v15.5c0.333,0.3,0.601,0.616,0.8,0.95c0.267,0.399,0.417,0.816,0.45,1.25l0.05,0.1
			c0.634,1.167,0.567,2.4-0.199,3.7l1.35,0.8l0.1,0.05c0.867,0.567,1.584,1.117,2.15,1.65c1.1,0.967,1.6,2.217,1.5,3.75
			c0,1.066-0.4,2.2-1.2,3.4L93.9,138.3v0.05L93.8,138.45l-0.2,0.3l-0.75,0.85c-0.433,0.367-0.717,0.584-0.85,0.65l-0.4,0.25
			c-0.467,0.267-1.017,0.483-1.649,0.65L86.8,141.3l-1.2-0.1l-1.399,0.55c-0.667,0.233-1.35,0.35-2.05,0.35
			c-0.633,0-1.233-0.1-1.8-0.3l-2.85-1.149l-0.1-0.051c-0.5-0.133-1.25-0.366-2.25-0.699l-0.2-0.101l-0.3-0.1L74.5,139.6
			c-0.233-0.1-0.35-0.166-0.35-0.199L74,139.35l-0.25-0.149l-0.15-0.05l-1.15-0.95l-0.25-0.3l-0.15-0.101l-0.2-0.25l-0.1-0.2
			l-0.1-0.1l-0.5-0.8v-0.05l-0.35-0.75c-0.5-1.067-0.466-2.084,0.1-3.051l0.6-1.1l0.3-0.4l0.05-0.149l0.1-0.101l0.55-0.8l0.05-0.05
			l0.5-0.6l0.1-0.101l0.1-0.149l1.35-1.301l0.25-0.199l0.1-0.051l0.15-0.149l-0.05-0.851c0.1-1.133,0.6-2.017,1.5-2.649
			c-0.267-0.967-0.1-1.884,0.5-2.75V99.95c-0.167-0.4-0.25-0.816-0.25-1.25v-2.15c0-0.366,0.083-0.8,0.25-1.3v-0.7H58.6
			c-1.833,0-3.434-0.633-4.8-1.899l-4.95-4.7c-1-0.9-1.5-2.05-1.5-3.45c0-1.367,0.5-2.533,1.5-3.5l4.95-4.65
			c1.333-1.267,2.934-1.9,4.8-1.9h18.25l0.2-0.75v-0.65c-0.167-0.433-0.25-0.867-0.25-1.3v-2.1c0-0.433,0.083-0.867,0.25-1.3V66.5
			C77.05,65.367,77.45,64.383,78.25,63.55z"/>
		
			<path style="fill-rule:evenodd;clip-rule:evenodd;fill:none;stroke:#D1DEEF;stroke-width:0.25;stroke-linejoin:round;stroke-miterlimit:3;" d="
			M90.55,105v15.5c0.333,0.3,0.601,0.616,0.8,0.95c0.267,0.399,0.417,0.816,0.45,1.25l0.05,0.1c0.634,1.167,0.567,2.4-0.199,3.7
			l1.35,0.8l0.1,0.05c0.867,0.567,1.584,1.117,2.15,1.65c1.1,0.967,1.6,2.217,1.5,3.75c0,1.066-0.4,2.2-1.2,3.4L93.9,138.3v0.05
			L93.8,138.45l-0.2,0.3l-0.75,0.85c-0.433,0.367-0.717,0.584-0.85,0.65l-0.4,0.25c-0.467,0.267-1.017,0.483-1.649,0.65L86.8,141.3
			l-1.2-0.1l-1.399,0.55c-0.667,0.233-1.35,0.35-2.05,0.35c-0.633,0-1.233-0.1-1.8-0.3l-2.85-1.149l-0.1-0.051
			c-0.5-0.133-1.25-0.366-2.25-0.699l-0.2-0.101l-0.3-0.1L74.5,139.6c-0.233-0.1-0.35-0.166-0.35-0.199L74,139.35l-0.25-0.149
			l-0.15-0.05l-1.15-0.95l-0.25-0.3l-0.15-0.101l-0.2-0.25l-0.1-0.2l-0.1-0.1l-0.5-0.8v-0.05l-0.35-0.75
			c-0.5-1.067-0.466-2.084,0.1-3.051l0.6-1.1l0.3-0.4l0.05-0.149l0.1-0.101l0.55-0.8l0.05-0.05l0.5-0.6l0.1-0.101l0.1-0.149
			l1.35-1.301l0.25-0.199l0.1-0.051l0.15-0.149l-0.05-0.851c0.1-1.133,0.6-2.017,1.5-2.649c-0.267-0.967-0.1-1.884,0.5-2.75V99.95
			c-0.167-0.4-0.25-0.816-0.25-1.25v-2.15c0-0.366,0.083-0.8,0.25-1.3v-0.7H58.6c-1.833,0-3.434-0.633-4.8-1.899l-4.95-4.7
			c-1-0.9-1.5-2.05-1.5-3.45c0-1.367,0.5-2.533,1.5-3.5l4.95-4.65c1.333-1.267,2.934-1.9,4.8-1.9h18.25l0.2-0.75v-0.65
			c-0.167-0.433-0.25-0.867-0.25-1.3v-2.1c0-0.433,0.083-0.867,0.25-1.3V66.5c0-1.133,0.4-2.117,1.2-2.95
			c0.833-0.8,1.816-1.2,2.95-1.2h5.2c1.033,0,1.933,0.333,2.699,1h19.95c0.833,0,1.684,0.167,2.55,0.5
			c0.9,0.367,1.65,0.833,2.25,1.4l4.95,4.7c1,0.933,1.5,2.083,1.5,3.45s-0.5,2.517-1.5,3.45l-4.95,4.7
			c-0.6,0.567-1.35,1.017-2.25,1.35c-0.866,0.367-1.717,0.55-2.55,0.55H91c-0.033,0.233-0.15,0.583-0.35,1.05l0.199,0.4h18.2
			c0.833,0,1.684,0.184,2.55,0.55c0.9,0.333,1.65,0.783,2.25,1.35l4.95,4.7c1,0.934,1.5,2.083,1.5,3.45c0,1.366-0.5,2.517-1.5,3.45
			l-4.95,4.699c-0.6,0.567-1.35,1.034-2.25,1.4c-0.866,0.333-1.717,0.5-2.55,0.5"/>
	</g>
</g>
<path style="fill-rule:evenodd;clip-rule:evenodd;fill:#4A5C57;" d="M79.75,69.65c0-0.2,0.083-0.333,0.25-0.4V66.5
	c0-0.333,0.117-0.617,0.35-0.85s0.517-0.35,0.85-0.35h5.2c0.333,0,0.616,0.117,0.85,0.35s0.35,0.517,0.35,0.85v0.85
	c0.4-0.7,0.967-1.05,1.7-1.05h19.75c1.033,0,1.95,0.367,2.75,1.1l5,4.7c0.367,0.3,0.55,0.733,0.55,1.3c0,0.5-0.183,0.934-0.55,1.3
	l-5,4.7c-0.8,0.733-1.717,1.1-2.75,1.1H89.3c-0.733,0-1.3-0.35-1.7-1.05v0.8c0.334,0,0.5,0.167,0.5,0.5v2.1
	c0,0.333-0.166,0.5-0.5,0.5v2.3c0.334,0,0.5,0.15,0.5,0.45v2.25c0.334-0.333,0.733-0.5,1.2-0.5h19.75c1.033,0,1.95,0.367,2.75,1.101
	l5,4.7c0.367,0.366,0.55,0.8,0.55,1.3s-0.183,0.934-0.55,1.3l-5,4.7c-0.8,0.733-1.717,1.1-2.75,1.1H89.3c-0.733,0-1.3-0.35-1.7-1.05
	v22.1l0.301-0.3c0.166-0.1,0.333-0.149,0.5-0.149c0.166,0.066,0.3,0.166,0.399,0.3c0.134,0.166,0.117,0.483-0.05,0.95
	c0.233,0,0.4,0.1,0.5,0.3c0.133,0.233,0.066,0.533-0.2,0.899L89,125.15c-0.233,0.5-0.45,1.149-0.65,1.949l-0.25,1.051
	c0.767,0.199,1.517,0.533,2.25,1l1.2,0.699c0.667,0.434,1.25,0.884,1.75,1.351c0.4,0.333,0.566,0.8,0.5,1.399
	c0,0.601-0.233,1.233-0.7,1.9v0.05l-1.449,1.8l-0.25,0.45l-0.15,0.101v0.05L91.2,137l-0.2,0.25l-0.05,0.1L90.85,137.4L90.4,137.8
	l-0.15,0.05c-0.333,0.233-0.65,0.367-0.95,0.4l-2.35,0.1l-1.2-0.1h-0.2c-0.399,0-0.65,0.033-0.75,0.1l-1.6,0.601
	c-0.3,0.133-0.65,0.2-1.05,0.2c-0.267,0-0.533-0.051-0.8-0.15l-1.65-0.7c-0.7-0.3-1.217-0.483-1.55-0.55
	c-0.667-0.167-1.333-0.384-2-0.65L75.9,137h-0.05l-0.1-0.05l-0.2-0.15h-0.1l-0.15-0.1l-0.1-0.05l-0.15-0.15H75l-0.1-0.1l-0.15-0.101
	l-0.1-0.05v-0.05H74.6v-0.05l-0.4-0.4v-0.05l-0.15-0.15l-0.3-0.5V135l-0.3-0.55c-0.067-0.167-0.05-0.316,0.05-0.45l0.3-0.6
	l0.1-0.101l0.25-0.45l0.05-0.05v-0.05l0.15-0.2h0.05v-0.05l0.45-0.65l0.05-0.05l0.4-0.5l1.15-1.149h0.05l0.15-0.101l0.2-0.2
	l0.45-0.3h0.05l0.1-0.1l0.15-0.05l0.1-0.101l0.2-0.05c0.067-0.533,0.333-0.9,0.8-1.1c0.267-0.167,0.566-0.25,0.9-0.25v-0.051
	c-0.133-0.166-0.333-0.283-0.6-0.35l-0.55-0.15c-0.3-0.1-0.45-0.283-0.45-0.55c0-0.3,0.167-0.467,0.5-0.5l0.5-0.05
	c0.367,0,0.7,0.05,1,0.15v-0.9c-0.233-0.3-0.283-0.583-0.15-0.85l0.1-0.15l-0.5-1.2c-0.134-0.2-0.1-0.366,0.1-0.5
	c0.133-0.133,0.284-0.166,0.45-0.1V99.1c-0.167-0.066-0.25-0.199-0.25-0.399v-2.15c0-0.166,0.083-0.3,0.25-0.399v-2.4
	c-0.167-0.066-0.25-0.2-0.25-0.4v-2.1c0-0.2,0.083-0.35,0.25-0.45v-0.3c-0.333,0.7-0.883,1.05-1.65,1.05H58.6
	c-0.467,0-0.967-0.1-1.5-0.3c-0.534-0.2-0.967-0.45-1.3-0.75l-4.95-4.7c-0.367-0.367-0.55-0.8-0.55-1.3
	c0-0.533,0.184-0.983,0.55-1.35l4.95-4.65c0.333-0.3,0.767-0.55,1.3-0.75c0.566-0.233,1.066-0.35,1.5-0.35h19.75
	c0.767,0,1.316,0.35,1.65,1.05v-0.9c-0.167-0.1-0.25-0.25-0.25-0.45V75c0-0.2,0.083-0.333,0.25-0.4v-2.4
	c-0.167-0.1-0.25-0.25-0.25-0.45V69.65z M87.6,88.9v-0.2l0.15-0.05L87.6,88.9l0.15-0.25L87.6,88.7V88.9z"/>
<path style="fill-rule:evenodd;clip-rule:evenodd;fill:none;stroke:#111838;" d="M79.75,69.65v2.1c0,0.2,0.083,0.35,0.25,0.45v2.4
	c-0.167,0.066-0.25,0.2-0.25,0.4v2.1c0,0.2,0.083,0.35,0.25,0.45v0.9c-0.333-0.7-0.883-1.05-1.65-1.05H58.6
	c-0.434,0-0.934,0.117-1.5,0.35c-0.534,0.2-0.967,0.45-1.3,0.75l-4.95,4.65c-0.367,0.367-0.55,0.817-0.55,1.35
	c0,0.5,0.184,0.933,0.55,1.3l4.95,4.7c0.333,0.3,0.767,0.55,1.3,0.75c0.533,0.2,1.033,0.3,1.5,0.3h19.75
	c0.767,0,1.316-0.35,1.65-1.05v0.3c-0.167,0.101-0.25,0.25-0.25,0.45v2.1c0,0.2,0.083,0.334,0.25,0.4v2.4
	c-0.167,0.1-0.25,0.233-0.25,0.399v2.15c0,0.2,0.083,0.333,0.25,0.399V122.7c-0.167-0.066-0.317-0.033-0.45,0.1
	c-0.2,0.134-0.233,0.3-0.1,0.5l0.5,1.2l-0.1,0.15c-0.133,0.267-0.083,0.55,0.15,0.85v0.9c-0.3-0.101-0.633-0.15-1-0.15l-0.5,0.05
	c-0.333,0.033-0.5,0.2-0.5,0.5c0,0.267,0.15,0.45,0.45,0.55L79,127.5c0.267,0.066,0.467,0.184,0.6,0.35v0.051
	c-0.333,0-0.633,0.083-0.9,0.25c-0.467,0.199-0.733,0.566-0.8,1.1l-0.2,0.05l-0.1,0.101l-0.15,0.05l-0.1,0.1H77.3l-0.45,0.3
	l-0.2,0.2l-0.15,0.101h-0.05L75.3,131.3l-0.4,0.5l-0.05,0.05l-0.45,0.65v0.05h-0.05l-0.15,0.2v0.05l-0.05,0.05l-0.25,0.45
	l-0.1,0.101l-0.3,0.6c-0.1,0.134-0.117,0.283-0.05,0.45l0.3,0.55v0.05l0.3,0.5l0.15,0.15v0.05l0.4,0.4v0.05h0.05v0.05l0.1,0.05
	l0.15,0.101l0.1,0.1h0.05l0.15,0.15l0.1,0.05l0.15,0.1h0.1l0.2,0.15l0.1,0.05h0.05l0.25,0.1c0.667,0.267,1.333,0.483,2,0.65
	c0.333,0.066,0.85,0.25,1.55,0.55l1.65,0.7c0.267,0.1,0.533,0.15,0.8,0.15c0.4,0,0.75-0.067,1.05-0.2l1.6-0.601
	c0.1-0.066,0.351-0.1,0.75-0.1h0.2l1.2,0.1l2.35-0.1c0.3-0.033,0.617-0.167,0.95-0.4l0.15-0.05l0.449-0.399l0.101-0.051l0.05-0.1
	l0.2-0.25l0.05-0.05v-0.05l0.15-0.101l0.25-0.45l1.449-1.8v-0.05c0.467-0.667,0.7-1.3,0.7-1.9c0.066-0.6-0.1-1.066-0.5-1.399
	c-0.5-0.467-1.083-0.917-1.75-1.351l-1.2-0.699c-0.733-0.467-1.483-0.801-2.25-1l0.25-1.051c0.2-0.8,0.417-1.449,0.65-1.949
	l0.05-0.051c0.267-0.366,0.333-0.666,0.2-0.899c-0.1-0.2-0.267-0.3-0.5-0.3c0.167-0.467,0.184-0.784,0.05-0.95
	c-0.1-0.134-0.233-0.233-0.399-0.3c-0.167,0-0.334,0.05-0.5,0.149l-0.301,0.3V101c0.4,0.7,0.967,1.05,1.7,1.05h19.75
	c1.033,0,1.95-0.366,2.75-1.1l5-4.7c0.367-0.366,0.55-0.8,0.55-1.3s-0.183-0.934-0.55-1.3l-5-4.7c-0.8-0.733-1.717-1.101-2.75-1.101
	H89.3c-0.467,0-0.866,0.167-1.2,0.5V86.1c0-0.3-0.166-0.45-0.5-0.45v-2.3c0.334,0,0.5-0.167,0.5-0.5v-2.1c0-0.333-0.166-0.5-0.5-0.5
	v-0.8c0.4,0.7,0.967,1.05,1.7,1.05h19.75c1.033,0,1.95-0.367,2.75-1.1l5-4.7c0.367-0.367,0.55-0.8,0.55-1.3
	c0-0.566-0.183-1-0.55-1.3l-5-4.7c-0.8-0.733-1.717-1.1-2.75-1.1H89.3c-0.733,0-1.3,0.35-1.7,1.05V66.5
	c0-0.333-0.116-0.617-0.35-0.85s-0.517-0.35-0.85-0.35h-5.2c-0.333,0-0.617,0.117-0.85,0.35S80,66.167,80,66.5v2.75
	C79.833,69.317,79.75,69.45,79.75,69.65z M87.6,88.9v-0.2l0.15-0.05L87.6,88.9z"/>
<g>
	<g>
		<path style="fill-rule:evenodd;clip-rule:evenodd;fill:#7A674C;" d="M79.9,137.55c-0.633-0.3-1.183-0.517-1.65-0.649
			c-0.533-0.101-1.184-0.301-1.95-0.601l-1.4-0.5l-0.45-0.5l-0.55-1.05c0.8-1.566,1.733-2.8,2.8-3.7
			c0.933-0.733,2.033-1.25,3.3-1.55c0.633-0.134,2.033-0.316,4.2-0.55c1.066-0.134,1.85-0.2,2.35-0.2l0.4,0.15
			c1.066,0.1,2.116,0.483,3.149,1.149l1.2,0.7c0.667,0.467,1.233,0.9,1.7,1.3c0.533,0.5,0.45,1.283-0.25,2.351l-1.5,1.8
			c-0.467,0.967-1.134,1.55-2,1.75L87,137.5l-1.2-0.1c-0.467,0-0.85,0.05-1.15,0.149l-1.55,0.65c-0.567,0.2-1.1,0.217-1.6,0.05
			L79.9,137.55z"/>
		<path style="fill-rule:evenodd;clip-rule:evenodd;fill:#837053;" d="M92.95,131.9c0.566,0.533,0.483,1.316-0.25,2.35l-1.45,1.8
			c-0.134,0.367-0.35,0.684-0.65,0.95c-0.233-0.233-0.399-0.467-0.5-0.7c-0.5-0.833-0.616-1.733-0.35-2.7l0.55-1.05
			c0.233-0.366,0.351-0.816,0.351-1.35c-0.067-0.367-0.167-0.617-0.301-0.75l-0.55-0.7l1.45,0.85
			C91.917,131.066,92.483,131.5,92.95,131.9z"/>
		<path style="fill-rule:evenodd;clip-rule:evenodd;fill:#8D795A;" d="M84.8,128.8l0.1-0.45l1.2-0.1l0.25,0.2l0.051,0.5
			c0,0.7-0.101,1.267-0.301,1.7c-0.1,0.199-0.183,0.316-0.25,0.35c-0.033,0.066-0.133,0.066-0.3,0c-0.2-0.1-0.399-0.467-0.6-1.1
			C84.783,129.5,84.733,129.134,84.8,128.8z"/>
		<path style="fill-rule:evenodd;clip-rule:evenodd;fill:#78654B;" d="M92.95,131.9c0.566,0.533,0.483,1.316-0.25,2.35l-1.45,1.8
			c-0.367,0.667-0.75,1.117-1.15,1.351c-0.3-0.467-0.533-0.917-0.699-1.351l-1.051-3.3c0.167-0.033,0.367,0.017,0.601,0.15l0.6,0.25
			c0.533,0.166,0.983,0.25,1.351,0.25c0.066-0.4,0.083-0.634,0.05-0.7l0.8,0.05c0.267,0.033,0.5-0.017,0.7-0.15
			c0.066-0.267,0.05-0.517-0.05-0.75l-0.25-0.649L92.95,131.9z"/>
		<path style="fill-rule:evenodd;clip-rule:evenodd;fill:#998463;" d="M76.7,130.55c0.533-0.399,0.95-0.666,1.25-0.8l0.25-0.05
			l0.6-0.351L80,129c0.633-0.134,2.033-0.316,4.2-0.55l0.4-0.05l0.6,0.3l1.2,0.75l0.649,0.3l0.55,0.7
			c0.267,0.133,0.517,0.2,0.75,0.2l0.75,0.1c0.267,0.1,0.617,0.333,1.051,0.7c0.566,0.434,0.916,0.684,1.05,0.75l0.3,0.149l0.5,0.7
			c0.133,0.334,0.383,0.717,0.75,1.15l-1.5,1.85c-0.467,0.967-1.15,1.55-2.05,1.75l-2.25,0.05l-1.15-0.1
			c-0.5,0-0.883,0.05-1.15,0.15l-1.6,0.6c-0.6,0.2-1.117,0.233-1.55,0.1l-1.6-0.699c-0.633-0.301-1.183-0.517-1.65-0.65
			c-0.533-0.1-1.184-0.3-1.95-0.6l-0.15-0.051l-0.05-0.05c-0.467-0.333-0.8-0.533-1-0.6h-0.05l-0.2-0.2l-0.1-0.2h-0.1l-0.1-0.2
			l-0.4-0.55l-0.25-0.55C74.7,132.684,75.633,131.45,76.7,130.55z"/>
		<path style="fill-rule:evenodd;clip-rule:evenodd;fill:#917D5D;" d="M75.7,131.55c0.066,0,0.133,0.084,0.2,0.25
			c0.067,0.467,0.133,0.733,0.2,0.8c0.033,0.034,0.133,0.067,0.3,0.101c0.167,0.1,0.25,0.184,0.25,0.25l-0.4,0.8
			c0.133,0.033,0.2,0.217,0.2,0.55c0.033,0.033,0.167,0.017,0.4-0.05v0.3l0.65-0.5c0.3-0.133,0.433,0.066,0.4,0.601
			c0.1-0.067,0.233,0.017,0.4,0.25c0.167,0.233,0.25,0.416,0.25,0.55l0.5,0.05l0.4,0.45c0.033,0.033,0.133,0,0.3-0.101
			c0.167-0.033,0.267-0.033,0.3,0c0.1,0.034,0.167,0.15,0.2,0.351v0.1l0.1,0.15c0,0.033,0.066,0.05,0.2,0.05h0.25l0.25-0.1
			c0.067-0.067,0.1-0.2,0.1-0.4c0.233,0.134,0.434,0.066,0.6-0.2c0.163-0.195,0.163-0.578,0-1.149c0.062,0.155,0.245,0.355,0.55,0.6
			c0.2,0.267,0.284,0.6,0.25,1h0.75c0.367,0,0.633,0.066,0.8,0.2c0-0.233,0.05-0.4,0.15-0.5c0.066-0.101,0.15-0.101,0.25,0v-0.45
			c0.1,0,0.2,0.05,0.3,0.15l0.3,0.149c-0.066-0.333-0.017-0.5,0.15-0.5c0.066,0,0.184,0.084,0.35,0.25v-0.5
			c0.934,0.533,1.667,0.867,2.2,1c0.066-0.399,0.017-0.883-0.149-1.45c-0.134-0.5-0.317-0.883-0.551-1.149
			c0.167,0,0.483,0.233,0.95,0.7c0.4,0.333,0.717,0.433,0.95,0.3l0.15,0.25v-0.8c0.1,0,0.199,0.033,0.3,0.1
			c0.133,0.066,0.217,0.083,0.25,0.05c0-0.233-0.067-0.483-0.2-0.75l-0.35-0.6c0.333,0.066,0.732,0.35,1.199,0.85
			c-0.033-0.366-0.267-0.767-0.699-1.2l-0.9-0.899l0.8,0.5c0.3,0.3,0.566,0.416,0.8,0.35l-0.1-0.25l0.15,0.101l-0.15-0.4
			c0.2,0.267,0.383,0.4,0.55,0.4L91,132.1l0.5,0.25l0.5,0.7c0.133,0.334,0.383,0.717,0.75,1.15l-1.5,1.85
			c-0.467,0.967-1.15,1.55-2.05,1.75l-2.25,0.05l-1.15-0.1c-0.5,0-0.883,0.05-1.15,0.15l-1.6,0.6c-0.6,0.2-1.117,0.233-1.55,0.1
			l-1.6-0.699c-0.633-0.301-1.183-0.517-1.65-0.65c-0.533-0.1-1.184-0.3-1.95-0.6h-0.1c-0.8-0.4-1.384-0.851-1.75-1.351l-0.55-1.05
			C74.467,133.217,75.066,132.316,75.7,131.55z"/>
		<path style="fill-rule:evenodd;clip-rule:evenodd;fill:#8B7759;" d="M74.75,132.8c0.2-0.066,0.333-0.149,0.4-0.25
			c0.133-0.1,0.317-0.283,0.55-0.55c0.066-0.033,0.183-0.05,0.35-0.05c0.167,0.033,0.267,0.083,0.3,0.149
			c0.133,0.267,0.117,0.567-0.05,0.9c-0.233,0.533-0.35,0.816-0.35,0.85L75.8,134.9l-0.35,0.899c0.133,0.134,0.25,0.117,0.35-0.05
			l0.35-0.25v0.45c0.167,0.1,0.3,0.033,0.4-0.2c0.133-0.2,0.233-0.434,0.3-0.7c0.066,0.5,0.183,0.533,0.35,0.101
			c0.3-0.601,0.483-0.9,0.55-0.9l-0.35,2.05c-0.066,0.434,0.017,0.601,0.25,0.5l0.5-0.35c0.033,0.3,0.1,0.5,0.2,0.6
			c0.1,0.066,0.233,0.017,0.4-0.149c0,0.3,0.05,0.466,0.15,0.5l0.35-0.051l0.15,0.101c0.067,0.066,0.133,0.066,0.2,0l0.1-0.15
			l0.2-0.149c0,0.133,0.083,0.233,0.25,0.3l0.3,0.149c0-0.3,0.083-0.399,0.25-0.3l0.4,0.25l0.45,0.05c0.1-0.1,0.167-0.25,0.2-0.449
			l0.2-0.551l0.1,1c0.067,0.267,0.217,0.317,0.45,0.15l0.25-0.3c0.1-0.066,0.217-0.033,0.35,0.1c0-0.3,0.066-0.366,0.2-0.2
			c0.2,0.267,0.333,0.267,0.4,0l0.55,0.051l0.5-0.101l0.05-0.6c0.233-0.033,0.566,0.133,1,0.5c0.066-0.667,0.066-1.084,0-1.25
			c0.267,0.566,0.617,0.983,1.05,1.25c0.5,0.366,0.834,0.366,1,0c0.167-0.434,0.15-0.934-0.05-1.5c0-0.367-0.083-0.8-0.25-1.3
			c-0.1-0.434-0.25-0.75-0.45-0.95c0.134,0,0.384,0.149,0.75,0.45c0.233,0.267,0.45,0.449,0.65,0.55l0.1,0.35l0.5,1.05l0.15,0.5
			c0.066,0.2,0.15,0.301,0.25,0.301l0.05-0.65l-0.1-0.65c0.1,0.167,0.25,0.334,0.45,0.5c0.232,0.167,0.416,0.25,0.55,0.25
			c0.066-0.8,0.083-1.3,0.05-1.5l0.4-0.05l0.35,0.101c0-0.267-0.083-0.517-0.25-0.75l-0.45-0.45c0.066-0.066,0.217-0.05,0.45,0.05
			l0.45,0.3l-0.3-0.55l0.5,0.1c0-0.1-0.067-0.25-0.2-0.449c-0.134-0.2-0.2-0.367-0.2-0.5l0.35,0.1l0.4,0.55
			c0.133,0.334,0.383,0.717,0.75,1.15l-1.5,1.85c-0.467,0.967-1.15,1.55-2.05,1.75l-2.25,0.05l-1.15-0.1
			c-0.5,0-0.883,0.05-1.15,0.15l-1.6,0.6c-0.6,0.2-1.117,0.233-1.55,0.1l-1.6-0.699c-0.633-0.301-1.183-0.517-1.65-0.65
			c-0.533-0.1-1.184-0.3-1.95-0.6h-0.05c-0.867-0.4-1.467-0.851-1.8-1.351l-0.55-1.05L74.75,132.8z"/>
		<path style="fill-rule:evenodd;clip-rule:evenodd;fill:#7F6C4F;" d="M88.95,134.6c0.066,0.034,0.133,0.167,0.2,0.4
			c0.066,0.233,0.066,0.316,0,0.25c-0.101-0.134-0.167-0.184-0.2-0.15v0.351l-0.25-0.601l-0.25-0.35L88.95,134.6z"/>
		<path style="fill-rule:evenodd;clip-rule:evenodd;fill:#7F6C4F;" d="M90.55,132.85c0,0.167,0.134,0.217,0.4,0.15
			c0.2,0,0.3,0.1,0.3,0.3c-0.167-0.066-0.283-0.066-0.35,0l0.149,0.351c0.101,0.1,0.15,0.233,0.15,0.399
			c-0.267-0.233-0.467-0.35-0.601-0.35c0,0.133,0.033,0.25,0.101,0.35l0.05,0.4l-0.25-0.101L90.4,134l-0.25-0.2
			c-0.101-0.033-0.117-0.116-0.051-0.25v0.05c0.001-0.032,0.051-0.032,0.15,0c-0.033-0.1-0.033-0.216,0-0.35l0.15-0.05
			c-0.067-0.101-0.067-0.184,0-0.25C90.434,132.884,90.483,132.85,90.55,132.85z"/>
		<path style="fill-rule:evenodd;clip-rule:evenodd;fill:#7F6C4F;" d="M91.25,132.65c0.267-0.067,0.434-0.017,0.5,0.149v0.25
			l-0.05,0.15c-0.033,0.1-0.117,0.05-0.25-0.15L91.25,132.65z"/>
		<path style="fill-rule:evenodd;clip-rule:evenodd;fill:#A79273;" d="M77.65,129.9h0.15c0,0.166-0.05,0.25-0.15,0.25
			s-0.15-0.034-0.15-0.101l0.05-0.1L77.65,129.9z"/>
		<path style="fill-rule:evenodd;clip-rule:evenodd;fill:#A79273;" d="M78,130.05l-0.05,0.05c0.1,0,0.133,0.051,0.1,0.15
			c-0.066,0.066-0.117,0.066-0.15,0v-0.15L78,130.05z"/>
		<path style="fill-rule:evenodd;clip-rule:evenodd;fill:#A79273;" d="M80.2,129.3l-0.2,0.15l-0.4,0.05l0.2-0.4l-0.3,0.051L80,129
			l0.6-0.1c0.066,0.1,0.066,0.199,0,0.3L80.2,129.3z"/>
		<path style="fill-rule:evenodd;clip-rule:evenodd;fill:#A79273;" d="M80.8,129.05l0.1,0.05c0.067-0.033,0.1,0.017,0.1,0.15
			C80.733,129.25,80.667,129.184,80.8,129.05z"/>
		<path style="fill-rule:evenodd;clip-rule:evenodd;fill:#A79273;" d="M82.6,128.6c0.2,0.034,0.233,0.101,0.1,0.2l-0.25,0.05
			c-0.134,0-0.2-0.017-0.2-0.05v-0.149L82.6,128.6z"/>
		<path style="fill-rule:evenodd;clip-rule:evenodd;fill:#A79273;" d="M82.3,128.95L82.25,129c0.233,0.033,0.316,0.134,0.25,0.3
			c-0.067,0.101-0.15,0.134-0.25,0.101c-0.1-0.067-0.167-0.117-0.2-0.15l0.1-0.2L82.3,128.95z"/>
		<path style="fill-rule:evenodd;clip-rule:evenodd;fill:#A79273;" d="M81.55,129.1h0.1c0,0.167-0.05,0.2-0.15,0.101L81.55,129.1z"
			/>
		<path style="fill-rule:evenodd;clip-rule:evenodd;fill:#A79273;" d="M83.7,130.1c0.2,0.334,0.05,0.467-0.45,0.4l-0.35,0.1
			c-0.133,0-0.2-0.083-0.2-0.25c-0.134,0-0.2-0.05-0.2-0.149l0.3-0.05h-0.15c0-0.067,0.05-0.101,0.15-0.101l0.15,0.05l0.25-0.1
			c0.066-0.066,0.15-0.066,0.25,0C83.617,130,83.7,130.033,83.7,130.1z"/>
		<path style="fill-rule:evenodd;clip-rule:evenodd;fill:#A79273;" d="M83.95,129.85c0.3,0.034,0.383,0.101,0.25,0.2
			c-0.167,0.167-0.284,0.15-0.35-0.05L83.95,129.85z"/>
		<path style="fill-rule:evenodd;clip-rule:evenodd;fill:#A79273;" d="M85.35,129.3l-0.25,0.15l0.45-0.15
			c0.233,0,0.333,0.117,0.3,0.351c0,0.199-0.149,0.3-0.449,0.3c-0.268,0.033-0.384-0.066-0.351-0.3l-0.3-0.051
			c0.066-0.166,0.167-0.25,0.3-0.25L85.35,129.3z"/>
		<path style="fill-rule:evenodd;clip-rule:evenodd;fill:#A79273;" d="M84.65,130.15l-0.1-0.051l0.35,0.15
			c0.133,0.134,0.133,0.233,0,0.3c0,0.066-0.083,0.066-0.25,0l-0.2-0.2C84.45,130.184,84.517,130.116,84.65,130.15z"/>
		<path style="fill-rule:evenodd;clip-rule:evenodd;fill:#A79273;" d="M82.2,131.85c-0.1,0.067-0.217,0.067-0.35,0
			c0-0.267,0.117-0.449,0.35-0.55h1.1c0.267,0.066,0.383,0.217,0.35,0.45c-0.066,0.2-0.2,0.333-0.4,0.4l-0.85,0.25
			c-0.2,0.066-0.35,0.05-0.45-0.051l0.1-0.35L82.2,131.85z"/>
		<path style="fill-rule:evenodd;clip-rule:evenodd;fill:#A79273;" d="M81.45,132.5l0.05-0.05l0.2,0.05c0,0.134-0.034,0.2-0.1,0.2
			h-0.2L81.45,132.5z"/>
		<path style="fill-rule:evenodd;clip-rule:evenodd;fill:#A79273;" d="M82.25,132.75l-0.15,0.1l0.4-0.05
			c0.133-0.033,0.267-0.017,0.4,0.05l-0.05,0.2l-0.1,0.05c-0.3,0.101-0.567,0.084-0.8-0.05
			C82.017,132.85,82.117,132.75,82.25,132.75z"/>
		<path style="fill-rule:evenodd;clip-rule:evenodd;fill:#A79273;" d="M79,132.4c-0.367,0.166-0.617,0.216-0.75,0.149
			c0-0.166,0.083-0.25,0.25-0.25l0.35,0.05c0.233-0.066,0.316-0.033,0.25,0.101c-0.067,0.133-0.1,0.166-0.1,0.1V132.4z"/>
		<path style="fill-rule:evenodd;clip-rule:evenodd;fill:#A79273;" d="M77.75,132.4h0.05l0.2,0.05v0.2l-0.25,0.05l-0.2-0.101
			C77.55,132.533,77.617,132.467,77.75,132.4z"/>
		<path style="fill-rule:evenodd;clip-rule:evenodd;fill:#A79273;" d="M80.95,133.45l-0.2-0.101c0.267,0,0.417,0.017,0.45,0.051
			c0.033,0.166-0.034,0.283-0.2,0.35c-0.133,0.033-0.233,0.017-0.3-0.05c-0.067-0.066-0.067-0.15,0-0.25H80.95z"/>
		<path style="fill-rule:evenodd;clip-rule:evenodd;fill:#A79273;" d="M86.8,130.05c0.066,0.002,0.101,0.068,0.101,0.2L86.8,130.5
			c-0.033,0.134-0.167,0.2-0.399,0.2c-0.2-0.033-0.25-0.15-0.15-0.351H86.1c-0.066,0-0.1-0.05-0.1-0.149
			c0.1-0.134,0.267-0.2,0.5-0.2l0.45,0.05H86.8z"/>
		<path style="fill-rule:evenodd;clip-rule:evenodd;fill:#A79273;" d="M87.25,131.6c-0.2,0.2-0.35,0.25-0.45,0.15
			c-0.066-0.1-0.033-0.2,0.101-0.3l0.199-0.3c-0.033-0.134,0.017-0.233,0.15-0.301l0.35-0.199v0.149c0.167,0,0.217,0.084,0.15,0.25
			c0,0.233-0.05,0.367-0.15,0.4L87.25,131.6z"/>
		<path style="fill-rule:evenodd;clip-rule:evenodd;fill:#A79273;" d="M87.45,131.7l-0.101,0.1c0.033,0.033,0.033,0.117,0,0.25
			c-0.1,0.2-0.217,0.25-0.35,0.15c-0.1-0.101-0.066-0.2,0.1-0.3L87.45,131.7z"/>
		<path style="fill-rule:evenodd;clip-rule:evenodd;fill:#A79273;" d="M86.65,132.4c0.1,0,0.149,0.05,0.149,0.149
			c0,0.066-0.05,0.101-0.149,0.101c-0.101,0-0.15-0.051-0.15-0.15S86.55,132.366,86.65,132.4z"/>
		<path style="fill-rule:evenodd;clip-rule:evenodd;fill:#A79273;" d="M87.25,132.6l-0.05-0.149c0.166,0,0.2,0.083,0.1,0.25
			c-0.066,0.166-0.149,0.166-0.25,0C87.116,132.6,87.184,132.566,87.25,132.6z"/>
		<path style="fill-rule:evenodd;clip-rule:evenodd;fill:#A79273;" d="M87.6,131.85h0.051V132c-0.034,0.033-0.067,0.033-0.101,0
			L87.6,131.85z"/>
		<path style="fill-rule:evenodd;clip-rule:evenodd;fill:#A79273;" d="M87.95,132.1l0.3,0.051c-0.033,0.3-0.184,0.5-0.45,0.6
			c-0.233,0.134-0.399,0.1-0.5-0.1l0.2-0.301l0.05-0.1C87.55,132.15,87.684,132.1,87.95,132.1z"/>
		<path style="fill-rule:evenodd;clip-rule:evenodd;fill:#A79273;" d="M87,132.85l0.05,0.15c0,0.2-0.066,0.25-0.2,0.15
			C86.75,133.116,86.8,133.017,87,132.85z"/>
		<path style="fill-rule:evenodd;clip-rule:evenodd;fill:#7F6C4F;" d="M75.95,132.7l0.25-0.45c0.133-0.066,0.233-0.083,0.3-0.05
			c0.133,0,0.2,0.083,0.2,0.25c0.066,0.166,0.033,0.3-0.1,0.399c-0.034,0.067-0.15,0.101-0.35,0.101l-0.35-0.2L75.95,132.7z"/>
		<path style="fill-rule:evenodd;clip-rule:evenodd;fill:#7F6C4F;" d="M77.95,131c0.2,0,0.283,0.167,0.25,0.5l-0.05,0.15v0.199
			l-0.05,0.2L78,132.1c-0.067,0.067-0.15,0.067-0.25,0c-0.133,0-0.233-0.05-0.3-0.149l-0.05-0.05v-0.2c0-0.5,0.067-0.75,0.2-0.75
			l-0.1,0.3C77.667,131.083,77.816,131,77.95,131z"/>
		<path style="fill-rule:evenodd;clip-rule:evenodd;fill:#7F6C4F;" d="M80.15,131.25v0.3l-0.35,0.3c-0.2,0.2-0.45,0.184-0.75-0.05
			c-0.233-0.2-0.333-0.399-0.3-0.6l0.6-0.45l0.15-0.2l0.15-0.1l0.4-0.4c0.3-0.2,0.5-0.2,0.6,0c0.067,0.233,0.017,0.434-0.15,0.601
			L80.2,131L80.15,131.25z"/>
		<path style="fill-rule:evenodd;clip-rule:evenodd;fill:#7F6C4F;" d="M78.3,129.9l0.45-0.101c0.467,0.066,0.65,0.25,0.55,0.55
			c-0.066,0.167-0.25,0.167-0.55,0C78.45,130.25,78.3,130.1,78.3,129.9z"/>
		<polygon style="fill-rule:evenodd;clip-rule:evenodd;fill:#7F6C4F;" points="82.05,128.7 81.95,129 81.7,129 80.8,128.85 		"/>
		<path style="fill-rule:evenodd;clip-rule:evenodd;fill:#7F6C4F;" d="M83.35,129.85H83.1c-0.233,0.134-0.567,0.384-1,0.75
			c0.233-0.399,0.4-0.616,0.5-0.649c0.167-0.101,0.25-0.2,0.25-0.3v-0.15l0.3-0.4l0.1,0.101l0.05,0.149l0.1-0.1l0.05-0.1
			c0.1-0.167,0.233-0.25,0.4-0.25c0.033-0.034,0.15-0.034,0.35,0l0.899,0.05c0.5,0,0.65,0.066,0.45,0.2c0,0.033-0.066,0.05-0.2,0.05
			c-0.166-0.033-0.333,0-0.5,0.1l-0.5,0.05c-0.2,0-0.35,0.051-0.45,0.15L83.35,129.85z"/>
		<path style="fill-rule:evenodd;clip-rule:evenodd;fill:#7F6C4F;" d="M82.45,130.45c0.1,0.1,0.116,0.217,0.05,0.35
			c-0.067,0.134-0.184,0.217-0.35,0.25l-0.35,0.15c0.067,0.267,0.05,0.517-0.05,0.75c-0.1,0.267-0.217,0.416-0.35,0.45
			c-0.1,0.033-0.283,0-0.55-0.101c-0.333-0.166-0.467-0.35-0.4-0.55l0.5-0.9c0-0.333,0.183-0.533,0.55-0.6
			c0.267-0.033,0.517,0,0.75,0.1L82.45,130.45z"/>
		<path style="fill-rule:evenodd;clip-rule:evenodd;fill:#7F6C4F;" d="M86.35,133.2c0,0.166,0.051,0.25,0.15,0.25l0.25,0.2
			c0.1,0.133,0.083,0.316-0.05,0.55l-0.15,0.2H86.4l-0.101,0.05l-0.1,0.1c-0.033,0.033-0.067,0.033-0.101,0l-0.149-0.05
			c-0.067,0-0.101,0.05-0.101,0.15L85.9,135l-0.051,0.2l0.101,0.95l-0.15-0.2c-0.066-0.101-0.116-0.134-0.149-0.101l0.05,0.25
			l-0.351-0.149c-0.233,0-0.366-0.017-0.399-0.05l-0.7-0.551c-0.167,0.101-0.317,0.117-0.45,0.051l-0.35-0.15
			c-0.2-0.134-0.3-0.233-0.3-0.3L83.1,134.6l0.05-0.35l0.65-0.4l0.55-0.75c0.233-0.066,0.466-0.083,0.7-0.05h0.15l-0.25-0.2
			l-0.15-0.3c0.067-0.166,0.184-0.3,0.351-0.399c0.1-0.101,0.216-0.15,0.35-0.15c0.133,0,0.3,0.15,0.5,0.45
			C86.133,132.616,86.25,132.866,86.35,133.2z"/>
		<path style="fill-rule:evenodd;clip-rule:evenodd;fill:#7F6C4F;" d="M89.2,132.75l0.3,0.15l0.2,0.6l0.05,0.5
			c-0.1-0.233-0.184-0.333-0.25-0.3v0.1c-0.167-0.166-0.283-0.25-0.35-0.25l-0.5-0.1c-0.233-0.066-0.367-0.184-0.4-0.351l0.05-0.05
			l0.05-0.1C88.45,132.717,88.733,132.65,89.2,132.75z"/>
		<path style="fill-rule:evenodd;clip-rule:evenodd;fill:#7F6C4F;" d="M88.6,131.25c0.101-0.066,0.184-0.066,0.25,0
			c0.134,0.1,0.267,0.283,0.4,0.55l-0.55-0.25l-0.351,0.05c-0.166-0.066-0.267-0.149-0.3-0.25L88.6,131.25z"/>
		<path style="fill-rule:evenodd;clip-rule:evenodd;fill:#7F6C4F;" d="M89.05,130.95c0.333,0.066,0.483,0.233,0.45,0.5l-0.25-0.15
			c-0.033,0-0.083-0.033-0.15-0.1L89.05,130.95z"/>
		<path style="fill-rule:evenodd;clip-rule:evenodd;fill:#7F6C4F;" d="M90.1,132.05c0.067-0.3,0.134-0.416,0.2-0.35
			c0.101,0,0.117,0.133,0.05,0.399l-0.05,0.351v0.3H90.15v0.75l-0.051,0.4l-0.149,0.3l-0.2,0.05l-0.25-0.05
			c-0.066,0-0.134,0.05-0.2,0.149l-0.1,0.351l-0.15-0.25c-0.066-0.066-0.133-0.017-0.2,0.149l0.101-0.449
			c0.2-0.267,0.433-0.4,0.7-0.4c0.166,0,0.25-0.116,0.25-0.35l0.05-0.7L90.1,132.05z"/>
		<path style="fill-rule:evenodd;clip-rule:evenodd;fill:#7F6C4F;" d="M79.05,133.6h0.25c0.067,0.434,0,0.551-0.2,0.351
			C78.933,133.816,78.917,133.7,79.05,133.6z"/>
		<path style="fill-rule:evenodd;clip-rule:evenodd;fill:#7F6C4F;" d="M84.3,131.35c0.367,0.034,0.534,0.217,0.5,0.551
			c0,0.166-0.05,0.267-0.15,0.3l-0.25-0.05c-0.333,0-0.5-0.051-0.5-0.15c-0.033-0.066-0.017-0.167,0.05-0.3L84.3,131.35z"/>
		<path style="fill-rule:evenodd;clip-rule:evenodd;fill:#9E968D;" d="M78,130.95l0.1,0.2v0.25l-0.2,0.25
			c-0.1,0.267-0.233,0.366-0.4,0.3c-0.167,0-0.25-0.134-0.25-0.4l0.15-0.399c0.067-0.101,0.167-0.184,0.3-0.25
			C77.833,130.866,77.933,130.884,78,130.95z"/>
		<path style="fill-rule:evenodd;clip-rule:evenodd;fill:#9E968D;" d="M85.25,131.4l0.15,0.05h0.1l0.05,0.05l0.101,0.2l-0.15-0.15
			l-0.15-0.05H85.2c-0.067,0.066-0.101,0.167-0.101,0.3L85,132.4v0.199l0.05,0.101c-0.167,0-0.267-0.117-0.3-0.351l-0.05-0.199V132
			l0.2-0.4L85.25,131.4z"/>
		<path style="fill-rule:evenodd;clip-rule:evenodd;fill:#BBB4A8;" d="M80.4,131.2c0-0.2,0.067-0.384,0.2-0.55l0.35-0.15l0.2,0.05
			l0.05,0.05l0.15,0.101h-0.2v0.05c-0.167,0-0.3,0.05-0.4,0.15c-0.133,0.133-0.2,0.316-0.2,0.55l0.05,0.3l0.05,0.1H80.6
			c-0.067-0.033-0.133-0.133-0.2-0.3l-0.05-0.2L80.4,131.2z M83.85,133.1l-0.05,0.25l-0.15,0.101c-0.066,0.133-0.15,0.166-0.25,0.1
			c-0.1,0-0.183-0.05-0.25-0.149v-0.25l0.05-0.2l0.1-0.05c0.067-0.101,0.15-0.15,0.25-0.15h0.2L83.85,133.1z"/>
		<path style="fill-rule:evenodd;clip-rule:evenodd;fill:#7D7970;" d="M81.6,131.65l-0.2,0.3c-0.1,0.1-0.267,0.133-0.5,0.1
			c-0.233,0-0.333-0.1-0.3-0.3c0.167,0,0.3-0.083,0.4-0.25l0.1-0.3l0.2-0.101h0.05l0.2-0.1c0.067,0,0.1,0.066,0.1,0.2
			C81.683,131.267,81.667,131.417,81.6,131.65z"/>
		<path style="fill-rule:evenodd;clip-rule:evenodd;fill:#7D7970;" d="M79.5,131.75c-0.1,0.066-0.233,0.066-0.4,0
			c-0.2-0.066-0.267-0.2-0.2-0.4l0.5-0.1l0.5-0.3h0.05l-0.15,0.5C79.7,131.616,79.6,131.717,79.5,131.75z"/>
		<path style="fill-rule:evenodd;clip-rule:evenodd;fill:#7D7970;" d="M77.85,131.3H77.7c0.1-0.133,0.2-0.166,0.3-0.1
			c-0.033,0.434-0.2,0.616-0.5,0.55C77.5,131.583,77.617,131.434,77.85,131.3z"/>
		<path style="fill-rule:evenodd;clip-rule:evenodd;fill:#BCA591;" d="M81.45,133.5c-0.1,0.134-0.184,0.116-0.25-0.05
			c-0.067-0.101-0.034-0.184,0.1-0.25c0.034-0.066,0.1-0.084,0.2-0.05l0.1,0.3c0,0.2-0.05,0.267-0.15,0.2V133.5z"/>
		<path style="fill-rule:evenodd;clip-rule:evenodd;fill:#BCA591;" d="M79.05,133.45c0.034-0.033,0.083-0.017,0.15,0.05
			c0.066,0.066,0.066,0.134,0,0.2l-0.25,0.05C78.95,133.55,78.983,133.45,79.05,133.45z"/>
		<path style="fill-rule:evenodd;clip-rule:evenodd;fill:#7A674C;" d="M76.35,131.35c0.1-0.1,0.25-0.383,0.45-0.85
			c0.833-0.7,1.9-1.2,3.2-1.5l0.25-0.05l0.2,1.1c0,0.334,0.083,0.467,0.25,0.4c0.167-0.066,0.4-0.184,0.7-0.351h0.95
			c0.9-0.1,1.383-0.149,1.45-0.149c0.534-0.101,0.833-0.167,0.9-0.2c0.233-0.134,0.45-0.417,0.649-0.85l2.5,0.699
			c0.167,0.034,0.434,0.117,0.801,0.25c0.199,0,0.416-0.083,0.649-0.25c0.333-0.066,0.917,0.167,1.75,0.7
			c0.267,0.167,0.434,0.384,0.5,0.65c0.066,0.233-0.017,0.566-0.25,1c-0.033,0.1-0.184,0.233-0.45,0.399
			c-0.1,0.134-0.217,0.217-0.35,0.25c-0.134,0.034-0.217,0.051-0.25,0.051c-0.066,0.033-0.134,0.116-0.2,0.25L90,133.4
			c0,0.533-0.283,0.75-0.85,0.649c-0.067,0-0.217-0.083-0.45-0.25c-0.167-0.133-0.317-0.184-0.45-0.149v0.149
			c-0.1,0.033-0.217,0-0.35-0.1c-0.167-0.134-0.268-0.217-0.301-0.25c-0.066,0-0.316,0.1-0.75,0.3c-0.366,0.1-0.649,0.184-0.85,0.25
			c-0.267,0-0.434,0.033-0.5,0.1c-0.066,0.101-0.117,0.167-0.15,0.2l-0.3,0.2l-0.25,0.25l-0.65,0.35
			c-0.066,0.034-0.2,0.051-0.4,0.051s-0.35,0.033-0.45,0.1l-0.75,0.5c-0.6,0.333-1.066,0.583-1.4,0.75
			c-0.467,0.333-0.816,0.417-1.05,0.25c-0.133-0.066-0.2-0.25-0.2-0.55c0.133-0.167,0.2-0.367,0.2-0.601
			c-0.034-0.233-0.133-0.433-0.3-0.6c-0.233-0.3-0.517-0.417-0.85-0.35c-0.3,0-0.45-0.167-0.45-0.5c0.033-0.134,0.1-0.284,0.2-0.45
			c0.1-0.167,0.167-0.3,0.2-0.4c0.1-0.399,0-0.6-0.3-0.6l-0.5,0.3l-0.35,0.15c-0.067,0.033-0.267,0.25-0.6,0.649
			c-0.1,0.134-0.2,0.2-0.3,0.2c-0.167-0.033-0.284-0.033-0.35,0c-0.333,0.2-0.567,0.3-0.7,0.3c-0.367-0.133-0.55-0.35-0.55-0.649
			c0.033-0.167,0.117-0.367,0.25-0.601c0.066-0.133,0.167-0.3,0.3-0.5l0.2-0.75L76.35,131.35z"/>
		<path style="fill-rule:evenodd;clip-rule:evenodd;fill:#7F6C4F;" d="M79.85,135.75c-0.034-0.134-0.034-0.316,0-0.55l0.2-0.4
			L80,135.05l0.55,0.05c0.2,0,0.35,0.117,0.45,0.351l0.05,0.3l0.15,0.1c0.033,0.034,0.183,0.051,0.45,0.051l0.55,0.05
			c0.167,0.1,0.283,0.35,0.35,0.75c0,0.467-0.1,0.666-0.3,0.6l-0.05,0.25l-0.35-0.3l-0.3-0.35c-0.133-0.067-0.25-0.084-0.35-0.051
			l-0.3-0.05c-0.433-0.166-0.6-0.483-0.5-0.95C80.1,135.884,79.917,135.85,79.85,135.75z"/>
		<path style="fill-rule:evenodd;clip-rule:evenodd;fill:#78654B;" d="M74.6,133.05c0.1-0.033,0.167-0.033,0.2,0
			c0.034,0.033,0.017,0.167-0.05,0.4c0.033,0,0.117-0.117,0.25-0.351c-0.2,1.267-0.184,2.134,0.05,2.601l0.15,0.149l0.05,0.25
			c-0.3-0.199-0.567-0.466-0.8-0.8l-0.55-1.05C73.967,134.05,74.2,133.65,74.6,133.05z"/>
	</g>
	<g>
		<g>
			
				<linearGradient id="SVGID_17_" gradientUnits="userSpaceOnUse" x1="-87.125" y1="-97.6499" x2="-80.4746" y2="-97.6499" gradientTransform="matrix(-1 0 0 -1 0 0)">
				<stop  offset="0.0039" style="stop-color:#ACAEB0"/>
				<stop  offset="0.2157" style="stop-color:#858689"/>
				<stop  offset="0.251" style="stop-color:#939597"/>
				<stop  offset="0.2588" style="stop-color:#96989A"/>
				<stop  offset="0.3137" style="stop-color:#B6B8B9"/>
				<stop  offset="0.3765" style="stop-color:#D1D2D2"/>
				<stop  offset="0.4431" style="stop-color:#E5E6E6"/>
				<stop  offset="0.5216" style="stop-color:#F4F4F4"/>
				<stop  offset="0.6118" style="stop-color:#FCFCFD"/>
				<stop  offset="0.7569" style="stop-color:#FFFFFF"/>
				<stop  offset="0.7843" style="stop-color:#CACACA"/>
				<stop  offset="1" style="stop-color:#BCBDBD"/>
			</linearGradient>
			<path style="fill-rule:evenodd;clip-rule:evenodd;fill:url(#SVGID_17_);" d="M87.15,66.5v62.25c0,0.5-0.25,0.75-0.75,0.75h-5.2
				c-0.467,0-0.7-0.25-0.7-0.75V66.5c0-0.467,0.233-0.7,0.7-0.7h5.2C86.9,65.8,87.15,66.033,87.15,66.5z"/>
		</g>
		<g>
			<g>
				<g>
					<linearGradient id="SVGID_18_" gradientUnits="userSpaceOnUse" x1="79.1123" y1="81.9751" x2="87.5873" y2="81.9751">
						<stop  offset="0" style="stop-color:#87898B"/>
						<stop  offset="0.6549" style="stop-color:#757679"/>
						<stop  offset="1" style="stop-color:#B8BABD"/>
					</linearGradient>
					<rect x="79.15" y="81.1" style="fill-rule:evenodd;clip-rule:evenodd;fill:url(#SVGID_18_);" width="8.45" height="1.75"/>
					
						<linearGradient id="SVGID_19_" gradientUnits="userSpaceOnUse" x1="-87.5874" y1="-81.6499" x2="-79.1124" y2="-81.6499" gradientTransform="matrix(-1 0 0 -1 0 0)">
						<stop  offset="0" style="stop-color:#E2E3E3"/>
						<stop  offset="0.1922" style="stop-color:#979797"/>
						<stop  offset="0.2078" style="stop-color:#8B8B8C"/>
						<stop  offset="0.2588" style="stop-color:#A9A9AA"/>
						<stop  offset="0.3137" style="stop-color:#C4C4C4"/>
						<stop  offset="0.3765" style="stop-color:#D8D8D9"/>
						<stop  offset="0.4431" style="stop-color:#E7E7E7"/>
						<stop  offset="0.5255" style="stop-color:#EFEFEF"/>
						<stop  offset="0.6588" style="stop-color:#F2F2F2"/>
						<stop  offset="0.6824" style="stop-color:#C2C2C2"/>
						<stop  offset="0.8118" style="stop-color:#949494"/>
						<stop  offset="0.8392" style="stop-color:#868686"/>
						<stop  offset="0.9059" style="stop-color:#676767"/>
						<stop  offset="0.9451" style="stop-color:#5C5C5C"/>
					</linearGradient>
					<rect x="79.15" y="80.75" style="fill-rule:evenodd;clip-rule:evenodd;fill:url(#SVGID_19_);" width="8.45" height="1.8"/>
				</g>
				<g>
					<linearGradient id="SVGID_20_" gradientUnits="userSpaceOnUse" x1="79.1123" y1="87.3252" x2="87.5873" y2="87.3252">
						<stop  offset="0" style="stop-color:#87898B"/>
						<stop  offset="0.6549" style="stop-color:#757679"/>
						<stop  offset="1" style="stop-color:#B8BABD"/>
					</linearGradient>
					<rect x="79.15" y="86.45" style="fill-rule:evenodd;clip-rule:evenodd;fill:url(#SVGID_20_);" width="8.45" height="1.75"/>
					
						<linearGradient id="SVGID_21_" gradientUnits="userSpaceOnUse" x1="-87.5874" y1="-87" x2="-79.1124" y2="-87" gradientTransform="matrix(-1 0 0 -1 0 0)">
						<stop  offset="0" style="stop-color:#E2E3E3"/>
						<stop  offset="0.1922" style="stop-color:#979797"/>
						<stop  offset="0.2078" style="stop-color:#8B8B8C"/>
						<stop  offset="0.2588" style="stop-color:#A9A9AA"/>
						<stop  offset="0.3137" style="stop-color:#C4C4C4"/>
						<stop  offset="0.3765" style="stop-color:#D8D8D9"/>
						<stop  offset="0.4431" style="stop-color:#E7E7E7"/>
						<stop  offset="0.5255" style="stop-color:#EFEFEF"/>
						<stop  offset="0.6588" style="stop-color:#F2F2F2"/>
						<stop  offset="0.6824" style="stop-color:#C2C2C2"/>
						<stop  offset="0.8118" style="stop-color:#949494"/>
						<stop  offset="0.8392" style="stop-color:#868686"/>
						<stop  offset="0.9059" style="stop-color:#676767"/>
						<stop  offset="0.9451" style="stop-color:#5C5C5C"/>
					</linearGradient>
					<rect x="79.15" y="86.1" style="fill-rule:evenodd;clip-rule:evenodd;fill:url(#SVGID_21_);" width="8.45" height="1.801"/>
				</g>
			</g>
			<g>
				<g>
					<linearGradient id="SVGID_22_" gradientUnits="userSpaceOnUse" x1="88.5254" y1="70.875" x2="80.2749" y2="70.875">
						<stop  offset="0" style="stop-color:#87898B"/>
						<stop  offset="0.6549" style="stop-color:#757679"/>
						<stop  offset="1" style="stop-color:#B8BABD"/>
					</linearGradient>
					<rect x="80.25" y="70" style="fill-rule:evenodd;clip-rule:evenodd;fill:url(#SVGID_22_);" width="8.25" height="1.75"/>
					<linearGradient id="SVGID_23_" gradientUnits="userSpaceOnUse" x1="88.5254" y1="70.5503" x2="80.2749" y2="70.5503">
						<stop  offset="0" style="stop-color:#333333"/>
						<stop  offset="0.1647" style="stop-color:#9FA1A2"/>
						<stop  offset="0.302" style="stop-color:#858689"/>
						<stop  offset="0.3451" style="stop-color:#9E9E9E"/>
						<stop  offset="0.7765" style="stop-color:#F2F2F2"/>
						<stop  offset="0.7961" style="stop-color:#B8BABD"/>
						<stop  offset="0.8784" style="stop-color:#C2C3C6"/>
						<stop  offset="1" style="stop-color:#D9DBDC"/>
					</linearGradient>
					<rect x="80.25" y="69.65" style="fill-rule:evenodd;clip-rule:evenodd;fill:url(#SVGID_23_);" width="8.25" height="1.8"/>
				</g>
				<g>
					<linearGradient id="SVGID_24_" gradientUnits="userSpaceOnUse" x1="88.5254" y1="76.2251" x2="80.2749" y2="76.2251">
						<stop  offset="0" style="stop-color:#87898B"/>
						<stop  offset="0.6549" style="stop-color:#757679"/>
						<stop  offset="1" style="stop-color:#B8BABD"/>
					</linearGradient>
					<rect x="80.25" y="75.35" style="fill-rule:evenodd;clip-rule:evenodd;fill:url(#SVGID_24_);" width="8.25" height="1.75"/>
					<linearGradient id="SVGID_25_" gradientUnits="userSpaceOnUse" x1="88.5254" y1="75.8999" x2="80.2749" y2="75.8999">
						<stop  offset="0" style="stop-color:#333333"/>
						<stop  offset="0.1647" style="stop-color:#9FA1A2"/>
						<stop  offset="0.302" style="stop-color:#858689"/>
						<stop  offset="0.3451" style="stop-color:#9E9E9E"/>
						<stop  offset="0.7765" style="stop-color:#F2F2F2"/>
						<stop  offset="0.7961" style="stop-color:#B8BABD"/>
						<stop  offset="0.8784" style="stop-color:#C2C3C6"/>
						<stop  offset="1" style="stop-color:#D9DBDC"/>
					</linearGradient>
					<rect x="80.25" y="75" style="fill-rule:evenodd;clip-rule:evenodd;fill:url(#SVGID_25_);" width="8.25" height="1.8"/>
				</g>
			</g>
			<g>
				<g>
					<linearGradient id="SVGID_26_" gradientUnits="userSpaceOnUse" x1="88.5254" y1="92.4502" x2="80.2749" y2="92.4502">
						<stop  offset="0" style="stop-color:#87898B"/>
						<stop  offset="0.6549" style="stop-color:#757679"/>
						<stop  offset="1" style="stop-color:#B8BABD"/>
					</linearGradient>
					<rect x="80.25" y="91.55" style="fill-rule:evenodd;clip-rule:evenodd;fill:url(#SVGID_26_);" width="8.25" height="1.8"/>
					<linearGradient id="SVGID_27_" gradientUnits="userSpaceOnUse" x1="88.5254" y1="92.125" x2="80.2749" y2="92.125">
						<stop  offset="0" style="stop-color:#333333"/>
						<stop  offset="0.1647" style="stop-color:#9FA1A2"/>
						<stop  offset="0.302" style="stop-color:#858689"/>
						<stop  offset="0.3451" style="stop-color:#9E9E9E"/>
						<stop  offset="0.7765" style="stop-color:#F2F2F2"/>
						<stop  offset="0.7961" style="stop-color:#B8BABD"/>
						<stop  offset="0.8784" style="stop-color:#C2C3C6"/>
						<stop  offset="1" style="stop-color:#D9DBDC"/>
					</linearGradient>
					<rect x="80.25" y="91.25" style="fill-rule:evenodd;clip-rule:evenodd;fill:url(#SVGID_27_);" width="8.25" height="1.75"/>
				</g>
				<g>
					<linearGradient id="SVGID_28_" gradientUnits="userSpaceOnUse" x1="88.5254" y1="97.7998" x2="80.2749" y2="97.7998">
						<stop  offset="0" style="stop-color:#87898B"/>
						<stop  offset="0.6549" style="stop-color:#757679"/>
						<stop  offset="1" style="stop-color:#B8BABD"/>
					</linearGradient>
					<rect x="80.25" y="96.9" style="fill-rule:evenodd;clip-rule:evenodd;fill:url(#SVGID_28_);" width="8.25" height="1.8"/>
					<linearGradient id="SVGID_29_" gradientUnits="userSpaceOnUse" x1="88.5254" y1="97.4502" x2="80.2749" y2="97.4502">
						<stop  offset="0" style="stop-color:#333333"/>
						<stop  offset="0.1647" style="stop-color:#9FA1A2"/>
						<stop  offset="0.302" style="stop-color:#858689"/>
						<stop  offset="0.3451" style="stop-color:#9E9E9E"/>
						<stop  offset="0.7765" style="stop-color:#F2F2F2"/>
						<stop  offset="0.7961" style="stop-color:#B8BABD"/>
						<stop  offset="0.8784" style="stop-color:#C2C3C6"/>
						<stop  offset="1" style="stop-color:#D9DBDC"/>
					</linearGradient>
					<rect x="80.25" y="96.55" style="fill-rule:evenodd;clip-rule:evenodd;fill:url(#SVGID_29_);" width="8.25" height="1.8"/>
				</g>
			</g>
		</g>
		<g>
			<g>
				<g>
					
						<linearGradient id="SVGID_30_" gradientUnits="userSpaceOnUse" x1="77.8223" y1="-65.2441" x2="91.0473" y2="-65.2441" gradientTransform="matrix(7.561436e-005 1 -1 -0.001 -2.653523e-004 -4.429743e-005)">
						<stop  offset="0.3373" style="stop-color:#DEDFE0"/>
						<stop  offset="1" style="stop-color:#ADAFB1"/>
					</linearGradient>
					<path style="fill-rule:evenodd;clip-rule:evenodd;fill:url(#SVGID_30_);" d="M78.35,77.85c0.367,0,0.7,0.15,1,0.45
						c0.267,0.267,0.4,0.6,0.4,1v10.4c0,0.366-0.133,0.7-0.4,1c-0.3,0.267-0.633,0.399-1,0.399H58.6c-0.934,0-1.75-0.316-2.45-0.949
						l-4.95-4.7c-0.3-0.267-0.45-0.583-0.45-0.95c0-0.4,0.15-0.733,0.45-1l4.95-4.65c0.667-0.667,1.483-1,2.45-1H78.35z"/>
					
						<linearGradient id="SVGID_31_" gradientUnits="userSpaceOnUse" x1="-78.7998" y1="-84.4751" x2="-51.7002" y2="-84.4751" gradientTransform="matrix(-1 0 0 -1 0 0)">
						<stop  offset="0.9647" style="stop-color:#DEDFE0"/>
						<stop  offset="1" style="stop-color:#ADAFB1"/>
					</linearGradient>
					<path style="fill-rule:evenodd;clip-rule:evenodd;fill:url(#SVGID_31_);" d="M78.35,90.15H58.6c-0.667,0-1.267-0.233-1.8-0.7
						l-4.95-4.7c-0.1-0.067-0.15-0.15-0.15-0.25c0-0.133,0.05-0.233,0.15-0.3l4.95-4.7c0.534-0.467,1.133-0.7,1.8-0.7h19.75
						c0.3,0,0.45,0.167,0.45,0.5v10.4C78.8,90,78.65,90.15,78.35,90.15z"/>
				</g>
				
					<linearGradient id="SVGID_32_" gradientUnits="userSpaceOnUse" x1="78.7212" y1="-65.2373" x2="84.9462" y2="-65.2373" gradientTransform="matrix(1.606426e-004 1 -1 -0.001 -3.843616e-004 -4.524109e-005)">
					<stop  offset="0" style="stop-color:#F4F4F4"/>
					<stop  offset="1" style="stop-color:#ECECEC"/>
				</linearGradient>
				<path style="fill-rule:evenodd;clip-rule:evenodd;fill:url(#SVGID_32_);" d="M78.8,79.3v1.075
					c-0.009-0.317-0.159-0.475-0.45-0.475H58.6c-0.667,0-1.267,0.233-1.8,0.7l-4.7,4.45l-0.25-0.3c-0.1-0.067-0.15-0.15-0.15-0.25
					c0-0.133,0.05-0.233,0.15-0.3l4.95-4.7c0.534-0.467,1.133-0.7,1.8-0.7h19.75C78.65,78.8,78.8,78.967,78.8,79.3z"/>
			</g>
			<g>
				<linearGradient id="SVGID_33_" gradientUnits="userSpaceOnUse" x1="102.375" y1="80" x2="102.375" y2="66.775">
					<stop  offset="0.3373" style="stop-color:#DEDFE0"/>
					<stop  offset="1" style="stop-color:#ADAFB1"/>
				</linearGradient>
				<path style="fill-rule:evenodd;clip-rule:evenodd;fill:url(#SVGID_33_);" d="M109.05,66.75c0.967,0,1.783,0.333,2.45,1
					l4.95,4.65c0.267,0.267,0.399,0.6,0.399,1c0,0.367-0.133,0.684-0.399,0.95l-4.95,4.7c-0.7,0.633-1.517,0.95-2.45,0.95H89.3
					c-0.366,0-0.7-0.133-1-0.4c-0.267-0.3-0.399-0.633-0.399-1V68.2c0-0.4,0.133-0.733,0.399-1c0.3-0.3,0.634-0.45,1-0.45H109.05z"
					/>
				<linearGradient id="SVGID_34_" gradientUnits="userSpaceOnUse" x1="88.8496" y1="73.375" x2="115.9502" y2="73.375">
					<stop  offset="0.9647" style="stop-color:#DEDFE0"/>
					<stop  offset="1" style="stop-color:#ADAFB1"/>
				</linearGradient>
				<path style="fill-rule:evenodd;clip-rule:evenodd;fill:url(#SVGID_34_);" d="M88.85,68.2c0-0.333,0.15-0.5,0.45-0.5h19.75
					c0.667,0,1.267,0.233,1.8,0.7l4.95,4.7l0.15,0.3l-0.15,0.25l-4.95,4.7c-0.533,0.467-1.133,0.7-1.8,0.7H89.3
					c-0.3,0-0.45-0.15-0.45-0.45V68.2z"/>
				
					<linearGradient id="SVGID_35_" gradientUnits="userSpaceOnUse" x1="67.6353" y1="-102.3887" x2="73.8603" y2="-102.3887" gradientTransform="matrix(1.606426e-004 1 -1 -0.001 -3.843616e-004 -4.524109e-005)">
					<stop  offset="0" style="stop-color:#F4F4F4"/>
					<stop  offset="1" style="stop-color:#ECECEC"/>
				</linearGradient>
				<path style="fill-rule:evenodd;clip-rule:evenodd;fill:url(#SVGID_35_);" d="M88.85,69.275V68.2c0-0.333,0.15-0.5,0.45-0.5
					h19.75c0.667,0,1.267,0.233,1.8,0.7l4.95,4.7l0.15,0.3l-0.15,0.25l-0.3,0.3l-4.65-4.4c-0.467-0.466-1.066-0.7-1.8-0.7H89.3
					C89.01,68.85,88.859,68.992,88.85,69.275z"/>
			</g>
			<g>
				<linearGradient id="SVGID_36_" gradientUnits="userSpaceOnUse" x1="102.375" y1="101.5625" x2="102.375" y2="88.3375">
					<stop  offset="0.3373" style="stop-color:#DEDFE0"/>
					<stop  offset="1" style="stop-color:#ADAFB1"/>
				</linearGradient>
				<path style="fill-rule:evenodd;clip-rule:evenodd;fill:url(#SVGID_36_);" d="M111.5,89.3l4.95,4.7
					c0.267,0.267,0.399,0.6,0.399,1c0,0.366-0.133,0.684-0.399,0.95l-4.95,4.649c-0.667,0.667-1.483,1-2.45,1H89.3
					c-0.366,0-0.7-0.133-1-0.399c-0.267-0.3-0.399-0.65-0.399-1.05v-10.4c0-0.366,0.133-0.7,0.399-1c0.3-0.267,0.634-0.4,1-0.4
					h19.75C109.983,88.35,110.8,88.667,111.5,89.3z"/>
				<linearGradient id="SVGID_37_" gradientUnits="userSpaceOnUse" x1="88.8496" y1="94.9746" x2="115.9502" y2="94.9746">
					<stop  offset="0.9647" style="stop-color:#DEDFE0"/>
					<stop  offset="1" style="stop-color:#ADAFB1"/>
				</linearGradient>
				<path style="fill-rule:evenodd;clip-rule:evenodd;fill:url(#SVGID_37_);" d="M115.95,94.95l-0.15,0.3l-4.95,4.65
					c-0.5,0.5-1.1,0.75-1.8,0.75H89.3c-0.3,0-0.45-0.167-0.45-0.5v-10.4c0-0.3,0.15-0.45,0.45-0.45h19.75
					c0.667,0,1.267,0.233,1.8,0.7l4.95,4.7L115.95,94.95z"/>
				
					<linearGradient id="SVGID_38_" gradientUnits="userSpaceOnUse" x1="89.1904" y1="-102.3857" x2="95.4154" y2="-102.3857" gradientTransform="matrix(1.606426e-004 1 -1 -0.001 -3.843616e-004 -4.524109e-005)">
					<stop  offset="0" style="stop-color:#F4F4F4"/>
					<stop  offset="1" style="stop-color:#ECECEC"/>
				</linearGradient>
				<path style="fill-rule:evenodd;clip-rule:evenodd;fill:url(#SVGID_38_);" d="M110.85,91.1c-0.533-0.466-1.133-0.699-1.8-0.699
					H89.3c-0.29,0-0.44,0.142-0.45,0.425V89.75c0-0.3,0.15-0.45,0.45-0.45h19.75c0.667,0,1.267,0.233,1.8,0.7l4.95,4.7l0.15,0.25
					l-0.15,0.3l-0.3,0.25L110.85,91.1z"/>
			</g>
		</g>
	</g>
	<path style="fill-rule:evenodd;clip-rule:evenodd;fill:#8A8C4B;" d="M88.3,123.7c-0.066,0.2-0.149,0.416-0.25,0.649
		c-0.233,0.601-0.434,1.2-0.6,1.801l-0.25,2.55v1l-0.05,0.05l-0.101,0.05c-0.133,0-0.233-0.1-0.3-0.3l-0.1,0.35H86.55
		c-0.233,0.067-0.383-0.017-0.45-0.25l-0.199,0.15c-0.334,0-0.5-0.4-0.5-1.2v-1.25l0.25-1.3c0.133-0.533,0.316-0.967,0.55-1.3h0.05
		c0.066,0.233,0.05,0.633-0.05,1.2l0.35-1c0.233-0.801,0.45-1.233,0.65-1.301c0.1,0.167,0.083,0.534-0.05,1.101
		c-0.067,0.3-0.15,0.649-0.25,1.05l-0.25,1.55c-0.067,0.3-0.101,0.7-0.101,1.2l0.101,0.65l-0.051-0.9c0.067-0.7,0.167-1.4,0.301-2.1
		c0.232-0.801,0.416-1.367,0.55-1.7l0.45-0.9l0.25-0.35l0.199-0.05C88.45,123.15,88.434,123.333,88.3,123.7z"/>
	<path style="fill-rule:evenodd;clip-rule:evenodd;fill:#8A8C4B;" d="M80.15,129.5c0.033-0.366,0.05-0.65,0.05-0.85
		c0-0.534-0.083-0.884-0.25-1.051c-0.2-0.3-0.483-0.5-0.85-0.6l-0.5-0.1c-0.167-0.067-0.167-0.117,0-0.15
		c1-0.1,1.816,0.167,2.45,0.8c0.1,0.066,0.217,0.233,0.35,0.5c0.133-0.666-0.017-1.5-0.45-2.5l-1.1-2.399
		c0.767,0.399,1.4,1.267,1.9,2.6c0.367,0.967,0.55,1.8,0.55,2.5c0,0.1-0.017,0.25-0.05,0.45l0.1,0.45
		c0.133,0.333,0.083,0.55-0.15,0.649c-0.166,0.033-0.249-0.1-0.25-0.399c-0.004,0.137-0.121,0.32-0.35,0.55
		c-0.167,0.166-0.367,0.217-0.6,0.149c-0.3,0-0.583-0.166-0.85-0.5V129.5z"/>
	<path style="fill-rule:evenodd;clip-rule:evenodd;fill:#A3A25B;" d="M86.1,131.55c-0.033,0.167-0.267,0.184-0.699,0.05
		c-0.334-0.199-0.467-0.733-0.4-1.6c0.033-0.566,0.2-1.267,0.5-2.1c0.5-1.301,1.116-2.167,1.85-2.601
		c-0.166,0.5-0.517,1.283-1.05,2.351c-0.399,1.1-0.533,2.183-0.399,3.25C85.934,131.033,86,131.25,86.1,131.55z"/>
	<path style="fill-rule:evenodd;clip-rule:evenodd;fill:#A3A25B;" d="M80.5,125.4c-0.1-0.167-0.167-0.284-0.2-0.351
		c-0.1-0.166-0.05-0.233,0.15-0.2l0.15,0.051c0.3,0.133,0.6,0.666,0.9,1.6c0.233,0.6,0.4,1.233,0.5,1.9
		c0.167,0.899,0.217,1.649,0.15,2.25v0.149l0.1-0.649c0-0.5-0.033-0.9-0.1-1.2l-0.25-1.55c-0.1-0.4-0.183-0.75-0.25-1.051
		c-0.1-0.566-0.117-0.933-0.05-1.1c0.2,0.1,0.417,0.533,0.65,1.3l0.35,1c-0.1-0.566-0.117-0.967-0.05-1.2h0.05
		c0.267,0.434,0.45,0.867,0.55,1.301l0.25,1.3v1.25c0,0.8-0.167,1.2-0.5,1.2l-0.2-0.15c-0.1,0.2-0.25,0.3-0.45,0.3l-0.1-0.05
		l-0.1-0.35c-0.033,0.199-0.133,0.3-0.3,0.3l-0.1-0.05l-0.05-0.051c0.066-1.399-0.05-2.699-0.35-3.899
		C80.95,126.45,80.7,125.767,80.5,125.4z"/>
	<path style="fill-rule:evenodd;clip-rule:evenodd;fill:#A3A25B;" d="M88.65,124.4c0.166-0.034,0.216,0.033,0.149,0.199
		c-0.033,0.067-0.1,0.184-0.2,0.351C88.4,125.316,88.15,126,87.85,127c-0.333,1.366-0.449,2.667-0.35,3.9l-0.05,0.05
		c-0.2,0.1-0.334,0.033-0.4-0.2c-0.033-0.233-0.066-0.4-0.1-0.5v-0.05c-0.067-0.5-0.033-1.25,0.1-2.25c0.2-0.867,0.384-1.5,0.55-1.9
		c0.301-0.934,0.601-1.467,0.9-1.6L88.65,124.4z"/>
	<g>
		<path style="fill-rule:evenodd;clip-rule:evenodd;fill:#5D4C37;" d="M78.5,129.8l-0.15,0.101c0.933-0.167,1.6-0.134,2,0.1
			c0.267,0.167,0.316,0.316,0.15,0.45c-0.167,0.1-0.367,0.149-0.6,0.149h-0.35l-0.25-0.1h-0.8c-0.4-0.1-0.583-0.233-0.55-0.4
			C77.95,130.066,78.133,129.967,78.5,129.8z"/>
		<path style="fill-rule:evenodd;clip-rule:evenodd;fill:#5D4C37;" d="M80.825,131.625c0.235-0.217,0.661-0.325,1.275-0.325
			c0.233,0,1.117,0.084,2.65,0.25c0.866,0,1.366,0.066,1.5,0.2c0.133,0.134,0.133,0.25,0,0.35c-0.2,0.067-0.35,0.117-0.45,0.15
			c-0.3,0.167-0.517,0.267-0.649,0.3c-0.367,0.134-0.767,0.2-1.2,0.2c-0.6,0-1.034-0.05-1.3-0.15c-0.3-0.1-0.583-0.149-0.85-0.149
			c-0.733,0-1.133-0.134-1.2-0.4C80.525,131.826,80.601,131.685,80.825,131.625z M81.1,131.6c-0.11,0-0.202,0.009-0.275,0.025
			L80.8,131.65L81.1,131.6z"/>
		<g>
			<path style="fill-rule:evenodd;clip-rule:evenodd;fill:#9E968D;" d="M79.75,128.4l0.7,0.05c0.333,0.066,0.5,0.233,0.5,0.5
				s-0.05,0.5-0.15,0.7c-0.167,0.399-0.517,0.6-1.05,0.6c-0.967,0.066-1.434-0.233-1.4-0.9c0.066-0.399,0.25-0.666,0.55-0.8
				C79.1,128.45,79.383,128.4,79.75,128.4z"/>
			<path style="fill-rule:evenodd;clip-rule:evenodd;fill:#86827A;" d="M79.75,129.5c0.2-0.167,0.566-0.333,1.1-0.5l0.05,0.3
				c0.1,0.5,0.017,0.834-0.25,1l-0.5,0.05l-0.5-0.05C79.217,130,79.25,129.733,79.75,129.5z"/>
			<g>
				<path style="fill-rule:evenodd;clip-rule:evenodd;fill:#B4A99E;" d="M83.85,129.15c1,0,1.633,0.133,1.9,0.399
					c0.333,0.267,0.5,0.65,0.5,1.15c-0.033,0.467-0.233,0.833-0.6,1.1c-0.301,0.334-1.034,0.467-2.2,0.4
					c-1.167,0-1.934-0.134-2.3-0.4c-0.667-0.467-0.717-0.95-0.15-1.45c0.267-0.233,0.783-0.55,1.55-0.949l-0.6,0.199
					C82.217,129.3,82.85,129.15,83.85,129.15z"/>
				<path style="fill-rule:evenodd;clip-rule:evenodd;fill:#9E968D;" d="M82.8,132.2c-0.8,0-1.433-0.134-1.9-0.4
					c0.3-0.133,0.983-0.3,2.05-0.5c0.4-0.133,1.083-0.283,2.05-0.45c0.167,0,0.4-0.199,0.7-0.6l-0.101-0.3
					c0.767-0.101,0.95,0.35,0.551,1.35c-0.101,0.434-0.233,0.684-0.4,0.75c-0.066,0.066-0.367,0.101-0.9,0.101L82.8,132.2z"/>
			</g>
		</g>
	</g>
</g>
</svg>
