<?xml version="1.0" encoding="iso-8859-1"?>
<!-- Generator: Adobe Illustrator 15.1.0, SVG Export Plug-In . SVG Version: 6.00 Build 0)  -->
<!DOCTYPE svg PUBLIC "-//W3C//DTD SVG 1.1//EN" "http://www.w3.org/Graphics/SVG/1.1/DTD/svg11.dtd">
<svg version="1.1" id="Layer_1" xmlns="http://www.w3.org/2000/svg" xmlns:xlink="http://www.w3.org/1999/xlink" x="0px" y="0px"
	 width="171.75px" height="171.75px" viewBox="0 0 171.75 171.75" style="enable-background:new 0 0 171.75 171.75;"
	 xml:space="preserve">
<symbol  id="FlashAICB_x2F_Layer_1_x2F__x3C_Clip_Group_0_x3E_" viewBox="0 -34.8 23.85 34.8">
	<g id="Layer_1_18_">
	</g>
	<g>
		<defs>
			<polygon id="SVGID_1_" points="1.6,0 0,-33.75 22.25,-34.8 23.85,-1.05 			"/>
		</defs>
		<clipPath id="SVGID_2_">
			<use xlink:href="#SVGID_1_"  style="overflow:visible;"/>
		</clipPath>
		<g id="Layer_3_13_" style="clip-path:url(#SVGID_2_);">
			
				<use xlink:href="#FlashAICB_x2F_Layer_1_x2F__x3C_Clip_Group_0_x3E__x5F_0"  width="23.85" height="34.8" y="-34.8" style="overflow:visible;"/>
		</g>
	</g>
	<g id="Layer_4_13_">
	</g>
</symbol>
<symbol  id="FlashAICB_x2F_Layer_1_x2F__x3C_Clip_Group_0_x3E__x5F_0" viewBox="0 -34.8 23.85 34.8">
	<g id="Layer_1_11_">
	</g>
	<g>
		<defs>
			<path id="SVGID_3_" d="M12.05-0.5L10.9-24.95l-0.25-1.4c-0.3-1.167-0.75-2.217-1.35-3.15c-1.585-2.433-3.952-3.825-7.1-4.175
				c4.305,0.285,8.455,1.327,12.45,3.125c3.934,1.733,6.617,3.6,8.05,5.6l1.15,23.9L12.05-0.5z"/>
		</defs>
		<clipPath id="SVGID_4_">
			<use xlink:href="#SVGID_3_"  style="overflow:visible;"/>
		</clipPath>
		<g id="Layer_3_9_" style="clip-path:url(#SVGID_4_);">
			<linearGradient id="SVGID_5_" gradientUnits="userSpaceOnUse" x1="0.7983" y1="-16.8735" x2="22.9983" y2="-17.9235">
				<stop  offset="0" style="stop-color:#F70A3E"/>
				<stop  offset="0.9725" style="stop-color:#C40616"/>
				<stop  offset="1" style="stop-color:#C30515"/>
			</linearGradient>
			<polygon style="fill-rule:evenodd;clip-rule:evenodd;fill:url(#SVGID_5_);" points="1.6,0 23.85,-1.05 22.25,-34.8 0,-33.75 			
				"/>
		</g>
	</g>
	<g id="Layer_4_9_">
	</g>
</symbol>
<symbol  id="FlashAICB_x2F_Layer_1_x2F__x3C_Clip_Group_0_x3E__x5F_1" viewBox="0 -18.95 54.8 18.95">
	<g id="Layer_1_13_">
	</g>
	<g>
		<defs>
			<path id="SVGID_6_" d="M48.05-5.05c-0.133,0.066,0.05,0.4,0.55,1c0.467,0.566,0.617,0.883,0.45,0.95
				c-0.2,0.067-2.283-0.083-6.25-0.45C42-3.617,39.967-3.3,36.7-2.6c-3.7,0.8-6.667,1.25-8.9,1.35
				c-7.466,0.333-13.883-0.167-19.25-1.5C3.217-4.117,0.5-5.933,0.4-8.2c-0.133-2.267,2.4-4.333,7.6-6.2s11.533-2.967,19-3.3
				c7.467-0.367,13.883,0.133,19.25,1.5c5.333,1.367,8.067,3.184,8.2,5.45C54.55-8.717,52.417-6.817,48.05-5.05z"/>
		</defs>
		<clipPath id="SVGID_7_">
			<use xlink:href="#SVGID_6_"  style="overflow:visible;"/>
		</clipPath>
		<g id="Layer_3_11_" style="clip-path:url(#SVGID_7_);">
			<linearGradient id="SVGID_8_" gradientUnits="userSpaceOnUse" x1="0.4614" y1="-8.1997" x2="54.3364" y2="-10.7497">
				<stop  offset="0" style="stop-color:#373737"/>
				<stop  offset="0.3686" style="stop-color:#595959"/>
				<stop  offset="0.5765" style="stop-color:#525252"/>
				<stop  offset="0.7647" style="stop-color:#5E5E5E"/>
				<stop  offset="1" style="stop-color:#525252"/>
			</linearGradient>
			<polygon style="fill-rule:evenodd;clip-rule:evenodd;fill:url(#SVGID_8_);" points="54.05,-18.95 0,-16.4 0.8,0 54.8,-2.55 			
				"/>
		</g>
	</g>
	<g id="Layer_4_11_">
	</g>
</symbol>
<symbol  id="FlashAICB_x2F_Layer_1_x2F__x3C_Clip_Group_0_x3E__x5F_10" viewBox="0 -11.9 12.2 11.9">
	<g id="Layer_1_3_">
	</g>
	<g>
		<defs>
			<path id="SVGID_9_" d="M5.05-2.85L4.65-2.8C4.083-2.767,3.367-2.817,2.5-2.95L2.65-4c0.033-0.133,0.467-0.267,1.3-0.4
				C4.917-4.567,5.667-4.933,6.2-5.5C7.333-6.633,7.933-7.717,8-8.75C8.467-9.017,8.9-8.633,9.3-7.6c0.367,1,0.583,2.417,0.65,4.25
				C7.183-3.117,5.55-2.95,5.05-2.85z"/>
		</defs>
		<clipPath id="SVGID_10_">
			<use xlink:href="#SVGID_9_"  style="overflow:visible;"/>
		</clipPath>
		<g id="Layer_3_1_" style="clip-path:url(#SVGID_10_);">
			<linearGradient id="SVGID_11_" gradientUnits="userSpaceOnUse" x1="1.9922" y1="-3.915" x2="4.7172" y2="-5.265">
				<stop  offset="0" style="stop-color:#6E7073"/>
				<stop  offset="1" style="stop-color:#565759"/>
			</linearGradient>
			<polygon style="fill-rule:evenodd;clip-rule:evenodd;fill:url(#SVGID_11_);" points="3.85,0 12.2,-4.15 8.35,-11.9 0,-7.75 			
				"/>
		</g>
	</g>
	<g id="Layer_4_1_">
	</g>
</symbol>
<symbol  id="FlashAICB_x2F_Layer_1_x2F__x3C_Clip_Group_0_x3E__x5F_11" viewBox="0 -7.65 7.9 7.65">
	<g id="Layer_1_14_">
	</g>
	<g>
		<defs>
			<path id="SVGID_12_" d="M7.75-0.35c-0.5-0.2-1-0.316-1.5-0.35c-0.033,0-1.1-0.083-3.2-0.25C1.55-1.083,0.733-1.2,0.6-1.3
				C0.433-1.4,0.55-1.917,0.95-2.85c0.333-0.833,0.7-1.583,1.1-2.25c0.6-1,1.4-0.933,2.4,0.2c0.5,0.6,1.1,1.417,1.8,2.45
				c0.733,0.5,1.233,1.05,1.5,1.65C7.883-0.533,7.883-0.383,7.75-0.35z"/>
		</defs>
		<clipPath id="SVGID_13_">
			<use xlink:href="#SVGID_12_"  style="overflow:visible;"/>
		</clipPath>
		<g id="Layer_3_12_" style="clip-path:url(#SVGID_13_);">
			<linearGradient id="SVGID_14_" gradientUnits="userSpaceOnUse" x1="0.4253" y1="-3.6621" x2="7.6753" y2="-4.0121">
				<stop  offset="0" style="stop-color:#4D4D4D"/>
				<stop  offset="1" style="stop-color:#696969"/>
			</linearGradient>
			<polygon style="fill-rule:evenodd;clip-rule:evenodd;fill:url(#SVGID_14_);" points="0.35,0 7.9,-0.4 7.55,-7.65 0,-7.3 			"/>
		</g>
	</g>
	<g id="Layer_4_12_">
	</g>
</symbol>
<symbol  id="FlashAICB_x2F_Layer_1_x2F__x3C_Clip_Group_0_x3E__x5F_2" viewBox="0 -29.5 8.85 29.5">
	<g id="Layer_1_12_">
	</g>
	<g>
		<defs>
			<path id="SVGID_15_" d="M1.4,0L0.2-25.65c2.033-1.533,4.45-2.817,7.25-3.85l1.4,29.15L1.4,0z"/>
		</defs>
		<clipPath id="SVGID_16_">
			<use xlink:href="#SVGID_15_"  style="overflow:visible;"/>
		</clipPath>
		<g id="Layer_3_10_" style="clip-path:url(#SVGID_16_);">
			<linearGradient id="SVGID_17_" gradientUnits="userSpaceOnUse" x1="0.687" y1="-14.5737" x2="8.112" y2="-14.9237">
				<stop  offset="0" style="stop-color:#F70A3E"/>
				<stop  offset="0.9725" style="stop-color:#C40616"/>
				<stop  offset="1" style="stop-color:#C30515"/>
			</linearGradient>
			<polygon style="fill-rule:evenodd;clip-rule:evenodd;fill:url(#SVGID_17_);" points="1.4,0 8.85,-0.35 7.45,-29.5 0,-29.15 			
				"/>
		</g>
	</g>
	<g id="Layer_4_10_">
	</g>
</symbol>
<symbol  id="FlashAICB_x2F_Layer_1_x2F__x3C_Clip_Group_0_x3E__x5F_3" viewBox="0 -36.4 55.65 36.4">
	<g id="Layer_1_10_">
	</g>
	<g>
		<defs>
			<path id="SVGID_18_" d="M1.6,0L0.45-23.9c1.6-2.733,4.133-5.017,7.6-6.85c4.833-2.567,11.15-4.033,18.95-4.4
				c7.5-0.367,13.85,0.5,19.05,2.6c3.867,1.6,6.684,3.633,8.45,6.1l1.15,23.9L1.6,0z"/>
		</defs>
		<clipPath id="SVGID_19_">
			<use xlink:href="#SVGID_18_"  style="overflow:visible;"/>
		</clipPath>
		<g id="Layer_3_8_" style="clip-path:url(#SVGID_19_);">
			<linearGradient id="SVGID_20_" gradientUnits="userSpaceOnUse" x1="0.9126" y1="-16.9263" x2="54.7876" y2="-19.4763">
				<stop  offset="0" style="stop-color:#C1040C"/>
				<stop  offset="1" style="stop-color:#930306"/>
			</linearGradient>
			<polygon style="fill-rule:evenodd;clip-rule:evenodd;fill:url(#SVGID_20_);" points="54.05,-36.4 0,-33.85 1.6,0 55.65,-2.55 			
				"/>
		</g>
	</g>
	<g id="Layer_4_8_">
	</g>
</symbol>
<symbol  id="FlashAICB_x2F_Layer_1_x2F__x3C_Clip_Group_0_x3E__x5F_4" viewBox="0 -6.8 5.7 6.8">
	<g id="Layer_1_9_">
	</g>
	<g>
		<defs>
			<path id="SVGID_21_" d="M5.05-0.7l-4.9-2.6C3.483-5.633,5.167-6.533,5.2-6c0,0.567,0.167,2.483,0.5,5.75L5.05-0.7z"/>
		</defs>
		<clipPath id="SVGID_22_">
			<use xlink:href="#SVGID_21_"  style="overflow:visible;"/>
		</clipPath>
		<g id="Layer_3_7_" style="clip-path:url(#SVGID_22_);">
			<linearGradient id="SVGID_23_" gradientUnits="userSpaceOnUse" x1="0.1479" y1="-3.2749" x2="5.5513" y2="-3.5251">
				<stop  offset="0" style="stop-color:#C1040C"/>
				<stop  offset="1" style="stop-color:#930306"/>
			</linearGradient>
			<polygon style="fill-rule:evenodd;clip-rule:evenodd;fill:url(#SVGID_23_);" points="0.3,0 5.7,-0.25 5.4,-6.8 0,-6.55 			"/>
		</g>
	</g>
	<g id="Layer_4_7_">
	</g>
</symbol>
<symbol  id="FlashAICB_x2F_Layer_1_x2F__x3C_Clip_Group_0_x3E__x5F_5" viewBox="0 -16.35 18.15 16.35">
	<g id="Layer_1_8_">
	</g>
	<g>
		<defs>
			<path id="SVGID_24_" d="M7.75-4.95L6.6-4.85C4.867-4.783,3.483-5.033,2.45-5.6l11.4-6l1.9,2.4L7.75-4.95z"/>
		</defs>
		<clipPath id="SVGID_25_">
			<use xlink:href="#SVGID_24_"  style="overflow:visible;"/>
		</clipPath>
		<g id="Layer_3_6_" style="clip-path:url(#SVGID_25_);">
			<linearGradient id="SVGID_26_" gradientUnits="userSpaceOnUse" x1="10.7646" y1="-8.9707" x2="3.4396" y2="-5.5207">
				<stop  offset="0" style="stop-color:#7C7E80"/>
				<stop  offset="0.5882" style="stop-color:#B1B3B4"/>
				<stop  offset="1" style="stop-color:#D9DBDC"/>
			</linearGradient>
			<polygon style="fill-rule:evenodd;clip-rule:evenodd;fill:url(#SVGID_26_);" points="13.45,-16.35 0,-10 4.7,0 18.15,-6.35 			
				"/>
		</g>
	</g>
	<g id="Layer_4_6_">
	</g>
</symbol>
<symbol  id="FlashAICB_x2F_Layer_1_x2F__x3C_Clip_Group_0_x3E__x5F_6" viewBox="0 -34.85 38.3 34.85">
	<g id="Layer_1_7_">
	</g>
	<g>
		<defs>
			<polygon id="SVGID_27_" points="8.95,-10.35 5.3,-11.85 29.2,-24.5 32.95,-23.1 			"/>
		</defs>
		<clipPath id="SVGID_28_">
			<use xlink:href="#SVGID_27_"  style="overflow:visible;"/>
		</clipPath>
		<g id="Layer_3_5_" style="clip-path:url(#SVGID_28_);">
			<linearGradient id="SVGID_29_" gradientUnits="userSpaceOnUse" x1="5.6362" y1="-10.6777" x2="15.5612" y2="-15.6277">
				<stop  offset="0" style="stop-color:#7E8082"/>
				<stop  offset="0.7569" style="stop-color:#BFC1C2"/>
				<stop  offset="1" style="stop-color:#D5D7D8"/>
			</linearGradient>
			<polygon style="fill-rule:evenodd;clip-rule:evenodd;fill:url(#SVGID_29_);" points="10.45,0 38.3,-13.85 27.8,-34.85 0,-20.95 
							"/>
		</g>
	</g>
	<g id="Layer_4_5_">
	</g>
</symbol>
<symbol  id="FlashAICB_x2F_Layer_1_x2F__x3C_Clip_Group_0_x3E__x5F_7" viewBox="0 -23.1 24.9 23.1">
	<g id="Layer_1_6_">
	</g>
	<g>
		<defs>
			<path id="SVGID_30_" d="M11.7-6.95C10.4-6.583,7.983-6.067,4.45-5.4c-0.233-0.567-0.333-1.317-0.3-2.25
				c0-1.167,0.117-1.867,0.35-2.1C5.633-9.683,7.133-9.967,9-10.6c3.767-1.233,7.567-3.583,11.4-7.05l0.55,5.6
				C16.083-8.983,13-7.283,11.7-6.95z"/>
		</defs>
		<clipPath id="SVGID_31_">
			<use xlink:href="#SVGID_30_"  style="overflow:visible;"/>
		</clipPath>
		<g id="Layer_3_4_" style="clip-path:url(#SVGID_31_);">
			<linearGradient id="SVGID_32_" gradientUnits="userSpaceOnUse" x1="3.6963" y1="-7.8535" x2="13.8213" y2="-12.1035">
				<stop  offset="0" style="stop-color:#444245"/>
				<stop  offset="1" style="stop-color:#58595B"/>
			</linearGradient>
			<polygon style="fill-rule:evenodd;clip-rule:evenodd;fill:url(#SVGID_32_);" points="6.4,0 24.9,-7.7 18.45,-23.1 0,-15.35 			
				"/>
		</g>
	</g>
	<g id="Layer_4_4_">
	</g>
</symbol>
<symbol  id="FlashAICB_x2F_Layer_1_x2F__x3C_Clip_Group_0_x3E__x5F_8" viewBox="0 -17.5 20.55 17.5">
	<g id="Layer_1_5_">
	</g>
	<g>
		<defs>
			<path id="SVGID_33_" d="M9.45-6.75H8.4C6.7-6.783,5.183-7.267,3.85-8.2C2.483-9.167,2.5-9.533,3.9-9.3
				c1.533,0.267,4.217-0.184,8.05-1.35c0.733-0.2,3.066,0.45,7,1.95C15.25-7.533,12.083-6.883,9.45-6.75z M10.4-7.8
				c-0.2-0.233-0.55-0.417-1.05-0.55C8.683-8.517,8.1-8.583,7.6-8.55c-0.667,0-1.1,0.2-1.3,0.6c-0.167,0.333,0.233,0.6,1.2,0.8
				c0.967,0.233,1.867,0.2,2.7-0.1C10.567-7.383,10.633-7.567,10.4-7.8z"/>
		</defs>
		<clipPath id="SVGID_34_">
			<use xlink:href="#SVGID_33_"  style="overflow:visible;"/>
		</clipPath>
		<g id="Layer_3_3_" style="clip-path:url(#SVGID_34_);">
			<linearGradient id="SVGID_35_" gradientUnits="userSpaceOnUse" x1="4.5215" y1="-5.8579" x2="9.1965" y2="-8.2079">
				<stop  offset="0" style="stop-color:#AFB1B4"/>
				<stop  offset="1" style="stop-color:#D9DBDC"/>
			</linearGradient>
			<polygon style="fill-rule:evenodd;clip-rule:evenodd;fill:url(#SVGID_35_);" points="4.8,0 20.55,-7.85 15.7,-17.5 0,-9.65 			
				"/>
		</g>
	</g>
	<g id="Layer_4_3_">
	</g>
</symbol>
<symbol  id="FlashAICB_x2F_Layer_1_x2F__x3C_Clip_Group_0_x3E__x5F_9" viewBox="0 -2.5 6.9 2.5">
	<g id="Layer_1_4_">
	</g>
	<g>
		<defs>
			<path id="SVGID_36_" d="M6.05-1C5.55-0.633,4.567-0.35,3.1-0.15H2.95c-0.467,0.033-1.034-0.1-1.7-0.4
				C0.583-0.783,0.217-1,0.15-1.2C0.083-1.467,0.2-1.75,0.5-2.05c0.267,0.433,0.867,0.733,1.8,0.9c1,0.167,1.917,0.033,2.75-0.4
				c0.767-0.4,1.217-0.467,1.35-0.2S6.417-1.233,6.05-1z"/>
		</defs>
		<clipPath id="SVGID_37_">
			<use xlink:href="#SVGID_36_"  style="overflow:visible;"/>
		</clipPath>
		<g id="Layer_3_2_" style="clip-path:url(#SVGID_37_);">
			<linearGradient id="SVGID_38_" gradientUnits="userSpaceOnUse" x1="0.5752" y1="-1.25" x2="4.8252" y2="-1.25">
				<stop  offset="0" style="stop-color:#6B6C6F"/>
				<stop  offset="0.4039" style="stop-color:#A0A1A3"/>
				<stop  offset="0.7686" style="stop-color:#D4D5D6"/>
				<stop  offset="0.8627" style="stop-color:#D2D3D4"/>
				<stop  offset="0.902" style="stop-color:#CBCCCD"/>
				<stop  offset="0.9333" style="stop-color:#BEBFC1"/>
				<stop  offset="0.9569" style="stop-color:#ACAEAF"/>
				<stop  offset="0.9804" style="stop-color:#959799"/>
				<stop  offset="1" style="stop-color:#7A7C7F"/>
			</linearGradient>
			<polygon style="fill-rule:evenodd;clip-rule:evenodd;fill:url(#SVGID_38_);" points="0,0 6.9,0 6.9,-2.45 0,-2.5 			"/>
		</g>
	</g>
	<g id="Layer_4_2_">
	</g>
</symbol>
<symbol  id="FlashAICB_x2F_Layer_1_x2F__x3C_Group_x3E_" viewBox="0 -34.8 23.85 34.8">
	<g id="Layer_1_20_">
		<g>
			
				<use xlink:href="#FlashAICB_x2F_Layer_1_x2F__x3C_Clip_Group_0_x3E_"  width="23.85" height="34.8" y="-34.8" style="overflow:visible;"/>
		</g>
	</g>
</symbol>
<symbol  id="FlashAICB_x2F_Layer_1_x2F__x3C_Group_x3E__x5F_0" viewBox="0 -66.434 119.2 66.434">
	<g id="Layer_1_19_">
		<g>
			
				<use xlink:href="#FlashAICB_x2F_Layer_1_x2F__x3C_Path_x3E__x5F_1_x5F_0"  width="119.2" height="60.45" y="-60.45" style="overflow:visible;opacity:0.1992;enable-background:new    ;"/>
			
				<use xlink:href="#FlashAICB_x2F_Layer_1_x2F__x3C_Path_x3E__x5F_0"  width="119.2" height="66.434" y="-66.434" style="overflow:visible;opacity:0.0781;enable-background:new    ;"/>
		</g>
	</g>
</symbol>
<symbol  id="FlashAICB_x2F_Layer_1_x2F__x3C_Path_x3E_" viewBox="0 -61.9 128.6 61.9">
	<g id="Layer_1_15_">
		
			<radialGradient id="SVGID_39_" cx="64.2998" cy="-30.9502" r="50.4599" gradientTransform="matrix(1 0 0 -1 0 -61.9004)" gradientUnits="userSpaceOnUse">
			<stop  offset="0" style="stop-color:#F3A32D;stop-opacity:0"/>
			<stop  offset="0.0627" style="stop-color:#E99A2C;stop-opacity:0.0627"/>
			<stop  offset="0.1725" style="stop-color:#CD832A;stop-opacity:0.2392"/>
			<stop  offset="0.3176" style="stop-color:#A05E27;stop-opacity:0.5216"/>
			<stop  offset="0.4863" style="stop-color:#632B23;stop-opacity:0.9098"/>
			<stop  offset="0.5216" style="stop-color:#551F23"/>
		</radialGradient>
		<path style="fill-rule:evenodd;clip-rule:evenodd;fill:url(#SVGID_39_);" d="M128.05-0.3L128.6,0
			c-0.633-17.233-7.167-31.85-19.6-43.85C96.5-55.883,81.583-61.9,64.25-61.9c-17.033,0-31.733,5.816-44.1,17.45
			C7.783-32.85,1.067-18.633,0-1.8c4.967-13,13.183-23.517,24.65-31.55c11.7-8.2,24.733-12.3,39.1-12.3
			c14.633,0,27.883,4.25,39.75,12.75C115.067-24.567,123.25-13.7,128.05-0.3z"/>
	</g>
</symbol>
<symbol  id="FlashAICB_x2F_Layer_1_x2F__x3C_Path_x3E__x5F_0" viewBox="0 -66.434 119.2 66.434">
	<g id="Layer_1_17_">
		<path style="fill-rule:evenodd;clip-rule:evenodd;fill:#FFFFFF;" d="M115.4-37.25c2.533-6.1,3.8-11.85,3.8-17.25
			c0-5.367-1.567-8.75-4.7-10.15c-2.533-1.167-6.783-1.15-12.75,0.05c-7.9,1.9-14.217,3.367-18.95,4.4
			c-8.667,1.833-16.4,2.75-23.2,2.75c-6.867,0-14.6-1-23.2-3c-9.033-2.367-15.35-3.966-18.95-4.8c-6-1.367-10.25-1.55-12.75-0.55
			C1.567-64.533,0-61.217,0-55.85c0,5.934,1.267,12.067,3.8,18.4c2.667,6.7,6.434,12.75,11.3,18.15C26.7-6.433,41.533,0,59.6,0
			c17.833,0,32.65-6.5,44.45-19.5C108.883-24.833,112.667-30.75,115.4-37.25z"/>
	</g>
</symbol>
<symbol  id="FlashAICB_x2F_Layer_1_x2F__x3C_Path_x3E__x5F_1" viewBox="0 -128.6 128.8 128.6">
	<g id="Layer_1_2_">
		
			<radialGradient id="SVGID_40_" cx="64.3999" cy="-64.2998" r="64.35" gradientTransform="matrix(1 0 0 -1 0 -128.5996)" gradientUnits="userSpaceOnUse">
			<stop  offset="0" style="stop-color:#F6BD8E"/>
			<stop  offset="0.0196" style="stop-color:#F5BA8C"/>
			<stop  offset="0.2471" style="stop-color:#ED9B78"/>
			<stop  offset="0.4431" style="stop-color:#E9886B"/>
			<stop  offset="0.5843" style="stop-color:#E78267"/>
			<stop  offset="0.5882" style="stop-color:#E68066;stop-opacity:0.9922"/>
			<stop  offset="0.6745" style="stop-color:#DA6858;stop-opacity:0.902"/>
			<stop  offset="0.7686" style="stop-color:#D1564E;stop-opacity:0.8392"/>
			<stop  offset="0.8706" style="stop-color:#CC4B48;stop-opacity:0.8"/>
			<stop  offset="1" style="stop-color:#CA4846;stop-opacity:0.7882"/>
		</radialGradient>
		<path style="fill-rule:evenodd;clip-rule:evenodd;fill:url(#SVGID_40_);" d="M128.8-64.3c0-17.767-6.283-32.917-18.85-45.45
			c-12.6-12.567-27.784-18.85-45.55-18.85c-17.8,0-32.983,6.283-45.55,18.85C6.283-97.217,0-82.067,0-64.3
			c0,17.767,6.283,32.917,18.85,45.45C31.417-6.283,46.6,0,64.4,0c17.767,0,32.95-6.283,45.55-18.85
			C122.517-31.417,128.8-46.567,128.8-64.3z"/>
	</g>
</symbol>
<symbol  id="FlashAICB_x2F_Layer_1_x2F__x3C_Path_x3E__x5F_1_x5F_0" viewBox="0 -60.45 119.2 60.45">
	<g id="Layer_1_16_">
		
			<linearGradient id="SVGID_41_" gradientUnits="userSpaceOnUse" x1="16160.585" y1="-58.4668" x2="16220.9756" y2="-58.4668" gradientTransform="matrix(1.654944e-005 1 -1 -0.001 0.8657 -16221.1064)">
			<stop  offset="0.1294" style="stop-color:#E2B8B2"/>
			<stop  offset="0.9255" style="stop-color:#FFFFFF"/>
		</linearGradient>
		<path style="fill-rule:evenodd;clip-rule:evenodd;fill:url(#SVGID_41_);" d="M104.05-19.5c4.833-5.333,8.617-11.25,11.35-17.75
			c2.533-6.1,3.8-11.85,3.8-17.25c0-1.833-0.184-3.45-0.55-4.85c-2,12-7.85,22.65-17.55,31.95c-11.4,11-25.233,16.5-41.5,16.5
			c-16.533,0-30.45-5.483-41.75-16.45c-9.733-9.433-15.533-20.467-17.4-33.1C0.15-59.217,0-57.683,0-55.85
			c0,5.934,1.267,12.067,3.8,18.4c2.667,6.7,6.434,12.75,11.3,18.15C26.7-6.433,41.533,0,59.6,0C77.433,0,92.25-6.5,104.05-19.5z"/>
	</g>
</symbol>
<g>
	<path style="fill-rule:evenodd;clip-rule:evenodd;fill:#FFFFFF;" d="M25.15,25.2c7.934-7.934,17.033-14.083,27.3-18.45
		C63.083,2.25,74.217,0,85.85,0c11.634,0,22.767,2.25,33.4,6.75c10.267,4.367,19.366,10.517,27.3,18.45
		c7.934,7.9,14.084,17,18.45,27.3c4.5,10.633,6.75,21.767,6.75,33.4s-2.25,22.767-6.75,33.4c-4.366,10.267-10.517,19.367-18.45,27.3
		c-7.934,7.9-17.033,14.033-27.3,18.4c-10.634,4.5-21.767,6.75-33.4,6.75c-11.633,0-22.766-2.25-33.399-6.75
		c-10.267-4.367-19.367-10.5-27.3-18.4c-7.9-7.933-14.033-17.033-18.4-27.3C2.25,108.667,0,97.533,0,85.9s2.25-22.767,6.75-33.4
		C11.117,42.2,17.25,33.1,25.15,25.2z"/>
	<g>
		<g>
			
				<linearGradient id="SVGID_42_" gradientUnits="userSpaceOnUse" x1="-157.6851" y1="85.876" x2="-14.2354" y2="85.876" gradientTransform="matrix(6.973501e-006 -1 1 -0.001 -1.064519e-004 4.449275e-004)">
				<stop  offset="0.0353" style="stop-color:#722F2A"/>
				<stop  offset="0.5843" style="stop-color:#E76267"/>
				<stop  offset="1" style="stop-color:#DCB574"/>
			</linearGradient>
			<path style="fill-rule:evenodd;clip-rule:evenodd;fill:url(#SVGID_42_);" d="M57.95,19.8c8.9-3.767,18.2-5.65,27.899-5.65
				c19.767,0,36.667,7.017,50.7,21.05c6.601,6.6,11.717,14.2,15.351,22.8c3.767,8.867,5.649,18.15,5.649,27.85
				c0,9.7-1.883,19-5.649,27.9c-3.634,8.566-8.75,16.167-15.351,22.8c-6.633,6.634-14.233,11.767-22.8,15.4
				c-8.9,3.767-18.2,5.649-27.9,5.649c-9.7,0-19-1.883-27.899-5.649c-8.567-3.634-16.15-8.767-22.75-15.4
				c-6.6-6.633-11.717-14.233-15.35-22.8c-3.767-8.9-5.65-18.2-5.65-27.9c0-9.7,1.883-18.983,5.65-27.85
				c3.633-8.6,8.75-16.2,15.35-22.8C41.8,28.566,49.383,23.434,57.95,19.8z"/>
			<path style="fill-rule:evenodd;clip-rule:evenodd;fill:#470B17;" d="M58.3,20.6c-8.466,3.6-15.966,8.667-22.5,15.2
				C21.967,49.633,15.05,66.316,15.05,85.85c0,19.567,6.917,36.267,20.75,50.1c6.534,6.533,14.034,11.6,22.5,15.2
				c8.767,3.699,17.95,5.55,27.55,5.55c9.601,0,18.784-1.851,27.551-5.55c8.466-3.601,15.966-8.667,22.5-15.2
				c6.533-6.533,11.6-14.033,15.199-22.5c3.7-8.767,5.551-17.967,5.551-27.6c0-9.6-1.851-18.784-5.551-27.55
				c-3.6-8.466-8.666-15.966-15.199-22.5C122.1,21.967,105.417,15.05,85.85,15.05C76.25,15.05,67.067,16.9,58.3,20.6z M34.5,34.55
				c6.833-6.866,14.683-12.133,23.55-15.8c8.833-3.667,18.1-5.5,27.8-5.5c9.7,0,18.967,1.833,27.801,5.5
				c8.833,3.667,16.683,8.934,23.55,15.8c6.833,6.833,12.083,14.684,15.75,23.55c3.666,8.833,5.5,18.083,5.5,27.75
				c0,9.7-1.834,18.966-5.5,27.8c-3.634,8.866-8.884,16.717-15.75,23.55c-6.867,6.866-14.717,12.133-23.55,15.8
				c-8.834,3.667-18.101,5.5-27.801,5.5c-9.7,0-18.966-1.833-27.8-5.5c-8.867-3.667-16.716-8.934-23.55-15.8
				c-6.833-6.833-12.083-14.684-15.75-23.55c-3.633-8.834-5.45-18.101-5.45-27.8c0-9.7,1.817-18.95,5.45-27.75
				C22.417,49.233,27.667,41.383,34.5,34.55z"/>
		</g>
		
			<use xlink:href="#FlashAICB_x2F_Layer_1_x2F__x3C_Path_x3E__x5F_1"  width="128.8" height="128.6" y="-128.6" transform="matrix(1 0 0 -1 21.4502 19.25)" style="overflow:visible;opacity:0.9102;enable-background:new    ;"/>
		<g>
			<g>
				<g>
					<path style="fill-rule:evenodd;clip-rule:evenodd;fill:#F7D7C8;" d="M83.1,31.1v20.25c0,0.867-0.25,1.566-0.75,2.1
						c-0.5,0.466-1.133,0.7-1.9,0.7c-0.8,0-1.45-0.233-1.95-0.7c-0.5-0.534-0.75-1.233-0.75-2.1V33.5h-2.1
						c-0.8,0-1.417-0.25-1.85-0.75c-0.367-0.467-0.55-1.033-0.55-1.7c0-0.667,0.217-1.233,0.65-1.7c0.467-0.534,1.05-0.8,1.75-0.8
						h5.1c0.733,0,1.317,0.25,1.75,0.75C82.9,29.767,83.1,30.367,83.1,31.1z"/>
				</g>
				<g>
					
						<linearGradient id="SVGID_43_" gradientUnits="userSpaceOnUse" x1="-52.6299" y1="78.1772" x2="-27.0752" y2="78.1772" gradientTransform="matrix(3.913894e-005 -1 1 -0.001 -7.314169e-005 -4.747650e-005)">
						<stop  offset="0.2902" style="stop-color:#2F0102"/>
						<stop  offset="1" style="stop-color:#D2060E"/>
					</linearGradient>
					<path style="fill-rule:evenodd;clip-rule:evenodd;fill:url(#SVGID_43_);" d="M83.1,29.5v20.3c0,0.867-0.25,1.55-0.75,2.05
						c-0.5,0.466-1.133,0.7-1.9,0.7c-0.8,0-1.45-0.233-1.95-0.7c-0.5-0.5-0.75-1.184-0.75-2.05V31.9h-2.1
						c-0.8,0-1.417-0.25-1.85-0.75c-0.367-0.466-0.55-1.033-0.55-1.7c0-0.667,0.217-1.233,0.65-1.7c0.434-0.5,1.017-0.75,1.75-0.75
						h5.1c0.733,0,1.317,0.25,1.75,0.75C82.9,28.184,83.1,28.767,83.1,29.5z"/>
				</g>
			</g>
			<g>
				<g>
					<path style="fill-rule:evenodd;clip-rule:evenodd;fill:#F7D7C8;" d="M98.45,31.1v20.25c0,0.867-0.25,1.566-0.75,2.1
						c-0.5,0.466-1.15,0.7-1.95,0.7c-0.767,0-1.4-0.233-1.9-0.7c-0.5-0.534-0.75-1.233-0.75-2.1V33.5H91
						c-0.8,0-1.417-0.25-1.85-0.75c-0.4-0.467-0.601-1.033-0.601-1.7c0-0.667,0.217-1.233,0.65-1.7c0.467-0.534,1.066-0.8,1.8-0.8
						h5.05c0.733,0,1.334,0.25,1.8,0.75C98.25,29.767,98.45,30.367,98.45,31.1z"/>
				</g>
				<g>
					
						<linearGradient id="SVGID_44_" gradientUnits="userSpaceOnUse" x1="-52.645" y1="93.502" x2="-27.0903" y2="93.502" gradientTransform="matrix(3.913894e-005 -1 1 -0.001 -7.314169e-005 -4.747650e-005)">
						<stop  offset="0.2902" style="stop-color:#2F0102"/>
						<stop  offset="1" style="stop-color:#D2060E"/>
					</linearGradient>
					<path style="fill-rule:evenodd;clip-rule:evenodd;fill:url(#SVGID_44_);" d="M98.45,29.5v20.3c0,0.867-0.25,1.55-0.75,2.05
						c-0.5,0.466-1.15,0.7-1.95,0.7c-0.767,0-1.4-0.233-1.9-0.7c-0.5-0.5-0.75-1.184-0.75-2.05V31.9H91c-0.8,0-1.417-0.25-1.85-0.75
						c-0.4-0.466-0.601-1.033-0.601-1.7c0-0.667,0.217-1.233,0.65-1.7C89.667,27.25,90.267,27,91,27h5.05
						c0.767,0,1.367,0.25,1.8,0.75C98.25,28.184,98.45,28.767,98.45,29.5z"/>
				</g>
			</g>
		</g>
		<g>
			<path style="fill-rule:evenodd;clip-rule:evenodd;fill:#F7E0E7;" d="M109.55,74.85l1.75,0.4l0.75,0.05
				c0.601,0.034,1.384-0.033,2.351-0.2c1.267-0.2,2.416-0.3,3.449-0.3H118c0.767,0,1.3,0.034,1.6,0.1
				c1.167,0.267,2.084,0.85,2.75,1.75c0.667,0.934,0.934,1.983,0.801,3.15c2.566,1.767,3.983,3.833,4.25,6.2
				c0.066,0.233,0.1,0.566,0.1,1l-1.15,23.9c0,0.8-0.25,1.517-0.75,2.149c-1.333,1.867-3.199,3.567-5.6,5.101
				c-3.7,2.366-8.233,3.967-13.6,4.8c-1.767,0.267-3.15,0.433-4.15,0.5l-0.75-0.05c-2.066,0.133-4.35,0.149-6.85,0.05
				c-3.834-0.2-7.267-0.617-10.3-1.25c-9.533-2-16.05-6-19.55-12c-0.367-0.601-0.55-1.333-0.55-2.2l0.7-14.95h-0.1
				c-0.533,0.2-1.117,0.3-1.75,0.3H63l-0.6-0.1c-0.867-0.233-1.7-0.55-2.5-0.95l-0.8-0.5l-0.2-0.1l-0.8-0.55l-0.2-0.101L56.4,89.9
				c-1-0.834-2.233-2.018-3.7-3.551c-1.233-1.266-2.133-2.116-2.7-2.55c-0.833-0.633-1.75-1.05-2.75-1.25
				c-0.8-0.133-1.483-0.2-2.05-0.2l-0.85,0.05c-0.367,0-0.75,0.05-1.15,0.15c-0.833,0.634-1.767,0.917-2.8,0.85l-0.25-0.05
				c-0.767-0.034-1.383-0.184-1.85-0.45c-1.333-0.6-2.083-1.633-2.25-3.1c-0.1-0.3-0.283-0.583-0.55-0.85l-0.4-0.1l-0.75-0.1
				c-1.033-0.233-1.883-0.7-2.55-1.4c-0.433-0.5-0.733-1.034-0.9-1.6c-0.167-0.533-0.283-1.133-0.35-1.8
				c-0.1-0.934,0.1-1.833,0.6-2.7c0.633-1.133,1.8-2.1,3.5-2.9c1.7-0.8,3.434-1.217,5.2-1.25h1.25c1.167,0.066,2.45,0.216,3.85,0.45
				h0.1l0.55-0.1L47,67.4l1.55,0.25c0.967,0.233,1.667,0.417,2.1,0.55l2.8,1c1.6,0.6,3.716,1.566,6.35,2.9
				c3.9,2.033,6.967,4.033,9.2,6c2.733-1.934,6.817-3.317,12.25-4.15c4.767-0.7,10-0.917,15.7-0.65
				C101.45,73.5,105.65,74.017,109.55,74.85z"/>
			
				<linearGradient id="SVGID_45_" gradientUnits="userSpaceOnUse" x1="-101.3311" y1="95.7383" x2="-47.7949" y2="95.7383" gradientTransform="matrix(0.206 -0.9786 0.9786 0.206 3.188401e-004 -3.671646e-004)">
				<stop  offset="0.2824" style="stop-color:#AB3A48"/>
				<stop  offset="0.2863" style="stop-color:#AB3B48"/>
				<stop  offset="0.702" style="stop-color:#D88F62"/>
				<stop  offset="0.8941" style="stop-color:#E9B06C"/>
			</linearGradient>
			<path style="fill-rule:evenodd;clip-rule:evenodd;fill:url(#SVGID_45_);" d="M109.75,74l1.7,0.4l0.75,0.1
				c0.399,0,1.2-0.066,2.399-0.2c1.233-0.2,2.384-0.316,3.45-0.35h0.15c0.6,0,1.116,0.033,1.55,0.1c1.167,0.267,2.1,0.85,2.8,1.75
				c0.667,0.934,0.934,1.983,0.8,3.15c2.567,1.833,3.983,3.917,4.25,6.25c0.067,0.4,0.084,0.733,0.051,1l-1.101,23.85
				c-0.066,0.833-0.316,1.55-0.75,2.15c-1.333,1.899-3.2,3.616-5.6,5.149c-3.733,2.367-8.283,3.95-13.65,4.75
				c-1.233,0.233-2.616,0.4-4.149,0.5h-0.7c-2.667,0.134-4.95,0.134-6.851,0c-3.566-0.133-7-0.55-10.3-1.25
				c-5.367-1.133-9.816-2.933-13.35-5.399c-2.7-1.9-4.767-4.101-6.2-6.601c-0.4-0.666-0.583-1.399-0.55-2.199l0.7-14.9l-0.1-0.05
				c-0.566,0.267-1.15,0.366-1.75,0.3h-0.15l-0.6-0.1c-0.6-0.134-1.417-0.45-2.45-0.95L59.25,91l-0.2-0.15l-0.8-0.5L58.2,90.3
				l-1.6-1.2c-1.167-0.967-2.417-2.149-3.75-3.55c-1.167-1.233-2.05-2.083-2.65-2.55c-0.833-0.633-1.75-1.05-2.75-1.25
				c-0.534-0.133-1.233-0.2-2.1-0.2h-0.8L43.4,81.7l-0.05,0.05c-0.833,0.633-1.767,0.9-2.8,0.8H40.3
				c-0.566-0.033-1.183-0.183-1.85-0.45c-1.3-0.667-2.034-1.717-2.2-3.15c-0.133-0.267-0.333-0.55-0.6-0.85l-1.15-0.2
				c-1.733-0.367-2.883-1.35-3.45-2.95c-0.2-0.6-0.3-1.217-0.3-1.85c-0.1-0.934,0.083-1.817,0.55-2.65
				c0.667-1.167,1.85-2.15,3.55-2.95c1.667-0.8,3.383-1.217,5.15-1.25h0.65l0.65,0.05c1.2,0.067,2.467,0.217,3.8,0.45h0.05l0.1-0.05
				l0.55-0.05c0.267-0.033,0.733-0.05,1.4-0.05c0.367,0,0.883,0.066,1.55,0.2l3.65,1.1l0.1,0.05l1.15,0.4
				c2.367,1,4.467,1.966,6.3,2.9c3.5,1.8,6.583,3.8,9.25,6c2.7-1.934,6.783-3.3,12.25-4.1c4.733-0.7,9.967-0.917,15.7-0.65
				C101.85,72.733,106.05,73.233,109.75,74z"/>
			<path style="fill-rule:evenodd;clip-rule:evenodd;fill:none;stroke:#F7E0E7;stroke-width:0.25;" d="M109.75,74
				c-3.7-0.767-7.9-1.267-12.6-1.5c-5.733-0.267-10.967-0.05-15.7,0.65c-5.467,0.8-9.55,2.167-12.25,4.1c-2.667-2.2-5.75-4.2-9.25-6
				c-1.833-0.934-3.934-1.9-6.3-2.9l-1.15-0.4l-0.1-0.05l-3.65-1.1c-0.667-0.133-1.183-0.2-1.55-0.2c-0.667,0-1.133,0.017-1.4,0.05
				l-0.55,0.05l-0.1,0.05H45.1c-1.333-0.233-2.6-0.383-3.8-0.45l-0.65-0.05H40c-1.767,0.033-3.483,0.45-5.15,1.25
				c-1.7,0.8-2.883,1.783-3.55,2.95c-0.466,0.833-0.65,1.716-0.55,2.65c0,0.633,0.1,1.25,0.3,1.85c0.567,1.6,1.717,2.583,3.45,2.95
				l1.15,0.2c0.267,0.3,0.467,0.583,0.6,0.85c0.167,1.433,0.9,2.483,2.2,3.15c0.667,0.267,1.283,0.417,1.85,0.45h0.25
				c1.034,0.1,1.967-0.167,2.8-0.8l0.05-0.05l1.15-0.15h0.8c0.867,0,1.566,0.067,2.1,0.2c1,0.2,1.917,0.617,2.75,1.25
				c0.6,0.467,1.483,1.316,2.65,2.55c1.333,1.4,2.583,2.583,3.75,3.55l1.6,1.2l0.05,0.05l0.8,0.5l0.2,0.15l0.85,0.45
				c1.033,0.5,1.85,0.816,2.45,0.95l0.6,0.1h0.15c0.6,0.066,1.184-0.033,1.75-0.3l0.1,0.05l-0.7,14.9
				c-0.034,0.8,0.15,1.533,0.55,2.199c1.433,2.5,3.5,4.7,6.2,6.601c3.533,2.467,7.983,4.267,13.35,5.399
				c3.3,0.7,6.733,1.117,10.3,1.25c1.9,0.134,4.184,0.134,6.851,0h0.7c1.533-0.1,2.916-0.267,4.149-0.5
				c5.367-0.8,9.917-2.383,13.65-4.75c2.399-1.533,4.267-3.25,5.6-5.149c0.434-0.601,0.684-1.317,0.75-2.15l1.101-23.85
				c0.033-0.267,0.017-0.6-0.051-1c-0.267-2.333-1.683-4.417-4.25-6.25c0.134-1.167-0.133-2.217-0.8-3.15
				c-0.7-0.9-1.633-1.483-2.8-1.75c-0.434-0.066-0.95-0.1-1.55-0.1h-0.15c-1.066,0.033-2.217,0.15-3.45,0.35
				c-1.199,0.134-2,0.2-2.399,0.2l-0.75-0.1L109.75,74z"/>
			<g>
				<path style="fill-rule:evenodd;clip-rule:evenodd;fill:#470B17;" d="M119.05,77.4c0.7,0.167,1,0.583,0.9,1.25l-0.2,2.1
					c2.9,1.533,4.4,3.2,4.5,5l0.05,0.3L123.15,109.9l-0.101,0.35c-1.166,1.633-2.8,3.1-4.899,4.4
					c-3.267,2.033-7.317,3.399-12.15,4.1c-1.2,0.2-2.483,0.35-3.85,0.45h-0.25c-2.601,0.133-4.9,0.149-6.9,0.05
					c-3.533-0.2-6.8-0.6-9.8-1.2c-8.534-1.8-14.3-5.267-17.3-10.399l-0.05-0.351l0.8-17.649c-1.066-0.367-1.783-0.584-2.15-0.65
					c-0.833-0.167-1.517-0.25-2.05-0.25l-0.65,0.3l-0.3,0.05c-0.433,0-1.033-0.217-1.8-0.649l-1.55-0.95l-0.1-0.05l-1.3-1
					c-0.733-0.6-1.883-1.684-3.45-3.25c-1.3-1.4-2.333-2.384-3.1-2.95c-1.233-0.934-2.583-1.55-4.05-1.85
					c-0.933-0.167-1.85-0.25-2.75-0.25h-1.1c-0.7,0.067-1.3,0.167-1.8,0.3l-0.4,0.1l-0.35,0.15l-0.4,0.25
					c-0.133,0.2-0.3,0.267-0.5,0.2l-0.2-0.05c-0.3,0.066-0.533,0.05-0.7-0.05c-0.233-0.1-0.35-0.283-0.35-0.55
					c-0.067-0.9-0.6-1.85-1.6-2.85c-0.467-0.5-1.017-0.783-1.65-0.85l-0.65-0.15l-0.5-0.05c-0.534-0.167-0.833-0.4-0.9-0.7
					c-0.1-0.3-0.15-0.65-0.15-1.05c-0.066-0.233-0.033-0.483,0.1-0.75c0.3-0.534,1-1.05,2.1-1.55c1.2-0.566,2.433-0.866,3.7-0.9
					h1.05c1.5,0.133,2.833,0.317,4,0.55l0.45-0.1l0.15-0.05L46.1,70c0.367-0.033,0.683-0.033,0.95,0l1,0.15l3.2,0.95l0.1,0.05
					l1.05,0.35c2.3,0.967,4.3,1.9,6,2.8c2.833,1.434,5.317,2.983,7.45,4.65c1.1,0.833,1.933,1.55,2.5,2.15
					c0.133,0.133,0.2,0.316,0.2,0.55v0.05l-0.05,0.15l0.7,0.35c0.966-2.167,4.05-3.85,9.25-5.05c5.233-1.2,11.416-1.633,18.55-1.3
					c4.366,0.2,8.384,0.683,12.05,1.45l1.8,0.45l1.101,0.1c0.833,0.066,1.883,0,3.149-0.2c1.134-0.2,2.117-0.3,2.95-0.3h0.2
					C118.616,77.35,118.884,77.367,119.05,77.4z"/>
			</g>
			<g>
				
					<use xlink:href="#FlashAICB_x2F_Layer_1_x2F__x3C_Clip_Group_0_x3E__x5F_10"  width="12.2" height="11.9" y="-11.9" transform="matrix(1 0 0 -1 32.25 69.7002)" style="overflow:visible;"/>
				
					<use xlink:href="#FlashAICB_x2F_Layer_1_x2F__x3C_Clip_Group_0_x3E__x5F_9"  width="6.9" height="2.5" y="-2.5" transform="matrix(1 0 0 -1 37.3501 70.1499)" style="overflow:visible;"/>
				
					<use xlink:href="#FlashAICB_x2F_Layer_1_x2F__x3C_Clip_Group_0_x3E__x5F_8"  width="20.55" height="17.5" y="-17.5" transform="matrix(1 0 0 -1 31.6499 63.5498)" style="overflow:visible;"/>
				<g>
					<path style="fill-rule:evenodd;clip-rule:evenodd;fill:#693D22;" d="M62.5,79.05c1.467,0.4,3.267,1.233,5.4,2.5L67.05,86.9
						l-3.5,1.6c-0.867-1.934-1.633-3.483-2.3-4.65c-0.433-0.7-0.35-1.717,0.25-3.05L62.5,79.05z"/>
					<path style="fill-rule:evenodd;clip-rule:evenodd;fill:#8A4D22;" d="M40.2,73.5l6.65-2.65l16.75,10.5l-0.25,3.3
						c-0.233,2.367-0.167,3.65,0.2,3.85c-0.9-0.066-2.367-0.917-4.4-2.55c-2.6-2.667-4.55-4.55-5.85-5.65
						c-2.167-1.833-4.8-2.767-7.9-2.8c-1.533-0.033-2.75,0.133-3.65,0.5l-0.85,0.55c-0.566-0.866-0.85-1.966-0.85-3.3L40.2,73.5z"/>
					<path style="fill-rule:evenodd;clip-rule:evenodd;fill:#693B1D;" d="M40.55,73.7l-0.3-0.2l0.65-0.25
						c0.833,0.533,1.65,0.85,2.45,0.95c0.7,0.133,1.417,0.116,2.15-0.05c0.867-0.2,1.483-0.3,1.85-0.3c0.8,0.033,1.6,0.283,2.4,0.75
						c0.933,0.5,1.633,1.167,2.1,2c0.5,0.833,1.233,1.383,2.2,1.65c0.967,0.233,1.867,0.1,2.7-0.4c0.233-0.133,0.533-0.2,0.9-0.2
						l3.9,2.45l-3.2-1.4c-0.434-0.233-0.95-0.333-1.55-0.3c-0.533,0.034-0.966,0.133-1.3,0.3c-0.3,0.167-0.9,0.1-1.8-0.2
						c-0.9-0.333-1.5-0.717-1.8-1.15c-0.767-1.1-1.6-1.9-2.5-2.4c-0.467-0.267-1.183-0.45-2.15-0.55c-1.067-0.1-1.883,0-2.45,0.3
						c-0.6,0.3-1.316,0.333-2.15,0.1C41.917,74.6,41.217,74.233,40.55,73.7z"/>
					<path style="fill-rule:evenodd;clip-rule:evenodd;fill:#693B1D;" d="M43.6,75.35c0.533-0.034,1.267-0.167,2.2-0.4
						c0.867-0.167,1.684-0.117,2.45,0.15c0.533,0.2,1.317,0.8,2.35,1.8c1,0.967,2.017,1.617,3.05,1.95
						c0.967,0.3,2.167,0.617,3.6,0.95c1.167,0.333,2.2,0.884,3.1,1.65c0.933,0.733,1.95,1.7,3.05,2.9l-0.05,0.3v0.05l-0.85-0.8
						c-0.9-0.966-1.617-1.683-2.15-2.15c-0.967-0.8-2.1-1.367-3.4-1.7c-1.934-0.466-3.117-0.767-3.55-0.9
						c-0.9-0.3-1.583-0.65-2.05-1.05c-1.1-1.034-1.667-1.567-1.7-1.6c-0.767-0.633-1.483-1.033-2.15-1.2
						c-0.567-0.1-1.3-0.033-2.2,0.2c-0.966,0.233-1.65,0.333-2.05,0.3c-0.933-0.1-2-0.383-3.2-0.85l0.05-0.75
						C41.333,75.1,42.5,75.483,43.6,75.35z"/>
					<path style="fill-rule:evenodd;clip-rule:evenodd;fill:#693B1D;" d="M42.3,77.85l-0.85,0.3c-0.267-0.066-0.517-0.05-0.75,0.05
						l-0.25-0.45C41.083,77.55,41.7,77.583,42.3,77.85z"/>
					<path style="fill-rule:evenodd;clip-rule:evenodd;fill:#693B1D;" d="M42.95,77.05c-1.1-0.233-1.983-0.167-2.65,0.2l-0.15-0.5
						c1.7-0.267,3.367-0.05,5,0.65l0.25,0.1l-1.15,0.05C43.75,77.283,43.317,77.117,42.95,77.05z"/>
					<path style="fill-rule:evenodd;clip-rule:evenodd;fill:#693B1D;" d="M63.35,88l-1.4-0.1l-1.55-1
						c1.067,0.467,2.033,0.717,2.9,0.75L63.35,88z"/>
					<path style="fill-rule:evenodd;clip-rule:evenodd;fill:#693B1D;" d="M47.55,77.65L45.1,76.9c-1.9-0.633-3.517-0.867-4.85-0.7
						l-0.15,0.05l-0.05-0.8c1.067,0.4,2.25,0.633,3.55,0.7c0.667,0.034,1.45,0.184,2.35,0.45c1.167,0.4,2,0.65,2.5,0.75
						c1.767,0.4,3.55,1.25,5.35,2.55c0.567,0.4,1.567,1.15,3,2.25c1.4,1,2.733,1.717,4,2.15c0.934,0.3,1.767,0.634,2.5,1l-0.05,0.5
						l-0.75-0.5c-2.3-0.833-3.983-1.583-5.05-2.25c-0.3-0.2-1.3-0.966-3-2.3c-1.333-1.066-2.284-1.684-2.85-1.85l-0.7-0.2
						C49.8,78.167,48.683,77.816,47.55,77.65z"/>
					<path style="fill-rule:evenodd;clip-rule:evenodd;fill:#693B1D;" d="M63.25,86.45v0.5l-2.75-1
						c-0.567-0.233-1.283-0.634-2.15-1.2c-1.267-0.9-1.934-1.367-2-1.4l-0.8-0.85l2.75,1.6C60.267,85.367,61.917,86.15,63.25,86.45z
						"/>
					<path style="fill-rule:evenodd;clip-rule:evenodd;fill:#693B1D;" d="M59.65,82.65c0.233-0.466-0.3-0.95-1.6-1.45l-1.7-0.6
						l1.1,0.15c0.833,0.2,1.517,0.483,2.05,0.85c0.633,0.466,0.967,0.917,1,1.35c0.067,0.4-0.133,0.566-0.6,0.5
						c-0.433-0.067-1.033-0.333-1.8-0.8c-0.767-0.433-1.133-0.75-1.1-0.95c0.033-0.167,0.3-0.217,0.8-0.15
						c0.5,0.1,0.85,0.233,1.05,0.4c0.267,0.233,0.083,0.35-0.55,0.35c0.133-0.233,0.117-0.383-0.05-0.45
						c-0.6-0.1-0.717,0.017-0.35,0.35c0.233,0.233,0.55,0.417,0.95,0.55C59.283,82.917,59.55,82.883,59.65,82.65z"/>
					<path style="fill-rule:evenodd;clip-rule:evenodd;fill:#693B1D;" d="M47.1,75.9l-1.2,0.2l0.6-0.25
						c0.467-0.1,0.9-0.083,1.3,0.05c0.467,0.2,0.75,0.467,0.85,0.8c0.1,0.3-0.05,0.417-0.45,0.35c-0.434-0.1-0.8-0.233-1.1-0.4
						c-0.333-0.167-0.383-0.3-0.15-0.4c0.333-0.1,0.633-0.017,0.9,0.25c-0.1,0-0.2-0.017-0.3-0.05c-0.2,0-0.283,0.033-0.25,0.1
						c0.133,0.1,0.317,0.167,0.55,0.2c0.3,0.1,0.433,0.066,0.4-0.1c-0.033-0.2-0.15-0.367-0.35-0.5
						C47.667,75.983,47.4,75.9,47.1,75.9z"/>
					<path style="fill-rule:evenodd;clip-rule:evenodd;fill:#DE7E3F;" d="M49.55,71.2c2.367,0.733,5.217,1.95,8.55,3.65
						c2.8,1.433,5.283,2.983,7.45,4.65c1.067,0.833,1.85,1.517,2.35,2.05l-4.4,1.9c-0.8-0.767-1.867-1.634-3.2-2.6
						c-2.6-1.967-5.133-3.5-7.6-4.6c-3.434-1.533-6.55-2.434-9.35-2.7l-3.2,0.05c0.133-0.2,0.333-0.434,0.6-0.7
						c0.533-0.566,1.167-1,1.9-1.3c1.7-0.733,3.15-1.067,4.35-1L49.55,71.2z"/>
					<path style="fill-rule:evenodd;clip-rule:evenodd;fill:#B76933;" d="M46.2,70.65c1.167,0.467,2.283,0.65,3.35,0.55h0.1l2.5,0.9
						L49,71.65c-1.467-0.2-2.667-0.5-3.6-0.9L46.2,70.65z"/>
					<path style="fill-rule:evenodd;clip-rule:evenodd;fill:#B76933;" d="M49.85,74.7l1.5,0.95l-1.95-0.7
						c-0.4-0.367-0.967-0.567-1.7-0.6h-0.2l-1.15-0.3C47.95,74.117,49.117,74.333,49.85,74.7z"/>
					<path style="fill-rule:evenodd;clip-rule:evenodd;fill:#B76933;" d="M52,72.85c-2.933-0.3-5.117-0.7-6.55-1.2l-1.5-0.55
						l0.7-0.15c1.733,0.833,3.2,1.283,4.4,1.35l4.45,0.4c0.267,0.1,0.883,0.366,1.85,0.8C54.283,73.233,53.167,73.017,52,72.85z"/>
					<path style="fill-rule:evenodd;clip-rule:evenodd;fill:#B76933;" d="M64.15,83.15l-0.5,0.2l-0.9-1.15
						c-0.467-0.567-1.1-1.117-1.9-1.65c-0.967-0.667-1.95-1.15-2.95-1.45l-1.55-0.95c1.3,0.3,2.167,0.517,2.6,0.65
						c1.833,0.7,3.333,1.833,4.5,3.4L64.15,83.15z"/>
					<path style="fill-rule:evenodd;clip-rule:evenodd;fill:#B76933;" d="M57.55,75.15c-1.7-0.633-3.1-1.066-4.2-1.3
						c-6.1-1.333-9.383-2.083-9.85-2.25l-0.45-0.15l0.5-0.2l0.65,0.25c0.333,0.066,1.417,0.367,3.25,0.9
						c1.966,0.5,3.55,0.817,4.75,0.95c1.3,0.133,2.466,0.367,3.5,0.7c0.033,0,0.933,0.333,2.7,1l0.4,0.2
						c1.133,0.566,2.434,1.316,3.9,2.25c0.233,0.233,0.917,0.983,2.05,2.25c1,1.133,1.717,1.883,2.15,2.25l-0.25,0.05l-1.25-0.9
						c-0.133-0.133-0.783-0.833-1.95-2.1c-0.967-1.066-1.733-1.783-2.3-2.15C60.383,76.4,59.183,75.816,57.55,75.15z"/>
					<path style="fill-rule:evenodd;clip-rule:evenodd;fill:#B76933;" d="M51.3,73.6c2.233,0.5,3.983,1,5.25,1.5
						c1,0.4,2.067,0.8,3.2,1.2c0.767,0.367,1.567,1.083,2.4,2.15c1.467,1.8,2.817,3.066,4.05,3.8l-0.25,0.15
						c-0.567-0.333-0.934-0.583-1.1-0.75c-0.667-0.566-1.867-1.816-3.6-3.75c-0.4-0.433-1.2-0.966-2.4-1.6
						c-1.233-0.633-2.3-1.083-3.2-1.35c-2.233-0.634-5.467-1.367-9.7-2.2c-1.9-0.4-3.083-0.75-3.55-1.05l0.25-0.1
						c0.8,0.333,2.017,0.667,3.65,1C47.2,72.8,48.867,73.133,51.3,73.6z"/>
					<path style="fill-rule:evenodd;clip-rule:evenodd;fill:#B76933;" d="M66.85,80.6l0.8,1.05l-0.4,0.2
						c-0.433-0.367-0.7-0.65-0.8-0.85l-0.7-1.35L66.85,80.6z"/>
					<polygon style="fill-rule:evenodd;clip-rule:evenodd;fill:#B76933;" points="40.35,73.3 40.6,73 42.35,73.5 40.8,73.5 					"/>
					<path style="fill-rule:evenodd;clip-rule:evenodd;fill:#B76933;" d="M43.55,72.65c0.7,0.167,2.067,0.417,4.1,0.75
						c1.867,0.367,3.217,0.784,4.05,1.25c0.667,0.367,1.5,0.85,2.5,1.45c0.933,0.5,2.2,1.083,3.8,1.75
						c3.133,1.333,5.383,2.733,6.75,4.2l0.55,0.6l-0.4,0.2c-0.566-0.767-1.117-1.367-1.65-1.8c-0.7-0.566-1.833-1.25-3.4-2.05
						c-1.467-0.767-2.783-1.367-3.95-1.8c-0.833-0.3-1.9-0.817-3.2-1.55c-1.367-0.767-2.233-1.216-2.6-1.35
						c-0.5-0.233-1.867-0.533-4.1-0.9c-2.367-0.367-3.75-0.617-4.15-0.75l-0.65-0.2l0.55-0.4C41.95,72.217,42.55,72.417,43.55,72.65
						z"/>
					<path style="fill-rule:evenodd;clip-rule:evenodd;fill:#B76933;" d="M54.3,75.35c-0.066-0.2,0.3-0.2,1.1,0
						c0.767,0.167,1.583,0.417,2.45,0.75c1.3,0.466,2.217,1.05,2.75,1.75c-1.1-1-2.417-1.667-3.95-2c-0.566-0.133-0.9-0.2-1-0.2
						c-0.2,0.034-0.133,0.167,0.2,0.4c0.333,0.3,0.883,0.6,1.65,0.9c0.733,0.333,1.167,0.466,1.3,0.4c0.1-0.034,0-0.133-0.3-0.3
						c-0.267-0.2-0.533-0.333-0.8-0.4c-0.2-0.066-0.3-0.05-0.3,0.05c0.033,0.033,0.067,0.083,0.1,0.15
						c-0.233-0.067-0.45-0.217-0.65-0.45c-0.133-0.167,0-0.2,0.4-0.1c0.433,0.1,0.867,0.267,1.3,0.5
						c0.5,0.233,0.917,0.517,1.25,0.85c0.367,0.367,0.317,0.534-0.15,0.5c-0.533-0.066-1.533-0.5-3-1.3
						C55.15,76.083,54.367,75.583,54.3,75.35z"/>
				</g>
				
					<use xlink:href="#FlashAICB_x2F_Layer_1_x2F__x3C_Clip_Group_0_x3E__x5F_7"  width="24.9" height="23.1" y="-23.1" transform="matrix(1 0 0 -1 59.6499 78.3501)" style="overflow:visible;"/>
				
					<use xlink:href="#FlashAICB_x2F_Layer_1_x2F__x3C_Clip_Group_0_x3E__x5F_6"  width="38.3" height="34.85" y="-34.85" transform="matrix(1 0 0 -1 58.7998 71.8501)" style="overflow:visible;"/>
				
					<use xlink:href="#FlashAICB_x2F_Layer_1_x2F__x3C_Clip_Group_0_x3E__x5F_5"  width="18.15" height="16.35" y="-16.35" transform="matrix(1 0 0 -1 63.3501 79)" style="overflow:visible;"/>
				
					<use xlink:href="#FlashAICB_x2F_Layer_1_x2F__x3C_Clip_Group_0_x3E__x5F_4"  width="5.7" height="6.8" y="-6.8" transform="matrix(1 0 0 -1 113.6504 78)" style="overflow:visible;"/>
				
					<use xlink:href="#FlashAICB_x2F_Layer_1_x2F__x3C_Clip_Group_0_x3E__x5F_3"  width="55.65" height="36.4" y="-36.4" transform="matrix(1 0 0 -1 68 83.4502)" style="overflow:visible;"/>
				<g>
					
						<use xlink:href="#FlashAICB_x2F_Layer_1_x2F__x3C_Group_x3E_"  width="23.85" height="34.8" y="-34.8" transform="matrix(1 0 0 -1 99.7998 84.9502)" style="overflow:visible;opacity:0.4219;enable-background:new    ;"/>
					<path style="fill-rule:evenodd;clip-rule:evenodd;fill:#790104;" d="M119,85.8l4.65,0.2l-1.15,23.9
						c-1.066,1.533-2.684,2.949-4.85,4.25L119,85.8z"/>
				</g>
				
					<use xlink:href="#FlashAICB_x2F_Layer_1_x2F__x3C_Clip_Group_0_x3E__x5F_2"  width="8.85" height="29.5" y="-29.5" transform="matrix(1 0 0 -1 72.6001 86.4502)" style="overflow:visible;"/>
				<g>
					<path style="fill-rule:evenodd;clip-rule:evenodd;fill:#790104;" d="M69.6,83.45l2.05,0.1L70.4,109.9
						c-0.7-0.733-1.35-1.584-1.95-2.551L69.6,83.45z"/>
				</g>
				
					<use xlink:href="#FlashAICB_x2F_Layer_1_x2F__x3C_Clip_Group_0_x3E__x5F_1"  width="54.8" height="18.95" y="-18.95" transform="matrix(1 0 0 -1 69.1499 75.25)" style="overflow:visible;"/>
				
					<use xlink:href="#FlashAICB_x2F_Layer_1_x2F__x3C_Clip_Group_0_x3E__x5F_11"  width="7.9" height="7.65" y="-7.65" transform="matrix(1 0 0 -1 110.4502 77.5498)" style="overflow:visible;"/>
				<g>
					<path style="fill-rule:evenodd;clip-rule:evenodd;fill:#909090;" d="M111.3,78.45c0.4,0.1,1.717,0.033,3.95-0.2
						c2.2-0.267,3.483-0.333,3.85-0.2c0.334,0.134,0.101,0.534-0.699,1.2c-0.801,0.7-1.067,1.1-0.801,1.2
						c4.101,1.7,6.101,3.55,6,5.55c-0.133,2.267-2.866,4.083-8.199,5.45c-5.367,1.366-11.784,1.866-19.25,1.5
						c-7.467-0.333-13.8-1.434-19-3.3c-5.2-1.867-7.733-3.934-7.6-6.2c0.1-2.267,2.817-4.083,8.15-5.45
						c5.367-1.333,11.783-1.833,19.25-1.5C102.15,76.733,106.934,77.383,111.3,78.45z M116.55,80.75c-0.3-0.133-0.133-0.5,0.5-1.1
						c0.601-0.6,0.7-0.966,0.3-1.1c-0.3-0.066-1.449,0-3.449,0.2c-1.967,0.233-3.134,0.3-3.5,0.2c-4.101-0.9-8.534-1.45-13.301-1.65
						c-7.1-0.333-13.183,0.067-18.25,1.2c-5.1,1.167-7.684,2.75-7.75,4.75c-0.1,1.967,2.333,3.767,7.3,5.4
						c4.934,1.633,10.95,2.616,18.05,2.949c7.066,0.334,13.149-0.083,18.25-1.25c5.066-1.166,7.649-2.732,7.75-4.7
						C122.55,83.883,120.583,82.25,116.55,80.75z"/>
				</g>
			</g>
		</g>
		<g>
			<g>
				<g>
					<g>
						<g>
							<g>
								<g>
									<g>
										
											<linearGradient id="SVGID_46_" gradientUnits="userSpaceOnUse" x1="-30.062" y1="71.3745" x2="-9.7126" y2="71.3745" gradientTransform="matrix(0.457 -0.8895 0.8895 0.457 -1.411140e-004 -3.784895e-005)">
											<stop  offset="0.2824" style="stop-color:#AB3A48"/>
											<stop  offset="0.2863" style="stop-color:#AB3B48"/>
											<stop  offset="0.702" style="stop-color:#D88F62"/>
											<stop  offset="0.8941" style="stop-color:#E9B06C"/>
										</linearGradient>
										<path style="fill-rule:evenodd;clip-rule:evenodd;fill:url(#SVGID_46_);" d="M45.95,49.25l-0.5-1.45
											c-0.233-0.833-0.25-1.7-0.05-2.6c0.233-0.867,0.667-1.6,1.3-2.2c0.966-0.934,2.083-1.367,3.35-1.3
											c0.567,0,1.067,0.1,1.5,0.3L53,42.5l1.25-0.85c0.8-0.6,1.75-0.9,2.85-0.9c0.767,0.066,1.433,0.233,2,0.5l0.1,0.05
											c0.8,0.467,1.417,1.083,1.85,1.85c0.467,0.767,0.667,1.6,0.6,2.5l-0.05,1.5l1.25,0.9c0.733,0.567,1.267,1.25,1.6,2.05
											c0.3,0.833,0.367,1.7,0.2,2.6c-0.133,0.966-0.583,1.816-1.35,2.55c-0.566,0.533-1.216,0.9-1.95,1.1l-1.5,0.45l-0.45,1.4
											c-0.267,0.733-0.683,1.383-1.25,1.95c-0.733,0.7-1.6,1.117-2.6,1.25H54.8c-0.733,0-1.417-0.167-2.05-0.5
											c-0.7-0.333-1.283-0.85-1.75-1.55l-0.85-1.3H48.6c-0.9-0.033-1.717-0.283-2.45-0.75c-0.767-0.466-1.333-1.1-1.7-1.9
											c-0.867-1.767-0.684-3.417,0.55-4.95L45.95,49.25z"/>
										<path style="fill-rule:evenodd;clip-rule:evenodd;fill:none;stroke:#F7E0E7;stroke-width:0.25;" d="M45.95,49.25
											l-0.5-1.45c-0.233-0.833-0.25-1.7-0.05-2.6c0.233-0.867,0.667-1.6,1.3-2.2c0.966-0.934,2.083-1.367,3.35-1.3
											c0.567,0,1.067,0.1,1.5,0.3L53,42.5l1.25-0.85c0.8-0.6,1.75-0.9,2.85-0.9c0.767,0.066,1.433,0.233,2,0.5l0.1,0.05
											c0.8,0.467,1.417,1.083,1.85,1.85c0.467,0.767,0.667,1.6,0.6,2.5l-0.05,1.5l1.25,0.9c0.733,0.567,1.267,1.25,1.6,2.05
											c0.3,0.833,0.367,1.7,0.2,2.6c-0.133,0.966-0.583,1.816-1.35,2.55c-0.566,0.533-1.216,0.9-1.95,1.1l-1.5,0.45l-0.45,1.4
											c-0.267,0.733-0.683,1.383-1.25,1.95c-0.733,0.7-1.6,1.117-2.6,1.25H54.8c-0.733,0-1.417-0.167-2.05-0.5
											c-0.7-0.333-1.283-0.85-1.75-1.55l-0.85-1.3H48.6c-0.9-0.033-1.717-0.283-2.45-0.75c-0.767-0.466-1.333-1.1-1.7-1.9
											c-0.867-1.767-0.684-3.417,0.55-4.95L45.95,49.25z"/>
									</g>
								</g>
								<path style="fill-rule:evenodd;clip-rule:evenodd;fill:#470B17;" d="M59,45.55l-0.1,2.9l2.35,1.75
									c0.633,0.5,0.9,1.167,0.8,2c-0.1,0.433-0.3,0.8-0.6,1.1c-0.2,0.233-0.483,0.4-0.85,0.5l-2.8,0.8l-0.95,2.75
									c-0.067,0.267-0.25,0.55-0.55,0.85c-0.233,0.233-0.6,0.417-1.1,0.55c-0.867,0.1-1.517-0.2-1.95-0.9L51.6,55.4h-2.95
									c-0.833-0.066-1.433-0.45-1.8-1.15c-0.367-0.733-0.283-1.45,0.25-2.15l1.8-2.3L48,47c-0.233-0.833-0.05-1.517,0.55-2.05
									c0.6-0.6,1.3-0.75,2.1-0.45l2.75,1l2.4-1.7c0.733-0.466,1.45-0.517,2.15-0.15C58.717,44.117,59.067,44.75,59,45.55z"/>
								
									<linearGradient id="SVGID_47_" gradientUnits="userSpaceOnUse" x1="-26.4355" y1="71.3525" x2="-13.309" y2="71.3525" gradientTransform="matrix(0.4571 -0.8894 0.8894 0.4571 -5.049109e-004 2.480149e-004)">
									<stop  offset="0.0235" style="stop-color:#808080"/>
									<stop  offset="0.7294" style="stop-color:#E6E6E6"/>
									<stop  offset="1" style="stop-color:#B3B3B3"/>
								</linearGradient>
								<path style="fill-rule:evenodd;clip-rule:evenodd;fill:url(#SVGID_47_);" d="M57.5,44.5c0.367,0.2,0.55,0.533,0.55,1
									l-0.1,3.4l2.75,2.05c0.367,0.3,0.5,0.667,0.4,1.1c-0.067,0.233-0.167,0.417-0.3,0.55l-0.45,0.3l-3.3,0.9l-1.1,3.25
									c-0.034,0.2-0.133,0.35-0.3,0.45c-0.133,0.167-0.333,0.267-0.6,0.3c-0.4,0.067-0.75-0.083-1.05-0.45l-1.9-2.85l-3.45-0.05
									c-0.4,0-0.717-0.2-0.95-0.6c-0.167-0.434-0.117-0.817,0.15-1.15l2.1-2.7l-1-3.3c-0.167-0.4-0.083-0.767,0.25-1.1
									c0.333-0.3,0.716-0.367,1.15-0.2l3.2,1.15l2.8-2C56.75,44.316,57.133,44.3,57.5,44.5z"/>
								<path style="fill-rule:evenodd;clip-rule:evenodd;fill:#FFFFFF;" d="M56.35,44.55c0.4-0.233,0.783-0.25,1.15-0.05
									s0.55,0.533,0.55,1l-0.1,3.4l2.75,2.05c0.367,0.3,0.5,0.667,0.4,1.1c-0.067,0.233-0.167,0.417-0.3,0.55l-0.45,0.3H60.3
									l0.15-0.35c0.1-0.433-0.034-0.8-0.4-1.1L57.3,49.4l0.1-3.4c0.033-0.434-0.15-0.767-0.55-1s-0.783-0.217-1.15,0.05l-2.8,2
									l-3.2-1.15c-0.167-0.1-0.367-0.117-0.6-0.05l0.1-0.25c0.333-0.3,0.716-0.367,1.15-0.2l3.2,1.15L56.35,44.55z"/>
							</g>
						</g>
					</g>
				</g>
			</g>
			<g>
				<g>
					<g>
						<g>
							<g>
								<g>
									<g>
										<linearGradient id="SVGID_48_" gradientUnits="userSpaceOnUse" x1="113.1641" y1="41.2427" x2="122.4641" y2="59.3427">
											<stop  offset="0.2824" style="stop-color:#AB3A48"/>
											<stop  offset="0.2863" style="stop-color:#AB3B48"/>
											<stop  offset="0.702" style="stop-color:#D88F62"/>
											<stop  offset="0.8941" style="stop-color:#E9B06C"/>
										</linearGradient>
										<path style="fill-rule:evenodd;clip-rule:evenodd;fill:url(#SVGID_48_);" d="M117.95,41.65l1.25,0.85l1.45-0.5
											c0.466-0.2,0.966-0.3,1.5-0.3c1.267-0.034,2.383,0.4,3.35,1.3c0.634,0.6,1.066,1.333,1.3,2.2
											c0.233,0.866,0.217,1.733-0.05,2.6l-0.45,1.45l0.9,1.2c1.233,1.533,1.416,3.183,0.55,4.95c-0.366,0.8-0.934,1.434-1.7,1.9
											c-0.733,0.467-1.55,0.717-2.45,0.75h-1.55l-0.85,1.3c-0.467,0.7-1.05,1.216-1.75,1.55c-0.634,0.333-1.316,0.5-2.05,0.5
											h-0.75c-1-0.133-1.867-0.55-2.601-1.25c-0.6-0.6-1-1.25-1.2-1.95l-0.5-1.4l-1.5-0.45c-0.666-0.2-1.3-0.567-1.899-1.1
											c-0.767-0.733-1.233-1.583-1.4-2.55c-0.166-0.9-0.083-1.767,0.25-2.6c0.3-0.8,0.816-1.483,1.55-2.05l1.25-0.9l-0.05-1.5
											c-0.033-0.9,0.167-1.733,0.601-2.5c0.433-0.767,1.05-1.383,1.85-1.85l0.1-0.05c0.567-0.267,1.233-0.434,2-0.5
											C116.2,40.75,117.15,41.05,117.95,41.65z"/>
										<path style="fill-rule:evenodd;clip-rule:evenodd;fill:none;stroke:#F7E0E7;stroke-width:0.25;" d="M117.95,41.65
											l1.25,0.85l1.45-0.5c0.466-0.2,0.966-0.3,1.5-0.3c1.267-0.034,2.383,0.4,3.35,1.3c0.634,0.6,1.066,1.333,1.3,2.2
											c0.233,0.866,0.217,1.733-0.05,2.6l-0.45,1.45l0.9,1.2c1.233,1.533,1.416,3.183,0.55,4.95c-0.366,0.8-0.934,1.434-1.7,1.9
											c-0.733,0.467-1.55,0.717-2.45,0.75h-1.55l-0.85,1.3c-0.467,0.7-1.05,1.216-1.75,1.55c-0.634,0.333-1.316,0.5-2.05,0.5
											h-0.75c-1-0.133-1.867-0.55-2.601-1.25c-0.6-0.6-1-1.25-1.2-1.95l-0.5-1.4l-1.5-0.45c-0.666-0.2-1.3-0.567-1.899-1.1
											c-0.767-0.733-1.233-1.583-1.4-2.55c-0.166-0.9-0.083-1.767,0.25-2.6c0.3-0.8,0.816-1.483,1.55-2.05l1.25-0.9l-0.05-1.5
											c-0.033-0.9,0.167-1.733,0.601-2.5c0.433-0.767,1.05-1.383,1.85-1.85l0.1-0.05c0.567-0.267,1.233-0.434,2-0.5
											C116.2,40.75,117.15,41.05,117.95,41.65z"/>
									</g>
								</g>
								<path style="fill-rule:evenodd;clip-rule:evenodd;fill:#470B17;" d="M118.8,45.5l2.75-1c0.8-0.3,1.5-0.15,2.101,0.45
									c0.6,0.533,0.783,1.216,0.55,2.05l-0.9,2.8l1.8,2.3c0.534,0.7,0.617,1.417,0.25,2.15c-0.366,0.7-0.966,1.083-1.8,1.15h-2.95
									l-1.649,2.45c-0.434,0.7-1.084,1-1.95,0.9c-0.5-0.133-0.866-0.316-1.1-0.55c-0.301-0.3-0.483-0.583-0.551-0.85l-0.899-2.75
									l-2.851-0.8c-0.333-0.1-0.616-0.267-0.85-0.5c-0.3-0.3-0.5-0.667-0.6-1.1c-0.101-0.833,0.166-1.5,0.8-2l2.35-1.75l-0.1-2.9
									c0-0.833,0.35-1.466,1.05-1.9c0.7-0.367,1.417-0.316,2.15,0.15L118.8,45.5z"/>
								<linearGradient id="SVGID_49_" gradientUnits="userSpaceOnUse" x1="123.6387" y1="53.3135" x2="111.6887" y2="47.8885">
									<stop  offset="0.0235" style="stop-color:#808080"/>
									<stop  offset="0.7294" style="stop-color:#E6E6E6"/>
									<stop  offset="1" style="stop-color:#B3B3B3"/>
								</linearGradient>
								<path style="fill-rule:evenodd;clip-rule:evenodd;fill:url(#SVGID_49_);" d="M114.7,44.5c0.366-0.2,0.75-0.184,1.149,0.05
									l2.801,2l3.25-1.15c0.366-0.167,0.733-0.1,1.1,0.2c0.3,0.3,0.4,0.667,0.3,1.1l-1.05,3.3l2.1,2.7
									c0.334,0.333,0.384,0.716,0.15,1.15c-0.233,0.4-0.55,0.6-0.95,0.6l-3.45,0.05l-1.899,2.85c-0.3,0.367-0.65,0.517-1.05,0.45
									c-0.233-0.033-0.434-0.133-0.601-0.3c-0.133-0.1-0.233-0.25-0.3-0.45l-1.1-3.25l-3.301-0.9l-0.449-0.3
									c-0.134-0.133-0.233-0.317-0.301-0.55c-0.066-0.466,0.084-0.833,0.45-1.1l2.75-2.05l-0.149-3.4
									C114.15,45.033,114.333,44.7,114.7,44.5z"/>
								<path style="fill-rule:evenodd;clip-rule:evenodd;fill:#FFFFFF;" d="M114.9,49.4l-2.75,2.05c-0.367,0.3-0.5,0.667-0.4,1.1
									l0.15,0.35h-0.051l-0.449-0.3c-0.134-0.133-0.233-0.317-0.301-0.55c-0.066-0.466,0.084-0.833,0.45-1.1l2.75-2.05l-0.149-3.4
									c0-0.467,0.183-0.8,0.55-1c0.366-0.2,0.75-0.184,1.149,0.05l2.801,2l3.25-1.15c0.366-0.167,0.733-0.1,1.1,0.2l0.15,0.25
									c-0.233-0.067-0.45-0.05-0.65,0.05l-3.2,1.15l-2.8-2c-0.333-0.233-0.717-0.25-1.15-0.05c-0.366,0.2-0.55,0.533-0.55,1
									L114.9,49.4z"/>
							</g>
						</g>
					</g>
				</g>
			</g>
		</g>
		
			<use xlink:href="#FlashAICB_x2F_Layer_1_x2F__x3C_Path_x3E_"  width="128.6" height="61.9" y="-61.9" transform="matrix(1 0 0 -1 21.5498 85.9502)" style="overflow:visible;opacity:0.25;enable-background:new    ;"/>
		
			<use xlink:href="#FlashAICB_x2F_Layer_1_x2F__x3C_Group_x3E__x5F_0"  width="119.2" height="66.434" y="-66.434" transform="matrix(1 0 0 -1 26.25 22.2002)" style="overflow:visible;opacity:0.7813;enable-background:new    ;"/>
	</g>
</g>
</svg>
