<?xml version="1.0" encoding="iso-8859-1"?>
<!-- Generator: Adobe Illustrator 15.1.0, SVG Export Plug-In . SVG Version: 6.00 Build 0)  -->
<!DOCTYPE svg PUBLIC "-//W3C//DTD SVG 1.1//EN" "http://www.w3.org/Graphics/SVG/1.1/DTD/svg11.dtd">
<svg version="1.1" id="Layer_1" xmlns="http://www.w3.org/2000/svg" xmlns:xlink="http://www.w3.org/1999/xlink" x="0px" y="0px"
	 width="171.75px" height="172.35px" viewBox="0 0 171.75 172.35" style="enable-background:new 0 0 171.75 172.35;"
	 xml:space="preserve">
<symbol  id="FlashAICB_x2F_Layer_1_x2F__x3C_Clip_Group_0_x3E_" viewBox="0 -50.8 50.85 50.8">
	<g id="Layer_1_3_">
	</g>
	<g>
		<defs>
			<path id="SVGID_1_" d="M34.45-16.45c-2.5,2.5-5.5,3.75-9,3.75c-3.534,0-6.534-1.25-9-3.75c-2.5-2.466-3.75-5.45-3.75-8.95
				c0-3.533,1.25-6.533,3.75-9c2.466-2.5,5.466-3.75,9-3.75c3.5,0,6.5,1.25,9,3.75c2.466,2.467,3.7,5.467,3.7,9
				C38.15-21.9,36.917-18.917,34.45-16.45z"/>
		</defs>
		<clipPath id="SVGID_2_">
			<use xlink:href="#SVGID_1_"  style="overflow:visible;"/>
		</clipPath>
		<g id="Layer_3_1_" style="clip-path:url(#SVGID_2_);">
			<radialGradient id="SVGID_3_" cx="25.1001" cy="-25.2002" r="10.5889" gradientUnits="userSpaceOnUse">
				<stop  offset="0" style="stop-color:#E2F3F5"/>
				<stop  offset="0.4275" style="stop-color:#E0F2F4"/>
				<stop  offset="0.6588" style="stop-color:#D9F0F2"/>
				<stop  offset="0.8431" style="stop-color:#CCEBEE"/>
				<stop  offset="1" style="stop-color:#BAE5E9"/>
				<stop  offset="1" style="stop-color:#BAE5E9"/>
			</radialGradient>
			<polygon style="fill-rule:evenodd;clip-rule:evenodd;fill:url(#SVGID_3_);" points="25.45,0 50.85,-25.4 25.45,-50.8 0,-25.4 			
				"/>
		</g>
	</g>
	<g id="Layer_4_1_">
	</g>
</symbol>
<symbol  id="FlashAICB_x2F_Layer_1_x2F__x3C_Clip_Group_0_x3E__x5F_0" viewBox="0 -12.367 20.111 12.367">
	<g id="Layer_1_5_">
	</g>
	<g>
		<defs>
			<polygon id="SVGID_4_" points="0,0 0,-12.35 20.1,-12.35 20.1,0 			"/>
		</defs>
		<clipPath id="SVGID_5_">
			<use xlink:href="#SVGID_4_"  style="overflow:visible;"/>
		</clipPath>
		<g id="Layer_3_2_" style="clip-path:url(#SVGID_5_);">
			<path style="fill-rule:evenodd;clip-rule:evenodd;fill:#FFFFFF;" d="M12.35-10.05c2.967,1.066,5.133,3.066,6.5,6
				C19.517-2.617,19.9-1.267,20,0c0.233-1.3,0.1-2.75-0.4-4.35c-1-3.233-3.317-5.633-6.95-7.2C9.917-12.717,7-12.633,3.9-11.3
				c-1.457,0.651-2.666,1.384-3.625,2.2c0.715-0.574,1.707-1.057,2.975-1.45C6.017-11.417,9.05-11.25,12.35-10.05z"/>
		</g>
	</g>
	<g id="Layer_4_2_">
	</g>
</symbol>
<symbol  id="FlashAICB_x2F_Layer_1_x2F__x3C_Clip_Group_0_x3E__x5F_1" viewBox="0 -21.35 21.35 21.35">
	<g id="Layer_1_6_">
	</g>
	<g>
		<defs>
			<path id="SVGID_6_" d="M14.45-6.85C13.417-5.817,12.167-5.3,10.7-5.3c-1.467,0-2.733-0.517-3.8-1.55
				c-1.033-1.066-1.55-2.333-1.55-3.8s0.517-2.733,1.55-3.8C7.967-15.483,9.233-16,10.7-16c1.466,0,2.716,0.517,3.75,1.55
				c1.033,1.067,1.55,2.333,1.55,3.8S15.483-7.917,14.45-6.85z"/>
		</defs>
		<clipPath id="SVGID_7_">
			<use xlink:href="#SVGID_6_"  style="overflow:visible;"/>
		</clipPath>
		<g id="Layer_3_3_" style="clip-path:url(#SVGID_7_);">
			<radialGradient id="SVGID_8_" cx="10.5498" cy="-10.5498" r="4.4194" gradientUnits="userSpaceOnUse">
				<stop  offset="0" style="stop-color:#E2F3F5"/>
				<stop  offset="0.4275" style="stop-color:#E0F2F4"/>
				<stop  offset="0.6588" style="stop-color:#D9F0F2"/>
				<stop  offset="0.8431" style="stop-color:#CCEBEE"/>
				<stop  offset="1" style="stop-color:#BAE5E9"/>
				<stop  offset="1" style="stop-color:#BAE5E9"/>
			</radialGradient>
			<polygon style="fill-rule:evenodd;clip-rule:evenodd;fill:url(#SVGID_8_);" points="10.7,0 21.35,-10.65 10.7,-21.35 0,-10.65 
							"/>
		</g>
	</g>
	<g id="Layer_4_3_">
	</g>
</symbol>
<symbol  id="FlashAICB_x2F_Layer_1_x2F__x3C_Clip_Group_0_x3E__x5F_2" viewBox="0 -5.2 8.45 5.2">
	<g id="Layer_1_8_">
	</g>
	<g>
		<defs>
			<polygon id="SVGID_9_" points="0,0 0,-5.2 8.45,-5.2 8.45,0 			"/>
		</defs>
		<clipPath id="SVGID_10_">
			<use xlink:href="#SVGID_9_"  style="overflow:visible;"/>
		</clipPath>
		<g id="Layer_3_4_" style="clip-path:url(#SVGID_10_);">
			<path style="fill-rule:evenodd;clip-rule:evenodd;fill:#FFFFFF;" d="M8.25-1.85c-0.433-1.367-1.417-2.367-2.95-3
				c-1.133-0.467-2.367-0.433-3.7,0.1c-0.574,0.272-1.066,0.572-1.475,0.9c0.294-0.226,0.702-0.426,1.225-0.6
				C2.517-4.783,3.783-4.7,5.15-4.2C6.417-3.767,7.333-2.933,7.9-1.7C8.2-1.1,8.367-0.533,8.4,0C8.5-0.567,8.45-1.183,8.25-1.85z"/>
		</g>
	</g>
	<g id="Layer_4_4_">
	</g>
</symbol>
<symbol  id="FlashAICB_x2F_Layer_1_x2F__x3C_Clip_Group_0_x3E__x5F_3" viewBox="0 -83.05 83.1 83.05">
	<g id="Layer_1_9_">
	</g>
	<g>
		<defs>
			<path id="SVGID_11_" d="M56.25-26.85c-4.033,4.067-8.933,6.1-14.7,6.1c-5.733,0-10.617-2.033-14.65-6.1
				c-4.066-4.066-6.1-8.967-6.1-14.7c0-5.733,2.034-10.617,6.1-14.65c4.033-4.066,8.917-6.1,14.65-6.1
				c5.733,0,10.633,2.033,14.7,6.1c4.067,4.034,6.1,8.917,6.1,14.65C62.35-35.817,60.317-30.917,56.25-26.85z"/>
		</defs>
		<clipPath id="SVGID_12_">
			<use xlink:href="#SVGID_11_"  style="overflow:visible;"/>
		</clipPath>
		<g id="Layer_3_5_" style="clip-path:url(#SVGID_12_);">
			<radialGradient id="SVGID_13_" cx="41" cy="-41.2002" r="17.3241" gradientUnits="userSpaceOnUse">
				<stop  offset="0" style="stop-color:#E2F3F5"/>
				<stop  offset="0.4275" style="stop-color:#E0F2F4"/>
				<stop  offset="0.6588" style="stop-color:#D9F0F2"/>
				<stop  offset="0.8431" style="stop-color:#CCEBEE"/>
				<stop  offset="1" style="stop-color:#BAE5E9"/>
				<stop  offset="1" style="stop-color:#BAE5E9"/>
			</radialGradient>
			<polygon style="fill-rule:evenodd;clip-rule:evenodd;fill:url(#SVGID_13_);" points="41.55,0 83.1,-41.55 41.55,-83.05 0,-41.55 
							"/>
		</g>
	</g>
	<g id="Layer_4_5_">
	</g>
</symbol>
<symbol  id="FlashAICB_x2F_Layer_1_x2F__x3C_Clip_Group_0_x3E__x5F_4" viewBox="0 -20.221 32.845 20.221">
	<g id="Layer_1_11_">
	</g>
	<g>
		<defs>
			<polygon id="SVGID_14_" points="0,0 0,-20.2 32.75,-20.2 32.75,0 			"/>
		</defs>
		<clipPath id="SVGID_15_">
			<use xlink:href="#SVGID_14_"  style="overflow:visible;"/>
		</clipPath>
		<g id="Layer_3_6_" style="clip-path:url(#SVGID_15_);">
			<path style="fill-rule:evenodd;clip-rule:evenodd;fill:#FFFFFF;" d="M32-7.15c-1.6-5.3-5.383-9.217-11.35-11.75
				c-4.467-1.9-9.25-1.75-14.35,0.45c-2.325,1.01-4.283,2.185-5.875,3.525c1.17-0.928,2.762-1.704,4.775-2.325
				c4.566-1.4,9.533-1.133,14.9,0.8c4.833,1.733,8.383,5,10.65,9.8c1.1,2.4,1.733,4.617,1.9,6.65C33.05-2.133,32.833-4.517,32-7.15z
				"/>
		</g>
	</g>
	<g id="Layer_4_6_">
	</g>
</symbol>
<symbol  id="FlashAICB_x2F_Layer_1_x2F__x3C_Clip_Group_0_x3E__x5F_5" viewBox="0 -46.35 46.4 46.35">
	<g id="Layer_1_12_">
	</g>
	<g>
		<defs>
			<path id="SVGID_16_" d="M31.4-15c-2.267,2.267-5,3.4-8.2,3.4c-3.2,0-5.934-1.133-8.2-3.4s-3.4-5-3.4-8.2
				c0-3.2,1.133-5.933,3.4-8.2c2.267-2.233,5-3.35,8.2-3.35c3.2,0,5.933,1.117,8.2,3.35c2.267,2.267,3.4,5,3.4,8.2
				C34.8-20,33.667-17.267,31.4-15z"/>
		</defs>
		<clipPath id="SVGID_17_">
			<use xlink:href="#SVGID_16_"  style="overflow:visible;"/>
		</clipPath>
		<g id="Layer_3_7_" style="clip-path:url(#SVGID_17_);">
			<radialGradient id="SVGID_18_" cx="22.8999" cy="-23" r="9.6167" gradientUnits="userSpaceOnUse">
				<stop  offset="0" style="stop-color:#E2F3F5"/>
				<stop  offset="0.4275" style="stop-color:#E0F2F4"/>
				<stop  offset="0.6588" style="stop-color:#D9F0F2"/>
				<stop  offset="0.8431" style="stop-color:#CCEBEE"/>
				<stop  offset="1" style="stop-color:#BAE5E9"/>
				<stop  offset="1" style="stop-color:#BAE5E9"/>
			</radialGradient>
			<polygon style="fill-rule:evenodd;clip-rule:evenodd;fill:url(#SVGID_18_);" points="23.2,0 46.4,-23.2 23.2,-46.35 0,-23.2 			
				"/>
		</g>
	</g>
	<g id="Layer_4_7_">
	</g>
</symbol>
<symbol  id="FlashAICB_x2F_Layer_1_x2F__x3C_Clip_Group_0_x3E__x5F_6" viewBox="0 -11.257 18.317 11.257">
	<g id="Layer_1_14_">
	</g>
	<g>
		<defs>
			<polygon id="SVGID_19_" points="0,0 0,-11.25 18.25,-11.25 18.25,0 			"/>
		</defs>
		<clipPath id="SVGID_20_">
			<use xlink:href="#SVGID_19_"  style="overflow:visible;"/>
		</clipPath>
		<g id="Layer_3_8_" style="clip-path:url(#SVGID_20_);">
			<path style="fill-rule:evenodd;clip-rule:evenodd;fill:#FFFFFF;" d="M11.2-9.2c2.7,0.967,4.667,2.8,5.9,5.5
				c0.633,1.333,1,2.567,1.1,3.7c0.233-1.2,0.117-2.533-0.35-4c-0.9-2.967-3.017-5.15-6.35-6.55c-2.5-1.034-5.167-0.934-8,0.3
				c-1.307,0.56-2.407,1.227-3.3,2C0.85-8.787,1.75-9.237,2.9-9.6C5.433-10.4,8.2-10.267,11.2-9.2z"/>
		</g>
	</g>
	<g id="Layer_4_8_">
	</g>
</symbol>
<symbol  id="FlashAICB_x2F_Layer_1_x2F__x3C_Group_x3E_" viewBox="0 -12.367 20.111 12.367">
	<g id="Layer_1_18_">
		<g>
			
				<use xlink:href="#FlashAICB_x2F_Layer_1_x2F__x3C_Clip_Group_0_x3E__x5F_0"  width="20.111" height="12.367" y="-12.367" style="overflow:visible;"/>
		</g>
	</g>
</symbol>
<symbol  id="FlashAICB_x2F_Layer_1_x2F__x3C_Group_x3E__x5F_0" viewBox="0 -5.2 8.45 5.2">
	<g id="Layer_1_19_">
		<g>
			
				<use xlink:href="#FlashAICB_x2F_Layer_1_x2F__x3C_Clip_Group_0_x3E__x5F_2"  width="8.45" height="5.2" y="-5.2" style="overflow:visible;"/>
		</g>
	</g>
</symbol>
<symbol  id="FlashAICB_x2F_Layer_1_x2F__x3C_Group_x3E__x5F_1" viewBox="0 -25.75 25.8 25.75">
	<g id="Layer_1_4_">
		<g>
			<g>
				<g>
					<path style="fill-rule:evenodd;clip-rule:evenodd;fill:#FFFFFF;" d="M25.45-12.85c0,3.434-1.233,6.383-3.7,8.85
						c-2.433,2.467-5.383,3.7-8.85,3.7S6.467-1.533,4-4c-2.433-2.433-3.65-5.383-3.65-8.85s1.217-6.433,3.65-8.9
						c2.467-2.433,5.433-3.65,8.9-3.65s6.417,1.217,8.85,3.65C24.217-19.283,25.45-16.317,25.45-12.85z M25.8-12.85
						c0-3.566-1.267-6.617-3.8-9.15c-2.5-2.5-5.533-3.75-9.1-3.75c-3.566,0-6.6,1.25-9.1,3.75C1.267-19.467,0-16.417,0-12.85
						c0,3.533,1.267,6.567,3.8,9.1C6.3-1.25,9.333,0,12.9,0c3.567,0,6.6-1.25,9.1-3.75C24.533-6.283,25.8-9.317,25.8-12.85z"/>
				</g>
			</g>
		</g>
	</g>
</symbol>
<symbol  id="FlashAICB_x2F_Layer_1_x2F__x3C_Group_x3E__x5F_1_x5F_0" viewBox="0 -10.8 10.85 10.8">
	<g id="Layer_1_7_">
		<g>
			<g>
				<g>
					<path style="fill-rule:evenodd;clip-rule:evenodd;fill:#FFFFFF;" d="M5.45-0.15c-1.467,0-2.717-0.517-3.75-1.55
						C0.667-2.733,0.15-3.967,0.15-5.4c0-1.467,0.517-2.717,1.55-3.75c1.066-1.033,2.316-1.55,3.75-1.55
						c1.433,0,2.667,0.517,3.7,1.55S10.7-6.867,10.7-5.4c0,1.433-0.517,2.667-1.55,3.7C8.15-0.667,6.917-0.15,5.45-0.15z M9.25-1.6
						c1.067-1.066,1.6-2.333,1.6-3.8c0-1.5-0.533-2.783-1.6-3.85c-1.067-1.033-2.333-1.55-3.8-1.55c-1.5,0-2.784,0.517-3.85,1.55
						C0.533-8.183,0-6.9,0-5.4c0,1.467,0.533,2.733,1.6,3.8C2.667-0.533,3.95,0,5.45,0C6.917,0,8.183-0.533,9.25-1.6z"/>
				</g>
			</g>
		</g>
	</g>
</symbol>
<symbol  id="FlashAICB_x2F_Layer_1_x2F__x3C_Group_x3E__x5F_1_x5F_1" viewBox="0 -42.1 42.1 42.1">
	<g id="Layer_1_10_">
		<g>
			<g>
				<g>
					<path style="fill-rule:evenodd;clip-rule:evenodd;fill:#FFFFFF;" d="M21.05-0.55c-5.633,0-10.466-2-14.5-6
						c-4-4.034-6-8.867-6-14.5c0-5.667,2-10.5,6-14.5c4.034-4,8.867-6,14.5-6c5.667,0,10.5,2,14.5,6s6,8.833,6,14.5
						c0,5.633-2,10.466-6,14.5C31.55-2.55,26.717-0.55,21.05-0.55z M35.95-6.2c4.1-4.1,6.15-9.05,6.15-14.85
						c0-5.8-2.05-10.767-6.15-14.9c-4.133-4.1-9.1-6.15-14.9-6.15c-5.8,0-10.75,2.05-14.85,6.15C2.067-31.817,0-26.85,0-21.05
						C0-15.25,2.067-10.3,6.2-6.2C10.3-2.067,15.25,0,21.05,0C26.85,0,31.817-2.067,35.95-6.2z"/>
				</g>
			</g>
		</g>
	</g>
</symbol>
<symbol  id="FlashAICB_x2F_Layer_1_x2F__x3C_Group_x3E__x5F_1_x5F_2" viewBox="0 -23.45 23.5 23.45">
	<g id="Layer_1_13_">
		<g>
			<g>
				<g>
					<path style="fill-rule:evenodd;clip-rule:evenodd;fill:#FFFFFF;" d="M11.75-0.3c-3.133,0-5.833-1.117-8.1-3.35
						C1.417-5.917,0.3-8.617,0.3-11.75s1.117-5.817,3.35-8.05c2.233-2.233,4.934-3.35,8.1-3.35s5.867,1.117,8.1,3.35
						c2.233,2.233,3.35,4.917,3.35,8.05s-1.117,5.833-3.35,8.1C17.617-1.417,14.917-0.3,11.75-0.3z M20.05-3.45
						c2.3-2.3,3.45-5.066,3.45-8.3s-1.15-5.983-3.45-8.25c-2.3-2.3-5.066-3.45-8.3-3.45s-6,1.15-8.3,3.45
						C1.15-17.733,0-14.983,0-11.75s1.15,6,3.45,8.3C5.75-1.15,8.517,0,11.75,0C15.017,0,17.783-1.15,20.05-3.45z"/>
				</g>
			</g>
		</g>
	</g>
</symbol>
<symbol  id="FlashAICB_x2F_Layer_1_x2F__x3C_Group_x3E__x5F_2" viewBox="0 -20.221 32.845 20.221">
	<g id="Layer_1_20_">
		<g>
			
				<use xlink:href="#FlashAICB_x2F_Layer_1_x2F__x3C_Clip_Group_0_x3E__x5F_4"  width="32.845" height="20.221" y="-20.221" style="overflow:visible;"/>
		</g>
	</g>
</symbol>
<symbol  id="FlashAICB_x2F_Layer_1_x2F__x3C_Group_x3E__x5F_3" viewBox="0 -11.257 18.317 11.257">
	<g id="Layer_1_21_">
		<g>
			
				<use xlink:href="#FlashAICB_x2F_Layer_1_x2F__x3C_Clip_Group_0_x3E__x5F_6"  width="18.317" height="11.257" y="-11.257" style="overflow:visible;"/>
		</g>
	</g>
</symbol>
<symbol  id="FlashAICB_x2F_Layer_1_x2F__x3C_Group_x3E__x5F_4" viewBox="0 -61.294 110.05 61.294">
	<g id="Layer_1_22_">
		<g>
			
				<use xlink:href="#FlashAICB_x2F_Layer_1_x2F__x3C_Path_x3E__x5F_1_x5F_0"  width="110.05" height="55.8" y="-55.8" style="overflow:visible;opacity:0.1992;enable-background:new    ;"/>
			
				<use xlink:href="#FlashAICB_x2F_Layer_1_x2F__x3C_Path_x3E__x5F_0"  width="110.05" height="61.294" y="-61.294" style="overflow:visible;opacity:0.1211;enable-background:new    ;"/>
		</g>
	</g>
</symbol>
<symbol  id="FlashAICB_x2F_Layer_1_x2F__x3C_Path_x3E_" viewBox="0 -57.1 118.7 57.1">
	<g id="Layer_1_15_">
		
			<radialGradient id="SVGID_21_" cx="59.3501" cy="-28.5498" r="46.5701" gradientTransform="matrix(1 0 0 -1 0 -57.0996)" gradientUnits="userSpaceOnUse">
			<stop  offset="0" style="stop-color:#F3A32D;stop-opacity:0"/>
			<stop  offset="0.1098" style="stop-color:#EB982C;stop-opacity:0.1294"/>
			<stop  offset="0.302" style="stop-color:#D37B29;stop-opacity:0.4863"/>
			<stop  offset="0.5216" style="stop-color:#B25225"/>
		</radialGradient>
		<path style="fill-rule:evenodd;clip-rule:evenodd;fill:url(#SVGID_21_);" d="M95.5-30.35c10.733,7.7,18.3,17.733,22.7,30.1
			L118.7,0c-0.567-15.9-6.6-29.383-18.1-40.45C89.1-51.55,75.333-57.1,59.3-57.1c-15.7,0-29.267,5.367-40.7,16.1
			C7.233-30.333,1.033-17.233,0-1.7c4.6-12,12.183-21.683,22.75-29.05c10.833-7.567,22.867-11.35,36.1-11.35
			C72.35-42.1,84.567-38.183,95.5-30.35z"/>
	</g>
</symbol>
<symbol  id="FlashAICB_x2F_Layer_1_x2F__x3C_Path_x3E__x5F_0" viewBox="0 -61.294 110.05 61.294">
	<g id="Layer_1_17_">
		<path style="fill-rule:evenodd;clip-rule:evenodd;fill:#FFFFFF;" d="M106.5-34.4c2.367-5.633,3.55-10.934,3.55-15.9
			c0-4.967-1.45-8.083-4.35-9.35c-2.333-1.067-6.25-1.05-11.75,0.05c-7.267,1.767-13.1,3.117-17.5,4.05
			c-8,1.7-15.133,2.55-21.4,2.55c-6.333,0-13.483-0.917-21.45-2.75c-8.333-2.2-14.15-3.683-17.45-4.45
			c-5.566-1.267-9.5-1.433-11.8-0.5C1.45-59.533,0-56.483,0-51.55c0,5.5,1.167,11.167,3.5,17c2.5,6.167,5.983,11.733,10.45,16.7
			C24.683-5.95,38.383,0,55.05,0c16.434,0,30.1-6,41-18C100.517-22.9,104-28.367,106.5-34.4z"/>
	</g>
</symbol>
<symbol  id="FlashAICB_x2F_Layer_1_x2F__x3C_Path_x3E__x5F_1" viewBox="0 -118.65 118.85 118.65">
	<g id="Layer_1_2_">
		
			<radialGradient id="SVGID_22_" cx="59.4248" cy="-59.3252" r="59.375" gradientTransform="matrix(1 0 0 -1 0 -118.6504)" gradientUnits="userSpaceOnUse">
			<stop  offset="0" style="stop-color:#E2E5BD"/>
			<stop  offset="0.0824" style="stop-color:#E3DCB2"/>
			<stop  offset="0.2235" style="stop-color:#E5C596"/>
			<stop  offset="0.4078" style="stop-color:#E99F6A"/>
			<stop  offset="0.6078" style="stop-color:#EE6E33"/>
			<stop  offset="0.6745" style="stop-color:#E86C33;stop-opacity:0.9725"/>
			<stop  offset="0.7608" style="stop-color:#D76732;stop-opacity:0.898"/>
			<stop  offset="0.8667" style="stop-color:#BB5F31;stop-opacity:0.7804"/>
			<stop  offset="0.9765" style="stop-color:#955430;stop-opacity:0.6157"/>
			<stop  offset="1" style="stop-color:#8C5130;stop-opacity:0.5765"/>
		</radialGradient>
		<path style="fill-rule:evenodd;clip-rule:evenodd;fill:url(#SVGID_22_);" d="M118.85-59.35c0-16.367-5.8-30.35-17.4-41.95
			c-11.6-11.567-25.617-17.35-42.05-17.35c-16.4,0-30.4,5.783-42,17.35C5.8-89.7,0-75.717,0-59.35S5.8-29,17.4-17.4S43,0,59.4,0
			c16.434,0,30.45-5.8,42.05-17.4C113.05-29,118.85-42.983,118.85-59.35z"/>
	</g>
</symbol>
<symbol  id="FlashAICB_x2F_Layer_1_x2F__x3C_Path_x3E__x5F_1_x5F_0" viewBox="0 -55.8 110.05 55.8">
	<g id="Layer_1_16_">
		
			<linearGradient id="SVGID_23_" gradientUnits="userSpaceOnUse" x1="16164.3076" y1="-52.8804" x2="16220.0527" y2="-52.8804" gradientTransform="matrix(1.792918e-005 1 -1 -0.001 1.8545 -16220.1055)">
			<stop  offset="0.1294" style="stop-color:#E2B8B2"/>
			<stop  offset="0.9255" style="stop-color:#FFFFFF"/>
		</linearGradient>
		<path style="fill-rule:evenodd;clip-rule:evenodd;fill:url(#SVGID_23_);" d="M96.05-18c4.467-4.9,7.95-10.367,10.45-16.4
			c2.367-5.633,3.55-10.934,3.55-15.9c0-1.567-0.167-3.05-0.5-4.45c-1.867,11.067-7.267,20.9-16.2,29.5
			c-10.533,10.133-23.3,15.2-38.3,15.2c-15.267,0-28.117-5.067-38.55-15.2C7.533-33.95,2.183-44.133,0.45-55.8
			C0.15-54.6,0-53.183,0-51.55c0,5.5,1.167,11.167,3.5,17c2.5,6.167,5.983,11.733,10.45,16.7C24.683-5.95,38.383,0,55.05,0
			C71.483,0,85.15-6,96.05-18z"/>
	</g>
</symbol>
<g>
	<g>
		<path style="fill-rule:evenodd;clip-rule:evenodd;fill:#D99E58;" d="M109.7,3.4l-0.4,26.8c-0.033,4.866-0.05,12.167-0.05,21.9
			c-0.033,8.6-0.217,15.933-0.55,22L108.35,79c-0.033,0.5-0.216,2.233-0.55,5.2c-0.233,2.1-0.267,3.816-0.1,5.149
			c0,2.867,0.149,6.467,0.45,10.801l0.3,3.55c1.267,8.2,1.649,18.8,1.149,31.8c-0.699,18.1-1.017,28.75-0.949,31.95l-0.051,1.2
			l-2.85,0.75l0.1-3.301c1.4-14.199,2.184-23.666,2.351-28.399c0.366-10.667-0.334-20.05-2.101-28.15
			c-0.3-1.366-0.733-2.916-1.3-4.649c-0.399-1.4-0.899-2.983-1.5-4.75c-0.733-2-0.666-4.717,0.2-8.15c1.033-4.066,1.5-6.85,1.4-8.35
			c0.133-1.566,0.233-3.183,0.3-4.85c0.399-5.6,0.467-12.816,0.2-21.65C105,45.217,104.8,37.9,104.8,35.2l0.3-33
			C106.733,2.567,108.267,2.967,109.7,3.4z"/>
		<path style="fill-rule:evenodd;clip-rule:evenodd;fill:#D99E58;" d="M114.7,47.85l0.05-3.4c0.2-8.833,0.333-21.934,0.4-39.3
			l1.35,0.55c-0.033,4.466-0.184,11.233-0.45,20.3c-0.166,8.133-0.149,14.933,0.05,20.4l-0.05,4.05
			c-0.1,7.533-0.399,14.366-0.899,20.5l-0.65,9.2c-0.667,10.534-1.033,25.517-1.1,44.95c-0.301-11.066-0.217-20.233,0.25-27.5
			l0.1-3.649c0.1-6.566,0.316-12.7,0.65-18.4l0.25-10.4C114.583,58.75,114.6,52.983,114.7,47.85z"/>
		<path style="fill-rule:evenodd;clip-rule:evenodd;fill:#D99E58;" d="M117.15,49.3c-0.233-5.8-0.267-13.017-0.101-21.65
			c0.267-9.6,0.417-16.783,0.45-21.55c1.967,0.767,3.616,1.467,4.95,2.1c0,0.8-0.15,7.917-0.45,21.35
			c-0.167,8.567-0.184,15.684-0.05,21.35l-0.05,4.65c0,3.133-0.051,7.85-0.15,14.15l-0.1,4.7c0.066,1.5,0.066,3,0,4.5l-0.2,4.5
			c-0.634,8.534-1.634,21.167-3,37.9c-0.767,14.367-0.417,27.101,1.05,38.2c0.134,1.6,0.033,3.434-0.3,5.5
			c-1.3,0.566-2.8,1.15-4.5,1.75l0.399-4.3c0.067-4.5,0.233-18,0.5-40.5c0.167-16.467,0.4-29.967,0.7-40.5l0.55-7.9
			c0.267-4.9,0.367-11.417,0.301-19.55V49.3z"/>
		<path style="fill-rule:evenodd;clip-rule:evenodd;fill:#D99E58;" d="M110.5,30.2l0.4-26.45c1.466,0.467,2.55,0.833,3.25,1.1v2.2
			c0.166,3.934,0.133,9.383-0.101,16.35c-0.267,8.033-0.383,13.533-0.35,16.5l-0.05,5.45c-0.101,6.333-0.167,9.95-0.2,10.85
			c-0.101,3.566-0.15,5.383-0.15,5.45c-0.1,4-0.283,8.533-0.55,13.6l-0.25,4.5c-0.4,4.733-0.566,10.184-0.5,16.35l0.05,3.301
			c0.033,7.133,0.3,17.85,0.8,32.149c0.301,12.867,0.051,23.667-0.75,32.4l-0.25,3.399v0.351l-2.55,0.75V167
			c0.934-15.066,1.467-25.967,1.601-32.7c0.233-12.2-0.233-23.05-1.4-32.55l-0.25-3.25c-0.4-6.2-0.45-11.617-0.15-16.25l0.351-5.3
			C110.616,58.783,110.967,43.2,110.5,30.2z"/>
		<path style="fill-rule:evenodd;clip-rule:evenodd;fill:#D99E58;" d="M123.7,31.25C123.9,21.083,124,13.667,124,9l1,0.5
			c-0.033,3.6-0.15,10.6-0.35,21c-0.167,8.767-0.233,15.783-0.2,21.05l-0.101,24.9c0.134,1.767,0.2,3.767,0.2,6
			c0,1.966-0.1,3.95-0.3,5.95c-2.066,10.399-3.184,22.666-3.35,36.8c-0.067,3.767,0.116,16.017,0.55,36.75l0.05,2l-0.3,0.149
			l-0.7-7.05c-0.833-10.333-0.783-22.767,0.15-37.3c1.333-16.533,2.232-28.983,2.699-37.35c0.033-1.367,0.017-3.4-0.05-6.1
			l0.15-22.85C123.45,48.283,123.533,40.883,123.7,31.25z"/>
		<path style="fill-rule:evenodd;clip-rule:evenodd;fill:#D99E58;" d="M137.7,36.65c-0.934-9.167-1.601-16.05-2-20.65
			c1.7,1.233,3.1,2.316,4.2,3.25c0.3,8.167,0.866,15.017,1.699,20.55c0.334,3.8,0.167,9.2-0.5,16.2l-0.399,4.6
			c-0.667,7.333-1.101,12.833-1.3,16.5l-0.15,3.3c0,4.067-0.05,8.15-0.15,12.25l-0.55,13.8c-0.434,7-0.566,14.816-0.399,23.45
			c0.1,5.433,0.399,13.199,0.899,23.3l-3.649,2.75c-0.801-9.834-1.334-17.617-1.601-23.351c-0.434-8.6-0.533-16.433-0.3-23.5
			c0.066-1.833,0.167-3.649,0.3-5.449l1.4-9.4c0.233-1.267,0.399-2.7,0.5-4.3c0.066-0.967,0.1-2.384,0.1-4.25l0.75-12.75
			c0.033-0.2,0.384-3.767,1.05-10.7l0.45-4.9C138.483,51.583,138.366,44.683,137.7,36.65z"/>
		<path style="fill-rule:evenodd;clip-rule:evenodd;fill:#D99E58;" d="M127.6,35.05c-0.199-10.833-0.316-18.95-0.35-24.35
			c1.934,1.033,4.1,2.35,6.5,3.95c0.033,1.533,0.15,3.8,0.35,6.8c0.267,7.167,1.033,13.667,2.301,19.5
			c0.5,4.866,0.616,9.316,0.35,13.35c-0.333,1.467-0.833,3.617-1.5,6.45l-0.7,4.95c-0.2,1.433-0.35,2.816-0.45,4.15
			c-0.133,1.333-0.233,2.7-0.3,4.1c-0.133,1.966-0.149,4.283-0.05,6.95c0.066,1.5,0.167,3.733,0.3,6.7v3.15l-1.7,9.25
			c-3.866,18.6-3.85,36.733,0.051,54.4l0.649,3.149c-1.934,1.3-4.366,2.75-7.3,4.351l-0.85-4.851c-0.4-1.899-0.768-4.05-1.101-6.45
			c-0.467-5.5-0.8-10.649-1-15.449c-0.033-6.5,0.483-14.417,1.55-23.75c1.334-10.4,2.25-18.2,2.75-23.4
			c0.167-1.3,0.267-2.6,0.301-3.9c0.3-4.034,0.383-7.95,0.25-11.75l0.3-12.9C127.917,54.017,127.8,45.883,127.6,35.05z"/>
		<path style="fill-rule:evenodd;clip-rule:evenodd;fill:#D99E58;" d="M125.45,32.85c0-0.534,0.066-8.217,0.2-23.05l0.649,0.35
			c0.033,5.467,0.167,13.217,0.4,23.25c0.233,10.7,0.366,18.434,0.399,23.2l-0.149,17c-0.033,2.466-0.033,6.15,0,11.05l-0.15,3.6
			c-3.467,13.3-4.8,28.934-4,46.9c0,5.333,0.333,10.483,1,15.449l1.101,11.7l-1.601,0.851l-0.35-3.15
			c-3.134-22.3-2.351-46.167,2.35-71.6c0.267-2.167,0.45-4.134,0.55-5.9c0.101-2.167,0.134-4.15,0.101-5.95l0.05-4
			c0.033-2.633,0.017-6.6-0.05-11.9l-0.101-4.8C125.55,49.25,125.417,41.583,125.45,32.85z"/>
		<path style="fill-rule:evenodd;clip-rule:evenodd;fill:#D99E58;" d="M76.7,0.5l0.05,16.85c0.233,17.7,0.183,37.45-0.15,59.25
			c-0.233,13.8-0.684,33.534-1.35,59.2c-0.033,2.033-0.033,4.066,0,6.101l0.45,10.649c0.133,2.066,0.333,5.15,0.6,9.25
			c0.2,3.634,0.333,6.7,0.4,9.2v0.25l-4.15-0.55c-0.066-2.867-0.233-6.283-0.5-10.25c-0.3-4.566-0.533-8-0.7-10.3l-0.4-11.801
			c-0.034-16.733,0.216-41.8,0.75-75.2l0.2-3.25c0.367-4.033,0.55-8.517,0.55-13.45c0-3.2-0.117-7.667-0.35-13.4l0.25-16.55
			c0-1.167-0.067-3.05-0.2-5.65v-9.7C74.117,0.817,75.633,0.6,76.7,0.5z"/>
		<path style="fill-rule:evenodd;clip-rule:evenodd;fill:#D99E58;" d="M83.15,0.1l0.05,26.15c0.167,6.333,0.25,15.767,0.25,28.3
			c0,12.6,0.066,22.083,0.2,28.45c0,3.066-0.333,11.816-1,26.25c-0.533,10.667-0.483,19.45,0.15,26.35l0.05,5
			c0,3.334-0.05,6.65-0.15,9.95v21.101l-1.35-0.051c0.133-5.699,0.117-12.183-0.05-19.449l-0.45-14
			c-0.034-8.634,0.216-28.017,0.75-58.15c0.433-24.133,0.433-43.55,0-58.25l-0.05-21.6L83.15,0.1z"/>
		<path style="fill-rule:evenodd;clip-rule:evenodd;fill:#D99E58;" d="M80.65,0.2l0.05,20.7c0.033,25.5-0.017,45.133-0.15,58.9
			c-0.233,21.601-0.716,41.2-1.45,58.8l0.1,4.551c0.133,2,0.267,3.5,0.4,4.5l0.35,4.699c0.433,5.601,0.583,10.217,0.45,13.851
			l-0.1,5.35l-2.4-0.2l-0.05-0.8c-0.4-4.133-0.667-7.217-0.8-9.25l-0.2-3.1c-0.067-3.033-0.167-5.084-0.3-6.15l-0.1-4.649
			c-0.1-1.634-0.15-3.301-0.15-5l0.2-5c0.633-26.467,1.066-46.317,1.3-59.55c0.4-22.967,0.4-42.833,0-59.6V0.4L80.65,0.2z"/>
		<path style="fill-rule:evenodd;clip-rule:evenodd;fill:#D99E58;" d="M84.1,24.05v-24L85.85,0c1.267,0,3.134,0.067,5.601,0.2v52.6
			c0.066,3.667,0.05,6.967-0.05,9.9L91.3,67.65c-0.2,8.467-0.316,14.85-0.35,19.15L90.9,90.65
			c-0.134,2.966-0.167,6.517-0.101,10.649l0.101,10.15c-0.134,4.434-0.067,9.983,0.199,16.649
			c0.367,9.434,0.567,14.967,0.601,16.601l0.05,4.7c0,4.166-0.033,7.283-0.1,9.35L92,162c0.333,2.5,0.85,5.616,1.55,9.35
			c-2.733,0.267-5.3,0.4-7.7,0.4l-2.35-0.1c0.2-6.134,0.35-12.267,0.45-18.4V138.2c-0.634-13.566-0.7-32.55-0.2-56.95
			C84.316,54.683,84.433,35.617,84.1,24.05z"/>
		<path style="fill-rule:evenodd;clip-rule:evenodd;fill:#D99E58;" d="M101.8,32.4l-0.05-11.2c-0.066-7.267-0.05-13.833,0.05-19.7
			l1.2,0.25c-0.167,9-0.05,17.1,0.35,24.3l0.101,5.9c0.133,5.4,0.366,13.466,0.7,24.2c0.066,9.233-0.5,17.15-1.7,23.75L102,85
			c-0.233,1.8-0.384,3.566-0.45,5.3c0.233,3.101,0.684,6.634,1.351,10.601l0.949,5.35c0.467,1.6,0.867,3.167,1.2,4.7
			c1.533,8.033,1.967,17.583,1.3,28.649c-0.399,6.367-1.233,15.867-2.5,28.5l0.051,1.7l-0.101,0.05l-0.149-2.05
			c-0.367-1.2-0.534-2.666-0.5-4.399c0.1-1.934,0.149-3.4,0.149-4.4c1.233-10.467,2.017-18.3,2.351-23.5
			c0.566-9,0.166-16.767-1.2-23.3c-0.3-1.334-0.733-2.851-1.3-4.55c-0.567-1.801-1.167-3.483-1.801-5.051
			c-0.433-1.466-0.733-3.267-0.899-5.399c-0.033-0.4-0.117-2.217-0.25-5.45c0-1.134,0.05-2.25,0.149-3.35
			c0.034-0.801,0.15-1.934,0.351-3.4l0.3-4.6c1.1-6.133,1.533-14.05,1.3-23.75C101.934,42.25,101.767,34.167,101.8,32.4z"/>
		<path style="fill-rule:evenodd;clip-rule:evenodd;fill:#D99E58;" d="M142.35,40.8c-0.666-7.2-1.083-12.6-1.25-16.2l-0.35-4.7
			c1.733,1.434,3.5,3.033,5.3,4.8c0.3,15.4,0.434,25.866,0.4,31.4L146.1,86.6c0.167,3.466,0.283,7.4,0.351,11.8l-0.05,8.1
			c-0.867,11.7-1.101,25.333-0.7,40.9c-1.733,1.666-3.517,3.25-5.351,4.75c-0.333-5.434-0.75-10.517-1.25-15.25
			c-0.566-4.467-0.566-10,0-16.601c0.934-10.6,1.417-16.184,1.45-16.75l0.2-4.899c0.066-1.634,0.066-3.267,0-4.9l0.1-3.7
			c0-4.933-0.05-8.65-0.149-11.15l1.55-21.85C142.783,52.65,142.816,47.233,142.35,40.8z"/>
		<path style="fill-rule:evenodd;clip-rule:evenodd;fill:#D99E58;" d="M92.7,45.95V0.3l2.2,0.2c0,14.467,0.149,27.167,0.449,38.1
			l0.101,4.65c0.166,3.6,0.416,8.917,0.75,15.95c0.133,5.966-0.101,11.216-0.7,15.75L94.6,87.8c-0.433,3.667-0.433,7.45,0,11.351
			c0.067,0.833,0.217,2.066,0.45,3.699l1.101,5.101c1.5,5.899,2.3,12.483,2.399,19.75c0.101,5.8-0.267,12.533-1.1,20.2l-1.25,11.5
			l0.05,3.199c0.1,2.634,0.384,5.417,0.85,8.351l-1.6,0.25c-0.733-3.334-1.25-6.351-1.55-9.05L92.85,144
			c-0.366-4.8-0.533-10.566-0.5-17.3c0.134-7.634,0.2-13.3,0.2-17l-0.2-5.601c-0.267-5.966-0.399-11.616-0.399-16.949l0.5-16.95
			C92.517,57.467,92.6,49.383,92.7,45.95z"/>
		<path style="fill-rule:evenodd;clip-rule:evenodd;fill:#D99E58;" d="M100.1,1.2c0.067,7.1,0.233,13.75,0.5,19.95l0.25,16.55
			c0,4.466,0.034,11.066,0.101,19.8c-0.066,7.533-0.384,14.15-0.95,19.85l-0.25,5.15C99.25,90.833,99,95.217,99,95.65
			c-0.033,1.466-0.033,2.933,0,4.399l1.5,4.05c0.566,1.467,1.116,3.051,1.65,4.75c0.466,1.4,0.883,3,1.25,4.801
			c1.033,6.633,1.216,14.149,0.55,22.55c-0.434,5.066-1.467,12.666-3.101,22.8c-0.533,3.233-0.383,6.2,0.45,8.9
			c0.101,0.733,0.25,1.517,0.45,2.35l-1,0.15c-0.434-2.4-0.717-4.667-0.85-6.801c-0.134-2-0.2-3.483-0.2-4.449l1.2-7.15
			c1.699-10.333,2.633-17.967,2.8-22.9c0.3-8.8-0.9-16.333-3.601-22.6c-0.633-1.967-1.233-3.733-1.8-5.3
			c-0.267-1.233-0.483-2.667-0.649-4.3c-0.434-4.7-0.051-9.25,1.149-13.65l0.351-4.8c0.666-12.767,0.75-26.634,0.25-41.6L99.05,14.8
			c-0.2-3.867-0.333-8.483-0.399-13.85L100.1,1.2z"/>
		<path style="fill-rule:evenodd;clip-rule:evenodd;fill:#D99E58;" d="M98.05,0.9l0.25,35.25c0.134,16.3-0.033,29.5-0.5,39.6
			l-0.8,8.7c-0.6,4.033-0.65,8.416-0.15,13.149c0.167,1.5,0.367,2.934,0.601,4.301l1.05,4.8c1.934,8.434,3.033,15.899,3.3,22.399
			c0.334,8.267-0.633,15.784-2.899,22.551c-0.434,1.267-0.65,2.733-0.65,4.399v4.2c0,1.467,0.066,2.75,0.2,3.85
			c0.2,2.134,0.55,4.317,1.05,6.551l-0.75,0.1c-0.434-3.233-0.7-6.134-0.8-8.7l-0.05-3.399c0.1-2.101,0.25-4.2,0.449-6.301
			l0.2-3.149c0.834-8.967,1.233-16.066,1.2-21.3c0-7.801-0.75-14.817-2.25-21.051l-1.2-5.149c-0.233-1.066-0.434-2.2-0.6-3.4
			c-0.533-3.7-0.601-7.217-0.2-10.55c0-1.367,0.05-2.75,0.15-4.15l0.55-9.65c0.566-8.367,0.75-19.25,0.55-32.65l-0.1-4.4
			c-0.367-12.367-0.767-22.683-1.2-30.95l-0.2-5.4L98.05,0.9z"/>
		<path style="fill-rule:evenodd;clip-rule:evenodd;fill:#D99E58;" d="M167.95,60.55c2.533,8.267,3.8,16.717,3.8,25.35
			c0,7.267-0.934,14.534-2.8,21.8L167.95,60.55z"/>
		<path style="fill-rule:evenodd;clip-rule:evenodd;fill:#D99E58;" d="M62.1,89.85c0.233-2.133,0.433-4.35,0.6-6.649
			c-0.333,21.566-0.1,40.366,0.7,56.399l0.05,3.851c0.1,7.533,0.116,15.967,0.05,25.3l-2.2-0.6c0.1-5.434,0.35-13.233,0.75-23.4
			l0.05-5.25c-0.567-11-0.934-19.217-1.1-24.65C60.7,105.35,61.066,97.017,62.1,89.85z"/>
		<path style="fill-rule:evenodd;clip-rule:evenodd;fill:#D99E58;" d="M49.8,40.8l1,4.55c0.3,3.367,0.55,6.65,0.75,9.85
			c-1.033-4.2-1.783-7.867-2.25-11c-0.333-2-0.117-4.467,0.65-7.4C49.617,38.267,49.566,39.6,49.8,40.8z"/>
		<path style="fill-rule:evenodd;clip-rule:evenodd;fill:#D99E58;" d="M52.45,123.15c0.133,0.966,0.483,2.949,1.05,5.949
			c0.467,2.5,0.75,4.534,0.85,6.101C53.383,131.366,52.75,127.35,52.45,123.15z"/>
		<path style="fill-rule:evenodd;clip-rule:evenodd;fill:#D99E58;" d="M5.75,105.8c0,0.101,0.05,3.9,0.15,11.4l-0.3-0.8
			c0.167-3.767,0.183-7.217,0.05-10.351l0.1-4.5c0.024-0.929,0.049-1.837,0.075-2.725L5.75,105.8z"/>
		<path style="fill-rule:evenodd;clip-rule:evenodd;fill:#D99E58;" d="M148.8,27.55l2.3,2.6c-0.467,9.267-0.683,16.233-0.649,20.9
			c0,1.133,0.05,2.817,0.149,5.05c0.067,1.767,0.301,6.167,0.7,13.2c0.267,5.4,0.434,9.8,0.5,13.2l-0.149,24.75
			c-0.067,3.733-0.184,9.4-0.351,17c-0.133,6.667-0.133,12.384,0,17.15l-2.649,2.949c-0.334-7.533-0.483-13.783-0.45-18.75
			c0.066-6.8,0.467-13.033,1.2-18.699l0.1-9.25c-0.066-1.733-0.184-3.284-0.35-4.65l-0.051-8.9c0-1.733-0.183-9.534-0.55-23.4
			l-0.149-5.2C148.434,52.467,148.566,43.15,148.8,27.55z"/>
		<polygon style="fill-rule:evenodd;clip-rule:evenodd;fill:#D99E58;" points="36.75,156.25 37,152.8 36.95,156.35 		"/>
		<path style="fill-rule:evenodd;clip-rule:evenodd;fill:#D99E58;" d="M44.85,60.4c1.1,4.833,1.833,9.2,2.2,13.1
			C46.917,72.433,46.183,68.066,44.85,60.4z"/>
		<path style="fill-rule:evenodd;clip-rule:evenodd;fill:#D99E58;" d="M155.35,35.5c1.801,2.533,3.101,4.483,3.9,5.85l-0.1,2.25
			c-0.101,1.533-0.117,3.216-0.051,5.05c0.067,3.633,0.5,8.684,1.301,15.15c0.866,7.2,1.383,12.35,1.55,15.45l0.75,45
			c-1.634,3.267-3.483,6.417-5.55,9.45c0-3.5,0.149-10.05,0.449-19.65l-0.3-28.4c0-0.167,0.05-2.1,0.15-5.8
			c0.066-2.233,0.017-4.133-0.15-5.7c-1.333-8.633-2.167-14.933-2.5-18.9l-0.3-4.7C154.467,46.517,154.75,41.5,155.35,35.5z"/>
		<path style="fill-rule:evenodd;clip-rule:evenodd;fill:#D99E58;" d="M151.8,30.9c1.634,2.067,2.583,3.283,2.851,3.65
			c-0.301,2.633-0.733,5.7-1.301,9.2c0,0.833-0.05,1.983-0.149,3.45c-0.033,1.3,0.116,2.466,0.45,3.5l0.399,5.2
			c0.333,3.5,0.884,8.717,1.65,15.65c0.6,6.133,0.75,11.383,0.45,15.75L156.1,112c-0.6,6.6-0.733,14.517-0.399,23.75
			c-0.867,1.233-1.867,2.55-3,3.95c-0.634-12.066-0.617-21.601,0.05-28.601l0.1-27.6c-0.066-2.934-0.283-6.883-0.649-11.85
			c-0.434-5.8-0.7-9.717-0.8-11.75l-0.4-4.85C150.833,49.417,151.1,41.367,151.8,30.9z"/>
		<path style="fill-rule:evenodd;clip-rule:evenodd;fill:#D99E58;" d="M70.95,1.35L70.9,10.3c-0.033,0.733-0.017,1.817,0.05,3.25
			v0.75c-0.167,5.833-0.2,16.467-0.1,31.9c0.066,13.533-0.083,24.167-0.45,31.9c-0.267,11.133-0.433,28-0.5,50.6l-0.05,11.7
			c0.1,2.933,0.15,4.416,0.15,4.449l0.25,5.551c0.3,5.833,0.7,11.666,1.2,17.5l0.15,2.6l-2.85-0.5c0.033-2.434-0.017-5.25-0.15-8.45
			c-0.2-3.767-0.35-6.649-0.45-8.649l-0.7-15.25c-0.667-14.367-0.65-35.184,0.05-62.45c0.767-28.1,0.883-48.867,0.35-62.3L67.5,8.5
			c-0.067-1.6-0.05-3.033,0.05-4.3l0.25-2.25C68.867,1.717,69.917,1.517,70.95,1.35z"/>
		<path style="fill-rule:evenodd;clip-rule:evenodd;fill:#D99E58;" d="M162.75,58.25c-0.1-2.133-0.2-3.684-0.3-4.65l-0.101-6.7
			c1.301,2.567,2.517,5.283,3.65,8.15c0.233,3.233,0.517,6.034,0.85,8.4v5.7c0.301,7.967,0.5,15.917,0.601,23.85v10.05
			c-0.033,1.767-0.033,3.517,0,5.25l0.05,4.25c-0.667,2.033-1.45,4.167-2.35,6.4L165.05,96.1c-0.333-10.233-0.566-17.8-0.7-22.7
			v-5.5l-0.899-4.8C163.15,61.767,162.917,60.15,162.75,58.25z"/>
		<path style="fill-rule:evenodd;clip-rule:evenodd;fill:#D99E58;" d="M163,75.65l0.25-2.8c0.066,0.933,0.066,1.867,0,2.8l0.7,31.6
			c-0.233,4-0.267,8.85-0.101,14.55l-0.399,0.9v-0.25c-0.101-5.767-0.084-11.217,0.05-16.351L163,75.65z"/>
		<path style="fill-rule:evenodd;clip-rule:evenodd;fill:#D99E58;" d="M147.15,126.9c-0.034,4.166,0.017,10.449,0.149,18.85
			l-0.35,0.4C146.883,139.283,146.95,132.866,147.15,126.9z"/>
		<path style="fill-rule:evenodd;clip-rule:evenodd;fill:#D99E58;" d="M26.55,39.5c0.133-1.367,0.2-2.9,0.2-4.6
			c-0.934-3.066-1.717-6.033-2.35-8.9l0.9-0.9c0.534,2.4,1.05,4.466,1.55,6.2c0.167,1.034,0.35,2.583,0.55,4.65
			c0.4,5.167,0.017,9.883-1.15,14.15c-1,4.367-1.633,7.55-1.9,9.55c-0.5,3.533-0.55,6.667-0.15,9.4
			c0.033,0.934,0.083,2.317,0.15,4.15l0.35,33.05c0.133,4.267-0.067,10.7-0.6,19.3c-0.567,8.5-0.767,14.917-0.6,19.25l-2.05-2.25
			c-0.2-2.1-0.233-4.133-0.1-6.1c0.066-1.434,0.517-6.75,1.35-15.95c0.566-6.434,0.733-11.8,0.5-16.1l0.15-32.25
			c-0.367-4.367-0.05-9.85,0.95-16.45C25.667,46.533,26.417,41.133,26.55,39.5z"/>
		<path style="fill-rule:evenodd;clip-rule:evenodd;fill:#D99E58;" d="M62.55,23.1c0.434-2.267,0.267-4.85-0.5-7.75
			c-1.1-3.267-1.883-5.684-2.35-7.25c-0.333-1.467-0.55-2.717-0.65-3.75l2.55-0.8c-0.034,0.667-0.034,1.317,0,1.95
			c0.1,1.233,0.267,2.35,0.5,3.35c1.3,6.633,1.95,13.85,1.95,21.65c-0.233,8.967-0.6,22.417-1.1,40.35
			c-0.5-10.567-0.867-18.483-1.1-23.75C61.45,37.667,61.683,29.667,62.55,23.1z"/>
		<path style="fill-rule:evenodd;clip-rule:evenodd;fill:#D99E58;" d="M13.75,39.4c1.233-1.933,2.45-3.683,3.65-5.25
			C17.6,41.883,17.467,53.5,17,69l-0.1,4.7c-0.2,10.533-0.316,18.399-0.35,23.6v4.7c-0.033,0.634-0.066,5.983-0.1,16.05
			c0,6.334-0.5,11.634-1.5,15.9v0.25c-0.833-1.233-1.8-2.733-2.9-4.5l0.15-1.4c0.566-8.434,0.783-16.649,0.65-24.649V99.2
			c0-7.4,0.1-14.8,0.3-22.2l0.3-10.6C13.816,57.367,13.917,48.367,13.75,39.4z"/>
		<path style="fill-rule:evenodd;clip-rule:evenodd;fill:#D99E58;" d="M39.4,38.7c0-1.7-0.05-3.434-0.15-5.2
			c-0.033-2.6-0.333-5.617-0.9-9.05c-0.7-3.967-1.233-6.95-1.6-8.95c1.533-1.067,3.217-2.167,5.05-3.3
			c0.6,4.033,0.917,8.866,0.95,14.5c0.033,3.233,0,8.066-0.1,14.5c-0.4,4.466-0.3,8.25,0.3,11.35l0.1,0.5
			c0.233,2.767,0.85,6.7,1.85,11.8c1.033,5.433,1.684,9.35,1.95,11.75c0.566,5.1,0.417,9.683-0.45,13.75
			c-1.133,7.434-1.833,15.351-2.1,23.75c-0.2,6.467-0.15,14.301,0.15,23.5l-0.05,23.45c-1.967-1.1-4.066-2.383-6.3-3.85l0.2-37.5
			c0.133-8.3,0.233-24.934,0.3-49.9v-5.1C39.267,54.566,39.533,45.9,39.4,38.7z"/>
		<path style="fill-rule:evenodd;clip-rule:evenodd;fill:#D99E58;" d="M7.4,73l0.15-9.9C7.417,59.367,7.4,55.283,7.5,50.85
			c1.566-3.467,3.233-6.65,5-9.55c0,2.767-0.05,6.934-0.15,12.5c-0.067,5.034-0.067,9.267,0,12.7L12.1,76.75
			C11.8,87.884,11.633,95,11.6,98.1v4.301c-0.3,2.833-0.4,6.716-0.3,11.649c0.067,5.4,0.034,9.25-0.1,11.55l-0.2,2.25
			c-1.367-2.366-2.733-5.083-4.1-8.149c0-0.767-0.066-3.367-0.2-7.8c-0.1-3.2-0.083-5.851,0.05-7.95L6.8,100.1
			C7.066,88.066,7.267,79.033,7.4,73z"/>
		<path style="fill-rule:evenodd;clip-rule:evenodd;fill:#D99E58;" d="M43.6,36.8c0.9-4.966,1.4-9.267,1.5-12.9
			c0.1-4.667-0.417-8.9-1.55-12.7c1.934-1.067,3.75-2.017,5.45-2.85c1.9,4.566,2.15,10.767,0.75,18.6
			c-1.567,8.833-2.033,14.917-1.4,18.25c0.066,0.433,0.733,3.85,2,10.25c0.8,4.066,1.417,7.433,1.85,10.1
			c0.733,13.034,0.95,25.634,0.65,37.8l-0.6,2.7c-0.867,4.834-1.017,10.233-0.45,16.2c0.667,4.066,1.1,6.983,1.3,8.75
			c0.367,3.267,0.5,6.15,0.4,8.65l-0.1,3.899c-0.133,2.867-0.35,6.4-0.65,10.601c-0.167,2.366-0.434,5.899-0.8,10.6
			c-2.1-0.934-4-1.85-5.7-2.75l0.35-7.05c0.233-5.566,0.333-10.233,0.3-14l-0.1-3.55c-0.5-2.334-0.883-4.917-1.15-7.75
			c-0.7-9.301-0.367-20.034,1-32.2l0.05-0.15l0.65-5.5c0.167-0.967,0.267-1.934,0.3-2.899l0.2-1.5
			c0.667-5.434,0.65-11.234-0.05-17.4c-0.6-4.934-1.733-10.75-3.4-17.45c-0.566-2.3-0.933-3.95-1.1-4.95
			C43.233,45.2,43.333,41.6,43.6,36.8z"/>
		<path style="fill-rule:evenodd;clip-rule:evenodd;fill:#D99E58;" d="M32.5,44.7c0.133-2.267,0.2-3.983,0.2-5.15
			c-0.267-4.7-0.967-11.15-2.1-19.35l1.45-1.15c0.667,3.967,1.517,7.617,2.55,10.95c0.433,1.433,0.633,3.15,0.6,5.15
			c0,1.133-0.05,2.833-0.15,5.1c-0.167,1.733-0.367,3.4-0.6,5c-0.4,2.8-1.1,7.017-2.1,12.65c-0.767,4.967-1.083,9.233-0.95,12.8
			v5.25c0.4,4.066,0.567,8.833,0.5,14.3c-0.033,3.167-0.133,7.866-0.3,14.1l-0.05,4.7c-0.066,1.767,0,7.617,0.2,17.55
			c0.133,7.134-0.15,12.983-0.85,17.551l-0.1,7.55l-2.05-1.8l-0.1-2.9c-0.367-2.167-0.617-3.816-0.75-4.95
			c-0.2-1.967-0.1-3.684,0.3-5.149c0.9-4.2,1.483-8.767,1.75-13.7c0.167-3.467,0.183-8.084,0.05-13.851
			c-0.1-0.933-0.184-2.316-0.25-4.149c-0.033-1.434-0.05-4.967-0.05-10.601c0.033-4.399-0.083-7.933-0.35-10.6L29.1,68.8
			c-0.034-2-0.05-3.483-0.05-4.45c0.034-1.767,0.25-3.25,0.65-4.45C31.167,54.9,32.1,49.833,32.5,44.7z"/>
		<path style="fill-rule:evenodd;clip-rule:evenodd;fill:#D99E58;" d="M29.2,37.55c0.033-1.367-0.034-3.017-0.2-4.95
			c-1-3.233-1.783-6.167-2.35-8.8l2.55-2.35c0.566,2.8,1.216,5.65,1.95,8.55c0.434,1.433,0.633,3.133,0.6,5.1
			c0,1.133-0.067,2.816-0.2,5.05c-0.1,1.633-0.25,3.317-0.45,5.05c-0.067,0.667-0.633,4.85-1.7,12.55
			c-0.7,5.033-1.117,9.2-1.25,12.5l0.2,15.65c-0.034,1.9,0.05,4.784,0.25,8.65c0.167,3.834,0.233,6.733,0.2,8.7
			c0,1.134-0.05,2.3-0.15,3.5c0.067,13.866-0.233,24.583-0.9,32.15c-0.533,2.633-0.434,5.066,0.3,7.3l0.2,3.3
			c-1.5-1.4-2.8-2.667-3.9-3.8c-0.4-2.601-0.633-4.384-0.7-5.351c-0.2-2.033-0.15-3.833,0.15-5.399
			c0.934-3.533,1.367-8.184,1.3-13.95c-0.1-7.2-0.034-11.85,0.2-13.95v-36.6c0.167-0.9,0.083-2.267-0.25-4.1
			c-0.333-1.8-0.417-3.117-0.25-3.95c1.434-5.533,2.417-9.683,2.95-12.45C28.683,45.35,29.167,41.217,29.2,37.55z"/>
		<path style="fill-rule:evenodd;clip-rule:evenodd;fill:#D99E58;" d="M0.1,90l0.15-10.6C0.883,71,2.7,62.917,5.7,55.15l-1,50.55
			c0.167,2.333,0.216,5.233,0.15,8.7C2.083,106.5,0.5,98.366,0.1,90z"/>
		<path style="fill-rule:evenodd;clip-rule:evenodd;fill:#D99E58;" d="M36.2,37c-0.1-2.067-0.15-5.05-0.15-8.95
			c-0.233-1.533-0.633-3.25-1.2-5.15c-0.034-0.167-0.534-1.8-1.5-4.9l2.1-1.55c1,6.167,1.616,10.167,1.85,12
			c0.534,4.533,0.667,8.583,0.4,12.15l-0.3,4.8c-0.167,2.667-0.467,6.667-0.9,12c-0.333,4.733-0.517,8.667-0.55,11.8L36,73.45
			c0.033,5.533,0.283,19.05,0.75,40.55l0.1,4.5c0.2,5.1,0.183,10.116-0.05,15.05l-0.7,15.3c0,2.267-0.05,4.551-0.15,6.851
			l-3.75-2.851l0.1-10.35c0.567-7,0.85-17.316,0.85-30.95l-0.1-43.15c0.034-3.467,0.417-7.95,1.15-13.45c1-7.7,1.566-12.2,1.7-13.5
			C36.1,38.617,36.2,37.133,36.2,37z"/>
		<path style="fill-rule:evenodd;clip-rule:evenodd;fill:#D99E58;" d="M23,27.5l0.8,9.05c0.067,4.1-0.216,10.133-0.85,18.1
			c-0.634,8.067-0.934,14.067-0.9,18v4.15c-0.033,5.567-0.033,11.101,0,16.601l0.15,10.05c0.066,2.666,0.25,6.767,0.55,12.3
			c0.1,4.733-0.367,8.533-1.4,11.4c-1.233,3.933-1.367,8.866-0.4,14.8c-1.634-1.834-3.184-3.783-4.65-5.851
			c0.067-1.433,0.284-2.8,0.65-4.1c0.933-3.467,1.283-8.217,1.05-14.25c-0.267-7.366-0.283-12.25-0.05-14.65l-0.05-5.5
			c-0.1-6.066-0.066-12.616,0.1-19.649l0.15-4.9c0-1.767,0.05-3.583,0.15-5.45c0.034-3.267,0.25-8.333,0.65-15.2
			c0.433-6.6,0.633-11.65,0.6-15.15c0-1.434-0.05-2.883-0.15-4.35l-0.1-1.2C20.7,30,21.933,28.6,23,27.5z"/>
		<path style="fill-rule:evenodd;clip-rule:evenodd;fill:#D99E58;" d="M63.15,7.25c-0.233-0.9-0.233-2.167,0-3.8l0.05-0.4l3.5-0.85
			c-0.267,1.667-0.367,3.617-0.3,5.85c0.033,0.9,0.133,2.233,0.3,4c0.533,2.133,0.8,5.5,0.8,10.1c0,7.1-0.283,26.733-0.85,58.9
			c-0.4,24.101-0.367,43.783,0.1,59.05L67,150.15c-0.2,2.6-0.2,5.85,0,9.75c0.333,6.233,0.5,9.517,0.5,9.85l-2.95-0.7L64.5,136
			c0.033-2.2-0.117-5.316-0.45-9.35c-0.333-4.134-0.5-7.233-0.5-9.301c-0.133-7.533,0.067-21.6,0.6-42.2
			c0.467-17.8,0.434-31.867-0.1-42.2c0-0.6,0.184-1.417,0.55-2.45c0.466-1.133,0.767-1.95,0.9-2.45c0.2-2.8-0.017-6.25-0.65-10.35
			C64.017,13.1,63.45,9.617,63.15,7.25z"/>
		<path style="fill-rule:evenodd;clip-rule:evenodd;fill:#D99E58;" d="M50.8,45.35l-0.5-5.55c-0.133-1.1-0.133-2.517,0-4.25l0.4-1.3
			c0.2-0.533,0.917-2.184,2.15-4.95c0.9-2.066,1.517-3.8,1.85-5.2c0.566-2.434,0.283-5.233-0.85-8.4
			c-1.567-3.567-2.65-6.267-3.25-8.1c2.733-1.2,5.183-2.167,7.35-2.9v0.75c-0.1,2.3,0.566,6.066,2,11.3
			c1.3,4.7,1.683,8.467,1.15,11.3c-0.333,1.467-0.9,3.667-1.7,6.6c-0.6,2.567-0.683,4.767-0.25,6.6c1.6,10.367,2.233,22.7,1.9,37
			c-0.2,8.167-0.667,20.384-1.4,36.65c0,2.399,0.317,6.066,0.95,11c0.667,4.899,0.983,8.616,0.95,11.149l-0.05,5.05
			c-0.333,4.601-0.567,13.233-0.7,25.9c-2-0.6-4.267-1.417-6.8-2.45c0.4-5.533,0.7-9.7,0.9-12.5c0.367-4.934,0.583-9.1,0.65-12.5
			v-4.3c-0.066-1.634-0.667-5.983-1.8-13.05c-0.9-5.4-1.067-9.8-0.5-13.2c1.733-10.6,2.367-21.184,1.9-31.75l0.05-1.65
			c0-2.967-0.284-5.967-0.85-9C53.617,60.6,52.433,53.183,50.8,45.35z"/>
		<path style="fill-rule:evenodd;clip-rule:evenodd;fill:#AF6924;" d="M0,85.9c0-1.933,0.083-4.1,0.25-6.5L0.1,90
			C0.033,89.1,0,87.733,0,85.9z"/>
		<path style="fill-rule:evenodd;clip-rule:evenodd;fill:#AF6924;" d="M5.7,55.15l1.05-2.65L6.5,69.85
			c-0.133,7.033-0.383,17.6-0.75,31.7l-0.1,4.5c0.133,3.134,0.117,6.584-0.05,10.351l-0.75-2c0.066-3.467,0.017-6.367-0.15-8.7
			L5.7,55.15z"/>
		<path style="fill-rule:evenodd;clip-rule:evenodd;fill:#AF6924;" d="M7.55,63.1L7.4,73c-0.133,6.033-0.333,15.066-0.6,27.1
			l-0.05,3.851c-0.133,2.1-0.15,4.75-0.05,7.95c0.133,4.433,0.2,7.033,0.2,7.8l-1-2.5c-0.1-7.5-0.15-11.3-0.15-11.4l1-53.3
			l0.75-1.65C7.4,55.283,7.417,59.367,7.55,63.1z"/>
		<path style="fill-rule:evenodd;clip-rule:evenodd;fill:#AF6924;" d="M12.1,76.75l0.25-10.25c-0.067-3.434-0.067-7.667,0-12.7
			c0.1-5.566,0.15-9.733,0.15-12.5l1.25-1.9c0.167,8.967,0.066,17.967-0.3,27L13.15,77c-0.2,7.4-0.3,14.8-0.3,22.2v4.45
			c0.133,8-0.083,16.216-0.65,24.649l-0.15,1.4L11,127.85l0.2-2.25c0.133-2.3,0.167-6.149,0.1-11.55c-0.1-4.934,0-8.816,0.3-11.649
			V98.1C11.633,95,11.8,87.884,12.1,76.75z"/>
		<path style="fill-rule:evenodd;clip-rule:evenodd;fill:#AF6924;" d="M17.4,34.15l1.9-2.45l0.1,1.2c0.1,1.467,0.15,2.917,0.15,4.35
			c0.034,3.5-0.167,8.55-0.6,15.15c-0.4,6.867-0.617,11.934-0.65,15.2c-0.1,1.867-0.15,3.683-0.15,5.45L18,77.95
			c-0.167,7.033-0.2,13.583-0.1,19.649l0.05,5.5c-0.233,2.4-0.217,7.284,0.05,14.65c0.233,6.033-0.117,10.783-1.05,14.25
			c-0.367,1.3-0.583,2.667-0.65,4.1c-0.667-0.899-1.117-1.533-1.35-1.899v-0.25c1-4.267,1.5-9.566,1.5-15.9
			c0.033-10.066,0.066-15.416,0.1-16.05v-4.7c0.034-5.2,0.15-13.066,0.35-23.6L17,69C17.467,53.5,17.6,41.883,17.4,34.15z"/>
		<path style="fill-rule:evenodd;clip-rule:evenodd;fill:#AF6924;" d="M23.8,36.55L23,27.5l1.4-1.5
			c0.633,2.867,1.417,5.833,2.35,8.9c0,1.7-0.067,3.233-0.2,4.6c-0.133,1.633-0.883,7.033-2.25,16.2c-1,6.6-1.316,12.083-0.95,16.45
			L23.2,104.4c0.233,4.3,0.066,9.666-0.5,16.1c-0.833,9.2-1.284,14.517-1.35,15.95c-0.133,1.967-0.1,4,0.1,6.1l-0.5-0.6
			c-0.967-5.934-0.833-10.867,0.4-14.8c1.033-2.867,1.5-6.667,1.4-11.4c-0.3-5.533-0.483-9.634-0.55-12.3L22.05,93.4
			c-0.033-5.5-0.033-11.034,0-16.601v-4.15c-0.033-3.933,0.267-9.933,0.9-18C23.583,46.683,23.867,40.65,23.8,36.55z"/>
		<path style="fill-rule:evenodd;clip-rule:evenodd;fill:#AF6924;" d="M27.4,35.95c-0.2-2.067-0.383-3.617-0.55-4.65
			c-0.5-1.733-1.017-3.8-1.55-6.2l1.35-1.3c0.567,2.633,1.35,5.567,2.35,8.8c0.167,1.933,0.233,3.583,0.2,4.95
			c-0.034,3.667-0.517,7.8-1.45,12.4c-0.533,2.767-1.517,6.917-2.95,12.45c-0.167,0.833-0.083,2.15,0.25,3.95
			c0.333,1.833,0.417,3.2,0.25,4.1v36.6c-0.233,2.101-0.3,6.75-0.2,13.95c0.066,5.767-0.367,10.417-1.3,13.95
			c-0.3,1.566-0.35,3.366-0.15,5.399c0.067,0.967,0.3,2.75,0.7,5.351l-0.85-0.9c-0.167-4.333,0.033-10.75,0.6-19.25
			c0.533-8.6,0.733-15.033,0.6-19.3L24.35,73.2c-0.067-1.833-0.117-3.217-0.15-4.15c-0.4-2.733-0.35-5.867,0.15-9.4
			c0.267-2,0.9-5.183,1.9-9.55C27.417,45.833,27.8,41.117,27.4,35.95z"/>
		<path style="fill-rule:evenodd;clip-rule:evenodd;fill:#AF6924;" d="M31.55,40.15c0.133-2.233,0.2-3.917,0.2-5.05
			c0.033-1.967-0.167-3.667-0.6-5.1c-0.733-2.9-1.383-5.75-1.95-8.55l1.4-1.25c1.133,8.2,1.833,14.65,2.1,19.35
			c0,1.167-0.067,2.883-0.2,5.15c-0.4,5.133-1.333,10.2-2.8,15.2c-0.4,1.2-0.617,2.684-0.65,4.45c0,0.966,0.017,2.45,0.05,4.45
			L29.35,84c0.267,2.667,0.383,6.2,0.35,10.6c0,5.634,0.017,9.167,0.05,10.601c0.066,1.833,0.15,3.217,0.25,4.149
			c0.133,5.767,0.117,10.384-0.05,13.851c-0.267,4.934-0.85,9.5-1.75,13.7c-0.4,1.466-0.5,3.183-0.3,5.149
			c0.133,1.134,0.383,2.783,0.75,4.95l0.1,2.9l-0.5-0.4l-0.2-3.3c-0.733-2.233-0.833-4.667-0.3-7.3
			c0.667-7.567,0.967-18.284,0.9-32.15c0.1-1.2,0.15-2.366,0.15-3.5c0.034-1.967-0.033-4.866-0.2-8.7
			c-0.2-3.866-0.284-6.75-0.25-8.65l-0.2-15.65c0.133-3.3,0.55-7.467,1.25-12.5c1.067-7.7,1.633-11.883,1.7-12.55
			C31.3,43.467,31.45,41.783,31.55,40.15z"/>
		<path style="fill-rule:evenodd;clip-rule:evenodd;fill:#AF6924;" d="M32.05,19.05l1.3-1.05c0.966,3.1,1.466,4.733,1.5,4.9
			c0.566,1.9,0.966,3.617,1.2,5.15c0,3.9,0.05,6.883,0.15,8.95c0,0.133-0.1,1.617-0.3,4.45c-0.133,1.3-0.7,5.8-1.7,13.5
			c-0.733,5.5-1.117,9.983-1.15,13.45l0.1,43.15c0,13.634-0.283,23.95-0.85,30.95l-0.1,10.35l-1.4-1.149l0.1-7.55
			c0.7-4.567,0.983-10.417,0.85-17.551c-0.2-9.933-0.267-15.783-0.2-17.55l0.05-4.7c0.167-6.233,0.267-10.933,0.3-14.1
			c0.067-5.467-0.1-10.233-0.5-14.3V70.7c-0.133-3.567,0.184-7.833,0.95-12.8c1-5.633,1.7-9.85,2.1-12.65
			c0.233-1.6,0.433-3.267,0.6-5c0.1-2.267,0.15-3.967,0.15-5.1c0.033-2-0.167-3.717-0.6-5.15
			C33.566,26.667,32.717,23.017,32.05,19.05z"/>
		<path style="fill-rule:evenodd;clip-rule:evenodd;fill:#AF6924;" d="M39.1,38.9c0.033-2.4,0.05-4.217,0.05-5.45
			c0-2.2-0.2-4-0.6-5.4c-0.767-3.667-1.383-7.833-1.85-12.5l0.05-0.05c0.367,2,0.9,4.983,1.6,8.95c0.566,3.433,0.867,6.45,0.9,9.05
			c0.1,1.767,0.15,3.5,0.15,5.2c0.133,7.2-0.133,15.866-0.8,26v5.1c-0.067,24.967-0.167,41.601-0.3,49.9l-0.2,37.5l-1.15-0.851
			l0.4-6.949l0.3-29.101c-0.033-3.7,0.083-12.133,0.35-25.3c0.167-10.467,0.133-18.867-0.1-25.2L37.85,65
			c0.033-2.833,0.183-6.45,0.45-10.85c0.4-6.566,0.617-10.2,0.65-10.9L39.1,38.9z"/>
		<path style="fill-rule:evenodd;clip-rule:evenodd;fill:#AF6924;" d="M37.7,40.6c0.267-3.567,0.133-7.617-0.4-12.15
			c-0.233-1.833-0.85-5.833-1.85-12l0.6-0.45c1.233,6.267,1.967,10.4,2.2,12.4c0.6,4.7,0.667,8.934,0.2,12.7l-0.4,4.6
			c-0.633,6.133-1,9.983-1.1,11.55c-0.3,4.3-0.317,8.1-0.05,11.4l0.05,4.85c0.066,9.933,0.116,24.65,0.15,44.15v3.3
			c-0.067,3.434-0.067,6.95,0,10.55l-0.35,24.75l-0.8-0.55c0.1-2.3,0.15-4.584,0.15-6.851l0.7-15.3
			c0.233-4.934,0.25-9.95,0.05-15.05l-0.1-4.5C36.283,92.5,36.033,78.983,36,73.45l-0.05-4.25c0.033-3.134,0.216-7.067,0.55-11.8
			c0.433-5.333,0.733-9.333,0.9-12L37.7,40.6z"/>
		<path style="fill-rule:evenodd;clip-rule:evenodd;fill:#AF6924;" d="M38.45,41.1c0.466-3.767,0.4-8-0.2-12.7
			c-0.233-2-0.967-6.133-2.2-12.4l0.65-0.45c0.466,4.667,1.083,8.833,1.85,12.5c0.4,1.4,0.6,3.2,0.6,5.4
			c0,1.233-0.017,3.05-0.05,5.45l-0.15,4.35c-0.034,0.7-0.25,4.333-0.65,10.9c-0.267,4.4-0.417,8.017-0.45,10.85l0.05,4.8
			c0.233,6.333,0.267,14.733,0.1,25.2c-0.267,13.167-0.383,21.6-0.35,25.3l-0.3,29.101L37,152.8l0.1-21.3
			c-0.067-3.6-0.067-7.116,0-10.55v-3.3c-0.034-19.5-0.083-34.217-0.15-44.15l-0.05-4.85c-0.267-3.3-0.25-7.1,0.05-11.4
			c0.1-1.567,0.466-5.417,1.1-11.55L38.45,41.1z"/>
		<path style="fill-rule:evenodd;clip-rule:evenodd;fill:#AF6924;" d="M46.4,90.35c0.867-4.066,1.017-8.649,0.45-13.75
			c-0.267-2.4-0.917-6.317-1.95-11.75c-1-5.1-1.617-9.034-1.85-11.8c0.733,2.833,1.333,5.284,1.8,7.35
			c1.333,7.667,2.066,12.033,2.2,13.1c0.2,2.167,0.3,4.35,0.3,6.55c0.133,4.633-0.5,13.983-1.9,28.05
			c-1.167,11.767-1.217,21.267-0.15,28.5l-0.35,24.75l-0.55-0.3l0.05-23.45c-0.3-9.199-0.35-17.033-0.15-23.5
			C44.566,105.7,45.267,97.783,46.4,90.35z"/>
		<path style="fill-rule:evenodd;clip-rule:evenodd;fill:#AF6924;" d="M42.65,41.2c0.1-6.434,0.133-11.267,0.1-14.5
			c-0.033-5.634-0.35-10.467-0.95-14.5l0.55-0.3c0.966,6,1.5,9.417,1.6,10.25c0.233,2.633,0.167,5.833-0.2,9.6
			C43.517,33.85,43.15,37,42.65,41.2z"/>
		<path style="fill-rule:evenodd;clip-rule:evenodd;fill:#AF6924;" d="M45.675,108.025c-0.506,7.911-0.515,15.119-0.025,21.625
			c-0.5-4.867-0.617-10.233-0.35-16.101C45.378,111.871,45.503,110.029,45.675,108.025z"/>
		<path style="fill-rule:evenodd;clip-rule:evenodd;fill:#AF6924;" d="M43.6,36.8c-0.267,4.8-0.367,8.4-0.3,10.8
			c-0.466-2.8-0.583-5.233-0.35-7.3L43.6,36.8z"/>
		<path style="fill-rule:evenodd;clip-rule:evenodd;fill:#AF6924;" d="M42.95,51.6l0.1,1.45l-0.1-0.5c-0.6-3.1-0.7-6.883-0.3-11.35
			C42.65,45.367,42.75,48.833,42.95,51.6z"/>
		<path style="fill-rule:evenodd;clip-rule:evenodd;fill:#AF6924;" d="M47.65,88.9c0.4-4.534,0.2-9.667-0.6-15.4
			c-0.367-3.9-1.1-8.267-2.2-13.1c-0.633-3.8-1.1-7.066-1.4-9.8l-0.15-3c0.167,1,0.534,2.65,1.1,4.95
			c1.667,6.7,2.8,12.517,3.4,17.45c0.7,6.167,0.717,11.967,0.05,17.4L47.65,88.9z"/>
		<path style="fill-rule:evenodd;clip-rule:evenodd;fill:#AF6924;" d="M45.725,130.45c0.265,2.524,0.623,4.841,1.075,6.95l0.1,3.55
			c0.033,3.767-0.066,8.434-0.3,14L46.25,162l-0.45-0.25l0.1-2.95c0.267-8.133,0.4-14.184,0.4-18.149l-0.05-4.551
			C46.046,134.233,45.871,132.35,45.725,130.45z"/>
		<path style="fill-rule:evenodd;clip-rule:evenodd;fill:#AF6924;" d="M43.6,36.8c0.433-6.733,0.667-10.966,0.7-12.7
			c0.1-4.8-0.2-9.067-0.9-12.8l0.15-0.1c1.133,3.8,1.65,8.033,1.55,12.7C45,27.533,44.5,31.833,43.6,36.8z"/>
		<path style="fill-rule:evenodd;clip-rule:evenodd;fill:#AF6924;" d="M42.65,41.2c0.5-4.2,0.867-7.35,1.1-9.45
			c0.367-3.767,0.433-6.967,0.2-9.6c-0.1-0.833-0.634-4.25-1.6-10.25l1.05-0.6c0.7,3.733,1,8,0.9,12.8
			c-0.033,1.733-0.267,5.966-0.7,12.7l-0.65,3.5c-0.233,2.067-0.117,4.5,0.35,7.3l0.15,3c0.3,2.733,0.767,6,1.4,9.8
			c-0.467-2.066-1.067-4.517-1.8-7.35l-0.1-1.45C42.75,48.833,42.65,45.367,42.65,41.2z"/>
		<path style="fill-rule:evenodd;clip-rule:evenodd;fill:#AF6924;" d="M47.35,80.05c0-2.2-0.1-4.383-0.3-6.55
			c0.8,5.733,1,10.867,0.6,15.4L46.7,97.3l-0.05,0.15c-0.7,6.434-1.15,11.8-1.35,16.1c-0.267,5.867-0.15,11.233,0.35,16.101
			c0.167,2.166,0.367,4.316,0.6,6.449l0.05,4.551c0,3.966-0.133,10.017-0.4,18.149l-0.1,2.95l-0.85-0.4l0.35-24.75
			c-1.066-7.233-1.017-16.733,0.15-28.5C46.85,94.033,47.483,84.683,47.35,80.05z"/>
		<path style="fill-rule:evenodd;clip-rule:evenodd;fill:#AF6924;" d="M52.3,117.65l-0.05,0.199c-0.1,1.301-0.033,3.067,0.2,5.301
			c0.3,4.199,0.933,8.216,1.9,12.05l0.1,1.45L54.3,141.6c-0.2,5.134-0.75,12.95-1.65,23.45l-0.7-0.3c0.366-4.7,0.633-8.233,0.8-10.6
			c0.3-4.2,0.517-7.733,0.65-10.601l0.1-3.899c0.1-2.5-0.033-5.384-0.4-8.65c-0.2-1.767-0.633-4.684-1.3-8.75
			c-0.566-5.967-0.417-11.366,0.45-16.2l0.6-2.7l-0.1,2.75C52.417,110.5,52.267,114.35,52.3,117.65z"/>
		<path style="fill-rule:evenodd;clip-rule:evenodd;fill:#AF6924;" d="M50.9,10.15l1.25,4.75c0.434,2.833,0.333,6.35-0.3,10.55
			c-0.367,2.3-0.883,5.616-1.55,9.95l-0.35,1.4c-0.767,2.934-0.983,5.4-0.65,7.4c0.467,3.133,1.217,6.8,2.25,11
			c0.333,4.6,0.55,8.05,0.65,10.35c-0.434-2.667-1.05-6.033-1.85-10.1c-1.267-6.4-1.934-9.817-2-10.25
			c-0.633-3.333-0.167-9.417,1.4-18.25c1.4-7.833,1.15-14.034-0.75-18.6l0.95-0.45l0.2,0.65L50.9,10.15z"/>
		<path style="fill-rule:evenodd;clip-rule:evenodd;fill:#AF6924;" d="M55.2,76.6l-0.05,1.65c-0.167-3.8-0.433-7.35-0.8-10.65
			C54.917,70.633,55.2,73.633,55.2,76.6z"/>
		<path style="fill-rule:evenodd;clip-rule:evenodd;fill:#AF6924;" d="M50.9,10.15L50.45,8.5l-0.1-0.75L50.6,7.6
			c0.6,1.833,1.683,4.533,3.25,8.1c1.133,3.167,1.417,5.966,0.85,8.4c-0.333,1.4-0.95,3.133-1.85,5.2
			c-1.233,2.767-1.95,4.417-2.15,4.95c0.6-1.767,1.05-3.1,1.35-4c0.534-1.633,0.934-3.033,1.2-4.2c0.467-3.167,0.1-6.883-1.1-11.15
			C51.95,13.4,51.533,11.816,50.9,10.15z"/>
		<path style="fill-rule:evenodd;clip-rule:evenodd;fill:#AF6924;" d="M54.35,67.6c-0.467-2.8-1.4-6.934-2.8-12.4
			c-0.2-3.2-0.45-6.483-0.75-9.85C52.433,53.183,53.617,60.6,54.35,67.6z"/>
		<path style="fill-rule:evenodd;clip-rule:evenodd;fill:#AF6924;" d="M49.8,40.8c-0.233-1.2-0.183-2.533,0.15-4l0.35-1.25
			c-0.133,1.733-0.133,3.15,0,4.25l0.5,5.55L49.8,40.8z"/>
		<path style="fill-rule:evenodd;clip-rule:evenodd;fill:#AF6924;" d="M54.3,90.5l-1.45,12.85c0.3-12.166,0.083-24.766-0.65-37.8
			C53.8,75.083,54.5,83.4,54.3,90.5z"/>
		<path style="fill-rule:evenodd;clip-rule:evenodd;fill:#AF6924;" d="M54.3,90.5c0.467-5.5,0.75-9.583,0.85-12.25
			c0.467,10.566-0.167,21.15-1.9,31.75c-0.567,3.4-0.4,7.8,0.5,13.2c1.133,7.066,1.733,11.416,1.8,13.05v4.3
			c-0.066,3.4-0.283,7.566-0.65,12.5c-0.2,2.8-0.5,6.967-0.9,12.5l-0.75-0.3c0.4-5.4,0.7-9.467,0.9-12.2
			c0.3-4.733,0.45-8.783,0.45-12.149c0.033-1.534,0-3.217-0.1-5.051l-0.15-0.649c-0.1-1.566-0.383-3.601-0.85-6.101
			c-0.567-3-0.917-4.983-1.05-5.949c-0.1-1.801-0.15-3.634-0.15-5.5c0.2-3.834,0.35-7.684,0.45-11.551l0.4-4.5
			C53.75,98.1,54.133,94.4,54.3,90.5z"/>
		<path style="fill-rule:evenodd;clip-rule:evenodd;fill:#AF6924;" d="M54.5,135.85c0.1,1.834,0.133,3.517,0.1,5.051
			c0,3.366-0.15,7.416-0.45,12.149c-0.2,2.733-0.5,6.8-0.9,12.2l-0.6-0.2c0.9-10.5,1.45-18.316,1.65-23.45l0.15-4.949l-0.1-1.45
			L54.5,135.85z"/>
		<polygon style="fill-rule:evenodd;clip-rule:evenodd;fill:#AF6924;" points="50.9,10.15 50.15,8.55 49.95,7.9 50.35,7.75 
			50.45,8.5 		"/>
		<path style="fill-rule:evenodd;clip-rule:evenodd;fill:#AF6924;" d="M53.25,26.05c-0.267,1.167-0.667,2.567-1.2,4.2
			c-0.3,0.9-0.75,2.233-1.35,4l-0.4,1.15c0.667-4.333,1.184-7.65,1.55-9.95c0.633-4.2,0.733-7.717,0.3-10.55
			C53.35,19.167,53.717,22.883,53.25,26.05z"/>
		<path style="fill-rule:evenodd;clip-rule:evenodd;fill:#AF6924;" d="M54.35,67.6c0.367,3.3,0.633,6.85,0.8,10.65
			c-0.1,2.667-0.383,6.75-0.85,12.25c0.2-7.1-0.5-15.417-2.1-24.95c-0.1-2.3-0.317-5.75-0.65-10.35
			C52.95,60.667,53.883,64.8,54.35,67.6z"/>
		<path style="fill-rule:evenodd;clip-rule:evenodd;fill:#AF6924;" d="M62.05,15.35c0.767,2.9,0.934,5.483,0.5,7.75
			c-0.867,6.566-1.1,14.566-0.7,24c0.233,5.267,0.6,13.183,1.1,23.75L62.7,83.2c-0.167,2.3-0.367,4.517-0.6,6.649
			c-1.034,7.167-1.4,15.5-1.1,25c0.167,5.434,0.533,13.65,1.1,24.65l-0.05,5.25c-0.4,10.167-0.65,17.967-0.75,23.4L60.8,168
			c0.133-12.667,0.367-21.3,0.7-25.9l0.05-5.05c0.034-2.533-0.283-6.25-0.95-11.149c-0.633-4.934-0.95-8.601-0.95-11
			c0.733-16.267,1.2-28.484,1.4-36.65c0.333-14.3-0.3-26.633-1.9-37c-0.433-1.833-0.35-4.033,0.25-6.6
			c0.8-2.933,1.367-5.133,1.7-6.6c0.533-2.833,0.15-6.6-1.15-11.3c-1.434-5.233-2.1-9-2-11.3V4.7l1.1-0.35
			c0.1,1.033,0.317,2.283,0.65,3.75C60.167,9.667,60.95,12.083,62.05,15.35z"/>
		<path style="fill-rule:evenodd;clip-rule:evenodd;fill:#AF6924;" d="M61.6,5.5c-0.034-0.633-0.034-1.283,0-1.95l1.6-0.5l-0.05,0.4
			c-0.233,1.633-0.233,2.9,0,3.8c0.3,2.367,0.867,5.85,1.7,10.45c0.633,4.1,0.85,7.55,0.65,10.35c-0.133,0.5-0.434,1.317-0.9,2.45
			c-0.367,1.033-0.55,1.85-0.55,2.45c0.534,10.333,0.567,24.4,0.1,42.2c-0.533,20.6-0.733,34.667-0.6,42.2
			c0,2.067,0.167,5.167,0.5,9.301c0.333,4.033,0.483,7.149,0.45,9.35l0.05,33.05l-1.05-0.3c0.066-9.333,0.05-17.767-0.05-25.3
			L63.4,139.6c-0.8-16.033-1.033-34.833-0.7-56.399c0.267-3.8,0.35-7.917,0.25-12.35c0.5-17.934,0.866-31.383,1.1-40.35
			c0-7.8-0.65-15.017-1.95-21.65C61.867,7.85,61.7,6.733,61.6,5.5z"/>
		<path style="fill-rule:evenodd;clip-rule:evenodd;fill:#AF6924;" d="M66.4,8.05c-0.066-2.233,0.033-4.183,0.3-5.85l1.1-0.25
			L67.55,4.2c-0.1,1.267-0.117,2.7-0.05,4.3l0.35,4.4c0.533,13.434,0.417,34.2-0.35,62.3c-0.7,27.267-0.717,48.083-0.05,62.45
			l0.7,15.25c0.1,2,0.25,4.883,0.45,8.649c0.133,3.2,0.183,6.017,0.15,8.45l-1.25-0.25c0-0.333-0.167-3.616-0.5-9.85
			c-0.2-3.9-0.2-7.15,0-9.75L66.75,140.1c-0.467-15.267-0.5-34.949-0.1-59.05c0.567-32.167,0.85-51.8,0.85-58.9
			c0-4.6-0.267-7.967-0.8-10.1C66.533,10.283,66.433,8.95,66.4,8.05z"/>
		<path style="fill-rule:evenodd;clip-rule:evenodd;fill:#AF6924;" d="M70.95,142.05l0.4,8.101c0.167,2.3,0.4,5.733,0.7,10.3
			c0.267,3.967,0.434,7.383,0.5,10.25l-0.2-0.05v-0.301c-0.6-5.966-1.017-12.933-1.25-20.899L70.95,142.05l-0.1-4.8
			c-0.133-16.434-0.2-28.767-0.2-37c0-14.434,0.35-26.8,1.05-37.1c-0.534,33.4-0.784,58.466-0.75,75.2V142.05z"/>
		<path style="fill-rule:evenodd;clip-rule:evenodd;fill:#AF6924;" d="M70.85,46.2c-0.1-15.434-0.067-26.067,0.1-31.9v-0.75L71,14.5
			c0.333,14.933,0.283,33.95-0.15,57.05c-0.193,10.632-0.401,19.815-0.625,27.55c-0.017-8.433,0.042-15.433,0.175-21
			C70.767,70.367,70.917,59.733,70.85,46.2z"/>
		<polygon style="fill-rule:evenodd;clip-rule:evenodd;fill:#AF6924;" points="70.95,8.1 70.95,1.35 71.15,1.3 71.15,6.05 		"/>
		<path style="fill-rule:evenodd;clip-rule:evenodd;fill:#AF6924;" d="M71.9,14.55l0.05-13.4h0.2v9.7c0.133,2.6,0.2,4.483,0.2,5.65
			L72.1,33.05C71.833,24.917,71.767,18.75,71.9,14.55z"/>
		<path style="fill-rule:evenodd;clip-rule:evenodd;fill:#AF6924;" d="M72.1,33.05c0.233,5.733,0.35,10.2,0.35,13.4
			c0,4.933-0.184,9.417-0.55,13.45l-0.2,3.25L72.1,33.05z"/>
		<path style="fill-rule:evenodd;clip-rule:evenodd;fill:#AF6924;" d="M71.15,6.05V1.3l0.8-0.15l-0.05,13.4
			c-0.133,4.2-0.066,10.367,0.2,18.5l-0.4,30.1c-0.7,10.3-1.05,22.667-1.05,37.1c0,8.233,0.067,20.566,0.2,37l0.25,12.2
			c0.233,7.967,0.65,14.934,1.25,20.899v0.301l-0.7-0.101l-0.2-2.649c-0.567-7.733-0.967-13.567-1.2-17.5l-0.35-21.7
			c0.033-5.066,0.35-24.117,0.95-57.15c0.433-23.1,0.483-42.117,0.15-57.05l-0.05-6.4L71.15,6.05z"/>
		<path style="fill-rule:evenodd;clip-rule:evenodd;fill:#AF6924;" d="M77.8,0.4v17.85c0.4,16.767,0.4,36.633,0,59.6
			c-0.233,13.233-0.667,33.083-1.3,59.55l-0.2,5c0,1.699,0.05,3.366,0.15,5l0.1,4.649c0.133,1.066,0.233,3.117,0.3,6.15l0.2,3.1
			c0.133,2.033,0.4,5.117,0.8,9.25l0.05,0.8l-1.2-0.1V171c-0.067-2.5-0.2-5.566-0.4-9.2c-0.267-4.1-0.466-7.184-0.6-9.25
			L75.25,141.9c-0.033-2.034-0.033-4.067,0-6.101c0.667-25.666,1.117-45.399,1.35-59.2c0.333-21.8,0.383-41.55,0.15-59.25L76.7,0.5
			L77.8,0.4z"/>
		<path style="fill-rule:evenodd;clip-rule:evenodd;fill:#AF6924;" d="M81.55,0.15l0.05,21.6c0.433,14.7,0.433,34.117,0,58.25
			c-0.534,30.134-0.784,49.517-0.75,58.15l0.45,14c0.167,7.267,0.184,13.75,0.05,19.449l-1.05-0.05l0.1-5.35
			c0.133-3.634-0.017-8.25-0.45-13.851l-0.35-4.699c-0.133-1-0.267-2.5-0.4-4.5l-0.1-4.551c0.733-17.6,1.216-37.199,1.45-58.8
			c0.133-13.767,0.184-33.4,0.15-58.9L80.65,0.2C80.85,0.167,81.15,0.15,81.55,0.15z"/>
		<path style="fill-rule:evenodd;clip-rule:evenodd;fill:#AF6924;" d="M84.1,0.05v24c0.333,11.567,0.216,30.633-0.35,57.2
			c-0.5,24.4-0.434,43.384,0.2,56.95v15.05c-0.1,6.134-0.25,12.267-0.45,18.4h-0.8V150.55c0.1-3.3,0.15-6.616,0.15-9.95l-0.05-5
			c-0.633-6.899-0.683-15.683-0.15-26.35c0.667-14.434,1-23.184,1-26.25c-0.133-6.367-0.2-15.85-0.2-28.45
			c0-12.533-0.083-21.966-0.25-28.3L83.15,0.1L84.1,0.05z"/>
		<path style="fill-rule:evenodd;clip-rule:evenodd;fill:#AF6924;" d="M92.7,0.3v45.65c-0.101,3.433-0.184,11.517-0.25,24.25
			l-0.5,16.95c0,5.333,0.133,10.983,0.399,16.949l0.2,5.601c0,3.7-0.066,9.366-0.2,17c-0.033,6.733,0.134,12.5,0.5,17.3l1.101,18.15
			c0.3,2.699,0.816,5.716,1.55,9.05l-1.95,0.149c-0.7-3.733-1.217-6.85-1.55-9.35l-0.35-3.25c0.066-2.066,0.1-5.184,0.1-9.35
			l-0.05-4.7c-0.033-1.634-0.233-7.167-0.601-16.601c-0.267-6.666-0.333-12.216-0.199-16.649L90.8,101.3
			c-0.066-4.133-0.033-7.684,0.101-10.649l0.05-3.851c0.033-4.3,0.149-10.683,0.35-19.15L91.4,62.7c0.1-2.934,0.116-6.233,0.05-9.9
			V0.2L92.7,0.3z"/>
		<path style="fill-rule:evenodd;clip-rule:evenodd;fill:#AF6924;" d="M95.45,43.25L95.35,38.6C95.05,27.667,94.9,14.967,94.9,0.5
			l0.35,0.05l0.2,5.4c0.434,8.267,0.833,18.583,1.2,30.95l0.1,4.4c0.2,13.4,0.017,24.284-0.55,32.65l-0.55,9.65
			c-0.101,1.4-0.15,2.783-0.15,4.15c-0.4,3.333-0.333,6.85,0.2,10.55c0.166,1.2,0.366,2.334,0.6,3.4l1.2,5.149
			c1.5,6.233,2.25,13.25,2.25,21.051c0.033,5.233-0.366,12.333-1.2,21.3l-0.2,3.149c-0.199,2.101-0.35,4.2-0.449,6.301l0.05,3.399
			c0.1,2.566,0.366,5.467,0.8,8.7l-1.65,0.2c-0.466-2.934-0.75-5.717-0.85-8.351L96.2,159.4l1.25-11.5
			c0.833-7.667,1.2-14.4,1.1-20.2c-0.1-7.267-0.899-13.851-2.399-19.75l-1.101-5.101c-0.233-1.633-0.383-2.866-0.45-3.699
			c-0.433-3.9-0.433-7.684,0-11.351l0.9-12.85c0.6-4.534,0.833-9.784,0.7-15.75C95.866,52.167,95.616,46.85,95.45,43.25z"/>
		<path style="fill-rule:evenodd;clip-rule:evenodd;fill:#AF6924;" d="M98.65,0.95c0.066,5.367,0.199,9.983,0.399,13.85L99.4,36.85
			c0.5,14.966,0.416,28.833-0.25,41.6l-0.351,4.8c-1.2,4.4-1.583,8.95-1.149,13.65c0.166,1.633,0.383,3.066,0.649,4.3
			c0.566,1.566,1.167,3.333,1.8,5.3c2.7,6.267,3.9,13.8,3.601,22.6c-0.167,4.934-1.101,12.567-2.8,22.9l-1.2,7.15
			c0,0.966,0.066,2.449,0.2,4.449c0.133,2.134,0.416,4.4,0.85,6.801l-1.25,0.25c-0.5-2.233-0.85-4.417-1.05-6.551
			c-0.134-1.1-0.2-2.383-0.2-3.85v-4.2c0-1.666,0.217-3.133,0.65-4.399c2.267-6.767,3.233-14.284,2.899-22.551
			c-0.267-6.5-1.366-13.966-3.3-22.399l-1.05-4.8c-0.233-1.367-0.434-2.801-0.601-4.301C96.35,92.866,96.4,88.483,97,84.45l0.8-8.7
			c0.467-10.1,0.634-23.3,0.5-39.6L98.05,0.9L98.65,0.95z"/>
		<path style="fill-rule:evenodd;clip-rule:evenodd;fill:#AF6924;" d="M100.85,37.7l-0.25-16.55c-0.267-6.2-0.433-12.85-0.5-19.95
			l1.7,0.3c-0.1,5.867-0.116,12.433-0.05,19.7l0.05,11.2c-0.033,1.767,0.134,9.85,0.5,24.25c0.233,9.7-0.2,17.617-1.3,23.75
			l-0.3,4.6c-0.2,1.467-0.316,2.6-0.351,3.4c-0.1,1.1-0.149,2.216-0.149,3.35c0.133,3.233,0.217,5.05,0.25,5.45
			c0.166,2.133,0.467,3.934,0.899,5.399c0.634,1.567,1.233,3.25,1.801,5.051c0.566,1.699,1,3.216,1.3,4.55
			c1.366,6.533,1.767,14.3,1.2,23.3c-0.334,5.2-1.117,13.033-2.351,23.5c0,1-0.05,2.467-0.149,4.4
			c-0.034,1.733,0.133,3.199,0.5,4.399l0.149,2.05l-2.05,0.4c-0.2-0.833-0.35-1.616-0.45-2.35c-0.833-2.7-0.983-5.667-0.45-8.9
			c1.634-10.134,2.667-17.733,3.101-22.8c0.666-8.4,0.483-15.917-0.55-22.55c-0.367-1.801-0.784-3.4-1.25-4.801
			c-0.534-1.699-1.084-3.283-1.65-4.75l-1.5-4.05c-0.033-1.467-0.033-2.934,0-4.399c0-0.434,0.25-4.817,0.75-13.15l0.25-5.15
			c0.566-5.7,0.884-12.317,0.95-19.85C100.884,48.767,100.85,42.167,100.85,37.7z"/>
		<path style="fill-rule:evenodd;clip-rule:evenodd;fill:#AF6924;" d="M105.1,2.2l-0.3,33c0,2.7,0.2,10.017,0.601,21.95
			c0.267,8.833,0.199,16.05-0.2,21.65c-0.066,1.667-0.167,3.284-0.3,4.85c0.1,1.5-0.367,4.284-1.4,8.35
			c-0.866,3.434-0.934,6.15-0.2,8.15c0.601,1.767,1.101,3.35,1.5,4.75c0.566,1.733,1,3.283,1.3,4.649
			c1.767,8.101,2.467,17.483,2.101,28.15c-0.167,4.733-0.95,14.2-2.351,28.399l-0.1,3.301l-1.85,0.399l-0.051-1.7
			c1.267-12.633,2.101-22.133,2.5-28.5c0.667-11.066,0.233-20.616-1.3-28.649c-0.333-1.533-0.733-3.101-1.2-4.7l-0.949-5.35
			c-0.667-3.967-1.117-7.5-1.351-10.601c0.066-1.733,0.217-3.5,0.45-5.3l0.45-5.1c1.2-6.6,1.767-14.517,1.7-23.75
			c-0.334-10.733-0.567-18.8-0.7-24.2l-0.101-5.9c-0.399-7.2-0.517-15.3-0.35-24.3L105.1,2.2z"/>
		<path style="fill-rule:evenodd;clip-rule:evenodd;fill:#AF6924;" d="M110.9,3.75l-0.4,26.45c0.467,13,0.116,28.583-1.05,46.75
			l-0.351,5.3c-0.3,4.633-0.25,10.05,0.15,16.25l0.25,3.25c1.167,9.5,1.634,20.35,1.4,32.55c-0.134,6.733-0.667,17.634-1.601,32.7
			v1.45l-0.7,0.2l0.051-1.2c-0.067-3.2,0.25-13.851,0.949-31.95c0.5-13,0.117-23.6-1.149-31.8l-0.3-3.55
			c-0.301-4.334-0.45-7.934-0.45-10.801c-0.167-1.333-0.134-3.05,0.1-5.149c0.334-2.967,0.517-4.7,0.55-5.2l0.351-4.9
			c0.333-6.067,0.517-13.4,0.55-22c0-9.733,0.017-17.034,0.05-21.9l0.4-26.8L110.9,3.75z"/>
		<path style="fill-rule:evenodd;clip-rule:evenodd;fill:#AF6924;" d="M113.7,39.9c-0.033-2.967,0.083-8.467,0.35-16.5
			c0.233-6.967,0.267-12.417,0.101-16.35v-2.2l1,0.3c-0.067,17.367-0.2,30.467-0.4,39.3l-0.05,3.4
			c-0.101,5.133-0.117,10.9-0.05,17.3l-0.25,10.4c-0.334,5.7-0.551,11.834-0.65,18.4l-0.1,3.649
			c-0.467,7.267-0.551,16.434-0.25,27.5c-0.067,19.7-0.267,33.801-0.601,42.301l-0.95,0.3v-0.351l0.25-3.399
			c0.801-8.733,1.051-19.533,0.75-32.4c-0.5-14.3-0.767-25.017-0.8-32.149L112,96.1c-0.066-6.166,0.1-11.616,0.5-16.35l0.25-4.5
			c0.267-5.067,0.45-9.6,0.55-13.6c0-0.066,0.05-1.883,0.15-5.45c0.033-0.9,0.1-4.517,0.2-10.85L113.7,39.9z"/>
		<path style="fill-rule:evenodd;clip-rule:evenodd;fill:#AF6924;" d="M116.1,46.4c-0.199-5.467-0.216-12.267-0.05-20.4
			c0.267-9.067,0.417-15.833,0.45-20.3l1,0.4c-0.033,4.767-0.184,11.95-0.45,21.55c-0.166,8.633-0.133,15.85,0.101,21.65V54
			c0.066,8.133-0.034,14.65-0.301,19.55l-0.55,7.9c-0.3,10.533-0.533,24.033-0.7,40.5c-0.267,22.5-0.433,36-0.5,40.5l-0.399,4.3
			l-1.75,0.6l0.3-2.6c0.467-5.767,0.667-12.384,0.6-19.85c0-2.067-0.149-8.667-0.449-19.801c0.066-19.433,0.433-34.416,1.1-44.95
			l0.65-9.2c0.5-6.134,0.8-12.967,0.899-20.5L116.1,46.4z"/>
		<path style="fill-rule:evenodd;clip-rule:evenodd;fill:#AF6924;" d="M113.4,125.1c0.3,11.134,0.449,17.733,0.449,19.801
			c0.067,7.466-0.133,14.083-0.6,19.85l-0.3,2.6l-0.15,0.051C113.134,158.9,113.333,144.8,113.4,125.1z"/>
		<path style="fill-rule:evenodd;clip-rule:evenodd;fill:#AF6924;" d="M122,29.55c0.3-13.433,0.45-20.55,0.45-21.35L124,9
			c0,4.667-0.1,12.083-0.3,22.25c-0.167,9.633-0.25,17.033-0.25,22.2L123.3,76.3c0.066,2.7,0.083,4.733,0.05,6.1
			c-0.467,8.367-1.366,20.817-2.699,37.35c-0.934,14.533-0.983,26.967-0.15,37.3l0.7,7.05l-2,0.9c0.333-2.066,0.434-3.9,0.3-5.5
			c-1.467-11.1-1.816-23.833-1.05-38.2c1.366-16.733,2.366-29.366,3-37.9l0.2-4.5c0.066-1.5,0.066-3,0-4.5l0.1-4.7
			c0.1-6.3,0.15-11.017,0.15-14.15l0.05-4.65C121.816,45.233,121.833,38.117,122,29.55z"/>
		<path style="fill-rule:evenodd;clip-rule:evenodd;fill:#AF6924;" d="M124.65,30.5c0.199-10.4,0.316-17.4,0.35-21l0.65,0.3
			c-0.134,14.833-0.2,22.517-0.2,23.05c-0.033,8.733,0.1,16.4,0.399,23l0.101,4.8c0.066,5.3,0.083,9.267,0.05,11.9l-0.05,4
			c0.033,1.8,0,3.784-0.101,5.95c-0.1,1.767-0.283,3.733-0.55,5.9c-4.7,25.433-5.483,49.3-2.35,71.6l0.35,3.15l-1.8,0.8l-0.05-2
			c-0.434-20.733-0.617-32.983-0.55-36.75c0.166-14.134,1.283-26.4,3.35-36.8c0.2-2,0.3-3.984,0.3-5.95c0-2.233-0.066-4.233-0.2-6
			l0.101-24.9C124.417,46.283,124.483,39.267,124.65,30.5z"/>
		<path style="fill-rule:evenodd;clip-rule:evenodd;fill:#AF6924;" d="M123.8,150.6c-0.667-4.966-1-10.116-1-15.449
			C123,139.95,123.333,145.1,123.8,150.6z"/>
		<path style="fill-rule:evenodd;clip-rule:evenodd;fill:#AF6924;" d="M123.8,150.6c0.333,2.4,0.7,4.551,1.101,6.45l0.85,4.851
			l-0.85,0.399L123.8,150.6z"/>
		<path style="fill-rule:evenodd;clip-rule:evenodd;fill:#AF6924;" d="M126.7,33.4c-0.233-10.033-0.367-17.783-0.4-23.25l0.95,0.55
			c0.033,5.4,0.15,13.517,0.35,24.35c0.2,10.833,0.317,18.967,0.351,24.4l-0.3,12.9c0.133,3.8,0.05,7.716-0.25,11.75
			c-0.034,1.3-0.134,2.6-0.301,3.9c-0.5,5.2-1.416,13-2.75,23.4c-1.066,9.333-1.583,17.25-1.55,23.75
			c-0.8-17.967,0.533-33.601,4-46.9l0.15-3.6c-0.033-4.9-0.033-8.583,0-11.05l0.149-17C127.066,51.833,126.934,44.1,126.7,33.4z"/>
		<path style="fill-rule:evenodd;clip-rule:evenodd;fill:#AF6924;" d="M134.1,21.45c0.167,2.4,0.367,4.75,0.601,7.05
			c0.767,5.033,1.333,9.183,1.7,12.45C135.133,35.117,134.366,28.617,134.1,21.45z"/>
		<path style="fill-rule:evenodd;clip-rule:evenodd;fill:#AF6924;" d="M135.05,92.7l0.75-9.85v2.85c0,1.866-0.033,3.283-0.1,4.25
			c-0.101,1.6-0.267,3.033-0.5,4.3l-1.101,6.4C134.366,97.717,134.684,95.066,135.05,92.7z"/>
		<path style="fill-rule:evenodd;clip-rule:evenodd;fill:#AF6924;" d="M135.25,60.75c0.667-2.833,1.167-4.983,1.5-6.45l-2.3,20.15
			c0.3,3.866,0.316,7.75,0.05,11.65c-0.033,1.266-0.134,2.534-0.3,3.8l-0.15,0.85V87.6c-0.133-2.966-0.233-5.2-0.3-6.7
			c-0.1-2.667-0.083-4.983,0.05-6.95c0.066-1.4,0.167-2.767,0.3-4.1c0.101-1.333,0.25-2.717,0.45-4.15L135.25,60.75z"/>
		<path style="fill-rule:evenodd;clip-rule:evenodd;fill:#AF6924;" d="M134.05,90.75v1.35l-1.7,9.7
			c-3.1,18.767-3.083,36.3,0.051,52.601c-3.9-17.667-3.917-35.801-0.051-54.4L134.05,90.75z"/>
		<path style="fill-rule:evenodd;clip-rule:evenodd;fill:#AF6924;" d="M133.5,109.1c-0.233,7.067-0.134,14.9,0.3,23.5
			c0.267,5.733,0.8,13.517,1.601,23.351l-0.601,0.399c-0.667-6.1-1.517-11.767-2.55-17c-0.867-4.767-1.134-10.05-0.8-15.85
			c0.133-2.967,0.649-8.116,1.55-15.45l0.65-4.6c0.033-0.167,0.183-1.101,0.449-2.8l-0.3,3
			C133.667,105.45,133.566,107.267,133.5,109.1z"/>
		<path style="fill-rule:evenodd;clip-rule:evenodd;fill:#AF6924;" d="M133.9,14.75l0.199,6.7c-0.199-3-0.316-5.267-0.35-6.8
			L133.9,14.75z"/>
		<path style="fill-rule:evenodd;clip-rule:evenodd;fill:#AF6924;" d="M137.05,33.65c-0.767-7.933-1.3-13.883-1.6-17.85l0.25,0.2
			c0.399,4.6,1.066,11.483,2,20.65c0.666,8.033,0.783,14.934,0.35,20.7l-0.45,4.9c-0.666,6.933-1.017,10.5-1.05,10.7l-0.75,9.9
			l0.101-8.9c0.199-3.233,0.449-6.567,0.75-10l0.5-4.95c0-0.833,0.166-2.067,0.5-3.7c0.333-1.667,0.5-2.9,0.5-3.7
			C138.017,46.767,137.65,40.783,137.05,33.65z"/>
		<path style="fill-rule:evenodd;clip-rule:evenodd;fill:#AF6924;" d="M137.15,44.2c0.399,1.6,0.533,3.316,0.399,5.15
			c-0.066,1.333-0.333,2.983-0.8,4.95c0.267-4.033,0.15-8.483-0.35-13.35L137.15,44.2z"/>
		<path style="fill-rule:evenodd;clip-rule:evenodd;fill:#AF6924;" d="M134.7,28.5c-0.233-2.3-0.434-4.65-0.601-7.05l-0.199-6.7
			l1.55,1.05c0.3,3.967,0.833,9.917,1.6,17.85c0.601,7.133,0.967,13.117,1.101,17.95c0,0.8-0.167,2.033-0.5,3.7
			c-0.334,1.633-0.5,2.867-0.5,3.7l-0.5,4.95c-0.301,3.433-0.551,6.767-0.75,10l-0.101,8.9l-0.75,9.85
			c-0.366,2.366-0.684,5.017-0.95,7.95c-0.267,1.699-0.416,2.633-0.449,2.8l-0.65,4.6c-0.9,7.334-1.417,12.483-1.55,15.45
			c-0.334,5.8-0.067,11.083,0.8,15.85c1.033,5.233,1.883,10.9,2.55,17c-0.733,0.534-1.3,0.917-1.7,1.15l-0.699-3.1
			c-3.134-16.301-3.15-33.834-0.051-52.601l1.7-9.7v-1.35l0.15-0.85c0.166-1.267,0.267-2.534,0.3-3.8
			c0.267-3.9,0.25-7.784-0.05-11.65l2.3-20.15c0.467-1.966,0.733-3.617,0.8-4.95c0.134-1.833,0-3.55-0.399-5.15l-0.75-3.25
			C136.033,37.683,135.467,33.533,134.7,28.5z"/>
		<path style="fill-rule:evenodd;clip-rule:evenodd;fill:#AF6924;" d="M141.6,39.8c-0.833-5.533-1.399-12.383-1.699-20.55l0.85,0.65
			l0.35,4.7c0.167,3.6,0.584,9,1.25,16.2c0.467,6.434,0.434,11.85-0.1,16.25L140.7,78.9c0.1,2.5,0.149,6.217,0.149,11.15l-0.1,3.7
			c0.066,1.634,0.066,3.267,0,4.9l-0.2,4.899c-0.033,0.566-0.517,6.15-1.45,16.75c-0.566,6.601-0.566,12.134,0,16.601
			c0.5,4.733,0.917,9.816,1.25,15.25c-0.1,0.133-0.533,0.483-1.3,1.05c-0.5-10.101-0.8-17.867-0.899-23.3
			c-0.167-8.634-0.034-16.45,0.399-23.45l0.55-13.8c0.101-4.101,0.15-8.184,0.15-12.25l0.15-3.3c0.199-3.667,0.633-9.167,1.3-16.5
			L141.1,56C141.767,49,141.934,43.6,141.6,39.8z"/>
		<path style="fill-rule:evenodd;clip-rule:evenodd;fill:#AF6924;" d="M146.05,24.7l1.4,1.45l0.2,80.05
			c-0.334,6.566-0.5,13.467-0.5,20.7c-0.2,5.966-0.268,12.383-0.2,19.25l-1.25,1.25c-0.4-15.567-0.167-29.2,0.7-40.9l0.05-8.1
			c-0.067-4.4-0.184-8.334-0.351-11.8l0.351-30.5C146.483,50.566,146.35,40.1,146.05,24.7z"/>
		<path style="fill-rule:evenodd;clip-rule:evenodd;fill:#AF6924;" d="M147.45,26.15l1.35,1.4c-0.233,15.6-0.366,24.917-0.399,27.95
			l0.149,5.2c0.367,13.866,0.55,21.667,0.55,23.4l0.051,8.9c0.166,1.366,0.283,2.917,0.35,4.65l-0.1,9.25
			c-0.733,5.666-1.134,11.899-1.2,18.699c-0.033,4.967,0.116,11.217,0.45,18.75l-1.351,1.4c-0.133-8.4-0.184-14.684-0.149-18.85
			c0.199-7.101,0.517-13.767,0.949-20l-0.449-9.4L147.45,26.15z"/>
		<path style="fill-rule:evenodd;clip-rule:evenodd;fill:#AF6924;" d="M148.1,106.9c-0.433,6.233-0.75,12.899-0.949,20
			c0-7.233,0.166-14.134,0.5-20.7l-0.2-15.601L148.1,106.9z"/>
		<path style="fill-rule:evenodd;clip-rule:evenodd;fill:#AF6924;" d="M151.1,30.15l0.7,0.75c-0.7,10.467-0.967,18.517-0.8,24.15
			l0.4,4.85c0.1,2.033,0.366,5.95,0.8,11.75c0.366,4.967,0.583,8.917,0.649,11.85l-0.1,27.6c-0.667,7-0.684,16.534-0.05,28.601
			l-1.4,1.7c-0.133-4.767-0.133-10.483,0-17.15c0.167-7.6,0.283-13.267,0.351-17L151.8,82.5c-0.066-3.4-0.233-7.8-0.5-13.2
			c-0.399-7.033-0.633-11.433-0.7-13.2c-0.1-2.233-0.149-3.917-0.149-5.05C150.417,46.383,150.633,39.417,151.1,30.15z"/>
		<path style="fill-rule:evenodd;clip-rule:evenodd;fill:#AF6924;" d="M153.2,47.2c0.1-1.467,0.149-2.617,0.149-3.45
			c0.567-3.5,1-6.567,1.301-9.2l0.699,0.95c-0.6,6-0.883,11.017-0.85,15.05l0.3,4.7c0.333,3.967,1.167,10.267,2.5,18.9
			c0.167,1.567,0.217,3.467,0.15,5.7c-0.101,3.7-0.15,5.633-0.15,5.8l0.3,28.4c-0.3,9.601-0.449,16.15-0.449,19.65l-1.45,2.05
			c-0.334-9.233-0.2-17.15,0.399-23.75l0.051-24.7c0.3-4.367,0.149-9.617-0.45-15.75c-0.767-6.933-1.317-12.15-1.65-15.65
			l-0.399-5.2C153.316,49.667,153.167,48.5,153.2,47.2z"/>
		<path style="fill-rule:evenodd;clip-rule:evenodd;fill:#AF6924;" d="M159.1,48.65c-0.066-1.833-0.05-3.517,0.051-5.05l0.1-2.25
			c0.267,0.4,0.767,1.267,1.5,2.6c-0.333,6.8,0.283,14.033,1.85,21.7c0.4,2.6,0.617,5,0.65,7.2l-0.25,2.8l0.5,30.45
			c-0.134,5.134-0.15,10.584-0.05,16.351v0.25l-0.75,1.55l-0.75-45c-0.167-3.1-0.684-8.25-1.55-15.45
			C159.6,57.333,159.167,52.283,159.1,48.65z"/>
		<path style="fill-rule:evenodd;clip-rule:evenodd;fill:#AF6924;" d="M161,44.4c0.1,0.2,0.55,1.033,1.35,2.5l0.101,6.7
			c0.1,0.966,0.2,2.517,0.3,4.65c0.167,1.9,0.4,3.517,0.7,4.85l0.899,4.8v5.5c0.134,4.9,0.367,12.467,0.7,22.7l0.101,22.851
			l-1.301,2.85c-0.166-5.7-0.133-10.55,0.101-14.55l-0.7-31.6c0.066-0.933,0.066-1.867,0-2.8c0.2-1.934,0.167-3.467-0.1-4.6
			l-0.551-2.6c-0.733-4.7-1.233-8.217-1.5-10.55C160.667,51.033,160.633,47.467,161,44.4z"/>
		<path style="fill-rule:evenodd;clip-rule:evenodd;fill:#AF6924;" d="M163.15,68.25c0.267,1.133,0.3,2.667,0.1,4.6
			c-0.033-2.2-0.25-4.6-0.65-7.2L163.15,68.25z"/>
		<path style="fill-rule:evenodd;clip-rule:evenodd;fill:#AF6924;" d="M166.85,69.15v-5.7c-0.333-2.367-0.616-5.167-0.85-8.4
			c0.667,1.733,1.316,3.567,1.95,5.5l1,47.15l-1.45,4.85l-0.05-4.25c-0.033-1.733-0.033-3.483,0-5.25V93
			C167.35,85.066,167.15,77.117,166.85,69.15z"/>
	</g>
	
		<linearGradient id="SVGID_24_" gradientUnits="userSpaceOnUse" x1="-172.4351" y1="85.875" x2="-0.6855" y2="85.875" gradientTransform="matrix(5.822417e-006 -1 1 -0.001 -1.609481e-004 4.683650e-004)">
		<stop  offset="0.0196" style="stop-color:#7F3A06"/>
		<stop  offset="0.1255" style="stop-color:#8E5524;stop-opacity:0.851"/>
		<stop  offset="0.3569" style="stop-color:#AD8965;stop-opacity:0.549"/>
		<stop  offset="0.5686" style="stop-color:#C6B39A;stop-opacity:0.3137"/>
		<stop  offset="0.7529" style="stop-color:#D8D0C0;stop-opacity:0.1412"/>
		<stop  offset="0.898" style="stop-color:#E3E3D8;stop-opacity:0.0353"/>
		<stop  offset="0.9882" style="stop-color:#E7E9E0;stop-opacity:0"/>
	</linearGradient>
	<path style="fill-rule:evenodd;clip-rule:evenodd;fill:url(#SVGID_24_);" d="M25.15,25.8c7.934-7.933,17.033-14.083,27.3-18.45
		C63.083,2.85,74.217,0.6,85.85,0.6c11.634,0,22.767,2.25,33.4,6.75c10.3,4.367,19.417,10.517,27.35,18.45
		c7.9,7.934,14.033,17.034,18.4,27.3c4.5,10.633,6.75,21.767,6.75,33.4c0,11.6-2.25,22.717-6.75,33.35
		c-4.367,10.267-10.5,19.367-18.4,27.301c-7.933,7.933-17.05,14.083-27.35,18.449c-10.634,4.5-21.767,6.75-33.4,6.75
		c-11.633,0-22.766-2.25-33.399-6.75c-10.267-4.366-19.367-10.517-27.3-18.449c-7.9-7.934-14.033-17.034-18.4-27.301
		C2.25,109.217,0,98.1,0,86.5c0-11.633,2.25-22.767,6.75-33.4C11.117,42.833,17.25,33.733,25.15,25.8z"/>
	<g>
		<g>
			
				<linearGradient id="SVGID_25_" gradientUnits="userSpaceOnUse" x1="-158.4351" y1="85.876" x2="-13.4854" y2="85.876" gradientTransform="matrix(6.895364e-006 -1 1 -0.001 2.366505e-004 4.683650e-004)">
				<stop  offset="0" style="stop-color:#EED9C2"/>
				<stop  offset="0.0863" style="stop-color:#E5CCB5;stop-opacity:0.8745"/>
				<stop  offset="0.3176" style="stop-color:#D0AE97;stop-opacity:0.5922"/>
				<stop  offset="0.5176" style="stop-color:#C39C84;stop-opacity:0.4196"/>
				<stop  offset="0.6549" style="stop-color:#BF967E;stop-opacity:0.3569"/>
				<stop  offset="1" style="stop-color:#582D22"/>
			</linearGradient>
			<path style="fill-rule:evenodd;clip-rule:evenodd;fill:url(#SVGID_25_);" d="M85.85,13.4c9.834,0,19.25,1.9,28.25,5.7
				c8.667,3.667,16.351,8.85,23.051,15.55C143.85,41.316,149.033,49,152.7,57.7c3.8,8.966,5.7,18.366,5.7,28.2s-1.9,19.234-5.7,28.2
				c-3.667,8.667-8.851,16.351-15.55,23.051c-6.7,6.666-14.384,11.833-23.051,15.5c-9,3.8-18.416,5.699-28.25,5.699
				c-9.833,0-19.233-1.899-28.2-5.699c-8.7-3.667-16.383-8.834-23.05-15.5c-6.7-6.7-11.883-14.384-15.55-23.051
				c-3.8-8.966-5.7-18.366-5.7-28.2s1.9-19.233,5.7-28.2C22.717,49,27.9,41.316,34.6,34.65c6.667-6.7,14.35-11.883,23.05-15.55
				C66.617,15.3,76.017,13.4,85.85,13.4z"/>
		</g>
	</g>
	<g>
		
			<linearGradient id="SVGID_26_" gradientUnits="userSpaceOnUse" x1="-152.1353" y1="85.876" x2="-19.7856" y2="85.876" gradientTransform="matrix(7.555724e-006 -1 1 -0.001 2.190953e-004 4.683650e-004)">
			<stop  offset="0.0745" style="stop-color:#8C5130"/>
			<stop  offset="0.1922" style="stop-color:#A56741"/>
			<stop  offset="0.4431" style="stop-color:#E59F6C"/>
			<stop  offset="0.4784" style="stop-color:#EFA773"/>
			<stop  offset="0.5961" style="stop-color:#EEAB77"/>
			<stop  offset="0.7176" style="stop-color:#ECB684"/>
			<stop  offset="0.8431" style="stop-color:#E8C799"/>
			<stop  offset="0.9725" style="stop-color:#E3DFB6"/>
			<stop  offset="1" style="stop-color:#E2E5BD"/>
		</linearGradient>
		<path style="fill-rule:evenodd;clip-rule:evenodd;fill:url(#SVGID_26_);" d="M85.85,19.7c18.267,0,33.867,6.466,46.801,19.4
			c12.933,12.933,19.399,28.533,19.399,46.8c0,18.234-6.467,33.817-19.399,46.75c-12.934,12.933-28.534,19.399-46.801,19.399
			c-18.233,0-33.816-6.467-46.75-19.399c-12.934-12.934-19.4-28.517-19.4-46.75c0-18.233,6.466-33.833,19.4-46.8
			C52.033,26.167,67.617,19.7,85.85,19.7z"/>
		<path style="fill-rule:evenodd;clip-rule:evenodd;fill:#421804;" d="M85.85,20.55c-18.033,0-33.433,6.383-46.2,19.15
			C26.883,52.467,20.5,67.867,20.5,85.9c0,18.034,6.383,33.433,19.15,46.2c12.733,12.733,28.133,19.101,46.2,19.101
			c18.067,0,33.467-6.367,46.2-19.101c12.767-12.767,19.15-28.166,19.15-46.2c0-18.033-6.384-33.433-19.15-46.2
			C119.316,26.933,103.917,20.55,85.85,20.55z M60.2,23.95c8.133-3.367,16.683-5.05,25.649-5.05c8.967,0,17.517,1.684,25.65,5.05
			c8.167,3.366,15.417,8.216,21.75,14.55s11.184,13.583,14.55,21.75c3.367,8.133,5.05,16.683,5.05,25.65
			c0,8.966-1.683,17.517-5.05,25.65c-3.366,8.134-8.217,15.367-14.55,21.7s-13.583,11.184-21.75,14.55
			c-8.134,3.367-16.684,5.05-25.65,5.05c-8.966,0-17.516-1.683-25.649-5.05c-8.134-3.366-15.367-8.217-21.7-14.55
			s-11.184-13.566-14.55-21.7c-3.4-8.166-5.1-16.717-5.1-25.65s1.7-17.483,5.1-25.65c3.366-8.167,8.216-15.417,14.55-21.75
			S52.066,27.316,60.2,23.95z"/>
	</g>
	
		<use xlink:href="#FlashAICB_x2F_Layer_1_x2F__x3C_Path_x3E__x5F_1"  width="118.85" height="118.65" y="-118.65" transform="matrix(1 0 0 -1 26.4502 24.3999)" style="overflow:visible;opacity:0.3789;enable-background:new    ;"/>
	<g>
		<g>
			<path style="fill-rule:evenodd;clip-rule:evenodd;fill:#F3D3A5;" d="M53.1,40.45c0.4-0.467,0.933-0.7,1.6-0.7h4.7
				c0.667,0,1.217,0.217,1.65,0.65c0.367,0.434,0.55,0.983,0.55,1.65v18.7c0,0.8-0.233,1.433-0.7,1.9s-1.066,0.7-1.8,0.7
				s-1.317-0.233-1.75-0.7c-0.467-0.467-0.7-1.1-0.7-1.9v-16.5H54.7c-0.733,0-1.3-0.233-1.7-0.7c-0.333-0.433-0.5-0.95-0.5-1.55
				S52.7,40.883,53.1,40.45z"/>
			<path style="fill-rule:evenodd;clip-rule:evenodd;fill:#F3D3A5;" d="M80.1,43.4c1.233,2.167,1.85,4.85,1.85,8.05
				c0,3.2-0.617,5.883-1.85,8.05c-1.534,2.7-3.817,4.05-6.85,4.05s-5.317-1.35-6.85-4.05c-1.233-2.167-1.85-4.85-1.85-8.05
				c0-3.2,0.617-5.884,1.85-8.05c1.533-2.7,3.817-4.05,6.85-4.05S78.566,40.7,80.1,43.4z M76.85,51.45c0-5.1-1.2-7.65-3.6-7.65
				s-3.6,2.55-3.6,7.65c0,5.066,1.2,7.6,3.6,7.6S76.85,56.517,76.85,51.45z"/>
			<path style="fill-rule:evenodd;clip-rule:evenodd;fill:#F3D3A5;" d="M92.15,39.35c3,0,5.283,1.35,6.85,4.05
				c1.233,2.167,1.85,4.85,1.85,8.05c0,3.2-0.616,5.883-1.85,8.05c-1.566,2.7-3.85,4.05-6.85,4.05c-3.034,0-5.317-1.35-6.851-4.05
				c-1.267-2.167-1.9-4.85-1.9-8.05c0-3.2,0.633-5.884,1.9-8.05C86.833,40.7,89.116,39.35,92.15,39.35z M92.15,59.05
				c2.366,0,3.55-2.533,3.55-7.6c0-5.1-1.184-7.65-3.55-7.65c-2.4,0-3.601,2.55-3.601,7.65C88.55,56.517,89.75,59.05,92.15,59.05z"
				/>
			<path style="fill-rule:evenodd;clip-rule:evenodd;fill:#F3D3A5;" d="M107.9,47.5c0,0.933,0.267,1.717,0.8,2.35
				c0.566,0.7,1.333,1.05,2.3,1.05c0.934,0,1.684-0.316,2.25-0.95c0.566-0.634,0.85-1.45,0.85-2.45c0-0.967-0.267-1.767-0.8-2.4
				c-0.6-0.7-1.366-1.05-2.3-1.05c-0.9,0-1.65,0.333-2.25,1C108.184,45.717,107.9,46.533,107.9,47.5z M119.25,47.5
				c0,2.267-0.983,5-2.95,8.2c-1.633,2.7-3.434,4.966-5.399,6.8c-0.167,0.2-0.517,0.467-1.051,0.8c-0.233,0.167-0.566,0.25-1,0.25
				c-0.466,0-0.966-0.25-1.5-0.75c-0.533-0.533-0.8-1.083-0.8-1.65c0-0.267,0.217-0.717,0.65-1.35c0.233-0.3,1.017-1.183,2.35-2.65
				c1.033-1.167,1.767-2.033,2.2-2.6l-0.05-0.1c-0.634,0.267-1.334,0.4-2.101,0.4c-1.899,0-3.533-0.75-4.899-2.25
				c-1.3-1.434-1.95-3.133-1.95-5.1c0-2.2,0.767-4.1,2.3-5.7c1.601-1.633,3.584-2.45,5.95-2.45c2.467,0,4.467,0.816,6,2.45
				C118.5,43.333,119.25,45.233,119.25,47.5z"/>
		</g>
		<g>
			
				<linearGradient id="SVGID_27_" gradientUnits="userSpaceOnUse" x1="-61.9575" y1="57.0527" x2="-38.353" y2="57.0527" gradientTransform="matrix(4.237289e-005 -1 1 -0.001 -2.330195e-004 4.674215e-004)">
				<stop  offset="0.3882" style="stop-color:#510D02"/>
				<stop  offset="0.4039" style="stop-color:#540F02"/>
				<stop  offset="0.8078" style="stop-color:#933B07"/>
				<stop  offset="1" style="stop-color:#AC4C0B"/>
			</linearGradient>
			<path style="fill-rule:evenodd;clip-rule:evenodd;fill:url(#SVGID_27_);" d="M53.1,39c0.4-0.467,0.933-0.7,1.6-0.7h4.7
				c0.667,0,1.217,0.217,1.65,0.65c0.367,0.433,0.55,0.983,0.55,1.65v18.7c0,0.8-0.233,1.434-0.7,1.9
				c-0.467,0.466-1.066,0.7-1.8,0.7s-1.317-0.233-1.75-0.7c-0.467-0.467-0.7-1.1-0.7-1.9V42.8H54.7c-0.733,0-1.3-0.233-1.7-0.7
				c-0.333-0.434-0.5-0.95-0.5-1.55C52.5,39.95,52.7,39.433,53.1,39z"/>
			
				<linearGradient id="SVGID_28_" gradientUnits="userSpaceOnUse" x1="-62.1729" y1="73.2529" x2="-37.9979" y2="73.2529" gradientTransform="matrix(4.136505e-005 -1 1 -0.001 -9.239795e-005 -2.403907e-005)">
				<stop  offset="0.3882" style="stop-color:#510D02"/>
				<stop  offset="0.4039" style="stop-color:#540F02"/>
				<stop  offset="0.8078" style="stop-color:#933B07"/>
				<stop  offset="1" style="stop-color:#AC4C0B"/>
			</linearGradient>
			<path style="fill-rule:evenodd;clip-rule:evenodd;fill:url(#SVGID_28_);" d="M80.1,41.95c1.233,2.133,1.85,4.816,1.85,8.05
				c0,3.2-0.617,5.883-1.85,8.05c-1.534,2.7-3.817,4.05-6.85,4.05s-5.317-1.35-6.85-4.05c-1.233-2.167-1.85-4.85-1.85-8.05
				c0-3.233,0.617-5.917,1.85-8.05c1.533-2.7,3.817-4.05,6.85-4.05S78.566,39.25,80.1,41.95z M76.85,50c0-5.1-1.2-7.65-3.6-7.65
				s-3.6,2.55-3.6,7.65c0,5.066,1.2,7.6,3.6,7.6S76.85,55.066,76.85,50z"/>
			
				<linearGradient id="SVGID_29_" gradientUnits="userSpaceOnUse" x1="-62.1919" y1="92.1279" x2="-38.0169" y2="92.1279" gradientTransform="matrix(4.136505e-005 -1 1 -0.001 -9.239795e-005 -2.403907e-005)">
				<stop  offset="0.3882" style="stop-color:#510D02"/>
				<stop  offset="0.4039" style="stop-color:#540F02"/>
				<stop  offset="0.8078" style="stop-color:#933B07"/>
				<stop  offset="1" style="stop-color:#AC4C0B"/>
			</linearGradient>
			<path style="fill-rule:evenodd;clip-rule:evenodd;fill:url(#SVGID_29_);" d="M92.15,37.9c3,0,5.283,1.35,6.85,4.05
				c1.233,2.167,1.85,4.85,1.85,8.05s-0.616,5.883-1.85,8.05c-1.566,2.7-3.85,4.05-6.85,4.05c-3.034,0-5.317-1.35-6.851-4.05
				c-1.267-2.167-1.9-4.85-1.9-8.05s0.633-5.883,1.9-8.05C86.833,39.25,89.116,37.9,92.15,37.9z M92.15,57.6
				c2.366,0,3.55-2.534,3.55-7.6c0-5.1-1.184-7.65-3.55-7.65c-2.4,0-3.601,2.55-3.601,7.65C88.55,55.066,89.75,57.6,92.15,57.6z"/>
			
				<linearGradient id="SVGID_30_" gradientUnits="userSpaceOnUse" x1="-62.2085" y1="111.0029" x2="-38.0103" y2="111.0029" gradientTransform="matrix(4.136505e-005 -1 1 -0.001 -9.239795e-005 -2.403907e-005)">
				<stop  offset="0.3882" style="stop-color:#510D02"/>
				<stop  offset="0.4039" style="stop-color:#540F02"/>
				<stop  offset="0.8078" style="stop-color:#933B07"/>
				<stop  offset="1" style="stop-color:#AC4C0B"/>
			</linearGradient>
			<path style="fill-rule:evenodd;clip-rule:evenodd;fill:url(#SVGID_30_);" d="M105.05,40.35c1.601-1.633,3.584-2.45,5.95-2.45
				c2.467,0,4.467,0.817,6,2.45c1.5,1.533,2.25,3.433,2.25,5.7s-0.983,5-2.95,8.2c-1.633,2.7-3.434,4.967-5.399,6.8l-1.051,0.8
				c-0.233,0.167-0.566,0.25-1,0.25c-0.466,0-0.966-0.25-1.5-0.75c-0.533-0.534-0.8-1.083-0.8-1.65c0-0.333,0.217-0.784,0.65-1.35
				c0.3-0.367,1.083-1.267,2.35-2.7c1.066-1.133,1.8-2,2.2-2.6L111.7,53c-0.634,0.267-1.334,0.4-2.101,0.4
				c-1.899,0-3.533-0.75-4.899-2.25c-1.3-1.433-1.95-3.133-1.95-5.1C102.75,43.85,103.517,41.95,105.05,40.35z M111,42.6
				c-0.9,0-1.65,0.333-2.25,1c-0.566,0.667-0.85,1.483-0.85,2.45c0,0.934,0.267,1.717,0.8,2.35c0.566,0.7,1.333,1.05,2.3,1.05
				c0.934,0,1.684-0.317,2.25-0.95s0.85-1.45,0.85-2.45c0-0.966-0.267-1.767-0.8-2.4C112.7,42.95,111.934,42.6,111,42.6z"/>
		</g>
	</g>
	<g>
		<path style="fill-rule:evenodd;clip-rule:evenodd;fill:#F3D3A5;" d="M58.9,93.7c-0.167-1.267-0.25-2.434-0.25-3.5
			c0-6.9,2.45-12.8,7.35-17.7s10.816-7.35,17.75-7.35c4.9,0,9.417,1.333,13.55,4c4,2.6,7.033,6.05,9.101,10.35
			c0.8-1.367,1.899-2.45,3.3-3.25c1.434-0.833,2.983-1.25,4.649-1.25c2.567,0,4.75,0.9,6.551,2.7c1.833,1.833,2.75,4.033,2.75,6.6
			c0,2.567-0.917,4.767-2.75,6.601c-1.801,1.8-3.983,2.699-6.551,2.699c-2.1,0-3.966-0.633-5.6-1.899
			c-0.233,3.8-1.25,7.333-3.05,10.6c1.366-0.366,2.717-0.55,4.05-0.55c4.333,0,8.033,1.533,11.1,4.6
			c3.067,3.067,4.601,6.767,4.601,11.101c0,4.333-1.533,8.017-4.601,11.05c-3.066,3.066-6.767,4.6-11.1,4.6s-8.033-1.533-11.1-4.6
			c-3.067-3.033-4.601-6.717-4.601-11.05c0-1.601,0.233-3.184,0.7-4.75c-3.467,1.733-7.134,2.6-11,2.6
			c-1.033,0-2.217-0.083-3.55-0.25c-1.134,3.367-3.15,6.084-6.05,8.15c-2.933,2.133-6.217,3.2-9.85,3.2
			c-4.633,0-8.583-1.634-11.85-4.9c-3.3-3.3-4.95-7.267-4.95-11.9c0-3.633,1.066-6.916,3.2-9.85C52.8,96.85,55.533,94.833,58.9,93.7
			z"/>
		<g>
			
				<linearGradient id="SVGID_31_" gradientUnits="userSpaceOnUse" x1="-132.3096" y1="86.4766" x2="-64.2837" y2="86.4766" gradientTransform="matrix(1.470588e-005 -1 1 -0.001 7.996586e-005 4.683650e-004)">
				<stop  offset="0.1098" style="stop-color:#AB3D15"/>
				<stop  offset="0.4157" style="stop-color:#C46F46"/>
				<stop  offset="0.8118" style="stop-color:#E4AA86"/>
				<stop  offset="1" style="stop-color:#F0C19F"/>
			</linearGradient>
			<path style="fill-rule:evenodd;clip-rule:evenodd;fill:url(#SVGID_31_);" d="M58.9,92.8c-0.167-1.333-0.25-2.5-0.25-3.5
				c0-6.933,2.45-12.85,7.35-17.75c4.9-4.9,10.816-7.35,17.75-7.35c4.9,0,9.417,1.333,13.55,4c4,2.6,7.033,6.05,9.101,10.35
				c0.8-1.367,1.899-2.45,3.3-3.25c1.434-0.833,2.983-1.25,4.649-1.25c2.567,0,4.75,0.917,6.551,2.75
				c1.833,1.833,2.75,4.017,2.75,6.55c0,2.566-0.917,4.766-2.75,6.6c-1.801,1.8-3.983,2.7-6.551,2.7c-2.066,0-3.933-0.617-5.6-1.851
				c-0.267,3.834-1.283,7.351-3.05,10.55c1.366-0.366,2.717-0.55,4.05-0.55c4.333,0,8.033,1.533,11.1,4.601
				c3.067,3.066,4.601,6.767,4.601,11.1s-1.533,8.033-4.601,11.1c-3.066,3.067-6.767,4.601-11.1,4.601s-8.033-1.533-11.1-4.601
				c-3.067-3.066-4.601-6.767-4.601-11.1c0-1.634,0.233-3.2,0.7-4.7c-3.5,1.7-7.167,2.55-11,2.55c-1.033,0-2.217-0.083-3.55-0.25
				c-1.134,3.367-3.15,6.101-6.05,8.2c-2.933,2.134-6.217,3.2-9.85,3.2c-4.633,0-8.583-1.65-11.85-4.95
				c-3.3-3.267-4.95-7.217-4.95-11.85c0-3.634,1.066-6.917,3.2-9.851C52.8,95.95,55.533,93.934,58.9,92.8z"/>
			<path style="fill-rule:evenodd;clip-rule:evenodd;fill:none;stroke:#F3D3A5;stroke-width:0.25;" d="M58.9,92.8
				c-3.367,1.134-6.1,3.15-8.2,6.05c-2.134,2.934-3.2,6.217-3.2,9.851c0,4.633,1.65,8.583,4.95,11.85
				c3.267,3.3,7.216,4.95,11.85,4.95c3.633,0,6.917-1.066,9.85-3.2c2.9-2.1,4.917-4.833,6.05-8.2c1.333,0.167,2.517,0.25,3.55,0.25
				c3.833,0,7.5-0.85,11-2.55c-0.467,1.5-0.7,3.066-0.7,4.7c0,4.333,1.533,8.033,4.601,11.1c3.066,3.067,6.767,4.601,11.1,4.601
				s8.033-1.533,11.1-4.601c3.067-3.066,4.601-6.767,4.601-11.1s-1.533-8.033-4.601-11.1c-3.066-3.067-6.767-4.601-11.1-4.601
				c-1.333,0-2.684,0.184-4.05,0.55c1.767-3.199,2.783-6.716,3.05-10.55c1.667,1.233,3.533,1.851,5.6,1.851
				c2.567,0,4.75-0.9,6.551-2.7c1.833-1.834,2.75-4.034,2.75-6.6c0-2.534-0.917-4.717-2.75-6.55c-1.801-1.833-3.983-2.75-6.551-2.75
				c-1.666,0-3.216,0.417-4.649,1.25c-1.4,0.8-2.5,1.883-3.3,3.25c-2.067-4.3-5.101-7.75-9.101-10.35c-4.133-2.667-8.649-4-13.55-4
				c-6.934,0-12.85,2.45-17.75,7.35c-4.9,4.9-7.35,10.817-7.35,17.75C58.65,90.3,58.733,91.467,58.9,92.8z"/>
			<path style="fill-rule:evenodd;clip-rule:evenodd;fill:#F3D3A5;" d="M58.95,92.9c-3.367,1.166-6.1,3.199-8.2,6.1
				c-2.067,2.9-3.1,6.134-3.1,9.7c0,4.6,1.633,8.533,4.9,11.8c3.267,3.233,7.184,4.85,11.75,4.85c3.567,0,6.8-1.033,9.7-3.1
				c2.933-2.1,4.967-4.833,6.1-8.2l0.05-0.1h0.1c0.967,0.166,2.133,0.25,3.5,0.25c3.866,0,7.517-0.851,10.95-2.55l0.3-0.101
				l-0.1,0.25c-0.5,1.566-0.75,3.134-0.75,4.7c0,4.3,1.533,7.967,4.6,11c3.033,3.033,6.7,4.55,11,4.55s7.983-1.517,11.05-4.55
				c3.033-3.033,4.55-6.7,4.55-11c0-4.267-1.517-7.934-4.55-11c-3.066-3.033-6.75-4.55-11.05-4.55c-1.467,0-2.816,0.184-4.05,0.55
				l-0.25,0.05l0.1-0.25c1.834-3.3,2.851-6.8,3.05-10.5l0.051-0.25l0.149,0.15c1.7,1.233,3.55,1.85,5.55,1.85
				c2.534,0,4.684-0.899,6.45-2.7c1.8-1.8,2.7-3.966,2.7-6.5c0-2.534-0.9-4.684-2.7-6.45c-1.767-1.8-3.916-2.7-6.45-2.7
				c-1.633,0-3.133,0.4-4.5,1.2c-1.399,0.767-2.517,1.85-3.35,3.25l-0.15,0.2l-0.1-0.25c-2.033-4.333-5.1-7.784-9.2-10.35
				c-4.1-2.6-8.533-3.9-13.3-3.9c-6.867,0-12.75,2.433-17.65,7.3c-4.867,4.9-7.3,10.783-7.3,17.65c0,1.334,0.083,2.483,0.25,3.45
				v0.1L58.95,92.9z M83.75,64.1c4.767,0,9.217,1.283,13.35,3.85c4.101,2.566,7.2,6.017,9.301,10.35c0.866-1.367,2-2.433,3.399-3.2
				c1.4-0.767,2.917-1.15,4.55-1.15c2.601,0,4.817,0.917,6.65,2.75c1.833,1.833,2.75,4.05,2.75,6.65s-0.917,4.833-2.75,6.7
				c-1.833,1.834-4.05,2.75-6.65,2.75c-2.066,0-3.899-0.6-5.5-1.8c-0.233,3.6-1.216,6.983-2.949,10.15
				c1.3-0.301,2.583-0.45,3.85-0.45c4.366,0,8.1,1.55,11.2,4.649c3.1,3.101,4.649,6.817,4.649,11.15c0,4.366-1.55,8.1-4.649,11.2
				c-3.101,3.066-6.834,4.6-11.2,4.6s-8.1-1.533-11.2-4.6c-3.1-3.101-4.649-6.834-4.649-11.2c0-1.366,0.216-2.866,0.649-4.5
				c-3.366,1.634-6.967,2.45-10.8,2.45c-1.267,0-2.417-0.066-3.45-0.2c-1.167,3.4-3.216,6.15-6.15,8.25
				c-2.933,2.066-6.217,3.1-9.85,3.1c-4.633,0-8.617-1.649-11.95-4.949c-3.3-3.301-4.95-7.284-4.95-11.95
				c0-3.634,1.05-6.917,3.15-9.851c2.067-2.933,4.8-4.983,8.2-6.149c-0.133-1.033-0.2-2.167-0.2-3.4c0-6.933,2.467-12.867,7.4-17.8
				C70.883,66.566,76.816,64.1,83.75,64.1z"/>
		</g>
		<g>
			<path style="fill-rule:evenodd;clip-rule:evenodd;fill:#421804;" d="M62.75,95.25c-0.533-1.9-0.8-3.884-0.8-5.95
				c0-6.033,2.133-11.167,6.4-15.4c4.233-4.267,9.367-6.4,15.4-6.4c6,0,11.134,2.133,15.4,6.4c4.267,4.233,6.399,9.367,6.399,15.4
				c0,6-2.133,11.134-6.399,15.4s-9.4,6.399-15.4,6.399c-2,0-4-0.283-6-0.85c-0.367,3.4-1.833,6.25-4.4,8.55
				c-2.567,2.267-5.583,3.4-9.05,3.4c-3.733,0-6.917-1.316-9.55-3.95s-3.95-5.816-3.95-9.55c0-3.467,1.15-6.483,3.45-9.05
				C56.517,97.083,59.35,95.616,62.75,95.25z"/>
			<path style="fill-rule:evenodd;clip-rule:evenodd;fill:#421804;" d="M109.75,104.1c3.434,0,6.366,1.217,8.8,3.65
				c2.434,2.4,3.65,5.316,3.65,8.75s-1.217,6.366-3.65,8.8c-2.434,2.4-5.366,3.601-8.8,3.601s-6.366-1.2-8.8-3.601
				c-2.434-2.434-3.65-5.366-3.65-8.8s1.217-6.35,3.65-8.75C103.384,105.316,106.316,104.1,109.75,104.1z"/>
			<path style="fill-rule:evenodd;clip-rule:evenodd;fill:#421804;" d="M114.35,89.4c-1.666,0-3.1-0.584-4.3-1.75
				c-1.166-1.2-1.75-2.634-1.75-4.3c0-1.667,0.584-3.083,1.75-4.25c1.2-1.2,2.634-1.8,4.3-1.8c1.667,0,3.084,0.6,4.25,1.8
				c1.2,1.2,1.801,2.617,1.801,4.25c0,1.667-0.601,3.1-1.801,4.3C117.434,88.816,116.017,89.4,114.35,89.4z"/>
		</g>
		<g>
			<g>
				<g>
					
						<use xlink:href="#FlashAICB_x2F_Layer_1_x2F__x3C_Clip_Group_0_x3E_"  width="50.85" height="50.8" y="-50.8" transform="matrix(1 0 0 -1 38.8999 83.25)" style="overflow:visible;"/>
					<g>
						
							<use xlink:href="#FlashAICB_x2F_Layer_1_x2F__x3C_Group_x3E__x5F_1"  width="25.8" height="25.75" y="-25.75" transform="matrix(1 0 0 -1 51.4502 95.7998)" style="overflow:visible;opacity:0.6719;enable-background:new    ;"/>
						<path style="fill-rule:evenodd;clip-rule:evenodd;fill:#FFFFFF;" d="M57.7,100.55c1.7,0.033,1.933,0.851,0.7,2.45
							c-1.367,1.667-2.3,2.233-2.8,1.7c-0.434-0.5-0.4-1.316,0.1-2.45C56.233,101.083,56.9,100.517,57.7,100.55z"/>
						<path style="fill-rule:evenodd;clip-rule:evenodd;fill:#FFFFFF;" d="M54.95,105.95c0.433,0.066,0.566,0.383,0.4,0.95
							c-0.133,0.566-0.367,0.75-0.7,0.55c-0.3-0.2-0.4-0.517-0.3-0.95C54.483,106.066,54.683,105.884,54.95,105.95z"/>
						
							<use xlink:href="#FlashAICB_x2F_Layer_1_x2F__x3C_Group_x3E_"  width="20.111" height="12.367" y="-12.367" transform="matrix(1 0 0 -1 55.2998 107.0996)" style="overflow:visible;opacity:0.3398;enable-background:new    ;"/>
					</g>
				</g>
			</g>
			<g>
				<g>
					
						<use xlink:href="#FlashAICB_x2F_Layer_1_x2F__x3C_Clip_Group_0_x3E__x5F_1"  width="21.35" height="21.35" y="-21.35" transform="matrix(1 0 0 -1 103.6504 72.7002)" style="overflow:visible;"/>
					<g>
						
							<use xlink:href="#FlashAICB_x2F_Layer_1_x2F__x3C_Group_x3E__x5F_1_x5F_0"  width="10.85" height="10.8" y="-10.8" transform="matrix(1 0 0 -1 108.9004 77.9502)" style="overflow:visible;opacity:0.6719;enable-background:new    ;"/>
						<path style="fill-rule:evenodd;clip-rule:evenodd;fill:#FFFFFF;" d="M111.55,79.95c0.733,0.033,0.834,0.383,0.3,1.05
							c-0.566,0.7-0.966,0.933-1.199,0.7c-0.167-0.2-0.15-0.534,0.05-1C110.934,80.2,111.217,79.95,111.55,79.95z"/>
						<path style="fill-rule:evenodd;clip-rule:evenodd;fill:#FFFFFF;" d="M110.4,82.2c0.166,0.033,0.216,0.167,0.149,0.4
							s-0.166,0.316-0.3,0.25c-0.134-0.067-0.167-0.2-0.1-0.4C110.184,82.25,110.267,82.167,110.4,82.2z"/>
						
							<use xlink:href="#FlashAICB_x2F_Layer_1_x2F__x3C_Group_x3E__x5F_0"  width="8.45" height="5.2" y="-5.2" transform="matrix(1 0 0 -1 110.5498 82.7002)" style="overflow:visible;opacity:0.3398;enable-background:new    ;"/>
					</g>
				</g>
			</g>
			<g>
				<g>
					
						<use xlink:href="#FlashAICB_x2F_Layer_1_x2F__x3C_Clip_Group_0_x3E__x5F_3"  width="83.1" height="83.05" y="-83.05" transform="matrix(1 0 0 -1 42.1499 47.8501)" style="overflow:visible;"/>
					<g>
						
							<use xlink:href="#FlashAICB_x2F_Layer_1_x2F__x3C_Group_x3E__x5F_1_x5F_1"  width="42.1" height="42.1" y="-42.1" transform="matrix(1 0 0 -1 62.6499 68.3501)" style="overflow:visible;opacity:0.6719;enable-background:new    ;"/>
						<path style="fill-rule:evenodd;clip-rule:evenodd;fill:#FFFFFF;" d="M72.9,76.15c2.767,0.067,3.117,1.383,1.05,3.95
							c-0.767,0.966-1.634,1.75-2.6,2.35c-1,0.633-1.65,0.767-1.95,0.4c-0.733-0.8-0.667-2.117,0.2-3.95
							C70.467,77.033,71.566,76.117,72.9,76.15z"/>
						<path style="fill-rule:evenodd;clip-rule:evenodd;fill:#FFFFFF;" d="M68.35,84.9c0.7,0.133,0.917,0.667,0.65,1.6
							s-0.65,1.233-1.15,0.9c-0.467-0.301-0.617-0.817-0.45-1.55C67.566,85.15,67.883,84.833,68.35,84.9z"/>
						
							<use xlink:href="#FlashAICB_x2F_Layer_1_x2F__x3C_Group_x3E__x5F_2"  width="32.845" height="20.221" y="-20.221" transform="matrix(1 0 0 -1 69 86.7998)" style="overflow:visible;opacity:0.3398;enable-background:new    ;"/>
					</g>
				</g>
			</g>
			<g>
				<g>
					
						<use xlink:href="#FlashAICB_x2F_Layer_1_x2F__x3C_Clip_Group_0_x3E__x5F_5"  width="46.4" height="46.35" y="-46.35" transform="matrix(1 0 0 -1 86.4502 93.3496)" style="overflow:visible;"/>
					<g>
						
							<use xlink:href="#FlashAICB_x2F_Layer_1_x2F__x3C_Group_x3E__x5F_1_x5F_2"  width="23.5" height="23.45" y="-23.45" transform="matrix(1 0 0 -1 97.9004 104.7998)" style="overflow:visible;opacity:0.6719;enable-background:new    ;"/>
						<path style="fill-rule:evenodd;clip-rule:evenodd;fill:#FFFFFF;" d="M103.6,109.15c1.567,0.033,1.767,0.767,0.601,2.199
							c-1.233,1.534-2.084,2.051-2.55,1.551c-0.4-0.434-0.351-1.167,0.149-2.2C102.267,109.634,102.866,109.116,103.6,109.15z"/>
						<path style="fill-rule:evenodd;clip-rule:evenodd;fill:#FFFFFF;" d="M101.1,114.05c0.4,0.066,0.517,0.367,0.351,0.9
							c-0.134,0.533-0.351,0.7-0.65,0.5c-0.267-0.2-0.35-0.5-0.25-0.9C100.65,114.184,100.833,114.017,101.1,114.05z"/>
						
							<use xlink:href="#FlashAICB_x2F_Layer_1_x2F__x3C_Group_x3E__x5F_3"  width="18.317" height="11.257" y="-11.257" transform="matrix(1 0 0 -1 101.4502 115.0996)" style="overflow:visible;opacity:0.3398;enable-background:new    ;"/>
					</g>
				</g>
			</g>
		</g>
	</g>
	
		<use xlink:href="#FlashAICB_x2F_Layer_1_x2F__x3C_Path_x3E_"  width="118.7" height="57.1" y="-57.1" transform="matrix(1 0 0 -1 26.5 85.9502)" style="overflow:visible;opacity:0.3398;enable-background:new    ;"/>
	
		<use xlink:href="#FlashAICB_x2F_Layer_1_x2F__x3C_Group_x3E__x5F_4"  width="110.05" height="61.294" y="-61.294" transform="matrix(1 0 0 -1 31.2998 27.1499)" style="overflow:visible;opacity:0.8984;enable-background:new    ;"/>
</g>
</svg>
