<?xml version="1.0" encoding="iso-8859-1"?>
<!-- Generator: Adobe Illustrator 15.1.0, SVG Export Plug-In . SVG Version: 6.00 Build 0)  -->
<!DOCTYPE svg PUBLIC "-//W3C//DTD SVG 1.1//EN" "http://www.w3.org/Graphics/SVG/1.1/DTD/svg11.dtd">
<svg version="1.1" id="Layer_15" xmlns="http://www.w3.org/2000/svg" xmlns:xlink="http://www.w3.org/1999/xlink" x="0px" y="0px"
	 width="171.75px" height="172.35px" viewBox="0 0 171.75 172.35" style="enable-background:new 0 0 171.75 172.35;"
	 xml:space="preserve">
<symbol  id="FlashAICB_x2F_Layer_15_x2F__x3C_Path_x3E_" viewBox="0 -46.65 40.65 46.65">
	<g id="Layer_1_2_">
		<path style="fill-rule:evenodd;clip-rule:evenodd;fill:#404041;" d="M38.75,0l0.2-0.3c0.4-0.633,0.966-1.15,1.7-1.55l-7.25-7.2
			c-3-2.934-6.267-6.133-9.8-9.6l-0.85-0.85H22.7c-2.633-2.367-5.117-4.5-7.45-6.4l-1.15-1c3.467-2.067,5.483-4.033,6.05-5.9
			c0.434-1.4,0.667-2.633,0.7-3.7c0.033-1.133-0.15-2.3-0.55-3.5c-0.367-1.067-0.6-1.933-0.7-2.6c-0.033-0.3-0.067-0.867-0.1-1.7
			c-0.033-0.534-0.117-0.934-0.25-1.2c-0.067-0.1-0.317-0.383-0.75-0.85l-0.25-0.2L18.1-46.6l-0.05-0.05h-0.2l-0.2,0.05v0.05
			L17.4-46.4l-0.25,0.25v0.05l-0.25,0.3v0.05l-0.25,0.45c-0.3,0.533-0.5,1.183-0.6,1.95c-0.066,0.867,0.067,1.517,0.4,1.95
			c0.1,0.133,0.3,0.283,0.6,0.45c0.267,0.167,0.45,0.3,0.55,0.4l0.25,0.4L17.9-40l0.15,0.65L18-37.75l-0.2,1l-0.45,1.45
			c-0.033,0.167-0.167,0.466-0.4,0.9l-0.8,1l-0.5,0.5l-0.6,0.45l-0.85,0.5l-1.15,0.5l-0.35,0.1l-1.05,0.55l-1.25,1.05l-0.2,0.15
			l-0.1,0.1c-0.934-0.333-1.567-0.517-1.9-0.55c-1.434-0.133-2.4-0.267-2.9-0.4c-1.6-0.367-2.816-1.017-3.65-1.95
			C1.083-33,0.633-33.633,0.3-34.3L0-32.6l0.45,1.65L1-29.6c1.267,1.233,3.45,2.25,6.55,3.05l0.8,0.15l-1.5,3l1.3,1.95
			c0.967-2,1.7-3.267,2.2-3.8l0.35-0.35l0.2-0.15l0.3-0.15l0.9,0.4l1.15,0.8l0.1,0.05L14-24.1l0.1,0.05l0.7,0.6l0.1,0.15l2,1.8
			l0.15,0.2L38.75,0z"/>
	</g>
</symbol>
<symbol  id="FlashAICB_x2F_Layer_15_x2F__x3C_Path_x3E__x5F_0" viewBox="0 -61.294 110 61.294">
	<g id="Layer_1_5_">
		<path style="fill-rule:evenodd;clip-rule:evenodd;fill:#FFFFFF;" d="M106.5-34.4c2.333-5.633,3.5-10.934,3.5-15.9
			c0-4.967-1.433-8.083-4.3-9.35c-2.367-1.067-6.3-1.05-11.8,0.05c-7.267,1.767-13.1,3.117-17.5,4.05C68.4-53.85,61.267-53,55-53
			c-6.3,0-13.433-0.917-21.4-2.75c-8.333-2.2-14.167-3.683-17.5-4.45c-5.533-1.267-9.45-1.433-11.75-0.5
			C1.45-59.533,0-56.483,0-51.55c0,5.5,1.167,11.167,3.5,17c2.467,6.167,5.95,11.733,10.45,16.7C24.65-5.95,38.333,0,55,0
			c16.467,0,30.133-6,41-18C100.467-22.9,103.967-28.367,106.5-34.4z"/>
	</g>
</symbol>
<symbol  id="FlashAICB_x2F_Layer_15_x2F__x3C_Path_x3E__x5F_1" viewBox="0 -55.8 110 55.8">
	<g id="Layer_1_4_">
		
			<linearGradient id="SVGID_1_" gradientUnits="userSpaceOnUse" x1="16164.3076" y1="-52.8555" x2="16220.0527" y2="-52.8555" gradientTransform="matrix(1.792918e-005 1 -1 -0.001 1.8545 -16220.1055)">
			<stop  offset="0.1294" style="stop-color:#E2B8B2"/>
			<stop  offset="0.9255" style="stop-color:#FFFFFF"/>
		</linearGradient>
		<path style="fill-rule:evenodd;clip-rule:evenodd;fill:url(#SVGID_1_);" d="M96-18c4.467-4.9,7.967-10.367,10.5-16.4
			c2.333-5.633,3.5-10.934,3.5-15.9c0-1.733-0.15-3.217-0.45-4.45c-1.867,11.067-7.267,20.9-16.2,29.5
			C82.783-15.117,70-10.05,55-10.05c-15.233,0-28.067-5.067-38.5-15.2C7.5-33.983,2.15-44.167,0.45-55.8C0.15-54.6,0-53.183,0-51.55
			c0,5.5,1.167,11.167,3.5,17c2.467,6.167,5.95,11.733,10.45,16.7C24.65-5.95,38.333,0,55,0C71.467,0,85.133-6,96-18z"/>
	</g>
</symbol>
<symbol  id="FlashAICB_x2F_Layer_15_x2F__x3C_Path_x3E__x5F_2" viewBox="0 -57.15 118.7 57.15">
	<g id="Layer_1_3_">
		
			<radialGradient id="SVGID_2_" cx="59.3501" cy="-28.5752" r="46.5777" gradientTransform="matrix(1 0 0 -1 0 -57.1504)" gradientUnits="userSpaceOnUse">
			<stop  offset="0" style="stop-color:#000000;stop-opacity:0"/>
			<stop  offset="0.651" style="stop-color:#000000;stop-opacity:0.4"/>
		</radialGradient>
		<path style="fill-rule:evenodd;clip-rule:evenodd;fill:url(#SVGID_2_);" d="M95.5-30.35c10.733,7.7,18.3,17.733,22.7,30.1L118.7,0
			c-0.567-15.9-6.6-29.4-18.1-40.5S75.333-57.15,59.3-57.15c-15.7,0-29.267,5.367-40.7,16.1C7.2-30.35,1-17.233,0-1.7
			c4.6-12,12.183-21.7,22.75-29.1c10.8-7.567,22.817-11.35,36.05-11.35C72.333-42.15,84.567-38.217,95.5-30.35z"/>
	</g>
</symbol>
<g>
	<g>
		<g>
			<path style="fill-rule:evenodd;clip-rule:evenodd;fill:#D99E58;" d="M115.15,5.15l1.35,0.5c0,1.133-0.134,7.917-0.4,20.35
				c-0.166,8.233-0.166,15.033,0,20.4l-0.05,4.05c-0.133,8.167-0.434,14.983-0.899,20.45l-0.65,9.25
				c-0.667,11.133-1.033,26.117-1.1,44.95c-0.267-11.8-0.167-20.966,0.3-27.5l0.05-3.699c0.1-5.101,0.316-11.217,0.65-18.351
				l0.25-10.4c-0.067-6.4-0.051-12.183,0.05-17.35l0.1-3.35C114.967,35.617,115.083,22.517,115.15,5.15z"/>
			<path style="fill-rule:evenodd;clip-rule:evenodd;fill:#D99E58;" d="M110.9,3.7l3.3,1.1L114.15,7
				c0.166,3.967,0.133,9.417-0.101,16.35c-0.267,8.066-0.383,13.566-0.35,16.5l-0.05,5.45c-0.034,2.2-0.084,5.833-0.15,10.9
				l-0.15,5.45c-0.199,6.067-0.399,10.583-0.6,13.55l-0.25,4.5c-0.4,4.733-0.566,10.2-0.5,16.399l0.1,3.25
				c0.034,7.134,0.284,17.884,0.75,32.25c0.301,12.9,0.051,23.7-0.75,32.4l-0.25,3.4v0.35l-2.55,0.75V167
				c0.934-14.633,1.467-25.533,1.601-32.7c0.233-12.166-0.233-23.017-1.4-32.55l-0.25-3.25c-0.366-5.866-0.417-11.3-0.15-16.3
				l0.351-5.25c1.166-17.634,1.517-33.233,1.05-46.8L110.9,3.7z"/>
			<path style="fill-rule:evenodd;clip-rule:evenodd;fill:#D99E58;" d="M105.15,2.2c1.399,0.333,2.933,0.733,4.6,1.2l-0.45,26.75
				c0,4.867,0,12.167,0,21.9c-0.033,8.534-0.233,15.867-0.6,22l-0.351,4.9c0,0.4-0.183,2.133-0.55,5.2
				c-0.233,2.1-0.25,3.833-0.05,5.2c0,3.334,0.134,6.917,0.4,10.75l0.3,3.601c1.267,8.167,1.649,18.767,1.149,31.8
				c-0.699,18.1-1.017,28.75-0.949,31.95v1.25l-2.851,0.7l0.05-3.301c1.4-13.966,2.2-23.433,2.4-28.399
				c0.366-10.634-0.333-20.017-2.1-28.15c-0.4-1.6-0.851-3.149-1.351-4.649c-0.467-1.667-0.967-3.25-1.5-4.75
				c-0.733-2-0.649-4.717,0.25-8.15c1.033-4.066,1.5-6.867,1.4-8.4l0.25-4.8c0.399-5.667,0.467-12.883,0.2-21.65
				C105,44.783,104.8,37.467,104.8,35.2L105.15,2.2z"/>
			<path style="fill-rule:evenodd;clip-rule:evenodd;fill:#D99E58;" d="M101.8,1.5l1.2,0.2c-0.167,9.167-0.033,17.283,0.4,24.35
				l0.1,5.85c0.1,5.4,0.316,13.467,0.65,24.2c0.066,9.267-0.483,17.183-1.65,23.75L102,85c-0.233,1.767-0.384,3.517-0.45,5.25
				c0.2,3.033,0.65,6.583,1.351,10.65l2.149,10c1.533,8.066,1.967,17.633,1.3,28.699c-0.366,6.367-1.199,15.884-2.5,28.551
				l0.051,1.699H103.8l-0.149-2c-0.334-1.232-0.483-2.699-0.45-4.399c0.066-1.967,0.1-3.45,0.1-4.45
				c1.233-10.467,2.033-18.3,2.4-23.5c0.6-8.967,0.2-16.733-1.2-23.3c-0.533-2.066-0.967-3.601-1.3-4.601
				c-0.566-1.8-1.184-3.466-1.851-5c-0.433-1.5-0.733-3.3-0.899-5.399c-0.033-0.467-0.117-2.3-0.25-5.5
				c0-1.066,0.05-2.184,0.149-3.351c0.134-1.533,0.267-2.666,0.4-3.399l0.25-4.6c1.1-6.1,1.533-14.017,1.3-23.75
				c-0.366-14.133-0.517-22.2-0.45-24.2l-0.05-11.2C101.7,14.633,101.7,8.066,101.8,1.5z"/>
			<path style="fill-rule:evenodd;clip-rule:evenodd;fill:#D99E58;" d="M125.85,55.85c-0.3-6.633-0.433-14.317-0.399-23.05
				c0-0.466,0.066-8.133,0.2-23l0.649,0.3c0.033,5.466,0.167,13.233,0.4,23.3c0.233,10.7,0.366,18.417,0.399,23.15l-0.149,17
				c-0.033,2.5-0.033,6.184,0,11.05l-0.15,3.6c-3.399,13.133-4.733,28.783-4,46.95c0,5.333,0.334,10.5,1,15.5l1.101,11.699
				l-1.601,0.801l-0.35-3.15c-3.134-22.233-2.334-46.1,2.399-71.6c0.267-2.567,0.434-4.534,0.5-5.9
				c0.101-2.2,0.134-4.184,0.101-5.95l0.05-4c0.033-2.633,0.017-6.616-0.05-11.95L125.85,55.85z"/>
			<path style="fill-rule:evenodd;clip-rule:evenodd;fill:#D99E58;" d="M127.65,35c-0.2-11.2-0.317-19.316-0.351-24.35
				c2.601,1.467,4.767,2.784,6.5,3.95c0.066,2.333,0.167,4.617,0.3,6.85c0.334,7.466,1.101,13.95,2.301,19.45
				c0.5,4.833,0.633,9.284,0.399,13.35c-0.899,3.6-1.416,5.75-1.55,6.45l-1.45,13.2c-0.133,1.967-0.149,4.284-0.05,6.95
				c0.066,1.5,0.167,3.75,0.3,6.75c0.066,1.067,0.066,2.117,0,3.15l-1.649,9.2c-3.9,18.633-3.9,36.783,0,54.45l0.649,3.199
				c-2.399,1.601-4.833,3.034-7.3,4.301c-0.333-2.134-0.616-3.75-0.85-4.851c-0.4-1.866-0.767-4-1.101-6.399
				c-0.533-6.967-0.866-12.134-1-15.5c0-6.533,0.533-14.467,1.601-23.801c1.333-10.399,2.25-18.183,2.75-23.35l0.3-3.9
				c0.267-4.233,0.333-8.167,0.2-11.8l0.3-12.9C127.95,53.7,127.85,45.566,127.65,35z"/>
			<path style="fill-rule:evenodd;clip-rule:evenodd;fill:#D99E58;" d="M123.45,53.4c0-5.367,0.083-12.75,0.25-22.15
				c0.2-10.566,0.316-18,0.35-22.3l0.95,0.5c-0.033,3.9-0.134,10.9-0.3,21c-0.167,8.866-0.25,15.883-0.25,21.05l-0.101,24.9
				c0.167,2.333,0.233,4.333,0.2,6c0,1.8-0.083,3.784-0.25,5.95c-2.066,10.367-3.2,22.634-3.399,36.801
				c-0.034,3,0.149,15.267,0.55,36.8l0.05,2.05l-0.3,0.15l-0.7-7.101c-0.8-10.3-0.75-22.733,0.15-37.3
				c1.333-16.533,2.233-29,2.699-37.4c0.067-2.267,0.051-4.3-0.05-6.1L123.45,53.4z"/>
			<path style="fill-rule:evenodd;clip-rule:evenodd;fill:#D99E58;" d="M67.55,4.15l0.3-2.25l3.1-0.6v13
				c-0.133,5.733-0.167,16.35-0.1,31.85c0.1,13.5-0.033,24.133-0.4,31.9c-0.333,12.4-0.5,29.283-0.5,50.65l0.25,20.5l0.1,1.25
				c0.233,5.333,0.617,11.167,1.15,17.5l0.15,2.6l-2.85-0.5c0.033-2.399-0.017-5.233-0.15-8.5c-0.167-3.767-0.3-6.649-0.4-8.649
				l-0.75-15.25c-0.633-14.334-0.6-35.167,0.1-62.5c0.733-28.033,0.833-48.8,0.3-62.3c-0.133-1.434-0.233-2.883-0.3-4.35
				C67.45,7.066,67.45,5.617,67.55,4.15z"/>
			<path style="fill-rule:evenodd;clip-rule:evenodd;fill:#D99E58;" d="M137.7,36.6c-0.934-9.167-1.601-16.034-2-20.6
				c0.967,0.667,2.383,1.733,4.25,3.2c0.233,7.966,0.783,14.833,1.649,20.6c0.233,2.4,0.284,5.1,0.15,8.1
				c-0.1,1.767-0.316,4.45-0.65,8.05l-0.399,4.6c-0.8,10.034-1.233,15.534-1.3,16.5l-0.15,3.35c0,4.067-0.05,8.15-0.15,12.25
				l-0.5,13.8c-0.433,7-0.583,14.816-0.449,23.45c0.1,5.433,0.399,13.217,0.899,23.35l-3.6,2.7c-0.8-9.566-1.351-17.351-1.65-23.351
				c-0.434-8.566-0.533-16.399-0.3-23.5l0.6-8.5l1.101-6.35c0.233-1.3,0.399-2.75,0.5-4.35c0.1-1.4,0.149-2.801,0.149-4.2
				l-0.05-2.85l2.25-25.5C138.483,51.55,138.366,44.633,137.7,36.6z"/>
			<path style="fill-rule:evenodd;clip-rule:evenodd;fill:#D99E58;" d="M77.8,0.4l2.9-0.25l0.05,20.75c0,26.2-0.067,45.833-0.2,58.9
				c-0.233,21.667-0.716,41.283-1.45,58.851c0,1.5,0.05,3,0.15,4.5c0.033,1.066,0.15,2.583,0.35,4.55l0.35,4.649
				c0.433,5.934,0.583,10.567,0.45,13.9l-0.1,5.3l-2.4-0.2l-1.05-13.1c-0.067-3.167-0.15-5.233-0.25-6.2
				c0-0.033-0.05-1.566-0.15-4.6c-0.067-1.134-0.1-2.8-0.1-5l0.15-5c0.667-26.5,1.117-46.367,1.35-59.6
				c0.4-23.034,0.4-42.917,0-59.65L77.8,0.4z"/>
			<path style="fill-rule:evenodd;clip-rule:evenodd;fill:#D99E58;" d="M81.6,0.1l1.55-0.05l0.05,26.2
				c0.167,6.333,0.25,15.767,0.25,28.3c0,12.567,0.083,22.034,0.25,28.4c0,3.066-0.333,11.833-1,26.3
				c-0.534,10.667-0.483,19.467,0.15,26.4v4.949c0,3.334-0.05,6.667-0.15,10V171.7l-1.3-0.05c0.1-6.033,0.067-12.517-0.1-19.45
				l-0.3-9.5c-0.1-1.5-0.15-3.017-0.15-4.55c-0.033-8.634,0.217-28.017,0.75-58.15c0.433-24.133,0.433-43.566,0-58.3V0.1z"/>
			<path style="fill-rule:evenodd;clip-rule:evenodd;fill:#D99E58;" d="M72.15,1.1c1.467-0.233,3-0.434,4.6-0.6l0.05,16.85
				c0.233,17.867,0.184,37.617-0.15,59.25c-0.267,15.1-0.733,34.833-1.4,59.2c-0.033,1.4-0.017,3.434,0.05,6.101l0.4,10.699
				c0.6,9.101,0.95,15.25,1.05,18.45v0.2c-1.867-0.2-3.267-0.383-4.2-0.55c-0.066-2.767-0.233-6.184-0.5-10.25
				c-0.3-4.533-0.517-7.95-0.65-10.25l-0.25-4.45c-0.1-1.2-0.15-2.434-0.15-3.7l-0.05-3.7c0-18.866,0.25-43.949,0.75-75.25l0.2-3.2
				c0.4-4,0.6-8.483,0.6-13.45c-0.033-2.7-0.15-7.167-0.35-13.4l0.2-16.6c0-2-0.067-3.884-0.2-5.65V1.1z"/>
			<path style="fill-rule:evenodd;clip-rule:evenodd;fill:#D99E58;" d="M84.1,0.05L85.9,0c2.066,0,3.916,0.066,5.55,0.2v52.55
				c0.1,3.5,0.083,6.8-0.05,9.9l-0.101,5c-0.066,4.233-0.184,10.617-0.35,19.15L90.9,90.65c-0.101,4.133-0.117,7.683-0.051,10.649
				c0,1.167,0.051,2.95,0.15,5.351l-0.05,4.8c-0.167,4.366-0.117,9.917,0.149,16.649c0.367,9.067,0.567,14.601,0.601,16.601v14.1
				c0.033,0.767,0.149,1.834,0.35,3.2c0.233,1.8,0.733,4.934,1.5,9.4c-2.967,0.233-5.517,0.35-7.649,0.35l-2.4-0.05
				c0.2-6.233,0.35-12.384,0.45-18.45l0.05-15c-0.633-13.633-0.717-32.633-0.25-57c0.533-26.667,0.65-45.733,0.35-57.2V0.05z"/>
			<path style="fill-rule:evenodd;clip-rule:evenodd;fill:#D99E58;" d="M98.65,0.95l1.5,0.25c0,6.633,0.149,13.267,0.449,19.9
				l0.25,16.6c0,4.466,0.034,11.05,0.101,19.75c-0.066,7.533-0.367,14.15-0.9,19.85l-0.3,5.15C99.25,90.95,99,95.333,99,95.6
				c-0.033,1.5-0.033,2.967,0,4.4l1.5,4.05c0.667,1.667,1.217,3.25,1.65,4.75c0.433,1.434,0.85,3.033,1.25,4.8
				c1.033,6.667,1.216,14.217,0.55,22.65c-0.434,5.033-1.467,12.617-3.101,22.75c-0.533,3.233-0.383,6.217,0.45,8.95l0.45,2.3
				l-1,0.2c-0.333-1.833-0.616-4.101-0.85-6.8l-0.2-4.5l1.2-7.101c1.699-10.333,2.633-17.967,2.8-22.899
				c0.3-8.834-0.9-16.384-3.601-22.65c-0.533-1.7-1.133-3.467-1.8-5.3c-0.3-1.434-0.5-2.884-0.6-4.351
				c-0.467-4.633-0.101-9.183,1.1-13.649l0.4-4.75c0.666-12.8,0.75-26.684,0.25-41.65l-0.4-22.05
				C98.816,9.65,98.684,5.05,98.65,0.95z"/>
			<path style="fill-rule:evenodd;clip-rule:evenodd;fill:#D99E58;" d="M95.45,5.9l-0.2-5.4l2.8,0.35l0.25,35.3
				c0.134,16.167-0.017,29.35-0.45,39.55L97,84.45c-0.566,4.2-0.616,8.566-0.15,13.1c0.167,1.467,0.367,2.917,0.601,4.351l1.1,4.8
				c1.934,8.467,3.017,15.934,3.25,22.399c0.3,8.301-0.666,15.817-2.899,22.551c-0.367,1.1-0.584,2.566-0.65,4.399v4.2
				c0,0.867,0.066,2.167,0.2,3.9c0.2,2.199,0.55,4.366,1.05,6.5l-0.7,0.149c-0.399-2.566-0.684-5.467-0.85-8.7L97.9,158.7
				l0.699-9.45c0.801-8.866,1.2-15.983,1.2-21.35c0-7.767-0.75-14.783-2.25-21.051L95.7,98.3c-0.5-3.967-0.566-7.483-0.2-10.55
				l0.75-13.85c0.566-8.667,0.733-19.55,0.5-32.65l-0.1-4.4C96.417,26.583,96.017,16.267,95.45,5.9z"/>
			<path style="fill-rule:evenodd;clip-rule:evenodd;fill:#D99E58;" d="M92.7,0.3l2.2,0.15c0,12.7,0.149,25.4,0.449,38.1l0.101,4.65
				c0.166,3.6,0.416,8.917,0.75,15.95c0.166,5.967-0.05,11.217-0.65,15.75L94.6,87.75c-0.399,3.434-0.399,7.233,0,11.4l1.551,8.75
				c1.5,5.933,2.3,12.533,2.399,19.8c0.101,5.8-0.267,12.533-1.1,20.2l-1.2,11.5l0.05,3.25c0.033,2.533,0.3,5.316,0.8,8.35l-1.6,0.2
				c-0.7-3.2-1.217-6.2-1.55-9l-0.351-3.4c-0.166-2.233-0.35-5.517-0.55-9.85l-0.149-4.9c-0.367-4.833-0.534-10.616-0.5-17.35
				c0.1-7.667,0.149-13.351,0.149-17.05l-0.2-5.601c-0.267-7.467-0.399-13.1-0.399-16.899l0.5-16.95
				c0.066-12.733,0.149-20.817,0.25-24.25V0.3z"/>
			<path style="fill-rule:evenodd;clip-rule:evenodd;fill:#D99E58;" d="M117.15,49.25c-0.233-5.767-0.267-12.967-0.101-21.6
				c0.267-9.633,0.417-16.833,0.45-21.6c1.3,0.5,2.95,1.217,4.95,2.15c0,2.233-0.134,9.333-0.4,21.3c-0.2,8.667-0.233,15.8-0.1,21.4
				l-0.3,23.5c0.066,1.467,0.066,2.967,0,4.5c0,1-0.067,2.5-0.2,4.5c-0.634,8.534-1.634,21.167-3,37.9
				c-0.767,14.367-0.417,27.101,1.05,38.2c0.134,1.6,0.033,3.45-0.3,5.55l-4.45,1.7l0.35-4.3c0.134-6.767,0.317-20.267,0.551-40.5
				c0.166-16.867,0.383-30.384,0.649-40.55l0.55-7.9c0.233-4.367,0.351-10.883,0.351-19.55L117.15,49.25z"/>
			<path style="fill-rule:evenodd;clip-rule:evenodd;fill:#D99E58;" d="M49.85,40.75l0.95,4.6l0.8,9.8
				c-1.133-4.6-1.883-8.25-2.25-10.95c-0.333-2.134-0.133-4.6,0.6-7.4C49.65,38.167,49.617,39.483,49.85,40.75z"/>
			<path style="fill-rule:evenodd;clip-rule:evenodd;fill:#D99E58;" d="M52.5,123.15c0.133,0.933,0.467,2.916,1,5.949
				c0.467,2.534,0.75,4.567,0.85,6.101C53.383,131.3,52.767,127.283,52.5,123.15z"/>
			<path style="fill-rule:evenodd;clip-rule:evenodd;fill:#D99E58;" d="M62.1,89.85c0.3-2.267,0.5-4.483,0.6-6.649
				c-0.3,21.767-0.067,40.566,0.7,56.399l0.1,3.9c0.067,8.434,0.067,16.867,0,25.3l-2.2-0.649c0.1-5.467,0.35-13.267,0.75-23.4
				l0.05-5.25c-0.567-11-0.934-19.233-1.1-24.7C60.7,105.3,61.067,96.983,62.1,89.85z"/>
			<path style="fill-rule:evenodd;clip-rule:evenodd;fill:#D99E58;" d="M5.95,96.4c-0.024,1.547-0.057,3.147-0.1,4.8L6,117.15
				l-0.35-0.75c0.2-4.233,0.217-7.684,0.05-10.351l0.1-4.55C5.846,99.742,5.896,98.042,5.95,96.4z"/>
			<path style="fill-rule:evenodd;clip-rule:evenodd;fill:#D99E58;" d="M142.35,40.75c-0.666-7.2-1.083-12.6-1.25-16.2
				c-0.133-1.533-0.233-3.083-0.3-4.65c1.8,1.5,3.55,3.1,5.25,4.8c0.3,15.667,0.45,26.116,0.45,31.35l-0.35,30.5
				c0.166,3.967,0.267,7.917,0.3,11.851v8.1c-0.9,11.634-1.15,25.267-0.75,40.9c-1.533,1.533-3.3,3.133-5.3,4.8
				c-0.367-5.566-0.784-10.65-1.25-15.25c-0.601-4.5-0.617-10.066-0.051-16.7c0.967-10.8,1.45-16.383,1.45-16.75l0.3-13.45
				c0.067-3.733,0.017-7.45-0.149-11.15l1.25-17.15c0.133-1.533,0.233-3.1,0.3-4.7C142.783,52.617,142.816,47.184,142.35,40.75z"/>
			<path style="fill-rule:evenodd;clip-rule:evenodd;fill:#D99E58;" d="M151,55c-0.167-5.6,0.1-13.633,0.8-24.1
				c1,1.167,1.95,2.367,2.851,3.6c-0.301,2.633-0.733,5.7-1.301,9.2c0,0.833-0.033,1.983-0.1,3.45
				c-0.033,1.267,0.116,2.434,0.45,3.5c0.033,1.167,0.149,2.917,0.35,5.25c0.334,3.5,0.884,8.717,1.65,15.65
				c0.6,6.1,0.75,11.333,0.45,15.7l-0.051,24.7c-0.633,6.8-0.75,14.733-0.35,23.8c-1.333,1.8-2.35,3.117-3.05,3.95
				c-0.634-12.101-0.617-21.634,0.05-28.601c0.134-2,0.2-3.482,0.2-4.449L152.85,87.4c0.067-1.3,0.067-2.601,0-3.9
				c-0.066-2.934-0.283-6.883-0.649-11.85c-0.434-5.8-0.7-9.716-0.8-11.75L151,55z"/>
			<path style="fill-rule:evenodd;clip-rule:evenodd;fill:#D99E58;" d="M154.8,55.25l-0.25-4.75c-0.066-3.934,0.2-8.95,0.8-15.05
				c1.4,1.9,2.7,3.85,3.9,5.85l-0.1,2.3c-0.067,2.233-0.084,3.917-0.051,5.05c0.101,3.6,0.534,8.65,1.301,15.15
				c0.899,7.2,1.433,12.333,1.6,15.4l0.7,45.05c-1.733,3.434-3.584,6.583-5.55,9.45c0-3.467,0.149-10.033,0.449-19.7l0.2-18
				c-0.033-1.6-0.133-3.233-0.3-4.9l-0.2-5.45c0-0.167,0.066-2.117,0.2-5.85c0.066-2.2,0-4.083-0.2-5.65
				C156.033,65.983,155.2,59.684,154.8,55.25z"/>
			<path style="fill-rule:evenodd;clip-rule:evenodd;fill:#D99E58;" d="M148.45,55.45c0-6.134,0.133-15.434,0.399-27.9l2.25,2.55
				c-0.433,8.667-0.649,15.633-0.649,20.9l0.149,5.05c0,0.134,0.233,4.55,0.7,13.25c0.267,5.3,0.434,9.7,0.5,13.2l-0.149,24.75
				c-0.034,3.733-0.15,9.4-0.351,17c-0.133,6.767-0.133,12.483,0,17.15l-2.6,3c-0.367-7.434-0.517-13.684-0.45-18.75
				c0.033-6.834,0.417-13.084,1.15-18.75l0.149-4.5c0.066-1.601,0.066-3.184,0-4.75c-0.033-1.4-0.166-2.967-0.399-4.7l-0.051-8.9
				c-0.033-5.2-0.216-13-0.55-23.4L148.45,55.45z"/>
			<path style="fill-rule:evenodd;clip-rule:evenodd;fill:#D99E58;" d="M168.15,69.75l-0.2-9.2c2.533,8.1,3.8,16.534,3.8,25.3
				c0,7.534-0.934,14.8-2.8,21.8l-0.2-13.2C168.45,83.483,168.25,75.25,168.15,69.75z"/>
			<path style="fill-rule:evenodd;clip-rule:evenodd;fill:#D99E58;" d="M163,75.6l0.25-2.75L164,94.8l-0.05,12.4
				c-0.233,4-0.267,8.866-0.101,14.6l-0.399,0.851v-0.25c-0.066-7.2-0.05-12.634,0.05-16.301L163,75.6z"/>
			<path style="fill-rule:evenodd;clip-rule:evenodd;fill:#D99E58;" d="M147.15,126.85c-0.034,5.268,0.033,11.584,0.199,18.95
				l-0.399,0.351C146.884,139.316,146.95,132.884,147.15,126.85z"/>
			<path style="fill-rule:evenodd;clip-rule:evenodd;fill:#D99E58;" d="M162.5,53.6c-0.1-1.6-0.15-3.184-0.15-4.75V46.9
				c1.4,2.7,2.617,5.4,3.65,8.1c0.167,2.5,0.45,5.3,0.85,8.4l0.051,5.7c0.267,8,0.466,15.95,0.6,23.85v19.55
				c-0.6,1.867-1.384,4-2.35,6.4L165.05,96.1c-0.333-10.266-0.566-17.85-0.7-22.75V67.9c-0.199-1-0.483-2.6-0.85-4.8
				c-0.333-1.333-0.566-2.967-0.7-4.9C162.667,56.1,162.566,54.566,162.5,53.6z"/>
			<path style="fill-rule:evenodd;clip-rule:evenodd;fill:#D99E58;" d="M57.95,4.7v0.7c-0.067,2.3,0.617,6.067,2.05,11.3
				c1.267,4.7,1.633,8.466,1.1,11.3c-0.3,1.467-0.867,3.684-1.7,6.65c-0.566,2.567-0.65,4.767-0.25,6.6
				c1.633,10.4,2.267,22.733,1.9,37c-0.2,8.133-0.667,20.333-1.4,36.6c0,2.4,0.317,6.084,0.95,11.051
				c0.667,4.933,0.983,8.666,0.95,11.199l-0.05,5.051c-0.267,3.566-0.433,7.866-0.5,12.899c-0.067,2.9-0.133,7.217-0.2,12.95
				c-2.433-0.733-4.7-1.533-6.8-2.4c0.4-5.566,0.7-9.732,0.9-12.5c0.367-4.933,0.583-9.1,0.65-12.5v-4.3
				c-0.066-1.767-0.667-6.133-1.8-13.1c-0.9-5.434-1.067-9.851-0.5-13.25c1.733-10.566,2.367-21.15,1.9-31.75l0.1-1.6
				c0-2.7-0.283-5.717-0.85-9.05c-0.8-7.133-2-14.533-3.6-22.2l-0.5-5.55c-0.133-1.1-0.133-2.533,0-4.3l0.4-1.25
				c0.267-0.7,0.983-2.367,2.15-5c0.933-2.1,1.566-3.816,1.9-5.15c0.567-2.434,0.267-5.233-0.9-8.4
				c-1.567-3.567-2.65-6.267-3.25-8.1C52.867,6.566,55.317,5.6,57.95,4.7z"/>
			<path style="fill-rule:evenodd;clip-rule:evenodd;fill:#D99E58;" d="M26.6,39.45c0.1-1.5,0.15-3.034,0.15-4.6
				c-0.867-2.8-1.633-5.767-2.3-8.9l0.85-0.9c0.467,2.267,0.983,4.333,1.55,6.2c0.167,1.066,0.35,2.633,0.55,4.7
				c0.367,5.133-0.017,9.85-1.15,14.15c-0.967,4.233-1.6,7.417-1.9,9.55c-0.467,3.5-0.517,6.633-0.15,9.4
				c0.1,1.4,0.15,2.784,0.15,4.15l0.35,33.05c0.167,4.333-0.034,10.783-0.6,19.35c-0.567,8.567-0.767,14.983-0.6,19.25l-2.05-2.3
				c-0.2-2.066-0.233-4.1-0.1-6.1c0.066-1.434,0.517-6.75,1.35-15.95c0.566-6.467,0.733-11.85,0.5-16.15v-4.5
				c0.066-1.533,0.066-3.05,0-4.55l0.15-23.2c-0.367-4.333-0.05-9.817,0.95-16.45C25.733,46.35,26.5,40.95,26.6,39.45z"/>
			<path style="fill-rule:evenodd;clip-rule:evenodd;fill:#D99E58;" d="M29.2,37.5c0.066-1.633,0.017-3.283-0.15-4.95
				c-0.933-2.866-1.733-5.8-2.4-8.8l2.6-2.35c0.5,2.867,1.15,5.717,1.95,8.55c0.4,1.466,0.583,3.183,0.55,5.15
				c0,1.133-0.067,2.816-0.2,5.05c-0.1,1.733-0.25,3.4-0.45,5c-0.133,1.333-0.7,5.517-1.7,12.55c-0.7,5.1-1.117,9.283-1.25,12.55
				l0.2,15.6c-0.033,2,0.05,4.883,0.25,8.65c0.2,3.934,0.283,6.833,0.25,8.7l-0.15,3.55c0.066,13.867-0.25,24.583-0.95,32.15
				c-0.533,2.666-0.417,5.1,0.35,7.3l0.2,3.3c-1.367-1.2-2.683-2.467-3.95-3.8c-0.4-2.601-0.633-4.384-0.7-5.351
				c-0.2-2-0.15-3.783,0.15-5.35c0.934-3.566,1.367-8.233,1.3-14c-0.1-7.233-0.033-11.9,0.2-14V70.45
				c0.167-0.9,0.083-2.284-0.25-4.15c-0.333-1.833-0.417-3.15-0.25-3.95c1.434-5.567,2.417-9.7,2.95-12.4
				C28.683,45.35,29.167,41.2,29.2,37.5z"/>
			<path style="fill-rule:evenodd;clip-rule:evenodd;fill:#D99E58;" d="M32.5,44.7c0.133-2.333,0.2-4.05,0.2-5.15
				c-0.3-5.366-1-11.816-2.1-19.35l1.45-1.2c0.667,3.967,1.517,7.617,2.55,10.95c0.433,1.433,0.633,3.15,0.6,5.15
				c0,1.167-0.05,2.867-0.15,5.1c-0.133,1.633-0.333,3.316-0.6,5.05c-0.4,2.8-1.1,7.017-2.1,12.65
				c-0.767,4.967-1.083,9.217-0.95,12.75v5.3c0.4,4.066,0.567,8.833,0.5,14.3c-0.033,3.134-0.133,7.833-0.3,14.1l-0.05,4.7
				c-0.033,1.434,0.034,7.3,0.2,17.601c0.133,7.1-0.15,12.933-0.85,17.5l-0.1,7.55l-2.05-1.75l-0.1-2.9
				c-0.367-2.2-0.6-3.85-0.7-4.95c-0.233-1.966-0.133-3.683,0.3-5.149c0.9-4.233,1.467-8.816,1.7-13.75
				c0.167-3.5,0.183-8.134,0.05-13.9l-0.25-4.149c-0.033-1.4-0.05-4.934-0.05-10.601c0.033-4.366-0.083-7.883-0.35-10.55L29.1,68.8
				c-0.033-2-0.033-3.483,0-4.45c0-1.767,0.2-3.25,0.6-4.45C31.133,55.133,32.067,50.066,32.5,44.7z"/>
			<path style="fill-rule:evenodd;clip-rule:evenodd;fill:#D99E58;" d="M36.2,36.95c-0.067-2.034-0.1-5.017-0.1-8.95
				c-0.233-1.533-0.633-3.25-1.2-5.15c0-0.067-0.5-1.684-1.5-4.85l2.05-1.6c1.033,6.267,1.65,10.284,1.85,12.05
				c0.534,4.533,0.667,8.583,0.4,12.15l-0.25,4.8c-0.167,2.667-0.467,6.65-0.9,11.95c-0.367,4.7-0.566,8.65-0.6,11.85l0.1,4.2
				c0.034,5.567,0.284,19.1,0.75,40.6l0.1,4.45c0.167,5.2,0.15,10.233-0.05,15.1L36,155.7c-1.3-0.9-2.55-1.851-3.75-2.851
				l0.05-10.35c0.567-6.967,0.85-17.283,0.85-30.95L33.1,68.4c0-3.466,0.367-7.95,1.1-13.45c1-7.534,1.566-12.034,1.7-13.5
				C36.067,39.95,36.167,38.45,36.2,36.95z"/>
			<path style="fill-rule:evenodd;clip-rule:evenodd;fill:#D99E58;" d="M39.45,38.7l-0.15-5.25c-0.066-2.534-0.383-5.534-0.95-9
				c-0.7-4-1.217-7-1.55-9c1.934-1.333,3.617-2.417,5.05-3.25c0.566,4.066,0.883,8.9,0.95,14.5c0,3.233-0.05,8.066-0.15,14.5
				c-0.4,4.267-0.3,8.05,0.3,11.35l0.15,0.5c0.233,2.833,0.833,6.767,1.8,11.8c1.067,5.566,1.733,9.483,2,11.75
				c0.533,5.167,0.367,9.733-0.5,13.7c-1.133,7.434-1.833,15.367-2.1,23.8c-0.2,6.5-0.15,14.351,0.15,23.551v23.399
				c-2.367-1.3-4.483-2.583-6.35-3.85l0.15-13.65c0.033-2.366,0.017-5.916-0.05-10.649l0.1-13.25c0.067-3.7,0.184-20.334,0.35-49.9
				l-0.05-5.1C39.3,54.816,39.583,46.167,39.45,38.7z"/>
			<path style="fill-rule:evenodd;clip-rule:evenodd;fill:#D99E58;" d="M7.55,50.8c1.567-3.466,3.233-6.65,5-9.55
				c0,2.8-0.05,6.983-0.15,12.55c-0.066,5.034-0.066,9.267,0,12.7l-0.2,10.25c-0.267,7.867-0.45,14.983-0.55,21.35v4.25
				c-0.267,2.801-0.35,6.684-0.25,11.65c0.067,5.3,0.017,9.15-0.15,11.55l-0.2,2.3c-1.466-2.6-2.816-5.333-4.05-8.199
				c0-0.301-0.083-2.884-0.25-7.75c-0.1-3.167-0.083-5.817,0.05-7.95l0.05-3.851C7.117,88.066,7.317,79.033,7.45,73l0.15-9.9
				C7.5,60.434,7.483,56.333,7.55,50.8z"/>
			<path style="fill-rule:evenodd;clip-rule:evenodd;fill:#D99E58;" d="M0.15,90c0.1-3.533,0.15-7.083,0.15-10.65
				c0.667-8.434,2.483-16.5,5.45-24.2L4.8,105.7c0.1,1.934,0.15,4.833,0.15,8.7C2.15,106.533,0.55,98.4,0.15,90z"/>
			<path style="fill-rule:evenodd;clip-rule:evenodd;fill:#D99E58;" d="M13.8,39.35c1.434-2.233,2.633-3.967,3.6-5.2
				c0.2,7.067,0.083,18.667-0.35,34.8l-0.1,4.75c-0.233,9.233-0.35,17.1-0.35,23.6l-0.05,4.7c-0.033,0.9-0.05,6.25-0.05,16.05
				c0,6.367-0.483,11.684-1.45,15.95L15,134.25l-2.85-4.5l0.1-1.4c0.567-8.3,0.8-16.55,0.7-24.75L12.9,99.15
				c0-4.9,0.1-12.284,0.3-22.15l0.3-10.65C13.867,56.517,13.967,47.517,13.8,39.35z"/>
			<path style="fill-rule:evenodd;clip-rule:evenodd;fill:#D99E58;" d="M43.6,36.8c0.9-4.933,1.4-9.25,1.5-12.95
				c0.1-4.667-0.4-8.883-1.5-12.65c1.6-0.967,3.4-1.934,5.4-2.9c1.9,4.567,2.15,10.767,0.75,18.6
				c-1.567,8.867-2.033,14.967-1.4,18.3c0.233,1.267,0.9,4.683,2,10.25c0.833,4.133,1.467,7.5,1.9,10.1
				c0.7,13.267,0.9,25.851,0.6,37.75l-0.55,2.75c-0.9,4.8-1.066,10.184-0.5,16.15c0.667,4.133,1.1,7.066,1.3,8.8
				c0.367,3.267,0.5,6.15,0.4,8.65l-0.1,3.949c-0.1,2.867-0.316,6.4-0.65,10.601c-0.167,2.333-0.433,5.85-0.8,10.55
				c-1.934-0.833-3.833-1.733-5.7-2.7L46.6,155c0.3-5.333,0.4-10.017,0.3-14.05l-0.1-3.55c-0.533-2.7-0.917-5.267-1.15-7.7
				c-0.667-9.566-0.333-20.316,1-32.25l0.05-0.2l1.15-9.85c0.7-5.434,0.683-11.25-0.05-17.45c-0.566-4.867-1.683-10.667-3.35-17.4
				c-0.5-1.833-0.883-3.483-1.15-4.95C43.233,45.2,43.333,41.6,43.6,36.8z"/>
			<path style="fill-rule:evenodd;clip-rule:evenodd;fill:#D99E58;" d="M19.55,37.25l-0.2-5.6c0.967-1.2,2.183-2.6,3.65-4.2
				l0.55,3.85c0.1,1.167,0.184,2.9,0.25,5.2c0.1,4.133-0.183,10.167-0.85,18.1c-0.633,8.133-0.934,14.15-0.9,18.05l0.2,30.8
				c0.033,2.667,0.2,6.75,0.5,12.25c0.1,4.767-0.367,8.583-1.4,11.45c-0.7,2.267-1.05,4.75-1.05,7.449c0,2.034,0.217,4.5,0.65,7.4
				c-1.633-1.9-3.184-3.85-4.65-5.85c0.067-1.5,0.284-2.867,0.65-4.101c0.933-3.5,1.283-8.267,1.05-14.3
				c-0.267-7.366-0.283-12.267-0.05-14.7L17.9,97.6c-0.066-5.232-0.017-11.783,0.15-19.649L18.3,67.6
				c0.034-3.167,0.267-8.233,0.7-15.2C19.4,45.867,19.583,40.816,19.55,37.25z"/>
			<path style="fill-rule:evenodd;clip-rule:evenodd;fill:#D99E58;" d="M63.2,3.4l0.05-0.35L66.7,2.2
				c-0.267,1.8-0.35,3.75-0.25,5.85c0.066,1.367,0.167,2.684,0.3,3.95c0.5,2.167,0.75,5.533,0.75,10.1c0,6.9-0.267,26.55-0.8,58.95
				c-0.434,24.067-0.4,43.75,0.1,59.05L67,150.2c-0.167,2.533-0.15,5.783,0.05,9.75c0.3,5.6,0.45,8.866,0.45,9.8l-2.95-0.65V136
				c0-2.133-0.167-5.25-0.5-9.35c-0.333-4.101-0.5-7.217-0.5-9.351c-0.1-7.233,0.117-21.3,0.65-42.2
				c0.466-17.7,0.417-31.767-0.15-42.2c0-0.6,0.184-1.417,0.55-2.45c0.467-1.134,0.783-1.95,0.95-2.45c0.2-2.767-0.033-6.2-0.7-10.3
				c-0.833-4.634-1.4-8.117-1.7-10.45C62.95,6.316,62.967,5.033,63.2,3.4z"/>
			<path style="fill-rule:evenodd;clip-rule:evenodd;fill:#D99E58;" d="M59.05,4.3l2.55-0.8l0.05,1.95
				c0.067,1.2,0.217,2.316,0.45,3.35c1.3,6.634,1.95,13.85,1.95,21.65c-0.233,8.966-0.6,22.433-1.1,40.4
				c-0.5-10.567-0.85-18.5-1.05-23.8c-0.4-9.4-0.167-17.383,0.7-23.95c0.4-2.267,0.217-4.85-0.55-7.75
				c-1.1-3.267-1.883-5.684-2.35-7.25C59.367,6.633,59.15,5.367,59.05,4.3z"/>
			<path style="fill-rule:evenodd;clip-rule:evenodd;fill:#AF6924;" d="M0.05,85.85c0-1.934,0.083-4.1,0.25-6.5
				c0,3.566-0.05,7.117-0.15,10.65L0.05,85.85z"/>
			<path style="fill-rule:evenodd;clip-rule:evenodd;fill:#AF6924;" d="M5.75,55.15L6.8,52.5L6.55,69.8
				c-0.133,7.067-0.383,17.634-0.75,31.7l-0.1,4.55c0.167,2.667,0.15,6.117-0.05,10.351l-0.7-2c0-3.867-0.05-6.767-0.15-8.7
				L5.75,55.15z"/>
			<path style="fill-rule:evenodd;clip-rule:evenodd;fill:#AF6924;" d="M6.8,52.5l0.75-1.7C7.483,56.333,7.5,60.434,7.6,63.1
				L7.45,73c-0.133,6.033-0.333,15.066-0.6,27.1L6.8,103.95c-0.133,2.133-0.15,4.783-0.05,7.95C6.917,116.767,7,119.35,7,119.65
				l-1-2.5L5.85,101.2c0.367-14.101,0.6-24.65,0.7-31.65L6.8,52.5z"/>
			<path style="fill-rule:evenodd;clip-rule:evenodd;fill:#AF6924;" d="M12.4,53.8c0.1-5.566,0.15-9.75,0.15-12.55l1.25-1.9
				c0.167,8.167,0.067,17.167-0.3,27L13.2,77c-0.2,9.867-0.3,17.25-0.3,22.15l0.05,4.449c0.1,8.2-0.133,16.45-0.7,24.75l-0.1,1.4
				l-1.1-1.9l0.2-2.3c0.167-2.399,0.217-6.25,0.15-11.55c-0.1-4.967-0.017-8.85,0.25-11.65V98.1c0.1-6.366,0.283-13.483,0.55-21.35
				l0.2-10.25C12.333,63.066,12.333,58.833,12.4,53.8z"/>
			<path style="fill-rule:evenodd;clip-rule:evenodd;fill:#AF6924;" d="M19.35,31.65l0.2,5.6c0.034,3.566-0.15,8.617-0.55,15.15
				c-0.433,6.967-0.667,12.034-0.7,15.2l-0.25,10.35c-0.167,7.866-0.216,14.417-0.15,19.649l0.05,5.45
				c-0.233,2.434-0.217,7.334,0.05,14.7c0.233,6.033-0.117,10.8-1.05,14.3c-0.367,1.233-0.583,2.601-0.65,4.101l-1.3-1.9l0.05-0.25
				c0.967-4.267,1.45-9.583,1.45-15.95c0-9.8,0.017-15.149,0.05-16.05l0.05-4.7c0-6.5,0.117-14.366,0.35-23.6l0.1-4.75
				c0.434-16.134,0.55-27.733,0.35-34.8C18.067,33.217,18.717,32.383,19.35,31.65z"/>
			<path style="fill-rule:evenodd;clip-rule:evenodd;fill:#AF6924;" d="M23.8,36.5c-0.066-2.3-0.15-4.033-0.25-5.2L23,27.45
				l1.45-1.5c0.667,3.133,1.433,6.1,2.3,8.9c0,1.566-0.05,3.1-0.15,4.6s-0.867,6.9-2.3,16.2c-1,6.633-1.316,12.117-0.95,16.45
				L23.2,95.3c0.066,1.5,0.066,3.017,0,4.55v4.5c0.233,4.301,0.066,9.684-0.5,16.15c-0.833,9.2-1.284,14.517-1.35,15.95
				c-0.133,2-0.1,4.033,0.1,6.1l-0.5-0.55c-0.434-2.9-0.65-5.366-0.65-7.4c0-2.699,0.35-5.183,1.05-7.449
				c1.033-2.867,1.5-6.684,1.4-11.45c-0.3-5.5-0.467-9.583-0.5-12.25l-0.2-30.8c-0.033-3.9,0.267-9.917,0.9-18.05
				C23.617,46.667,23.9,40.633,23.8,36.5z"/>
			<path style="fill-rule:evenodd;clip-rule:evenodd;fill:#AF6924;" d="M27.4,35.95c-0.2-2.067-0.383-3.634-0.55-4.7
				c-0.567-1.867-1.083-3.934-1.55-6.2l1.35-1.3c0.667,3,1.467,5.934,2.4,8.8c0.167,1.667,0.217,3.317,0.15,4.95
				c-0.034,3.7-0.517,7.85-1.45,12.45c-0.533,2.7-1.517,6.833-2.95,12.4c-0.167,0.8-0.083,2.117,0.25,3.95
				c0.333,1.867,0.417,3.25,0.25,4.15V107c-0.233,2.1-0.3,6.767-0.2,14c0.066,5.767-0.367,10.434-1.3,14
				c-0.3,1.566-0.35,3.35-0.15,5.35c0.067,0.967,0.3,2.75,0.7,5.351l-0.85-0.851c-0.167-4.267,0.033-10.683,0.6-19.25
				c0.566-8.566,0.767-15.017,0.6-19.35L24.35,73.2c0-1.367-0.05-2.75-0.15-4.15c-0.367-2.767-0.317-5.9,0.15-9.4
				c0.3-2.133,0.933-5.316,1.9-9.55C27.383,45.8,27.767,41.083,27.4,35.95z"/>
			<path style="fill-rule:evenodd;clip-rule:evenodd;fill:#AF6924;" d="M31.55,40.15c0.133-2.233,0.2-3.917,0.2-5.05
				c0.033-1.967-0.15-3.684-0.55-5.15c-0.8-2.833-1.45-5.684-1.95-8.55l1.35-1.2c1.1,7.533,1.8,13.983,2.1,19.35
				c0,1.1-0.067,2.817-0.2,5.15c-0.433,5.366-1.367,10.433-2.8,15.2c-0.4,1.2-0.6,2.684-0.6,4.45c-0.033,0.966-0.033,2.45,0,4.45
				L29.35,84c0.267,2.667,0.383,6.184,0.35,10.55c0,5.667,0.017,9.2,0.05,10.601L30,109.3c0.133,5.767,0.117,10.4-0.05,13.9
				c-0.233,4.934-0.8,9.517-1.7,13.75c-0.433,1.467-0.533,3.184-0.3,5.149c0.1,1.101,0.333,2.75,0.7,4.95l0.1,2.9l-0.45-0.45
				l-0.2-3.3c-0.767-2.2-0.883-4.634-0.35-7.3c0.7-7.567,1.017-18.283,0.95-32.15l0.15-3.55c0.033-1.867-0.05-4.767-0.25-8.7
				c-0.2-3.767-0.283-6.65-0.25-8.65l-0.2-15.6c0.133-3.267,0.55-7.45,1.25-12.55c1-7.034,1.567-11.217,1.7-12.55
				C31.3,43.55,31.45,41.883,31.55,40.15z"/>
			<path style="fill-rule:evenodd;clip-rule:evenodd;fill:#AF6924;" d="M34.9,22.85c0.567,1.9,0.967,3.617,1.2,5.15
				c0,3.934,0.033,6.917,0.1,8.95c-0.034,1.5-0.133,3-0.3,4.5c-0.133,1.466-0.7,5.966-1.7,13.5c-0.733,5.5-1.1,9.983-1.1,13.45
				l0.05,43.15c0,13.667-0.283,23.983-0.85,30.95l-0.05,10.35L30.8,151.7l0.1-7.55c0.7-4.567,0.983-10.4,0.85-17.5
				c-0.167-10.301-0.233-16.167-0.2-17.601l0.05-4.7c0.167-6.267,0.267-10.966,0.3-14.1c0.067-5.467-0.1-10.233-0.5-14.3v-5.3
				c-0.133-3.533,0.184-7.783,0.95-12.75c1-5.633,1.7-9.85,2.1-12.65c0.267-1.733,0.466-3.417,0.6-5.05
				c0.1-2.233,0.15-3.934,0.15-5.1c0.033-2-0.167-3.717-0.6-5.15c-1.033-3.333-1.883-6.983-2.55-10.95l1.35-1
				C34.4,21.167,34.9,22.783,34.9,22.85z"/>
			<path style="fill-rule:evenodd;clip-rule:evenodd;fill:#AF6924;" d="M36.7,15.55l0.1-0.1c0.333,2,0.85,5,1.55,9
				c0.566,3.466,0.883,6.466,0.95,9l0.15,5.25c0.133,7.466-0.15,16.116-0.85,25.95l0.05,5.1c-0.167,29.566-0.283,46.2-0.35,49.9
				l-0.1,13.25c0.066,4.733,0.083,8.283,0.05,10.649L38.1,157.2l-1.15-0.8l0.4-6.95l0.3-29.2c-0.033-3.7,0.083-12.116,0.35-25.25
				c0.167-10.5,0.133-18.917-0.1-25.25l-0.05-4.8c0.033-2.833,0.183-6.45,0.45-10.85c0.4-6.5,0.617-10.117,0.65-10.85
				c0.1-1.434,0.15-2.883,0.15-4.35c0.066-2.433,0.083-4.267,0.05-5.5c0-2.167-0.2-3.966-0.6-5.4
				C37.783,24.367,37.167,20.217,36.7,15.55z"/>
			<path style="fill-rule:evenodd;clip-rule:evenodd;fill:#AF6924;" d="M35.45,16.4l0.65-0.45c1.233,6.6,1.967,10.75,2.2,12.45
				c0.6,4.7,0.667,8.917,0.2,12.65l-0.45,4.65c-0.633,6.033-1,9.866-1.1,11.5c-0.3,4.333-0.317,8.15-0.05,11.45l0.25,52.3
				c-0.1,3-0.117,6.517-0.05,10.55l-0.3,24.8l-0.8-0.6l0.85-22.15c0.2-4.866,0.217-9.899,0.05-15.1L36.8,114
				c-0.466-21.5-0.716-35.033-0.75-40.6l-0.1-4.2c0.033-3.2,0.233-7.15,0.6-11.85c0.434-5.3,0.733-9.284,0.9-11.95l0.25-4.8
				c0.267-3.567,0.133-7.617-0.4-12.15C37.1,26.684,36.483,22.667,35.45,16.4z"/>
			<path style="fill-rule:evenodd;clip-rule:evenodd;fill:#AF6924;" d="M37.075,147.525L37.1,131.5
				c-0.067-4.033-0.05-7.55,0.05-10.55l-0.25-52.3c-0.267-3.3-0.25-7.117,0.05-11.45c0.1-1.634,0.466-5.467,1.1-11.5l0.45-4.65
				c0.467-3.733,0.4-7.95-0.2-12.65c-0.233-1.7-0.966-5.85-2.2-12.45l0.6-0.4c0.466,4.667,1.083,8.817,1.85,12.45
				c0.4,1.434,0.6,3.233,0.6,5.4c0.033,1.233,0.017,3.067-0.05,5.5c0,1.467-0.05,2.917-0.15,4.35c-0.034,0.733-0.25,4.35-0.65,10.85
				c-0.267,4.4-0.417,8.017-0.45,10.85l0.05,4.8C38.133,76.083,38.167,84.5,38,95c-0.267,13.134-0.383,21.55-0.35,25.25
				L37.075,147.525z"/>
			<path style="fill-rule:evenodd;clip-rule:evenodd;fill:#AF6924;" d="M43.6,36.8c-0.267,4.8-0.367,8.4-0.3,10.8
				c-0.466-2.8-0.583-5.25-0.35-7.35L43.6,36.8z"/>
			<path style="fill-rule:evenodd;clip-rule:evenodd;fill:#AF6924;" d="M45.7,107.625c-0.505,7.952-0.521,15.311-0.05,22.075
				c-0.5-4.9-0.617-10.267-0.35-16.101C45.383,111.791,45.517,109.8,45.7,107.625z"/>
			<path style="fill-rule:evenodd;clip-rule:evenodd;fill:#AF6924;" d="M46.4,90.3c0.867-3.966,1.033-8.533,0.5-13.7
				c-0.267-2.267-0.933-6.184-2-11.75c-0.967-5.034-1.566-8.967-1.8-11.8l1.8,7.3c1.2,7.033,1.917,11.4,2.15,13.1
				c0.2,2.2,0.3,4.383,0.3,6.55c0.133,4.566-0.5,13.917-1.9,28.05c-1.167,11.767-1.2,21.283-0.1,28.55l-0.05,3.65
				c0,3.233-0.066,8.017-0.2,14.35L45,161.4l-0.55-0.351V137.65c-0.3-9.2-0.35-17.051-0.15-23.551
				C44.567,105.667,45.267,97.733,46.4,90.3z"/>
			<path style="fill-rule:evenodd;clip-rule:evenodd;fill:#AF6924;" d="M42.65,41.2c0.1-6.434,0.15-11.267,0.15-14.5
				c-0.066-5.6-0.383-10.434-0.95-14.5l0.5-0.3c0.967,6.034,1.5,9.434,1.6,10.2c0.233,2.7,0.167,5.9-0.2,9.6
				C43.55,33.833,43.183,37,42.65,41.2z"/>
			<path style="fill-rule:evenodd;clip-rule:evenodd;fill:#AF6924;" d="M46.35,140.65L46.3,136.1c-0.267-1.866-0.483-4-0.65-6.399
				c0.233,2.434,0.617,5,1.15,7.7l0.1,3.55c0.1,4.033,0,8.717-0.3,14.05l-0.35,7.05l-0.45-0.25l0.1-3
				C46.167,150.733,46.317,144.684,46.35,140.65z"/>
			<path style="fill-rule:evenodd;clip-rule:evenodd;fill:#AF6924;" d="M43.45,50.55L43.3,47.6c0.267,1.466,0.65,3.117,1.15,4.95
				c1.667,6.733,2.783,12.534,3.35,17.4c0.733,6.2,0.75,12.017,0.05,17.45l-0.15,1.5c0.367-4.601,0.15-9.75-0.65-15.45
				c-0.333-3.634-1.05-8-2.15-13.1C44.267,56.85,43.783,53.583,43.45,50.55z"/>
			<path style="fill-rule:evenodd;clip-rule:evenodd;fill:#AF6924;" d="M42.65,41.2c0,4.133,0.1,7.583,0.3,10.35l0.15,1.5l-0.15-0.5
				C42.35,49.25,42.25,45.467,42.65,41.2z"/>
			<path style="fill-rule:evenodd;clip-rule:evenodd;fill:#AF6924;" d="M43.6,36.8c0.433-6.767,0.667-11,0.7-12.7
				c0.1-4.8-0.2-9.067-0.9-12.8l0.2-0.1c1.1,3.767,1.6,7.983,1.5,12.65C45,27.55,44.5,31.867,43.6,36.8z"/>
			<path style="fill-rule:evenodd;clip-rule:evenodd;fill:#AF6924;" d="M43.75,31.7c0.367-3.7,0.433-6.9,0.2-9.6
				c-0.1-0.767-0.633-4.167-1.6-10.2l1.05-0.6c0.7,3.733,1,8,0.9,12.8c-0.033,1.7-0.267,5.933-0.7,12.7l-0.65,3.45
				c-0.233,2.1-0.117,4.55,0.35,7.35l0.15,2.95c0.333,3.034,0.816,6.3,1.45,9.8l-1.8-7.3l-0.15-1.5c-0.2-2.767-0.3-6.216-0.3-10.35
				C43.183,37,43.55,33.833,43.75,31.7z"/>
			<path style="fill-rule:evenodd;clip-rule:evenodd;fill:#AF6924;" d="M47.35,80c0-2.167-0.1-4.35-0.3-6.55
				c0.8,5.7,1.017,10.85,0.65,15.45l-1,8.35l-0.05,0.2c-0.7,6.434-1.15,11.816-1.35,16.149c-0.267,5.834-0.15,11.2,0.35,16.101
				c0.167,2.399,0.383,4.533,0.65,6.399l0.05,4.551c-0.033,4.033-0.184,10.083-0.45,18.149l-0.1,3L45,161.4l0.1-6.801
				c0.133-6.333,0.2-11.116,0.2-14.35l0.05-3.65c-1.1-7.267-1.067-16.783,0.1-28.55C46.85,93.917,47.483,84.566,47.35,80z"/>
			<path style="fill-rule:evenodd;clip-rule:evenodd;fill:#AF6924;" d="M55.25,76.6l-0.1,1.6c-0.133-3.534-0.383-7.083-0.75-10.65
				C54.967,70.883,55.25,73.9,55.25,76.6z"/>
			<path style="fill-rule:evenodd;clip-rule:evenodd;fill:#AF6924;" d="M49.75,26.9c1.4-7.833,1.15-14.033-0.75-18.6l0.95-0.4
				l0.2,0.65c0.067,0.1,0.317,0.634,0.75,1.6l1.3,4.7c0.433,2.833,0.333,6.367-0.3,10.6c-0.367,2.3-0.883,5.616-1.55,9.95l-0.4,1.4
				c-0.733,2.8-0.934,5.267-0.6,7.4c0.367,2.7,1.117,6.35,2.25,10.95l0.65,10.4c-0.433-2.6-1.067-5.966-1.9-10.1
				c-1.1-5.567-1.767-8.983-2-10.25C47.717,41.867,48.183,35.767,49.75,26.9z"/>
			<path style="fill-rule:evenodd;clip-rule:evenodd;fill:#AF6924;" d="M52.3,106.05l0.55-2.75l-0.1,2.8
				c-0.333,4.4-0.483,8.233-0.45,11.5v0.2c-0.133,1.601-0.066,3.384,0.2,5.351c0.267,4.133,0.883,8.149,1.85,12.05l0.1,1.5
				c0,1.6-0.05,3.25-0.15,4.95c-0.133,3.1-0.367,6.983-0.7,11.649c-0.2,2.601-0.5,6.533-0.9,11.8l-0.75-0.35
				c0.367-4.7,0.633-8.217,0.8-10.55c0.333-4.2,0.55-7.733,0.65-10.601l0.1-3.949c0.1-2.5-0.033-5.384-0.4-8.65
				c-0.2-1.733-0.633-4.667-1.3-8.8C51.233,116.233,51.4,110.85,52.3,106.05z"/>
			<path style="fill-rule:evenodd;clip-rule:evenodd;fill:#AF6924;" d="M54.3,90.45l-1.45,12.85c0.3-11.899,0.1-24.483-0.6-37.75
				C53.817,75.184,54.5,83.483,54.3,90.45z"/>
			<path style="fill-rule:evenodd;clip-rule:evenodd;fill:#AF6924;" d="M52.75,106.1l0.4-4.5c0.6-3.5,0.983-7.216,1.15-11.149
				c0.434-4.3,0.717-8.384,0.85-12.25c0.467,10.6-0.167,21.184-1.9,31.75c-0.567,3.399-0.4,7.816,0.5,13.25
				c1.133,6.967,1.733,11.333,1.8,13.1v4.3c-0.066,3.4-0.283,7.567-0.65,12.5c-0.2,2.768-0.5,6.934-0.9,12.5l-0.75-0.3
				c0.433-5.433,0.733-9.5,0.9-12.2c0.3-4.666,0.467-8.732,0.5-12.199c0-1.667-0.05-3.351-0.15-5.051l-0.15-0.649
				c-0.1-1.533-0.383-3.566-0.85-6.101c-0.533-3.033-0.867-5.017-1-5.949c-0.133-1.634-0.2-3.483-0.2-5.551
				C52.5,113.733,52.65,109.9,52.75,106.1z"/>
			<path style="fill-rule:evenodd;clip-rule:evenodd;fill:#AF6924;" d="M50.9,10.15L50.35,7.7l0.25-0.1
				c0.6,1.833,1.683,4.533,3.25,8.1c1.167,3.167,1.467,5.966,0.9,8.4c-0.333,1.333-0.967,3.05-1.9,5.15
				c-1.167,2.633-1.883,4.3-2.15,5c1.367-4,2.216-6.733,2.55-8.2c0.3-1.8,0.333-3.716,0.1-5.75c-0.2-1.466-0.583-3.283-1.15-5.45
				C51.933,13.15,51.5,11.583,50.9,10.15z"/>
			<path style="fill-rule:evenodd;clip-rule:evenodd;fill:#AF6924;" d="M51.6,55.15l-0.8-9.8c1.6,7.667,2.8,15.066,3.6,22.2
				C54,65.25,53.067,61.117,51.6,55.15z"/>
			<path style="fill-rule:evenodd;clip-rule:evenodd;fill:#AF6924;" d="M49.85,40.75c-0.233-1.267-0.2-2.583,0.1-3.95l0.35-1.3
				c-0.133,1.767-0.133,3.2,0,4.3l0.5,5.55L49.85,40.75z"/>
			<path style="fill-rule:evenodd;clip-rule:evenodd;fill:#AF6924;" d="M53.25,26.05c-0.333,1.467-1.183,4.2-2.55,8.2l-0.35,1.15
				c0.667-4.333,1.183-7.65,1.55-9.95c0.633-4.233,0.733-7.767,0.3-10.6c0.566,2.167,0.95,3.983,1.15,5.45
				C53.583,22.333,53.55,24.25,53.25,26.05z"/>
			<path style="fill-rule:evenodd;clip-rule:evenodd;fill:#AF6924;" d="M54.5,135.85c0.1,1.7,0.15,3.384,0.15,5.051
				c-0.033,3.467-0.2,7.533-0.5,12.199c-0.167,2.7-0.467,6.768-0.9,12.2l-0.55-0.2c0.4-5.267,0.7-9.199,0.9-11.8
				c0.333-4.666,0.566-8.55,0.7-11.649c0.1-1.7,0.15-3.351,0.15-4.95l-0.1-1.5L54.5,135.85z"/>
			<path style="fill-rule:evenodd;clip-rule:evenodd;fill:#AF6924;" d="M54.3,90.45c0.2-6.967-0.483-15.267-2.05-24.9l-0.65-10.4
				c1.467,5.967,2.4,10.1,2.8,12.4c0.367,3.567,0.617,7.117,0.75,10.65C55.017,82.066,54.733,86.15,54.3,90.45z"/>
			<path style="fill-rule:evenodd;clip-rule:evenodd;fill:#AF6924;" d="M50.35,7.7l0.55,2.45c-0.433-0.966-0.683-1.5-0.75-1.6
				l-0.2-0.65L50.35,7.7z"/>
			<path style="fill-rule:evenodd;clip-rule:evenodd;fill:#AF6924;" d="M57.95,5.4V4.7l1.1-0.4c0.1,1.067,0.317,2.333,0.65,3.8
				c0.466,1.566,1.25,3.983,2.35,7.25c0.767,2.9,0.95,5.483,0.55,7.75c-0.867,6.566-1.1,14.55-0.7,23.95
				c0.2,5.3,0.55,13.233,1.05,23.8L62.7,83.2c-0.1,2.167-0.3,4.383-0.6,6.649c-1.033,7.134-1.4,15.45-1.1,24.95
				c0.167,5.467,0.533,13.7,1.1,24.7l-0.05,5.25c-0.4,10.134-0.65,17.934-0.75,23.4L60.8,168c0.067-5.733,0.133-10.05,0.2-12.95
				c0.067-5.033,0.233-9.333,0.5-12.899l0.05-5.051c0.034-2.533-0.283-6.267-0.95-11.199c-0.633-4.967-0.95-8.65-0.95-11.051
				c0.733-16.267,1.2-28.466,1.4-36.6c0.367-14.267-0.267-26.6-1.9-37c-0.4-1.833-0.316-4.033,0.25-6.6
				c0.833-2.966,1.4-5.183,1.7-6.65c0.533-2.833,0.167-6.6-1.1-11.3C58.567,11.467,57.883,7.7,57.95,5.4z"/>
			<path style="fill-rule:evenodd;clip-rule:evenodd;fill:#AF6924;" d="M61.65,5.45L61.6,3.5l1.65-0.45L63.2,3.4
				c-0.233,1.633-0.25,2.917-0.05,3.85c0.3,2.333,0.867,5.816,1.7,10.45c0.667,4.1,0.9,7.533,0.7,10.3
				c-0.167,0.5-0.483,1.316-0.95,2.45c-0.367,1.033-0.55,1.85-0.55,2.45c0.567,10.434,0.617,24.5,0.15,42.2
				c-0.534,20.9-0.75,34.966-0.65,42.2c0,2.134,0.167,5.25,0.5,9.351c0.333,4.1,0.5,7.217,0.5,9.35v33.1l-1.05-0.3
				c0.067-8.433,0.067-16.866,0-25.3l-0.1-3.9c-0.767-15.833-1-34.633-0.7-56.399c0.267-3.8,0.35-7.917,0.25-12.35
				c0.5-17.967,0.867-31.434,1.1-40.4c0-7.8-0.65-15.017-1.95-21.65C61.867,7.767,61.717,6.65,61.65,5.45z"/>
			<path style="fill-rule:evenodd;clip-rule:evenodd;fill:#AF6924;" d="M66.7,2.2l1.15-0.3l-0.3,2.25c-0.1,1.467-0.1,2.917,0,4.35
				c0.067,1.467,0.167,2.917,0.3,4.35c0.533,13.5,0.433,34.267-0.3,62.3c-0.7,27.333-0.733,48.167-0.1,62.5l0.75,15.25
				c0.1,2,0.233,4.883,0.4,8.649c0.133,3.267,0.183,6.101,0.15,8.5l-1.25-0.3c0-0.934-0.15-4.2-0.45-9.8
				c-0.2-3.967-0.216-7.217-0.05-9.75L66.8,140.1c-0.5-15.3-0.533-34.982-0.1-59.05c0.533-32.4,0.8-52.05,0.8-58.95
				c0-4.567-0.25-7.934-0.75-10.1c-0.133-1.267-0.233-2.583-0.3-3.95C66.35,5.95,66.433,4,66.7,2.2z"/>
			<path style="fill-rule:evenodd;clip-rule:evenodd;fill:#AF6924;" d="M70.85,46.15c-0.067-15.5-0.033-26.117,0.1-31.85v-0.8
				l0.05,1c0.333,14.867,0.283,33.883-0.15,57.05c-0.195,11.029-0.403,20.521-0.625,28.476c-0.017-8.45,0.058-15.775,0.225-21.976
				C70.817,70.283,70.95,59.65,70.85,46.15z"/>
			<path style="fill-rule:evenodd;clip-rule:evenodd;fill:#AF6924;" d="M71.95,1.15l0.2-0.05v9.7c0.133,1.767,0.2,3.65,0.2,5.65
				l-0.2,16.6c-0.3-7.733-0.367-13.917-0.2-18.55V1.15z"/>
			<polygon style="fill-rule:evenodd;clip-rule:evenodd;fill:#AF6924;" points="70.95,1.3 71.15,1.3 71.15,6 70.95,8.1 			"/>
			<path style="fill-rule:evenodd;clip-rule:evenodd;fill:#AF6924;" d="M71,142.75l-0.1-5.5c-0.133-16.467-0.2-28.8-0.2-37
				c0-14.5,0.333-26.883,1-37.15c-0.5,31.3-0.75,56.383-0.75,75.25l0.05,3.7C71,142.284,71,142.518,71,142.75z M71.15,145.75
				l0.25,4.45c0.133,2.3,0.35,5.717,0.65,10.25c0.267,4.066,0.434,7.483,0.5,10.25H72.4v-0.3c-0.633-5.834-1.066-12.817-1.3-20.95
				l-0.05-5.25C71.074,144.723,71.107,145.239,71.15,145.75z"/>
			<path style="fill-rule:evenodd;clip-rule:evenodd;fill:#AF6924;" d="M72.15,33.05c0.2,6.233,0.317,10.7,0.35,13.4
				c0,4.966-0.2,9.45-0.6,13.45l-0.2,3.2L72.15,33.05z"/>
			<path style="fill-rule:evenodd;clip-rule:evenodd;fill:#AF6924;" d="M71.15,6V1.3l0.8-0.15V14.5
				c-0.167,4.633-0.1,10.816,0.2,18.55L71.7,63.1c-0.667,10.267-1,22.65-1,37.15c0,8.2,0.066,20.533,0.2,37l0.2,12.2
				c0.233,8.133,0.667,15.116,1.3,20.95v0.3l-0.75-0.15l-1.75-34.7l0.05-7.149c0.033-5.967,0.333-25.017,0.9-57.15
				C71.283,48.383,71.333,29.367,71,14.5l-0.05-6.4L71.15,6z"/>
			<path style="fill-rule:evenodd;clip-rule:evenodd;fill:#AF6924;" d="M77.8,0.4l0.05,17.8c0.4,16.733,0.4,36.616,0,59.65
				c-0.233,13.233-0.684,33.1-1.35,59.6l-0.15,5c0,2.2,0.033,3.866,0.1,5c0.1,3.033,0.15,4.566,0.15,4.6
				c0.1,0.967,0.183,3.033,0.25,6.2l1.05,13.1l-1.15-0.1v-0.2c-0.1-3.2-0.45-9.35-1.05-18.45L75.3,141.9
				c-0.066-2.667-0.083-4.7-0.05-6.101c0.667-24.366,1.133-44.1,1.4-59.2c0.333-21.633,0.383-41.383,0.15-59.25L76.75,0.5L77.8,0.4z
				"/>
			<path style="fill-rule:evenodd;clip-rule:evenodd;fill:#AF6924;" d="M80.7,0.15l0.9-0.05v21.6c0.433,14.733,0.433,34.167,0,58.3
				c-0.533,30.134-0.783,49.517-0.75,58.15c0,1.533,0.05,3.05,0.15,4.55l0.3,9.5c0.167,6.934,0.2,13.417,0.1,19.45l-1.1-0.101
				l0.1-5.3c0.133-3.333-0.017-7.967-0.45-13.9L79.6,147.7c-0.2-1.967-0.317-3.483-0.35-4.55c-0.1-1.5-0.15-3-0.15-4.5
				c0.733-17.567,1.217-37.184,1.45-58.851c0.133-13.066,0.2-32.7,0.2-58.9L80.7,0.15z"/>
			<path style="fill-rule:evenodd;clip-rule:evenodd;fill:#AF6924;" d="M83.15,0.05h0.95v24c0.3,11.467,0.183,30.534-0.35,57.2
				c-0.467,24.367-0.383,43.367,0.25,57l-0.05,15c-0.1,6.066-0.25,12.217-0.45,18.45h-0.8V150.6c0.1-3.333,0.15-6.666,0.15-10
				v-4.949c-0.633-6.934-0.684-15.733-0.15-26.4c0.667-14.467,1-23.233,1-26.3c-0.167-6.367-0.25-15.833-0.25-28.4
				c0-12.533-0.083-21.966-0.25-28.3L83.15,0.05z"/>
			<path style="fill-rule:evenodd;clip-rule:evenodd;fill:#AF6924;" d="M91.45,0.2l1.25,0.1v45.65
				c-0.101,3.433-0.184,11.517-0.25,24.25l-0.5,16.95c0,3.8,0.133,9.433,0.399,16.899l0.2,5.601c0,3.699-0.05,9.383-0.149,17.05
				c-0.034,6.733,0.133,12.517,0.5,17.35l0.149,4.9c0.2,4.333,0.384,7.616,0.55,9.85l0.351,3.4c0.333,2.8,0.85,5.8,1.55,9l-1.95,0.2
				c-0.767-4.467-1.267-7.601-1.5-9.4c-0.2-1.366-0.316-2.434-0.35-3.2v-14.1c-0.033-2-0.233-7.533-0.601-16.601
				c-0.267-6.732-0.316-12.283-0.149-16.649l0.05-4.8c-0.1-2.4-0.15-4.184-0.15-5.351c-0.066-2.967-0.05-6.517,0.051-10.649
				l0.05-3.851c0.166-8.533,0.283-14.917,0.35-19.15l0.101-5c0.133-3.1,0.149-6.4,0.05-9.9V0.2z"/>
			<path style="fill-rule:evenodd;clip-rule:evenodd;fill:#AF6924;" d="M94.9,0.45l0.35,0.05l0.2,5.4
				c0.566,10.367,0.967,20.684,1.2,30.95l0.1,4.4c0.233,13.1,0.066,23.983-0.5,32.65L95.5,87.75c-0.366,3.066-0.3,6.583,0.2,10.55
				l1.85,8.55c1.5,6.268,2.25,13.284,2.25,21.051c0,5.366-0.399,12.483-1.2,21.35L97.9,158.7l0.05,3.399
				c0.166,3.233,0.45,6.134,0.85,8.7l-1.7,0.2c-0.5-3.033-0.767-5.816-0.8-8.35l-0.05-3.25l1.2-11.5c0.833-7.667,1.2-14.4,1.1-20.2
				c-0.1-7.267-0.899-13.867-2.399-19.8L94.6,99.15c-0.399-4.167-0.399-7.967,0-11.4l0.95-12.85c0.601-4.533,0.816-9.783,0.65-15.75
				c-0.334-7.033-0.584-12.35-0.75-15.95l-0.101-4.65C95.05,25.85,94.9,13.15,94.9,0.45z"/>
			<path style="fill-rule:evenodd;clip-rule:evenodd;fill:#AF6924;" d="M98.05,0.85l0.601,0.1c0.033,4.1,0.166,8.7,0.399,13.8
				l0.4,22.05c0.5,14.967,0.416,28.85-0.25,41.65l-0.4,4.75c-1.2,4.467-1.566,9.017-1.1,13.649c0.1,1.467,0.3,2.917,0.6,4.351
				c0.667,1.833,1.267,3.6,1.8,5.3c2.7,6.267,3.9,13.816,3.601,22.65c-0.167,4.933-1.101,12.566-2.8,22.899l-1.2,7.101l0.2,4.5
				c0.233,2.699,0.517,4.967,0.85,6.8l-1.25,0.2c-0.5-2.134-0.85-4.301-1.05-6.5c-0.134-1.733-0.2-3.033-0.2-3.9v-4.2
				c0.066-1.833,0.283-3.3,0.65-4.399c2.233-6.733,3.199-14.25,2.899-22.551c-0.233-6.466-1.316-13.933-3.25-22.399l-1.1-4.8
				c-0.233-1.434-0.434-2.884-0.601-4.351c-0.466-4.533-0.416-8.899,0.15-13.1l0.85-8.75c0.434-10.2,0.584-23.384,0.45-39.55
				L98.05,0.85z"/>
			<path style="fill-rule:evenodd;clip-rule:evenodd;fill:#AF6924;" d="M100.15,1.2l1.649,0.3c-0.1,6.566-0.1,13.133,0,19.7
				l0.05,11.2c-0.066,2,0.084,10.067,0.45,24.2c0.233,9.733-0.2,17.65-1.3,23.75l-0.25,4.6c-0.134,0.733-0.267,1.866-0.4,3.399
				c-0.1,1.167-0.149,2.284-0.149,3.351c0.133,3.2,0.217,5.033,0.25,5.5c0.166,2.1,0.467,3.899,0.899,5.399
				c0.667,1.534,1.284,3.2,1.851,5c0.333,1,0.767,2.534,1.3,4.601c1.4,6.566,1.8,14.333,1.2,23.3c-0.367,5.2-1.167,13.033-2.4,23.5
				c0,1-0.033,2.483-0.1,4.45c-0.033,1.7,0.116,3.167,0.45,4.399l0.149,2l-2.05,0.4l-0.45-2.3c-0.833-2.733-0.983-5.717-0.45-8.95
				c1.634-10.133,2.667-17.717,3.101-22.75c0.666-8.434,0.483-15.983-0.55-22.65c-0.4-1.767-0.817-3.366-1.25-4.8
				c-0.434-1.5-0.983-3.083-1.65-4.75L99,100c-0.033-1.434-0.033-2.9,0-4.4c0-0.267,0.25-4.649,0.75-13.149l0.3-5.15
				c0.533-5.7,0.834-12.316,0.9-19.85c-0.066-8.7-0.101-15.284-0.101-19.75l-0.25-16.6C100.3,14.467,100.15,7.833,100.15,1.2z"/>
			<path style="fill-rule:evenodd;clip-rule:evenodd;fill:#AF6924;" d="M103,1.7l2.15,0.5l-0.351,33c0,2.267,0.2,9.583,0.601,21.95
				c0.267,8.767,0.199,15.983-0.2,21.65l-0.25,4.8c0.1,1.533-0.367,4.333-1.4,8.4c-0.899,3.434-0.983,6.15-0.25,8.15
				c0.533,1.5,1.033,3.083,1.5,4.75c0.5,1.5,0.95,3.05,1.351,4.649c1.767,8.134,2.466,17.517,2.1,28.15
				c-0.2,4.967-1,14.434-2.4,28.399l-0.05,3.301l-1.899,0.449l-0.051-1.699c1.301-12.667,2.134-22.184,2.5-28.551
				c0.667-11.066,0.233-20.633-1.3-28.699l-2.149-10c-0.7-4.067-1.15-7.617-1.351-10.65c0.066-1.733,0.217-3.483,0.45-5.25l0.5-5.15
				c1.167-6.567,1.717-14.483,1.65-23.75c-0.334-10.733-0.551-18.8-0.65-24.2l-0.1-5.85C102.967,18.983,102.833,10.867,103,1.7z"/>
			<path style="fill-rule:evenodd;clip-rule:evenodd;fill:#AF6924;" d="M109.75,3.4l1.15,0.3l-0.4,26.45
				c0.467,13.567,0.116,29.167-1.05,46.8L109.1,82.2c-0.267,5-0.216,10.434,0.15,16.3l0.25,3.25c1.167,9.533,1.634,20.384,1.4,32.55
				c-0.134,7.167-0.667,18.067-1.601,32.7v1.5l-0.649,0.2v-1.25c-0.067-3.2,0.25-13.851,0.949-31.95
				c0.5-13.033,0.117-23.633-1.149-31.8l-0.3-3.601c-0.267-3.833-0.4-7.416-0.4-10.75c-0.2-1.366-0.184-3.1,0.05-5.2
				c0.367-3.066,0.55-4.8,0.55-5.2l0.351-4.9c0.366-6.133,0.566-13.466,0.6-22c0-9.733,0-17.033,0-21.9L109.75,3.4z"/>
			<path style="fill-rule:evenodd;clip-rule:evenodd;fill:#AF6924;" d="M114.15,7l0.05-2.2l0.95,0.35
				c-0.067,17.367-0.184,30.467-0.351,39.3l-0.1,3.35c-0.101,5.167-0.117,10.95-0.05,17.35l-0.25,10.4
				c-0.334,7.134-0.551,13.25-0.65,18.351L113.7,97.6c-0.467,6.534-0.566,15.7-0.3,27.5c-0.067,19.7-0.267,33.801-0.601,42.301
				l-0.95,0.35v-0.35l0.25-3.4c0.801-8.7,1.051-19.5,0.75-32.4c-0.466-14.366-0.716-25.116-0.75-32.25L112,96.1
				c-0.066-6.199,0.1-11.666,0.5-16.399l0.25-4.5c0.2-2.967,0.4-7.483,0.6-13.55l0.15-5.45c0.066-5.067,0.116-8.7,0.15-10.9
				l0.05-5.45c-0.033-2.934,0.083-8.434,0.35-16.5C114.283,16.417,114.316,10.967,114.15,7z"/>
			<path style="fill-rule:evenodd;clip-rule:evenodd;fill:#AF6924;" d="M116.5,5.65l1,0.4c-0.033,4.767-0.184,11.967-0.45,21.6
				c-0.166,8.633-0.133,15.833,0.101,21.6l0.05,4.7c0,8.667-0.117,15.183-0.351,19.55l-0.55,7.9
				c-0.267,10.167-0.483,23.683-0.649,40.55c-0.233,20.233-0.417,33.733-0.551,40.5l-0.35,4.3l-1.8,0.6l0.3-2.55
				c0.467-5.767,0.667-12.399,0.6-19.899c0-2.101-0.149-8.7-0.449-19.801c0.066-18.833,0.433-33.816,1.1-44.95l0.65-9.25
				c0.466-5.466,0.767-12.283,0.899-20.45l0.05-4.05c-0.166-5.367-0.166-12.167,0-20.4C116.366,13.566,116.5,6.783,116.5,5.65z"/>
			<path style="fill-rule:evenodd;clip-rule:evenodd;fill:#AF6924;" d="M113.4,125.1c0.3,11.101,0.449,17.7,0.449,19.801
				c0.067,7.5-0.133,14.133-0.6,19.899l-0.3,2.55l-0.15,0.051C113.134,158.9,113.333,144.8,113.4,125.1z"/>
			<path style="fill-rule:evenodd;clip-rule:evenodd;fill:#AF6924;" d="M121.95,50.9c-0.134-5.6-0.101-12.733,0.1-21.4
				c0.267-11.967,0.4-19.066,0.4-21.3l1.6,0.75c-0.033,4.3-0.149,11.733-0.35,22.3c-0.167,9.4-0.25,16.783-0.25,22.15l-0.15,22.85
				c0.101,1.8,0.117,3.833,0.05,6.1c-0.466,8.4-1.366,20.867-2.699,37.4c-0.9,14.566-0.95,27-0.15,37.3l0.7,7.101l-2,0.899
				c0.333-2.1,0.434-3.95,0.3-5.55c-1.467-11.1-1.816-23.833-1.05-38.2c1.366-16.733,2.366-29.366,3-37.9c0.133-2,0.2-3.5,0.2-4.5
				c0.066-1.533,0.066-3.033,0-4.5L121.95,50.9z"/>
			<path style="fill-rule:evenodd;clip-rule:evenodd;fill:#AF6924;" d="M124.45,51.5c0-5.167,0.083-12.184,0.25-21.05
				c0.166-10.1,0.267-17.1,0.3-21l0.65,0.35c-0.134,14.867-0.2,22.534-0.2,23c-0.033,8.733,0.1,16.417,0.399,23.05l0.101,4.75
				c0.066,5.333,0.083,9.316,0.05,11.95l-0.05,4c0.033,1.767,0,3.75-0.101,5.95c-0.066,1.367-0.233,3.333-0.5,5.9
				c-4.733,25.5-5.533,49.366-2.399,71.6l0.35,3.15l-1.8,0.85l-0.05-2.05c-0.4-21.533-0.584-33.8-0.55-36.8
				c0.199-14.167,1.333-26.434,3.399-36.801c0.167-2.166,0.25-4.149,0.25-5.95c0.033-1.667-0.033-3.667-0.2-6L124.45,51.5z"/>
			<path style="fill-rule:evenodd;clip-rule:evenodd;fill:#AF6924;" d="M123.8,150.65c-0.666-5-1-10.167-1-15.5
				C122.934,138.517,123.267,143.684,123.8,150.65z"/>
			<path style="fill-rule:evenodd;clip-rule:evenodd;fill:#AF6924;" d="M124.9,157.05c0.233,1.101,0.517,2.717,0.85,4.851
				l-0.85,0.449L123.8,150.65C124.134,153.05,124.5,155.184,124.9,157.05z"/>
			<path style="fill-rule:evenodd;clip-rule:evenodd;fill:#AF6924;" d="M127.1,56.55c-0.033-4.733-0.166-12.45-0.399-23.15
				c-0.233-10.066-0.367-17.833-0.4-23.3l1,0.55c0.033,5.034,0.15,13.15,0.351,24.35c0.199,10.566,0.3,18.7,0.3,24.4l-0.3,12.9
				c0.133,3.634,0.066,7.567-0.2,11.8l-0.3,3.9c-0.5,5.167-1.417,12.95-2.75,23.35c-1.067,9.334-1.601,17.268-1.601,23.801
				c-0.733-18.167,0.601-33.817,4-46.95l0.15-3.6c-0.033-4.867-0.033-8.55,0-11.05L127.1,56.55z"/>
			<path style="fill-rule:evenodd;clip-rule:evenodd;fill:#AF6924;" d="M134.1,21.45c0.167,2.366,0.367,4.716,0.601,7.05
				c0.899,5.7,1.467,9.833,1.7,12.4C135.2,35.4,134.434,28.917,134.1,21.45z"/>
			<path style="fill-rule:evenodd;clip-rule:evenodd;fill:#AF6924;" d="M133.75,80.85c-0.1-2.667-0.083-4.983,0.05-6.95l1.45-13.2
				c0.134-0.7,0.65-2.85,1.55-6.45l-0.85,7.95c-0.767,5.9-1.167,8.966-1.2,9.2l-0.3,3.05c0.3,3.833,0.316,7.716,0.05,11.65
				c-0.066,1.3-0.167,2.567-0.3,3.8l-0.15,0.85c0.066-1.033,0.066-2.083,0-3.15C133.917,84.6,133.816,82.35,133.75,80.85z"/>
			<path style="fill-rule:evenodd;clip-rule:evenodd;fill:#AF6924;" d="M135.1,92.7l0.7-9.85l0.05,2.85c0,1.399-0.05,2.8-0.149,4.2
				c-0.101,1.6-0.267,3.05-0.5,4.35l-1.101,6.35C134.3,98.333,134.634,95.7,135.1,92.7z"/>
			<path style="fill-rule:evenodd;clip-rule:evenodd;fill:#AF6924;" d="M134.05,92.05l-1.649,9.7c-3.134,18.9-3.134,36.45,0,52.65
				c-3.9-17.667-3.9-35.817,0-54.45l1.649-9.2V92.05z"/>
			<path style="fill-rule:evenodd;clip-rule:evenodd;fill:#AF6924;" d="M137.65,55.25c0.333-1.633,0.5-2.867,0.5-3.7
				c-0.134-4.833-0.5-10.816-1.101-17.95c-0.767-7.9-1.3-13.833-1.6-17.8l0.25,0.2c0.399,4.566,1.066,11.434,2,20.6
				c0.666,8.033,0.783,14.95,0.35,20.75l-2.25,25.5l0.15-8.95c0.267-4.5,0.5-7.816,0.7-9.95l0.5-4.95
				C137.184,58.167,137.35,56.917,137.65,55.25z"/>
			<path style="fill-rule:evenodd;clip-rule:evenodd;fill:#AF6924;" d="M133.5,109.1c-0.233,7.101-0.134,14.934,0.3,23.5
				c0.3,6,0.851,13.784,1.65,23.351l-0.65,0.45c-0.666-6.134-1.517-11.801-2.55-17c-0.866-4.733-1.134-10.033-0.8-15.9
				c0.133-2.667,0.649-7.833,1.55-15.5l1.1-7.4L133.5,109.1z"/>
			<path style="fill-rule:evenodd;clip-rule:evenodd;fill:#AF6924;" d="M137.2,44.2c0.666,2.733,0.533,6.083-0.4,10.05
				c0.233-4.066,0.101-8.517-0.399-13.35L137.2,44.2z"/>
			<path style="fill-rule:evenodd;clip-rule:evenodd;fill:#AF6924;" d="M134.1,21.45L133.9,14.7l1.55,1.1
				c0.3,3.967,0.833,9.9,1.6,17.8c0.601,7.133,0.967,13.117,1.101,17.95c0,0.833-0.167,2.067-0.5,3.7
				c-0.301,1.667-0.467,2.917-0.5,3.75l-0.5,4.95c-0.2,2.133-0.434,5.45-0.7,9.95L135.1,92.7c-0.466,3-0.8,5.633-1,7.899L133,108
				c-0.9,7.667-1.417,12.833-1.55,15.5c-0.334,5.867-0.066,11.167,0.8,15.9c1.033,5.199,1.884,10.866,2.55,17l-1.649,1.149
				l-0.75-3.149c-3.134-16.2-3.134-33.75,0-52.65l1.649-9.7v-1.3l0.15-0.85c0.133-1.233,0.233-2.5,0.3-3.8
				c0.267-3.934,0.25-7.817-0.05-11.65l0.3-3.05c0.033-0.233,0.434-3.3,1.2-9.2l0.85-7.95c0.934-3.967,1.066-7.316,0.4-10.05
				l-0.8-3.3c-0.233-2.566-0.801-6.7-1.7-12.4C134.467,26.167,134.267,23.816,134.1,21.45z"/>
			<path style="fill-rule:evenodd;clip-rule:evenodd;fill:#AF6924;" d="M141.1,55.95c0.334-3.6,0.551-6.284,0.65-8.05
				c0.134-3,0.083-5.7-0.15-8.1c-0.866-5.767-1.416-12.633-1.649-20.6l0.85,0.7c0.066,1.567,0.167,3.117,0.3,4.65
				c0.167,3.6,0.584,9,1.25,16.2c0.467,6.434,0.434,11.867-0.1,16.3c-0.066,1.6-0.167,3.167-0.3,4.7L140.7,78.9
				c0.166,3.7,0.217,7.417,0.149,11.15l-0.3,13.45c0,0.367-0.483,5.95-1.45,16.75c-0.566,6.634-0.55,12.2,0.051,16.7
				c0.466,4.6,0.883,9.684,1.25,15.25l-1.351,1.05c-0.5-10.133-0.8-17.917-0.899-23.35c-0.134-8.634,0.017-16.45,0.449-23.45
				l0.5-13.8c0.101-4.101,0.15-8.184,0.15-12.25l0.15-3.35c0.066-0.966,0.5-6.466,1.3-16.5L141.1,55.95z"/>
			<path style="fill-rule:evenodd;clip-rule:evenodd;fill:#AF6924;" d="M146.5,56.05c0-5.233-0.15-15.683-0.45-31.35l1.45,1.4
				l0.15,80.05c-0.267,5.366-0.434,12.267-0.5,20.699c-0.2,6.034-0.267,12.467-0.2,19.301l-1.25,1.25
				c-0.4-15.634-0.15-29.267,0.75-40.9v-8.1c-0.033-3.934-0.134-7.884-0.3-11.851L146.5,56.05z"/>
			<path style="fill-rule:evenodd;clip-rule:evenodd;fill:#AF6924;" d="M147.5,26.1l1.35,1.45
				c-0.267,12.467-0.399,21.767-0.399,27.9l0.1,5.2c0.334,10.4,0.517,18.2,0.55,23.4l0.051,8.9c0.233,1.733,0.366,3.3,0.399,4.7
				c0.066,1.566,0.066,3.149,0,4.75l-0.149,4.5c-0.733,5.666-1.117,11.916-1.15,18.75c-0.066,5.066,0.083,11.316,0.45,18.75
				l-1.351,1.399c-0.166-7.366-0.233-13.683-0.199-18.95c0.233-7.166,0.55-13.816,0.949-19.949l-0.1-4.7
				c-0.066-1.733-0.184-3.3-0.35-4.7L147.5,26.1z"/>
			<path style="fill-rule:evenodd;clip-rule:evenodd;fill:#AF6924;" d="M147.575,94.525l0.075,2.975c0.166,1.4,0.283,2.967,0.35,4.7
				l0.1,4.7c-0.399,6.133-0.716,12.783-0.949,19.949c0.066-8.433,0.233-15.333,0.5-20.699L147.575,94.525z"/>
			<path style="fill-rule:evenodd;clip-rule:evenodd;fill:#AF6924;" d="M150.6,56.05L150.45,51c0-5.267,0.217-12.233,0.649-20.9
				l0.7,0.8c-0.7,10.467-0.967,18.5-0.8,24.1l0.4,4.9c0.1,2.034,0.366,5.95,0.8,11.75c0.366,4.967,0.583,8.917,0.649,11.85
				c0.067,1.3,0.067,2.6,0,3.9l0.101,19.25c0,0.967-0.066,2.449-0.2,4.449c-0.667,6.967-0.684,16.5-0.05,28.601l-1.4,1.7
				c-0.133-4.667-0.133-10.384,0-17.15c0.2-7.6,0.316-13.267,0.351-17L151.8,82.5c-0.066-3.5-0.233-7.9-0.5-13.2
				C150.833,60.6,150.6,56.184,150.6,56.05z"/>
			<path style="fill-rule:evenodd;clip-rule:evenodd;fill:#AF6924;" d="M153.7,50.65c-0.334-1.066-0.483-2.233-0.45-3.5
				c0.066-1.466,0.1-2.617,0.1-3.45c0.567-3.5,1-6.567,1.301-9.2l0.699,0.95c-0.6,6.1-0.866,11.116-0.8,15.05l0.25,4.75
				c0.4,4.434,1.233,10.733,2.5,18.9c0.2,1.567,0.267,3.45,0.2,5.65c-0.134,3.733-0.2,5.684-0.2,5.85l0.2,5.45
				c0.167,1.667,0.267,3.301,0.3,4.9l-0.2,18c-0.3,9.667-0.449,16.233-0.449,19.7l-1.4,2.05c-0.4-9.066-0.283-17,0.35-23.8
				l0.051-24.7c0.3-4.367,0.149-9.6-0.45-15.7c-0.767-6.933-1.316-12.15-1.65-15.65C153.85,53.566,153.733,51.816,153.7,50.65z"/>
			<path style="fill-rule:evenodd;clip-rule:evenodd;fill:#AF6924;" d="M159.1,48.65c-0.033-1.133-0.017-2.816,0.051-5.05l0.1-2.3
				l1.55,2.6c-0.366,6.667,0.25,13.9,1.851,21.7c0.366,2.867,0.566,5.283,0.6,7.25L163,75.6l0.6,20.45l-0.1,10.05
				c-0.1,3.667-0.116,9.101-0.05,16.301v0.25l-0.75,1.6L162,79.2c-0.167-3.067-0.7-8.2-1.6-15.4
				C159.634,57.3,159.2,52.25,159.1,48.65z"/>
			<path style="fill-rule:evenodd;clip-rule:evenodd;fill:#AF6924;" d="M161.1,55.05c-0.433-4.033-0.449-7.6-0.05-10.7l1.3,2.55
				v1.95c0,1.566,0.051,3.15,0.15,4.75c0.066,0.966,0.167,2.5,0.3,4.6c0.134,1.933,0.367,3.566,0.7,4.9c0.366,2.2,0.65,3.8,0.85,4.8
				v5.45c0.134,4.9,0.367,12.483,0.7,22.75l0.101,22.801l-1.301,2.899c-0.166-5.733-0.133-10.6,0.101-14.6l-0.7-34.35
				c0.2-1.967,0.184-3.5-0.05-4.6l-0.55-2.65C161.884,60.934,161.366,57.417,161.1,55.05z"/>
			<path style="fill-rule:evenodd;clip-rule:evenodd;fill:#AF6924;" d="M163.2,68.25c0.233,1.1,0.25,2.633,0.05,4.6
				c-0.033-1.967-0.233-4.383-0.6-7.25L163.2,68.25z"/>
			<path style="fill-rule:evenodd;clip-rule:evenodd;fill:#AF6924;" d="M167.95,60.55l0.2,9.2c0.1,5.5,0.3,13.733,0.6,24.7l0.2,13.2
				c-0.334,1.433-0.816,3.05-1.45,4.85V92.95c-0.134-7.9-0.333-15.85-0.6-23.85l-0.051-5.7c-0.399-3.1-0.683-5.9-0.85-8.4
				C166.7,56.8,167.35,58.65,167.95,60.55z"/>
		</g>
		
			<linearGradient id="SVGID_3_" gradientUnits="userSpaceOnUse" x1="-172.4351" y1="85.8506" x2="-0.6855" y2="85.8506" gradientTransform="matrix(5.822417e-006 -1 1 -0.001 -1.609481e-004 4.683650e-004)">
			<stop  offset="0.0196" style="stop-color:#7F3A06"/>
			<stop  offset="0.1255" style="stop-color:#8E5524;stop-opacity:0.851"/>
			<stop  offset="0.3569" style="stop-color:#AD8965;stop-opacity:0.549"/>
			<stop  offset="0.5686" style="stop-color:#C6B39A;stop-opacity:0.3137"/>
			<stop  offset="0.7529" style="stop-color:#D8D0C0;stop-opacity:0.1412"/>
			<stop  offset="0.898" style="stop-color:#E3E3D8;stop-opacity:0.0353"/>
			<stop  offset="0.9882" style="stop-color:#E7E9E0;stop-opacity:0"/>
		</linearGradient>
		<path style="fill-rule:evenodd;clip-rule:evenodd;fill:url(#SVGID_3_);" d="M6.75,53.05c4.333-10.267,10.467-19.366,18.4-27.3
			c7.934-7.9,17.017-14.033,27.25-18.4C63.033,2.85,74.167,0.6,85.8,0.6c11.634,0,22.767,2.25,33.4,6.75
			c10.267,4.367,19.366,10.5,27.3,18.4c7.934,7.934,14.083,17.033,18.45,27.3c4.5,10.634,6.75,21.767,6.75,33.4
			c0,11.633-2.25,22.767-6.75,33.399c-4.367,10.301-10.517,19.417-18.45,27.351c-7.934,7.899-17.033,14.033-27.3,18.399
			c-10.634,4.5-21.767,6.75-33.4,6.75c-11.633,0-22.767-2.25-33.4-6.75c-10.233-4.366-19.316-10.5-27.25-18.399
			c-7.933-7.934-14.066-17.05-18.4-27.351C2.25,109.217,0,98.083,0,86.45C0,74.816,2.25,63.684,6.75,53.05z"/>
		<g>
			<g>
				
					<linearGradient id="SVGID_4_" gradientUnits="userSpaceOnUse" x1="-158.4858" y1="85.9009" x2="-13.4355" y2="85.9009" gradientTransform="matrix(6.895364e-006 -1 1 -0.001 2.366505e-004 4.683650e-004)">
					<stop  offset="0" style="stop-color:#EED9C2"/>
					<stop  offset="0.0863" style="stop-color:#E5CCB5;stop-opacity:0.8745"/>
					<stop  offset="0.3176" style="stop-color:#D0AE97;stop-opacity:0.5922"/>
					<stop  offset="0.5176" style="stop-color:#C39C84;stop-opacity:0.4196"/>
					<stop  offset="0.6549" style="stop-color:#BF967E;stop-opacity:0.3569"/>
					<stop  offset="1" style="stop-color:#582D22"/>
				</linearGradient>
				<path style="fill-rule:evenodd;clip-rule:evenodd;fill:url(#SVGID_4_);" d="M114.1,19.05c8.7,3.667,16.384,8.85,23.051,15.55
					c6.699,6.667,11.883,14.35,15.55,23.05c3.8,8.967,5.7,18.367,5.7,28.2s-1.9,19.25-5.7,28.25
					c-3.667,8.7-8.851,16.384-15.55,23.051c-6.667,6.699-14.351,11.883-23.051,15.55c-8.966,3.8-18.366,5.7-28.199,5.7
					c-9.833,0-19.234-1.9-28.2-5.7c-8.7-3.667-16.383-8.851-23.05-15.55c-6.7-6.7-11.883-14.384-15.55-23.051
					c-3.8-9-5.7-18.416-5.7-28.25s1.9-19.233,5.7-28.2c3.667-8.7,8.85-16.383,15.55-23.05C41.317,27.9,49,22.717,57.7,19.05
					c8.966-3.8,18.367-5.7,28.2-5.7C95.733,13.35,105.134,15.25,114.1,19.05z"/>
			</g>
		</g>
	</g>
	<g>
		<linearGradient id="SVGID_5_" gradientUnits="userSpaceOnUse" x1="85.9248" y1="152.0996" x2="85.9248" y2="19.7002">
			<stop  offset="0" style="stop-color:#B1812F"/>
			<stop  offset="0.2941" style="stop-color:#C89A33"/>
			<stop  offset="0.6745" style="stop-color:#EDC13A"/>
			<stop  offset="0.9647" style="stop-color:#D7E989"/>
			<stop  offset="1" style="stop-color:#D7E989"/>
		</linearGradient>
		<path style="fill-rule:evenodd;clip-rule:evenodd;fill:url(#SVGID_5_);" d="M39.15,39.1C52.083,26.167,67.667,19.7,85.9,19.7
			c18.267,0,33.866,6.466,46.8,19.4C145.634,52.033,152.1,67.633,152.1,85.9c0,18.267-6.466,33.867-19.399,46.8
			S104.167,152.1,85.9,152.1c-18.234,0-33.817-6.466-46.75-19.399c-12.933-12.934-19.4-28.533-19.4-46.8
			C19.75,67.633,26.217,52.033,39.15,39.1z"/>
		<g>
			<path style="fill-rule:evenodd;clip-rule:evenodd;fill:#30144F;" d="M85.9,20.55c-18.034,0-33.434,6.384-46.2,19.15
				C26.933,52.467,20.55,67.867,20.55,85.9c0,18.067,6.383,33.467,19.15,46.2c12.767,12.768,28.167,19.15,46.2,19.15
				c18.066,0,33.466-6.383,46.199-19.15c12.767-12.732,19.15-28.133,19.15-46.2c0-18.033-6.384-33.433-19.15-46.2
				C119.366,26.934,103.967,20.55,85.9,20.55z M38.55,38.5c6.333-6.333,13.567-11.184,21.7-14.55
				c8.133-3.367,16.683-5.05,25.65-5.05c8.966,0,17.517,1.684,25.649,5.05c8.167,3.366,15.417,8.216,21.75,14.55
				c6.334,6.333,11.184,13.583,14.55,21.75c3.367,8.133,5.051,16.684,5.051,25.65c0,8.933-1.684,17.484-5.051,25.65
				c-3.366,8.134-8.216,15.384-14.55,21.75c-6.333,6.334-13.583,11.184-21.75,14.55c-8.133,3.367-16.684,5.051-25.649,5.051
				c-8.967,0-17.517-1.684-25.65-5.051c-8.133-3.366-15.367-8.216-21.7-14.55c-6.333-6.366-11.183-13.616-14.55-21.75
				c-3.4-8.166-5.1-16.717-5.1-25.65s1.7-17.483,5.1-25.65C27.367,52.083,32.217,44.833,38.55,38.5z"/>
		</g>
		<radialGradient id="SVGID_6_" cx="85.9248" cy="83.75" r="59.3872" gradientUnits="userSpaceOnUse">
			<stop  offset="0" style="stop-color:#DEEA89"/>
			<stop  offset="0.0353" style="stop-color:#DEEA89"/>
			<stop  offset="0.302" style="stop-color:#DEE986"/>
			<stop  offset="0.4627" style="stop-color:#E0E57E"/>
			<stop  offset="0.5922" style="stop-color:#E2DE71"/>
			<stop  offset="0.7098" style="stop-color:#E6D45D"/>
			<stop  offset="0.8118" style="stop-color:#EAC845"/>
			<stop  offset="0.8706" style="stop-color:#EDBF35"/>
			<stop  offset="1" style="stop-color:#EDBF35"/>
		</radialGradient>
		<path style="fill-rule:evenodd;clip-rule:evenodd;fill:url(#SVGID_6_);" d="M43.9,41.8c11.6-11.6,25.6-17.4,42-17.4
			c16.433,0,30.449,5.8,42.05,17.4c11.6,11.6,17.399,25.583,17.399,41.95c0,16.367-5.8,30.35-17.399,41.95
			C116.35,137.3,102.333,143.1,85.9,143.1c-16.4,0-30.4-5.8-42-17.399C32.3,114.1,26.5,100.117,26.5,83.75
			C26.5,67.383,32.3,53.4,43.9,41.8z"/>
		<g>
			<path style="fill-rule:evenodd;clip-rule:evenodd;fill:#FEF1DE;" d="M72.9,37.05V56.4c0,0.833-0.25,1.483-0.75,1.95
				c-0.467,0.466-1.066,0.7-1.8,0.7c-0.767,0-1.383-0.233-1.85-0.7c-0.467-0.467-0.7-1.117-0.7-1.95V39.3h-2.05
				c-0.733,0-1.317-0.25-1.75-0.75c-0.367-0.433-0.55-0.966-0.55-1.6c0-0.6,0.2-1.134,0.6-1.6c0.434-0.5,1-0.75,1.7-0.75h4.85
				c0.7,0,1.267,0.233,1.7,0.7C72.7,35.767,72.9,36.35,72.9,37.05z"/>
			
				<linearGradient id="SVGID_7_" gradientUnits="userSpaceOnUse" x1="-59.0557" y1="68.1777" x2="-34.0807" y2="68.1777" gradientTransform="matrix(4.004004e-005 -1 1 -0.001 -1.024090e-004 4.683650e-004)">
				<stop  offset="0" style="stop-color:#4A2805"/>
				<stop  offset="0.1529" style="stop-color:#4A2805"/>
				<stop  offset="0.2471" style="stop-color:#502905"/>
				<stop  offset="0.3765" style="stop-color:#622B07"/>
				<stop  offset="0.5333" style="stop-color:#80300B"/>
				<stop  offset="0.7059" style="stop-color:#AA3510"/>
				<stop  offset="0.8902" style="stop-color:#DE3C16"/>
				<stop  offset="0.8941" style="stop-color:#E03C16"/>
				<stop  offset="1" style="stop-color:#E03C16"/>
			</linearGradient>
			<path style="fill-rule:evenodd;clip-rule:evenodd;fill:url(#SVGID_7_);" d="M72.9,35.9v19.35c0,0.833-0.25,1.483-0.75,1.95
				c-0.467,0.466-1.066,0.7-1.8,0.7c-0.767,0-1.383-0.233-1.85-0.7c-0.467-0.467-0.7-1.117-0.7-1.95V38.2h-2.05
				c-0.733,0-1.317-0.25-1.75-0.75c-0.367-0.434-0.55-0.967-0.55-1.6s0.2-1.167,0.6-1.6c0.434-0.5,1-0.75,1.7-0.75h4.85
				c0.7,0,1.267,0.233,1.7,0.7C72.7,34.633,72.9,35.2,72.9,35.9z"/>
		</g>
		<g>
			<path style="fill-rule:evenodd;clip-rule:evenodd;fill:#FEF1DE;" d="M76.9,39.7c0-1.333,0.767-2.583,2.3-3.75
				c1.533-1.167,3.233-1.75,5.1-1.75c2.267,0,4.084,0.716,5.45,2.15c1.2,1.2,1.8,2.566,1.8,4.1c0,2.267-0.916,4-2.75,5.2
				c1.233,0.567,2.217,1.383,2.95,2.45c0.767,1.1,1.15,2.3,1.15,3.6c0,2.066-0.817,3.833-2.45,5.3c-1.667,1.5-3.7,2.25-6.1,2.25
				c-2.333,0-4.317-0.733-5.95-2.2c-1.467-1.3-2.2-2.7-2.2-4.2c0-0.633,0.283-1.184,0.85-1.65c0.534-0.434,1.117-0.65,1.75-0.65
				c0.667,0,1.417,0.667,2.25,2c0.833,1.333,1.95,2,3.35,2c0.9,0,1.667-0.3,2.3-0.9c0.6-0.6,0.899-1.35,0.899-2.25
				c0-1.667-0.949-2.65-2.85-2.95c-1.933-0.3-2.9-1.083-2.9-2.35c0-1.167,0.8-1.95,2.4-2.35c1.6-0.434,2.4-1.283,2.4-2.55
				c0-0.667-0.217-1.217-0.65-1.65c-0.434-0.433-1.033-0.65-1.8-0.65c-1.133,0-2.083,0.567-2.85,1.7c-0.8,1.1-1.55,1.65-2.25,1.65
				c-0.633,0-1.167-0.267-1.6-0.8C77.1,40.95,76.9,40.367,76.9,39.7z"/>
			
				<linearGradient id="SVGID_8_" gradientUnits="userSpaceOnUse" x1="-59.0347" y1="84.5532" x2="-34.0347" y2="84.5532" gradientTransform="matrix(4.000000e-005 -1 1 -0.001 6.127130e-005 4.683650e-004)">
				<stop  offset="0" style="stop-color:#4A2805"/>
				<stop  offset="0.1529" style="stop-color:#4A2805"/>
				<stop  offset="0.2471" style="stop-color:#502905"/>
				<stop  offset="0.3765" style="stop-color:#622B07"/>
				<stop  offset="0.5333" style="stop-color:#80300B"/>
				<stop  offset="0.7059" style="stop-color:#AA3510"/>
				<stop  offset="0.8902" style="stop-color:#DE3C16"/>
				<stop  offset="0.8941" style="stop-color:#E03C16"/>
				<stop  offset="1" style="stop-color:#E03C16"/>
			</linearGradient>
			<path style="fill-rule:evenodd;clip-rule:evenodd;fill:url(#SVGID_8_);" d="M76.9,38.6c0-1.333,0.767-2.583,2.3-3.75
				c1.533-1.167,3.233-1.75,5.1-1.75c2.267,0,4.084,0.7,5.45,2.1c1.2,1.2,1.8,2.566,1.8,4.1c0,2.267-0.916,4-2.75,5.2
				c1.233,0.566,2.217,1.383,2.95,2.45c0.767,1.1,1.15,2.316,1.15,3.65c0,2.033-0.817,3.783-2.45,5.25c-1.667,1.5-3.7,2.25-6.1,2.25
				c-2.333,0-4.317-0.733-5.95-2.2c-1.467-1.3-2.2-2.7-2.2-4.2c0-0.634,0.283-1.167,0.85-1.6c0.534-0.434,1.117-0.65,1.75-0.65
				c0.667,0,1.417,0.667,2.25,2c0.833,1.3,1.95,1.95,3.35,1.95c0.9,0,1.667-0.3,2.3-0.9c0.6-0.6,0.899-1.35,0.899-2.25
				c0-1.633-0.949-2.6-2.85-2.9c-1.933-0.3-2.9-1.083-2.9-2.35c0-1.2,0.8-2,2.4-2.4c1.6-0.434,2.4-1.284,2.4-2.55
				c0-0.667-0.217-1.216-0.65-1.65c-0.434-0.433-1.033-0.65-1.8-0.65c-1.133,0-2.083,0.566-2.85,1.7c-0.8,1.1-1.55,1.65-2.25,1.65
				c-0.633,0-1.167-0.267-1.6-0.8C77.1,39.833,76.9,39.267,76.9,38.6z"/>
		</g>
		<g>
			<path style="fill-rule:evenodd;clip-rule:evenodd;fill:#FEF1DE;" d="M97.7,55.45l8.5-16.15h-8.7c-0.833,0-1.467-0.25-1.9-0.75
				c-0.399-0.433-0.6-0.966-0.6-1.6c0-0.667,0.184-1.2,0.55-1.6c0.434-0.5,1.084-0.75,1.95-0.75h12.3c0.8,0,1.434,0.3,1.9,0.9
				c0.366,0.5,0.55,1.017,0.55,1.55c0,0.434-0.25,1.184-0.75,2.25l-8.45,17.15c-0.533,1.066-0.934,1.733-1.2,2
				c-0.366,0.4-0.916,0.6-1.649,0.6c-0.834,0-1.533-0.283-2.101-0.85c-0.466-0.5-0.699-1.034-0.699-1.6
				C97.4,56.3,97.5,55.917,97.7,55.45z"/>
			
				<linearGradient id="SVGID_9_" gradientUnits="userSpaceOnUse" x1="-59.0913" y1="103.627" x2="-34.1163" y2="103.627" gradientTransform="matrix(4.004004e-005 -1 1 -0.001 -1.024090e-004 4.683650e-004)">
				<stop  offset="0" style="stop-color:#4A2805"/>
				<stop  offset="0.1529" style="stop-color:#4A2805"/>
				<stop  offset="0.2471" style="stop-color:#502905"/>
				<stop  offset="0.3765" style="stop-color:#622B07"/>
				<stop  offset="0.5333" style="stop-color:#80300B"/>
				<stop  offset="0.7059" style="stop-color:#AA3510"/>
				<stop  offset="0.8902" style="stop-color:#DE3C16"/>
				<stop  offset="0.8941" style="stop-color:#E03C16"/>
				<stop  offset="1" style="stop-color:#E03C16"/>
			</linearGradient>
			<path style="fill-rule:evenodd;clip-rule:evenodd;fill:url(#SVGID_9_);" d="M97.7,54.3l8.5-16.1h-8.7
				c-0.833,0-1.467-0.25-1.9-0.75c-0.399-0.434-0.6-0.967-0.6-1.6c0-1.567,0.833-2.35,2.5-2.35h12.3c0.8,0,1.434,0.3,1.9,0.9
				c0.366,0.467,0.55,0.983,0.55,1.55c0,0.433-0.25,1.183-0.75,2.25l-8.45,17.1c-0.533,1.067-0.934,1.733-1.2,2
				c-0.366,0.4-0.916,0.6-1.649,0.6c-0.834,0-1.533-0.283-2.101-0.85c-0.466-0.466-0.699-0.983-0.699-1.55
				C97.4,55.167,97.5,54.767,97.7,54.3z"/>
		</g>
		<g>
			<path style="fill-rule:evenodd;clip-rule:evenodd;fill:#ECF8BD;" d="M120.2,64.35c0.8,0.933,1.217,2.033,1.25,3.3
				c0.066,1.034-0.217,2.017-0.851,2.95l-0.55,0.7l-4.5,4.45l2.9,2.2c0.934,0.667,1.483,1.566,1.649,2.7
				c0.167,1.133-0.083,2.167-0.75,3.1L119,84.2l-0.15,0.25L92.4,137.75c-0.167,0.333-0.617,0.867-1.351,1.6l-0.95,0.45l-1.25,0.25
				H88.2L87.9,140l-0.7-0.2L62.3,130.9c-0.833-0.301-1.517-0.817-2.05-1.551c-0.5-0.732-0.75-1.533-0.75-2.399v-9.55l0.2-0.95
				l0.55-1.101l3.35-5.399c-0.233-1.101-0.184-2.316,0.15-3.65l0.3-1.05l1.3-2.65l0.85-1.1l0.05-0.1l0.6-0.75l0.1-0.101
				c1.133-1.333,2.617-2.416,4.45-3.25l0.45-0.75l-13.2-29.2l-0.05-0.2l-0.3-0.55l-0.05-0.15c-0.9-1.767-1.083-3.367-0.55-4.8
				c0.333-0.933,0.917-1.716,1.75-2.35c0.8-0.6,1.683-0.966,2.65-1.1c0.733-0.1,1.417-0.083,2.05,0.05
				c1.367,0.2,2.45,0.934,3.25,2.2c0.3,0.466,0.7,1.3,1.2,2.5l9.9,22.7l9.15-14.85c0.433-0.7,1.033-1.233,1.8-1.6
				c0.767-0.367,1.55-0.5,2.35-0.4l13.4,1.55l7.2-7.1l0.25-0.1c0.866-0.6,1.733-0.917,2.6-0.95c0.267-0.034,0.717-0.017,1.35,0.05
				c1.101,0.066,2.067,0.517,2.9,1.35L120.2,64.35z"/>
			
				<linearGradient id="SVGID_10_" gradientUnits="userSpaceOnUse" x1="-139.0381" y1="89.0313" x2="-57.0977" y2="89.0313" gradientTransform="matrix(1.220629e-005 -1 1 -0.001 -1.647286e-004 4.683650e-004)">
				<stop  offset="0" style="stop-color:#B1812F"/>
				<stop  offset="0.1569" style="stop-color:#C89A33"/>
				<stop  offset="0.3686" style="stop-color:#EDC13A"/>
				<stop  offset="0.9647" style="stop-color:#DEEA89"/>
			</linearGradient>
			<path style="fill-rule:evenodd;clip-rule:evenodd;fill:url(#SVGID_10_);" d="M119.8,63.25c0.8,0.934,1.217,2.033,1.25,3.3
				c0.066,1.034-0.217,2.017-0.85,2.95c-0.134,0.267-0.316,0.5-0.55,0.7l-4.45,4.45l2.85,2.2c0.934,0.667,1.483,1.566,1.65,2.7
				c0.166,1.134-0.084,2.167-0.75,3.1c-0.101,0.233-0.217,0.383-0.351,0.45l-0.05,0.05L93.2,134.2
				c-0.167,0.366-0.45,0.983-0.851,1.85c-0.399,0.767-0.783,1.334-1.149,1.7l-0.55,0.5l-0.45,0.25l-0.5,0.2l-1.25,0.25H87.8
				l-0.3-0.05l-0.7-0.2l-24.9-8.9c-0.833-0.3-1.517-0.816-2.05-1.55c-0.5-0.733-0.75-1.533-0.75-2.4v-9.55l0.2-0.95l0.15-0.3
				c0.1-0.267,0.25-0.533,0.45-0.8l3.3-5.4c-0.233-1.1-0.184-2.316,0.15-3.649l0.3-1.05l0.3-0.75l0.5-1l1.35-2l0.05-0.101l0.65-0.75
				l0.1-0.1c1.066-1.333,2.533-2.417,4.4-3.25l0.45-0.75l-13.2-29.2l-0.05-0.2l-0.3-0.55l-0.05-0.15
				c-0.9-1.767-1.083-3.367-0.55-4.8c0.333-0.933,0.917-1.716,1.75-2.35c0.8-0.6,1.684-0.967,2.65-1.1
				c0.733-0.1,1.417-0.083,2.05,0.05c1.4,0.233,2.483,0.967,3.25,2.2c0.3,0.466,0.7,1.3,1.2,2.5l9.9,22.7l9.2-14.85
				c0.4-0.667,0.983-1.2,1.75-1.6c0.767-0.367,1.55-0.5,2.351-0.4l13.449,1.55l7.15-7.1l0.25-0.1c0.866-0.566,1.733-0.883,2.6-0.95
				c0.301-0.034,0.75-0.017,1.351,0.05c1.1,0.067,2.066,0.517,2.899,1.35L119.8,63.25z"/>
			<path style="fill-rule:evenodd;clip-rule:evenodd;fill:none;stroke:#FBFCC9;stroke-width:0.25;" d="M119.8,63.25l-0.7-0.75
				c-0.833-0.833-1.8-1.283-2.899-1.35c-0.601-0.066-1.05-0.083-1.351-0.05c-0.866,0.066-1.733,0.383-2.6,0.95l-0.25,0.1l-7.15,7.1
				L91.4,67.7c-0.801-0.1-1.584,0.033-2.351,0.4c-0.767,0.4-1.35,0.933-1.75,1.6l-9.2,14.85l-9.9-22.7c-0.5-1.2-0.9-2.034-1.2-2.5
				c-0.767-1.233-1.85-1.967-3.25-2.2c-0.633-0.133-1.317-0.15-2.05-0.05c-0.967,0.133-1.85,0.5-2.65,1.1
				c-0.833,0.633-1.417,1.417-1.75,2.35c-0.533,1.434-0.35,3.034,0.55,4.8l0.05,0.15l0.3,0.55l0.05,0.2l13.2,29.2L71,96.2
				c-1.867,0.833-3.333,1.917-4.4,3.25l-0.1,0.1l-0.65,0.75L65.8,100.4l-1.35,2l-0.5,1l-0.3,0.75l-0.3,1.05
				c-0.333,1.333-0.383,2.55-0.15,3.649l-3.3,5.4c-0.2,0.267-0.35,0.533-0.45,0.8l-0.15,0.3l-0.2,0.95v9.55
				c0,0.867,0.25,1.667,0.75,2.4c0.533,0.733,1.217,1.25,2.05,1.55l24.9,8.9l0.7,0.2l0.3,0.05h0.65l1.25-0.25l0.5-0.2l0.45-0.25
				l0.55-0.5c0.366-0.366,0.75-0.934,1.149-1.7c0.4-0.866,0.684-1.483,0.851-1.85l25.35-51.05l0.05-0.05
				c0.134-0.067,0.25-0.217,0.351-0.45c0.666-0.933,0.916-1.966,0.75-3.1c-0.167-1.133-0.717-2.033-1.65-2.7l-2.85-2.2l4.45-4.45
				c0.233-0.2,0.416-0.434,0.55-0.7c0.633-0.934,0.916-1.917,0.85-2.95C121.017,65.283,120.6,64.184,119.8,63.25z"/>
			<path style="fill-rule:evenodd;clip-rule:evenodd;fill:#391B06;" d="M115.9,64.7h0.1c0.2-0.034,0.384,0.05,0.55,0.25l0.101,0.1
				c0.066,0.034,0.233,0.184,0.5,0.45c0.267,0.3,0.399,0.7,0.399,1.2c0,0.4-0.1,0.7-0.3,0.9l-0.05,0.15l-6.7,6.65l-0.25,0.2
				l-0.4,0.45l6.101,4.6c0.399,0.267,0.45,0.6,0.149,1l-0.3,0.25l-26.95,54.15l-0.05,0.05l-0.05,0.15H88.7l-0.15,0.15h-0.1
				l-0.2,0.05H88.1l-25-8.9c-0.333-0.166-0.5-0.399-0.5-0.7l0.05-9.35c0.067-0.167,0.117-0.267,0.15-0.3l4.3-7l-0.2-0.3
				c-0.4-0.7-0.45-1.634-0.15-2.801L67,105.2v-0.05l0.15-0.4l1.4-2.2l0.05-0.1l0.55-0.65l0.1-0.1c0.933-1.066,2.317-1.983,4.15-2.75
				l2.05-3.3c-1.867-3.801-3.3-6.817-4.3-9.05L71,86.35l-10-22.5c-0.633-1.367-0.583-2.317,0.15-2.85
				c0.133-0.133,0.317-0.233,0.55-0.3l0.55-0.1c0.233-0.067,0.533-0.067,0.9,0c0.4,0.033,0.7,0.25,0.9,0.65
				c0.233,0.333,0.534,0.95,0.9,1.85L76.4,89.35l0.15,0.45l1.05,2.3l12.65-20.6c0.2-0.267,0.434-0.367,0.7-0.3l15.149,1.75l0.25-0.3
				l7.601-7.5H114c0.3-0.3,0.667-0.483,1.1-0.55C115.3,64.566,115.566,64.6,115.9,64.7z"/>
			<g>
				
					<linearGradient id="SVGID_11_" gradientUnits="userSpaceOnUse" x1="-23.3428" y1="145.1963" x2="-7.6964" y2="145.1963" gradientTransform="matrix(0.7717 -0.6359 0.6036 0.7984 -5.211830e-004 -1.108646e-005)">
					<stop  offset="0" style="stop-color:#843D20"/>
					<stop  offset="1" style="stop-color:#BD673D"/>
				</linearGradient>
				<polygon style="fill-rule:evenodd;clip-rule:evenodd;fill:url(#SVGID_11_);" points="63.35,125.85 63.35,116.65 76.75,112.35 
					78.3,107.8 88.2,134.75 				"/>
				
					<linearGradient id="SVGID_12_" gradientUnits="userSpaceOnUse" x1="-136.0996" y1="-82.5273" x2="-111.7025" y2="-82.5273" gradientTransform="matrix(-0.9796 -0.2008 0.2471 -0.9701 1.310855e-004 8.151084e-004)">
					<stop  offset="0" style="stop-color:#461E0F"/>
					<stop  offset="0.3608" style="stop-color:#853A20"/>
					<stop  offset="0.6745" style="stop-color:#954625"/>
					<stop  offset="1" style="stop-color:#8D4122"/>
				</linearGradient>
				<polygon style="fill-rule:evenodd;clip-rule:evenodd;fill:url(#SVGID_12_);" points="79.4,104.1 106.95,73.75 115.35,80.15 
					88.2,134.75 80.15,119.85 				"/>
				
					<linearGradient id="SVGID_13_" gradientUnits="userSpaceOnUse" x1="-3.0703" y1="142.498" x2="40.3383" y2="142.498" gradientTransform="matrix(0.7723 -0.6352 0.6036 0.7984 -4.451275e-004 -1.758933e-004)">
					<stop  offset="0" style="stop-color:#F4AF8C"/>
					<stop  offset="0.9922" style="stop-color:#9E4E28"/>
				</linearGradient>
				<path style="fill-rule:evenodd;clip-rule:evenodd;fill:url(#SVGID_13_);" d="M81.7,101.55l25.25-27.8l8.55,6.45
					c-1.333-0.9-3.233-1.934-5.7-3.1c-1.066-0.534-1.866-0.867-2.399-1l-0.45-0.05c-15.834,26.533-24.017,40.584-24.55,42.15
					c-0.5,1.6-0.566,3.1-0.2,4.5l6,12.05l-8.05-14.9l-0.6-12.6L81.7,101.55z"/>
				
					<linearGradient id="SVGID_14_" gradientUnits="userSpaceOnUse" x1="-78.395" y1="-123.8438" x2="-56.6133" y2="-123.8438" gradientTransform="matrix(-0.9985 0.0539 -0.0128 -1.0008 -2.104631e-004 -6.414205e-005)">
					<stop  offset="0" style="stop-color:#F4AF8C"/>
					<stop  offset="0.9922" style="stop-color:#9E4E28"/>
				</linearGradient>
				<path style="fill-rule:evenodd;clip-rule:evenodd;fill:url(#SVGID_14_);" d="M71.5,118.8l-8.15-2.149l17.6,2.75l0.95,2.3
					l0.35,1.35c0.067,0.7-0.25,0.65-0.95-0.149C80.4,121.833,77.133,120.467,71.5,118.8z"/>
				
					<linearGradient id="SVGID_15_" gradientUnits="userSpaceOnUse" x1="-92.832" y1="79.9585" x2="-48.2437" y2="79.9585" gradientTransform="matrix(-0.0533 -0.9986 1.0008 -0.0123 -2.261400e-004 2.717469e-004)">
					<stop  offset="0" style="stop-color:#EE824F"/>
					<stop  offset="0.5843" style="stop-color:#852F1E"/>
				</linearGradient>
				<polygon style="fill-rule:evenodd;clip-rule:evenodd;fill:url(#SVGID_15_);" points="106.95,73.75 80.15,119.85 63.35,116.65 
					90.9,71.9 				"/>
				<polygon style="fill-rule:evenodd;clip-rule:evenodd;fill:#FFFFFF;" points="81.75,121.6 83.1,123.05 80.75,121.8 78.2,122 
					79.85,121.2 78.45,119.7 80.85,120.95 83.45,120.75 				"/>
			</g>
			
				<use xlink:href="#FlashAICB_x2F_Layer_15_x2F__x3C_Path_x3E_"  width="40.65" height="46.65" y="-46.65" transform="matrix(1 0 0 -1 68.6001 73.5498)" style="overflow:visible;opacity:0.6016;enable-background:new    ;"/>
			<g>
				<path style="fill-rule:evenodd;clip-rule:evenodd;fill:#595347;" d="M83.3,98.85c1.633,1.034,2.767,1.817,3.4,2.351
					c1.434,1.233,2.35,2.45,2.75,3.649c0.434,1.4,0.666,2.634,0.7,3.7c0.033,1.134-0.15,2.3-0.551,3.5
					c-0.333,1.033-0.55,1.9-0.649,2.601c-0.066,0.433-0.117,1-0.15,1.699c-0.033,0.567-0.116,0.983-0.25,1.25
					c-0.1,0.134-0.35,0.4-0.75,0.801c-0.533,0.566-1.149,0.217-1.85-1.051c-0.5-0.899-0.634-1.899-0.4-3
					c0.066-0.333,0.25-0.649,0.55-0.949c0.367-0.334,0.634-0.601,0.801-0.801c0.333-0.333,0.5-0.916,0.5-1.75
					c0-1-0.25-2.166-0.75-3.5c-0.434-1.232-1.284-2.232-2.55-3c-0.1-0.066-0.934-0.449-2.5-1.149c-1.1-0.5-1.983-1.25-2.65-2.25
					c-0.267-0.4-1.383-2.617-3.35-6.65c-2.033-4.133-3.45-7.116-4.25-8.95l-9.6-21.65c-0.267-0.534-0.417-0.9-0.45-1.1
					c-0.133-0.467-0.033-0.817,0.3-1.05c0.533-0.366,1-0.4,1.4-0.1c0.1,0.066,0.25,0.333,0.45,0.8l12.25,27.4
					c0.367,0.767,1,2.149,1.9,4.149c0.8,1.733,1.483,2.9,2.05,3.5c0.4,0.5,0.934,0.8,1.6,0.9C82.117,98.333,82.8,98.55,83.3,98.85z"
					/>
				<path style="fill-rule:evenodd;clip-rule:evenodd;fill:#A6A097;" d="M84.95,104.95v-0.05c-0.233-0.634-1.133-1.434-2.7-2.4
					c-0.267-0.2-0.033-0.184,0.7,0.05c0.7,0.233,1.367,0.567,2,1c0.8,0.533,1.483,1.334,2.05,2.4c0.634,1.167,0.967,2.383,1,3.649
					c0,1.768-0.283,3.018-0.85,3.75c0-0.3,0.083-0.767,0.25-1.399c0.033-0.167,0.017-0.351-0.051-0.55
					c0.134-1.067-0.1-2.417-0.699-4.051C86.35,106.483,85.783,105.684,84.95,104.95z"/>
				<path style="fill-rule:evenodd;clip-rule:evenodd;fill:#A6A097;" d="M62.7,64.85l1.25,2.8c0.767,1.733,1.167,2.65,1.2,2.75
					c3.967,9.067,7.1,15.883,9.4,20.45c1.1,2.233,1.95,3.9,2.55,5c0.367,0.867,0.55,1.733,0.55,2.601c-2.8-5.634-4.9-10-6.3-13.1
					l-3.4-7.7c-1.1-2.533-2.2-5.066-3.3-7.6c-2.167-5.066-3.183-7.616-3.05-7.65c0.1-0.033,0.267,0.25,0.5,0.85
					C62.233,63.617,62.433,64.15,62.7,64.85z"/>
				<path style="fill-rule:evenodd;clip-rule:evenodd;fill:#333029;" d="M77.6,93.8c0.8,1.733,1.483,2.9,2.05,3.5
					c0.2,0.267,0.383,0.434,0.55,0.5l-0.3,1.95c-0.267,0.333-0.5,0.517-0.7,0.55c-0.2,0.033-0.417,0-0.65-0.1l-0.6-1.2
					c-0.233-1.934-0.367-2.983-0.4-3.15c-0.066-0.232-1.15-2.517-3.25-6.85c-2.233-4.6-3.716-7.983-4.45-10.15
					c-0.267-0.733-0.85-2.167-1.75-4.3l-1-2.25c-0.934-2.133-1.783-4-2.55-5.6l-1.9-4.15c-0.3-0.533-0.45-0.933-0.45-1.2
					c0.233-0.1,0.5-0.117,0.8-0.05c0.2,0.034,0.35,0.15,0.45,0.35c0.333,0.5,0.716,1.35,1.15,2.55l11.1,25.45
					C76.067,90.417,76.7,91.8,77.6,93.8z"/>
				<path style="fill-rule:evenodd;clip-rule:evenodd;fill:#333029;" d="M80.8,98.1c0.233,0.067,0.6,0.134,1.1,0.2
					c0.5,0.101,0.967,0.283,1.4,0.55c1.633,1.034,2.767,1.817,3.4,2.351c1.434,1.233,2.35,2.45,2.75,3.649
					c0.434,1.4,0.666,2.634,0.7,3.7c0.033,1.134-0.15,2.3-0.551,3.5c-0.333,1.033-0.55,1.9-0.649,2.601
					c-0.066,0.433-0.117,1-0.15,1.699c-0.033,0.567-0.116,0.983-0.25,1.25c-0.1,0.134-0.35,0.4-0.75,0.801
					c-0.267,0.267-0.55,0.35-0.85,0.25c0.2-0.533,0.217-1.017,0.05-1.45c-0.167-0.566-0.25-1.2-0.25-1.9
					c0.033-0.666,0.15-1.05,0.35-1.149l0.4-0.2c0.2-0.167,0.417-0.467,0.65-0.9c0.466-0.933,0.767-2.133,0.899-3.6
					c0.167-1.533-0.133-3-0.899-4.4c-0.4-0.7-1.067-1.583-2-2.649c-0.434-0.5-1.15-0.9-2.15-1.2l-1.4-0.351l-0.45,0.75
					c-0.4,0.534-0.783,0.95-1.15,1.25c-0.533-0.333-0.967-0.683-1.3-1.05c0-0.433,0.066-1.116,0.2-2.05
					C80.2,99.316,80.5,98.767,80.8,98.1z"/>
				<path style="fill-rule:evenodd;clip-rule:evenodd;fill:#333029;" d="M80.8,98.1c-0.3,0.667-0.6,1.217-0.9,1.65l0.3-1.95
					L80.8,98.1z"/>
			</g>
			<g>
				<g>
					<g>
						<path style="fill-rule:evenodd;clip-rule:evenodd;fill:#595347;" d="M113.9,66.2c0.267-0.267,0.466-0.45,0.6-0.55
							c0.233-0.2,0.467-0.316,0.7-0.35c0.633,0,1.083,0.217,1.35,0.65l0.05,0.15c0.034,0.066,0.067,0.267,0.101,0.6
							c0.033,0.3,0.033,0.466,0,0.5c-13.667,13.6-21.684,21.517-24.05,23.75c-1.334,1.267-3.534,3.2-6.601,5.8
							c-2.4,2-4,3.316-4.8,3.95c-0.367,0.267-0.95,0.55-1.75,0.85c-0.833,0.334-1.5,0.517-2,0.55c-1.733,0.167-2.7,0.268-2.9,0.301
							c-1.6,0.333-2.817,0.967-3.65,1.899c-0.6,0.667-1.034,1.3-1.3,1.9c-0.1,0.233-0.233,0.667-0.4,1.3
							c0,0.134-0.167,0.367-0.5,0.7l-0.3,0.399l-0.1,0.25c-0.1,0.101-0.233,0.084-0.4-0.05c-0.133-0.1-0.233-0.233-0.3-0.399
							c-0.533-0.767-0.467-1.884,0.2-3.351c0.3-0.733,0.967-1.717,2-2.95c1.267-1.5,3.6-2.649,7-3.449
							c0.333-0.101,1.133-0.233,2.4-0.4c0.833-0.133,1.55-0.366,2.15-0.7c1.033-0.566,3.184-2.433,6.45-5.6L113.9,66.2z"/>
						<path style="fill-rule:evenodd;clip-rule:evenodd;fill:#333029;" d="M70.9,103.15c1.3-1.101,2.483-1.684,3.55-1.75
							c0.4-0.033,1.15,0.017,2.25,0.149c0.767,0.067,1.466,0,2.1-0.2l-1.3,0.75c-1.433,0.134-2.4,0.268-2.9,0.4
							c-1.6,0.367-2.817,1.017-3.65,1.95c-0.867,0.967-1.434,1.983-1.7,3.05c-0.2,0.233-0.5,0.65-0.9,1.25
							c-0.133-0.667-0.083-1.4,0.15-2.2C68.767,105.417,69.567,104.283,70.9,103.15z"/>
						<path style="fill-rule:evenodd;clip-rule:evenodd;fill:#333029;" d="M116.55,66c0.101,0.033,0.184,0.15,0.25,0.35
							c0,0.1,0.017,0.233,0.05,0.4c0,0.2-0.149,0.45-0.449,0.75L96.75,86.95c-1.7,1.7-2.983,2.95-3.85,3.75l-0.25,0.25
							c-2.534,2.434-5.867,5.3-10,8.6l-3.85,1.8c1.6-1.033,4.517-3.366,8.75-7c3.601-3.033,8.017-7.25,13.25-12.649
							c6.834-6.967,11.066-11.233,12.7-12.8l1.65-1.6c0.433-0.5,0.767-0.85,1-1.05C116.217,66.217,116.35,66.133,116.55,66z"/>
						<path style="fill-rule:evenodd;clip-rule:evenodd;fill:#333029;" d="M78.8,101.35l3.85-1.8l-1.4,1.15
							c-0.367,0.267-0.95,0.55-1.75,0.85c-0.833,0.334-1.5,0.517-2,0.55L78.8,101.35z"/>
						<path style="fill-rule:evenodd;clip-rule:evenodd;fill:#A6A097;" d="M68.25,104.7c0.867-1.5,1.95-2.7,3.25-3.601
							c0.933-0.6,2.033-1.05,3.3-1.35c0.633-0.167,1.167-0.267,1.6-0.3l-1.5,0.6c-1.433,0.567-2.3,0.934-2.6,1.101
							c-1.1,0.633-2.117,1.566-3.05,2.8c-0.9,1.2-1.4,2.35-1.5,3.45c-0.067,0.566-0.033,1,0.1,1.3
							C67.117,107.767,67.25,106.434,68.25,104.7z"/>
						<path style="fill-rule:evenodd;clip-rule:evenodd;fill:#A6A097;" d="M113.25,66.95c0.566-0.567,0.934-0.867,1.1-0.9h0.15
							c0.167,0.034,0.15,0.2-0.05,0.5l-8.5,8.35c-0.834,0.8-4.417,4.383-10.75,10.75c-3.767,3.767-7.05,6.85-9.851,9.25
							c-3,2.566-4.783,3.85-5.35,3.85l1.95-1.55c1.066-0.733,3.033-2.483,5.899-5.25L113.25,66.95z"/>
					</g>
					<g>
						<path style="fill-rule:evenodd;clip-rule:evenodd;fill:#655D51;" d="M79,99.2c0.4-0.5,0.85-0.75,1.35-0.75
							c0.333-0.033,0.633,0.05,0.9,0.25c0.2,0.1,0.233,0.35,0.1,0.75c-0.133,0.366-0.383,0.733-0.75,1.1
							c-0.3,0.334-0.617,0.55-0.95,0.65c-0.367,0.1-0.65,0.083-0.85-0.05c-0.2-0.134-0.25-0.467-0.15-1
							C78.717,99.684,78.833,99.367,79,99.2z"/>
						<path style="fill-rule:evenodd;clip-rule:evenodd;fill:#333029;" d="M80.85,99.35c0.233-0.399,0.117-0.716-0.35-0.949
							c0.367,0.066,0.617,0.166,0.75,0.3c0.2,0.1,0.233,0.35,0.1,0.75c-0.133,0.366-0.383,0.733-0.75,1.1
							c-0.3,0.334-0.617,0.55-0.95,0.65c-0.367,0.1-0.65,0.083-0.85-0.05c-0.133-0.101-0.2-0.301-0.2-0.601
							c0.467,0.167,0.9,0.117,1.3-0.149c0.4-0.233,0.167-0.567-0.7-1c-0.1-0.067-0.1-0.15,0-0.25c0.133-0.101,0.35-0.117,0.65-0.051
							L80.85,99.35z"/>
						<path style="fill-rule:evenodd;clip-rule:evenodd;fill:#333029;" d="M81.8,98.7c-0.033-0.134-0.133-0.267-0.3-0.4l-0.25-0.149
							l0.25-0.101c0.133-0.033,0.283-0.017,0.45,0.05c0.2,0.067,0.333,0.167,0.4,0.301c0.1,0.133-0.033,0.467-0.4,1
							c-0.367,0.566-0.8,1.066-1.3,1.5c-0.633,0.566-1.25,0.649-1.85,0.25c-0.2-0.134-0.117-0.117,0.25,0.05
							c0.034,0,0.217-0.101,0.55-0.3c0.296-0.175,0.53-0.342,0.7-0.5l-0.15,0.199c0.367,0.034,0.684-0.116,0.95-0.449
							C81.633,99.517,81.867,99.033,81.8,98.7z"/>
					</g>
				</g>
			</g>
		</g>
	</g>
</g>
<g>
	
		<use xlink:href="#FlashAICB_x2F_Layer_15_x2F__x3C_Path_x3E__x5F_2"  width="118.7" height="57.15" y="-57.15" transform="matrix(1 0 0 -1 26.5 87)" style="overflow:visible;opacity:0.2813;enable-background:new    ;"/>
	
		<use xlink:href="#FlashAICB_x2F_Layer_15_x2F__x3C_Path_x3E__x5F_1"  width="110" height="55.8" y="-55.8" transform="matrix(1 0 0 -1 30.6499 28.2002)" style="overflow:visible;opacity:0.1094;enable-background:new    ;"/>
	
		<use xlink:href="#FlashAICB_x2F_Layer_15_x2F__x3C_Path_x3E__x5F_0"  width="110" height="61.294" y="-61.294" transform="matrix(1 0 0 -1 30.6499 28.2002)" style="overflow:visible;opacity:0.0898;enable-background:new    ;"/>
</g>
</svg>
