<?xml version="1.0" encoding="iso-8859-1"?>
<!-- Generator: Adobe Illustrator 15.1.0, SVG Export Plug-In . SVG Version: 6.00 Build 0)  -->
<!DOCTYPE svg PUBLIC "-//W3C//DTD SVG 1.1//EN" "http://www.w3.org/Graphics/SVG/1.1/DTD/svg11.dtd">
<svg version="1.1" id="Layer_25" xmlns="http://www.w3.org/2000/svg" xmlns:xlink="http://www.w3.org/1999/xlink" x="0px" y="0px"
	 width="171.55px" height="171.55px" viewBox="0 0 171.55 171.55" style="enable-background:new 0 0 171.55 171.55;"
	 xml:space="preserve">
<symbol  id="FlashAICB_x2F_Layer_25_x2F__x3C_Path_x3E_" viewBox="0 -61.294 110 61.294">
	<g id="Layer_1_4_">
		<path style="fill-rule:evenodd;clip-rule:evenodd;fill:#FFFFFF;" d="M106.5-34.35c2.333-5.633,3.5-10.933,3.5-15.9
			s-1.433-8.083-4.3-9.35c-2.367-1.066-6.3-1.066-11.8,0c-7.267,1.767-13.1,3.117-17.5,4.05C68.4-53.85,61.267-53,55-53
			c-6.3,0-13.433-0.917-21.4-2.75c-8.333-2.2-14.167-3.683-17.5-4.45c-5.533-1.267-9.45-1.433-11.75-0.5C1.45-59.5,0-56.433,0-51.5
			c0,5.5,1.167,11.167,3.5,17c2.467,6.167,5.95,11.733,10.45,16.7C24.65-5.933,38.333,0,55,0c16.467,0,30.133-5.983,41-17.95
			C100.467-22.883,103.967-28.35,106.5-34.35z"/>
	</g>
</symbol>
<symbol  id="FlashAICB_x2F_Layer_25_x2F__x3C_Path_x3E__x5F_1" viewBox="0 -55.75 110 55.75">
	<g id="Layer_1_3_">
		
			<linearGradient id="SVGID_1_" gradientUnits="userSpaceOnUse" x1="16165.2637" y1="-53.8555" x2="16221.0391" y2="-53.8555" gradientTransform="matrix(1.792918e-005 1 -1 -0.001 0.8545 -16221.1064)">
			<stop  offset="0.1294" style="stop-color:#E2B8B2"/>
			<stop  offset="0.9255" style="stop-color:#FFFFFF"/>
		</linearGradient>
		<path style="fill-rule:evenodd;clip-rule:evenodd;fill:url(#SVGID_1_);" d="M96-17.95c4.467-4.933,7.967-10.4,10.5-16.4
			c2.333-5.633,3.5-10.933,3.5-15.9c0-1.767-0.15-3.25-0.45-4.45c-1.867,11.034-7.267,20.85-16.2,29.45
			C82.783-15.117,70-10.05,55-10.05c-15.233,0-28.067-5.05-38.5-15.15c-9-8.733-14.35-18.917-16.05-30.55C0.15-54.617,0-53.2,0-51.5
			c0,5.5,1.167,11.167,3.5,17c2.467,6.167,5.95,11.733,10.45,16.7C24.65-5.933,38.333,0,55,0C71.467,0,85.133-5.983,96-17.95z"/>
	</g>
</symbol>
<symbol  id="FlashAICB_x2F_Layer_25_x2F__x3C_Path_x3E__x5F_2" viewBox="0 -57.1 118.7 57.1">
	<g id="Layer_1_2_">
		
			<radialGradient id="SVGID_2_" cx="59.3501" cy="-28.5498" r="46.5701" gradientTransform="matrix(1 0 0 -1 0 -57.0996)" gradientUnits="userSpaceOnUse">
			<stop  offset="0" style="stop-color:#000000;stop-opacity:0"/>
			<stop  offset="0.651" style="stop-color:#000000;stop-opacity:0.4"/>
		</radialGradient>
		<path style="fill-rule:evenodd;clip-rule:evenodd;fill:url(#SVGID_2_);" d="M95.5-30.35c10.733,7.7,18.3,17.733,22.7,30.1L118.7,0
			c-0.567-15.9-6.6-29.383-18.1-40.45C89.1-51.55,75.333-57.1,59.3-57.1c-15.7,0-29.267,5.367-40.7,16.1C7.2-30.3,1-17.183,0-1.65
			c4.633-12,12.217-21.7,22.75-29.1c10.833-7.567,22.867-11.35,36.1-11.35C72.35-42.1,84.567-38.183,95.5-30.35z"/>
	</g>
</symbol>
<g>
	<path style="fill-rule:evenodd;clip-rule:evenodd;fill:#68757B;" d="M6.75,52.4c4.367-10.233,10.5-19.317,18.4-27.25
		c7.934-7.933,17.034-14.067,27.3-18.4C63.083,2.25,74.2,0,85.8,0C97.4,0,108.517,2.25,119.15,6.75
		c10.233,4.333,19.316,10.467,27.25,18.4c7.899,7.933,14.033,17.017,18.399,27.25c4.5,10.633,6.75,21.75,6.75,33.35
		c0,11.633-2.25,22.75-6.75,33.35c-4.333,10.267-10.467,19.367-18.399,27.301c-7.934,7.899-17.017,14.033-27.25,18.399
		c-10.634,4.5-21.75,6.75-33.351,6.75c-11.6,0-22.716-2.25-33.35-6.75c-10.267-4.366-19.367-10.5-27.3-18.399
		c-7.9-7.934-14.033-17.034-18.4-27.301C2.25,108.467,0,97.35,0,85.75C0,74.15,2.25,63.033,6.75,52.4z"/>
	
		<linearGradient id="SVGID_3_" gradientUnits="userSpaceOnUse" x1="-171.6353" y1="85.7754" x2="-0.0854" y2="85.7754" gradientTransform="matrix(5.830904e-006 -1 1 -0.001 -9.214067e-005 4.449275e-004)">
		<stop  offset="0.0039" style="stop-color:#4F1D1F"/>
		<stop  offset="0.2078" style="stop-color:#7D5F3C"/>
		<stop  offset="0.5569" style="stop-color:#B09A68"/>
		<stop  offset="0.7412" style="stop-color:#EEEDCF"/>
		<stop  offset="0.7922" style="stop-color:#E7E1AD"/>
		<stop  offset="1" style="stop-color:#B9A57A"/>
	</linearGradient>
	<path style="fill-rule:evenodd;clip-rule:evenodd;fill:url(#SVGID_3_);" d="M6.75,52.4c4.367-10.233,10.5-19.317,18.4-27.25
		c7.934-7.933,17.034-14.067,27.3-18.4C63.083,2.25,74.2,0,85.8,0C97.4,0,108.517,2.25,119.15,6.75
		c10.233,4.333,19.316,10.467,27.25,18.4c7.899,7.933,14.033,17.017,18.399,27.25c4.5,10.633,6.75,21.75,6.75,33.35
		c0,11.633-2.25,22.75-6.75,33.35c-4.333,10.267-10.467,19.367-18.399,27.301c-7.934,7.899-17.017,14.033-27.25,18.399
		c-10.634,4.5-21.75,6.75-33.351,6.75c-11.6,0-22.716-2.25-33.35-6.75c-10.267-4.366-19.367-10.5-27.3-18.399
		c-7.9-7.934-14.033-17.034-18.4-27.301C2.25,108.467,0,97.35,0,85.75C0,74.15,2.25,63.033,6.75,52.4z"/>
	<g>
		<g>
			
				<linearGradient id="SVGID_4_" gradientUnits="userSpaceOnUse" x1="-158.2856" y1="85.7759" x2="-13.4351" y2="85.7759" gradientTransform="matrix(6.906077e-006 -1 1 -0.001 -1.647736e-004 4.449275e-004)">
				<stop  offset="0.0431" style="stop-color:#BAA270"/>
				<stop  offset="1" style="stop-color:#73624A"/>
			</linearGradient>
			<path style="fill-rule:evenodd;clip-rule:evenodd;fill:url(#SVGID_4_);" d="M34.6,34.55c6.667-6.667,14.333-11.833,23-15.5
				c8.967-3.8,18.367-5.7,28.2-5.7c9.8,0,19.184,1.9,28.15,5.7c8.667,3.667,16.35,8.833,23.05,15.5
				c6.667,6.667,11.833,14.333,15.5,23c3.8,8.967,5.7,18.367,5.7,28.2c0,9.833-1.9,19.233-5.7,28.2
				c-3.667,8.666-8.833,16.35-15.5,23.05c-6.7,6.666-14.383,11.833-23.05,15.5c-8.967,3.8-18.351,5.7-28.15,5.7
				c-9.833,0-19.233-1.9-28.2-5.7c-8.667-3.667-16.333-8.834-23-15.5c-6.7-6.7-11.883-14.384-15.55-23.05
				c-3.8-8.967-5.7-18.367-5.7-28.2c0-9.833,1.9-19.233,5.7-28.2C22.717,48.883,27.9,41.217,34.6,34.55z"/>
		</g>
	</g>
</g>
<g>
	<g>
		
			<linearGradient id="SVGID_5_" gradientUnits="userSpaceOnUse" x1="-152.0356" y1="85.7759" x2="-19.6851" y2="85.7759" gradientTransform="matrix(7.555724e-006 -1 1 -0.001 2.190953e-004 4.449275e-004)">
			<stop  offset="0.0745" style="stop-color:#B85E97"/>
			<stop  offset="0.2667" style="stop-color:#D167A8"/>
			<stop  offset="0.5333" style="stop-color:#F976C5"/>
			<stop  offset="1" style="stop-color:#F8EFD5"/>
		</linearGradient>
		<path style="fill-rule:evenodd;clip-rule:evenodd;fill:url(#SVGID_5_);" d="M132.55,39c12.934,12.934,19.4,28.517,19.4,46.75
			s-6.467,33.833-19.4,46.8c-12.933,12.934-28.517,19.4-46.75,19.4c-18.267,0-33.866-6.467-46.8-19.4
			c-12.933-12.934-19.4-28.533-19.4-46.8C19.6,67.517,26.067,51.934,39,39c12.934-12.934,28.533-19.4,46.8-19.4
			C104.033,19.6,119.617,26.066,132.55,39z"/>
		<path style="fill-rule:evenodd;clip-rule:evenodd;fill:#7A1960;" d="M132,39.55C119.233,26.783,103.833,20.4,85.8,20.4
			s-33.433,6.383-46.2,19.15s-19.15,28.167-19.15,46.2c0,18.066,6.383,33.467,19.15,46.2C52.367,144.717,67.767,151.1,85.8,151.1
			s33.434-6.383,46.2-19.149s19.15-28.167,19.15-46.2S144.767,52.316,132,39.55z M23.85,60.1c3.367-8.133,8.217-15.366,14.55-21.7
			c6.333-6.333,13.583-11.183,21.75-14.55c8.167-3.399,16.717-5.1,25.65-5.1c8.934,0,17.483,1.7,25.65,5.1
			c8.133,3.367,15.366,8.217,21.7,14.55c6.333,6.333,11.183,13.567,14.55,21.7c3.399,8.167,5.1,16.717,5.1,25.65
			s-1.7,17.483-5.1,25.65c-3.367,8.166-8.217,15.416-14.55,21.75c-6.334,6.333-13.567,11.183-21.7,14.55
			c-8.134,3.366-16.684,5.05-25.65,5.05c-8.966,0-17.517-1.684-25.65-5.05c-8.167-3.367-15.417-8.217-21.75-14.55
			c-6.333-6.334-11.183-13.584-14.55-21.75c-3.4-8.167-5.1-16.717-5.1-25.65S20.45,68.267,23.85,60.1z"/>
	</g>
	
		<radialGradient id="SVGID_6_" cx="85.7754" cy="83.625" r="59.375" gradientTransform="matrix(1 0 0 -1 0 167.25)" gradientUnits="userSpaceOnUse">
		<stop  offset="0.1059" style="stop-color:#F8EFD5"/>
		<stop  offset="0.5882" style="stop-color:#FA8BC5"/>
		<stop  offset="0.7098" style="stop-color:#F789C3;stop-opacity:0.9686"/>
		<stop  offset="0.8039" style="stop-color:#ED82BC;stop-opacity:0.8706"/>
		<stop  offset="0.8824" style="stop-color:#DE78B1;stop-opacity:0.7059"/>
		<stop  offset="0.9608" style="stop-color:#C768A2;stop-opacity:0.4745"/>
		<stop  offset="1" style="stop-color:#B85E97;stop-opacity:0.3176"/>
	</radialGradient>
	<path style="fill-rule:evenodd;clip-rule:evenodd;fill:url(#SVGID_6_);" d="M127.8,41.65c11.601,11.6,17.4,25.583,17.4,41.95
		c0,16.4-5.8,30.4-17.4,42c-11.6,11.566-25.6,17.351-42,17.351c-16.433,0-30.45-5.784-42.05-17.351c-11.6-11.6-17.4-25.6-17.4-42
		c0-16.366,5.8-30.35,17.4-41.95C55.35,30.083,69.367,24.3,85.8,24.3C102.2,24.3,116.2,30.083,127.8,41.65z"/>
	<g>
		<linearGradient id="SVGID_7_" gradientUnits="userSpaceOnUse" x1="48.5747" y1="45.7373" x2="48.5747" y2="66.2623">
			<stop  offset="0" style="stop-color:#CA2897"/>
			<stop  offset="0.1686" style="stop-color:#D148A0"/>
			<stop  offset="0.5255" style="stop-color:#E58FB7"/>
			<stop  offset="0.902" style="stop-color:#FDDDD1"/>
		</linearGradient>
		<path style="fill-rule:evenodd;clip-rule:evenodd;fill:url(#SVGID_7_);" d="M38.55,54.15c-0.6-1.567-0.433-3.15,0.5-4.75
			c0.934-1.667,2.45-2.55,4.55-2.65c0.767-0.066,1.417,0.167,1.95,0.7l0.5,0.7l0.95-0.6c1.434-1.233,3.167-1.85,5.2-1.85
			c0.533,0,1.216,0.083,2.05,0.25l0.25,0.1c2.033,0.733,3.3,1.7,3.8,2.9c0.4,0.966,0.4,1.983,0,3.05
			c-0.233,0.467-0.466,0.816-0.7,1.05c0.633,0.4,1.183,0.934,1.65,1.6c0.567,0.867,0.9,1.85,1,2.95c0.1,1.134-0.066,2.217-0.5,3.25
			c-0.5,1.267-1.333,2.284-2.5,3.05c-1.167,0.733-2.5,1.1-4,1.1c-1.233,0-2.467-0.267-3.7-0.8c-1.267,1.366-2.866,2.05-4.8,2.05
			c-1.2,0-2.367-0.283-3.5-0.85c-1.133-0.534-2.083-1.284-2.85-2.25c-1.367-1.667-1.816-3.567-1.35-5.7
			c0.233-1.101,0.784-2.084,1.65-2.95L38.55,54.15z"/>
		<path style="fill-rule:evenodd;clip-rule:evenodd;fill:none;stroke:#F7E0E7;stroke-width:0.25;" d="M38.55,54.15
			c-0.6-1.567-0.433-3.15,0.5-4.75c0.934-1.667,2.45-2.55,4.55-2.65c0.767-0.066,1.417,0.167,1.95,0.7l0.5,0.7l0.95-0.6
			c1.434-1.233,3.167-1.85,5.2-1.85c0.533,0,1.216,0.083,2.05,0.25l0.25,0.1c2.033,0.733,3.3,1.7,3.8,2.9
			c0.4,0.966,0.4,1.983,0,3.05c-0.233,0.467-0.466,0.816-0.7,1.05c0.633,0.4,1.183,0.934,1.65,1.6c0.567,0.867,0.9,1.85,1,2.95
			c0.1,1.134-0.066,2.217-0.5,3.25c-0.5,1.267-1.333,2.284-2.5,3.05c-1.167,0.733-2.5,1.1-4,1.1c-1.233,0-2.467-0.267-3.7-0.8
			c-1.267,1.366-2.866,2.05-4.8,2.05c-1.2,0-2.367-0.283-3.5-0.85c-1.133-0.534-2.083-1.284-2.85-2.25
			c-1.367-1.667-1.816-3.567-1.35-5.7c0.233-1.101,0.784-2.084,1.65-2.95L38.55,54.15z"/>
		<path style="fill-rule:evenodd;clip-rule:evenodd;fill:#21230C;" d="M45.2,55.65l-0.9,0.1l-0.4-0.05l-0.05,0.1
			c-0.233,0.333-0.383,0.717-0.45,1.15c-0.066,0.433-0.05,0.783,0.05,1.05c0.1,0.267,0.267,0.417,0.5,0.45
			c0.267,0.066,0.466,0,0.6-0.2C44.983,57.816,45.2,56.95,45.2,55.65z M52.2,47.75c0.5,0,1,0.05,1.5,0.15l0.1,0.05
			c1.467,0.533,2.35,1.133,2.65,1.8c0.167,0.467,0.15,0.95-0.05,1.45c-0.267,0.633-0.966,1.033-2.1,1.2
			c-0.4,0.067-0.667,0.133-0.8,0.2c-0.566,0.233-1.033,0.834-1.4,1.8c-0.467,1.034-0.517,1.917-0.15,2.65
			c0.233,0.4,0.55,0.617,0.95,0.65l0.15,0.05c0.367,0,0.65-0.134,0.85-0.4c0.167-0.366,0.15-0.767-0.05-1.2
			c-0.3-0.534-0.434-0.983-0.4-1.35c0-0.366,0.167-0.55,0.5-0.55l0.45-0.05c1.367,0,2.417,0.533,3.15,1.6
			c0.833,1.2,0.95,2.634,0.35,4.3C57.533,61,56.934,61.7,56.1,62.2s-1.783,0.75-2.85,0.75c-1.733,0-3.183-0.534-4.35-1.601
			l-0.05,0.101c-0.133,0.466-0.317,0.833-0.55,1.1c-0.833,1.1-2.017,1.65-3.55,1.65c-0.9,0-1.783-0.2-2.65-0.601
			c-0.867-0.433-1.583-1-2.15-1.7c-0.934-1.2-1.25-2.517-0.95-3.95c0.167-0.733,0.517-1.367,1.05-1.9
			c0.5-0.533,1.083-0.883,1.75-1.05c-0.667-0.5-1.116-1.033-1.35-1.6c-0.367-0.966-0.25-1.95,0.35-2.95
			c0.567-1.067,1.534-1.634,2.9-1.7c0.167,0,0.3,0.05,0.4,0.15c0.133,0.1,0.2,0.25,0.2,0.45l-0.05,0.45
			c-0.033,0.333-0.017,0.55,0.05,0.65l0.6,0.1c0.6,0,1.3-0.2,2.1-0.6c0.567-0.3,1-0.584,1.3-0.851C49.4,48.2,50.7,47.75,52.2,47.75z
			"/>
		<path style="fill-rule:evenodd;clip-rule:evenodd;fill:#E0B6A2;" d="M52.95,59.55c-0.467-0.2-0.784-0.333-0.95-0.4
			c0.3,0.333,0.733,0.55,1.3,0.65c0.567,0.066,1.083-0.033,1.55-0.3c0.6-0.3,1-0.934,1.2-1.9c0.233-1,0.034-1.616-0.6-1.85
			c0,0.1,0.033,0.4,0.1,0.9c-0.066,0.567-0.333,1.15-0.8,1.75C54.083,59.233,53.483,59.616,52.95,59.55z M52.45,50.65
			c-0.233-0.133-0.767,0.067-1.6,0.6c-1,0.667-1.684,1.583-2.05,2.75c-0.833,2.6-0.366,4.717,1.4,6.35
			c-0.3-0.466-0.583-1.083-0.85-1.85c-0.467-1.5-0.5-2.967-0.1-4.4c0.2-0.533,0.783-1.267,1.75-2.2
			C51.767,51.167,52.25,50.75,52.45,50.65z M40.35,57.9c-0.533,1.433-0.184,2.683,1.05,3.75c-0.4-0.567-0.6-1.284-0.6-2.15
			c-0.033-1.233,0.45-2.316,1.45-3.25C41.517,56.017,40.883,56.566,40.35,57.9z M43.1,55.4l0.3,0.05
			c-0.433,0.633-0.633,1.333-0.6,2.1c0.034,0.833,0.367,1.316,1,1.45c0.8,0.167,1.367-0.267,1.7-1.3c0.233-0.767,0.317-1.7,0.25-2.8
			c-0.9,0.333-1.767,0.367-2.6,0.1c-0.966-0.3-1.65-0.833-2.05-1.6c-0.434-0.867-0.383-1.767,0.15-2.7
			c0.533-0.834,1.367-1.284,2.5-1.351c0,0.167-0.017,0.434-0.05,0.8c-0.034,0.3,0.05,0.55,0.25,0.75c1.167,0.6,2.733,0.15,4.7-1.35
			c1.4-1.133,3.05-1.483,4.95-1.05c1.967,0.667,2.733,1.483,2.3,2.45c-0.167,0.433-0.55,0.7-1.15,0.8c-0.7,0.1-1.183,0.2-1.45,0.3
			c-0.633,0.267-1.216,0.983-1.75,2.15c-0.366,0.833-0.483,1.633-0.35,2.399c0.167,0.934,0.7,1.483,1.6,1.65
			c0.3,0.066,0.6,0.05,0.9-0.05c0.333-0.134,0.566-0.334,0.7-0.601c0.267-0.5,0.284-0.983,0.05-1.45C54.15,55.517,54,55.066,54,54.8
			c1.5-0.133,2.567,0.384,3.2,1.55c0.6,1.034,0.65,2.2,0.15,3.5c-0.667,1.667-2.017,2.517-4.05,2.55c-1.966,0-3.483-0.683-4.55-2.05
			c-0.133,0.233-0.283,0.55-0.45,0.95c-0.133,0.4-0.283,0.7-0.45,0.9c-1.367,1.7-3.217,1.983-5.55,0.85
			c-2.333-1.133-3.233-2.8-2.7-5c0.167-0.833,0.6-1.5,1.3-2C41.567,55.55,42.3,55.333,43.1,55.4z M41.95,51.35
			c-0.367,0.934-0.233,1.733,0.4,2.4c0.566,0.6,1.15,0.85,1.75,0.75c-0.867-0.8-1.333-1.283-1.4-1.45
			c-0.467-0.733-0.4-1.616,0.2-2.65C42.533,50.467,42.217,50.783,41.95,51.35z M45.9,53.15c0.867-0.034,1.5-0.216,1.9-0.55
			c0.7-0.466,1.333-0.883,1.9-1.25c1.133-0.7,2.033-1.083,2.7-1.149c-0.6-0.601-1.6-0.5-3,0.3c-1.4,1-2.25,1.55-2.55,1.65
			c-0.333,0.167-0.717,0.267-1.15,0.3c-0.9,0.1-1.65-0.167-2.25-0.8C43.883,52.684,44.7,53.184,45.9,53.15z M47.2,54.55l-0.75,0.35
			c0.2,1.067,0.133,2.25-0.2,3.55c-0.267,0.899-0.783,1.416-1.55,1.55c-0.767,0.133-1.15,0.217-1.15,0.25
			c1.867,0.5,3.034-0.267,3.5-2.3C47.15,55.75,47.2,54.616,47.2,54.55z"/>
		<path style="fill-rule:evenodd;clip-rule:evenodd;fill:#E8F6BE;" d="M54.85,59.5c-0.467,0.267-0.983,0.366-1.55,0.3
			c-0.566-0.1-1-0.316-1.3-0.65c0.167,0.067,0.483,0.2,0.95,0.4c0.533,0.066,1.133-0.316,1.8-1.15c0.467-0.6,0.733-1.183,0.8-1.75
			c-0.066-0.5-0.1-0.8-0.1-0.9c0.633,0.233,0.833,0.85,0.6,1.85C55.85,58.566,55.45,59.2,54.85,59.5z"/>
		<path style="fill-rule:evenodd;clip-rule:evenodd;fill:#E8F6BE;" d="M52.45,50.65c-0.2,0.1-0.684,0.517-1.45,1.25
			c-0.967,0.933-1.55,1.667-1.75,2.2c-0.4,1.434-0.367,2.9,0.1,4.4c0.267,0.767,0.55,1.383,0.85,1.85
			c-1.767-1.633-2.233-3.75-1.4-6.35c0.367-1.167,1.05-2.083,2.05-2.75C51.684,50.717,52.217,50.517,52.45,50.65z"/>
		<path style="fill-rule:evenodd;clip-rule:evenodd;fill:#E8F6BE;" d="M52.4,50.2c-0.667,0.066-1.566,0.45-2.7,1.149
			c-0.567,0.367-1.2,0.784-1.9,1.25c-0.4,0.334-1.033,0.517-1.9,0.55c-1.2,0.034-2.017-0.466-2.45-1.5c0.6,0.633,1.35,0.9,2.25,0.8
			c0.433-0.034,0.816-0.134,1.15-0.3c0.3-0.1,1.15-0.65,2.55-1.65C50.8,49.7,51.8,49.6,52.4,50.2z"/>
		<path style="fill-rule:evenodd;clip-rule:evenodd;fill:#E8F6BE;" d="M43.55,60.25c0-0.033,0.384-0.117,1.15-0.25
			c0.767-0.134,1.283-0.65,1.55-1.55c0.333-1.3,0.4-2.483,0.2-3.55l0.75-0.35c0,0.066-0.05,1.2-0.15,3.4
			C46.583,59.983,45.417,60.75,43.55,60.25z"/>
		<path style="fill-rule:evenodd;clip-rule:evenodd;fill:#E8F6BE;" d="M41.95,51.35c0.267-0.566,0.583-0.883,0.95-0.95
			c-0.6,1.034-0.667,1.917-0.2,2.65c0.066,0.167,0.533,0.65,1.4,1.45c-0.6,0.1-1.184-0.15-1.75-0.75
			C41.717,53.083,41.583,52.283,41.95,51.35z"/>
		<path style="fill-rule:evenodd;clip-rule:evenodd;fill:#E8F6BE;" d="M42.25,56.25c-1,0.934-1.483,2.017-1.45,3.25
			c0,0.866,0.2,1.583,0.6,2.15c-1.233-1.067-1.583-2.317-1.05-3.75C40.883,56.566,41.517,56.017,42.25,56.25z"/>
	</g>
	<g>
		
			<linearGradient id="SVGID_8_" gradientUnits="userSpaceOnUse" x1="-66.3765" y1="123.2891" x2="-45.8515" y2="123.2891" gradientTransform="matrix(4.872107e-005 -1 1 -0.001 -4.803176e-005 4.439838e-004)">
			<stop  offset="0" style="stop-color:#CA2897"/>
			<stop  offset="0.1686" style="stop-color:#D148A0"/>
			<stop  offset="0.5255" style="stop-color:#E58FB7"/>
			<stop  offset="0.902" style="stop-color:#FDDDD1"/>
		</linearGradient>
		<path style="fill-rule:evenodd;clip-rule:evenodd;fill:url(#SVGID_8_);" d="M112.65,54.65c0.366-0.6,0.899-1.133,1.6-1.6
			c-0.267-0.267-0.483-0.616-0.65-1.05c-0.433-1.033-0.449-2.05-0.05-3.05c0.533-1.233,1.817-2.2,3.851-2.9l0.25-0.1
			c0.767-0.167,1.449-0.25,2.05-0.25c1.967,0,3.7,0.616,5.2,1.85l0.899,0.6l0.5-0.7c0.567-0.534,1.217-0.767,1.95-0.7
			c2.066,0.1,3.6,0.983,4.6,2.65c0.9,1.567,1.051,3.15,0.45,4.75l-0.149,0.35c0.866,0.866,1.416,1.85,1.649,2.95
			c0.5,2.066,0.067,3.966-1.3,5.7c-0.767,0.966-1.717,1.716-2.85,2.25c-1.167,0.567-2.351,0.85-3.551,0.85
			c-1.933,0-3.533-0.684-4.8-2.05c-1.166,0.533-2.383,0.8-3.649,0.8c-1.533,0-2.884-0.367-4.051-1.1c-1.166-0.767-2-1.784-2.5-3.05
			c-0.433-1.066-0.6-2.149-0.5-3.25C111.7,56.467,112.05,55.483,112.65,54.65z"/>
		<path style="fill-rule:evenodd;clip-rule:evenodd;fill:none;stroke:#F7E0E7;stroke-width:0.25;" d="M112.65,54.65
			c-0.601,0.833-0.95,1.817-1.051,2.95c-0.1,1.101,0.067,2.184,0.5,3.25c0.5,1.267,1.334,2.284,2.5,3.05
			c1.167,0.733,2.518,1.1,4.051,1.1c1.267,0,2.483-0.267,3.649-0.8c1.267,1.366,2.867,2.05,4.8,2.05c1.2,0,2.384-0.283,3.551-0.85
			c1.133-0.534,2.083-1.284,2.85-2.25c1.367-1.733,1.8-3.633,1.3-5.7c-0.233-1.101-0.783-2.084-1.649-2.95l0.149-0.35
			c0.601-1.6,0.45-3.183-0.45-4.75c-1-1.667-2.533-2.55-4.6-2.65c-0.733-0.066-1.383,0.167-1.95,0.7l-0.5,0.7l-0.899-0.6
			c-1.5-1.233-3.233-1.85-5.2-1.85c-0.601,0-1.283,0.083-2.05,0.25l-0.25,0.1c-2.033,0.7-3.317,1.667-3.851,2.9
			c-0.399,1-0.383,2.017,0.05,3.05c0.167,0.434,0.384,0.783,0.65,1.05C113.55,53.517,113.017,54.05,112.65,54.65z"/>
		<path style="fill-rule:evenodd;clip-rule:evenodd;fill:#21230C;" d="M119.7,47.75c1.467,0,2.75,0.45,3.85,1.35
			c0.3,0.267,0.75,0.55,1.351,0.851c0.8,0.399,1.483,0.6,2.05,0.6l0.649-0.1c0.034-0.134,0.034-0.351,0-0.65l-0.05-0.45
			c0-0.166,0.067-0.316,0.2-0.45c0.1-0.1,0.233-0.15,0.4-0.15c1.333,0.066,2.316,0.633,2.949,1.7c0.567,1,0.667,1.983,0.301,2.95
			c-0.267,0.633-0.717,1.167-1.351,1.6c0.667,0.167,1.267,0.517,1.8,1.05c0.5,0.533,0.834,1.167,1,1.9
			c0.334,1.433,0.018,2.75-0.949,3.95c-0.567,0.7-1.283,1.267-2.15,1.7C128.884,64,128,64.2,127.1,64.2
			c-1.466,0-2.633-0.55-3.5-1.65c-0.166-0.2-0.366-0.566-0.6-1.1l-0.05-0.101c-1.167,1.067-2.601,1.601-4.3,1.601
			c-1.101,0-2.067-0.25-2.9-0.75S114.333,61,114,60.1c-0.633-1.6-0.533-3.033,0.3-4.3c0.733-1.066,1.783-1.6,3.15-1.6l0.45,0.05
			c0.333,0,0.5,0.184,0.5,0.55c0.033,0.3-0.084,0.75-0.351,1.35c-0.233,0.433-0.25,0.833-0.05,1.2c0.134,0.267,0.4,0.4,0.8,0.4
			l0.15-0.05c0.399-0.034,0.717-0.25,0.95-0.65c0.366-0.667,0.333-1.55-0.101-2.65c-0.467-1-0.95-1.6-1.45-1.8
			c-0.133-0.066-0.399-0.133-0.8-0.2c-1.133-0.167-1.833-0.567-2.1-1.2c-0.2-0.5-0.2-0.983,0-1.45c0.3-0.7,1.184-1.3,2.649-1.8
			l0.051-0.05C118.65,47.8,119.167,47.75,119.7,47.75z M127.95,55.7l-0.4,0.05l-0.899-0.1c0,1.3,0.217,2.167,0.649,2.6
			c0.134,0.2,0.351,0.267,0.65,0.2c0.2-0.034,0.35-0.184,0.45-0.45c0.133-0.267,0.149-0.617,0.05-1.05
			c-0.066-0.434-0.217-0.817-0.45-1.15L127.95,55.7z"/>
		<path style="fill-rule:evenodd;clip-rule:evenodd;fill:#E0B6A2;" d="M117.15,51.75c-0.601-0.1-0.983-0.367-1.15-0.8
			c-0.434-1,0.316-1.817,2.25-2.45c1.9-0.434,3.55-0.083,4.95,1.05c1.967,1.5,3.55,1.95,4.75,1.35c0.167-0.2,0.25-0.45,0.25-0.75
			c-0.033-0.367-0.05-0.633-0.05-0.8c1.1,0.067,1.916,0.517,2.449,1.351c0.534,0.933,0.584,1.833,0.15,2.7
			c-0.4,0.767-1.083,1.3-2.05,1.6c-0.833,0.267-1.7,0.233-2.601-0.1c-0.066,1.1,0.018,2.034,0.25,2.8c0.334,1.033,0.9,1.466,1.7,1.3
			c0.667-0.134,1.017-0.617,1.05-1.45c0-0.767-0.216-1.467-0.649-2.1l0.3-0.05c0.8-0.067,1.533,0.15,2.2,0.65
			c0.7,0.5,1.149,1.167,1.35,2c0.5,2.2-0.416,3.867-2.75,5c-2.3,1.134-4.133,0.85-5.5-0.85c-0.166-0.2-0.333-0.5-0.5-0.9
			c-0.166-0.434-0.316-0.75-0.45-0.95c-1.033,1.367-2.533,2.05-4.5,2.05c-2.066-0.034-3.433-0.883-4.1-2.55
			c-0.5-1.267-0.45-2.433,0.15-3.5c0.666-1.166,1.733-1.683,3.199-1.55c0,0.267-0.149,0.717-0.449,1.35
			c-0.233,0.466-0.217,0.95,0.05,1.45c0.133,0.267,0.366,0.467,0.7,0.601c0.3,0.1,0.6,0.116,0.899,0.05
			c0.9-0.167,1.434-0.717,1.601-1.65c0.133-0.767,0.017-1.566-0.351-2.399c-0.433-1.101-1-1.817-1.7-2.15
			C117.967,51.917,117.483,51.816,117.15,51.75z M116.35,56.65c-0.033-0.133,0-0.433,0.101-0.9c-0.634,0.233-0.833,0.85-0.601,1.85
			c0.2,0.967,0.584,1.601,1.15,1.9c0.467,0.267,0.983,0.366,1.55,0.3c0.567-0.1,1-0.316,1.3-0.65c-0.333,0.267-0.649,0.4-0.949,0.4
			c-0.533,0.066-1.134-0.316-1.801-1.15C116.6,57.8,116.35,57.217,116.35,56.65z M129,50.4c0.566,1.034,0.634,1.917,0.2,2.65
			c-0.101,0.167-0.583,0.65-1.45,1.45c0.6,0.1,1.184-0.15,1.75-0.75c0.667-0.667,0.816-1.467,0.45-2.4
			C129.65,50.783,129.333,50.467,129,50.4z M125,52.15c-0.967-0.7-1.816-1.25-2.55-1.65c-1.367-0.8-2.367-0.9-3-0.3
			c0.7,0.066,1.6,0.45,2.7,1.149c0.566,0.367,1.199,0.784,1.899,1.25c2.267,1,3.717,0.684,4.351-0.95
			c-0.567,0.633-1.301,0.9-2.2,0.8L125,52.15z M122.6,54.1c0.4,1.434,0.367,2.9-0.1,4.4c-0.233,0.767-0.5,1.383-0.8,1.85
			c1.733-1.633,2.184-3.75,1.35-6.35c-0.366-1.167-1.05-2.083-2.05-2.75c-0.8-0.533-1.333-0.733-1.6-0.6
			c0.199,0.1,0.683,0.517,1.449,1.25C121.816,52.833,122.4,53.566,122.6,54.1z M127.2,60c-0.767-0.134-1.3-0.65-1.601-1.55
			c-0.333-1.3-0.399-2.483-0.199-3.55l-0.75-0.35c0.033,0.066,0.083,1.2,0.149,3.4c0.467,2.033,1.634,2.8,3.5,2.3
			C128.3,60.217,127.934,60.133,127.2,60z M130.45,61.65c1.233-1.067,1.583-2.317,1.05-3.75c-0.533-1.333-1.167-1.883-1.9-1.65
			c1.034,0.934,1.534,2.017,1.5,3.25C131.066,60.366,130.85,61.083,130.45,61.65z"/>
		<path style="fill-rule:evenodd;clip-rule:evenodd;fill:#E8F6BE;" d="M117,59.5c-0.566-0.3-0.95-0.934-1.15-1.9
			c-0.232-1-0.033-1.616,0.601-1.85c-0.101,0.467-0.134,0.767-0.101,0.9c0,0.567,0.25,1.15,0.75,1.75
			c0.667,0.833,1.268,1.216,1.801,1.15c0.3,0,0.616-0.133,0.949-0.4c-0.3,0.333-0.732,0.55-1.3,0.65
			C117.983,59.866,117.467,59.767,117,59.5z"/>
		<path style="fill-rule:evenodd;clip-rule:evenodd;fill:#E8F6BE;" d="M120.85,51.9c-0.767-0.733-1.25-1.15-1.449-1.25
			c0.267-0.133,0.8,0.067,1.6,0.6c1,0.667,1.684,1.583,2.05,2.75c0.834,2.6,0.384,4.717-1.35,6.35c0.3-0.466,0.566-1.083,0.8-1.85
			c0.467-1.5,0.5-2.967,0.1-4.4C122.4,53.566,121.816,52.833,120.85,51.9z"/>
		<path style="fill-rule:evenodd;clip-rule:evenodd;fill:#E8F6BE;" d="M122.15,51.35c-1.101-0.7-2-1.083-2.7-1.149
			c0.633-0.601,1.633-0.5,3,0.3c0.733,0.4,1.583,0.95,2.55,1.65l1.2,0.3c0.899,0.1,1.633-0.167,2.2-0.8
			c-0.634,1.633-2.084,1.95-4.351,0.95C123.35,52.133,122.717,51.717,122.15,51.35z"/>
		<path style="fill-rule:evenodd;clip-rule:evenodd;fill:#E8F6BE;" d="M128.3,60.25c-1.866,0.5-3.033-0.267-3.5-2.3
			c-0.066-2.2-0.116-3.334-0.149-3.4l0.75,0.35c-0.2,1.067-0.134,2.25,0.199,3.55c0.301,0.899,0.834,1.416,1.601,1.55
			C127.934,60.133,128.3,60.217,128.3,60.25z"/>
		<path style="fill-rule:evenodd;clip-rule:evenodd;fill:#E8F6BE;" d="M129.95,51.35c0.366,0.934,0.217,1.733-0.45,2.4
			c-0.566,0.6-1.15,0.85-1.75,0.75c0.867-0.8,1.35-1.283,1.45-1.45c0.434-0.733,0.366-1.616-0.2-2.65
			C129.333,50.467,129.65,50.783,129.95,51.35z"/>
		<path style="fill-rule:evenodd;clip-rule:evenodd;fill:#E8F6BE;" d="M129.6,56.25c0.733-0.233,1.367,0.316,1.9,1.65
			c0.533,1.433,0.184,2.683-1.05,3.75c0.399-0.567,0.616-1.284,0.649-2.15C131.134,58.267,130.634,57.184,129.6,56.25z"/>
	</g>
	<g>
		<path style="fill-rule:evenodd;clip-rule:evenodd;fill:#B9CF7E;" d="M85.15,61.45h1.75l0.3-0.05l0.3,0.05L94.05,62h0.05
			l2.351,0.45L97.6,62.8H97.7l1.35,0.4l0.55,0.25H99.7l1.149,0.45L101,64h-0.05l0.2,0.05l0.149,0.1
			c0.767,0.367,1.351,0.933,1.75,1.7c0.4,0.733,0.533,1.534,0.4,2.4v0.15l-0.851,6.35c0.467,0.4,0.801,0.717,1,0.95
			c1.233,1.399,2,2.95,2.301,4.649v0.15l0.05,0.15c0.833,1.7,0.684,3.6-0.45,5.7l-1.25,7.5l3.25,1.4c3.4,1.666,5.6,3.267,6.6,4.8
			l0.301,0.7c0.233,0.6,0.366,2.033,0.399,4.3c0.067,3.233,0.05,10.717-0.05,22.45c0.733,2.333,0.35,4.366-1.15,6.1
			c-1.399,1.667-3.533,3.101-6.399,4.301c-4.066,1.699-9.283,2.8-15.65,3.3c-1.1,0.2-2.333,0.3-3.7,0.3H83.7
			c-1.333,0-2.6-0.1-3.8-0.3c-6.333-0.5-11.517-1.601-15.55-3.3c-2.867-1.2-5-2.634-6.4-4.301c-1.5-1.733-1.883-3.767-1.15-6.1
			c-0.1-11.7-0.116-19.184-0.05-22.45c0.033-2.267,0.15-3.667,0.35-4.2c0.2-0.566,0.467-1.033,0.8-1.399
			c0.967-1.233,3.034-2.634,6.2-4.2c0.967-0.5,2.033-0.967,3.2-1.4c-0.7-4-1.116-6.5-1.25-7.5c-1.133-2.1-1.267-4.017-0.4-5.75
			v-0.25c0.3-1.767,1.067-3.316,2.3-4.649c0.4-0.467,0.883-0.9,1.45-1.3l-0.25-1.6c-0.433-2.767-0.65-4.35-0.65-4.75
			c0-1.4,0.617-2.517,1.85-3.35c2.267-1.534,6.583-2.567,12.95-3.101L85.15,61.45z"/>
		
			<linearGradient id="SVGID_9_" gradientUnits="userSpaceOnUse" x1="-140.5874" y1="85.7769" x2="-60.5391" y2="85.7769" gradientTransform="matrix(1.248829e-005 -1 1 -0.001 1.683773e-004 4.449275e-004)">
			<stop  offset="0" style="stop-color:#CA2897"/>
			<stop  offset="0.1686" style="stop-color:#D148A0"/>
			<stop  offset="0.5255" style="stop-color:#E58FB7"/>
			<stop  offset="0.902" style="stop-color:#FDDDD1"/>
		</linearGradient>
		<path style="fill-rule:evenodd;clip-rule:evenodd;fill:url(#SVGID_9_);" d="M83.3,60.55l5.8-0.1l3.601,0.3l0.45,0.1l0.899,0.101
			L94.1,61c0.167,0.033,0.95,0.184,2.351,0.45l1,0.25l0.149,0.05l0.051,0.05h0.05l1.899,0.6l0.101,0.05l1.149,0.45L101,63
			l-0.05-0.05l0.2,0.1l0.149,0.1c0.767,0.367,1.351,0.933,1.75,1.7c0.4,0.733,0.533,1.534,0.4,2.4v0.1L102.6,73.7l1,1
			c1.233,1.333,2,2.883,2.301,4.649v0.15l0.05,0.1c0.833,1.733,0.684,3.65-0.45,5.75l-1.25,7.5l3.25,1.351
			c3.5,1.767,5.7,3.383,6.6,4.85l0.301,0.7c0.233,0.566,0.366,1.983,0.399,4.25c0.067,3.233,0.05,10.733-0.05,22.5
			c0.733,2.3,0.35,4.333-1.15,6.1c-1.433,1.634-3.566,3.051-6.399,4.25c-4.066,1.733-9.283,2.851-15.65,3.351
			c-1.1,0.2-2.333,0.3-3.7,0.3H83.7c-1.333,0-2.6-0.1-3.8-0.3c-6.3-0.5-11.483-1.617-15.55-3.351c-2.833-1.199-4.967-2.616-6.4-4.25
			c-1.5-1.767-1.883-3.8-1.15-6.1c-0.1-11.7-0.116-19.184-0.05-22.45c0.033-2.267,0.15-3.667,0.35-4.2
			c0.2-0.533,0.467-1.017,0.8-1.449c0.9-1.167,2.967-2.567,6.2-4.2c0.7-0.334,1.767-0.784,3.2-1.351
			c-0.7-3.866-1.116-6.366-1.25-7.5c-1.133-2.133-1.267-4.05-0.4-5.75v-0.3c0.333-1.733,1.1-3.267,2.3-4.6
			c0.3-0.4,0.783-0.834,1.45-1.3l-0.25-1.6c-0.433-2.767-0.65-4.35-0.65-4.75c0-1.4,0.617-2.517,1.85-3.35
			C72.617,62.133,76.934,61.083,83.3,60.55z"/>
		<path style="fill-rule:evenodd;clip-rule:evenodd;fill:none;stroke:#F7E0E7;stroke-width:0.25;" d="M83.3,60.55
			c-6.366,0.533-10.683,1.583-12.95,3.15c-1.233,0.833-1.85,1.95-1.85,3.35c0,0.4,0.217,1.983,0.65,4.75l0.25,1.6
			c-0.667,0.466-1.15,0.9-1.45,1.3c-1.2,1.333-1.967,2.866-2.3,4.6v0.3c-0.867,1.7-0.733,3.617,0.4,5.75
			c0.134,1.134,0.55,3.634,1.25,7.5c-1.433,0.566-2.5,1.017-3.2,1.351c-3.233,1.633-5.3,3.033-6.2,4.2
			c-0.333,0.433-0.6,0.916-0.8,1.449c-0.2,0.533-0.317,1.934-0.35,4.2c-0.066,3.267-0.05,10.75,0.05,22.45
			c-0.733,2.3-0.35,4.333,1.15,6.1c1.433,1.634,3.566,3.051,6.4,4.25c4.066,1.733,9.25,2.851,15.55,3.351c1.2,0.2,2.467,0.3,3.8,0.3
			h4.149c1.367,0,2.601-0.1,3.7-0.3c6.367-0.5,11.584-1.617,15.65-3.351c2.833-1.199,4.967-2.616,6.399-4.25
			c1.5-1.767,1.884-3.8,1.15-6.1c0.1-11.767,0.117-19.267,0.05-22.5c-0.033-2.267-0.166-3.684-0.399-4.25l-0.301-0.7
			c-0.899-1.467-3.1-3.083-6.6-4.85l-3.25-1.351l1.25-7.5c1.134-2.1,1.283-4.017,0.45-5.75l-0.05-0.1v-0.15
			c-0.301-1.767-1.067-3.316-2.301-4.649l-1-1l0.851-6.351v-0.1c0.133-0.867,0-1.667-0.4-2.4c-0.399-0.767-0.983-1.333-1.75-1.7
			l-0.149-0.1l-0.2-0.1L101,63l-0.15-0.1L99.7,62.45L99.6,62.4L97.7,61.8h-0.05L97.6,61.75L97.45,61.7l-1-0.25
			c-1.4-0.267-2.184-0.417-2.351-0.45l-0.05-0.05L93.15,60.85l-0.45-0.1l-3.601-0.3L83.3,60.55z"/>
		<path style="fill-rule:evenodd;clip-rule:evenodd;fill:#21230C;" d="M100.45,66.85c-0.033,0.134-0.283,1.784-0.75,4.95l-0.3,3.45
			c0.8,0.467,1.449,0.967,1.949,1.5c0.801,0.866,1.317,1.866,1.551,3v0.45c-0.067,0.166-0.067,0.283,0,0.35
			c0.733,0.867,0.683,2.017-0.15,3.45l-0.2,0.4c-0.066,0.966-0.649,4.433-1.75,10.4c2.634,0.967,4.4,1.684,5.3,2.15
			c3.067,1.533,4.851,2.75,5.351,3.649l0.149,0.25c0.2,0.7,0.233,9.434,0.101,26.2c0.6,1.4,0.467,2.583-0.4,3.55
			c-1.133,1.301-2.916,2.467-5.35,3.5c-3.8,1.601-8.717,2.634-14.75,3.101c-1.101,0.166-2.217,0.25-3.351,0.25H83.7
			c-1.2,0-2.35-0.101-3.45-0.3c-6-0.434-10.883-1.45-14.65-3.051c-2.434-1.033-4.217-2.199-5.35-3.5c-0.833-1-0.967-2.184-0.4-3.55
			c-0.133-16.733-0.1-25.45,0.1-26.149l0.35-0.601c0.6-0.833,2.317-1.95,5.15-3.35c0.767-0.4,2.533-1.117,5.3-2.15
			c-1.033-5.6-1.617-9.066-1.75-10.4L68.8,84c-0.833-1.434-0.883-2.583-0.15-3.45l0.05-0.3l-0.05-0.4l0.05-0.1
			c0-0.267,0.1-0.634,0.3-1.1c0.267-0.7,0.667-1.35,1.2-1.95c0.6-0.634,1.45-1.217,2.55-1.75l-1.2-7.9c0-0.8,1.284-1.517,3.85-2.15
			c2.233-0.6,4.967-1.034,8.2-1.3c0.733-0.066,1.3-0.1,1.7-0.1l5,0.05l3.2,0.4h0.05l3.101,0.7l0.1,0.05l-0.15,1l0.301-0.95
			L98.6,65.3H98.7l1.25,0.55C100.35,66.05,100.517,66.383,100.45,66.85z"/>
		<g>
			<g>
				<path style="fill-rule:evenodd;clip-rule:evenodd;fill:#B9D0D7;" d="M100.1,77.8c0.634,0.733,1,1.45,1.101,2.15v0.55
					c0.033,0.4,0.167,0.75,0.399,1.05c0.233,0.3,0.184,0.75-0.149,1.35c-0.4,0.767-0.601,1.216-0.601,1.35L98.9,95.9l2.399,0.85
					c1.8,0.633,3.15,1.184,4.05,1.65c1.134,0.533,2.15,1.1,3.051,1.699c0.967,0.634,1.5,1.084,1.6,1.351
					c0.1,0.2,0.134,4.583,0.1,13.149c-0.033,4.301-0.066,8.566-0.1,12.801l0.3,0.75c0.134,0.566,0.033,1.033-0.3,1.399
					c-0.9,1.033-2.333,1.983-4.3,2.851c-3.667,1.633-8.55,2.683-14.65,3.149c-1.1,0.167-2.166,0.25-3.2,0.25H83.7
					c-1.034,0-2.1-0.083-3.2-0.25c-6.066-0.467-10.933-1.517-14.6-3.149c-2-0.867-3.45-1.817-4.35-2.851
					c-0.333-0.366-0.433-0.833-0.3-1.399l0.3-0.75c-0.033-4.234-0.05-8.5-0.05-12.801c-0.033-8.566-0.017-12.949,0.05-13.149
					c0.2-0.601,1.75-1.617,4.65-3.05c0.9-0.467,2.25-1.018,4.05-1.65c0.9-0.334,1.7-0.617,2.4-0.85L70.7,84.25
					c0-0.134-0.2-0.583-0.6-1.35c-0.3-0.6-0.35-1.05-0.15-1.35c0.267-0.3,0.417-0.65,0.45-1.05l-0.05-0.55
					c0.1-0.7,0.467-1.417,1.1-2.15c1.933-2.133,6.683-3.2,14.25-3.2C93.367,74.6,98.167,75.667,100.1,77.8z"/>
				
					<radialGradient id="SVGID_10_" cx="85.9502" cy="129.7002" r="24.35" gradientTransform="matrix(1 0 0 -0.3465 0 174.6425)" gradientUnits="userSpaceOnUse">
					<stop  offset="0" style="stop-color:#213233;stop-opacity:0.498"/>
					<stop  offset="0.1647" style="stop-color:#253737;stop-opacity:0.4706"/>
					<stop  offset="0.3529" style="stop-color:#304445;stop-opacity:0.3922"/>
					<stop  offset="0.549" style="stop-color:#425B5A;stop-opacity:0.2667"/>
					<stop  offset="0.749" style="stop-color:#5C7A79;stop-opacity:0.0863"/>
					<stop  offset="0.8353" style="stop-color:#698A88;stop-opacity:0"/>
				</radialGradient>
				<path style="fill-rule:evenodd;clip-rule:evenodd;fill:url(#SVGID_10_);" d="M100.1,77.8c0.634,0.733,1,1.45,1.101,2.15v0.55
					c0.033,0.4,0.167,0.75,0.399,1.05c0.233,0.3,0.184,0.75-0.149,1.35c-0.4,0.767-0.601,1.216-0.601,1.35L98.9,95.9l2.399,0.85
					c1.8,0.633,3.15,1.184,4.05,1.65c1.134,0.533,2.15,1.1,3.051,1.699c0.967,0.634,1.5,1.084,1.6,1.351
					c0.1,0.2,0.134,4.583,0.1,13.149c-0.033,4.301-0.066,8.566-0.1,12.801l0.3,0.75c0.134,0.566,0.033,1.033-0.3,1.399
					c-0.9,1.033-2.333,1.983-4.3,2.851c-3.667,1.633-8.55,2.683-14.65,3.149c-1.1,0.167-2.166,0.25-3.2,0.25H83.7
					c-1.034,0-2.1-0.083-3.2-0.25c-6.066-0.467-10.933-1.517-14.6-3.149c-2-0.867-3.45-1.817-4.35-2.851
					c-0.333-0.366-0.433-0.833-0.3-1.399l0.3-0.75c-0.033-4.234-0.05-8.5-0.05-12.801c-0.033-8.566-0.017-12.949,0.05-13.149
					c0.2-0.601,1.75-1.617,4.65-3.05c0.9-0.467,2.25-1.018,4.05-1.65c0.9-0.334,1.7-0.617,2.4-0.85L70.7,84.25
					c0-0.134-0.2-0.583-0.6-1.35c-0.3-0.6-0.35-1.05-0.15-1.35c0.267-0.3,0.417-0.65,0.45-1.05l-0.05-0.55
					c0.1-0.7,0.467-1.417,1.1-2.15c1.933-2.133,6.683-3.2,14.25-3.2C93.367,74.6,98.167,75.667,100.1,77.8z"/>
				
					<radialGradient id="SVGID_11_" cx="87.416" cy="111.1299" r="26.0416" gradientTransform="matrix(0.9998 0.0193 0.016 -0.8256 -3.9246 202.8611)" gradientUnits="userSpaceOnUse">
					<stop  offset="0" style="stop-color:#E9EEF0;stop-opacity:0.1373"/>
					<stop  offset="0.2196" style="stop-color:#E7ECEE;stop-opacity:0.1412"/>
					<stop  offset="0.3569" style="stop-color:#DEE4E6;stop-opacity:0.1569"/>
					<stop  offset="0.4706" style="stop-color:#D0D7D9;stop-opacity:0.1804"/>
					<stop  offset="0.5686" style="stop-color:#BCC5C7;stop-opacity:0.2157"/>
					<stop  offset="0.6588" style="stop-color:#A2ADAF;stop-opacity:0.2588"/>
					<stop  offset="0.7451" style="stop-color:#819092;stop-opacity:0.3098"/>
					<stop  offset="0.8235" style="stop-color:#5C6E70;stop-opacity:0.3725"/>
					<stop  offset="0.898" style="stop-color:#314749;stop-opacity:0.4471"/>
					<stop  offset="0.902" style="stop-color:#2F4548;stop-opacity:0.4471"/>
					<stop  offset="1" style="stop-color:#CDFAFF;stop-opacity:0.2784"/>
				</radialGradient>
				<path style="fill-rule:evenodd;clip-rule:evenodd;fill:url(#SVGID_11_);" d="M85.65,99.05c3,0,5.483-0.184,7.449-0.55
					c2.268-0.4,4.301-1.117,6.101-2.15c-0.167-0.066-0.267-0.166-0.3-0.3V95.9l2.399,0.85c1.8,0.633,3.15,1.184,4.05,1.65
					c2.768,1.399,4.317,2.399,4.65,3c-5.366,3.633-12.934,5.449-22.7,5.449c-6.3,0-12.167-0.75-17.6-2.25
					c-3.833-1.1-6.517-2.199-8.05-3.3c0.467-0.6,1.983-1.566,4.55-2.899c0.8-0.4,2.017-0.917,3.65-1.551
					c0.867-0.3,1.767-0.616,2.7-0.949C75.917,98,80.283,99.05,85.65,99.05z"/>
				<linearGradient id="SVGID_12_" gradientUnits="userSpaceOnUse" x1="70.7998" y1="86.8242" x2="100.9998" y2="86.8242">
					<stop  offset="0" style="stop-color:#D4EFF4;stop-opacity:0.4196"/>
					<stop  offset="0.0784" style="stop-color:#527375;stop-opacity:0.4235"/>
					<stop  offset="0.349" style="stop-color:#E9EEF0;stop-opacity:0.1373"/>
					<stop  offset="0.4902" style="stop-color:#E7ECEE;stop-opacity:0.1412"/>
					<stop  offset="0.5725" style="stop-color:#DFE5E7;stop-opacity:0.1569"/>
					<stop  offset="0.6431" style="stop-color:#D0D9DB;stop-opacity:0.1843"/>
					<stop  offset="0.7059" style="stop-color:#BCC9CB;stop-opacity:0.2196"/>
					<stop  offset="0.7647" style="stop-color:#A2B4B6;stop-opacity:0.2667"/>
					<stop  offset="0.8157" style="stop-color:#82999B;stop-opacity:0.3255"/>
					<stop  offset="0.8667" style="stop-color:#5D7B7D;stop-opacity:0.3922"/>
					<stop  offset="0.902" style="stop-color:#3E6063;stop-opacity:0.4471"/>
					<stop  offset="1" style="stop-color:#CDFAFF;stop-opacity:0.4"/>
				</linearGradient>
				<path style="fill-rule:evenodd;clip-rule:evenodd;fill:url(#SVGID_12_);" d="M100.1,77.8c0.634,0.733,1,1.45,1.101,2.15v0.55
					c0.033,0.4,0.167,0.75,0.399,1.05c0.233,0.3,0.184,0.75-0.149,1.35c-0.4,0.767-0.601,1.216-0.601,1.35L98.9,95.9v0.149
					c0.033,0.134,0.133,0.233,0.3,0.3c-1.8,1.033-3.833,1.75-6.101,2.15c-1.966,0.366-4.449,0.55-7.449,0.55
					c-5.367,0-9.734-1.05-13.101-3.149h0.1L70.7,84.25c0-0.134-0.2-0.583-0.6-1.35c-0.3-0.6-0.35-1.05-0.15-1.35
					c0.267-0.3,0.417-0.65,0.45-1.05l-0.05-0.55c0.1-0.7,0.467-1.417,1.1-2.15c1.933-2.133,6.683-3.2,14.25-3.2
					C93.367,74.6,98.167,75.667,100.1,77.8z"/>
				<linearGradient id="SVGID_13_" gradientUnits="userSpaceOnUse" x1="61.1929" y1="118.5498" x2="110.3574" y2="118.5498">
					<stop  offset="0" style="stop-color:#D4EFF4;stop-opacity:0.4196"/>
					<stop  offset="0.0784" style="stop-color:#527375;stop-opacity:0.4235"/>
					<stop  offset="0.349" style="stop-color:#E9EEF0;stop-opacity:0.349"/>
					<stop  offset="0.4902" style="stop-color:#E7ECEE;stop-opacity:0.349"/>
					<stop  offset="0.5725" style="stop-color:#DFE5E7;stop-opacity:0.3529"/>
					<stop  offset="0.6431" style="stop-color:#D0D9DB;stop-opacity:0.3608"/>
					<stop  offset="0.7059" style="stop-color:#BCC9CB;stop-opacity:0.3725"/>
					<stop  offset="0.7647" style="stop-color:#A2B4B6;stop-opacity:0.3882"/>
					<stop  offset="0.8157" style="stop-color:#82999B;stop-opacity:0.4078"/>
					<stop  offset="0.8667" style="stop-color:#5D7B7D;stop-opacity:0.4314"/>
					<stop  offset="0.902" style="stop-color:#3E6063;stop-opacity:0.4471"/>
					<stop  offset="1" style="stop-color:#CDFAFF;stop-opacity:0.4"/>
				</linearGradient>
				<path style="fill-rule:evenodd;clip-rule:evenodd;fill:url(#SVGID_13_);" d="M87.3,106.85c9.767,0,17.334-1.816,22.7-5.449v0.05
					c0.1,0.2,0.134,4.583,0.1,13.149c-0.033,4.301-0.066,8.566-0.1,12.801l0.3,0.75c0.134,0.566,0.033,1.033-0.3,1.399
					c-0.9,1.033-2.333,1.983-4.3,2.851c-3.667,1.633-8.55,2.683-14.65,3.149c-1.1,0.167-2.166,0.25-3.2,0.25H83.7
					c-1.034,0-2.1-0.083-3.2-0.25c-6.066-0.467-10.933-1.517-14.6-3.149c-2-0.867-3.45-1.817-4.35-2.851
					c-0.333-0.366-0.433-0.833-0.3-1.399l0.3-0.75c-0.033-4.234-0.05-8.5-0.05-12.801c-0.033-8.566-0.017-12.949,0.05-13.149
					l0.1-0.15c1.534,1.101,4.217,2.2,8.05,3.3C75.133,106.1,81,106.85,87.3,106.85z"/>
				<linearGradient id="SVGID_14_" gradientUnits="userSpaceOnUse" x1="60.5625" y1="105.2246" x2="111.0375" y2="105.2246">
					<stop  offset="0" style="stop-color:#D4EFF4;stop-opacity:0.8471"/>
					<stop  offset="0.0784" style="stop-color:#95D0D4;stop-opacity:0.4235"/>
					<stop  offset="0.349" style="stop-color:#E9EEF0"/>
					<stop  offset="0.5176" style="stop-color:#E7ECEE;stop-opacity:0.9843"/>
					<stop  offset="0.6196" style="stop-color:#DFE7E9;stop-opacity:0.9412"/>
					<stop  offset="0.702" style="stop-color:#D1DEE0;stop-opacity:0.8667"/>
					<stop  offset="0.7804" style="stop-color:#BDD2D4;stop-opacity:0.7608"/>
					<stop  offset="0.8471" style="stop-color:#A4C1C4;stop-opacity:0.6275"/>
					<stop  offset="0.902" style="stop-color:#8AB1B4;stop-opacity:0.4863"/>
					<stop  offset="1" style="stop-color:#CDFAFF;stop-opacity:0.8196"/>
				</linearGradient>
				<path style="fill-rule:evenodd;clip-rule:evenodd;fill:url(#SVGID_14_);" d="M101.2,80.5v-0.55
					c-0.101-0.7-0.467-1.417-1.101-2.15c-1.933-2.133-6.732-3.2-14.399-3.2c-7.567,0-12.317,1.067-14.25,3.2
					c-0.633,0.733-1,1.45-1.1,2.15l0.05,0.55c-0.033,0.4-0.183,0.75-0.45,1.05c-0.2,0.3-0.15,0.75,0.15,1.35
					c0.4,0.767,0.6,1.216,0.6,1.35l1.95,11.65h-0.1c-0.933,0.333-1.833,0.649-2.7,0.949C68.217,97.483,67,98,66.2,98.4
					c-2.567,1.333-4.083,2.3-4.55,2.899l-0.1,0.15c-0.066,0.2-0.083,4.583-0.05,13.149c0,4.301,0.017,8.566,0.05,12.801l-0.3,0.75
					c-0.133,0.566-0.033,1.033,0.3,1.399c0.9,1.033,2.35,1.983,4.35,2.851c3.667,1.633,8.534,2.683,14.6,3.149
					c1.1,0.167,2.167,0.25,3.2,0.25h4.149c1.034,0,2.101-0.083,3.2-0.25c6.101-0.467,10.983-1.517,14.65-3.149
					c1.967-0.867,3.399-1.817,4.3-2.851c0.333-0.366,0.434-0.833,0.3-1.399l-0.3-0.75c0.033-4.234,0.066-8.5,0.1-12.801
					c0.034-8.566,0-12.949-0.1-13.149v-0.05c-0.333-0.601-1.883-1.601-4.65-3c-0.899-0.467-2.25-1.018-4.05-1.65L98.9,95.9
					l1.949-11.65c0-0.134,0.2-0.583,0.601-1.35c0.333-0.6,0.383-1.05,0.149-1.35C101.367,81.25,101.233,80.9,101.2,80.5z
					 M100.6,77.4c0.733,0.8,1.15,1.633,1.25,2.5l0.051,0.05l-0.051,0.1v0.4c0.034,0.3,0.134,0.55,0.301,0.75
					c0.433,0.533,0.333,1.3-0.301,2.3l-0.3,0.75c0,0.9-0.633,4.65-1.899,11.25c2.267,0.733,4.267,1.517,6,2.35
					c0.066,0.033,0.833,0.45,2.3,1.25c1.467,0.867,2.333,1.533,2.6,2l0.101,0.15c0.1,0.267,0.116,8.934,0.05,26
					c0.5,1.1,0.45,2-0.15,2.7c-1.1,1.233-2.816,2.333-5.149,3.3c-3.634,1.5-8.384,2.467-14.25,2.9c-1.033,0.199-2.134,0.3-3.301,0.3
					H83.7c-1.167,0-2.25-0.101-3.25-0.3c-5.867-0.434-10.633-1.4-14.3-2.9c-2.333-0.967-4.05-2.066-5.15-3.3
					c-0.6-0.7-0.65-1.601-0.15-2.7c-0.067-17.066-0.05-25.733,0.05-26l0.2-0.3c0.566-0.767,2.167-1.8,4.8-3.101
					c1.3-0.666,3.3-1.449,6-2.35C70.633,88.166,70,84.417,70,84.25l-0.3-0.75c-0.633-1-0.717-1.767-0.25-2.3
					c0.133-0.2,0.216-0.45,0.25-0.75v-0.4l-0.05-0.1l0.05-0.05c0.1-0.867,0.517-1.7,1.25-2.5c2.066-2.267,6.983-3.4,14.75-3.4
					C93.6,74,98.566,75.133,100.6,77.4z"/>
				
					<linearGradient id="SVGID_15_" gradientUnits="userSpaceOnUse" x1="97.0527" y1="-72.2217" x2="131.7027" y2="-72.2217" gradientTransform="matrix(2.886003e-005 1 -1 -0.001 -4.067557e-004 -4.335376e-005)">
					<stop  offset="0" style="stop-color:#FFFFFF;stop-opacity:0.5176"/>
					<stop  offset="1" style="stop-color:#FFFFFF;stop-opacity:0.1098"/>
				</linearGradient>
				<path style="fill-rule:evenodd;clip-rule:evenodd;fill:url(#SVGID_15_);" d="M74.4,86.25l3.35,0.9L77,97.85l-4.3,3.75
					c-1.1,0.867-2.3,2.033-3.6,3.5l-0.15,13.15c0,8.866,0.267,13.583,0.8,14.15c0.867,0.866,4.117,2.033,9.75,3.5
					c-0.633,0-2.75-0.284-6.35-0.851c-2.267-0.366-4.316-1.083-6.15-2.149l-2.05-1.5l0.55-28.051c0.7-0.699,1.983-1.767,3.85-3.199
					c1.233-0.967,2.483-1.884,3.75-2.75l1.5-1L74.4,86.25z"/>
				
					<linearGradient id="SVGID_16_" gradientUnits="userSpaceOnUse" x1="63.2969" y1="109.6387" x2="83.8475" y2="109.6387" gradientTransform="matrix(0.9988 -0.0499 0.0499 0.9988 -8.596480e-005 -1.047254e-004)">
					<stop  offset="0" style="stop-color:#FFFFFF;stop-opacity:0.4196"/>
					<stop  offset="1" style="stop-color:#FFFFFF;stop-opacity:0.1098"/>
				</linearGradient>
				<path style="fill-rule:evenodd;clip-rule:evenodd;fill:url(#SVGID_16_);" d="M76.15,107.45c-2.966-0.267-5.183-0.884-6.65-1.851
					s-1.583-1.399-0.35-1.3c0.534,0.033,1.467,0.233,2.8,0.601c1.6,0.366,2.966,0.649,4.1,0.85c5.7,0.866,10.117,1.316,13.25,1.35
					C84.867,107.767,80.483,107.883,76.15,107.45z"/>
				
					<linearGradient id="SVGID_17_" gradientUnits="userSpaceOnUse" x1="63.2983" y1="109.1094" x2="70.1822" y2="109.1094" gradientTransform="matrix(0.9987 -0.0508 0.0508 0.9987 1.477376e-004 -2.261810e-004)">
					<stop  offset="0" style="stop-color:#FFFFFF;stop-opacity:0.8196"/>
					<stop  offset="1" style="stop-color:#FFFFFF;stop-opacity:0.1098"/>
				</linearGradient>
				<path style="fill-rule:evenodd;clip-rule:evenodd;fill:url(#SVGID_17_);" d="M75.7,106.55c-0.2,0.366-1.25,0.434-3.15,0.2
					c-0.966-0.1-1.966-0.517-3-1.25c-1.066-0.733-1.2-1.134-0.4-1.2c0.867-0.066,2.2,0.2,4,0.8
					C75.017,105.7,75.867,106.184,75.7,106.55z"/>
				
					<linearGradient id="SVGID_18_" gradientUnits="userSpaceOnUse" x1="61.9526" y1="136.6055" x2="82.5032" y2="136.6055" gradientTransform="matrix(0.9988 -0.0499 0.0499 0.9988 -8.596480e-005 -1.047254e-004)">
					<stop  offset="0" style="stop-color:#FFFFFF;stop-opacity:0.4196"/>
					<stop  offset="1" style="stop-color:#FFFFFF;stop-opacity:0.1098"/>
				</linearGradient>
				<path style="fill-rule:evenodd;clip-rule:evenodd;fill:url(#SVGID_18_);" d="M76.15,134.45c-2.966-0.3-5.183-0.934-6.65-1.9
					c-1.467-0.934-1.583-1.35-0.35-1.25c0.534,0.033,1.467,0.233,2.8,0.601c1.6,0.366,2.966,0.649,4.1,0.85
					c5.7,0.866,10.117,1.316,13.25,1.35C84.867,134.767,80.483,134.883,76.15,134.45z"/>
				
					<linearGradient id="SVGID_19_" gradientUnits="userSpaceOnUse" x1="61.9253" y1="136.0566" x2="68.8092" y2="136.0566" gradientTransform="matrix(0.9987 -0.0508 0.0508 0.9987 1.477376e-004 -2.261810e-004)">
					<stop  offset="0" style="stop-color:#FFFFFF;stop-opacity:0.8196"/>
					<stop  offset="1" style="stop-color:#FFFFFF;stop-opacity:0.1098"/>
				</linearGradient>
				<path style="fill-rule:evenodd;clip-rule:evenodd;fill:url(#SVGID_19_);" d="M75.7,133.5c-0.167,0.366-1.217,0.45-3.15,0.25
					c-0.966-0.134-1.966-0.566-3-1.3c-1.066-0.733-1.2-1.117-0.4-1.15c0.867-0.066,2.2,0.2,4,0.8
					C75.017,132.666,75.867,133.133,75.7,133.5z"/>
				
					<linearGradient id="SVGID_20_" gradientUnits="userSpaceOnUse" x1="70.3296" y1="102.5029" x2="83.8977" y2="102.5029" gradientTransform="matrix(0.9987 -0.0516 0.0516 0.9987 -2.940819e-004 1.917034e-004)">
					<stop  offset="0" style="stop-color:#FFFFFF;stop-opacity:0.4196"/>
					<stop  offset="1" style="stop-color:#FFFFFF;stop-opacity:0.1098"/>
				</linearGradient>
				<path style="fill-rule:evenodd;clip-rule:evenodd;fill:url(#SVGID_20_);" d="M89.15,99.3c-2.934,0.5-5.833,0.601-8.7,0.3
					c-1.934-0.233-3.4-0.699-4.4-1.399c-0.966-0.7-1.05-1.017-0.25-0.95c0.333,0.033,0.95,0.184,1.85,0.45
					c1.034,0.267,1.95,0.466,2.75,0.6C84.167,98.967,87.083,99.3,89.15,99.3z"/>
				
					<linearGradient id="SVGID_21_" gradientUnits="userSpaceOnUse" x1="70.627" y1="101.9229" x2="75.1825" y2="101.9229" gradientTransform="matrix(0.9988 -0.0494 0.0494 0.9988 4.722476e-004 1.758449e-004)">
					<stop  offset="0" style="stop-color:#FFFFFF;stop-opacity:0.8196"/>
					<stop  offset="1" style="stop-color:#FFFFFF;stop-opacity:0.1098"/>
				</linearGradient>
				<path style="fill-rule:evenodd;clip-rule:evenodd;fill:url(#SVGID_21_);" d="M78.5,97.85c1.233,0.434,1.783,0.783,1.65,1.051
					c-0.133,0.3-0.816,0.35-2.05,0.149c-0.633-0.066-1.317-0.384-2.05-0.95c-0.7-0.533-0.783-0.816-0.25-0.85
					C76.4,97.217,77.3,97.416,78.5,97.85z"/>
				<linearGradient id="SVGID_22_" gradientUnits="userSpaceOnUse" x1="100.8496" y1="130.5752" x2="100.8496" y2="95.9252">
					<stop  offset="0" style="stop-color:#FFFFFF;stop-opacity:0.2196"/>
					<stop  offset="1" style="stop-color:#FFFFFF;stop-opacity:0.1098"/>
				</linearGradient>
				<path style="fill-rule:evenodd;clip-rule:evenodd;fill:url(#SVGID_22_);" d="M98.7,85.05L97.75,96.4l2.35,1.1
					c1.801,0.9,3.268,1.717,4.4,2.45c1.967,1.267,3.184,2,3.65,2.2v28.05l-2.051,1.5c-1.833,1.033-3.883,1.733-6.149,2.1
					c-2.233,0.366-3.967,0.634-5.2,0.8l-1.2,0.101c5.667-1.467,8.917-2.634,9.75-3.5c0.867-0.9,1.101-10,0.7-27.3
					c-2.2-1.867-3.85-3.234-4.95-4.101c-0.433-0.366-1.1-0.816-2-1.35L95.8,97.7l-0.45-11.75L98.7,85.05z"/>
				<g>
					
						<radialGradient id="SVGID_23_" cx="86.75" cy="98.9502" r="5.75" gradientTransform="matrix(1 0 0 -1 0 197.9004)" gradientUnits="userSpaceOnUse">
						<stop  offset="0" style="stop-color:#FFFFFF"/>
						<stop  offset="0.2275" style="stop-color:#F6E88C"/>
						<stop  offset="0.3686" style="stop-color:#F1D945"/>
						<stop  offset="0.9804" style="stop-color:#F0B644;stop-opacity:0"/>
					</radialGradient>
					<path style="fill-rule:evenodd;clip-rule:evenodd;fill:url(#SVGID_23_);" d="M92.5,98.95c0,1.566-0.566,2.916-1.7,4.05
						c-1.133,1.133-2.483,1.7-4.05,1.7c-1.6,0-2.95-0.567-4.05-1.7c-1.133-1.134-1.7-2.483-1.7-4.05c0-1.601,0.567-2.95,1.7-4.05
						c1.1-1.134,2.45-1.7,4.05-1.7c1.566,0,2.917,0.566,4.05,1.7C91.934,96,92.5,97.35,92.5,98.95z"/>
					
						<radialGradient id="SVGID_24_" cx="71.4502" cy="112.9502" r="7.9875" gradientTransform="matrix(1 0 0 -1 0 225.9004)" gradientUnits="userSpaceOnUse">
						<stop  offset="0" style="stop-color:#FFFFFF"/>
						<stop  offset="0.2275" style="stop-color:#F6E88C"/>
						<stop  offset="0.3686" style="stop-color:#F1D945"/>
						<stop  offset="0.9804" style="stop-color:#F0B644;stop-opacity:0"/>
					</radialGradient>
					<path style="fill-rule:evenodd;clip-rule:evenodd;fill:url(#SVGID_24_);" d="M77.1,107.3c1.566,1.566,2.35,3.45,2.35,5.65
						c0,2.233-0.784,4.116-2.35,5.649c-1.567,1.566-3.45,2.351-5.65,2.351c-2.233,0-4.117-0.784-5.65-2.351
						c-1.566-1.533-2.35-3.416-2.35-5.649c0-2.2,0.783-4.084,2.35-5.65c1.534-1.566,3.417-2.35,5.65-2.35
						C73.65,104.95,75.533,105.733,77.1,107.3z"/>
					
						<radialGradient id="SVGID_25_" cx="93.9502" cy="108.9502" r="5.9875" gradientTransform="matrix(1 0 0 -1 0 217.9004)" gradientUnits="userSpaceOnUse">
						<stop  offset="0" style="stop-color:#FFFFFF"/>
						<stop  offset="0.2275" style="stop-color:#F6E88C"/>
						<stop  offset="0.3686" style="stop-color:#F1D945"/>
						<stop  offset="0.9804" style="stop-color:#F0B644;stop-opacity:0"/>
					</radialGradient>
					<path style="fill-rule:evenodd;clip-rule:evenodd;fill:url(#SVGID_25_);" d="M99.95,108.95c0,1.666-0.583,3.083-1.75,4.25
						c-1.167,1.166-2.583,1.75-4.25,1.75s-3.083-0.584-4.25-1.75c-1.167-1.167-1.75-2.584-1.75-4.25c0-1.667,0.583-3.084,1.75-4.25
						c1.167-1.167,2.583-1.75,4.25-1.75s3.083,0.583,4.25,1.75C99.367,105.9,99.95,107.316,99.95,108.95z"/>
					
						<radialGradient id="SVGID_26_" cx="83.4502" cy="116.9502" r="9" gradientTransform="matrix(1 0 0 -1 0 233.9004)" gradientUnits="userSpaceOnUse">
						<stop  offset="0" style="stop-color:#FFFFFF"/>
						<stop  offset="0.2275" style="stop-color:#F6E88C"/>
						<stop  offset="0.3686" style="stop-color:#F1D945"/>
						<stop  offset="0.9804" style="stop-color:#F0B644;stop-opacity:0"/>
					</radialGradient>
					<path style="fill-rule:evenodd;clip-rule:evenodd;fill:url(#SVGID_26_);" d="M89.8,110.6c1.767,1.767,2.65,3.884,2.65,6.351
						c0,2.5-0.884,4.633-2.65,6.399c-1.767,1.733-3.883,2.601-6.35,2.601c-2.5,0-4.617-0.867-6.35-2.601
						c-1.767-1.767-2.65-3.899-2.65-6.399c0-2.467,0.883-4.584,2.65-6.351c1.733-1.767,3.85-2.649,6.35-2.649
						C85.917,107.95,88.033,108.833,89.8,110.6z"/>
					
						<radialGradient id="SVGID_27_" cx="98.4502" cy="123.9502" r="5.9875" gradientTransform="matrix(1 0 0 -1 0 247.9004)" gradientUnits="userSpaceOnUse">
						<stop  offset="0" style="stop-color:#FFFFFF"/>
						<stop  offset="0.2275" style="stop-color:#F6E88C"/>
						<stop  offset="0.3686" style="stop-color:#F1D945"/>
						<stop  offset="0.9804" style="stop-color:#F0B644;stop-opacity:0"/>
					</radialGradient>
					<path style="fill-rule:evenodd;clip-rule:evenodd;fill:url(#SVGID_27_);" d="M104.45,123.95c0,1.666-0.583,3.083-1.75,4.25
						c-1.167,1.166-2.583,1.75-4.25,1.75s-3.083-0.584-4.25-1.75c-1.167-1.167-1.75-2.584-1.75-4.25c0-1.667,0.583-3.084,1.75-4.25
						c1.167-1.167,2.583-1.75,4.25-1.75s3.083,0.583,4.25,1.75C103.867,120.9,104.45,122.316,104.45,123.95z"/>
					
						<radialGradient id="SVGID_28_" cx="79.9502" cy="93.6504" r="5.9875" gradientTransform="matrix(1 0 0 -1 0 187.3008)" gradientUnits="userSpaceOnUse">
						<stop  offset="0" style="stop-color:#FFFFFF"/>
						<stop  offset="0.2275" style="stop-color:#F6E88C"/>
						<stop  offset="0.3686" style="stop-color:#F1D945"/>
						<stop  offset="0.9804" style="stop-color:#F0B644;stop-opacity:0"/>
					</radialGradient>
					<path style="fill-rule:evenodd;clip-rule:evenodd;fill:url(#SVGID_28_);" d="M85.95,93.65c0,1.666-0.583,3.083-1.75,4.25
						c-1.167,1.166-2.583,1.75-4.25,1.75c-1.667,0-3.083-0.584-4.25-1.75c-1.167-1.167-1.75-2.584-1.75-4.25
						c0-1.667,0.583-3.084,1.75-4.25c1.167-1.167,2.583-1.75,4.25-1.75c1.667,0,3.083,0.583,4.25,1.75
						C85.367,90.566,85.95,91.983,85.95,93.65z"/>
					
						<radialGradient id="SVGID_29_" cx="75.7002" cy="127.7002" r="4.25" gradientTransform="matrix(1 0 0 -1 0 255.4004)" gradientUnits="userSpaceOnUse">
						<stop  offset="0" style="stop-color:#FFFFFF"/>
						<stop  offset="0.2275" style="stop-color:#F6E88C"/>
						<stop  offset="0.3686" style="stop-color:#F1D945"/>
						<stop  offset="0.9804" style="stop-color:#F0B644;stop-opacity:0"/>
					</radialGradient>
					<path style="fill-rule:evenodd;clip-rule:evenodd;fill:url(#SVGID_29_);" d="M78.7,124.7c0.833,0.833,1.25,1.833,1.25,3
						c0,1.166-0.417,2.166-1.25,3c-0.833,0.833-1.833,1.25-3,1.25c-1.167,0-2.167-0.417-3-1.25c-0.833-0.834-1.25-1.834-1.25-3
						c0-1.167,0.417-2.167,1.25-3c0.833-0.834,1.833-1.25,3-1.25C76.867,123.45,77.867,123.866,78.7,124.7z"/>
				</g>
				
					<radialGradient id="SVGID_30_" cx="84.7998" cy="78.0498" r="17.6125" gradientTransform="matrix(1 0 0 -0.5181 0 118.4872)" gradientUnits="userSpaceOnUse">
					<stop  offset="0" style="stop-color:#E9EEF0;stop-opacity:0.1373"/>
					<stop  offset="0.2196" style="stop-color:#E7ECEE;stop-opacity:0.1412"/>
					<stop  offset="0.3569" style="stop-color:#DEE4E6;stop-opacity:0.1569"/>
					<stop  offset="0.4706" style="stop-color:#D0D7D9;stop-opacity:0.1804"/>
					<stop  offset="0.5686" style="stop-color:#BCC5C7;stop-opacity:0.2157"/>
					<stop  offset="0.6588" style="stop-color:#A2ADAF;stop-opacity:0.2588"/>
					<stop  offset="0.7451" style="stop-color:#819092;stop-opacity:0.3098"/>
					<stop  offset="0.8235" style="stop-color:#5C6E70;stop-opacity:0.3725"/>
					<stop  offset="0.898" style="stop-color:#314749;stop-opacity:0.4471"/>
					<stop  offset="0.902" style="stop-color:#2F4548;stop-opacity:0.4471"/>
					<stop  offset="1" style="stop-color:#CDFAFF;stop-opacity:0.2784"/>
				</radialGradient>
				<path style="fill-rule:evenodd;clip-rule:evenodd;fill:url(#SVGID_30_);" d="M100.9,84.05v0.05
					c-1.101,1.067-3.25,1.934-6.45,2.601c-2.967,0.633-5.983,0.95-9.05,0.95c-3.067,0-5.884-0.334-8.45-1
					c-2.567-0.7-4.7-1.684-6.4-2.95H70.5c-0.267-0.5-0.45-0.884-0.55-1.15c-0.2-0.434-0.2-0.767,0-1c0.267-0.3,0.417-0.65,0.45-1.05
					l-0.05-0.55c0.1-0.7,0.467-1.417,1.1-2.15c1.933-2.133,6.683-3.2,14.25-3.2c7.667,0,12.467,1.067,14.399,3.2
					c0.634,0.733,1,1.45,1.101,2.15v0.55c0.033,0.4,0.167,0.75,0.399,1.05c0.233,0.267,0.217,0.667-0.05,1.2
					C101.384,83.05,101.167,83.483,100.9,84.05z"/>
				<g>
					<path style="fill-rule:evenodd;clip-rule:evenodd;fill:#9A7B4C;" d="M99.45,66.75L97.8,82.9c-0.267,0.534-0.967,1.05-2.1,1.55
						c-2.2,1-5.351,1.45-9.45,1.35c-4.3-0.066-7.533-0.616-9.7-1.65l-2-1.5c-0.366-4.667-0.683-7.667-0.95-9l-1-6.6l2.2-0.95
						c2.2-0.7,5.15-1.2,8.85-1.5c4.167-0.333,8.05-0.066,11.65,0.8C97.1,65.8,98.483,66.25,99.45,66.75z"/>
					<path style="fill-rule:evenodd;clip-rule:evenodd;fill:#B78D5A;" d="M93.45,70.2c0.5,0.1,0.75,0.366,0.75,0.8
						c-0.033,0.467-0.351,0.85-0.95,1.15c-0.233,0.1-0.767,0.267-1.6,0.5c-1.533,0.433-4.017,0.65-7.45,0.65
						c-3.4,0.066-5.967-0.167-7.7-0.7c-1.1-0.366-2.217-0.85-3.35-1.45l-0.55-4.1c0.433,0.033,0.833,0.2,1.2,0.5
						c0.567,0.367,1.4,0.634,2.5,0.8c1,0.367,1.833,0.617,2.5,0.75l2.45,0.45c0.767,0.167,1.7,0.25,2.8,0.25
						c0.634,0,1.584-0.017,2.851-0.05L90.1,69.7l0.351-0.05c0.033-0.067,0.1-0.15,0.2-0.25c0.066-0.233,0.133-0.417,0.199-0.55
						c0.067-0.2,0.217-0.283,0.45-0.25c0.033,0.367,0.084,0.617,0.15,0.75c0.066,0.134,0.267,0.3,0.6,0.5
						C92.117,69.883,92.583,70,93.45,70.2z"/>
					
						<linearGradient id="SVGID_31_" gradientUnits="userSpaceOnUse" x1="-83.9673" y1="-66.6396" x2="-78.3422" y2="-66.6396" gradientTransform="matrix(-1 0.0044 -0.0044 -1 1.447704e-004 1.510335e-004)">
						<stop  offset="0" style="stop-color:#B18A57"/>
						<stop  offset="1" style="stop-color:#433420"/>
					</linearGradient>
					<path style="fill-rule:evenodd;clip-rule:evenodd;fill:url(#SVGID_31_);" d="M83,65.7c0.4,0,0.583,0.116,0.55,0.35
						c-0.033,0.2-0.167,0.384-0.4,0.55c-0.2,0.134-0.716,0.2-1.55,0.2c-0.767,0.033-1.35,0.05-1.75,0.05
						c-0.7,0.034-1.283,0.017-1.75-0.05c-0.033-0.733,1.2-1.1,3.7-1.1H83z"/>
					
						<linearGradient id="SVGID_32_" gradientUnits="userSpaceOnUse" x1="-87.5752" y1="-67.6748" x2="-83.7252" y2="-67.6748" gradientTransform="matrix(-1 0 0 -1 0 0)">
						<stop  offset="0" style="stop-color:#B18A57"/>
						<stop  offset="1" style="stop-color:#433420"/>
					</linearGradient>
					<path style="fill-rule:evenodd;clip-rule:evenodd;fill:url(#SVGID_32_);" d="M83.4,67.95c-0.167-0.4,0.1-0.634,0.8-0.7
						c0.367,0,0.85,0.017,1.45,0.05l1.449,0.15C86.9,67.816,86.667,68.033,86.4,68.1c-0.067,0-0.434,0-1.101,0L83.4,67.95z"/>
					
						<linearGradient id="SVGID_33_" gradientUnits="userSpaceOnUse" x1="-89.3374" y1="-65.6665" x2="-88.0624" y2="-65.6665" gradientTransform="matrix(-1 0 0 -1 0 0)">
						<stop  offset="0" style="stop-color:#B18A57"/>
						<stop  offset="1" style="stop-color:#433420"/>
					</linearGradient>
					<path style="fill-rule:evenodd;clip-rule:evenodd;fill:url(#SVGID_33_);" d="M88,65.55c0.233-0.066,0.4-0.083,0.5-0.05
						c0.267,0,0.5,0.1,0.7,0.3c-0.267,0.066-0.684,0.066-1.25,0C87.917,65.767,87.934,65.684,88,65.55z"/>
					
						<linearGradient id="SVGID_34_" gradientUnits="userSpaceOnUse" x1="-102.2178" y1="-65.6816" x2="-93.7927" y2="-65.6816" gradientTransform="matrix(-1 0.003 -0.003 -1 -1.750984e-004 1.052376e-004)">
						<stop  offset="0" style="stop-color:#B18A57"/>
						<stop  offset="1" style="stop-color:#433420"/>
					</linearGradient>
					<path style="fill-rule:evenodd;clip-rule:evenodd;fill:url(#SVGID_34_);" d="M93.6,65.6c-0.466-0.2-0.55-0.416-0.25-0.649
						c1.634,0.333,2.9,0.633,3.801,0.899H96.8c-0.633,0-1.166,0-1.6,0C94.434,65.85,93.9,65.767,93.6,65.6z"/>
					
						<linearGradient id="SVGID_35_" gradientUnits="userSpaceOnUse" x1="-98.625" y1="-66.6392" x2="-96.775" y2="-66.6392" gradientTransform="matrix(-1 0 0 -1 0 0)">
						<stop  offset="0" style="stop-color:#B18A57"/>
						<stop  offset="1" style="stop-color:#433420"/>
					</linearGradient>
					<path style="fill-rule:evenodd;clip-rule:evenodd;fill:url(#SVGID_35_);" d="M96.65,66.75c-0.101-0.1-0.117-0.2-0.051-0.3H98.4
						C98.2,66.816,97.617,66.917,96.65,66.75z"/>
					<path style="fill-rule:evenodd;clip-rule:evenodd;fill:#856840;" d="M94,70.35c-0.366-0.233-0.7-0.5-1-0.8
						c-0.6-0.566-0.75-0.95-0.45-1.15s1.067-0.167,2.3,0.1c0.601,0.1,1.184,0.233,1.75,0.4c1.334-0.367,2.268-1.1,2.801-2.2
						l0.05,0.05L97.8,82.9c-0.267,0.534-0.967,1.05-2.1,1.55c-2.2,1-5.351,1.45-9.45,1.35c-4.3-0.066-7.533-0.616-9.7-1.65l-2-1.5
						c-0.366-4.667-0.683-7.667-0.95-9l-1-6.6l2.5,1.7c2.467,1.1,5.65,1.65,9.55,1.65L94,70.35z"/>
					<path style="fill-rule:evenodd;clip-rule:evenodd;fill:#765B38;" d="M85.85,82.9c0.334,0.233,0.634,0.267,0.9,0.1
						c0.134-0.066,0.316-0.283,0.55-0.65c-0.1-0.233-0.333-0.383-0.7-0.45l-0.55-0.5c-0.3,0.433-0.467,0.683-0.5,0.75
						C85.45,82.45,85.55,82.7,85.85,82.9z M89.4,77.65c-0.167,0.267-0.217,0.75-0.15,1.45c0.3,0.067,0.583,0.067,0.85,0
						c0.101-0.666-0.017-1.033-0.35-1.1L89.4,77.65z M93.7,70.35c0.1,0.4,0.316,0.65,0.649,0.75c0.233,0.3,0.584,0.434,1.051,0.4
						c0.533-0.033,0.866-0.283,1-0.75c0.033-0.2,0.05-0.65,0.05-1.35v-0.55L96.6,68.9l0.2-0.05c0,0.7-0.033,1.2-0.1,1.5
						c-0.101,0.534-0.351,0.917-0.75,1.15c-0.434,0.2-1.066,0.267-1.9,0.2c-0.967-0.067-1.416-0.351-1.35-0.851
						c-1.134-0.233-2-0.333-2.601-0.3c-2.033,0-3.25-0.017-3.649-0.05c2.333,0.4,3.967,0.866,4.899,1.4
						c0.334,0.2,0.733,0.583,1.2,1.15c0.267,0.2,0.601,0.45,1,0.75c0.3,0.267,0.45,0.634,0.45,1.1c0,0.367-0.333,0.867-1,1.5
						c-0.633,0.6-0.934,1.083-0.9,1.45c0,0.067,0.067,0.184,0.2,0.351c0.101,0.166,0.15,0.316,0.15,0.45
						c-0.033,0.233-0.267,0.617-0.7,1.15c-0.033,0.033-0.15,0.15-0.35,0.35c-0.101,0.133-0.167,0.284-0.2,0.45
						c-0.033,0.233,0.017,0.55,0.149,0.95c0.067,0.634-0.149,1.017-0.649,1.15c-0.367,0.1-0.75,0.083-1.15-0.05
						c-0.399-0.2-0.717-0.333-0.95-0.4c-0.199,0.267-0.449,0.467-0.75,0.6L87.35,83c-0.199,0.233-0.333,0.35-0.399,0.35
						c-0.167,0.101-0.45,0.167-0.851,0.2c-0.433,0-0.732,0.033-0.899,0.1c-0.167,0.034-0.45,0.167-0.85,0.4
						c-0.3,0.167-0.617,0.25-0.95,0.25c-0.466,0.033-1.083-0.033-1.85-0.2c-0.833-0.2-1.433-0.333-1.8-0.399
						c-0.3-0.034-0.483-0.067-0.55-0.101c-0.067,0-0.184-0.133-0.35-0.399c-0.033-0.3-0.167-0.55-0.4-0.75
						c-0.467-0.2-0.8-0.417-1-0.65c-0.3,0.167-0.7,0.233-1.2,0.2c-0.467-0.033-0.833-0.15-1.1-0.35L74.4,81l-0.2-2.5
						c0.167,0.366,0.383,0.65,0.65,0.85c0.6,0.601,1.167,0.817,1.7,0.65c0.267-0.1,0.534-0.316,0.8-0.65
						c0.7,0.934,1.6,1.534,2.7,1.8c0.3,0.067,0.8,0.133,1.5,0.2c0.567,0.134,0.85,0.417,0.85,0.851
						c0.534,0.133,0.934,0.083,1.2-0.15c0.133-0.1,0.233-0.3,0.3-0.6c0.067-0.233,0.167-0.384,0.3-0.45
						c0.333,0.366,0.883,0.383,1.649,0.05c0.134-0.934,0.567-1.467,1.301-1.6c0.233-0.034,0.517-0.084,0.85-0.15
						c0.233-0.066,0.4-0.283,0.5-0.65c0.2-0.633,0.167-1.25-0.1-1.85c-0.134-0.3-0.334-0.517-0.601-0.65
						c-0.333-0.233-0.566-0.167-0.7,0.2c-0.566-0.066-1.017-0.45-1.35-1.149c-0.267-0.867-0.517-1.45-0.75-1.75
						c-0.667-0.9-1.8-1.634-3.4-2.2c-0.567-0.233-1.167-0.583-1.8-1.05L79.5,70c1.533,0.267,3.25,0.4,5.15,0.4L93.7,70.35z
						 M90.6,73.05c-0.066-0.267-0.283-0.517-0.649-0.75H89.4c-0.567,0.033-0.767,0.45-0.601,1.25c0.134,0.8,0.467,1.25,1,1.35
						c0.334,0.034,0.55-0.017,0.65-0.15c0.066-0.1,0.133-0.316,0.2-0.65C90.717,73.633,90.7,73.283,90.6,73.05z"/>
					<path style="fill-rule:evenodd;clip-rule:evenodd;fill:#654F31;" d="M92.45,68.55l0.1-0.15c0.434-0.267,1.733-0.117,3.9,0.45
						v0.55c0,0.7-0.017,1.15-0.05,1.35c-0.134,0.467-0.467,0.717-1,0.75c-0.467,0.033-0.817-0.1-1.051-0.4
						C94.917,71.333,95.4,71.2,95.8,70.7c0.267-0.267,0.367-0.65,0.3-1.15c-0.033-0.333-0.1-0.533-0.199-0.6
						c-0.067-0.067-0.283-0.15-0.65-0.25C93.816,68.233,92.884,68.184,92.45,68.55z"/>
					<path style="fill-rule:evenodd;clip-rule:evenodd;fill:#654F31;" d="M94.35,76.5H93.45c-0.467,0.1-0.717,0.434-0.75,1
						c0,0.533,0.2,0.85,0.6,0.95c0.667,0.166,1.067,0,1.2-0.5C94.634,77.517,94.583,77.033,94.35,76.5z M92.7,70.85
						c-0.066,0.5,0.383,0.784,1.35,0.851c0.834,0.066,1.467,0,1.9-0.2c0.399-0.233,0.649-0.617,0.75-1.15c0.066-0.3,0.1-0.8,0.1-1.5
						l0.4-0.2L97.5,70c0.066,0.4-0.033,1.017-0.3,1.85C97.066,72.283,97,73.1,97,74.3c0,0.367-0.1,0.684-0.3,0.95
						c-0.367,0.4-0.583,0.65-0.65,0.75c-0.233,0.533-0.267,1.267-0.1,2.2c0,0.133,0.083,0.416,0.25,0.85
						c0.1,0.333,0.133,0.634,0.1,0.9c-0.2,1-0.517,1.649-0.95,1.95c-0.033,0.034-0.3,0.133-0.8,0.3c-0.3,0.066-0.483,0.267-0.55,0.6
						c-0.633,0.033-1.316,0.267-2.05,0.7c-1,0.6-1.601,0.934-1.8,1c-0.567,0.233-1.351,0.35-2.351,0.35
						C86.7,84.816,85.9,84.8,85.4,84.8c-1.667,0-2.917-0.05-3.75-0.15c-0.966-0.067-1.533-0.133-1.7-0.2
						c-0.233-0.067-0.567-0.184-1-0.351c-0.467-0.233-0.8-0.366-1-0.399c-0.767-0.101-1.35-0.217-1.75-0.351
						c-0.633-0.333-1.167-0.55-1.6-0.649h-0.05v-0.05L74.4,81l0.75,0.65c0.267,0.2,0.633,0.317,1.1,0.35
						c0.5,0.033,0.9-0.033,1.2-0.2c0.2,0.233,0.533,0.45,1,0.65c0.233,0.2,0.367,0.45,0.4,0.75c0.167,0.267,0.283,0.399,0.35,0.399
						c0.066,0.034,0.25,0.067,0.55,0.101c0.367,0.066,0.967,0.2,1.8,0.399c0.767,0.167,1.384,0.233,1.85,0.2
						c0.333,0,0.65-0.083,0.95-0.25c0.4-0.233,0.683-0.366,0.85-0.4c0.167-0.067,0.467-0.1,0.899-0.1c0.4-0.033,0.684-0.1,0.851-0.2
						c0.066,0,0.2-0.116,0.399-0.35l0.5-0.15c0.301-0.133,0.551-0.333,0.75-0.6c0.233,0.066,0.551,0.2,0.95,0.4
						c0.4,0.133,0.783,0.15,1.15,0.05c0.5-0.134,0.717-0.517,0.649-1.15c-0.133-0.4-0.183-0.717-0.149-0.95
						c0.033-0.166,0.1-0.316,0.2-0.45c0.199-0.2,0.316-0.317,0.35-0.35c0.434-0.533,0.667-0.917,0.7-1.15
						c0-0.133-0.05-0.284-0.15-0.45c-0.133-0.167-0.2-0.284-0.2-0.351C92.066,77.483,92.367,77,93,76.4c0.667-0.633,1-1.133,1-1.5
						c0-0.466-0.15-0.833-0.45-1.1c-0.399-0.3-0.733-0.55-1-0.75c-0.467-0.566-0.866-0.95-1.2-1.15c-0.933-0.534-2.566-1-4.899-1.4
						c0.399,0.033,1.616,0.05,3.649,0.05C90.7,70.517,91.566,70.616,92.7,70.85z"/>
					<path style="fill-rule:evenodd;clip-rule:evenodd;fill:#504027;" d="M99.45,66.75l-0.95,7c-0.5,0-0.717,0.383-0.65,1.15
						c0.067,0.5,0.233,0.8,0.5,0.9c-0.199,2.134-0.383,4.5-0.55,7.1c-0.267,0.534-0.967,1.05-2.1,1.55c-2.2,1-5.351,1.45-9.45,1.35
						c-4.033-0.066-7.15-0.55-9.35-1.45c-1.2-0.5-1.983-1.05-2.35-1.649h0.05c0.433,0.1,0.967,0.316,1.6,0.649
						c0.4,0.134,0.983,0.25,1.75,0.351c0.2,0.033,0.533,0.166,1,0.399c0.433,0.167,0.767,0.284,1,0.351
						c0.167,0.066,0.733,0.133,1.7,0.2c0.833,0.1,2.083,0.15,3.75,0.15c0.5,0,1.3,0.017,2.399,0.05c1,0,1.783-0.116,2.351-0.35
						c0.199-0.066,0.8-0.4,1.8-1c0.733-0.434,1.417-0.667,2.05-0.7c0.066-0.333,0.25-0.533,0.55-0.6c0.5-0.167,0.767-0.267,0.8-0.3
						c0.434-0.3,0.75-0.95,0.95-1.95c0.033-0.267,0-0.567-0.1-0.9c-0.167-0.434-0.25-0.717-0.25-0.85
						c-0.167-0.934-0.134-1.667,0.1-2.2c0.067-0.1,0.283-0.35,0.65-0.75c0.2-0.267,0.3-0.583,0.3-0.95c0-1.2,0.066-2.017,0.2-2.45
						c0.267-0.833,0.366-1.45,0.3-1.85l-0.3-1.35c1-0.4,1.733-1.05,2.2-1.95L99.45,66.75z"/>
					
						<linearGradient id="SVGID_36_" gradientUnits="userSpaceOnUse" x1="-83.8223" y1="67.4785" x2="-79.5678" y2="67.4785" gradientTransform="matrix(-0.1175 -0.9931 0.9931 -0.1175 -1.947954e-004 -7.908195e-004)">
						<stop  offset="0" style="stop-color:#B18A57"/>
						<stop  offset="1" style="stop-color:#433420"/>
					</linearGradient>
					<path style="fill-rule:evenodd;clip-rule:evenodd;fill:url(#SVGID_36_);" d="M76.95,75.1c-0.434,0.067-0.817-0.083-1.15-0.45
						c-0.366-0.333-0.6-0.784-0.7-1.35c-0.067-0.566,0-1.05,0.2-1.45c0.233-0.433,0.55-0.683,0.95-0.75
						c0.434-0.066,0.817,0.067,1.15,0.4c0.367,0.366,0.6,0.833,0.7,1.4c0.066,0.567,0,1.05-0.2,1.45
						C77.667,74.783,77.35,75.033,76.95,75.1z"/>
					
						<linearGradient id="SVGID_37_" gradientUnits="userSpaceOnUse" x1="-87.6484" y1="72.5225" x2="-82.5629" y2="72.5225" gradientTransform="matrix(-0.118 -0.993 0.993 -0.118 4.457682e-005 -6.142110e-004)">
						<stop  offset="0" style="stop-color:#B18A57"/>
						<stop  offset="1" style="stop-color:#433420"/>
					</linearGradient>
					<path style="fill-rule:evenodd;clip-rule:evenodd;fill:url(#SVGID_37_);" d="M83.5,78c-1.5,0.533-2.65,0.083-3.45-1.35
						c-0.8-1.433-0.5-2.483,0.9-3.15l0.7-0.05c0.867,0,1.45,0.066,1.75,0.2c0.5,0.2,0.8,0.633,0.9,1.3
						c0.1,0.566,0.117,1.133,0.05,1.7C84.217,77.383,83.934,77.833,83.5,78z"/>
					
						<linearGradient id="SVGID_38_" gradientUnits="userSpaceOnUse" x1="-87.5439" y1="68.2979" x2="-85.0508" y2="68.2979" gradientTransform="matrix(-0.1203 -0.9927 0.9927 -0.1203 -8.843839e-005 -6.992519e-004)">
						<stop  offset="0" style="stop-color:#B18A57"/>
						<stop  offset="1" style="stop-color:#433420"/>
					</linearGradient>
					<path style="fill-rule:evenodd;clip-rule:evenodd;fill:url(#SVGID_38_);" d="M77.25,77.85c-0.133-0.267-0.15-0.583-0.05-0.95
						c0.066-0.433,0.25-0.65,0.55-0.65l0.9,0.15c0.534,0.2,0.7,0.9,0.5,2.1C78.083,78.566,77.45,78.35,77.25,77.85z"/>
					
						<linearGradient id="SVGID_39_" gradientUnits="userSpaceOnUse" x1="-85.8579" y1="65.5908" x2="-84.4748" y2="65.5908" gradientTransform="matrix(-0.1084 -0.9941 0.9941 -0.1084 3.089011e-005 -1.464784e-004)">
						<stop  offset="0" style="stop-color:#B18A57"/>
						<stop  offset="1" style="stop-color:#433420"/>
					</linearGradient>
					<path style="fill-rule:evenodd;clip-rule:evenodd;fill:url(#SVGID_39_);" d="M74,76.9c0.667-0.133,0.917,0.233,0.75,1.1
						l-0.6,0.2L74,76.9z"/>
					<path style="fill-rule:evenodd;clip-rule:evenodd;fill:#765B38;" d="M89.8,74.9c-0.533-0.1-0.866-0.55-1-1.35
						c-0.166-0.8,0.033-1.217,0.601-1.25h0.55c0.366,0.233,0.583,0.483,0.649,0.75c0.101,0.233,0.117,0.583,0.051,1.05
						c-0.067,0.334-0.134,0.55-0.2,0.65C90.35,74.883,90.134,74.934,89.8,74.9z"/>
					
						<linearGradient id="SVGID_40_" gradientUnits="userSpaceOnUse" x1="-85.1821" y1="80.4023" x2="-82.4378" y2="80.4023" gradientTransform="matrix(-0.1184 -0.993 0.993 -0.1184 -9.901077e-005 -4.990995e-004)">
						<stop  offset="0" style="stop-color:#B18A57"/>
						<stop  offset="1" style="stop-color:#433420"/>
					</linearGradient>
					<path style="fill-rule:evenodd;clip-rule:evenodd;fill:url(#SVGID_40_);" d="M89.8,74.9c-0.533-0.1-0.866-0.55-1-1.35
						c-0.166-0.8,0.033-1.217,0.601-1.25h0.55c0.366,0.233,0.583,0.483,0.649,0.75c0.101,0.233,0.117,0.583,0.051,1.05
						c-0.067,0.334-0.134,0.55-0.2,0.65C90.35,74.883,90.134,74.934,89.8,74.9z"/>
					<path style="fill-rule:evenodd;clip-rule:evenodd;fill:#765B38;" d="M89.75,78c0.333,0.066,0.45,0.434,0.35,1.1
						c-0.267,0.067-0.55,0.067-0.85,0c-0.066-0.7-0.017-1.183,0.15-1.45L89.75,78z"/>
					
						<linearGradient id="SVGID_41_" gradientUnits="userSpaceOnUse" x1="-88.6626" y1="80.4365" x2="-87.0779" y2="80.4365" gradientTransform="matrix(-0.1104 -0.9939 0.9939 -0.1104 -1.528561e-004 -5.000085e-004)">
						<stop  offset="0" style="stop-color:#B18A57"/>
						<stop  offset="1" style="stop-color:#433420"/>
					</linearGradient>
					<path style="fill-rule:evenodd;clip-rule:evenodd;fill:url(#SVGID_41_);" d="M89.75,78c0.333,0.066,0.45,0.434,0.35,1.1
						c-0.267,0.067-0.55,0.067-0.85,0c-0.066-0.7-0.017-1.183,0.15-1.45L89.75,78z"/>
					<path style="fill-rule:evenodd;clip-rule:evenodd;fill:#765B38;" d="M86.6,81.9c0.367,0.067,0.601,0.216,0.7,0.45
						c-0.233,0.367-0.416,0.584-0.55,0.65c-0.267,0.167-0.566,0.133-0.9-0.1c-0.3-0.2-0.399-0.45-0.3-0.75
						c0.033-0.067,0.2-0.317,0.5-0.75L86.6,81.9z"/>
					
						<linearGradient id="SVGID_42_" gradientUnits="userSpaceOnUse" x1="-92.2432" y1="76.7813" x2="-90.4321" y2="76.7813" gradientTransform="matrix(-0.1104 -0.9939 0.9939 -0.1104 -2.235100e-004 8.491129e-004)">
						<stop  offset="0" style="stop-color:#B18A57"/>
						<stop  offset="1" style="stop-color:#433420"/>
					</linearGradient>
					<path style="fill-rule:evenodd;clip-rule:evenodd;fill:url(#SVGID_42_);" d="M86.6,81.9c0.367,0.067,0.601,0.216,0.7,0.45
						c-0.233,0.367-0.416,0.584-0.55,0.65c-0.267,0.167-0.566,0.133-0.9-0.1c-0.3-0.2-0.399-0.45-0.3-0.75
						c0.033-0.067,0.2-0.317,0.5-0.75L86.6,81.9z"/>
					<path style="fill-rule:evenodd;clip-rule:evenodd;fill:#654F31;" d="M93.45,76.5h0.899c0.233,0.533,0.284,1.017,0.15,1.45
						c-0.133,0.5-0.533,0.666-1.2,0.5c-0.399-0.101-0.6-0.417-0.6-0.95C92.733,76.934,92.983,76.6,93.45,76.5z"/>
					
						<linearGradient id="SVGID_43_" gradientUnits="userSpaceOnUse" x1="-89.1841" y1="83.8213" x2="-87.0693" y2="83.8213" gradientTransform="matrix(-0.1182 -0.993 0.993 -0.1182 -1.862645e-005 7.949620e-004)">
						<stop  offset="0" style="stop-color:#B18A57"/>
						<stop  offset="1" style="stop-color:#433420"/>
					</linearGradient>
					<path style="fill-rule:evenodd;clip-rule:evenodd;fill:url(#SVGID_43_);" d="M93.45,76.5h0.899
						c0.233,0.533,0.284,1.017,0.15,1.45c-0.133,0.5-0.533,0.666-1.2,0.5c-0.399-0.101-0.6-0.417-0.6-0.95
						C92.733,76.934,92.983,76.6,93.45,76.5z"/>
					<path style="fill-rule:evenodd;clip-rule:evenodd;fill:#504027;" d="M97.85,74.9c-0.066-0.767,0.15-1.15,0.65-1.15l-0.15,2.05
						C98.083,75.7,97.917,75.4,97.85,74.9z"/>
					
						<linearGradient id="SVGID_44_" gradientUnits="userSpaceOnUse" x1="-86.6216" y1="89.1543" x2="-84.4074" y2="89.1543" gradientTransform="matrix(-0.1129 -0.9936 0.9936 -0.1129 1.819879e-004 5.915761e-005)">
						<stop  offset="0" style="stop-color:#B18A57"/>
						<stop  offset="1" style="stop-color:#433420"/>
					</linearGradient>
					<path style="fill-rule:evenodd;clip-rule:evenodd;fill:url(#SVGID_44_);" d="M97.85,74.9c-0.066-0.767,0.15-1.15,0.65-1.15
						l-0.15,2.05C98.083,75.7,97.917,75.4,97.85,74.9z"/>
					<path style="fill-rule:evenodd;clip-rule:evenodd;fill:#765B38;" d="M94.35,71.1c-0.333-0.1-0.55-0.35-0.649-0.75h0.05
						C93.816,70.417,94.017,70.667,94.35,71.1z"/>
					
						<linearGradient id="SVGID_45_" gradientUnits="userSpaceOnUse" x1="-81.9805" y1="85.0801" x2="-78.7834" y2="85.0801" gradientTransform="matrix(-0.1173 -0.9931 0.9931 -0.1173 0 -4.242212e-004)">
						<stop  offset="0" style="stop-color:#B18A57"/>
						<stop  offset="1" style="stop-color:#433420"/>
					</linearGradient>
					<path style="fill-rule:evenodd;clip-rule:evenodd;fill:url(#SVGID_45_);" d="M94.35,71.1c-0.333-0.1-0.55-0.35-0.649-0.75h0.05
						C93.816,70.417,94.017,70.667,94.35,71.1z"/>
					<path style="fill-rule:evenodd;clip-rule:evenodd;fill:#654F31;" d="M94.35,71.1c-0.333-0.433-0.533-0.683-0.6-0.75H94
						l-0.3-0.2l-0.05-0.05c-0.167-0.1-0.434-0.333-0.801-0.7L92.5,69c-0.066-0.2-0.083-0.35-0.05-0.45
						c0.434-0.366,1.366-0.316,2.8,0.15c0.367,0.1,0.583,0.183,0.65,0.25c0.1,0.066,0.166,0.267,0.199,0.6
						c0.067,0.5-0.033,0.884-0.3,1.15C95.4,71.2,94.917,71.333,94.35,71.1z"/>
					
						<linearGradient id="SVGID_46_" gradientUnits="userSpaceOnUse" x1="-81.9834" y1="85.5078" x2="-78.7863" y2="85.5078" gradientTransform="matrix(-0.1173 -0.9931 0.9931 -0.1173 0 -4.242212e-004)">
						<stop  offset="0" style="stop-color:#B18A57"/>
						<stop  offset="1" style="stop-color:#433420"/>
					</linearGradient>
					<path style="fill-rule:evenodd;clip-rule:evenodd;fill:url(#SVGID_46_);" d="M94.35,71.1c-0.333-0.433-0.533-0.683-0.6-0.75H94
						l-0.3-0.2l-0.05-0.05c-0.167-0.1-0.434-0.333-0.801-0.7L92.5,69c-0.066-0.2-0.083-0.35-0.05-0.45
						c0.434-0.366,1.366-0.316,2.8,0.15c0.367,0.1,0.583,0.183,0.65,0.25c0.1,0.066,0.166,0.267,0.199,0.6
						c0.067,0.5-0.033,0.884-0.3,1.15C95.4,71.2,94.917,71.333,94.35,71.1z"/>
				</g>
				
					<radialGradient id="SVGID_47_" cx="85.5498" cy="82" r="16.3625" gradientTransform="matrix(1 0 0 -0.5088 0 123.7204)" gradientUnits="userSpaceOnUse">
					<stop  offset="0" style="stop-color:#E9EEF0;stop-opacity:0.1373"/>
					<stop  offset="0.2196" style="stop-color:#E7ECEE;stop-opacity:0.1412"/>
					<stop  offset="0.3569" style="stop-color:#DEE4E6;stop-opacity:0.1451"/>
					<stop  offset="0.4706" style="stop-color:#D0D7D9;stop-opacity:0.1569"/>
					<stop  offset="0.5686" style="stop-color:#BCC5C7;stop-opacity:0.1725"/>
					<stop  offset="0.6588" style="stop-color:#A2ADAF;stop-opacity:0.1922"/>
					<stop  offset="0.7451" style="stop-color:#819092;stop-opacity:0.2157"/>
					<stop  offset="0.8235" style="stop-color:#5C6E70;stop-opacity:0.2431"/>
					<stop  offset="0.898" style="stop-color:#314749;stop-opacity:0.2784"/>
					<stop  offset="0.902" style="stop-color:#2F4548;stop-opacity:0.2784"/>
					<stop  offset="1" style="stop-color:#CDFAFF;stop-opacity:0.2784"/>
				</radialGradient>
				<path style="fill-rule:evenodd;clip-rule:evenodd;fill:url(#SVGID_47_);" d="M101.6,81.55c0.233,0.267,0.2,0.684-0.1,1.25
					c-0.4,0.8-0.6,1.233-0.6,1.3c-1.101,1.067-3.25,1.934-6.45,2.601c-2.967,0.633-5.983,0.95-9.05,0.95
					c-3.067,0-5.884-0.334-8.45-1c-2.567-0.7-4.7-1.684-6.4-2.95c-0.3-0.5-0.5-0.884-0.6-1.15c-0.2-0.434-0.2-0.767,0-1
					c0.267-0.3,0.417-0.65,0.45-1.05l-0.05-0.55c0.1-0.7,0.467-1.417,1.1-2.15c0.633-0.633,1.417-1.15,2.35-1.55
					c-0.2,0.267-0.3,0.517-0.3,0.75c0,1,1.233,1.85,3.7,2.55c2.466,0.7,5.45,1.05,8.95,1.05c3.467,0,6.433-0.35,8.899-1.05
					s3.7-1.55,3.7-2.55l-0.05-0.25c0.667,0.366,1.133,0.717,1.399,1.05c0.634,0.733,1,1.45,1.101,2.15v0.55
					C101.233,80.9,101.367,81.25,101.6,81.55z"/>
				<g>
					
						<radialGradient id="SVGID_48_" cx="86.0498" cy="81.7002" r="10.4" gradientTransform="matrix(1 0 0 -0.9195 0 156.8212)" gradientUnits="userSpaceOnUse">
						<stop  offset="0.4863" style="stop-color:#E9EEF0"/>
						<stop  offset="0.7725" style="stop-color:#E8F0F2;stop-opacity:0.9686"/>
						<stop  offset="0.949" style="stop-color:#E5F8FB;stop-opacity:0.8667"/>
						<stop  offset="1" style="stop-color:#E3FBFF;stop-opacity:0.8196"/>
					</radialGradient>
					<path style="fill-rule:evenodd;clip-rule:evenodd;fill:url(#SVGID_48_);" d="M96.6,79.05c-2.466,1.634-5.949,2.384-10.449,2.25
						c-5.234-0.167-8.784-0.95-10.65-2.35c2.467,1.1,6.017,1.649,10.65,1.649C90.684,80.6,94.167,80.083,96.6,79.05z"/>
				</g>
				<g>
					
						<radialGradient id="SVGID_49_" cx="80" cy="85.7002" r="15.4375" gradientTransform="matrix(1 0 0 -0.919 0 164.4611)" gradientUnits="userSpaceOnUse">
						<stop  offset="0" style="stop-color:#3C5659;stop-opacity:0.4314"/>
						<stop  offset="1" style="stop-color:#2E4040;stop-opacity:0.2471"/>
					</radialGradient>
					<path style="fill-rule:evenodd;clip-rule:evenodd;fill:url(#SVGID_49_);" d="M100.25,79.95l0.65,1.55
						c0.133,1.267-0.45,2.517-1.75,3.75c-1.567,0.733-3.684,1.333-6.351,1.8c-2.5,0.4-4.967,0.601-7.399,0.601
						c-3.067,0-5.884-0.334-8.45-1c-2.567-0.7-4.7-1.684-6.4-2.95c-0.333-0.567-0.55-0.983-0.65-1.25
						c2.167,1.933,4.467,3.166,6.9,3.7c2.9,0.6,6.117,0.866,9.65,0.8c3.934-0.067,7.017-0.567,9.25-1.5c2-0.8,3.366-1.967,4.1-3.5
						L100.25,79.95z"/>
				</g>
			</g>
		</g>
	</g>
</g>
<g>
	<g>
		<path style="fill-rule:evenodd;clip-rule:evenodd;fill:#FEE6FF;" d="M78.55,35.75c0,1.7-0.8,2.55-2.4,2.55h-6.4l-0.5,3.6
			c1-0.233,1.85-0.35,2.55-0.35c2.034,0,3.733,0.717,5.1,2.15c1.3,1.366,1.95,3.066,1.95,5.1c0,2.867-0.767,5.134-2.3,6.8
			c-1.6,1.733-3.833,2.601-6.7,2.601c-1.5,0-3.05-0.384-4.65-1.15c-1.9-0.934-2.85-2.066-2.85-3.4c0-0.633,0.233-1.167,0.7-1.6
			c0.434-0.467,0.967-0.7,1.6-0.7c0.4,0,1.167,0.367,2.3,1.101c1.167,0.7,2.167,1.05,3,1.05c1.1,0,2-0.467,2.7-1.4
			c0.6-0.866,0.9-1.883,0.9-3.05c0-1.033-0.283-1.866-0.85-2.5c-0.567-0.633-1.367-0.95-2.4-0.95c-0.7,0-1.4,0.2-2.1,0.601
			c-0.733,0.366-1.383,0.55-1.95,0.55c-0.6,0-1.1-0.2-1.5-0.6c-0.333-0.333-0.5-0.667-0.5-1l0.95-8.35c0.2-1.3,0.5-2.167,0.9-2.6
			c0.333-0.4,0.917-0.601,1.75-0.601h8.2c0.8,0,1.417,0.2,1.85,0.601C78.333,34.6,78.55,35.116,78.55,35.75z"/>
		<path style="fill-rule:evenodd;clip-rule:evenodd;fill:#FEE6FF;" d="M97.6,37.35c1.301,2.267,1.95,5.05,1.95,8.351
			c0,3.3-0.649,6.083-1.95,8.35c-1.566,2.767-3.916,4.15-7.05,4.15c-3.133,0-5.483-1.384-7.05-4.15c-1.3-2.267-1.95-5.05-1.95-8.35
			c0-3.3,0.65-6.084,1.95-8.351c1.566-2.767,3.917-4.149,7.05-4.149C93.684,33.2,96.033,34.583,97.6,37.35z M90.55,37.8
			c-2.467,0-3.7,2.634-3.7,7.9s1.233,7.899,3.7,7.899s3.7-2.633,3.7-7.899S93.017,37.8,90.55,37.8z"/>
		<path style="fill-rule:evenodd;clip-rule:evenodd;fill:#FEE6FF;" d="M101.75,34.35c0.434-0.5,1-0.75,1.7-0.75h4.85
			c0.7,0,1.25,0.233,1.65,0.7c0.399,0.434,0.6,1,0.6,1.7v19.35c0,0.834-0.233,1.483-0.7,1.95c-0.466,0.467-1.083,0.7-1.85,0.7
			c-0.733,0-1.333-0.233-1.8-0.7c-0.5-0.467-0.75-1.116-0.75-1.95V38.3h-2c-0.733,0-1.316-0.25-1.75-0.75
			c-0.367-0.434-0.55-0.967-0.55-1.6C101.15,35.316,101.35,34.783,101.75,34.35z"/>
	</g>
	<g>
		
			<linearGradient id="SVGID_50_" gradientUnits="userSpaceOnUse" x1="-56.0083" y1="70.6025" x2="-31.1333" y2="70.6025" gradientTransform="matrix(4.020101e-005 -1 1 -0.001 2.259800e-004 4.449275e-004)">
			<stop  offset="0.0745" style="stop-color:#6A034E"/>
			<stop  offset="0.2667" style="stop-color:#830B61"/>
			<stop  offset="0.6706" style="stop-color:#C22193"/>
			<stop  offset="0.9922" style="stop-color:#F934BE"/>
		</linearGradient>
		<path style="fill-rule:evenodd;clip-rule:evenodd;fill:url(#SVGID_50_);" d="M69.75,37.3l-0.5,3.6c1-0.233,1.85-0.35,2.55-0.35
			c2.034,0,3.733,0.717,5.1,2.15c1.3,1.366,1.95,3.066,1.95,5.1c0,2.867-0.767,5.134-2.3,6.8c-1.6,1.733-3.833,2.601-6.7,2.601
			c-1.5,0-3.05-0.384-4.65-1.15c-1.9-0.934-2.85-2.066-2.85-3.4c0-0.633,0.233-1.167,0.7-1.6c0.434-0.467,0.967-0.7,1.6-0.7
			c0.4,0,1.167,0.367,2.3,1.101c1.167,0.7,2.167,1.05,3,1.05c1.1,0,2-0.467,2.7-1.4c0.6-0.866,0.9-1.883,0.9-3.05
			c0-1.033-0.283-1.866-0.85-2.5c-0.567-0.633-1.367-0.95-2.4-0.95c-0.7,0-1.4,0.2-2.1,0.601c-0.733,0.366-1.383,0.55-1.95,0.55
			c-0.6,0-1.1-0.2-1.5-0.6c-0.333-0.333-0.5-0.667-0.5-1l0.95-8.35c0.2-1.3,0.5-2.167,0.9-2.6c0.333-0.4,0.917-0.601,1.75-0.601h8.2
			c0.8,0,1.417,0.2,1.85,0.601c0.434,0.399,0.65,0.916,0.65,1.55c0,1.7-0.8,2.55-2.4,2.55H69.75z"/>
		
			<linearGradient id="SVGID_51_" gradientUnits="userSpaceOnUse" x1="-56.0278" y1="90.5527" x2="-31.1528" y2="90.5527" gradientTransform="matrix(4.020101e-005 -1 1 -0.001 2.259800e-004 4.449275e-004)">
			<stop  offset="0.0745" style="stop-color:#6A034E"/>
			<stop  offset="0.2667" style="stop-color:#830B61"/>
			<stop  offset="0.6706" style="stop-color:#C22193"/>
			<stop  offset="0.9922" style="stop-color:#F934BE"/>
		</linearGradient>
		<path style="fill-rule:evenodd;clip-rule:evenodd;fill:url(#SVGID_51_);" d="M97.6,36.35c1.301,2.267,1.95,5.05,1.95,8.351
			c0,3.3-0.649,6.083-1.95,8.35c-1.566,2.767-3.916,4.15-7.05,4.15c-3.133,0-5.483-1.384-7.05-4.15c-1.3-2.267-1.95-5.05-1.95-8.35
			c0-3.3,0.65-6.084,1.95-8.351c1.566-2.767,3.917-4.149,7.05-4.149C93.684,32.2,96.033,33.583,97.6,36.35z M90.55,52.6
			c2.467,0,3.7-2.633,3.7-7.899s-1.233-7.9-3.7-7.9s-3.7,2.634-3.7,7.9S88.083,52.6,90.55,52.6z"/>
		
			<linearGradient id="SVGID_52_" gradientUnits="userSpaceOnUse" x1="-56.0435" y1="105.8525" x2="-31.1685" y2="105.8525" gradientTransform="matrix(4.020101e-005 -1 1 -0.001 2.259800e-004 4.449275e-004)">
			<stop  offset="0.0745" style="stop-color:#6A034E"/>
			<stop  offset="0.2667" style="stop-color:#830B61"/>
			<stop  offset="0.6706" style="stop-color:#C22193"/>
			<stop  offset="0.9922" style="stop-color:#F934BE"/>
		</linearGradient>
		<path style="fill-rule:evenodd;clip-rule:evenodd;fill:url(#SVGID_52_);" d="M103.45,37.3c-0.733,0-1.316-0.25-1.75-0.75
			c-0.367-0.434-0.55-0.967-0.55-1.6c0-0.634,0.199-1.167,0.6-1.601c0.434-0.5,1-0.75,1.7-0.75h4.85c0.7,0,1.25,0.233,1.65,0.7
			c0.399,0.434,0.6,1,0.6,1.7v19.35c0,0.834-0.233,1.483-0.7,1.95c-0.466,0.467-1.083,0.7-1.85,0.7c-0.733,0-1.333-0.233-1.8-0.7
			c-0.5-0.467-0.75-1.116-0.75-1.95V37.3H103.45z"/>
	</g>
</g>
<g>
	
		<use xlink:href="#FlashAICB_x2F_Layer_25_x2F__x3C_Path_x3E__x5F_2"  width="118.7" height="57.1" y="-57.1" transform="matrix(1 0 0 -1 26.2002 83.75)" style="overflow:visible;opacity:0.2813;enable-background:new    ;"/>
	
		<use xlink:href="#FlashAICB_x2F_Layer_25_x2F__x3C_Path_x3E__x5F_1"  width="110" height="55.75" y="-55.75" transform="matrix(1 0 0 -1 30.3501 24.9502)" style="overflow:visible;opacity:0.1094;enable-background:new    ;"/>
	
		<use xlink:href="#FlashAICB_x2F_Layer_25_x2F__x3C_Path_x3E_"  width="110" height="61.294" y="-61.294" transform="matrix(1 0 0 -1 30.3501 24.9502)" style="overflow:visible;opacity:0.0898;enable-background:new    ;"/>
</g>
</svg>
