<?xml version="1.0" encoding="iso-8859-1"?>
<!-- Generator: Adobe Illustrator 15.1.0, SVG Export Plug-In . SVG Version: 6.00 Build 0)  -->
<!DOCTYPE svg PUBLIC "-//W3C//DTD SVG 1.1//EN" "http://www.w3.org/Graphics/SVG/1.1/DTD/svg11.dtd">
<svg version="1.1" id="Layer_1" xmlns="http://www.w3.org/2000/svg" xmlns:xlink="http://www.w3.org/1999/xlink" x="0px" y="0px"
	 width="171.75px" height="171.8px" viewBox="0 0 171.75 171.8" style="enable-background:new 0 0 171.75 171.8;"
	 xml:space="preserve">
<symbol  id="FlashAICB_x2F_Layer_1_x2F__x3C_Path_x3E_" viewBox="0 -61.9 128.6 61.9">
	<g id="Layer_1_3_">
		
			<radialGradient id="SVGID_1_" cx="64.2998" cy="-30.9502" r="50.4599" gradientTransform="matrix(1 0 0 -1 0 -61.9004)" gradientUnits="userSpaceOnUse">
			<stop  offset="0" style="stop-color:#DE98DD;stop-opacity:0"/>
			<stop  offset="0.149" style="stop-color:#D491D2;stop-opacity:0.1451"/>
			<stop  offset="0.4" style="stop-color:#B87DB7;stop-opacity:0.5333"/>
			<stop  offset="0.651" style="stop-color:#976696"/>
		</radialGradient>
		<path style="fill-rule:evenodd;clip-rule:evenodd;fill:url(#SVGID_1_);" d="M128.05-0.3L128.6,0
			c-0.633-17.233-7.167-31.85-19.6-43.85C96.5-55.883,81.583-61.9,64.25-61.9c-17.033,0-31.733,5.816-44.1,17.45
			C7.783-32.883,1.067-18.683,0-1.85c4.967-13,13.183-23.5,24.65-31.5c11.7-8.2,24.733-12.3,39.1-12.3
			c14.633,0,27.883,4.25,39.75,12.75C115.067-24.567,123.25-13.7,128.05-0.3z"/>
	</g>
</symbol>
<symbol  id="FlashAICB_x2F_Layer_1_x2F__x3C_Path_x3E__x5F_0" viewBox="0 -66.417 119.2 66.417">
	<g id="Layer_1_5_">
		<path style="fill-rule:evenodd;clip-rule:evenodd;fill:#FFFFFF;" d="M115.4-37.25c2.533-6.1,3.8-11.85,3.8-17.25
			c0-5.367-1.567-8.75-4.7-10.15c-2.533-1.133-6.783-1.117-12.75,0.05c-7.9,1.9-14.217,3.367-18.95,4.4
			c-8.667,1.833-16.4,2.75-23.2,2.75c-6.867,0-14.6-1-23.2-3c-9.033-2.367-15.35-3.966-18.95-4.8c-6-1.367-10.25-1.533-12.75-0.5
			C1.567-64.483,0-61.167,0-55.8c0,5.933,1.267,12.066,3.8,18.4c2.667,6.7,6.434,12.733,11.3,18.1C26.7-6.433,41.533,0,59.6,0
			c17.833,0,32.65-6.483,44.45-19.45C108.883-24.783,112.667-30.717,115.4-37.25z"/>
	</g>
</symbol>
<symbol  id="FlashAICB_x2F_Layer_1_x2F__x3C_Path_x3E__x5F_1" viewBox="0 -128.6 128.8 128.6">
	<g id="Layer_1_2_">
		
			<radialGradient id="SVGID_2_" cx="64.3999" cy="-64.2998" r="64.35" gradientTransform="matrix(1 0 0 -1 0 -128.5996)" gradientUnits="userSpaceOnUse">
			<stop  offset="0" style="stop-color:#FBB6DB"/>
			<stop  offset="0.2392" style="stop-color:#F9B4D8"/>
			<stop  offset="0.4157" style="stop-color:#F3ADCF"/>
			<stop  offset="0.5686" style="stop-color:#E7A0BF"/>
			<stop  offset="0.6627" style="stop-color:#DD95B1"/>
			<stop  offset="1" style="stop-color:#7F257D;stop-opacity:0.4078"/>
		</radialGradient>
		<path style="fill-rule:evenodd;clip-rule:evenodd;fill:url(#SVGID_2_);" d="M128.8-64.3c0-17.767-6.283-32.917-18.85-45.45
			c-12.6-12.567-27.784-18.85-45.55-18.85c-17.8,0-32.983,6.283-45.55,18.85C6.283-97.217,0-82.067,0-64.3
			c0,17.767,6.283,32.917,18.85,45.45C31.417-6.283,46.6,0,64.4,0c17.767,0,32.95-6.283,45.55-18.85
			C122.517-31.417,128.8-46.567,128.8-64.3z"/>
	</g>
</symbol>
<symbol  id="FlashAICB_x2F_Layer_1_x2F__x3C_Path_x3E__x5F_1_x5F_0" viewBox="0 -60.45 119.2 60.45">
	<g id="Layer_1_4_">
		
			<linearGradient id="SVGID_3_" gradientUnits="userSpaceOnUse" x1="16160.6572" y1="-58.4668" x2="16221.0479" y2="-58.4668" gradientTransform="matrix(1.654944e-005 1 -1 -0.001 0.8657 -16221.1064)">
			<stop  offset="0.1294" style="stop-color:#E2B8B2"/>
			<stop  offset="0.9255" style="stop-color:#FFFFFF"/>
		</linearGradient>
		<path style="fill-rule:evenodd;clip-rule:evenodd;fill:url(#SVGID_3_);" d="M104.05-19.45c4.833-5.333,8.617-11.267,11.35-17.8
			c2.533-6.1,3.8-11.85,3.8-17.25c0-1.8-0.184-3.4-0.55-4.8c-2,11.966-7.85,22.6-17.55,31.9c-11.434,11-25.267,16.5-41.5,16.5
			c-16.533,0-30.45-5.483-41.75-16.45c-9.733-9.433-15.533-20.467-17.4-33.1C0.15-59.15,0-57.6,0-55.8
			c0,5.933,1.267,12.066,3.8,18.4c2.667,6.7,6.434,12.733,11.3,18.1C26.7-6.433,41.533,0,59.6,0C77.433,0,92.25-6.483,104.05-19.45z
			"/>
	</g>
</symbol>
<g>
	<path style="fill-rule:evenodd;clip-rule:evenodd;fill:#FFFFFF;" d="M171.75,85.9c0,11.633-2.25,22.767-6.75,33.4
		c-4.366,10.267-10.517,19.367-18.45,27.3c-7.934,7.934-17.033,14.084-27.3,18.45c-10.634,4.5-21.767,6.75-33.4,6.75
		c-11.633,0-22.766-2.25-33.399-6.75c-10.267-4.366-19.367-10.517-27.3-18.45c-7.9-7.933-14.033-17.033-18.4-27.3
		C2.25,108.667,0,97.533,0,85.9s2.25-22.767,6.75-33.4c4.367-10.267,10.5-19.367,18.4-27.3c7.934-7.934,17.033-14.083,27.3-18.45
		C63.083,2.25,74.217,0,85.85,0c11.634,0,22.767,2.25,33.4,6.75c10.267,4.367,19.366,10.517,27.3,18.45
		c7.934,7.933,14.084,17.033,18.45,27.3C169.5,63.133,171.75,74.267,171.75,85.9z"/>
	<g>
		<g>
			
				<linearGradient id="SVGID_4_" gradientUnits="userSpaceOnUse" x1="-157.6851" y1="85.8506" x2="-14.2856" y2="85.8506" gradientTransform="matrix(6.973501e-006 -1 1 -0.001 -1.064519e-004 4.449275e-004)">
				<stop  offset="0.0745" style="stop-color:#362439"/>
				<stop  offset="0.1882" style="stop-color:#4F3450"/>
				<stop  offset="0.4353" style="stop-color:#8F5E89"/>
				<stop  offset="0.6" style="stop-color:#BE7CB4"/>
				<stop  offset="0.9216" style="stop-color:#EFEBC5"/>
			</linearGradient>
			<path style="fill-rule:evenodd;clip-rule:evenodd;fill:url(#SVGID_4_);" d="M151.9,113.8c-3.634,8.566-8.75,16.167-15.351,22.8
				c-14.033,14-30.934,21-50.7,21c-19.766,0-36.667-7-50.7-21c-6.6-6.633-11.717-14.233-15.35-22.8
				c-3.767-8.899-5.65-18.2-5.65-27.9s1.883-19,5.65-27.9c3.633-8.567,8.75-16.167,15.35-22.8c6.633-6.6,14.233-11.717,22.8-15.35
				c8.9-3.767,18.2-5.65,27.899-5.65c9.7,0,19,1.883,27.9,5.65c8.566,3.633,16.167,8.75,22.8,15.35
				c6.601,6.633,11.717,14.233,15.351,22.8c3.767,8.9,5.649,18.2,5.649,27.9S155.667,104.9,151.9,113.8z"/>
			<path style="fill-rule:evenodd;clip-rule:evenodd;fill:#3B223B;" d="M151.1,113.45c3.7-8.767,5.551-17.95,5.551-27.55
				S154.8,67.117,151.1,58.35c-3.6-8.467-8.666-15.967-15.199-22.5C122.1,22.017,105.417,15.1,85.85,15.1
				c-19.533,0-36.216,6.917-50.05,20.75C21.967,49.683,15.05,66.367,15.05,85.9c0,19.567,6.917,36.25,20.75,50.05
				c6.534,6.533,14.034,11.6,22.5,15.2c8.767,3.699,17.95,5.55,27.55,5.55c9.601,0,18.784-1.851,27.551-5.55
				c8.466-3.601,15.966-8.667,22.5-15.2C142.434,129.417,147.5,121.917,151.1,113.45z M158.45,85.9c0,9.7-1.834,18.966-5.5,27.8
				c-3.634,8.833-8.884,16.684-15.75,23.55c-6.867,6.866-14.717,12.116-23.55,15.75c-8.834,3.667-18.101,5.5-27.801,5.5
				c-9.7,0-18.966-1.833-27.8-5.5c-8.833-3.634-16.683-8.884-23.55-15.75s-12.117-14.717-15.75-23.55
				c-3.667-8.834-5.5-18.101-5.5-27.8s1.833-18.967,5.5-27.8c3.667-8.833,8.917-16.684,15.75-23.55
				c6.867-6.833,14.717-12.083,23.55-15.75c8.833-3.667,18.1-5.5,27.8-5.5c9.7,0,18.967,1.833,27.801,5.5
				c8.833,3.633,16.683,8.883,23.55,15.75c6.866,6.867,12.116,14.717,15.75,23.55C156.616,66.933,158.45,76.2,158.45,85.9z"/>
		</g>
		
			<use xlink:href="#FlashAICB_x2F_Layer_1_x2F__x3C_Path_x3E__x5F_1"  width="128.8" height="128.6" y="-128.6" transform="matrix(1 0 0 -1 21.4502 19.25)" style="overflow:visible;opacity:0.3789;enable-background:new    ;"/>
		<g>
			<g>
				<path style="fill-rule:evenodd;clip-rule:evenodd;fill:#FEE6FF;" d="M92.4,33.6c0,2.133-0.867,3.75-2.601,4.85
					c1.167,0.533,2.084,1.3,2.75,2.3c0.733,1.033,1.101,2.167,1.101,3.4c0,1.934-0.767,3.583-2.301,4.95
					c-1.566,1.4-3.466,2.1-5.699,2.1c-2.2,0-4.05-0.684-5.55-2.05c-1.367-1.233-2.05-2.55-2.05-3.95c0-0.6,0.267-1.1,0.8-1.5
					c0.5-0.4,1.05-0.6,1.65-0.6s1.3,0.617,2.1,1.85c0.767,1.233,1.8,1.85,3.1,1.85c0.833,0,1.533-0.283,2.1-0.85
					c0.601-0.567,0.9-1.267,0.9-2.1c0-1.533-0.9-2.45-2.7-2.75c-1.8-0.267-2.7-1-2.7-2.2c0-1.066,0.75-1.8,2.25-2.2
					c1.5-0.4,2.25-1.2,2.25-2.4c0-0.6-0.2-1.1-0.6-1.5c-0.4-0.4-0.95-0.6-1.65-0.6c-1.1,0-2.017,0.517-2.75,1.55
					c-0.733,1.033-1.417,1.55-2.05,1.55c-0.6,0-1.1-0.25-1.5-0.75c-0.367-0.433-0.55-0.966-0.55-1.6c0-1.267,0.716-2.434,2.15-3.5
					c1.433-1.1,3.017-1.65,4.75-1.65c2.134,0,3.851,0.667,5.15,2C91.85,30.933,92.4,32.2,92.4,33.6z"/>
			</g>
			<g>
				
					<linearGradient id="SVGID_5_" gradientUnits="userSpaceOnUse" x1="-50.2847" y1="85.8525" x2="-26.9097" y2="85.8525" gradientTransform="matrix(4.278075e-005 -1 1 -0.001 1.438522e-004 4.449275e-004)">
					<stop  offset="0.3255" style="stop-color:#462244"/>
					<stop  offset="0.5294" style="stop-color:#482146"/>
					<stop  offset="0.6627" style="stop-color:#51214F"/>
					<stop  offset="0.7725" style="stop-color:#5F205D"/>
					<stop  offset="0.8706" style="stop-color:#741E72"/>
					<stop  offset="0.9647" style="stop-color:#8E198C"/>
					<stop  offset="1" style="stop-color:#9B1699"/>
				</linearGradient>
				<path style="fill-rule:evenodd;clip-rule:evenodd;fill:url(#SVGID_5_);" d="M92.4,32.6c0,2.133-0.867,3.75-2.601,4.85
					c1.167,0.533,2.084,1.3,2.75,2.3c0.733,1.033,1.101,2.167,1.101,3.4c0,1.934-0.767,3.583-2.301,4.95
					c-1.566,1.4-3.466,2.1-5.699,2.1c-2.2,0-4.05-0.684-5.55-2.05c-1.367-1.233-2.05-2.55-2.05-3.95c0-0.6,0.267-1.1,0.8-1.5
					c0.5-0.4,1.05-0.6,1.65-0.6s1.3,0.617,2.1,1.85c0.767,1.233,1.8,1.85,3.1,1.85c0.833,0,1.533-0.283,2.1-0.85
					c0.601-0.567,0.9-1.267,0.9-2.1c0-1.533-0.9-2.45-2.7-2.75c-1.8-0.267-2.7-1-2.7-2.2c0-1.066,0.75-1.8,2.25-2.2
					c1.5-0.4,2.25-1.2,2.25-2.4c0-0.6-0.2-1.1-0.6-1.5c-0.4-0.4-0.95-0.6-1.65-0.6c-1.1,0-2.017,0.517-2.75,1.55
					c-0.733,1.033-1.417,1.55-2.05,1.55c-0.6,0-1.1-0.25-1.5-0.75c-0.367-0.433-0.55-0.966-0.55-1.6c0-1.267,0.716-2.434,2.15-3.5
					c1.433-1.1,3.017-1.65,4.75-1.65c2.134,0,3.851,0.667,5.15,2C91.85,29.933,92.4,31.2,92.4,32.6z"/>
			</g>
		</g>
		<g>
			
				<linearGradient id="SVGID_6_" gradientUnits="userSpaceOnUse" x1="-127.8247" y1="87.3799" x2="-63.1497" y2="87.3799" gradientTransform="matrix(1.546192e-005 -1 1 -0.001 -1.384577e-004 4.449275e-004)">
				<stop  offset="0.0549" style="stop-color:#6C1F69"/>
				<stop  offset="0.5882" style="stop-color:#CEA8B1"/>
				<stop  offset="0.8392" style="stop-color:#FAE3D0"/>
			</linearGradient>
			<path style="fill-rule:evenodd;clip-rule:evenodd;fill:url(#SVGID_6_);" d="M73.4,71.4l-1.3,0.15c-0.333,0.034-0.667,0.034-1,0
				l-0.9,0.3h-0.25l-0.1,0.05l-0.8,0.05c-0.1,0.066-0.35,0.133-0.75,0.2l-0.55,0.15l-0.7,0.05l-0.8,0.3l-1.15,0.2l-0.65,0.3
				L64,73.25c-0.233,0.1-0.517,0.15-0.85,0.15l-0.8,0.4l-0.45,0.15c-0.2,0.1-0.417,0.15-0.65,0.15
				c-0.033,0.033-0.217,0.133-0.55,0.3l-0.65,0.25c-0.3,0.1-0.466,0.15-0.5,0.15l-1.1,0.55l-0.55,0.2l-0.45,0.3L57.3,75.9l-0.55,0.3
				l-0.15,0.05l-0.5,0.3l-0.15,0.05l-0.15,0.1c-0.5,0.267-1.083,0.433-1.75,0.5c-0.2,0.433-0.6,0.883-1.2,1.35l-0.9,0.6
				c-0.2,0.2-0.367,0.333-0.5,0.4l-0.3,0.25c-0.433,0.367-0.933,0.617-1.5,0.75c-0.2,0.467-0.483,0.917-0.85,1.35l-0.75,0.7
				l-0.6,0.75c-0.434,0.433-0.817,0.733-1.15,0.9c-0.233,0.667-0.433,1.117-0.6,1.35l-0.15,0.2l-0.05,0.1l-0.55,0.9l-0.15,0.3
				c-0.3,0.467-0.583,0.817-0.85,1.051c0,0.466-0.067,0.899-0.2,1.3l-0.3,0.7l-0.05,0.3v0.05l-0.05,0.15l-0.05,0.1l-0.1,0.35
				c-0.1,0.367-0.25,0.7-0.45,1c0.1,0.4,0.133,0.767,0.1,1.101v0.45L42.8,94v1.45l0.1,0.45v0.25l0.05,0.5V96.8l0.3,0.9l0.1,0.7
				L43.6,99h0.05v0.15h0.05l0.15,0.6l0.35,0.65l0.1,0.149l0.3,0.8c0.133,0.567,0.15,1.167,0.05,1.801
				c0.3,0.566,0.65,1.083,1.05,1.55v0.05l0.1,0.1l0.25,0.4l0.25,0.25v0.05l0.45,0.55l0.2,0.2l0.2,0.3l0.25,0.2l0.45,0.55l0.3,0.25
				l0.1,0.15l0.45,0.5c0.1,0.033,0.233,0.134,0.4,0.3l0.45,0.45l1.95,1.55l0.85,0.55c1.167-0.933,2.467-1.133,3.9-0.6l0.05,0.05
				l0.8,0.3l0.5,0.301l0.65,0.1l0.15,0.05l0.1,0.05l0.2,0.051h0.05l0.8,0.399l0.9,0.101l0.5,0.149
				c0.466,0.167,0.767,0.283,0.9,0.351c0.433,0,0.767,0.033,1,0.1l0.3,0.05h0.1l0.8,0.25c0.4,0,0.7,0.017,0.9,0.05h0.1l0.2,0.051
				h0.15c0.4,0.033,0.817,0.166,1.25,0.399l1.1-0.149l0.15,0.05h0.45l0.2,0.05c0.5,0.066,0.85,0.15,1.05,0.25l1.25-0.2h0.45
				l0.15,0.05h0.3l0.95,0.2c0.4-0.133,0.833-0.233,1.3-0.3h0.3c0.5-0.033,0.967,0.017,1.4,0.15c0.433-0.233,0.867-0.367,1.3-0.4h0.4
				c0.267-0.033,0.517-0.033,0.75,0l0.85-0.25h0.05l0.3-0.05l0.75-0.05c0.267-0.134,0.5-0.2,0.7-0.2l0.2-0.05
				c0.367-0.101,0.767-0.117,1.2-0.051c0.267-0.166,0.566-0.3,0.9-0.399l0.6-0.2c0.466-0.1,0.883-0.134,1.25-0.1
				c0.3-0.267,0.666-0.45,1.1-0.551l0.25-0.1c0.467-0.134,0.851-0.2,1.15-0.2l1-0.55l0.05-0.05h0.05l0.05-0.05l1.101-0.25
				c0.3-0.233,0.6-0.417,0.899-0.551L90.9,109.2c0.833-0.367,1.683-0.45,2.55-0.25c0.833,0.166,1.533,0.583,2.1,1.25
				c1.601-0.334,2.917,0.184,3.95,1.55l0.25,0.45c1-0.733,2.083-0.967,3.25-0.7l0.5,0.15l0.3,0.05h0.55l0.301-0.05h0.75l1-0.75
				c-0.067-0.434-0.084-0.767-0.051-1c-0.1-0.334-0.116-0.717-0.05-1.15v-0.7c-0.7-1.333-0.666-2.649,0.101-3.95
				c-0.233-0.133-0.434-0.35-0.601-0.649c-0.934-1.233-1.066-2.566-0.399-4l0.399-1c0.4-0.967,1.134-1.7,2.2-2.2
				c0.533-0.2,0.983-0.3,1.35-0.3c-0.366-0.101-0.767-0.283-1.199-0.55c-1.301-0.9-1.867-2.15-1.7-3.75l0.05-0.2v-0.7l0.05-0.3V89.4
				c-0.033-0.134-0.033-0.284,0-0.45l-0.1-0.351v-0.25L106.4,87.7l-0.301-0.9L106,86.15l-0.35-0.8l-0.15-0.55l-0.25-0.4v-0.05
				l-0.05-0.05v-0.05l-0.4-0.9l-0.85-1.3l-0.601-0.75L103,80.7c-0.134-0.067-0.316-0.217-0.55-0.45l-0.2-0.25
				c-0.667-0.733-1.033-1.567-1.1-2.5L101,77.45c-0.9,0.1-1.783-0.117-2.65-0.65L98.2,76.65l-0.65-0.55
				c-0.2-0.033-0.467-0.15-0.8-0.35l-0.4-0.2c-0.333-0.2-0.566-0.367-0.699-0.5L94.9,74.8L94.8,74.75L94.65,74.7
				c-0.233-0.1-0.45-0.25-0.65-0.45c-0.434-0.067-0.75-0.15-0.95-0.25l-0.45-0.15l-0.85-0.45l-0.9-0.2l-0.25-0.1
				c-0.199-0.033-0.466-0.15-0.8-0.35l-0.85-0.1L88.4,72.5c-0.467-0.167-0.767-0.283-0.9-0.35c-0.434,0-0.767-0.033-1-0.1L86.1,72
				l-0.8-0.25c-0.367,0-0.65-0.017-0.85-0.05H84.4l-0.9-0.15h-0.25l-1-0.1L82,71.4h-0.25l-1.05-0.1l-2.1-0.1l-3,0.05l-0.2,0.05
				l-1.3,0.05l-0.2,0.05H73.4z M85.5,63.2c6.033,0.8,11.4,2.583,16.1,5.35l2.601-2.3c0.066-0.7,0.3-1.333,0.7-1.9
				c0.267-0.367,0.783-0.967,1.55-1.8l0.649-0.65l0.101-0.15c1.133-1.033,1.983-1.8,2.55-2.3l0.15-0.1l1.35-1.05l0.1-0.05L118.2,54
				l0.3-0.1l1.05-0.55l0.2-0.05l1.35-0.6l0.851-0.3l0.2-0.1l0.199-0.05c1.4-0.467,2.534-0.7,3.4-0.7l1,0.05
				c1.7-0.733,3.35-1.133,4.95-1.2c0.366-0.033,0.717-0.033,1.05,0c1.634,0.1,3.233,0.717,4.8,1.85c1.5,1.067,2.467,2.233,2.9,3.5
				c0.3,0.7,0.366,1.533,0.2,2.5L140.55,59c-0.166,1.033-0.649,1.883-1.45,2.55c-0.8,0.667-1.733,1-2.8,1h-0.149l-0.2,0.85
				c-0.267,1.6-1.167,2.667-2.7,3.2c-0.6,0.367-1.267,0.566-2,0.6c-0.7,0-1.35-0.15-1.95-0.45L126.9,67.2l-0.551,0.25l-0.199,0.05
				l-0.351,0.2l-0.149,0.05c-1.034,0.6-2.351,1.783-3.95,3.55c-1.4,1.567-2.483,2.684-3.25,3.35l-1.101,0.95L116.9,76l-0.9-1.1V75
				l0.1,0.15l0.7,0.9l-1.25,0.9l-0.1,0.1c-0.934,0.6-1.783,1-2.55,1.2l-0.851,0.1c1.834,2.9,2.917,5.917,3.25,9.05
				c3.4,0.066,6.167,0.399,8.3,1c2.367,0.666,4.15,1.55,5.351,2.649c1,0.967,1.399,2.101,1.2,3.4l-0.851,7.5
				c-0.1,0.833-0.45,1.583-1.05,2.25l-4.8,5.149c-0.7,0.767-1.566,1.2-2.601,1.301c-1,0.1-1.916-0.167-2.75-0.801l-3.649-2.75
				l-0.05,0.051L114.3,107.3l-0.05,0.05v0.301l0.05,0.35l0.101,2.45h0.1c0.967,0.233,1.767,0.45,2.4,0.649
				c1.933,0.634,3.5,1.601,4.699,2.9c1.2,1.3,1.801,2.667,1.801,4.1c0,0.634,0.033,1.134,0.1,1.5l4.45,0.851
				c1.399,0.3,2.366,1.1,2.899,2.399c0.534,1.134,0.601,2.317,0.2,3.551c-0.3,0.966-0.767,1.75-1.399,2.35l-0.5,0.45l-0.2,0.649
				c-0.334,0.9-0.834,1.65-1.5,2.25c-0.8,0.801-1.75,1.2-2.851,1.2l-1.05-0.149l-6.8-1.851c-1.233-0.333-2.483-1.133-3.75-2.399
				c-0.5-0.233-1.15-0.417-1.95-0.551H110.9c-1.301-0.267-2.334-0.6-3.101-1c-1.533-0.733-2.684-1.816-3.45-3.25
				c-0.633-1.133-1.05-2.416-1.25-3.85l-1.149,1.2c-3.7,3.733-7.8,6.95-12.3,9.649c-0.9,0.867-2.017,1.301-3.351,1.301
				c-1.466,0-2.9-0.601-4.3-1.801c-1.2-1.066-2.067-2.233-2.6-3.5c-0.467-1.166-0.7-2.366-0.7-3.6c-5.267,0.7-10.267,0.717-15,0.05
				c-6.133-0.866-11.55-2.899-16.25-6.1c-3.233-2.2-5.95-4.834-8.15-7.9l-0.1-0.1v-0.05l-0.1-0.101
				c-1.367-1.934-2.383-3.733-3.05-5.399l-0.15-0.551c-0.867-1.866-1.433-3.916-1.7-6.149c-0.8-6.367,1.033-12.4,5.5-18.1
				c3.333-4.233,7.783-7.767,13.35-10.6c5.534-2.833,11.567-4.65,18.1-5.45C76.25,62.483,81.033,62.533,85.5,63.2z M115.05,65.45
				l-0.1,0.1c-0.9,0.733-1.634,1.383-2.2,1.95l-0.05,0.1l-0.3,0.3c-0.067,0.667-0.233,1.283-0.5,1.85l0.149-0.1l0.05-0.1l1-0.85
				c0.667-0.6,1.567-1.517,2.7-2.75c1.101-1.3,2.084-2.317,2.95-3.05l-0.9,0.55l-0.1,0.1l-2.6,1.85L115.05,65.45z M112.1,95.75
				L111.3,96l-0.649,0.1L112.1,96.7c0.567,0.267,1.051,0.616,1.45,1.05c0.601,0,1.2,0.15,1.8,0.45c1.167,0.633,1.9,1.066,2.2,1.3
				l2.5,1.8l1.45-1.55l0.4-3.5l-0.5-0.15c-1.601-0.466-3.601-0.699-6-0.699c-1.334,0-2.351,0.1-3.051,0.3L112.1,95.75z"/>
			<path style="fill-rule:evenodd;clip-rule:evenodd;fill:none;stroke:#FCE5FF;stroke-width:0.25;" d="M73.4,71.4l-1.3,0.15
				c-0.333,0.034-0.667,0.034-1,0l-0.9,0.3h-0.25l-0.1,0.05l-0.8,0.05c-0.1,0.066-0.35,0.133-0.75,0.2l-0.55,0.15l-0.7,0.05
				l-0.8,0.3l-1.15,0.2l-0.65,0.3L64,73.25c-0.233,0.1-0.517,0.15-0.85,0.15l-0.8,0.4l-0.45,0.15c-0.2,0.1-0.417,0.15-0.65,0.15
				c-0.033,0.033-0.217,0.133-0.55,0.3l-0.65,0.25c-0.3,0.1-0.466,0.15-0.5,0.15l-1.1,0.55l-0.55,0.2l-0.45,0.3L57.3,75.9l-0.55,0.3
				l-0.15,0.05l-0.5,0.3l-0.15,0.05l-0.15,0.1c-0.5,0.267-1.083,0.433-1.75,0.5c-0.2,0.433-0.6,0.883-1.2,1.35l-0.9,0.6
				c-0.2,0.2-0.367,0.333-0.5,0.4l-0.3,0.25c-0.433,0.367-0.933,0.617-1.5,0.75c-0.2,0.467-0.483,0.917-0.85,1.35l-0.75,0.7
				l-0.6,0.75c-0.434,0.433-0.817,0.733-1.15,0.9c-0.233,0.667-0.433,1.117-0.6,1.35l-0.15,0.2l-0.05,0.1l-0.55,0.9l-0.15,0.3
				c-0.3,0.467-0.583,0.817-0.85,1.051c0,0.466-0.067,0.899-0.2,1.3l-0.3,0.7l-0.05,0.3v0.05l-0.05,0.15l-0.05,0.1l-0.1,0.35
				c-0.1,0.367-0.25,0.7-0.45,1c0.1,0.4,0.133,0.767,0.1,1.101v0.45L42.8,94v1.45l0.1,0.45v0.25l0.05,0.5V96.8l0.3,0.9l0.1,0.7
				L43.6,99h0.05v0.15h0.05l0.15,0.6l0.35,0.65l0.1,0.149l0.3,0.8c0.133,0.567,0.15,1.167,0.05,1.801
				c0.3,0.566,0.65,1.083,1.05,1.55v0.05l0.1,0.1l0.25,0.4l0.25,0.25v0.05l0.45,0.55l0.2,0.2l0.2,0.3l0.25,0.2l0.45,0.55l0.3,0.25
				l0.1,0.15l0.45,0.5c0.1,0.033,0.233,0.134,0.4,0.3l0.45,0.45l1.95,1.55l0.85,0.55c1.167-0.933,2.467-1.133,3.9-0.6l0.05,0.05
				l0.8,0.3l0.5,0.301l0.65,0.1l0.15,0.05l0.1,0.05l0.2,0.051h0.05l0.8,0.399l0.9,0.101l0.5,0.149
				c0.466,0.167,0.767,0.283,0.9,0.351c0.433,0,0.767,0.033,1,0.1l0.3,0.05h0.1l0.8,0.25c0.4,0,0.7,0.017,0.9,0.05h0.1l0.2,0.051
				h0.15c0.4,0.033,0.817,0.166,1.25,0.399l1.1-0.149l0.15,0.05h0.45l0.2,0.05c0.5,0.066,0.85,0.15,1.05,0.25l1.25-0.2h0.45
				l0.15,0.05h0.3l0.95,0.2c0.4-0.133,0.833-0.233,1.3-0.3h0.3c0.5-0.033,0.967,0.017,1.4,0.15c0.433-0.233,0.867-0.367,1.3-0.4h0.4
				c0.267-0.033,0.517-0.033,0.75,0l0.85-0.25h0.05l0.3-0.05l0.75-0.05c0.267-0.134,0.5-0.2,0.7-0.2l0.2-0.05
				c0.367-0.101,0.767-0.117,1.2-0.051c0.267-0.166,0.566-0.3,0.9-0.399l0.6-0.2c0.466-0.1,0.883-0.134,1.25-0.1
				c0.3-0.267,0.666-0.45,1.1-0.551l0.25-0.1c0.467-0.134,0.851-0.2,1.15-0.2l1-0.55l0.05-0.05h0.05l0.05-0.05l1.101-0.25
				c0.3-0.233,0.6-0.417,0.899-0.551L90.9,109.2c0.833-0.367,1.683-0.45,2.55-0.25c0.833,0.166,1.533,0.583,2.1,1.25
				c1.601-0.334,2.917,0.184,3.95,1.55l0.25,0.45c1-0.733,2.083-0.967,3.25-0.7l0.5,0.15l0.3,0.05h0.55l0.301-0.05h0.75l1-0.75
				c-0.067-0.434-0.084-0.767-0.051-1c-0.1-0.334-0.116-0.717-0.05-1.15v-0.7c-0.7-1.333-0.666-2.649,0.101-3.95
				c-0.233-0.133-0.434-0.35-0.601-0.649c-0.934-1.233-1.066-2.566-0.399-4l0.399-1c0.4-0.967,1.134-1.7,2.2-2.2
				c0.533-0.2,0.983-0.3,1.35-0.3c-0.366-0.101-0.767-0.283-1.199-0.55c-1.301-0.9-1.867-2.15-1.7-3.75l0.05-0.2v-0.7l0.05-0.3V89.4
				c-0.033-0.134-0.033-0.284,0-0.45l-0.1-0.351v-0.25L106.4,87.7l-0.301-0.9L106,86.15l-0.35-0.8l-0.15-0.55l-0.25-0.4v-0.05
				l-0.05-0.05v-0.05l-0.4-0.9l-0.85-1.3l-0.601-0.75L103,80.7c-0.134-0.067-0.316-0.217-0.55-0.45l-0.2-0.25
				c-0.667-0.733-1.033-1.567-1.1-2.5L101,77.45c-0.9,0.1-1.783-0.117-2.65-0.65L98.2,76.65l-0.65-0.55
				c-0.2-0.033-0.467-0.15-0.8-0.35l-0.4-0.2c-0.333-0.2-0.566-0.367-0.699-0.5L94.9,74.8L94.8,74.75L94.65,74.7
				c-0.233-0.1-0.45-0.25-0.65-0.45c-0.434-0.067-0.75-0.15-0.95-0.25l-0.45-0.15l-0.85-0.45l-0.9-0.2l-0.25-0.1
				c-0.199-0.033-0.466-0.15-0.8-0.35l-0.85-0.1L88.4,72.5c-0.467-0.167-0.767-0.283-0.9-0.35c-0.434,0-0.767-0.033-1-0.1L86.1,72
				l-0.8-0.25c-0.367,0-0.65-0.017-0.85-0.05H84.4l-0.9-0.15h-0.25l-1-0.1L82,71.4h-0.25l-1.05-0.1l-2.1-0.1l-3,0.05l-0.2,0.05
				l-1.3,0.05l-0.2,0.05H73.4z M85.5,63.2c6.033,0.8,11.4,2.583,16.1,5.35l2.601-2.3c0.066-0.7,0.3-1.333,0.7-1.9
				c0.267-0.367,0.783-0.967,1.55-1.8l0.649-0.65l0.101-0.15c1.133-1.033,1.983-1.8,2.55-2.3l0.15-0.1l1.35-1.05l0.1-0.05L118.2,54
				l0.3-0.1l1.05-0.55l0.2-0.05l1.35-0.6l0.851-0.3l0.2-0.1l0.199-0.05c1.4-0.467,2.534-0.7,3.4-0.7l1,0.05
				c1.7-0.733,3.35-1.133,4.95-1.2c0.366-0.033,0.717-0.033,1.05,0c1.634,0.1,3.233,0.717,4.8,1.85c1.5,1.067,2.467,2.233,2.9,3.5
				c0.3,0.7,0.366,1.533,0.2,2.5L140.55,59c-0.166,1.033-0.649,1.883-1.45,2.55c-0.8,0.667-1.733,1-2.8,1h-0.149l-0.2,0.85
				c-0.267,1.6-1.167,2.667-2.7,3.2c-0.6,0.367-1.267,0.566-2,0.6c-0.7,0-1.35-0.15-1.95-0.45L126.9,67.2l-0.551,0.25l-0.199,0.05
				l-0.351,0.2l-0.149,0.05c-1.034,0.6-2.351,1.783-3.95,3.55c-1.4,1.567-2.483,2.684-3.25,3.35l-1.101,0.95L116.9,76l-0.9-1.1V75
				l0.1,0.15l0.7,0.9l-1.25,0.9l-0.1,0.1c-0.934,0.6-1.783,1-2.55,1.2l-0.851,0.1c1.834,2.9,2.917,5.917,3.25,9.05
				c3.4,0.066,6.167,0.399,8.3,1c2.367,0.666,4.15,1.55,5.351,2.649c1,0.967,1.399,2.101,1.2,3.4l-0.851,7.5
				c-0.1,0.833-0.45,1.583-1.05,2.25l-4.8,5.149c-0.7,0.767-1.566,1.2-2.601,1.301c-1,0.1-1.916-0.167-2.75-0.801l-3.649-2.75
				l-0.05,0.051L114.3,107.3l-0.05,0.05v0.301l0.05,0.35l0.101,2.45h0.1c0.967,0.233,1.767,0.45,2.4,0.649
				c1.933,0.634,3.5,1.601,4.699,2.9c1.2,1.3,1.801,2.667,1.801,4.1c0,0.634,0.033,1.134,0.1,1.5l4.45,0.851
				c1.399,0.3,2.366,1.1,2.899,2.399c0.534,1.134,0.601,2.317,0.2,3.551c-0.3,0.966-0.767,1.75-1.399,2.35l-0.5,0.45l-0.2,0.649
				c-0.334,0.9-0.834,1.65-1.5,2.25c-0.8,0.801-1.75,1.2-2.851,1.2l-1.05-0.149l-6.8-1.851c-1.233-0.333-2.483-1.133-3.75-2.399
				c-0.5-0.233-1.15-0.417-1.95-0.551H110.9c-1.301-0.267-2.334-0.6-3.101-1c-1.533-0.733-2.684-1.816-3.45-3.25
				c-0.633-1.133-1.05-2.416-1.25-3.85l-1.149,1.2c-3.7,3.733-7.8,6.95-12.3,9.649c-0.9,0.867-2.017,1.301-3.351,1.301
				c-1.466,0-2.9-0.601-4.3-1.801c-1.2-1.066-2.067-2.233-2.6-3.5c-0.467-1.166-0.7-2.366-0.7-3.6c-5.267,0.7-10.267,0.717-15,0.05
				c-6.133-0.866-11.55-2.899-16.25-6.1c-3.233-2.2-5.95-4.834-8.15-7.9l-0.1-0.1v-0.05l-0.1-0.101
				c-1.367-1.934-2.383-3.733-3.05-5.399l-0.15-0.551c-0.867-1.866-1.433-3.916-1.7-6.149c-0.8-6.367,1.033-12.4,5.5-18.1
				c3.333-4.233,7.783-7.767,13.35-10.6c5.534-2.833,11.567-4.65,18.1-5.45C76.25,62.483,81.033,62.533,85.5,63.2z M115.05,65.45
				l-0.1,0.1c-0.9,0.733-1.634,1.383-2.2,1.95l-0.05,0.1l-0.3,0.3c-0.067,0.667-0.233,1.283-0.5,1.85l0.149-0.1l0.05-0.1l1-0.85
				c0.667-0.6,1.567-1.517,2.7-2.75c1.101-1.3,2.084-2.317,2.95-3.05l-0.9,0.55l-0.1,0.1l-2.6,1.85L115.05,65.45z M112.1,95.75
				L111.3,96l-0.649,0.1L112.1,96.7c0.567,0.267,1.051,0.616,1.45,1.05c0.601,0,1.2,0.15,1.8,0.45c1.167,0.633,1.9,1.066,2.2,1.3
				l2.5,1.8l1.45-1.55l0.4-3.5l-0.5-0.15c-1.601-0.466-3.601-0.699-6-0.699c-1.334,0-2.351,0.1-3.051,0.3L112.1,95.75z"/>
			<path style="fill-rule:evenodd;clip-rule:evenodd;fill:#2D2D2D;" d="M73.8,67.55h-0.4l0.05,0.55h-0.1l-1.55,0.15l-0.1,0.05
				l-0.05-0.55l-2.1,0.3l0.1,0.5L69.5,68.6h-0.15l-0.05-0.5l-1.75,0.3l0.1,0.55L67.25,69l-0.15,0.05l-0.15-0.55l-1.45,0.35
				l0.15,0.55L65,69.55l-0.15-0.5l-1.5,0.4l0.15,0.5l-0.4,0.15l-0.15-0.55l-1.9,0.6l0.2,0.5l-0.45,0.2l-0.2-0.5l-1.35,0.45l0.2,0.55
				L58.8,71.6l-0.1-0.3l-1.05,0.6l0.1,0.15l-0.7,0.3L57,72.25l-1.05,0.6v0.05l-1.8,0.95V73.8l-1.95,0.5l-1.55,1.05l0.3,0.5
				l-0.4,0.25l-0.35-0.45l-1.15,0.8l0.4,0.5l-0.4,0.3l-0.35-0.5c-0.833,0.667-1.733,1.45-2.7,2.35l0.45,0.45l-0.3,0.35l-0.5-0.45
				l-0.9,0.95l0.5,0.45l-0.3,0.3l-0.5-0.4L42.4,83.4l0.55,0.35l-0.15,0.3l-0.65-0.3L41.5,84.8l0.6,0.35l-0.2,0.35l-0.65-0.3
				c-0.567,1.066-1,2.017-1.3,2.85l0.7,0.25l-0.1,0.25l-0.75-0.2l-0.4,1.2l0.75,0.2l-0.1,0.4l-0.75-0.2
				c-0.3,1.166-0.466,2.184-0.5,3.05l0.75,0.05v0.25l-0.8-0.05L38.7,94.6l0.8-0.05v0.3L38.75,94.9l0.1,1.699l0.8-0.149l-0.4,0.1
				l0.4-0.05l-0.8,0.15l0.3,1.699l0.8-0.199v0.05l0.1,0.35l-0.8,0.2l0.5,1.65l0.75-0.301l0.1,0.2l-0.75,0.3l0.55,1.351l0.4-0.15
				l0.35-0.2l0.25,0.601l0.8,3.3l1.35,1.9l0.15,0.149l0.5,0.65l0.25,0.25H44.4l0.5,0.6h0.05l0.25,0.25h-0.05l0.6,0.65h0.05l0.15,0.2
				L46.8,111l0.05-0.05l0.2,0.2L47,111.2l0.75,0.6h0.05l0.3,0.25v0.05l0.7,0.551V112.6l0.4,0.301l-0.05,0.05l0.85,0.6l0.05-0.05
				l0.25,0.2l-0.05,0.05l1.2,0.75l0.05-0.05l0.35,0.2l-0.05,0.05l0.95,0.5v-0.05l0.5,0.25v0.05l0.9,0.45v-0.051l0.4,0.2l0.9-1.05
				l0.7,0.5v0.05l-0.7,0.95l0.2,0.1l0.65-0.949l0.8,0.5l-0.5,0.8l0.2,0.1l0.45-0.8l0.9,0.45l-0.3,0.6l0.2,0.101l0.25-0.601l1,0.4
				l-0.25,0.55l0.25,0.1l0.2-0.55l1.1,0.4h0.05l-0.15,0.45l0.2,0.05l0.15-0.45l1.3,0.45l-0.1,0.3l0.15,0.05l0.1-0.3l2.6,0.7
				c4.434,0.566,9.133,0.483,14.1-0.25c10.366-1.467,18.316-4.834,23.85-10.101c3.601-3.433,5.934-7.366,7-11.8h-1.3l0.351-1.1
				l0.1-0.2l1.05,0.35l0.101-0.8l-0.95-0.25l0.149-0.5l0.9,0.2l0.15-0.75l-0.9-0.2l0.1-0.5l0.9,0.15l0.15-0.75l-0.95-0.101l0.05-0.5
				l0.95,0.051l0.05-0.801l-0.95-0.05l0.05-0.45h0.95V89.7l-0.95,0.05v-0.4l0.9-0.05l-0.1-1.3v-0.05l-0.9,0.149l0.25-0.05h-0.3
				l0.25-0.05h-0.25v-0.1l0.95-0.101l-0.351-1.7l-0.899,0.25L109.3,86l0.9-0.25c-0.066-0.367-0.233-0.917-0.5-1.65l-0.851,0.3
				l-0.1-0.2l0.85-0.35l-0.6-1.4l-0.8,0.4L108,82.5l0.8-0.4l-0.85-1.5l-0.75,0.45l-0.15-0.25l0.7-0.5l-0.9-1.2l-0.649,0.5l-0.2-0.3
				l0.65-0.5l-0.95-1.1l-0.101,0.25L105.15,78v-0.25L104.9,78l-1.351-1.4h1.2l0.25-0.55l0.2,0.25l0.1-0.1
				c2.134-1.867,3.95-2.95,5.45-3.25L111,72.9l1.15,0.65l0.699-0.45l0.15-0.15h0.1l0.75-0.55l1.45-1.25
				c0.934-0.833,1.917-1.833,2.95-3c1.934-2.167,3.65-3.667,5.15-4.5l0.25-0.15l1.8-0.75c0.866-0.267,1.533-0.433,2-0.5
				c1.3-0.233,2.35-0.25,3.149-0.05h0.101l0.149,0.05l0.101-0.15h0.1l0.351-0.05c0.333-1.4,0.816-2.35,1.449-2.85
				c1-0.9,2.034-1.35,3.101-1.35v-0.7c-0.2-0.3-0.584-0.667-1.15-1.1l0.15,0.15l-0.25,0.45c-0.267,0.467-0.717,0.7-1.351,0.7
				c-0.433,0-0.916-0.117-1.449-0.35c-0.233-0.1-0.551-0.317-0.95-0.65l-0.55-0.55l0.649-0.5l0.3-0.15
				c-1.267,0.167-2.517,0.583-3.75,1.25l-0.25,0.15l-0.899-0.25l-0.7-0.05c-0.4,0-1.083,0.167-2.05,0.5l-0.8,0.3l-0.2,0.1l-1,0.4
				l-0.25-0.45l0.2,0.5l-1.15,0.55l-0.15,0.05c-1.033,0.5-2.267,1.2-3.699,2.1L112.85,63c-0.733,0.6-1.55,1.333-2.449,2.2l-1.5,1.65
				l0.25,1.25l-7.051,6.35l-1.5-1l-0.399,0.6L100,73.9l0.35-0.6l-1.649-1l-0.351,0.6L97.9,72.65l0.35-0.6l-1.7-0.85l-0.3,0.6
				l-0.1-0.05l0.3-0.6l-1.9-0.8l-0.25,0.6h-0.05l-0.45-0.2l0.2-0.6l-1.95-0.7l-0.2,0.6L91.6,70l0.2-0.6l-1.85-0.55l-0.15,0.6
				l-0.55-0.15l0.15-0.6L87.3,68.25l-0.149,0.6l-0.4-0.1l0.1-0.6L85,67.85l-0.1,0.6l-0.2-0.05l-0.5-0.05l0.05-0.6l-0.5-0.05
				l-0.1,0.55l-1.1-0.1l0.1-0.6l-0.6-0.05L82,68.1L80.9,68l0.05-0.55l-0.6-0.05V68l-1.15-0.05v-0.6h-0.55v0.55h-1.2v-0.55h-0.5v0.55
				l-1.25,0.05l-0.05-0.55l-0.45,0.05V68l-1.35,0.05L73.8,67.55z M85.05,66.45c6.566,0.933,12.217,3.017,16.95,6.25l5.6-5.1
				l-0.199-1.1l0.199-0.2c0-0.1,0.417-0.6,1.25-1.5l3.65-3.7l-0.35,0.65h0.05l3.1-2.25l0.15-0.05l0.45-0.35l2.55-1.45h-0.5l5.45-2.3
				h0.05c1-0.333,1.783-0.5,2.35-0.5l0.851,0.05l0.1,0.05l0.45,0.1c1.666-0.867,3.267-1.333,4.8-1.4h0.5
				c0.967,0.033,1.983,0.434,3.05,1.2c1,0.7,1.601,1.367,1.8,2c0.134,0.267,0.134,0.55,0,0.85l-0.05,0.8c-0.166,0.5-0.5,0.75-1,0.75
				H135.9c-0.667,0-1.367,0.333-2.101,1c-0.3,0.233-0.566,0.683-0.8,1.35c-0.167,0.467-0.267,0.9-0.3,1.3l-0.101,0.6h-0.8l-0.1,0.15
				h-0.05l-0.5,0.7l-0.551-0.7l-0.25-0.1c-0.6-0.133-1.483-0.117-2.649,0.05l-1.8,0.45l-1.15,0.45l-0.45,0.25l-0.25,0.1
				c-1.233,0.7-2.833,2.117-4.8,4.25c-1.2,1.367-2.2,2.4-3,3.1l-1.85,1.55l-0.2,0.1l-0.45,0.35h-0.05l-0.15,0.15
				c-0.666,0.433-1.133,0.65-1.399,0.65l-3.351,0.8l1.95-1.4c-1.134,0.3-2.467,1.1-4,2.4c3.033,3.267,4.8,6.95,5.3,11.05
				c0.3,2.301,0.15,4.634-0.45,7c-0.5,4.4-2.366,8.551-5.6,12.45c-5.7,6.8-14.65,11.066-26.85,12.8
				c-3.133,0.434-5.933,0.65-8.4,0.65c-2.3,0-4.483-0.15-6.55-0.45c-9.7-1.366-17.117-5.6-22.25-12.7l-0.05-0.1l0.15-0.15
				l-0.2,0.101c-0.8-1.134-1.483-2.25-2.05-3.351c-0.433-0.8-0.65-1.267-0.65-1.399l-0.35-0.9c-0.7-1.666-1.15-3.333-1.35-5
				c-0.667-5.467,0.95-10.684,4.85-15.65c3.067-3.9,7.184-7.167,12.35-9.8c5.167-2.6,10.8-4.267,16.9-5
				C76.083,65.817,80.583,65.85,85.05,66.45z M57.5,114.5l0.25,0.05L57.3,115.9l-0.25-0.101l0.4-1.35L57.5,114.5z M55.35,114.85
				L54.4,115.9l-0.75-0.7l1-0.95l0.1,0.1l0.3-0.75l0.5,0.2l-0.35,0.95L55.35,114.85z M62.4,117.2l-0.65-0.15L62,116.6l0.05-0.899
				l0.6,0.1l-0.2,0.851L62.4,117.2z M59.55,115.1l0.55,0.15l-0.3,1.35h-0.05l-0.5-0.149L59.55,115.1z M67.55,117.85v-1.399h0.05
				l0.55,0.05l-0.1,1.4L67.55,117.85z M64.3,117.5l0.2-1.4l0.3,0.051l-0.15,1.149l0.2-1.149L65,116.2l-0.2,1.399L64.3,117.5z
				 M71.35,118.05L70.8,118l0.05-1.4l0.55,0.051L71.35,118.05z M77.4,116.3h0.1l0.2,1.351l-0.1,0.05L77.4,116.3z M74.15,116.55h0.4
				v0.8l0.15,0.551l-0.45,0.05L74.15,116.55z M87.3,114.15l0.45,1.35l-0.3,0.05l-0.4-1.3L87.3,114.15z M84.15,115.05l0.4-0.1
				l0.35,1.35l-0.4,0.101l-0.4-1.351H84.15z M81.75,117.05H81.6l-0.15-1.399h0.1l0.05,0.05l0.2,0.6l0.1,0.7L81.75,117.05z
				 M79.9,115.95l0.3,1.35l-0.45,0.101l-0.2-1.4L79.9,115.95z M89.85,113.2h2.5l-0.399-0.851l0.399-0.199l0.45,1.05h1L90.15,114.6
				l-0.051-0.1v0.05l-0.449-1.25L89.85,113.2z"/>
			<g>
				<path style="fill-rule:evenodd;clip-rule:evenodd;fill:#39393B;" d="M129.25,60.05c0.167-0.267,0.366-0.466,0.6-0.6l4.5-2.1
					c0.467-0.2,1.233-0.184,2.301,0.05l-0.051,0.95c0,0.1-0.283,0.167-0.85,0.2c-0.8,0.034-1.6,0.417-2.4,1.15
					c-0.433,0.367-0.783,1-1.05,1.9c-0.133,0.433-0.233,0.833-0.3,1.2c-1.4,0.034-2.35-0.367-2.85-1.2
					C128.85,61.067,128.884,60.55,129.25,60.05z"/>
				<path style="fill-rule:evenodd;clip-rule:evenodd;fill:#858687;" d="M134.45,56.8c-0.334-0.566-0.834-0.95-1.5-1.15
					c-0.733-0.2-1.316-0.05-1.75,0.45s-0.733,0.566-0.9,0.2c-0.166-0.333-0.166-0.633,0-0.9c0.233-0.4,0.834-0.75,1.8-1.05
					c0.301-0.067,0.75,0.083,1.351,0.45c0.566,0.333,0.899,0.633,1,0.9C134.583,56.033,134.583,56.4,134.45,56.8z"/>
				<path style="fill-rule:evenodd;clip-rule:evenodd;fill:#DCDDDE;" d="M131,59.15c-0.434,0.3-2.217-0.517-5.35-2.45
					c2.6-1.6,4.85-2.383,6.75-2.35c1.199,0.033,2.383,0.6,3.55,1.7c1.133,1.1,1.217,1.6,0.25,1.5c-0.9-0.1-1.7-0.033-2.4,0.2
					C133.134,57.95,132.2,58.417,131,59.15z M134.2,55.9c0-0.4-0.351-0.75-1.05-1.05c-0.767-0.267-1.384-0.217-1.851,0.15
					c-0.233,0.167-0.233,0.4,0,0.7c0.2,0.267,0.483,0.483,0.851,0.65C133.483,56.917,134.167,56.767,134.2,55.9z"/>
				<path style="fill-rule:evenodd;clip-rule:evenodd;fill:#5F4123;" d="M112.45,64.9l1.2,1.4c0.699,1.1,0.899,2.017,0.6,2.75
					c-0.467,1.233-1.184,2.983-2.15,5.25l-2.8-1.5l-1.149-6.1l1.399-0.5C110.684,65.8,111.65,65.367,112.45,64.9z"/>
				<path style="fill-rule:evenodd;clip-rule:evenodd;fill:#7D5225;" d="M121.85,57.45l10.25,1.5c0.233,1.566-0.1,2.983-1,4.25
					c-0.1-0.133-0.316-0.25-0.649-0.35c-0.667-0.167-1.634-0.133-2.9,0.1c-2.5,0.433-4.7,1.55-6.6,3.35
					c-2.066,2.367-3.783,4.167-5.15,5.4c-1.133,1-2.1,1.75-2.899,2.25l-0.9,0.4c0.3-0.2,0.45-1.267,0.45-3.2
					c0.033-0.9-0.033-1.617-0.2-2.15L112,68.45L121.85,57.45z"/>
				<path style="fill-rule:evenodd;clip-rule:evenodd;fill:#5F3F1E;" d="M119.35,64.85c0.934-0.133,1.551-0.333,1.851-0.6
					c0.2-0.2,0.8-0.817,1.8-1.85c0.934-0.933,1.533-1.5,1.8-1.7c0.7-0.5,1.783-0.667,3.25-0.5c0.733,0.133,1.267,0.183,1.601,0.15
					c0.466-0.033,0.783-0.2,0.949-0.5c0.301-0.4,0.517-0.8,0.65-1.2l0.6,0.35c-0.466,0.833-1.183,1.317-2.149,1.45
					c-0.066,0-0.851,0.017-2.351,0.05c-0.966,0.033-1.683,0.2-2.149,0.5c-0.134,0.1-0.834,0.8-2.101,2.1
					c-1,1.033-1.85,1.633-2.55,1.8c-2.899,0.767-4.684,1.5-5.35,2.2c-0.434,0.433-0.884,1-1.351,1.7
					c-0.433,0.7-0.716,1.117-0.85,1.25l-0.55,0.5l-0.05-0.5l1.3-1.75c0.566-0.933,0.967-1.517,1.2-1.75
					c0.566-0.7,1.216-1.15,1.949-1.35C117.116,65.133,117.95,65.017,119.35,64.85z"/>
				<path style="fill-rule:evenodd;clip-rule:evenodd;fill:#5F3F1E;" d="M118,63.85c0.667,0.3,1.4,0.3,2.2,0
					c0.8-0.333,1.434-0.883,1.899-1.65c0.434-0.733,1.051-1.383,1.851-1.95c0.666-0.467,1.333-0.767,2-0.9
					c0.267-0.033,0.75-0.033,1.45,0c0.533,0.033,1.1-0.05,1.699-0.25c0.801-0.233,1.434-0.55,1.9-0.95l0.35,0.275
					c-1.321,1.176-2.471,1.602-3.449,1.275c-0.434-0.167-1.084-0.133-1.95,0.1c-0.733,0.2-1.316,0.434-1.75,0.7
					c-0.8,0.567-1.55,1.35-2.25,2.35c-0.267,0.367-0.783,0.75-1.55,1.15c-0.733,0.333-1.217,0.467-1.45,0.4
					c-0.233-0.1-0.566-0.133-1-0.1c-0.467,0.034-0.9,0.184-1.3,0.45c-0.534,0.4-1.434,0.933-2.7,1.6l3.35-2.55
					C117.533,63.767,117.767,63.783,118,63.85z M131.35,58.425c0.038-0.023,0.071-0.048,0.101-0.075
					c0.066-0.067,0.133,0.033,0.2,0.3L131.35,58.425z"/>
				<path style="fill-rule:evenodd;clip-rule:evenodd;fill:#5F3F1E;" d="M112.45,70.9c0.467-0.433,1.366-1.35,2.7-2.75
					c0.833-0.767,1.733-1.367,2.699-1.8c0.567-0.233,1.551-0.633,2.95-1.2c0.867-0.4,1.75-1.083,2.65-2.05
					c0.899-0.934,1.583-1.517,2.05-1.75c0.634-0.333,1.3-0.483,2-0.45c0.366,0,0.934,0.017,1.7,0.05c0.967-0.1,1.95-0.567,2.95-1.4
					v0.55c-1,0.566-1.9,0.95-2.7,1.15c-0.3,0.067-0.834,0.067-1.601,0c-0.699-0.067-1.283-0.017-1.75,0.15
					c-0.566,0.2-1.183,0.617-1.85,1.25l-1.55,1.55c-0.634,0.6-2.184,1.383-4.65,2.35c-1.066,0.434-2.017,1.05-2.85,1.85
					c-0.867,0.934-1.517,1.617-1.95,2.05l-0.8,0.75V70.9z"/>
				<path style="fill-rule:evenodd;clip-rule:evenodd;fill:#5F3F1E;" d="M130.05,62.8c0.566-0.3,1.066-0.4,1.5-0.3l-0.25,0.4
					c-0.233-0.066-0.434-0.05-0.6,0.05L130.05,62.8z"/>
				<path style="fill-rule:evenodd;clip-rule:evenodd;fill:#5F3F1E;" d="M129.6,62.25l-1.1,0.55l-0.9,0.15l0.2-0.15
					c1.334-0.8,2.684-1.2,4.05-1.2l-0.149,0.45C131.2,61.85,130.5,61.917,129.6,62.25z"/>
				<path style="fill-rule:evenodd;clip-rule:evenodd;fill:#5F3F1E;" d="M112.2,73.95l0.1-0.3c0.667-0.133,1.45-0.467,2.351-1
					l-1.351,1L112.2,73.95z"/>
				<path style="fill-rule:evenodd;clip-rule:evenodd;fill:#5F3F1E;" d="M113.15,71.6l-0.7,0.5v-0.4
					c0.333-0.233,1.033-0.617,2.1-1.15c1.101-0.533,2.25-1.3,3.45-2.3c0.667-0.533,1.533-1.283,2.6-2.25
					c1.567-1.3,3.067-2.217,4.5-2.75c0.267-0.1,0.967-0.417,2.101-0.95c0.733-0.367,1.383-0.6,1.95-0.7
					c0.933-0.2,1.916-0.55,2.949-1.05L132,61.2h-0.15c-1,0-2.333,0.4-4,1.2l-2,0.95c-0.933,0.3-1.883,0.733-2.85,1.3l-0.55,0.25
					c-0.434,0.2-1.25,0.833-2.45,1.9c-1.533,1.367-2.4,2.133-2.6,2.3c-0.534,0.4-1.267,0.85-2.2,1.35
					C113.967,71.15,113.283,71.533,113.15,71.6z"/>
				<path style="fill-rule:evenodd;clip-rule:evenodd;fill:#5F3F1E;" d="M118.25,69.15c-1.6,1.367-2.8,2.267-3.6,2.7
					c-0.534,0.367-1.284,0.767-2.25,1.2v-0.4c1.267-0.533,2.666-1.4,4.199-2.6l2.4-1.7L118.25,69.15z"/>
				<path style="fill-rule:evenodd;clip-rule:evenodd;fill:#5F3F1E;" d="M117.25,67.9c0.4-0.133,0.6-0.117,0.6,0.05
					c0,0.133-0.333,0.433-1,0.9c-0.633,0.467-1.133,0.767-1.5,0.9c-0.366,0.1-0.5-0.017-0.399-0.35
					c0.066-0.367,0.366-0.783,0.899-1.25c0.733-0.6,1.617-1.017,2.65-1.25l-1.45,0.75c-1.1,0.6-1.566,1.067-1.399,1.4
					c0.133,0.333,0.616,0.133,1.449-0.6c0.2-0.233,0.117-0.317-0.25-0.25c-0.1,0.033-0.149,0.1-0.149,0.2
					c0,0.067,0.017,0.117,0.05,0.15c-0.134,0.034-0.25,0.05-0.35,0.05c-0.167-0.033-0.184-0.117-0.051-0.25
					C116.55,68.183,116.85,68.033,117.25,67.9z"/>
				<path style="fill-rule:evenodd;clip-rule:evenodd;fill:#5F3F1E;" d="M125.95,62.25c0.166-0.133,0.333-0.183,0.5-0.15
					c0.399,0.1,0.033,0.383-1.101,0.85c-0.3,0.1-0.399,0.017-0.3-0.25c0.101-0.267,0.351-0.517,0.75-0.75
					c0.533-0.3,1.033-0.333,1.5-0.1c-0.366-0.033-0.684-0.033-0.95,0c-0.533,0.133-0.866,0.383-1,0.75
					c-0.033,0.133,0.067,0.15,0.301,0.05s0.383-0.183,0.449-0.25c0.101-0.1-0.033-0.083-0.399,0.05L125.95,62.25z"/>
				<path style="fill-rule:evenodd;clip-rule:evenodd;fill:#CA8643;" d="M112.25,68.95l-4.1-2.25l1.949-2.15
					c1.767-1.767,3.834-3.383,6.2-4.85c2.8-1.733,5.233-2.95,7.3-3.65c1-0.333,1.733-0.5,2.2-0.5l1.101,0.15
					c0.899,0.2,1.85,0.566,2.85,1.1c1.066,0.6,1.85,1.367,2.35,2.3c-0.633-0.2-1.566-0.25-2.8-0.15c-2.467,0.167-5.166,1-8.1,2.5
					c-2.101,1.1-4.217,2.683-6.351,4.75L112.25,68.95z"/>
				<path style="fill-rule:evenodd;clip-rule:evenodd;fill:#A76F36;" d="M126.5,55.6l0.75,0.15c-0.9,0.467-1.95,0.75-3.15,0.85
					l-2.75,0.35l2.15-0.9l0.05,0.05C124.517,56.233,125.5,56.067,126.5,55.6z"/>
				<path style="fill-rule:evenodd;clip-rule:evenodd;fill:#A76F36;" d="M123.6,59.95c0.601-0.4,1.617-0.6,3.051-0.6l-1,0.3h-0.15
					c-0.634-0.033-1.134,0.15-1.5,0.55l-1.65,0.7C122.884,60.467,123.3,60.15,123.6,59.95z"/>
				<path style="fill-rule:evenodd;clip-rule:evenodd;fill:#A76F36;" d="M121.55,57.8c-0.666,0.067-1.649,0.25-2.95,0.55l1.551-0.85
					l3.949-0.2c1.101-0.033,2.367-0.466,3.801-1.3l0.6,0.2l-1.25,0.5C126.017,57.2,124.116,57.567,121.55,57.8z"/>
				<path style="fill-rule:evenodd;clip-rule:evenodd;fill:#A76F36;" d="M111.6,68.6l0.551-1c0.899-1.7,2.149-2.883,3.75-3.55
					c0.267-0.1,1-0.316,2.199-0.65l-1.3,1.05c-0.833,0.267-1.649,0.75-2.45,1.45c-0.699,0.567-1.216,1.133-1.55,1.7l-0.7,1.25
					L111.6,68.6z"/>
				<path style="fill-rule:evenodd;clip-rule:evenodd;fill:#A76F36;" d="M109.1,67.2c0.634-0.667,1.75-2.25,3.351-4.75
					c0.934-0.767,2.017-1.55,3.25-2.35l0.35-0.15c1.267-0.6,2.033-0.95,2.3-1.05c0.867-0.3,1.884-0.483,3.051-0.55
					c1.733-0.133,4.033-0.717,6.899-1.75l0.601-0.2l0.449,0.2L129,56.75c-0.434,0.2-1.75,0.55-3.95,1.05
					c-2.399,0.534-3.934,0.867-4.6,1c-1,0.233-2.217,0.667-3.65,1.3c-1.399,0.633-2.416,1.217-3.05,1.75
					c-0.467,0.4-1.083,1.15-1.85,2.25c-0.934,1.367-1.45,2.117-1.551,2.25l-1.05,0.95L109.1,67.2z"/>
				<path style="fill-rule:evenodd;clip-rule:evenodd;fill:#A76F36;" d="M129.75,56.8l0.2,0.15c-0.367,0.267-1.384,0.583-3.05,0.95
					c-4.934,1.167-7.733,1.85-8.4,2.05c-0.8,0.267-1.7,0.7-2.7,1.3c-1.066,0.667-1.75,1.233-2.05,1.7c-1.233,1.933-2.2,3.267-2.9,4
					c-0.033,0.033-0.316,0.283-0.85,0.75l-0.3-0.15c1-0.733,2.1-2.083,3.3-4.05c0.667-1.133,1.333-1.883,2-2.25
					c0.434-0.267,1.333-0.667,2.7-1.2c1.066-0.466,2.566-0.933,4.5-1.4c1.1-0.233,2.55-0.533,4.35-0.9
					c1.434-0.3,2.483-0.617,3.15-0.95H129.75z"/>
				<path style="fill-rule:evenodd;clip-rule:evenodd;fill:#A76F36;" d="M109,65.65l0.9-0.95l-0.5,1.4
					c-0.101,0.3-0.317,0.6-0.65,0.9l-0.35-0.2L109,65.65z"/>
				<polygon style="fill-rule:evenodd;clip-rule:evenodd;fill:#A76F36;" points="131.9,58.8 131.5,59 130.15,58.9 131.65,58.45 				
					"/>
				<path style="fill-rule:evenodd;clip-rule:evenodd;fill:#A76F36;" d="M129,57.9c0.833-0.167,1.35-0.35,1.55-0.55l0.55,0.45
					l-0.55,0.2c-0.366,0.133-1.583,0.35-3.649,0.65c-1.934,0.3-3.117,0.567-3.551,0.8c-0.333,0.167-1.066,0.633-2.199,1.4
					c-1.134,0.733-2.034,1.25-2.7,1.55c-1,0.434-2.117,1.033-3.351,1.8c-1.333,0.833-2.283,1.55-2.85,2.15
					c-0.566,0.566-1,1.2-1.3,1.9l-0.4-0.25l0.45-0.65c1.167-1.633,3.033-3.067,5.6-4.3c1.367-0.633,2.467-1.233,3.301-1.8
					c0.466-0.3,1.149-0.783,2.05-1.45c0.7-0.466,1.85-0.883,3.45-1.25C126.3,58.383,127.5,58.167,129,57.9z"/>
				<path style="fill-rule:evenodd;clip-rule:evenodd;fill:#A76F36;" d="M117.7,60.85c-0.867,0.2-1.684,0.6-2.45,1.2l-0.95,0.85
					l0.55-0.65c0.5-0.467,1.101-0.85,1.801-1.15c0.699-0.333,1.383-0.567,2.05-0.7c0.7-0.167,1.033-0.15,1,0.05
					c-0.033,0.267-0.684,0.783-1.95,1.55c-1.267,0.8-2.116,1.217-2.55,1.25c-0.4,0.033-0.45-0.133-0.15-0.5
					c0.233-0.333,0.566-0.633,1-0.9c0.4-0.233,0.783-0.4,1.15-0.5c0.366-0.1,0.483-0.05,0.35,0.15c-0.1,0.133-0.233,0.25-0.399,0.35
					l-0.2,0.1c0.2-0.3,0.149-0.383-0.15-0.25c-0.233,0.066-0.467,0.2-0.7,0.4c-0.233,0.2-0.3,0.316-0.199,0.35
					c0.1,0.066,0.466-0.067,1.1-0.4c0.667-0.3,1.134-0.6,1.4-0.9c0.267-0.267,0.316-0.417,0.149-0.45
					C118.483,60.7,118.2,60.75,117.7,60.85z"/>
				<path style="fill-rule:evenodd;clip-rule:evenodd;fill:#57585A;" d="M111.95,69.7l0.1,0.45c0.066,0.367,0.084,0.75,0.05,1.15
					c-0.1,1.467-0.25,2.233-0.449,2.3c-0.7-0.133-1.75,0.217-3.15,1.05c-2.8,1.7-6,5.033-9.6,10L97.6,79.6
					c1.034-0.967,2.134-1.983,3.301-3.05c2.333-2.133,3.866-3.4,4.6-3.8C106.667,72.15,108.816,71.133,111.95,69.7z"/>
				<polygon style="fill-rule:evenodd;clip-rule:evenodd;fill:#858687;" points="111.95,69.65 91.55,86.8 87.9,86.35 108.5,67.7 
									"/>
				<path style="fill-rule:evenodd;clip-rule:evenodd;fill:#C3C4C5;" d="M108.6,70.3c0.233,0.034,0.867,0.217,1.9,0.55L100.8,79
					l-2.6-1.85l7.1-6.45C106.4,70.267,107.5,70.133,108.6,70.3z"/>
				<path style="fill-rule:evenodd;clip-rule:evenodd;fill:#970A13;" d="M56.275,117.55c2.283,0.834,4.708,1.434,7.275,1.8h0.1
					c-2.467-0.666-4.367-1.333-5.7-2c-1.534-0.699-2.8-1.583-3.8-2.649c3.267,1.333,6.733,2.25,10.4,2.75
					c4.467,0.633,8.917,0.666,13.35,0.1c8.333-1,15.583-3.649,21.75-7.95c6.033-4.233,9.783-9.199,11.25-14.899
					c-0.434,4.133-2.2,8.116-5.301,11.95c-5.6,6.8-14.433,11.05-26.5,12.75c-5.434,0.767-10.367,0.833-14.8,0.199
					C61.433,119.2,58.758,118.517,56.275,117.55z"/>
				<path style="fill-rule:evenodd;clip-rule:evenodd;fill:#6A0F0D;" d="M39.8,102.45l7.65-0.15c2.8,6.434,4.917,10.45,6.35,12.05
					c1.8,2.034,5.083,3.7,9.85,5c-7.667-1.066-13.933-4.199-18.8-9.399c-1.533-1.634-2.833-3.367-3.9-5.2L39.8,102.45z"/>
				<path style="fill-rule:evenodd;clip-rule:evenodd;fill:#EC6B6E;" d="M97.1,100.95c0.167-2.467,2.467-4.017,6.9-4.65
					c2.2-0.3,4.384-0.35,6.55-0.149L109.5,99c-1.066,2.333-2.483,4.65-4.25,6.95c-1.467,1.967-3.083,3.616-4.85,4.95
					c-1.5,1.133-3.284,2.183-5.351,3.149c-2.066,1.101-3.833,1.884-5.3,2.351c-0.066,0-1.55,0.366-4.45,1.1
					c3.334-1.134,5.634-2.316,6.9-3.55C95.066,111.283,96.7,106.95,97.1,100.95z"/>
				<path style="fill-rule:evenodd;clip-rule:evenodd;fill:#A6A6A6;" d="M71.6,67.05c4.6-0.533,9.05-0.5,13.35,0.1
					c7.2,1,13.2,3.367,18,7.1c4.934,3.8,7.733,8.35,8.399,13.65c0.301,2.199,0.15,4.466-0.449,6.8
					c-1.467,5.7-5.217,10.666-11.25,14.899c-6.167,4.301-13.417,6.95-21.75,7.95c-4.433,0.566-8.883,0.533-13.35-0.1
					c-3.667-0.5-7.133-1.417-10.4-2.75c-3.333-1.367-6.217-3.084-8.65-5.15c-2.467-2.133-4.333-4.5-5.6-7.1
					c-0.9-1.834-1.483-3.75-1.75-5.75c-0.833-6.967,2-13.35,8.5-19.15C53.183,71.75,61.5,68.25,71.6,67.05z M84.65,67.7
					c-4.2-0.6-8.55-0.633-13.05-0.1c-5.833,0.667-11.283,2.283-16.35,4.85L54,73.15c-5.133,2.833-9.033,6.283-11.7,10.35
					c-2.8,4.233-3.917,8.583-3.35,13.05v0.05c0.633,5.167,3.367,9.617,8.2,13.351c4.7,3.6,10.55,5.899,17.55,6.899
					c4.167,0.601,8.483,0.634,12.95,0.101h0.1c1.5-0.167,2.85-0.384,4.05-0.65c7.566-1.5,14-4.416,19.3-8.75
					c3.334-2.733,5.817-5.767,7.45-9.1c1.667-3.467,2.283-6.95,1.851-10.45v-0.1c-0.667-5.167-3.4-9.601-8.2-13.3
					C97.5,71,91.65,68.7,84.65,67.7z"/>
				<path style="fill-rule:evenodd;clip-rule:evenodd;fill:#424242;" d="M47.25,77.85c6.4-5.667,14.517-9.083,24.35-10.25
					c9.867-1.2,18.583,0.2,26.15,4.2c7.6,3.967,11.816,9.367,12.65,16.2c0.866,6.8-1.9,13.033-8.301,18.7
					c-6.366,5.666-14.483,9.083-24.35,10.25c-9.867,1.2-18.583-0.2-26.15-4.2c-7.567-3.967-11.783-9.366-12.65-16.2
					C38.117,89.75,40.883,83.517,47.25,77.85z"/>
				<path style="fill-rule:evenodd;clip-rule:evenodd;fill:#3D3D3D;" d="M64.35,87.4c3-2.467,4.316-5.4,3.95-8.8
					c-0.433-3.7-3-5.783-7.7-6.25c-2-0.233-4.2,0.033-6.6,0.8c5.167-2.9,11.033-4.75,17.6-5.55c9.867-1.2,18.583,0.2,26.15,4.2
					c7.6,3.967,11.816,9.367,12.65,16.2c0.833,6.7-1.851,12.866-8.051,18.5c-6.199,5.6-14.133,9.05-23.8,10.35
					c-2.233-0.566-4-1.666-5.3-3.3c-1-1.666-1.733-2.684-2.2-3.05c-1.6-1.233-3.566-4.783-5.9-10.65
					C62.517,93.283,62.25,89.134,64.35,87.4z"/>
				<path style="fill-rule:evenodd;clip-rule:evenodd;fill:#4A4A4A;" d="M66.2,85.45c-0.467,0.7-1.083,1.35-1.85,1.95
					c-2.1,1.733-1.833,5.883,0.8,12.449c2.333,5.867,4.3,9.417,5.9,10.65c0.467,0.366,1.2,1.384,2.2,3.05
					c1.3,1.634,3.067,2.733,5.3,3.3c-0.261,0.037-0.528,0.07-0.8,0.101h-0.1c-4.467,0.533-8.783,0.5-12.95-0.101
					c-7-1-12.85-3.3-17.55-6.899c-4.833-3.733-7.566-8.184-8.2-13.351v-0.05c-0.534-4.267,0.466-8.434,3-12.5
					c-0.067,2.667,0.333,4.417,1.2,5.25c2.133,1.967,4.033,3.066,5.7,3.3c2.6,0.367,5.783-0.949,9.55-3.949
					c1.434-1.134,3.15-2.034,5.15-2.7c1-0.333,1.85-0.567,2.55-0.7L66.2,85.45z"/>
				<path style="fill-rule:evenodd;clip-rule:evenodd;fill:#484848;" d="M65.15,99.85c-2.633-6.566-2.9-10.716-0.8-12.449
					c0.767-0.601,1.383-1.25,1.85-1.95c1.733,2.8,3.4,5.833,5,9.1c2.733,5.533,4.117,9.601,4.15,12.2c0.033,1.6,0.867,3.233,2.5,4.9
					c1.5,1.533,3.5,2.933,6,4.199l-1.1,0.25c-1.267,0.267-2.667,0.517-4.2,0.75c-2.233-0.566-4-1.666-5.3-3.3
					c-1-1.666-1.733-2.684-2.2-3.05C69.45,109.267,67.483,105.717,65.15,99.85z"/>
				<path style="fill-rule:evenodd;clip-rule:evenodd;fill:#2D2D2D;" d="M52.65,102.25c-0.767-4.167,0.717-8.116,4.45-11.85
					c3.733-3.767,8.617-6.234,14.65-7.4c6.033-1.133,11.45-0.633,16.25,1.5c4.833,2.1,7.634,5.233,8.4,9.4
					c0.767,4.166-0.717,8.116-4.45,11.85c-3.733,3.767-8.617,6.217-14.65,7.35c-6.033,1.167-11.466,0.684-16.3-1.449
					C56.2,109.55,53.417,106.417,52.65,102.25z"/>
			</g>
			<path style="fill-rule:evenodd;clip-rule:evenodd;fill:#3B223B;" d="M110.95,92.65c-2.334,0.833-4.117,1.899-5.351,3.199
				l0.15,0.051l-0.85,0.75c-0.034,0.1-0.034,0.216,0,0.35c0.133,0.533,0.566,0.866,1.3,1c0.7,0.134,2.217,0.7,4.55,1.7l1,0.45
				l-2.05,1.75l-0.25-0.051H109l-2.4,2.45l-1.399-0.35l0.5,0.5l0.3,0.45l-0.75,0.8l-1-0.2c-0.5,0.066-0.85,0.15-1.05,0.25l-0.5,0.3
				l-0.65-0.95l0.15-0.35c0.1-0.233,0.267-0.45,0.5-0.65l-1.101,0.351l-0.55,0.25l-0.3-0.55c-0.434-0.7-0.816-1.233-1.15-1.601
				l-0.55-0.75c-0.267-0.366-0.483-0.616-0.649-0.75L98,100.65l0.3-0.45V100.1L97.45,98.7c-0.2-0.434-0.7-1.184-1.5-2.25l-1.2-1.601
				c-0.4-0.666-0.55-1.25-0.45-1.75c0-0.233,0.05-0.449,0.15-0.649l0.399-0.55l0.2-0.2l0.4-0.3l0.2-0.101L96.4,91
				c0.3-0.134,0.683-0.2,1.149-0.2c0.7,0,1.384,0.2,2.05,0.601c0.567,0.366,1,0.816,1.301,1.35c0.066,0.1,0.133,0.316,0.199,0.65
				v0.149l-0.05,0.55v0.15l-0.25,0.5l-0.399,0.6c-0.367,0.4-0.801,0.784-1.301,1.15l-0.05,0.25L99,96.9l0.05,0.149l-0.7,0.2l0.7-0.1
				L99.2,97.3h0.149l0.2-0.05l0.4-0.2L101,96.3l0.6,0.351l-0.5-0.45l0.45-0.601c0.667-1.066,0.8-2.25,0.4-3.55
				c-0.4-1-1.084-1.684-2.05-2.05c-1.301-0.5-2.551-0.566-3.75-0.2c-1.134,0.334-2.034,1.033-2.7,2.101
				c-0.5,0.8-0.601,1.6-0.3,2.399c0.133,0.467,0.566,1.15,1.3,2.05l3.25,4.301l0.3,0.05l0.15,0.25
				c0.933,1.434,1.35,2.649,1.25,3.649v1.051l-1.351-0.25l0.3,1.75l0.45,0.199l-0.05,0.5v0.851l0.05,0.149l0.05,0.851l0.051,0.1
				v0.851l0.05,0.05l-0.55,0.149l0.55,0.051L99,111.8l0.1,0.351L97.2,114.2c-2.834,3-7.184,5.6-13.05,7.8v0.2l-0.6,0.1
				c-0.267,1.101-0.2,2.101,0.2,3c0.233,0.566,0.633,1.117,1.2,1.65c0.566,0.5,1.017,0.75,1.35,0.75c0.101,0,0.167-0.033,0.2-0.101
				l0.1-0.149l0.15-0.101c4.033-2.233,8-5.316,11.9-9.25c1.166-1.166,2.149-2.216,2.949-3.149l0.301-0.3l0.649,0.199
				c0.134,0.067,0.45,0.101,0.95,0.101l0.4,0.05h0.6l0.9-0.1l0.25,0.3c0.866,1,1.433,1.767,1.699,2.3l0.351,1.65
				c0.133,1.1,0.383,2,0.75,2.699c0.5,0.9,1.633,1.517,3.399,1.851l0.101,0.05l1.7,0.4l0.149-0.301
				c1.101,0.367,1.867,0.733,2.3,1.101l0.101,0.1l-0.2,0.25l0.2,0.2c0.733,0.733,1.283,1.134,1.649,1.2l6.551,1.8l0.199-0.4h-0.85
				l0.15-0.25L121.1,127.2c-1.5-0.4-2.533-0.733-3.1-1c-0.7-0.3-1.25-0.717-1.65-1.25c-1.033-1.3-1.916-2.017-2.649-2.15
				c-1.934-0.3-3.334-0.983-4.2-2.05c-0.5-0.634-0.783-1.616-0.85-2.95l-0.2-1.3c0-0.1-0.334-0.566-1-1.4L107,114.45l1.3-0.851
				l0.5-0.399l1.2,1.149c0.5,0.5,0.983,0.867,1.45,1.101c0.434,0.233,1.083,0.45,1.95,0.649c2.066,0.4,3.399,0.917,4,1.551
				c0.6,0.633,1.017,1.8,1.25,3.5l0.05,0.649c0.066,1.2,0.916,2,2.55,2.4c1.4,0.399,2.917,0.666,4.55,0.8l0.7,0.15l0.05-0.15
				c-1.033-0.233-2-0.417-2.899-0.55l-0.45-0.101c-1.066-0.233-1.834-0.433-2.3-0.6c-0.867-0.366-1.4-0.816-1.601-1.35
				c-0.399-0.967-0.6-2.4-0.6-4.301c0-0.267-0.267-0.633-0.8-1.1c-0.634-0.6-1.467-1.083-2.5-1.45l-2-0.5
				c-1.034-0.267-1.733-0.483-2.101-0.649c-0.666-0.334-1.149-0.817-1.45-1.45l-0.449-0.7l0.149-0.35l0.101,0.05v-0.101l-0.051-0.05
				l0.101-0.6v-0.45l-0.05-0.4v-0.6l-0.051-0.4v-1.05l-0.05-0.05v-0.1l0.05-0.301c-0.066-0.533-0.199-0.983-0.399-1.35l-0.2-0.45
				l1.95-2.05v-0.55l2.399-2.55l0.5,0.25c0.767,0.399,1.4,0.767,1.9,1.1l4.7,3.45l4.2-4.5l0.8-6.9c-0.634-0.5-1.684-0.95-3.15-1.35
				c-1.866-0.566-4.166-0.851-6.899-0.851C113.467,92.1,111.983,92.283,110.95,92.65z M126.95,93.7l-1,8.1l-5.351,5.8l-5.649-4.199
				c-0.267-0.233-0.7-0.483-1.3-0.75L112.35,104l-0.1,0.65l-1.6,1.649c0.166,0.434,0.283,0.934,0.35,1.5l0.05,2.25l0.15-0.05
				l-0.25,2.1l0.149,0.25c0.167,0.334,0.467,0.601,0.9,0.801c0.3,0.133,0.884,0.3,1.75,0.5l2.1,0.6
				c1.301,0.434,2.351,1.033,3.15,1.8c0.733,0.733,1.1,1.417,1.1,2.05c0,1.7,0.167,2.95,0.5,3.75c0.167,0.4,1.134,0.784,2.9,1.15
				l0.45,0.05l3.35,0.65h1.851l-0.4,0.3l1.9,0.4l-2.65,0.55l-0.1,0.399c-0.134,0.467-0.317,0.817-0.551,1.051l-0.35,0.35l-0.35-0.15
				l-1.101-0.199c-2.3-0.334-3.85-0.601-4.649-0.801c-1.367-0.366-2.367-0.983-3-1.85c-0.4-0.6-0.601-1.217-0.601-1.85l-0.05-0.601
				c-0.167-1.366-0.45-2.25-0.85-2.649c-0.367-0.4-1.467-0.801-3.301-1.2c-1.433-0.334-2.533-0.8-3.3-1.4v0.05
				c0.101,0.334,0.184,0.867,0.25,1.601c0.066,1.066,0.25,1.8,0.55,2.2c0.601,0.733,1.7,1.25,3.301,1.55
				c1.166,0.166,2.366,1.05,3.6,2.649c0.233,0.334,0.6,0.617,1.1,0.851c0.534,0.233,1.483,0.517,2.851,0.85
				c1.833,0.5,3.083,0.783,3.75,0.851l1.25,0.149l-0.5,0.601c0.133,0.366,0.1,0.8-0.101,1.3l-0.35,0.649l0.8,1.15l-8.75-2.4
				c-0.533-0.166-1.3-0.699-2.3-1.6l-0.2-0.2c-0.5-0.467-1.633-0.866-3.399-1.2h-0.101c-0.967-0.199-1.7-0.416-2.2-0.649
				c-0.933-0.467-1.633-1.117-2.1-1.95c-0.434-0.733-0.75-1.783-0.95-3.15c-0.133-0.767-0.233-1.233-0.3-1.399
				c0-0.101-0.384-0.634-1.15-1.601l-0.25,0.051h-0.75c-0.5,0-1-0.051-1.5-0.15l-2.699,2.85c-3.767,3.801-7.784,6.934-12.051,9.4
				c-0.3,0.4-0.733,0.6-1.3,0.6c-0.733,0-1.5-0.366-2.3-1.1c-0.733-0.7-1.25-1.434-1.55-2.2c-0.333-0.8-0.467-1.733-0.4-2.8
				c0.133-0.967,0.2-1.467,0.2-1.5l0.15-0.45l0.5-0.05v-0.05c1.633-0.533,3.433-1.283,5.4-2.25c3.467-1.733,6.084-3.55,7.851-5.45
				l1.399-1.5l-0.05-1.4c-0.066-0.166-0.066-0.3,0-0.399c-0.066-0.2-0.1-0.45-0.1-0.75v-0.4l-0.051-0.3v-0.3l-0.25-0.15
				c-0.5-0.366-1.666-1.467-3.5-3.3l-0.399-0.3c-1.4-1.233-2.25-1.934-2.55-2.101l-0.101-0.05l-1.6-1.5
				c-1.033-1-1.783-1.616-2.25-1.85c-0.934-0.5-1.817-0.25-2.65,0.75l-0.2,0.35l-0.7-0.2l0.65,0.301l-0.1,0.25
				c-0.233,0.733-0.067,1.383,0.5,1.949l0.45,0.15c0.567,0,1.383-0.333,2.45-1c0.434-0.3,0.95-0.333,1.551-0.1
				c0.566,0.233,0.983,0.616,1.25,1.149c0.333,0.733,0.199,1.45-0.4,2.15l-0.6,0.45c-1.5,1.199-3.034,1.8-4.601,1.8
				c-1.5,0-2.733-0.517-3.7-1.55c-0.967-0.967-1.417-2.184-1.35-3.65l0.15-1.5l1-3.85l0.15,1.35c0.867-1.267,2.083-2.184,3.65-2.75
				c0.667-0.233,1.333-0.35,2-0.35c0.899,0,1.767,0.25,2.6,0.75c0.5,0.3,1.167,0.833,2,1.6l1.05,0.95
				c1.367,1.1,2.684,2.217,3.95,3.35l0.7,0.7l-0.2,0.25l1.601,1.45c-0.134-0.4-0.367-0.95-0.7-1.65l-0.15,0.05l-0.399-0.5
				c-0.834-1.033-1.667-2.166-2.5-3.399l-0.75-0.95c-0.867-1.1-1.417-1.967-1.65-2.6c-0.366-1.134-0.2-2.284,0.5-3.45
				c0.833-1.367,1.983-2.283,3.45-2.75c1.5-0.467,3.066-0.384,4.7,0.25c1.366,0.5,2.316,1.467,2.85,2.899
				c0.6,1.634,0.434,3.184-0.5,4.65c-0.233,0.4-0.45,0.7-0.65,0.9l-0.1,0.1c-0.366,0.366-0.65,0.6-0.85,0.7l-0.5,0.35l-0.101,0.05
				l-0.399,0.15l-0.101,0.05l-0.5,0.15H99.1l0.75,1.2L99.7,100.1v0.25l1.95,2.601c0.699-0.233,1.433-0.384,2.199-0.45
				c0.7-0.033,1.483,0.033,2.351,0.2l1.649-1.65c0.2-0.366,0.551-0.566,1.051-0.6c-1.334-0.566-2.334-0.917-3-1.05
				c-1.301-0.267-2.084-0.95-2.351-2.051c-0.1-0.267-0.116-0.566-0.05-0.899h-0.1l0.449-0.75c0.334-0.5,0.867-1.033,1.601-1.601
				c1.399-1.166,3.083-2.083,5.05-2.75c1.134-0.433,2.767-0.649,4.9-0.649c2.899,0,5.333,0.3,7.3,0.899
				c1.866,0.534,3.2,1.15,4,1.851L126.95,93.7z M97.55,92.2l-0.7,0.1l-0.899,0.45l-0.05,0.1L95.8,93l-0.1,0.05l-0.05,0.2
				c0,0.233,0.1,0.517,0.3,0.85l1.7,2.301c0.1-0.467,0.316-0.817,0.649-1.051c0.434-0.333,0.767-0.633,1-0.899l0.4-0.601V93.65
				c0-0.134-0.017-0.2-0.05-0.2c-0.134-0.3-0.384-0.566-0.75-0.8C98.467,92.35,98.017,92.2,97.55,92.2z M84.65,96.35
				c-0.933,0.334-1.75,0.867-2.45,1.601c-0.667,0.7-1.117,1.517-1.35,2.45l-0.1,0.449c-0.067,0.233-0.1,0.534-0.1,0.9
				c-0.033,1.066,0.283,1.967,0.95,2.7c0.733,0.733,1.633,1.1,2.7,1.1c1.233,0,2.5-0.5,3.8-1.5l0.301-0.3
				c0.199-0.2,0.267-0.417,0.199-0.65c-0.133-0.3-0.35-0.449-0.649-0.449c-1.367,0.833-2.467,1.25-3.3,1.25
				c-0.533,0-1.017-0.184-1.45-0.551c-0.367-0.366-0.633-0.816-0.8-1.35c-0.233-0.634-0.267-1.25-0.1-1.85l0.05-0.101l0.15-0.5
				l0.1-0.2L83,98.8c0.8-1,1.733-1.5,2.8-1.5c0.533,0,1.066,0.134,1.601,0.4c0.6,0.366,1.433,1.05,2.5,2.05l1.55,1.45
				c0.533,0.333,1.366,1.017,2.5,2.05l0.75,0.05l-0.101,0.5c0.601,0.566,1.684,1.601,3.25,3.101L98,105.35
				c-0.4-0.133-0.733-0.333-1-0.6l-2.3-1.95l0.149-0.45c-1.233-1.133-2.533-2.233-3.899-3.3l-1.101-1
				c-0.699-0.666-1.25-1.133-1.649-1.399c-0.667-0.4-1.334-0.601-2-0.601C85.733,96.05,85.217,96.15,84.65,96.35z"/>
			<g>
				
					<linearGradient id="SVGID_7_" gradientUnits="userSpaceOnUse" x1="92.3691" y1="118.3213" x2="104.5371" y2="118.3213" gradientTransform="matrix(0.9987 -0.0514 0.0514 0.9987 2.879649e-005 2.939627e-005)">
					<stop  offset="0" style="stop-color:#CFCFCF"/>
					<stop  offset="0.5216" style="stop-color:#6E6E6E"/>
					<stop  offset="1" style="stop-color:#E0E0E0"/>
				</linearGradient>
				<path style="fill-rule:evenodd;clip-rule:evenodd;fill:url(#SVGID_7_);" d="M110.35,110.2l0.051,0.5
					c0.066,1.3-0.483,2.434-1.65,3.399c-1.134,0.967-2.533,1.5-4.2,1.601c-1.666,0.066-3.116-0.316-4.35-1.15
					c-1.233-0.866-1.884-1.934-1.95-3.2v-0.5c0.233,1.167,0.934,2.117,2.1,2.851c1.2,0.733,2.584,1.05,4.15,0.95
					c1.566-0.067,2.9-0.534,4-1.4C109.6,112.417,110.217,111.4,110.35,110.2z"/>
				<path style="fill-rule:evenodd;clip-rule:evenodd;fill:#F6F8FF;" d="M98.25,110.8c0.191,1.078,0.824,1.994,1.9,2.75
					c1.233,0.834,2.683,1.2,4.35,1.101c1.667-0.067,3.066-0.584,4.2-1.551c0.989-0.819,1.531-1.761,1.625-2.824
					c-0.075,1.132-0.584,2.141-1.525,3.024c-1.133,1.101-2.566,1.667-4.3,1.7c-1.833,0.033-3.35-0.417-4.55-1.35
					C98.987,112.862,98.421,111.912,98.25,110.8z"/>
				<path style="fill-rule:evenodd;clip-rule:evenodd;fill:#6D6E70;" d="M108.4,106.5c1.233,0.866,1.883,1.934,1.949,3.2
					c0.067,1.3-0.483,2.434-1.649,3.399c-1.134,0.967-2.533,1.483-4.2,1.551c-1.667,0.1-3.116-0.267-4.35-1.101
					c-1.233-0.866-1.884-1.95-1.95-3.25c-0.066-1.267,0.467-2.383,1.6-3.35c1.134-0.967,2.533-1.5,4.2-1.601
					C105.7,105.283,107.167,105.667,108.4,106.5z"/>
				<path style="fill-rule:evenodd;clip-rule:evenodd;fill:#6D6E70;" d="M104.5,114.15l-0.7,0.8l0.05,0.75
					c-0.933-0.033-1.5-0.134-1.699-0.3c-0.134-0.067-0.184-0.317-0.15-0.75l0.15-0.65L104.5,114.15z"/>
				<path style="fill-rule:evenodd;clip-rule:evenodd;fill:#6D6E70;" d="M105.8,114l1.2,0.05c0.767,0.101,1.017,0.3,0.75,0.601
					c-0.467,0.433-0.917,0.649-1.35,0.649l-0.101-0.7L105.8,114z"/>
				<path style="fill-rule:evenodd;clip-rule:evenodd;fill:#6D6E70;" d="M109.9,112.8c-0.067-0.133-0.267-0.217-0.601-0.25
					c-0.2,0-0.366-0.133-0.5-0.399l-0.1-0.45l1.7-0.65l-0.15,1L109.9,112.8z"/>
				<path style="fill-rule:evenodd;clip-rule:evenodd;fill:#888A8C;" d="M122,124.075c-1.475-0.293-2.258-0.685-2.35-1.175
					L122,124.075c0.129,0.026,0.263,0.051,0.4,0.075c0.899,0.166,2.017,0.3,3.35,0.399c0.767,0.101,1.2,0.05,1.3-0.149l0.2,0.149
					c0.1,0.167,0.1,0.367,0,0.601c-0.134,0.366-0.267,0.633-0.4,0.8l-4.5-1.7L122,124.075z"/>
				<path style="fill-rule:evenodd;clip-rule:evenodd;fill:#AE351B;" d="M84.4,95.7c1.5-0.533,2.883-0.417,4.15,0.35
					c0.7,0.467,1.65,1.283,2.851,2.45c1.1,0.866,2.483,2.033,4.149,3.5l-1.85,1.95c-1.434-1.233-2.316-1.967-2.65-2.2
					c-0.033-0.033-0.8-0.733-2.3-2.1c-0.7-0.634-1.267-1.067-1.7-1.301c-1.333-0.699-2.5-0.399-3.5,0.9
					c-0.533,0.634-0.75,1.316-0.65,2.05c0.1,0.634,0.367,1.15,0.8,1.55c0.733,0.667,2,0.4,3.8-0.8c0.533-0.366,1.066-0.184,1.6,0.55
					c0.534,0.7,0.351,1.367-0.55,2c-2.166,1.667-4.183,2.101-6.05,1.301c-1.767-0.767-2.617-2.15-2.55-4.15
					c0.033-1.467,0.483-2.767,1.35-3.9C82.1,96.85,83.133,96.134,84.4,95.7z"/>
				<g>
					<path style="fill-rule:evenodd;clip-rule:evenodd;fill:#762512;" d="M87,97.2c0.333,0.166,1,0.7,2,1.6
						c1.233,1.134,2,1.816,2.3,2.05c1.367,1,2.233,1.4,2.601,1.2c0.199-0.1,0.483-0.166,0.85-0.2c0.2-0.033,0.366-0.05,0.5-0.05
						l-0.4,0.9l-1.149,1.25c-1.434-1.233-2.316-1.967-2.65-2.2c-0.033-0.033-0.8-0.733-2.3-2.1c-0.7-0.634-1.267-1.067-1.7-1.301
						c-1.333-0.699-2.5-0.399-3.5,0.9c-0.433,0.467-0.65,0.983-0.65,1.55c-0.333-0.633-0.167-1.467,0.5-2.5
						c0.4-0.566,1-0.95,1.8-1.149C85.9,96.95,86.5,96.967,87,97.2z"/>
					<path style="fill-rule:evenodd;clip-rule:evenodd;fill:#762512;" d="M80.15,100.15c0.033,0.066,0.083,0.449,0.15,1.149
						c0.133,0.767,0.317,1.367,0.55,1.8c0.633,1.134,1.683,1.834,3.15,2.101c0.667,0.1,1.55-0.066,2.65-0.5
						c0.8-0.334,1.416-0.65,1.85-0.95c0.333-0.233,0.366-0.616,0.1-1.15l0.301,0.25c0.233,0.267,0.333,0.551,0.3,0.851v0.149
						c-0.167,0.267-0.384,0.517-0.65,0.75c-2.166,1.667-4.183,2.101-6.05,1.301c-1.767-0.767-2.617-2.15-2.55-4.15
						C79.95,101.116,80.017,100.583,80.15,100.15z"/>
				</g>
				<path style="fill-rule:evenodd;clip-rule:evenodd;fill:#6D2210;" d="M94.4,103.85c-0.301,0.101-0.534,0.117-0.7,0.051
					c-0.2-0.101-0.25-0.317-0.15-0.65c0.101-0.3,0.316-0.616,0.65-0.95c0.399-0.366,0.75-0.533,1.05-0.5c0.434,0.066,0.5,0.4,0.2,1
					C95.15,103.366,94.8,103.717,94.4,103.85z"/>
				
					<linearGradient id="SVGID_8_" gradientUnits="userSpaceOnUse" x1="125.79" y1="69.7783" x2="158.4473" y2="69.7783" gradientTransform="matrix(0.9397 0.3421 -0.3726 0.9286 -5.602837e-006 -3.702044e-004)">
					<stop  offset="0" style="stop-color:#3B3B3B"/>
					<stop  offset="0.1294" style="stop-color:#A1A1A1"/>
					<stop  offset="0.3529" style="stop-color:#575757"/>
					<stop  offset="0.6588" style="stop-color:#A8A8A8"/>
					<stop  offset="1" style="stop-color:#1F1F1F"/>
				</linearGradient>
				<path style="fill-rule:evenodd;clip-rule:evenodd;fill:url(#SVGID_8_);" d="M116.9,118.15c-0.467-0.5-1.684-0.967-3.65-1.4
					c-0.9-0.2-1.616-0.434-2.15-0.7c-0.533-0.267-1.066-0.666-1.6-1.2c-3.934-3.733-6.45-5.75-7.55-6.05
					c-0.967-0.2-1.733-0.366-2.3-0.5c-1.034-0.267-1.733-0.533-2.101-0.8c-0.366-0.267-1.083-0.917-2.149-1.95l-1.5-1.5
					c0-0.434,0.083-0.767,0.25-1c0.199-0.366,0.433-0.6,0.699-0.7c0.134-0.033,0.233-0.033,0.301,0L95.6,103.2
					c0.4,0.7,0.884,1.316,1.45,1.85c0.267,0.367,1.167,0.601,2.7,0.7c1.2,0.167,2.4,0.55,3.6,1.15c0.934,0.433,2.2,1.449,3.801,3.05
					c1.533,1.533,2.483,2.7,2.85,3.5c0.3,0.6,0.95,1.033,1.95,1.3c0.6,0.167,1.684,0.45,3.25,0.85c1.133,0.367,2.05,0.917,2.75,1.65
					c0.633,0.6,0.95,1.134,0.95,1.6c0,1.801,0.183,3.15,0.55,4.051c0,0.066,0.05,0.149,0.149,0.25c-0.033,0.133,0.134,0.399,0.5,0.8
					c0.367,0.399,0.534,0.649,0.5,0.75c-0.566-0.3-1.116-0.717-1.649-1.25c-0.601-0.601-0.917-1.117-0.95-1.55
					C117.934,120.1,117.566,118.85,116.9,118.15z"/>
				<path style="fill-rule:evenodd;clip-rule:evenodd;fill:#DEDEDE;" d="M117.2,117.8c-0.267-0.366-0.717-0.649-1.351-0.85
					c-0.233-0.101-1-0.283-2.3-0.55c-0.934-0.2-1.649-0.417-2.149-0.65c-0.534-0.267-1.067-0.684-1.601-1.25
					c-3.899-3.733-6.434-5.75-7.6-6.05c-0.967-0.2-1.733-0.367-2.3-0.5c-1.034-0.267-1.733-0.533-2.101-0.8
					c-0.267-0.2-0.816-0.75-1.649-1.65c-1.034-1.134-1.617-1.767-1.75-1.9c0.066-0.133,0.199-0.3,0.399-0.5
					c0.167-0.166,0.283-0.35,0.351-0.55c0.1,0.101,0.816,0.816,2.149,2.15c0.267,0.366,1.167,0.6,2.7,0.7
					c1.233,0.166,2.45,0.55,3.65,1.149c0.933,0.434,2.199,1.45,3.8,3.05c1.533,1.534,2.483,2.7,2.85,3.5
					c0.3,0.601,0.95,1.034,1.95,1.301c0.6,0.166,1.684,0.449,3.25,0.85c1.134,0.366,2.05,0.917,2.75,1.65
					c0.634,0.6,0.95,1.149,0.95,1.649c0,1.767,0.184,3.101,0.55,4c0.167,0.434,0.783,0.816,1.85,1.15c0.601,0.166,1.4,0.333,2.4,0.5
					c0.733,0.166,1.667,0.267,2.8,0.3l-0.2,0.5c-0.133,0.366-0.1,0.634,0.101,0.8c-2.267-0.2-4.15-0.5-5.65-0.899
					c-1.967-0.534-2.983-1.551-3.05-3.051C117.833,119.65,117.566,118.3,117.2,117.8z"/>
				<path style="fill-rule:evenodd;clip-rule:evenodd;fill:#DEDEDE;" d="M110.45,112.65c0.3,0.633,0.95,1.1,1.95,1.399
					c0.6,0.2,1.666,0.483,3.199,0.851c1.167,0.399,2.117,0.933,2.851,1.6c0.633,0.6,0.95,1.134,0.95,1.6c0,1.767,0.183,3.101,0.55,4
					c0.166,0.467,0.717,0.851,1.649,1.15c0.267,0.066,1,0.233,2.2,0.5l3.351,0.65c-0.067,0-0.15,0.033-0.25,0.1
					c-0.2,0.066-0.351,0.2-0.45,0.4c-0.167,0.533-0.351,0.633-0.55,0.3c-1.601-0.101-3.15-0.351-4.65-0.75
					c-1.967-0.533-2.983-1.55-3.05-3.05c-0.167-2.2-0.434-3.551-0.8-4.051c-0.267-0.366-0.717-0.649-1.351-0.85
					c-0.233-0.1-1-0.283-2.3-0.55c-0.934-0.167-1.65-0.384-2.15-0.65c-0.533-0.267-1.083-0.684-1.649-1.25
					c-3.7-3.7-6.217-5.717-7.55-6.05c-0.967-0.2-1.733-0.366-2.301-0.5c-1.033-0.233-1.733-0.5-2.1-0.8
					c-0.366-0.267-1.05-0.884-2.05-1.851l-1.4-1.35l0.4-0.45l0.35-0.649l2.2,1.85c0.2,0.267,0.634,0.467,1.3,0.6
					c0.334,0.067,0.8,0.117,1.4,0.15c1,0.066,2.217,0.434,3.649,1.1c0.9,0.434,2.15,1.45,3.75,3.051
					C109.134,110.717,110.083,111.884,110.45,112.65z"/>
				
					<linearGradient id="SVGID_9_" gradientUnits="userSpaceOnUse" x1="126.167" y1="69.7041" x2="164.6533" y2="69.7041" gradientTransform="matrix(0.9397 0.342 -0.3726 0.9286 3.606081e-004 -3.774166e-004)">
					<stop  offset="0" style="stop-color:#CFCFCF"/>
					<stop  offset="0.1961" style="stop-color:#878787"/>
					<stop  offset="0.5216" style="stop-color:#C7C7C7"/>
					<stop  offset="0.698" style="stop-color:#B5B5B5"/>
					<stop  offset="1" style="stop-color:#E0E0E0"/>
				</linearGradient>
				<path style="fill-rule:evenodd;clip-rule:evenodd;fill:url(#SVGID_9_);" d="M110.4,112.9c0.3,0.6,0.949,1.033,1.949,1.3
					c0.601,0.166,1.667,0.45,3.2,0.85c1.134,0.367,2.066,0.917,2.8,1.65c0.601,0.6,0.9,1.149,0.9,1.649
					c0,1.801,0.184,3.15,0.55,4.051c0.167,0.433,0.783,0.8,1.851,1.1c0.6,0.167,1.399,0.333,2.399,0.5c0.767,0.167,1.767,0.3,3,0.4
					l-0.399,0.6c-0.134,0.533-0.084,0.833,0.149,0.9c-2.267-0.4-4.149-0.801-5.649-1.2c-2-0.5-3.034-1.517-3.101-3.05
					c-0.1-2.067-0.366-3.417-0.8-4.051c-0.267-0.366-0.717-0.649-1.35-0.85c-0.101-0.033-0.851-0.2-2.25-0.5
					c-0.934-0.2-1.65-0.434-2.15-0.7c-0.533-0.267-1.083-0.684-1.65-1.25c-3.699-3.7-6.216-5.717-7.55-6.05
					c-0.967-0.2-1.733-0.366-2.3-0.5c-1.033-0.233-1.733-0.5-2.1-0.8c-0.367-0.267-1.051-0.884-2.051-1.851l-1.399-1.35
					c-0.066-0.333-0.017-0.6,0.149-0.8l0.601-0.601l2.2,2.15c0.199,0.267,0.633,0.467,1.3,0.6c0.333,0.067,0.8,0.117,1.399,0.15
					c1.034,0.066,2.233,0.434,3.601,1.1c0.934,0.434,2.2,1.45,3.8,3.051C109.033,110.934,110,112.1,110.4,112.9z"/>
				<path style="fill-rule:evenodd;clip-rule:evenodd;fill:#E3E3E3;" d="M120.05,123.1l0.8,0.301c0.7,0.233,1.4,0.416,2.101,0.55
					l3.85,0.7l-4.1-0.5C121.4,123.783,120.517,123.434,120.05,123.1z"/>
				<path style="fill-rule:evenodd;clip-rule:evenodd;fill:#919191;" d="M126.55,125.05c-0.1,0.334-0.116,0.55-0.05,0.65
					c-2.066-0.233-3.85-0.533-5.35-0.9c-1.934-0.533-2.967-1.55-3.101-3.05l-0.1-1.75c0.2,1.1,0.399,1.866,0.6,2.3
					c0.233,0.434,0.5,0.617,0.8,0.55l0.051,0.301c0.066,0.267,0.216,0.466,0.449,0.6c0.434,0.267,1.167,0.55,2.2,0.85
					c1.267,0.334,2.351,0.467,3.25,0.4c0.566-0.033,1.033-0.116,1.4-0.25L126.55,125.05z"/>
				<path style="fill-rule:evenodd;clip-rule:evenodd;fill:#636466;" d="M99.6,107.45c0.367,0.434,0.483,0.649,0.351,0.649
					L98.9,107.9c0.066-0.101,0.083-0.267,0.05-0.5L98.9,107.3l-0.2-0.149c-0.2-0.2-0.316-0.45-0.351-0.75l-0.05-1.45l0.7,0.2
					l0.6-0.65c0.634,1.833,0.733,2.816,0.301,2.95H99.6z"/>
				<path style="fill-rule:evenodd;clip-rule:evenodd;fill:#F88263;" d="M86.9,96.1c-0.367-0.133-0.851-0.149-1.45-0.05
					c-1.434,0.233-2.55,0.884-3.35,1.95c-0.333,0.434-0.567,0.983-0.7,1.65c0,0.066-0.05,0.466-0.15,1.199
					c-0.033,0.267-0.1,0.351-0.2,0.25c-0.066-0.1-0.1-0.316-0.1-0.649c0-0.533,0-0.834,0-0.9c0.066-0.366,0.25-0.833,0.55-1.399
					c0.5-0.934,1.633-1.7,3.4-2.301c0.8-0.3,1.65-0.283,2.55,0.051c1,0.433,2.333,1.449,4,3.05l2.45,2.45
					c-0.467-0.301-1.067-0.784-1.801-1.45c-2-1.834-3.316-2.917-3.949-3.25C87.517,96.366,87.1,96.167,86.9,96.1z"/>
				<path style="fill-rule:evenodd;clip-rule:evenodd;fill:#F88263;" d="M84.4,103.4l0.8,0.05c0.6-0.066,1.133-0.25,1.6-0.55
					c0.267-0.134,0.533-0.301,0.8-0.5c0.233-0.067,0.417,0.033,0.551,0.3c-0.367,0.3-0.717,0.5-1.051,0.6
					c-0.3,0.134-0.533,0.233-0.699,0.3c-0.334,0.134-0.733,0.2-1.2,0.2c-0.233-0.033-0.434-0.1-0.6-0.2L84.4,103.4z"/>
				<path style="fill-rule:evenodd;clip-rule:evenodd;fill:#888A8C;" d="M121.7,127.15c0.5,0.1,1.633,0.183,3.399,0.25l0.15,0.25
					c0.1,0.199,0.083,0.466-0.05,0.8c-0.167,0.467-0.367,0.75-0.601,0.85c-1.633-0.967-3.25-1.733-4.85-2.3
					c-0.957-0.319-1.933-0.836-2.925-1.55c0.598,0.349,1.306,0.666,2.125,0.95C119.983,126.8,120.9,127.05,121.7,127.15z"/>
				<path style="fill-rule:evenodd;clip-rule:evenodd;fill:#AE351B;" d="M95.35,94.45c0.167,0.3,0.65,0.95,1.45,1.95
					c0.634,0.833,1.066,1.5,1.3,2l0.9,1.5l-0.55,0.899l-1.2,0.45c-1.033-1.333-1.884-2.483-2.55-3.45c-1-1.166-1.667-2.083-2-2.75
					c-0.601-1.166-0.55-2.333,0.149-3.5c0.7-1.133,1.65-1.916,2.851-2.35c1.366-0.5,2.85-0.45,4.45,0.149
					c1.699,0.634,2.6,1.9,2.699,3.801c0.101,1.866-0.6,3.267-2.1,4.199c-1.134,0.834-1.9,0.9-2.3,0.2
					c-0.367-0.7-0.283-1.25,0.25-1.649c1.566-1.067,2.083-2,1.55-2.801c-0.3-0.533-0.75-0.949-1.35-1.25
					c-0.767-0.366-1.534-0.433-2.301-0.199C94.934,92.217,94.517,93.15,95.35,94.45z"/>
				<g>
					<path style="fill-rule:evenodd;clip-rule:evenodd;fill:#862915;" d="M102.8,94.1c-0.233,1.467-0.916,2.551-2.05,3.25
						c-1.134,0.834-1.884,0.9-2.25,0.2c-0.4-0.666-0.333-1.2,0.2-1.6c0.267-0.066,0.55-0.033,0.85,0.1
						c0.467,0.2,0.634,0.617,0.5,1.25C101.35,96.634,102.267,95.566,102.8,94.1z"/>
					<path style="fill-rule:evenodd;clip-rule:evenodd;fill:#862915;" d="M96.6,91.65c-1.033,0.366-1.566,0.883-1.6,1.55
						c-0.134-0.3,0-0.733,0.4-1.3c0.366-0.601,0.899-1,1.6-1.2c0.634-0.2,1.3-0.167,2,0.1s1.25,0.65,1.65,1.15
						c0.433,0.566,0.533,1.1,0.3,1.6c-0.233,0.533-0.601,0.983-1.101,1.351c0.601-0.7,0.733-1.301,0.4-1.801
						c-0.3-0.533-0.75-0.949-1.35-1.25C98.134,91.483,97.366,91.417,96.6,91.65z"/>
					<path style="fill-rule:evenodd;clip-rule:evenodd;fill:#862915;" d="M92.3,93.15c0.233-0.233,0.45-0.167,0.65,0.199
						c1.133,1.967,1.899,3.184,2.3,3.65c0.167,0.2,0.566,0.8,1.2,1.8c0.366,0.566,0.649,0.851,0.85,0.851
						c0.101,0,0.384-0.017,0.851-0.051c0.333-0.033,0.533,0,0.6,0.101l0.1,0.5l-0.399,0.6l-1.2,0.45
						c-1.033-1.333-1.884-2.483-2.55-3.45c-0.733-0.934-1.283-1.649-1.65-2.149C92.483,94.75,92.233,93.917,92.3,93.15z"/>
				</g>
				<path style="fill-rule:evenodd;clip-rule:evenodd;fill:#6D2210;" d="M97.95,101.3c-0.267,0.066-0.483,0.05-0.65-0.05
					c-0.166-0.1-0.2-0.283-0.1-0.55c0.1-0.233,0.3-0.467,0.6-0.7c0.334-0.267,0.65-0.366,0.95-0.3c0.366,0.1,0.417,0.383,0.15,0.85
					C98.634,100.983,98.316,101.233,97.95,101.3z"/>
				<path style="fill-rule:evenodd;clip-rule:evenodd;fill:#DEDEDE;" d="M102.7,108.45c0.166,0.267,1.3,1.583,3.399,3.95
					c1.867,2.133,2.884,3.433,3.051,3.899c0.033,0.167,0.116,0.834,0.25,2c0.066,0.9,0.283,1.566,0.649,2c0.7,0.9,1.95,1.5,3.75,1.8
					c0.967,0.167,2.017,0.983,3.15,2.45c0.333,0.434,0.783,0.767,1.35,1c0.533,0.267,1.517,0.584,2.95,0.95
					c1.934,0.5,3.217,0.783,3.85,0.85l-0.25,0.351c-0.133,0.233-0.216,0.45-0.25,0.649c-0.033,0.267-0.017,0.551,0.051,0.851
					c-3.9-1.4-6.101-2.167-6.601-2.3c-0.434-0.101-1.166-0.634-2.2-1.601c-0.666-0.633-1.833-1.133-3.5-1.5
					c-2.033-0.399-3.383-1.2-4.05-2.399c-0.333-0.667-0.583-1.417-0.75-2.25c-0.166-1.067-0.283-1.7-0.35-1.9
					c-0.134-0.434-1.2-1.783-3.2-4.05c-2.134-2.434-3.283-3.8-3.45-4.101c-0.399-0.633-0.75-1.449-1.05-2.449
					c-0.366-1.134-0.517-2-0.45-2.601c0.033-0.533-0.166-1.267-0.6-2.2l-0.7-1.199c-0.033-0.134,0.05-0.267,0.25-0.4
					c0.134-0.066,0.267-0.083,0.4-0.05c0.066,0.033,0.116,0.066,0.149,0.1c0.233,0.134,0.483,0.351,0.75,0.65
					c0.134,0.2,0.417,0.583,0.851,1.149c0.333,0.4,0.666,0.851,1,1.351c0.333,0.533,0.5,0.899,0.5,1.1
					C101.65,106.15,102,107.45,102.7,108.45z"/>
				
					<linearGradient id="SVGID_10_" gradientUnits="userSpaceOnUse" x1="132.2813" y1="58.3325" x2="169.0928" y2="58.3325" gradientTransform="matrix(0.9094 0.416 -0.4458 0.8957 1.866817e-004 1.357496e-004)">
					<stop  offset="0" style="stop-color:#CFCFCF"/>
					<stop  offset="0.4392" style="stop-color:#B8B8B8"/>
					<stop  offset="0.6588" style="stop-color:#949494"/>
					<stop  offset="1" style="stop-color:#D4D4D4"/>
				</linearGradient>
				<path style="fill-rule:evenodd;clip-rule:evenodd;fill:url(#SVGID_10_);" d="M102.5,108.6c0.134,0.2,1.267,1.517,3.4,3.95
					c1.866,2.134,2.866,3.45,3,3.95c0.033,0.167,0.116,0.833,0.25,2c0.066,0.866,0.283,1.533,0.649,2c0.7,0.9,1.967,1.5,3.8,1.8
					c0.934,0.134,1.967,0.934,3.101,2.4c0.333,0.434,0.783,0.783,1.35,1.05s1.55,0.566,2.95,0.9c1.934,0.5,3.217,0.783,3.85,0.85
					l-0.199,0.25c-0.101,0.167-0.167,0.333-0.2,0.5c0,0.3,0.033,0.566,0.1,0.8l-6.75-2c-0.533-0.133-1.267-0.666-2.2-1.6
					c-0.3-0.3-0.833-0.601-1.6-0.9c-0.634-0.267-1.267-0.45-1.9-0.55c-2-0.366-3.35-1.184-4.05-2.45
					c-0.333-0.633-0.566-1.383-0.7-2.25c-0.166-0.967-0.3-1.583-0.399-1.85c-0.167-0.467-1.233-1.834-3.2-4.101
					c-2.134-2.466-3.283-3.833-3.45-4.1c-0.366-0.634-0.717-1.45-1.05-2.45c-0.333-1.133-0.483-2-0.45-2.6
					c0.033-0.533-0.166-1.267-0.6-2.2l-0.65-1.2c0.033-0.066,0.066-0.149,0.101-0.25c0.066-0.2,0.166-0.333,0.3-0.399
					c0.133-0.067,0.283-0.084,0.45-0.051c0.066,0.034,0.133,0.067,0.199,0.101l1.25,1.85c1.067,1.467,1.584,2.367,1.551,2.7
					c0,0.4,0.066,0.934,0.199,1.6C101.8,107.283,102.1,108.033,102.5,108.6z"/>
				<path style="fill-rule:evenodd;clip-rule:evenodd;fill:#DEDEDE;" d="M99.55,105.95c0.2,0.8,0.417,1.416,0.65,1.85
					c0.333,0.634,2.366,3.117,6.1,7.45c0.4,0.5,0.75,1.066,1.05,1.7c0.267,0.633,0.417,1.149,0.45,1.55
					c0.033,0.467,0.134,1.033,0.3,1.7c0.233,0.8,0.483,1.35,0.75,1.649c0.634,0.7,1.75,1.267,3.351,1.7
					c1.133,0.233,2.267,0.684,3.399,1.351l0.15,0.1l0.55,0.85l-0.55-0.55c-0.733-0.666-1.9-1.149-3.5-1.45
					c-2.033-0.399-3.384-1.199-4.05-2.399c-0.334-0.667-0.584-1.417-0.75-2.25c-0.167-1.066-0.283-1.7-0.351-1.9
					c-0.133-0.467-1.199-1.833-3.199-4.1c-2.134-2.434-3.284-3.783-3.45-4.05c-0.4-0.634-0.75-1.45-1.05-2.45
					c-0.367-1.134-0.517-2.017-0.45-2.65c0-0.467-0.15-1.066-0.45-1.8l0.05-0.05l0.101,0.1c0.133,0.601,0.25,0.967,0.35,1.101
					c0.033,0.166,0.134,0.433,0.3,0.8C99.267,104.566,99.35,105.15,99.55,105.95z"/>
				<path style="fill-rule:evenodd;clip-rule:evenodd;fill:#5E5E5E;" d="M99.05,107.15c-0.267-1.067-0.383-1.934-0.35-2.601
					c0.033-0.533-0.167-1.267-0.601-2.2l-0.649-1.199c0.066-0.267,0.184-0.467,0.35-0.601c0.033,0.167,0.15,0.417,0.351,0.75
					l0.35,1.101c0.4,0.833,0.583,1.583,0.55,2.25c0,0.399,0.101,0.983,0.3,1.75c0.2,0.833,0.417,1.466,0.65,1.899
					c0.333,0.601,2.35,3.066,6.05,7.4c0.867,1.1,1.384,2.184,1.55,3.25c0.034,0.5,0.134,1.066,0.301,1.7
					c0.199,0.8,0.433,1.35,0.699,1.649c0.7,0.733,1.817,1.3,3.351,1.7c2.233,0.6,3.684,1.283,4.35,2.05
					c0.467,0.533,0.884,0.584,1.25,0.15l-0.1,0.3c0.066,0.267,0.483,0.533,1.25,0.8c3.166,1,5.05,1.483,5.649,1.45
					c0.067,0.233,0.15,0.417,0.25,0.55L117.7,127.4c-0.434-0.134-1.167-0.667-2.2-1.601c-0.566-0.566-1.8-1.017-3.7-1.35
					c-1-0.233-1.684-0.434-2.05-0.601c-0.866-0.366-1.5-0.916-1.9-1.649c-0.333-0.634-0.583-1.45-0.75-2.45
					c-0.199-1.1-0.35-1.767-0.449-2c-0.134-0.467-1.217-1.833-3.25-4.1c-2.134-2.434-3.284-3.784-3.45-4.051
					C99.616,109.066,99.316,108.25,99.05,107.15z"/>
				<path style="fill-rule:evenodd;clip-rule:evenodd;fill:#8C8C8C;" d="M98.6,100.3l-0.399,0.15c-0.167,0.1-0.2,0.149-0.101,0.149
					l0.5,1.45c0.4,0.834,0.584,1.584,0.551,2.25c0,0.4,0.083,0.983,0.25,1.75c0.199,0.867,0.416,1.5,0.649,1.9
					c0.334,0.6,2.367,3.066,6.101,7.399c0.933,1.233,1.433,2.334,1.5,3.301c0.233,1.699,0.583,2.816,1.05,3.35
					c0.666,0.7,1.783,1.25,3.35,1.65c2.2,0.6,3.65,1.3,4.351,2.1c0.466,0.533,0.866,0.566,1.199,0.1l0.051,0.45
					c0.166,0.334,0.633,0.617,1.399,0.851c0.533,0.166,1.467,0.466,2.8,0.899c1.167,0.367,2.017,0.55,2.551,0.55
					c0,0.301,0.066,0.534,0.199,0.7c-4.033-1.366-6.3-2.116-6.8-2.25c-0.533-0.133-1.267-0.666-2.2-1.6
					c-0.533-0.533-1.767-0.983-3.699-1.351c-2.034-0.366-3.351-1.116-3.95-2.25c-0.367-0.666-0.634-1.466-0.8-2.399
					c-0.167-1.134-0.301-1.816-0.4-2.05c-0.134-0.434-1.217-1.784-3.25-4.051c-2.134-2.399-3.283-3.75-3.45-4.05
					c-0.333-0.566-0.633-1.399-0.899-2.5c-0.267-1.066-0.384-1.934-0.351-2.6c0.033-0.533-0.166-1.267-0.6-2.2l-0.65-1.2
					c0.033-0.066,0.066-0.149,0.101-0.25c0.066-0.2,0.166-0.333,0.3-0.399c0.133-0.067,0.283-0.084,0.45-0.051
					c0.066,0.034,0.133,0.067,0.199,0.101V100.3z"/>
				<path style="fill-rule:evenodd;clip-rule:evenodd;fill:#E3E3E3;" d="M117.9,125.9l1.75,0.55c1.033,0.3,2.566,0.649,4.6,1.05
					c-1.134-0.1-1.983-0.217-2.55-0.35c-1.634-0.4-2.601-0.667-2.9-0.801L117.9,125.9z"/>
				<path style="fill-rule:evenodd;clip-rule:evenodd;fill:#F88263;" d="M93.6,91.3c0.167-0.3,0.4-0.6,0.7-0.899
					c0.634-0.634,1.367-1.017,2.2-1.15c1.8-0.3,3.167-0.066,4.1,0.7c0.434,0.3,0.767,0.649,1,1.05c-0.633-0.6-1.466-1.017-2.5-1.25
					c-1.633-0.333-2.8-0.3-3.5,0.1c-0.466,0.233-0.916,0.634-1.35,1.2c-0.4,0.5-0.616,0.884-0.65,1.15l-0.149,1.05
					C93.017,92.983,93.066,92.333,93.6,91.3z"/>
				<path style="fill-rule:evenodd;clip-rule:evenodd;fill:#F88263;" d="M101.05,94.1l0.15-0.3c0.133-0.1,0.217-0.233,0.25-0.399
					v0.149c0,0.3-0.101,0.601-0.3,0.9c-0.301,0.5-0.483,0.85-0.551,1.05v0.4c0.034,0.3-0.033,0.517-0.199,0.649l-0.15-0.399
					c-0.066-0.167-0.233-0.384-0.5-0.65c-0.066-0.033,0.217-0.3,0.85-0.8C100.8,94.566,100.95,94.366,101.05,94.1z"/>
				<path style="fill-rule:evenodd;clip-rule:evenodd;fill:#F88263;" d="M95.05,94.85c0.2,0.134,0.9,1.051,2.101,2.75
					c0.699,0.801,0.933,1.2,0.699,1.2s-0.767-0.616-1.6-1.85c-0.134-0.2-0.6-0.851-1.4-1.95c-0.066-0.1-0.083-0.167-0.05-0.2
					C94.833,94.733,94.917,94.75,95.05,94.85z"/>
				<path style="fill-rule:evenodd;clip-rule:evenodd;fill:#757575;" d="M101.45,106.2c-0.101,0.233-0.283,0.383-0.55,0.45
					c-0.233,0.066-0.483,0.033-0.75-0.101c-0.233-0.1-0.417-0.267-0.551-0.5c-0.1-0.233-0.1-0.467,0-0.7
					c0.101-0.233,0.284-0.383,0.551-0.449c0.233-0.067,0.483-0.034,0.75,0.1s0.449,0.316,0.55,0.55
					C101.55,105.783,101.55,106,101.45,106.2z"/>
				
					<radialGradient id="SVGID_11_" cx="131.5342" cy="-100.5171" r="1.6" gradientTransform="matrix(3.125000e-004 1 0.8828 -0.2344 189.2469 -50.2425)" gradientUnits="userSpaceOnUse">
					<stop  offset="0" style="stop-color:#CFCFCF"/>
					<stop  offset="1" style="stop-color:#757575"/>
				</radialGradient>
				<path style="fill-rule:evenodd;clip-rule:evenodd;fill:url(#SVGID_11_);" d="M101.3,105.85c-0.233,0.534-0.633,0.667-1.2,0.4
					c-0.233-0.1-0.399-0.267-0.5-0.5c-0.066-0.233-0.05-0.467,0.051-0.7c0.1-0.233,0.267-0.383,0.5-0.45
					c0.233-0.066,0.466-0.05,0.699,0.051c0.233,0.1,0.4,0.267,0.5,0.5C101.417,105.384,101.4,105.616,101.3,105.85z"/>
				
					<radialGradient id="SVGID_12_" cx="130.6309" cy="-100.7412" r="0.8879" gradientTransform="matrix(5.633803e-004 1 0.8873 -0.2254 190.1168 -48.2834)" gradientUnits="userSpaceOnUse">
					<stop  offset="0" style="stop-color:#7F7F7F"/>
					<stop  offset="1" style="stop-color:#A6A6A6"/>
				</radialGradient>
				<path style="fill-rule:evenodd;clip-rule:evenodd;fill:url(#SVGID_12_);" d="M100.25,105.2l0.65-0.2
					c0.199,0,0.35,0.05,0.449,0.15l0.051,0.3c-0.233-0.033-0.45-0.033-0.65,0l-0.55,0.1L100.25,105.2z"/>
				
					<linearGradient id="SVGID_13_" gradientUnits="userSpaceOnUse" x1="-152.1694" y1="-48.2241" x2="-147.5223" y2="-48.2241" gradientTransform="matrix(-0.9307 -0.3658 0.3383 -0.9415 -1.786947e-004 -7.071495e-004)">
					<stop  offset="0" style="stop-color:#6E6E6E"/>
					<stop  offset="1" style="stop-color:#E0E0E0"/>
				</linearGradient>
				<polygon style="fill-rule:evenodd;clip-rule:evenodd;fill:url(#SVGID_13_);" points="122.4,95.2 126.2,93.95 125.3,101.5 
					120.5,106.65 119.35,101.55 				"/>
				
					<linearGradient id="SVGID_14_" gradientUnits="userSpaceOnUse" x1="-150.21" y1="-46.0381" x2="-133.7664" y2="-46.0381" gradientTransform="matrix(-0.9305 -0.3664 0.3379 -0.9417 0 -1.432002e-004)">
					<stop  offset="0" style="stop-color:#6E6E6E"/>
					<stop  offset="1" style="stop-color:#E0E0E0"/>
				</linearGradient>
				<path style="fill-rule:evenodd;clip-rule:evenodd;fill:url(#SVGID_14_);" d="M118.8,100.15l-10.25-2.45
					c-0.467-0.134-1.3-0.434-2.5-0.9l-1.649-0.7c0.3-0.433,0.783-0.916,1.449-1.449c1.367-1.134,2.983-2.017,4.851-2.65
					c1.399-0.467,3.399-0.65,6-0.55c2.333,0.1,4.267,0.366,5.8,0.8c1.8,0.533,3.033,1.1,3.7,1.7L118.8,100.15z"/>
				
					<linearGradient id="SVGID_15_" gradientUnits="userSpaceOnUse" x1="73.1411" y1="-131.0454" x2="83.5704" y2="-131.0454" gradientTransform="matrix(-0.2085 0.978 -0.9848 -0.1769 -9.603500e-004 -2.334714e-004)">
					<stop  offset="0" style="stop-color:#6E6E6E"/>
					<stop  offset="1" style="stop-color:#E0E0E0"/>
				</linearGradient>
				<path style="fill-rule:evenodd;clip-rule:evenodd;fill:url(#SVGID_15_);" d="M121.25,98.15l-0.75,8.5l-5.15-3.851
					c-1.133-0.733-2.816-1.583-5.05-2.55c-2.1-0.9-3.517-1.417-4.25-1.55c-0.833-0.167-1.416-0.584-1.75-1.25
					c-0.3-0.634-0.217-1.101,0.25-1.4c1.233-0.767,2.7-1.316,4.4-1.649c1.866-0.367,3.517-0.334,4.95,0.1
					C115.9,95.1,118.35,96.316,121.25,98.15z"/>
				<path style="fill-rule:evenodd;clip-rule:evenodd;fill:#6C6D70;" d="M112.95,100.25L112.4,98l0.5-0.2
					c0.5,0,1.066,0.367,1.699,1.101c0.7,0.8,1.117,1.75,1.25,2.85c0.101,1.066-0.066,1.417-0.5,1.05
					c-0.633-0.366-1.116-0.684-1.449-0.95C113.3,101.384,112.983,100.85,112.95,100.25z"/>
				
					<linearGradient id="SVGID_16_" gradientUnits="userSpaceOnUse" x1="148.5059" y1="-21.9009" x2="150.5129" y2="-21.9009" gradientTransform="matrix(0.6353 0.7723 -0.7485 0.6642 1.745224e-004 5.143881e-005)">
					<stop  offset="0" style="stop-color:#CFCFCF"/>
					<stop  offset="0.4392" style="stop-color:#B8B8B8"/>
					<stop  offset="0.6588" style="stop-color:#949494"/>
					<stop  offset="1" style="stop-color:#D4D4D4"/>
				</linearGradient>
				<path style="fill-rule:evenodd;clip-rule:evenodd;fill:url(#SVGID_16_);" d="M110.5,104.85c-0.533,0.5-1.233-0.466-2.1-2.899
					c1.133-0.767,1.983-1.45,2.55-2.05c0.566-0.601,1.05-1.233,1.45-1.9l0.5-0.1c0.433,0,0.8,0.149,1.1,0.449
					c0.5,0.5,0.634,1.334,0.4,2.5C112.366,103.017,111.066,104.35,110.5,104.85z"/>
				<path style="fill-rule:evenodd;clip-rule:evenodd;fill:#F6F8FF;" d="M117.55,104.4l2.4,1.5c0.2,0.033,0.45-0.817,0.75-2.551
					l0.55-5.199l-0.3,5.699c-0.101,0.834-0.25,1.767-0.45,2.801L117.55,104.4z"/>
				<path style="fill-rule:evenodd;clip-rule:evenodd;fill:#F6F8FF;" d="M126.2,93.95l-5,4.35c-3.467-2.1-6.267-3.383-8.4-3.85
					c-1.7-0.367-3.616-0.2-5.75,0.5L104.4,96.1l2.1-1.199c1.833-0.733,3.85-0.983,6.05-0.75c2.033,0.199,4.75,1.35,8.15,3.449
					c0.267,0.134,0.55,0.134,0.85,0L126.2,93.95z"/>
				<path style="fill-rule:evenodd;clip-rule:evenodd;fill:#862915;" d="M85.2,121.35l1.3,0.2c1,0.134,1.833,0.3,2.5,0.5l-0.65,2.45
					c-0.466,1.733-0.883,2.884-1.25,3.45c-0.399,0.666-1.083,0.649-2.05-0.05c-0.9-0.634-1.55-1.417-1.95-2.351
					c-0.3-0.7-0.417-1.55-0.35-2.55l0.2-1.3L85.2,121.35z"/>
				<path style="fill-rule:evenodd;clip-rule:evenodd;fill:#AE351B;" d="M110.35,101.35c0.7,0.267,1.117,0.834,1.25,1.7
					c0.067,0.467,0.067,0.884,0,1.25c-1.466,1.434-2.916,3.033-4.35,4.8c-0.434,0.534-1.333,1.7-2.7,3.5
					c-1.6,1.934-3.399,3.934-5.399,6c-2.5,2.534-5.25,4.851-8.25,6.95c-1.534,1.066-2.801,1.867-3.801,2.4
					c0.134-0.367,0.217-0.851,0.25-1.45c0.034-1.167-0.216-2.233-0.75-3.2c-0.633-1.066-1.433-1.649-2.399-1.75l-1.25,0.15
					l5.1-2.101c3.8-1.833,6.684-3.8,8.65-5.899c4.866-5.2,8.767-9.267,11.7-12.2l0.35-0.3
					C109.116,101.066,109.65,101.116,110.35,101.35z"/>
				<path style="fill-rule:evenodd;clip-rule:evenodd;fill:#762512;" d="M110.2,103.25c0.033-0.366-0.101-0.7-0.4-1l-0.399-0.35
					l0.399,0.1c0.334,0.134,0.684,0.35,1.05,0.65c0.4,0.333,0.601,0.933,0.601,1.8c-1.4,1.399-2.8,2.95-4.2,4.649
					c-0.434,0.534-1.333,1.7-2.7,3.5c-1.6,1.934-3.399,3.934-5.399,6c-2.5,2.534-5.25,4.851-8.25,6.95
					c-1.534,1.066-2.801,1.867-3.801,2.4c0.134-0.367,0.217-0.851,0.25-1.45l0.301-0.8c0.199-0.667,0.183-1.417-0.051-2.25
					l-0.35-1.05l0.6,0.75c0.467,0.466,0.95,0.699,1.45,0.699c0.5-0.033,1.316-0.416,2.45-1.149c0.1-0.066,1.116-0.8,3.05-2.2
					c0.834-0.566,2.2-1.816,4.101-3.75c1.933-2,3.066-3.167,3.399-3.5c0.4-0.4,1.184-1.366,2.351-2.9
					c1.399-1.866,2.149-2.85,2.25-2.949c0.866-0.9,1.533-1.617,2-2.15C109.733,104.25,110.167,103.583,110.2,103.25z"/>
				<path style="fill-rule:evenodd;clip-rule:evenodd;fill:#F88263;" d="M86.7,120.75c0.333-0.167,0.783-0.35,1.35-0.55
					c0.634-0.2,2-0.934,4.101-2.2c2.033-1.2,3.333-2.033,3.899-2.5c0.434-0.333,1.5-1.467,3.2-3.4c2.167-2.466,3.45-3.899,3.85-4.3
					c1.301-1.399,3-3.083,5.101-5.05l-4.95,5.7c-0.566,0.666-2.616,2.934-6.15,6.8c-0.6,0.667-1.416,1.366-2.449,2.1
					c-1.134,0.767-2.067,1.25-2.801,1.45c-0.666,0.2-1.783,0.617-3.35,1.25l-2.15,0.9L86.7,120.75z"/>
				<path style="fill-rule:evenodd;clip-rule:evenodd;fill:#762512;" d="M99.85,116.8l1.25-1.649
					c-1.066-0.567-1.767-1.101-2.1-1.601c-0.267-0.399-0.4-0.866-0.4-1.399l0.101-0.65l3.95,1.05l-0.301,1.7L99.85,116.8z"/>
				<path style="fill-rule:evenodd;clip-rule:evenodd;fill:#762512;" d="M106.3,106.25c-0.7,0.6-1.767,2.45-3.2,5.55
					c-0.118,0.237-0.576,0.779-1.375,1.625c0.386-0.458,0.511-0.85,0.375-1.175c-0.1-0.3-0.35-0.6-0.75-0.9
					c-0.399-0.267-0.767-0.416-1.1-0.449l-0.65-0.051c0.267-0.267,0.567-0.533,0.9-0.8c0.667-0.533,1.217-0.833,1.65-0.899
					c0.433-0.067,1.183-0.851,2.25-2.351c1.166-1.6,1.767-2.416,1.8-2.45c0.2-0.133,0.55-0.1,1.05,0.101
					c0.467,0.166,0.816,0.383,1.05,0.649c0.3,0.301,0.4,0.684,0.3,1.15c-0.199-0.134-0.449-0.233-0.75-0.3
					C107.283,105.783,106.767,105.884,106.3,106.25z"/>
				<path style="fill-rule:evenodd;clip-rule:evenodd;fill:#6D6E70;" d="M110.2,109.95l0.1,0.3c0.066,0.3,0.084,0.6,0.05,0.9
					c-0.1,0.466-0.3,0.666-0.6,0.6l-0.4,0.45l-0.199,0.3c-0.2,0.233-0.483,0.467-0.851,0.7c-0.033,0.033-0.217,0.1-0.55,0.2
					c-0.333,0.1-0.566,0.216-0.7,0.35c-0.233,0.2-0.35,0.4-0.35,0.6l-0.101-0.1l-0.699,1l-0.551,0.25l-1.55-1.5l0.5-1.1l-0.35-1.75
					L110.2,109.95z"/>
				
					<linearGradient id="SVGID_17_" gradientUnits="userSpaceOnUse" x1="142.9727" y1="-9.5977" x2="155.2324" y2="-9.5977" gradientTransform="matrix(0.6444 0.7647 -0.7647 0.6444 -4.158020e-004 2.455711e-004)">
					<stop  offset="0" style="stop-color:#303030"/>
					<stop  offset="1" style="stop-color:#919191"/>
				</linearGradient>
				<path style="fill-rule:evenodd;clip-rule:evenodd;fill:url(#SVGID_17_);" d="M102.45,111.55c0-0.3-0.134-0.55-0.4-0.75
					c-0.6-0.399-1.2-0.366-1.8,0.101c-0.233,0.233-0.333,0.483-0.3,0.75c0.033,0.3,0.166,0.533,0.399,0.699
					c0.267,0.167,0.567,0.25,0.9,0.25s0.616-0.116,0.85-0.35C102.333,112.05,102.45,111.816,102.45,111.55z M105.3,113.15
					c0.233-0.233,0.351-0.483,0.351-0.75c-0.034-0.267-0.167-0.5-0.4-0.7c-0.267-0.2-0.566-0.283-0.9-0.25
					c-0.333,0.033-0.633,0.149-0.899,0.35c-0.233,0.233-0.351,0.483-0.351,0.75c0.034,0.267,0.184,0.5,0.45,0.7
					c0.233,0.167,0.533,0.25,0.9,0.25C104.783,113.467,105.066,113.35,105.3,113.15z M108.3,110.5
					c-0.233-0.167-0.533-0.25-0.899-0.25c-0.334,0.033-0.617,0.15-0.851,0.35c-0.233,0.2-0.35,0.45-0.35,0.75
					c0,0.267,0.133,0.5,0.399,0.7c0.267,0.167,0.567,0.25,0.9,0.25c0.366-0.033,0.667-0.149,0.9-0.35
					C108.934,111.417,108.9,110.934,108.3,110.5z M109.5,107.9c-0.267-0.167-0.566-0.25-0.9-0.25
					c-0.333,0.033-0.633,0.149-0.899,0.35c-0.233,0.233-0.351,0.483-0.351,0.75c0.034,0.267,0.184,0.5,0.45,0.7
					s0.566,0.283,0.9,0.25c0.8-0.066,1.2-0.434,1.2-1.101C109.866,108.333,109.733,108.1,109.5,107.9z M108.05,105.45
					c-0.233-0.167-0.533-0.25-0.899-0.25c-0.334,0.033-0.617,0.149-0.851,0.35s-0.35,0.45-0.35,0.75c0,0.267,0.133,0.5,0.399,0.7
					c0.267,0.167,0.567,0.25,0.9,0.25c0.366-0.033,0.667-0.15,0.9-0.35c0.233-0.233,0.333-0.483,0.3-0.75
					C108.45,105.884,108.316,105.65,108.05,105.45z M99.7,105.3c1.166-1.2,2.566-1.833,4.2-1.899
					c1.666-0.101,3.149,0.383,4.449,1.449c1.233,1.067,1.884,2.301,1.95,3.7c0.066,1.367-0.467,2.55-1.6,3.55
					c-1.134,1.034-2.55,1.601-4.25,1.7c-1.7,0.066-3.167-0.35-4.4-1.25c-1.233-0.899-1.883-2.033-1.95-3.399
					C98.033,107.75,98.566,106.467,99.7,105.3z M100.6,108.35c-0.233-0.166-0.533-0.25-0.899-0.25
					c-0.334,0.034-0.617,0.15-0.851,0.351c-0.233,0.233-0.35,0.483-0.35,0.75c0.033,0.267,0.184,0.5,0.45,0.7
					c0.233,0.199,0.517,0.283,0.85,0.25c0.834-0.067,1.25-0.434,1.25-1.101C101.017,108.783,100.866,108.55,100.6,108.35z
					 M101,107.55c0.333,0,0.616-0.116,0.85-0.35c0.233-0.2,0.351-0.434,0.351-0.7c0-0.3-0.134-0.533-0.4-0.7
					c-0.233-0.2-0.533-0.283-0.899-0.25c-0.334,0-0.634,0.101-0.9,0.3c-0.233,0.233-0.333,0.483-0.3,0.75
					c0,0.301,0.133,0.534,0.399,0.7C100.366,107.5,100.667,107.583,101,107.55z M103.1,104.65c-0.233,0.233-0.35,0.483-0.35,0.75
					c0.033,0.267,0.167,0.5,0.4,0.699c0.267,0.2,0.566,0.284,0.899,0.25c0.834-0.066,1.25-0.433,1.25-1.1
					c-0.033-0.267-0.184-0.5-0.45-0.7c-0.233-0.166-0.533-0.25-0.899-0.25C103.616,104.333,103.333,104.45,103.1,104.65z"/>
				
					<linearGradient id="SVGID_18_" gradientUnits="userSpaceOnUse" x1="92.3721" y1="116.2832" x2="104.5391" y2="116.2832" gradientTransform="matrix(0.9987 -0.0514 0.0514 0.9987 2.879649e-005 2.939627e-005)">
					<stop  offset="0" style="stop-color:#CFCFCF"/>
					<stop  offset="0.5216" style="stop-color:#6E6E6E"/>
					<stop  offset="1" style="stop-color:#E0E0E0"/>
				</linearGradient>
				<path style="fill-rule:evenodd;clip-rule:evenodd;fill:url(#SVGID_18_);" d="M110.25,108.2l0.05,0.5
					c0.066,1.3-0.483,2.434-1.649,3.399c-1.134,0.967-2.534,1.483-4.2,1.551c-1.667,0.1-3.117-0.267-4.351-1.101
					c-1.233-0.866-1.883-1.934-1.949-3.2v-0.55c0.233,1.2,0.933,2.167,2.1,2.9c1.2,0.733,2.583,1.05,4.15,0.95
					c1.566-0.067,2.899-0.534,4-1.4C109.5,110.417,110.116,109.4,110.25,108.2z"/>
				<path style="fill-rule:evenodd;clip-rule:evenodd;fill:#F6F8FF;" d="M98.15,108.8c0.191,1.078,0.824,1.994,1.899,2.75
					c1.233,0.834,2.684,1.2,4.351,1.101c1.666-0.067,3.066-0.584,4.199-1.551c0.99-0.819,1.531-1.761,1.625-2.824
					c-0.075,1.132-0.583,2.141-1.524,3.024c-1.134,1.101-2.566,1.667-4.3,1.7c-1.834,0.033-3.351-0.417-4.551-1.35
					C98.888,110.862,98.321,109.912,98.15,108.8z"/>
				
					<linearGradient id="SVGID_19_" gradientUnits="userSpaceOnUse" x1="142.7363" y1="-9.832" x2="154.7112" y2="-9.832" gradientTransform="matrix(0.6451 0.7641 -0.7641 0.6451 9.745359e-005 3.076196e-004)">
					<stop  offset="0" style="stop-color:#8A8A8A"/>
					<stop  offset="1" style="stop-color:#E8E8E8"/>
				</linearGradient>
				<path style="fill-rule:evenodd;clip-rule:evenodd;fill:url(#SVGID_19_);" d="M102.1,111.55c0.534-0.533,0.5-1.017-0.1-1.45
					c-0.233-0.166-0.533-0.25-0.9-0.25c-0.333,0.034-0.616,0.15-0.85,0.351s-0.35,0.45-0.35,0.75c0,0.267,0.133,0.5,0.399,0.7
					c0.267,0.166,0.566,0.25,0.9,0.25C101.566,111.866,101.866,111.75,102.1,111.55z M105.6,111.7c0-0.267-0.133-0.5-0.399-0.7
					s-0.566-0.283-0.9-0.25c-0.366,0.033-0.666,0.15-0.899,0.35c-0.233,0.2-0.334,0.434-0.301,0.7c0,0.3,0.134,0.533,0.4,0.7
					c0.233,0.2,0.533,0.283,0.9,0.25c0.333,0,0.633-0.1,0.899-0.3C105.533,112.217,105.634,111.967,105.6,111.7z M108.3,109.8
					c-0.267-0.2-0.583-0.283-0.95-0.25c-0.333,0-0.616,0.117-0.85,0.351c-0.233,0.199-0.35,0.433-0.35,0.699
					c0,0.301,0.133,0.534,0.399,0.7c0.267,0.2,0.584,0.283,0.95,0.25c0.333,0,0.616-0.116,0.85-0.35
					c0.233-0.2,0.351-0.434,0.351-0.7C108.667,110.2,108.533,109.967,108.3,109.8z M108.45,105.45c-0.033-0.3-0.184-0.533-0.45-0.7
					c-0.233-0.2-0.533-0.283-0.9-0.25c-0.333,0-0.616,0.116-0.85,0.35c-0.233,0.2-0.35,0.434-0.35,0.7c0,0.3,0.133,0.533,0.399,0.7
					c0.601,0.434,1.2,0.417,1.8-0.05C108.333,105.967,108.45,105.717,108.45,105.45z M99.65,104.9c1.166-1.034,2.583-1.601,4.25-1.7
					c1.699-0.066,3.166,0.35,4.399,1.25c1.267,0.899,1.934,2.033,2,3.399c0.066,1.367-0.483,2.551-1.649,3.551
					c-1.134,1.033-2.551,1.583-4.25,1.649c-1.667,0.101-3.117-0.3-4.351-1.2c-1.267-0.899-1.934-2.033-2-3.399
					C97.983,107.116,98.517,105.934,99.65,104.9z M101,108.35c-0.033-0.267-0.167-0.5-0.4-0.699c-0.267-0.2-0.566-0.284-0.899-0.25
					c-0.367,0.033-0.667,0.149-0.9,0.35s-0.35,0.45-0.35,0.75c0.033,0.267,0.184,0.5,0.45,0.7c0.233,0.166,0.533,0.25,0.899,0.25
					c0.334-0.033,0.617-0.15,0.851-0.351C100.884,108.866,101,108.616,101,108.35z M101.75,105.05c-0.6-0.399-1.2-0.366-1.8,0.101
					c-0.233,0.199-0.334,0.449-0.3,0.75c0.033,0.267,0.166,0.5,0.399,0.699c0.267,0.167,0.566,0.25,0.9,0.25
					c0.366-0.033,0.666-0.149,0.899-0.35c0.233-0.233,0.334-0.483,0.301-0.75C102.15,105.483,102.017,105.25,101.75,105.05z
					 M103.95,103.6c-0.834,0.067-1.25,0.434-1.25,1.101c0.033,0.267,0.184,0.5,0.45,0.7c0.233,0.166,0.533,0.25,0.899,0.25
					c0.334-0.034,0.617-0.15,0.851-0.351c0.233-0.233,0.35-0.483,0.35-0.75c-0.033-0.267-0.167-0.5-0.4-0.7
					C104.583,103.65,104.283,103.566,103.95,103.6z M109.55,108.65c0.233-0.233,0.334-0.483,0.3-0.75
					c-0.033-0.267-0.166-0.5-0.399-0.7c-0.267-0.2-0.566-0.283-0.9-0.25c-0.366,0.033-0.666,0.149-0.899,0.35
					s-0.334,0.45-0.301,0.75c0,0.267,0.134,0.5,0.4,0.7c0.233,0.167,0.533,0.25,0.9,0.25
					C109.017,108.967,109.316,108.85,109.55,108.65z"/>
				<path style="fill-rule:evenodd;clip-rule:evenodd;fill:#858585;" d="M107.2,107.25c-0.033,0.5-0.316,0.934-0.851,1.3
					c-0.533,0.334-1.183,0.517-1.949,0.55c-0.733,0-1.351-0.166-1.851-0.5c-0.5-0.366-0.733-0.8-0.7-1.3
					c0.067-0.5,0.367-0.934,0.9-1.3s1.167-0.55,1.9-0.55s1.35,0.184,1.85,0.55C107,106.333,107.233,106.75,107.2,107.25z"/>
				
					<radialGradient id="SVGID_20_" cx="145.9414" cy="-43.6826" r="3.4606" gradientTransform="matrix(0.4587 0.8886 0.8633 -0.5707 74.3627 -49.1602)" gradientUnits="userSpaceOnUse">
					<stop  offset="0" style="stop-color:#E0E0E0"/>
					<stop  offset="1" style="stop-color:#757575"/>
				</radialGradient>
				<path style="fill-rule:evenodd;clip-rule:evenodd;fill:url(#SVGID_20_);" d="M106.45,106.65c-0.033,0.533-0.3,0.983-0.8,1.35
					c-0.467,0.366-1.034,0.55-1.7,0.55c-0.667,0-1.217-0.184-1.65-0.55c-0.434-0.333-0.633-0.767-0.6-1.3
					c0.066-0.5,0.333-0.934,0.8-1.3c0.5-0.367,1.066-0.567,1.7-0.601c0.666,0,1.217,0.184,1.649,0.55
					C106.316,105.717,106.517,106.15,106.45,106.65z"/>
				
					<radialGradient id="SVGID_21_" cx="146.0986" cy="-43.9438" r="2.1541" gradientTransform="matrix(0.4588 0.8885 0.8653 -0.5749 74.8483 -49.7311)" gradientUnits="userSpaceOnUse">
					<stop  offset="0" style="stop-color:#7F7F7F"/>
					<stop  offset="1" style="stop-color:#A6A6A6"/>
				</radialGradient>
				<path style="fill-rule:evenodd;clip-rule:evenodd;fill:url(#SVGID_21_);" d="M104.15,105.15c0.3-0.134,0.6-0.184,0.899-0.15
					c0.134,0,0.25,0.017,0.351,0.05l0.449,0.3c-0.133,0-0.3,0.034-0.5,0.101c-0.366,0.1-0.733,0.267-1.1,0.5
					c-0.434,0.267-0.816,0.649-1.15,1.149l-0.6-0.5c0.1-0.166,0.25-0.35,0.45-0.55C103.35,105.616,103.75,105.316,104.15,105.15z"/>
				<path style="fill-rule:evenodd;clip-rule:evenodd;fill:#E3E4E6;" d="M103.3,105.2c0.334-0.101,0.517-0.134,0.55-0.101l-0.6,0.4
					l-1.05,0.9c-0.033-0.167-0.017-0.317,0.05-0.45C102.45,105.55,102.8,105.3,103.3,105.2z"/>
				<path style="fill-rule:evenodd;clip-rule:evenodd;fill:#E3E4E6;" d="M105.5,105.65c0.267-0.067,0.4,0.033,0.4,0.3l-1.101,0.399
					l-1.25,0.7c0.2-0.333,0.467-0.616,0.8-0.85c0.2-0.167,0.45-0.3,0.75-0.4C105.267,105.733,105.4,105.684,105.5,105.65z"/>
			</g>
		</g>
		
			<use xlink:href="#FlashAICB_x2F_Layer_1_x2F__x3C_Path_x3E_"  width="128.6" height="61.9" y="-61.9" transform="matrix(1 0 0 -1 21.5498 85.9502)" style="overflow:visible;opacity:0.3398;enable-background:new    ;"/>
		<g>
			
				<use xlink:href="#FlashAICB_x2F_Layer_1_x2F__x3C_Path_x3E__x5F_1_x5F_0"  width="119.2" height="60.45" y="-60.45" transform="matrix(1 0 0 -1 26.25 22.25)" style="overflow:visible;opacity:0.1992;enable-background:new    ;"/>
			
				<use xlink:href="#FlashAICB_x2F_Layer_1_x2F__x3C_Path_x3E__x5F_0"  width="119.2" height="66.417" y="-66.417" transform="matrix(1 0 0 -1 26.25 22.25)" style="overflow:visible;opacity:0.0781;enable-background:new    ;"/>
		</g>
	</g>
</g>
</svg>
