<?xml version="1.0" encoding="iso-8859-1"?>
<!-- Generator: Adobe Illustrator 15.1.0, SVG Export Plug-In . SVG Version: 6.00 Build 0)  -->
<!DOCTYPE svg PUBLIC "-//W3C//DTD SVG 1.1//EN" "http://www.w3.org/Graphics/SVG/1.1/DTD/svg11.dtd">
<svg version="1.1" id="Layer_1" xmlns="http://www.w3.org/2000/svg" xmlns:xlink="http://www.w3.org/1999/xlink" x="0px" y="0px"
	 width="171.75px" height="171.75px" viewBox="0 0 171.75 171.75" style="enable-background:new 0 0 171.75 171.75;"
	 xml:space="preserve">
<symbol  id="FlashAICB_x2F_Layer_1_x2F__x3C_Clip_Group_0_x3E_" viewBox="0 -26.5 24.2 26.5">
	<g id="Layer_1_9_">
	</g>
	<g>
		<defs>
			<polygon id="SVGID_1_" points="16.7,-4.05 6.9,-10.65 7.55,-22.45 17.3,-15.85 			"/>
		</defs>
		<clipPath id="SVGID_2_">
			<use xlink:href="#SVGID_1_"  style="overflow:visible;"/>
		</clipPath>
		<g id="Layer_3_7_" style="clip-path:url(#SVGID_2_);">
			<linearGradient id="SVGID_3_" gradientUnits="userSpaceOnUse" x1="6.376" y1="-10.6479" x2="16.526" y2="-15.2479">
				<stop  offset="0" style="stop-color:#2961DB"/>
				<stop  offset="1" style="stop-color:#38A1FE"/>
			</linearGradient>
			<polygon style="fill-rule:evenodd;clip-rule:evenodd;fill:url(#SVGID_3_);" points="8.9,0 24.2,-6.95 15.35,-26.5 0,-19.55 			
				"/>
		</g>
	</g>
	<g id="Layer_4_7_">
	</g>
</symbol>
<symbol  id="FlashAICB_x2F_Layer_1_x2F__x3C_Clip_Group_0_x3E__x5F_1" viewBox="0 -26.4 28.55 26.4">
	<g id="Layer_1_8_">
	</g>
	<g>
		<defs>
			<polygon id="SVGID_4_" points="14.25,-7.45 14,-7.35 4.3,-13.4 14.5,-18.9 14.55,-19.05 14.65,-19 14.75,-19.05 14.75,-18.9 
				24.3,-12.3 			"/>
		</defs>
		<clipPath id="SVGID_5_">
			<use xlink:href="#SVGID_4_"  style="overflow:visible;"/>
		</clipPath>
		<g id="Layer_3_6_" style="clip-path:url(#SVGID_5_);">
			<linearGradient id="SVGID_6_" gradientUnits="userSpaceOnUse" x1="11.7544" y1="-18.5029" x2="16.8044" y2="-7.8779">
				<stop  offset="0" style="stop-color:#2961DB"/>
				<stop  offset="1" style="stop-color:#3BAEFE"/>
			</linearGradient>
			<polygon style="fill-rule:evenodd;clip-rule:evenodd;fill:url(#SVGID_6_);" points="0,-16.6 7.9,0 28.55,-9.8 20.65,-26.4 			"/>
		</g>
	</g>
	<g id="Layer_4_6_">
	</g>
</symbol>
<symbol  id="FlashAICB_x2F_Layer_1_x2F__x3C_Clip_Group_0_x3E__x5F_2" viewBox="0 -18.6 14.65 18.6">
	<g id="Layer_1_7_">
	</g>
	<g>
		<defs>
			<polygon id="SVGID_7_" points="12.2,-6.15 1.75,-0.65 2.4,-12.45 12.85,-17.95 			"/>
		</defs>
		<clipPath id="SVGID_8_">
			<use xlink:href="#SVGID_7_"  style="overflow:visible;"/>
		</clipPath>
		<g id="Layer_3_5_" style="clip-path:url(#SVGID_8_);">
			<linearGradient id="SVGID_9_" gradientUnits="userSpaceOnUse" x1="2.2612" y1="-9.5527" x2="12.3362" y2="-9.0027">
				<stop  offset="0" style="stop-color:#2961DB"/>
				<stop  offset="1" style="stop-color:#38A1FE"/>
			</linearGradient>
			<polygon style="fill-rule:evenodd;clip-rule:evenodd;fill:url(#SVGID_9_);" points="0,-0.7 13.65,0 14.65,-17.85 0.95,-18.6 			
				"/>
		</g>
	</g>
	<g id="Layer_4_5_">
	</g>
</symbol>
<symbol  id="FlashAICB_x2F_Layer_1_x2F__x3C_Clip_Group_0_x3E__x5F_3" viewBox="0 -21.8 21.85 21.8">
	<g id="Layer_1_6_">
	</g>
	<g>
		<defs>
			<path id="SVGID_10_" d="M18.65-3.95c-1.9,2.1-4.283,3.233-7.15,3.4C8.633-0.383,6.133-1.25,4-3.15
				c-2.133-1.934-3.283-4.333-3.45-7.2c-0.133-2.867,0.75-5.367,2.65-7.5c1.933-2.133,4.333-3.267,7.2-3.4
				c2.867-0.167,5.367,0.717,7.5,2.65c2.133,1.9,3.267,4.283,3.4,7.15C21.467-8.583,20.583-6.083,18.65-3.95z"/>
		</defs>
		<clipPath id="SVGID_11_">
			<use xlink:href="#SVGID_10_"  style="overflow:visible;"/>
		</clipPath>
		<g id="Layer_3_4_" style="clip-path:url(#SVGID_11_);">
			<radialGradient id="SVGID_12_" cx="11.3501" cy="-4.0498" r="16.7236" gradientUnits="userSpaceOnUse">
				<stop  offset="0" style="stop-color:#3DFD18"/>
				<stop  offset="1" style="stop-color:#1E8E0E"/>
			</radialGradient>
			<polygon style="fill-rule:evenodd;clip-rule:evenodd;fill:url(#SVGID_12_);" points="21.85,-1.1 20.75,-21.8 0,-20.7 1.1,0 			
				"/>
		</g>
	</g>
	<g id="Layer_4_4_">
	</g>
</symbol>
<symbol  id="FlashAICB_x2F_Layer_1_x2F__x3C_Clip_Group_0_x3E__x5F_4" viewBox="0 -49.65 49.45 49.65">
	<g id="Layer_1_5_">
	</g>
	<g>
		<defs>
			<path id="SVGID_13_" d="M36.55-11.75c-0.2-1.567-0.667-3.333-1.4-5.3c-1.467-3.967-3.566-6.934-6.3-8.9
				c-2.7-1.966-5.767-2.833-9.2-2.6L15.3-27.6l-3.5-4.3l5.05-6.25l0.5,3.85c0.233,0.3,0.7,0.683,1.4,1.15
				c1.467,0.9,3.467,1.783,6,2.65c2.9,1,4.967,1.883,6.2,2.65c1.033,0.667,2.283,1.817,3.75,3.45c1.133,1.3,1.783,3.8,1.95,7.5
				C36.75-15.067,36.717-13.35,36.55-11.75z"/>
		</defs>
		<clipPath id="SVGID_14_">
			<use xlink:href="#SVGID_13_"  style="overflow:visible;"/>
		</clipPath>
		<g id="Layer_3_3_" style="clip-path:url(#SVGID_14_);">
			<linearGradient id="SVGID_15_" gradientUnits="userSpaceOnUse" x1="19.3145" y1="-27.9316" x2="29.7645" y2="-21.9316">
				<stop  offset="0" style="stop-color:#338DF3"/>
				<stop  offset="1" style="stop-color:#F70945"/>
			</linearGradient>
			<polygon style="fill-rule:evenodd;clip-rule:evenodd;fill:url(#SVGID_15_);" points="31.2,0 49.45,-31.75 18.25,-49.65 0,-17.9 
							"/>
		</g>
	</g>
	<g id="Layer_4_3_">
	</g>
</symbol>
<symbol  id="FlashAICB_x2F_Layer_1_x2F__x3C_Clip_Group_0_x3E__x5F_5" viewBox="0 -25.5 32.55 25.5">
	<g id="Layer_1_4_">
	</g>
	<g>
		<defs>
			<path id="SVGID_16_" d="M30.5-23.7c-1.167,0.467-2.217,0.983-3.15,1.55c-2.4,1.5-5.667,4.017-9.8,7.55
				C13.483-11.167,10-7.733,7.1-4.3C5.633-2.567,4.583-1.183,3.95-0.15l-3.1-7.6C1.45-7.783,2.333-8.033,3.5-8.5
				c2.3-0.933,4.817-2.467,7.55-4.6c4.4-3.4,8.6-6.9,12.6-10.5l7.65-1.9C31.367-24.5,31.1-23.9,30.5-23.7z"/>
		</defs>
		<clipPath id="SVGID_17_">
			<use xlink:href="#SVGID_16_"  style="overflow:visible;"/>
		</clipPath>
		<g id="Layer_3_2_" style="clip-path:url(#SVGID_17_);">
			<linearGradient id="SVGID_18_" gradientUnits="userSpaceOnUse" x1="16.604" y1="-6.4751" x2="15.904" y2="-19.8251">
				<stop  offset="0" style="stop-color:#20950E"/>
				<stop  offset="1" style="stop-color:#F70945"/>
			</linearGradient>
			<polygon style="fill-rule:evenodd;clip-rule:evenodd;fill:url(#SVGID_18_);" points="32.55,-1.65 31.3,-25.5 0,-23.85 1.25,0 			
				"/>
		</g>
	</g>
	<g id="Layer_4_2_">
	</g>
</symbol>
<symbol  id="FlashAICB_x2F_Layer_1_x2F__x3C_Clip_Group_0_x3E__x5F_6" viewBox="0 -37.4 15.65 37.4">
	<g id="Layer_1_3_">
	</g>
	<g>
		<defs>
			<path id="SVGID_19_" d="M9.6-18.95c0.533,4.967,1.517,9,2.95,12.1c0.733,1.567,1.417,2.633,2.05,3.2L5.2-0.2
				c0.433-2.066,0.833-4.566,1.2-7.5c0.667-5.9,0.767-11.083,0.3-15.55c-0.5-4.467-1.767-8.033-3.8-10.7
				c-1-1.367-1.967-2.267-2.9-2.7l13.7-0.45c-0.9,1.033-1.733,2.567-2.5,4.6C9.6-28.433,9.067-23.917,9.6-18.95z"/>
		</defs>
		<clipPath id="SVGID_20_">
			<use xlink:href="#SVGID_19_"  style="overflow:visible;"/>
		</clipPath>
		<g id="Layer_3_1_" style="clip-path:url(#SVGID_20_);">
			<linearGradient id="SVGID_21_" gradientUnits="userSpaceOnUse" x1="8.3433" y1="-9.0371" x2="7.2433" y2="-29.5621">
				<stop  offset="0" style="stop-color:#20950E"/>
				<stop  offset="1" style="stop-color:#379EF7"/>
			</linearGradient>
			<polygon style="fill-rule:evenodd;clip-rule:evenodd;fill:url(#SVGID_21_);" points="15.65,-0.75 13.7,-37.4 0,-36.65 1.95,0 			
				"/>
		</g>
	</g>
	<g id="Layer_4_1_">
	</g>
</symbol>
<symbol  id="FlashAICB_x2F_Layer_1_x2F__x3C_Path_x3E_" viewBox="0 -61.9 128.6 61.9">
	<g id="Layer_1_2_">
		
			<radialGradient id="SVGID_22_" cx="64.2998" cy="-30.9502" r="50.4599" gradientTransform="matrix(1 0 0 -1 0 -61.9004)" gradientUnits="userSpaceOnUse">
			<stop  offset="0" style="stop-color:#CCEFE7;stop-opacity:0"/>
			<stop  offset="0.0784" style="stop-color:#C9E7DC;stop-opacity:0.0392"/>
			<stop  offset="0.2118" style="stop-color:#C1D1C0;stop-opacity:0.1451"/>
			<stop  offset="0.3882" style="stop-color:#B5AE93;stop-opacity:0.3216"/>
			<stop  offset="0.5961" style="stop-color:#A67D55;stop-opacity:0.5647"/>
			<stop  offset="0.651" style="stop-color:#A17045;stop-opacity:0.6275"/>
		</radialGradient>
		<path style="fill-rule:evenodd;clip-rule:evenodd;fill:url(#SVGID_22_);" d="M128.05-0.25L128.6,0
			c-0.633-17.233-7.167-31.85-19.6-43.85C96.5-55.883,81.583-61.9,64.25-61.9c-17.033,0-31.733,5.816-44.1,17.45
			C7.783-32.85,1.067-18.633,0-1.8c4.967-13,13.183-23.517,24.65-31.55c11.7-8.2,24.733-12.3,39.1-12.3
			c14.633,0,27.883,4.267,39.75,12.8C115.1-24.517,123.283-13.65,128.05-0.25z"/>
	</g>
</symbol>
<symbol  id="FlashAICB_x2F_Layer_1_x2F__x3C_Path_x3E__x5F_0" viewBox="0 -66.434 119.2 66.434">
	<g id="Layer_1_11_">
		<path style="fill-rule:evenodd;clip-rule:evenodd;fill:#FFFFFF;" d="M115.4-37.25c2.533-6.1,3.8-11.85,3.8-17.25
			c0-5.367-1.567-8.75-4.7-10.15c-2.533-1.133-6.783-1.117-12.75,0.05c-7.867,1.9-14.183,3.367-18.95,4.4
			c-8.667,1.833-16.4,2.75-23.2,2.75c-6.833,0-14.567-1-23.2-3c-9.033-2.367-15.35-3.966-18.95-4.8c-6-1.367-10.25-1.55-12.75-0.55
			C1.567-64.533,0-61.217,0-55.85c0,5.934,1.267,12.067,3.8,18.4c2.7,6.7,6.467,12.75,11.3,18.15C26.733-6.433,41.567,0,59.6,0
			c17.833,0,32.65-6.5,44.45-19.5C108.883-24.833,112.667-30.75,115.4-37.25z"/>
	</g>
</symbol>
<symbol  id="FlashAICB_x2F_Layer_1_x2F__x3C_Path_x3E__x5F_1" viewBox="0 -60.45 119.2 60.45">
	<g id="Layer_1_10_">
		
			<linearGradient id="SVGID_23_" gradientUnits="userSpaceOnUse" x1="16160.585" y1="-58.4668" x2="16220.9766" y2="-58.4668" gradientTransform="matrix(1.654944e-005 1 -1 -0.001 0.8657 -16221.1064)">
			<stop  offset="0.1294" style="stop-color:#E2B8B2"/>
			<stop  offset="0.9255" style="stop-color:#FFFFFF"/>
		</linearGradient>
		<path style="fill-rule:evenodd;clip-rule:evenodd;fill:url(#SVGID_23_);" d="M104.05-19.5c4.833-5.333,8.617-11.25,11.35-17.75
			c2.533-6.1,3.8-11.85,3.8-17.25c0-1.933-0.167-3.55-0.5-4.85c-2,12-7.85,22.65-17.55,31.95c-11.433,11-25.283,16.5-41.55,16.5
			c-16.5,0-30.4-5.483-41.7-16.45c-9.767-9.467-15.566-20.5-17.4-33.1c-0.333,1.2-0.5,2.733-0.5,4.6c0,5.934,1.267,12.067,3.8,18.4
			c2.7,6.7,6.467,12.75,11.3,18.15C26.733-6.433,41.567,0,59.6,0C77.433,0,92.25-6.5,104.05-19.5z"/>
	</g>
</symbol>
<g>
	<path style="fill-rule:evenodd;clip-rule:evenodd;fill:#FFFFFF;" d="M146.55,25.15c7.934,7.934,14.084,17.033,18.45,27.3
		c4.5,10.633,6.75,21.767,6.75,33.4s-2.25,22.766-6.75,33.4c-4.366,10.3-10.517,19.417-18.45,27.35
		c-7.934,7.9-17.033,14.034-27.3,18.4c-10.634,4.5-21.767,6.75-33.4,6.75c-11.633,0-22.766-2.25-33.399-6.75
		c-10.267-4.366-19.367-10.5-27.3-18.4c-7.9-7.933-14.033-17.05-18.4-27.35C2.25,108.616,0,97.483,0,85.85s2.25-22.767,6.75-33.4
		c4.367-10.267,10.5-19.367,18.4-27.3c7.934-7.9,17.033-14.033,27.3-18.4C63.083,2.25,74.217,0,85.85,0
		c11.634,0,22.767,2.25,33.4,6.75C129.517,11.117,138.616,17.25,146.55,25.15z"/>
	<g>
		<g>
			
				<linearGradient id="SVGID_24_" gradientUnits="userSpaceOnUse" x1="-157.6851" y1="85.8506" x2="-14.2354" y2="85.8506" gradientTransform="matrix(6.973501e-006 -1 1 -0.001 -1.064519e-004 4.449275e-004)">
				<stop  offset="0" style="stop-color:#B1812F"/>
				<stop  offset="0.2863" style="stop-color:#C89A33"/>
				<stop  offset="0.6745" style="stop-color:#EDC13A"/>
				<stop  offset="0.9647" style="stop-color:#D7E989"/>
			</linearGradient>
			<path style="fill-rule:evenodd;clip-rule:evenodd;fill:url(#SVGID_24_);" d="M151.9,113.75c-3.634,8.566-8.75,16.167-15.351,22.8
				c-6.633,6.634-14.233,11.767-22.8,15.4c-8.9,3.767-18.2,5.649-27.9,5.649c-9.7,0-19-1.883-27.899-5.649
				c-8.567-3.634-16.167-8.767-22.8-15.4c-6.6-6.633-11.717-14.233-15.35-22.8c-3.767-8.9-5.65-18.2-5.65-27.9
				c0-9.7,1.883-18.983,5.65-27.85c3.633-8.6,8.75-16.2,15.35-22.8c14.033-14.034,30.934-21.05,50.7-21.05
				c19.767,0,36.667,7.017,50.7,21.05c6.601,6.6,11.717,14.2,15.351,22.8c3.767,8.867,5.649,18.15,5.649,27.85
				C157.55,95.55,155.667,104.85,151.9,113.75z"/>
			<path style="fill-rule:evenodd;clip-rule:evenodd;fill:#613D18;" d="M151.1,113.45c3.7-8.767,5.551-17.967,5.551-27.6
				c0-9.6-1.851-18.783-5.551-27.55c-3.6-8.466-8.666-15.966-15.199-22.5c-6.534-6.533-14.034-11.6-22.5-15.2
				c-8.767-3.7-17.95-5.55-27.551-5.55c-19.533,0-36.216,6.917-50.05,20.75C21.967,49.633,15.05,66.317,15.05,85.85
				c0,19.567,6.917,36.266,20.75,50.1c6.534,6.533,14.034,11.6,22.5,15.2c8.767,3.699,17.95,5.55,27.55,5.55
				c19.567,0,36.25-6.917,50.051-20.75C142.434,129.417,147.5,121.917,151.1,113.45z M158.45,85.85c0,9.7-1.834,18.966-5.5,27.8
				c-3.634,8.866-8.884,16.716-15.75,23.55c-6.834,6.866-14.684,12.133-23.55,15.8c-8.834,3.667-18.101,5.5-27.801,5.5
				c-9.7,0-18.966-1.833-27.8-5.5c-8.867-3.667-16.716-8.934-23.55-15.8c-6.833-6.834-12.083-14.684-15.75-23.55
				c-3.667-8.834-5.5-18.101-5.5-27.8c0-9.7,1.833-18.967,5.5-27.8c3.633-8.8,8.883-16.633,15.75-23.5
				c6.833-6.867,14.683-12.133,23.55-15.8c8.833-3.667,18.1-5.5,27.8-5.5c9.7,0,18.967,1.833,27.801,5.5
				c8.866,3.667,16.716,8.933,23.55,15.8c6.866,6.867,12.116,14.7,15.75,23.5C156.616,66.883,158.45,76.15,158.45,85.85z"/>
		</g>
		
			<radialGradient id="SVGID_25_" cx="85.8496" cy="83.5498" r="64.3501" gradientTransform="matrix(1 0 0 -1 0 167.0996)" gradientUnits="userSpaceOnUse">
			<stop  offset="0.0353" style="stop-color:#DEEA89"/>
			<stop  offset="0.302" style="stop-color:#DEE986;stop-opacity:0.9922"/>
			<stop  offset="0.4627" style="stop-color:#E0E57E;stop-opacity:0.9804"/>
			<stop  offset="0.5922" style="stop-color:#E2DE71;stop-opacity:0.9529"/>
			<stop  offset="0.7098" style="stop-color:#E6D45D;stop-opacity:0.9176"/>
			<stop  offset="0.8118" style="stop-color:#EAC845;stop-opacity:0.8706"/>
			<stop  offset="0.8706" style="stop-color:#EDBF35;stop-opacity:0.8392"/>
		</radialGradient>
		<path style="fill-rule:evenodd;clip-rule:evenodd;fill:url(#SVGID_25_);" d="M131.4,38.1c12.566,12.533,18.85,27.683,18.85,45.45
			s-6.283,32.917-18.85,45.45c-12.567,12.566-27.75,18.85-45.551,18.85c-17.766,0-32.95-6.283-45.55-18.85
			c-12.566-12.533-18.85-27.684-18.85-45.45c0-17.733,6.283-32.883,18.85-45.45c12.6-12.567,27.784-18.85,45.55-18.85
			C103.65,19.25,118.833,25.533,131.4,38.1z"/>
		
			<use xlink:href="#FlashAICB_x2F_Layer_1_x2F__x3C_Path_x3E_"  width="128.6" height="61.9" y="-61.9" transform="matrix(1 0 0 -1 21.5498 85.9502)" style="overflow:visible;opacity:0.2813;enable-background:new    ;"/>
		<g>
			<g>
				<path style="fill-rule:evenodd;clip-rule:evenodd;fill:#ECF8BD;" d="M86.9,46.3c-0.434,0.4-0.983,0.6-1.65,0.6H84.7v2.8
					c0,1.7-0.8,2.55-2.4,2.55c-0.833,0-1.433-0.2-1.8-0.6s-0.55-1.05-0.55-1.95v-2.8h-8c-0.733,0-1.317-0.217-1.75-0.65
					c-0.367-0.367-0.55-0.8-0.55-1.3c0-0.367,0.15-0.85,0.45-1.45l7.4-13.4c0.367-0.667,0.817-1.15,1.35-1.45
					c0.5-0.3,1.183-0.45,2.05-0.45c1.067,0,1.934,0.333,2.6,1c0.8,0.733,1.2,1.8,1.2,3.2v10.15h0.55c0.667,0,1.217,0.2,1.65,0.6
					c0.433,0.4,0.649,0.917,0.649,1.55C87.55,45.367,87.333,45.9,86.9,46.3z M79.85,33.35l-4.45,9.2h4.55v-9.2H79.85z"/>
				<path style="fill-rule:evenodd;clip-rule:evenodd;fill:#ECF8BD;" d="M91.15,33.15c-0.733,0-1.301-0.233-1.7-0.7
					c-0.367-0.434-0.55-0.967-0.55-1.6c0-0.6,0.199-1.117,0.6-1.55c0.434-0.466,0.983-0.7,1.65-0.7h4.699
					c0.667,0,1.217,0.217,1.65,0.65c0.366,0.433,0.55,0.983,0.55,1.65v18.8c0,0.8-0.233,1.433-0.7,1.9
					c-0.466,0.433-1.066,0.65-1.8,0.65s-1.316-0.217-1.75-0.65c-0.467-0.467-0.7-1.1-0.7-1.9V33.15H91.15z"/>
			</g>
			<g>
				
					<linearGradient id="SVGID_26_" gradientUnits="userSpaceOnUse" x1="-51.3662" y1="78.6025" x2="-27.3149" y2="78.6025" gradientTransform="matrix(4.153687e-005 -1 1 -0.001 -1.746836e-004 4.449275e-004)">
					<stop  offset="0.1529" style="stop-color:#4A2805"/>
					<stop  offset="0.2471" style="stop-color:#502905"/>
					<stop  offset="0.3765" style="stop-color:#632B07"/>
					<stop  offset="0.5333" style="stop-color:#80300B"/>
					<stop  offset="0.7059" style="stop-color:#AA3510"/>
					<stop  offset="0.8902" style="stop-color:#DF3C16"/>
					<stop  offset="0.8941" style="stop-color:#E03C16"/>
				</linearGradient>
				<path style="fill-rule:evenodd;clip-rule:evenodd;fill:url(#SVGID_26_);" d="M84.7,45.9v2.8c0,1.7-0.8,2.55-2.4,2.55
					c-0.833,0-1.433-0.2-1.8-0.6s-0.55-1.05-0.55-1.95v-2.8h-8c-0.733,0-1.317-0.217-1.75-0.65c-0.367-0.367-0.55-0.8-0.55-1.3
					c0-0.367,0.15-0.85,0.45-1.45l7.4-13.4c0.367-0.667,0.817-1.15,1.35-1.45c0.5-0.3,1.183-0.45,2.05-0.45
					c1.067,0,1.934,0.333,2.6,1c0.8,0.733,1.2,1.8,1.2,3.2v10.15h0.55c0.667,0,1.217,0.2,1.65,0.6c0.433,0.4,0.649,0.917,0.649,1.55
					c0,0.667-0.217,1.2-0.649,1.6c-0.434,0.4-0.983,0.6-1.65,0.6H84.7z M79.85,32.35l-4.45,9.2h4.55v-9.2H79.85z"/>
				
					<linearGradient id="SVGID_27_" gradientUnits="userSpaceOnUse" x1="-51.3442" y1="93.4775" x2="-27.6899" y2="93.4775" gradientTransform="matrix(4.223865e-005 -1 1 -0.001 1.435880e-004 4.449275e-004)">
					<stop  offset="0.1529" style="stop-color:#4A2805"/>
					<stop  offset="0.2471" style="stop-color:#502905"/>
					<stop  offset="0.3765" style="stop-color:#632B07"/>
					<stop  offset="0.5333" style="stop-color:#80300B"/>
					<stop  offset="0.7059" style="stop-color:#AA3510"/>
					<stop  offset="0.8902" style="stop-color:#DF3C16"/>
					<stop  offset="0.8941" style="stop-color:#E03C16"/>
				</linearGradient>
				<path style="fill-rule:evenodd;clip-rule:evenodd;fill:url(#SVGID_27_);" d="M91.15,32.15c-0.733,0-1.301-0.233-1.7-0.7
					c-0.367-0.434-0.55-0.967-0.55-1.6c0-0.6,0.199-1.117,0.6-1.55c0.434-0.466,0.983-0.7,1.65-0.7h4.699
					c0.667,0,1.217,0.217,1.65,0.65c0.366,0.433,0.55,0.983,0.55,1.65v18.8c0,0.8-0.233,1.433-0.7,1.9
					c-0.466,0.433-1.066,0.65-1.8,0.65s-1.316-0.217-1.75-0.65c-0.467-0.467-0.7-1.1-0.7-1.9V32.15H91.15z"/>
			</g>
		</g>
		<g>
			<g>
				<g>
					<g>
						<g>
							<g>
								<g>
									
										<linearGradient id="SVGID_28_" gradientUnits="userSpaceOnUse" x1="-80.9478" y1="122.7832" x2="-59.9819" y2="122.7832" gradientTransform="matrix(4.773270e-005 -1 1 -0.001 2.399772e-004 4.439838e-004)">
										<stop  offset="0.1098" style="stop-color:#C39616"/>
										<stop  offset="0.9647" style="stop-color:#DEEA89"/>
									</linearGradient>
									<path style="fill-rule:evenodd;clip-rule:evenodd;fill:url(#SVGID_28_);" d="M114.3,67.05l1.2-0.9V64.7
										c-0.033-0.934,0.184-1.784,0.65-2.55c0.466-0.767,1.116-1.367,1.949-1.8c0.767-0.4,1.634-0.567,2.601-0.5
										c0.967,0.066,1.8,0.367,2.5,0.9l1.2,0.9l1.399-0.5c0.834-0.267,1.717-0.283,2.65-0.05c0.899,0.2,1.666,0.617,2.3,1.25
										s1.066,1.4,1.3,2.3c0.2,0.867,0.15,1.733-0.149,2.6l-0.5,1.45l0.899,1.2c0.566,0.733,0.9,1.55,1,2.45
										c0.066,0.9-0.116,1.767-0.55,2.6c-0.9,1.767-2.333,2.65-4.3,2.65l-1.55-0.05l-0.851,1.25c-0.967,1.333-2.283,2-3.95,2
										l-0.75-0.05c-1.033-0.167-1.916-0.617-2.649-1.35c-0.533-0.533-0.934-1.2-1.2-2l-0.45-1.4l-1.399-0.45
										c-0.634-0.167-1.284-0.55-1.95-1.15c-0.7-0.7-1.167-1.6-1.4-2.7c-0.133-0.9-0.017-1.767,0.351-2.6
										C113.017,68.267,113.566,67.583,114.3,67.05z"/>
									<path style="fill-rule:evenodd;clip-rule:evenodd;fill:none;stroke:#ECF8BD;stroke-width:0.25;" d="M114.3,67.05l1.2-0.9
										V64.7c-0.033-0.934,0.184-1.784,0.65-2.55c0.466-0.767,1.116-1.367,1.949-1.8c0.767-0.4,1.634-0.567,2.601-0.5
										c0.967,0.066,1.8,0.367,2.5,0.9l1.2,0.9l1.399-0.5c0.834-0.267,1.717-0.283,2.65-0.05c0.899,0.2,1.666,0.617,2.3,1.25
										s1.066,1.4,1.3,2.3c0.2,0.867,0.15,1.733-0.149,2.6l-0.5,1.45l0.899,1.2c0.566,0.733,0.9,1.55,1,2.45
										c0.066,0.9-0.116,1.767-0.55,2.6c-0.9,1.767-2.333,2.65-4.3,2.65l-1.55-0.05l-0.851,1.25c-0.967,1.333-2.283,2-3.95,2
										l-0.75-0.05c-1.033-0.167-1.916-0.617-2.649-1.35c-0.533-0.533-0.934-1.2-1.2-2l-0.45-1.4l-1.399-0.45
										c-0.634-0.167-1.284-0.55-1.95-1.15c-0.7-0.7-1.167-1.6-1.4-2.7c-0.133-0.9-0.017-1.767,0.351-2.6
										C113.017,68.267,113.566,67.583,114.3,67.05z"/>
								</g>
							</g>
							<path style="fill-rule:evenodd;clip-rule:evenodd;fill:#45260C;" d="M115.9,69.3l2.399-1.7l-0.05-2.95
								c0-0.833,0.384-1.45,1.15-1.85c0.333-0.167,0.699-0.233,1.1-0.2s0.733,0.167,1,0.4l2.4,1.75l2.8-0.95
								c0.8-0.267,1.5-0.1,2.1,0.5c0.601,0.6,0.767,1.3,0.5,2.1l-0.95,2.8l1.75,2.35c0.5,0.7,0.567,1.417,0.2,2.15
								c-0.366,0.733-0.983,1.1-1.85,1.1l-2.95-0.05l-1.7,2.45c-0.5,0.7-1.166,0.966-2,0.8c-0.434-0.033-0.816-0.217-1.149-0.55
								c-0.233-0.3-0.4-0.583-0.5-0.85l-0.851-2.8l-2.85-0.9c-0.367-0.133-0.634-0.3-0.8-0.5c-0.334-0.3-0.534-0.667-0.601-1.1
								C114.95,70.433,115.233,69.767,115.9,69.3z"/>
							<linearGradient id="SVGID_29_" gradientUnits="userSpaceOnUse" x1="128.2871" y1="74.438" x2="118.6121" y2="64.763">
								<stop  offset="0" style="stop-color:#EDBF35"/>
								<stop  offset="0.2941" style="stop-color:#F0CA31"/>
								<stop  offset="0.8039" style="stop-color:#F9E728"/>
								<stop  offset="0.9647" style="stop-color:#FCF226"/>
							</linearGradient>
							<path style="fill-rule:evenodd;clip-rule:evenodd;fill:url(#SVGID_29_);" d="M119.8,63.65c0.4-0.2,0.783-0.167,1.15,0.1
								l2.8,2.05l3.25-1.1c0.4-0.167,0.767-0.083,1.1,0.25c0.301,0.3,0.4,0.683,0.301,1.15l-1.15,3.25l2.1,2.75
								c0.233,0.333,0.267,0.717,0.101,1.15c-0.2,0.4-0.533,0.6-1,0.6L125,73.8l-2,2.85c-0.3,0.367-0.65,0.517-1.05,0.45
								c-0.267-0.067-0.467-0.184-0.601-0.35c-0.133-0.1-0.233-0.233-0.3-0.4l-1-3.3l-3.3-1.05l-0.45-0.25l-0.3-0.6
								c-0.066-0.5,0.083-0.85,0.45-1.05l2.8-2l-0.05-3.45C119.2,64.217,119.4,63.883,119.8,63.65z"/>
							<path style="fill-rule:evenodd;clip-rule:evenodd;fill:#F5FAD7;" d="M119.85,65.15l0.051,3.45l-2.801,2
								c-0.399,0.3-0.55,0.65-0.449,1.05l0.1,0.35l-0.45-0.25l-0.3-0.6c-0.066-0.5,0.083-0.85,0.45-1.05l2.8-2l-0.05-3.45
								c0-0.433,0.2-0.767,0.6-1c0.4-0.2,0.783-0.167,1.15,0.1l2.8,2.05l3.25-1.1c0.4-0.167,0.767-0.083,1.1,0.25
								c0.034,0,0.084,0.083,0.15,0.25c-0.2-0.034-0.4-0.034-0.6,0l-3.301,1.1l-2.75-2.05c-0.399-0.267-0.783-0.3-1.149-0.1
								C120.05,64.383,119.85,64.717,119.85,65.15z"/>
						</g>
					</g>
				</g>
			</g>
			<g>
				<g>
					<g>
						<g>
							<g>
								<g>
									
										<linearGradient id="SVGID_30_" gradientUnits="userSpaceOnUse" x1="-80.8735" y1="48.6602" x2="-59.9111" y2="48.6602" gradientTransform="matrix(4.773270e-005 -1 1 -0.001 2.399772e-004 4.439838e-004)">
										<stop  offset="0.1098" style="stop-color:#C39616"/>
										<stop  offset="0.9647" style="stop-color:#DEEA89"/>
									</linearGradient>
									<path style="fill-rule:evenodd;clip-rule:evenodd;fill:url(#SVGID_30_);" d="M40,68.7l-0.5-1.45
										c-0.267-0.867-0.3-1.733-0.1-2.6c0.2-0.9,0.617-1.667,1.25-2.3S42.067,61.3,43,61.1c0.9-0.233,1.767-0.217,2.6,0.05
										l1.45,0.5l1.2-0.9c0.667-0.533,1.483-0.833,2.45-0.9c0.966-0.067,1.833,0.1,2.6,0.5c0.833,0.433,1.483,1.033,1.95,1.8
										s0.683,1.617,0.65,2.55v1.45l1.2,0.9c0.767,0.534,1.333,1.217,1.7,2.05c0.367,0.833,0.467,1.7,0.3,2.6
										c-0.133,1-0.583,1.9-1.35,2.7c-0.633,0.567-1.3,0.95-2,1.15L54.35,76l-0.45,1.4c-0.2,0.733-0.6,1.4-1.2,2
										c-0.767,0.767-1.65,1.217-2.65,1.35L49.3,80.8c-1.633,0-2.933-0.667-3.9-2l-0.9-1.25l-1.55,0.05
										c-0.9,0-1.733-0.233-2.5-0.7c-0.767-0.467-1.367-1.117-1.8-1.95c-0.4-0.833-0.566-1.7-0.5-2.6
										c0.1-0.9,0.417-1.717,0.95-2.45L40,68.7z"/>
									<path style="fill-rule:evenodd;clip-rule:evenodd;fill:none;stroke:#ECF8BD;stroke-width:0.25;" d="M40,68.7l-0.5-1.45
										c-0.267-0.867-0.3-1.733-0.1-2.6c0.2-0.9,0.617-1.667,1.25-2.3S42.067,61.3,43,61.1c0.9-0.233,1.767-0.217,2.6,0.05
										l1.45,0.5l1.2-0.9c0.667-0.533,1.483-0.833,2.45-0.9c0.966-0.067,1.833,0.1,2.6,0.5c0.833,0.433,1.483,1.033,1.95,1.8
										s0.683,1.617,0.65,2.55v1.45l1.2,0.9c0.767,0.534,1.333,1.217,1.7,2.05c0.367,0.833,0.467,1.7,0.3,2.6
										c-0.133,1-0.583,1.9-1.35,2.7c-0.633,0.567-1.3,0.95-2,1.15L54.35,76l-0.45,1.4c-0.2,0.733-0.6,1.4-1.2,2
										c-0.767,0.767-1.65,1.217-2.65,1.35L49.3,80.8c-1.633,0-2.933-0.667-3.9-2l-0.9-1.25l-1.55,0.05
										c-0.9,0-1.733-0.233-2.5-0.7c-0.767-0.467-1.367-1.117-1.8-1.95c-0.4-0.833-0.566-1.7-0.5-2.6
										c0.1-0.9,0.417-1.717,0.95-2.45L40,68.7z"/>
								</g>
							</g>
							<path style="fill-rule:evenodd;clip-rule:evenodd;fill:#45260C;" d="M55.5,69.3c0.733,0.5,1.017,1.167,0.85,2
								c-0.067,0.434-0.25,0.8-0.55,1.1c-0.2,0.233-0.483,0.4-0.85,0.5l-2.8,0.9l-0.9,2.8c-0.1,0.367-0.267,0.65-0.5,0.85
								c-0.3,0.333-0.683,0.517-1.15,0.55c-0.8,0.133-1.45-0.133-1.95-0.8l-1.7-2.45l-3,0.05c-0.833,0-1.434-0.367-1.8-1.1
								c-0.367-0.733-0.316-1.45,0.15-2.15l1.8-2.35l-0.95-2.8c-0.267-0.8-0.1-1.5,0.5-2.1c0.567-0.633,1.25-0.8,2.05-0.5l2.8,0.95
								L49.9,63c0.667-0.5,1.383-0.567,2.15-0.2c0.733,0.367,1.1,0.983,1.1,1.85L53.1,67.6L55.5,69.3z"/>
							
								<linearGradient id="SVGID_31_" gradientUnits="userSpaceOnUse" x1="-22.1499" y1="83.1201" x2="-8.4674" y2="83.1201" gradientTransform="matrix(0.7071 -0.7071 0.7071 0.7071 2.749562e-004 -7.039309e-005)">
								<stop  offset="0" style="stop-color:#EDBF35"/>
								<stop  offset="0.2941" style="stop-color:#F0CA31"/>
								<stop  offset="0.8039" style="stop-color:#F9E728"/>
								<stop  offset="0.9647" style="stop-color:#FCF226"/>
							</linearGradient>
							<path style="fill-rule:evenodd;clip-rule:evenodd;fill:url(#SVGID_31_);" d="M51.6,63.65c0.4,0.233,0.6,0.567,0.6,1
								l-0.05,3.45l2.8,2c0.4,0.233,0.55,0.583,0.45,1.05c0,0.133-0.1,0.333-0.3,0.6c-0.133,0.133-0.283,0.217-0.45,0.25l-3.3,1.05
								l-1,3.3c-0.067,0.167-0.167,0.3-0.3,0.4c-0.133,0.167-0.316,0.283-0.55,0.35c-0.433,0.066-0.8-0.083-1.1-0.45l-2-2.85
								l-3.45,0.05c-0.467,0-0.784-0.2-0.95-0.6c-0.2-0.367-0.167-0.75,0.1-1.15l2.05-2.75l-1.1-3.25
								c-0.167-0.434-0.083-0.817,0.25-1.15c0.333-0.333,0.7-0.417,1.1-0.25l3.3,1.1l2.75-2.05
								C50.85,63.483,51.233,63.45,51.6,63.65z"/>
							<path style="fill-rule:evenodd;clip-rule:evenodd;fill:#F5FAD7;" d="M51.55,65.15c0-0.467-0.2-0.8-0.6-1
								c-0.367-0.2-0.75-0.167-1.15,0.1l-2.75,2.05l-3.25-1.1c-0.2-0.067-0.417-0.067-0.65,0l0.15-0.25
								c0.333-0.333,0.7-0.417,1.1-0.25l3.3,1.1l2.75-2.05c0.4-0.267,0.783-0.3,1.15-0.1c0.4,0.233,0.6,0.567,0.6,1l-0.05,3.45
								l2.8,2c0.4,0.233,0.55,0.583,0.45,1.05c0,0.133-0.1,0.333-0.3,0.6c-0.133,0.133-0.283,0.217-0.45,0.25l0.15-0.35
								c0.067-0.4-0.083-0.75-0.45-1.05l-2.85-2L51.55,65.15z"/>
						</g>
					</g>
				</g>
			</g>
		</g>
		<g>
			<path style="fill-rule:evenodd;clip-rule:evenodd;fill:#DFF39B;" d="M86.45,87.85c-1.167,0.667-2.284,1.134-3.35,1.4
				c-1.1,2.833-1.833,6.167-2.2,10c-0.433,3.9-0.117,7.467,0.95,10.7l5.55,2.649c0.466,0.267,0.783,0.5,0.949,0.7
				c2.367,0.066,4.467-0.583,6.301-1.95c1.199-0.866,2.283-2.066,3.25-3.6l0.05-10.55C93.917,93.767,90.6,91.033,88,89L86.45,87.85z
				 M69.95,65.4c2.867-2.6,6.233-3.8,10.1-3.6c3.833,0.2,7.05,1.75,9.65,4.65c2.6,2.867,3.8,6.233,3.6,10.1
				c-0.033,0.767-0.166,1.65-0.399,2.65c2.199,2.2,4.25,4.1,6.149,5.7c2.7,2.3,4.983,4.133,6.851,5.5l0.25,0.1l16.8,8.9
				c1.233,0.666,1.883,1.699,1.95,3.1l-0.101,4.2c0,1.333-0.583,2.366-1.75,3.1l-16.5,9.9l-0.35,0.25c-0.566,0.333-1.2,0.5-1.9,0.5
				c-0.467,0-0.883-0.066-1.25-0.2l-2.05-1.1c-1.4,0.899-3.783,1.949-7.15,3.149c-1.6,0.533-2.933,1.066-4,1.601l0.2,3.55
				c0.101,1.399-0.434,2.467-1.6,3.2l-8.9,6.05c-0.2,0.267-0.45,0.467-0.75,0.6c-0.5,0.334-1.1,0.533-1.8,0.601h-0.35
				c-0.533,0-1.066-0.134-1.6-0.4l-0.8-0.5l-9.5-5.05c-1.2-0.634-1.85-1.634-1.95-3l-0.6-11.5l-0.05-0.351
				c-0.066-1.366,0.483-2.433,1.65-3.199h0.05l0.1-0.101l4.05-2.55c1.467-2.167,2.383-4.967,2.75-8.4
				c0.5-4.666,0.333-10.133-0.5-16.399c-1.633-1.4-2.9-3.1-3.8-5.1c-0.867-2.033-1.25-4.133-1.15-6.3
				C65.533,71.183,67.083,67.967,69.95,65.4z"/>
			<g>
				
					<linearGradient id="SVGID_32_" gradientUnits="userSpaceOnUse" x1="-137.1265" y1="93.5234" x2="-61.0073" y2="93.5234" gradientTransform="matrix(1.314061e-005 -1 1 -0.001 8.557228e-005 4.449275e-004)">
					<stop  offset="0" style="stop-color:#B1812F"/>
					<stop  offset="0.2863" style="stop-color:#C89A33"/>
					<stop  offset="0.6745" style="stop-color:#EDC13A"/>
					<stop  offset="0.9647" style="stop-color:#DEEA89"/>
				</linearGradient>
				<path style="fill-rule:evenodd;clip-rule:evenodd;fill:url(#SVGID_32_);" d="M86.45,87c-1.167,0.667-2.284,1.134-3.35,1.4
					c-1.1,2.833-1.833,6.166-2.2,10c-0.433,3.899-0.117,7.466,0.95,10.699l5.55,2.65c0.466,0.267,0.783,0.5,0.949,0.7
					c2.367,0.066,4.467-0.584,6.301-1.95c1.199-0.866,2.283-2.066,3.25-3.6l0.05-10.551C93.917,92.917,90.6,90.184,88,88.15
					L86.45,87z M69.95,64.55c2.867-2.6,6.233-3.8,10.1-3.6c3.833,0.2,7.05,1.733,9.65,4.6c2.6,2.934,3.8,6.317,3.6,10.15
					c-0.033,0.767-0.166,1.65-0.399,2.65c2.199,2.2,4.25,4.1,6.149,5.7c2.7,2.3,4.983,4.134,6.851,5.5l0.25,0.101l16.8,8.85
					c1.233,0.7,1.883,1.75,1.95,3.15l-0.101,4.199c0,1.334-0.583,2.351-1.75,3.051l-16.5,9.949l-0.35,0.25
					c-0.566,0.334-1.2,0.5-1.9,0.5c-0.467,0-0.883-0.066-1.25-0.199L101,118.3c-1.4,0.9-3.783,1.95-7.15,3.15
					c-1.6,0.533-2.933,1.066-4,1.6l0.2,3.55c0.101,1.4-0.434,2.467-1.6,3.2l-8.9,6.05c-0.2,0.267-0.45,0.467-0.75,0.601
					c-0.5,0.333-1.1,0.533-1.8,0.6h-0.35c-0.533,0-1.066-0.133-1.6-0.399c-0.333-0.167-0.6-0.351-0.8-0.551l-9.5-5
					c-1.2-0.633-1.85-1.633-1.95-3l-0.6-11.5l-0.05-0.35c-0.066-1.366,0.483-2.434,1.65-3.2l0.05-0.05l0.1-0.05L68,110.4
					c1.467-2.167,2.383-4.967,2.75-8.4c0.5-4.667,0.333-10.134-0.5-16.4c-1.633-1.4-2.9-3.1-3.8-5.1
					c-0.867-2.033-1.25-4.133-1.15-6.3C65.533,70.333,67.083,67.117,69.95,64.55z"/>
				<path style="fill-rule:evenodd;clip-rule:evenodd;fill:#DFF39B;" d="M79.3,61.05c-3.7,0-6.883,1.267-9.55,3.8
					c-2.7,2.533-4.133,5.65-4.3,9.35c-0.133,2.133,0.233,4.2,1.1,6.2s2.117,3.7,3.75,5.1c0.9,6.167,1.083,11.667,0.55,16.5
					c-0.367,3.467-1.283,6.3-2.75,8.5l-4.2,2.6c-1.1,0.733-1.65,1.784-1.65,3.15l0.05,0.35l0.6,11.5c0.1,1.367,0.733,2.334,1.9,2.9
					l9.5,5.05c0.333,0.267,0.6,0.434,0.8,0.5c0.6,0.334,1.233,0.45,1.9,0.351c0.6,0,1.183-0.167,1.75-0.5l0.75-0.65l8.9-6
					c1.133-0.767,1.649-1.816,1.55-3.15l-0.2-3.649h0.1c0.967-0.5,2.284-1.05,3.95-1.65c3.233-1.1,5.601-2.133,7.101-3.1l0.05-0.05
					l2.149,1.149c1.034,0.367,2.051,0.267,3.051-0.3l0.3-0.25l16.55-9.9c1.134-0.699,1.7-1.699,1.7-3l0.05-4.199
					c0-1.367-0.616-2.384-1.85-3.051L106.1,89.75l-0.25-0.1c-2.233-1.634-4.517-3.467-6.85-5.5c-2.5-2.167-4.566-4.083-6.2-5.75
					l-0.05-0.05l0.05-0.05c0.233-0.933,0.367-1.816,0.4-2.65c0.2-3.833-0.983-7.167-3.55-10c-2.601-2.867-5.8-4.4-9.601-4.6H79.3z
					 M89.8,65.5c2.601,2.933,3.8,6.333,3.601,10.2c-0.034,0.8-0.167,1.667-0.4,2.6c1.9,1.9,3.95,3.8,6.15,5.7
					c2.666,2.267,4.933,4.083,6.8,5.45l0.25,0.1l16.8,8.9c1.267,0.633,1.934,1.684,2,3.149l-0.1,4.25c0,1.4-0.601,2.45-1.801,3.15
					l-16.5,9.95l-0.35,0.25c-1.033,0.566-2.116,0.666-3.25,0.3l-2-1.1c-1.533,1-3.917,2.05-7.15,3.149
					c-1.633,0.533-2.916,1.05-3.85,1.55l0.2,3.5c0.066,1.434-0.483,2.534-1.65,3.301l-8.95,6.05l-0.7,0.6
					c-0.533,0.334-1.167,0.533-1.9,0.601h-0.35c-0.566,0-1.117-0.134-1.65-0.4l-0.85-0.55l-9.45-5c-1.233-0.634-1.9-1.667-2-3.101
					l-0.6-11.5l-0.05-0.35c-0.033-1.366,0.517-2.467,1.65-3.3l4.25-2.601c1.4-2.133,2.3-4.933,2.7-8.399
					c0.467-4.533,0.3-9.983-0.5-16.35c-1.633-1.367-2.9-3.067-3.8-5.1c-0.867-2.033-1.25-4.133-1.15-6.3
					c0.233-3.9,1.783-7.15,4.65-9.75c2.9-2.6,6.3-3.8,10.2-3.6C83.983,61.05,87.233,62.6,89.8,65.5z M86.4,86.9l0.05-0.051
					L86.5,86.9l1.55,1.149c3.267,2.566,6.584,5.316,9.95,8.25l0.05,0.05L98,106.9c-0.967,1.566-2.066,2.8-3.3,3.699
					c-1.8,1.301-3.834,1.95-6.101,1.95h-0.25l-1-0.7L81.8,109.2c-1.1-3.134-1.433-6.733-1-10.8c0.4-4,1.133-7.351,2.2-10.051
					l0.1-0.05C84.133,88.033,85.233,87.566,86.4,86.9z M83.2,88.5c-1.067,2.634-1.8,5.95-2.2,9.95c-0.4,3.8-0.083,7.333,0.95,10.6
					l5.5,2.601c0.267,0.133,0.6,0.366,1,0.699H88.6c2.267,0,4.267-0.649,6-1.949c1.2-0.867,2.284-2.051,3.25-3.551V96.4
					c-3.899-3.334-7.216-6.051-9.949-8.15l-1.45-1.15C85.417,87.7,84.333,88.167,83.2,88.5z"/>
			</g>
			<path style="fill-rule:evenodd;clip-rule:evenodd;fill:#613D18;" d="M100.95,95c-4.066-3.533-7.783-6.6-11.15-9.2
				c-0.866-0.667-2-1.483-3.399-2.45C84.8,84.683,83,85.5,81,85.8c-1.533,3.066-2.567,7.167-3.1,12.3
				c-0.5,4.801,0.017,9.184,1.55,13.15l6.5,3.15l0.149,0.05c0.233,0.133,0.351,0.3,0.351,0.5v0.35l2.149,0.15
				c2.9,0,5.5-0.851,7.801-2.55c1.733-1.233,3.233-2.95,4.5-5.15L100.95,95z M110.75,103.35l-2.6-1.399L108.05,105L110.75,103.35z
				 M71.95,66.75c2.233-2.033,4.883-2.967,7.95-2.8c3.033,0.167,5.567,1.367,7.6,3.6c2.033,2.267,2.967,4.917,2.8,7.95
				c-0.033,1.167-0.3,2.367-0.8,3.6c2.134,2.267,4.667,4.683,7.6,7.25c2.634,2.233,5.117,4.2,7.45,5.9l0.2,0.05l16.8,8.851
				c0.233,0.133,0.351,0.316,0.351,0.55l-0.051,0.25l-0.05,3.85c0,0.267-0.1,0.45-0.3,0.55l-16.85,10.15
				c-0.2,0.134-0.384,0.167-0.551,0.1l-0.199-0.149l-2.7-1.45c-0.134-0.1-0.233-0.233-0.3-0.4c-0.9,0.801-1.934,1.5-3.101,2.101
				c-1.1,0.533-2.75,1.166-4.95,1.899c-2.566,0.9-4.583,1.817-6.05,2.75l0.3,5.45c0,0.233-0.1,0.417-0.3,0.55l-9.35,6.301
				c-0.067,0.133-0.15,0.233-0.25,0.3c-0.067,0.066-0.2,0.1-0.4,0.1h-0.15L76.4,134c-0.133-0.033-0.233-0.134-0.3-0.3l-9.95-5.25
				c-0.233-0.101-0.35-0.267-0.35-0.5L65.15,116.1c0-0.199,0.083-0.383,0.25-0.55h0.05l0.05-0.05l4.6-2.85
				c1.967-2.601,3.167-6.051,3.6-10.351c0.566-5.233,0.35-11.333-0.65-18.3c-1.566-1.1-2.783-2.5-3.65-4.2
				c-0.833-1.733-1.2-3.55-1.1-5.45C68.467,71.317,69.683,68.783,71.95,66.75z"/>
			<g>
				
					<use xlink:href="#FlashAICB_x2F_Layer_1_x2F__x3C_Clip_Group_0_x3E__x5F_6"  width="15.65" height="37.4" y="-37.4" transform="matrix(1 0 0 -1 67.6499 79.1001)" style="overflow:visible;"/>
				
					<use xlink:href="#FlashAICB_x2F_Layer_1_x2F__x3C_Clip_Group_0_x3E__x5F_5"  width="32.55" height="25.5" y="-25.5" transform="matrix(1 0 0 -1 79.1499 72.2002)" style="overflow:visible;"/>
				
					<use xlink:href="#FlashAICB_x2F_Layer_1_x2F__x3C_Clip_Group_0_x3E__x5F_4"  width="49.45" height="49.65" y="-49.65" transform="matrix(1 0 0 -1 67.8999 87.5)" style="overflow:visible;"/>
				<polygon style="fill-rule:evenodd;clip-rule:evenodd;fill:#AF0322;" points="107.55,100.3 107.2,110.2 119.35,102.3 
					121.2,101.75 121.15,105.8 104.25,116 102.6,111.9 103.1,98.05 106.1,98.5 				"/>
				<polygon style="fill-rule:evenodd;clip-rule:evenodd;fill:#E9072E;" points="114.85,101.65 102.6,96.75 101.5,94.6 
					104.45,92.85 121.2,101.75 107.1,110.2 107.25,106.2 				"/>
				<polygon style="fill-rule:evenodd;clip-rule:evenodd;fill:#F70738;" points="104.3,116 101.5,114.45 101.55,94.6 114.9,101.65 
					112.05,103.35 104.45,99.25 				"/>
				
					<use xlink:href="#FlashAICB_x2F_Layer_1_x2F__x3C_Clip_Group_0_x3E__x5F_3"  width="21.85" height="21.8" y="-21.8" transform="matrix(1 0 0 -1 68.3501 64.0498)" style="overflow:visible;"/>
				
					<use xlink:href="#FlashAICB_x2F_Layer_1_x2F__x3C_Clip_Group_0_x3E__x5F_2"  width="14.65" height="18.6" y="-18.6" transform="matrix(1 0 0 -1 64 115.4502)" style="overflow:visible;"/>
				
					<use xlink:href="#FlashAICB_x2F_Layer_1_x2F__x3C_Clip_Group_0_x3E__x5F_1"  width="28.55" height="26.4" y="-26.4" transform="matrix(1 0 0 -1 61.4502 102.7002)" style="overflow:visible;"/>
				
					<use xlink:href="#FlashAICB_x2F_Layer_1_x2F__x3C_Clip_Group_0_x3E_"  width="24.2" height="26.5" y="-26.5" transform="matrix(1 0 0 -1 69.1001 110.9502)" style="overflow:visible;"/>
			</g>
		</g>
		<g>
			
				<use xlink:href="#FlashAICB_x2F_Layer_1_x2F__x3C_Path_x3E__x5F_1"  width="119.2" height="60.45" y="-60.45" transform="matrix(1 0 0 -1 26.4502 22.2002)" style="overflow:visible;opacity:0.1992;enable-background:new    ;"/>
			
				<use xlink:href="#FlashAICB_x2F_Layer_1_x2F__x3C_Path_x3E__x5F_0"  width="119.2" height="66.434" y="-66.434" transform="matrix(1 0 0 -1 26.4502 22.2002)" style="overflow:visible;opacity:0.1211;enable-background:new    ;"/>
		</g>
	</g>
</g>
</svg>
