<?xml version="1.0" encoding="iso-8859-1"?>
<!-- Generator: Adobe Illustrator 15.1.0, SVG Export Plug-In . SVG Version: 6.00 Build 0)  -->
<!DOCTYPE svg PUBLIC "-//W3C//DTD SVG 1.1//EN" "http://www.w3.org/Graphics/SVG/1.1/DTD/svg11.dtd">
<svg version="1.1" id="Layer_68" xmlns="http://www.w3.org/2000/svg" xmlns:xlink="http://www.w3.org/1999/xlink" x="0px" y="0px"
	 width="172.45px" height="172.45px" viewBox="0 0 172.45 172.45" style="enable-background:new 0 0 172.45 172.45;"
	 xml:space="preserve">
<symbol  id="FlashAICB_x2F_Layer_68_x2F__x3C_Path_x3E_" viewBox="0 -61.294 110 61.294">
	<g id="Layer_1_4_">
		<path style="fill-rule:evenodd;clip-rule:evenodd;fill:#FFFFFF;" d="M106.5-34.4c2.333-5.633,3.5-10.934,3.5-15.9
			c0-4.967-1.45-8.083-4.35-9.35c-2.333-1.067-6.25-1.05-11.75,0.05c-7.267,1.767-13.1,3.117-17.5,4.05C68.4-53.85,61.267-53,55-53
			c-6.333,0-13.467-0.917-21.4-2.75c-8.333-2.2-14.167-3.683-17.5-4.45c-5.533-1.267-9.467-1.433-11.8-0.5
			C1.433-59.5,0-56.433,0-51.5c0,5.467,1.167,11.117,3.5,16.95C5.967-28.383,9.45-22.8,13.95-17.8C24.65-5.933,38.333,0,55,0
			c16.467,0,30.133-6,41-18C100.467-22.9,103.967-28.367,106.5-34.4z"/>
	</g>
</symbol>
<symbol  id="FlashAICB_x2F_Layer_68_x2F__x3C_Path_x3E__x5F_1" viewBox="0 -55.8 110 55.8">
	<g id="Layer_1_3_">
		
			<linearGradient id="SVGID_1_" gradientUnits="userSpaceOnUse" x1="16163.3066" y1="-53.8555" x2="16219.0518" y2="-53.8555" gradientTransform="matrix(1.792918e-005 1 -1 -0.001 0.8545 -16219.1055)">
			<stop  offset="0.1294" style="stop-color:#E2B8B2"/>
			<stop  offset="0.9255" style="stop-color:#FFFFFF"/>
		</linearGradient>
		<path style="fill-rule:evenodd;clip-rule:evenodd;fill:url(#SVGID_1_);" d="M96-18c4.467-4.9,7.967-10.367,10.5-16.4
			c2.333-5.633,3.5-10.934,3.5-15.9c0-1.767-0.167-3.25-0.5-4.45c-1.833,11.067-7.217,20.9-16.15,29.5
			C82.783-15.117,70-10.05,55-10.05c-15.267,0-28.1-5.067-38.5-15.2c-9-8.7-14.35-18.883-16.05-30.55C0.15-54.6,0-53.167,0-51.5
			c0,5.467,1.167,11.117,3.5,16.95C5.967-28.383,9.45-22.8,13.95-17.8C24.65-5.933,38.333,0,55,0C71.467,0,85.133-6,96-18z"/>
	</g>
</symbol>
<symbol  id="FlashAICB_x2F_Layer_68_x2F__x3C_Path_x3E__x5F_2" viewBox="0 -57.15 118.7 57.15">
	<g id="Layer_1_2_">
		
			<radialGradient id="SVGID_2_" cx="59.3501" cy="-28.5752" r="46.5777" gradientTransform="matrix(1 0 0 -1 0 -57.1504)" gradientUnits="userSpaceOnUse">
			<stop  offset="0" style="stop-color:#000000;stop-opacity:0"/>
			<stop  offset="0.651" style="stop-color:#000000;stop-opacity:0.4"/>
		</radialGradient>
		<path style="fill-rule:evenodd;clip-rule:evenodd;fill:url(#SVGID_2_);" d="M95.5-30.35c10.7,7.7,18.25,17.733,22.65,30.1L118.7,0
			c-0.6-15.9-6.65-29.4-18.15-40.5S75.3-57.15,59.3-57.15c-15.733,0-29.316,5.367-40.75,16.1C7.183-30.35,1-17.233,0-1.7
			c4.6-12,12.183-21.7,22.75-29.1c10.8-7.567,22.817-11.35,36.05-11.35C72.333-42.15,84.567-38.217,95.5-30.35z"/>
	</g>
</symbol>
<g>
	<path style="fill-rule:evenodd;clip-rule:evenodd;fill:#68757B;" d="M119.75,6.8c10.3,4.367,19.434,10.534,27.4,18.5
		c7.967,7.967,14.133,17.1,18.5,27.4c4.533,10.7,6.8,21.883,6.8,33.55c0,11.667-2.267,22.833-6.8,33.5
		c-4.367,10.333-10.533,19.467-18.5,27.4c-7.967,7.967-17.101,14.133-27.4,18.5c-10.7,4.533-21.883,6.8-33.55,6.8
		s-22.833-2.267-33.5-6.8c-10.3-4.367-19.434-10.533-27.4-18.5c-7.966-7.967-14.133-17.101-18.5-27.4
		C2.267,109.083,0,97.917,0,86.25C0,74.583,2.267,63.4,6.8,52.7c4.367-10.3,10.534-19.434,18.5-27.4
		c7.967-7.966,17.1-14.133,27.4-18.5C63.367,2.267,74.533,0,86.2,0S109.05,2.267,119.75,6.8z"/>
	
		<linearGradient id="SVGID_3_" gradientUnits="userSpaceOnUse" x1="-172.5361" y1="86.2256" x2="-0.0859" y2="86.2256" gradientTransform="matrix(5.800464e-006 -1 1 -0.001 1.435640e-004 4.683650e-004)">
		<stop  offset="0.0235" style="stop-color:#737373"/>
		<stop  offset="0.0745" style="stop-color:#81807F"/>
		<stop  offset="0.4039" style="stop-color:#DCD4CA"/>
		<stop  offset="0.5765" style="stop-color:#EFEADA"/>
		<stop  offset="0.749" style="stop-color:#FEFBE7"/>
		<stop  offset="0.9961" style="stop-color:#E3E7E9"/>
	</linearGradient>
	<path style="fill-rule:evenodd;clip-rule:evenodd;fill:url(#SVGID_3_);" d="M119.75,6.8c10.3,4.367,19.434,10.534,27.4,18.5
		c7.967,7.967,14.133,17.1,18.5,27.4c4.533,10.7,6.8,21.883,6.8,33.55c0,11.667-2.267,22.833-6.8,33.5
		c-4.367,10.333-10.533,19.467-18.5,27.4c-7.967,7.967-17.101,14.133-27.4,18.5c-10.7,4.533-21.883,6.8-33.55,6.8
		s-22.833-2.267-33.5-6.8c-10.3-4.367-19.434-10.533-27.4-18.5c-7.966-7.967-14.133-17.101-18.5-27.4
		C2.267,109.083,0,97.917,0,86.25C0,74.583,2.267,63.4,6.8,52.7c4.367-10.3,10.534-19.434,18.5-27.4
		c7.967-7.966,17.1-14.133,27.4-18.5C63.367,2.267,74.533,0,86.2,0S109.05,2.267,119.75,6.8z"/>
	<g>
		<g>
			
				<linearGradient id="SVGID_4_" gradientUnits="userSpaceOnUse" x1="-159.1357" y1="86.2256" x2="-13.5361" y2="86.2256" gradientTransform="matrix(6.869312e-006 -1 1 -0.001 1.857748e-005 4.683650e-004)">
				<stop  offset="0" style="stop-color:#ECE7E0"/>
				<stop  offset="0.1216" style="stop-color:#E1DED8"/>
				<stop  offset="0.7059" style="stop-color:#B5B6B5"/>
				<stop  offset="1" style="stop-color:#A4A7A8"/>
			</linearGradient>
			<path style="fill-rule:evenodd;clip-rule:evenodd;fill:url(#SVGID_4_);" d="M114.6,19.15c8.7,3.7,16.4,8.917,23.101,15.65
				c6.7,6.7,11.899,14.4,15.6,23.1c3.8,9.034,5.7,18.483,5.7,28.35c0,9.867-1.9,19.316-5.7,28.35c-3.7,8.7-8.899,16.417-15.6,23.15
				c-6.7,6.7-14.4,11.9-23.101,15.6c-9.033,3.801-18.482,5.7-28.35,5.7c-9.9,0-19.35-1.899-28.35-5.7
				c-8.7-3.699-16.417-8.899-23.15-15.6c-6.7-6.733-11.9-14.45-15.6-23.15c-3.8-9.033-5.7-18.482-5.7-28.35
				c0-9.867,1.9-19.316,5.7-28.35c3.7-8.7,8.9-16.4,15.6-23.1c6.733-6.733,14.45-11.95,23.15-15.65c9-3.8,18.45-5.7,28.35-5.7
				C96.117,13.45,105.566,15.35,114.6,19.15z"/>
		</g>
	</g>
</g>
<g>
	
		<linearGradient id="SVGID_5_" gradientUnits="userSpaceOnUse" x1="-152.4863" y1="86.2256" x2="-20.1357" y2="86.2256" gradientTransform="matrix(7.555724e-006 -1 1 -0.001 2.115396e-004 4.683650e-004)">
		<stop  offset="0.0745" style="stop-color:#B85E97"/>
		<stop  offset="0.2667" style="stop-color:#D167A8"/>
		<stop  offset="0.5333" style="stop-color:#F976C5"/>
		<stop  offset="1" style="stop-color:#F8EFD5"/>
	</linearGradient>
	<path style="fill-rule:evenodd;clip-rule:evenodd;fill:url(#SVGID_5_);" d="M86.25,152.4c-18.233,0-33.833-6.467-46.8-19.4
		c-12.934-12.934-19.4-28.517-19.4-46.75c0-18.267,6.467-33.867,19.4-46.8c12.933-12.934,28.533-19.4,46.8-19.4
		c18.233,0,33.816,6.467,46.75,19.4c12.934,12.966,19.4,28.566,19.4,46.8S145.934,120.066,133,133S104.483,152.4,86.25,152.4z"/>
	<path style="fill-rule:evenodd;clip-rule:evenodd;fill:#3B223B;" d="M86.25,151.6c18.033,0,33.417-6.383,46.15-19.149
		c12.767-12.767,19.149-28.167,19.149-46.2s-6.383-33.433-19.149-46.2C119.667,27.283,104.283,20.9,86.25,20.9
		s-33.433,6.383-46.2,19.15C27.283,52.817,20.9,68.217,20.9,86.25s6.383,33.434,19.15,46.2C52.817,145.217,68.217,151.6,86.25,151.6
		z M86.25,19.25c8.934,0,17.483,1.684,25.65,5.05c8.133,3.367,15.366,8.217,21.699,14.55c6.334,6.333,11.184,13.583,14.551,21.75
		c3.399,8.167,5.1,16.716,5.1,25.65s-1.7,17.483-5.1,25.65c-3.367,8.133-8.217,15.366-14.551,21.699
		c-6.333,6.334-13.566,11.184-21.699,14.551c-8.167,3.399-16.717,5.1-25.65,5.1c-8.933,0-17.483-1.7-25.65-5.1
		c-8.167-3.367-15.417-8.217-21.75-14.551c-6.333-6.333-11.183-13.566-14.55-21.699c-3.4-8.167-5.1-16.717-5.1-25.65
		s1.7-17.483,5.1-25.65c3.367-8.167,8.217-15.417,14.55-21.75S52.434,27.667,60.6,24.3C68.733,20.934,77.283,19.25,86.25,19.25z"/>
</g>
<radialGradient id="SVGID_6_" cx="86.2246" cy="84.2749" r="59.3753" gradientTransform="matrix(1 0 0 -1 0 168.5498)" gradientUnits="userSpaceOnUse">
	<stop  offset="0.1059" style="stop-color:#F8EFD5"/>
	<stop  offset="0.5882" style="stop-color:#FA8BC5"/>
	<stop  offset="0.7098" style="stop-color:#F789C3;stop-opacity:0.9686"/>
	<stop  offset="0.8039" style="stop-color:#ED82BC;stop-opacity:0.8706"/>
	<stop  offset="0.8824" style="stop-color:#DE78B1;stop-opacity:0.7059"/>
	<stop  offset="0.9608" style="stop-color:#C768A2;stop-opacity:0.4745"/>
	<stop  offset="1" style="stop-color:#B85E97;stop-opacity:0.3176"/>
</radialGradient>
<path style="fill-rule:evenodd;clip-rule:evenodd;fill:url(#SVGID_6_);" d="M128.25,126.25c-11.6,11.566-25.6,17.35-42,17.35
	c-16.433,0-30.45-5.783-42.05-17.35c-11.6-11.6-17.4-25.583-17.4-41.95c0-16.4,5.8-30.383,17.4-41.95
	c11.6-11.6,25.617-17.4,42.05-17.4c16.4,0,30.4,5.8,42,17.4c11.6,11.566,17.4,25.55,17.4,41.95
	C145.65,100.667,139.85,114.65,128.25,126.25z"/>
<g>
	<g>
		<g>
			<g>
				<g>
					<g>
						
							<linearGradient id="SVGID_7_" gradientUnits="userSpaceOnUse" x1="-59.5649" y1="78.1138" x2="-42.7326" y2="78.1138" gradientTransform="matrix(0.4708 -0.8822 0.8822 0.4708 -6.484985e-005 3.026128e-004)">
							<stop  offset="0" style="stop-color:#CA2897"/>
							<stop  offset="0.1686" style="stop-color:#D148A0"/>
							<stop  offset="0.5255" style="stop-color:#E58FB7"/>
							<stop  offset="0.902" style="stop-color:#FDDDD1"/>
						</linearGradient>
						<path style="fill-rule:evenodd;clip-rule:evenodd;fill:url(#SVGID_7_);" d="M38.6,75.8c0.767-0.7,1.683-1.05,2.75-1.05
							c0.567,0.066,0.983,0.15,1.25,0.25l1.2,0.45l1-0.7c0.767-0.467,1.567-0.684,2.4-0.65c0.6,0,1.15,0.15,1.65,0.45l0.1,0.05
							c0.633,0.333,1.133,0.833,1.5,1.5c0.367,0.633,0.517,1.317,0.45,2.05l-0.05,1.3l1,0.75c1.267,0.967,1.733,2.25,1.4,3.85
							c-0.133,0.767-0.517,1.467-1.15,2.1c-0.433,0.4-0.983,0.7-1.65,0.9l-1.2,0.3l-0.4,1.15c-0.167,0.566-0.517,1.1-1.05,1.6
							c-0.6,0.567-1.316,0.9-2.15,1L45,91.15c-0.633-0.067-1.183-0.233-1.65-0.5c-0.6-0.301-1.083-0.733-1.45-1.301l-0.7-1.05
							l-1.3-0.05c-0.733-0.033-1.4-0.25-2-0.65c-0.6-0.399-1.05-0.933-1.35-1.6c-0.333-0.667-0.45-1.367-0.35-2.1
							c0.1-0.733,0.383-1.383,0.85-1.95l0.8-1l-0.35-1.2c-0.233-0.7-0.25-1.4-0.05-2.1C37.65,76.917,38.033,76.3,38.6,75.8z"/>
						<path style="fill-rule:evenodd;clip-rule:evenodd;fill:none;stroke:#F7E0E7;stroke-width:0.25;" d="M38.6,75.8
							c0.767-0.7,1.683-1.05,2.75-1.05c0.567,0.066,0.983,0.15,1.25,0.25l1.2,0.45l1-0.7c0.767-0.467,1.567-0.684,2.4-0.65
							c0.6,0,1.15,0.15,1.65,0.45l0.1,0.05c0.633,0.333,1.133,0.833,1.5,1.5c0.367,0.633,0.517,1.317,0.45,2.05l-0.05,1.3l1,0.75
							c1.267,0.967,1.733,2.25,1.4,3.85c-0.133,0.767-0.517,1.467-1.15,2.1c-0.433,0.4-0.983,0.7-1.65,0.9l-1.2,0.3l-0.4,1.15
							c-0.167,0.566-0.517,1.1-1.05,1.6c-0.6,0.567-1.316,0.9-2.15,1L45,91.15c-0.633-0.067-1.183-0.233-1.65-0.5
							c-0.6-0.301-1.083-0.733-1.45-1.301l-0.7-1.05l-1.3-0.05c-0.733-0.033-1.4-0.25-2-0.65c-0.6-0.399-1.05-0.933-1.35-1.6
							c-0.333-0.667-0.45-1.367-0.35-2.1c0.1-0.733,0.383-1.383,0.85-1.95l0.8-1l-0.35-1.2c-0.233-0.7-0.25-1.4-0.05-2.1
							C37.65,76.917,38.033,76.3,38.6,75.8z"/>
					</g>
				</g>
				<path style="fill-rule:evenodd;clip-rule:evenodd;fill:#FFFFFF;" d="M40.1,77.4c0.533-0.466,1.1-0.566,1.7-0.3l2.3,0.85l2-1.35
					c0.533-0.4,1.117-0.433,1.75-0.1c0.633,0.333,0.917,0.85,0.85,1.55l-0.15,2.4l1.95,1.5c0.567,0.433,0.767,0.983,0.6,1.65
					c-0.033,0.3-0.2,0.6-0.5,0.9c-0.133,0.133-0.367,0.267-0.7,0.4l-2.35,0.6l-0.8,2.3c-0.133,0.3-0.283,0.517-0.45,0.65
					c-0.233,0.233-0.55,0.383-0.95,0.45c-0.667,0.1-1.2-0.15-1.6-0.75l-1.3-2.05L40,86.05c-0.667,0-1.15-0.316-1.45-0.95
					c-0.3-0.6-0.233-1.183,0.2-1.75l1.55-1.9l-0.7-2.35C39.4,78.467,39.567,77.9,40.1,77.4z"/>
				
					<linearGradient id="SVGID_8_" gradientUnits="userSpaceOnUse" x1="-56.5532" y1="78.125" x2="-45.7268" y2="78.125" gradientTransform="matrix(0.4711 -0.8821 0.8821 0.4711 -1.111031e-004 -2.120435e-004)">
					<stop  offset="0" style="stop-color:#EDBF35"/>
					<stop  offset="0.2941" style="stop-color:#F0CA31"/>
					<stop  offset="0.8039" style="stop-color:#F9E728"/>
					<stop  offset="0.9647" style="stop-color:#FCF226"/>
				</linearGradient>
				<path style="fill-rule:evenodd;clip-rule:evenodd;fill:url(#SVGID_8_);" d="M47.45,77.2c0.367,0.167,0.517,0.433,0.45,0.8
					l-0.15,2.85l2.25,1.7c0.3,0.233,0.417,0.534,0.35,0.9c-0.033,0.167-0.133,0.333-0.3,0.5l-0.35,0.2l-2.75,0.7L46,87.55
					c-0.066,0.167-0.15,0.283-0.25,0.351l-0.5,0.25c-0.367,0-0.65-0.134-0.85-0.4l-1.5-2.4l-2.85-0.1c-0.366,0-0.633-0.167-0.8-0.5
					c-0.167-0.3-0.133-0.617,0.1-0.95l1.8-2.2l-0.8-2.7c-0.1-0.367-0.017-0.667,0.25-0.9c0.233-0.233,0.55-0.3,0.95-0.2l2.65,1.05
					l2.3-1.65C46.867,77.033,47.184,77.033,47.45,77.2z"/>
				<path style="fill-rule:evenodd;clip-rule:evenodd;fill:#F5FAD7;" d="M46.9,77.6c-0.267-0.2-0.566-0.2-0.9,0l-2.35,1.65L41,78.2
					l-0.5-0.05L40.6,78c0.233-0.233,0.55-0.3,0.95-0.2l2.65,1.05l2.3-1.65c0.367-0.167,0.684-0.167,0.95,0
					c0.367,0.167,0.517,0.433,0.45,0.8l-0.15,2.85l2.25,1.7c0.3,0.233,0.417,0.534,0.35,0.9c-0.033,0.167-0.133,0.333-0.3,0.5
					l-0.35,0.2l0.1-0.3c0.067-0.4-0.05-0.7-0.35-0.9l-2.25-1.7l0.15-2.85C47.417,78.033,47.267,77.767,46.9,77.6z"/>
			</g>
		</g>
	</g>
	<g>
		<g>
			<g>
				<g>
					<g>
						<linearGradient id="SVGID_9_" gradientUnits="userSpaceOnUse" x1="123.6504" y1="74.4683" x2="131.5754" y2="89.3183">
							<stop  offset="0" style="stop-color:#CA2897"/>
							<stop  offset="0.1686" style="stop-color:#D148A0"/>
							<stop  offset="0.5255" style="stop-color:#E58FB7"/>
							<stop  offset="0.902" style="stop-color:#FDDDD1"/>
						</linearGradient>
						<path style="fill-rule:evenodd;clip-rule:evenodd;fill:url(#SVGID_9_);" d="M122,76.1c0.367-0.667,0.867-1.167,1.5-1.5
							l0.1-0.05c0.5-0.3,1.051-0.45,1.65-0.45c0.833-0.034,1.634,0.183,2.4,0.65l1,0.7L129.85,75c0.268-0.1,0.684-0.184,1.25-0.25
							c1.101,0,2.018,0.35,2.75,1.05c0.567,0.5,0.95,1.117,1.15,1.85c0.2,0.7,0.184,1.4-0.05,2.1l-0.351,1.2l0.801,1
							c1.033,1.267,1.199,2.616,0.5,4.05c-0.301,0.667-0.75,1.2-1.351,1.6c-0.6,0.4-1.267,0.617-2,0.65l-1.3,0.05l-0.7,1.05
							c-0.366,0.567-0.85,1-1.45,1.301c-0.466,0.267-1.017,0.433-1.649,0.5L126.8,91.1c-0.8-0.1-1.517-0.433-2.149-1
							c-0.5-0.5-0.851-1.033-1.051-1.6l-0.399-1.15l-1.2-0.3c-0.633-0.2-1.184-0.5-1.65-0.9c-0.633-0.633-1.017-1.333-1.149-2.1
							c-0.3-1.6,0.167-2.883,1.399-3.85l1-0.75l-0.05-1.3C121.517,77.417,121.667,76.733,122,76.1z"/>
						<path style="fill-rule:evenodd;clip-rule:evenodd;fill:none;stroke:#F7E0E7;stroke-width:0.25;" d="M122,76.1
							c0.367-0.667,0.867-1.167,1.5-1.5l0.1-0.05c0.5-0.3,1.051-0.45,1.65-0.45c0.833-0.034,1.634,0.183,2.4,0.65l1,0.7L129.85,75
							c0.268-0.1,0.684-0.184,1.25-0.25c1.101,0,2.018,0.35,2.75,1.05c0.567,0.5,0.95,1.117,1.15,1.85c0.2,0.7,0.184,1.4-0.05,2.1
							l-0.351,1.2l0.801,1c1.033,1.267,1.199,2.616,0.5,4.05c-0.301,0.667-0.75,1.2-1.351,1.6c-0.6,0.4-1.267,0.617-2,0.65
							l-1.3,0.05l-0.7,1.05c-0.366,0.567-0.85,1-1.45,1.301c-0.466,0.267-1.017,0.433-1.649,0.5L126.8,91.1
							c-0.8-0.1-1.517-0.433-2.149-1c-0.5-0.5-0.851-1.033-1.051-1.6l-0.399-1.15l-1.2-0.3c-0.633-0.2-1.184-0.5-1.65-0.9
							c-0.633-0.633-1.017-1.333-1.149-2.1c-0.3-1.6,0.167-2.883,1.399-3.85l1-0.75l-0.05-1.3
							C121.517,77.417,121.667,76.733,122,76.1z"/>
					</g>
				</g>
				<path style="fill-rule:evenodd;clip-rule:evenodd;fill:#630F50;" d="M132.35,77.4c0.534,0.5,0.7,1.067,0.5,1.7l-0.699,2.35
					l1.55,1.9c0.434,0.567,0.5,1.15,0.2,1.75c-0.301,0.633-0.783,0.95-1.45,0.95L130,86.1l-1.3,2.05c-0.4,0.6-0.934,0.85-1.601,0.75
					c-0.399-0.067-0.716-0.217-0.949-0.45c-0.167-0.134-0.317-0.351-0.45-0.65l-0.8-2.3l-2.351-0.6
					c-0.333-0.133-0.566-0.267-0.7-0.4c-0.3-0.3-0.466-0.6-0.5-0.9c-0.166-0.667,0.034-1.217,0.601-1.65l1.95-1.5l-0.15-2.4
					c-0.066-0.7,0.217-1.216,0.85-1.55c0.634-0.333,1.217-0.3,1.75,0.1l2,1.35l2.301-0.85C131.25,76.833,131.816,76.934,132.35,77.4
					z"/>
				<linearGradient id="SVGID_10_" gradientUnits="userSpaceOnUse" x1="132.4512" y1="84.3184" x2="122.5262" y2="79.9934">
					<stop  offset="0" style="stop-color:#EDBF35"/>
					<stop  offset="0.2941" style="stop-color:#F0CA31"/>
					<stop  offset="0.8039" style="stop-color:#F9E728"/>
					<stop  offset="0.9647" style="stop-color:#FCF226"/>
				</linearGradient>
				<path style="fill-rule:evenodd;clip-rule:evenodd;fill:url(#SVGID_10_);" d="M125,77.2c0.267-0.167,0.583-0.167,0.95,0l2.3,1.65
					l2.65-1.05c0.399-0.1,0.717-0.033,0.949,0.2c0.268,0.233,0.351,0.533,0.25,0.9l-0.8,2.7l1.8,2.2
					c0.233,0.333,0.268,0.65,0.101,0.95c-0.167,0.333-0.434,0.5-0.8,0.5l-2.851,0.1l-1.5,2.4c-0.2,0.267-0.483,0.4-0.85,0.4
					l-0.55-0.25l-0.2-0.351l-0.95-2.7l-2.75-0.7l-0.35-0.2c-0.167-0.167-0.267-0.333-0.301-0.5c-0.066-0.367,0.051-0.667,0.351-0.9
					l2.25-1.7L124.55,78C124.483,77.633,124.634,77.367,125,77.2z"/>
				<path style="fill-rule:evenodd;clip-rule:evenodd;fill:#F5FAD7;" d="M125.55,77.6c-0.366,0.167-0.517,0.433-0.45,0.8l0.15,2.85
					l-2.25,1.7c-0.3,0.2-0.417,0.5-0.35,0.9l0.1,0.3l-0.35-0.2c-0.167-0.167-0.267-0.333-0.301-0.5
					c-0.066-0.367,0.051-0.667,0.351-0.9l2.25-1.7L124.55,78c-0.066-0.367,0.084-0.633,0.45-0.8c0.267-0.167,0.583-0.167,0.95,0
					l2.3,1.65l2.65-1.05c0.399-0.1,0.717-0.033,0.949,0.2l0.101,0.15l-0.5,0.05l-2.65,1.05l-2.35-1.65
					C126.15,77.4,125.85,77.4,125.55,77.6z"/>
			</g>
		</g>
	</g>
</g>
<g>
	<path style="fill-rule:evenodd;clip-rule:evenodd;fill:#ECF8BD;" d="M115.15,67.3c1.866,0.867,2.8,2.35,2.8,4.45
		c0,1.1-0.3,2.05-0.9,2.85l-2.399,6.5c-0.334,1.833-1.584,3.1-3.75,3.8v37.5c2.166,0.699,3.416,1.967,3.75,3.8l2.399,6.5
		c0.601,0.8,0.9,1.75,0.9,2.85c0,2.101-0.934,3.583-2.8,4.45c-1.467,0.7-4.334,1.3-8.601,1.8c-6.1,0.7-12.883,1.05-20.35,1.05
		c-7.434,0-14.2-0.35-20.3-1.05c-4.267-0.5-7.133-1.1-8.6-1.8c-1.866-0.867-2.8-2.35-2.8-4.45c0-1.033,0.267-1.95,0.8-2.75l2.45-7.3
		c0.3-0.934,0.817-1.633,1.55-2.1l0.55-0.351v-38.8c-0.2-0.1-0.467-0.283-0.8-0.55c-0.6-0.434-1.033-1.067-1.3-1.9l-2.45-7.3
		c-0.533-0.867-0.8-1.783-0.8-2.75c0-2.1,0.934-3.583,2.8-4.45c1.467-0.7,4.333-1.3,8.6-1.8c5.667-0.7,12.434-1.05,20.3-1.05
		c7.934,0,14.717,0.35,20.35,1.05C110.816,66,113.684,66.6,115.15,67.3z"/>
	
		<linearGradient id="SVGID_11_" gradientUnits="userSpaceOnUse" x1="-141.9355" y1="86.2266" x2="-63.5361" y2="86.2266" gradientTransform="matrix(1.275917e-005 -1 1 -0.001 -8.978396e-005 4.683650e-004)">
		<stop  offset="0" style="stop-color:#CA2897"/>
		<stop  offset="0.1686" style="stop-color:#D148A0"/>
		<stop  offset="0.5255" style="stop-color:#E58FB7"/>
		<stop  offset="0.902" style="stop-color:#FDDDD1"/>
	</linearGradient>
	<path style="fill-rule:evenodd;clip-rule:evenodd;fill:url(#SVGID_11_);" d="M115.15,66.3c1.866,0.9,2.8,2.4,2.8,4.5
		c0,1.067-0.3,2-0.9,2.8l-2.399,6.5c-0.334,1.833-1.584,3.1-3.75,3.8v37.5c2.166,0.699,3.416,1.967,3.75,3.8l2.399,6.5
		c0.601,0.8,0.9,1.75,0.9,2.85c0,2.101-0.934,3.601-2.8,4.5c-1.5,0.7-4.367,1.3-8.601,1.8c-5.8,0.667-12.583,1-20.35,1
		c-7.733,0-14.5-0.333-20.3-1c-4.233-0.5-7.1-1.1-8.6-1.8c-1.866-0.899-2.8-2.399-2.8-4.5c0-0.967,0.267-1.883,0.8-2.75l2.45-7.3
		c0.333-0.9,0.85-1.583,1.55-2.05l0.55-0.4v-38.8c-0.2-0.1-0.467-0.283-0.8-0.55c-0.6-0.467-1.033-1.1-1.3-1.9l-2.45-7.25
		c-0.533-0.866-0.8-1.783-0.8-2.75c0-2.1,0.934-3.6,2.8-4.5c1.467-0.7,4.333-1.3,8.6-1.8c6.1-0.7,12.867-1.05,20.3-1.05
		c7.467,0,14.25,0.35,20.35,1.05C110.816,65,113.684,65.6,115.15,66.3z"/>
	<path style="fill-rule:evenodd;clip-rule:evenodd;fill:none;stroke:#F7E0E7;stroke-width:0.25;" d="M115.15,66.3
		c-1.467-0.7-4.334-1.3-8.601-1.8c-6.1-0.7-12.883-1.05-20.35-1.05c-7.434,0-14.2,0.35-20.3,1.05c-4.267,0.5-7.133,1.1-8.6,1.8
		c-1.866,0.9-2.8,2.4-2.8,4.5c0,0.967,0.267,1.884,0.8,2.75l2.45,7.25c0.267,0.8,0.7,1.434,1.3,1.9c0.333,0.267,0.6,0.45,0.8,0.55
		v38.8l-0.55,0.4c-0.7,0.467-1.216,1.149-1.55,2.05l-2.45,7.3c-0.533,0.867-0.8,1.783-0.8,2.75c0,2.101,0.934,3.601,2.8,4.5
		c1.5,0.7,4.367,1.3,8.6,1.8c5.8,0.667,12.567,1,20.3,1c7.767,0,14.55-0.333,20.35-1c4.233-0.5,7.101-1.1,8.601-1.8
		c1.866-0.899,2.8-2.399,2.8-4.5c0-1.1-0.3-2.05-0.9-2.85l-2.399-6.5c-0.334-1.833-1.584-3.101-3.75-3.8V83.9
		c2.166-0.7,3.416-1.966,3.75-3.8l2.399-6.5c0.601-0.8,0.9-1.733,0.9-2.8C117.95,68.7,117.017,67.2,115.15,66.3z"/>
	<path style="fill-rule:evenodd;clip-rule:evenodd;fill:#22480E;" d="M114.05,69.45c0.733,0.333,1.101,0.783,1.101,1.35
		c0,0.3-0.134,0.583-0.4,0.85l-2.8,7.5c-0.033,0.434-0.283,0.784-0.75,1.05c-0.601,0.333-1.634,0.633-3.101,0.9v43.15
		c1.467,0.267,2.5,0.566,3.101,0.9c0.467,0.267,0.717,0.616,0.75,1.05l2.8,7.5c0.267,0.267,0.4,0.55,0.4,0.85
		c0,0.567-0.367,1.017-1.101,1.351c-1.3,0.566-3.883,1.083-7.75,1.55c-5.733,0.667-12.433,1-20.1,1c-7.633,0-14.317-0.333-20.05-1
		c-3.867-0.467-6.45-0.983-7.75-1.55c-0.733-0.334-1.1-0.783-1.1-1.351c0-0.3,0.134-0.583,0.4-0.85l2.65-7.9
		c0.067-0.2,0.183-0.333,0.35-0.399c0.4-0.334,1.05-0.617,1.95-0.851V80.8c-1.033-0.3-1.7-0.6-2-0.9
		c-0.167-0.1-0.267-0.216-0.3-0.35l-2.65-7.9c-0.267-0.267-0.4-0.55-0.4-0.85c0-0.566,0.367-1.017,1.1-1.35
		c1.3-0.567,3.883-1.083,7.75-1.55c5.733-0.667,12.417-1,20.05-1c7.667,0,14.366,0.333,20.1,1
		C110.167,68.367,112.75,68.883,114.05,69.45z"/>
	<g>
		<path style="fill-rule:evenodd;clip-rule:evenodd;fill:#FFFFFF;" d="M114.25,71.15l-3,8.1H60.9l-2.7-8.1
			c-0.2-0.1-0.3-0.216-0.3-0.35c0-0.8,2.767-1.533,8.3-2.2c5.733-0.667,12.4-1,20-1c7.6,0,14.283,0.333,20.05,1
			c5.533,0.667,8.3,1.4,8.3,2.2C114.55,70.934,114.45,71.05,114.25,71.15z"/>
		<path style="fill-rule:evenodd;clip-rule:evenodd;fill:#FFFFFF;" d="M68.3,77.25c4.9-0.5,10.85-0.75,17.851-0.75
			c6.967,0,12.899,0.25,17.8,0.75c4.934,0.5,7.399,1.117,7.399,1.85c0,0.7-2.466,1.317-7.399,1.85c-4.967,0.5-10.9,0.75-17.8,0.75
			c-6.934,0-12.884-0.25-17.851-0.75c-4.933-0.533-7.4-1.15-7.4-1.85C60.9,78.367,63.367,77.75,68.3,77.25z"/>
		<path style="fill-rule:evenodd;clip-rule:evenodd;fill:#FFFFFF;" d="M69.95,78c4.5-0.4,9.95-0.6,16.35-0.6
			c6.367,0,11.817,0.2,16.351,0.6c4.5,0.4,6.75,0.867,6.75,1.4c0,0.567-2.25,1.05-6.75,1.45s-9.95,0.6-16.351,0.6
			c-6.433,0-11.883-0.2-16.35-0.6c-4.533-0.4-6.8-0.883-6.8-1.45C63.15,78.867,65.417,78.4,69.95,78z"/>
		<path style="fill-rule:evenodd;clip-rule:evenodd;fill:#FFFFFF;" d="M71.95,80.05c-4.067-0.433-6.1-0.95-6.1-1.55l0.05-0.05
			c4.567-0.7,11.367-1.05,20.4-1.05c9.934,0,16.95,0.4,21.05,1.2c-0.232,0.567-2.35,1.05-6.35,1.45c-4,0.4-8.783,0.6-14.35,0.6
			C80.883,80.65,75.983,80.45,71.95,80.05z"/>
		<path style="fill-rule:evenodd;clip-rule:evenodd;fill:#FFFFFF;" d="M61.75,75.5c0.233,0.733,0.15,1.167-0.25,1.3
			c-0.4,0.1-0.717-0.216-0.95-0.95c-0.1-0.3-0.116-0.583-0.05-0.85c0.033-0.233,0.133-0.383,0.3-0.45
			C61.2,74.383,61.517,74.7,61.75,75.5z"/>
		<path style="fill-rule:evenodd;clip-rule:evenodd;fill:#FFFFFF;" d="M65.2,74.8c0.066,0.367,0.033,0.684-0.1,0.95
			c-0.167,0.3-0.367,0.467-0.6,0.5S64.033,76.2,63.8,76c-0.233-0.233-0.366-0.517-0.4-0.85c-0.066-0.333-0.033-0.633,0.1-0.9
			c0.1-0.267,0.283-0.434,0.55-0.5c0.267-0.033,0.5,0.05,0.7,0.25C64.983,74.2,65.133,74.467,65.2,74.8z"/>
		<path style="fill-rule:evenodd;clip-rule:evenodd;fill:#FFFFFF;" d="M68.95,74.15c0.066,0.367,0.033,0.7-0.1,1
			c-0.167,0.333-0.383,0.517-0.65,0.55c-0.267,0.066-0.533-0.017-0.8-0.25c-0.233-0.233-0.383-0.517-0.45-0.85
			c-0.067-0.367-0.033-0.7,0.1-1c0.167-0.333,0.384-0.534,0.65-0.6c0.267-0.033,0.533,0.05,0.8,0.25
			C68.733,73.483,68.883,73.783,68.95,74.15z"/>
		<path style="fill-rule:evenodd;clip-rule:evenodd;fill:#FFFFFF;" d="M114.25,134.15c0.2,0.166,0.3,0.3,0.3,0.399
			c0,0.8-2.767,1.517-8.3,2.15c-5.733,0.667-12.417,1-20.05,1c-7.6,0-14.267-0.333-20-1c-5.533-0.634-8.3-1.351-8.3-2.15
			c0-0.1,0.1-0.233,0.3-0.399l2.7-8.051h50.35L114.25,134.15z"/>
		<path style="fill-rule:evenodd;clip-rule:evenodd;fill:#FFFFFF;" d="M103.95,124.4c4.934,0.5,7.399,1.116,7.399,1.85
			s-2.466,1.35-7.399,1.85c-4.9,0.5-10.833,0.75-17.8,0.75c-7,0-12.95-0.25-17.851-0.75c-4.933-0.5-7.4-1.116-7.4-1.85
			s2.467-1.35,7.4-1.85c4.9-0.5,10.85-0.75,17.851-0.75C93.117,123.65,99.05,123.9,103.95,124.4z"/>
		<path style="fill-rule:evenodd;clip-rule:evenodd;fill:#FFFFFF;" d="M102.65,124.5c4.5,0.4,6.75,0.867,6.75,1.4
			c0,0.566-2.25,1.05-6.75,1.449c-4.5,0.4-9.95,0.601-16.351,0.601c-6.433,0-11.883-0.2-16.35-0.601
			c-4.533-0.399-6.8-0.883-6.8-1.449c0-0.533,2.267-1,6.8-1.4c4.5-0.4,9.95-0.6,16.35-0.6C92.667,123.9,98.117,124.1,102.65,124.5z"
			/>
		<path style="fill-rule:evenodd;clip-rule:evenodd;fill:#FFFFFF;" d="M71.95,125.35c4.033-0.433,8.933-0.649,14.7-0.649
			c5.566,0,10.35,0.2,14.35,0.6c4,0.4,6.117,0.884,6.35,1.45c-4.1,0.8-11.116,1.2-21.05,1.2c-4.333,0-8.35-0.101-12.05-0.3
			c-3.566-0.2-6.35-0.467-8.35-0.801h-0.05C65.85,126.25,67.883,125.75,71.95,125.35z"/>
		<path style="fill-rule:evenodd;clip-rule:evenodd;fill:#FFFFFF;" d="M61.75,129.85c-0.233,0.733-0.55,1.051-0.95,0.95
			c-0.167-0.066-0.267-0.217-0.3-0.45c-0.066-0.267-0.05-0.55,0.05-0.85c0.233-0.767,0.55-1.1,0.95-1
			c0.167,0.066,0.267,0.217,0.3,0.45C61.867,129.25,61.85,129.55,61.75,129.85z"/>
		<path style="fill-rule:evenodd;clip-rule:evenodd;fill:#FFFFFF;" d="M65.2,130.55c-0.067,0.367-0.217,0.65-0.45,0.851
			c-0.2,0.199-0.433,0.267-0.7,0.199c-0.233-0.033-0.417-0.199-0.55-0.5c-0.133-0.267-0.167-0.566-0.1-0.899
			c0.067-0.333,0.2-0.617,0.4-0.851c0.233-0.199,0.467-0.283,0.7-0.25c0.233,0.067,0.434,0.233,0.6,0.5
			C65.233,129.867,65.267,130.184,65.2,130.55z"/>
		<path style="fill-rule:evenodd;clip-rule:evenodd;fill:#FFFFFF;" d="M68.95,131.2c-0.067,0.366-0.217,0.667-0.45,0.899
			c-0.267,0.2-0.533,0.268-0.8,0.2c-0.267-0.033-0.483-0.217-0.65-0.55c-0.133-0.3-0.167-0.633-0.1-1
			c0.066-0.367,0.217-0.667,0.45-0.9c0.267-0.199,0.534-0.267,0.8-0.199c0.267,0.066,0.483,0.25,0.65,0.55
			C68.983,130.5,69.017,130.833,68.95,131.2z"/>
		<path style="fill-rule:evenodd;clip-rule:evenodd;fill:#FFFFFF;" d="M71.95,77.65c4.133-0.333,8.7-0.5,13.7-0.5
			c10.3,0,17.583,0.534,21.85,1.6v47.75c-4.366,1.033-11.65,1.55-21.85,1.55c-10.966,0-18.433-0.566-22.4-1.7V78.9
			C65.05,78.4,67.95,77.983,71.95,77.65z"/>
		<path style="fill-rule:evenodd;clip-rule:evenodd;fill:#FFFFFF;" d="M100.8,103.9c0,7.133-1.5,13.199-4.5,18.199
			c-2.967,5.033-6.566,7.551-10.8,7.551s-7.85-2.518-10.85-7.551c-3-5-4.5-11.066-4.5-18.199c0-7.101,1.5-13.167,4.5-18.2
			s6.617-7.55,10.85-7.55s7.833,2.517,10.8,7.55C99.3,90.733,100.8,96.8,100.8,103.9z"/>
		<path style="fill-rule:evenodd;clip-rule:evenodd;fill:#FFFFFF;" d="M77.45,86.8c0,0.934-0.267,1.717-0.8,2.351
			c-0.5,0.633-1.133,0.949-1.9,0.949s-1.417-0.316-1.95-0.949C72.267,88.517,72,87.733,72,86.8c0-0.9,0.267-1.667,0.8-2.3
			c0.567-0.667,1.217-1,1.95-1s1.367,0.333,1.9,1C77.184,85.133,77.45,85.9,77.45,86.8z"/>
		<path style="fill-rule:evenodd;clip-rule:evenodd;fill:#FFFFFF;" d="M71.2,96.8c0,0.434-0.133,0.817-0.4,1.15
			c-0.233,0.3-0.533,0.45-0.9,0.45s-0.683-0.15-0.95-0.45c-0.267-0.333-0.4-0.717-0.4-1.15c0-0.433,0.134-0.8,0.4-1.1
			s0.583-0.45,0.95-0.45s0.667,0.15,0.9,0.45C71.067,96,71.2,96.367,71.2,96.8z"/>
		<path style="fill-rule:evenodd;clip-rule:evenodd;fill:#FFFFFF;" d="M72.45,82.2c0,1.267-0.367,2.35-1.1,3.25
			c-0.733,0.9-1.617,1.35-2.65,1.35s-1.917-0.45-2.65-1.35c-0.733-0.9-1.1-1.983-1.1-3.25s0.367-2.35,1.1-3.25
			c0.733-0.9,1.617-1.35,2.65-1.35s1.917,0.45,2.65,1.35C72.083,79.85,72.45,80.934,72.45,82.2z"/>
		<path style="fill-rule:evenodd;clip-rule:evenodd;fill:#FFFFFF;" d="M101.6,80.85c0,0.733-0.199,1.35-0.6,1.85
			c-0.434,0.5-0.95,0.75-1.55,0.75c-0.601,0-1.101-0.25-1.5-0.75c-0.434-0.5-0.65-1.117-0.65-1.85s0.217-1.35,0.65-1.85
			c0.399-0.533,0.899-0.8,1.5-0.8c0.6,0,1.116,0.267,1.55,0.8C101.4,79.5,101.6,80.117,101.6,80.85z"/>
		<path style="fill-rule:evenodd;clip-rule:evenodd;fill:#FFFFFF;" d="M106.6,90.25c0,1.6-0.466,2.967-1.399,4.1
			c-0.934,1.101-2.066,1.65-3.4,1.65c-1.3,0-2.416-0.55-3.35-1.65c-0.934-1.133-1.4-2.5-1.4-4.1s0.467-2.967,1.4-4.1
			s2.05-1.7,3.35-1.7c1.334,0,2.467,0.566,3.4,1.7S106.6,88.65,106.6,90.25z"/>
		<path style="fill-rule:evenodd;clip-rule:evenodd;fill:#FFFFFF;" d="M96.6,122.9c0,1.232-0.366,2.283-1.1,3.149
			c-0.7,0.9-1.566,1.351-2.6,1.351s-1.9-0.45-2.601-1.351c-0.733-0.866-1.1-1.917-1.1-3.149c0-1.233,0.366-2.301,1.1-3.2
			c0.7-0.867,1.567-1.3,2.601-1.3s1.899,0.433,2.6,1.3C96.233,120.6,96.6,121.667,96.6,122.9z"/>
		<path style="fill-rule:evenodd;clip-rule:evenodd;fill:#FFFFFF;" d="M72.9,119.3c0,1.367-0.4,2.55-1.2,3.55
			c-0.8,0.967-1.767,1.45-2.9,1.45c-1.133,0-2.083-0.483-2.85-1.45c-0.8-1-1.2-2.183-1.2-3.55c0-1.366,0.4-2.533,1.2-3.5
			c0.767-0.967,1.717-1.45,2.85-1.45c1.134,0,2.1,0.483,2.9,1.45C72.5,116.767,72.9,117.934,72.9,119.3z"/>
		<path style="fill-rule:evenodd;clip-rule:evenodd;fill:#FFFFFF;" d="M77.8,110.85c0,0.667-0.2,1.25-0.6,1.75
			c-0.367,0.467-0.833,0.7-1.4,0.7c-0.566,0-1.05-0.233-1.45-0.7c-0.4-0.5-0.6-1.083-0.6-1.75c0-0.666,0.2-1.25,0.6-1.75
			c0.4-0.467,0.883-0.699,1.45-0.699c0.567,0,1.034,0.232,1.4,0.699C77.6,109.6,77.8,110.184,77.8,110.85z"/>
		<path style="fill-rule:evenodd;clip-rule:evenodd;fill:#FFFFFF;" d="M100.75,109.25c0,0.767-0.217,1.4-0.65,1.9
			c-0.433,0.533-0.966,0.8-1.6,0.8c-0.6,0-1.116-0.267-1.55-0.8s-0.65-1.167-0.65-1.9s0.217-1.367,0.65-1.9s0.95-0.8,1.55-0.8
			c0.634,0,1.167,0.267,1.6,0.8C100.533,107.883,100.75,108.517,100.75,109.25z"/>
		<path style="fill-rule:evenodd;clip-rule:evenodd;fill:#FFFFFF;" d="M105.85,115.9c0,1.267-0.366,2.333-1.1,3.199
			c-0.7,0.867-1.566,1.301-2.6,1.301s-1.9-0.434-2.601-1.301c-0.733-0.866-1.1-1.933-1.1-3.199c0-1.233,0.366-2.301,1.1-3.2
			c0.7-0.867,1.567-1.3,2.601-1.3s1.899,0.433,2.6,1.3C105.483,113.6,105.85,114.667,105.85,115.9z"/>
	</g>
	<g>
		
			<radialGradient id="SVGID_12_" cx="88.1895" cy="71.7197" r="33.8937" gradientTransform="matrix(0.9998 0.0192 -0.0417 0.461 -3.4845 38.5457)" gradientUnits="userSpaceOnUse">
			<stop  offset="0" style="stop-color:#706D66"/>
			<stop  offset="0.2549" style="stop-color:#737169"/>
			<stop  offset="0.498" style="stop-color:#7F7C74"/>
			<stop  offset="0.7373" style="stop-color:#928E85"/>
			<stop  offset="0.9686" style="stop-color:#ACA89D"/>
			<stop  offset="1" style="stop-color:#B0ACA0"/>
		</radialGradient>
		<path style="fill-rule:evenodd;clip-rule:evenodd;fill:url(#SVGID_12_);" d="M114.25,71.15l-3,8.1H60.9l-2.7-8.1
			c-0.2-0.1-0.3-0.216-0.3-0.35c0-0.8,2.767-1.533,8.3-2.2c5.733-0.667,12.4-1,20-1c7.6,0,14.283,0.333,20.05,1
			c5.533,0.667,8.3,1.4,8.3,2.2C114.55,70.934,114.45,71.05,114.25,71.15z"/>
		<path style="fill-rule:evenodd;clip-rule:evenodd;fill:#A5A297;" d="M68.3,77.25c4.9-0.5,10.85-0.75,17.851-0.75
			c6.967,0,12.899,0.25,17.8,0.75c4.934,0.5,7.399,1.117,7.399,1.85c0,0.7-2.466,1.317-7.399,1.85c-4.967,0.5-10.9,0.75-17.8,0.75
			c-6.934,0-12.884-0.25-17.851-0.75c-4.933-0.533-7.4-1.15-7.4-1.85C60.9,78.367,63.367,77.75,68.3,77.25z"/>
		<linearGradient id="SVGID_13_" gradientUnits="userSpaceOnUse" x1="63.1499" y1="79.4248" x2="109.4004" y2="79.4248">
			<stop  offset="0" style="stop-color:#66645E"/>
			<stop  offset="0.4157" style="stop-color:#7A7870"/>
			<stop  offset="1" style="stop-color:#9E9B90"/>
		</linearGradient>
		<path style="fill-rule:evenodd;clip-rule:evenodd;fill:url(#SVGID_13_);" d="M69.95,78c4.5-0.4,9.95-0.6,16.35-0.6
			c6.367,0,11.817,0.2,16.351,0.6c4.5,0.4,6.75,0.867,6.75,1.4c0,0.567-2.25,1.05-6.75,1.45s-9.95,0.6-16.351,0.6
			c-6.433,0-11.883-0.2-16.35-0.6c-4.533-0.4-6.8-0.883-6.8-1.45C63.15,78.867,65.417,78.4,69.95,78z"/>
		
			<radialGradient id="SVGID_14_" cx="74.2847" cy="-94.8193" r="4.9305" gradientTransform="matrix(-0.1318 0.9913 -4.6293 -0.1318 -343.6561 -9.7867)" gradientUnits="userSpaceOnUse">
			<stop  offset="0" style="stop-color:#FFFFFF"/>
			<stop  offset="0.1765" style="stop-color:#F6FFFF"/>
			<stop  offset="0.4745" style="stop-color:#DEFFFF"/>
			<stop  offset="0.8549" style="stop-color:#B8FFFF"/>
			<stop  offset="1" style="stop-color:#A8FFFF"/>
		</radialGradient>
		<path style="fill-rule:evenodd;clip-rule:evenodd;fill:url(#SVGID_14_);" d="M71.95,80.05c-4.067-0.433-6.1-0.95-6.1-1.55
			l0.05-0.05c4.567-0.7,11.367-1.05,20.4-1.05c9.934,0,16.95,0.4,21.05,1.2c-0.232,0.567-2.35,1.05-6.35,1.45
			c-4,0.4-8.783,0.6-14.35,0.6C80.883,80.65,75.983,80.45,71.95,80.05z"/>
		
			<radialGradient id="SVGID_15_" cx="37.7324" cy="90.0947" r="0.692" gradientTransform="matrix(0.9573 -0.289 -0.4335 -1.4992 64.0847 221.6264)" gradientUnits="userSpaceOnUse">
			<stop  offset="0" style="stop-color:#FFFFFF"/>
			<stop  offset="0.1765" style="stop-color:#F6FFFF"/>
			<stop  offset="0.4745" style="stop-color:#DEFFFF"/>
			<stop  offset="0.8549" style="stop-color:#B8FFFF"/>
			<stop  offset="1" style="stop-color:#A8FFFF"/>
		</radialGradient>
		<path style="fill-rule:evenodd;clip-rule:evenodd;fill:url(#SVGID_15_);" d="M61.75,75.5c0.233,0.733,0.15,1.167-0.25,1.3
			c-0.4,0.1-0.717-0.216-0.95-0.95c-0.1-0.3-0.116-0.583-0.05-0.85c0.033-0.233,0.133-0.383,0.3-0.45
			C61.2,74.383,61.517,74.7,61.75,75.5z"/>
		
			<radialGradient id="SVGID_16_" cx="49.4395" cy="86.1538" r="1.0192" gradientTransform="matrix(0.9806 -0.1961 -0.2084 -1.1154 33.7747 180.7922)" gradientUnits="userSpaceOnUse">
			<stop  offset="0" style="stop-color:#FFFFFF"/>
			<stop  offset="0.1765" style="stop-color:#F6FFFF"/>
			<stop  offset="0.4745" style="stop-color:#DEFFFF"/>
			<stop  offset="0.8549" style="stop-color:#B8FFFF"/>
			<stop  offset="1" style="stop-color:#A8FFFF"/>
		</radialGradient>
		<path style="fill-rule:evenodd;clip-rule:evenodd;fill:url(#SVGID_16_);" d="M65.2,74.8c0.066,0.367,0.033,0.684-0.1,0.95
			c-0.167,0.3-0.367,0.467-0.6,0.5S64.033,76.2,63.8,76c-0.233-0.233-0.366-0.517-0.4-0.85c-0.066-0.333-0.033-0.633,0.1-0.9
			c0.1-0.267,0.283-0.434,0.55-0.5c0.267-0.033,0.5,0.05,0.7,0.25C64.983,74.2,65.133,74.467,65.2,74.8z"/>
		
			<radialGradient id="SVGID_17_" cx="53.2632" cy="86.8994" r="1.1368" gradientTransform="matrix(0.978 -0.2088 -0.1978 -1.0659 33.0487 178.0952)" gradientUnits="userSpaceOnUse">
			<stop  offset="0" style="stop-color:#FFFFFF"/>
			<stop  offset="0.1765" style="stop-color:#F6FFFF"/>
			<stop  offset="0.4745" style="stop-color:#DEFFFF"/>
			<stop  offset="0.8549" style="stop-color:#B8FFFF"/>
			<stop  offset="1" style="stop-color:#A8FFFF"/>
		</radialGradient>
		<path style="fill-rule:evenodd;clip-rule:evenodd;fill:url(#SVGID_17_);" d="M68.95,74.15c0.066,0.367,0.033,0.7-0.1,1
			c-0.167,0.333-0.383,0.517-0.65,0.55c-0.267,0.066-0.533-0.017-0.8-0.25c-0.233-0.233-0.383-0.517-0.45-0.85
			c-0.067-0.367-0.033-0.7,0.1-1c0.167-0.333,0.384-0.534,0.65-0.6c0.267-0.033,0.533,0.05,0.8,0.25
			C68.733,73.483,68.883,73.783,68.95,74.15z"/>
		
			<radialGradient id="SVGID_18_" cx="69.6548" cy="133.5928" r="33.8937" gradientTransform="matrix(0.9998 -0.0192 -0.0417 -0.461 17.6258 194.9722)" gradientUnits="userSpaceOnUse">
			<stop  offset="0" style="stop-color:#706D66"/>
			<stop  offset="0.2549" style="stop-color:#737169"/>
			<stop  offset="0.498" style="stop-color:#7F7C74"/>
			<stop  offset="0.7373" style="stop-color:#928E85"/>
			<stop  offset="0.9686" style="stop-color:#ACA89D"/>
			<stop  offset="1" style="stop-color:#B0ACA0"/>
		</radialGradient>
		<path style="fill-rule:evenodd;clip-rule:evenodd;fill:url(#SVGID_18_);" d="M114.25,134.15c0.2,0.166,0.3,0.3,0.3,0.399
			c0,0.8-2.767,1.517-8.3,2.15c-5.733,0.667-12.417,1-20.05,1c-7.6,0-14.267-0.333-20-1c-5.533-0.634-8.3-1.351-8.3-2.15
			c0-0.1,0.1-0.233,0.3-0.399l2.7-8.051h50.35L114.25,134.15z"/>
		<path style="fill-rule:evenodd;clip-rule:evenodd;fill:#A5A297;" d="M103.95,124.4c4.934,0.5,7.399,1.116,7.399,1.85
			s-2.466,1.35-7.399,1.85c-4.9,0.5-10.833,0.75-17.8,0.75c-7,0-12.95-0.25-17.851-0.75c-4.933-0.5-7.4-1.116-7.4-1.85
			s2.467-1.35,7.4-1.85c4.9-0.5,10.85-0.75,17.851-0.75C93.117,123.65,99.05,123.9,103.95,124.4z"/>
		<linearGradient id="SVGID_19_" gradientUnits="userSpaceOnUse" x1="63.1499" y1="125.9258" x2="109.4004" y2="125.9258">
			<stop  offset="0" style="stop-color:#66645E"/>
			<stop  offset="0.4157" style="stop-color:#7A7870"/>
			<stop  offset="1" style="stop-color:#9E9B90"/>
		</linearGradient>
		<path style="fill-rule:evenodd;clip-rule:evenodd;fill:url(#SVGID_19_);" d="M102.65,124.5c4.5,0.4,6.75,0.867,6.75,1.4
			c0,0.566-2.25,1.05-6.75,1.449c-4.5,0.4-9.95,0.601-16.351,0.601c-6.433,0-11.883-0.2-16.35-0.601
			c-4.533-0.399-6.8-0.883-6.8-1.449c0-0.533,2.267-1,6.8-1.4c4.5-0.4,9.95-0.6,16.35-0.6C92.667,123.9,98.117,124.1,102.65,124.5z"
			/>
		
			<radialGradient id="SVGID_20_" cx="-132.0415" cy="67.7539" r="4.9305" gradientTransform="matrix(-0.1318 -0.9913 -4.6293 0.1318 381.7467 -10.8711)" gradientUnits="userSpaceOnUse">
			<stop  offset="0" style="stop-color:#FFFFFF"/>
			<stop  offset="0.1765" style="stop-color:#F6FFFF"/>
			<stop  offset="0.4745" style="stop-color:#DEFFFF"/>
			<stop  offset="0.8549" style="stop-color:#B8FFFF"/>
			<stop  offset="1" style="stop-color:#A8FFFF"/>
		</radialGradient>
		<path style="fill-rule:evenodd;clip-rule:evenodd;fill:url(#SVGID_20_);" d="M71.95,125.35c4.033-0.433,8.933-0.649,14.7-0.649
			c5.566,0,10.35,0.2,14.35,0.6c4,0.4,6.117,0.884,6.35,1.45c-4.1,0.8-11.116,1.2-21.05,1.2c-4.333,0-8.35-0.101-12.05-0.3
			c-3.566-0.2-6.35-0.467-8.35-0.801h-0.05C65.85,126.25,67.883,125.75,71.95,125.35z"/>
		
			<radialGradient id="SVGID_21_" cx="94.7637" cy="106.4453" r="0.692" gradientTransform="matrix(0.9573 0.289 -0.4335 1.4992 16.5744 -57.3208)" gradientUnits="userSpaceOnUse">
			<stop  offset="0" style="stop-color:#FFFFFF"/>
			<stop  offset="0.1765" style="stop-color:#F6FFFF"/>
			<stop  offset="0.4745" style="stop-color:#DEFFFF"/>
			<stop  offset="0.8549" style="stop-color:#B8FFFF"/>
			<stop  offset="1" style="stop-color:#A8FFFF"/>
		</radialGradient>
		<path style="fill-rule:evenodd;clip-rule:evenodd;fill:url(#SVGID_21_);" d="M61.75,129.85c-0.233,0.733-0.55,1.051-0.95,0.95
			c-0.167-0.066-0.267-0.217-0.3-0.45c-0.066-0.267-0.05-0.55,0.05-0.85c0.233-0.767,0.55-1.1,0.95-1
			c0.167,0.066,0.267,0.217,0.3,0.45C61.867,129.25,61.85,129.55,61.75,129.85z"/>
		
			<radialGradient id="SVGID_22_" cx="87.1504" cy="115.208" r="1.0198" gradientTransform="matrix(0.9806 0.1961 -0.2084 1.1154 2.8482 -15.2462)" gradientUnits="userSpaceOnUse">
			<stop  offset="0" style="stop-color:#FFFFFF"/>
			<stop  offset="0.1765" style="stop-color:#F6FFFF"/>
			<stop  offset="0.4745" style="stop-color:#DEFFFF"/>
			<stop  offset="0.8549" style="stop-color:#B8FFFF"/>
			<stop  offset="1" style="stop-color:#A8FFFF"/>
		</radialGradient>
		<path style="fill-rule:evenodd;clip-rule:evenodd;fill:url(#SVGID_22_);" d="M65.2,130.55c-0.067,0.367-0.217,0.65-0.45,0.851
			c-0.2,0.199-0.433,0.267-0.7,0.199c-0.233-0.033-0.417-0.199-0.55-0.5c-0.133-0.267-0.167-0.566-0.1-0.899
			c0.067-0.333,0.2-0.617,0.4-0.851c0.233-0.199,0.467-0.283,0.7-0.25c0.233,0.067,0.434,0.233,0.6,0.5
			C65.233,129.867,65.267,130.184,65.2,130.55z"/>
		
			<radialGradient id="SVGID_23_" cx="90.7344" cy="113.8779" r="1.1376" gradientTransform="matrix(0.978 0.2088 -0.1978 1.0659 1.7394 -9.3723)" gradientUnits="userSpaceOnUse">
			<stop  offset="0" style="stop-color:#FFFFFF"/>
			<stop  offset="0.1765" style="stop-color:#F6FFFF"/>
			<stop  offset="0.4745" style="stop-color:#DEFFFF"/>
			<stop  offset="0.8549" style="stop-color:#B8FFFF"/>
			<stop  offset="1" style="stop-color:#A8FFFF"/>
		</radialGradient>
		<path style="fill-rule:evenodd;clip-rule:evenodd;fill:url(#SVGID_23_);" d="M68.95,131.2c-0.067,0.366-0.217,0.667-0.45,0.899
			c-0.267,0.2-0.533,0.268-0.8,0.2c-0.267-0.033-0.483-0.217-0.65-0.55c-0.133-0.3-0.167-0.633-0.1-1
			c0.066-0.367,0.217-0.667,0.45-0.9c0.267-0.199,0.534-0.267,0.8-0.199c0.267,0.066,0.483,0.25,0.65,0.55
			C68.983,130.5,69.017,130.833,68.95,131.2z"/>
		
			<radialGradient id="SVGID_24_" cx="85.375" cy="102.5996" r="21.5855" gradientTransform="matrix(1 0 0 -1.2115 0 226.8961)" gradientUnits="userSpaceOnUse">
			<stop  offset="0" style="stop-color:#FFFFFF;stop-opacity:0.6588"/>
			<stop  offset="0.1137" style="stop-color:#F6FDFE;stop-opacity:0.6588"/>
			<stop  offset="0.302" style="stop-color:#DDF8FA;stop-opacity:0.6588"/>
			<stop  offset="0.5451" style="stop-color:#B6F0F5;stop-opacity:0.6588"/>
			<stop  offset="0.8314" style="stop-color:#82E5ED;stop-opacity:0.6588"/>
			<stop  offset="1" style="stop-color:#64DDE8;stop-opacity:0.6588"/>
		</radialGradient>
		<path style="fill-rule:evenodd;clip-rule:evenodd;fill:url(#SVGID_24_);" d="M71.95,77.65c4.133-0.333,8.7-0.5,13.7-0.5
			c10.3,0,17.583,0.534,21.85,1.6v47.75c-4.366,1.033-11.65,1.55-21.85,1.55c-10.966,0-18.433-0.566-22.4-1.7V78.9
			C65.05,78.4,67.95,77.983,71.95,77.65z"/>
		
			<radialGradient id="SVGID_25_" cx="85.4746" cy="103.9004" r="15.3191" gradientTransform="matrix(1 0 0 -1.6824 0 278.7075)" gradientUnits="userSpaceOnUse">
			<stop  offset="0.0078" style="stop-color:#FFFFFF"/>
			<stop  offset="0.3529" style="stop-color:#E4FFFF;stop-opacity:0.9608"/>
			<stop  offset="1" style="stop-color:#C7FFFF;stop-opacity:0"/>
		</radialGradient>
		<path style="fill-rule:evenodd;clip-rule:evenodd;fill:url(#SVGID_25_);" d="M100.8,103.9c0,7.133-1.5,13.199-4.5,18.199
			c-2.967,5.033-6.566,7.551-10.8,7.551s-7.85-2.518-10.85-7.551c-3-5-4.5-11.066-4.5-18.199c0-7.101,1.5-13.167,4.5-18.2
			s6.617-7.55,10.85-7.55s7.833,2.517,10.8,7.55C99.3,90.733,100.8,96.8,100.8,103.9z"/>
		
			<radialGradient id="SVGID_26_" cx="74.75" cy="86.7998" r="2.7" gradientTransform="matrix(1 0 0 -1.2176 0 192.4866)" gradientUnits="userSpaceOnUse">
			<stop  offset="0.0078" style="stop-color:#FFFFFF;stop-opacity:0.9765"/>
			<stop  offset="0.6392" style="stop-color:#E4FFFF;stop-opacity:0.6392"/>
			<stop  offset="0.6706" style="stop-color:#DAFFFF;stop-opacity:0.4078"/>
			<stop  offset="0.7216" style="stop-color:#CFFFFF;stop-opacity:0.1725"/>
			<stop  offset="0.7961" style="stop-color:#C9FFFF;stop-opacity:0.0353"/>
			<stop  offset="1" style="stop-color:#C7FFFF;stop-opacity:0"/>
		</radialGradient>
		<path style="fill-rule:evenodd;clip-rule:evenodd;fill:url(#SVGID_26_);" d="M77.45,86.8c0,0.934-0.267,1.717-0.8,2.351
			c-0.5,0.633-1.133,0.949-1.9,0.949s-1.417-0.316-1.95-0.949C72.267,88.517,72,87.733,72,86.8c0-0.9,0.267-1.667,0.8-2.3
			c0.567-0.667,1.217-1,1.95-1s1.367,0.333,1.9,1C77.184,85.133,77.45,85.9,77.45,86.8z"/>
		
			<radialGradient id="SVGID_27_" cx="69.8999" cy="96.7998" r="1.3" gradientTransform="matrix(1 0 0 -1.2212 0 215.0073)" gradientUnits="userSpaceOnUse">
			<stop  offset="0.0078" style="stop-color:#FFFFFF;stop-opacity:0.549"/>
			<stop  offset="0.6392" style="stop-color:#E4FFFF;stop-opacity:0.6392"/>
			<stop  offset="0.6706" style="stop-color:#DAFFFF;stop-opacity:0.4078"/>
			<stop  offset="0.7216" style="stop-color:#CFFFFF;stop-opacity:0.1725"/>
			<stop  offset="0.7961" style="stop-color:#C9FFFF;stop-opacity:0.0353"/>
			<stop  offset="1" style="stop-color:#C7FFFF;stop-opacity:0"/>
		</radialGradient>
		<path style="fill-rule:evenodd;clip-rule:evenodd;fill:url(#SVGID_27_);" d="M71.2,96.8c0,0.434-0.133,0.817-0.4,1.15
			c-0.233,0.3-0.533,0.45-0.9,0.45s-0.683-0.15-0.95-0.45c-0.267-0.333-0.4-0.717-0.4-1.15c0-0.433,0.134-0.8,0.4-1.1
			s0.583-0.45,0.95-0.45s0.667,0.15,0.9,0.45C71.067,96,71.2,96.367,71.2,96.8z"/>
		
			<radialGradient id="SVGID_28_" cx="68.7002" cy="82.2002" r="3.7625" gradientTransform="matrix(1 0 0 -1.2159 0 182.1512)" gradientUnits="userSpaceOnUse">
			<stop  offset="0.0078" style="stop-color:#FFFFFF;stop-opacity:0.9765"/>
			<stop  offset="0.6392" style="stop-color:#E4FFFF;stop-opacity:0.6392"/>
			<stop  offset="0.6706" style="stop-color:#DAFFFF;stop-opacity:0.4078"/>
			<stop  offset="0.7216" style="stop-color:#CFFFFF;stop-opacity:0.1725"/>
			<stop  offset="0.7961" style="stop-color:#C9FFFF;stop-opacity:0.0353"/>
			<stop  offset="1" style="stop-color:#C7FFFF;stop-opacity:0"/>
		</radialGradient>
		<path style="fill-rule:evenodd;clip-rule:evenodd;fill:url(#SVGID_28_);" d="M72.45,82.2c0,1.267-0.367,2.35-1.1,3.25
			c-0.733,0.9-1.617,1.35-2.65,1.35s-1.917-0.45-2.65-1.35c-0.733-0.9-1.1-1.983-1.1-3.25s0.367-2.35,1.1-3.25
			c0.733-0.9,1.617-1.35,2.65-1.35s1.917,0.45,2.65,1.35C72.083,79.85,72.45,80.934,72.45,82.2z"/>
		
			<radialGradient id="SVGID_29_" cx="99.4492" cy="80.8501" r="2.1504" gradientTransform="matrix(1 0 0 -1.2151 0 179.0924)" gradientUnits="userSpaceOnUse">
			<stop  offset="0.0078" style="stop-color:#FFFFFF;stop-opacity:0.9765"/>
			<stop  offset="0.6392" style="stop-color:#E4FFFF;stop-opacity:0.6392"/>
			<stop  offset="0.6706" style="stop-color:#DAFFFF;stop-opacity:0.4078"/>
			<stop  offset="0.7216" style="stop-color:#CFFFFF;stop-opacity:0.1725"/>
			<stop  offset="0.7961" style="stop-color:#C9FFFF;stop-opacity:0.0353"/>
			<stop  offset="1" style="stop-color:#C7FFFF;stop-opacity:0"/>
		</radialGradient>
		<path style="fill-rule:evenodd;clip-rule:evenodd;fill:url(#SVGID_29_);" d="M101.6,80.85c0,0.733-0.199,1.35-0.6,1.85
			c-0.434,0.5-0.95,0.75-1.55,0.75c-0.601,0-1.101-0.25-1.5-0.75c-0.434-0.5-0.65-1.117-0.65-1.85s0.217-1.35,0.65-1.85
			c0.399-0.533,0.899-0.8,1.5-0.8c0.6,0,1.116,0.267,1.55,0.8C101.4,79.5,101.6,80.117,101.6,80.85z"/>
		
			<radialGradient id="SVGID_30_" cx="101.7998" cy="90.25" r="4.7625" gradientTransform="matrix(1 0 0 -1.2152 0 199.9239)" gradientUnits="userSpaceOnUse">
			<stop  offset="0.0078" style="stop-color:#FFFFFF;stop-opacity:0.9765"/>
			<stop  offset="0.6392" style="stop-color:#E4FFFF;stop-opacity:0.6392"/>
			<stop  offset="0.6706" style="stop-color:#DAFFFF;stop-opacity:0.4078"/>
			<stop  offset="0.7216" style="stop-color:#CFFFFF;stop-opacity:0.1725"/>
			<stop  offset="0.7961" style="stop-color:#C9FFFF;stop-opacity:0.0353"/>
			<stop  offset="1" style="stop-color:#C7FFFF;stop-opacity:0"/>
		</radialGradient>
		<path style="fill-rule:evenodd;clip-rule:evenodd;fill:url(#SVGID_30_);" d="M106.6,90.25c0,1.6-0.466,2.967-1.399,4.1
			c-0.934,1.101-2.066,1.65-3.4,1.65c-1.3,0-2.416-0.55-3.35-1.65c-0.934-1.133-1.4-2.5-1.4-4.1s0.467-2.967,1.4-4.1
			s2.05-1.7,3.35-1.7c1.334,0,2.467,0.566,3.4,1.7S106.6,88.65,106.6,90.25z"/>
		
			<radialGradient id="SVGID_31_" cx="92.9004" cy="122.9004" r="3.7" gradientTransform="matrix(1 0 0 -1.2162 0 272.3738)" gradientUnits="userSpaceOnUse">
			<stop  offset="0.0078" style="stop-color:#FFFFFF;stop-opacity:0.9765"/>
			<stop  offset="0.6392" style="stop-color:#E4FFFF;stop-opacity:0.6392"/>
			<stop  offset="0.6706" style="stop-color:#DAFFFF;stop-opacity:0.4078"/>
			<stop  offset="0.7216" style="stop-color:#CFFFFF;stop-opacity:0.1725"/>
			<stop  offset="0.7961" style="stop-color:#C9FFFF;stop-opacity:0.0353"/>
			<stop  offset="1" style="stop-color:#C7FFFF;stop-opacity:0"/>
		</radialGradient>
		<path style="fill-rule:evenodd;clip-rule:evenodd;fill:url(#SVGID_31_);" d="M96.6,122.9c0,1.232-0.366,2.283-1.1,3.149
			c-0.7,0.9-1.566,1.351-2.6,1.351s-1.9-0.45-2.601-1.351c-0.733-0.866-1.1-1.917-1.1-3.149c0-1.233,0.366-2.301,1.1-3.2
			c0.7-0.867,1.567-1.3,2.601-1.3s1.899,0.433,2.6,1.3C96.233,120.6,96.6,121.667,96.6,122.9z"/>
		
			<radialGradient id="SVGID_32_" cx="68.7998" cy="119.2998" r="4.075" gradientTransform="matrix(1 0 0 -1.2147 0 264.2161)" gradientUnits="userSpaceOnUse">
			<stop  offset="0.0078" style="stop-color:#FFFFFF;stop-opacity:0.9765"/>
			<stop  offset="0.6392" style="stop-color:#E4FFFF;stop-opacity:0.6392"/>
			<stop  offset="0.6706" style="stop-color:#DAFFFF;stop-opacity:0.4078"/>
			<stop  offset="0.7216" style="stop-color:#CFFFFF;stop-opacity:0.1725"/>
			<stop  offset="0.7961" style="stop-color:#C9FFFF;stop-opacity:0.0353"/>
			<stop  offset="1" style="stop-color:#C7FFFF;stop-opacity:0"/>
		</radialGradient>
		<path style="fill-rule:evenodd;clip-rule:evenodd;fill:url(#SVGID_32_);" d="M72.9,119.3c0,1.367-0.4,2.55-1.2,3.55
			c-0.8,0.967-1.767,1.45-2.9,1.45c-1.133,0-2.083-0.483-2.85-1.45c-0.8-1-1.2-2.183-1.2-3.55c0-1.366,0.4-2.533,1.2-3.5
			c0.767-0.967,1.717-1.45,2.85-1.45c1.134,0,2.1,0.483,2.9,1.45C72.5,116.767,72.9,117.934,72.9,119.3z"/>
		
			<radialGradient id="SVGID_33_" cx="75.7998" cy="110.8496" r="2.0125" gradientTransform="matrix(1 0 0 -1.2174 0 245.797)" gradientUnits="userSpaceOnUse">
			<stop  offset="0.0078" style="stop-color:#FFFFFF;stop-opacity:0.9765"/>
			<stop  offset="0.6392" style="stop-color:#E4FFFF;stop-opacity:0.6392"/>
			<stop  offset="0.6706" style="stop-color:#DAFFFF;stop-opacity:0.4078"/>
			<stop  offset="0.7216" style="stop-color:#CFFFFF;stop-opacity:0.1725"/>
			<stop  offset="0.7961" style="stop-color:#C9FFFF;stop-opacity:0.0353"/>
			<stop  offset="1" style="stop-color:#C7FFFF;stop-opacity:0"/>
		</radialGradient>
		<path style="fill-rule:evenodd;clip-rule:evenodd;fill:url(#SVGID_33_);" d="M77.8,110.85c0,0.667-0.2,1.25-0.6,1.75
			c-0.367,0.467-0.833,0.7-1.4,0.7c-0.566,0-1.05-0.233-1.45-0.7c-0.4-0.5-0.6-1.083-0.6-1.75c0-0.666,0.2-1.25,0.6-1.75
			c0.4-0.467,0.883-0.699,1.45-0.699c0.567,0,1.034,0.232,1.4,0.699C77.6,109.6,77.8,110.184,77.8,110.85z"/>
		
			<radialGradient id="SVGID_34_" cx="98.5" cy="109.25" r="2.2125" gradientTransform="matrix(1 0 0 -1.2147 0 241.9548)" gradientUnits="userSpaceOnUse">
			<stop  offset="0.0078" style="stop-color:#FFFFFF;stop-opacity:0.9765"/>
			<stop  offset="0.6392" style="stop-color:#E4FFFF;stop-opacity:0.6392"/>
			<stop  offset="0.6706" style="stop-color:#DAFFFF;stop-opacity:0.4078"/>
			<stop  offset="0.7216" style="stop-color:#CFFFFF;stop-opacity:0.1725"/>
			<stop  offset="0.7961" style="stop-color:#C9FFFF;stop-opacity:0.0353"/>
			<stop  offset="1" style="stop-color:#C7FFFF;stop-opacity:0"/>
		</radialGradient>
		<path style="fill-rule:evenodd;clip-rule:evenodd;fill:url(#SVGID_34_);" d="M100.75,109.25c0,0.767-0.217,1.4-0.65,1.9
			c-0.433,0.533-0.966,0.8-1.6,0.8c-0.6,0-1.116-0.267-1.55-0.8s-0.65-1.167-0.65-1.9s0.217-1.367,0.65-1.9s0.95-0.8,1.55-0.8
			c0.634,0,1.167,0.267,1.6,0.8C100.533,107.883,100.75,108.517,100.75,109.25z"/>
		
			<radialGradient id="SVGID_35_" cx="102.1504" cy="115.9004" r="3.7" gradientTransform="matrix(1 0 0 -1.2162 0 256.8603)" gradientUnits="userSpaceOnUse">
			<stop  offset="0.0078" style="stop-color:#FFFFFF;stop-opacity:0.9765"/>
			<stop  offset="0.6392" style="stop-color:#E4FFFF;stop-opacity:0.6392"/>
			<stop  offset="0.6706" style="stop-color:#DAFFFF;stop-opacity:0.4078"/>
			<stop  offset="0.7216" style="stop-color:#CFFFFF;stop-opacity:0.1725"/>
			<stop  offset="0.7961" style="stop-color:#C9FFFF;stop-opacity:0.0353"/>
			<stop  offset="1" style="stop-color:#C7FFFF;stop-opacity:0"/>
		</radialGradient>
		<path style="fill-rule:evenodd;clip-rule:evenodd;fill:url(#SVGID_35_);" d="M105.85,115.9c0,1.267-0.366,2.333-1.1,3.199
			c-0.7,0.867-1.566,1.301-2.6,1.301s-1.9-0.434-2.601-1.301c-0.733-0.866-1.1-1.933-1.1-3.199c0-1.233,0.366-2.301,1.1-3.2
			c0.7-0.867,1.567-1.3,2.601-1.3s1.899,0.433,2.6,1.3C105.483,113.6,105.85,114.667,105.85,115.9z"/>
	</g>
</g>
<g>
	<g>
		<path style="fill-rule:evenodd;clip-rule:evenodd;fill:#FEE6FF;" d="M48.75,42.3c-0.733,0-1.3-0.233-1.7-0.7
			c-0.333-0.4-0.5-0.9-0.5-1.5s0.2-1.117,0.6-1.55c0.4-0.433,0.934-0.65,1.6-0.65h4.5c0.667,0,1.2,0.217,1.6,0.65
			c0.367,0.4,0.55,0.934,0.55,1.6v18.1c0,0.767-0.233,1.383-0.7,1.85c-0.434,0.433-1,0.65-1.7,0.65s-1.267-0.217-1.7-0.65
			c-0.466-0.467-0.7-1.083-0.7-1.85V42.3H48.75z"/>
		
			<linearGradient id="SVGID_36_" gradientUnits="userSpaceOnUse" x1="-60.751" y1="50.9775" x2="-37.351" y2="50.9775" gradientTransform="matrix(4.273505e-005 -1 1 -0.001 2.188767e-004 4.683650e-004)">
			<stop  offset="0.0745" style="stop-color:#6A034E"/>
			<stop  offset="0.2667" style="stop-color:#830B61"/>
			<stop  offset="0.6706" style="stop-color:#C22193"/>
			<stop  offset="0.9922" style="stop-color:#F934BE"/>
		</linearGradient>
		<path style="fill-rule:evenodd;clip-rule:evenodd;fill:url(#SVGID_36_);" d="M48.75,41.2c-0.733,0-1.3-0.233-1.7-0.7
			c-0.333-0.4-0.5-0.9-0.5-1.5c0-0.566,0.2-1.066,0.6-1.5c0.4-0.433,0.934-0.65,1.6-0.65h4.5c0.667,0,1.2,0.217,1.6,0.65
			c0.367,0.4,0.55,0.934,0.55,1.6v18.1c0,0.767-0.233,1.383-0.7,1.85c-0.434,0.434-1,0.65-1.7,0.65s-1.267-0.217-1.7-0.65
			c-0.466-0.466-0.7-1.083-0.7-1.85v-16H48.75z"/>
	</g>
	<g>
		<path style="fill-rule:evenodd;clip-rule:evenodd;fill:#FEE6FF;" d="M117.5,37.6c2.367,0,4.316,0.783,5.85,2.35
			c1.434,1.5,2.15,3.35,2.15,5.55s-0.95,4.85-2.85,7.95c-1.601,2.633-3.351,4.833-5.25,6.6c-0.233,0.233-0.567,0.483-1,0.75
			c-0.233,0.167-0.551,0.25-0.95,0.25c-0.467,0-0.95-0.25-1.45-0.75c-0.533-0.5-0.8-1.033-0.8-1.6c0-0.333,0.217-0.767,0.649-1.3
			c0.2-0.233,0.967-1.083,2.301-2.55c1-1.1,1.699-1.95,2.1-2.55l-0.05-0.05c-0.634,0.267-1.3,0.4-2,0.4
			c-1.867,0-3.45-0.716-4.75-2.15c-1.267-1.4-1.9-3.066-1.9-5c0-2.133,0.733-3.967,2.2-5.5C113.283,38.4,115.2,37.6,117.5,37.6z
			 M117.5,48.8c0.9,0,1.634-0.316,2.2-0.95s0.85-1.417,0.85-2.35c0-0.933-0.267-1.7-0.8-2.3c-0.566-0.667-1.316-1-2.25-1
			c-0.9,0-1.616,0.316-2.15,0.95c-0.566,0.633-0.85,1.417-0.85,2.35c0,0.9,0.25,1.667,0.75,2.3
			C115.816,48.467,116.566,48.8,117.5,48.8z"/>
		
			<linearGradient id="SVGID_37_" gradientUnits="userSpaceOnUse" x1="-60.9302" y1="117.5273" x2="-37.5052" y2="117.5273" gradientTransform="matrix(4.268944e-005 -1 1 -0.001 -1.508326e-004 4.683650e-004)">
			<stop  offset="0.0745" style="stop-color:#6A034E"/>
			<stop  offset="0.2667" style="stop-color:#830B61"/>
			<stop  offset="0.6706" style="stop-color:#C22193"/>
			<stop  offset="0.9922" style="stop-color:#F934BE"/>
		</linearGradient>
		<path style="fill-rule:evenodd;clip-rule:evenodd;fill:url(#SVGID_37_);" d="M117.5,36.55c2.367,0,4.316,0.784,5.85,2.35
			c1.434,1.5,2.15,3.35,2.15,5.55c0,2.2-0.95,4.85-2.85,7.95c-1.601,2.633-3.351,4.833-5.25,6.6c-0.233,0.233-0.567,0.483-1,0.75
			c-0.233,0.133-0.551,0.2-0.95,0.2c-0.467,0-0.95-0.233-1.45-0.7c-0.533-0.5-0.8-1.033-0.8-1.6c0-0.367,0.217-0.8,0.649-1.3
			c0.2-0.233,0.967-1.083,2.301-2.55c1-1.1,1.699-1.95,2.1-2.55l-0.05-0.05c-0.566,0.233-1.233,0.35-2,0.35
			c-1.9,0-3.483-0.716-4.75-2.15c-1.267-1.367-1.9-3.017-1.9-4.95c0-2.133,0.733-3.967,2.2-5.5
			C113.283,37.35,115.2,36.55,117.5,36.55z M117.5,47.75c0.9,0,1.634-0.316,2.2-0.95c0.566-0.633,0.85-1.417,0.85-2.35
			c0-0.934-0.267-1.717-0.8-2.35c-0.566-0.667-1.316-1-2.25-1c-0.866,0-1.583,0.333-2.15,1c-0.566,0.633-0.85,1.417-0.85,2.35
			c0,0.9,0.25,1.65,0.75,2.25C115.816,47.4,116.566,47.75,117.5,47.75z"/>
	</g>
	<g>
		<path style="fill-rule:evenodd;clip-rule:evenodd;fill:#FEE6FF;" d="M71.25,57.15c-1.533,2.6-3.75,3.9-6.65,3.9
			c-2.933,0-5.15-1.3-6.65-3.9c-1.2-2.133-1.8-4.75-1.8-7.85c0-3.1,0.6-5.7,1.8-7.8c1.5-2.6,3.717-3.9,6.65-3.9
			c2.9,0,5.117,1.3,6.65,3.9c1.2,2.133,1.8,4.733,1.8,7.8C73.05,52.4,72.45,55.017,71.25,57.15z M64.6,56.7
			c2.3,0,3.45-2.467,3.45-7.4c0-4.9-1.15-7.35-3.45-7.35c-2.333,0-3.5,2.45-3.5,7.35C61.1,54.233,62.267,56.7,64.6,56.7z"/>
		
			<linearGradient id="SVGID_38_" gradientUnits="userSpaceOnUse" x1="-60.877" y1="64.6025" x2="-37.452" y2="64.6025" gradientTransform="matrix(4.268944e-005 -1 1 -0.001 -1.508326e-004 4.683650e-004)">
			<stop  offset="0.0745" style="stop-color:#6A034E"/>
			<stop  offset="0.2667" style="stop-color:#830B61"/>
			<stop  offset="0.6706" style="stop-color:#C22193"/>
			<stop  offset="0.9922" style="stop-color:#F934BE"/>
		</linearGradient>
		<path style="fill-rule:evenodd;clip-rule:evenodd;fill:url(#SVGID_38_);" d="M71.25,56.05c-1.5,2.6-3.717,3.9-6.65,3.9
			s-5.15-1.3-6.65-3.9c-1.2-2.1-1.8-4.7-1.8-7.8s0.6-5.7,1.8-7.8c1.5-2.6,3.717-3.9,6.65-3.9s5.15,1.3,6.65,3.9
			c1.2,2.1,1.8,4.7,1.8,7.8S72.45,53.95,71.25,56.05z M64.6,55.65c2.3,0,3.45-2.466,3.45-7.4c0-4.933-1.15-7.4-3.45-7.4
			c-2.333,0-3.5,2.467-3.5,7.4C61.1,53.184,62.267,55.65,64.6,55.65z"/>
	</g>
	<g>
		<path style="fill-rule:evenodd;clip-rule:evenodd;fill:#FEE6FF;" d="M90.45,49.3c0,3.1-0.601,5.717-1.8,7.85
			c-1.5,2.6-3.717,3.9-6.65,3.9c-2.933,0-5.15-1.3-6.65-3.9c-1.2-2.133-1.8-4.75-1.8-7.85c0-3.1,0.6-5.7,1.8-7.8
			c1.5-2.6,3.717-3.9,6.65-3.9c2.934,0,5.15,1.3,6.65,3.9C89.85,43.6,90.45,46.2,90.45,49.3z M82,41.95c-2.3,0-3.45,2.45-3.45,7.35
			c0,4.934,1.15,7.4,3.45,7.4s3.45-2.467,3.45-7.4C85.45,44.4,84.3,41.95,82,41.95z"/>
		
			<linearGradient id="SVGID_39_" gradientUnits="userSpaceOnUse" x1="-60.8945" y1="82.0029" x2="-37.4695" y2="82.0029" gradientTransform="matrix(4.268944e-005 -1 1 -0.001 -1.508326e-004 4.683650e-004)">
			<stop  offset="0.0745" style="stop-color:#6A034E"/>
			<stop  offset="0.2667" style="stop-color:#830B61"/>
			<stop  offset="0.6706" style="stop-color:#C22193"/>
			<stop  offset="0.9922" style="stop-color:#F934BE"/>
		</linearGradient>
		<path style="fill-rule:evenodd;clip-rule:evenodd;fill:url(#SVGID_39_);" d="M90.45,48.25c0,3.1-0.601,5.7-1.8,7.8
			c-1.5,2.6-3.717,3.9-6.65,3.9c-2.933,0-5.15-1.3-6.65-3.9c-1.2-2.1-1.8-4.7-1.8-7.8s0.6-5.7,1.8-7.8c1.5-2.6,3.717-3.9,6.65-3.9
			c2.934,0,5.15,1.3,6.65,3.9C89.85,42.55,90.45,45.15,90.45,48.25z M82,40.85c-2.3,0-3.45,2.467-3.45,7.4
			c0,4.934,1.15,7.4,3.45,7.4s3.45-2.466,3.45-7.4C85.45,43.317,84.3,40.85,82,40.85z"/>
	</g>
	<g>
		<path style="fill-rule:evenodd;clip-rule:evenodd;fill:#FEE6FF;" d="M93.55,41.5c1.5-2.6,3.7-3.9,6.601-3.9
			c2.933,0,5.149,1.3,6.649,3.9c1.2,2.1,1.8,4.7,1.8,7.8c0,3.1-0.6,5.717-1.8,7.85c-1.5,2.6-3.717,3.9-6.649,3.9
			c-2.9,0-5.101-1.3-6.601-3.9c-1.2-2.133-1.8-4.75-1.8-7.85C91.75,46.233,92.35,43.633,93.55,41.5z M96.7,49.3
			c0,4.934,1.149,7.4,3.45,7.4c2.333,0,3.5-2.467,3.5-7.4c0-4.9-1.167-7.35-3.5-7.35C97.85,41.95,96.7,44.4,96.7,49.3z"/>
		
			<linearGradient id="SVGID_40_" gradientUnits="userSpaceOnUse" x1="-60.9126" y1="100.1777" x2="-37.4876" y2="100.1777" gradientTransform="matrix(4.268944e-005 -1 1 -0.001 -1.508326e-004 4.683650e-004)">
			<stop  offset="0.0745" style="stop-color:#6A034E"/>
			<stop  offset="0.2667" style="stop-color:#830B61"/>
			<stop  offset="0.6706" style="stop-color:#C22193"/>
			<stop  offset="0.9922" style="stop-color:#F934BE"/>
		</linearGradient>
		<path style="fill-rule:evenodd;clip-rule:evenodd;fill:url(#SVGID_40_);" d="M93.55,40.45c1.5-2.6,3.7-3.9,6.601-3.9
			c2.933,0,5.149,1.3,6.649,3.9c1.2,2.1,1.8,4.7,1.8,7.8s-0.6,5.7-1.8,7.8c-1.5,2.6-3.717,3.9-6.649,3.9c-2.9,0-5.101-1.3-6.601-3.9
			c-1.2-2.1-1.8-4.7-1.8-7.8S92.35,42.55,93.55,40.45z M96.7,48.25c0,4.934,1.149,7.4,3.45,7.4c2.333,0,3.5-2.466,3.5-7.4
			c0-4.933-1.167-7.4-3.5-7.4C97.85,40.85,96.7,43.317,96.7,48.25z"/>
	</g>
</g>
<g>
	
		<use xlink:href="#FlashAICB_x2F_Layer_68_x2F__x3C_Path_x3E__x5F_2"  width="118.7" height="57.15" y="-57.15" transform="matrix(1 0 0 -1 26.5498 87.25)" style="overflow:visible;opacity:0.2813;enable-background:new    ;"/>
	
		<use xlink:href="#FlashAICB_x2F_Layer_68_x2F__x3C_Path_x3E__x5F_1"  width="110" height="55.8" y="-55.8" transform="matrix(1 0 0 -1 30.7002 28.4502)" style="overflow:visible;opacity:0.1094;enable-background:new    ;"/>
	
		<use xlink:href="#FlashAICB_x2F_Layer_68_x2F__x3C_Path_x3E_"  width="110" height="61.294" y="-61.294" transform="matrix(1 0 0 -1 30.7002 28.4502)" style="overflow:visible;opacity:0.0898;enable-background:new    ;"/>
</g>
</svg>
