<?xml version="1.0" encoding="iso-8859-1"?>
<!-- Generator: Adobe Illustrator 15.1.0, SVG Export Plug-In . SVG Version: 6.00 Build 0)  -->
<!DOCTYPE svg PUBLIC "-//W3C//DTD SVG 1.1//EN" "http://www.w3.org/Graphics/SVG/1.1/DTD/svg11.dtd">
<svg version="1.1" id="Layer_36_copy_6" xmlns="http://www.w3.org/2000/svg" xmlns:xlink="http://www.w3.org/1999/xlink" x="0px"
	 y="0px" width="171.55px" height="171.5px" viewBox="0 0 171.55 171.5" style="enable-background:new 0 0 171.55 171.5;"
	 xml:space="preserve">
<symbol  id="FlashAICB_x2F_Layer_36_copy_6_x2F__x3C_Clip_Group_0_x3E_" viewBox="0 -118.65 118.85 118.65">
	<g id="Layer_1_3_">
	</g>
	<g>
		<defs>
			<path id="SVGID_1_" d="M101.45-17.4C89.85-5.8,75.85,0,59.45,0C43.017,0,29-5.8,17.4-17.4C5.8-28.967,0-42.95,0-59.35
				C0-75.717,5.8-89.7,17.4-101.3c11.6-11.567,25.617-17.35,42.05-17.35c16.4,0,30.4,5.783,42,17.35
				c11.6,11.6,17.4,25.583,17.4,41.95C118.85-42.95,113.05-28.967,101.45-17.4z"/>
		</defs>
		<clipPath id="SVGID_2_">
			<use xlink:href="#SVGID_1_"  style="overflow:visible;"/>
		</clipPath>
		<g id="Layer_3_2_" style="clip-path:url(#SVGID_2_);">
			<radialGradient id="SVGID_3_" cx="59.4248" cy="-59.3252" r="58.6623" gradientUnits="userSpaceOnUse">
				<stop  offset="0" style="stop-color:#DEEA89"/>
				<stop  offset="0.0353" style="stop-color:#DEEA89"/>
				<stop  offset="0.302" style="stop-color:#DEE986"/>
				<stop  offset="0.4627" style="stop-color:#E0E57E"/>
				<stop  offset="0.5922" style="stop-color:#E2DE71"/>
				<stop  offset="0.7098" style="stop-color:#E6D45D"/>
				<stop  offset="0.8118" style="stop-color:#EAC845"/>
				<stop  offset="0.8706" style="stop-color:#EDBF35"/>
				<stop  offset="1" style="stop-color:#EDBF35"/>
			</radialGradient>
			<polygon style="fill-rule:evenodd;clip-rule:evenodd;fill:url(#SVGID_3_);" points="0,0 118.85,0 118.85,-118.65 0,-118.65 			
				"/>
		</g>
	</g>
	<g id="Layer_4_2_">
	</g>
</symbol>
<symbol  id="FlashAICB_x2F_Layer_36_copy_6_x2F__x3C_Clip_Group_0_x3E__x5F_1" viewBox="0 -132.35 132.35 132.35">
	<g id="Layer_1_2_">
	</g>
	<g>
		<defs>
			<path id="SVGID_4_" d="M112.95-19.4C100.017-6.467,84.433,0,66.2,0C47.933,0,32.333-6.467,19.4-19.4
				C6.467-32.333,0-47.917,0-66.15c0-18.267,6.467-33.867,19.4-46.8c12.934-12.933,28.533-19.4,46.8-19.4
				c18.233,0,33.816,6.467,46.75,19.4c12.933,12.967,19.4,28.567,19.4,46.8S125.883-32.333,112.95-19.4z"/>
		</defs>
		<clipPath id="SVGID_5_">
			<use xlink:href="#SVGID_4_"  style="overflow:visible;"/>
		</clipPath>
		<g id="Layer_3_1_" style="clip-path:url(#SVGID_5_);">
			<linearGradient id="SVGID_6_" gradientUnits="userSpaceOnUse" x1="66.1748" y1="-132.3501" x2="66.1748" y2="0">
				<stop  offset="0" style="stop-color:#B1812F"/>
				<stop  offset="0.2941" style="stop-color:#C89A33"/>
				<stop  offset="0.6745" style="stop-color:#EDC13A"/>
				<stop  offset="0.9647" style="stop-color:#D7E989"/>
				<stop  offset="1" style="stop-color:#D7E989"/>
			</linearGradient>
			<polygon style="fill-rule:evenodd;clip-rule:evenodd;fill:url(#SVGID_6_);" points="0,-132.35 0,0 132.35,0 132.35,-132.35 			
				"/>
		</g>
	</g>
	<g id="Layer_4_1_">
	</g>
</symbol>
<symbol  id="FlashAICB_x2F_Layer_36_copy_6_x2F__x3C_Path_x3E_" viewBox="0 -61.294 110 61.294">
	<g id="Layer_1_6_">
		<path style="fill-rule:evenodd;clip-rule:evenodd;fill:#FFFFFF;" d="M106.5-34.35c2.333-5.633,3.5-10.95,3.5-15.95
			c0-4.934-1.45-8.05-4.35-9.35c-2.333-1.033-6.25-1.017-11.75,0.05c-7.267,1.767-13.1,3.117-17.5,4.05C68.4-53.85,61.267-53,55-53
			c-6.333,0-13.467-0.917-21.4-2.75c-8.333-2.2-14.167-3.683-17.5-4.45c-5.533-1.267-9.467-1.433-11.8-0.5
			C1.433-59.5,0-56.433,0-51.5c0,5.5,1.167,11.167,3.5,17c2.467,6.167,5.95,11.733,10.45,16.7C24.65-5.933,38.333,0,55,0
			c16.467,0,30.133-5.983,41-17.95C100.467-22.883,103.967-28.35,106.5-34.35z"/>
	</g>
</symbol>
<symbol  id="FlashAICB_x2F_Layer_36_copy_6_x2F__x3C_Path_x3E__x5F_1" viewBox="0 -55.75 110 55.75">
	<g id="Layer_1_5_">
		
			<linearGradient id="SVGID_7_" gradientUnits="userSpaceOnUse" x1="16165.2637" y1="-53.8555" x2="16221.0391" y2="-53.8555" gradientTransform="matrix(1.792918e-005 1 -1 -0.001 0.8545 -16221.1064)">
			<stop  offset="0.1294" style="stop-color:#E2B8B2"/>
			<stop  offset="0.9255" style="stop-color:#FFFFFF"/>
		</linearGradient>
		<path style="fill-rule:evenodd;clip-rule:evenodd;fill:url(#SVGID_7_);" d="M96-17.95c4.467-4.933,7.967-10.4,10.5-16.4
			c2.333-5.633,3.5-10.95,3.5-15.95c0-1.767-0.167-3.25-0.5-4.45c-1.867,11.067-7.267,20.9-16.2,29.5
			C82.767-15.117,70-10.05,55-10.05c-15.267,0-28.117-5.05-38.55-15.15C7.483-33.9,2.133-44.083,0.4-55.75
			C0.133-54.517,0-53.1,0-51.5c0,5.5,1.167,11.167,3.5,17c2.467,6.167,5.95,11.733,10.45,16.7C24.65-5.933,38.333,0,55,0
			C71.467,0,85.133-5.983,96-17.95z"/>
	</g>
</symbol>
<symbol  id="FlashAICB_x2F_Layer_36_copy_6_x2F__x3C_Path_x3E__x5F_2" viewBox="0 -57.1 118.65 57.1">
	<g id="Layer_1_4_">
		
			<radialGradient id="SVGID_8_" cx="59.3252" cy="-28.5498" r="46.554" gradientTransform="matrix(1 0 0 -1 0 -57.0996)" gradientUnits="userSpaceOnUse">
			<stop  offset="0" style="stop-color:#000000;stop-opacity:0"/>
			<stop  offset="0.651" style="stop-color:#000000;stop-opacity:0.4"/>
		</radialGradient>
		<path style="fill-rule:evenodd;clip-rule:evenodd;fill:url(#SVGID_8_);" d="M95.45-30.35c10.733,7.7,18.3,17.733,22.7,30.1
			l0.5,0.25c-0.566-15.9-6.6-29.383-18.1-40.45C89.05-51.55,75.3-57.1,59.3-57.1c-15.733,0-29.316,5.367-40.75,16.1
			C7.183-30.333,1-17.233,0-1.7c4.6-11.966,12.183-21.65,22.75-29.05C33.55-38.317,45.567-42.1,58.8-42.1
			C72.3-42.1,84.517-38.183,95.45-30.35z"/>
	</g>
</symbol>
<g>
	<path style="fill-rule:evenodd;clip-rule:evenodd;fill:#68757B;" d="M119.1,6.75c10.268,4.333,19.367,10.467,27.301,18.4
		c7.933,7.9,14.066,16.983,18.399,27.25c4.5,10.633,6.75,21.75,6.75,33.35c0,11.6-2.25,22.717-6.75,33.35
		c-4.333,10.268-10.467,19.351-18.399,27.25c-7.934,7.934-17.033,14.067-27.301,18.4c-10.633,4.5-21.75,6.75-33.35,6.75
		c-11.6,0-22.717-2.25-33.35-6.75c-10.233-4.333-19.316-10.467-27.25-18.4c-7.933-7.899-14.066-16.982-18.4-27.25
		C2.25,108.467,0,97.35,0,85.75c0-11.6,2.25-22.717,6.75-33.35c4.333-10.267,10.467-19.35,18.4-27.25
		c7.934-7.933,17.017-14.066,27.25-18.4C63.033,2.25,74.15,0,85.75,0C97.35,0,108.467,2.25,119.1,6.75z"/>
	
		<linearGradient id="SVGID_9_" gradientUnits="userSpaceOnUse" x1="-171.5854" y1="85.7754" x2="-0.0854" y2="85.7754" gradientTransform="matrix(5.830904e-006 -1 1 -0.001 -9.214067e-005 4.449275e-004)">
		<stop  offset="0.0039" style="stop-color:#4F1D1F"/>
		<stop  offset="0.2078" style="stop-color:#7D5F3C"/>
		<stop  offset="0.5569" style="stop-color:#B09A68"/>
		<stop  offset="0.7412" style="stop-color:#EEEDCF"/>
		<stop  offset="0.7922" style="stop-color:#E7E1AD"/>
		<stop  offset="1" style="stop-color:#B9A57A"/>
	</linearGradient>
	<path style="fill-rule:evenodd;clip-rule:evenodd;fill:url(#SVGID_9_);" d="M119.1,6.75c10.268,4.333,19.367,10.467,27.301,18.4
		c7.933,7.9,14.066,16.983,18.399,27.25c4.5,10.633,6.75,21.75,6.75,33.35c0,11.6-2.25,22.717-6.75,33.35
		c-4.333,10.268-10.467,19.351-18.399,27.25c-7.934,7.934-17.033,14.067-27.301,18.4c-10.633,4.5-21.75,6.75-33.35,6.75
		c-11.6,0-22.717-2.25-33.35-6.75c-10.233-4.333-19.316-10.467-27.25-18.4c-7.933-7.899-14.066-16.982-18.4-27.25
		C2.25,108.467,0,97.35,0,85.75c0-11.6,2.25-22.717,6.75-33.35c4.333-10.267,10.467-19.35,18.4-27.25
		c7.934-7.933,17.017-14.066,27.25-18.4C63.033,2.25,74.15,0,85.75,0C97.35,0,108.467,2.25,119.1,6.75z"/>
	<g>
		<g>
			
				<linearGradient id="SVGID_10_" gradientUnits="userSpaceOnUse" x1="-158.2358" y1="85.7759" x2="-13.4355" y2="85.7759" gradientTransform="matrix(6.906077e-006 -1 1 -0.001 -1.647736e-004 4.449275e-004)">
				<stop  offset="0.0431" style="stop-color:#BAA270"/>
				<stop  offset="1" style="stop-color:#73624A"/>
			</linearGradient>
			<path style="fill-rule:evenodd;clip-rule:evenodd;fill:url(#SVGID_10_);" d="M113.95,19.05c8.667,3.667,16.35,8.833,23.05,15.5
				c6.667,6.667,11.833,14.333,15.5,23c3.8,8.967,5.7,18.367,5.7,28.2c0,9.833-1.9,19.233-5.7,28.2
				c-3.667,8.667-8.833,16.333-15.5,23c-6.7,6.667-14.383,11.833-23.05,15.5c-8.967,3.8-18.351,5.7-28.15,5.7
				c-9.833,0-19.233-1.9-28.2-5.7c-8.667-3.667-16.333-8.833-23-15.5c-6.7-6.667-11.883-14.333-15.55-23
				c-3.8-8.967-5.7-18.367-5.7-28.2c0-9.833,1.9-19.233,5.7-28.2c3.667-8.667,8.85-16.333,15.55-23
				c6.667-6.667,14.333-11.833,23-15.5c8.966-3.8,18.367-5.7,28.2-5.7C95.6,13.35,104.983,15.25,113.95,19.05z"/>
		</g>
	</g>
</g>
<use xlink:href="#FlashAICB_x2F_Layer_36_copy_6_x2F__x3C_Clip_Group_0_x3E__x5F_1"  width="132.35" height="132.35" y="-132.35" transform="matrix(1 0 0 -1 19.6001 19.6001)" style="overflow:visible;"/>
<g>
	<path style="fill-rule:evenodd;clip-rule:evenodd;fill:#30144F;" d="M85.75,151.1c18.066,0,33.467-6.383,46.2-19.149
		c12.767-12.733,19.149-28.134,19.149-46.2c0-18.033-6.383-33.434-19.149-46.2c-12.733-12.767-28.134-19.15-46.2-19.15
		c-18.033,0-33.434,6.383-46.2,19.15S20.4,67.717,20.4,85.75s6.383,33.434,19.15,46.2S67.717,151.1,85.75,151.1z M85.75,18.75
		c8.967,0,17.517,1.684,25.65,5.05c8.199,3.4,15.449,8.267,21.75,14.6c6.333,6.333,11.183,13.567,14.55,21.7
		c3.399,8.167,5.1,16.716,5.1,25.65s-1.7,17.483-5.1,25.65c-3.367,8.166-8.217,15.416-14.55,21.75
		c-6.334,6.333-13.584,11.183-21.75,14.55c-8.134,3.366-16.684,5.05-25.65,5.05s-17.517-1.684-25.65-5.05
		c-8.133-3.367-15.367-8.217-21.7-14.55c-6.333-6.334-11.183-13.584-14.55-21.75c-3.4-8.167-5.1-16.717-5.1-25.65
		s1.7-17.483,5.1-25.65c3.367-8.133,8.216-15.367,14.55-21.7s13.567-11.2,21.7-14.6C68.233,20.434,76.783,18.75,85.75,18.75z"/>
</g>
<use xlink:href="#FlashAICB_x2F_Layer_36_copy_6_x2F__x3C_Clip_Group_0_x3E_"  width="118.85" height="118.65" y="-118.65" transform="matrix(1 0 0 -1 26.3501 24.25)" style="overflow:visible;"/>
<g>
	<g>
		<g>
			<g>
				<g>
					<g>
						<linearGradient id="SVGID_11_" gradientUnits="userSpaceOnUse" x1="35.3154" y1="84.2236" x2="52.502" y2="84.2236">
							<stop  offset="0.1098" style="stop-color:#C39616"/>
							<stop  offset="0.9647" style="stop-color:#DEEA89"/>
						</linearGradient>
						<path style="fill-rule:evenodd;clip-rule:evenodd;fill:url(#SVGID_11_);" d="M48.05,76.2c0.634,0.333,1.134,0.833,1.5,1.5
							c0.367,0.633,0.534,1.316,0.5,2.05l-0.1,1.3l1,0.75c1.3,0.967,1.783,2.25,1.45,3.85c-0.133,0.767-0.517,1.467-1.15,2.1
							c-0.434,0.367-0.983,0.667-1.65,0.9l-1.2,0.3L47.95,90.1c-0.2,0.601-0.533,1.134-1,1.601c-0.634,0.566-1.367,0.899-2.2,1
							l-0.6,0.05c-0.633-0.066-1.183-0.233-1.65-0.5c-0.6-0.3-1.083-0.733-1.45-1.3l-0.7-1.05l-1.3-0.051
							c-0.733-0.033-1.4-0.25-2-0.649c-0.6-0.4-1.05-0.934-1.35-1.601c-0.333-0.666-0.45-1.366-0.35-2.1s0.383-1.383,0.85-1.95
							l0.8-1l-0.4-1.2c-0.2-0.7-0.2-1.4,0-2.1c0.2-0.733,0.567-1.35,1.1-1.85c0.767-0.7,1.7-1.05,2.8-1.05
							c0.566,0.066,0.983,0.15,1.25,0.25l1.15,0.45l1.05-0.7c0.767-0.467,1.55-0.684,2.35-0.65c0.634,0,1.2,0.15,1.7,0.45
							L48.05,76.2z"/>
						<path style="fill-rule:evenodd;clip-rule:evenodd;fill:none;stroke:#ECF8BD;stroke-width:0.25;" d="M48.05,76.2
							c0.634,0.333,1.134,0.833,1.5,1.5c0.367,0.633,0.534,1.316,0.5,2.05l-0.1,1.3l1,0.75c1.3,0.967,1.783,2.25,1.45,3.85
							c-0.133,0.767-0.517,1.467-1.15,2.1c-0.434,0.367-0.983,0.667-1.65,0.9l-1.2,0.3L47.95,90.1c-0.2,0.601-0.533,1.134-1,1.601
							c-0.634,0.566-1.367,0.899-2.2,1l-0.6,0.05c-0.633-0.066-1.183-0.233-1.65-0.5c-0.6-0.3-1.083-0.733-1.45-1.3l-0.7-1.05
							l-1.3-0.051c-0.733-0.033-1.4-0.25-2-0.649c-0.6-0.4-1.05-0.934-1.35-1.601c-0.333-0.666-0.45-1.366-0.35-2.1
							s0.383-1.383,0.85-1.95l0.8-1l-0.4-1.2c-0.2-0.7-0.2-1.4,0-2.1c0.2-0.733,0.567-1.35,1.1-1.85c0.767-0.7,1.7-1.05,2.8-1.05
							c0.566,0.066,0.983,0.15,1.25,0.25l1.15,0.45l1.05-0.7c0.767-0.467,1.55-0.684,2.35-0.65c0.634,0,1.2,0.15,1.7,0.45
							L48.05,76.2z"/>
					</g>
				</g>
				<path style="fill-rule:evenodd;clip-rule:evenodd;fill:#22480E;" d="M50.25,85.2c-0.033,0.3-0.2,0.6-0.5,0.899
					c-0.133,0.134-0.367,0.268-0.7,0.4l-2.35,0.6L45.9,89.4c-0.133,0.3-0.283,0.517-0.45,0.649c-0.233,0.233-0.55,0.384-0.95,0.45
					c-0.667,0.1-1.2-0.15-1.6-0.75l-1.3-2.05l-2.45-0.05c-0.667,0-1.15-0.317-1.45-0.95c-0.3-0.601-0.233-1.184,0.2-1.75l1.55-1.9
					l-0.7-2.35c-0.2-0.634-0.05-1.2,0.45-1.7c0.533-0.467,1.116-0.566,1.75-0.3l2.25,0.85l2-1.35c0.566-0.4,1.167-0.434,1.8-0.1
					c0.566,0.3,0.85,0.816,0.85,1.55l-0.15,2.4l1.95,1.5C50.217,83.983,50.417,84.533,50.25,85.2z"/>
				
					<linearGradient id="SVGID_12_" gradientUnits="userSpaceOnUse" x1="-58.3647" y1="78.1289" x2="-47.5383" y2="78.1289" gradientTransform="matrix(0.4711 -0.8821 0.8821 0.4711 -4.620254e-004 -1.087785e-004)">
					<stop  offset="0" style="stop-color:#EDBF35"/>
					<stop  offset="0.2941" style="stop-color:#F0CA31"/>
					<stop  offset="0.8039" style="stop-color:#F9E728"/>
					<stop  offset="0.9647" style="stop-color:#FCF226"/>
				</linearGradient>
				<path style="fill-rule:evenodd;clip-rule:evenodd;fill:url(#SVGID_12_);" d="M49.15,84.15c0.267,0.267,0.383,0.567,0.35,0.9
					c-0.033,0.167-0.133,0.333-0.3,0.5l-0.35,0.2l-2.75,0.7l-0.95,2.7L44.9,89.5l-0.5,0.25c-0.367,0-0.65-0.133-0.85-0.4L42,86.95
					l-2.8-0.101c-0.367,0-0.634-0.166-0.8-0.5c-0.167-0.3-0.133-0.616,0.1-0.95l1.8-2.2l-0.8-2.7c-0.1-0.367-0.017-0.667,0.25-0.9
					s0.566-0.3,0.9-0.2l2.65,1.05l2.35-1.65c0.367-0.167,0.684-0.167,0.95,0c0.3,0.167,0.45,0.434,0.45,0.8l-0.15,2.85L49.15,84.15z
					"/>
				<path style="fill-rule:evenodd;clip-rule:evenodd;fill:#F5FAD7;" d="M49.15,84.15c0.267,0.267,0.383,0.567,0.35,0.9
					c-0.033,0.167-0.133,0.333-0.3,0.5l-0.35,0.2H48.8l0.15-0.3c0.066-0.4-0.05-0.7-0.35-0.9l-2.25-1.7L46.5,80
					c0.066-0.367-0.083-0.633-0.45-0.8c-0.267-0.167-0.583-0.167-0.95,0l-2.3,1.65l-2.65-1.05l-0.5-0.05l0.1-0.15
					c0.267-0.233,0.566-0.3,0.9-0.2l2.65,1.05l2.35-1.65c0.367-0.167,0.684-0.167,0.95,0c0.3,0.167,0.45,0.434,0.45,0.8l-0.15,2.85
					L49.15,84.15z"/>
			</g>
		</g>
	</g>
	<g>
		<g>
			<g>
				<g>
					<g>
						<linearGradient id="SVGID_13_" gradientUnits="userSpaceOnUse" x1="120.2754" y1="84.2236" x2="137.4254" y2="84.2236">
							<stop  offset="0.1098" style="stop-color:#C39616"/>
							<stop  offset="0.9647" style="stop-color:#DEEA89"/>
						</linearGradient>
						<path style="fill-rule:evenodd;clip-rule:evenodd;fill:url(#SVGID_13_);" d="M132.2,76.35c1.133,0,2.066,0.35,2.8,1.05
							c0.533,0.5,0.9,1.117,1.1,1.85c0.2,0.7,0.2,1.4,0,2.1l-0.35,1.2l0.8,1c1.033,1.267,1.2,2.617,0.5,4.05
							c-0.3,0.667-0.75,1.2-1.35,1.601c-0.634,0.399-1.317,0.616-2.05,0.649L132.35,89.9l-0.649,1.05
							c-0.434,0.6-0.917,1.033-1.45,1.3c-0.467,0.267-1.033,0.434-1.7,0.5l-0.6-0.05c-0.8-0.101-1.517-0.434-2.15-1
							c-0.5-0.434-0.85-0.967-1.05-1.601l-0.4-1.149l-1.25-0.3c-0.633-0.2-1.166-0.5-1.6-0.9c-0.667-0.667-1.066-1.367-1.2-2.1
							c-0.3-1.566,0.184-2.85,1.45-3.85l1-0.75l-0.05-1.3c-0.033-0.733,0.116-1.417,0.45-2.05c0.366-0.667,0.866-1.167,1.5-1.5
							l0.1-0.05c0.5-0.3,1.05-0.45,1.65-0.45c0.866-0.034,1.649,0.183,2.35,0.65l1.05,0.7l1.2-0.45
							C131.267,76.5,131.667,76.417,132.2,76.35z"/>
						<path style="fill-rule:evenodd;clip-rule:evenodd;fill:none;stroke:#ECF8BD;stroke-width:0.25;" d="M132.2,76.35
							c1.133,0,2.066,0.35,2.8,1.05c0.533,0.5,0.9,1.117,1.1,1.85c0.2,0.7,0.2,1.4,0,2.1l-0.35,1.2l0.8,1
							c1.033,1.267,1.2,2.617,0.5,4.05c-0.3,0.667-0.75,1.2-1.35,1.601c-0.634,0.399-1.317,0.616-2.05,0.649L132.35,89.9
							l-0.649,1.05c-0.434,0.6-0.917,1.033-1.45,1.3c-0.467,0.267-1.033,0.434-1.7,0.5l-0.6-0.05c-0.8-0.101-1.517-0.434-2.15-1
							c-0.5-0.434-0.85-0.967-1.05-1.601l-0.4-1.149l-1.25-0.3c-0.633-0.2-1.166-0.5-1.6-0.9c-0.667-0.667-1.066-1.367-1.2-2.1
							c-0.3-1.566,0.184-2.85,1.45-3.85l1-0.75l-0.05-1.3c-0.033-0.733,0.116-1.417,0.45-2.05c0.366-0.667,0.866-1.167,1.5-1.5
							l0.1-0.05c0.5-0.3,1.05-0.45,1.65-0.45c0.866-0.034,1.649,0.183,2.35,0.65l1.05,0.7l1.2-0.45
							C131.267,76.5,131.667,76.417,132.2,76.35z"/>
					</g>
				</g>
				<path style="fill-rule:evenodd;clip-rule:evenodd;fill:#22480E;" d="M131.15,87.7l-1.301,2.05c-0.399,0.6-0.933,0.85-1.6,0.75
					c-0.367-0.033-0.684-0.184-0.95-0.45c-0.167-0.133-0.316-0.35-0.45-0.649l-0.8-2.301l-2.35-0.6
					c-0.333-0.133-0.567-0.267-0.7-0.4c-0.3-0.3-0.467-0.6-0.5-0.899c-0.167-0.667,0.033-1.217,0.6-1.65l1.95-1.5l-0.149-2.4
					c-0.067-0.7,0.217-1.216,0.85-1.55c0.6-0.333,1.184-0.3,1.75,0.1l2,1.35l2.3-0.85c0.601-0.267,1.167-0.167,1.7,0.3
					c0.5,0.467,0.667,1.033,0.5,1.7l-0.7,2.35l1.55,1.9c0.4,0.5,0.467,1.083,0.2,1.75c-0.3,0.633-0.783,0.95-1.45,0.95L131.15,87.7z
					"/>
				<linearGradient id="SVGID_14_" gradientUnits="userSpaceOnUse" x1="133.5986" y1="85.9277" x2="123.6736" y2="81.6027">
					<stop  offset="0" style="stop-color:#EDBF35"/>
					<stop  offset="0.2941" style="stop-color:#F0CA31"/>
					<stop  offset="0.8039" style="stop-color:#F9E728"/>
					<stop  offset="0.9647" style="stop-color:#FCF226"/>
				</linearGradient>
				<path style="fill-rule:evenodd;clip-rule:evenodd;fill:url(#SVGID_14_);" d="M130.7,86.95l-1.55,2.399
					c-0.167,0.268-0.45,0.4-0.851,0.4l-0.5-0.25l-0.2-0.35l-0.949-2.7l-2.75-0.7l-0.4-0.2l-0.25-0.5
					c-0.066-0.366,0.05-0.667,0.35-0.9l2.25-1.7L125.7,79.6c-0.067-0.367,0.083-0.633,0.45-0.8c0.3-0.2,0.6-0.2,0.899,0l2.351,1.65
					l2.649-1.05c0.4-0.1,0.717-0.033,0.95,0.2c0.267,0.233,0.35,0.533,0.25,0.9l-0.8,2.7l1.75,2.2c0.267,0.3,0.316,0.617,0.149,0.95
					c-0.166,0.334-0.433,0.5-0.8,0.5L130.7,86.95z"/>
				<path style="fill-rule:evenodd;clip-rule:evenodd;fill:#F5FAD7;" d="M133,79.6l0.1,0.15l-0.5,0.05l-2.649,1.05L127.6,79.2
					c-0.333-0.2-0.649-0.2-0.949,0c-0.301,0.167-0.45,0.433-0.45,0.8l0.149,2.85l-2.25,1.7c-0.3,0.233-0.399,0.534-0.3,0.9
					l0.101,0.3l-0.4-0.2l-0.25-0.5c-0.066-0.366,0.05-0.667,0.35-0.9l2.25-1.7L125.7,79.6c-0.067-0.367,0.083-0.633,0.45-0.8
					c0.3-0.2,0.6-0.2,0.899,0l2.351,1.65l2.649-1.05C132.45,79.3,132.767,79.367,133,79.6z"/>
			</g>
		</g>
	</g>
</g>
<g>
	<path style="fill-rule:evenodd;clip-rule:evenodd;fill:#ECF8BD;" d="M114.7,65.9c1.866,0.867,2.8,2.35,2.8,4.45
		c0,1.1-0.3,2.05-0.9,2.85l-2.399,6.5c-0.333,1.833-1.583,3.1-3.75,3.8V121c2.167,0.7,3.417,1.967,3.75,3.8l2.399,6.5
		c0.601,0.8,0.9,1.75,0.9,2.851c0,2.1-0.934,3.583-2.8,4.449c-1.467,0.7-4.333,1.301-8.601,1.801c-6.1,0.699-12.883,1.05-20.35,1.05
		c-7.434,0-14.2-0.351-20.3-1.05c-4.267-0.5-7.134-1.101-8.6-1.801c-1.867-0.866-2.8-2.35-2.8-4.449c0-1.033,0.267-1.95,0.8-2.75
		l2.45-7.301c0.3-0.933,0.817-1.633,1.55-2.1l0.55-0.35v-38.8l-0.8-0.55c-0.6-0.433-1.034-1.066-1.3-1.9l-2.45-7.3
		c-0.534-0.867-0.8-1.784-0.8-2.75c0-2.1,0.934-3.583,2.8-4.45c1.466-0.7,4.333-1.3,8.6-1.8c5.667-0.7,12.433-1.05,20.3-1.05
		c7.934,0,14.717,0.35,20.35,1.05C110.367,64.6,113.233,65.2,114.7,65.9z"/>
	
		<linearGradient id="SVGID_15_" gradientUnits="userSpaceOnUse" x1="-140.5356" y1="85.7764" x2="-62.1353" y2="85.7764" gradientTransform="matrix(1.275917e-005 -1 1 -0.001 -7.702479e-005 4.449275e-004)">
		<stop  offset="0" style="stop-color:#B1812F"/>
		<stop  offset="0.1569" style="stop-color:#C89A33"/>
		<stop  offset="0.3686" style="stop-color:#EDC13A"/>
		<stop  offset="0.9647" style="stop-color:#DEEA89"/>
	</linearGradient>
	<path style="fill-rule:evenodd;clip-rule:evenodd;fill:url(#SVGID_15_);" d="M114.7,64.9c1.866,0.9,2.8,2.4,2.8,4.5
		c0,1.067-0.3,2-0.9,2.8l-2.399,6.5c-0.333,1.833-1.583,3.1-3.75,3.8V120c2.167,0.7,3.417,1.967,3.75,3.8l2.399,6.5
		c0.601,0.8,0.9,1.75,0.9,2.851c0,2.1-0.934,3.6-2.8,4.5c-1.5,0.699-4.367,1.3-8.601,1.8c-5.8,0.667-12.583,1-20.35,1
		c-7.733,0-14.5-0.333-20.3-1c-4.233-0.5-7.1-1.101-8.6-1.8c-1.867-0.9-2.8-2.4-2.8-4.5c0-0.967,0.267-1.884,0.8-2.75l2.45-7.301
		c0.333-0.899,0.85-1.583,1.55-2.05l0.55-0.399v-38.8l-0.8-0.55c-0.6-0.466-1.034-1.1-1.3-1.9l-2.45-7.25
		c-0.534-0.867-0.8-1.783-0.8-2.75c0-2.1,0.934-3.6,2.8-4.5c1.466-0.7,4.333-1.3,8.6-1.8c6.1-0.7,12.866-1.05,20.3-1.05
		c7.467,0,14.25,0.35,20.35,1.05C110.367,63.6,113.233,64.2,114.7,64.9z"/>
	<path style="fill-rule:evenodd;clip-rule:evenodd;fill:none;stroke:#FBFCC9;stroke-width:0.25;" d="M114.7,64.9
		c-1.467-0.7-4.333-1.3-8.601-1.8c-6.1-0.7-12.883-1.05-20.35-1.05c-7.434,0-14.2,0.35-20.3,1.05c-4.267,0.5-7.134,1.1-8.6,1.8
		c-1.867,0.9-2.8,2.4-2.8,4.5c0,0.967,0.267,1.883,0.8,2.75l2.45,7.25c0.267,0.8,0.7,1.434,1.3,1.9l0.8,0.55v38.8l-0.55,0.399
		c-0.7,0.467-1.217,1.15-1.55,2.05l-2.45,7.301c-0.534,0.866-0.8,1.783-0.8,2.75c0,2.1,0.934,3.6,2.8,4.5
		c1.5,0.699,4.367,1.3,8.6,1.8c5.8,0.667,12.566,1,20.3,1c7.767,0,14.55-0.333,20.35-1c4.233-0.5,7.101-1.101,8.601-1.8
		c1.866-0.9,2.8-2.4,2.8-4.5c0-1.101-0.3-2.051-0.9-2.851l-2.399-6.5c-0.333-1.833-1.583-3.1-3.75-3.8V82.5
		c2.167-0.7,3.417-1.967,3.75-3.8l2.399-6.5c0.601-0.8,0.9-1.733,0.9-2.8C117.5,67.3,116.566,65.8,114.7,64.9z"/>
	<path style="fill-rule:evenodd;clip-rule:evenodd;fill:#22480E;" d="M113.6,68.05c0.733,0.333,1.101,0.784,1.101,1.35
		c0,0.3-0.15,0.583-0.45,0.85l-2.75,7.5c-0.033,0.434-0.283,0.783-0.75,1.05c-0.6,0.333-1.633,0.634-3.1,0.9v43.149
		c1.467,0.268,2.5,0.567,3.1,0.9c0.467,0.267,0.717,0.617,0.75,1.05l2.75,7.5c0.3,0.267,0.45,0.55,0.45,0.851
		c0,0.566-0.367,1.017-1.101,1.35c-1.3,0.566-3.883,1.083-7.75,1.55c-5.732,0.667-12.433,1-20.1,1c-7.633,0-14.316-0.333-20.05-1
		c-3.867-0.467-6.45-0.983-7.75-1.55c-0.733-0.333-1.1-0.783-1.1-1.35c0-0.301,0.133-0.584,0.4-0.851l2.65-7.899
		c0.067-0.2,0.184-0.334,0.35-0.4c0.3-0.3,0.95-0.583,1.95-0.85V79.4c-1.033-0.3-1.7-0.6-2-0.9c-0.167-0.1-0.267-0.217-0.3-0.35
		l-2.65-7.9c-0.267-0.267-0.4-0.55-0.4-0.85c0-0.566,0.367-1.017,1.1-1.35c1.3-0.566,3.883-1.083,7.75-1.55
		c5.733-0.667,12.417-1,20.05-1c7.667,0,14.367,0.333,20.1,1C109.717,66.967,112.3,67.483,113.6,68.05z"/>
	<g>
		<path style="fill-rule:evenodd;clip-rule:evenodd;fill:#FFFFFF;" d="M113.8,69.75l-3,8.1H60.45l-2.7-8.1
			c-0.2-0.1-0.3-0.217-0.3-0.35c0-0.8,2.767-1.533,8.3-2.2c5.733-0.667,12.4-1,20-1c7.6,0,14.283,0.333,20.05,1
			c5.533,0.667,8.3,1.4,8.3,2.2C114.1,69.533,114,69.65,113.8,69.75z"/>
		<path style="fill-rule:evenodd;clip-rule:evenodd;fill:#FFFFFF;" d="M85.7,75.1c6.967,0,12.899,0.25,17.8,0.75
			c4.934,0.5,7.4,1.117,7.4,1.85c0,0.7-2.467,1.316-7.4,1.85c-4.967,0.5-10.9,0.75-17.8,0.75c-6.934,0-12.884-0.25-17.85-0.75
			c-4.933-0.533-7.4-1.15-7.4-1.85c0-0.733,2.467-1.35,7.4-1.85C72.75,75.35,78.7,75.1,85.7,75.1z"/>
		<path style="fill-rule:evenodd;clip-rule:evenodd;fill:#FFFFFF;" d="M69.5,76.6C74,76.2,79.45,76,85.85,76
			c6.367,0,11.817,0.2,16.351,0.6c4.5,0.4,6.75,0.867,6.75,1.4c0,0.566-2.25,1.05-6.75,1.45c-4.5,0.4-9.95,0.6-16.351,0.6
			c-6.433,0-11.883-0.2-16.35-0.6c-4.533-0.4-6.8-0.884-6.8-1.45C62.7,77.467,64.967,77,69.5,76.6z"/>
		<path style="fill-rule:evenodd;clip-rule:evenodd;fill:#FFFFFF;" d="M71.5,78.65c-4.066-0.433-6.1-0.95-6.1-1.55l0.05-0.05
			C70.017,76.35,76.816,76,85.85,76c9.934,0,16.95,0.4,21.051,1.2c-0.233,0.566-2.351,1.05-6.351,1.45s-8.783,0.6-14.35,0.6
			C80.434,79.25,75.533,79.05,71.5,78.65z"/>
		<path style="fill-rule:evenodd;clip-rule:evenodd;fill:#FFFFFF;" d="M61.3,74.1c0.233,0.733,0.15,1.167-0.25,1.3
			c-0.4,0.1-0.716-0.216-0.95-0.95c-0.1-0.3-0.117-0.583-0.05-0.85c0.034-0.233,0.134-0.383,0.3-0.45
			C60.75,72.983,61.066,73.3,61.3,74.1z"/>
		<path style="fill-rule:evenodd;clip-rule:evenodd;fill:#FFFFFF;" d="M64.75,73.4c0.066,0.367,0.033,0.684-0.1,0.95
			c-0.167,0.3-0.367,0.466-0.6,0.5c-0.233,0.033-0.466-0.05-0.7-0.25c-0.233-0.233-0.367-0.517-0.4-0.85
			c-0.067-0.333-0.033-0.633,0.1-0.9c0.1-0.267,0.284-0.434,0.55-0.5c0.267-0.034,0.5,0.05,0.7,0.25
			C64.533,72.8,64.684,73.066,64.75,73.4z"/>
		<path style="fill-rule:evenodd;clip-rule:evenodd;fill:#FFFFFF;" d="M68.5,72.75c0.066,0.367,0.033,0.7-0.1,1
			c-0.167,0.333-0.383,0.517-0.65,0.55c-0.267,0.067-0.533-0.017-0.8-0.25c-0.233-0.233-0.384-0.517-0.45-0.85
			c-0.066-0.367-0.033-0.7,0.1-1c0.167-0.333,0.383-0.534,0.65-0.6c0.267-0.034,0.533,0.05,0.8,0.25
			C68.283,72.083,68.434,72.383,68.5,72.75z"/>
		<path style="fill-rule:evenodd;clip-rule:evenodd;fill:#FFFFFF;" d="M113.8,132.75c0.2,0.167,0.3,0.3,0.3,0.4
			c0,0.8-2.767,1.517-8.3,2.149c-5.733,0.667-12.417,1-20.05,1c-7.6,0-14.267-0.333-20-1c-5.533-0.633-8.3-1.35-8.3-2.149
			c0-0.101,0.1-0.233,0.3-0.4l2.7-8.05h50.35L113.8,132.75z"/>
		<path style="fill-rule:evenodd;clip-rule:evenodd;fill:#FFFFFF;" d="M103.5,123c4.934,0.5,7.4,1.117,7.4,1.85
			c0,0.733-2.467,1.351-7.4,1.851c-4.9,0.5-10.833,0.75-17.8,0.75c-7,0-12.95-0.25-17.85-0.75c-4.933-0.5-7.4-1.117-7.4-1.851
			c0-0.732,2.467-1.35,7.4-1.85c4.9-0.5,10.85-0.75,17.85-0.75C92.667,122.25,98.6,122.5,103.5,123z"/>
		<path style="fill-rule:evenodd;clip-rule:evenodd;fill:#FFFFFF;" d="M108.95,124.5c0,0.566-2.25,1.05-6.75,1.45
			c-4.5,0.399-9.95,0.6-16.351,0.6c-6.433,0-11.883-0.2-16.35-0.6c-4.533-0.4-6.8-0.884-6.8-1.45c0-0.533,2.267-1,6.8-1.4
			c4.5-0.399,9.95-0.6,16.35-0.6c6.367,0,11.817,0.2,16.351,0.6C106.7,123.5,108.95,123.967,108.95,124.5z"/>
		<path style="fill-rule:evenodd;clip-rule:evenodd;fill:#FFFFFF;" d="M71.5,123.95c4.033-0.434,8.934-0.65,14.7-0.65
			c5.566,0,10.35,0.2,14.35,0.601c4,0.399,6.117,0.883,6.351,1.449c-4.101,0.801-11.117,1.2-21.051,1.2c-4.333,0-8.35-0.1-12.05-0.3
			c-3.566-0.2-6.35-0.467-8.35-0.8H65.4C65.4,124.85,67.434,124.35,71.5,123.95z"/>
		<path style="fill-rule:evenodd;clip-rule:evenodd;fill:#FFFFFF;" d="M61.3,128.45c-0.233,0.733-0.55,1.05-0.95,0.95
			c-0.167-0.067-0.267-0.217-0.3-0.45c-0.066-0.267-0.05-0.55,0.05-0.851c0.233-0.767,0.55-1.1,0.95-1
			c0.167,0.067,0.267,0.217,0.3,0.45C61.417,127.85,61.4,128.15,61.3,128.45z"/>
		<path style="fill-rule:evenodd;clip-rule:evenodd;fill:#FFFFFF;" d="M64.75,129.15c-0.066,0.366-0.217,0.649-0.45,0.85
			c-0.2,0.2-0.433,0.267-0.7,0.2c-0.233-0.033-0.417-0.2-0.55-0.5c-0.133-0.267-0.167-0.567-0.1-0.9c0.066-0.333,0.2-0.616,0.4-0.85
			c0.233-0.2,0.466-0.283,0.7-0.25c0.233,0.066,0.434,0.233,0.6,0.5C64.783,128.467,64.816,128.783,64.75,129.15z"/>
		<path style="fill-rule:evenodd;clip-rule:evenodd;fill:#FFFFFF;" d="M68.5,129.8c-0.066,0.367-0.217,0.667-0.45,0.9
			c-0.267,0.2-0.533,0.267-0.8,0.2c-0.267-0.033-0.483-0.217-0.65-0.551c-0.133-0.3-0.167-0.633-0.1-1
			c0.066-0.366,0.217-0.666,0.45-0.899c0.267-0.2,0.533-0.267,0.8-0.2s0.483,0.25,0.65,0.55C68.533,129.1,68.566,129.434,68.5,129.8
			z"/>
		<path style="fill-rule:evenodd;clip-rule:evenodd;fill:#FFFFFF;" d="M71.5,76.25c4.133-0.333,8.7-0.5,13.7-0.5
			c10.3,0,17.583,0.533,21.85,1.6v47.75c-4.366,1.033-11.649,1.551-21.85,1.551c-10.967,0-18.434-0.567-22.4-1.7V77.5
			C64.6,77,67.5,76.583,71.5,76.25z"/>
		<path style="fill-rule:evenodd;clip-rule:evenodd;fill:#FFFFFF;" d="M100.35,102.5c0,7.133-1.5,13.2-4.5,18.2
			c-2.967,5.033-6.566,7.55-10.8,7.55s-7.85-2.517-10.85-7.55c-3-5-4.5-11.067-4.5-18.2c0-7.1,1.5-13.167,4.5-18.2
			s6.616-7.55,10.85-7.55s7.833,2.517,10.8,7.55C98.85,89.333,100.35,95.4,100.35,102.5z"/>
		<path style="fill-rule:evenodd;clip-rule:evenodd;fill:#FFFFFF;" d="M77,85.4c0,0.933-0.267,1.717-0.8,2.35
			c-0.5,0.633-1.134,0.95-1.9,0.95s-1.417-0.317-1.95-0.95c-0.534-0.633-0.8-1.417-0.8-2.35c0-0.9,0.267-1.667,0.8-2.3
			c0.567-0.667,1.216-1,1.95-1s1.367,0.333,1.9,1C76.733,83.733,77,84.5,77,85.4z"/>
		<path style="fill-rule:evenodd;clip-rule:evenodd;fill:#FFFFFF;" d="M70.75,95.4c0,0.433-0.133,0.816-0.4,1.149
			c-0.233,0.3-0.534,0.45-0.9,0.45c-0.367,0-0.684-0.15-0.95-0.45c-0.267-0.333-0.4-0.717-0.4-1.149c0-0.434,0.133-0.801,0.4-1.101
			s0.583-0.45,0.95-0.45c0.366,0,0.667,0.15,0.9,0.45C70.617,94.6,70.75,94.967,70.75,95.4z"/>
		<path style="fill-rule:evenodd;clip-rule:evenodd;fill:#FFFFFF;" d="M72,80.8c0,1.267-0.367,2.35-1.1,3.25
			c-0.733,0.9-1.617,1.35-2.65,1.35s-1.917-0.45-2.65-1.35c-0.733-0.9-1.1-1.983-1.1-3.25s0.367-2.35,1.1-3.25
			c0.733-0.9,1.617-1.35,2.65-1.35s1.917,0.45,2.65,1.35C71.633,78.45,72,79.533,72,80.8z"/>
		<path style="fill-rule:evenodd;clip-rule:evenodd;fill:#FFFFFF;" d="M101.15,79.45c0,0.733-0.2,1.35-0.601,1.85
			c-0.433,0.5-0.95,0.75-1.55,0.75s-1.1-0.25-1.5-0.75c-0.434-0.5-0.65-1.116-0.65-1.85s0.217-1.35,0.65-1.85
			c0.4-0.534,0.9-0.8,1.5-0.8s1.117,0.267,1.55,0.8C100.95,78.1,101.15,78.717,101.15,79.45z"/>
		<path style="fill-rule:evenodd;clip-rule:evenodd;fill:#FFFFFF;" d="M106.15,88.85c0,1.601-0.467,2.967-1.4,4.101
			c-0.934,1.1-2.066,1.649-3.4,1.649c-1.3,0-2.416-0.55-3.35-1.649c-0.934-1.134-1.4-2.5-1.4-4.101c0-1.6,0.467-2.966,1.4-4.1
			s2.05-1.7,3.35-1.7c1.334,0,2.467,0.567,3.4,1.7S106.15,87.25,106.15,88.85z"/>
		<path style="fill-rule:evenodd;clip-rule:evenodd;fill:#FFFFFF;" d="M96.15,121.5c0,1.233-0.367,2.283-1.101,3.15
			c-0.7,0.899-1.566,1.35-2.6,1.35s-1.9-0.45-2.601-1.35c-0.732-0.867-1.1-1.917-1.1-3.15s0.367-2.3,1.1-3.2
			c0.7-0.866,1.567-1.3,2.601-1.3s1.899,0.434,2.6,1.3C95.783,119.2,96.15,120.267,96.15,121.5z"/>
		<path style="fill-rule:evenodd;clip-rule:evenodd;fill:#FFFFFF;" d="M72.45,117.9c0,1.366-0.4,2.55-1.2,3.55
			c-0.8,0.967-1.767,1.45-2.9,1.45s-2.083-0.483-2.85-1.45c-0.8-1-1.2-2.184-1.2-3.55c0-1.367,0.4-2.533,1.2-3.5
			c0.767-0.967,1.717-1.45,2.85-1.45s2.1,0.483,2.9,1.45S72.45,116.533,72.45,117.9z"/>
		<path style="fill-rule:evenodd;clip-rule:evenodd;fill:#FFFFFF;" d="M77.35,109.45c0,0.667-0.2,1.25-0.6,1.75
			c-0.367,0.467-0.833,0.7-1.4,0.7s-1.05-0.233-1.45-0.7c-0.4-0.5-0.6-1.083-0.6-1.75s0.2-1.25,0.6-1.75
			c0.4-0.467,0.883-0.7,1.45-0.7s1.033,0.233,1.4,0.7C77.15,108.2,77.35,108.783,77.35,109.45z"/>
		<path style="fill-rule:evenodd;clip-rule:evenodd;fill:#FFFFFF;" d="M100.3,107.85c0,0.768-0.217,1.4-0.649,1.9
			c-0.434,0.533-0.967,0.8-1.601,0.8c-0.6,0-1.116-0.267-1.55-0.8s-0.65-1.167-0.65-1.9c0-0.732,0.217-1.366,0.65-1.899
			s0.95-0.8,1.55-0.8c0.634,0,1.167,0.267,1.601,0.8C100.083,106.483,100.3,107.117,100.3,107.85z"/>
		<path style="fill-rule:evenodd;clip-rule:evenodd;fill:#FFFFFF;" d="M105.4,114.5c0,1.267-0.367,2.333-1.101,3.2
			c-0.7,0.866-1.566,1.3-2.6,1.3s-1.9-0.434-2.601-1.3c-0.732-0.867-1.1-1.934-1.1-3.2c0-1.233,0.367-2.3,1.1-3.2
			c0.7-0.866,1.567-1.3,2.601-1.3s1.899,0.434,2.6,1.3C105.033,112.2,105.4,113.267,105.4,114.5z"/>
	</g>
	<g>
		
			<radialGradient id="SVGID_16_" cx="87.6143" cy="70.3286" r="33.8937" gradientTransform="matrix(0.9998 0.0192 -0.0417 0.461 -3.417 37.7981)" gradientUnits="userSpaceOnUse">
			<stop  offset="0" style="stop-color:#706D66"/>
			<stop  offset="0.2549" style="stop-color:#737169"/>
			<stop  offset="0.498" style="stop-color:#7F7C74"/>
			<stop  offset="0.7373" style="stop-color:#928E85"/>
			<stop  offset="0.9686" style="stop-color:#ACA89D"/>
			<stop  offset="1" style="stop-color:#B0ACA0"/>
		</radialGradient>
		<path style="fill-rule:evenodd;clip-rule:evenodd;fill:url(#SVGID_16_);" d="M113.8,69.75l-3,8.1H60.45l-2.7-8.1
			c-0.2-0.1-0.3-0.217-0.3-0.35c0-0.8,2.767-1.533,8.3-2.2c5.733-0.667,12.4-1,20-1c7.6,0,14.283,0.333,20.05,1
			c5.533,0.667,8.3,1.4,8.3,2.2C114.1,69.533,114,69.65,113.8,69.75z"/>
		<path style="fill-rule:evenodd;clip-rule:evenodd;fill:#A5A297;" d="M85.7,75.1c6.967,0,12.899,0.25,17.8,0.75
			c4.934,0.5,7.4,1.117,7.4,1.85c0,0.7-2.467,1.316-7.4,1.85c-4.967,0.5-10.9,0.75-17.8,0.75c-6.934,0-12.884-0.25-17.85-0.75
			c-4.933-0.533-7.4-1.15-7.4-1.85c0-0.733,2.467-1.35,7.4-1.85C72.75,75.35,78.7,75.1,85.7,75.1z"/>
		<linearGradient id="SVGID_17_" gradientUnits="userSpaceOnUse" x1="62.7002" y1="78.0249" x2="108.9502" y2="78.0249">
			<stop  offset="0" style="stop-color:#66645E"/>
			<stop  offset="0.4157" style="stop-color:#7A7870"/>
			<stop  offset="1" style="stop-color:#9E9B90"/>
		</linearGradient>
		<path style="fill-rule:evenodd;clip-rule:evenodd;fill:url(#SVGID_17_);" d="M69.5,76.6C74,76.2,79.45,76,85.85,76
			c6.367,0,11.817,0.2,16.351,0.6c4.5,0.4,6.75,0.867,6.75,1.4c0,0.566-2.25,1.05-6.75,1.45c-4.5,0.4-9.95,0.6-16.351,0.6
			c-6.433,0-11.883-0.2-16.35-0.6c-4.533-0.4-6.8-0.884-6.8-1.45C62.7,77.467,64.967,77,69.5,76.6z"/>
		
			<radialGradient id="SVGID_18_" cx="72.8906" cy="-94.1885" r="4.9305" gradientTransform="matrix(-0.1318 0.9913 -4.6293 -0.1318 -341.3698 -9.7213)" gradientUnits="userSpaceOnUse">
			<stop  offset="0" style="stop-color:#FFFFFF"/>
			<stop  offset="0.1765" style="stop-color:#F6FFFF"/>
			<stop  offset="0.4745" style="stop-color:#DEFFFF"/>
			<stop  offset="0.8549" style="stop-color:#B8FFFF"/>
			<stop  offset="1" style="stop-color:#A8FFFF"/>
		</radialGradient>
		<path style="fill-rule:evenodd;clip-rule:evenodd;fill:url(#SVGID_18_);" d="M71.5,78.65c-4.066-0.433-6.1-0.95-6.1-1.55
			l0.05-0.05C70.017,76.35,76.816,76,85.85,76c9.934,0,16.95,0.4,21.051,1.2c-0.233,0.566-2.351,1.05-6.351,1.45
			s-8.783,0.6-14.35,0.6C80.434,79.25,75.533,79.05,71.5,78.65z"/>
		
			<radialGradient id="SVGID_19_" cx="37.689" cy="88.624" r="0.692" gradientTransform="matrix(0.9573 -0.289 -0.4335 -1.4992 63.0384 218.0084)" gradientUnits="userSpaceOnUse">
			<stop  offset="0" style="stop-color:#FFFFFF"/>
			<stop  offset="0.1765" style="stop-color:#F6FFFF"/>
			<stop  offset="0.4745" style="stop-color:#DEFFFF"/>
			<stop  offset="0.8549" style="stop-color:#B8FFFF"/>
			<stop  offset="1" style="stop-color:#A8FFFF"/>
		</radialGradient>
		<path style="fill-rule:evenodd;clip-rule:evenodd;fill:url(#SVGID_19_);" d="M61.3,74.1c0.233,0.733,0.15,1.167-0.25,1.3
			c-0.4,0.1-0.716-0.216-0.95-0.95c-0.1-0.3-0.117-0.583-0.05-0.85c0.034-0.233,0.134-0.383,0.3-0.45
			C60.75,72.983,61.066,73.3,61.3,74.1z"/>
		
			<radialGradient id="SVGID_20_" cx="49.2539" cy="84.6929" r="1.0192" gradientTransform="matrix(0.9806 -0.1961 -0.2084 -1.1154 33.2011 177.7268)" gradientUnits="userSpaceOnUse">
			<stop  offset="0" style="stop-color:#FFFFFF"/>
			<stop  offset="0.1765" style="stop-color:#F6FFFF"/>
			<stop  offset="0.4745" style="stop-color:#DEFFFF"/>
			<stop  offset="0.8549" style="stop-color:#B8FFFF"/>
			<stop  offset="1" style="stop-color:#A8FFFF"/>
		</radialGradient>
		<path style="fill-rule:evenodd;clip-rule:evenodd;fill:url(#SVGID_20_);" d="M64.75,73.4c0.066,0.367,0.033,0.684-0.1,0.95
			c-0.167,0.3-0.367,0.466-0.6,0.5c-0.233,0.033-0.466-0.05-0.7-0.25c-0.233-0.233-0.367-0.517-0.4-0.85
			c-0.067-0.333-0.033-0.633,0.1-0.9c0.1-0.267,0.284-0.434,0.55-0.5c0.267-0.034,0.5,0.05,0.7,0.25
			C64.533,72.8,64.684,73.066,64.75,73.4z"/>
		
			<radialGradient id="SVGID_21_" cx="53.2476" cy="85.8569" r="1.1517" gradientTransform="matrix(0.9762 -0.2169 -0.1952 -1.063 32.2828 175.7647)" gradientUnits="userSpaceOnUse">
			<stop  offset="0" style="stop-color:#FFFFFF"/>
			<stop  offset="0.1765" style="stop-color:#F6FFFF"/>
			<stop  offset="0.4745" style="stop-color:#DEFFFF"/>
			<stop  offset="0.8549" style="stop-color:#B8FFFF"/>
			<stop  offset="1" style="stop-color:#A8FFFF"/>
		</radialGradient>
		<path style="fill-rule:evenodd;clip-rule:evenodd;fill:url(#SVGID_21_);" d="M68.5,72.75c0.066,0.367,0.033,0.7-0.1,1
			c-0.167,0.333-0.383,0.517-0.65,0.55c-0.267,0.067-0.533-0.017-0.8-0.25c-0.233-0.233-0.384-0.517-0.45-0.85
			c-0.066-0.367-0.033-0.7,0.1-1c0.167-0.333,0.383-0.534,0.65-0.6c0.267-0.034,0.533,0.05,0.8,0.25
			C68.283,72.083,68.434,72.383,68.5,72.75z"/>
		
			<radialGradient id="SVGID_22_" cx="69.332" cy="132.1846" r="33.8937" gradientTransform="matrix(0.9998 -0.0192 -0.0417 -0.461 17.4393 192.9173)" gradientUnits="userSpaceOnUse">
			<stop  offset="0" style="stop-color:#706D66"/>
			<stop  offset="0.2549" style="stop-color:#737169"/>
			<stop  offset="0.498" style="stop-color:#7F7C74"/>
			<stop  offset="0.7373" style="stop-color:#928E85"/>
			<stop  offset="0.9686" style="stop-color:#ACA89D"/>
			<stop  offset="1" style="stop-color:#B0ACA0"/>
		</radialGradient>
		<path style="fill-rule:evenodd;clip-rule:evenodd;fill:url(#SVGID_22_);" d="M113.8,132.75c0.2,0.167,0.3,0.3,0.3,0.4
			c0,0.8-2.767,1.517-8.3,2.149c-5.733,0.667-12.417,1-20.05,1c-7.6,0-14.267-0.333-20-1c-5.533-0.633-8.3-1.35-8.3-2.149
			c0-0.101,0.1-0.233,0.3-0.4l2.7-8.05h50.35L113.8,132.75z"/>
		<path style="fill-rule:evenodd;clip-rule:evenodd;fill:#A5A297;" d="M103.5,123c4.934,0.5,7.4,1.117,7.4,1.85
			c0,0.733-2.467,1.351-7.4,1.851c-4.9,0.5-10.833,0.75-17.8,0.75c-7,0-12.95-0.25-17.85-0.75c-4.933-0.5-7.4-1.117-7.4-1.851
			c0-0.732,2.467-1.35,7.4-1.85c4.9-0.5,10.85-0.75,17.85-0.75C92.667,122.25,98.6,122.5,103.5,123z"/>
		<linearGradient id="SVGID_23_" gradientUnits="userSpaceOnUse" x1="62.7002" y1="124.5254" x2="108.9502" y2="124.5254">
			<stop  offset="0" style="stop-color:#66645E"/>
			<stop  offset="0.4157" style="stop-color:#7A7870"/>
			<stop  offset="1" style="stop-color:#9E9B90"/>
		</linearGradient>
		<path style="fill-rule:evenodd;clip-rule:evenodd;fill:url(#SVGID_23_);" d="M108.95,124.5c0,0.566-2.25,1.05-6.75,1.45
			c-4.5,0.399-9.95,0.6-16.351,0.6c-6.433,0-11.883-0.2-16.35-0.6c-4.533-0.4-6.8-0.884-6.8-1.45c0-0.533,2.267-1,6.8-1.4
			c4.5-0.399,9.95-0.6,16.35-0.6c6.367,0,11.817,0.2,16.351,0.6C106.7,123.5,108.95,123.967,108.95,124.5z"/>
		
			<radialGradient id="SVGID_24_" cx="-130.6216" cy="67.4927" r="4.9305" gradientTransform="matrix(-0.1318 -0.9913 -4.6293 0.1318 380.275 -10.8296)" gradientUnits="userSpaceOnUse">
			<stop  offset="0" style="stop-color:#FFFFFF"/>
			<stop  offset="0.1765" style="stop-color:#F6FFFF"/>
			<stop  offset="0.4745" style="stop-color:#DEFFFF"/>
			<stop  offset="0.8549" style="stop-color:#B8FFFF"/>
			<stop  offset="1" style="stop-color:#A8FFFF"/>
		</radialGradient>
		<path style="fill-rule:evenodd;clip-rule:evenodd;fill:url(#SVGID_24_);" d="M71.5,123.95c4.033-0.434,8.934-0.65,14.7-0.65
			c5.566,0,10.35,0.2,14.35,0.601c4,0.399,6.117,0.883,6.351,1.449c-4.101,0.801-11.117,1.2-21.051,1.2c-4.333,0-8.35-0.1-12.05-0.3
			c-3.566-0.2-6.35-0.467-8.35-0.8H65.4C65.4,124.85,67.434,124.35,71.5,123.95z"/>
		
			<radialGradient id="SVGID_25_" cx="93.9424" cy="105.2344" r="0.692" gradientTransform="matrix(0.9573 0.289 -0.4335 1.4992 16.3862 -56.669)" gradientUnits="userSpaceOnUse">
			<stop  offset="0" style="stop-color:#FFFFFF"/>
			<stop  offset="0.1765" style="stop-color:#F6FFFF"/>
			<stop  offset="0.4745" style="stop-color:#DEFFFF"/>
			<stop  offset="0.8549" style="stop-color:#B8FFFF"/>
			<stop  offset="1" style="stop-color:#A8FFFF"/>
		</radialGradient>
		<path style="fill-rule:evenodd;clip-rule:evenodd;fill:url(#SVGID_25_);" d="M61.3,128.45c-0.233,0.733-0.55,1.05-0.95,0.95
			c-0.167-0.067-0.267-0.217-0.3-0.45c-0.066-0.267-0.05-0.55,0.05-0.851c0.233-0.767,0.55-1.1,0.95-1
			c0.167,0.067,0.267,0.217,0.3,0.45C61.417,127.85,61.4,128.15,61.3,128.45z"/>
		
			<radialGradient id="SVGID_26_" cx="86.4512" cy="113.9238" r="1.0198" gradientTransform="matrix(0.9806 0.1961 -0.2084 1.1154 2.8165 -15.0768)" gradientUnits="userSpaceOnUse">
			<stop  offset="0" style="stop-color:#FFFFFF"/>
			<stop  offset="0.1765" style="stop-color:#F6FFFF"/>
			<stop  offset="0.4745" style="stop-color:#DEFFFF"/>
			<stop  offset="0.8549" style="stop-color:#B8FFFF"/>
			<stop  offset="1" style="stop-color:#A8FFFF"/>
		</radialGradient>
		<path style="fill-rule:evenodd;clip-rule:evenodd;fill:url(#SVGID_26_);" d="M64.75,129.15c-0.066,0.366-0.217,0.649-0.45,0.85
			c-0.2,0.2-0.433,0.267-0.7,0.2c-0.233-0.033-0.417-0.2-0.55-0.5c-0.133-0.267-0.167-0.567-0.1-0.9c0.066-0.333,0.2-0.616,0.4-0.85
			c0.233-0.2,0.466-0.283,0.7-0.25c0.233,0.066,0.434,0.233,0.6,0.5C64.783,128.467,64.816,128.783,64.75,129.15z"/>
		
			<radialGradient id="SVGID_27_" cx="89.8545" cy="111.8223" r="1.1524" gradientTransform="matrix(0.9762 0.2169 -0.1952 1.063 1.617 -8.8041)" gradientUnits="userSpaceOnUse">
			<stop  offset="0" style="stop-color:#FFFFFF"/>
			<stop  offset="0.1765" style="stop-color:#F6FFFF"/>
			<stop  offset="0.4745" style="stop-color:#DEFFFF"/>
			<stop  offset="0.8549" style="stop-color:#B8FFFF"/>
			<stop  offset="1" style="stop-color:#A8FFFF"/>
		</radialGradient>
		<path style="fill-rule:evenodd;clip-rule:evenodd;fill:url(#SVGID_27_);" d="M68.5,129.8c-0.066,0.367-0.217,0.667-0.45,0.9
			c-0.267,0.2-0.533,0.267-0.8,0.2c-0.267-0.033-0.483-0.217-0.65-0.551c-0.133-0.3-0.167-0.633-0.1-1
			c0.066-0.366,0.217-0.666,0.45-0.899c0.267-0.2,0.533-0.267,0.8-0.2s0.483,0.25,0.65,0.55C68.533,129.1,68.566,129.434,68.5,129.8
			z"/>
		
			<radialGradient id="SVGID_28_" cx="84.9248" cy="101.2002" r="21.5857" gradientTransform="matrix(1 0 0 -1.2115 0 223.8014)" gradientUnits="userSpaceOnUse">
			<stop  offset="0" style="stop-color:#FFFFFF;stop-opacity:0.6588"/>
			<stop  offset="0.1137" style="stop-color:#F6FDFE;stop-opacity:0.6588"/>
			<stop  offset="0.302" style="stop-color:#DDF8FA;stop-opacity:0.6588"/>
			<stop  offset="0.5451" style="stop-color:#B6F0F5;stop-opacity:0.6588"/>
			<stop  offset="0.8314" style="stop-color:#82E5ED;stop-opacity:0.6588"/>
			<stop  offset="1" style="stop-color:#64DDE8;stop-opacity:0.6588"/>
		</radialGradient>
		<path style="fill-rule:evenodd;clip-rule:evenodd;fill:url(#SVGID_28_);" d="M71.5,76.25c4.133-0.333,8.7-0.5,13.7-0.5
			c10.3,0,17.583,0.533,21.85,1.6v47.75c-4.366,1.033-11.649,1.551-21.85,1.551c-10.967,0-18.434-0.567-22.4-1.7V77.5
			C64.6,77,67.5,76.583,71.5,76.25z"/>
		
			<radialGradient id="SVGID_29_" cx="85.0254" cy="102.5" r="15.3189" gradientTransform="matrix(1 0 0 -1.6824 0 274.951)" gradientUnits="userSpaceOnUse">
			<stop  offset="0.0078" style="stop-color:#FFFFFF"/>
			<stop  offset="0.3529" style="stop-color:#E4FFFF;stop-opacity:0.9608"/>
			<stop  offset="1" style="stop-color:#C7FFFF;stop-opacity:0"/>
		</radialGradient>
		<path style="fill-rule:evenodd;clip-rule:evenodd;fill:url(#SVGID_29_);" d="M100.35,102.5c0,7.133-1.5,13.2-4.5,18.2
			c-2.967,5.033-6.566,7.55-10.8,7.55s-7.85-2.517-10.85-7.55c-3-5-4.5-11.067-4.5-18.2c0-7.1,1.5-13.167,4.5-18.2
			s6.616-7.55,10.85-7.55s7.833,2.517,10.8,7.55C98.85,89.333,100.35,95.4,100.35,102.5z"/>
		
			<radialGradient id="SVGID_30_" cx="74.2998" cy="85.4004" r="2.6998" gradientTransform="matrix(1 0 0 -1.2176 0 189.3833)" gradientUnits="userSpaceOnUse">
			<stop  offset="0.0078" style="stop-color:#FFFFFF;stop-opacity:0.9765"/>
			<stop  offset="0.6392" style="stop-color:#E4FFFF;stop-opacity:0.6392"/>
			<stop  offset="0.6706" style="stop-color:#DAFFFF;stop-opacity:0.4078"/>
			<stop  offset="0.7216" style="stop-color:#CFFFFF;stop-opacity:0.1725"/>
			<stop  offset="0.7961" style="stop-color:#C9FFFF;stop-opacity:0.0353"/>
			<stop  offset="1" style="stop-color:#C7FFFF;stop-opacity:0"/>
		</radialGradient>
		<path style="fill-rule:evenodd;clip-rule:evenodd;fill:url(#SVGID_30_);" d="M77,85.4c0,0.933-0.267,1.717-0.8,2.35
			c-0.5,0.633-1.134,0.95-1.9,0.95s-1.417-0.317-1.95-0.95c-0.534-0.633-0.8-1.417-0.8-2.35c0-0.9,0.267-1.667,0.8-2.3
			c0.567-0.667,1.216-1,1.95-1s1.367,0.333,1.9,1C76.733,83.733,77,84.5,77,85.4z"/>
		
			<radialGradient id="SVGID_31_" cx="69.4502" cy="95.4004" r="1.3" gradientTransform="matrix(1 0 0 -1.2212 0 211.899)" gradientUnits="userSpaceOnUse">
			<stop  offset="0.0078" style="stop-color:#FFFFFF;stop-opacity:0.549"/>
			<stop  offset="0.6392" style="stop-color:#E4FFFF;stop-opacity:0.6392"/>
			<stop  offset="0.6706" style="stop-color:#DAFFFF;stop-opacity:0.4078"/>
			<stop  offset="0.7216" style="stop-color:#CFFFFF;stop-opacity:0.1725"/>
			<stop  offset="0.7961" style="stop-color:#C9FFFF;stop-opacity:0.0353"/>
			<stop  offset="1" style="stop-color:#C7FFFF;stop-opacity:0"/>
		</radialGradient>
		<path style="fill-rule:evenodd;clip-rule:evenodd;fill:url(#SVGID_31_);" d="M70.75,95.4c0,0.433-0.133,0.816-0.4,1.149
			c-0.233,0.3-0.534,0.45-0.9,0.45c-0.367,0-0.684-0.15-0.95-0.45c-0.267-0.333-0.4-0.717-0.4-1.149c0-0.434,0.133-0.801,0.4-1.101
			s0.583-0.45,0.95-0.45c0.366,0,0.667,0.15,0.9,0.45C70.617,94.6,70.75,94.967,70.75,95.4z"/>
		
			<radialGradient id="SVGID_32_" cx="68.25" cy="80.7998" r="3.7625" gradientTransform="matrix(1 0 0 -1.2159 0 179.0481)" gradientUnits="userSpaceOnUse">
			<stop  offset="0.0078" style="stop-color:#FFFFFF;stop-opacity:0.9765"/>
			<stop  offset="0.6392" style="stop-color:#E4FFFF;stop-opacity:0.6392"/>
			<stop  offset="0.6706" style="stop-color:#DAFFFF;stop-opacity:0.4078"/>
			<stop  offset="0.7216" style="stop-color:#CFFFFF;stop-opacity:0.1725"/>
			<stop  offset="0.7961" style="stop-color:#C9FFFF;stop-opacity:0.0353"/>
			<stop  offset="1" style="stop-color:#C7FFFF;stop-opacity:0"/>
		</radialGradient>
		<path style="fill-rule:evenodd;clip-rule:evenodd;fill:url(#SVGID_32_);" d="M72,80.8c0,1.267-0.367,2.35-1.1,3.25
			c-0.733,0.9-1.617,1.35-2.65,1.35s-1.917-0.45-2.65-1.35c-0.733-0.9-1.1-1.983-1.1-3.25s0.367-2.35,1.1-3.25
			c0.733-0.9,1.617-1.35,2.65-1.35s1.917,0.45,2.65,1.35C71.633,78.45,72,79.533,72,80.8z"/>
		
			<radialGradient id="SVGID_33_" cx="99" cy="79.4502" r="2.15" gradientTransform="matrix(1 0 0 -1.2151 0 175.9914)" gradientUnits="userSpaceOnUse">
			<stop  offset="0.0078" style="stop-color:#FFFFFF;stop-opacity:0.9765"/>
			<stop  offset="0.6392" style="stop-color:#E4FFFF;stop-opacity:0.6392"/>
			<stop  offset="0.6706" style="stop-color:#DAFFFF;stop-opacity:0.4078"/>
			<stop  offset="0.7216" style="stop-color:#CFFFFF;stop-opacity:0.1725"/>
			<stop  offset="0.7961" style="stop-color:#C9FFFF;stop-opacity:0.0353"/>
			<stop  offset="1" style="stop-color:#C7FFFF;stop-opacity:0"/>
		</radialGradient>
		<path style="fill-rule:evenodd;clip-rule:evenodd;fill:url(#SVGID_33_);" d="M101.15,79.45c0,0.733-0.2,1.35-0.601,1.85
			c-0.433,0.5-0.95,0.75-1.55,0.75s-1.1-0.25-1.5-0.75c-0.434-0.5-0.65-1.116-0.65-1.85s0.217-1.35,0.65-1.85
			c0.4-0.534,0.9-0.8,1.5-0.8s1.117,0.267,1.55,0.8C100.95,78.1,101.15,78.717,101.15,79.45z"/>
		
			<radialGradient id="SVGID_34_" cx="101.3496" cy="88.8496" r="4.7625" gradientTransform="matrix(1 0 0 -1.2152 0 196.8217)" gradientUnits="userSpaceOnUse">
			<stop  offset="0.0078" style="stop-color:#FFFFFF;stop-opacity:0.9765"/>
			<stop  offset="0.6392" style="stop-color:#E4FFFF;stop-opacity:0.6392"/>
			<stop  offset="0.6706" style="stop-color:#DAFFFF;stop-opacity:0.4078"/>
			<stop  offset="0.7216" style="stop-color:#CFFFFF;stop-opacity:0.1725"/>
			<stop  offset="0.7961" style="stop-color:#C9FFFF;stop-opacity:0.0353"/>
			<stop  offset="1" style="stop-color:#C7FFFF;stop-opacity:0"/>
		</radialGradient>
		<path style="fill-rule:evenodd;clip-rule:evenodd;fill:url(#SVGID_34_);" d="M106.15,88.85c0,1.601-0.467,2.967-1.4,4.101
			c-0.934,1.1-2.066,1.649-3.4,1.649c-1.3,0-2.416-0.55-3.35-1.649c-0.934-1.134-1.4-2.5-1.4-4.101c0-1.6,0.467-2.966,1.4-4.1
			s2.05-1.7,3.35-1.7c1.334,0,2.467,0.567,3.4,1.7S106.15,87.25,106.15,88.85z"/>
		
			<radialGradient id="SVGID_35_" cx="92.4502" cy="121.5" r="3.7" gradientTransform="matrix(1 0 0 -1.2162 0 269.2703)" gradientUnits="userSpaceOnUse">
			<stop  offset="0.0078" style="stop-color:#FFFFFF;stop-opacity:0.9765"/>
			<stop  offset="0.6392" style="stop-color:#E4FFFF;stop-opacity:0.6392"/>
			<stop  offset="0.6706" style="stop-color:#DAFFFF;stop-opacity:0.4078"/>
			<stop  offset="0.7216" style="stop-color:#CFFFFF;stop-opacity:0.1725"/>
			<stop  offset="0.7961" style="stop-color:#C9FFFF;stop-opacity:0.0353"/>
			<stop  offset="1" style="stop-color:#C7FFFF;stop-opacity:0"/>
		</radialGradient>
		<path style="fill-rule:evenodd;clip-rule:evenodd;fill:url(#SVGID_35_);" d="M96.15,121.5c0,1.233-0.367,2.283-1.101,3.15
			c-0.7,0.899-1.566,1.35-2.6,1.35s-1.9-0.45-2.601-1.35c-0.732-0.867-1.1-1.917-1.1-3.15s0.367-2.3,1.1-3.2
			c0.7-0.866,1.567-1.3,2.601-1.3s1.899,0.434,2.6,1.3C95.783,119.2,96.15,120.267,96.15,121.5z"/>
		
			<radialGradient id="SVGID_36_" cx="68.3501" cy="117.9004" r="4.075" gradientTransform="matrix(1 0 0 -1.2147 0 261.1168)" gradientUnits="userSpaceOnUse">
			<stop  offset="0.0078" style="stop-color:#FFFFFF;stop-opacity:0.9765"/>
			<stop  offset="0.6392" style="stop-color:#E4FFFF;stop-opacity:0.6392"/>
			<stop  offset="0.6706" style="stop-color:#DAFFFF;stop-opacity:0.4078"/>
			<stop  offset="0.7216" style="stop-color:#CFFFFF;stop-opacity:0.1725"/>
			<stop  offset="0.7961" style="stop-color:#C9FFFF;stop-opacity:0.0353"/>
			<stop  offset="1" style="stop-color:#C7FFFF;stop-opacity:0"/>
		</radialGradient>
		<path style="fill-rule:evenodd;clip-rule:evenodd;fill:url(#SVGID_36_);" d="M72.45,117.9c0,1.366-0.4,2.55-1.2,3.55
			c-0.8,0.967-1.767,1.45-2.9,1.45s-2.083-0.483-2.85-1.45c-0.8-1-1.2-2.184-1.2-3.55c0-1.367,0.4-2.533,1.2-3.5
			c0.767-0.967,1.717-1.45,2.85-1.45s2.1,0.483,2.9,1.45S72.45,116.533,72.45,117.9z"/>
		
			<radialGradient id="SVGID_37_" cx="75.3501" cy="109.4502" r="2.0125" gradientTransform="matrix(1 0 0 -1.2174 0 242.6939)" gradientUnits="userSpaceOnUse">
			<stop  offset="0.0078" style="stop-color:#FFFFFF;stop-opacity:0.9765"/>
			<stop  offset="0.6392" style="stop-color:#E4FFFF;stop-opacity:0.6392"/>
			<stop  offset="0.6706" style="stop-color:#DAFFFF;stop-opacity:0.4078"/>
			<stop  offset="0.7216" style="stop-color:#CFFFFF;stop-opacity:0.1725"/>
			<stop  offset="0.7961" style="stop-color:#C9FFFF;stop-opacity:0.0353"/>
			<stop  offset="1" style="stop-color:#C7FFFF;stop-opacity:0"/>
		</radialGradient>
		<path style="fill-rule:evenodd;clip-rule:evenodd;fill:url(#SVGID_37_);" d="M77.35,109.45c0,0.667-0.2,1.25-0.6,1.75
			c-0.367,0.467-0.833,0.7-1.4,0.7s-1.05-0.233-1.45-0.7c-0.4-0.5-0.6-1.083-0.6-1.75s0.2-1.25,0.6-1.75
			c0.4-0.467,0.883-0.7,1.45-0.7s1.033,0.233,1.4,0.7C77.15,108.2,77.35,108.783,77.35,109.45z"/>
		
			<radialGradient id="SVGID_38_" cx="98.0498" cy="107.8496" r="2.2125" gradientTransform="matrix(1 0 0 -1.2147 0 238.8534)" gradientUnits="userSpaceOnUse">
			<stop  offset="0.0078" style="stop-color:#FFFFFF;stop-opacity:0.9765"/>
			<stop  offset="0.6392" style="stop-color:#E4FFFF;stop-opacity:0.6392"/>
			<stop  offset="0.6706" style="stop-color:#DAFFFF;stop-opacity:0.4078"/>
			<stop  offset="0.7216" style="stop-color:#CFFFFF;stop-opacity:0.1725"/>
			<stop  offset="0.7961" style="stop-color:#C9FFFF;stop-opacity:0.0353"/>
			<stop  offset="1" style="stop-color:#C7FFFF;stop-opacity:0"/>
		</radialGradient>
		<path style="fill-rule:evenodd;clip-rule:evenodd;fill:url(#SVGID_38_);" d="M100.3,107.85c0,0.768-0.217,1.4-0.649,1.9
			c-0.434,0.533-0.967,0.8-1.601,0.8c-0.6,0-1.116-0.267-1.55-0.8s-0.65-1.167-0.65-1.9c0-0.732,0.217-1.366,0.65-1.899
			s0.95-0.8,1.55-0.8c0.634,0,1.167,0.267,1.601,0.8C100.083,106.483,100.3,107.117,100.3,107.85z"/>
		
			<radialGradient id="SVGID_39_" cx="101.7002" cy="114.5" r="3.7" gradientTransform="matrix(1 0 0 -1.2162 0 253.7568)" gradientUnits="userSpaceOnUse">
			<stop  offset="0.0078" style="stop-color:#FFFFFF;stop-opacity:0.9765"/>
			<stop  offset="0.6392" style="stop-color:#E4FFFF;stop-opacity:0.6392"/>
			<stop  offset="0.6706" style="stop-color:#DAFFFF;stop-opacity:0.4078"/>
			<stop  offset="0.7216" style="stop-color:#CFFFFF;stop-opacity:0.1725"/>
			<stop  offset="0.7961" style="stop-color:#C9FFFF;stop-opacity:0.0353"/>
			<stop  offset="1" style="stop-color:#C7FFFF;stop-opacity:0"/>
		</radialGradient>
		<path style="fill-rule:evenodd;clip-rule:evenodd;fill:url(#SVGID_39_);" d="M105.4,114.5c0,1.267-0.367,2.333-1.101,3.2
			c-0.7,0.866-1.566,1.3-2.6,1.3s-1.9-0.434-2.601-1.3c-0.732-0.867-1.1-1.934-1.1-3.2c0-1.233,0.367-2.3,1.1-3.2
			c0.7-0.866,1.567-1.3,2.601-1.3s1.899,0.434,2.6,1.3C105.033,112.2,105.4,113.267,105.4,114.5z"/>
	</g>
</g>
<g>
	<g>
		<path style="fill-rule:evenodd;clip-rule:evenodd;fill:#ECF8BD;" d="M111.15,38.6c-0.768,0-1.351-0.25-1.75-0.75
			c-0.367-0.434-0.551-0.967-0.551-1.6s0.2-1.167,0.601-1.6c0.433-0.5,1-0.75,1.7-0.75H116c0.7,0,1.25,0.233,1.65,0.7
			c0.399,0.433,0.6,1,0.6,1.7v19.35c0,0.833-0.25,1.483-0.75,1.95c-0.467,0.466-1.066,0.7-1.8,0.7s-1.333-0.233-1.8-0.7
			c-0.5-0.467-0.75-1.117-0.75-1.95V38.6H111.15z"/>
		
			<linearGradient id="SVGID_40_" gradientUnits="userSpaceOnUse" x1="-58.3511" y1="113.5527" x2="-33.3761" y2="113.5527" gradientTransform="matrix(4.004004e-005 -1 1 -0.001 -1.024090e-004 4.449275e-004)">
			<stop  offset="0" style="stop-color:#4A2805"/>
			<stop  offset="0.1529" style="stop-color:#4A2805"/>
			<stop  offset="0.2471" style="stop-color:#502905"/>
			<stop  offset="0.3765" style="stop-color:#622B07"/>
			<stop  offset="0.5333" style="stop-color:#80300B"/>
			<stop  offset="0.7059" style="stop-color:#AA3510"/>
			<stop  offset="0.8902" style="stop-color:#DE3C16"/>
			<stop  offset="0.8941" style="stop-color:#E03C16"/>
			<stop  offset="1" style="stop-color:#E03C16"/>
		</linearGradient>
		<path style="fill-rule:evenodd;clip-rule:evenodd;fill:url(#SVGID_40_);" d="M111.15,37.45c-0.768,0-1.351-0.25-1.75-0.75
			c-0.367-0.434-0.551-0.967-0.551-1.6s0.2-1.167,0.601-1.6c0.433-0.5,1-0.75,1.7-0.75H116c0.7,0,1.25,0.233,1.65,0.7
			c0.399,0.433,0.6,1,0.6,1.7V54.5c0,0.833-0.25,1.483-0.75,1.95c-0.467,0.466-1.066,0.7-1.8,0.7s-1.333-0.233-1.8-0.7
			c-0.5-0.467-0.75-1.117-0.75-1.95V37.45H111.15z"/>
	</g>
	<g>
		<path style="fill-rule:evenodd;clip-rule:evenodd;fill:#ECF8BD;" d="M66.85,35.7c1.466,1.333,2.2,3.05,2.2,5.15
			c0,2-1,4.316-3,6.95c-1.133,1.5-2.866,3.534-5.2,6.1h6.25c1.767,0,2.65,0.75,2.65,2.25c0,0.733-0.25,1.3-0.75,1.7
			c-0.434,0.367-1,0.55-1.7,0.55H55.95c-1.767,0-2.65-0.75-2.65-2.25c0-0.466,0.25-1.033,0.75-1.7c1.934-2.2,3.384-3.85,4.35-4.95
			c1.733-2,3.117-3.75,4.15-5.25c0.8-1.133,1.2-2.184,1.2-3.15c0-0.7-0.233-1.3-0.7-1.8c-0.466-0.533-1.05-0.8-1.75-0.8
			c-1.366,0-2.333,0.917-2.9,2.75C57.833,43.083,57.033,44,56,44c-0.8,0-1.417-0.25-1.85-0.75c-0.433-0.467-0.65-1.05-0.65-1.75
			c0-2.133,0.816-3.95,2.45-5.45c1.566-1.5,3.417-2.25,5.55-2.25S65.417,34.434,66.85,35.7z"/>
		
			<linearGradient id="SVGID_41_" gradientUnits="userSpaceOnUse" x1="-58.5991" y1="61.5278" x2="-33.6241" y2="61.5278" gradientTransform="matrix(4.004004e-005 -1 1 -0.001 -1.024090e-004 4.449275e-004)">
			<stop  offset="0" style="stop-color:#4A2805"/>
			<stop  offset="0.1529" style="stop-color:#4A2805"/>
			<stop  offset="0.2471" style="stop-color:#502905"/>
			<stop  offset="0.3765" style="stop-color:#622B07"/>
			<stop  offset="0.5333" style="stop-color:#80300B"/>
			<stop  offset="0.7059" style="stop-color:#AA3510"/>
			<stop  offset="0.8902" style="stop-color:#DE3C16"/>
			<stop  offset="0.8941" style="stop-color:#E03C16"/>
			<stop  offset="1" style="stop-color:#E03C16"/>
		</linearGradient>
		<path style="fill-rule:evenodd;clip-rule:evenodd;fill:url(#SVGID_41_);" d="M69.05,39.75c0,1.967-1,4.267-3,6.9
			c-1.133,1.5-2.866,3.55-5.2,6.15h6.25c1.767,0,2.65,0.733,2.65,2.2c0,1.5-0.816,2.25-2.45,2.25H55.95
			c-1.767,0-2.65-0.75-2.65-2.25c0-0.467,0.25-1.033,0.75-1.7c1.934-2.2,3.384-3.85,4.35-4.95c1.7-1.967,3.083-3.7,4.15-5.2
			c0.8-1.2,1.2-2.267,1.2-3.2c0-0.7-0.233-1.3-0.7-1.8c-0.466-0.533-1.05-0.8-1.75-0.8c-1.366,0-2.333,0.917-2.9,2.75
			c-0.566,1.833-1.367,2.75-2.4,2.75c-0.8,0-1.417-0.25-1.85-0.75c-0.433-0.467-0.65-1.05-0.65-1.75c0-2.1,0.816-3.917,2.45-5.45
			c1.566-1.5,3.417-2.25,5.55-2.25s3.917,0.633,5.35,1.9C68.316,35.883,69.05,37.617,69.05,39.75z"/>
	</g>
	<g>
		<path style="fill-rule:evenodd;clip-rule:evenodd;fill:#ECF8BD;" d="M84.2,38.5h-6.4l-0.5,3.6c0.934-0.233,1.784-0.35,2.55-0.35
			c2.033,0,3.716,0.717,5.05,2.15c1.3,1.367,1.95,3.067,1.95,5.1c0,2.9-0.767,5.167-2.3,6.8c-1.566,1.733-3.8,2.6-6.7,2.6
			c-1.5,0-3.034-0.383-4.6-1.15c-1.9-0.934-2.85-2.066-2.85-3.4c0-0.633,0.233-1.167,0.7-1.6c0.433-0.467,0.966-0.7,1.6-0.7
			c0.366,0,1.133,0.367,2.3,1.1c1.133,0.7,2.117,1.05,2.95,1.05c1.133,0,2.033-0.467,2.7-1.4c0.6-0.866,0.9-1.883,0.9-3.05
			c0-1.033-0.283-1.867-0.85-2.5c-0.567-0.633-1.367-0.95-2.4-0.95c-0.667,0-1.366,0.2-2.1,0.6c-0.733,0.367-1.367,0.55-1.9,0.55
			c-0.6,0-1.1-0.184-1.5-0.55c-0.333-0.333-0.5-0.683-0.5-1.05L73.25,37c0.167-1.3,0.45-2.167,0.85-2.6c0.333-0.4,0.933-0.6,1.8-0.6
			h8.2c0.767,0,1.367,0.2,1.8,0.6c0.433,0.4,0.649,0.917,0.649,1.55C86.55,37.65,85.767,38.5,84.2,38.5z"/>
		
			<linearGradient id="SVGID_42_" gradientUnits="userSpaceOnUse" x1="-58.2158" y1="78.6279" x2="-33.2408" y2="78.6279" gradientTransform="matrix(4.004004e-005 -1 1 -0.001 -1.024090e-004 4.449275e-004)">
			<stop  offset="0" style="stop-color:#4A2805"/>
			<stop  offset="0.1529" style="stop-color:#4A2805"/>
			<stop  offset="0.2471" style="stop-color:#502905"/>
			<stop  offset="0.3765" style="stop-color:#622B07"/>
			<stop  offset="0.5333" style="stop-color:#80300B"/>
			<stop  offset="0.7059" style="stop-color:#AA3510"/>
			<stop  offset="0.8902" style="stop-color:#DE3C16"/>
			<stop  offset="0.8941" style="stop-color:#E03C16"/>
			<stop  offset="1" style="stop-color:#E03C16"/>
		</linearGradient>
		<path style="fill-rule:evenodd;clip-rule:evenodd;fill:url(#SVGID_42_);" d="M84.2,37.35h-6.4l-0.5,3.6
			c1.233-0.233,2.083-0.35,2.55-0.35c2.033,0,3.716,0.716,5.05,2.15c1.3,1.367,1.95,3.066,1.95,5.1c0,2.9-0.767,5.183-2.3,6.85
			c-1.566,1.7-3.8,2.55-6.7,2.55c-1.5,0-3.034-0.383-4.6-1.15c-1.9-0.934-2.85-2.067-2.85-3.4c0-0.634,0.233-1.167,0.7-1.6
			c0.433-0.467,0.966-0.7,1.6-0.7c0.366,0,1.133,0.367,2.3,1.1c1.133,0.733,2.117,1.1,2.95,1.1c1.133,0,2.033-0.483,2.7-1.45
			c0.6-0.867,0.9-1.883,0.9-3.05c0-1.034-0.283-1.85-0.85-2.45c-0.567-0.633-1.367-0.95-2.4-0.95c-0.667,0-1.366,0.183-2.1,0.55
			s-1.367,0.55-1.9,0.55c-0.6,0-1.1-0.183-1.5-0.55c-0.333-0.333-0.5-0.684-0.5-1.05l0.95-8.3c0.167-1.3,0.45-2.167,0.85-2.6
			c0.367-0.433,0.966-0.65,1.8-0.65h8.2c0.767,0,1.367,0.2,1.8,0.6c0.433,0.4,0.649,0.917,0.649,1.55
			C86.55,36.5,85.767,37.35,84.2,37.35z"/>
	</g>
	<g>
		<path style="fill-rule:evenodd;clip-rule:evenodd;fill:#ECF8BD;" d="M98,33.6c3.133,0,5.483,1.383,7.05,4.15
			c1.3,2.267,1.95,5.05,1.95,8.35c0,3.3-0.65,6.083-1.95,8.35c-1.566,2.767-3.917,4.15-7.05,4.15s-5.5-1.383-7.1-4.15
			c-1.268-2.233-1.9-5.017-1.9-8.35s0.633-6.117,1.9-8.35C92.5,34.983,94.867,33.6,98,33.6z M94.3,46.1c0,5.267,1.233,7.9,3.7,7.9
			s3.7-2.633,3.7-7.9s-1.233-7.9-3.7-7.9S94.3,40.833,94.3,46.1z"/>
		
			<linearGradient id="SVGID_43_" gradientUnits="userSpaceOnUse" x1="-58.4478" y1="98.0029" x2="-33.4478" y2="98.0029" gradientTransform="matrix(4.000000e-005 -1 1 -0.001 6.127130e-005 4.449275e-004)">
			<stop  offset="0" style="stop-color:#4A2805"/>
			<stop  offset="0.1529" style="stop-color:#4A2805"/>
			<stop  offset="0.2471" style="stop-color:#502905"/>
			<stop  offset="0.3765" style="stop-color:#622B07"/>
			<stop  offset="0.5333" style="stop-color:#80300B"/>
			<stop  offset="0.7059" style="stop-color:#AA3510"/>
			<stop  offset="0.8902" style="stop-color:#DE3C16"/>
			<stop  offset="0.8941" style="stop-color:#E03C16"/>
			<stop  offset="1" style="stop-color:#E03C16"/>
		</linearGradient>
		<path style="fill-rule:evenodd;clip-rule:evenodd;fill:url(#SVGID_43_);" d="M98,32.45c3.133,0,5.483,1.383,7.05,4.15
			c1.3,2.267,1.95,5.05,1.95,8.35c0,3.3-0.65,6.083-1.95,8.35c-1.566,2.767-3.917,4.15-7.05,4.15s-5.5-1.384-7.1-4.15
			c-1.268-2.233-1.9-5.017-1.9-8.35c0-3.333,0.633-6.117,1.9-8.35C92.5,33.833,94.867,32.45,98,32.45z M94.3,44.95
			c0,5.267,1.233,7.9,3.7,7.9s3.7-2.633,3.7-7.9s-1.233-7.9-3.7-7.9S94.3,39.684,94.3,44.95z"/>
	</g>
</g>
<g>
	
		<use xlink:href="#FlashAICB_x2F_Layer_36_copy_6_x2F__x3C_Path_x3E__x5F_2"  width="118.65" height="57.1" y="-57.1" transform="matrix(1 0 0 -1 26.9502 86.3496)" style="overflow:visible;opacity:0.2813;enable-background:new    ;"/>
	
		<use xlink:href="#FlashAICB_x2F_Layer_36_copy_6_x2F__x3C_Path_x3E__x5F_1"  width="110" height="55.75" y="-55.75" transform="matrix(1 0 0 -1 31.1001 27.5498)" style="overflow:visible;opacity:0.1094;enable-background:new    ;"/>
	
		<use xlink:href="#FlashAICB_x2F_Layer_36_copy_6_x2F__x3C_Path_x3E_"  width="110" height="61.294" y="-61.294" transform="matrix(1 0 0 -1 31.1001 27.5498)" style="overflow:visible;opacity:0.0898;enable-background:new    ;"/>
</g>
</svg>
