<?xml version="1.0" encoding="iso-8859-1"?>
<!-- Generator: Adobe Illustrator 15.1.0, SVG Export Plug-In . SVG Version: 6.00 Build 0)  -->
<!DOCTYPE svg PUBLIC "-//W3C//DTD SVG 1.1//EN" "http://www.w3.org/Graphics/SVG/1.1/DTD/svg11.dtd">
<svg version="1.1" id="Layer_26" xmlns="http://www.w3.org/2000/svg" xmlns:xlink="http://www.w3.org/1999/xlink" x="0px" y="0px"
	 width="172.4px" height="172.4px" viewBox="0 0 172.4 172.4" style="enable-background:new 0 0 172.4 172.4;" xml:space="preserve"
	>
<symbol  id="FlashAICB_x2F_Layer_26_x2F__x3C_Path_x3E_" viewBox="0 -118.65 118.9 118.65">
	<g id="Layer_1_2_">
		
			<radialGradient id="SVGID_1_" cx="59.4502" cy="-59.3252" r="59.3875" gradientTransform="matrix(1 0 0 -1 0 -118.6504)" gradientUnits="userSpaceOnUse">
			<stop  offset="0" style="stop-color:#CCEFE7"/>
			<stop  offset="0.0863" style="stop-color:#C2E8E0"/>
			<stop  offset="0.2392" style="stop-color:#A6D6CF"/>
			<stop  offset="0.4353" style="stop-color:#7BB8B2"/>
			<stop  offset="0.6078" style="stop-color:#519A96"/>
			<stop  offset="0.8039" style="stop-color:#539A96"/>
			<stop  offset="0.8745" style="stop-color:#589A96"/>
			<stop  offset="0.9255" style="stop-color:#629B96"/>
			<stop  offset="0.9686" style="stop-color:#719B96"/>
			<stop  offset="1" style="stop-color:#839C96"/>
		</radialGradient>
		<path style="fill-rule:evenodd;clip-rule:evenodd;fill:url(#SVGID_1_);" d="M118.9-59.3c0-16.4-5.8-30.4-17.4-42
			c-11.6-11.567-25.617-17.35-42.05-17.35c-16.4,0-30.4,5.783-42,17.35C5.817-89.7,0-75.7,0-59.3c0,16.367,5.817,30.35,17.45,41.95
			C29.05-5.783,43.05,0,59.45,0C75.883,0,89.9-5.783,101.5-17.35C113.1-28.95,118.9-42.933,118.9-59.3z"/>
	</g>
</symbol>
<symbol  id="FlashAICB_x2F_Layer_26_x2F__x3C_Path_x3E__x5F_0" viewBox="0 -57.1 118.7 57.1">
	<g id="Layer_1_8_">
		
			<radialGradient id="SVGID_2_" cx="59.3501" cy="-28.5498" r="46.5701" gradientTransform="matrix(1 0 0 -1 0 -57.0996)" gradientUnits="userSpaceOnUse">
			<stop  offset="0" style="stop-color:#CCEFE7;stop-opacity:0"/>
			<stop  offset="0.0941" style="stop-color:#C2E8E0;stop-opacity:0.0784"/>
			<stop  offset="0.2549" style="stop-color:#A6D6CF;stop-opacity:0.298"/>
			<stop  offset="0.4667" style="stop-color:#7BB8B2;stop-opacity:0.6471"/>
			<stop  offset="0.651" style="stop-color:#519A96"/>
		</radialGradient>
		<path style="fill-rule:evenodd;clip-rule:evenodd;fill:url(#SVGID_2_);" d="M95.5-30.35c10.733,7.7,18.283,17.733,22.65,30.1
			L118.7,0c-0.567-15.867-6.6-29.35-18.1-40.45C89.1-51.55,75.333-57.1,59.3-57.1c-15.7,0-29.267,5.367-40.7,16.1
			C7.2-30.3,1-17.183,0-1.65c4.6-12,12.183-21.7,22.75-29.1C33.55-38.317,45.567-42.1,58.8-42.1
			C72.333-42.1,84.567-38.183,95.5-30.35z"/>
	</g>
</symbol>
<symbol  id="FlashAICB_x2F_Layer_26_x2F__x3C_Path_x3E__x5F_1" viewBox="0 -61.294 110 61.294">
	<g id="Layer_1_7_">
		<path style="fill-rule:evenodd;clip-rule:evenodd;fill:#FFFFFF;" d="M106.5-34.35c2.333-5.633,3.5-10.933,3.5-15.9
			s-1.433-8.083-4.3-9.35c-2.367-1.066-6.3-1.066-11.8,0c-7.267,1.767-13.1,3.117-17.5,4.05C68.4-53.85,61.267-53,55-53
			c-6.333,0-13.467-0.917-21.4-2.75c-8.333-2.2-14.167-3.683-17.5-4.45c-5.533-1.267-9.467-1.433-11.8-0.5
			C1.433-59.5,0-56.433,0-51.5c0,5.5,1.167,11.167,3.5,17c2.467,6.167,5.95,11.733,10.45,16.7C24.65-5.933,38.333,0,55,0
			c16.467,0,30.133-5.983,41-17.95C100.467-22.883,103.967-28.35,106.5-34.35z"/>
	</g>
</symbol>
<symbol  id="FlashAICB_x2F_Layer_26_x2F__x3C_Path_x3E__x5F_2" viewBox="0.025 -38.15 4.225 38.15">
	<g id="Layer_1_5_">
		<path style="fill-rule:evenodd;clip-rule:evenodd;fill:#FFFFFF;" d="M2.05-0.5L2.25,0C2.617-1.4,2.767-2.6,2.7-3.6
			C2.633-4.833,2.583-7,2.55-10.1c-0.033-4.167,0.034-8.333,0.2-12.5c0.067-2.566,0.567-7.75,1.5-15.55
			c-0.8,3.633-1.233,5.883-1.3,6.75c-0.667,4.133-1,6.25-1,6.35c-0.434,1.7-0.684,2.733-0.75,3.1c-0.034,0.233-0.017,0.75,0.05,1.55
			l0.15,1.15c0.1,1.467,0.133,2.45,0.1,2.95c-0.033,0.367-0.15,1.216-0.35,2.55c-0.233,1.333-0.383,2.133-0.45,2.4
			c-0.1,0.267-0.233,1.1-0.4,2.5C0.133-7.517,0.05-6.667,0.05-6.3c-0.033,0.433-0.033,1.017,0,1.75C0.083-3.683,0.15-3.167,0.25-3
			C0.383-2.733,0.983-1.9,2.05-0.5z"/>
	</g>
</symbol>
<symbol  id="FlashAICB_x2F_Layer_26_x2F__x3C_Path_x3E__x5F_24" viewBox="0.019 -32.57 46.881 32.57">
	<g id="Layer_1_3_">
		<path style="fill-rule:evenodd;clip-rule:evenodd;fill:#FFFFFF;" d="M45.85-26.05c0.1-1.133,0.45-2.184,1.05-3.15h-0.95
			c-0.367,0.733-0.633,1.517-0.8,2.35c-0.6-0.1-1.283-0.3-2.05-0.6c-1.333-0.433-2.383-0.7-3.15-0.8
			c-2.034-0.267-3.733-0.067-5.1,0.6c-0.767,0.4-1.333,0.833-1.7,1.3L28.75-26l-1.1-0.05c-0.066-0.2-0.117-0.567-0.15-1.1
			c0-0.9-0.133-1.617-0.4-2.15c-0.667-1.4-1.967-2.367-3.9-2.9c-1.833-0.566-3.45-0.483-4.85,0.25
			c-0.833,0.467-1.367,1.017-1.6,1.65c-0.1,0.333-0.133,0.8-0.1,1.4c0.033,0.267,0.017,0.45-0.05,0.55c-0.1,0.2-0.633,0.3-1.6,0.3
			l-1.9-0.15c-0.767-0.133-1.733-0.5-2.9-1.1c-1.934-0.934-3.534-1.417-4.8-1.45L4.55-30.8c-1.667,0-2.867,0.367-3.6,1.1
			c-0.733,0.8-1.034,1.983-0.9,3.55c0.2,2.467,1.417,4.017,3.65,4.65l-0.1,0.35c-0.367,1.1-0.434,2.033-0.2,2.8
			s0.717,1.517,1.45,2.25c0.633,0.667,1.316,1.184,2.05,1.55c0.567,0.333,1.633,0.533,3.2,0.6c0.9,0,1.483,0.067,1.75,0.2
			c0,0.367-0.05,0.65-0.15,0.85h-0.25c-0.733,0-1.3,0.2-1.7,0.6c-0.533,0.5-0.767,1.35-0.7,2.55c0.167,2.5,1.967,3.833,5.4,4
			l0.05,0.7c0.067,1.433,0.267,2.566,0.6,3.4L15.15-2l0.1,0.65c0.3,0.5,0.6,0.934,0.9,1.3L17.3,0c-0.8-0.7-1.35-1.5-1.65-2.4
			c-0.167-0.533-0.3-1.434-0.4-2.7l-0.1-1.35c-1.5-0.066-2.633-0.267-3.4-0.6c-1.2-0.534-1.833-1.45-1.9-2.75
			c-0.033-1,0.117-1.667,0.45-2c0.233-0.233,0.65-0.35,1.25-0.35c0.333,0,0.567-0.067,0.7-0.2c0.167-0.167,0.283-0.483,0.35-0.95
			c0.1-0.467,0.083-0.767-0.05-0.9c-0.267-0.333-1.083-0.5-2.45-0.5c-1.4-0.066-2.35-0.233-2.85-0.5
			c-0.667-0.367-1.283-0.833-1.85-1.4c-0.633-0.667-1.05-1.316-1.25-1.95c-0.167-0.567-0.1-1.367,0.2-2.4
			c0.133-0.533,0.2-0.9,0.2-1.1c-2.267-0.434-3.5-1.817-3.7-4.15c-0.133-1.333,0.1-2.333,0.7-3c0.4-0.4,0.934-0.65,1.6-0.75
			c0.467-0.066,1.2-0.083,2.2-0.05c1.233,0.033,2.717,0.483,4.45,1.35c1.434,0.667,2.5,1.05,3.2,1.15c1.1,0.2,2.05,0.25,2.85,0.15
			c0.8-0.066,1.283-0.267,1.45-0.6c0.167-0.267,0.217-0.617,0.15-1.05c-0.034-0.467-0.017-0.833,0.05-1.1
			c0.167-0.467,0.583-0.867,1.25-1.2c1.2-0.667,2.6-0.733,4.2-0.2c1.7,0.533,2.85,1.383,3.45,2.55c0.167,0.333,0.283,0.95,0.35,1.85
			c0,0.934,0.117,1.483,0.35,1.65c0.6,0.3,2.4,0.284,5.4-0.05c0.733-0.067,1.15-0.183,1.25-0.35c0.3-0.433,0.783-0.8,1.45-1.1
			c1.233-0.6,2.783-0.783,4.65-0.55c0.633,0.067,1.617,0.317,2.95,0.75C44.2-26.283,45.217-26.05,45.85-26.05z"/>
	</g>
</symbol>
<symbol  id="FlashAICB_x2F_Layer_26_x2F__x3C_Path_x3E__x5F_2_x5F_0" viewBox="0 -55.75 110 55.75">
	<g id="Layer_1_6_">
		
			<linearGradient id="SVGID_3_" gradientUnits="userSpaceOnUse" x1="16163.3564" y1="-53.8555" x2="16219.1318" y2="-53.8555" gradientTransform="matrix(1.792918e-005 1 -1 -0.001 0.8545 -16219.1055)">
			<stop  offset="0.1294" style="stop-color:#E1B7B1"/>
			<stop  offset="0.9255" style="stop-color:#FFFFFF"/>
		</linearGradient>
		<path style="fill-rule:evenodd;clip-rule:evenodd;fill:url(#SVGID_3_);" d="M96-17.95c4.467-4.933,7.967-10.4,10.5-16.4
			c2.333-5.633,3.5-10.933,3.5-15.9c0-1.767-0.167-3.25-0.5-4.45c-1.833,11.034-7.217,20.85-16.15,29.45
			C82.783-15.117,70-10.05,55-10.05c-15.267,0-28.1-5.05-38.5-15.15c-9-8.733-14.35-18.917-16.05-30.55C0.15-54.55,0-53.133,0-51.5
			c0,5.5,1.167,11.167,3.5,17c2.467,6.167,5.95,11.733,10.45,16.7C24.65-5.933,38.333,0,55,0C71.467,0,85.133-5.983,96-17.95z"/>
	</g>
</symbol>
<symbol  id="FlashAICB_x2F_Layer_26_x2F__x3C_Path_x3E__x5F_6" viewBox="0 -43.798 64.1 43.798">
	<g id="Layer_1_4_">
		<path style="fill-rule:evenodd;clip-rule:evenodd;fill:#C9BF99;" d="M63.05-10.2c0-1.933-0.017-5.867-0.05-11.8
			c0.033-5.467,0.2-9.4,0.5-11.8l0.6-5.05c-1.4,1.7-3.533,2.883-6.4,3.55c-2.434,0.566-5.467,0.55-9.1-0.05v0.15l-0.1-0.2
			c-2.733-0.5-5.883-1.35-9.45-2.55c-0.433-0.133-2.95-1.033-7.55-2.7c-2.5-0.9-5.183-1.617-8.05-2.15l-0.25,0.35l-0.05-0.4
			c-5.8-1.066-10.383-1.233-13.75-0.5c-4.233,0.9-7.367,2.517-9.4,4.85L0.75-21c0.267,6.1,0.4,13.1,0.4,21L4.2-1.65
			c1.2-1.167,3.167-2.167,5.9-3l0.25-0.85l0.05,0.75c2-0.567,4.117-0.917,6.35-1.05c1.467-0.1,3.267-0.117,5.4-0.05L22.5-7.7
			c0.033,0.434,0.15,1.067,0.35,1.9c4.066,0.233,8.367,0.733,12.9,1.5c4.3,0.767,7.65,1.583,10.05,2.45c1.9,0.667,3.8,1.033,5.7,1.1
			c2,0.067,3.833-0.217,5.5-0.85l0.55-2.85l0.1,2.6c1.733-0.8,3.15-1.933,4.25-3.4l0.9-1.45C62.9-7.467,62.983-8.633,63.05-10.2z"/>
	</g>
</symbol>
<g>
	<path style="fill-rule:evenodd;clip-rule:evenodd;fill:#68757B;" d="M6.8,52.65c4.367-10.3,10.517-19.433,18.45-27.4
		c7.967-7.934,17.1-14.083,27.4-18.45C63.35,2.267,74.533,0,86.2,0c11.666,0,22.85,2.267,33.55,6.8
		c10.3,4.367,19.434,10.517,27.4,18.45c7.933,7.967,14.083,17.1,18.449,27.4c4.534,10.7,6.801,21.883,6.801,33.55
		s-2.267,22.85-6.801,33.55c-4.366,10.3-10.517,19.434-18.449,27.4c-7.967,7.933-17.101,14.083-27.4,18.449
		c-10.7,4.533-21.884,6.801-33.55,6.801c-11.667,0-22.85-2.268-33.55-6.801c-10.3-4.366-19.433-10.517-27.4-18.449
		c-7.933-7.967-14.083-17.101-18.45-27.4C2.267,109.05,0,97.867,0,86.2S2.267,63.35,6.8,52.65z"/>
	<path style="fill-rule:evenodd;clip-rule:evenodd;fill:#FFFFFF;" d="M6.8,52.65c4.367-10.3,10.517-19.433,18.45-27.4
		c7.967-7.934,17.1-14.083,27.4-18.45C63.35,2.267,74.533,0,86.2,0c11.666,0,22.85,2.267,33.55,6.8
		c10.3,4.367,19.434,10.517,27.4,18.45c7.933,7.967,14.083,17.1,18.449,27.4c4.534,10.7,6.801,21.883,6.801,33.55
		s-2.267,22.85-6.801,33.55c-4.366,10.3-10.517,19.434-18.449,27.4c-7.967,7.933-17.101,14.083-27.4,18.449
		c-10.7,4.533-21.884,6.801-33.55,6.801c-11.667,0-22.85-2.268-33.55-6.801c-10.3-4.366-19.433-10.517-27.4-18.449
		c-7.933-7.967-14.083-17.101-18.45-27.4C2.267,109.05,0,97.867,0,86.2S2.267,63.35,6.8,52.65z"/>
	<g>
		<g>
			
				<linearGradient id="SVGID_4_" gradientUnits="userSpaceOnUse" x1="-159.0859" y1="86.2007" x2="-13.4858" y2="86.2007" gradientTransform="matrix(6.869312e-006 -1 1 -0.001 1.857748e-005 4.683650e-004)">
				<stop  offset="0" style="stop-color:#ECE7E0"/>
				<stop  offset="0.1216" style="stop-color:#E1DED8"/>
				<stop  offset="0.7059" style="stop-color:#B5B6B5"/>
				<stop  offset="1" style="stop-color:#A4A7A8"/>
			</linearGradient>
			<path style="fill-rule:evenodd;clip-rule:evenodd;fill:url(#SVGID_4_);" d="M57.85,19.1c9.033-3.8,18.483-5.7,28.35-5.7
				c9.866,0,19.316,1.9,28.35,5.7c8.7,3.7,16.417,8.917,23.15,15.65c6.7,6.7,11.899,14.4,15.6,23.1c3.8,9.033,5.7,18.483,5.7,28.35
				c0,9.866-1.9,19.316-5.7,28.35c-3.7,8.7-8.899,16.417-15.6,23.15c-6.733,6.7-14.45,11.899-23.15,15.6
				c-9.033,3.8-18.483,5.7-28.35,5.7c-9.867,0-19.317-1.9-28.35-5.7c-8.7-3.7-16.4-8.899-23.1-15.6
				c-6.733-6.733-11.95-14.45-15.65-23.15c-3.8-9.033-5.7-18.483-5.7-28.35c0-9.867,1.9-19.317,5.7-28.35
				c3.7-8.7,8.917-16.4,15.65-23.1C41.45,28.017,49.15,22.8,57.85,19.1z"/>
		</g>
	</g>
</g>
<g>
	<g>
		
			<linearGradient id="SVGID_5_" gradientUnits="userSpaceOnUse" x1="-152.4863" y1="86.2012" x2="-20.1357" y2="86.2012" gradientTransform="matrix(7.555724e-006 -1 1 -0.001 2.115396e-004 4.683650e-004)">
			<stop  offset="0.0745" style="stop-color:#3C5350"/>
			<stop  offset="0.1922" style="stop-color:#486D66"/>
			<stop  offset="0.4431" style="stop-color:#67AF9D"/>
			<stop  offset="0.4784" style="stop-color:#6CB9A6"/>
			<stop  offset="0.9216" style="stop-color:#E0D1B7"/>
		</linearGradient>
		<path style="fill-rule:evenodd;clip-rule:evenodd;fill:url(#SVGID_5_);" d="M133,39.45c12.934,12.933,19.4,28.517,19.4,46.75
			c0,18.267-6.467,33.866-19.4,46.8s-28.533,19.4-46.8,19.4c-18.267,0-33.867-6.467-46.8-19.4C26.467,120.066,20,104.467,20,86.2
			c0-18.233,6.467-33.817,19.4-46.75c12.934-12.934,28.533-19.4,46.8-19.4C104.467,20.05,120.066,26.517,133,39.45z"/>
		<path style="fill-rule:evenodd;clip-rule:evenodd;fill:#1C3330;" d="M132.4,40c-12.733-12.767-28.134-19.15-46.2-19.15
			C68.167,20.85,52.767,27.233,40,40S20.85,68.167,20.85,86.2c0,18.066,6.383,33.467,19.15,46.2
			c12.767,12.767,28.167,19.149,46.2,19.149c18.066,0,33.467-6.383,46.2-19.149c12.767-12.733,19.149-28.134,19.149-46.2
			C151.55,68.167,145.167,52.767,132.4,40z M38.8,38.8c6.367-6.333,13.617-11.183,21.75-14.55c8.167-3.367,16.717-5.05,25.65-5.05
			c8.967,0,17.517,1.683,25.649,5.05c8.167,3.367,15.417,8.217,21.75,14.55c6.334,6.367,11.184,13.617,14.551,21.75
			c3.366,8.167,5.05,16.717,5.05,25.65c0,8.967-1.684,17.517-5.05,25.649c-3.367,8.167-8.217,15.417-14.551,21.75
			c-6.333,6.334-13.583,11.184-21.75,14.551c-8.133,3.366-16.683,5.05-25.649,5.05c-8.934,0-17.483-1.684-25.65-5.05
			c-8.133-3.367-15.383-8.217-21.75-14.551c-6.333-6.333-11.183-13.583-14.55-21.75c-3.367-8.133-5.05-16.683-5.05-25.649
			c0-8.934,1.683-17.483,5.05-25.65C27.617,52.417,32.467,45.167,38.8,38.8z"/>
	</g>
	
		<use xlink:href="#FlashAICB_x2F_Layer_26_x2F__x3C_Path_x3E_"  width="118.9" height="118.65" y="-118.65" transform="matrix(1 0 0 -1 26.75 24.75)" style="overflow:visible;opacity:0.3789;enable-background:new    ;"/>
</g>
<g>
	
		<linearGradient id="SVGID_6_" gradientUnits="userSpaceOnUse" x1="-132.7988" y1="86.2227" x2="-74.7738" y2="86.2227" gradientTransform="matrix(1.723395e-005 -1 1 -0.001 5.515847e-005 4.683650e-004)">
		<stop  offset="0" style="stop-color:#1E7B6A"/>
		<stop  offset="0.7098" style="stop-color:#9FE0B8"/>
	</linearGradient>
	<path style="fill-rule:evenodd;clip-rule:evenodd;fill:url(#SVGID_6_);" d="M121.05,83.45c0.134,0.5,0.267,1.25,0.4,2.25l0.05,0.1
		l0.1,0.95c0.167,1.033,0.217,1.95,0.15,2.75l-0.05,0.35l0.05,1.101l-0.05,0.1l0.3,20.15l0.55,4.75v0.3l0.8,7.55l-0.05,0.3
		c0.101,1.134,0.117,2.117,0.05,2.95c-0.166,2.867-1.333,4.817-3.5,5.851c-1.233,0.566-3.017,0.866-5.35,0.899l-2.9,0.05l-0.3,0.051
		c-1.166,0-2.2-0.417-3.1-1.25c-0.733-0.733-1.167-1.533-1.3-2.4c-0.167-0.4-0.25-0.934-0.25-1.6c0-1.367-0.034-2.584-0.101-3.65
		l-1.399,0.25l-0.601,0.05l-0.5,0.2l-1.5,0.45c-1.633,0.533-3.649,1.399-6.05,2.6c-2.767,1.3-4.983,2.25-6.65,2.851
		c-2.866,1-5.917,1.683-9.149,2.05c-0.8,0.1-1.55,0-2.25-0.3c-0.534,0.267-1.133,0.416-1.8,0.449L75.6,133.7
		c-1.767,0.167-2.983,0.149-3.65-0.05c-0.4,0.1-0.8,0.149-1.2,0.149c-8.133-0.233-13.95-1.45-17.45-3.649L53,130
		c-1.167-0.633-2.1-1.583-2.8-2.85c-0.867-1.533-1.233-3.25-1.1-5.15h-0.05l0.05-0.25c-0.067-1.133-0.067-5.033,0-11.7
		c0-0.633,0.433-11.649,1.3-33.05c-0.033-0.967,0.267-1.9,0.9-2.8c0.467-1.1,1.25-1.917,2.35-2.45l0.3-0.3
		c2.033-1.934,4.633-2.9,7.8-2.9l1.2,0.05c1.633,0.233,2.783,1.05,3.45,2.45l0.35,0.7c0.467,0.934,0.6,1.917,0.4,2.95l-0.3,2.05
		c2.3,0.6,4.717,0.967,7.25,1.1c0.3-0.034,0.717-0.017,1.25,0.05h0.2L76,77.95c0.4,0,0.7,0.033,0.9,0.1
		c0.2-0.066,0.517-0.1,0.95-0.1l3.25-0.15c3.933-0.233,7.583-0.9,10.95-2l0.601-0.15L95.8,74.4l0.4-0.2l1.55-0.6l0.2-0.05
		c1.967-0.8,3.816-1.283,5.55-1.45h0.15c1.366-0.133,2.8-0.1,4.3,0.1c0.467,0.1,0.899,0.25,1.3,0.45c0.533,0,1.017,0.05,1.45,0.15
		l1.35,0.5c0.467,0.167,0.834,0.367,1.101,0.6c0.433,0.1,0.816,0.25,1.149,0.45c3.434,1.933,5.684,4.95,6.75,9.05V83.45z
		 M107.35,84.95v-0.1h-0.05l-0.1-0.5c-0.066-0.667-0.084-1.15-0.05-1.45c-1.167-0.333-2.051-0.95-2.65-1.85
		c-0.934,0.1-1.95,0.35-3.05,0.75c-0.733,1.167-1.767,1.85-3.101,2.05c-0.433,0.067-0.833,0.067-1.199,0L96.5,84.2
		c-0.7,0.366-1.467,0.517-2.3,0.45h-0.25c-3.834,1.133-7.934,1.85-12.3,2.15h-0.3c-0.233,1-0.767,1.817-1.6,2.45
		c-0.8,0.633-1.717,0.95-2.75,0.95c-0.933,0-1.767-0.25-2.5-0.75s-1.283-1.167-1.65-2c-0.4-0.233-0.717-0.483-0.95-0.75
		c-1.8-0.2-3.15-0.384-4.05-0.55c-0.633,0.567-1.35,0.95-2.15,1.15c-0.934,0.2-1.85,0.101-2.75-0.3c-0.9-0.367-1.6-0.967-2.1-1.8
		l-0.5-1.1c-0.434-0.133-0.833-0.367-1.2-0.7c-0.7,16.534-1.05,25.45-1.05,26.75L58,121.1c0.1,0.367,0.117,0.801,0.05,1.301v0.1
		c1.667,1.133,5.184,1.867,10.55,2.2v-0.05c0.233-0.268,0.433-0.601,0.6-1c0.433-0.834,1.033-1.467,1.8-1.9
		c0.8-0.434,1.65-0.633,2.55-0.6c0.267-0.733,0.717-1.367,1.35-1.9c0.633-0.5,1.35-0.816,2.15-0.95c0.967-0.133,1.9,0.017,2.8,0.45
		c0.867,0.467,1.517,1.133,1.95,2l0.15,0.25v0.05l0.3,0.601l0.75,2.1l0.1,0.2c1.7-0.367,3.383-0.884,5.05-1.55
		c1.033-0.4,2.517-1.067,4.449-2c2.601-1.233,4.534-2.084,5.801-2.551l0.3-1.949c0.2-1.033,0.717-1.9,1.55-2.601
		s1.767-1.05,2.8-1.05c1.101-0.033,2.066,0.283,2.9,0.95c0.8,0.667,1.333,1.517,1.6,2.55v0.2c1.601,0,3,0.133,4.2,0.399
		c0.733,0.167,1.35,0.45,1.85,0.851l-0.5-4.15l-0.35-24.6l-0.6,0.1c-1.134,0.101-2.15-0.183-3.051-0.85
		c-0.899-0.667-1.483-1.55-1.75-2.65V84.95l1.601-0.3L107.35,84.95z"/>
	<path style="fill-rule:evenodd;clip-rule:evenodd;fill:none;stroke:#DBF0E8;stroke-width:0.25;" d="M121.05,83.45
		c0.134,0.5,0.267,1.25,0.4,2.25l0.05,0.1l0.1,0.95c0.167,1.033,0.217,1.95,0.15,2.75l-0.05,0.35l0.05,1.101l-0.05,0.1l0.3,20.15
		l0.55,4.75v0.3l0.8,7.55l-0.05,0.3c0.101,1.134,0.117,2.117,0.05,2.95c-0.166,2.867-1.333,4.817-3.5,5.851
		c-1.233,0.566-3.017,0.866-5.35,0.899l-2.9,0.05l-0.3,0.051c-1.166,0-2.2-0.417-3.1-1.25c-0.733-0.733-1.167-1.533-1.3-2.4
		c-0.167-0.4-0.25-0.934-0.25-1.6c0-1.367-0.034-2.584-0.101-3.65l-1.399,0.25l-0.601,0.05l-0.5,0.2l-1.5,0.45
		c-1.633,0.533-3.649,1.399-6.05,2.6c-2.767,1.3-4.983,2.25-6.65,2.851c-2.866,1-5.917,1.683-9.149,2.05c-0.8,0.1-1.55,0-2.25-0.3
		c-0.534,0.267-1.133,0.416-1.8,0.449L75.6,133.7c-1.767,0.167-2.983,0.149-3.65-0.05c-0.4,0.1-0.8,0.149-1.2,0.149
		c-8.133-0.233-13.95-1.45-17.45-3.649L53,130c-1.167-0.633-2.1-1.583-2.8-2.85c-0.867-1.533-1.233-3.25-1.1-5.15h-0.05l0.05-0.25
		c-0.067-1.133-0.067-5.033,0-11.7c0-0.633,0.433-11.649,1.3-33.05c-0.033-0.967,0.267-1.9,0.9-2.8c0.467-1.1,1.25-1.917,2.35-2.45
		l0.3-0.3c2.033-1.934,4.633-2.9,7.8-2.9l1.2,0.05c1.633,0.233,2.783,1.05,3.45,2.45l0.35,0.7c0.467,0.934,0.6,1.917,0.4,2.95
		l-0.3,2.05c2.3,0.6,4.717,0.967,7.25,1.1c0.3-0.034,0.717-0.017,1.25,0.05h0.2L76,77.95c0.4,0,0.7,0.033,0.9,0.1
		c0.2-0.066,0.517-0.1,0.95-0.1l3.25-0.15c3.933-0.233,7.583-0.9,10.95-2l0.601-0.15L95.8,74.4l0.4-0.2l1.55-0.6l0.2-0.05
		c1.967-0.8,3.816-1.283,5.55-1.45h0.15c1.366-0.133,2.8-0.1,4.3,0.1c0.467,0.1,0.899,0.25,1.3,0.45c0.533,0,1.017,0.05,1.45,0.15
		l1.35,0.5c0.467,0.167,0.834,0.367,1.101,0.6c0.433,0.1,0.816,0.25,1.149,0.45c3.434,1.933,5.684,4.95,6.75,9.05V83.45z
		 M107.35,84.95v-0.1h-0.05l-0.1-0.5c-0.066-0.667-0.084-1.15-0.05-1.45c-1.167-0.333-2.051-0.95-2.65-1.85
		c-0.934,0.1-1.95,0.35-3.05,0.75c-0.733,1.167-1.767,1.85-3.101,2.05c-0.433,0.067-0.833,0.067-1.199,0L96.5,84.2
		c-0.7,0.366-1.467,0.517-2.3,0.45h-0.25c-3.834,1.133-7.934,1.85-12.3,2.15h-0.3c-0.233,1-0.767,1.817-1.6,2.45
		c-0.8,0.633-1.717,0.95-2.75,0.95c-0.933,0-1.767-0.25-2.5-0.75s-1.283-1.167-1.65-2c-0.4-0.233-0.717-0.483-0.95-0.75
		c-1.8-0.2-3.15-0.384-4.05-0.55c-0.633,0.567-1.35,0.95-2.15,1.15c-0.934,0.2-1.85,0.101-2.75-0.3c-0.9-0.367-1.6-0.967-2.1-1.8
		l-0.5-1.1c-0.434-0.133-0.833-0.367-1.2-0.7c-0.7,16.534-1.05,25.45-1.05,26.75L58,121.1c0.1,0.367,0.117,0.801,0.05,1.301v0.1
		c1.667,1.133,5.184,1.867,10.55,2.2v-0.05c0.233-0.268,0.433-0.601,0.6-1c0.433-0.834,1.033-1.467,1.8-1.9
		c0.8-0.434,1.65-0.633,2.55-0.6c0.267-0.733,0.717-1.367,1.35-1.9c0.633-0.5,1.35-0.816,2.15-0.95c0.967-0.133,1.9,0.017,2.8,0.45
		c0.867,0.467,1.517,1.133,1.95,2l0.15,0.25v0.05l0.3,0.601l0.75,2.1l0.1,0.2c1.7-0.367,3.383-0.884,5.05-1.55
		c1.033-0.4,2.517-1.067,4.449-2c2.601-1.233,4.534-2.084,5.801-2.551l0.3-1.949c0.2-1.033,0.717-1.9,1.55-2.601
		s1.767-1.05,2.8-1.05c1.101-0.033,2.066,0.283,2.9,0.95c0.8,0.667,1.333,1.517,1.6,2.55v0.2c1.601,0,3,0.133,4.2,0.399
		c0.733,0.167,1.35,0.45,1.85,0.851l-0.5-4.15l-0.35-24.6l-0.6,0.1c-1.134,0.101-2.15-0.183-3.051-0.85
		c-0.899-0.667-1.483-1.55-1.75-2.65V84.95l1.601-0.3"/>
	<path style="fill-rule:evenodd;clip-rule:evenodd;fill:#1C3330;" d="M99.2,76.8c1.866-0.7,3.45-1.116,4.75-1.25
		c1.066-0.1,2.217-0.066,3.45,0.1c0.3,0.067,0.533,0.233,0.699,0.5l0.2,0.35c0.367-0.267,0.717-0.4,1.05-0.4l1.45,0.45
		c0.334,0.134,0.55,0.367,0.65,0.7l0.8,0.05l0.35,0.1c2.601,1.5,4.284,3.784,5.051,6.85L118,86.2v0.05l0.1,0.95
		c0.167,0.8,0.217,1.5,0.15,2.1l-0.05,0.5l0.05,1.15l-0.05,0.1l0.3,20.4l1.35,12.35l-0.05,0.25c0.101,1.434,0.117,2.351,0.05,2.75
		c-0.033,1.533-0.583,2.533-1.649,3c-0.634,0.3-1.884,0.467-3.75,0.5c-1.267,0-2.283,0.033-3.05,0.101H111.3
		c-0.267,0-0.5-0.101-0.7-0.301c-0.199-0.199-0.3-0.449-0.3-0.75l-0.05-0.149l-0.1-0.45c0.033-1.3-0.051-3.684-0.25-7.15
		c-1.733-0.267-3.534-0.199-5.4,0.2c-0.333,0.067-0.616,0-0.85-0.2c-0.101,0.268-0.317,0.45-0.65,0.551l-1.55,0.449
		c-1.367,0.467-3.533,1.384-6.5,2.75c-2.601,1.268-4.684,2.184-6.25,2.75c-2.634,0.9-5.434,1.533-8.4,1.9
		c-0.466,0.066-0.816-0.15-1.05-0.65l-1.05-2.699l-0.35,1.949c-0.067,0.2-0.2,0.467-0.4,0.801c-0.167,0.467-0.483,0.699-0.95,0.699
		l-3.35,0.25c-0.233,0-0.483-0.1-0.75-0.3c-0.2-0.267-0.3-0.517-0.3-0.75l-0.3,0.45c-0.233,0.434-0.55,0.617-0.95,0.55
		c-7.867-0.267-13.167-1.366-15.9-3.3l-0.25-0.1c-0.4-0.233-0.784-0.601-1.15-1.101c-0.733-0.967-1.066-2.149-1-3.55v-0.1
		c-0.066-0.667-0.05-4.684,0.05-12.051c0.8-20.467,1.233-31.533,1.3-33.2c-0.033-0.333,0.133-0.667,0.5-1
		c0.167-0.667,0.533-1.033,1.1-1.1l0.85-0.8c1.033-1,2.367-1.617,4-1.85c0.833-0.133,1.55-0.167,2.15-0.1
		c0.367,0.067,0.633,0.25,0.8,0.55l0.35,0.7c0.1,0.2,0.117,0.417,0.05,0.65l-0.2,1.3c-0.167,1.167-0.317,2.5-0.45,4l0.9,0.35
		c0.2,0.067,0.333,0.15,0.4,0.25l0.3,0.25c0.233-0.133,0.483-0.167,0.75-0.1c2.367,0.7,5.3,1.15,8.8,1.35
		c0.3-0.067,0.583-0.017,0.85,0.15l0.4-0.1h0.45c0.333,0.067,0.583,0.2,0.75,0.4l0.3,0.35c0.167-0.466,0.483-0.7,0.95-0.7l3.4-0.15
		c4.534-0.3,8.467-1.033,11.8-2.2H93.9c0.1-0.2,0.267-0.333,0.5-0.4l2.05-0.8c0.233-0.133,0.467-0.183,0.7-0.15
		c0.1-0.133,0.233-0.233,0.399-0.3l1.45-0.6L99.2,76.8z M98.75,79.1l-0.1,0.5c-0.101,0.433-0.384,0.7-0.851,0.8
		c-0.434,0.067-0.767-0.1-1-0.5l-1.25,0.5v0.05c-0.133,0.3-0.316,0.5-0.55,0.6c-0.3,0.134-0.55,0.15-0.75,0.05l-0.45,0.05
		l-0.25-0.05c-3.666,1.167-7.7,1.9-12.1,2.2l-2.8,0.1l-0.5,1.8v0.1L78,85.95c-0.167,0.5-0.5,0.75-1,0.75
		c-0.533,0-0.85-0.25-0.95-0.75L75.7,84.3c-0.167,0.2-0.383,0.267-0.65,0.2c-0.533,0-0.85-0.25-0.95-0.75l-0.1-0.4
		c-2.9-0.133-5.617-0.517-8.15-1.15l-0.1,0.8c-0.067,0.5-0.333,0.8-0.8,0.9c-0.5,0.067-0.85-0.1-1.05-0.5
		c-0.267-0.433-0.433-0.833-0.5-1.2l-0.1-0.6l-0.2-0.2l-1.45-0.55c-0.433-0.167-0.65-0.5-0.65-1c0.1-1.133,0.317-3.067,0.65-5.8
		c-1.633,0-2.95,0.467-3.95,1.4l-1.1,1.1l-0.35,0.2l-0.2,0.3L55.9,77.2v0.05c-0.8,19.1-1.233,30.05-1.3,32.85
		c-0.1,6.467-0.117,10.283-0.05,11.45l0.05,0.5c-0.133,1.4,0.183,2.417,0.95,3.05c0.067,0,0.2,0.051,0.4,0.15
		c2.333,1.767,7.133,2.783,14.4,3.05l0.65-0.75l1.35-2.35c0.233-0.434,0.6-0.601,1.1-0.5c0.466,0.066,0.733,0.366,0.8,0.899
		c0.033,0.434,0.017,1.101-0.05,2c0.1,0.2,0.117,0.417,0.05,0.65v0.05l1.65-0.149V128.1l0.9-5.5c0.067-0.5,0.333-0.783,0.8-0.85
		c0.533-0.066,0.9,0.117,1.1,0.55l0.05,0.15l2.1,5.45c2.633-0.367,5.1-0.967,7.4-1.801c1.434-0.5,3.384-1.35,5.85-2.55
		c3.367-1.533,5.617-2.483,6.75-2.85l0.9-0.25c0.066-1.567,0.2-2.867,0.4-3.9c0.133-0.533,0.449-0.8,0.949-0.8
		c0.567,0,0.9,0.267,1,0.8L104.7,119l0.05,0.15v0.1l0.2,0.45c1.1-0.167,2.083-0.25,2.95-0.25c1.1,0,2.149,0.1,3.149,0.3
		c0.5,0.133,0.75,0.45,0.75,0.95c0.233,2.8,0.351,5.35,0.351,7.649l2.25-0.05c1.6-0.033,2.583-0.133,2.949-0.3
		c0.301-0.167,0.483-0.617,0.551-1.35c0-0.967-0.051-1.95-0.15-2.95v-0.2l-1.15-10.85l-0.35-22.801
		c-0.033-0.066-0.033-0.116,0-0.149v-0.5c0.033-0.367,0-0.967-0.1-1.8l-0.101-0.9v-0.05l-0.35-1.65c-0.601-2.333-1.783-4.1-3.55-5.3
		l-0.101,1.25c-0.066,0.533-0.383,0.833-0.95,0.9c-0.566,0-0.899-0.267-1-0.8l-0.55-2.6l-0.05-0.05l-0.3,0.65
		c-0.101,0.466-0.384,0.7-0.851,0.7c-0.433,0.033-0.767-0.15-1-0.55l-0.75-1.4c-0.733-0.1-1.55-0.117-2.449-0.05
		c-1.301,0.167-2.7,0.533-4.2,1.1l-0.2,0.1L98.75,79.1z M112.5,84.7c-0.167,0.2-0.384,0.316-0.65,0.35h-0.1
		c-0.533,0-0.85-0.25-0.95-0.75l-0.05-0.15l-0.1-0.5c-0.134-0.533,0.066-0.917,0.6-1.15c0.5-0.167,0.9-0.05,1.2,0.35l0.149,0.25
		c0.134,0.133,0.2,0.333,0.2,0.6l-0.05,0.35C112.75,84.316,112.667,84.533,112.5,84.7z"/>
	<g>
		
			<radialGradient id="SVGID_7_" cx="132.3379" cy="-102.6118" r="6.9903" gradientTransform="matrix(0.0626 0.998 1.0566 -0.0663 210.8291 -13.2322)" gradientUnits="userSpaceOnUse">
			<stop  offset="0" style="stop-color:#B4A881"/>
			<stop  offset="1" style="stop-color:#8D8053"/>
		</radialGradient>
		<path style="fill-rule:evenodd;clip-rule:evenodd;fill:url(#SVGID_7_);" d="M110.2,113.1L110,110.7l1.55,1.35
			c0.967,0.8,2.283,2.467,3.95,5c2.066,3.167,3.167,5.767,3.3,7.8c0.134,2.033-0.383,3.217-1.55,3.551
			c-2.134,0.133-4.167,0.267-6.1,0.399c0.033-1.8-0.101-4.933-0.4-9.399C110.45,115.4,110.267,113.3,110.2,113.1z"/>
		<path style="fill-rule:evenodd;clip-rule:evenodd;fill:#CABC99;" d="M114.8,88.05L110.9,82.4l0.399-3.95
			c0.033-0.134,0.167-0.2,0.4-0.2c0.133,0,0.267,0,0.399,0l2.051,3.8L114.8,88.05z"/>
		<path style="fill-rule:evenodd;clip-rule:evenodd;fill:#CABC99;" d="M109.05,77.25l0.351-0.1c-0.134,3.967-0.184,6.15-0.15,6.55
			l-10.5,1.35l-2.25-4.8c0-0.167,0-0.367,0-0.6c0.066-0.433,0.2-0.716,0.4-0.85c0.199-0.133,0.449,0.067,0.75,0.6
			c0.433,0.767,0.733,1.217,0.899,1.35c0.467,0.467,1.233,0.017,2.3-1.35l6.851,0.9l0.55-1.7
			C108.483,77.9,108.75,77.45,109.05,77.25z"/>
		<path style="fill-rule:evenodd;clip-rule:evenodd;fill:#CABC99;" d="M94.95,82.65l-1.4-0.55c-0.033-0.267-0.05-0.567-0.05-0.9
			c0-0.6,0.15-0.95,0.45-1.05c0.467-0.167,0.85-0.033,1.149,0.4L95.4,81.2L94.95,82.65z"/>
		<path style="fill-rule:evenodd;clip-rule:evenodd;fill:#CABC99;" d="M74.15,88.75c0-0.033-0.066-1.033-0.2-3
			c-0.133-1.833-0.1-2.9,0.1-3.2c0.233-0.3,0.45-0.333,0.65-0.1c0.1,0.1,0.183,0.233,0.25,0.4l0.35,1.75l0.6-2.2l0.65,0.8l0.3,1.65
			c0.267,1.5,0.6,2.917,1,4.25L74.15,88.75z"/>
		<path style="fill-rule:evenodd;clip-rule:evenodd;fill:#CABC99;" d="M66.05,84.55l0.55,4.25c-0.934,0.101-1.483,0.134-1.65,0.101
			c-0.133-0.033-0.417-0.483-0.85-1.351c-0.434-0.833-0.65-1.35-0.65-1.55c-0.034-0.233,0.033-2.05,0.2-5.45l0.6,0.6L64.4,82
			C64.5,82.533,65.05,83.383,66.05,84.55z"/>
		<path style="fill-rule:evenodd;clip-rule:evenodd;fill:#B6A081;" d="M84.55,102.15c4.5-0.067,9.934-0.467,16.3-1.2
			c3.601-0.434,9.017-1.101,16.25-2c-0.066,7.667,0.117,12.967,0.551,15.899c1.166,7.733,1.55,11.768,1.149,12.101
			c-0.533-1.4-1.55-2.7-3.05-3.9c-2.967-2.399-6.783-3.149-11.45-2.25c-0.434-0.933-0.8-2.217-1.1-3.85
			c-0.066-0.233,0.017-0.617,0.25-1.15c0.2-0.6,0.3-1,0.3-1.2c-0.233,0.367-0.35,0.684-0.35,0.95c-0.4,1.467-0.634,3.3-0.7,5.5
			l0.05,0.15l-1.6,0.45c-0.567,0.199-3.7,1.566-9.4,4.1c-3.767,1.7-7.617,2.783-11.55,3.25l-1.4-3.65
			c-0.267-1.767-0.583-2.85-0.95-3.25c-0.267,2.334-0.583,4.434-0.95,6.301c-0.066,0.199-0.2,0.433-0.4,0.699
			c-1.533,0.167-2.667,0.25-3.4,0.25l0.05-0.55c0-0.233,0.167-0.85,0.5-1.85c0.3-0.934,0.417-1.583,0.35-1.95
			c-0.133-0.3-0.2-0.533-0.2-0.7c-0.133,0.101-0.183,0.25-0.15,0.45c-0.167,0.467-0.433,1.017-0.8,1.65
			c-0.233,0.399-0.567,0.949-1,1.649c-0.1,0.2-0.434,0.617-1,1.25c-8.2-0.267-13.467-1.433-15.8-3.5c0.034-0.1-0.066-0.583-0.3-1.45
			c-0.233-0.866-0.35-1.333-0.35-1.399c0.063-0.509,0.188-1.033,0.375-1.575L54.05,122.4l0.9-21.301
			c1.633,0.101,4.033,0.25,7.2,0.45c2.5,0.101,6.233,0.25,11.2,0.45C77.717,102.133,81.45,102.184,84.55,102.15z"/>
		<path style="fill-rule:evenodd;clip-rule:evenodd;fill:#B6A081;" d="M111.2,128.7c3.566-0.267,5.5-0.45,5.8-0.55
			c1.1-0.434,1.434-1.634,1-3.601c0.566,0.634,0.85,0.967,0.85,1c0.134,2.033-0.366,3.2-1.5,3.5c-2.1,0.101-4.116,0.217-6.05,0.351
			C111.233,129.167,111.2,128.934,111.2,128.7z"/>
		<path style="fill-rule:evenodd;clip-rule:evenodd;fill:#B6A081;" d="M117.8,128.5c-0.533,0.833-0.533,0.617,0-0.65
			c0.334-0.8,0.3-1.666-0.1-2.6l-0.7-1.15l1.5,1.2C118.767,125.9,118.533,126.967,117.8,128.5z"/>
		
			<radialGradient id="SVGID_8_" cx="106.1563" cy="-103.2246" r="54.8965" gradientTransform="matrix(0.0629 0.998 0.9914 -0.0625 205.3588 -12.9484)" gradientUnits="userSpaceOnUse">
			<stop  offset="0" style="stop-color:#F6F0D9"/>
			<stop  offset="1" style="stop-color:#D7C9A1"/>
		</radialGradient>
		<path style="fill-rule:evenodd;clip-rule:evenodd;fill:url(#SVGID_8_);" d="M102.45,76.8c1.566-0.333,3.166-0.383,4.8-0.15
			c0.5,0.833,0.95,1.7,1.35,2.6l0.801-2.1l1.05,0.35c0.133,0.867,0.217,1.333,0.25,1.4l1.05,5.2l0.2-4.8l0.149-1.05
			c2,1.133,3.4,2.816,4.2,5.05c0.601,1.634,0.917,3.817,0.95,6.55c0,1.934-0.017,5.867-0.05,11.801c0.033,5.467,0.2,9.399,0.5,11.8
			c0.5,3.8,0.899,7.833,1.2,12.1c-0.567-1.433-1.634-2.75-3.2-3.95c-3.066-2.433-7.033-3.116-11.9-2.05
			c-0.267-0.866-0.467-1.733-0.6-2.6c-0.233-1.167-0.367-1.867-0.4-2.101c-0.166,0.268-0.283,0.584-0.35,0.95
			c-0.334,1.4-0.533,2.817-0.601,4.25l-0.649,0.2c-0.267,0.1-3.517,1.5-9.75,4.2c-3.934,1.733-7.85,2.816-11.75,3.25l-0.9-2.351
			c-0.7-1.899-1.167-2.982-1.4-3.25c-0.267,2-0.566,3.934-0.9,5.801l-3.35,0.05c0.133-1.167,0.15-2.083,0.05-2.75
			c-0.133-0.333-0.2-0.567-0.2-0.7c-0.167,0.066-0.217,0.2-0.15,0.4c-0.3,0.933-0.75,1.933-1.35,3
			c-8.333-0.367-13.75-1.518-16.25-3.45c0.067-0.533-0.05-0.833-0.35-0.9c-0.251-0.094-0.368-0.369-0.35-0.825
			c0.01,0.046,0.126-0.463,0.35-1.524l-0.85,1.2l0.9-21.75c0.2-4.067,0.316-9.367,0.35-15.9l0.05-8.55l0.25-0.4
			c0.233-0.133,0.6,0.15,1.1,0.85c0.367,0.5,1.083,1.083,2.15,1.75c1.333,0.8,2.933,1.517,4.8,2.15l0.05,0.8
			c0.066,1.167,0.35,2.433,0.85,3.8c0.133-1.867,0.267-3.083,0.4-3.65c0-0.066,0.066-0.233,0.2-0.5c2.967,0.767,6.1,1.217,9.4,1.35
			l0.35,1.95l0.1-0.45l0.45-1.45h0.45c0.067,1,0.333,2.65,0.8,4.95c0.033-0.633,0.233-1.533,0.6-2.7l0.6-2.2
			c0.733-0.033,1.883-0.083,3.45-0.15c4.433-0.3,8.466-1.05,12.1-2.25l0.5,0.1l0.5,0.4l0.3-0.95l2.15-0.8l0.6,3
			c0.066-0.4,0.083-0.866,0.05-1.4c-0.033-0.3,0.084-0.966,0.351-2C99.866,77.6,101.384,77.066,102.45,76.8z"/>
		<path style="fill-rule:evenodd;clip-rule:evenodd;fill:#D9CEAE;" d="M80.15,118.5l0.4-0.2c0.133-0.033,0.284-0.133,0.45-0.3
			l1.2-0.95c0.6-0.433,1.117-1.1,1.55-2c0.467-1.066,0.833-1.85,1.1-2.35l0.2,2.8l-0.4-1.5c-0.167,0-0.467,0.434-0.9,1.3
			c-0.233,0.467-0.483,0.983-0.75,1.55l-0.6,1c-0.333,0.533-0.5,0.9-0.5,1.101c-0.033,0.399,0.25,1.1,0.85,2.1
			c0.333,0.533,0.717,1.117,1.15,1.75c0.167,0.267,0.817,1.5,1.95,3.7c-0.967,0.3-2.05,0.55-3.25,0.75l-4.05-4.75
			c0.633-0.7,1.117-1.816,1.45-3.35C80.033,118.816,80.083,118.6,80.15,118.5z"/>
		<path style="fill-rule:evenodd;clip-rule:evenodd;fill:#D9CEAE;" d="M86.9,126l-0.15,0.15L86.6,124.6
			C86.733,125.033,86.833,125.5,86.9,126z"/>
		<path style="fill-rule:evenodd;clip-rule:evenodd;fill:#D9CFAE;" d="M72.85,92.5l0.7-0.65c0.133,0.9,0.567,3.367,1.3,7.4L76,105
			l-0.8,1.6c-0.767,0.167-1.367,0.25-1.8,0.25c-0.267-0.033-0.6-0.116-1-0.25c-0.5-0.166-0.816-0.267-0.95-0.3l-0.35-0.05
			c-0.067-0.033-0.4-0.6-1-1.7c-0.367-0.533-0.65-0.967-0.85-1.3c-0.367-0.6-0.55-1.083-0.55-1.45l1.2-5.3
			c0.067-0.2,0.117-0.316,0.15-0.35c0.133-0.134,0.367-0.301,0.7-0.5c0.5-0.434,0.85-0.851,1.05-1.25
			C72.167,93.5,72.517,92.867,72.85,92.5z"/>
		<path style="fill-rule:evenodd;clip-rule:evenodd;fill:#D5C6A1;" d="M60.75,113c0.9-0.066,1.583-0.066,2.05,0
			c0.867,0.1,1.95,0.434,3.25,1c0.233,0.1,0.367,0.167,0.4,0.2c0.033,0.033,0.083,0.183,0.15,0.45c0.367,1.199,0.6,2.583,0.7,4.149
			c0.067,1.067,0.233,2.017,0.5,2.851c-0.167,0.066-0.283,0.416-0.35,1.05l-0.95,2.25c-0.167,0.3-0.2,0.633-0.1,1
			c0.033,0.066,0.167,0.383,0.4,0.95c0.067,0.199,0.133,0.316,0.2,0.35c0.1,0.066,0.517-0.133,1.25-0.6l0.5-0.351
			c0.267-0.167,0.45-0.25,0.55-0.25c0.133,0,0.3,0.101,0.5,0.3l0.55,0.851l0.35,0.399c0.033,0.101,0.033,0.184,0,0.25
			c-7.867-0.399-13.017-1.533-15.45-3.399c0.067-0.533-0.05-0.833-0.35-0.9c-0.251-0.094-0.368-0.369-0.35-0.825
			c0.01,0.046,0.126-0.463,0.35-1.524l-0.85,1.2l0.4-10.551L60.75,113z"/>
		<path style="fill-rule:evenodd;clip-rule:evenodd;fill:#D5C6A1;" d="M55.35,76.2l0.25-0.4c0.233-0.133,0.6,0.15,1.1,0.85
			c0.5,0.633,1.383,1.3,2.65,2l4.8,5.25l0.15,0.45l-0.05,1.7c0.1,1,0.6,2.017,1.5,3.05c0.167,0.167,0.35,0.233,0.55,0.2
			c0.133,0,0.367-0.033,0.7-0.1c0.133,0.333,0.183,0.566,0.15,0.7l0.4,2.85L67,92.5c-1.267-0.233-2.233-0.467-2.9-0.7
			c-0.867-0.366-1.533-0.649-2-0.85c-0.833-0.333-1.517-0.567-2.05-0.7c-0.167-0.133-0.367-0.167-0.6-0.1L55.1,97.05
			c0.133-3.899,0.217-8.55,0.25-13.95V76.2z"/>
		<path style="fill-rule:evenodd;clip-rule:evenodd;fill:#D5C6A1;" d="M54.75,105.45l0.1-2.55c1.433,0.1,3.583,0.217,6.45,0.35
			c0.6,0.133,1.267,0.117,2-0.05c0-0.067,0.184-0.517,0.55-1.351c0.433-0.933,0.7-1.616,0.8-2.05c0.3-1.3,0.783-2.467,1.45-3.5
			c0.367-0.633,0.9-1.35,1.6-2.149l0.05-0.051l0.15,1.351l0.05,0.1l-0.5,0.7c-0.633,1.066-1.133,1.95-1.5,2.65l-1.55,3.25
			c-0.033,0.166-0.017,0.566,0.05,1.199L64.4,106c0,0.1,0,0.267,0,0.5c0,0.1-0.033,0.2-0.1,0.3c-0.333,0.333-0.683,0.567-1.05,0.7
			c-1.867,1-3.383,1.65-4.55,1.95c-0.267,0.133-0.567,0.2-0.9,0.2l-0.15,0.05c-0.5-0.3-1.2-1.15-2.1-2.55L54.75,105.45z"/>
		<path style="fill-rule:evenodd;clip-rule:evenodd;fill:#F1E5CA;" d="M98.35,110.55c0.5,0.367,1.617,1.083,3.351,2.15l-0.25,3.2
			c-0.134,1.933-0.167,3.366-0.101,4.3l-0.149,0.05c-1.601,0.566-4.017,1.6-7.25,3.1L93.9,123c-0.233-1.033-0.867-2.267-1.9-3.7
			c-0.3-0.333-0.517-0.583-0.65-0.75c-0.233-0.3-0.35-0.583-0.35-0.85l-0.15-2.351c-0.199-0.933-0.216-1.533-0.05-1.8
			c0.134,0,0.267-0.066,0.4-0.2c0.934-0.833,1.483-1.35,1.649-1.55c0.733-0.733,1.317-1.267,1.75-1.6c0.733-0.667,1.4-1.067,2-1.2
			l0.301,0.3C97.366,109.767,97.85,110.184,98.35,110.55z"/>
		<path style="fill-rule:evenodd;clip-rule:evenodd;fill:#F1E5CA;" d="M87.9,88.3c0.033-0.033,0.133-0.149,0.3-0.35
			c0.1-0.101,0.399-0.717,0.899-1.85c0.434-1.034,0.7-1.633,0.801-1.8c0.066,0,0.216,0.184,0.449,0.55
			c0.334,0.433,0.817,0.9,1.45,1.4c0.367,0.267,0.917,0.667,1.65,1.2c0.267,0.233,0.434,0.45,0.5,0.649
			c0.366,1.334,0.666,2.567,0.899,3.7c0.067,0.533,0.217,1.333,0.45,2.4v0.1l-5.35,7.65l-0.15-0.3
			c-0.066-0.167-0.149-0.584-0.25-1.25c-0.033-0.101-0.434-1.117-1.2-3.051l-0.5-1.149c-0.1-0.2-0.133-0.367-0.1-0.5
			c-0.033,0.066-0.05,0.017-0.05-0.15l-0.05-1.95c-0.067-1.6-0.034-2.967,0.1-4.1C87.75,88.867,87.8,88.467,87.9,88.3z"/>
		<path style="fill-rule:evenodd;clip-rule:evenodd;fill:#EEE2C7;" d="M79.25,104.35c0.1-0.8,0.133-1.3,0.1-1.5
			c0.066-0.033,0.183-0.017,0.35,0.051c0.267,0.066,0.8,0.25,1.6,0.55c0.267,0.133,0.784,0.35,1.55,0.649l0.15,0.25v0.25
			c0.033,0.2,0.217,0.551,0.55,1.051c0.7,1.166,1.184,2.116,1.45,2.85c0.3,0.867,0.467,1.417,0.5,1.65l-2.7,4.5l-1.9,0.149l-0.4-1.2
			c-0.367-0.933-0.883-1.967-1.55-3.1c-0.267-0.4-0.434-0.7-0.5-0.9l0.05-0.8C78.867,106.833,79.117,105.35,79.25,104.35z"/>
		<path style="fill-rule:evenodd;clip-rule:evenodd;fill:#E6DBBA;" d="M73.55,91.85c-0.2-1.399-0.316-2.482-0.35-3.25
			c-0.2-0.333-0.2-0.633,0-0.899c0,0.1,0.05,0.167,0.15,0.2c0.2,0.166,0.467,0.449,0.8,0.85c0.1,0.1,0.517,0.566,1.25,1.4
			c0.5,0.566,0.934,1.017,1.3,1.35c0.533,0.467,0.816,0.767,0.85,0.9l0.05,2c-0.067,1.333-0.2,3.316-0.4,5.949
			c0,0.934,0.05,1.867,0.15,2.801l-0.95,4.05l-0.05-0.15l-1.5-7.8C74.117,95.217,73.683,92.75,73.55,91.85z"/>
		<path style="fill-rule:evenodd;clip-rule:evenodd;fill:#F6EAD0;" d="M111.75,85.85l2.7-2.85c0.333-0.467,0.7-0.917,1.1-1.35
			c1.066,1.867,1.634,4.6,1.7,8.2c0,1.934-0.017,5.867-0.05,11.801c0.033,5.467,0.2,9.399,0.5,11.8
			c0.434,3.267,0.816,7.017,1.149,11.25c-1.267-1.667-2.483-3-3.649-4c-0.167-0.233-0.417-0.4-0.75-0.5V118.1
			c-0.066-0.933-0.084-1.616-0.05-2.05c0.666,0.134,1.216,0,1.649-0.399c0.267-0.2,0.384-0.5,0.351-0.9
			c-0.101-0.467-0.167-0.833-0.2-1.1l-0.601-1.95c-0.166-0.601-0.3-1.067-0.399-1.4c-0.167-0.6-0.351-1.033-0.55-1.3l-0.15-0.1
			l-0.15-6.15c-0.699-1.167-1.216-2.783-1.55-4.85l-0.399-0.15c0.433-1.533,0.649-2.684,0.649-3.45
			c0.033-1.167-0.217-2.483-0.75-3.95c-0.233-0.6-0.783-1.85-1.649-3.75C110.917,86.5,111.283,86.25,111.75,85.85z"/>
		<path style="fill-rule:evenodd;clip-rule:evenodd;fill:#EDE5CB;" d="M106,103.15c-0.366-0.567-0.533-1-0.5-1.301
			c0.267-0.5,0.566-0.949,0.9-1.35c0.566-0.667,1.066-1.4,1.5-2.2c0.366-0.833,0.649-1.467,0.85-1.899
			c0.434,0.199,1.066,0.55,1.9,1.05c0.233,0.1,0.517,0.167,0.85,0.2c0.2,0.033,0.5,0.066,0.9,0.1l0.399,0.15
			c0.334,2.066,0.851,3.683,1.55,4.85l0.2,8.5l-1.2,0.1c-1.267,0.067-2.183,0.033-2.75-0.1c-0.199-0.066-0.316-0.117-0.35-0.15
			c-0.033-0.133-0.083-0.283-0.15-0.449c-0.466-1-1.133-2.25-2-3.75C106.967,104.9,106.267,103.65,106,103.15z"/>
		<path style="fill-rule:evenodd;clip-rule:evenodd;fill:#DAD4B6;" d="M97.9,78.4c2.699-1.1,4.75-1.716,6.149-1.85
			c-0.934,1.967-1.717,4.3-2.35,7c-0.3,1.333-0.55,2.567-0.75,3.7c-0.101,1.033-0.134,1.633-0.101,1.8
			c-0.333-0.267-0.517-0.583-0.55-0.95c-0.767-1.767-1.416-3.633-1.95-5.6l-0.699-3.1L97.9,78.4z"/>
		
			<radialGradient id="SVGID_9_" cx="118.9502" cy="100.6504" r="66.1" gradientTransform="matrix(1 0 0 -0.9781 0 199.0929)" gradientUnits="userSpaceOnUse">
			<stop  offset="0" style="stop-color:#72A29A"/>
			<stop  offset="1" style="stop-color:#5B7A71"/>
		</radialGradient>
		<path style="fill-rule:evenodd;clip-rule:evenodd;fill:url(#SVGID_9_);" d="M76.35,85.5c-2.133,0.066-3.934,0.05-5.4-0.05
			c-2.233-0.134-4.35-0.483-6.35-1.05l0.05-0.45c1.867,0.533,3.983,0.9,6.35,1.1c1.6,0.1,3.367,0.1,5.3,0L76.35,85.5z"/>
		
			<radialGradient id="SVGID_10_" cx="118.9502" cy="100.6504" r="66.1" gradientTransform="matrix(1 0 0 -0.9781 0 199.0929)" gradientUnits="userSpaceOnUse">
			<stop  offset="0" style="stop-color:#72A29A"/>
			<stop  offset="1" style="stop-color:#5B7A71"/>
		</radialGradient>
		<path style="fill-rule:evenodd;clip-rule:evenodd;fill:url(#SVGID_10_);" d="M64.3,84.3c-1.7-0.533-3.2-1.183-4.5-1.95l-1.4-1.05
			l-3.05-1.65V79l3.1,1.75l1.35,1.05c1.233,0.8,2.684,1.467,4.35,2L64.3,84.3z"/>
		
			<radialGradient id="SVGID_11_" cx="118.9502" cy="100.6504" r="66.1" gradientTransform="matrix(1 0 0 -0.9781 0 199.0929)" gradientUnits="userSpaceOnUse">
			<stop  offset="0" style="stop-color:#72A29A"/>
			<stop  offset="1" style="stop-color:#5B7A71"/>
		</radialGradient>
		<path style="fill-rule:evenodd;clip-rule:evenodd;fill:url(#SVGID_11_);" d="M105.65,79.8c1.966-0.1,3.767,0.15,5.399,0.75
			l0.15,0.7c-1.667-0.633-3.5-0.917-5.5-0.85c-1.9,0.067-3.8,0.433-5.7,1.1c-2.4,0.867-5.75,1.684-10.05,2.45
			c-4.534,0.767-8.833,1.267-12.9,1.5l0.1-0.4c3.4-0.2,7.033-0.616,10.9-1.25c3.634-0.566,6.783-1.233,9.45-2v-0.05
			c0.8-0.2,1.667-0.467,2.6-0.8C101.934,80.25,103.783,79.867,105.65,79.8z"/>
		
			<radialGradient id="SVGID_12_" cx="118.9502" cy="100.6504" r="66.1" gradientTransform="matrix(1 0 0 -0.9781 0 199.0929)" gradientUnits="userSpaceOnUse">
			<stop  offset="0" style="stop-color:#72A29A"/>
			<stop  offset="1" style="stop-color:#5B7A71"/>
		</radialGradient>
		<path style="fill-rule:evenodd;clip-rule:evenodd;fill:url(#SVGID_12_);" d="M116.1,84.9c-1.1-1.466-2.517-2.6-4.25-3.4
			l0.051-0.65c1.833,0.867,3.283,2.067,4.35,3.6l0.6,0.9c0.034,0.233,0.084,0.567,0.15,1L116.1,84.9z"/>
		
			<radialGradient id="SVGID_13_" cx="118.9502" cy="100.6504" r="66.1125" gradientTransform="matrix(1 0 0 -0.9781 0 199.0933)" gradientUnits="userSpaceOnUse">
			<stop  offset="0" style="stop-color:#72A29A"/>
			<stop  offset="1" style="stop-color:#5B7A71"/>
		</radialGradient>
		<path style="fill-rule:evenodd;clip-rule:evenodd;fill:url(#SVGID_13_);" d="M112.1,115.65c-2.533-0.601-5.6-0.567-9.199,0.1
			L102.8,115c3.634-0.6,6.667-0.617,9.101-0.05c2.866,0.667,5,1.85,6.399,3.55l0.05,0.7C116.884,117.467,114.8,116.283,112.1,115.65
			z"/>
		
			<radialGradient id="SVGID_14_" cx="118.9502" cy="100.6504" r="66.1" gradientTransform="matrix(1 0 0 -0.9781 0 199.0929)" gradientUnits="userSpaceOnUse">
			<stop  offset="0" style="stop-color:#72A29A"/>
			<stop  offset="1" style="stop-color:#5B7A71"/>
		</radialGradient>
		<path style="fill-rule:evenodd;clip-rule:evenodd;fill:url(#SVGID_14_);" d="M85.7,120.3c4.6-1.667,7.116-2.566,7.55-2.7
			c3.566-1.199,6.717-2.05,9.45-2.55c-0.167,0.233-0.25,0.483-0.25,0.75v0.05c-2.667,0.5-5.767,1.384-9.3,2.65
			c-3.634,1.367-6.084,2.283-7.351,2.75c-2.066,0.8-4.633,1.517-7.7,2.15l-0.45-0.95C80.517,121.917,83.2,121.2,85.7,120.3z"/>
		
			<radialGradient id="SVGID_15_" cx="118.9502" cy="100.6504" r="66.1" gradientTransform="matrix(1 0 0 -0.9781 0 199.0929)" gradientUnits="userSpaceOnUse">
			<stop  offset="0" style="stop-color:#72A29A"/>
			<stop  offset="1" style="stop-color:#5B7A71"/>
		</radialGradient>
		<path style="fill-rule:evenodd;clip-rule:evenodd;fill:url(#SVGID_15_);" d="M63.6,123c3.367,0.733,7.95,0.566,13.75-0.5
			l-0.15,1.1c-5.633,1.067-10.167,1.217-13.6,0.45c-4.233-0.967-7.383-2.667-9.45-5.1l0.05-0.8
			C56.233,120.483,59.367,122.1,63.6,123z"/>
		
			<radialGradient id="SVGID_16_" cx="118.9502" cy="100.6504" r="66.1" gradientTransform="matrix(1 0 0 -0.9781 0 199.0929)" gradientUnits="userSpaceOnUse">
			<stop  offset="0" style="stop-color:#72A29A"/>
			<stop  offset="1" style="stop-color:#5B7A71"/>
		</radialGradient>
		<path style="fill-rule:evenodd;clip-rule:evenodd;fill:url(#SVGID_16_);" d="M100,81.5c1.9-0.667,3.8-1.033,5.7-1.1
			c2-0.067,3.833,0.217,5.5,0.85l0.55,2.85l0.1-2.6c1.733,0.8,3.15,1.934,4.25,3.4l0.9,1.45c0.1,0.767,0.184,1.933,0.25,3.5
			c0,1.934-0.017,5.867-0.05,11.801c0.033,5.467,0.2,9.399,0.5,11.8l0.6,5.05c-1.399-1.7-3.533-2.883-6.399-3.55
			c-2.434-0.567-5.467-0.55-9.101,0.05v-0.15l-0.1,0.2c-2.733,0.5-5.884,1.351-9.45,2.55c-0.434,0.134-2.95,1.033-7.55,2.7
			c-2.5,0.9-5.184,1.617-8.05,2.15L77.4,122.1l-0.05,0.4c-5.8,1.066-10.383,1.233-13.75,0.5c-4.233-0.9-7.367-2.517-9.4-4.85
			l0.75-17.5c0.267-6.101,0.4-13.101,0.4-21l3.05,1.65l1.4,1.05c1.3,0.767,2.8,1.417,4.5,1.95l0.25,0.85l0.05-0.75
			c2,0.567,4.117,0.917,6.35,1.05c1.466,0.1,3.267,0.116,5.4,0.05l0.35,1.85c0.033-0.433,0.15-1.066,0.35-1.899
			c4.067-0.233,8.367-0.733,12.9-1.5C94.25,83.184,97.6,82.367,100,81.5z"/>
		<path style="fill-rule:evenodd;clip-rule:evenodd;fill:#7DAEAE;" d="M100,81.5c1.9-0.667,3.8-1.033,5.7-1.1
			c2-0.067,3.833,0.217,5.5,0.85l0.55,2.85l0.1-2.6c1.733,0.8,3.15,1.934,4.25,3.4l0.9,1.45c0.1,0.767,0.184,1.933,0.25,3.5
			c0,1.934-0.017,5.867-0.05,11.801c0.033,5.467,0.2,9.399,0.5,11.8l0.6,5.05c-1.399-1.7-3.533-2.883-6.399-3.55
			c-2.434-0.567-5.467-0.55-9.101,0.05v-0.15l-0.1,0.2c-2.733,0.5-5.884,1.351-9.45,2.55c-0.434,0.134-2.95,1.033-7.55,2.7
			c-2.5,0.9-5.184,1.617-8.05,2.15L77.4,122.1l-0.05,0.4c-5.8,1.066-10.383,1.233-13.75,0.5c-4.233-0.9-7.367-2.517-9.4-4.85
			l0.75-17.5c0.267-6.101,0.4-13.101,0.4-21l3.05,1.65l1.4,1.05c1.3,0.767,2.8,1.417,4.5,1.95l0.25,0.85l0.05-0.75
			c2,0.567,4.117,0.917,6.35,1.05c1.466,0.1,3.267,0.116,5.4,0.05l0.35,1.85c0.033-0.433,0.15-1.066,0.35-1.899
			c4.067-0.233,8.367-0.733,12.9-1.5C94.25,83.184,97.6,82.367,100,81.5z"/>
		
			<use xlink:href="#FlashAICB_x2F_Layer_26_x2F__x3C_Path_x3E__x5F_24"  width="46.881" height="32.57" x="0.019" y="-32.57" transform="matrix(1 0 0 -1 61.5498 85.3501)" style="overflow:visible;opacity:0.6094;enable-background:new    ;"/>
		<path style="fill-rule:evenodd;clip-rule:evenodd;fill:#898256;" d="M78.85,85.35l1.45-0.15c-1.333,0.866-2.15,1.917-2.45,3.149
			c-0.167,0.768-0.3,2.15-0.4,4.15c-1.633,0.066-2.767,0.217-3.4,0.45c-1.2,0.399-1.816,1.149-1.85,2.25
			c-0.067,1,0.133,1.517,0.6,1.55c0.833,0.066,1.35,0.2,1.55,0.4c0.3,0.267,0.5,0.717,0.6,1.35c0.133,0.7,0.066,1.2-0.2,1.5
			c-0.4,0.467-1.267,0.733-2.6,0.8c-1.566,0.067-2.55,0.2-2.95,0.4c-0.567,0.3-1.1,0.717-1.6,1.25
			c-0.567,0.566-0.934,1.116-1.1,1.649c-0.167,0.5-0.117,1.167,0.15,2c0.233,0.834,0.283,1.467,0.15,1.9
			c-2.2,0.333-3.4,1.533-3.6,3.6c-0.133,1.334,0.117,2.217,0.75,2.65c0.466,0.3,1.433,0.417,2.9,0.35
			c1.066-0.033,2.35-0.399,3.85-1.1c1.633-0.8,2.867-1.267,3.7-1.4c2.833-0.467,4.55-0.183,5.15,0.851
			c0.233,0.366,0.3,0.933,0.2,1.7c-0.033,0.533,0.283,0.982,0.95,1.35c0.966,0.533,2.183,0.583,3.65,0.15
			c1.433-0.467,2.383-1.184,2.85-2.15c0.1-0.233,0.2-0.9,0.3-2c0.066-0.934,0.3-1.55,0.7-1.85c0.533-0.334,2.517-0.351,5.95-0.051
			c0.933,0.101,1.5,0.283,1.699,0.551c0.4,0.467,0.817,0.8,1.25,1c1.101,0.533,2.5,0.683,4.2,0.449
			c0.601-0.066,1.733-0.366,3.4-0.899c1.267-0.434,2.434-0.601,3.5-0.5c-0.101,1.366,0.3,2.667,1.2,3.899
			c-0.2-0.033-0.517-0.05-0.95-0.05c-0.601-0.967-0.95-2.017-1.05-3.149c-0.634,0-1.65,0.232-3.051,0.699
			c-1.333,0.434-2.316,0.684-2.949,0.75c-1.867,0.233-3.417,0.051-4.65-0.55c-0.667-0.3-1.15-0.667-1.45-1.1
			c-0.1-0.167-0.517-0.283-1.25-0.351c-3-0.333-4.8-0.35-5.399-0.05c-0.233,0.167-0.351,0.717-0.351,1.65
			c-0.066,0.899-0.184,1.517-0.35,1.85c-0.601,1.167-1.75,2.017-3.45,2.55c-1.6,0.533-3,0.467-4.2-0.199
			c-0.667-0.334-1.083-0.733-1.25-1.2c-0.066-0.267-0.083-0.634-0.05-1.101c0.067-0.433,0.017-0.783-0.15-1.05
			c-0.167-0.333-0.65-0.533-1.45-0.6c-0.8-0.101-1.75-0.05-2.85,0.149c-0.7,0.101-1.767,0.483-3.2,1.15
			c-1.733,0.867-3.217,1.316-4.45,1.35c-1,0.033-1.733,0.018-2.2-0.05c-0.667-0.1-1.2-0.35-1.6-0.75c-0.6-0.667-0.833-1.667-0.7-3
			c0.2-2.333,1.434-3.717,3.7-4.149c0-0.2-0.067-0.567-0.2-1.101c-0.3-1.033-0.367-1.833-0.2-2.399c0.2-0.634,0.617-1.283,1.25-1.95
			c0.566-0.567,1.183-1.033,1.85-1.4c0.5-0.267,1.45-0.433,2.85-0.5c1.367,0,2.184-0.167,2.45-0.5
			c0.133-0.133,0.15-0.433,0.05-0.899c-0.066-0.467-0.183-0.783-0.35-0.95c-0.133-0.134-0.367-0.2-0.7-0.2
			c-0.6,0-1.017-0.117-1.25-0.35c-0.333-0.334-0.483-1-0.45-2c0.067-1.301,0.7-2.217,1.9-2.75c0.767-0.334,1.9-0.533,3.4-0.601
			l0.1-1.35c0.1-1.267,0.233-2.167,0.4-2.7C77.5,86.85,78.05,86.05,78.85,85.35z"/>
		<polygon style="fill-rule:evenodd;clip-rule:evenodd;fill:#898256;" points="118.25,118.2 118.3,118.5 118,118.15 		"/>
		<path style="fill-rule:evenodd;clip-rule:evenodd;fill:#D8CD8A;" d="M77.85,88.35c0.3-1.232,1.117-2.283,2.45-3.149l2.7-0.25
			c-0.933,0.866-1.617,1.583-2.05,2.149c-0.367,0.434-0.6,0.851-0.7,1.25c-0.067,0.334-0.1,0.834-0.1,1.5c0,0.301,0,0.75,0,1.351
			c-0.033,0.467-0.183,0.866-0.45,1.2c-0.333,0.433-0.867,0.699-1.6,0.8c-0.8,0.066-1.35,0.217-1.65,0.45
			c-0.5,0.366-0.733,0.767-0.7,1.199c0.033,0.4,0.283,0.75,0.75,1.051c0.233,0.166,0.567,0.333,1,0.5
			c0.367,0.166,0.617,0.416,0.75,0.75c0.033,0.1,0.05,0.583,0.05,1.449c-0.033,0.7-0.233,1.15-0.6,1.351
			c-0.133,0.066-0.7,0.183-1.7,0.35c-0.933,0.134-1.517,0.351-1.75,0.65c-0.167,0.167-0.333,0.7-0.5,1.6
			c-0.967,0.167-1.583,0.3-1.85,0.4c-0.6,0.2-1.117,0.583-1.55,1.149c-0.3,0.367-0.483,0.801-0.55,1.301c0,0.066,0,0.55,0,1.449
			c0,1.101,0.017,1.717,0.05,1.851c0.167,0.533,0.65,0.85,1.45,0.95c0.633,0.066,1.633,0.05,3-0.051c1.333-0.1,2.333-0.1,3,0
			c0.467,0.067,1.017,0.367,1.65,0.9s1.216,0.816,1.75,0.85c1.333,0.167,2.25-0.116,2.75-0.85c1.066-1.533,1.633-2.316,1.7-2.35
			c0.4-0.334,0.783-0.551,1.15-0.65c0.233-0.066,0.684-0.133,1.351-0.2c0.566-0.033,1.517-0.133,2.85-0.3
			c1.167-0.066,2.083,0.05,2.75,0.35c0.233,0.101,0.85,0.334,1.85,0.7c0.867,0.4,1.301,0.733,1.301,1
			c0.233,0.033,1.316,0.05,3.25,0.05c0.767,0,1.583-0.25,2.449-0.75c1.267-0.732,2.034-1.149,2.301-1.25
			c1.233-0.5,2.583-0.449,4.05,0.15c1.434,0.566,2.434,1.434,3,2.6c0.166,0.334,0.283,0.884,0.35,1.65
			c0.066,0.733,0.2,1.267,0.4,1.6c0.366,0.634,1.2,1.051,2.5,1.25c1,0.167,2.033,0.184,3.1,0.051l0.45,3.8l-0.25-0.05
			c-1.434-1.567-3.467-2.634-6.1-3.2c-0.7-0.167-1.534-0.283-2.5-0.351c-0.9-1.232-1.301-2.533-1.2-3.899
			c-1.066-0.101-2.233,0.066-3.5,0.5c-1.667,0.533-2.8,0.833-3.4,0.899c-1.7,0.233-3.1,0.084-4.2-0.449
			c-0.433-0.2-0.85-0.533-1.25-1c-0.199-0.268-0.767-0.45-1.699-0.551c-3.434-0.3-5.417-0.283-5.95,0.051
			c-0.4,0.3-0.634,0.916-0.7,1.85c-0.1,1.1-0.2,1.767-0.3,2c-0.467,0.967-1.417,1.684-2.85,2.15c-1.467,0.433-2.684,0.383-3.65-0.15
			c-0.667-0.367-0.983-0.816-0.95-1.35c0.1-0.768,0.033-1.334-0.2-1.7c-0.6-1.033-2.316-1.317-5.15-0.851
			c-0.833,0.134-2.066,0.601-3.7,1.4c-1.5,0.7-2.784,1.066-3.85,1.1c-1.467,0.067-2.434-0.05-2.9-0.35
			c-0.633-0.434-0.883-1.316-0.75-2.65c0.2-2.066,1.4-3.267,3.6-3.6c0.133-0.434,0.083-1.066-0.15-1.9
			c-0.267-0.833-0.316-1.5-0.15-2c0.167-0.533,0.533-1.083,1.1-1.649c0.5-0.533,1.033-0.95,1.6-1.25c0.4-0.2,1.383-0.333,2.95-0.4
			c1.333-0.066,2.2-0.333,2.6-0.8c0.267-0.3,0.333-0.8,0.2-1.5c-0.1-0.633-0.3-1.083-0.6-1.35c-0.2-0.2-0.717-0.334-1.55-0.4
			c-0.466-0.033-0.667-0.55-0.6-1.55c0.033-1.101,0.65-1.851,1.85-2.25c0.633-0.233,1.767-0.384,3.4-0.45
			C77.55,90.5,77.683,89.117,77.85,88.35z"/>
		<path style="fill-rule:evenodd;clip-rule:evenodd;fill:#50928B;" d="M116.75,105.6c-0.4-0.8-0.967-0.982-1.7-0.55
			c-0.733,0.467-0.934,1.067-0.6,1.8c-1.3,0.167-1.283,0.884,0.05,2.15c1.333,1.233,2.167,1.267,2.5,0.1L116.75,105.6z
			 M101.85,104.25c0.101,0.7,0.4,1.15,0.9,1.35c0.866,0.334,1.467,0.051,1.8-0.85c0.334-0.867,0.25-1.5-0.25-1.9l0.5-0.25
			c-0.033-0.267-0.434-0.383-1.2-0.35c-0.733,0.033-1.199,0.15-1.399,0.35C101.866,103,101.75,103.55,101.85,104.25z M104.85,85.7
			c-0.166-1.067-0.267-1.867-0.3-2.4L104,84.6c-0.5,0.567-1.267,1.383-2.3,2.45c-0.9,0.967-1.617,1.833-2.15,2.601
			c0.566-0.067,1.5-0.018,2.8,0.149c1.233,0.134,2.15,0.134,2.75,0v-1.7C105.1,87.533,105.017,86.733,104.85,85.7z M108.25,92.45
			V88.35l-0.8,1.75c0.133,0.434,0.066,1-0.2,1.7c-0.1,0.2-0.35,0.717-0.75,1.55c-0.233,0.567-0.684,1.417-1.35,2.551
			c-0.534,1.066-0.884,1.967-1.051,2.699c0.601,0,1.467,0.067,2.601,0.2c0.7,0.067,1.1,0.083,1.2,0.05
			c0.1-0.066,0.233-0.333,0.399-0.8c0.167-0.6,0.217-1.533,0.15-2.8C108.316,93.917,108.25,92.983,108.25,92.45z M114.9,85.25
			c-0.233-0.267-0.767-0.4-1.601-0.4l-1.35-0.75l-0.2-0.05c-0.566,0-0.983,0.184-1.25,0.55s-0.25,0.8,0.05,1.3
			c-1.066,0.333-1.166,0.85-0.3,1.55s1.684,0.75,2.45,0.149c0,0.301,0.116,0.533,0.35,0.7c0.233,0.134,0.5,0.15,0.8,0.05
			c0.301-0.1,0.467-0.3,0.5-0.6c0.034-0.367,0.051-0.667,0.051-0.9l0.699-0.05C115.2,86.033,115.134,85.517,114.9,85.25z
			 M92.85,102.85c-0.333,0.301-0.5,0.551-0.5,0.75c-0.033,0.434,0.25,0.684,0.851,0.75c0.333,0.067,0.85,0.117,1.55,0.15v-1.9
			l-1.05-0.25C93.467,102.383,93.184,102.55,92.85,102.85z M90.5,96.1l-1.05,0.25c0,0.4,0.017,1.051,0.05,1.95
			c0.033,0.833-0.05,1.483-0.25,1.95c0.3,0.1,0.884,0.117,1.75,0.05c0.1-0.5,0.033-1.2-0.2-2.1
			C90.566,97.267,90.467,96.566,90.5,96.1z M95.9,98.25c-0.434,0.667-0.667,1.184-0.7,1.55c0.833,0.134,2.1,0.134,3.8,0
			c0.033-0.733-0.05-1.8-0.25-3.2c-0.2-1.467-0.3-2.55-0.3-3.25l-1.3,3.5C96.75,97.15,96.333,97.617,95.9,98.25z M93.4,96.1
			c-0.167-0.866-0.25-1.366-0.25-1.5l-0.801,0.75c-0.1,0.434-0.233,1-0.399,1.7c0,0.467,0.45,0.65,1.35,0.55
			C93.5,97.2,93.533,96.7,93.4,96.1z M86,102.6l-1.05,0.25c-0.5,0.4-0.767,0.817-0.8,1.25c0.567,0.167,1.05,0.101,1.45-0.199
			C86,103.566,86.134,103.133,86,102.6z M82,104.6c-0.267,0.167-0.45,0.467-0.55,0.9c0.5,0.2,1.033,0.217,1.6,0.05
			c0.167-0.5,0.267-0.899,0.3-1.2L82,104.6z M86.8,89.6l-1.85,0.75c0.033,0.5-0.133,1.25-0.5,2.25c0,0.067-0.017,0.417-0.05,1.051
			c0,0.433-0.066,0.75-0.2,0.949c0.8-0.033,1.916-0.133,3.35-0.3C87.684,92.8,87.434,91.233,86.8,89.6z M91.05,84.35
			c-0.866,0.167-1.233,0.583-1.1,1.25c0.1,0.367,0.283,0.6,0.55,0.7c0.033,0,0.384,0.017,1.05,0.05c0.733,0,1.283-0.1,1.65-0.3
			c0.5-0.267,0.483-0.667-0.05-1.2L91.05,84.35z M100,81.5c1.9-0.667,3.8-1.033,5.7-1.1c2-0.067,3.833,0.217,5.5,0.85l0.55,2.8
			l0.1-2.55c1.733,0.8,3.15,1.934,4.25,3.4l0.9,1.45c0.1,0.767,0.184,1.933,0.25,3.5l-0.05,6.801l-1,0.699
			c-0.2-1.199-0.783-1.717-1.75-1.55c-0.601,0.101-0.967,0.45-1.101,1.05c-0.066,0.301-0.066,0.867,0,1.7
			c-0.8-1.033-1.35-1.017-1.649,0.05c-0.243,0.971-0.126,1.738,0.35,2.301c-0.188-0.135-0.472-0.151-0.85-0.051
			c-0.566,1.934,1.434,2.851,6,2.75c0.066,4.301,0.233,7.584,0.5,9.851l0.1,0.95c-1.066,0.133-2.1,0.116-3.1-0.051
			c-1.3-0.199-2.134-0.616-2.5-1.25c-0.2-0.333-0.334-0.866-0.4-1.6c-0.066-0.767-0.184-1.316-0.35-1.65
			c-0.566-1.166-1.566-2.033-3-2.6c-1.467-0.6-2.816-0.65-4.05-0.15c-0.267,0.101-1.034,0.518-2.301,1.25
			c-0.866,0.5-1.683,0.75-2.449,0.75c-1.934,0-3.017-0.017-3.25-0.05c0-0.267-0.434-0.6-1.301-1c-1-0.366-1.616-0.6-1.85-0.7
			c-0.667-0.3-1.583-0.416-2.75-0.35c-1.333,0.167-2.283,0.267-2.85,0.3c-0.667,0.067-1.117,0.134-1.351,0.2
			c-0.367,0.1-0.75,0.316-1.15,0.65c-0.066,0.033-0.633,0.816-1.7,2.35c-0.5,0.733-1.417,1.017-2.75,0.85
			c-0.534-0.033-1.117-0.316-1.75-0.85s-1.184-0.833-1.65-0.9c-0.667-0.1-1.667-0.1-3,0c-1.367,0.101-2.367,0.117-3,0.051
			c-0.8-0.101-1.283-0.417-1.45-0.95c-0.033-0.134-0.05-0.75-0.05-1.851c0-0.899,0-1.383,0-1.449c0.067-0.5,0.25-0.934,0.55-1.301
			c0.433-0.566,0.95-0.949,1.55-1.149c0.267-0.101,0.883-0.233,1.85-0.4c0.167-0.899,0.333-1.433,0.5-1.6
			c0.233-0.3,0.817-0.517,1.75-0.65c1-0.167,1.567-0.283,1.7-0.35c0.367-0.2,0.566-0.65,0.6-1.351c0-0.866-0.017-1.35-0.05-1.449
			c-0.133-0.334-0.383-0.584-0.75-0.75c-0.433-0.167-0.767-0.334-1-0.5c-0.467-0.301-0.717-0.65-0.75-1.051
			c-0.033-0.433,0.2-0.833,0.7-1.199c0.3-0.233,0.85-0.384,1.65-0.45c0.733-0.101,1.267-0.367,1.6-0.8
			c0.267-0.334,0.417-0.733,0.45-1.2c0-0.601,0-1.05,0-1.351c0-0.666,0.033-1.166,0.1-1.5c0.1-0.399,0.333-0.816,0.7-1.25
			c0.433-0.566,1.117-1.283,2.05-2.149C90.267,84.083,95.934,82.934,100,81.5z"/>
		<path style="fill-rule:evenodd;clip-rule:evenodd;fill:#396C70;" d="M87.55,94.3c-1.434,0.167-2.55,0.267-3.35,0.3
			c0.133-0.199,0.2-0.517,0.2-0.949c0.033-0.634,0.05-0.983,0.05-1.051c0.367-1,0.533-1.75,0.5-2.25l1.85-0.75
			C87.434,91.233,87.684,92.8,87.55,94.3z"/>
		<path style="fill-rule:evenodd;clip-rule:evenodd;fill:#396C70;" d="M91.55,86.35c-0.666-0.034-1.017-0.05-1.05-0.05
			c-0.267-0.1-0.45-0.333-0.55-0.7c-0.134-0.667,0.233-1.083,1.1-1.25l2.101,0.5c0.533,0.533,0.55,0.933,0.05,1.2
			C92.833,86.25,92.283,86.35,91.55,86.35z"/>
		<path style="fill-rule:evenodd;clip-rule:evenodd;fill:#396C70;" d="M105.1,89.8c-0.6,0.134-1.517,0.134-2.75,0
			c-1.3-0.167-2.233-0.217-2.8-0.149c0.533-0.768,1.25-1.634,2.15-2.601c1.033-1.066,1.8-1.883,2.3-2.45l0.55-1.3
			c0.033,0.533,0.134,1.333,0.3,2.4c0.167,1.033,0.25,1.833,0.25,2.399V89.8z"/>
		<path style="fill-rule:evenodd;clip-rule:evenodd;fill:#396C70;" d="M108.25,88.35v4.101c0,0.533,0.066,1.467,0.2,2.8
			c0.066,1.267,0.017,2.2-0.15,2.8c-0.166,0.467-0.3,0.733-0.399,0.8c-0.101,0.033-0.5,0.018-1.2-0.05c-1.134-0.133-2-0.2-2.601-0.2
			c0.167-0.732,0.517-1.633,1.051-2.699c0.666-1.134,1.116-1.983,1.35-2.551c0.4-0.833,0.65-1.35,0.75-1.55
			c0.267-0.7,0.333-1.267,0.2-1.7L108.25,88.35z"/>
		<path style="fill-rule:evenodd;clip-rule:evenodd;fill:#396C70;" d="M99,99.8c-1.7,0.134-2.967,0.134-3.8,0
			c0.033-0.366,0.267-0.883,0.7-1.55c0.433-0.633,0.85-1.1,1.25-1.4l1.3-3.5c0,0.7,0.1,1.783,0.3,3.25
			C98.95,98,99.033,99.066,99,99.8z"/>
		<path style="fill-rule:evenodd;clip-rule:evenodd;fill:#396C70;" d="M92.35,103.6c0-0.199,0.167-0.449,0.5-0.75
			c0.334-0.3,0.617-0.467,0.851-0.5l1.05,0.25v1.9c-0.7-0.033-1.217-0.083-1.55-0.15C92.6,104.283,92.316,104.033,92.35,103.6z"/>
		<path style="fill-rule:evenodd;clip-rule:evenodd;fill:#396C70;" d="M91,100.3c-0.866,0.067-1.45,0.05-1.75-0.05
			c0.2-0.467,0.283-1.117,0.25-1.95c-0.033-0.899-0.05-1.55-0.05-1.95l1.05-0.25c-0.033,0.467,0.066,1.167,0.3,2.101
			C91.033,99.1,91.1,99.8,91,100.3z"/>
		<path style="fill-rule:evenodd;clip-rule:evenodd;fill:#396C70;" d="M93.3,97.6c-0.899,0.101-1.35-0.083-1.35-0.55
			c0.166-0.7,0.3-1.267,0.399-1.7l0.801-0.75c0,0.134,0.083,0.634,0.25,1.5C93.533,96.7,93.5,97.2,93.3,97.6z"/>
		<path style="fill-rule:evenodd;clip-rule:evenodd;fill:#396C70;" d="M114.4,86.85c0,0.233-0.017,0.533-0.051,0.9
			c-0.033,0.3-0.199,0.5-0.5,0.6c-0.3,0.101-0.566,0.084-0.8-0.05c-0.233-0.167-0.35-0.399-0.35-0.7
			c-0.767,0.601-1.584,0.551-2.45-0.149s-0.767-1.217,0.3-1.55c-0.3-0.5-0.316-0.933-0.05-1.3s0.684-0.55,1.25-0.55l0.2,0.05
			l1.35,0.75c0.834,0,1.367,0.133,1.601,0.4s0.3,0.783,0.199,1.55L114.4,86.85z"/>
		<path style="fill-rule:evenodd;clip-rule:evenodd;fill:#396C70;" d="M113.35,96.85c0.134-0.6,0.5-0.949,1.101-1.05
			c0.967-0.167,1.55,0.351,1.75,1.55l1-0.699v6.949c-4.566,0.101-6.566-0.816-6-2.75c0.378-0.101,0.661-0.084,0.85,0.051
			c-0.476-0.563-0.593-1.33-0.35-2.301c0.3-1.066,0.85-1.083,1.649-0.05C113.283,97.717,113.283,97.15,113.35,96.85z"/>
		<path style="fill-rule:evenodd;clip-rule:evenodd;fill:#396C70;" d="M115.05,105.05c0.733-0.433,1.3-0.25,1.7,0.55l0.25,3.5
			c-0.333,1.167-1.167,1.134-2.5-0.1c-1.333-1.267-1.35-1.983-0.05-2.15C114.116,106.117,114.316,105.517,115.05,105.05z"/>
		<path style="fill-rule:evenodd;clip-rule:evenodd;fill:#396C70;" d="M102.2,102.6c0.2-0.199,0.666-0.316,1.399-0.35
			c0.767-0.033,1.167,0.083,1.2,0.35l-0.5,0.25c0.5,0.4,0.584,1.033,0.25,1.9c-0.333,0.9-0.934,1.184-1.8,0.85
			c-0.5-0.199-0.8-0.649-0.9-1.35C101.75,103.55,101.866,103,102.2,102.6z"/>
		<path style="fill-rule:evenodd;clip-rule:evenodd;fill:#396C70;" d="M86,102.6c0.134,0.533,0,0.967-0.4,1.301
			c-0.4,0.3-0.883,0.366-1.45,0.199c0.033-0.433,0.3-0.85,0.8-1.25L86,102.6z"/>
		<path style="fill-rule:evenodd;clip-rule:evenodd;fill:#396C70;" d="M81.45,105.5c0.1-0.434,0.283-0.733,0.55-0.9l1.35-0.25
			c-0.033,0.301-0.133,0.7-0.3,1.2C82.483,105.717,81.95,105.7,81.45,105.5z"/>
		
			<use xlink:href="#FlashAICB_x2F_Layer_26_x2F__x3C_Path_x3E__x5F_6"  width="64.1" height="43.798" y="-43.798" transform="matrix(1 0 0 -1 54.2002 79.6499)" style="overflow:visible;enable-background:new    ;"/>
		
			<linearGradient id="SVGID_17_" gradientUnits="userSpaceOnUse" x1="-117.5625" y1="-101.5488" x2="-64.6375" y2="-101.5488" gradientTransform="matrix(-1 0 0 -1 0 0)">
			<stop  offset="0" style="stop-color:#FFF9F9;stop-opacity:0.4196"/>
			<stop  offset="1" style="stop-color:#000000;stop-opacity:0.2275"/>
		</linearGradient>
		<path style="fill-rule:evenodd;clip-rule:evenodd;fill:url(#SVGID_17_);" d="M100,81.5c1.9-0.667,3.8-1.033,5.7-1.1
			c2-0.067,3.833,0.217,5.5,0.85l0.55,2.85l0.1-2.6c1.733,0.8,3.15,1.934,4.25,3.4l0.9,1.45c0.1,0.767,0.184,1.933,0.25,3.5
			c0,1.934-0.017,5.867-0.05,11.801c0.033,5.467,0.2,9.399,0.5,11.8l0.6,5.05c-1.399-1.7-3.533-2.883-6.399-3.55
			c-2.434-0.567-5.467-0.55-9.101,0.05v-0.15l-0.1,0.2c-2.733,0.5-5.884,1.351-9.45,2.55c-0.434,0.134-2.95,1.033-7.55,2.7
			c-2.5,0.9-5.184,1.617-8.05,2.15L77.4,122.1l-0.05,0.4c-5.8,1.066-10.383,1.233-13.75,0.5c-4.233-0.9-7.367-2.517-9.4-4.85
			l0.75-17.5c0.267-6.101,0.4-13.101,0.4-21l3.05,1.65l1.4,1.05c1.3,0.767,2.8,1.417,4.5,1.95l0.25,0.85l0.05-0.75
			c2,0.567,4.117,0.917,6.35,1.05c1.466,0.1,3.267,0.116,5.4,0.05l0.35,1.85c0.033-0.433,0.15-1.066,0.35-1.899
			c4.067-0.233,8.367-0.733,12.9-1.5C94.25,83.184,97.6,82.367,100,81.5z"/>
		<path style="fill-rule:evenodd;clip-rule:evenodd;fill:#301F0A;" d="M78.7,111.7c-0.1,0.133-0.3,0.183-0.6,0.149
			c-0.333-0.033-0.55-0.1-0.65-0.199c0.167-0.067,0.383-0.084,0.65-0.051C78.4,111.6,78.6,111.633,78.7,111.7z"/>
		<path style="fill-rule:evenodd;clip-rule:evenodd;fill:#301F0A;" d="M77.95,113.65c-0.467-0.033-0.733-0.051-0.8-0.051v-0.85
			l-2.25,0.3c-1.133,3.9-3.566,6-7.3,6.3c-0.2,0.4-0.4,1.084-0.6,2.051c0.033,0.033,0.15,0.066,0.35,0.1
			c0.167,0.033,0.217,0.083,0.15,0.15l-0.6-0.051c-0.3,0-0.467,0.134-0.5,0.4c0.033,0.167,0.133,0.3,0.3,0.4
			c-0.1-0.067-0.15-0.117-0.15-0.15c0.067-0.033,0.2,0,0.4,0.1c0.2,0.067,0.333,0.167,0.4,0.301c0.033,0.066-0.133-0.018-0.5-0.25
			c0.1,0.066,0.233,0.149,0.4,0.25c0.167,0.1,0.25,0.217,0.25,0.35c0.033,0.333-0.133,0.5-0.5,0.5c-0.367,0.033-0.6-0.066-0.7-0.3
			l0.6,0.1c0.233,0.067,0.383,0,0.45-0.2c0.033-0.1-0.233-0.366-0.8-0.8c-0.466-0.333-0.433-0.633,0.1-0.899
			c0-0.233-0.083-0.934-0.25-2.101c-3.767-0.467-6-2.733-6.7-6.8c-0.667-0.2-1.383-0.35-2.15-0.45c-0.1,0.134-0.15,0.4-0.15,0.8H57
			c-0.033-0.333-0.117-0.517-0.25-0.55c-0.067,0.067-0.1,0.25-0.1,0.55H56.2c-0.267-0.833-0.434-1.482-0.5-1.949
			c0.2,0.433,0.433,0.982,0.7,1.649c0.067-0.033,0.1-0.233,0.1-0.6h0.45l0.2,0.649c0.1-0.133,0.167-0.433,0.2-0.899
			s0.133-0.767,0.3-0.9c0.033,0.067,0,0.333-0.1,0.8c0.434,0.067,1.2-0.033,2.3-0.3c0.767-4,3.133-6.133,7.1-6.399
			c0.367-0.967,0.583-1.584,0.65-1.851c0.133-0.8,0-1.399-0.4-1.8c-0.133,0.2-0.2,0.184-0.2-0.05c-0.133,0.2-0.15,0.55-0.05,1.05
			c0.066,0.4,0.05,0.633-0.05,0.7c-0.066-0.2-0.083-0.517-0.05-0.95c0-0.566,0-0.934,0-1.1c0.333,0.066,0.617,0.3,0.85,0.699
			c0.267,0.533,0.45,0.851,0.55,0.95c0.067-0.1,0.1-0.366,0.1-0.8c-0.033-0.434,0-0.7,0.1-0.8c0.066,0.2,0.083,0.533,0.05,1
			c0,0.233-0.017,0.566-0.05,1c-0.133-0.033-0.25-0.117-0.35-0.25c-0.133-0.167-0.217-0.267-0.25-0.3c0,0.267,0.066,0.699,0.2,1.3
			c0.1,0.633,0.15,1.066,0.15,1.3c0.267,0.1,0.716,0.2,1.35,0.3c0.034,0,0.017,0.05-0.05,0.15c0.198,0.065,0.348,0.065,0.45,0
			c-0.155,0.104-0.13,0.146,0.075,0.125c0.031,0.05,0.089,0.075,0.175,0.075c0.033,0,0.117-0.018,0.25-0.051
			c0,0.033-0.05,0.084-0.15,0.15c0.434,0.033,0.817,0.167,1.15,0.4c1.466,0.732,2.267,1.467,2.4,2.199
			c0.066-0.033,0.15,0.067,0.25,0.301c0.1,0.199,0.15,0.383,0.15,0.55l0.05-0.15c0.2,0.167,0.35,0.634,0.45,1.4
			c0.1,0.833,0.183,1.316,0.25,1.45c0.633,0.199,1.35,0.35,2.15,0.449c0.067-0.033,0.1-0.149,0.1-0.35
			c-0.033-0.233-0.017-0.367,0.05-0.4c0.1,0.067,0.133,0.233,0.1,0.5c0,0.134-0.017,0.301-0.05,0.5c0.066-0.066,0.217-0.1,0.45-0.1
			c0.267,0,0.467,0.033,0.6,0.1c-0.033,0.101-0.183,0.134-0.45,0.101c-0.3-0.033-0.467-0.05-0.5-0.05
			c-0.133,0.133-0.184,0.35-0.15,0.649c0.067,0.101,0.3,0.15,0.7,0.15c0.367,0.033,0.567,0.066,0.6,0.1
			C78.567,113.65,78.35,113.684,77.95,113.65z M66.85,105.15c-2.133,0.199-3.633,0.767-4.5,1.699c1.933,1.167,3.183,1.884,3.75,2.15
			c0.233-0.9,0.417-1.583,0.55-2.05c0.2-0.867,0.267-1.533,0.2-2C66.817,105.05,66.817,105.117,66.85,105.15z M67.7,103.2
			c-0.034,0.167-0.017,0.283,0.05,0.35l0.1-0.649C67.75,102.934,67.7,103.033,67.7,103.2z M68.35,105.15
			c0,0.7,0.008,1.217,0.025,1.55c0.023-0.021,0.048-0.037,0.075-0.05c0.1,0.232,0.117,0.566,0.05,1c0.033-0.033,0.067-0.101,0.1-0.2
			c0,0.433,0.1,1.05,0.3,1.85c0.9-0.399,2.167-1.083,3.8-2.05c-0.434-0.467-1.083-0.883-1.95-1.25
			C70.583,105.934,69.783,105.65,68.35,105.15z M67.5,103.95l-1.6,6.649c0.3,0.268,0.75,0.684,1.35,1.25l0.4-7.75
			C67.65,104.066,67.6,104.017,67.5,103.95z M72.95,107.55c-0.6,0.7-1.267,1.733-2,3.101c-0.034,0.066-0.1,0.133-0.2,0.199
			c-0.1,0.033-0.117,0.084-0.05,0.15c2.2,0.5,3.566,0.75,4.1,0.75c-0.2-1.9-0.816-3.367-1.85-4.4c0.066-0.033,0.133-0.017,0.2,0.051
			c0.067,0.066,0.1,0.083,0.1,0.05c-0.1-0.2-0.2-0.25-0.3-0.15C72.883,107.4,72.883,107.483,72.95,107.55z M69,110.2
			c0.033,0.233,0.1,0.383,0.2,0.45c-0.034-0.567-0.117-0.917-0.25-1.051C68.95,109.633,68.967,109.833,69,110.2z M70.65,113.6
			c-0.267,0-0.35,0.101-0.25,0.301c0-0.101,0.017-0.117,0.05-0.051c0.333,0.768,0.933,1.917,1.8,3.45
			c1.367-1.3,2.133-2.683,2.3-4.149l-2.05,0.199C71.5,113.417,70.883,113.5,70.65,113.6z M68.5,115.25c-0.167,0.9-0.467,2.2-0.9,3.9
			c2.133-0.301,3.617-0.884,4.45-1.75C70.583,116.367,69.4,115.65,68.5,115.25z M75.9,112.35L69,110.9l-1.4,1.25
			c0.9,0,2.316,0.033,4.25,0.1C73.617,112.35,74.967,112.383,75.9,112.35z M67.4,112.65c-0.233,3.699-0.316,6.183-0.25,7.449
			l1.55-6.35c-0.534-0.6-0.967-1.017-1.3-1.25V112.65z M62.85,112.1c-1.633-0.066-3-0.083-4.1-0.05l6.9,1.5
			c0.7-0.633,1.133-1.05,1.3-1.25C65.15,112.2,63.783,112.133,62.85,112.1z M60.05,111.3c1.934-0.2,3.35-0.417,4.25-0.649
			c-0.9-1.634-1.633-2.801-2.2-3.5C61.1,108.184,60.417,109.566,60.05,111.3z M63.55,118.3c0.167,0.067,0.567,0.217,1.2,0.45
			s1.167,0.316,1.6,0.25l-0.55-3.8l-3.9,1.8l1.4,1.1c-0.1,0.033-0.2,0-0.3-0.1s-0.167-0.133-0.2-0.1
			C62.967,118.066,63.217,118.2,63.55,118.3z M61.8,116.75c1.233-1.8,1.983-2.934,2.25-3.4c-1.867-0.467-3.267-0.717-4.2-0.75
			C60.05,114.167,60.7,115.55,61.8,116.75z"/>
		<path style="fill-rule:evenodd;clip-rule:evenodd;fill:#B6A081;" d="M61.95,114.75l0.2,0.7c-0.467-0.033-1.017,0.017-1.65,0.149
			c-1.3,0.268-2.383,0.817-3.25,1.65c-1.1,1.033-1.833,2.367-2.2,4c-0.367,1.667-0.133,2.9,0.7,3.7
			c1.024,0.938,1.674,1.463,1.95,1.575L55.15,126c-0.367-0.2-0.7-0.55-1-1.05c-0.6-1-0.75-2.267-0.45-3.8
			c0.7-3.233,2.283-5.268,4.75-6.101C59.683,114.617,60.85,114.517,61.95,114.75z"/>
		
			<use xlink:href="#FlashAICB_x2F_Layer_26_x2F__x3C_Path_x3E__x5F_2"  width="4.225" height="38.15" x="0.025" y="-38.15" transform="matrix(1 0 0 -1 114.5498 85.6499)" style="overflow:visible;opacity:0.4102;enable-background:new    ;"/>
		
			<linearGradient id="SVGID_18_" gradientUnits="userSpaceOnUse" x1="-60.4751" y1="-97.6582" x2="-53.9251" y2="-97.6582" gradientTransform="matrix(-1 0 0 -1 0 0)">
			<stop  offset="0" style="stop-color:#F6F0D9"/>
			<stop  offset="1" style="stop-color:#D7C9A1"/>
		</linearGradient>
		<path style="fill-rule:evenodd;clip-rule:evenodd;fill:url(#SVGID_18_);" d="M62.4,73.05l-0.6,4.4
			c-0.367,3.533-0.566,6.75-0.6,9.649c-0.067,9.268,0.017,16.617,0.25,22.051c0.133,2.732,0.267,4.533,0.4,5.399
			c-0.6-0.1-1.283-0.083-2.05,0.05c-1.566,0.233-2.816,0.95-3.75,2.15c-1,1.2-1.716,2.483-2.15,3.85c-0.2,0.7-0.316,1.268-0.35,1.7
			c-0.066,0.2-0.05-3.866,0.05-12.2c0.033-2.033,0.467-13.133,1.3-33.3c-0.066,0.033,0.633-0.65,2.1-2.05
			c0.933-0.867,2.117-1.417,3.55-1.65C61.25,73,61.867,72.983,62.4,73.05z"/>
		<path style="fill-rule:evenodd;clip-rule:evenodd;fill:#FEF6DE;" d="M62.2,73.45l0.2-0.4l0.35,0.7l-0.4,3
			c-0.3,2.7-0.5,5.867-0.6,9.5c-0.2,8.733-0.067,18.467,0.4,29.2l-0.5-0.95c-0.333-4.033-0.566-8.767-0.7-14.2
			C60.717,89.4,61.133,80.45,62.2,73.45z"/>
	</g>
</g>
<g>
	<g>
		<g>
			<g>
				<g>
					
						<linearGradient id="SVGID_19_" gradientUnits="userSpaceOnUse" x1="-32.6914" y1="71.625" x2="-15.854" y2="71.625" gradientTransform="matrix(0.4708 -0.8822 0.8822 0.4708 -6.484985e-005 3.026128e-004)">
						<stop  offset="0" style="stop-color:#1E7B6A"/>
						<stop  offset="0.7098" style="stop-color:#9FE0B8"/>
					</linearGradient>
					<path style="fill-rule:evenodd;clip-rule:evenodd;fill:url(#SVGID_19_);" d="M45.5,49c0.767-0.733,1.7-1.066,2.8-1
						c0.4,0,0.817,0.083,1.25,0.25l1.15,0.45l1.05-0.7c0.733-0.533,1.517-0.767,2.35-0.7c0.533,0,1.1,0.15,1.7,0.45l0.05,0.05
						c1.4,0.8,2.066,2,2,3.6l-0.1,1.25l1,0.75c0.6,0.433,1.033,1,1.3,1.7c0.267,0.7,0.317,1.417,0.15,2.15
						c-0.167,0.833-0.55,1.533-1.15,2.1c-0.5,0.466-1.05,0.767-1.65,0.9l-1.2,0.3l-0.45,1.2c-0.2,0.633-0.533,1.15-1,1.55
						c-0.633,0.567-1.367,0.9-2.2,1l-0.6,0.05c-0.6-0.067-1.15-0.217-1.65-0.45c-0.633-0.367-1.117-0.817-1.45-1.35l-0.7-1.05h-1.3
						c-1.6-0.1-2.717-0.85-3.35-2.25c-0.7-1.5-0.533-2.867,0.5-4.1l0.8-1l-0.4-1.2c-0.2-0.7-0.2-1.4,0-2.1
						C44.6,50.117,44.967,49.5,45.5,49z"/>
					<path style="fill-rule:evenodd;clip-rule:evenodd;fill:none;stroke:#DBF0E8;stroke-width:0.25;" d="M45.5,49
						c0.767-0.733,1.7-1.066,2.8-1c0.4,0,0.817,0.083,1.25,0.25l1.15,0.45l1.05-0.7c0.733-0.533,1.517-0.767,2.35-0.7
						c0.533,0,1.1,0.15,1.7,0.45l0.05,0.05c1.4,0.8,2.066,2,2,3.6l-0.1,1.25l1,0.75c0.6,0.433,1.033,1,1.3,1.7
						c0.267,0.7,0.317,1.417,0.15,2.15c-0.167,0.833-0.55,1.533-1.15,2.1c-0.5,0.466-1.05,0.767-1.65,0.9l-1.2,0.3l-0.45,1.2
						c-0.2,0.633-0.533,1.15-1,1.55c-0.633,0.567-1.367,0.9-2.2,1l-0.6,0.05c-0.6-0.067-1.15-0.217-1.65-0.45
						c-0.633-0.367-1.117-0.817-1.45-1.35l-0.7-1.05h-1.3c-1.6-0.1-2.717-0.85-3.35-2.25c-0.7-1.5-0.533-2.867,0.5-4.1l0.8-1
						l-0.4-1.2c-0.2-0.7-0.2-1.4,0-2.1C44.6,50.117,44.967,49.5,45.5,49z"/>
				</g>
			</g>
			<path style="fill-rule:evenodd;clip-rule:evenodd;fill:#22480E;" d="M45.7,56.55l1.55-1.9l-0.7-2.3
				c-0.2-0.667-0.05-1.233,0.45-1.7c0.5-0.5,1.083-0.617,1.75-0.35L51,51.15l2-1.35c0.567-0.4,1.167-0.433,1.8-0.1
				c0.567,0.366,0.85,0.883,0.85,1.55L55.5,53.7l1.95,1.45c0.566,0.467,0.767,1.017,0.6,1.65c-0.066,0.367-0.233,0.667-0.5,0.9
				c-0.2,0.233-0.433,0.366-0.7,0.4l-2.35,0.65L53.7,61c-0.1,0.267-0.25,0.5-0.45,0.7c-0.267,0.267-0.583,0.4-0.95,0.4
				c-0.667,0.1-1.2-0.15-1.6-0.75l-1.3-2l-2.45-0.1c-0.667,0-1.15-0.316-1.45-0.95C45.2,57.7,45.267,57.117,45.7,56.55z"/>
			
				<linearGradient id="SVGID_20_" gradientUnits="userSpaceOnUse" x1="-29.6831" y1="71.6362" x2="-18.8566" y2="71.6362" gradientTransform="matrix(0.4711 -0.8821 0.8821 0.4711 -1.111031e-004 -2.120435e-004)">
				<stop  offset="0" style="stop-color:#EDBF35"/>
				<stop  offset="0.2941" style="stop-color:#F0CA31"/>
				<stop  offset="0.8039" style="stop-color:#F9E728"/>
				<stop  offset="0.9647" style="stop-color:#FCF226"/>
			</linearGradient>
			<path style="fill-rule:evenodd;clip-rule:evenodd;fill:url(#SVGID_20_);" d="M54.4,50.4c0.3,0.167,0.45,0.433,0.45,0.8
				l-0.15,2.85l2.25,1.75c0.3,0.233,0.417,0.517,0.35,0.85c-0.033,0.167-0.133,0.333-0.3,0.5l-0.35,0.2L53.9,58.1l-0.95,2.65
				L52.7,61.1c-0.067,0.1-0.233,0.183-0.5,0.25c-0.367,0.067-0.65-0.067-0.85-0.4l-1.55-2.4L47,58.5c-0.367,0-0.633-0.184-0.8-0.55
				c-0.167-0.333-0.133-0.634,0.1-0.9l1.8-2.2l-0.8-2.75c-0.1-0.333-0.017-0.633,0.25-0.9c0.267-0.233,0.567-0.3,0.9-0.2l2.65,1.05
				l2.35-1.6C53.75,50.25,54.067,50.233,54.4,50.4z"/>
			<path style="fill-rule:evenodd;clip-rule:evenodd;fill:#F5FAD7;" d="M53.45,50.45c0.3-0.2,0.617-0.217,0.95-0.05
				c0.3,0.167,0.45,0.433,0.45,0.8l-0.15,2.85l2.25,1.75c0.3,0.233,0.417,0.517,0.35,0.85c-0.033,0.167-0.133,0.333-0.3,0.5
				l-0.35,0.2H56.6l0.15-0.3c0.067-0.366-0.05-0.65-0.35-0.85l-2.25-1.75l0.15-2.85c0.067-0.367-0.083-0.633-0.45-0.8
				c-0.333-0.167-0.65-0.15-0.95,0.05l-2.3,1.6l-2.65-1.05c-0.2-0.033-0.367-0.033-0.5,0l0.1-0.2c0.267-0.233,0.567-0.3,0.9-0.2
				l2.65,1.05L53.45,50.45z"/>
		</g>
	</g>
</g>
<g>
	<g>
		<g>
			<g>
				<g>
					<linearGradient id="SVGID_21_" gradientUnits="userSpaceOnUse" x1="116.0537" y1="47.7178" x2="123.9827" y2="62.5752">
						<stop  offset="0" style="stop-color:#1E7B6A"/>
						<stop  offset="0.7098" style="stop-color:#9FE0B8"/>
					</linearGradient>
					<path style="fill-rule:evenodd;clip-rule:evenodd;fill:url(#SVGID_21_);" d="M117.65,47.3c0.899-0.066,1.683,0.167,2.35,0.7
						l1.05,0.7l1.2-0.45c0.434-0.167,0.833-0.25,1.2-0.25c1.1-0.066,2.033,0.267,2.8,1c0.533,0.5,0.9,1.117,1.1,1.85
						c0.2,0.7,0.2,1.4,0,2.1l-0.35,1.2l0.8,1c1.033,1.233,1.2,2.6,0.5,4.1c-0.633,1.4-1.75,2.15-3.35,2.25H123.6l-0.649,1.05
						c-0.334,0.533-0.816,0.983-1.45,1.35c-0.5,0.233-1.066,0.383-1.7,0.45l-0.6-0.05c-0.8-0.1-1.517-0.433-2.15-1
						c-0.5-0.4-0.85-0.917-1.05-1.55l-0.4-1.2l-1.25-0.3c-0.533-0.133-1.066-0.434-1.6-0.9c-0.566-0.534-0.967-1.233-1.2-2.1
						c-0.133-0.733-0.066-1.45,0.2-2.15c0.267-0.7,0.684-1.267,1.25-1.7l1-0.75l-0.05-1.25c-0.101-1.6,0.55-2.8,1.95-3.6l0.1-0.05
						C116.6,47.45,117.15,47.3,117.65,47.3z"/>
					<path style="fill-rule:evenodd;clip-rule:evenodd;fill:none;stroke:#DBF0E8;stroke-width:0.25;" d="M117.65,47.3
						c0.899-0.066,1.683,0.167,2.35,0.7l1.05,0.7l1.2-0.45c0.434-0.167,0.833-0.25,1.2-0.25c1.1-0.066,2.033,0.267,2.8,1
						c0.533,0.5,0.9,1.117,1.1,1.85c0.2,0.7,0.2,1.4,0,2.1l-0.35,1.2l0.8,1c1.033,1.233,1.2,2.6,0.5,4.1
						c-0.633,1.4-1.75,2.15-3.35,2.25H123.6l-0.649,1.05c-0.334,0.533-0.816,0.983-1.45,1.35c-0.5,0.233-1.066,0.383-1.7,0.45
						l-0.6-0.05c-0.8-0.1-1.517-0.433-2.15-1c-0.5-0.4-0.85-0.917-1.05-1.55l-0.4-1.2l-1.25-0.3c-0.533-0.133-1.066-0.434-1.6-0.9
						c-0.566-0.534-0.967-1.233-1.2-2.1c-0.133-0.733-0.066-1.45,0.2-2.15c0.267-0.7,0.684-1.267,1.25-1.7l1-0.75l-0.05-1.25
						c-0.101-1.6,0.55-2.8,1.95-3.6l0.1-0.05C116.6,47.45,117.15,47.3,117.65,47.3z"/>
				</g>
			</g>
			<path style="fill-rule:evenodd;clip-rule:evenodd;fill:#22480E;" d="M117,49.7c0.6-0.333,1.184-0.3,1.75,0.1l2,1.35l2.3-0.85
				c0.634-0.267,1.2-0.15,1.7,0.35c0.5,0.4,0.667,0.967,0.5,1.7l-0.7,2.3l1.55,1.9c0.4,0.5,0.467,1.083,0.2,1.75
				c-0.3,0.634-0.783,0.95-1.45,0.95l-2.449,0.1l-1.301,2c-0.399,0.6-0.933,0.85-1.6,0.75c-0.366,0-0.684-0.133-0.95-0.4
				c-0.2-0.2-0.35-0.434-0.45-0.7l-0.8-2.25l-2.35-0.65c-0.233-0.034-0.467-0.167-0.7-0.4c-0.267-0.233-0.434-0.533-0.5-0.9
				c-0.167-0.633,0.033-1.183,0.6-1.65l1.95-1.45l-0.149-2.45C116.116,50.617,116.4,50.1,117,49.7z"/>
			<linearGradient id="SVGID_22_" gradientUnits="userSpaceOnUse" x1="124.8623" y1="57.5439" x2="114.9373" y2="53.2189">
				<stop  offset="0" style="stop-color:#EDBF35"/>
				<stop  offset="0.2941" style="stop-color:#F0CA31"/>
				<stop  offset="0.8039" style="stop-color:#F9E728"/>
				<stop  offset="0.9647" style="stop-color:#FCF226"/>
			</linearGradient>
			<path style="fill-rule:evenodd;clip-rule:evenodd;fill:url(#SVGID_22_);" d="M117.4,50.4c0.333-0.167,0.633-0.15,0.899,0.05
				l2.351,1.6L123.3,51c0.4-0.1,0.717-0.033,0.95,0.2c0.267,0.267,0.35,0.566,0.25,0.9l-0.8,2.75l1.75,2.2
				c0.267,0.267,0.316,0.567,0.149,0.9c-0.166,0.366-0.433,0.55-0.8,0.55l-2.85,0.05l-1.55,2.4c-0.167,0.333-0.45,0.467-0.851,0.4
				c-0.233-0.067-0.399-0.15-0.5-0.25l-0.2-0.35L117.9,58.1l-2.75-0.75l-0.4-0.2l-0.25-0.5c-0.066-0.367,0.05-0.65,0.35-0.85
				l2.25-1.75l-0.149-2.85C116.884,50.833,117.033,50.566,117.4,50.4z"/>
			<path style="fill-rule:evenodd;clip-rule:evenodd;fill:#F5FAD7;" d="M114.85,55.8l2.25-1.75l-0.149-2.85
				c-0.066-0.367,0.083-0.634,0.45-0.8c0.333-0.167,0.633-0.15,0.899,0.05l2.351,1.6L123.3,51c0.4-0.1,0.717-0.033,0.95,0.2l0.1,0.2
				c-0.166-0.067-0.333-0.067-0.5,0l-2.649,1.05l-2.351-1.6c-0.267-0.2-0.583-0.217-0.949-0.05c-0.301,0.167-0.45,0.434-0.45,0.8
				l0.149,2.85l-2.25,1.75c-0.3,0.233-0.399,0.517-0.3,0.85l0.101,0.3l-0.4-0.2l-0.25-0.5C114.434,56.283,114.55,56,114.85,55.8z"/>
		</g>
	</g>
</g>
<g>
	<path style="fill-rule:evenodd;clip-rule:evenodd;fill:#DBF0E8;" d="M68.15,37.25c0-0.767,0.233-1.383,0.7-1.85
		c0.467-0.466,1.05-0.7,1.75-0.7c0.7,0,1.283,0.233,1.75,0.7c0.433,0.433,0.65,1.05,0.65,1.85v11.3c0,1.5,0.45,2.75,1.35,3.75
		c0.933,1.033,2.15,1.55,3.65,1.55c1.433,0,2.633-0.534,3.6-1.6c0.9-1.033,1.35-2.267,1.35-3.7v-11.3c0-0.767,0.233-1.383,0.7-1.85
		c0.434-0.466,1-0.7,1.7-0.7c0.733,0,1.317,0.233,1.75,0.7c0.467,0.467,0.7,1.083,0.7,1.85V48.8c0,2.667-0.967,4.934-2.9,6.8
		c-1.9,1.8-4.2,2.7-6.9,2.7c-2.733,0-5.05-0.9-6.95-2.7c-1.933-1.8-2.9-4.067-2.9-6.8V37.25z"/>
	<path style="fill-rule:evenodd;clip-rule:evenodd;fill:#DBF0E8;" d="M95.35,45.1H98.7c0.899,0,1.616-0.25,2.149-0.75
		c0.567-0.534,0.851-1.25,0.851-2.15c0-0.867-0.283-1.55-0.851-2.05c-0.533-0.5-1.25-0.75-2.149-0.75H95.35V45.1z M90.5,37.45
		c0-0.8,0.217-1.417,0.65-1.85c0.433-0.467,1.05-0.7,1.85-0.7h5.7c5.366,0,8.05,2.433,8.05,7.3c0,1.7-0.583,3.1-1.75,4.2
		c-1.066,1-2.483,1.65-4.25,1.95l5.5,5.85c0.434,0.467,0.65,0.95,0.65,1.45c0,0.667-0.217,1.233-0.65,1.7
		c-0.5,0.533-1.083,0.8-1.75,0.8c-0.8,0-1.434-0.283-1.9-0.85L95.4,48.6H95.35v7c0,0.767-0.233,1.4-0.699,1.9
		c-0.434,0.434-1,0.65-1.7,0.65s-1.283-0.216-1.75-0.65c-0.467-0.467-0.7-1.1-0.7-1.9V37.45z"/>
</g>
<g>
	
		<linearGradient id="SVGID_23_" gradientUnits="userSpaceOnUse" x1="-56.9028" y1="77.9766" x2="-34.5528" y2="77.9766" gradientTransform="matrix(4.474273e-005 -1 1 -0.001 -1.187698e-004 4.674215e-004)">
		<stop  offset="0" style="stop-color:#112924"/>
		<stop  offset="0.4549" style="stop-color:#21423D"/>
		<stop  offset="0.9686" style="stop-color:#36625F"/>
	</linearGradient>
	<path style="fill-rule:evenodd;clip-rule:evenodd;fill:url(#SVGID_23_);" d="M68.15,36.3c0-0.8,0.233-1.433,0.7-1.9
		c0.433-0.433,1.017-0.65,1.75-0.65s1.316,0.217,1.75,0.65c0.433,0.467,0.65,1.1,0.65,1.9v11.3c0,1.5,0.45,2.75,1.35,3.75
		c0.933,1.033,2.15,1.55,3.65,1.55c1.433,0,2.633-0.533,3.6-1.6c0.9-1.033,1.35-2.267,1.35-3.7V36.3c0-0.8,0.233-1.433,0.7-1.9
		c0.434-0.433,1-0.65,1.7-0.65c0.733,0,1.317,0.217,1.75,0.65c0.467,0.467,0.7,1.1,0.7,1.9v11.55c0,2.667-0.967,4.933-2.9,6.8
		c-1.9,1.8-4.2,2.7-6.9,2.7c-2.733,0-5.05-0.9-6.95-2.7c-1.933-1.8-2.9-4.067-2.9-6.8V36.3z"/>
	
		<linearGradient id="SVGID_24_" gradientUnits="userSpaceOnUse" x1="-56.9238" y1="98.7012" x2="-34.5738" y2="98.7012" gradientTransform="matrix(4.474273e-005 -1 1 -0.001 -1.187698e-004 4.674215e-004)">
		<stop  offset="0" style="stop-color:#112924"/>
		<stop  offset="0.4549" style="stop-color:#21423D"/>
		<stop  offset="0.9686" style="stop-color:#36625F"/>
	</linearGradient>
	<path style="fill-rule:evenodd;clip-rule:evenodd;fill:url(#SVGID_24_);" d="M95.35,44.15H98.7c0.899,0,1.616-0.25,2.149-0.75
		c0.567-0.533,0.851-1.25,0.851-2.15c0-0.867-0.283-1.55-0.851-2.05c-0.533-0.5-1.25-0.75-2.149-0.75H95.35V44.15z M90.5,36.5
		c0-0.8,0.217-1.417,0.65-1.85c0.433-0.466,1.05-0.7,1.85-0.7h5.7c5.366,0,8.05,2.433,8.05,7.3c0,1.7-0.583,3.1-1.75,4.2
		c-1.066,1-2.483,1.65-4.25,1.95l5.5,5.85c0.434,0.467,0.65,0.95,0.65,1.45c0,0.667-0.217,1.233-0.65,1.7
		c-0.5,0.534-1.083,0.8-1.75,0.8c-0.8,0-1.434-0.283-1.9-0.85l-7.199-8.7H95.35v7c0,0.767-0.233,1.4-0.699,1.9
		c-0.434,0.434-1,0.65-1.7,0.65s-1.283-0.217-1.75-0.65c-0.467-0.467-0.7-1.1-0.7-1.9V36.5z"/>
</g>
<g>
	
		<use xlink:href="#FlashAICB_x2F_Layer_26_x2F__x3C_Path_x3E__x5F_2_x5F_0"  width="110" height="55.75" y="-55.75" transform="matrix(1 0 0 -1 30.8501 27.8999)" style="overflow:visible;opacity:0.1094;enable-background:new    ;"/>
	
		<use xlink:href="#FlashAICB_x2F_Layer_26_x2F__x3C_Path_x3E__x5F_1"  width="110" height="61.294" y="-61.294" transform="matrix(1 0 0 -1 30.8501 27.8999)" style="overflow:visible;opacity:0.0898;enable-background:new    ;"/>
	
		<use xlink:href="#FlashAICB_x2F_Layer_26_x2F__x3C_Path_x3E__x5F_0"  width="118.7" height="57.1" y="-57.1" transform="matrix(1 0 0 -1 26.5 86.7002)" style="overflow:visible;opacity:0.4688;enable-background:new    ;"/>
</g>
</svg>
