<?xml version="1.0" encoding="UTF-8" standalone="no"?>
<!-- Generator: Adobe Illustrator 15.1.0, SVG Export Plug-In . SVG Version: 6.00 Build 0)  -->

<svg
   xmlns:dc="http://purl.org/dc/elements/1.1/"
   xmlns:cc="http://creativecommons.org/ns#"
   xmlns:rdf="http://www.w3.org/1999/02/22-rdf-syntax-ns#"
   xmlns:svg="http://www.w3.org/2000/svg"
   xmlns="http://www.w3.org/2000/svg"
   xmlns:xlink="http://www.w3.org/1999/xlink"
   xmlns:sodipodi="http://sodipodi.sourceforge.net/DTD/sodipodi-0.dtd"
   xmlns:inkscape="http://www.inkscape.org/namespaces/inkscape"
   version="1.1"
   id="FlashAICB"
   x="0px"
   y="0px"
   width="171.55px"
   height="171.55px"
   viewBox="0 0 171.55 171.55"
   style="enable-background:new 0 0 171.55 171.55;"
   xml:space="preserve"
   inkscape:version="0.48.3.1 r9886"
   sodipodi:docname="wanderer.svg"><metadata
   id="metadata754"><rdf:RDF><cc:Work
       rdf:about=""><dc:format>image/svg+xml</dc:format><dc:type
         rdf:resource="http://purl.org/dc/dcmitype/StillImage" /></cc:Work></rdf:RDF></metadata><defs
   id="defs752" /><sodipodi:namedview
   pagecolor="#ffffff"
   bordercolor="#666666"
   borderopacity="1"
   objecttolerance="10"
   gridtolerance="10"
   guidetolerance="10"
   inkscape:pageopacity="0"
   inkscape:pageshadow="2"
   inkscape:window-width="640"
   inkscape:window-height="480"
   id="namedview750"
   showgrid="false"
   inkscape:zoom="1.3756922"
   inkscape:cx="48.882929"
   inkscape:cy="85.775002"
   inkscape:window-x="0"
   inkscape:window-y="27"
   inkscape:window-maximized="0"
   inkscape:current-layer="FlashAICB" />
<symbol
   id="FlashAICB_x2F_Layer_1_x2F__x3C_Path_x3E_"
   viewBox="0 -57.05 118.55 57.05">
	<g
   id="Layer_1_3_">
		
			<radialGradient
   id="SVGID_1_"
   cx="59.2749"
   cy="-28.5249"
   r="46.5144"
   gradientTransform="matrix(1 0 0 -1 0 -57.0498)"
   gradientUnits="userSpaceOnUse">
			<stop
   offset="0"
   style="stop-color:#CCEFE7;stop-opacity:0"
   id="stop6" />
			<stop
   offset="0.0784"
   style="stop-color:#C9E7DC;stop-opacity:0.0392"
   id="stop8" />
			<stop
   offset="0.2118"
   style="stop-color:#C1D1C0;stop-opacity:0.1451"
   id="stop10" />
			<stop
   offset="0.3882"
   style="stop-color:#B5AE93;stop-opacity:0.3216"
   id="stop12" />
			<stop
   offset="0.5961"
   style="stop-color:#A67D55;stop-opacity:0.5647"
   id="stop14" />
			<stop
   offset="0.651"
   style="stop-color:#A17045;stop-opacity:0.6275"
   id="stop16" />
		</radialGradient>
		<path
   style="fill-rule:evenodd;clip-rule:evenodd;fill:url(#SVGID_1_);"
   d="M95.4-30.3c10.667,7.7,18.2,17.716,22.6,30.05    L118.55,0c-0.6-15.867-6.633-29.333-18.1-40.4c-11.5-11.1-25.233-16.65-41.2-16.65c-15.7,0-29.267,5.367-40.7,16.1    C7.183-30.283,1-17.2,0-1.7c4.6-11.966,12.167-21.65,22.7-29.05c10.8-7.533,22.816-11.3,36.05-11.3    C72.25-42.05,84.467-38.133,95.4-30.3z"
   id="path18" />
	</g>
</symbol>
<symbol
   id="FlashAICB_x2F_Layer_1_x2F__x3C_Path_x3E__x5F_0"
   viewBox="0 -61.194 109.85 61.194">
	<g
   id="Layer_1_5_">
		<path
   style="fill-rule:evenodd;clip-rule:evenodd;fill:#FFFFFF;"
   d="M106.35-34.3c2.333-5.633,3.5-10.934,3.5-15.9    c0-4.933-1.434-8.05-4.3-9.35c-2.367-1.034-6.3-1.017-11.8,0.05c-7.267,1.767-13.083,3.117-17.45,4.05    c-8,1.7-15.133,2.55-21.4,2.55c-6.3,0-13.417-0.917-21.35-2.75c-8.333-2.2-14.15-3.684-17.45-4.45    c-5.533-1.267-9.467-1.433-11.8-0.5C1.433-59.4,0-56.333,0-51.4c0,5.467,1.167,11.117,3.5,16.95    c2.467,6.167,5.933,11.733,10.4,16.7C24.6-5.917,38.267,0,54.9,0c16.434,0,30.1-5.983,41-17.95    C100.333-22.85,103.817-28.3,106.35-34.3z"
   id="path22" />
	</g>
</symbol>
<symbol
   id="FlashAICB_x2F_Layer_1_x2F__x3C_Path_x3E__x5F_1"
   viewBox="0 -118.5 118.7 118.5">
	<g
   id="Layer_1_2_">
		
			<radialGradient
   id="SVGID_2_"
   cx="59.3501"
   cy="-59.25"
   r="59.3001"
   gradientTransform="matrix(1 0 0 -1 0 -118.5)"
   gradientUnits="userSpaceOnUse">
			<stop
   offset="0"
   style="stop-color:#F6BD8E"
   id="stop27" />
			<stop
   offset="0.0196"
   style="stop-color:#F5BA8C"
   id="stop29" />
			<stop
   offset="0.2471"
   style="stop-color:#ED9B78"
   id="stop31" />
			<stop
   offset="0.4431"
   style="stop-color:#E9886B"
   id="stop33" />
			<stop
   offset="0.5843"
   style="stop-color:#E78267"
   id="stop35" />
			<stop
   offset="0.5882"
   style="stop-color:#E68066;stop-opacity:0.9922"
   id="stop37" />
			<stop
   offset="0.6745"
   style="stop-color:#DA6858;stop-opacity:0.902"
   id="stop39" />
			<stop
   offset="0.7686"
   style="stop-color:#D1564E;stop-opacity:0.8392"
   id="stop41" />
			<stop
   offset="0.8706"
   style="stop-color:#CC4B48;stop-opacity:0.8"
   id="stop43" />
			<stop
   offset="1"
   style="stop-color:#CA4846;stop-opacity:0.7882"
   id="stop45" />
		</radialGradient>
		<path
   style="fill-rule:evenodd;clip-rule:evenodd;fill:url(#SVGID_2_);"
   d="M118.7-59.25c0-16.367-5.784-30.333-17.35-41.9    c-11.6-11.567-25.6-17.35-42-17.35c-16.367,0-30.35,5.783-41.95,17.35C5.8-89.583,0-75.617,0-59.25s5.8,30.333,17.4,41.9    C29-5.783,42.983,0,59.35,0c16.4,0,30.4-5.783,42-17.35C112.917-28.917,118.7-42.883,118.7-59.25z"
   id="path47" />
	</g>
</symbol>
<symbol
   id="FlashAICB_x2F_Layer_1_x2F__x3C_Path_x3E__x5F_1_x5F_0"
   viewBox="0 -55.7 109.85 55.7">
	<g
   id="Layer_1_4_">
		
			<linearGradient
   id="SVGID_3_"
   gradientUnits="userSpaceOnUse"
   x1="16165.3516"
   y1="-53.7803"
   x2="16220.9971"
   y2="-53.7803"
   gradientTransform="matrix(1.795332e-005 1 -1 -0.001 0.8545 -16221.1064)">
			<stop
   offset="0.1294"
   style="stop-color:#E2B8B2"
   id="stop52" />
			<stop
   offset="0.9255"
   style="stop-color:#FFFFFF"
   id="stop54" />
		</linearGradient>
		<path
   style="fill-rule:evenodd;clip-rule:evenodd;fill:url(#SVGID_3_);"
   d="M95.9-17.95c4.434-4.9,7.917-10.35,10.45-16.35    c2.333-5.633,3.5-10.934,3.5-15.9c0-1.767-0.167-3.25-0.5-4.45c-1.833,11.033-7.217,20.85-16.15,29.45    C82.667-15.067,69.9-10,54.9-10c-15.2,0-28.017-5.05-38.45-15.15c-8.967-8.733-14.3-18.917-16-30.55C0.15-54.5,0-53.067,0-51.4    c0,5.467,1.167,11.117,3.5,16.95c2.467,6.167,5.933,11.733,10.4,16.7C24.6-5.917,38.267,0,54.9,0C71.333,0,85-5.983,95.9-17.95z"
   id="path56" />
	</g>
</symbol>
<g
   id="g58">
	<path
   style="fill-rule:evenodd;clip-rule:evenodd;fill:#68757B;"
   d="M146.4,25.15c7.899,7.934,14.033,17.033,18.399,27.3   c4.5,10.633,6.75,21.75,6.75,33.35c0,11.601-2.25,22.717-6.75,33.351c-4.366,10.233-10.5,19.316-18.399,27.25   c-7.934,7.933-17.033,14.066-27.301,18.399c-10.6,4.5-21.717,6.75-33.35,6.75c-11.6,0-22.717-2.25-33.35-6.75   c-10.233-4.366-19.316-10.5-27.25-18.399c-7.933-7.934-14.066-17.017-18.4-27.25C2.25,108.517,0,97.4,0,85.8   c0-11.6,2.25-22.716,6.75-33.35c4.333-10.267,10.467-19.367,18.4-27.3c7.934-7.9,17.017-14.033,27.25-18.4   C63.033,2.25,74.15,0,85.75,0c11.6,0,22.717,2.25,33.35,6.75C129.367,11.117,138.467,17.25,146.4,25.15z"
   id="path60" />
	
		<linearGradient
   id="SVGID_4_"
   gradientUnits="userSpaceOnUse"
   x1="-171.6353"
   y1="85.7754"
   x2="-0.0854"
   y2="85.7754"
   gradientTransform="matrix(5.830904e-006 -1 1 -0.001 -9.214067e-005 4.449275e-004)">
		<stop
   offset="0.0039"
   style="stop-color:#4F1D1F"
   id="stop63" />
		<stop
   offset="0.2078"
   style="stop-color:#7D5F3C"
   id="stop65" />
		<stop
   offset="0.5569"
   style="stop-color:#B09A68"
   id="stop67" />
		<stop
   offset="0.7412"
   style="stop-color:#EEEDCF"
   id="stop69" />
		<stop
   offset="0.7922"
   style="stop-color:#E7E1AD"
   id="stop71" />
		<stop
   offset="1"
   style="stop-color:#B9A57A"
   id="stop73" />
	</linearGradient>
	<path
   style="fill-rule:evenodd;clip-rule:evenodd;fill:url(#SVGID_4_);"
   d="M146.4,25.15c7.899,7.934,14.033,17.033,18.399,27.3   c4.5,10.633,6.75,21.75,6.75,33.35c0,11.601-2.25,22.717-6.75,33.351c-4.366,10.233-10.5,19.316-18.399,27.25   c-7.934,7.933-17.033,14.066-27.301,18.399c-10.6,4.5-21.717,6.75-33.35,6.75c-11.6,0-22.717-2.25-33.35-6.75   c-10.233-4.366-19.316-10.5-27.25-18.399c-7.933-7.934-14.066-17.017-18.4-27.25C2.25,108.517,0,97.4,0,85.8   c0-11.6,2.25-22.716,6.75-33.35c4.333-10.267,10.467-19.367,18.4-27.3c7.934-7.9,17.017-14.033,27.25-18.4   C63.033,2.25,74.15,0,85.75,0c11.6,0,22.717,2.25,33.35,6.75C129.367,11.117,138.467,17.25,146.4,25.15z"
   id="path75" />
	<g
   id="g77">
		<g
   id="g79">
			
				<linearGradient
   id="SVGID_5_"
   gradientUnits="userSpaceOnUse"
   x1="-158.2856"
   y1="85.7759"
   x2="-13.4355"
   y2="85.7759"
   gradientTransform="matrix(6.906077e-006 -1 1 -0.001 -1.647736e-004 4.449275e-004)">
				<stop
   offset="0.0431"
   style="stop-color:#BAA270"
   id="stop82" />
				<stop
   offset="1"
   style="stop-color:#73624A"
   id="stop84" />
			</linearGradient>
			<path
   style="fill-rule:evenodd;clip-rule:evenodd;fill:url(#SVGID_5_);"
   d="M152.5,57.6c3.8,8.967,5.7,18.367,5.7,28.2     c0,9.834-1.9,19.233-5.7,28.2c-3.667,8.667-8.833,16.333-15.5,23c-6.7,6.667-14.383,11.833-23.05,15.5     c-8.967,3.8-18.367,5.7-28.2,5.7c-9.8,0-19.184-1.9-28.15-5.7c-8.667-3.667-16.35-8.833-23.05-15.5     c-6.667-6.667-11.833-14.333-15.5-23c-3.8-8.967-5.7-18.366-5.7-28.2c0-9.833,1.9-19.233,5.7-28.2     c3.667-8.667,8.833-16.333,15.5-23c6.7-6.7,14.384-11.883,23.05-15.55c8.966-3.8,18.35-5.7,28.15-5.7     c9.833,0,19.233,1.9,28.2,5.7c8.667,3.667,16.35,8.85,23.05,15.55C143.667,41.267,148.833,48.933,152.5,57.6z"
   id="path86" />
		</g>
	</g>
	<g
   id="g88">
		
			<linearGradient
   id="SVGID_6_"
   gradientUnits="userSpaceOnUse"
   x1="-151.9351"
   y1="85.7754"
   x2="-19.7856"
   y2="85.7754"
   gradientTransform="matrix(7.567159e-006 -1 1 -0.001 -1.764781e-004 4.449275e-004)">
			<stop
   offset="0.0353"
   style="stop-color:#722F2A"
   id="stop91" />
			<stop
   offset="0.5843"
   style="stop-color:#E76267"
   id="stop93" />
			<stop
   offset="1"
   style="stop-color:#DCB574"
   id="stop95" />
		</linearGradient>
		<path
   style="fill-rule:evenodd;clip-rule:evenodd;fill:url(#SVGID_6_);"
   d="M85.75,19.7c18.233,0,33.8,6.466,46.7,19.4    C145.383,52,151.85,67.567,151.85,85.8c0,18.2-6.467,33.767-19.399,46.7c-12.9,12.9-28.467,19.35-46.7,19.35    c-18.2,0-33.75-6.449-46.65-19.35C26.167,119.566,19.7,104,19.7,85.8c0-18.233,6.466-33.8,19.4-46.7    C52,26.167,67.55,19.7,85.75,19.7z"
   id="path97" />
		<path
   style="fill-rule:evenodd;clip-rule:evenodd;fill:#470B17;"
   d="M85.75,20.55c-18,0-33.367,6.367-46.1,19.1    C26.883,52.383,20.5,67.767,20.5,85.8c0,18,6.383,33.384,19.15,46.15c12.733,12.733,28.1,19.1,46.1,19.1    c18.033,0,33.417-6.366,46.15-19.1c12.767-12.767,19.149-28.15,19.149-46.15c0-18.033-6.383-33.417-19.149-46.15    C119.167,26.917,103.783,20.55,85.75,20.55z M111.4,23.95c8.133,3.367,15.366,8.2,21.699,14.5    c6.301,6.333,11.15,13.566,14.551,21.7c3.366,8.167,5.05,16.717,5.05,25.65c0,8.9-1.684,17.434-5.05,25.601    c-3.4,8.133-8.25,15.366-14.551,21.699c-6.333,6.334-13.566,11.184-21.699,14.551c-8.134,3.366-16.684,5.05-25.65,5.05    c-8.934,0-17.467-1.684-25.6-5.05c-8.133-3.367-15.367-8.217-21.7-14.551c-6.333-6.333-11.184-13.566-14.55-21.699    c-3.367-8.134-5.05-16.667-5.05-25.601c0-8.966,1.683-17.517,5.05-25.65s8.217-15.367,14.55-21.7    c6.333-6.3,13.566-11.133,21.7-14.5c8.167-3.4,16.7-5.1,25.6-5.1C94.684,18.85,103.233,20.55,111.4,23.95z"
   id="path99" />
	</g>
	
		<use
   xlink:href="#FlashAICB_x2F_Layer_1_x2F__x3C_Path_x3E__x5F_1"
   width="118.7"
   height="118.5"
   y="-118.5"
   transform="matrix(1 0 0 -1 26.3999 24.3999)"
   style="overflow:visible;opacity:0.9102;enable-background:new    ;"
   id="use101" />
	
		<use
   xlink:href="#FlashAICB_x2F_Layer_1_x2F__x3C_Path_x3E_"
   width="118.55"
   height="57.05"
   y="-57.05"
   transform="matrix(1 0 0 -1 26.5 85.8501)"
   style="overflow:visible;opacity:0.4492;enable-background:new    ;"
   id="use103" />
	<g
   id="g105">
		<g
   id="g107">
			<path
   style="fill-rule:evenodd;clip-rule:evenodd;fill:#F7DED7;"
   d="M111,62.25c1.8,0,3.367,0.617,4.7,1.85l5,4.7     c0.967,0.967,1.45,2.083,1.45,3.35c0,1.3-0.483,2.434-1.45,3.4l-5,4.65c-1.333,1.267-2.9,1.9-4.7,1.9H92.85     c-0.033,0.4-0.166,0.783-0.399,1.15l0.25,0.55H111c0.833,0,1.684,0.167,2.55,0.5c0.867,0.367,1.583,0.833,2.15,1.4l5,4.649     c0.967,0.967,1.45,2.101,1.45,3.4c0,1.333-0.483,2.45-1.45,3.35l-5,4.7c-1.333,1.233-2.9,1.851-4.7,1.851H92.4v15.699     c0.3,0.2,0.566,0.517,0.8,0.95c0.267,0.4,0.417,0.8,0.45,1.2l0.05,0.15c0.667,1.166,0.583,2.383-0.25,3.649l1.45,0.9l0.1,0.05     c0.633,0.366,1.35,0.9,2.15,1.6c1.066,0.967,1.55,2.184,1.449,3.65c0,1.1-0.399,2.217-1.199,3.35L95.75,137v0.05l-0.1,0.101     l-0.2,0.3v0.05H95.4l-0.25,0.3L95,138.05l-1.1,0.9l-0.4,0.2c-0.566,0.333-1.117,0.55-1.65,0.649l-0.6,0.101l-2.45,0.05     l-1.25-0.101l-1.45,0.601c-0.8,0.233-1.466,0.35-2,0.35c-0.6,0-1.184-0.1-1.75-0.3l-2.95-1.25l-2.45-0.75l-0.25-0.1l-0.05-0.051     l-0.15-0.05l-0.35-0.2l-0.05-0.05h-0.05l-0.3-0.149l-0.1-0.101l-0.3-0.2l-0.05-0.05l-0.1-0.05l-0.05-0.05l-0.25-0.15l-0.8-0.8     l-0.2-0.25l-0.05-0.05v-0.05L73.8,136.1l-0.95-1.699c-0.467-1-0.434-1.983,0.1-2.95l0.75-1.351h0.05l0.2-0.3L74,129.65l0.55-0.75     l0.05-0.051l0.5-0.6v-0.05l0.1-0.05l0.1-0.101c0.4-0.5,0.817-0.916,1.25-1.25h0.05l0.05-0.05l0.25-0.2l0.05-0.1l0.2-0.101     l0.05-0.05c-0.067-0.399-0.083-0.7-0.05-0.899c0.067-1.167,0.567-2.034,1.5-2.601c-0.3-1-0.133-1.934,0.5-2.8V98.75     c-0.167-0.333-0.25-0.767-0.25-1.3V95.35c0-0.5,0.083-0.916,0.25-1.25V93.4l-0.1-0.2h-18.5c-0.833,0-1.683-0.167-2.55-0.5     c-0.867-0.367-1.6-0.834-2.2-1.4l-4.95-4.649c-0.967-0.9-1.45-2.034-1.45-3.4c0-1.333,0.483-2.45,1.45-3.35l4.95-4.7     c0.6-0.567,1.333-1.017,2.2-1.35c0.867-0.333,1.717-0.5,2.55-0.5H78.9l0.25-0.85v-0.7c-0.167-0.333-0.25-0.75-0.25-1.25v-2.1     c0-0.534,0.083-0.967,0.25-1.3V65.3c0-1.133,0.4-2.083,1.2-2.85c0.767-0.8,1.7-1.2,2.8-1.2h5.2c1,0,1.884,0.333,2.65,1H111z"
   id="path109" />
		</g>
		<g
   id="g111">
			<g
   id="g113">
				
					<linearGradient
   id="SVGID_7_"
   gradientUnits="userSpaceOnUse"
   x1="-140.1333"
   y1="85.7759"
   x2="-60.3823"
   y2="85.7759"
   gradientTransform="matrix(1.253919e-005 -1 1 -0.001 9.267493e-005 4.449275e-004)">
					<stop
   offset="0.2824"
   style="stop-color:#AB3A48"
   id="stop116" />
					<stop
   offset="0.2863"
   style="stop-color:#AB3B48"
   id="stop118" />
					<stop
   offset="0.702"
   style="stop-color:#D88F62"
   id="stop120" />
					<stop
   offset="0.8941"
   style="stop-color:#E9B06C"
   id="stop122" />
				</linearGradient>
				<path
   style="fill-rule:evenodd;clip-rule:evenodd;fill:url(#SVGID_7_);"
   d="M120.75,67.9c1,0.934,1.5,2.083,1.5,3.45      s-0.5,2.517-1.5,3.45l-4.95,4.7c-0.6,0.567-1.35,1.017-2.25,1.35c-0.866,0.367-1.717,0.55-2.55,0.55H92.95      c-0.033,0.233-0.15,0.583-0.351,1.05l0.2,0.4H111c0.833,0,1.684,0.183,2.55,0.55c0.9,0.333,1.65,0.783,2.25,1.35l4.95,4.7      c1,0.934,1.5,2.083,1.5,3.45c0,1.366-0.5,2.517-1.5,3.449l-4.95,4.7c-0.6,0.566-1.35,1.033-2.25,1.4      c-0.866,0.333-1.717,0.5-2.55,0.5H92.55v15.5c0.333,0.333,0.583,0.649,0.75,0.95c0.267,0.399,0.417,0.816,0.45,1.25l0.05,0.1      c0.634,1.167,0.567,2.4-0.2,3.7l1.351,0.8l0.1,0.05c0.867,0.566,1.583,1.117,2.15,1.65c1.1,0.967,1.6,2.217,1.5,3.75      c0,1.066-0.4,2.2-1.2,3.399l-0.1,0.15c-0.101,0.167-0.434,0.6-1,1.3l-0.551,0.7v0.05l-0.1,0.101l-0.2,0.3l-0.75,0.85      c-0.433,0.367-0.717,0.584-0.85,0.65l-0.4,0.25c-0.467,0.267-1.017,0.483-1.649,0.649l-3.15,0.15l-1.2-0.1l-1.399,0.55      c-0.667,0.233-1.351,0.35-2.05,0.35c-0.6,0-1.2-0.1-1.8-0.3l-2.85-1.15l-0.1-0.05c-0.5-0.133-1.25-0.366-2.25-0.7l-0.2-0.1      l-0.3-0.1l-0.15-0.101c-0.233-0.1-0.35-0.166-0.35-0.2l-0.15-0.05l-0.25-0.149l-0.15-0.051l-1.15-0.949l-0.25-0.301l-0.15-0.1      l-0.2-0.25l-0.1-0.2l-0.1-0.1l-0.45-0.8l-0.05-0.051l-0.35-0.75c-0.467-1-0.434-2.017,0.1-3.05l0.6-1.1l0.3-0.4l0.05-0.149      l0.1-0.101l0.55-0.8l0.05-0.05l0.5-0.601l0.1-0.1l0.1-0.15l1.35-1.3l0.25-0.2l0.1-0.05l0.15-0.149L77,124.55      c0.1-1.133,0.6-2.017,1.5-2.649c-0.267-0.967-0.1-1.884,0.5-2.75V97.9c-0.167-0.4-0.25-0.817-0.25-1.25V94.5      c0-0.4,0.1-0.833,0.3-1.3L79,92.55V92.5H60.55c-1.833,0-3.433-0.634-4.8-1.9l-4.95-4.7c-1-0.9-1.5-2.05-1.5-3.45      c0-1.367,0.5-2.534,1.5-3.5l4.95-4.65c1.333-1.267,2.934-1.9,4.8-1.9H78.8l0.25-0.75L79,71c-0.167-0.433-0.25-0.867-0.25-1.3      v-2.1c0-0.467,0.1-0.9,0.3-1.3L79,64.45c0-1.133,0.417-2.117,1.25-2.95c0.8-0.8,1.767-1.2,2.9-1.2h5.2      c1.033,0,1.934,0.333,2.7,1H111c0.833,0,1.684,0.167,2.55,0.5c0.9,0.367,1.65,0.833,2.25,1.4L120.75,67.9z"
   id="path124" />
				<path
   style="fill-rule:evenodd;clip-rule:evenodd;fill:none;stroke:#F7E0E7;stroke-width:0.25;"
   d="M92.55,102.95v15.5      c0.333,0.333,0.583,0.649,0.75,0.95c0.267,0.399,0.417,0.816,0.45,1.25l0.05,0.1c0.634,1.167,0.567,2.4-0.2,3.7l1.351,0.8      l0.1,0.05c0.867,0.566,1.583,1.117,2.15,1.65c1.1,0.967,1.6,2.217,1.5,3.75c0,1.066-0.4,2.2-1.2,3.399l-0.1,0.15      c-0.101,0.167-0.434,0.6-1,1.3l-0.551,0.7v0.05l-0.1,0.101l-0.2,0.3l-0.75,0.85c-0.433,0.367-0.717,0.584-0.85,0.65l-0.4,0.25      c-0.467,0.267-1.017,0.483-1.649,0.649l-3.15,0.15l-1.2-0.1l-1.399,0.55c-0.667,0.233-1.351,0.35-2.05,0.35      c-0.6,0-1.2-0.1-1.8-0.3l-2.85-1.15l-0.1-0.05c-0.5-0.133-1.25-0.366-2.25-0.7l-0.2-0.1l-0.3-0.1l-0.15-0.101      c-0.233-0.1-0.35-0.166-0.35-0.2l-0.15-0.05l-0.25-0.149l-0.15-0.051l-1.15-0.949l-0.25-0.301l-0.15-0.1l-0.2-0.25l-0.1-0.2      l-0.1-0.1l-0.45-0.8l-0.05-0.051l-0.35-0.75c-0.467-1-0.434-2.017,0.1-3.05l0.6-1.1l0.3-0.4l0.05-0.149l0.1-0.101l0.55-0.8      l0.05-0.05l0.5-0.601l0.1-0.1l0.1-0.15l1.35-1.3l0.25-0.2l0.1-0.05l0.15-0.149L77,124.55c0.1-1.133,0.6-2.017,1.5-2.649      c-0.267-0.967-0.1-1.884,0.5-2.75V97.9c-0.167-0.4-0.25-0.817-0.25-1.25V94.5c0-0.4,0.1-0.833,0.3-1.3L79,92.55V92.5H60.55      c-1.833,0-3.433-0.634-4.8-1.9l-4.95-4.7c-1-0.9-1.5-2.05-1.5-3.45c0-1.367,0.5-2.534,1.5-3.5l4.95-4.65      c1.333-1.267,2.934-1.9,4.8-1.9H78.8l0.25-0.75L79,71c-0.167-0.433-0.25-0.867-0.25-1.3v-2.1c0-0.467,0.1-0.9,0.3-1.3L79,64.45      c0-1.133,0.417-2.117,1.25-2.95c0.8-0.8,1.767-1.2,2.9-1.2h5.2c1.033,0,1.934,0.333,2.7,1H111c0.833,0,1.684,0.167,2.55,0.5      c0.9,0.367,1.65,0.833,2.25,1.4l4.95,4.7c1,0.934,1.5,2.083,1.5,3.45s-0.5,2.517-1.5,3.45l-4.95,4.7      c-0.6,0.567-1.35,1.017-2.25,1.35c-0.866,0.367-1.717,0.55-2.55,0.55H92.95c-0.033,0.233-0.15,0.583-0.351,1.05l0.2,0.4H111      c0.833,0,1.684,0.183,2.55,0.55c0.9,0.333,1.65,0.783,2.25,1.35l4.95,4.7c1,0.934,1.5,2.083,1.5,3.45      c0,1.366-0.5,2.517-1.5,3.449l-4.95,4.7c-0.6,0.566-1.35,1.033-2.25,1.4c-0.866,0.333-1.717,0.5-2.55,0.5"
   id="path126" />
			</g>
		</g>
		<path
   style="fill-rule:evenodd;clip-rule:evenodd;fill:#4A5C57;"
   d="M111,64.25c1.033,0,1.95,0.367,2.75,1.1l5,4.7    c0.367,0.3,0.55,0.733,0.55,1.3c0,0.5-0.183,0.933-0.55,1.3l-5,4.7c-0.8,0.733-1.717,1.1-2.75,1.1H91.25    c-0.733,0-1.3-0.35-1.7-1.05v0.8c0.333,0,0.5,0.167,0.5,0.5v2.1c0,0.333-0.167,0.5-0.5,0.5v2.3c0.333,0,0.5,0.15,0.5,0.45v2.25    c0.333-0.333,0.733-0.5,1.2-0.5H111c1.033,0,1.95,0.367,2.75,1.101l5,4.699c0.367,0.367,0.55,0.801,0.55,1.301    s-0.183,0.933-0.55,1.3l-5,4.7c-0.8,0.733-1.717,1.1-2.75,1.1H91.25c-0.733,0-1.3-0.35-1.7-1.05v22.1l0.3-0.3    c0.167-0.1,0.334-0.15,0.5-0.15c0.167,0.067,0.301,0.167,0.4,0.301c0.133,0.166,0.117,0.483-0.05,0.949    c0.233,0,0.399,0.101,0.5,0.301c0.133,0.233,0.066,0.533-0.2,0.899l-0.05,0.05c-0.233,0.5-0.45,1.15-0.65,1.95l-0.25,1.05    c0.767,0.2,1.517,0.534,2.25,1l1.2,0.7c0.667,0.434,1.25,0.884,1.75,1.351c0.4,0.333,0.566,0.8,0.5,1.399    c0,0.601-0.233,1.233-0.7,1.9v0.05l-1.45,1.8l-0.25,0.45l-0.149,0.1v0.051l-0.05,0.05l-0.2,0.25l-0.05,0.1l-0.101,0.05l-0.45,0.4    L92.2,135.8c-0.333,0.233-0.65,0.367-0.95,0.4l-2.35,0.1l-1.2-0.1h-0.2c-0.367,0-0.617,0.033-0.75,0.1l-1.6,0.601    c-0.3,0.133-0.65,0.199-1.05,0.199c-0.267,0-0.534-0.05-0.8-0.149c-0.2-0.033-0.75-0.267-1.65-0.7c-0.7-0.3-1.216-0.483-1.55-0.55    c-0.667-0.167-1.333-0.384-2-0.65l-0.25-0.1H77.8l-0.1-0.05l-0.2-0.15h-0.05l-0.3-0.15L77,134.45h-0.05l-0.2-0.2l-0.15-0.05    l0.05-0.05h-0.1V134.1l-0.4-0.399v-0.05L76,133.5l-0.3-0.5v-0.05l-0.3-0.55c-0.066-0.167-0.05-0.317,0.05-0.45l0.3-0.601l0.1-0.1    l0.25-0.45l0.05-0.05v-0.05l0.15-0.2h0.05v-0.05l0.45-0.65l0.05-0.05l0.4-0.5l1.15-1.15h0.05l0.15-0.1l0.2-0.2l0.45-0.3h0.05    l0.1-0.1l0.15-0.051l0.15-0.1l0.15-0.05c0.066-0.533,0.333-0.9,0.8-1.101c0.267-0.166,0.567-0.25,0.9-0.25v-0.05    c-0.133-0.166-0.333-0.283-0.6-0.35l-0.55-0.15c-0.3-0.1-0.45-0.283-0.45-0.55c0-0.3,0.167-0.467,0.5-0.5l0.5-0.05l1,0.149v-0.899    c-0.233-0.3-0.284-0.584-0.15-0.851l0.1-0.149l-0.5-1.2c-0.133-0.2-0.1-0.366,0.1-0.5c0.133-0.134,0.283-0.167,0.45-0.1V97.05    c-0.167-0.066-0.25-0.2-0.25-0.399V94.5c0-0.167,0.083-0.3,0.25-0.4V91.7c-0.167-0.066-0.25-0.2-0.25-0.4v-2.1    c0-0.2,0.083-0.351,0.25-0.45v-0.3c-0.333,0.7-0.884,1.05-1.65,1.05H60.55c-1.1,0-2.033-0.35-2.8-1.05l-4.95-4.7    c-0.366-0.367-0.55-0.8-0.55-1.3c0-0.534,0.184-0.983,0.55-1.35l4.95-4.65c0.333-0.3,0.767-0.55,1.3-0.75    c0.567-0.233,1.067-0.35,1.5-0.35H80.3c0.767,0,1.317,0.35,1.65,1.05v-0.9c-0.167-0.1-0.25-0.25-0.25-0.45v-2.1    c0-0.2,0.083-0.333,0.25-0.4v-2.4c-0.167-0.1-0.25-0.25-0.25-0.45v-2.1c0-0.2,0.083-0.333,0.25-0.4v-2.75    c0-0.333,0.116-0.617,0.35-0.85s0.517-0.35,0.85-0.35h5.2c0.334,0,0.617,0.117,0.851,0.35s0.35,0.517,0.35,0.85v0.85    c0.4-0.7,0.967-1.05,1.7-1.05H111z M89.55,86.85V86.65L89.7,86.6L89.55,86.85l0.15-0.25l-0.15,0.051V86.85z"
   id="path128" />
		<path
   style="fill-rule:evenodd;clip-rule:evenodd;fill:none;stroke:#470B17;"
   d="M111,64.25H91.25c-0.733,0-1.3,0.35-1.7,1.05    v-0.85c0-0.333-0.116-0.617-0.35-0.85s-0.517-0.35-0.851-0.35h-5.2c-0.333,0-0.617,0.117-0.85,0.35s-0.35,0.517-0.35,0.85v2.75    c-0.167,0.066-0.25,0.2-0.25,0.4v2.1c0,0.2,0.083,0.35,0.25,0.45v2.4c-0.167,0.067-0.25,0.2-0.25,0.4v2.1    c0,0.2,0.083,0.35,0.25,0.45v0.9c-0.333-0.7-0.884-1.05-1.65-1.05H60.55c-0.433,0-0.933,0.117-1.5,0.35    c-0.533,0.2-0.966,0.45-1.3,0.75L52.8,81.1c-0.366,0.367-0.55,0.816-0.55,1.35c0,0.5,0.184,0.933,0.55,1.3l4.95,4.7    c0.767,0.7,1.7,1.05,2.8,1.05H80.3c0.767,0,1.317-0.35,1.65-1.05v0.3c-0.167,0.1-0.25,0.25-0.25,0.45v2.1    c0,0.2,0.083,0.334,0.25,0.4V94.1c-0.167,0.101-0.25,0.233-0.25,0.4v2.15c0,0.199,0.083,0.333,0.25,0.399v23.601    c-0.167-0.067-0.317-0.034-0.45,0.1c-0.2,0.134-0.233,0.3-0.1,0.5l0.5,1.2l-0.1,0.149c-0.133,0.267-0.083,0.551,0.15,0.851v0.899    l-1-0.149l-0.5,0.05c-0.333,0.033-0.5,0.2-0.5,0.5c0,0.267,0.15,0.45,0.45,0.55l0.55,0.15c0.267,0.066,0.466,0.184,0.6,0.35v0.05    c-0.333,0-0.633,0.084-0.9,0.25c-0.466,0.2-0.733,0.567-0.8,1.101l-0.15,0.05l-0.15,0.1L79.4,127.4l-0.1,0.1h-0.05l-0.45,0.3    l-0.2,0.2l-0.15,0.1H78.4l-1.15,1.15l-0.4,0.5l-0.05,0.05l-0.45,0.65v0.05H76.3l-0.15,0.2v0.05l-0.05,0.05l-0.25,0.45l-0.1,0.1    l-0.3,0.601c-0.1,0.133-0.117,0.283-0.05,0.45l0.3,0.55V133l0.3,0.5l0.15,0.15v0.05l0.4,0.399v0.051h0.1l-0.05,0.05l0.15,0.05    l0.2,0.2H77l0.15,0.149l0.3,0.15h0.05l0.2,0.15l0.1,0.05h0.05l0.25,0.1c0.667,0.267,1.333,0.483,2,0.65    c0.333,0.066,0.85,0.25,1.55,0.55c0.9,0.434,1.45,0.667,1.65,0.7c0.267,0.1,0.534,0.149,0.8,0.149c0.4,0,0.75-0.066,1.05-0.199    l1.6-0.601c0.133-0.066,0.383-0.1,0.75-0.1h0.2l1.2,0.1l2.35-0.1c0.3-0.033,0.617-0.167,0.95-0.4l0.149-0.05l0.45-0.4l0.101-0.05    l0.05-0.1l0.2-0.25l0.05-0.05v-0.051l0.149-0.1l0.25-0.45l1.45-1.8v-0.05c0.467-0.667,0.7-1.3,0.7-1.9    c0.066-0.6-0.1-1.066-0.5-1.399c-0.5-0.467-1.083-0.917-1.75-1.351l-1.2-0.7c-0.733-0.466-1.483-0.8-2.25-1l0.25-1.05    c0.2-0.8,0.417-1.45,0.65-1.95l0.05-0.05c0.267-0.366,0.333-0.666,0.2-0.899c-0.101-0.2-0.267-0.301-0.5-0.301    c0.167-0.466,0.183-0.783,0.05-0.949c-0.1-0.134-0.233-0.233-0.4-0.301c-0.166,0-0.333,0.051-0.5,0.15l-0.3,0.3v-22.1    c0.4,0.7,0.967,1.05,1.7,1.05H111c1.033,0,1.95-0.366,2.75-1.1l5-4.7c0.367-0.367,0.55-0.8,0.55-1.3s-0.183-0.934-0.55-1.301    l-5-4.699c-0.8-0.733-1.717-1.101-2.75-1.101H91.25c-0.467,0-0.867,0.167-1.2,0.5v-2.25c0-0.3-0.167-0.45-0.5-0.45v-2.3    c0.333,0,0.5-0.167,0.5-0.5v-2.1c0-0.333-0.167-0.5-0.5-0.5v-0.8c0.4,0.7,0.967,1.05,1.7,1.05H111c1.033,0,1.95-0.367,2.75-1.1    l5-4.7c0.367-0.367,0.55-0.8,0.55-1.3c0-0.567-0.183-1-0.55-1.3l-5-4.7C112.95,64.617,112.033,64.25,111,64.25z M89.55,86.85    V86.65L89.7,86.6L89.55,86.85z"
   id="path130" />
		<g
   id="g132">
			<g
   id="g134">
				<path
   style="fill-rule:evenodd;clip-rule:evenodd;fill:#7A674C;"
   d="M88.9,126.35c1.066,0.101,2.116,0.483,3.149,1.15l1.2,0.7      c0.667,0.467,1.233,0.899,1.7,1.3c0.533,0.5,0.45,1.283-0.25,2.35l-1.5,1.801c-0.467,0.966-1.134,1.55-2,1.75l-2.25,0.05      l-1.2-0.101c-0.467,0-0.85,0.051-1.15,0.15l-1.55,0.65c-0.566,0.199-1.1,0.216-1.6,0.05l-1.6-0.7      c-0.633-0.3-1.184-0.517-1.65-0.65c-0.534-0.1-1.184-0.3-1.95-0.6l-1.4-0.5l-0.45-0.5l-0.55-1.05c0.9-1.634,1.833-2.867,2.8-3.7      c0.934-0.733,2.034-1.25,3.3-1.55c0.633-0.134,2.033-0.316,4.2-0.55c1.066-0.134,1.85-0.2,2.35-0.2L88.9,126.35z"
   id="path136" />
				<path
   style="fill-rule:evenodd;clip-rule:evenodd;fill:#837053;"
   d="M94.9,129.85c0.566,0.534,0.482,1.317-0.25,2.351L93.2,134      c-0.134,0.366-0.351,0.684-0.65,0.95c-0.233-0.233-0.399-0.467-0.5-0.7c-0.467-0.9-0.566-1.8-0.3-2.7      c0-0.133,0.184-0.483,0.55-1.05c0.2-0.4,0.3-0.85,0.3-1.35c0-0.301-0.1-0.551-0.3-0.75l-0.399-0.5l-0.101-0.2l0.2,0.149l1.2,0.7      C93.867,129.017,94.434,129.45,94.9,129.85z"
   id="path138" />
				<path
   style="fill-rule:evenodd;clip-rule:evenodd;fill:#8D795A;"
   d="M88.3,126.4l0.05,0.5c0,0.699-0.1,1.267-0.3,1.699      c-0.1,0.2-0.183,0.317-0.25,0.351c-0.033,0.066-0.133,0.066-0.3,0c-0.2-0.101-0.4-0.467-0.6-1.101      c-0.167-0.399-0.217-0.767-0.15-1.1l0.1-0.45l1.2-0.1L88.3,126.4z"
   id="path140" />
				<path
   style="fill-rule:evenodd;clip-rule:evenodd;fill:#78654B;"
   d="M94.9,129.85c0.566,0.534,0.482,1.317-0.25,2.351L93.2,134      c-0.367,0.667-0.75,1.116-1.15,1.35c-0.3-0.466-0.533-0.916-0.7-1.35l-1.05-3.3c0.167-0.033,0.367,0.017,0.601,0.149l0.6,0.25      c0.533,0.167,0.983,0.25,1.35,0.25l0.101-0.699l0.75,0.05c0.267,0.033,0.517-0.017,0.75-0.15c0.033-0.233,0-0.483-0.101-0.75      l-0.25-0.649L94.9,129.85z"
   id="path142" />
				<path
   style="fill-rule:evenodd;clip-rule:evenodd;fill:#998463;"
   d="M89,127.7l0.55,0.7c0.267,0.133,0.517,0.199,0.75,0.199      l0.75,0.101c0.267,0.1,0.617,0.333,1.05,0.7c0.567,0.433,0.917,0.683,1.051,0.75l0.3,0.149L94,131      c0.066,0.333,0.3,0.717,0.7,1.15L93.2,134c-0.467,0.967-1.15,1.55-2.05,1.75l-2.25,0.05l-1.15-0.1      c-0.467,0-0.85,0.05-1.15,0.149L85,136.45c-0.6,0.2-1.117,0.233-1.55,0.1l-1.6-0.7c-0.633-0.3-1.184-0.517-1.65-0.649      c-0.534-0.101-1.184-0.3-1.95-0.601l-0.15-0.05l-0.05-0.05c-0.466-0.333-0.8-0.533-1-0.6H77l-0.2-0.2l-0.1-0.2h-0.1l-0.1-0.2      l-0.4-0.55l-0.25-0.55c0.9-1.634,1.833-2.867,2.8-3.7c0.534-0.4,0.95-0.667,1.25-0.8l0.3-0.05l0.55-0.351l1.2-0.35      c0.633-0.134,2.033-0.316,4.2-0.55l0.399-0.051l0.601,0.301l1.199,0.75L89,127.7z"
   id="path144" />
				<path
   style="fill-rule:evenodd;clip-rule:evenodd;fill:#917D5D;"
   d="M92.3,130.25L92.2,130l0.149,0.1L92.2,129.7      c0.267,0.267,0.45,0.399,0.55,0.399l0.2-0.05l0.5,0.25L94,131c0.066,0.333,0.3,0.717,0.7,1.15L93.2,134      c-0.467,0.967-1.15,1.55-2.05,1.75l-2.25,0.05l-1.15-0.1c-0.467,0-0.85,0.05-1.15,0.149L85,136.45      c-0.6,0.2-1.117,0.233-1.55,0.1l-1.6-0.7c-0.633-0.3-1.184-0.517-1.65-0.649c-0.534-0.101-1.184-0.3-1.95-0.601h-0.1      c-0.8-0.399-1.383-0.85-1.75-1.35l-0.55-1.05c0.566-1.033,1.167-1.934,1.8-2.7c0.067,0,0.133,0.083,0.2,0.25      c0.066,0.467,0.133,0.733,0.2,0.8c0.034,0.033,0.134,0.066,0.3,0.101c0.167,0.1,0.25,0.183,0.25,0.25l-0.4,0.8      c0.133,0.033,0.2,0.217,0.2,0.55c0.034,0.033,0.167,0.017,0.4-0.05v0.3l0.65-0.5c0.3-0.134,0.433,0.066,0.4,0.6      c0.1-0.066,0.233,0.017,0.4,0.25s0.25,0.417,0.25,0.551l0.5,0.05l0.4,0.45c0.034,0.033,0.133,0,0.3-0.101      c0.167-0.033,0.267-0.033,0.3,0c0.1,0.033,0.167,0.15,0.2,0.351v0.1l0.1,0.15c0,0.033,0.067,0.05,0.2,0.05h0.25L83,134.35      c0.066-0.066,0.1-0.199,0.1-0.399c0.233,0.133,0.433,0.066,0.6-0.2c0.162-0.195,0.162-0.578,0-1.15      c0.062,0.156,0.245,0.356,0.55,0.601c0.2,0.267,0.283,0.6,0.25,1h0.75c0.367,0,0.633,0.066,0.8,0.2c0-0.233,0.05-0.4,0.15-0.5      c0.1-0.067,0.183-0.067,0.25,0v-0.45c0.1,0,0.2,0.05,0.3,0.149l0.3,0.15c-0.066-0.333-0.017-0.5,0.15-0.5      c0.066,0,0.183,0.083,0.35,0.25V133c0.934,0.533,1.667,0.866,2.2,1c0.066-0.4,0.017-0.884-0.15-1.45      c-0.133-0.5-0.316-0.883-0.55-1.149c0.167,0,0.483,0.233,0.95,0.699c0.4,0.334,0.733,0.434,1,0.301l0.1,0.25v-0.801      c0.134,0,0.233,0.034,0.301,0.101c0.133,0.066,0.217,0.083,0.25,0.05c0-0.233-0.067-0.483-0.2-0.75l-0.351-0.6      c0.334,0.066,0.733,0.35,1.2,0.85c-0.033-0.366-0.267-0.767-0.7-1.2L90.7,129.4l0.8,0.5C91.8,130.2,92.066,130.316,92.3,130.25z      "
   id="path146" />
				<path
   style="fill-rule:evenodd;clip-rule:evenodd;fill:#8B7759;"
   d="M93.4,130.85c-0.134-0.199-0.2-0.366-0.2-0.5l0.35,0.101      L94,131c0.066,0.333,0.3,0.717,0.7,1.15L93.2,134c-0.467,0.967-1.15,1.55-2.05,1.75l-2.25,0.05l-1.15-0.1      c-0.467,0-0.85,0.05-1.15,0.149L85,136.45c-0.6,0.2-1.117,0.233-1.55,0.1l-1.6-0.7c-0.633-0.3-1.184-0.517-1.65-0.649      c-0.534-0.101-1.184-0.3-1.95-0.601H78.2c-0.8-0.366-1.4-0.816-1.8-1.35l-0.55-1.05l0.85-1.45c0.2-0.066,0.333-0.15,0.4-0.25      c0.133-0.1,0.316-0.283,0.55-0.55c0.067-0.033,0.184-0.05,0.35-0.05c0.167,0.033,0.267,0.083,0.3,0.149      c0.167,0.267,0.167,0.566,0,0.9c-0.066,0.2-0.2,0.483-0.4,0.85l-0.15,1.05l-0.35,0.9c0.133,0.134,0.25,0.116,0.35-0.05      l0.35-0.25v0.45c0.167,0.1,0.3,0.033,0.4-0.2c0.133-0.2,0.233-0.434,0.3-0.7c0.067,0.434,0.2,0.467,0.4,0.1      c0.267-0.6,0.433-0.899,0.5-0.899l-0.35,2.05c0,0.434,0.083,0.6,0.25,0.5l0.5-0.35c0.033,0.3,0.1,0.5,0.2,0.6      c0.134,0.033,0.267-0.017,0.4-0.15c0,0.301,0.05,0.467,0.15,0.5l0.35-0.05l0.15,0.101c0.1,0.033,0.167,0.033,0.2,0l0.1-0.15      l0.2-0.15c0,0.134,0.083,0.233,0.25,0.301l0.3,0.149c0-0.3,0.083-0.399,0.25-0.3l0.4,0.25l0.45,0.05l0.25-0.45l0.15-0.55l0.1,1      c0.066,0.267,0.217,0.316,0.45,0.15l0.3-0.3c0.066-0.067,0.167-0.034,0.3,0.1c0-0.3,0.067-0.366,0.2-0.2      c0.2,0.267,0.333,0.267,0.4,0l0.55,0.05l0.55-0.1v-0.6c0.233-0.034,0.566,0.133,1,0.5c0.1-0.534,0.1-0.95,0-1.25      c0.267,0.566,0.617,0.983,1.05,1.25c0.5,0.366,0.833,0.366,1,0c0.167-0.434,0.15-0.934-0.05-1.5c0-0.267-0.066-0.7-0.2-1.301      c-0.167-0.466-0.333-0.783-0.5-0.949c0.134,0,0.384,0.149,0.75,0.449c0.233,0.267,0.45,0.45,0.65,0.551l0.1,0.35l0.5,1.05      l0.15,0.5c0.066,0.2,0.149,0.3,0.25,0.3l0.05-0.649l-0.1-0.65c0.1,0.167,0.25,0.334,0.449,0.5      c0.233,0.167,0.417,0.25,0.551,0.25c0.066-0.8,0.083-1.3,0.05-1.5l0.399-0.05l0.351,0.1c0-0.267-0.083-0.517-0.25-0.75      L92.5,131.4c0.066-0.067,0.217-0.051,0.45,0.05l0.45,0.3L93.1,131.2l0.5,0.1C93.6,131.2,93.533,131.05,93.4,130.85z"
   id="path148" />
				<path
   style="fill-rule:evenodd;clip-rule:evenodd;fill:#7F6C4F;"
   d="M90.9,132.55c0.066,0.033,0.133,0.167,0.199,0.4      c0.067,0.233,0.067,0.316,0,0.25c-0.1-0.134-0.166-0.184-0.199-0.15v0.351l-0.25-0.601l-0.25-0.35L90.9,132.55z"
   id="path150" />
				<path
   style="fill-rule:evenodd;clip-rule:evenodd;fill:#7F6C4F;"
   d="M92.9,130.95c0.199,0,0.3,0.1,0.3,0.3      c-0.167-0.066-0.283-0.066-0.351,0l0.2,0.35l0.101,0.4c-0.268-0.233-0.467-0.35-0.601-0.35c0,0.133,0.033,0.25,0.101,0.35      l0.05,0.4l-0.25-0.101l-0.101-0.35l-0.199-0.2c-0.123-0.03-0.148-0.105-0.075-0.225c0.033-0.009,0.075,0,0.125,0.024      c-0.033-0.1-0.033-0.217,0-0.35l0.149-0.05c-0.066-0.101-0.066-0.184,0-0.25c0.033-0.067,0.084-0.101,0.15-0.101      C92.533,130.934,92.667,130.983,92.9,130.95z"
   id="path152" />
				<path
   style="fill-rule:evenodd;clip-rule:evenodd;fill:#7F6C4F;"
   d="M93.2,130.6c0.267-0.066,0.433-0.017,0.5,0.15V131      l-0.05,0.15c-0.033,0.1-0.117,0.05-0.25-0.15L93.2,130.6z"
   id="path154" />
				<path
   style="fill-rule:evenodd;clip-rule:evenodd;fill:#A79273;"
   d="M79.6,127.85h0.15c0,0.167-0.05,0.25-0.15,0.25      s-0.15-0.033-0.15-0.1l0.05-0.1L79.6,127.85z"
   id="path156" />
				<path
   style="fill-rule:evenodd;clip-rule:evenodd;fill:#A79273;"
   d="M79.95,128l-0.05,0.05c0.1,0,0.133,0.05,0.1,0.15      c-0.066,0.066-0.117,0.066-0.15,0v-0.15L79.95,128z"
   id="path158" />
				<path
   style="fill-rule:evenodd;clip-rule:evenodd;fill:#A79273;"
   d="M81.45,127.1l0.5-0.149l0.6-0.101      c0.067,0.101,0.067,0.2,0,0.301l-0.4,0.1l-0.2,0.15l-0.4,0.05l0.2-0.4L81.45,127.1z"
   id="path160" />
				<path
   style="fill-rule:evenodd;clip-rule:evenodd;fill:#A79273;"
   d="M82.75,127l0.1,0.05c0.066-0.033,0.1,0.017,0.1,0.15      C82.684,127.2,82.617,127.134,82.75,127z"
   id="path162" />
				<path
   style="fill-rule:evenodd;clip-rule:evenodd;fill:#A79273;"
   d="M84.55,126.55c0.2,0.033,0.233,0.101,0.1,0.2l-0.25,0.05      c-0.133,0-0.2-0.017-0.2-0.05v-0.15L84.55,126.55z"
   id="path164" />
				<path
   style="fill-rule:evenodd;clip-rule:evenodd;fill:#A79273;"
   d="M84.25,126.9l-0.05,0.05c0.233,0.033,0.316,0.133,0.25,0.3      c-0.067,0.1-0.15,0.134-0.25,0.1L84,127.2l0.1-0.2L84.25,126.9z"
   id="path166" />
				<path
   style="fill-rule:evenodd;clip-rule:evenodd;fill:#A79273;"
   d="M83.5,127.05h0.1c0,0.167-0.05,0.2-0.15,0.101L83.5,127.05z      "
   id="path168" />
				<path
   style="fill-rule:evenodd;clip-rule:evenodd;fill:#A79273;"
   d="M85.7,128.05c0.167,0.334,0,0.467-0.5,0.4l-0.35,0.1      c-0.133,0-0.2-0.083-0.2-0.25c-0.133,0-0.2-0.05-0.2-0.149l0.3-0.051H84.6c0-0.066,0.05-0.1,0.15-0.1l0.15,0.05l0.25-0.1      c0.066-0.066,0.149-0.066,0.25,0C85.533,127.95,85.633,127.983,85.7,128.05z"
   id="path170" />
				<path
   style="fill-rule:evenodd;clip-rule:evenodd;fill:#A79273;"
   d="M85.9,127.8c0.3,0.033,0.383,0.101,0.25,0.2      c-0.167,0.167-0.283,0.15-0.351-0.05L85.9,127.8z"
   id="path172" />
				<path
   style="fill-rule:evenodd;clip-rule:evenodd;fill:#A79273;"
   d="M87.3,127.25l-0.25,0.15l0.45-0.15      c0.233,0,0.333,0.116,0.3,0.35c0,0.2-0.149,0.301-0.45,0.301c-0.267,0.033-0.383-0.067-0.35-0.301l-0.3-0.05      c0.066-0.166,0.167-0.25,0.3-0.25L87.3,127.25z"
   id="path174" />
				<path
   style="fill-rule:evenodd;clip-rule:evenodd;fill:#A79273;"
   d="M86.6,128.1l-0.1-0.05l0.35,0.15c0.167,0.1,0.167,0.2,0,0.3      c0,0.066-0.066,0.066-0.199,0c-0.134-0.033-0.217-0.1-0.25-0.2C86.4,128.134,86.467,128.066,86.6,128.1z"
   id="path176" />
				<path
   style="fill-rule:evenodd;clip-rule:evenodd;fill:#A79273;"
   d="M83.95,130.3c-0.034-0.066-0.017-0.184,0.05-0.35l0.15-0.15      c-0.1,0.066-0.216,0.066-0.35,0c0-0.267,0.117-0.45,0.35-0.55h1.1c0.267,0.066,0.383,0.217,0.35,0.45      c-0.066,0.2-0.199,0.333-0.399,0.399l-0.85,0.25C84.15,130.384,84.017,130.366,83.95,130.3z"
   id="path178" />
				<path
   style="fill-rule:evenodd;clip-rule:evenodd;fill:#A79273;"
   d="M83.4,130.45l0.05-0.05l0.2,0.05c0,0.133-0.033,0.2-0.1,0.2      h-0.2L83.4,130.45z"
   id="path180" />
				<path
   style="fill-rule:evenodd;clip-rule:evenodd;fill:#A79273;"
   d="M84.2,130.7l-0.15,0.1l0.4-0.05      c0.133-0.033,0.267-0.017,0.4,0.05L84.8,131l-0.1,0.05c-0.3,0.101-0.567,0.084-0.8-0.05C83.967,130.8,84.066,130.7,84.2,130.7z"
   id="path182" />
				<path
   style="fill-rule:evenodd;clip-rule:evenodd;fill:#A79273;"
   d="M80.95,130.35c-0.367,0.167-0.617,0.217-0.75,0.15      c0-0.167,0.083-0.25,0.25-0.25l0.35,0.05c0.233-0.066,0.317-0.033,0.25,0.101c-0.066,0.133-0.1,0.166-0.1,0.1V130.35z"
   id="path184" />
				<polygon
   style="fill-rule:evenodd;clip-rule:evenodd;fill:#A79273;"
   points="79.7,130.35 79.75,130.35 79.95,130.4 79.95,130.6       79.7,130.65 79.5,130.55     "
   id="polygon186" />
				<path
   style="fill-rule:evenodd;clip-rule:evenodd;fill:#A79273;"
   d="M82.9,131.4l-0.2-0.101c0.267,0,0.417,0.017,0.45,0.05      c0.034,0.167-0.033,0.284-0.2,0.351c-0.134,0.033-0.233,0.017-0.3-0.05c-0.066-0.067-0.066-0.15,0-0.25H82.9z"
   id="path188" />
				<path
   style="fill-rule:evenodd;clip-rule:evenodd;fill:#A79273;"
   d="M88.85,128.2l-0.1,0.25c-0.033,0.133-0.167,0.2-0.4,0.2      c-0.199-0.034-0.25-0.15-0.149-0.351H88.1c-0.1,0-0.149-0.05-0.149-0.149c0.1-0.134,0.267-0.2,0.5-0.2L88.9,128h-0.15      C88.816,128.002,88.85,128.068,88.85,128.2z"
   id="path190" />
				<path
   style="fill-rule:evenodd;clip-rule:evenodd;fill:#A79273;"
   d="M89.55,129.4l-0.35,0.149c-0.2,0.2-0.351,0.25-0.45,0.15      c-0.066-0.101-0.033-0.2,0.1-0.3l0.2-0.301c-0.033-0.133,0.017-0.233,0.15-0.3l0.35-0.2v0.15c0.167,0,0.217,0.083,0.15,0.25      C89.7,129.233,89.65,129.366,89.55,129.4z"
   id="path192" />
				<path
   style="fill-rule:evenodd;clip-rule:evenodd;fill:#A79273;"
   d="M89.4,129.65l-0.101,0.1c0.033,0.033,0.033,0.116,0,0.25      c-0.066,0.233-0.183,0.283-0.35,0.15c-0.101-0.101-0.067-0.2,0.1-0.301L89.4,129.65z"
   id="path194" />
				<path
   style="fill-rule:evenodd;clip-rule:evenodd;fill:#A79273;"
   d="M88.6,130.35c0.167,0,0.217,0.051,0.15,0.15      c0,0.066-0.05,0.1-0.15,0.1c-0.1,0-0.149-0.05-0.149-0.149C88.45,130.35,88.5,130.316,88.6,130.35z"
   id="path196" />
				<path
   style="fill-rule:evenodd;clip-rule:evenodd;fill:#A79273;"
   d="M89.2,130.55l-0.05-0.149c0.166,0,0.199,0.083,0.1,0.25      c-0.066,0.166-0.15,0.166-0.25,0C89.066,130.55,89.133,130.517,89.2,130.55z"
   id="path198" />
				<path
   style="fill-rule:evenodd;clip-rule:evenodd;fill:#A79273;"
   d="M89.55,129.8h0.05c0.033,0.066,0.033,0.117,0,0.15      s-0.066,0.033-0.1,0L89.55,129.8z"
   id="path200" />
				<path
   style="fill-rule:evenodd;clip-rule:evenodd;fill:#A79273;"
   d="M89.9,130.05l0.3,0.05c-0.033,0.301-0.184,0.5-0.45,0.601      c-0.233,0.133-0.4,0.1-0.5-0.101l0.2-0.3l0.05-0.1C89.5,130.1,89.633,130.05,89.9,130.05z"
   id="path202" />
				<path
   style="fill-rule:evenodd;clip-rule:evenodd;fill:#A79273;"
   d="M88.95,130.8l0.05,0.15c0.033,0.066,0.033,0.116,0,0.149      c-0.066,0.034-0.133,0.034-0.2,0C88.7,131.066,88.75,130.967,88.95,130.8z"
   id="path204" />
				<path
   style="fill-rule:evenodd;clip-rule:evenodd;fill:#7F6C4F;"
   d="M77.9,130.65l0.25-0.45c0.133-0.066,0.25-0.084,0.35-0.05      c0.1,0,0.15,0.083,0.15,0.25c0.067,0.166,0.034,0.3-0.1,0.399c-0.033,0.066-0.133,0.101-0.3,0.101l-0.4-0.2L77.9,130.65z"
   id="path206" />
				<path
   style="fill-rule:evenodd;clip-rule:evenodd;fill:#7F6C4F;"
   d="M80.15,129.45L80.1,129.6v0.2c0,0.134-0.017,0.2-0.05,0.2      l-0.1,0.05c-0.067,0.066-0.15,0.066-0.25,0c-0.1,0-0.2-0.05-0.3-0.149l-0.05-0.051v-0.199c0-0.5,0.066-0.75,0.2-0.75l-0.1,0.3      c0.167-0.167,0.316-0.25,0.45-0.25C80.1,128.95,80.184,129.116,80.15,129.45z"
   id="path208" />
				<path
   style="fill-rule:evenodd;clip-rule:evenodd;fill:#7F6C4F;"
   d="M82.6,128c0.066,0.233,0.017,0.434-0.15,0.6l-0.3,0.351      l-0.05,0.25v0.3l-0.35,0.3c-0.2,0.2-0.45,0.184-0.75-0.05c-0.233-0.2-0.333-0.4-0.3-0.6l0.6-0.45l0.15-0.2l0.15-0.1L82,128      C82.3,127.8,82.5,127.8,82.6,128z"
   id="path210" />
				<path
   style="fill-rule:evenodd;clip-rule:evenodd;fill:#7F6C4F;"
   d="M80.25,127.85l0.45-0.1c0.466,0.066,0.65,0.25,0.55,0.55      c-0.066,0.167-0.25,0.167-0.55,0C80.4,128.2,80.25,128.05,80.25,127.85z"
   id="path212" />
				<polygon
   style="fill-rule:evenodd;clip-rule:evenodd;fill:#7F6C4F;"
   points="84,126.65 83.9,126.95 83.65,126.95 82.75,126.8           "
   id="polygon214" />
				<path
   style="fill-rule:evenodd;clip-rule:evenodd;fill:#7F6C4F;"
   d="M86.3,127.3c-0.2,0-0.35,0.05-0.45,0.15l-0.55,0.35h-0.25      l-1,0.75c0.233-0.399,0.4-0.616,0.5-0.649c0.167-0.101,0.25-0.2,0.25-0.301v-0.149l0.3-0.4l0.101,0.101l0.05,0.149l0.1-0.1      L85.4,127.1c0.166-0.166,0.3-0.25,0.399-0.25c0.033-0.033,0.15-0.033,0.351,0l0.899,0.051c0.5,0,0.65,0.066,0.45,0.199      c0,0.034-0.066,0.051-0.2,0.051c-0.167-0.034-0.333,0-0.5,0.1L86.3,127.3z"
   id="path216" />
				<path
   style="fill-rule:evenodd;clip-rule:evenodd;fill:#7F6C4F;"
   d="M82.4,129.7l0.5-0.9c0-0.333,0.184-0.533,0.55-0.6      c0.267-0.033,0.517,0,0.75,0.1l0.2,0.101c0.1,0.1,0.117,0.216,0.05,0.35c-0.067,0.134-0.184,0.217-0.35,0.25l-0.35,0.15      c0.066,0.267,0.05,0.517-0.05,0.75c-0.1,0.267-0.217,0.416-0.35,0.449c-0.1,0.034-0.284,0-0.55-0.1      C82.467,130.083,82.333,129.9,82.4,129.7z"
   id="path218" />
				<path
   style="fill-rule:evenodd;clip-rule:evenodd;fill:#7F6C4F;"
   d="M88.3,131.15c0,0.166,0.05,0.25,0.15,0.25l0.25,0.199      c0.1,0.134,0.083,0.317-0.05,0.551l-0.15,0.199h-0.15l-0.1,0.051l-0.1,0.1c-0.033,0.033-0.067,0.033-0.101,0l-0.149-0.05      c-0.067,0-0.101,0.05-0.101,0.149l0.05,0.351l-0.05,0.2L87.9,134.1l-0.15-0.199c-0.066-0.101-0.117-0.134-0.15-0.101l0.051,0.25      L87.3,133.9c-0.233,0-0.366-0.017-0.399-0.051l-0.7-0.55c-0.167,0.101-0.317,0.117-0.45,0.05L85.4,133.2l-0.301-0.3l-0.05-0.351      l0.05-0.35l0.65-0.4l0.55-0.75c0.267-0.066,0.5-0.083,0.7-0.05h0.15l-0.25-0.2l-0.15-0.3c0.066-0.167,0.184-0.3,0.35-0.4      l0.351-0.149c0.2,0,0.366,0.149,0.5,0.45C88.083,130.566,88.2,130.816,88.3,131.15z"
   id="path220" />
				<path
   style="fill-rule:evenodd;clip-rule:evenodd;fill:#7F6C4F;"
   d="M91.15,130.7l0.3,0.149l0.2,0.601l0.05,0.5      c-0.101-0.233-0.184-0.334-0.25-0.3l0.05,0.1c-0.233-0.167-0.367-0.25-0.4-0.25l-0.5-0.1c-0.232-0.067-0.366-0.184-0.399-0.351      l0.05-0.05l0.05-0.1C90.4,130.667,90.684,130.6,91.15,130.7z"
   id="path222" />
				<path
   style="fill-rule:evenodd;clip-rule:evenodd;fill:#7F6C4F;"
   d="M90.55,129.2c0.101-0.066,0.184-0.066,0.25,0      c0.2,0.166,0.333,0.35,0.4,0.55l-0.55-0.25l-0.351,0.05c-0.167-0.066-0.267-0.149-0.3-0.25L90.55,129.2z"
   id="path224" />
				<path
   style="fill-rule:evenodd;clip-rule:evenodd;fill:#7F6C4F;"
   d="M91,128.9c0.333,0.066,0.483,0.233,0.45,0.5l-0.25-0.15      c-0.033,0-0.083-0.033-0.15-0.1L91,128.9z"
   id="path226" />
				<path
   style="fill-rule:evenodd;clip-rule:evenodd;fill:#7F6C4F;"
   d="M92.05,130c0.067-0.3,0.134-0.417,0.2-0.35      c0.1,0,0.117,0.133,0.05,0.399l-0.05,0.351v0.3H92.1v0.75l-0.05,0.399L91.9,132.15l-0.2,0.05l-0.25-0.05      c-0.067,0-0.134,0.05-0.2,0.149l-0.05,0.351L91,132.4c-0.066-0.067-0.133-0.017-0.2,0.149l0.101-0.45h0.05      c0.167-0.267,0.383-0.399,0.649-0.399c0.167,0,0.25-0.117,0.25-0.351l0.051-0.699L92.05,130z"
   id="path228" />
				<path
   style="fill-rule:evenodd;clip-rule:evenodd;fill:#7F6C4F;"
   d="M81,131.55h0.25c0.033,0.367-0.033,0.483-0.2,0.351      C80.883,131.767,80.867,131.65,81,131.55z"
   id="path230" />
				<path
   style="fill-rule:evenodd;clip-rule:evenodd;fill:#7F6C4F;"
   d="M86.05,129.55l0.2-0.25c0.367,0.033,0.533,0.217,0.5,0.55      c0,0.167-0.05,0.267-0.15,0.301l-0.25-0.051c-0.333,0-0.5-0.05-0.5-0.149c-0.033-0.066-0.017-0.167,0.051-0.3L86.05,129.55z"
   id="path232" />
				<path
   style="fill-rule:evenodd;clip-rule:evenodd;fill:#9E968D;"
   d="M80.05,129.35l-0.2,0.25c-0.1,0.267-0.233,0.367-0.4,0.301      c-0.167,0-0.233-0.134-0.2-0.4l0.1-0.4c0.066-0.1,0.167-0.183,0.3-0.25c0.133-0.033,0.233-0.017,0.3,0.051l0.1,0.199V129.35z"
   id="path234" />
				<path
   style="fill-rule:evenodd;clip-rule:evenodd;fill:#9E968D;"
   d="M87.5,129.45l0.1,0.2l-0.149-0.15l-0.15-0.05H87.15      l-0.101,0.3l-0.1,0.6v0.2L87,130.65c-0.167,0-0.267-0.117-0.3-0.351v-0.2l-0.05-0.149l0.199-0.4l0.351-0.2l0.149,0.051h0.101      L87.5,129.45z"
   id="path236" />
				<path
   style="fill-rule:evenodd;clip-rule:evenodd;fill:#BBB4A8;"
   d="M83.3,128.65h-0.2v0.05c-0.167,0-0.3,0.05-0.4,0.149      c-0.134,0.134-0.2,0.317-0.2,0.551l0.05,0.3l0.05,0.1h-0.05c-0.066-0.033-0.133-0.133-0.2-0.3v-0.35      c0-0.2,0.066-0.384,0.2-0.551l0.35-0.149l0.2,0.05l0.05,0.05L83.3,128.65z M85.15,130.9l0.1-0.051      c0.066-0.1,0.15-0.149,0.25-0.149h0.2l0.1,0.35l-0.05,0.25L85.6,131.4c-0.066,0.133-0.149,0.166-0.25,0.1      c-0.1,0-0.183-0.05-0.25-0.15v-0.25L85.15,130.9z"
   id="path238" />
				<path
   style="fill-rule:evenodd;clip-rule:evenodd;fill:#7D7970;"
   d="M83.25,129.05h0.05l0.2-0.1c0.066,0,0.1,0.066,0.1,0.2      c0.033,0.066,0.017,0.216-0.05,0.449l-0.2,0.301c-0.1,0.1-0.25,0.133-0.45,0.1c-0.233,0-0.35-0.1-0.35-0.3      c0.167,0,0.3-0.084,0.4-0.25l0.1-0.3L83.25,129.05z"
   id="path240" />
				<path
   style="fill-rule:evenodd;clip-rule:evenodd;fill:#7D7970;"
   d="M81.45,129.7c-0.1,0.066-0.233,0.066-0.4,0      c-0.2-0.066-0.267-0.2-0.2-0.4l0.5-0.1l0.5-0.3h0.05l-0.15,0.5C81.65,129.566,81.55,129.667,81.45,129.7z"
   id="path242" />
				<path
   style="fill-rule:evenodd;clip-rule:evenodd;fill:#7D7970;"
   d="M79.8,129.25h-0.15c0.1-0.134,0.2-0.167,0.3-0.1      c-0.034,0.433-0.2,0.616-0.5,0.55C79.45,129.533,79.566,129.384,79.8,129.25z"
   id="path244" />
				<path
   style="fill-rule:evenodd;clip-rule:evenodd;fill:#BCA591;"
   d="M83.4,131.45c-0.1,0.133-0.183,0.116-0.25-0.05      c-0.066-0.101-0.033-0.184,0.1-0.25c0.033-0.067,0.1-0.084,0.2-0.051l0.1,0.301c0,0.199-0.05,0.267-0.15,0.199V131.45z"
   id="path246" />
				<path
   style="fill-rule:evenodd;clip-rule:evenodd;fill:#BCA591;"
   d="M81,131.4c0.033-0.034,0.083-0.017,0.15,0.05      c0.067,0.066,0.067,0.133,0,0.2l-0.25,0.05C80.9,131.5,80.934,131.4,81,131.4z"
   id="path248" />
				<path
   style="fill-rule:evenodd;clip-rule:evenodd;fill:#7A674C;"
   d="M89.8,127.55c0.167,0.033,0.434,0.117,0.8,0.25      c0.2,0,0.417-0.083,0.65-0.25c0.333-0.066,0.917,0.167,1.75,0.7c0.3,0.2,0.483,0.417,0.55,0.65c0.033,0.233-0.066,0.566-0.3,1      c-0.033,0.1-0.184,0.233-0.45,0.399c-0.1,0.134-0.217,0.217-0.35,0.25c-0.134,0.033-0.217,0.05-0.25,0.05      c-0.067,0.034-0.134,0.117-0.2,0.25l-0.05,0.5c0,0.534-0.267,0.75-0.8,0.65c-0.101,0-0.25-0.083-0.45-0.25      c-0.2-0.134-0.367-0.184-0.5-0.15v0.15c-0.101,0.033-0.217,0-0.351-0.1c-0.166-0.134-0.267-0.217-0.3-0.25      c-0.1,0-0.333,0.1-0.7,0.3c-0.1,0.066-0.25,0.116-0.449,0.149c-0.233,0.067-0.384,0.101-0.45,0.101      c-0.267,0-0.434,0.033-0.5,0.1l-0.15,0.2l-0.3,0.2l-0.25,0.25l-0.65,0.35c-0.066,0.033-0.199,0.05-0.399,0.05      s-0.351,0.034-0.45,0.101l-2.15,1.25c-0.467,0.333-0.817,0.416-1.05,0.25c-0.167-0.066-0.216-0.25-0.15-0.55      c0.1-0.167,0.15-0.367,0.15-0.601c-0.033-0.233-0.133-0.434-0.3-0.6c-0.2-0.3-0.483-0.417-0.85-0.351      c-0.3,0-0.45-0.166-0.45-0.5c0.033-0.133,0.1-0.283,0.2-0.449c0.1-0.167,0.167-0.301,0.2-0.4c0.1-0.4,0-0.6-0.3-0.6l-0.5,0.3      L79.7,131.1c-0.067,0.034-0.267,0.25-0.6,0.65c-0.1,0.134-0.2,0.2-0.3,0.2c-0.167-0.033-0.283-0.033-0.35,0      c-0.333,0.2-0.567,0.3-0.7,0.3c-0.367-0.134-0.533-0.35-0.5-0.65c0-0.166,0.066-0.366,0.2-0.6c0.066-0.134,0.167-0.3,0.3-0.5      c0.066-0.066,0.133-0.316,0.2-0.75l0.35-0.45c0.1-0.1,0.25-0.383,0.45-0.85c0.833-0.7,1.9-1.2,3.2-1.5l0.25-0.05l0.2,1.1      c0,0.366,0.083,0.5,0.25,0.4c0.167-0.067,0.4-0.184,0.7-0.351h0.95c0.9-0.1,1.384-0.149,1.45-0.149      c0.533-0.101,0.833-0.167,0.9-0.2c0.232-0.134,0.467-0.417,0.699-0.851c0.033,0.034,0.417,0.15,1.15,0.351L89.8,127.55z"
   id="path250" />
				<path
   style="fill-rule:evenodd;clip-rule:evenodd;fill:#7F6C4F;"
   d="M83.8,135.2l-0.3-0.351c-0.133-0.066-0.25-0.083-0.35-0.05      l-0.3-0.05c-0.434-0.167-0.6-0.483-0.5-0.95c-0.3,0.066-0.483,0.033-0.55-0.1c-0.033-0.134-0.033-0.316,0-0.55l0.2-0.4      L81.95,133l0.55,0.05c0.2,0,0.35,0.117,0.45,0.351l0.05,0.3l0.15,0.1c0.034,0.033,0.184,0.05,0.45,0.05l0.55,0.051      c0.167,0.1,0.284,0.35,0.35,0.75c0,0.466-0.1,0.666-0.3,0.6l-0.05,0.25L83.8,135.2z"
   id="path252" />
				<path
   style="fill-rule:evenodd;clip-rule:evenodd;fill:#78654B;"
   d="M76.55,131c0.1-0.033,0.167-0.033,0.2,0      s0.017,0.167-0.05,0.4c0.1-0.067,0.183-0.184,0.25-0.351c-0.2,1.267-0.184,2.134,0.05,2.601l0.15,0.149l0.05,0.25      c-0.367-0.3-0.634-0.566-0.8-0.8l-0.55-1.05C75.917,132,76.15,131.6,76.55,131z"
   id="path254" />
			</g>
			<g
   id="g256">
				<g
   id="g258">
					
						<linearGradient
   id="SVGID_8_"
   gradientUnits="userSpaceOnUse"
   x1="-89.0752"
   y1="-95.6001"
   x2="-82.4258"
   y2="-95.6001"
   gradientTransform="matrix(-1 0 0 -1 0 0)">
						<stop
   offset="0.0039"
   style="stop-color:#ACAEB0"
   id="stop261" />
						<stop
   offset="0.2157"
   style="stop-color:#858689"
   id="stop263" />
						<stop
   offset="0.251"
   style="stop-color:#939597"
   id="stop265" />
						<stop
   offset="0.2588"
   style="stop-color:#96989A"
   id="stop267" />
						<stop
   offset="0.3137"
   style="stop-color:#B6B8B9"
   id="stop269" />
						<stop
   offset="0.3765"
   style="stop-color:#D1D2D2"
   id="stop271" />
						<stop
   offset="0.4431"
   style="stop-color:#E5E6E6"
   id="stop273" />
						<stop
   offset="0.5216"
   style="stop-color:#F4F4F4"
   id="stop275" />
						<stop
   offset="0.6118"
   style="stop-color:#FCFCFD"
   id="stop277" />
						<stop
   offset="0.7569"
   style="stop-color:#FFFFFF"
   id="stop279" />
						<stop
   offset="0.7843"
   style="stop-color:#CACACA"
   id="stop281" />
						<stop
   offset="1"
   style="stop-color:#BCBDBD"
   id="stop283" />
					</linearGradient>
					<path
   style="fill-rule:evenodd;clip-rule:evenodd;fill:url(#SVGID_8_);"
   d="M89.1,64.45v62.25c0,0.5-0.25,0.75-0.75,0.75h-5.2       c-0.466,0-0.7-0.25-0.7-0.75V64.45c0-0.467,0.233-0.7,0.7-0.7h5.2C88.85,63.75,89.1,63.983,89.1,64.45z"
   id="path285" />
				</g>
				<g
   id="g287">
					<g
   id="g289">
						<g
   id="g291">
							<linearGradient
   id="SVGID_9_"
   gradientUnits="userSpaceOnUse"
   x1="81.1123"
   y1="79.9248"
   x2="89.5873"
   y2="79.9248">
								<stop
   offset="0"
   style="stop-color:#87898B"
   id="stop294" />
								<stop
   offset="0.6549"
   style="stop-color:#757679"
   id="stop296" />
								<stop
   offset="1"
   style="stop-color:#B8BABD"
   id="stop298" />
							</linearGradient>
							<rect
   x="81.1"
   y="79.05"
   style="fill-rule:evenodd;clip-rule:evenodd;fill:url(#SVGID_9_);"
   width="8.45"
   height="1.75"
   id="rect300" />
							
								<linearGradient
   id="SVGID_10_"
   gradientUnits="userSpaceOnUse"
   x1="-89.5874"
   y1="-79.6001"
   x2="-81.1124"
   y2="-79.6001"
   gradientTransform="matrix(-1 0 0 -1 0 0)">
								<stop
   offset="0"
   style="stop-color:#E2E3E3"
   id="stop303" />
								<stop
   offset="0.1922"
   style="stop-color:#979797"
   id="stop305" />
								<stop
   offset="0.2078"
   style="stop-color:#8B8B8C"
   id="stop307" />
								<stop
   offset="0.2588"
   style="stop-color:#A9A9AA"
   id="stop309" />
								<stop
   offset="0.3137"
   style="stop-color:#C4C4C4"
   id="stop311" />
								<stop
   offset="0.3765"
   style="stop-color:#D8D8D9"
   id="stop313" />
								<stop
   offset="0.4431"
   style="stop-color:#E7E7E7"
   id="stop315" />
								<stop
   offset="0.5255"
   style="stop-color:#EFEFEF"
   id="stop317" />
								<stop
   offset="0.6588"
   style="stop-color:#F2F2F2"
   id="stop319" />
								<stop
   offset="0.6824"
   style="stop-color:#C2C2C2"
   id="stop321" />
								<stop
   offset="0.8118"
   style="stop-color:#949494"
   id="stop323" />
								<stop
   offset="0.8392"
   style="stop-color:#868686"
   id="stop325" />
								<stop
   offset="0.9059"
   style="stop-color:#676767"
   id="stop327" />
								<stop
   offset="0.9451"
   style="stop-color:#5C5C5C"
   id="stop329" />
							</linearGradient>
							<rect
   x="81.1"
   y="78.7"
   style="fill-rule:evenodd;clip-rule:evenodd;fill:url(#SVGID_10_);"
   width="8.45"
   height="1.8"
   id="rect331" />
						</g>
						<g
   id="g333">
							<linearGradient
   id="SVGID_11_"
   gradientUnits="userSpaceOnUse"
   x1="81.1123"
   y1="85.2754"
   x2="89.5873"
   y2="85.2754">
								<stop
   offset="0"
   style="stop-color:#87898B"
   id="stop336" />
								<stop
   offset="0.6549"
   style="stop-color:#757679"
   id="stop338" />
								<stop
   offset="1"
   style="stop-color:#B8BABD"
   id="stop340" />
							</linearGradient>
							<rect
   x="81.1"
   y="84.4"
   style="fill-rule:evenodd;clip-rule:evenodd;fill:url(#SVGID_11_);"
   width="8.45"
   height="1.75"
   id="rect342" />
							
								<linearGradient
   id="SVGID_12_"
   gradientUnits="userSpaceOnUse"
   x1="-89.5874"
   y1="-84.9502"
   x2="-81.1124"
   y2="-84.9502"
   gradientTransform="matrix(-1 0 0 -1 0 0)">
								<stop
   offset="0"
   style="stop-color:#E2E3E3"
   id="stop345" />
								<stop
   offset="0.1922"
   style="stop-color:#979797"
   id="stop347" />
								<stop
   offset="0.2078"
   style="stop-color:#8B8B8C"
   id="stop349" />
								<stop
   offset="0.2588"
   style="stop-color:#A9A9AA"
   id="stop351" />
								<stop
   offset="0.3137"
   style="stop-color:#C4C4C4"
   id="stop353" />
								<stop
   offset="0.3765"
   style="stop-color:#D8D8D9"
   id="stop355" />
								<stop
   offset="0.4431"
   style="stop-color:#E7E7E7"
   id="stop357" />
								<stop
   offset="0.5255"
   style="stop-color:#EFEFEF"
   id="stop359" />
								<stop
   offset="0.6588"
   style="stop-color:#F2F2F2"
   id="stop361" />
								<stop
   offset="0.6824"
   style="stop-color:#C2C2C2"
   id="stop363" />
								<stop
   offset="0.8118"
   style="stop-color:#949494"
   id="stop365" />
								<stop
   offset="0.8392"
   style="stop-color:#868686"
   id="stop367" />
								<stop
   offset="0.9059"
   style="stop-color:#676767"
   id="stop369" />
								<stop
   offset="0.9451"
   style="stop-color:#5C5C5C"
   id="stop371" />
							</linearGradient>
							<rect
   x="81.1"
   y="84.05"
   style="fill-rule:evenodd;clip-rule:evenodd;fill:url(#SVGID_12_);"
   width="8.45"
   height="1.8"
   id="rect373" />
						</g>
					</g>
					<g
   id="g375">
						<g
   id="g377">
							<linearGradient
   id="SVGID_13_"
   gradientUnits="userSpaceOnUse"
   x1="90.4746"
   y1="68.8252"
   x2="82.2241"
   y2="68.8252">
								<stop
   offset="0"
   style="stop-color:#87898B"
   id="stop380" />
								<stop
   offset="0.6549"
   style="stop-color:#757679"
   id="stop382" />
								<stop
   offset="1"
   style="stop-color:#B8BABD"
   id="stop384" />
							</linearGradient>
							<rect
   x="82.2"
   y="67.95"
   style="fill-rule:evenodd;clip-rule:evenodd;fill:url(#SVGID_13_);"
   width="8.25"
   height="1.75"
   id="rect386" />
							<linearGradient
   id="SVGID_14_"
   gradientUnits="userSpaceOnUse"
   x1="90.4746"
   y1="68.5"
   x2="82.2241"
   y2="68.5">
								<stop
   offset="0"
   style="stop-color:#333333"
   id="stop389" />
								<stop
   offset="0.1647"
   style="stop-color:#9FA1A2"
   id="stop391" />
								<stop
   offset="0.302"
   style="stop-color:#858689"
   id="stop393" />
								<stop
   offset="0.3451"
   style="stop-color:#9E9E9E"
   id="stop395" />
								<stop
   offset="0.7765"
   style="stop-color:#F2F2F2"
   id="stop397" />
								<stop
   offset="0.7961"
   style="stop-color:#B8BABD"
   id="stop399" />
								<stop
   offset="0.8784"
   style="stop-color:#C2C3C6"
   id="stop401" />
								<stop
   offset="1"
   style="stop-color:#D9DBDC"
   id="stop403" />
							</linearGradient>
							<rect
   x="82.2"
   y="67.6"
   style="fill-rule:evenodd;clip-rule:evenodd;fill:url(#SVGID_14_);"
   width="8.25"
   height="1.8"
   id="rect405" />
						</g>
						<g
   id="g407">
							<linearGradient
   id="SVGID_15_"
   gradientUnits="userSpaceOnUse"
   x1="90.4746"
   y1="74.1748"
   x2="82.2241"
   y2="74.1748">
								<stop
   offset="0"
   style="stop-color:#87898B"
   id="stop410" />
								<stop
   offset="0.6549"
   style="stop-color:#757679"
   id="stop412" />
								<stop
   offset="1"
   style="stop-color:#B8BABD"
   id="stop414" />
							</linearGradient>
							<rect
   x="82.2"
   y="73.3"
   style="fill-rule:evenodd;clip-rule:evenodd;fill:url(#SVGID_15_);"
   width="8.25"
   height="1.75"
   id="rect416" />
							<linearGradient
   id="SVGID_16_"
   gradientUnits="userSpaceOnUse"
   x1="90.4746"
   y1="73.8501"
   x2="82.2241"
   y2="73.8501">
								<stop
   offset="0"
   style="stop-color:#333333"
   id="stop419" />
								<stop
   offset="0.1647"
   style="stop-color:#9FA1A2"
   id="stop421" />
								<stop
   offset="0.302"
   style="stop-color:#858689"
   id="stop423" />
								<stop
   offset="0.3451"
   style="stop-color:#9E9E9E"
   id="stop425" />
								<stop
   offset="0.7765"
   style="stop-color:#F2F2F2"
   id="stop427" />
								<stop
   offset="0.7961"
   style="stop-color:#B8BABD"
   id="stop429" />
								<stop
   offset="0.8784"
   style="stop-color:#C2C3C6"
   id="stop431" />
								<stop
   offset="1"
   style="stop-color:#D9DBDC"
   id="stop433" />
							</linearGradient>
							<rect
   x="82.2"
   y="72.95"
   style="fill-rule:evenodd;clip-rule:evenodd;fill:url(#SVGID_16_);"
   width="8.25"
   height="1.8"
   id="rect435" />
						</g>
					</g>
					<g
   id="g437">
						<g
   id="g439">
							<linearGradient
   id="SVGID_17_"
   gradientUnits="userSpaceOnUse"
   x1="90.4746"
   y1="90.3994"
   x2="82.2241"
   y2="90.3994">
								<stop
   offset="0"
   style="stop-color:#87898B"
   id="stop442" />
								<stop
   offset="0.6549"
   style="stop-color:#757679"
   id="stop444" />
								<stop
   offset="1"
   style="stop-color:#B8BABD"
   id="stop446" />
							</linearGradient>
							<rect
   x="82.2"
   y="89.5"
   style="fill-rule:evenodd;clip-rule:evenodd;fill:url(#SVGID_17_);"
   width="8.25"
   height="1.8"
   id="rect448" />
							<linearGradient
   id="SVGID_18_"
   gradientUnits="userSpaceOnUse"
   x1="90.4746"
   y1="90.0752"
   x2="82.2241"
   y2="90.0752">
								<stop
   offset="0"
   style="stop-color:#333333"
   id="stop451" />
								<stop
   offset="0.1647"
   style="stop-color:#9FA1A2"
   id="stop453" />
								<stop
   offset="0.302"
   style="stop-color:#858689"
   id="stop455" />
								<stop
   offset="0.3451"
   style="stop-color:#9E9E9E"
   id="stop457" />
								<stop
   offset="0.7765"
   style="stop-color:#F2F2F2"
   id="stop459" />
								<stop
   offset="0.7961"
   style="stop-color:#B8BABD"
   id="stop461" />
								<stop
   offset="0.8784"
   style="stop-color:#C2C3C6"
   id="stop463" />
								<stop
   offset="1"
   style="stop-color:#D9DBDC"
   id="stop465" />
							</linearGradient>
							<rect
   x="82.2"
   y="89.2"
   style="fill-rule:evenodd;clip-rule:evenodd;fill:url(#SVGID_18_);"
   width="8.25"
   height="1.75"
   id="rect467" />
						</g>
						<g
   id="g469">
							<linearGradient
   id="SVGID_19_"
   gradientUnits="userSpaceOnUse"
   x1="90.4746"
   y1="95.75"
   x2="82.2241"
   y2="95.75">
								<stop
   offset="0"
   style="stop-color:#87898B"
   id="stop472" />
								<stop
   offset="0.6549"
   style="stop-color:#757679"
   id="stop474" />
								<stop
   offset="1"
   style="stop-color:#B8BABD"
   id="stop476" />
							</linearGradient>
							<rect
   x="82.2"
   y="94.85"
   style="fill-rule:evenodd;clip-rule:evenodd;fill:url(#SVGID_19_);"
   width="8.25"
   height="1.801"
   id="rect478" />
							<linearGradient
   id="SVGID_20_"
   gradientUnits="userSpaceOnUse"
   x1="90.4746"
   y1="95.3994"
   x2="82.2241"
   y2="95.3994">
								<stop
   offset="0"
   style="stop-color:#333333"
   id="stop481" />
								<stop
   offset="0.1647"
   style="stop-color:#9FA1A2"
   id="stop483" />
								<stop
   offset="0.302"
   style="stop-color:#858689"
   id="stop485" />
								<stop
   offset="0.3451"
   style="stop-color:#9E9E9E"
   id="stop487" />
								<stop
   offset="0.7765"
   style="stop-color:#F2F2F2"
   id="stop489" />
								<stop
   offset="0.7961"
   style="stop-color:#B8BABD"
   id="stop491" />
								<stop
   offset="0.8784"
   style="stop-color:#C2C3C6"
   id="stop493" />
								<stop
   offset="1"
   style="stop-color:#D9DBDC"
   id="stop495" />
							</linearGradient>
							<rect
   x="82.2"
   y="94.5"
   style="fill-rule:evenodd;clip-rule:evenodd;fill:url(#SVGID_20_);"
   width="8.25"
   height="1.8"
   id="rect497" />
						</g>
					</g>
				</g>
				<g
   id="g499">
					<g
   id="g501">
						<g
   id="g503">
							
								<linearGradient
   id="SVGID_21_"
   gradientUnits="userSpaceOnUse"
   x1="75.7705"
   y1="-67.1943"
   x2="88.9955"
   y2="-67.1943"
   gradientTransform="matrix(7.561436e-005 1 -1 -0.001 -2.653523e-004 -4.429743e-005)">
								<stop
   offset="0.3373"
   style="stop-color:#DEDFE0"
   id="stop506" />
								<stop
   offset="1"
   style="stop-color:#ADAFB1"
   id="stop508" />
							</linearGradient>
							<path
   style="fill-rule:evenodd;clip-rule:evenodd;fill:url(#SVGID_21_);"
   d="M60.55,75.8H80.3c0.367,0,0.7,0.15,1,0.45         c0.267,0.267,0.4,0.6,0.4,1v10.4c0,0.366-0.134,0.699-0.4,1c-0.3,0.267-0.633,0.399-1,0.399H60.55         c-0.933,0-1.75-0.316-2.45-0.95l-4.95-4.7c-0.3-0.267-0.45-0.583-0.45-0.95c0-0.4,0.15-0.733,0.45-1l4.95-4.65         C58.767,76.133,59.583,75.8,60.55,75.8z"
   id="path510" />
							
								<linearGradient
   id="SVGID_22_"
   gradientUnits="userSpaceOnUse"
   x1="-80.75"
   y1="-82.4248"
   x2="-53.6499"
   y2="-82.4248"
   gradientTransform="matrix(-1 0 0 -1 0 0)">
								<stop
   offset="0.9647"
   style="stop-color:#DEDFE0"
   id="stop513" />
								<stop
   offset="1"
   style="stop-color:#ADAFB1"
   id="stop515" />
							</linearGradient>
							<path
   style="fill-rule:evenodd;clip-rule:evenodd;fill:url(#SVGID_22_);"
   d="M80.3,88.1H60.55         c-0.667,0-1.267-0.233-1.8-0.699l-4.95-4.7c-0.1-0.067-0.15-0.15-0.15-0.25c0-0.133,0.05-0.233,0.15-0.3l4.95-4.7         c0.533-0.467,1.133-0.7,1.8-0.7H80.3c0.3,0,0.45,0.167,0.45,0.5v10.4C80.75,87.95,80.6,88.1,80.3,88.1z"
   id="path517" />
						</g>
						
							<linearGradient
   id="SVGID_23_"
   gradientUnits="userSpaceOnUse"
   x1="76.6694"
   y1="-67.1875"
   x2="82.8944"
   y2="-67.1875"
   gradientTransform="matrix(1.606426e-004 1 -1 -0.001 -3.843616e-004 -4.524109e-005)">
							<stop
   offset="0"
   style="stop-color:#F4F4F4"
   id="stop520" />
							<stop
   offset="1"
   style="stop-color:#ECECEC"
   id="stop522" />
						</linearGradient>
						<path
   style="fill-rule:evenodd;clip-rule:evenodd;fill:url(#SVGID_23_);"
   d="M80.75,77.25v1.075        c-0.009-0.317-0.159-0.475-0.45-0.475H60.55c-0.667,0-1.267,0.233-1.8,0.7L54.05,83l-0.25-0.3c-0.1-0.067-0.15-0.15-0.15-0.25        c0-0.133,0.05-0.233,0.15-0.3l4.95-4.7c0.533-0.467,1.133-0.7,1.8-0.7H80.3C80.6,76.75,80.75,76.917,80.75,77.25z"
   id="path524" />
					</g>
					<g
   id="g526">
						<linearGradient
   id="SVGID_24_"
   gradientUnits="userSpaceOnUse"
   x1="104.3242"
   y1="77.9502"
   x2="104.3242"
   y2="64.7252">
							<stop
   offset="0.3373"
   style="stop-color:#DEDFE0"
   id="stop529" />
							<stop
   offset="1"
   style="stop-color:#ADAFB1"
   id="stop531" />
						</linearGradient>
						<path
   style="fill-rule:evenodd;clip-rule:evenodd;fill:url(#SVGID_24_);"
   d="M113.45,65.7l4.95,4.65        c0.267,0.267,0.399,0.6,0.399,1c0,0.367-0.133,0.683-0.399,0.95l-4.95,4.7c-0.7,0.633-1.517,0.95-2.45,0.95H91.25        c-0.367,0-0.7-0.133-1-0.4c-0.267-0.3-0.4-0.633-0.4-1v-10.4c0-0.4,0.134-0.733,0.4-1c0.3-0.3,0.633-0.45,1-0.45H111        c0.4,0,0.833,0.1,1.3,0.3C112.8,65.2,113.184,65.433,113.45,65.7z"
   id="path533" />
						<linearGradient
   id="SVGID_25_"
   gradientUnits="userSpaceOnUse"
   x1="90.7998"
   y1="71.3252"
   x2="117.9004"
   y2="71.3252">
							<stop
   offset="0.9647"
   style="stop-color:#DEDFE0"
   id="stop536" />
							<stop
   offset="1"
   style="stop-color:#ADAFB1"
   id="stop538" />
						</linearGradient>
						<path
   style="fill-rule:evenodd;clip-rule:evenodd;fill:url(#SVGID_25_);"
   d="M111,65.65c0.667,0,1.267,0.233,1.8,0.7l4.95,4.7        l0.15,0.3l-0.15,0.25l-4.95,4.7c-0.533,0.467-1.133,0.7-1.8,0.7H91.25c-0.3,0-0.45-0.15-0.45-0.45v-10.4        c0-0.333,0.15-0.5,0.45-0.5H111z"
   id="path540" />
						
							<linearGradient
   id="SVGID_26_"
   gradientUnits="userSpaceOnUse"
   x1="65.583"
   y1="-104.3398"
   x2="71.808"
   y2="-104.3398"
   gradientTransform="matrix(1.606426e-004 1 -1 -0.001 -3.843616e-004 -4.524109e-005)">
							<stop
   offset="0"
   style="stop-color:#F4F4F4"
   id="stop543" />
							<stop
   offset="1"
   style="stop-color:#ECECEC"
   id="stop545" />
						</linearGradient>
						<path
   style="fill-rule:evenodd;clip-rule:evenodd;fill:url(#SVGID_26_);"
   d="M111,65.65c0.667,0,1.267,0.233,1.8,0.7l4.95,4.7        l0.15,0.3l-0.15,0.25l-0.3,0.3l-4.65-4.4c-0.467-0.467-1.066-0.7-1.8-0.7H91.25c-0.291,0-0.44,0.142-0.45,0.425V66.15        c0-0.333,0.15-0.5,0.45-0.5H111z"
   id="path547" />
					</g>
					<g
   id="g549">
						<linearGradient
   id="SVGID_27_"
   gradientUnits="userSpaceOnUse"
   x1="104.3242"
   y1="99.5127"
   x2="104.3242"
   y2="86.2877">
							<stop
   offset="0.3373"
   style="stop-color:#DEDFE0"
   id="stop552" />
							<stop
   offset="1"
   style="stop-color:#ADAFB1"
   id="stop554" />
						</linearGradient>
						<path
   style="fill-rule:evenodd;clip-rule:evenodd;fill:url(#SVGID_27_);"
   d="M91.25,86.3H111c0.934,0,1.75,0.316,2.45,0.95        l4.95,4.7c0.267,0.267,0.399,0.6,0.399,1c0,0.366-0.133,0.684-0.399,0.95l-4.95,4.649c-0.267,0.267-0.65,0.5-1.15,0.7        c-0.467,0.2-0.899,0.3-1.3,0.3H91.25c-0.367,0-0.7-0.133-1-0.399c-0.267-0.301-0.4-0.65-0.4-1.051V87.7        c0-0.367,0.134-0.7,0.4-1C90.55,86.434,90.883,86.3,91.25,86.3z"
   id="path556" />
						<linearGradient
   id="SVGID_28_"
   gradientUnits="userSpaceOnUse"
   x1="90.7998"
   y1="92.9248"
   x2="117.9004"
   y2="92.9248">
							<stop
   offset="0.9647"
   style="stop-color:#DEDFE0"
   id="stop559" />
							<stop
   offset="1"
   style="stop-color:#ADAFB1"
   id="stop561" />
						</linearGradient>
						<path
   style="fill-rule:evenodd;clip-rule:evenodd;fill:url(#SVGID_28_);"
   d="M91.25,98.6c-0.3,0-0.45-0.166-0.45-0.5V87.7        c0-0.3,0.15-0.45,0.45-0.45H111c0.667,0,1.267,0.233,1.8,0.7l4.95,4.7l0.15,0.25l-0.15,0.3l-4.95,4.649        c-0.5,0.5-1.1,0.75-1.8,0.75H91.25z"
   id="path563" />
						
							<linearGradient
   id="SVGID_29_"
   gradientUnits="userSpaceOnUse"
   x1="87.1387"
   y1="-104.3359"
   x2="93.3637"
   y2="-104.3359"
   gradientTransform="matrix(1.606426e-004 1 -1 -0.001 -3.843616e-004 -4.524109e-005)">
							<stop
   offset="0"
   style="stop-color:#F4F4F4"
   id="stop566" />
							<stop
   offset="1"
   style="stop-color:#ECECEC"
   id="stop568" />
						</linearGradient>
						<path
   style="fill-rule:evenodd;clip-rule:evenodd;fill:url(#SVGID_29_);"
   d="M90.8,88.775V87.7c0-0.3,0.15-0.45,0.45-0.45H111        c0.667,0,1.267,0.233,1.8,0.7l4.95,4.7l0.15,0.25l-0.15,0.3l-0.3,0.25l-4.65-4.4c-0.533-0.467-1.133-0.7-1.8-0.7H91.25        C90.959,88.35,90.81,88.491,90.8,88.775z"
   id="path570" />
					</g>
				</g>
			</g>
			<path
   style="fill-rule:evenodd;clip-rule:evenodd;fill:#8A8C4B;"
   d="M90.25,121.65c-0.066,0.199-0.15,0.416-0.25,0.649     c-0.267,0.667-0.45,1.267-0.55,1.8c-0.101,0.367-0.184,0.917-0.25,1.65l-0.05,1.9L89.1,127.7l-0.1,0.05     c-0.133,0-0.233-0.1-0.3-0.3L88.6,127.8h-0.1c-0.233,0.066-0.383-0.017-0.45-0.25l-0.2,0.15c-0.333,0-0.5-0.4-0.5-1.2v-1.25     l0.25-1.3c0.134-0.533,0.317-0.967,0.551-1.3h0.05c0.066,0.233,0.05,0.633-0.05,1.199l0.35-1c0.233-0.767,0.45-1.199,0.65-1.3     c0.1,0.167,0.083,0.533-0.051,1.101c-0.066,0.3-0.149,0.649-0.25,1.05l-0.25,1.55c-0.066,0.3-0.1,0.7-0.1,1.2     c0.066,0.399,0.117,0.616,0.15,0.649c-0.067-0.166-0.101-0.466-0.101-0.899c0.067-0.7,0.167-1.4,0.3-2.101     c0.233-0.8,0.417-1.366,0.551-1.699l0.449-0.9c0.067-0.134,0.167-0.25,0.301-0.35L90.3,121.1     C90.4,121.1,90.383,121.283,90.25,121.65z"
   id="path572" />
			<path
   style="fill-rule:evenodd;clip-rule:evenodd;fill:#8A8C4B;"
   d="M80.55,124.85c-0.167-0.066-0.167-0.116,0-0.149     c1-0.101,1.817,0.166,2.45,0.8c0.1,0.066,0.217,0.233,0.35,0.5c0.133-0.667-0.017-1.5-0.45-2.5l-1.05-2.4     c0.733,0.4,1.35,1.267,1.85,2.601c0.366,0.967,0.55,1.8,0.55,2.5l-0.05,0.45l0.15,0.449c0,0.367-0.067,0.584-0.2,0.65     c-0.166,0.033-0.249-0.101-0.25-0.4c-0.004,0.138-0.121,0.321-0.35,0.551c-0.167,0.166-0.366,0.216-0.6,0.149     c-0.3,0-0.583-0.166-0.85-0.5v-0.1c0.033-0.367,0.05-0.65,0.05-0.851c0-0.533-0.083-0.883-0.25-1.05c-0.2-0.3-0.483-0.5-0.85-0.6     L80.55,124.85z"
   id="path574" />
			<path
   style="fill-rule:evenodd;clip-rule:evenodd;fill:#A3A25B;"
   d="M88.05,129.5c-0.033,0.134-0.267,0.15-0.7,0.05     c-0.333-0.2-0.467-0.733-0.399-1.6c0.033-0.566,0.2-1.267,0.5-2.101c0.5-1.333,1.133-2.199,1.899-2.6l-1.1,2.35     c-0.4,1.101-0.533,2.184-0.4,3.25c0.033,0.134,0.117,0.351,0.25,0.65H88.05z"
   id="path576" />
			<path
   style="fill-rule:evenodd;clip-rule:evenodd;fill:#A3A25B;"
   d="M84.5,124.3h0.05c0.267,0.434,0.45,0.867,0.55,1.3     l0.25,1.301v1.25c0,0.8-0.166,1.199-0.5,1.199l-0.2-0.149c-0.1,0.2-0.25,0.3-0.45,0.3l-0.1-0.05L84,129.1     c-0.033,0.2-0.133,0.301-0.3,0.301l-0.1-0.051l-0.05-0.05c0.1-1.233-0.017-2.533-0.35-3.899c-0.3-1-0.55-1.684-0.75-2.051     c-0.1-0.166-0.167-0.283-0.2-0.35c-0.066-0.167-0.017-0.233,0.15-0.2l0.15,0.05c0.3,0.134,0.6,0.667,0.9,1.601     c0.2,0.5,0.383,1.133,0.55,1.899c0.133,1,0.167,1.75,0.1,2.25v0.15l0.1-0.65c0-0.5-0.034-0.899-0.1-1.199l-0.25-1.551     c-0.1-0.399-0.184-0.75-0.25-1.05c-0.1-0.566-0.117-0.934-0.05-1.1c0.2,0.066,0.417,0.5,0.65,1.3l0.35,1     C84.45,124.934,84.434,124.533,84.5,124.3z"
   id="path578" />
			<path
   style="fill-rule:evenodd;clip-rule:evenodd;fill:#A3A25B;"
   d="M90.6,122.35c0.2-0.033,0.25,0.034,0.15,0.2     c-0.033,0.066-0.1,0.184-0.2,0.351c-0.2,0.366-0.45,1.05-0.75,2.05c-0.3,1.2-0.417,2.5-0.35,3.899L89.4,128.9     c-0.2,0.1-0.334,0.033-0.4-0.2c-0.033-0.233-0.066-0.4-0.1-0.5v-0.05c-0.067-0.5-0.033-1.25,0.1-2.25     c0.2-0.867,0.383-1.5,0.55-1.9c0.3-0.934,0.601-1.467,0.9-1.6L90.6,122.35z"
   id="path580" />
			<g
   id="g582">
				<path
   style="fill-rule:evenodd;clip-rule:evenodd;fill:#5D4C37;"
   d="M80.45,127.75l-0.15,0.1c0.934-0.166,1.6-0.133,2,0.101      c0.267,0.166,0.317,0.316,0.15,0.45c-0.167,0.1-0.367,0.149-0.6,0.149H81.5l-0.25-0.1h-0.8c-0.4-0.101-0.583-0.233-0.55-0.4      C79.9,128.017,80.083,127.917,80.45,127.75z"
   id="path584" />
				<path
   style="fill-rule:evenodd;clip-rule:evenodd;fill:#5D4C37;"
   d="M82.55,130c-0.074-0.224,0-0.365,0.225-0.425      c0.236-0.217,0.661-0.325,1.275-0.325c0.233,0,1.117,0.083,2.65,0.25c0.866,0,1.366,0.066,1.5,0.2      c0.133,0.133,0.133,0.25,0,0.35c-0.2,0.066-0.351,0.117-0.45,0.15c-0.3,0.166-0.517,0.267-0.65,0.3      c-0.366,0.134-0.767,0.2-1.199,0.2c-0.601,0-1.034-0.05-1.3-0.15c-0.3-0.1-0.583-0.149-0.85-0.149      C83.017,130.4,82.617,130.267,82.55,130z"
   id="path586" />
				<g
   id="g588">
					<path
   style="fill-rule:evenodd;clip-rule:evenodd;fill:#9E968D;"
   d="M81.7,126.35l0.7,0.051c0.333,0.066,0.5,0.233,0.5,0.5       s-0.05,0.5-0.15,0.699c-0.167,0.4-0.517,0.601-1.05,0.601c-0.967,0.066-1.434-0.233-1.4-0.9c0.067-0.399,0.25-0.666,0.55-0.8       C81.05,126.4,81.333,126.35,81.7,126.35z"
   id="path590" />
					<path
   style="fill-rule:evenodd;clip-rule:evenodd;fill:#86827A;"
   d="M82.8,126.95l0.1,0.3c0.067,0.533-0.033,0.866-0.3,1       l-0.5,0.05l-0.5-0.05c-0.434-0.3-0.4-0.566,0.1-0.8C81.967,127.283,82.333,127.116,82.8,126.95z"
   id="path592" />
					<g
   id="g594">
						<path
   style="fill-rule:evenodd;clip-rule:evenodd;fill:#B4A99E;"
   d="M82.95,128.3c0.267-0.233,0.783-0.55,1.55-0.95l-0.6,0.2        c0.267-0.3,0.9-0.45,1.9-0.45s1.634,0.134,1.9,0.4c0.333,0.233,0.5,0.616,0.5,1.15c-0.033,0.466-0.233,0.833-0.601,1.1        c-0.3,0.333-1.033,0.467-2.199,0.4c-1.167,0-1.934-0.134-2.3-0.4C82.434,129.283,82.383,128.8,82.95,128.3z"
   id="path596" />
						<path
   style="fill-rule:evenodd;clip-rule:evenodd;fill:#9E968D;"
   d="M87.55,127.9c0.767-0.101,0.95,0.35,0.55,1.35        c-0.1,0.434-0.232,0.684-0.399,0.75c-0.067,0.066-0.367,0.1-0.9,0.1l-2.05,0.051c-0.8,0-1.417-0.134-1.85-0.4        c0.267-0.134,0.934-0.3,2-0.5c0.4-0.134,1.083-0.283,2.05-0.45c0.167,0,0.399-0.2,0.7-0.6L87.55,127.9z"
   id="path598" />
					</g>
				</g>
			</g>
		</g>
	</g>
	<g
   id="g600">
		<g
   id="g602">
			<g
   id="g604">
				<g
   id="g606">
					<g
   id="g608">
						<g
   id="g610">
							<g
   id="g612">
								
									<linearGradient
   id="SVGID_30_"
   gradientUnits="userSpaceOnUse"
   x1="-31.7578"
   y1="70.4326"
   x2="-15.5455"
   y2="70.4326"
   gradientTransform="matrix(0.4564 -0.8898 0.8898 0.4564 3.211200e-004 -4.506707e-004)">
									<stop
   offset="0.2824"
   style="stop-color:#AB3A48"
   id="stop615" />
									<stop
   offset="0.2863"
   style="stop-color:#AB3B48"
   id="stop617" />
									<stop
   offset="0.702"
   style="stop-color:#D88F62"
   id="stop619" />
									<stop
   offset="0.8941"
   style="stop-color:#E9B06C"
   id="stop621" />
								</linearGradient>
								<path
   style="fill-rule:evenodd;clip-rule:evenodd;fill:url(#SVGID_30_);"
   d="M57.65,50.7l0.95,0.7          c1.233,0.9,1.716,2.133,1.45,3.7c-0.167,0.8-0.533,1.467-1.1,2c-0.467,0.467-0.983,0.767-1.55,0.9l-1.15,0.35l-0.4,1.1          c-0.2,0.633-0.534,1.15-1,1.55c-0.567,0.567-1.25,0.9-2.05,1l-0.6,0.05c-0.534,0-1.067-0.133-1.6-0.4          c-0.567-0.3-1.034-0.717-1.4-1.25l-0.7-1.05h-1.25c-0.7,0-1.35-0.2-1.95-0.6c-0.6-0.367-1.05-0.867-1.35-1.5          c-0.667-1.4-0.517-2.717,0.45-3.95l0.75-0.95L44.8,51.2c-0.233-0.667-0.25-1.35-0.05-2.05c0.167-0.7,0.5-1.3,1-1.8          c0.833-0.7,1.733-1.033,2.7-1c0.267,0,0.667,0.066,1.2,0.2L50.8,47l0.95-0.7c0.6-0.466,1.367-0.7,2.3-0.7          c0.534,0,1.067,0.133,1.6,0.4l0.05,0.05c1.4,0.767,2.05,1.9,1.95,3.4V50.7z"
   id="path623" />
								<path
   style="fill-rule:evenodd;clip-rule:evenodd;fill:none;stroke:#F7E0E7;stroke-width:0.25;"
   d="M57.65,50.7l0.95,0.7          c1.233,0.9,1.716,2.133,1.45,3.7c-0.167,0.8-0.533,1.467-1.1,2c-0.467,0.467-0.983,0.767-1.55,0.9l-1.15,0.35l-0.4,1.1          c-0.2,0.633-0.534,1.15-1,1.55c-0.567,0.567-1.25,0.9-2.05,1l-0.6,0.05c-0.534,0-1.067-0.133-1.6-0.4          c-0.567-0.3-1.034-0.717-1.4-1.25l-0.7-1.05h-1.25c-0.7,0-1.35-0.2-1.95-0.6c-0.6-0.367-1.05-0.867-1.35-1.5          c-0.667-1.4-0.517-2.717,0.45-3.95l0.75-0.95L44.8,51.2c-0.233-0.667-0.25-1.35-0.05-2.05c0.167-0.7,0.5-1.3,1-1.8          c0.833-0.7,1.733-1.033,2.7-1c0.267,0,0.667,0.066,1.2,0.2L50.8,47l0.95-0.7c0.6-0.466,1.367-0.7,2.3-0.7          c0.534,0,1.067,0.133,1.6,0.4l0.05,0.05c1.4,0.767,2.05,1.9,1.95,3.4V50.7z"
   id="path625" />
							</g>
						</g>
						<path
   style="fill-rule:evenodd;clip-rule:evenodd;fill:#470B17;"
   d="M54.7,47.9c0.566,0.3,0.85,0.8,0.85,1.5l-0.1,2.3l1.9,1.4        c0.5,0.4,0.7,0.933,0.6,1.6c-0.034,0.367-0.184,0.667-0.45,0.9c-0.267,0.2-0.5,0.316-0.7,0.35l-2.25,0.65l-0.75,2.2        c-0.066,0.267-0.2,0.483-0.4,0.65c-0.233,0.267-0.533,0.417-0.9,0.45c-0.633,0.1-1.15-0.133-1.55-0.7l-1.3-1.95H47.3        c-0.667-0.067-1.133-0.383-1.4-0.95c-0.3-0.566-0.25-1.117,0.15-1.65l1.45-1.85l-0.7-2.25c-0.2-0.6-0.05-1.15,0.45-1.65        c0.467-0.467,1.017-0.583,1.65-0.35l2.2,0.8L53,48C53.5,47.6,54.066,47.567,54.7,47.9z"
   id="path627" />
						
							<linearGradient
   id="SVGID_31_"
   gradientUnits="userSpaceOnUse"
   x1="-28.8481"
   y1="70.4409"
   x2="-18.3939"
   y2="70.4409"
   gradientTransform="matrix(0.4568 -0.8896 0.8896 0.4568 2.671778e-004 -3.458261e-004)">
							<stop
   offset="0.0235"
   style="stop-color:#808080"
   id="stop630" />
							<stop
   offset="0.7294"
   style="stop-color:#E6E6E6"
   id="stop632" />
							<stop
   offset="1"
   style="stop-color:#B3B3B3"
   id="stop634" />
						</linearGradient>
						<path
   style="fill-rule:evenodd;clip-rule:evenodd;fill:url(#SVGID_31_);"
   d="M54.35,48.55c0.3,0.2,0.45,0.467,0.45,0.8        l-0.1,2.75l2.2,1.6c0.3,0.233,0.4,0.517,0.3,0.85c0,0.167-0.083,0.333-0.25,0.5l-0.35,0.2L54,56l-0.9,2.55        c-0.067,0.2-0.133,0.317-0.2,0.35c-0.167,0.167-0.333,0.25-0.5,0.25c-0.367,0.067-0.633-0.05-0.8-0.35l-1.55-2.3H47.3        c-0.333,0-0.583-0.167-0.75-0.5c-0.167-0.333-0.133-0.633,0.1-0.9l1.7-2.15l-0.8-2.6c-0.1-0.367-0.033-0.667,0.2-0.9        c0.3-0.233,0.6-0.3,0.9-0.2l2.55,0.95l2.25-1.55C53.717,48.417,54.017,48.383,54.35,48.55z"
   id="path636" />
						<path
   style="fill-rule:evenodd;clip-rule:evenodd;fill:#FFFFFF;"
   d="M48.65,49.25l2.55,0.95l0.95-0.65L50.7,50.6l-2.55-0.95        c-0.2-0.033-0.367-0.033-0.5,0l0.1-0.2C48.05,49.217,48.35,49.15,48.65,49.25z M54.3,49.75c0-0.367-0.15-0.633-0.45-0.8        c-0.239-0.12-0.522-0.12-0.85,0l0.45-0.3c0.267-0.233,0.566-0.267,0.9-0.1c0.3,0.2,0.45,0.467,0.45,0.8l-0.1,2.75l2.2,1.6        c0.3,0.233,0.4,0.517,0.3,0.85c0,0.167-0.083,0.333-0.25,0.5l-0.35,0.2l0.1-0.3c0.066-0.367-0.05-0.65-0.35-0.85l-2.15-1.6        L54.3,49.75z"
   id="path638" />
					</g>
				</g>
			</g>
		</g>
		<g
   id="g640">
			<g
   id="g642">
				<g
   id="g644">
					<g
   id="g646">
						<g
   id="g648">
							<g
   id="g650">
								<linearGradient
   id="SVGID_32_"
   gradientUnits="userSpaceOnUse"
   x1="115.9697"
   y1="45.9639"
   x2="123.3697"
   y2="60.3889">
									<stop
   offset="0.2824"
   style="stop-color:#AB3A48"
   id="stop653" />
									<stop
   offset="0.2863"
   style="stop-color:#AB3B48"
   id="stop655" />
									<stop
   offset="0.702"
   style="stop-color:#D88F62"
   id="stop657" />
									<stop
   offset="0.8941"
   style="stop-color:#E9B06C"
   id="stop659" />
								</linearGradient>
								<path
   style="fill-rule:evenodd;clip-rule:evenodd;fill:url(#SVGID_32_);"
   d="M117.5,45.6c0.934,0,1.7,0.233,2.3,0.7          l0.95,0.7l1.15-0.45c0.533-0.133,0.933-0.2,1.199-0.2c0.967-0.033,1.867,0.3,2.7,1c0.5,0.5,0.833,1.1,1,1.8          c0.2,0.7,0.184,1.383-0.05,2.05l-0.35,1.15l0.75,0.95c0.967,1.233,1.116,2.55,0.449,3.95c-0.3,0.633-0.75,1.133-1.35,1.5          c-0.6,0.4-1.25,0.6-1.95,0.6h-1.25l-0.7,1.05c-0.366,0.533-0.833,0.95-1.399,1.25c-0.533,0.267-1.067,0.4-1.601,0.4          l-0.6-0.05c-0.767-0.1-1.467-0.433-2.1-1c-0.4-0.367-0.717-0.883-0.95-1.55l-0.4-1.1L114.15,58          c-0.567-0.133-1.084-0.433-1.551-0.9c-0.566-0.533-0.933-1.2-1.1-2c-0.267-1.567,0.217-2.8,1.45-3.7l0.95-0.7l-0.051-1.25          c-0.066-1.534,0.601-2.667,2-3.4L115.9,46C116.434,45.733,116.967,45.6,117.5,45.6z"
   id="path661" />
								<path
   style="fill-rule:evenodd;clip-rule:evenodd;fill:none;stroke:#F7E0E7;stroke-width:0.25;"
   d="M117.5,45.6          c0.934,0,1.7,0.233,2.3,0.7l0.95,0.7l1.15-0.45c0.533-0.133,0.933-0.2,1.199-0.2c0.967-0.033,1.867,0.3,2.7,1          c0.5,0.5,0.833,1.1,1,1.8c0.2,0.7,0.184,1.383-0.05,2.05l-0.35,1.15l0.75,0.95c0.967,1.233,1.116,2.55,0.449,3.95          c-0.3,0.633-0.75,1.133-1.35,1.5c-0.6,0.4-1.25,0.6-1.95,0.6h-1.25l-0.7,1.05c-0.366,0.533-0.833,0.95-1.399,1.25          c-0.533,0.267-1.067,0.4-1.601,0.4l-0.6-0.05c-0.767-0.1-1.467-0.433-2.1-1c-0.4-0.367-0.717-0.883-0.95-1.55l-0.4-1.1          L114.15,58c-0.567-0.133-1.084-0.433-1.551-0.9c-0.566-0.533-0.933-1.2-1.1-2c-0.267-1.567,0.217-2.8,1.45-3.7l0.95-0.7          l-0.051-1.25c-0.066-1.534,0.601-2.667,2-3.4L115.9,46C116.434,45.733,116.967,45.6,117.5,45.6z"
   id="path663" />
							</g>
						</g>
						<path
   style="fill-rule:evenodd;clip-rule:evenodd;fill:#470B17;"
   d="M118.55,48l1.9,1.35l2.2-0.8        c0.633-0.233,1.183-0.117,1.649,0.35s0.617,1.017,0.45,1.65l-0.7,2.25l1.45,1.85c0.4,0.533,0.45,1.083,0.15,1.65        c-0.268,0.567-0.733,0.883-1.4,0.95h-2.35L120.6,59.2c-0.399,0.566-0.916,0.8-1.55,0.7c-0.333-0.033-0.633-0.183-0.899-0.45        c-0.167-0.133-0.317-0.35-0.45-0.65l-0.75-2.2l-2.25-0.65l-0.65-0.35c-0.233-0.233-0.383-0.533-0.45-0.9        c-0.166-0.633,0.033-1.167,0.601-1.6l1.899-1.4l-0.1-2.3c0-0.7,0.283-1.2,0.85-1.5C117.45,47.6,118.017,47.633,118.55,48z"
   id="path665" />
						<linearGradient
   id="SVGID_33_"
   gradientUnits="userSpaceOnUse"
   x1="124.3076"
   y1="55.5913"
   x2="114.7826"
   y2="51.2663">
							<stop
   offset="0.0235"
   style="stop-color:#808080"
   id="stop668" />
							<stop
   offset="0.7294"
   style="stop-color:#E6E6E6"
   id="stop670" />
							<stop
   offset="1"
   style="stop-color:#B3B3B3"
   id="stop672" />
						</linearGradient>
						<path
   style="fill-rule:evenodd;clip-rule:evenodd;fill:url(#SVGID_33_);"
   d="M117.2,48.55c0.333-0.167,0.633-0.133,0.899,0.1        l2.25,1.55l2.551-0.95c0.3-0.1,0.6-0.033,0.899,0.2c0.233,0.267,0.3,0.566,0.2,0.9l-0.8,2.6l1.7,2.15        c0.232,0.267,0.267,0.566,0.1,0.9s-0.434,0.5-0.8,0.5h-2.7l-1.55,2.3c-0.167,0.3-0.434,0.417-0.8,0.35        c-0.167,0-0.334-0.083-0.5-0.25c-0.067-0.033-0.134-0.15-0.2-0.35l-0.9-2.55l-2.6-0.75l-0.351-0.2        c-0.166-0.167-0.25-0.333-0.25-0.5c-0.1-0.333,0-0.617,0.301-0.85l2.199-1.6l-0.1-2.75C116.75,49.017,116.9,48.75,117.2,48.55        z"
   id="path674" />
						<path
   style="fill-rule:evenodd;clip-rule:evenodd;fill:#FFFFFF;"
   d="M117.25,49.75l0.1,2.75l-2.199,1.6        c-0.268,0.2-0.367,0.483-0.301,0.85l0.101,0.3l-0.351-0.2c-0.166-0.167-0.25-0.333-0.25-0.5c-0.1-0.333,0-0.617,0.301-0.85        l2.199-1.6l-0.1-2.75c0-0.333,0.15-0.6,0.45-0.8c0.333-0.167,0.633-0.133,0.899,0.1l0.5,0.35c-0.3-0.167-0.6-0.183-0.899-0.05        C117.4,49.117,117.25,49.383,117.25,49.75z M119.025,49.3l1.324,0.9l2.551-0.95c0.3-0.1,0.6-0.033,0.899,0.2l0.101,0.2        c-0.167-0.066-0.334-0.066-0.5,0l-2.551,0.95L119.025,49.3z"
   id="path676" />
					</g>
				</g>
			</g>
		</g>
	</g>
</g>



<g
   id="g711">
	<path
   style="fill-rule:evenodd;clip-rule:evenodd;fill:#FAD7C8;"
   d="M103.056,33.032c1.843,0,3.32,0.569,4.432,1.708   c0.976,0.976,1.463,2.087,1.463,3.333c0,1.897-0.759,3.306-2.276,4.228c1.03,0.488,1.843,1.151,2.439,1.992   c0.623,0.894,0.935,1.884,0.935,2.967c0,1.681-0.664,3.117-1.991,4.31c-1.355,1.191-3.009,1.788-4.96,1.788   c-1.924,0-3.537-0.597-4.838-1.788c-1.192-1.058-1.788-2.182-1.788-3.375c0-0.516,0.23-0.962,0.69-1.342   c0.434-0.353,0.908-0.528,1.423-0.528s1.111,0.542,1.789,1.626c0.704,1.083,1.626,1.626,2.764,1.626   c0.732,0,1.355-0.244,1.871-0.732c0.487-0.514,0.731-1.138,0.731-1.87c0-1.328-0.773-2.114-2.317-2.358   c-1.572-0.244-2.358-0.881-2.358-1.911c0-0.948,0.65-1.599,1.952-1.951c1.301-0.325,1.95-1.016,1.95-2.074   c0-0.542-0.176-0.975-0.527-1.3c-0.353-0.353-0.84-0.529-1.464-0.529c-0.922,0-1.708,0.447-2.357,1.342   c-0.624,0.894-1.22,1.341-1.789,1.341c-0.543,0-0.976-0.217-1.301-0.65c-0.325-0.379-0.488-0.84-0.488-1.382   c0-1.084,0.624-2.1,1.871-3.049C100.156,33.506,101.538,33.032,103.056,33.032z"
   id="path713" />
	
		<linearGradient
   id="SVGID_37_"
   gradientUnits="userSpaceOnUse"
   x1="-96.5405"
   y1="2690.5029"
   x2="-71.5405"
   y2="2690.5029"
   gradientTransform="matrix(3.252197e-005 -0.813 0.813 -8.130494e-004 -2084.2505 -23.1494)">
		<stop
   offset="0.2902"
   style="stop-color:#310301"
   id="stop716" />
		<stop
   offset="1"
   style="stop-color:#D91F00"
   id="stop718" />
	</linearGradient>
	<path
   style="fill-rule:evenodd;clip-rule:evenodd;fill:url(#SVGID_37_);"
   d="M108.95,37.179c0,1.87-0.759,3.279-2.276,4.228   c1.003,0.461,1.816,1.125,2.439,1.992c0.623,0.894,0.935,1.87,0.935,2.927c0,1.68-0.664,3.117-1.991,4.309   c-1.383,1.22-3.035,1.83-4.96,1.83c-1.924,0-3.537-0.597-4.838-1.789c-1.192-1.057-1.788-2.195-1.788-3.415   c0-0.515,0.23-0.962,0.69-1.341c0.434-0.353,0.908-0.529,1.423-0.529s1.111,0.542,1.789,1.626c0.704,1.084,1.626,1.626,2.764,1.626   c0.732,0,1.355-0.244,1.871-0.731c0.487-0.488,0.731-1.098,0.731-1.83c0-1.355-0.773-2.154-2.317-2.398   c-1.572-0.244-2.358-0.881-2.358-1.911c0-0.949,0.65-1.585,1.952-1.911c1.301-0.352,1.95-1.043,1.95-2.073   c0-0.542-0.176-0.989-0.527-1.342c-0.353-0.352-0.84-0.528-1.464-0.528c-0.922,0-1.708,0.461-2.357,1.382   c-0.624,0.895-1.22,1.341-1.789,1.341c-0.543,0-0.976-0.216-1.301-0.65c-0.325-0.38-0.488-0.854-0.488-1.423   c0-1.084,0.624-2.101,1.871-3.049c1.246-0.949,2.628-1.423,4.146-1.423c1.843,0,3.32,0.582,4.432,1.748   C108.463,34.82,108.95,35.932,108.95,37.179z"
   id="path720" />
</g>
<g
   id="g722">
	<path
   style="fill-rule:evenodd;clip-rule:evenodd;fill:#FAD7C8;"
   d="M77.119,35.633c0,0.813-0.257,1.396-0.771,1.749   c-0.326,0.217-0.719,0.325-1.179,0.325h-5.204l-0.407,2.927c1.003-0.189,1.694-0.285,2.073-0.285c1.653,0,3.022,0.583,4.106,1.748   c1.084,1.138,1.626,2.521,1.626,4.147c0,2.357-0.624,4.214-1.871,5.569c-1.3,1.409-3.116,2.114-5.447,2.114   c-1.247,0-2.507-0.312-3.781-0.935c-1.545-0.759-2.317-1.681-2.317-2.765c0-0.516,0.189-0.962,0.568-1.342   c0.353-0.378,0.786-0.568,1.301-0.568c0.325,0,0.949,0.298,1.87,0.894c0.949,0.596,1.762,0.894,2.439,0.894   c0.894,0,1.626-0.379,2.195-1.138c0.488-0.705,0.731-1.532,0.731-2.48c0-0.84-0.23-1.518-0.691-2.033s-1.111-0.772-1.952-0.772   c-0.568,0-1.138,0.148-1.707,0.447c-0.596,0.298-1.125,0.447-1.585,0.447c-0.488,0-0.894-0.149-1.22-0.447   c-0.271-0.271-0.407-0.542-0.407-0.813l0.773-6.789c0.163-1.057,0.406-1.761,0.732-2.114c0.271-0.353,0.745-0.529,1.423-0.529   h6.667c0.624,0,1.125,0.176,1.504,0.529C76.943,34.739,77.119,35.146,77.119,35.633z"
   id="path724" />
	
		<linearGradient
   id="SVGID_38_"
   gradientUnits="userSpaceOnUse"
   x1="-97.2002"
   y1="2650.4033"
   x2="-72.2002"
   y2="2650.4033"
   gradientTransform="matrix(3.252197e-005 -0.813 0.813 -8.130494e-004 -2084.2505 -23.1494)">
		<stop
   offset="0.2902"
   style="stop-color:#310301"
   id="stop727" />
		<stop
   offset="1"
   style="stop-color:#D91F00"
   id="stop729" />
	</linearGradient>
	<path
   style="fill-rule:evenodd;clip-rule:evenodd;fill:url(#SVGID_38_);"
   d="M75.168,36.813h-5.204l-0.407,2.927   c0.759-0.19,1.45-0.285,2.073-0.285c1.653,0,3.022,0.583,4.106,1.748c1.084,1.111,1.626,2.494,1.626,4.147   c0,2.33-0.624,4.174-1.871,5.528c-1.3,1.41-3.116,2.115-5.447,2.115c-1.247,0-2.507-0.312-3.781-0.936   c-1.545-0.732-2.317-1.653-2.317-2.765c0-0.515,0.189-0.948,0.568-1.301c0.353-0.379,0.786-0.569,1.301-0.569   c0.325,0,0.949,0.298,1.87,0.895c0.949,0.568,1.762,0.854,2.439,0.854c0.894,0,1.626-0.379,2.195-1.139   c0.488-0.704,0.731-1.531,0.731-2.479c0-0.84-0.23-1.518-0.691-2.033c-0.46-0.515-1.111-0.772-1.952-0.772   c-0.568,0-1.138,0.163-1.707,0.488c-0.596,0.298-1.125,0.448-1.585,0.448c-0.488,0-0.894-0.163-1.22-0.488   c-0.271-0.271-0.407-0.542-0.407-0.813l0.773-6.789c0.163-1.057,0.406-1.761,0.732-2.114c0.271-0.325,0.745-0.488,1.423-0.488   h6.667c0.624,0,1.125,0.163,1.504,0.488c0.352,0.325,0.528,0.746,0.528,1.26c0,0.813-0.257,1.396-0.771,1.748   C75.995,36.704,75.602,36.813,75.168,36.813z"
   id="path731" />
</g>
<g
   id="g733">
	<path
   style="fill-rule:evenodd;clip-rule:evenodd;fill:#FAD7C8;"
   d="M92.771,50.35c-1.273,2.25-3.184,3.374-5.731,3.374   c-2.547,0-4.472-1.124-5.772-3.374c-1.03-1.816-1.545-4.079-1.545-6.79c0-2.71,0.515-4.973,1.545-6.789   c1.3-2.25,3.225-3.375,5.772-3.375c2.548,0,4.458,1.125,5.731,3.375c1.058,1.843,1.586,4.106,1.586,6.789   C94.356,46.244,93.828,48.507,92.771,50.35z M87.039,49.984c2.005,0,3.008-2.141,3.008-6.423c0-4.282-1.003-6.423-3.008-6.423   c-2.006,0-3.009,2.141-3.009,6.423C84.03,47.843,85.033,49.984,87.039,49.984z"
   id="path735" />
	
		<linearGradient
   id="SVGID_39_"
   gradientUnits="userSpaceOnUse"
   x1="-96.9707"
   y1="2670.5527"
   x2="-71.9702"
   y2="2670.5527"
   gradientTransform="matrix(3.252197e-005 -0.813 0.813 -8.130494e-004 -2084.2505 -23.1494)">
		<stop
   offset="0.2902"
   style="stop-color:#310301"
   id="stop738" />
		<stop
   offset="1"
   style="stop-color:#D91F00"
   id="stop740" />
	</linearGradient>
	<path
   style="fill-rule:evenodd;clip-rule:evenodd;fill:url(#SVGID_39_);"
   d="M92.771,49.415c-1.273,2.25-3.184,3.375-5.731,3.375   c-2.547,0-4.472-1.125-5.772-3.375c-1.03-1.815-1.545-4.079-1.545-6.789c0-2.709,0.515-4.973,1.545-6.789   c1.3-2.249,3.225-3.374,5.772-3.374c2.548,0,4.458,1.125,5.731,3.374c1.058,1.843,1.586,4.106,1.586,6.789   C94.356,45.309,93.828,47.572,92.771,49.415z M87.039,49.049c2.005,0,3.008-2.141,3.008-6.423c0-4.282-1.003-6.423-3.008-6.423   c-2.006,0-3.009,2.141-3.009,6.423C84.03,46.908,85.033,49.049,87.039,49.049z"
   id="path742" />
</g>
<g
   id="g744">
	
		<use
   xlink:href="#FlashAICB_x2F_Layer_1_x2F__x3C_Path_x3E__x5F_1_x5F_0"
   width="109.85"
   height="55.7"
   y="-55.7"
   transform="matrix(1 0 0 -1 30.5498 26.3501)"
   style="overflow:visible;opacity:0.1992;enable-background:new    ;"
   id="use746" />
	
		<use
   xlink:href="#FlashAICB_x2F_Layer_1_x2F__x3C_Path_x3E__x5F_0"
   width="109.85"
   height="61.194"
   y="-61.194"
   transform="matrix(1 0 0 -1 30.5498 26.3501)"
   style="overflow:visible;opacity:0.1211;enable-background:new    ;"
   id="use748" />
</g>
</svg>