<?xml version="1.0" encoding="iso-8859-1"?>
<!-- Generator: Adobe Illustrator 15.1.0, SVG Export Plug-In . SVG Version: 6.00 Build 0)  -->
<!DOCTYPE svg PUBLIC "-//W3C//DTD SVG 1.1//EN" "http://www.w3.org/Graphics/SVG/1.1/DTD/svg11.dtd">
<svg version="1.1" id="Layer_1" xmlns="http://www.w3.org/2000/svg" xmlns:xlink="http://www.w3.org/1999/xlink" x="0px" y="0px"
	 width="171.7px" height="171.8px" viewBox="0 0 171.7 171.8" style="enable-background:new 0 0 171.7 171.8;" xml:space="preserve"
	>
<symbol  id="FlashAICB_x2F_Layer_1_x2F__x3C_Clip_Group_0_x3E_" viewBox="0 -20.3 26.9 20.3">
	<g id="Layer_1_3_">
	</g>
	<g>
		<defs>
			<polygon id="SVGID_1_" points="3.75,0 0,-14.25 23.2,-20.3 26.9,-6.05 			"/>
		</defs>
		<clipPath id="SVGID_2_">
			<use xlink:href="#SVGID_1_"  style="overflow:visible;"/>
		</clipPath>
		<g id="Layer_3_1_" style="clip-path:url(#SVGID_2_);">
		</g>
	</g>
	<g id="Layer_4_1_">
	</g>
</symbol>
<symbol  id="FlashAICB_x2F_Layer_1_x2F__x3C_Clip_Group_0_x3E__x5F_0" viewBox="0 -92.15 92.3 92.15">
	<g id="Layer_1_4_">
	</g>
	<g>
		<defs>
			<path id="SVGID_3_" d="M66.7-34.05c-3.333,5.667-8.184,9.333-14.55,11c-6.367,1.667-12.383,0.833-18.05-2.5
				c-5.7-3.3-9.383-8.133-11.05-14.5c-1.633-6.367-0.783-12.383,2.55-18.05c3.333-5.667,8.183-9.333,14.55-11
				c6.333-1.667,12.35-0.833,18.05,2.5c5.7,3.3,9.367,8.133,11,14.5C70.867-45.733,70.033-39.717,66.7-34.05z"/>
		</defs>
		<clipPath id="SVGID_4_">
			<use xlink:href="#SVGID_3_"  style="overflow:visible;"/>
		</clipPath>
		<g id="Layer_3_2_" style="clip-path:url(#SVGID_4_);">
			
				<radialGradient id="SVGID_5_" cx="45.6499" cy="-45.5" r="19.8004" gradientTransform="matrix(0.5056 -0.8628 0.8632 0.5058 61.8462 16.8999)" gradientUnits="userSpaceOnUse">
				<stop  offset="0" style="stop-color:#DFF3F5"/>
				<stop  offset="0.4275" style="stop-color:#DDF2F4"/>
				<stop  offset="0.6588" style="stop-color:#D4F0F2"/>
				<stop  offset="0.8431" style="stop-color:#C6EBEE"/>
				<stop  offset="1" style="stop-color:#B1E4E8"/>
				<stop  offset="1" style="stop-color:#B1E4E8"/>
			</radialGradient>
			<polygon style="fill-rule:evenodd;clip-rule:evenodd;fill:url(#SVGID_5_);" points="58.15,0 92.3,-58.15 34.1,-92.15 0,-34 			
				"/>
		</g>
	</g>
	<g id="Layer_4_2_">
	</g>
</symbol>
<symbol  id="FlashAICB_x2F_Layer_1_x2F__x3C_Clip_Group_0_x3E__x5F_1" viewBox="0 -31.9 42.25 31.9">
	<g id="Layer_1_6_">
	</g>
	<g>
		<defs>
			<polygon id="SVGID_6_" points="5.85,0 0,-22.4 36.4,-31.9 42.25,-9.55 			"/>
		</defs>
		<clipPath id="SVGID_7_">
			<use xlink:href="#SVGID_6_"  style="overflow:visible;"/>
		</clipPath>
		<g id="Layer_3_3_" style="clip-path:url(#SVGID_7_);">
			<path style="fill-rule:evenodd;clip-rule:evenodd;fill:#FFFFFF;" d="M7.5-22.3c-2.384,1.875-4.268,3.826-5.65,5.85
				c1.043-1.456,2.644-2.856,4.8-4.2c4.633-2.9,10.217-4.05,16.75-3.45c5.867,0.533,10.75,3.117,14.65,7.75
				c1.934,2.333,3.284,4.617,4.05,6.85c-0.2-2.467-1.133-5.05-2.8-7.75c-3.3-5.4-8.633-8.633-16-9.7
				C17.767-27.75,12.5-26.2,7.5-22.3z"/>
		</g>
	</g>
	<g id="Layer_4_3_">
	</g>
</symbol>
<symbol  id="FlashAICB_x2F_Layer_1_x2F__x3C_Clip_Group_0_x3E__x5F_2" viewBox="0 -12.95 17.2 12.95">
	<g id="Layer_1_7_">
	</g>
	<g>
		<defs>
			<polygon id="SVGID_8_" points="2.4,0 0,-9.1 14.8,-12.95 17.2,-3.85 			"/>
		</defs>
		<clipPath id="SVGID_9_">
			<use xlink:href="#SVGID_8_"  style="overflow:visible;"/>
		</clipPath>
		<g id="Layer_3_4_" style="clip-path:url(#SVGID_9_);">
		</g>
	</g>
	<g id="Layer_4_4_">
	</g>
</symbol>
<symbol  id="FlashAICB_x2F_Layer_1_x2F__x3C_Clip_Group_0_x3E__x5F_3" viewBox="0 -58.85 59 58.85">
	<g id="Layer_1_8_">
	</g>
	<g>
		<defs>
			<path id="SVGID_10_" d="M42.65-21.75c-2.133,3.633-5.233,5.983-9.3,7.05c-4.067,1.067-7.917,0.534-11.55-1.6
				c-3.633-2.1-5.983-5.184-7.05-9.25c-1.033-4.067-0.5-7.917,1.6-11.55c2.133-3.633,5.233-5.983,9.3-7.05
				c4.067-1.067,7.917-0.533,11.55,1.6c3.667,2.133,6.017,5.233,7.05,9.3C45.317-29.183,44.783-25.35,42.65-21.75z"/>
		</defs>
		<clipPath id="SVGID_11_">
			<use xlink:href="#SVGID_10_"  style="overflow:visible;"/>
		</clipPath>
		<g id="Layer_3_5_" style="clip-path:url(#SVGID_11_);">
			
				<radialGradient id="SVGID_12_" cx="29.1499" cy="-29.0498" r="12.6958" gradientTransform="matrix(0.5053 -0.8629 0.8621 0.5048 39.4619 10.7695)" gradientUnits="userSpaceOnUse">
				<stop  offset="0" style="stop-color:#DFF3F5"/>
				<stop  offset="0.4275" style="stop-color:#DDF2F4"/>
				<stop  offset="0.6588" style="stop-color:#D4F0F2"/>
				<stop  offset="0.8431" style="stop-color:#C6EBEE"/>
				<stop  offset="1" style="stop-color:#B1E4E8"/>
				<stop  offset="1" style="stop-color:#B1E4E8"/>
			</radialGradient>
			<polygon style="fill-rule:evenodd;clip-rule:evenodd;fill:url(#SVGID_12_);" points="37.2,0 59,-37.1 21.8,-58.85 0,-21.7 			"/>
		</g>
	</g>
	<g id="Layer_4_5_">
	</g>
</symbol>
<symbol  id="FlashAICB_x2F_Layer_1_x2F__x3C_Clip_Group_0_x3E__x5F_4" viewBox="0 -20.35 27 20.35">
	<g id="Layer_1_10_">
	</g>
	<g>
		<defs>
			<polygon id="SVGID_13_" points="3.75,0 0,-14.3 23.25,-20.35 27,-6.05 			"/>
		</defs>
		<clipPath id="SVGID_14_">
			<use xlink:href="#SVGID_13_"  style="overflow:visible;"/>
		</clipPath>
		<g id="Layer_3_6_" style="clip-path:url(#SVGID_14_);">
			<path style="fill-rule:evenodd;clip-rule:evenodd;fill:#FFFFFF;" d="M26.9-6.05c-0.133-1.6-0.733-3.25-1.8-4.95
				c-2.1-3.433-5.5-5.5-10.2-6.2c-3.533-0.533-6.9,0.467-10.1,3c-1.526,1.177-2.734,2.41-3.625,3.7c0.675-0.925,1.7-1.825,3.075-2.7
				c2.967-1.833,6.533-2.566,10.7-2.2c3.767,0.367,6.883,2.033,9.35,5C25.533-8.933,26.4-7.483,26.9-6.05z"/>
		</g>
	</g>
	<g id="Layer_4_6_">
	</g>
</symbol>
<symbol  id="FlashAICB_x2F_Layer_1_x2F__x3C_Clip_Group_0_x3E__x5F_5" viewBox="0 -5.3 7.1 5.3">
	<g id="Layer_1_11_">
	</g>
	<g>
		<defs>
			<polygon id="SVGID_15_" points="1,0 0,-3.75 6.1,-5.3 7.1,-1.6 			"/>
		</defs>
		<clipPath id="SVGID_16_">
			<use xlink:href="#SVGID_15_"  style="overflow:visible;"/>
		</clipPath>
		<g id="Layer_3_7_" style="clip-path:url(#SVGID_16_);">
		</g>
	</g>
	<g id="Layer_4_7_">
	</g>
</symbol>
<symbol  id="FlashAICB_x2F_Layer_1_x2F__x3C_Clip_Group_0_x3E__x5F_6" viewBox="0 -24.2 24.25 24.2">
	<g id="Layer_1_12_">
	</g>
	<g>
		<defs>
			<path id="SVGID_17_" d="M17.55-8.95c-0.9,1.5-2.183,2.467-3.85,2.9c-1.667,0.433-3.25,0.216-4.75-0.65s-2.467-2.133-2.9-3.8
				c-0.433-1.667-0.216-3.25,0.65-4.75c0.9-1.467,2.183-2.433,3.85-2.9c1.667-0.434,3.25-0.217,4.75,0.65
				c1.5,0.9,2.467,2.183,2.9,3.85C18.633-11.983,18.417-10.417,17.55-8.95z"/>
		</defs>
		<clipPath id="SVGID_18_">
			<use xlink:href="#SVGID_17_"  style="overflow:visible;"/>
		</clipPath>
		<g id="Layer_3_8_" style="clip-path:url(#SVGID_18_);">
			
				<radialGradient id="SVGID_19_" cx="12" cy="-11.9502" r="5.1881" gradientTransform="matrix(0.5054 -0.8629 0.8647 0.5065 16.2681 4.4575)" gradientUnits="userSpaceOnUse">
				<stop  offset="0" style="stop-color:#DFF3F5"/>
				<stop  offset="0.4275" style="stop-color:#DDF2F4"/>
				<stop  offset="0.6588" style="stop-color:#D4F0F2"/>
				<stop  offset="0.8431" style="stop-color:#C6EBEE"/>
				<stop  offset="1" style="stop-color:#B1E4E8"/>
				<stop  offset="1" style="stop-color:#B1E4E8"/>
			</radialGradient>
			<polygon style="fill-rule:evenodd;clip-rule:evenodd;fill:url(#SVGID_19_);" points="15.3,0 24.25,-15.25 8.95,-24.2 0,-8.9 			
				"/>
		</g>
	</g>
	<g id="Layer_4_8_">
	</g>
</symbol>
<symbol  id="FlashAICB_x2F_Layer_1_x2F__x3C_Clip_Group_0_x3E__x5F_7" viewBox="0 -8.4 11.15 8.4">
	<g id="Layer_1_14_">
	</g>
	<g>
		<defs>
			<polygon id="SVGID_20_" points="1.55,0 0,-5.9 9.6,-8.4 11.15,-2.5 			"/>
		</defs>
		<clipPath id="SVGID_21_">
			<use xlink:href="#SVGID_20_"  style="overflow:visible;"/>
		</clipPath>
		<g id="Layer_3_9_" style="clip-path:url(#SVGID_21_);">
			<path style="fill-rule:evenodd;clip-rule:evenodd;fill:#FFFFFF;" d="M11.1-2.5c-0.033-0.667-0.283-1.35-0.75-2.05
				C9.483-5.95,8.083-6.8,6.15-7.1C4.683-7.3,3.3-6.883,2-5.85C1.363-5.373,0.863-4.864,0.5-4.325C0.771-4.7,1.188-5.075,1.75-5.45
				c1.233-0.733,2.717-1.033,4.45-0.9c1.533,0.133,2.816,0.817,3.85,2.05C10.55-3.7,10.9-3.1,11.1-2.5z"/>
		</g>
	</g>
	<g id="Layer_4_9_">
	</g>
</symbol>
<symbol  id="FlashAICB_x2F_Layer_1_x2F__x3C_Group_x3E_" viewBox="0 -20.3 26.9 20.3">
	<g id="Layer_1_19_">
		<g>
			
				<use xlink:href="#FlashAICB_x2F_Layer_1_x2F__x3C_Clip_Group_0_x3E_"  width="26.9" height="20.3" y="-20.3" style="overflow:visible;"/>
		</g>
	</g>
</symbol>
<symbol  id="FlashAICB_x2F_Layer_1_x2F__x3C_Group_x3E__x5F_0" viewBox="0 -31.9 42.25 31.9">
	<g id="Layer_1_20_">
		<g>
			
				<use xlink:href="#FlashAICB_x2F_Layer_1_x2F__x3C_Clip_Group_0_x3E__x5F_1"  width="42.25" height="31.9" y="-31.9" style="overflow:visible;"/>
		</g>
	</g>
</symbol>
<symbol  id="FlashAICB_x2F_Layer_1_x2F__x3C_Group_x3E__x5F_1" viewBox="-0.067 -49.517 49.633 49.583">
	<g id="Layer_1_5_">
		<g>
			<g>
				<g>
					<path style="fill-rule:evenodd;clip-rule:evenodd;fill:#FFFFFF;" d="M44.5-13.2c-3.2,5.467-7.867,9-14,10.6
						C24.4-1,18.617-1.8,13.15-5c-5.467-3.167-9-7.817-10.6-13.95C0.95-25.05,1.767-30.833,5-36.3c3.2-5.434,7.85-8.95,13.95-10.55
						c6.133-1.6,11.933-0.8,17.4,2.4c5.467,3.167,8.983,7.817,10.55,13.95C48.5-24.4,47.7-18.633,44.5-13.2z M48.7-31
						c-1.733-6.567-5.55-11.583-11.45-15.05c-5.9-3.467-12.15-4.333-18.75-2.6S6.867-43.1,3.4-37.2
						c-3.467,5.9-4.333,12.15-2.6,18.75C2.533-11.883,6.35-6.867,12.25-3.4S24.4,0.933,31-0.8c6.6-1.733,11.633-5.55,15.1-11.45
						S50.433-24.4,48.7-31z"/>
				</g>
			</g>
		</g>
	</g>
</symbol>
<symbol  id="FlashAICB_x2F_Layer_1_x2F__x3C_Group_x3E__x5F_1_x5F_0" viewBox="-0.045 -31.65 31.695 31.672">
	<g id="Layer_1_9_">
		<g>
			<g>
				<g>
					<path style="fill-rule:evenodd;clip-rule:evenodd;fill:#FFFFFF;" d="M28.45-8.4c-2.067,3.467-5.05,5.717-8.95,6.75
						S11.9-1.133,8.4-3.2c-3.5-2.033-5.75-5-6.75-8.9C0.617-16,1.133-19.7,3.2-23.2c2.033-3.466,5-5.716,8.9-6.75
						c3.933-1.033,7.65-0.517,11.15,1.55c3.467,2.033,5.717,5,6.75,8.9C31-15.6,30.483-11.9,28.45-8.4z M31.1-19.8
						c-1.1-4.233-3.533-7.45-7.3-9.65c-3.767-2.2-7.767-2.75-12-1.65c-4.2,1.1-7.4,3.533-9.6,7.3c-2.233,3.767-2.8,7.767-1.7,12
						c1.1,4.2,3.533,7.4,7.3,9.6c3.8,2.233,7.8,2.784,12,1.65c4.233-1.1,7.45-3.534,9.65-7.3C31.65-11.617,32.2-15.6,31.1-19.8z"/>
				</g>
			</g>
		</g>
	</g>
</symbol>
<symbol  id="FlashAICB_x2F_Layer_1_x2F__x3C_Group_x3E__x5F_1_x5F_1" viewBox="-0.011 -12.989 13.05 13.022">
	<g id="Layer_1_13_">
		<g>
			<g>
				<g>
					<path style="fill-rule:evenodd;clip-rule:evenodd;fill:#FFFFFF;" d="M11.7-3.45c-0.833,1.434-2.05,2.367-3.65,2.8
						c-1.633,0.4-3.167,0.183-4.6-0.65C2.017-2.133,1.1-3.35,0.7-4.95C0.267-6.55,0.483-8.067,1.35-9.5
						C2.183-10.933,3.4-11.867,5-12.3c1.6-0.434,3.117-0.217,4.55,0.65c1.434,0.833,2.367,2.05,2.8,3.65
						C12.783-6.4,12.567-4.883,11.7-3.45z M12.8-8.15c-0.466-1.733-1.466-3.05-3-3.95c-1.566-0.9-3.216-1.117-4.95-0.65
						c-1.733,0.433-3.05,1.433-3.95,3C0-8.217-0.233-6.583,0.2-4.85c0.433,1.733,1.433,3.05,3,3.95
						c1.566,0.933,3.216,1.167,4.95,0.7c1.733-0.466,3.067-1.466,4-3C13.05-4.733,13.267-6.383,12.8-8.15z"/>
				</g>
			</g>
		</g>
	</g>
</symbol>
<symbol  id="FlashAICB_x2F_Layer_1_x2F__x3C_Group_x3E__x5F_2" viewBox="0 -12.95 17.2 12.95">
	<g id="Layer_1_21_">
		<g>
			
				<use xlink:href="#FlashAICB_x2F_Layer_1_x2F__x3C_Clip_Group_0_x3E__x5F_2"  width="17.2" height="12.95" y="-12.95" style="overflow:visible;"/>
		</g>
	</g>
</symbol>
<symbol  id="FlashAICB_x2F_Layer_1_x2F__x3C_Group_x3E__x5F_3" viewBox="0 -20.35 27 20.35">
	<g id="Layer_1_22_">
		<g>
			
				<use xlink:href="#FlashAICB_x2F_Layer_1_x2F__x3C_Clip_Group_0_x3E__x5F_4"  width="27" height="20.35" y="-20.35" style="overflow:visible;"/>
		</g>
	</g>
</symbol>
<symbol  id="FlashAICB_x2F_Layer_1_x2F__x3C_Group_x3E__x5F_4" viewBox="0 -5.3 7.1 5.3">
	<g id="Layer_1_23_">
		<g>
			
				<use xlink:href="#FlashAICB_x2F_Layer_1_x2F__x3C_Clip_Group_0_x3E__x5F_5"  width="7.1" height="5.3" y="-5.3" style="overflow:visible;"/>
		</g>
	</g>
</symbol>
<symbol  id="FlashAICB_x2F_Layer_1_x2F__x3C_Group_x3E__x5F_5" viewBox="0 -8.4 11.15 8.4">
	<g id="Layer_1_24_">
		<g>
			
				<use xlink:href="#FlashAICB_x2F_Layer_1_x2F__x3C_Clip_Group_0_x3E__x5F_7"  width="11.15" height="8.4" y="-8.4" style="overflow:visible;"/>
		</g>
	</g>
</symbol>
<symbol  id="FlashAICB_x2F_Layer_1_x2F__x3C_Group_x3E__x5F_6" viewBox="0 -41.835 40.034 41.857">
	<g id="Layer_1_15_">
		<g>
			<path style="fill-rule:evenodd;clip-rule:evenodd;fill:#373E21;" d="M20.55-1.05c0.3,0.633,0.567,0.983,0.8,1.05
				c0.5,0.1,0.833-0.133,1-0.7c0.1-0.433,0.117-0.917,0.05-1.45c-0.167-1.333-0.383-2.35-0.65-3.05
				c-0.567-1.466-1.05-2.583-1.45-3.35c1.567-0.9,2.917-1.8,4.05-2.7c1.8-1.4,2.583-2.35,2.35-2.85l-0.1-0.05L20.65-30.4l0.5-0.1
				c0.434,0.067,1,0.55,1.7,1.45c0.867,1.167,1.6,1.95,2.2,2.35c0.8,0.6,1.934,1.417,3.4,2.45l0.3,3.35
				c-0.267,1.267-0.033,2.117,0.7,2.55c0.833,0.467,2,0.3,3.5-0.5c1.5-0.8,2.933-1.983,4.3-3.55c1.333-1.567,2.2-3.083,2.6-4.55
				c0.3-1.066,0.233-1.883-0.2-2.45l-0.45-0.4c-0.333-0.2-0.767-0.267-1.3-0.2l-7.45,1.3l-0.1,0.05h-0.1l-0.1,0.05l-0.85-0.85
				c-0.9-0.9-1.683-1.767-2.35-2.6c-2.434-2.934-4.833-4.833-7.2-5.7c-0.733-0.267-1.383-0.417-1.95-0.45l-1-2.65
				c-0.566-1.066-2.35-1.267-5.35-0.6C8.55-40.817,5.133-39.5,1.2-37.5L0-36.8c0.167,0.233,0.3,0.483,0.4,0.75
				c0.434,1,1.133,2.383,2.1,4.15c1.133,2,1.883,3.383,2.25,4.15c1.867,4,3.8,7.217,5.8,9.65c1.333,1.633,2.917,4.233,4.75,7.8
				c1.867,3.7,3.4,6.333,4.6,7.9L20.55-1.05z"/>
		</g>
	</g>
</symbol>
<symbol  id="FlashAICB_x2F_Layer_1_x2F__x3C_Group_x3E__x5F_7" viewBox="0 -66.417 119.2 66.417">
	<g id="Layer_1_25_">
		<g>
			
				<use xlink:href="#FlashAICB_x2F_Layer_1_x2F__x3C_Path_x3E__x5F_1_x5F_0"  width="119.2" height="60.45" y="-60.45" style="overflow:visible;opacity:0.1992;enable-background:new    ;"/>
			
				<use xlink:href="#FlashAICB_x2F_Layer_1_x2F__x3C_Path_x3E__x5F_0"  width="119.2" height="66.417" y="-66.417" style="overflow:visible;opacity:0.1211;enable-background:new    ;"/>
		</g>
	</g>
</symbol>
<symbol  id="FlashAICB_x2F_Layer_1_x2F__x3C_Path_x3E_" viewBox="0 -61.9 128.6 61.9">
	<g id="Layer_1_16_">
		
			<radialGradient id="SVGID_22_" cx="64.2998" cy="-30.9502" r="50.4599" gradientTransform="matrix(1 0 0 -1 0 -61.9004)" gradientUnits="userSpaceOnUse">
			<stop  offset="0" style="stop-color:#C5EEE7;stop-opacity:0"/>
			<stop  offset="0.0745" style="stop-color:#C2E9DD;stop-opacity:0.0588"/>
			<stop  offset="0.2039" style="stop-color:#BAD9C3;stop-opacity:0.2196"/>
			<stop  offset="0.3725" style="stop-color:#ADC098;stop-opacity:0.4824"/>
			<stop  offset="0.5725" style="stop-color:#9A9E5E;stop-opacity:0.8431"/>
			<stop  offset="0.651" style="stop-color:#939047"/>
		</radialGradient>
		<path style="fill-rule:evenodd;clip-rule:evenodd;fill:url(#SVGID_22_);" d="M128.05-0.3L128.6,0
			c-0.633-17.233-7.167-31.85-19.6-43.85C96.533-55.883,81.617-61.9,64.25-61.9c-17.033,0-31.733,5.816-44.1,17.45
			C7.817-32.883,1.1-18.683,0-1.85c5-13,13.217-23.5,24.65-31.5c11.7-8.2,24.733-12.3,39.1-12.3c14.633,0,27.883,4.25,39.75,12.75
			C115.1-24.567,123.283-13.7,128.05-0.3z"/>
	</g>
</symbol>
<symbol  id="FlashAICB_x2F_Layer_1_x2F__x3C_Path_x3E__x5F_0" viewBox="0 -66.417 119.2 66.417">
	<g id="Layer_1_18_">
		<path style="fill-rule:evenodd;clip-rule:evenodd;fill:#FFFFFF;" d="M115.4-37.25c2.533-6.1,3.8-11.85,3.8-17.25
			c0-5.367-1.567-8.75-4.7-10.15c-2.533-1.133-6.783-1.117-12.75,0.05c-7.867,1.9-14.183,3.367-18.95,4.4
			c-8.667,1.833-16.4,2.75-23.2,2.75c-6.833,0-14.567-1-23.2-3c-9.033-2.367-15.35-3.966-18.95-4.8c-6-1.367-10.25-1.533-12.75-0.5
			C1.567-64.483,0-61.167,0-55.8c0,5.933,1.267,12.066,3.8,18.4c2.7,6.7,6.467,12.733,11.3,18.1C26.733-6.433,41.567,0,59.6,0
			c17.833,0,32.65-6.483,44.45-19.45C108.883-24.783,112.667-30.717,115.4-37.25z"/>
	</g>
</symbol>
<symbol  id="FlashAICB_x2F_Layer_1_x2F__x3C_Path_x3E__x5F_1" viewBox="0 -128.55 128.8 128.55">
	<g id="Layer_1_2_">
		
			<radialGradient id="SVGID_23_" cx="64.3999" cy="-64.2749" r="64.3374" gradientTransform="matrix(1 0 0 -1 0 -128.5498)" gradientUnits="userSpaceOnUse">
			<stop  offset="0" style="stop-color:#C5EEE7"/>
			<stop  offset="0.0863" style="stop-color:#BAE7E1"/>
			<stop  offset="0.2392" style="stop-color:#9DD5CF"/>
			<stop  offset="0.4353" style="stop-color:#6CB7B2"/>
			<stop  offset="0.6078" style="stop-color:#3A9A96"/>
			<stop  offset="0.8039" style="stop-color:#3C9A96"/>
			<stop  offset="0.8745" style="stop-color:#459A96"/>
			<stop  offset="0.9255" style="stop-color:#549A96"/>
			<stop  offset="0.9686" style="stop-color:#689B96"/>
			<stop  offset="1" style="stop-color:#7E9B96"/>
		</radialGradient>
		<path style="fill-rule:evenodd;clip-rule:evenodd;fill:url(#SVGID_23_);" d="M128.8-64.25c0-17.767-6.283-32.917-18.85-45.45
			c-12.567-12.566-27.75-18.85-45.55-18.85c-17.767,0-32.95,6.283-45.55,18.85C6.283-97.167,0-82.017,0-64.25
			C0-46.517,6.283-31.367,18.85-18.8C31.45-6.267,46.633,0,64.4,0c17.8,0,32.983-6.267,45.55-18.8
			C122.517-31.333,128.8-46.483,128.8-64.25z"/>
	</g>
</symbol>
<symbol  id="FlashAICB_x2F_Layer_1_x2F__x3C_Path_x3E__x5F_1_x5F_0" viewBox="0 -60.45 119.2 60.45">
	<g id="Layer_1_17_">
		
			<linearGradient id="SVGID_24_" gradientUnits="userSpaceOnUse" x1="16160.6563" y1="-58.4668" x2="16221.0479" y2="-58.4668" gradientTransform="matrix(1.654944e-005 1 -1 -0.001 0.8657 -16221.1064)">
			<stop  offset="0.1294" style="stop-color:#E8B8B3"/>
			<stop  offset="0.9255" style="stop-color:#FFFFFF"/>
		</linearGradient>
		<path style="fill-rule:evenodd;clip-rule:evenodd;fill:url(#SVGID_24_);" d="M104.05-19.45c4.833-5.333,8.617-11.267,11.35-17.8
			c2.533-6.1,3.8-11.85,3.8-17.25c0-1.9-0.167-3.5-0.5-4.8c-2,11.966-7.85,22.6-17.55,31.9c-11.433,11-25.283,16.5-41.55,16.5
			c-16.5,0-30.4-5.483-41.7-16.45C8.133-36.783,2.333-47.817,0.5-60.45C0.167-59.217,0-57.667,0-55.8c0,5.933,1.267,12.066,3.8,18.4
			c2.7,6.7,6.467,12.733,11.3,18.1C26.733-6.433,41.567,0,59.6,0C77.433,0,92.25-6.483,104.05-19.45z"/>
	</g>
</symbol>
<g>
	<path style="fill-rule:evenodd;clip-rule:evenodd;fill:#FFFFFF;" d="M171.7,85.9c0,11.633-2.25,22.767-6.75,33.4
		c-4.367,10.267-10.517,19.367-18.45,27.3c-7.934,7.934-17.033,14.084-27.3,18.45c-10.634,4.5-21.767,6.75-33.4,6.75
		c-11.633,0-22.767-2.25-33.4-6.75c-10.267-4.366-19.35-10.517-27.25-18.45c-7.933-7.933-14.066-17.033-18.4-27.3
		C2.25,108.667,0,97.533,0,85.9s2.25-22.767,6.75-33.4c4.333-10.267,10.467-19.367,18.4-27.3c7.934-7.934,17.017-14.083,27.25-18.45
		C63.033,2.25,74.167,0,85.8,0c11.634,0,22.767,2.25,33.4,6.75c10.267,4.367,19.366,10.517,27.3,18.45
		c7.934,7.933,14.083,17.033,18.45,27.3C169.45,63.133,171.7,74.267,171.7,85.9z"/>
	<g>
		<g>
			
				<linearGradient id="SVGID_25_" gradientUnits="userSpaceOnUse" x1="-157.6851" y1="85.8257" x2="-14.2856" y2="85.8257" gradientTransform="matrix(6.973501e-006 -1 1 -0.001 -1.064519e-004 4.449275e-004)">
				<stop  offset="0.0745" style="stop-color:#46583A"/>
				<stop  offset="0.2863" style="stop-color:#547136"/>
				<stop  offset="0.4784" style="stop-color:#638C35"/>
				<stop  offset="1" style="stop-color:#FFE2E1"/>
			</linearGradient>
			<path style="fill-rule:evenodd;clip-rule:evenodd;fill:url(#SVGID_25_);" d="M113.7,19.85c8.566,3.633,16.166,8.75,22.8,15.35
				c6.6,6.633,11.717,14.233,15.35,22.8c3.767,8.9,5.65,18.2,5.65,27.9s-1.884,19-5.65,27.9c-3.633,8.567-8.75,16.167-15.35,22.8
				c-6.634,6.601-14.233,11.717-22.8,15.351c-8.9,3.767-18.2,5.649-27.9,5.649c-9.7,0-19-1.883-27.9-5.649
				c-8.566-3.634-16.15-8.75-22.75-15.351c-6.6-6.633-11.717-14.232-15.35-22.8c-3.767-8.899-5.65-18.2-5.65-27.9
				s1.883-19,5.65-27.9c3.6-8.566,8.717-16.167,15.35-22.8c6.6-6.6,14.184-11.717,22.75-15.35c8.9-3.767,18.2-5.65,27.9-5.65
				C95.5,14.2,104.8,16.083,113.7,19.85z"/>
			<path style="fill-rule:evenodd;clip-rule:evenodd;fill:#21230F;" d="M113.35,20.65c-8.767-3.7-17.949-5.55-27.55-5.55
				c-19.533,0-36.216,6.917-50.05,20.75c-6.5,6.533-11.55,14.033-15.15,22.5c-3.7,8.767-5.55,17.95-5.55,27.55
				s1.85,18.784,5.55,27.55c3.566,8.467,8.617,15.967,15.15,22.5s14.033,11.6,22.5,15.2c8.767,3.699,17.95,5.55,27.55,5.55
				c9.601,0,18.783-1.851,27.55-5.55c8.467-3.601,15.967-8.667,22.5-15.2c6.534-6.533,11.601-14.033,15.2-22.5
				c3.7-8.767,5.55-17.95,5.55-27.55s-1.85-18.783-5.55-27.55c-3.6-8.467-8.666-15.967-15.2-22.5
				C129.316,29.317,121.816,24.25,113.35,20.65z M85.8,13.3c9.7,0,18.967,1.833,27.8,5.5c8.867,3.667,16.717,8.917,23.551,15.75
				c6.866,6.867,12.116,14.717,15.75,23.55c3.666,8.833,5.5,18.1,5.5,27.8s-1.834,18.967-5.5,27.8
				c-3.634,8.833-8.884,16.684-15.75,23.55c-6.834,6.867-14.684,12.117-23.551,15.75c-8.833,3.667-18.1,5.5-27.8,5.5
				c-9.7,0-18.966-1.833-27.8-5.5c-8.833-3.633-16.683-8.883-23.55-15.75c-6.833-6.866-12.083-14.717-15.75-23.55
				c-3.633-8.833-5.45-18.101-5.45-27.8s1.817-18.966,5.45-27.8c3.667-8.867,8.917-16.717,15.75-23.55
				C41.317,27.684,49.167,22.434,58,18.8C66.833,15.133,76.1,13.3,85.8,13.3z"/>
		</g>
		
			<use xlink:href="#FlashAICB_x2F_Layer_1_x2F__x3C_Path_x3E__x5F_1"  width="128.8" height="128.55" y="-128.55" transform="matrix(1 0 0 -1 21.3999 19.2998)" style="overflow:visible;opacity:0.3789;enable-background:new    ;"/>
		<g>
			<g>
				<g>
					<path style="fill-rule:evenodd;clip-rule:evenodd;fill:#EEF3DC;" d="M75.65,32.1c-0.8,0-1.417-0.25-1.85-0.75
						c-0.4-0.467-0.6-1.033-0.6-1.7c0-0.667,0.216-1.233,0.65-1.7c0.467-0.5,1.066-0.75,1.8-0.75h5.05c0.733,0,1.316,0.25,1.75,0.75
						c0.433,0.433,0.65,1.017,0.65,1.75v20.25c0,0.866-0.25,1.566-0.75,2.1c-0.5,0.467-1.15,0.7-1.95,0.7
						c-0.767,0-1.4-0.233-1.9-0.7c-0.5-0.533-0.75-1.233-0.75-2.1V32.1H75.65z"/>
				</g>
				<g>
					
						<linearGradient id="SVGID_26_" gradientUnits="userSpaceOnUse" x1="-51.23" y1="78.1523" x2="-25.6753" y2="78.1523" gradientTransform="matrix(3.913894e-005 -1 1 -0.001 -7.314169e-005 -4.747650e-005)">
						<stop  offset="0.149" style="stop-color:#062809"/>
						<stop  offset="0.302" style="stop-color:#0C2F0B"/>
						<stop  offset="0.5176" style="stop-color:#1C4111"/>
						<stop  offset="0.7765" style="stop-color:#36601B"/>
						<stop  offset="0.9686" style="stop-color:#4E7C25"/>
					</linearGradient>
					<path style="fill-rule:evenodd;clip-rule:evenodd;fill:url(#SVGID_26_);" d="M75.65,30.5c-0.8,0-1.417-0.25-1.85-0.75
						c-0.4-0.467-0.6-1.033-0.6-1.7c0-0.667,0.216-1.233,0.65-1.7c0.467-0.5,1.066-0.75,1.8-0.75h5.05c0.733,0,1.316,0.25,1.75,0.75
						c0.433,0.467,0.65,1.066,0.65,1.8V48.4c0,0.867-0.25,1.55-0.75,2.05c-0.5,0.466-1.15,0.7-1.95,0.7c-0.767,0-1.4-0.233-1.9-0.7
						c-0.5-0.5-0.75-1.184-0.75-2.05V30.5H75.65z"/>
				</g>
			</g>
			<g>
				<g>
					<path style="fill-rule:evenodd;clip-rule:evenodd;fill:#EEF3DC;" d="M97.8,27.95c0.4,0.433,0.601,1.017,0.601,1.75v20.25
						c0,0.866-0.25,1.566-0.75,2.1c-0.5,0.467-1.134,0.7-1.9,0.7c-0.8,0-1.45-0.233-1.95-0.7c-0.5-0.533-0.75-1.233-0.75-2.1V32.1
						h-2.1c-0.8,0-1.417-0.25-1.851-0.75c-0.366-0.467-0.55-1.033-0.55-1.7c0-0.667,0.217-1.233,0.65-1.7
						c0.434-0.5,1.017-0.75,1.75-0.75H96C96.767,27.2,97.366,27.45,97.8,27.95z"/>
				</g>
				<g>
					
						<linearGradient id="SVGID_27_" gradientUnits="userSpaceOnUse" x1="-51.2451" y1="93.4775" x2="-25.6904" y2="93.4775" gradientTransform="matrix(3.913894e-005 -1 1 -0.001 -7.314169e-005 -4.747650e-005)">
						<stop  offset="0.149" style="stop-color:#062809"/>
						<stop  offset="0.302" style="stop-color:#0C2F0B"/>
						<stop  offset="0.5176" style="stop-color:#1C4111"/>
						<stop  offset="0.7765" style="stop-color:#36601B"/>
						<stop  offset="0.9686" style="stop-color:#4E7C25"/>
					</linearGradient>
					<path style="fill-rule:evenodd;clip-rule:evenodd;fill:url(#SVGID_27_);" d="M97.8,26.35c0.4,0.467,0.601,1.066,0.601,1.8V48.4
						c0,0.867-0.25,1.55-0.75,2.05c-0.5,0.466-1.134,0.7-1.9,0.7c-0.8,0-1.45-0.233-1.95-0.7c-0.5-0.5-0.75-1.184-0.75-2.05V30.5
						h-2.1c-0.8,0-1.417-0.25-1.851-0.75c-0.366-0.467-0.55-1.033-0.55-1.7c0-0.667,0.217-1.233,0.65-1.7
						c0.434-0.5,1.017-0.75,1.75-0.75H96C96.767,25.6,97.366,25.85,97.8,26.35z"/>
				</g>
			</g>
		</g>
		<g>
			<path style="fill-rule:evenodd;clip-rule:evenodd;fill:#E6F4C3;" d="M53.7,66.85l0.1-0.05l0.75-0.3
				c0.367-0.167,0.784-0.283,1.25-0.35l1-0.1c0.534-0.033,1.167,0,1.9,0.1c1.2,0.133,2.917,0.5,5.15,1.1l0.3,0.1
				c0.833-0.133,1.617-0.133,2.35,0l1.25-1.85c1.533-2.033,3.033-3.3,4.5-3.8c0.8-0.2,1.6-0.184,2.4,0.05l3.15,0.95
				c0.833,0.267,1.967,0.783,3.4,1.55c0.6,0.267,1.017,0.5,1.25,0.7l0.3,0.2C87.35,62.383,92.467,61,98.1,61
				c8,0,14.834,2.833,20.5,8.5c5.667,5.667,8.5,12.483,8.5,20.45c0,6.1-1.75,11.633-5.25,16.6c-3.399,4.834-7.85,8.317-13.35,10.45
				c1.667,2,2.5,4.283,2.5,6.85c0,2.967-1.05,5.483-3.15,7.551c-2.066,2.1-4.583,3.149-7.55,3.149c-2.333,0-4.434-0.683-6.3-2.05
				c-1.833-1.333-3.1-3.083-3.8-5.25c-1.834,2.733-4.184,4.884-7.05,6.45c-2.967,1.633-6.15,2.45-9.55,2.45
				c-5.5,0-10.2-1.95-14.1-5.851c-3.9-3.899-5.85-8.6-5.85-14.1c0-2.8,0.583-5.5,1.75-8.101c-3.066-1.732-5.65-3.6-7.75-5.6
				c-2.633-2.5-3.95-4.85-3.95-7.05l0.15-1.2c0.133-0.533,0.3-0.983,0.5-1.35l0.25-0.45l3.1-4.25c0.433-1.601,0.7-3.083,0.8-4.45
				c-0.067-4.233-0.083-6.75-0.05-7.55c0-2.2,0.4-4.05,1.2-5.55C50.483,69.05,51.833,67.783,53.7,66.85z"/>
			
				<linearGradient id="SVGID_28_" gradientUnits="userSpaceOnUse" x1="-135.3232" y1="85.4009" x2="-60.1978" y2="85.4009" gradientTransform="matrix(1.330672e-005 -1 1 -0.001 -3.257992e-005 4.449275e-004)">
				<stop  offset="0" style="stop-color:#344725"/>
				<stop  offset="0.1255" style="stop-color:#3E512C"/>
				<stop  offset="0.3412" style="stop-color:#596C3D"/>
				<stop  offset="0.6235" style="stop-color:#859858"/>
				<stop  offset="0.9529" style="stop-color:#C2D47E"/>
				<stop  offset="1" style="stop-color:#CBDE84"/>
			</linearGradient>
			<path style="fill-rule:evenodd;clip-rule:evenodd;fill:url(#SVGID_28_);" d="M53.7,65.95l0.1-0.05l0.75-0.3
				c0.534-0.2,0.95-0.317,1.25-0.35l1-0.1c0.833,0,1.467,0.034,1.9,0.1c1.633,0.233,3.35,0.617,5.15,1.15l0.3,0.05
				c0.7-0.1,1.483-0.1,2.35,0l1.25-1.85c1.533-2.067,3.033-3.317,4.5-3.75c0.767-0.267,1.567-0.267,2.4,0l2.45,0.8
				c0.267,0,0.5,0.05,0.7,0.15c0.833,0.267,1.967,0.784,3.4,1.55c0.6,0.267,1.017,0.5,1.25,0.7l0.3,0.2
				c4.6-2.767,9.717-4.15,15.35-4.15c8,0,14.834,2.833,20.5,8.5c5.667,5.667,8.5,12.5,8.5,20.5c0,6.067-1.75,11.584-5.25,16.551
				c-3.399,4.833-7.85,8.316-13.35,10.449c1.667,2,2.5,4.284,2.5,6.851c0,2.967-1.05,5.483-3.15,7.55
				c-2.066,2.1-4.583,3.15-7.55,3.15c-2.333,0-4.434-0.684-6.3-2.051c-1.833-1.333-3.1-3.083-3.8-5.25
				c-1.834,2.733-4.184,4.884-7.05,6.45c-2.967,1.634-6.15,2.45-9.55,2.45c-5.5,0-10.2-1.95-14.1-5.85
				c-3.9-3.9-5.85-8.601-5.85-14.101c0-2.833,0.583-5.517,1.75-8.05c-3.1-1.8-5.683-3.684-7.75-5.65c-2.633-2.5-3.95-4.85-3.95-7.05
				l0.15-1.2c0.133-0.566,0.3-1,0.5-1.3l0.25-0.5l3.1-4.25c0.433-1.6,0.7-3.083,0.8-4.45c-0.067-4.233-0.083-6.75-0.05-7.55
				c0-2.2,0.4-4.033,1.2-5.5C50.45,68.167,51.8,66.883,53.7,65.95z"/>
			
				<path style="fill-rule:evenodd;clip-rule:evenodd;fill:none;stroke:#E6F4C3;stroke-width:0.25;stroke-linejoin:round;stroke-miterlimit:3;" d="
				M53.7,65.95c-1.9,0.933-3.25,2.216-4.05,3.85c-0.8,1.467-1.2,3.3-1.2,5.5c-0.034,0.8-0.017,3.317,0.05,7.55
				c-0.1,1.367-0.367,2.85-0.8,4.45l-3.1,4.25l-0.25,0.5c-0.2,0.3-0.367,0.733-0.5,1.3l-0.15,1.2c0,2.2,1.316,4.55,3.95,7.05
				c2.067,1.967,4.65,3.851,7.75,5.65c-1.167,2.533-1.75,5.217-1.75,8.05c0,5.5,1.95,10.2,5.85,14.101c3.9,3.899,8.6,5.85,14.1,5.85
				c3.4,0,6.583-0.816,9.55-2.45c2.867-1.566,5.216-3.717,7.05-6.45c0.7,2.167,1.967,3.917,3.8,5.25
				c1.866,1.367,3.967,2.051,6.3,2.051c2.967,0,5.483-1.051,7.55-3.15c2.101-2.066,3.15-4.583,3.15-7.55
				c0-2.566-0.833-4.851-2.5-6.851c5.5-2.133,9.95-5.616,13.35-10.449c3.5-4.967,5.25-10.483,5.25-16.551c0-8-2.833-14.833-8.5-20.5
				c-5.666-5.667-12.5-8.5-20.5-8.5c-5.633,0-10.75,1.383-15.35,4.15l-0.3-0.2c-0.233-0.2-0.65-0.433-1.25-0.7
				c-1.434-0.767-2.567-1.284-3.4-1.55c-0.2-0.1-0.433-0.15-0.7-0.15l-2.45-0.8c-0.833-0.267-1.633-0.267-2.4,0
				c-1.467,0.433-2.967,1.683-4.5,3.75l-1.25,1.85c-0.867-0.1-1.65-0.1-2.35,0l-0.3-0.05c-1.8-0.533-3.517-0.917-5.15-1.15
				c-0.434-0.066-1.067-0.1-1.9-0.1l-1,0.1c-0.3,0.033-0.716,0.15-1.25,0.35l-0.75,0.3L53.7,65.95z"/>
			<g>
				<path style="fill-rule:evenodd;clip-rule:evenodd;fill:#21230F;" d="M76.15,66.7l-0.2,0.25l-2.65,5.2l3.15,1.6
					c0.767-1.467,1.4-2.9,1.9-4.3l0.15-0.55l0.05-0.4v-0.45L78.5,67.9l-0.05-0.1l-0.2-0.15l-1.05-0.5c-0.567-0.3-0.9-0.45-1-0.45
					H76.15z M58.85,70.95l-0.2-0.1c-0.533,0.033-0.883,0.117-1.05,0.25c-1,0.533-1.55,2.216-1.65,5.05
					c-0.034,0.967,0.1,2.417,0.4,4.35l4.55-6.35c-0.033-0.367-0.133-0.733-0.3-1.1C60.2,72.083,59.617,71.383,58.85,70.95z
					 M56.2,68.35l1.1-0.05c0.4,0,0.717,0.017,0.95,0.05c1.2,0.167,2.8,0.517,4.8,1.05l0.25,0.1l0.65,0.45L64,69.9
					c0.633-0.566,1.983-0.517,4.05,0.15l0.5-0.9c0.567-0.933,1.117-1.783,1.65-2.55l0.05-0.1c1.167-1.566,2.133-2.467,2.9-2.7
					c0.167-0.066,0.35-0.066,0.55,0l2.7,0.9l0.5,0.1c0.5,0.167,1.5,0.634,3,1.4l0.7,0.35L81.05,67c0.2,0.3,0.35,0.617,0.45,0.95v0.1
					l0.1,0.8c2.367-1.9,5.05-3.333,8.05-4.3c2.733-0.866,5.55-1.3,8.449-1.3c7.134,0,13.217,2.533,18.25,7.6
					c5.067,5.033,7.601,11.117,7.601,18.25c0,7.101-2.533,13.184-7.601,18.25c-5.033,5.034-11.116,7.551-18.25,7.551
					c-2.666,0-5.25-0.4-7.75-1.2l0.051,1.6c0,4.667-1.634,8.634-4.9,11.9c-3.3,3.3-7.267,4.95-11.9,4.95s-8.583-1.65-11.85-4.95
					c-3.3-3.3-4.95-7.267-4.95-11.9c0-3.399,0.95-6.5,2.85-9.3l-0.6-0.3c-3.9-2.101-6.966-4.217-9.2-6.351c-2-1.866-3-3.466-3-4.8
					v-0.2l0.05-0.3l0.2-0.55l0.05-0.1l3.35-4.7c0.633-1.9,1.017-3.833,1.15-5.8c-0.066-2.4-0.1-4.917-0.1-7.55
					c0.067-1.8,0.35-3.167,0.85-4.1c0.567-1.066,1.45-1.883,2.65-2.45l0.75-0.3C55.967,68.4,56.1,68.35,56.2,68.35z"/>
				<path style="fill-rule:evenodd;clip-rule:evenodd;fill:#21230F;" d="M100.3,115.4c2.101,0,3.9,0.733,5.4,2.199
					c1.467,1.5,2.2,3.284,2.2,5.351c0,2.1-0.733,3.883-2.2,5.35c-1.5,1.467-3.3,2.2-5.4,2.2c-2.066,0-3.85-0.733-5.35-2.2
					c-1.467-1.467-2.2-3.25-2.2-5.35c0-2.066,0.733-3.851,2.2-5.351C96.45,116.134,98.233,115.4,100.3,115.4z"/>
			</g>
			<g>
				<g>
					
						<use xlink:href="#FlashAICB_x2F_Layer_1_x2F__x3C_Group_x3E_"  width="26.9" height="20.3" y="-20.3" transform="matrix(1 0 0 -1 64.2002 61.1499)" style="overflow:visible;opacity:0.3398;enable-background:new    ;"/>
				</g>
				<g>
					
						<use xlink:href="#FlashAICB_x2F_Layer_1_x2F__x3C_Clip_Group_0_x3E__x5F_0"  width="92.3" height="92.15" y="-92.15" transform="matrix(1 0 0 -1 51.9502 43.0498)" style="overflow:visible;"/>
					
						<use xlink:href="#FlashAICB_x2F_Layer_1_x2F__x3C_Group_x3E__x5F_1"  width="49.633" height="49.583" x="-0.067" y="-49.517" transform="matrix(1 0 0 -1 73.3501 64.3999)" style="overflow:visible;opacity:0.6719;enable-background:new    ;"/>
					<path style="fill-rule:evenodd;clip-rule:evenodd;fill:#FFFFFF;" d="M89.9,71.3c3.066,0.9,3.083,2.467,0.05,4.7
						c-1.134,0.833-2.316,1.45-3.55,1.85c-1.301,0.4-2.067,0.367-2.3-0.1c-0.567-1.1-0.117-2.55,1.35-4.35
						C86.983,71.566,88.467,70.867,89.9,71.3z"/>
					<path style="fill-rule:evenodd;clip-rule:evenodd;fill:#FFFFFF;" d="M82.35,79.75c0.733,0.333,0.816,0.967,0.25,1.9
						c-0.567,0.967-1.083,1.184-1.55,0.65c-0.433-0.5-0.45-1.116-0.05-1.85S81.85,79.483,82.35,79.75z"/>
					
						<use xlink:href="#FlashAICB_x2F_Layer_1_x2F__x3C_Group_x3E__x5F_0"  width="42.25" height="31.9" y="-31.9" transform="matrix(1 0 0 -1 76.6499 81.9502)" style="overflow:visible;opacity:0.3398;enable-background:new    ;"/>
				</g>
			</g>
			<g>
				<g>
					
						<use xlink:href="#FlashAICB_x2F_Layer_1_x2F__x3C_Group_x3E__x5F_2"  width="17.2" height="12.95" y="-12.95" transform="matrix(1 0 0 -1 51.9502 97.4502)" style="overflow:visible;opacity:0.3398;enable-background:new    ;"/>
				</g>
				<g>
					
						<use xlink:href="#FlashAICB_x2F_Layer_1_x2F__x3C_Clip_Group_0_x3E__x5F_3"  width="59" height="58.85" y="-58.85" transform="matrix(1 0 0 -1 44.1001 85.8999)" style="overflow:visible;"/>
					
						<use xlink:href="#FlashAICB_x2F_Layer_1_x2F__x3C_Group_x3E__x5F_1_x5F_0"  width="31.695" height="31.672" x="-0.045" y="-31.65" transform="matrix(1 0 0 -1 57.7998 99.5)" style="overflow:visible;opacity:0.6719;enable-background:new    ;"/>
					
						<use xlink:href="#FlashAICB_x2F_Layer_1_x2F__x3C_Group_x3E__x5F_3"  width="27" height="20.35" y="-20.35" transform="matrix(1 0 0 -1 59.8999 110.75)" style="overflow:visible;opacity:0.3398;enable-background:new    ;"/>
				</g>
			</g>
			<g>
				<g>
					
						<use xlink:href="#FlashAICB_x2F_Layer_1_x2F__x3C_Group_x3E__x5F_4"  width="7.1" height="5.3" y="-5.3" transform="matrix(1 0 0 -1 91.4004 115.7002)" style="overflow:visible;opacity:0.3398;enable-background:new    ;"/>
				</g>
				<g>
					
						<use xlink:href="#FlashAICB_x2F_Layer_1_x2F__x3C_Clip_Group_0_x3E__x5F_6"  width="24.25" height="24.2" y="-24.2" transform="matrix(1 0 0 -1 88.2002 110.9502)" style="overflow:visible;"/>
					
						<use xlink:href="#FlashAICB_x2F_Layer_1_x2F__x3C_Group_x3E__x5F_1_x5F_1"  width="13.05" height="13.022" x="-0.011" y="-12.989" transform="matrix(1 0 0 -1 93.7998 116.5498)" style="overflow:visible;opacity:0.6719;enable-background:new    ;"/>
					<path style="fill-rule:evenodd;clip-rule:evenodd;fill:#FFFFFF;" d="M98.15,118.35c0.8,0.233,0.8,0.65,0,1.25
						c-0.834,0.634-1.334,0.784-1.5,0.45c-0.167-0.3-0.051-0.683,0.35-1.149C97.4,118.4,97.783,118.217,98.15,118.35z"/>
					<path style="fill-rule:evenodd;clip-rule:evenodd;fill:#FFFFFF;" d="M96.15,120.55c0.199,0.101,0.233,0.267,0.1,0.5
						c-0.167,0.267-0.3,0.334-0.4,0.2c-0.133-0.133-0.149-0.3-0.05-0.5C95.9,120.55,96.017,120.483,96.15,120.55z"/>
					
						<use xlink:href="#FlashAICB_x2F_Layer_1_x2F__x3C_Group_x3E__x5F_5"  width="11.15" height="8.4" y="-8.4" transform="matrix(1 0 0 -1 94.6504 121.1504)" style="overflow:visible;opacity:0.3398;enable-background:new    ;"/>
				</g>
			</g>
			
				<use xlink:href="#FlashAICB_x2F_Layer_1_x2F__x3C_Group_x3E__x5F_6"  width="40.034" height="41.857" y="-41.835" transform="matrix(1 0 0 -1 59.1499 71)" style="overflow:visible;opacity:0.2695;enable-background:new    ;"/>
			<g>
				<path style="fill-rule:evenodd;clip-rule:evenodd;fill:#7F7F7F;" d="M78.45,66.65l0.6,0.15c0.5,0.167,0.833,0.333,1,0.5
					c0.4,0.267,0.6,0.833,0.6,1.7c0,1.033-0.283,2.367-0.85,4c-0.733,1.9-1.5,3.55-2.3,4.95l-2-0.95c0.3-0.4,0.733-1.066,1.3-2
					c0.867-1.467,1.667-3.217,2.4-5.25c0.367-1.133,0.35-1.967-0.05-2.5L78.45,66.65z"/>
				<path style="fill-rule:evenodd;clip-rule:evenodd;fill:#666666;" d="M80.6,68.75c0.1,0.8-0.067,1.917-0.5,3.35
					c0.1-0.934,0.066-1.633-0.1-2.1c-0.1-0.434-0.317-0.733-0.65-0.9c0.2-0.833,0.117-1.5-0.25-2l-0.65-0.45l0.6,0.15
					c0.5,0.167,0.833,0.333,1,0.5C80.383,67.533,80.567,68.017,80.6,68.75z"/>
				<path style="fill-rule:evenodd;clip-rule:evenodd;fill:#545454;" d="M60.45,69.8l1.3,0.55c-2.2-0.5-3.733-0.517-4.6-0.05
					c-1.3,0.7-2,2.634-2.1,5.8c-0.033,1.3,0.167,3.117,0.6,5.45c0.267,2.267-0.15,4.5-1.25,6.7c-0.4,0.8-1.05,1.45-1.95,1.95
					c-0.467,0.233-0.9,0.399-1.3,0.5c0.6-1.967,1.067-4.017,1.4-6.15c0.2-1.6,0.233-3.9,0.1-6.9c-0.1-2.6,0-4.2,0.3-4.8
					c0.566-1.1,1.1-1.9,1.6-2.4c0.767-0.8,1.684-1.2,2.75-1.2C58.433,69.25,59.483,69.434,60.45,69.8z"/>
				<path style="fill-rule:evenodd;clip-rule:evenodd;fill:#B5B5B5;" d="M56.35,69.2c1.2-0.134,3.35,0.216,6.45,1.05l1.3,0.95
					c0.933,0.767,1.6,1.7,2,2.8s-0.067,1.75-1.4,1.95c-0.534,0.066-1.217,0.05-2.05-0.05l-0.75-2.6c-0.433-1.533-1.5-2.667-3.2-3.4
					C57.933,69.533,57.15,69.3,56.35,69.2z"/>
				<path style="fill-rule:evenodd;clip-rule:evenodd;fill:#E3E3E3;" d="M57.8,69.55l-0.15-0.3c1.367,0.1,3.083,0.434,5.15,1
					l0.85,0.55c0.667,0.534,1.217,1.1,1.65,1.7c-1.8-1.566-3.9-2.383-6.3-2.45C58.733,69.883,58.333,69.717,57.8,69.55z"/>
				<path style="fill-rule:evenodd;clip-rule:evenodd;fill:#969696;" d="M55.6,70c-0.9,0.4-1.567,1.017-2,1.85
					c-0.4,0.733-0.633,1.9-0.7,3.5c0,1.7,0.033,3.3,0.1,4.8c0.067,2.2-0.083,4.184-0.45,5.95c-0.466,2.5-1.25,4.768-2.35,6.801
					L49.05,94.8L48.9,95.15c-0.1,0.133,0,0.25,0.3,0.35l-0.35-0.05c-0.367-0.033-0.5-0.2-0.4-0.5l1.35-2.25c1.6-3,2.5-6.233,2.7-9.7
					l-0.05-7.65c0.066-1.567,0.316-2.8,0.75-3.7c0.466-0.867,1.216-1.55,2.25-2.05c1.333-0.6,2.633-0.567,3.9,0.1
					c1.1,0.566,1.933,1.5,2.5,2.8c0.566,1.434,0.65,2.9,0.25,4.4c-0.167,0.7-0.333,2.15-0.5,4.35c0,0.1-0.1,2.2-0.3,6.3v11.3
					L61.1,98.9c-3.2,0.366-6.017,0.399-8.45,0.1c-0.2,0-0.333-0.033-0.4-0.1c-0.033-0.033-0.033-0.067,0-0.101l0.05-0.1l0.2-0.2
					c0.267,0.1,0.5,0.15,0.7,0.15c0.466,0.066,1.233,0.1,2.3,0.1c1.1,0,2.817-0.083,5.15-0.25h0.2
					c-0.033-6.934,0.05-12.417,0.25-16.45c0.167-2.533,0.367-4.3,0.6-5.3c0.367-1.4,0.283-2.75-0.25-4.05
					c-0.5-1.2-1.267-2.067-2.3-2.6C58.017,69.467,56.833,69.434,55.6,70z M52.35,96.2l-2.15,0.6l-0.5-1l-0.3-0.25l1,0.2
					C51.633,95.95,52.283,96.1,52.35,96.2z M52.5,98.5l-0.2-0.1v-0.2C52.5,98.3,52.567,98.4,52.5,98.5z"/>
				<path style="fill-rule:evenodd;clip-rule:evenodd;fill:#969696;" d="M59.5,104.9c-3.8-2-6.817-4.067-9.05-6.2
					c-2.233-2.134-3.083-3.733-2.55-4.8L64.6,70.55l20.35,10.8L75.1,108.3c-0.6,1.067-2.4,1.25-5.4,0.55
					C66.6,108.184,63.2,106.867,59.5,104.9z"/>
				<path style="fill-rule:evenodd;clip-rule:evenodd;fill:#737373;" d="M64.6,70.55l0.6,0.35L47.85,95.1
					c-0.167-0.466-0.15-0.866,0.05-1.199L64.6,70.55z"/>
				
					<linearGradient id="SVGID_29_" gradientUnits="userSpaceOnUse" x1="95.3291" y1="38.5684" x2="101.417" y2="38.5684" gradientTransform="matrix(0.8295 0.5585 -0.5585 0.8295 -3.147125e-005 -3.980994e-004)">
					<stop  offset="0" style="stop-color:#9E9E9E"/>
					<stop  offset="1" style="stop-color:#D0D0D1"/>
				</linearGradient>
				<path style="fill-rule:evenodd;clip-rule:evenodd;fill:url(#SVGID_29_);" d="M61.55,90.35L58.1,96.65
					c-1.067,1.533-1.817,2.5-2.25,2.899c-0.3,0.233-0.483,0.334-0.55,0.3c-0.466-0.133-1.633-1.1-3.5-2.899
					c-0.566-0.566-1.033-1.134-1.4-1.7l-0.35-0.6L64.9,74l0.65,0.7c0.6,0.6,1.15,1.083,1.65,1.45l2.7,1.9l-1.25,1.2
					c-1.033,1.167-1.816,2.15-2.35,2.95C65.1,83.934,63.517,86.65,61.55,90.35z"/>
				<path style="fill-rule:evenodd;clip-rule:evenodd;fill:#B0B0B0;" d="M72.7,101.2c0.233-0.867,0.733-1.983,1.5-3.351
					c1.566-2.866,2.65-5.1,3.25-6.699c0.5-1.667,0.966-3.017,1.4-4.051c0.367-0.899,0.783-1.8,1.25-2.7l0.75-1.35l0.5,0.15
					c0.967,0.267,1.583,0.35,1.85,0.25l-0.55,1.05c-0.533,1.066-0.967,2.017-1.3,2.85c-0.533,1.4-1.133,3.101-1.8,5.101l-1.2,3.85
					c-0.167,0.601-0.6,1.7-1.3,3.3l-1.6,4.2c-0.467,1.3-0.733,2.467-0.8,3.5c-0.433,0.067-0.95,0.084-1.55,0.05l-1-0.05l-0.15-0.1
					c0.167-0.101,0.333-0.3,0.5-0.601c0.3-0.6,0.35-1.399,0.15-2.399C72.4,103.2,72.433,102.2,72.7,101.2z"/>
				<path style="fill-rule:evenodd;clip-rule:evenodd;fill:#797A7D;" d="M68.45,107.3c-0.034,0.434-0.117,0.834-0.25,1.2
					c-1.967-0.566-3.867-1.283-5.7-2.15l1.4-1.1c0.833-0.667,1.567-1.517,2.2-2.55c1.3-1.8,2.383-3.684,3.25-5.65
					c0.833-2.2,1.483-3.733,1.95-4.6c0.9-1.467,1.733-3.033,2.5-4.7l1.35-3.4c0.5-1.2,0.85-2.517,1.05-3.95l0.2-1.8l7.8,2.75
					c-0.934,0.233-1.95,0.283-3.05,0.15c-0.767-0.1-1.6,0.15-2.5,0.75c-0.767,0.566-1.316,1.133-1.65,1.7
					c-0.233,0.433-0.667,1.767-1.3,4c-0.633,2.3-1.5,4.483-2.6,6.55c-0.167,0.333-1.333,2.267-3.5,5.8c-1.5,2.967-1.833,5.05-1,6.25
					L68.45,107.3z"/>
				<path style="fill-rule:evenodd;clip-rule:evenodd;fill:#797A7D;" d="M70.5,78.4c2.567,1.4,4.067,2.034,4.5,1.9
					c0.433-0.167,0.7-0.383,0.8-0.65c0.1-0.3-0.017-0.566-0.35-0.8L73.1,77.4l4,2l-0.5,1.75c1.066,0.667,0.883,0.7-0.55,0.1
					c-1.233-0.5-2.683-1.217-4.35-2.15L70.5,78.4z"/>
				<path style="fill-rule:evenodd;clip-rule:evenodd;fill:#DBE2E3;" d="M68.15,71c2.4,0.833,4.9,1.95,7.5,3.35
					c2.733,1.4,5.05,2.833,6.95,4.3c1.8,1.434,2.583,2.383,2.35,2.85s-1.45,0.35-3.65-0.35c-2.2-0.7-4.7-1.8-7.5-3.3
					c-2.733-1.434-5.066-2.883-7-4.35c-1.8-1.4-2.566-2.333-2.3-2.8C64.733,70.2,65.95,70.3,68.15,71z"/>
				<path style="fill-rule:evenodd;clip-rule:evenodd;fill:#6B6B6B;" d="M68.55,71.45c2.133,0.733,4.467,1.8,7,3.2
					c2.833,1.5,5.017,2.833,6.55,4c1.733,1.233,2.483,2.067,2.25,2.5c-0.2,0.4-1.3,0.25-3.3-0.45c-2.167-0.8-4.5-1.867-7-3.2
					c-2.633-1.4-4.816-2.733-6.55-4c-1.733-1.233-2.5-2.066-2.3-2.5C65.4,70.6,66.517,70.75,68.55,71.45z"/>
				<path style="fill-rule:evenodd;clip-rule:evenodd;fill:#575757;" d="M72.35,76.45v0.15c-1.967-1.1-3.767-2.25-5.4-3.45
					C65.583,72.05,65,71.333,65.2,71c0.2-0.4,1.316-0.25,3.35,0.45c2.133,0.733,4.467,1.8,7,3.2l1.1,0.575L75.4,74.6
					c-1.066-0.534-1.833-0.8-2.3-0.8C71.967,73.867,71.717,74.75,72.35,76.45z"/>
				<path style="fill-rule:evenodd;clip-rule:evenodd;fill:#7D7D7D;" d="M79.35,76.8c1.7,1.034,2.983,1.934,3.85,2.7
					c0.933,0.767,1.316,1.316,1.15,1.65c-0.267,0.5-1.767,0.184-4.5-0.95l-0.3-0.65c-0.066-0.1,0-0.2,0.2-0.3
					C80.783,78.75,80.65,77.934,79.35,76.8z"/>
				<path style="fill-rule:evenodd;clip-rule:evenodd;fill:#A3A3A3;" d="M96.8,93.6L94.3,92.9
					C95.434,92.833,96.267,93.066,96.8,93.6z M93.95,92.95c-2.533,0.333-5.45,2.5-8.75,6.5c-2.333,2.899-4.717,4.8-7.15,5.7
					c-1.2,0.467-2.183,0.616-2.95,0.449c-0.467-0.133-0.983-0.449-1.55-0.949c-0.9-0.967-1.133-2.2-0.7-3.7
					c0.533-1.733,1.566-2.8,3.1-3.2c0.7-0.167,1.417-0.2,2.15-0.1l1.3,0.25c1.233-0.101,2.783-0.834,4.65-2.2
					c2.2-1.5,3.601-2.7,4.2-3.601l0.05-0.85l6,1.65L93.95,92.95z"/>
				<path style="fill-rule:evenodd;clip-rule:evenodd;fill:#797A7D;" d="M85.2,99.45c-2.333,2.899-4.717,4.8-7.15,5.7
					c-1.2,0.467-2.183,0.616-2.95,0.449c-0.367-0.133-0.7-0.3-1-0.5c-0.7-0.5-1.15-1.149-1.35-1.949l0.5,0.8
					c1.3,1.533,3.283,1.583,5.95,0.149c2-1.066,3.75-2.517,5.25-4.35c0.666-0.833,1.583-1.866,2.75-3.1
					c0.934-0.967,1.633-1.65,2.1-2.051l0.2,0.5C88.2,96.134,86.767,97.583,85.2,99.45z"/>
				<path style="fill-rule:evenodd;clip-rule:evenodd;fill:#5F6062;" d="M64.875,73.825L65.45,74.6c1.7,1.7,4.3,3.466,7.8,5.3
					c2.767,1.5,5.4,2.534,7.9,3.1c1.067,0.267,1.967,0.4,2.7,0.4c-0.633,0.133-1.483,0.1-2.55-0.1
					c-2.433-0.466-5.133-1.517-8.1-3.15c-3.4-1.8-5.967-3.617-7.7-5.45L64.875,73.825z"/>
				<path style="fill-rule:evenodd;clip-rule:evenodd;fill:#A3A3A3;" d="M89.3,88.25c1.9,1.233,3.283,2.2,4.15,2.9l2.75,6.3
					l-7.15-1.25l-0.55-0.15c-0.267-0.1-0.566-0.366-0.9-0.8c-0.366-0.5-0.566-0.967-0.6-1.4l0.05-6.949L89.3,88.25z"/>
				<path style="fill-rule:evenodd;clip-rule:evenodd;fill:#797A7D;" d="M89.15,92.25L88,90.45l4.15,0.25L94,92.45l2.2,5l-7.5-1.3
					c-0.233-0.067-0.417-0.167-0.55-0.301c0.5,0.2,1.199,0.284,2.1,0.25c0.634,0,1.017-0.066,1.15-0.199
					c0.233-0.2,0.116-0.551-0.351-1.051C90.517,94.316,89.884,93.45,89.15,92.25z"/>
				<path style="fill-rule:evenodd;clip-rule:evenodd;fill:#A8A8A8;" d="M97.45,97.2c-0.8,0.467-1.95,0.3-3.45-0.5
					c-1.533-0.8-2.967-1.983-4.3-3.55c-1.4-1.601-2.267-3.101-2.601-4.5C86.7,87.217,86.9,86.267,87.7,85.8
					c0.833-0.466,2-0.316,3.5,0.45c1.533,0.833,2.967,2.033,4.3,3.6c1.333,1.534,2.2,3.034,2.6,4.5
					C98.467,95.816,98.25,96.767,97.45,97.2z"/>
				<path style="fill-rule:evenodd;clip-rule:evenodd;fill:#696969;" d="M87.7,85.8c-0.367,0.667-0.467,1.384-0.3,2.15
					c0.166,1.066,0.767,2.35,1.8,3.85c1.133,1.667,2.6,3.101,4.399,4.3c2.034,1.301,3.467,1.534,4.301,0.7
					c-0.034,0.101-0.184,0.233-0.45,0.4c-0.8,0.467-1.95,0.3-3.45-0.5c-1.533-0.8-2.967-1.983-4.3-3.55
					c-1.334-1.5-2.2-2.983-2.601-4.45C86.7,87.267,86.9,86.3,87.7,85.8z"/>
				<path style="fill-rule:evenodd;clip-rule:evenodd;fill:#878787;" d="M89.4,92.15l-0.25,0.3c-0.867-1.134-1.483-2.2-1.851-3.2
					l0.15-0.9c0.166,0.601,0.416,1.233,0.75,1.9L89.4,92.15z"/>
				<path style="fill-rule:evenodd;clip-rule:evenodd;fill:#BDBDBD;" d="M97.6,97.05c-0.699,0.367-1.633,0.233-2.8-0.399
					c-1.166-0.601-2.316-1.551-3.45-2.851c-1-1.133-1.699-2.333-2.1-3.6c-0.3-1.134-0.116-1.9,0.55-2.3
					c0.634-0.334,1.55-0.2,2.75,0.399c1.267,0.667,2.417,1.617,3.45,2.851c1.066,1.267,1.767,2.467,2.1,3.6
					C98.4,95.884,98.233,96.65,97.6,97.05z"/>
				<path style="fill-rule:evenodd;clip-rule:evenodd;fill:#CFCFCF;" d="M97.45,96.7c-0.434,0.3-1.084,0.217-1.95-0.25
					c-0.9-0.467-1.733-1.15-2.5-2.05c-0.767-0.9-1.267-1.767-1.5-2.601c-0.2-0.833-0.066-1.383,0.4-1.649
					c0.466-0.233,1.116-0.134,1.949,0.3c0.967,0.5,1.801,1.184,2.5,2.05c0.733,0.833,1.233,1.7,1.5,2.6
					C98.05,95.934,97.917,96.467,97.45,96.7z"/>
				<path style="fill-rule:evenodd;clip-rule:evenodd;fill:#FFFFFF;" d="M97.55,95.45c0.2,0.566,0,0.85-0.6,0.85
					c-0.533,0.033-1.05-0.133-1.55-0.5c-0.233-0.233,0.033-0.399,0.8-0.5C97,95.167,97.45,95.217,97.55,95.45z"/>
				<g>
					<g>
						<path style="fill-rule:evenodd;clip-rule:evenodd;fill:#F2F2F2;" d="M95.45,90.1c0.233,0.268,0.283,0.434,0.149,0.5
							c-0.133,0.067-0.316-0.017-0.55-0.25c-0.2-0.3-0.233-0.466-0.1-0.5C95.05,89.783,95.217,89.867,95.45,90.1z M93.85,91.55
							c-0.133,0.101-0.3,0.017-0.5-0.25c-0.199-0.233-0.233-0.399-0.1-0.5c0.1-0.066,0.267,0.017,0.5,0.25
							C93.983,91.35,94.017,91.517,93.85,91.55z M94.25,90.8c-0.2-0.233-0.25-0.399-0.15-0.5c0.101-0.1,0.284-0.017,0.551,0.25
							c0.133,0.3,0.166,0.467,0.1,0.5C94.65,91.15,94.483,91.066,94.25,90.8z M95.6,92.8c-0.1,0.101-0.267,0.017-0.5-0.25
							c-0.199-0.233-0.25-0.399-0.149-0.5c0.166-0.033,0.35,0.05,0.55,0.25C95.7,92.566,95.733,92.733,95.6,92.8z M94.2,92.75
							c-0.134,0.033-0.316-0.066-0.55-0.3c-0.2-0.267-0.233-0.417-0.101-0.45c0.167-0.1,0.334-0.017,0.5,0.25
							C94.25,92.483,94.3,92.65,94.2,92.75z M93.45,93.5c-0.233-0.233-0.283-0.4-0.15-0.5c0.134-0.033,0.316,0.066,0.55,0.3
							c0.2,0.233,0.233,0.4,0.101,0.5C93.85,93.833,93.684,93.733,93.45,93.5z M95.05,94.1c-0.2-0.232-0.233-0.399-0.1-0.5
							c0.1-0.1,0.267-0.017,0.5,0.25c0.233,0.268,0.267,0.434,0.1,0.5C95.417,94.417,95.25,94.333,95.05,94.1z M96.7,92.55
							c-0.134,0.067-0.3-0.033-0.5-0.3c-0.2-0.233-0.25-0.383-0.15-0.45c0.134-0.1,0.316-0.017,0.55,0.25
							C96.8,92.283,96.833,92.45,96.7,92.55z M97.1,94.05c0.2,0.233,0.25,0.4,0.15,0.5c-0.167,0.101-0.35,0-0.55-0.3
							c-0.233-0.233-0.267-0.4-0.101-0.5C96.7,93.717,96.866,93.816,97.1,94.05z M93.55,88.8c-0.133,0.101-0.3,0.017-0.5-0.25
							c-0.233-0.233-0.283-0.399-0.149-0.5c0.133-0.033,0.3,0.05,0.5,0.25C93.634,88.566,93.684,88.733,93.55,88.8z M89.3,87.3
							c-0.233-0.233-0.283-0.383-0.149-0.45c0.1-0.1,0.283-0.017,0.55,0.25c0.2,0.233,0.233,0.4,0.1,0.5
							C89.667,87.634,89.5,87.533,89.3,87.3z M88.9,88.05c0.166-0.1,0.35-0.017,0.55,0.25c0.2,0.233,0.233,0.4,0.1,0.5
							c-0.1,0.033-0.267-0.066-0.5-0.3S88.767,88.117,88.9,88.05z M90.9,87.45c-0.2-0.233-0.25-0.384-0.15-0.45
							c0.134-0.1,0.316-0.017,0.55,0.25c0.2,0.233,0.233,0.384,0.101,0.45C91.333,87.8,91.167,87.717,90.9,87.45z M91.05,88.7
							c0.233,0.267,0.283,0.434,0.15,0.5c-0.167,0.1-0.351,0.017-0.55-0.25c-0.167-0.233-0.2-0.4-0.101-0.5
							C90.684,88.384,90.85,88.467,91.05,88.7z M92.3,89.25c-0.2-0.2-0.233-0.35-0.1-0.45c0.1-0.1,0.267-0.017,0.5,0.25
							c0.2,0.233,0.25,0.4,0.149,0.5C92.717,89.583,92.533,89.483,92.3,89.25z M92.65,90.9c-0.134,0.133-0.301,0.066-0.5-0.2
							c-0.2-0.3-0.25-0.467-0.15-0.5c0.1-0.101,0.283-0.017,0.55,0.25C92.717,90.717,92.75,90.867,92.65,90.9z M92.85,91.6
							c0.2,0.233,0.233,0.4,0.101,0.5c-0.101,0.034-0.267-0.066-0.5-0.3s-0.283-0.383-0.15-0.45
							C92.434,91.283,92.616,91.367,92.85,91.6z M91.15,90.5c-0.101,0.1-0.267,0.017-0.5-0.25s-0.284-0.434-0.15-0.5
							c0.134-0.1,0.316,0,0.55,0.3C91.25,90.25,91.283,90.4,91.15,90.5z M90.1,90.8c-0.133,0.067-0.316-0.017-0.55-0.25
							c-0.233-0.267-0.283-0.433-0.149-0.5c0.199-0.066,0.383,0.017,0.55,0.25C90.15,90.533,90.2,90.7,90.1,90.8z M90.6,92.3
							c0.167-0.066,0.334,0.033,0.5,0.3c0.233,0.233,0.284,0.4,0.15,0.5c-0.134,0.034-0.3-0.066-0.5-0.3
							C90.517,92.566,90.467,92.4,90.6,92.3z M91.6,92.3c-0.199-0.233-0.233-0.399-0.1-0.5c0.1-0.033,0.267,0.067,0.5,0.3
							c0.233,0.233,0.283,0.384,0.15,0.45C92.017,92.617,91.833,92.533,91.6,92.3z M93.25,94.5c-0.134,0.066-0.316-0.017-0.55-0.25
							c-0.167-0.267-0.2-0.434-0.101-0.5c0.134-0.133,0.301-0.033,0.5,0.3C93.3,94.25,93.35,94.4,93.25,94.5z M96.4,95.3
							c0.133-0.066,0.3,0.033,0.5,0.3c0.233,0.233,0.283,0.384,0.149,0.45c-0.133,0.134-0.316,0.05-0.55-0.25
							C96.3,95.566,96.267,95.4,96.4,95.3z M94.85,95.35c-0.199-0.3-0.25-0.466-0.149-0.5c0.166-0.1,0.35-0.017,0.55,0.25
							c0.2,0.301,0.25,0.467,0.15,0.5C95.267,95.667,95.083,95.583,94.85,95.35z"/>
					</g>
				</g>
				<g>
					<g>
						<path style="fill-rule:evenodd;clip-rule:evenodd;fill:#828282;" d="M94.85,89.8c0.101-0.1,0.267-0.017,0.5,0.25
							c0.2,0.233,0.25,0.4,0.15,0.5c-0.134,0.067-0.316-0.017-0.55-0.25C94.783,90.033,94.75,89.867,94.85,89.8z M94.15,90.75
							c-0.2-0.233-0.25-0.383-0.15-0.45c0.134-0.1,0.316-0.033,0.55,0.2c0.2,0.3,0.233,0.467,0.101,0.5
							C94.55,91.1,94.384,91.017,94.15,90.75z M93.8,91.5c-0.166,0.1-0.35,0.017-0.55-0.25c-0.2-0.233-0.233-0.4-0.1-0.5
							c0.133-0.066,0.3,0.033,0.5,0.3C93.85,91.316,93.9,91.467,93.8,91.5z M95.55,92.75c-0.133,0.1-0.316,0.017-0.55-0.25
							c-0.2-0.233-0.233-0.383-0.1-0.45c0.1-0.066,0.267,0.017,0.5,0.25C95.6,92.566,95.65,92.717,95.55,92.75z M94.05,92.7
							c-0.1,0.066-0.25-0.033-0.45-0.3C93.467,92.3,93.4,92.2,93.4,92.1l0.05-0.149c0.133-0.101,0.3-0.017,0.5,0.25
							C94.184,92.434,94.217,92.6,94.05,92.7z M94.95,94.05c-0.2-0.233-0.25-0.399-0.15-0.5c0.167-0.033,0.351,0.05,0.55,0.25
							c0.233,0.233,0.267,0.4,0.101,0.5C95.384,94.333,95.217,94.25,94.95,94.05z M93.85,93.75c-0.133,0.066-0.3-0.033-0.5-0.3
							c-0.199-0.233-0.25-0.4-0.149-0.5c0.133-0.033,0.3,0.066,0.5,0.3C93.934,93.483,93.983,93.65,93.85,93.75z M96.6,92.5
							c-0.133,0.066-0.3-0.033-0.5-0.3c-0.199-0.233-0.25-0.4-0.149-0.5c0.133-0.101,0.3,0,0.5,0.3
							C96.684,92.2,96.733,92.367,96.6,92.5z M96.65,94.2c-0.267-0.2-0.334-0.367-0.2-0.5c0.166-0.066,0.35,0.033,0.55,0.3
							s0.233,0.417,0.1,0.45C96.967,94.583,96.816,94.5,96.65,94.2z M90.7,86.95c0.066-0.066,0.233,0,0.5,0.2
							c0.2,0.3,0.25,0.467,0.149,0.5c-0.166,0.1-0.35,0.017-0.55-0.25C90.6,87.167,90.566,87.017,90.7,86.95z M89.7,87.55
							c-0.134,0.067-0.3-0.033-0.5-0.3c-0.233-0.233-0.283-0.4-0.15-0.5c0.134-0.033,0.3,0.066,0.5,0.3
							C89.783,87.283,89.833,87.45,89.7,87.55z M89.45,88.75c-0.134,0.066-0.3-0.033-0.5-0.3S88.717,88.033,88.85,88
							c0.101-0.1,0.267-0.017,0.5,0.25C89.55,88.483,89.583,88.65,89.45,88.75z M93.35,88.25c0.134,0.3,0.167,0.467,0.101,0.5
							c-0.134,0.1-0.3,0.017-0.5-0.25c-0.2-0.233-0.25-0.4-0.15-0.5C92.934,87.934,93.116,88.017,93.35,88.25z M90.95,88.65
							c0.233,0.267,0.283,0.433,0.149,0.5c-0.133,0.1-0.316,0-0.55-0.301c-0.2-0.199-0.233-0.35-0.1-0.449
							C90.55,88.3,90.717,88.384,90.95,88.65z M92.25,89.25c-0.267-0.267-0.316-0.434-0.15-0.5c0.167-0.066,0.334,0.017,0.5,0.25
							l0.2,0.3c0,0.101-0.033,0.167-0.1,0.2C92.6,89.533,92.45,89.45,92.25,89.25z M92.55,90.85c-0.133,0.134-0.3,0.067-0.5-0.199
							c-0.2-0.301-0.25-0.467-0.149-0.5c0.133-0.101,0.3-0.017,0.5,0.25C92.6,90.667,92.65,90.816,92.55,90.85z M92.25,91.3
							c0.1-0.066,0.267,0.017,0.5,0.25c0.233,0.267,0.267,0.434,0.1,0.5c-0.133,0.067-0.3-0.017-0.5-0.25
							C92.15,91.5,92.116,91.333,92.25,91.3z M91.05,90.45c-0.1,0.066-0.267-0.017-0.5-0.25c-0.2-0.3-0.25-0.467-0.149-0.5
							c0.166-0.101,0.35-0.017,0.55,0.25C91.15,90.184,91.184,90.35,91.05,90.45z M89.85,90.25c0.233,0.267,0.284,0.434,0.15,0.5
							s-0.316-0.017-0.55-0.25c-0.2-0.267-0.233-0.434-0.101-0.5C89.45,89.934,89.616,90.017,89.85,90.25z M90.5,92.25
							c0.134-0.1,0.316,0,0.55,0.3c0.233,0.233,0.267,0.4,0.101,0.5c-0.134,0.067-0.301-0.033-0.5-0.3
							C90.45,92.517,90.4,92.35,90.5,92.25z M92.6,94.2c-0.166-0.267-0.199-0.434-0.1-0.5c0.134-0.101,0.3-0.017,0.5,0.25
							c0.2,0.233,0.25,0.399,0.15,0.5C93.05,94.55,92.866,94.467,92.6,94.2z M91.55,92.25c-0.233-0.233-0.283-0.4-0.149-0.5
							c0.133-0.066,0.3,0.033,0.5,0.3c0.199,0.267,0.25,0.417,0.149,0.45C91.884,92.566,91.717,92.483,91.55,92.25z M96.3,95.25
							c0.134-0.033,0.3,0.066,0.5,0.3c0.233,0.233,0.283,0.4,0.15,0.5c-0.134,0.033-0.3-0.066-0.5-0.3
							C96.25,95.55,96.2,95.384,96.3,95.25z M94.75,95.3c-0.2-0.3-0.233-0.467-0.1-0.5c0.133-0.1,0.3-0.017,0.5,0.25
							c0.267,0.3,0.3,0.45,0.1,0.45C95.15,95.6,94.983,95.533,94.75,95.3z"/>
					</g>
				</g>
				<path style="fill-rule:evenodd;clip-rule:evenodd;fill:#5E5E5E;" d="M66.55,76.6l1.65-0.95c1.1-0.6,1.733-0.75,1.9-0.45
					c0.3,0.5,0.583,0.816,0.85,0.95l-0.5,1.6c-0.333,0.967-1.117,1.3-2.35,1c-0.467-0.133-0.85-0.434-1.15-0.9
					C66.75,77.517,66.617,77.1,66.55,76.6z"/>
				<path style="fill-rule:evenodd;clip-rule:evenodd;fill:#ABABAB;" d="M72.35,65.45c0.433-0.434,0.783-0.7,1.05-0.8l2.7,0.9
					c-0.333,0.067-0.9,0.767-1.7,2.1c-0.433,0.633-1.25,2.45-2.45,5.45c-1.133,2.9-1.767,4.45-1.9,4.65c-0.2,0.434-0.6,0.7-1.2,0.8
					c-0.6,0.1-1.05,0.034-1.35-0.2c-0.7-0.434-1.1-1.017-1.2-1.75v-0.9c0.3-1.067,1.3-3.1,3-6.1
					C70.433,67.667,71.45,66.283,72.35,65.45z"/>
				<path style="fill-rule:evenodd;clip-rule:evenodd;fill:#9C9C9C;" d="M71,67.05c1-1.4,1.8-2.2,2.4-2.4l2.7,0.9
					c-0.067,0-0.233,0.15-0.5,0.45l-0.55-0.25c-0.267-0.133-0.6-0.2-1-0.2c-0.5,0-1.05,0.134-1.65,0.4
					C71.9,66.283,71.433,66.65,71,67.05z"/>
				
					<linearGradient id="SVGID_30_" gradientUnits="userSpaceOnUse" x1="99.6572" y1="15.7666" x2="108.1435" y2="15.7666" gradientTransform="matrix(0.8101 0.5862 -0.5862 0.8101 -2.233386e-004 1.475811e-004)">
					<stop  offset="0.0314" style="stop-color:#7D8487"/>
					<stop  offset="0.0941" style="stop-color:#868A8C"/>
					<stop  offset="0.2392" style="stop-color:#939496"/>
					<stop  offset="0.3686" style="stop-color:#989899"/>
					<stop  offset="0.9686" style="stop-color:#91969B"/>
				</linearGradient>
				<path style="fill-rule:evenodd;clip-rule:evenodd;fill:url(#SVGID_30_);" d="M67.55,78.35l0.05,0.05l0.2,0.05l0.65,0.1
					c0.667,0,1.15-0.216,1.45-0.65c0.1-0.1,0.184-0.25,0.25-0.45c1.434-4.3,2.7-7.4,3.8-9.3l1.05-1.8
					c0.267-0.333,0.517-0.567,0.75-0.7c0.267-0.1,0.567-0.1,0.9,0c0.5,0.167,1.567,0.684,3.2,1.55l0.2,0.1
					c0.267,0.167,0.467,0.467,0.6,0.9c0.067,0.4,0.067,0.85,0,1.35c-0.167,1.3-0.383,2.317-0.65,3.05
					c-0.5,1.333-0.983,2.45-1.45,3.35l-0.1-0.1h-0.1l0.05-0.05l1.1-2.45c0.867-2.2,1.167-3.9,0.9-5.1
					c-0.066-0.333-0.217-0.6-0.45-0.8L79.8,67.4l-3.45-1.6l-0.5,0.05c-0.233,0.1-0.45,0.3-0.65,0.6l-1.05,1.85
					c-1,1.6-2.267,4.65-3.8,9.15c-0.033,0.1-0.117,0.3-0.25,0.6c-0.3,0.3-0.533,0.467-0.7,0.5c-0.1,0.067-0.333,0.1-0.7,0.1h-0.15
					c-0.3,0-0.65-0.083-1.05-0.25L67.55,78.35z"/>
				<path style="fill-rule:evenodd;clip-rule:evenodd;fill:#5F6062;" d="M49.5,93.85c0.3,0.567,0.817,1.301,1.55,2.2
					c2.233,2.533,5.5,4.9,9.8,7.101c3.733,1.933,7.183,3.183,10.35,3.75c1.466,0.267,2.65,0.35,3.55,0.25
					c-0.733,0.267-1.85,0.3-3.35,0.1c-3.033-0.3-6.566-1.533-10.6-3.7c-4.433-2.366-7.683-4.833-9.75-7.399
					C50.383,95.384,49.867,94.617,49.5,93.85z"/>
				
					<linearGradient id="SVGID_31_" gradientUnits="userSpaceOnUse" x1="95.3223" y1="52.584" x2="100.4394" y2="52.584" gradientTransform="matrix(0.8305 0.557 -0.557 0.8305 -4.845858e-005 -2.166033e-004)">
					<stop  offset="0" style="stop-color:#9E9E9E"/>
					<stop  offset="1" style="stop-color:#EAEAEB"/>
				</linearGradient>
				<path style="fill-rule:evenodd;clip-rule:evenodd;fill:url(#SVGID_31_);" d="M53.95,99.5c0.466,0.367,0.6,0.634,0.4,0.8
					c-0.2,0.167-0.65,0.017-1.35-0.45c-0.9-0.566-1.717-1.267-2.45-2.1c-0.767-0.8-1.1-1.4-1-1.8c0.067-0.3,0.233-0.316,0.5-0.05
					L53.95,99.5z"/>
				
					<linearGradient id="SVGID_32_" gradientUnits="userSpaceOnUse" x1="102.4043" y1="24.6611" x2="105.9544" y2="24.6611" gradientTransform="matrix(0.831 0.5563 -0.5563 0.831 -9.834766e-005 -8.147955e-005)">
					<stop  offset="0" style="stop-color:#9E9E9E"/>
					<stop  offset="1" style="stop-color:#EAEAEB"/>
				</linearGradient>
				<path style="fill-rule:evenodd;clip-rule:evenodd;fill:url(#SVGID_32_);" d="M72.5,77.65c0.7,0.3,1.25,0.567,1.65,0.8
					c0.567,0.4,0.8,0.716,0.7,0.95c-0.167,0.4-0.767,0.367-1.8-0.1c-0.9-0.4-1.55-0.833-1.95-1.3
					C70.367,77.2,70.833,77.083,72.5,77.65z"/>
				<path style="fill-rule:evenodd;clip-rule:evenodd;fill:#B0B0B0;" d="M82.9,82.5c0.267,0.4,0.05,0.583-0.65,0.55
					c-0.733-0.1-1.167-0.283-1.3-0.55c-0.2-0.3,0.017-0.45,0.65-0.45C82.267,82.05,82.7,82.2,82.9,82.5z"/>
				<path style="fill-rule:evenodd;clip-rule:evenodd;fill:#B5B5B5;" d="M80.95,101c-1.5,0.767-3.017,1.117-4.55,1.05
					c-1.433-0.1-2.283-0.5-2.55-1.2c-0.2-0.633-0.05-1.183,0.45-1.649c0.367-0.367,0.867-0.634,1.5-0.8
					c0.067-0.067,0.684-0.017,1.85,0.149c1.133,0.101,2.3-0.066,3.5-0.5c0.867-0.3,1.883-0.866,3.05-1.7l2.2-1.55
					c0.833-0.433,0.5,0.317-1,2.25C83.867,98.983,82.383,100.3,80.95,101z"/>
				
					<linearGradient id="SVGID_33_" gradientUnits="userSpaceOnUse" x1="-60.9927" y1="110.7949" x2="-58.3172" y2="110.7949" gradientTransform="matrix(0.4018 -0.9157 0.9157 0.4018 7.718801e-006 4.234910e-004)">
					<stop  offset="0" style="stop-color:#D6D6D6"/>
					<stop  offset="1" style="stop-color:#EAEAEB"/>
				</linearGradient>
				<path style="fill-rule:evenodd;clip-rule:evenodd;fill:url(#SVGID_33_);" d="M76.75,98.95c0.6,0.167,1.283,0.2,2.05,0.1
					c0.567-0.033,0.784-0.017,0.65,0.05c-0.434,0.367-0.983,0.617-1.65,0.75c-0.767,0.2-1.417,0.167-1.95-0.1
					c-0.4-0.2-0.483-0.434-0.25-0.7C75.8,98.717,76.183,98.684,76.75,98.95z"/>
				<path style="fill-rule:evenodd;clip-rule:evenodd;fill:#999999;" d="M69.8,77.4c-0.1,0.133-0.316,0.3-0.65,0.5
					c-0.467,0.233-0.983,0.184-1.55-0.15c-0.533-0.333-0.833-0.783-0.9-1.35l0.05-0.8l0.05,0.5c0.167,0.466,0.45,0.85,0.85,1.15
					c0.4,0.4,0.883,0.55,1.45,0.45C69.367,77.633,69.6,77.533,69.8,77.4z"/>
				<path style="fill-rule:evenodd;clip-rule:evenodd;fill:#B5B5B5;" d="M87.55,90.55c0.367,0.767,0.816,1.467,1.351,2.101
					c-0.2,0.5-0.534,0.883-1,1.149c-0.534,0.3-0.784-0.533-0.75-2.5l0.05-1C87.3,90.167,87.417,90.25,87.55,90.55z"/>
				<path style="fill-rule:evenodd;clip-rule:evenodd;fill:#D9D9D9;" d="M87.95,91.5c0.333,0.5,0.333,0.717,0,0.65
					c-0.2,0-0.384-0.184-0.55-0.551c-0.101-0.433-0.117-0.699-0.051-0.8c0.034-0.1,0.117-0.083,0.25,0.05L87.95,91.5z"/>
				<path style="fill-rule:evenodd;clip-rule:evenodd;fill:#C7C7C7;" d="M88.85,91.3c0.067,0.167,0.067,0.25,0,0.25
					c-0.166,0.033-0.416-0.217-0.75-0.75c-0.267-0.6-0.399-0.967-0.399-1.1c0.033-0.134,0.1-0.117,0.2,0.05L88.85,91.3z"/>
				<path style="fill-rule:evenodd;clip-rule:evenodd;fill:#C7C7C7;" d="M71,67.35c0.8-1.1,1.75-1.7,2.85-1.8
					c0.5,0,0.816,0.034,0.95,0.1c0.267,0.167,0.3,0.367,0.1,0.6c-0.8,1.133-1.733,2.867-2.8,5.2c-0.1-1.034-0.45-1.717-1.05-2.05
					c-0.433-0.267-0.733-0.4-0.9-0.4H69.9L71,67.35z"/>
			</g>
		</g>
		
			<use xlink:href="#FlashAICB_x2F_Layer_1_x2F__x3C_Path_x3E_"  width="128.6" height="61.9" y="-61.9" transform="matrix(1 0 0 -1 21.5 85.9502)" style="overflow:visible;opacity:0.2813;enable-background:new    ;"/>
		<g>
			<g>
				<g>
					<g>
						
							<linearGradient id="SVGID_34_" gradientUnits="userSpaceOnUse" x1="-67.105" y1="49.4551" x2="-36.3452" y2="49.4551" gradientTransform="matrix(-0.0789 -0.9969 0.9969 -0.0789 4.111230e-005 2.996027e-004)">
							<stop  offset="0" style="stop-color:#344725"/>
							<stop  offset="0.1255" style="stop-color:#3E512C"/>
							<stop  offset="0.3412" style="stop-color:#596C3D"/>
							<stop  offset="0.6235" style="stop-color:#859858"/>
							<stop  offset="0.9529" style="stop-color:#C2D47E"/>
							<stop  offset="1" style="stop-color:#CBDE84"/>
						</linearGradient>
						<path style="fill-rule:evenodd;clip-rule:evenodd;fill:url(#SVGID_34_);" d="M65.9,41.8c-2.233,2.434-4.517,3.934-6.85,4.5
							l-0.4,0.05L58.5,46.2l0.05,0.15L57.6,48c-1.8,2.867-3.733,4.767-5.8,5.7l-0.2,0.1c-0.167,1-0.317,1.684-0.45,2.05
							c-0.9,3.233-2.217,5.617-3.95,7.15l-0.75,0.5c-0.333,0.133-0.6,0.2-0.8,0.2h-0.2c-0.434,0-0.85-0.1-1.25-0.3
							c-0.8-0.4-1.467-1.05-2-1.95l-0.6,0.25L41,61.8h-0.25c-0.8,0.067-1.483-0.25-2.05-0.95c-1-1.233-1.333-2.8-1-4.7
							c0.233-1.466,0.783-2.85,1.65-4.15c1.233-1.767,2.767-3.1,4.6-4c-0.167-1.233,0.133-2.566,0.9-4
							c0.667-1.167,1.517-2.2,2.55-3.1c1.6-1.233,3.317-2.05,5.15-2.45c0.267-1.133,0.883-2.233,1.85-3.3
							c0.867-0.933,1.833-1.7,2.9-2.3c1.467-0.733,3.05-1.167,4.75-1.3c1.733-0.133,3.25,0.067,4.55,0.6
							c0.767,0.1,1.383,0.517,1.85,1.25c0.833,1.534,0.75,3.284-0.25,5.25C67.6,39.816,66.833,40.867,65.9,41.8z"/>
						
							<path style="fill-rule:evenodd;clip-rule:evenodd;fill:none;stroke:#B6CD87;stroke-width:0.25;stroke-linejoin:round;stroke-miterlimit:3;" d="
							M65.9,41.8c-2.233,2.434-4.517,3.934-6.85,4.5l-0.4,0.05L58.5,46.2l0.05,0.15L57.6,48c-1.8,2.867-3.733,4.767-5.8,5.7
							l-0.2,0.1c-0.167,1-0.317,1.684-0.45,2.05c-0.9,3.233-2.217,5.617-3.95,7.15l-0.75,0.5c-0.333,0.133-0.6,0.2-0.8,0.2h-0.2
							c-0.434,0-0.85-0.1-1.25-0.3c-0.8-0.4-1.467-1.05-2-1.95l-0.6,0.25L41,61.8h-0.25c-0.8,0.067-1.483-0.25-2.05-0.95
							c-1-1.233-1.333-2.8-1-4.7c0.233-1.466,0.783-2.85,1.65-4.15c1.233-1.767,2.767-3.1,4.6-4c-0.167-1.233,0.133-2.566,0.9-4
							c0.667-1.167,1.517-2.2,2.55-3.1c1.6-1.233,3.317-2.05,5.15-2.45c0.267-1.133,0.883-2.233,1.85-3.3
							c0.867-0.933,1.833-1.7,2.9-2.3c1.467-0.733,3.05-1.167,4.75-1.3c1.733-0.133,3.25,0.067,4.55,0.6
							c0.767,0.1,1.383,0.517,1.85,1.25c0.833,1.534,0.75,3.284-0.25,5.25C67.6,39.816,66.833,40.867,65.9,41.8z"/>
					</g>
				</g>
				<path style="fill-rule:evenodd;clip-rule:evenodd;fill:#21230F;" d="M58.2,34.45c1.267-0.633,2.633-1,4.1-1.1
					c1.467-0.1,2.75,0.083,3.85,0.55h0.05c0.3,0.067,0.517,0.217,0.65,0.45c0.467,0.867,0.4,1.967-0.2,3.3
					c-0.5,1.034-1.183,1.983-2.05,2.85c-1.934,2.167-3.917,3.5-5.95,4h-0.3c-0.2,0-0.4-0.1-0.6-0.3l-0.25-0.45
					c-0.3,1.133-0.783,2.2-1.45,3.2C54.483,49.517,52.8,51.2,51,52l-0.3,0.1h-0.05c-0.233,0-0.417-0.067-0.55-0.2l-0.25-0.3
					c0.066,1-0.083,2.25-0.45,3.75c-0.8,2.9-1.933,5-3.4,6.3l-0.3,0.15l-0.25,0.05l-0.4-0.05c-0.966-0.566-1.6-1.566-1.9-3
					c-0.7,0.534-1.4,0.917-2.1,1.15H40.8L40.75,60v-0.05c-0.267,0.066-0.467-0.017-0.6-0.25c-0.7-0.867-0.9-2.05-0.6-3.55
					c0.267-1.1,0.717-2.15,1.35-3.15c1.533-2.167,3.45-3.517,5.75-4.05h-0.2c-0.233-0.134-0.4-0.284-0.5-0.45
					c-0.434-1-0.267-2.184,0.5-3.55c0.533-0.967,1.25-1.85,2.15-2.65c1.654-1.323,3.571-2.073,5.75-2.25c-0.2-1.1,0.2-2.233,1.2-3.4
					C56.25,35.783,57.133,35.05,58.2,34.45z"/>
				<g>
					<g>
						<g>
							<g>
								<g>
									<g>
										<g>
											
												<linearGradient id="SVGID_35_" gradientUnits="userSpaceOnUse" x1="-43.3789" y1="58.1348" x2="-38.4697" y2="58.1348" gradientTransform="matrix(-0.0611 -0.9981 0.9981 -0.0611 1.777634e-004 8.130819e-005)">
												<stop  offset="0.0314" style="stop-color:#86A662"/>
												<stop  offset="0.2196" style="stop-color:#67964B"/>
												<stop  offset="0.451" style="stop-color:#468736"/>
												<stop  offset="0.6549" style="stop-color:#317D2B"/>
												<stop  offset="0.7961" style="stop-color:#297A27"/>
											</linearGradient>
											<path style="fill-rule:evenodd;clip-rule:evenodd;fill:url(#SVGID_35_);" d="M65.85,34.65c0.066,0.8-0.383,1.6-1.35,2.4
												c-0.767,0.667-1.667,1.2-2.7,1.6c-2.633,1.133-4.833,1.55-6.6,1.25c1.933-1.333,3.35-2.383,4.25-3.15
												C61.55,35.083,63.683,34.383,65.85,34.65z"/>
											<path style="fill-rule:evenodd;clip-rule:evenodd;fill:#E6F4C3;" d="M55.1,39.9c-0.167-0.833,0.167-1.733,1-2.7
												c0.667-0.8,1.483-1.483,2.45-2.05c1.167-0.6,2.417-0.95,3.75-1.05c1.333-0.1,2.517,0.083,3.55,0.55
												c-0.867-0.1-1.8,0.067-2.8,0.5c-0.566,0.233-1.433,0.733-2.6,1.5C58.483,38.083,56.7,39.167,55.1,39.9z"/>
										</g>
										<g>
											
												<linearGradient id="SVGID_36_" gradientUnits="userSpaceOnUse" x1="-47.0542" y1="59.9971" x2="-38.5395" y2="59.9971" gradientTransform="matrix(-0.0587 -0.9983 0.9983 -0.0587 3.540143e-005 5.240291e-004)">
												<stop  offset="0.0314" style="stop-color:#86A662"/>
												<stop  offset="0.2196" style="stop-color:#67964B"/>
												<stop  offset="0.451" style="stop-color:#468736"/>
												<stop  offset="0.6549" style="stop-color:#317D2B"/>
												<stop  offset="0.7961" style="stop-color:#297A27"/>
											</linearGradient>
											<path style="fill-rule:evenodd;clip-rule:evenodd;fill:url(#SVGID_36_);" d="M66.2,34.7c0.367,0.7,0.267,1.617-0.3,2.75
												c-0.467,0.9-1.083,1.733-1.85,2.5c-1.867,2.066-3.733,3.333-5.6,3.8c1.267-2,2.15-3.533,2.65-4.6
												C62.333,36.817,64.033,35.333,66.2,34.7z"/>
											<path style="fill-rule:evenodd;clip-rule:evenodd;fill:#E6F4C3;" d="M58.4,43.75c-0.467-0.7-0.533-1.65-0.2-2.85
												c0.3-1.033,0.8-1.983,1.5-2.85c0.833-1.033,1.833-1.85,3-2.45c1.167-0.633,2.316-0.934,3.45-0.9
												c-0.833,0.233-1.617,0.75-2.35,1.55c-0.433,0.467-1.033,1.267-1.8,2.4C60.7,40.883,59.5,42.583,58.4,43.75z"/>
										</g>
									</g>
								</g>
							</g>
						</g>
					</g>
					<g>
						<g>
							<g>
								<g>
									<g>
										<g>
											
												<linearGradient id="SVGID_37_" gradientUnits="userSpaceOnUse" x1="-50.9351" y1="48.6943" x2="-44.298" y2="48.6943" gradientTransform="matrix(-0.0603 -0.9982 0.9982 -0.0603 -9.547919e-006 -8.604676e-005)">
												<stop  offset="0.0314" style="stop-color:#86A662"/>
												<stop  offset="0.2196" style="stop-color:#67964B"/>
												<stop  offset="0.451" style="stop-color:#468736"/>
												<stop  offset="0.6549" style="stop-color:#317D2B"/>
												<stop  offset="0.7961" style="stop-color:#297A27"/>
											</linearGradient>
											<path style="fill-rule:evenodd;clip-rule:evenodd;fill:url(#SVGID_37_);" d="M56.15,41c0.233,0.733-0.05,1.6-0.85,2.6
												c-0.633,0.8-1.4,1.483-2.3,2.05c-2.3,1.667-4.383,2.517-6.25,2.55c0.2-0.267,0.75-0.867,1.65-1.8
												c0.9-0.933,1.533-1.65,1.9-2.15C52.067,42.217,54.017,41.133,56.15,41z"/>
											<path style="fill-rule:evenodd;clip-rule:evenodd;fill:#E6F4C3;" d="M46.65,48.2c-0.333-0.767-0.2-1.7,0.4-2.8
												c0.5-0.933,1.184-1.783,2.05-2.55c1.066-0.8,2.217-1.367,3.45-1.7c1.3-0.367,2.5-0.433,3.6-0.2
												c-0.867,0.1-1.75,0.45-2.65,1.05c-0.5,0.367-1.233,1.017-2.2,1.95C49.7,45.717,48.15,47.133,46.65,48.2z"/>
										</g>
										<g>
											
												<linearGradient id="SVGID_38_" gradientUnits="userSpaceOnUse" x1="-54.2886" y1="50.9102" x2="-44.3205" y2="50.9102" gradientTransform="matrix(-0.0602 -0.9982 0.9982 -0.0602 -1.937747e-004 4.340410e-004)">
												<stop  offset="0.0314" style="stop-color:#86A662"/>
												<stop  offset="0.2196" style="stop-color:#67964B"/>
												<stop  offset="0.451" style="stop-color:#468736"/>
												<stop  offset="0.6549" style="stop-color:#317D2B"/>
												<stop  offset="0.7961" style="stop-color:#297A27"/>
											</linearGradient>
											<path style="fill-rule:evenodd;clip-rule:evenodd;fill:url(#SVGID_38_);" d="M56.5,41c0.5,0.566,0.583,1.467,0.25,2.7
												c-0.267,0.933-0.7,1.883-1.3,2.85c-1.567,2.467-3.15,4.067-4.75,4.8c0.066-0.367,0.333-1.133,0.8-2.3
												c0.467-1.233,0.767-2.15,0.9-2.75C53.2,43.767,54.567,42,56.5,41z"/>
											<path style="fill-rule:evenodd;clip-rule:evenodd;fill:#E6F4C3;" d="M50.6,51.35c-0.6-0.567-0.85-1.483-0.75-2.75
												c0.1-1.034,0.4-2.067,0.9-3.1c0.633-1.133,1.467-2.117,2.5-2.95c1.067-0.833,2.15-1.366,3.25-1.6
												c-0.8,0.433-1.483,1.1-2.05,2c-0.333,0.533-0.75,1.433-1.25,2.7C52.367,48.05,51.5,49.95,50.6,51.35z"/>
										</g>
									</g>
								</g>
							</g>
						</g>
					</g>
					<g>
						<g>
							<g>
								<g>
									<g>
										<g>
											
												<linearGradient id="SVGID_39_" gradientUnits="userSpaceOnUse" x1="-61.541" y1="41.0513" x2="-52.3755" y2="41.0513" gradientTransform="matrix(-0.06 -0.9982 0.9982 -0.06 -2.403222e-004 -1.976043e-004)">
												<stop  offset="0.0314" style="stop-color:#86A662"/>
												<stop  offset="0.2196" style="stop-color:#67964B"/>
												<stop  offset="0.451" style="stop-color:#468736"/>
												<stop  offset="0.6549" style="stop-color:#317D2B"/>
												<stop  offset="0.7961" style="stop-color:#297A27"/>
											</linearGradient>
											<path style="fill-rule:evenodd;clip-rule:evenodd;fill:url(#SVGID_39_);" d="M47.75,49.6c0.433,0.667,0.4,1.583-0.1,2.75
												c-0.367,0.933-0.9,1.816-1.6,2.65c-1.733,2.2-3.483,3.6-5.25,4.2c1.1-2.1,1.85-3.7,2.25-4.8
												C44.183,51.934,45.75,50.333,47.75,49.6z"/>
											<path style="fill-rule:evenodd;clip-rule:evenodd;fill:#E6F4C3;" d="M40.7,59.2c-0.534-0.634-0.667-1.567-0.4-2.8
												c0.233-1.033,0.65-2.033,1.25-3c0.767-1.066,1.7-1.95,2.8-2.65c1.133-0.733,2.267-1.133,3.4-1.2
												c-0.833,0.333-1.583,0.934-2.25,1.8c-0.4,0.5-0.917,1.333-1.55,2.5C42.783,56.217,41.7,58,40.7,59.2z"/>
										</g>
										<g>
											
												<linearGradient id="SVGID_40_" gradientUnits="userSpaceOnUse" x1="-63.6372" y1="43.8691" x2="-52.2422" y2="43.8691" gradientTransform="matrix(-0.0592 -0.9982 0.9982 -0.0592 1.420006e-004 8.599460e-004)">
												<stop  offset="0.0314" style="stop-color:#86A662"/>
												<stop  offset="0.2196" style="stop-color:#67964B"/>
												<stop  offset="0.451" style="stop-color:#468736"/>
												<stop  offset="0.6549" style="stop-color:#317D2B"/>
												<stop  offset="0.7961" style="stop-color:#297A27"/>
											</linearGradient>
											<path style="fill-rule:evenodd;clip-rule:evenodd;fill:url(#SVGID_40_);" d="M48.1,49.5c0.633,0.434,0.967,1.283,1,2.55
												c0,1.034-0.15,2.05-0.45,3.05c-0.733,2.767-1.783,4.75-3.15,5.95c-0.033-0.4,0-1.2,0.1-2.4
												c0.1-1.367,0.133-2.333,0.1-2.9C45.7,53.083,46.5,51,48.1,49.5z"/>
											<path style="fill-rule:evenodd;clip-rule:evenodd;fill:#E6F4C3;" d="M45.4,61.1c-0.733-0.4-1.233-1.217-1.5-2.45
												c-0.2-1.033-0.2-2.1,0-3.2c0.267-1.3,0.767-2.483,1.5-3.55c0.767-1.1,1.65-1.917,2.65-2.45
												c-0.633,0.633-1.083,1.483-1.35,2.55c-0.167,0.6-0.317,1.566-0.45,2.9C46.117,57.533,45.833,59.6,45.4,61.1z"/>
										</g>
									</g>
								</g>
							</g>
						</g>
					</g>
				</g>
			</g>
			<g>
				<g>
					<g>
						<linearGradient id="SVGID_41_" gradientUnits="userSpaceOnUse" x1="119.4609" y1="32.334" x2="117.0352" y2="62.9935">
							<stop  offset="0" style="stop-color:#344725"/>
							<stop  offset="0.1255" style="stop-color:#3E512C"/>
							<stop  offset="0.3412" style="stop-color:#596C3D"/>
							<stop  offset="0.6235" style="stop-color:#859858"/>
							<stop  offset="0.9529" style="stop-color:#C2D47E"/>
							<stop  offset="1" style="stop-color:#CBDE84"/>
						</linearGradient>
						<path style="fill-rule:evenodd;clip-rule:evenodd;fill:url(#SVGID_41_);" d="M126.8,44c0.767,1.434,1.066,2.767,0.9,4
							c1.899,0.967,3.416,2.3,4.55,4c0.866,1.3,1.417,2.684,1.65,4.15c0.333,1.9,0.017,3.467-0.95,4.7
							c-0.634,0.667-1.334,0.983-2.101,0.95h-0.25l-0.6-0.1l-0.6-0.25c-0.534,0.933-1.2,1.583-2,1.95c-0.334,0.2-0.75,0.3-1.25,0.3
							H126c-0.167,0-0.45-0.067-0.85-0.2L124.4,63c-1.834-1.6-3.134-3.983-3.9-7.15c-0.2-0.633-0.35-1.317-0.45-2.05l-0.2-0.1
							c-2.1-0.934-4.05-2.833-5.85-5.7c-0.366-0.566-0.667-1.117-0.9-1.65V46.2l-0.149,0.15l-0.4-0.05
							c-2.3-0.566-4.566-2.066-6.8-4.5c-0.934-0.866-1.7-1.917-2.3-3.15c-1-1.966-1.084-3.716-0.25-5.25
							c0.399-0.733,1-1.15,1.8-1.25c1.3-0.533,2.816-0.733,4.55-0.6c1.733,0.134,3.334,0.567,4.8,1.3
							c1.067,0.6,2.017,1.367,2.851,2.3c1,1.067,1.616,2.167,1.85,3.3c1.9,0.4,3.617,1.216,5.15,2.45
							C125.267,41.8,126.134,42.833,126.8,44z"/>
						
							<path style="fill-rule:evenodd;clip-rule:evenodd;fill:none;stroke:#B6CD87;stroke-width:0.25;stroke-linejoin:round;stroke-miterlimit:3;" d="
							M126.8,44c0.767,1.434,1.066,2.767,0.9,4c1.899,0.967,3.416,2.3,4.55,4c0.866,1.3,1.417,2.684,1.65,4.15
							c0.333,1.9,0.017,3.467-0.95,4.7c-0.634,0.667-1.334,0.983-2.101,0.95h-0.25l-0.6-0.1l-0.6-0.25
							c-0.534,0.933-1.2,1.583-2,1.95c-0.334,0.2-0.75,0.3-1.25,0.3H126c-0.167,0-0.45-0.067-0.85-0.2L124.4,63
							c-1.834-1.6-3.134-3.983-3.9-7.15c-0.2-0.633-0.35-1.317-0.45-2.05l-0.2-0.1c-2.1-0.934-4.05-2.833-5.85-5.7
							c-0.366-0.566-0.667-1.117-0.9-1.65V46.2l-0.149,0.15l-0.4-0.05c-2.3-0.566-4.566-2.066-6.8-4.5
							c-0.934-0.866-1.7-1.917-2.3-3.15c-1-1.966-1.084-3.716-0.25-5.25c0.399-0.733,1-1.15,1.8-1.25
							c1.3-0.533,2.816-0.733,4.55-0.6c1.733,0.134,3.334,0.567,4.8,1.3c1.067,0.6,2.017,1.367,2.851,2.3
							c1,1.067,1.616,2.167,1.85,3.3c1.9,0.4,3.617,1.216,5.15,2.45C125.267,41.8,126.134,42.833,126.8,44z"/>
					</g>
				</g>
				<path style="fill-rule:evenodd;clip-rule:evenodd;fill:#21230F;" d="M116.1,36.65c1,1.2,1.384,2.333,1.15,3.4
					c2.167,0.167,4.083,0.917,5.75,2.25c0.9,0.767,1.634,1.65,2.2,2.65c0.733,1.333,0.883,2.517,0.45,3.55
					c-0.101,0.2-0.267,0.35-0.5,0.45h-0.2c2.3,0.533,4.217,1.883,5.75,4.05c0.633,1,1.083,2.05,1.35,3.15
					c0.334,1.5,0.15,2.684-0.55,3.55c-0.2,0.2-0.4,0.283-0.6,0.25V60l-0.051-0.05h-0.25c-0.767-0.267-1.483-0.65-2.149-1.15
					c-0.3,1.467-0.934,2.467-1.9,3l-0.35,0.05l-0.3-0.05l-0.051-0.05l-0.199-0.1c-1.434-1.267-2.567-3.367-3.4-6.3
					c-0.4-1.3-0.55-2.55-0.45-3.75l-0.25,0.3c-0.133,0.133-0.316,0.2-0.55,0.2h-0.1l-0.101-0.05L120.6,52
					c-1.8-0.8-3.483-2.483-5.05-5.05c-0.666-1-1.149-2.067-1.45-3.2l-0.25,0.45c-0.133,0.2-0.316,0.3-0.55,0.3H113
					c-2.033-0.5-4.017-1.833-5.95-4c-0.866-0.867-1.55-1.816-2.05-2.85c-0.634-1.333-0.717-2.433-0.25-3.3h0.05
					c0.101-0.233,0.316-0.383,0.65-0.45h0.05c1.1-0.466,2.384-0.65,3.85-0.55c1.467,0.1,2.834,0.467,4.101,1.1
					C114.517,35.083,115.4,35.817,116.1,36.65z"/>
				<g>
					<g>
						<g>
							<g>
								<g>
									<g>
										<g>
											<linearGradient id="SVGID_42_" gradientUnits="userSpaceOnUse" x1="113.3799" y1="36.4033" x2="108.8049" y2="38.1533">
												<stop  offset="0.0314" style="stop-color:#86A662"/>
												<stop  offset="0.2196" style="stop-color:#67964B"/>
												<stop  offset="0.451" style="stop-color:#468736"/>
												<stop  offset="0.6549" style="stop-color:#317D2B"/>
												<stop  offset="0.7961" style="stop-color:#297A27"/>
											</linearGradient>
											<path style="fill-rule:evenodd;clip-rule:evenodd;fill:url(#SVGID_42_);" d="M114.5,38.5c1.033,0.7,1.667,1.167,1.9,1.4
												c-1.733,0.3-3.934-0.117-6.601-1.25c-1.033-0.433-1.916-0.966-2.649-1.6c-1-0.833-1.45-1.633-1.351-2.4
												c2.167-0.267,4.3,0.434,6.4,2.1C112.667,37.15,113.434,37.733,114.5,38.5z"/>
											<path style="fill-rule:evenodd;clip-rule:evenodd;fill:#E6F4C3;" d="M115.55,37.2c0.8,0.966,1.117,1.866,0.95,2.7
												c-1.5-0.7-3.283-1.783-5.35-3.25c-1.134-0.733-1.983-1.233-2.551-1.5c-1-0.433-1.949-0.6-2.85-0.5
												c1.066-0.466,2.267-0.65,3.6-0.55c1.301,0.1,2.534,0.45,3.7,1.05C114.05,35.717,114.884,36.4,115.55,37.2z"/>
										</g>
										<g>
											<linearGradient id="SVGID_43_" gradientUnits="userSpaceOnUse" x1="113.0371" y1="41.0493" x2="105.3621" y2="37.3493">
												<stop  offset="0.0314" style="stop-color:#86A662"/>
												<stop  offset="0.2196" style="stop-color:#67964B"/>
												<stop  offset="0.451" style="stop-color:#468736"/>
												<stop  offset="0.6549" style="stop-color:#317D2B"/>
												<stop  offset="0.7961" style="stop-color:#297A27"/>
											</linearGradient>
											<path style="fill-rule:evenodd;clip-rule:evenodd;fill:url(#SVGID_43_);" d="M105.45,34.7
												c2.133,0.633,3.816,2.117,5.05,4.45c0.267,0.567,0.75,1.4,1.45,2.5c0.666,1.067,1.066,1.767,1.2,2.1
												c-1.801-0.467-3.65-1.733-5.551-3.8c-0.767-0.767-1.383-1.6-1.85-2.5C105.184,36.317,105.083,35.4,105.45,34.7z"/>
											<path style="fill-rule:evenodd;clip-rule:evenodd;fill:#E6F4C3;" d="M113.25,43.75c-0.967-1-2.184-2.7-3.65-5.1
												c-0.767-1.133-1.35-1.933-1.75-2.4c-0.767-0.8-1.566-1.316-2.399-1.55c1.133-0.034,2.3,0.267,3.5,0.9
												c1.166,0.6,2.166,1.417,3,2.45c0.666,0.867,1.149,1.817,1.45,2.85C113.767,42.1,113.717,43.05,113.25,43.75z"/>
										</g>
									</g>
								</g>
							</g>
						</g>
					</g>
					<g>
						<g>
							<g>
								<g>
									<g>
										<g>
											<linearGradient id="SVGID_44_" gradientUnits="userSpaceOnUse" x1="123.4629" y1="44.688" x2="116.8379" y2="44.513">
												<stop  offset="0.0314" style="stop-color:#86A662"/>
												<stop  offset="0.2196" style="stop-color:#67964B"/>
												<stop  offset="0.451" style="stop-color:#468736"/>
												<stop  offset="0.6549" style="stop-color:#317D2B"/>
												<stop  offset="0.7961" style="stop-color:#297A27"/>
											</linearGradient>
											<path style="fill-rule:evenodd;clip-rule:evenodd;fill:url(#SVGID_44_);" d="M115.45,41
												c2.166,0.133,4.133,1.217,5.899,3.25c0.367,0.5,1,1.217,1.9,2.15c0.866,0.934,1.4,1.534,1.6,1.8
												c-1.8-0.034-3.866-0.884-6.199-2.55c-0.9-0.566-1.684-1.25-2.351-2.05C115.5,42.6,115.217,41.733,115.45,41z"/>
											<path style="fill-rule:evenodd;clip-rule:evenodd;fill:#E6F4C3;" d="M124.95,48.2c-1.4-1-2.934-2.417-4.601-4.25
												c-1.033-0.967-1.783-1.617-2.25-1.95c-0.899-0.6-1.783-0.95-2.649-1.05c1.1-0.233,2.3-0.167,3.6,0.2
												c1.233,0.333,2.384,0.9,3.45,1.7c0.866,0.767,1.55,1.617,2.05,2.55C125.15,46.5,125.283,47.434,124.95,48.2z"/>
										</g>
										<g>
											<linearGradient id="SVGID_45_" gradientUnits="userSpaceOnUse" x1="121.2207" y1="49.8315" x2="114.5457" y2="42.4065">
												<stop  offset="0.0314" style="stop-color:#86A662"/>
												<stop  offset="0.2196" style="stop-color:#67964B"/>
												<stop  offset="0.451" style="stop-color:#468736"/>
												<stop  offset="0.6549" style="stop-color:#317D2B"/>
												<stop  offset="0.7961" style="stop-color:#297A27"/>
											</linearGradient>
											<path style="fill-rule:evenodd;clip-rule:evenodd;fill:url(#SVGID_45_);" d="M115.1,41c2,1,3.367,2.767,4.101,5.3
												c0.166,0.567,0.483,1.483,0.95,2.75c0.433,1.167,0.683,1.934,0.75,2.3c-1.634-0.767-3.2-2.367-4.7-4.8
												c-0.601-0.933-1.033-1.883-1.3-2.85C114.533,42.467,114.6,41.566,115.1,41z"/>
											<path style="fill-rule:evenodd;clip-rule:evenodd;fill:#E6F4C3;" d="M121,51.35c-0.833-1.267-1.684-3.167-2.55-5.7
												c-0.566-1.3-1-2.2-1.3-2.7c-0.567-0.9-1.233-1.567-2-2c1.1,0.233,2.183,0.767,3.25,1.6c1,0.833,1.816,1.817,2.449,2.95
												c0.5,1.033,0.801,2.066,0.9,3.1C121.85,49.867,121.6,50.783,121,51.35z"/>
										</g>
									</g>
								</g>
							</g>
						</g>
					</g>
					<g>
						<g>
							<g>
								<g>
									<g>
										<g>
											<linearGradient id="SVGID_46_" gradientUnits="userSpaceOnUse" x1="130.9912" y1="56.9849" x2="123.4662" y2="51.7349">
												<stop  offset="0.0314" style="stop-color:#86A662"/>
												<stop  offset="0.2196" style="stop-color:#67964B"/>
												<stop  offset="0.451" style="stop-color:#468736"/>
												<stop  offset="0.6549" style="stop-color:#317D2B"/>
												<stop  offset="0.7961" style="stop-color:#297A27"/>
											</linearGradient>
											<path style="fill-rule:evenodd;clip-rule:evenodd;fill:url(#SVGID_46_);" d="M123.85,49.6
												c2.067,0.767,3.634,2.367,4.7,4.8c0.2,0.6,0.601,1.483,1.2,2.65c0.6,1.1,0.95,1.817,1.05,2.15
												c-1.666-0.567-3.416-1.967-5.25-4.2c-0.7-0.833-1.233-1.717-1.6-2.65C123.45,51.184,123.417,50.267,123.85,49.6z"/>
											<path style="fill-rule:evenodd;clip-rule:evenodd;fill:#E6F4C3;" d="M130.9,59.2c-0.9-1.1-1.967-2.884-3.2-5.35
												c-0.7-1.233-1.233-2.067-1.601-2.5c-0.666-0.867-1.416-1.467-2.25-1.8c1.134,0.067,2.267,0.467,3.4,1.2
												c1.134,0.7,2.066,1.583,2.8,2.65c0.634,0.967,1.05,1.967,1.25,3C131.566,57.633,131.434,58.566,130.9,59.2z"/>
										</g>
										<g>
											<linearGradient id="SVGID_47_" gradientUnits="userSpaceOnUse" x1="125.293" y1="60.8813" x2="123.593" y2="49.6063">
												<stop  offset="0.0314" style="stop-color:#86A662"/>
												<stop  offset="0.2196" style="stop-color:#67964B"/>
												<stop  offset="0.451" style="stop-color:#468736"/>
												<stop  offset="0.6549" style="stop-color:#317D2B"/>
												<stop  offset="0.7961" style="stop-color:#297A27"/>
											</linearGradient>
											<path style="fill-rule:evenodd;clip-rule:evenodd;fill:url(#SVGID_47_);" d="M123.55,49.5c1.601,1.566,2.4,3.65,2.4,6.25
												c-0.033,0.633,0,1.6,0.1,2.9c0.066,1.3,0.101,2.1,0.101,2.4c-1.334-1.167-2.4-3.15-3.2-5.95
												c-0.3-1.067-0.434-2.083-0.4-3.05C122.583,50.783,122.917,49.934,123.55,49.5z"/>
											<path style="fill-rule:evenodd;clip-rule:evenodd;fill:#E6F4C3;" d="M126.2,61.1c-0.4-1.534-0.667-3.6-0.8-6.2
												c-0.134-1.333-0.284-2.3-0.45-2.9c-0.3-1.066-0.767-1.917-1.4-2.55c1,0.533,1.884,1.35,2.65,2.45
												c0.767,1.067,1.283,2.25,1.55,3.55c0.167,1.1,0.15,2.167-0.05,3.2C127.434,59.883,126.934,60.7,126.2,61.1z"/>
										</g>
									</g>
								</g>
							</g>
						</g>
					</g>
				</g>
			</g>
		</g>
		
			<use xlink:href="#FlashAICB_x2F_Layer_1_x2F__x3C_Group_x3E__x5F_7"  width="119.2" height="66.417" y="-66.417" transform="matrix(1 0 0 -1 26.2002 22.25)" style="overflow:visible;opacity:0.8281;enable-background:new    ;"/>
	</g>
</g>
</svg>
