<?xml version="1.0" encoding="iso-8859-1"?>
<!-- Generator: Adobe Illustrator 15.1.0, SVG Export Plug-In . SVG Version: 6.00 Build 0)  -->
<!DOCTYPE svg PUBLIC "-//W3C//DTD SVG 1.1//EN" "http://www.w3.org/Graphics/SVG/1.1/DTD/svg11.dtd">
<svg version="1.1" id="FlashAICB" xmlns="http://www.w3.org/2000/svg" xmlns:xlink="http://www.w3.org/1999/xlink" x="0px" y="0px"
	 width="172.35px" height="172.45px" viewBox="0 0 172.35 172.45" style="enable-background:new 0 0 172.35 172.45;"
	 xml:space="preserve">
<symbol  id="FlashAICB_x2F_Layer_1_x2F__x3C_Group_x3E_">
	<g id="Layer_1_4_">
	</g>
</symbol>
<symbol  id="FlashAICB_x2F_Layer_1_x2F__x3C_Path_x3E_" viewBox="0 -57.35 119.15 57.35">
	<g id="Layer_1_3_">
		
			<radialGradient id="SVGID_1_" cx="59.5752" cy="-28.6748" r="46.7516" gradientTransform="matrix(1 0 0 -1 0 -57.3496)" gradientUnits="userSpaceOnUse">
			<stop  offset="0" style="stop-color:#CCEFE7;stop-opacity:0"/>
			<stop  offset="0.0941" style="stop-color:#C2E8E0;stop-opacity:0.0784"/>
			<stop  offset="0.2549" style="stop-color:#A6D6CF;stop-opacity:0.298"/>
			<stop  offset="0.4667" style="stop-color:#7BB8B2;stop-opacity:0.6471"/>
			<stop  offset="0.651" style="stop-color:#519A96"/>
		</radialGradient>
		<path style="fill-rule:evenodd;clip-rule:evenodd;fill:url(#SVGID_1_);" d="M95.85-30.45c10.767,7.733,18.35,17.8,22.75,30.2
			L119.15,0c-0.6-15.967-6.667-29.5-18.2-40.6C89.417-51.767,75.6-57.35,59.5-57.35c-15.767,0-29.383,5.4-40.85,16.2
			C7.217-30.417,1-17.267,0-1.7c4.633-12.033,12.25-21.75,22.85-29.15c10.833-7.6,22.9-11.4,36.2-11.4
			C72.617-42.25,84.883-38.317,95.85-30.45z"/>
	</g>
</symbol>
<symbol  id="FlashAICB_x2F_Layer_1_x2F__x3C_Path_x3E__x5F_0" viewBox="0 -61.544 110.45 61.544">
	<g id="Layer_1_6_">
		<path style="fill-rule:evenodd;clip-rule:evenodd;fill:#FFFFFF;" d="M106.9-34.5c2.367-5.667,3.55-11,3.55-16
			c0-4.967-1.45-8.1-4.35-9.4c-2.367-1.067-6.317-1.05-11.85,0.05c-7.3,1.767-13.15,3.117-17.55,4.05
			c-8.034,1.7-15.2,2.55-21.5,2.55c-6.333,0-13.5-0.917-21.5-2.75c-8.367-2.233-14.217-3.717-17.55-4.45
			c-5.533-1.267-9.467-1.433-11.8-0.5C1.45-59.783,0-56.717,0-51.75c0,5.5,1.167,11.183,3.5,17.05C6-28.467,9.5-22.867,14-17.9
			C24.733-5.967,38.467,0,55.2,0c16.533,0,30.267-6.017,41.2-18.05C100.9-22.983,104.4-28.467,106.9-34.5z"/>
	</g>
</symbol>
<symbol  id="FlashAICB_x2F_Layer_1_x2F__x3C_Path_x3E__x5F_1" viewBox="0 -119.15 119.3 119.15">
	<g id="Layer_1_2_">
		
			<radialGradient id="SVGID_2_" cx="59.6499" cy="-59.5752" r="59.6124" gradientTransform="matrix(1 0 0 -1 0 -119.1504)" gradientUnits="userSpaceOnUse">
			<stop  offset="0" style="stop-color:#CCEFE7"/>
			<stop  offset="0.0863" style="stop-color:#C2E8E0"/>
			<stop  offset="0.2392" style="stop-color:#A6D6CF"/>
			<stop  offset="0.4353" style="stop-color:#7BB8B2"/>
			<stop  offset="0.6078" style="stop-color:#519A96"/>
			<stop  offset="0.8039" style="stop-color:#539A96"/>
			<stop  offset="0.8745" style="stop-color:#589A96"/>
			<stop  offset="0.9255" style="stop-color:#629B96"/>
			<stop  offset="0.9686" style="stop-color:#719B96"/>
			<stop  offset="1" style="stop-color:#839C96"/>
		</radialGradient>
		<path style="fill-rule:evenodd;clip-rule:evenodd;fill:url(#SVGID_2_);" d="M119.3-59.55c0-16.467-5.816-30.517-17.45-42.15
			c-11.667-11.633-25.733-17.45-42.2-17.45s-30.533,5.816-42.2,17.45C5.817-90.067,0-76.017,0-59.55
			c0,16.433,5.817,30.466,17.45,42.1C29.117-5.817,43.183,0,59.65,0s30.533-5.817,42.2-17.45
			C113.483-29.083,119.3-43.117,119.3-59.55z"/>
	</g>
</symbol>
<symbol  id="FlashAICB_x2F_Layer_1_x2F__x3C_Path_x3E__x5F_1_x5F_0" viewBox="0 -56 110.45 56">
	<g id="Layer_1_5_">
		
			<linearGradient id="SVGID_3_" gradientUnits="userSpaceOnUse" x1="16163.1064" y1="-54.0806" x2="16219.0508" y2="-54.0806" gradientTransform="matrix(1.786512e-005 1 -1 -0.001 0.8555 -16219.1055)">
			<stop  offset="0.1294" style="stop-color:#E2B8B2"/>
			<stop  offset="0.9255" style="stop-color:#FFFFFF"/>
		</linearGradient>
		<path style="fill-rule:evenodd;clip-rule:evenodd;fill:url(#SVGID_3_);" d="M96.4-18.05c4.5-4.934,8-10.417,10.5-16.45
			c2.367-5.667,3.55-11,3.55-16c0-1.567-0.167-3.05-0.5-4.45c-1.867,11.1-7.284,20.967-16.25,29.6
			C83.1-15.183,70.267-10.1,55.2-10.1c-15.3,0-28.184-5.083-38.65-15.25C7.517-34.083,2.15-44.3,0.45-56C0.15-54.8,0-53.383,0-51.75
			c0,5.5,1.167,11.183,3.5,17.05C6-28.467,9.5-22.867,14-17.9C24.733-5.967,38.467,0,55.2,0C71.733,0,85.467-6.017,96.4-18.05z"/>
	</g>
</symbol>
<g>
	<path style="fill-rule:evenodd;clip-rule:evenodd;fill:#68757B;" d="M119.7,6.8c10.3,4.367,19.434,10.534,27.399,18.5
		c7.934,7.967,14.084,17.1,18.45,27.4c4.533,10.7,6.8,21.883,6.8,33.55c0,11.667-2.267,22.833-6.8,33.5
		c-4.366,10.3-10.517,19.434-18.45,27.4c-7.966,7.966-17.1,14.133-27.399,18.5c-10.7,4.533-21.884,6.8-33.55,6.8
		c-11.667,0-22.833-2.267-33.5-6.8c-10.3-4.367-19.433-10.534-27.4-18.5c-7.967-7.967-14.133-17.101-18.5-27.4
		C2.25,109.083,0,97.917,0,86.25C0,74.583,2.25,63.4,6.75,52.7c4.367-10.3,10.533-19.434,18.5-27.4
		c7.967-7.966,17.1-14.133,27.4-18.5C63.317,2.267,74.483,0,86.15,0C97.816,0,109,2.267,119.7,6.8z"/>
	
		<linearGradient id="SVGID_4_" gradientUnits="userSpaceOnUse" x1="-172.5361" y1="86.1748" x2="-0.0859" y2="86.1748" gradientTransform="matrix(5.800464e-006 -1 1 -0.001 1.435640e-004 4.683650e-004)">
		<stop  offset="0.0235" style="stop-color:#737373"/>
		<stop  offset="0.0745" style="stop-color:#81807F"/>
		<stop  offset="0.4039" style="stop-color:#DCD4CA"/>
		<stop  offset="0.5765" style="stop-color:#EFEADA"/>
		<stop  offset="0.749" style="stop-color:#FEFBE7"/>
		<stop  offset="0.9961" style="stop-color:#E3E7E9"/>
	</linearGradient>
	<path style="fill-rule:evenodd;clip-rule:evenodd;fill:url(#SVGID_4_);" d="M119.7,6.8c10.3,4.367,19.434,10.534,27.399,18.5
		c7.934,7.967,14.084,17.1,18.45,27.4c4.533,10.7,6.8,21.883,6.8,33.55c0,11.667-2.267,22.833-6.8,33.5
		c-4.366,10.3-10.517,19.434-18.45,27.4c-7.966,7.966-17.1,14.133-27.399,18.5c-10.7,4.533-21.884,6.8-33.55,6.8
		c-11.667,0-22.833-2.267-33.5-6.8c-10.3-4.367-19.433-10.534-27.4-18.5c-7.967-7.967-14.133-17.101-18.5-27.4
		C2.25,109.083,0,97.917,0,86.25C0,74.583,2.25,63.4,6.75,52.7c4.367-10.3,10.533-19.434,18.5-27.4
		c7.967-7.966,17.1-14.133,27.4-18.5C63.317,2.267,74.483,0,86.15,0C97.816,0,109,2.267,119.7,6.8z"/>
	<g>
		<g>
			
				<linearGradient id="SVGID_5_" gradientUnits="userSpaceOnUse" x1="-159.0859" y1="86.1758" x2="-13.5361" y2="86.1758" gradientTransform="matrix(6.869312e-006 -1 1 -0.001 1.857748e-005 4.683650e-004)">
				<stop  offset="0" style="stop-color:#ECE7E0"/>
				<stop  offset="0.1216" style="stop-color:#E1DED8"/>
				<stop  offset="0.7059" style="stop-color:#B5B6B5"/>
				<stop  offset="1" style="stop-color:#A4A7A8"/>
			</linearGradient>
			<path style="fill-rule:evenodd;clip-rule:evenodd;fill:url(#SVGID_5_);" d="M137.65,34.75c6.699,6.733,11.899,14.45,15.6,23.15
				c3.8,9,5.7,18.45,5.7,28.35c0,9.866-1.9,19.316-5.7,28.35c-3.7,8.7-8.9,16.4-15.6,23.101c-6.733,6.7-14.45,11.899-23.15,15.6
				c-9.033,3.8-18.483,5.7-28.35,5.7c-9.867,0-19.317-1.9-28.351-5.7c-8.7-3.7-16.4-8.899-23.1-15.6C28,131,22.8,123.3,19.1,114.6
				c-3.8-9.033-5.7-18.483-5.7-28.35c0-9.867,1.9-19.316,5.7-28.35c3.7-8.7,8.9-16.417,15.6-23.15c6.7-6.7,14.4-11.9,23.1-15.6
				c9.034-3.8,18.483-5.7,28.351-5.7c9.866,0,19.316,1.9,28.35,5.7C123.2,22.85,130.917,28.05,137.65,34.75z"/>
		</g>
	</g>
	<g>
		
			<linearGradient id="SVGID_6_" gradientUnits="userSpaceOnUse" x1="-152.7363" y1="86.1504" x2="-19.8857" y2="86.1504" gradientTransform="matrix(7.527286e-006 -1 1 -0.001 -1.897212e-005 4.683650e-004)">
			<stop  offset="0.0745" style="stop-color:#3C5350"/>
			<stop  offset="0.2" style="stop-color:#486D66"/>
			<stop  offset="0.4667" style="stop-color:#67AF9D"/>
			<stop  offset="0.502" style="stop-color:#6CB9A6"/>
			<stop  offset="0.9216" style="stop-color:#C1C3BE"/>
		</linearGradient>
		<path style="fill-rule:evenodd;clip-rule:evenodd;fill:url(#SVGID_6_);" d="M133.1,39.3c13,12.967,19.5,28.6,19.5,46.9
			c0,18.333-6.5,33.983-19.5,46.95c-12.966,13-28.616,19.5-46.949,19.5c-18.333,0-33.984-6.5-46.95-19.5
			c-13-12.967-19.5-28.617-19.5-46.95c0-18.3,6.5-33.934,19.5-46.9c12.966-13,28.617-19.5,46.95-19.5
			C104.483,19.8,120.134,26.3,133.1,39.3z"/>
		<path style="fill-rule:evenodd;clip-rule:evenodd;fill:none;stroke:#845B22;stroke-miterlimit:10;" d="M133.1,39.3
			c13,12.967,19.5,28.6,19.5,46.9c0,18.333-6.5,33.983-19.5,46.95c-12.966,13-28.616,19.5-46.949,19.5
			c-18.333,0-33.984-6.5-46.95-19.5c-13-12.967-19.5-28.617-19.5-46.95c0-18.3,6.5-33.934,19.5-46.9
			c12.966-13,28.617-19.5,46.95-19.5C104.483,19.8,120.134,26.3,133.1,39.3z"/>
		<path style="fill-rule:evenodd;clip-rule:evenodd;fill:#1C3330;" d="M132.55,39.85C119.75,27.017,104.283,20.6,86.15,20.6
			c-18.134,0-33.601,6.417-46.4,19.25c-12.8,12.8-19.2,28.25-19.2,46.35c0,18.133,6.4,33.6,19.2,46.399
			c12.8,12.834,28.267,19.25,46.4,19.25c18.133,0,33.6-6.416,46.399-19.25c12.8-12.8,19.2-28.267,19.2-46.399
			C151.75,68.1,145.35,52.65,132.55,39.85z M111.9,24.05c8.199,3.4,15.466,8.267,21.8,14.6c6.366,6.367,11.233,13.633,14.6,21.8
			c3.4,8.2,5.101,16.783,5.101,25.75c0,9-1.7,17.6-5.101,25.8c-3.366,8.167-8.233,15.434-14.6,21.8
			c-6.334,6.367-13.601,11.233-21.8,14.601c-8.2,3.399-16.784,5.1-25.75,5.1c-8.967,0-17.55-1.7-25.75-5.1
			c-8.167-3.367-15.433-8.233-21.8-14.601c-6.367-6.366-11.233-13.633-14.6-21.8c-3.4-8.2-5.1-16.8-5.1-25.8
			c0-8.967,1.7-17.55,5.1-25.75c3.4-8.167,8.267-15.434,14.6-21.8c6.367-6.333,13.633-11.2,21.8-14.6c8.2-3.4,16.783-5.1,25.75-5.1
			C95.116,18.95,103.7,20.65,111.9,24.05z"/>
	</g>
	
		<use xlink:href="#FlashAICB_x2F_Layer_1_x2F__x3C_Path_x3E__x5F_1"  width="119.3" height="119.15" y="-119.15" transform="matrix(1 0 0 -1 26.5 24.5)" style="overflow:visible;opacity:0.3789;enable-background:new    ;"/>
	<g>
		<g>
			<g>
				<g>
					<g>
						<g>
							<g>
								
									<linearGradient id="SVGID_7_" gradientUnits="userSpaceOnUse" x1="-37.166" y1="68.6064" x2="-20.9537" y2="68.6064" gradientTransform="matrix(0.4564 -0.8898 0.8898 0.4564 -1.707673e-004 2.436638e-004)">
									<stop  offset="0" style="stop-color:#1E7B6A"/>
									<stop  offset="0.7098" style="stop-color:#9FE0B8"/>
								</linearGradient>
								<path style="fill-rule:evenodd;clip-rule:evenodd;fill:url(#SVGID_7_);" d="M51.6,50c1.367,0.767,2.017,1.917,1.95,3.45
									l-0.05,1.2l1,0.75c1.233,0.9,1.717,2.117,1.45,3.65c-0.133,0.767-0.5,1.45-1.1,2.05c-0.434,0.367-0.95,0.667-1.55,0.9
									l-1.2,0.3l-0.35,1.15c-0.167,0.566-0.5,1.083-1,1.55c-0.567,0.533-1.25,0.867-2.05,1h-0.6c-0.5,0-1.05-0.133-1.65-0.4
									c-0.534-0.3-1-0.717-1.4-1.25l-0.65-1h-1.25c-1.566-0.067-2.667-0.767-3.3-2.1c-0.333-0.633-0.45-1.316-0.35-2.05
									c0.067-0.7,0.333-1.333,0.8-1.9l0.75-0.95l-0.4-1.2c-0.2-0.633-0.2-1.3,0-2c0.167-0.7,0.5-1.3,1-1.8
									c0.767-0.7,1.667-1.05,2.7-1.05c0.533,0.067,0.917,0.15,1.15,0.25l1.15,0.4l1-0.7c0.7-0.467,1.45-0.683,2.25-0.65
									c0.6,0,1.133,0.133,1.6,0.4H51.6z"/>
								<path style="fill-rule:evenodd;clip-rule:evenodd;fill:none;stroke:#DBF0E8;stroke-width:0.25;" d="M51.6,50
									c1.367,0.767,2.017,1.917,1.95,3.45l-0.05,1.2l1,0.75c1.233,0.9,1.717,2.117,1.45,3.65c-0.133,0.767-0.5,1.45-1.1,2.05
									c-0.434,0.367-0.95,0.667-1.55,0.9l-1.2,0.3l-0.35,1.15c-0.167,0.566-0.5,1.083-1,1.55c-0.567,0.533-1.25,0.867-2.05,1h-0.6
									c-0.5,0-1.05-0.133-1.65-0.4c-0.534-0.3-1-0.717-1.4-1.25l-0.65-1h-1.25c-1.566-0.067-2.667-0.767-3.3-2.1
									c-0.333-0.633-0.45-1.316-0.35-2.05c0.067-0.7,0.333-1.333,0.8-1.9l0.75-0.95l-0.4-1.2c-0.2-0.633-0.2-1.3,0-2
									c0.167-0.7,0.5-1.3,1-1.8c0.767-0.7,1.667-1.05,2.7-1.05c0.533,0.067,0.917,0.15,1.15,0.25l1.15,0.4l1-0.7
									c0.7-0.467,1.45-0.683,2.25-0.65c0.6,0,1.133,0.133,1.6,0.4H51.6z"/>
							</g>
						</g>
						<path style="fill-rule:evenodd;clip-rule:evenodd;fill:#1C3330;" d="M53.35,59.55c-0.1,0.134-0.317,0.267-0.65,0.4l-2.25,0.65
							l-0.75,2.2c-0.034,0.2-0.167,0.417-0.4,0.65c-0.233,0.267-0.533,0.417-0.9,0.45c-0.667,0.067-1.183-0.167-1.55-0.7l-1.3-1.95
							L43.2,61.2c-0.633,0-1.117-0.3-1.45-0.9c-0.267-0.6-0.2-1.167,0.2-1.7l1.45-1.85l-0.7-2.2c-0.2-0.633-0.067-1.183,0.4-1.65
							c0.5-0.433,1.066-0.55,1.7-0.35l2.2,0.8L48.9,52c0.533-0.4,1.1-0.433,1.7-0.1c0.566,0.3,0.85,0.784,0.85,1.45l-0.1,2.35
							l1.85,1.4c0.533,0.367,0.75,0.9,0.65,1.6C53.817,58.967,53.65,59.25,53.35,59.55z"/>
						
							<linearGradient id="SVGID_8_" gradientUnits="userSpaceOnUse" x1="-34.3115" y1="68.5645" x2="-23.891" y2="68.5645" gradientTransform="matrix(0.4558 -0.8901 0.8901 0.4558 -4.457235e-004 1.737773e-004)">
							<stop  offset="0.0235" style="stop-color:#808080"/>
							<stop  offset="0.7294" style="stop-color:#E6E6E6"/>
							<stop  offset="1" style="stop-color:#B3B3B3"/>
						</linearGradient>
						<path style="fill-rule:evenodd;clip-rule:evenodd;fill:url(#SVGID_8_);" d="M52.75,57.7c0.3,0.2,0.417,0.483,0.35,0.85
							c-0.067,0.233-0.15,0.384-0.25,0.45c-0.133,0.133-0.25,0.2-0.35,0.2l-2.65,0.75L49,62.55l-0.25,0.35
							c-0.133,0.133-0.283,0.217-0.45,0.25c-0.4,0-0.683-0.133-0.85-0.4l-1.5-2.25l-2.75-0.05c-0.333,0-0.583-0.15-0.75-0.45
							c-0.167-0.3-0.133-0.617,0.1-0.95l1.7-2.15l-0.85-2.6c-0.1-0.333-0.017-0.616,0.25-0.85c0.2-0.233,0.5-0.3,0.9-0.2l2.55,0.95
							l2.2-1.6c0.3-0.2,0.617-0.217,0.95-0.05c0.3,0.167,0.45,0.434,0.45,0.8l-0.1,2.7L52.75,57.7z"/>
						<path style="fill-rule:evenodd;clip-rule:evenodd;fill:#FFFFFF;" d="M52.75,57.7c0.3,0.2,0.417,0.483,0.35,0.85
							c-0.067,0.233-0.15,0.384-0.25,0.45c-0.133,0.133-0.25,0.2-0.35,0.2l0.1-0.25c0.033-0.333-0.083-0.617-0.35-0.85l-2.2-1.65
							l0.1-2.7c0.067-0.367-0.083-0.633-0.45-0.8c-0.333-0.167-0.633-0.15-0.9,0.05l-2.2,1.6L44,53.65l-0.45-0.05l0.1-0.15
							c0.2-0.233,0.5-0.3,0.9-0.2l2.55,0.95l2.2-1.6c0.3-0.2,0.617-0.217,0.95-0.05c0.3,0.167,0.45,0.434,0.45,0.8l-0.1,2.7
							L52.75,57.7z"/>
					</g>
				</g>
			</g>
		</g>
		<g>
			<g>
				<g>
					<g>
						<g>
							<g>
								<linearGradient id="SVGID_9_" gradientUnits="userSpaceOnUse" x1="120.834" y1="49.9316" x2="128.234" y2="64.3566">
									<stop  offset="0" style="stop-color:#1E7B6A"/>
									<stop  offset="0.7098" style="stop-color:#9FE0B8"/>
								</linearGradient>
								<path style="fill-rule:evenodd;clip-rule:evenodd;fill:url(#SVGID_9_);" d="M132.45,61.25c-0.634,1.333-1.733,2.033-3.3,2.1
									h-1.25l-0.65,1c-0.3,0.5-0.767,0.917-1.4,1.25c-0.533,0.267-1.083,0.4-1.649,0.4h-0.55c-0.834-0.167-1.534-0.5-2.101-1
									c-0.5-0.5-0.816-1.017-0.95-1.55L120.2,62.3L119,62c-0.634-0.233-1.134-0.533-1.5-0.9c-0.634-0.567-1-1.25-1.1-2.05
									c-0.334-1.533,0.149-2.75,1.449-3.65l0.95-0.75l-0.05-1.2c-0.066-1.534,0.583-2.684,1.95-3.45h0.1
									c0.533-0.267,1.066-0.4,1.601-0.4c0.8-0.033,1.55,0.183,2.25,0.65l1,0.7l1.149-0.4c0.267-0.1,0.667-0.183,1.2-0.25
									c1,0,1.884,0.35,2.65,1.05c0.533,0.5,0.883,1.1,1.05,1.8c0.166,0.667,0.149,1.333-0.05,2l-0.351,1.2l0.75,0.95
									c0.467,0.534,0.733,1.167,0.8,1.9C132.917,59.9,132.783,60.583,132.45,61.25z"/>
								<path style="fill-rule:evenodd;clip-rule:evenodd;fill:none;stroke:#DBF0E8;stroke-width:0.25;" d="M132.45,61.25
									c-0.634,1.333-1.733,2.033-3.3,2.1h-1.25l-0.65,1c-0.3,0.5-0.767,0.917-1.4,1.25c-0.533,0.267-1.083,0.4-1.649,0.4h-0.55
									c-0.834-0.167-1.534-0.5-2.101-1c-0.5-0.5-0.816-1.017-0.95-1.55L120.2,62.3L119,62c-0.634-0.233-1.134-0.533-1.5-0.9
									c-0.634-0.567-1-1.25-1.1-2.05c-0.334-1.533,0.149-2.75,1.449-3.65l0.95-0.75l-0.05-1.2c-0.066-1.534,0.583-2.684,1.95-3.45
									h0.1c0.533-0.267,1.066-0.4,1.601-0.4c0.8-0.033,1.55,0.183,2.25,0.65l1,0.7l1.149-0.4c0.267-0.1,0.667-0.183,1.2-0.25
									c1,0,1.884,0.35,2.65,1.05c0.533,0.5,0.883,1.1,1.05,1.8c0.166,0.667,0.149,1.333-0.05,2l-0.351,1.2l0.75,0.95
									c0.467,0.534,0.733,1.167,0.8,1.9C132.917,59.9,132.783,60.583,132.45,61.25z"/>
							</g>
						</g>
						<path style="fill-rule:evenodd;clip-rule:evenodd;fill:#1C3330;" d="M130.35,58.6c0.4,0.533,0.467,1.1,0.2,1.7
							c-0.267,0.6-0.75,0.9-1.45,0.9l-2.35,0.05l-1.3,1.95c-0.3,0.533-0.816,0.767-1.55,0.7c-0.334-0.033-0.634-0.183-0.9-0.45
							l-0.4-0.65l-0.75-2.2l-2.25-0.65c-0.267-0.1-0.483-0.233-0.649-0.4c-0.2-0.2-0.367-0.483-0.5-0.85
							c-0.101-0.7,0.116-1.233,0.649-1.6l1.851-1.4l-0.05-2.35c-0.067-0.633,0.216-1.117,0.85-1.45c0.566-0.333,1.116-0.3,1.65,0.1
							l1.949,1.35l2.15-0.8c0.634-0.2,1.2-0.083,1.7,0.35c0.5,0.434,0.633,0.983,0.399,1.65l-0.699,2.2L130.35,58.6z"/>
						<linearGradient id="SVGID_10_" gradientUnits="userSpaceOnUse" x1="129.2012" y1="59.5576" x2="119.6762" y2="55.2326">
							<stop  offset="0.0235" style="stop-color:#808080"/>
							<stop  offset="0.7294" style="stop-color:#E6E6E6"/>
							<stop  offset="1" style="stop-color:#B3B3B3"/>
						</linearGradient>
						<path style="fill-rule:evenodd;clip-rule:evenodd;fill:url(#SVGID_10_);" d="M129.75,59.05c0.233,0.333,0.267,0.65,0.1,0.95
							c-0.133,0.3-0.383,0.45-0.75,0.45l-2.75,0.05l-1.5,2.25c-0.166,0.267-0.449,0.4-0.85,0.4l-0.45-0.25l-0.25-0.35l-0.85-2.6
							l-2.65-0.75c-0.1,0-0.217-0.067-0.35-0.2c-0.134-0.133-0.217-0.283-0.25-0.45c-0.033-0.333,0.083-0.616,0.35-0.85l2.2-1.65
							l-0.1-2.7c-0.067-0.367,0.083-0.633,0.449-0.8c0.301-0.167,0.601-0.15,0.9,0.05l2.2,1.6l2.6-0.95
							c0.367-0.133,0.65-0.066,0.851,0.2c0.267,0.233,0.35,0.517,0.25,0.85l-0.801,2.6L129.75,59.05z"/>
						<path style="fill-rule:evenodd;clip-rule:evenodd;fill:#FFFFFF;" d="M128.65,53.45l0.149,0.15l-0.5,0.05l-2.55,0.95L123.5,53
							c-0.267-0.2-0.566-0.217-0.9-0.05c-0.3,0.167-0.449,0.433-0.449,0.8l0.1,2.7l-2.2,1.65c-0.267,0.233-0.383,0.517-0.35,0.85
							l0.149,0.25h-0.05c-0.1,0-0.217-0.067-0.35-0.2c-0.134-0.133-0.217-0.283-0.25-0.45c-0.033-0.333,0.083-0.616,0.35-0.85
							l2.2-1.65l-0.1-2.7c-0.067-0.367,0.083-0.633,0.449-0.8c0.301-0.167,0.601-0.15,0.9,0.05l2.2,1.6l2.6-0.95
							C128.167,53.117,128.45,53.184,128.65,53.45z"/>
					</g>
				</g>
			</g>
		</g>
	</g>
	<g>
		<g>
			<path style="fill-rule:evenodd;clip-rule:evenodd;fill:#DBF0E8;" d="M60.9,95.15c-1.8,0-3.367-0.617-4.7-1.851l-4.95-4.7
				c-0.967-0.866-1.45-1.983-1.45-3.35c0-1.333,0.483-2.467,1.45-3.4l4.95-4.65c0.6-0.567,1.333-1.034,2.2-1.4
				c0.867-0.333,1.7-0.5,2.5-0.5h18.4l0.2-0.8v-0.7c-0.167-0.433-0.25-0.85-0.25-1.25V70.4c0-0.4,0.083-0.816,0.25-1.25v-1.9
				c0-1.1,0.4-2.033,1.2-2.8c0.8-0.8,1.75-1.2,2.85-1.2h5.2c1.033,0,1.917,0.333,2.65,1l0.25-0.05h19.75c0.8,0,1.633,0.167,2.5,0.5
				c0.866,0.367,1.6,0.833,2.199,1.4l4.95,4.65c0.967,0.934,1.45,2.067,1.45,3.4c0,1.367-0.483,2.483-1.45,3.35l-4.95,4.7
				c-1.333,1.233-2.899,1.85-4.699,1.85H93.25c-0.033,0.4-0.167,0.8-0.4,1.2l0.25,0.55H111.4c1.8,0,3.366,0.617,4.699,1.851
				l4.95,4.699c0.967,0.934,1.45,2.051,1.45,3.351c0,1.366-0.483,2.5-1.45,3.399l-4.95,4.7c-1.333,1.233-2.899,1.851-4.699,1.851
				H92.8v15.699c0.367,0.301,0.634,0.601,0.8,0.9c0.2,0.366,0.334,0.783,0.4,1.25l0.1,0.1c0.601,1.2,0.517,2.434-0.25,3.7
				l1.45,0.851l0.05,0.05c0.667,0.434,1.4,0.983,2.2,1.649c1.033,1,1.5,2.217,1.4,3.65c0,1.134-0.384,2.25-1.15,3.35L97.7,137
				c-0.167,0.267-0.5,0.684-1,1.25l-0.4,0.45L96.15,139l-0.051,0.05l-0.05,0.101l-0.2,0.25v0.05H95.8v0.05l-0.7,0.8l-0.8,0.65
				l-0.399,0.2c-0.467,0.267-1.017,0.483-1.65,0.649l-2.9,0.15l-0.199-0.05l-1.2-0.051L86.5,142.4c-0.667,0.233-1.333,0.35-2,0.35
				c-0.6,0-1.183-0.1-1.75-0.3l-2.85-1.2h-0.1c-0.533-0.1-1.3-0.333-2.3-0.7l-0.15-0.05l-0.25-0.15H77l-0.1-0.1h-0.05l-0.35-0.15
				l-0.05-0.05H76.4l-0.25-0.2H76.1L76,139.8l-0.25-0.2l-0.1-0.05l-0.05-0.05l-0.1-0.05l-0.2-0.2l-0.2-0.15l-0.5-0.5v-0.05l-0.1-0.1
				v0.05l-0.2-0.3l-0.15-0.15l-0.05-0.1l-0.5-0.8V137.1l-0.4-0.75c-0.434-0.933-0.4-1.916,0.1-2.949l0.8-1.301l0.1-0.199l0.1-0.101
				l0.65-0.899L75,130.85l0.45-0.6l0.05-0.05l0.05-0.101L77,128.7l0.3-0.2l0.05-0.05l0.2-0.15h0.05c-0.067-0.2-0.1-0.5-0.1-0.899
				c0.1-1.167,0.6-2.034,1.5-2.601c-0.233-1-0.067-1.95,0.5-2.85V100.7c-0.167-0.434-0.25-0.851-0.25-1.25V97.35
				c0-0.433,0.083-0.866,0.25-1.3v-0.7l-0.05-0.199H60.9z"/>
		</g>
		<g>
			<g>
				
					<linearGradient id="SVGID_11_" gradientUnits="userSpaceOnUse" x1="-142.1338" y1="86.1514" x2="-62.3828" y2="86.1514" gradientTransform="matrix(1.253919e-005 -1 1 -0.001 8.013575e-005 4.683650e-004)">
					<stop  offset="0" style="stop-color:#1E7B6A"/>
					<stop  offset="0.7098" style="stop-color:#9FE0B8"/>
				</linearGradient>
				<path style="fill-rule:evenodd;clip-rule:evenodd;fill:url(#SVGID_11_);" d="M60.9,74.35h18.3l0.2-0.75v-0.65
					c-0.167-0.4-0.25-0.817-0.25-1.25v-2.1c0-0.4,0.083-0.85,0.25-1.35v-1.8c0-1.133,0.4-2.117,1.2-2.95
					c0.833-0.8,1.816-1.2,2.95-1.2h5.2c1.033,0,1.934,0.333,2.7,1l0.2-0.05h19.75c1.767,0,3.366,0.633,4.8,1.9l4.95,4.7
					c1,0.933,1.5,2.083,1.5,3.45c0,1.333-0.5,2.5-1.5,3.5l-4.95,4.65c-1.367,1.267-2.967,1.9-4.8,1.9H93.35
					C93.316,83.65,93.2,84,93,84.4l0.15,0.45h18.25c0.833,0,1.683,0.167,2.55,0.5c0.899,0.367,1.649,0.833,2.25,1.4l4.95,4.7
					c1,0.934,1.5,2.083,1.5,3.45c0,1.366-0.5,2.517-1.5,3.449l-4.95,4.7c-1.434,1.267-3.033,1.9-4.8,1.9H92.9v15.5
					c0.3,0.2,0.566,0.517,0.8,0.95c0.2,0.399,0.35,0.816,0.45,1.25l0.05,0.05c0.633,1.2,0.566,2.434-0.2,3.7l1.35,0.85l0.101,0.05
					c0.7,0.434,1.416,0.983,2.149,1.65c1.101,1,1.601,2.233,1.5,3.7c0,1.1-0.399,2.25-1.199,3.449l-0.101,0.15l-1.399,1.7
					l-0.15,0.25l-0.05,0.05l-0.05,0.15l-0.2,0.25l-0.05,0.05l-0.25,0.35l-0.5,0.5l-0.801,0.65l-0.399,0.25
					c-0.634,0.333-1.2,0.533-1.7,0.6l-0.6,0.101h-3.7l-1.45,0.55c-0.667,0.233-1.333,0.35-2,0.35c-0.633,0-1.233-0.1-1.8-0.3
					l-2.85-1.2h-0.1c-1.2-0.366-1.967-0.616-2.3-0.75l-0.15-0.05L77,139.6l-0.15-0.05l-0.75-0.399l-0.9-0.601l-0.7-0.7l-0.3-0.399
					l-0.7-1.05v-0.051l-0.4-0.75c-0.467-1.066-0.434-2.083,0.1-3.05l0.8-1.35l0.1-0.2l0.1-0.1l0.65-0.9l0.05-0.05
					c0.167-0.267,0.333-0.467,0.5-0.601l0.1-0.149l1.35-1.351l0.1-0.05l0.25-0.2l0.1-0.05l0.15-0.149l-0.05-0.851
					c0.067-1.133,0.567-2.017,1.5-2.649c-0.267-0.967-0.1-1.9,0.5-2.801V99.9c-0.167-0.434-0.25-0.867-0.25-1.301v-2.1
					c0-0.434,0.083-0.866,0.25-1.3v-0.65l-0.05-0.1H60.9c-1.833,0-3.417-0.634-4.75-1.9l-5-4.649c-1-1-1.5-2.167-1.5-3.5
					c0-1.367,0.5-2.517,1.5-3.45l5-4.7C57.517,74.983,59.1,74.35,60.9,74.35z"/>
				<path style="fill-rule:evenodd;clip-rule:evenodd;fill:none;stroke:#DBF0E8;stroke-width:0.25;" d="M92.9,104.95v15.5
					c0.3,0.2,0.566,0.517,0.8,0.95c0.2,0.399,0.35,0.816,0.45,1.25l0.05,0.05c0.633,1.2,0.566,2.434-0.2,3.7l1.35,0.85l0.101,0.05
					c0.7,0.434,1.416,0.983,2.149,1.65c1.101,1,1.601,2.233,1.5,3.7c0,1.1-0.399,2.25-1.199,3.449l-0.101,0.15l-1.399,1.7
					l-0.15,0.25l-0.05,0.05l-0.05,0.15l-0.2,0.25l-0.05,0.05l-0.25,0.35l-0.5,0.5l-0.801,0.65l-0.399,0.25
					c-0.634,0.333-1.2,0.533-1.7,0.6l-0.6,0.101h-3.7l-1.45,0.55c-0.667,0.233-1.333,0.35-2,0.35c-0.633,0-1.233-0.1-1.8-0.3
					l-2.85-1.2h-0.1c-1.2-0.366-1.967-0.616-2.3-0.75l-0.15-0.05L77,139.6l-0.15-0.05l-0.75-0.399l-0.9-0.601l-0.7-0.7l-0.3-0.399
					l-0.7-1.05v-0.051l-0.4-0.75c-0.467-1.066-0.434-2.083,0.1-3.05l0.8-1.35l0.1-0.2l0.1-0.1l0.65-0.9l0.05-0.05
					c0.167-0.267,0.333-0.467,0.5-0.601l0.1-0.149l1.35-1.351l0.1-0.05l0.25-0.2l0.1-0.05l0.15-0.149l-0.05-0.851
					c0.067-1.133,0.567-2.017,1.5-2.649c-0.267-0.967-0.1-1.9,0.5-2.801V99.9c-0.167-0.434-0.25-0.867-0.25-1.301v-2.1
					c0-0.434,0.083-0.866,0.25-1.3v-0.65l-0.05-0.1H60.9c-1.833,0-3.417-0.634-4.75-1.9l-5-4.649c-1-1-1.5-2.167-1.5-3.5
					c0-1.367,0.5-2.517,1.5-3.45l5-4.7c1.367-1.267,2.95-1.9,4.75-1.9h18.3l0.2-0.75v-0.65c-0.167-0.4-0.25-0.817-0.25-1.25v-2.1
					c0-0.4,0.083-0.85,0.25-1.35v-1.8c0-1.133,0.4-2.117,1.2-2.95c0.833-0.8,1.816-1.2,2.95-1.2h5.2c1.033,0,1.934,0.333,2.7,1
					l0.2-0.05h19.75c1.767,0,3.366,0.633,4.8,1.9l4.95,4.7c1,0.933,1.5,2.083,1.5,3.45c0,1.333-0.5,2.5-1.5,3.5l-4.95,4.65
					c-1.367,1.267-2.967,1.9-4.8,1.9H93.35C93.316,83.65,93.2,84,93,84.4l0.15,0.45h18.25c0.833,0,1.683,0.167,2.55,0.5
					c0.899,0.367,1.649,0.833,2.25,1.4l4.95,4.7c1,0.934,1.5,2.083,1.5,3.45c0,1.366-0.5,2.517-1.5,3.449l-4.95,4.7
					c-1.434,1.267-3.033,1.9-4.8,1.9"/>
			</g>
		</g>
		<path style="fill-rule:evenodd;clip-rule:evenodd;fill:#4A5C57;" d="M60.9,91.5c-1.033,0-1.95-0.366-2.75-1.1l-4.95-4.65
			c-0.4-0.4-0.6-0.85-0.6-1.35c0-0.466,0.2-0.9,0.6-1.3l4.95-4.7c0.767-0.7,1.684-1.05,2.75-1.05h19.75c0.8,0,1.367,0.35,1.7,1.05
			v-0.95c-0.167-0.067-0.25-0.2-0.25-0.4v-2.1c0-0.2,0.083-0.35,0.25-0.45v-2.4c-0.167-0.067-0.25-0.2-0.25-0.4v-2.1
			c0-0.2,0.083-0.35,0.25-0.45v-2.7c0-0.333,0.117-0.617,0.35-0.85c0.233-0.233,0.517-0.35,0.85-0.35h5.2
			c0.333,0,0.616,0.117,0.85,0.35s0.351,0.517,0.351,0.85v0.85c0.333-0.7,0.899-1.05,1.7-1.05h19.75c1.066,0,1.983,0.35,2.75,1.05
			L119.1,72c0.4,0.367,0.601,0.8,0.601,1.3c0,0.567-0.2,1.017-0.601,1.35l-4.949,4.65c-0.733,0.733-1.65,1.1-2.75,1.1H91.65
			c-0.801,0-1.367-0.35-1.7-1.05v0.85c0.333,0,0.5,0.167,0.5,0.5v2.1c0,0.333-0.167,0.5-0.5,0.5v2.25c0.333,0,0.5,0.167,0.5,0.5
			v2.101l-0.05,0.1c0.433-0.3,0.85-0.45,1.25-0.45h19.75c1.033,0,1.949,0.367,2.75,1.101L119.1,93.6
			c0.4,0.367,0.601,0.801,0.601,1.301c0,0.533-0.2,0.966-0.601,1.3l-4.949,4.7c-0.801,0.733-1.717,1.1-2.75,1.1H91.65
			c-0.767,0-1.334-0.35-1.7-1.05v22.1l0.3-0.3c0.167-0.1,0.316-0.15,0.45-0.15c0.2,0,0.35,0.084,0.45,0.25
			c0.1,0.267,0.066,0.601-0.101,1c0.267,0,0.45,0.084,0.55,0.25c0.101,0.233,0.034,0.551-0.199,0.95l-0.051,0.05
			c-0.233,0.4-0.466,1.034-0.699,1.9l-0.2,1.05c0.934,0.3,1.684,0.65,2.25,1.05l1.149,0.7c0.667,0.4,1.267,0.851,1.801,1.351
			c0.399,0.333,0.566,0.8,0.5,1.399c0,0.566-0.233,1.2-0.7,1.9l-0.05,0.05l-1.4,1.75l-0.25,0.4l-0.05,0.05L93.6,136.85l-0.05,0.051
			v0.05l-0.2,0.25L93.2,137.35l-0.5,0.4L92.6,137.8c-0.233,0.167-0.55,0.3-0.949,0.4l-2.351,0.05l-1.25-0.1h-0.2l-0.75,0.1
			l-1.55,0.65c-0.367,0.133-0.716,0.199-1.05,0.199c-0.3,0-0.583-0.05-0.85-0.149l-1.65-0.7c-0.667-0.3-1.183-0.5-1.55-0.6l-2-0.601
			l-0.25-0.1v-0.05h-0.1l-0.25-0.15H77.8l-0.2-0.15l-0.05-0.05l-0.2-0.1l-0.05-0.05h-0.05v-0.051l-0.15-0.1l-0.15-0.15H76.9v-0.05
			l-0.4-0.399V135.6l-0.1-0.1l-0.3-0.5v-0.05l-0.3-0.601c-0.066-0.133-0.066-0.267,0-0.399l0.35-0.601l0.05-0.05l0.15-0.3l0.15-0.2
			l0.05-0.05v-0.05l0.15-0.2v-0.05h0.05l0.45-0.65v-0.05l0.45-0.5l0.05-0.1h0.05c0.433-0.5,0.767-0.834,1-1l0.05-0.051v-0.05
			l0.15-0.1l0.1-0.05l0.15-0.101l0.3-0.25l0.1-0.05l0.05-0.05h0.1l0.05-0.05l0.1-0.051l0.3-0.199h0.05
			c0.033-0.467,0.283-0.834,0.75-1.101c0.267-0.133,0.583-0.2,0.95-0.2l-0.05-0.05c-0.1-0.2-0.283-0.333-0.55-0.399l-0.2-0.051
			l-0.35-0.05c-0.3-0.1-0.45-0.3-0.45-0.6c0-0.267,0.167-0.434,0.5-0.5h0.45l1.05,0.149v-0.899c-0.233-0.367-0.283-0.65-0.15-0.851
			c0-0.033,0.033-0.083,0.1-0.149l-0.55-1.2c-0.067-0.2-0.017-0.384,0.15-0.55c0.167-0.101,0.317-0.134,0.45-0.101V99.05
			c-0.167-0.1-0.25-0.25-0.25-0.45v-2.1c0-0.2,0.083-0.333,0.25-0.4V93.7c-0.167-0.101-0.25-0.233-0.25-0.4V91.15
			c0-0.2,0.083-0.334,0.25-0.4v-0.3c-0.333,0.7-0.9,1.05-1.7,1.05H60.9z M89.95,88.6H90.1l-0.149,0.25V88.6v0.25L90.1,88.6H89.95z"
			/>
		<path style="fill-rule:evenodd;clip-rule:evenodd;fill:none;stroke:#1C3330;" d="M60.9,91.5h19.75c0.8,0,1.367-0.35,1.7-1.05v0.3
			c-0.167,0.066-0.25,0.2-0.25,0.4V93.3c0,0.167,0.083,0.3,0.25,0.4V96.1c-0.167,0.067-0.25,0.2-0.25,0.4v2.1
			c0,0.2,0.083,0.351,0.25,0.45v23.55c-0.133-0.033-0.283,0-0.45,0.101c-0.167,0.166-0.217,0.35-0.15,0.55l0.55,1.2
			c-0.066,0.066-0.1,0.116-0.1,0.149c-0.133,0.2-0.083,0.483,0.15,0.851v0.899L81.3,126.2h-0.45c-0.333,0.066-0.5,0.233-0.5,0.5
			c0,0.3,0.15,0.5,0.45,0.6l0.35,0.05l0.2,0.051c0.267,0.066,0.45,0.199,0.55,0.399l0.05,0.05c-0.367,0-0.684,0.067-0.95,0.2
			c-0.467,0.267-0.717,0.634-0.75,1.101H80.2l-0.3,0.199l-0.1,0.051l-0.05,0.05h-0.1l-0.05,0.05l-0.1,0.05l-0.3,0.25l-0.15,0.101
			l-0.1,0.05l-0.15,0.1v0.05l-0.05,0.051c-0.233,0.166-0.567,0.5-1,1H77.7l-0.05,0.1l-0.45,0.5v0.05l-0.45,0.65H76.7v0.05l-0.15,0.2
			v0.05l-0.05,0.05l-0.15,0.2l-0.15,0.3l-0.05,0.05l-0.35,0.601c-0.066,0.133-0.066,0.267,0,0.399l0.3,0.601V135l0.3,0.5l0.1,0.1
			v0.051l0.4,0.399v0.05h0.05l0.15,0.15l0.15,0.1v0.051h0.05l0.05,0.05l0.2,0.1l0.05,0.05l0.2,0.15h0.05l0.25,0.15h0.1v0.05
			l0.25,0.1l2,0.601c0.367,0.1,0.883,0.3,1.55,0.6l1.65,0.7c0.267,0.1,0.55,0.149,0.85,0.149c0.333,0,0.683-0.066,1.05-0.199
			l1.55-0.65l0.75-0.1h0.2l1.25,0.1l2.351-0.05c0.399-0.101,0.716-0.233,0.949-0.4l0.101-0.05l0.5-0.4l0.149-0.149l0.2-0.25v-0.05
			l0.05-0.051L93.7,136.7l0.05-0.05l0.25-0.4l1.4-1.75l0.05-0.05c0.467-0.7,0.7-1.334,0.7-1.9c0.066-0.6-0.101-1.066-0.5-1.399
			c-0.534-0.5-1.134-0.95-1.801-1.351l-1.149-0.7c-0.566-0.399-1.316-0.75-2.25-1.05l0.2-1.05c0.233-0.866,0.466-1.5,0.699-1.9
			l0.051-0.05c0.233-0.399,0.3-0.717,0.199-0.95c-0.1-0.166-0.283-0.25-0.55-0.25c0.167-0.399,0.2-0.733,0.101-1
			c-0.101-0.166-0.25-0.25-0.45-0.25c-0.134,0-0.283,0.051-0.45,0.15l-0.3,0.3v-22.1c0.366,0.7,0.934,1.05,1.7,1.05h19.75
			c1.033,0,1.949-0.366,2.75-1.1l4.949-4.7c0.4-0.334,0.601-0.767,0.601-1.3c0-0.5-0.2-0.934-0.601-1.301L114.15,88.9
			c-0.801-0.733-1.717-1.101-2.75-1.101H91.65c-0.4,0-0.817,0.15-1.25,0.45l0.05-0.1V86.05c0-0.333-0.167-0.5-0.5-0.5V83.3
			c0.333,0,0.5-0.167,0.5-0.5v-2.1c0-0.333-0.167-0.5-0.5-0.5v-0.85c0.333,0.7,0.899,1.05,1.7,1.05h19.75
			c1.1,0,2.017-0.367,2.75-1.1l4.949-4.65c0.4-0.333,0.601-0.783,0.601-1.35c0-0.5-0.2-0.933-0.601-1.3l-4.949-4.7
			c-0.767-0.7-1.684-1.05-2.75-1.05H91.65c-0.801,0-1.367,0.35-1.7,1.05v-0.85c0-0.333-0.117-0.617-0.351-0.85
			s-0.517-0.35-0.85-0.35h-5.2c-0.333,0-0.617,0.117-0.85,0.35c-0.233,0.233-0.35,0.517-0.35,0.85v2.7
			c-0.167,0.1-0.25,0.25-0.25,0.45v2.1c0,0.2,0.083,0.333,0.25,0.4v2.4c-0.167,0.1-0.25,0.25-0.25,0.45v2.1
			c0,0.2,0.083,0.333,0.25,0.4v0.95c-0.333-0.7-0.9-1.05-1.7-1.05H60.9c-1.066,0-1.983,0.35-2.75,1.05l-4.95,4.7
			c-0.4,0.4-0.6,0.833-0.6,1.3c0,0.5,0.2,0.95,0.6,1.35l4.95,4.65C58.95,91.134,59.867,91.5,60.9,91.5z M89.95,88.6H90.1
			l-0.149,0.25V88.6z"/>
		<g>
			<g>
				<path style="fill-rule:evenodd;clip-rule:evenodd;fill:#7A674C;" d="M82.35,128.95l4.2-0.601c0.8-0.1,1.584-0.149,2.351-0.149
					l0.399,0.1c1.101,0.167,2.15,0.566,3.15,1.2l1.2,0.7c0.5,0.3,1.05,0.733,1.649,1.3c0.533,0.5,0.467,1.283-0.2,2.35
					c-0.767,0.867-1.267,1.467-1.5,1.801c-0.5,1-1.183,1.566-2.05,1.699l-2.25,0.101l-1.149-0.101c-0.567,0-0.95,0.051-1.15,0.15
					l-1.6,0.6c-0.566,0.2-1.083,0.217-1.55,0.051c-0.233-0.034-0.767-0.267-1.6-0.7l-5-1.7l-0.45-0.55
					c-0.233-0.367-0.417-0.717-0.55-1.05c0.833-1.534,1.767-2.75,2.8-3.65C79.917,129.767,81.017,129.25,82.35,128.95z"/>
				<path style="fill-rule:evenodd;clip-rule:evenodd;fill:#837053;" d="M93.6,130.55c0.5,0.3,1.067,0.733,1.7,1.3
					c0.533,0.5,0.45,1.267-0.25,2.301l-2.1,2.8l-0.55-0.7c-0.434-0.9-0.534-1.8-0.301-2.7l0.551-1.1c0.233-0.367,0.35-0.8,0.35-1.3
					c-0.033-0.301-0.134-0.551-0.3-0.75l-0.45-0.551l-0.1-0.149L93.6,130.55z"/>
				<path style="fill-rule:evenodd;clip-rule:evenodd;fill:#8D795A;" d="M88.65,128.4l0.05,0.449c0.033,0.7-0.066,1.267-0.3,1.7
					l-0.2,0.4l-0.3-0.05c-0.167-0.034-0.384-0.384-0.65-1.051c-0.1-0.5-0.134-0.866-0.1-1.1l0.05-0.45l1.25-0.1L88.65,128.4z"/>
				<path style="fill-rule:evenodd;clip-rule:evenodd;fill:#78654B;" d="M94.5,131.15l0.8,0.699c0.533,0.5,0.45,1.267-0.25,2.301
					L93.6,136c-0.366,0.634-0.75,1.083-1.149,1.35c-0.134-0.199-0.384-0.649-0.75-1.35l-1-3.3c0.133-0.033,0.333,0,0.6,0.1l0.55,0.3
					c0.733,0.167,1.2,0.233,1.4,0.2l0.05-0.649c0.033-0.034,0.3-0.017,0.8,0.05c0.233,0.033,0.467-0.033,0.7-0.2
					c0.066-0.267,0.05-0.5-0.05-0.7L94.5,131.15z"/>
				<path style="fill-rule:evenodd;clip-rule:evenodd;fill:#998463;" d="M86.95,128.3l1.8,1.101c0.066,0.066,0.167,0.1,0.3,0.1
					l0.351,0.15l0.55,0.75c0.133,0.066,0.383,0.133,0.75,0.199l0.75,0.101c0.333,0.133,0.684,0.366,1.05,0.7
					c0.434,0.366,0.767,0.616,1,0.75l0.3,0.1l0.55,0.75c0.167,0.4,0.417,0.767,0.75,1.1c-0.199,0.367-0.5,0.767-0.899,1.2L93.6,136
					c-0.566,1-1.25,1.566-2.05,1.7l-2.25,0.1l-1.149-0.1c-0.601,0-1,0.05-1.2,0.149l-1.55,0.601c-0.566,0.2-1.1,0.217-1.6,0.05
					l-1.6-0.7c-0.633-0.3-1.184-0.5-1.65-0.6l-2.05-0.65l-0.1-0.05c-0.467-0.333-0.8-0.55-1-0.65l-0.2-0.149l-0.1-0.2
					c0-0.066-0.033-0.066-0.1,0l-0.5-0.75l-0.25-0.6c0.833-1.534,1.767-2.75,2.8-3.65c0.267-0.233,0.667-0.517,1.2-0.85l0.3-0.051
					l0.55-0.3c0.533-0.2,0.95-0.316,1.25-0.35L86.95,128.3z"/>
				<path style="fill-rule:evenodd;clip-rule:evenodd;fill:#917D5D;" d="M78.05,131.5c0.1,0,0.15,0.083,0.15,0.25
					c0,0.033,0.033,0.184,0.1,0.45c0.034,0.166,0.083,0.283,0.15,0.35c0.066,0,0.167,0.033,0.3,0.101
					c0.167,0.066,0.233,0.133,0.2,0.199c-0.034,0.233-0.15,0.517-0.35,0.851c0.167,0,0.217,0.166,0.15,0.5
					c0.1,0.066,0.233,0.066,0.4,0l0.05,0.25l0.65-0.45c0.333-0.167,0.45,0.017,0.35,0.55c0.1,0,0.233,0.084,0.4,0.25
					c0.2,0.267,0.283,0.467,0.25,0.601l0.5,0.05l0.45,0.45c0.1,0,0.2-0.034,0.3-0.101c0.167-0.066,0.267-0.083,0.3-0.05l0.25,0.65
					l0.25,0.05l0.5-0.101c0.067-0.066,0.083-0.216,0.05-0.449c0.267,0.166,0.483,0.116,0.65-0.15c0.167-0.333,0.15-0.733-0.05-1.2
					l0.55,0.601c0.267,0.267,0.35,0.6,0.25,1l0.8,0.05c0.367,0,0.617,0.05,0.75,0.149c0.066-0.233,0.133-0.383,0.199-0.449
					c0.067-0.134,0.15-0.15,0.25-0.051v-0.399c0.034-0.033,0.134,0,0.301,0.1c0.1,0.134,0.183,0.2,0.25,0.2
					c0-0.333,0.066-0.5,0.199-0.5c0.067,0,0.184,0.083,0.351,0.25V135c0.934,0.533,1.666,0.866,2.2,1c0.066-0.467,0-0.95-0.2-1.45
					c-0.134-0.533-0.3-0.916-0.5-1.149c0.166,0,0.483,0.233,0.95,0.699c0.399,0.334,0.716,0.434,0.949,0.301l0.101,0.199l0.05-0.75
					c0.033-0.033,0.116-0.017,0.25,0.051c0.1,0.066,0.2,0.1,0.3,0.1c0-0.267-0.066-0.517-0.2-0.75l-0.35-0.65
					c0.267,0.067,0.667,0.367,1.2,0.9c-0.101-0.434-0.334-0.85-0.7-1.25l-0.9-0.85c0.167,0,0.434,0.166,0.801,0.5
					c0.333,0.267,0.583,0.383,0.75,0.35L92.6,132l0.15,0.05l-0.15-0.35c0.2,0.267,0.384,0.399,0.551,0.399l0.199-0.1l0.15,0.15
					l0.3,0.1l0.55,0.75c0.167,0.4,0.417,0.767,0.75,1.1c-0.199,0.367-0.5,0.767-0.899,1.2L93.6,136c-0.566,1-1.25,1.566-2.05,1.7
					l-2.25,0.1l-1.149-0.1c-0.601,0-1,0.05-1.2,0.149l-1.55,0.601c-0.566,0.2-1.1,0.217-1.6,0.05l-1.6-0.7
					c-0.633-0.3-1.184-0.5-1.65-0.6l-1.9-0.601l-0.1-0.05c-0.833-0.366-1.417-0.816-1.75-1.35c-0.233-0.367-0.417-0.717-0.55-1.05
					C76.817,133.116,77.417,132.233,78.05,131.5z"/>
				<path style="fill-rule:evenodd;clip-rule:evenodd;fill:#8B7759;" d="M89.45,133.4c0.166,0,0.399,0.149,0.7,0.449l0.699,0.551
					l0.101,0.3c0,0.1,0.149,0.467,0.45,1.1c0.066,0.066,0.133,0.217,0.199,0.45c0.034,0.167,0.117,0.283,0.25,0.35
					c0.034-0.199,0.034-0.416,0-0.649l-0.05-0.65c0.101,0.167,0.25,0.334,0.45,0.5l0.5,0.25c0.066-0.434,0.1-0.934,0.1-1.5
					c0.101-0.1,0.233-0.116,0.4-0.05l0.35,0.05c-0.066-0.366-0.149-0.616-0.25-0.75L92.9,133.4c0.1-0.101,0.25-0.101,0.449,0
					l0.45,0.35l-0.3-0.6l0.5,0.1l-0.25-0.45l-0.15-0.45L93.9,132.4l0.449,0.6c0.167,0.4,0.417,0.767,0.75,1.1
					c-0.199,0.367-0.5,0.767-0.899,1.2L93.6,136c-0.566,1-1.25,1.566-2.05,1.7l-2.25,0.1l-1.149-0.1c-0.601,0-1,0.05-1.2,0.149
					l-1.55,0.601c-0.566,0.2-1.1,0.217-1.6,0.05l-1.6-0.7c-0.633-0.3-1.184-0.5-1.65-0.6l-1.9-0.601H78.6
					c-0.833-0.399-1.434-0.866-1.8-1.399c-0.233-0.367-0.417-0.717-0.55-1.05l0.85-1.4l0.4-0.25c0.233-0.333,0.417-0.533,0.55-0.6
					c0.3-0.101,0.517-0.051,0.65,0.149c0.133,0.267,0.117,0.566-0.05,0.9c-0.233,0.533-0.35,0.816-0.35,0.85l-0.2,1.05l-0.3,0.851
					c0.1,0.133,0.217,0.116,0.35-0.05c0.2-0.167,0.317-0.233,0.35-0.2v0.45c0.133,0.033,0.267-0.034,0.4-0.2
					c0.1-0.134,0.184-0.367,0.25-0.7c0.1,0.366,0.233,0.384,0.4,0.05c0.3-0.566,0.483-0.866,0.55-0.899c0,0.333-0.067,0.699-0.2,1.1
					l-0.15,1c-0.033,0.4,0.05,0.566,0.25,0.5l0.5-0.35c0,0.3,0.067,0.483,0.2,0.55c0.1,0.1,0.216,0.066,0.35-0.101l0.15,0.45
					c0.1,0.033,0.216,0.033,0.35,0l0.35,0.101l0.15-0.15c0.067-0.1,0.133-0.15,0.2-0.15c0,0.167,0.067,0.267,0.2,0.301l0.35,0.149
					c0-0.267,0.083-0.366,0.25-0.3l0.35,0.25l0.5,0.05c0.1-0.1,0.167-0.25,0.2-0.45l0.15-0.6l0.15,1.05
					c0.067,0.267,0.217,0.3,0.45,0.101l0.25-0.25c0.1-0.101,0.2-0.067,0.3,0.1c0-0.4,0.083-0.467,0.25-0.2
					c0.2,0.267,0.333,0.267,0.4,0l0.5,0.05c0.2-0.066,0.384-0.1,0.55-0.1l0.051-0.65c0.199-0.033,0.533,0.134,1,0.5
					c0.066-0.533,0.066-0.949,0-1.25c0.233,0.5,0.583,0.934,1.05,1.301c0.467,0.333,0.8,0.333,1,0c0.166-0.4,0.149-0.917-0.05-1.551
					c0-0.333-0.084-0.75-0.25-1.25C89.767,133.917,89.616,133.6,89.45,133.4z"/>
				<path style="fill-rule:evenodd;clip-rule:evenodd;fill:#7F6C4F;" d="M90.75,134.45H91c0.134,0,0.233,0.033,0.3,0.1
					c0.101,0.101,0.167,0.233,0.2,0.4c0.066,0.233,0.066,0.316,0,0.25l-0.2-0.2l-0.05,0.35l-0.2-0.55
					C90.951,134.569,90.852,134.453,90.75,134.45z"/>
				<path style="fill-rule:evenodd;clip-rule:evenodd;fill:#7F6C4F;" d="M92.45,133.5l0.149,0.05c-0.033-0.1-0.033-0.233,0-0.399
					h0.15c-0.033-0.101-0.033-0.2,0-0.301c0-0.066,0.05-0.083,0.15-0.05c0,0.101,0.116,0.15,0.35,0.15s0.35,0.1,0.35,0.3l-0.35-0.05
					l0.15,0.35c0.1,0.167,0.133,0.3,0.1,0.4l-0.6-0.3L93,134c0.066,0.167,0.083,0.283,0.05,0.35c-0.1,0-0.166-0.033-0.2-0.1
					l-0.1-0.35l-0.25-0.15c-0.066-0.066-0.083-0.167-0.05-0.3V133.5z"/>
				<path style="fill-rule:evenodd;clip-rule:evenodd;fill:#7F6C4F;" d="M93.6,132.55c0.267,0,0.417,0.066,0.45,0.2l0.05,0.2
					l-0.05,0.2c-0.066,0.066-0.149,0-0.25-0.2C93.667,132.816,93.6,132.684,93.6,132.55z"/>
				<path style="fill-rule:evenodd;clip-rule:evenodd;fill:#A79273;" d="M80,129.85h0.15c0,0.134-0.05,0.2-0.15,0.2
					c-0.133,0-0.183-0.033-0.15-0.1v-0.05L80,129.85z"/>
				<path style="fill-rule:evenodd;clip-rule:evenodd;fill:#A79273;" d="M80.3,130c0.133,0,0.167,0.05,0.1,0.15
					c-0.033,0.066-0.1,0.083-0.2,0.05l0.05-0.15L80.3,130z"/>
				<path style="fill-rule:evenodd;clip-rule:evenodd;fill:#A79273;" d="M82.75,129.2h-0.2l-0.2,0.149
					c-0.167,0.067-0.3,0.084-0.4,0.051l0.15-0.351h-0.3l1.1-0.25c0.1,0.101,0.1,0.217,0,0.351C82.9,129.184,82.85,129.2,82.75,129.2
					z"/>
				<path style="fill-rule:evenodd;clip-rule:evenodd;fill:#A79273;" d="M83.15,129h0.05c0.1,0,0.15,0.066,0.15,0.2
					C82.95,129.2,82.883,129.134,83.15,129z"/>
				<path style="fill-rule:evenodd;clip-rule:evenodd;fill:#A79273;" d="M84.95,128.55c0.167,0.033,0.2,0.101,0.1,0.2H84.8
					c-0.133,0.033-0.2,0.017-0.2-0.05V128.6L84.95,128.55z"/>
				<path style="fill-rule:evenodd;clip-rule:evenodd;fill:#A79273;" d="M84.65,128.85l-0.05,0.101c0.233,0,0.3,0.1,0.2,0.3
					c0,0.1-0.066,0.116-0.2,0.05l-0.2-0.1l0.1-0.2L84.65,128.85z"/>
				<path style="fill-rule:evenodd;clip-rule:evenodd;fill:#A79273;" d="M86.05,130.05c0.2,0.334,0.05,0.467-0.45,0.4l-0.35,0.05
					c-0.2,0.066-0.267-0.017-0.2-0.25c-0.133,0-0.2-0.05-0.2-0.15l0.125-0.024L84.95,130.1l0.15-0.05l-0.125,0.025
					c0.053-0.081,0.094-0.105,0.125-0.075h0.2l0.25-0.1h0.25C85.933,129.934,86.017,129.983,86.05,130.05z"/>
				<path style="fill-rule:evenodd;clip-rule:evenodd;fill:#A79273;" d="M86.3,129.75v0.05c0.367,0,0.45,0.066,0.25,0.2
					c-0.166,0.134-0.3,0.116-0.399-0.05L86.3,129.75z"/>
				<path style="fill-rule:evenodd;clip-rule:evenodd;fill:#A79273;" d="M87.7,129.25l-0.25,0.1c0,0.034,0.149,0,0.45-0.1
					c0.267-0.066,0.366,0.033,0.3,0.3c0,0.2-0.15,0.316-0.45,0.351c-0.333,0-0.45-0.101-0.35-0.301l-0.301-0.05
					c0.067-0.166,0.15-0.25,0.25-0.25L87.7,129.25z"/>
				<path style="fill-rule:evenodd;clip-rule:evenodd;fill:#A79273;" d="M86.95,130.1l-0.05-0.05l0.3,0.101
					c0.166,0.1,0.184,0.216,0.05,0.35c-0.033,0.033-0.116,0.017-0.25-0.05c-0.134,0-0.2-0.05-0.2-0.15
					C86.733,130.066,86.783,130,86.95,130.1z"/>
				<path style="fill-rule:evenodd;clip-rule:evenodd;fill:#A79273;" d="M86,131.7c-0.033,0.133-0.167,0.25-0.4,0.35l-0.85,0.3
					c-0.2,0.034-0.35,0-0.45-0.1c0-0.134,0.034-0.233,0.1-0.3l0.15-0.15H84.2c-0.067-0.3,0.05-0.483,0.35-0.55h1.05
					C85.867,131.283,86,131.434,86,131.7z"/>
				<polygon style="fill-rule:evenodd;clip-rule:evenodd;fill:#A79273;" points="83.75,132.45 83.8,132.4 83.85,132.4 84.05,132.45 
					83.95,132.65 83.75,132.65 				"/>
				<path style="fill-rule:evenodd;clip-rule:evenodd;fill:#A79273;" d="M84.45,132.75c0.033,0.033,0.167,0.017,0.4-0.05l0.4,0.05
					l-0.05,0.2l-0.1,0.1c-0.233,0.066-0.5,0.05-0.8-0.05C84.339,132.883,84.389,132.8,84.45,132.75z"/>
				<path style="fill-rule:evenodd;clip-rule:evenodd;fill:#A79273;" d="M81.35,132.3c-0.367,0.2-0.617,0.267-0.75,0.2
					c0-0.167,0.083-0.25,0.25-0.25l0.35,0.05c0.2-0.066,0.283-0.033,0.25,0.101c-0.034,0.066-0.083,0.1-0.15,0.1L81.35,132.3z"/>
				<path style="fill-rule:evenodd;clip-rule:evenodd;fill:#A79273;" d="M80.05,132.3l0.1,0.05l0.15,0.051v0.149
					c-0.033,0.066-0.1,0.101-0.2,0.101c-0.133-0.067-0.2-0.117-0.2-0.15L80.05,132.3z"/>
				<path style="fill-rule:evenodd;clip-rule:evenodd;fill:#A79273;" d="M83.3,133.35l-0.2-0.1c0.233,0,0.383,0.033,0.45,0.1
					c0,0.2-0.066,0.317-0.2,0.351l-0.3-0.05c-0.066-0.134-0.066-0.217,0-0.25L83.3,133.35z"/>
				<path style="fill-rule:evenodd;clip-rule:evenodd;fill:#A79273;" d="M89.3,129.95L89.1,130c0.134,0,0.167,0.05,0.101,0.15
					l-0.05,0.3c-0.067,0.166-0.2,0.217-0.4,0.149c-0.2,0-0.25-0.116-0.15-0.35l-0.149,0.05l-0.101-0.2
					c0.134-0.133,0.284-0.183,0.45-0.149H89.3z"/>
				<path style="fill-rule:evenodd;clip-rule:evenodd;fill:#A79273;" d="M89.9,130.6l0.05,0.15c0.1-0.033,0.149,0.05,0.149,0.25
					c0,0.167-0.066,0.283-0.199,0.35L89.6,131.5c-0.233,0.233-0.383,0.3-0.449,0.2c-0.067-0.101-0.051-0.2,0.05-0.3l0.25-0.301
					c-0.033-0.133,0.017-0.25,0.149-0.35L89.9,130.6z"/>
				<path style="fill-rule:evenodd;clip-rule:evenodd;fill:#A79273;" d="M89.8,131.65l-0.149,0.1c0.066,0,0.066,0.083,0,0.25
					c-0.034,0.167-0.134,0.217-0.301,0.15c-0.1-0.101-0.066-0.2,0.101-0.301L89.8,131.65z"/>
				<path style="fill-rule:evenodd;clip-rule:evenodd;fill:#A79273;" d="M88.95,132.3l0.05,0.05c0.1,0,0.15,0.034,0.15,0.101
					c0,0.1-0.051,0.149-0.15,0.149c-0.1-0.033-0.15-0.1-0.15-0.199L88.95,132.3z"/>
				<path style="fill-rule:evenodd;clip-rule:evenodd;fill:#A79273;" d="M89.6,132.5l-0.1-0.1c0.2-0.067,0.25,0.017,0.15,0.25
					c-0.101,0.233-0.184,0.233-0.25,0C89.434,132.517,89.5,132.467,89.6,132.5z"/>
				<path style="fill-rule:evenodd;clip-rule:evenodd;fill:#A79273;" d="M90.3,132.05l0.25,0.05c0,0.233-0.133,0.434-0.399,0.601
					c-0.301,0.1-0.467,0.066-0.5-0.101l0.199-0.3v-0.149C89.917,132.083,90.066,132.05,90.3,132.05z"/>
				<path style="fill-rule:evenodd;clip-rule:evenodd;fill:#A79273;" d="M89.35,132.8l0.051,0.15c0,0.133-0.067,0.184-0.2,0.149
					C89.1,133,89.15,132.9,89.35,132.8z"/>
				<path style="fill-rule:evenodd;clip-rule:evenodd;fill:#7F6C4F;" d="M78.3,132.6l0.25-0.399c0.067-0.066,0.167-0.101,0.3-0.101
					c0.133,0.034,0.2,0.134,0.2,0.301c0,0.199-0.033,0.333-0.1,0.399c-0.067,0.101-0.184,0.117-0.35,0.05l-0.35-0.149L78.3,132.6z"
					/>
				<path style="fill-rule:evenodd;clip-rule:evenodd;fill:#7F6C4F;" d="M80.55,131.4l-0.1,0.149l0.05,0.25l-0.05,0.2l-0.1,0.05
					h-0.3L79.8,131.9l-0.05-0.101v-0.149c-0.033-0.467,0.033-0.733,0.2-0.801l-0.1,0.351c0.1-0.167,0.25-0.25,0.45-0.25
					C80.533,130.884,80.617,131.033,80.55,131.4z"/>
				<path style="fill-rule:evenodd;clip-rule:evenodd;fill:#7F6C4F;" d="M82.85,130.55c-0.233,0.2-0.35,0.334-0.35,0.4v0.25
					l-0.05,0.3l-0.3,0.3c-0.233,0.2-0.5,0.167-0.8-0.1c-0.2-0.134-0.3-0.316-0.3-0.55l0.65-0.45l0.1-0.2l0.15-0.1l0.45-0.45
					c0.3-0.2,0.483-0.2,0.55,0C83.05,130.184,83.017,130.384,82.85,130.55z"/>
				<path style="fill-rule:evenodd;clip-rule:evenodd;fill:#7F6C4F;" d="M80.65,129.85l0.4-0.1c0.467,0,0.65,0.167,0.55,0.5
					c-0.033,0.167-0.2,0.184-0.5,0.05C80.767,130.167,80.617,130.017,80.65,129.85z"/>
				<path style="fill-rule:evenodd;clip-rule:evenodd;fill:#7F6C4F;" d="M84.4,128.6v0.051c0,0.166-0.05,0.267-0.15,0.3l-0.2-0.05
					c-0.466,0-0.767-0.034-0.9-0.101L84.4,128.6z"/>
				<path style="fill-rule:evenodd;clip-rule:evenodd;fill:#7F6C4F;" d="M85.65,129.25l0.1-0.05l0.05-0.15l0.351-0.25l1.3,0.05
					c0.434,0.034,0.583,0.117,0.45,0.25h-0.2l-1,0.2c-0.2,0-0.351,0.05-0.45,0.15l-0.55,0.3l-0.25,0.05
					c-0.2,0.033-0.534,0.283-1,0.75l0.5-0.7c0.1-0.033,0.183-0.116,0.25-0.25v-0.149l0.25-0.4L85.65,129.25z"/>
				<path style="fill-rule:evenodd;clip-rule:evenodd;fill:#7F6C4F;" d="M84.85,130.75c-0.067,0.134-0.184,0.217-0.35,0.25
					c-0.2,0-0.333,0.05-0.4,0.15c0.066,0.133,0.066,0.383,0,0.75c-0.1,0.267-0.217,0.416-0.35,0.449c-0.133,0.034-0.333,0-0.6-0.1
					c-0.267-0.134-0.4-0.333-0.4-0.6l0.55-0.851c0-0.399,0.184-0.6,0.55-0.6c0.333-0.066,0.583-0.05,0.75,0.05l0.2,0.15
					C84.9,130.5,84.917,130.616,84.85,130.75z"/>
				<path style="fill-rule:evenodd;clip-rule:evenodd;fill:#7F6C4F;" d="M88.35,132.35c0.2,0.467,0.301,0.733,0.301,0.801
					c0.066,0.166,0.133,0.25,0.199,0.25l0.2,0.149c0.101,0.2,0.084,0.4-0.05,0.601l-0.15,0.199H88.65l-0.101,0.101l-0.1,0.05
					l-0.15-0.05L88.15,134.6l0.1,0.351L88.2,135.1l0.05,0.5c0.066,0.2,0.066,0.351,0,0.45l-0.1-0.2l-0.15-0.1v0.3l-0.3-0.149
					l-0.4-0.051l-0.25-0.25l-0.45-0.3c-0.233,0.066-0.399,0.084-0.5,0.05l-0.3-0.199c-0.2-0.101-0.3-0.184-0.3-0.25l-0.05-0.351
					l0.05-0.35l0.65-0.45l0.25-0.35c0.1-0.167,0.199-0.284,0.3-0.351c0.133-0.1,0.366-0.116,0.7-0.05l0.1-0.05l-0.2-0.15
					c-0.1-0.066-0.149-0.184-0.149-0.35c0-0.101,0.1-0.217,0.3-0.351c0.166-0.1,0.3-0.149,0.399-0.149
					C87.983,131.95,88.15,132.083,88.35,132.35z"/>
				<path style="fill-rule:evenodd;clip-rule:evenodd;fill:#7F6C4F;" d="M90.7,132.85c0.1-0.166,0.383-0.233,0.85-0.199l0.3,0.149
					v0.2l0.2,0.45c0.033,0.133,0.033,0.3,0,0.5c-0.033-0.233-0.116-0.351-0.25-0.351l0.05,0.15l-0.35-0.3L91,133.4
					c-0.2-0.067-0.333-0.2-0.4-0.4L90.7,132.85z"/>
				<path style="fill-rule:evenodd;clip-rule:evenodd;fill:#7F6C4F;" d="M90.4,131.3l0.3-0.1l0.25-0.05h0.25
					c0.166,0.166,0.283,0.366,0.35,0.6c-0.2-0.167-0.383-0.25-0.55-0.25h-0.35C90.483,131.5,90.4,131.434,90.4,131.3z"/>
				<path style="fill-rule:evenodd;clip-rule:evenodd;fill:#7F6C4F;" d="M91.4,130.9c0.366,0.066,0.517,0.216,0.449,0.449l-0.25-0.1
					l-0.149-0.1L91.4,130.9z"/>
				<path style="fill-rule:evenodd;clip-rule:evenodd;fill:#7F6C4F;" d="M92.7,132.05L92.6,132.4l0.051,0.25l-0.2,0.05
					c0.066,0.267,0.066,0.517,0,0.75v0.35l-0.15,0.351c-0.066,0.066-0.149,0.066-0.25,0L91.8,134.1c-0.1,0-0.149,0.051-0.149,0.15
					l-0.101,0.4L91.4,134.4c-0.101-0.034-0.167,0.017-0.2,0.149l0.1-0.5v0.05c0.2-0.267,0.434-0.416,0.7-0.449
					c0.134,0,0.217-0.117,0.25-0.351l0.15-1.3c0.1-0.267,0.183-0.4,0.25-0.4C92.717,131.667,92.733,131.816,92.7,132.05z"/>
				<path style="fill-rule:evenodd;clip-rule:evenodd;fill:#7F6C4F;" d="M81.4,133.5l0.25,0.05c0.067,0.367,0,0.483-0.2,0.351
					C81.25,133.767,81.233,133.634,81.4,133.5z"/>
				<path style="fill-rule:evenodd;clip-rule:evenodd;fill:#7F6C4F;" d="M86.65,131.3c0.399,0,0.566,0.184,0.5,0.55
					c0,0.167-0.051,0.25-0.15,0.25h-0.3c-0.267,0-0.434-0.066-0.5-0.199l0.1-0.25L86.65,131.3z"/>
				<path style="fill-rule:evenodd;clip-rule:evenodd;fill:#9E968D;" d="M80.25,131.6c-0.133,0.2-0.267,0.301-0.4,0.301
					c-0.167,0-0.25-0.134-0.25-0.4v-0.05c0-0.134,0.05-0.25,0.15-0.351c0.067-0.1,0.167-0.183,0.3-0.25
					c0.133-0.066,0.217-0.05,0.25,0.051l0.15,0.149v0.15L80.25,131.6z"/>
				<path style="fill-rule:evenodd;clip-rule:evenodd;fill:#9E968D;" d="M87.7,131.35l0.149,0.051l0.051,0.05l0.1,0.2l-0.2-0.2
					l-0.1-0.05l-0.15,0.05l-0.1,0.3l-0.101,0.55v0.25l0.051,0.101c-0.134,0-0.233-0.117-0.301-0.351l-0.05-0.2v-0.149
					c0-0.101,0.05-0.233,0.15-0.4l0.399-0.2H87.7z"/>
				<path style="fill-rule:evenodd;clip-rule:evenodd;fill:#BBB4A8;" d="M83.45,130.65c-0.1,0-0.217,0.066-0.35,0.199
					c-0.133,0.134-0.2,0.301-0.2,0.5c-0.033,0.067-0.017,0.167,0.05,0.301L83,131.8l-0.05-0.05c-0.133-0.066-0.2-0.15-0.2-0.25
					l-0.05-0.25v-0.1l0.2-0.551l0.4-0.149l0.2,0.05l0.15,0.15H83.45z M86.2,133.05l-0.101,0.2l-0.1,0.1
					c-0.1,0.101-0.183,0.15-0.25,0.15c-0.133,0-0.217-0.066-0.25-0.2v-0.2l0.05-0.199l0.05-0.101l0.25-0.149l0.2,0.05
					C86.15,132.8,86.2,132.917,86.2,133.05z"/>
				<path style="fill-rule:evenodd;clip-rule:evenodd;fill:#7D7970;" d="M83.65,131h0.05l0.15-0.1c0.1,0,0.15,0.083,0.15,0.25
					c0,0.166-0.033,0.3-0.1,0.399l-0.15,0.3c-0.1,0.101-0.267,0.15-0.5,0.15c-0.233-0.033-0.333-0.15-0.3-0.35
					c0.167,0,0.283-0.084,0.35-0.25l0.15-0.25C83.483,131.116,83.55,131.066,83.65,131z"/>
				<path style="fill-rule:evenodd;clip-rule:evenodd;fill:#7D7970;" d="M81.85,131.65c-0.133,0.066-0.267,0.083-0.4,0.05
					c-0.167-0.033-0.233-0.184-0.2-0.45l0.5-0.05c0.167-0.066,0.317-0.184,0.45-0.351h0.1l-0.2,0.551L81.85,131.65z"/>
				<path style="fill-rule:evenodd;clip-rule:evenodd;fill:#7D7970;" d="M80.15,131.25L80,131.2c0.1-0.101,0.217-0.117,0.35-0.05
					c-0.1,0.399-0.267,0.583-0.5,0.55C79.85,131.5,79.95,131.35,80.15,131.25z"/>
				<path style="fill-rule:evenodd;clip-rule:evenodd;fill:#BCA591;" d="M83.8,133.45c-0.133,0.1-0.216,0.083-0.25-0.05
					c-0.033-0.101-0.017-0.184,0.05-0.25c0.1-0.101,0.167-0.134,0.2-0.101c0.067,0.033,0.1,0.15,0.1,0.351
					c0,0.199-0.033,0.267-0.1,0.199V133.45z"/>
				<path style="fill-rule:evenodd;clip-rule:evenodd;fill:#BCA591;" d="M81.4,133.4c0.067-0.067,0.117-0.051,0.15,0.05
					c0.067,0.066,0.05,0.133-0.05,0.2h-0.25C81.317,133.483,81.367,133.4,81.4,133.4z"/>
				<path style="fill-rule:evenodd;clip-rule:evenodd;fill:#7A674C;" d="M82.35,128.95l0.2-0.05l0.2,1.05
					c0.033,0.333,0.117,0.483,0.25,0.45c0.2-0.067,0.45-0.184,0.75-0.351c0.2-0.033,0.5-0.05,0.9-0.05l1.5-0.15
					c0.399,0,0.699-0.05,0.899-0.149c0.134-0.101,0.25-0.25,0.351-0.45c0.166-0.233,0.267-0.384,0.3-0.45
					c0.133,0.101,0.333,0.184,0.6,0.25c0.134,0.033,0.334,0.066,0.601,0.101l2.05,0.649c0.233,0,0.467-0.1,0.7-0.3
					c0.433-0.033,1.017,0.217,1.75,0.75c0.3,0.2,0.466,0.417,0.5,0.65c0.066,0.199-0.017,0.533-0.25,1
					c-0.067,0.1-0.217,0.216-0.45,0.35c-0.101,0.134-0.217,0.233-0.351,0.3c-0.133,0.033-0.216,0.05-0.25,0.05
					c-0.066,0-0.133,0.067-0.199,0.2c-0.034,0.066-0.051,0.25-0.051,0.55c-0.066,0.467-0.35,0.684-0.85,0.65
					c-0.4-0.3-0.7-0.434-0.9-0.4v0.15c-0.1,0.033-0.216-0.017-0.35-0.15c-0.167-0.133-0.283-0.199-0.35-0.199
					c-0.167-0.034-0.4,0.066-0.7,0.3c-0.101,0.066-0.384,0.133-0.851,0.2c-0.1,0.033-0.283,0.066-0.55,0.1l-0.1,0.25l-0.3,0.2
					c-0.101,0.133-0.2,0.217-0.301,0.25l-0.6,0.35c-0.1,0.033-0.233,0.05-0.4,0.05c-0.2,0-0.35,0.034-0.45,0.101l-2.15,1.25
					c-0.467,0.333-0.817,0.416-1.05,0.25c-0.133-0.066-0.2-0.25-0.2-0.55c0.133-0.2,0.183-0.417,0.15-0.65
					c0-0.134-0.083-0.333-0.25-0.6c-0.2-0.233-0.483-0.351-0.85-0.351c-0.3,0-0.45-0.149-0.45-0.45c0-0.166,0.05-0.333,0.15-0.5
					c0.133-0.166,0.2-0.283,0.2-0.35c0.133-0.4,0.05-0.6-0.25-0.6c-0.034,0-0.2,0.1-0.5,0.3l-0.4,0.149
					c-0.1,0.034-0.283,0.25-0.55,0.65c-0.1,0.134-0.2,0.2-0.3,0.2c-0.167-0.033-0.284-0.033-0.35,0
					c-0.434,0.166-0.667,0.25-0.7,0.25c-0.367,0-0.55-0.2-0.55-0.601c0.033-0.166,0.117-0.366,0.25-0.6
					c0.167-0.233,0.267-0.4,0.3-0.5l0.2-0.75c0.167-0.2,0.283-0.35,0.35-0.45l0.4-0.85C79.967,129.75,81.05,129.25,82.35,128.95z"/>
				<path style="fill-rule:evenodd;clip-rule:evenodd;fill:#7F6C4F;" d="M84.85,136.65c0.066,0.399-0.033,0.6-0.3,0.6v0.25
					l-0.35-0.35c-0.133-0.2-0.25-0.301-0.35-0.301c-0.033-0.066-0.133-0.1-0.3-0.1c-0.133,0.033-0.25,0.033-0.35,0
					c-0.4-0.134-0.567-0.45-0.5-0.95c-0.267,0.033-0.45,0-0.55-0.1c-0.033-0.101-0.017-0.283,0.05-0.55
					c0.066-0.233,0.133-0.367,0.2-0.4L82.35,135l0.55,0.05c0.2,0,0.35,0.101,0.45,0.3l0.05,0.301l0.15,0.149l1,0.101
					C84.75,135.967,84.85,136.217,84.85,136.65z"/>
				<path style="fill-rule:evenodd;clip-rule:evenodd;fill:#78654B;" d="M76.9,133c0.133-0.066,0.2-0.083,0.2-0.05
					c0.033,0.033,0.033,0.184,0,0.45c0.033,0,0.117-0.117,0.25-0.351c-0.267,1.2-0.25,2.05,0.05,2.55l0.15,0.2l0.05,0.25
					c-0.233-0.166-0.5-0.45-0.8-0.85c-0.233-0.367-0.417-0.717-0.55-1.05L76.9,133z"/>
			</g>
			<g>
				<g>
					
						<linearGradient id="SVGID_12_" gradientUnits="userSpaceOnUse" x1="-89.4751" y1="-97.5752" x2="-82.8252" y2="-97.5752" gradientTransform="matrix(-1 0 0 -1 0 0)">
						<stop  offset="0.0039" style="stop-color:#ACAEB0"/>
						<stop  offset="0.2157" style="stop-color:#858689"/>
						<stop  offset="0.251" style="stop-color:#939597"/>
						<stop  offset="0.2588" style="stop-color:#96989A"/>
						<stop  offset="0.3137" style="stop-color:#B6B8B9"/>
						<stop  offset="0.3765" style="stop-color:#D1D2D2"/>
						<stop  offset="0.4431" style="stop-color:#E5E6E6"/>
						<stop  offset="0.5216" style="stop-color:#F4F4F4"/>
						<stop  offset="0.6118" style="stop-color:#FCFCFD"/>
						<stop  offset="0.7569" style="stop-color:#FFFFFF"/>
						<stop  offset="0.7843" style="stop-color:#CACACA"/>
						<stop  offset="1" style="stop-color:#BCBDBD"/>
					</linearGradient>
					<path style="fill-rule:evenodd;clip-rule:evenodd;fill:url(#SVGID_12_);" d="M89.5,66.45v62.25c0,0.2-0.066,0.383-0.2,0.55
						c-0.166,0.134-0.35,0.2-0.55,0.2h-5.2c-0.466,0-0.7-0.25-0.7-0.75V66.45c0-0.5,0.233-0.75,0.7-0.75h5.2
						c0.2,0,0.384,0.083,0.55,0.25C89.434,66.083,89.5,66.25,89.5,66.45z"/>
				</g>
				<g>
					<g>
						<g>
							<linearGradient id="SVGID_13_" gradientUnits="userSpaceOnUse" x1="81.4624" y1="81.8999" x2="89.9374" y2="81.8999">
								<stop  offset="0" style="stop-color:#87898B"/>
								<stop  offset="0.6549" style="stop-color:#757679"/>
								<stop  offset="1" style="stop-color:#B8BABD"/>
							</linearGradient>
							<rect x="81.45" y="81" style="fill-rule:evenodd;clip-rule:evenodd;fill:url(#SVGID_13_);" width="8.5" height="1.8"/>
							
								<linearGradient id="SVGID_14_" gradientUnits="userSpaceOnUse" x1="-89.9375" y1="-81.5752" x2="-81.4625" y2="-81.5752" gradientTransform="matrix(-1 0 0 -1 0 0)">
								<stop  offset="0" style="stop-color:#E2E3E3"/>
								<stop  offset="0.1922" style="stop-color:#979797"/>
								<stop  offset="0.2078" style="stop-color:#8B8B8C"/>
								<stop  offset="0.2588" style="stop-color:#A9A9AA"/>
								<stop  offset="0.3137" style="stop-color:#C4C4C4"/>
								<stop  offset="0.3765" style="stop-color:#D8D8D9"/>
								<stop  offset="0.4431" style="stop-color:#E7E7E7"/>
								<stop  offset="0.5255" style="stop-color:#EFEFEF"/>
								<stop  offset="0.6588" style="stop-color:#F2F2F2"/>
								<stop  offset="0.6824" style="stop-color:#C2C2C2"/>
								<stop  offset="0.8118" style="stop-color:#949494"/>
								<stop  offset="0.8392" style="stop-color:#868686"/>
								<stop  offset="0.9059" style="stop-color:#676767"/>
								<stop  offset="0.9451" style="stop-color:#5C5C5C"/>
							</linearGradient>
							<rect x="81.45" y="80.7" style="fill-rule:evenodd;clip-rule:evenodd;fill:url(#SVGID_14_);" width="8.5" height="1.75"/>
						</g>
						<g>
							<linearGradient id="SVGID_15_" gradientUnits="userSpaceOnUse" x1="81.4624" y1="87.25" x2="89.9374" y2="87.25">
								<stop  offset="0" style="stop-color:#87898B"/>
								<stop  offset="0.6549" style="stop-color:#757679"/>
								<stop  offset="1" style="stop-color:#B8BABD"/>
							</linearGradient>
							<rect x="81.45" y="86.35" style="fill-rule:evenodd;clip-rule:evenodd;fill:url(#SVGID_15_);" width="8.5" height="1.8"/>
							
								<linearGradient id="SVGID_16_" gradientUnits="userSpaceOnUse" x1="-89.9375" y1="-86.9248" x2="-81.4625" y2="-86.9248" gradientTransform="matrix(-1 0 0 -1 0 0)">
								<stop  offset="0" style="stop-color:#E2E3E3"/>
								<stop  offset="0.1922" style="stop-color:#979797"/>
								<stop  offset="0.2078" style="stop-color:#8B8B8C"/>
								<stop  offset="0.2588" style="stop-color:#A9A9AA"/>
								<stop  offset="0.3137" style="stop-color:#C4C4C4"/>
								<stop  offset="0.3765" style="stop-color:#D8D8D9"/>
								<stop  offset="0.4431" style="stop-color:#E7E7E7"/>
								<stop  offset="0.5255" style="stop-color:#EFEFEF"/>
								<stop  offset="0.6588" style="stop-color:#F2F2F2"/>
								<stop  offset="0.6824" style="stop-color:#C2C2C2"/>
								<stop  offset="0.8118" style="stop-color:#949494"/>
								<stop  offset="0.8392" style="stop-color:#868686"/>
								<stop  offset="0.9059" style="stop-color:#676767"/>
								<stop  offset="0.9451" style="stop-color:#5C5C5C"/>
							</linearGradient>
							<rect x="81.45" y="86.05" style="fill-rule:evenodd;clip-rule:evenodd;fill:url(#SVGID_16_);" width="8.5" height="1.75"/>
						</g>
					</g>
					<g>
						<g>
							<linearGradient id="SVGID_17_" gradientUnits="userSpaceOnUse" x1="90.8252" y1="70.8003" x2="82.5752" y2="70.8003">
								<stop  offset="0" style="stop-color:#87898B"/>
								<stop  offset="0.6549" style="stop-color:#757679"/>
								<stop  offset="1" style="stop-color:#B8BABD"/>
							</linearGradient>
							<rect x="82.6" y="69.9" style="fill-rule:evenodd;clip-rule:evenodd;fill:url(#SVGID_17_);" width="8.25" height="1.8"/>
							<linearGradient id="SVGID_18_" gradientUnits="userSpaceOnUse" x1="90.8252" y1="70.4751" x2="82.5752" y2="70.4751">
								<stop  offset="0" style="stop-color:#333333"/>
								<stop  offset="0.1647" style="stop-color:#9FA1A2"/>
								<stop  offset="0.302" style="stop-color:#858689"/>
								<stop  offset="0.3451" style="stop-color:#9E9E9E"/>
								<stop  offset="0.7765" style="stop-color:#F2F2F2"/>
								<stop  offset="0.7961" style="stop-color:#B8BABD"/>
								<stop  offset="0.8784" style="stop-color:#C2C3C6"/>
								<stop  offset="1" style="stop-color:#D9DBDC"/>
							</linearGradient>
							<rect x="82.6" y="69.6" style="fill-rule:evenodd;clip-rule:evenodd;fill:url(#SVGID_18_);" width="8.25" height="1.75"/>
						</g>
						<g>
							<linearGradient id="SVGID_19_" gradientUnits="userSpaceOnUse" x1="90.8252" y1="76.1499" x2="82.5752" y2="76.1499">
								<stop  offset="0" style="stop-color:#87898B"/>
								<stop  offset="0.6549" style="stop-color:#757679"/>
								<stop  offset="1" style="stop-color:#B8BABD"/>
							</linearGradient>
							<rect x="82.6" y="75.25" style="fill-rule:evenodd;clip-rule:evenodd;fill:url(#SVGID_19_);" width="8.25" height="1.8"/>
							<linearGradient id="SVGID_20_" gradientUnits="userSpaceOnUse" x1="90.8252" y1="75.8252" x2="82.5752" y2="75.8252">
								<stop  offset="0" style="stop-color:#333333"/>
								<stop  offset="0.1647" style="stop-color:#9FA1A2"/>
								<stop  offset="0.302" style="stop-color:#858689"/>
								<stop  offset="0.3451" style="stop-color:#9E9E9E"/>
								<stop  offset="0.7765" style="stop-color:#F2F2F2"/>
								<stop  offset="0.7961" style="stop-color:#B8BABD"/>
								<stop  offset="0.8784" style="stop-color:#C2C3C6"/>
								<stop  offset="1" style="stop-color:#D9DBDC"/>
							</linearGradient>
							<rect x="82.6" y="74.95" style="fill-rule:evenodd;clip-rule:evenodd;fill:url(#SVGID_20_);" width="8.25" height="1.75"/>
						</g>
					</g>
					<g>
						<g>
							<linearGradient id="SVGID_21_" gradientUnits="userSpaceOnUse" x1="90.8252" y1="92.3994" x2="82.5752" y2="92.3994">
								<stop  offset="0" style="stop-color:#87898B"/>
								<stop  offset="0.6549" style="stop-color:#757679"/>
								<stop  offset="1" style="stop-color:#B8BABD"/>
							</linearGradient>
							<rect x="82.6" y="91.5" style="fill-rule:evenodd;clip-rule:evenodd;fill:url(#SVGID_21_);" width="8.25" height="1.8"/>
							<linearGradient id="SVGID_22_" gradientUnits="userSpaceOnUse" x1="90.8252" y1="92.0498" x2="82.5752" y2="92.0498">
								<stop  offset="0" style="stop-color:#333333"/>
								<stop  offset="0.1647" style="stop-color:#9FA1A2"/>
								<stop  offset="0.302" style="stop-color:#858689"/>
								<stop  offset="0.3451" style="stop-color:#9E9E9E"/>
								<stop  offset="0.7765" style="stop-color:#F2F2F2"/>
								<stop  offset="0.7961" style="stop-color:#B8BABD"/>
								<stop  offset="0.8784" style="stop-color:#C2C3C6"/>
								<stop  offset="1" style="stop-color:#D9DBDC"/>
							</linearGradient>
							<rect x="82.6" y="91.15" style="fill-rule:evenodd;clip-rule:evenodd;fill:url(#SVGID_22_);" width="8.25" height="1.8"/>
						</g>
						<g>
							<linearGradient id="SVGID_23_" gradientUnits="userSpaceOnUse" x1="90.8252" y1="97.7246" x2="82.5752" y2="97.7246">
								<stop  offset="0" style="stop-color:#87898B"/>
								<stop  offset="0.6549" style="stop-color:#757679"/>
								<stop  offset="1" style="stop-color:#B8BABD"/>
							</linearGradient>
							<rect x="82.6" y="96.85" style="fill-rule:evenodd;clip-rule:evenodd;fill:url(#SVGID_23_);" width="8.25" height="1.75"/>
							<linearGradient id="SVGID_24_" gradientUnits="userSpaceOnUse" x1="90.8252" y1="97.3994" x2="82.5752" y2="97.3994">
								<stop  offset="0" style="stop-color:#333333"/>
								<stop  offset="0.1647" style="stop-color:#9FA1A2"/>
								<stop  offset="0.302" style="stop-color:#858689"/>
								<stop  offset="0.3451" style="stop-color:#9E9E9E"/>
								<stop  offset="0.7765" style="stop-color:#F2F2F2"/>
								<stop  offset="0.7961" style="stop-color:#B8BABD"/>
								<stop  offset="0.8784" style="stop-color:#C2C3C6"/>
								<stop  offset="1" style="stop-color:#D9DBDC"/>
							</linearGradient>
							<rect x="82.6" y="96.5" style="fill-rule:evenodd;clip-rule:evenodd;fill:url(#SVGID_24_);" width="8.25" height="1.8"/>
						</g>
					</g>
				</g>
				<g>
					<g>
						<g>
							
								<linearGradient id="SVGID_25_" gradientUnits="userSpaceOnUse" x1="77.7197" y1="-67.5947" x2="90.9447" y2="-67.5947" gradientTransform="matrix(7.561436e-005 1 -1 -0.001 -3.408475e-004 -2.085976e-005)">
								<stop  offset="0.3373" style="stop-color:#DEDFE0"/>
								<stop  offset="1" style="stop-color:#ADAFB1"/>
							</linearGradient>
							<path style="fill-rule:evenodd;clip-rule:evenodd;fill:url(#SVGID_25_);" d="M60.9,91.05c-0.933,0-1.733-0.333-2.4-1l-5-4.65
								c-0.267-0.267-0.4-0.583-0.4-0.95c0-0.4,0.133-0.733,0.4-1l5-4.7c0.7-0.633,1.5-0.95,2.4-0.95h19.75
								c0.4,0,0.75,0.134,1.05,0.4c0.267,0.3,0.4,0.633,0.4,1V89.6c0,0.4-0.133,0.75-0.4,1.051c-0.3,0.267-0.65,0.399-1.05,0.399
								H60.9z"/>
							
								<linearGradient id="SVGID_26_" gradientUnits="userSpaceOnUse" x1="-81.1499" y1="-84.4248" x2="-54.0498" y2="-84.4248" gradientTransform="matrix(-1 0 0 -1 0 0)">
								<stop  offset="0.9647" style="stop-color:#DEDFE0"/>
								<stop  offset="1" style="stop-color:#ADAFB1"/>
							</linearGradient>
							<path style="fill-rule:evenodd;clip-rule:evenodd;fill:url(#SVGID_26_);" d="M60.9,78.75h19.75c0.333,0,0.5,0.15,0.5,0.45
								V89.6c0,0.334-0.167,0.5-0.5,0.5H60.9c-0.267,0-0.583-0.066-0.95-0.199c-0.367-0.167-0.633-0.334-0.8-0.5l-5-4.7
								c-0.066-0.067-0.1-0.167-0.1-0.3c0-0.1,0.034-0.183,0.1-0.25l5-4.7C59.617,78.983,60.2,78.75,60.9,78.75z"/>
						</g>
						
							<linearGradient id="SVGID_27_" gradientUnits="userSpaceOnUse" x1="78.6689" y1="-67.5864" x2="84.8955" y2="-67.5864" gradientTransform="matrix(1.606426e-004 1 -1 -0.001 4.317967e-004 -2.180331e-005)">
							<stop  offset="0" style="stop-color:#F4F4F4"/>
							<stop  offset="1" style="stop-color:#ECECEC"/>
						</linearGradient>
						<path style="fill-rule:evenodd;clip-rule:evenodd;fill:url(#SVGID_27_);" d="M60.9,79.85c-0.7,0-1.283,0.233-1.75,0.7
							l-4.7,4.4l-0.3-0.25c-0.066-0.067-0.1-0.167-0.1-0.3c0-0.1,0.034-0.183,0.1-0.25l5-4.7c0.467-0.467,1.05-0.7,1.75-0.7h19.75
							c0.333,0,0.5,0.15,0.5,0.45v1.075c-0.005-0.283-0.172-0.425-0.5-0.425H60.9z"/>
					</g>
					<g>
						<linearGradient id="SVGID_28_" gradientUnits="userSpaceOnUse" x1="104.7246" y1="79.9126" x2="104.7246" y2="66.6876">
							<stop  offset="0.3373" style="stop-color:#DEDFE0"/>
							<stop  offset="1" style="stop-color:#ADAFB1"/>
						</linearGradient>
						<path style="fill-rule:evenodd;clip-rule:evenodd;fill:url(#SVGID_28_);" d="M113.85,78.95c-0.733,0.667-1.55,1-2.449,1H91.65
							c-0.4,0-0.733-0.133-1-0.4c-0.267-0.3-0.4-0.633-0.4-1V68.1c0-0.367,0.134-0.7,0.4-1c0.267-0.267,0.6-0.4,1-0.4h19.75
							c0.866,0,1.683,0.316,2.449,0.95l4.95,4.7c0.267,0.267,0.4,0.6,0.4,1c0,0.367-0.134,0.683-0.4,0.95L113.85,78.95z"/>
						<linearGradient id="SVGID_29_" gradientUnits="userSpaceOnUse" x1="91.1504" y1="73.3252" x2="118.25" y2="73.3252">
							<stop  offset="0.9647" style="stop-color:#DEDFE0"/>
							<stop  offset="1" style="stop-color:#ADAFB1"/>
						</linearGradient>
						<path style="fill-rule:evenodd;clip-rule:evenodd;fill:url(#SVGID_29_);" d="M113.2,68.35l4.95,4.7
							c0.066,0.067,0.1,0.15,0.1,0.25c0,0.134-0.033,0.233-0.1,0.3l-4.95,4.7c-0.533,0.467-1.134,0.7-1.8,0.7H91.65
							c-0.334,0-0.5-0.167-0.5-0.5V68.1c0-0.3,0.166-0.45,0.5-0.45h19.75C112.066,67.65,112.667,67.883,113.2,68.35z"/>
						
							<linearGradient id="SVGID_30_" gradientUnits="userSpaceOnUse" x1="67.5381" y1="-104.6885" x2="73.7631" y2="-104.6885" gradientTransform="matrix(1.606426e-004 1 -1 -0.001 4.317967e-004 -2.180331e-005)">
							<stop  offset="0" style="stop-color:#F4F4F4"/>
							<stop  offset="1" style="stop-color:#ECECEC"/>
						</linearGradient>
						<path style="fill-rule:evenodd;clip-rule:evenodd;fill:url(#SVGID_30_);" d="M113.2,68.35l4.95,4.7
							c0.066,0.067,0.1,0.15,0.1,0.25c0,0.134-0.033,0.233-0.1,0.3l-0.301,0.25l-4.649-4.4c-0.533-0.467-1.134-0.7-1.8-0.7H91.65
							c-0.323,0-0.49,0.158-0.5,0.475V68.1c0-0.3,0.166-0.45,0.5-0.45h19.75C112.066,67.65,112.667,67.883,113.2,68.35z"/>
					</g>
					<g>
						<linearGradient id="SVGID_31_" gradientUnits="userSpaceOnUse" x1="104.7246" y1="101.5" x2="104.7246" y2="88.275">
							<stop  offset="0.3373" style="stop-color:#DEDFE0"/>
							<stop  offset="1" style="stop-color:#ADAFB1"/>
						</linearGradient>
						<path style="fill-rule:evenodd;clip-rule:evenodd;fill:url(#SVGID_31_);" d="M118.8,95.85l-4.95,4.7
							c-0.767,0.634-1.583,0.95-2.449,0.95H91.65c-0.4,0-0.733-0.134-1-0.4s-0.4-0.6-0.4-1V89.7c0-0.4,0.134-0.733,0.4-1
							s0.6-0.4,1-0.4h19.75c0.933,0,1.75,0.316,2.449,0.95l4.95,4.65c0.267,0.267,0.4,0.6,0.4,1
							C119.2,95.3,119.066,95.616,118.8,95.85z"/>
						<linearGradient id="SVGID_32_" gradientUnits="userSpaceOnUse" x1="91.1504" y1="94.875" x2="118.25" y2="94.875">
							<stop  offset="0.9647" style="stop-color:#DEDFE0"/>
							<stop  offset="1" style="stop-color:#ADAFB1"/>
						</linearGradient>
						<path style="fill-rule:evenodd;clip-rule:evenodd;fill:url(#SVGID_32_);" d="M113.2,89.95l4.95,4.649
							c0.066,0.067,0.1,0.167,0.1,0.301c0,0.1-0.033,0.183-0.1,0.25l-4.95,4.699c-0.533,0.467-1.134,0.7-1.8,0.7H91.65
							c-0.334,0-0.5-0.149-0.5-0.45V89.7c0-0.334,0.166-0.5,0.5-0.5h19.75C112.1,89.2,112.7,89.45,113.2,89.95z"/>
						
							<linearGradient id="SVGID_33_" gradientUnits="userSpaceOnUse" x1="89.1328" y1="-104.6851" x2="95.3578" y2="-104.6851" gradientTransform="matrix(1.606426e-004 1 -1 -0.001 4.317967e-004 -2.180331e-005)">
							<stop  offset="0" style="stop-color:#F4F4F4"/>
							<stop  offset="1" style="stop-color:#ECECEC"/>
						</linearGradient>
						<path style="fill-rule:evenodd;clip-rule:evenodd;fill:url(#SVGID_33_);" d="M113.2,89.95l4.95,4.649
							c0.066,0.067,0.1,0.167,0.1,0.301c0,0.1-0.033,0.183-0.1,0.25l-0.301,0.3l-4.649-4.4c-0.533-0.467-1.134-0.7-1.8-0.7H91.65
							c-0.328,0-0.495,0.142-0.5,0.426V89.7c0-0.334,0.166-0.5,0.5-0.5h19.75C112.1,89.2,112.7,89.45,113.2,89.95z"/>
					</g>
				</g>
			</g>
			<path style="fill-rule:evenodd;clip-rule:evenodd;fill:#8A8C4B;" d="M90.5,123.1l0.2-0.05c0.1,0.033,0.083,0.217-0.05,0.55
				c-0.101,0.301-0.2,0.517-0.301,0.65l-0.55,1.85l-0.3,2.551v0.5c0,0.066,0.017,0.216,0.05,0.449L89.5,129.7l-0.15,0.05
				c-0.133,0-0.233-0.1-0.3-0.3v0.2l-0.05,0.1l-0.15,0.05c-0.199,0-0.333-0.1-0.399-0.3l-0.2,0.15c-0.333,0.066-0.5-0.334-0.5-1.2
				v-1.25l0.2-1.3c0.166-0.567,0.366-0.983,0.6-1.25c0.101,0.199,0.101,0.583,0,1.149v0.05l0.3-1c0.101-0.3,0.184-0.55,0.25-0.75
				c0.134-0.3,0.284-0.5,0.45-0.6c0.066,0.2,0.05,0.583-0.05,1.15c-0.066,0.3-0.15,0.649-0.25,1.05l-0.3,1.5l-0.05,1.25l0.074,0.45
				c-0.017-0.156-0.024-0.39-0.024-0.7c0-0.733,0.1-1.434,0.3-2.101c0.1-0.5,0.283-1.066,0.55-1.699l0.4-0.9L90.5,123.1z"/>
			<path style="fill-rule:evenodd;clip-rule:evenodd;fill:#8A8C4B;" d="M81.45,126.95l-0.5-0.101c-0.3-0.1-0.3-0.149,0-0.149
				c0.966-0.134,1.783,0.133,2.45,0.8c0.167,0.167,0.283,0.333,0.35,0.5c0.133-0.7-0.033-1.55-0.5-2.55l-1.05-2.4
				c0.733,0.434,1.367,1.316,1.9,2.65c0.333,1.066,0.5,1.883,0.5,2.45v0.449l0.1,0.45c0.1,0.4,0.05,0.617-0.15,0.65
				c-0.197,0.065-0.297-0.051-0.3-0.351c-0.003,0.203-0.104,0.369-0.3,0.5c-0.133,0.134-0.333,0.2-0.6,0.2
				c-0.333,0-0.617-0.184-0.85-0.55l-0.05-0.1c-0.034-0.101-0.034-0.233,0-0.4c0.066-0.2,0.1-0.333,0.1-0.4
				c0-0.466-0.083-0.833-0.25-1.1C82.133,127.233,81.85,127.05,81.45,126.95z"/>
			<path style="fill-rule:evenodd;clip-rule:evenodd;fill:#A3A25B;" d="M89.7,125.2l-1.05,2.399c-0.4,1.034-0.534,2.117-0.4,3.25
				c0,0.134,0.066,0.334,0.2,0.601v0.05c-0.033,0.1-0.134,0.15-0.3,0.15c-0.167-0.034-0.301-0.084-0.4-0.15
				c-0.366-0.2-0.517-0.717-0.45-1.55c0.101-0.7,0.283-1.4,0.55-2.101C88.35,126.483,88.967,125.6,89.7,125.2z"/>
			<path style="fill-rule:evenodd;clip-rule:evenodd;fill:#A3A25B;" d="M82.9,124.8c0.233,0.101,0.434,0.351,0.6,0.75
				c0.1,0.233,0.217,0.533,0.35,0.9c0.2,0.5,0.367,1.116,0.5,1.85c0.145,0.664,0.203,1.331,0.175,2l0.025-0.2
				c0.034-0.199,0.017-0.616-0.05-1.25l-0.25-1.5c-0.367-1.166-0.483-1.899-0.35-2.199c0.167,0.1,0.317,0.3,0.45,0.6
				c0.066,0.2,0.15,0.45,0.25,0.75l0.35,1v-0.05c-0.1-0.601-0.117-0.983-0.05-1.15h0.05c0.2,0.334,0.383,0.75,0.55,1.25l0.2,1.3
				v1.25c0,0.834-0.167,1.233-0.5,1.2l-0.15-0.149c-0.1,0.199-0.25,0.3-0.45,0.3l-0.1-0.05l-0.05-0.101l-0.05-0.2
				c-0.033,0.2-0.133,0.301-0.3,0.301L84,131.35l-0.05-0.1c0.066-1.4-0.067-2.7-0.4-3.9c-0.2-0.866-0.433-1.55-0.7-2.05
				c-0.4-0.399-0.417-0.583-0.05-0.55L82.9,124.8z"/>
			<path style="fill-rule:evenodd;clip-rule:evenodd;fill:#A3A25B;" d="M91,124.3c0.167-0.033,0.15,0.15-0.05,0.55
				c-0.2,0.334-0.45,1.017-0.75,2.051c-0.334,1.399-0.45,2.699-0.351,3.899l-0.1,0.101c-0.3,0.1-0.45-0.15-0.45-0.75
				c-0.066-0.5-0.033-1.267,0.101-2.301c0.066-0.466,0.233-1.083,0.5-1.85c0.133-0.366,0.25-0.667,0.35-0.9
				c0.2-0.399,0.4-0.649,0.6-0.75L91,124.3z"/>
			<g>
				<path style="fill-rule:evenodd;clip-rule:evenodd;fill:#5D4C37;" d="M80.85,129.7l-0.2,0.1c0.934-0.166,1.6-0.116,2,0.15
					c0.434,0.3,0.3,0.5-0.4,0.6H81.9c-0.1-0.1-0.183-0.149-0.25-0.149c-0.367,0.033-0.65,0.033-0.85,0c-0.433,0-0.6-0.117-0.5-0.351
					C80.333,129.917,80.517,129.8,80.85,129.7z"/>
				<path style="fill-rule:evenodd;clip-rule:evenodd;fill:#5D4C37;" d="M83.175,131.575c0.16-0.156,0.585-0.281,1.275-0.375
					c0.566,0,1.45,0.083,2.649,0.25c0.134,0.033,0.4,0.033,0.801,0c0.333,0,0.566,0.066,0.699,0.2c0.2,0.233,0.051,0.399-0.449,0.5
					l-0.7,0.35c-0.3,0.134-0.684,0.2-1.15,0.2c-0.6,0-1.05-0.05-1.35-0.15c-0.233-0.1-0.5-0.149-0.8-0.149c-0.7,0-1.1-0.134-1.2-0.4
					C82.872,131.765,82.946,131.623,83.175,131.575z"/>
				<g>
					<path style="fill-rule:evenodd;clip-rule:evenodd;fill:#9E968D;" d="M82.1,128.3l0.7,0.101c0.333,0.066,0.5,0.233,0.5,0.5
						s-0.05,0.5-0.15,0.699c-0.133,0.334-0.483,0.534-1.05,0.601c-0.967,0-1.434-0.3-1.4-0.9c0-0.366,0.167-0.633,0.5-0.8
						C81.467,128.366,81.767,128.3,82.1,128.3z"/>
					<path style="fill-rule:evenodd;clip-rule:evenodd;fill:#86827A;" d="M83.2,128.9l0.05,0.35c0.1,0.467,0,0.8-0.3,1
						c0,0.033-0.15,0.05-0.45,0.05l-0.5-0.05c-0.467-0.3-0.433-0.583,0.1-0.85L83.2,128.9z"/>
					<g>
						<path style="fill-rule:evenodd;clip-rule:evenodd;fill:#B4A99E;" d="M84.3,129.55c0.267-0.3,0.9-0.45,1.9-0.45
							s1.633,0.134,1.899,0.4c0.301,0.267,0.45,0.634,0.45,1.1c0,0.5-0.184,0.884-0.55,1.15c-0.3,0.267-1.05,0.4-2.25,0.4
							c-1.133,0-1.883-0.134-2.25-0.4c-0.667-0.467-0.733-0.95-0.2-1.45c0.2-0.166,0.733-0.483,1.6-0.95L84.3,129.55z"/>
						<path style="fill-rule:evenodd;clip-rule:evenodd;fill:#9E968D;" d="M83.25,131.75c0.4-0.2,1.083-0.366,2.05-0.5
							c0.434-0.167,1.117-0.316,2.05-0.45c0.167-0.033,0.4-0.233,0.7-0.6l-0.1-0.351c0.7-0.033,0.883,0.434,0.55,1.4
							c-0.1,0.4-0.233,0.65-0.4,0.75c-0.066,0.033-0.383,0.05-0.949,0.05l-2.05,0.101C84.333,132.15,83.717,132.017,83.25,131.75z"
							/>
					</g>
				</g>
			</g>
		</g>
	</g>
	
		<use xlink:href="#FlashAICB_x2F_Layer_1_x2F__x3C_Path_x3E_"  width="119.15" height="57.35" y="-57.35" transform="matrix(1 0 0 -1 26.6001 86.2998)" style="overflow:visible;opacity:0.3398;enable-background:new    ;"/>
	
		<use xlink:href="#FlashAICB_x2F_Layer_1_x2F__x3C_Group_x3E_"  width="-32766" height="-32766" x="16383" y="16383" transform="matrix(1 0 0 -1 30.9502 27.25)" style="overflow:visible;opacity:0.8594;enable-background:new    ;"/>
</g>
<use xlink:href="#FlashAICB_x2F_Layer_1_x2F__x3C_Path_x3E__x5F_1_x5F_0"  width="110.45" height="56" y="-56" transform="matrix(1 0 0 -1 30.5498 28.1001)" style="overflow:visible;opacity:0.1992;enable-background:new    ;"/>
<use xlink:href="#FlashAICB_x2F_Layer_1_x2F__x3C_Path_x3E__x5F_0"  width="110.45" height="61.544" y="-61.544" transform="matrix(1 0 0 -1 30.5 27.7002)" style="overflow:visible;opacity:0.1211;enable-background:new    ;"/>
<g>
	<path style="fill-rule:evenodd;clip-rule:evenodd;fill:#DAEFE8;" d="M92.584,37.744c0,0.938-0.297,1.609-0.891,2.016
		c-0.375,0.25-0.829,0.376-1.36,0.376h-6.004l-0.469,3.376c1.157-0.219,1.954-0.328,2.392-0.328c1.907,0,3.487,0.673,4.738,2.017
		c1.25,1.313,1.876,2.909,1.876,4.785c0,2.72-0.72,4.863-2.158,6.425c-1.501,1.595-3.611,2.392-6.332,2.392
		c-1.407,0-2.845-0.359-4.315-1.078c-1.783-0.876-2.673-1.938-2.673-3.19c0-0.594,0.218-1.094,0.656-1.5
		c0.407-0.438,0.907-0.657,1.501-0.657c0.344,0,1.063,0.343,2.157,1.031c1.063,0.688,1.986,1.033,2.768,1.033
		c1.063,0,1.923-0.454,2.58-1.36c0.563-0.782,0.844-1.72,0.844-2.814c0-0.969-0.266-1.75-0.797-2.345
		c-0.563-0.595-1.329-0.891-2.298-0.891c-0.625,0-1.266,0.172-1.923,0.516c-0.688,0.344-1.297,0.517-1.83,0.517
		c-0.563,0-1.031-0.172-1.407-0.517c-0.312-0.313-0.469-0.641-0.469-0.985l0.891-7.786c0.157-1.219,0.422-2.033,0.797-2.438
		c0.344-0.407,0.907-0.61,1.689-0.61h7.692c0.72,0,1.298,0.188,1.735,0.563C92.381,36.665,92.584,37.149,92.584,37.744z"/>
	
		<linearGradient id="SVGID_34_" gradientUnits="userSpaceOnUse" x1="-239.7661" y1="2665.9102" x2="-214.7661" y2="2665.9102" gradientTransform="matrix(3.752320e-005 -0.9381 0.9381 -9.380799e-004 -2415.7004 -163.8492)">
		<stop  offset="0" style="stop-color:#0E2924"/>
		<stop  offset="0.4549" style="stop-color:#1D413D"/>
		<stop  offset="0.9686" style="stop-color:#31615F"/>
	</linearGradient>
	<path style="fill-rule:evenodd;clip-rule:evenodd;fill:url(#SVGID_34_);" d="M92.584,36.665c0,0.938-0.297,1.61-0.891,2.017
		c-0.375,0.25-0.829,0.375-1.36,0.375h-6.004l-0.469,3.378c1.001-0.188,1.798-0.282,2.392-0.282c1.907,0,3.487,0.657,4.738,1.971
		c1.25,1.313,1.876,2.908,1.876,4.784c0,2.721-0.72,4.863-2.158,6.426c-1.501,1.626-3.611,2.439-6.332,2.439
		c-1.407,0-2.845-0.36-4.315-1.08c-1.783-0.875-2.673-1.938-2.673-3.188c0-0.595,0.218-1.11,0.656-1.548
		c0.407-0.438,0.907-0.657,1.501-0.657c0.344,0,1.063,0.344,2.157,1.032c1.063,0.688,1.986,1.032,2.768,1.032
		c1.063,0,1.923-0.438,2.58-1.313c0.563-0.813,0.844-1.767,0.844-2.862c0-0.969-0.266-1.75-0.797-2.345
		c-0.563-0.594-1.329-0.891-2.298-0.891c-0.625,0-1.266,0.187-1.923,0.563c-0.688,0.344-1.297,0.516-1.83,0.516
		c-0.563,0-1.031-0.188-1.407-0.563c-0.312-0.313-0.469-0.626-0.469-0.938l0.891-7.833c0.157-1.219,0.422-2.032,0.797-2.438
		c0.344-0.407,0.907-0.61,1.689-0.61h7.692c0.72,0,1.298,0.203,1.735,0.61C92.381,35.633,92.584,36.103,92.584,36.665z"/>
</g>
<g>
	<path style="fill-rule:evenodd;clip-rule:evenodd;fill:#DAEFE8;" d="M97.322,39.714c-0.813,0-1.424-0.235-1.829-0.704
		c-0.345-0.375-0.517-0.876-0.517-1.5c0-0.626,0.172-1.126,0.517-1.501c0.405-0.469,1.016-0.704,1.829-0.704h11.538
		c0.75,0,1.344,0.281,1.782,0.845c0.344,0.438,0.517,0.922,0.517,1.454c0,0.407-0.234,1.11-0.704,2.111l-7.927,16.041
		c-0.5,1.001-0.876,1.626-1.126,1.876c-0.345,0.375-0.86,0.563-1.548,0.563c-0.781,0-1.438-0.266-1.97-0.798
		c-0.469-0.437-0.703-0.922-0.703-1.454c0-0.25,0.109-0.625,0.327-1.126l7.974-15.103H97.322z"/>
	
		<linearGradient id="SVGID_35_" gradientUnits="userSpaceOnUse" x1="-239.3228" y1="2685.0332" x2="-214.3477" y2="2685.0332" gradientTransform="matrix(3.756076e-005 -0.9381 0.9381 -9.380799e-004 -2415.7002 -163.8492)">
		<stop  offset="0" style="stop-color:#0E2924"/>
		<stop  offset="0.4549" style="stop-color:#1D413D"/>
		<stop  offset="0.9686" style="stop-color:#31615F"/>
	</linearGradient>
	<path style="fill-rule:evenodd;clip-rule:evenodd;fill:url(#SVGID_35_);" d="M97.322,38.635c-0.813,0-1.424-0.235-1.829-0.704
		c-0.345-0.375-0.517-0.875-0.517-1.5c0-0.626,0.172-1.126,0.517-1.501c0.405-0.469,1.016-0.704,1.829-0.704h11.538
		c0.75,0,1.344,0.281,1.782,0.844c0.344,0.438,0.517,0.923,0.517,1.454c0,0.407-0.234,1.11-0.704,2.111l-7.927,16.088
		c-0.5,1-0.876,1.626-1.126,1.876c-0.345,0.344-0.86,0.516-1.548,0.516c-0.813,0-1.47-0.25-1.97-0.75
		c-0.469-0.469-0.703-0.969-0.703-1.5c0-0.188,0.109-0.563,0.327-1.126l7.974-15.104H97.322z"/>
</g>
<g>
	<path style="fill-rule:evenodd;clip-rule:evenodd;fill:#DAEFE8;" d="M76.074,35.727c0.345,0.438,0.516,0.922,0.516,1.454
		c0,0.407-0.235,1.11-0.704,2.111L67.959,55.38c-0.469,0.969-0.844,1.595-1.125,1.876c-0.375,0.344-0.891,0.516-1.548,0.516
		c-0.813,0-1.485-0.25-2.018-0.75c-0.438-0.469-0.656-0.969-0.656-1.501c0-0.313,0.109-0.688,0.328-1.125l7.974-15.104h-8.162
		c-0.813,0-1.423-0.235-1.83-0.704c-0.343-0.375-0.516-0.876-0.516-1.5c0-1.47,0.781-2.205,2.345-2.205h11.538
		C75.043,34.882,75.637,35.165,76.074,35.727z"/>
	
		<linearGradient id="SVGID_36_" gradientUnits="userSpaceOnUse" x1="-238.8359" y1="2648.1836" x2="-213.8609" y2="2648.1836" gradientTransform="matrix(3.756076e-005 -0.9381 0.9381 -9.380799e-004 -2415.7002 -163.8492)">
		<stop  offset="0" style="stop-color:#0E2924"/>
		<stop  offset="0.4549" style="stop-color:#1D413D"/>
		<stop  offset="0.9686" style="stop-color:#31615F"/>
	</linearGradient>
	<path style="fill-rule:evenodd;clip-rule:evenodd;fill:url(#SVGID_36_);" d="M76.074,34.648c0.345,0.469,0.516,0.954,0.516,1.455
		c0,0.406-0.235,1.109-0.704,2.111l-7.927,16.087c-0.5,1-0.875,1.626-1.125,1.876c-0.375,0.375-0.891,0.563-1.548,0.563
		c-0.813,0-1.485-0.267-2.018-0.798c-0.438-0.469-0.656-0.969-0.656-1.5c0-0.313,0.109-0.672,0.328-1.079l7.974-15.149h-8.162
		c-1.564,0-2.345-0.736-2.345-2.205c0-0.625,0.172-1.126,0.516-1.501c0.407-0.469,1.017-0.703,1.83-0.703h11.538
		C75.043,33.804,75.637,34.085,76.074,34.648z"/>
</g>
</svg>
